<svg xmlns="http://www.w3.org/2000/svg" viewBox="0 0 256 256"><rect width="256" height="256" fill="none"/><path d="M60.07,112a16.23,16.23,0,0,0,14.72-10A34.21,34.21,0,0,1,82.4,90.4c17.23-17.23,49.82-12.57,72.8,10.4s27.63,55.57,10.4,72.8a34.21,34.21,0,0,1-11.66,7.61,16.23,16.23,0,0,0-10,14.72C143.56,208,139.39,219,131.2,227.2,110,248.4,69.88,242.67,41.6,214.4S7.6,146,28.8,124.8C37,116.61,48,112.44,60.07,112Z" fill="none" stroke="currentColor" stroke-linecap="round" stroke-linejoin="round" stroke-width="24"/><line x1="60" y1="172" x2="84" y2="196" fill="none" stroke="currentColor" stroke-linecap="round" stroke-linejoin="round" stroke-width="24"/><circle cx="112" cy="144" r="24"/><line x1="204" y1="12" x2="244" y2="52" fill="none" stroke="currentColor" stroke-linecap="round" stroke-linejoin="round" stroke-width="24"/><line x1="174" y1="54" x2="202" y2="82" fill="none" stroke="currentColor" stroke-linecap="round" stroke-linejoin="round" stroke-width="24"/><line x1="139.39" y1="88.61" x2="210" y2="18" fill="none" stroke="currentColor" stroke-linecap="round" stroke-linejoin="round" stroke-width="24"/><line x1="167.39" y1="116.61" x2="238" y2="46" fill="none" stroke="currentColor" stroke-linecap="round" stroke-linejoin="round" stroke-width="24"/></svg>