<svg xmlns="http://www.w3.org/2000/svg" viewBox="0 0 256 256"><rect width="256" height="256" fill="none"/><polyline points="24 180 68 164 108 180 148 164 188 180 232 164" fill="none" stroke="currentColor" stroke-linecap="round" stroke-linejoin="round" stroke-width="24"/><line x1="24" y1="128" x2="232" y2="128" fill="none" stroke="currentColor" stroke-linecap="round" stroke-linejoin="round" stroke-width="24"/><path d="M208,172.73V184a32,32,0,0,1-32,32H80a32,32,0,0,1-32-32V171.27" fill="none" stroke="currentColor" stroke-linecap="round" stroke-linejoin="round" stroke-width="24"/><path d="M48.2,92a8,8,0,0,1-7.83-10.29C49.49,53.24,85.26,32,128,32s78.52,21.25,87.63,49.73A8,8,0,0,1,207.8,92Z" fill="none" stroke="currentColor" stroke-linecap="round" stroke-linejoin="round" stroke-width="24"/></svg>