<svg xmlns="http://www.w3.org/2000/svg" viewBox="0 0 256 256"><rect width="256" height="256" fill="none"/><path d="M172,188v20a8,8,0,0,0,8,8h29.89a8,8,0,0,0,7.72-5.9L236,128,179.71,43.56A8,8,0,0,0,173.05,40H83a8,8,0,0,0-6.66,3.56L20,128l18.39,82.1a8,8,0,0,0,7.72,5.9H76a8,8,0,0,0,8-8V188" fill="none" stroke="currentColor" stroke-linecap="round" stroke-linejoin="round" stroke-width="24"/><path d="M68,56l60,32,60-32V180a8,8,0,0,1-8,8H76a8,8,0,0,1-8-8Z" fill="none" stroke="currentColor" stroke-linecap="round" stroke-linejoin="round" stroke-width="24"/><line x1="108" y1="77.33" x2="108" y2="136" fill="none" stroke="currentColor" stroke-linecap="round" stroke-linejoin="round" stroke-width="24"/><line x1="148" y1="77.33" x2="148" y2="128" fill="none" stroke="currentColor" stroke-linecap="round" stroke-linejoin="round" stroke-width="24"/></svg>