<svg xmlns="http://www.w3.org/2000/svg" viewBox="0 0 256 256"><rect width="256" height="256" fill="none"/><line x1="12" y1="124" x2="244" y2="124" fill="none" stroke="currentColor" stroke-linecap="round" stroke-linejoin="round" stroke-width="24"/><path d="M228,124,194.36,71.67A8,8,0,0,0,187.63,68H68.37a8,8,0,0,0-6.73,3.67L28,124v48H228Z" fill="none" stroke="currentColor" stroke-linecap="round" stroke-linejoin="round" stroke-width="24"/><line x1="104" y1="28" x2="152" y2="28" fill="none" stroke="currentColor" stroke-linecap="round" stroke-linejoin="round" stroke-width="24"/><path d="M228,172v32a8,8,0,0,1-8,8H196a8,8,0,0,1-8-8V172" fill="none" stroke="currentColor" stroke-linecap="round" stroke-linejoin="round" stroke-width="24"/><path d="M68,172v32a8,8,0,0,1-8,8H36a8,8,0,0,1-8-8V172" fill="none" stroke="currentColor" stroke-linecap="round" stroke-linejoin="round" stroke-width="24"/></svg>