<svg xmlns="http://www.w3.org/2000/svg" viewBox="0 0 256 256"><rect width="256" height="256" fill="none"/><circle cx="184" cy="32" r="12" fill="none" stroke="currentColor" stroke-linecap="round" stroke-linejoin="round" stroke-width="24"/><path d="M59.41,89.88C77.72,78.75,101.72,72,128,72s50.28,6.75,68.59,17.88h0a24,24,0,1,1,31.62,34.79h0A51.6,51.6,0,0,1,232,144c0,39.76-46.56,72-104,72S24,183.76,24,144a51.6,51.6,0,0,1,3.79-19.33h0A24,24,0,1,1,59.41,89.88Z" fill="none" stroke="currentColor" stroke-linecap="round" stroke-linejoin="round" stroke-width="24"/><circle cx="88" cy="128" r="20"/><circle cx="168" cy="128" r="20"/><path d="M156,172a100,100,0,0,1-56,0" fill="none" stroke="currentColor" stroke-linecap="round" stroke-linejoin="round" stroke-width="24"/><polyline points="128 72 136 24 172.16 30.03" fill="none" stroke="currentColor" stroke-linecap="round" stroke-linejoin="round" stroke-width="24"/></svg>