<svg xmlns="http://www.w3.org/2000/svg" viewBox="0 0 256 256"><rect width="256" height="256" fill="none"/><path d="M102.84,186.25a35.71,35.71,0,0,1-41.34,29.2h0a36,36,0,0,1-28.95-41.71l25-143.13a8,8,0,0,1,9.19-6.49l54.67,9.73a8,8,0,0,1,6.44,9.26Z" fill="none" stroke="currentColor" stroke-linecap="round" stroke-linejoin="round" stroke-width="24"/><path d="M224,156.19V208a8,8,0,0,1-8,8H68" fill="none" stroke="currentColor" stroke-linecap="round" stroke-linejoin="round" stroke-width="24"/><path d="M113.42,125.76l80.79-29.28a8,8,0,0,1,10.22,4.75l19.09,52.21a7.93,7.93,0,0,1-4.77,10.17L80.16,213.84A35.07,35.07,0,0,1,68,216" fill="none" stroke="currentColor" stroke-linecap="round" stroke-linejoin="round" stroke-width="24"/><line x1="68" y1="180" x2="69.4" y2="172" fill="none" stroke="currentColor" stroke-linecap="round" stroke-linejoin="round" stroke-width="24"/></svg>