<svg stroke="currentColor" fill="none" stroke-width="2" viewBox="0 0 24 24" stroke-linecap="round" stroke-linejoin="round" height="1em" width="1em" xmlns="http://www.w3.org/2000/svg"><desc></desc><path stroke="none" d="M0 0h24v24H0z" fill="none"></path><path d="M7.278 4h9.444a2 2 0 0 1 1.841 1.22c.958 2.26 1.437 4.52 1.437 6.78c0 2.26 -.479 4.52 -1.437 6.78a2 2 0 0 1 -1.841 1.22h-9.444a2 2 0 0 1 -1.841 -1.22c-.958 -2.26 -1.437 -4.52 -1.437 -6.78c0 -2.26 .479 -4.52 1.437 -6.78a2 2 0 0 1 1.841 -1.22z"></path><path d="M14 4c.667 2.667 1 5.333 1 8s-.333 5.333 -1 8"></path><path d="M10 4c-.667 2.667 -1 5.333 -1 8s.333 5.333 1 8"></path><path d="M4.5 16h15"></path><path d="M19.5 8h-15"></path></svg>