<svg stroke="currentColor" fill="none" stroke-width="2" viewBox="0 0 24 24" stroke-linecap="round" stroke-linejoin="round" height="1em" width="1em" xmlns="http://www.w3.org/2000/svg"><desc></desc><path stroke="none" d="M0 0h24v24H0z" fill="none"></path><path d="M17.553 16.75a7.5 7.5 0 0 0 -10.606 0"></path><path d="M18 3.804a6 6 0 0 0 -8.196 2.196l10.392 6a6 6 0 0 0 -2.196 -8.196z"></path><path d="M16.732 10c1.658 -2.87 2.225 -5.644 1.268 -6.196c-.957 -.552 -3.075 1.326 -4.732 4.196"></path><path d="M15 9l-3 5.196"></path><path d="M3 19.25a2.4 2.4 0 0 1 1 -.25a2.4 2.4 0 0 1 2 1a2.4 2.4 0 0 0 2 1a2.4 2.4 0 0 0 2 -1a2.4 2.4 0 0 1 2 -1a2.4 2.4 0 0 1 2 1a2.4 2.4 0 0 0 2 1a2.4 2.4 0 0 0 2 -1a2.4 2.4 0 0 1 2 -1a2.4 2.4 0 0 1 1 .25"></path></svg>