<svg stroke="currentColor" fill="none" stroke-width="2" viewBox="0 0 24 24" stroke-linecap="round" stroke-linejoin="round" height="1em" width="1em" xmlns="http://www.w3.org/2000/svg"><desc></desc><path stroke="none" d="M0 0h24v24H0z" fill="none"></path><line x1="3" y1="21" x2="21" y2="21"></line><path d="M3 7v1a3 3 0 0 0 6 0v-1m0 1a3 3 0 0 0 6 0v-1m0 1a3 3 0 0 0 6 0v-1h-18l2 -4h14l2 4"></path><line x1="5" y1="21" x2="5" y2="10.85"></line><line x1="19" y1="21" x2="19" y2="10.85"></line><path d="M9 21v-4a2 2 0 0 1 2 -2h2a2 2 0 0 1 2 2v4"></path></svg>