<svg stroke="currentColor" fill="none" stroke-width="2" viewBox="0 0 24 24" stroke-linecap="round" stroke-linejoin="round" height="1em" width="1em" xmlns="http://www.w3.org/2000/svg"><desc></desc><path stroke="none" d="M0 0h24v24H0z" fill="none"></path><path d="M13 9h6a2 2 0 0 1 2 2v6m-2 2h-10a2 2 0 0 1 -2 -2v-6a2 2 0 0 1 2 -2"></path><path d="M12.582 12.59a2 2 0 0 0 2.83 2.826"></path><path d="M17 9v-2a2 2 0 0 0 -2 -2h-6m-4 0a2 2 0 0 0 -2 2v6a2 2 0 0 0 2 2h2"></path><path d="M3 3l18 18"></path></svg>