<svg stroke="currentColor" fill="none" stroke-width="2" viewBox="0 0 24 24" stroke-linecap="round" stroke-linejoin="round" height="1em" width="1em" xmlns="http://www.w3.org/2000/svg"><desc></desc><path stroke="none" d="M0 0h24v24H0z" fill="none"></path><path d="M3 19h.01"></path><path d="M7 19a4 4 0 0 0 -4 -4"></path><path d="M11 19a8 8 0 0 0 -8 -8"></path><path d="M15 19h3a3 3 0 0 0 .875 -.13m1.997 -2.002a3 3 0 0 0 .128 -.868v-8a3 3 0 0 0 -3 -3h-9m-3.865 .136a3 3 0 0 0 -1.935 1.864"></path><path d="M3 3l18 18"></path></svg>