<svg stroke="currentColor" fill="none" stroke-width="2" viewBox="0 0 24 24" stroke-linecap="round" stroke-linejoin="round" height="1em" width="1em" xmlns="http://www.w3.org/2000/svg"><desc></desc><path stroke="none" d="M0 0h24v24H0z" fill="none"></path><path d="M10 15l5.586 -5.585a2 2 0 1 1 3.414 -1.415a2 2 0 1 1 -1.413 3.414l-3.587 3.586"></path><path d="M12 13l-3.586 -3.585a2 2 0 1 0 -3.414 -1.415a2 2 0 1 0 1.413 3.414l3.587 3.586"></path><path d="M3 20h18c-.175 -1.671 -.046 -3.345 -2 -5h-14c-1.333 1 -2 2.667 -2 5z"></path></svg>