<svg stroke="currentColor" fill="none" stroke-width="2" viewBox="0 0 24 24" stroke-linecap="round" stroke-linejoin="round" height="1em" width="1em" xmlns="http://www.w3.org/2000/svg"><desc></desc><path stroke="none" d="M0 0h24v24H0z" fill="none"></path><path d="M8 11v-3.5a1.5 1.5 0 0 1 3 0v2.5"></path><path d="M11 9.5v-3a1.5 1.5 0 0 1 3 0v3.5"></path><path d="M14 7.5a1.5 1.5 0 0 1 3 0v2.5"></path><path d="M17 9.5a1.5 1.5 0 0 1 3 0v4.5a6 6 0 0 1 -6 6h-2h.208a6 6 0 0 1 -5.012 -2.7l-.196 -.3c-.312 -.479 -1.407 -2.388 -3.286 -5.728a1.5 1.5 0 0 1 .536 -2.022a1.867 1.867 0 0 1 2.28 .28l1.47 1.47"></path></svg>