<svg stroke="currentColor" fill="none" stroke-width="2" viewBox="0 0 24 24" stroke-linecap="round" stroke-linejoin="round" height="1em" width="1em" xmlns="http://www.w3.org/2000/svg"><desc></desc><path stroke="none" d="M0 0h24v24H0z" fill="none"></path><line x1="9.5" y1="11" x2="9.51" y2="11"></line><line x1="14.5" y1="11" x2="14.51" y2="11"></line><path d="M9.5 15a3.5 3.5 0 0 0 5 0"></path><path d="M7 5h1v-2h8v2h1a3 3 0 0 1 3 3v9a3 3 0 0 1 -3 3v1h-10v-1a3 3 0 0 1 -3 -3v-9a3 3 0 0 1 3 -3"></path></svg>