<svg stroke="currentColor" fill="none" stroke-width="2" viewBox="0 0 24 24" stroke-linecap="round" stroke-linejoin="round" height="1em" width="1em" xmlns="http://www.w3.org/2000/svg"><desc></desc><path stroke="none" d="M0 0h24v24H0z" fill="none"></path><path d="M17 8v-3a1 1 0 0 0 -1 -1h-8m-3.413 .584a2 2 0 0 0 1.413 3.416h2m4 0h6a1 1 0 0 1 1 1v3"></path><path d="M19 19a1 1 0 0 1 -1 1h-12a2 2 0 0 1 -2 -2v-12"></path><path d="M16 12h4v4m-4 0a2 2 0 0 1 -2 -2"></path><path d="M3 3l18 18"></path></svg>