<svg clip-rule="evenodd" fill-rule="evenodd" stroke-linejoin="round" stroke-miterlimit="2" viewBox="0 0 560 400" xmlns="http://www.w3.org/2000/svg"><g transform="matrix(4.0082 0 0 4.00662 117.058 62.5997)"><g transform="translate(143 148)"><path d="m-114.2-96.03 6.35-13.36c-4.85-1.03-9.73-4.03-12.49-7.68l-6.64 13.96c3.69 3.13 8.12 5.59 12.78 7.08" fill="#1a007f"/><path d="m-87.7-117.47c-3.19 3.91-7.62 6.81-12.36 7.94l6.33 13.32c4.62-1.56 8.94-4.08 12.67-7.31z" fill="#4e000a"/><path d="m-126.98-103.11-3.32 6.98c-1.69 3.55-.42 7.92 3.06 9.77 3.69 1.96 8.23.43 10.01-3.3l3.03-6.37c-4.679-1.508-9.02-3.913-12.78-7.08" fill="#1a007f"/><path d="m-74.52-132.71c-.471-.094-.951-.142-1.431-.142-3.463 0-6.471 2.467-7.149 5.862-.7 3.5-2.34 6.76-4.6 9.53l6.63 13.96c6.12-5.31 10.64-12.54 12.26-20.63.79-3.96-1.77-7.8-5.71-8.58" fill="#ff9396"/><path d="m-100.06-109.53c-1.42.34-2.87.52-4.32.52-1.13 0-2.3-.13-3.47-.38-4.85-1.03-9.73-4.03-12.49-7.68-.69-.91-1.25-1.86-1.64-2.83-1.51-3.73-5.76-5.53-9.49-4.03-3.73 1.51-5.53 5.76-4.03 9.49 1.71 4.24 4.73 8.13 8.52 11.33 3.757 3.167 8.094 5.571 12.77 7.08 3.21 1.03 6.54 1.6 9.82 1.6 3.64 0 7.23-.63 10.65-1.78z" fill="#002dc8"/><path d="m-77.57-96.16-3.5-7.36-6.63-13.95-.01.01s0-.01.01-.01l-9.64-20.28c-1.206-2.535-3.773-4.158-6.58-4.16-2.81 0-5.37 1.62-6.58 4.16l-9.83 20.68c2.76 3.65 7.64 6.65 12.49 7.68l3.18-6.68c.3-.63 1.2-.63 1.5 0l3.11 6.54h.02-.02l6.33 13.32 3.11 6.54c1.205 2.54 3.778 4.165 6.59 4.16.65 0 1.3-.09 1.94-.27 4.39-1.21 6.47-6.26 4.51-10.38" fill="#ff536a"/></g><path d="m28.8 51.97 6.35-13.36c-4.85-1.03-9.73-4.03-12.49-7.68l-6.64 13.96c3.69 3.13 8.12 5.59 12.78 7.08" fill="#1a007f"/><path d="m55.3 30.53c-3.19 3.91-7.62 6.81-12.36 7.94l6.33 13.32c4.62-1.56 8.94-4.08 12.67-7.31z" fill="#4e000a"/><path d="m16.02 44.89-3.32 6.98c-1.69 3.55-.42 7.92 3.06 9.77 3.69 1.96 8.23.43 10.01-3.3l3.03-6.37c-4.679-1.508-9.02-3.913-12.78-7.08" fill="#1a007f"/><path d="m68.48 15.29c-.471-.094-.951-.142-1.431-.142-3.463 0-6.471 2.467-7.149 5.862-.7 3.5-2.34 6.76-4.6 9.53l6.63 13.96c6.12-5.31 10.64-12.54 12.26-20.63.79-3.96-1.77-7.8-5.71-8.58" fill="#ff9396"/><path d="m42.94 38.47c-1.42.34-2.87.52-4.32.52-1.13 0-2.3-.13-3.47-.38-4.85-1.03-9.73-4.03-12.49-7.68-.69-.91-1.25-1.86-1.64-2.83-1.51-3.73-5.76-5.53-9.49-4.03-3.73 1.51-5.53 5.76-4.03 9.49 1.71 4.24 4.73 8.13 8.52 11.33 3.757 3.167 8.094 5.571 12.77 7.08 3.21 1.03 6.54 1.6 9.82 1.6 3.64 0 7.23-.63 10.65-1.78z" fill="#002dc8"/><path d="m65.43 51.84-3.5-7.36-6.63-13.95-.01.01s0-.01.01-.01l-9.64-20.28c-1.206-2.535-3.773-4.158-6.58-4.16-2.81 0-5.37 1.62-6.58 4.16l-9.83 20.68c2.76 3.65 7.64 6.65 12.49 7.68l3.18-6.68c.3-.63 1.2-.63 1.5 0l3.11 6.54h.02-.02l6.33 13.32 3.11 6.54c1.205 2.54 3.778 4.165 6.59 4.16.65 0 1.3-.09 1.94-.27 4.39-1.21 6.47-6.26 4.51-10.38" fill="#ff536a"/></g></svg>