<svg xmlns="http://www.w3.org/2000/svg" viewBox="0 0 18 18" width="1em" height="1em" fill="currentColor"><mask id="javascript_svg__a" width="16" height="18" x="0.8" y="0.081" maskUnits="userSpaceOnUse"><path d="M.8.081h16v18H.8z"></path><path d="M11.221 11.254a3.236 3.236 0 01-1.735-.314 1.135 1.135 0 01-.425-.798.175.175 0 00-.18-.174 37.413 37.413 0 00-.753 0 .167.167 0 00-.183.147 1.843 1.843 0 00.597 1.456 3.175 3.175 0 001.767.663c.67.078 1.349.049 2.01-.085a2.484 2.484 0 001.332-.714c.402-.494.521-1.16.313-1.762a1.481 1.481 0 00-.975-.864c-1.016-.356-2.114-.328-3.15-.598-.18-.055-.4-.117-.48-.306a.673.673 0 01.225-.755 2.037 2.037 0 011.071-.265 3.248 3.248 0 011.494.213c.288.169.488.456.545.783a.192.192 0 00.181.186c.25.006.498.002.749.002a.18.18 0 00.195-.132 1.92 1.92 0 00-.942-1.664 4.685 4.685 0 00-2.553-.388 2.788 2.788 0 00-1.726.69 1.712 1.712 0 00-.344 1.786 1.529 1.529 0 00.966.84c1.014.363 2.124.246 3.145.569.2.067.432.17.493.39a.782.782 0 01-.214.748 2.366 2.366 0 01-1.423.346zm4.361-6.669a6909.08 6909.08 0 00-5.934-3.336 1.336 1.336 0 00-1.298 0L2.438 4.572a1.217 1.217 0 00-.638 1.06v6.692a1.226 1.226 0 00.663 1.07c.566.306 1.116.645 1.693.931a2.441 2.441 0 002.172.06 1.678 1.678 0 00.79-1.518c.003-2.208 0-4.417.001-6.625a.173.173 0 00-.164-.201 31.753 31.753 0 00-.756 0 .167.167 0 00-.182.168c-.003 2.194.002 4.39 0 6.585 0 .31-.193.588-.485.697a1.22 1.22 0 01-.984-.132l-1.572-.884a.187.187 0 01-.107-.186V5.667a.204.204 0 01.124-.205l5.891-3.306a.204.204 0 01.232 0l5.892 3.305a.207.207 0 01.123.205v6.624a.191.191 0 01-.106.188c-1.934 1.089-3.87 2.176-5.805 3.262-.092.05-.202.133-.31.07-.508-.285-1.007-.582-1.513-.87a.163.163 0 00-.183-.012c-.222.13-.456.24-.7.326-.109.044-.244.057-.32.158.096.104.213.187.344.245l1.773 1.02a1.298 1.298 0 001.314.036c1.97-1.105 3.941-2.211 5.912-3.319a1.229 1.229 0 00.663-1.07V5.631a1.216 1.216 0 00-.618-1.046z"></path></mask><path d="M11.221 11.254a3.236 3.236 0 01-1.735-.314 1.135 1.135 0 01-.425-.798.175.175 0 00-.18-.174 37.413 37.413 0 00-.753 0 .167.167 0 00-.183.147 1.843 1.843 0 00.597 1.456 3.175 3.175 0 001.767.663c.67.078 1.349.049 2.01-.085a2.484 2.484 0 001.332-.714c.402-.494.521-1.16.313-1.762a1.481 1.481 0 00-.975-.864c-1.016-.356-2.114-.328-3.15-.598-.18-.055-.4-.117-.48-.306a.673.673 0 01.225-.755 2.037 2.037 0 011.071-.265 3.248 3.248 0 011.494.213c.288.169.488.456.545.783a.192.192 0 00.181.186c.25.006.498.002.749.002a.18.18 0 00.195-.132 1.92 1.92 0 00-.942-1.664 4.685 4.685 0 00-2.553-.388 2.788 2.788 0 00-1.726.69 1.712 1.712 0 00-.344 1.786 1.529 1.529 0 00.966.84c1.014.363 2.124.246 3.145.569.2.067.432.17.493.39a.782.782 0 01-.214.748 2.366 2.366 0 01-1.423.346zm4.361-6.669a6909.08 6909.08 0 00-5.934-3.336 1.336 1.336 0 00-1.298 0L2.438 4.572a1.217 1.217 0 00-.638 1.06v6.692a1.226 1.226 0 00.663 1.07c.566.306 1.116.645 1.693.931a2.441 2.441 0 002.172.06 1.678 1.678 0 00.79-1.518c.003-2.208 0-4.417.001-6.625a.173.173 0 00-.164-.201 31.753 31.753 0 00-.756 0 .167.167 0 00-.182.168c-.003 2.194.002 4.39 0 6.585 0 .31-.193.588-.485.697a1.22 1.22 0 01-.984-.132l-1.572-.884a.187.187 0 01-.107-.186V5.667a.204.204 0 01.124-.205l5.891-3.306a.204.204 0 01.232 0l5.892 3.305a.207.207 0 01.123.205v6.624a.191.191 0 01-.106.188c-1.934 1.089-3.87 2.176-5.805 3.262-.092.05-.202.133-.31.07-.508-.285-1.007-.582-1.513-.87a.163.163 0 00-.183-.012c-.222.13-.456.24-.7.326-.109.044-.244.057-.32.158.096.104.213.187.344.245l1.773 1.02a1.298 1.298 0 001.314.036c1.97-1.105 3.941-2.211 5.912-3.319a1.229 1.229 0 00.663-1.07V5.631a1.216 1.216 0 00-.618-1.046z"></path><path stroke-width="0.48" d="M11.221 11.254a3.236 3.236 0 01-1.735-.314 1.135 1.135 0 01-.425-.798.175.175 0 00-.18-.174 37.413 37.413 0 00-.753 0 .167.167 0 00-.183.147 1.843 1.843 0 00.597 1.456 3.175 3.175 0 001.767.663c.67.078 1.349.049 2.01-.085a2.484 2.484 0 001.332-.714c.402-.494.521-1.16.313-1.762a1.481 1.481 0 00-.975-.864c-1.016-.356-2.114-.328-3.15-.598-.18-.055-.4-.117-.48-.306a.673.673 0 01.225-.755 2.037 2.037 0 011.071-.265 3.248 3.248 0 011.494.213c.288.169.488.456.545.783a.192.192 0 00.181.186c.25.006.498.002.749.002a.18.18 0 00.195-.132 1.92 1.92 0 00-.942-1.664 4.685 4.685 0 00-2.553-.388 2.788 2.788 0 00-1.726.69 1.712 1.712 0 00-.344 1.786 1.529 1.529 0 00.966.84c1.014.363 2.124.246 3.145.569.2.067.432.17.493.39a.782.782 0 01-.214.748 2.366 2.366 0 01-1.423.346zm4.361-6.669a6909.08 6909.08 0 00-5.934-3.336 1.336 1.336 0 00-1.298 0L2.438 4.572a1.217 1.217 0 00-.638 1.06v6.692a1.226 1.226 0 00.663 1.07c.566.306 1.116.645 1.693.931a2.441 2.441 0 002.172.06 1.678 1.678 0 00.79-1.518c.003-2.208 0-4.417.001-6.625a.173.173 0 00-.164-.201 31.753 31.753 0 00-.756 0 .167.167 0 00-.182.168c-.003 2.194.002 4.39 0 6.585 0 .31-.193.588-.485.697a1.22 1.22 0 01-.984-.132l-1.572-.884a.187.187 0 01-.107-.186V5.667a.204.204 0 01.124-.205l5.891-3.306a.204.204 0 01.232 0l5.892 3.305a.207.207 0 01.123.205v6.624a.191.191 0 01-.106.188c-1.934 1.089-3.87 2.176-5.805 3.262-.092.05-.202.133-.31.07-.508-.285-1.007-.582-1.513-.87a.163.163 0 00-.183-.012c-.222.13-.456.24-.7.326-.109.044-.244.057-.32.158.096.104.213.187.344.245l1.773 1.02a1.298 1.298 0 001.314.036c1.97-1.105 3.941-2.211 5.912-3.319a1.229 1.229 0 00.663-1.07V5.631a1.216 1.216 0 00-.618-1.046z" mask="url(#javascript_svg__a)"></path></svg>