<?xml version="1.0" encoding="UTF-8"?>
<svg id="a" xmlns="http://www.w3.org/2000/svg" viewBox="0 0 478.69 537.44">
  <defs>
    <style>
      .i {
        fill: #fff;
      }

      .j {
        fill: #96bedc;
      }

      .k {
        fill: #2d374b;
      }

      .l {
        fill: #28a0f0;
      }
    </style>
  </defs>
  <g id="b" data-name="symbol" transform="translate(-219 92)">
    <path id="c" data-name="Path 153" class="k" d="M299.91,246.24l39.47-66.97,106.38,165.69,.05,31.79-.35-218.81c-.25-5.36-3.1-10.25-7.62-13.13L246.31,34.65c-4.64-2.2-10.02-2.18-14.63,.07-.59,.3-1.16,.63-1.72,.99l-.67,.42L43.39,143.86l-.72,.33c-.96,.45-1.88,.98-2.75,1.6-3.49,2.49-5.86,6.24-6.62,10.46-.12,.64-.2,1.29-.24,1.93l.29,178.31,99.09-153.58c12.47-20.36,39.66-26.92,64.89-26.57l29.61,.77L52.44,436.94l20.57,11.84L249.6,157.39l78.05-.28L151.52,455.84l73.4,42.24,8.77,5.04c3.78,1.5,7.98,1.59,11.82,.23l194.22-112.55-37.15,21.52-102.68-166.09Zm15.06,216.88l-74.13-116.35,45.25-76.79,97.36,153.45-68.48,39.69Z"/>
    <path id="d" data-name="Path 154" class="l" d="M240.83,346.77l74.13,116.35,68.48-39.69-97.35-153.45-45.26,76.79Z"/>
    <path id="e" data-name="Path 155" class="l" d="M445.82,376.76l-.05-31.79-106.38-165.69-39.49,66.96,102.7,166.09,37.15-21.52c3.64-2.95,5.85-7.31,6.08-11.98v-2.07Z"/>
    <path id="f" data-name="Path 156" class="i" d="M.02,406.74l52.44,30.21L226.95,157.13l-29.61-.77c-25.23-.36-52.41,6.2-64.89,26.57L33.36,336.51,.04,387.73v19.03l-.02-.02Z"/>
    <path id="g" data-name="Path 157" class="i" d="M327.66,157.12l-78.05,.28L73.03,448.8l61.72,35.54,16.78-28.47L327.66,157.12Z"/>
    <path id="h" data-name="Path 158" class="j" d="M478.69,156.72c-.73-16.35-9.45-31.3-23.34-39.97L261.32,5.17c-14.04-6.9-30.48-6.9-44.52,0-1.62,.82-188.69,109.31-188.69,109.31-2.6,1.25-5.09,2.72-7.43,4.4C8.37,127.64,.75,141.54,0,156.63v231.09l33.32-51.22-.26-178.3c.32-4.95,2.83-9.5,6.86-12.39,.88-.63,191.15-110.77,191.75-111.07,4.61-2.25,10-2.27,14.63-.07l191.52,110.17c4.53,2.87,7.37,7.77,7.62,13.13v220.88c-.09,4.63-2.18,9-5.73,11.98l-37.15,21.52-19.15,11.11-68.48,39.69-69.45,40.25c-3.84,1.35-8.04,1.27-11.82-.23l-82.16-47.26-16.78,28.46,73.84,42.51c2.44,1.39,4.62,2.62,6.4,3.62,2.77,1.53,4.65,2.59,5.31,2.91,6.18,2.71,12.86,4.08,19.6,4.03,6.19,0,12.32-1.14,18.08-3.4l201.71-116.81c11.52-8.96,18.48-22.56,19-37.15V156.72Z"/>
  </g>
</svg>