<?xml version="1.0" encoding="UTF-8"?>
<svg id="a" xmlns="http://www.w3.org/2000/svg" viewBox="0 0 537.02 537">
  <defs>
    <style>
      .b {
        fill: #70d44b;
      }
    </style>
  </defs>
  <path class="b" d="M268.51,41.02c11.09-.04,21.96,3.03,31.39,8.86,9.43,5.83,17.04,14.18,21.97,24.11l167.81,335.62c4.55,9.1,6.7,19.21,6.25,29.37-.46,10.16-3.5,20.04-8.84,28.69-5.35,8.65-12.82,15.79-21.71,20.75-8.88,4.95-18.89,7.56-29.06,7.55H100.7c-10.17,0-20.18-2.6-29.06-7.55-8.89-4.95-16.36-12.09-21.7-20.75s-8.39-18.53-8.85-28.69c-.46-10.16,1.7-20.27,6.25-29.37L215.15,73.99c4.93-9.93,12.54-18.28,21.97-24.11,9.43-5.83,20.31-8.9,31.39-8.86ZM268.51,0c-18.7,0-37.03,5.2-52.93,15.03-15.91,9.83-28.76,23.89-37.13,40.61L10.64,391.26C2.96,406.61-.67,423.68,.1,440.83c.77,17.15,5.91,33.82,14.93,48.42,9.02,14.6,21.63,26.66,36.62,35.01,14.99,8.36,31.87,12.75,49.04,12.74H436.32c17.16,0,34.04-4.39,49.04-12.74,14.99-8.36,27.6-20.41,36.62-35.01,9.02-14.6,14.16-31.27,14.93-48.42,.77-17.15-2.86-34.21-10.54-49.56L358.57,55.64c-8.37-16.72-21.22-30.78-37.13-40.61C305.54,5.2,287.21,0,268.51,0h0Z"/>
</svg>