<svg xmlns="http://www.w3.org/2000/svg" width="519.234" height="121.333" viewBox="0 0 519.234 121.333">
  <g id="bscscan-logo" transform="translate(-219.378 -213.334)">
    <g id="bscscan-logo-circle">
      <path id="Path_1" data-name="Path 1" d="M244.6,271.1a5.144,5.144,0,0,1,5.168-5.143l8.568.028a5.151,5.151,0,0,1,5.151,5.151v32.4c.965-.286,2.2-.591,3.559-.911a4.292,4.292,0,0,0,3.309-4.177V258.261a5.152,5.152,0,0,1,5.151-5.152H284.1a5.152,5.152,0,0,1,5.151,5.152v37.3s2.15-.87,4.243-1.754a4.3,4.3,0,0,0,2.625-3.957V245.383a5.151,5.151,0,0,1,5.15-5.151h8.585A5.151,5.151,0,0,1,315,245.383V282c7.443-5.394,14.986-11.882,20.972-19.683a8.646,8.646,0,0,0,1.316-8.072,60.636,60.636,0,1,0-109.855,50.108,7.668,7.668,0,0,0,7.316,3.79c1.624-.143,3.646-.345,6.05-.627a4.29,4.29,0,0,0,3.805-4.258V271.1" fill="#12161c"/>
      <path id="Path_2" data-name="Path 2" d="M244.417,323.061A60.656,60.656,0,0,0,340.756,274c0-1.4-.065-2.778-.158-4.152-22.163,33.055-63.085,48.508-96.181,53.213" fill="#f0b90b"/>
    </g>
    <g id="words">
      <path id="Path_124" data-name="Path 124" d="M14.82-4.26H6.33L4.83,0H.36l7.8-20.94h4.83L20.76,0H16.29ZM13.68-7.47l-3.12-8.94L7.44-7.47Zm28.83-9.36a7.139,7.139,0,0,1,3.78,1.02,6.891,6.891,0,0,1,2.625,2.955A10.248,10.248,0,0,1,49.86-8.31a10.248,10.248,0,0,1-.945,4.545A6.891,6.891,0,0,1,46.29-.81,7.139,7.139,0,0,1,42.51.21,6.245,6.245,0,0,1,38.925-.8,5.5,5.5,0,0,1,36.81-3.48V7.92H32.58V-16.62h4.23v3.45a5.417,5.417,0,0,1,2.115-2.67A6.314,6.314,0,0,1,42.51-16.83Zm-1.32,3.69a4.185,4.185,0,0,0-3.165,1.3A4.895,4.895,0,0,0,36.78-8.31a4.853,4.853,0,0,0,1.245,3.5,4.185,4.185,0,0,0,3.165,1.3,4.162,4.162,0,0,0,3.18-1.275,4.939,4.939,0,0,0,1.2-3.525,4.994,4.994,0,0,0-1.2-3.54A4.137,4.137,0,0,0,41.19-13.14Zm17.4-.3a6.952,6.952,0,0,1,2.46-2.505,6.535,6.535,0,0,1,3.42-.915v4.53H63.24q-4.65,0-4.65,4.32V0H54.36V-16.62h4.23Zm17.4-3.39a9.216,9.216,0,0,1,4.365,1.02A7.465,7.465,0,0,1,83.4-12.855,8.977,8.977,0,0,1,84.51-8.31,8.894,8.894,0,0,1,83.4-3.78,7.593,7.593,0,0,1,80.355-.825,9.108,9.108,0,0,1,75.99.21,9.108,9.108,0,0,1,71.625-.825,7.593,7.593,0,0,1,68.58-3.78a8.894,8.894,0,0,1-1.11-4.53,8.977,8.977,0,0,1,1.11-4.545,7.465,7.465,0,0,1,3.045-2.955A9.216,9.216,0,0,1,75.99-16.83Zm0,3.66a4.057,4.057,0,0,0-3,1.245A4.932,4.932,0,0,0,71.76-8.31,4.932,4.932,0,0,0,72.99-4.7a4.057,4.057,0,0,0,3,1.245,4.057,4.057,0,0,0,3-1.245A4.932,4.932,0,0,0,80.22-8.31a4.932,4.932,0,0,0-1.23-3.615A4.057,4.057,0,0,0,75.99-13.17Zm19.53-3.66a6.314,6.314,0,0,1,3.585.99,5.589,5.589,0,0,1,2.145,2.67V-22.2h4.2V0h-4.2V-3.48A5.673,5.673,0,0,1,99.1-.8,6.245,6.245,0,0,1,95.52.21,7.139,7.139,0,0,1,91.74-.81a6.891,6.891,0,0,1-2.625-2.955A10.248,10.248,0,0,1,88.17-8.31a10.248,10.248,0,0,1,.945-4.545A6.891,6.891,0,0,1,91.74-15.81,7.139,7.139,0,0,1,95.52-16.83Zm1.32,3.69a4.137,4.137,0,0,0-3.18,1.29,4.994,4.994,0,0,0-1.2,3.54,4.939,4.939,0,0,0,1.2,3.525A4.162,4.162,0,0,0,96.84-3.51,4.185,4.185,0,0,0,100-4.815a4.853,4.853,0,0,0,1.245-3.5A4.895,4.895,0,0,0,100-11.835,4.185,4.185,0,0,0,96.84-13.14Zm29.85-3.48V0h-4.23V-3.36a5.3,5.3,0,0,1-2.175,2.625,6.465,6.465,0,0,1-3.5.945,5.885,5.885,0,0,1-4.59-1.89,7.589,7.589,0,0,1-1.71-5.28v-9.66h4.2v9.18a4.34,4.34,0,0,0,1.02,3.075,3.589,3.589,0,0,0,2.76,1.1,3.768,3.768,0,0,0,2.91-1.17,4.779,4.779,0,0,0,1.08-3.36v-8.82Zm12.81-.21a8.225,8.225,0,0,1,5.355,1.74,7.6,7.6,0,0,1,2.685,4.74h-4.47a3.451,3.451,0,0,0-1.23-2.085,3.777,3.777,0,0,0-2.43-.765,3.625,3.625,0,0,0-2.805,1.245A5.268,5.268,0,0,0,135.48-8.31,5.268,5.268,0,0,0,136.6-4.665,3.625,3.625,0,0,0,139.41-3.42a3.777,3.777,0,0,0,2.43-.765,3.451,3.451,0,0,0,1.23-2.085h4.47a7.6,7.6,0,0,1-2.685,4.74A8.225,8.225,0,0,1,139.5.21a8.847,8.847,0,0,1-4.32-1.035,7.275,7.275,0,0,1-2.94-2.955,9.3,9.3,0,0,1-1.05-4.53,9.388,9.388,0,0,1,1.05-4.545,7.156,7.156,0,0,1,2.94-2.955A8.952,8.952,0,0,1,139.5-16.83Zm21.42,13.2V0H158.7a6.142,6.142,0,0,1-4.275-1.35q-1.485-1.35-1.485-4.5v-7.2h-2.31v-3.57h2.31v-4.11h4.23v4.11h3.72v3.57h-3.72v7.26a2.342,2.342,0,0,0,.48,1.68,2.241,2.241,0,0,0,1.62.48Zm20.25-13.2a9.216,9.216,0,0,1,4.365,1.02,7.465,7.465,0,0,1,3.045,2.955,8.977,8.977,0,0,1,1.11,4.545,8.894,8.894,0,0,1-1.11,4.53,7.593,7.593,0,0,1-3.045,2.955A9.108,9.108,0,0,1,181.17.21,9.108,9.108,0,0,1,176.8-.825,7.593,7.593,0,0,1,173.76-3.78a8.894,8.894,0,0,1-1.11-4.53,8.977,8.977,0,0,1,1.11-4.545A7.465,7.465,0,0,1,176.8-15.81,9.216,9.216,0,0,1,181.17-16.83Zm0,3.66a4.057,4.057,0,0,0-3,1.245,4.932,4.932,0,0,0-1.23,3.615A4.932,4.932,0,0,0,178.17-4.7a4.057,4.057,0,0,0,3,1.245,4.057,4.057,0,0,0,3-1.245A4.932,4.932,0,0,0,185.4-8.31a4.932,4.932,0,0,0-1.23-3.615A4.057,4.057,0,0,0,181.17-13.17Zm21.24-6.33a3.614,3.614,0,0,0-2.61.54,2.965,2.965,0,0,0-.75,2.31v.03h3.36v3.57h-3.36V0h-4.23V-13.05h-2.13v-3.57h2.13v-.39a6,6,0,0,1,1.695-4.575,7.054,7.054,0,0,1,5.025-1.605q.57,0,.87.03Zm17.04,2.37v4.44h7.17v3.87h-7.17v4.71h8.07V0h-13.2V-21.21h13.2v4.08ZM241.41-4.41V0H239.1a6.647,6.647,0,0,1-4.575-1.455Q232.89-2.91,232.89-6.27v-6.15h-2.25v-4.32h2.25v-4.11h5.13v4.11h3.36v4.32h-3.36v6.24a1.88,1.88,0,0,0,.4,1.38,1.936,1.936,0,0,0,1.365.39Zm15-12.51A5.794,5.794,0,0,1,260.985-15a7.7,7.7,0,0,1,1.7,5.28V0h-5.13V-9.12a3.69,3.69,0,0,0-.885-2.625,3.074,3.074,0,0,0-2.355-.945,3.206,3.206,0,0,0-2.475.99,4,4,0,0,0-.915,2.82V0h-5.13V-22.2h5.13v8.52a5.522,5.522,0,0,1,2.145-2.37A6.292,6.292,0,0,1,256.41-16.92Zm27.06,8.1a7.076,7.076,0,0,1-.15,1.38H271.71a3.88,3.88,0,0,0,.96,2.715,3.1,3.1,0,0,0,2.22.825,3.034,3.034,0,0,0,1.89-.57,2.662,2.662,0,0,0,.99-1.47h5.43a7.1,7.1,0,0,1-1.44,3.165,7.675,7.675,0,0,1-2.82,2.19,8.929,8.929,0,0,1-3.81.8,9,9,0,0,1-4.365-1.035A7.4,7.4,0,0,1,267.78-3.81a9.262,9.262,0,0,1-1.08-4.56,9.346,9.346,0,0,1,1.065-4.575,7.3,7.3,0,0,1,2.985-2.97,9.084,9.084,0,0,1,4.38-1.035,9.081,9.081,0,0,1,4.38,1.02,7.206,7.206,0,0,1,2.925,2.865A8.528,8.528,0,0,1,283.47-8.82Zm-5.19-.78a3.084,3.084,0,0,0-.885-2.475,3.258,3.258,0,0,0-2.265-.825,3.36,3.36,0,0,0-2.34.84,3.517,3.517,0,0,0-1.05,2.46Zm14.49-3.99a7.279,7.279,0,0,1,2.475-2.43,6.318,6.318,0,0,1,3.285-.9v5.49h-1.47a5.07,5.07,0,0,0-3.165.87,3.5,3.5,0,0,0-1.125,2.94V0h-5.13V-16.74h5.13Zm15.51-3.36a7.681,7.681,0,0,1,5.085,1.59,6.908,6.908,0,0,1,2.385,4.2h-4.8A2.659,2.659,0,0,0,310-12.765a2.87,2.87,0,0,0-1.845-.585,2.017,2.017,0,0,0-1.32.375,1.309,1.309,0,0,0-.45,1.065,1.249,1.249,0,0,0,.825,1.17,13.155,13.155,0,0,0,2.6.78,25.77,25.77,0,0,1,3.15.915,5.2,5.2,0,0,1,2.13,1.515,4.187,4.187,0,0,1,.9,2.82,4.325,4.325,0,0,1-.78,2.55,5.135,5.135,0,0,1-2.25,1.74,8.792,8.792,0,0,1-3.48.63,8.962,8.962,0,0,1-5.43-1.5,6.329,6.329,0,0,1-2.49-4.29h4.95a2.228,2.228,0,0,0,.915,1.65,3.445,3.445,0,0,0,2.055.57,1.913,1.913,0,0,0,1.32-.405,1.364,1.364,0,0,0,.45-1.065,1.28,1.28,0,0,0-.825-1.245,15.169,15.169,0,0,0-2.685-.8,21.469,21.469,0,0,1-3.06-.84,5.052,5.052,0,0,1-2.07-1.455,4.053,4.053,0,0,1-.87-2.745,4.48,4.48,0,0,1,1.71-3.645A7.451,7.451,0,0,1,308.28-16.95Zm19.62,0a8.314,8.314,0,0,1,5.43,1.785,7.915,7.915,0,0,1,2.76,4.905h-5.43a2.865,2.865,0,0,0-.99-1.68,2.93,2.93,0,0,0-1.89-.6,2.742,2.742,0,0,0-2.22,1.065,4.808,4.808,0,0,0-.87,3.1,4.808,4.808,0,0,0,.87,3.105A2.742,2.742,0,0,0,327.78-4.2a2.93,2.93,0,0,0,1.89-.6,2.865,2.865,0,0,0,.99-1.68h5.43a7.915,7.915,0,0,1-2.76,4.9A8.314,8.314,0,0,1,327.9.21a9,9,0,0,1-4.365-1.035A7.4,7.4,0,0,1,320.55-3.81a9.262,9.262,0,0,1-1.08-4.56,9.346,9.346,0,0,1,1.065-4.575,7.3,7.3,0,0,1,2.985-2.97A9.084,9.084,0,0,1,327.9-16.95Zm18.72,0a6.06,6.06,0,0,1,3.3.87,5.23,5.23,0,0,1,2.04,2.37v-3.03h5.1V0h-5.1V-3.03a5.23,5.23,0,0,1-2.04,2.37,6.06,6.06,0,0,1-3.3.87,6.78,6.78,0,0,1-3.705-1.035,7.081,7.081,0,0,1-2.58-2.985,10.345,10.345,0,0,1-.945-4.56,10.321,10.321,0,0,1,.945-4.575,7.1,7.1,0,0,1,2.58-2.97A6.78,6.78,0,0,1,346.62-16.95Zm1.65,4.5a3.456,3.456,0,0,0-2.655,1.08,4.234,4.234,0,0,0-1.005,3,4.234,4.234,0,0,0,1.005,3,3.456,3.456,0,0,0,2.655,1.08,3.468,3.468,0,0,0,2.655-1.11,4.181,4.181,0,0,0,1.035-2.97,4.169,4.169,0,0,0-1.035-2.985A3.491,3.491,0,0,0,348.27-12.45Zm24.45-4.47A5.794,5.794,0,0,1,377.295-15a7.7,7.7,0,0,1,1.7,5.28V0h-5.13V-9.12a3.69,3.69,0,0,0-.885-2.625,3.074,3.074,0,0,0-2.355-.945,3.206,3.206,0,0,0-2.475.99,4,4,0,0,0-.915,2.82V0H362.1V-16.74h5.13v3.06a5.522,5.522,0,0,1,2.145-2.37A6.292,6.292,0,0,1,372.72-16.92Z" transform="translate(359.622 319)" fill="#12161c" opacity="0.8"/>
      <path id="Path_123" data-name="Path 123" d="M32.976-26.208a12.332,12.332,0,0,1,7.38,4.356,12.365,12.365,0,0,1,2.772,8.028A12.684,12.684,0,0,1,38.844-3.708Q34.56,0,26.424,0H4.608V-50.832H25.992q7.7,0,11.844,3.384t4.14,9.5a11.85,11.85,0,0,1-2.484,7.776A11.552,11.552,0,0,1,32.976-26.208ZM14.76-29.52H23.9a8.7,8.7,0,0,0,5.8-1.692,6.041,6.041,0,0,0,1.98-4.86,6.208,6.208,0,0,0-1.944-4.9Q27.792-42.7,23.76-42.7h-9ZM24.408-8.28A9.565,9.565,0,0,0,30.6-10.044a6.26,6.26,0,0,0,2.16-5.148,6.424,6.424,0,0,0-2.2-5.22,9.45,9.45,0,0,0-6.228-1.836H14.76V-8.28Zm39.6-32.112q7.272,0,11.664,3.672a15.9,15.9,0,0,1,5.472,9.792h-9.5a7.9,7.9,0,0,0-2.592-4.608,7.793,7.793,0,0,0-5.256-1.728A6.04,6.04,0,0,0,59.76-32.04a4.122,4.122,0,0,0-1.44,3.312,3.367,3.367,0,0,0,1.152,2.664,8.3,8.3,0,0,0,2.88,1.584q1.728.576,4.968,1.368a51.091,51.091,0,0,1,7.38,2.124,12.211,12.211,0,0,1,4.9,3.528,9.725,9.725,0,0,1,2.052,6.516,10.066,10.066,0,0,1-4,8.28Q73.656.5,66.888.5,59.112.5,54.432-2.988a14.679,14.679,0,0,1-5.688-9.972h9.72a6.569,6.569,0,0,0,2.592,4.644,9.4,9.4,0,0,0,5.832,1.692,5.644,5.644,0,0,0,3.96-1.26,4.248,4.248,0,0,0,1.368-3.276,3.619,3.619,0,0,0-1.188-2.808,8.02,8.02,0,0,0-2.952-1.656q-1.764-.576-5-1.368a56.4,56.4,0,0,1-7.236-2.052,11.553,11.553,0,0,1-4.752-3.348,9.406,9.406,0,0,1-1.98-6.336,10.373,10.373,0,0,1,3.96-8.424Q57.024-40.392,64.008-40.392Zm43.128,0a19.739,19.739,0,0,1,12.852,4.176,18.244,18.244,0,0,1,6.444,11.376H115.7a8.283,8.283,0,0,0-2.952-5,9.065,9.065,0,0,0-5.832-1.836,8.7,8.7,0,0,0-6.732,2.988q-2.7,2.988-2.7,8.748t2.7,8.748a8.7,8.7,0,0,0,6.732,2.988,9.065,9.065,0,0,0,5.832-1.836,8.283,8.283,0,0,0,2.952-5h10.728a18.244,18.244,0,0,1-6.444,11.376A19.739,19.739,0,0,1,107.136.5,21.232,21.232,0,0,1,96.768-1.98a17.461,17.461,0,0,1-7.056-7.092,22.321,22.321,0,0,1-2.52-10.872,22.531,22.531,0,0,1,2.52-10.908,17.175,17.175,0,0,1,7.056-7.092A21.484,21.484,0,0,1,107.136-40.392Zm61.416,26.5a13.783,13.783,0,0,1-1.944,7.164,13.963,13.963,0,0,1-5.76,5.256A19.971,19.971,0,0,1,151.56.5a24.1,24.1,0,0,1-9.648-1.836,16.313,16.313,0,0,1-6.8-5.292,15.266,15.266,0,0,1-2.916-8.064h10.8a8.252,8.252,0,0,0,2.484,5.148,7.79,7.79,0,0,0,5.652,2.052,6.578,6.578,0,0,0,4.86-1.692,5.9,5.9,0,0,0,1.692-4.356,5.707,5.707,0,0,0-1.368-3.924,9.983,9.983,0,0,0-3.456-2.484q-2.088-.936-5.76-2.16a56.938,56.938,0,0,1-7.776-3.132,14.374,14.374,0,0,1-5.148-4.5,12.892,12.892,0,0,1-2.124-7.7,12.527,12.527,0,0,1,4.716-10.332q4.716-3.78,12.492-3.78,8.064,0,12.852,3.888A14.675,14.675,0,0,1,167.544-37.3H156.6a7.622,7.622,0,0,0-2.3-4.5,7.154,7.154,0,0,0-5.112-1.764,6.742,6.742,0,0,0-4.536,1.476A5.323,5.323,0,0,0,142.92-37.8a5.327,5.327,0,0,0,1.332,3.708,10.164,10.164,0,0,0,3.384,2.412,55.542,55.542,0,0,0,5.58,2.088,74.189,74.189,0,0,1,7.956,3.24,14.019,14.019,0,0,1,5.22,4.536A13.33,13.33,0,0,1,168.552-13.9Zm25.416-26.5a19.739,19.739,0,0,1,12.852,4.176,18.244,18.244,0,0,1,6.444,11.376H202.536a8.283,8.283,0,0,0-2.952-5,9.065,9.065,0,0,0-5.832-1.836,8.7,8.7,0,0,0-6.732,2.988q-2.7,2.988-2.7,8.748t2.7,8.748a8.7,8.7,0,0,0,6.732,2.988,9.065,9.065,0,0,0,5.832-1.836,8.283,8.283,0,0,0,2.952-5h10.728A18.244,18.244,0,0,1,206.82-3.672,19.739,19.739,0,0,1,193.968.5,21.232,21.232,0,0,1,183.6-1.98a17.461,17.461,0,0,1-7.056-7.092,22.321,22.321,0,0,1-2.52-10.872,22.531,22.531,0,0,1,2.52-10.908,17.175,17.175,0,0,1,7.056-7.092A21.484,21.484,0,0,1,193.968-40.392Zm42.12,0a15.329,15.329,0,0,1,8.64,2.376,12.94,12.94,0,0,1,5.112,6.408v-8.28h10.08V0H249.84V-8.352a13.132,13.132,0,0,1-5.112,6.444A15.159,15.159,0,0,1,236.088.5a17.134,17.134,0,0,1-9.072-2.448,16.538,16.538,0,0,1-6.3-7.092,24.594,24.594,0,0,1-2.268-10.908,24.594,24.594,0,0,1,2.268-10.908,16.538,16.538,0,0,1,6.3-7.092A17.134,17.134,0,0,1,236.088-40.392Zm3.168,8.856a9.93,9.93,0,0,0-7.632,3.1q-2.88,3.1-2.88,8.5t2.88,8.46a9.989,9.989,0,0,0,7.632,3.06,10.044,10.044,0,0,0,7.6-3.132,11.647,11.647,0,0,0,2.988-8.388,11.748,11.748,0,0,0-2.988-8.46A10.044,10.044,0,0,0,239.256-31.536Zm53.64-8.928a14.124,14.124,0,0,1,11.016,4.536q4.1,4.536,4.1,12.744V0h-10.08V-22.032q0-4.752-2.448-7.38a8.7,8.7,0,0,0-6.7-2.628,8.954,8.954,0,0,0-6.912,2.808q-2.592,2.808-2.592,8.064V0H269.136V-39.888h10.152V-31.9a12.709,12.709,0,0,1,5.22-6.3A15.517,15.517,0,0,1,292.9-40.464Z" transform="translate(358 279)" fill="#12161c"/>
    </g>
  </g>
</svg>
