<svg width="387" height="115" viewBox="0 0 387 115" fill="none" xmlns="http://www.w3.org/2000/svg">
<path d="M295.007 101.371L305.387 98.1142V12.2222L295.007 15.4793V101.371ZM175.275 49.2571C181.792 49.2571 187.827 52.1523 191.689 56.9777L195.914 47.2063C190.362 41.8984 182.999 39.365 175.275 39.365C157.411 39.365 145.1 53.4793 145.221 69.0412C145.341 85.9301 158.618 99.6825 175.275 99.6825C183.723 99.6825 190.12 97.1492 194.948 93.6507V81.7079C189.879 86.7745 182.516 89.7904 176.119 89.7904C166.464 89.7904 155.601 81.9492 155.601 69.0412C155.601 57.0984 165.015 49.2571 175.275 49.2571ZM244.314 39.365C226.451 39.365 216.071 53.4793 216.071 69.0412C216.071 85.9301 229.468 99.6825 246.124 99.6825C254.573 99.6825 260.97 97.1492 265.798 93.6507V81.7079C260.729 86.7745 253.366 89.7904 246.969 89.7904C238.4 89.7904 228.985 84.4825 227.054 73.2634H272.557V69.2825C272.557 52.6349 261.574 39.365 244.314 39.365ZM356.443 39.365C339.786 39.365 326.268 52.8761 326.268 69.5238C326.268 86.1714 339.786 99.6825 356.443 99.6825C373.099 99.6825 386.617 86.1714 386.617 69.5238C386.617 52.8761 373.099 39.365 356.443 39.365ZM244.435 49.2571C252.521 49.2571 261.091 54.3238 261.815 64.0952H227.054C227.778 54.3238 236.348 49.2571 244.435 49.2571ZM356.443 89.7904C352.432 89.7904 348.512 88.6018 345.177 86.3749C341.843 84.1479 339.244 80.9827 337.709 77.2795C336.174 73.5762 335.773 69.5013 336.555 65.5699C337.337 61.6386 339.269 58.0274 342.105 55.1931C344.94 52.3587 348.553 50.4285 352.487 49.6465C356.42 48.8645 360.497 49.2659 364.203 50.7998C367.908 52.3337 371.075 54.9314 373.303 58.2642C375.531 61.597 376.72 65.5154 376.72 69.5238C376.725 72.1865 376.203 74.8239 375.186 77.2847C374.168 79.7456 372.675 81.9816 370.791 83.8644C368.907 85.7472 366.67 87.2399 364.208 88.2568C361.746 89.2737 359.107 89.7949 356.443 89.7904V89.7904Z" fill="#2E3338"/>
<path d="M45.6445 102.698C63.9761 102.698 78.8365 87.8458 78.8365 69.5238C78.8365 51.2017 63.9761 36.3491 45.6445 36.3491C27.3128 36.3491 12.4524 51.2017 12.4524 69.5238C12.4524 87.8458 27.3128 102.698 45.6445 102.698ZM45.6445 114.762C20.6478 114.762 0.382568 94.5073 0.382568 69.5238C0.382568 44.5403 20.6478 24.2856 45.6445 24.2856C70.6411 24.2856 90.9064 44.5403 90.9064 69.5238C90.9064 94.5073 70.6411 114.762 45.6445 114.762Z" fill="#FBCC5C"/>
<path d="M69.7842 78.5714C88.1158 78.5714 102.976 63.7188 102.976 45.3968C102.976 27.0747 88.1158 12.2222 69.7842 12.2222C51.4525 12.2222 36.5921 27.0747 36.5921 45.3968C36.5921 63.7188 51.4525 78.5714 69.7842 78.5714ZM69.7842 90.6349C44.7875 90.6349 24.5223 70.3803 24.5223 45.3968C24.5223 20.4133 44.7875 0.158691 69.7842 0.158691C94.7808 0.158691 115.046 20.4133 115.046 45.3968C115.046 70.3803 94.7808 90.6349 69.7842 90.6349Z" fill="#35D07F"/>
<path d="M71.2687 90.6108C74.4056 86.8119 76.6539 82.3607 77.8492 77.5822C82.63 76.3876 87.0835 74.141 90.8846 71.0064C90.7113 76.5391 89.519 81.9924 87.3675 87.0931C82.2636 89.2446 76.8065 90.4371 71.2699 90.6108H71.2687ZM37.5806 37.336C32.7998 38.5305 28.3462 40.7771 24.5452 43.9118C24.7185 38.3791 25.9108 32.9257 28.0623 27.8251C33.1664 25.6744 38.6234 24.4827 44.1599 24.3098C41.0239 28.1082 38.7761 32.5585 37.5806 37.336V37.336Z" fill="#5EA33B"/>
</svg>
