<svg width="547" height="122" viewBox="0 0 547 122" fill="none" xmlns="http://www.w3.org/2000/svg">
<g clip-path="url(#clip0_933_2)">
<path d="M165.653 60.669C165.653 53.541 167 47.3124 169.693 41.9832C172.452 36.5874 176.362 32.4238 181.421 29.4926C186.545 26.5617 192.557 25.0959 199.455 25.0959C204.843 25.0959 209.672 26.162 213.942 28.2936C218.213 30.4254 221.662 33.4229 224.29 37.2867C226.918 41.1504 228.495 45.6137 229.021 50.6767H214.238C213.384 46.6797 211.577 43.5487 208.818 41.2836C206.124 38.9522 202.74 37.7864 198.667 37.7864C193.148 37.7864 188.779 39.8848 185.56 44.0816C182.34 48.2784 180.731 53.8077 180.731 60.669C180.731 67.4639 182.34 72.9929 185.56 77.2563C188.779 81.4534 193.148 83.5518 198.667 83.5518C202.74 83.5518 206.124 82.4191 208.818 80.1543C211.577 77.8226 213.384 74.6584 214.238 70.6615H229.021C228.495 75.7242 226.918 80.1875 224.29 84.0512C221.662 87.915 218.213 90.9128 213.942 93.0443C209.672 95.1762 204.843 96.242 199.455 96.242C192.557 96.242 186.545 94.7765 181.421 91.8453C176.362 88.9141 172.452 84.784 169.693 79.4548C167 74.0589 165.653 67.7969 165.653 60.669Z" fill="black"/>
<path d="M237.609 95.6423V25.6953H252.392V82.752H279.788V95.6423H237.609Z" fill="black"/>
<path d="M270.001 25.6953H285.668L302.225 77.4563L319.177 25.6953H334.451L311.094 95.6423H293.453L270.001 25.6953Z" fill="black"/>
<path d="M345.736 78.5552C345.934 80.8203 347.015 82.6522 348.988 84.0511C350.959 85.4502 353.489 86.1495 356.576 86.1495C359.533 86.1495 361.865 85.6832 363.572 84.7506C365.281 83.7514 366.136 82.3524 366.136 80.5538C366.136 79.2213 365.74 78.2222 364.952 77.556C364.165 76.8899 363.047 76.4236 361.601 76.1572C360.156 75.8241 357.792 75.4576 354.507 75.058C350.039 74.4585 346.327 73.6923 343.369 72.7597C340.415 71.8272 338.048 70.3615 336.276 68.3631C334.5 66.3645 333.614 63.7 333.614 60.3692C333.614 57.0383 334.5 54.1072 336.276 51.5757C338.114 48.9778 340.676 46.9792 343.96 45.5803C347.247 44.1815 351.025 43.4819 355.294 43.4819C362.192 43.5485 367.745 45.0474 371.95 47.9786C376.221 50.9095 378.519 54.9731 378.849 60.1693H365.643C365.445 58.2373 364.427 56.6718 362.588 55.4728C360.812 54.2072 358.515 53.5743 355.689 53.5743C353.062 53.5743 350.925 54.074 349.284 55.0732C347.706 56.0723 346.918 57.4046 346.918 59.0701C346.918 60.2691 347.345 61.1685 348.2 61.768C349.054 62.3675 350.17 62.8006 351.55 63.0671C352.93 63.3335 355.23 63.6334 358.449 63.9665C365.281 64.7658 370.505 66.2647 374.116 68.4629C377.796 70.5947 379.635 74.2918 379.635 79.5546C379.635 82.8852 378.651 85.8164 376.68 88.3479C374.776 90.8792 372.082 92.8444 368.6 94.2434C365.184 95.5757 361.208 96.2418 356.673 96.2418C349.645 96.2418 343.929 94.6763 339.526 91.5455C335.123 88.3479 332.793 84.0179 332.53 78.5552H345.736Z" fill="black"/>
<path d="M436.306 76.1573C435.388 82.4191 432.758 87.3489 428.423 90.9459C424.152 94.4766 418.599 96.2419 411.766 96.2419C406.511 96.2419 401.913 95.1761 397.969 93.0443C394.028 90.8461 390.973 87.7485 388.805 83.7516C386.702 79.7546 385.652 75.1579 385.652 69.9619C385.652 64.6993 386.702 60.1028 388.805 56.1725C390.973 52.1755 394.028 49.1111 397.969 46.9793C401.979 44.7811 406.609 43.6819 411.867 43.6819C418.633 43.6819 424.152 45.4472 428.423 48.9779C432.692 52.442 435.322 57.2715 436.306 63.4669H421.918C421.327 60.9354 420.145 58.937 418.37 57.4713C416.597 55.9392 414.396 55.1731 411.766 55.1731C408.155 55.1731 405.264 56.5387 403.095 59.2701C400.927 62.0014 399.842 65.5653 399.842 69.9619C399.842 74.3585 400.927 77.9226 403.095 80.6537C405.264 83.3851 408.155 84.7507 411.766 84.7507C414.46 84.7507 416.694 83.9846 418.47 82.4525C420.308 80.9202 421.49 78.8218 422.015 76.1573H436.306Z" fill="black"/>
<path d="M466.396 43.6819C473.558 43.6819 479.074 45.2806 482.952 48.4782C486.893 51.6092 488.864 56.2057 488.864 62.2679V95.6424H476.645L475.56 89.1474C473.656 91.479 471.455 93.2444 468.957 94.4434C466.528 95.6424 463.602 96.2419 460.186 96.2419C454.603 96.2419 450.135 94.9097 446.784 92.245C443.5 89.5805 441.856 85.85 441.856 81.0534C441.856 75.591 443.827 71.3942 447.768 68.463C451.778 65.5321 457.592 64.0664 465.214 64.0664H475.167V61.4683C475.167 59.1368 474.312 57.3049 472.603 55.9727C470.962 54.6402 468.728 53.9741 465.902 53.9741C463.275 53.9741 461.106 54.5404 459.399 55.6728C457.756 56.8052 456.769 58.3375 456.442 60.2693H443.038C443.5 55.0067 445.798 50.9431 449.937 48.0785C454.076 45.1474 459.563 43.6819 466.396 43.6819ZM463.341 86.0498C466.955 86.0498 469.812 85.0172 471.914 82.952C474.017 80.8204 475.101 77.9893 475.167 74.4586V73.4594H465.016C462.125 73.4594 459.858 74.0589 458.215 75.2579C456.64 76.3903 455.851 78.0224 455.851 80.1543C455.851 81.9528 456.508 83.3851 457.822 84.4509C459.202 85.5169 461.04 86.0498 463.341 86.0498Z" fill="black"/>
<path d="M526.698 43.6819C532.612 43.6819 537.474 45.547 541.283 49.2775C545.095 53.0081 547 59.17 547 67.7637V95.6424H533.103V68.5631C533.103 59.7032 529.689 55.2731 522.856 55.2731C519.242 55.2731 516.449 56.5056 514.478 58.9702C512.507 61.4351 511.521 64.8992 511.521 69.3624V95.6424H497.626V44.2814H509.748L511.03 50.6766C512.803 48.4782 514.939 46.7795 517.435 45.5805C519.931 44.3148 523.02 43.6819 526.698 43.6819Z" fill="black"/>
<path fill-rule="evenodd" clip-rule="evenodd" d="M27.9847 1.88599H88.6182C104.074 1.88599 116.603 14.5898 116.603 30.2607V91.7395C116.603 107.41 104.074 120.114 88.6182 120.114H27.9847C12.5292 120.114 0 107.41 0 91.7395V30.2607C0 14.5898 12.5292 1.88599 27.9847 1.88599ZM58.5 99C79.2107 99 96 81.9868 96 61C96 40.0132 79.2107 23 58.5 23C37.7893 23 21 40.0132 21 61C21 81.9868 37.7893 99 58.5 99Z" fill="url(#paint0_linear_933_2)"/>
<path fill-rule="evenodd" clip-rule="evenodd" d="M58.4999 99C79.2107 99 96 81.987 96 61C96 40.0131 79.2107 23 58.4999 23C37.7893 23 21 40.0131 21 61C21 81.987 37.7893 99 58.4999 99ZM51.8819 40.8824H65.1172V54.4352H51.8834V67.5644H65.1172V81.1172H51.8819V67.9879H38.6483V54.4352H51.8819V40.8824ZM65.1194 54.4352H78.3545V67.9879H65.1194V54.4352Z" fill="black"/>
</g>
<defs>
<linearGradient id="paint0_linear_933_2" x1="116.603" y1="1.88599" x2="-1.61413" y2="118.478" gradientUnits="userSpaceOnUse">
<stop stop-color="#A9FFE0"/>
<stop offset="1" stop-color="#86D5FF"/>
</linearGradient>
<clipPath id="clip0_933_2">
<rect width="547" height="122" fill="white"/>
</clipPath>
</defs>
</svg>
