<svg width="500" height="140" viewBox="0 0 500 140" fill="none" xmlns="http://www.w3.org/2000/svg">
<path d="M60.093 0L-1.52588e-05 34.7123V104.114L60.093 138.803L120.14 104.114V34.7123L60.093 0ZM102.349 93.8304L60.093 118.236L17.814 93.8304V44.9725L60.093 20.5668L102.349 44.9725V93.8304Z" fill="#002D74"/>
<path style="mix-blend-mode:multiply" d="M60.0932 138.803L120.14 104.114V34.7123L60.0932 0V20.5901L102.349 44.9958V93.8536L60.0932 118.236V138.803Z" fill="url(#paint0_linear_304_2)"/>
<path style="mix-blend-mode:multiply" d="M60.0465 0L0 34.6891V104.091L60.0465 138.803V118.213L17.7907 93.8071V44.9492L60.0465 20.5668V0Z" fill="url(#paint1_linear_304_2)"/>
<path d="M88.1163 85.6176L60.0698 101.811L32 85.6176V53.2086L60.0698 36.9924L88.1163 53.2086L76.4419 59.9556L60.0698 50.4865L43.6977 59.9556V78.8473L60.0698 88.3165L76.4419 78.8473L88.1163 85.6176Z" fill="#002D74"/>
<path d="M164.605 74.6601V74.474C164.564 70.7964 165.258 67.1479 166.646 63.7423C168.035 60.3366 170.089 57.2428 172.688 54.6421C175.288 52.0415 178.38 49.9867 181.784 48.598C185.188 47.2092 188.836 46.5147 192.512 46.5552C196.542 46.4142 200.553 47.1767 204.251 48.7869C207.949 50.3971 211.24 52.8144 213.884 55.8615L206.186 64.0743C202.442 60.2122 198.488 57.3738 192.419 57.3738C183.512 57.3738 176.93 65.0747 176.93 74.4042V74.6136C176.93 84.1293 183.512 91.7139 192.907 91.7139C195.565 91.6624 198.183 91.0492 200.587 89.9145C202.992 88.7796 205.13 87.1491 206.86 85.1297L214.256 92.4351C210.583 96.8263 205.653 99.9869 200.131 101.492C194.608 102.997 188.758 102.774 183.366 100.854C177.974 98.9332 173.299 95.4068 169.97 90.749C166.641 86.0913 164.817 80.5254 164.744 74.7997L164.605 74.6601Z" fill="#002D74"/>
<path d="M225.256 47.6254H237.605V59.677C240.954 51.6737 247.116 46.2062 256.535 46.6017V59.584H255.837C245.093 59.584 237.605 66.5637 237.605 80.7324V101.09H225.256V47.6254Z" fill="#002D74"/>
<path d="M262.418 74.6601V74.474C262.602 67.0513 265.67 59.9923 270.974 54.7973C276.277 49.6026 283.395 46.6809 290.816 46.6536C298.239 46.6264 305.379 49.4955 310.718 54.6514C316.06 59.8073 319.181 66.8433 319.418 74.2646V74.474C319.421 78.204 318.674 81.8962 317.225 85.333C315.777 88.7696 313.653 91.8811 310.984 94.4836C308.311 97.0861 305.149 99.1268 301.677 100.485C298.202 101.844 294.495 102.492 290.767 102.393C287.072 102.486 283.395 101.837 279.956 100.485C276.514 99.1319 273.381 97.1026 270.737 94.5171C268.095 91.9316 265.998 88.8422 264.567 85.4317C263.139 82.0209 262.407 78.3582 262.418 74.6601ZM307.163 74.6601V74.474C307.256 72.2554 306.902 70.0407 306.123 67.9617C305.342 65.8827 304.151 63.9824 302.621 62.3735C301.093 60.7647 299.253 59.4805 297.216 58.5975C295.181 57.7146 292.986 57.2509 290.767 57.2342C280.93 57.2342 274.651 64.9351 274.651 74.2646V74.474C274.567 76.674 274.925 78.8682 275.702 80.9274C276.481 82.9867 277.663 84.8691 279.181 86.4633C280.698 88.0574 282.521 89.331 284.539 90.2088C286.556 91.0868 288.73 91.551 290.93 91.5743C300.884 91.5743 307.163 83.8733 307.163 74.6601Z" fill="#002D74"/>
<path d="M331.767 47.6255H344.07V55.8383C345.814 52.9717 348.27 50.607 351.202 48.9759C354.132 47.3445 357.437 46.5025 360.791 46.532C372.837 46.532 379.814 54.6285 379.814 66.9825V101.113H367.558V70.705C367.558 62.3992 363.418 57.653 356.116 57.653C348.814 57.653 344.07 62.6319 344.07 70.9144V101.16H331.721L331.767 47.6255Z" fill="#002D74"/>
<path d="M391.721 74.6601V74.474C391.905 67.0513 394.972 59.9923 400.277 54.7973C405.579 49.6026 412.698 46.6809 420.119 46.6536C427.542 46.6264 434.681 49.4955 440.021 54.6514C445.363 59.8073 448.484 66.8433 448.721 74.2646V74.474C448.723 78.204 447.977 81.8962 446.528 85.333C445.079 88.7696 442.956 91.8811 440.286 94.4836C437.614 97.0861 434.451 99.1268 430.979 100.485C427.505 101.844 423.798 102.492 420.07 102.393C416.374 102.486 412.698 101.837 409.258 100.485C405.816 99.1319 402.684 97.1026 400.04 94.5171C397.398 91.9316 395.3 88.8422 393.87 85.4317C392.442 82.0209 391.709 78.3582 391.721 74.6601ZM436.465 74.6601V74.474C436.558 72.2554 436.205 70.0407 435.426 67.9617C434.644 65.8827 433.454 63.9824 431.923 62.3735C430.395 60.7647 428.556 59.4805 426.519 58.5975C424.484 57.7146 422.288 57.2509 420.07 57.2342C410.233 57.2342 403.954 64.9351 403.954 74.2646V74.474C403.87 76.674 404.228 78.8682 405.005 80.9274C405.784 82.9867 406.965 84.8691 408.484 86.4633C410 88.0574 411.823 89.331 413.842 90.2088C415.858 91.0868 418.033 91.551 420.233 91.5743C430.116 91.5743 436.465 83.8733 436.465 74.6601Z" fill="#002D74"/>
<path d="M456.814 94.1103L462.279 85.8045C467.274 89.7961 473.405 92.1013 479.791 92.3886C485.07 92.3886 488.093 90.0621 488.093 86.6188V86.4094C488.093 82.2681 482.442 80.8489 476.163 78.9178C468.256 76.5913 459.442 73.4504 459.442 63.3298V63.1205C459.442 52.8836 467.86 46.7182 478.488 46.7182C485.472 46.848 492.277 48.9533 498.116 52.7905L493.256 61.4919C488.758 58.5257 483.563 56.7854 478.186 56.4432C473.535 56.4432 470.698 58.7698 470.698 61.7012V61.9106C470.698 65.8658 476.465 67.4711 482.744 69.4952C490.535 71.9381 499.349 75.4745 499.349 85.1065V85.2926C499.349 96.5532 490.628 102.114 479.488 102.114C471.249 102.055 463.265 99.2371 456.814 94.1103Z" fill="#002D74"/>
<defs>
<linearGradient id="paint0_linear_304_2" x1="90.1164" y1="138.803" x2="90.1164" y2="69.4014" gradientUnits="userSpaceOnUse">
<stop stop-color="#002D74"/>
<stop offset="1" stop-color="#002D74" stop-opacity="0"/>
</linearGradient>
<linearGradient id="paint1_linear_304_2" x1="30.0233" y1="0" x2="30.0233" y2="69.4014" gradientUnits="userSpaceOnUse">
<stop stop-color="#002D74"/>
<stop offset="1" stop-color="#002D74" stop-opacity="0"/>
</linearGradient>
</defs>
</svg>
