<?xml version="1.0" encoding="UTF-8"?>
<svg id="a" data-name="Layer 1" xmlns="http://www.w3.org/2000/svg" viewBox="0 0 512 512">
  <defs>
    <style>
      .b {
        fill: #fff;
      }

      .c {
        fill: #01943f;
        fill-rule: evenodd;
      }
    </style>
  </defs>
  <circle class="b" cx="256" cy="256" r="221"/>
  <path class="c" d="M75.2,75.2C123.17,27.23,188.17,.2,256,0c67.83,.2,132.83,27.23,180.8,75.2,47.97,47.97,75,112.97,75.2,180.8-.2,67.83-27.23,132.83-75.2,180.8-47.97,47.97-112.97,75-180.8,75.2-67.83-.2-132.83-27.23-180.8-75.2C27.23,388.83,.2,323.83,0,256,.2,188.17,27.23,123.17,75.2,75.2Zm117.9,101.1c.17-.1,.36-.19,.55-.25,2.03-.95,4.1-1.85,6.15-2.65v-40.45c0-3.53-1.39-6.92-3.89-9.43-2.49-2.5-5.88-3.91-9.41-3.92h-55.15v116.1c13.47-26.07,35.18-46.96,61.75-59.4Zm56.15,70.7h12.3c4.24,0,8.44-.83,12.36-2.45,3.92-1.62,7.48-4,10.48-7,3-3,5.38-6.56,7-10.48,1.62-3.92,2.46-8.12,2.45-12.36v-34.58c-6.65-1.15-37.05-1.8-44.1-1.8-30.05-.02-59,11.37-80.98,31.86-21.99,20.49-35.38,48.56-37.47,78.54-.2,2.75-.3,5.5-.3,8.3s.1,5.55,.3,8.3v73.8c0,1.75,.34,3.48,1.01,5.09,.67,1.61,1.65,3.08,2.88,4.32,1.24,1.23,2.7,2.21,4.32,2.88,1.61,.67,3.34,1.01,5.09,1.01h55.16v-96.07c.03-13.1,5.26-25.66,14.54-34.91,9.28-9.25,21.85-14.44,34.96-14.42v-.02Zm69.19,88.94c.19-.06,.38-.15,.55-.25,26.55-12.46,48.24-33.34,61.7-59.4v116.1h-55.1c-3.53,0-6.92-1.42-9.41-3.92s-3.89-5.89-3.89-9.43v-40.45c2.05-.8,4.11-1.7,6.15-2.65Zm62.25-129.24v-73.8c0-1.75-.34-3.48-1.01-5.09-.67-1.61-1.65-3.08-2.88-4.32-1.23-1.23-2.7-2.21-4.32-2.88-1.61-.67-3.34-1.01-5.09-1.01h-55.15v96.05c-.03,13.1-5.25,25.65-14.52,34.89-9.27,9.25-21.83,14.44-34.93,14.44h-12.35c-4.24,0-8.44,.83-12.36,2.45-3.92,1.62-7.48,4-10.48,7-3,3-5.38,6.56-7,10.48s-2.46,8.12-2.45,12.36v34.58c6.65,1.15,37.05,1.8,44.1,1.8h0c.8,0,1.52,0,2.35-.05,16.54-.28,32.83-4.05,47.81-11.05l.3-.15c19.16-8.95,35.57-22.87,47.53-40.31,11.96-17.44,19.04-37.76,20.51-58.86,.2-2.75,.3-5.5,.3-8.3s-.15-5.5-.35-8.25Z"/>
</svg>