<svg xmlns="http://www.w3.org/2000/svg" width="629.006" height="121.644" viewBox="0 0 629.006 121.644">
  <g id="logo" transform="translate(-195.593 -194.744)">
    <path id="Path_183" data-name="Path 183" d="M289.6,294.282q-.559-6.238-1.208-14.437t-1.3-17.158q-.652-8.959-1.289-18.028t-1.084-16.977q-2.408,7.4-4.871,14.872t-4.679,14.184q-2.215,6.711-4.094,12.152t-3.045,8.779q-1.232,2.25-2.5,4.28a27.685,27.685,0,0,1-2.609,3.555,13.065,13.065,0,0,1-2.755,2.431,5.384,5.384,0,0,1-2.942.907,6.2,6.2,0,0,1-3.4-.871,3.8,3.8,0,0,1-1.7-2.612,6.147,6.147,0,0,1-.1-.689,2.376,2.376,0,0,1,.047-.689q-2.435-10.3-4.688-20.785t-4.225-20.64l-.93-4.788q-.465-2.394-.843-4.716-1.633,6.53-3.674,13.567T233.3,260.51q-2.366,6.856-5.05,13.2a115.612,115.612,0,0,1-5.591,11.535,56.533,56.533,0,0,1-6,8.851,18.548,18.548,0,0,1-6.294,5.115,32.472,32.472,0,0,1-4.948,1.777,15.9,15.9,0,0,1-3.882.544,6.932,6.932,0,0,1-4.084-1.052,4.094,4.094,0,0,1-1.769-2.575,5.35,5.35,0,0,1,.79-3.773,7.486,7.486,0,0,1,3.687-3.047q3.081-1.306,6.167-5.767a73.933,73.933,0,0,0,6.052-10.846q2.965-6.383,5.723-14.22t5.218-15.888q2.461-8.052,4.514-15.779t3.6-13.966q1.544-6.238,2.51-10.411t1.2-5.187a5.177,5.177,0,0,1,2.194-3.265,6.458,6.458,0,0,1,3.5-1.016,5.021,5.021,0,0,1,3.9,1.415,10.69,10.69,0,0,1,1.994,5.042q1.467,4.571,2.648,8.6t2.295,8.271q1.113,4.244,2.174,9.141t2.3,11.282q.887,4.571,1.777,10.084t2.213,12.333q5.631-15.815,9.992-27.895t7.744-20.242a88.889,88.889,0,0,1,5.98-12.333q2.6-4.171,4.628-4.172h.507a2.421,2.421,0,0,0,.428-.036,2.551,2.551,0,0,1,.428-.036q1.74,0,3.178,2.177a15.641,15.641,0,0,1,2.114,5.659q.4,3.555.848,8.851t.919,11.644q.472,6.349.967,13.385t.971,13.966q.475,6.929.981,13.458t1.027,11.825a12.685,12.685,0,0,0,.228,1.923q.19.979.387,2,.366,1.888.812,3.809t.812,3.809q.423,2.176.635,4.389a9.164,9.164,0,0,1-.422,3.99,5.535,5.535,0,0,1-2.518,2.9A11.089,11.089,0,0,1,295.2,301.1a4.6,4.6,0,0,1-3.407-1.488Q290.344,298.128,289.6,294.282Z" transform="translate(0 0)" fill="#53cbc8"/>
    <path id="Path_184" data-name="Path 184" d="M1296.735,295.125a35.684,35.684,0,0,1-1.4,4.571,50.057,50.057,0,0,1-2.292,5.187,37.275,37.275,0,0,1-2.939,4.861,19.545,19.545,0,0,1-3.289,3.627,5.211,5.211,0,0,1-3.29,1.415,6.741,6.741,0,0,1-3.5-.871,9.381,9.381,0,0,1-2.529-2.176,12.057,12.057,0,0,1-1.733-2.866,31.89,31.89,0,0,1-1.121-3.01,17.632,17.632,0,0,1-.763-7.073,16.137,16.137,0,0,1,1.927-6.348,12.919,12.919,0,0,1,4.227-4.571,10.757,10.757,0,0,1,6.054-1.741,12.779,12.779,0,0,1,2.844.4,15.8,15.8,0,0,1,3.309,1.2,13.532,13.532,0,0,1,2.921,1.923,5.526,5.526,0,0,1,1.728,2.5A6.312,6.312,0,0,1,1296.735,295.125Zm-75.643,7.835q0-1.377.2-3.41a30.28,30.28,0,0,1,.738-4.244,38.006,38.006,0,0,1,1.395-4.462,14.712,14.712,0,0,1,2.292-4.027,11.2,11.2,0,0,1,3.491-2.866,10.128,10.128,0,0,1,4.809-1.088h.651a3.806,3.806,0,0,1,.676.072,4.183,4.183,0,0,1,1.807.8,3.333,3.333,0,0,1,1.236,1.741,4.716,4.716,0,0,1-.269,3.084,9.682,9.682,0,0,1-3.3,3.808q-.589.436-1.979,1.669t-3.307,2.757q-1.917,1.524-4.113,3.192t-4.326,2.974Zm-35.948-2.72a18.385,18.385,0,0,1-2.7,7.364,16.353,16.353,0,0,1-5.423,5.26,14.368,14.368,0,0,1-7.534,2,9.27,9.27,0,0,1-3.685-.653,7.9,7.9,0,0,1-2.516-1.668,8.48,8.48,0,0,1-1.6-2.213,16.118,16.118,0,0,1-.955-2.358,16.546,16.546,0,0,1-.5-8.307,19.309,19.309,0,0,1,3.1-7.364,17.5,17.5,0,0,1,5.786-5.26,15.2,15.2,0,0,1,7.641-1.995,6.6,6.6,0,0,1,3.118.689,7.76,7.76,0,0,1,2.2,1.705,9.144,9.144,0,0,1,1.464,2.249,19.563,19.563,0,0,1,.908,2.322,18.309,18.309,0,0,1,.691,8.234Zm-137.019,1.7a16.3,16.3,0,0,1-1.882,6.493,13.238,13.238,0,0,1-4.167,4.643,10.259,10.259,0,0,1-5.935,1.777,7.29,7.29,0,0,1-3.774-.943,9.876,9.876,0,0,1-2.733-2.358,13.9,13.9,0,0,1-1.86-3.047,27.731,27.731,0,0,1-1.159-3.011,18.036,18.036,0,0,1-.811-7.219,16.106,16.106,0,0,1,1.9-6.312,12.581,12.581,0,0,1,4.177-4.5,10.807,10.807,0,0,1,6.027-1.7,8.021,8.021,0,0,1,3.814.834,8.948,8.948,0,0,1,2.665,2.14,11.436,11.436,0,0,1,1.765,2.866,30.866,30.866,0,0,1,1.124,3.011,18.823,18.823,0,0,1,.843,7.328Zm389.629-.145a6.275,6.275,0,0,0-2.007-3.047,4.364,4.364,0,0,0-2.72-1.161,2.755,2.755,0,0,0-1.092.218,1.577,1.577,0,0,0-.788.726q-1.149,1.887-3.212,4.679a47.693,47.693,0,0,1-4.63,5.369,29.221,29.221,0,0,1-5.55,4.389,11.511,11.511,0,0,1-6.032,1.814,7.462,7.462,0,0,1-2.71-.435,2.919,2.919,0,0,1-1.614-2.031,7.506,7.506,0,0,1-.154-3.736,19.787,19.787,0,0,1,1.178-3.881,34.65,34.65,0,0,1,1.716-3.555q.925-1.668,1.457-2.757a27.388,27.388,0,0,0,2.429-7.182,16.667,16.667,0,0,0-.594-8.271,13.037,13.037,0,0,0-6.079-7.726,15.342,15.342,0,0,0-4.413-1.7,22.222,22.222,0,0,0-4.727-.508,18.33,18.33,0,0,0-5.7.8,16.486,16.486,0,0,0-4.309,2.1,18.654,18.654,0,0,0-3.322,2.938,33.953,33.953,0,0,0-2.593,3.3,14.3,14.3,0,0,0-2.37-4.208,13.13,13.13,0,0,0-6.932-4.425,16,16,0,0,0-4-.508,18.752,18.752,0,0,0-6.962,1.161,17.956,17.956,0,0,0-4.99,2.938,24.477,24.477,0,0,0-3.68,3.881q-1.589,2.1-2.979,3.918a11.026,11.026,0,0,0-.423-4.135,7.353,7.353,0,0,0-2.631-3.881,6.161,6.161,0,0,0-3.645-1.342,5.429,5.429,0,0,0-3.767,1.523,7.053,7.053,0,0,0-1.989,4.643q-.295,2.54-.8,6.13t-1.084,7.654c-.109.774-.221,1.555-.333,2.332q-3.11,4.637-6.032,8.26-1.264,1.524-2.648,3.011a31.547,31.547,0,0,1-2.76,2.648,15.99,15.99,0,0,1-2.648,1.85,4.988,4.988,0,0,1-2.359.689,3.623,3.623,0,0,1-2.907-1.415,10.484,10.484,0,0,1-1.85-3.591,20.09,20.09,0,0,1-.751-4.026q-.231-2.357-.273-5.042t.062-5.477q.1-2.792.241-5.369t.241-4.679q.1-2.1.032-3.482a3.6,3.6,0,0,0-.177-.8,6.635,6.635,0,0,0-2.785-3.337,8.581,8.581,0,0,0-4.973-1.523,5.66,5.66,0,0,0-1.942.4,15.49,15.49,0,0,0-2,.907q-1.123.581-2.153,1.233a31.307,31.307,0,0,0-4.13-2.539,32.416,32.416,0,0,0-4.6-1.741,20.152,20.152,0,0,0-5.833-.8,23.525,23.525,0,0,0-10.5,2.14,21.44,21.44,0,0,0-7.171,5.586,24.925,24.925,0,0,0-4.339,7.8,38.944,38.944,0,0,0-1.954,8.815,45.485,45.485,0,0,0-.209,6.488q-1.16.825-2.631,1.818-2.365,1.6-5.361,3.374t-6.256,3.3a43.69,43.69,0,0,1-6.758,2.5,25.308,25.308,0,0,1-6.835.979,11.341,11.341,0,0,1-5.378-1.2,7.3,7.3,0,0,1-3.279-3.3,85.976,85.976,0,0,0,14.162-7.218,37.368,37.368,0,0,0,8.277-7.038,14.558,14.558,0,0,0,3.386-6.783,13.631,13.631,0,0,0-.4-6.385,15.5,15.5,0,0,0-5.492-8.053,16.094,16.094,0,0,0-9.9-2.9,29.442,29.442,0,0,0-10.246,1.669,26.835,26.835,0,0,0-7.859,4.425,26.223,26.223,0,0,0-5.592,6.348,30.391,30.391,0,0,0-3.386,7.364,27.347,27.347,0,0,0-1.2,7.509,23.391,23.391,0,0,0,.326,4.434c-.107.033-.211.068-.321.1a22.911,22.911,0,0,1-6.363.87,8.989,8.989,0,0,1-1.87-.181,3.109,3.109,0,0,1-1.611-.98,22.047,22.047,0,0,0,1.067-5.042,50.647,50.647,0,0,0,.283-5.586,46.778,46.778,0,0,0-.264-4.9,18.942,18.942,0,0,0-.472-2.9,16.924,16.924,0,0,0-2.956-5.622,20.667,20.667,0,0,0-9.438-6.639,15.257,15.257,0,0,0-4.841-.87,20.739,20.739,0,0,0-5.975.835,25.979,25.979,0,0,0-5.192,2.176,30.505,30.505,0,0,0-4.485,3.047,45.765,45.765,0,0,0-3.829,3.519q2.118-10.374,3.58-21t3.6-20.93a19.053,19.053,0,0,0,.607-3.156,7.627,7.627,0,0,0-.261-3.156,6.3,6.3,0,0,0-2.34-3.192,8.42,8.42,0,0,0-5.087-1.306,7.4,7.4,0,0,0-2.449.4,6.894,6.894,0,0,0-2.016,1.088,6.4,6.4,0,0,0-1.432,1.56,4.528,4.528,0,0,0-.7,1.814l-6.44,47.085q-.28,1.888-.413,3.083t-.211,2.1q-.078.909-.144,1.741t-.149,1.959q-.082,1.126-.236,2.721t-.418,3.99q-.2,2.049-.2,4.176-2.111,2.067-4.669,4.131a70.518,70.518,0,0,1-6.425,4.607,45.663,45.663,0,0,1-6.877,3.627,2.926,2.926,0,0,1-1.358.762,6.524,6.524,0,0,1-1.126.109,1.9,1.9,0,0,1-1.3-.435,2.211,2.211,0,0,1-.681-1.016,3.5,3.5,0,0,1,.1-2.684q.313-1.306.96-3.3t1.42-4.389q.772-2.393,1.479-5.114a47.189,47.189,0,0,0,1.092-5.55,34.276,34.276,0,0,0,.3-5.659,20.3,20.3,0,0,0-.905-5.441,10.52,10.52,0,0,0-4.538-6.276,13.576,13.576,0,0,0-7-1.85,22.868,22.868,0,0,0-6.875,1.088,34.666,34.666,0,0,0-6.522,2.794,27.535,27.535,0,0,0-5.358,3.845,14.2,14.2,0,0,0-3.265,4.172,8.668,8.668,0,0,0,.072-2.322,10.922,10.922,0,0,0-.418-2.031,6.991,6.991,0,0,0-2.546-3.736,6.044,6.044,0,0,0-3.516-1.27,5.551,5.551,0,0,0-3.8,1.523,7.52,7.52,0,0,0-2.173,4.643c-.107.752-.239,1.579-.388,2.473a1.1,1.1,0,0,0-.589.429q-.6,1.089-1.527,2.648t-2.123,3.3q-1.193,1.741-2.608,3.483a27.584,27.584,0,0,1-2.939,3.12,16.618,16.618,0,0,1-3.1,2.249,6.381,6.381,0,0,1-3.1.871,6.543,6.543,0,0,1-2.146-.363,6.216,6.216,0,0,1-2.054-1.233,33.688,33.688,0,0,0-.087-5.84,25.707,25.707,0,0,0-.975-4.97,18.129,18.129,0,0,0-3.991-7.074,23.012,23.012,0,0,0-5.9-4.607,24.915,24.915,0,0,0-6.609-2.466,29.568,29.568,0,0,0-6.136-.726,26.447,26.447,0,0,0-10.955,2.068,22.223,22.223,0,0,0-7.578,5.441,24.321,24.321,0,0,0-4.615,7.618,38.279,38.279,0,0,0-2.178,8.561,39.358,39.358,0,0,0-.241,8.379,32.313,32.313,0,0,0,1.236,6.965,19.875,19.875,0,0,0,3.938,7.255,24.547,24.547,0,0,0,5.607,4.825,22.839,22.839,0,0,0,5.94,2.647,19.478,19.478,0,0,0,4.963.8,32.708,32.708,0,0,0,9.7-1.342,26.68,26.68,0,0,0,7.675-3.737,22.994,22.994,0,0,0,5.639-5.731,29.076,29.076,0,0,0,3.63-7.4,18.972,18.972,0,0,0,4.18,1.886,13.454,13.454,0,0,0,3.844.581,8.872,8.872,0,0,0,5.035-1.524,20.21,20.21,0,0,0,4.135-3.7c.025-.029.047-.059.072-.088-.278,1.8-.525,3.53-.731,5.166q-.459,3.629-.612,6.385a12.431,12.431,0,0,0,.231,3.99,8.1,8.1,0,0,0,2.678,3.918,6.881,6.881,0,0,0,4.488,1.6,4.179,4.179,0,0,0,3.608-1.56,10.825,10.825,0,0,0,1.711-3.917A46.778,46.778,0,0,0,1090,317a33.085,33.085,0,0,1,1.047-5.115q1.208-3.554,2.844-8.053a51.768,51.768,0,0,1,4.005-8.525,25.612,25.612,0,0,1,5.672-6.784,12.006,12.006,0,0,1,7.946-2.756,3.033,3.033,0,0,1,2.089.762,4.049,4.049,0,0,1,1.193,1.85,7,7,0,0,1,.057,3.192q-.328,1.959-.96,4.462t-1.425,5.3q-.794,2.794-1.395,5.623a42.915,42.915,0,0,0-.813,5.514,15.35,15.35,0,0,0,.348,4.933c.072.388.147.738.221,1.052s.164.641.269.979a12.808,12.808,0,0,0,3.65,5.985,9.207,9.207,0,0,0,6.291,2.14,14.366,14.366,0,0,0,2.772-.29,24.961,24.961,0,0,0,3.173-.87,53.05,53.05,0,0,0,8.528-3.446,50.961,50.961,0,0,0,6.437-3.99,63.744,63.744,0,0,0,5.592-4.607l.4-.366a28.42,28.42,0,0,0,2.292,4.792,20.331,20.331,0,0,0,4.309,5.078,19.766,19.766,0,0,0,6.01,3.446,22.657,22.657,0,0,0,7.867,1.27,26.883,26.883,0,0,0,13.894-3.446A26.1,26.1,0,0,0,1192,314.278a13.313,13.313,0,0,0,4.043,2.031,15.417,15.417,0,0,0,4.483.653,30.454,30.454,0,0,0,6.9-.762,39.206,39.206,0,0,0,3.834-1.105,30.814,30.814,0,0,0,5.475,6.293,26.9,26.9,0,0,0,7.136,4.5,20.713,20.713,0,0,0,8.245,1.669,36.516,36.516,0,0,0,9.876-1.342,53.62,53.62,0,0,0,8.988-3.374,60.145,60.145,0,0,0,7.738-4.462q2.618-1.79,4.709-3.443a17.744,17.744,0,0,0,2.949,4.858,22.855,22.855,0,0,0,5.179,4.5,21.289,21.289,0,0,0,5.532,2.5,17.831,17.831,0,0,0,4.625.762,13.644,13.644,0,0,0,6.755-1.7A22.585,22.585,0,0,0,1294,321.5a31.881,31.881,0,0,0,4.324-5.877,58.786,58.786,0,0,0,3.148-6.275,11.638,11.638,0,0,0,.149,2.793,22.2,22.2,0,0,0,.724,3.011,22.673,22.673,0,0,0,2,4.534,18.965,18.965,0,0,0,3.013,3.954,15.128,15.128,0,0,0,3.9,2.83,10.253,10.253,0,0,0,4.692,1.088,12.729,12.729,0,0,0,5.6-1.342,29,29,0,0,0,5.413-3.446,42.887,42.887,0,0,0,4.988-4.68c.564-.619,1.109-1.236,1.643-1.852-.03.581-.052,1.14-.07,1.671a13.406,13.406,0,0,0,.331,4.063,8.287,8.287,0,0,0,2.77,3.99,7.17,7.17,0,0,0,4.657,1.668,3.869,3.869,0,0,0,3.476-1.632,11.683,11.683,0,0,0,1.6-4.026,36.835,36.835,0,0,0,.723-5.223,33.724,33.724,0,0,1,.758-5.224q.723-2.321,1.579-5.151t1.952-5.7a47.774,47.774,0,0,1,2.541-5.55,23.494,23.494,0,0,1,3.334-4.752,16.038,16.038,0,0,1,4.249-3.337,11.074,11.074,0,0,1,5.331-1.269,3.162,3.162,0,0,1,2.123.762,4.088,4.088,0,0,1,1.256,1.923,5.352,5.352,0,0,1,.234,2.14,11.148,11.148,0,0,1-.467,2.213q-1.246,4.136-2.834,8.089t-2.78,7.8a41.515,41.515,0,0,0-1.614,7.473,16.911,16.911,0,0,0,.666,7.11,5.051,5.051,0,0,0,1.161,1.741,8.474,8.474,0,0,0,1.808,1.379,9.842,9.842,0,0,0,2.133.907,7.187,7.187,0,0,0,1.989.326,3.869,3.869,0,0,0,3.476-1.632,11.681,11.681,0,0,0,1.6-4.026,37.553,37.553,0,0,0,.724-5.223,33.739,33.739,0,0,1,.758-5.224q.72-2.321,1.576-5.151t1.954-5.7a47.371,47.371,0,0,1,2.541-5.55,23.484,23.484,0,0,1,3.334-4.752,16.034,16.034,0,0,1,4.249-3.337,11.068,11.068,0,0,1,5.331-1.269,3.162,3.162,0,0,1,2.123.762,4.087,4.087,0,0,1,1.256,1.923,5.352,5.352,0,0,1,.234,2.14,11.149,11.149,0,0,1-.468,2.213,32.765,32.765,0,0,1-2.19,5.514,60.169,60.169,0,0,0-2.5,5.7,25.807,25.807,0,0,0-1.489,6.13,16.3,16.3,0,0,0,.756,6.82,13.9,13.9,0,0,0,5.821,8.053,17.567,17.567,0,0,0,9.458,2.54,19.378,19.378,0,0,0,7.8-1.6,31.509,31.509,0,0,0,7.009-4.244,48.619,48.619,0,0,0,6.36-6.094q3.017-3.445,5.753-7.218a6.861,6.861,0,0,0,1.9-3.41,6.545,6.545,0,0,0-.127-3.192" transform="translate(-613.42 -26.308)" fill="#53cbc8"/>
    <path id="Path_185" data-name="Path 185" d="M772.834,400.23A25.845,25.845,0,0,0,747,426.082h0c0,.018,0,.036,0,.054l0,.041a1.272,1.272,0,0,0,1.272,1.2H797.4a1.271,1.271,0,0,0,1.272-1.2l0-.041c0-.018,0-.036,0-.054h0A25.845,25.845,0,0,0,772.834,400.23Z" transform="translate(-414.304 -154.395)" fill="#53cbc8"/>
    <path id="Path_186" data-name="Path 186" d="M668.7,615.541a1.573,1.573,0,1,1-1.573-1.573A1.573,1.573,0,0,1,668.7,615.541Z" transform="translate(-353.113 -314.989)" fill="#e1147b"/>
    <path id="Path_187" data-name="Path 187" d="M778.857,585.287H726.142a1.55,1.55,0,0,0-1.362,2.286l.026.049a1.546,1.546,0,0,0,1.363.811H778.83a1.547,1.547,0,0,0,1.363-.811l.026-.049A1.551,1.551,0,0,0,778.857,585.287Z" transform="translate(-397.47 -293.44)" fill="#e1147b"/>
    <path id="Path_188" data-name="Path 188" d="M785.861,527.924H726.139a1.552,1.552,0,0,0-1.546,1.639c0,.016,0,.033,0,.049a1.545,1.545,0,0,0,1.546,1.458h59.716a1.546,1.546,0,0,0,1.546-1.458c0-.016,0-.033,0-.049A1.552,1.552,0,0,0,785.861,527.924Z" transform="translate(-397.47 -250.339)" fill="#e1147b"/>
    <path id="Path_189" data-name="Path 189" d="M794.556,671.331H767.642a1.55,1.55,0,0,0-.69,2.936l.1.049a1.542,1.542,0,0,0,.69.161h26.717a1.544,1.544,0,0,0,.691-.161l.1-.049A1.55,1.55,0,0,0,794.556,671.331Z" transform="translate(-428.653 -358.09)" fill="#e1147b"/>
    <path id="Path_190" data-name="Path 190" d="M860.7,642.649H833.781a1.55,1.55,0,0,0-.69,2.936l.1.049a1.547,1.547,0,0,0,.691.161H860.6a1.546,1.546,0,0,0,.691-.161l.1-.049A1.55,1.55,0,0,0,860.7,642.649Z" transform="translate(-478.348 -336.539)" fill="#e1147b"/>
    <path id="Path_191" data-name="Path 191" d="M797.705,616.62l-.046-.049a1.549,1.549,0,0,1,1.136-2.6h43.682a1.549,1.549,0,0,1,1.136,2.6l-.046.049a1.559,1.559,0,0,1-1.135.495H798.841A1.558,1.558,0,0,1,797.705,616.62Z" transform="translate(-452.057 -314.989)" fill="#e1147b"/>
    <path id="Path_192" data-name="Path 192" d="M689.789,613.968h20.859a1.55,1.55,0,0,1,.69,2.936l-.1.049a1.542,1.542,0,0,1-.69.161H689.888a1.543,1.543,0,0,1-.691-.161l-.1-.049A1.55,1.55,0,0,1,689.789,613.968Z" transform="translate(-370.157 -314.989)" fill="#e1147b"/>
    <path id="Path_193" data-name="Path 193" d="M705.054,529.5a1.572,1.572,0,1,1-1.573-1.573A1.573,1.573,0,0,1,705.054,529.5Z" transform="translate(-380.427 -250.339)" fill="#e1147b"/>
    <path id="Path_194" data-name="Path 194" d="M722.448,558.6l.013-.049a1.548,1.548,0,0,0-1.5-1.949H677.277a1.548,1.548,0,0,0-1.5,1.949c0,.016.009.033.013.049a1.552,1.552,0,0,0,1.5,1.148h43.662a1.553,1.553,0,0,0,1.5-1.148" transform="translate(-360.755 -271.89)" fill="#e1147b"/>
    <path id="Path_195" data-name="Path 195" d="M656.188,558.179a1.572,1.572,0,1,1-1.572-1.573A1.573,1.573,0,0,1,656.188,558.179Z" transform="translate(-343.711 -271.89)" fill="#e1147b"/>
    <path id="Path_196" data-name="Path 196" d="M705.054,586.86a1.572,1.572,0,1,1-1.573-1.573A1.573,1.573,0,0,1,705.054,586.86Z" transform="translate(-380.427 -293.44)" fill="#e1147b"/>
    <path id="Path_197" data-name="Path 197" d="M812.694,644.223a1.573,1.573,0,1,1-1.573-1.573A1.573,1.573,0,0,1,812.694,644.223Z" transform="translate(-461.304 -336.54)" fill="#e1147b"/>
    <path id="Path_198" data-name="Path 198" d="M746.555,672.9a1.572,1.572,0,1,1-1.572-1.573A1.573,1.573,0,0,1,746.555,672.9Z" transform="translate(-411.61 -358.09)" fill="#e1147b"/>
  </g>
</svg>
