<?xml version="1.0" encoding="UTF-8"?>
<svg id="a" data-name="Layer 1" xmlns="http://www.w3.org/2000/svg" viewBox="0 0 402.49 512">
  <defs>
    <style>
      .m {
        fill: #f2b705;
      }

      .n {
        fill: #53cbc8;
      }
    </style>
  </defs>
  <g id="b" data-name="symbol">
    <path id="c" data-name="Path 207" class="m" d="M197.66,0C91.93,0,6.22,85.71,6.22,191.44h0c0,12.09,1.14,24.16,3.39,36.05l24.73-16.92c43.48-29.82,114-29.82,157.48,0l25.95,17.78,14.1,9.67c39.19,26.85,102.67,26.85,141.83,0l11.54-7.9C406.48,126.47,339.67,25.23,236.02,4,223.43,1.42,210.61,.11,197.75,.1l-.09-.1Z"/>
    <path id="d" data-name="Path 208" class="n" d="M305.25,306.45c-27.35,.47-54.22-7.21-77.19-22.05l-39.99-27.4c-44.38-27.21-100.27-27.21-144.64,0l-25.85,17.7c-5.12,3.5-12.11,2.2-15.61-2.92-3.5-5.12-2.2-12.11,2.92-15.61l25.85-17.7c52.04-32.4,117.99-32.4,170.03,0l39.99,27.4c39.58,24.22,89.4,24.22,128.99,0l15.18-10.38c5.12-3.5,12.11-2.2,15.61,2.92,3.5,5.12,2.2,12.11-2.92,15.61h0l-15.18,10.39c-22.97,14.84-49.84,22.52-77.18,22.05Z"/>
    <path id="e" data-name="Path 209" class="n" d="M114.92,386.85v-108.16c-.08-2.28,.01-4.55,.29-6.82,.7-6.16,5.91-10.82,12.12-10.81,6.01,.16,10.94,4.82,11.43,10.81,.46,3.75,.59,7.54,.39,11.32v215.68c.24,7-5.24,12.88-12.24,13.12-.05,0-.11,0-.16,0-6.84-.38-12.08-6.23-11.7-13.07,.01-.22,.03-.44,.05-.66v-71.89l-.19-39.52Z"/>
    <path id="f" data-name="Path 210" class="n" d="M92.17,332.41v53.75c0,9.16-4.93,15.29-11.86,15.07-7.56-.78-13.05-7.53-12.27-15.09v-107.56c0-9.42,5.49-15.77,12.63-15.4s11.4,6.06,11.43,15.46c.11,17.92,.08,35.84,.08,53.76Z"/>
    <path id="g" data-name="Path 211" class="n" d="M162.01,332.33v-37.79c0-8.76,4.64-14.42,11.57-14.42,7.17,.34,12.7,6.42,12.37,13.58,0,.17-.02,.34-.03,.51,.26,25.72,.26,51.43,0,77.12,.88,6.77-3.89,12.97-10.66,13.85-.53,.07-1.07,.1-1.6,.1-7.1-.07-11.64-5.45-11.71-14.42v-38.58l.07,.04Z"/>
    <path id="h" data-name="Path 212" class="n" d="M21.18,340.22v-37.79c0-8.75,4.65-14.42,11.57-14.42,7.17,.34,12.7,6.42,12.37,13.58,0,.17-.02,.34-.03,.51,.23,25.72,.23,51.43,0,77.12,.87,6.78-3.92,12.98-10.7,13.85-.52,.07-1.04,.1-1.56,.1-7.05-.07-11.64-5.45-11.72-14.42v-38.58l.08,.04Z"/>
    <path id="i" data-name="Path 213" class="n" d="M220.68,308.03h0c6.55,0,11.86,5.32,11.86,11.87v20.55c0,6.55-5.31,11.86-11.86,11.86h0c-6.55,0-11.87-5.31-11.87-11.86v-20.55c0-6.56,5.31-11.87,11.87-11.87h0Z"/>
    <path id="j" data-name="Path 214" class="n" d="M267.7,326.03h0c6.55,0,11.86,5.32,11.86,11.87v115.26c0,6.55-5.31,11.86-11.86,11.86h0c-6.55,0-11.86-5.3-11.86-11.85h0v-115.27c0-6.55,5.3-11.87,11.86-11.87h0Z"/>
    <path id="k" data-name="Path 215" class="n" d="M314.41,330.5h0c6.55,0,11.87,5.31,11.87,11.86v97.97c0,6.55-5.32,11.86-11.87,11.86h0c-6.55,0-11.86-5.3-11.86-11.85h0v-97.98c0-6.55,5.31-11.86,11.86-11.86Z"/>
    <path id="l" data-name="Path 216" class="n" d="M361.72,319.32h0c6.55,0,11.86,5.31,11.86,11.86v42.25c0,6.55-5.31,11.86-11.86,11.86h0c-6.55,0-11.86-5.31-11.86-11.86v-42.25c0-6.55,5.31-11.86,11.86-11.86Z"/>
  </g>
</svg>