<svg xmlns="http://www.w3.org/2000/svg" xmlns:xlink="http://www.w3.org/1999/xlink" width="767.193" height="125" viewBox="0 0 767.193 125">
  <defs>
    <clipPath id="clip-path">
      <rect id="Rectangle_32" data-name="Rectangle 32" width="125" height="125" transform="translate(385 345)" fill="#fff"/>
    </clipPath>
  </defs>
  <g id="logo" transform="translate(-220 -218)">
    <g id="favicon" transform="translate(-165 -127)">
      <g id="Mask_Group_3" data-name="Mask Group 3" clip-path="url(#clip-path)">
        <path id="Path_151" data-name="Path 151" d="M91.487,31.85a7.794,7.794,0,0,0-7.605,0L66.434,41.97l-11.855,6.6L37.132,58.69a7.8,7.8,0,0,1-7.605,0L15.658,50.77a7.566,7.566,0,0,1-3.8-6.38V28.77a7.114,7.114,0,0,1,3.8-6.38l13.645-7.7a7.8,7.8,0,0,1,7.605,0l13.645,7.7a7.566,7.566,0,0,1,3.8,6.38V38.89l11.855-6.82V21.95a7.114,7.114,0,0,0-3.8-6.38L37.132,1.051a7.8,7.8,0,0,0-7.605,0L3.8,15.571A7.114,7.114,0,0,0,0,21.95V51.21a7.114,7.114,0,0,0,3.8,6.38l25.724,14.52a7.8,7.8,0,0,0,7.605,0l17.447-9.9,11.855-6.82,17.448-9.9a7.794,7.794,0,0,1,7.605,0l13.645,7.7a7.567,7.567,0,0,1,3.8,6.38v15.62a7.114,7.114,0,0,1-3.8,6.38l-13.645,7.92a7.8,7.8,0,0,1-7.605,0l-13.645-7.7a7.567,7.567,0,0,1-3.8-6.38V65.289l-11.855,6.82v10.12a7.114,7.114,0,0,0,3.8,6.38l25.724,14.52a7.8,7.8,0,0,0,7.605,0l25.724-14.52a7.567,7.567,0,0,0,3.8-6.38V52.97a7.114,7.114,0,0,0-3.8-6.38Z" transform="translate(387 354.939)" fill="#8247e5"/>
      </g>
    </g>
    <path id="polygonscan" d="M36.592-34a21,21,0,0,1,11.479,3.207,21.99,21.99,0,0,1,7.993,9.2A31.977,31.977,0,0,1,58.992-7.416,32.051,32.051,0,0,1,56.064,6.711a21.938,21.938,0,0,1-7.993,9.248,21,21,0,0,1-11.479,3.207,18.775,18.775,0,0,1-10.224-2.7,15.652,15.652,0,0,1-6.227-7.343v34.11H4.248V-33.347H20.141v9.387A15.652,15.652,0,0,1,26.369-31.3,18.775,18.775,0,0,1,36.592-34ZM31.48-20.057a10.817,10.817,0,0,0-8.225,3.392q-3.207,3.392-3.207,9.248a12.952,12.952,0,0,0,3.207,9.2A10.745,10.745,0,0,0,31.48,5.224a10.706,10.706,0,0,0,8.225-3.346Q42.82-1.468,42.82-7.416t-3.114-9.294A10.706,10.706,0,0,0,31.48-20.057ZM91.522-34a29.164,29.164,0,0,1,13.8,3.207,23.508,23.508,0,0,1,9.573,9.248,27.772,27.772,0,0,1,3.485,14.127A27.772,27.772,0,0,1,114.9,6.711a23.508,23.508,0,0,1-9.573,9.248,29.164,29.164,0,0,1-13.8,3.207,29.442,29.442,0,0,1-13.849-3.207,23.434,23.434,0,0,1-9.62-9.248A27.772,27.772,0,0,1,64.568-7.416a27.772,27.772,0,0,1,3.485-14.127,23.434,23.434,0,0,1,9.62-9.248A29.442,29.442,0,0,1,91.522-34Zm0,13.756a10.127,10.127,0,0,0-7.668,3.3q-3.114,3.3-3.114,9.527t3.114,9.48a10.2,10.2,0,0,0,7.668,3.253,10.049,10.049,0,0,0,7.621-3.253q3.067-3.253,3.067-9.48t-3.067-9.527A9.982,9.982,0,0,0,91.522-20.242Zm51.026-43.409V18.515H126.654V-63.651h15.893Zm22.957,30.3L177.959-1.561l11.618-31.787h17.566L174.8,43.238H157.326L169.5,16.563,147.753-33.347ZM232.145-34a18.775,18.775,0,0,1,10.224,2.7,16.2,16.2,0,0,1,6.32,7.343v-9.387h15.8V18.236A29.8,29.8,0,0,1,261.7,31.295a21.385,21.385,0,0,1-8.551,9.248q-5.763,3.439-14.313,3.439-11.711,0-18.728-5.53a22.5,22.5,0,0,1-8.411-15.01h15.707a7.874,7.874,0,0,0,3.392,4.926,12.273,12.273,0,0,0,6.924,1.766,11.142,11.142,0,0,0,7.947-2.835q3.021-2.835,3.021-9.062V9.128a16.2,16.2,0,0,1-6.32,7.343,18.775,18.775,0,0,1-10.224,2.7,21,21,0,0,1-11.479-3.207,21.938,21.938,0,0,1-7.993-9.248,32.051,32.051,0,0,1-2.928-14.127,31.977,31.977,0,0,1,2.928-14.174,21.99,21.99,0,0,1,7.993-9.2A21,21,0,0,1,232.145-34Zm5.112,13.942a10.706,10.706,0,0,0-8.225,3.346q-3.114,3.346-3.114,9.294t3.114,9.294a10.706,10.706,0,0,0,8.225,3.346,10.745,10.745,0,0,0,8.225-3.439,12.952,12.952,0,0,0,3.207-9.2q0-5.855-3.207-9.248A10.817,10.817,0,0,0,237.257-20.057ZM299.715-34a29.164,29.164,0,0,1,13.8,3.207,23.508,23.508,0,0,1,9.573,9.248,27.773,27.773,0,0,1,3.485,14.127A27.773,27.773,0,0,1,323.09,6.711a23.508,23.508,0,0,1-9.573,9.248,29.164,29.164,0,0,1-13.8,3.207,29.441,29.441,0,0,1-13.849-3.207,23.434,23.434,0,0,1-9.62-9.248,27.772,27.772,0,0,1-3.485-14.127,27.772,27.772,0,0,1,3.485-14.127,23.434,23.434,0,0,1,9.62-9.248A29.442,29.442,0,0,1,299.715-34Zm0,13.756a10.128,10.128,0,0,0-7.668,3.3q-3.114,3.3-3.114,9.527t3.114,9.48a10.2,10.2,0,0,0,7.668,3.253,10.049,10.049,0,0,0,7.621-3.253q3.067-3.253,3.067-9.48t-3.067-9.527A9.982,9.982,0,0,0,299.715-20.242ZM367.75-33.905q8.923,0,14.174,5.948T387.175-11.6V18.515H371.282V-9.74q0-5.2-2.742-8.133a9.522,9.522,0,0,0-7.3-2.928,9.932,9.932,0,0,0-7.668,3.067Q350.741-14.666,350.741-9V18.515H334.848V-33.347h15.893v9.48a17.107,17.107,0,0,1,6.645-7.343A19.493,19.493,0,0,1,367.75-33.905Zm48.8-.093q9.852,0,15.754,4.926a21.4,21.4,0,0,1,7.389,13.012H424.817a8.238,8.238,0,0,0-2.928-4.972,8.891,8.891,0,0,0-5.716-1.812,6.249,6.249,0,0,0-4.089,1.162,4.054,4.054,0,0,0-1.394,3.3,3.871,3.871,0,0,0,2.556,3.625,40.756,40.756,0,0,0,8.04,2.417,79.842,79.842,0,0,1,9.759,2.835,16.1,16.1,0,0,1,6.6,4.694q2.788,3.253,2.788,8.737a13.4,13.4,0,0,1-2.417,7.9,15.911,15.911,0,0,1-6.971,5.391,27.24,27.24,0,0,1-10.781,1.952q-10.5,0-16.823-4.647T395.726,1.227h15.336A6.9,6.9,0,0,0,413.9,6.339a10.672,10.672,0,0,0,6.367,1.766,5.927,5.927,0,0,0,4.089-1.255,4.227,4.227,0,0,0,1.394-3.3A3.967,3.967,0,0,0,423.19-.306a46.993,46.993,0,0,0-8.318-2.463,66.52,66.52,0,0,1-9.48-2.6,15.651,15.651,0,0,1-6.413-4.508q-2.7-3.114-2.7-8.5a13.878,13.878,0,0,1,5.3-11.293Q406.879-34,416.545-34Zm56.138,0q10.038,0,16.823,5.53t8.551,15.2H481.234a8.875,8.875,0,0,0-3.067-5.2,9.077,9.077,0,0,0-5.855-1.859,8.494,8.494,0,0,0-6.878,3.3q-2.7,3.3-2.7,9.62t2.7,9.62a8.494,8.494,0,0,0,6.878,3.3,9.077,9.077,0,0,0,5.855-1.859,8.875,8.875,0,0,0,3.067-5.2h16.823q-1.766,9.666-8.551,15.2t-16.823,5.53a27.872,27.872,0,0,1-13.523-3.207,22.911,22.911,0,0,1-9.248-9.248,28.694,28.694,0,0,1-3.346-14.127,28.953,28.953,0,0,1,3.3-14.174,22.612,22.612,0,0,1,9.248-9.2A28.143,28.143,0,0,1,472.683-34Zm53.349,0a18.775,18.775,0,0,1,10.224,2.7,16.2,16.2,0,0,1,6.32,7.343v-9.387h15.8V18.515h-15.8V9.128a16.2,16.2,0,0,1-6.32,7.343,18.775,18.775,0,0,1-10.224,2.7,21,21,0,0,1-11.479-3.207,21.938,21.938,0,0,1-7.993-9.248,32.051,32.051,0,0,1-2.928-14.127,31.977,31.977,0,0,1,2.928-14.174,21.991,21.991,0,0,1,7.993-9.2A21,21,0,0,1,526.032-34Zm5.112,13.942a10.706,10.706,0,0,0-8.226,3.346q-3.114,3.346-3.114,9.294t3.114,9.294a10.706,10.706,0,0,0,8.226,3.346,10.745,10.745,0,0,0,8.225-3.439,12.952,12.952,0,0,0,3.207-9.2q0-5.855-3.207-9.248A10.817,10.817,0,0,0,531.144-20.057Zm71.1-13.849q8.923,0,14.174,5.948T621.671-11.6V18.515H605.778V-9.74q0-5.2-2.742-8.133a9.522,9.522,0,0,0-7.3-2.928,9.932,9.932,0,0,0-7.668,3.067Q585.237-14.666,585.237-9V18.515H569.344V-33.347h15.893v9.48a17.108,17.108,0,0,1,6.646-7.343A19.493,19.493,0,0,1,602.246-33.905Z" transform="translate(365.522 290.651)" fill="#140035"/>
  </g>
</svg>
