<svg width="699" height="134" viewBox="0 0 699 134" fill="none" xmlns="http://www.w3.org/2000/svg">
<path d="M164.553 96.3648C160.979 95.0413 157.828 92.7811 155.428 89.8208C153.439 87.2838 152.302 84.1841 152.178 80.9629C152.181 80.7196 152.235 80.4796 152.334 80.2576C152.434 80.0356 152.578 79.8363 152.757 79.6719C152.935 79.4862 153.149 79.3389 153.386 79.2393C153.623 79.1397 153.878 79.0898 154.135 79.0928H165.353C165.957 79.0667 166.557 79.205 167.089 79.4929C167.606 79.8217 168.071 80.2262 168.469 80.6929C169.31 82.3106 170.611 83.6431 172.208 84.522C174.319 85.6225 176.685 86.1442 179.063 86.034C182.446 86.034 185.028 85.5005 186.808 84.4339C187.612 84.0238 188.288 83.3992 188.759 82.6292C189.23 81.8592 189.479 80.9737 189.479 80.0708C189.497 79.4691 189.382 78.871 189.144 78.3181C188.906 77.7653 188.549 77.2713 188.1 76.8709C186.822 75.8502 185.354 75.0931 183.782 74.6438C180.913 73.7555 178.002 73.013 175.058 72.419C167.936 70.935 162.609 68.754 159.077 65.876C155.545 62.998 153.778 58.8876 153.777 53.5449C153.732 50.0726 154.792 46.6759 156.803 43.845C159.001 40.8557 161.992 38.5427 165.439 37.169C169.593 35.4873 174.046 34.669 178.527 34.7639C183.15 34.6536 187.74 35.5659 191.97 37.4358C195.381 38.913 198.366 41.2241 200.651 44.1568C202.475 46.438 203.575 49.2125 203.811 52.1238C203.817 52.371 203.773 52.617 203.682 52.8467C203.59 53.0764 203.452 53.2851 203.278 53.46C203.103 53.6349 202.894 53.7722 202.665 53.864C202.435 53.9558 202.189 54.0001 201.942 53.9939H190.19C189.591 54.019 188.995 53.8968 188.454 53.638C187.964 53.3584 187.551 52.9607 187.254 52.481C187.025 51.7398 186.652 51.0512 186.155 50.4553C185.658 49.8595 185.048 49.3682 184.36 49.0098C182.504 48.072 180.453 47.5835 178.374 47.5835C176.294 47.5835 174.244 48.072 172.388 49.0098C171.696 49.4589 171.135 50.0819 170.76 50.8162C170.385 51.5505 170.21 52.3704 170.251 53.1939C170.233 53.7669 170.33 54.3376 170.536 54.8726C170.742 55.4075 171.053 55.8958 171.451 56.3089C172.579 57.3373 173.914 58.1117 175.367 58.5799C177.91 59.4629 180.514 60.162 183.158 60.6719C187.701 61.3946 192.14 62.6652 196.377 64.4558C198.63 65.524 200.616 67.0819 202.19 69.0156C203.764 70.9494 204.886 73.21 205.475 75.6328C206.064 78.0557 206.104 80.5796 205.593 83.02C205.082 85.4605 204.032 87.7558 202.521 89.7388C200.027 92.8266 196.731 95.1677 192.994 96.5049C188.535 98.1451 183.812 98.9448 179.062 98.8638C174.109 98.9832 169.181 98.1343 164.553 96.3648Z" fill="#E84142"/>
<path d="M214.086 97.3001C213.874 97.0995 213.706 96.8578 213.591 96.5897C213.476 96.3216 213.417 96.0327 213.418 95.741V37.8761C213.409 37.5772 213.464 37.2799 213.579 37.004C213.694 36.7281 213.867 36.4797 214.086 36.276C214.504 35.8725 215.064 35.6493 215.645 35.6541H225.082C225.699 35.5932 226.319 35.7225 226.86 36.025C227.401 36.3275 227.837 36.7886 228.108 37.346L249.831 71.5311V37.88C249.822 37.5812 249.877 37.2841 249.992 37.0081C250.107 36.7322 250.279 36.484 250.498 36.2801C250.915 35.8766 251.474 35.6531 252.055 35.658H262.739C263.035 35.6448 263.33 35.6934 263.606 35.8006C263.882 35.9078 264.133 36.0714 264.342 36.2808C264.551 36.4903 264.715 36.7409 264.822 37.0169C264.929 37.293 264.977 37.5883 264.964 37.8841V95.661C264.98 96.2704 264.756 96.8617 264.341 97.3079C264.137 97.5268 263.889 97.6996 263.613 97.8148C263.337 97.93 263.04 97.9851 262.741 97.9762H253.214C252.614 97.9994 252.021 97.8528 251.501 97.5533C250.981 97.2538 250.556 96.8134 250.276 96.283L228.555 63.3431V95.7481C228.56 96.3296 228.336 96.8895 227.931 97.307C227.727 97.5258 227.479 97.6986 227.203 97.8138C226.927 97.929 226.63 97.9842 226.331 97.9752H215.649C215.356 97.9755 215.066 97.9155 214.797 97.7994C214.529 97.6833 214.286 97.5135 214.086 97.3001Z" fill="#E84142"/>
<path d="M281.852 92.715C277.045 88.6183 274.493 82.594 274.196 74.642C274.136 72.9213 274.106 70.3693 274.107 66.986C274.107 63.5446 274.137 60.9634 274.196 59.2421C274.491 51.4067 277.088 45.3672 281.986 41.1239C286.884 36.8806 293.427 34.7586 301.616 34.7579C309.806 34.7579 316.364 36.8799 321.291 41.1239C326.218 45.3679 328.799 51.4074 329.036 59.2421C329.154 62.6834 329.213 65.2646 329.214 66.986C329.214 68.6486 329.155 71.2006 329.036 74.642C328.739 82.5973 326.187 88.6216 321.38 92.715C316.573 96.8083 309.985 98.8557 301.616 98.8571C293.247 98.8571 286.659 96.8096 281.852 92.715ZM309.406 83.099C311.334 81.1417 312.358 78.1447 312.479 74.108C312.596 70.666 312.655 68.2327 312.656 66.808C312.656 65.264 312.597 62.8306 312.479 59.5079C312.359 55.4726 311.32 52.475 309.363 50.515C308.339 49.5247 307.124 48.7536 305.792 48.2487C304.461 47.7437 303.04 47.5154 301.617 47.578C300.2 47.5124 298.786 47.7395 297.461 48.245C296.136 48.7505 294.93 49.5235 293.917 50.516C291.984 52.4753 290.93 55.4729 290.756 59.5089C290.696 61.1702 290.666 63.6036 290.667 66.809C290.667 69.955 290.697 72.3883 290.756 74.109C290.935 78.1443 291.973 81.1413 293.872 83.1C294.888 84.1001 296.102 84.8779 297.435 85.3837C298.769 85.8895 300.193 86.1122 301.617 86.038C303.047 86.1088 304.477 85.8844 305.817 85.3788C307.157 84.8732 308.378 84.0971 309.405 83.099H309.406Z" fill="#E84142"/>
<path d="M344.811 97.1212C344.222 96.569 343.845 95.8288 343.743 95.0282L334.043 38.14C333.979 37.9386 333.949 37.7284 333.953 37.5172C333.981 37.0305 334.187 36.5711 334.532 36.2264C334.877 35.8818 335.336 35.676 335.823 35.6481H346.862C348.523 35.6481 349.443 36.3011 349.623 37.6071L355.41 72.326L361.819 51.849C362.472 50.249 363.451 49.4491 364.757 49.4491H371.168C371.864 49.4296 372.544 49.6615 373.084 50.1022C373.623 50.5429 373.986 51.1628 374.106 51.849L380.515 72.326L386.302 37.6071C386.481 36.3024 387.401 35.6494 389.063 35.6481H400.098C400.355 35.6452 400.61 35.6949 400.848 35.7943C401.085 35.8937 401.3 36.0408 401.478 36.2262C401.657 36.3907 401.801 36.5899 401.9 36.8119C402 37.0339 402.053 37.274 402.057 37.5172L401.967 38.14L392.267 95.0282C392.157 95.8622 391.741 96.6252 391.099 97.1688C390.457 97.7124 389.636 97.9974 388.795 97.9681H380.336C379.531 98.0166 378.738 97.7622 378.111 97.255C377.604 96.8202 377.208 96.2721 376.953 95.6552L367.961 70.193L358.97 95.6552C358.771 96.3612 358.335 96.977 357.736 97.3988C357.136 97.8206 356.408 98.0223 355.677 97.9701H347.218C346.335 98.0172 345.469 97.712 344.811 97.1212Z" fill="#E84142"/>
<path d="M426.287 97.2999C426.075 97.0993 425.907 96.8573 425.792 96.5892C425.677 96.3211 425.618 96.0325 425.619 95.7408V49.6278H409.773C409.187 49.6138 408.629 49.3751 408.215 48.9608C407.801 48.5465 407.562 47.9887 407.548 47.403V37.8778C407.539 37.579 407.594 37.2817 407.709 37.0057C407.824 36.7298 407.996 36.4818 408.215 36.278C408.632 35.8747 409.192 35.6513 409.772 35.6559H457.672C457.968 35.6428 458.263 35.6915 458.539 35.7987C458.815 35.906 459.066 36.0696 459.275 36.2789C459.484 36.4883 459.648 36.7388 459.755 37.0148C459.862 37.2908 459.911 37.5862 459.898 37.882V47.4069C459.911 47.7025 459.862 47.9975 459.754 48.2733C459.647 48.5491 459.484 48.7997 459.274 49.0089C459.065 49.2181 458.814 49.3817 458.539 49.4889C458.263 49.5961 457.968 49.6449 457.672 49.632H441.825V95.7469C441.83 96.3284 441.605 96.8882 441.201 97.3058C440.997 97.5246 440.749 97.6974 440.473 97.8126C440.197 97.9278 439.9 97.9827 439.601 97.9738H427.849C427.556 97.974 427.267 97.9144 426.998 97.7985C426.729 97.6825 426.487 97.513 426.287 97.2999Z" fill="#E84142"/>
<path d="M467.488 97.3001C467.276 97.0995 467.108 96.8575 466.993 96.5894C466.878 96.3213 466.819 96.0327 466.82 95.741V37.8761C466.811 37.5772 466.866 37.2799 466.981 37.004C467.096 36.7281 467.269 36.4797 467.488 36.276C467.906 35.8725 468.466 35.6493 469.047 35.6541H493.262C501.037 35.6541 507.105 37.4206 511.467 40.9539C515.829 44.4873 518.01 49.4873 518.011 55.9539C518.127 59.7013 517.102 63.3957 515.073 66.5482C513.063 69.4996 510.253 71.8163 506.973 73.2262L519.173 95.1261C519.337 95.4275 519.428 95.7631 519.44 96.106C519.412 96.5928 519.206 97.0524 518.862 97.3973C518.517 97.7421 518.058 97.9482 517.571 97.9762H505.731C504.947 98.012 504.172 97.799 503.517 97.368C502.861 96.937 502.359 96.3098 502.081 95.576L491.933 75.9891H482.852V95.752C482.862 96.051 482.807 96.3486 482.692 96.6246C482.576 96.9006 482.403 97.1488 482.184 97.3521C481.739 97.7693 481.147 97.9939 480.537 97.9771H469.047C468.755 97.9766 468.465 97.9163 468.197 97.7999C467.929 97.6835 467.688 97.5134 467.488 97.3001ZM493.088 63.336C495.817 63.336 497.895 62.6694 499.32 61.336C500.05 60.6125 500.617 59.7424 500.986 58.783C501.354 57.8237 501.514 56.797 501.456 55.7711C501.509 54.7366 501.35 53.7022 500.991 52.7308C500.631 51.7593 500.078 50.871 499.365 50.12C497.97 48.726 495.877 48.0285 493.088 48.0272H482.85V63.3389L493.088 63.336Z" fill="#E84142"/>
<path d="M524.856 97.3879C524.677 97.2234 524.533 97.0242 524.434 96.8022C524.334 96.5802 524.281 96.3401 524.278 96.0969C524.267 95.8273 524.297 95.5576 524.367 95.2968L545.289 38.1421C545.463 37.4353 545.871 36.8081 546.446 36.362C547.111 35.8631 547.93 35.6112 548.761 35.6499H561.937C562.768 35.612 563.586 35.8638 564.252 36.362C564.826 36.809 565.233 37.4358 565.409 38.1421L586.241 95.2968L586.419 96.0969C586.415 96.3402 586.362 96.5802 586.263 96.8022C586.163 97.0242 586.019 97.2235 585.84 97.3879C585.662 97.5736 585.447 97.7209 585.21 97.8205C584.972 97.9201 584.717 97.9699 584.46 97.967H573.511C572.895 98.0178 572.281 97.8613 571.764 97.5224C571.248 97.1836 570.86 96.6817 570.662 96.0969L567.19 87.0158H543.42L540.037 96.0969C539.825 96.6909 539.421 97.1974 538.889 97.5361C538.357 97.8748 537.727 98.0264 537.099 97.967H526.148C525.904 97.9637 525.664 97.9106 525.442 97.811C525.22 97.7114 525.02 97.5674 524.856 97.3879ZM563.627 74.196L555.348 50.696L547.068 74.196H563.627Z" fill="#E84142"/>
<path d="M596.7 92.6701C591.922 88.5461 589.384 82.5668 589.087 74.7321C589.027 73.1281 588.997 70.5165 588.998 66.8972C588.998 63.2165 589.028 60.5453 589.087 58.884C589.384 51.1693 591.966 45.2198 596.833 41.0351C601.7 36.8505 608.288 34.7577 616.597 34.7571C621.414 34.6809 626.198 35.5742 630.663 37.384C634.56 38.9381 637.961 41.5231 640.501 44.862C642.922 48.1494 644.218 52.1304 644.195 56.2131V56.3911C644.196 56.6219 644.145 56.8501 644.045 57.0581C643.945 57.2661 643.798 57.4484 643.617 57.591C643.26 57.9063 642.801 58.0803 642.325 58.0801H630.307C629.675 58.1217 629.048 57.9494 628.526 57.591C628.006 57.0946 627.636 56.4619 627.458 55.7651C626.627 52.7391 625.321 50.6178 623.541 49.4011C621.435 48.0949 618.983 47.4582 616.508 47.5752C609.505 47.5752 605.884 51.4925 605.647 59.3271C605.587 60.9271 605.557 63.39 605.558 66.716C605.559 70.042 605.588 72.5648 605.647 74.2841C605.884 82.1188 609.504 86.0355 616.508 86.0341C619.022 86.1447 621.509 85.4766 623.63 84.1211C625.641 82.5763 627.006 80.3389 627.459 77.844C627.586 77.1479 627.929 76.5096 628.439 76.019C628.991 75.654 629.648 75.4818 630.308 75.529H642.326C642.838 75.5207 643.333 75.7128 643.706 76.0642C643.892 76.2285 644.034 76.4363 644.119 76.6692C644.205 76.9021 644.231 77.1527 644.195 77.3982C644.218 81.4813 642.923 85.4626 640.501 88.75C637.962 92.0902 634.561 94.6755 630.663 96.228C626.198 98.0387 621.414 98.9323 616.597 98.8552C608.108 98.8565 601.476 96.7948 596.7 92.6701Z" fill="#E84142"/>
<path d="M652.769 97.3C652.557 97.0995 652.388 96.8577 652.273 96.5895C652.158 96.3214 652.1 96.0326 652.101 95.7409V37.8759C652.092 37.577 652.147 37.2798 652.262 37.0038C652.377 36.7279 652.55 36.4796 652.769 36.2758C653.186 35.8723 653.745 35.6491 654.326 35.654H695.901C696.197 35.6408 696.492 35.6891 696.768 35.7963C697.044 35.9035 697.295 36.0671 697.504 36.2766C697.713 36.486 697.877 36.7368 697.984 37.0129C698.091 37.2889 698.139 37.584 698.126 37.8798V46.247C698.13 46.8282 697.907 47.3878 697.503 47.8058C697.299 48.0249 697.051 48.1979 696.775 48.3129C696.499 48.428 696.202 48.4824 695.903 48.4728H667.503V60.4909H693.945C694.244 60.4818 694.541 60.5365 694.817 60.6515C695.093 60.7666 695.341 60.9392 695.545 61.1579C695.959 61.6046 696.183 62.1957 696.167 62.8049V70.551C696.172 71.1317 695.948 71.6911 695.545 72.1088C695.341 72.3275 695.093 72.5001 694.817 72.6152C694.541 72.7302 694.244 72.7849 693.945 72.7758H667.503V85.1498H696.615C696.911 85.1369 697.206 85.1857 697.481 85.2929C697.757 85.4002 698.008 85.5636 698.217 85.7729C698.426 85.9821 698.59 86.2327 698.697 86.5085C698.804 86.7843 698.853 87.0793 698.84 87.3749V95.7438C698.844 96.325 698.621 96.8849 698.217 97.3029C698.013 97.5218 697.765 97.6946 697.489 97.8098C697.213 97.925 696.916 97.9799 696.617 97.9709H654.329C654.037 97.9716 653.748 97.9125 653.479 97.7971C653.211 97.6816 652.969 97.5125 652.769 97.3Z" fill="#E84142"/>
<path fill-rule="evenodd" clip-rule="evenodd" d="M133.614 66.807C133.614 103.703 103.703 133.614 66.807 133.614C29.9105 133.614 0 103.703 0 66.807C0 29.9105 29.9105 0 66.807 0C103.703 0 133.614 29.9105 133.614 66.807ZM74.0677 71.1192L74.0621 71.1569C74.0531 71.2517 74.0351 71.3464 74.0184 71.4338L74.0131 71.4619L100.893 86.9799L97.993 92.0041L90.42 87.6301L92.5941 95.7409L86.994 97.2409L83.3201 83.529L71.1151 76.4828L71.0851 76.507L71.0641 76.5251L71.0171 76.5659C70.8971 76.6639 70.7761 76.76 70.6511 76.851C70.5848 76.8979 70.5202 76.9409 70.4558 76.9838L70.4549 76.9845L70.451 76.987L70.4281 77.0019L70.3281 77.07C70.1991 77.156 70.0691 77.2379 69.9351 77.3159C69.9266 77.3215 69.9184 77.3274 69.9102 77.3333C69.9036 77.338 69.8971 77.3427 69.8905 77.3472C69.8822 77.3529 69.8738 77.3583 69.8651 77.363L69.8133 77.3901C69.791 77.4018 69.7689 77.4133 69.7488 77.424C69.7355 77.4311 69.7231 77.4378 69.712 77.444C69.6981 77.4518 69.6843 77.4594 69.6706 77.4668C69.6542 77.4757 69.6379 77.4844 69.6216 77.4931L69.5901 77.5099L69.5441 77.5349L69.54 77.537C69.4634 77.5783 69.3867 77.6196 69.3071 77.6579C69.1871 77.7169 69.0651 77.7709 68.9441 77.8229L68.9031 77.841C68.8934 77.8452 68.8838 77.8493 68.8741 77.8533C68.8675 77.8561 68.8609 77.8588 68.8542 77.8615C68.8174 77.8766 68.7804 77.8909 68.7436 77.9051L68.7194 77.9144L68.6741 77.9321L68.5481 77.9789L68.4821 78.0041V92.092L78.519 102.131L74.4191 106.231L68.4821 100.293V109.039H62.6821V100.293L56.744 106.231L52.644 102.131L62.6821 92.092V78.0041L62.4901 77.9321L62.4418 77.9136C62.4174 77.9043 62.3931 77.895 62.3688 77.8856C62.3322 77.8713 62.2957 77.8567 62.259 77.841L62.222 77.8239C62.099 77.7699 61.9761 77.7159 61.8541 77.6559C61.7914 77.6269 61.7312 77.5949 61.6705 77.5627L61.6201 77.5361L61.5701 77.509L61.451 77.446C61.4359 77.438 61.421 77.4303 61.4062 77.4227C61.3695 77.4038 61.3337 77.3853 61.2981 77.364C61.2853 77.3568 61.2732 77.3485 61.261 77.3402C61.2495 77.3324 61.2377 77.3244 61.2251 77.3171C61.0911 77.2391 60.9601 77.156 60.8331 77.07L60.7988 77.046C60.7908 77.0405 60.7823 77.0345 60.7744 77.0289C60.7628 77.0209 60.7511 77.0129 60.7391 77.0051L60.717 76.9899L60.6762 76.9624C60.6222 76.9261 60.569 76.8904 60.5171 76.852C60.3911 76.761 60.2711 76.6659 60.1511 76.5659L60.1061 76.528L60.0851 76.5099L60.0541 76.4841L47.8541 83.53L44.1801 97.2419L38.5801 95.7419L40.754 87.631L33.1801 92.0051L30.28 86.9809L37.853 82.61L29.7421 80.436L31.2421 74.8359L44.9531 78.5099L57.1531 71.4641C57.1479 71.4333 57.1423 71.4025 57.1366 71.3717C57.129 71.3304 57.1214 71.2892 57.1151 71.248C57.0961 71.126 57.081 71.005 57.067 70.883C57.063 70.847 57.0603 70.811 57.0576 70.7751C57.0556 70.7481 57.0536 70.721 57.051 70.694C57.0451 70.6261 57.0406 70.5641 57.0356 70.4967L57.0271 70.383C57.0181 70.266 57.0181 70.147 57.0181 70.029V69.863C57.0181 69.745 57.0211 69.625 57.0271 69.506C57.0303 69.4216 57.0379 69.3409 57.0454 69.2611L57.051 69.1999C57.0523 69.187 57.0534 69.174 57.0544 69.1611C57.0555 69.147 57.0566 69.133 57.0576 69.1189C57.0603 69.0829 57.063 69.0469 57.067 69.0109C57.081 68.8859 57.0971 68.7631 57.1151 68.6401C57.1195 68.6148 57.1241 68.5894 57.1287 68.564L57.1331 68.5401L57.1333 68.5392C57.14 68.5027 57.1469 68.4657 57.1531 68.4289L44.9531 61.384L31.2421 65.059L29.7421 59.4589L37.853 57.287L30.28 52.913L33.1801 47.8911L40.754 52.2651L38.5801 44.153L44.1801 42.653L47.8541 56.3659L60.0541 63.412L60.0831 63.3879L60.1151 63.363L60.1481 63.3349C60.2701 63.2339 60.393 63.1359 60.519 63.0429C60.5578 63.0161 60.596 62.9906 60.6339 62.9653C60.6528 62.9526 60.6717 62.94 60.6905 62.9273C60.7 62.9209 60.7096 62.9144 60.7191 62.9079L60.7501 62.8849L60.8311 62.83C60.9641 62.743 61.0961 62.6591 61.2311 62.5781C61.2355 62.5756 61.2398 62.573 61.2441 62.5703C61.2532 62.5647 61.2621 62.5586 61.2711 62.5525C61.2819 62.5451 61.2928 62.5377 61.3041 62.5309C61.3231 62.5207 61.3398 62.5127 61.3576 62.5041C61.3781 62.4941 61.4002 62.4835 61.4291 62.468L61.4685 62.4465C61.4876 62.4359 61.5063 62.4254 61.525 62.4149C61.5442 62.4043 61.5634 62.3936 61.5831 62.383C61.7031 62.32 61.823 62.2591 61.946 62.2021C62.024 62.1661 62.1111 62.1249 62.1801 62.0949C62.2259 62.075 62.2718 62.0568 62.3176 62.0386L62.348 62.0266L62.3871 62.0109L62.4196 61.9977C62.5039 61.9634 62.5865 61.9298 62.675 61.8979H62.6871V47.8049L52.649 37.768L56.749 33.6679L62.6871 39.6049V30.861H68.4871V61.8979H68.4951C68.5623 61.9217 68.6263 61.9473 68.6918 61.9735C68.7227 61.9859 68.754 61.9984 68.7861 62.0109C68.8541 62.0379 68.916 62.0629 68.994 62.0959C69.072 62.1289 69.15 62.1649 69.2271 62.2009C69.3501 62.2569 69.4701 62.319 69.5901 62.382L69.7461 62.467C69.7647 62.477 69.7838 62.4861 69.8028 62.4953C69.8257 62.5063 69.8488 62.5175 69.8711 62.53C69.881 62.5364 69.8909 62.5433 69.9009 62.5502C69.914 62.5593 69.9274 62.5686 69.941 62.5771C70.077 62.6561 70.2101 62.742 70.3411 62.829L70.4231 62.8859L70.4871 62.9289C70.507 62.9428 70.5271 62.9566 70.5472 62.9703C70.5833 62.9951 70.6193 63.0198 70.6541 63.0449C70.7791 63.1369 70.9 63.231 71.02 63.331L71.0541 63.361L71.066 63.3706C71.0973 63.3958 71.1266 63.4193 71.1541 63.445C71.2111 63.488 71.268 63.5381 71.322 63.5881C71.428 63.6801 71.5281 63.7801 71.6281 63.8801L71.6741 63.9279L71.7391 63.9951C71.7749 64.0355 71.812 64.0735 71.8489 64.1114C71.8759 64.139 71.9029 64.1667 71.9291 64.195C71.9998 64.2735 72.0674 64.3543 72.1353 64.4353L72.165 64.4709C72.1722 64.4793 72.1792 64.4878 72.186 64.4963C72.1959 64.5086 72.2055 64.521 72.215 64.5334C72.2312 64.5543 72.2476 64.5755 72.265 64.5959C72.2957 64.6378 72.3297 64.6804 72.3635 64.7227C72.3991 64.7672 72.4343 64.8114 72.4651 64.8539C72.5182 64.9275 72.5698 65.0025 72.6205 65.0764L72.6211 65.0773L72.64 65.1049C72.684 65.1729 72.7261 65.2389 72.7681 65.3049C72.7842 65.3299 72.8005 65.3548 72.8167 65.3797C72.855 65.4382 72.8933 65.4967 72.9291 65.5571C72.9404 65.5759 72.953 65.5941 72.9656 65.6122C72.9727 65.6224 72.9798 65.6326 72.9867 65.6429C72.9935 65.6531 73 65.6635 73.0061 65.674C73.0186 65.6957 73.0295 65.7182 73.0405 65.7407C73.0498 65.7598 73.059 65.7787 73.0691 65.7971C73.1171 65.8861 73.162 65.9739 73.207 66.0639C73.243 66.1329 73.2791 66.2019 73.3131 66.2729L73.3373 66.3239C73.3714 66.3957 73.4044 66.4653 73.4401 66.5471C73.4657 66.606 73.489 66.6668 73.5121 66.7272C73.5286 66.7704 73.545 66.8132 73.5621 66.8549L73.5788 66.8965C73.5929 66.9314 73.6073 66.9671 73.6201 67.0029C73.6621 67.1169 73.7041 67.23 73.7401 67.343C73.7592 67.4003 73.7753 67.4581 73.7914 67.5163L73.8026 67.5564C73.8073 67.5732 73.8121 67.59 73.817 67.6069L73.8411 67.696L73.8611 67.7629C73.8971 67.8989 73.9311 68.035 73.9611 68.173C73.9714 68.2213 73.9799 68.2705 73.9884 68.32L73.9887 68.3214C73.9924 68.3432 73.9962 68.3651 74.0001 68.3869L74.0231 68.5129L74.0321 68.561C74.0581 68.714 74.08 68.8669 74.098 69.0219C74.0995 69.0381 74.1011 69.0543 74.1028 69.0705C74.1079 69.1207 74.113 69.1713 74.113 69.2219L74.1201 69.3C74.1281 69.3327 74.1281 69.3645 74.1281 69.3992C74.1381 69.5562 74.1471 69.715 74.1471 69.872V69.955C74.1471 69.9775 74.1456 69.9998 74.1441 70.022C74.1426 70.0443 74.1411 70.0666 74.1411 70.0891V70.2751C74.1351 70.4161 74.1271 70.5589 74.1141 70.7009C74.1081 70.7769 74.101 70.8561 74.093 70.9311C74.0864 70.9935 74.077 71.0565 74.0677 71.1192ZM88.995 71.231C90.1871 69.1017 90.8017 66.6978 90.7777 64.2576C90.7538 61.8175 90.0921 59.4258 88.8584 57.3204C87.6248 55.2149 85.8619 53.4687 83.7449 52.2549C81.6279 51.0411 79.2304 50.4019 76.7901 50.4009V56.201C78.2179 56.2033 79.6204 56.5783 80.8588 57.2891C82.0972 57.9999 83.1285 59.0217 83.8507 60.2535C84.5729 61.4852 84.961 62.8843 84.9765 64.3121C84.992 65.7398 84.6344 67.147 83.9391 68.3941L88.995 71.231ZM73.441 36.584V30.784C79.5631 30.7851 85.5751 32.4116 90.8617 35.4991C96.1483 38.5866 100.52 43.0231 103.529 48.3548C106.538 53.6865 108.076 59.7219 107.986 65.8433C107.897 71.9648 106.183 77.9525 103.019 83.1939L98.0571 80.1939C100.688 75.8321 102.114 70.8497 102.188 65.7562C102.261 60.6626 100.981 55.641 98.4767 51.2049C95.9727 46.7688 92.3351 43.0773 87.9363 40.5084C83.5374 37.9394 78.5351 36.5852 73.441 36.584Z" fill="#E84142"/>
</svg>
