<?xml version="1.0" encoding="UTF-8"?>
<svg id="a" xmlns="http://www.w3.org/2000/svg" viewBox="0 0 511.6 511.6">
  <defs>
    <style>
      .b {
        fill: #fff;
        stroke: #000;
        stroke-miterlimit: 10;
      }

      .c {
        fill: #e84142;
        fill-rule: evenodd;
      }
    </style>
  </defs>
  <circle class="b" cx="255.8" cy="255.8" r="235.96"/>
  <path class="c" d="M511.6,255.8c0,141.27-114.53,255.8-255.8,255.8S0,397.07,0,255.8,114.53,0,255.8,0s255.8,114.53,255.8,255.8Zm-228,16.51l-.02,.14c-.03,.36-.1,.73-.17,1.06l-.02,.11,102.92,59.42-11.1,19.24-29-16.75,8.32,31.06-21.44,5.74-14.07-52.5-46.73-26.98-.11,.09-.08,.07-.18,.16c-.46,.38-.92,.74-1.4,1.09-.25,.18-.5,.34-.75,.51h-.02l-.09,.07-.38,.26c-.49,.33-.99,.64-1.5,.94-.03,.02-.06,.04-.1,.07-.03,.02-.05,.04-.08,.05-.03,.02-.06,.04-.1,.06l-.2,.1c-.09,.04-.17,.09-.25,.13-.05,.03-.1,.05-.14,.08-.05,.03-.11,.06-.16,.09-.06,.03-.13,.07-.19,.1l-.12,.06-.18,.1h-.02c-.29,.17-.59,.32-.89,.47-.46,.23-.93,.43-1.39,.63l-.16,.07s-.07,.03-.11,.05c-.03,.01-.05,.02-.08,.03-.14,.06-.28,.11-.42,.17l-.09,.04-.17,.07-.48,.18-.25,.1v53.94l38.43,38.44-15.7,15.7-22.73-22.74v33.49h-22.21v-33.49l-22.74,22.74-15.7-15.7,38.44-38.44v-53.94l-.74-.28-.18-.07c-.09-.04-.19-.07-.28-.11-.14-.05-.28-.11-.42-.17l-.14-.07c-.47-.21-.94-.41-1.41-.64-.24-.11-.47-.23-.7-.36l-.19-.1-.19-.1-.46-.24c-.06-.03-.11-.06-.17-.09-.14-.07-.28-.14-.41-.22-.05-.03-.1-.06-.14-.09s-.09-.06-.14-.09c-.51-.3-1.01-.62-1.5-.95l-.13-.09s-.06-.04-.09-.07c-.04-.03-.09-.06-.14-.09l-.08-.06-.16-.11c-.21-.14-.41-.28-.61-.42-.48-.35-.94-.71-1.4-1.1l-.17-.15-.08-.07-.12-.1-46.71,26.98-14.07,52.5-21.44-5.74,8.32-31.06-29,16.75-11.1-19.24,29-16.74-31.06-8.32,5.74-21.44,52.5,14.07,46.71-26.98c-.02-.12-.04-.24-.06-.35-.03-.16-.06-.32-.08-.47-.07-.47-.13-.93-.18-1.4-.02-.14-.03-.28-.04-.41,0-.1-.02-.21-.03-.31-.02-.26-.04-.5-.06-.76l-.03-.44c-.03-.45-.03-.9-.03-1.36v-.64c0-.45,0-.91,.03-1.37,0-.32,.04-.63,.07-.94l.02-.23s0-.1,0-.15c0-.05,0-.11,0-.16,0-.14,.02-.28,.04-.41,.05-.48,.12-.95,.18-1.42,.02-.1,.03-.19,.05-.29l.02-.09h0c.03-.14,.05-.28,.08-.43l-46.71-26.97-52.5,14.07-5.74-21.44,31.06-8.32-29-16.75,11.1-19.23,29,16.75-8.32-31.06,21.44-5.74,14.07,52.51,46.71,26.98,.11-.09,.12-.1,.13-.11c.47-.39,.94-.76,1.42-1.12,.15-.1,.29-.2,.44-.3,.07-.05,.14-.1,.22-.15,.04-.02,.07-.05,.11-.07l.12-.09,.31-.21c.51-.33,1.01-.65,1.53-.96,.02,0,.03-.02,.05-.03,.03-.02,.07-.04,.1-.07,.04-.03,.08-.06,.13-.08,.07-.04,.14-.07,.2-.1,.08-.04,.16-.08,.27-.14l.15-.08c.07-.04,.14-.08,.22-.12,.07-.04,.15-.08,.22-.12,.46-.24,.92-.47,1.39-.69,.3-.14,.63-.3,.9-.41,.18-.08,.35-.15,.53-.22l.12-.05,.15-.06,.12-.05c.32-.13,.64-.26,.98-.38h.05v-53.96l-38.44-38.43,15.7-15.7,22.74,22.73v-33.48h22.21v118.84h.03c.26,.09,.5,.19,.75,.29,.12,.05,.24,.1,.36,.14,.26,.1,.5,.2,.8,.33s.6,.26,.89,.4c.47,.21,.93,.45,1.39,.69l.6,.33c.07,.04,.14,.07,.22,.11,.09,.04,.18,.09,.26,.13,.04,.02,.08,.05,.11,.08,.05,.03,.1,.07,.15,.1,.52,.3,1.03,.63,1.53,.96l.31,.22,.25,.16c.08,.05,.15,.11,.23,.16,.14,.09,.28,.19,.41,.29,.48,.35,.94,.71,1.4,1.1l.13,.11,.05,.04c.12,.1,.23,.19,.34,.28,.22,.16,.44,.36,.64,.55,.41,.35,.79,.74,1.17,1.12l.18,.18,.25,.26,.42,.45c.1,.11,.21,.21,.31,.32,.27,.3,.53,.61,.79,.92l.11,.14s.05,.06,.08,.1c.04,.05,.07,.09,.11,.14,.06,.08,.12,.16,.19,.24,.12,.16,.25,.32,.38,.49,.14,.17,.27,.34,.39,.5,.2,.28,.4,.57,.59,.85h0l.07,.11c.17,.26,.33,.51,.49,.77,.06,.1,.12,.19,.19,.29,.15,.22,.29,.45,.43,.68,.04,.07,.09,.14,.14,.21,.03,.04,.05,.08,.08,.12s.05,.08,.07,.12c.05,.08,.09,.17,.13,.26,.04,.07,.07,.15,.11,.22,.18,.34,.36,.68,.53,1.02,.14,.26,.28,.53,.41,.8l.09,.2c.13,.27,.26,.54,.39,.85,.1,.23,.19,.46,.28,.69,.06,.17,.13,.33,.19,.49l.06,.16c.05,.13,.11,.27,.16,.41,.16,.44,.32,.87,.46,1.3,.07,.22,.13,.44,.2,.66l.04,.15c.02,.06,.04,.13,.06,.19l.09,.34,.08,.26c.14,.52,.27,1.04,.38,1.57,.04,.18,.07,.37,.1,.56h0c.01,.09,.03,.17,.04,.26l.09,.48,.03,.18c.1,.59,.18,1.17,.25,1.76,0,.06,.01,.12,.02,.19,.02,.19,.04,.39,.04,.58l.03,.3c.03,.13,.03,.25,.03,.38,.04,.6,.07,1.21,.07,1.81v.32c0,.09,0,.17-.01,.26,0,.09-.01,.17-.01,.26v.71c-.02,.54-.05,1.09-.1,1.63-.02,.29-.05,.59-.08,.88-.03,.24-.06,.48-.1,.72v-.02Zm57.17,.43c4.56-8.15,6.92-17.36,6.83-26.7-.09-9.34-2.63-18.5-7.35-26.56s-11.47-14.75-19.58-19.4-17.29-7.09-26.63-7.1v22.21c5.47,0,10.84,1.44,15.58,4.17,4.74,2.72,8.69,6.63,11.46,11.35s4.25,10.07,4.31,15.54-1.31,10.85-3.97,15.63l19.36,10.86h0Zm-59.56-132.66v-22.21c23.44,0,46.46,6.23,66.7,18.05s36.98,28.81,48.5,49.22,17.41,43.52,17.07,66.96c-.34,23.44-6.9,46.37-19.02,66.43l-19-11.49c10.07-16.7,15.53-35.78,15.82-55.28,.28-19.5-4.62-38.73-14.21-55.72s-23.52-31.12-40.36-40.96-36-15.02-55.5-15.03v.03Z"/>
</svg>