<svg width="120" height="120" fill="none" xmlns="http://www.w3.org/2000/svg"><g opacity=".7" clip-path="url(#a)"><mask id="b" style="mask-type:luminance" maskUnits="userSpaceOnUse" x="0" y="0" width="120" height="120"><path d="M120 0H0v120h120V0Z" fill="#fff"/></mask><g mask="url(#b)" fill-rule="evenodd" clip-rule="evenodd"><path d="M40.36 73.256a30.004 30.004 0 0 0 10.346 1.826c16.282 0 29.482-12.912 29.482-28.84 0-.384-.008-.766-.023-1.145h28.726v39.57H40.36v-11.41Z" fill="#4C525F"/><path d="M35.36 70.595a1.2 1.2 0 0 0-2.4 0v18.02c0 2.595 2.107 4.732 4.766 4.732h29.229v7.213h-9.598a2 2 0 1 0 0 4h35.848a2 2 0 1 0 0-4H82.553v-7.213h30.282c2.59 0 4.765-2.07 4.765-4.731V42.57c0-2.594-2.107-4.731-4.765-4.731H79.869v2.4h32.966a2.343 2.343 0 0 1 2.365 2.33v46.047c0 1.293-1.058 2.33-2.365 2.33h-75.11a2.343 2.343 0 0 1-2.365-2.33v-18.02Zm43.193 22.752h-7.598v7.213h7.598v-7.213Zm29.468-47.06H79.907v-2h29.114a1 1 0 0 1 1 1v39.57a1 1 0 0 1-1 1H40.487a1 1 0 0 1-1-1V73.051h2v10.806h66.534v-37.57Z" fill="#A4B0C6"/><path d="M85.178 52.154a1 1 0 0 0 0 2h16.115a1 1 0 0 0 0-2H85.178Zm5.036 6.043a1 1 0 0 0 0 2h11.079a1 1 0 0 0 0-2H90.214Zm-13.589 1a1 1 0 0 1 1-1h7.553a1 1 0 0 1 0 2h-7.553a1 1 0 0 1-1-1Zm17.618 5.042a1 1 0 0 0 0 2h7.05a1 1 0 0 0 0-2h-7.05Zm-22.15 1a1 1 0 0 1 1-1h15.61a1 1 0 0 1 0 2h-15.61a1 1 0 0 1-1-1Zm13.085 5.043a1 1 0 0 0 0 2h16.115a1 1 0 0 0 0-2H85.178Zm-15.1 1a1 1 0 0 1 1-1h8.561a1 1 0 0 1 0 2h-8.56a1 1 0 0 1-1-1Zm8.554 5.043a1 1 0 0 0 0 2h22.661a1 1 0 0 0 0-2H78.632Zm-19.632 1a1 1 0 0 1 1-1h13.093a1 1 0 0 1 0 2H60a1 1 0 0 1-1-1Zm-12.597-1a1 1 0 0 0 0 2h8.058a1 1 0 1 0 0-2h-8.058Z" fill="#A4B0C6"/><path d="M19.546 46.241c0-17.074 14.137-30.841 31.482-30.841S82.51 29.167 82.51 46.241 68.373 77.082 51.028 77.082c-6.27 0-12.12-1.798-17.034-4.901l-4.17 4.169-17.208 17.208a5 5 0 0 1-7.07 0L4.306 92.32a5 5 0 0 1 0-7.07l21.092-21.092c-3.683-5.045-5.853-11.227-5.853-17.917Zm8.426 21a31.41 31.41 0 0 0 2.742 2.562L9.788 90.73a1 1 0 0 1-1.415 0l-1.238-1.238a1 1 0 0 1 0-1.415L24.345 70.87l3.628-3.628ZM24.764 38.32a26.247 26.247 0 0 0-1.218 7.921c0 2.033.232 4.014.672 5.92h32.878a4.4 4.4 0 0 1 4.4 4.4v6.278a4.4 4.4 0 0 1-4.4 4.4H33.907c4.691 3.655 10.638 5.843 17.121 5.843 7.24 0 13.81-2.728 18.71-7.18a4.25 4.25 0 0 1-1.163-2.928V56.56a4.4 4.4 0 0 1 4.4-4.4h4.863c.44-1.906.672-3.887.672-5.92 0-14.783-12.263-26.841-27.482-26.841-9.439 0-17.74 4.638-22.685 11.687.266-.05.54-.076.82-.076h41.53a4.4 4.4 0 0 1 4.4 4.4v6.278a4.4 4.4 0 0 1-4.4 4.4h-41.53a4.4 4.4 0 0 1-4.4-4.4v-3.37ZM76.57 56.16h-3.595a.4.4 0 0 0-.4.4v6.342c1.647-2.03 3-4.298 3.995-6.741Zm-19.474 0h-31.61a26.72 26.72 0 0 0 4.273 7.08h27.337a.4.4 0 0 0 .4-.4v-6.28a.4.4 0 0 0-.4-.4ZM28.764 35.41c0-.22.179-.4.4-.4h41.529c.22 0 .4.18.4.4v6.28a.4.4 0 0 1-.4.4h-41.53a.4.4 0 0 1-.4-.4v-6.28Z" fill="#A4B0C6"/></g></g><defs><clipPath id="a"><path fill="#fff" d="M0 0h120v120H0z"/></clipPath></defs></svg>