<svg xmlns="http://www.w3.org/2000/svg" id="vm-secondary-on-" width="38" height="38" y="2656" style="fill:#fafafa" viewBox="-1 -1 38 38"><defs><style>.csvmw-color-gray{fill:#798893}</style></defs><path id="csLayer_1" d="M0 0h36v36H0z" data-name="Layer 1" style="fill:none"/><g id="csLayer_2" data-name="Layer 2"><path d="M24 17.83V18h2v-1.28l-2 1.11zM16 10h3v2h-3z" class="csvmw-color-gray"/><path d="M30 14.5v11.41a.09.09 0 0 1-.09.09h-7.82a.09.09 0 0 1-.09-.09v-7.52a3.14 3.14 0 0 1-1.45-.39 4.75 4.75 0 0 1-.55-.43v8.36a.09.09 0 0 1-.09.09h-3.82a.09.09 0 0 1-.09-.09V20h-2v5.91A2.08 2.08 0 0 0 16.07 28h3.84a.09.09 0 0 1 .09.09v1.82a.09.09 0 0 1-.09.09H6.09a.09.09 0 0 1-.09-.09v-13.8a.11.11 0 0 1 .11-.11h13a3 3 0 0 1-.1-.74V14H6.09A2.08 2.08 0 0 0 4 16v13.91A2.08 2.08 0 0 0 6.07 32h13.84A2.08 2.08 0 0 0 22 29.93v-1.84a.09.09 0 0 1 .09-.09h7.82A2.08 2.08 0 0 0 32 25.93V13.39zM19 4H9.87A1.87 1.87 0 0 0 8 5.87V12h2V6h9z" class="csvmw-color-gray"/><path d="m35.41 7.2-12.7-7a1.15 1.15 0 0 0-1.71 1v14.06a1.15 1.15 0 0 0 1.71 1l12.7-7.06a1.15 1.15 0 0 0 0-2z" style="fill:#60a644"/></g></svg>