<svg id="e5449b4d-4c3e-45ed-9bc4-a969a16851b4" xmlns="http://www.w3.org/2000/svg" width="18" height="18" viewBox="0 0 18 18"><g><path d="M10.312,3.991A3.522,3.522,0,0,1,6.821,7.544h0A3.522,3.522,0,0,1,3.268,4.053h0A3.522,3.522,0,0,1,6.759.5H6.79a3.506,3.506,0,0,1,3.522,3.49h0" fill="#59b4d9" /><path d="M17.389,16.353,15.6,13.342l-1.787-3.1a.628.628,0,0,0-1.129,0L10.9,13.154l-1.787,3.2a.66.66,0,0,0,.564,1.035h7.15a.659.659,0,0,0,.564-1.035Zm-4.045-4.234h.471l-.189,2.728h-.752l-.094-2.728Zm-.094,4.139a.565.565,0,1,1,.565-.564A.564.564,0,0,1,13.25,16.258Z" fill="#ff8c00" /><path d="M8.468,17.411a1.368,1.368,0,0,1-.176-.705A1.472,1.472,0,0,1,8.5,16l1.783-3.19.007-.013.007-.012L12.08,9.87a1.394,1.394,0,0,1,1-.681V8.68H9.365L6.79,12.257,4.215,8.68H.5V17.5H8.526C8.506,17.471,8.486,17.442,8.468,17.411Z" fill="#59b4d9" /></g></svg>