<svg xmlns="http://www.w3.org/2000/svg" width="16" height="16">
  <path fill="#FFFFFF" fill-rule="evenodd" d="M13.999 2.684V4.06s-.74 2.646-3.183 4.955V11.2c0 .127-.049.25-.135.342l-.116.123a125.522 125.522 0 0 1-1.296 1.36c-.374.385-.771.788-1.118 1.126-.337.328-.654.622-.856.768a.5.5 0 0 1-.792-.407V11.65c-.5.35-1.23.837-1.858 1.15l-.005.003c-.534.266-.992.407-1.168.23-.175-.178-.048-.637.2-1.17l.002-.006c.28-.601.712-1.297 1.038-1.793h-3.09a.5.5 0 0 1-.405-.792c.145-.203.44-.52.768-.856.337-.347.74-.744 1.126-1.118a120.776 120.776 0 0 1 1.36-1.296l.123-.116a.5.5 0 0 1 .342-.135h1.978a4 4 0 0 1 .183-.219c2.293-2.552 4.844-3.547 4.844-3.547h1.358a.7.7 0 0 1 .7.7zM6.385 9.677a16.506 16.506 0 0 1 .464-1.243c.33-.785.75-1.59 1.178-2.067a13.738 13.738 0 0 1 3.006-2.501 11.758 11.758 0 0 1 1.167-.632h.549v.63a10.05 10.05 0 0 1-.57 1.298 11.255 11.255 0 0 1-2.39 3.099c-.52.471-1.282.918-1.972 1.264a16.128 16.128 0 0 1-1.09.496l-.244.094-.597.44.41-.588.089-.29zM6.269 6.75c-.476.872-.827 1.819-.997 2.312H2.75c.318-.325.693-.694 1.057-1.047A120.012 120.012 0 0 1 5.133 6.75H6.27zm1.234 6.636V11.05c.525-.228 1.47-.67 2.313-1.237v1.188a121.513 121.513 0 0 1-1.265 1.326c-.353.364-.723.74-1.048 1.058z" clip-rule="evenodd"/>
</svg>
