<svg xmlns="http://www.w3.org/2000/svg" width="16" height="16">
  <path fill="#FFFFFF" fill-rule="evenodd" d="M3.5 4.25h9a.25.25 0 0 1 .25.25V6a.25.25 0 0 1-.25.25h-9A.25.25 0 0 1 3.25 6V4.5a.25.25 0 0 1 .25-.25zM2 4.5A1.5 1.5 0 0 1 3.5 3h9A1.5 1.5 0 0 1 14 4.5V6a1.5 1.5 0 0 1-1.5 1.5h-9A1.5 1.5 0 0 1 2 6V4.5zm1.5 5.25h9a.25.25 0 0 1 .25.25v1.5a.25.25 0 0 1-.25.25h-9a.25.25 0 0 1-.25-.25V10a.25.25 0 0 1 .25-.25zM2 10a1.5 1.5 0 0 1 1.5-1.5h9A1.5 1.5 0 0 1 14 10v1.5a1.5 1.5 0 0 1-1.5 1.5h-9A1.5 1.5 0 0 1 2 11.5V10z" clip-rule="evenodd"/>
</svg>
