<svg xmlns="http://www.w3.org/2000/svg" width="16" height="16">
  <path fill="#FFFFFF" fill-rule="evenodd" d="M2.135 3.947a.65.65 0 0 0 .819-.18.65.65 0 0 0 .592 0l.971-.497a5.1 5.1 0 0 1 .592.877A5.999 5.999 0 0 0 2 9.405c0 3.314 2.686 5.438 6 5.438s6-2.124 6-5.438a5.998 5.998 0 0 0-3.1-5.253c.14-.253.286-.485.437-.686l1.404.295c.105.022.21.018.307-.01a.65.65 0 0 0 1.102-.682c-.444-.846-1.01-1.446-1.75-1.552-.743-.107-1.357.327-1.787.79-.34.365-.648.834-.918 1.341A6.002 6.002 0 0 0 8 3.405c-.585 0-1.15.084-1.684.24-.342-.643-.769-1.268-1.273-1.673-.445-.357-1.038-.606-1.695-.394-.613.198-1.094.744-1.486 1.491a.65.65 0 0 0 .273.878zm6.68 1.878c.1-.338.225-.703.372-1.072a4.81 4.81 0 0 0-2.363-.003c.146.366.272.73.374 1.075a.65.65 0 1 1-1.246.37 11.376 11.376 0 0 0-.333-.958A4.798 4.798 0 0 0 3.2 9.405c0 2.5 1.987 4.238 4.8 4.238 2.813 0 4.8-1.738 4.8-4.238 0-1.78-.97-3.334-2.409-4.162-.126.318-.238.64-.33.952a.65.65 0 0 1-1.247-.37zm1.116 5.137c.611 0 1.107-.546 1.107-1.22 0-.672-.496-1.218-1.107-1.218-.61 0-1.106.546-1.106 1.219s.495 1.219 1.106 1.219zm-3.862 0c.61 0 1.106-.546 1.106-1.22 0-.672-.495-1.218-1.106-1.218-.611 0-1.106.546-1.106 1.219s.495 1.219 1.106 1.219zM8 13.032c.544 0 .984-.232.984-.516 0-.285-.44-.516-.984-.516s-.984.23-.984.516c0 .284.44.515.984.515z" clip-rule="evenodd"/>
</svg>
