<svg xmlns="http://www.w3.org/2000/svg" xmlns:xlink="http://www.w3.org/1999/xlink" width="1em" height="1em" preserveAspectRatio="xMidYMid meet" viewBox="0 0 32 32" style="-ms-transform: rotate(360deg); -webkit-transform: rotate(360deg); transform: rotate(360deg);"><g fill="currentColor"><path d="M13.006 9.163c0-.76.616-1.375 1.375-1.375h3.305c4.551 0 8.278 3.637 8.278 8.17c0 4.531-3.727 8.169-8.278 8.169H14.38c-.76 0-1.375-.616-1.375-1.375V9.162Zm2.75 12.089c0 .069.056.125.125.125h1.805c3.074 0 5.528-2.447 5.528-5.42s-2.454-5.42-5.528-5.42H15.88a.125.125 0 0 0-.125.126v10.589ZM9.385 7.89a1.374 1.374 0 0 1 1.377 1.373l.014 13.385a1.375 1.375 0 0 1-2.75.003L8.012 9.266a1.375 1.375 0 0 1 1.373-1.377Z"/><path d="M6 1a5 5 0 0 0-5 5v20a5 5 0 0 0 5 5h20a5 5 0 0 0 5-5V6a5 5 0 0 0-5-5H6ZM3 6a3 3 0 0 1 3-3h20a3 3 0 0 1 3 3v20a3 3 0 0 1-3 3H6a3 3 0 0 1-3-3V6Z"/></g></svg>