<svg xmlns="http://www.w3.org/2000/svg" xmlns:xlink="http://www.w3.org/1999/xlink" width="1em" height="1em" preserveAspectRatio="xMidYMid meet" viewBox="0 0 32 32" style="-ms-transform: rotate(360deg); -webkit-transform: rotate(360deg); transform: rotate(360deg);"><path fill="currentColor" d="M27.573 4.229a9.733 9.733 0 0 0-13.068-2.802L7.041 6.172a8.483 8.483 0 0 0-3.854 5.734a8.886 8.886 0 0 0 .891 5.776a8.246 8.246 0 0 0-1.266 3.198a9.128 9.128 0 0 0 1.547 6.88a9.78 9.78 0 0 0 13.068 2.828l7.469-4.75a8.503 8.503 0 0 0 3.839-5.734a8.859 8.859 0 0 0-.896-5.755a9.043 9.043 0 0 0-.266-10.12zM13.76 28.172a5.91 5.91 0 0 1-6.349-2.359c-.865-1.198-1.182-2.677-.932-4.146l.146-.708l.135-.438l.401.266a9.317 9.317 0 0 0 2.917 1.469l.271.094l-.031.266c-.026.37.083.786.297 1.104c.438.63 1.198.932 1.932.734c.161-.052.318-.104.453-.188l7.438-4.745c.375-.24.615-.599.708-1.026a1.708 1.708 0 0 0-.266-1.255a1.82 1.82 0 0 0-1.932-.708c-.161.057-.333.12-.469.203l-2.813 1.786a5.902 5.902 0 0 1-7.865-1.708a5.463 5.463 0 0 1-.938-4.146a5.162 5.162 0 0 1 2.365-3.469l7.422-4.745a6.142 6.142 0 0 1 1.521-.667a5.924 5.924 0 0 1 6.349 2.349a5.504 5.504 0 0 1 .76 4.849l-.135.443l-.385-.266a9.88 9.88 0 0 0-2.932-1.469l-.266-.078l.026-.266a1.832 1.832 0 0 0-.297-1.12a1.785 1.785 0 0 0-1.932-.708a2.036 2.036 0 0 0-.453.188l-7.453 4.786c-.375.25-.615.599-.693 1.036c-.078.427.026.896.266 1.24c.427.63 1.203.896 1.922.708a1.86 1.86 0 0 0 .464-.188l2.844-1.813a5.291 5.291 0 0 1 1.516-.677a5.893 5.893 0 0 1 6.349 2.359a5.496 5.496 0 0 1 .958 4.13a5.124 5.124 0 0 1-2.333 3.469l-7.438 4.734a6.457 6.457 0 0 1-1.547.677z"/></svg>