<svg xmlns="http://www.w3.org/2000/svg" xmlns:xlink="http://www.w3.org/1999/xlink" width="1em" height="1em" preserveAspectRatio="xMidYMid meet" viewBox="0 0 36 36" style="-ms-transform: rotate(360deg); -webkit-transform: rotate(360deg); transform: rotate(360deg);"><path fill="currentColor" d="M29.81 16H29v-.6h-2V18h2.81A3.13 3.13 0 0 1 33 20.69a3 3 0 0 1-.78 2.31A3 3 0 0 1 30 24h-3v7.83H4V25h1a5 5 0 0 0 5-5.51A5.15 5.15 0 0 0 4.81 15H4V8.83h9V7a3 3 0 0 1 1-2.22A3 3 0 0 1 16.31 4A3.13 3.13 0 0 1 19 7.19v1.64h.66L21 6.59A5.12 5.12 0 0 0 16.51 2A5 5 0 0 0 11 6.83H4a2 2 0 0 0-2 2V17h2.81A3.13 3.13 0 0 1 8 19.69A3 3 0 0 1 7.22 22A3 3 0 0 1 5 23H2v8.83a2 2 0 0 0 2 2h23a2 2 0 0 0 2-2V26h1a5 5 0 0 0 5-5.51A5.15 5.15 0 0 0 29.81 16Z" class="clr-i-outline--alerted clr-i-outline-path-1--alerted"/><path fill="currentColor" d="M26.85 1.14L21.13 11a1.28 1.28 0 0 0 1.1 2h11.45a1.28 1.28 0 0 0 1.1-2l-5.72-9.86a1.28 1.28 0 0 0-2.21 0Z" class="clr-i-outline--alerted clr-i-outline-path-2--alerted clr-i-alert"/><path fill="none" d="M0 0h36v36H0z"/></svg>