<?xml version="1.0" encoding="utf-8"?><!-- Uploaded to: SVG Repo, www.svgrepo.com, Generator: SVG Repo Mixer Tools -->
<svg fill="#000000" width="800px" height="800px" viewBox="0 0 24 24" xmlns="http://www.w3.org/2000/svg"><path d="M2,21H22a1,1,0,0,0,1-1V4a1,1,0,0,0-1-1H2A1,1,0,0,0,1,4V20A1,1,0,0,0,2,21Zm19-7H19V10h2ZM13,5h8V8H18a1,1,0,0,0-1,1v6a1,1,0,0,0,1,1h3v3H13V15.858a3.981,3.981,0,0,0,0-7.716Zm1,7a2,2,0,1,1-2-2A2,2,0,0,1,14,12ZM3,10H5v4H3Zm0,6H6a1,1,0,0,0,1-1V9A1,1,0,0,0,6,8H3V5h8V8.142a3.981,3.981,0,0,0,0,7.716V19H3Z"/></svg>