<svg width="20" height="20" viewBox="0 0 20 20" fill="none" xmlns="http://www.w3.org/2000/svg">
<path d="M10 20C15.5228 20 20 15.5228 20 10C20 4.47715 15.5228 0 10 0C4.47715 0 0 4.47715 0 10C0 15.5228 4.47715 20 10 20Z" fill="#E84142"/>
<path d="M13.5275 10.2598C13.8739 9.66142 14.433 9.66142 14.7794 10.2598L16.9369 14.0472C17.2834 14.6457 16.9999 15.1339 16.307 15.1339H11.9605C11.2755 15.1339 10.992 14.6457 11.3306 14.0472L13.5275 10.2598ZM9.35425 2.9685C9.7007 2.37008 10.2519 2.37008 10.5983 2.9685L11.0787 3.83464L12.2125 5.82677C12.4881 6.3937 12.4881 7.06299 12.2125 7.62992L8.40936 14.2205C8.06291 14.7559 7.4881 15.0945 6.85031 15.1339H3.69283C2.99991 15.1339 2.71645 14.6535 3.0629 14.0472L9.35425 2.9685Z" fill="white"/>
</svg>
