<svg width="20" height="20" viewBox="0 0 20 20" fill="none" xmlns="http://www.w3.org/2000/svg">
<path d="M10 20C15.5228 20 20 15.5228 20 10C20 4.47715 15.5228 0 10 0C4.47715 0 0 4.47715 0 10C0 15.5228 4.47715 20 10 20Z" fill="#1A69FF"/>
<path fill-rule="evenodd" clip-rule="evenodd" d="M10.7529 2.42546C10.5317 2.30861 10.2712 2.26233 10.0353 2.26233C9.79938 2.26233 9.53889 2.30861 9.31772 2.42546L5.57715 4.40168C5.39586 4.49746 5.19543 4.67169 5.14157 4.92977C5.11492 4.98716 5.10004 5.05113 5.10004 5.11858V14.8779C5.10004 14.9117 5.10378 14.9447 5.11088 14.9764C5.0911 15.1526 5.17758 15.3314 5.34313 15.4211L9.31335 17.5724L9.31752 17.5746C9.53869 17.6915 9.79917 17.7377 10.0351 17.7377C10.271 17.7377 10.5316 17.6916 10.7528 17.5747L14.7326 15.3555C14.88 15.2734 14.963 15.1204 14.9628 14.9628C14.9681 14.9353 14.9709 14.9069 14.9709 14.8779V5.11858C14.9709 5.05071 14.9558 4.98637 14.9288 4.9287C14.8746 4.6712 14.6745 4.49733 14.4935 4.40168L10.7529 2.42546ZM9.73694 3.21896C9.79632 3.18759 9.90355 3.15976 10.0353 3.15976C10.1671 3.15976 10.2743 3.18759 10.3337 3.21896L13.8313 5.06681L10.3337 6.91466C10.2743 6.94603 10.1671 6.97386 10.0353 6.97386C9.90355 6.97386 9.79632 6.94603 9.73694 6.91466L6.23935 5.06681L9.73694 3.21896ZM14.0734 10.7762V14.6956L10.3301 16.7829C10.27 16.8135 10.1644 16.8403 10.0351 16.8403C9.9045 16.8403 9.798 16.813 9.73832 16.7819L5.99747 14.755V10.7764L9.31772 12.5305C9.53889 12.6474 9.79938 12.6937 10.0353 12.6937C10.2712 12.6937 10.5317 12.6474 10.7529 12.5305L14.0734 10.7762ZM11.1885 7.478L14.0734 5.95386V9.00215L11.1885 7.478ZM5.99747 9.002L8.88209 7.478L5.99747 5.954V9.002ZM9.58661 8.12077L6.23935 9.8892L9.58661 11.6576V8.12077ZM10.484 11.6576L13.8313 9.8892L10.484 8.12079V11.6576Z" fill="white"/>
<path d="M15.1709 2.97284C14.9589 2.84449 14.683 2.91229 14.5546 3.12428C14.4263 3.33627 14.4941 3.61217 14.7061 3.74052L14.7598 3.77304C15.1241 3.99342 15.2919 4.09495 15.4039 4.24032C15.4977 4.36202 15.5822 4.56321 15.5822 5.075C15.5822 5.32282 15.7831 5.52372 16.0309 5.52372C16.2787 5.52372 16.4796 5.32282 16.4796 5.075C16.4796 4.4782 16.3841 4.04195 16.1147 3.69249C15.894 3.40609 15.575 3.21503 15.2727 3.03403L15.2715 3.03333C15.2379 3.01322 15.2039 2.99282 15.1709 2.97284Z" fill="white"/>
<path d="M5.4455 16.7095C5.31715 16.9215 5.04124 16.9893 4.82925 16.8609C4.79578 16.8406 4.76193 16.8204 4.72786 16.8C4.42559 16.619 4.10612 16.4277 3.88538 16.1412C3.61606 15.7918 3.52051 15.3555 3.52051 14.7587C3.52051 14.5109 3.72141 14.31 3.96922 14.31C4.21704 14.31 4.41794 14.5109 4.41794 14.7587C4.41794 15.2705 4.50241 15.4717 4.5962 15.5934C4.70824 15.7388 4.87606 15.8403 5.24032 16.0607L5.29406 16.0932C5.50605 16.2216 5.57385 16.4975 5.4455 16.7095Z" fill="white"/>
</svg>
