<svg width="16" height="16" viewBox="0 0 16 16" fill="none" xmlns="http://www.w3.org/2000/svg">
<path fill-rule="evenodd" clip-rule="evenodd" d="M5 1C2.79086 1 1 2.79086 1 5V11C1 13.2091 2.79086 15 5 15H11C13.2091 15 15 13.2091 15 11V5C15 2.79086 13.2091 1 11 1H5ZM6.75 5.2C6.75 4.8134 6.41421 4.5 6 4.5C5.58579 4.5 5.25 4.8134 5.25 5.2V10.8C5.25 11.1866 5.58579 11.5 6 11.5C6.41421 11.5 6.75 11.1866 6.75 10.8V5.2ZM10.75 5.2C10.75 4.8134 10.4142 4.5 10 4.5C9.58579 4.5 9.25 4.8134 9.25 5.2V10.8C9.25 11.1866 9.58579 11.5 10 11.5C10.4142 11.5 10.75 11.1866 10.75 10.8V5.2Z" fill="white"/>
</svg>
