<svg width="16" height="16" viewBox="0 0 16 16" fill="none" xmlns="http://www.w3.org/2000/svg">
<path d="M8 15C11.866 15 15 11.866 15 8C15 4.13403 11.866 1 8 1C4.134 1 1 4.13403 1 8C1 11.866 4.134 15 8 15ZM9.0126 10.5078V8.98224H6.9874V10.5079C6.9874 10.9291 6.4767 11.1549 6.14897 10.8786L3.17419 8.37073C2.94194 8.17493 2.94194 7.82513 3.17419 7.62933L6.14897 5.12146C6.4767 4.84515 6.9874 5.07098 6.9874 5.49219V7.01764H9.0126V5.49213C9.0126 5.07092 9.5233 4.84509 9.85103 5.1214L12.8258 7.62927C13.0581 7.82507 13.0581 8.17487 12.8258 8.37067L9.85103 10.8785C9.5233 11.1548 9.0126 10.929 9.0126 10.5078Z" fill="white"/>
</svg>
