<svg width="16" height="16" viewBox="0 0 16 16" fill="#8A8F98" class="sc-exqIPC bLrUyz"><path fill-rule="evenodd" clip-rule="evenodd" d="M1.97946 10.6156C2.05606 10.6562 2.14412 10.6741 2.23289 10.6653L2.41955 10.6469C2.66303 10.6229 2.84066 10.4085 2.81632 10.1681L2.78925 9.90076C2.77789 9.7884 2.72295 9.68468 2.63593 9.61141L2.62022 9.59822C2.32323 9.34807 2.47523 8.86832 2.86364 8.82998L2.92143 8.82426C3.04149 8.81246 3.16122 8.84942 3.253 8.92675L3.97342 9.53349C4.0248 9.57675 4.06549 9.63107 4.09237 9.69227L5.04272 11.8554C5.11938 12.0299 5.3015 12.1355 5.49322 12.1166L5.58391 12.1076C5.82736 12.0836 6.00502 11.8692 5.98068 11.6288L5.95894 11.414C5.9445 11.2714 6.00172 11.1308 6.11213 11.0378L7.02148 10.2711C7.09019 10.2132 7.17518 10.1775 7.26506 10.1685L7.5395 10.1415C7.78295 10.1174 8.00006 10.2929 8.0244 10.5333L8.15284 11.802C8.15484 11.8218 8.15819 11.8414 8.1629 11.8608C8.16633 11.8748 8.17047 11.8887 8.17528 11.9024L8.64755 13.2412C8.71494 13.4322 8.90614 13.5527 9.11 13.5326L9.17493 13.5262C9.41837 13.5022 9.59603 13.2878 9.57169 13.0473L9.53692 12.704C9.53251 12.6606 9.52159 12.6181 9.50455 12.5781C9.49601 12.558 9.48595 12.5386 9.47443 12.5199L9.37768 12.363C9.20797 12.0879 9.38736 11.7322 9.71196 11.7001L9.85051 11.6864C10.094 11.6624 10.2716 11.448 10.2473 11.2076L10.2202 10.9403C10.2089 10.8279 10.1539 10.7242 10.0669 10.6509L9.71025 10.3505C9.48538 10.1611 9.50777 9.81158 9.755 9.65168L10.5194 9.1573C10.7194 9.02801 10.7794 8.7653 10.655 8.5637L10.1053 7.67262C9.96765 7.44949 10.0574 7.15784 10.2974 7.04799L10.7966 6.81963C10.9678 6.74128 11.07 6.56451 11.0513 6.37914L10.9316 5.19737C10.9152 5.03507 10.8087 4.89526 10.6553 4.83469L10.2567 4.6772C10.1033 4.61658 9.99683 4.47682 9.98039 4.31452L9.88177 3.34051C9.85443 3.07027 9.58703 2.88971 9.32211 2.96255L7.45816 3.47498C7.36457 3.50072 7.26501 3.49538 7.1748 3.45971L6.59353 3.23012C6.48029 3.18536 6.35339 3.18873 6.24273 3.23936L5.18057 3.7253L3.66813 4.27789C3.5988 4.30325 3.53744 4.34512 3.4892 4.39928L2.90356 3.86533C1.98688 4.99386 1.4375 6.43277 1.4375 8C1.4375 8.92969 1.63082 9.81422 1.97946 10.6156ZM7.95598 1.00014C7.94112 1.00005 7.92626 1 7.91139 1C7.65384 1 7.40291 1.0172 7.15848 1.05006C3.68927 1.46572 1 4.4188 1 8C1 11.2831 3.26026 14.0384 6.3096 14.7945C6.81395 14.9284 7.34893 15 7.91139 15C7.92626 15 7.94112 15 7.95598 14.9999C7.97064 15 7.98531 15 8 15C11.866 15 15 11.866 15 8C15 4.13401 11.866 1 8 1C7.98531 1 7.97064 1.00005 7.95598 1.00014ZM13.2278 5.8125C13.2278 5.57089 13.0295 5.375 12.7848 5.375C12.5401 5.375 12.3418 5.57089 12.3418 5.8125V7.02171L11.9455 7.80432C11.8361 8.02045 11.9248 8.28326 12.1436 8.3913C12.3625 8.49934 12.6286 8.41176 12.738 8.19568L13.2278 7.22829V5.8125ZM12.212 11.6281C12.385 11.799 12.385 12.076 12.212 12.2469L11.3259 13.1219C11.1529 13.2927 10.8724 13.2927 10.6994 13.1219C10.5263 12.951 10.5263 12.674 10.6994 12.5031L11.5854 11.6281C11.7585 11.4573 12.039 11.4573 12.212 11.6281Z"></path></svg>