<svg width="16" height="16" viewBox="0 0 16 16" fill="#8A8F98" class="sc-exqIPC bLrUyz"><path d="M11.7959 10.1476C11.7959 11.6563 10.7901 12.7165 9.526 13.1379V14C9.526 14.5523 9.07828 15 8.526 15H8.18813C7.63585 15 7.18813 14.5523 7.18813 14V13.1922C6.29104 12.9204 5.44833 12.3087 4.7959 11.2893L6.33182 9.86214C6.84833 10.7049 7.50075 11.1806 8.18036 11.1806C8.91434 11.1806 9.41726 10.8408 9.41726 10.1204C9.41726 8.65243 5.12211 9.4 5.12211 5.93398C5.12211 4.45243 6.03279 3.41942 7.18813 2.98447V2C7.18813 1.44772 7.63585 1 8.18813 1H8.526C9.07828 1 9.526 1.44772 9.526 2V2.9301C10.3551 3.20194 11.1299 3.81359 11.7415 4.81942L10.2056 6.2466C9.82502 5.40388 9.14541 4.90097 8.53376 4.90097C7.89493 4.90097 7.40561 5.22718 7.40561 5.92039C7.40561 7.36117 11.7959 6.74951 11.7959 10.1476Z"></path></svg>