<svg width="16" height="16" viewBox="0 0 16 16" fill="#8A8F98" class="sc-exqIPC bLrUyz"><path fill-rule="evenodd" clip-rule="evenodd" d="M15 8C15 11.866 11.866 15 8 15C4.134 15 1 11.866 1 8C1 4.13403 4.134 1 8 1C11.866 1 15 4.13403 15 8ZM5.46967 9.96967C5.76257 9.67676 6.23743 9.67676 6.53033 9.96967C6.77881 10.2181 7.24222 10.5237 7.77051 10.6097C8.25229 10.6882 8.84253 10.5968 9.46967 9.96967C9.76257 9.67676 10.2374 9.67676 10.5303 9.96967C10.8232 10.2626 10.8232 10.7374 10.5303 11.0303C9.5575 12.0032 8.48105 12.2452 7.52948 12.0903C6.62445 11.9429 5.88788 11.4485 5.46967 11.0303C5.17679 10.7374 5.17679 10.2626 5.46967 9.96967ZM4.03387 4.78748L4.12833 4.76349C4.81168 4.58978 5.52377 4.56085 6.21893 4.67871C6.46057 4.7196 6.67825 4.81348 6.86319 4.94574C6.95663 5.01251 7.06903 5.05139 7.18341 5.04095C7.72665 4.99146 8.27328 4.99139 8.81653 5.04095C8.93091 5.05133 9.04333 5.01251 9.13675 4.94574C9.32172 4.81348 9.53937 4.7196 9.78101 4.67871C10.4762 4.56085 11.1883 4.58978 11.8716 4.76349L11.9661 4.78748C12.1008 4.82172 12.2308 4.87207 12.3499 4.9375C12.4189 4.97546 12.4952 5 12.5739 5H13.6C13.8209 5 14 5.17908 14 5.40002V5.60004C14 5.82092 13.8209 6 13.6 6H13.4126C13.1783 6 12.995 6.20093 12.9941 6.43524C12.9914 7.1236 12.8539 7.7442 12.7253 7.86346C11.775 8.74487 10.5935 8.54822 9.67007 8.19135C9.1944 8.00757 8.85574 7.59137 8.6969 7.10681L8.56262 6.69708C8.52917 6.59503 8.44189 6.51605 8.33463 6.51129C8.11163 6.50128 7.88831 6.50134 7.66531 6.51129C7.55804 6.51605 7.47076 6.59509 7.43732 6.69708L7.30304 7.10681C7.1442 7.59137 6.80554 8.00757 6.32986 8.19135C5.40646 8.54822 4.22491 8.74487 3.27466 7.86346C3.14603 7.7442 3.00858 7.1236 3.00583 6.43524C3.00491 6.20093 2.82169 6 2.58734 6H2.39999C2.17908 6 2 5.82092 2 5.60004V5.40002C2 5.17908 2.17908 5 2.39999 5H3.42603C3.50476 5 3.58105 4.97546 3.65009 4.9375C3.76913 4.87207 3.89917 4.82172 4.03387 4.78748Z"></path></svg>