<svg width="16" height="16" viewBox="0 0 16 16" fill="#8A8F98" class="sc-exqIPC bLrUyz"><path d="M8 1C10.7614 1 13 3.23858 13 6C13 6.98229 12.4873 8.32397 11.5783 10.0457C11.3598 10.4596 11.121 10.8889 10.865 11.3302C10.4183 12.1002 9.94095 12.8704 9.46365 13.6053C9.29659 13.8626 9.14132 14.0972 9.00171 14.3049L8.82279 14.5683C8.42524 15.1439 7.57476 15.1439 7.17721 14.5683L6.8536 14.0884L6.53635 13.6053C6.05905 12.8704 5.58169 12.1002 5.135 11.3302C4.87903 10.8889 4.6402 10.4596 4.42166 10.0457C3.51272 8.32397 3 6.98229 3 6C3 3.23858 5.23858 1 8 1ZM8 4C6.89543 4 6 4.89543 6 6C6 7.10457 6.89543 8 8 8C9.10457 8 10 7.10457 10 6C10 4.89543 9.10457 4 8 4Z"></path></svg>