<svg width="16" height="16" viewBox="0 0 16 16" fill="#8A8F98" class="sc-exqIPC bLrUyz"><path fill-rule="evenodd" clip-rule="evenodd" d="M8.44869 1.27638C8.36068 1.10028 8.17755 0.992248 7.98092 1.00043C7.78429 1.00862 7.61077 1.1315 7.53768 1.31431C7.2327 2.07713 6.54725 3.09209 5.57612 3.62391C5.10002 3.88463 4.55692 4.02914 3.94474 3.97828C3.33048 3.92725 2.6131 3.67659 1.7965 3.09311C1.64721 2.98644 1.45149 2.97018 1.28666 3.05076C1.12182 3.13134 1.01436 3.2958 1.00672 3.47919C0.918702 5.5927 1.70207 8.43182 2.93867 10.7365C3.55955 11.8936 4.30954 12.9446 5.14971 13.7128C5.98669 14.4782 6.95563 15 8.0017 15C9.04921 15 10.0088 14.4769 10.8338 13.7101C11.6613 12.9409 12.3954 11.8894 13.0054 10.7334C14.2216 8.42818 14.9999 5.59836 15 3.50003C15 3.31272 14.8954 3.14113 14.7289 3.05542C14.5625 2.96971 14.3621 2.98427 14.2097 3.09314C13.3843 3.68306 12.6807 3.95398 12.0883 4.02721C11.502 4.09971 10.9951 3.98242 10.5478 3.74557C9.62824 3.25872 8.93677 2.25291 8.44869 1.27638ZM10.8366 6.98419C10.9012 7.0289 10.9506 7.0921 10.9781 7.16538C11.0055 7.23888 11.0095 7.31894 10.9896 7.39478C10.9697 7.47061 10.9268 7.53855 10.8667 7.58943L9.52973 8.68876C9.50978 8.70518 9.49532 8.72721 9.4882 8.75195C9.48107 8.77669 9.48163 8.80298 9.48987 8.82739L10.0505 10.4958C10.0764 10.5729 10.0769 10.6563 10.052 10.7338C10.027 10.8112 9.97774 10.8788 9.91145 10.9267C9.84515 10.9745 9.76522 11.0002 9.68322 11C9.60122 10.9998 9.52141 10.9737 9.45537 10.9255L8.07984 9.92492C8.05777 9.90889 8.03113 9.90023 8.00377 9.90023C7.97642 9.90023 7.94978 9.90889 7.92771 9.92492L6.55167 10.9257C6.4856 10.9738 6.40583 10.9997 6.3239 10.9998C6.24196 11 6.16212 10.9742 6.09592 10.9263C6.02972 10.8784 5.98058 10.8109 5.95562 10.7335C5.93066 10.6561 5.93117 10.5729 5.95708 10.4958L6.51769 8.82841C6.5259 8.804 6.52648 8.77771 6.51936 8.75297C6.51224 8.72823 6.49775 8.70621 6.47779 8.68978L5.14345 7.59198C5.08258 7.54153 5.03886 7.47371 5.01822 7.39773C4.99759 7.32176 5.00105 7.24133 5.02814 7.16738C5.05522 7.09343 5.10461 7.02954 5.1696 6.98442C5.23458 6.9393 5.312 6.91512 5.39132 6.91518H6.95861C6.98523 6.91515 7.01118 6.90693 7.03289 6.89166C7.05461 6.87639 7.07101 6.85481 7.07984 6.82991L7.64097 5.25291L7.64226 5.24883C7.66981 5.17575 7.7192 5.11276 7.78383 5.06829C7.84846 5.02382 7.92524 4.99999 8.0039 4.99999C8.08256 4.99999 8.15934 5.02382 8.22397 5.06829C8.2886 5.11276 8.338 5.17575 8.36554 5.24883L8.92797 6.82991C8.93681 6.85485 8.95325 6.87645 8.975 6.89173C8.99676 6.907 9.0228 6.9152 9.04945 6.91518H10.6162C10.6951 6.91541 10.7719 6.93949 10.8366 6.98419Z"></path></svg>