<svg width="16" height="16" viewBox="0 0 16 16" fill="#8A8F98" class="sc-exqIPC bLrUyz"><path fill-rule="evenodd" clip-rule="evenodd" d="M8 15C11.866 15 15 11.866 15 8C15 4.13401 11.866 1 8 1C4.13401 1 1 4.13401 1 8C1 11.866 4.13401 15 8 15ZM5.84164 11.1708C5.6564 11.5413 5.20589 11.6915 4.83541 11.5062C4.46493 11.321 4.31476 10.8705 4.5 10.5C4.76397 9.97207 5.82582 8.58541 8.17082 8.58541C10.5158 8.58541 11.5777 9.97207 11.8416 10.5C12.0269 10.8705 11.8767 11.321 11.5062 11.5062C11.1357 11.6915 10.6852 11.5413 10.5 11.1708C10.4306 11.0321 9.82582 10.0854 8.17082 10.0854C6.51582 10.0854 5.91101 11.0321 5.84164 11.1708ZM5 6C5 5.44772 5.44772 5 6 5C6.55228 5 7 5.44772 7 6V6.5C7 6.77614 6.77614 7 6.5 7H5.5C5.22386 7 5 6.77614 5 6.5V6ZM10 5C9.44771 5 9 5.44772 9 6V6.5C9 6.77614 9.22386 7 9.5 7H10.5C10.7761 7 11 6.77614 11 6.5V6C11 5.44772 10.5523 5 10 5Z"></path></svg>