<svg width="32" height="32" viewBox="0 0 32 32" fill="none" xmlns="http://www.w3.org/2000/svg">
  <rect width="32" height="32" rx="8" fill="#007AFF"/>
  <path d="M8 12C8 10.8954 8.89543 10 10 10H22C23.1046 10 24 10.8954 24 12V22C24 23.1046 23.1046 24 22 24H10C8.89543 24 8 23.1046 8 22V12Z" stroke="white" stroke-width="2"/>
  <path d="M8 14H24" stroke="white" stroke-width="2"/>
  <path d="M12 8L12 12" stroke="white" stroke-width="2" stroke-linecap="round"/>
  <path d="M20 8L20 12" stroke="white" stroke-width="2" stroke-linecap="round"/>
  <circle cx="12" cy="17" r="1" fill="white"/>
  <circle cx="16" cy="17" r="1" fill="white"/>
  <circle cx="20" cy="17" r="1" fill="white"/>
  <circle cx="12" cy="21" r="1" fill="white"/>
  <circle cx="16" cy="21" r="1" fill="white"/>
  <circle cx="20" cy="21" r="1" fill="white"/>
</svg>