<?xml version="1.0" encoding="utf-8"?>
<!-- Generator: Adobe Illustrator 23.0.2, SVG Export Plug-In . SVG Version: 6.00 Build 0)  -->
<svg version="1.1" id="Layer_1" xmlns="http://www.w3.org/2000/svg" xmlns:xlink="http://www.w3.org/1999/xlink" x="0px" y="0px"
	 viewBox="0 0 24 24" style="enable-background:new 0 0 24 24;" xml:space="preserve">
<title>SeekIconTemplate24px_03</title>
<path d="M19,8h-1V3c0-0.6-0.4-1-1-1H7C6.4,2,6,2.4,6,3v5H5c-1.7,0-3,1.3-3,3v4c0,1.7,1.3,3,3,3v3c0,0.6,0.4,1,1,1h12
	c0.6,0,1-0.4,1-1v-3c1.7,0,3-1.3,3-3v-4C22,9.3,20.7,8,19,8z M8,4h8v4H8V4z M17,20H7v-3v-1h10v1V20z M20,15c0,0.6-0.4,1-1,1v-1
	c0-0.6-0.4-1-1-1H6c-0.6,0-1,0.4-1,1v1c-0.6,0-1-0.4-1-1v-4c0-0.6,0.4-1,1-1h2h10h2c0.6,0,1,0.4,1,1V15z"/>
</svg>
