<svg xmlns="http://www.w3.org/2000/svg" width="24" height="24" viewBox="0 0 24 24">
  <g id="_08" data-name="08">
    <g id="youtube">
      <g id="artwork-18" data-name="artwork">
        <path fill="#ffffff" d="M22,12a26.36232,26.36232,0,0,1-.41792,4.84514,2.513,2.513,0,0,1-1.7682,1.77968C18.25418,19.04545,12,19.04545,12,19.04545s-6.25417,0-7.81387-.42063a2.513,2.513,0,0,1-1.7682-1.77968A26.36171,26.36171,0,0,1,2,12a26.36171,26.36171,0,0,1,.41793-4.84514,2.513,2.513,0,0,1,1.7682-1.77968C5.74583,4.95455,12,4.95455,12,4.95455s6.25418,0,7.81388.42063a2.513,2.513,0,0,1,1.7682,1.77968A26.36232,26.36232,0,0,1,22,12ZM9.95455,14.97373l5.22727-2.97364L9.95455,9.02627Z"/>
      </g>
    </g>
  </g>
</svg>
