<svg xmlns="http://www.w3.org/2000/svg" width="24" height="24" viewBox="0 0 24 24">
  <title>SeekIconTemplate24px_03</title>
  <g id="_08" data-name="08">
    <g id="twitter">
      <g id="artwork-15" data-name="artwork">
        <path d="M9.4029,17.689a8.11682,8.11682,0,0,0,8.1724-8.17239c0-.12438-.00252-.24819-.00821-.37134A5.84407,5.84407,0,0,0,19,7.65805a5.73376,5.73376,0,0,1-1.64951.45216,2.8823,2.8823,0,0,0,1.263-1.58888,5.756,5.756,0,0,1-1.82381.69719A2.87485,2.87485,0,0,0,11.89485,9.838,8.15458,8.15458,0,0,1,5.97442,6.83709a2.87453,2.87453,0,0,0,.88917,3.83451,2.8511,2.8511,0,0,1-1.30091-.35931l-.00064.03662a2.87356,2.87356,0,0,0,2.30439,2.81594,2.86766,2.86766,0,0,1-1.29713.04922,2.87555,2.87555,0,0,0,2.6833,1.995,5.76371,5.76371,0,0,1-3.56741,1.22953A5.84683,5.84683,0,0,1,5,16.39881,8.13166,8.13166,0,0,0,9.4029,17.689"/>
      </g>
    </g>
  </g>
</svg>
