<svg xmlns="http://www.w3.org/2000/svg" fill="none" viewBox="0 0 48 48" class="adns-rr-inactive__pictogram"><mask id=":r7a:-mask0_2524_965" width="44" height="40" x="2" y="4" maskUnits="userSpaceOnUse" style="mask-type: alpha;"><path fill="currentColor" d="M44.25 43c0 .55-.45 1-1 1H5c-.55 0-1-.45-1-1s.45-1 1-1h18v-8c0-.55.45-1 1-1s1 .45 1 1v8h18.25c.55 0 1 .45 1 1ZM2 15.5C2 9.16 7.16 4 13.5 4h21C40.84 4 46 9.16 46 15.5S40.84 27 34.5 27h-21C7.16 27 2 21.84 2 15.5Zm2 0c0 5.24 4.26 9.5 9.5 9.5h21c5.24 0 9.5-4.26 9.5-9.5S39.74 6 34.5 6h-21C8.26 6 4 10.26 4 15.5ZM15 17c.26 0 .52-.11.71-.29A.99.99 0 0 0 16 16c0-.27-.11-.52-.29-.71-.37-.37-1.04-.37-1.41 0a.99.99 0 0 0-.29.71c0 .27.11.52.29.71.18.19.44.29.71.29H15Zm9 0h10c.55 0 1-.45 1-1s-.45-1-1-1H24c-.55 0-1 .45-1 1s.45 1 1 1Z"></path></mask><g mask="url(#:r7a:-mask0_2524_965)"><path fill="currentColor" d="M0 0h48v48H0z"></path></g></svg>