<svg fill="#000407" fetchpriority="high" loading="eager" xmlns="http://www.w3.org/2000/svg" viewBox="0 0 115.2 33.5"><path d="M24.2 33.2h-2.7c-1.2.1-2.4-.2-3.4-1-.7-.8-1.1-1.8-1-2.9-1.7 2.7-4.8 4.3-8 4.2-2.3.1-4.6-.6-6.5-1.9C.8 30.3 0 28.4 0 26.3c-.1-2.2.9-4.4 2.7-5.8 1.8-1.3 4.3-2 7.7-2h6.1V17c0-1.2-.5-2.4-1.4-3.2-1.1-.8-2.5-1.2-3.9-1.2-1.3 0-2.6.3-3.7 1-.9.6-1.5 1.5-1.7 2.6H.7c.2-2.3 1.3-4.4 3.2-5.7 2.2-1.4 4.8-2.1 7.4-2 3.3 0 5.8.8 7.5 2.3 1.8 1.7 2.8 4.1 2.7 6.5v9.6c0 1.1.5 1.7 1.6 1.7h1v4.5Zm-14-10.8c-1.3 0-2.6.2-3.6.9-.9.6-1.3 1.7-1.3 2.7 0 1 .4 1.9 1.2 2.5 1 .7 2.1 1 3.3.9 1.8.1 3.6-.5 5-1.7 1.2-1.2 1.9-2.8 1.8-4.5v-.9h-6.4ZM32.1 0v20.8L43.2 9h5.9L40 18.8l9.6 14.5h-6.1l-7.2-10.8L32 27v6.2h-5.1V0H32ZM56.3 28.3c1.2.8 2.7 1.3 4.2 1.2 1.3 0 2.6-.2 3.8-.9.9-.5 1.4-1.4 1.4-2.3 0-.7-.2-1.4-.7-1.8-.5-.4-1.1-.7-1.8-.9-.7-.2-1.9-.4-3.4-.5-1.8-.2-3.5-.5-5.2-1-1.3-.4-2.4-1.1-3.3-2-.9-1.1-1.3-2.4-1.3-3.8s.4-2.8 1.3-4c.9-1.2 2.1-2.1 3.5-2.7 4.1-1.6 8.7-1.2 12.5 1.1 1.9 1.3 3 3.4 3.1 5.7h-5c-.1-1.1-.7-2.1-1.7-2.7-1.1-.7-2.4-1.1-3.7-1.1-1.3 0-2.5.2-3.6.9-.9.5-1.4 1.4-1.4 2.3 0 .6.2 1.2.7 1.6.5.4 1.1.6 1.7.8.7.1 1.8.3 3.4.5 1.8.2 3.5.5 5.3 1 1.3.4 2.5 1.1 3.4 2.2.9 1.1 1.4 2.6 1.3 4.1 0 1.4-.4 2.9-1.3 4-1 1.2-2.2 2.1-3.6 2.7-1.7.6-3.4 1-5.2.9-2.8.1-5.6-.6-7.9-2.2-2-1.4-3.1-3.7-3.1-6.1h4.9c0 1.3.7 2.4 1.8 3.1M78.7 10.2c1.9-1 4-1.6 6.1-1.5 2.1 0 4.3.4 6.2 1.4 1.8.9 3.2 2.3 4.2 4 1.1 1.9 1.6 4 1.6 6.1 0 .7 0 1.3-.1 1.9H78.4v.3c0 1.9.7 3.7 2 5 1.3 1.3 3 1.9 4.8 1.8 1.4 0 2.8-.3 4-1.1 1.1-.7 1.8-1.9 2.1-3.2h5.1c-.4 2.4-1.7 4.6-3.6 6.1-2.1 1.6-4.6 2.5-7.3 2.4-2.3 0-4.6-.5-6.6-1.5-1.8-1-3.4-2.5-4.4-4.3-1.1-2-1.6-4.2-1.5-6.5 0-2.3.5-4.5 1.5-6.6.9-1.8 2.4-3.3 4.2-4.4m10.8 4.1c-1.3-1-2.9-1.6-4.5-1.5-1.6 0-3.1.5-4.3 1.5-1.2 1-2 2.5-2.1 4.1h13c-.1-1.6-.9-3.1-2.1-4.1M100.4 0h5.1v33.2h-5.1zM110.1 0h5.1v33.2h-5.1z"/></svg>