<svg clip-rule="evenodd" fill-rule="evenodd" stroke-linejoin="round" stroke-miterlimit="2" viewBox="0 0 256 256" xmlns="http://www.w3.org/2000/svg"><path d="m128 0c70.645 0 128 57.355 128 128s-57.355 128-128 128-128-57.355-128-128 57.355-128 128-128zm-29.284 163.687c-2.848 14.816-16.116 26.039-32.034 26.039-17.992 0-32.599-14.338-32.599-32 0-12.841 7.722-23.926 18.852-29.02-11.13-5.093-18.852-16.178-18.852-29.019 0-17.662 14.607-32 32.599-32s32.6 14.338 32.6 32h58.072c-.021-.469-.031-.94-.031-1.413 0-17.662 14.607-32 32.6-32 17.992 0 32.599 14.338 32.599 32 0 12.841-7.722 23.926-18.853 29.02 11.131 5.093 18.853 16.178 18.853 29.019 0 17.662-14.607 32-32.599 32-15.407 0-28.332-10.514-31.729-24.626z" fill="#fff"/></svg>