<svg width="16" height="16" viewBox="0 0 16 16" fill="none" xmlns="http://www.w3.org/2000/svg">
<path d="M11 7C10.45 7 10 7.45 10 8H8V6C7.45 6 7 5.55 7 5C7 4.45 7.45 4 8 4V2H13C13.55 2 14 2.45 14 3V8H12C12 7.45 11.55 7 11 7ZM5 9C5.55 9 6 8.55 6 8H8V10C8.55 10 9 10.45 9 11C9 11.55 8.55 12 8 12V14H3C2.45 14 2 13.55 2 13V8H4C4 8.55 4.45 9 5 9Z" fill="#333333"/>
<path d="M7 5C7 5.55 7.45 6 8 6V8H6C6 8.55 5.55 9 5 9C4.45 9 4 8.55 4 8H2V3C2 2.45 2.45 2 3 2H8V4C7.45 4 7 4.45 7 5ZM9 11C9 10.45 8.55 10 8 10V8H10C10 7.45 10.45 7 11 7C11.55 7 12 7.45 12 8H14V13C14 13.55 13.55 14 13 14H8V12C8.55 12 9 11.55 9 11Z" fill="white"/>
</svg>
