<svg width="16" height="16" viewBox="0 0 16 16" fill="none" xmlns="http://www.w3.org/2000/svg">
<path d="M10.2032 8.87272L10.7104 11.8182L8.065 10.4273L5.41956 11.8182L5.92138 8.87272L3.7832 6.78362L6.73956 6.35816L8.065 3.67453L9.385 6.35816L12.3414 6.78362L10.2032 8.87272Z" fill="#333333"/>
<path d="M8 2C6.81331 2 5.65328 2.35189 4.66658 3.01118C3.67988 3.67047 2.91085 4.60754 2.45673 5.7039C2.0026 6.80025 1.88378 8.00665 2.11529 9.17055C2.3468 10.3344 2.91825 11.4035 3.75736 12.2427C4.59648 13.0817 5.66558 13.6532 6.82946 13.8847C7.99335 14.1162 9.19975 13.9974 10.2961 13.5433C11.3924 13.0892 12.3295 12.3201 12.9888 11.3334C13.6481 10.3467 14 9.1867 14 8C14 6.4087 13.3679 4.88258 12.2427 3.75736C11.1174 2.63214 9.5913 2 8 2ZM10.7273 11.8182L8.0818 10.4272L5.42 11.8182L5.92182 8.87275L3.78364 6.78364L6.74 6.36364L8.06545 3.68L9.38545 6.36364L12.3637 6.78364L10.1818 8.87275L10.7273 11.8182Z" fill="white"/>
</svg>
