<svg width="16" height="16" viewBox="0 0 16 16" fill="none" xmlns="http://www.w3.org/2000/svg">
<path d="M5.5 3C5.2 3 5 3.2 5 3.5V5H3C2.45 5 2 5.45 2 6V12C2 12.55 2.45 13 3 13H13C13.55 13 14 12.55 14 12V6C14 5.45 13.55 5 13 5H11V3.5C11 3.2 10.8 3 10.5 3H5.5ZM10 5H6V4H10V5ZM5 6C5 5.7 4.8 5.5 4.5 5.5C4.2 5.5 4 5.7 4 6V12C4 12.3 4.2 12.5 4.5 12.5C4.8 12.5 5 12.3 5 12V6ZM12 6C12 5.7 11.8 5.5 11.5 5.5C11.2 5.5 11 5.7 11 6V12C11 12.3 11.2 12.5 11.5 12.5C11.8 12.5 12 12.3 12 12V6Z" fill="#333333"/>
<path d="M4 5.99997C4 5.69997 4.2 5.49997 4.5 5.49997C4.8 5.49997 5 5.69997 5 5.99997V12C5 12.3 4.8 12.5 4.5 12.5C4.2 12.5 4 12.3 4 12V5.99997ZM11 5.99997C11 5.69997 11.2 5.49997 11.5 5.49997C11.8 5.49997 12 5.69997 12 5.99997V12C12 12.3 11.8 12.5 11.5 12.5C11.2 12.5 11 12.3 11 12V5.99997Z" fill="white"/>
</svg>
