<svg width="16" height="16" viewBox="0 0 16 16" fill="none" xmlns="http://www.w3.org/2000/svg">
<path d="M2.25 7L9.25 14H13.75V13H10.25L5.8 8.55C6.5 8 6.9 7.1 6.7 6.2C6.55 5.25 5.85 4.5 5 4.25L2.25 7ZM8.75 6.5C8.75 6.2 8.95 6 9.25 6H10.75V7H9.25C8.95 7 8.75 6.8 8.75 6.5ZM8.75 8.5C8.75 8.2 8.95 8 9.25 8H10.75V9H9.25C8.95 9 8.75 8.8 8.75 8.5Z" fill="#333333"/>
<path d="M7.25 2L5 4.25C5.85 4.5 6.55 5.25 6.7 6.15C6.85 7.1 6.5 7.95 5.8 8.5L10.25 13H10.75H13.75C13.75 11.35 12.4 10 10.75 10V9H9.25C8.95 9 8.75 8.8 8.75 8.5C8.75 8.2 8.95 8 9.25 8H10.75V7H9.25C8.95 7 8.75 6.8 8.75 6.5C8.75 6.2 8.95 6 9.25 6H10.75V5.5L7.25 2Z" fill="white"/>
</svg>
