<svg width="16" height="16" viewBox="0 0 16 16" fill="none" xmlns="http://www.w3.org/2000/svg">
<path d="M12.9922 12.5835L13.1918 13.8315C13.1918 13.9813 13.092 14.0312 12.9422 13.9813L11.6942 13.3323C11.3946 13.4322 11.0951 13.4821 10.7457 13.4821C8.94847 13.4821 7.55065 12.0843 7.50073 10.2871V10.2371C7.50073 8.5398 8.7987 7.14198 10.4461 6.99222C10.546 6.99222 10.6458 6.99222 10.7457 6.99222C12.5429 6.99222 13.9906 8.43996 13.9906 10.2371C13.9906 11.1357 13.5912 11.9844 12.9922 12.5835Z" fill="white"/>
<path d="M10.496 6.24337C10.496 6.49298 10.496 6.74259 10.4461 6.9922C8.79867 7.14197 7.5007 8.53978 7.5007 10.2371V10.2871C7.10132 10.4368 6.70195 10.4867 6.25265 10.4867C5.80335 10.4867 5.35405 10.3869 4.90475 10.2871L3.20741 11.1357C3.05764 11.2356 2.85795 11.0858 2.90787 10.8861L3.20741 9.18877C2.45858 8.39002 2.00928 7.39158 2.00928 6.24337C2.00928 3.89704 3.90631 2 6.25265 2C8.59898 2 10.496 3.89704 10.496 6.24337Z" fill="#333333"/>
</svg>
