<svg width="16" height="16" viewBox="0 0 16 16" fill="none" xmlns="http://www.w3.org/2000/svg">
<path d="M8 2C4.7 2 2 4.7 2 8C2 11.3 4.7 14 8 14C11.3 14 14 11.3 14 8C14 4.7 11.3 2 8 2ZM10.7375 6.9875L7.25 10.475C7.1375 10.5875 6.9875 10.625 6.8375 10.625C6.6875 10.625 6.5375 10.5875 6.425 10.475L5 9.05C4.775 8.825 4.775 8.4875 5 8.2625C5.225 8.0375 5.5625 8.0375 5.7875 8.2625L6.8375 9.3125L9.95 6.2C10.175 5.975 10.5125 5.975 10.7375 6.2C10.9625 6.425 10.9625 6.7625 10.7375 6.9875Z" fill="#333333"/>
<path d="M7.2537 10.4686L10.7412 6.98113C10.9662 6.75613 10.9662 6.41862 10.7412 6.19362C10.5162 5.96862 10.1787 5.96862 9.9537 6.19362L6.84121 9.30612L5.79121 8.25612C5.56621 8.03112 5.22871 8.03112 5.00371 8.25612C4.77871 8.48112 4.77871 8.81862 5.00371 9.04362L6.42871 10.4686C6.54121 10.5811 6.69121 10.6186 6.84121 10.6186C6.99121 10.6186 7.1412 10.5811 7.2537 10.4686Z" fill="white"/>
</svg>
