<svg width="16" height="16" viewBox="0 0 16 16" fill="none" xmlns="http://www.w3.org/2000/svg">
<path d="M8.5 9.59591V7.00591C8.5 6.8733 8.4473 6.74612 8.35355 6.65235C8.2598 6.55858 8.1326 6.50591 8 6.50591C7.8674 6.50591 7.7402 6.55858 7.64645 6.65235C7.5527 6.74612 7.5 6.8733 7.5 7.00591V9.59591C7.20825 9.69906 6.9555 9.88996 6.77647 10.1424C6.59744 10.3948 6.50087 10.6965 6.5 11.0059C6.49981 11.1766 6.5303 11.346 6.59 11.5059C6.6951 11.7955 6.88682 12.0457 7.1391 12.2225C7.39135 12.3993 7.69195 12.4942 8 12.4942C8.30805 12.4942 8.60865 12.3993 8.8609 12.2225C9.1132 12.0457 9.3049 11.7955 9.41 11.5059C9.4697 11.346 9.5002 11.1766 9.5 11.0059C9.49915 10.6965 9.40255 10.3948 9.22355 10.1424C9.0445 9.88996 8.79175 9.69906 8.5 9.59591ZM8 11.5059C7.9011 11.5059 7.80445 11.4766 7.7222 11.4217C7.64 11.3667 7.5759 11.2886 7.53805 11.1973C7.5002 11.1059 7.4903 11.0054 7.5096 10.9084C7.5289 10.8114 7.5765 10.7223 7.64645 10.6524C7.71635 10.5824 7.80545 10.5348 7.90245 10.5155C7.99945 10.4962 8.1 10.5061 8.19135 10.544C8.2827 10.5818 8.3608 10.6459 8.41575 10.7281C8.4707 10.8104 8.5 10.907 8.5 11.0059C8.5 11.1385 8.4473 11.2657 8.35355 11.3595C8.2598 11.4532 8.1326 11.5059 8 11.5059ZM8.5 4.50591V5.00591C8.5 5.13852 8.4473 5.26569 8.35355 5.35946C8.2598 5.45323 8.1326 5.50591 8 5.50591C7.8674 5.50591 7.7402 5.45323 7.64645 5.35946C7.5527 5.26569 7.5 5.13852 7.5 5.00591V4.50591C7.5 4.3733 7.5527 4.24612 7.64645 4.15235C7.7402 4.05859 7.8674 4.00591 8 4.00591C8.1326 4.00591 8.2598 4.05859 8.35355 4.15235C8.4473 4.24612 8.5 4.3733 8.5 4.50591ZM13.25 9.50591C13.2491 9.59396 13.2249 9.68021 13.18 9.75591C13.1364 9.83146 13.0737 9.89431 12.9983 9.93816C12.9228 9.98201 12.8372 10.0054 12.75 10.0059H12.25C12.1628 10.0054 12.0772 9.98201 12.0017 9.93816C11.9263 9.89431 11.8636 9.83146 11.82 9.75591C11.7751 9.68021 11.7509 9.59396 11.75 9.50591C11.75 9.37331 11.8027 9.24611 11.8965 9.15236C11.9902 9.05861 12.1174 9.00591 12.25 9.00591H12.75C12.8826 9.00591 13.0098 9.05861 13.1035 9.15236C13.1973 9.24611 13.25 9.37331 13.25 9.50591ZM4.25 9.50591C4.25 9.6385 4.19732 9.76571 4.10355 9.85946C4.00978 9.95321 3.88261 10.0059 3.75 10.0059H3.25C3.11739 10.0059 2.99021 9.95321 2.89644 9.85946C2.80268 9.76571 2.75 9.6385 2.75 9.50591C2.75 9.37331 2.80268 9.24611 2.89644 9.15236C2.99021 9.05861 3.11739 9.00591 3.25 9.00591H3.75C3.81608 9.00526 3.88164 9.01771 3.94288 9.04251C4.00412 9.06736 4.05983 9.10405 4.10679 9.15056C4.15375 9.19706 4.19103 9.25241 4.21646 9.31341C4.2419 9.3744 4.25501 9.43981 4.255 9.50591H4.25ZM12.02 6.35591L11.67 6.7059C11.5763 6.79903 11.4496 6.8513 11.3175 6.8513C11.1854 6.8513 11.0587 6.79903 10.965 6.7059C10.9181 6.65943 10.8809 6.60413 10.8555 6.5432C10.8301 6.48227 10.8171 6.41691 10.8171 6.3509C10.8171 6.2849 10.8301 6.21955 10.8555 6.15862C10.8809 6.09769 10.9181 6.04239 10.965 5.99591L11.32 5.65591C11.3665 5.60904 11.4218 5.57185 11.4827 5.54646C11.5437 5.52108 11.609 5.50801 11.675 5.50801C11.741 5.50801 11.8063 5.52108 11.8673 5.54646C11.9282 5.57185 11.9835 5.60904 12.03 5.65591C12.1231 5.74959 12.1754 5.87631 12.1754 6.00841C12.1754 6.1405 12.1231 6.26723 12.03 6.36091L12.02 6.35591ZM5.02 6.7259C4.92632 6.81903 4.7996 6.8713 4.6675 6.8713C4.53541 6.8713 4.40868 6.81903 4.315 6.7259L4 6.37591C3.95338 6.32962 3.91633 6.2746 3.89098 6.21398C3.86563 6.15338 3.85246 6.08837 3.85222 6.02268C3.85176 5.88999 3.90401 5.76256 3.9975 5.66841C4.09099 5.57426 4.21805 5.5211 4.35073 5.52063C4.41643 5.5204 4.48153 5.53311 4.54232 5.55803C4.6031 5.58296 4.65838 5.61962 4.705 5.66591L5.055 6.01591C5.14813 6.10959 5.2004 6.23631 5.2004 6.36841C5.2004 6.5005 5.14813 6.62723 5.055 6.72091L5.02 6.7259Z" fill="#333333"/>
<path d="M8.5 11.0059C8.5 11.1048 8.4707 11.2014 8.41575 11.2837C8.3608 11.3659 8.2827 11.43 8.19135 11.4678C8.1 11.5057 7.99945 11.5156 7.90245 11.4963C7.80545 11.477 7.71635 11.4294 7.64645 11.3594C7.5765 11.2895 7.5289 11.2004 7.5096 11.1034C7.4903 11.0064 7.5002 10.9059 7.53805 10.8145C7.5759 10.7232 7.64 10.6451 7.7222 10.5901C7.80445 10.5352 7.9011 10.5059 8 10.5059C8.1326 10.5059 8.2598 10.5586 8.35355 10.6523C8.4473 10.7461 8.5 10.8733 8.5 11.0059ZM14 9.50587V11.5059H9.41C9.4697 11.3459 9.5002 11.1766 9.5 11.0059C9.49915 10.6964 9.40255 10.3948 9.22355 10.1423C9.0445 9.88992 8.79175 9.69902 8.5 9.59587V7.00587C8.5 6.87326 8.4473 6.74609 8.35355 6.65232C8.2598 6.55855 8.1326 6.50587 8 6.50587C7.8674 6.50587 7.7402 6.55855 7.64645 6.65232C7.5527 6.74609 7.5 6.87326 7.5 7.00587V9.59587C7.20825 9.69902 6.9555 9.88992 6.77647 10.1423C6.59744 10.3948 6.50087 10.6964 6.5 11.0059C6.49981 11.1766 6.5303 11.3459 6.59 11.5059H2V9.50587C2 7.91457 2.63214 6.38845 3.75736 5.26323C4.88258 4.13801 6.4087 3.50587 8 3.50587C9.5913 3.50587 11.1174 4.13801 12.2427 5.26323C13.3679 6.38845 14 7.91457 14 9.50587ZM4.26 9.50587C4.26 9.37327 4.20732 9.24607 4.11355 9.15232C4.01978 9.05857 3.89261 9.00587 3.76 9.00587H3.26C3.12739 9.00587 3.00022 9.05857 2.90645 9.15232C2.81268 9.24607 2.76 9.37327 2.76 9.50587C2.76 9.63847 2.81268 9.76567 2.90645 9.85942C3.00022 9.95317 3.12739 10.0059 3.26 10.0059H3.76C3.89261 10.0059 4.01978 9.95317 4.11355 9.85942C4.20732 9.76567 4.26 9.63847 4.26 9.50587ZM5.045 6.00587L4.695 5.65587C4.59952 5.56371 4.47134 5.51325 4.33866 5.51559C4.20598 5.51794 4.07966 5.57289 3.9875 5.66837C3.89533 5.76385 3.84488 5.89203 3.84722 6.02471C3.84956 6.15739 3.90452 6.28371 4 6.37587L4.355 6.73087C4.45114 6.82237 4.57969 6.87193 4.71237 6.86865C4.84505 6.86537 4.971 6.80951 5.0625 6.71337C5.154 6.61723 5.20356 6.48868 5.20028 6.356C5.197 6.22332 5.14114 6.09737 5.045 6.00587ZM8.5 4.50587C8.5 4.37326 8.4473 4.24609 8.35355 4.15232C8.2598 4.05855 8.1326 4.00587 8 4.00587C7.8674 4.00587 7.7402 4.05855 7.64645 4.15232C7.5527 4.24609 7.5 4.37326 7.5 4.50587V5.00587C7.5 5.13848 7.5527 5.26566 7.64645 5.35943C7.7402 5.45319 7.8674 5.50587 8 5.50587C8.1326 5.50587 8.2598 5.45319 8.35355 5.35943C8.4473 5.26566 8.5 5.13848 8.5 5.00587V4.50587ZM12.025 5.66587C11.9313 5.57275 11.8046 5.52048 11.6725 5.52048C11.5404 5.52048 11.4137 5.57275 11.32 5.66587L10.965 6.00587C10.9181 6.05235 10.8809 6.10765 10.8555 6.16858C10.8301 6.22951 10.8171 6.29487 10.8171 6.36087C10.8171 6.42688 10.8301 6.49223 10.8555 6.55316C10.8809 6.61409 10.9181 6.66939 10.965 6.71587C11.0587 6.809 11.1854 6.86127 11.3175 6.86127C11.4496 6.86127 11.5763 6.809 11.67 6.71587L12.02 6.36587C12.1132 6.27219 12.1654 6.14547 12.1654 6.01337C12.1654 5.88128 12.1132 5.75455 12.02 5.66087L12.025 5.66587ZM13.25 9.50587C13.25 9.37327 13.1973 9.24607 13.1035 9.15232C13.0098 9.05857 12.8826 9.00587 12.75 9.00587H12.25C12.1174 9.00587 11.9902 9.05857 11.8965 9.15232C11.8027 9.24607 11.75 9.37327 11.75 9.50587C11.7509 9.59392 11.7751 9.68017 11.82 9.75587C11.8636 9.83142 11.9263 9.89427 12.0017 9.93812C12.0772 9.98197 12.1628 10.0053 12.25 10.0059H12.75C12.8372 10.0053 12.9228 9.98197 12.9983 9.93812C13.0737 9.89427 13.1364 9.83142 13.18 9.75587C13.2249 9.68017 13.2491 9.59392 13.25 9.50587Z" fill="white"/>
</svg>
