<svg width="16" height="16" viewBox="0 0 16 16" fill="none" xmlns="http://www.w3.org/2000/svg">
<path d="M4.5 12.5H2.5C2.2 12.5 2 12.3 2 12.05V8.45C2 8.2 2.2 8 2.5 8H4.5C4.8 8 5 8.2 5 8.45V12.05C5 12.3 4.8 12.5 4.5 12.5Z" fill="#333333"/>
<path d="M4.5 6.5H2.5C2.2 6.5 2 6.3 2 6V4C2 3.75 2.2 3.5 2.5 3.5H4.5C4.8 3.5 5 3.75 5 4V6C5 6.3 4.8 6.5 4.5 6.5ZM9 3.5H7C6.7 3.5 6.5 3.75 6.5 4V10C6.5 10.25 6.7 10.5 7 10.5H9C9.3 10.5 9.5 10.25 9.5 10V4C9.5 3.75 9.3 3.5 9 3.5ZM13.5 3.5H11.5C11.25 3.5 11 3.75 11 4V6C11 6.3 11.25 6.5 11.5 6.5H13.5C13.75 6.5 14 6.3 14 6V4C14 3.75 13.75 3.5 13.5 3.5Z" fill="white"/>
</svg>
