<svg width="16" height="16" viewBox="0 0 16 16" fill="none" xmlns="http://www.w3.org/2000/svg">
<path d="M13.5 9.0909C13.7761 9.0909 14 8.86705 14 8.5909V7.4091C14 7.13295 13.7761 6.90909 13.5 6.90909H12.2273C12.1235 6.51469 11.9656 6.13656 11.7582 5.78545L12.6592 4.88446C12.8545 4.6892 12.8545 4.37262 12.6592 4.17736L11.8226 3.34082C11.6274 3.14556 11.3108 3.14556 11.1156 3.34082L10.2146 4.24182C9.86345 4.03435 9.4853 3.87648 9.0909 3.77272V2.5C9.0909 2.22386 8.86705 2 8.5909 2H7.4091C7.13295 2 6.90909 2.22386 6.90909 2.5V3.77272C6.51469 3.87648 6.13656 4.03435 5.78545 4.24182L4.88446 3.34082C4.6892 3.14556 4.37262 3.14556 4.17736 3.34082L3.34082 4.17736C3.14556 4.37262 3.14556 4.6892 3.34082 4.88446L4.24182 5.78545C4.03435 6.13656 3.87648 6.51469 3.77272 6.90909H2.5C2.22386 6.90909 2 7.13295 2 7.4091V8.5909C2 8.86705 2.22386 9.0909 2.5 9.0909H3.77272C3.87648 9.4853 4.03435 9.86345 4.24182 10.2146L3.34082 11.1156C3.14556 11.3108 3.14556 11.6274 3.34082 11.8226L4.17736 12.6592C4.37262 12.8545 4.6892 12.8545 4.88446 12.6592L5.78545 11.7582C6.13656 11.9656 6.51469 12.1235 6.90909 12.2273V13.5C6.90909 13.7761 7.13295 14 7.4091 14H8.5909C8.86705 14 9.0909 13.7761 9.0909 13.5V12.2273C9.4853 12.1235 9.86345 11.9656 10.2146 11.7582L11.1156 12.6592C11.3108 12.8545 11.6274 12.8545 11.8226 12.6592L12.6592 11.8226C12.8545 11.6274 12.8545 11.3108 12.6592 11.1156L11.7582 10.2146C11.9656 9.86345 12.1235 9.4853 12.2273 9.0909H13.5ZM8 10.7273C7.4606 10.7273 6.9333 10.5673 6.48481 10.2676C6.03631 9.96795 5.68675 9.54205 5.48033 9.0437C5.27391 8.54535 5.2199 7.99695 5.32513 7.46795C5.43037 6.93889 5.69011 6.45295 6.07153 6.07153C6.45295 5.69011 6.93889 5.43037 7.46795 5.32513C7.99695 5.2199 8.54535 5.27391 9.0437 5.48033C9.54205 5.68675 9.96795 6.03631 10.2676 6.48481C10.5673 6.9333 10.7273 7.4606 10.7273 8C10.7273 8.7233 10.4399 9.417 9.92845 9.92845C9.417 10.4399 8.7233 10.7273 8 10.7273Z" fill="#333333"/>
</svg>
