<svg width="16" height="16" viewBox="0 0 16 16" fill="none" xmlns="http://www.w3.org/2000/svg">
<path d="M8 2C4.7 2 2 4.7 2 8C2 11.3 4.7 14 8 14C11.3 14 14 11.3 14 8C14 4.7 11.3 2 8 2ZM8 12C5.8 12 4 10.2 4 8C4 5.8 5.8 4 8 4C10.2 4 12 5.8 12 8C12 10.2 10.2 12 8 12ZM10 8C10 9.1 9.1 10 8 10C6.9 10 6 9.1 6 8C6 6.9 6.9 6 8 6C9.1 6 10 6.9 10 8Z" fill="#333333"/>
<path d="M12 8.00003C12 10.2092 10.2092 12 8 12C5.79086 12 4 10.2092 4 8.00003C4 5.79089 5.79086 4.00003 8 4.00003C10.2092 4.00003 12 5.79089 12 8.00003ZM8 10C9.10455 10 10 9.10458 10 8.00003C10 6.89546 9.10455 6.00003 8 6.00003C6.89543 6.00003 6 6.89546 6 8.00003C6 9.10458 6.89543 10 8 10Z" fill="white"/>
</svg>
