<svg width="16" height="16" viewBox="0 0 16 16" fill="none" xmlns="http://www.w3.org/2000/svg">
<path d="M9.5 5.75C9.505 5.84493 9.505 5.94007 9.5 6.035C9.14206 6.07985 8.79207 6.17408 8.46 6.315C8.49089 6.12832 8.50428 5.93917 8.5 5.75C8.5 5.2061 8.33872 4.67442 8.03654 4.22218C7.73437 3.76995 7.30488 3.41747 6.80238 3.20933C6.29988 3.00119 5.74695 2.94673 5.2135 3.05284C4.68005 3.15895 4.19005 3.42086 3.80546 3.80546C3.42086 4.19005 3.15895 4.68005 3.05284 5.2135C2.94673 5.74695 3.00119 6.29988 3.20933 6.80238C3.41747 7.30488 3.76995 7.73437 4.22218 8.03654C4.67442 8.33872 5.2061 8.5 5.75 8.5C5.93963 8.49927 6.12879 8.48086 6.315 8.445C6.17171 8.78147 6.07742 9.13676 6.035 9.5H5.75C5.00832 9.5 4.2833 9.28007 3.66661 8.86801C3.04993 8.45596 2.56928 7.87029 2.28545 7.18506C2.00162 6.49984 1.92736 5.74584 2.07206 5.01841C2.21675 4.29098 2.5739 3.6228 3.09835 3.09835C3.6228 2.5739 4.29098 2.21675 5.01841 2.07206C5.74584 1.92736 6.49984 2.00162 7.18506 2.28545C7.87029 2.56928 8.45596 3.04993 8.86801 3.66661C9.28007 4.2833 9.5 5.00832 9.5 5.75ZM10 7C9.74507 7.00063 9.4913 7.03424 9.245 7.1C8.72911 7.23467 8.25843 7.50439 7.88141 7.88141C7.50439 8.25843 7.23467 8.72911 7.1 9.245C7.03424 9.4913 7.00063 9.74507 7 10C7 10.5933 7.17595 11.1734 7.50559 11.6667C7.83524 12.1601 8.30377 12.5446 8.85195 12.7716C9.40013 12.9987 10.0033 13.0581 10.5853 12.9424C11.1672 12.8266 11.7018 12.5409 12.1213 12.1213C12.5409 11.7018 12.8266 11.1672 12.9424 10.5853C13.0581 10.0033 12.9987 9.40013 12.7716 8.85195C12.5446 8.30377 12.1601 7.83524 11.6667 7.50559C11.1734 7.17595 10.5933 7 10 7ZM10.87 10L10.44 10.745L10 11.5L9.56 10.745L9.13 10L9.56 9.26L10 8.5L10.44 9.26L10.87 10ZM6.625 5.75L6.19 6.5L5.75 7.26L5.31 6.5L4.88 5.76L5.31 5L5.75 4.24L6.19 5L6.62 5.74L6.625 5.75Z" fill="white"/>
<path d="M5.75 2.99997C5.02065 2.99997 4.32118 3.2897 3.80546 3.80543C3.28973 4.32115 3 5.02062 3 5.74997C3 6.47931 3.28973 7.17879 3.80546 7.69451C4.32118 8.21024 5.02065 8.49997 5.75 8.49997C5.93963 8.49924 6.12878 8.48083 6.315 8.44497C6.72021 7.48736 7.48239 6.72518 8.44 6.31997C8.52487 5.91937 8.51922 5.50488 8.42344 5.10675C8.32766 4.70862 8.14418 4.33691 7.88639 4.01875C7.62861 3.70059 7.30302 3.44401 6.93341 3.26776C6.5638 3.0915 6.15949 3.00001 5.75 2.99997ZM6.62 5.75997L6.19 6.49997L5.75 7.25997L5.31 6.49997L4.88 5.75997L5.31 4.99997L5.75 4.23997L6.19 4.99997L6.62 5.73997V5.75997ZM10 5.99997C9.83269 5.99919 9.66556 6.01089 9.5 6.03497C9.14206 6.07982 8.79207 6.17405 8.46 6.31497C7.50239 6.72018 6.74021 7.48236 6.335 8.43997C6.18528 8.7773 6.08427 9.13421 6.035 9.49997C6.01092 9.66553 5.99922 9.83266 6 9.99997C6 10.7911 6.23459 11.5645 6.67412 12.2222C7.11365 12.88 7.73836 13.3927 8.46926 13.6955C9.20017 13.9982 10.0044 14.0774 10.7804 13.9231C11.5563 13.7688 12.269 13.3878 12.8284 12.8284C13.3878 12.269 13.7688 11.5563 13.9231 10.7803C14.0775 10.0044 13.9983 9.20014 13.6955 8.46923C13.3928 7.73833 12.8801 7.11362 12.2223 6.67409C11.5645 6.23456 10.7911 5.99997 10 5.99997ZM10 13C9.20435 13 8.44129 12.6839 7.87868 12.1213C7.31607 11.5587 7 10.7956 7 9.99997C7.00063 9.74504 7.03424 9.49127 7.1 9.24497C7.23467 8.72907 7.50439 8.25839 7.88141 7.88138C8.25842 7.50436 8.7291 7.23464 9.245 7.09997C9.4913 7.03421 9.74507 7.0006 10 6.99997C10.7956 6.99997 11.5587 7.31604 12.1213 7.87865C12.6839 8.44126 13 9.20432 13 9.99997C13 10.7956 12.6839 11.5587 12.1213 12.1213C11.5587 12.6839 10.7956 13 10 13ZM10.875 9.99997L10.445 10.745L10 11.5L9.56 10.745L9.13 9.99997L9.56 9.25997L10 8.49997L10.44 9.25997L10.87 9.99997H10.875Z" fill="#333333"/>
</svg>
