<svg width="16" height="16" viewBox="0 0 16 16" fill="none" xmlns="http://www.w3.org/2000/svg">
<path d="M10.5 9.12V14L8 12.5L5.5 14V9.12C6.20945 9.68801 7.09118 9.9975 8 9.9975C8.90882 9.9975 9.79055 9.68801 10.5 9.12ZM10.5 6C10.5 6.56317 10.3099 7.10985 9.96035 7.55146C9.61086 7.99307 9.12249 8.30373 8.57439 8.43312C8.02628 8.56251 7.45054 8.50305 6.94044 8.26436C6.43035 8.02568 6.01579 7.62175 5.76394 7.11803C5.51208 6.61432 5.43767 6.04031 5.55278 5.48903C5.66788 4.93774 5.96576 4.44147 6.39813 4.08062C6.83051 3.71977 7.37206 3.51548 7.93505 3.50084C8.49803 3.48621 9.04946 3.6621 9.5 4C9.81049 4.23287 10.0625 4.53483 10.2361 4.88197C10.4096 5.2291 10.5 5.61189 10.5 6Z" fill="#333333"/>
<path d="M8 2C7.20888 2 6.43552 2.2346 5.77772 2.67412C5.11992 3.11365 4.60723 3.73836 4.30448 4.46927C4.00173 5.20017 3.92252 6.00444 4.07686 6.78036C4.2312 7.55629 4.61216 8.26902 5.17157 8.82843C5.73098 9.38784 6.44372 9.7688 7.21964 9.92314C7.99556 10.0775 8.79983 9.99827 9.53074 9.69552C10.2616 9.39277 10.8864 8.88008 11.3259 8.22228C11.7654 7.56448 12 6.79113 12 6C12 4.93913 11.5786 3.92172 10.8284 3.17157C10.0783 2.42143 9.06087 2 8 2V2ZM9.5 8C8.99411 8.37942 8.36323 8.55303 7.73445 8.48586C7.10566 8.41868 6.52569 8.11573 6.11137 7.638C5.69704 7.16028 5.47915 6.5433 5.50157 5.91133C5.524 5.27937 5.78509 4.67938 6.23223 4.23223C6.67938 3.78508 7.27937 3.524 7.91133 3.50157C8.5433 3.47914 9.16028 3.69704 9.63801 4.11137C10.1157 4.52569 10.4187 5.10566 10.4859 5.73444C10.553 6.36323 10.3794 6.99411 10 7.5C9.85928 7.69073 9.69073 7.85927 9.5 8Z" fill="white"/>
</svg>
