<svg width="64" height="64" viewBox="0 0 64 64" fill="none" xmlns="http://www.w3.org/2000/svg">
<g clip-path="url(#clip0_548_11896)">
<g clip-path="url(#clip1_548_11896)">
<path d="M31.9168 0.00573885C31.9168 0.00573885 50.7809 -0.843365 60.7787 18.115H30.3127C30.3127 18.115 24.5588 17.9258 19.654 24.9065C18.2395 27.8308 16.7307 30.8491 18.4282 36.7903C15.976 32.6411 5.41174 14.2482 5.41174 14.2482C5.41174 14.2482 12.864 0.759993 31.9168 0.00573885Z" fill="#C6352E"/>
<path d="M59.7967 48.1405C59.7967 48.1405 51.0976 64.8999 29.6797 64.0762C32.3219 59.5028 44.9163 37.6939 44.9163 37.6939C44.9163 37.6939 47.9569 32.8061 44.3666 25.068C42.5413 22.3803 40.6827 19.564 34.6878 18.0624C39.5091 18.0146 60.7182 18.0655 60.7182 18.0655C60.7182 18.0655 68.6715 31.264 59.7967 48.1405Z" fill="#F4D911"/>
<path d="M4.17099 48.2679C4.17099 48.2679 -5.99301 32.3525 5.43077 14.2173C8.07059 18.7925 20.6583 40.6052 20.6583 40.6052C20.6583 40.6052 23.37 45.6822 31.8672 46.4425C35.1064 46.2062 38.4755 46.0047 42.7734 41.5644C40.4038 45.7628 29.7538 64.1056 29.7538 64.1056C29.7538 64.1056 14.3473 64.3928 4.17099 48.2679Z" fill="#81B354"/>
<path d="M29.6797 64.2312L33.9651 46.3486C33.9651 46.3486 38.6771 45.981 42.6253 41.6476C40.1743 45.9592 29.6797 64.2312 29.6797 64.2312Z" fill="#7BAA50"/>
<path d="M17.5642 32.3157C17.5642 24.4325 23.9541 18.0419 31.8381 18.0419C39.7212 18.0419 46.1118 24.4324 46.1118 32.3157C46.1118 40.1993 39.7215 46.5902 31.8381 46.5902C23.9541 46.5902 17.5642 40.1995 17.5642 32.3157Z" fill="white"/>
<path d="M19.9531 32.3157C19.9531 25.7522 25.2739 20.4313 31.8381 20.4313C38.401 20.4313 43.7223 25.7522 43.7223 32.3157C43.7223 38.8794 38.401 44.2007 31.8381 44.2007C25.2739 44.2008 19.9531 38.8791 19.9531 32.3157Z" fill="url(#paint0_linear_548_11896)"/>
<path d="M60.7183 18.0655L43.0721 23.2393C43.0721 23.2393 40.4111 19.3343 34.6876 18.0624C39.6469 18.0456 60.7183 18.0655 60.7183 18.0655Z" fill="#E7CE12"/>
<path d="M18.085 36.1486C15.6051 31.8538 5.41235 14.2477 5.41235 14.2477L18.4843 27.1789C18.4843 27.1789 17.1409 29.9422 17.6503 33.8889L18.085 36.1486Z" fill="#BC332C"/>
</g>
</g>
<defs>
<linearGradient id="paint0_linear_548_11896" x1="31.8376" y1="20.5995" x2="31.8376" y2="43.4896" gradientUnits="userSpaceOnUse">
<stop stop-color="#A2C0E6"/>
<stop offset="1" stop-color="#406CB1"/>
</linearGradient>
<clipPath id="clip0_548_11896">
<rect width="64" height="64" fill="white"/>
</clipPath>
<clipPath id="clip1_548_11896">
<rect width="64" height="64.2312" fill="white"/>
</clipPath>
</defs>
</svg>
