<svg width="64" height="64" viewBox="0 0 64 64" fill="none" xmlns="http://www.w3.org/2000/svg">
<g clip-path="url(#clip0_415_10217)">
<path d="M23.2107 1.32487C13.1631 2.06623 4.62154 2.74802 4.21994 2.82786C3.09394 3.02809 2.06961 3.78973 1.58795 4.79215L1.16602 5.67418L1.20668 26.6959L1.26642 47.7176L1.90948 49.0203C2.27168 49.7414 4.72321 53.1086 7.39588 56.5746C12.6815 63.4078 13.0627 63.7892 15.072 63.9895C15.6553 64.049 20.0361 63.8488 24.779 63.5687C29.5423 63.2684 37.1777 62.8071 41.7605 62.5473C61.3334 61.3624 60.3281 61.4625 61.4528 60.5006C62.8597 59.3385 62.7593 61.242 62.819 35.6923C62.8597 14.0294 62.8394 12.6075 62.5178 11.946C62.1366 11.2046 61.4528 10.6838 52.53 4.43098C46.5619 0.262883 46.14 0.0423759 43.466 0.0018228C42.3616 -0.037463 33.238 0.563229 23.2107 1.32487ZM45.7981 4.0698C46.642 4.44999 52.8121 8.73847 53.7157 9.56094C53.9572 9.80172 54.0372 10.002 53.9165 10.1223C53.6356 10.3631 15.452 12.6278 14.3476 12.4668C13.8456 12.387 13.1021 12.0866 12.6802 11.8053C10.9315 10.6229 6.59141 7.0758 6.59141 6.816C6.59141 6.1342 6.45034 6.1342 23.4725 4.91254C26.7285 4.69204 32.0739 4.29158 35.3299 4.03052C42.382 3.46911 44.4929 3.48939 45.7981 4.0698ZM57.9363 15.0318C58.2172 15.3119 58.4586 15.853 58.5387 16.3738C58.5984 16.8554 58.6391 25.8329 58.5984 36.293C58.5387 54.2479 58.5184 55.3707 58.1765 55.8915C57.9757 56.2122 57.5741 56.5531 57.2716 56.6532C56.429 56.9941 16.4179 59.2587 15.5943 59.0179C15.2131 58.9178 14.6895 58.5972 14.4086 58.3171L13.9257 57.7963L13.8659 38.4385C13.8253 24.852 13.8659 18.84 14.0273 18.2989C14.1481 17.8984 14.4493 17.4168 14.7111 17.2571C15.0733 17.0164 17.4447 16.8161 25.6038 16.3358C31.3317 16.0152 40.1935 15.4741 45.2783 15.1737C57.3733 14.4311 57.3339 14.4311 57.9363 15.0318Z" fill="white"/>
<path d="M47.1847 21.6645C45.0141 21.8052 43.0849 22.0054 42.8637 22.1258C42.2003 22.4667 41.7987 23.0281 41.7187 23.6694C41.6589 24.3309 41.8597 24.4107 44.0291 24.6718L44.9734 24.7922V33.3489C44.9734 38.4383 44.8933 41.8055 44.7929 41.7054C44.6925 41.585 41.8394 37.2572 38.4423 32.0867C35.0465 26.8972 32.2328 22.6277 32.1921 22.5884C32.1515 22.5478 29.9414 22.6682 27.2891 22.8495C24.0331 23.07 22.2449 23.2702 21.8827 23.4704C21.2994 23.7708 20.6563 24.8327 20.6563 25.5348C20.6563 25.9556 21.4201 26.1761 23.0278 26.1761H23.8717V50.7842L22.5055 51.2049C21.4405 51.5255 21.0783 51.7258 20.8978 52.1262C20.5763 52.808 20.5966 53.429 20.9181 53.429C21.0389 53.429 23.3099 53.2883 25.9216 53.1286C31.0865 52.8283 31.6685 52.6876 32.2112 51.6256C32.3726 51.305 32.5124 50.9641 32.5124 50.864C32.5124 50.7842 31.8096 50.5434 30.9645 50.3432C30.1003 50.1429 29.2361 49.9427 29.0556 49.9021C28.7137 49.802 28.6934 49.1811 28.6934 40.5635V31.325L34.8025 40.8842C41.2128 50.9033 42.0173 52.0464 43.0023 52.547C44.2287 53.1882 47.3436 52.7472 48.9106 51.7258L49.3935 51.4254L49.4342 37.759L49.4939 24.0724L50.5589 23.8721C51.8247 23.6314 52.408 23.0509 52.408 22.0485C52.408 21.4073 52.3674 21.3667 51.765 21.387C51.4053 21.4035 49.3351 21.5239 47.1847 21.6645Z" fill="white"/>
</g>
<defs>
<clipPath id="clip0_415_10217">
<rect width="64" height="64" fill="white"/>
</clipPath>
</defs>
</svg>
