<svg width="64" height="64" viewBox="0 0 64 64" fill="none" xmlns="http://www.w3.org/2000/svg">
  <g clip-path="url(#clip0_2471_37872)">
    <path d="M0.268555 63.4322L4.53083 47.5584C1.73701 42.7361 0.267525 37.274 0.268555 31.7152C0.268555 14.2375 14.5663 0 32.1178 0C40.6423 0 48.6298 3.30894 54.6697 9.29035C57.6379 12.2377 59.9898 15.7354 61.5908 19.5833C63.1917 23.4313 64.0104 27.5538 63.9999 31.7152C63.9999 49.1947 49.704 63.4322 32.1507 63.4322C26.816 63.4322 21.5799 62.0942 16.9139 59.5555L0.268555 63.4322Z" fill="url(#paint0_linear_2471_37872)"/>
    <path fill-rule="evenodd" clip-rule="evenodd" d="M22.6621 18.6902C21.9689 17.0979 21.1959 17.0601 20.5405 17.0601C19.9607 17.0201 19.3431 17.0201 18.6877 17.0201C18.0701 17.0201 17.0282 17.2533 16.1417 18.2238C15.2531 19.1943 12.8226 21.4862 12.8226 26.1853C12.8226 30.8824 16.2194 35.4262 16.6816 36.0459C17.1437 36.6677 23.2419 46.608 32.8882 50.4522C40.9148 53.6347 42.5365 53.015 44.2738 52.8197C46.0089 52.6264 49.8679 50.53 50.6787 48.2759C51.4497 46.0639 51.4497 44.1229 51.2186 43.7343C50.9875 43.3457 50.33 43.1125 49.4036 42.6083C48.4394 42.142 43.8095 39.8145 42.921 39.5015C42.0345 39.1906 41.4169 39.0351 40.7993 39.9678C40.1817 40.9383 38.3688 43.0747 37.789 43.6944C37.2492 44.3162 36.6715 44.3939 35.7451 43.9276C34.7788 43.4633 31.7328 42.4529 28.1029 39.1906C25.288 36.6677 23.3974 33.523 22.8176 32.5903C22.2777 31.6198 22.7399 31.1156 23.2419 30.6493C23.6663 30.2228 24.2082 29.5233 24.6704 28.9792C25.1325 28.4352 25.2859 28.0087 25.6346 27.3869C25.9434 26.7672 25.7879 26.1832 25.5569 25.719C25.3258 25.2905 23.5108 20.5934 22.6621 18.6902V18.6902Z" fill="white"/>
    <rect x="0.75" width="63" height="17" rx="8.5" fill="#111827"/>
    <path d="M25.4244 4.5H27.3144V11.64C27.3144 12.8 26.9294 13.685 26.1594 14.295C25.3994 14.905 24.4794 15.21 23.3994 15.21C22.5894 15.21 21.8744 15.055 21.2544 14.745C20.6444 14.435 20.1744 13.98 19.8444 13.38L21.4944 12.435C21.8744 13.135 22.5294 13.485 23.4594 13.485C24.0694 13.485 24.5494 13.325 24.8994 13.005C25.2494 12.685 25.4244 12.23 25.4244 11.64V10.83C24.8544 11.59 24.0544 11.97 23.0244 11.97C21.9644 11.97 21.0744 11.6 20.3544 10.86C19.6444 10.11 19.2894 9.2 19.2894 8.13C19.2894 7.07 19.6494 6.165 20.3694 5.415C21.0894 4.665 21.9744 4.29 23.0244 4.29C24.0544 4.29 24.8544 4.67 25.4244 5.43V4.5ZM21.8094 9.615C22.2094 9.995 22.7144 10.185 23.3244 10.185C23.9344 10.185 24.4344 9.995 24.8244 9.615C25.2244 9.225 25.4244 8.73 25.4244 8.13C25.4244 7.54 25.2244 7.055 24.8244 6.675C24.4344 6.285 23.9344 6.09 23.3244 6.09C22.7144 6.09 22.2094 6.285 21.8094 6.675C21.4194 7.055 21.2244 7.54 21.2244 8.13C21.2244 8.73 21.4194 9.225 21.8094 9.615ZM31.0041 5.79C31.1841 5.31 31.4791 4.95 31.8891 4.71C32.3091 4.47 32.7741 4.35 33.2841 4.35V6.51C32.6941 6.44 32.1641 6.56 31.6941 6.87C31.2341 7.18 31.0041 7.695 31.0041 8.415V12H29.0691V4.5H31.0041V5.79ZM40.5274 11.07C39.7574 11.83 38.8174 12.21 37.7074 12.21C36.5974 12.21 35.6574 11.83 34.8874 11.07C34.1274 10.3 33.7474 9.36 33.7474 8.25C33.7474 7.14 34.1274 6.205 34.8874 5.445C35.6574 4.675 36.5974 4.29 37.7074 4.29C38.8174 4.29 39.7574 4.675 40.5274 5.445C41.2974 6.205 41.6824 7.14 41.6824 8.25C41.6824 9.36 41.2974 10.3 40.5274 11.07ZM36.2524 9.735C36.6424 10.125 37.1274 10.32 37.7074 10.32C38.2874 10.32 38.7724 10.125 39.1624 9.735C39.5524 9.345 39.7474 8.85 39.7474 8.25C39.7474 7.65 39.5524 7.155 39.1624 6.765C38.7724 6.375 38.2874 6.18 37.7074 6.18C37.1274 6.18 36.6424 6.375 36.2524 6.765C35.8724 7.155 35.6824 7.65 35.6824 8.25C35.6824 8.85 35.8724 9.345 36.2524 9.735ZM47.9937 4.5H49.9287V12H47.9937V11.16C47.5237 11.86 46.7787 12.21 45.7587 12.21C44.9387 12.21 44.2587 11.935 43.7187 11.385C43.1887 10.835 42.9237 10.075 42.9237 9.105V4.5H44.8587V8.865C44.8587 9.365 44.9937 9.75 45.2637 10.02C45.5337 10.28 45.8937 10.41 46.3437 10.41C46.8437 10.41 47.2437 10.255 47.5437 9.945C47.8437 9.635 47.9937 9.17 47.9937 8.55V4.5ZM56.0659 4.29C57.0759 4.29 57.9359 4.675 58.6459 5.445C59.3659 6.205 59.7259 7.14 59.7259 8.25C59.7259 9.36 59.3659 10.3 58.6459 11.07C57.9359 11.83 57.0759 12.21 56.0659 12.21C55.0159 12.21 54.2059 11.845 53.6359 11.115V15H51.7009V4.5H53.6359V5.385C54.2059 4.655 55.0159 4.29 56.0659 4.29ZM54.2209 9.78C54.6109 10.17 55.1059 10.365 55.7059 10.365C56.3059 10.365 56.8009 10.17 57.1909 9.78C57.5909 9.38 57.7909 8.87 57.7909 8.25C57.7909 7.63 57.5909 7.125 57.1909 6.735C56.8009 6.335 56.3059 6.135 55.7059 6.135C55.1059 6.135 54.6109 6.335 54.2209 6.735C53.8309 7.125 53.6359 7.63 53.6359 8.25C53.6359 8.87 53.8309 9.38 54.2209 9.78Z" fill="white"/>
    <path d="M13.0227 7.18184C13.9659 7.18184 14.7216 6.42047 14.7216 5.47727C14.7216 4.53408 13.9659 3.77271 13.0227 3.77271C12.0795 3.77271 11.3181 4.53408 11.3181 5.47727C11.3181 6.42047 12.0795 7.18184 13.0227 7.18184ZM8.4772 7.18184C9.4204 7.18184 10.1761 6.42047 10.1761 5.47727C10.1761 4.53408 9.4204 3.77271 8.4772 3.77271C7.53401 3.77271 6.77263 4.53408 6.77263 5.47727C6.77263 6.42047 7.53401 7.18184 8.4772 7.18184ZM8.4772 8.31822C7.15332 8.31822 4.49988 8.983 4.49988 10.3069V11.7274H12.4545V10.3069C12.4545 8.983 9.80108 8.31822 8.4772 8.31822ZM13.0227 8.31822C12.8579 8.31822 12.6704 8.32958 12.4716 8.34663C13.1307 8.82391 13.5909 9.46596 13.5909 10.3069V11.7274H17V10.3069C17 8.983 14.3466 8.31822 13.0227 8.31822Z" fill="white"/>
  </g>
  <defs>
    <linearGradient id="paint0_linear_2471_37872" x1="31.9936" y1="63.9964" x2="31.9936" y2="-0.012659" gradientUnits="userSpaceOnUse">
      <stop stop-color="#20B038"/>
      <stop offset="1" stop-color="#60D66A"/>
    </linearGradient>
    <clipPath id="clip0_2471_37872">
      <rect width="63.3176" height="64" fill="white" transform="translate(0.34082)"/>
    </clipPath>
  </defs>
</svg>
