<svg width="64" height="64" viewBox="0 0 64 64" fill="none" xmlns="http://www.w3.org/2000/svg">
<g clip-path="url(#clip0_554_14860)">
<g clip-path="url(#clip1_554_14860)">
<path d="M39.9997 32.014C40.0008 34.3217 39.5846 36.6105 38.771 38.77C36.6107 39.5835 34.3214 40.0004 32.013 40.0008H31.986C29.609 39.9978 27.3315 39.5633 25.23 38.771C24.4159 36.6113 23.9992 34.3221 24 32.014V31.986C23.9989 29.6788 24.4147 27.3903 25.2275 25.231C27.3876 24.416 29.6775 23.999 31.9862 24H32.0132C34.3217 23.9989 36.6114 24.4159 38.7713 25.2307C39.5849 27.3899 40.0012 29.6784 40 31.9858V32.0137L39.9997 32.014ZM63.5555 26.6667H44.8765L58.0838 13.4585C57.0471 12.0023 55.8908 10.6351 54.6268 9.37125V9.37025C53.3627 8.10772 51.9959 6.95241 50.5405 5.91625L37.3322 19.1245V0.4455C35.5756 0.149982 33.7974 0.000969225 32.016 0L31.983 0C30.171 0.001 28.3962 0.155 26.6667 0.4455V19.1245L13.4585 5.91625C12.0029 6.95213 10.6367 8.10827 9.37425 9.3725L9.36725 9.3775C8.10539 10.6398 6.95066 12.0048 5.915 13.4585L19.1243 26.6667H0.4455C0.4455 26.6667 0 30.175 0 31.989V32.011C0 33.825 0.15375 35.6027 0.4455 37.3332H19.1245L5.91525 50.5415C7.99316 53.4575 10.5425 56.0068 13.4585 58.0848L26.6667 44.8755V63.5555C28.4215 63.8495 30.1975 63.9982 31.9767 64H32.022C33.8012 63.9984 35.5773 63.8497 37.332 63.5555V44.8755L50.5415 58.0848C51.9966 57.0482 53.3631 55.8926 54.6268 54.6297L54.6297 54.6268C55.892 53.3628 57.0473 51.9964 58.0838 50.5415L44.8745 37.3332H63.5555C63.8462 35.6057 63.998 33.8333 64 32.0233V31.9767C63.998 30.1667 63.8462 28.3942 63.5555 26.6667Z" fill="#FF4A00"/>
</g>
</g>
<defs>
<clipPath id="clip0_554_14860">
<rect width="64" height="64" fill="white"/>
</clipPath>
<clipPath id="clip1_554_14860">
<rect width="64" height="64" fill="white"/>
</clipPath>
</defs>
</svg>
