<svg class="sc-gjLLEI kKQUCC" style="--icon-color: #5e5e5f;" width="16" height="16" viewBox="0 0 16 16" fill="#5e5e5f" role="img" focusable="false" aria-hidden="true"><path fill-rule="evenodd" clip-rule="evenodd" d="M8.75006 4.85462C9.48302 4.55793 10.0001 3.83934 10.0001 3C10.0001 1.89543 9.10463 1 8.00006 1C6.89549 1 6.00006 1.89543 6.00006 3C6.00006 3.83934 6.5171 4.55793 7.25006 4.85462V6.05C7.25006 6.16046 7.16052 6.25 7.05006 6.25H6.00006C5.58585 6.25 5.25006 6.58579 5.25006 7C5.25006 7.41421 5.58585 7.75 6.00006 7.75H7.05006C7.16052 7.75 7.25006 7.83954 7.25006 7.95V11.9204C7.25006 12.0478 7.13243 12.1428 7.00976 12.1085C6.41202 11.9409 5.84078 11.6372 5.32256 11.2655C4.52588 10.6942 3.91832 10.0074 3.61609 9.57221C3.37983 9.23199 2.91249 9.14771 2.57227 9.38398C2.23205 9.62024 2.14777 10.0876 2.38404 10.4278C2.77626 10.9926 3.50203 11.8058 4.44841 12.4845C5.17705 13.007 6.07468 13.4767 7.08058 13.664C7.17775 13.682 7.25006 13.7657 7.25006 13.8645V14.25C7.25006 14.5594 7.66844 14.825 7.88023 14.9396C7.95539 14.9803 8.04474 14.9803 8.11989 14.9396C8.33169 14.825 8.75006 14.5594 8.75006 14.25V13.8645C8.75006 13.7657 8.82238 13.682 8.91954 13.664C9.92545 13.4767 10.8231 13.007 11.5517 12.4845C12.4981 11.8058 13.2239 10.9926 13.6161 10.4278C13.8523 10.0876 13.7681 9.62024 13.4279 9.38398C13.0876 9.14771 12.6203 9.23199 12.384 9.57221C12.0818 10.0074 11.4742 10.6942 10.6776 11.2655C10.1593 11.6372 9.58811 11.9409 8.99036 12.1085C8.86769 12.1428 8.75006 12.0478 8.75006 11.9204V7.95C8.75006 7.83954 8.8396 7.75 8.95006 7.75H10.0001C10.4143 7.75 10.7501 7.41421 10.7501 7C10.7501 6.58579 10.4143 6.25 10.0001 6.25H8.95006C8.8396 6.25 8.75006 6.16046 8.75006 6.05V4.85462ZM9.00006 3C9.00006 3.5 8.75006 4 8.00006 4C7.25006 4 7.00006 3.5 7.00006 3C7.00006 2.5 7.25006 2 8.00006 2C8.75006 2 9.00006 2.5 9.00006 3Z"></path></svg>