<svg width="16" height="16" viewBox="0 0 16 16" fill="#c3c4c6" xmlns="http://www.w3.org/2000/svg"><path d="M14.0055 11.9103C13.7853 12.3994 13.5247 12.8496 13.2228 13.2635C12.8112 13.8278 12.4742 14.2185 12.2145 14.4354C11.812 14.7914 11.3806 14.9737 10.9187 14.9841C10.5871 14.9841 10.1873 14.8934 9.72178 14.7093C9.25477 14.5261 8.8256 14.4354 8.43317 14.4354C8.02161 14.4354 7.58021 14.5261 7.10808 14.7093C6.63523 14.8934 6.2543 14.9893 5.96306 14.9988C5.52014 15.0169 5.07865 14.8294 4.63797 14.4354C4.3567 14.1994 4.0049 13.795 3.58345 13.2221C3.13126 12.6102 2.75951 11.9007 2.46827 11.0919C2.15636 10.2182 2 9.37218 2 8.55312C2 7.61489 2.21081 6.80568 2.63307 6.12756C2.96493 5.58287 3.40642 5.15321 3.95898 4.83779C4.51153 4.52236 5.10857 4.36163 5.75153 4.35134C6.10334 4.35134 6.56468 4.45599 7.138 4.66167C7.7097 4.86803 8.07678 4.97268 8.23772 4.97268C8.35805 4.97268 8.76584 4.85032 9.45714 4.60636C10.1109 4.38012 10.6626 4.28644 11.1146 4.32334C12.3394 4.4184 13.2596 4.88272 13.8716 5.71924C12.7762 6.35752 12.2343 7.2515 12.2451 8.39834C12.255 9.29164 12.592 10.035 13.2542 10.6252C13.5544 10.8992 13.8896 11.1109 14.2625 11.2613C14.1816 11.4868 14.0962 11.7029 14.0055 11.9103ZM11.1964 1.28008C11.1964 1.98024 10.9304 2.63398 10.4002 3.23907C9.76042 3.9584 8.98654 4.37407 8.14732 4.30848C8.13663 4.22448 8.13043 4.13608 8.13043 4.04318C8.13043 3.37103 8.4347 2.65169 8.97504 2.06354C9.2448 1.76574 9.58789 1.51813 10.0039 1.32061C10.4191 1.12603 10.8118 1.01842 11.1811 1C11.1919 1.0936 11.1964 1.18721 11.1964 1.28007V1.28008Z"></path></svg>
