<svg class="sc-gjLLEI kKQUCC" style="--icon-color: #5e5e5f;" width="16" height="16" viewBox="0 0 16 16" fill="#5e5e5f" role="img" focusable="false" aria-hidden="true"><path d="M7.69518 1.10369C7.8749 0.965437 8.12516 0.965437 8.30489 1.10369L14.8049 6.10369C14.9746 6.23422 15.0423 6.45831 14.9734 6.661C14.9045 6.86369 14.7141 7 14.5 7H1.50003C1.28594 7 1.0956 6.86369 1.02666 6.661C0.957722 6.45831 1.02548 6.23422 1.19518 6.10369L7.69518 1.10369Z"></path><path d="M1.00003 14.5385C1.00003 14.0364 1.00003 13.7853 1.08813 13.5896C1.18841 13.3668 1.3668 13.1884 1.58962 13.0881C1.78537 13 2.03641 13 2.53849 13H2.68003C2.79204 13 2.84805 13 2.89083 12.9782C2.92846 12.959 2.95906 12.9284 2.97823 12.8908C3.00003 12.848 3.00003 12.792 3.00003 12.68V8.48C3.00003 8.31198 3.00003 8.22798 3.03273 8.1638C3.06149 8.10735 3.10738 8.06146 3.16383 8.0327C3.22801 8 3.31201 8 3.48003 8H4.52003C4.68805 8 4.77205 8 4.83623 8.0327C4.89268 8.06146 4.93857 8.10735 4.96733 8.1638C5.00003 8.22798 5.00003 8.31198 5.00003 8.48V12.68C5.00003 12.792 5.00003 12.848 5.02183 12.8908C5.041 12.9284 5.0716 12.959 5.10923 12.9782C5.15201 13 5.20802 13 5.32003 13H6.68003C6.79204 13 6.84805 13 6.89083 12.9782C6.92846 12.959 6.95906 12.9284 6.97823 12.8908C7.00003 12.848 7.00003 12.792 7.00003 12.68V8.48C7.00003 8.31198 7.00003 8.22798 7.03273 8.1638C7.06149 8.10735 7.10738 8.06146 7.16383 8.0327C7.22801 8 7.31201 8 7.48003 8H8.52003C8.68805 8 8.77205 8 8.83623 8.0327C8.89268 8.06146 8.93857 8.10735 8.96733 8.1638C9.00003 8.22798 9.00003 8.31198 9.00003 8.48V12.68C9.00003 12.792 9.00003 12.848 9.02183 12.8908C9.041 12.9284 9.0716 12.959 9.10923 12.9782C9.15201 13 9.20802 13 9.32003 13H10.68C10.792 13 10.848 13 10.8908 12.9782C10.9285 12.959 10.9591 12.9284 10.9782 12.8908C11 12.848 11 12.792 11 12.68V8.48C11 8.31198 11 8.22798 11.0327 8.1638C11.0615 8.10735 11.1074 8.06146 11.1638 8.0327C11.228 8 11.312 8 11.48 8H12.52C12.688 8 12.7721 8 12.8362 8.0327C12.8927 8.06146 12.9386 8.10735 12.9673 8.1638C13 8.22798 13 8.31198 13 8.48V12.68C13 12.792 13 12.848 13.0218 12.8908C13.041 12.9284 13.0716 12.959 13.1092 12.9782C13.152 13 13.208 13 13.32 13H13.4616C13.9637 13 14.2147 13 14.4104 13.0881C14.6333 13.1884 14.8116 13.3668 14.9119 13.5896C15 13.7853 15 14.0364 15 14.5385C15 14.6891 15 14.7644 14.9736 14.8231C14.9435 14.89 14.89 14.9435 14.8232 14.9736C14.7644 15 14.6891 15 14.5385 15H1.46157C1.31094 15 1.23563 15 1.17691 14.9736C1.11006 14.9435 1.05654 14.89 1.02646 14.8231C1.00003 14.7644 1.00003 14.6891 1.00003 14.5385Z"></path></svg>