<svg width="16" height="16" viewBox="0 0 16 16" fill="#c3c4c6" xmlns="http://www.w3.org/2000/svg"><path d="M3.61261 6.03903C3.5 6.25577 3.5 6.54051 3.5 7.11V8.89C3.5 9.45949 3.5 9.74423 3.61261 9.96097C3.70746 10.1436 3.85638 10.2925 4.039 10.3874C4.25574 10.5 4.54053 10.5 5.10999 10.5H5.5V5.5H5.10999C4.54053 5.5 4.25574 5.5 4.039 5.61258C3.85638 5.70746 3.70746 5.85638 3.61261 6.03903Z"></path><path d="M11.5 8.89C11.5 9.45949 11.5 9.74423 11.3874 9.96097C11.2925 10.1436 11.1436 10.2925 10.961 10.3874C10.7443 10.5 10.4595 10.5 9.89001 10.5H9.5V8V5.5H9.89001C10.4595 5.5 10.7443 5.5 10.961 5.61258C11.1436 5.70746 11.2925 5.85638 11.3874 6.03903C11.5 6.25577 11.5 6.54051 11.5 7.11V8.89Z"></path><path d="M8.5 5.5H6.5V10.5H8.5V5.5Z"></path><path fill-rule="evenodd" clip-rule="evenodd" d="M1.32697 4.63803C1 5.27977 1 6.11984 1 7.8V8.2C1 9.88016 1 10.7202 1.32697 11.362C1.61462 11.9265 2.07355 12.3854 2.638 12.673C3.27979 13 4.11987 13 5.79999 13H9.20001C10.8801 13 11.7202 13 12.362 12.673C12.9265 12.3854 13.3854 11.9265 13.673 11.362C13.8546 11.0057 13.9352 10.5883 13.9712 10H14C14.5523 10 15 9.55229 15 9V7C15 6.44771 14.5523 6 14 6H13.9712C13.9352 5.41168 13.8546 4.99429 13.673 4.63803C13.3854 4.07355 12.9265 3.61459 12.362 3.32698C11.7202 3 10.8801 3 9.20001 3H5.79999C4.11987 3 3.27979 3 2.638 3.32698C2.07355 3.61459 1.61462 4.07355 1.32697 4.63803ZM9.20001 4.5H5.79999C4.93518 4.5 4.37677 4.50116 3.95178 4.53589C3.54425 4.56918 3.39319 4.6257 3.31903 4.66348C3.03674 4.8073 2.80731 5.03677 2.66351 5.31902C2.62567 5.39317 2.56921 5.54427 2.53589 5.95175C2.50116 6.37675 2.5 6.93517 2.5 7.8V8.2C2.5 9.06483 2.50116 9.62325 2.53589 10.0482C2.56921 10.4557 2.62567 10.6068 2.66351 10.681C2.80731 10.9632 3.03674 11.1927 3.31903 11.3365C3.39319 11.3743 3.54425 11.4308 3.95178 11.4641C4.37677 11.4988 4.93518 11.5 5.79999 11.5H9.20001C10.0648 11.5 10.6232 11.4988 11.0482 11.4641C11.4557 11.4308 11.6068 11.3743 11.681 11.3365C11.9633 11.1927 12.1927 10.9632 12.3365 10.681C12.3743 10.6068 12.4308 10.4557 12.4641 10.0482C12.4988 9.62325 12.5 9.06483 12.5 8.2V7.8C12.5 6.93517 12.4988 6.37675 12.4641 5.95175C12.4308 5.54427 12.3743 5.39317 12.3365 5.31902C12.1927 5.03677 11.9633 4.8073 11.681 4.66348C11.6068 4.6257 11.4557 4.56918 11.0482 4.53589C10.6232 4.50116 10.0648 4.5 9.20001 4.5Z"></path></svg>
