<svg width="16" height="16" viewBox="0 0 16 16" fill="#c3c4c6" class="sc-evZas jTKEnn"><path d="M7.13438 2.14148C7.04561 1.53894 7.52983 1 8.15731 1H9.90859C10.5361 1 11.0203 1.53894 10.9315 2.14148L10.066 8H10.5744C11.1393 8 11.6639 8.22278 12.0432 8.59326C12.2813 8.82666 12.4629 9.11865 12.5597 9.45056L12.7211 10H5.34477L5.50618 9.45056C5.75838 8.59192 6.56945 8 7.4915 8H7.99993L7.13438 2.14148Z"></path><path d="M5.03356 11L3.00789 14.3627C2.91508 14.682 3.66482 15 4.00781 15H4.54927C4.84039 15 5.11706 14.8731 5.30703 14.6525L6.76092 12.9642C6.83019 12.7966 7.0753 12.7966 7.14457 12.9642L6.91397 13.7015C6.71254 14.3455 7.19362 15 7.86837 15H8.58015C8.85971 15 9.1265 14.883 9.31585 14.6773L10.893 12.9642C10.9622 12.7966 11.2074 12.7966 11.2766 12.9642L10.8747 14.1058C10.7209 14.5424 11.0449 15 11.5078 15C11.8508 15 12.5078 15 12.4377 14.3627L13.0031 11H5.03356Z"></path></svg>