<svg width="16" height="16" viewBox="0 0 16 16" fill="#c3c4c6" xmlns="http://www.w3.org/2000/svg"><path fill-rule="evenodd" clip-rule="evenodd" d="M8 1C11.3137 1 14 2.55863 14 4.4813C14 4.65001 13.9793 4.81592 13.9393 4.97822L13.9403 4.97863L11.9789 12.8369C11.9623 12.9034 11.9321 12.9657 11.8903 13.0201C10.8709 14.34 9.57414 15 8 15C6.42568 15 5.13233 14.3399 4.11994 13.0196C4.09241 12.9837 4.06998 12.9443 4.0532 12.9026L4.03232 12.8384L2.07769 5.04301C2.02657 4.86016 2 4.67253 2 4.4813C2 2.55863 4.68629 1 8 1ZM8 1.99466C5.37665 1.99466 3.25 3.10797 3.25 4.4813C3.25 5.85464 5.37665 6.96795 8 6.96795C10.6234 6.96795 12.75 5.85464 12.75 4.4813C12.75 3.10797 10.6234 1.99466 8 1.99466Z"></path></svg>
