<svg width="16" height="16" viewBox="0 0 16 16" fill="#c3c4c6" class="sc-evZas jTKEnn"><path d="M8 11.5C9.38071 11.5 10.5 10.3807 10.5 9C10.5 7.61929 9.38071 6.5 8 6.5C6.61929 6.5 5.5 7.61929 5.5 9C5.5 10.3807 6.61929 11.5 8 11.5Z"></path><path fill-rule="evenodd" clip-rule="evenodd" d="M8.8 2C9.16931 2 9.50856 2.20355 9.68235 2.52941L10.1843 3.47059C10.3581 3.79645 10.6974 4 11.0667 4H13.5C14.3284 4 15 4.67157 15 5.5V12.5C15 13.3284 14.3284 14 13.5 14H2.5C1.67157 14 1 13.3284 1 12.5V5.5C1 4.67157 1.67157 4 2.5 4H4.93333C5.30264 4 5.64189 3.79645 5.81569 3.47059L6.31765 2.52941C6.49144 2.20355 6.83069 2 7.2 2H8.8ZM8 13C10.2091 13 12 11.2091 12 9C12 6.79086 10.2091 5 8 5C5.79086 5 4 6.79086 4 9C4 11.2091 5.79086 13 8 13ZM12.5 5.5C12.5 5.22386 12.7239 5 13 5H13.5C13.7761 5 14 5.22386 14 5.5V6C14 6.27614 13.7761 6.5 13.5 6.5H13C12.7239 6.5 12.5 6.27614 12.5 6V5.5Z"></path></svg>