<svg class="sc-gjLLEI kKQUCC" style="--icon-color: #5e5e5f;" width="16" height="16" viewBox="0 0 16 16" fill="#5e5e5f" role="img" focusable="false" aria-hidden="true"><path d="M7.5 13.75C7.5 14.4404 6.94036 15 6.25 15C5.55964 15 5 14.4404 5 13.75C5 13.0596 5.55964 12.5 6.25 12.5C6.94036 12.5 7.5 13.0596 7.5 13.75Z"></path><path d="M13.5 13.75C13.5 14.4404 12.9404 15 12.25 15C11.5596 15 11 14.4404 11 13.75C11 13.0596 11.5596 12.5 12.25 12.5C12.9404 12.5 13.5 13.0596 13.5 13.75Z"></path><path d="M1.75012 0.994995C1.33314 0.994995 0.995117 1.33302 0.995117 1.75C0.995117 2.16697 1.33314 2.505 1.75012 2.505H2.61993C3.21076 2.505 3.72022 2.92025 3.83936 3.49894L5.26063 11.4022C5.33288 11.7532 5.64183 12.005 6.00012 12.005H12.5001C12.5297 12.005 12.5588 12.0033 12.5874 12H12.6916C13.1631 12 13.5706 11.6706 13.6694 11.2095L14.9778 6.20953C15.1112 5.58702 14.6366 5 14 5H5.48419L5.31834 3.19444C5.0547 1.91389 3.92734 0.994995 2.61993 0.994995H1.75012Z"></path></svg>