<svg width="16" height="16" viewBox="0 0 16 16" fill="#8A8F98" class="sc-exqIPC bLrUyz"><path fill-rule="evenodd" clip-rule="evenodd" d="M1 2C1 1.44772 1.44772 1 2 1H14C14.5523 1 15 1.44772 15 2V10C15 10.5523 14.5523 11 14 11H2C1.44772 11 1 10.5523 1 10V2ZM10.9656 3C10.6092 3 10.4308 3.43086 10.6827 3.68284L10.9696 3.96968L9.08285 5.8564C8.99488 5.94437 8.85561 5.95427 8.75608 5.87962L8.08747 5.37817C7.43463 4.88854 6.53004 4.91512 5.90707 5.44224L3.26546 7.67746C2.94925 7.94502 2.90982 8.41825 3.17737 8.73446C3.44493 9.05066 3.91816 9.0901 4.23437 8.82254L6.87599 6.58732C6.96498 6.51202 7.09421 6.50822 7.18747 6.57817L7.85608 7.07962C8.55279 7.60216 9.5277 7.53287 10.1435 6.91706L12.0302 5.03034L12.3171 5.31716C12.569 5.56914 12.9999 5.39068 12.9999 5.03431V3.4C12.9999 3.17909 12.8208 3 12.5999 3H10.9656Z"></path><path d="M7 12V13.5854C6.4174 13.7913 6 14.3469 6 15H10C10 14.3469 9.5826 13.7913 9 13.5854V12H7Z"></path></svg>