<svg class="sc-gjLLEI kKQUCC" style="--icon-color: #5e5e5f;" width="16" height="16" viewBox="0 0 16 16" fill="#5e5e5f" role="img" focusable="false" aria-hidden="true"><path d="M10 3.58C10 3.03881 10 2.76821 9.89803 2.56006C9.80039 2.36076 9.63924 2.19961 9.43994 2.10197C9.23179 2 8.96119 2 8.42 2H7.58C7.03881 2 6.76821 2 6.56006 2.10197C6.36076 2.19961 6.19961 2.36076 6.10197 2.56006C6 2.76821 6 3.03881 6 3.58V5.21C6 5.4806 6 5.61589 5.94901 5.71997C5.9002 5.81962 5.81962 5.9002 5.71997 5.94901C5.61589 6 5.4806 6 5.21 6H3.58C3.03881 6 2.76821 6 2.56006 6.10197C2.36076 6.19961 2.19961 6.36076 2.10197 6.56006C2 6.76821 2 7.03881 2 7.58V8.42C2 8.96119 2 9.23179 2.10197 9.43994C2.19961 9.63924 2.36076 9.80039 2.56006 9.89803C2.76821 10 3.03881 10 3.58 10H5.21C5.4806 10 5.61589 10 5.71997 10.051C5.81962 10.0998 5.9002 10.1804 5.94901 10.28C6 10.3841 6 10.5194 6 10.79V12.42C6 12.9612 6 13.2318 6.10197 13.4399C6.19961 13.6392 6.36076 13.8004 6.56006 13.898C6.76821 14 7.03881 14 7.58 14H8.42C8.96119 14 9.23179 14 9.43994 13.898C9.63924 13.8004 9.80039 13.6392 9.89803 13.4399C10 13.2318 10 12.9612 10 12.42V10.79C10 10.5194 10 10.3841 10.051 10.28C10.0998 10.1804 10.1804 10.0998 10.28 10.051C10.3841 10 10.5194 10 10.79 10H12.42C12.9612 10 13.2318 10 13.4399 9.89803C13.6392 9.80039 13.8004 9.63924 13.898 9.43994C14 9.23179 14 8.96119 14 8.42V7.58C14 7.03881 14 6.76821 13.898 6.56006C13.8004 6.36076 13.6392 6.19961 13.4399 6.10197C13.2318 6 12.9612 6 12.42 6L10.79 6C10.5194 6 10.3841 6 10.28 5.94901C10.1804 5.9002 10.0998 5.81962 10.051 5.71997C10 5.61589 10 5.4806 10 5.21V3.58Z"></path></svg>