<svg width="16" height="16" viewBox="0 0 16 16" fill="#c3c4c6" class="sc-evZas jTKEnn"><path fill-rule="evenodd" clip-rule="evenodd" d="M8.4234 1.07451C8.14973 0.975164 7.85027 0.975165 7.5766 1.07451L1.49596 3.28179C1.19839 3.3898 1 3.67443 1 3.99334V11.2269C1 11.7267 1.29288 12.1793 1.74658 12.3806L7.31364 14.8505C7.74381 15.0413 8.23202 15.0497 8.66837 14.8737L14.2142 12.6369C14.6888 12.4455 15 11.982 15 11.4666V3.99334C15 3.67443 14.8016 3.3898 14.504 3.28179L8.4234 1.07451ZM3.8617 4.03055L8 2.52834L12.1383 4.03055L8 5.69967L3.8617 4.03055ZM8.75 7.02618L13.5 5.11034V11.2959L8.75 13.2118V7.02618ZM7.25 7.02618L2.5 5.11034V11.0624L7.25 13.1698V7.02618Z"></path></svg>