<svg xmlns="http://www.w3.org/2000/svg" style="--icon-color: #5e5e5f;" width="16" height="16" viewBox="0 0 16 16" fill="#5e5e5f" role="img" focusable="false" aria-hidden="true"><path fill-rule="evenodd" clip-rule="evenodd" d="M4.12109 2H11.8789C12.2743 1.99999 12.6154 1.99998 12.8963 2.02293C13.1928 2.04715 13.4877 2.10064 13.7715 2.24524C14.1948 2.46095 14.5391 2.80516 14.7548 3.22852C14.8994 3.51231 14.9528 3.80722 14.9771 4.10373C15 4.38466 15 4.72572 15 5.12108V10.8789C15 11.2743 15 11.6153 14.9771 11.8963C14.9528 12.1928 14.8994 12.4877 14.7548 12.7715C14.5391 13.1948 14.1948 13.5391 13.7715 13.7548C13.4877 13.8994 13.1928 13.9528 12.8963 13.9771C12.6153 14 12.2743 14 11.8789 14H4.12108C3.72572 14 3.38466 14 3.10373 13.9771C2.80722 13.9528 2.51231 13.8994 2.22852 13.7548C1.80516 13.5391 1.46095 13.1948 1.24524 12.7715C1.10064 12.4877 1.04715 12.1928 1.02293 11.8963C0.999977 11.6154 0.999988 11.2743 1 10.8789V5.12106C0.999988 4.72572 0.999977 4.38465 1.02293 4.10373C1.04715 3.80722 1.10064 3.51231 1.24524 3.22852C1.46095 2.80516 1.80516 2.46095 2.22852 2.24524C2.51231 2.10064 2.80722 2.04715 3.10373 2.02293C3.38465 1.99998 3.72574 1.99999 4.12109 2ZM2.5 10.85V7H13.5V10.85C13.5 11.2824 13.4994 11.5616 13.4821 11.7741C13.4654 11.9779 13.4372 12.0534 13.4183 12.0905C13.3464 12.2316 13.2316 12.3464 13.0905 12.4183C13.0534 12.4372 12.9779 12.4654 12.7741 12.4821C12.5616 12.4994 12.2824 12.5 11.85 12.5H4.15C3.71759 12.5 3.43838 12.4994 3.22588 12.4821C3.02213 12.4654 2.94659 12.4372 2.90951 12.4183C2.76839 12.3464 2.65365 12.2316 2.58175 12.0905C2.56285 12.0534 2.53459 11.9779 2.51795 11.7741C2.50059 11.5616 2.5 11.2824 2.5 10.85ZM3.25 5C3.66421 5 4 4.66421 4 4.25C4 3.83579 3.66421 3.5 3.25 3.5C2.83579 3.5 2.5 3.83579 2.5 4.25C2.5 4.66421 2.83579 5 3.25 5ZM6.5 4.25C6.5 4.66421 6.16421 5 5.75 5C5.33579 5 5 4.66421 5 4.25C5 3.83579 5.33579 3.5 5.75 3.5C6.16421 3.5 6.5 3.83579 6.5 4.25ZM8.25 5C8.66421 5 9 4.66421 9 4.25C9 3.83579 8.66421 3.5 8.25 3.5C7.83579 3.5 7.5 3.83579 7.5 4.25C7.5 4.66421 7.83579 5 8.25 5Z"></path></svg>
