<svg xmlns="http://www.w3.org/2000/svg" style="--icon-color: #5e5e5f;" width="16" height="16" viewBox="0 0 16 16" fill="#5e5e5f" role="img" focusable="false" aria-hidden="true"><path d="M7.74826 11.353L3.02473 8.5976C2.82997 8.48399 2.62537 8.72932 2.7721 8.90051L7.92427 14.9114C7.96418 14.9579 8.03621 14.9579 8.07612 14.9114L13.2283 8.90051C13.375 8.72932 13.1704 8.48399 12.9757 8.5976L8.25213 11.353C8.09645 11.4438 7.90394 11.4438 7.74826 11.353Z"></path><path d="M3.10857 6.53766L7.85031 1.16964C7.92992 1.07952 8.07049 1.07952 8.1501 1.16964L12.8918 6.53765C13.1022 6.77582 13.04 7.14726 12.7634 7.3038L8.24651 9.86054C8.0937 9.94703 7.90671 9.94703 7.75391 9.86054L3.23701 7.3038C2.96045 7.14726 2.89818 6.77583 3.10857 6.53766Z"></path></svg>
