<svg xmlns="http://www.w3.org/2000/svg" style="--icon-color: #5e5e5f;" width="16" height="16" viewBox="0 0 16 16" fill="#5e5e5f" role="img" focusable="false" aria-hidden="true"><path fill-rule="evenodd" clip-rule="evenodd" d="M15 8C15 11.866 11.866 15 8 15C4.13401 15 1 11.866 1 8C1 4.13401 4.13401 1 8 1C11.866 1 15 4.13401 15 8ZM9 6C9 5.44772 9.44771 5 10 5C10.5523 5 11 5.44772 11 6V6.5C11 6.77614 10.7761 7 10.5 7H9.5C9.22386 7 9 6.77614 9 6.5V6ZM6 5C5.44772 5 5 5.44772 5 6V6.5C5 6.77614 5.22386 7 5.5 7H6.5C6.77614 7 7 6.77614 7 6.5V6C7 5.44772 6.55228 5 6 5ZM3.37604 8.58405C3.60581 8.23941 4.07146 8.14628 4.4161 8.37604C4.79311 8.62738 6.14839 9.25008 8.00008 9.25008C9.85177 9.25008 11.2071 8.62738 11.5841 8.37604C11.9287 8.14628 12.3944 8.23941 12.6241 8.58405C12.8539 8.9287 12.7608 9.39435 12.4161 9.62412C12.3161 9.69079 12.1898 9.76506 12.0393 9.84279L12.3332 10.4307C12.9072 11.5787 12.2705 12.963 11.0254 13.2743C10.1131 13.5023 9.1649 13.0662 8.74438 12.2252L8.00684 10.7501L8.00008 10.7501C5.85177 10.7501 4.20705 10.0394 3.58405 9.62412C3.23941 9.39435 3.14628 8.9287 3.37604 8.58405Z"></path><path d="M9.63881 11.7779L9 10.5L11 10L11.4388 10.8779C11.7267 11.4537 11.4074 12.148 10.7829 12.3041C10.3253 12.4185 9.84972 12.1998 9.63881 11.7779Z"></path></svg>
