<svg xmlns="http://www.w3.org/2000/svg" style="--icon-color: #5e5e5f;" width="16" height="16" viewBox="0 0 16 16" fill="#5e5e5f" role="img" focusable="false" aria-hidden="true"><path fill-rule="evenodd" clip-rule="evenodd" d="M8 15C11.866 15 15 11.866 15 8C15 4.13403 11.866 1 8 1C4.134 1 1 4.13403 1 8C1 11.866 4.134 15 8 15ZM7.15384 10C6.5166 10 6 10.5166 6 11.1539C6 12.1735 6.82654 13 7.84616 13H8.15384C9.17346 13 10 12.1735 10 11.1539C10 10.5166 9.4834 10 8.84616 10H7.15384ZM7.47803 5.98492C7.45279 5.91779 7.4075 5.8598 7.34821 5.81885C7.28891 5.77789 7.21841 5.7558 7.14612 5.75562H5.70923C5.68478 5.75562 5.66092 5.74811 5.64096 5.73407C5.621 5.72009 5.60593 5.70032 5.59784 5.67743L5.08203 4.22809C5.05676 4.16113 5.01144 4.10339 4.95218 4.06262C4.89291 4.02185 4.82251 4 4.75037 4C4.72293 4 4.69574 4.00317 4.66931 4.00934C4.62625 4.01935 4.58524 4.03735 4.54852 4.06262C4.51404 4.08636 4.48431 4.11578 4.46048 4.14941C4.44333 4.17365 4.42926 4.20007 4.4187 4.22809L4.41751 4.23187L3.90289 5.67743C3.89481 5.70026 3.87976 5.72003 3.85983 5.73401C3.8483 5.74213 3.83545 5.74805 3.82193 5.75165C3.81213 5.75427 3.80197 5.75562 3.79172 5.75562H2.35437C2.28162 5.75555 2.2106 5.77771 2.151 5.81903C2.1228 5.83862 2.09781 5.86206 2.07666 5.88849C2.05313 5.91791 2.03436 5.95105 2.02127 5.98676C2.01163 6.01306 2.00525 6.04028 2.00217 6.06781C1.99731 6.11121 2.00061 6.15533 2.01218 6.19794C2.0311 6.26758 2.0712 6.32971 2.12701 6.37598L3.35077 7.38232C3.36908 7.39734 3.38235 7.41754 3.38889 7.44025C3.39542 7.46289 3.39487 7.487 3.38736 7.5094L2.8732 9.03778C2.86017 9.0766 2.85413 9.11713 2.85513 9.15753C2.85596 9.19067 2.86154 9.22375 2.87189 9.25574C2.89478 9.32672 2.93982 9.38861 3.00055 9.4325C3.06125 9.47632 3.13449 9.5 3.20963 9.49982C3.28476 9.49976 3.35791 9.47595 3.41852 9.43195L4.68048 8.51453C4.70071 8.49982 4.72516 8.49188 4.75024 8.49188C4.77533 8.49188 4.79974 8.49982 4.82001 8.51453L6.08151 9.4317C6.14206 9.47589 6.21527 9.49982 6.29047 9.5C6.36566 9.50018 6.43896 9.47668 6.49979 9.4328C6.56058 9.38892 6.60571 9.32697 6.62866 9.25598C6.64056 9.21899 6.64615 9.18054 6.64542 9.14221C6.64474 9.10693 6.63867 9.07172 6.62726 9.03778L6.11313 7.50842C6.10559 7.48608 6.10507 7.46198 6.1116 7.43927C6.11426 7.43005 6.11801 7.42126 6.1228 7.41309C6.1257 7.40808 6.12897 7.40332 6.13257 7.3988C6.13763 7.39246 6.14337 7.3866 6.14969 7.38135L7.37582 6.37366C7.43091 6.32703 7.47028 6.26471 7.48853 6.19519C7.50684 6.12573 7.50317 6.05231 7.47803 5.98492ZM13.8482 5.81885C13.9075 5.8598 13.9528 5.91779 13.978 5.98492C14.0032 6.05231 14.0068 6.12573 13.9885 6.19519C13.9703 6.26471 13.9309 6.32703 13.8758 6.37366L12.6497 7.38135C12.6314 7.39642 12.6181 7.41663 12.6116 7.43927C12.6051 7.46198 12.6056 7.48608 12.6131 7.50842L13.1273 9.03778C13.1511 9.10852 13.1516 9.18494 13.1287 9.25598C13.1057 9.32697 13.0606 9.38892 12.9998 9.4328C12.9653 9.45764 12.9268 9.47595 12.8863 9.48712C12.8553 9.49567 12.8231 9.50006 12.7905 9.5C12.7153 9.49982 12.6421 9.47589 12.5815 9.4317L11.32 8.51453C11.2997 8.49982 11.2753 8.49188 11.2502 8.49188C11.2252 8.49188 11.2007 8.49982 11.1805 8.51453L9.91852 9.43195C9.85791 9.47595 9.78476 9.49976 9.70963 9.49982C9.63449 9.5 9.56125 9.47632 9.50055 9.4325C9.46307 9.4054 9.43155 9.37146 9.40756 9.33276C9.39267 9.30872 9.38065 9.2829 9.37189 9.25574C9.34897 9.18481 9.34946 9.10846 9.3732 9.03778L9.88736 7.5094C9.89191 7.49585 9.89389 7.48163 9.89331 7.46753C9.89291 7.45831 9.89145 7.44916 9.88889 7.44025C9.88235 7.41754 9.86908 7.39734 9.85077 7.38232L8.62701 6.37598C8.5712 6.32971 8.5311 6.26758 8.51218 6.19794C8.50345 6.16577 8.49942 6.13275 8.50006 6.09985C8.50079 6.06146 8.5079 6.02325 8.52127 5.98676C8.54611 5.91901 8.5914 5.86041 8.651 5.81903C8.7106 5.77771 8.78162 5.75555 8.85437 5.75562H10.2917C10.3161 5.75555 10.3399 5.74805 10.3598 5.73401C10.3798 5.72003 10.3948 5.70026 10.4029 5.67743L10.9175 4.23187L10.9187 4.22809C10.944 4.16113 10.9893 4.10339 11.0485 4.06262C11.1078 4.02185 11.1782 4 11.2504 4C11.3225 4 11.3929 4.02185 11.4522 4.06262C11.5114 4.10339 11.5568 4.16113 11.582 4.22809L12.0978 5.67743C12.1059 5.70032 12.121 5.72009 12.141 5.73407C12.1609 5.74811 12.1848 5.75562 12.2092 5.75562H13.6461C13.7184 5.7558 13.7889 5.77789 13.8482 5.81885Z"></path></svg>
