<svg xmlns="http://www.w3.org/2000/svg" style="--icon-color: #5e5e5f;" width="16" height="16" viewBox="0 0 16 16" fill="#5e5e5f" role="img" focusable="false" aria-hidden="true"><path fill-rule="evenodd" clip-rule="evenodd" d="M8 15C11.866 15 15 11.866 15 8C15 4.13401 11.866 1 8 1C4.13401 1 1 4.13401 1 8C1 11.866 4.13401 15 8 15ZM5.67098 8.66451C5.48574 8.29403 5.03524 8.14386 4.66475 8.3291C4.29427 8.51434 4.1441 8.96485 4.32934 9.33533C4.59331 9.86326 5.65516 11.2499 8.00016 11.2499C10.3452 11.2499 11.407 9.86326 11.671 9.33533C11.8562 8.96485 11.7061 8.51434 11.3356 8.3291C10.9651 8.14386 10.5146 8.29403 10.3293 8.66451C10.26 8.80325 9.65516 9.74992 8.00016 9.74992C6.34516 9.74992 5.74035 8.80325 5.67098 8.66451ZM5 6C5 5.44772 5.44772 5 6 5C6.55228 5 7 5.44772 7 6V6.5C7 6.77614 6.77614 7 6.5 7H5.5C5.22386 7 5 6.77614 5 6.5V6ZM10 5C9.44771 5 9 5.44772 9 6V6.5C9 6.77614 9.22386 7 9.5 7H10.5C10.7761 7 11 6.77614 11 6.5V6C11 5.44772 10.5523 5 10 5Z"></path></svg>
