<svg class="sc-gjLLEI kKQUCC" style="--icon-color: #5e5e5f;" width="16" height="16" viewBox="0 0 16 16" fill="#5e5e5f" role="img" focusable="false" aria-hidden="true"><path fill-rule="evenodd" clip-rule="evenodd" d="M14.9441 6.05256C14.8798 5.88159 14.7646 5.73411 14.6136 5.6298C14.4626 5.52549 14.2832 5.46931 14.0992 5.46877H10.4417C10.3795 5.46881 10.3187 5.44969 10.2679 5.41405C10.2171 5.37841 10.1787 5.32801 10.1581 5.2698L8.84514 1.58061C8.78083 1.4101 8.66552 1.26313 8.51465 1.15936C8.36377 1.0556 8.18453 1 8.00091 1C7.81728 1 7.63804 1.0556 7.48717 1.15936C7.33629 1.26313 7.22098 1.4101 7.15667 1.58061L7.15367 1.59014L5.84375 5.2698C5.82313 5.32791 5.78483 5.37825 5.73415 5.41388C5.68346 5.44951 5.62288 5.46869 5.56075 5.46877H1.902C1.71682 5.46863 1.53608 5.52504 1.38439 5.63033C1.23269 5.73562 1.11739 5.88468 1.05416 6.05724C0.990937 6.22979 0.982856 6.41746 1.03102 6.59473C1.07919 6.772 1.18126 6.93025 1.32335 7.04798L4.4383 9.6095C4.4849 9.64784 4.51872 9.69923 4.53534 9.75695C4.55196 9.81467 4.5506 9.87603 4.53143 9.93297L3.22272 13.8235C3.16224 14.0034 3.16105 14.1977 3.21932 14.3783C3.27758 14.5589 3.39229 14.7164 3.54684 14.8281C3.70139 14.9398 3.88777 15 4.07903 14.9996C4.27029 14.9994 4.45652 14.9388 4.61076 14.8267L7.82305 12.4915C7.87456 12.4541 7.93675 12.4339 8.00061 12.4339C8.06446 12.4339 8.12665 12.4541 8.17817 12.4915L11.3893 14.8261C11.5434 14.9386 11.7297 14.9995 11.9212 15C12.1126 15.0005 12.2992 14.9406 12.454 14.8289C12.6087 14.7172 12.7236 14.5595 12.782 14.3788C12.8403 14.198 12.8391 14.0035 12.7785 13.8235L11.4698 9.93059C11.4506 9.87364 11.4493 9.81229 11.4659 9.75457C11.4825 9.69685 11.5163 9.64545 11.5629 9.60712L14.6839 7.04202C14.8242 6.9233 14.9243 6.76477 14.9708 6.58783C15.0174 6.41089 15.0081 6.22406 14.9441 6.05256Z"></path></svg>