<svg xmlns="http://www.w3.org/2000/svg" style="--icon-color: #5e5e5f;" width="16" height="16" viewBox="0 0 16 16" fill="#5e5e5f" role="img" focusable="false" aria-hidden="true"><path fill-rule="evenodd" clip-rule="evenodd" d="M11.3067 5.67547C11.6945 5.2091 11.9318 4.63613 11.9874 4.03213C12 3.89504 12 3.7524 12 3.46712C12 3.03307 12 2.81604 11.9664 2.63518C11.8155 1.8213 11.1787 1.18455 10.3648 1.03356C10.184 1 9.96693 1 9.53288 1H6.46712C6.03307 1 5.81604 1 5.63518 1.03356C4.8213 1.18455 4.18455 1.8213 4.03356 2.63518C4 2.81604 4 3.03307 4 3.46712C4 3.7524 4 3.89504 4.01261 4.03213C4.06816 4.63613 4.3055 5.2091 4.6933 5.67547C4.76818 5.76552 4.85235 5.85196 5 5.99994L7 8L5.08391 9.91609C4.88219 10.1178 4.78133 10.2187 4.6933 10.3245C4.3055 10.7909 4.06816 11.3639 4.01261 11.9679C4 12.105 4 12.2476 4 12.5329C4 12.9669 4 13.184 4.03356 13.3648C4.18455 14.1787 4.8213 14.8154 5.63518 14.9664C5.81604 15 6.03307 15 6.46712 15H9.53288C9.96693 15 10.184 15 10.3648 14.9664C11.1787 14.8155 11.8155 14.1787 11.9664 13.3648C12 13.184 12 12.9669 12 12.5329C12 12.2476 12 12.105 11.9874 11.9679C11.9318 11.3639 11.6945 10.7909 11.3067 10.3245C11.2187 10.2187 11.1179 10.1179 10.9164 9.91644L9 8L10.9999 6C11.1476 5.85202 11.2318 5.76552 11.3067 5.67547ZM6.14456 5.02324L6.29777 5.17645C6.78141 5.06517 7.36787 5 8 5C8.63213 5 9.21859 5.06517 9.70223 5.17645L9.85543 5.02325C10.0765 4.80214 10.1196 4.75703 10.1533 4.71641C10.3472 4.48323 10.4659 4.19674 10.4937 3.89475C10.4985 3.84214 10.5 3.77982 10.5 3.46712C10.5 3.2406 10.4998 3.10575 10.4966 3.00417C10.4945 2.9398 10.4917 2.91188 10.4909 2.90513C10.4522 2.70464 10.2954 2.54781 10.0949 2.50908C10.0881 2.50831 10.0602 2.50549 9.99584 2.50343C9.89425 2.50018 9.7594 2.5 9.53288 2.5H6.46712C6.2406 2.5 6.10575 2.50018 6.00416 2.50343C5.93982 2.50549 5.9119 2.50831 5.90514 2.50908C5.70464 2.54781 5.54781 2.70464 5.50908 2.90514C5.50831 2.9119 5.50549 2.93982 5.50343 3.00416C5.50018 3.10575 5.5 3.2406 5.5 3.46712C5.5 3.77982 5.50147 3.84214 5.5063 3.89475C5.53408 4.19674 5.65275 4.48323 5.84665 4.71641C5.88043 4.75703 5.92346 4.80213 6.14456 5.02324ZM8.5 9.62132L9.85545 10.9768C10.0766 11.1979 10.1196 11.243 10.1533 11.2836C10.3472 11.5168 10.4659 11.8033 10.4937 12.1052C10.4981 12.1527 10.4997 12.2079 10.5 12.447C10.0502 12.2216 9.33337 12.0604 8.5 12.0138V9.62132ZM7.5 9.62132V12.0138C6.66663 12.0604 5.94976 12.2216 5.50005 12.447C5.50032 12.2079 5.50195 12.1527 5.50631 12.1053C5.53408 11.8033 5.65275 11.5168 5.84665 11.2836C5.88043 11.243 5.92346 11.1979 6.14457 10.9768L7.5 9.62132Z"></path></svg>
