<svg xmlns="http://www.w3.org/2000/svg" style="--icon-color: #5e5e5f;" width="16" height="16" viewBox="0 0 16 16" fill="#5e5e5f" role="img" focusable="false" aria-hidden="true"><path d="M9.30558 10.206C9.57224 10.4726 9.59447 10.8912 9.37225 11.1831L9.30558 11.2594L6.84751 13.7175C5.58692 14.9781 3.54311 14.9781 2.28252 13.7175C1.0654 12.5004 1.02344 10.5531 2.15661 9.28564L2.28252 9.15251L4.74059 6.69443C5.0315 6.40353 5.50315 6.40353 5.79405 6.69443C6.06071 6.9611 6.08294 7.37963 5.86072 7.67161L5.79405 7.74789L3.33598 10.206C2.6572 10.8847 2.6572 11.9853 3.33598 12.664C3.98082 13.3089 5.00628 13.3411 5.68918 12.7608L5.79405 12.664L8.25212 10.206C8.54303 9.91506 9.01468 9.91506 9.30558 10.206ZM9.82982 6.17019C10.1207 6.46109 10.1207 6.93274 9.82982 7.22365L7.34921 9.70427C7.0583 9.99518 6.58665 9.99518 6.29575 9.70427C6.00484 9.41337 6.00484 8.94172 6.29575 8.65081L8.77637 6.17019C9.06727 5.87928 9.53892 5.87928 9.82982 6.17019ZM13.7175 2.2825C14.9346 3.49962 14.9766 5.44688 13.8434 6.71436L13.7175 6.84749L11.2594 9.30557C10.9685 9.59647 10.4969 9.59647 10.206 9.30557C9.93931 9.03891 9.91709 8.62037 10.1393 8.32839L10.206 8.25211L12.664 5.79403C13.3428 5.11525 13.3428 4.01474 12.664 3.33596C12.0192 2.69112 10.9938 2.65888 10.3109 3.23923L10.206 3.33596L7.74791 5.79403C7.457 6.08494 6.98535 6.08494 6.69445 5.79403C6.42779 5.52737 6.40556 5.10883 6.62778 4.81686L6.69445 4.74057L9.15252 2.2825C10.4131 1.02191 12.4569 1.02191 13.7175 2.2825Z"></path></svg>
