<svg class="sc-gjLLEI kKQUCC" style="--icon-color: #5e5e5f;" width="16" height="16" viewBox="0 0 16 16" fill="#5e5e5f" role="img" focusable="false" aria-hidden="true"><svg><path d="M14.2994 14.0165C14.918 13.8192 15.1804 13.0923 14.8677 12.5151L8.9336 1.56073C8.52859 0.813089 7.47141 0.813091 7.0664 1.56073L1.1323 12.5151C0.819613 13.0923 1.08197 13.8192 1.70057 14.0165C1.8343 14.0592 1.9683 14.1004 2.10257 14.1403C5.96173 15.2866 10.0383 15.2866 13.8974 14.1403C14.0317 14.1004 14.1657 14.0592 14.2994 14.0165ZM10.467 7.80774C10.2381 8.15661 9.95257 8.54009 9.56836 8.81897C9.56836 8.81897 8.51122 7.81904 8.06836 7.81901C7.56836 7.81897 6.06836 8.81901 6.06836 8.81901C6.06836 8.81901 5.70485 8.36728 5.44099 7.97759L8 3.25367L10.467 7.80774Z"></path></svg>