<svg xmlns="http://www.w3.org/2000/svg" style="--icon-color: #5e5e5f;" width="16" height="16" viewBox="0 0 16 16" fill="#5e5e5f" role="img" focusable="false" aria-hidden="true"><path d="M9.49634 1.07594C8.95044 0.991953 8.5 1.44776 8.5 2.00007V6.50007C8.5 7.05238 8.94775 7.50007 9.5 7.50007H14C14.5522 7.50007 15.0081 7.04963 14.9241 6.50379C14.4946 3.71168 12.2883 1.50544 9.49634 1.07594Z"></path><path d="M14.6721 10.1232C14.8567 9.54316 14.3845 9.00001 13.7759 9.00001H8C7.44775 9.00001 7 8.55226 7 8.00001V2.22407C7 1.61549 6.45679 1.14338 5.87671 1.32777C3.04883 2.22688 1 4.87416 1 8.00001C1 11.866 4.13403 15 8 15C11.1257 15 13.7732 12.9512 14.6721 10.1232Z"></path></svg>
