<svg xmlns="http://www.w3.org/2000/svg" style="--icon-color: #5e5e5f;" width="16" height="16" viewBox="0 0 16 16" fill="#5e5e5f" role="img" focusable="false" aria-hidden="true"><path fill-rule="evenodd" clip-rule="evenodd" d="M6.69274 4.18919C8.36389 2.6294 10.8876 1 14.1451 1C14.6124 1 14.9912 1.37885 14.9912 1.84618C14.9912 4.69767 13.342 7.22214 11.8203 8.96126C11.4703 9.36129 10.8756 9.96395 10.2759 10.5498L10.8628 11.7236C10.9475 11.893 10.9292 12.0957 10.8156 12.2472L8.90097 14.8C8.61267 15.1844 8.00097 14.9805 8.00097 14.5V12.6287C7.92539 12.6892 7.85733 12.7427 7.79777 12.7889C7.71193 12.8555 7.64364 12.9069 7.59582 12.9425L7.59382 12.944L7.52359 12.9955L7.51959 12.9983L7.51726 13C7.18099 13.2402 6.71916 13.2031 6.4264 12.9103L3.04179 9.52559C2.77198 9.25576 2.71613 8.83873 2.90544 8.50743L2.91648 8.48866L3.08529 8.21512C3.12575 8.15217 3.17301 8.0801 3.22699 8H1.50097C1.02046 8 0.816565 7.3883 1.20097 7.1L3.75376 5.18541C3.90526 5.07178 4.10797 5.0535 4.27736 5.1382L5.25877 5.6289C5.79413 5.06851 6.33441 4.52364 6.69274 4.18919ZM2.91648 8.48866L2.90642 8.50573L2.90716 8.50443L2.91015 8.49925L2.91648 8.48866ZM5.00097 13L3.00097 11C2.00097 11 1.00097 15 1.00097 15C1.00097 15 5.00097 14 5.00097 13ZM11.75 5.5C12.4403 5.5 13 4.94036 13 4.25C13 3.55964 12.4403 3 11.75 3C11.0596 3 10.5 3.55964 10.5 4.25C10.5 4.94036 11.0596 5.5 11.75 5.5Z"></path></svg>
