<svg width="16" height="16" viewBox="0 0 16 16" fill="#c3c4c6" class="sc-evZas jTKEnn"><path fill-rule="evenodd" clip-rule="evenodd" d="M13 11C13.5523 11 14 11.4477 14 12V14C14 14.5523 13.5523 15 13 15H3C2.44772 15 2 14.5523 2 14V12C2 11.4477 2.44772 11 3 11H13ZM4 12.25C3.58579 12.25 3.25 12.5858 3.25 13C3.25 13.4142 3.58579 13.75 4 13.75C4.41421 13.75 4.75 13.4142 4.75 13C4.75 12.5858 4.41421 12.25 4 12.25ZM13 6C13.5523 6 14 6.44772 14 7V9C14 9.55229 13.5523 10 13 10H3C2.44772 10 2 9.55229 2 9V7C2 6.44772 2.44772 6 3 6H13ZM4 7.25C3.58579 7.25 3.25 7.58579 3.25 8C3.25 8.41421 3.58579 8.75 4 8.75C4.41421 8.75 4.75 8.41421 4.75 8C4.75 7.58579 4.41421 7.25 4 7.25ZM13 1C13.5523 1 14 1.44772 14 2V4C14 4.55228 13.5523 5 13 5H3C2.44772 5 2 4.55228 2 4V2C2 1.44772 2.44772 1 3 1H13ZM4 2.25C3.58579 2.25 3.25 2.58579 3.25 3C3.25 3.41421 3.58579 3.75 4 3.75C4.41421 3.75 4.75 3.41421 4.75 3C4.75 2.58579 4.41421 2.25 4 2.25Z"></path></svg>