<svg class="sc-gjLLEI kKQUCC" style="--icon-color: #5e5e5f;" width="16" height="16" viewBox="0 0 16 16" fill="#5e5e5f" role="img" focusable="false" aria-hidden="true"><path d="M4.92886 7.49494C4.99698 7.22733 5.21443 7 5.49057 7C5.76671 7 5.98416 7.22733 6.05228 7.49494C6.27254 8.36012 7.05683 9 7.99057 9C8.92431 9 9.7086 8.36012 9.92886 7.49494C9.99698 7.22733 10.2144 7 10.4906 7C10.7667 7 10.9842 7.22733 11.0523 7.49494C11.2725 8.36012 12.0568 9 12.9906 9C14.0154 9 14.8602 8.22917 14.9768 7.23566C14.9949 7.08147 14.9544 6.92771 14.885 6.78885L12.267 1.55279C12.0976 1.214 11.7513 1 11.3725 1H4.6086C4.22983 1 3.88357 1.214 3.71418 1.55279L1.09614 6.78885C1.02672 6.92771 0.98621 7.08147 1.00431 7.23566C1.12092 8.22917 1.96573 9 2.99057 9C3.92431 9 4.7086 8.36012 4.92886 7.49494Z"></path><path d="M3.01079 10C4.05518 10 4.97364 9.46684 5.51079 8.65844C6.04793 9.46684 6.9664 10 8.01079 10C9.05518 10 9.97365 9.46684 10.5108 8.65844C11.0479 9.46684 11.9664 10 13.0108 10C13.3538 10 13.6833 9.94247 13.9902 9.83653V13.5C13.9902 14.3284 13.3187 15 12.4902 15H10.5C10.2239 15 10 14.7761 10 14.5V13C10 12.4477 9.55229 12 9 12H7C6.44772 12 6 12.4477 6 13V14.5C6 14.7761 5.77614 15 5.5 15H3.49023C2.66181 15 1.99023 14.3284 1.99023 13.5V9.82201C2.30876 9.9372 2.6524 10 3.01079 10Z"></path></svg>