<svg class="sc-gjLLEI kKQUCC" style="--icon-color: #5e5e5f;" width="16" height="16" viewBox="0 0 16 16" fill="#5e5e5f" role="img" focusable="false" aria-hidden="true"><path d="M2.35047 13H1.75C1.33579 13 1 13.3358 1 13.75C1 14.1642 1.33579 14.5 1.75 14.5H1.98322C2.03459 14.0479 2.15686 13.574 2.31529 13.1021C2.32669 13.0681 2.33842 13.0341 2.35047 13Z"></path><path d="M7.0815 14.5H14.25C14.6642 14.5 15 14.1642 15 13.75C15 13.3358 14.6642 13 14.25 13H7.86679C7.85074 13.0378 7.83437 13.0755 7.81766 13.1131C7.59352 13.6181 7.34491 14.0821 7.0815 14.5Z"></path><path fill-rule="evenodd" clip-rule="evenodd" d="M3.52415 2.7989C3.38635 2.88148 3.13365 3.13178 2.86908 3.82317C2.6409 4.41948 2.93762 5.09574 3.58586 5.78866C3.88666 6.1102 4.21502 6.38044 4.47244 6.57217C4.6 6.66717 4.70735 6.74084 4.78131 6.78983C4.81823 6.81428 4.84663 6.83246 4.86486 6.84396L4.88428 6.85609L4.8874 6.858C4.8874 6.858 4.88706 6.8578 4.49966 7.5C4.11227 8.1422 4.11186 8.14195 4.11186 8.14195L4.11019 8.14095L4.10697 8.13899L4.09719 8.13299L4.06477 8.11276C4.03767 8.09567 3.99981 8.0714 3.95295 8.04035C3.85934 7.97835 3.72909 7.88885 3.57645 7.77516C3.27347 7.54951 2.87109 7.22027 2.49047 6.81341C1.77586 6.04955 0.907061 4.75337 1.46815 3.28709C1.78555 2.45763 2.19935 1.84409 2.75309 1.51225C3.34909 1.15508 3.96431 1.20582 4.46576 1.40929C4.94131 1.60225 5.34868 1.94132 5.6555 2.24754C5.9701 2.56155 6.22527 2.88839 6.38843 3.10848C6.78149 3.63868 7.42098 5.05096 7.77334 6.72202C7.78484 6.77659 7.79608 6.83159 7.80702 6.88702C8.31086 6.71915 8.82618 6.82368 9.2354 7.0862C9.74053 7.41025 10.0956 7.9685 10.2171 8.57308C10.2529 8.75134 10.2959 8.90727 10.3424 9.03463C10.7333 8.58562 10.9392 8.15368 11.1264 7.76101L11.1307 7.75188C11.1346 7.74378 11.1385 7.73557 11.1425 7.72725C11.2392 7.52402 11.3654 7.25908 11.5319 7.04899C11.7365 6.79086 12.0391 6.56491 12.4719 6.52996C13.1915 6.47187 13.6272 7.03463 13.8301 7.36917C14.0669 7.7596 14.2405 8.24964 14.3666 8.68731C14.4958 9.13593 14.5895 9.58124 14.6505 9.91041C14.6812 10.076 14.7041 10.2147 14.7195 10.3128C14.7271 10.3619 14.7329 10.4009 14.7369 10.4283L14.7415 10.4603L14.7427 10.4693L14.7432 10.4733C14.7432 10.4733 14.7433 10.4735 14 10.5737C13.2567 10.6738 13.2567 10.674 13.2567 10.674L13.2559 10.6677L13.2524 10.6433C13.2524 10.6433 13.2442 10.5877 13.2375 10.5446C13.224 10.4583 13.2034 10.3337 13.1756 10.1839C13.1197 9.88227 13.0363 9.48822 12.9252 9.10258C12.8201 8.73787 12.7017 8.42177 12.5796 8.20226C12.553 8.25524 12.522 8.31931 12.4847 8.39735C12.4797 8.40802 12.4745 8.41881 12.4693 8.42972C12.2481 8.89415 11.9187 9.58582 11.2257 10.2867C11.0055 10.5094 10.6978 10.7197 10.3075 10.7354C9.89707 10.752 9.58585 10.5476 9.3875 10.3367C9.03076 9.95732 8.84633 9.3655 8.74648 8.8686C8.69629 8.61888 8.55267 8.43034 8.42547 8.34874C8.36728 8.31141 8.32868 8.30589 8.31181 8.30575C8.30098 8.30566 8.27161 8.30632 8.21741 8.34548C8.15036 8.39393 8.08297 8.44407 8.01531 8.49581C8.08932 9.7642 7.94325 11.1242 7.36374 12.3751C6.95144 13.265 6.45423 14.0041 5.94696 14.5588C5.45575 15.0958 4.89822 15.5217 4.34698 15.6814C4.0644 15.7632 3.71552 15.7935 3.37613 15.6484C3.01516 15.4941 2.789 15.1951 2.67794 14.8644C2.48 14.2751 2.60856 13.4964 2.90889 12.6391C3.24904 11.6682 3.92034 10.6123 4.70145 9.65762C5.23223 9.00886 5.83152 8.38514 6.44636 7.84495C6.40937 7.56951 6.3617 7.29751 6.30561 7.0315C5.97938 5.48435 5.40368 4.29887 5.18344 4.00179C5.03994 3.80822 4.83512 3.54803 4.59585 3.30921C4.34878 3.06262 4.1084 2.88307 3.90177 2.79923C3.72105 2.7259 3.61968 2.74165 3.52415 2.7989ZM6.49346 9.8873C6.27571 10.1197 6.06404 10.361 5.86239 10.6075C5.14002 11.4904 4.58485 12.392 4.32452 13.1351C4.14542 13.6463 4.0918 13.9791 4.08376 14.1755C4.26776 14.0786 4.53188 13.8834 4.84009 13.5464C5.2335 13.1163 5.64847 12.5091 6.00271 11.7445C6.27279 11.1615 6.42691 10.5318 6.49346 9.8873ZM3.88485 14.2502L3.88741 14.25L3.88485 14.2502ZM12.4269 7.98831C12.4269 7.98831 12.4305 7.99002 12.4376 7.99675C12.4304 7.99223 12.4269 7.98831 12.4269 7.98831Z"></path></svg>