<svg class="sc-gjLLEI kKQUCC" style="--icon-color: #5e5e5f;" width="16" height="16" viewBox="0 0 16 16" fill="#5e5e5f" role="img" focusable="false" aria-hidden="true"><path fill-rule="evenodd" clip-rule="evenodd" d="M2.45001 5.00361C2.47031 4.99013 2.49096 4.97684 2.51195 4.96372C2.56133 4.64722 2.76067 4.36966 3.05279 4.22361C3.33431 4.08284 3.66569 4.08284 3.94721 4.22361L4.19313 4.34657C5.89916 3.96929 7.89175 3.99916 8.00794 4.00143H8.21989L8.23137 4.00146C8.84559 4.00329 10.0382 4.00686 11.2238 4.20395C12.0763 4.34569 12.9254 4.58754 13.5529 5.00075L13.557 5.00346L13.5596 5.00515L13.5549 5.00675L13.5575 5.00841L13.5616 5.01108C13.6546 5.07186 14.208 5.45328 14.6006 6.2389C14.9151 6.86848 15.1264 7.75767 14.9145 8.9494C14.7748 9.73919 14.431 10.444 13.9223 10.9852C13.5486 11.3833 13.1231 11.6633 12.6568 11.8191C12.6097 11.8364 12.3993 11.9119 12.0853 11.9607C11.1637 12.1023 10.1966 11.8568 9.43196 11.2889L9.01119 10.9758C8.83064 10.8421 8.6391 10.7225 8.43813 10.6202C8.16181 10.4786 7.83838 10.4786 7.56833 10.6171C7.36265 10.7225 7.16954 10.8421 6.98899 10.9758L6.56822 11.2889C5.94648 11.7514 5.18815 12 4.43139 12C4.25869 12 4.08599 11.9874 3.91485 11.9607C3.60084 11.9119 3.39046 11.8364 3.34336 11.8191C2.87706 11.6633 2.45158 11.3833 2.07791 10.9852C1.56922 10.444 1.22695 9.73919 1.08565 8.9494C0.594223 6.18829 2.37465 5.05081 2.45001 5.00361ZM2.56231 8.68585C2.6572 9.21559 2.87904 9.6474 3.1709 9.95792C3.393 10.1945 3.6125 10.3275 3.81858 10.3963L3.83975 10.4034L3.86069 10.4111C3.86069 10.4111 3.86666 10.4133 3.87687 10.4167C3.88781 10.4203 3.90589 10.426 3.93035 10.4328C3.97975 10.4465 4.05338 10.4642 4.14507 10.4784L4.14647 10.4787C4.23643 10.4927 4.3315 10.5 4.43139 10.5C4.86497 10.5 5.3094 10.3558 5.67278 10.0855L6.09621 9.77041C6.34445 9.58654 6.60751 9.424 6.884 9.28229M2.56231 8.68585C2.38456 7.68623 2.62279 7.08436 2.83091 6.74795C3.02224 6.43868 3.2344 6.2842 3.25692 6.26814L3.26302 6.26432L3.27956 6.25334C3.28808 6.24769 3.29713 6.24186 3.30673 6.23586L3.99787 5.92599L4.51702 5.81118C6.03558 5.47536 7.87392 5.4991 7.97876 5.50114L7.99335 5.50143H8.21989L8.22688 5.50145C8.84463 5.5033 9.92611 5.50879 10.978 5.68367C11.675 5.79956 12.2329 5.97102 12.6058 6.17952L12.7398 6.26596C12.7536 6.27565 13.0443 6.48024 13.2587 6.90935C13.4303 7.25272 13.5927 7.81494 13.4377 8.68686L13.4375 8.68807C13.3444 9.214 13.1225 9.64592 12.8293 9.95792C12.6072 10.1945 12.3877 10.3275 12.1816 10.3963L12.1604 10.4034L12.1395 10.4111C12.1395 10.4111 12.1377 10.4118 12.1355 10.4125C12.1328 10.4135 12.1288 10.4149 12.1233 10.4167C12.1124 10.4203 12.0943 10.426 12.0698 10.4328C12.0206 10.4464 11.9474 10.4641 11.8562 10.4783C11.3418 10.5569 10.7778 10.4198 10.327 10.0851L9.90663 9.77238L9.90397 9.77041C9.66003 9.58973 9.3983 9.42592 9.1203 9.28432C8.42035 8.92641 7.58838 8.92123 6.884 9.28229"></path></svg>