<svg xmlns="http://www.w3.org/2000/svg" style="--icon-color: #5e5e5f;" width="16" height="16" viewBox="0 0 16 16" fill="#5e5e5f" role="img" focusable="false" aria-hidden="true"><path d="M5 2.48C5 2.31198 5 2.22798 5.0327 2.1638C5.06146 2.10735 5.10735 2.06146 5.1638 2.0327C5.22798 2 5.31198 2 5.48 2H9.52C9.68802 2 9.77202 2 9.8362 2.0327C9.89265 2.06146 9.93854 2.10735 9.9673 2.1638C10 2.22798 10 2.31198 10 2.48V3.52C10 3.68802 10 3.77202 9.9673 3.8362C9.93854 3.89265 9.89265 3.93854 9.8362 3.9673C9.77202 4 9.68802 4 9.52 4H5.48C5.31198 4 5.22798 4 5.1638 3.9673C5.10735 3.93854 5.06146 3.89265 5.0327 3.8362C5 3.77202 5 3.68802 5 3.52V2.48Z"></path><path d="M13 5.48C13 5.31198 13 5.22798 13.0327 5.1638C13.0615 5.10735 13.1074 5.06146 13.1638 5.0327C13.228 5 13.312 5 13.48 5H14.52C14.688 5 14.772 5 14.8362 5.0327C14.8926 5.06146 14.9385 5.10735 14.9673 5.1638C15 5.22798 15 5.31198 15 5.48V6.52C15 6.68802 15 6.77202 14.9673 6.8362C14.9385 6.89265 14.8926 6.93854 14.8362 6.9673C14.772 7 14.688 7 14.52 7H13.48C13.312 7 13.228 7 13.1638 6.9673C13.1074 6.93854 13.0615 6.89265 13.0327 6.8362C13 6.77202 13 6.68802 13 6.52V5.48Z"></path><path d="M1 5.48C1 5.31198 1 5.22798 1.0327 5.1638C1.06146 5.10735 1.10735 5.06146 1.1638 5.0327C1.22798 5 1.31198 5 1.48 5H2.52C2.68802 5 2.77202 5 2.8362 5.0327C2.89265 5.06146 2.93854 5.10735 2.9673 5.1638C3 5.22798 3 5.31198 3 5.48V6.52C3 6.68802 3 6.77202 2.9673 6.8362C2.93854 6.89265 2.89265 6.93854 2.8362 6.9673C2.77202 7 2.68802 7 2.52 7H1.48C1.31198 7 1.22798 7 1.1638 6.9673C1.10735 6.93854 1.06146 6.89265 1.0327 6.8362C1 6.77202 1 6.68802 1 6.52V5.48Z"></path><path d="M4 5.48C4 5.31198 4 5.22798 4.0327 5.1638C4.06146 5.10735 4.10735 5.06146 4.1638 5.0327C4.22798 5 4.31198 5 4.48 5H11.52C11.688 5 11.772 5 11.8362 5.0327C11.8926 5.06146 11.9385 5.10735 11.9673 5.1638C12 5.22798 12 5.31198 12 5.48V6.52C12 6.68802 12 6.77202 11.9673 6.8362C11.9385 6.89265 11.8926 6.93854 11.8362 6.9673C11.772 7 11.688 7 11.52 7H4.48C4.31198 7 4.22798 7 4.1638 6.9673C4.10735 6.93854 4.06146 6.89265 4.0327 6.8362C4 6.77202 4 6.68802 4 6.52V5.48Z"></path><path d="M11 2.48C11 2.31198 11 2.22798 11.0327 2.1638C11.0615 2.10735 11.1074 2.06146 11.1638 2.0327C11.228 2 11.312 2 11.48 2H14.52C14.688 2 14.772 2 14.8362 2.0327C14.8926 2.06146 14.9385 2.10735 14.9673 2.1638C15 2.22798 15 2.31198 15 2.48V3.52C15 3.68802 15 3.77202 14.9673 3.8362C14.9385 3.89265 14.8926 3.93854 14.8362 3.9673C14.772 4 14.688 4 14.52 4H11.48C11.312 4 11.228 4 11.1638 3.9673C11.1074 3.93854 11.0615 3.89265 11.0327 3.8362C11 3.77202 11 3.68802 11 3.52V2.48Z"></path><path d="M1 2.48C1 2.31198 1 2.22798 1.0327 2.1638C1.06146 2.10735 1.10735 2.06146 1.1638 2.0327C1.22798 2 1.31198 2 1.48 2H3.52C3.68802 2 3.77202 2 3.8362 2.0327C3.89265 2.06146 3.93854 2.10735 3.9673 2.1638C4 2.22798 4 2.31198 4 2.48V3.52C4 3.68802 4 3.77202 3.9673 3.8362C3.93854 3.89265 3.89265 3.93854 3.8362 3.9673C3.77202 4 3.68802 4 3.52 4H1.48C1.31198 4 1.22798 4 1.1638 3.9673C1.10735 3.93854 1.06146 3.89265 1.0327 3.8362C1 3.77202 1 3.68802 1 3.52V2.48Z"></path><path d="M6 8.48C6 8.31198 6 8.22798 6.0327 8.1638C6.06146 8.10735 6.10735 8.06146 6.1638 8.0327C6.22798 8 6.31198 8 6.48 8H10.52C10.688 8 10.772 8 10.8362 8.0327C10.8926 8.06146 10.9385 8.10735 10.9673 8.1638C11 8.22798 11 8.31198 11 8.48V9.52C11 9.68802 11 9.77202 10.9673 9.8362C10.9385 9.89265 10.8926 9.93854 10.8362 9.9673C10.772 10 10.688 10 10.52 10H6.48C6.31198 10 6.22798 10 6.1638 9.9673C6.10735 9.93854 6.06146 9.89265 6.0327 9.8362C6 9.77202 6 9.68802 6 9.52V8.48Z"></path><path d="M12 8.48C12 8.31198 12 8.22798 12.0327 8.1638C12.0615 8.10735 12.1074 8.06146 12.1638 8.0327C12.228 8 12.312 8 12.48 8H14.52C14.688 8 14.772 8 14.8362 8.0327C14.8926 8.06146 14.9385 8.10735 14.9673 8.1638C15 8.22798 15 8.31198 15 8.48V9.52C15 9.68802 15 9.77202 14.9673 9.8362C14.9385 9.89265 14.8926 9.93854 14.8362 9.9673C14.772 10 14.688 10 14.52 10H12.48C12.312 10 12.228 10 12.1638 9.9673C12.1074 9.93854 12.0615 9.89265 12.0327 9.8362C12 9.77202 12 9.68802 12 9.52V8.48Z"></path><path d="M1 8.48C1 8.31198 1 8.22798 1.0327 8.1638C1.06146 8.10735 1.10735 8.06146 1.1638 8.0327C1.22798 8 1.31198 8 1.48 8H4.52C4.68802 8 4.77202 8 4.8362 8.0327C4.89265 8.06146 4.93854 8.10735 4.9673 8.1638C5 8.22798 5 8.31198 5 8.48V9.52C5 9.68802 5 9.77202 4.9673 9.8362C4.93854 9.89265 4.89265 9.93854 4.8362 9.9673C4.77202 10 4.68802 10 4.52 10C3.33281 10 2.66719 10 1.48 10C1.31198 10 1.22798 10 1.1638 9.9673C1.10735 9.93854 1.06146 9.89265 1.0327 9.8362C1 9.77202 1 9.68802 1 9.52V8.48Z"></path><path d="M7 11.48C7 11.312 7 11.228 7.0327 11.1638C7.06146 11.1074 7.10735 11.0615 7.1638 11.0327C7.22798 11 7.31198 11 7.48 11H9.52C9.68802 11 9.77202 11 9.8362 11.0327C9.89265 11.0615 9.93854 11.1074 9.9673 11.1638C10 11.228 10 11.312 10 11.48V12.52C10 12.688 10 12.772 9.9673 12.8362C9.93854 12.8926 9.89265 12.9385 9.8362 12.9673C9.77202 13 9.68802 13 9.52 13H7.48C7.31198 13 7.22798 13 7.1638 12.9673C7.10735 12.9385 7.06146 12.8926 7.0327 12.8362C7 12.772 7 12.688 7 12.52V11.48Z"></path><path d="M11 11.48C11 11.312 11 11.228 11.0327 11.1638C11.0615 11.1074 11.1074 11.0615 11.1638 11.0327C11.228 11 11.312 11 11.48 11H14.52C14.688 11 14.772 11 14.8362 11.0327C14.8926 11.0615 14.9385 11.1074 14.9673 11.1638C15 11.228 15 11.312 15 11.48V12.52C15 12.688 15 12.772 14.9673 12.8362C14.9385 12.8926 14.8926 12.9385 14.8362 12.9673C14.772 13 14.688 13 14.52 13H11.48C11.312 13 11.228 13 11.1638 12.9673C11.1074 12.9385 11.0615 12.8926 11.0327 12.8362C11 12.772 11 12.688 11 12.52V11.48Z"></path><path d="M1 11.48C1 11.312 1 11.228 1.0327 11.1638C1.06146 11.1074 1.10735 11.0615 1.1638 11.0327C1.22798 11 1.31198 11 1.48 11H5.52C5.68802 11 5.77202 11 5.8362 11.0327C5.89265 11.0615 5.93854 11.1074 5.9673 11.1638C6 11.228 6 11.312 6 11.48V12.52C6 12.688 6 12.772 5.9673 12.8362C5.93854 12.8926 5.89265 12.9385 5.8362 12.9673C5.77202 13 5.68802 13 5.52 13H1.48C1.31198 13 1.22798 13 1.1638 12.9673C1.10735 12.9385 1.06146 12.8926 1.0327 12.8362C1 12.772 1 12.688 1 12.52V11.48Z"></path></svg>
