<svg width="84" height="84" viewBox="0 0 84 84" fill="none" xmlns="http://www.w3.org/2000/svg">
<path fill-rule="evenodd" clip-rule="evenodd" d="M21.3938 54.0007V62.6061L0.759521 41.9718L5.08334 37.6808L21.3938 54.0007ZM29.9993 62.6061H21.3938L42.0281 83.2404L46.3332 78.9401L29.9993 62.6061ZM78.9401 46.2957L83.2404 41.9906L42.0094 0.759521L37.709 5.06459L54.0007 21.3751H44.1525L32.7802 10.0121L28.4751 14.3125L35.5564 21.3938H30.6277V53.391H62.6249V48.4435L69.7062 55.5248L74.0113 51.2244L62.6249 39.8381V29.9899L78.9401 46.2957ZM23.5463 19.2225L19.246 23.5276L23.8606 28.1422L28.1609 23.8371L23.5463 19.2225ZM60.1628 55.839L55.8765 60.1394L60.4911 64.754L64.7915 60.4489L60.1628 55.839ZM14.3172 28.4564L10.0121 32.7614L21.3938 44.1431V35.533L14.3172 28.4564ZM48.4669 62.6061H39.8568L51.2385 73.9878L55.5436 69.6828L48.4669 62.6061Z" fill="url(#paint0_linear_396_287)"/>
<defs>
<linearGradient id="paint0_linear_396_287" x1="0.854144" y1="0.854124" x2="83.1458" y2="83.1458" gradientUnits="userSpaceOnUse">
<stop stop-color="#FF6363"/>
<stop offset="1" stop-color="#D72A2A"/>
</linearGradient>
</defs>
</svg>
