<svg width="600" height="200" viewBox="0 0 600 200" fill="none" xmlns="http://www.w3.org/2000/svg">
  <g id="background" fill="#ffe033">
    <rect width="600" height="200"/>
  </g>
  <g id="icon" fill="#000000">
    <path class="1-1" d="M187.465 90.6075C187.465 94.7938 190.843 98.215 195.022 98.215V83C190.843 83 187.465 86.4 187.465 90.6075Z"/>
    <path class="1-2" d="M198.484 90.6075C198.484 94.7938 201.862 98.215 206.041 98.215V83C201.883 83 198.484 86.4 198.484 90.6075Z"/>
    <path class="1-3" d="M217.06 98.215C221.234 98.215 224.617 94.809 224.617 90.6075C224.617 86.406 221.234 83 217.06 83C212.887 83 209.503 86.406 209.503 90.6075C209.503 94.809 212.887 98.215 217.06 98.215Z"/>
    <path class="2-1" d="M187.465 109.392C187.465 113.6 190.843 117 195.022 117V101.806C190.843 101.806 187.465 105.206 187.465 109.392Z"/>
    <path class="2-2" d="M198.484 109.329C198.484 113.515 201.862 116.936 206.041 116.936V101.743C201.883 101.743 198.484 105.143 198.484 109.329Z"/>
    <path class="2-3" d="M217.06 116.936C221.234 116.936 224.617 113.53 224.617 109.329C224.617 105.127 221.234 101.721 217.06 101.721C212.887 101.721 209.503 105.127 209.503 109.329C209.503 113.53 212.887 116.936 217.06 116.936Z"/>
  </g>
  <g id="text" fill="#000000" fill-rule="evenodd">
    <path class="o" d="M259.262 100.267C259.262 105.72 254.87 110.141 249.453 110.141C244.036 110.141 239.644 105.72 239.644 100.267C239.644 94.8133 244.036 90.3926 249.453 90.3926C254.87 90.3926 259.262 94.8133 259.262 100.267ZM253.376 100.267C253.376 102.448 251.62 104.216 249.453 104.216C247.286 104.216 245.529 102.448 245.529 100.267C245.529 98.0853 247.286 96.317 249.453 96.317C251.62 96.317 253.376 98.0853 253.376 100.267Z"/>
    <path class="p" d="M267.526 116.643H260.796V90.7236H267.477V94.0126H267.623C268.355 92.0981 270.11 90.4781 272.89 90.4781C276.596 90.4781 280.204 93.3253 280.204 100.149C280.204 106.678 276.84 109.819 272.841 109.819C270.208 109.819 268.403 108.396 267.623 106.481H267.526V116.643ZM270.354 95.6816C268.501 95.6816 267.379 97.3506 267.379 100.149C267.379 102.898 268.501 104.616 270.354 104.616C272.207 104.616 273.28 102.947 273.28 100.149C273.28 97.3506 272.207 95.6816 270.354 95.6816Z"/>
    <path class="e 1" d="M300.134 103.487C299.5 107.414 296.16 109.918 290.966 109.918C284.968 109.918 281.311 106.297 281.311 100.198C281.311 94.3562 285.017 90.4781 290.82 90.4781C296.477 90.4781 300.134 94.1476 300.134 100.149V101.72H287.943V102.014C287.943 103.83 289.113 105.156 291.113 105.156C292.49 105.156 293.6 104.555 293.99 103.487H300.134ZM290.966 95.2398C289.321 95.2398 287.98 96.3566 287.943 97.9888H293.941C293.905 96.3689 292.637 95.2398 290.966 95.2398Z"/>
    <path class="n" d="M308.58 98.9706C308.592 97.1052 309.641 95.9761 311.311 95.9761C313.005 95.9761 314.005 97.1052 313.993 98.9706V109.574H320.722V97.547C320.734 93.448 318.162 90.4781 314.188 90.4781C311.433 90.4781 309.25 91.9263 308.434 94.3071H308.239V90.7236H301.85V109.574H308.58V98.9706Z"/>
    <path class="v" d="M334.145 90.7236H341.216L334.925 109.574H327.123L320.832 90.7236H327.903L330.926 103.192H331.122L334.145 90.7236Z"/>
    <path class="e 2" d="M350.503 109.918C355.696 109.918 359.036 107.414 359.67 103.487H353.526C353.136 104.555 352.027 105.156 350.649 105.156C348.65 105.156 347.479 103.83 347.479 102.014V101.72H359.67V100.149C359.67 94.1476 356.013 90.4781 350.356 90.4781C344.553 90.4781 340.847 94.3562 340.847 100.198C340.847 106.297 344.505 109.918 350.503 109.918ZM347.479 97.9888C347.516 96.3566 348.857 95.2398 350.503 95.2398C352.173 95.2398 353.441 96.3689 353.477 97.9888H347.479Z"/>
    <path class="r" d="M368.116 109.574H361.387V90.7236H367.921V94.3071H368.116C368.799 91.6563 370.359 90.4781 372.359 90.4781C372.944 90.4781 373.529 90.5763 374.065 90.7358V96.5161C373.395 96.2829 372.273 96.1725 371.578 96.1725C369.591 96.1725 368.116 97.5961 368.116 99.756V109.574Z"/>
    <path class="s" d="M392.358 96.8597C392.188 92.8712 388.896 90.4781 383.483 90.4781C378.131 90.4781 374.828 92.6871 374.852 96.6143C374.828 99.5842 376.742 101.486 380.557 102.161L383.873 102.75C385.336 103.02 385.995 103.413 386.019 104.125C385.995 104.91 385.105 105.352 383.873 105.352C382.349 105.352 381.277 104.69 381.094 103.487H374.413C374.779 107.353 378.095 109.918 383.825 109.918C389.006 109.918 392.822 107.377 392.846 103.34C392.822 100.554 390.969 98.9338 387.141 98.2343L383.337 97.547C381.911 97.2893 381.508 96.7738 381.533 96.2216C381.508 95.4362 382.471 94.9943 383.63 94.9943C384.958 94.9943 386.068 95.7061 386.165 96.8597H392.358Z"/>
    <path class="e 3" d="M412.535 103.487C411.901 107.414 408.561 109.918 403.367 109.918C397.369 109.918 393.712 106.297 393.712 100.198C393.712 94.3562 397.418 90.4781 403.221 90.4781C408.878 90.4781 412.535 94.1476 412.535 100.149V101.72H400.344V102.014C400.344 103.83 401.514 105.156 403.514 105.156C404.891 105.156 406.001 104.555 406.391 103.487H412.535ZM403.367 95.2398C401.721 95.2398 400.38 96.3566 400.344 97.9888H406.342C406.305 96.3689 405.037 95.2398 403.367 95.2398Z"/>
  </g>
</svg>
