<?xml version="1.0" encoding="utf-8"?>
<!-- Generator: Adobe Illustrator 26.0.2, SVG Export Plug-In . SVG Version: 6.00 Build 0)  -->
<svg version="1.1" id="Layer_1" xmlns="http://www.w3.org/2000/svg" xmlns:xlink="http://www.w3.org/1999/xlink" x="0px" y="0px"
	 viewBox="0 0 128 128" style="enable-background:new 0 0 128 128;" xml:space="preserve">
<style type="text/css">
	.st0{fill:#656365;}
	.st1{fill-opacity:0;}
	.st2{opacity:0.6;fill:#FFFFFF;enable-background:new    ;}
	.st3{opacity:0.35;}
	.st4{fill:#FFFFFF;}
	.st5{opacity:0.85;fill:#FFFFFF;enable-background:new    ;}
</style>
<circle class="st0" cx="64" cy="64" r="64"/>
<rect x="20.3" y="35.8" class="st1" width="87.4" height="56.3"/>
<g>
	<g>
		<g>
			<g id="XMLID_00000154427267743005789310000001468912098396400004_">
				<g>
					<path class="st2" d="M67.8,56c2.1,7.3,9.3,12.6,18,12.6s15.9-5.4,18-12.6c0-0.1,0.1-0.1,0.2-0.1c0.1,0,0.2,0.1,0.2,0.2v7.3
						c0,14.5-8.2,22.1-18.4,22.1c-10.1,0-18.4-7.7-18.4-22.1v-7.3c0-0.1,0.1-0.2,0.2-0.2C67.7,55.9,67.8,55.9,67.8,56z"/>
					<g class="st3">
						<path class="st4" d="M105.1,66c-0.4,5.9-2.3,10.9-5.5,14.5c-2.7,3.1-6.4,5-10.5,5.7c1.3,1.8,3.9,3,7.3,3.7
							c1.4,0.3,3.2,0.7,4.8,0.7c6.1,0,12.3-4.4,12.3-12.2C113.4,72.7,108,68,105.1,66z"/>
					</g>
				</g>
			</g>
		</g>
		<path class="st5" d="M85.8,36c-9.7,0-17.6,7.1-17.6,15.8c0,8.7,7.9,15.8,17.6,15.8c9.7,0,17.6-7.1,17.6-15.8
			C103.5,43.1,95.6,36,85.8,36z M81.3,37.2c0.2,0,0.3-0.1,0.5-0.1c1-0.2,1.9-0.5,4-0.5c2.1,0,3.3,0.3,4.3,0.5l0.2,0.1
			c0.3,0.1,0.5,0.4,0.5,0.7c-0.1,0.3-0.4,0.5-0.7,0.5l-0.2-0.1c-1-0.2-2.1-0.5-4-0.5c-2,0-2.8,0.2-3.7,0.4c-0.2,0-0.3,0.1-0.5,0.1
			c0,0-0.1,0-0.1,0c-0.3,0-0.5-0.2-0.6-0.5C80.8,37.7,81,37.3,81.3,37.2z M90.1,48.4c0,2.3-1.9,4.2-4.2,4.2s-4.2-1.9-4.2-4.2
			c0-2.3,1.9-4.2,4.2-4.2S90.1,46.1,90.1,48.4z M89.8,64c-0.9,0.2-2.5,0.4-4,0.4c-1.7,0-3.1-0.2-4-0.4c-0.9-0.2-1.4-1-1.2-1.9
			c0.2-0.9,1-1.4,1.9-1.2c1,0.2,2.2,0.3,3.3,0.3c1.3,0,2.6-0.2,3.3-0.3c0.9-0.2,1.7,0.4,1.9,1.2C91.3,63,90.7,63.9,89.8,64z"/>
	</g>
	<g>
		<g>
			<g id="XMLID_00000149352975847655968520000001935299749148159108_">
				<g>
					<path class="st2" d="M60.2,56c-2.1,7.3-9.3,12.6-18,12.6s-16-5.4-18-12.6c0-0.1-0.1-0.1-0.2-0.1c-0.1,0-0.2,0.1-0.2,0.2v7.3
						c0,14.5,8.2,22.1,18.4,22.1c10.1,0,18.4-7.7,18.4-22.1v-7.3c0-0.1-0.1-0.2-0.2-0.2C60.3,55.9,60.2,55.9,60.2,56z"/>
					<g class="st3">
						<path class="st4" d="M22.9,66c0.4,5.9,2.3,10.9,5.5,14.5c2.7,3.1,6.4,5,10.5,5.7c-1.3,1.8-3.9,3-7.3,3.7
							c-1.4,0.3-3.2,0.7-4.8,0.7c-6.1,0-12.3-4.4-12.3-12.2C14.6,72.7,20,68,22.9,66z"/>
					</g>
				</g>
			</g>
		</g>
		<path class="st5" d="M42.2,36c9.7,0,17.6,7.1,17.6,15.8c0,8.7-7.9,15.8-17.6,15.8c-9.7,0-17.6-7.1-17.6-15.8
			C24.5,43.1,32.4,36,42.2,36z M46.7,37.2c-0.2,0-0.3-0.1-0.5-0.1c-1-0.2-1.9-0.5-4-0.5c-2.1,0-3.3,0.3-4.3,0.5l-0.2,0.1
			c-0.3,0.1-0.5,0.4-0.5,0.7c0.1,0.3,0.4,0.5,0.7,0.5l0.2-0.1c1-0.2,2.1-0.5,4-0.5c2,0,2.8,0.2,3.7,0.4c0.2,0,0.3,0.1,0.5,0.1
			c0,0,0.1,0,0.1,0c0.3,0,0.5-0.2,0.6-0.5C47.2,37.7,47,37.3,46.7,37.2z M37.9,48.4c0,2.3,1.9,4.2,4.2,4.2s4.2-1.9,4.2-4.2
			c0-2.3-1.9-4.2-4.2-4.2S37.9,46.1,37.9,48.4z M38.2,64c0.9,0.2,2.5,0.4,4,0.4c1.7,0,3.1-0.2,4-0.4c0.9-0.2,1.4-1,1.2-1.9
			c-0.2-0.9-1-1.4-1.9-1.2c-1,0.2-2.2,0.3-3.3,0.3c-1.3,0-2.6-0.2-3.3-0.3c-0.9-0.2-1.7,0.4-1.9,1.2C36.7,63,37.3,63.9,38.2,64z"/>
	</g>
</g>
</svg>
