<svg xmlns="http://www.w3.org/2000/svg" viewBox="0 0 256 256"><rect width="256" height="256" fill="none"/><path d="M56,144a8,8,0,0,1-8,8H24a8,8,0,0,1,0-16h8V72H24a8,8,0,0,1,0-16H40v0a8,8,0,0,1,6.78,3.74L80,112.91l33.22-53.15A8,8,0,0,1,120,56v0h16a8,8,0,0,1,0,16h-8v64h8a8,8,0,0,1,0,16H112a8,8,0,0,1,0-16V91.89L86.78,132.24a8,8,0,0,1-13.56,0L48,91.89V136A8,8,0,0,1,56,144Zm184-24H168a8,8,0,0,0-8,8v16a8,8,0,0,0,8,8h72a8,8,0,0,0,8-8V128A8,8,0,0,0,240,120Zm0,48H72a8,8,0,0,0-8,8v16a8,8,0,0,0,8,8H240a8,8,0,0,0,8-8V176A8,8,0,0,0,240,168Zm0-96H168a8,8,0,0,0-8,8V96a8,8,0,0,0,8,8h72a8,8,0,0,0,8-8V80A8,8,0,0,0,240,72Z"/></svg>