<svg xmlns="http://www.w3.org/2000/svg" viewBox="0 0 256 256"><rect width="256" height="256" fill="none"/><path d="M248,120v48a16,16,0,0,1-16,16h-8v16a8,8,0,0,1-16,0V184H48v16a8,8,0,0,1-16,0V184H24A16,16,0,0,1,8,168V120a16,16,0,0,1,16-16h8a16,16,0,0,1,16,16v16a8,8,0,0,0,8,8H200a8,8,0,0,0,8-8V120a16,16,0,0,1,16-16h8A16,16,0,0,1,248,120Zm-56,0a32,32,0,0,1,32-32h12a4,4,0,0,0,4-4V72a16,16,0,0,0-16-16H140a4,4,0,0,0-4,4v68h56ZM20,88H32a32,32,0,0,1,32,32v8h56V60a4,4,0,0,0-4-4H32A16,16,0,0,0,16,72V84A4,4,0,0,0,20,88Z"/></svg>