<svg xmlns="http://www.w3.org/2000/svg" viewBox="0 0 256 256"><rect width="256" height="256" fill="none"/><path d="M53.92,34.62A8,8,0,1,0,42.08,45.38L61.32,66.55C25,88.84,9.38,123.2,8.69,124.76a8,8,0,0,0,0,6.5c.35.79,8.82,19.57,27.65,38.4C61.43,194.74,93.12,208,128,208a127.11,127.11,0,0,0,52.07-10.83l22,24.21a8,8,0,1,0,11.84-10.76Zm89,121.69a32,32,0,0,1-41.67-45.85Zm104.39-25.05c-.42.94-10.55,23.37-33.36,43.8a8,8,0,0,1-11.26-.57L101.4,63.07A8,8,0,0,1,106,49.79,134,134,0,0,1,128,48c34.88,0,66.57,13.26,91.66,38.35,18.83,18.83,27.3,37.62,27.65,38.41A8,8,0,0,1,247.31,131.26Z"/></svg>