<svg xmlns="http://www.w3.org/2000/svg" viewBox="0 0 256 256"><rect width="256" height="256" fill="none"/><path d="M224,152a8,8,0,0,1-8,8H204v48a8,8,0,0,1-16,0V160H176a8,8,0,0,1,0-16h40A8,8,0,0,1,224,152ZM92,172a28,28,0,0,1-28,28H56v8a8,8,0,0,1-16,0V152a8,8,0,0,1,8-8H64A28,28,0,0,1,92,172Zm-16,0a12,12,0,0,0-12-12H56v24h8A12,12,0,0,0,76,172Zm84,0a28,28,0,0,1-28,28h-8v8a8,8,0,0,1-16,0V152a8,8,0,0,1,8-8h16A28,28,0,0,1,160,172Zm-16,0a12,12,0,0,0-12-12h-8v24h8A12,12,0,0,0,144,172ZM40,112V40A16,16,0,0,1,56,24h96a8,8,0,0,1,5.66,2.34l56,56A8,8,0,0,1,216,88v24a8,8,0,0,1-8,8H48A8,8,0,0,1,40,112ZM152,88h44L152,44Z"/></svg>