<svg xmlns="http://www.w3.org/2000/svg" viewBox="0 0 256 256"><rect width="256" height="256" fill="none"/><path d="M213.66,82.34l-56-56A8,8,0,0,0,152,24H56A16,16,0,0,0,40,40v72a8,8,0,0,0,8,8H208a8,8,0,0,0,8-8V88A8,8,0,0,0,213.66,82.34ZM152,88V44l44,44ZM87.54,154.69l-20,56a8,8,0,0,1-15.07,0l-20-56a8,8,0,0,1,15.07-5.38L60,184.21l12.47-34.9a8,8,0,0,1,15.07,5.38ZM184,160v12h16a8,8,0,0,1,0,16H184v12h24a8,8,0,0,1,0,16H176a8,8,0,0,1-8-8V152a8,8,0,0,1,8-8h32a8,8,0,0,1,0,16Zm-32-8v38a26,26,0,0,1-52,0V152a8,8,0,0,1,16,0v38a10,10,0,0,0,20,0V152a8,8,0,0,1,16,0Z"/></svg>