<svg xmlns="http://www.w3.org/2000/svg" viewBox="0 0 256 256"><rect width="256" height="256" fill="none"/><path d="M215.52,213.26,164.51,73l9.09-25H184a8,8,0,0,0,0-16H88a8,8,0,0,0,0,16h4.58L32.48,213.26a8,8,0,0,0,4.79,10.26A8.14,8.14,0,0,0,40,224a8,8,0,0,0,7.52-5.27L57.24,192h47l-7.74,21.26a8,8,0,0,0,4.79,10.26A8.14,8.14,0,0,0,104,224a8,8,0,0,0,7.52-5.27L130,168H182l18.45,50.73A8,8,0,0,0,208,224a8.14,8.14,0,0,0,2.73-.48A8,8,0,0,0,215.52,213.26ZM108.36,64h32a8,8,0,0,1,0,16h-32a8,8,0,0,1,0-16Zm2.91,96h-32a8,8,0,1,1,0-16h32a8,8,0,0,1,0,16Zm14.55-40h-32a8,8,0,0,1,0-16h32a8,8,0,0,1,0,16Zm10,32L156,96.41,176.21,152Z"/></svg>