<svg xmlns="http://www.w3.org/2000/svg" viewBox="0 0 256 256"><rect width="256" height="256" fill="none"/><path d="M161.22,217.74a4,4,0,0,1-3.31,6.26H98.1a4,4,0,0,1-3.31-6.26,40,40,0,0,1,66.43,0Zm68.93,3.37a8.29,8.29,0,0,1-6.43,2.89H184.56a4,4,0,0,1-3.76-2.65,56,56,0,0,0-105.59,0A4,4,0,0,1,71.45,224H32.23a8.2,8.2,0,0,1-6.42-2.93A8,8,0,0,1,25.75,211c.06-.07,7.64-9.78,15.12-28.72C47.77,164.8,56,135.64,56,96a72,72,0,0,1,144,0c0,39.64,8.23,68.8,15.13,86.28,7.48,18.94,15.06,28.65,15.13,28.74A8,8,0,0,1,230.15,221.11ZM88,108a12,12,0,1,0,12-12A12,12,0,0,0,88,108Zm79.16,32.42a8,8,0,0,0-10.73-3.58L128,151.06,99.58,136.84a8,8,0,0,0-7.15,14.32l32,16a8,8,0,0,0,7.15,0l32-16A8,8,0,0,0,167.16,140.42ZM168,108a12,12,0,1,0-12,12A12,12,0,0,0,168,108Z"/></svg>