<svg xmlns="http://www.w3.org/2000/svg" viewBox="0 0 256 256"><rect width="256" height="256" fill="none"/><path d="M53.92,34.62A8,8,0,1,0,42.08,45.38L73.55,80H32A16,16,0,0,0,16,96v64a16,16,0,0,0,16,16H77.25l69.84,54.31A8,8,0,0,0,160,224V175.09l42.08,46.29a8,8,0,1,0,11.84-10.76ZM32,96H72v64H32Zm154,47.87a24,24,0,0,0,0-31.72,8,8,0,1,1,12-10.57,40,40,0,0,1,0,52.88,8,8,0,0,1-12-10.59ZM106.23,68.38a8,8,0,0,1,1-11.7l39.85-31A8,8,0,0,1,160,32v74.83a8,8,0,0,1-13.92,5.38ZM248,128a79.9,79.9,0,0,1-20.37,53.34,8,8,0,0,1-11.92-10.67,64,64,0,0,0,0-85.33,8,8,0,1,1,11.92-10.67A79.83,79.83,0,0,1,248,128Z"/></svg>