<svg xmlns="http://www.w3.org/2000/svg" viewBox="0 0 256 256"><rect width="256" height="256" fill="none"/><path d="M239.2,97.29a16,16,0,0,0-13.81-11L166,81.17,142.72,25.81a15.95,15.95,0,0,0-29.44,0L90.07,81.17,30.61,86.31a16,16,0,0,0-9.11,28.07L66.61,153.8,53.09,212.34a16,16,0,0,0,23.84,17.34l51-31,51.11,31a16,16,0,0,0,23.84-17.34l-13.51-58.6,45.1-39.36A16,16,0,0,0,239.2,97.29Zm-15.22,5-45.1,39.36a16,16,0,0,0-5.08,15.71L187.35,216v0l-51.07-31a15.9,15.9,0,0,0-8.27-2.32V32.09h0l23.2,55.28a16,16,0,0,0,13.35,9.75L224,102.26S224,102.32,224,102.33Z"/></svg>