<svg xmlns="http://www.w3.org/2000/svg" viewBox="0 0 256 256"><rect width="256" height="256" fill="none"/><path d="M72,172H64A48,48,0,0,1,48,78.73V72a40,40,0,0,1,80,0V176" fill="none" stroke="currentColor" stroke-linecap="round" stroke-linejoin="round" stroke-width="24"/><path d="M184,172h8a48,48,0,0,0,16-93.27V72a40,40,0,0,0-80,0" fill="none" stroke="currentColor" stroke-linecap="round" stroke-linejoin="round" stroke-width="24"/><path d="M196,116a28,28,0,0,1-28-28V84" fill="none" stroke="currentColor" stroke-linecap="round" stroke-linejoin="round" stroke-width="24"/><path d="M100,137.83A40,40,0,1,1,48,176v-6.73" fill="none" stroke="currentColor" stroke-linecap="round" stroke-linejoin="round" stroke-width="24"/><path d="M156.11,137.8A40,40,0,1,0,208,176v-6.73" fill="none" stroke="currentColor" stroke-linecap="round" stroke-linejoin="round" stroke-width="24"/><path d="M60,116A28,28,0,0,0,88,88V84" fill="none" stroke="currentColor" stroke-linecap="round" stroke-linejoin="round" stroke-width="24"/></svg>