<svg xmlns="http://www.w3.org/2000/svg" viewBox="0 0 256 256"><rect width="256" height="256" fill="none"/><line x1="48" y1="100" x2="208" y2="100" fill="none" stroke="currentColor" stroke-linecap="round" stroke-linejoin="round" stroke-width="24"/><path d="M208,180H48V64A24,24,0,0,1,72,40H184a24,24,0,0,1,24,24Z" fill="none" stroke="currentColor" stroke-linecap="round" stroke-linejoin="round" stroke-width="24"/><path d="M208,180v28a8,8,0,0,1-8,8H172a8,8,0,0,1-8-8V180" fill="none" stroke="currentColor" stroke-linecap="round" stroke-linejoin="round" stroke-width="24"/><path d="M92,180v28a8,8,0,0,1-8,8H56a8,8,0,0,1-8-8V180" fill="none" stroke="currentColor" stroke-linecap="round" stroke-linejoin="round" stroke-width="24"/><circle cx="92" cy="140" r="16"/><circle cx="164" cy="140" r="16"/><line x1="244" y1="80" x2="244" y2="104" fill="none" stroke="currentColor" stroke-linecap="round" stroke-linejoin="round" stroke-width="24"/><line x1="12" y1="80" x2="12" y2="104" fill="none" stroke="currentColor" stroke-linecap="round" stroke-linejoin="round" stroke-width="24"/></svg>