<svg xmlns="http://www.w3.org/2000/svg" viewBox="0 0 256 256"><rect width="256" height="256" fill="none"/><path d="M32,208H84.5a8,8,0,0,0,5.88-2.57l91.24-98.86A8,8,0,0,1,187.5,104H224a8,8,0,0,0,8-8V56a8,8,0,0,0-8-8H171.5a8,8,0,0,0-5.88,2.57L74.38,149.43A8,8,0,0,1,68.5,152H32a8,8,0,0,0-8,8v40A8,8,0,0,0,32,208Z" fill="none" stroke="currentColor" stroke-linecap="round" stroke-linejoin="round" stroke-width="24"/><polyline points="176 176 200 152 224 176" fill="none" stroke="currentColor" stroke-linecap="round" stroke-linejoin="round" stroke-width="24"/><line x1="200" y1="152" x2="200" y2="208" fill="none" stroke="currentColor" stroke-linecap="round" stroke-linejoin="round" stroke-width="24"/></svg>