<svg xmlns="http://www.w3.org/2000/svg" viewBox="0 0 256 256"><rect width="256" height="256" fill="none"/><path d="M208,136.15c0,50.95-66.22,68.79-78.17,71.6a8.08,8.08,0,0,1-3.66,0c-12-2.81-78.17-20.65-78.17-71.6V76.9a8,8,0,0,1,5-7.42l72-28.8a7.93,7.93,0,0,1,5.94,0l72,28.8a8,8,0,0,1,5,7.42Z" fill="none" stroke="currentColor" stroke-linecap="round" stroke-linejoin="round" stroke-width="24"/><line x1="88" y1="100" x2="168" y2="100" fill="none" stroke="currentColor" stroke-linecap="round" stroke-linejoin="round" stroke-width="24"/><line x1="88" y1="140" x2="168" y2="140" fill="none" stroke="currentColor" stroke-linecap="round" stroke-linejoin="round" stroke-width="24"/><path d="M209.41,152H220a24,24,0,0,0,24-24V104a24,24,0,0,0-24-24h-8" fill="none" stroke="currentColor" stroke-linecap="round" stroke-linejoin="round" stroke-width="24"/><path d="M46.59,152H36a24,24,0,0,1-24-24V104A24,24,0,0,1,36,80h8" fill="none" stroke="currentColor" stroke-linecap="round" stroke-linejoin="round" stroke-width="24"/></svg>