<svg xmlns="http://www.w3.org/2000/svg" viewBox="0 0 256 256"><rect width="256" height="256" fill="none"/><path d="M98,64.31a20,20,0,0,1,34.64-20l28,48.5" fill="none" stroke="currentColor" stroke-linecap="round" stroke-linejoin="round" stroke-width="24"/><path d="M71.35,98.17l-16-27.71A20,20,0,0,1,90,50.46l34,58.89" fill="none" stroke="currentColor" stroke-linecap="round" stroke-linejoin="round" stroke-width="24"/><path d="M72,240.08A119.89,119.89,0,0,1,40.06,204" fill="none" stroke="currentColor" stroke-linecap="round" stroke-linejoin="round" stroke-width="24"/><path d="M156,164.77a40,40,0,0,1,14.64-54.64l-10-17.32a20,20,0,0,1,34.64-20l18,31.18A80,80,0,0,1,74.7,184l-38-65.82a20,20,0,0,1,34.65-20l22,38.1" fill="none" stroke="currentColor" stroke-linecap="round" stroke-linejoin="round" stroke-width="24"/><path d="M193.48,24.85a59.61,59.61,0,0,1,36.43,28" fill="none" stroke="currentColor" stroke-linecap="round" stroke-linejoin="round" stroke-width="24"/></svg>