<svg xmlns="http://www.w3.org/2000/svg" viewBox="0 0 256 256"><rect width="256" height="256" fill="none"/><path d="M186,32a8,8,0,0,1,7.94,7l22,176a8,8,0,0,1-7.94,9H167.31a8,8,0,0,1-7.76-6.06L128,96,96.45,217.94A8,8,0,0,1,88.69,224H48a8,8,0,0,1-7.94-9l22-176A8,8,0,0,1,70,32Z" fill="none" stroke="currentColor" stroke-linecap="round" stroke-linejoin="round" stroke-width="24"/><line x1="128" y1="96" x2="128" y2="72" fill="none" stroke="currentColor" stroke-linecap="round" stroke-linejoin="round" stroke-width="24"/><line x1="57.94" y1="72" x2="198.06" y2="72" fill="none" stroke="currentColor" stroke-linecap="round" stroke-linejoin="round" stroke-width="24"/><path d="M164,72v8a40,40,0,0,0,40,40h.06" fill="none" stroke="currentColor" stroke-linecap="round" stroke-linejoin="round" stroke-width="24"/><path d="M92,72v8a40,40,0,0,1-40,40h-.06" fill="none" stroke="currentColor" stroke-linecap="round" stroke-linejoin="round" stroke-width="24"/></svg>