<svg xmlns="http://www.w3.org/2000/svg" viewBox="0 0 256 256"><rect width="256" height="256" fill="none"/><path d="M32,104H80a0,0,0,0,1,0,0V208a0,0,0,0,1,0,0H32a8,8,0,0,1-8-8V112A8,8,0,0,1,32,104Z" fill="none" stroke="currentColor" stroke-linecap="round" stroke-linejoin="round" stroke-width="24"/><path d="M80,104l40-80a32,32,0,0,1,32,32V80h64a16,16,0,0,1,15.87,18l-12,96A16,16,0,0,1,204,208H80" fill="none" stroke="currentColor" stroke-linecap="round" stroke-linejoin="round" stroke-width="24"/></svg>