<svg width="16" height="16" viewBox="0 0 16 16" fill="none" xmlns="http://www.w3.org/2000/svg">
<path d="M15.375 11.25H15.3691C15.3713 11.2914 15.375 11.333 15.375 11.375C15.375 12.6712 14.3406 13.6763 13.0527 14.3203C11.7274 14.983 9.93995 15.375 8 15.375C6.06005 15.375 4.2726 14.983 2.94727 14.3203C1.65945 13.6763 0.625 12.6712 0.625 11.375C0.625 11.333 0.628712 11.2914 0.630859 11.25H0.625V10.7803C1.06628 11.2237 1.59903 11.6065 2.18945 11.9268C2.99144 12.3617 3.91565 12.6931 4.90332 12.915C5.89291 13.1374 6.94447 13.25 8 13.25C9.05553 13.25 10.1071 13.1374 11.0967 12.915C12.0844 12.6931 13.0086 12.3617 13.8105 11.9268C14.401 11.6065 14.9337 11.2237 15.375 10.7803V11.25ZM15.375 8C15.375 8.52505 15.1841 9.04489 14.8135 9.53027C14.4429 10.0155 13.8997 10.4567 13.2148 10.8281C12.53 11.1996 11.717 11.4943 10.8223 11.6953C9.92749 11.8963 8.9685 12 8 12C7.0315 12 6.07251 11.8963 5.17773 11.6953C4.28296 11.4943 3.46998 11.1996 2.78516 10.8281C2.10034 10.4567 1.55713 10.0155 1.18652 9.53027C0.815898 9.04489 0.625 8.52505 0.625 8V7.41113C1.07864 7.86468 1.62031 8.24795 2.18945 8.55664C3.74018 9.3977 5.79664 9.87988 8 9.87988C10.2034 9.87988 12.2598 9.3977 13.8105 8.55664C14.3797 8.24795 14.9214 7.86468 15.375 7.41113V8ZM8 0.629883C12.073 0.629883 15.3749 2.4208 15.375 4.62988C15.375 6.83902 12.0731 8.62988 8 8.62988C3.9269 8.62988 0.625 6.83902 0.625 4.62988C0.625117 2.4208 3.92697 0.629883 8 0.629883Z" fill="currentColor"/>
</svg>
