<svg stroke="currentColor" fill="currentColor" stroke-width="0" version="1.1" viewBox="0 0 16 16" height="1em" width="1em" xmlns="http://www.w3.org/2000/svg"><path d="M8 2c-3.866 0-7 3.134-7 7s3.134 7 7 7 7-3.134 7-7-3.134-7-7-7zM8 14.625c-3.107 0-5.625-2.518-5.625-5.625s2.518-5.625 5.625-5.625c3.107 0 5.625 2.518 5.625 5.625s-2.518 5.625-5.625 5.625zM14.606 4.487c0.251-0.438 0.394-0.946 0.394-1.487 0-1.657-1.343-3-3-3-0.966 0-1.825 0.457-2.374 1.166 2.061 0.426 3.831 1.644 4.98 3.322v0zM6.374 1.166c-0.549-0.709-1.408-1.166-2.374-1.166-1.657 0-3 1.343-3 3 0 0.541 0.143 1.049 0.394 1.487 1.148-1.678 2.919-2.896 4.98-3.322z"></path><path d="M8 9v-4h-1v5h4v-1z"></path></svg>