<svg stroke="currentColor" fill="currentColor" stroke-width="0" version="1.1" viewBox="0 0 16 16" height="1em" width="1em" xmlns="http://www.w3.org/2000/svg"><path d="M13.942 6.039c0.038-0.174 0.058-0.354 0.058-0.539 0-1.381-1.119-2.5-2.5-2.5-0.222 0-0.438 0.029-0.643 0.084-0.387-1.209-1.52-2.084-2.857-2.084-1.365 0-2.516 0.911-2.88 2.159-0.355-0.103-0.731-0.159-1.12-0.159-2.209 0-4 1.791-4 4s1.791 4 4 4h2v3h4v-3h3.5c1.381 0 2.5-1.119 2.5-2.5 0-1.23-0.888-2.253-2.058-2.461zM9 10v3h-2v-3h-2.5l3.5-3.5 3.5 3.5h-2.5z"></path></svg>