<svg stroke="currentColor" fill="currentColor" stroke-width="0" version="1.1" viewBox="0 0 16 16" height="1em" width="1em" xmlns="http://www.w3.org/2000/svg"><path d="M8 0c-4.418 0-8 3.582-8 8s3.582 8 8 8 8-3.582 8-8-3.582-8-8-8zM1.5 8c0-3.59 2.91-6.5 6.5-6.5 1.712 0 3.269 0.662 4.43 1.744l-6.43 2.756-2.756 6.43c-1.082-1.161-1.744-2.718-1.744-4.43zM9.143 9.143l-4.001 1.715 1.715-4.001 2.286 2.286zM8 14.5c-1.712 0-3.269-0.662-4.43-1.744l6.43-2.756 2.756-6.43c1.082 1.161 1.744 2.718 1.744 4.43 0 3.59-2.91 6.5-6.5 6.5z"></path></svg>