<svg stroke="currentColor" fill="currentColor" stroke-width="0" version="1.1" viewBox="0 0 16 16" height="1em" width="1em" xmlns="http://www.w3.org/2000/svg"><path d="M8 0c-4.418 0-8 3.582-8 8s3.582 8 8 8c4.418 0 8-3.582 8-8s-3.582-8-8-8zM11 4c0.552 0 1 0.448 1 1s-0.448 1-1 1-1-0.448-1-1c0-0.552 0.448-1 1-1zM5 4c0.552 0 1 0.448 1 1s-0.448 1-1 1-1-0.448-1-1c0-0.552 0.448-1 1-1zM10.735 12.665c-1.295 0.472-2.733-0.199-3.204-1.494-0.283-0.777-1.145-1.179-1.923-0.896-0.712 0.259-1.109 1.005-0.953 1.725h-1.013c-0.144-1.133 0.507-2.258 1.624-2.665 1.295-0.472 2.733 0.199 3.204 1.494 0.283 0.777 1.145 1.179 1.923 0.896 0.712-0.259 1.109-1.005 0.953-1.725h1.014c0.144 1.133-0.507 2.258-1.624 2.665z"></path></svg>