<svg stroke="currentColor" fill="currentColor" stroke-width="0" version="1.1" viewBox="0 0 16 16" height="1em" width="1em" xmlns="http://www.w3.org/2000/svg"><path d="M16 2h-2v-2h-2v2h-2v2h2v2h2v-2h2z"></path><path d="M13.498 6.969c0.288 0.32 0.55 0.665 0.782 1.031-0.598 0.946-1.395 1.749-2.335 2.348-1.181 0.753-2.545 1.152-3.944 1.152s-2.763-0.398-3.945-1.152c-0.94-0.6-1.736-1.403-2.335-2.348 0.598-0.946 1.395-1.749 2.335-2.348 0.061-0.039 0.123-0.077 0.185-0.114-0.156 0.427-0.241 0.888-0.241 1.369 0 2.209 1.791 4 4 4s4-1.791 4-4c0-0.011-0-0.022-0-0.032-1.708-0.44-2.973-1.979-2.999-3.817-0.329-0.037-0.662-0.057-1.001-0.057-3.489 0-6.514 2.032-8 5 1.486 2.968 4.511 5 8 5s6.514-2.032 8-5c-0.276-0.55-0.604-1.069-0.979-1.548-0.457 0.268-0.973 0.449-1.523 0.517zM6.5 5c0.828 0 1.5 0.672 1.5 1.5s-0.672 1.5-1.5 1.5-1.5-0.672-1.5-1.5 0.672-1.5 1.5-1.5z"></path></svg>