<svg stroke="currentColor" fill="currentColor" stroke-width="0" version="1.1" viewBox="0 0 16 16" height="1em" width="1em" xmlns="http://www.w3.org/2000/svg"><path d="M8.894 12.16c-0-0.001-0-0.001-0-0.002 0 0.001 0 0.001 0 0.002z"></path><path d="M8.916 12.727c-0-0.004-0-0.007-0.001-0.011 0 0.004 0 0.007 0.001 0.011z"></path><path d="M8.903 12.442c-0-0.003-0-0.006-0-0.008 0 0.003 0 0.006 0 0.008z"></path><path d="M15 0h-14c-0.55 0-1 0.45-1 1v14c0 0.55 0.45 1 1 1h7.716c0.001 0 0.001 0 0.002 0s0.001-0 0.002-0h6.28c0.55 0 1-0.45 1-1v-14c0-0.55-0.45-1-1-1zM3 3.5c0-0.276 0.224-0.5 0.5-0.5s0.5 0.224 0.5 0.5v1c0 0.276-0.224 0.5-0.5 0.5s-0.5-0.224-0.5-0.5v-1zM15 15h-5.86c-0.105-0.658-0.17-1.336-0.209-1.994 0 0.002 0 0.004 0 0.005-0.308 0.034-0.618 0.051-0.931 0.051-2.088 0-4.1-0.76-5.664-2.141-0.233-0.206-0.255-0.561-0.050-0.794s0.561-0.255 0.794-0.050c1.358 1.199 3.105 1.859 4.919 1.859 0.298 0 0.595-0.018 0.888-0.053-0.034-1.847 0.107-3.311 0.11-3.334 0.014-0.141-0.032-0.28-0.127-0.385s-0.229-0.164-0.371-0.164h-1.487c0.022-0.541 0.079-1.466 0.234-2.503 0.295-1.981 0.812-3.528 1.502-4.497h6.251v14z"></path><path d="M12.5 5c-0.276 0-0.5-0.224-0.5-0.5v-1c0-0.276 0.224-0.5 0.5-0.5s0.5 0.224 0.5 0.5v1c0 0.276-0.224 0.5-0.5 0.5z"></path><path d="M8.445 13.050c-0.057 0.003-0.114 0.005-0.171 0.007 0.057-0.002 0.114-0.004 0.171-0.007z"></path><path d="M8 13.063c0.073 0 0.146-0.001 0.22-0.003-0.073 0.002-0.146 0.003-0.22 0.003z"></path><path d="M8.423 11.925c0.012-0.001 0.024-0.001 0.037-0.002-0.012 0.001-0.024 0.001-0.037 0.002z"></path><path d="M8.204 11.934c0.017-0 0.034-0.001 0.050-0.002-0.017 0.001-0.034 0.001-0.050 0.002z"></path><path d="M13.713 10.128c-0.206-0.233-0.561-0.255-0.794-0.050-1.135 1.002-2.542 1.627-4.032 1.806 0.007 0.364 0.020 0.742 0.043 1.127 1.749-0.191 3.403-0.916 4.733-2.090 0.233-0.206 0.255-0.561 0.050-0.794z"></path><path d="M8.93 13.012c-0.072 0.008-0.144 0.015-0.216 0.021 0.072-0.006 0.144-0.013 0.216-0.021z"></path><path d="M8.68 13.035c-0.061 0.005-0.122 0.009-0.183 0.013 0.061-0.004 0.122-0.008 0.183-0.013z"></path></svg>