<svg stroke="currentColor" fill="currentColor" stroke-width="0" version="1.1" viewBox="0 0 16 16" height="1em" width="1em" xmlns="http://www.w3.org/2000/svg"><path d="M4 3l-2-2h-1v1l2 2zM5 0h1v2h-1zM9 5h2v1h-2zM10 2v-1h-1l-2 2 1 1zM0 5h2v1h-2zM5 9h1v2h-1zM1 9v1h1l2-2-1-1zM15.781 13.781l-9.939-9.939c-0.292-0.292-0.769-0.292-1.061 0l-0.939 0.939c-0.292 0.292-0.292 0.769 0 1.061l9.939 9.939c0.292 0.292 0.769 0.292 1.061 0l0.939-0.939c0.292-0.292 0.292-0.769 0-1.061zM7.5 8.5l-3-3 1-1 3 3-1 1z"></path></svg>