<svg stroke="currentColor" fill="currentColor" stroke-width="0" version="1.1" viewBox="0 0 16 16" height="1em" width="1em" xmlns="http://www.w3.org/2000/svg"><path d="M11 8v6h1v-6h2.5l-3-3-3 3z"></path><path d="M1 3h1.5v1h-1.5v-1z"></path><path d="M3 3h1.5v1h-1.5v-1z"></path><path d="M5 3h1v1.5h-1v-1.5z"></path><path d="M1 6.5h1v1.5h-1v-1.5z"></path><path d="M2.5 7h1.5v1h-1.5v-1z"></path><path d="M4.5 7h1.5v1h-1.5v-1z"></path><path d="M1 4.5h1v1.5h-1v-1.5z"></path><path d="M5 5h1v1.5h-1v-1.5z"></path><path d="M5 11v3h-3v-3h3zM6 10h-5v5h5v-5z"></path></svg>