<svg stroke="currentColor" fill="currentColor" stroke-width="0" version="1.1" viewBox="0 0 16 16" height="1em" width="1em" xmlns="http://www.w3.org/2000/svg"><path d="M6.5 15h2.5c0.827 0 1.5-0.673 1.5-1.5 0-0.267-0.070-0.518-0.193-0.736 0.417-0.267 0.693-0.734 0.693-1.264 0-0.384-0.145-0.734-0.383-1 0.238-0.266 0.383-0.616 0.383-1 0-0.175-0.030-0.344-0.086-0.5h3.586c0.827 0 1.5-0.673 1.5-1.5s-0.673-1.5-1.5-1.5h-6.167l1.466-2.75c0.131-0.227 0.201-0.486 0.201-0.75 0-0.827-0.673-1.5-1.5-1.5-0.412 0-0.796 0.164-1.082 0.461-0.004 0.004-0.007 0.008-0.011 0.012l-3.407 3.737v-0.71c0-0.276-0.224-0.5-0.5-0.5h-3c-0.276 0-0.5 0.224-0.5 0.5v10c0 0.276 0.224 0.5 0.5 0.5h3c0.276 0 0.5-0.224 0.5-0.5v-0.691l2.276 1.138c0.069 0.035 0.146 0.053 0.224 0.053zM2.5 14c-0.276 0-0.5-0.224-0.5-0.5s0.224-0.5 0.5-0.5 0.5 0.224 0.5 0.5-0.224 0.5-0.5 0.5zM6.618 14l-2.618-1.309v-5.997l4.143-4.544c0.095-0.097 0.221-0.15 0.357-0.15 0.276 0 0.5 0.224 0.5 0.5 0 0.085-0.020 0.166-0.061 0.239-0.005 0.008-0.010 0.017-0.014 0.025l-1.866 3.5c-0.083 0.155-0.078 0.342 0.013 0.492s0.253 0.243 0.429 0.243h7c0.276 0 0.5 0.224 0.5 0.5s-0.224 0.5-0.5 0.5h-5c-0.276 0-0.5 0.224-0.5 0.5s0.224 0.5 0.5 0.5c0.276 0 0.5 0.224 0.5 0.5s-0.224 0.5-0.5 0.5c-0.276 0-0.5 0.224-0.5 0.5s0.224 0.5 0.5 0.5c0.276 0 0.5 0.224 0.5 0.5s-0.224 0.5-0.5 0.5h-0.5c-0.276 0-0.5 0.224-0.5 0.5s0.224 0.5 0.5 0.5c0.276 0 0.5 0.224 0.5 0.5s-0.224 0.5-0.5 0.5h-2.382z"></path></svg>