<svg stroke="currentColor" fill="currentColor" stroke-width="0" version="1.1" viewBox="0 0 16 16" height="1em" width="1em" xmlns="http://www.w3.org/2000/svg"><path d="M8 16c4.418 0 8-3.582 8-8s-3.582-8-8-8-8 3.582-8 8 3.582 8 8 8zM8 1.5c3.59 0 6.5 2.91 6.5 6.5s-2.91 6.5-6.5 6.5-6.5-2.91-6.5-6.5 2.91-6.5 6.5-6.5zM6 11c0-1.105 0.895-2 2-2s2 0.895 2 2c0 1.105-0.895 2-2 2s-2-0.895-2-2zM10 5.5c0-0.828 0.448-1.5 1-1.5s1 0.672 1 1.5c0 0.828-0.448 1.5-1 1.5s-1-0.672-1-1.5zM4 5.5c0-0.828 0.448-1.5 1-1.5s1 0.672 1 1.5c0 0.828-0.448 1.5-1 1.5s-1-0.672-1-1.5z"></path></svg>