<svg stroke="currentColor" fill="currentColor" stroke-width="0" version="1.1" viewBox="0 0 16 16" height="1em" width="1em" xmlns="http://www.w3.org/2000/svg"><path d="M0.001 8.025l-0 0c0 0 0 0.001 0 0.003 0.002 0.061 0.009 0.12 0.021 0.177 0.003 0.027 0.007 0.057 0.011 0.090 0.003 0.029 0.007 0.061 0.011 0.095 0.006 0.040 0.012 0.083 0.019 0.128 0.013 0.090 0.028 0.189 0.045 0.296 0.021 0.101 0.044 0.21 0.068 0.326 0.011 0.058 0.028 0.117 0.044 0.178s0.032 0.123 0.049 0.188c0.009 0.032 0.016 0.065 0.027 0.097s0.021 0.065 0.031 0.098 0.043 0.134 0.065 0.203c0.006 0.017 0.011 0.035 0.017 0.052s0.013 0.034 0.019 0.052 0.026 0.070 0.039 0.105c0.027 0.070 0.053 0.142 0.081 0.215 0.031 0.071 0.062 0.144 0.094 0.218 0.016 0.037 0.032 0.074 0.048 0.111s0.035 0.073 0.053 0.111 0.073 0.148 0.11 0.224c0.039 0.075 0.081 0.149 0.123 0.224 0.021 0.037 0.042 0.075 0.063 0.113s0.045 0.074 0.068 0.112 0.093 0.149 0.14 0.224c0.198 0.295 0.417 0.587 0.66 0.864 0.245 0.275 0.511 0.535 0.792 0.775 0.284 0.236 0.582 0.452 0.886 0.642 0.306 0.188 0.619 0.349 0.928 0.487 0.078 0.032 0.156 0.063 0.232 0.095 0.038 0.015 0.076 0.032 0.115 0.046s0.077 0.027 0.115 0.041 0.151 0.054 0.226 0.078c0.075 0.022 0.15 0.044 0.224 0.066 0.037 0.011 0.073 0.022 0.109 0.031s0.073 0.018 0.109 0.027 0.143 0.035 0.213 0.052c0.070 0.014 0.139 0.027 0.207 0.040 0.034 0.006 0.067 0.013 0.101 0.019 0.017 0.003 0.033 0.006 0.049 0.009s0.033 0.005 0.049 0.007c0.066 0.009 0.13 0.018 0.192 0.027 0.031 0.004 0.062 0.009 0.093 0.013s0.061 0.006 0.091 0.009 0.118 0.010 0.174 0.015c0.056 0.005 0.111 0.011 0.164 0.012 0.004 0 0.007 0 0.011 0 0.010 0.544 0.453 0.982 1 0.982 0.008 0 0.017-0 0.025-0.001v0c0 0 0.001-0 0.004-0 0.061-0.002 0.12-0.009 0.177-0.021 0.027-0.003 0.057-0.007 0.090-0.011 0.029-0.003 0.061-0.007 0.095-0.011 0.040-0.006 0.083-0.012 0.128-0.019 0.090-0.013 0.189-0.028 0.296-0.045 0.101-0.021 0.21-0.044 0.326-0.068 0.058-0.011 0.117-0.028 0.178-0.044s0.123-0.033 0.188-0.049c0.032-0.009 0.065-0.016 0.097-0.027s0.065-0.021 0.098-0.031 0.134-0.043 0.203-0.065c0.017-0.006 0.035-0.011 0.052-0.017s0.034-0.013 0.052-0.019 0.070-0.026 0.105-0.039c0.070-0.027 0.142-0.053 0.215-0.081 0.071-0.031 0.144-0.062 0.218-0.094 0.037-0.016 0.074-0.032 0.111-0.048s0.073-0.035 0.111-0.053 0.148-0.073 0.224-0.11c0.075-0.039 0.149-0.081 0.224-0.123 0.037-0.021 0.075-0.042 0.113-0.063s0.074-0.045 0.112-0.068 0.149-0.093 0.224-0.14c0.295-0.197 0.587-0.417 0.864-0.66 0.275-0.245 0.535-0.511 0.775-0.792 0.236-0.284 0.452-0.582 0.642-0.886 0.188-0.306 0.349-0.619 0.487-0.928 0.032-0.078 0.063-0.156 0.095-0.232 0.015-0.038 0.032-0.076 0.046-0.115s0.027-0.077 0.040-0.115 0.054-0.151 0.078-0.226c0.022-0.075 0.044-0.15 0.066-0.224 0.011-0.037 0.022-0.073 0.031-0.109s0.018-0.073 0.027-0.109 0.035-0.143 0.052-0.213c0.014-0.070 0.027-0.139 0.040-0.207 0.006-0.034 0.013-0.067 0.019-0.101 0.003-0.017 0.006-0.033 0.009-0.049s0.005-0.033 0.007-0.050c0.009-0.065 0.018-0.13 0.027-0.192 0.004-0.031 0.009-0.062 0.013-0.093s0.006-0.061 0.009-0.091 0.010-0.118 0.015-0.174c0.005-0.056 0.011-0.111 0.012-0.165 0-0.008 0.001-0.016 0.001-0.025 0.55-0.002 0.996-0.449 0.996-1 0-0.008-0-0.017-0.001-0.025h0c0 0-0-0.001-0-0.003-0.002-0.061-0.009-0.12-0.021-0.177-0.003-0.027-0.007-0.057-0.011-0.090-0.003-0.029-0.007-0.061-0.011-0.095-0.006-0.040-0.012-0.083-0.019-0.128-0.013-0.090-0.028-0.189-0.045-0.296-0.021-0.101-0.044-0.21-0.068-0.326-0.011-0.058-0.028-0.117-0.044-0.178s-0.032-0.123-0.049-0.188c-0.009-0.032-0.016-0.065-0.027-0.097s-0.021-0.065-0.031-0.098-0.043-0.134-0.065-0.203c-0.005-0.017-0.011-0.035-0.017-0.052s-0.013-0.034-0.019-0.052-0.026-0.070-0.039-0.105c-0.027-0.070-0.053-0.142-0.081-0.215-0.031-0.071-0.062-0.144-0.094-0.218-0.016-0.037-0.032-0.074-0.048-0.111s-0.035-0.073-0.053-0.111-0.073-0.148-0.11-0.224c-0.039-0.075-0.081-0.149-0.123-0.224-0.021-0.037-0.042-0.075-0.063-0.113s-0.045-0.074-0.068-0.112-0.093-0.149-0.14-0.224c-0.197-0.295-0.417-0.587-0.66-0.864-0.245-0.275-0.511-0.535-0.792-0.775-0.284-0.236-0.582-0.452-0.886-0.642-0.306-0.188-0.619-0.349-0.928-0.487-0.078-0.032-0.156-0.063-0.232-0.095-0.038-0.015-0.076-0.032-0.115-0.046s-0.077-0.027-0.115-0.040-0.151-0.054-0.226-0.078c-0.075-0.022-0.15-0.044-0.224-0.066-0.037-0.010-0.073-0.022-0.109-0.031s-0.073-0.018-0.109-0.027-0.143-0.035-0.213-0.052c-0.070-0.014-0.139-0.027-0.207-0.040-0.034-0.006-0.067-0.013-0.101-0.019-0.017-0.003-0.033-0.006-0.049-0.009s-0.033-0.005-0.049-0.007c-0.066-0.009-0.13-0.018-0.192-0.027-0.031-0.004-0.062-0.009-0.093-0.013s-0.061-0.006-0.091-0.009-0.118-0.010-0.174-0.015c-0.056-0.005-0.111-0.011-0.164-0.012-0.013-0-0.026-0.001-0.039-0.001-0.010-0.543-0.454-0.981-0.999-0.981-0.008 0-0.017 0-0.025 0.001l-0-0c0 0-0.001 0-0.003 0-0.061 0.002-0.12 0.009-0.177 0.021-0.027 0.003-0.057 0.007-0.090 0.011-0.029 0.003-0.061 0.007-0.095 0.011-0.040 0.006-0.083 0.012-0.128 0.019-0.090 0.013-0.189 0.028-0.296 0.045-0.101 0.021-0.21 0.044-0.326 0.068-0.058 0.011-0.117 0.028-0.178 0.044s-0.123 0.033-0.188 0.049c-0.032 0.009-0.065 0.016-0.097 0.027s-0.065 0.021-0.098 0.031-0.134 0.043-0.203 0.065c-0.017 0.006-0.035 0.011-0.052 0.017s-0.034 0.013-0.052 0.019-0.070 0.026-0.105 0.039c-0.070 0.027-0.142 0.053-0.215 0.081-0.071 0.031-0.144 0.062-0.218 0.094-0.037 0.016-0.074 0.032-0.111 0.048s-0.073 0.035-0.111 0.053-0.148 0.073-0.224 0.11c-0.075 0.039-0.149 0.081-0.224 0.123-0.037 0.021-0.075 0.042-0.113 0.063s-0.074 0.045-0.112 0.068-0.149 0.093-0.224 0.14c-0.295 0.198-0.587 0.417-0.864 0.66-0.275 0.245-0.535 0.511-0.775 0.792-0.236 0.284-0.452 0.582-0.642 0.886-0.188 0.306-0.349 0.619-0.487 0.928-0.032 0.078-0.063 0.156-0.095 0.232-0.015 0.038-0.032 0.076-0.046 0.115s-0.027 0.077-0.040 0.115-0.054 0.151-0.078 0.226c-0.022 0.075-0.044 0.15-0.066 0.224-0.011 0.037-0.022 0.073-0.032 0.109s-0.018 0.073-0.027 0.109-0.035 0.143-0.052 0.213c-0.014 0.070-0.027 0.139-0.040 0.207-0.006 0.034-0.013 0.067-0.019 0.101-0.003 0.017-0.006 0.033-0.009 0.049s-0.005 0.033-0.007 0.050c-0.009 0.065-0.018 0.13-0.027 0.192-0.004 0.031-0.009 0.062-0.013 0.093s-0.006 0.061-0.009 0.091-0.010 0.118-0.015 0.174c-0.005 0.056-0.011 0.111-0.012 0.165-0 0.009-0.001 0.017-0.001 0.025-0.537 0.017-0.967 0.458-0.967 0.999 0 0.008 0 0.017 0.001 0.025zM1.149 7.011c0.001-0.003 0.001-0.006 0.002-0.009 0.010-0.051 0.026-0.102 0.040-0.155s0.030-0.107 0.045-0.163c0.008-0.028 0.015-0.056 0.024-0.084s0.019-0.057 0.028-0.086 0.038-0.116 0.058-0.176c0.005-0.015 0.010-0.030 0.015-0.045s0.012-0.030 0.017-0.045 0.023-0.060 0.035-0.091 0.048-0.123 0.073-0.186c0.028-0.062 0.056-0.125 0.084-0.189 0.014-0.032 0.028-0.064 0.043-0.096s0.032-0.064 0.048-0.096 0.065-0.128 0.098-0.194c0.034-0.065 0.073-0.128 0.109-0.194 0.018-0.032 0.037-0.065 0.056-0.098s0.040-0.064 0.061-0.096c0.041-0.064 0.082-0.129 0.124-0.194 0.176-0.255 0.369-0.506 0.583-0.744 0.217-0.236 0.451-0.459 0.697-0.665 0.25-0.202 0.511-0.385 0.776-0.547 0.268-0.159 0.541-0.294 0.808-0.41 0.068-0.027 0.135-0.053 0.202-0.079 0.033-0.013 0.066-0.027 0.099-0.038s0.067-0.022 0.1-0.033 0.131-0.045 0.196-0.065c0.065-0.018 0.13-0.036 0.194-0.054 0.032-0.009 0.063-0.019 0.095-0.026s0.063-0.014 0.094-0.021 0.123-0.028 0.184-0.042c0.061-0.011 0.12-0.021 0.179-0.032 0.029-0.005 0.058-0.010 0.087-0.015 0.014-0.003 0.029-0.005 0.043-0.008s0.029-0.003 0.043-0.005c0.056-0.007 0.112-0.014 0.166-0.020 0.027-0.003 0.053-0.007 0.080-0.010s0.053-0.004 0.078-0.006 0.102-0.007 0.15-0.011c0.049-0.003 0.095-0.008 0.142-0.008 0.091-0.002 0.177-0.004 0.256-0.006 0.073 0.003 0.14 0.005 0.2 0.007 0.030 0.001 0.058 0.002 0.085 0.002 0.033 0.002 0.064 0.004 0.093 0.006 0.033 0.002 0.063 0.004 0.091 0.006 0.051 0.008 0.103 0.012 0.156 0.012 0.007 0 0.015-0 0.022-0.001 0.002 0 0.004 0 0.004 0v-0c0.487-0.012 0.887-0.372 0.962-0.84 0.008 0.002 0.017 0.004 0.025 0.006 0.051 0.010 0.102 0.026 0.155 0.040s0.107 0.030 0.163 0.045c0.028 0.008 0.056 0.015 0.084 0.024s0.057 0.019 0.086 0.028 0.116 0.038 0.176 0.058c0.015 0.005 0.030 0.010 0.045 0.015s0.030 0.012 0.045 0.017 0.060 0.023 0.091 0.035 0.123 0.048 0.186 0.073c0.062 0.028 0.125 0.056 0.189 0.084 0.032 0.014 0.064 0.028 0.096 0.043s0.064 0.032 0.096 0.048 0.128 0.065 0.194 0.098c0.065 0.034 0.129 0.073 0.194 0.109 0.032 0.018 0.065 0.037 0.098 0.056s0.064 0.040 0.096 0.061 0.129 0.082 0.194 0.124c0.255 0.176 0.506 0.369 0.744 0.583 0.236 0.217 0.459 0.451 0.665 0.697 0.202 0.25 0.385 0.511 0.547 0.776 0.159 0.268 0.294 0.541 0.41 0.808 0.027 0.068 0.053 0.135 0.079 0.202 0.013 0.033 0.027 0.066 0.038 0.099s0.022 0.067 0.033 0.1 0.045 0.131 0.065 0.196c0.018 0.065 0.036 0.13 0.054 0.194 0.009 0.032 0.019 0.063 0.026 0.095s0.014 0.063 0.021 0.094 0.028 0.123 0.042 0.184c0.011 0.061 0.021 0.12 0.032 0.179 0.005 0.029 0.010 0.058 0.015 0.087 0.003 0.014 0.005 0.029 0.008 0.043s0.003 0.029 0.005 0.043c0.007 0.056 0.014 0.112 0.020 0.166 0.003 0.027 0.007 0.053 0.010 0.080s0.004 0.053 0.006 0.078 0.007 0.102 0.011 0.15c0.003 0.049 0.008 0.095 0.008 0.142 0.002 0.091 0.004 0.177 0.006 0.256-0.003 0.073-0.005 0.14-0.007 0.2-0.001 0.030-0.002 0.058-0.002 0.085-0.002 0.033-0.004 0.064-0.006 0.093-0.002 0.033-0.004 0.063-0.006 0.091-0.008 0.051-0.012 0.103-0.012 0.156 0 0.007 0 0.015 0.001 0.022-0 0.002-0 0.004-0 0.004h0c0.012 0.481 0.363 0.877 0.823 0.959-0.001 0.005-0.002 0.009-0.003 0.014-0.010 0.051-0.025 0.102-0.040 0.155s-0.030 0.107-0.045 0.163c-0.008 0.028-0.015 0.056-0.024 0.084s-0.019 0.057-0.028 0.086-0.039 0.116-0.058 0.176c-0.005 0.015-0.010 0.030-0.015 0.045s-0.012 0.030-0.017 0.045-0.023 0.060-0.035 0.091-0.048 0.123-0.073 0.186c-0.028 0.062-0.056 0.125-0.084 0.189-0.014 0.032-0.028 0.064-0.043 0.096s-0.032 0.064-0.048 0.096-0.065 0.128-0.098 0.194c-0.034 0.065-0.073 0.129-0.109 0.194-0.018 0.032-0.037 0.065-0.056 0.098s-0.040 0.064-0.061 0.096-0.082 0.129-0.124 0.194c-0.176 0.255-0.369 0.506-0.583 0.744-0.217 0.236-0.451 0.459-0.697 0.665-0.25 0.202-0.511 0.385-0.776 0.547-0.268 0.159-0.541 0.294-0.808 0.41-0.068 0.027-0.135 0.053-0.202 0.079-0.033 0.013-0.066 0.027-0.099 0.038s-0.067 0.022-0.1 0.033-0.131 0.045-0.196 0.065c-0.065 0.018-0.13 0.036-0.194 0.054-0.032 0.009-0.063 0.019-0.095 0.026s-0.063 0.014-0.094 0.021-0.123 0.028-0.184 0.042c-0.061 0.011-0.12 0.021-0.179 0.032-0.029 0.005-0.058 0.010-0.087 0.015-0.014 0.003-0.028 0.005-0.043 0.008s-0.029 0.003-0.043 0.005c-0.056 0.007-0.112 0.014-0.166 0.020-0.027 0.003-0.053 0.007-0.080 0.010s-0.053 0.004-0.078 0.006-0.102 0.007-0.15 0.011c-0.049 0.003-0.095 0.008-0.142 0.008-0.091 0.002-0.177 0.004-0.256 0.006-0.073-0.003-0.14-0.005-0.2-0.007-0.030-0.001-0.058-0.002-0.085-0.002-0.033-0.002-0.064-0.004-0.093-0.006-0.033-0.002-0.063-0.004-0.091-0.006-0.051-0.008-0.103-0.012-0.156-0.012-0.007 0-0.015 0-0.022 0.001-0.002-0-0.003-0-0.003-0v0c-0.484 0.012-0.883 0.369-0.961 0.834-0.050-0.010-0.101-0.025-0.153-0.039s-0.107-0.030-0.163-0.045c-0.028-0.008-0.056-0.015-0.084-0.024s-0.057-0.019-0.086-0.028-0.116-0.039-0.176-0.058c-0.015-0.005-0.030-0.010-0.045-0.015s-0.030-0.012-0.045-0.017-0.060-0.023-0.091-0.035-0.123-0.048-0.186-0.073c-0.062-0.028-0.125-0.056-0.189-0.084-0.032-0.014-0.064-0.028-0.096-0.043s-0.064-0.032-0.096-0.048-0.128-0.065-0.194-0.098c-0.065-0.034-0.129-0.073-0.194-0.109-0.032-0.018-0.065-0.037-0.098-0.056s-0.064-0.040-0.096-0.061c-0.064-0.041-0.129-0.082-0.194-0.124-0.255-0.175-0.506-0.369-0.744-0.583-0.236-0.217-0.459-0.451-0.665-0.697-0.202-0.25-0.385-0.511-0.547-0.776-0.159-0.268-0.294-0.541-0.41-0.808-0.027-0.068-0.053-0.135-0.079-0.202-0.013-0.033-0.027-0.066-0.038-0.099s-0.022-0.067-0.033-0.1-0.045-0.131-0.065-0.196c-0.018-0.065-0.036-0.13-0.054-0.194-0.009-0.032-0.019-0.063-0.026-0.095s-0.014-0.063-0.021-0.094-0.028-0.123-0.042-0.184c-0.011-0.061-0.021-0.12-0.032-0.179-0.005-0.029-0.010-0.058-0.015-0.087-0.003-0.014-0.005-0.028-0.008-0.043s-0.003-0.029-0.005-0.043c-0.007-0.056-0.014-0.112-0.020-0.166-0.003-0.027-0.007-0.053-0.010-0.080s-0.004-0.053-0.006-0.078-0.007-0.101-0.011-0.15c-0.003-0.049-0.008-0.095-0.008-0.142-0.002-0.091-0.004-0.177-0.006-0.256 0.003-0.073 0.005-0.14 0.007-0.2 0.001-0.030 0.002-0.058 0.002-0.085 0.002-0.033 0.004-0.064 0.006-0.093 0.002-0.033 0.004-0.063 0.006-0.091 0.008-0.051 0.012-0.103 0.012-0.156 0-0.007-0-0.015-0.001-0.022 0-0.002 0-0.003 0-0.003h-0c-0.012-0.49-0.377-0.893-0.851-0.964z"></path></svg>