<svg stroke="currentColor" fill="currentColor" stroke-width="0" version="1.1" viewBox="0 0 17 16" height="1em" width="1em" xmlns="http://www.w3.org/2000/svg"><path d="M13.907 14.407c-0.192 0-0.384-0.073-0.53-0.22-0.293-0.293-0.293-0.768 0-1.061 1.369-1.369 2.123-3.19 2.123-5.127s-0.754-3.757-2.123-5.127c-0.293-0.293-0.293-0.768 0-1.061s0.768-0.293 1.061 0c1.653 1.653 2.563 3.85 2.563 6.187s-0.91 4.534-2.563 6.187c-0.146 0.146-0.338 0.22-0.53 0.22zM11.243 12.993c-0.192 0-0.384-0.073-0.53-0.22-0.293-0.293-0.293-0.768 0-1.061 2.047-2.047 2.047-5.378 0-7.425-0.293-0.293-0.293-0.768 0-1.061s0.768-0.293 1.061 0c1.275 1.275 1.977 2.97 1.977 4.773s-0.702 3.498-1.977 4.773c-0.146 0.146-0.338 0.22-0.53 0.22v0zM8.578 11.578c-0.192 0-0.384-0.073-0.53-0.22-0.293-0.293-0.293-0.768 0-1.061 1.267-1.267 1.267-3.329 0-4.596-0.293-0.293-0.293-0.768 0-1.061s0.768-0.293 1.061 0c1.852 1.852 1.852 4.865 0 6.718-0.146 0.146-0.338 0.22-0.53 0.22z"></path><path d="M6.5 15c-0.13 0-0.258-0.051-0.354-0.146l-3.854-3.854h-1.793c-0.276 0-0.5-0.224-0.5-0.5v-5c0-0.276 0.224-0.5 0.5-0.5h1.793l3.854-3.854c0.143-0.143 0.358-0.186 0.545-0.108s0.309 0.26 0.309 0.462v13c0 0.202-0.122 0.385-0.309 0.462-0.062 0.026-0.127 0.038-0.191 0.038z"></path></svg>