<?xml version="1.0" standalone="no"?>
<!DOCTYPE svg PUBLIC "-//W3C//DTD SVG 20010904//EN"
 "http://www.w3.org/TR/2001/REC-SVG-20010904/DTD/svg10.dtd">
<svg version="1.0" xmlns="http://www.w3.org/2000/svg"
 width="512.000000pt" height="512.000000pt" viewBox="0 0 512.000000 512.000000"
 preserveAspectRatio="xMidYMid meet">

<g transform="translate(0.000000,512.000000) scale(0.100000,-0.100000)"
fill="#000000" stroke="none">
<path d="M807 3862 l-807 -807 115 -115 115 -115 118 118 117 117 150 -150
150 -150 -113 -113 c-61 -62 -112 -117 -112 -122 0 -5 51 -60 112 -122 l113
-113 117 117 118 118 275 -275 275 -275 -117 -117 -118 -118 115 -115 115
-115 117 117 118 118 150 -150 150 -150 -117 -117 -118 -118 115 -115 115
-115 117 117 118 118 150 -150 150 -150 -117 -117 -118 -118 115 -115 115
-115 117 117 118 118 88 -88 89 -88 98 103 c127 134 200 232 263 356 65 125
106 249 128 384 l17 104 113 -57 c162 -82 258 -103 449 -103 188 1 296 26 461
109 521 261 722 872 457 1387 -114 221 -312 402 -538 489 -281 109 -610 88
-873 -57 -162 -89 -315 -241 -404 -402 l-35 -62 -154 502 -154 503 -165 1
c-137 0 -179 4 -245 22 -166 46 -300 127 -422 255 -93 98 -149 196 -202 350
-42 123 -42 124 -119 200 l-77 77 -808 -808z m791 200 c186 -336 529 -571 897
-614 50 -6 95 -12 100 -13 9 -2 51 -127 91 -267 5 -17 -10 -18 -220 -18 l-226
0 0 -160 0 -160 276 -2 276 -3 104 -338 c77 -250 112 -350 135 -384 50 -72
115 -221 140 -318 34 -132 32 -331 -4 -467 -26 -97 -72 -201 -129 -291 l-31
-49 -537 537 -537 537 -6 207 c-9 356 -71 610 -220 906 -102 205 -224 373
-396 548 l-96 97 165 165 c91 91 167 165 170 165 3 0 24 -35 48 -78z m-328
-800 c173 -247 273 -489 315 -766 8 -55 13 -101 12 -102 -2 -2 -205 199 -452
446 l-450 450 145 146 145 145 110 -113 c61 -63 139 -155 175 -206z m2660
-368 l0 -104 160 0 160 0 0 109 0 110 53 -15 c124 -37 284 -153 358 -260 l30
-44 -23 -9 c-13 -5 -57 -19 -98 -32 -41 -13 -76 -24 -78 -25 -2 -1 18 -70 45
-153 29 -92 52 -151 60 -151 7 0 53 13 103 29 l90 29 0 -77 c0 -132 -48 -278
-129 -388 -17 -24 -34 -43 -39 -43 -4 1 -32 36 -62 80 -30 44 -58 79 -63 80
-10 0 -257 -180 -257 -188 0 -4 27 -43 59 -87 33 -44 56 -83 52 -87 -19 -20
-170 -48 -261 -48 -92 0 -242 28 -262 48 -4 4 20 45 53 91 34 46 57 87 52 91
-19 18 -246 180 -252 180 -3 0 -32 -36 -64 -80 -32 -44 -61 -80 -65 -80 -12 0
-89 121 -111 173 -29 67 -49 150 -57 234 -10 109 -12 108 105 68 l101 -34 46
147 c26 81 47 151 48 156 0 4 -37 21 -84 37 -47 16 -91 31 -98 34 -42 16 130
191 249 255 66 35 160 70 172 63 4 -2 7 -51 7 -109z"/>
<path d="M3930 2320 l0 -160 160 0 160 0 0 160 0 160 -160 0 -160 0 0 -160z"/>
</g>
</svg>
