<?xml version="1.0" standalone="no"?>
<!DOCTYPE svg PUBLIC "-//W3C//DTD SVG 20010904//EN"
 "http://www.w3.org/TR/2001/REC-SVG-20010904/DTD/svg10.dtd">
<svg version="1.0" xmlns="http://www.w3.org/2000/svg"
 width="512.000000pt" height="512.000000pt" viewBox="0 0 512.000000 512.000000"
 preserveAspectRatio="xMidYMid meet">

<g transform="translate(0.000000,512.000000) scale(0.100000,-0.100000)"
fill="#000000" stroke="none">
<path d="M54 4610 c-12 -5 -29 -19 -38 -32 -15 -20 -16 -179 -16 -1750 0
-1262 3 -1734 11 -1752 20 -42 51 -47 260 -44 l194 3 364 222 364 223 107 0
108 0 6 -45 c11 -69 60 -205 107 -295 164 -317 464 -541 820 -614 113 -23 195
-27 320 -16 282 24 516 135 720 339 166 165 269 348 319 566 l16 70 104 3 105
2 364 -225 365 -225 208 0 c208 0 209 0 233 25 l25 24 0 1735 0 1735 -24 28
-24 28 -2499 2 c-1394 1 -2507 -2 -2519 -7z m4916 -1785 l0 -1635 -100 0 -100
0 0 1490 c0 1070 -3 1496 -11 1513 -6 14 -22 30 -36 36 -17 8 -618 11 -2169
11 l-2145 0 -24 -25 -25 -24 0 -1501 0 -1500 -105 0 -105 0 0 1635 0 1635
2410 0 2410 0 0 -1635z m-3111 1083 c36 -95 66 -179 69 -185 3 -10 -74 -13
-367 -13 l-372 0 -237 171 c-130 95 -244 178 -252 185 -12 12 73 14 540 14
l555 0 64 -172z m1230 -9 c-38 -99 -69 -183 -69 -185 0 -2 -206 -3 -457 -2
l-457 3 -63 165 c-35 91 -66 173 -69 183 -5 16 27 17 589 17 l595 0 -69 -181z
m1291 142 c-30 -22 -145 -105 -255 -185 l-200 -146 -367 0 c-203 0 -368 2
-368 4 0 3 28 78 63 168 35 90 67 171 70 181 6 16 42 17 559 17 l553 0 -55
-39z m-3555 -258 l260 -189 3 -457 2 -457 -290 0 -290 0 0 666 0 665 28 -20
c15 -11 144 -104 287 -208z m3775 -443 l0 -660 -285 0 -285 0 2 457 3 457 280
203 c154 111 281 203 283 203 1 0 2 -297 2 -660z m-2630 -225 l0 -435 -365 0
-365 0 0 435 0 435 365 0 365 0 0 -435z m1020 40 c0 -217 -2 -395 -4 -395 -2
0 -20 7 -40 15 -20 9 -84 27 -141 40 -180 43 -409 32 -600 -29 l-75 -24 0 394
0 394 430 0 430 0 0 -395z m880 -40 l0 -435 -360 0 -360 0 0 435 0 435 360 0
360 0 0 -435z m-1330 -430 c0 -3 -34 -46 -76 -95 -60 -70 -81 -89 -96 -84 -10
3 -62 26 -115 51 l-96 46 34 14 c93 39 349 89 349 68z m340 -52 c88 -29 213
-92 258 -131 l33 -27 -23 -190 -23 -189 -40 -27 c-22 -15 -67 -42 -101 -60
l-60 -33 -180 79 c-98 43 -184 82 -190 87 -6 4 -22 60 -34 122 -19 98 -20 117
-9 134 8 10 63 76 122 146 123 145 102 137 247 89z m-1792 -570 l-3 -458 -280
-172 c-154 -95 -283 -173 -287 -173 -5 0 -8 284 -8 630 l0 630 290 0 290 0 -2
-457z m606 395 c-175 -190 -284 -450 -301 -720 l-6 -98 -74 0 -73 0 0 440 0
440 256 0 256 0 -58 -62z m2176 -373 l0 -435 -68 0 -69 0 -7 98 c-19 277 -125
523 -309 720 l-50 52 252 0 251 0 0 -435z m730 -191 l0 -626 -48 29 c-27 15
-155 93 -285 173 l-236 145 -1 453 0 452 285 0 285 0 0 -626z m-2390 508 l135
-67 23 -109 c22 -107 22 -110 4 -130 -10 -12 -73 -82 -140 -157 l-121 -135
-116 12 c-73 7 -121 16 -129 25 -7 8 -55 81 -105 164 l-93 149 17 31 c52 90
163 217 259 292 l38 31 47 -20 c25 -11 107 -50 181 -86z m1192 -166 c38 -55
124 -224 116 -230 -3 -3 -228 83 -236 89 -2 2 4 56 12 121 9 65 16 123 16 129
1 13 40 -33 92 -109z m-1743 -355 c34 -55 61 -105 61 -111 0 -6 -37 -52 -82
-101 l-83 -90 -7 43 c-8 53 7 216 27 292 8 32 15 59 15 61 0 15 14 -5 69 -94z
m1002 28 c90 -39 167 -74 172 -78 9 -8 -30 -372 -41 -381 -11 -10 -363 -82
-369 -76 -3 3 -47 78 -98 168 l-93 162 126 138 c69 76 129 138 133 138 4 0 81
-32 170 -71z m720 -20 c96 -38 178 -74 182 -78 15 -15 9 -252 -8 -336 -31
-148 -16 -135 -216 -173 -96 -18 -181 -32 -189 -32 -15 0 -169 132 -181 154
-3 6 4 103 15 216 l21 205 95 57 c52 32 98 57 101 58 3 0 84 -32 180 -71z
m-1378 -235 l88 -7 99 -167 c55 -92 103 -175 106 -184 6 -16 -67 -197 -90
-223 -6 -6 -93 -32 -194 -58 l-183 -45 -25 27 c-80 89 -176 254 -205 350 l-12
42 109 116 c60 64 118 127 129 141 17 21 26 25 55 20 19 -3 75 -8 123 -12z
m945 -432 l83 -77 -11 -160 c-16 -236 -12 -222 -76 -251 -88 -39 -202 -65
-310 -71 l-100 -6 -93 169 -92 168 42 99 c24 54 48 105 53 112 10 12 348 91
401 94 12 0 53 -30 103 -77z m482 -68 c0 -31 -201 -258 -253 -285 -19 -11 -19
-8 -12 108 4 65 11 122 16 128 5 5 58 19 117 31 124 25 132 26 132 18z m-1143
-364 c34 -60 58 -110 53 -110 -4 0 -42 11 -84 25 -80 26 -172 70 -241 113
l-40 26 110 27 c61 15 117 28 126 28 10 1 37 -39 76 -109z"/>
</g>
</svg>
