<?xml version="1.0" standalone="no"?>
<!DOCTYPE svg PUBLIC "-//W3C//DTD SVG 20010904//EN"
 "http://www.w3.org/TR/2001/REC-SVG-20010904/DTD/svg10.dtd">
<svg version="1.0" xmlns="http://www.w3.org/2000/svg"
 width="512.000000pt" height="512.000000pt" viewBox="0 0 512.000000 512.000000"
 preserveAspectRatio="xMidYMid meet">

<g transform="translate(0.000000,512.000000) scale(0.100000,-0.100000)"
fill="#000000" stroke="none">
<path d="M2228 5110 c-238 -42 -451 -205 -566 -435 -53 -107 -74 -189 -79
-320 -6 -137 12 -233 67 -354 l29 -66 4 -355 c3 -331 5 -360 26 -428 44 -149
110 -267 209 -374 30 -32 53 -60 51 -61 -2 -2 -44 -18 -94 -36 -592 -220
-1054 -735 -1210 -1349 -47 -187 -56 -283 -62 -664 l-6 -358 -148 0 -149 0 0
-155 0 -155 2260 0 2260 0 0 155 0 155 -149 0 -148 0 -6 358 c-6 380 -15 474
-63 667 -119 473 -426 894 -849 1168 -93 59 -249 136 -360 178 -49 18 -92 34
-94 36 -3 2 16 25 41 51 109 112 175 230 215 381 24 89 26 117 31 376 4 242 7
285 22 315 60 118 96 319 87 480 -19 321 -176 603 -403 722 -135 71 -141 71
-524 74 -190 1 -366 -1 -392 -6z m727 -321 c31 -11 74 -35 97 -52 100 -77 175
-243 185 -413 6 -91 -3 -204 -15 -204 -4 0 -82 59 -174 130 -92 72 -174 130
-181 130 -8 0 -225 -49 -482 -110 -258 -60 -470 -110 -471 -110 -8 0 -24 113
-24 174 0 211 133 391 338 457 50 16 95 18 364 18 288 1 311 0 363 -20z m13
-865 l162 -127 0 -246 c0 -276 -6 -316 -66 -439 -62 -128 -188 -233 -331 -278
-72 -22 -197 -28 -282 -14 -166 28 -322 143 -394 290 -63 129 -68 162 -65 475
l3 278 390 92 c215 51 397 93 405 94 8 0 88 -56 178 -125z m-944 -1561 c-60
-73 -120 -198 -139 -288 -21 -98 -21 -680 -1 -787 46 -238 217 -438 444 -519
l77 -27 3 -216 2 -216 -750 0 -750 0 0 303 c0 410 15 542 87 757 82 248 205
444 402 640 143 143 260 230 417 310 85 43 220 98 242 99 7 1 -9 -25 -34 -56z
m1112 31 c222 -83 404 -203 585 -383 196 -196 320 -395 402 -641 72 -215 87
-347 87 -757 l0 -303 -750 0 -750 0 2 216 3 216 68 23 c101 35 173 81 263 171
101 100 165 220 190 352 23 126 16 752 -10 832 -27 83 -80 182 -131 244 -25
31 -41 56 -36 56 5 0 39 -12 77 -26z m-410 -119 c74 -36 144 -107 180 -182 24
-49 29 -74 32 -160 l4 -103 -116 0 -116 0 0 -150 0 -150 116 0 116 0 -3 -107
c-4 -95 -8 -115 -33 -168 -143 -290 -549 -290 -692 0 -25 53 -29 73 -33 168
l-3 107 116 0 116 0 0 150 0 150 -115 0 -115 0 0 85 c0 144 53 253 160 328 77
53 128 67 236 64 76 -2 99 -7 150 -32z"/>
</g>
</svg>
