<?xml version="1.0" standalone="no"?>
<!DOCTYPE svg PUBLIC "-//W3C//DTD SVG 20010904//EN"
 "http://www.w3.org/TR/2001/REC-SVG-20010904/DTD/svg10.dtd">
<svg version="1.0" xmlns="http://www.w3.org/2000/svg"
 width="512.000000pt" height="512.000000pt" viewBox="0 0 512.000000 512.000000"
 preserveAspectRatio="xMidYMid meet">

<g transform="translate(0.000000,512.000000) scale(0.100000,-0.100000)"
fill="#000000" stroke="none">
<path d="M420 3125 l0 -1995 628 0 629 0 6 -122 c13 -252 94 -464 245 -644
139 -166 310 -273 537 -336 79 -22 89 -22 861 -26 l780 -3 298 770 298 770
-241 978 c-232 942 -243 982 -292 1080 -89 181 -230 340 -398 448 -90 58 -141
83 -246 121 l-90 32 -3 461 -2 461 -1505 0 -1505 0 0 -1995z m2680 0 l0 -1665
-185 0 -185 0 0 383 c0 350 -2 391 -20 461 -99 388 -552 526 -857 262 -57 -50
-118 -145 -145 -225 -21 -63 -22 -86 -26 -473 l-4 -408 -464 0 -464 0 0 1665
0 1665 1175 0 1175 0 0 -1665z m403 694 c146 -74 278 -197 354 -330 39 -70 54
-127 271 -1002 l229 -927 -237 -613 -237 -612 -654 0 -654 0 -80 28 c-187 66
-323 184 -406 352 -76 156 -74 132 -74 855 0 355 3 657 8 673 11 40 73 104
114 118 78 26 152 9 205 -48 59 -61 58 -53 58 -643 l0 -540 515 0 515 0 0
1360 c0 748 2 1360 5 1360 3 0 34 -14 68 -31z"/>
</g>
</svg>
