<svg width="24" height="24" viewBox="0 0 24 24" fill="none" xmlns="http://www.w3.org/2000/svg">
<path d="M10.875 21.375H7.125C5.46814 21.375 4.125 20.0319 4.125 18.375V5.625C4.125 3.96814 5.46814 2.625 7.125 2.625H12.8787C13.2765 2.625 13.658 2.78304 13.9393 3.06434L19.7973 8.92233C19.8471 8.97207 19.875 9.03951 19.875 9.10983C19.875 9.25627 19.7564 9.375 19.6098 9.375H14.625C13.7966 9.375 13.125 8.70342 13.125 7.875V3M14.625 19.125L17.168 20.8203C17.6718 21.1562 18.3282 21.1562 18.832 20.8203L21.375 19.125M18 21V14.625" stroke="black" stroke-width="2.25" stroke-linecap="round" stroke-linejoin="round"/>
</svg>
