<svg width="24" height="24" viewBox="0 0 24 24" fill="none" xmlns="http://www.w3.org/2000/svg">
<path d="M3 13.44V17.76C3 19.5493 5.74002 21 9.12 21C12.5 21 15.24 19.5493 15.24 17.76V13.44M3 13.44C3 15.2293 5.74002 16.68 9.12 16.68C12.5 16.68 15.24 15.2293 15.24 13.44M3 13.44C3 11.6506 5.74002 10.2 9.12 10.2C12.5 10.2 15.24 11.6506 15.24 13.44M8.76 6.24C8.76 4.4506 11.5 3 14.88 3C18.26 3 21 4.4506 21 6.24M21 6.24C21 7.47818 19.688 8.55415 17.76 9.09955M21 6.24V10.56C21 11.4567 19.952 12.4934 18.84 13.08" stroke="white" stroke-width="2.16" stroke-linecap="round" stroke-linejoin="round"/>
</svg>
