<svg width="32" height="32" viewBox="0 0 32 32" fill="none" xmlns="http://www.w3.org/2000/svg">
<path fill-rule="evenodd" clip-rule="evenodd" d="M3.5 3C3.36739 3 3.24021 3.05268 3.14645 3.14645C3.05268 3.24021 3 3.36739 3 3.5V28.5C3 28.776 3.224 29 3.5 29H28.5C28.6326 29 28.7598 28.9473 28.8536 28.8536C28.9473 28.7598 29 28.6326 29 28.5V3.5C29 3.36739 28.9473 3.24021 28.8536 3.14645C28.7598 3.05268 28.6326 3 28.5 3H3.5ZM0 3.5C0 1.568 1.568 0 3.5 0H28.5C30.432 0 32 1.568 32 3.5V28.5C32 29.4283 31.6313 30.3185 30.9749 30.9749C30.3185 31.6313 29.4283 32 28.5 32H3.5C2.57174 32 1.6815 31.6313 1.02513 30.9749C0.368749 30.3185 0 29.4283 0 28.5L0 3.5ZM18.44 10.94C18.1591 11.2213 18.0013 11.6025 18.0013 12C18.0013 12.3975 18.1591 12.7787 18.44 13.06L21.38 16L18.44 18.94C18.2926 19.0773 18.1744 19.2429 18.0924 19.4269C18.0105 19.6109 17.9664 19.8096 17.9628 20.011C17.9593 20.2124 17.9963 20.4124 18.0718 20.5992C18.1472 20.786 18.2595 20.9556 18.4019 21.0981C18.5444 21.2405 18.714 21.3528 18.9008 21.4282C19.0876 21.5037 19.2876 21.5407 19.489 21.5372C19.6904 21.5336 19.8891 21.4895 20.0731 21.4076C20.2571 21.3256 20.4227 21.2074 20.56 21.06L24.56 17.06C24.8409 16.7787 24.9987 16.3975 24.9987 16C24.9987 15.6025 24.8409 15.2213 24.56 14.94L20.56 10.94C20.2787 10.6591 19.8975 10.5013 19.5 10.5013C19.1025 10.5013 18.7213 10.6591 18.44 10.94V10.94ZM13.56 13.06C13.825 12.7757 13.9692 12.3996 13.9623 12.011C13.9555 11.6224 13.7981 11.2516 13.5232 10.9768C13.2484 10.7019 12.8776 10.5445 12.489 10.5377C12.1004 10.5308 11.7243 10.675 11.44 10.94L7.44 14.94C7.1591 15.2213 7.00132 15.6025 7.00132 16C7.00132 16.3975 7.1591 16.7787 7.44 17.06L11.44 21.06C11.5773 21.2074 11.7429 21.3256 11.9269 21.4076C12.1109 21.4895 12.3095 21.5336 12.511 21.5372C12.7124 21.5407 12.9124 21.5037 13.0992 21.4282C13.286 21.3528 13.4556 21.2405 13.5981 21.0981C13.7405 20.9556 13.8528 20.786 13.9282 20.5992C14.0037 20.4124 14.0407 20.2124 14.0372 20.011C14.0336 19.8096 13.9895 19.6109 13.9076 19.4269C13.8256 19.2429 13.7074 19.0773 13.56 18.94L10.62 16L13.56 13.06V13.06Z" fill="white"/>
</svg>
