<svg width="257" height="156" viewBox="0 0 257 156" fill="none" xmlns="http://www.w3.org/2000/svg">
<path d="M40.5358 1.62482C42.5992 0.443799 45.0469 0.130039 47.3415 0.752454C49.636 1.37487 51.5897 2.88257 52.7734 4.94439L74.198 42.4465C91.2628 34.4476 109.882 30.312 128.729 30.3346C146.367 30.3346 163.18 33.8874 178.486 40.3113L198.691 4.96233C199.247 3.89027 200.015 2.94165 200.947 2.17334C201.879 1.40503 202.957 0.832868 204.115 0.49114C205.274 0.149413 206.49 0.0451662 207.689 0.184649C208.889 0.324132 210.049 0.704471 211.098 1.30287C212.147 1.90126 213.065 2.70538 213.796 3.66702C214.527 4.62867 215.056 5.72802 215.352 6.89917C215.648 8.07033 215.704 9.28916 215.518 10.4826C215.331 11.676 214.905 12.8195 214.266 13.8444L194.528 48.4218C211.802 58.7095 226.423 72.9039 237.218 89.8656C248.012 106.827 254.68 126.084 256.685 146.089C256.807 147.334 256.668 148.592 256.276 149.78C255.884 150.968 255.247 152.062 254.407 152.989C253.567 153.917 252.543 154.659 251.399 155.167C250.255 155.675 249.018 155.938 247.767 155.94H9.69073C8.43762 155.939 7.19867 155.675 6.05369 155.166C4.90871 154.656 3.8831 153.913 3.04295 152.983C2.20279 152.054 1.56672 150.958 1.17572 149.768C0.784713 148.577 0.647444 147.318 0.772756 146.071C2.69128 126.94 8.87638 108.482 18.8726 92.0579C28.8689 75.6334 42.4217 61.6603 58.5333 51.1671L37.1983 13.8444C36.0188 11.7789 35.7077 9.32948 36.3336 7.0347C36.9594 4.73991 38.4709 2.78757 40.5358 1.60687V1.62482Z" fill="#3DDB85"/>
<path d="M86.8662 105.106C86.8662 106.677 86.5567 108.234 85.9552 109.686C85.3537 111.138 84.4721 112.457 83.3608 113.569C82.2494 114.68 80.93 115.562 79.4779 116.163C78.0259 116.764 76.4695 117.074 74.8978 117.074C73.3261 117.074 71.7698 116.764 70.3177 116.163C68.8657 115.562 67.5463 114.68 66.4349 113.569C65.3235 112.457 64.4419 111.138 63.8405 109.686C63.239 108.234 62.9294 106.677 62.9294 105.106C62.9294 101.931 64.1904 98.8872 66.4349 96.6427C68.6794 94.3982 71.7236 93.1373 74.8978 93.1373C78.072 93.1373 81.1163 94.3982 83.3608 96.6427C85.6053 98.8872 86.8662 101.931 86.8662 105.106V105.106ZM194.528 105.106C194.528 108.28 193.267 111.324 191.022 113.569C188.778 115.813 185.734 117.074 182.56 117.074C179.385 117.074 176.341 115.813 174.097 113.569C171.852 111.324 170.591 108.28 170.591 105.106C170.591 101.931 171.852 98.8872 174.097 96.6427C176.341 94.3982 179.385 93.1373 182.56 93.1373C185.734 93.1373 188.778 94.3982 191.022 96.6427C193.267 98.8872 194.528 101.931 194.528 105.106V105.106Z" fill="white"/>
</svg>
