<svg stroke="currentColor" fill="none" stroke-width="0" viewBox="0 0 24 24" height="1em" width="1em" xmlns="http://www.w3.org/2000/svg"><path stroke="#000" stroke-linejoin="round" stroke-width="2" d="M3 6.2c0-1.12 0-1.68.218-2.108a2 2 0 01.874-.874C4.52 3 5.08 3 6.2 3h.6c1.12 0 1.68 0 2.108.218a2 2 0 01.874.874C10 4.52 10 5.08 10 6.2v.6c0 1.12 0 1.68-.218 2.108a2 2 0 01-.874.874C8.48 10 7.92 10 6.8 10h-.6c-1.12 0-1.68 0-2.108-.218a2 2 0 01-.874-.874C3 8.48 3 7.92 3 6.8v-.6zM14 6.2c0-1.12 0-1.68.218-2.108a2 2 0 01.874-.874C15.52 3 16.08 3 17.2 3h.6c1.12 0 1.68 0 2.108.218a2 2 0 01.874.874C21 4.52 21 5.08 21 6.2v.6c0 1.12 0 1.68-.218 2.108a2 2 0 01-.874.874C19.48 10 18.92 10 17.8 10h-.6c-1.12 0-1.68 0-2.108-.218a2 2 0 01-.874-.874C14 8.48 14 7.92 14 6.8v-.6zM3 17.2c0-1.12 0-1.68.218-2.108a2 2 0 01.874-.874C4.52 14 5.08 14 6.2 14h.6c1.12 0 1.68 0 2.108.218a2 2 0 01.874.874C10 15.52 10 16.08 10 17.2v.6c0 1.12 0 1.68-.218 2.108a2 2 0 01-.874.874C8.48 21 7.92 21 6.8 21h-.6c-1.12 0-1.68 0-2.108-.218a2 2 0 01-.874-.874C3 19.48 3 18.92 3 17.8v-.6zM14 17.2c0-1.12 0-1.68.218-2.108a2 2 0 01.874-.874C15.52 14 16.08 14 17.2 14h.6c1.12 0 1.68 0 2.108.218a2 2 0 01.874.874C21 15.52 21 16.08 21 17.2v.6c0 1.12 0 1.68-.218 2.108a2 2 0 01-.874.874C19.48 21 18.92 21 17.8 21h-.6c-1.12 0-1.68 0-2.108-.218a2 2 0 01-.874-.874C14 19.48 14 18.92 14 17.8v-.6z"></path></svg>