<svg stroke="currentColor" fill="currentColor" stroke-width="0" viewBox="0 0 24 24" height="1em" width="1em" xmlns="http://www.w3.org/2000/svg"><g fill="none" fill-rule="evenodd"><path d="M5.04765714 15.1238095C5.04765714 16.5142857 3.92384762 17.6380952 2.53337143 17.6380952 1.14289524 17.6380952.0190857143 16.5142857.0190857143 15.1238095.0190857143 13.7333333 1.14289524 12.6095238 2.53337143 12.6095238L5.04765714 12.6095238 5.04765714 15.1238095zM6.30472381 15.1238095C6.30472381 13.7333333 7.42853333 12.6095238 8.81900952 12.6095238 10.2094857 12.6095238 11.3332952 13.7333333 11.3332952 15.1238095L11.3332952 21.4095238C11.3332952 22.8 10.2094857 23.9238095 8.81900952 23.9238095 7.42853333 23.9238095 6.30472381 22.8 6.30472381 21.4095238L6.30472381 15.1238095z"></path><path d="M8.81904762 5.02857143C7.42857143 5.02857143 6.3047619 3.9047619 6.3047619 2.51428571 6.3047619 1.12380952 7.42857143 0 8.81904762 0 10.2095238 0 11.3333333 1.12380952 11.3333333 2.51428571L11.3333333 5.02857143 8.81904762 5.02857143zM8.81904762 6.3048C10.2095238 6.3048 11.3333333 7.42860952 11.3333333 8.81908571 11.3333333 10.2095619 10.2095238 11.3333714 8.81904762 11.3333714L2.51428571 11.3333714C1.12380952 11.3333714 0 10.2095619 0 8.81908571 0 7.42860952 1.12380952 6.3048 2.51428571 6.3048L8.81904762 6.3048z"></path><path d="M18.895219 8.81902857C18.895219 7.42855238 20.0190286 6.30474286 21.4095048 6.30474286 22.799981 6.30474286 23.9237905 7.42855238 23.9237905 8.81902857 23.9237905 10.2095048 22.799981 11.3333143 21.4095048 11.3333143L18.895219 11.3333143 18.895219 8.81902857zM17.6380571 8.81902857C17.6380571 10.2095048 16.5142476 11.3333143 15.1237714 11.3333143 13.7332952 11.3333143 12.6094857 10.2095048 12.6094857 8.81902857L12.6094857 2.51426667C12.6094857 1.12379048 13.7332952-.0000190476191 15.1237714-.0000190476191 16.5142476-.0000190476191 17.6380571 1.12379048 17.6380571 2.51426667L17.6380571 8.81902857z"></path><path d="M15.1238286 18.8952C16.5143048 18.8952 17.6381143 20.0190095 17.6381143 21.4094857 17.6381143 22.7999619 16.5143048 23.9237714 15.1238286 23.9237714 13.7333524 23.9237714 12.6095429 22.7999619 12.6095429 21.4094857L12.6095429 18.8952 15.1238286 18.8952zM15.1238286 17.6381333C13.7333524 17.6381333 12.6095429 16.5143238 12.6095429 15.1238476 12.6095429 13.7333714 13.7333524 12.6095619 15.1238286 12.6095619L21.4285905 12.6095619C22.8190667 12.6095619 23.9428762 13.7333714 23.9428762 15.1238476 23.9428762 16.5143238 22.8190667 17.6381333 21.4285905 17.6381333L15.1238286 17.6381333z"></path></g></svg>