<svg stroke="currentColor" fill="currentColor" stroke-width="0" viewBox="0 0 24 24" height="1em" width="1em" xmlns="http://www.w3.org/2000/svg"><path fill="none" stroke="#000" stroke-linecap="round" stroke-linejoin="round" stroke-width="2" d="M7,6 L10,3 L17,6 L17,8 L14,11 M9,22 C12.3137085,22 15,19.3137085 15,16 C15,12.6862915 12.3137085,10 9,10 C5.6862915,10 3,12.6862915 3,16 C3,19.3137085 5.6862915,22 9,22 Z M9,17 C9.55228475,17 10,16.5522847 10,16 C10,15.4477153 9.55228475,15 9,15 C8.44771525,15 8,15.4477153 8,16 C8,16.5522847 8.44771525,17 9,17 Z M14,12 L19,15 L17,21 M19,4 C19.5522847,4 20,3.55228475 20,3 C20,2.44771525 19.5522847,2 19,2 C18.4477153,2 18,2.44771525 18,3 C18,3.55228475 18.4477153,4 19,4 Z M13,10 L17,6 M11,10 L15,6"></path></svg>