<svg width="14" height="14" viewBox="0 0 14 14" fill="none" xmlns="http://www.w3.org/2000/svg">
<path d="M6.49022 7.93795C6.51039 7.76467 6.37496 7.61255 6.20051 7.61255L4.02316 7.61255C3.78007 7.61255 3.64366 7.33263 3.79344 7.14117L7.37501 2.56304C7.54587 2.34464 7.8964 2.46546 7.89639 2.74276L7.89633 5.70526C7.89633 5.86635 8.02692 5.99694 8.188 5.99694H9.85951C10.0966 5.99694 10.2346 6.26486 10.097 6.45793L6.65063 11.2916C6.47559 11.5371 6.08857 11.3881 6.12344 11.0886L6.49022 7.93795Z" fill="black"/>
<path d="M11.8333 1H2.16667C1.52233 1 1 1.52233 1 2.16667V6V11.8333C1 12.4777 1.52233 13 2.16667 13H7H11.8333C12.4777 13 13 12.4777 13 11.8333V2.16667C13 1.52233 12.4777 1 11.8333 1Z" stroke="black" stroke-width="1.3" stroke-linecap="round" stroke-linejoin="round" stroke-dasharray="2.33 2.33"/>
</svg>
