<svg class="" width="24" height="24" viewBox="0 0 24 24" fill="#FFFFFF" xmlns="http://www.w3.org/2000/svg" aria-hidden="true"><path fill-rule="evenodd" clip-rule="evenodd" d="M11.7947 11.5893C11.5056 11.4071 11.2664 11.2507 11.0972 11.1401C11.0809 11.1294 11.0652 11.1192 11.0502 11.1094L11.0502 11.1094L11.0446 11.1058C10.9531 11.0468 10.8622 10.9872 10.7722 10.9271C10.6899 9.35055 10.3705 7.73327 9.87748 6.43673C9.52217 5.50239 9.02816 4.60339 8.35353 4.04261C8.00231 3.75067 7.56575 3.521 7.05295 3.47146C6.53053 3.42098 6.03329 3.56768 5.59082 3.84991L5.5908 3.84988L5.58348 3.85464C4.75568 4.39289 4.37089 5.2063 4.40796 6.10823C4.44169 6.92896 4.81771 7.75147 5.30976 8.49214C6.09748 9.67787 7.35055 10.9036 8.7908 11.976C8.78563 12.2276 8.77257 12.4747 8.7512 12.7149C6.79595 13.676 5.57361 14.8756 4.98973 16.0822C4.59881 16.89 4.47883 17.7463 4.71336 18.5039C4.95617 19.2882 5.56233 19.8835 6.3963 20.0719C7.4719 20.3178 8.32495 19.8529 8.89912 19.1867C9.43393 18.5662 9.78199 17.7255 10.0202 16.9467C10.3248 15.9506 10.5016 14.8703 10.6058 14.0833C10.8899 13.9725 11.1923 13.8652 11.5139 13.7625C12.2627 14.2071 13.1722 14.7055 14.0763 15.0914C14.942 15.4608 15.9188 15.7794 16.7943 15.7805C17.244 15.7811 17.736 15.6985 18.178 15.4312C18.6407 15.1515 18.9627 14.721 19.1328 14.1895L19.133 14.1886C19.3583 13.4825 19.3914 12.6967 18.9521 12.0223C18.5232 11.364 17.8017 11.0578 17.0808 10.933C15.8076 10.7127 13.9985 10.9598 11.7947 11.5893ZM14.3699 13.0305C14.5336 13.1079 14.6978 13.1821 14.8614 13.2519C15.6657 13.5951 16.3376 13.7799 16.7969 13.7805C17.0145 13.7808 17.1115 13.7389 17.1433 13.7197C17.1437 13.7195 17.1442 13.7192 17.1447 13.7189C17.1572 13.7115 17.1924 13.6907 17.2277 13.5805C17.2879 13.3917 17.2981 13.268 17.2945 13.1974C17.2913 13.1362 17.2783 13.117 17.2765 13.1142L17.2763 13.114C17.2754 13.1126 17.1878 12.9813 16.7397 12.9038C16.2097 12.812 15.4223 12.8402 14.3699 13.0305ZM8.38931 15.237C8.31267 15.6114 8.22009 15.994 8.10764 16.3617C7.89661 17.0517 7.64726 17.5758 7.38414 17.881C7.16074 18.1403 7.01607 18.1621 6.84134 18.1221L6.83733 18.1211C6.73153 18.0973 6.66461 18.0439 6.6239 17.9124C6.57472 17.7536 6.56116 17.4263 6.79 16.9534C7.03162 16.4541 7.52707 15.8421 8.38931 15.237ZM8.55955 9.18888C8.42566 8.45328 8.23831 7.75302 8.00809 7.14762C7.69661 6.32854 7.35506 5.81338 7.07507 5.58065C6.94898 5.47584 6.87845 5.46391 6.86062 5.46219C6.86046 5.46217 6.86028 5.46215 6.86009 5.46213C6.85027 5.46114 6.79403 5.45546 6.66994 5.53382C6.45188 5.67676 6.39752 5.81323 6.40627 6.02611C6.41841 6.32141 6.57394 6.78074 6.97565 7.38543C7.35638 7.95853 7.90014 8.57553 8.55955 9.18888Z"></path></svg>