<svg xmlns:dc="http://purl.org/dc/elements/1.1/" xmlns:cc="http://creativecommons.org/ns#" xmlns:rdf="http://www.w3.org/1999/02/22-rdf-syntax-ns#" xmlns:svg="http://www.w3.org/2000/svg" xmlns="http://www.w3.org/2000/svg" viewBox="0 0 1056 521" height="36" class="nav-logo" xml:space="preserve" id="svg2" version="1.1"><metadata id="metadata8"><rdf:rdf><cc:work rdf:about=""><dc:format>image/svg+xml</dc:format><dc:type rdf:resource="http://purl.org/dc/dcmitype/StillImage"></dc:type></cc:work></rdf:rdf></metadata><defs id="defs6"><clipPath id="clipPath22" clipPathUnits="userSpaceOnUse"><path id="path20" d="M 0,612 H 792 V 0 H 0 Z"></path></clipPath></defs><g transform="matrix(1.3333333,0,0,-1.3333333,0,690)" id="g10"><g transform="translate(184.4795,165.5273)" id="g12"><path id="path14" style="fill:#e5583f;fill-opacity:1;fill-rule:nonzero;stroke:none" d="M 0,0 V 0 L 62.199,191.321 H -62.109 Z"></path></g><g id="g16"><g clip-path="url(#clipPath22)" id="g18"><g transform="translate(35.2505,356.8486)" id="g24"><path id="path26" style="fill:#fbae3b;fill-opacity:1;fill-rule:nonzero;stroke:none" d="m 0,0 v 0 l -18.941,-58.126 c -1.714,-5.278 0.137,-11.104 4.661,-14.395 l 163.509,-118.8 z"></path></g><g transform="translate(35.2505,356.8486)" id="g28"><path id="path30" style="fill:#e5583f;fill-opacity:1;fill-rule:nonzero;stroke:none" d="M 0,0 H 87.12 L 49.626,115.224 c -1.919,5.895 -10.281,5.895 -12.269,0 z"></path></g><g transform="translate(333.7983,356.8486)" id="g32"><path id="path34" style="fill:#fbae3b;fill-opacity:1;fill-rule:nonzero;stroke:none" d="m 0,0 v 0 l 18.873,-58.126 c 1.713,-5.278 -0.137,-11.104 -4.661,-14.395 l -163.531,-118.8 z"></path></g><g transform="translate(333.7983,356.8486)" id="g36"><path id="path38" style="fill:#e5583f;fill-opacity:1;fill-rule:nonzero;stroke:none" d="m 0,0 h -87.12 l 37.425,115.224 c 1.92,5.895 10.282,5.895 12.27,0 z"></path></g><g transform="translate(184.4795,165.5273)" id="g40"><path id="path42" style="fill:#f47d3f;fill-opacity:1;fill-rule:nonzero;stroke:none" d="m 0,0 62.199,191.321 h 87.12 z"></path></g><g transform="translate(184.4795,165.5273)" id="g44"><path id="path46" style="fill:#f47d3f;fill-opacity:1;fill-rule:nonzero;stroke:none" d="m 0,0 -149.229,191.321 h 87.12 z"></path></g><g transform="translate(546.9785,385.3691)" id="g48"><path id="path50" style="fill:#969CA6;fill-opacity:1;fill-rule:nonzero;stroke:none" d="m 0,0 h -40.914 v -20.099 c 7.648,-29.194 18.662,-52.164 33.018,-68.909 8.615,11.485 15.31,24.876 20.099,40.197 h -27.994 v 17.945 z m -48.093,-144.998 c -4.306,7.66 -8.142,13.168 -11.485,16.51 16.264,7.649 29.666,16.263 40.197,25.842 -10.531,13.39 -18.662,28.229 -24.405,44.503 -2.4,-31.584 -13.402,-59.578 -33.019,-83.984 -0.965,1.436 -2.871,4.072 -5.742,7.897 -2.872,3.353 -5.025,5.989 -6.461,7.896 21.052,21.533 31.102,56.707 30.149,105.518 L -58.142,0 H -72.498 V 17.227 H 18.664 V -1.436 L 2.872,-30.866 h 28.712 v -19.381 c -7.66,-22.016 -16.51,-39.48 -26.559,-52.399 9.567,-8.143 21.052,-15.557 34.455,-22.252 -3.353,-5.744 -6.943,-11.721 -10.767,-17.946 -14.357,9.578 -26.088,18.428 -35.173,26.559 -11.484,-9.568 -25.37,-19.135 -41.633,-28.713 m -83.983,120.592 v 17.228 h 20.816 v 33.019 h 17.228 V -7.178 h 18.663 v -17.228 h -18.663 v -16.51 c 8.613,-5.742 16.745,-12.202 24.405,-19.38 l -8.613,-15.792 c -1.918,1.436 -4.554,3.825 -7.897,7.178 -3.353,3.343 -5.989,5.743 -7.895,7.178 v -83.266 h -17.228 v 82.548 c -6.224,-16.274 -12.685,-29.911 -19.381,-40.915 -1.918,10.521 -3.836,18.664 -5.742,24.406 10.52,16.263 18.416,34.455 23.688,54.553 z"></path></g><g transform="translate(686.6641,246.1133)" id="g52"><path id="path54" style="fill:#969CA6;fill-opacity:1;fill-rule:nonzero;stroke:none" d="m 0,0 -9.331,14.357 c 2.871,2.872 5.024,7.178 6.46,12.92 4.778,14.827 7.179,41.151 7.179,78.959 v 30.866 c -1.918,0 -4.789,-0.247 -8.615,-0.718 -3.836,0 -6.707,-0.246 -8.613,-0.717 V 86.855 c 0,-24.405 -1.435,-42.597 -4.307,-54.552 -2.4,-11.968 -7.66,-24.407 -15.792,-37.326 -0.964,1.435 -2.871,3.587 -5.743,6.46 -3.353,3.834 -5.506,6.459 -6.46,7.895 6.697,10.049 11.003,20.334 12.921,30.866 1.906,10.05 2.871,25.841 2.871,47.375 v 63.885 c 39.715,2.872 71.064,6.214 94.034,10.05 l 7.177,-17.228 -17.945,-2.153 c 0,-34.455 1.672,-60.061 5.025,-76.806 3.342,-17.227 10.52,-33.983 21.535,-50.247 L 70.346,-3.588 c -12.92,19.134 -21.534,38.515 -25.841,58.143 -4.789,19.133 -7.179,47.61 -7.179,85.419 -1.918,0 -4.789,-0.247 -8.613,-0.718 -3.354,0 -5.989,-0.247 -7.896,-0.718 V 107.672 C 20.817,84.22 19.853,66.51 17.945,54.555 V 52.4 C 16.981,46.176 14.828,36.845 11.485,24.406 11.003,22.971 10.768,21.771 10.768,20.817 l 17.945,7.178 -9.332,30.148 11.485,3.589 C 32.773,55.508 35.645,45.94 39.48,33.02 43.787,19.617 46.894,9.814 48.812,3.59 L 35.174,-1.436 C 33.737,2.872 32.302,7.896 30.866,13.639 25.124,11.732 18.899,9.332 12.203,6.461 10.768,5.99 9.086,5.271 7.179,4.308 3.825,2.872 1.437,1.437 0,0 m -86.854,94.034 c -0.483,0.471 -0.964,1.435 -1.436,2.871 -3.836,6.214 -6.46,10.52 -7.896,12.921 7.178,5.26 13.873,10.767 20.099,16.509 -4.308,9.085 -10.05,17.945 -17.227,26.559 l 13.638,10.049 c 6.213,-7.178 11.485,-14.838 15.791,-22.969 5.261,5.742 10.285,12.202 15.074,19.38 l 13.639,-10.767 c -6.707,-9.096 -13.639,-17.71 -20.816,-25.841 7.177,-22.017 10.766,-51.929 10.766,-89.726 0.954,-23.923 -7.66,-35.891 -25.841,-35.891 H -88.29 c 0,1.435 -0.247,4.308 -0.718,8.614 -0.482,4.307 -0.965,7.425 -1.435,9.331 5.259,-0.47 10.285,-0.717 15.074,-0.717 9.084,-0.954 13.391,5.26 12.92,18.663 0,10.521 -0.246,20.334 -0.718,29.43 -5.742,-7.661 -13.402,-15.555 -22.97,-23.688 -1.918,4.779 -4.789,10.285 -8.613,16.509 11.956,9.568 21.77,20.335 29.43,32.302 -0.483,1.436 -0.965,3.59 -1.436,6.461 -0.965,6.695 -1.918,11.485 -2.871,14.356 -5.742,-5.271 -11.484,-10.05 -17.227,-14.356"></path></g><g transform="translate(481.0449,190.4141)" id="g56"><path id="path58" style="fill:#969CA6;fill-opacity:1;fill-rule:nonzero;stroke:none" d="m 0,0 c 0,19.461 12.93,30.747 28.588,30.747 8.514,0 14.559,-3.631 18.51,-7.612 l -6.991,-8.506 c -2.912,2.679 -6.044,4.669 -11.074,4.669 -9.029,0 -15.443,-7.092 -15.443,-18.853 0,-12.056 5.461,-19.064 16.504,-19.064 2.347,0 4.781,0.614 6.211,1.746 V -6.745 H 26.587 V 4.079 H 48.082 V -22.964 C 44.037,-26.924 36.911,-30.068 28.727,-30.068 12.569,-30.068 0,-19.757 0,0"></path></g><path id="path60" style="fill:#969CA6;fill-opacity:1;fill-rule:nonzero;stroke:none" d="m 543.486,220.082 h 13.262 v -58.656 h -13.262 z"></path><g transform="translate(584.3027,208.96)" id="g62"><path id="path64" style="fill:#969CA6;fill-opacity:1;fill-rule:nonzero;stroke:none" d="M 0,0 H -16.145 V 11.122 H 29.406 V 0 H 13.262 V -47.534 H 0 Z"></path></g><g transform="translate(625.1172,220.082)" id="g66"><path id="path68" style="fill:#969CA6;fill-opacity:1;fill-rule:nonzero;stroke:none" d="M 0,0 H 13.261 V -47.535 H 36.414 V -58.656 H 0 Z"></path></g><path id="path70" style="fill:#969CA6;fill-opacity:1;fill-rule:nonzero;stroke:none" d="m 678.085,185.704 h 28.223 v -10.307 h -28.223 z m 6.276,34.378 h 15.868 l 18.42,-58.656 h -14.034 l -7.674,29.706 c -1.63,5.865 -3.197,12.801 -4.763,18.92 h -0.36 c -1.419,-6.194 -2.986,-13.055 -4.615,-18.92 l -7.706,-29.706 h -13.558 z"></path><g transform="translate(747.2168,171.6572)" id="g72"><path id="path74" style="fill:#969CA6;fill-opacity:1;fill-rule:nonzero;stroke:none" d="m 0,0 c 7.229,0 10.964,2.572 10.964,7.905 0,5.145 -3.672,7.24 -10.964,7.24 H -7.409 V 0 Z m -1.207,24.932 c 6.434,0 9.281,2.719 9.281,6.985 0,4.519 -3.006,6.275 -9.185,6.275 H -7.409 V 24.932 Z M -20.67,48.425 h 20.076 c 12.176,0 21.633,-3.346 21.633,-14.548 0,-5.262 -2.943,-10.863 -7.728,-12.663 v -0.36 C 19.302,19.297 23.929,14.883 23.929,7.048 23.929,-4.885 13.838,-10.231 1.08,-10.231 h -21.75 z"></path></g></g></g></g></svg>