<svg width="400" height="500" viewBox="0 0 400 500" fill="none" xmlns="http://www.w3.org/2000/svg">
<path d="M226.452 0H74.2468C33.4147 0 0 33.3374 0 74.075V425.925C0 466.663 33.4147 500 74.2468 500H325.753C366.585 500 400 466.663 400 425.925V174.081C400 154.637 392.575 136.116 378.657 121.308L278.423 21.3053C264.506 7.41298 245.943 0.00390816 226.452 0.00390816V0ZM362.88 169.449V174.078V425.921C362.88 446.29 346.176 462.954 325.761 462.954L74.2546 462.962C53.8386 462.962 37.1361 446.297 37.1361 425.929V74.0791C37.1361 53.7103 53.8394 37.0465 74.2546 37.0465H226.46H231.099V95.3805C231.099 136.118 264.513 169.456 305.345 169.456L362.88 169.449Z" fill="black"/>
<path d="M103.952 277.789H189.335C199.547 277.789 207.899 269.456 207.899 259.268C207.899 249.08 199.547 240.747 189.335 240.747H103.952C93.74 240.747 85.3882 249.08 85.3882 259.268C85.3882 269.456 93.7398 277.789 103.952 277.789Z" fill="black"/>
<path d="M85.3936 354.646C85.3936 364.834 93.7451 373.166 103.957 373.166H296.067C306.279 373.166 314.631 364.834 314.631 354.646C314.631 344.457 306.279 336.125 296.067 336.125H103.957C93.7453 336.125 85.3936 344.465 85.3936 354.646Z" fill="black"/>
</svg>
