<svg width="128" height="128" viewBox="0 0 128 128" fill="none" xmlns="http://www.w3.org/2000/svg">
<rect width="128" height="128" rx="24" fill="black"/>
<path fill-rule="evenodd" clip-rule="evenodd" d="M60.4045 25.191H49.7977C43.9398 25.191 39.191 29.9398 39.191 35.7977C39.191 41.6557 43.9398 46.4045 49.7977 46.4045H60.4045V25.191ZM60.4045 18H67.5955H78.2022C88.0319 18 95.9996 25.9683 95.9996 35.7977C95.9996 41.5983 93.2253 46.7508 88.9301 50C93.2253 53.2492 95.9996 58.4017 95.9996 64.2023C95.9996 74.0316 88.0319 82 78.2022 82C74.2278 82 70.5577 80.6973 67.5955 78.4955V82V92.6067C67.5955 102.436 59.6271 110.404 49.7977 110.404C39.9683 110.404 32 102.436 32 92.6067C32 86.8058 34.7749 81.6537 39.0696 78.4044C34.7749 75.1552 32 70.0027 32 64.2023C32 58.4017 34.7749 53.2492 39.0698 50C34.7749 46.7508 32 41.5983 32 35.7977C32 25.9683 39.9683 18 49.7977 18H60.4045ZM67.5955 25.191V46.4045H78.2022C84.0603 46.4045 88.8086 41.6557 88.8086 35.7977C88.8086 29.9398 84.0603 25.191 78.2022 25.191H67.5955ZM49.7977 74.8089H60.4045V64.2296V64.2023V64.1749V53.5955H49.7977C43.9398 53.5955 39.191 58.3443 39.191 64.2023C39.191 70.0462 43.9171 74.7863 49.7557 74.8089L49.7977 74.8089ZM39.191 92.6067C39.191 86.7626 43.9171 82.0227 49.7557 81.9999L49.7977 82H60.4045V92.6067C60.4045 98.4645 55.6557 103.213 49.7977 103.213C43.9398 103.213 39.191 98.4645 39.191 92.6067ZM67.5955 64.1811C67.6069 58.3329 72.3513 53.5955 78.2022 53.5955C84.0603 53.5955 88.8086 58.3443 88.8086 64.2023C88.8086 70.0602 84.0603 74.809 78.2022 74.809C72.3513 74.809 67.6069 70.0716 67.5955 64.2234V64.1811Z" fill="white"/>
</svg>
