<svg stroke="currentColor" fill="currentColor" stroke-width="0" viewBox="0 0 24 24" height="1em" width="1em" xmlns="http://www.w3.org/2000/svg"><g id="Bluetooth"><path d="M18.649,15.938,11.829,12l6.82-3.94a.984.984,0,0,0,.5-.87.968.968,0,0,0-.5-.861L12.029,2.5a.989.989,0,0,0-1,0,1,1,0,0,0-.5.87v7.769q-2.1-1.23-4.22-2.44c-.24-.139-.47-.279-.71-.409a.5.5,0,0,0-.51.86L10.039,12c-1.41.81-2.83,1.62-4.23,2.44-.24.129-.48.27-.72.41a.5.5,0,0,0,.51.86c1.65-.951,3.28-1.891,4.93-2.85v7.769a.993.993,0,0,0,.5.871.969.969,0,0,0,1,0l6.62-3.82a1.007,1.007,0,0,0,0-1.74Zm-7.12-12.57,6.62,3.82-6.62,3.83Zm0,17.259V12.988l6.62,3.82Z"></path></g></svg>