<svg stroke="currentColor" fill="currentColor" stroke-width="0" viewBox="0 0 24 24" height="1em" width="1em" xmlns="http://www.w3.org/2000/svg"><g id="Camera"><g><path d="M20.435,19.925H3.565a1.5,1.5,0,0,1-1.5-1.5V9.285a1.5,1.5,0,0,1,1.5-1.5H6.223a.5.5,0,0,0,.5-.454l.166-1.8a1.49,1.49,0,0,1,1.5-1.454h7.23a1.5,1.5,0,0,1,1.5,1.5l.164,1.756a.5.5,0,0,0,.5.454h2.658a1.5,1.5,0,0,1,1.5,1.5v9.14A1.5,1.5,0,0,1,20.435,19.925ZM3.565,8.785a.5.5,0,0,0-.5.5v9.14a.5.5,0,0,0,.5.5h16.87a.5.5,0,0,0,.5-.5V9.285a.5.5,0,0,0-.5-.5H17.777a1.5,1.5,0,0,1-1.494-1.362l-.166-1.8a.515.515,0,0,0-.5-.546H8.385a.5.5,0,0,0-.5.5L7.717,7.423A1.5,1.5,0,0,1,6.223,8.785Z"></path><path d="M12,17.282a4,4,0,1,1,4-4A4,4,0,0,1,12,17.282Zm0-7a3,3,0,1,0,3,3A3,3,0,0,0,12,10.282Z"></path></g></g></svg>