<svg stroke="currentColor" fill="currentColor" stroke-width="0" viewBox="0 0 24 24" height="1em" width="1em" xmlns="http://www.w3.org/2000/svg"><g id="Circle_List" dataName="Circle List"><g><path d="M20.438,6.062h-9a.5.5,0,0,1,0-1h9a.5.5,0,0,1,0,1Z"></path><path d="M20.438,12.5h-9a.5.5,0,0,1,0-1h9a.5.5,0,0,1,0,1Z"></path><path d="M20.438,18.935h-9a.5.5,0,1,1,0-1h9a.5.5,0,0,1,0,1Z"></path><path d="M5.562,8.062a2.5,2.5,0,1,1,2.5-2.5A2.5,2.5,0,0,1,5.562,8.062Zm0-4a1.5,1.5,0,1,0,1.5,1.5A1.5,1.5,0,0,0,5.562,4.062Z"></path><path d="M5.562,14.5a2.5,2.5,0,1,1,2.5-2.5A2.5,2.5,0,0,1,5.562,14.5Zm0-4a1.5,1.5,0,1,0,1.5,1.5A1.5,1.5,0,0,0,5.562,10.5Z"></path><path d="M5.562,20.938a2.5,2.5,0,1,1,2.5-2.5A2.5,2.5,0,0,1,5.562,20.938Zm0-4a1.5,1.5,0,1,0,1.5,1.5A1.5,1.5,0,0,0,5.562,16.938Z"></path></g></g></svg>