<svg stroke="currentColor" fill="currentColor" stroke-width="0" viewBox="0 0 24 24" height="1em" width="1em" xmlns="http://www.w3.org/2000/svg"><g id="Compass_1" dataName="Compass 1"><g><path d="M4.661,20.937a1.589,1.589,0,0,1-1.117-.48,1.534,1.534,0,0,1-.4-1.59L6.58,8.937A3.8,3.8,0,0,1,8.938,6.58l9.93-3.439a1.537,1.537,0,0,1,1.589.4,1.532,1.532,0,0,1,.4,1.588L17.42,15.061a3.8,3.8,0,0,1-2.358,2.358l-9.93,3.439A1.442,1.442,0,0,1,4.661,20.937ZM19.337,4.062a.424.424,0,0,0-.142.024L9.267,7.525A2.8,2.8,0,0,0,7.525,9.266L4.087,19.2a.6.6,0,0,0,.717.718l9.93-3.439a2.8,2.8,0,0,0,1.741-1.741L19.913,4.8a.551.551,0,0,0-.163-.553A.609.609,0,0,0,19.337,4.062Z"></path><circle cx="12" cy="12" r="1.563"></circle></g></g></svg>