<svg stroke="currentColor" fill="currentColor" stroke-width="0" viewBox="0 0 24 24" height="1em" width="1em" xmlns="http://www.w3.org/2000/svg"><g id="Credit_Card_2" dataName="Credit Card 2"><g><path d="M19.437,18.859H4.563a2.5,2.5,0,0,1-2.5-2.5V7.641a2.5,2.5,0,0,1,2.5-2.5H19.437a2.5,2.5,0,0,1,2.5,2.5v8.718A2.5,2.5,0,0,1,19.437,18.859ZM4.563,6.141a1.5,1.5,0,0,0-1.5,1.5v8.718a1.5,1.5,0,0,0,1.5,1.5H19.437a1.5,1.5,0,0,0,1.5-1.5V7.641a1.5,1.5,0,0,0-1.5-1.5Z"></path><path d="M8.063,14.247h-3a.5.5,0,1,1,0-1h3a.5.5,0,1,1,0,1Z"></path><path d="M18.934,14.249h-6.5a.5.5,0,0,1,0-1h6.5a.5.5,0,0,1,0,1Z"></path><rect x="16.434" y="7.14" width="2" height="4" rx="0.5" transform="translate(8.293 26.574) rotate(-90)"></rect></g></g></svg>