<svg stroke="currentColor" fill="currentColor" stroke-width="0" viewBox="0 0 24 24" height="1em" width="1em" xmlns="http://www.w3.org/2000/svg"><g id="Discount_1" dataName="Discount 1"><g><path d="M12,21.954c-.895,0-1.544-.744-2.118-1.4a3.656,3.656,0,0,0-1.034-.945,3.77,3.77,0,0,0-1.464-.077,3.021,3.021,0,0,1-2.422-.5,3.018,3.018,0,0,1-.5-2.421,3.774,3.774,0,0,0-.077-1.465,3.639,3.639,0,0,0-.945-1.034c-.655-.574-1.4-1.223-1.4-2.118s.743-1.544,1.4-2.118A3.656,3.656,0,0,0,4.39,8.848a3.8,3.8,0,0,0,.078-1.466,3.013,3.013,0,0,1,.494-2.42,3.024,3.024,0,0,1,2.422-.5A3.748,3.748,0,0,0,8.848,4.39a3.656,3.656,0,0,0,1.034-.945c.574-.655,1.223-1.4,2.118-1.4s1.545.744,2.118,1.4a3.683,3.683,0,0,0,1.034.945,3.787,3.787,0,0,0,1.464.077,3.024,3.024,0,0,1,2.422.5,3.018,3.018,0,0,1,.5,2.421,3.774,3.774,0,0,0,.077,1.465,3.67,3.67,0,0,0,.945,1.034c.655.574,1.4,1.223,1.4,2.118s-.743,1.544-1.4,2.119a3.652,3.652,0,0,0-.945,1.033,3.774,3.774,0,0,0-.077,1.465,3.018,3.018,0,0,1-.5,2.421,3.029,3.029,0,0,1-2.422.5,3.811,3.811,0,0,0-1.464.077,3.683,3.683,0,0,0-1.034.945C13.545,21.21,12.9,21.954,12,21.954ZM8.093,18.5a2.959,2.959,0,0,1,1.138.183,4.248,4.248,0,0,1,1.4,1.211c.454.52.924,1.057,1.365,1.057s.911-.537,1.366-1.057a4.235,4.235,0,0,1,1.4-1.211,4.386,4.386,0,0,1,1.909-.151c.67.042,1.365.084,1.653-.2s.245-.982.2-1.654a4.382,4.382,0,0,1,.151-1.908,4.243,4.243,0,0,1,1.21-1.4c.52-.455,1.057-.925,1.057-1.366s-.537-.911-1.056-1.366a4.225,4.225,0,0,1-1.211-1.4,4.387,4.387,0,0,1-.151-1.909c.041-.671.084-1.365-.2-1.653s-.98-.244-1.653-.2a4.373,4.373,0,0,1-1.909-.151,4.235,4.235,0,0,1-1.4-1.211c-.455-.52-.925-1.057-1.366-1.057s-.911.537-1.365,1.057a4.248,4.248,0,0,1-1.4,1.211,4.414,4.414,0,0,1-1.908.151c-.671-.041-1.365-.084-1.654.2s-.244.982-.2,1.653a4.4,4.4,0,0,1-.152,1.909,4.238,4.238,0,0,1-1.211,1.4c-.519.454-1.056.924-1.056,1.365s.537.911,1.057,1.366a4.233,4.233,0,0,1,1.21,1.4,4.382,4.382,0,0,1,.151,1.908c-.041.672-.084,1.366.2,1.654s.982.245,1.654.2C7.579,18.519,7.838,18.5,8.093,18.5Z"></path><g><path d="M10.421,10.236a1.015,1.015,0,0,1-.72.3.976.976,0,0,1-.71-.3,1.011,1.011,0,1,1,1.43,0Z"></path><path d="M8.754,15.747a.5.5,0,0,1-.354-.854L14.893,8.4a.5.5,0,1,1,.707.707L9.107,15.6A.5.5,0,0,1,8.754,15.747Z"></path><path d="M15.011,15.2a1,1,0,0,1-.72.3.976.976,0,0,1-.71-.3,1.011,1.011,0,1,1,1.43,0Z"></path></g></g></g></svg>