<svg stroke="currentColor" fill="currentColor" stroke-width="0" viewBox="0 0 24 24" height="1em" width="1em" xmlns="http://www.w3.org/2000/svg"><g id="Flag_1" dataName="Flag 1"><path d="M20.565,3.18a.809.809,0,0,0-.81-.02l-1.13.56c-1.63.87-3.82.83-6.5-.13a9.141,9.141,0,0,0-7.3.52l-.76.41V3.56a.5.5,0,0,0-1,0V20.44a.5.5,0,0,0,1,0V15.9a.836.836,0,0,0,.2-.08l1.03-.55a8.163,8.163,0,0,1,6.5-.46c2.95,1.06,5.41,1.08,7.3.07l1.44-.72a.759.759,0,0,0,.4-.66V3.82A.751.751,0,0,0,20.565,3.18Zm-.63,10.16-1.31.66c-1.63.87-3.82.83-6.5-.13a9.141,9.141,0,0,0-7.3.52l-.76.4V5.65L5.3,4.99a8.122,8.122,0,0,1,6.5-.46c2.95,1.06,5.41,1.08,7.29.08l.85-.43Z"></path></g></svg>