<svg stroke="currentColor" fill="currentColor" stroke-width="0" viewBox="0 0 24 24" height="1em" width="1em" xmlns="http://www.w3.org/2000/svg"><g id="Import"><g><path d="M5.552,20.968a2.577,2.577,0,0,1-2.5-2.73c-.012-2.153,0-4.306,0-6.459a.5.5,0,0,1,1,0c0,2.2-.032,4.4,0,6.6.016,1.107.848,1.589,1.838,1.589H18.353A1.546,1.546,0,0,0,19.825,19a3.023,3.023,0,0,0,.1-1.061V11.779h0a.5.5,0,0,1,1,0c0,2.224.085,4.465,0,6.687a2.567,2.567,0,0,1-2.67,2.5Z"></path><path d="M11.63,15.818a.459.459,0,0,0,.312.138c.014,0,.027.005.042.006s.027,0,.041-.006a.457.457,0,0,0,.312-.138l3.669-3.669a.5.5,0,0,0-.707-.707l-2.815,2.815V3.515a.5.5,0,0,0-1,0V14.257L8.668,11.442a.5.5,0,0,0-.707.707Z"></path></g></g></svg>