<svg stroke="currentColor" fill="currentColor" stroke-width="0" viewBox="0 0 24 24" height="1em" width="1em" xmlns="http://www.w3.org/2000/svg"><g id="Instagram"><g><path d="M18.437,20.937H5.563a2.5,2.5,0,0,1-2.5-2.5V5.563a2.5,2.5,0,0,1,2.5-2.5H18.437a2.5,2.5,0,0,1,2.5,2.5V18.437A2.5,2.5,0,0,1,18.437,20.937ZM5.563,4.063a1.5,1.5,0,0,0-1.5,1.5V18.437a1.5,1.5,0,0,0,1.5,1.5H18.437a1.5,1.5,0,0,0,1.5-1.5V5.563a1.5,1.5,0,0,0-1.5-1.5Z"></path><path d="M12,16.594A4.595,4.595,0,1,1,16.6,12,4.6,4.6,0,0,1,12,16.594ZM12,8.4A3.595,3.595,0,1,0,15.6,12,3.6,3.6,0,0,0,12,8.4Z"></path><circle cx="17.2" cy="6.83" r="1.075"></circle></g></g></svg>