<svg stroke="currentColor" fill="currentColor" stroke-width="0" viewBox="0 0 24 24" height="1em" width="1em" xmlns="http://www.w3.org/2000/svg"><g id="Line_Height" dataName="Line Height"><g><path d="M20.439,4.062h-9a.5.5,0,1,1,0-1h9a.5.5,0,0,1,0,1Z"></path><path d="M20.439,9.686h-9a.5.5,0,0,1,0-1h9a.5.5,0,0,1,0,1Z"></path><path d="M20.439,15.31h-9a.5.5,0,0,1,0-1h9a.5.5,0,0,1,0,1Z"></path><path d="M20.439,20.934h-9a.5.5,0,0,1,0-1h9a.5.5,0,0,1,0,1Z"></path><path d="M3.208,18.8a.5.5,0,0,1,.71-.71l1.14,1.14V4.775l-1.14,1.14a.513.513,0,0,1-.71,0,.5.5,0,0,1,0-.71l2-2a.494.494,0,0,1,.34-.14.549.549,0,0,1,.37.14l2,2a.524.524,0,0,1,0,.71.5.5,0,0,1-.71,0l-1.15-1.15v14.47l1.15-1.15a.5.5,0,1,1,.71.71l-2,2a.513.513,0,0,1-.71,0Z"></path></g></g></svg>