<svg stroke="currentColor" fill="currentColor" stroke-width="0" viewBox="0 0 24 24" height="1em" width="1em" xmlns="http://www.w3.org/2000/svg"><g id="Mail"><path d="M19.435,4.065H4.565a2.5,2.5,0,0,0-2.5,2.5v10.87a2.5,2.5,0,0,0,2.5,2.5h14.87a2.5,2.5,0,0,0,2.5-2.5V6.565A2.5,2.5,0,0,0,19.435,4.065Zm-14.87,1h14.87a1.489,1.489,0,0,1,1.49,1.39c-2.47,1.32-4.95,2.63-7.43,3.95a6.172,6.172,0,0,1-1.06.53,2.083,2.083,0,0,1-1.67-.39c-1.42-.75-2.84-1.51-4.25-2.26-1.14-.6-2.3-1.21-3.44-1.82A1.491,1.491,0,0,1,4.565,5.065Zm16.37,12.37a1.5,1.5,0,0,1-1.5,1.5H4.565a1.5,1.5,0,0,1-1.5-1.5V7.6c2.36,1.24,4.71,2.5,7.07,3.75a5.622,5.622,0,0,0,1.35.6,2.872,2.872,0,0,0,2-.41c1.45-.76,2.89-1.53,4.34-2.29,1.04-.56,2.07-1.1,3.11-1.65Z"></path></g></svg>