<svg stroke="currentColor" fill="currentColor" stroke-width="0" viewBox="0 0 24 24" height="1em" width="1em" xmlns="http://www.w3.org/2000/svg"><g id="Maximize_2" dataName="Maximize 2"><g><path d="M10.513,3.066H4.93a2.058,2.058,0,0,0-1.15.22,1.6,1.6,0,0,0-.717,1.437v5.793a.5.5,0,0,0,1,0V5.107a2.521,2.521,0,0,1,.022-.689c.115-.373.469-.352.777-.352h5.651a.5.5,0,0,0,0-1Z"></path><path d="M3.063,13.488v5.583a2.057,2.057,0,0,0,.221,1.15,1.6,1.6,0,0,0,1.436.717h5.793a.5.5,0,0,0,0-1H5.1a2.483,2.483,0,0,1-.689-.022c-.372-.115-.352-.469-.352-.777V13.488a.5.5,0,0,0-1,0Z"></path><path d="M13.487,20.934H19.07a2.058,2.058,0,0,0,1.15-.22,1.6,1.6,0,0,0,.717-1.437V13.484a.5.5,0,0,0-1,0v5.409a2.521,2.521,0,0,1-.022.689c-.115.373-.469.352-.777.352H13.487a.5.5,0,0,0,0,1Z"></path><path d="M20.937,10.512V4.929a2.057,2.057,0,0,0-.221-1.15,1.6,1.6,0,0,0-1.436-.717H13.487a.5.5,0,0,0,0,1H18.9a2.483,2.483,0,0,1,.689.022c.372.115.352.469.352.777v5.651a.5.5,0,0,0,1,0Z"></path></g></g></svg>