<svg stroke="currentColor" fill="currentColor" stroke-width="0" viewBox="0 0 24 24" height="1em" width="1em" xmlns="http://www.w3.org/2000/svg"><g id="Minimize_2" dataName="Minimize 2"><g><path d="M3.563,11.016H9.146A2.057,2.057,0,0,0,10.3,10.8a1.6,1.6,0,0,0,.717-1.436V3.566a.5.5,0,0,0-1,0V8.974a2.481,2.481,0,0,1-.022.689c-.115.373-.468.353-.777.353H3.563a.5.5,0,0,0,0,1Z"></path><path d="M11.013,20.438V14.855a2.065,2.065,0,0,0-.22-1.15,1.6,1.6,0,0,0-1.437-.717H3.563a.5.5,0,0,0,0,1H8.972a2.482,2.482,0,0,1,.689.022c.373.115.352.469.352.777v5.651a.5.5,0,0,0,1,0Z"></path><path d="M20.437,12.984H14.854a2.057,2.057,0,0,0-1.15.221,1.6,1.6,0,0,0-.717,1.436v5.793a.5.5,0,0,0,1,0V15.026a2.481,2.481,0,0,1,.022-.689c.115-.373.468-.353.777-.353h5.651a.5.5,0,0,0,0-1Z"></path><path d="M12.987,3.562V9.145a2.065,2.065,0,0,0,.22,1.15,1.6,1.6,0,0,0,1.437.717h5.793a.5.5,0,0,0,0-1H15.028a2.482,2.482,0,0,1-.689-.022c-.373-.115-.352-.469-.352-.777V3.562a.5.5,0,0,0-1,0Z"></path></g></g></svg>