<svg stroke="currentColor" fill="currentColor" stroke-width="0" viewBox="0 0 24 24" height="1em" width="1em" xmlns="http://www.w3.org/2000/svg"><g id="Mobile_2" dataName="Mobile 2"><g><circle cx="12" cy="17.937" r="1"></circle><path d="M16.727,21.937H7.273a2.384,2.384,0,0,1-2.239-2.5V4.563a2.384,2.384,0,0,1,2.239-2.5h9.454a2.384,2.384,0,0,1,2.239,2.5V19.437A2.384,2.384,0,0,1,16.727,21.937ZM7.273,3.063a1.39,1.39,0,0,0-1.239,1.5V19.437a1.39,1.39,0,0,0,1.239,1.5h9.454a1.39,1.39,0,0,0,1.239-1.5V4.563a1.39,1.39,0,0,0-1.239-1.5Z"></path></g></g></svg>