<svg stroke="currentColor" fill="currentColor" stroke-width="0" viewBox="0 0 24 24" height="1em" width="1em" xmlns="http://www.w3.org/2000/svg"><g id="Mobile_3" dataName="Mobile 3"><g><path d="M16.73,2.065H7.27a2.386,2.386,0,0,0-2.24,2.5v14.87a2.386,2.386,0,0,0,2.24,2.5h9.46a2.386,2.386,0,0,0,2.24-2.5V4.565A2.386,2.386,0,0,0,16.73,2.065Zm1.24,17.37a1.391,1.391,0,0,1-1.24,1.5H7.27a1.391,1.391,0,0,1-1.24-1.5V4.565a1.391,1.391,0,0,1,1.24-1.5H8.8v.51a1,1,0,0,0,1,1h4.4a1,1,0,0,0,1-1v-.51h1.53a1.391,1.391,0,0,1,1.24,1.5Z"></path><path d="M10,18.934h4a.5.5,0,0,0,0-1H10a.5.5,0,0,0,0,1Z"></path></g></g></svg>