<svg stroke="currentColor" fill="currentColor" stroke-width="0" viewBox="0 0 24 24" height="1em" width="1em" xmlns="http://www.w3.org/2000/svg"><g id="Receipt"><g><path d="M12,21.919a1.454,1.454,0,0,1-.791-.232L9.645,20.666a.47.47,0,0,0-.439-.028l-1.776.829a1.466,1.466,0,0,1-1.4-.087,1.214,1.214,0,0,1-.581-1.02V3.641A1.217,1.217,0,0,1,6.033,2.62a1.469,1.469,0,0,1,1.4-.087l1.775.829a.469.469,0,0,0,.439-.026L11.21,2.313a1.464,1.464,0,0,1,1.581,0l1.564,1.022a.469.469,0,0,0,.44.026l1.775-.829a1.461,1.461,0,0,1,1.4.087,1.217,1.217,0,0,1,.581,1.021V20.36a1.216,1.216,0,0,1-.581,1.02,1.46,1.46,0,0,1-1.4.087L14.8,20.639a.474.474,0,0,0-.441.027l-1.564,1.021A1.448,1.448,0,0,1,12,21.919ZM9.4,19.6a1.44,1.44,0,0,1,.79.234l1.564,1.02a.464.464,0,0,0,.487,0l1.565-1.021a1.462,1.462,0,0,1,1.41-.095l1.774.828a.463.463,0,0,0,.437-.024.221.221,0,0,0,.118-.177V3.641a.219.219,0,0,0-.118-.177.461.461,0,0,0-.437-.025l-1.775.829a1.458,1.458,0,0,1-1.409-.095L12.243,3.151a.467.467,0,0,0-.486,0L10.192,4.172a1.467,1.467,0,0,1-1.41.1L7.007,3.439a.461.461,0,0,0-.437.025.219.219,0,0,0-.118.177V20.36a.221.221,0,0,0,.118.177.468.468,0,0,0,.437.024l1.776-.829A1.461,1.461,0,0,1,9.4,19.6Z"></path><path d="M15.046,7.4H8.954a.5.5,0,0,1,0-1h6.092a.5.5,0,0,1,0,1Z"></path><path d="M15.046,10.953H8.954a.5.5,0,0,1,0-1h6.092a.5.5,0,0,1,0,1Z"></path><path d="M12,14.5H8.954a.5.5,0,0,1,0-1H12a.5.5,0,0,1,0,1Z"></path></g></g></svg>