<svg stroke="currentColor" fill="currentColor" stroke-width="0" viewBox="0 0 24 24" height="1em" width="1em" xmlns="http://www.w3.org/2000/svg"><g id="Server"><g><path d="M20.437,11H3.563a1.5,1.5,0,0,1-1.5-1.5V5.565a1.5,1.5,0,0,1,1.5-1.5H20.437a1.5,1.5,0,0,1,1.5,1.5v3.93A1.5,1.5,0,0,1,20.437,11ZM3.563,5.065a.5.5,0,0,0-.5.5v3.93a.5.5,0,0,0,.5.5H20.437a.5.5,0,0,0,.5-.5V5.565a.5.5,0,0,0-.5-.5Z"></path><path d="M20.437,19.935H3.563a1.5,1.5,0,0,1-1.5-1.5v-3.93a1.5,1.5,0,0,1,1.5-1.5H20.437a1.5,1.5,0,0,1,1.5,1.5v3.93A1.5,1.5,0,0,1,20.437,19.935ZM3.563,14.005a.5.5,0,0,0-.5.5v3.93a.5.5,0,0,0,.5.5H20.437a.5.5,0,0,0,.5-.5v-3.93a.5.5,0,0,0-.5-.5Z"></path><circle cx="5.563" cy="7.53" r="0.5"></circle><circle cx="7.563" cy="7.53" r="0.5"></circle><path d="M13.452,8.03a.5.5,0,0,1,0-1h5a.5.5,0,0,1,0,1Z"></path><circle cx="5.563" cy="16.47" r="0.5"></circle><circle cx="7.563" cy="16.47" r="0.5"></circle><path d="M13.452,16.97a.5.5,0,0,1,0-1h5a.5.5,0,0,1,0,1Z"></path></g></g></svg>