<svg stroke="currentColor" fill="currentColor" stroke-width="0" viewBox="0 0 24 24" height="1em" width="1em" xmlns="http://www.w3.org/2000/svg"><g id="Shirt"><g><path d="M16.657,21.949H7.343a2.5,2.5,0,0,1-2.5-2.5V11.222a6.468,6.468,0,0,1,.112-1.2L5.224,8.59a5.572,5.572,0,0,0,.094-1.015V3.3a1.252,1.252,0,0,1,1.25-1.25H8.815a1.251,1.251,0,0,1,1.25,1.25V6.413a1.935,1.935,0,0,0,3.87,0V3.3a1.251,1.251,0,0,1,1.25-1.25h2.247a1.252,1.252,0,0,1,1.25,1.25V7.575a5.486,5.486,0,0,0,.1,1.015l.269,1.431a6.57,6.57,0,0,1,.111,1.2v8.227A2.5,2.5,0,0,1,16.657,21.949ZM6.568,3.051a.251.251,0,0,0-.25.25V7.575a6.543,6.543,0,0,1-.111,1.2l-.27,1.432a5.5,5.5,0,0,0-.094,1.015v8.227a1.5,1.5,0,0,0,1.5,1.5h9.314a1.5,1.5,0,0,0,1.5-1.5V11.222a5.519,5.519,0,0,0-.094-1.016l-.269-1.43a6.453,6.453,0,0,1-.112-1.2V3.3a.251.251,0,0,0-.25-.25H15.185a.251.251,0,0,0-.25.25V6.413a2.935,2.935,0,0,1-5.87,0V3.3a.251.251,0,0,0-.25-.25Z"></path><path d="M11.986,17.333V13.874a.075.075,0,0,0-.114-.064l-.638.392a.149.149,0,0,1-.228-.128v-.65a.3.3,0,0,1,.145-.258l.764-.457a.3.3,0,0,1,.154-.043H12.7a.3.3,0,0,1,.3.3v4.367a.3.3,0,0,1-.3.3h-.409A.3.3,0,0,1,11.986,17.333Z"></path></g></g></svg>