<svg stroke="currentColor" fill="currentColor" stroke-width="0" viewBox="0 0 24 24" height="1em" width="1em" xmlns="http://www.w3.org/2000/svg"><g id="Signpost_R_1" dataName="Signpost R 1"><path d="M3.563,8h13.9a2.489,2.489,0,0,1,1.744.709l2.25,2.192a1.5,1.5,0,0,1-.007,2.2l-2.243,2.187A2.483,2.483,0,0,1,17.464,16H3.563a1.5,1.5,0,0,1-1.5-1.5v-5A1.5,1.5,0,0,1,3.563,8Zm13.9,7a1.491,1.491,0,0,0,1.046-.425l2.255-2.2A.5.5,0,0,0,20.937,12a.494.494,0,0,0-.162-.369l-.01-.01-2.254-2.2A1.492,1.492,0,0,0,17.464,9H3.563a.5.5,0,0,0-.5.5v5a.5.5,0,0,0,.5.5Z"></path></g></svg>