<svg stroke="currentColor" fill="currentColor" stroke-width="0" viewBox="0 0 24 24" height="1em" width="1em" xmlns="http://www.w3.org/2000/svg"><g id="Square_Alert" dataName="Square Alert"><g><path d="M18.437,20.936H5.562a2.5,2.5,0,0,1-2.5-2.5V5.562a2.5,2.5,0,0,1,2.5-2.5H18.437a2.5,2.5,0,0,1,2.5,2.5V18.436A2.5,2.5,0,0,1,18.437,20.936ZM5.562,4.062a1.5,1.5,0,0,0-1.5,1.5V18.436a1.5,1.5,0,0,0,1.5,1.5H18.437a1.5,1.5,0,0,0,1.5-1.5V5.562a1.5,1.5,0,0,0-1.5-1.5Z"></path><g><path d="M11.5,10.982a.5.5,0,0,1,1,0V15h0a.5.5,0,0,1-1,0Z"></path><circle cx="12" cy="9" r="0.5"></circle></g></g></g></svg>