<svg stroke="currentColor" fill="currentColor" stroke-width="0" viewBox="0 0 24 24" height="1em" width="1em" xmlns="http://www.w3.org/2000/svg"><g id="Vault"><g><path d="M15.935,6.06H8.065a2,2,0,0,0-2,2v6a1.993,1.993,0,0,0,2,2h7.87a2,2,0,0,0,2-2v-6A2.006,2.006,0,0,0,15.935,6.06Zm1,8a1,1,0,0,1-1,1H8.065a.99.99,0,0,1-1-1v-6a1,1,0,0,1,1-1h7.87a1,1,0,0,1,1,1Z"></path><path d="M18.435,3.06H5.565a2.507,2.507,0,0,0-2.5,2.5v11a2.5,2.5,0,0,0,2.5,2.5v.38a1.5,1.5,0,0,0,1.5,1.5h1.43a1.5,1.5,0,0,0,1.5-1.5v-.38h4v.38a1.5,1.5,0,0,0,1.5,1.5h1.44a1.5,1.5,0,0,0,1.5-1.5v-.38a2.5,2.5,0,0,0,2.5-2.5v-11A2.507,2.507,0,0,0,18.435,3.06ZM8.995,19.44a.5.5,0,0,1-.5.5H7.065a.5.5,0,0,1-.5-.5v-.38h2.43Zm8.44,0a.5.5,0,0,1-.5.5H15.5a.508.508,0,0,1-.5-.5v-.38h2.44Zm2.5-2.88a1.5,1.5,0,0,1-1.5,1.5H5.565a1.5,1.5,0,0,1-1.5-1.5v-11a1.5,1.5,0,0,1,1.5-1.5h12.87a1.5,1.5,0,0,1,1.5,1.5Z"></path><path d="M14.265,10.56h-.61A1.656,1.656,0,0,0,12.5,9.4V8.79a.491.491,0,0,0-.5-.48.5.5,0,0,0-.5.48V9.4a1.656,1.656,0,0,0-1.16,1.16h-.61a.5.5,0,0,0-.48.5.491.491,0,0,0,.48.5h.61a1.656,1.656,0,0,0,1.16,1.16v.62a.489.489,0,0,0,.5.47.483.483,0,0,0,.5-.47v-.62a1.622,1.622,0,0,0,1.16-1.16h.61a.485.485,0,0,0,.48-.5A.491.491,0,0,0,14.265,10.56ZM12,11.81a.75.75,0,1,1,.75-.75A.749.749,0,0,1,12,11.81Z"></path></g></g></svg>