<svg stroke="currentColor" fill="currentColor" stroke-width="0" viewBox="0 0 24 24" height="1em" width="1em" xmlns="http://www.w3.org/2000/svg"><g id="Volume_Mute" dataName="Volume Mute"><g><path d="M13.817,19.936a1.424,1.424,0,0,1-.719-.2L9.43,17.624a3.254,3.254,0,0,0-1.625-.436H4.44a2.377,2.377,0,0,1-2.375-2.375V9.187A2.378,2.378,0,0,1,4.44,6.811H7.805A3.257,3.257,0,0,0,9.43,6.377L13.1,4.259A1.438,1.438,0,0,1,15.255,5.5V18.5a1.423,1.423,0,0,1-.718,1.245A1.439,1.439,0,0,1,13.817,19.936ZM4.44,7.811A1.377,1.377,0,0,0,3.065,9.187v5.626A1.377,1.377,0,0,0,4.44,16.188H7.805a4.247,4.247,0,0,1,2.125.571L13.6,18.876a.437.437,0,0,0,.439,0,.433.433,0,0,0,.218-.379V5.5a.438.438,0,0,0-.657-.379L9.93,7.242a4.25,4.25,0,0,1-2.125.569Z"></path><path d="M17.606,14.445a.5.5,0,0,1-.7-.711c.17-.169.34-.349.52-.52l1.21-1.209c-.57-.581-1.15-1.161-1.73-1.74a.5.5,0,0,1,.7-.71l1.74,1.739,1.74-1.739a.5.5,0,0,1,.7.71l-1.73,1.74,1.73,1.729a.5.5,0,0,1-.7.711L19.343,12.7Z"></path></g></g></svg>