<svg width="16" height="16" viewBox="0 0 16 16" fill="none" xmlns="http://www.w3.org/2000/svg">
<path d="M7.65625 6.97742C7.8988 6.81749 8.22891 6.84406 8.44238 7.0575L11.9424 10.5575C12.1864 10.8016 12.1864 11.1982 11.9424 11.4423C11.6983 11.6863 11.3017 11.6863 11.0576 11.4423L8.625 9.00964V14.9999C8.625 15.3451 8.34518 15.6249 8 15.6249C7.65482 15.6249 7.375 15.3451 7.375 14.9999V9.00964L4.94238 11.4423C4.69831 11.6863 4.30169 11.6863 4.05762 11.4423C3.81358 11.1982 3.81355 10.8016 4.05762 10.5575L7.55762 7.0575L7.65625 6.97742ZM8.02539 0.397339C10.5383 0.411366 12.5723 2.42755 12.6221 4.92859C14.3276 5.2236 15.625 6.71001 15.625 8.49988V9.99988C15.625 10.3451 15.3452 10.6249 15 10.6249C14.6548 10.6249 14.375 10.3451 14.375 9.99988V8.49988C14.375 7.18823 13.3117 6.12488 12 6.12488C11.6548 6.12488 11.375 5.84506 11.375 5.49988V5.02234C11.375 3.16576 9.87511 1.6577 8.01855 1.64734C6.14742 1.63705 4.62504 3.15115 4.625 5.02234V5.49988C4.625 5.84506 4.34518 6.12488 4 6.12488C2.68835 6.12488 1.62504 7.18823 1.625 8.49988V9.99988C1.625 10.3451 1.34518 10.6249 1 10.6249C0.654822 10.6249 0.375 10.3451 0.375 9.99988V8.49988C0.375034 6.71035 1.67185 5.22398 3.37695 4.92859C3.42707 2.40771 5.49255 0.383429 8.02539 0.397339Z" fill="currentColor"/>
</svg>
