<svg xmlns="http://www.w3.org/2000/svg" viewBox="0 0 256 256"><rect width="256" height="256" fill="none"/><path d="M128,128h24a40,40,0,0,1,0,80H128Z" opacity="0.2"/><path d="M128,48H112a40,40,0,0,0,0,80h16Z" opacity="0.2"/><line x1="128" y1="24" x2="128" y2="232" fill="none" stroke="currentColor" stroke-linecap="round" stroke-linejoin="round" stroke-width="16"/><path d="M184,88a40,40,0,0,0-40-40H112a40,40,0,0,0,0,80h40a40,40,0,0,1,0,80H104a40,40,0,0,1-40-40" fill="none" stroke="currentColor" stroke-linecap="round" stroke-linejoin="round" stroke-width="16"/></svg>