<svg xmlns="http://www.w3.org/2000/svg" viewBox="0 0 256 256"><rect width="256" height="256" fill="none"/><path d="M160,125.48c17.76,4.91,36.1,3.75,56-13.48V48c-19.89,17.23-38.24,18.39-56,13.48Z" opacity="0.2"/><path d="M96,154.52c21.62,6,42.38,21,64,27v-56c-21.63-6-42.38-21-64-27Z" opacity="0.2"/><path d="M40,112C59.89,94.77,78.24,93.61,96,98.52v-64C78.24,29.61,59.89,30.77,40,48Z" opacity="0.2"/><line x1="160" y1="61.48" x2="160" y2="181.48" fill="none" stroke="currentColor" stroke-linecap="round" stroke-linejoin="round" stroke-width="16"/><path d="M40,112c64-55.43,112,55.43,176,0" fill="none" stroke="currentColor" stroke-linecap="round" stroke-linejoin="round" stroke-width="16"/><line x1="96" y1="34.52" x2="96" y2="154.52" fill="none" stroke="currentColor" stroke-linecap="round" stroke-linejoin="round" stroke-width="16"/><path d="M40,168c64-55.43,112,55.43,176,0V48C152,103.43,104-7.43,40,48V216" fill="none" stroke="currentColor" stroke-linecap="round" stroke-linejoin="round" stroke-width="16"/></svg>