<svg xmlns="http://www.w3.org/2000/svg" viewBox="0 0 256 256"><rect width="256" height="256" fill="none"/><path d="M152,192h56v12a28,28,0,0,1-56,0Z" opacity="0.2"/><path d="M48,168h56v12a28,28,0,0,1-56,0Z" opacity="0.2"/><path d="M50.74,136C24.54,104,51.48,24,76,24s51.46,80,25.26,112Z" opacity="0.2"/><path d="M154.74,160c-26.2-32,.74-112,25.26-112s51.46,80,25.26,112Z" opacity="0.2"/><path d="M152,192h56v12a28,28,0,0,1-56,0Z" fill="none" stroke="currentColor" stroke-linecap="round" stroke-linejoin="round" stroke-width="16"/><path d="M48,168h56v12a28,28,0,0,1-56,0Z" fill="none" stroke="currentColor" stroke-linecap="round" stroke-linejoin="round" stroke-width="16"/><path d="M50.74,136C24.54,104,51.48,24,76,24s51.46,80,25.26,112Z" fill="none" stroke="currentColor" stroke-linecap="round" stroke-linejoin="round" stroke-width="16"/><path d="M154.74,160c-26.2-32,.74-112,25.26-112s51.46,80,25.26,112Z" fill="none" stroke="currentColor" stroke-linecap="round" stroke-linejoin="round" stroke-width="16"/></svg>