<svg xmlns="http://www.w3.org/2000/svg" viewBox="0 0 256 256"><rect width="256" height="256" fill="none"/><path d="M230.1,108.76,198.25,90.62c-.64-1.16-1.31-2.29-2-3.41l-.12-36A104.61,104.61,0,0,0,162,32L130,49.89c-1.34,0-2.69,0-4,0L94,32A104.58,104.58,0,0,0,59.89,51.25l-.16,36c-.7,1.12-1.37,2.26-2,3.41l-31.84,18.1a99.15,99.15,0,0,0,0,38.46l31.85,18.14c.64,1.16,1.31,2.29,2,3.41l.12,36A104.61,104.61,0,0,0,94,224l32-17.87c1.34,0,2.69,0,4,0L162,224a104.58,104.58,0,0,0,34.08-19.25l.16-36c.7-1.12,1.37-2.26,2-3.41l31.84-18.1A99.15,99.15,0,0,0,230.1,108.76ZM128,168a40,40,0,1,1,40-40A40,40,0,0,1,128,168Z" opacity="0.2"/><circle cx="128" cy="128" r="40" fill="none" stroke="currentColor" stroke-linecap="round" stroke-linejoin="round" stroke-width="16"/><path d="M130.05,206.11c-1.34,0-2.69,0-4,0L94,224a104.61,104.61,0,0,1-34.11-19.2l-.12-36c-.71-1.12-1.38-2.25-2-3.41L25.9,147.24a99.15,99.15,0,0,1,0-38.46l31.84-18.1c.65-1.15,1.32-2.29,2-3.41l.16-36A104.58,104.58,0,0,1,94,32l32,17.89c1.34,0,2.69,0,4,0L162,32a104.61,104.61,0,0,1,34.11,19.2l.12,36c.71,1.12,1.38,2.25,2,3.41l31.85,18.14a99.15,99.15,0,0,1,0,38.46l-31.84,18.1c-.65,1.15-1.32,2.29-2,3.41l-.16,36A104.58,104.58,0,0,1,162,224Z" fill="none" stroke="currentColor" stroke-linecap="round" stroke-linejoin="round" stroke-width="16"/></svg>