<svg xmlns="http://www.w3.org/2000/svg" viewBox="0 0 256 256"><rect width="256" height="256" fill="none"/><path d="M128,128V24a64,64,0,0,1,50,104Z" opacity="0.2"/><path d="M128,128V232A64,64,0,0,1,78,128Z" opacity="0.2"/><path d="M128,128V24a64,64,0,0,1,50,104" fill="none" stroke="currentColor" stroke-linecap="round" stroke-linejoin="round" stroke-width="16"/><path d="M128,128H24A64,64,0,0,1,128,78" fill="none" stroke="currentColor" stroke-linecap="round" stroke-linejoin="round" stroke-width="16"/><path d="M128,128V232A64,64,0,0,1,78,128" fill="none" stroke="currentColor" stroke-linecap="round" stroke-linejoin="round" stroke-width="16"/><path d="M128,128H232a64,64,0,0,1-104,50" fill="none" stroke="currentColor" stroke-linecap="round" stroke-linejoin="round" stroke-width="16"/></svg>