<svg xmlns="http://www.w3.org/2000/svg" viewBox="0 0 256 256"><rect width="256" height="256" fill="none"/><path d="M97.66,114.34,147.31,164h0L173,138.34a8,8,0,0,1,11.31,0L224,178.06V56a8,8,0,0,0-8-8H40a8,8,0,0,0-8,8V168.69l54.34-54.35A8,8,0,0,1,97.66,114.34Z" opacity="0.2"/><rect x="32" y="48" width="192" height="160" rx="8" fill="none" stroke="currentColor" stroke-linecap="round" stroke-linejoin="round" stroke-width="16"/><circle cx="156" cy="100" r="12"/><path d="M147.31,164,173,138.34a8,8,0,0,1,11.31,0L224,178.06" fill="none" stroke="currentColor" stroke-linecap="round" stroke-linejoin="round" stroke-width="16"/><path d="M32,168.69l54.34-54.35a8,8,0,0,1,11.32,0L191.31,208" fill="none" stroke="currentColor" stroke-linecap="round" stroke-linejoin="round" stroke-width="16"/></svg>