<svg xmlns="http://www.w3.org/2000/svg" viewBox="0 0 256 256"><rect width="256" height="256" fill="none"/><path d="M176,211.16a96,96,0,1,0-96,0h0V176a8,8,0,0,1,8-8h8V144a8,8,0,0,1,8-8h4.16l12-57.63c1.77-8.49,13.89-8.49,15.66,0l12,57.63H152a8,8,0,0,1,8,8v24h8a8,8,0,0,1,8,8v35.16Z" opacity="0.2"/><circle cx="128" cy="128" r="96" fill="none" stroke="currentColor" stroke-linecap="round" stroke-linejoin="round" stroke-width="16"/><path d="M176,211.16V176a8,8,0,0,0-8-8H88a8,8,0,0,0-8,8v35.16" fill="none" stroke="currentColor" stroke-linecap="round" stroke-linejoin="round" stroke-width="16"/><path d="M96,168V144a8,8,0,0,1,8-8h48a8,8,0,0,1,8,8v24" fill="none" stroke="currentColor" stroke-linecap="round" stroke-linejoin="round" stroke-width="16"/><path d="M147.84,136l-12-57.63c-1.77-8.49-13.89-8.49-15.66,0l-12,57.63" fill="none" stroke="currentColor" stroke-linecap="round" stroke-linejoin="round" stroke-width="16"/></svg>