<svg xmlns="http://www.w3.org/2000/svg" viewBox="0 0 256 256"><rect width="256" height="256" fill="none"/><path d="M225.94,111.83c17.29,17.29,18.63,42.29,4,61.12a8,8,0,0,1-9.26,2.47L171.58,158a8,8,0,0,1-4.86-5.8l-6.21-29.74a7.94,7.94,0,0,0-5.14-5.9,84.39,84.39,0,0,0-55.1.13,7.93,7.93,0,0,0-5.12,6l-5.9,29.51A8,8,0,0,1,84.38,158L35.29,175.42A8,8,0,0,1,26,173c-14.6-18.83-13.26-43.83,4-61.12C83.17,58.72,172.83,58.72,225.94,111.83Z" opacity="0.2"/><line x1="48" y1="40" x2="208" y2="216" fill="none" stroke="currentColor" stroke-linecap="round" stroke-linejoin="round" stroke-width="16"/><path d="M120.51,72.19c38.15-2,77,11.23,105.43,39.64,17.29,17.29,18.63,42.29,4,61.12a8,8,0,0,1-9.26,2.47l-9.37-3.32" fill="none" stroke="currentColor" stroke-linecap="round" stroke-linejoin="round" stroke-width="16"/><path d="M114.45,113.09a83.51,83.51,0,0,0-14.18,3.6,7.93,7.93,0,0,0-5.12,6l-5.9,29.51A8,8,0,0,1,84.38,158L35.29,175.42A8,8,0,0,1,26,173c-14.6-18.83-13.26-43.83,4-61.12A135.14,135.14,0,0,1,83.53,79.08" fill="none" stroke="currentColor" stroke-linecap="round" stroke-linejoin="round" stroke-width="16"/></svg>