<svg xmlns="http://www.w3.org/2000/svg" viewBox="0 0 256 256"><rect width="256" height="256" fill="none"/><path d="M64,216a8,8,0,0,1-8-8V165.31a28,28,0,1,1,0-50.62V72a8,8,0,0,1,8-8h46.69a28,28,0,1,1,50.61,0H208a8,8,0,0,1,8,8v42.69a28,28,0,1,0,0,50.62V208a8,8,0,0,1-8,8Z" opacity="0.2"/><path d="M64,216a8,8,0,0,1-8-8V165.31a28,28,0,1,1,0-50.62V72a8,8,0,0,1,8-8h46.69a28,28,0,1,1,50.61,0H208a8,8,0,0,1,8,8v42.69a28,28,0,1,0,0,50.62V208a8,8,0,0,1-8,8Z" fill="none" stroke="currentColor" stroke-linecap="round" stroke-linejoin="round" stroke-width="16"/></svg>