<svg xmlns="http://www.w3.org/2000/svg" viewBox="0 0 256 256"><rect width="256" height="256" fill="none"/><path d="M200,47.88V208.12a8,8,0,0,1-12.19,6.65L59.7,134.65a7.83,7.83,0,0,1,0-13.3L187.81,41.23A8,8,0,0,1,200,47.88Z" opacity="0.2"/><line x1="56" y1="40" x2="56" y2="216" fill="none" stroke="currentColor" stroke-linecap="round" stroke-linejoin="round" stroke-width="16"/><path d="M200,47.88V208.12a8,8,0,0,1-12.19,6.65L59.7,134.65a7.83,7.83,0,0,1,0-13.3L187.81,41.23A8,8,0,0,1,200,47.88Z" fill="none" stroke="currentColor" stroke-linecap="round" stroke-linejoin="round" stroke-width="16"/></svg>