<svg xmlns="http://www.w3.org/2000/svg" viewBox="0 0 256 256"><rect width="256" height="256" fill="none"/><path d="M80.84,170.47l-51.66-19a7.92,7.92,0,0,1,0-14.86l51.66-19a7.88,7.88,0,0,0,4.69-4.69l19-51.66a7.92,7.92,0,0,1,14.86,0l19,51.66a7.88,7.88,0,0,0,4.69,4.69l51.66,19a7.92,7.92,0,0,1,0,14.86l-51.66,19a7.88,7.88,0,0,0-4.69,4.69l-19,51.66a7.92,7.92,0,0,1-14.86,0l-19-51.66A7.88,7.88,0,0,0,80.84,170.47Z" opacity="0.2"/><path d="M80.84,170.47l-51.66-19a7.92,7.92,0,0,1,0-14.86l51.66-19a7.88,7.88,0,0,0,4.69-4.69l19-51.66a7.92,7.92,0,0,1,14.86,0l19,51.66a7.88,7.88,0,0,0,4.69,4.69l51.66,19a7.92,7.92,0,0,1,0,14.86l-51.66,19a7.88,7.88,0,0,0-4.69,4.69l-19,51.66a7.92,7.92,0,0,1-14.86,0l-19-51.66A7.88,7.88,0,0,0,80.84,170.47Z" fill="none" stroke="currentColor" stroke-linecap="round" stroke-linejoin="round" stroke-width="16"/><line x1="176" y1="16" x2="176" y2="64" fill="none" stroke="currentColor" stroke-linecap="round" stroke-linejoin="round" stroke-width="16"/><line x1="224" y1="72" x2="224" y2="104" fill="none" stroke="currentColor" stroke-linecap="round" stroke-linejoin="round" stroke-width="16"/><line x1="152" y1="40" x2="200" y2="40" fill="none" stroke="currentColor" stroke-linecap="round" stroke-linejoin="round" stroke-width="16"/><line x1="208" y1="88" x2="240" y2="88" fill="none" stroke="currentColor" stroke-linecap="round" stroke-linejoin="round" stroke-width="16"/></svg>