<svg xmlns="http://www.w3.org/2000/svg" viewBox="0 0 256 256"><rect width="256" height="256" fill="none"/><circle cx="200" cy="152" r="32" opacity="0.2"/><circle cx="200" cy="152" r="12"/><circle cx="200" cy="152" r="32" fill="none" stroke="currentColor" stroke-linecap="round" stroke-linejoin="round" stroke-width="16"/><path d="M96,136v48a40,40,0,0,0,40,40h24a40,40,0,0,0,40-40h0" fill="none" stroke="currentColor" stroke-linecap="round" stroke-linejoin="round" stroke-width="16"/><path d="M128,32h16a8,8,0,0,1,8,8V79.17c0,30.77-24.48,56.43-55.26,56.83A56,56,0,0,1,40,80V40a8,8,0,0,1,8-8H64" fill="none" stroke="currentColor" stroke-linecap="round" stroke-linejoin="round" stroke-width="16"/></svg>