<svg xmlns="http://www.w3.org/2000/svg" viewBox="0 0 256 256"><rect width="256" height="256" fill="none"/><path d="M160,138V48a32,32,0,0,0-64,0v90a56,56,0,1,0,64,0Zm-32,70a24,24,0,1,1,24-24A24,24,0,0,1,128,208Z" opacity="0.2"/><line x1="128" y1="160" x2="128" y2="88" fill="none" stroke="currentColor" stroke-linecap="round" stroke-linejoin="round" stroke-width="16"/><circle cx="128" cy="184" r="24" fill="none" stroke="currentColor" stroke-linecap="round" stroke-linejoin="round" stroke-width="16"/><path d="M96,48a32,32,0,0,1,64,0v90a56,56,0,1,1-64,0Z" fill="none" stroke="currentColor" stroke-linecap="round" stroke-linejoin="round" stroke-width="16"/></svg>