<svg xmlns="http://www.w3.org/2000/svg" viewBox="0 0 256 256"><rect width="256" height="256" fill="none"/><path d="M96,56H224a8,8,0,0,1,8,8V88.81a8,8,0,0,1-6.4,7.83,32,32,0,0,0,0,62.72,8,8,0,0,1,6.4,7.83V192a8,8,0,0,1-8,8H96Z" opacity="0.2"/><line x1="96" y1="56" x2="96" y2="200" fill="none" stroke="currentColor" stroke-linecap="round" stroke-linejoin="round" stroke-width="16"/><path d="M24,167.19a8,8,0,0,1,6.4-7.83,32,32,0,0,0,0-62.72A8,8,0,0,1,24,88.81V64a8,8,0,0,1,8-8H224a8,8,0,0,1,8,8V88.81a8,8,0,0,1-6.4,7.83,32,32,0,0,0,0,62.72,8,8,0,0,1,6.4,7.83V192a8,8,0,0,1-8,8H32a8,8,0,0,1-8-8Z" fill="none" stroke="currentColor" stroke-linecap="round" stroke-linejoin="round" stroke-width="16"/></svg>