<?xml version="1.0" encoding="UTF-8"?>
<svg xmlns="http://www.w3.org/2000/svg" xmlns:xlink="http://www.w3.org/1999/xlink" width="512px" height="512px" viewBox="0 0 512 512" version="1.1">
<defs>
<linearGradient id="linear0" gradientUnits="userSpaceOnUse" x1="128.5" y1="0" x2="128.5" y2="257" gradientTransform="matrix(1.992218,0,0,1.992218,0,0)">
<stop offset="0" style="stop-color:rgb(48.235294%,79.607843%,83.137255%);stop-opacity:1;"/>
<stop offset="1" style="stop-color:rgb(16.078431%,77.647059%,71.764706%);stop-opacity:1;"/>
</linearGradient>
</defs>
<g id="surface1">
<path style=" stroke:none;fill-rule:nonzero;fill:url(#linear0);" d="M 256 0 C 397.386719 0 512 114.613281 512 256 C 512 397.386719 397.386719 512 256 512 C 114.613281 512 0 397.386719 0 256 C 0 114.613281 114.613281 0 256 0 Z M 256 0 "/>
<path style=" stroke:none;fill-rule:nonzero;fill:rgb(100%,100%,100%);fill-opacity:1;" d="M 138.574219 266.925781 L 313.078125 93.625 C 316.335938 90.386719 321.582031 94.328125 319.382812 98.363281 L 254.433594 217.402344 C 252.984375 220.054688 254.90625 223.292969 257.929688 223.292969 L 370.171875 223.292969 C 373.789062 223.292969 375.53125 227.722656 372.890625 230.191406 L 176.203125 413.757812 C 172.675781 417.050781 167.425781 412.410156 170.257812 408.507812 L 263.363281 280.0625 C 265.273438 277.429688 263.394531 273.738281 260.140625 273.738281 L 141.382812 273.738281 C 137.824219 273.738281 136.050781 269.433594 138.574219 266.925781 Z M 138.574219 266.925781 "/>
</g>
</svg>
