<svg width="144" height="144" viewBox="0 0 144 144" fill="none" xmlns="http://www.w3.org/2000/svg">
<path fill-rule="evenodd" clip-rule="evenodd" d="M26.985 25.6266C31.4408 29.2467 33.1124 28.9705 41.4797 28.4122L120.361 23.6757C122.034 23.6757 120.643 22.0067 120.085 21.7294L106.985 12.2587C104.474 10.3098 101.13 8.07795 94.7205 8.63626L18.3392 14.2073C15.5536 14.4834 14.9973 15.8763 16.1066 16.9926L26.985 25.6266ZM31.7209 44.01V127.007C31.7209 131.468 33.95 133.137 38.9669 132.861L125.658 127.844C130.677 127.568 131.236 124.5 131.236 120.877V38.4364C131.236 34.8188 129.845 32.868 126.772 33.1464L36.1793 38.4364C32.8359 38.7174 31.7207 40.3898 31.7207 44.01H31.7209ZM117.302 48.4621C117.858 50.9712 117.302 53.4781 114.788 53.7602L110.611 54.5925V115.866C106.985 117.816 103.64 118.93 100.854 118.93C96.392 118.93 95.2746 117.536 91.9326 113.361L64.6106 70.4687V111.968L73.2564 113.919C73.2564 113.919 73.2564 118.93 66.281 118.93L47.0515 120.045C46.4929 118.93 47.0515 116.147 49.0021 115.59L54.0201 114.199V59.3287L47.0529 58.7704C46.4941 56.2612 47.8858 52.6433 51.7911 52.3626L72.4199 50.9721L100.854 94.4225V55.985L93.6041 55.1531C93.0478 52.0856 95.2746 49.8583 98.0624 49.5821L117.302 48.4621ZM11.9261 6.68767L91.3748 0.836816C101.131 5.44919e-05 103.642 0.56062 109.774 5.01499L135.135 22.8401C139.319 25.9053 140.714 26.7398 140.714 30.0812V127.844C140.714 133.971 138.482 137.595 130.679 138.149L38.4148 143.721C32.5569 144 29.769 143.165 26.7012 139.264L8.025 115.032C4.6788 110.572 3.28711 107.235 3.28711 103.331V16.4323C3.28711 11.4219 5.51979 7.24232 11.9261 6.68767V6.68767Z" fill="white"/>
</svg>
