<?xml version="1.0" encoding="UTF-8" standalone="no"?>
<!DOCTYPE svg PUBLIC "-//W3C//DTD SVG 1.1//EN" "http://www.w3.org/Graphics/SVG/1.1/DTD/svg11.dtd">
<svg width="100%" height="100%" viewBox="0 0 28 28" version="1.1" xmlns="http://www.w3.org/2000/svg" xmlns:xlink="http://www.w3.org/1999/xlink" xml:space="preserve" xmlns:serif="http://www.serif.com/" style="fill-rule:evenodd;clip-rule:evenodd;stroke-linejoin:round;stroke-miterlimit:2;">
    <g transform="matrix(1.36242,0,0,1.36242,-5.06769,-4.62082)">
        <path d="M9.175,21.881L18.816,21.881C20.636,21.881 21.629,20.914 21.629,19.104L21.629,10.596C22.455,10.376 22.921,9.673 22.921,8.697L22.921,7.423C22.921,6.228 22.227,5.454 21.023,5.454L6.978,5.454C5.817,5.454 5.07,6.228 5.07,7.423L5.07,8.697C5.07,9.673 5.536,10.367 6.371,10.596L6.371,19.104C6.371,20.914 7.364,21.881 9.175,21.881ZM7.312,9.058C6.907,9.058 6.731,8.873 6.731,8.469L6.731,7.651C6.731,7.247 6.907,7.063 7.312,7.063L20.697,7.063C21.093,7.063 21.26,7.247 21.26,7.651L21.26,8.469C21.26,8.873 21.093,9.058 20.697,9.058L7.312,9.058ZM9.263,20.202C8.524,20.202 8.12,19.807 8.12,19.06L8.12,10.666L19.871,10.666L19.871,19.06C19.871,19.807 19.467,20.202 18.737,20.202L9.263,20.202ZM11.17,14.261L16.83,14.261C17.252,14.261 17.551,13.953 17.551,13.523L17.551,13.241C17.551,12.81 17.252,12.521 16.83,12.521L11.17,12.521C10.748,12.521 10.449,12.81 10.449,13.241L10.449,13.523C10.449,13.953 10.748,14.261 11.17,14.261Z" style="fill:rgb(28,28,30);fill-rule:nonzero;"/>
    </g>
</svg>
