<?xml version="1.0" encoding="UTF-8" standalone="no"?>
<!DOCTYPE svg PUBLIC "-//W3C//DTD SVG 1.1//EN" "http://www.w3.org/Graphics/SVG/1.1/DTD/svg11.dtd">
<svg width="100%" height="100%" viewBox="0 0 28 28" version="1.1" xmlns="http://www.w3.org/2000/svg" xmlns:xlink="http://www.w3.org/1999/xlink" xml:space="preserve" xmlns:serif="http://www.serif.com/" style="fill-rule:evenodd;clip-rule:evenodd;stroke-linejoin:round;stroke-miterlimit:2;">
    <g transform="matrix(1.2825,0,0,1.2825,-3.95496,-3.51763)">
        <path d="M9.315,23.182L18.685,23.182C20.574,23.182 21.55,22.189 21.55,20.29L21.55,12.31C21.55,11.079 21.392,10.517 20.627,9.734L16.03,5.067C15.283,4.312 14.668,4.136 13.56,4.136L9.315,4.136C7.435,4.136 6.45,5.129 6.45,7.036L6.45,20.29C6.45,22.189 7.435,23.182 9.315,23.182ZM9.465,21.424C8.621,21.424 8.199,20.984 8.199,20.176L8.199,7.142C8.199,6.342 8.621,5.894 9.474,5.894L13.2,5.894L13.2,10.675C13.2,11.949 13.824,12.565 15.09,12.565L19.801,12.565L19.801,20.176C19.801,20.984 19.379,21.424 18.526,21.424L9.465,21.424ZM15.257,11.026C14.888,11.026 14.73,10.868 14.73,10.508L14.73,6.122L19.564,11.026L15.257,11.026Z" style="fill:rgb(28,28,30);fill-rule:nonzero;"/>
    </g>
</svg>
