<?xml version="1.0" encoding="UTF-8" standalone="no"?>
<!DOCTYPE svg PUBLIC "-//W3C//DTD SVG 1.1//EN" "http://www.w3.org/Graphics/SVG/1.1/DTD/svg11.dtd">
<svg width="100%" height="100%" viewBox="0 0 28 28" version="1.1" xmlns="http://www.w3.org/2000/svg" xmlns:xlink="http://www.w3.org/1999/xlink" xml:space="preserve" xmlns:serif="http://www.serif.com/" style="fill-rule:evenodd;clip-rule:evenodd;stroke-linejoin:round;stroke-miterlimit:2;">
    <g transform="matrix(1.32381,0,0,1.32381,-5.12635,-4.08121)">
        <path d="M7.355,22.373C7.804,22.373 8.173,22.013 8.173,21.556L8.173,16.748C8.419,16.66 9.157,16.397 10.273,16.397C13.473,16.397 15.617,17.996 18.711,17.996C20.065,17.996 20.689,17.829 21.365,17.513C21.998,17.231 22.367,16.713 22.367,15.904L22.367,7.15C22.367,6.57 21.919,6.21 21.321,6.21C20.82,6.21 20.029,6.544 18.623,6.544C15.565,6.544 13.376,4.944 10.186,4.944C8.858,4.944 8.252,5.111 7.54,5.428C6.916,5.718 6.529,6.175 6.529,6.975L6.529,21.556C6.529,22.004 6.907,22.373 7.355,22.373ZM18.676,16.326C15.828,16.326 13.622,14.735 10.309,14.735C9.456,14.735 8.683,14.832 8.217,15.008L8.217,7.203C8.375,6.948 9.025,6.605 10.212,6.605C13.209,6.605 15.415,8.205 18.588,8.205C19.432,8.205 20.144,8.108 20.68,7.959L20.68,15.737C20.53,15.992 19.862,16.326 18.676,16.326Z" style="fill:rgb(28,28,30);fill-rule:nonzero;"/>
    </g>
</svg>
