<?xml version="1.0" encoding="UTF-8" standalone="no"?>
<!DOCTYPE svg PUBLIC "-//W3C//DTD SVG 1.1//EN" "http://www.w3.org/Graphics/SVG/1.1/DTD/svg11.dtd">
<svg width="100%" height="100%" viewBox="0 0 28 28" version="1.1" xmlns="http://www.w3.org/2000/svg" xmlns:xlink="http://www.w3.org/1999/xlink" xml:space="preserve" xmlns:serif="http://www.serif.com/" style="fill-rule:evenodd;clip-rule:evenodd;stroke-linejoin:round;stroke-miterlimit:2;">
    <g transform="matrix(1.23355,0,0,1.23355,-3.26409,-2.7349)">
        <path d="M6.811,21.767L21.392,21.767C23.088,21.767 24.072,20.782 24.072,18.901L24.072,9.857C24.072,7.977 23.079,6.992 21.181,6.992L13.033,6.992C12.4,6.992 12.023,6.852 11.53,6.447L11.038,6.043C10.414,5.533 9.957,5.366 9.034,5.366L6.547,5.366C4.895,5.366 3.919,6.333 3.919,8.188L3.919,18.901C3.919,20.791 4.912,21.767 6.811,21.767ZM5.668,8.337C5.668,7.537 6.116,7.115 6.898,7.115L8.568,7.115C9.192,7.115 9.562,7.265 10.063,7.669L10.555,8.082C11.17,8.574 11.645,8.75 12.567,8.75L21.066,8.75C21.875,8.75 22.323,9.172 22.323,10.016L22.323,10.534L5.668,10.534L5.668,8.337ZM6.925,20.018C6.116,20.018 5.668,19.596 5.668,18.743L5.668,12.072L22.323,12.072L22.323,18.752C22.323,19.596 21.875,20.018 21.066,20.018L6.925,20.018Z" style="fill:rgb(28,28,30);fill-rule:nonzero;"/>
    </g>
</svg>
