<?xml version="1.0" encoding="UTF-8" standalone="no"?>
<!DOCTYPE svg PUBLIC "-//W3C//DTD SVG 1.1//EN" "http://www.w3.org/Graphics/SVG/1.1/DTD/svg11.dtd">
<svg width="100%" height="100%" viewBox="0 0 28 28" version="1.1" xmlns="http://www.w3.org/2000/svg" xmlns:xlink="http://www.w3.org/1999/xlink" xml:space="preserve" xmlns:serif="http://www.serif.com/" style="fill-rule:evenodd;clip-rule:evenodd;stroke-linejoin:round;stroke-miterlimit:2;">
    <g transform="matrix(1.22197,0,0,1.22197,-3.10756,-3.03376)">
        <path d="M6.477,21.354L21.515,21.354C23.422,21.354 24.415,20.369 24.415,18.488L24.415,13.276C24.415,12.301 24.283,11.852 23.817,11.273L20.935,7.722C19.854,6.395 19.37,5.981 17.788,5.981L10.212,5.981C8.621,5.981 8.146,6.395 7.065,7.722L4.174,11.273C3.717,11.852 3.585,12.301 3.585,13.276L3.585,18.488C3.585,20.369 4.578,21.354 6.477,21.354ZM14,15.219C12.814,15.219 12.075,14.208 12.075,13.259L12.075,13.224C12.075,12.881 11.873,12.556 11.407,12.556L5.765,12.556C5.475,12.556 5.413,12.31 5.563,12.125L8.735,8.144C9.131,7.651 9.579,7.44 10.168,7.44L17.832,7.44C18.421,7.44 18.869,7.651 19.256,8.144L22.438,12.125C22.578,12.31 22.525,12.556 22.235,12.556L16.584,12.556C16.127,12.556 15.916,12.881 15.916,13.224L15.916,13.259C15.916,14.208 15.178,15.219 14,15.219ZM6.564,19.596C5.756,19.596 5.316,19.174 5.316,18.33L5.316,14.102L10.581,14.102C10.862,15.667 12.225,16.836 14,16.836C15.775,16.836 17.138,15.667 17.419,14.102L22.684,14.102L22.684,18.33C22.684,19.174 22.235,19.596 21.427,19.596L6.564,19.596Z" style="fill:rgb(28,28,30);fill-rule:nonzero;"/>
    </g>
</svg>
