<?xml version="1.0" standalone="no"?><!DOCTYPE svg PUBLIC "-//W3C//DTD SVG 1.1//EN" "http://www.w3.org/Graphics/SVG/1.1/DTD/svg11.dtd"><svg class="icon" width="128px" height="128.00px" viewBox="0 0 1024 1024" version="1.1" xmlns="http://www.w3.org/2000/svg"><path d="M942.666249 717.668023c-36.670631-26.374544-88.792071-47.994992-154.908711-64.233699a29.379238 29.379238 0 1 0-14.021909 57.009077c108.556286 26.708399 173.364215 68.907668 173.364215 112.98988 0 36.563798-46.552739 72.79374-127.719562 99.40866-82.061555 26.908712-194.103286 42.346166-307.373605 42.346165-113.510694 0-225.685968-15.437454-307.627334-42.346165-81.019927-26.534794-127.479186-62.764737-127.479187-99.355243 0-43.401148 64.46072-85.466875 172.416067-112.535837a29.379238 29.379238 0 1 0-14.288993-56.995723c-65.742723 16.492436-117.516954 38.166302-154.000626 64.434012C29.052061 755.847679 18.14168 796.230777 18.14168 823.486698c0 45.684716 29.125509 109.691393 167.915701 155.242566 87.656964 28.764945 206.455921 45.270736 325.949296 45.270736 119.239645 0 237.945123-16.50579 325.682212-45.270736 139.00386-45.577882 168.169431-109.504434 168.169431-155.242566 0-27.576421-10.963798-68.226604-63.192071-105.818675z" fill="#787577" /><path d="M474.855295 871.628586l0.961502 1.148461a48.075117 48.075117 0 0 0 36.056338 16.532499A44.843401 44.843401 0 0 0 548.303391 871.32144c19.790923-23.890662 88.271257-108.088889 154.815232-207.404069C799.362337 520.226187 848.198644 409.973918 848.198644 336.272092 848.198644 150.902452 697.135942 0 511.432447 0S174.666249 150.902452 174.666249 336.272092c0 73.701826 48.863015 184.03422 145.280334 327.792175C386.71758 763.860198 455.398226 848.151904 474.855295 871.628586zM511.432447 58.758477c153.306208 0 278.00772 124.487846 278.00772 277.513615 0 116.702347-170.733438 356.183203-278.00772 487.348148-107.274283-131.151591-278.00772-370.605738-278.007721-487.348148C233.424726 183.246322 358.139593 58.758477 511.432447 58.758477z" fill="#787577" /><path d="M681.164319 322.664163c0-93.011998-75.87856-168.690245-169.157642-168.690245S342.835681 229.692227 342.835681 322.664163a168.930621 168.930621 0 0 0 169.170996 168.676891c93.279082 0 169.157642-75.664893 169.157642-168.676891z m-247.252999 77.708085a107.982055 107.982055 0 0 1-32.317162-77.708085c0-60.61471 49.530725-109.931768 110.412519-109.931769s110.399165 49.317058 110.399165 109.931769-49.517371 109.918414-110.399165 109.918414a109.330829 109.330829 0 0 1-77.908398-32.050078z" fill="#787577" /></svg>