<svg width="500" height="500" viewBox="0 0 500 500" fill="none" xmlns="http://www.w3.org/2000/svg">
<path d="M77.9817 222C70.2408 222 63.6468 224.695 58.1995 230.2C52.695 235.647 50 242.241 50 249.982C50 257.665 52.695 264.259 58.1995 269.764C63.6468 275.211 70.2408 277.963 77.9817 277.963C85.6651 277.963 92.2592 275.211 97.7638 269.764C103.211 264.259 105.963 257.665 105.963 249.982C105.963 242.241 103.211 235.647 97.7638 230.2C92.2592 224.695 85.6651 222 77.9817 222ZM62.6147 230.716H67.5459V254.626C67.5459 258.353 68.2913 261.106 69.8968 262.94C71.5596 264.89 74.2546 265.865 77.9817 265.865C81.6514 265.865 84.3463 264.89 86.0665 262.998C87.672 261.163 88.4748 258.353 88.4748 254.626V230.716H93.406V254.511C93.406 259.615 92.0872 263.456 89.5642 266.094C86.9266 268.846 83.0849 270.222 77.9817 270.222C72.8784 270.222 69.0367 268.846 66.4564 266.094C63.8761 263.456 62.6147 259.615 62.6147 254.511V230.716ZM135.321 222C127.58 222 120.986 224.695 115.539 230.2C110.034 235.647 107.339 242.241 107.339 249.982C107.339 257.665 110.034 264.259 115.539 269.764C120.986 275.211 127.58 277.963 135.321 277.963C143.005 277.963 149.599 275.211 155.103 269.764C160.55 264.259 163.303 257.665 163.303 249.982C163.303 242.241 160.55 235.647 155.103 230.2C149.599 224.695 143.005 222 135.321 222ZM120.011 230.716H125.516L145.585 261.736H145.814V230.716H150.745V269.477H145.356L125.115 238.227H124.885V269.477H120.011V230.716ZM192.661 222C184.92 222 178.326 224.695 172.878 230.2C167.374 235.647 164.679 242.241 164.679 249.982C164.679 257.665 167.374 264.259 172.878 269.764C178.326 275.211 184.92 277.963 192.661 277.963C200.344 277.963 206.938 275.211 212.443 269.764C217.89 264.259 220.642 257.665 220.642 249.982C220.642 242.241 217.89 235.647 212.443 230.2C206.938 224.695 200.344 222 192.661 222ZM190.195 230.716H195.126V269.477H190.195V230.716ZM250 222C242.259 222 235.665 224.695 230.218 230.2C224.713 235.647 222.018 242.241 222.018 249.982C222.018 257.665 224.713 264.259 230.218 269.764C235.665 275.211 242.259 277.963 250 277.963C257.684 277.963 264.278 275.211 269.782 269.764C275.229 264.259 277.982 257.665 277.982 249.982C277.982 242.241 275.229 235.647 269.782 230.2C264.278 224.695 257.684 222 250 222ZM250.917 229.97C255.218 229.97 258.888 231.117 261.869 233.468C264.851 235.819 266.571 238.972 267.145 242.986H262.385C261.812 240.234 260.493 238.055 258.372 236.564C256.307 235.073 253.842 234.385 250.86 234.385C246.502 234.385 243.119 235.933 240.711 239.03C238.475 241.839 237.385 245.624 237.385 250.326C237.385 255.028 238.417 258.755 240.539 261.45C242.833 264.317 246.216 265.807 250.745 265.807C253.784 265.807 256.365 265.005 258.429 263.399C260.665 261.679 262.156 259.156 262.901 255.83H267.718C266.8 260.475 264.736 264.087 261.525 266.667C258.486 269.018 254.874 270.222 250.745 270.222C244.667 270.222 240.023 268.216 236.812 264.202C233.945 260.647 232.511 256.06 232.511 250.326C232.511 244.592 233.945 239.833 236.927 236.163C240.252 232.034 244.897 229.97 250.917 229.97ZM307.339 222C299.599 222 293.005 224.695 287.557 230.2C282.053 235.647 279.358 242.241 279.358 249.982C279.358 257.665 282.053 264.259 287.557 269.764C293.005 275.211 299.599 277.963 307.339 277.963C315.023 277.963 321.617 275.211 327.122 269.764C332.569 264.259 335.321 257.665 335.321 249.982C335.321 242.241 332.569 235.647 327.122 230.2C321.617 224.695 315.023 222 307.339 222ZM307.339 229.97C313.188 229.97 317.833 231.92 321.216 235.876C324.427 239.546 326.032 244.305 326.032 250.211C326.032 256.06 324.427 260.761 321.216 264.431C317.775 268.273 313.188 270.222 307.339 270.222C301.491 270.222 296.846 268.273 293.521 264.374C290.31 260.704 288.762 256.002 288.762 250.211C288.762 244.362 290.31 239.546 293.521 235.876C296.904 231.92 301.491 229.97 307.339 229.97ZM307.339 234.385C302.982 234.385 299.656 235.819 297.248 238.8C294.839 241.667 293.693 245.509 293.693 250.211C293.693 254.913 294.839 258.64 297.19 261.45C299.599 264.317 302.982 265.807 307.339 265.807C311.697 265.807 315.138 264.374 317.546 261.564C319.897 258.755 321.101 254.97 321.101 250.211C321.101 245.395 319.897 241.553 317.546 238.743C315.138 235.819 311.697 234.385 307.339 234.385ZM364.679 222C356.938 222 350.344 224.695 344.897 230.2C339.392 235.647 336.697 242.241 336.697 249.982C336.697 257.665 339.392 264.259 344.897 269.764C350.344 275.211 356.938 277.963 364.679 277.963C372.362 277.963 378.956 275.211 384.461 269.764C389.908 264.259 392.661 257.665 392.661 249.982C392.661 242.241 389.908 235.647 384.461 230.2C378.956 224.695 372.362 222 364.679 222ZM351.72 230.716H365.826C371.961 230.716 376.606 232.493 379.817 236.106C382.684 239.431 384.174 244.076 384.174 250.096C384.174 256.06 382.569 260.761 379.473 264.145C376.204 267.7 371.502 269.477 365.367 269.477H351.72V230.716ZM356.651 235.073V265.119H364.622C369.553 265.119 373.28 263.8 375.688 261.278C378.096 258.755 379.301 255.028 379.301 250.096C379.301 245.05 378.211 241.323 376.032 238.915C373.739 236.335 370.126 235.073 365.08 235.073H356.651ZM422.018 222C414.278 222 407.684 224.695 402.236 230.2C396.732 235.647 394.037 242.241 394.037 249.982C394.037 257.665 396.732 264.259 402.236 269.764C407.684 275.211 414.278 277.963 422.018 277.963C429.702 277.963 436.296 275.211 441.8 269.764C447.248 264.259 450 257.665 450 249.982C450 242.241 447.248 235.647 441.8 230.2C436.296 224.695 429.702 222 422.018 222ZM407.97 230.716H435.722V235.073H412.901V247.344H434.461V251.645H412.901V265.119H436.64V269.477H407.97V230.716Z" fill="black"/>
</svg>
