<svg width="500" height="500" viewBox="0 0 500 500" fill="none" xmlns="http://www.w3.org/2000/svg">
<path d="M126.795 276.165L125.472 273.825C122.624 275.554 119.878 276.266 118.657 276.266C116.521 276.266 116.318 274.232 116.318 271.893V234.563C116.318 224.697 116.623 218.798 126.795 215.543L125.981 213L99.1282 222.561C99.4333 223.883 99.8402 233.241 99.8402 242.497V269.553L84.7864 276.165C80.0058 270.774 72.6824 264.874 65.9692 262.84C75.7338 255.517 80.0058 250.431 80.0058 240.463V227.749C80.0058 220.527 76.5475 215.136 70.2412 213H67.6983L50.712 223.273L52.0343 225.511C54.3737 224.189 57.5269 222.561 59.968 222.561C62.0023 222.561 63.528 223.782 63.528 228.155V250.126C63.528 264.874 55.696 268.129 50 270.774V272.3C55.3909 274.029 66.7829 281.149 71.5635 286.845L100.247 274.029C101.162 278.606 103.502 282.98 108.181 285.726H110.927L126.795 276.165ZM197.522 275.148L195.59 272.91C192.436 275.453 191.826 275.86 190.402 275.86C188.775 275.86 187.656 273.825 187.656 268.943V251.245C187.656 249.516 187.656 245.956 191.114 245.447V242.904C186.842 242.701 182.265 239.039 179.722 235.987H177.281L159.684 245.447C159.379 241.582 155.514 238.022 151.446 235.987H149.004L136.086 244.837L137.307 246.973C138.731 245.956 140.664 245.447 141.884 245.447C144.427 245.447 146.156 247.888 146.156 252.465V268.129C146.156 273.317 145.241 274.944 140.765 275.453V277.996C145.444 278.402 151.14 280.132 152.056 286.743H154.497C155.514 280.233 160.6 278.402 165.075 277.996V275.453C160.702 275.046 160.295 273.622 160.295 268.129V249.312L168.025 245.142L173.518 250.431V272.3C173.518 280.233 175.348 283.488 181.96 286.743H184.401L197.522 275.148ZM230.201 218.289C230.201 215.746 227.455 213.407 223.081 213.407C218.708 213.407 215.86 215.645 215.86 218.289C215.86 220.018 219.826 227.749 223.081 227.749C226.133 227.749 230.201 219.917 230.201 218.289ZM241.39 274.029L239.457 271.791C236.304 274.334 234.168 275.86 232.744 275.86C230.913 275.86 230.303 273.215 230.303 267.214V249.109C230.303 245.956 233.66 245.04 235.999 244.735V242.192C232.846 241.887 228.574 239.039 223.793 235.987H221.352L206.4 246.871L207.926 249.109C210.367 247.481 211.588 246.871 212.808 246.871C214.741 246.871 216.165 248.397 216.165 252.465V271.893C216.165 280.132 217.894 283.386 224.607 286.743H227.048L241.39 274.029ZM288.353 279.521L287.54 276.978C283.471 278.606 282.047 278.911 280.216 278.911C271.164 278.911 266.18 268.638 266.18 259.178C266.18 253.686 266.383 249.109 267.298 246.769C267.502 246.159 268.112 245.244 268.824 244.735L277.165 253.889L287.743 245.142L279.911 235.987H277.47L269.333 239.853C256.517 245.956 252.041 251.652 252.041 264.264C252.041 272.706 257.33 282.064 265.976 286.743H268.417L288.353 279.521ZM344.384 254.296C344.384 246.261 340.011 241.887 330.144 235.987H327.703C313.26 242.294 307.258 245.549 302.885 246.769V272.605C302.885 276.47 300.952 277.69 298.206 277.69V280.233H303.292C308.276 280.233 313.666 283.183 319.769 286.743H322.21C324.55 284.098 326.482 282.268 328.11 280.742C334.213 275.148 344.384 270.367 344.384 264.569V254.296ZM330.246 269.045C330.246 272.605 329.33 273.825 328.313 275.554L317.023 268.943V250.024C317.023 245.854 317.125 245.04 317.735 244.837L319.973 243.82C321.193 244.633 330.246 249.516 330.246 255.415V269.045ZM401.01 250.126C401.01 242.09 395.517 237.513 385.651 231.614C380.667 228.562 370.902 226.935 370.902 221.442C370.902 217.984 375.479 216.662 378.226 216.255V213.712C367.851 213.712 356.764 217.374 356.764 226.325C356.764 234.36 365.715 237.513 372.326 239.954V240.158C368.664 242.497 363.884 244.837 359.51 246.057V245.65V273.113C359.51 276.978 357.578 278.301 354.831 278.301V280.742H360.12C365.41 280.742 370.292 283.285 376.09 286.845H378.531C380.87 284.2 382.904 282.369 384.532 280.844C390.635 275.249 401.01 270.977 401.01 265.281V250.126ZM386.871 268.129C386.871 271.689 386.159 273.012 385.142 274.639L373.648 269.248V248.6C373.648 244.43 373.75 244.226 374.36 244.023C375.886 243.006 377.615 242.294 378.531 241.785C381.379 243.718 386.871 245.65 386.871 252.364V268.129ZM450 277.996L448.779 275.554C446.237 277.182 441.863 278.402 437.693 278.402C433.522 278.402 426.301 273.113 426.301 267.01L449.898 257.856L442.778 235.987H440.337C436.675 236.598 432.2 237.818 428.538 239.242C417.451 243.718 412.162 252.872 412.162 264.671C412.162 271.689 416.027 284.2 428.335 286.743H430.674L450 277.996ZM426.301 263.857V259.178C426.301 252.669 426.402 244.328 430.166 242.396C430.979 243.921 435.251 256.636 435.251 257.856C435.251 258.873 434.438 260.297 432.098 261.518L426.301 263.857Z" fill="black"/>
</svg>
