<svg width="500" height="500" viewBox="0 0 500 500" fill="none" xmlns="http://www.w3.org/2000/svg">
<path d="M113.83 213.36H108.885V265.615C108.885 279.886 93.3771 284.381 81.69 284.381C78.2064 284.381 71.8009 283.595 68.6544 282.134V213.36H50V265.727C50 282.696 67.3059 289.326 81.8024 289.326C96.9731 289.326 113.83 282.808 113.83 265.165V213.36ZM63.7099 280.224C58.4282 275.953 54.9445 273.144 54.9445 265.727V218.304H63.7099V280.224ZM176.113 287.753V254.152C176.113 243.364 169.596 236.06 158.695 236.06C152.739 236.06 147.345 238.757 144.198 243.814H143.973V237.184H127.342V287.753H143.973V259.546C143.973 251.231 148.806 240.892 158.246 240.892C158.695 240.892 159.032 240.892 159.482 241.004V287.753H176.113ZM171.169 282.808H164.426V241.791C169.708 244.039 171.169 249.545 171.169 254.827V282.808ZM139.029 282.808H132.286V242.128H139.029V282.808ZM205.1 227.407V211H188.469V227.407H205.1ZM200.156 222.462H193.413V215.945H200.156V222.462ZM205.1 287.753V237.184H188.469V287.753H205.1ZM200.156 282.808H193.413V242.128H200.156V282.808ZM260.143 269.997C255.985 279.437 251.153 283.932 240.59 283.932C237.78 283.932 235.195 283.145 232.948 281.46V243.477C235.645 241.791 238.454 241.004 241.601 241.004C252.389 241.004 255.198 245.612 259.918 254.489L264.188 252.467C263.627 250.781 263.065 249.095 262.39 247.522C258.907 239.881 250.029 236.06 242.05 236.06C226.43 236.06 216.316 246.736 216.316 262.243C216.316 277.864 226.093 288.877 242.05 288.877C253.85 288.877 260.592 282.471 264.638 271.795L260.143 269.997ZM228.003 279.325C222.834 275.391 221.261 268.424 221.261 262.243C221.261 256.175 222.947 249.433 228.003 245.612V279.325ZM326.729 262.918C326.729 246.848 316.84 236.285 300.658 236.285C284.813 236.285 274.699 246.623 274.699 262.468C274.699 278.426 284.475 289.101 300.658 289.101C316.615 289.101 326.729 278.763 326.729 262.918ZM315.042 246.174C319.874 250.332 321.784 256.737 321.784 262.918C321.784 269.098 319.986 275.054 315.042 279.212V246.174ZM310.097 282.246C307.737 283.707 303.355 284.157 300.658 284.157C297.96 284.157 293.69 283.707 291.33 282.246V243.14C293.69 241.679 297.96 241.229 300.658 241.229C303.355 241.229 307.737 241.679 310.097 243.14V282.246ZM286.386 279.212C281.441 274.942 279.643 268.874 279.643 262.468C279.643 256.4 281.554 250.107 286.386 246.174V279.212ZM390.079 287.753V211H373.447V242.69C369.402 237.296 363.783 236.06 358.277 236.06C343.893 236.06 336.813 249.208 336.813 262.131C336.813 274.605 343.893 288.877 358.052 288.877C364.008 288.877 369.514 287.078 373.223 282.359H373.447V287.753H390.079ZM385.135 282.808H378.392V215.945H385.135V282.808ZM373.447 270.334C373.447 277.302 367.267 283.932 360.187 283.932C358.164 283.932 355.13 283.482 353.445 282.246V242.915C355.243 241.117 357.49 241.004 359.625 241.004C366.48 241.004 373.447 247.185 373.447 254.152V270.334ZM348.5 279.886C343.443 275.841 341.757 268.312 341.757 262.131C341.757 256.175 343.218 248.421 348.5 244.713V279.886ZM450 265.39V257.074C450 244.825 438.762 236.06 427.075 236.06C411.455 236.06 401.341 246.736 401.341 262.243C401.341 277.864 411.118 288.877 427.075 288.877C436.178 288.877 444.156 285.393 448.764 277.189L444.718 274.492C439.999 281.572 435.054 283.932 426.626 283.932C424.041 283.932 420.333 283.37 417.973 282.022V265.39H450ZM445.055 260.445H438.313V244.488C442.358 246.736 445.055 252.13 445.055 256.737V260.445ZM433.368 260.445H417.973V243.364C420.445 242.128 423.929 241.004 426.738 241.004C428.873 241.004 431.57 241.903 433.368 243.14V260.445ZM413.028 279.774C408.084 275.504 406.286 268.536 406.286 262.243C406.286 256.063 408.196 249.208 413.028 245.05V279.774Z" fill="black"/>
</svg>
