<svg width="500" height="500" viewBox="0 0 500 500" fill="none" xmlns="http://www.w3.org/2000/svg">
<path d="M128.658 280.518L127.185 278.138L124.125 279.724C122.878 280.404 121.631 280.744 120.611 280.744C118.004 280.744 115.851 278.591 115.851 273.831V233.482C115.851 222.488 116.191 215.574 128.205 212.174L127.412 209L101.683 218.747C102.59 224.528 102.59 230.875 102.59 239.149V272.017L82.642 281.085C79.0151 277.911 68.8145 270.09 64.2809 268.39C75.955 258.87 79.5819 253.543 79.5819 241.642V224.981C79.5819 221.014 77.2017 211.947 71.1947 209H69.4946L50.9067 219.201L52.4935 222.034C55.4403 219.994 58.7272 218.634 60.7673 218.634C63.3742 218.634 65.4143 220.787 65.4143 225.434V250.823C65.4143 267.144 56.6871 271.564 50 274.511V276.098C56.9138 277.911 68.1345 284.938 72.8948 290.378L102.59 275.984C102.93 280.631 105.083 287.318 110.297 290.378H111.884L128.658 280.518ZM199.508 278.251L197.355 276.324L195.995 277.798C194.635 279.158 193.161 279.271 192.368 279.271C190.441 279.271 189.874 277.798 189.874 269.75V248.329C189.874 244.929 192.368 244.022 194.861 243.569V241.869C190.895 241.529 185.227 237.788 181.941 234.842H180.354L161.539 243.682C160.973 240.509 159.046 236.655 154.512 234.842H152.812L140.345 246.516L142.045 248.896C145.898 245.496 146.352 245.496 147.598 245.496C149.072 245.496 150.319 246.176 150.319 248.896V272.131C150.319 275.644 148.732 278.591 145.105 278.591V280.178C150.205 280.178 155.306 285.391 155.306 290.718H156.892C156.892 285.391 161.653 280.178 167.093 280.178V278.591C163.353 278.591 161.879 275.644 161.879 272.131V247.422L172.647 242.662L178.314 247.649V273.831C178.314 283.465 181.827 287.772 186.248 289.925H188.061L199.508 278.251ZM231.668 214.1C231.668 211.607 229.288 209.227 225.548 209.227C221.808 209.227 219.314 211.493 219.314 214.1C219.314 215.914 222.714 223.848 225.548 223.848C228.155 223.848 231.668 215.8 231.668 214.1ZM243.909 276.098L241.642 274.171L239.829 276.098C238.695 277.571 237.222 278.138 236.202 278.138C233.255 278.138 231.442 276.664 231.442 268.617V249.123C231.442 245.382 235.748 244.362 238.809 244.022V242.435C235.068 240.962 230.195 238.015 226.568 234.842H224.981L210.36 245.836L212.06 248.329C213.307 247.309 216.481 244.929 217.841 244.929C218.521 244.929 219.881 245.042 219.881 248.556V273.831C219.881 283.465 225.661 287.772 230.081 289.925H231.668L243.909 276.098ZM288.087 244.362L280.72 234.842H279.133C276.073 235.522 273.579 236.428 270.746 238.242C257.032 246.629 255.558 252.183 255.558 265.67C255.558 274.284 257.372 284.031 266.439 289.925H268.026L287.407 282.445L286.387 279.838C282.193 282.105 278.68 282.785 276.186 282.785C273.806 282.785 271.313 281.651 270.066 279.951C267.119 276.098 267.119 269.07 267.119 263.857V257.056C267.119 252.296 267.119 246.856 269.386 243.909C270.406 242.662 271.086 242.435 271.653 242.095L278.566 250.709L288.087 244.362ZM343.938 252.749C343.938 249.349 341.558 243.796 338.724 240.622C337.591 239.602 332.491 236.428 328.524 234.842H326.937C320.477 239.489 311.409 243.229 303.816 245.382V274.284C303.816 278.024 301.662 280.404 298.375 281.538V283.125C307.782 283.125 317.756 286.638 322.517 289.925H324.104C327.05 286.978 329.317 285.051 331.017 283.805C336.684 279.611 343.938 273.717 343.938 266.464V252.749ZM315.376 274.624V246.516C316.963 244.929 319.117 243.229 321.27 243.229C322.857 243.229 325.464 243.796 327.277 245.382C332.264 249.916 332.377 258.303 332.377 266.01C332.377 273.151 332.377 277.344 328.75 280.404L315.376 274.624ZM401.28 248.669C401.28 240.282 395.16 235.408 384.279 229.401C375.212 224.414 367.618 223.281 367.618 217.274C367.618 213.194 373.285 211.493 376.685 211.04V209.113C367.051 209.113 356.624 211.607 356.624 220.561C356.624 228.835 367.391 234.048 374.985 237.788V238.128C370.451 240.849 365.011 243.342 360.138 244.702V277.118C360.138 280.178 357.757 282.331 354.811 282.671V284.258H362.858C367.505 284.258 377.479 288.338 380.199 289.925H381.899C384.846 287.092 386.659 285.391 388.699 283.691C394.366 278.931 401.28 274.171 401.28 266.237V248.669ZM389.719 269.977C389.719 274.397 389.379 277.344 386.432 280.291L371.698 274.057V248.442C371.698 244.249 372.152 243.909 374.192 242.775C376.912 241.189 379.065 240.169 380.765 239.602C385.866 242.549 389.719 244.589 389.719 252.409V269.977ZM450 258.983L441.159 234.842H439.573C436.739 235.408 433.452 236.202 430.959 237.222C419.398 241.982 412.371 249.123 412.371 263.063C412.371 270.317 413.958 278.251 419.511 284.711C420.872 286.412 425.065 289.925 428.352 289.925H429.939L448.867 281.085L447.733 278.704C445.353 279.951 437.646 282.785 436.626 282.785C431.299 282.785 423.932 276.438 423.932 268.73L450 258.983ZM423.932 265.104V258.076C423.932 252.863 424.498 244.929 428.692 242.095C429.599 241.302 430.732 240.735 432.092 240.509C433.679 243.229 438.553 254.563 438.553 256.603C438.553 258.756 437.986 259.663 436.626 260.23L423.932 265.104Z" fill="black"/>
</svg>
