<svg width="500" height="500" viewBox="0 0 500 500" fill="none" xmlns="http://www.w3.org/2000/svg">
<path d="M50 227.857V254.806C50 260.502 51.4699 264.85 54.4097 267.913C57.3496 270.914 61.6981 272.445 67.4552 272.445C73.2124 272.445 77.5609 270.852 80.6232 267.79C83.4405 264.789 84.9104 260.441 84.9104 254.806V227.857H79.9495V254.867C79.9495 259.154 78.9695 262.4 77.0096 264.605C74.9885 266.871 71.8037 268.035 67.4552 268.035C63.1067 268.035 59.9219 266.871 57.9008 264.605C55.9409 262.4 55.0222 259.154 55.0222 254.867V227.857H50ZM130.233 239.066C128.15 239.066 126.252 239.556 124.598 240.535C122.883 241.454 121.413 242.802 120.311 244.578V239.923H115.411V271.587H120.311V252.478C120.495 249.6 121.413 247.334 123.128 245.619C124.721 244.026 126.619 243.23 128.824 243.23C134.336 243.23 137.154 246.293 137.154 252.478V271.587H142.053V252.111C142.053 243.414 138.072 239.066 130.233 239.066ZM189.948 227.98C188.907 227.98 188.049 228.286 187.314 229.021C186.579 229.634 186.273 230.491 186.273 231.593C186.273 232.635 186.579 233.492 187.314 234.227C188.049 234.901 188.907 235.268 189.948 235.268C190.989 235.268 191.908 234.901 192.643 234.227C193.316 233.492 193.684 232.635 193.684 231.593C193.684 230.491 193.316 229.634 192.643 229.021C191.908 228.286 190.989 227.98 189.948 227.98ZM187.498 239.923V271.587H192.398V239.923H187.498ZM251.623 239.066C246.907 239.066 243.232 240.719 240.537 244.088C237.965 247.15 236.74 251.07 236.74 255.908C236.74 260.747 237.965 264.667 240.476 267.668C243.11 270.852 246.785 272.445 251.562 272.445C255.482 272.445 258.666 271.404 261.055 269.382C263.444 267.3 264.975 264.177 265.71 260.134H260.871C260.075 265.585 256.951 268.341 251.562 268.341C248.377 268.341 245.927 267.178 244.212 264.973C242.559 262.768 241.762 259.706 241.762 255.847C241.762 251.989 242.62 248.926 244.396 246.66C246.172 244.333 248.561 243.169 251.623 243.169C254.134 243.169 256.155 243.72 257.748 244.945C259.279 246.17 260.259 248.007 260.687 250.457H265.587C264.975 246.599 263.505 243.72 261.055 241.822C258.666 239.984 255.543 239.066 251.623 239.066ZM312.441 239.066C307.663 239.066 303.927 240.658 301.11 243.965C298.415 247.089 297.068 251.009 297.068 255.786C297.068 260.502 298.415 264.422 301.11 267.484C303.927 270.791 307.663 272.445 312.441 272.445C317.157 272.445 320.954 270.791 323.771 267.484C326.466 264.422 327.813 260.502 327.813 255.786C327.813 251.009 326.466 247.089 323.771 243.965C320.954 240.658 317.157 239.066 312.441 239.066ZM312.441 243.169C315.748 243.169 318.382 244.455 320.341 247.028C321.995 249.355 322.853 252.233 322.853 255.786C322.853 259.216 321.995 262.155 320.341 264.483C318.382 267.055 315.748 268.341 312.441 268.341C309.072 268.341 306.439 267.055 304.54 264.483C302.825 262.155 302.029 259.277 302.029 255.786C302.029 252.233 302.825 249.355 304.54 247.028C306.439 244.455 309.072 243.169 312.441 243.169ZM383.548 227V245.741C381.098 241.27 377.607 239.066 373.075 239.066C368.542 239.066 365.051 240.719 362.479 244.149C360.09 247.211 358.927 251.009 358.927 255.663C358.927 260.441 360.09 264.36 362.479 267.423C365.051 270.73 368.665 272.445 373.32 272.445C378.158 272.445 381.649 270.424 383.854 266.381V271.587H388.447V227H383.548ZM374.116 243.108C376.933 243.108 379.26 244.21 381.037 246.538C382.813 248.804 383.731 251.805 383.731 255.48V256.092C383.731 259.644 382.935 262.523 381.343 264.728C379.567 267.178 377.117 268.403 373.932 268.403C370.502 268.403 367.93 267.116 366.215 264.667C364.684 262.462 363.949 259.461 363.949 255.663C363.949 251.866 364.745 248.926 366.337 246.783C368.052 244.333 370.686 243.108 374.116 243.108ZM434.811 239.066C430.279 239.066 426.604 240.719 423.909 244.026C421.214 247.15 419.928 251.07 419.928 255.725C419.928 260.869 421.337 264.911 424.154 267.974C426.849 270.914 430.462 272.445 434.995 272.445C439.098 272.445 442.467 271.22 445.1 268.893C447.244 266.933 448.714 264.483 449.449 261.42H444.488C443.692 263.625 442.65 265.279 441.303 266.381C439.711 267.668 437.567 268.341 434.995 268.341C431.994 268.341 429.666 267.361 427.951 265.401C426.236 263.442 425.256 260.685 425.011 257.133H450C449.878 251.621 448.653 247.273 446.325 244.21C443.753 240.78 439.894 239.066 434.811 239.066ZM434.933 243.169C440.936 243.169 444.304 246.538 444.917 253.336H425.134C425.44 250.212 426.481 247.763 428.196 245.925C429.911 244.088 432.116 243.169 434.933 243.169Z" fill="black"/>
</svg>
