<svg width="500" height="500" viewBox="0 0 500 500" fill="none" xmlns="http://www.w3.org/2000/svg">
<path d="M106.028 215.663C106.028 214.22 104.808 213 103.365 213H86.5014C85.0591 213 83.8386 214.22 83.8386 215.663V217.438C83.8386 218.991 85.0591 220.101 86.5014 220.101H91.7158V262.038C91.7158 272.911 84.9481 280.566 77.9585 280.566C70.9689 280.566 64.3121 272.911 64.3121 262.038V220.101H69.4156C70.8579 220.101 72.0783 218.991 72.0783 217.438V215.663C72.0783 214.22 70.8579 213 69.4156 213H52.6627C51.2204 213 50 214.22 50 215.663V217.438C50 218.991 51.2204 220.101 52.6627 220.101H57.7662V262.038C57.7662 275.463 66.1982 287.667 77.9585 287.667C89.7188 287.667 98.1507 275.463 98.1507 262.038V220.101H103.365C104.808 220.101 106.028 218.991 106.028 217.438V215.663ZM163.32 282.009C163.32 280.566 162.21 279.346 160.657 279.346H154V250.389C154 240.737 149.118 235.855 139.466 235.855C133.919 235.855 128.704 238.074 125.043 241.735V239.183C125.043 237.741 123.823 236.521 122.38 236.521H111.84C110.398 236.521 109.178 237.741 109.178 239.183V240.958C109.178 242.401 110.398 243.621 111.84 243.621H118.497V279.346H111.84C110.398 279.346 109.178 280.566 109.178 282.009V283.784C109.178 285.226 110.398 286.447 111.84 286.447H131.7C133.142 286.447 134.363 285.226 134.363 283.784V282.009C134.363 280.566 133.142 279.346 131.7 279.346H125.043V254.716C125.043 248.281 130.59 242.956 137.58 242.956C145.346 242.956 147.565 245.507 147.565 250.389V279.346H140.798C139.355 279.346 138.135 280.566 138.135 282.009V283.784C138.135 285.226 139.355 286.447 140.798 286.447H160.657C162.21 286.447 163.32 285.226 163.32 283.784V282.009ZM199.31 223.318C199.31 220.877 197.313 218.769 194.761 218.769C192.098 218.769 190.101 220.877 190.101 223.318C190.101 225.87 192.098 227.978 194.761 227.978C197.313 227.978 199.31 225.87 199.31 223.318ZM215.286 282.009C215.286 280.566 214.065 279.346 212.623 279.346H199.199V239.183C199.199 237.741 197.978 236.521 196.536 236.521H178.452C177.009 236.521 175.789 237.741 175.789 239.183V240.958C175.789 242.401 177.009 243.621 178.452 243.621H192.764V279.346H177.564C176.122 279.346 174.901 280.566 174.901 282.009V283.784C174.901 285.226 176.122 286.447 177.564 286.447H212.623C214.065 286.447 215.286 285.226 215.286 283.784V282.009ZM275.351 271.913C275.351 270.47 274.131 269.25 272.689 269.25H271.579C270.359 269.25 269.249 270.137 269.027 271.247C267.474 276.461 263.813 280.012 258.265 280.012C247.504 280.012 238.961 271.58 238.961 261.484C238.961 250.833 246.838 242.623 256.047 242.623C259.153 242.623 262.592 242.623 265.144 242.956L265.921 243.066C266.032 245.618 268.14 246.839 270.026 246.839C271.912 246.839 274.131 245.507 274.131 242.734C274.131 236.077 264.7 235.522 258.931 235.522H256.047C242.844 235.522 232.526 247.393 232.526 261.484C232.526 275.352 242.844 287.112 256.047 287.112C265.921 287.112 272.91 281.232 275.24 272.689L275.351 271.913ZM333.198 261.484C333.198 247.171 323.323 235.522 311.119 235.522C298.915 235.522 289.041 247.171 289.041 261.484C289.041 275.685 298.915 287.112 311.119 287.112C323.323 287.112 333.198 275.685 333.198 261.484ZM326.763 260.485C326.763 271.247 319.773 280.012 311.119 280.012C302.466 280.012 295.476 271.247 295.476 260.485C295.476 250.611 302.466 242.623 311.119 242.623C319.773 242.623 326.763 250.611 326.763 260.485ZM396.48 282.009C396.48 280.566 395.371 279.346 393.818 279.346H387.161V221.543C387.161 220.101 385.941 218.88 384.498 218.88H373.958C372.516 218.88 371.296 220.101 371.296 221.543V223.318C371.296 224.871 372.516 226.092 373.958 226.092H380.726V241.624C376.843 237.963 371.407 235.855 365.748 235.855C353.766 235.855 345.001 247.948 345.001 261.484C345.001 274.908 353.211 287.112 364.861 287.112C371.296 287.112 376.843 284.228 380.726 279.79V283.784C380.726 285.226 381.836 286.447 383.389 286.447H393.818C395.371 286.447 396.48 285.226 396.48 283.784V282.009ZM380.726 267.586C379.173 274.686 373.404 280.012 366.525 280.012C358.648 280.012 351.436 272.134 351.436 261.484C351.436 250.944 358.981 242.956 367.634 242.956C374.069 242.956 379.284 246.839 380.726 251.942V267.586ZM450 271.913C450 270.47 448.78 269.25 447.337 269.25H446.228C445.007 269.25 444.009 270.137 443.676 271.247C442.123 276.35 437.685 280.012 432.581 280.012C420.932 280.012 411.834 271.358 411.834 261.262L411.945 260.041H447.337C448.78 260.041 450 258.821 450 257.379C450 243.732 442.012 235.522 428.476 235.522C415.496 235.522 405.4 247.393 405.4 261.262C405.4 275.463 416.383 287.112 430.141 287.112C439.127 287.112 447.337 281.454 449.889 272.689L450 271.913ZM413.388 253.606C416.05 247.061 421.931 242.623 428.476 242.623C436.908 242.623 442.012 246.506 443.232 253.606H413.388Z" fill="black"/>
</svg>
