<svg width="500" height="500" viewBox="0 0 500 500" fill="none" xmlns="http://www.w3.org/2000/svg">
<path d="M97.0757 223C101.433 231.486 103.67 240.431 103.67 249.778C103.67 259.067 101.433 268.011 97.0757 276.555H99.5986C103.842 268.069 105.963 259.124 105.963 249.778C105.963 240.374 103.842 231.486 99.5986 223H97.0757ZM61.6399 229.479V254.709C61.6399 260.041 63.0161 264.112 65.7684 266.979C68.5206 269.789 72.5917 271.222 77.9817 271.222C83.3716 271.222 87.4427 269.732 90.3096 266.865C92.9473 264.055 94.3234 259.984 94.3234 254.709V229.479H89.6789V254.766C89.6789 258.78 88.7615 261.819 86.9266 263.883C85.0344 266.005 82.0528 267.094 77.9817 267.094C73.9106 267.094 70.9289 266.005 69.0367 263.883C67.2018 261.819 66.3417 258.78 66.3417 254.766V229.479H61.6399ZM56.3647 223C52.1216 231.486 50 240.374 50 249.778C50 259.124 52.1216 268.069 56.3647 276.555H58.8876C54.4725 268.011 52.2936 259.067 52.2936 249.778C52.2936 240.431 54.4725 231.486 58.8876 223H56.3647ZM154.415 223C158.773 231.486 161.009 240.431 161.009 249.778C161.009 259.067 158.773 268.011 154.415 276.555H156.938C161.181 268.069 163.303 259.124 163.303 249.778C163.303 240.374 161.181 231.486 156.938 223H154.415ZM136.755 234.181C134.805 234.181 133.028 234.64 131.422 235.557C129.817 236.417 128.498 237.679 127.466 239.342V234.984H122.878V264.628H127.466V246.739C127.638 244.044 128.498 241.922 130.103 240.317C131.594 238.826 133.372 238.08 135.436 238.08C140.596 238.08 143.234 240.947 143.234 246.739V264.628H147.821V246.394C147.821 238.252 144.094 234.181 136.755 234.181ZM113.704 223C109.461 231.486 107.339 240.374 107.339 249.778C107.339 259.124 109.461 268.069 113.704 276.555H116.227C111.812 268.011 109.633 259.067 109.633 249.778C109.633 240.431 111.812 231.486 116.227 223H113.704ZM211.755 223C216.112 231.486 218.349 240.431 218.349 249.778C218.349 259.067 216.112 268.011 211.755 276.555H214.278C218.521 268.069 220.642 259.124 220.642 249.778C220.642 240.374 218.521 231.486 214.278 223H211.755ZM192.661 229.594C191.686 229.594 190.883 229.881 190.195 230.569C189.507 231.142 189.22 231.945 189.22 232.977C189.22 233.952 189.507 234.755 190.195 235.443C190.883 236.073 191.686 236.417 192.661 236.417C193.635 236.417 194.495 236.073 195.184 235.443C195.814 234.755 196.158 233.952 196.158 232.977C196.158 231.945 195.814 231.142 195.184 230.569C194.495 229.881 193.635 229.594 192.661 229.594ZM190.367 240.775V270.42H194.954V240.775H190.367ZM171.044 223C166.8 231.486 164.679 240.374 164.679 249.778C164.679 259.124 166.8 268.069 171.044 276.555H173.567C169.151 268.011 166.972 259.067 166.972 249.778C166.972 240.431 169.151 231.486 173.567 223H171.044ZM269.094 223C273.452 231.486 275.688 240.431 275.688 249.778C275.688 259.067 273.452 268.011 269.094 276.555H271.617C275.86 268.069 277.982 259.124 277.982 249.778C277.982 240.374 275.86 231.486 271.617 223H269.094ZM250.401 234.181C245.986 234.181 242.546 235.729 240.023 238.883C237.615 241.75 236.468 245.42 236.468 249.95C236.468 254.479 237.615 258.149 239.966 260.959C242.431 263.94 245.872 265.431 250.344 265.431C254.014 265.431 256.995 264.456 259.232 262.564C261.468 260.557 262.901 257.69 263.589 253.906H259.06C258.314 259.009 255.39 261.589 250.344 261.589C247.362 261.589 245.069 260.5 243.463 258.436C241.915 256.372 241.17 253.505 241.17 249.892C241.17 246.28 241.973 243.413 243.635 241.291C245.298 239.112 247.534 238.023 250.401 238.023C252.752 238.023 254.645 238.539 256.135 239.686C257.569 240.833 258.486 242.553 258.888 244.846H263.475C262.901 241.177 261.525 238.482 259.232 236.761C256.995 235.041 254.071 234.181 250.401 234.181ZM228.383 223C224.14 231.486 222.018 240.374 222.018 249.778C222.018 259.124 224.14 268.069 228.383 276.555H230.906C226.491 268.011 224.312 259.067 224.312 249.778C224.312 240.431 226.491 231.486 230.906 223H228.383ZM326.434 223C330.791 231.486 333.028 240.431 333.028 249.778C333.028 259.067 330.791 268.011 326.434 276.555H328.956C333.2 268.069 335.321 259.124 335.321 249.778C335.321 240.374 333.2 231.486 328.956 223H326.434ZM307.339 234.181C302.867 234.181 299.369 235.672 296.732 238.768C294.209 241.693 292.947 245.362 292.947 249.835C292.947 254.25 294.209 257.92 296.732 260.787C299.369 263.883 302.867 265.431 307.339 265.431C311.755 265.431 315.31 263.883 317.947 260.787C320.47 257.92 321.732 254.25 321.732 249.835C321.732 245.362 320.47 241.693 317.947 238.768C315.31 235.672 311.755 234.181 307.339 234.181ZM285.723 223C281.479 231.486 279.358 240.374 279.358 249.778C279.358 259.124 281.479 268.069 285.723 276.555H288.245C283.83 268.011 281.651 259.067 281.651 249.778C281.651 240.431 283.83 231.486 288.245 223H285.723ZM307.339 238.023C310.436 238.023 312.901 239.227 314.736 241.635C316.284 243.814 317.087 246.509 317.087 249.835C317.087 253.046 316.284 255.798 314.736 257.977C312.901 260.385 310.436 261.589 307.339 261.589C304.186 261.589 301.72 260.385 299.943 257.977C298.337 255.798 297.592 253.103 297.592 249.835C297.592 246.509 298.337 243.814 299.943 241.635C301.72 239.227 304.186 238.023 307.339 238.023ZM383.773 223C388.131 231.486 390.367 240.431 390.367 249.778C390.367 259.067 388.131 268.011 383.773 276.555H386.296C390.539 268.069 392.661 259.124 392.661 249.778C392.661 240.374 390.539 231.486 386.296 223H383.773ZM372.764 228.677V246.222C370.47 242.037 367.202 239.972 362.959 239.972C358.716 239.972 355.447 241.521 353.039 244.732C350.803 247.599 349.713 251.154 349.713 255.511C349.713 259.984 350.803 263.654 353.039 266.521C355.447 269.617 358.83 271.222 363.188 271.222C367.718 271.222 370.986 269.33 373.05 265.546V270.42H377.351V228.677H372.764ZM343.062 223C338.819 231.486 336.697 240.374 336.697 249.778C336.697 259.124 338.819 268.069 343.062 276.555H345.585C341.17 268.011 338.991 259.067 338.991 249.778C338.991 240.431 341.17 231.486 345.585 223H343.062ZM363.934 243.757C366.571 243.757 368.75 244.789 370.413 246.968C372.076 249.089 372.936 251.899 372.936 255.339V255.913C372.936 259.239 372.19 261.933 370.7 263.998C369.037 266.291 366.743 267.438 363.762 267.438C360.551 267.438 358.142 266.234 356.537 263.94C355.103 261.876 354.415 259.067 354.415 255.511C354.415 251.956 355.161 249.204 356.651 247.197C358.257 244.904 360.723 243.757 363.934 243.757ZM441.112 223C445.47 231.486 447.706 240.431 447.706 249.778C447.706 259.067 445.47 268.011 441.112 276.555H443.635C447.878 268.069 450 259.124 450 249.778C450 240.374 447.878 231.486 443.635 223H441.112ZM421.904 234.181C417.661 234.181 414.22 235.672 411.697 238.768C409.174 241.75 407.97 245.42 407.97 249.778C407.97 254.594 409.289 258.378 411.927 261.245C414.45 263.998 417.833 265.431 422.076 265.431C425.917 265.431 429.071 264.284 431.537 262.106C433.544 260.271 434.92 257.977 435.608 255.11H430.963C430.218 257.174 429.243 258.722 427.982 259.755C426.491 260.959 424.484 261.589 422.076 261.589C419.266 261.589 417.087 260.672 415.482 258.837C413.876 257.002 412.959 254.422 412.729 251.096H436.124C436.009 245.936 434.862 241.865 432.684 238.998C430.275 235.787 426.663 234.181 421.904 234.181ZM400.401 223C396.158 231.486 394.037 240.374 394.037 249.778C394.037 259.124 396.158 268.069 400.401 276.555H402.924C398.509 268.011 396.33 259.067 396.33 249.778C396.33 240.431 398.509 231.486 402.924 223H400.401ZM422.018 238.023C427.638 238.023 430.791 241.177 431.365 247.541H412.844C413.131 244.617 414.106 242.323 415.711 240.603C417.317 238.883 419.381 238.023 422.018 238.023Z" fill="black"/>
</svg>
