<svg width="500" height="500" viewBox="0 0 500 500" fill="none" xmlns="http://www.w3.org/2000/svg">
<path d="M50 222V277.963H105.963V222H50ZM52.1216 224.122H103.842V275.842H52.1216V224.122ZM61.6399 229.683V254.913C61.6399 260.245 63.0161 264.317 65.7684 267.183C68.5206 269.993 72.5917 271.427 77.9817 271.427C83.3716 271.427 87.4427 269.936 90.3096 267.069C92.9473 264.259 94.3234 260.188 94.3234 254.913V229.683H89.6789V254.97C89.6789 258.984 88.7615 262.023 86.9266 264.087C85.0344 266.209 82.0528 267.298 77.9817 267.298C73.9106 267.298 70.9289 266.209 69.0367 264.087C67.2018 262.023 66.3417 258.984 66.3417 254.97V229.683H61.6399ZM107.339 222V277.963H163.303V222H107.339ZM109.461 224.122H161.181V275.842H109.461V224.122ZM118.807 229.683V270.624H123.509V236.966H123.681L146.961 270.624H151.835V229.683H147.076V262.998H146.904L123.796 229.683H118.807ZM164.679 222V277.963H220.642V222H164.679ZM166.8 224.122H218.521V275.842H166.8V224.122ZM190.31 229.683V270.624H195.011V229.683H190.31ZM222.018 222V277.963H277.982V222H222.018ZM224.14 224.122H275.86V275.842H224.14V224.122ZM250.975 228.881C244.61 228.881 239.679 231.002 236.239 235.36C233.085 239.259 231.537 244.248 231.537 250.326C231.537 256.404 233.028 261.335 236.124 265.119C239.507 269.305 244.381 271.427 250.803 271.427C255.161 271.427 258.888 270.165 262.041 267.7C265.482 265.062 267.603 261.335 268.463 256.576H263.934C263.131 260.131 261.468 262.826 259.06 264.661C256.823 266.381 254.071 267.241 250.745 267.241C245.986 267.241 242.317 265.635 239.794 262.482C237.385 259.5 236.239 255.429 236.239 250.326C236.239 245.222 237.443 241.151 239.851 238.055C242.431 234.729 246.101 233.067 250.86 233.067C254.071 233.067 256.766 233.812 259.002 235.36C261.296 236.966 262.787 239.259 263.36 242.241H267.89C267.317 238.17 265.482 234.901 262.385 232.493C259.289 230.085 255.447 228.881 250.975 228.881ZM279.358 222V277.963H335.321V222H279.358ZM281.479 224.122H333.2V275.842H281.479V224.122ZM307.339 228.881C301.204 228.881 296.388 230.945 292.833 235.073C289.45 238.972 287.787 244.018 287.787 250.211C287.787 256.346 289.45 261.392 292.833 265.291C296.33 269.362 301.147 271.427 307.339 271.427C313.475 271.427 318.291 269.362 321.846 265.291C325.229 261.392 326.95 256.404 326.95 250.211C326.95 243.961 325.229 238.915 321.904 235.016C318.349 230.888 313.475 228.881 307.339 228.881ZM307.339 233.067C312.041 233.067 315.768 234.615 318.406 237.768C320.929 240.865 322.248 244.993 322.248 250.211C322.248 255.372 320.929 259.443 318.406 262.539C315.768 265.635 312.041 267.241 307.339 267.241C302.638 267.241 298.911 265.635 296.273 262.424C293.693 259.328 292.431 255.257 292.431 250.211C292.431 245.108 293.693 241.037 296.273 237.94C298.968 234.672 302.638 233.067 307.339 233.067ZM336.697 222V277.963H392.661V222H336.697ZM338.819 224.122H390.539V275.842H338.819V224.122ZM348.853 229.683V270.624H363.073C369.553 270.624 374.484 268.732 377.924 265.005C381.193 261.45 382.856 256.461 382.856 250.154C382.856 243.732 381.307 238.743 378.211 235.303C374.943 231.518 370.069 229.683 363.589 229.683H348.853ZM353.555 233.755H362.787C368.177 233.755 372.133 235.131 374.656 237.94C377.007 240.578 378.211 244.649 378.211 250.154C378.211 255.486 376.892 259.557 374.312 262.31C371.674 265.119 367.661 266.553 362.328 266.553H353.555V233.755ZM394.037 222V277.963H450V222H394.037ZM396.158 224.122H447.878V275.842H396.158V224.122ZM407.053 229.683V270.624H436.984V266.553H411.697V251.53H434.69V247.459H411.697V233.755H436.009V229.683H407.053Z" fill="black"/>
</svg>
