<svg id="uuid-2a57d3d0-4991-466e-9a94-c89748173b8d" xmlns="http://www.w3.org/2000/svg" width="18" height="18" viewBox="0 0 18 18"><defs><linearGradient id="uuid-9468b865-eac4-4ff2-b5b6-2babfb3374f2" x1="5.909" y1="2.691" x2="5.909" y2="13.239" gradientUnits="userSpaceOnUse"><stop offset="0" stop-color="#5ea0ef" /><stop offset=".178" stop-color="#559cec" /><stop offset=".472" stop-color="#3c91e5" /><stop offset=".844" stop-color="#1380da" /><stop offset="1" stop-color="#0078d4" /></linearGradient><linearGradient id="uuid-3ad1fb1c-b576-4203-8afc-a0b652002d39" x1="10.12" y1="13.294" x2="10.12" y2="7.819" gradientUnits="userSpaceOnUse"><stop offset="0" stop-color="#46a0de" /><stop offset="1" stop-color="#8dc8e8" /></linearGradient><linearGradient id="uuid-8bf92bc2-af51-4860-95b1-96ac950961e9" x1="15.96" y1="13.294" x2="15.96" y2="7.819" gradientUnits="userSpaceOnUse"><stop offset="0" stop-color="#46a0de" /><stop offset="1" stop-color="#8dc8e8" /></linearGradient><linearGradient id="uuid-39eb49ae-4371-40af-be57-402d26cef923" x1="13.04" y1="12.564" x2="13.04" y2="8.549" gradientUnits="userSpaceOnUse"><stop offset="0" stop-color="#155ea1" /><stop offset="1" stop-color="#0078d4" /></linearGradient></defs><path d="M7.652,13.165c.004-.352.014-.58.03-.677.123-.733.602-1.294,1.244-1.502.005-.002.008-.006.008-.011v-2.377c0-.602.427-1.145,1.024-1.224.56-.075,1.058.245,1.257.719h.407l-.484-.485c-.326-.326-.326-.854,0-1.179l.68-.681c-.516-1.816-2.213-3.116-4.181-3.055-1.835-.033-3.49,1.096-4.129,2.816-1.959.237-3.45,1.87-3.508,3.842.088,2.228,1.962,3.966,4.19,3.885.124,0,.251-.006.368-.016h3.096c0-.019-.003-.037-.003-.056Z" fill="url(#uuid-9468b865-eac4-4ff2-b5b6-2babfb3374f2)" /><g><path d="M14.915,13.958l-1.091-1.091c-.074-.074-.185-.096-.282-.056s-.16.134-.16.239v.64h-3.903c-.289,0-.523-.235-.523-.523,0-.091.006-.427.014-.48.052-.3.247-.487.509-.487h.458l-.062-.23c-.039-.146-.067-.298-.084-.452l-.019-.163h-.294c-.674.002-1.228.499-1.346,1.209-.02.114-.024.602-.024.607,0,.366.143.71.402.969.259.258.603.401.968.401h3.904v.692c0,.105.063.199.16.239.032.013.066.02.099.02.067,0,.133-.026.183-.076l1.091-1.091c.101-.101.101-.266,0-.367Z" fill="#155ea1" /><path d="M17.781,7.021c-.259-.258-.603-.401-.968-.401h-3.904v-.692c0-.105-.063-.199-.16-.239-.098-.04-.208-.018-.282.056l-1.091,1.091c-.101.101-.101.266,0,.367l1.091,1.091c.074.075.185.097.282.056.097-.04.16-.134.16-.239v-.64h3.903c.288,0,.523.235.523.523,0,.085-.007.429-.014.48-.052.301-.247.487-.509.487h-.458l.061.23c.039.149.068.302.084.453l.019.163h.294c.674-.002,1.228-.499,1.347-1.21.018-.11.024-.6.024-.606,0-.366-.143-.71-.402-.969Z" fill="#155ea1" /><g><path d="M9.39,8.549c0-.427.366-.768.802-.727.38.036.658.377.658.758v3.952c0,.381-.279.722-.658.758-.435.042-.802-.3-.802-.727v-4.015Z" fill="url(#uuid-3ad1fb1c-b576-4203-8afc-a0b652002d39)" /><path d="M15.23,8.549c0-.427.366-.768.802-.727.38.036.658.377.658.758v3.952c0,.381-.279.722-.658.758-.435.042-.802-.3-.802-.727v-4.015Z" fill="url(#uuid-8bf92bc2-af51-4860-95b1-96ac950961e9)" /><rect x="11.398" y="8.549" width="3.285" height="4.015" fill="url(#uuid-39eb49ae-4371-40af-be57-402d26cef923)" /></g></g></svg>