<svg xmlns="http://www.w3.org/2000/svg" width="18" height="18" viewBox="0 0 18 18"><defs><linearGradient id="f90ce3b9-9916-46d2-8fed-0378b3b04de6" x1="9" y1="13.48" x2="9" y2="7.019" gradientUnits="userSpaceOnUse"><stop offset="0" stop-color="#0078d4" /><stop offset="0.775" stop-color="#5ea0ef" /></linearGradient><linearGradient id="b0e25b5b-69ba-4262-b874-3340d1e311f0" x1="9.017" y1="9.518" x2="9.017" y2="10.495" gradientUnits="userSpaceOnUse"><stop offset="0" stop-color="#fff" /><stop offset="1" stop-color="#fff" stop-opacity="0.6" /></linearGradient></defs><g id="a101d3be-9418-4282-9372-6812b304013b"><polygon points="14.288 9.453 14.288 9.459 16.993 9.397 16.974 8.553 14.286 8.615 14.286 8.599 12.042 8.341 12.042 5.899 12.036 5.888 13.624 1.826 12.836 1.524 11.237 5.613 11.239 5.614 9.521 7.597 6.815 5.597 6.78 5.568 5.198 1.524 4.41 1.826 6.01 5.916 6.031 5.908 7.482 9.083 3.996 8.599 3.979 8.627 3.979 8.615 1.304 8.553 1.284 9.397 3.959 9.459 3.966 9.17 5.733 9.733 6.084 10.923 6.05 12.291 4.45 16.38 5.238 16.683 6.838 12.593 6.708 12.543 7.969 11.319 11.254 12.096 11.665 12.444 11.277 12.593 12.876 16.683 13.664 16.38 12.065 12.291 12.036 12.302 12.271 10.601 14.288 9.453" fill="#9cebff" /><path d="M18,9.037a1.294,1.294,0,1,1-1.294-1.294A1.294,1.294,0,0,1,18,9.037ZM1.294,7.743A1.294,1.294,0,1,0,2.588,9.037,1.294,1.294,0,0,0,1.294,7.743Zm3.479,7.646a1.294,1.294,0,1,0,1.293,1.294A1.294,1.294,0,0,0,4.773,15.389Zm8.68,0a1.294,1.294,0,1,0,1.293,1.294A1.294,1.294,0,0,0,13.453,15.389ZM4.632.024A1.294,1.294,0,1,0,5.926,1.317,1.293,1.293,0,0,0,4.632.024Zm8.916,0a1.294,1.294,0,1,0,1.293,1.293A1.293,1.293,0,0,0,13.548.024Z" fill="#86d633" /><path d="M3.533,7.019H14.467a0,0,0,0,1,0,0v6.1a.365.365,0,0,1-.365.365H3.9a.365.365,0,0,1-.365-.365v-6.1A0,0,0,0,1,3.533,7.019Z" fill="url(#f90ce3b9-9916-46d2-8fed-0378b3b04de6)" /><path d="M3.9,4.689H14.1a.365.365,0,0,1,.365.365V7.019a0,0,0,0,1,0,0H3.535a0,0,0,0,1,0,0V5.054A.365.365,0,0,1,3.9,4.689Z" fill="#0078d4" /><path d="M10.57,9.515a.487.487,0,1,1-.487.487A.487.487,0,0,1,10.57,9.515Zm-2.039.491a.487.487,0,1,0,.486-.487A.487.487,0,0,0,8.531,10.006Zm-1.553,0a.487.487,0,1,0,.487-.487A.487.487,0,0,0,6.978,10.006Z" fill="url(#b0e25b5b-69ba-4262-b874-3340d1e311f0)" /><path d="M7.818,11.952l-.278.279a.126.126,0,0,1-.178,0h0L5.3,10.175a.251.251,0,0,1,0-.356h0l.278-.279h0l2.24,2.234a.126.126,0,0,1,0,.178Zm4.605-2.416-2.24,2.234h0a.125.125,0,0,0,0,.178l.279.279h0a.125.125,0,0,0,.178,0L12.7,10.171h0a.252.252,0,0,0,0-.356l-.278-.279Z" fill="#fff" /><path d="M7.5,7.786l.279.278a.126.126,0,0,1,0,.178l-2.2,2.208h0L5.3,10.171a.251.251,0,0,1,0-.356h0L7.32,7.786A.126.126,0,0,1,7.5,7.786Zm5.2,2.379h0a.251.251,0,0,0,0-.356L10.68,7.78h0a.126.126,0,0,0-.178,0l-.282.282h0a.126.126,0,0,0,0,.178l2.2,2.207h0l.279-.279Z" fill="#fff" opacity="0.8" /></g></svg>