<svg id="uuid-def63458-9ab0-4184-b537-071fd4aa9aab" xmlns="http://www.w3.org/2000/svg" width="18" height="18" viewBox="0 0 18 18"><defs><linearGradient id="uuid-018f8a21-bcc2-412b-b6c3-c184626c3119" x1="7.824" y1="13.644" x2="7.824" y2="4.395" gradientUnits="userSpaceOnUse"><stop offset="0" stop-color="#32bedd" /><stop offset=".18" stop-color="#32caea" /><stop offset=".41" stop-color="#32d2f2" /><stop offset=".78" stop-color="#32d4f5" /></linearGradient><linearGradient id="uuid-a40cb897-dbe1-464d-9058-d250a5951d2c" x1="-272.759" y1="860.23" x2="-272.759" y2="852.711" gradientTransform="translate(287 869.516) scale(1 -1)" gradientUnits="userSpaceOnUse"><stop offset="0" stop-color="#5ea0ef" /><stop offset="1" stop-color="#0078d4" /></linearGradient></defs><g><path d="m10.031,12.739v-.328l.312-.1.832-.267.082-.257-.282-.749-.047-.084-.165-.297.24-.24.602-.602.225-.225.287.136.796.379.212-.086.213-.648v-.503h1.655l.107.297.308.854.202.083.035-.018v-5.689H0v8.724c0,.29.235.524.524.524h9.507v-.905Z" fill="url(#uuid-018f8a21-bcc2-412b-b6c3-c184626c3119)" stroke-width="0" /><path d="m.526,1.063h14.597c.29,0,.525.234.526.523,0,0,0,0,0,.001v2.808H.001V1.578c.004-.286.238-.516.524-.515Z" fill="#0078d4" stroke-width="0" /><path d="m11.746,6.741c.671,0,1.215.544,1.215,1.215s-.544,1.215-1.215,1.215-1.215-.544-1.215-1.215h0c0-.671.544-1.215,1.215-1.215Zm-5.084,1.215c0,.671.544,1.215,1.215,1.215s1.215-.544,1.215-1.215-.544-1.215-1.215-1.215c-.67,0-1.214.542-1.215,1.213,0,0,0,.002,0,.002Zm-3.974,0c0,.671.544,1.215,1.215,1.215s1.215-.544,1.215-1.215c0-.671-.544-1.215-1.215-1.215,0,0,0,0-.001,0-.67,0-1.214.543-1.214,1.214,0,0,0,0,0,.001Z" fill="#0078d4" stroke-width="0" /></g><path d="m18,13.541v-.852h-.113l-.927-.288-.213-.639.464-1.002-.602-.602h-.113l-.864.439-.577-.238-.376-1.04h-.889v.125l-.301.915-.589.238-.975-.464-.602.602.063.113.348.927-.201.627-1.052.338v.915h.125l.914.301.213.563-.464,1.003.627.639.125-.063.852-.438.589.238.377,1.04h.852v-.125l.301-.914.589-.238.99.463.602-.601-.063-.113-.364-.905.238-.588,1.015-.373Zm-3.734,1.254h-.026c-.907-.007-1.636-.748-1.629-1.654.007-.907.748-1.636,1.654-1.629.907.007,1.636.748,1.629,1.654-.007.897-.732,1.622-1.629,1.629Z" fill="url(#uuid-a40cb897-dbe1-464d-9058-d250a5951d2c)" stroke-width="0" /></svg>