<svg stroke="currentColor" fill="currentColor" stroke-width="0" viewBox="0 0 16 16" height="1em" width="1em" xmlns="http://www.w3.org/2000/svg"><path d="M8.5 4.5a.5.5 0 0 0-1 0v.634l-.549-.317a.5.5 0 1 0-.5.866L7 6l-.549.317a.5.5 0 1 0 .5.866l.549-.317V7.5a.5.5 0 1 0 1 0v-.634l.549.317a.5.5 0 1 0 .5-.866L9 6l.549-.317a.5.5 0 1 0-.5-.866l-.549.317V4.5zM5.5 9a.5.5 0 0 0 0 1h5a.5.5 0 0 0 0-1h-5zm0 2a.5.5 0 0 0 0 1h5a.5.5 0 0 0 0-1h-5z"></path><path d="M2 2a2 2 0 0 1 2-2h8a2 2 0 0 1 2 2v12a2 2 0 0 1-2 2H4a2 2 0 0 1-2-2V2zm10-1H4a1 1 0 0 0-1 1v12a1 1 0 0 0 1 1h8a1 1 0 0 0 1-1V2a1 1 0 0 0-1-1z"></path></svg>