<svg stroke="currentColor" fill="currentColor" stroke-width="0" viewBox="0 0 24 24" height="1em" width="1em" xmlns="http://www.w3.org/2000/svg"><path fill="none" d="M0 0h24v24H0z"></path><circle cx="9" cy="13" r="1.25"></circle><path d="M20.77 8.58l-.92 2.01c.09.46.15.93.15 1.41 0 4.41-3.59 8-8 8s-8-3.59-8-8c0-.05.01-.1 0-.14 2.6-.98 4.69-2.99 5.74-5.55A10 10 0 0017.5 10c.45 0 .89-.04 1.33-.1l-.6-1.32-.88-1.93-1.93-.88-2.79-1.27 2.79-1.27.71-.32A9.86 9.86 0 0012 2C6.48 2 2 6.48 2 12s4.48 10 10 10 10-4.48 10-10c0-1.47-.33-2.87-.9-4.13l-.33.71z"></path><circle cx="15" cy="13" r="1.25"></circle><path d="M20.6 5.6L19.5 8l-1.1-2.4L16 4.5l2.4-1.1L19.5 1l1.1 2.4L23 4.5z"></path></svg>