<svg stroke="currentColor" fill="currentColor" stroke-width="0" viewBox="0 0 24 24" height="1em" width="1em" xmlns="http://www.w3.org/2000/svg"><path fill="none" d="M0 0h24v24H0z"></path><path d="M2 22l14-5-9-9-5 14zm10.35-5.82L5.3 18.7l2.52-7.05 4.53 4.53zM14.53 12.53l5.59-5.59a1.25 1.25 0 011.77 0l.59.59 1.06-1.06-.59-.59a2.758 2.758 0 00-3.89 0l-5.59 5.59 1.06 1.06zM10.06 6.88l-.59.59 1.06 1.06.59-.59a2.758 2.758 0 000-3.89l-.59-.59-1.06 1.07.59.59c.48.48.48 1.28 0 1.76zM17.06 11.88l-1.59 1.59 1.06 1.06 1.59-1.59a1.25 1.25 0 011.77 0l1.61 1.61 1.06-1.06-1.61-1.61a2.758 2.758 0 00-3.89 0zM15.06 5.88l-3.59 3.59 1.06 1.06 3.59-3.59a2.758 2.758 0 000-3.89l-1.59-1.59-1.06 1.06 1.59 1.59c.48.49.48 1.29 0 1.77z"></path></svg>