<svg stroke="currentColor" fill="currentColor" stroke-width="0" viewBox="0 0 24 24" height="1em" width="1em" xmlns="http://www.w3.org/2000/svg"><path fill="none" d="M0 0h24v24H0z"></path><path d="M3 2h8v2H3zM6 11h2V7h3V5H3v2h3zM12.404 20.182l7.778-7.778 1.414 1.414-7.778 7.778z"></path><circle cx="14.5" cy="14.5" r="1.5"></circle><circle cx="19.5" cy="19.5" r="1.5"></circle><path d="M15.5 11A2.5 2.5 0 0018 8.5V4h3V2h-4v4.51c-.42-.32-.93-.51-1.5-.51a2.5 2.5 0 000 5zM9.74 15.96l-1.41 1.41-.71-.71.35-.35a2.499 2.499 0 00-1.77-4.27 2.499 2.499 0 00-1.77 4.27l.35.35-1.06 1.06c-.98.98-.98 2.56 0 3.54.5.5 1.14.74 1.78.74s1.28-.24 1.77-.73l1.06-1.06 1.41 1.41 1.41-1.41-1.41-1.41 1.41-1.41-1.41-1.43zM5.85 14.2c.12-.12.26-.15.35-.15s.23.03.35.15c.19.2.19.51 0 .71l-.35.35-.35-.36a.501.501 0 010-.7zm0 5.65c-.12.12-.26.15-.35.15s-.23-.03-.35-.15a.513.513 0 010-.71l1.06-1.06.71.71-1.07 1.06z"></path></svg>