<svg stroke="currentColor" fill="currentColor" stroke-width="0" viewBox="0 0 24 24" height="1em" width="1em" xmlns="http://www.w3.org/2000/svg"><path fill="none" d="M0 0h24v24H0z"></path><path d="M18 16l4-4-4-4v3h-5.06A8.974 8.974 0 008 3.95 3.005 3.005 0 005 1C3.34 1 2 2.34 2 4s1.34 3 3 3c.95 0 1.78-.45 2.33-1.14C9.23 6.9 10.6 8.77 10.92 11h-3.1C7.4 9.84 6.3 9 5 9c-1.66 0-3 1.34-3 3s1.34 3 3 3c1.3 0 2.4-.84 2.82-2h3.1c-.32 2.23-1.69 4.1-3.58 5.14C6.78 17.45 5.95 17 5 17c-1.66 0-3 1.34-3 3s1.34 3 3 3a2.99 2.99 0 002.99-2.95A8.974 8.974 0 0012.93 13H18v3z"></path></svg>