<svg stroke="currentColor" fill="currentColor" stroke-width="0" viewBox="0 0 24 24" height="1em" width="1em" xmlns="http://www.w3.org/2000/svg"><g id="Align_Left" dataName="Align Left"><g><path d="M3.078,3.548v16.9a.5.5,0,0,0,1,0V3.548a.5.5,0,0,0-1,0Z"></path><path d="M18.422,11.5H7.582A2.5,2.5,0,0,1,5.082,9V6.565a2.5,2.5,0,0,1,2.5-2.5h10.84a2.5,2.5,0,0,1,2.5,2.5V9A2.5,2.5,0,0,1,18.422,11.5ZM7.582,5.065a1.5,1.5,0,0,0-1.5,1.5V9a1.5,1.5,0,0,0,1.5,1.5h10.84a1.5,1.5,0,0,0,1.5-1.5V6.565a1.5,1.5,0,0,0-1.5-1.5Z"></path><path d="M13.451,19.938H7.582a2.5,2.5,0,0,1-2.5-2.5V15a2.5,2.5,0,0,1,2.5-2.5h5.869a2.5,2.5,0,0,1,2.5,2.5v2.436A2.5,2.5,0,0,1,13.451,19.938ZM7.582,13.5a1.5,1.5,0,0,0-1.5,1.5v2.436a1.5,1.5,0,0,0,1.5,1.5h5.869a1.5,1.5,0,0,0,1.5-1.5V15a1.5,1.5,0,0,0-1.5-1.5Z"></path></g></g></svg>