<svg stroke="currentColor" fill="currentColor" stroke-width="0" viewBox="0 0 24 24" height="1em" width="1em" xmlns="http://www.w3.org/2000/svg"><g id="Baseball_Ball" dataName="Baseball Ball"><path d="M19.02,4.976A9.927,9.927,0,1,0,15.74,21.2,9.908,9.908,0,0,0,21.93,12,9.856,9.856,0,0,0,19.02,4.976Zm-13.34.71a8.9,8.9,0,0,1,6.04-2.61,8.461,8.461,0,0,1-.34,2.26l-.34-.19a.5.5,0,0,0-.5.86l.5.29a9.227,9.227,0,0,1-1.57,2.47l-.35-.35a.5.5,0,0,0-.7,0,.5.5,0,0,0,0,.71l.34.34a8.875,8.875,0,0,1-2.47,1.58L6,10.536a.5.5,0,0,0-.68-.19.505.505,0,0,0-.18.69l.2.34a8.2,8.2,0,0,1-2.26.35A8.827,8.827,0,0,1,5.68,5.686ZM11.74,17a.5.5,0,1,0-.5.87l.49.29a10.008,10.008,0,0,0-.45,2.74,8.9,8.9,0,0,1-8.18-8.17,9.378,9.378,0,0,0,2.75-.46l.29.5a.5.5,0,0,0,.43.25.475.475,0,0,0,.25-.07.493.493,0,0,0,.18-.68l-.21-.36a9.461,9.461,0,0,0,2.68-1.73l.36.36a.5.5,0,0,0,.35.15.508.508,0,0,0,.36-.15.513.513,0,0,0,0-.71l-.36-.36A9.665,9.665,0,0,0,11.9,6.8l.37.21a.475.475,0,0,0,.25.07.511.511,0,0,0,.44-.25.494.494,0,0,0-.19-.68l-.51-.29a9.789,9.789,0,0,0,.46-2.76,8.924,8.924,0,0,1,8.18,8.18,10.08,10.08,0,0,0-2.74.46l-.28-.49a.505.505,0,0,0-.69-.18.491.491,0,0,0-.18.68l.2.35a9.684,9.684,0,0,0-2.68,1.73l-.35-.35a.5.5,0,0,0-.71,0,.5.5,0,0,0,0,.7l.36.36a9.2,9.2,0,0,0-1.73,2.67Zm6.58,1.32a8.851,8.851,0,0,1-6.04,2.6,8.388,8.388,0,0,1,.34-2.25l.35.2a.451.451,0,0,0,.25.07.5.5,0,0,0,.43-.25.505.505,0,0,0-.18-.69l-.51-.29a8.7,8.7,0,0,1,1.57-2.47l.36.36a.5.5,0,0,0,.7-.71l-.36-.36a9.124,9.124,0,0,1,2.48-1.57l.3.52a.5.5,0,0,0,.43.25.451.451,0,0,0,.25-.07.505.505,0,0,0,.19-.68l-.21-.36a8.449,8.449,0,0,1,2.25-.34,8.992,8.992,0,0,1-.66,3.14A9.172,9.172,0,0,1,18.32,18.316Z"></path></g></svg>