<svg stroke="currentColor" fill="currentColor" stroke-width="0" version="1.1" id="calendar_x5F_date" x="0px" y="0px" viewBox="0 0 24 24" height="1em" width="1em" xmlns="http://www.w3.org/2000/svg"><g><path d="M18.435,4.955h-1.94v-1.41c0-0.26-0.23-0.51-0.5-0.5c-0.27,0.01-0.5,0.22-0.5,0.5v1.41h-7v-1.41
		c0-0.26-0.23-0.51-0.5-0.5c-0.27,0.01-0.5,0.22-0.5,0.5v1.41h-1.93c-1.38,0-2.5,1.12-2.5,2.5v11c0,1.38,1.12,2.5,2.5,2.5h12.87
		c1.38,0,2.5-1.12,2.5-2.5v-11C20.935,6.075,19.815,4.955,18.435,4.955z M19.935,18.455c0,0.83-0.67,1.5-1.5,1.5H5.565
		c-0.83,0-1.5-0.67-1.5-1.5v-8.42h15.87V18.455z M19.935,9.035H4.065v-1.58c0-0.83,0.67-1.5,1.5-1.5h1.93v0.59
		c0,0.26,0.23,0.51,0.5,0.5c0.27-0.01,0.5-0.22,0.5-0.5v-0.59h7v0.59c0,0.26,0.23,0.51,0.5,0.5c0.27-0.01,0.5-0.22,0.5-0.5v-0.59
		h1.94c0.83,0,1.5,0.67,1.5,1.5V9.035z"></path><path d="M11.492,17.173v-3.46c0-0.059-0.064-0.095-0.114-0.064l-0.638,0.392
        c-0.1,0.061-0.228-0.01-0.228-0.128v-0.651c0-0.105,0.055-0.203,0.146-0.257l0.764-0.457c0.047-0.028,0.1-0.043,0.154-0.043h0.626
        c0.166,0,0.3,0.134,0.3,0.3v4.367c0,0.166-0.134,0.3-0.3,0.3h-0.409C11.626,17.473,11.492,17.339,11.492,17.173z"></path></g></svg>