<svg stroke="currentColor" fill="currentColor" stroke-width="0" viewBox="0 0 24 24" height="1em" width="1em" xmlns="http://www.w3.org/2000/svg"><g id="Cloud_On" dataName="Cloud On"><path d="M21.917,13.484a4.381,4.381,0,0,0-5.19-4.26,6.281,6.281,0,0,0-11.75,2.19,3.237,3.237,0,0,0-2.66,2,3.433,3.433,0,0,0,.82,3.74c1.12,1.03,2.54.89,3.94.89h10.15a4.514,4.514,0,0,0,4.69-4.32Zm-4.65,3.56c-1.19.01-2.38,0-3.56,0-2.75,0-5.49.06-8.23,0a2.383,2.383,0,0,1-2.33-1.73,2.333,2.333,0,0,1,2.28-2.94.515.515,0,0,0,.5-.5,5.3,5.3,0,0,1,10.11-1.81.5.5,0,0,0,.56.23,3.366,3.366,0,0,1,4.33,3.32A3.489,3.489,0,0,1,17.267,17.044Z"></path></g></svg>