<svg stroke="currentColor" fill="currentColor" stroke-width="0" viewBox="0 0 24 24" height="1em" width="1em" xmlns="http://www.w3.org/2000/svg"><g id="Cloud_Off" dataName="Cloud Off"><g><path d="M20.8,16.577c-.41.49-1.12-.22-.7-.71a3.585,3.585,0,0,0,.37-4.04A3.266,3.266,0,0,0,16.6,10.3a.5.5,0,0,1-.56-.23,5.391,5.391,0,0,0-5.3-3.1c-.64.04-.64-.96,0-1a6.346,6.346,0,0,1,5.99,3.26,4.255,4.255,0,0,1,4.6,2.1A4.579,4.579,0,0,1,20.8,16.577Z"></path><path d="M4.941,4.237a.5.5,0,0,0-.7.7l2.69,2.69a6.273,6.273,0,0,0-1.94,3.78,3.342,3.342,0,0,0-2.65,4.6,3.518,3.518,0,0,0,3.48,2.05h11.53c.58.57,1.14,1.14,1.71,1.71a.5.5,0,0,0,.71-.71Zm.3,12.81a2.352,2.352,0,0,1-2.16-2.25,2.309,2.309,0,0,1,2.35-2.42.515.515,0,0,0,.5-.5,5.377,5.377,0,0,1,1.71-3.54q4.35,4.365,8.71,8.72Z"></path></g></g></svg>