<svg stroke="currentColor" fill="currentColor" stroke-width="0" viewBox="0 0 24 24" height="1em" width="1em" xmlns="http://www.w3.org/2000/svg"><defs></defs><g id="Cloud_Moon" dataName="Cloud Moon"><path d="M21.36,11.54a.71.71,0,0,0-.73-.29,5.278,5.278,0,0,1-6.34-4.78,5.379,5.379,0,0,1,.37-2.42.729.729,0,0,0-.15-.78.7.7,0,0,0-.76-.16A6.317,6.317,0,0,0,9.77,8.99a5.494,5.494,0,0,0-1.22-.13A6.039,6.039,0,0,0,2.5,14.89c0,.1.01.2.01.3A6.114,6.114,0,0,0,8.7,20.94h5.99a3.941,3.941,0,0,0,3.98-3.61,3.755,3.755,0,0,0-.63-2.38A6.283,6.283,0,0,0,21.4,12.3.682.682,0,0,0,21.36,11.54Zm-6.67,8.4H8.7a5.121,5.121,0,0,1-5.19-4.8A5.042,5.042,0,0,1,8.55,9.86a5.059,5.059,0,0,1,4.92,3.95.548.548,0,0,0,.26.37l.25.13.2-.05a2.873,2.873,0,0,1,3.49,3A2.931,2.931,0,0,1,14.69,19.94Zm2.61-5.83a3.917,3.917,0,0,0-2.95-.89A6.043,6.043,0,0,0,10.78,9.3a5.338,5.338,0,0,1,2.73-4.98,6.325,6.325,0,0,0,4.51,7.85,6.642,6.642,0,0,0,2.12.17A5.2,5.2,0,0,1,17.3,14.11Z"></path></g></svg>