<svg stroke="currentColor" fill="currentColor" stroke-width="0" viewBox="0 0 24 24" height="1em" width="1em" xmlns="http://www.w3.org/2000/svg"><g id="Folder_Off" dataName="Folder Off"><g><path d="M4.013,3.3a.5.5,0,0,0-.711.71l.25.25A2.438,2.438,0,0,0,2.062,6.5v11a2.453,2.453,0,0,0,2.451,2.44h14.72l.759.76c.461.46,1.171-.25.711-.7Zm.5,15.64A1.45,1.45,0,0,1,3.062,17.5V6.5a1.444,1.444,0,0,1,1.31-1.43C5.893,6.6,7.432,8.14,8.963,9.66q4.485,4.485,8.96,8.97l.31.31Z"></path><path d="M21.438,17.693a.5.5,0,0,1-.5-.5V9.175a1.445,1.445,0,0,0-1.445-1.444H12.827a1.5,1.5,0,0,1-1.474-1.225l-.05-.267a1.445,1.445,0,0,0-1.42-1.178H8.8a.5.5,0,0,1,0-1H9.883a2.446,2.446,0,0,1,2.4,1.994l.05.268a.5.5,0,0,0,.491.408h6.666a2.448,2.448,0,0,1,2.445,2.444v8.018A.5.5,0,0,1,21.438,17.693Z"></path></g></g></svg>