<svg stroke="currentColor" fill="currentColor" stroke-width="0" viewBox="0 0 24 24" height="1em" width="1em" xmlns="http://www.w3.org/2000/svg"><g id="Grid_4-1"><g><path d="M8.5,11H5.563a2.5,2.5,0,0,1-2.5-2.5V5.564a2.5,2.5,0,0,1,2.5-2.5H8.5a2.5,2.5,0,0,1,2.5,2.5V8.5A2.5,2.5,0,0,1,8.5,11ZM5.563,4.064a1.5,1.5,0,0,0-1.5,1.5V8.5a1.5,1.5,0,0,0,1.5,1.5H8.5A1.5,1.5,0,0,0,10,8.5V5.564a1.5,1.5,0,0,0-1.5-1.5Z"></path><path d="M18.436,11H15.5A2.5,2.5,0,0,1,13,8.5V5.564a2.5,2.5,0,0,1,2.5-2.5h2.934a2.5,2.5,0,0,1,2.5,2.5V8.5A2.5,2.5,0,0,1,18.436,11ZM15.5,4.064a1.5,1.5,0,0,0-1.5,1.5V8.5A1.5,1.5,0,0,0,15.5,10h2.934a1.5,1.5,0,0,0,1.5-1.5V5.564a1.5,1.5,0,0,0-1.5-1.5Z"></path><path d="M8.5,20.936H5.564a2.5,2.5,0,0,1-2.5-2.5V15.5a2.5,2.5,0,0,1,2.5-2.5H8.5A2.5,2.5,0,0,1,11,15.5v2.936A2.5,2.5,0,0,1,8.5,20.936ZM5.564,14a1.5,1.5,0,0,0-1.5,1.5v2.936a1.5,1.5,0,0,0,1.5,1.5H8.5a1.5,1.5,0,0,0,1.5-1.5V15.5A1.5,1.5,0,0,0,8.5,14Z"></path><path d="M18.436,20.936H15.5a2.5,2.5,0,0,1-2.5-2.5V15.5A2.5,2.5,0,0,1,15.5,13h2.934a2.5,2.5,0,0,1,2.5,2.5v2.936A2.5,2.5,0,0,1,18.436,20.936ZM15.5,14A1.5,1.5,0,0,0,14,15.5v2.936a1.5,1.5,0,0,0,1.5,1.5h2.934a1.5,1.5,0,0,0,1.5-1.5V15.5a1.5,1.5,0,0,0-1.5-1.5Z"></path></g></g></svg>