<svg stroke="currentColor" fill="currentColor" stroke-width="0" viewBox="0 0 24 24" height="1em" width="1em" xmlns="http://www.w3.org/2000/svg"><g id="Indent"><g><path d="M20.437,4.064H3.563a.5.5,0,0,1,0-1H20.437a.5.5,0,0,1,0,1Z"></path><path d="M20.437,9.688h-9a.5.5,0,0,1,0-1h9a.5.5,0,0,1,0,1Z"></path><path d="M20.437,15.312h-9a.5.5,0,0,1,0-1h9a.5.5,0,0,1,0,1Z"></path><path d="M20.437,20.936H3.563a.5.5,0,1,1,0-1H20.437a.5.5,0,1,1,0,1Z"></path><path d="M7.91,11.65a.492.492,0,0,1,0,.7l-2,2a.495.495,0,0,1-.7-.7L6.36,12.5H3.54a.5.5,0,0,1,0-1H6.35c-.38-.38-.76-.76-1.14-1.15a.495.495,0,0,1,.7-.7Z"></path></g></g></svg>