<svg stroke="currentColor" fill="currentColor" stroke-width="0" viewBox="0 0 24 24" height="1em" width="1em" xmlns="http://www.w3.org/2000/svg"><g id="Login"><g><path d="M20.944,18.432a2.577,2.577,0,0,1-2.729,2.5c-2.153.012-4.307,0-6.46,0a.5.5,0,0,1,0-1c2.2,0,4.4.032,6.6,0,1.107-.016,1.589-.848,1.589-1.838V5.63a1.545,1.545,0,0,0-.969-1.471,3.027,3.027,0,0,0-1.061-.095H11.755a.5.5,0,0,1,0-1c2.225,0,4.465-.085,6.688,0a2.566,2.566,0,0,1,2.5,2.67Z"></path><path d="M15.794,12.354a.459.459,0,0,0,.138-.312A.3.3,0,0,0,15.938,12a.29.29,0,0,0-.006-.041.455.455,0,0,0-.138-.313L12.125,7.978a.5.5,0,0,0-.707.707L14.234,11.5H3.492a.5.5,0,0,0,0,1H14.234l-2.816,2.815a.5.5,0,0,0,.707.707Z"></path></g></g></svg>