<svg stroke="currentColor" fill="currentColor" stroke-width="0" viewBox="0 0 24 24" height="1em" width="1em" xmlns="http://www.w3.org/2000/svg"><g id="Medical_Cross" dataName="Medical Cross"><path d="M12.943,20.93H11.057a2.388,2.388,0,0,1-2.386-2.386V15.3l-3.215.029a2.39,2.39,0,0,1-2.387-2.386V11.057A2.39,2.39,0,0,1,5.456,8.67H8.7L8.671,5.456A2.388,2.388,0,0,1,11.057,3.07h1.886a2.388,2.388,0,0,1,2.386,2.386V8.7l3.215-.03a2.39,2.39,0,0,1,2.387,2.387v1.886a2.39,2.39,0,0,1-2.387,2.386H15.3l.028,3.215A2.388,2.388,0,0,1,12.943,20.93ZM5.456,9.67a1.388,1.388,0,0,0-1.387,1.387v1.886a1.388,1.388,0,0,0,1.387,1.386H8.7a.972.972,0,0,1,.972.971v3.244a1.388,1.388,0,0,0,1.386,1.386h1.886a1.388,1.388,0,0,0,1.386-1.386V15.3a.972.972,0,0,1,.972-.971h3.243a1.388,1.388,0,0,0,1.387-1.386V11.057A1.388,1.388,0,0,0,18.544,9.67H15.3a.972.972,0,0,1-.972-.97V5.456A1.388,1.388,0,0,0,12.943,4.07H11.057A1.388,1.388,0,0,0,9.671,5.456V8.7a.972.972,0,0,1-.972.97Z"></path></g></svg>