<svg stroke="currentColor" fill="currentColor" stroke-width="0" viewBox="0 0 24 24" height="1em" width="1em" xmlns="http://www.w3.org/2000/svg"><g id="Microchip"><g><path d="M13,14.5H11A1.5,1.5,0,0,1,9.5,13V11A1.5,1.5,0,0,1,11,9.5h2A1.5,1.5,0,0,1,14.5,11v2A1.5,1.5,0,0,1,13,14.5Zm-2-4a.5.5,0,0,0-.5.5v2a.5.5,0,0,0,.5.5h2a.5.5,0,0,0,.5-.5V11a.5.5,0,0,0-.5-.5Z"></path><path d="M20.435,14.5h-1.93v-5h1.93a.5.5,0,0,0,0-1h-1.93V8a2.507,2.507,0,0,0-2.5-2.5h-.5V3.565a.508.508,0,0,0-.5-.5.5.5,0,0,0-.5.5V5.5h-5V3.565a.508.508,0,0,0-.5-.5.5.5,0,0,0-.5.5V5.5h-.5A2.5,2.5,0,0,0,5.505,8v.5H3.565a.5.5,0,1,0,0,1h1.94v5H3.565a.5.5,0,1,0,0,1h1.94V16a2.5,2.5,0,0,0,2.5,2.5h.5v1.94a.5.5,0,0,0,1,0V18.5h5v1.94a.5.5,0,0,0,1,0V18.5h.5a2.507,2.507,0,0,0,2.5-2.5v-.5h1.93a.5.5,0,0,0,0-1ZM17.505,16a1.5,1.5,0,0,1-1.5,1.5h-8a1.5,1.5,0,0,1-1.5-1.5V8a1.5,1.5,0,0,1,1.5-1.5h8a1.511,1.511,0,0,1,1.5,1.5Z"></path></g></g></svg>