<svg stroke="currentColor" fill="currentColor" stroke-width="0" viewBox="0 0 24 24" height="1em" width="1em" xmlns="http://www.w3.org/2000/svg"><g id="Mobile_4" dataName="Mobile 4"><g><circle cx="12.003" cy="18.937" r="1"></circle><path d="M16.725,2.065H7.275a2.386,2.386,0,0,0-2.24,2.5v14.87a2.386,2.386,0,0,0,2.24,2.5h9.45a2.379,2.379,0,0,0,2.24-2.5V4.565A2.379,2.379,0,0,0,16.725,2.065Zm1.24,17.37a1.384,1.384,0,0,1-1.24,1.5H7.275a1.391,1.391,0,0,1-1.24-1.5v-2.5h11.93Zm0-3.5H6.035V4.565a1.391,1.391,0,0,1,1.24-1.5h9.45a1.384,1.384,0,0,1,1.24,1.5Z"></path></g></g></svg>