<svg stroke="currentColor" fill="currentColor" stroke-width="0" viewBox="0 0 24 24" height="1em" width="1em" xmlns="http://www.w3.org/2000/svg"><g id="Money_Bill" dataName="Money Bill"><g><path d="M19.44,5.78H4.56a2.507,2.507,0,0,0-2.5,2.5v7.44a2.514,2.514,0,0,0,2.5,2.5H19.44a2.507,2.507,0,0,0,2.5-2.5V8.28A2.5,2.5,0,0,0,19.44,5.78ZM3.06,8.28a1.5,1.5,0,0,1,1.5-1.5H6.04A3.521,3.521,0,0,1,3.06,9.76Zm1.5,8.94a1.511,1.511,0,0,1-1.5-1.5V14.24a3.521,3.521,0,0,1,2.98,2.98Zm16.38-1.5a1.5,1.5,0,0,1-1.5,1.5H17.96a3.521,3.521,0,0,1,2.98-2.98Zm0-2.49a4.528,4.528,0,0,0-3.99,3.99H7.05a4.528,4.528,0,0,0-3.99-3.99V10.77A4.528,4.528,0,0,0,7.05,6.78h9.9a4.528,4.528,0,0,0,3.99,3.99Zm0-3.47a3.521,3.521,0,0,1-2.98-2.98h1.48a1.5,1.5,0,0,1,1.5,1.5Z"></path><circle cx="12.002" cy="11.998" r="2"></circle></g></g></svg>