<svg stroke="currentColor" fill="currentColor" stroke-width="0" viewBox="0 0 24 24" height="1em" width="1em" xmlns="http://www.w3.org/2000/svg"><g id="Pen"><path d="M20.235,11.284a2.3,2.3,0,0,0-3.01-.149L15.444,5.744a2.484,2.484,0,0,0-2.1-1.7l-8.581-.93A1.5,1.5,0,0,0,3.115,4.765l.93,8.579a2.479,2.479,0,0,0,1.7,2.1l5.39,1.77a2.258,2.258,0,0,0-.51,1.43,2.257,2.257,0,0,0,2.25,2.25,2.263,2.263,0,0,0,1.591-.661l5.77-5.769a2.249,2.249,0,0,0,0-3.181Zm-14.18,3.21a1.5,1.5,0,0,1-1.02-1.26l-.9-8.39,4.01,4.01a1.188,1.188,0,0,0,.281,1.221,1.167,1.167,0,1,0,1.649-1.651,1.143,1.143,0,0,0-1.209-.269l-4.02-4.02,8.39.9a1.476,1.476,0,0,1,1.259,1.02l1.931,5.86-4.51,4.51Zm11.709-2.51a1.25,1.25,0,0,1,2.13.891,1.237,1.237,0,0,1-.369.88l-5.771,5.77a1.277,1.277,0,0,1-1.769,0,1.253,1.253,0,0,1,0-1.76Z"></path></g></svg>