<svg stroke="currentColor" fill="currentColor" stroke-width="0" viewBox="0 0 24 24" height="1em" width="1em" xmlns="http://www.w3.org/2000/svg"><g id="Shopping_Cart" dataName="Shopping Cart"><path d="M2.86,3.95H2.85l.05.53Z"></path><g><path d="M6.217,15.662a2.492,2.492,0,0,0,2.49,2.27h9.07a2.492,2.492,0,0,0,2.49-2.27l.67-7.52a1.478,1.478,0,0,0-.39-1.15,1.507,1.507,0,0,0-1.11-.49H6.407l-.14-1.82a1.752,1.752,0,0,0-1.74-1.61h-.97a.5.5,0,0,0-.5.5.508.508,0,0,0,.5.5h.97a.752.752,0,0,1,.75.69Zm13.05-.09a1.492,1.492,0,0,1-1.49,1.36H8.707a1.492,1.492,0,0,1-1.49-1.36L6.487,7.5h12.95a.49.49,0,0,1,.37.16.516.516,0,0,1,.13.39Z"></path><circle cx="9.946" cy="19.928" r="1"></circle><circle cx="16.436" cy="19.928" r="1"></circle></g></g></svg>