<svg stroke="currentColor" fill="currentColor" stroke-width="0" viewBox="0 0 24 24" height="1em" width="1em" xmlns="http://www.w3.org/2000/svg"><g id="Square_Info" dataName="Square Info"><g><path d="M18.438,20.937H5.564a2.5,2.5,0,0,1-2.5-2.5V5.563a2.5,2.5,0,0,1,2.5-2.5H18.438a2.5,2.5,0,0,1,2.5,2.5V18.437A2.5,2.5,0,0,1,18.438,20.937ZM5.564,4.063a1.5,1.5,0,0,0-1.5,1.5V18.437a1.5,1.5,0,0,0,1.5,1.5H18.438a1.5,1.5,0,0,0,1.5-1.5V5.563a1.5,1.5,0,0,0-1.5-1.5Z"></path><g><path d="M12.5,9a.5.5,0,0,0-1,0h0v4.018a.5.5,0,0,0,1,0Z"></path><circle cx="12" cy="14.999" r="0.5"></circle></g></g></g></svg>