<svg stroke="currentColor" fill="currentColor" stroke-width="0" viewBox="0 0 24 24" height="1em" width="1em" xmlns="http://www.w3.org/2000/svg"><g id="Square_Chev_Up" dataName="Square Chev Up"><g><path d="M15.35,13.15a.495.495,0,0,1-.7.7L12,11.21,9.35,13.85a.495.495,0,0,1-.7-.7l3-3a.492.492,0,0,1,.7,0Z"></path><path d="M20.937,5.563V18.437a2.5,2.5,0,0,1-2.5,2.5H5.563a2.5,2.5,0,0,1-2.5-2.5V5.563a2.5,2.5,0,0,1,2.5-2.5H18.437A2.5,2.5,0,0,1,20.937,5.563ZM4.063,18.437a1.5,1.5,0,0,0,1.5,1.5H18.437a1.5,1.5,0,0,0,1.5-1.5V5.563a1.5,1.5,0,0,0-1.5-1.5H5.563a1.5,1.5,0,0,0-1.5,1.5Z"></path></g></g></svg>