<svg stroke="currentColor" fill="currentColor" stroke-width="0" viewBox="0 0 24 24" height="1em" width="1em" xmlns="http://www.w3.org/2000/svg"><g id="Stop_Sign_1" dataName="Stop Sign 1"><g><path d="M12.531,15.688H10.14a.5.5,0,0,1,0-1h2.391a1.094,1.094,0,0,0,0-2.188H11.468a2.094,2.094,0,0,1,0-4.188h2.391a.5.5,0,0,1,0,1H11.468a1.094,1.094,0,0,0,0,2.188h1.063a2.094,2.094,0,0,1,0,4.188Z"></path><path d="M15.079,21.933H8.92A2.482,2.482,0,0,1,7.153,21.2L2.8,16.847a2.484,2.484,0,0,1-.732-1.768V8.921A2.486,2.486,0,0,1,2.8,7.153L7.153,2.8A2.482,2.482,0,0,1,8.92,2.067h6.159a2.482,2.482,0,0,1,1.767.732L21.2,7.154a2.482,2.482,0,0,1,.732,1.767v6.158a2.491,2.491,0,0,1-.731,1.768L16.846,21.2A2.482,2.482,0,0,1,15.079,21.933ZM8.92,3.067a1.511,1.511,0,0,0-1.06.439L3.506,7.861a1.489,1.489,0,0,0-.439,1.06v6.158a1.491,1.491,0,0,0,.439,1.061L7.86,20.494a1.511,1.511,0,0,0,1.06.439h6.159a1.511,1.511,0,0,0,1.06-.439l4.355-4.354a1.494,1.494,0,0,0,.439-1.061V8.921a1.511,1.511,0,0,0-.439-1.06L16.139,3.506a1.511,1.511,0,0,0-1.06-.439Z"></path></g></g></svg>