<svg stroke="currentColor" fill="currentColor" stroke-width="0" viewBox="0 0 24 24" height="1em" width="1em" xmlns="http://www.w3.org/2000/svg"><g id="Star"><path d="M16.6,20.463a1.5,1.5,0,0,1-.7-.174l-3.666-1.927a.5.5,0,0,0-.464,0L8.1,20.289a1.5,1.5,0,0,1-2.177-1.581l.7-4.082a.5.5,0,0,0-.143-.442L3.516,11.293a1.5,1.5,0,0,1,.832-2.559l4.1-.6a.5.5,0,0,0,.376-.273l1.833-3.714a1.5,1.5,0,0,1,2.69,0l1.833,3.714a.5.5,0,0,0,.376.274l4.1.6a1.5,1.5,0,0,1,.832,2.559l-2.965,2.891a.5.5,0,0,0-.144.442l.7,4.082A1.5,1.5,0,0,1,16.6,20.463Zm-3.9-2.986L16.364,19.4a.5.5,0,0,0,.725-.527l-.7-4.082a1.5,1.5,0,0,1,.432-1.328l2.965-2.89a.5.5,0,0,0-.277-.853l-4.1-.6a1.5,1.5,0,0,1-1.13-.821L12.449,4.594a.516.516,0,0,0-.9,0L9.719,8.308a1.5,1.5,0,0,1-1.13.82l-4.1.6a.5.5,0,0,0-.277.853L7.18,13.468A1.5,1.5,0,0,1,7.611,14.8l-.7,4.082a.5.5,0,0,0,.726.527L11.3,17.477a1.5,1.5,0,0,1,1.4,0Z"></path></g></svg>