<svg stroke="currentColor" fill="currentColor" stroke-width="0" viewBox="0 0 24 24" height="1em" width="1em" xmlns="http://www.w3.org/2000/svg"><g id="unread"><g><path d="M10.182,6.314a10.215,10.215,0,0,1,7.9,1.782,9.145,9.145,0,0,1,2.5,2.817,1.875,1.875,0,0,1,.082,2.024,9.266,9.266,0,0,1-1.485,2.008c-.446.464.26,1.172.707.707,1.1-1.144,2.533-2.86,1.9-4.554a8.845,8.845,0,0,0-2.721-3.5A11.243,11.243,0,0,0,9.916,5.35c-.633.11-.364,1.074.266.964Z"></path><path d="M19.824,19.11q-3.045-3.045-6.09-6.08c-.93-.93-1.85-1.86-2.77-2.77Q8.849,8.145,6.754,6.04L4.894,4.18c-.45-.45-1.16.26-.71.71l1.9,1.9a10.42,10.42,0,0,0-3.22,3.12,3.743,3.743,0,0,0-.8,2.28,4.581,4.581,0,0,0,.99,2.17,10.925,10.925,0,0,0,8.18,4.5A11.379,11.379,0,0,0,17,17.71l.25.25,1.86,1.86C19.564,20.27,20.274,19.56,19.824,19.11Zm-10.3-8.88c.25.24.49.49.73.73A2.039,2.039,0,0,0,12,14.03a2.023,2.023,0,0,0,1.04-.28c.25.24.49.49.73.73a3.047,3.047,0,0,1-4.25-4.25Zm-3.7,5.6a9.558,9.558,0,0,1-1.81-1.84c-.53-.71-1.19-1.62-.85-2.55a8.348,8.348,0,0,1,3.65-3.92c.67.67,1.34,1.33,2,2a4.04,4.04,0,0,0,5.67,5.67c.6.59,1.19,1.19,1.78,1.78A10.4,10.4,0,0,1,5.824,15.83Z"></path></g></g></svg>