<svg stroke="currentColor" fill="currentColor" stroke-width="0" viewBox="0 0 24 24" height="1em" width="1em" xmlns="http://www.w3.org/2000/svg"><g id="View_Column" dataName="View Column"><path d="M18.44,3.06H5.56a2.507,2.507,0,0,0-2.5,2.5V18.44a2.514,2.514,0,0,0,2.5,2.5H18.44a2.514,2.514,0,0,0,2.5-2.5V5.56A2.507,2.507,0,0,0,18.44,3.06ZM8.67,19.94H5.56a1.511,1.511,0,0,1-1.5-1.5V5.56a1.5,1.5,0,0,1,1.5-1.5H8.67Zm1-15.88h4.66V19.94H9.67ZM19.94,18.44a1.511,1.511,0,0,1-1.5,1.5H15.33V4.06h3.11a1.5,1.5,0,0,1,1.5,1.5Z"></path></g></svg>