<svg stroke="currentColor" fill="currentColor" stroke-width="0" viewBox="0 0 24 24" height="1em" width="1em" xmlns="http://www.w3.org/2000/svg"><g id="Video_Off" dataName="Video Off"><g><path d="M20.783,9.51v6.53a.5.5,0,0,1-1,0V9.6c0-.85.06-1.72,0-2.57-.03-.37-.27-.5-.61-.3-.39.22-.76.51-1.13.76-.73.49-1.47.99-2.2,1.49,0,.71-.01,1.41-.01,2.11a.5.5,0,0,1-1,0V9.12c0-.58.01-1.16,0-1.74a1.524,1.524,0,0,0-1.56-1.5c-1.22-.01-2.43,0-3.65,0a.5.5,0,0,1,0-1h2.13c.6,0,1.22-.05,1.81.01a2.54,2.54,0,0,1,2.27,2.5c0,.13.01.26,0,.39.77-.53,1.55-1.05,2.32-1.57a2.466,2.466,0,0,1,1.26-.6,1.364,1.364,0,0,1,1.37,1.36C20.813,7.81,20.783,8.67,20.783,9.51Z"></path><path d="M19.773,19.08q-6.5-6.51-12.99-13c-.62-.62-1.24-1.24-1.87-1.86-.45-.46-1.16.25-.7.71l.28.28A2.468,2.468,0,0,0,3.2,7.38v9.24a2.5,2.5,0,0,0,2.5,2.5h7.63a2.5,2.5,0,0,0,2.5-2.5v-.07l1.37,1.37c.62.62,1.24,1.24,1.87,1.86A.5.5,0,0,0,19.773,19.08Zm-4.94-2.46a1.5,1.5,0,0,1-1.5,1.5H5.7a1.5,1.5,0,0,1-1.5-1.5V7.38a1.5,1.5,0,0,1,1.04-1.42l9.59,9.59Z"></path></g></g></svg>