<svg stroke="currentColor" fill="currentColor" stroke-width="0" viewBox="0 0 24 24" height="1em" width="1em" xmlns="http://www.w3.org/2000/svg"><g id="Zoom_In" dataName="Zoom In"><g><path d="M20.74,20.088c-1.19-1.2-2.389-2.39-3.579-3.58l-.171-.17a8.039,8.039,0,1,0-.719.7c1.1,1.09,2.17,2.16,3.25,3.25.17.17.339.34.51.51C20.49,21.248,21.2,20.538,20.74,20.088Zm-9.669-2.11a6.96,6.96,0,1,1,6.96-6.96A6.972,6.972,0,0,1,11.071,17.978Z"></path><path d="M13.071,11.518h-1.5v1.5a.5.5,0,0,1-1,0v-1.5h-1.5a.5.5,0,0,1,0-1h1.5v-1.5a.5.5,0,0,1,1,0v1.5h1.5A.5.5,0,0,1,13.071,11.518Z"></path></g></g></svg>