<svg xmlns="http://www.w3.org/2000/svg" width="0.93em" height="1em" viewBox="0 0 1536 1664"><path fill="currentColor" d="M1536 896q0 156-61 298t-164 245t-245 164t-298 61t-298-61t-245-164t-164-245T0 896q0-182 80.5-343T307 283q43-32 95.5-25t83.5 50q32 42 24.5 94.5T461 487q-98 74-151.5 181T256 896q0 104 40.5 198.5T406 1258t163.5 109.5T768 1408t198.5-40.5T1130 1258t109.5-163.5T1280 896q0-121-53.5-228T1075 487q-42-32-49.5-84.5T1050 308q31-43 84-50t95 25q146 109 226.5 270t80.5 343M896 128v640q0 52-38 90t-90 38t-90-38t-38-90V128q0-52 38-90t90-38t90 38t38 90"/></svg>