<svg width="100%" height="100%" viewBox="0 0 31 31" xmlns="http://www.w3.org/2000/svg">
    <path
        fill-rule="evenodd"
        clip-rule="evenodd"
        d="M20.6281 10.3925C20.3322 10.3195 20.0188 10.2617 19.7083 10.2552C19.5874 10.2526 19.5269 10.2514 19.4877 10.2365C19.4482 10.2216 19.4254 10.2063 19.3965 10.1756C19.3678 10.145 19.3457 10.0946 19.3014 9.9937C19.0258 9.36561 18.6871 8.82726 18.3842 8.36193L18.3814 8.35773L18.3787 8.35353C18.3108 8.25055 18.2398 8.15094 18.166 8.05464C18.1219 7.9971 18.1435 7.91269 18.2106 7.88528L18.328 7.83733C19.4283 7.39252 20.6478 7.24426 21.8013 7.48776C22.812 7.75616 23.8828 8.34923 24.5044 9.29188C25.0511 10.1317 25.5357 10.9596 25.6638 12.0083C25.7603 12.9726 25.8342 14.0581 25.3653 14.9239C25.0158 15.5908 24.5501 16.1935 24.0383 16.7248C24.0322 16.7312 24.0291 16.7344 24.0282 16.7353C23.9025 16.8686 23.9598 17.0829 24.1353 17.1356C24.1365 17.136 24.1386 17.1366 24.1427 17.1378L24.1427 17.1378L24.1427 17.1378L24.1428 17.1378C24.6225 17.2765 25.1078 17.4169 25.5397 17.6782C25.8637 17.8817 26.1681 18.1404 26.4272 18.4347C27.0242 19.1577 27.3148 20.0473 27.4546 20.9986C27.5852 21.5881 27.4088 22.2385 27.2425 22.8516C27.2178 22.9424 27.1934 23.0324 27.1703 23.1212C27.1433 23.2249 27.1297 23.2768 27.1017 23.3147C27.0771 23.348 27.044 23.3747 27.0062 23.3917C26.9633 23.4111 26.914 23.4132 26.8153 23.4174C26.5065 23.4304 26.1982 23.4268 25.8887 23.4202C25.826 23.4189 25.7947 23.4182 25.7671 23.411C25.7409 23.4042 25.7207 23.3955 25.6979 23.381C25.6738 23.3657 25.6493 23.3405 25.6003 23.2902C25.5234 23.2113 25.4428 23.1352 25.3622 23.0591C25.1996 22.9056 25.0369 22.7519 24.9036 22.5741C24.8941 22.5614 24.8893 22.5551 24.8834 22.5455C24.879 22.5383 24.8728 22.5266 24.8693 22.519C24.8646 22.5088 24.8619 22.5011 24.8566 22.4856C24.7535 22.1902 24.7042 21.8569 24.6545 21.5212C24.5906 21.0893 24.5261 20.6533 24.3458 20.2886C24.2118 20.0116 23.9911 19.8027 23.7005 19.7637C23.4659 19.7321 23.2324 19.6959 22.9991 19.6596L22.999 19.6596C22.6471 19.6049 22.2955 19.5502 21.941 19.5118C21.8534 19.5023 21.8096 19.4976 21.7716 19.4792C21.7395 19.4636 21.7076 19.4377 21.6857 19.4096C21.6597 19.3763 21.6476 19.3395 21.6234 19.266C21.6046 19.2087 21.5868 19.1513 21.5691 19.0942L21.5691 19.0942C21.5043 18.8847 21.4403 18.6781 21.3271 18.4877C21.2933 18.4308 21.2764 18.4024 21.2688 18.3822C21.2609 18.361 21.2579 18.3491 21.2551 18.3266C21.2525 18.3052 21.2538 18.2796 21.2566 18.2284C21.2678 18.0171 21.277 17.8052 21.2862 17.5931L21.2862 17.5928V17.5928C21.3104 17.0347 21.3346 16.4758 21.3965 15.9239C21.4114 15.6714 21.5632 15.5573 21.7254 15.4355L21.7254 15.4355L21.7255 15.4354C21.7774 15.3965 21.8303 15.3567 21.8801 15.3114C22.2751 15.0062 22.5037 14.5191 22.6997 14.0484C23.2248 12.9867 22.7765 11.5181 21.9284 10.8178C21.6516 10.5708 21.3295 10.5178 20.9968 10.4631C20.8748 10.443 20.7513 10.4227 20.6281 10.3925ZM15.3206 12.4742C15.1914 11.8201 14.846 11.2029 14.3797 10.818C14.103 10.571 13.7809 10.518 13.4481 10.4633C13.3261 10.4432 13.2026 10.4229 13.0794 10.3927C12.3948 10.2239 11.6166 10.1362 10.998 10.5767C10.9128 10.6376 10.8255 10.6974 10.7376 10.7575C10.4463 10.9568 10.1494 11.16 9.90948 11.4219C9.50462 11.9176 9.13719 12.4533 8.96775 13.1026C8.85457 13.4932 8.97079 13.95 9.072 14.3479C9.08354 14.3932 9.09488 14.4378 9.10566 14.4814C9.31351 15.2606 9.78339 15.8299 10.2848 16.4024C10.3443 16.47 10.4074 16.5357 10.4709 16.6017C10.683 16.8221 10.8984 17.0461 10.9901 17.3559C11.1336 17.7613 11.1022 18.2102 11.0704 18.6632C11.0513 18.9352 11.0322 19.2087 11.0507 19.4751C11.0527 19.5036 11.0445 19.5319 11.0273 19.5545C10.8229 19.8229 10.6312 20.0744 10.3301 20.2217C9.71907 20.5297 9.14713 20.594 8.54492 20.6617C8.23312 20.6967 7.9132 20.7327 7.57555 20.8038C7.5016 20.8194 7.46463 20.8272 7.43075 20.8469C7.40167 20.8638 7.37428 20.8889 7.35478 20.9163C7.33206 20.9482 7.32002 20.9872 7.29596 21.0653C7.07232 21.7907 6.79744 22.5464 6.38195 23.1557C6.10219 23.5572 5.51016 23.7845 5.09742 23.5052C4.98137 23.446 4.86697 23.3991 4.75534 23.3532C4.48133 23.2407 4.22403 23.1351 4.00005 22.8721C3.73606 22.568 3.38931 22.0951 3.53412 21.6481C3.64386 21.0971 3.83321 20.6142 4.03008 20.1121C4.08767 19.9652 4.1459 19.8167 4.20298 19.6643C4.4059 19.1459 4.7162 18.5355 5.17229 18.2433C5.64906 18.0128 6.17213 17.8743 6.69323 17.8505C7.04198 17.8363 7.37283 17.7605 7.70695 17.6839C7.88146 17.6439 7.93458 17.4134 7.80003 17.2953C7.60117 17.1207 7.41727 16.9295 7.2626 16.6979C6.77696 15.989 6.55335 15.0431 6.43317 14.1784C6.27162 13.0756 6.49523 11.9598 6.90896 10.9533C7.23108 10.1784 7.76499 9.60264 8.37573 9.09723C9.06297 8.53817 9.86654 8.21013 10.6619 7.88544C10.7011 7.86945 10.7402 7.85348 10.7793 7.83749C11.8796 7.39268 13.0991 7.24441 14.2526 7.48792C15.036 7.69595 15.8554 8.09902 16.4739 8.70872C16.4739 8.70874 16.4739 8.70875 16.4739 8.70873C16.474 8.70872 16.474 8.70872 16.474 8.70874C16.6534 8.88563 16.8159 9.07992 16.9557 9.29188C17.3234 9.85685 17.6631 10.4164 17.8851 11.0415C17.8851 11.0415 17.8851 11.0415 17.8851 11.0415C17.8851 11.0415 17.8851 11.0415 17.8851 11.0415C17.9931 11.3456 18.0732 11.6652 18.1151 12.0085C18.2116 12.9728 18.2855 14.0583 17.8166 14.9241C17.4672 15.591 17.0014 16.1936 16.4897 16.7249C16.4836 16.7313 16.4805 16.7344 16.4797 16.7353C16.3539 16.8686 16.4113 17.083 16.5868 17.1357C16.5879 17.136 16.59 17.1366 16.5941 17.1378C17.0596 17.2724 17.5305 17.4086 17.9526 17.6555C17.9655 17.6629 17.9782 17.6705 17.991 17.6782C18.222 17.8233 18.443 17.9964 18.6448 18.1905C18.6448 18.1905 18.6448 18.1906 18.6448 18.1906C18.6448 18.1907 18.6448 18.1907 18.6449 18.1907C18.7261 18.2689 18.8042 18.3504 18.8785 18.4349C19.4755 19.1578 19.7661 20.0474 19.906 20.9987C20.0365 21.5882 19.8601 22.2387 19.6938 22.8518C19.6692 22.9426 19.6448 23.0325 19.6216 23.1214C19.5946 23.2251 19.5811 23.277 19.5531 23.3148C19.5284 23.3482 19.4953 23.3748 19.4576 23.3919C19.4146 23.4113 19.3653 23.4134 19.2667 23.4175C18.9579 23.4306 18.6495 23.427 18.34 23.4204C18.2773 23.419 18.246 23.4184 18.2184 23.4112C18.1922 23.4044 18.1721 23.3956 18.1492 23.3811C18.1252 23.3659 18.1006 23.3407 18.0516 23.2904C17.9747 23.2115 17.8942 23.1354 17.8135 23.0592C17.651 22.9057 17.4882 22.752 17.3549 22.5743C17.3454 22.5616 17.3406 22.5552 17.3347 22.5456C17.3303 22.5385 17.3241 22.5268 17.3206 22.5192C17.316 22.5089 17.3133 22.5012 17.3079 22.4858C17.2049 22.1903 17.1555 21.8571 17.1059 21.5214C17.0419 21.0895 16.9774 20.6535 16.7971 20.2888C16.6631 20.0117 16.4425 19.8029 16.1519 19.7639C15.9173 19.7323 15.6838 19.696 15.4504 19.6597C15.0984 19.605 14.7468 19.5504 14.3923 19.512C14.3047 19.5025 14.2609 19.4977 14.2229 19.4793C14.1908 19.4638 14.1589 19.4379 14.137 19.4098C14.111 19.3764 14.0989 19.3396 14.0748 19.2661C14.0559 19.2088 14.0382 19.1515 14.0205 19.0943C13.942 18.8408 13.8648 18.5916 13.7001 18.37C13.7 18.37 13.7 18.3699 13.7 18.3699C13.7 18.3699 13.7 18.3699 13.7 18.3699C13.7 18.3698 13.7 18.3698 13.7 18.3698C13.7 18.3698 13.7 18.3698 13.7 18.3698C13.7065 18.2575 13.7123 18.145 13.7177 18.0324L13.7229 17.9237C13.7229 17.9237 13.7229 17.9237 13.7229 17.9237C13.7229 17.9237 13.7229 17.9237 13.7229 17.9237C13.728 17.8135 13.7327 17.7033 13.7375 17.593C13.7617 17.0349 13.7859 16.476 13.8478 15.9241C13.8627 15.6715 14.0145 15.5575 14.1767 15.4356C14.1943 15.4224 14.212 15.4091 14.2297 15.3955C14.2297 15.3955 14.2298 15.3955 14.2297 15.3954C14.2297 15.3954 14.2297 15.3953 14.2298 15.3953C14.2642 15.3688 14.2985 15.3413 14.3314 15.3114C14.7264 15.0062 14.955 14.5191 15.151 14.0484C15.3501 13.6457 15.4093 13.1845 15.3597 12.7289C15.3504 12.6436 15.3373 12.5586 15.3206 12.4742Z"
        fill="currentColor"
    />
</svg>
