<svg width="100%" height="100%" viewBox="0 0 26 25" xmlns="http://www.w3.org/2000/svg">
    <path
        fill-rule="evenodd"
        clip-rule="evenodd"
        d="M13.8657 4.60904L13.8657 4.60904C13.7536 4.59737 13.6404 4.5856 13.5261 4.5723C12.9917 4.51086 12.4631 4.56658 11.943 4.68803C11.0657 4.89234 10.187 5.15095 9.36407 5.52243C8.45822 5.93391 7.69383 6.60115 7.04373 7.34553C6.47365 8.02705 5.97643 8.72571 5.69782 9.58011C5.63682 9.77285 5.5734 9.96088 5.51077 10.1466L5.51076 10.1466C5.26091 10.8875 5.02342 11.5917 5.00057 12.4119C4.98628 13.6992 5.23918 14.9737 5.81212 16.1338C6.89228 18.2241 8.80827 19.83 11.1429 20.2958C11.4606 20.3398 11.789 20.3404 12.1167 20.341H12.1167H12.1167H12.1167H12.1168H12.1168H12.1168H12.1168H12.1168H12.1168C12.3535 20.3415 12.5899 20.3419 12.8217 20.3587C12.9675 20.3663 13.1124 20.3853 13.2572 20.4043C13.4372 20.4279 13.617 20.4514 13.7976 20.453C15.6536 20.2901 17.3338 19.3914 18.6254 18.0727C18.7294 17.9498 18.8358 17.8277 18.9426 17.7051L18.9426 17.7051C19.5214 17.041 20.1098 16.3659 20.3571 15.5095C20.3947 15.3766 20.4337 15.2423 20.473 15.1068L20.473 15.1067L20.473 15.1067C20.7278 14.2288 20.9964 13.3032 21.0001 12.4033C20.8858 11.1932 20.5186 9.98016 20.0814 8.84858C19.917 8.42424 19.697 8.02848 19.3841 7.69415C18.8369 7.10407 18.2597 6.51685 17.6139 6.0325C17.149 5.67754 16.581 5.43078 16.0257 5.18948L16.0256 5.18947L16.0256 5.18947C15.8589 5.11705 15.6934 5.04513 15.5321 4.97092C14.9882 4.72586 14.4403 4.66883 13.8657 4.60904ZM13.9234 7.3274C13.8704 7.16336 13.8197 7.00619 13.7525 6.86025C13.7167 6.78249 13.8062 6.97689 13.5484 6.83583C13.4298 6.77095 12.9432 6.73442 12.8162 6.78087C12.5403 6.88187 12.5389 6.88393 12.5362 6.88805C12.0341 7.65208 11.8058 8.65566 11.61 9.51631C11.5898 9.60459 11.6589 9.68792 11.7494 9.68466C12.2173 9.6678 12.6844 9.65467 13.1516 9.64581C13.4839 9.63952 13.6501 9.63637 13.7939 9.582C14.1107 9.46221 14.362 9.10554 14.3683 8.76688C14.3711 8.61317 14.3274 8.48308 14.24 8.22291C14.1853 8.06034 14.1272 7.89845 14.0661 7.73676C14.0105 7.59735 13.9662 7.46013 13.9234 7.32742L13.9234 7.3274ZM9.18328 7.42952C9.45505 7.23006 8.77561 7.72872 8.78649 7.72122C9.36011 7.3259 10.3168 7.98088 10.1557 8.65865C10.1526 8.6715 10.3097 8.08812 10.2469 8.32147C10.1979 8.50347 10.1489 8.68548 10.0988 8.86722C10.0484 9.05016 10.0232 9.14163 9.97192 9.23425C9.86233 9.43206 9.62647 9.61253 9.4069 9.6666C9.30408 9.69191 9.22013 9.69227 9.05223 9.69299C8.57513 9.69503 8.11164 9.65991 7.61743 9.58606C7.54079 9.57461 7.4971 9.49264 7.52912 9.42208C7.67701 9.09612 7.8197 8.78165 8.05102 8.49782C8.38975 8.09837 8.76671 7.73525 9.18328 7.42952ZM18.2223 9.03369C17.9761 8.6144 17.7143 8.1685 17.3526 7.87373C17.2984 7.82917 17.2438 7.78524 17.1888 7.74202C17.0235 7.61216 17.4367 7.93682 17.3766 7.90311C16.81 7.58526 15.9782 8.14566 16.06 8.79024C16.0686 8.85859 16.0156 8.67475 16.0368 8.74829C16.0412 8.76363 16.0456 8.77899 16.05 8.79436C16.0673 8.85513 16.076 8.88552 16.0814 8.90208C16.2059 9.28191 16.5514 9.52503 16.951 9.51385C16.9684 9.51336 16.9845 9.51228 17.0166 9.51012C17.3607 9.48696 17.7032 9.45387 18.0458 9.40746C18.221 9.38373 18.312 9.18639 18.2224 9.03391L18.2224 9.0338L18.2223 9.03372L18.2223 9.03369ZM7.97371 11.3002L7.97373 11.3002C8.40442 11.3365 8.83507 11.3727 9.26661 11.4002C9.48676 11.4143 9.65874 11.5973 9.65464 11.8179C9.65258 11.9295 9.65051 12.041 9.64888 12.1524C9.64123 12.677 9.6374 12.9392 9.57752 13.0906C9.47061 13.3607 9.30719 13.5153 9.03147 13.607C8.87703 13.6583 8.63131 13.6482 8.13987 13.628C8.0205 13.6231 7.90114 13.6181 7.7818 13.613C7.404 13.5966 7.2151 13.5884 7.04402 13.502C6.85045 13.4041 6.66458 13.1862 6.59847 12.9796C6.54005 12.797 6.55976 12.6266 6.59918 12.2858C6.63102 12.0105 6.64693 11.8729 6.735 11.7167C6.83183 11.5449 7.04704 11.3688 7.23458 11.3078C7.40513 11.2524 7.5698 11.2662 7.89913 11.2939C7.92396 11.296 7.94879 11.2981 7.97361 11.3002L7.97364 11.3002L7.97366 11.3002L7.97368 11.3002L7.97371 11.3002ZM14.2387 13.6574C14.6 13.6547 14.898 13.371 14.896 13.0097C14.895 12.829 14.8903 12.646 14.8828 12.4632C14.8706 12.1678 14.8645 12.0201 14.8108 11.8821C14.7159 11.6385 14.4871 11.4276 14.2366 11.3528C14.0947 11.3105 13.9385 11.3168 13.6261 11.3294C13.2227 11.3456 12.8193 11.3642 12.416 11.3828L12.416 11.3828H12.416H12.416H12.4159H12.4159C12.2923 11.3885 12.2305 11.3913 12.1672 11.4036C11.8112 11.4723 11.5045 11.7962 11.4552 12.1554C11.4464 12.2192 11.4469 12.271 11.4477 12.3746C11.4495 12.5823 11.4536 12.7917 11.4576 12.9965V12.9965V12.9965V12.9965V12.9966C11.4647 13.3615 11.7585 13.6588 12.1235 13.662C12.8328 13.6681 13.5287 13.6628 14.2376 13.6574H14.2376H14.2376H14.2376H14.2376L14.2387 13.6574ZM16.4335 12.2391C16.4326 12.1954 16.4321 12.1735 16.4343 12.1373C16.4588 11.7317 16.8236 11.35 17.2278 11.3071C17.2638 11.3032 17.2805 11.3028 17.3138 11.302C17.5536 11.2962 17.7936 11.2942 18.0336 11.2921C18.0693 11.2918 18.1049 11.2915 18.1406 11.2911C18.5194 11.2877 18.7088 11.286 18.8784 11.3575C19.0544 11.4318 19.2471 11.6139 19.3311 11.7855C19.4121 11.9507 19.4184 12.0852 19.4312 12.3543C19.4431 12.6062 19.4491 12.7322 19.3787 12.9101C19.3109 13.0814 19.1049 13.3032 18.939 13.3834C18.7667 13.4667 18.6171 13.4706 18.3177 13.4785C18.2377 13.4806 18.1578 13.4824 18.0778 13.4843H18.0778C17.9831 13.4864 17.8884 13.4886 17.7937 13.4912C17.4495 13.5007 17.2774 13.5055 17.2005 13.4941C16.7714 13.4307 16.5429 13.2131 16.4586 12.7875C16.4435 12.7113 16.4402 12.5539 16.4335 12.2391ZM8.06457 15.1757C7.67112 15.172 7.41021 15.6017 7.62255 15.9329C7.96552 16.468 8.35009 16.9817 8.78949 17.4307C9.22 17.8589 9.72442 18.161 10.2657 18.412C10.4147 18.4811 10.5705 18.3412 10.5226 18.1841C10.3701 17.684 10.2189 17.1883 10.1225 16.6692C10.1027 16.5675 10.0844 16.4636 10.0659 16.3588C10.0469 16.251 10.0277 16.1423 10.0066 16.0339C9.96977 15.8456 9.95138 15.7515 9.85261 15.6034C9.78678 15.5047 9.61071 15.3506 9.50418 15.2984C9.34432 15.2201 9.23918 15.2137 9.02888 15.201C8.70956 15.1818 8.38645 15.1787 8.06457 15.1757ZM16.9827 15.2628C16.9882 15.2627 16.991 15.2626 17.0179 15.2637C17.7014 15.2916 18.1032 16.1381 17.6927 16.6853C17.6766 16.7068 17.7215 16.6539 17.7035 16.6751C17.5305 16.8787 17.3554 17.0805 17.1806 17.2818C17.1034 17.3707 17.0263 17.4595 16.9495 17.5484C16.5989 17.9471 16.1772 18.1147 15.7274 18.2934C15.5564 18.3614 15.3763 18.1899 15.439 18.0169C15.6692 17.382 15.881 16.7332 16.028 16.0741C16.0474 15.9876 16.057 15.9443 16.0609 15.9292C16.166 15.5255 16.4559 15.2884 16.8724 15.2655C16.888 15.2647 16.9196 15.264 16.9827 15.2628ZM13.1868 15.2815C12.7753 15.2618 12.364 15.2421 11.9513 15.2429C11.6812 15.2434 11.4887 15.4973 11.5469 15.761C11.7697 16.7698 11.987 17.7533 12.4864 18.672C12.5475 18.7843 12.6784 18.8405 12.8051 18.8237C13 18.7977 13.2105 18.7697 13.3229 18.6264C13.6903 18.2181 13.8914 17.6196 14.0644 17.1048L14.0701 17.0877L14.0772 17.0661C14.1217 16.9314 14.1661 16.7968 14.2097 16.6621C14.2757 16.4577 14.3087 16.3555 14.3167 16.2498C14.3473 15.8429 14.0719 15.4448 13.6804 15.33C13.5787 15.3002 13.4481 15.294 13.1868 15.2815Z"
        fill="currentColor"
    />
</svg>
