<svg
  width="100%"
  height="100%"
  fill="currentColor"
  xmlns="http://www.w3.org/2000/svg"
  viewBox="0 0 25 25"
>
    <path d="M15.797 5.02c.695.039 1.544.2 2.055.711.618.54 1.125 1.2 1.148 2.055.015.75-.41 1.48-.824 2.08-.417.604-.965 1.025-1.467 1.544-.579.63-1.215 1.199-1.775 1.849-1.179 1.245-2.242 2.608-3.714 3.527-.675.503-1.761.31-2.283-.332-.389-.44-.672-.946-.493-1.552.192-.808.804-1.24 1.351-1.805.664-.696 1.42-1.289 2.062-2.008.652-.563 1.149-1.312 1.838-1.82.423-.311 1.283.187.996.711-.533.754-1.229 1.407-1.833 2.107-.753.761-1.4 1.607-2.194 2.328-.261.27-.605.472-.59.89.192.11.264.208.47.056 1.504-.965 2.69-2.416 3.95-3.606.944-.972 1.847-1.974 2.603-3.102.259-.342.034-.9-.2-1.203-.343-.445-.86-.58-1.4-.591-.8.381-1.546.998-2.203 1.586-.928.729-1.759 1.563-2.53 2.455-.8.807-1.589 1.638-2.305 2.523-.356.469-.742 1.006-.816 1.604-.104.935.269 1.888.944 2.534.662.508 1.594.772 2.402.48.836-.229 1.507-.904 2.087-1.515 1.383-1.375 2.656-2.877 4.063-4.23.223-.224.493-.287.776-.416.36.294.67.52.622 1.04-.088.587-.727 1.058-1.103 1.483-.794.91-1.583 1.83-2.417 2.705-.953.878-1.918 1.983-3.166 2.424-.685.242-1.347.523-2.089.432-.61-.048-1.1-.32-1.631-.592-.967-.492-1.61-1.566-1.922-2.57-.24-1.015-.352-2.141.107-3.114.997-1.886 2.695-3.237 4.061-4.836.524-.59 1.12-1.094 1.725-1.593.507-.412.89-.911 1.44-1.27.696-.457 1.371-1.01 2.255-.968Z" />
</svg>
