<svg width="100%" height="100%" viewBox="0 0 26 25" xmlns="http://www.w3.org/2000/svg">
    <path
        fill-rule="evenodd"
        clip-rule="evenodd"
        d="M15.7741 4.08019C15.9536 4.10647 16.1312 4.10523 16.3057 4.10401C16.5594 4.10223 16.8068 4.1005 17.0448 4.18335C17.5942 4.35347 18.107 4.66209 18.6003 4.95902L18.6993 5.01858C19.0684 5.25063 19.3081 5.55188 19.5539 5.86076C19.7084 6.05494 19.8654 6.25214 20.0583 6.43707C20.5236 6.89634 20.844 7.51136 21.0334 8.13133C21.1346 8.45517 21.1706 8.77404 21.2073 9.0992L21.2073 9.09926C21.2224 9.23323 21.2376 9.36828 21.2576 9.50518C21.3559 10.0596 21.3072 10.6434 21.2602 11.2065L21.2477 11.3572C21.2171 11.484 21.1883 11.6137 21.1592 11.7446C21.0232 12.3564 20.8815 12.9935 20.5285 13.4879C20.1605 14.0106 19.7101 14.5582 19.1646 14.9024C18.7648 15.1434 18.2073 14.9332 17.8641 14.6762C17.4039 14.3479 17.3354 13.6476 17.6717 13.2101C17.7552 13.1107 17.8467 13.0227 17.9378 12.9352C18.0792 12.7993 18.2197 12.6642 18.3284 12.488C18.7341 11.8025 19.0872 11.1439 19.0455 10.3186C19.0356 9.48435 18.6765 8.81974 18.2827 8.1105C18.054 7.6808 17.6078 7.38 17.1971 7.1031L17.197 7.10307C17.1394 7.06421 17.0825 7.02582 17.0269 6.9876C16.5924 6.78425 16.1242 6.56602 15.6531 6.47675C15.4409 6.48973 15.2276 6.49674 15.0143 6.50375C14.7061 6.51387 14.398 6.52399 14.0937 6.55214C13.9366 6.64176 13.7951 6.75489 13.6533 6.86831C13.5156 6.97836 13.3776 7.08867 13.2248 7.17806C12.7109 7.48656 12.3042 7.89723 11.8926 8.32575C11.4759 8.75824 10.7409 8.75328 10.3094 8.34559C9.91163 7.99245 9.81045 7.37348 10.0852 6.91519C10.4909 6.23074 11.0653 5.64053 11.6743 5.13463C12.4064 4.69619 13.2287 4.38174 14.0401 4.12185C14.5857 3.93338 15.2136 3.99984 15.7741 4.08019ZM15.5378 9.0749C15.8492 9.22567 16.1319 9.47366 16.366 9.7276C16.5664 9.95873 16.5267 10.2246 16.4414 10.4954C16.2252 11.1153 15.8145 11.6282 15.3473 12.0785C15.0529 12.3871 14.7633 12.7021 14.4734 13.0173L14.4734 13.0174L14.4734 13.0174C13.8277 13.7196 13.1807 14.4233 12.4756 15.0613C12.4147 15.1192 12.3563 15.1839 12.2976 15.249C12.1641 15.3969 12.0285 15.5472 11.8556 15.6258C11.8075 15.6488 11.7594 15.6726 11.711 15.6965L11.711 15.6965C11.518 15.7919 11.3219 15.8888 11.1156 15.9452C10.7615 15.972 10.3598 15.8331 10.0612 15.6466C9.82609 15.3907 9.59397 15.0465 9.57016 14.6903C9.48684 14.1686 9.84989 13.6319 10.211 13.2887C10.7287 12.8517 11.1666 12.3648 11.6095 11.8721L11.6095 11.8721C11.8362 11.62 12.0642 11.3665 12.305 11.1173C12.6992 10.6744 13.1315 10.273 13.5646 9.87092L13.5646 9.87091L13.5647 9.87085C13.7484 9.7003 13.9322 9.52963 14.1133 9.35562C14.5151 9.0987 15.0686 8.86658 15.5378 9.0749ZM8.55254 11.4296C8.90369 10.9167 8.68149 10.0795 8.05755 9.89898C7.4108 9.74424 6.67378 10.015 6.27501 10.5477C6.21446 10.6256 6.15278 10.7027 6.09106 10.7799C5.96167 10.9416 5.83212 11.1036 5.71257 11.2728C5.24834 12.0575 4.8952 12.8937 4.72856 13.7934C4.60952 15.1405 4.71665 16.4647 5.31579 17.6947C5.60743 18.2502 6.09844 18.7264 6.58847 19.1093C7.06758 19.5418 7.56158 19.9455 8.14484 20.2322C8.27685 20.2959 8.39605 20.3672 8.51273 20.4369C8.73364 20.5689 8.94552 20.6956 9.21814 20.7559C10.0613 20.9603 10.8697 21.115 11.7288 20.8869C13.2832 20.7202 14.8911 19.9872 15.8335 18.7055C15.9006 18.6284 15.9698 18.5593 16.0371 18.4923C16.2422 18.2877 16.4282 18.1021 16.4753 17.7652C16.6112 16.9984 15.9495 16.309 15.1788 16.4122C14.5614 16.5156 14.1129 17.0276 13.7142 17.4826C13.6657 17.5379 13.618 17.5924 13.5708 17.6452C13.1046 18.0757 12.4777 18.4625 11.83 18.4982C11.4934 18.5238 11.1535 18.5158 10.8152 18.5078C10.7467 18.5061 10.6782 18.5045 10.6098 18.5032C10.2906 18.4988 9.97613 18.3963 9.66294 18.2942C9.54795 18.2567 9.43314 18.2193 9.31833 18.1868C8.92921 18.0807 8.62232 17.8094 8.32538 17.5469C8.29455 17.5196 8.26382 17.4925 8.23313 17.4656C8.15009 17.389 8.05895 17.3149 7.96685 17.2401C7.76191 17.0734 7.55226 16.903 7.41675 16.6929C6.99616 15.8864 6.9664 14.9778 7.03088 14.089C7.08643 13.6258 7.14297 13.1814 7.44849 12.8084C7.55766 12.6744 7.67122 12.5413 7.78532 12.4075C8.05484 12.0914 8.32744 11.7717 8.55254 11.4296Z"
        fill="currentColor"
    />
</svg>
