<svg width="100%" height="100%" viewBox="0 0 26 25" xmlns="http://www.w3.org/2000/svg">
    <path
        fill-rule="evenodd"
        clip-rule="evenodd"
        d="M12.6777 4.28067C12.5713 4.29796 12.4587 4.31626 12.3324 4.32753C11.9796 4.36504 11.6755 4.47944 11.3618 4.59746C11.2372 4.64432 11.1111 4.69175 10.9798 4.73517C10.7036 4.82575 10.4461 4.95542 10.2223 5.14369C9.91485 5.39837 9.61116 5.68169 9.33581 5.98965C8.72676 6.67086 8.37206 7.54226 8.23323 8.44543C8.14966 8.98907 8.12184 9.54125 8.16168 10.0866C8.16355 10.1122 8.16789 10.1375 8.17515 10.1621C8.20373 10.2589 8.24181 10.361 8.29004 10.4598C8.38107 10.6464 8.29808 10.9341 8.1002 10.9968C7.43619 11.1874 6.70863 11.503 6.37765 12.1507C5.99068 12.7426 5.99835 13.4562 6.00574 14.1442C6.0073 14.2888 6.00884 14.4322 6.0067 14.5731C6.0155 14.9687 6.01056 15.3529 6.00569 15.7311C5.99186 16.806 5.97866 17.8322 6.28338 18.9313C6.40532 19.3607 6.77524 19.6865 7.1052 19.9653C7.31752 20.1436 7.55166 20.2136 7.80179 20.2883C7.85346 20.3037 7.90581 20.3194 7.95879 20.3362C8.1026 20.3792 8.23721 20.4306 8.36973 20.4813C8.64515 20.5867 8.91151 20.6885 9.23252 20.7031C9.40182 20.7082 9.56999 20.7189 9.73757 20.7295L9.73772 20.7295C10.0762 20.7511 10.4123 20.7725 10.7501 20.7471L10.8398 20.7412H10.8399C11.0481 20.7272 11.2547 20.7133 11.4644 20.7277C12.4514 20.7971 13.3952 20.7541 14.3577 20.7102L14.358 20.7102C14.6884 20.6951 15.021 20.68 15.3583 20.6693C16.1801 20.6693 17.0286 20.6242 17.8279 20.4284C18.4673 20.2686 18.8874 19.8136 19.3178 19.3463C19.8684 18.708 20.0083 17.7942 19.9996 16.9513C19.9969 16.6819 19.9772 16.4088 19.9576 16.1378C19.9343 15.8147 19.9112 15.4948 19.9173 15.188C19.9108 14.9507 19.9145 14.7054 19.9183 14.4572V14.4572C19.9282 13.8073 19.9384 13.1375 19.7656 12.539C19.6611 12.0646 19.2123 11.6854 18.8546 11.3852L18.835 11.3687C18.606 11.1762 18.3195 10.9354 17.8155 10.7881C17.601 10.7254 17.4983 10.4517 17.5314 10.2307C17.6069 9.34084 17.5419 8.18995 17.2639 7.33738C17.0259 6.75745 16.7337 6.10648 16.2417 5.70062C15.859 5.37291 15.4655 5.03898 15.0313 4.78144C14.6634 4.59032 14.2396 4.48532 13.8278 4.38332C13.7057 4.35307 13.5846 4.32309 13.4664 4.29121C13.1651 4.20149 12.9401 4.23804 12.6777 4.28067ZM15.4679 10.6514C15.4948 10.6514 15.5112 10.6213 15.4979 10.5978C15.4948 10.5924 15.4918 10.587 15.4888 10.5815C15.3056 10.2178 15.3101 9.77507 15.3145 9.34428C15.3171 9.08601 15.3197 8.83205 15.2817 8.60203C15.2663 8.5138 15.2558 8.42375 15.2453 8.33379C15.2205 8.12222 15.1958 7.91117 15.1085 7.72548C15.0936 7.69186 15.079 7.65842 15.0645 7.62523C14.9278 7.31208 14.8003 7.02022 14.5233 6.79298C13.9464 6.36646 13.511 6.36717 12.8395 6.36826C12.8049 6.36832 12.7697 6.36838 12.7338 6.36838C12.6198 6.36305 12.5018 6.40225 12.3888 6.43978C12.3513 6.45225 12.3143 6.46454 12.2782 6.47495C12.1952 6.50407 12.1131 6.52924 12.0324 6.55396C11.7441 6.64234 11.4746 6.72497 11.2463 6.96163C11.2244 6.98424 11.2021 7.00708 11.1796 7.03017C10.8957 7.32165 10.5746 7.65136 10.4585 8.03978C10.3561 8.33386 10.3497 8.62057 10.3432 8.91575C10.3401 9.05558 10.337 9.19731 10.3235 9.34262C10.3064 9.49481 10.2996 9.64467 10.2928 9.79308C10.2916 9.82087 10.2903 9.8486 10.289 9.87629C10.2698 10.2771 10.591 10.6836 10.9922 10.6829C11.4192 10.6821 11.849 10.6812 12.2852 10.6535C13.3828 10.6462 14.4803 10.6489 15.4671 10.6514L15.4679 10.6514ZM14.8501 12.4444H14.8503H14.8508C15.1856 12.4451 15.5032 12.4458 15.7955 12.4458C16.7062 12.4458 17.071 12.7156 17.3335 12.9098L17.348 12.9205C17.6116 13.1153 17.9426 13.3613 18.0196 13.6691C18.147 14.0573 18.1395 14.4919 18.1322 14.9135C18.1294 15.0745 18.1266 15.2337 18.1314 15.3876C18.1269 15.5866 18.144 15.7942 18.1612 16.0038C18.1751 16.174 18.1892 16.3455 18.192 16.5148C18.201 17.0749 18.0816 17.6854 17.6895 18.0854C17.3721 18.3886 17.0624 18.6838 16.5909 18.7875C16.0016 18.9144 15.376 18.9437 14.7701 18.9437C14.5213 18.9507 14.276 18.9605 14.0323 18.9703C13.3227 18.9987 12.6268 19.0266 11.899 18.9816C11.7444 18.9723 11.5921 18.9813 11.4386 18.9904H11.4386L11.3724 18.9942C11.1233 19.0107 10.8756 18.9968 10.626 18.9828H10.626L10.6259 18.9828C10.5023 18.9759 10.3783 18.9689 10.2535 18.9656C10.0168 18.9562 9.82041 18.8901 9.61735 18.8218C9.51964 18.7889 9.42038 18.7555 9.31435 18.7276C9.27529 18.7167 9.23669 18.7066 9.19859 18.6965C9.01417 18.6481 8.84154 18.6027 8.68499 18.487C8.44171 18.3061 8.16896 18.0947 8.07905 17.8162C7.85438 17.1031 7.86412 16.4373 7.87432 15.74C7.8779 15.4946 7.88155 15.2453 7.87506 14.9887C7.87663 14.8973 7.8755 14.8042 7.87435 14.7104C7.8689 14.2641 7.86324 13.8011 8.14856 13.4171C8.3926 12.9969 8.92903 12.7922 9.41862 12.6685C10.1405 12.4672 10.8406 12.466 11.5509 12.4648H11.551C11.8658 12.4643 12.1826 12.4638 12.5042 12.4458C13.3134 12.4411 14.1226 12.4428 14.8501 12.4444Z"
        fill="currentColor"
    />
</svg>
