<svg width="100%" height="100%" viewBox="0 0 25 25" xmlns="http://www.w3.org/2000/svg">
    <path
        fill-rule="evenodd"
        clip-rule="evenodd"
        d="M13.156 4.01477C12.7126 3.76639 12.2631 3.64297 11.7541 3.62164C10.9542 3.58964 10.1222 3.57593 9.34358 3.77858C8.87036 3.89346 8.44089 4.15778 8.01028 4.42279C7.81832 4.54093 7.62614 4.65921 7.42975 4.76445C6.20923 5.46994 5.24926 6.46191 4.5651 7.69309C4.35396 8.08265 4.30885 8.56729 4.26508 9.03755C4.24568 9.24604 4.22653 9.45171 4.1933 9.64501C4.01198 10.765 3.83523 12.1257 4.27559 13.1999C4.57729 13.9511 4.86376 14.6444 5.49459 15.1823C5.88016 15.5397 6.30721 15.7547 6.74456 15.975C6.99337 16.1002 7.24552 16.2272 7.49527 16.383C7.97068 16.6725 8.45218 16.927 9.00073 17.0428C10.267 17.3384 11.6597 17.6081 12.9046 17.09C13.4882 16.8417 14.2043 17.0001 14.5837 17.5197C15.3309 18.4523 16.1594 19.3271 16.9813 20.195C17.0243 20.2404 17.0672 20.2857 17.1101 20.331C17.7044 20.9329 18.4571 21.4693 19.347 21.3885C20.4227 21.2956 21.1998 20.2838 20.9545 19.2202C20.7815 18.6962 20.3238 18.25 19.9077 17.8443C19.7999 17.7392 19.6949 17.6368 19.5984 17.5365C19.3185 17.2397 19.0088 16.9398 18.693 16.6339C17.9533 15.9174 17.1799 15.1683 16.6758 14.3503C16.623 13.7978 16.8219 13.1974 17.0115 12.6248C17.1007 12.3557 17.1878 12.0927 17.2457 11.8438C17.619 10.4633 17.4773 8.92275 16.848 7.63824C16.4899 6.88398 15.9551 6.19982 15.3974 5.5827C14.8211 4.95631 14.1463 4.57496 13.4294 4.1699C13.3389 4.11875 13.2477 4.06722 13.156 4.01477ZM13.9083 7.23106C13.5254 6.77723 13.0399 6.47281 12.53 6.18333C11.5626 5.51099 10.0983 5.66227 9.17574 6.35515C9.10486 6.39647 9.03311 6.43782 8.96089 6.47944C8.18432 6.92698 7.352 7.40665 6.9402 8.23024C6.52864 8.92623 6.42669 9.68576 6.32146 10.4697C6.30301 10.6072 6.28446 10.7454 6.26412 10.8841C6.11471 11.8347 6.53119 12.8862 7.30812 13.4595C7.84786 13.9283 8.45111 14.3448 9.07676 14.6903C9.62155 14.8304 10.1926 14.8999 10.753 14.9681C10.7901 14.9726 10.8271 14.9771 10.8641 14.9817C11.4609 15.0732 12.0389 14.8355 12.5973 14.6059C12.7221 14.5546 12.846 14.5036 12.9689 14.4569C13.5286 14.2523 13.8884 13.7478 14.2215 13.2807L14.2258 13.2747C14.915 12.2381 15.3744 10.9738 15.1951 9.71498C15.1036 8.74943 14.5209 7.94262 13.9083 7.23106Z"
        fill="currentColor"
    />
</svg>
