<svg width="100%" height="100%" viewBox="0 0 26 25" xmlns="http://www.w3.org/2000/svg">
    <path
        fill-rule="evenodd"
        clip-rule="evenodd"
        d="M16.6732 6.20313C16.6768 5.85189 16.6802 5.5208 16.4594 5.20584C16.1639 4.82513 15.5412 4.8415 15.2819 5.25321C15.0649 5.6365 15.0304 6.11971 15.0235 6.55038C15.0231 6.73564 15.0035 6.91769 14.9839 7.09937C14.9604 7.31723 14.937 7.53456 14.9469 7.75624C14.965 8.10455 14.9606 8.45225 14.9561 8.80036C14.9553 8.86632 14.9545 8.93229 14.9538 8.99828C14.5401 8.99934 14.1275 9.01311 13.7151 9.02687C13.1204 9.04671 12.5259 9.06655 11.9288 9.04824C11.9352 8.55603 11.9642 8.06551 11.9933 7.57491C12.0152 7.20527 12.0371 6.83558 12.0494 6.46511C12.0484 6.36604 12.0606 6.26454 12.0727 6.16329C12.1021 5.91855 12.1314 5.67523 11.9736 5.47113C11.7376 5.07492 11.07 5.05252 10.8039 5.42548C10.5167 5.84663 10.4746 6.28796 10.4284 6.77172C10.425 6.80738 10.4215 6.84327 10.418 6.87941C10.4036 7.08745 10.3879 7.29542 10.3722 7.50338C10.3315 8.04364 10.2907 8.58382 10.2733 9.1249C10.0175 9.1291 9.76133 9.12784 9.50512 9.12659C9.07806 9.12451 8.65088 9.12242 8.22505 9.14557C8.03707 9.1644 7.84897 9.18014 7.66093 9.19588C7.33286 9.22334 7.00496 9.25078 6.6781 9.29458C6.56257 9.30862 6.44254 9.31155 6.32197 9.31449C6.11713 9.31948 5.9107 9.32452 5.72202 9.38416C5.33873 9.48752 5.1277 9.98537 5.29308 10.3385C5.3861 10.5823 5.63072 10.7812 5.89687 10.7838C6.07887 10.7915 6.26087 10.783 6.443 10.7744C6.60651 10.7668 6.77011 10.7591 6.93391 10.7632C7.7927 10.7909 8.65316 10.7885 9.51305 10.786C9.72 10.7854 9.92691 10.7849 10.1338 10.7847C10.1224 11.1808 10.098 11.576 10.0735 11.9713C10.0423 12.4769 10.011 12.9826 10.0071 13.4901C9.52824 13.5194 9.05021 13.5366 8.57044 13.528C7.8038 13.5144 7.02373 13.5852 6.25398 13.655C6.04908 13.6735 5.84491 13.6921 5.64192 13.7089C5.57829 13.7152 5.51239 13.7185 5.44577 13.7219C5.17507 13.7356 4.89263 13.7499 4.70393 13.9656C4.34044 14.3291 4.48515 14.969 4.96146 15.1516C5.21795 15.2081 5.48662 15.2214 5.75107 15.2344C5.80101 15.2369 5.85079 15.2393 5.90032 15.2421C6.84778 15.261 7.79611 15.2524 8.74185 15.2025C9.13462 15.1646 9.52738 15.1516 9.92187 15.1465C9.92218 15.461 9.92945 15.777 9.93673 16.0934C9.95009 16.6739 9.96348 17.2557 9.93393 17.8321C9.87536 18.3739 9.90723 18.9708 10.1071 19.4824C10.2466 19.8166 10.5196 20.0543 10.8926 20.0681C11.1768 20.0328 11.4456 19.8933 11.5687 19.6219C11.6622 19.434 11.6545 19.2416 11.6468 19.0478C11.641 18.9022 11.6352 18.7558 11.6721 18.6099C11.7672 18.2453 11.7648 17.8814 11.7623 17.5103C11.7621 17.4747 11.7618 17.439 11.7617 17.4032C11.7569 17.1306 11.757 16.8582 11.7571 16.5859C11.7573 16.076 11.7575 15.5664 11.7255 15.056C12.3827 15.0017 13.0439 14.996 13.7048 14.9904C14.0911 14.9871 14.4773 14.9838 14.8625 14.9708C14.7738 16.2007 14.704 17.4643 14.7875 18.696C14.8002 18.7777 14.8091 18.8647 14.8183 18.9537C14.8505 19.2692 14.8854 19.61 15.1011 19.8304C15.4559 20.1603 16.083 20.0647 16.2794 19.6039C16.3035 19.5303 16.3287 19.4574 16.3537 19.3849C16.4718 19.0431 16.587 18.7095 16.5757 18.3506C16.5761 18.0062 16.5751 17.6615 16.574 17.3169C16.5731 17.0298 16.5722 16.7426 16.5722 16.4557C16.5739 16.2042 16.5561 15.954 16.5382 15.7037C16.5206 15.4559 16.5029 15.2081 16.5042 14.9587C16.9061 14.9465 17.3087 14.9504 17.712 14.9543C18.2801 14.9598 18.8498 14.9653 19.4215 14.926C19.737 14.9028 20.0498 14.9188 20.3632 14.9349C20.4801 14.941 20.5971 14.947 20.7144 14.9509C21.0193 14.9639 21.3173 14.7701 21.4112 14.4764C21.5499 14.1318 21.3733 13.7012 21.027 13.5616C20.808 13.4809 20.5692 13.4587 20.3356 13.4369C20.2899 13.4327 20.2444 13.4285 20.1993 13.4238C19.3334 13.3127 18.4379 13.3254 17.5473 13.3381C17.195 13.3431 16.8434 13.3481 16.4947 13.3454C16.4973 12.975 16.493 12.6055 16.4689 12.2352C16.4484 11.8946 16.4548 11.5571 16.4613 11.2187C16.4652 11.0152 16.4691 10.8114 16.4671 10.6064C17.2205 10.5935 17.9739 10.5956 18.7273 10.5976C19.1315 10.5987 19.5358 10.5998 19.94 10.5986C20.0021 10.5979 20.0665 10.5983 20.1324 10.5987C20.4591 10.6005 20.8219 10.6026 21.1071 10.4729C21.5275 10.2472 21.636 9.6684 21.3078 9.31611C20.9995 8.99828 20.443 8.94832 20.0262 8.94057C19.3444 8.93258 18.6617 8.94457 17.9792 8.95657C17.4847 8.96525 16.9903 8.97394 16.4964 8.97503C16.5159 8.73994 16.54 8.50369 16.5642 8.26693C16.6257 7.66571 16.6874 7.06121 16.6739 6.46424C16.6715 6.37596 16.6724 6.28895 16.6732 6.20313ZM14.9173 11.4599C14.9526 11.1765 14.9501 10.8932 14.9449 10.6081C14.4049 10.6537 13.8652 10.6659 13.3254 10.6781C12.8355 10.6892 12.3455 10.7003 11.8553 10.7364C11.8524 11.1197 11.8277 11.5004 11.8029 11.8808C11.769 12.4039 11.735 12.9263 11.758 13.4539C12.7342 13.4645 13.7074 13.431 14.6826 13.3974C14.7356 13.3955 14.7885 13.3937 14.8415 13.3919C14.8554 13.1422 14.8573 12.8937 14.8591 12.6459C14.862 12.2492 14.8648 11.8544 14.9173 11.4599Z"
        fill="currentColor"
    />
</svg>
