<svg width="100%" height="100%" viewBox="0 0 26 25" xmlns="http://www.w3.org/2000/svg">
    <path
        fill-rule="evenodd"
        clip-rule="evenodd"
        d="M18.991 7.53107C19.0581 7.03218 18.6668 6.5263 18.1609 6.48997C17.1966 6.44332 16.2374 6.47768 15.2776 6.51205C14.5698 6.5374 13.8617 6.56277 13.1511 6.55565C11.2002 6.64369 9.23402 6.76387 7.29995 7.03777C6.82761 7.08668 6.46987 7.47377 6.50201 7.95729C6.54114 8.43522 6.93522 8.7776 7.41454 8.75524L7.60085 8.75047H7.60085H7.60086C8.35543 8.73119 9.11304 8.71184 9.86706 8.67698C10.4536 8.60214 11.0411 8.57607 11.6289 8.54999C12.0509 8.53127 12.4731 8.51254 12.8953 8.47575C13.1419 8.47202 13.3882 8.47028 13.6343 8.46854H13.6343H13.6343H13.6343C14.3116 8.46376 14.9879 8.45898 15.6665 8.41286C16.0712 8.38313 16.4778 8.38672 16.8842 8.39031C17.3184 8.39414 17.7523 8.39797 18.1833 8.36115C18.6095 8.32482 18.9603 7.9545 18.991 7.53107ZM19.4801 10.319C19.3362 9.82568 18.8303 9.51544 18.3231 9.5923C17.2442 9.69857 16.1683 9.71414 15.0889 9.72976C14.8624 9.73303 14.6357 9.73631 14.4088 9.74043C13.3858 9.80598 12.3629 9.85428 11.3396 9.9026L11.3396 9.9026H11.3396C10.6393 9.93566 9.93889 9.96874 9.23825 10.0073C9.02725 10.0226 8.79556 10.0185 8.55724 10.0144C7.98582 10.0045 7.3763 9.99385 6.92267 10.2463C6.34972 10.6404 6.4727 11.5264 7.14766 11.715C8.36484 11.8324 9.7036 11.7625 10.9166 11.6577C11.9004 11.6843 12.866 11.6689 13.8456 11.5851C14.5653 11.5305 15.2914 11.5343 16.0181 11.5382C16.8735 11.5427 17.7297 11.5472 18.5774 11.4565C19.1266 11.4118 19.6045 10.8835 19.4801 10.319ZM14.5223 13.0524H14.5224H14.5224C15.2301 13.0496 15.9379 13.0469 16.6461 13.0188C16.8932 13.0108 17.143 12.9891 17.3931 12.9674C17.7525 12.9362 18.1126 12.905 18.4669 12.914C18.9518 12.9252 19.3445 13.343 19.3557 13.8224C19.3739 14.3045 18.9546 14.7754 18.4641 14.774C18.2316 14.7784 17.9985 14.7633 17.7655 14.7483L17.7655 14.7483C17.6233 14.7391 17.4811 14.7299 17.3392 14.7251C16.6357 14.7402 15.9331 14.7428 15.2308 14.7454H15.2307C13.9786 14.7501 12.7275 14.7547 11.4741 14.8299C10.7175 14.793 9.9711 14.8497 9.22395 14.9066C8.67112 14.9486 8.11788 14.9907 7.55985 14.9948C7.23285 15.0032 6.9282 14.9319 6.73256 14.6497C6.42233 14.1871 6.63893 13.4884 7.21189 13.3724C7.46633 13.3346 7.72358 13.3196 7.981 13.3046C8.23819 13.2896 8.49556 13.2745 8.75048 13.2368C9.3546 13.1563 9.95594 13.1528 10.5577 13.1493C10.9999 13.1468 11.4424 13.1442 11.8863 13.1111C12.7649 13.0592 13.6435 13.0558 14.5223 13.0524ZM10.0739 16.4007C9.23962 16.3644 8.39276 16.328 7.55988 16.3965C7.14205 16.4342 6.7829 16.7612 6.70465 17.1735C6.58167 17.7017 6.90169 18.2719 7.4425 18.3893C7.86119 18.4612 8.30051 18.4576 8.7362 18.4539C8.95199 18.4521 9.1669 18.4503 9.37796 18.4577C10.118 18.4818 10.8581 18.4803 11.5981 18.4787C12.535 18.4768 13.4719 18.4748 14.4088 18.5248L14.4218 18.5253C14.9054 18.5433 15.3272 18.559 15.6707 18.1615C16.0634 17.7115 16.0033 16.982 15.5323 16.6117C15.2403 16.3616 14.9133 16.3672 14.5499 16.3741C13.0574 16.4147 11.5664 16.4412 10.0739 16.4007Z"
        fill="currentColor"
    />
</svg>
