<svg width="100%" height="100%" viewBox="0 0 26 25" xmlns="http://www.w3.org/2000/svg">
    <path
        d="M15.8575 5.66138C16.7985 5.69704 17.7257 5.9823 18.4032 6.66578C19.0094 6.46965 19.5998 6.20222 20.2179 6.04571C20.8063 5.93279 21.1352 6.53702 20.947 7.0422C20.5884 7.87822 19.7761 8.54188 19.1917 9.23131C19.4195 10.6597 19.0015 11.9573 18.4944 13.2747C17.5415 15.5748 15.6911 17.2944 13.4723 18.3642C12.3569 18.7743 11.1009 19.117 9.92612 19.2973C8.73548 19.3508 7.29521 19.4379 6.18976 18.9248C5.76581 18.7148 5.53997 18.4612 5.68657 17.96C6.80192 17.3201 8.09558 17.2131 9.15745 16.4148C8.10747 16.0819 7.1605 15.5748 6.46514 14.6991C5.68062 13.7522 4.84658 12.3456 5.03676 11.0718C5.19921 10.6557 5.51223 10.7468 5.88468 10.6716C5.2329 9.48291 4.82678 8.18728 5.07243 6.82428C5.39733 6.64796 5.54393 6.45381 5.88864 6.74305C6.49288 7.20663 6.99806 7.7554 7.65974 8.14963C9.11189 9.07877 10.8453 9.41753 12.5154 9.73648C12.5075 8.99159 12.4857 8.29822 12.8304 7.61672C13.3871 6.42806 14.5956 5.80402 15.8575 5.66138Z"
        fill="currentColor"
    />
</svg>
