<svg width="100%" height="100%" viewBox="0 0 26 25" xmlns="http://www.w3.org/2000/svg">
    <path
        fill-rule="evenodd"
        clip-rule="evenodd"
        d="M11.5507 6.48749C11.2511 6.49788 10.9583 6.50803 10.6782 6.51022C10.3829 6.52411 10.0756 6.53143 9.76146 6.5389C8.32281 6.57314 6.74245 6.61074 5.53332 7.2994C4.66107 7.74244 4.20419 8.84729 4.07127 9.76662C3.96257 10.5887 4.00077 11.4326 4.03888 12.2748C4.0629 12.8056 4.08689 13.3358 4.07405 13.8593C4.08238 14.0818 4.07867 14.3116 4.07493 14.5436C4.06624 15.0825 4.05736 15.6333 4.19866 16.1327C4.53648 16.9966 5.31734 17.6972 6.10652 18.1513C7.44195 18.6388 8.97854 18.5564 10.4578 18.4771C11.1041 18.4424 11.7395 18.4083 12.3424 18.4227C12.4624 18.4221 12.5856 18.4225 12.7112 18.4229C13.9515 18.4265 15.4303 18.4308 16.3908 17.6086C16.8724 16.9853 16.9333 16.3338 17.0009 15.6112C17.0126 15.4863 17.0244 15.3593 17.0387 15.2299C17.1152 15.301 17.1911 15.3718 17.2666 15.4422C18.2203 16.332 19.1054 17.1579 20.3782 17.6224C21.1757 17.6612 22.0036 17.2513 21.9981 16.3542C22.0091 14.9932 21.9711 13.6313 21.9331 12.2691C21.9041 11.2283 21.8751 10.1873 21.8679 9.14635C21.8513 8.06088 20.6994 7.71752 19.805 8.01104C18.8422 8.3871 18.0103 9.223 17.2823 9.95459C17.2545 9.98255 17.2268 10.0104 17.1993 10.038C16.9778 8.7753 16.3825 7.44616 15.1668 6.87019C14.1043 6.39892 12.7704 6.44519 11.5507 6.48749ZM13.0589 8.70391C11.1204 8.67925 9.15544 8.65425 7.23395 8.89734C7.16823 8.91281 7.09366 8.9265 7.0147 8.94099C6.64123 9.00957 6.16972 9.09614 6.07371 9.4733C5.86493 10.4929 5.90692 11.612 5.94768 12.6979C5.9626 13.0954 5.97735 13.4884 5.97958 13.8705C5.97681 14.6708 6.18448 15.7895 7.00688 16.1467C8.18935 16.5817 9.42007 16.4943 10.6513 16.407C11.2855 16.362 11.9198 16.3169 12.5477 16.3433C12.7116 16.341 12.8724 16.3473 13.03 16.3534C13.6341 16.3768 14.1914 16.3985 14.6965 15.9307C15.0309 15.6782 15.0711 15.3051 15.1122 14.9234C15.1197 14.8531 15.1273 14.7825 15.1368 14.7123C15.1437 14.5504 15.1509 14.3882 15.1581 14.2259C15.2288 12.6287 15.3001 11.0171 15.1091 9.45115C15.0009 9.38157 14.8982 9.30968 14.7976 9.23928C14.3937 8.95664 14.0241 8.69796 13.4698 8.70905C13.333 8.7074 13.1961 8.70566 13.0589 8.70391Z"
        fill="currentColor"
    />
</svg>
