<svg width="72" height="64" viewBox="0 0 72 64" fill="none" xmlns="http://www.w3.org/2000/svg">
<path d="M71.629 50.4594L59.7435 63.1284C59.4851 63.4036 59.1725 63.623 58.8251 63.773C58.4777 63.9229 58.103 64.0002 57.7242 64H1.37985C1.111 64 0.848013 63.9219 0.623193 63.7754C0.398373 63.6289 0.221518 63.4203 0.114356 63.1752C0.0071945 62.9302 -0.025605 62.6593 0.0199876 62.396C0.0655802 62.1327 0.187579 61.8883 0.370994 61.693L12.2657 49.024C12.5234 48.7495 12.835 48.5306 13.1813 48.3806C13.5276 48.2307 13.9011 48.153 14.2788 48.1524H70.6201C70.889 48.1524 71.152 48.2305 71.3768 48.377C71.6016 48.5235 71.7785 48.7321 71.8856 48.9772C71.9928 49.2222 72.0256 49.4931 71.98 49.7564C71.9344 50.0197 71.8124 50.2641 71.629 50.4594ZM59.7435 24.9478C59.4851 24.6726 59.1725 24.4532 58.8251 24.3032C58.4777 24.1533 58.103 24.076 57.7242 24.0762H1.37985C1.111 24.0762 0.848013 24.1543 0.623193 24.3008C0.398373 24.4473 0.221518 24.6559 0.114356 24.901C0.0071945 25.146 -0.025605 25.4169 0.0199876 25.6802C0.0655802 25.9435 0.187579 26.1879 0.370994 26.3832L12.2657 39.0522C12.5234 39.3267 12.835 39.5456 13.1813 39.6956C13.5276 39.8455 13.9011 39.9232 14.2788 39.9238H70.6201C70.889 39.9238 71.152 39.8457 71.3768 39.6992C71.6016 39.5527 71.7785 39.3441 71.8856 39.099C71.9928 38.854 72.0256 38.5831 71.98 38.3198C71.9344 38.0565 71.8124 37.8121 71.629 37.6168L59.7435 24.9478ZM1.37985 15.8476H57.7242C58.103 15.8478 58.4777 15.7705 58.8251 15.6206C59.1725 15.4706 59.4851 15.2512 59.7435 14.976L71.629 2.30705C71.8124 2.11169 71.9344 1.86733 71.98 1.604C72.0256 1.34067 71.9928 1.06984 71.8856 0.824786C71.7785 0.579731 71.6016 0.371125 71.3768 0.224598C71.152 0.0780723 70.889 9.02359e-06 70.6201 0L14.2788 0C13.9011 0.000638834 13.5276 0.0783265 13.1813 0.228253C12.835 0.37818 12.5234 0.597154 12.2657 0.871619L0.37406 13.5406C0.190822 13.7357 0.0688775 13.9798 0.0231815 14.2429C-0.0225145 14.5059 0.0100247 14.7765 0.116809 15.0214C0.223592 15.2664 0.399979 15.475 0.624335 15.6218C0.848692 15.7685 1.11127 15.847 1.37985 15.8476Z" fill="black"/>
</svg>
