<svg xmlns="http://www.w3.org/2000/svg" width="64" height="64" fill="none">
    <g clip-path="url(#a)">
        <path fill="#EEF" d="M0 16C0 7.163 7.163 0 16 0h32c8.837 0 16 7.163 16 16v32c0 8.837-7.163 16-16 16H16C7.163 64 0 56.837 0 48V16Z"/>
        <path fill="#4F0599" fill-rule="evenodd" d="M32 13c-10.493 0-19 8.507-19 19s8.507 19 19 19 19-8.507 19-19-8.507-19-19-19Zm17 18.977V32c0 9.389-7.611 17-17 17s-17-7.611-17-17v-.023c-.648-.619-1-1.284-1-1.977 0-.881.57-1.718 1.594-2.472C17.558 20.308 24.16 15 32 15c7.841 0 14.442 5.308 16.406 12.528C49.43 28.282 50 29.118 50 30c0 .693-.352 1.358-1 1.977Z" clip-rule="evenodd"/>
        <path fill="#A365F6" fill-rule="evenodd" d="M32 23c-11.849 0-19 2.08-19 7v.012c.004 1.635.862 3 2.42 4.041a1 1 0 0 0 1.112-1.662C15.488 31.693 15 30.914 15 30v-.002l.004-.136c.178-2.978 6.125-4.754 16.067-4.857L32 25c10.656 0 17 1.846 17 5 0 .92-.495 1.702-1.55 2.403a1 1 0 0 0 1.106 1.667C50.133 33.023 51 31.65 51 30v-.012c-.011-4.781-6.79-6.877-18.074-6.984L32 23Z" clip-rule="evenodd"/>
        <path fill="#4F0599" fill-rule="evenodd" d="M21.143 28.904C21.988 19.848 26.443 13 32 13a1 1 0 1 1 0 2c-4.246 0-8.104 5.932-8.866 14.09a1 1 0 0 1-1.99-.186Zm1.245 12.41a1 1 0 1 1 1.904-.613C25.951 45.855 28.916 49 32 49a1 1 0 1 1 0 2c-4.135 0-7.717-3.798-9.611-9.686Z" clip-rule="evenodd"/>
        <path fill="#4F0599" fill-rule="evenodd" d="M32.993 13.883A1 1 0 0 0 31 14v15.056l.007.117A1 1 0 0 0 33 29.056V14l-.007-.117Zm0 26.99A1 1 0 0 0 31 40.99V50l.007.117A1 1 0 0 0 33 50v-9.01l-.007-.117Z" clip-rule="evenodd"/>
        <path fill="#4F0599" fill-rule="evenodd" d="M42.858 28.908C42.014 19.851 37.558 13 32 13a1 1 0 0 0 0 2c4.247 0 8.106 5.934 8.866 14.094a1 1 0 0 0 1.992-.186Zm-1.25 12.416a1 1 0 1 0-1.903-.613C38.045 45.86 35.082 49 32 49a1 1 0 0 0 0 2c4.133 0 7.713-3.794 9.608-9.676Z" clip-rule="evenodd"/>
        <path fill="#A365F6" fill-rule="evenodd" d="M19.654 32.062a1 1 0 0 1 1.238.484l.046.107.563 1.524.598-1.54c.321-.827 1.461-.844 1.83-.08l.047.115.503 1.455.591-1.495a1 1 0 0 1 1.187-.599l.111.037a1 1 0 0 1 .599 1.187l-.037.11-1.582 4c-.325.824-1.46.837-1.827.075l-.047-.114-.497-1.43-.567 1.464c-.317.817-1.437.847-1.818.102l-.052-.118-1.478-4a1 1 0 0 1 .592-1.284Zm9 0a1 1 0 0 1 1.238.484l.046.107.563 1.524.598-1.54c.321-.827 1.461-.844 1.83-.08l.047.115.503 1.455.591-1.495a1 1 0 0 1 1.187-.599l.111.037a1 1 0 0 1 .599 1.187l-.037.11-1.582 4c-.325.824-1.46.837-1.827.075l-.047-.114-.497-1.43-.567 1.464c-.317.817-1.437.847-1.818.102l-.052-.118-1.478-4a1 1 0 0 1 .592-1.284Zm10.238.484a1 1 0 0 0-1.83.8l1.478 4 .052.118c.381.745 1.501.715 1.818-.102l.567-1.463.497 1.428.047.115c.367.762 1.502.749 1.827-.075l1.582-4 .037-.11a1 1 0 0 0-.599-1.187l-.11-.037a1 1 0 0 0-1.188.599l-.59 1.495-.504-1.455-.047-.114c-.369-.765-1.509-.748-1.83.08l-.598 1.539-.563-1.524-.046-.107Z" clip-rule="evenodd"/>
    </g>
    <defs>
        <clipPath id="a">
            <path fill="#fff" d="M0 0h64v64H0z"/>
        </clipPath>
    </defs>
</svg>
