<svg xmlns="http://www.w3.org/2000/svg" width="48" height="48" fill="none">
    <g clip-path="url(#a)">
        <path fill="#2D2242" d="M0 12C0 5.373 5.373 0 12 0h24c6.627 0 12 5.373 12 12v24c0 6.627-5.373 12-12 12H12C5.373 48 0 42.627 0 36V12Z"/>
        <path fill="#CE80FF" fill-rule="evenodd" d="M24 9.75C16.13 9.75 9.75 16.13 9.75 24S16.13 38.25 24 38.25 38.25 31.87 38.25 24 31.87 9.75 24 9.75Zm12.75 14.233V24c0 7.042-5.708 12.75-12.75 12.75S11.25 31.042 11.25 24v-.017c-.486-.465-.75-.963-.75-1.483 0-.661.428-1.289 1.196-1.854C13.168 15.23 18.119 11.25 24 11.25c5.88 0 10.832 3.981 12.304 9.396.768.565 1.196 1.193 1.196 1.854 0 .52-.264 1.018-.75 1.483Z" clip-rule="evenodd"/>
        <path fill="#F3DFFD" fill-rule="evenodd" d="M24 17.25c-8.886 0-14.25 1.56-14.25 5.25a.88.88 0 0 0 0 .009c.003 1.226.647 2.25 1.815 3.031a.75.75 0 0 0 .834-1.246c-.783-.524-1.149-1.108-1.149-1.794v-.001l.003-.103c.133-2.233 4.594-3.565 12.05-3.642L24 18.75c7.992 0 12.75 1.384 12.75 3.75 0 .69-.37 1.277-1.163 1.803a.75.75 0 1 0 .83 1.25c1.183-.786 1.833-1.816 1.833-3.053v-.009c-.008-3.586-5.092-5.157-13.556-5.238L24 17.25Z" clip-rule="evenodd"/>
        <path fill="#CE80FF" fill-rule="evenodd" d="M15.857 21.678C16.491 14.886 19.832 9.75 24 9.75a.75.75 0 0 1 0 1.5c-3.184 0-6.078 4.449-6.65 10.567a.75.75 0 0 1-1.493-.14Zm.934 9.307a.75.75 0 1 1 1.428-.459c1.244 3.865 3.468 6.224 5.781 6.224a.75.75 0 0 1 0 1.5c-3.102 0-5.788-2.849-7.209-7.265Z" clip-rule="evenodd"/>
        <path fill="#CE80FF" fill-rule="evenodd" d="M24.745 10.412a.75.75 0 0 0-1.495.088v11.292l.005.087a.75.75 0 0 0 1.495-.087V10.5l-.005-.088Zm0 20.243a.75.75 0 0 0-1.495.087V37.5l.005.087a.75.75 0 0 0 1.495-.087v-6.758l-.005-.087Z" clip-rule="evenodd"/>
        <path fill="#CE80FF" fill-rule="evenodd" d="M32.143 21.681C31.51 14.888 28.17 9.75 24 9.75a.75.75 0 0 0 0 1.5c3.185 0 6.08 4.45 6.65 10.57a.75.75 0 1 0 1.493-.139Zm-.937 9.312a.75.75 0 0 0-1.427-.46C28.534 34.395 26.312 36.75 24 36.75a.75.75 0 0 0 0 1.5c3.1 0 5.785-2.845 7.206-7.257Z" clip-rule="evenodd"/>
        <path fill="#F3DFFD" fill-rule="evenodd" d="M14.74 24.046a.75.75 0 0 1 .928.364l.036.08.422 1.143.448-1.155c.24-.62 1.096-.634 1.372-.06l.035.086.378 1.091.443-1.121a.75.75 0 0 1 .89-.45l.084.028a.75.75 0 0 1 .449.89l-.028.084-1.186 3c-.244.617-1.096.627-1.37.055l-.036-.085-.372-1.072-.425 1.097c-.238.613-1.078.636-1.364.077l-.04-.088-1.108-3a.75.75 0 0 1 .444-.964Zm6.75 0a.75.75 0 0 1 .928.364l.035.08.423 1.143.448-1.155c.24-.62 1.096-.634 1.372-.06l.035.086.378 1.091.443-1.121a.75.75 0 0 1 .89-.45l.084.028a.75.75 0 0 1 .449.89l-.028.084-1.186 3c-.244.617-1.096.627-1.37.055l-.036-.085-.372-1.072-.425 1.097c-.238.613-1.078.636-1.364.077l-.04-.088-1.108-3a.75.75 0 0 1 .444-.964Zm7.678.364a.75.75 0 0 0-1.372.6l1.109 3 .038.088c.287.559 1.127.536 1.364-.077l.426-1.097.372 1.072.035.085c.275.572 1.127.562 1.371-.055l1.186-3 .028-.084a.75.75 0 0 0-.45-.89l-.082-.027a.75.75 0 0 0-.89.449l-.444 1.121-.378-1.091-.035-.086c-.276-.574-1.131-.56-1.372.06l-.448 1.154-.423-1.142-.035-.08Z" clip-rule="evenodd"/>
    </g>
    <defs>
        <clipPath id="a">
            <path fill="#fff" d="M0 0h48v48H0z"/>
        </clipPath>
    </defs>
</svg>
