<svg xmlns="http://www.w3.org/2000/svg" width="48" height="48" fill="none">
    <path fill="#2D2242" d="M0 12C0 5.373 5.373 0 12 0h24c6.627 0 12 5.373 12 12v24c0 6.627-5.373 12-12 12H12C5.373 48 0 42.627 0 36V12Z"/>
    <path fill="#CE80FF" fill-rule="evenodd" d="M13.5 10.5a.75.75 0 0 1 .75-.75h12.375v6a2.25 2.25 0 0 0 2.25 2.25H33v5.625a.75.75 0 0 0 1.5 0V17.25a.75.75 0 0 0-.157-.459l-6.375-8.25a.75.75 0 0 0-.593-.291H14.25A2.25 2.25 0 0 0 12 10.5v24.75a2.25 2.25 0 0 0 2.25 2.25H25.5a.75.75 0 0 0 0-1.5H14.25a.75.75 0 0 1-.75-.75V10.5Zm18.723 6-4.098-5.303v4.553c0 .414.336.75.75.75h3.348Z" clip-rule="evenodd"/>
    <path fill="#CE80FF" fill-rule="evenodd" d="m33.375 25.434 6.375 2.74v4.12c0 3.686-2.625 7.137-6.203 7.981l-.172.041-.172-.04c-3.52-.832-6.116-4.184-6.2-7.8l-.001-.01-.002-.173v-4.12l6.375-2.74ZM28.5 29.16v3.128l.002.156c.07 2.904 2.136 5.592 4.873 6.327 2.786-.748 4.875-3.518 4.875-6.479V29.16l-4.875-2.095L28.5 29.16Z" clip-rule="evenodd"/>
    <path fill="#F3DFFD" fill-rule="evenodd" d="M36.53 30.595a.75.75 0 0 1 0 1.06l-3.375 3.375a.75.75 0 0 1-1.06 0l-1.5-1.5a.75.75 0 1 1 1.06-1.06l.97.97 2.845-2.845a.75.75 0 0 1 1.06 0ZM16.875 15a.75.75 0 0 0 0 1.5h7.5a.75.75 0 0 0 0-1.5h-7.5Zm0 9.75a.75.75 0 0 0 0 1.5H27a.75.75 0 0 0 0-1.5H16.875Zm-.75 6a.75.75 0 0 1 .75-.75h6.75a.75.75 0 0 1 0 1.5h-6.75a.75.75 0 0 1-.75-.75Zm.75-10.875a.75.75 0 0 0 0 1.5H30a.75.75 0 0 0 0-1.5H16.875Z" clip-rule="evenodd"/>
</svg>
