<svg xmlns="http://www.w3.org/2000/svg" width="48" height="48" fill="none">
    <path fill="#EEF" d="M0 12C0 5.373 5.373 0 12 0h24c6.627 0 12 5.373 12 12v24c0 6.627-5.373 12-12 12H12C5.373 48 0 42.627 0 36V12Z"/>
    <path fill="#4F0599" fill-rule="evenodd" d="M24 25.275c-4.364 0-7.917 3.582-7.917 8.02v.985l.076.05c.245.16.656.39 1.274.624 1.235.468 3.31.963 6.567.963s5.332-.495 6.567-.963a6.704 6.704 0 0 0 1.35-.674v-.986c0-4.437-3.553-8.02-7.917-8.02Zm8.667 9.368.533.527a.75.75 0 0 0 .217-.527v-1.349c0-5.249-4.208-9.52-9.417-9.52-5.21 0-9.417 4.271-9.417 9.52v1.35a.75.75 0 0 0 .217.526l.533-.527c-.533.527-.533.528-.532.528v.001l.003.002.004.005.012.011.032.03c.027.024.061.055.106.09.088.073.214.168.383.278.338.22.844.497 1.56.768 1.43.543 3.69 1.06 7.099 1.06 3.41 0 5.668-.517 7.1-1.06a8.19 8.19 0 0 0 1.559-.768 4.402 4.402 0 0 0 .489-.368 2.19 2.19 0 0 0 .032-.03l.012-.011.004-.005.002-.002h.001c0-.001.001-.002-.532-.529Z" clip-rule="evenodd"/>
    <path fill="#A365F6" fill-rule="evenodd" d="M24 11.596c-2.523 0-4.584 2.072-4.584 4.647 0 2.574 2.06 4.646 4.584 4.646 2.523 0 4.583-2.072 4.583-4.646 0-2.575-2.06-4.647-4.583-4.647Zm-6.084 4.647c0-3.387 2.716-6.147 6.084-6.147 3.368 0 6.083 2.76 6.083 6.147 0 3.386-2.715 6.146-6.083 6.146-3.368 0-6.084-2.76-6.084-6.146Z" clip-rule="evenodd"/>
</svg>
