<svg xmlns="http://www.w3.org/2000/svg" width="48" height="48" fill="none">
    <path fill="#2D2242" d="M0 12C0 5.373 5.373 0 12 0h24c6.627 0 12 5.373 12 12v24c0 6.627-5.373 12-12 12H12C5.373 48 0 42.627 0 36V12Z"/>
    <path fill="#F3DFFD" fill-rule="evenodd" d="M32.25 10.5a5.25 5.25 0 1 0 0 10.5 5.25 5.25 0 0 0 0-10.5Zm0 1.5a3.75 3.75 0 1 1 0 7.5 3.75 3.75 0 0 1 0-7.5Zm7.497 15.563a6 6 0 0 0-5.997-5.813h-3l-.25.005a5.97 5.97 0 0 0-3.005.954.75.75 0 1 0 .815 1.26 4.475 4.475 0 0 1 2.44-.719h3l.169.003a4.5 4.5 0 0 1 4.33 4.497v1.744l-.35.134c-1.887.695-3.77 1.04-5.65 1.04-.527 0-1.055-.026-1.583-.081a.75.75 0 0 0-.154 1.492c.579.06 1.158.09 1.738.09 2.352 0 4.7-.494 7.04-1.478a.75.75 0 0 0 .46-.691v-2.25l-.003-.187ZM17.25 21.75a5.97 5.97 0 0 1 3.238.948.75.75 0 0 1-.81 1.262 4.468 4.468 0 0 0-2.21-.705l-.218-.005h-3a4.5 4.5 0 0 0-4.497 4.331l-.003.169v1.744l.35.134c1.753.645 3.502.99 5.247 1.036l.403.005c.529 0 1.057-.027 1.586-.082a.75.75 0 0 1 .155 1.492c-.58.06-1.16.09-1.741.09-2.352 0-4.7-.494-7.04-1.478a.75.75 0 0 1-.455-.601L8.25 30v-2.25a6 6 0 0 1 5.813-5.997l.187-.003h3Zm-1.5-11.25a5.25 5.25 0 1 0 0 10.5 5.25 5.25 0 0 0 0-10.5Zm0 1.5a3.75 3.75 0 1 1 0 7.5 3.75 3.75 0 0 1 0-7.5Z" clip-rule="evenodd"/>
    <path fill="#CE80FF" fill-rule="evenodd" d="M24 15.75a5.25 5.25 0 1 1 0 10.5 5.25 5.25 0 0 1 0-10.5Zm7.497 17.063A6 6 0 0 0 25.5 27h-3l-.187.003A6 6 0 0 0 16.5 33v2.25l.005.09a.75.75 0 0 0 .454.601c2.34.984 4.689 1.478 7.041 1.478 2.352 0 4.7-.494 7.04-1.478a.75.75 0 0 0 .46-.691V33l-.003-.187ZM25.5 28.5l.169.003.167.01A4.5 4.5 0 0 1 30 33v1.744l-.35.134-.405.143c-1.752.6-3.5.898-5.245.898l-.403-.005-.403-.016c-1.611-.085-3.225-.425-4.844-1.02l-.35-.133V33l.003-.169A4.5 4.5 0 0 1 22.5 28.5h3ZM20.25 21a3.75 3.75 0 1 1 7.5 0 3.75 3.75 0 0 1-7.5 0Z" clip-rule="evenodd"/>
</svg>
