<svg xmlns="http://www.w3.org/2000/svg" width="48" height="48" fill="none">
    <path fill="#2D2242" d="M0 12C0 5.373 5.373 0 12 0h24c6.627 0 12 5.373 12 12v24c0 6.627-5.373 12-12 12H12C5.373 48 0 42.627 0 36V12Z"/>
    <path fill="#CE80FF" fill-rule="evenodd" d="M17.25 35.84a1.5 1.5 0 0 0-1.5-1.5h-4.5a1.5 1.5 0 0 0-1.5 1.5v4.5a1.5 1.5 0 0 0 1.5 1.5h4.5a1.5 1.5 0 0 0 1.5-1.5v-4.5Zm-6 0h4.5v4.5h-4.5v-4.5Zm16.5 0a1.5 1.5 0 0 0-1.5-1.5h-4.5a1.5 1.5 0 0 0-1.5 1.5v4.5a1.5 1.5 0 0 0 1.5 1.5h4.5a1.5 1.5 0 0 0 1.5-1.5v-4.5Zm-6 0h4.5v4.5h-4.5v-4.5Zm15-1.5a1.5 1.5 0 0 1 1.5 1.5v4.5a1.5 1.5 0 0 1-1.5 1.5h-4.5a1.5 1.5 0 0 1-1.5-1.5v-4.5a1.5 1.5 0 0 1 1.5-1.5h4.5Zm0 1.5h-4.5v4.5h4.5v-4.5Z" clip-rule="evenodd"/>
    <path fill="#F3DFFD" fill-rule="evenodd" d="M24 19.426c.385 0 .702.203.745.576l.005.088v4.5h9.75a.75.75 0 0 1 .75.75v4.606l.841-.84a.75.75 0 0 1 .995-.059l.066.058a.75.75 0 0 1 .058.995l-.058.066-2.122 2.121a.75.75 0 0 1-.995.059l-.065-.059-2.122-2.121a.75.75 0 0 1 .996-1.119l.065.058.841.841V26.09h-9v3.856l.841-.84a.75.75 0 0 1 .995-.059l.066.058a.75.75 0 0 1 .058.995l-.058.066-2.122 2.121a.75.75 0 0 1-.995.059l-.065-.059-2.122-2.121a.75.75 0 0 1 .996-1.119l.065.058.841.841V26.09h-9v3.856l.841-.84a.75.75 0 0 1 .995-.059l.066.058a.75.75 0 0 1 .058.995l-.058.066-2.122 2.121a.75.75 0 0 1-.995.059l-.065-.059-2.122-2.121a.75.75 0 0 1 .996-1.119l.065.058.841.841V25.34a.75.75 0 0 1 .75-.75h9.75v-4.5c0-.415.336-.664.75-.664Z" clip-rule="evenodd"/>
    <path fill="#CE80FF" fill-rule="evenodd" d="m15.69 18.607 6.947-11.959a1.5 1.5 0 0 1 2.594 0l6.947 11.959a1.5 1.5 0 0 1-1.297 2.253H16.987a1.5 1.5 0 0 1-1.297-2.253Zm8.244-11.205L16.987 19.36h13.894L23.934 7.402Z" clip-rule="evenodd"/>
</svg>
