<svg xmlns="http://www.w3.org/2000/svg" width="48" height="48" fill="none">
    <path fill="#EEF" d="M0 12C0 5.373 5.373 0 12 0h24c6.627 0 12 5.373 12 12v24c0 6.627-5.373 12-12 12H12C5.373 48 0 42.627 0 36V12Z"/>
    <path fill="#4F0599" fill-rule="evenodd" d="M16.781 21.65c-1.652-.472-2.531-1.066-2.531-1.4h-1.5l.004.11c.15 2.184 4.78 3.55 10.655 3.636L24 24c6.252 0 11.25-1.428 11.25-3.75h-1.5l-.004.041c-.068.34-.941.906-2.527 1.36-1.885.538-4.462.849-7.219.849-2.757 0-5.334-.311-7.219-.85Zm0 6.75c-1.652-.472-2.531-1.066-2.531-1.4h-1.5l.004.11c.15 2.184 4.78 3.55 10.655 3.636l.591.004c6.252 0 11.25-1.428 11.25-3.75h-1.5l-.004.041c-.068.34-.941.906-2.527 1.36-1.885.538-4.462.849-7.219.849-2.757 0-5.334-.311-7.219-.85Z" clip-rule="evenodd"/>
    <path fill="#4F0599" fill-rule="evenodd" d="m24 10.5-.591.004c-5.973.088-10.659 1.498-10.659 3.746v19.09l.004.124C12.956 35.93 17.914 37.5 24 37.5c6.217 0 11.25-1.634 11.25-4.16V14.25c0-2.322-4.998-3.75-11.25-3.75Zm.586 7.496h.006c3.935-.058 7.312-.69 9.158-1.758v17.103C33.75 34.58 29.38 36 24 36c-5.3 0-9.646-1.376-9.749-2.628l-.002-.062.001-17.072C16.187 17.36 19.813 18 24 18h.003c.195 0 .39-.002.583-.004Zm9.164-3.757c-.02-.336-.897-.922-2.531-1.39C29.334 12.313 26.757 12 24 12c-2.757 0-5.334.312-7.219.85-1.652.472-2.531 1.066-2.531 1.4l.004.041c.065.326.871.86 2.336 1.303l.189.055.002.001c1.885.539 4.462.85 7.219.85 1.879 0 3.674-.145 5.223-.407.44-.075.86-.159 1.258-.252.256-.06.502-.123.738-.19l.034-.01c.243-.071.47-.144.68-.219 1.149-.408 1.773-.857 1.815-1.142l.002-.041Z" clip-rule="evenodd"/>
</svg>
