<svg xmlns="http://www.w3.org/2000/svg" width="32" height="32" fill="none">
    <rect width="28.444" height="28.444" x="1.778" y="1.778" fill="#2D2242" rx="8"/>
    <path fill="#CE80FF" fill-rule="evenodd" d="M14 19.333a.444.444 0 0 1-.444-.444v-5.333a.444.444 0 1 1 .889 0v5.333a.444.444 0 0 1-.445.444Zm-1.333 0a.444.444 0 0 1-.445-.444v-5.333a.444.444 0 0 1 .89 0v5.333a.444.444 0 0 1-.445.444Zm6.222 0a.444.444 0 0 1-.444-.444v-5.333a.444.444 0 0 1 .889 0v5.333a.444.444 0 0 1-.445.444Zm-3.111 0a.444.444 0 0 1-.445-.444v-5.333a.444.444 0 0 1 .89 0v5.333a.444.444 0 0 1-.445.444ZM7.111 20a.444.444 0 0 1-.444-.445v-7.11c0-.246.199-.445.444-.445h3.556c.245 0 .444.199.444.444v7.111a.444.444 0 0 1-.444.445H7.11Zm.445-.889h2.666v-6.222H7.556v6.222Zm13.333.667c0-.246.199-.445.444-.445h3.112v-6.222h-3.112a.444.444 0 1 1 0-.889h3.556c.245 0 .444.2.444.445v7.11a.444.444 0 0 1-.444.445h-3.556a.444.444 0 0 1-.444-.444Z" clip-rule="evenodd"/>
    <path fill="#F3DFFD" fill-rule="evenodd" d="M18.797 20.13a.444.444 0 0 1 .628 0l1.334 1.333a.445.445 0 0 1 0 .629l-1.334 1.333a.444.444 0 1 1-.628-.628l.575-.575h-7.15a.444.444 0 1 1 0-.889h7.15l-.575-.574a.444.444 0 0 1 0-.629Zm0-11.111a.444.444 0 0 1 .628 0l1.334 1.333a.445.445 0 0 1 0 .629l-1.334 1.333a.444.444 0 1 1-.628-.628l.575-.575h-7.15a.444.444 0 1 1 0-.889h7.15l-.575-.574a.444.444 0 0 1 0-.629Z" clip-rule="evenodd"/>
</svg>
