<svg xmlns="http://www.w3.org/2000/svg" width="48" height="48" fill="none">
    <path fill="#EEF" d="M0 12C0 5.373 5.373 0 12 0h24c6.627 0 12 5.373 12 12v24c0 6.627-5.373 12-12 12H12C5.373 48 0 42.627 0 36V12Z"/>
    <path fill="#A365F6" fill-rule="evenodd" d="M23.25 19.5V9.101h1.5v10.4h-1.5Zm13.222-3.911-8.178 4.97.78 1.282 8.177-4.97-.779-1.282Zm-8.205 11.626.715-1.318 8.375 4.544-.715 1.318-8.375-4.544ZM23.25 38.911V28.5h1.5v10.41h-1.5Z" clip-rule="evenodd"/>
    <path fill="#4F0599" fill-rule="evenodd" d="M24 3.75a3 3 0 0 0-.15 5.996l.15.004a2.99 2.99 0 0 0 2.14-.898l9.892 5.71a3.001 3.001 0 0 0 2.157 3.327v11.472a3.001 3.001 0 0 0-1.986 3.977l-10.062 5.81a2.99 2.99 0 0 0-1.991-.894L24 38.25a3 3 0 0 0-.15 5.996l.15.004a3 3 0 0 0 2.891-3.803l10.196-5.886c.483.4 1.094.652 1.763.685l.15.004a3 3 0 0 0 .689-5.92V17.92a3.001 3.001 0 0 0-.54-5.916L39 12c-.968 0-1.83.459-2.378 1.171l-9.73-5.618a3.002 3.002 0 0 0-2.742-3.8L24 3.75Zm1.5 37.5a1.5 1.5 0 1 0-3 0 1.5 1.5 0 0 0 3 0Zm15-9a1.5 1.5 0 1 0-3 0 1.5 1.5 0 0 0 3 0Zm0-17.25a1.5 1.5 0 1 0-3 0 1.5 1.5 0 0 0 3 0Zm-15-8.25a1.5 1.5 0 1 0-3 0 1.5 1.5 0 0 0 3 0ZM18.75 19.5a.75.75 0 0 1 .75-.75h9a.75.75 0 0 1 .75.75v9a.75.75 0 0 1-.75.75h-9a.75.75 0 0 1-.75-.75v-3.75H8.77l3.239 2.915.061.062a.75.75 0 0 1-1.065 1.053l-4.544-4.088a.75.75 0 0 1-.106-1.33l4.65-4.183.069-.054a.75.75 0 0 1 .99.11l.055.069a.75.75 0 0 1-.11.99L8.724 23.25H18.75V19.5Zm1.5.75v7.5h7.5v-7.5h-7.5Z" clip-rule="evenodd"/>
</svg>
