<svg xmlns="http://www.w3.org/2000/svg" width="48" height="48" fill="none">
    <path fill="#2D2242" d="M0 12C0 5.373 5.373 0 12 0h24c6.627 0 12 5.373 12 12v24c0 6.627-5.373 12-12 12H12C5.373 48 0 42.627 0 36V12Z"/>
    <path fill="#CE80FF" fill-rule="evenodd" d="M21.04 9.75a1.5 1.5 0 0 1 1.5 1.5v9.79a1.5 1.5 0 0 1-1.5 1.5h-9.79a1.5 1.5 0 0 1-1.5-1.5v-9.79a1.5 1.5 0 0 1 1.5-1.5h9.79Zm0 1.5h-9.79v9.79h9.79v-9.79Zm-6.992 1.965a.75.75 0 0 0-1.495.088v5.684l.005.087a.75.75 0 0 0 1.495-.087v-5.684l-.005-.088Zm2.097-.662a.75.75 0 0 1 .745.662l.005.088v5.684a.75.75 0 0 1-1.495.087l-.005-.087v-5.684a.75.75 0 0 1 .75-.75Zm3.587.662a.75.75 0 0 0-1.495.088v5.684l.005.087a.75.75 0 0 0 1.495-.087v-5.684l-.005-.088ZM21.04 25.46a1.5 1.5 0 0 1 1.5 1.5v9.79a1.5 1.5 0 0 1-1.5 1.5h-9.79a1.5 1.5 0 0 1-1.5-1.5v-9.79a1.5 1.5 0 0 1 1.5-1.5h9.79Zm0 1.5h-9.79v9.79h9.79v-9.79Zm-6.992 1.966a.75.75 0 0 0-1.495.087v5.684l.005.088a.75.75 0 0 0 1.495-.088v-5.684l-.005-.087Zm2.097-.663a.75.75 0 0 1 .745.663l.005.087v5.684a.75.75 0 0 1-1.495.088l-.005-.088v-5.684a.75.75 0 0 1 .75-.75Zm3.587.663a.75.75 0 0 0-1.495.087v5.684l.005.088a.75.75 0 0 0 1.495-.088v-5.684l-.005-.087Z" clip-rule="evenodd"/>
    <path fill="#F3DFFD" fill-rule="evenodd" d="M36.79 9.75a1.5 1.5 0 0 1 1.5 1.5v9.79a1.5 1.5 0 0 1-1.5 1.5H27a1.5 1.5 0 0 1-1.5-1.5v-9.79a1.5 1.5 0 0 1 1.5-1.5h9.79Zm0 1.5H27v9.79h9.79v-9.79Zm-6.992 1.965a.75.75 0 0 0-1.495.088v5.684l.005.087a.75.75 0 0 0 1.495-.087v-5.684l-.005-.088Zm2.097-.662a.75.75 0 0 1 .745.662l.005.088v5.684a.75.75 0 0 1-1.495.087l-.005-.087v-5.684a.75.75 0 0 1 .75-.75Zm3.587.662a.75.75 0 0 0-1.495.088v5.684l.005.087a.75.75 0 0 0 1.495-.087v-5.684l-.005-.088Z" clip-rule="evenodd"/>
    <path fill="#CE80FF" fill-rule="evenodd" d="M36.75 25.46a1.5 1.5 0 0 1 1.5 1.5v9.79a1.5 1.5 0 0 1-1.5 1.5h-9.79a1.5 1.5 0 0 1-1.5-1.5v-9.79a1.5 1.5 0 0 1 1.5-1.5h9.79Zm0 1.5h-9.79v9.79h9.79v-9.79Zm-6.992 1.966a.75.75 0 0 0-1.495.087v5.684l.005.088a.75.75 0 0 0 1.495-.088v-5.684l-.005-.087Zm2.097-.663a.75.75 0 0 1 .745.663l.005.087v5.684a.75.75 0 0 1-1.495.088l-.005-.088v-5.684a.75.75 0 0 1 .75-.75Zm3.587.663a.75.75 0 0 0-1.495.087v5.684l.005.088a.75.75 0 0 0 1.495-.088v-5.684l-.005-.087Z" clip-rule="evenodd"/>
</svg>
