<svg xmlns="http://www.w3.org/2000/svg" width="48" height="48" fill="none">
    <path fill="#EEF" d="M0 12C0 5.373 5.373 0 12 0h24c6.627 0 12 5.373 12 12v24c0 6.627-5.373 12-12 12H12C5.373 48 0 42.627 0 36V12Z"/>
    <path fill="#A365F6" d="M23.447 17.493a.75.75 0 0 1 1.165.94l-.06.074-8.25 9a.75.75 0 0 1-1.164-.94l.06-.074 8.25-9Z"/>
    <path fill="#4F0599" d="M23.977 5.25a.75.75 0 0 1 .744.663l.006.087-.001 5.649.045.009a3.752 3.752 0 0 1 2.952 3.503l.004.163a3.75 3.75 0 0 1-7.5 0 .75.75 0 1 1 1.5 0 2.25 2.25 0 1 0 2.25-2.25.75.75 0 0 1-.745-.663l-.005-.087V6a.75.75 0 0 1 .75-.75Z"/>
    <path fill="#A365F6" d="M23.516 16.677a.75.75 0 0 1 .991.02l.066.069 8.25 9.75a.75.75 0 0 1-1.08 1.037l-.066-.069-8.25-9.75a.75.75 0 0 1 .089-1.057Z"/>
    <path fill="#4F0599" fill-rule="evenodd" d="M32.25 26.25a1.5 1.5 0 0 1 1.5 1.5v12a1.5 1.5 0 0 1-1.5 1.5h-16.5a1.5 1.5 0 0 1-1.5-1.5v-12a1.5 1.5 0 0 1 1.5-1.5h16.5Zm0 1.5h-16.5v12h16.5v-12Zm-3.005 2.163A.75.75 0 0 0 27.75 30v7.5l.005.087a.75.75 0 0 0 1.495-.087V30l-.005-.087ZM24 29.25a.75.75 0 0 1 .745.663l.005.087v7.5a.75.75 0 0 1-1.495.087l-.005-.087V30a.75.75 0 0 1 .75-.75Zm-3.755.663A.75.75 0 0 0 18.75 30v7.5l.005.087a.75.75 0 0 0 1.495-.087V30l-.005-.087Z" clip-rule="evenodd"/>
</svg>
