<?xml version="1.0" encoding="UTF-8" standalone="no"?>
<!DOCTYPE svg PUBLIC "-//W3C//DTD SVG 1.1//EN" "http://www.w3.org/Graphics/SVG/1.1/DTD/svg11.dtd">
<svg width="100%" height="100%" viewBox="0 0 216 216" version="1.1" xmlns="http://www.w3.org/2000/svg" xmlns:xlink="http://www.w3.org/1999/xlink" xml:space="preserve" xmlns:serif="http://www.serif.com/" style="fill-rule:evenodd;clip-rule:evenodd;stroke-linecap:round;stroke-linejoin:round;">
    <g transform="matrix(0.921244,0,0,1,15.5938,0)">
        <path d="M135,45L180,45C188.485,45 192.728,45 195.364,47.636C198,50.272 198,54.515 198,63L198,153C198,161.485 198,165.728 195.364,168.364C192.728,171 188.485,171 180,171L135,171" style="fill:none;fill-rule:nonzero;stroke:white;stroke-width:24px;"/>
    </g>
    <g transform="matrix(0.920161,0,0,1,1.43709,0)">
        <path d="M81,45L36,45C27.515,45 23.272,45 20.636,47.636C18,50.272 18,54.515 18,63L18,153C18,161.485 18,165.728 20.636,168.364C23.272,171 27.515,171 36,171L81,171" style="fill:none;fill-rule:nonzero;stroke:white;stroke-width:24px;"/>
    </g>
    <path d="M108,27L108,189" style="fill:none;fill-rule:nonzero;stroke:white;stroke-width:24px;"/>
</svg>
