<svg id="uuid-31871bb0-5517-4aee-b2ba-5a3848ba6160" xmlns="http://www.w3.org/2000/svg" width="18" height="18" viewBox="0 0 18 18"><defs><linearGradient id="uuid-10d303dc-dbc6-4fd6-9b51-4d2c7ef1af93" x1="10.901" y1="4.385" x2="10.901" y2="18.783" gradientUnits="userSpaceOnUse"><stop offset=".085" stop-color="#ef7100" /><stop offset=".999" stop-color="#f78d1e" /></linearGradient><linearGradient id="uuid-6bbe745f-b495-46ca-a7f6-6d49d57ee029" x1="-79.452" y1="778.657" x2="-79.452" y2="786.378" gradientTransform="translate(94 795.516) scale(1 -1)" gradientUnits="userSpaceOnUse"><stop offset="0" stop-color="#0078d4" /><stop offset=".06" stop-color="#0a7cd7" /><stop offset=".34" stop-color="#2e8ce1" /><stop offset=".59" stop-color="#4897e9" /><stop offset=".82" stop-color="#589eed" /><stop offset="1" stop-color="#5ea0ef" /></linearGradient></defs><g><polygon points="4.636 9.985 4.688 10.017 9 12.713 9.001 12.713 9.001 12.713 9.001 5.062 9 5.061 4.636 9.985" fill="#ffb34d" isolation="isolate" opacity=".9" stroke-width="0" /><path d="m10.146,1.294c-.299-.338-.722-.507-1.145-.507h0c-.424-.001-.847.168-1.147.506h-.001L.353,9.753c-.579.654-.428,1.642.323,2.111,0,0,2.776,1.735,3.126,1.954.388.242,1.033.511,1.715.511.621,0,1.198-.18,1.676-.487,0,0,0,0,.002,0l1.805-1.128-4.364-2.728,4.365-4.924.109-.123c.55-.627,1.377-1.026,2.302-1.026.472,0,.916.107,1.313.291l-2.579-2.909Z" fill="#faa21d" stroke-width="0" /><polygon points="13.365 9.985 13.365 9.985 13.365 9.985 9.001 5.062 9.001 12.712 13.365 9.985" fill="#f78d1e" stroke-width="0" /><path d="m17.647,9.753l-4.921-5.551c-.397-.185-.842-.291-1.313-.291-.925,0-1.752.399-2.302,1.026l-.109.123,4.364,4.924-4.266,2.666-.099.062v.003s-.001-.002-.001-.002l-1.805,1.128s-.002,0-.002,0c-.478.307-1.055.487-1.676.487-.682,0-1.327-.269-1.715-.511l4.374,2.734c.25.156.538.234.824.234h0s.001,0,.001,0c.287,0,.573-.078.823-.234l1.73-1.081h0s5.77-3.607,5.77-3.607h0c.751-.468.902-1.456.323-2.11Z" fill="url(#uuid-10d303dc-dbc6-4fd6-9b51-4d2c7ef1af93)" stroke-width="0" /></g><path d="m18,12.721c0,2.265-2.739,4.088-3.338,4.46-.068.044-.156.044-.224,0-.599-.367-3.338-2.19-3.338-4.46v-2.725c0-.119.093-.215.21-.218,2.134-.055,1.642-.991,3.241-.991s1.106.937,3.241.991c.117.003.21.1.21.218v2.725Z" fill="#0078d4" stroke-width="0" /><path d="m17.717,12.741c0,2.081-2.515,3.751-3.065,4.088-.063.039-.142.039-.205,0-.551-.337-3.065-2.007-3.065-4.088v-2.478c-.019-.111.054-.216.163-.235.011-.002.021-.003.032-.003,1.959-.035,1.511-.887,2.973-.887s1.014.852,2.973.887c.107.003.192.09.195.198v2.517Z" fill="url(#uuid-6bbe745f-b495-46ca-a7f6-6d49d57ee029)" stroke-width="0" /></svg>