<svg id="a32e81f4-c260-4c23-b216-2ba25d5ed945" xmlns="http://www.w3.org/2000/svg" width="18" height="18" viewBox="0 0 18 18"><g><path d="M4.045,3.727a.1.1,0,0,0,.094-.095V3.071a.1.1,0,0,1,.094-.1H6.485a.1.1,0,0,0,.094-.1v-.1a.1.1,0,0,0-.094-.095H5.45a.1.1,0,0,1-.094-.094v-.28a.1.1,0,0,1,.094-.1H6.993a.1.1,0,0,1,.094.1V3.355a.1.1,0,0,1-.094.1H5.958a.1.1,0,0,0-.094.095v.843a.1.1,0,0,0,.094.095H7.394a.1.1,0,0,1,.094.1v.283a.1.1,0,0,1-.094.1H5.051a.1.1,0,0,1-.094-.1V4.58a.1.1,0,0,1,.094-.095h.211a.094.094,0,0,0,.093-.1V3.547a.1.1,0,0,0-.093-.1h-.52a.1.1,0,0,0-.094.1v.559a.094.094,0,0,1-.094.093H3.018a.093.093,0,0,1-.093-.093V3.821a.1.1,0,0,1,.093-.1Zm6.064.633a.1.1,0,0,0,.094.095h2.152a.1.1,0,0,0,.094-.095v-.1a.1.1,0,0,0-.094-.095h-.62a.094.094,0,0,1-.094-.094V3.789a.094.094,0,0,1,.094-.094h1.127a.094.094,0,0,1,.094.094V4.831a.1.1,0,0,1-.094.095H11.834a.1.1,0,0,0-.094.095V5.11a.1.1,0,0,0,.094.095h1.835a.1.1,0,0,1,.094.095V6.628a.1.1,0,0,0,.094.095h.827a.1.1,0,0,1,.094.094v.275a.1.1,0,0,1-.094.1H13.36a.1.1,0,0,1-.093-.1V5.77a.1.1,0,0,0-.094-.095H11.328a.1.1,0,0,1-.094-.095V5.023a.1.1,0,0,0-.094-.095h-.119a.1.1,0,0,0-.094.095v.558a.094.094,0,0,1-.093.095h-.317a.094.094,0,0,1-.093-.095V5.023a.1.1,0,0,0-.094-.095H9.711a.1.1,0,0,1-.094-.095V4.264a.1.1,0,0,0-.094-.1H9.4a.1.1,0,0,0-.094.1v.569a.1.1,0,0,1-.093.095H8.289A.1.1,0,0,1,8.2,4.833V4.548a.094.094,0,0,1,.094-.094h.422A.1.1,0,0,0,8.8,4.359v-.57A.094.094,0,0,1,8.9,3.7h1.113a.094.094,0,0,1,.094.094ZM8.876,6.485a.1.1,0,0,0-.094.095v.191a.093.093,0,0,1-.093.093H7.551a.094.094,0,0,1-.094-.093V6.487a.1.1,0,0,1,.094-.095h.633a.1.1,0,0,0,.093-.1v-.19a.1.1,0,0,1,.094-.093H9.3a.1.1,0,0,1,.094.093v.284a.1.1,0,0,1-.094.095Z" fill="#52a646" /><path d="M4.793,1.943a.093.093,0,0,0-.093.094v.57a.1.1,0,0,1-.094.095H4.283a.1.1,0,0,1-.094-.095V1.573a.1.1,0,0,1,.094-.092H6.029a.1.1,0,0,1,.094.095v.275a.1.1,0,0,1-.094.095Zm4.352-.536a.1.1,0,0,0,.094.095h.632a.1.1,0,0,1,.094.095v.275a.1.1,0,0,1-.094.094H8.74a.1.1,0,0,1-.094-.094V1.31a.1.1,0,0,0-.093-.095H7.217a.1.1,0,0,0-.094.095v.1a.1.1,0,0,0,.094.1h.62a.1.1,0,0,1,.094.095v.559a.093.093,0,0,0,.093.093h2.039a.1.1,0,0,1,.094.1V3.388a.1.1,0,0,1-.094.1H9.747a.1.1,0,0,1-.094-.1V2.819a.1.1,0,0,0-.094-.095H7.516a.1.1,0,0,1-.094-.1V2.06a.094.094,0,0,0-.093-.095H6.708a.094.094,0,0,1-.094-.094V.838A.1.1,0,0,1,6.708.743H9.051a.1.1,0,0,1,.094.095Zm4.213,2.135a.1.1,0,0,0-.094-.095H11.112a.1.1,0,0,0-.094.095v.563a.094.094,0,0,1-.094.094h-.316a.094.094,0,0,1-.094-.094V3.069a.094.094,0,0,1,.094-.094h1.036a.094.094,0,0,0,.094-.094v-.1a.094.094,0,0,0-.094-.094h-.827a.1.1,0,0,1-.094-.1V2.313a.094.094,0,0,1,.094-.094h1.327a.094.094,0,0,1,.094.094v.569a.1.1,0,0,0,.094.094h1.435a.1.1,0,0,1,.094.1v.654a.1.1,0,0,1-.094.094h-.316a.1.1,0,0,1-.094-.094Zm.809,1.141a.1.1,0,0,0-.094-.095h-.619a.094.094,0,0,1-.094-.094V4.211a.1.1,0,0,1,.094-.1h1.127a.1.1,0,0,1,.094.1V5.624a.094.094,0,0,1-.094.093h-.316a.094.094,0,0,1-.094-.093Zm2.171,2.648a.1.1,0,0,0-.093-.1h-.633a.094.094,0,0,1-.094-.094V6.581a.1.1,0,0,0-.094-.1H14.192a.1.1,0,0,1-.094-.094V6.109a.1.1,0,0,1,.094-.095h1.747a.1.1,0,0,1,.094.095v.569a.1.1,0,0,0,.093.095h.619a.094.094,0,0,1,.094.093V7.9A.094.094,0,0,1,16.745,8h-.316a.094.094,0,0,1-.094-.094Z" fill="#52a646" /><path d="M15.328,8.167a.1.1,0,0,0-.093.1v.376a.1.1,0,0,1-.094.1h-.316a.1.1,0,0,1-.094-.1V7.8a.1.1,0,0,1,.094-.095h1.136a.1.1,0,0,1,.094.095v.284a.1.1,0,0,1-.094.095ZM8.632,3.43a.1.1,0,0,0-.094.095v.562a.094.094,0,0,1-.094.094H6.708a.1.1,0,0,1-.094-.094V3.8a.1.1,0,0,1,.094-.1H7.943a.1.1,0,0,0,.094-.095V3.523a.1.1,0,0,0-.094-.1H7.724a.1.1,0,0,1-.094-.095V3.052a.1.1,0,0,1,.094-.1H8.851a.1.1,0,0,1,.094.1v.283a.1.1,0,0,1-.094.1Zm4.707,5.335a.1.1,0,0,0-.093.095v.569a.1.1,0,0,1-.094.095h-.317a.1.1,0,0,1-.093-.095V8.4a.1.1,0,0,1,.093-.095h1.028a.1.1,0,0,0,.094-.094v-.1a.1.1,0,0,0-.094-.094H12.224a.094.094,0,0,1-.094-.094V6.6a.1.1,0,0,0-.094-.095h-.11a.1.1,0,0,0-.094.095V8.207a.1.1,0,0,1-.094.094H10.6a.094.094,0,0,1-.094-.094V6.979a.1.1,0,0,0-.091-.093H9.8A.093.093,0,0,1,9.7,6.793V5.844a.094.094,0,0,0-.094-.094H7.551a.1.1,0,0,1-.094-.095V5.371a.1.1,0,0,1,.094-.1H10.1a.1.1,0,0,1,.094.1v.948a.1.1,0,0,0,.094.095h.632a.1.1,0,0,1,.094.1V7.685a.094.094,0,0,0,.094.094h.12a.094.094,0,0,0,.094-.094V6.129a.094.094,0,0,1,.093-.094H12.95a.094.094,0,0,1,.094.094v.283a.1.1,0,0,1-.094.095h-.216a.1.1,0,0,0-.094.1v.843a.1.1,0,0,0,.094.095h1.644a.094.094,0,0,1,.093.094V8.668a.1.1,0,0,1-.093.1Zm1.755,1a.1.1,0,0,0-.093.1V11a.1.1,0,0,1-.094.1h-.316A.1.1,0,0,1,14.5,11V9.864A.094.094,0,0,0,14.4,9.77H13.77a.1.1,0,0,1-.093-.095V9.389a.1.1,0,0,1,.093-.095h1.844a.094.094,0,0,0,.094-.094V8.638a.094.094,0,0,1,.094-.094h.316a.094.094,0,0,1,.094.094V9.673a.094.094,0,0,1-.094.094Z" fill="#52a646" /><path d="M15.97,10.512a.094.094,0,0,0-.093.094V10.7a.1.1,0,0,0,.093.095h1.436a.1.1,0,0,1,.094.094v1.042a.1.1,0,0,1-.094.1h-.927a.1.1,0,0,1-.094-.1v-.282a.1.1,0,0,1,.094-.1H16.9a.1.1,0,0,0,.094-.094v-.1a.1.1,0,0,0-.094-.095h-.927a.1.1,0,0,0-.094.095v.569a.1.1,0,0,1-.094.1h-.633a.094.094,0,0,0-.093.094v.1a.1.1,0,0,0,.093.1H17a.1.1,0,0,1,.094.1v.275a.1.1,0,0,1-.094.095H14.655a.1.1,0,0,1-.094-.095v-.562a.1.1,0,0,0-.094-.094h-.632a.1.1,0,0,1-.094-.1v-.569a.1.1,0,0,0-.094-.1H12.506a.1.1,0,0,1-.094-.1V10.134a.094.094,0,0,1,.094-.094h1.243a.1.1,0,0,1,.094.094v.284a.1.1,0,0,1-.094.1h-.73a.1.1,0,0,0-.094.1V10.7a.1.1,0,0,0,.094.095h1.138a.094.094,0,0,1,.094.094v.57a.094.094,0,0,0,.094.094h.928a.094.094,0,0,0,.093-.094v-1.32a.094.094,0,0,1,.094-.094H16.5a.094.094,0,0,0,.094-.094v-.57a.1.1,0,0,1,.094-.095H17a.1.1,0,0,1,.094.095v1.042a.1.1,0,0,1-.094.1ZM1.937,5.01a.1.1,0,0,0-.094.1V5.2a.094.094,0,0,0,.094.094H2.973a.1.1,0,0,1,.094.1V5.95a.1.1,0,0,0,.094.095h.927a.1.1,0,0,0,.094-.095V4.633a.1.1,0,0,1,.093-.095h.316a.094.094,0,0,1,.094.094v.562a.094.094,0,0,0,.094.094H6.221a.1.1,0,0,1,.094.095V6.425a.1.1,0,0,1-.094.095H5.493A.1.1,0,0,1,5.4,6.425V6.141a.1.1,0,0,1,.093-.095h.22a.1.1,0,0,0,.094-.1v-.1a.094.094,0,0,0-.094-.094H4.785a.094.094,0,0,0-.094.094v.57a.1.1,0,0,1-.094.095H3.162a.094.094,0,0,0-.094.094v.377a.1.1,0,0,1-.094.095H2.658a.1.1,0,0,1-.094-.095V5.854A.094.094,0,0,0,2.47,5.76H1.437a.1.1,0,0,1-.094-.095V4.633a.1.1,0,0,1,.094-.094H3.78a.094.094,0,0,1,.094.094v.283a.1.1,0,0,1-.094.095ZM7.122,7.07a.1.1,0,0,0,.094.095h.619a.094.094,0,0,1,.093.095v.283a.1.1,0,0,1-.093.095H6.708a.1.1,0,0,1-.094-.095V5.371a.1.1,0,0,1,.094-.1h.316a.1.1,0,0,1,.094.1Z" fill="#52a646" /><path d="M1.941,6.485a.1.1,0,0,0-.094.095v.941a.1.1,0,0,1-.094.095H1.437a.1.1,0,0,1-.094-.095V6.107a.1.1,0,0,1,.094-.093h.719a.094.094,0,0,1,.094.093v.284a.1.1,0,0,1-.094.095Z" fill="#52a646" /><path d="M1.008,7.788a.1.1,0,0,0,.094.095h.932a.1.1,0,0,0,.094-.095V7.6a.1.1,0,0,1,.093-.1H3.653a.094.094,0,0,0,.094-.094V6.846a.094.094,0,0,1,.094-.094H6.193a.094.094,0,0,1,.094.094v.942a.1.1,0,0,0,.094.095h.632a.1.1,0,0,1,.094.094v.284a.1.1,0,0,1-.094.1H5.874a.1.1,0,0,1-.094-.1V8.069a.1.1,0,0,0-.094-.1H5.067a.094.094,0,0,1-.094-.093V7.6a.1.1,0,0,1,.094-.1h.618a.094.094,0,0,0,.094-.094v-.1a.1.1,0,0,0-.094-.094H4.353a.1.1,0,0,0-.094.094V8.631a.1.1,0,0,1-.094.1H3.542a.094.094,0,0,0-.094.094v.57a.1.1,0,0,1-.093.095H1.909a.094.094,0,0,0-.093.1v.191a.094.094,0,0,1-.094.094H1.406a.094.094,0,0,1-.094-.094V8.727a.1.1,0,0,1,.094-.1h.316a.1.1,0,0,1,.094.1v.191a.1.1,0,0,0,.093.094h.936a.1.1,0,0,0,.094-.094V8.356a.1.1,0,0,1,.094-.1h.62a.1.1,0,0,0,.094-.095v-.1a.1.1,0,0,0-.094-.1H2.725a.1.1,0,0,0-.094.1V8.26a.1.1,0,0,1-.093.1H.594A.1.1,0,0,1,.5,8.26V6.846a.094.094,0,0,1,.094-.094H.91A.094.094,0,0,1,1,6.846ZM10.1,7.173v.378A.1.1,0,0,1,10,7.644h-1.4a.094.094,0,0,1-.094-.093V7.173" fill="#52a646" /><path d="M13.9,12.345c0-.041-.975-.156-1.59-.35a5.678,5.678,0,0,1-.99-.4c-.149-.078-.05-.242.007-.3.211-.226.732-.6.7-.65a8.842,8.842,0,0,0-1.036.659.292.292,0,0,1-.241.031c-1.1-.341-2.512-.747-2.512-1.335s.887-.7,2.151-.685a4.866,4.866,0,0,0,1.538-.388c.021-.009.014-.045-.009-.038a4.365,4.365,0,0,1-1.678.242c-.94-.115-1.11-.185-1.423-.1-.048.014-.077-.036-.054-.082a1.794,1.794,0,0,1,1.067-.778c.019-.007,0-.032-.015-.029a2.9,2.9,0,0,0-1.47.553.037.037,0,0,1-.052-.005.032.032,0,0,1-.008-.02c-.039-.422-.593-.618-.755-.651-.016,0-.032.013-.018.022.226.138.654.552.4.948-.661,1.041-1.9,1.242-2.125,2.152-.2.783,1.729,2.023,1.729,2.748,0,1.1-2.214,1.751-2.214,1.751a.088.088,0,0,0,.037.168H12.3a.111.111,0,0,0,.12-.1.108.108,0,0,0-.007-.047c-.527-1.875-4.217-3.122-4.978-3.8-.19-.171-.341-.359-.234-.593.361-.783,3.928.756,5.358,1.009a7.352,7.352,0,0,0,1.332.072" fill="#473a4b" /><path d="M6.307,9.992c-.316-.326-1.027-.936-1.25-1.127a.015.015,0,1,0-.023.019c.175.3.388.7.492.869a.048.048,0,0,1-.043.073c-.3-.017-.986-.039-1.381-.051a.018.018,0,1,0,0,.036,8.88,8.88,0,0,1,1.836.527.1.1,0,0,0,.1-.012c.082-.062.17-.123.262-.185a.1.1,0,0,0,.024-.134L6.312,10m6.208,7.261a1.025,1.025,0,0,0,.949-.982.127.127,0,0,0-.111-.141H4.42a.126.126,0,0,0-.125.128v.013a1.028,1.028,0,0,0,.948.982Z" fill="#473a4b" /></g></svg>