<svg width="31" height="26" viewBox="0 0 31 26" fill="none" xmlns="http://www.w3.org/2000/svg">
<path d="M2.01107 23.7083L0.790492 22.9103C0.49744 23.3585 0.473597 23.9312 0.728382 24.4022C0.983167 24.8732 1.47559 25.1667 2.01107 25.1667V23.7083ZM8.20899 14.2292L9.05663 13.0425C8.73342 12.8117 8.33003 12.7226 7.93968 12.7959C7.54933 12.8693 7.20577 13.0987 6.98841 13.4312L8.20899 14.2292ZM13.3132 17.875L12.4655 19.0616C13.1192 19.5286 14.0273 19.379 14.4966 18.7271L13.3132 17.875ZM19.8757 8.76042L21.1208 8.00119C20.8663 7.58391 20.4198 7.32183 19.9314 7.30315C19.443 7.28447 18.9778 7.51167 18.6922 7.90831L19.8757 8.76042ZM28.9902 23.7083V25.1667C29.5174 25.1667 30.0036 24.882 30.2619 24.4223C30.52 23.9625 30.5098 23.3993 30.2354 22.9491L28.9902 23.7083ZM3.23166 24.5063L9.42957 15.0272L6.98841 13.4312L0.790492 22.9103L3.23166 24.5063ZM7.36135 15.4158L12.4655 19.0616L14.1607 16.6884L9.05663 13.0425L7.36135 15.4158ZM14.4966 18.7271L21.0591 9.61252L18.6922 7.90831L12.1297 17.0229L14.4966 18.7271ZM18.6305 9.51964L27.7451 24.4675L30.2354 22.9491L21.1208 8.00119L18.6305 9.51964ZM2.01107 25.1667H28.9902V22.25H2.01107V25.1667ZM13.3132 5.47917C13.3132 6.68729 12.3338 7.66667 11.1257 7.66667V10.5833C13.9446 10.5833 16.2298 8.29812 16.2298 5.47917H13.3132ZM11.1257 7.66667C9.91753 7.66667 8.93816 6.68729 8.93816 5.47917H6.02149C6.02149 8.29812 8.3067 10.5833 11.1257 10.5833V7.66667ZM8.93816 5.47917C8.93816 4.27104 9.91753 3.29167 11.1257 3.29167V0.375C8.3067 0.375 6.02149 2.66021 6.02149 5.47917H8.93816ZM11.1257 3.29167C12.3338 3.29167 13.3132 4.27104 13.3132 5.47917H16.2298C16.2298 2.66021 13.9446 0.375 11.1257 0.375V3.29167Z" fill="white"/>
</svg>
