<svg id="Layer_1" data-name="Layer 1" xmlns="http://www.w3.org/2000/svg" viewBox="0 0 759.76 294.36"><defs><style>.cls-1{fill:#ff6363;fill-rule:evenodd;}.cls-2{fill:#fff;}</style></defs><title>color_inverted</title><path class="cls-1" d="M127.94,169v15.65l-37.5-37.5,7.83-7.83Zm15.65,15.65H127.94l37.5,37.5,7.83-7.83Zm89-29.67,7.83-7.83-75-75L157.61,80l29.67,29.67H169.35L148.64,89l-7.83,7.83,12.88,12.88h-9v58.21h58.21v-9l12.88,12.88,7.83-7.83-20.71-20.71V125.33ZM131.85,105.77,124,113.6l8.4,8.4,7.83-7.83Zm66.6,66.6-7.83,7.83,8.4,8.4,7.83-7.83Zm-83.4-49.81-7.83,7.83,20.71,20.71V135.44Zm62.12,62.12H161.52l20.71,20.71,7.83-7.83Z"/><path class="cls-2" d="M659.11,184.56c-5.05,0-9-1.37-11.82-4.12s-4.23-6.57-4.23-11.41v-30H634V127.8h9.11l1.62-15H655.4v15h13.93v11.25H655.4v28.35a5.94,5.94,0,0,0,1.61,4.18,5.51,5.51,0,0,0,4.25,1.73h8.07v11.25Z"/><path class="cls-2" d="M604.62,185.62q-10.1,0-16.25-4.82A21.56,21.56,0,0,1,580.5,168h13.39a8.09,8.09,0,0,0,3.64,4.64,13.13,13.13,0,0,0,7.09,1.75c7.14,0,10.73-2,10.73-5.86q0-2.89-3.37-4.41a37,37,0,0,0-8.14-2.43c-3.18-.61-6.37-1.4-9.61-2.36a16.7,16.7,0,0,1-8.21-5.46q-3.35-4-3.36-10.52a14.84,14.84,0,0,1,5.66-11.89q5.68-4.74,15.75-4.73t16,4.5a20.08,20.08,0,0,1,7.59,12.12H614.25c-1.43-3.55-4.8-5.36-10.14-5.37-5.73,0-8.59,1.79-8.59,5.37a4.62,4.62,0,0,0,2.41,4,16,16,0,0,0,6,2.14,68.72,68.72,0,0,1,7.87,1.82,63.86,63.86,0,0,1,7.87,2.82,14,14,0,0,1,6.07,5.28,16.09,16.09,0,0,1,2.43,9.09,15,15,0,0,1-6,12.34Q616.19,185.61,604.62,185.62Z"/><path class="cls-2" d="M564.69,132.41q-6.19-5.57-17.34-5.57-8.89,0-14.91,4.79A22.42,22.42,0,0,0,524.5,144h12.66a9.08,9.08,0,0,1,3.5-4.55,11.21,11.21,0,0,1,6.7-1.89c3.48,0,6.22.9,8.23,2.68a9.46,9.46,0,0,1,3,7.48v2.71h-14.5q-10,0-15.71,5.05a16.2,16.2,0,0,0-5.68,12.62A16.65,16.65,0,0,0,528,180.76q5.28,5,14,5a21.38,21.38,0,0,0,10.36-2.41,15.55,15.55,0,0,0,6.28-5.61h.52l1.05,7h10.71v-37Q570.89,138,564.69,132.41Zm-6.09,30.32a11.47,11.47,0,0,1-3.75,9q-3.73,3.31-10.18,3.32c-3.13,0-5.53-.72-7.18-2.12a6.77,6.77,0,0,1-2.5-5.41c0-5,3.27-7.48,9.68-7.48H558.6Z"/><path class="cls-2" d="M490.57,185.74q-12.19,0-19.48-7.82t-7.3-21.64q0-13.79,7.27-21.62t19.51-7.82q9.94,0,16.48,5.3a25.15,25.15,0,0,1,8.68,13.43H503.45a13.77,13.77,0,0,0-12.87-7.48,13,13,0,0,0-10.52,4.75q-4,4.77-4,13.44t4,13.44a13,13,0,0,0,10.52,4.77A13.8,13.8,0,0,0,503.45,167h12.28a25.13,25.13,0,0,1-8.68,13.44Q500.52,185.74,490.57,185.74Z"/><polygon class="cls-2" points="418.12 206.13 426.69 184.69 403.68 127.93 417.07 127.93 432.6 168.1 433.12 168.1 448.67 127.93 462.06 127.93 430.98 206.13 418.12 206.13"/><path class="cls-2" d="M392.11,132.41q-6.19-5.57-17.34-5.57c-5.93,0-10.91,1.59-14.91,4.79A22.38,22.38,0,0,0,351.92,144h12.66a9,9,0,0,1,3.5-4.55,11.17,11.17,0,0,1,6.7-1.89q5.22,0,8.23,2.68a9.42,9.42,0,0,1,3,7.48v2.71h-14.5q-10,0-15.71,5.05a16.17,16.17,0,0,0-5.68,12.62,16.62,16.62,0,0,0,5.28,12.66q5.28,5,14,5a21.38,21.38,0,0,0,10.36-2.41,15.55,15.55,0,0,0,6.28-5.61h.52l1.05,7H398.3v-37Q398.3,138,392.11,132.41ZM386,162.73a11.45,11.45,0,0,1-3.75,9q-3.72,3.32-10.18,3.32c-3.13,0-5.54-.71-7.18-2.12a6.79,6.79,0,0,1-2.5-5.41q.05-7.47,9.68-7.48H386Z"/><path class="cls-2" d="M322.64,156.28a26.2,26.2,0,0,0,5.5-2.16,31,31,0,0,0,5.68-4,18.34,18.34,0,0,0,4.73-7,26.17,26.17,0,0,0,1.77-9.84q0-10.71-6.84-17.16t-17.8-6.43H284.61v75H298V156.86h10.16l19.3,27.83h15ZM298,145V121.5h16.59q5.7,0,9,3.09t3.32,8.66q0,5.57-3.34,8.68A12.55,12.55,0,0,1,314.7,145Z"/></svg>