<svg fill="#fff" height="32" viewBox="0 0 32 32" width="32" xmlns="http://www.w3.org/2000/svg"><path d="m19.8856 26.1875c-.2225 0-.44.066-.625.1896s-.3292.2993-.4143.5049c-.0852.2055-.1075.4317-.0641.65.0435.2182.1506.4187.3079.576.1574.1573.3578.2645.576.3079.2183.0434.4445.0211.65-.064.2056-.0852.3813-.2294.5049-.4144s.1896-.4025.1896-.625c0-.2984-.1185-.5845-.3295-.7955s-.4971-.3295-.7955-.3295zm6.995-9.225c-.5937-.9138-2.4606-3.2781-5.4537-4.6069-.3792-.1691-.7621-.3206-1.1488-.4544.2543-.6216.3782-1.2889.3638-1.96047-.0143-.67154-.1665-1.33296-.4471-1.94322s-.6836-1.15634-1.1841-1.60436c-.5004-.44801-1.0876-.78839-1.7251-1.00002-.7756-.25625-1.4581-.37501-2.0256-.36063-.0375-.125-.1181-.6875.5875-2.1875l-1.4312-.845-.3426.4725c-.5431.75375-1.0575 1.47187-1.5212 2.18062-.1703-.04021-.3436-.06634-.5181-.07812-2.59565-.15313-2.43753-.14562-2.56628-.14562-3.16312 0-3.17187 3.25749-3.17187 2.8675l-.1475 2.29249c-.10063 1.68753 1.23438 3.13813 2.97688 3.24063l.55812.0338c-1.06128.6048-2.03471 1.3521-2.89312 2.2212-3.91563 3.9562-3.91563 8.29-3.91563 11.7756v2.1025l1.4575-1.8625c.19537.8202.50152 1.61.91 2.3475.36125.6332.92937.5906 1.2275.4581.26312-.1168.625-.4324.23437-1.2568-.4994-1.0488-.83175-2.1692-.985-3.3206l2.92626-3.7394-1.54126 4.6319c3.63933-2.65 9.83623-3.86 14.76563-2.4119 2.1375.6281 4.2156.0431 5.2963-1.49.045-.0625.075-.135.1156-.2013.1125.5857.1711 1.1805.175 1.7769 0 1.4563-.2307 3.3081-.93 5.1025-.1575.4037.11.9063.5375.9838.4637.0981.9581-.1938 1.1481-.6969.6-1.5969.9125-3.4094.9125-5.3894 0-2.4112-.8125-4.8413-2.2444-6.9325zm-15.9825-8.92625-.98123-.05812-.08687 1.36187.8206.04875c-.0363.40728-.0296.81725.02 1.22315l-1.39873-.0838c-.10076-.0042-.19971-.0282-.2912-.0706-.09148-.0424-.1737-.1025-.24196-.1767-.06826-.0743-.12122-.1612-.15585-.256-.03464-.09468-.05026-.19529-.04599-.29605l.15063-2.29125c.0625-.76063.86688-.70437.82875-.7075l1.81935.10813c-.1739.38855-.3201.78892-.4375 1.19812zm9.2763 10.76125c-.1324.1026-.299.1507-.4657.1346-.1667-.0162-.321-.0954-.4312-.2215l-.605-.7181-2.1513 1.6875c-.1023.0805-.2317.1184-.3613.1058s-.2493-.0747-.3343-.1733l-.9862-1.165c-.0745-.0968-.1075-.2193-.0918-.3404.0157-.1212.0788-.2312.1755-.3058l2.1606-1.6988-.8837-1.0463-1.0681.8407c-.0975.076-.2203.1118-.3434.1002-.123-.0116-.237-.0698-.3185-.1627 0 0-.2325-.2763-.2375-.2831-.0743-.0971-.107-.2197-.0909-.3409.016-.1212.0795-.231.1765-.3054l1.0569-.8306s-1.1569-1.375-1.1625-1.3838c-.048-.0622-.0833-.1332-.1038-.209-.0205-.0759-.0259-.155-.0158-.2329s.0355-.1531.0747-.2211c.0392-.0681.0914-.1278.1536-.1757.1313-.1037.2976-.1528.4641-.1368.1666.016.3205.0956.4297.2224l5.0681 6.02c.0481.0623.0834.1334.1039.2094.0205.0759.0259.1551.0158.2331s-.0355.1533-.0747.2215-.0914.128-.1537.176zm-6.4594 7.39c-.2225 0-.44.066-.625.1896s-.3292.2993-.4144.5049c-.0851.2055-.1074.4317-.064.65.0434.2182.1506.4187.3079.576s.3578.2645.576.3079c.2183.0434.4445.0211.65-.064.2056-.0852.3813-.2294.5049-.4144s.1896-.4025.1896-.625c0-.2984-.1185-.5845-.3295-.7955s-.4971-.3295-.7955-.3295z"/></svg>