<svg fill="#fff" height="32" viewBox="0 0 32 32" width="32" xmlns="http://www.w3.org/2000/svg"><path clip-rule="evenodd" d="m6.72861 3.03262c-.05183.03293-.07239.49493-.08337 1.87494l-.01473 1.83131-2.29261.01445c-1.49367.00945-2.29261.03404-2.29261.07058 0 .09865.38919 1.77142.44241 1.90162.0282.06891.13088.46866.22815.88842.20633.89076.18646.86636.7214.88776.28943.0115.41267.0375.40878.086-.00305.0382-.00931 3.3839-.01389 7.4348l-.00834 7.3653-.15284.0613c-.61094.2451-.70056.389-.73641 1.1824l-.02779.6158-.1791.0579c-.54453.1759-.74851.5353-.726 1.2788l.01584.5274 4.43238-.0006c2.43781-.0004 4.51992-.0008 4.62692-.0011l.1945-.0005v-.5864c0-.7903-.148-1.0523-.6742-1.1941-.1182-.0318-.216-.0882-.217-.1252-.03-1.0041-.0432-1.1393-.1267-1.2995-.1077-.2064-.36863-.4074-.52898-.4074-.28372 0-.27483.1519-.25149-4.3169.02307-4.4298.03057-4.5612.30929-5.3816.79158-2.3292 2.74368-3.9726 5.24398-4.4145.8626-.1525 2.405-.007 2.9833.2815.0531.0264.1357.048.1838.048.142 0 .9649.4137 1.4169.7121 1.1625.768 2.2548 2.2155 2.6081 3.4563.0392.1376.1042.3627.1445.5002.1623.5532.1906 1.3086.1908 5.0961l.0001 3.8458-.1235.0864c-.0679.0477-.1594.0866-.2031.0866-.3687 0-.6182.4689-.6182 1.1617v.5561l-.2633.1164c-.5516.244-.6815.482-.6815 1.2486 0 .4673.0115.5299.0972.5305 2.2446.0155 9.1502-.0074 9.1876-.0305.0287-.0177.0518-.2498.0511-.5154-.0018-.7374-.2137-1.0966-.7285-1.2353l-.2151-.0579-.001-.5675c-.0012-.8-.2053-1.1143-.8298-1.2776l-.114-.0299v-7.4527-7.4527l.4029-.0008c.5714-.0013.5195.0895.9355-1.63875.0884-.36682.2128-.85452.2764-1.08378.1917-.68987.2254-.84882.1958-.9258-.0225-.05877-.478-.07628-2.295-.08795l-2.2668-.01445-.0278-1.86188-.0277-1.86188-9.2538-.0132c-5.0896-.00722-9.2847.00667-9.32249.03071z"  fill-rule="evenodd"/></svg>