<svg width="32" height="32" viewBox="0 0 32 32" fill="#fff" xmlns="http://www.w3.org/2000/svg">
<path fill-rule="evenodd" clip-rule="evenodd" d="M22.0292 11.3357C23.3409 10.2413 24.8043 9.82497 26.2077 9.93024C27.7048 10.0425 29.0901 10.7442 30.1249 11.7635C31.1594 12.7828 31.8702 14.1462 31.984 15.6176C32.0988 17.1025 31.6016 18.6576 30.2909 20.0224C30.1711 20.1482 30.0486 20.2722 29.9234 20.3947C23.9781 26.2511 16.0808 26.2666 16 26.2666H15.9996C15.9593 26.2666 8.03691 26.2663 2.07629 20.3941L2.07501 20.3926C1.95195 20.2707 1.83077 20.1479 1.7114 20.0245L1.71045 20.0233C0.399076 18.6597 -0.0985585 17.1049 0.0158883 15.6201C0.129292 14.1489 0.839608 12.7854 1.87395 11.7657C2.90821 10.7461 4.29343 10.0438 5.79075 9.93101C7.19409 9.82533 8.65776 10.2412 9.97008 11.335C10.1112 9.64793 10.8464 8.33492 11.9136 7.43225C13.0517 6.4695 14.535 6 15.9997 6C17.4644 6 18.9476 6.4695 20.0857 7.43225C21.153 8.33504 21.8883 9.64829 22.0292 11.3357ZM16.2718 25.6729L16.2716 25.6655H16.2721L16.2718 25.6729ZM15.7275 25.6729L15.7273 25.6655H15.7278L15.7275 25.6729ZM20.4663 17.5408C20.3036 17.5408 20.2473 17.7722 20.351 17.8948C20.5346 18.1119 20.6451 18.3913 20.6451 18.696C20.6451 19.3876 20.0762 19.9482 19.3743 19.9482C18.6723 19.9482 18.1032 19.3876 18.1032 18.696C18.1032 18.659 18.0542 18.6407 18.0321 18.6706C17.8316 18.9419 17.6963 19.2464 17.6406 19.5661C17.6094 19.7461 17.4608 19.8955 17.2741 19.8955H17.1711C16.9274 19.8955 16.7265 19.7008 16.7624 19.465C17.0089 17.8493 18.6252 16.6775 20.4663 16.6775C22.3073 16.6775 23.9236 17.8493 24.17 19.465C24.2058 19.7008 24.0049 19.8955 23.7614 19.8955C23.5176 19.8955 23.3248 19.6998 23.2718 19.4671C23.0309 18.4081 21.9139 17.5408 20.4663 17.5408ZM9.17953 18.696C9.17953 18.6472 9.11534 18.621 9.08512 18.6599C8.87083 18.9354 8.72482 19.2473 8.66301 19.5761C8.62653 19.7703 8.46615 19.9318 8.26432 19.9318H8.18868C7.94506 19.9318 7.74409 19.7372 7.78001 19.5015C8.02636 17.8849 9.64284 16.714 11.4838 16.714C13.3248 16.714 14.9413 17.8849 15.1876 19.5015C15.2236 19.7372 15.0226 19.9318 14.7789 19.9318C14.5354 19.9318 14.3424 19.7363 14.2895 19.5036C14.0487 18.4439 12.9317 17.5772 11.4838 17.5772C11.3522 17.5772 11.304 17.7593 11.3921 17.8549C11.5968 18.0772 11.7216 18.3723 11.7216 18.696C11.7216 19.3876 11.1525 19.9482 10.4506 19.9482C9.74858 19.9482 9.17953 19.3876 9.17953 18.696ZM17.4136 21.7159C17.5858 21.5472 17.8519 21.4652 18.0657 21.5794C18.2795 21.6938 18.3606 21.9591 18.2065 22.1439C17.7047 22.745 16.8923 23.1262 15.9963 23.1262C15.1007 23.1262 14.2865 22.7492 13.7841 22.1433C13.6306 21.9582 13.7127 21.6929 13.9269 21.5794C14.1411 21.4658 14.4067 21.549 14.5787 21.7177C14.9099 22.0431 15.4124 22.2631 15.9963 22.2631C16.5786 22.2631 17.0817 22.0407 17.4136 21.7159Z"/>
</svg>
