<svg fill="#fff" height="32" viewBox="0 0 32 32" width="32" xmlns="http://www.w3.org/2000/svg"><path d="m14.6998.306534c.7778-.408712 1.9612-.408712 2.739 0l7.9362 4.170536c.4684.24615.7256.61294.7717.99159h.0076v20.96324c-.0103.413-.27.8233-.7793 1.091l-7.9362 4.1705c-.7778.4088-1.9612.4088-2.739 0l-7.93617-4.1705c-.50719-.2665-.75059-.6797-.76264-1.091-.0012-.0405-.00135-.0742-.0002-.1022l-.00005-20.72639c-.0008-.0227-.00088-.04537-.00023-.06795l.00048-.0667.00355-.00002c.03525-.3828.28082-.74022.75909-.99157zm10.2052 16.857466-7.4662 3.9235c-.7778.4087-1.9612.4087-2.739 0l-7.44982-3.9148v9.2177l7.44982 3.8943c.4207.2237.8573.4417 1.2843.4695l.0852.0027c.4449.0015.8768-.2232 1.3148-.436l7.5209-3.964zm-9.4605-5.6188c-.0577.0197-.1119.0426-.1613.0685l-7.93617 4.1705c-.00832.0044-.01627.0087-.02382.013l-.00673.0039.01245.0071.0181.0098 7.93617 4.1705c.0494.026.1036.0488.1613.0685zm1.2496 0v8.5118c.0578-.0197.1119-.0425.1613-.0685l7.9362-4.1705c.0083-.0044.0163-.0087.0238-.013l.0068-.0039-.0125-.0071-.0181-.0098-7.9362-4.1705c-.0494-.0259-.1035-.0488-.1613-.0685zm8.2109-4.58946-7.1193 3.74126 7.1193 3.7412zm-17.65502.00875v7.46501l7.10272-3.7325zm9.60542-5.55895c-.4127-.21689-1.1594-.21689-1.5722 0l-7.93617 4.17055c-.00832.00437-.01627.0087-.02382.01297l-.00673.00388.01245.0071.0181.00977 7.93617 4.17054c.4128.21688 1.1595.21688 1.5722 0l7.9362-4.17054c.0083-.00437.0163-.0087.0238-.013l.0068-.00387-.0125-.0071-.0181-.00975z"/></svg>