<svg fill="#fff" height="32" viewBox="0 0 32 32" width="32" xmlns="http://www.w3.org/2000/svg"><path clip-rule="evenodd" d="m16 1c-8.28623 0-15 6.71864-15 14.9973 0 7.8695 6.0712 14.3288 13.7833 14.9486v.0541h1.2167c8.2862 0 15-6.7186 15-14.9973 0-8.27801-6.7132-15.0027-15-15.0027zm3.3145 27.1252c-.941.2567-1.9261.4068-2.9414.4364h-.3731c-1.6931 0-3.3083-.3354-4.7828-.9432 1.4277-5.1441 5.2979-8.8287 9.7277-10.4751.7645 3.7049.2096 7.6751-1.6304 10.9819zm.9559-13.3252c-5.0559 1.8211-9.4715 5.923-11.24569 11.6478-3.37048-2.2543-5.59127-6.0948-5.59127-10.4505 0-1.5446.27899-3.0244.78938-4.3917 1.52133.7581 3.14807 1.2943 4.82097 1.5924 2.13101.3907 4.31441.3778 6.43931-.0054 1.2094-.2183 2.3902-.5661 3.5223-1.0296.504.8378.9278 1.7206 1.265 2.637zm3.02 1.6736c.7306 3.3723.5091 6.946-.6569 10.2018 3.4593-2.1542 5.7948-5.9428 5.9271-10.283-1.7196-.3118-3.5122-.2737-5.2702.0812zm5.1011-2.5721c-1.9044-.2675-3.8628-.1806-5.7759.2281-.3768-1.0571-.8523-2.0753-1.419-3.0422 1.5718-.9078 3.0072-2.0503 4.241-3.38253 1.5091 1.71581 2.558 3.84593 2.9539 6.19663zm-18.91777-3.0982c-1.45328-.2587-2.86486-.7252-4.18214-1.38351 1.13293-1.83964 2.72681-3.36554 4.62085-4.41638l.01463.0046.00054.00017.00009.00003c.2063.06494.4033.12694.593.19502.07.02673.1386.05271.2055.07811l.0011.00041.0001.00003v.00001c.3076.11662.5823.22076.8117.32713l.0655.03273.0156.00726c.1449.06738.3537.1669.5418.25662.1.04772.1942.09262.2699.12844l.0028.00154.0001.00001v.00001.00001c.0633.03397.1164.06251.1659.09204.0403.02615.0763.04734.0957.05864.0353.02067.0715.04111.1014.05775l.0695.03834.0094.0052.02.01107.0026.00145.1003.05742c.0827.0472.1873.10688.3021.17409.081.04744.1567.09268.2185.13097.046.02858.071.04514.0805.05141v.00001l.0005.00033c.0039.0026.0048.0032.0032.002l.0534.04042.0592.03521c.0904.05363.1795.11526.2906.19215v.00003l.0005.00033c.0507.03511.1061.07341.1682.1156l.0423.02864.0359.02025.0052.00361c.0097.0065.0331.0223.074.05156.0628.045.1387.10148.2222.1643l.0989.07453c.0509.03839.1025.07729.1463.11011.058.04336.1288.096.1928.14034.9337.71411 1.7872 1.52951 2.5471 2.42826-.8084.2958-1.6417.5235-2.4901.6767-1.8494.3334-3.7384.3424-5.5708.0062l-.00318-.0006zm6.52627-7.3703c2.8844 0 5.5416.97283 7.6624 2.60771-1.1119 1.20297-2.414 2.22748-3.8397 3.02923-.9802-1.24584-2.1142-2.36752-3.3786-3.33063l-.0305-.02325-.0317-.02114-.0086-.006-.0273-.01959c-.0234-.01695-.0523-.03836-.087-.06434-.039-.02922-.0782-.05878-.1202-.0905l-.0006-.00046-.0002-.00014-.0089-.00673-.1106-.08334c-.0862-.06479-.1807-.13526-.2675-.19746-.0606-.04348-.1478-.10497-.2369-.15919l-.0565-.03908-.0003-.00018v-.00003-.00003c-.1159-.08023-.2896-.20058-.4477-.29766-.1477-.10353-.3473-.22149-.4781-.29807-.1265-.07411-.2628-.1519-.3475-.20021l-.0008-.00044-.0641-.03667c-.0156-.0091-.0291-.01666-.0347-.01978l-.0004-.00018-.0007-.00041-.0329-.01818-.0111-.00612-.0574-.03174c-.0225-.01251-.0407-.02283-.054-.03056l-.0091-.0064-.0323-.01972c-.1169-.07142-.2386-.13663-.3047-.17203l-.0014-.00075-.023-.01233-.0283-.01522-.029-.01371c-.0581-.02741-.144-.06831-.2414-.11477.8824-.19634 1.7997-.2999 2.7413-.2999z" fill-rule="evenodd"/></svg>