<svg fill="#fff" height="32" viewBox="0 0 32 32" width="32" xmlns="http://www.w3.org/2000/svg"><path clip-rule="evenodd" d="m8.75001 4.75h1.87499v1.875h-1.87499zm13.12499 1.875v1.875h1.875v3.75h1.875v3.75h1.875v9.375h-1.875v1.875h-1.875v1.875h-1.875v1.875h-11.25v-1.875h-1.87499v-1.875h-1.87501v-3.75h-1.875v-9.375h1.875v-7.5h1.87501v1.875h1.87499v1.875h1.875v-3.75h1.875v-1.875h-1.875v-3.75h1.875v1.875h3.75v1.875h1.875v1.875zm0 0v-1.875h1.875v1.875zm-13.12499-5.625h-1.87501v1.875h1.87501zm7.49999 13.125h1.875v1.875h-1.875zm-3.75 5.625v-1.875h7.5v1.875h1.875v7.5h-1.875v1.875h-7.5v-1.875h-1.875v-7.5zm1.875 1.875h-1.875v3.75h1.875zm5.625 0v3.75h-1.875v-3.75z" fill-rule="evenodd"/></svg>