<svg fill="#fff" height="32" viewBox="0 0 32 32" width="32" xmlns="http://www.w3.org/2000/svg"><path clip-rule="evenodd" d="m24.9909 20.9708.0002.0002c.4393-1.0142.6824-2.1335.6824-3.3085 0-1.1752-.2431-2.2946-.6826-3.3089l.6826-.4269 1.4568-.9107c.6696 1.4085 1.044 2.9835 1.044 4.6465s-.3744 3.2381-1.044 4.6465l.554.3462c.3046.1901.49.5243.49.8836v6.6276c0 .4603-.3733.8336-.8336.8336h-9.9047c-7.3607 0-13.4604-6.0221-13.43593-13.3828.0151-4.4871 2.24618-8.45256 5.65501-10.85858.11142-.07914.17911-.20619.17911-.3426v-4.16537c0-.69093.56021-1.25065 1.25061-1.25065.691 0 1.2507.56024 1.2507 1.25065v2.73977c0 .14579.1453.24628.2817.19473.6602-.24992 1.3454-.44882 2.0509-.592.0979-.01979.1682-.10466.1682-.2041v-2.1384c0-.69093.5602-1.25065 1.2506-1.25065.691 0 1.2507.56024 1.2507 1.25065v1.86713c0 .11454.0921.2067.2067.20826 4.2356.06405 7.9933 2.10351 10.3915 5.23743.2531.33063.4915.67423.7133 1.02833.0792.1265.1568.2546.2317.3842.225.3874.0984.8841-.2816 1.1216l-1.4689.9179-2.1394 1.3376-2.6179 1.636c-.1526.0958-.227.2785-.1833.4535.0979.3905.1494.7987.1494 1.2194s-.0515.8289-.1494 1.2194c-.0437.1749.0302.3582.1833.4535zm-7.5575 7.5284h7.8231c.2306 0 .417-.1869.417-.417v-3.4469c0-.1791-.0921-.3462-.2447-.4415l-1.7646-1.1033-2.3674-1.4798c-.2916-.1822-.6665-.1686-.9404.0391-.8388.6363-1.8848 1.0137-3.0188 1.0137-2.7872 0-5.0417-2.2795-5.0011-5.076.0396-2.7095 2.2639-4.9125 4.974-4.9271 1.1423-.0057 2.1967.3707 3.0412 1.0101.276.2088.6514.226.9451.0427l2.3674-1.4797 1.7328-1.0835c.2182-.1359.2619-.4353.0927-.6285-1.9863-2.26595-4.9021-3.69676-8.1521-3.69676-1.711 0-3.3292.39727-4.7683 1.1033-.1427.07029-.2333.21556-.2333.37489v3.52597c0 .6909-.5602 1.2507-1.2506 1.2507-.691 0-1.25069-.5603-1.25069-1.2507v-1.7375c0-.09317-.11299-.13951-.17859-.0734-1.94783 1.9572-3.15318 4.6543-3.15579 7.6336-.00572 5.9663 4.96667 10.8476 10.93307 10.8476zm2.4029-10.7492v-.175c-.0156-.454-.1521-.8773-.378-1.2381-.2317-.3707-.5592-.6769-.9466-.8831-.3499-.1864-.7493-.2921-1.1741-.2921-1.3814 0-2.5008 1.1195-2.5008 2.5008s1.1194 2.5008 2.5008 2.5008c.4243 0 .8242-.1057 1.1741-.2921.3874-.2062.7149-.5124.9466-.8831.2259-.3613.3624-.7841.378-1.2381z" fill-rule="evenodd"/></svg>