<svg fill="#fff" height="32" viewBox="0 0 32 32" width="32" xmlns="http://www.w3.org/2000/svg"><path clip-rule="evenodd" d="m15.5 1.98323c.0803 0 .154.01963.2276.05891l12.0231 6.78748c.1406.07854.2276.22254.2276.37963v13.57495c0 .1571-.087.3011-.2276.3796l-1.8303 1.0343-4.8173-12.914c-.087-.2356-.4217-.2356-.5087 0l-1.5866 4.2479c-.0469.1179-.0469.2488 0 .3666l3.76 10.081-1.2511.707-3.0776-8.255c-.0871-.2356-.4218-.2356-.5088 0l-1.5866 4.2479c-.0468.1178-.0468.2487 0 .3665l2.0206 5.422-2.6367 1.4899c-.0669.0392-.1473.0589-.2276.0589s-.154-.0197-.2276-.0589l-2.6108-1.4747 7.4164-19.88273c.0669-.17672-.0669-.35999-.2544-.35999h-3.0459c-.2276 0-.4352.13745-.5088.3469l-6.44864 17.28092-1.161-.9437-.40018 1.0718-.0015-.0008 6.49232-17.40167c.0602-.17018-.067-.35345-.2611-.35345h-3.0459c-.2276 0-.4352.13745-.5088.3469l-5.82944 15.62722-1.84866-1.0442c-.14058-.0786-.22761-.2226-.22761-.3796v-13.58155c0-.15709.08703-.30109.22761-.37963l12.0231-6.78748c.0669-.03928.1473-.05891.2209-.05891zm0-1.98323c-.4284 0-.8569.11127-1.2385.327265l-12.02304 6.787485c-.76316.43199-1.23846 1.23052-1.23846 2.0945v13.57495c0 .864.4753 1.6691 1.23846 2.1011l12.02304 6.7874c.3816.216.8101.3273 1.2385.3273s.8569-.1113 1.2385-.3273l12.023-6.7874c.7699-.432 1.2385-1.2306 1.2385-2.1011v-13.57495c0-.86398-.4753-1.66906-1.2385-2.10105l-12.0163-6.780935c-.3883-.215995-.8168-.327265-1.2452-.327265z" fill-rule="evenodd"/></svg>