<svg fill="#fff" height="32" viewBox="0 0 32 32" width="32" xmlns="http://www.w3.org/2000/svg" xmlns:xlink="http://www.w3.org/1999/xlink"><path d="m27.131 6.05914c-.0089-.01723-.0236-.03074-.0416-.03809-2.0747-.95192-4.2641-1.63071-6.5135-2.01939-.0204-.00379-.0415-.00105-.0603.00784s-.0343.02348-.0444.04169c-.2981.54111-.5687 1.09692-.8108 1.66531-2.4247-.36806-4.8911-.36806-7.3158 0-.2437-.56983-.5187-1.12578-.8236-1.66531-.0105-.01782-.0261-.03207-.0448-.0409-.0186-.00884-.0395-.01184-.0599-.00863-2.24965.38787-4.43924 1.06671-6.51371 2.01944-.01775.00753-.03274.02038-.04288.03679-4.148531 6.19531-5.284971 12.23821-4.727472 18.20641.001568.0146.006062.0288.013214.0416.007152.0129.016817.0242.028419.0332 2.415649 1.7886 5.117589 3.1539 7.990509 4.0375.02023.0061.04183.0058.0619-.0008.02008-.0065.03765-.0191.05037-.036.61704-.8396 1.16378-1.7286 1.63467-2.6581.00647-.0127.01016-.0267.01084-.041.00067-.0143-.00169-.0285-.00693-.0418s-.01324-.0254-.02347-.0354-.02247-.0177-.0359-.0226c-.86217-.3299-1.69686-.7276-2.49622-1.1893-.01452-.0085-.02672-.0205-.03551-.0349-.00879-.0143-.01391-.0306-.01491-.0475-.001-.0168.00217-.0336.0092-.0489.00704-.0153.01774-.0286.03115-.0388.16773-.1257.33557-.2564.49573-.3884.01423-.0117.03145-.0193.04972-.0217.01826-.0025.03686.0002.05368.0078 5.237 2.39 10.9067 2.39 16.0817 0 .0169-.0081.0356-.0111.0542-.0089.0185.0023.036.0097.0505.0215.1602.1321.328.264.497.3897.0135.0101.0243.0233.0314.0386.0072.0152.0104.032.0096.0488-.0009.0168-.0059.0332-.0146.0476s-.0208.0265-.0352.0351c-.7976.4656-1.633.863-2.4975 1.188-.0134.0052-.0256.013-.0357.0232-.0102.0101-.0181.0223-.0233.0357-.0051.0134-.0073.0278-.0066.0421.0008.0144.0046.0284.0112.0411.4788.9243 1.0247 1.8123 1.6334 2.6567.0124.0173.0299.0303.05.0371.0202.0068.042.0072.0623.0009 2.8781-.8806 5.5847-2.246 8.0034-4.0373.0118-.0086.0216-.0196.0288-.0323s.0115-.0268.0128-.0413c.6675-6.8998-1.1173-12.8932-4.7311-18.20636zm-16.4376 14.57116c-1.5767 0-2.87586-1.4469-2.87586-3.2239s1.27397-3.224 2.87586-3.224c1.6144 0 2.901 1.4596 2.8758 3.2239 0 1.7771-1.274 3.224-2.8758 3.224zm10.633 0c-1.5767 0-2.8758-1.4469-2.8758-3.2239s1.2739-3.224 2.8758-3.224c1.6145 0 2.9011 1.4596 2.8759 3.2239 0 1.7771-1.2614 3.224-2.8759 3.224z"/></svg>