<svg fill="#fff" height="32" viewBox="0 0 32 32" width="32" xmlns="http://www.w3.org/2000/svg"><g><path d="m18.0711 21.3077c0-1.2745 1.0057-2.3077 2.2462-2.3077h.8985c1.2405 0 2.2462 1.0332 2.2462 2.3077v.9231c0 1.2745-1.0057 2.3077-2.2462 2.3077h-.8985c-1.2405 0-2.2462-1.0332-2.2462-2.3077z"/><path d="m20.3173 10.6924c-1.2405 0-2.2462 1.0332-2.2462 2.3076v.9231c0 1.2745 1.0057 2.3077 2.2462 2.3077h.8985c1.2405 0 2.2462-1.0332 2.2462-2.3077v-.9231c0-1.2744-1.0057-2.3076-2.2462-2.3076z"/><path clip-rule="evenodd" d="m9.98481 1c-4.96218 0-8.98481 4.13276-8.98481 9.2308v11.5384c0 5.098 4.02263 9.2308 8.98481 9.2308h11.23099c4.9622 0 8.9848-4.1328 8.9848-9.2308v-11.5384c0-5.09804-4.0226-9.2308-8.9848-9.2308zm11.23099 3.6923h-11.23099c-2.97729 0-5.39088 2.47966-5.39088 5.5385v11.5384c0 3.0588 2.41359 5.5385 5.39088 5.5385h11.23099c2.9773 0 5.3909-2.4797 5.3909-5.5385v-11.5384c0-3.05884-2.4136-5.5385-5.3909-5.5385z" fill-rule="evenodd"/></g></svg>