<svg fill="#fff" height="32" viewBox="0 0 32 32" width="32" xmlns="http://www.w3.org/2000/svg"><path d="m29.8533 22.7439-4.6223 4.9562c-.0999.1076-.221.1935-.3556.2523-.1347.0588-.28.0892-.4269.0894h-21.91145c-.10451-.0001-.20673-.0306-.29415-.0879s-.15624-.1388-.19804-.2346c-.0418-.0957-.05477-.2016-.03731-.3047.01746-.103.06459-.1987.13562-.2754l4.61705-4.9561c.09997-.1077.22105-.1936.35569-.2524s.27995-.0892.42686-.0894h21.91143c.1055-.0021.2092.0269.2982.0836.089.0566.1593.1383.2019.2348.0427.0965.0559.2034.0379.3074-.018.1039-.0663.2002-.1389.2768zm-4.6223-9.9828c-.1003-.1071-.2215-.1927-.356-.2514-.1346-.0588-.2797-.0895-.4265-.0903h-21.91145c-.10451.0001-.20673.0306-.29415.0879-.08742.0572-.15624.1388-.19804.2345-.0418.0958-.05477.2017-.03731.3048.01746.103.06459.1987.13562.2754l4.61705 4.9587c.10036.1072.22152.1928.35607.2515.13455.0588.27966.0895.42648.0903h21.91143c.1043-.0006.2062-.0315.2932-.089.087-.0574.1554-.139.1969-.2347.0415-.0956.0543-.2013.0367-.3041-.0175-.1028-.0646-.1983-.1355-.2748zm-22.69395-3.56057h21.91145c.1469-.00012.2922-.03053.4269-.08932.1346-.0588.2557-.14471.3556-.25239l4.6223-4.95616c.0542-.05728.0951-.12582.1197-.20073s.0323-.15432.0227-.23258c-.0096-.07825-.0365-.15341-.0785-.2201-.0421-.06668-.0984-.12325-.1648-.16566-.089-.05662-.1927-.08566-.2982-.08348h-21.91143c-.14691.00016-.29222.03058-.42686.08937-.13464.0588-.25572.1447-.35569.25235l-4.61705 4.95616c-.07103.07666-.11816.17237-.13562.27541s-.00449.20893.03731.30471c.0418.09579.11062.1773.19804.23457.08742.05726.18964.08779.29415.08785z" /></svg>
