<svg fill="#fff" height="32" viewBox="0 0 32 32" width="32" xmlns="http://www.w3.org/2000/svg"><path d="m27.5188 12.7187c-.9375 0-1.7625.3875-2.3688.9938-2.2312-1.5438-5.2375-2.5375-8.5687-2.6438l1.7312-7.79996 5.5125 1.2375c0 1.35 1.1 2.45 2.45 2.45 1.375 0 2.4813-1.13125 2.4813-2.48125s-1.1-2.48125-2.4813-2.48125c-.9625 0-1.7937.58125-2.2062 1.375l-6.0875-1.35c-.3063-.08125-.6063.1375-.6875.44375l-1.9 8.60001c-3.3063.1375-6.28129 1.1312-8.51879 2.675-.60625-.6313-1.4625-1.0188-2.4-1.0188-3.475 0-4.612504 4.6625-1.43125 6.2563-.1125.4937-.1625 1.0187-.1625 1.5437 0 5.2375 5.9 9.4813 13.14374 9.4813 7.275 0 13.175-4.2438 13.175-9.4813 0-.525-.0562-1.075-.1937-1.5687 3.1187-1.6 1.9687-6.2313-1.4875-6.2313zm-19.43129 6.5875c0-1.375 1.1-2.4812 2.48129-2.4812 1.35 0 2.45 1.1 2.45 2.4812 0 1.35-1.1 2.45-2.45 2.45-1.37504.0063-2.48129-1.1-2.48129-2.45zm13.39379 5.8438c-2.275 2.275-8.6938 2.275-10.9688 0-.25-.2188-.25-.6063 0-.8563.2188-.2187.6063-.2187.825 0 1.7375 1.7813 7.5 1.8125 9.3125 0 .2188-.2187.6063-.2187.825 0 .2563.25.2563.6375.0063.8563zm-.05-3.3875c-1.35 0-2.45-1.1-2.45-2.45 0-1.375 1.1-2.4813 2.45-2.4813 1.375 0 2.4812 1.1 2.4812 2.4813-.0062 1.3437-1.1062 2.45-2.4812 2.45z" /></svg>