<svg fill="#fff" height="32" viewBox="0 0 32 32" width="32" xmlns="http://www.w3.org/2000/svg"><path clip-rule="evenodd" d="m2.64486 22.5622c1.11118.8188 2.53665 1.2282 4.27653 1.2282 2.10548 0 3.78681-.4898 5.04421-1.4694 1.2574-.9942 2.1419-2.4928 2.6536-4.4959.3071-1.2281.5703-2.4929.7896-3.7941.0731-.4679.1097-.8553.1097-1.1624 0-1.0234-.256-1.9007-.7677-2.6316-.5117-.74573-1.2134-1.30137-2.1053-1.66686-.8919-.38009-1.9007-.57014-3.02652-.57014-4.13768 0-6.70366 2.0103-7.69785 6.031-.35087 1.4767-.62133 2.7414-.8115 3.7941-.07305.4678-.10963.8627-.10963 1.1843 0 1.5352.54829 2.7195 1.64486 3.5528zm6.66708-2.6536c-.57026.4825-1.26465.7237-2.08351.7237-1.4035 0-2.10536-.6725-2.10536-2.0177 0-.3217.02922-.6287.08777-.921.2631-1.4182.52632-2.6172.78953-3.5968.24849-.9942.65792-1.7325 1.22806-2.2151.58487-.4825 1.28662-.7237 2.10548-.7237 1.38889 0 2.08339.6653 2.08339 1.9957 0 .3218-.0292.6361-.0877.9431-.1754 1.0234-.4314 2.2224-.7676 3.5968-.2485.9942-.66519 1.7325-1.25006 2.215zm6.84066 3.509c.0876.1023.212.1535.3728.1535h2.9827c.1461 0 .2851-.0512.4167-.1535.1315-.1024.2119-.2339.2412-.3947l1.0088-4.803h2.9607c1.9153 0 3.4213-.4021 4.5179-1.2062 1.1112-.8041 1.8495-2.0469 2.215-3.7284.0878-.3947.1316-.7749.1316-1.1404 0-1.272-.4971-2.24419-1.4914-2.91684-.9796-.67253-2.2808-1.00879-3.9037-1.00879h-5.8337c-.1462 0-.2851.05119-.4167.15346-.1316.10239-.212.234-.2412.39482l-3.0265 14.25535c-.0292.1462-.0074.2777.0658.3947zm9.7374-8.7287c-.4533.3363-.9869.5045-1.6009.5045h-2.5222l.8334-3.9257h2.6318c.5995 0 1.0234.1169 1.272.3509.2486.2193.3728.5409.3728.965 0 .19-.0219.4093-.0658.6579-.1462.6287-.4532 1.1112-.9211 1.4474z" fill-rule="evenodd"/></svg>