<svg fill="none" height="32" viewBox="0 0 32 32" width="32" xmlns="http://www.w3.org/2000/svg"><g stroke-linecap="round" stroke-linejoin="round" stroke-width=".25"><path d="m27.7163 4-10.1619 7.517 1.8947-4.43134z" fill="#e17726" stroke="#e17726"/><path d="m4.28376 4 10.06904 7.5788-1.8019-4.4854zm19.77454 17.4236-2.7067 4.1296 5.7924 1.5931 1.6549-5.6299zm-20.8495.0928 1.64724 5.6299 5.77696-1.5931-2.6913-4.1296z" fill="#e27625" stroke="#e27625"/><path d="m10.3236 14.4479-1.60854 2.4283 5.72274.263-.1856-6.1636-3.9286 3.4801zm11.3528.0078-3.9905-3.5574-.1315 6.2409 5.7228-.263zm-11.0434 11.0975 3.4723-1.6704-2.9851-2.3201zm7.2694-1.6781 3.4492 1.6781-.464-3.9982z" fill="#e27625" stroke="#e27625"/><path d="m21.3516 25.5532-3.4492-1.6704.2785 2.2427-.031.9512zm-10.7186 0 3.2171 1.5235-.0232-.9512.2784-2.2427z" fill="#d5bfb2" stroke="#d5bfb2"/><path d="m13.9042 20.0702-2.8614-.8352 2.0262-.928.8429 1.7632zm4.1838 0 .8507-1.771 2.0339.928-2.8846.8507z" fill="#233447" stroke="#233447"/><path d="m10.633 25.5532.5026-4.1297-3.19389.0928zm10.2314-4.1297.4872 4.1297 2.7067-4.0369zm2.4206-4.5472-5.7228.2629.5259 2.9387.8506-1.7787 2.0339.928zm-12.2422 2.3587 2.0262-.9281.843 1.7633.5336-2.9387-5.72281-.2552z" fill="#cc6228" stroke="#cc6228"/><path d="m8.72278 16.8763 2.39742 4.6787-.0774-2.32zm12.24982 2.3587-.0928 2.32 2.3974-4.6787zm-6.527-2.0958-.5414 2.9387.6806 3.4646.1546-4.5705zm3.1088 0-.2784 1.8251.1392 4.5782.6728-3.4723-.5336-2.9387z" fill="#e27525" stroke="#e27525"/><path d="m18.088 20.0702-.6728 3.4723.4872.3403 2.9774-2.32.0928-2.3278zm-7.0452-.8352.0774 2.32 2.9851 2.3201.4795-.3326-.6728-3.4723-2.8769-.8352z" fill="#f5841f" stroke="#f5841f"/><path d="m18.1577 27.0767.0232-.9512-.263-.2165h-3.8358l-.2552.2165.0232.9512-3.2171-1.5235 1.1291.9281 2.2813 1.5699h3.9054l2.2892-1.5777 1.1136-.9203-3.2017 1.5235z" fill="#c0ac9d" stroke="#c0ac9d"/><path d="m17.9025 23.8751-.4873-.3326h-2.8304l-.4795.3403-.2784 2.2427.2552-.2165h3.8358l.263.2165-.2784-2.2427z" fill="#161616" stroke="#161616"/><path d="m28.1493 12.0042.8507-4.13745-1.2838-3.86675-9.8215 7.2695 3.7817 3.1784 5.3361 1.5545 1.1755-1.3688-.5104-.3713.812-.7424-.6187-.4794.812-.6187-.5413-.4176zm-25.1493-4.14519.86615 4.14519-.55681.4098.82748.6187-.61868.4872.80429.7424-.51041.3713 1.17549 1.3688 5.33609-1.5467 3.7817-3.194-9.82154-7.2617z" fill="#763e1a" stroke="#763e1a"/><path d="m27.0125 16.0024-5.3361-1.5467 1.6085 2.4206-2.3973 4.6787 3.1707-.0386h4.7406zm-16.6889-1.5545-5.3361 1.5545-1.7787 5.514h4.74063l3.17077.0386-2.39742-4.6787 1.60852-2.4284zm7.2308 2.6913.348-5.8775 1.5467-4.17604h-6.8982l1.5467 4.17604.348 5.8775.1314 1.8406v4.5627h2.8382l.0155-4.5627z" fill="#f5841f" stroke="#f5841f"/></g></svg>