<svg fill="#fff" height="32" viewBox="0 0 32 32" width="32" xmlns="http://www.w3.org/2000/svg"><path d="m8.2675 29.9994h-5.805v-18.6938h5.805zm-2.90562-21.24378c-1.85625 0-3.36188-1.5375-3.36188-3.39375 0-.89162.3542-1.74673.98467-2.3772s1.48558-.98467 2.37721-.98467c.89162 0 1.74673.3542 2.3772.98467s.98467 1.48558.98467 2.3772c0 1.85625-1.50625 3.39375-3.36187 3.39375zm24.63182 21.24378h-5.7924v-9.1c0-2.1688-.0438-4.95-3.0182-4.95-3.0181 0-3.4806 2.3562-3.4806 4.7937v9.2563h-5.7987v-18.6938h5.5674v2.55h.0813c.775-1.4687 2.6681-3.0187 5.4925-3.0187 5.875 0 6.955 3.8687 6.955 8.8937v10.2688z"/></svg>