<svg fill="#fff" height="32" viewBox="0 0 32 32" width="32" xmlns="http://www.w3.org/2000/svg"><path d="m15.8977 22.4724c5.6299 0 10.2362-4.6063 10.2362-10.2362 0-2.35431-.7165-4.40156-2.0472-6.14171 1.2283-.92126 2.0472-2.45669 2.0472-4.09449h-10.2362c-5.6299 0-10.23623 4.6063-10.23623 10.2362s4.60633 10.2362 10.23623 10.2362zm0-15.76374c3.0709 0 5.5275 2.45669 5.5275 5.52754 0 3.0709-2.4566 5.5276-5.5275 5.5276s-5.5276-2.4567-5.5276-5.5276c0-3.07085 2.4567-5.52754 5.5276-5.52754z"/><path d="m29 25.2363c-.6142-1.5354-1.8425-2.6614-3.4803-3.1732-2.6614 2.559-6.1417 3.8897-9.5197 3.8897-3.4803 0-6.85827-1.3307-9.51968-3.8897-1.6378.5118-2.86615 1.6378-3.48032 3.1732 3.48032 3.5827 8.189 5.4252 12.8976 5.4252 4.7087 0 9.4174-1.8425 13.1024-5.4252z"/></svg>