<svg fill="#fff" height="32" viewBox="0 0 32 32" width="32" xmlns="http://www.w3.org/2000/svg"><path d="m8.0049 5.59513 7.961-4.59513 7.961 4.59513-2.9269 1.69756-5.0341-2.89757-5.0342 2.89757zm15.922 5.79507-2.9269-1.69751-5.0341 2.89751-5.0342-2.89751-2.9268 1.69751v3.3952l5.0341 2.8975v5.7951l2.9269 1.6976 2.9269-1.6976v-5.7951l5.0341-2.8975zm0 9.1903v-3.3951l-2.9269 1.6975v3.3951zm2.078 1.2-5.0341 2.8975v3.3951l7.9609-4.5951v-9.1902l-2.9268 1.6976zm-2.9268-13.28781 2.9268 1.69751v3.3952l2.9268-1.6976v-3.39511l-2.9268-1.69757zm-10.0391 17.41471v3.3951l2.9269 1.6975 2.9269-1.6975v-3.3951l-2.9269 1.6975zm-5.0341-5.3269 2.9268 1.6975v-3.3951l-2.9268-1.6975zm5.0341-12.08781 2.9269 1.69751 2.9269-1.69751-2.9269-1.69757zm-7.11218 1.69751 2.92684-1.69751-2.92684-1.69757-2.92682 1.69757v3.39511l2.92682 1.6976zm0 5.7952-2.92682-1.6976v9.1902l7.961 4.5951v-3.3951l-5.03418-2.8975z"/></svg>