<?xml version="1.0" encoding="UTF-8"?>
<!DOCTYPE svg PUBLIC "-//W3C//DTD SVG 1.1//EN" "http://www.w3.org/Graphics/SVG/1.1/DTD/svg11.dtd">
<svg viewBox="0 0 100 100" width="100%" height="100%" xmlns="http://www.w3.org/2000/svg">
<path d="M87.5,0 C94.375,0 100,5.625 100,12.5 L100,87.5 C100,94.375 94.375,100 87.5,100 L12.5,100 C5.625,100 0,94.375 0,87.5 L0,70.706 C4.157,73.126 14.491,79.145 16.996,80.559 C18.491,81.403 19.922,81.382 21.363,80.552 C23.129,79.534 60.963,57.763 61.831,57.261 C62.697,56.761 62.741,55.227 61.771,54.673 C60.801,54.12 58.959,53.074 58.273,52.673 C57.576,52.266 56.321,52.039 55.157,52.71 C54.674,52.988 22.34,71.58 21.259,72.194 C19.966,72.929 18.365,72.939 17.076,72.193 C16.058,71.604 0.032,62.291 0.032,62.291 L0,62.309 L0,53.857 C4.157,56.277 14.491,62.296 16.996,63.71 C18.491,64.554 19.922,64.533 21.363,63.702 C23.129,62.684 60.963,40.913 61.831,40.412 C62.697,39.912 62.741,38.377 61.771,37.824 C60.801,37.271 58.959,36.224 58.273,35.823 C57.576,35.416 56.321,35.19 55.157,35.86 C54.674,36.139 22.34,54.731 21.259,55.345 C19.966,56.08 18.365,56.09 17.076,55.344 C16.058,54.754 0.032,45.442 0.032,45.442 L0,45.46 L0,37.007 C4.157,39.428 14.491,45.447 16.996,46.861 C18.491,47.705 19.922,47.684 21.363,46.853 C23.129,45.835 60.963,24.064 61.831,23.562 C62.697,23.062 62.741,21.528 61.771,20.975 C60.801,20.421 58.959,19.375 58.273,18.974 C57.576,18.567 56.321,18.341 55.157,19.011 C54.674,19.29 22.34,37.881 21.259,38.495 C19.966,39.231 18.365,39.24 17.076,38.494 C16.058,37.905 0.032,28.593 0.032,28.593 L0,28.61 L0,12.5 C0,5.625 5.625,0 12.5,0 L87.5,0 Z" fill="#E44332" stroke="none"/>
</svg>