<?xml version="1.0" standalone="no"?>
<!DOCTYPE svg PUBLIC "-//W3C//DTD SVG 20010904//EN"
 "http://www.w3.org/TR/2001/REC-SVG-20010904/DTD/svg10.dtd">
<svg version="1.0"  xmlns="http://www.w3.org/2000/svg"
 width="128.000000pt" height="128.000000pt" viewBox="0 0 128.000000 128.000000"
 preserveAspectRatio="xMidYMid meet">

<g transform="translate(0.000000,128.000000) scale(0.100000,-0.100000)"
fill="#fff" stroke="none">
<path d="M420 1262 c-107 -53 -107 -215 0 -260 62 -26 53 -45 -42 -93 -105
-53 -205 -117 -242 -157 -40 -43 -47 -119 -17 -177 l21 -39 -45 -46 -45 -46 2
-220 3 -219 430 0 430 0 3 219 2 220 -45 46 -46 46 20 45 c34 74 22 138 -35
190 -37 33 -159 107 -246 150 -38 18 -68 39 -68 45 0 7 21 22 47 35 53 27 95
91 74 112 -9 9 -16 9 -31 -1 -37 -23 -86 -15 -114 19 -28 33 -32 64 -14 104
17 37 0 48 -42 27z m14 -144 c22 -32 68 -58 100 -58 24 0 27 -2 16 -15 -16
-20 -70 -28 -102 -16 -63 24 -89 87 -62 149 l17 37 8 -38 c5 -21 16 -48 23
-59z m299 -335 c94 -62 115 -110 83 -188 l-15 -35 -188 -2 c-170 -3 -188 -5
-191 -20 -3 -17 11 -18 184 -18 l188 0 43 -42 43 -42 0 -198 0 -198 -130 0
-130 0 0 103 0 102 -61 68 c-33 37 -66 67 -72 67 -6 0 -40 -28 -74 -62 l-63
-62 0 -108 0 -108 -130 0 -130 0 0 197 0 197 42 43 42 43 91 0 c96 0 112 5 94
27 -8 9 -38 13 -100 13 -88 0 -89 0 -104 30 -19 38 -19 99 1 128 21 31 116 94
230 152 l96 49 91 -46 c51 -25 122 -65 160 -90z m-153 -645 l0 -98 -95 0 -95
0 0 97 0 97 47 48 47 48 48 -47 48 -47 0 -98z"/>
<path d="M177 407 c-37 -31 -38 -33 -35 -92 l3 -60 80 0 80 0 3 61 c3 61 2 62
-35 93 -21 17 -42 31 -48 31 -5 0 -27 -15 -48 -33z m93 -78 l0 -39 -45 0 c-45
0 -45 0 -45 36 0 25 7 41 22 54 20 16 25 16 45 3 17 -12 23 -25 23 -54z"/>
<path d="M697 413 c-35 -27 -36 -30 -37 -95 l0 -68 79 0 c89 0 91 2 91 76 0
39 -5 50 -37 79 -21 19 -43 35 -49 35 -6 0 -27 -12 -47 -27z m75 -40 c10 -9
18 -30 18 -50 0 -33 -1 -33 -45 -33 l-45 0 0 38 c0 59 34 80 72 45z"/>
<path d="M1077 1273 c-4 -3 -7 -27 -7 -53 0 -39 -7 -57 -50 -117 -48 -68 -50
-74 -50 -136 0 -48 -4 -66 -15 -71 -10 -4 -15 -19 -15 -49 0 -27 6 -49 15 -57
23 -19 22 -654 0 -677 -11 -11 -15 -30 -13 -62 l3 -46 140 0 140 0 3 53 c2 40
-1 54 -12 58 -14 5 -16 42 -16 281 0 256 -1 274 -17 271 -17 -3 -18 -25 -21
-276 l-2 -272 -75 0 -75 0 0 330 0 330 75 0 c67 0 75 -2 75 -19 0 -21 23 -45
33 -34 4 3 7 17 7 30 0 13 7 26 15 29 11 4 15 21 15 55 0 35 -4 51 -15 55 -11
5 -15 23 -15 73 0 64 -2 70 -45 129 -37 51 -45 69 -45 106 0 63 -13 90 -33 69z
m46 -196 c34 -49 37 -59 36 -118 -1 -35 -3 -55 -6 -44 -2 11 -6 29 -8 40 -2
11 -17 28 -34 38 -29 17 -30 17 -60 -8 -19 -16 -31 -38 -34 -58 -2 -18 -5 -3
-5 31 -2 59 1 68 36 118 20 29 37 54 38 54 0 0 17 -24 37 -53z m-15 -150 c3
-23 0 -27 -22 -27 -21 0 -26 5 -26 23 0 13 3 27 7 31 15 14 38 0 41 -27z m82
-87 c0 -19 -7 -20 -105 -20 -98 0 -105 1 -105 20 0 19 7 20 105 20 98 0 105
-1 105 -20z m0 -780 c0 -19 -7 -20 -105 -20 -98 0 -105 1 -105 20 0 19 7 20
105 20 98 0 105 -1 105 -20z"/>
</g>
</svg>
