<svg xmlns="http://www.w3.org/2000/svg" viewBox="0 0 256 256"><rect width="256" height="256" fill="none"/><line x1="136" y1="64" x2="192" y2="120" fill="none" stroke="currentColor" stroke-linecap="round" stroke-linejoin="round" stroke-width="16"/><line x1="48" y1="40" x2="208" y2="216" fill="none" stroke="currentColor" stroke-linecap="round" stroke-linejoin="round" stroke-width="16"/><path d="M154.67,157.33,98.34,213.66A8,8,0,0,1,92.69,216H48a8,8,0,0,1-8-8V163.31a8,8,0,0,1,2.34-5.65l59-59" fill="none" stroke="currentColor" stroke-linecap="round" stroke-linejoin="round" stroke-width="16"/><path d="M124,76l41.67-41.67a8,8,0,0,1,11.31,0L221.66,79a8,8,0,0,1,0,11.31l-44.34,44.34" fill="none" stroke="currentColor" stroke-linecap="round" stroke-linejoin="round" stroke-width="16"/></svg>