<svg xmlns="http://www.w3.org/2000/svg" viewBox="0 0 256 256"><rect width="256" height="256" fill="none"/><circle cx="128" cy="40" r="24" fill="none" stroke="currentColor" stroke-linecap="round" stroke-linejoin="round" stroke-width="16"/><path d="M149.17,80a24,24,0,0,1,18,8.13l45.32,51.38a12,12,0,0,1-17,17L160,128l22.87,86.93a12,12,0,0,1-21.75,10.14L128,168,94.88,225.07a12,12,0,0,1-21.75-10.14L96,128,60.49,156.49a12,12,0,0,1-17-17L88.83,88.13a24,24,0,0,1,18-8.13Z" fill="none" stroke="currentColor" stroke-linecap="round" stroke-linejoin="round" stroke-width="16"/></svg>