<svg xmlns="http://www.w3.org/2000/svg" viewBox="0 0 256 256"><rect width="256" height="256" fill="none"/><path d="M120.07,39.85a8,8,0,0,0-2.32-5.28l-8.23-8.23a8,8,0,0,0-11.17-.13l-64,64.13a8,8,0,0,0,0,11.32l107.32,104a8,8,0,0,0,5.65,2.34H240a8,8,0,0,0,8-8v-8a32,32,0,0,0-32-32h0a40,40,0,0,1-40-40V95.68a8,8,0,0,0-7.27-8C141.42,85.51,121.43,67.44,120.07,39.85Z" fill="none" stroke="currentColor" stroke-linecap="round" stroke-linejoin="round" stroke-width="16"/><line x1="152" y1="120" x2="176" y2="120" fill="none" stroke="currentColor" stroke-linecap="round" stroke-linejoin="round" stroke-width="16"/><line x1="32" y1="176" x2="64" y2="176" fill="none" stroke="currentColor" stroke-linecap="round" stroke-linejoin="round" stroke-width="16"/><line x1="48" y1="208" x2="96" y2="208" fill="none" stroke="currentColor" stroke-linecap="round" stroke-linejoin="round" stroke-width="16"/><line x1="160" y1="152" x2="192" y2="152" fill="none" stroke="currentColor" stroke-linecap="round" stroke-linejoin="round" stroke-width="16"/></svg>