<svg xmlns="http://www.w3.org/2000/svg" viewBox="0 0 256 256"><rect width="256" height="256" fill="none"/><path d="M128,104a65.47,65.47,0,0,1,17.84-45.25,58.87,58.87,0,0,1,86.16,0Z" fill="none" stroke="currentColor" stroke-linecap="round" stroke-linejoin="round" stroke-width="16"/><path d="M128,104.52a64.26,64.26,0,0,1,87.42,23.26A63,63,0,0,1,221.81,176Z" fill="none" stroke="currentColor" stroke-linecap="round" stroke-linejoin="round" stroke-width="16"/><path d="M128,104a65.47,65.47,0,0,0-17.84-45.25,58.87,58.87,0,0,0-86.16,0Z" fill="none" stroke="currentColor" stroke-linecap="round" stroke-linejoin="round" stroke-width="16"/><path d="M128,104.52a64.26,64.26,0,0,0-87.42,23.26A63,63,0,0,0,34.19,176Z" fill="none" stroke="currentColor" stroke-linecap="round" stroke-linejoin="round" stroke-width="16"/><line x1="128" y1="104.52" x2="128" y2="224" fill="none" stroke="currentColor" stroke-linecap="round" stroke-linejoin="round" stroke-width="16"/></svg>