<svg xmlns="http://www.w3.org/2000/svg" viewBox="0 0 256 256"><rect width="256" height="256" fill="none"/><path d="M165.1,200H122.9a8.05,8.05,0,0,0-5.13,1.85L72,240V200H48a8,8,0,0,1-8-8V48a8,8,0,0,1,8-8H208a8,8,0,0,1,8,8V156.25a8,8,0,0,1-2.88,6.15l-42.89,35.75A8.05,8.05,0,0,1,165.1,200Z" fill="none" stroke="currentColor" stroke-linecap="round" stroke-linejoin="round" stroke-width="16"/><line x1="168" y1="88" x2="168" y2="136" fill="none" stroke="currentColor" stroke-linecap="round" stroke-linejoin="round" stroke-width="16"/><line x1="120" y1="88" x2="120" y2="136" fill="none" stroke="currentColor" stroke-linecap="round" stroke-linejoin="round" stroke-width="16"/></svg>