<svg width="129" height="129" viewBox="0 0 129 129" fill="none" xmlns="http://www.w3.org/2000/svg">
<path d="M51.3242 59.5666H48.9943C48.5592 59.5666 48.1419 59.3938 47.8342 59.0861C47.5265 58.7784 47.3536 58.3611 47.3536 57.9259C47.3536 57.4908 47.5265 57.0734 47.8342 56.7657C48.1419 56.458 48.5592 56.2852 48.9943 56.2852H51.3242C52.2682 56.2897 53.1931 56.0189 53.9857 55.5061C54.7783 54.9932 55.4043 54.2605 55.787 53.3975C55.8785 53.2004 56.0083 53.0235 56.1687 52.8771C56.3292 52.7306 56.5171 52.6174 56.7217 52.5442C56.9262 52.4709 57.1433 52.439 57.3602 52.4503C57.5772 52.4615 57.7898 52.5158 57.9856 52.6099C58.1815 52.6981 58.3577 52.8247 58.5038 52.9821C58.65 53.1395 58.7631 53.3247 58.8365 53.5266C58.9099 53.7284 58.9422 53.943 58.9313 54.1575C58.9204 54.3721 58.8666 54.5823 58.7731 54.7757C58.1267 56.2083 57.0793 57.423 55.7575 58.2732C54.4356 59.1234 52.8958 59.5726 51.3242 59.5666ZM39.1499 59.5666H29.3054C28.8703 59.5666 28.453 59.3938 28.1453 59.0861C27.8376 58.7784 27.6647 58.3611 27.6647 57.9259C27.6647 57.4908 27.8376 57.0734 28.1453 56.7657C28.453 56.458 28.8703 56.2852 29.3054 56.2852H39.1499C39.585 56.2852 40.0024 56.458 40.3101 56.7657C40.6178 57.0734 40.7906 57.4908 40.7906 57.9259C40.7906 58.3611 40.6178 58.7784 40.3101 59.0861C40.0024 59.3938 39.585 59.5666 39.1499 59.5666V59.5666ZM19.461 59.5666H9.61657C9.18141 59.5666 8.76409 59.3938 8.45639 59.0861C8.14869 58.7784 7.97583 58.3611 7.97583 57.9259C7.97583 57.4908 8.14869 57.0734 8.45639 56.7657C8.76409 56.458 9.18141 56.2852 9.61657 56.2852H19.461C19.8962 56.2852 20.3135 56.458 20.6212 56.7657C20.9289 57.0734 21.1017 57.4908 21.1017 57.9259C21.1017 58.3611 20.9289 58.7784 20.6212 59.0861C20.3135 59.3938 19.8962 59.5666 19.461 59.5666V59.5666ZM2.10198 54.3819C1.7307 54.3885 1.36903 54.2637 1.08083 54.0295C0.792635 53.7953 0.596433 53.4669 0.526865 53.1021C0.438863 52.5268 0.416844 51.9433 0.461236 51.3629V42.9295C0.461236 42.4944 0.634099 42.0771 0.941797 41.7694C1.2495 41.4617 1.66682 41.2888 2.10198 41.2888C2.53713 41.2888 2.95446 41.4617 3.26215 41.7694C3.56985 42.0771 3.74272 42.4944 3.74272 42.9295V51.3629C3.71027 51.7122 3.71027 52.0637 3.74272 52.413C3.79081 52.6222 3.79655 52.8389 3.75958 53.0503C3.72262 53.2617 3.6437 53.4636 3.52749 53.644C3.41128 53.8244 3.26012 53.9798 3.08292 54.1009C2.90573 54.222 2.70608 54.3064 2.49575 54.3491L2.10198 54.3819ZM57.8871 45.9813C57.452 45.9813 57.0347 45.8085 56.727 45.5008C56.4193 45.1931 56.2464 44.7757 56.2464 44.3406V34.4961C56.2464 34.061 56.4193 33.6437 56.727 33.336C57.0347 33.0283 57.452 32.8554 57.8871 32.8554C58.3223 32.8554 58.7396 33.0283 59.0473 33.336C59.355 33.6437 59.5279 34.061 59.5279 34.4961V44.3406C59.5279 44.7757 59.355 45.1931 59.0473 45.5008C58.7396 45.8085 58.3223 45.9813 57.8871 45.9813V45.9813ZM2.10198 34.7258C1.66682 34.7258 1.2495 34.553 0.941797 34.2453C0.634099 33.9376 0.461236 33.5203 0.461236 33.0851V23.2407C0.461236 22.8055 0.634099 22.3882 0.941797 22.0805C1.2495 21.7728 1.66682 21.5999 2.10198 21.5999C2.53713 21.5999 2.95446 21.7728 3.26215 22.0805C3.56985 22.3882 3.74272 22.8055 3.74272 23.2407V33.0851C3.74272 33.5203 3.56985 33.9376 3.26215 34.2453C2.95446 34.553 2.53713 34.7258 2.10198 34.7258V34.7258ZM57.8871 26.2924C57.452 26.2924 57.0347 26.1196 56.727 25.8119C56.4193 25.5042 56.2464 25.0868 56.2464 24.6517V14.8073C56.2464 14.3721 56.4193 13.9548 56.727 13.6471C57.0347 13.3394 57.452 13.1665 57.8871 13.1665C58.3223 13.1665 58.7396 13.3394 59.0473 13.6471C59.355 13.9548 59.5279 14.3721 59.5279 14.8073V24.6517C59.5279 25.0868 59.355 25.5042 59.0473 25.8119C58.7396 26.1196 58.3223 26.2924 57.8871 26.2924V26.2924ZM2.10198 15.037C1.66682 15.037 1.2495 14.8641 0.941797 14.5564C0.634099 14.2487 0.461236 13.8314 0.461236 13.3962V8.7037C0.460942 6.52717 1.32216 4.439 2.85672 2.89548C3.16895 2.59277 3.58676 2.42348 4.02164 2.42348C4.45653 2.42348 4.87433 2.59277 5.18657 2.89548C5.48928 3.20771 5.65857 3.62552 5.65857 4.06041C5.65857 4.49529 5.48928 4.9131 5.18657 5.22533C4.26321 6.14754 3.74387 7.39869 3.74272 8.7037V13.3962C3.74272 13.6117 3.70028 13.825 3.61782 14.0241C3.53537 14.2232 3.41451 14.404 3.26215 14.5564C3.1098 14.7088 2.92892 14.8296 2.72986 14.9121C2.5308 14.9945 2.31744 15.037 2.10198 15.037V15.037ZM56.8371 6.80044C56.5631 6.79707 56.2942 6.72648 56.0539 6.59488C55.8136 6.46329 55.6092 6.27471 55.4588 6.0457C55.0141 5.35252 54.4026 4.78201 53.6802 4.38643C52.9578 3.99086 52.1478 3.78285 51.3242 3.78148H48.0427C47.6076 3.78148 47.1902 3.60862 46.8825 3.30092C46.5748 2.99322 46.402 2.57589 46.402 2.14074C46.402 1.70559 46.5748 1.28826 46.8825 0.980563C47.1902 0.672864 47.6076 0.500001 48.0427 0.500001H51.3242C52.6974 0.499279 54.0486 0.844659 55.2531 1.50423C56.4575 2.16381 57.4763 3.1163 58.2153 4.2737C58.3357 4.45341 58.4187 4.65558 58.4592 4.8681C58.4997 5.08062 58.4968 5.29913 58.4509 5.51053C58.4049 5.72194 58.3168 5.92189 58.1917 6.09843C58.0667 6.27496 57.9073 6.42444 57.7231 6.53792C57.459 6.70851 57.1515 6.79963 56.8371 6.80044V6.80044ZM38.1983 3.78148H28.3538C27.9187 3.78148 27.5013 3.60862 27.1936 3.30092C26.8859 2.99322 26.7131 2.57589 26.7131 2.14074C26.7131 1.70559 26.8859 1.28826 27.1936 0.980563C27.5013 0.672864 27.9187 0.500001 28.3538 0.500001H38.1983C38.6334 0.500001 39.0507 0.672864 39.3584 0.980563C39.6661 1.28826 39.839 1.70559 39.839 2.14074C39.839 2.57589 39.6661 2.99322 39.3584 3.30092C39.0507 3.60862 38.6334 3.78148 38.1983 3.78148V3.78148ZM18.5094 3.78148H8.66494C8.22979 3.78148 7.81246 3.60862 7.50476 3.30092C7.19706 2.99322 7.0242 2.57589 7.0242 2.14074C7.0242 1.70559 7.19706 1.28826 7.50476 0.980563C7.81246 0.672864 8.22979 0.500001 8.66494 0.500001H18.5094C18.9445 0.500001 19.3619 0.672864 19.6696 0.980563C19.9773 1.28826 20.1501 1.70559 20.1501 2.14074C20.1501 2.57589 19.9773 2.99322 19.6696 3.30092C19.3619 3.60862 18.9445 3.78148 18.5094 3.78148V3.78148ZM120.235 128.478H117.905C117.47 128.478 117.053 128.305 116.745 127.997C116.438 127.689 116.265 127.272 116.265 126.837C116.265 126.402 116.438 125.985 116.745 125.677C117.053 125.369 117.47 125.196 117.905 125.196H120.235C121.183 125.199 122.112 124.928 122.909 124.415C123.706 123.903 124.339 123.172 124.731 122.309C124.819 122.113 124.946 121.936 125.103 121.79C125.261 121.644 125.446 121.531 125.648 121.458C125.849 121.384 126.064 121.352 126.279 121.363C126.493 121.374 126.703 121.428 126.897 121.521C127.292 121.7 127.6 122.029 127.754 122.434C127.908 122.84 127.895 123.291 127.717 123.687C127.058 125.117 126.004 126.328 124.677 127.178C123.351 128.027 121.81 128.478 120.235 128.478ZM108.061 128.478H98.2165C97.7814 128.478 97.3641 128.305 97.0564 127.997C96.7487 127.689 96.5758 127.272 96.5758 126.837C96.5758 126.402 96.7487 125.985 97.0564 125.677C97.3641 125.369 97.7814 125.196 98.2165 125.196H108.061C108.496 125.196 108.913 125.369 109.221 125.677C109.529 125.985 109.702 126.402 109.702 126.837C109.702 127.272 109.529 127.689 109.221 127.997C108.913 128.305 108.496 128.478 108.061 128.478V128.478ZM88.3721 128.478H78.5276C78.0925 128.478 77.6752 128.305 77.3675 127.997C77.0598 127.689 76.8869 127.272 76.8869 126.837C76.8869 126.402 77.0598 125.985 77.3675 125.677C77.6752 125.369 78.0925 125.196 78.5276 125.196H88.3721C88.8072 125.196 89.2246 125.369 89.5323 125.677C89.84 125.985 90.0128 126.402 90.0128 126.837C90.0128 127.272 89.84 127.689 89.5323 127.997C89.2246 128.305 88.8072 128.478 88.3721 128.478V128.478ZM71.0131 123.293C70.6434 123.293 70.285 123.166 69.9981 122.933C69.7112 122.7 69.5134 122.375 69.4379 122.013C69.3499 121.438 69.3279 120.854 69.3723 120.274V111.841C69.3723 111.405 69.5452 110.988 69.8529 110.68C70.1606 110.373 70.5779 110.2 71.0131 110.2C71.4482 110.2 71.8655 110.373 72.1732 110.68C72.4809 110.988 72.6538 111.405 72.6538 111.841V120.274C72.6035 120.622 72.6035 120.976 72.6538 121.324C72.6969 121.535 72.6981 121.753 72.6571 121.964C72.6161 122.176 72.5338 122.377 72.415 122.557C72.2962 122.737 72.143 122.892 71.9644 123.012C71.7858 123.133 71.5852 123.217 71.374 123.26L71.0131 123.293ZM126.798 114.892C126.363 114.892 125.946 114.72 125.638 114.412C125.33 114.104 125.157 113.687 125.157 113.252V103.407C125.157 102.972 125.33 102.555 125.638 102.247C125.946 101.939 126.363 101.766 126.798 101.766C127.233 101.766 127.651 101.939 127.958 102.247C128.266 102.555 128.439 102.972 128.439 103.407V113.252C128.439 113.687 128.266 114.104 127.958 114.412C127.651 114.72 127.233 114.892 126.798 114.892V114.892ZM71.0131 103.637C70.5779 103.637 70.1606 103.464 69.8529 103.156C69.5452 102.849 69.3723 102.431 69.3723 101.996V92.1517C69.3723 91.7166 69.5452 91.2993 69.8529 90.9916C70.1606 90.6839 70.5779 90.511 71.0131 90.511C71.4482 90.511 71.8655 90.6839 72.1732 90.9916C72.4809 91.2993 72.6538 91.7166 72.6538 92.1517V101.996C72.6538 102.431 72.4809 102.849 72.1732 103.156C71.8655 103.464 71.4482 103.637 71.0131 103.637V103.637ZM126.798 95.2035C126.363 95.2035 125.946 95.0307 125.638 94.723C125.33 94.4153 125.157 93.9979 125.157 93.5628V83.7183C125.157 83.2832 125.33 82.8659 125.638 82.5582C125.946 82.2505 126.363 82.0776 126.798 82.0776C127.233 82.0776 127.651 82.2505 127.958 82.5582C128.266 82.8659 128.439 83.2832 128.439 83.7183V93.5628C128.439 93.9979 128.266 94.4153 127.958 94.723C127.651 95.0307 127.233 95.2035 126.798 95.2035V95.2035ZM71.0131 83.948C70.5779 83.948 70.1606 83.7752 69.8529 83.4675C69.5452 83.1598 69.3723 82.7425 69.3723 82.3073V77.6148C69.3686 76.5365 69.5784 75.4681 69.9895 74.4712C70.4006 73.4744 71.005 72.5687 71.7678 71.8066C72.0768 71.4976 72.4958 71.324 72.9327 71.324C73.3697 71.324 73.7887 71.4976 74.0976 71.8066C74.4066 72.1155 74.5802 72.5346 74.5802 72.9715C74.5802 73.4084 74.4066 73.8275 74.0976 74.1364C73.1743 75.0586 72.655 76.3098 72.6538 77.6148V82.3073C72.6538 82.7425 72.4809 83.1598 72.1732 83.4675C71.8655 83.7752 71.4482 83.948 71.0131 83.948ZM125.748 75.7115C125.474 75.7082 125.205 75.6376 124.965 75.506C124.725 75.3744 124.52 75.1858 124.37 74.9568C123.925 74.2636 123.314 73.6931 122.591 73.2975C121.869 72.9019 121.059 72.6939 120.235 72.6926H116.954C116.519 72.6926 116.101 72.5197 115.794 72.212C115.486 71.9043 115.313 71.487 115.313 71.0518C115.313 70.6167 115.486 70.1994 115.794 69.8917C116.101 69.584 116.519 69.4111 116.954 69.4111H120.235C121.608 69.4104 122.96 69.7557 124.164 70.4153C125.369 71.0749 126.387 72.0274 127.126 73.1848C127.247 73.3645 127.33 73.5667 127.37 73.7792C127.411 73.9917 127.408 74.2102 127.362 74.4216C127.316 74.633 127.228 74.833 127.103 75.0095C126.978 75.1861 126.818 75.3355 126.634 75.449C126.37 75.6196 126.063 75.7107 125.748 75.7115V75.7115ZM107.109 72.6926H97.2649C96.8298 72.6926 96.4124 72.5197 96.1047 72.212C95.797 71.9043 95.6242 71.487 95.6242 71.0518C95.6242 70.6167 95.797 70.1994 96.1047 69.8917C96.4124 69.584 96.8298 69.4111 97.2649 69.4111H107.109C107.544 69.4111 107.962 69.584 108.27 69.8917C108.577 70.1994 108.75 70.6167 108.75 71.0518C108.75 71.487 108.577 71.9043 108.27 72.212C107.962 72.5197 107.544 72.6926 107.109 72.6926V72.6926ZM87.4205 72.6926H77.576C77.1409 72.6926 76.7235 72.5197 76.4158 72.212C76.1081 71.9043 75.9353 71.487 75.9353 71.0518C75.9353 70.6167 76.1081 70.1994 76.4158 69.8917C76.7235 69.584 77.1409 69.4111 77.576 69.4111H87.4205C87.8556 69.4111 88.2729 69.584 88.5806 69.8917C88.8883 70.1994 89.0612 70.6167 89.0612 71.0518C89.0612 71.487 88.8883 71.9043 88.5806 72.212C88.2729 72.5197 87.8556 72.6926 87.4205 72.6926V72.6926Z" fill="#ACA9A8"/>
<path d="M77.5759 2.14062H120.235C124.61 2.14062 126.798 4.32828 126.798 8.70359V51.3628C126.798 55.7381 124.61 57.9258 120.235 57.9258H77.5759C73.2006 57.9258 71.0129 55.7381 71.0129 51.3628V8.70359C71.0129 4.32828 73.2006 2.14062 77.5759 2.14062V2.14062Z" fill="#ACA9A8" fill-opacity="0.5"/>
<path d="M120.235 59.5666H77.576C75.4003 59.5666 73.3136 58.7023 71.7751 57.1638C70.2366 55.6253 69.3723 53.5387 69.3723 51.3629V8.7037C69.3723 6.52794 70.2366 4.4413 71.7751 2.90281C73.3136 1.36432 75.4003 0.5 77.576 0.5H120.235C122.411 0.5 124.498 1.36432 126.036 2.90281C127.575 4.4413 128.439 6.52794 128.439 8.7037V51.3629C128.439 53.5387 127.575 55.6253 126.036 57.1638C124.498 58.7023 122.411 59.5666 120.235 59.5666ZM77.576 3.78148C76.9296 3.78148 76.2896 3.9088 75.6924 4.15616C75.0952 4.40353 74.5525 4.76609 74.0955 5.22317C73.6384 5.68024 73.2758 6.22286 73.0285 6.82005C72.7811 7.41724 72.6538 8.05731 72.6538 8.7037V51.3629C72.6538 52.6684 73.1724 53.9204 74.0955 54.8435C75.0186 55.7666 76.2706 56.2852 77.576 56.2852H120.235C121.541 56.2852 122.793 55.7666 123.716 54.8435C124.639 53.9204 125.157 52.6684 125.157 51.3629V8.7037C125.157 7.39825 124.639 6.14626 123.716 5.22317C122.793 4.30007 121.541 3.78148 120.235 3.78148H77.576Z" fill="#ACA9A8"/>
<path d="M8.66501 71.0518H51.3243C55.6996 71.0518 57.8872 73.2394 57.8872 77.6147V120.274C57.8872 124.649 55.6996 126.837 51.3243 126.837H8.66501C4.2897 126.837 2.10205 124.649 2.10205 120.274V77.6147C2.10205 73.2394 4.2897 71.0518 8.66501 71.0518Z" fill="#ACA9A8" fill-opacity="0.5"/>
<path d="M51.3241 128.478H8.66488C6.48913 128.478 4.40248 127.613 2.86399 126.075C1.3255 124.536 0.461182 122.45 0.461182 120.274V77.6148C0.461182 75.4391 1.3255 73.3524 2.86399 71.8139C4.40248 70.2754 6.48913 69.4111 8.66488 69.4111H51.3241C53.4999 69.4111 55.5865 70.2754 57.125 71.8139C58.6635 73.3524 59.5278 75.4391 59.5278 77.6148V120.274C59.5278 122.45 58.6635 124.536 57.125 126.075C55.5865 127.613 53.4999 128.478 51.3241 128.478ZM8.66488 72.6926C7.35943 72.6926 6.10744 73.2112 5.18435 74.1343C4.26125 75.0574 3.74266 76.3094 3.74266 77.6148V120.274C3.74266 121.58 4.26125 122.832 5.18435 123.755C6.10744 124.678 7.35943 125.196 8.66488 125.196H51.3241C52.6296 125.196 53.8816 124.678 54.8047 123.755C55.7278 122.832 56.2464 121.58 56.2464 120.274V77.6148C56.2464 76.3094 55.7278 75.0574 54.8047 74.1343C53.8816 73.2112 52.6296 72.6926 51.3241 72.6926H8.66488Z" fill="#ACA9A8"/>
</svg>
