<svg data-testid="redis-icon" width="30" height="30" viewBox="0 0 32 32" fill="none" xmlns="http://www.w3.org/2000/svg" role="icon"><g clip-path="url(#product_redis)"><path d="M24.889 0H7.11A7.111 7.111 0 0 0 0 7.111V24.89A7.111 7.111 0 0 0 7.111 32H24.89A7.111 7.111 0 0 0 32 24.889V7.11A7.111 7.111 0 0 0 24.889 0Z" fill="#DC2626"></path><path d="M22.053 4.832a.889.889 0 0 1 1.582 0l3.968 7.74a.889.889 0 0 1-.79 1.295h-7.936a.889.889 0 0 1-.791-1.295l3.967-7.74ZM9.2 14.044a4.844 4.844 0 1 0 0-9.689 4.844 4.844 0 0 0 0 9.69ZM12.178 18.311H6.133c-.785 0-1.422.637-1.422 1.422v6.134c0 .785.637 1.422 1.422 1.422h6.045c.785 0 1.422-.637 1.422-1.422v-6.134c0-.785-.637-1.422-1.422-1.422ZM22.089 18.177a1.244 1.244 0 0 1 1.51 0l3.533 2.699c.415.316.588.858.434 1.356l-1.374 4.447a1.244 1.244 0 0 1-1.19.877h-4.316a1.244 1.244 0 0 1-1.189-.878l-1.374-4.446c-.154-.498.019-1.04.433-1.356l3.533-2.699Z" fill="#FEF2F2"></path></g><defs><clipPath id="product_redis"><path fill="#fff" d="M0 0h32v32H0z"></path></clipPath></defs></svg>