<svg xmlns="http://www.w3.org/2000/svg" width="18" height="18"><path d="M2.701 16.875a.903.903 0 0 1-.857-1.173l.648-2.343c.027-.086-.004-.173-.043-.242l-.008-.014-.026-.037-.03-.043-.007-.01a7.6 7.6 0 0 1-1.253-4.176 7.56 7.56 0 0 1 2.231-5.389 7.9 7.9 0 0 1 5.638-2.323c1.817 0 3.58.617 4.998 1.752a7.7 7.7 0 0 1 2.715 4.383 7.74 7.74 0 0 1-2.074 7.062A7.7 7.7 0 0 1 9.12 16.61c-.739 0-1.683-.189-2.137-.317-.545-.152-1.063-.351-1.12-.372a.53.53 0 0 0-.392.005l-.03.011-2.373.857a1 1 0 0 1-.367.081"/></svg>