<svg xmlns="http://www.w3.org/2000/svg" width="18" height="18"><g clip-path="url(#a)"><g clip-path="url(#b)"><path d="m2.282 16.49-1.143-1.15q-.454-.453-.425-.952.037-.498.572-.967l7.536-6.606 2.007 2.014-6.628 7.515q-.462.527-.967.564-.498.036-.952-.418m12.282-5.925-.505-.498q-.219-.206-.264-.366-.044-.162-.029-.403l.073-.755-.542-.542-1.09.22q-.33.066-.558.008a1 1 0 0 1-.432-.271l-1.552-1.56a1.3 1.3 0 0 1-.36-.601q-.08-.323.089-.74l.542-1.377a3.1 3.1 0 0 0-1.641-.469q-.872 0-1.882.279a.64.64 0 0 1-.652-.168.66.66 0 0 1-.169-.418q-.007-.25.235-.49.585-.58 1.325-.91a4.9 4.9 0 0 1 1.553-.417 5.7 5.7 0 0 1 1.626.059 5.5 5.5 0 0 1 1.546.505q.74.36 1.318.93l1.413 1.414q.374.36.498.718.125.36.052.71l-.235.96.55.534.754-.073a1 1 0 0 1 .388.03q.162.051.366.256l.513.513a.66.66 0 0 1 .212.432.55.55 0 0 1-.183.432l-2.094 2.08q-.198.198-.425.19-.228-.006-.44-.212"/></g></g><defs><clipPath id="a"><path d="M0 0h18v18H0z"/></clipPath><clipPath id="b"><path d="M0 0h18v18H0z"/></clipPath></defs></svg>