<svg xmlns="http://www.w3.org/2000/svg" width="18" height="18"><path d="M12.938.563H5.062a2.25 2.25 0 0 0-2.25 2.25v12.375a2.253 2.253 0 0 0 2.25 2.25h7.876a2.253 2.253 0 0 0 2.25-2.25V2.813a2.253 2.253 0 0 0-2.25-2.25m-1.214 9.44c.266.287.396.673.365 1.087-.06.825-.69 1.496-1.402 1.496-.711 0-1.341-.671-1.402-1.496-.03-.418.1-.805.364-1.09.265-.284.63-.437 1.039-.437a1.4 1.4 0 0 1 1.036.44M6.75 2.812a.563.563 0 0 1 .563-.563h3.375a.562.562 0 1 1 0 1.125H7.312a.563.563 0 0 1-.562-.562m6.645 12.79a.42.42 0 0 1-.328.147h-4.76a.42.42 0 0 1-.419-.328.5.5 0 0 1-.005-.203c.115-.617.47-1.135 1.03-1.5.498-.322 1.128-.5 1.774-.5s1.277.178 1.774.5c.56.365.916.883 1.03 1.5a.46.46 0 0 1-.096.384"/></svg>