<?xml version="1.0" encoding="utf-8"?>
<!-- Generator: Adobe Illustrator 26.0.2, SVG Export Plug-In . SVG Version: 6.00 Build 0)  -->
<svg version="1.1" id="Layer_1" xmlns="http://www.w3.org/2000/svg" xmlns:xlink="http://www.w3.org/1999/xlink" x="0px" y="0px"
	 viewBox="0 0 128 128" style="enable-background:new 0 0 128 128;" xml:space="preserve">
<style type="text/css">
	.st0{fill:#656365;}
	.st1{opacity:0.75;}
	.st2{opacity:0.66;fill:#FFFFFF;enable-background:new    ;}
	.st3{opacity:0.85;}
	.st4{opacity:0.85;fill:#FFFFFF;enable-background:new    ;}
	.st5{opacity:0.85;enable-background:new    ;}
	.st6{opacity:0.35;}
	.st7{opacity:0.63;fill:#FFFFFF;enable-background:new    ;}
	.st8{opacity:0.5;fill:#FFFFFF;}
</style>
<circle class="st0" cx="64" cy="64" r="64"/>
<g class="st1">
	<path class="st2" d="M30.4,37.4c5.9-3.7,13.5-4.5,20.8-0.5C42,32,31.4,36.2,27.8,42.7c-3.7,6.6-5.1,16.2,6.5,25
		c7.9,6.1,6.8,11.3,10.5,13.3c2.4,1.3,6.2-0.5,7.4-2.7c1.2-2.2,5-9.5,7-16.8c3-11.1,0.9-19.7-7.5-24.5c11.3,6.4,10.9,17.3,7.5,27.6
		c0,0,0,0,0,0c0,0,0,0,0,0c0,0,0,0,0,0c-0.2,0.7-3.3,9.4-5.4,13.3c-2.2,4-6.1,6.1-10.1,3.8c-4-2.2-6.9-9.1-12.3-12.3
		c-6.8-4.1-12.7-15.5-7-25.7C26.5,40.2,30.2,37.5,30.4,37.4C30.4,37.4,30.4,37.4,30.4,37.4z"/>
	<path class="st2" d="M97.6,37.4c-5.9-3.7-13.5-4.5-20.8-0.5c9.2-4.9,19.8-0.8,23.4,5.8c3.7,6.6,5.1,16.2-6.5,25
		c-7.9,6.1-6.8,11.3-10.5,13.3c-2.4,1.3-6.2-0.5-7.4-2.7c-1.2-2.2-5-9.5-7-16.8c-3-11.1-0.9-19.7,7.5-24.5
		c-11.3,6.4-10.9,17.3-7.5,27.6c0,0,0,0,0,0c0,0,0,0,0,0c0,0,0,0,0,0c0.2,0.7,3.3,9.4,5.4,13.3c2.2,4,6.1,6.1,10.1,3.8
		c4-2.2,6.9-9.1,12.3-12.3c6.8-4.1,12.7-15.5,7-25.7C101.5,40.2,97.8,37.5,97.6,37.4C97.6,37.4,97.6,37.4,97.6,37.4z"/>
</g>
<g class="st3">
	<path class="st4" d="M31.5,44.7c3.5-6.3,11.8-8.4,18.4-4.7c6.6,3.7,9.1,11.8,5.6,18.1s-11.8,8.4-18.4,4.7
		C30.5,59.1,28,51,31.5,44.7z"/>
	<path class="st4" d="M96.5,44.7C93,38.4,84.7,36.3,78.1,40c-6.6,3.7-9.1,11.8-5.6,18.1c3.5,6.3,11.8,8.4,18.4,4.7
		C97.5,59.1,100,51,96.5,44.7z"/>
</g>
<g class="st5">
	<path class="st4" d="M51.2,36.9c0.1,0,0.2,0.1,0.2,0.1c0.1,0,0.2,0.1,0.2,0.1C60,42,62.1,50.6,59.1,61.7c-2,7.2-5.8,14.6-7,16.8
		c-1.2,2.2-5,4-7.4,2.7c-3.6-2-2.5-7.3-10.5-13.3c-11.6-8.9-10.2-18.4-6.5-25C31.4,36.2,42,32,51.2,36.9z M50.3,39.2
		c-7-3.9-15.8-1.7-19.6,5.1c-3.8,6.7-1.1,15.4,6,19.3c7,3.9,15.8,1.7,19.6-5.1C60,51.8,57.4,43.2,50.3,39.2z"/>
	<path class="st4" d="M76.8,36.9c-0.1,0-0.2,0.1-0.2,0.1c-0.1,0-0.2,0.1-0.2,0.1C68,42,65.9,50.6,68.9,61.7c2,7.2,5.8,14.6,7,16.8
		c1.2,2.2,5,4,7.4,2.7c3.6-2,2.5-7.3,10.5-13.3c11.6-8.9,10.2-18.4,6.5-25C96.6,36.2,86,32,76.8,36.9z M77.7,39.2
		c7-3.9,15.8-1.7,19.6,5.1c3.8,6.7,1.1,15.4-6,19.3c-7,3.9-15.8,1.7-19.6-5.1C68,51.8,70.6,43.2,77.7,39.2z"/>
</g>
<g class="st3">
	<path class="st4" d="M22.2,46c2-3.5,4.8-6.5,8.1-8.6c-0.1,0.1-3.9,2.8-6,6.6c-5.7,10.2,0.2,21.6,7,25.7c5.4,3.2,8.3,10,12.3,12.3
		c4,2.2,7.8,0.2,10.1-3.8c2.2-3.9,5.2-12.6,5.4-13.3c-2,6.2-2.3,11-5.3,16.4c-3,5.4-7.9,6.5-11.7,4.4c-6.7-3.8-5.9-3.8-9.7-7.7
		c-2.9-2.9-6.5-5.7-9-9c-0.4-0.5-0.7-1-1-1.6c-0.3-0.5-0.6-1-0.8-1.5c-0.1-0.2-0.2-0.4-0.2-0.6C17.5,55.8,21.1,48,22.2,46z"/>
	<path class="st4" d="M105.8,46c-2-3.5-4.8-6.5-8.1-8.6c0.1,0.1,3.9,2.8,6,6.6c5.7,10.2-0.2,21.6-7,25.7c-5.4,3.2-8.3,10-12.3,12.3
		c-4,2.2-7.8,0.2-10.1-3.8c-2.2-3.9-5.2-12.6-5.4-13.3c2,6.2,2.3,11,5.3,16.4c3,5.4,7.9,6.5,11.7,4.4c6.7-3.8,5.9-3.8,9.7-7.7
		c2.9-2.9,6.5-5.7,9-9c0.4-0.5,0.7-1,1-1.6c0.3-0.5,0.6-1,0.8-1.5c0.1-0.2,0.2-0.4,0.2-0.6C110.5,55.8,106.9,48,105.8,46z"/>
</g>
<g class="st6">
	<path class="st7" d="M22.2,69.8c0,0,0.7-0.7,1.2-0.8c2.5,3.3,6,6.1,9,9c3.9,3.9,3,4,9.7,7.7c0,0-0.9,0-2.3-0.8
		c-0.1,0-0.2-0.1-0.3-0.1c-0.3-0.1-0.6-0.2-1-0.3c-1.3-0.3-2.8-0.2-3.4,0c-0.9,0.3-1.3,0.1-1.3,0.1s-1.3,0.7-2.3,1l0,0
		c-4.6-2.6-9.3-10.3-9.5-15.7L22.2,69.8z"/>
	<path class="st7" d="M105.8,69.8c0,0-0.7-0.7-1.2-0.8c-2.5,3.3-6,6.1-9,9c-3.9,3.9-3,4-9.7,7.7c0,0,0.9,0,2.3-0.8
		c0.1,0,0.2-0.1,0.3-0.1c0.3-0.1,0.6-0.2,1-0.3c1.3-0.3,2.8-0.2,3.4,0c0.9,0.3,1.3,0.1,1.3,0.1s1.3,0.7,2.3,1l0,0
		c4.6-2.6,9.3-10.3,9.5-15.7L105.8,69.8z"/>
</g>
<path class="st8" d="M39.6,84.7c-0.3,1.5-1,3-4,3.8c-3,0.8-9.7,2.3-13.4,0.2c-4.2-2.4-9.9-10.3-6.4-16.5c1.4-2.5,2.6-4.2,3.4-5.1
	c0.5-0.6,1.2-1.1,2-1.2c0.2,0,0.4-0.1,0.4,0c0.2,0.4,0.4,0.8,0.6,1.2c0.1,0.2,0.1,0.4,0.1,0.6c-0.2,0.6-0.2,1.4-0.2,2.1
	c0.2,5.4,4.9,13.1,9.5,15.7l0,0c2.5,1.4,4.6,1.5,7-1.1L39.6,84.7z"/>
<path class="st8" d="M88.4,84.7c0.3,1.5,1,3,4,3.8c3,0.8,9.7,2.3,13.4,0.2c4.2-2.4,9.9-10.3,6.4-16.5c-1.4-2.5-2.6-4.2-3.4-5.1
	c-0.5-0.6-1.2-1.1-2-1.2c-0.2,0-0.4-0.1-0.4,0c-0.2,0.4-0.4,0.8-0.6,1.2c-0.1,0.2-0.1,0.4-0.1,0.6c0.2,0.6,0.2,1.4,0.2,2.1
	c-0.2,5.4-4.9,13.1-9.5,15.7l0,0c-2.5,1.4-4.6,1.5-7-1.1L88.4,84.7z"/>
</svg>
