<?xml version="1.0" encoding="UTF-8"?>
<!--Generator: Apple Native CoreSVG 232.5-->
<!DOCTYPE svg
PUBLIC "-//W3C//DTD SVG 1.1//EN"
       "http://www.w3.org/Graphics/SVG/1.1/DTD/svg11.dtd">
<svg version="1.1" xmlns="http://www.w3.org/2000/svg" xmlns:xlink="http://www.w3.org/1999/xlink" width="18.7812" height="16.6641">
 <g>
  <rect height="16.6641" opacity="0" width="18.7812" x="0" y="0"/>
  <path d="M18.375 5.27344L18.375 15.2422C18.375 16.1094 17.875 16.6641 17.0859 16.6641L11.1484 16.6641C11.8865 16.6641 12.3716 16.1788 12.4311 15.4062L16.6719 15.4062C16.9766 15.4062 17.1172 15.2578 17.1172 14.9531L17.1172 5.5625C17.1172 5.25781 16.9766 5.10938 16.6719 5.10938L12.4375 5.10938L12.4375 3.85156L17.0859 3.85156C17.875 3.85156 18.375 4.40625 18.375 5.27344ZM15.6719 12.6328L15.6719 13.8516C15.6719 14.0078 15.5625 14.1172 15.4062 14.1172L14.1484 14.1172C13.9844 14.1172 13.8906 14.0078 13.8906 13.8516L13.8906 12.6328C13.8906 12.4766 13.9844 12.3672 14.1484 12.3672L15.4062 12.3672C15.5625 12.3672 15.6719 12.4766 15.6719 12.6328ZM15.6719 9.64844L15.6719 10.8672C15.6719 11.0234 15.5625 11.1328 15.4062 11.1328L14.1484 11.1328C13.9844 11.1328 13.8906 11.0234 13.8906 10.8672L13.8906 9.64844C13.8906 9.49219 13.9844 9.38281 14.1484 9.38281L15.4062 9.38281C15.5625 9.38281 15.6719 9.49219 15.6719 9.64844ZM15.6719 6.66406L15.6719 7.88281C15.6719 8.03906 15.5625 8.14844 15.4062 8.14844L14.1484 8.14844C13.9844 8.14844 13.8906 8.03906 13.8906 7.88281L13.8906 6.66406C13.8906 6.50781 13.9844 6.39844 14.1484 6.39844L15.4062 6.39844C15.5625 6.39844 15.6719 6.50781 15.6719 6.66406Z" fill="#ffffff" fill-opacity="0.85"/>
  <path d="M0 15.2422C0 16.1094 0.5 16.6641 1.29688 16.6641L11.1484 16.6641C11.9375 16.6641 12.4375 16.1094 12.4375 15.2422L12.4375 1.42969C12.4375 0.5625 11.9375 0.0078125 11.1484 0.0078125L1.29688 0.0078125C0.5 0.0078125 0 0.5625 0 1.42969ZM1.25781 14.9531L1.25781 1.71875C1.25781 1.40625 1.39844 1.26562 1.71094 1.26562L10.7344 1.26562C11.0391 1.26562 11.1797 1.40625 11.1797 1.71875L11.1797 14.9531C11.1797 15.2578 11.0391 15.4062 10.7344 15.4062L1.71094 15.4062C1.39844 15.4062 1.25781 15.2578 1.25781 14.9531ZM3.5 16L4.52344 16L4.52344 13.3906C4.52344 13.2266 4.60938 13.1406 4.77344 13.1406L7.66406 13.1406C7.83594 13.1406 7.91406 13.2266 7.91406 13.3906L7.91406 16L8.9375 16L8.9375 13.1016C8.9375 12.4297 8.64062 12.1172 8 12.1172L4.4375 12.1172C3.79688 12.1172 3.5 12.4297 3.5 13.1016ZM3.625 4.67969L5.14844 4.67969C5.33594 4.67969 5.46875 4.55469 5.46875 4.35938L5.46875 2.88281C5.46875 2.69531 5.33594 2.5625 5.14844 2.5625L3.625 2.5625C3.4375 2.5625 3.32031 2.69531 3.32031 2.88281L3.32031 4.35938C3.32031 4.55469 3.4375 4.67969 3.625 4.67969ZM7.28906 4.67969L8.80469 4.67969C8.99219 4.67969 9.125 4.55469 9.125 4.35938L9.125 2.88281C9.125 2.69531 8.99219 2.5625 8.80469 2.5625L7.28906 2.5625C7.09375 2.5625 6.97656 2.69531 6.97656 2.88281L6.97656 4.35938C6.97656 4.55469 7.09375 4.67969 7.28906 4.67969ZM3.625 7.77344L5.14844 7.77344C5.33594 7.77344 5.46875 7.64844 5.46875 7.45312L5.46875 5.97656C5.46875 5.78906 5.33594 5.65625 5.14844 5.65625L3.625 5.65625C3.4375 5.65625 3.32031 5.78906 3.32031 5.97656L3.32031 7.45312C3.32031 7.64844 3.4375 7.77344 3.625 7.77344ZM7.28906 7.77344L8.80469 7.77344C8.99219 7.77344 9.125 7.64844 9.125 7.45312L9.125 5.97656C9.125 5.78906 8.99219 5.65625 8.80469 5.65625L7.28906 5.65625C7.09375 5.65625 6.97656 5.78906 6.97656 5.97656L6.97656 7.45312C6.97656 7.64844 7.09375 7.77344 7.28906 7.77344ZM3.625 10.8672L5.14844 10.8672C5.33594 10.8672 5.46875 10.7344 5.46875 10.5469L5.46875 9.07031C5.46875 8.875 5.33594 8.75 5.14844 8.75L3.625 8.75C3.4375 8.75 3.32031 8.875 3.32031 9.07031L3.32031 10.5469C3.32031 10.7344 3.4375 10.8672 3.625 10.8672ZM7.28906 10.8672L8.80469 10.8672C8.99219 10.8672 9.125 10.7344 9.125 10.5469L9.125 9.07031C9.125 8.875 8.99219 8.75 8.80469 8.75L7.28906 8.75C7.09375 8.75 6.97656 8.875 6.97656 9.07031L6.97656 10.5469C6.97656 10.7344 7.09375 10.8672 7.28906 10.8672Z" fill="#ffffff" fill-opacity="0.85"/>
 </g>
</svg>
