<?xml version="1.0" encoding="UTF-8"?>
<!--Generator: Apple Native CoreSVG 232.5-->
<!DOCTYPE svg
PUBLIC "-//W3C//DTD SVG 1.1//EN"
       "http://www.w3.org/Graphics/SVG/1.1/DTD/svg11.dtd">
<svg version="1.1" xmlns="http://www.w3.org/2000/svg" xmlns:xlink="http://www.w3.org/1999/xlink" width="21.7578" height="13.3984">
 <g>
  <rect height="13.3984" opacity="0" width="21.7578" x="0" y="0"/>
  <path d="M10.6797 13.3984C16.9922 13.3984 21.3516 8.29688 21.3516 6.70312C21.3516 5.10156 16.9844 0.0078125 10.6797 0.0078125C4.45312 0.0078125 0 5.10156 0 6.70312C0 8.29688 4.44531 13.3984 10.6797 13.3984ZM10.6797 12.1641C5.53125 12.1641 1.36719 7.80469 1.36719 6.70312C1.36719 5.77344 5.53125 1.24219 10.6797 1.24219C15.8047 1.24219 19.9844 5.77344 19.9844 6.70312C19.9844 7.80469 15.8047 12.1641 10.6797 12.1641ZM10.6797 11.0781C13.1094 11.0781 15.0625 9.08594 15.0625 6.70312C15.0625 4.25781 13.1094 2.32812 10.6797 2.32812C8.23438 2.32812 6.28125 4.25781 6.28125 6.70312C6.28125 9.08594 8.23438 11.0781 10.6797 11.0781ZM10.6797 8.15625C9.86719 8.15625 9.21094 7.5 9.21094 6.70312C9.21094 5.89844 9.86719 5.25 10.6797 5.25C11.4844 5.25 12.1406 5.89844 12.1406 6.70312C12.1406 7.5 11.4844 8.15625 10.6797 8.15625Z" fill="#ffffff" fill-opacity="0.85"/>
 </g>
</svg>
