<?xml version="1.0" encoding="UTF-8"?>
<!--Generator: Apple Native CoreSVG 232.5-->
<!DOCTYPE svg
PUBLIC "-//W3C//DTD SVG 1.1//EN"
       "http://www.w3.org/Graphics/SVG/1.1/DTD/svg11.dtd">
<svg version="1.1" xmlns="http://www.w3.org/2000/svg" xmlns:xlink="http://www.w3.org/1999/xlink" width="14.2656" height="15.3359">
 <g>
  <rect height="15.3359" opacity="0" width="14.2656" x="0" y="0"/>
  <path d="M0.984375 15.3359C1.3125 15.3359 1.57812 15.0781 1.57812 14.75L1.57812 10.4062C1.77344 10.3203 2.50781 10.0391 3.65625 10.0391C6.54688 10.0391 8.35938 11.4531 11.1094 11.4531C12.3281 11.4531 12.7812 11.3203 13.375 11.0547C13.9141 10.8125 14.2656 10.4062 14.2656 9.6875L14.2656 1.75781C14.2656 1.33594 13.9062 1.09375 13.4531 1.09375C13.0703 1.09375 12.3516 1.42188 11.0078 1.42188C8.25781 1.42188 6.45312 0.0078125 3.55469 0.0078125C2.33594 0.0078125 1.875 0.140625 1.28125 0.40625C0.742188 0.648438 0.390625 1.05469 0.390625 1.76562L0.390625 14.75C0.390625 15.0703 0.664062 15.3359 0.984375 15.3359ZM11.1094 10.2734C8.50781 10.2734 6.66406 8.85938 3.65625 8.85938C2.79688 8.85938 2.01562 8.96094 1.57812 9.14062L1.57812 1.80469C1.6875 1.54688 2.33594 1.1875 3.55469 1.1875C6.30469 1.1875 8.14062 2.60156 11.0078 2.60156C11.8594 2.60156 12.5625 2.5 13.0859 2.35156L13.0859 9.65625C12.9766 9.91406 12.3281 10.2734 11.1094 10.2734Z" fill="#ffffff" fill-opacity="0.85"/>
 </g>
</svg>
