<?xml version="1.0" encoding="UTF-8"?>
<!--Generator: Apple Native CoreSVG 232.5-->
<!DOCTYPE svg
PUBLIC "-//W3C//DTD SVG 1.1//EN"
       "http://www.w3.org/Graphics/SVG/1.1/DTD/svg11.dtd">
<svg version="1.1" xmlns="http://www.w3.org/2000/svg" xmlns:xlink="http://www.w3.org/1999/xlink" width="18.5312" height="16.8672">
 <g>
  <rect height="16.8672" opacity="0" width="18.5312" x="0" y="0"/>
  <path d="M9.64063 12.4921C7.8147 13.3649 6.18885 14.7266 3.82812 14.7266C2.82812 14.7266 1.91406 14.4844 1.03125 13.9688C0.601562 13.7266 0.585938 13.2969 0.773438 13.0156C0.929688 12.7734 1.25 12.6484 1.57812 12.8359C2.375 13.2969 3.05469 13.4688 3.82812 13.4688C6.17224 13.4688 7.79886 11.9101 9.87261 11.0611C9.73325 11.5136 9.64063 11.9959 9.64063 12.4921Z" fill="#ffffff" fill-opacity="0.85"/>
  <path d="M11.5037 7.67942C8.79169 8.16147 6.95539 10.5391 3.83594 10.5391C2.83594 10.5391 1.92188 10.2891 1.03906 9.78125C0.609375 9.53125 0.59375 9.10938 0.78125 8.82812C0.9375 8.58594 1.25781 8.46094 1.58594 8.64844C2.38281 9.10156 3.0625 9.28125 3.83594 9.28125C6.98406 9.28125 8.8381 6.46996 12.218 6.34102Z" fill="#ffffff" fill-opacity="0.85"/>
  <path d="M15.2578 2.89062C15.6953 3.14844 15.7109 3.57031 15.5156 3.85156C15.3516 4.08594 15.0391 4.21094 14.7109 4.02344C13.9141 3.57031 13.2266 3.39844 12.4609 3.39844C9.1875 3.39844 7.30469 6.34375 3.82812 6.34375C2.82812 6.34375 1.91406 6.10156 1.03125 5.59375C0.601562 5.34375 0.585938 4.92188 0.773438 4.64062C0.929688 4.39844 1.25 4.27344 1.57812 4.46094C2.375 4.91406 3.05469 5.08594 3.82812 5.08594C7.05469 5.08594 8.92188 2.14062 12.4609 2.14062C13.4609 2.14062 14.375 2.38281 15.2578 2.89062Z" fill="#ffffff" fill-opacity="0.85"/>
  <path d="M14.0859 15.7969C15.9688 15.7969 17.4688 14.3281 17.4688 12.4922C17.4688 11.4766 16.9609 10.4844 16.5312 9.67969L14.7891 6.4375C14.6016 6.08594 14.4297 5.9375 14.0859 5.9375C13.7344 5.9375 13.5703 6.08594 13.3828 6.4375L11.6484 9.67969C11.2188 10.4844 10.7109 11.4766 10.7109 12.4922C10.7109 14.3281 12.2109 15.7969 14.0859 15.7969ZM14.0859 14.7656C12.7812 14.7656 11.7422 13.7656 11.7422 12.4922C11.7422 11.7188 12.1406 10.9688 12.5625 10.1641L14.0156 7.46875C14.0547 7.39062 14.1328 7.39062 14.1719 7.46875L15.6016 10.1641C16.0312 10.9688 16.4375 11.7188 16.4375 12.4922C16.4375 13.7656 15.3906 14.7656 14.0859 14.7656Z" fill="#ffffff" fill-opacity="0.85"/>
 </g>
</svg>
