<?xml version="1.0" encoding="UTF-8"?>
<!--Generator: Apple Native CoreSVG 232.5-->
<!DOCTYPE svg
PUBLIC "-//W3C//DTD SVG 1.1//EN"
       "http://www.w3.org/Graphics/SVG/1.1/DTD/svg11.dtd">
<svg version="1.1" xmlns="http://www.w3.org/2000/svg" xmlns:xlink="http://www.w3.org/1999/xlink" width="16.125" height="13.8672">
 <g>
  <rect height="13.8672" opacity="0" width="16.125" x="0" y="0"/>
  <path d="M0.796875 4.70312C1.92188 4.34375 3.08594 4.15625 4.19531 4.15625C5.63281 4.15625 6.6875 4.39062 8.04688 4.39062C9.45312 4.39062 10.3281 3.4375 10.3281 2.19531C10.3281 0.921875 9.35156 0.0078125 8.14844 0.0078125C7.25781 0.0078125 6.47656 0.570312 6.14844 1.3125C6.02344 1.57031 6.07031 1.86719 6.34375 2.00781C6.59375 2.13281 6.89844 2.05469 7.0625 1.74219C7.23438 1.34375 7.65625 1.03125 8.14844 1.03125C8.79688 1.03125 9.30469 1.48438 9.30469 2.19531C9.30469 2.90625 8.8125 3.375 8.04688 3.375C6.75 3.375 5.67969 3.14062 4.19531 3.14062C2.92188 3.14062 1.63281 3.36719 0.484375 3.73438C0.15625 3.82812 0.03125 4.10938 0.109375 4.375C0.1875 4.64844 0.445312 4.80469 0.796875 4.70312ZM13.0156 8.35938C14.8359 8.35938 16.125 7.20312 16.125 5.58594C16.125 3.99219 14.8984 2.83594 13.375 2.83594C11.9609 2.83594 10.9141 3.82031 10.7266 5.10938C10.6797 5.4375 10.8594 5.69531 11.1406 5.73438C11.4297 5.77344 11.6797 5.59375 11.7422 5.22656C11.875 4.40625 12.5547 3.85156 13.375 3.85156C14.3281 3.85156 15.1016 4.5625 15.1016 5.58594C15.1016 6.625 14.2812 7.34375 13.0156 7.34375C10.6328 7.34375 8.0625 5.98438 4.9375 5.98438C3.32812 5.98438 1.85938 6.24219 0.484375 6.72656C0.164062 6.84375 0.03125 7.11719 0.109375 7.38281C0.1875 7.65625 0.453125 7.82031 0.796875 7.70312C2.07031 7.21875 3.39844 7.00781 4.9375 7.00781C8.05469 7.00781 10.3828 8.35938 13.0156 8.35938ZM8.05469 13.8672C9.25781 13.8672 10.1875 12.9766 10.1875 11.7031C10.1875 9.85938 8.30469 8.82812 4.83594 8.82812C3.38281 8.82812 1.8125 9.10938 0.484375 9.5625C0.164062 9.67969 0.03125 9.95312 0.109375 10.2188C0.1875 10.4922 0.453125 10.6562 0.796875 10.5391C2.03906 10.0938 3.42969 9.85156 4.83594 9.85156C7.67188 9.85156 9.17188 10.5625 9.17188 11.7031C9.17188 12.4141 8.67188 12.8516 8.05469 12.8516C7.4375 12.8516 7.0625 12.4375 6.95312 11.7812C6.90625 11.4922 6.69531 11.25 6.35938 11.2734C6.00781 11.2969 5.86719 11.5938 5.91406 11.9141C6.05469 13 6.85938 13.8672 8.05469 13.8672Z" fill="#ffffff" fill-opacity="0.85"/>
 </g>
</svg>
