<svg xmlns="http://www.w3.org/2000/svg" xml:space="preserve" viewBox="0 0 128 128">
  <circle cx="64" cy="64" r="64" fill="#656365"/>
  <path fill="#fff" fill-opacity=".425" d="M58.9 99.1c0 2.3-1.6 4.9-5.2 6.4 0 0-4.8-6.2-11.3-18.2-6.6-12-8.5-18.2-8.5-18.2 1.6-1.2 3.2-1.9 5.2-1.9 4.3 0 5.9 4.4 12.9 16.9 1.3 2.7 6.9 12.1 6.9 15z"/>
  <path fill="#fff" d="M38 100.1c-1.2-1.6-2.8-3.8-4.3-6.7-3.5-6.3-5-12.5-5-12.5s.5-.6 1-1.7c.8-1.6 1.7-4.3 1.7-8.1.8-.7 1.6-1.4 2.4-2 0 0 2 6.2 8.5 18.2 6.6 12 11.3 18.2 11.3 18.2-.9.3-1.9.6-3 .8-4.2-3.1-10.2-3.3-10.2-3.3s-1-1-2.4-2.9zm26-82c-20.5 0-35 17-33.7 20.2C38.3 25.4 52 20 64 20s25.7 5.4 33.7 18.3C99 35.1 84.5 18.1 64 18.1z"/>
  <path fill="#fff" fill-opacity=".425" d="M69.1 99.1c0 2.3 1.6 4.9 5.2 6.4 0 0 4.8-6.2 11.3-18.2 6.6-12 8.5-18.2 8.5-18.2-1.6-1.2-3.2-1.9-5.2-1.9-4.3 0-5.9 4.4-12.9 16.9-1.3 2.7-6.9 12.1-6.9 15z"/>
  <path fill="#fff" d="M90 100.1c1.2-1.6 2.8-3.8 4.3-6.7 3.5-6.3 5-12.5 5-12.5s-.5-.6-1-1.7c-.8-1.6-1.7-4.3-1.7-8.1-.8-.7-1.6-1.4-2.4-2 0 0-2 6.2-8.5 18.2-6.6 12-11.3 18.2-11.3 18.2.9.3 1.9.6 3 .8 4.2-3.1 10.2-3.3 10.2-3.3s1-1 2.4-2.9z"/>
  <path fill="#fff" fill-opacity=".425" d="M97.7 38.3C89.7 25.4 76 20 64 20s-25.7 5.4-33.7 18.3c-4.2 6.7-6.8 15.4-6.8 26.5 0 19.3 12.4 36.2 12.4 36.2s1.3.2 2.1-.9c-1.2-1.6-2.8-3.8-4.3-6.7-3.5-6.3-5-12.5-5-12.5s.5-.6 1-1.7c-.5-1.3-2.7-7.3-2.7-13.8 0-20.1 15.3-38 37-38s37 17.8 37 38c0 6.5-2.2 12.4-2.7 13.8.5 1.1 1 1.7 1 1.7s-1.5 6.2-5 12.5c-1.6 2.9-3.1 5.1-4.3 6.7.8 1.2 2.1.9 2.1.9s12.4-16.9 12.4-36.2c0-11.1-2.6-19.8-6.8-26.5z"/>
</svg>
