<svg xmlns="http://www.w3.org/2000/svg" xml:space="preserve" viewBox="0 0 128 128">
  <circle cx="64" cy="64" r="64" fill="#656365"/>
  <path fill="#fff" fill-opacity=".425" d="M88.3 93.1c.1.1.1.2.1.3l-.5 2c-.1.2-.3.3-.5.1l-8.6-8.1c-.1-.1-.1-.2-.1-.3l.5-2c.1-.2.3-.3.5-.1l8.6 8.1zm-39-6c0 .1 0 .2-.1.3l-8.6 8.1c-.2.2-.4.1-.5-.1l-.5-2c0-.1 0-.2.1-.3l8.6-8.1c.2-.2.4-.1.5.1l.5 2z"/>
  <path fill="#fff" d="M87.1 71.7c7.4 0 12.5 6.3 12.5 14.4s-7 22.5-19.9 22.5c-8.5 0-12.4-6.5-12.4-14-.1-11.7 9.7-22.9 19.8-22.9zm1.3 21.7c0-.1 0-.2-.1-.3L79.6 85c-.2-.2-.4-.1-.5.1l-.5 2c0 .1 0 .2.1.3l8.6 8.1c.2.2.4.1.5-.1l.6-2zm-27.6 1.2c0 7.5-3.9 14-12.4 14-12.9 0-19.9-14.3-19.9-22.5S33.6 71.7 41 71.7c10 0 19.8 11.2 19.8 22.9zm-11.5-7.2c.1-.1.1-.2.1-.3l-.5-2c-.1-.2-.3-.3-.5-.1l-8.6 8.1c-.1.1-.1.2-.1.3l.5 2c.1.2.3.3.5.1l8.6-8.1z"/>
  <path fill="#fff" fill-opacity=".425" d="M96.5 68.1s.1 0 0 0l1.5 1.5 4.5 4.6 2.6 2.7v.1c-.4.4-3.3 2.9-3.3 5.3 0 2.6.6 2.5.6 4.3 0 12.1-10.4 25-24.8 25C70.7 111.7 64 105 64 99v-9.1c0-5.8 8.4-21.5 22.6-21.5 3.7 0 3.3 1.2 6.3 1.2 1.3 0 3.3-1.2 3.6-1.5zm3.1 18c0-8.2-5.1-14.4-12.5-14.4-10.1 0-19.8 11.2-19.8 23 0 7.5 3.9 14 12.4 14 12.9-.1 19.9-14.4 19.9-22.6zM31.5 68.2c.3.2 2.3 1.5 3.6 1.5 3 0 2.6-1.2 6.3-1.2C55.5 68.5 64 84.2 64 90v9.1c0 5.9-6.7 12.7-13.7 12.7-14.3 0-24.8-13-24.8-25 0-1.8.6-1.6.6-4.3 0-2.4-2.9-5-3.3-5.3v-.1l2.6-2.7 4.5-4.6 1.6-1.6c-.1-.1 0-.1 0 0zm16.8 40.4c8.5 0 12.4-6.5 12.4-14 0-11.7-9.8-23-19.8-23-7.4 0-12.5 6.3-12.5 14.4s7 22.6 19.9 22.6z"/>
  <path fill="#fff" d="m95.2 35.1-.7.4h-.1L91 31s.7-2.2 4.2-3.9l3.6 5.6v.1l-1.4.9-2.2 1.4zm-61.6.4h-.1l-.6-.4-2.2-1.4-1.4-.9v-.1l3.6-5.6C36.3 28.8 37 31 37 31l-3.4 4.5z"/>
  <path fill="#fff" fill-opacity=".425" d="M101.3 41.7c-.7.2-1.6.5-2.4 1.1 0 0-.9-3.9-3.8-7.8l2.2-1.4c3.3 4.1 4 8.1 4 8.1zm-70.7-8 2.2 1.4c-2.8 3.8-3.7 7.6-3.8 7.8-.8-.6-1.7-.9-2.4-1.1.1 0 .8-4.1 4-8.1zm64.6-6.6C91.7 28.8 91 31 91 31s-13.6-6.8-27-6.8c-13.3 0-27 6.8-27 6.8s-.8-2.2-4.2-3.9C43.2 13.8 64 14.3 64 14.3s20.8-.5 31.2 12.8z"/>
  <path fill="#fff" d="M29.9 68.6c-.4-1.6-1.8-1.6-1.8-1.6-.9-8-1.4-15.5 1.8-23 .1-.2 0-.4-.1-.5-.2-.3-.5-.5-.7-.7-.8-.6-1.7-.9-2.4-1.1-.3-.1-.5-.1-.6-.1-.2 0-.4.1-.5.3-.6 1.3-2.6 6.8-2.6 17.2 0 7 1.2 11.6 1.9 13.8.1.4.6.5.9.2l3.9-4c.2-.2.2-.4.2-.5zm-4.4 5.6h.1zm74.4-7.3s-1.4 0-1.8 1.6c0 .2 0 .4.1.5l3.9 4c.3.3.8.2.9-.2.7-2.2 1.9-6.8 1.9-13.8 0-10.4-1.9-15.8-2.5-17.2-.1-.2-.3-.3-.5-.3s-.4.1-.6.1c-.7.2-1.6.5-2.4 1.1-.3.2-.5.4-.7.7-.1.1-.2.3-.1.5 3.2 7.6 2.7 15.1 1.8 23z"/>
</svg>
