<svg xmlns="http://www.w3.org/2000/svg" xml:space="preserve" viewBox="0 0 128 128">
  <circle cx="64" cy="64" r="64" fill="#656365"/>
  <path fill="none" d="M20.3 35.8h87.4v56.3H20.3z"/>
  <path fill="#fff" fill-opacity=".85" d="M49.1 35.8c-5.4-.1-11.5 2.6-15.6 8.3-.6.8-1.1 1.6-1.7 2.9 6.9 1.2 12.5 7.4 12.5 14.2 0 1.9-.4 3.7-1.1 5.3 4.2-.6 6.8-1.6 9.2-2.9 5.3-3 9.4-7.9 9.4-15 0-8.1-5.7-12.7-12.7-12.8zm1.2 13.7c-.6.5-1.6.5-2.2-.2-.5-.7-.4-1.6.2-2.2l4.7-3.9c.6-.5 1.6-.4 2.1.2.6.6.5 1.6-.1 2.1l-4.7 4zm-5.8 42.7H47c1.9 0 3.2-1 3.2-3v-21c-2.7 1-5.7 1.6-9 1.8v19.2c0 1.9 1.3 3 3.3 3zm34.4-56.4c-7 .1-12.7 4.7-12.7 12.8 0 7 4.1 11.9 9.4 15 2.4 1.3 5 2.3 9.2 2.9-.7-1.6-1.1-3.4-1.1-5.3 0-6.8 5.6-12.9 12.5-14.2-.5-1.3-1.1-2.1-1.7-2.9-4.1-5.6-10.1-8.3-15.6-8.3zm-1.2 13.7L73 45.6c-.7-.5-.7-1.5-.2-2.1.5-.7 1.5-.8 2.1-.2l4.7 3.9c.7.5.7 1.5.2 2.2-.5.6-1.5.6-2.1.1zm5.8 42.7c2 0 3.3-1 3.3-3V70c-3.3-.2-6.3-.8-9-1.8v21c0 2 1.3 3 3.2 3h2.5z"/>
  <path fill="#fff" fill-opacity=".425" d="M31.9 70.4c4.9 0 9.3-3.1 9.3-9.2 0-5.5-5.2-11.3-11.9-11.3-5.7 0-9 4.5-9 9.1 0 6.9 5.9 11.4 11.6 11.4zm-1.6-4.8c-.9.8-2.4 0-4.3-2.3-1.8-2.3-2.3-3.8-1.4-4.6.9-.8 2.4-.1 4.3 2.2 1.8 2.4 2.3 3.9 1.4 4.7zm65.8 4.8c5.7 0 11.6-4.5 11.6-11.4 0-4.6-3.3-9.1-9-9.1-6.7 0-11.9 5.8-11.9 11.3 0 6.2 4.4 9.2 9.3 9.2zm1.6-4.8c-.9-.8-.4-2.3 1.4-4.6 1.9-2.3 3.4-3.1 4.3-2.2.9.8.4 2.3-1.4 4.6-1.9 2.2-3.4 3-4.3 2.2z"/>
</svg>
