<svg xmlns="http://www.w3.org/2000/svg" xml:space="preserve" viewBox="0 0 128 128">
  <circle cx="64" cy="64" r="64" fill="#656365"/>
  <path fill="none" d="M24 35.2h80v57.7H24z"/>
  <path fill="#fff" fill-opacity=".85" d="M46.1 35.4C36 35.3 24 45.4 24 55.1c0 8.1 8.1 14.4 14.6 14.4 9.1 0 21.6-10.6 21.6-19.3 0-8.5-6.6-14.7-14.1-14.8zM35.5 65c-1.8 0-4.7-2.3-6.4-5.1-1.7-2.9-1.7-5.2.2-5.2 1.8 0 4.7 2.3 6.4 5.2 1.6 2.8 1.6 5.1-.2 5.1zm9.1-14.6c-1-1.5-.7-3.4.8-4.5l4.6-3.3c1.4-1 3.4-.7 4.4.8 1.1 1.4.8 3.3-.7 4.4L49.1 51c-1.5 1.2-3.5.8-4.5-.6zm3.1 42.4h4.1c2 0 3.4-1 3.4-3V65.3c-3.2 2.9-7 5.2-10.8 6.4v18.1c-.1 2 1.2 3 3.3 3zm34.2-57.4c-7.6.1-14.1 6.3-14.1 14.8 0 8.8 12.5 19.3 21.6 19.3 6.5 0 14.6-6.3 14.6-14.4 0-9.7-12-19.8-22.1-19.7zM92.5 65c-1.8 0-1.9-2.3-.1-5.1 1.7-2.9 4.6-5.2 6.4-5.2 1.8 0 1.9 2.3.2 5.2-1.8 2.8-4.6 5.1-6.5 5.1zm-9.1-14.6c-1 1.4-3 1.8-4.5.7l-4.6-3.2c-1.5-1.1-1.8-3-.7-4.4 1-1.5 3-1.8 4.4-.8l4.6 3.3c1.5.9 1.8 2.9.8 4.4zm-3.1 42.4c2.1 0 3.4-1 3.4-3V71.7c-3.8-1.2-7.6-3.5-10.8-6.4v24.5c0 2 1.3 3 3.4 3h4z"/>
</svg>
