<svg xmlns="http://www.w3.org/2000/svg" xml:space="preserve" viewBox="0 0 128 128">
  <circle cx="64" cy="64" r="64" fill="#656365"/>
  <path fill="none" d="M20.8 33.4h86.4v61.2H20.8z"/>
  <path fill="#fff" fill-opacity=".85" d="M35.2 80.3h23.7c1.2 0 2.2-.8 2.4-2.1l1-10.4c.1-1.6-.9-2.7-2.5-2.7H35.2c-4.2 0-7.6 3.4-7.6 7.6 0 4.2 3.4 7.6 7.6 7.6zm0-4.7c1.6 0 2.9-1.2 2.9-2.8s-1.3-2.9-2.9-2.9c-1.6 0-2.9 1.3-2.9 2.9s1.3 2.8 2.9 2.8zm17.4 19h2.9l1.1-10.1h-2.9l-1.1 10.1zM35.2 77.7c-2.8 0-5-2.2-5-5s2.2-5 5-5 5 2.3 5 5c0 2.8-2.2 5-5 5zm12.6-44.3c-14 0-27 12.5-27 30.3 0 11.8 3.8 28 10 28 1.6 0 2.7-1.6 2.7-5.1 0-1-.1-2-.3-3.6-4.9-.9-8.6-5.2-8.6-10.3 0-2 .5-3.8 1.5-5.4-.2-1.3-.3-2.8-.3-3.9 0-13.9 11.5-25 21.6-25 6.2 0 9.4 4.9 8.6 13l-3.5 33.9c-.3 3.3 4.6 3.3 4.9.4l3.5-34.5c1.2-11.4-3.7-17.8-13.1-17.8zm45 46.9c4.2 0 7.6-3.4 7.6-7.6 0-4.2-3.4-7.6-7.6-7.6H68.2c-1.6 0-2.6 1.1-2.5 2.7l1 10.4c.2 1.3 1.1 2.1 2.3 2.1h23.8zm0-4.7c1.6 0 2.9-1.2 2.9-2.8s-1.2-2.9-2.9-2.9c-1.6 0-2.9 1.3-2.9 2.9s1.3 2.8 2.9 2.8zm-17.4 19-1.1-10.1h-2.9l1.1 10.1h2.9zm17.4-16.9c-2.8 0-5-2.2-5-5s2.3-5 5-5c2.8 0 5 2.3 5 5 0 2.8-2.2 5-5 5zM80.2 33.4c-9.5 0-14.3 6.4-13.1 17.9l3.5 34.5c.3 2.9 5.3 2.9 4.9-.4L72 51.5c-.9-8.2 2.3-13 8.6-13 10.1 0 21.6 11.1 21.6 25 0 1.1-.1 2.6-.3 3.9.9 1.6 1.4 3.4 1.4 5.4 0 5.1-3.7 9.4-8.5 10.3-.2 1.6-.3 2.5-.3 3.6 0 3.6 1.1 5.1 2.7 5.1 6.3-.1 10.1-16.3 10.1-28-.1-17.9-13.1-30.4-27.1-30.4z"/>
  <path fill="#fff" fill-opacity=".212" d="M35.2 75.6c1.6 0 2.9-1.2 2.9-2.8s-1.3-2.9-2.9-2.9c-1.6 0-2.9 1.3-2.9 2.9s1.3 2.8 2.9 2.8zm0 2.1c-2.8 0-5-2.2-5-5s2.2-5 5-5 5 2.3 5 5c0 2.8-2.2 5-5 5zm57.6-2.1c1.6 0 2.9-1.2 2.9-2.8s-1.2-2.9-2.9-2.9c-1.6 0-2.9 1.3-2.9 2.9s1.3 2.8 2.9 2.8zm0 2.1c-2.8 0-5-2.2-5-5s2.3-5 5-5c2.8 0 5 2.3 5 5 0 2.8-2.2 5-5 5z"/>
</svg>
