<?xml version="1.0" encoding="utf-8"?>
<!-- Generator: Adobe Illustrator 26.0.2, SVG Export Plug-In . SVG Version: 6.00 Build 0)  -->
<svg version="1.1" id="Layer_1" xmlns="http://www.w3.org/2000/svg" xmlns:xlink="http://www.w3.org/1999/xlink" x="0px" y="0px"
	 viewBox="0 0 128 128" style="enable-background:new 0 0 128 128;" xml:space="preserve">
<style type="text/css">
	.st0{fill:#656365;}
	.st1{fill-opacity:0;}
	.st2{fill:#FFFFFF;fill-opacity:0.85;}
	.st3{fill:#FFFFFF;fill-opacity:0.2125;}
</style>
<circle class="st0" cx="64" cy="64" r="64"/>
<g>
	<rect x="23.3" y="31.5" class="st1" width="81.4" height="65.1"/>
	<path class="st2" d="M48.5,31.5c-13.8,0-25.2,15.9-25.2,35.4c0,9.2,2.4,19.3,5.4,19.3c2.3,0,4.2-3.1,4.4-6.2
		c-4.6-1.3-7.9-5.6-7.9-10.5c0-3,1.2-5.7,3.2-7.8c1-13.4,9.8-25.3,19.8-25.3c6,0,8.8,4.5,8.8,12.8L33.1,61.8
		c-3.5,1.8-5.1,4.7-5.1,7.7c0,4.5,3.7,8.2,8.2,8.2c2.2,0,3.7-0.6,6.8-2.2L55,68.9c5.2-2.9,7.1-6.4,7.1-13.8v-6.6
		C62.1,38,57.5,31.5,48.5,31.5z M36,74.7c-2.9,0-5.2-2.3-5.2-5.2c0-2.8,2.3-5.2,5.2-5.2c2.8,0,5.1,2.3,5.1,5.2
		C41.1,72.4,38.8,74.7,36,74.7z M36,72.7c1.7,0,3.1-1.4,3.1-3.2c0-1.7-1.4-3.2-3.1-3.2c-1.8,0-3.2,1.4-3.2,3.2
		C32.8,71.3,34.2,72.7,36,72.7z M27.5,96.5h2.9V85h-2.9V96.5z M79.5,31.5c-9,0-13.6,6.6-13.6,17V55c0,7.4,1.9,10.9,7.1,13.8
		l12.1,6.6c3.1,1.7,4.6,2.2,6.8,2.2c4.5,0,8.2-3.7,8.2-8.2c0-3.1-1.6-5.9-5.1-7.7L71,49.3c0-8.3,2.8-12.8,8.8-12.8
		c10,0,18.8,11.8,19.8,25.3c2.1,2.1,3.2,4.8,3.2,7.8c0,4.9-3.4,9.2-7.9,10.5c0.2,3.1,2.1,6.2,4.4,6.2c3,0,5.4-10.2,5.4-19.3
		C104.7,47.4,93.3,31.5,79.5,31.5z M92,74.7c-2.8,0-5.2-2.3-5.2-5.2c0-2.8,2.3-5.2,5.2-5.2c2.9,0,5.2,2.3,5.2,5.2
		C97.2,72.4,94.9,74.7,92,74.7z M92,72.7c1.8,0,3.2-1.4,3.2-3.2c0-1.7-1.4-3.2-3.2-3.2c-1.7,0-3.2,1.4-3.2,3.2
		C88.9,71.3,90.3,72.7,92,72.7z M100.5,96.5V85h-2.9v11.5H100.5z"/>
	<path class="st3" d="M36,74.7c-2.9,0-5.2-2.3-5.2-5.2c0-2.8,2.3-5.2,5.2-5.2c2.8,0,5.1,2.3,5.1,5.2C41.1,72.4,38.8,74.7,36,74.7z
		 M36,72.7c1.7,0,3.1-1.4,3.1-3.2c0-1.7-1.4-3.2-3.1-3.2c-1.8,0-3.2,1.4-3.2,3.2C32.8,71.3,34.2,72.7,36,72.7z M92,74.7
		c-2.8,0-5.2-2.3-5.2-5.2c0-2.8,2.3-5.2,5.2-5.2c2.9,0,5.2,2.3,5.2,5.2C97.2,72.4,94.9,74.7,92,74.7z M92,72.7
		c1.8,0,3.2-1.4,3.2-3.2c0-1.7-1.4-3.2-3.2-3.2c-1.7,0-3.2,1.4-3.2,3.2C88.9,71.3,90.3,72.7,92,72.7z"/>
</g>
</svg>
