<svg stroke="currentColor" fill="currentColor" stroke-width="0" viewBox="0 0 24 24" height="1em" width="1em" xmlns="http://www.w3.org/2000/svg"><path fill="none" d="M0 0h24v24H0V0z"></path><path d="M18 2.01L6 2c-1.11 0-2 .89-2 2v16c0 1.11.89 2 2 2h12c1.11 0 2-.89 2-2V4c0-1.11-.89-1.99-2-1.99zM18 20H6L5.99 4H18v16z"></path><circle cx="8" cy="6" r="1"></circle><circle cx="11" cy="6" r="1"></circle><path d="M12 19c2.76 0 5-2.24 5-5s-2.24-5-5-5-5 2.24-5 5 2.24 5 5 5zm2.36-7.36c1.3 1.3 1.3 3.42 0 4.72-1.3 1.3-3.42 1.3-4.72 0l4.72-4.72z"></path></svg>