<svg stroke="currentColor" fill="currentColor" stroke-width="0" viewBox="0 0 512 512" height="1em" width="1em" xmlns="http://www.w3.org/2000/svg"><path d="m21,21v268.1937h60.0719c-6.4204-31.1151-10.5751-78.9839-10.5751-132.775 0-55.4322 4.4031-104.467 11.1625-135.4187h-60.6594zm94.1469,0c6.7595,30.9518 11.1625,79.9865 11.1625,135.4187 0,53.7911-4.1546,101.6599-10.575,132.775h178.7469c31.7568,0 57.2813,26.9722 57.2813,60.3656s-25.5245,60.2188-57.2813,60.2188h-273.4813v81.2219h375.8532c-6.7595-30.9518-11.1625-79.9865-11.1625-135.4187 0-53.8755 4.1373-101.811 10.575-132.9219h-178.7469c-31.7568,0-57.2813-26.8254-57.2813-60.2187s25.5245-60.3656 57.2813-60.3656h273.4812v-81.075h-375.8531zm229.2719,19.975c11.2931,0 20.2688,9.2694 20.2688,20.5625s-8.9757,20.4156-20.2688,20.4156-20.5626-9.1226-20.5626-20.4156 9.2695-20.5625 20.5626-20.5625zm53.1687,0c11.2931,0 20.5625,9.2694 20.5625,20.5625s-9.2694,20.4156-20.5625,20.4156-20.2687-9.1226-20.2687-20.4156 8.9756-20.5625 20.2687-20.5625zm53.4625,0c11.2932,0 20.2688,9.2694 20.2688,20.5625s-8.9756,20.4156-20.2688,20.4156-20.5625-9.1226-20.5625-20.4156 9.2695-20.5625 20.5625-20.5625zm-216.9343,82.8375c-21.2736,0-38.3344,17.0608-38.3344,38.3344s17.0608,38.4813 38.3344,38.4813h256.8843v-76.8156h-256.8843zm196.8124,98.8469c6.4378,31.1109 10.575,79.0464 10.575,132.9219 0,55.4322-4.4029,104.467-11.1624,135.4187h60.6593v-268.3406h-60.0719zm-409.9281,88.8594v76.8156h256.8844c21.2736,0 38.3344-17.0608 38.3344-38.3344s-17.0608-38.4812-38.3344-38.4812h-256.8844zm39.95,118.675c11.2931,0 20.4156,9.2694 20.4156,20.5625s-9.1226,20.4156-20.4156,20.4156-20.4156-9.1226-20.4156-20.4156 9.1226-20.5625 20.4156-20.5625zm53.3156,0c11.2931,0 20.4156,9.2694 20.4156,20.5625s-9.1225,20.4156-20.4156,20.4156-20.4156-9.1226-20.4156-20.4156 9.1226-20.5625 20.4156-20.5625zm53.3157,0c11.2931,0 20.5625,9.2694 20.5625,20.5625s-9.2694,20.4156-20.5625,20.4156-20.4157-9.1226-20.4157-20.4156 9.1226-20.5625 20.4157-20.5625z"></path></svg>