<svg stroke="currentColor" fill="currentColor" stroke-width="0" viewBox="0 0 512 512" height="1em" width="1em" xmlns="http://www.w3.org/2000/svg"><path d="m144.5218,32.0891c-26.318,0-48.3465,22.2821-54.9312,52.5812-2.0404-1.8711-4.5191-2.9375-7.1969-2.9375-7.1406,0-12.925,7.7338-12.925,17.3313v17.625c-16.5562,4.7196-28.7875,21.9503-28.7875,42.5938 0,13.89 5.5597,26.3486 14.2469,34.3687-19.9787,11.3293-33.9281,34.9201-33.9281,62.4219 0,27.457 13.8552,51.1309 33.7812,62.4219-8.6125,8.0636-14.1001,20.4015-14.1001,34.2219 0,20.6434 12.2314,37.8937 28.7875,42.5938v17.625c0,9.5974 5.7844,17.3313 12.925,17.3313 2.6777,0 5.1565-1.0664 7.1969-2.9375 6.5847,30.3021 28.6132,52.5812 54.9312,52.5812h.4404 .294c26.6048,0 48.9097-22.8031 55.225-53.6094 6.3153,30.8062 28.6202,53.6094 55.225,53.6094h.294 .4404c26.6047,0 48.7627-22.8031 55.0781-53.6094 6.3153,30.8062 28.6202,53.6094 55.225,53.6094h.294 .5874c26.3181,0 48.1996-22.2791 54.7843-52.5812 2.0616,1.8711 4.5192,2.9375 7.1969,2.9375 7.1406,0 12.925-7.7338 12.925-17.3313v-17.625c16.5562-4.7001 28.9343-21.9503 28.9343-42.5938 0-13.8203-5.4875-26.1583-14.0999-34.2219 19.926-11.291 33.6343-34.9649 33.6343-62.4219 0-27.5018-13.8025-51.0926-33.7812-62.4219 8.6873-8.0201 14.2468-20.4788 14.2468-34.3687 0-20.6435-12.3781-37.8742-28.9343-42.5938v-17.625c0-9.5975-5.7844-17.3313-12.925-17.3313-2.6777,0-5.1353,1.0664-7.1969,2.9375-6.5847-30.2992-28.4662-52.5812-54.7843-52.5812h-.5874-.294c-26.6048,0-48.9097,22.8031-55.225,53.6094-6.3154-30.8062-28.4734-53.6094-55.0781-53.6094h-.4404-.294c-26.6048,0-48.9097,22.8031-55.225,53.6094-6.3153-30.8062-28.6202-53.6094-55.225-53.6094h-.294-.4404zm0,40.8312h.4404 .294c23.6496,0 42.5938,26.0167 42.5938,58.3094v27.9062 193.7281 28.2c0,32.2927-18.9442,58.1625-42.5938,58.1625h-.294-.4404c-23.6495,0-42.5936-25.8698-42.5936-58.1625v-28.2-193.7281-27.9062c0-32.2927 18.9442-58.3094 42.5936-58.3094zm111.1844,0h.294 .4404c23.6496,0 42.5937,26.0167 42.5937,58.3094v27.9062 193.7281 28.2c0,32.2927-18.9441,58.1625-42.5937,58.1625h-.4404-.294c-23.6496,0-42.7406-25.8698-42.7406-58.1625v-28.2-193.7281-27.9062c0-32.2927 19.091-58.3094 42.7406-58.3094zm111.1844,0h.147 .4403c23.6496,0 42.5938,26.0167 42.5938,58.3094v27.9062 193.7281 28.2c0,32.2927-18.9442,58.1625-42.5938,58.1625h-.4403-.147c-23.6496,0-42.7407-25.8698-42.7407-58.1625v-28.2-193.7281-27.9062c0-32.2927 19.0911-58.3094 42.7407-58.3094zm-231.6219,46.4125c-9.299,1.2587-16.4499,11.7614-16.4499,24.675v100.9031h52.1406v-100.9031c0-13.7745-8.1621-24.675-18.3594-24.675h-7.6375-7.7844c-.6371,0-1.2894-.0841-1.9094,0zm111.0375,0c-9.2828,1.2587-16.3031,11.7614-16.3031,24.675v100.9031h52.1406v-100.9031c0-13.7745-8.0152-24.675-18.2124-24.675h-7.9313-7.7844c-.6371,0-1.2905-.0841-1.9094,0zm111.1844,0c-9.2991,1.2587-16.45,11.7614-16.45,24.675v100.9031h52.2875v-100.9031c0-13.7745-8.1621-24.675-18.3594-24.675h-7.9312-7.6375c-.6371,0-1.2895-.0841-1.9094,0zm-297.4219,105.6031c8.1507,0 14.6875,14.0519 14.6875,31.2844s-6.5368,30.9906-14.6875,30.9906-14.8343-13.7581-14.8343-30.9906 6.6837-31.2844 14.8343-31.2844zm392.0094,0c8.1506,0 14.6875,14.0519 14.6875,31.2844s-6.5369,30.9906-14.6875,30.9906-14.8344-13.7581-14.8344-30.9906 6.6838-31.2844 14.8344-31.2844zm-333.2593,42.1531v28.6406 39.95 32.1656c0,13.7744 8.162,24.9688 18.3593,24.9688h7.7844 7.6375c10.1973,0 18.3594-11.1944 18.3594-24.9688v-32.1656-39.95-28.6406h-52.1406zm111.1843,0v28.6406 39.95 32.1656c0,13.7744 8.0152,24.9688 18.2125,24.9688h7.7844 7.9313c10.1972,0 18.2124-11.1944 18.2124-24.9688v-32.1656-39.95-28.6406h-52.1406zm111.0375,0v28.6406 39.95 32.1656c0,13.7744 8.1621,24.9688 18.3594,24.9688h7.6375 7.9312c10.1973,0 18.3594-11.1944 18.3594-24.9688v-32.1656-39.95-28.6406h-52.2875z"></path></svg>