<svg stroke="currentColor" fill="currentColor" stroke-width="0" viewBox="0 0 512 512" height="1em" width="1em" xmlns="http://www.w3.org/2000/svg"><path d="m256,21c-3.2502,3.9094-26.2546,31.6708-36.483,48.0314-9.9733,15.9531-25.4057,50.3887-25.4057,50.3887s-32.1907-66.8046-63.9563-77.6458c-35.3054-12.0484-109.155,24.7524-109.155,24.7524s70.603,52.3783 103.2463,104.3135c24.7549,4.0324 43.7207,25.2926 43.7207,51.1254 0,24.2772-16.7332,44.6742-39.2893,50.3886-7.0993,15.0146-16.7952,28.8932-27.7687,40.0753-12.7198,12.9614-50.8114,19.743-50.8114,19.743-8.9629,3.493-17.2808,7.7869-17.2808,17.3856v22.2477c0,9.5986 7.6585,17.2382 17.2808,17.2382h54.3563l-83.4539,101.9561h109.155l63.9563-96.3574c0,0 15.8028,23.8239 25.4057,34.3292 10.8683,11.8926 34.4644,30.9356 36.483,32.5611 2.0186-1.6255 25.6154-20.6686 36.4837-32.5611 9.6029-10.5053 25.405-34.3292 25.405-34.3292l63.957,96.3574h109.1543l-83.4532-101.9561h54.3556c9.6223,0 17.2816-7.6396 17.2816-17.2382v-22.2477c0-9.5986-8.3187-13.8926-17.2816-17.3856 0,0-38.0909-6.7816-50.8114-19.743-10.9735-11.182-20.6687-25.0607-27.768-40.0752-22.5568-5.7145-39.29-26.1115-39.29-50.3886 0-25.8327 18.9665-47.093 43.7207-51.1254 32.644-51.9351 103.2463-104.3135 103.2463-104.3135s-73.8503-36.8008-109.1543-24.7524c-31.7663,10.8411-63.957,77.6458-63.957,77.6458s-15.4317-34.4356-25.405-50.3887c-10.2284-16.3606-33.2335-44.1219-36.4837-48.0314zm-56.5709,150.2821h19.4969c10.1939,0 18.3158,11.7972 18.3158,21.3637v29.3197c0,9.5665-8.1219,17.3856-18.3158,17.3856h-19.4969c-10.1953,0-18.4635-7.8191-18.4635-17.3856v-29.3197c0-9.5665 8.2675-21.3637 18.4635-21.3637zm93.6449,0h19.4976c10.1946,0 18.4635,11.7972 18.4635,21.3637v29.3197c0,9.5665-8.2682,17.3856-18.4635,17.3856h-19.4976c-10.1939,0-18.315-7.8191-18.315-17.3856v-29.3197c0-9.5665 8.1211-21.3637 18.315-21.3637zm-177.2473,12.3761c-21.2409,0-38.5506,17.1189-38.5506,38.3073s17.3097,38.4545 38.5506,38.4545 38.4036-17.2662 38.4036-38.4545-17.1619-38.3073-38.4036-38.3073zm280.3466,0c-21.2417,0-38.4036,17.1189-38.4036,38.3073s17.1619,38.4545 38.4036,38.4545 38.5513-17.2662 38.5513-38.4545-17.3097-38.3073-38.5513-38.3073zm-140.1733,71.8998c9.685.8608 17.2823,10.9647 17.2823,23.4263v4.1254h39.1416c19.2432,0 34.7109,10.6905 34.7109,24.0156v16.2069c0,13.3252-15.4663,24.163-34.7109,24.163h-56.4239-56.4231c-19.244,0-34.7117-10.8378-34.7117-24.163v-16.2069c0-13.3251 15.4684-24.0156 34.7117-24.0156h39.1415v-4.1254c0-12.4616 7.5966-22.5654 17.2816-23.4263z"></path></svg>