<svg stroke="currentColor" fill="currentColor" stroke-width="0" viewBox="0 0 512 512" height="1em" width="1em" xmlns="http://www.w3.org/2000/svg"><path d="m255.8531,490.9997c0,0-26.2829-69.0378-29.5035-124.4032-30.5542,46.3457-87.9231,93.1186-87.9231,93.1186s11.8435-72.9391 36.8427-122.4936c-49.7052,24.9236-122.8574,36.7187-122.8574,36.7187s46.8641-57.2238 93.3536-87.684c-55.5332-3.211-124.7655-29.3749-124.7655-29.3749s88.4863-33.5166 145.6091-29.375c1.1411.0843 2.2733.3149 3.376.4418-.4043,3.3713-.7341,6.8019-.7341,10.2812 0,47.6622 38.7947,86.2152 86.6022,86.2152h.147 .147c47.8074,0 86.602-38.5531 86.602-86.2152 0-3.4794-.3322-6.91-.7339-10.2812 1.1026-.1268 2.2348-.3574 3.376-.4418 57.1225-4.1417 145.6088,29.375 145.6088,29.375s-69.2319,26.1639-124.7656,29.3749c46.4898,30.4602 93.3541,87.684 93.3541,87.684s-73.1524-11.7951-122.8575-36.7187c24.9993,49.5544 36.8426,122.4936 36.8426,122.4936s-57.3688-46.7729-87.923-93.1186c-3.2206,55.3654-29.5034,124.4032-29.5034,124.4032l-.147-.4418-.147.4418zm-4.4035-184.7685c-4.3345-.2587-8.5328-.9292-12.6234-1.9096v-47.5874c0-7.6337-6.2593-13.8062-14.0912-13.8062s-14.0912,6.1725-14.0912,13.8062v33.6346c-16.6112-13.2681-27.3016-33.6581-27.3016-56.547 0-9.2505 1.8287-18.0222 4.9906-26.1437 2.2281-.9358 4.4513-1.896 6.6053-3.0842 13.8211-7.7804 23.671-21.5584 29.7969-35.8374 8.8157-20.5494 31.2648-147.7561 31.2648-147.7561s22.4492,127.2067 31.2648,147.7561c6.126,14.279 15.9759,28.057 29.797,35.8374 2.1539,1.1882 4.3771,2.1484 6.6052,3.0842 3.1619,8.1215 4.9907,16.8932 4.9907,26.1437 0,22.8889-10.6905,43.2789-27.3017,56.547v-33.6346c0-7.6337-6.2594-13.8062-14.0912-13.8062s-14.0911,6.1725-14.0911,13.8062v47.5874c-4.0907.9805-8.289,1.6526-12.6234,1.9096-1.4448.0843-2.9387,0-4.4035,0h-.147-.147c-1.4648,0-2.9587.0843-4.4035,0zm-95.7027-104.7219c-1.4204.0432-2.8383-.0987-4.2568-.1456-6.8065-.2493-13.5844-1.5406-19.9623-3.9654-16.9665-6.5964-29.8694-20.1696-35.5216-36.5721-5.4867-17.6753-3.2284-34.1172-2.4952-48.6153 .2349-7.2248.0504-14.1803-1.4679-20.7096-1.5143-6.4785-4.2483-12.9123-8.8068-17.4779-6.1279-6.3257-16.1572-9.447-25.5403-7.6375-9.3924,1.7761-18.1199,8.646-22.1642,18.2125 2.6358-10.0514 10.6374-18.8051 21.1368-22.4721 10.5078-3.634 22.9276-1.8964 32.4389,5.2875 6.7887,5.2362 11.6024,12.5278 14.5314,20.4158 2.9446,7.8391 4.3588,16.127 5.1376,23.9404 1.8193,15.5767 1.6365,30.3619 7.4856,40.5374 4.8476,9.392 14.5042,16.4519 23.9258,18.3595 9.3803,2.037 19.7-.6234 26.421-6.1687 6.8083-5.4064 11.3415-14.5023 11.3021-22.325 .0843-4.3315-1.2367-8.8802-3.229-12.7783-1.4546.1549-2.9088.1456-4.4039.1456-23.1324,0-41.9799-18.8832-41.9799-42.1528s18.8474-42.0062 41.9799-42.0062 41.8334,18.7361 41.8334,42.0062c0,4.9542-.7858,9.6829-2.3485,14.1 7.7755,14.2185 10.5021,30.4089 7.6326,46.1187-3.8108,19.7907-15.9485,36.3751-32.5858,45.8249-9.1465,5.0911-19.1194,7.7625-29.0632,8.0779zm200.5058,0c-9.9435-.3149-19.9168-2.9869-29.0631-8.0779-16.6372-9.4498-28.775-26.0342-32.5858-45.825-2.8693-15.7097-.1427-31.9003 7.6327-46.1186-1.5628-4.4171-2.3486-9.1457-2.3486-14.1 0-23.2701 18.7006-42.0062 41.8332-42.0062s41.98,18.7361 41.98,42.0062-18.8474,42.1529-41.98,42.1529c-1.4947,0-2.9492.005-4.4035-.1456-1.9924,3.8981-3.3138,8.4468-3.2292,12.7783-.036,7.8227 4.494,16.9186 11.3023,22.3249 6.7207,5.5455 17.0405,8.2057 26.421,6.1688 9.4217-1.9077 19.0784-8.9676 23.9257-18.3595 5.8495-10.1755 5.6664-24.9608 7.4859-40.5374 .7788-7.8133 2.193-16.1013 5.1374-23.9404 2.9292-7.888 7.743-15.1796 14.5316-20.4159 9.5113-7.1839 21.931-8.9215 32.439-5.2874 10.4992,3.6669 18.5009,12.4207 21.1368,22.4721-4.0447-9.5664-12.772-16.4364-22.1642-18.2125-9.3834-1.8095-19.4124,1.3118-25.5403,7.6375-4.5588,4.5656-7.2928,10.9994-8.807,17.4779-1.5007,6.5292-1.7037,13.4847-1.4679,20.7096 .7333,14.4981 2.9915,30.94-2.4953,48.6153-5.6523,16.4025-18.5552,29.9757-35.5215,36.5721-6.3779,2.4247-13.1558,3.7177-19.9625,3.9654-1.4181.0504-2.8363.1924-4.2567.1456z"></path></svg>