<svg stroke="currentColor" fill="currentColor" stroke-width="0" viewBox="0 0 512 512" height="1em" width="1em" xmlns="http://www.w3.org/2000/svg"><path d="m256.0738,20.9999c-17.9122,0-35.3577,2.1075-52.1238,5.9064l16.3902,61.1311c11.5504-2.4509 23.4566-3.8392 35.7336-3.8392 12.2339,0 24.2244,1.405 35.7336,3.8392l16.3901-61.2787c-16.7519-3.7941-34.2233-5.7587-52.1237-5.7587zm-69.4,10.4838c-34.0143,10.5091-64.7371,28.5223-90.2199,52.1238l44.7408,44.7408c17.6744-15.9269 38.5776-28.2016 61.7216-35.7336l-16.2425-61.131zm138.6523,0-16.3903,60.9833c23.2564,7.5228 44.2806,19.883 62.017,35.8813l44.7409-44.7408c-25.4985-23.6329-56.3104-41.6208-90.3676-52.1238zm103.0662,64.8225-44.7408,44.7409c15.9133,17.6743 28.2101,38.7237 35.7336,61.8693l61.131-16.3902c-10.5207-34.0147-28.5165-64.7471-52.1238-90.22zm-344.7847.1477c-23.5474,25.4331-41.4634,56.1409-51.9761,90.0722l60.9833,16.2425c7.5278-23.067 19.8617-44.0928 35.7336-61.7216l-44.7408-44.5931zm172.4662,27.6123c-72.8668,0-132.0075,59.1407-132.0075,132.0076s59.1407,131.8599 132.0075,131.8599c61.0518,0 112.3774-41.4447 127.4301-97.7505h-96.8646c-19.7107,0-35.586-15.1593-35.586-34.1094s15.8752-34.257 35.586-34.257h96.8646c-15.0527-56.3058-66.3784-97.7506-127.4302-97.7506zm229.0198,79.7361-60.9834,16.3902c2.4501,11.5566 3.6915,23.5971 3.6915,35.8812 0,12.2276-1.2634,24.0822-3.6915,35.5859l61.1311,16.2425c3.749-16.666 5.7587-34.0279 5.7587-51.8285 0-17.962-2.0909-35.4624-5.9064-52.2714zm-458.1872.1477c-3.7961,16.7602-5.9064,34.2184-5.9064,52.1237s2.1103,35.3677 5.9064,52.1238l61.131-16.3902c-2.4509-11.5468-3.8392-23.4566-3.8392-35.7336 0-12.2338 1.405-24.2207 3.8392-35.7335l-61.131-16.3902zm65.5608,105.1335-60.9834,16.2425c10.5009,34.0506 28.4978,64.8721 52.1238,90.3676l44.7408-44.7408c-15.9394-17.6892-28.3638-38.6939-35.8813-61.8693zm327.0657,0c-7.5173,23.2024-19.93,44.1681-35.8813,61.8693l44.7408,44.7408c23.642-25.5102 41.6236-56.2836 52.1238-90.3676l-60.9833-16.2425zm-278.4857,74.568-44.7408,44.5932c25.4908,23.6488 56.1646,41.7381 90.2199,52.2715l16.3902-61.1311c-23.1808-7.5332-44.1775-19.787-61.8693-35.7336zm229.9057.1477c-17.6759,15.9087-38.7152,28.0788-61.8692,35.5859l16.3901,61.1311c33.9967-10.4959 64.7583-28.3997 90.22-51.9761l-44.7409-44.7409zm-150.7603,40.1634-16.3902,61.131c16.8034,3.8127 34.3158,5.9064 52.2714,5.9064 17.8551,0 35.2632-2.1351 51.9761-5.9064l-16.3902-61.131c-11.4654,2.4111-23.4023,3.8391-35.5859,3.8391-12.3264,0-24.2877-1.3726-35.8813-3.8391z"></path></svg>