<svg stroke="currentColor" fill="currentColor" stroke-width="0" viewBox="0 0 512 512" height="1em" width="1em" xmlns="http://www.w3.org/2000/svg"><path d="m21,21v201.8063h44.9437c13.8651-80.0142 76.8703-143.1223 156.8625-157.0093v-44.7969h-201.8063zm224.425,0v42.1532c3.4864-.1874 7.0418-.294 10.575-.294s7.0884.1059 10.5751.294v-42.1532h-21.1501zm43.7688,0v44.7969c80.0143,13.887 143.1224,76.9952 157.0094,157.0093h44.7969v-201.8063h-201.8063zm-227.5094,18.0657c12.4968,0 22.6188,10.122 22.6188,22.6187s-10.122,22.6188-22.6188,22.6188-22.6188-10.122-22.6188-22.6188 10.122-22.6187 22.6188-22.6187zm388.6313,0c12.4968,0 22.6188,10.122 22.6188,22.6187s-10.122,22.6188-22.6188,22.6188-22.6188-10.122-22.6188-22.6188 10.122-22.6187 22.6188-22.6187zm-194.3157,67.5625c-71.061,0-130.45,49.6882-145.5531,116.1781h48.4688c13.7943-40.3643 52.0472-69.325 97.0843-69.325s83.29,28.9606 97.0844,69.325h48.4687c-15.103-66.4899-74.4921-116.1781-145.5531-116.1781zm-235,138.7969v21.15h132.9219c-.3603-3.4952-.4403-6.9847-.4403-10.575s.0807-7.0798.4403-10.575h-132.9219zm337.0781,0c.3603,3.4952.4403,6.9846.4403,10.575s-.0807,7.0797-.4403,10.575h90.7687 14.2469 27.9062v-21.15h-27.9062-14.2469-90.7687zm-337.0781,43.7688v201.8062h201.8063v-44.7969c-79.9923-13.887-142.9974-76.9952-156.8625-157.0093h-44.9437zm89.4468,0c15.1031,66.4899 74.4921,116.1781 145.5531,116.1781s130.4501-49.6882 145.5531-116.1781h-48.4687c-13.7944,40.3643-52.0472,69.325-97.0844,69.325s-83.29-28.9606-97.0843-69.325h-48.4688zm335.7563,0c-13.887,80.0142-76.9952,143.1223-157.0094,157.0093v44.7969h201.8063v-201.8062h-44.7969zm-386.7219,138.5031c.7607-.0771 1.4221,0 2.2031,0 12.4968,0 22.6188,10.122 22.6188,22.6187s-10.122,22.6188-22.6188,22.6188-22.6188-10.122-22.6188-22.6188c0-11.7157 9.0057-21.46 20.4156-22.6187zm388.4844,0c.7607-.0771 1.569,0 2.35,0 12.4968,0 22.6188,10.122 22.6188,22.6187s-10.122,22.6188-22.6188,22.6188-22.6188-10.122-22.6188-22.6188c0-11.7157 8.8588-21.46 20.2688-22.6187zm-202.5406,21.15v42.1531h21.1501v-42.1531c-3.4867.1874-7.0418.294-10.5751.294s-7.0886-.1059-10.575-.294z"></path></svg>