<svg stroke="currentColor" fill="currentColor" stroke-width="0" viewBox="0 0 512 512" height="1em" width="1em" xmlns="http://www.w3.org/2000/svg"><path d="m21,21v137.475 195.05 137.475h137.475 195.05 137.475v-137.475-195.05-137.475h-137.475-332.525zm10.7219,10.7219h448.5562v448.5563h-448.5562v-448.5563zm10.1344,10.1344v428.2875h428.2876v-428.2875h-428.2876zm112.8,11.0156h37.7469v70.9406c-29.8436,14.3868-54.018,38.6225-68.4437,68.4438h-71.0875v-37.6c50.3118-11.9402 89.8441-51.4726 101.7844-101.7844zm50.9656,0h15.4219v60.6594c-5.2472,1.2866-10.4132,3.0118-15.4219,4.8469v-65.5062zm28.4937,0h15.4219v56.6937c-5.1995.2275-10.3763.8593-15.4219,1.6156v-58.3094zm28.4938,0h15.4218v58.3094c-5.044-.7612-10.2236-1.3829-15.4218-1.6156v-56.6937zm28.6406,0h15.4219v65.6531c-5.0082-1.8478-10.1741-3.5478-15.4219-4.8469v-60.8062zm28.4938,0h37.6c11.9402,50.3118 51.4726,89.8442 101.7844,101.7844v37.6h-71.0875c-14.3972-29.7621-38.5349-53.8998-68.2969-68.2969v-71.0875zm-63.7438,82.8375c2.0752,0 4.1193.0425 6.1688.1467 .1463.009.2948-.009.4403,0 5.2293.2844 10.3908.9774 15.4219,1.9094 2.2618.4183 4.4115.9316 6.6093,1.4688 1.9.4643 3.8541.91 5.7282,1.4688 .3027.0902.5801.2011.8812.2937 5.2796,1.6202 10.4787,3.575 15.4219,5.875v.1467c4.5272,2.1075 8.8722,4.4165 13.0719,7.05 15.4827,9.6952 28.4923,22.7047 38.1875,38.1875 2.6334,4.1997 4.9425,8.5447 7.05,13.0719 .01.0187.1383-.0187.147,0 2.3,4.9432 4.2548,10.1423 5.875,15.4219 .092.3012.204.579.294.8812 .5586,1.8741 1.0044,3.8281 1.4688,5.7281 .3589,1.4687.7227,2.9113 1.0281,4.4062 .1506.7339.3034,1.4644.4403,2.2031 .932,5.0311 1.6252,10.1926 1.9094,15.4219 .1189,2.193.147,4.3867.147,6.6094 0,2.1735-.036,4.3173-.147,6.4625-.2782,5.2302-.9834,10.3894-1.9094,15.4219-.4115,2.2389-.9268,4.4373-1.4687,6.6094s-1.1104,4.3178-1.7626,6.4625c-1.6034,5.2706-3.4473,10.4848-5.728,15.4219-.01.0187-.1384-.0187-.147,0-1.0622,2.2983-2.1777,4.5587-3.3782,6.7562-.022.0375.022.1105 0,.1467-1.1825,2.1591-2.5084,4.2212-3.8187,6.3156h.147c-9.7057,15.5583-22.7937,28.6029-38.3344,38.3344-4.1998,2.6335-8.5447,4.9425-13.0719,7.05v.1467c-4.9432,2.3-10.1423,4.2548-15.4218,5.875-.3013.0926-.5787.2035-.8813.2938-1.8741.5588-3.8282,1.0044-5.7281,1.4688-2.1979.5372-4.3475,1.0503-6.6094,1.4688-5.0311.932-10.1926,1.6252-15.4219,1.9094-.1456.009-.2948-.009-.4403,0-2.0467.1001-4.0948.1467-6.1688.1467s-4.1213-.0468-6.1687-.1467c-.0973-.005-.1967.005-.294,0-5.2302-.2777-10.3894-.9834-15.4219-1.9094-.7902-.1452-1.5697-.2787-2.35-.4404-1.4239-.2914-2.8542-.6866-4.2594-1.0281-2.1721-.5419-4.3178-1.1104-6.4625-1.7625-5.2706-1.6036-10.4848-3.4475-15.4218-5.7281-.0216-.009.0216-.1381 0-.1467-2.2983-1.0622-4.5587-2.1776-6.7562-3.3781-.036-.0187-.1103.0187-.147,0-2.1592-1.1825-4.2212-2.5084-6.3156-3.8188v.1467c-15.6163-9.7418-28.7395-22.865-38.4813-38.4813h.147c-1.3103-2.0944-2.6362-4.1565-3.8187-6.3156-.0216-.0375.0216-.1085 0-.1467-1.2005-2.1975-2.3159-4.458-3.3781-6.7562h-.147c-2.2807-4.9371-4.1246-10.1513-5.7282-15.4219-.6522-2.1447-1.2205-4.2904-1.7625-6.4625-.351-1.4055-.7306-2.8288-1.0281-4.2594-.16-.781-.2969-1.5636-.4403-2.35-.926-5.0325-1.6315-10.1917-1.9094-15.4219-.1146-2.1452-.147-4.289-.147-6.4625 0-2.074.0504-4.122.147-6.1687 .007-.1457-.007-.2952 0-.4404 .2847-5.2293.9774-10.3908 1.9094-15.4219 .4115-2.2188.9376-4.435 1.4687-6.6094 .4641-1.9.91-3.854 1.4688-5.7281 .0872-.2937.2039-.5877.294-.8812 1.6201-5.2796 3.5749-10.4787 5.875-15.4219 .007-.0187.1384.0187.147,0 2.1075-4.5271 4.4165-8.8721 7.05-13.0719 9.7315-15.5406 22.7761-28.6286 38.3344-38.3344v.1467c2.0945-1.3103 4.1564-2.6362 6.3156-3.8188 .036-.0187.1081.0187.147,0 2.1975-1.2005 4.458-2.3159 6.7562-3.3781v-.1467c4.937-2.2807 10.1512-4.1246 15.4218-5.7281 2.1447-.6521 4.2904-1.2206 6.4625-1.7625 1.4055-.3506 2.8288-.7306 4.2594-1.0281 .781-.1598 1.5636-.2961 2.35-.4404 5.0325-.926 10.1917-1.6314 15.4219-1.9094 2.1447-.1137 4.2894-.1467 6.4625-.1467zm.147,17.3313c-9.7219,0-18.6263,3.6982-25.1156,9.9875-8.712-2.1375-18.3742-1.0062-26.7313,3.8188s-13.8328,12.5526-16.3031,21.15c-8.6206,2.5022-16.4687,8.2341-21.2969,16.5969-4.8528,8.4054-5.8785,17.8651-3.6719,26.5844-6.2039,6.4754-10.1344,15.3217-10.1344,24.9688s3.9305,18.238 10.1344,24.675c-2.1874,8.7528-1.034,18.4728 3.8187,26.8781 4.8265,8.3596 12.5526,13.9797 21.1501,16.45 2.4837,8.6694 8.0482,16.2992 16.45,21.15 8.3571,4.825 17.9057,5.8287 26.5844,3.6719 6.4893,6.2893 15.3936,10.1344 25.1156,10.1344 9.6846,0 18.3779-3.8876 24.8219-10.1344 8.6787,2.1568 18.2273,1.1531 26.5844-3.6719 8.4018-4.8508 13.9663-12.4806 16.45-21.15 8.6472-2.4514 16.3005-8.0505 21.15-16.45 4.825-8.3571 5.9563-18.0193 3.8187-26.7313 6.2893-6.4507 10.1344-15.1 10.1344-24.8219s-3.8451-18.6262-10.1344-25.1156c2.1568-8.6787 1.1532-18.0804-3.6718-26.4375-4.8508-8.4018-12.6275-14.1131-21.2969-16.5969-2.4703-8.5974-7.9436-16.3236-16.3031-21.15-8.3571-4.8249-18.0193-5.9563-26.7313-3.8188-6.4439-6.2467-15.1372-9.9875-24.8219-9.9875zm-203.275,52.2875h65.6531c-1.8478,5.0082-3.5478,10.1741-4.8468,15.4219h-60.8062v-15.4219zm340.6031,0h65.6531v15.4219h-60.8063c-1.299-5.2477-2.999-10.4137-4.8468-15.4219zm-137.475,7.1969c23.9952,0 43.475,19.4797 43.475,43.475s-19.4799,43.475-43.4752,43.475-43.475-19.4797-43.475-43.475 19.4798-43.475 43.475-43.475zm0,13.2187c-16.7409,0-30.2563,13.5154-30.2563,30.2563s13.5152,30.2563 30.2561,30.2563 30.2563-13.5154 30.2563-30.2563-13.5154-30.2563-30.2563-30.2563zm-203.1281,8.225h58.3094c-.7612,5.044-1.3829,10.2237-1.6157,15.4219h-56.6937v-15.4219zm347.9468,0h58.3094v15.4219h-56.6938c-.2327-5.1982-.8544-10.3778-1.6156-15.4219zm-347.9468,28.4938h56.6937c.2277,5.1995.8593,10.3763 1.6157,15.4219h-58.3094v-15.4219zm349.5624,0h56.6938v15.4219h-58.3094c.7564-5.0455 1.388-10.2224 1.6156-15.4219zm-349.5624,28.4937h60.6594c1.2866,5.2472 3.0118,10.4131 4.8468,15.4219h-65.5062v-15.4219zm345.5968,0h60.6594v15.4219h-65.5062c1.835-5.0088 3.5602-10.1747 4.8468-15.4219zm-345.5968,28.6406h70.9406c14.4154,29.9029 38.6878,54.1752 68.5906,68.5906v70.9406h-37.7469c-11.9404-50.3118-51.4727-89.8442-101.7845-101.7844v-37.7469zm335.3156,0h70.9406v37.7469c-47.1673,11.1939-84.9216,46.6888-99.2875,92.5312-.9577,3.0562-1.7506,6.1086-2.4969,9.2531h-37.6v-71.0875c29.8213-14.4258 54.057-38.6002 68.4438-68.4437zm-81.5156,73.8781v65.6531h-15.422v-60.8062c5.2478-1.299 10.4138-2.9991 15.422-4.8469zm-101.05.1467c5.0087,1.8351 10.1747,3.5603 15.4219,4.8469v60.6594h-15.4219v-65.5063zm28.4937,7.1969c5.0456.7563 10.2224,1.388 15.4219,1.6156v56.6938h-15.4219v-58.3094zm43.9156,0v58.3094h-15.4218v-56.6938c5.1981-.2326 10.3778-.8544 15.4218-1.6156z"></path></svg>