<svg stroke="currentColor" fill="currentColor" stroke-width="0" viewBox="0 0 512 512" height="1em" width="1em" xmlns="http://www.w3.org/2000/svg"><path d="m21,21.0002c4.4053,21.1214 8.3148,44.4171 11.4562,69.178h76.2281v48.3219h-55.3719c7.6285,26.1221 12.6034,63.7142 13.3656,106.1905h41.2718v31.2843h-41.5656c-.1557,4.8889-.1737,9.6594-.4403,14.3938h42.0063v31.2843h-44.7969c-2.3412,20.0301-5.6809,37.7499-9.8406,51.9937h55.3718v48.3219h-76.2281c-3.1414,24.7609-7.0509,47.9097-11.4562,69.0312 46.2673-8.7542 101.0824-14.9264 160.9749-17.7718v-51.2593-48.3219h35.1031c7.8055,70.0923 22.2158,117.353 38.9219,117.353s31.2461-47.2608 39.0687-117.353h35.1032v48.3219 51.2593c59.8924,2.8455 114.5606,9.0176 160.8279,17.7718-4.4053-21.1214-8.1679-44.2702-11.3093-69.0312h-76.2281v-48.3219h55.3719c-4.1597-14.2438-7.5727-31.9636-9.9875-51.9937h-44.7969v-31.2843h42.0062c-.2789-4.7345-.4237-9.5047-.5873-14.3938h-41.4187v-31.2843h41.1249c.8024-42.4763 6.0309-80.0684 13.6594-106.1905h-55.3719v-48.3219h76.2281c3.1414-24.7609 6.9041-48.0566 11.3094-69.178-46.2674,8.7542-100.9356,15.0732-160.828,17.9187v99.5812h-35.1031c-7.8236-70.1187-22.3613-117.4999-39.0687-117.4999s-31.1151,47.3812-38.9219,117.4999h-35.1031v-99.5812c-59.8925-2.8456-114.7075-9.1645-160.9749-17.9187zm120.2905,171.2561h229.5655v127.6342h-229.5655v-127.6342zm29.375,48.4687v65.2124h170.6687v-65.2124h-85.3344-85.3343z"></path></svg>