<svg stroke="currentColor" fill="currentColor" stroke-width="0" viewBox="0 0 512 512" height="1em" width="1em" xmlns="http://www.w3.org/2000/svg"><path d="M360 73c-14.43 0-27.79 7.71-38.055 21.395-10.263 13.684-16.943 33.2-16.943 54.94 0 21.74 6.68 41.252 16.943 54.936 10.264 13.686 23.625 21.396 38.055 21.396s27.79-7.71 38.055-21.395C408.318 190.588 415 171.075 415 149.335c0-21.74-6.682-41.255-16.945-54.94C387.79 80.71 374.43 73 360 73zm-240 96c-10.012 0-19.372 5.32-26.74 15.145C85.892 193.968 81 208.15 81 224c0 15.85 4.892 30.032 12.26 39.855C100.628 273.68 109.988 279 120 279c10.012 0 19.374-5.32 26.742-15.145 7.368-9.823 12.256-24.006 12.256-39.855 0-15.85-4.888-30.032-12.256-39.855C139.374 174.32 130.012 169 120 169zm188.805 47.674c-1.625 1.26-3.208 2.58-4.737 3.974-13.716 12.524-23.816 31.052-31.53 54.198-14.59 43.765-20.404 103.306-30.063 164.154h235.05c-9.66-60.848-15.476-120.39-30.064-164.154-7.714-23.146-17.812-41.674-31.528-54.198-1.53-1.396-3.112-2.715-4.737-3.974-12.84 16.293-30.942 26.994-51.195 26.994s-38.355-10.7-51.195-26.994zM81.27 277.658c-.573.485-1.143.978-1.702 1.488-9.883 9.024-17.315 22.554-23.03 39.7-10.6 31.8-15.045 75.344-22.063 120.154h171.048c-7.017-44.81-11.462-88.354-22.062-120.154-5.714-17.146-13.145-30.676-23.028-39.7-.56-.51-1.127-1.003-1.702-1.488C148.853 289.323 135.222 297 120 297c-15.222 0-28.852-7.678-38.73-19.342z"></path></svg>