<svg stroke="currentColor" fill="currentColor" stroke-width="0" viewBox="0 0 512 512" height="1em" width="1em" xmlns="http://www.w3.org/2000/svg"><path d="M79.625 22.03c-16.694.274-31.01 5.33-41.22 15.658C5.743 70.735 27.53 145.313 87.22 204.313c39.992 39.53 91.568 45.025 125.03 56.593-38.19 35.214-80.874 67.594-130.438 99.28l61.594 60.876c33.267-53.395 68.052-99.412 106.406-140.593 66.466 44.55 113.05 126.476 157.594 206.967l85.5-86.5c-82.206-44.252-164.58-88.96-209.25-154.687 41.214-39.214 86.72-74.14 138.656-107.344L360.72 78.03c-30.47 48.903-61.926 91.685-96.845 130.564-11.704-33.438-18.262-84.475-58.28-124.032C164.556 44 116.35 21.43 79.624 22.032zm16.97 47.064c20.94.415 50.89 16.01 77.436 42.25 36.934 36.505 53.305 79.782 36.595 96.687-16.71 16.907-60.194 1.037-97.125-35.468C76.57 136.06 60.165 92.75 76.875 75.844c4.7-4.755 11.525-6.913 19.72-6.75z"></path></svg>