<svg stroke="currentColor" fill="currentColor" stroke-width="0" viewBox="0 0 512 512" height="1em" width="1em" xmlns="http://www.w3.org/2000/svg"><path d="M92.438 28.97C75.263 47.722 60.826 69.69 49.593 94L167.5 204.656l-12.78 13.625L41.905 112.407c-9.19 24.257-15.377 50.455-18.156 77.844l116.156 58.72-8.437 16.686L22.312 210.47c-.963 24.45.777 49.666 5.437 75.155l100.53 8.313-1.53 18.625-94.97-7.844c.743 3.09 1.515 6.185 2.345 9.28 4.43 16.51 9.94 32.34 16.375 47.438 8.757-1.615 17.808-3.274 27.813-5.157 26.754-5.033 53.093-10.06 53.093-10.06l3.5 18.342s-26.368 5.054-53.156 10.094c-8.012 1.508-15.797 2.97-23.188 4.344 8.65 17.507 18.62 33.887 29.657 49l60.843-34.28L158.22 410l-58.407 32.938c12.202 14.79 25.482 28.186 39.624 40l17.157-20.344c1.38-20.537 4.963-37.725 14.375-51.72 6.338-9.425 15.44-16.826 27.155-21.937C189.86 376.115 183.3 361.62 179 345.594c-14.526-54.15.58-108.49 36.406-138.094L92.436 28.97zm330.843 0L300.314 207.5c35.826 29.604 50.964 83.943 36.437 138.094-4.26 15.877-10.768 30.237-18.938 42.97 12.345 5.384 21.554 13.502 27.5 23.655 7.81 13.333 10.495 29.117 11.407 47.467l19.592 23.25c14.14-11.813 27.423-25.208 39.625-40L357.5 410l9.188-16.28L427.53 428c11.04-15.117 21.006-31.49 29.658-49-7.4-1.374-15.207-2.836-23.22-4.344-26.787-5.04-53.156-10.094-53.156-10.094l3.5-18.343s26.372 5.027 53.125 10.06c9.794 1.844 19.196 3.598 27.813 5.19 6.44-15.105 11.944-30.954 16.375-47.47.83-3.095 1.602-6.19 2.344-9.28L389 312.56l-1.53-18.625L488 285.625c4.66-25.49 6.37-50.705 5.406-75.156L384.25 265.655l-8.438-16.687L492 190.25c-2.783-27.4-8.956-53.61-18.156-77.875L361.03 218.28l-12.81-13.624L466.124 94c-11.236-24.31-25.668-46.277-42.844-65.03zM256.095 290.03c-10.452 0-20.172 5.342-27.78 15.126-7.61 9.784-12.658 23.895-12.658 39.688 0 15.793 5.047 29.903 12.656 39.687 7.61 9.785 17.33 15.158 27.782 15.158 10.452 0 20.14-5.373 27.75-15.157 7.61-9.783 12.656-23.893 12.656-39.686s-5.047-29.904-12.656-39.688c-7.61-9.784-17.298-15.125-27.75-15.125zm39.625 111.19c-10.36 11.14-24.236 18.342-39.626 18.342-14.957 0-28.49-6.798-38.75-17.406-2.662.66-5.147 1.384-7.438 2.188-11.464 4.02-18.388 9.46-23.437 16.97-9.19 13.66-11.542 37.05-11.907 69.248h163.812c-.135-31.55-1.154-55.19-9.188-68.906-4.42-7.55-10.596-12.946-21.562-17.062-3.467-1.302-7.433-2.437-11.906-3.375z"></path></svg>