<svg stroke="currentColor" fill="currentColor" stroke-width="0" viewBox="0 0 512 512" height="1em" width="1em" xmlns="http://www.w3.org/2000/svg"><path d="M261.438 21.22c-15.84.29-39.205 5.187-47.22 24.593 16.916 29.242 27.28 56.103 31.188 86.03-18.24-11.44-37.88-19.485-58.187-23.562-11.477-2.303-22.64-3.514-32.97-3.155-73.71 2.563-136.555 66.652-135.344 158.844 1.39 105.896 79.51 207.666 170.03 225.842 11.483 2.307 25.594 3.514 38.22 2.344 12.626-1.17 23.416-4.88 29.25-10.47l6-5.748 6.406 5.28c5.578 4.59 17.04 8.266 29.97 9.47 12.93 1.203 27.243.23 38.374-2.22 89.895-19.778 157.117-122.258 155.72-228.624-.697-52.98-19.85-96.1-49.5-123.438-22.238-20.503-50.338-32.37-81.97-32.844-10.544-.158-21.47.963-32.72 3.438-17.795 3.915-35.014 10.908-51.123 20.563 1.056-35.043-1.918-67.18-9.844-106.22-1.89-.116-4.02-.166-6.283-.124zm-2.594 157.155c10.815 12.31 14.52 23.08 13.72 33.25-.777 9.853-6.463 20.39-17.033 31.438-23.14-19.986-17.763-52.22 3.314-64.688zm67.062 36.47c3.374-.02 6.886.378 10.5 1.186-2.575 15.077-7.64 25.913-15.094 32.407-7.693 6.705-18.566 10.168-34.906 8.813-2.204-20.99 14.342-41.402 38.063-42.375.475-.02.954-.03 1.436-.03zm-140.812 2.53c19.99-.49 36.904 13.895 39.687 32.406-15.465 5.4-26.843 4.78-35.968.22-8.842-4.42-16.477-13.645-22.75-27.594 5.745-2.945 11.522-4.534 17.094-4.937.65-.048 1.293-.08 1.938-.095zm-7.344 57.438c14.08-.03 27.37 7.438 34 19.75-12.746 10.32-23.678 13.618-33.813 12.406-9.813-1.175-20.107-7.273-30.718-18.283 8.964-9.577 19.954-13.853 30.53-13.875zm140.22 3.656c.754-.003 1.522.02 2.28.06 12.186.67 24.498 6.978 32.72 19.908-12.472 8.847-23.703 12.95-33.564 12.28-10.18-.69-20.303-5.94-30.906-18.437 7.203-8.893 18.14-13.783 29.47-13.81zm-114.75 53.436c4.348.067 8.69.933 12.843 2.563-3.055 16.11-9.266 25.655-17.782 31.28-8.243 5.446-20.044 7.443-35.25 5.906 1.213-24.172 19.444-39.027 38.314-39.72.62-.02 1.253-.04 1.875-.03zm86.968.156c18.88.255 37.48 14.673 39.25 38.813-15.18 1.894-27.034.194-35.407-5.063-8.64-5.424-15.07-14.852-18.5-30.875 4.71-1.98 9.682-2.942 14.658-2.875zm-43.97 16.47c21.083 12.47 26.442 44.702 3.282 64.687-10.564-11.047-16.256-21.59-17.03-31.44-.802-10.17 2.934-20.94 13.75-33.25z"></path></svg>