<svg stroke="currentColor" fill="currentColor" stroke-width="0" viewBox="0 0 512 512" height="1em" width="1em" xmlns="http://www.w3.org/2000/svg"><path d="M393.516 16.135c40.837 0 63.378 35.364 64 48 0 16.27-8.044 38.785-25.098 48.492-12.694 49.715-74.547 103.264-128.826 128.724 12.46 43.998-72.647 108.43-122.42 144.158 2.412 11.27 1.6 21.734 0 32 11.59 18.673.475 25.688 1.58 47.29-.602 7.96-13.64 7.21-16.087-4.916 2.78-17.81-1.69-33.203-8.87-31.093l-18.303 24.778-27.29 38.43c-3.38 3.424-15.917.953-12.84-7.275l22.426-40.874-2.17-1.456-42.658 45.283c-3.47 3.59-15.063-4.56-11.437-9.46l39.964-42.532-2.168-1.103-38.163 25.35c-4.354 3.057-13.072-5.926-7.24-10.123l36.674-29.224-25.15 12.625c-3.528 1.206-7.267-5.934-3.424-7.643l29.232-18.686c15.17-12.262 33.696-33.15 53.923-37.372 31.767-47.953 60.17-95.738 100.346-145.373 15.756-59.134 54.396-110.096 96-160 5.972-34.253 29.893-46.475 48-48z"></path></svg>