<svg stroke="currentColor" fill="currentColor" stroke-width="0" viewBox="0 0 512 512" height="1em" width="1em" xmlns="http://www.w3.org/2000/svg"><path d="M257.313 15.688l-50.375 87.53 28.156-8.53 22.28-38.72 22.407 38.782 28.126 8.47-50.594-87.532zm-138.938 77.75l18.5 99.28 14.156-22.093L141.595 120l48.97 17.313 23.124-10.157-95.313-33.72zm278.72 0l-95.314 33.718 23.876 10.5L375.562 120l-9.812 52.688 12.844 20.03 18.5-99.28zm-139.72 2.03l-9.344 2.844v104.47l9.69 11.343 9-10.5V98.28l-9.345-2.81zm81.22 52.032l-54.345 63.688.344.28-14.563 17 12.033 14.063 71.093-83.343-4.75-7.375-9.812-4.312zm-161.25.53l-8.595 3.782-5.47 8.532 255.5 299.469L433 447.688l-8.094-9.47 22.688-10.03 11.47-5.063-8.158-9.53-44.125-51.783-2.31-2.718-3.564-.47-49.562-6.655-174-203.94zm56.06 123.22l-62.218 72.688-.125-.094-6.625 7.75-49.718 6.687-3.564.47-2.312 2.72-44.28 51.936-8.158 9.563 11.5 5.06 22.75 10.064-8.187 9.594 14.218 12.156L245.594 285.28l-12.188-14.03zm24.376 28.125l-9.75 11.28v178.75h18.69v-15.092l24.874 7.437 12.03 3.594v-87l-2.374-2.656-34.53-38.47v-47.5l-8.94-10.343zm-111.5 73.5l-42.936 50.375L86.906 416l33.844-39.688 25.53-3.437zm223.22.375l25.406 3.438 33.656 39.468-16.312 7.22-42.75-50.126zm-140.03 4.375l-16.064 18.094-2.344 2.655v87.031l12.063-3.656 6.344-1.906v-102.22zm37.25 7.563l18.217 20.312v54.75l-18.218-5.438v-69.625zm-87.75 5.406l-64.564 74.687 3.5 5.44 6.813 10.592 8.155-9.593 44.28-51.94 2.314-2.686-.064-3.563-.437-22.936zm157.905.156l-.438 22.97-.093 3.53 2.312 2.72 44.125 51.75 8.19 9.592 6.78-10.625 3.53-5.5-64.405-74.437z"></path></svg>