<svg stroke="currentColor" fill="currentColor" stroke-width="0" viewBox="0 0 512 512" height="1em" width="1em" xmlns="http://www.w3.org/2000/svg"><path d="M252.625 36.307c-6.092.006-12.026.422-17.766 1.367-6.74 15.11-15.352 32.332-15.352 32.332l-32.752-13.453c-16.186 7.61-10.852 30.03-20.06 38.44-27.888 22.73-83.84 68.866-89.725 84.734-12.537 33.803-19.03 69.85-20.005 104.95 14.493 7.74 31.347 20.743 47.008 34.73 14.336 14.328 35.16 31.31 40.828 49.716l2.096 7.168-6.658 3.384c-11.466 5.26-9.42 16.91-11.275 25.86l-17.602-3.77c1.218-13.002 3.663-24.96 13.206-33.12-8.763-13.648-21.562-25.924-32.584-35.81-11.454-10.23-24.25-20.012-34.933-26.947 1.674 46.477 1.207 81.64 21.255 114.607l31.945 5.094-.553 28.053 42.27-3.222-5.3 30.28c92.217 38.28 247.83-57.624 288.362-162.223 8.685-22.415 48.163-45.242 49.896-67.717 2.734-35.472-8.37-70.06-27.727-100.74-13.795 13.218-29.79 17.135-46.56 9.796l20.255 23.86-13.723 11.648-27.4-32.273-1.24-18.446c-5.757-5.283-11.19-11.362-16.046-17.94l-33.95 9.97-5.073-17.27 29.023-8.522c-3.782-7.177-6.71-14.646-8.39-22.174-2.694-12.064-2.116-24.784 4.7-35.326.07-.108.145-.21.216-.317-36.018-4.868-73.49-16.754-106.387-16.718zm121.287 26.806c-3.475 5.376-4.253 12.655-2.248 21.633s6.862 19.155 13.3 28.45c6.44 9.293 14.446 17.73 22.216 23.577 23.14 12.916 41.762 7.763 39.084-16.968-1.89-16.137-17.54-29.672-23.46-35.753-12.655-12.994-38.097-34.83-48.892-20.94zm-36.207 4.266l-9.47 21.282-25.104 9.29-18.34-10.36zM233.393 96.282l30.316 11.072 27.874 46.264 32.05 14.146-7.27 16.468-37.26-16.45zm-43.89 30.66c9.625-.01 19.89 2.822 25.817 11.815 6.116 5.094 16.364 8.502 27.846 12.816l-6.332 16.852c-5.8-2.18-12.472-4.145-18.963-6.996-1.048 3.52-2.588 6.89-4.358 9.935a64.73 64.73 0 0 1-2.97 4.625c12.61 6.737 24.022 11.983 30.12 12.506l-1.54 17.934c-13.374-1.148-27.19-8.556-41.235-16.645a69.874 69.874 0 0 1-5.22 4.035c-5.618 3.903-12.543 7.623-20.044 10.5 2.925 14.92 3.148 30.108 2.94 41.203l-17.997-.337c.19-10.045-.234-23.675-2.45-36.112-5.99.925-12.046 1.06-17.944-.383-.09-.02-.177-.046-.266-.07.083 13.554-1.982 28.058-11.95 42.374l-14.77-10.285c10.87-15.612 8.98-30.818 7.804-49.224-1.566-5.005-1.475-10.304-.23-14.988 1.682-6.33 5.1-11.886 9.187-16.945 8.176-10.118 19.228-18.362 28.807-23.49 11.795-5.06 22.388-9.09 33.75-9.12zm-.665 18.012c-.64.012-1.308.047-2.004.102-7.502.613-16.64 3.695-22.588 6.88-7.375 3.946-17.25 11.444-23.3 18.93-3.023 3.743-5.045 7.453-5.79 10.254-1.15 5.08 2.084 9.024 6.29 10.087 3.02.738 7.46.737 12.396-.164 9.87-1.802 21.545-7.135 28.553-12.004 5.274-3.666 11.863-10.37 15.556-16.722 3.85-12.748.492-17.54-9.112-17.363zm259.953 37.65l12.642 62.508-54.782 40.737 33.01-56.89zm-61.31 20.75l3.182 17.717-66.13 11.883-9.65 25.186-25.25 11.934 21.725-53.04zm-11.63 64.83l16.3 7.63c-7.236 15.46-9.834 23.982-8.974 33.36 6.018.288 12.134.976 18.222 1.934l-2.796 17.78c-20.668-3.25-40.167-1.63-49.913 5.192-4.873 3.41-7.866 7.633-9.088 14.89-1.223 7.254-.21 17.796 4.873 31.997-14.763 5.31-28.485 9.344-43.684 14.436l-5.716-17.068 27.455-9.197c-1.625-8.534-1.85-16.21-.678-23.16 1.844-10.947 7.55-19.874 15.334-25.773-2.568-5.383-5.2-11.09-7.092-17.383-2.792-9.287-.37-27.64-.56-27.658 0 0 15.726 15.586 17.798 22.477 1.373 4.567 3.592 9.417 6.01 14.548 3.83-1.158 7.836-1.963 11.965-2.47-.69-12.83 3.032-25.492 10.543-41.536zm-145.416 3.946l-21.852 46.684-1.49 65.057-17.38-68.036s36.75-43.703 40.722-43.703zm38.574 139.85a84.97 84.97 0 0 1 7.69.32c13.628 1.172 27.29 5.13 40.73 9.132l-5.137 17.252c-13.297-3.96-26.01-7.494-37.134-8.45-5.48-.47-10.477-.36-15.1.508l-14.878-14.148c6.827-2.917 14.02-4.278 21.263-4.56a75.72 75.72 0 0 1 2.568-.054zm-38.95 15.075l13.983 13.3c-10.892 17.037-14.518 26.755-31.18 37.32 1.64-5.576 3.002-16.252 5.88-26.984 2.176-8.11 5.298-16.793 11.32-23.635z"></path></svg>