<svg stroke="currentColor" fill="currentColor" stroke-width="0" viewBox="0 0 512 512" height="1em" width="1em" xmlns="http://www.w3.org/2000/svg"><path d="M471.8 28.22l-20.4 44.15c5.9 1.52 11.5 4.24 16.2 7.9l20.6-44.49-16.4-7.56zM355.4 71.67l-6.8 16.66 47.6 19.57c1.1-6.1 3.4-11.75 6.7-16.71l-47.5-19.52zm85 17.33c-15 0-27 12-27 27 0 12.3 8.1 22.6 19.3 25.9l6.9-17.2 2.3-5.7h25.3c.1-1 .2-2 .2-3 0-15-12-27-27-27zm-40.2 47.1c-53.7 20.9-108.4 41.3-189 53.9l10.8 16.5c80.7-13.5 136.2-34.7 190-55.7-4.9-4-8.9-9-11.8-14.7zm53.9.9l-23.6 58.9L485 185l-12-48h-18.9zm-261.4 57.7L33.69 298.6l42.69 65.3 159.02-104-42.7-65.2zM487 203l-57.7 11.5-49.5 32.5H448v18h-95.6L87.25 439H128v18H64v-2.7L14.12 487H375v-30h-87v-18h23v-46h-55v-18h128v18h-55v46h119v18h-55v30h94V329h-55v-18h55V203zm-251.8 82.8a16 16 0 0 0-8.7 2.6 16 16 0 0 0-4.6 22.2 16 16 0 0 0 22.2 4.6 16 16 0 0 0 4.6-22.1 16 16 0 0 0-13.5-7.3zM195 312.1a16 16 0 0 0-8.6 2.6 16 16 0 0 0-4.7 22.1 16 16 0 0 0 22.2 4.7 16 16 0 0 0 4.6-22.2 16 16 0 0 0-13.5-7.2zm-40.2 26.3a16 16 0 0 0-8.6 2.6 16 16 0 0 0-4.6 22.1 16 16 0 0 0 22.1 4.6 16 16 0 0 0 4.6-22.1 16 16 0 0 0-13.5-7.2zm-40.1 26.2a16 16 0 0 0-8.7 2.6 16 16 0 0 0-4.6 22.2 16 16 0 0 0 22.1 4.6 16 16 0 0 0 4.7-22.1 16 16 0 0 0-13.5-7.3z"></path></svg>