<svg stroke="currentColor" fill="currentColor" stroke-width="0" viewBox="0 0 512 512" height="1em" width="1em" xmlns="http://www.w3.org/2000/svg"><path d="M256 26C192 58 112 80 32 80c0 46.047 4.726 89.503 13.02 129.69 25.495-2.558 53.13-2.433 81.86-1.06l-7.61-30.446-2.022-8.086 65.898-21.967 10.866 65.194c28.32 2.336 56.907 4.82 84.9 6.238 14.357-4.67 28.073-8.33 40.43-14.36l7.78-46.682 1.732-10.39 65.898 21.968-9.578 38.316c9.207 4.926 20.403 14.91 23.97 22.346 3.352 7.302 2.696 15.333.256 24.154 2.27 6.21 2.31 12.947.43 19.287-1.65 5.57-4.95 10.974-9.844 14.974.41 10.106-5.414 19.52-14.597 23.353-5.045 10.42-15.085 22.05-25.146 25.678a35.325 35.325 0 0 1-7.943 1.7l-10.29 41.16-47.98-23.99 7.107-42.647c-7.178-2.867-14.753-6.176-23.147-9.758-22.506 2.868-45.05 5.7-67.385 8.213l7.366 44.193-47.98 23.99-15.668-62.668c-25.372 2.034-50.16 3.29-73.943 3.288C126.423 426.23 197.21 490 256 490c96 0 224-170 224-410-80 0-160-22-224-54zm-87.146 145.87l-30.102 10.034 43.258 173.028 16.02-8.008-29.176-175.055zm174.292 0l-3.927 23.562c9.757-4.082 21.374-8.826 31.514-3.473l2.514-10.058-30.102-10.033zm17.692 35.696c-5.508.754-15.244 4.655-25.35 9.72-18.843 11.052-35.297 13.47-53.963 20.448-29.314-1.518-59.264-3.89-84.43-5.912l10.538 63.23c25.773-2.928 50.59-5.99 72.93-8.845 8.035 3.372 16.415 7.06 23.603 10.05l5.156-30.943-.492-16.046c31.396-.965 40.955-17.8 46.625-26.14 2.25-3.306 4.94-9.64 5.424-13.554.162-1.32.03-1.567-.042-2.008zm14.598 16.305c-2.703 5.724-5.283 9.687-7.97 14.567 7.198 3.907 15.487 5.786 25.923 6.215.426-2.995.116-4.813-.605-6.382-1.195-2.604-5.27-6.648-13.826-12.715-1.51-.91-2.674-1.404-3.524-1.684zm-284.63 2.026c-22.55-.09-43.69 1.063-62.732 4.256-10.604 21.43-9.975 44.448 1.57 71.08 36.332 3.616 77.178 2.643 120.223-.662l-18.35-73.406c-13.955-.738-27.575-1.215-40.71-1.268zm263.41 25.303a71.374 71.374 0 0 1-5.972 4.34c2.293 9.34 10.7 11.83 19.822 13.91 7.76 1.73 16.358 2.576 23.13 2.802a14.133 14.133 0 0 0 1.376-3.166c.653-2.202.702-4.555.38-6.48-14.655-.713-27.626-4.258-38.737-11.407zm-21.835 12.025a73.26 73.26 0 0 1-4.694 1.41l-2.053 12.32a25.18 25.18 0 0 1 8.056-10.383 31.58 31.58 0 0 1-1.31-3.347zm12.872 17.345c-1.468.894-2.713 2.34-3.195 3.817-.638 1.953-1.09 3.368 1.755 5.533 3.645 2.138 9.51 4.437 15.745 5.613 5.123.967 10.54 1.276 14.804 1.205l2.876-.467c1.974-.318 4.624-3.515 4.752-6.553-5.69-.506-11.804-1.355-17.836-2.7-6.592-1.47-13.14-3.327-18.9-6.447zm-21.23 6.04l-10.05 60.314 16.018 8.008 4.72-18.88c-9.425-5.795-14.6-14.962-14.468-23.888.085-5.812 2.58-11.444 6.653-15.617-1.686-3.174-2.65-6.586-2.872-9.936zm15.933 21.91c-1.2.71-1.687 2-1.715 3.908-.04 2.678 1.262 6.588 8.574 9.61.664.133 3.335.59 7.618-.87 2.824-.963 6.072-2.797 9.226-6.81a108.078 108.078 0 0 1-7.44-1.137c-5.542-1.045-11.13-2.444-16.263-4.7z"></path></svg>