<svg stroke="currentColor" fill="currentColor" stroke-width="0" viewBox="0 0 512 512" height="1em" width="1em" xmlns="http://www.w3.org/2000/svg"><path d="M32.033 96S16 96 16 112.22V384c0 16 15.783 16 15.783 16h54.94l.547-2.184L104.973 327h302.054l17.703 70.816.547 2.184h53.01S496 400 496 385.23V112c0-16-16-16-16-16H32.033zM87 135h338v18H87v-18zm0 48h338v114H87V183zm18 18v78h132.795c5.88-11.722 9.205-24.957 9.205-39s-3.326-27.278-9.205-39H105zm152.465 0c4.85 12.066 7.535 25.223 7.535 39 0 13.777-2.686 26.934-7.535 39h32.89C283.17 267.708 279 254.33 279 240c0-14.33 4.17-27.708 11.354-39h-32.89zm55.676 0c-9.98 9.945-16.14 23.723-16.14 39 0 15.277 6.16 29.055 16.14 39h77.72c9.98-9.945 16.14-23.723 16.14-39 0-15.277-6.16-29.055-16.14-39h-77.72zm-143.677 8.432a32 32 0 0 1 12.06 6.94l-5.12 2.956c5.044 4.037 8.61 9.857 9.693 16.465l5.06-2.922A32 32 0 0 1 192 240a32 32 0 0 1-.787 6.94l-5.072-2.928c-1.016 6.624-4.525 12.476-9.525 16.56l5.065 2.924a32 32 0 0 1-12.217 7.04v-5.778c-2.972 1.164-6.192 1.812-9.553 1.812-3.36 0-6.58-.648-9.553-1.812v5.744a32 32 0 0 1-12.11-7.086l4.944-2.853c-4.995-4.088-8.5-9.943-9.512-16.57l-4.903 2.83A32 32 0 0 1 128 240a32 32 0 0 1 .81-7.027l4.91 2.834c1.08-6.608 4.643-12.43 9.684-16.47l-5.013-2.894a32 32 0 0 1 11.967-6.918v5.786c2.972-1.164 6.193-1.812 9.553-1.812 3.36 0 6.58.648 9.553 1.813v-5.878zm192.11.04a32 32 0 0 1 11.984 6.93l-5.047 2.914c5.044 4.038 8.61 9.857 9.693 16.465l4.963-2.862A32 32 0 0 1 384 240a32 32 0 0 1-.77 6.877l-4.98-2.875c-1.016 6.624-4.526 12.476-9.525 16.56l5.004 2.89a32 32 0 0 1-12.158 7.046v-5.75c-2.97 1.164-6.194 1.81-9.554 1.81-3.36 0-6.58-.646-9.553-1.81v5.793a32 32 0 0 1-12.184-7.093l5.02-2.896c-4.998-4.087-8.503-9.942-9.515-16.568l-5 2.887A32 32 0 0 1 320 240a32 32 0 0 1 .826-7.092l5.002 2.89c1.08-6.61 4.643-12.43 9.684-16.47l-5.073-2.93a32 32 0 0 1 12.025-6.908v5.81c2.972-1.166 6.192-1.812 9.553-1.812 3.36 0 6.583.646 9.554 1.81v-5.825zM119.026 345l-13.75 55h301.446l-13.75-55H119.027zM48 352a16 16 0 0 1 16 16 16 16 0 0 1-16 16 16 16 0 0 1-16-16 16 16 0 0 1 16-16zm416 0a16 16 0 0 1 16 16 16 16 0 0 1-16 16 16 16 0 0 1-16-16 16 16 0 0 1 16-16zm-304 7h48v18h-48v-18zm144 0h48v18h-48v-18z"></path></svg>