<svg stroke="currentColor" fill="currentColor" stroke-width="0" viewBox="0 0 512 512" height="1em" width="1em" xmlns="http://www.w3.org/2000/svg"><path d="M51.72 25c3.76 42 3.72 84 0 126h44.22c-4.56-41.6-3.68-83.68.28-126h-44.5zm181.68 0c2.6 54.1 5.5 108.6.4 164.7h44.3c-5-54.5-3.7-109.52.3-164.7h-45zm113.2 0c4.6 31.51 3.6 62.88-.4 94h44.1c-2.4-31.33-2.4-62.67 0-94h-43.7zm116.5 36.46s-41.4 7.81-53.5 23.86c-3.2 4.61-5.9 12.32-3 17.18 3.1 4.8 10.7 5 15.8 3.3 18.3-6 40.7-44.34 40.7-44.34zM173 106.9s12 42.7 28.1 53.1c4.6 3.1 12.2 4.6 16.3.7 4.1-3.9 3.4-12 1.4-17.2-7.8-18.7-45.8-36.6-45.8-36.6zm261.4 6.9c-4.6.1-8.9.6-12.5 1.8-6.3 2.2-14.1 8.1-13.8 14.7.1 6.6 8.2 12 14.8 13.8 23.6 6.2 71.5-16.6 71.5-16.6s-35.2-14-60-13.7zM346.2 137c6.2 47.7 7.1 95.1.2 142h43.8c-4-47.4-3.5-94.8.2-142h-44.2zm67.4 18.9c-2.2.1-4.3.8-5.9 2.3-4.1 3.9-3.4 12-1.4 17.2 7.8 18.7 45.8 36.6 45.8 36.6s-12-42.7-28.1-53.1c-2.6-1.7-6.1-3-9.5-3h-.9zm-255 12.3c-13.1.2-23.2 1.3-23.2 1.3s40.3 34.6 64.7 34.8c6.7-.1 16-3.1 17.8-9.4 2.1-6.3-3.8-14.1-9.5-17.9-10.1-6.8-28.4-8.6-44.1-8.8h-5.7zm-106.59.8c4.41 42.1 3.92 84.1-.2 126h44.42c-3.9-42.3-4.92-84.4-.31-126H52.01zm181.49 32c3.3 52.1 3.5 104.7 0 158h44.6c-5-53.5-3.7-106 .3-158h-44.9zm-76.4 22.6s-38 17.9-45.8 36.6c-2 5.2-2.7 13.3 1.4 17.2 4.1 3.9 11.7 2.4 16.3-.7 16.1-10.4 28.1-53.1 28.1-53.1zm-25.6 72.1c-6.7.2-15 3.1-16.9 9-2.1 6.2 3.6 14.1 9.1 18 19.9 14 72.8 9.4 72.8 9.4s-39.3-35.6-63.7-36.4h-1.3zm214.2 1.3c2.8 36.5 3.6 73.2.2 110h43.9c-4.6-38-1.7-74.3.6-110h-44.7zM51.61 313c3.96 58.2 2.72 116.2-.2 174h45.21c-2.49-57.7-4.56-115.7-.28-174H51.61zM121 337.8c-3.8.1-7.5 1.3-9.4 4.3-2.9 4.8-.2 12.6 3 17.2 12.1 16 53.5 23.8 53.5 23.8s-22.4-38.3-40.7-44.3c-1.9-.6-4.2-1-6.4-1zm359.7 19.4s-52.9 5.1-69.9 22.5c-4.6 4.8-8.9 13.7-5.6 19.4 3.1 5.8 12.8 6.9 19.5 5.5 23.8-5.2 56-47.4 56-47.4zM234 377c3.6 36.7.4 73.9-.7 110h45.2c-1.7-35.8-5.7-72.4-.8-110H234zm182 45c-5.2 0-11.1 2.3-12.7 6.9-1.9 5.3 2.4 12.2 6.6 16 15.4 13 57.4 11.6 57.4 11.6s-30.1-32.5-49.2-34.4c-.7-.1-1.4-.1-2.1-.1zm-70 3c2.1 20.3 3.3 41 .6 62h42.8c-2.8-21.1-1.4-41.8.7-62H346z"></path></svg>