<svg stroke="currentColor" fill="currentColor" stroke-width="0" viewBox="0 0 512 512" height="1em" width="1em" xmlns="http://www.w3.org/2000/svg"><path d="M254.443 49.593c-9.011.085-18 1.243-25.056 3.412-7.057 2.17-11.811 5.395-13.676 8.17-7.133 10.617-9.076 19.519-8.1 27.63.977 8.11 5.102 15.92 12.159 23.443 9.846 10.495 25.39 19.81 42.857 26.955-7.836-14.753-11.888-28.818-10.357-42.717 1.826-16.589 11.956-31.077 29.351-43.768-.63-.174-1.186-.377-1.85-.533-7.244-1.703-16.316-2.676-25.328-2.592zm37.79 17.461c-14.638 10.454-20.887 20.609-22.075 31.4-1.474 13.394 5.377 30.64 20.887 52.175l14.023 19.468c12.6-8.667 25.012-12.72 36.782-12.959a54.52 54.52 0 0 1 5.888.2c15.544 1.368 29.047 8.774 41.418 17.423l-10.312 14.752c-11.223-7.846-21.99-13.307-32.684-14.248-10.693-.94-22.044 2.044-36.463 13.838l-11.394-13.932a102.983 102.983 0 0 1 5.824-4.43l-22.74-6.167c-28.693-7.783-56.841-20.93-74.742-40.012-8.951-9.54-15.368-20.858-16.903-33.607-.569-4.726-.43-9.582.42-14.502C121.752 105.216 73 177.51 73 262.775c0 110.751 82.246 199.637 183 199.637s183-88.886 183-199.637c0-97.123-63.252-177.427-146.768-195.72zM170.15 157.138c13.872.282 28.637 5.837 43.547 18.033l-11.394 13.932c-14.419-11.794-25.77-14.779-36.463-13.838-10.693.941-21.46 6.402-32.684 14.248l-10.312-14.752c12.371-8.649 25.874-16.055 41.418-17.424a54.52 54.52 0 0 1 5.888-.199zm-2.15 40c26.955 0 49 22.045 49 49s-22.045 48.998-49 48.998c-26.386 0-48.053-21.125-48.957-47.3a32.955 32.955 0 0 1 0-3.395c.904-26.175 22.571-47.303 48.957-47.303zm176 0c26.955 0 49 22.045 49 49s-22.045 48.998-49 48.998c-26.386 0-48.053-21.125-48.957-47.3a32.955 32.955 0 0 1 0-3.395c.904-26.175 22.571-47.303 48.957-47.303zm-176 17.998c-1.378 0-2.73.097-4.059.268C176.22 220.226 185 232.224 185 246.138c0 13.914-8.78 25.91-21.059 30.733 1.329.17 2.681.267 4.059.267 17.228 0 31-13.772 31-31s-13.772-31.002-31-31.002zm176 0c-1.378 0-2.73.097-4.059.268C352.22 220.226 361 232.224 361 246.138c0 13.914-8.78 25.91-21.059 30.733 1.329.17 2.681.267 4.059.267 17.228 0 31-13.772 31-31s-13.772-31.002-31-31.002zm-284.746 3.006c-14.197 2.45-23.466 7.41-29.065 13.145-7.967 8.162-9.918 18.531-7.39 30.328 3.681 17.18 18.154 35.225 36.076 43.775A235.517 235.517 0 0 1 55 262.775c0-15.287 1.47-30.215 4.254-44.633zm393.492 0A235.355 235.355 0 0 1 457 262.775c0 14.575-1.339 28.823-3.875 42.615 17.922-8.55 32.395-26.595 36.076-43.775 2.528-11.797.577-22.166-7.39-30.328-5.599-5.735-14.868-10.695-29.065-13.145zM152 231.136c-8.391 0-15 6.61-15 15.002 0 3.263 1.008 6.248 2.723 8.688l23.545-18.65c-2.732-3.099-6.734-5.04-11.268-5.04zm176 0c-8.391 0-15 6.61-15 15.002 0 3.263 1.008 6.248 2.723 8.688l23.545-18.65c-2.732-3.099-6.734-5.04-11.268-5.04zm-98.41 49.95c8 6.34 13.916 10.984 18.228 13.718 4.313 2.735 6.56 3.356 8.182 3.356 1.623 0 3.87-.621 8.182-3.356 4.312-2.734 10.228-7.378 18.228-13.718l11.18 14.103c-8 6.34-14.084 11.208-19.772 14.815-5.687 3.606-11.44 6.154-17.818 6.154-6.377 0-12.13-2.548-17.818-6.154-5.688-3.607-11.772-8.474-19.772-14.815zm-82.393 51.1h217.606l-4.336 12.046s-8.333 23.283-25.164 46.664C318.472 414.277 292.167 439.09 256 439.09c-36.167 0-62.472-24.812-79.303-48.193-16.83-23.38-25.164-46.664-25.164-46.664zM218 350.137v32h32v-32z"></path></svg>