<svg stroke="currentColor" fill="currentColor" stroke-width="0" viewBox="0 0 512 512" height="1em" width="1em" xmlns="http://www.w3.org/2000/svg"><path d="M295.2 24.44c-65.6.74-123.5 49.54-142.3 103.66 11.8 1.9 23.5 3.6 35.2 4.6-12.2 2-24.4 4.2-37.9 4.4-16.1 10.6-11.7 21.5-3.3 32.1 28.4 4.5 59.5-.3 90.7-4.9-27.1 11-55.3 20.1-87.9 21.8 18.8 8.9 37.9 48.5 17.7 63.8 2.1 1 12.3 25.5 14.6 25.9 19.1 3.1 41.2-27.6 47.6-53.4 6.7-18.1 19.2-32 35.2-29.4 59.6 9.8 151.6-28.6 183.4-78.2 3.9-3.2 10.2-8.1-.3-13.7-18.8 6.3-38.6 10.3-59.9 11 20.1-6.2 39.2-13.88 57.9-22.84 8.5-16.72-8.4-31.31-24.4-26-31 25.57-65.7 46.74-108.6 58.54 35.8-19.8 67.1-43.21 97.7-69.74.1-7.23-10.2-17.81-27.1-11.13-28.2-11.92-61-16.32-88.3-16.49zM452.9 131c-6.6 34-146.1 93.3-162.2 77.4 0 0 18.7 31.9 12.3 32-7.6 3.9-10.5 6.1-12.6 7.3-4.2-7.4-4.8-21.1-11.3-28.2-13.9-13.4-28.8-2.2-32.2 8.3-7.6 23.4 22.7 64.3 47 56.8l5.8 17.1c-39.4 8.8-61.9-30.6-66.9-57.4-.1 27.2-29.6 41.8-43.6 46.5-2.6 31 6 69.4-19.2 93.7 34.3 52.1 56.4 85.4 136.4 93.3 7.5-26.9 20.3-57.7 55.8-77.7s65.3-12 81.6-32.1c4.4-5.6 7.1-13.2 8.2-22.8l-39-.8.3-18 39.2.8c-.9-15.4-2.7-25.9-5.1-40.4l36.2-.6c-1.4-22.1-12.9-60-30.8-73-2.6.3 16.3-34.4.1-82.2zm-318.2 64.6c-.4-.1-.8 0-1.2 0-19.4 4.6-19.2 31-13.4 42.9 11.2 8.3 36 5.6 43-6.3-1.7-13.5-16.4-36.4-28.4-36.6zm-32.3 31.6C23.64 232.4 1.759 362.5 57.83 369.7c-6.67-35.1 17.91-90.6 59.77-118.1-3.9-.9-18.42-19.7-15.2-24.4zm53.5 27.8c-3.3 4.1-23.7 4.5-29.9-.5-59.88 57.1-28.61 146-10.1 181.9 5.2-28.1 56.6-106.9 40-181.4z"></path></svg>