<svg stroke="currentColor" fill="currentColor" stroke-width="0" viewBox="0 0 512 512" height="1em" width="1em" xmlns="http://www.w3.org/2000/svg"><path d="M413.3 24.08c0 6.53-.1 12.93-.4 19.21 1.4-.1 2.7-.14 4-.16 9.6-.18 18.4 1.19 26.7 3 1.5-5.65 3.5-11.64 6.2-18.04-12.8.74-24.9-.74-36.5-4.01zm4 37.02c-1.7 0-3.5.16-5.4.32-5.4 72.88-26.6 128.38-56.7 171.18-36.5 52.1-85.5 85.2-132.7 109.7-47.1 24.5-92.8 40.7-122.3 57.8-14.85 8.6-25.35 17.3-30.62 26.3-3.3 5.5-4.97 11.3-4.54 18.3l24 8.1C150 440.7 234.3 410 304.1 363.7c40.7-26.9 76.6-59 100.5-95.3 24-36.3 36.1-76.3 30.2-120.8l17.9-2.3c6.5 49.1-7.4 94-33.1 133-25.8 39-63.4 72.5-105.6 100.4-70.4 46.7-153.4 77.7-216.76 90.9l-5.85 11c4.42 1.9 9.41 3.4 15.01 4.6 20.8 4.3 48.9 3.6 80.4-2.9 62.6-12.8 138-47.4 197.1-101 54-48.8 92.4-105.9 105-157 12.7-51.3 1.3-95.7-45.3-126.5l-3.8-2.53-.3-4.51c-.4-8.19-.6-17.02.6-26.95-7.5-1.67-14.9-2.84-22.8-2.71zm-25.1 19.03C378.2 134 353.9 174 324.1 203.8c-39.1 39.1-87 60.9-132.2 75.6-45.1 14.8-87.9 23-116.37 33.7-14.21 5.4-24.55 11.4-30.04 17.9-3.21 3.7-5.18 7.5-5.72 12.4l19.73 9.2c48.5-2.6 114.1-14.7 174.8-37.3 39-22.4 77-51.4 106.2-93.1 25.4-36.2 44.5-82 51.7-142.07zm-42.3 59.37c-11.3 10.3-23.2 19.2-35.5 26.7-44.6 27.1-94.3 36.7-140.1 40.7-45.6 4-87.84 2.5-116.91 6.2-14.53 2-25.52 5.3-31.84 9.9-3.46 2.5-5.87 5.1-7.29 8.8l16.6 12c53.87 8.9 132.04 11.1 202.34-2 .6-.1 1.1-.2 1.7-.3 25.9-12.6 50.7-28.7 72.4-50.5 14.4-14.4 27.5-31.4 38.6-51.5zM36.49 262.3l-4.88 3.9c2.64 2 5.63 4 9.02 5.9 12.27 7 28.98 13.1 48.55 17.5 23.12-7 50.32-13.2 78.72-21.5-47.8 2.7-94.23 0-131.41-5.8zm104.31 98c-27.1 5.4-52.87 8.7-75.68 10.1l-4.94 6.3c3.32 1.7 7.05 3.3 11.23 4.7 5.28 1.7 11.19 3.2 17.61 4.3.7-.4 1.4-.8 2.11-1.2 14.27-8.3 31.27-16.1 49.67-24.2z"></path></svg>