<svg stroke="currentColor" fill="currentColor" stroke-width="0" viewBox="0 0 512 512" height="1em" width="1em" xmlns="http://www.w3.org/2000/svg"><path d="M374.827 83.628c-19.941 25.941-37.3 55.202-57.602 76.85 42.07-31.83 93.583-61.062 124.68-95.268l13.316 12.108c-31.93 35.121-79.62 62.941-118.832 91.4 24.9-4.92 53.317-15.804 78.711-29.416 28.019-15.018 52.44-33.554 64.62-49.343 18.238-23.928 15.072-49.637-10.585-62.534-37.377-13.933-78.551 35.944-94.308 56.203zm-46.483-30.511c-15.83 18.366-27.298 40.84-31.347 60.783-3.094 15.234 4.698 28.31 10.292 38.035 11.866-38.953 66.253-75.01 56.731-106.1-9.103-13.062-29.6.445-35.676 7.282zM207.83 78.914c-26.263-.217-53.339 7.404-81.065 29.466 4.166 13.234 13.735 24.44 28.02 33.88-20.135 1.497-38.098-2.434-55.854-6.884a279.777 279.777 0 0 0-7.3 8.764c-29.215 36.546-25.564 84.915-17.325 138.615 1.185 7.72 2.461 15.545 3.739 23.407 17.961 25.841 44.317 44.605 61.146 63.203-19.724-4.433-39.208-9.504-55.289-23.65 3.355 27.477 4.61 55.088-.47 81.699C128.7 408.55 189.608 405.407 248.45 396.33c42.04-6.486 82.47-15.68 115.178-33.94-43.78-4.386-75.77-32.129-96.555-59.123 40.917 15.231 79.213 37.8 125.236 38.733 7.535-6.843 14.328-14.535 20.244-23.22 30.131-44.224 26.828-82.175 8.877-115.259-6.771-12.48-15.831-24.138-26.154-34.73-13.05 5.58-26.335 10.302-39.338 13.843a147.344 147.344 0 0 0 25.03 4.453l-1.622 17.926c-45.97-7.973-118.646-29.566-129.441-96.715l17.496 4.225c2.818 6.044 6.36 12.536 9.969 17.42.117-11.614 2.105-22.155 5.32-32.373-18.786-8.362-38.644-15.175-58.998-17.617a142.936 142.936 0 0 0-15.863-1.04zm26.185 129.697c32.463 23.194 112.594 55.792 153.52 67.265-61.147 10.412-150.872-7.51-153.52-67.265zM68.64 390.179c-11.983 8.343-19.348 15.435-39.812 19.483l3.492 17.656c15.958-3.157 26.524-8.699 35.037-14.291.864-7.467 1.262-15.092 1.283-22.848zm46.737 45.797c-7.106 1.874-13.862 3.946-20.182 6.281-3.208 11.702-7.301 22.361-16.59 32.729l13.406 12.01c15.115-16.871 19.42-35.009 23.366-51.02zm-52.604.672c-15.72 7.943-30.074 19.765-42.064 36.451l14.615 10.504c5.82-8.101 12.11-14.705 18.844-20.133 2.708-8.829 6.176-18.274 8.605-26.822z"></path></svg>