<svg stroke="currentColor" fill="currentColor" stroke-width="0" viewBox="0 0 512 512" height="1em" width="1em" xmlns="http://www.w3.org/2000/svg"><path d="M77.313 28.438l36.406 51.25L44.874 98.25l34.688 18.53c-37.62 38-62.482 102.735-57.532 198.94V493h147.314v-.188H269.75c-13.74-59.032-15.368-110.625-5.563-149.875-16.954-7.98-25.126-17.362-32.75-30.375 51.348 21.135 127.618 35.582 200.47 18.594-23.227-10.096-47.07-22.578-70.094-37.156-.013-.007-.02-.024-.032-.03-17.996-10.514-34.942-22.247-49.967-36.376-9.385-7.88-18.41-16.142-26.907-24.78 36.074-25.505 77.297-40.297 118.656-46.876-7.72 5.104-15.336 10.82-22.687 16.937-18.272 15.207-34.737 32.736-45.313 50.656 4.9 3.986 10.02 7.785 15.313 11.44 9.017-15.524 24.43-33.122 41.97-47.72 24.26-20.193 52.937-34.698 70.06-35.375h.126c10.89.214 21.608.935 32.064 2.125-10.838-7.647-21.748-14.487-32.72-20.563v-.25c-.145.006-.29.025-.437.032-54.844-30.266-111.23-41.295-168.03-36.72-21.272-24.23-49.025-40.62-78.657-47.875L77.312 28.437zm74.343 107.312c4.67 0 9.16.754 13.375 2.125-8.493 2.716-14.655 10.667-14.655 20.063 0 11.634 9.428 21.062 21.063 21.062 9.84 0 18.122-6.754 20.437-15.875 1.934 4.905 3 10.252 3 15.844 0 23.867-19.35 43.218-43.22 43.218-23.867 0-43.218-19.35-43.218-43.22 0-23.867 19.35-43.218 43.22-43.218z"></path></svg>