<svg stroke="currentColor" fill="currentColor" stroke-width="0" viewBox="0 0 512 512" height="1em" width="1em" xmlns="http://www.w3.org/2000/svg"><path d="m78.62 25.25 2.78 50.8c8.96-6.56 27.6-5.93 38 3.54L82.24 91.44l.64 11.46 26.92-1-26.46 9.5 2.84 51.8-70.07-43.3-.17 47 73.52 53.5 18.34-22.1c1.6 11.1-.7 23.8-15.44 41.8 0 0 6.7 52 3.8 125.3l42.14 4-42.54 5.5c-.4 4.5-.6 8.9-.9 13.5 52.64-15.6 63.94 9.9 63.94 9.9l-65.44 10.3c-2.2 25-5.64 51-10.71 78.1H191c0-75-6.2-122.2-9.2-170.8-22.1 2.8-45.3-1.1-45.3-1.1s12-18 44.4-17.5c-.7-21.5-.7-44 1-69.7l-43.6-4 34.8-4.8c-4.9-33.8-10-65.3-14.7-94.4l-25.3.5 22.4-18.5c-4.9-30.45-9.1-57.73-11.6-81.15zm267.08 0c-.9 10.31-1.8 20.4-2.4 30.29 17.6-12.7 39 11.56 39 11.56s-20.5 19.36-40.2 6.77v.2c-1.3 20.97-2.2 41.93-3 62.83-.8 19.8-1.4 39.5-2.3 59.2-.5 11.5-1.1 22.9-1.7 34.5 14.2 5.4 28.8 10.6 43.1 15.8l-44.6 7.5c-3.1 43.5-8.3 89.2-18.3 140.9l49.2 13.8-52.6 3.1c-4.9 22.9-10.8 47.9-17.9 75h123.1c.1-8.3.1-15.6.3-22.9l-16.8-5.2s7.1-7.3 17.1-12.5c1.1-41.8 3.5-77 6.6-106.8l-37.4-7.8 38.3-.8c.3-3.3.8-6.6 1.2-9.8-21.3.6-43.6-9.3-43.6-9.3s18-22.8 45.7-7c12.4-88.4 30.7-115.1 30.7-115.1l-48 59.3c-.5-16.3 5.7-40.2 22.6-56.8-3.5-15.4-4.9-33.7-5.1-52.5l-25.5-5.7 25.5-3.3c0-3.9.1-7.7.3-11.6l-42.1 4.6s16.8-26.26 42.6-18.1c2.5-42.99 9.1-80.15 9.1-80.15zM216.5 34.1l7.9 49.76-52-37.06 7.9 21.34c81.1 51.66 107.4 86.96 136.5 125.06l1.2-47.1s-54.9-9.4-101.5-112zm279.6 23.94-45.9 24.21-2.1 31.95 47.3-35.92zM141.2 236.3c6.1-.1 13.2 1.2 21.1 5-12.3 18.3-45.2 4.7-45.2 4.7 7.8-6 14.4-9.4 24.1-9.7zm220.4 132.1c8.8-.2 17.8 4.1 25.3 17.2-15.6 9-29.9 8.9-40.2 6.5-10.3-2.3-16.7-6.9-16.7-6.9s15.1-16.4 31.6-16.8zm-212.3 76.4c8.1-.3 17.1 3.1 26 13.8-23.1 11.4-53.6 1-53.6 1 9.4-7.9 15.4-14.4 27.6-14.8z"></path></svg>