<svg stroke="currentColor" fill="currentColor" stroke-width="0" viewBox="0 0 512 512" height="1em" width="1em" xmlns="http://www.w3.org/2000/svg"><path d="M214.02 19.115l-.02.06c38.033 14.387 73.867 34.09 106.393 58.446L368.02 158.4C292.254 72.063 181.72 20.678 64.66 20.604c-14.96-.01-30.027.834-45.14 2.535v18.8c108.174-12.774 213.91 21.292 293.527 88.554l42.314 97.416C290.887 132.486 182.425 73.885 66.395 73.21c-2.45-.013-4.9-.002-7.357.036-13.106.2-26.297 1.157-39.522 2.87v18.85c98.998-13.552 196.12 18.532 267.11 82.264l30.708 87.82C263.412 179.47 168.852 126.394 67.348 125.36c-15.818-.162-31.804.958-47.83 3.398v18.914c93.33-15.18 185.38 18.05 247.677 83.27l20.694 83.917C246.555 230.42 160.67 176.716 67.7 175.423c-1.256-.018-2.514-.025-3.774-.024-14.688.02-29.54 1.36-44.408 4.084v19.036c89.513-17.794 178.655 19.16 230.357 89.468l4.62 73.348c-28.973-83.013-107.888-136.692-193.257-135.87-13.8.132-27.768 1.693-41.72 4.78v19.188c77.22-18.904 155.333 13.983 197.095 77.14l5.873 57.49c23.33-6.283 47.534-13.218 68.727-20.873 19.194-6.93 35.884-14.525 46.596-22.038 5.354-3.756 9.142-7.478 11.174-10.574 2.033-3.096 2.47-5.184 2.098-7.59l-1.252-8.123 137.074-39.556C446.897 159.92 363.67 69.964 260.654 19.114H214.02zm278.86 273.922l-40.196 11.6c1.63 18.66-4.666 36.567-16.397 52.043-14.18 18.707-35.934 34.627-62.363 48.257-45.23 23.33-104.45 39.877-164.397 47.97l4.38 16.35c68.63-7.66 143.34-22.038 198.17-48.538 30.517-14.75 54.633-33.123 68.722-55.33 12.74-20.084 17.775-43.384 12.08-72.353zm-58.513 16.885l-65.027 18.765c-.736 4.345-2.345 8.51-4.733 12.147-3.925 5.98-9.462 10.986-16.068 15.62-13.213 9.266-30.996 17.098-50.978 24.316-31.927 11.53-68.41 20.998-99.558 29.134l6.644 24.79c59.027-7.79 117.64-24.153 160.71-46.366 24.828-12.805 44.388-27.573 56.037-42.94 8.804-11.614 13.283-23.135 12.972-35.466zm-261.754 77.43l-33.033 8.85 8.197 30.59c10.812 3.95 18.623 14.38 18.623 26.485 0 6.87-2.52 13.2-6.673 18.114l4.716 17.6 33.034-8.85-24.864-92.788zM138.22 443.79c-1.49 0-2.88.33-4.12.91l-75.6 20.255c2.926 4.706 4.625 10.24 4.625 16.14 0 .67-.03 1.33-.072 1.987l75.96-20.352c4.96-.386 8.698-4.37 8.698-9.453 0-5.35-4.138-9.488-9.49-9.488zM32.327 468.985c-6.798 0-12.11 5.312-12.11 12.11 0 6.798 5.312 12.11 12.11 12.11 6.798 0 12.111-5.312 12.111-12.11 0-6.798-5.313-12.11-12.11-12.11z"></path></svg>