<svg stroke="currentColor" fill="currentColor" stroke-width="0" viewBox="0 0 512 512" height="1em" width="1em" xmlns="http://www.w3.org/2000/svg"><path d="M216.012 36.703c-6.348.01-13.056.447-20.006 1.32-34.6 4.347-75.144 19.348-107.408 47.303l33.47 190.197.33 10.1c42.262 15.79 100.808 24.565 152.873 24.272 27.192-.154 52.657-2.762 72.982-7.8 20.325-5.04 35.188-12.803 41.803-20.917l.433.353c-14.317-48.847-60.635-88.597-135.474-56.27-12.09 5.612-24.333 12.902-36.332 21.685 11.24-16.29 23.786-29.055 36.76-38.453l.013-.12-27.066-14.183-35.343 25-10.793-15.256L209.8 184.45l-27.5-14.41 8.67-16.554 35.964 18.842 34.57-24.457 1.62-16.186-30.2-17.918-35.16 22.433-10.05-15.757 27.208-17.36-27.97-16.595 9.538-16.072 36.08 21.408 37.088-23.664c1.453-20.61-21.48-31.51-53.646-31.457zm51.082 55.262l-16.522 10.54 14.602 8.665 1.92-19.205zm-8.053 80.54l-13.517 9.563 11.936 6.254 1.58-15.816zm135.57 129.91c-10.84 8.135-25.243 13.7-41.86 17.82-22.375 5.546-49.07 8.188-77.373 8.347-21.232.12-43.344-1.15-65.117-3.76l12.463 22.137c80.16 9.438 141.51-1.205 172.035-21.796.718-7.44.658-15.098-.15-22.75zm-271.553 3.312l.996 30.464 58.595 8.456 9.58-22.312c-24.54-3.827-48.202-9.383-69.17-16.607zm-33.13 21.56c-2.51.75-4.906 1.515-7.175 2.3H35.236l24.928 11.085-44.28 25.63 45.677-4.822c2.33 1.773 5.212 3.498 8.62 5.166l-29.19 44.532 64.785-32.977c4.21.968 8.64 1.892 13.27 2.773l-10.733 66.783 61.413-59.744c5.432.527 10.985 1.008 16.67 1.435l11.673 77.528 50.93-75.073c2.03.013 4.05.034 6.096.034 2.436 0 4.85-.022 7.265-.04l56.216 76.782 6.903-79.364c5.663-.437 11.218-.92 16.625-1.457l60.782 59.9-10.762-66.976c4.528-.872 8.86-1.787 12.98-2.743l65.102 33.14-29.437-44.913c3.135-1.58 5.808-3.21 7.984-4.88l46.562 4.915-44.253-25.613 24.966-11.1h-48.592c-2.223-.77-4.564-1.52-7.016-2.253 5.408 3.254 8.34 6.724 8.34 10.326 0 18.587-77.737 33.652-173.627 33.652-95.89 0-173.627-15.065-173.627-33.652 0-3.62 2.96-7.105 8.418-10.373z"></path></svg>