<svg stroke="currentColor" fill="currentColor" stroke-width="0" viewBox="0 0 512 512" height="1em" width="1em" xmlns="http://www.w3.org/2000/svg"><path d="M364.2 78.46l-61.7 74.74-18.7-56.06-20.6 56.06c2.4 1.3 4.8 2.7 7.2 4-15.9 1.1-32.2 5.8-48.3 14.7 142.1 0 224.3 149.5 119.6 261.6 17.1-11.6 30.8-24.5 41.5-38.1-.1.3-.2.5-.3.8l54.2 18.6-26.2-56h67.3L424 321.4l69.1-37.4-71-18.7 67.3-74.7-89.7 18.7 46.7-93.5-91.6 56.1zM139 102.7c-1.6 0-3.4.7-6 2.2l-2 1.1h-2.3c-38.05 0-78.77 16.3-109.11 68.8-2.93 24.6 3.45 35 11.59 48.5 7.41 12.4 16.35 27.4 16.85 51.8 22.72-.4 52.37-3.6 82.27-31.7l-20.7-115 71.7 67.2c4.2-5.1 8.6-8.8 11.9-11.7 3.3-2.9 5.5-5 7-8-19.1-12.4-30-34.4-40.1-50.8-5.6-9.1-11-16.5-15.2-19.7-2.2-1.6-3.6-2.6-5.3-2.7zm-2.4 75.3l12.9 71.6-3.3 3.3C127 272.1 107 282 88.73 287.2L138 358.8l28.1 56c10.1 4.6 27.7 3.5 48.4-1.5l-3.6-35.8 33.3 26.6c59.1-21.7 126.1-65.4 123.7-101.4-24.3-51.9-86.9-103.8-139.1-51.9-14.2 16.5-22.3 34.9-30.5 67.4 1.7-32.8 1.9-51.3 12-67.9l-17-41.2c-.9 1.2-1.7 2.6-2.5 4.2l-5.3 10.6z"></path></svg>