<svg stroke="currentColor" fill="currentColor" stroke-width="0" viewBox="0 0 512 512" height="1em" width="1em" xmlns="http://www.w3.org/2000/svg"><path d="M179 121.563c-12.274 0-22.25 9.944-22.25 22.218 0 12.275 9.976 22.25 22.25 22.25s22.22-9.975 22.22-22.25c0-12.273-9.946-22.218-22.22-22.218zm163.125 0c-12.274 0-22.22 9.944-22.22 22.218 0 12.275 9.946 22.25 22.22 22.25s22.22-9.975 22.22-22.25c0-12.273-9.946-22.218-22.22-22.218zm-85.156 62.312c-23.045 0-33.798 12.104-47.44 29.188-13.64 17.083-28.726 38.97-57.31 48.593-13.173 4.435-18.553 11.14-20.876 19.97-2.324 8.827-.713 20.65 4.53 32.937 10.488 24.57 35.417 49.49 57.157 55.906 42.063 12.412 84.4 12.683 127.94 0 28.555-8.322 49.03-32.707 56.5-56.72 3.733-12.007 4.11-23.718 1.374-32.78-2.738-9.064-7.992-15.624-17.625-19.533-27.88-11.31-43.253-32.79-57.19-49.437-13.934-16.646-24.976-28.125-47.06-28.125zM66.905 214.28C7.44 271.357 3.186 341.1 64.28 390.845c52.883 43.054 111.193 30 143.314 2.562-6.635-1.387-13.253-3.055-19.844-5-21.202-6.257-40.77-22.238-54.875-41.656-51.514 4.825-93.266-52.765-65.97-132.47zm378.813 0c26.9 78.553-13.272 135.643-63.75 132.657-12.593 18.7-31.603 34.424-55.783 41.47-7.003 2.04-13.984 3.767-20.968 5.187 32.17 27.31 90.363 40.206 143.124-2.75 61.096-49.746 56.84-119.488-2.625-176.563zM230.06 228.063c.314.013.62.048.907.125 18.405 4.934 26.124 123.375-32.782 123.375-57.986 0 12.113-124.317 31.875-123.5zm52.75 0c19.762-.817 89.83 123.5 31.844 123.5-58.906 0-51.156-118.44-32.75-123.375.288-.077.593-.112.906-.125z"></path></svg>