<svg stroke="currentColor" fill="currentColor" stroke-width="0" viewBox="0 0 512 512" height="1em" width="1em" xmlns="http://www.w3.org/2000/svg"><path d="M161.22 19.563l-2.5 5.375-106.44 225.5-1 2.093c-24.493 28.208-34.917 58.587-33.593 88.19 1.38 30.852 15.12 60.388 36.376 86.81l2.812 3.5h49.72c4.817-3.836 8.93-7.817 12.405-12.03 1.758-2.132 3.38-4.358 4.875-6.656H65.97c-17.813-23.187-28.526-47.848-29.626-72.438-1.123-25.11 7.337-50.594 29.937-76.125H498.157l-5.25-12.874-91.844-225.5-2.375-5.843H161.22zm11.843 18.687h177.343l52.656 41.594 38.407 94.28-58.845 70.94H75.47L173.062 38.25zM75.156 282.625c-15.31 18.98-20.975 37.778-20.125 56.438.84 18.398 8.276 36.95 20.5 54.468h57.19c4.392-13.517 6.344-29.847 6.78-50.436h-16.188v-18.688h16.313v-.187h115.749v.186h17.156v18.688h-17.25c-.287 17.8-1.447 34.638-4 50.437h221.626c-9.034-36.872-9.112-74.006-.03-110.905H75.155zm83 60.28c-.77 37.698-6.46 65.83-24.72 87.97-14.595 17.7-36.19 30.747-67.28 42.813 8.69 1.658 17.214 3.225 26.53 5.25 14.048 3.052 27.912 6.338 39.033 9.25 5.56 1.455 10.44 2.826 14.374 4.062 1.94.61 3.533 1.074 5.03 1.625 35.245-13.464 55.78-32.897 68.345-58.72 11.944-24.55 16.287-55.713 16.936-92.25h-78.25zm89.25 69.44c-1.632 6.425-3.532 12.668-5.812 18.686h257.03v-18.686H247.407z"></path></svg>