<svg stroke="currentColor" fill="currentColor" stroke-width="0" viewBox="0 0 512 512" height="1em" width="1em" xmlns="http://www.w3.org/2000/svg"><path d="M207.3 24.39l-93.8 42.65 24.7 26.69c13.6 6.13 23.4 19.97 30.3 35.07 6.3 14 10.3 29.2 7.4 42.7l34.6 37.2c1.8-8.1 2.9-16.1 3.3-23.8l-38-83.5-37.5-30.28 42.5-19.29 13.2-6-1.8 48.18 38 83.39c6 4.7 12.7 9.2 20 13.2l-5.3-50.4c-12-6.8-20.9-19.8-27.2-33.8-6.9-15.03-10.9-31.5-6.6-45.78l-3.8-36.23zm124.6 3.28c-9 0-18.2.99-27.4 2.86 29 10.86 45.5 19.57 56.9 28.83-22.6-1.91-48.4 1.04-71.7 8.71C337.9 70.26 374 72.3 397 106.4l25-34.03c-16.1-28.57-51.2-44.93-90.1-44.7zm-217 67.38C48.03 131.6 36.77 194.7 30.71 254.6c31.96-42.2 50.37-92.8 123.09-114.4-.5-1.3-1.1-2.7-1.7-4-2.5-5.5-5.7-10.6-9-14.8-24.2 12.5-48.05 25.3-63.87 37.5 8.32-14.8 26.27-34.3 47.37-51.3l-11.7-12.55zM445 113.5l-26.7 24.7c-6.2 13.6-20 23.4-35.1 30.3-14 6.3-29.2 10.3-42.7 7.4l-37.2 34.6c8.1 1.8 16.1 2.9 23.8 3.3l83.5-38 21.1-26.1 9.1-11.4 25.4 55.7-48.3-1.8-83.3 37.9c-4.7 6.1-9.2 12.8-13.2 20.1l50.4-5.3c6.8-12.1 19.8-20.9 33.8-27.2 15-6.9 31.5-10.9 45.7-6.6l36.3-3.8-42.6-93.8zm-214.6 86.2c-3.9 28.3-15 58-30.7 81.9 28.3 3.9 58 15 81.9 30.7 3.9-28.3 15-58 30.7-81.9-28.3-3.9-58-15-81.9-30.7zm12.4 27.2l42.3 15.9-15.9 42.3-42.3-15.9 15.9-42.3zm-52.1 34.8l-50.5 5.3c-6.8 12.1-19.8 20.9-33.8 27.2-15.06 6.9-31.54 10.8-45.83 6.5l-36.22 3.8 42.56 93.8 26.72-24.7c6.15-13.6 20.07-23.4 35.07-30.2 14-6.4 29.2-10.3 42.7-7.5l37.2-34.4c-8.2-1.8-16.3-2.9-23.9-3.3l-83.2 37.7-30.48 37.6-19.24-42.4-6.02-13.2 48.05 1.8 83.79-38c4.7-6 9.1-12.8 13.1-20zm110.8 41.6c-1.8 8.1-2.9 16.1-3.3 23.8l38 83.4 37.5 30.3-55.7 25.4 1.7-48.3-37.9-83.3c-6-4.8-12.7-9.2-20-13.2l5.3 50.4c12.1 6.8 20.9 19.8 27.2 33.8 6.9 15 10.9 31.5 6.6 45.7l3.8 36.3 93.8-42.6-24.7-26.7c-13.6-6.2-23.4-20-30.3-35.1-6.3-14-10.3-29.2-7.4-42.7l-34.6-37.2zm188.4 27.8c-20 68-40.4 77.9-79.8 87.3 14-15.7 27.6-40.2 40.5-76.3-31.5 41.6-51.7 53.8-75.6 55.3 2.7 2.5 5.2 4.3 7.3 5.1l2 .7 31.7 34.1 4.7 2.9c32.1-8.9 71.7-26.8 69.2-109.1zM126 388l-24.8 34.1c19.9 35 91.7 51.4 132.7 45-68.1-25.2-82.6-42.4-107.9-79.1z"></path></svg>