<svg stroke="currentColor" fill="currentColor" stroke-width="0" viewBox="0 0 512 512" height="1em" width="1em" xmlns="http://www.w3.org/2000/svg"><path d="M141.977 56.943c-.635.004-1.27.02-1.905.053-2.903.145-5.805.58-8.7 1.326-28.33 7.294-56.425 29.248-77.058 57.844-20.632 28.596-33.67 63.593-33.554 95.455.06 16.533 6.94 27.84 18.886 36.927 7.29 5.544 16.59 9.97 27.032 13.23-1.023-14.32-.482-29.776 3.957-42.71l16.844 5.783c-15.886 57.862 18.713 102.134 69.65 142.007-2.305-28.866 2.355-59.986 15.7-91.345-1.265-7.76-1.14-16.392.57-25.664 4.65-25.21 20.01-56.115 49.88-93.414l14.59 11.68c-28.65 35.777-42.302 64.575-46.09 85.122-3.79 20.548 1.342 31.848 10.048 38.176 8.706 6.328 23.24 8.047 40.315 2.526 17.073-5.522 36.13-18.136 52.42-38.405 40.154-49.957 56.8-91.026 58.064-120.484 1.265-29.46-11.115-47.414-32.752-56.937C276.602 59.067 191.21 80.82 119.7 162.938l-14.095-12.272c26.81-30.786 55.632-54.11 84.143-70.29-15.18-14.578-31.464-23.538-47.77-23.433zm230.76 85.89c-.65-.005-1.303.005-1.956.01-3.553 34.283-22.66 75.888-61.65 124.397-18.358 22.844-40.163 37.666-61.237 44.48-21.075 6.816-41.974 5.77-57.053-5.19-2.737-1.99-5.203-4.298-7.387-6.887-20.753 63.805-2.12 122.793 34.906 158.587 25.613 24.76 60.005 38.354 97.472 34.727 37.467-3.627 78.5-24.527 116.943-70.998 84.462-102.102 71.214-199.61 19.823-247.646-21.08-19.702-48.703-31.302-79.862-31.482z"></path></svg>