<svg stroke="currentColor" fill="currentColor" stroke-width="0" viewBox="0 0 512 512" height="1em" width="1em" xmlns="http://www.w3.org/2000/svg"><path d="M215.2 24.13c-.505.02-1.22.143-2.165.378h-.002c-20.152 5-132.385 52.22-134.738 94.728-2.353 42.51 81.636 64.576 125.324 75.315 43.687 10.74 60.602-8.53 49.423-32.36-11.18-23.83-84.137-28.537-94.14-62.958-9.532-32.807 66.59-75.5 56.298-75.1zm87.593 10.12c-5.402.094-10.28 1.096-14.447 3.203v-.002c-38.1 19.27-15.002 102.82-2.352 145.92 12.65 43.1 37.95 47.953 52.953 26.478s-17.8-86.492 7.06-112.38c24.86-25.887 106.792 23.83 92.378 8.827-12.838-13.362-91.602-72.812-135.592-72.045zm143.68 138.74c-35.658.516-83.103 48.973-109.29 76.278-31.04 32.36-22.655 56.044 3.528 58.25 26.184 2.205 66.342-58.103 101.202-49.424 34.86 8.68 32.51 104.143 38.244 84.136 5.736-20.005 20.444-140.91-15.297-164.156-5.586-3.63-11.784-5.18-18.387-5.084zm-415.54 2.336c-.443.013-.92.873-1.472 2.748-5.884 20.004-21.034 140.77 14.71 164.158 35.744 23.39 97.082-38.244 128.266-70.605 31.183-32.36 22.653-56.483-3.53-58.838-26.182-2.356-66.34 58.102-101.2 49.423-31.594-7.865-32.503-87.007-36.774-86.887zm223.71 44.438c-22.517 0-40.77 18.232-40.77 40.722 0 22.49 18.253 40.72 40.77 40.72 22.516 0 40.77-18.23 40.77-40.72s-18.254-40.722-40.77-40.722zm-64.108 78.61c-7.227.118-14.24 4.564-19.865 12.673-15.003 21.623 17.36 86.64-7.65 112.38-25.006 25.742-106.79-24.418-92.375-9.413 14.414 15.005 111.938 88.697 150.037 69.43 38.098-19.27 14.858-103.41 2.353-146.508-7.815-26.938-20.455-38.76-32.5-38.563zm93.24 24.34c-27.113-.31-36.284 16.04-27.2 35.403 11.18 23.83 83.696 28.39 93.552 62.957 9.856 34.567-74.283 80.314-54.13 75.313 20.15-5 132.384-52.66 134.737-95.317 2.353-42.656-81.785-64.574-125.326-75.312-8.164-2.014-15.376-2.974-21.633-3.045z"></path></svg>