<svg stroke="currentColor" fill="currentColor" stroke-width="0" viewBox="0 0 512 512" height="1em" width="1em" xmlns="http://www.w3.org/2000/svg"><path d="M255.406 25.25c-53.57 0-90.066 33.57-115.156 81.75-23.194 44.54-34.806 100.79-37.063 148.22 26.123 2.757 45.766 14.07 58.126 29.936 12.692 16.293 17.88 36.347 18.468 55.72 9.407 5.46 19.76 10.03 30.69 13.062h.03c14.85 4.12 30.2 6.435 45.656 6.437 15.73.002 31.35-1.854 45.188-5.844 7.06-2.034 13.7-5.864 20.75-10.124.093-20.396 6.206-41.224 19.406-58 12.854-16.336 32.718-28.246 58.063-31.156-.64-49.996-10.638-106.593-32.5-150.625C343.568 57.31 308.635 25.25 255.406 25.25zM193.25 143.063c17.563-.287 33.737 10.977 39.094 28.343-28.23 12.215-48.326 30.26-54.688 48.344-10.918-4.715-19.433-13.754-22.75-26.094-5.765-21.452 6.984-43.44 28.5-49.187 3.286-.88 6.592-1.355 9.844-1.407zm121.656 0c.546-.014 1.108-.01 1.656 0 3.253.052 6.558.528 9.844 1.406 21.516 5.745 34.266 27.734 28.5 49.186-3.315 12.34-11.832 21.38-22.75 26.094-6.36-18.085-26.458-36.13-54.687-48.344 5.188-16.823 20.515-27.927 37.436-28.344zm-61.094 65.718c14.73 0 24.193 78.65 31.97 117.97-13.414-4.58-26.956-12.172-31.5-33.78-4.55 21.633-16.33 28.29-32.407 33.78 5.754-39.32 17.235-117.97 31.938-117.97zM46.375 331.407C9.583 331.053 3.903 395.39 66.78 406.28c-72.944 1.354-52.437 85.506 0 61.908 47.74-21.483 90.994-35.076 133-41.344l11.407-24.438 10.188 21.844c7.45-.672 14.887-1.132 22.313-1.344l9.562-20.5 9.563 20.47c7.28.174 14.584.58 21.906 1.187l10.092-21.657 11.188 24c45.318 6.223 92.342 20.365 145.094 41.78 49.435 20.07 62.43-57.17 0-59.873 60.048-6.45 42.832-88.05 0-71.032-45.525 18.088-85.473 32.16-122.844 40.97l-11 23.563-8.656-19.407c-8.595 1.626-17.09 2.993-25.5 4l-9.313 19.97-8.56-18.313c-7.857.517-15.662.704-23.47.625l-8.25 17.687-8.53-18.313c-9.46-.633-18.937-1.703-28.5-3.28l-7.94 17.03-9.56-20.468c-34.953-7.84-71.42-22.163-112.19-44.063-7.52-4.04-14.385-5.816-20.405-5.874zm273.813 118.25c-45.352 13.05-91.374 15.045-137.22.594v32.438c45.794 14.123 91.237 13.55 137.22-.063v-32.97z"></path></svg>