<svg stroke="currentColor" fill="currentColor" stroke-width="0" viewBox="0 0 512 512" height="1em" width="1em" xmlns="http://www.w3.org/2000/svg"><path d="M253.97 17.375c-103.018 0-188.532 105.858-188.532 238.813 0 55.877 15.12 106.972 40.28 147.437 42.148 18.042 95.884 27.67 149.75 27.72 51.97.047 103.873-8.805 145.438-25.658 25.932-40.785 41.563-92.667 41.563-149.5 0-132.954-85.484-238.812-188.5-238.812zm1.75 18.75c80.747 0 146.03 65.252 146.03 146s-65.283 146.03-146.03 146.03c-80.75 0-146-65.282-146-146.03s65.25-146 146-146zm-.345 19.563l-4.72 2.718-41.936 24.282 21.968 37.78c-5.85 2.394-11.28 5.59-16.157 9.47l-22-37.875-41.218 23.843-4.687 2.72.03 5.405.157 48.782h43.22c-.424 3.037-.657 6.13-.657 9.282 0 3.196.222 6.33.656 9.406h-43.155l.156 48.156v5.375l4.626 2.69 41.188 24 21.75-37.44c4.876 3.87 10.31 7.053 16.156 9.44L209 281.124l42.375 24.72 4.688 2.75 4.687-2.72 41.97-24.28-22-37.845c5.846-2.382 11.277-5.572 16.155-9.438l22.03 37.907 41.22-23.845 4.656-2.72v-5.405l-.155-48.75h-43.188c.435-3.076.688-6.21.688-9.406 0-3.152-.233-6.246-.656-9.28h43.092l-.156-48.22v-5.344l-4.625-2.688-41.155-24-21.72 37.344c-4.87-3.866-10.285-7.05-16.124-9.437l21.69-37.345-42.408-24.72-4.687-2.718zm-86.22 278.75c18.365 0 33.157 14.84 33.157 33.5s-14.792 33.53-33.156 33.53c-18.364 0-33.125-14.87-33.125-33.53 0-18.66 14.762-33.5 33.126-33.5zm165.532 0c18.365 0 33.125 14.84 33.125 33.5s-14.76 33.53-33.125 33.53c-18.364 0-33.156-14.87-33.156-33.53 0-18.66 14.793-33.5 33.158-33.5zm-208.687 97c11.517 13.484 24.36 25.147 38.22 34.687l-7.095-26.375c-10.68-2.355-21.077-5.124-31.125-8.313zm254.594 1.53c-8.895 2.675-18.044 5.03-27.406 7.063L346.75 464c12.174-8.752 23.526-19.176 33.844-31.03zm-203.03 10.75l9.592 35.782c11.34 5.465 23.184 9.572 35.406 12.188l-5.062-43.125c-13.51-1.048-26.87-2.656-39.938-4.844zm155.217.22c-10.152 1.668-20.503 2.99-30.936 3.968l-4.813 40.813c9.134-2.722 18.008-6.313 26.595-10.658l9.156-34.125zm-49.905 5.343c-9.106.492-18.26.76-27.406.75-6.36-.005-12.72-.128-19.064-.374l5.313 44.844c4.052.333 8.135.53 12.25.53 8.026 0 15.935-.656 23.718-1.905l5.187-43.844z"></path></svg>