<svg stroke="currentColor" fill="currentColor" stroke-width="0" viewBox="0 0 512 512" height="1em" width="1em" xmlns="http://www.w3.org/2000/svg"><path d="M233.2 25.36c-57-.02-109.1.58-119.7 2.23C61.74 35.66 35.44 154.9 80.21 155.9c-20.75 110.9-24.36 222.6-17.9 332.9 105.49 6.7 281.39 13.4 386.89 2.2 3.5-107.7 4.3-217.4-30.8-328.5 53.3-9.6 20.4-131.04-18.8-134.9-11.8-1.16-93.2-2.22-166.4-2.24zM126.6 57.8c1.5-.09 3.2.56 4.7 2.21 6.1 6.68 5.3 23.36 0 24.89-3.4.93-10.8-6.89-12.1-13.01-1.4-6.86 2.7-13.82 7.4-14.09zm201.5 31.11c5.7.25 11.9 12.69 10.3 19.89-1.3 5.3-8.7 8.4-12.1 5.3-5.3-4.9-6.1-22.06 0-24.86.6-.25 1.2-.36 1.8-.33zm83.2 35.99c3.8 0 5 6 1.8 10.7-5.3 7.7-20.9 15.6-22.1 10.1-1.2-5.4 12.8-19.4 19.5-20.7.3-.1.5-.1.8-.1zm-252.5 15.3c.8 0 1.5.1 2.3.4 7.6 2.9 15.2 17.4 9.5 21-5.7 3.5-19.5-6.8-20.7-13.9-.5-3.7 3.8-7.3 8.2-7.5h.7zm76.6 54.8c.5 0 1 .1 1.4.3 6.1 2.8 5.3 20 0 24.9-3.4 3.1-10.8 0-12.1-5.3-1.6-7.2 4.6-19.7 10.3-19.9h.4zm136.9 9.4c.5 0 1 .1 1.5.4 5.2 3.5 4.5 25.2 0 31.4-2.8 3.9-9.1 0-10.1-6.7-1.5-9.2 3.8-24.8 8.6-25.1zm-196.7 51.5c.4 0 .9.1 1.3.3 6.1 2.8 5.3 20 0 24.9-3.4 3.1-10.8 0-12.1-5.3-1.6-7.2 4.6-19.7 10.3-19.9h.5zm227.1 28.9c6.5.1 15.6 12.5 14.8 19.3-.6 4.5-8.3 6.9-12.7 3.7-6.5-4.9-9.8-20.9-3.4-22.8.4-.1.8-.2 1.3-.2zm-103.9 9.9c7.3.1 17.6 9.2 17.7 15.2 0 4.3-8.2 8-13.5 5.8-8-3.3-13.9-17.6-7.1-20.5.9-.4 1.9-.5 2.9-.5zm-166.3 46c2.4-.1 4.4.3 5.5 1.2 4.1 3.6-10.2 13.5-19.4 14.5-6.1.5-11-4-8.1-7.5 3.3-3.9 14.7-8 22-8.2zm149.7 49.2c4.4.3 9.2 14.5 7.9 22.8-1 6-6.6 9.6-9.2 6-4-5.6-4.6-25.2 0-28.4.4-.3.9-.4 1.3-.4zm-173.9 44.3c1.5 0 2.9.4 3.8 1.6 4 5.4-5 20.1-12 21.9-4.43 1.1-9.45-5.2-8.05-10.5 1.77-6.2 10.55-12.9 16.25-13zm316.2 5.6h.6c5.4 0 4.5 16.9-.6 24.9-3.4 5.2-10.8 6.8-12.1 2.3-1.8-6.9 6-26.1 12.1-27.2z"></path></svg>