<svg stroke="currentColor" fill="currentColor" stroke-width="0" viewBox="0 0 512 512" height="1em" width="1em" xmlns="http://www.w3.org/2000/svg"><path d="M160.45 21.785c-50.2.096-98.177 39.404-99.67 103.264h-.003C58.094 239.693 207.683 268.72 254.8 383.163c42.852-114.436 187.95-150.36 190.53-258.115 2.293-95.77-96.364-127.004-160.037-80.736l39.533 114.553-44.945-11.256 26.802 109.964-89.325-149.008 52.3 5.848-50.92-73.105c-17.913-13.358-38.275-19.563-58.288-19.525zM105.3 331.24c-51.466 16.674-84.68 41.936-84.68 69.955 0 50.166 104.813 91.108 234.19 91.106 129.374 0 234.19-40.94 234.19-91.105 0-28.02-33.215-53.28-84.682-69.955 27.147 12.916 43.8 29.23 43.8 47.18 0 41.414-86.502 74.836-193.31 74.836-106.805 0-193.31-33.422-193.31-74.836 0-17.95 16.656-34.264 43.803-47.18zm68.915 13.828c-28.252 9.053-46.72 22.11-46.72 37.418 0 27.24 57.065 49.62 127.314 49.62 70.247 0 127.315-22.38 127.315-49.62 0-15.31-18.47-28.365-46.72-37.418 14.94 7.037 24.527 15.398 24.527 25.217 0 22.488-47.13 40.672-105.123 40.672-57.994 0-105.124-18.186-105.124-40.672 0-9.82 9.59-18.18 24.53-25.217z"></path></svg>