<svg stroke="currentColor" fill="currentColor" stroke-width="0" viewBox="0 0 512 512" height="1em" width="1em" xmlns="http://www.w3.org/2000/svg"><path d="M491.844 22.533l-83.42 14.865L196.572 249.25c3.262 4.815 5.37 10.72 5.37 16.932 0 5.863-1.71 11.35-4.643 15.996-5.065-1.606-10.448-2.477-16.027-2.477-15.724 0-29.904 6.89-39.69 17.796l-9.112-9.113 17.237-17.237c-4.515-5.772-8.907-11.645-13.19-17.6l-19.443 19.44-13.215-13.215 21.828-21.827c-4.403-6.59-8.67-13.278-12.792-20.068l-40.802 40.803 58.314 58.314c-1.613 5.075-2.49 10.47-2.49 16.063 0 7.666 1.65 14.96 4.592 21.564l-72.14 72.14-14.56-14.56L21.013 437l14.558 14.56-8.607 8.608 27.246 27.246 8.606-8.61 14.56 14.56 24.798-24.8-14.557-14.556 72.158-72.16c6.586 2.922 13.858 4.562 21.498 4.562 5.593 0 10.988-.877 16.063-2.49l58.363 58.363L296.5 401.48c-6.797-4.127-13.486-8.395-20.068-12.793l-21.83 21.83L241.39 397.3l19.442-19.44c-5.962-4.29-11.835-8.683-17.603-13.194l-17.238 17.238-9.16-9.16c10.905-9.785 17.795-23.965 17.795-39.69 0-5.346-.806-10.51-2.285-15.39 4.703-3.04 10.288-4.817 16.265-4.816 6.21 0 11.776 1.77 16.52 4.955L476.98 105.95l14.864-83.417zm-66.227 53.012l13.215 13.215-191.684 191.68-13.214-13.213L425.617 75.545zM181.273 298.39c19.257 0 34.665 15.41 34.665 34.665 0 19.256-15.408 34.666-34.665 34.666-19.256 0-34.666-15.41-34.666-34.665s15.41-34.666 34.666-34.666z"></path></svg>