<svg stroke="currentColor" fill="currentColor" stroke-width="0" viewBox="0 0 512 512" height="1em" width="1em" xmlns="http://www.w3.org/2000/svg"><path d="M256 18.5c-32.9 0-60.9 16.46-69.2 37.27l-4.3 10.51-9.3-6.48c-7.6-5.31-16.5-9.46-25.8-12.08-18.5-5.12-36.8-3.77-50.98 2.16-14.2 5.93-24.13 16.05-27.71 29.03C64.84 93 69.07 109 81.58 122.9l9.58 10.6-13.7 4c-37.11 11-58.31 33.8-58.41 56 0 13.8 7.8 27.2 22.5 38.5 14.67 11.2 36.17 19.8 61.45 22.8l7.1.8.7 7.1c.4 2.9 1 5.5 2 8v.1c4.3 11.3 14.5 19.5 28.9 23.4 14.3 4 32.5 3.3 50.5-3.6 18.9-7.2 41.6-37.5 47.2-47.8l7.5-14.3 8.1 14c6.3 10.7 27 35 40.6 41.7 14.4 7.1 29.5 8.8 41.9 6.1 12.5-2.6 22-9.3 26.8-19.1 1-2.3 1.8-4.5 2.3-6.6l1.9-7.8 8 .9c5 .5 9.9.8 14.9.8 28.7 0 54.7-8.4 73-21.3 18.2-12.9 28.6-29.9 28.6-48.1 0-26.6-23.2-52.4-61.9-63.8l-16-4.6 12.7-10.8c13.3-11.45 18.3-24.33 16.1-35.45-2.1-10.22-10.1-18.77-23-24.26-12.9-5.51-30.4-7.35-48.8-3.64-12.3 2.51-23.9 7.36-33.2 13.75l-9.4 6.46-4.1-10.6c-8.2-21-36.2-37.66-69.4-37.66zm-13.5 75.44c7.6-.19 14.8 1.35 21.3 4.57 10 5.09 17.7 13.59 23.7 23.79 24.8-14.8 46.3-18.8 64.5-13.1 20.5 6.3 34.8 23.2 46.4 43.7l-15.6 8.8c-10.5-18.5-22.3-31.1-36-35.3-13.8-4.3-31.8-1.3-57.5 16.1l-8.7 5.8-4.6-9.4c-5.9-12.2-12.7-20.5-20.2-24.3-7.6-3.8-16.9-4.3-31.1 1.8l-7-16.6c8.7-3.73 17-5.66 24.8-5.86zm-61.7 65.36c7.9 0 15.2 2.4 21.5 5.9 16.8 9.1 28.2 25.6 33.7 32.3l-14 11.4c-6.3-7.8-16.9-21.7-28.3-28-5.8-3.1-11.2-4.3-17-3.1-6 1.3-13.1 5.4-21.4 15.7l-6.6 8.2-7.1-7.8c-10.2-11.3-20.6-13.2-29.6-11.1-9 2.2-16.53 9.2-19.07 17.6l-17.24-5.2c4.5-14.9 16.88-26.2 32.11-29.9 12.7-3 27.3-.1 40 9.9 8-8.1 16.5-13.1 25-15 2.7-.5 5.4-.9 8-.9zm66.8 104.4c-5.2 7.7-12.1 16.7-20.4 24.7.9 41 3.3 80.8 9.7 114.7l-17.3 4.7c-11-31.2-22.5-63.9-34.7-96.2-16 3.9-31.8 4-45.9.5 25.3 57.6 50 120.4 67.7 163.2 1.7 4.2 7.1 9.1 15.5 12.7 8.4 3.5 19.4 5.5 30.3 5.5 10.8 0 21.6-2.3 29.9-6.5 8.4-4.1 14-9.9 16.7-18.2 19.8-61.9 44.8-119.1 70.7-175.4-7.8 7.3-17.7 12.2-28.5 14.5-6.6 1.4-13.5 1.9-20.6 1.4-13.4 32.7-24.9 65.8-32.1 97.9l-17.8-.9c-4.1-36.6-4.2-78.2-3.2-120.1-7.7-7-14.6-15.1-20-22.5z"></path></svg>