<svg stroke="currentColor" fill="currentColor" stroke-width="0" viewBox="0 0 512 512" height="1em" width="1em" xmlns="http://www.w3.org/2000/svg"><path d="M19.844 18.75v2.72c64.27 50.956 95.31 115.847 89.437 179.25-10.604-55.003-41.756-104.8-89.436-138.907v23.53c55.244 45.177 82.41 114.314 72.97 185.25-.398 2.332-.76 4.664-1.064 7-.085.513-.16 1.02-.25 1.532h.063c-6.553 53.797 11.2 108.566 49.593 156.03 6.405 11.073 13.982 21.804 22.688 32.126C95.248 406.656 59.077 335.534 53.22 262.407c-11.112 83.002 15.11 163.21 90.686 230.22H188.5c.033.028.06.063.094.093h130.47c.032-.03.06-.065.092-.095h43.625c75.578-67.008 101.8-147.217 90.69-230.22-5.75 71.774-40.697 141.62-106.845 201.5 9.558-11.752 17.677-24.018 24.28-36.686 34.1-45.58 49.597-97.276 43.408-148.095-.004-.02.003-.042 0-.063-.405-3.31-.91-6.606-1.5-9.906-9.365-74.246 21.308-146.348 82.312-190.875V55.626c-52.75 34.073-87.21 86.497-98.53 144.844-5.85-64.208 26.103-129.92 92.124-181.126l-.47-.594h-28.063c-72.054 64.343-99.845 149.67-72.5 228.063 2.893 8.292 5.105 16.676 6.657 25.093.005.043.026.083.03.125.44 3.435.933 6.876 1.532 10.314h.03c2.304 19.373 1.12 38.894-3.405 58.156-.044-28.376-6.778-57.15-20.436-85.063-40.06-81.862-20.768-171.425 52.406-236.687h-31.03c-50.145 46.623-66.324 91.56-57.44 151.094-21.488-59.165-19.415-103.58 20.69-151.094H152c40.104 47.514 42.177 91.93 20.688 151.094 8.885-59.535-7.266-104.47-57.407-151.094H83.157c73.174 65.262 92.465 154.825 52.406 236.688-14.898 30.448-21.52 61.915-20.25 92.78-6.146-21.747-8.016-43.91-5.406-65.874.6-3.436 1.123-6.88 1.563-10.313 1.552-8.458 3.78-16.884 6.686-25.217 27.346-78.394-.446-163.72-72.5-228.063H19.844zm234.25 19.688c16.4 0 27.024 6.18 34.72 16.593 7.693 10.413 11.967 25.726 11.967 43 0 18.664-6.886 38.56-15.967 49.5l-10.125 12.22 15.593 2.938c12.522 2.353 21.72 8.774 29.44 19 7.718 10.225 13.572 24.36 17.686 40.687 7.522 29.843 9.135 66.52 9.375 99.344h-23.31l-.814-70.5-18.687.218.967 86.437-7.75 111.625c47.057-43.67 71.99-94.302 76.157-146.313 8.212 61.338-11.15 120.606-67 170.125H295.53v.22h-32.937V333.81h-18.687v139.72H212.624v-.22h-9.655c-55.852-49.52-75.244-108.787-67.032-170.125 4.13 51.56 28.66 101.776 74.937 145.188L203.78 345.72l2.595-94.126-18.688-.53-1.937 70.655h-24.375c.24-32.826 1.885-69.502 9.406-99.345 4.116-16.326 9.97-30.462 17.69-40.688 7.718-10.225 16.915-16.646 29.436-19l15.594-2.937-10.125-12.22c-9.083-10.94-15.97-30.835-15.97-49.5 0-17.274 4.276-32.587 11.97-43 7.694-10.41 18.32-16.593 34.72-16.593z"></path></svg>