<svg stroke="currentColor" fill="currentColor" stroke-width="0" viewBox="0 0 512 512" height="1em" width="1em" xmlns="http://www.w3.org/2000/svg"><path d="M247 23.82v18.71c-50.7 3.94-87.9 40.63-93.2 77.67h204.5C353 83.16 315.7 46.46 265 42.53V23.82zM153.1 138.2v16.3c3.2 1.7 5.9 4.2 7.7 6.8 3.3 4.9 5 10.5 6.1 16.1 2.1 11.4 2.2 20.5 2.2 31.8v71H183v-78l.8-18c2.6-14.8 11.6-26.7 23.2-34.5 8.5-5.7 18.3-9.4 28.6-11.5zm123.3 0c10.3 2.1 20.1 5.8 28.6 11.5 11.6 7.8 20.6 19.7 23.2 34.5l.8 18v78h14v-71c0-10.7.3-22.5 2.2-31.8 1.1-5.6 2.8-11.2 6.1-16.1 1.8-2.6 4.5-5.1 7.7-6.8v-16.3zm-20.4 16c-14.5 0-28.9 3.8-39 10.5-7.6 5-12.8 11.2-14.9 19.5h107.8c-2.1-8.3-7.3-14.5-14.9-19.5-10.1-6.7-24.5-10.5-39-10.5zm-111.3 16.1c-11.9 1.7-26.8 8.9-38 17.5-5.3 4.1-9.79 8.5-12.9 12.4h57.1c-.1-6.5-.5-13.4-1.6-19.2-1.1-3.6-1.7-8.4-4.6-10.7zm222.7 0c-2.6 2.3-4 7.7-4.6 10.7-1.1 5.8-1.5 12.7-1.6 19.2h57c-3.1-3.9-7.5-8.3-12.9-12.4-11.2-8.6-26-15.8-37.9-17.5zM201 202.2v78h9c.8-.7 1.6-1.4 2.4-2 3-2.4 6.2-4.5 9.6-6.3v-34.7c0-8 6-12 12-12s12 4 12 12v27.6c3.2-.4 6.5-.6 10-.6s6.8.2 10 .6v-27.6c0-8 6-12 12-12s12 4 12 12v34.7c3.4 1.8 6.6 3.9 9.6 6.3.8.6 1.6 1.3 2.4 2h9v-78zm-112 16v62h62.1v-62zm272 0v62h62v-62zm-237 7c6 0 12 4 12 12v32h-24v-32c0-8 6-12 12-12zm264 0c6 0 12 4 12 12v32h-24v-32c0-8 6-12 12-12zm-132 57c-14.5 0-24 3.3-32.4 10-8.4 6.7-15.8 17.6-23.5 33l-2.5 5H137v30h238v-30h-60.7l-2.5-5c-7.7-15.4-15.1-26.3-23.5-33-8.4-6.7-17.8-10-32.3-10zm-176 16c-13 0-22.25 6.2-28.97 14.6-3.88 4.9-6.49 10.5-8.12 15.4H119v-16h67.6c2.7-5 5.4-9.7 8.2-14zm237.1 0c2.8 4.3 5.5 9 8.2 14H393v16h76.1c-1.6-4.9-4.2-10.5-8.1-15.4-6.7-8.4-16-14.6-29-14.6zM41 346.2v46h31.89c1.36-3.2 3.34-6.1 5.56-8.6 4.13-4.8 9.31-8.8 14.92-12.1 8.23-4.9 17.13-8.7 25.63-10.4v-14.9zm352 0v14.9c8.5 1.7 17.4 5.5 25.6 10.4 5.6 3.3 10.8 7.3 15 12.1 2.2 2.5 4.2 5.4 5.5 8.6H471v-46zm-265 32c-5 0-16.6 3.4-25.4 8.7-2.74 1.7-5.11 3.5-7.2 5.3h321.2c-2.1-1.8-4.5-3.6-7.2-5.3-8.8-5.3-20.4-8.7-25.4-8.7zm-89.51 32l-10 30H87v-30H71zm66.51 0v78h94.1c.7-28.4 4.6-50.6 12.8-67 2-4 4.4-7.7 7.1-11zm151 0c-13 0-21 5.2-27.9 19-6.3 12.5-10 32.5-10.8 59h77.5c-.6-26.7-3.4-47-9.1-59.2-6.3-13.7-13.8-18.8-29.7-18.8zm39.1 0c2.7 3.3 5 7.1 6.9 11.2 7.7 16.7 10.5 38.7 10.9 66.8H407v-78zm129.9 0v30h58.5l-10-30H441zm-293 11c6 0 12 4 12 12v32h-24v-32c0-8 6-12 12-12zm40 0c6 0 12 4 12 12v32h-24v-32c0-8 6-12 12-12zm168 0c6 0 12 4 12 12v32h-24v-32c0-8 6-12 12-12zm40 0c6 0 12 4 12 12v32h-24v-32c0-8 6-12 12-12zm-355 37v30h62v-30zm400 0v30h62v-30z"></path></svg>