<svg stroke="currentColor" fill="currentColor" stroke-width="0" viewBox="0 0 512 512" height="1em" width="1em" xmlns="http://www.w3.org/2000/svg"><path d="M35.16 145.506C75.983 78.28 175.26 30.66 285.294 30.66c73.18 0 138.768 17.16 198.437 60.093l.464 96.793c-80.92-61.71-181.865-90.673-278.885-53.71 17.84 19.422 28.756 45.353 28.756 73.833 0 60.293-48.87 109.168-109.16 109.168-60.288 0-109.158-48.875-109.158-109.17-.005-23.08 7.168-44.522 19.413-62.162zm89.45 83.374c12.396 0 22.445-10.054 22.445-22.455 0-12.402-10.05-22.456-22.445-22.456-12.396 0-22.456 10.053-22.456 22.455 0 12.4 10.065 22.455 22.456 22.455zm260.892 47.792c-12.402 0-22.45 10.054-22.45 22.456 0 12.4 10.048 22.45 22.45 22.45 12.4 0 22.45-10.05 22.45-22.45 0-12.402-10.054-22.456-22.45-22.456zm89.45 83.374c-40.822 67.226-140.098 114.846-250.13 114.846-73.183 0-138.766-17.16-198.436-60.092l-.463-96.788c80.916 61.704 181.865 90.668 278.88 53.715-17.847-19.428-28.758-45.36-28.758-73.838 0-60.29 48.87-109.16 109.16-109.16s109.164 48.87 109.164 109.16c.004 23.073-7.17 44.51-19.42 62.156z"></path></svg>