<svg stroke="currentColor" fill="currentColor" stroke-width="0" viewBox="0 0 512 512" height="1em" width="1em" xmlns="http://www.w3.org/2000/svg"><path d="M177.6 21.72c-1.7 0-3.4.13-5.1.3-18.8 1.86-32.9 12.89-43.9 29.34l-12-22.19-15.8 8.56 17.5 32.36c-3.4 7.44-6.4 15.36-8.8 23.45l11.3 4.07-6.2 16.99-9.8-3.6c-2.9 12-4.88 23.8-6.25 34.4-.1.7-.15 1.3-.22 2l-31.25-1-.58 18 31.96 1c.86 9.4 2.74 19.7 5.44 30.4l16-5.9 6.2 16.8-17.5 6.5c4 13.1 8.8 26.3 13.8 38.8l-26.22 35.3 14.42 10.8 19.9-26.8c10.4 23.7 19.2 40.2 21.9 45.2l110.1-2.5c-1.6-4.1-3.3-8.7-5-13.8-5-15-10.1-32.7-7.7-48.1.2-1 .3-2 .5-3l17 9.2c-.1 9.1 3.2 23.9 7.3 36.2 2.9 8.9 5.6 15.4 7.5 19.8h95.4c2.1-3.3 4.7-7.6 7.7-13.2 2-3.7 3.8-7.8 5.5-11.8l26.5 19.2 10.6-14.6-31.8-23v-1.6c-.4-10.2-1.4-21.8-3.3-33.7l-13.5 2.8-3.6-17.6 13.8-2.9c-.8-3.8-1.8-7.6-2.8-11.3l26.3-10-6.4-16.8-25.3 9.6c-.5-1.5-1.1-3-1.7-4.5-5.3-13-12-24.3-19.7-32-1.3-1.3-2.7-2.5-4-3.6l-4.1 14.4-17.4-5 5-17.5c-2-.4-4.1-.6-6.2-.7h-1.7l-5-38.3-17.8 2.4 5.4 41.3c-1.9 1.1-3.6 2.5-5.4 4.1-7.4 6.5-14 16.4-19.6 28.1-3.3 7-6.2 14.5-8.8 22.3l11.3 5.1-7.4 16.4-9-4c-1.9 7.3-3.5 14.6-4.8 21.5l-16.6-8.9c4-19.6 10.1-41.2 19-60.1 4.3-8.9 9.2-17.3 15.1-24.5-.1-2.6-.2-5.2-.4-7.6-.2-3-.5-6-1.1-9.1l11-4-6.2-17-9.4 3.4c-2.1-6-4.8-12.11-7.8-18.14l38.9-33.59L301 46.24l-36.4 31.42c-4.6-6.83-9.7-13.39-15.3-19.43-1.1-1.24-2.3-2.45-3.5-3.64l-5.2 13.84-16.8-6.36 7.6-20.21c-15.1-11.55-31.9-19-48.7-20.03-1.7-.1-3.4-.14-5.1-.11zm-3 34.66l16.6 7.14-16.5 38.18-16.6-7.15zm1.9 86.32l21.2 24.9-13.8 11.6-21.2-24.9zm152.8 35.2l14 11.2-20.4 25.5-14-11.2zm-94 3.3l9.6 15.2-38.1 23.8-9.6-15.2zm-63.6 66.1l10.6 14.4-24.4 18-10.6-14.4zm174.2 24.6l23.3 15.4-10 15-23.3-15.4zM105 332.3v46h302v-46zm34.9 64l26.9 94h178.4l26.9-94z"></path></svg>