<svg stroke="currentColor" fill="currentColor" stroke-width="0" viewBox="0 0 512 512" height="1em" width="1em" xmlns="http://www.w3.org/2000/svg"><path d="M119.436 36c-16.126 0-29.2 17.237-29.2 38.5v363c0 21.263 13.074 38.5 29.2 38.5h275.298c16.126 0 29.198-17.237 29.198-38.5v-363c0-21.263-13.072-38.5-29.198-38.5H119.436zm26.654 8.047s46.336 33.838 47.27 63.068c.775 24.287-25.025 32.12-40.776 18.584l13.633 32.653h-40.115l13.613-32.633c-15.535 13.88-40.006 5.347-40.758-18.606-.88-28.01 47.133-63.066 47.133-63.066zm81.142 124.642h77.743v8.916H293.92c-4.359 0-7.489.792-9.39 2.377-1.823 1.585-2.735 3.883-2.735 6.895v113.998c0 8.797-2.139 16.76-6.418 23.893-4.28 7.053-10.541 12.68-18.783 16.88-8.242 4.121-17.552 6.182-27.934 6.182-14.106 0-25.637-4.121-34.592-12.363-8.955-8.321-13.433-18.465-13.433-30.432 0-8.876 2.258-15.968 6.775-21.277 4.517-5.31 10.065-7.965 16.643-7.965 5.389 0 9.827 1.744 13.314 5.23 3.487 3.408 5.23 7.767 5.23 13.077 0 4.596-1.426 8.478-4.279 11.648-2.853 3.09-6.142 4.637-9.867 4.637-1.426 0-3.407-.397-5.943-1.19-2.14-.634-3.566-.95-4.28-.95-1.347 0-2.416.556-3.208 1.665-.872 1.11-1.31 2.773-1.31 4.992 0 5.944 2.973 11.372 8.917 16.286 6.023 4.834 13.392 7.251 22.11 7.251 9.905 0 17.711-3.409 23.417-10.224 5.706-6.895 8.559-16.482 8.559-28.766V186.877c0-3.09-1.07-5.389-3.21-6.895-2.06-1.585-5.626-2.377-10.698-2.377h-15.573v-8.916zM345.78 353.65h40.116L372.262 386.3c15.75-13.536 41.551-5.701 40.775 18.586-.933 29.23-47.271 63.068-47.271 63.068s-48.01-35.059-47.131-63.068c.751-23.953 25.222-32.485 40.758-18.604l-13.614-32.635z"></path></svg>