<svg stroke="currentColor" fill="currentColor" stroke-width="0" viewBox="0 0 512 512" height="1em" width="1em" xmlns="http://www.w3.org/2000/svg"><path d="M264.7 36v21.76c5.9-1.27 11.9-2.91 18-4.99V36zm26.7 32.79C257.1 81.22 226 80.48 195 79.88c28.7 15.85 61.1 23.32 92.2 16.58 2.6-9.36 6-18.4 4.2-27.67zm-164.1 10.8C140.5 136.8 152.2 197.3 137.9 285c12.8 17.6 24 35.7 34 53.7l5.1 9.3c73.7-19.3 135.4-22.7 186.9-12.3 2.4-6.5 4.7-13.3 6.7-20.1-53.5-91.8-136.8-169.4-243.3-236.01zm155.4 36.01c-6 .9-12 1.4-18 1.4v42.6c6.1 5.5 12.1 11.1 18 16.8zM56.73 192v10.3c6.24 4.6 12.24 9.3 18 14.2V192zm351.97 4v17.9c6.2 2.5 12.2 5.5 18 8.9V196zm-386.01 5.1c5.77 19.7 10.88 39.8 12.08 60.4 1.21 20.6-1.8 41.8-11.79 62.8 41.42-12.1 84.42-6.5 121.82 3.7-28.5-46.9-66.02-92.4-122.11-126.9zm216.81 1c1.7 9.5 2.1 21.4 1.3 33.8 1.2 0 2.4-.1 3.6-.1 10.8-.2 20.9.4 29.2 2l-3.4 17.6c-7.7-1.4-18.9-1.8-31.3-1.1-2.1 14.1-5.7 27.6-10.6 38.2l-16.4-7.6c3.3-6.9 5.9-17.4 7.8-28.7-9.3 1.3-18.6 3.1-27.1 5.5l-4.8-17.4c11-3.1 22.7-5.3 34.2-6.8 1.1-12.6 1.1-24.6-.3-32.2zm155.3 26c4.8 20.2 3.7 43.2-.6 66-4.1 21.8-11.1 43.6-19.3 62.5 17.1-4.2 37.7-8.3 58.1-10.7 20.4-2.3 40.1-3.4 56.3.3-18.3-68.6-53.7-105.2-94.5-118.1zM81.64 254.5c1.3 7.3 1.7 15.1 1.52 22.9 5.62.7 11.51 1.9 18.04 3.5l-4.32 17.4c-5.68-1.4-10.54-2.4-15.06-3.1-.78 6.5-1.8 12.5-2.85 17.7l-17.64-3.6c.89-4.4 1.72-9.5 2.39-15-4.54.3-9.38.8-15 1.6l-2.59-17.8c6.81-1 12.95-1.6 18.92-1.7.15-6.7-.15-13.2-1.13-18.7zm341.46 23.6l18 1.2c-.4 5.9-.9 12.1-1.5 18.4 6.7.3 13.5 1.1 20.5 2.9l-4.2 17.4c-6.3-1.5-12.4-2.2-18.6-2.4-1.2 7.2-2.7 14.3-4.7 21l-17.2-5.2c1.4-4.5 2.5-9.4 3.4-14.6-5.4.7-10.9 1.7-16.5 2.9l-3.6-17.6c7.4-1.5 14.9-2.9 22.7-3.7.7-6.8 1.2-13.7 1.7-20.3zM56.73 336.2v13.7c6.04.6 12.04 1.3 18 2v-16.5c-6.3.1-12.76.3-18 .8zm69.07 5.5c-1.4 5.5-2.9 11-4.5 16.6 4.5.7 8.9 1.4 13.2 2.1 9.5-3 18.7-5.9 27.8-8.4-12.6-4.1-25.5-7.8-36.5-10.3zm156.9 6.7c-5.9.4-11.9.9-18 1.5v76.7c6.1-.2 12.1-.6 18-1zm144 16.5s-18.3 3.6-18 3.5v29c6.1-2.2 12.1-4.5 18-6.8zm-392.5 1.4c24.11 40.8 50.62 82.6 55.75 124.7H414.3c2.8-2.5 10.3-9.2 20.5-19.4 12.4-12.4 26.6-28.3 33-40 4.9-8.7 9.3-20.3 11.8-31.1 1.2-5.2 1.8-10.2 2.1-14.7C419 416.1 340.9 445 248.8 445h-5.7l-23.6-49.2c-10.3-2.5-97.1-23-185.3-29.5zm16.85 66.9l-7.36 9.7 16 51.9 12.32-2.2c-2.51-18.7-10.49-38.7-20.96-59.4z"></path></svg>