<svg stroke="currentColor" fill="currentColor" stroke-width="0" viewBox="0 0 512 512" height="1em" width="1em" xmlns="http://www.w3.org/2000/svg"><path d="M119.436 36c-16.126 0-29.2 17.237-29.2 38.5v363c0 21.263 13.074 38.5 29.2 38.5h275.298c16.126 0 29.198-17.237 29.198-38.5v-363c0-21.263-13.072-38.5-29.198-38.5H119.436zm26.884 3.717l47.393 58.27-47.393 58.286-47.375-58.287 47.375-58.27zm100.541 136.816c9.59 0 18.465 2.061 26.627 6.182 8.242 4.12 14.424 9.549 18.545 16.285 4.121 6.657 6.18 13.948 6.18 21.873 0 5.468-1.03 11.016-3.09 16.643-2.06 5.626-5.07 10.897-9.033 15.81-6.815 8.48-13.83 15.73-21.041 21.752l-31.383 26.39c-7.925 6.658-13.71 12.323-17.355 16.999-3.646 4.675 14.344 7.013 53.968 7.013 5.944 0 10.183-1.544 12.719-4.634 2.536-3.09 5.429-11.651 8.678-25.678h8.084l-3.805 49.332h-106.51v-6.418l34.592-39.348c19.257-20.921 30.828-34.076 34.711-39.464 5.547-7.688 9.59-15.099 12.125-22.23 2.536-7.212 3.805-13.75 3.805-19.614 0-9.748-2.695-17.394-8.084-22.942-5.39-5.626-12.878-8.441-22.467-8.441-10.778 0-19.573 2.575-26.389 7.727-6.815 5.15-10.224 10.619-10.224 16.404 0 1.981.516 3.487 1.547 4.517.95 1.03 3.01 1.942 6.18 2.735 8.003 1.902 12.007 6.578 12.007 14.027 0 4.042-1.349 7.41-4.043 10.104-2.694 2.615-6.142 3.923-10.342 3.923-4.834 0-9.073-2.22-12.718-6.658-3.646-4.517-5.47-10.38-5.47-17.592 0-8.083 2.062-15.414 6.182-21.992 4.2-6.657 10.5-12.085 18.9-16.285 8.401-4.28 17.436-6.42 27.104-6.42zm118.801 175.99l47.393 58.27-47.393 58.287-47.375-58.287 47.375-58.27z"></path></svg>