<svg stroke="currentColor" fill="currentColor" stroke-width="0" viewBox="0 0 512 512" height="1em" width="1em" xmlns="http://www.w3.org/2000/svg"><path d="M119.436 36c-16.126 0-29.2 17.237-29.2 38.5v363c0 21.263 13.074 38.5 29.2 38.5h275.298c16.126 0 29.198-17.237 29.198-38.5v-363c0-21.263-13.072-38.5-29.198-38.5H119.436zm26.832 8.408v.002h.015c13.587.01 24.442 10.853 24.442 24.442 0 5.71-2.003 10.997-5.266 15.173 1.12-.158 2.232-.31 3.396-.31 13.595 0 24.458 11.157 24.458 24.752 0 13.594-10.863 24.752-24.458 24.752-5.76 0-11.08-2.048-15.294-5.422l12.609 30.193h-40.117l12.42-29.744c-4.12 3.115-9.233 4.973-14.776 4.973-13.594 0-24.752-11.16-24.752-24.754 0-13.595 11.158-24.752 24.752-24.752 1.059 0 2.058.184 3.082.312-3.215-4.16-5.248-9.509-5.248-15.173 0-13.589 11.15-24.434 24.737-24.444zM312.7 176.535c15.454 0 28.333 6.023 38.635 18.069 12.759 14.819 19.137 37.286 19.137 67.4 0 27.974-5.546 49.292-16.641 63.953-11.095 14.582-24.489 21.873-40.18 21.873-15.136 0-27.776-6.142-37.92-18.426-12.68-15.453-19.02-37.762-19.02-66.925 0-27.737 5.984-49.807 17.95-66.211 9.59-13.156 22.269-19.733 38.04-19.733zm-126.361 3.09h5.469v148.354c0 2.218.792 3.922 2.377 5.11 2.298 1.665 5.113 2.497 8.44 2.497h23.061v8.916H140.22v-8.916h19.732c4.121 0 7.171-.952 9.153-2.854 1.98-1.98 2.972-4.596 2.972-7.845V212.79c0-2.298-.911-4.24-2.734-5.824-1.823-1.585-4.16-2.38-7.014-2.38H135.94v-8.2c12.363-1.585 22.388-3.686 30.075-6.301 7.687-2.694 14.462-6.182 20.326-10.461zm127.074 5.469c-10.46 0-18.622 5.031-24.486 15.095-5.865 9.986-8.797 30.749-8.797 62.29 0 30.827 3.012 51.393 9.035 61.695 6.102 10.302 14.263 15.453 24.486 15.453 10.303 0 18.228-4.754 23.776-14.264 6.577-11.332 9.865-32.017 9.865-62.052 0-31.066-3.09-51.867-9.272-62.407-6.18-10.54-14.384-15.81-24.607-15.81zm32.38 168.918h40.118l-12.611 30.193c4.215-3.374 9.535-5.422 15.295-5.422 13.594 0 24.459 11.158 24.459 24.752 0 13.595-10.865 24.752-24.46 24.752-1.163 0-2.275-.152-3.396-.31 3.263 4.176 5.266 9.462 5.266 15.173 0 13.589-10.853 24.433-24.44 24.442h-.017c-13.588-.01-24.735-10.853-24.735-24.442 0-5.665 2.033-11.013 5.248-15.173-1.023.128-2.025.312-3.084.312-13.594 0-24.751-11.159-24.751-24.754 0-13.594 11.157-24.752 24.752-24.752 5.542 0 10.655 1.858 14.775 4.973l-12.418-29.744z"></path></svg>