<svg stroke="currentColor" fill="currentColor" stroke-width="0" viewBox="0 0 512 512" height="1em" width="1em" xmlns="http://www.w3.org/2000/svg"><path d="M255.594 19.406l-15.78 59.125c5.184-.58 10.44-.874 15.78-.874 5.338 0 10.595.293 15.78.875l-15.78-59.124zm0 76.97c-57.894 0-106.156 40.154-118.656 94.186H374.25c-12.5-54.032-60.762-94.187-118.656-94.187zM19.406 209.25v33.53h472.406v-33.53H19.406zM71.5 261.47v159.124h50.406V261.47H71.5zm105.97 0v159.124h50.405V261.47H177.47zm105.936 0v159.124h50.406V261.47h-50.406zm105.938 0v159.124h50.406V261.47h-50.406zm-161.78 177.655l-31.658 56.656h120.5l-32.062-56.655h-56.78zm-208.158.156v33.533h167.938l18.72-33.532H19.405zm286.531 0l18.97 33.533h166.906V439.28H305.938z"></path></svg>