<svg stroke="currentColor" fill="currentColor" stroke-width="0" viewBox="0 0 512 512" height="1em" width="1em" xmlns="http://www.w3.org/2000/svg"><path d="M285.628 42.475c-39.602 0-73 28.513-73 65 0 18.43 8.528 34.82 22.066 46.533l8.473-16.67c-7.876-8.202-12.54-18.667-12.54-29.863 0-25.37 23.91-47 55-47s55 21.63 55 47c0 17.403-11.253 33.046-28.356 41.154l-7.482 21.556c1.9-.462 3.774-.986 5.613-1.58l9.158 16.013c-10.326 7.263-20.32 16.266-31.034 27.472l81.35 179.392c50.265 2.318 98.764-24.335 123.754-68.01L385.8 158.635c-20.166 4.027-36.39 9.054-50.875 16.598l-8.09-14.144c19.057-11.615 31.793-31.09 31.793-53.613 0-36.487-33.398-65-73-65zm-122.666 5.947c-2.66.03-5.454.47-8.152 1.348-6.17 2.004-11.39 6.134-13.66 10.59l-.288.57-64.904 92.297c-2.135 4.452-2.382 10.947-.457 16.97 1.97 6.157 6.045 11.305 10.202 13.422l143.682 73.16c4.072 2.075 10.59 2.405 16.648.427 5.945-1.94 10.996-5.885 13.403-10.492l25.36-74.26c.05 0 .1.003.15.004l6.327-18.23c-.086.008-.175.01-.26.018l4.905-14.365.29-.568c2.27-4.456 2.54-11.12.55-17.282-1.99-6.162-6.1-11.355-10.434-13.562l-32.078-16.333c-6.543 8.178-8.55 19.868-.346 30.87l2.11 3.532 10.288 5.4-8.256 16.214-.146-.07-8.118 15.97c.045.023.09.043.135.065l-6.303 12.376-101.59-51.728 18.606-36.538 4.082-8.02 30.854 15.712c1.556-9.81 4.922-19.248 10.335-28.404L172.103 50.31c-2.514-1.28-5.72-1.925-9.14-1.888zm217.928 131.38l24.082 43.82-71.864 39.49-19.748-35.93-4.334-7.887 71.864-39.492zm-7.106 24.444L333.472 226.4l6.742 12.27 40.312-22.154-6.742-12.27zM114.5 218.482L93.63 259.475l69.508 35.392 20.873-40.992-69.51-35.393zm297.214 17.41l24.08 43.817-71.863 39.49-19.745-35.93-4.334-7.887 71.864-39.492zm-7.106 24.442l-40.314 22.154 6.744 12.27 40.313-22.154-6.742-12.27zM99.72 282.774h-.002L18.372 442.53l6.123 18.83 77.264-151.737 16.038 8.168-77.262 151.735 22.375-7.275 12.968-4.217-6.986-21.556 21.496-6.97L83.392 408l21.52-6.998-5.37-16.504 41.17-80.852-40.992-20.873z"></path></svg>