<svg stroke="currentColor" fill="currentColor" stroke-width="0" viewBox="0 0 512 512" height="1em" width="1em" xmlns="http://www.w3.org/2000/svg"><path d="M103.12 15.697l-30.364 10.07c2.132 3.412 3.902 7.116 5.223 11.098.693 2.094 1.228 4.2 1.643 6.31l29.38-9.74-5.884-17.738zm-80.975 3.25c-1.438.126-2.884.317-4.336.567v129.812c4.642 3.457 10.744 5.995 17.336 7.317 1.792-2.69 3.824-5.25 6.067-7.664 3.214 5.766 6.57 11.448 10.055 17.047-8.84 12.366-9.92 28.358-1.98 40.64 5.96 9.215 15.91 14.655 26.802 15.536 1.91-4.064 4.302-7.973 7.166-11.642 4.07 4.942 8.252 9.784 12.54 14.526-10.71 16.322-8.597 37.015 4.847 48.705 8.243 7.17 19.245 9.643 29.908 7.52.592-6.093 2.13-12.2 4.65-18.09 5.02 4.246 10.14 8.37 15.355 12.362-5.245 17.902 1.975 36.393 17.36 44.117 8.827 4.43 18.888 4.585 27.98 1.103-.452-4.9-.29-9.918.49-14.932 5.874 3.315 11.832 6.476 17.87 9.472-.06 15.63 8.735 29.594 22.772 34.785 9.716 3.593 20.26 2.36 29.19-2.684-.755-3.713-1.154-7.538-1.197-11.418 6.297 2.03 12.652 3.897 19.064 5.577 2.214 15.41 12.886 27.908 27.47 31.04 10.786 2.314 21.726-.918 30.067-8.074-1.587-4.19-2.685-8.627-3.227-13.252 6.336.617 12.71 1.045 19.115 1.305 3.928 18.824 21.574 32.055 42.64 30.36 4.906-.397 9.55-1.593 13.815-3.427 50.857 41.905 57.015 94.14-26.582 113.084 94.115 2.325 106.816-72.573 45.854-129.438 4.343-6.848 6.654-14.918 6.168-23.337-.187-3.25-.78-6.37-1.713-9.326 73.82-44.358 76.68-122.575-17.778-137.824 78.128 32.182 63.177 84.56 2.39 117.61-7.312-4.797-16.425-7.286-26.294-6.49-14.564 1.172-26.844 9.335-33.633 20.653-6.755-.22-13.48-.655-20.166-1.31 1.882-4.65 4.353-9.032 7.325-13.053-4.956-7.48-12.43-12.924-21.377-14.844-2.396-.515-4.8-.756-7.18-.74-12.55.08-24.468 7.27-31.345 18.964-6.12-1.66-12.19-3.492-18.203-5.496 2.96-5.945 6.824-11.273 11.367-15.8-3.922-7.43-10.26-13.31-18.326-16.294-4.022-1.488-8.19-2.147-12.324-2.053-.59.015-1.18.043-1.77.087-9.92.743-19.512 5.808-26.358 14.192-5.603-2.85-11.136-5.844-16.59-8.988 3.493-4.782 7.612-8.966 12.187-12.437-3.116-7.598-8.68-13.954-16.203-17.73-4.38-2.2-9.066-3.347-13.787-3.518-.443-.016-.885-.025-1.328-.024-7.363.017-14.74 2.405-21.13 6.832-5.063-3.875-10.032-7.883-14.903-12.015 3.476-2.892 7.23-5.365 11.185-7.365-1.5-7.214-5.16-13.83-10.887-18.81-5.55-4.826-12.35-7.527-19.456-8.13-.74-.063-1.482-.104-2.228-.12-4.187-.098-8.445.522-12.583 1.852-4.45-4.82-8.78-9.755-12.984-14.8 4.905-2.315 10.048-3.945 15.27-4.84 1.405-8.398-.12-17.03-4.85-24.344-6.653-10.292-18.283-15.88-30.647-15.662-3.625.065-7.313.632-10.957 1.722-3.356-5.388-6.58-10.86-9.665-16.41 6.697-2.53 13.666-3.813 20.55-3.895.234-.003.468.012.704.012 2.56-8.096 2.275-16.83-1.353-24.714-5.758-12.515-18.612-20.043-32.78-20.168-.946-.008-1.896.016-2.85.074-2.167.132-4.355.447-6.544.934-2.233-5.84-4.31-11.743-6.24-17.7 5.77-1.484 11.626-2.09 17.37-1.873 1.985.076 3.956.254 5.906.524 3.1-7.53 3.635-15.884 1.01-23.8-4.48-13.518-17.1-22.556-31.787-23.8h-6.308zm101.837 54.176L94.928 86.49c2.497 3.156 4.662 6.643 6.416 10.453.922 2.004 1.69 4.04 2.336 6.09L131.793 90.1l-7.81-16.977zm26.405 53.55l-26.87 17.372c2.95 2.786 5.613 5.958 7.91 9.512 1.18 1.822 2.213 3.696 3.134 5.6l25.973-16.792-10.146-15.693zm25.342 42.343l-20.97 24.113c3.544 1.84 6.923 4.12 10.064 6.852 1.688 1.468 3.242 3.03 4.692 4.66l20.314-23.363-14.1-12.264zm38.915 30.623l-14.313 28.51c3.895.907 7.74 2.263 11.465 4.133 1.996 1.002 3.886 2.13 5.69 3.346l13.86-27.607-16.702-8.384zm-186.46 6.048l-10.376 6.708v22.254l19.612-12.68c-1.36-1.623-2.646-3.334-3.824-5.157-2.3-3.555-4.085-7.29-5.414-11.125zM270 225.494l-11.102 30.02c4.038.46 8.078 1.403 12.053 2.873 2.03.75 3.976 1.627 5.85 2.597l10.727-29.007L270 225.494zm56.537 19.194l-6.695 31.195c.375-.01.75-.03 1.127-.03 3.665-.02 7.383.353 11.11 1.153 2.15.46 4.23 1.065 6.254 1.773l6.477-30.17-18.273-3.923zM80.203 278.865l-21.912 25.2 14.103 12.263 21.25-24.437c-1.813-1.21-3.577-2.53-5.264-3.997-3.144-2.734-5.86-5.772-8.177-9.028zm69.164 50.81L134.35 359.59l16.703 8.385 14.56-29.008c-2.053-.722-4.086-1.565-6.082-2.567-3.724-1.87-7.11-4.142-10.163-6.724zm70.158 32.305l-11.6 31.374 17.526 6.482 11.224-30.348c-2.053-.482-4.1-1.082-6.127-1.832-3.98-1.47-7.653-3.396-11.022-5.676zm76.487 24.928l-7.033 32.764 18.27 3.922 6.81-31.733c-2.134-.183-4.278-.487-6.427-.948-4.11-.882-7.99-2.25-11.62-4.004z"></path></svg>