<svg stroke="currentColor" fill="currentColor" stroke-width="0" viewBox="0 0 512 512" height="1em" width="1em" xmlns="http://www.w3.org/2000/svg"><path d="M256 16c-39.764 0-72 32.236-72 72s32.236 72 72 72 72-32.236 72-72-32.236-72-72-72zm0 48c13.255 0 24 10.745 24 24s-10.745 24-24 24-24-10.745-24-24 10.745-24 24-24zm-147.03 36c-24.314.545-47.766 13.4-60.814 36-19.882 34.437-8.093 78.462 26.344 98.344 34.437 19.882 78.493 8.093 98.375-26.344 19.882-34.437 8.062-78.462-26.375-98.344-11.838-6.834-24.796-9.94-37.53-9.656zm290.592 0c-11.606.3-23.3 3.443-34.062 9.656-34.437 19.882-46.257 63.907-26.375 98.344 19.882 34.437 63.938 46.226 98.375 26.344 34.437-19.882 46.226-63.907 26.344-98.344-13.67-23.675-38.748-36.663-64.28-36zM110 148c4.245-.095 8.554.94 12.5 3.22 11.48 6.626 15.41 21.3 8.78 32.78-6.626 11.48-21.3 15.41-32.78 8.78-11.48-6.626-15.41-21.3-8.78-32.78 4.348-7.533 12.176-11.818 20.28-12zm290.844 0c8.51-.22 16.88 4.108 21.437 12 6.63 11.48 2.7 26.154-8.78 32.78-11.48 6.63-26.154 2.7-32.78-8.78-6.63-11.48-2.7-26.154 8.78-32.78 3.587-2.072 7.475-3.12 11.344-3.22zm-143.438 60.03A48 48 0 0 0 208 256a48 48 0 0 0 96 0 48 48 0 0 0-46.594-47.97zM108.562 268c-11.606.3-23.3 3.443-34.062 9.656C40.063 297.538 28.274 341.563 48.156 376c19.882 34.437 63.907 46.226 98.344 26.344 34.437-19.882 46.257-63.907 26.375-98.344-13.67-23.675-38.78-36.663-64.313-36zm291.375 0c-24.312.545-47.764 13.4-60.812 36-19.882 34.437-8.062 78.462 26.375 98.344 34.437 19.882 78.462 8.093 98.344-26.344 19.882-34.437 8.093-78.462-26.344-98.344-11.838-6.834-24.827-9.94-37.563-9.656zm-290.062 48c8.51-.22 16.85 4.108 21.406 12 6.63 11.48 2.7 26.154-8.78 32.78-11.48 6.63-26.154 2.7-32.78-8.78-6.63-11.48-2.7-26.154 8.78-32.78 3.587-2.072 7.506-3.12 11.375-3.22zm291.094 0c4.244-.095 8.584.94 12.53 3.22 11.48 6.626 15.41 21.3 8.78 32.78-6.626 11.48-21.3 15.41-32.78 8.78-11.48-6.626-15.41-21.3-8.78-32.78 4.348-7.533 12.145-11.818 20.25-12zM256 352c-39.764 0-72 32.236-72 72s32.236 72 72 72 72-32.236 72-72-32.236-72-72-72zm0 48c13.255 0 24 10.745 24 24s-10.745 24-24 24-24-10.745-24-24 10.745-24 24-24z"></path></svg>