<svg stroke="currentColor" fill="currentColor" stroke-width="0" viewBox="0 0 512 512" height="1em" width="1em" xmlns="http://www.w3.org/2000/svg"><path d="M20.78 26.78c64.677 55.957 77.348 94.384 60.564 122.876 7.63-3.893 15.673-6.72 24.094-8.375-20.88 26.902-34.827 59.457-39.157 94.94-14.255-1.084-27.752-2.986-39.874-5.782 14.74 7.424 27.45 15.042 38.563 23.125-.068 2.083-.126 4.18-.126 6.28 0 68.626 35.813 128.96 89.75 163.344-4.345 10.808-11.01 21.467-20.438 32.813 11.536-7.713 26.68-14.666 43.313-20.313 24.644 11.384 52.065 17.75 80.968 17.75 16.69 0 32.885-2.11 48.343-6.093.406 14.503-.08 31.072-1.436 50.125 36.338-88.305 101.418-88.803 181-30.25-64.756-68.336-59.635-134.57-4.75-218.845-10.708 5.996-20.526 11.01-29.563 15.094.023-1.206.033-2.416.033-3.626 0-43.22-14.223-83.164-38.22-115.406 18.41-29.47 40.28-49.624 65.5-65.125-53.525 15.19-87.8 7.226-130.312-22.75 16.446 15.918 26.668 33.556 32.47 53.874-33.47-27.61-76.354-44.218-123.063-44.218-23.376 0-45.805 4.134-66.562 11.75 1.722-13.855 6.552-27.61 14.438-41.75C156.097 67.09 98.216 75.61 20.78 26.78zm104.095 48.782C137.17 75.62 152 81.5 162.313 91.22c13.75 12.957 14.257 27.825 1.156 33.218-13.103 5.392-34.876-.73-48.626-13.688s-14.257-27.827-1.156-33.22c3.275-1.347 7.09-1.987 11.187-1.968zm133.563 9.344c50.846 0 96.557 21.633 128.5 56.188 1.667 19.017.924 40.15-1.282 63.97 5.51-15.935 11.532-30.1 18.063-42.783 18.732 27.863 29.655 61.414 29.655 97.564 0 3.784-.14 7.526-.375 11.25-80.95 27.872-84.574-38.09-98.344-141.625-23.972 143.895-73.68 188.616-175.375 185.5 91.03 29.217 138.164 30.064 146.345 113.342-15.008 4.183-30.833 6.438-47.188 6.438-17.69 0-34.758-2.634-50.843-7.5 15.95-3.575 32.116-5.82 46.906-6.375-51.752-8.56-83.084-24.313-96.906-62.97 3.475 17.54 4.497 32.484 2.25 46.47-43.702-29.84-73.13-78.987-76.063-135.25 22.45 21.294 36.885 46.538 49 80.188-11.563-57.488 17.535-92.766 79.064-127.97C175.184 232.57 127.964 238.29 85 237.19c4.827-37.463 21.455-71.18 46.063-97.313 34.22 2.712 73.92 23.22 119.03 67.22-36.212-42.28-55.61-76.564-58.53-108.97 20.597-8.515 43.173-13.22 66.875-13.22zm66.906 197.813c30.63 0 68.568 26.42 84.72 59 16.15 32.58 4.408 59-26.22 59-30.63 0-68.568-26.42-84.72-59-16.15-32.58-4.41-59 26.22-59z"></path></svg>