<svg stroke="currentColor" fill="currentColor" stroke-width="0" viewBox="0 0 512 512" height="1em" width="1em" xmlns="http://www.w3.org/2000/svg"><path d="M443.9 30.89c-15.7 2.5-30.9 5.3-44 9.58-13.5 4.4-24.9 10.12-33.7 18.09 17.2 3.33 34.3 8.43 50.1 15.3.1-.58.3-1.16.4-1.73 1.9-7.79 6-14.79 10.8-21.53 4.9-6.76 10.7-13.35 16.4-19.71zM317.8 71.93c-19.2.15-37.3 3.03-52 8.63-20.9 7.95-34.6 20.54-38.8 38.94-.9 3.8.2 13.1 5 23.5s12.9 22.1 24 32.5c22.1 20.8 55.5 36.7 100.3 29.9 20.5-3.1 37.4 3.2 47.2 16 9.8 12.9 13.2 30.5 13.4 50.3.5 32.7-8.1 72.3-18.9 109.2 77.8-53.4 109.2-156.9 77.4-231.8-17.5-41.1-75.9-69.75-132.7-75.89-7-.77-14.1-1.17-21-1.27h-3.9v-.01zM61.39 84.51c-1.86 22.09-.41 44.59 2.78 66.19 10.85-12 23.14-23 36.73-32.6-13.59-7.7-26.79-18.81-39.51-33.59zm240.01 2.15a9.875 10.38 69.37 0 1 .1 0 9.875 10.38 69.37 0 1 9.3 5.94 9.875 10.38 69.37 0 1-5.8 13.1 9.875 10.38 69.37 0 1-13.4-5.1 9.875 10.38 69.37 0 1 5.8-13.11 9.875 10.38 69.37 0 1 4-.83zm36 41.44c27.8 5.3 58.8 9.2 83.5 26.3 24.7 17.1 40.9 47.8 38.9 99.8l-18-.6c1.9-48.3-11.4-70.7-31.1-84.4-19.8-13.7-48.3-18.1-76.7-23.5l3.4-17.6zm-160.6 1.8c-14.6 2.6-29.3 3-43.8.2-5.1 17-9.8 34.7-13.3 51.9 20.4-14.7 40-32.6 57.1-52.1zm-62.8 1.2C36.23 184.5 4.78 288 36.58 362.9c17.52 41.2 75.92 69.8 132.62 75.9 28.4 3.1 56.1.6 77-7.3 20.9-8 34.6-20.6 38.8-39 .9-3.8-.2-13.1-5-23.5s-12.9-22.1-24-32.5c-22.1-20.8-55.5-36.7-100.4-29.9-20.4 3.1-37.3-3.2-47.1-16-9.8-12.9-13.2-30.5-13.4-50.3-.5-32.7 8.1-72.3 18.9-109.2zm163.8 15.1a9.875 10.38 69.37 0 1 9.3 6 9.875 10.38 69.37 0 1-5.7 13.1 9.875 10.38 69.37 0 1-13.4-5.2 9.875 10.38 69.37 0 1 5.7-13 9.875 10.38 69.37 0 1 4.1-.9zm87 76.4c-1.8.1-3.8.3-5.8.6-15.3 2.3-29.6 2.2-42.8.3 8.4 19 26 34.7 45.5 49-.8-6.8-1.6-13.9-1.7-21.2-.1-9.2 1.1-19.1 4.8-28.7zm-214.5 16.9c.8 6.8 1.6 13.9 1.7 21.2.1 9.2-1.1 19.1-4.8 28.7 1.8-.1 3.8-.3 5.8-.6 15.3-2.3 29.6-2.2 42.8-.3-8.4-19-26-34.7-45.5-49zm-98.12 18.3l17.98.6c-1.85 48.3 11.4 70.7 31.14 84.4 19.8 13.7 48.3 18.1 76.7 23.5l-3.4 17.6c-27.8-5.3-58.8-9.2-83.5-26.3-24.7-17.1-40.92-47.8-38.92-99.8zM392.3 330c-20.4 14.7-40 32.6-57.1 52.1 14.6-2.6 29.3-3 43.8-.2 5.1-17 9.8-34.7 13.3-51.9zm-157.6 15.9a9.875 10.38 69.37 0 1 9.4 5.9 9.875 10.38 69.37 0 1-5.8 13.1 9.875 10.38 69.37 0 1-13.4-5.1 9.875 10.38 69.37 0 1 5.8-13.1 9.875 10.38 69.37 0 1 4-.8zm213.1 15.4c-10.8 12-23.1 23-36.7 32.6 13.6 7.8 26.8 18.8 39.5 33.6 1.9-22.1.4-44.5-2.8-66.2zm-236.9 44.2a9.875 10.38 69.37 0 1 .1 0 9.875 10.38 69.37 0 1 9.3 5.9 9.875 10.38 69.37 0 1-5.8 13.1 9.875 10.38 69.37 0 1-13.4-5.1 9.875 10.38 69.37 0 1 5.8-13.1 9.875 10.38 69.37 0 1 4-.8zM95.7 438.2c-.1.5-.3 1.1-.4 1.7-1.9 7.8-5.95 14.8-10.8 21.5-4.87 6.8-10.62 13.3-16.32 19.7 15.62-2.5 30.82-5.3 43.92-9.6 13.5-4.4 24.9-10.1 33.7-18-17.2-3.4-34.3-8.5-50.1-15.3z"></path></svg>