<svg stroke="currentColor" fill="currentColor" stroke-width="0" viewBox="0 0 512 512" height="1em" width="1em" xmlns="http://www.w3.org/2000/svg"><path d="M226.25 21.22c-7.37-.076-14.458.815-21.594 2.936 29.88 18.046 40.87 41.507 35.03 63.063-45.987-37.932-112.6-41.75-146.592-5.845 34.904.688 55.595 15.218 61.312 36.813-58.69-9.694-118.192 20.31-129.656 68.312 30.896-17.035 56.737-14.552 72.438 1.75-55.758 20.907-92.336 76.467-78.25 123.813 18.253-30.226 41.895-41.334 63.656-35.032-38.078 45.996-42.39 112.556-6.438 146.595.694-35.202 15.48-56.406 37.375-61.906-9.707 58.698 19.74 118.19 67.75 129.655-17.033-30.896-14.553-56.737 1.75-72.438 20.867 55.836 76.43 92.94 123.814 78.844-30.186-18.228-41.28-41.916-35.03-63.655 45.984 37.86 112.595 41.724 146.56 5.844-34.904-.69-56.188-15.188-61.905-36.783 58.698 9.71 118.19-20.332 129.655-68.343-30.69 16.922-56.674 14.852-72.406-1.156 55.868-20.85 92.945-77.005 78.842-124.407-18.036 29.867-41.514 41.448-63.062 35.626 37.86-45.985 41.132-112.625 5.25-146.594-.688 34.905-15.22 55.627-36.813 61.344 9.71-58.7-20.3-118.19-68.312-129.656 16.923 30.69 14.82 56.674-1.188 72.406-17.744-47.38-60.633-80.79-102.187-81.187zm28.875 82.124c40.494-.113 81.018 15.362 111.97 46.312 48.312 48.312 58.91 119.93 31.374 178.406 10.386-48.018-9.547-107.827-55.75-154.03-46.205-46.205-106.014-66.138-154.033-55.75 21.016-9.896 43.722-14.875 66.438-14.938zm.813 55.812c25.955.08 51.88 10.1 71.718 29.938 31.206 31.206 38.067 77.45 20.28 115.22 6.71-31.015-6.188-69.658-36.03-99.502-29.842-29.843-68.453-42.71-99.47-36 12.985-6.113 26.97-9.322 41-9.625.84-.018 1.664-.033 2.5-.03zm-142.813 34.688c-10.387 48.018 9.11 108.233 55.313 154.437 46.203 46.205 106.45 65.732 154.468 55.345-58.476 27.536-130.5 17.343-178.812-30.97-48.314-48.31-58.505-120.335-30.97-178.81zm157.688 10.844l3.812 3.812 33.594 33.594 3.81 3.812-1.405 5.22L298.345 297l-1.408 5.22-5.218 1.405-45.876 12.28-5.22 1.408-3.81-3.813-33.595-33.594-3.814-3.812 1.406-5.22L213.125 225l1.375-5.22 5.22-1.405 45.874-12.28 5.22-1.407zm-107.188 12.937c-6.71 31.016 5.875 69.908 35.72 99.75 29.843 29.842 68.764 42.46 99.78 35.75-37.77 17.786-84.296 11.206-115.5-20-31.204-31.206-37.784-77.73-20-115.5zm101.594 7.906l-35.47 9.5-9.47 35.5 25.907 25.908 35.5-9.47 9.5-35.468-25.968-25.97z"></path></svg>