<svg stroke="currentColor" fill="currentColor" stroke-width="0" viewBox="0 0 512 512" height="1em" width="1em" xmlns="http://www.w3.org/2000/svg"><path d="M256 16C123.6 16 16 123.6 16 256s107.6 240 240 240 240-107.6 240-240S388.4 16 256 16zm0 18c122.7 0 222 99.3 222 222 0 46.7-14.4 89.9-38.9 125.7-16.6-19.3-26.2-36.8-38.8-60.2l48.4 8.7c-23.2-22-44.2-50.3-57.3-74.6l33.1 1.5c-28.3-19.2-44.2-36.7-58.7-60.4-2.6 4.8-4.9 9.2-7.1 13.6-12.3-13.8-23.5-28.4-31.7-43.6 7.6 1.5 19.3 9 34.6 3.6-16.8-15.9-33.4-37-42.9-54.7 5.3 3.1 17.5 4.3 26.3 1.6-20.6-13.9-28-27.77-38.6-44.97-9.3 17.2-22.6 34.77-38.6 49.27 6.5.8 18.2-3.5 25.3-8.6-3.9 21.3-19.6 44-38.2 58.6 10.5-1.7 19.8.4 31.9-5.8-13.9 21.4-30.4 39.2-50.7 57.9 18.1 2.3 42 4.3 65 5.1l-.3 27.6c9.3 2.1 19.7 3.1 28.3 1.4l27-2.2c-10.1 28.6-32.6 53.6-58.2 73.7l50.2-8c-16.4 25.3-36 49.3-58.8 71.9-9.1-11.4-17.3-23.1-23.7-35 14.1 3.8 27.1 4 39.5 1.9-23.2-22-42.9-45.6-56-69.9l44.4 5.1c-28.3-19.2-45.5-46.9-60-70.6-10 18.6-24.1 40.6-40.3 58.9-19.3-19.5-36.1-40.5-47.4-61.5l33.1 1.5c-28.3-19.2-42.9-38.2-57.4-61.9-12.8 23.7-23.99 43.4-46.02 63.3 14.6 2.1 24.62-2.5 35.02-6.6-10 28.6-34.29 56.1-59.89 76.2 20.12 2.9 37.33-4.1 53.49-11.1-12.33 25.4-27.24 47.7-47.98 69.4C41.95 323.5 34 290.7 34 256c0-122.7 99.3-222 222-222zm-55.3 37.67c-8.4 13.54-16.8 18.84-33 29.83l19-.9c-7.5 14-19.6 30.3-32.8 42.8l27.7-5c-8.7 16.2-15 27.5-28.7 41.6 7 2.9 20.4 5.2 36.1 6.5l-1.1 27.9 17.4-1.9-.7-25.1c16.2.7 33.2.3 47.3-1.5-16-14.8-29.4-30.7-40.4-47.6l28.8 4.6c-14.7-11.6-27.6-28-33.4-44.37l18.1 3.57c-12.6-11.39-17-16.89-24.3-30.43zM348.9 228.4c-5.5 9.2-11.9 17.9-21.4 27l-5.4-26.2c9.7.1 18.9-.2 26.8-.8zM154 283.8l33.3 6c-2.6 2.7-5.3 5.3-8 7.8l38.3-5c-6 16.9-16.3 32.3-29.1 46.2-14-17.3-23-33.7-34.5-55zm55.6 73.7c-19.1 29.5-34.2 56.4-62.1 82.2 23.2 2.9 52.5 5.1 81.1 6l-.3 30.6c-70.1-8.7-130.05-50.1-164.13-108.4 16.54 1.2 33.75 1.5 50.43 1l-1.1 39.5 34.9 2.1-7.1-42.9c22-3.5 51.8.1 68.3-10.1zm214.9 43.1c-7.9 9.2-16.6 17.8-25.9 25.6l-4.3-21.6c11-1.1 21.3-2.4 30.2-4zm-124.3 5.7c21.4 1.4 44.8 1.4 67 .3l-.5 41.9c-30.5 17.6-65.6 28.1-103 29.4l-6.6-31.8c31.9-.1 59.8-2.3 72.9-7.7-10-10.2-20.2-21-29.8-32.1z"></path></svg>