<svg stroke="currentColor" fill="currentColor" stroke-width="0" viewBox="0 0 512 512" height="1em" width="1em" xmlns="http://www.w3.org/2000/svg"><path d="M200.1 31.2A130.1 132.4 0 0 0 70.03 163.6a130.1 132.4 0 0 0 .55 11.3 80.98 73.47 0 0 0-52.21 68.6A80.98 73.47 0 0 0 99.35 317a80.98 73.47 0 0 0 37.25-8.3 189.3 80.97 0 0 0 70.4 15.6l49-49 49.2 49.2a189.3 80.97 0 0 0 31.3-4.8 91.09 67.8 0 0 0 66 21.1 91.09 67.8 0 0 0 91.1-67.8 91.09 67.8 0 0 0-58-63.1 70.1 81.72 20.61 0 0 2.6-6.2 70.1 81.72 20.61 0 0-36.8-101.2 70.1 81.72 20.61 0 0-76.9 22.8 130.1 132.4 0 0 0-124.4-94.1zM256 300.7L181.7 375H233v112h46V375h51.3L256 300.7z"></path></svg>