<svg stroke="currentColor" fill="currentColor" stroke-width="0" viewBox="0 0 512 512" height="1em" width="1em" xmlns="http://www.w3.org/2000/svg"><path d="M145.896 18.31l-21.51 3.016 50.184 404.992c7.915-.592 16-1.099 24.248-1.515l-30.935-237.614c25.61-7.714 50.943-16.448 73.25-36.277 14.77 90.454-1.795 182.196-2.377 272.658 12.68-.146 26.55-.009 37.9.293-.566-6.92-7.696-101.44 24.094-130.373 18.74-17.055 75.734-6.549 75.734-6.549 13.115 21.985 13.064 36.927 8.98 62.612l31.163 8.045c2.469-14.451 1.707-51.72-7.055-96.522-1.229-2.948-10.45-4.763-18.036-8.04-.183-30.68 6.268-60.047.273-90.727-14.382-11.332-45.991-20.998-70.762-34.35l-5.58-.762c-7.236 7.58-16.643 12.56-27.188 12.56-15.213-2.301-26.7-10.05-33.625-20.849l-12.734-1.736c-23.748 18.203-50.06 31.28-77.733 41.635zM288.28 36.94c-6.21 0-12.37 3.612-17.55 11.154-5.181 7.542-8.762 18.73-8.762 31.256 0 12.525 3.58 23.711 8.762 31.254 5.18 7.542 11.34 11.154 17.55 11.154 6.211 0 12.372-3.612 17.553-11.154 5.18-7.543 8.76-18.729 8.76-31.254 0-12.526-3.58-23.714-8.76-31.256-5.18-7.542-11.342-11.155-17.553-11.155zM109.873 54.4c-.932 2.868-1.81 5.768-2.848 8.555-3.482 9.362-7.548 18.137-12.91 25.352-5.361 7.214-12.501 13.287-21.787 14.603-13.724 1.946-21 6.09-25.857 11.809-4.858 5.72-7.681 14.024-9.352 25.42-2.552 17.412-.925 39.067 1.97 61.132 1.418-4.107 2.921-8.171 4.733-12.01 4.205-8.905 9.672-17.033 17.334-23.017 7.663-5.984 17.6-9.48 28.815-9.146 7.657.228 13.652-4.943 18.765-14.57 5.056-9.52 7.849-22.506 7.909-31.97zM323.744 160.97c13.772 8.366 27.424 15.481 44.86 16.52 6.827 23.86 1.635 49.908.83 73.769-22.109-4.356-43.114-9.48-45.623-23.147 2.972-34.461 3.447-49.16-.067-67.142zm48.836 203.847c-4.585 21.75-13.021 42.473-24.904 63.268 36.88 2.608 75.117 5.883 112.222 15.611-.06-19.97-6.113-40.476-16.906-60.699zm-127.242 76.692c-97.482.507-174.844 14.648-227.338 28.416V491h476v-18.94c-58.673-14.917-146.115-31.086-248.662-30.552z"></path></svg>