<svg stroke="currentColor" fill="currentColor" stroke-width="0" viewBox="0 0 512 512" height="1em" width="1em" xmlns="http://www.w3.org/2000/svg"><path d="M201 25v30h112.5l10-30H201zm-9 48c-13 0-27.1 6.78-37.6 17.36C143.8 100.9 137 115 137 128c0 30.5 7.5 51.4 15.4 71.7 7 17.9 14.5 35.6 16.2 57.3h174.8c1.7-21.7 9.2-39.4 16.2-57.3 7.9-20.3 15.4-41.2 15.4-71.7 0-13-6.8-27.1-17.4-37.64C347.1 79.78 333 73 320 73H192zm-71.6 7c-14.1.18-26.1 4.67-35.16 12.22C70.75 104.3 64 122.9 64 141.1c0 18.3 6.75 36.8 21.24 48.9 11.79 9.8 28.56 14.5 48.36 11.2-2-5.4-4.1-11.1-6-17.2-13.8 1.8-23.6-1.8-30.84-7.8C87.25 168.3 82 154.9 82 141.1c0-13.7 5.25-27.1 14.76-35.1 7.04-5.8 16.54-9.35 29.84-7.88 3-5.84 6.8-11.32 11.1-16.29-6.1-1.31-11.9-1.9-17.3-1.83zM137 275.5v16.8c84.3 17.9 157.1 14 238 .4v-17.2H137zm-20.6 32.8c-15.3.1-30.89 5.7-42.7 12.2C28.8 345.4 9 403.9 34.6 449.3c21.6 38.4 71.8 55.3 110.5 32.9 32-18.4 46.1-60.8 26.9-93.2-5.9-10-14.4-18.6-24.8-22.8-9.3-3.8-18.5-5.8-26.8-6-8.6-.3-17.2 2.5-25 7.3-20.6 12.6-29.5 40.6-16.4 61.2 9.8 15.5 31.2 22.2 46.6 11.9 10.8-7.3 15.4-22.7 7.8-33.2-4.8-6.6-14.7-9.4-20.8-4.5-1.5 1.2-2.9 3.5-3.2 5.5-.1 6.9 9.1 11.5 15.4 16.2-3.6 5-10 6.9-14.9 6.4-4.9-.4-9.1-2.5-12.4-6-5.4-5.5-6.9-13.2-5.8-19.7 1.1-6.5 4.5-12.3 9.6-16.4 15.2-12.3 36.4-6.2 46.7 8 14.1 19.6 6.2 46.1-12.4 58.6-24.5 16.5-56.9 6.3-71.8-17.1-18.9-29.8-6.5-68.7 22.2-86.2 9.4-6.1 19.3-9.5 30.6-10.3 21.6-1.5 43.9 9.3 65.9 18.2 22.6 9.1 45.1 18.3 64.5 20.9h18c19.4-2.6 41.9-11.8 64.5-20.9 22-8.9 44.3-19.3 65.9-18.2 10.8.6 22 5.1 30.6 10.3 28.7 17.5 41.1 56.4 22.2 86.2-14.9 23.4-47.3 33.6-71.8 17.1-18.6-12.5-26.5-39-12.4-58.6 10.3-14.2 31.5-20.3 46.7-8 5.1 4.1 8.5 9.9 9.6 16.4 1.1 6.5-.4 14.2-5.8 19.7-3.3 3.5-7.5 5.6-12.4 6-4.9.5-11.3-1.4-14.9-6.4 4.5-2.9 16.1-12.1 15.4-16.2-.4-2-1.7-4.3-3.2-5.5-6.1-4.9-16-2.1-20.8 4.5-7.6 10.5-3 25.9 7.8 33.2 15.4 10.3 36.8 3.6 46.6-11.9 13.1-20.6 4.2-48.6-16.4-61.2-7.8-4.8-16.4-7.6-25-7.3-8.3.2-17.5 2.2-26.8 6-10.4 4.2-18.9 12.8-24.8 22.8-19.2 32.4-5.1 74.8 26.9 93.2 38.7 22.4 88.9 5.5 110.5-32.9 25.6-45.4 5.8-103.9-39.1-128.8-17.3-9.6-30.3-13.4-49.2-11.7-37.4 3.3-69.4 13.7-124.1 14.5h-18c-54.8-.9-84.7-10.7-124-14.7-2.2-.2-4.4-.3-6.6-.3zm72.3 73.7c9 16.3 11.7 34.3 9.1 51.5h116.4c-2.6-17.2.1-35.2 9.1-51.5-19.2 7.7-38.8 15.2-58.3 17.2h-18c-19.5-2-39.1-9.5-58.3-17.2zm4.4 69.5c-3.4 9.1-8.2 17.6-14.4 25.2l5.6 17.3h142.6l5.6-18.3c-5.8-7.4-10.4-15.5-13.6-24.2H193.1z"></path></svg>