<svg stroke="currentColor" fill="currentColor" stroke-width="0" viewBox="0 0 512 512" height="1em" width="1em" xmlns="http://www.w3.org/2000/svg"><path d="M249.4 25.6c-15.8.49-36.7 11.91-50.7 18.51 15.2 2.23 33.5 6.67 45.2 13.9C256.6 50.15 262.7 41.1 265 31c-3.9-4.1-9.4-5.59-15.6-5.4zm-79.3 34.37c-16.1 1.66-40.7 11.42-50.4 38.2 30.1-5.32 64.9-14.77 87.1 6.33 16.2-5.65 20.7-20.65 25.2-32.45-19.8-9.66-41.6-11.32-61.9-12.08zm267.1 12.67c-16.5 18.03-18.6 26.03-22 41.16l11.7 16.9 18.4-17c1.5-15.13 1.2-18.23-8.1-41.06zm-47 34.66c-1.5 16.1-1 30.8 1.2 43.3l20.9 20.5 4.9-28.2-10.9-22.9c-4.9-4.2-10.3-8.5-16.1-12.7zM161.9 109c-26.1.1-55.7 12.3-72.9 19.9-40.81 24.8-54.24 59-57.44 97.4 34.32-56.4 101.84-82.6 159.74-83.7 6.8-7 7.1-14.2 6.3-21.5-9.4-8.9-22.1-12.2-35.7-12.1zM470 121.3c-6 1.4-11.5 3.1-16.8 4.9l-21.3 19.4-5 28.3 26.4-11.3c6.6-11 12.4-25.1 16.7-41.3zm-278.6 39.3C114 162.2 51.39 208 30.29 273.1c-1.47 27.3.76 51.9 29.44 69.3-2.71-83 67.57-141.6 137.07-163.5 3.2-7-.6-13.2-5.4-18.3zm184.4 2.1c-.4 46.2 13.6 48 28 56.3l5.3-29.9-20-19.4c-4.2-2.3-8.6-4.7-13.3-7zm87.9 15.4c-3.7.4-7.5.7-11.1 1.1l-28.8 12.6-5.4 30.4c21.2-1.5 31.6-4.3 45.3-44.1zm-257.2 16.7c-82.3 25.4-148.52 102.1-121.89 177 11.35 32.4 35.09 36.3 55.79 39.6-23.1-78.2 23.7-166.1 87.6-197.6-3.7-9.6-13.8-16.6-21.5-19zm42.4 29.9c-61.6 26.4-110 104.1-95.7 166.8 14.4-16.9 36.6-25.9 58.7-22.3 1.5-2.8 3.4-5.3 5.6-7.6-1.2-30.1 9.3-62.2 14.8-88.8 7.7 1.2 15.4 2.3 23.1 3.4 13.1-10.4 28.9-18.4 46.4-22.9-2.8-8.3-6.2-13.2-10.7-20.4-11.4-7.8-24-13.3-42.2-8.2zm101.7 7c-.7 6.5-.9 12.4-.7 18 16.3 1.6 31.6 6.1 45.2 12.9l-9.2 28.5 14.7 3.6 7.2-24.8c28.8 18.9 47.2 48.8 47.2 82.1 0 4.5-.3 8.9-1 13.2 6.1 1 12.7 3.8 17.1 6.9 1.2-6.6 1.9-13.3 1.9-20.1 0-42-24.1-78.6-60.3-100.2.7-4.9 1.4-10.2 2.2-16.1l-14.8-2.3c-.5 3.9-1 7.5-1.5 11-14.7-6.7-30.9-11.1-48-12.7zm-18.5 6l-16 3.1c6 14.7 6.1 29.1 5.2 43.4 5.1.6 10.3 1.1 15.4 1.5-3.1-15.4-5.6-30-4.6-48zm-85.6 55.4l-2.9 13.9 146.3 11.8 1.6-10.8c-51-3.2-99.1-8.3-145-14.9zm14.7 34.2c-9.2 0-15.9 6.7-15.9 14.5s6.7 14.5 15.9 14.5 15.9-6.7 15.9-14.5-6.7-14.5-15.9-14.5zm51.3 4.9c-9.8 0-17.3 7.4-17.3 16.6 0 9.2 7.5 16.6 17.3 16.6s17.3-7.4 17.3-16.6c0-9.2-7.5-16.6-17.3-16.6zm50.9 3.4c-9.2 0-15.9 6.7-15.9 14.5s6.7 14.5 15.9 14.5c8.4-.1 15.7-7.1 15.9-14.5 0-7.8-6.7-14.5-15.9-14.5zm44 0c3.4 16.5 3.8 30.6 3.4 45.4 6.1 5.6 9.6 3.2 14.8-1-3.7-14.4-5.6-30.6-2.6-43.3zm-166.5 34.3c-8.4 0-14.9 6.5-14.9 14.5s6.5 14.5 14.9 14.5 14.9-6.5 14.9-14.5-6.5-14.5-14.9-14.5zm46 8c-7.6 0-13.5 5.8-13.5 13.1s5.9 13.1 13.5 13.1 13.5-5.8 13.5-13.1-5.9-13.1-13.5-13.1zm91.2 1.3c-6-.2-10.9 6-16.5 15.7-4.7 8.4-7.6 19-8 27.6-1 23.4 12 52.9 31.2 63.8 11.4 2.3 22.4-4.4 33.2-4.2 9.1-1.6 25.9 11.6 33 7.6h.1c10.2-5.6 18.5-16.7 23.6-30.1 5.1-13.3 6.9-28.6 5.1-41.2-1.1-7.3-4.6-15.9-9.7-22.6-5.1-6.7-11.4-11.3-17.6-12.6-13.5 5.5-23.6 19.5-35.6 19.5-14.9 2.6-27.9-22.9-38.8-23.5zm-45.2 2.3c-8.5 0-14.5 6-14.5 12.8 0 6.8 6 12.8 14.5 12.8 1.8 0 3.5-.3 5-.8 1.6-6.4 4-12.9 7.3-18.9-2.5-3.5-6.9-5.9-12.3-5.9zm-131.3 4.9c-19.6.2-37.9 13.4-44.5 34.4-8 25.8 5.4 52.2 29.4 59.7 20.2 6.2 41.7-2.7 52.9-20.9-9.3-5.8-15.6-15.8-15.6-27.3 0-6.5 2-12.5 5.4-17.6-11.6-4.4-20.1-15.1-21.1-27.9-2.2-.3-4.3-.4-6.5-.4zm56.1 31.4c-9.2 0-15.9 6.7-15.9 14.5s6.7 14.5 15.9 14.5 15.9-6.7 15.9-14.5-6.7-14.5-15.9-14.5zm53 6.1c-10.6 0-18 7.2-18 15.2 0 8 7.4 15.2 18 15.2s18-7.2 18-15.2c0-8-7.4-15.2-18-15.2zm30.2 33.3c-5.4 7.6-14.2 13.1-24.1 14.6 10.9 1.3 20.8 1.5 30.9.7-2.7-4.8-5-10-6.8-15.3zm-67.3 7.4c-9.2 0-15.9 6.7-15.9 14.5s6.7 14.5 15.9 14.5 15.9-6.7 15.9-14.5-6.7-14.5-15.9-14.5z"></path></svg>