<svg stroke="currentColor" fill="currentColor" stroke-width="0" viewBox="0 0 512 512" height="1em" width="1em" xmlns="http://www.w3.org/2000/svg"><path d="M130.543 39.226l13.316 66.134c2.8-3.765 5.596-7.473 8.384-11.048l17.066-21.885-.974 27.736c-.69 19.64-1.247 39.345-1.49 58.973 6.94-3.547 14.11-7.24 21.494-11.108 14.69-7.69 29.31-15.51 41.242-22.017-3-6.667-6.218-13.2-9.916-19.5-15.624-26.61-39.145-50.258-89.123-67.284zm300.03 3.724c-1.405.014-2.832.088-4.28.22 4.59 6.668 9.32 12.88 14.29 18.708l12.968-12.967c-6.443-3.9-14.258-6.046-22.978-5.96zm-22.645 4.828c-2.824 1.143-5.69 2.488-8.586 4.07-1.83.996-3.664 1.98-5.495 2.973.78 1.247 1.562 2.483 2.348 3.7 4.43-2.915 8.834-5.77 13.195-8.533-.49-.726-.975-1.473-1.462-2.21zm58.35 13.86L452.874 75.04c5.875 5.755 12.12 11.16 18.86 16.336 1.55-11.45-.575-21.67-5.458-29.738zm-88.18 1.705c-6.794 3.656-13.59 7.3-20.38 10.94 1.52 2.57 3.05 5.077 4.588 7.52 6.406-4.58 12.767-9.032 19.073-13.343-1.103-1.678-2.194-3.39-3.28-5.117zm41.884 1.25c-4.455 2.814-8.952 5.716-13.488 8.7 3.288 4.364 6.66 8.533 10.156 12.52l11.403-11.404c-2.757-3.173-5.44-6.446-8.07-9.817zm-78.05 18.178c-7.558 4.073-15.095 8.16-22.594 12.27 2.482 4.546 4.97 8.91 7.482 13.096 7.037-5.412 14.042-10.692 21.006-15.828-1.99-3.093-3.95-6.277-5.893-9.537zm49.808.426c-6.383 4.367-12.83 8.883-19.33 13.54 4.776 6.542 9.727 12.63 14.96 18.357l16.766-16.768c-4.287-4.812-8.406-9.844-12.396-15.13zm48.656 4.323l-11.29 11.288c3.424 3.257 6.974 6.402 10.673 9.46 3.202-4.148 6.437-8.332 9.593-12.415-3.074-2.71-6.07-5.48-8.977-8.334zM303.61 103.73c-7.378 4.124-14.707 8.288-21.975 12.503 3.508 6.854 7.005 13.322 10.537 19.414 6.827-5.588 13.643-11.066 20.443-16.435-3.05-4.946-6.043-10.105-9.004-15.48zm54.442 3.437c-7.102 5.25-14.255 10.65-21.445 16.195 5.945 8.62 12.127 16.47 18.762 23.73l19.507-19.507c-5.9-6.388-11.475-13.17-16.824-20.418zm105.27.074c-3.028 3.92-6.133 7.937-9.207 11.92 1.775 1.244 3.59 2.477 5.432 3.702 1.267-2.337 2.52-4.68 3.795-7.015 1.153-2.115 2.177-4.21 3.095-6.287-1.047-.77-2.087-1.54-3.115-2.32zm-46.695 4.048l-16.532 16.53c4.718 4.312 9.686 8.43 14.946 12.417 4.7-6.056 9.32-12.013 13.925-17.97-4.273-3.543-8.383-7.19-12.338-10.977zM266.2 125.565c-.83.906-1.07.793-1.485 1.09-.558.4-1.1.752-1.735 1.153-1.268.8-2.864 1.753-4.828 2.892-2.413 1.4-5.514 3.145-8.904 5.033-2.702 1.698-5.397 3.405-8.074 5.125 3.755 8.345 8.797 16.637 15.002 25.17 7.333-6.372 14.678-12.64 22.025-18.8-4.073-6.815-8.057-14.03-12-21.663zm-116.65 2.803C90.93 211.753 34.103 335.944 40.22 432.138c5.696 6.334 12.39 12.947 19.215 17.95 7.61 5.582 15.156 8.76 19.907 8.76h.45l139.268 13.926c-68.43-92.97-72.94-220.298-69.51-344.406zm293.692 4.87c-4.444 5.752-8.902 11.505-13.44 17.357 3.562 2.317 7.27 4.602 11.106 6.87 3.373-6.288 6.746-12.58 10.13-18.874-2.65-1.763-5.263-3.542-7.796-5.353zm-120.662 1.107c-6.922 5.48-13.865 11.083-20.822 16.8 6.816 10.3 13.91 19.52 21.61 27.948l19.51-19.508c-7.19-7.783-13.896-16.15-20.298-25.24zm65.023 5.966l-19.508 19.51c6.02 5.5 12.446 10.686 19.374 15.687 5.624-7.137 11.186-14.23 16.686-21.283-5.807-4.458-11.314-9.074-16.553-13.912zm-162.52 8.6c-6.484 3.484-13.3 7.11-20.3 10.802 4.492 10.944 11.093 22.845 19.223 35.006 6.07-5.553 12.16-11.05 18.27-16.48-7.103-9.59-12.857-19.13-17.192-29.327zm62.9 13.685c-6.882 5.788-13.763 11.678-20.638 17.658 7.596 9.074 16.32 18.562 26.073 28.79l17.46-17.458c-8.167-8.842-15.714-18.43-22.894-28.99zm130.845 2.115c-5.385 6.91-10.834 13.864-16.346 20.865 5.56 3.47 11.445 6.88 17.672 10.28 4.108-7.497 8.183-15.046 12.254-22.602-4.7-2.8-9.226-5.642-13.58-8.543zm-230.043 3.377c-7.095 3.687-13.966 7.22-20.463 10.51 3.642 13.868 11.777 30.123 22.885 46.923 6.346-6.118 12.732-12.185 19.158-18.193-9.026-13.173-16.406-26.366-21.58-39.24zm166.818 4.225l-19.508 19.507c7.207 6.583 14.993 12.72 23.534 18.624 5.666-7.013 11.274-14.016 16.823-20.994-7.41-5.446-14.336-11.123-20.85-17.138zM253.58 192.354c-6.36 5.658-12.702 11.39-19.02 17.184 8.084 10.67 17.152 21.326 26.858 31.506l19.263-19.264c-10.142-10.567-19.194-20.173-27.1-29.426zm137.777 7.317c-5.434 6.843-10.926 13.71-16.48 20.595 7.44 4.473 15.463 8.87 24.092 13.287 4.212-7.266 8.368-14.596 12.49-21.973-7.073-3.895-13.765-7.85-20.103-11.91zm-67.754 4.642l-17.46 17.458c8.36 7.97 17.038 15.497 25.783 22.417 5.536-6.632 11.016-13.27 16.447-19.91-8.91-6.3-17.12-12.9-24.77-19.965zM167.437 221.79c.31 8.662.715 17.282 1.262 25.836 3.052-3.06 6.117-6.108 9.198-9.145-3.788-5.568-7.284-11.143-10.46-16.69zm53.653.22c-6.492 6.08-12.944 12.228-19.352 18.423 8.29 11.04 17.64 22.08 27.68 32.61l19.263-19.263c-9.95-10.366-19.25-21.02-27.59-31.77zm142.412 12.268c-5.642 6.908-11.343 13.822-17.106 20.73.95.67 1.9 1.326 2.848 1.98 11.135-5.043 21.08-9.175 29.514-11.823.806-.253 1.553-.48 2.33-.723-6.137-3.337-12.01-6.713-17.586-10.164zm-70.094.23l-19.264 19.262c9.262 8.83 18.92 17.118 28.62 24.633 5.875-6.745 11.693-13.52 17.456-20.314-9.126-7.32-18.12-15.24-26.812-23.583zM188.6 253.257c-6.066 5.994-12.07 12.037-18.024 18.104.08.84.16 1.677.242 2.514 8.02 10.558 16.996 21.096 26.6 31.168l19.263-19.264c-10.078-10.5-19.56-21.436-28.08-32.52zm207.175 6.792c1.045.547-4.21-.04-11.627 2.29-7.62 2.39-17.802 6.602-29.472 11.934-23.342 10.665-52.773 25.796-82.73 40.12-29.96 14.327-60.4 27.873-86.608 35.478-.61.177-1.208.335-1.815.506 9.725 39.354 24.64 75.796 47.09 107.666 10.53-.556 19.844-2.732 28.217-6.078 18.345-7.332 32.617-20.42 44.62-35.205 12.005-14.786 21.526-31.097 30.673-44.343 4.573-6.623 9.025-12.513 14.183-17.188 5.16-4.675 11.558-8.383 19.036-8.383 16.213 0 30.66 10.89 45.064 26.074 9.18 9.68 18.34 21.64 27.37 34.79 2.69-28.988 8.2-55.247 7.468-77.426-.482-14.58-3.403-27.167-10.916-38.607-7.486-11.398-19.84-22.032-40.553-31.627zm-134.367 6.457l-19.264 19.263c5.433 5.18 11.003 10.173 16.637 14.94 1.8-.852 3.6-1.694 5.4-2.555 7.132-3.41 14.244-6.875 21.275-10.324-8.177-6.68-16.235-13.824-24.047-21.323zm-32 32l-19.264 19.263c1.084 1.034 2.176 2.056 3.27 3.075 8.875-3.585 18.068-7.574 27.39-11.795-3.846-3.427-7.648-6.946-11.396-10.543zm-54.406 8.834c.887 5.78 1.856 11.515 2.922 17.198l6.757-6.758c-3.296-3.435-6.522-6.92-9.678-10.44z"></path></svg>