<svg stroke="currentColor" fill="currentColor" stroke-width="0" viewBox="0 0 512 512" height="1em" width="1em" xmlns="http://www.w3.org/2000/svg"><path d="M62.807 19.26l90.134 94.617c-7.47 4.86-14.578 10.294-21.243 16.264l-65.623-22.02 32.908 61.53c-8.18 13.58-14.62 28.507-18.923 44.57-4.86 18.13-6.635 36.365-5.67 54.157L21.235 308.38l62.576 7.647c2.362 6.76 5.138 13.354 8.3 19.754L19.187 366.8v95.864l90.562-98.44c6.094 8.002 12.892 15.492 20.334 22.366l-22.56 53.06 61.316-26.072c7.367 3.747 15.082 6.997 23.11 9.707l-42.32 71.25h104.403l-7.083-62.082c9.308.03 18.522-.696 27.567-2.135l34.037 50.45 14.497-65.72c13.49-6.544 26.11-14.82 37.517-24.614l57.032 19.367-23.44-58.245c3.51-5.562 6.714-11.366 9.602-17.385l90.705 63.125V282.977l-75.67 2.757c1.153-7.366 1.815-14.72 2.012-22.023l61.95-35.968-68.333-15.312c-8.706-30.973-25.91-59.104-49.635-80.97l112.818-112.2h-92.88l-42.305 94.758c-6.592-4.318-13.524-8.22-20.777-11.647l-8.18-66.954-39.41 52.36c-11.226-1.748-22.423-2.37-33.457-1.926-14.58.586-28.874 3.028-42.588 7.136l-15.01-73.726H62.808zm184.183 85.11c13.38-.028 26.987 1.692 40.54 5.323 17.33 4.643 33.165 12.047 47.18 21.596l-24.153 54.1 41.023-40.798c8.817 8.017 16.632 16.997 23.328 26.722l-30.863 41.897 50.47-2.345c7.795 23.73 9.918 49.584 5.214 75.565l-61.357 2.236 49.832 34.68c-25.574 56.255-82.33 91.57-143.39 90.422l-7.606-66.68-35.476 59.724c-32.962-10.183-60.193-30.463-79.187-56.5l41.523-45.134-54.834 23.32c-4.775-9.507-8.585-19.513-11.326-29.867l58.7-32.435-62.712-25.29c.874-7.27 2.262-14.567 4.213-21.848 10.62-39.625 35.624-71.486 67.886-91.477l49.668 52.14-13.932-68.437c12.698-3.938 25.978-6.264 39.54-6.797 1.9-.074 3.807-.113 5.718-.117zm5.23 82.88c-39.546 0-71.607 32.062-71.607 71.61 0 39.546 32.06 71.607 71.608 71.607s71.608-32.06 71.608-71.608c0-39.55-32.06-71.61-71.607-71.61z"></path></svg>