<svg stroke="currentColor" fill="currentColor" stroke-width="0" viewBox="0 0 512 512" height="1em" width="1em" xmlns="http://www.w3.org/2000/svg"><path d="M322.22 15.652c-32.935-.256-65.31 9.997-94.51 28.452 17.21-1.707 34.93-.567 52.395 4.113 84.13 22.544 132.785 114.77 108.247 206.346-24.54 91.574-112.952 147.74-197.082 125.197-17.026-4.562-32.677-12.003-46.465-21.715 22.407 41.78 57.54 73.65 102.855 85.79 97.857 26.223 203.028-47.557 234.28-164.194 31.254-116.637-23.102-232.5-120.96-258.72-12.9-3.457-25.874-5.167-38.76-5.268zM221.1 60.797c-84.45.538-165.777 68.667-192.635 168.9-31.253 116.638 22.94 233.118 120.797 259.34 45.316 12.142 91.676 2.11 131.972-22.87-16.797 1.518-34.072.135-51.097-4.427-84.13-22.544-132.617-115.39-108.078-206.965 24.537-91.574 112.786-147.12 196.917-124.578 17.464 4.68 33.383 12.554 47.433 22.637-22.348-42.55-57.957-74.423-103.828-86.715v-.003c-13.76-3.687-27.663-5.408-41.482-5.32zm25.79 95.812c-50.71 4.208-90.386 46.535-90.386 98.355 0 52.2 40.26 94.77 91.504 98.443-12.674-23.658-20.74-60.063-20.74-100.346 0-38.898 7.64-73.19 19.62-96.453zm21.27.492c4.848 9.527 8.958 20.897 12.14 33.628-13.203.543-23.743 11.413-23.743 24.75 0 13.684 11.093 24.778 24.777 24.778 2.024 0 3.99-.25 5.873-.707.206 4.436.32 8.94.32 13.512 0 40.035-7.97 76.238-20.51 99.907 49.03-5.814 86.897-47.38 86.897-98.005 0-50.232-37.28-91.545-85.754-97.863z"></path></svg>