<svg stroke="currentColor" fill="currentColor" stroke-width="0" viewBox="0 0 512 512" height="1em" width="1em" xmlns="http://www.w3.org/2000/svg"><path d="M142.026 16.89C94.242 38.888 62.71 74.257 62.71 113.927c0 26.11 13.42 50.288 36.22 70.04-11.664 25.398-18.99 53.91-20.81 84.212 17.194.562 33.53 4.205 48.192 11.7 41.566 21.25 61.083 66.944 57.787 121.093 7.566 1.83 15.284 3.355 23.122 4.58.894-16.76.83-33.468-.496-50.122l18.63-1.485c1.438 18.035 1.466 36.014.458 53.938 8.022.76 16.14 1.21 24.322 1.382v-56.235h18.687v56.13c7.83-.25 15.693-.755 23.565-1.514-.995-17.845-.96-35.745.47-53.7l18.63 1.485c-1.323 16.597-1.39 33.247-.504 49.95 7.307-1.07 14.6-2.355 21.863-3.843-3.467-54.395 16.04-100.333 57.748-121.656 14.66-7.497 30.998-11.142 48.19-11.702-1.843-30.716-9.343-59.594-21.284-85.252 22.08-19.56 35.044-43.346 35.044-69 0-39.67-31.532-75.04-79.316-97.035C386.283 33.46 394.32 53.31 394.32 74.27c0 42.688-31.51 79.614-77.026 97.146l-6.14-14.3c11.148-4.44 21.233-10.197 29.876-16.964 10.1-7.905 18.202-17.087 23.91-27.154-29.85-25.333-66.642-40.283-106.488-40.283-40.34 0-77.554 15.314-107.6 41.223 5.674 9.7 13.588 18.555 23.372 26.214 9.67 7.57 21.145 13.877 33.894 18.49l-6.125 14.264c-47.677-16.863-81.06-54.696-81.06-98.636 0-20.96 8.038-40.81 21.093-57.377zm10.286 183.128c.054-.004.1.004.127.037 18.414 23.35 51.93 39.697 91.086 43.162-5.892 19.698-26.99 34.53-52.67 34.53-30.21 0-55.148-20.584-55.148-45.517.002-12.465 6.205-23.997 16.11-32.173.083.094.33-.027.494-.04zm211.668.002c.053-.003.1.006.138.04 9.907 8.175 16.112 19.707 16.112 32.173 0 24.93-24.937 45.515-55.15 45.515-25.68 0-46.776-14.83-52.67-34.53 39.156-3.466 72.673-19.813 91.087-43.16.112.085.322-.03.483-.038zM258.4 244.174c5.625 27.42 13.928 54.84 32.91 82.26-20.274 5.432-44.818 5.627-65.82 0 17.968-27.42 26.834-54.84 32.91-82.26zm-76.31 175.54c-2.34 15.4-6.413 31.3-12.25 47.372 8.786 5.74 18.037 10.645 27.663 14.637 3.627-19.225 6.537-38.376 8.33-57.455-8.02-1.22-15.944-2.733-23.744-4.553zm152.802.48c-7.48 1.504-14.995 2.807-22.526 3.888 1.777 18.972 4.655 38.015 8.248 57.13 9.192-3.897 18.035-8.63 26.452-14.126-5.776-15.906-9.824-31.644-12.174-46.893zm-41.094 6.115c-8.335.8-16.668 1.323-24.975 1.58v65.694c11.644-.764 23.006-2.806 33.973-6.01-3.898-20.343-7.058-40.766-8.998-61.265zm-69.402.237c-1.953 20.54-5.13 41.002-9.043 61.385 11.227 3.18 22.86 5.146 34.783 5.773v-65.713c-8.642-.172-17.234-.645-25.74-1.445z"></path></svg>