<svg stroke="currentColor" fill="currentColor" stroke-width="0" viewBox="0 0 512 512" height="1em" width="1em" xmlns="http://www.w3.org/2000/svg"><path d="M269 34.19l-25.2 6.77c8.2 44.13 18.1 74.34 42.6 120.24l1.1 2-.3 24.6c3.7 6.3 8.9 11.7 15.4 17 23.9 16.5 43.2 25.5 66.6 37.7l-7.9 8.6c-8.4 9.1-21.3 12.8-36 14-12 .9-25.3-.1-38.9-3l-.2 19.4c26 7.5 50.6 9.6 74.2.3 14.8-5.8 25.3-17.8 34.4-33.7 5.5-9.7 10.4-20.7 15.1-31.9l8.2-29.4 1.6-1.6c35.9-37.5 53-68.6 70.9-105.38l-14.5-18.8c-24.9 37.68-48.5 77.68-87.8 108.88-1 1.2-2 2.4-3.1 3.6-8.7 9.6-20.9 15.6-33.8 14.1-12.9-1.5-23.4-10.1-29.8-21.3-3.1-5.5-5.3-11.7-6.6-18.2-19.6-36.1-38.7-73.51-46-113.91zm91 58.01c-5.5.12-11.2 2.89-16.2 8.4-5.9 6.3-10.4 16-11.7 27.4-1.3 11.4.9 21.9 5.2 29.4 4.1 7.4 9.9 11.6 16.2 12.3 6.2.7 12.8-2.1 18.5-8.3 5.9-6.3 10.4-16.1 11.7-27.5 1.3-11.3-.9-21.9-5.2-29.3-4.1-7.45-9.9-11.57-16.2-12.29-.8-.1-1.6-.13-2.3-.11zm-116 71.1c-7 0-12.7 1.6-17 4.1-8.7 5-12 12.5-9.8 20.1 7.9 28.1 35.5 46.7 64.9 55 14.7 4.1 29.7 5.6 41.8 4.6 4.3-.3 8.1-1.1 11.5-2-15.9-8.2-31.3-16.1-44-26.3-15.4-12.3-26.6-29-28.1-51.4-7.2-2.8-13.7-4.1-19.3-4.1zm186.3 50.8c-6 14.4-12 29.2-19.9 42.9-10.1 17.7-23.5 33.7-43.4 41.6-41.6 16.5-84 2.9-124.8-13.7-40.7-16.6-81-36.3-119.2-37.5-35.54 1.6-69.3 6.5-103.37 14.7v229.5H187.6c-37.7-28-67.8-64.5-72-107.3-1-11.5 1.4-24 11.5-31.1 7.9-4.4 16.4-4 24-.4 7.1 3.3 13.4 8.4 19.1 13.7 8.3 7.6 15.2 15.9 18.4 19.9 5.4-.9 11.3-1.4 16.3-1.7.3-4.1.8-9.1 1.7-14.3 1.1-6 2.1-12.6 5.6-18 5.5-8.5 10.1-13.2 19-13.2 7.3-.1 13.6 4 18.3 8.6 5.4 5.2 9.6 11.8 13.1 18.2 5.9 10.8 9.7 21.1 10.9 24.4.9.2 1.7.3 2.6.4 3.8.6 7.7 1.1 11.5 1.7.9-2.6 2.2-6.2 3.9-9.8 1.6-3.5 3.6-7.2 6.5-10.5 2.9-3.4 7.2-7 13.4-7.1 6.6-.2 11.5 3.5 15 7.1 3.4 3.7 6 7.8 8.1 11.8 3.2 6.3 5.4 12.2 6.3 14.7 7 .4 13.7.6 20.2.4 25.6-.7 45.8-6.5 58.8-21.8 18.8-22 32.6-53.3 34.8-84.8 1.9-27.6-4.7-55.2-24.3-78.4zM228.2 360.6c-3.5 8-4.5 15.9-5.3 24.2 9.7.4 19.8 1.5 30.1 2.8-4.6-9.6-8.6-19.6-16.1-27-4.6-4.4-6.6-3.9-8.7 0zm-90.7 7.4c-3.3 2.3-4.7 6.4-4 14.7 2 12.4 5.8 22.7 10 32.8 6.3-10.8 15.5-18.4 26.4-23.3-8.2-8.6-15.6-17.9-26.4-23.1-2-.8-4.1-2-6-1.1zm168.3 27c5 .7 10 1.4 15 1.9-8.3-15.4-8-18.9-15-1.9z"></path></svg>