<svg stroke="currentColor" fill="currentColor" stroke-width="0" viewBox="0 0 512 512" height="1em" width="1em" xmlns="http://www.w3.org/2000/svg"><path d="M134.745 22.098c-4.538-.146-9.08 1.43-14.893 7.243-5.586 5.586-11.841 21.725-15.248 35.992-.234.979-.444 1.907-.654 2.836l114.254 105.338c-7.18-28.538-17.555-59.985-29.848-86.75-11.673-25.418-25.249-46.657-37.514-57.024-6.132-5.183-11.56-7.488-16.097-7.635zM92.528 82.122L82.124 92.526 243.58 267.651l24.072-24.072L92.528 82.122zm-24.357 21.826c-.929.21-1.857.42-2.836.654-14.267 3.407-30.406 9.662-35.993 15.248-5.813 5.813-7.39 10.355-7.244 14.893.147 4.538 2.452 9.965 7.635 16.098 10.367 12.265 31.608 25.842 57.025 37.515 26.766 12.293 58.211 22.669 86.749 29.848L68.17 103.948zM280.899 255.79l-25.107 25.107 73.265 79.469 31.31-31.31L280.9 255.79zm92.715 85.476l-32.346 32.344 2.07 2.246c.061.058 4.419 4.224 10.585 6.28 6.208 2.069 12.71 2.88 21.902-6.313 9.192-9.192 8.38-15.694 6.31-21.902-2.057-6.174-6.235-10.54-6.283-10.59l-2.238-2.065zm20.172 41.059a46.23 46.23 0 0 1-5.233 6.226 46.241 46.241 0 0 1-6.226 5.235L489.91 489.91l-96.125-107.586z"></path></svg>