<svg stroke="currentColor" fill="currentColor" stroke-width="0" viewBox="0 0 512 512" height="1em" width="1em" xmlns="http://www.w3.org/2000/svg"><path d="M415 26.08c-45.5-.55-114 109.42-124 148.32-7.9 37 71.8 92.2 85.3-22.3 4.1-34.8 55.5-120.32 43.6-125.42v-.1c-.1 0-.3-.1-.6-.1-1.4-.25-2.9-.39-4.3-.4zm57.7 21.96c-12.2-1.44-34.4 93.16-55.4 120.66-69.9 91.7 25.7 107.4 45.6 75.3 20.8-36 49.1-169.82 10.9-195.52-.1-.1-.3-.2-.5-.3-.2-.1-.4-.12-.6-.14zM130.3 202.5C84.67 203 26.14 322.6 20.16 363.1c-4.03 37.6 81.04 84.2 82.64-31 .4-35.1 42.7-125.5 30.3-129.4v-.1h-.6c-.7-.1-1.4-.1-2.2-.1zm57.6 16c-12.3-.1-24.6 96.4-42.6 125.8-60.06 98.5 36.7 104.2 53.1 70.2 17-38 31.3-174.1-9.4-195.7-.1-.1-.3-.1-.5-.2s-.4-.1-.6-.1zm116.3 11.9c-9.1-.1-16.7 3.2-19.9 9.5-5.3 10.9 3.9 26.5 20.8 35 16.8 8.4 35 6.4 40.3-4.4 5.5-10.9-3.8-26.5-20.7-34.9-1.1-.6-2.1-1-3.1-1.4-6-2.6-12-3.8-17.4-3.8zm77.4 31.7c-12 0-21.9 4.8-24.5 13.1-3.7 11.5 8 25.6 26 31.2 18 5.7 35.5.9 39.2-10.7 3.5-10.7-6.6-23.8-22.7-30l-3.3-1.2c-5-1.6-10.1-2.3-14.7-2.4zM41.81 417.2c-10.35.3-18.76 4.5-21.53 11.7-4.14 11.4 6.63 26 24.32 32.7 17.58 6.6 35.44 2.7 39.64-8.6 4.4-11.4-6.5-25.9-24.22-32.5-1.16-.5-2.19-.8-3.23-1.1-5.16-1.6-10.27-2.3-14.98-2.2zm82.39 23.6c-14.2-.1-25.85 6-27.85 15.7-2.51 11.8 10.65 24.6 29.15 28.3 18.5 3.8 35.4-2.8 37.9-14.7 2.4-11-9-23-25.7-27.5-1.1-.2-2.2-.5-3.4-.8-3.4-.7-6.9-1-10.1-1z"></path></svg>