<svg stroke="currentColor" fill="currentColor" stroke-width="0" viewBox="0 0 512 512" height="1em" width="1em" xmlns="http://www.w3.org/2000/svg"><path d="M201.2 18.02c-7.5 18.43-14.9 39.97-36.4 53.59l-3.8 2.4-4.2-1.6c-7.5-2.85-13.7-7.31-18.9-12.42 1.2 32.51 3.3 65.11 5 97.81 24.3-17 44.8-27.6 69-36.7l33.6 42.4c-4.5 1.6-9.4 3.2-13.8 4.9l-6.3 70.6-20.5 21.8 39.5 22.6 51.9-21.4-23-19.4-8.9-73.3c-5-1.9-10.2-3.6-15.4-5.5 11.2-14.1 22.3-28.3 33.6-42.4 23.4 8.9 47.3 20.9 65 33.7-1.3-35.6-.6-71.97 2.2-109.21-7.7 5.32-15.5 10.38-23.1 14.56-13.2 7.15-24.9 12.69-37 10.98-14.2-2.03-23.5-13.27-31.7-24.64-7.2-9.95-13.7-20.75-19.5-28.77zM18.51 19.11c2.09 4.8 4.64 10.38 7.84 16.43 7.85 14.87 19.56 30.33 27.54 33.88 4.72 2.1 6.66 1.61 10.75-.37s9.39-6.25 16.15-10.67c9.22-6.03 22.01-11.36 38.61-9.63-.2-5.53-.3-11.06-.4-16.61l-.2-13.03zm112.29 0l4.9 8.27c6.2 10.39 13.9 20.83 23.3 26.18 10.7-8.47 16.4-20.65 22.1-34.45zm130.3 0c3.9 5.89 7.7 11.84 11.5 17.12 7.4 10.2 14.9 16.69 19.7 17.38 2.8.41 13.9-2.53 25.8-8.97 11.8-6.45 25.1-15.59 36.4-24.54l1.3-.99zm108.8 0c-1.4 15.51-2.7 32.08-3.5 45.64 15.6 3.2 31.9 12.6 46.9 10.08 11.1-2.08 22.1-12.72 35-22.71 8.7-8.17 19.3-4.28 29-6.67 9.2-4.48 12.9-17.72 15.8-26.34zM206 142.7c-28.4 11.4-51.1 26.7-70 44.7l7.4 13.9c20.3-17 43.2-33.7 72.6-46zm82.5.3l-10 12.6c29.4 12.3 52.3 29 72.6 46l7.4-13.9c-18.9-18-41.6-33.3-70-44.7zm-78.3 63.7l-51.6 19.7c-8.5-9-5.7-9.7-13.4-3.2.3 28.6-.3 57.3-2.9 86.4 11.4-3.7 23.6-7.7 35.6-11.9 12.5-4.3 24-8.3 34.4-12L176.1 265l31.9-33.8zm77 1.4l3.1 25.3 40.2 34-48.5 20c26.2 9.7 57.5 16.5 87.1 22.9-6.8-27.3-12-55-15.6-83.2-3.3-2.8-6.9-6-10-8.5l-7.6 8.1zm-28.7 89l-15.3 6.3-10.3-5.9c-12 4.4-29.3 10.5-49.1 17.3-16.7 5.7-33.5 11.2-48.3 15.8 13.5 2.6 27.6 4.6 41.3 5.5 26.6 1.8 51.3-1.3 66.3-11.2l5-3.3 5 3.3c17.5 11.6 45 14.1 73.3 11.2 14.4-1.4 28.8-4.2 42.2-7.4-36.5-7.7-77.2-16-110.1-31.6zm120.4 47.7c-32.6 7.4-65.2 13.4-96.4 8.9 17.1 24.2 17.7 65.9 14.2 94.1h-.7l58.3 46.2c-.9-4.4-1.6-8.9-1.9-13.3-.9-15.1 2.3-30.8 12.3-43.6l5-6.4 6.8 4.2c42.5 26.3 75.8 41.4 116.4 44.9-40.3-32.2-69.6-65.9-104.8-109.1-4.1-8.1-6.7-17.9-9.2-25.9zm-241.4 4.4c-.4 2.8-.4 5.5-2 7.8-33.2 54.5-59.53 70.3-113.53 105.7 34.78 4 70.98-1.9 92.33-18.1l13.7-10.4.7 17.2c-.4 25.1 9.1 27.9 22.1 43.4 13.5-9.1 24.6-13 31.1-17.1 12.1-11.4 13.7-20.4 15.2-32.3-4.8-27.8-5.2-67.9 10.7-91.5-10.4 1-21.3.9-32.2.2-12.7-.9-25.7-2.6-38.1-4.9z"></path></svg>