<svg stroke="currentColor" fill="currentColor" stroke-width="0" viewBox="0 0 512 512" height="1em" width="1em" xmlns="http://www.w3.org/2000/svg"><path d="M107.688 17.094c-4.176.038-7.723 1.706-8.938 4.625-.413.99-.5 2.04-.344 3.093h-.03c-9.677.39-17.714 4.79-19.782 11.625-2.046 6.762 2.318 14.026 10.312 18.656-15.296 33.985-20.856 75.19-19.875 114.5 4.658-4.73 10.484-8.162 17.25-9.406 1.492-.275 2.965-.418 4.44-.47 5.344-.185 10.54 1.055 15.343 3.313-5.568-33.484-4.603-70.263.53-103.186 10.516.146 19.485-4.344 21.688-11.625 1.775-5.865-1.292-12.082-7.343-16.657.475-.52.89-1.107 1.157-1.75 1.767-4.246-2.03-9.48-8.47-11.72-2.01-.7-4.038-1.017-5.936-1zm301.343 0c-1.897-.018-3.956.3-5.967 1-6.438 2.238-10.205 7.473-8.438 11.718.154.37.337.733.563 1.063-6.663 4.624-10.113 11.187-8.25 17.344 2.123 7.017 10.54 11.413 20.562 11.593 5.143 32.96 6.118 69.793.53 103.312 4.288-2.052 8.904-3.272 13.658-3.406.64-.02 1.292-.024 1.937 0 1.474.05 2.978.193 4.47.468 6.646 1.222 12.36 4.557 16.967 9.156.954-39.05-4.525-79.96-19.625-113.78 8.54-4.598 13.307-12.124 11.188-19.127-1.965-6.494-9.318-10.785-18.344-11.53.18-1.083.083-2.167-.342-3.188-1.215-2.92-4.73-4.588-8.907-4.626zM171.095 176.406l-44.03 6.875c3.87 6.632 6.715 14.286 8.25 22.626.597 3.257.96 6.475 1.124 9.656 15.313 2.683 30.237 8.75 43.53 18.532l-8.874-57.688zm173.03 0l-8.874 57.688c13.04-9.597 27.65-15.586 42.656-18.344.156-3.242.515-6.523 1.125-9.844 1.544-8.39 4.406-16.09 8.314-22.75l-43.22-6.75zm-252.687 1.97c-.604.02-1.193.078-1.78.186-4.704.866-9.01 4.48-12.094 11.375-3.086 6.896-4.378 16.688-2.47 27.063l.032.156c1.927 10.305 6.597 18.93 11.906 24.25 5.338 5.347 10.642 7.178 15.345 6.313 4.703-.866 9.008-4.48 12.094-11.376 3.084-6.896 4.376-16.687 2.468-27.063-1.91-10.374-6.6-19.058-11.938-24.405-4.003-4.01-7.993-6.037-11.72-6.438-.62-.066-1.238-.083-1.843-.062zm330.563 0c-.306.01-.627.028-.938.06-3.725.402-7.715 2.43-11.718 6.44-5.337 5.346-9.998 14.03-11.906 24.405-1.91 10.377-.617 20.168 2.468 27.064 3.086 6.895 7.36 10.51 12.063 11.375 4.702.864 10.005-.967 15.342-6.314 5.338-5.346 10.03-14.03 11.938-24.406 1.908-10.375.617-20.167-2.47-27.063-3.084-6.895-7.39-10.51-12.092-11.375-.882-.162-1.77-.22-2.688-.187zm35.594 15.718c1.657 8.185 1.713 17.137.03 26.28-.627 3.415-1.457 6.713-2.5 9.876 11.337 6.967 21.427 16.068 29.47 27.125l8.906-57.688-35.906-5.593zm-400.875.125l-35 5.468 8.905 57.687c7.88-10.83 17.724-19.777 28.78-26.688-1.112-3.296-2.03-6.738-2.686-10.312-1.674-9.097-1.633-18.005 0-26.156zm325.124 47.343C330.998 382.873 208.514 462.268 16.5 437.375c113.218 81.753 233.292 64.953 317.688-4.72.667-.52 1.34-1.035 2-1.56-.033-.01-.062-.025-.094-.033 50.656-42.57 88.153-104.327 103.156-175.187-8.334 7.73-19.34 12.3-30.656 10.22-11.924-2.194-20.852-11.148-25.75-22.095-.356-.794-.68-1.62-1-2.438zm-249.72 1.03c-.193.47-.387.947-.593 1.407-4.897 10.947-13.857 19.9-25.78 22.094-11.923 2.193-23.465-3.012-31.938-11.5 13.17 63.342 44.32 119.488 86.813 161.25 26.506-5.336 54.813-14.98 79.03-27.844-49.324-34.38-85.212-84.014-107.53-145.406zM359.44 435.97c-21.79 19.47-48.244 36.61-75.282 49.655 66.544 15.796 141.17 3.617 213-48.25-50.78 6.584-96.69 5.82-137.72-1.406z"></path></svg>