<svg stroke="currentColor" fill="currentColor" stroke-width="0" viewBox="0 0 512 512" height="1em" width="1em" xmlns="http://www.w3.org/2000/svg"><path d="M84.557 20.31c46.3 37.518 62.25 65.617 53.53 93.102C100.49 84.18 60.77 67.422 20.666 52.908v36.608c36.057 8.926 71.558 21.116 104.804 46.54-13.053 16.635-34.362 33.918-62.75 53.73l81.99 35.407c-.453 3.38-.642 6.85-.507 10.407.573 15.082 7.218 28.014 16.3 38.914 7.177 8.615 15.9 16.206 25.077 23.468l-63.877 46.57-101.037-58.72v45.738c112.43 11.546 144.12 112.475 0 135.832v26.547h22.818l115.01-54.788c-46.436-55.056-3.446-101.025 44.4-127.89 20.244 15.41 39.46 30.752 47.838 48.93l8.487 18.41 8.485-18.41c3.777-8.196 9.772-15.81 17.055-23.118l15.303 115.51c49.028-28.366 133.015 6.997 141.394 41.355h52.85v-4.72l-68.87-83.24c-66.362 44.197-111.586-5.474-118.148-88.37 5.94-4.64 12.094-9.252 18.2-13.913 10.46-7.983 20.702-16.163 29.213-25.492 35.543 15.528 46.467 41.64 24.895 79.65l114.71-8.654V306.01l-80.105 17.2c-5.02-24.163-5.625-41.7 22.13-65.864-21.682-3.325-43.248-5.917-64.68-7.045 1.468-4.655 2.386-9.55 2.58-14.7v-.002c.28-7.325-.764-14.305-2.848-20.81 33.3-10.236 64.53-23.598 93.912-39.75l-94.375-56.003c37.818-26.36 78.284-37.675 123.385-49.07V20.31H423.63c-19.42 39.684-67.117 76.64-126.712 112.08 38.692 3.463 133.353 27.43 62.64 61.05-9.054-10.854-21.457-18.803-34.85-22.495-13.712-3.78-28.856-3.107-42.388 3.856-8.82 4.54-16.73 11.757-23.1 21.516-6.373-9.76-14.283-16.977-23.103-21.515-6.766-3.48-13.933-5.39-21.125-5.954-7.19-.566-14.406.21-21.262 2.1-16.032 4.418-30.65 14.93-39.792 29.236l-36.323-17.405c29.32-43.383 61.55-71.547 96.914-85.156-35.393-27.574-58.06-45.938-73.206-77.31H84.557zM209.79 187.333c1.23-.02 2.453.02 3.67.113 4.87.377 9.63 1.668 14.106 3.97 8.953 4.607 17.226 13.358 22.86 29.026l8.793 24.455 8.792-24.455c5.633-15.668 13.907-24.42 22.86-29.025 8.95-4.606 19.04-5.164 28.87-2.455 19.66 5.418 36.654 23.902 35.82 45.928-.386 10.132-4.602 18.803-11.982 27.66-7.38 8.86-17.894 17.5-29.428 26.302-18.87 14.403-40.57 29.167-54.933 49.314-14.363-20.146-36.062-34.91-54.933-49.314-11.533-8.803-22.048-17.443-29.428-26.3-7.38-8.86-11.597-17.53-11.98-27.66-.836-22.026 16.156-40.51 35.815-45.93 3.686-1.015 7.41-1.572 11.096-1.628z"></path></svg>