<svg stroke="currentColor" fill="currentColor" stroke-width="0" viewBox="0 0 512 512" height="1em" width="1em" xmlns="http://www.w3.org/2000/svg"><path d="M256 21c-17.065 0-32.536 1.784-43.072 4.418-3.267.817-5.818 1.714-7.95 2.582 2.132.868 4.683 1.765 7.95 2.582C223.464 33.216 238.935 35 256 35s32.536-1.784 43.072-4.418c3.267-.817 5.818-1.714 7.95-2.582-2.132-.868-4.683-1.765-7.95-2.582C288.536 22.784 273.065 21 256 21zm-72.203 11.64c-4.585 1.973-8.24 4.05-10.682 5.973C169.51 41.455 169 43.23 169 44c0 .77.51 2.545 4.115 5.387 3.606 2.842 9.813 6.025 17.848 8.703C207.033 63.446 230.3 67 256 67c25.7 0 48.967-3.554 65.037-8.91 8.035-2.678 14.242-5.86 17.848-8.703C342.49 46.545 343 44.77 343 44c0-.77-.51-2.545-4.115-5.387-2.44-1.923-6.097-4-10.682-5.974-1.58 4.39-5.256 7.33-8.652 9.337-4.474 2.645-9.8 4.49-16.112 6.068C290.81 51.202 274.28 53 256 53c-18.28 0-34.81-1.798-47.438-4.955-6.313-1.578-11.638-3.423-16.113-6.068-3.397-2.008-7.074-4.948-8.653-9.338zM347.99 65.032c-5.785 4.093-12.926 7.354-21.26 10.133C308.052 81.39 283.32 85 256 85c-27.32 0-52.053-3.61-70.73-9.834-8.33-2.777-15.467-6.036-21.25-10.125-24.608 16.21-45.61 38.716-61.21 65.64 3.276 5.266 5.99 11.497 8.356 18.59 4.585 13.756 7.744 30.802 9.094 49.742L140.27 179h19.072c16.006-37.578 53.313-64 96.658-64s80.652 26.422 96.658 64h34.026v82h-34.026c-16.006 37.578-53.313 64-96.658 64s-80.652-26.422-96.658-64h-19.07l-20.012-20.012c-1.35 18.94-4.51 35.986-9.094 49.74-3.113 9.338-6.826 17.19-11.64 23.3-3.33 4.225-7.537 7.852-12.483 9.69 6.29 17.048 14.535 32.926 24.414 47.282H151v-32h50v32h110v-32h50v32h39.543c9.88-14.356 18.123-30.234 24.414-47.283-4.946-1.837-9.152-5.464-12.482-9.69-4.815-6.11-8.528-13.96-11.64-23.298C394.608 272.052 391 247.32 391 220c0-27.32 3.61-52.053 9.834-70.73 2.362-7.085 5.073-13.31 8.346-18.573-15.604-26.92-36.58-49.456-61.19-65.664zM80 133c-.77 0-2.545.51-5.387 4.115-1.923 2.44-4 6.097-5.974 10.682 4.39 1.58 7.33 5.256 9.337 8.652 2.645 4.474 4.49 9.8 6.068 16.113C87.202 185.19 89 201.72 89 220c0 18.28-1.798 34.81-4.955 47.438-1.578 6.313-3.423 11.638-6.068 16.113-2.008 3.397-4.948 7.074-9.338 8.653 1.973 4.585 4.05 8.24 5.973 10.682C77.455 306.49 79.23 307 80 307c.77 0 2.545-.51 5.387-4.115 2.842-3.606 6.025-9.813 8.703-17.848C99.446 268.967 103 245.7 103 220c0-25.7-3.554-48.967-8.91-65.037-2.678-8.035-5.86-14.242-8.703-17.848C82.545 133.51 80.77 133 80 133zm176 0c-40.18 0-73.872 27.046-83.932 63.977h-21.2V197h-3.14l-23 23 23 23H151v-.022h21.057C182.1 279.932 215.804 307 256 307s73.9-27.068 83.943-64.02H361v.02h7.684v-.02h.025v-46.003H339.93C329.872 160.047 296.18 133 256 133zm176 0c-.77 0-2.545.51-5.387 4.115-2.842 3.606-6.025 9.813-8.703 17.848C412.554 171.033 409 194.3 409 220c0 25.7 3.554 48.967 8.91 65.037 2.678 8.035 5.86 14.242 8.703 17.848C429.455 306.49 431.23 307 432 307c.77 0 2.545-.51 5.387-4.115 1.923-2.44 4-6.097 5.974-10.682-4.39-1.58-7.33-5.256-9.337-8.652-2.645-4.474-4.49-9.8-6.068-16.112C424.798 254.81 423 238.28 423 220c0-18.28 1.798-34.81 4.955-47.438 1.578-6.313 3.423-11.638 6.068-16.113 2.008-3.397 4.948-7.074 9.338-8.653-1.973-4.585-4.05-8.24-5.973-10.682C434.545 133.51 432.77 133 432 133zm-176 14c40.21 0 73 32.79 73 73s-32.79 73-73 73-73-32.79-73-73 32.79-73 73-73zm0 18c-2.643 0-5.236.196-7.777.553L256 173.33l7.777-7.777c-2.54-.357-5.134-.553-7.777-.553zm-192 3.98c-.868 2.13-1.765 4.68-2.582 7.948C58.784 187.464 57 202.935 57 220s1.784 32.536 4.418 43.072c.817 3.267 1.714 5.818 2.582 7.95.868-2.132 1.765-4.683 2.582-7.95C69.216 252.536 71 237.065 71 220s-1.784-32.536-4.418-43.072c-.817-3.267-1.714-5.818-2.582-7.95zm384 0c-.868 2.13-1.765 4.68-2.582 7.948C442.784 187.464 441 202.935 441 220s1.784 32.536 4.418 43.072c.817 3.267 1.714 5.818 2.582 7.95.868-2.132 1.765-4.683 2.582-7.95C453.216 252.536 455 237.065 455 220s-1.784-32.536-4.418-43.072c-.817-3.267-1.714-5.818-2.582-7.95zm-218.84 2.967c-8.897 4.96-16.252 12.316-21.213 21.213l14.112 14.11 21.21-21.21-14.11-14.113zm53.68 0l-14.11 14.112 21.21 21.21 14.113-14.11c-4.96-8.897-12.316-16.252-21.213-21.213zM256 198.787L234.787 220 256 241.213 277.213 220 256 198.787zm-54.447 13.436c-.357 2.54-.553 5.134-.553 7.777s.196 5.236.553 7.777L209.33 220l-7.777-7.777zm108.894 0L302.67 220l7.777 7.777c.357-2.54.553-5.134.553-7.777s-.196-5.236-.553-7.777zM222.06 232.73l-14.113 14.11c4.96 8.897 12.316 16.252 21.213 21.213l14.11-14.112-21.21-21.21zm67.88 0l-21.21 21.21 14.11 14.113c8.897-4.96 16.252-12.316 21.213-21.213l-14.112-14.11zM256 266.67l-7.777 7.777c2.54.357 5.134.553 7.777.553s5.236-.196 7.777-.553L256 266.67zM169 357v14h14v-14h-14zm160 0v14h14v-14h-14zm-208 32v30h270v-30H121zm-93.6 48c2.473 5.036 6.916 10.005 14.315 15.078 11.75 8.058 29.705 15.387 51.603 21.227C137.116 484.985 196.6 491 256 491c59.4 0 118.884-6.016 162.682-17.695 21.898-5.84 39.852-13.17 51.603-21.227 7.4-5.073 11.842-10.042 14.315-15.078H27.4z"></path></svg>