<svg stroke="currentColor" fill="currentColor" stroke-width="0" viewBox="0 0 512 512" height="1em" width="1em" xmlns="http://www.w3.org/2000/svg"><path d="M276.44 20.63v473.227c43.08-1.258 82.452-26.44 111.833-68.043 30.15-42.69 49.18-102.418 49.18-168.57 0-66.152-19.027-125.88-49.178-168.57C358.895 47.072 319.52 21.89 276.44 20.63zM156.07 227.194c-10.05.02-20.717.973-31.93 2.67-.857 98.74 54.765 57.68 122.387 65.075-14.887-50.39-46.9-67.83-90.457-67.745zm231.46 0c10.05.02 20.717.973 31.93 2.67.855 98.74-54.767 57.68-122.39 65.075 14.887-50.39 46.903-67.83 90.46-67.745z"></path></svg>