<svg stroke="currentColor" fill="currentColor" stroke-width="0" viewBox="0 0 512 512" height="1em" width="1em" xmlns="http://www.w3.org/2000/svg"><path d="M248.672 23.266l-64 32 61.566 15.39V87h19.524V23.266h-17.09zM146.334 105c13.692 21.145 20.243 47.388 20.164 73.742-.08 26.744-6.98 53.69-20.805 75.793h234.23c16.93-18.827 26.41-46.276 26.677-74.15.267-27.947-8.674-55.727-26.647-75.385h-233.62zM416 155.244L441 231h62v-14h-39v-18h39v-1.438l-32-16v-15.076l-55-11.242zm-371.492 6.61c-6.67.12-13.668 2.495-18.922 7.833-9.12 9.27-9.382 21.518-7.256 29.637 2.126 8.12 6.344 13.905 6.344 13.905l14.652-10.46s-2.4-3.49-3.584-8.006c-1.183-4.518-1.444-8.27 2.672-12.452 1.932-1.962 4.236-2.685 7.53-2.43 3.293.257 7.228 1.863 10.148 4.263s4.68 5.353 5.068 8.025c.388 2.67-.034 5.552-3.86 9.822l-.06.065-.054.064c-19.097 22.143-25.463 40.51-25.323 78.704.14 38.193.465 69.313 40.77 97.133l-56.87 48.746 11.714 13.666 61.35-52.585c2.307 1.25 4.674 2.5 7.173 3.75 7.86.786 15.04 1.502 22.164 2.21l-38.45 32.958 11.714 13.666 51.55-44.186c11.823 1.147 22.805 2.183 32.77 3.06l-32.035 27.46 11.715 13.665 45.582-39.07c12.314.895 23.462 1.514 34.158 1.87l-27.455 23.533 11.715 13.666 43.027-36.882c12.13-.13 24.454-.622 38.07-1.482l-28.812 24.697 11.715 13.666 47.427-40.653c12.838-1.1 27.384-2.48 43.473-4.053l-37.316 30.943 11.49 13.858 57.848-47.967c3.278-.327 6.228-.62 9.65-.963 50.065-50.065 60.964-100.13 63.338-142.535H441.68c-13.08 22.76-22.973 42.718-48.78 57.828 3.594 6.09 5.67 13.167 5.67 20.707 0 22.537-18.463 41-41 41-12.906 0-24.468-6.062-32-15.47-7.53 9.408-19.094 15.47-32 15.47-12.906 0-24.468-6.062-32-15.47-7.53 9.408-19.094 15.47-32 15.47-14.623 0-27.523-7.777-34.785-19.392-7.262 11.615-20.162 19.392-34.785 19.392-22.537 0-41-18.463-41-41 0-.17.012-.338.014-.508-29.774-3.39-49.577-21.213-64.58-42.46-5.57-7.888-4.7-17.596-4.704-25.907-.005-11.62 3.798-24.738 21.084-44.78l-.113.128c6.645-7.412 9.443-16.39 8.275-24.428-1.17-8.04-5.742-14.646-11.455-19.342-5.714-4.695-12.713-7.72-20.18-8.3-.934-.073-1.88-.102-2.832-.084zm201.73 110.68v17.59c6.004 2.7 11.26 6.794 15.332 11.88 1.282-1.6 2.69-3.096 4.192-4.49v-24.98h-19.524zm-86.238 32c-12.81 0-23 10.192-23 23 0 12.81 10.19 23 23 23s23-10.19 23-23c0-12.808-10.19-23-23-23zm69.57 0c-12.81 0-23 10.192-23 23 0 12.81 10.19 23 23 23s23-10.19 23-23c0-12.808-10.19-23-23-23zm64 0c-12.81 0-23 10.192-23 23 0 12.81 10.19 23 23 23s23-10.19 23-23c0-12.808-10.19-23-23-23zm64 0c-12.81 0-23 10.192-23 23 0 12.81 10.19 23 23 23s23-10.19 23-23c0-12.808-10.19-23-23-23z"></path></svg>