<svg stroke="currentColor" fill="currentColor" stroke-width="0" viewBox="0 0 512 512" height="1em" width="1em" xmlns="http://www.w3.org/2000/svg"><path d="M324.9 22.5c-5.1 0-10 .36-14.6 1.22-.7 3.02-.1 3.89 2.5 6.38 2.8 2.82 8.7 6.14 15.8 9.17 7 3.03 15 5.92 22.4 9.44 4.7 2.28 9.4 4.73 13.2 8.26 12.3 1.11 23.6 4.95 35.5 10.9-.6-3.96-.9-7.81-1.2-11.24-.5-5.39-1.1-10.07-2-12.93-1-2.86-1.6-3.52-3.3-4.27h-.1c-12.3-5.3-32.8-12.94-53.2-15.78-5.1-.72-10.1-1.15-15-1.15zm-31.8 7.71c-1.9 1.2-3.7 2.54-5.3 4.06h-.1S179.2 132 135.1 186.6c-15.7 19.3-24.9 45.3-43.38 67.6-19.38 23.4-59.28 57.3-63.68 61.1-2.04 16.5 4.19 37 17.04 58.1 13.58 22.3 34.09 45.1 57.02 64.3 22.9 19.3 48.3 35.1 71.3 43.9 22.4 8.7 42 10.2 54.5 4.6 42.6-36.4 78.7-79.2 113.1-124.1 17-22.2 22.6-32.9 26.4-41.1 3.8-8.2 6.4-15.4 15.6-26.2 28.7-33.8 94.5-83 97-84.9.3-.3.7-.9 1.1-1.6-.6-.1-1.2-.2-1.7-.3-4.8-1.2-8.7-3.9-12-7-6.6-6.1-11.7-14.4-16.6-22.9-4.8-8.5-9.4-17.3-13.6-23.9-1.1-1.7-2.2-3.2-3.2-4.5-7.2 2-24.8 7.4-41 16.6-10.6 6-20.3 13.5-26.2 21.7-5.8 8.3-8.3 16.7-5.3 28v-.1c10.6 39.2-20.4 85.7-73.4 100l-4.6-17.4c45-12.1 67.8-51.4 60.6-77.8v-.1c-4.3-16.3-.2-31.4 8.1-43 8.2-11.6 20-20.2 31.9-26.9 8.5-4.8 17.1-8.6 24.8-11.6-11.3-2.8-22.6-6.7-32.8-16.1-8.3-7.7-11.7-17.6-14.3-26.7-1.5-5.09-2.7-9.99-4.2-14.44-4.7 7.38-11.3 17.28-19.1 27.64-15.6 20.9-34.8 44-56.2 52.4h-.1c-17.3 6.7-36.3 4.9-53.1 7.2-16.8 2.3-30.4 7-41 25.4l-15.6-9c13.5-23.5 34.8-31.5 54.1-34.2 19.3-2.7 37.6-1.8 49.1-6.2 13.5-5.3 33.5-26.5 48.4-46.41 9.7-13.04 17.6-25.28 21.9-32.27-.8-.5-1.8-1-2.8-1.49-6.1-2.94-14-5.81-21.7-9.14-7.8-3.33-15.4-6.96-21.5-12.98-3.2-3.26-5.7-7.69-6.9-12.6zm123.6 27.26c1 9.74 2.4 17.24 6.8 20.87 3.4 2.86 10.8 3.32 20.1 3.31-2.2-3.55-4.8-6.88-7.1-9.3-4.6-4.91-12.5-11.24-19.8-14.88zm-233.8 8.24c-4.6.01-9 .37-13.2 1.02-22.5 3.49-40.5 15.55-53.7 32.91C94.29 128.3 86.93 171.2 98.9 209.7c6.1-10.8 12.4-21.9 20.6-32.4-1.6-23.9 1.6-47 13.9-63.9 8.3-11.4 21.2-19.35 37.5-21 8-.8 16.8-.15 26.4 1.95 7.8-7.59 15.4-14.92 22.7-21.89-11.6-4.08-22.4-6.2-32.5-6.66-1.6-.07-3.1-.1-4.6-.09zm192.2 11.43c1.6 4.97 2.7 9.79 4 14.18 2.4 8.24 5 14.58 9.2 18.48 7.7 7.2 17.6 9.8 29.5 12.7-2.3-10.8-6.7-21.9-12.4-30.8-11.6-7.06-21-11.89-30.3-14.56zm54.6 22.31c3.7 9.15 6.4 18.85 7.4 28.65 7 3.4 11 9.7 15.3 16.4 4.9 7.7 9.4 16.6 14 24.6 4.7 8.1 9.4 15.2 13.2 18.7 1.9 1.8 3.4 2.5 4.2 2.7.2.1.4.1.5.1 0-6-.5-12.9-1.6-20.4-3.1-20.8-10.5-45.5-19.9-65.9-1.1-2.3-1.9-2.8-4.4-3.6-2.5-.75-6.7-1.01-11.7-1.01-5 0-11 .51-17-.24zM175.4 247l6.3 9.1c26.8 38.5 59.7 69.9 104.4 89.8l11.5 5-68.6 74.9-48.9 13.9-3.5-2.3c-24.9-16.6-56.3-30-74.4-68.7L101 366l11.1-52 55.7-59 7.6-8zm-2 28.2l-44.7 47.4-8.8 40.9c14.8 29.5 38.3 40.7 63.1 56.6l36.2-10.3 48.5-52.9c-39.1-19.8-69.5-48.3-94.3-81.7z"></path></svg>