<svg stroke="currentColor" fill="currentColor" stroke-width="0" viewBox="0 0 512 512" height="1em" width="1em" xmlns="http://www.w3.org/2000/svg"><path d="M208.5 16.44l8.4 58.01c2.3 10.1 6.7 18.63 18.4 28.35-14.5 2.6-23.1 1.1-29.8-2C116.3 140 51.75 263.3 33.71 409.3c-1.63 12 13.75-2.6 26.92-9.8.26-1.9.54-3.8.85-5.7 7.7-47.9 30.82-104.6 56.62-149.2 12.8-22.2 26.3-41.3 39.4-54.8 6.5-6.8 12.9-12.2 19.5-15.8 5-2.7 10.3-4.5 15.8-4.4 1.8 0 3.6.2 5.5.7 8.3 2.2 14.4 8.6 18.6 16.2 4.2 7.6 7.1 17 9.3 27.8 4.4 21.7 6 49.5 6.3 79.9.5 54.4-3.3 117-4.3 163.4 10 14.2 21.5 38.1 27.2 38 6.3-.1 18.8-21.8 29.8-35-6.9-43.7-12.1-107.1-11.1-162.9.6-30.2 3-58.1 8.3-79.8 2.7-10.9 6-20.2 10.7-27.8 4.7-7.6 11.3-13.7 19.9-15.6 1.6-.4 3.2-.5 4.8-.5h1.6c6.4.2 12.6 2.8 18 6.6 7.2 5.1 13.8 12.4 20.2 21.4 12.8 18 25.2 42.8 37 70.9 20.4 48.5 39 106.2 52.6 151.1 14.8 11.7 33.5 32.7 31 16-15.4-112.4-73.2-279-157.3-333.9-7.1 3.8-15.8 6-31.9 3.1 9.2-7.6 13.9-14.53 16.6-22.02l1.1-70.74zm-16 171.16c-1.5 0-3.7.5-6.8 2.2-4.2 2.3-9.6 6.6-15.3 12.5-11.4 11.8-24.4 30-36.7 51.4-24.4 42.1-46.64 97-54.12 140.9 33.62-3 77.42 7.4 131.02 46.9 1.5-44.7 4.4-99.3 3.9-147.1-.3-29.9-2-57-5.9-76.5-2-9.8-4.6-17.6-7.4-22.7-2.8-5.1-5.3-6.9-7.5-7.5-.3-.1-.7-.1-1.2-.1zm126.3 4.3c-.7 0-1.3.1-2 .2-2.5.5-5.2 2.5-8.4 7.5-3.1 5-6.1 12.8-8.5 22.6-4.8 19.4-7.2 46.4-7.8 75.9-.9 50 3.5 107.4 9.4 149.2 53-32.9 90.7-41 123.9-33.1-12.9-42-29.6-92.1-47.4-134.3-11.5-27.4-23.7-51.5-35.1-67.4-5.7-8-11.2-13.9-15.8-17.1-3.5-2.5-6.1-3.4-8.3-3.5z"></path></svg>