<svg stroke="currentColor" fill="currentColor" stroke-width="0" viewBox="0 0 512 512" height="1em" width="1em" xmlns="http://www.w3.org/2000/svg"><path d="M65.44 18.39l-2.327 9.717C53.95 66.384 49.07 107.884 49.07 151.293c0 93.415 23.097 178.085 61.047 240.014 17.218 28.096 37.652 51.6 60.447 68.92 26.69 21.257 56.353 32.962 87.377 32.962.364 0 1.147-.12 1.927-.25.623.008 1.247.02 1.87.02 60.13 0 113.67-39.724 151.62-101.653 37.95-61.93 61.047-146.598 61.047-240.014 0-41.557-4.858-81.203-13.256-118.012l-2.324-10.19-9.582 4.176c-50.92 22.196-113.98 35.705-182.086 35.713-2.014-.022-4.01-.06-6.002-.103V62.8c-1.296 0-2.586-.017-3.88-.03-69.783-2.053-125.493-18.078-182.545-40.698l-9.29-3.683zm380.816 28.747c6.792 32.774 10.824 67.647 10.824 104.156 0 90.547-22.596 172.38-58.494 230.963-35.9 58.582-84.36 93.38-136.848 93.38-.195 0-.39-.006-.584-.007v-63.987c-2.64.023-5.28-.03-7.914-.163-55.358-2.77-109.316-38.91-122.03-99.742l-2.355-11.256h94.895l37.404 14.207V80.206c1.946.042 3.896.078 5.862.098h.087c66.168 0 127.672-12.383 179.152-33.168zm-279.53 98.12c35.365 0 64.036 13.248 64.036 29.59 0 16.34-28.668 29.585-64.035 29.585-35.365 0-64.036-13.246-64.036-29.586 0-16.34 28.67-29.588 64.037-29.588zm186.282 0c-35.367 0-64.035 13.248-64.035 29.59 0 16.34 28.67 29.585 64.035 29.585 35.367 0 64.035-13.246 64.035-29.586 0-16.34-28.67-29.588-64.035-29.588zM152.572 319.17c14.72 45.053 57.247 71.428 101.602 73.646 44.8 2.24 90.238-19.45 110.416-73.646h-57.447l-44.204 16.187-42.62-16.187h-67.748z"></path></svg>