<svg stroke="currentColor" fill="currentColor" stroke-width="0" viewBox="0 0 512 512" height="1em" width="1em" xmlns="http://www.w3.org/2000/svg"><path d="M148.595 25.125c-35.582-.093-62.553 9.909-80.52 26.615-18.548 17.245-26.965 41.05-27.073 65.65-.195 44.171 17.47 69.536 38.306 81.93 20.835 12.395 43.478 12.494 53.197 12.424 49.287-.355 83.718-38.835 84.804-75.272.48-16.103-5.29-33.649-16.957-47.793-11.667-14.144-29.912-24.69-52.666-24.55-38.619.239-64.006 29.365-64.632 58.966-.382 18.094 7.232 32.007 18.146 40.178 10.914 8.172 24.241 11.033 36.149 10.944 23.287-.173 39.02-16.675 38.891-34.023-.064-8.675-4.114-17.52-11.86-23.602-7.744-6.082-18.739-9.283-32.137-8.792l.721 18.416c9.944-.364 15.962 1.973 19.417 4.685 3.454 2.713 4.79 5.92 4.817 9.423.051 7.004-5.221 15.355-19.996 15.465-8.49.063-17.844-2.222-24.347-7.091s-11.042-11.893-10.76-25.225c.419-19.825 16.76-40.736 45.712-40.915 16.804-.103 28.99 7.107 37.66 17.617 8.67 10.51 13.141 24.517 12.806 35.765-.75 25.132-27.042 57.096-65.91 57.376-9.073.065-27.568-.465-43.082-9.695-15.515-9.229-29.41-26.484-29.235-66.153.091-20.652 6.881-39.106 21.223-52.44 14.342-13.335 36.774-22.135 70.388-21.438 43.062.891 63.104 17.87 74.391 39.452 11.288 21.581 12.375 48.778 11.263 67.186-1.154 19.09-8.812 33.688-20.921 45.753-12.11 12.065-28.898 21.352-47.62 28.04C131.326 237.4 86.295 240.17 59.492 237.76c-2.7 13.7-1.313 22.801 0 36.482 26.803-2.41 71.834.36 109.278 13.737 18.722 6.689 35.51 15.976 47.62 28.04 12.11 12.066 19.767 26.664 20.92 45.754 1.113 18.408.026 45.605-11.262 67.186-11.287 21.581-31.33 38.56-74.39 39.452-33.615.697-56.047-8.103-70.389-21.438-14.342-13.334-21.132-31.788-21.223-52.44-.174-39.67 13.72-56.924 29.235-66.153 15.514-9.23 34.01-9.76 43.082-9.695 38.868.28 65.16 32.244 65.91 57.376.335 11.248-4.137 25.255-12.806 35.765-8.67 10.51-20.856 17.72-37.66 17.617-28.952-.179-45.293-21.09-45.712-40.915-.282-13.332 4.257-20.356 10.76-25.225s15.858-7.154 24.347-7.09c14.775.11 20.047 8.46 19.996 15.464-.026 3.503-1.363 6.71-4.817 9.423-3.455 2.712-9.473 5.049-19.417 4.685l-.721 18.416c13.398.49 24.393-2.71 32.138-8.792 7.745-6.082 11.795-14.927 11.86-23.602.127-17.348-15.605-33.85-38.892-34.023-11.908-.089-25.235 2.772-36.149 10.944-10.914 8.171-18.528 22.084-18.146 40.178.626 29.601 26.013 58.727 64.632 58.965 22.754.14 41-10.405 52.666-24.55 11.666-14.143 17.437-31.69 16.957-47.792-1.086-36.437-35.517-74.917-84.804-75.272-9.719-.07-32.362.029-53.197 12.423-20.835 12.395-38.5 37.76-38.306 81.931.108 24.6 8.525 48.405 27.073 65.65 18.547 17.245 46.687 27.347 83.99 26.575 48.5-1.004 77.096-23.017 90.976-49.555 8.011-15.317 11.587-31.794 12.959-46.843 1.372 15.049 4.948 31.526 12.959 46.843 13.88 26.538 42.476 48.55 90.977 49.555 37.302.772 65.442-9.33 83.99-26.575 18.547-17.245 26.964-41.05 27.072-65.65.195-44.171-17.47-69.536-38.306-81.93-20.835-12.395-43.478-12.494-53.197-12.424-49.287.355-83.718 38.835-84.804 75.272-.48 16.103 5.29 33.649 16.957 47.793 11.667 14.144 29.912 24.69 52.666 24.55 38.619-.239 64.006-29.365 64.632-58.966.382-18.094-7.232-32.007-18.146-40.178-10.914-8.172-24.241-11.033-36.15-10.944-23.286.173-39.018 16.675-38.89 34.023.064 8.675 4.114 17.52 11.86 23.602 7.744 6.082 18.739 9.283 32.137 8.792l-.721-18.416c-9.944.364-15.962-1.973-19.417-4.685-3.454-2.713-4.79-5.92-4.817-9.423-.051-7.004 5.221-15.355 19.996-15.465 8.49-.063 17.844 2.222 24.347 7.091s11.042 11.893 10.76 25.225c-.419 19.825-16.76 40.736-45.713 40.915-16.803.103-28.99-7.107-37.659-17.617-8.67-10.51-13.141-24.517-12.806-35.765.75-25.132 27.042-57.096 65.91-57.376 9.073-.065 27.568.465 43.082 9.695 15.515 9.229 29.41 26.484 29.235 66.153-.091 20.652-6.881 39.106-21.223 52.44-14.342 13.335-36.774 22.135-70.388 21.438-43.062-.891-63.104-17.87-74.391-39.452-11.288-21.581-12.375-48.778-11.263-67.186 1.154-19.09 8.812-33.688 20.921-45.753 12.11-12.065 28.898-21.352 47.62-28.04 37.444-13.379 82.475-16.149 109.278-13.738 2.7-13.7 1.313-22.802 0-36.482-26.803 2.41-71.834-.36-109.278-13.737-18.722-6.689-35.51-15.976-47.62-28.04-12.11-12.066-19.767-26.664-20.92-45.754-1.113-18.408-.026-45.605 11.262-67.186 11.287-21.581 31.33-38.56 74.39-39.452 33.615-.697 56.047 8.103 70.389 21.438 14.342 13.334 21.132 31.788 21.223 52.44.174 39.67-13.72 56.924-29.235 66.153-15.514 9.23-34.01 9.76-43.082 9.695-38.868-.28-65.16-32.244-65.91-57.376-.335-11.248 4.137-25.255 12.806-35.765 8.67-10.51 20.856-17.72 37.66-17.617 28.952.179 45.293 21.09 45.712 40.915.282 13.332-4.257 20.356-10.76 25.225s-15.858 7.154-24.347 7.09c-14.775-.11-20.047-8.46-19.996-15.464.026-3.503 1.363-6.71 4.817-9.423 3.455-2.712 9.473-5.049 19.417-4.685l.721-18.416c-13.398-.49-24.393 2.71-32.138 8.792-7.745 6.082-11.795 14.927-11.86 23.602-.127 17.348 15.605 33.85 38.892 34.023 11.908.089 25.235-2.772 36.149-10.944 10.914-8.171 18.528-22.084 18.146-40.178-.626-29.601-26.013-58.727-64.632-58.965-22.754-.14-41 10.405-52.666 24.55-11.666 14.143-17.437 31.69-16.957 47.792 1.086 36.437 35.517 74.917 84.804 75.272 9.719.07 32.362-.029 53.197-12.423 20.835-12.395 38.5-37.76 38.306-81.931-.108-24.6-8.525-48.405-27.073-65.65-18.547-17.245-46.687-27.347-83.99-26.575-48.5 1.004-77.096 23.017-90.976 49.555-8.011 15.317-11.587 31.794-12.959 46.843-1.372-15.049-4.948-31.526-12.959-46.843-13.88-26.538-42.476-48.55-90.977-49.555a191.82 191.82 0 0 0-3.47-.04zM256 223.238A67.714 32.762 0 0 1 323.714 256 67.714 32.762 0 0 1 256 288.762 67.714 32.762 0 0 1 188.286 256 67.714 32.762 0 0 1 256 223.238z"></path></svg>