<svg stroke="currentColor" fill="currentColor" stroke-width="0" viewBox="0 0 512 512" height="1em" width="1em" xmlns="http://www.w3.org/2000/svg"><path d="M35.31 22.3C27.498 42.766 22.138 64.643 20 87.378l103.705 27.79-4.838 18.052-99.873-26.763c-.012.954-.035 1.905-.035 2.86 0 14.055 1.196 27.83 3.48 41.23h94.146v18.687H26.393c3.368 13.324 7.83 26.207 13.29 38.547l79.184-21.216 4.838 18.05-75.64 20.27c5.994 11.096 12.817 21.67 20.396 31.636l61.933-35.756 9.343 16.183-59.22 34.192c7.782 8.728 16.18 16.885 25.132 24.4l44.73-44.726 13.214 13.215-43.055 43.052c8.963 6.406 18.374 12.215 28.186 17.357l28.734-49.772 16.186 9.346-27.987 48.472c12.545 5.367 25.63 9.697 39.156 12.87.99 3.566 2.08 7.103 3.25 10.593-12.36 9.993-24.163 20.49-35.12 31.728-4.458-2.16-9.46-3.373-14.75-3.373-18.707 0-33.874 15.164-33.874 33.873 0 1.715.13 3.402.377 5.05 2.02-11.514 12.06-20.265 24.153-20.265 3.103 0 6.068.582 8.8 1.633-10.103 12.102-19.193 25.08-26.906 39.23 13.897-7.544 27.684-15.755 41.15-24.764.96 2.63 1.485 5.468 1.485 8.43 0 12.122-8.796 22.184-20.352 24.168 1.685.258 3.412.393 5.168.393 18.71 0 33.873-15.168 33.873-33.875 0-4.17-.757-8.16-2.134-11.848 10.033-7.467 19.823-15.43 29.26-23.984 2.978 5.705 6.203 11.034 9.65 15.818l-43.53 87.17c48.267 22.47 115.7 22.76 157.872 0l-42.13-84.36c3.722-4.81 7.21-10.25 10.426-16.14 8.577 7.617 17.428 14.77 26.483 21.508-1.375 3.685-2.13 7.67-2.13 11.836 0 18.707 15.165 33.873 33.874 33.873 1.758 0 3.486-.132 5.172-.39-11.56-1.983-20.355-12.045-20.355-24.168 0-2.964.525-5.805 1.49-8.435 13.464 9.006 27.247 17.223 41.143 24.767-7.71-14.148-16.78-27.136-26.877-39.238 2.726-1.045 5.682-1.623 8.775-1.623 12.09 0 22.13 8.75 24.15 20.262.246-1.647.377-3.332.377-5.047 0-18.71-15.166-33.873-33.875-33.873-5.275 0-10.268 1.205-14.72 3.355-10.007-10.27-20.74-19.908-31.946-29.12 1.938-5.52 3.658-11.18 5.132-16.886 7.91-2.368 15.65-5.14 23.2-8.283l-28.497-49.356 16.186-9.346 29.34 50.816c9.98-5.11 19.555-10.9 28.672-17.308l-44.146-44.147 13.215-13.216 45.926 45.922c9.145-7.557 17.72-15.785 25.666-24.6l-60.95-35.19 9.343-16.182 63.748 36.804c7.76-10.087 14.746-20.807 20.87-32.07l-77.93-20.883 4.837-18.05 81.534 21.847c5.588-12.533 10.157-25.625 13.584-39.178h-92.836v-18.687h96.777c2.282-13.4 3.48-27.174 3.48-41.23 0-1.19-.025-2.376-.044-3.563L397.652 133.22l-4.836-18.054L499.09 86.69c-2.18-22.49-7.52-44.13-15.254-64.39h-.004C457.315 63.81 400.24 96.234 329.068 109.32c12.67 15.603 20.442 35.52 20.442 57.233 0 31.196-15.723 58.718-39.604 75-21.27-12.407-42.907-28.878-45.52-43.814l17.653-3.81-2.235-10.352c15.67-11.335 33.936-9.138 53.433-.01l-18.302-40.414-41.903 9.04-2.846-13.188V139l-80.87 17.453 20.458 30.266c-8.595 19.678-2.717 41.68 5.45 58.56-27.204-15.57-45.592-44.998-45.592-78.73 0-21.713 7.772-41.63 20.44-57.232C118.904 96.234 61.83 63.81 35.312 22.3zm216.45 132.567c5.244-.056 9.98 3.573 11.13 8.9 1.312 6.085-2.557 12.084-8.644 13.397-6.087 1.313-12.085-2.556-13.398-8.643-1.314-6.085 2.556-12.086 8.642-13.4.76-.163 1.52-.245 2.27-.253z"></path></svg>