<svg stroke="currentColor" fill="currentColor" stroke-width="0" viewBox="0 0 512 512" height="1em" width="1em" xmlns="http://www.w3.org/2000/svg"><path d="M283 23.76c-80 .95-128.2 41.59-154.4 102.44-26.2 60.7-32.7 141.1-35.67 226.9l-.33 9.4c10.5-.2 21.1-.5 31.6-.7 11.8 32.8 28.2 64 51.2 87 24.9 24.8 57.2 40.5 102.1 39.4 44.4-1.1 73.9-16.9 96.2-41.7 20.6-22.9 34.5-54.2 45.7-88.2-5.7-2.2-11.6-4.2-17.3-6.1-13.6 42.8-32.6 73.7-55.9 93.7-24.8 21.3-54.5 29.4-82.5 25.7-53-6.8-99.6-50.6-123.1-110.1l38.8-.9c21 42.8 56.4 71.2 88.8 75.4 18.9 2.5 36.9-2.1 54.6-17.3 16.5-14.2 32.7-38.6 44.7-76.4-4.7-1.1-9.3-2.1-14.1-3.1-13.5 26.3-26.3 45.1-39.6 57.9-14 13.4-29.3 20-44.6 18.4-15.3-1.5-29.1-10.3-42.5-23.7-8.5-8.7-17-19.3-25.7-31.7 7.1 0 14.7-.3 21.5-.7 5.8 7.6 11.5 14.3 17 19.8 11.6 11.6 22.2 17.6 31.5 18.5 9.3 1 18.8-2.4 30.4-13.6 10.3-9.8 21.5-25.6 33.5-47.9-3.8-.6-7.7-1.1-11.6-1.5-10.3 15.3-22.4 32.9-37.5 41.2-8.7 4.7-18.5 3.5-25.9-.3-9.3-5.3-15.5-12.3-21.6-19.5 5.8-2 11.2-4.9 15.9-8.8 6 5.9 14.8 17.1 23 12.8 8.3-4.4 21.5-21 31.7-36.1 7.9-9.1 12.5-24 22.5-29.9 15.2-4.3 37.1 11.5 46.9-1.2 3.3-4.5 5.6-9 7.2-13.5l-15.8-.5-8.8-18.3 27.7 1c-.2-11.7-2.1-20.4-4.1-31.9 8.7 1.6 18.5 2.6 26.2.7-4.1-9.7-9.5-19.5-17.8-27.9-41.2 5.3-77.4.5-99.4-32.4 32.5-13.7 71.2-17.8 91.2-3.2.1-6.2-.1-12.4-1.2-18.5 7.1.3 12.9.8 20.2 1.3l.2-9.5c.7-24.7-6.6-53.7-25.7-76.97-19.1-23.27-50.6-40-95.2-39.47zm.3 17h3.7c38.3.41 62.4 14.35 77.8 33.08 13.6 16.54 20.2 37.36 21.5 56.06-29.9-1.3-53 3-70.9 11.8-19.7 9.7-32.6 24.9-40.5 41.9-15.7 33.9-13.3 74.6-15.5 102.4-1.8 23.5-6.8 37.1-13.4 44.7-6.6 7.6-15.5 10.8-30 11.6l-105.4 2.3c3.2-81.9 10.5-157.4 34-211.9 24.5-56.65 64.1-91.05 138.7-91.94zM351.7 174c-8.4.5-16 1.8-23.1 3.7 6 3.7 12.7 6.5 19.5 8.4-1.2-4.4.7-9.6 3.6-12.1zm17 3.9c1.6 3.6 1.2 7.6-.5 10.8 3.9-.1 7.8-.4 11.4-1.2-2.6-4.2-7-7.3-10.9-9.6z"></path></svg>