<svg stroke="currentColor" fill="currentColor" stroke-width="0" viewBox="0 0 512 512" height="1em" width="1em" xmlns="http://www.w3.org/2000/svg"><path d="M67.22 18.91c-3.69 6.62-6.78 17.57-8.28 30.74C57 66.43 57 86.18 57 104c0 10.1 6.82 18.4 16.41 23.7-1.56-7.7-2.43-15.7-2.4-23.7v-2.1l.94-1.93C77.59 88.69 87.37 81 98.78 76.39 93.84 62.2 87.93 48.5 81.86 37.79c-4.04-7.13-8.17-12.92-11.66-16.49-1.2-1.22-2.06-1.75-2.98-2.39zm121.58 0c-.9.64-1.8 1.17-3 2.39-3.5 3.57-7.6 9.36-11.7 16.49C168 48.5 162.2 62.2 157.2 76.4c11.4 4.6 21.2 12.29 26.9 23.57l.9 1.93v2.1c0 8.1-.9 16-2.5 23.7 9.7-5.2 16.5-13.6 16.5-23.7 0-17.82 0-37.57-1.9-54.35-1.5-13.17-4.6-24.12-8.3-30.74zM384 25c-7.9 0-16.7 5.06-23.6 18.45l-1 3.55h49.2l-1-3.55C400.7 30.06 391.9 25 384 25zm-29.8 40l-9.6 33.57L378.3 65h-24.1zm35.5 0l33.7 33.57L413.8 65h-24.1zM384 84.73l-21 21.07 21 42.1 21-42.1-21-21.07zM128 89c-16.7 0-32.3 6.64-38.86 17.3C89.8 133 103.2 160.6 116 175h24c12.8-14.4 26.1-42 26.9-68.7C160.3 95.64 144.7 89 128 89zm214.7 16.5l-13.4 46.9c.2.3.9 1.8 4 4.3 3.8 2.9 9.7 6.2 16.2 9 9.3 4 20.1 6.9 27.5 8.4L343.9 108l-1.2-2.5zm82.6 0L391 174.1c7.4-1.5 18.2-4.4 27.5-8.4 6.5-2.8 12.4-6.1 16.2-9 3.1-2.5 3.8-4 4-4.3l-13.4-46.9zM102 111h52v18h-52v-18zm-28.24 36.6c-1.31 2.2-2.6 4.4-3.84 6.7-11.65 21.6-19.11 48.1-26.35 71 9.35 2.1 18.69 3.9 28.03 5.3l16.77-63.2c-3.16-5.6-6.03-11.5-8.5-17.8-2.06-.6-4.1-1.2-6.11-2zm108.54 0c-2 .7-4.1 1.4-6.2 1.9-2.5 6.3-5.3 12.3-8.5 17.8l16.8 63.3c9.3-1.4 18.7-3.2 28-5.3-7.2-22.9-14.7-49.4-26.3-71-1.2-2.3-2.5-4.5-3.8-6.7zm136.9 20.7c-8 18.4-13.9 38.8-19.6 57 56.3 12.7 112.5 12.7 168.8 0-5.7-18.2-11.6-38.6-19.6-57-1 .9-2 1.7-3 2.5-5.7 4.6-12.8 8.3-20.3 11.5C410.6 188.7 395 193 384 193s-26.6-4.3-41.5-10.7c-7.5-3.2-14.6-6.9-20.3-11.5-1-.8-2-1.6-3-2.5zm-217.3 18.2l-12.28 46.3c25.58 2.7 51.18 2.7 76.78 0l-12.3-46.3c-1.2 1.3-2.5 2.7-3.7 3.9l-2.7 2.6h-39.4l-2.7-2.6c-1.2-1.2-2.5-2.6-3.7-3.9zm-60.69 56.9c.11 10.6.37 21.1.78 31.4 57.78 27.1 114.21 27.1 172.01 0 .4-10.3.7-20.8.8-31.4-57.8 12.8-115.79 12.8-173.59 0zm255.99 0c1 103.3 16.2 191.9 44.5 251.6h84.6c28.3-59.7 43.5-148.3 44.5-251.6-9.9 2.2-19.9 4-29.8 5.4V296h-18v-44.9c-10 .9-20 1.6-30 1.8V328h-18v-75.1c-10-.2-20-.9-30-1.8V296h-18v-47.2c-9.9-1.4-19.9-3.2-29.8-5.4zM42.99 295c4.84 81.1 19.24 150.5 42.72 200h84.59c23.5-49.5 37.9-118.9 42.7-200-56.3 23.8-113.65 23.8-170.01 0z"></path></svg>