<svg stroke="currentColor" fill="currentColor" stroke-width="0" viewBox="0 0 512 512" height="1em" width="1em" xmlns="http://www.w3.org/2000/svg"><path d="M208.938 17.97c-13.894.144-26.622 4.908-40.188 15.75 7.633 73.023 19.398 143.54 37.875 209.936-10.574.948-21.165 1.938-31.75 2.938-33.053-48.484-54.967-99.41-79.625-149.688-9.44-1.246-22.32 1.357-33.156 7.313-11.402 6.266-19.932 15.677-22.438 25.343C71.46 196.07 111.698 266.145 154 327.28c9.054 11.43 17.052 23.375 24.875 35.25l2.875 4.064-.28-.125c6.728 10.225 13.405 20.334 20.593 29.905l-14.938 11.22c-14.106-18.783-25.76-38.085-38.5-55.97-38.74-17.315-76.235-28.38-99.406-25.656-11.762 1.382-19.233 5.41-24.19 13.405-4.422 7.136-6.682 18.965-5.124 36.22 79.18 19.67 123.834 59.914 154.406 86.186 12.823 11.02 25.426 21.245 40.875 29.876h123.907c31.69-13.563 55.702-35.645 61.187-62.594 4.722-23.186 16.166-62.177 21.658-85.53 8.962-38.116 26.388-84.71 41.875-121.813 7.743-18.553 14.995-34.673 20.5-46.157 2.752-5.743 5.072-10.326 6.875-13.594.196-.358.347-.582.53-.907-4.203-10.426-12.018-20.034-21.25-26.125-9.175-6.056-18.988-8.51-27.218-6.813-22.354 39.967-42.723 81.287-57.344 129.28-8.878-3.5-17.872-6.378-27-8.717-.572-13.23-.715-26.318-.437-39.25l-63.283-6.657c-.43 12.35-.513 24.76-.25 37.22-8.34-.305-16.75-.336-25.187-.188C252.074 167.83 240.845 96.008 238.062 24c-9.497-3.54-18.01-5.662-26.03-5.97-.103-.003-.21-.027-.313-.03-.94-.03-1.856-.04-2.782-.03zm133.28 5.593c-8.137-.057-15.44 1.7-20.343 4.75-9.082 35.02-16.254 70.32-20.938 106l62.844 6.625c4.51-33.684 11.667-66.423 20.876-98.344-6.824-8.614-18.617-15.165-30.97-17.782-3.885-.823-7.768-1.224-11.467-1.25zm-55.624 128.093c-.466-.016-.91-.002-1.313.03-2.424.2-3.8 1.24-5.31 2.97-2.017 2.31-3.667 6.495-4 11.094-.336 4.6.67 9.41 2.374 12.47 1.703 3.058 3.323 4.302 6.156 4.624l85.438 9h.125l.125.03c4.954.658 7.17-.55 9.343-2.81 2.173-2.264 3.885-6.28 4.25-10.75.367-4.472-.633-9.162-2.5-12.283-1.83-3.063-3.906-4.732-7.592-5.25l-.188-.03-85.313-8.97h-.093c-.545-.06-1.034-.107-1.5-.124z"></path></svg>