<svg stroke="currentColor" fill="currentColor" stroke-width="0" viewBox="0 0 512 512" height="1em" width="1em" xmlns="http://www.w3.org/2000/svg"><path d="M256 25.908l-66.275 44.184h132.55zM131.727 88.092L105 114.818v168.547l26.727 26.727h61.71L167 257.217V155.365l32-32V88.092zm181.273 0v35.273l32 32v101.852l-26.438 52.875h61.711L407 283.365V114.818l-26.727-26.726zm-176 240v30h50.184l20-30zm91.816 0l-20 30h94.368l-20-30zm76 0l20 30H375v-30zm-167.816 48v30h50.184l20-30zm91.816 0l-20 30h95.145l-18.316-30zm77.916 0l18.319 30H375v-30zm-267.355 48l-12.4 62H71v-62zm49.623 0v62h138.1c-7.463-7.437-12.1-17.707-12.1-29 0-13.49 6.618-25.515 16.762-33zm191.238 0c10.144 7.485 16.762 19.51 16.762 33 0 11.293-4.637 21.563-12.1 29H407v-62zm144.762 0v62h60.023l-12.4-62zm-169 10c-12.81 0-23 10.19-23 23s10.19 23 23 23 23-10.19 23-23-10.19-23-23-23z"></path></svg>