<svg stroke="currentColor" fill="currentColor" stroke-width="0" viewBox="0 0 512 512" height="1em" width="1em" xmlns="http://www.w3.org/2000/svg"><path d="M382.3 36.97c14.1 16.78 24.9 31.7 32.4 44.8C428 105.1 431.9 124 428.6 139.7c-3.2 15.8-13.4 27.1-24.1 35.9-10.5 8.7-21.9 15.7-30.3 22.9-1.8 1.8-1.9 2.8-1.3 5.3.6 2.6 2.9 6.2 6.6 9.2 7.5 6 19.6 9.3 32.4 2.9 22.8-11.4 38.3-25.3 46.6-40.3 8.4-15 10.2-31 4.8-49-8.2-27.32-34.4-58.79-81-89.63zm-252.7 0C82.99 67.83 56.8 99.29 48.62 126.6c-5.39 18-3.63 34 4.74 49 8.37 15 23.84 28.9 46.64 40.3v.1c12.8 6.3 24.8 3 32.3-3 3.7-3 6-6.6 6.6-9.2.6-2.5.5-3.5-1.3-5.3-8.3-7.2-19.7-14.2-30.3-22.9-10.67-8.8-20.8-20.1-24.05-35.8-3.25-15.8.64-34.6 13.92-58.01 7.43-13.09 18.23-28.01 32.43-44.78zm43.3 113.73c-7.6.1-15.3 1-22.9 2.7-9.8 2.2-19.3 5.8-28.2 10.7 8.7 6.8 19 13.2 28 21.1l.2.2.3.2c6.1 6.2 7.9 15.1 6.1 22.6-1.9 7.4-6.6 13.8-12.9 18.8-12.5 10-32.4 14.7-51.53 5-5.4-2.7-10.49-5.5-15.27-8.6-2.38 9.4-3.69 19.8-3.69 31.2 0 43 37.69 90 81.19 131.5 21.8 20.8 44.7 40.2 64.3 57.6 15.1 13.3 28.1 25.2 37.5 36.3 9.4-11.1 22.4-23 37.5-36.3 19.6-17.4 42.5-36.8 64.3-57.6 43.5-41.5 81.2-88.5 81.2-131.5 0-11.4-1.3-21.8-3.7-31.2-4.8 3.1-9.9 6-15.4 8.7-19.2 9.6-39.1 4.9-51.6-5.1-6.3-5-11-11.4-12.9-18.8-1.8-7.5 0-16.4 6.1-22.6l.3-.2.2-.2c9.1-7.9 19.4-14.3 28.1-21.1-8.8-4.9-18.3-8.5-28.1-10.7-40.6-9.2-83.6 5.6-97.6 40.6l-8.4 20.9-8.4-20.9c-11.3-28.5-41.9-43.6-74.7-43.3zm-17.8 102.1c20.6 28.5 49.5 50.4 84.9 67.2-52.2 33.9-104.2 4.1-84.9-67.2zm201.8 0c19.3 71.3-32.7 101.1-84.9 67.2 35.4-16.8 64.3-38.7 84.9-67.2z"></path></svg>