<svg stroke="currentColor" fill="currentColor" stroke-width="0" viewBox="0 0 512 512" height="1em" width="1em" xmlns="http://www.w3.org/2000/svg"><path d="M55.379 25l-28.4 142H172.27L256 83.271 339.729 167H485.02l-28.4-142zM256 108.727L179.729 185H41v302h158v-87c0-18.25 7.166-33.077 18.021-42.727C227.877 347.624 242 343 256 343s28.123 4.624 38.979 14.273C305.834 366.923 313 381.75 313 400v87h158V185H332.271zm0 38.544l57 57V297H199v-92.729zm0 25.456l-39 39V279h78v-67.271zM71 199h98v98H71zm272 0h98v98h-98zM89 217v30h62v-30zm272 0v30h62v-30zM89 265v14h62v-14zm272 0v14h62v-14zM71 359h98v98H71v-98zm272 0h98v98h-98v-98zm-87 2c-10 0-19.877 3.376-27.021 9.727C221.834 377.077 217 386.25 217 400v87h78v-87c0-13.75-4.834-22.923-11.979-29.273C275.877 364.376 266 361 256 361zM89 377v62h62v-62zm272 0v62h62v-62z"></path></svg>