<svg stroke="currentColor" fill="currentColor" stroke-width="0" viewBox="0 0 512 512" height="1em" width="1em" xmlns="http://www.w3.org/2000/svg"><path d="M117.725 24.998l30.002 30.004h4.779c10.261-9.89 24.188-16 39.494-16 15.306 0 29.233 6.11 39.494 16h4.78l30.001-30.004h-148.55zm74.275 32A38.867 38.867 0 0 0 152.998 96 38.867 38.867 0 0 0 192 135.002 38.867 38.867 0 0 0 231.002 96 38.867 38.867 0 0 0 192 56.998zm56.955 37.297c.017.568.043 1.133.043 1.705 0 22.324-12.981 41.729-31.77 51.07l77.8 29.946c-.011-.338-.026-.676-.026-1.016 0-13.624 8.415-25.416 20.293-30.428l-66.34-51.277zM328 160.998c-8.391 0-15.002 6.61-15.002 15.002 0 8.391 6.61 15.002 15.002 15.002 8.391 0 15.002-6.61 15.002-15.002 0-8.391-6.61-15.002-15.002-15.002zm-15.871 43.887l-2.945 25.799 19.57 4.084 6.21-26.524a32.649 32.649 0 0 1-22.836-3.36zm-19.998 16.484c-9.663 3.586-17.838 9.415-24.137 15.309-11.977 11.206-18.521 23.416-18.521 23.416l15.834 8.556s5.364-9.83 14.984-18.83c2.877-2.691 6.024-5.225 9.436-7.388l2.404-21.063zm55.703 10.858l-5.025 21.459c2.06 2.912 3.878 6.001 5.468 9.134 6.149 12.113 8.244 23.496 8.244 23.496l17.713-3.195s-2.437-13.73-9.908-28.447c-3.838-7.561-9.205-15.727-16.492-22.447zm-178.836 64.771v30.004h30.004v-30.004h-30.004zm128 0v30.004h30.004v-30.004h-30.004zm122.322 0v30.004h30.002v-30.004H419.32zm-275.32 48c-20 0-27.002 11.502-27.002 23.002 0 11.5 7.002 23.002 27.002 23.002h6.275c-8.936-3.83-15.273-12.742-15.273-23.002 0-10.26 6.337-19.173 15.273-23.002H144zm25.725 0c8.936 3.83 15.273 12.742 15.273 23.002 0 10.26-6.337 19.173-15.273 23.002h156.55c-8.936-3.83-15.273-12.742-15.273-23.002 0-10.26 6.337-19.173 15.273-23.002h-156.55zm176 0c8.936 3.83 15.273 12.742 15.273 23.002 0 10.26-6.337 19.173-15.273 23.002h149.277v-46.004H345.725zM63.482 360.227l-16.236 25.228 25.229 16.236 16.236-25.226-25.229-16.238zm96.518.771c-3.973 0-7.002 3.029-7.002 7.002s3.029 7.002 7.002 7.002 7.002-3.029 7.002-7.002-3.029-7.002-7.002-7.002zm176 0c-3.973 0-7.002 3.029-7.002 7.002s3.029 7.002 7.002 7.002 7.002-3.029 7.002-7.002-3.029-7.002-7.002-7.002zm-136.998 48V496h17.996v-87.002h-17.996zm240 0V496h17.996v-87.002h-17.996z"></path></svg>