<svg stroke="currentColor" fill="currentColor" stroke-width="0" viewBox="0 0 512 512" height="1em" width="1em" xmlns="http://www.w3.org/2000/svg"><path d="M152 25c-16.8 0-28 3.51-35.2 8.64-7.3 5.14-11.1 11.95-12.7 21.34-3.1 18.79 5.3 47.62 21.7 76.62 14.9 26.2 35.9 52.6 58.5 73.6 18.5 12.7 38.4 25.1 60.1 35.6-25.1-45.3-38.9-96.8-51-138.3-7-23.9-13.5-44.59-20.6-58.37-3.6-6.89-7.3-11.96-10.8-14.98-3.4-3.01-6.2-4.15-10-4.15zm208 0c-3.8 0-6.6 1.14-10 4.15-3.5 3.02-7.2 8.09-10.8 14.98-7.1 13.78-13.6 34.47-20.6 58.37-12.1 41.5-25.9 93-51 138.3 21.7-10.5 41.6-22.9 60.1-35.6 22.6-21 43.6-47.4 58.5-73.6 16.4-29 24.8-57.83 21.7-76.62-1.6-9.39-5.4-16.2-12.7-21.34C388 28.51 376.8 25 360 25zM51.17 139.9c-3.33.1-6.23 1.1-9.03 2.9-11.19 11.8-17.01 22.5-19.03 31.8-2.07 9.5-.58 17.8 3.91 26 8.99 16.5 31.6 32.1 60.12 43.1 22.16 8.5 47.66 14.3 72.16 16.9 23.1-3 46.1-5.8 67-8.8-45.3-23.8-82.6-54-112.8-77-17.83-13.7-33.31-24.8-45.61-30.4-6.15-2.8-11.05-4.3-15.26-4.5h-1.46zm408.23 0c-4.2.2-9.1 1.7-15.3 4.5-12.3 5.6-27.8 16.7-45.6 30.4-30.2 23-67.5 53.2-112.8 77 20.9 3 43.9 5.8 67 8.8 24.5-2.6 50-8.4 72.2-16.9 28.5-11 51.1-26.6 60.1-43.1 4.5-8.2 6-16.5 3.9-26-2-9.3-7.9-20-19-31.8-2.8-1.8-5.8-2.8-9.1-2.9h-1.4zM243.3 267.2c-41.1 6.7-91.6 11.5-134.6 19.3-24.01 4.3-45.47 9.7-60.74 16.4-15.27 6.7-23.08 14.2-24.53 21.5-2.82 14.4-1.5 24.5 1.9 31.5 3.41 6.9 8.94 11.4 17.35 14.4 16.84 5.9 44.94 3.4 74.52-6.4 4-1.3 8.1-2.8 12.1-4.4 38.5-28.5 81.1-58.1 110.2-84.3 1.4-2.7 2.7-5.4 3.8-8zm25.4 0c1.1 2.6 2.4 5.3 3.8 8 29.1 26.2 71.7 55.8 110.2 84.3 4 1.6 8.1 3.1 12.1 4.4 29.6 9.8 57.7 12.3 74.5 6.4 8.4-3 14-7.5 17.4-14.4 3.4-7 4.7-17.1 1.9-31.5-1.5-7.3-9.3-14.8-24.6-21.5-15.2-6.7-36.7-12.1-60.7-16.4-43-7.8-93.5-12.6-134.6-19.3zm-21.1 24.9c-33.2 29.3-78.9 60.2-117.6 89.4-22.4 17-42.43 33.3-55.78 47.7-13.34 14.5-18.69 26.4-17.39 33.1 2.83 14.3 7.86 22.6 13.45 27.1 5.6 4.4 12.33 5.9 21.52 4.4 18.4-2.8 44.5-19 69.2-43.1 24.7-24.2 48.4-55.8 64.7-87.9 12.5-24.5 20.4-49.2 21.9-70.7zm16.8 0c1.5 21.5 9.4 46.2 21.9 70.7 16.3 32.1 40 63.7 64.7 87.9 24.7 24.1 50.8 40.3 69.2 43.1 9.2 1.5 15.9 0 21.5-4.4 5.6-4.5 10.6-12.8 13.5-27.1 1.3-6.7-4.1-18.6-17.4-33.1-13.4-14.4-33.4-30.7-55.8-47.7-38.7-29.2-84.4-60.1-117.6-89.4z"></path></svg>