<svg stroke="currentColor" fill="currentColor" stroke-width="0" viewBox="0 0 512 512" height="1em" width="1em" xmlns="http://www.w3.org/2000/svg"><path d="M84.13 24.64l-17.3 4.96c11.06 38.61 28.29 61.73 49.57 75.1 21.3 13.3 45.5 16.8 70 19.6 34.2 4 69.3 6 103.2 27.5-44-10.1-88.9-8.9-129.8-9.4-51.3-.6-95.31-4-124.84-31.1l-12.17 13.2C58.2 157 107.7 159.8 159.6 160.4c45.4.6 93.6-.5 138.3 12.1-14.4-.9-30.1-1.4-46.5-1.6-29.4-.3-61.1.8-91.6 4.2-60.92 6.8-118.12 22.1-142.13 60.3l15.24 9.6c17.92-28.6 69.89-45.4 128.89-52 49.4-5.5 102.8-4.7 143.5-2-53.7 12-113.1 17.3-162.8 33.5-27.3 8.9-51.8 21.3-70.35 40.4-18.55 19.2-30.62 45.3-33.25 79.4l17.94 1.4c2.38-30.8 12.56-52 28.25-68.3 15.71-16.2 37.41-27.4 63.01-35.7 43.3-14.1 97.3-19.9 149.1-30.7-7.5 10.5-17.6 19.4-29.8 27.6-21.8 14.8-50 26.7-79.1 39.7-29 13-58.9 27.1-84 47.5-25.19 20.4-45.5 47.5-54.2 84.6l17.52 4.2c7.75-33.2 25.12-56.2 47.98-74.8 22.9-18.5 51.3-32.2 80.1-45.1 28.8-12.9 57.8-24.9 81.8-41.2 9.9-6.6 18.9-14.1 26.6-22.6-19.4 56.9-50 94.4-89.6 124.9-47.6 36.7-108.9 62.7-178.74 97.1l7.96 16.2C113 435 175.2 408.7 225.5 370.1c48-37 84.6-85.8 104-161.7 8 27.1 6.8 49 .5 68.9-7.1 22.8-21.3 43.1-37.1 63.7-31.7 41.2-70.5 84.6-61.5 151.6l17.8-2.4c-8-59.3 25.7-96.3 58-138.2 16.1-21 31.8-43 40-69.3 6-19.3 7.8-41 3-65.4 18.9 31.1 25 57 24.5 79.5-.6 28.1-11.6 51.6-23.4 73.2-11.7 21.6-24.8 41-25.4 62.9-.3 10.9 3.1 22.2 11 32.6 7.9 10.4 19.9 20.1 37.4 29.9l8.8-15.6c-16.1-9.1-26.2-17.6-31.9-25.2-5.8-7.5-7.5-14-7.3-21.2.4-14.3 11.1-32.6 23.2-54.8 12.1-22.3 24.9-48.8 25.6-81.4.7-32.7-11-70.7-45.2-115.4-50.5-66-110.7-69.8-159-75.3-24.2-2.8-45.3-6.3-62.5-17.06-17.2-10.79-31.62-29.02-41.87-64.8zm319.47.24c-15.7-.33-32.3 6.3-42.9 10.41l-56.9 30.87 54.1 12.34-4.8-20.03c32.6-18.93 57-17.6 68.8-11.06 6 3.33 8.8 7.64 9.5 11.89.6 4.26-.7 9.19-6.2 14.7l-79.7 79.67c4.3 3.8 8.6 8.4 12.7 12.8L438 86.76c5.5-5.51 10.4-6.76 14.7-6.12 4.2.65 8.5 3.44 11.9 9.45 6.5 11.81 7.8 36.11-11.1 68.81l-20-4.9 12.3 54.2 34.6-63.8c7.8-17.5 10.3-44.3-.1-63.05-5.5-9.97-14.6-16.93-24.9-18.51-1.3-.2-2.7-.3-4-.32h-2c.1-1.98 0-3.96-.3-5.91-1.5-10.39-8.5-19.4-18.5-24.94-7.4-4.15-16.6-6.57-27-6.79zM333.2 192.7l.1.1c.1.1.2.3.3.4l-.5.2z"></path></svg>