<svg stroke="currentColor" fill="currentColor" stroke-width="0" viewBox="0 0 512 512" height="1em" width="1em" xmlns="http://www.w3.org/2000/svg"><path d="M493.2 17.08c-6.5 13.85-30.7 31.28-34.7 30.14-5.7-1.6-11.5-11.29-7.1-22.57-12.4 7.46-19.1 22.92-21.6 35.23l17.8 23.2c8.2-.24 20.4-1.3 27.7-5.21 14.4-7.72 17.9-60.79 17.9-60.79zm-72.9 60.03l-36.5 27.99 8.6 11.1 36.4-28.01zm33.1 19.84l-.9 13.35L285 239l10.9 14.2 173.4-133.1 3.4-26.08zm-93.6 6.45l-11.1 8.4 28 36.6 11.1-8.5zm-15.7 32.1l-11.1 8.6 8.6 11.1 11.1-8.6zm-26.5 18l-15.3 11.7-44.9-5.9-33.9 26 11 14.3 27.9-21.5 19.7 2.6-39.1 30s-21.1 17.4-25 20.3l10.6 13.5 11.2-8.6 8.5 11.1 14.2-10.9L254 225l74.5-57.3zm-107.1 44.3l-11.1 8.6 8.5 11.1 11.1-8.6zm-51 4.3c-4.7.2-9.1 1.6-12.1 3.9l-5.6 4.3 14 18.2-14.2 11-14-18.3-23.8 18.3 13.9 18.2-14.2 11-14.06-18.3-5.56 4.3c-3.95 3.1-7.06 8.9-7.9 15.4-.85 6.4.64 13 3.68 16.9l17.22 22.4 15.12 2 91.4-70.3-23.7-30.9c-3.1-4-9-7.1-15.4-7.9-1.2-.1-2.4-.2-3.6-.2zm112.4 49.4l-53.5 41.1.4 6.1 54.8-10.6 16.6-12.8zm-73.3 16l-28.6 22 3.3 47.2 30-2.5zm184.6 0c-11.5 0-23 7-23 27v39h46v-39c0-20-11.5-27-23-27zm64 0c-11.5 0-23 7-23 27v39h46v-39c0-20-11.5-27-23-27zm-103.9 16.1c-19.9 5.8-39.5 13.8-52.5 26.2-12.1 11.5-17.6 28-20.8 45.2-3.1 17.3-4 35.8-5.2 52.6-1.3 16.8-3.3 32-7.3 41.4-2 4.6-4.4 7.7-7 9.7-2.6 1.9-5.8 3-11 2.8-9.7-.3-16.8-7.1-23.2-20.6-6.4-13.6-10.6-32.9-13.1-52.2-1.6-12.5-2.4-25-2.9-36.2l-17.9 1.5c.4 11.4 1.4 24.1 3 36.9 2.6 20.4 6.8 41 14.7 57.6 7.8 16.6 20.6 30.4 38.8 31 8.5.3 16.2-1.9 22.2-6.3 6-4.3 10.1-10.4 12.9-17.2 5.8-13.4 7.4-29.8 8.7-47 1.3-17.2 2.2-35.2 5-50.7 2.9-15.5 7.7-28.1 15.5-35.5 7.8-7.4 22.7-14.3 39-19.8v-8.5c0-3.9.4-7.5 1.1-10.9zm-190.4 19.1L117 330.2l-15.7-2.1-4.82 36.5-77.65 59.3c-.21 9.1 2.64 24 9.24 38.1 6.18 13.1 15.29 25.3 26.18 32.9l52.25-76.7 6.2-47.4 42.7-32.7zm191.3 48.8v14h142v-14zm16 32v110h46v-46h-32v-64zm32 0v46h46v-46zm64 0v64h-32v46h46v-110z"></path></svg>