<svg stroke="currentColor" fill="currentColor" stroke-width="0" viewBox="0 0 512 512" height="1em" width="1em" xmlns="http://www.w3.org/2000/svg"><path d="M184.7 26.71c-3.5 9.39-7.3 18.55-9.4 27.49-3.5 14.16-3.7 27.03 5.6 41.74 4.8 2.79 8 3.15 11.1 2.61 2.5-.44 5.5-1.96 8.6-3.94 1.9-21.33-3.8-46.06-15.9-67.9zm183.9 62.77c-1.6 0-3.1.1-4.5.31-7.6 1.31-12.4 4.49-14.2 16.81l-17.6.9c-1.7-6.6-4.1-10.48-6.3-12.61-2.3-2.13-4.3-2.89-7.1-3.02-5.6-.27-14.5 3.71-21.8 10.63-7.2 6.8-12.6 16.2-13.5 23-.5 3.4 0 6 1.2 8.1 1.2 2.1 3.3 4.2 7.9 6.1L290 157c-12.8 1-16.8 5.4-18.8 11.1-2 5.8-.8 14.6 3.3 22 4 7.4 10.5 12.8 16.1 13.9 5.5 1.1 11.6-.2 19.7-11.6.1-.2.2-.4.4-.6l14.2 11c-.1.2-.3.4-.4.6-5 5.9-6.8 10.5-7.1 13.3-.4 2.8.2 4.2 1.7 6 3.1 3.6 12.7 7.4 23 7.4 10.2 0 20.4-3.5 24.5-7.9 2.1-2.1 3-4.1 3-7.3s-1.2-8-5.3-14.3l13.5-11.6c11.3 9.9 18.1 9.9 23.4 7.5 5.3-2.5 10.4-9.4 12.4-17.7 2-8.2.8-16.8-2.7-21.3-3.4-4.6-8.7-7.6-22.3-3.8l-6.1-16.9c17.5-7.9 21.2-15.5 21.3-21.2 0-5.8-4.9-13.3-13.1-18.81-6.2-4.12-13.9-6.73-20.5-7.23-.5 0-1.1-.1-1.6-.1zM203.4 113.7c-2.6 1.2-5.3 2.1-8.3 2.6-3.1.5-6.3.6-9.6.1 1.1 8.7 2.5 16.8 4.3 24.5 7.1.9 14.1 2.7 20.2 6.1-2.9-10.1-5.2-21.1-6.6-33.3zm140.5 14.8s.4 16.9 6.5 20.7c5.7 3.6 20.1-3 20.1-3s-14.1 11.2-15 19.3c-.6 5.3 6.7 14.7 6.7 14.7s-12.8-13.1-21-12.9c-6.9.2-17 11.6-17 11.6s6.8-13.7 4.4-20.1c-2.4-6.5-16.4-12.5-16.4-12.5s17.3 5.4 24.1 1c5.7-3.7 7.6-18.8 7.6-18.8zm-164.7 29.9c-7.6.3-15 2.3-19.4 5.3-2.9 2-4.5 4.1-5.2 6.4-.7 2.4-.8 5.6 1.4 10.7l-14.5 10.1c-9.4-8.9-15.7-9-22.1-6.2-6.4 2.7-13.1 10.1-17.1 19-3.89 8.8-4.75 18.5-2.89 23.9.89 2.7 2.09 4.2 3.99 5.4 1.9 1.1 5 2 10.3 1.4l5.4 16.8c-5.6 3.2-8.4 6.3-9.7 8.6-1.2 2.4-1.4 4.2-.8 6.6 1.2 4.7 7 11.4 15.1 15.7 8.2 4.3 17.9 6 24.5 4.3 6.6-1.7 11.1-5.1 12.7-16.9 0-.3.1-.5.1-.8l17.7 3.2c0 .3-.1.5-.1.8-1.5 6.6-.9 10.4 0 12.4 1 2 2.1 3 4.8 3.8 5.3 1.8 16.6.5 26.3-4s17.3-12 18.8-16.4c.7-2.2.7-3.4-.6-5.6-1.4-2.2-4.8-5.5-11.7-8.7l5.6-17c15.4 3 22.1-.3 25.3-4.2 3.2-3.9 4-10.7 1.6-17.7-2.3-7.1-7.6-13.3-13.6-15.6-6-2.3-13.2-2.1-23.6 6.7l-12.6-12.8c5.9-6.8 8.7-12.4 9.6-16.4 1-4 .5-6.3-.8-8.5-2.5-4.4-10.7-8.9-20.8-10-1.9-.2-3.8-.3-5.8-.3zm-22 47s7.3 9.3 12.8 10.2c7 1 19.8-7.6 19.8-7.6s-7.1 14.9-3.9 21.6c2.1 4.6 13.3 8.8 13.3 8.8s-18.7-2.9-26.2 1.4c-4.8 2.9-8.7 14-8.7 14s-3.5-13.8-9-17.6c-5.7-4-21-2.8-21-2.8s17.8-3.1 22.3-9.7c3.6-5.1.6-18.3.6-18.3zm142.9 18.2l-24 46.6c-.9-2-1.8-4-2.8-5.9-3.6-7.3-7.6-14.2-11.6-20.8-.3.3-.5.7-.8 1-3.5 4.3-8.2 7.4-14 9.4 3.7 6 7.2 12.1 10.3 18.4 11.6 23.4 19.4 50 17.8 89.3-1.1 30-8 67.5-23.2 115.7-25.1-19.7-29.6-60.7-33.5-89.8-3.4-25.9-6-54.5-11.5-82.2-6 1.8-12.1 2.8-18.1 2.6 5.4 26.7 8.3 55.2 11.8 81.9.6 4.9 1.3 9.6 2 14.4-5.4-3.7-11.4-7-17.8-9.9-11.5-5.2-24.4-9.3-38.1-12.5-1 6.1-3.6 11.9-7.9 16.7 14.3 3.1 27.6 7.2 38.6 12.2 39.7 14.2 35.6 64.3 67.5 83.3h20.5c5.5-16.6 10.1-32 13.8-46.4 13.7-20.4 32.8-40.2 52.7-55.3-3.8-4.9-6.6-10.5-8.3-16.3-12.5 9.2-24.6 20.1-35.6 31.8 2.9-16.6 4.5-31.7 5.1-45.5 1.1-27.6-2.3-50.1-8.3-69.6l27.1-52.6c-2.3-1.6-4.5-3.5-6.4-5.7-2.5-3-4.3-6.8-5.3-10.8zm95.9 80c-5 0-10.8 1.1-16 3.4-8 3.5-14.2 9.5-15.8 13.7-.7 2.1-.8 3.6 0 5.7.9 2.1 2.9 5 7.6 8.2l-7.9 16c-13.6-4.5-18.7-2-21.4 1.1-2.8 3.1-4 10-2.2 17.4 1.8 7.4 6.6 14.5 11.5 17.3 5 2.9 9.9 3.7 18.7-3.1.2-.2.4-.3.6-.5l10.4 14.7c-.2.2-.4.3-.6.4v.1c-5.4 3.5-7.4 6.4-7.8 7.5-.4 1.2-.5 1.1.6 2.5 2.1 3 11.1 8.2 21.4 10.2 10.3 2 21.5.9 26.9-2 2.7-1.5 3.9-3 4.6-5.1.7-2.1.9-5.6-1.2-11.3l15.8-8.3c7.6 10.5 13.3 12.1 17.4 11.6 4.1-.5 8.5-3.9 11.1-9.1 2.5-5.1 2.7-11 .6-15-2.2-3.9-6.7-7.7-19.3-7.9l-1.1-17.9c8.4-1.1 13.9-3.2 17.1-5.3 3.3-2.1 4.3-3.8 4.8-5.6 1-3.6-1.2-10.4-7-16.6-5.8-6.2-14.5-10.9-21.2-11.6-6.7-.7-10.9.4-14.8 9.2l-17.2-3.5c-.1-10.7-3.3-13.4-8.8-15.2-1.4-.5-3.1-.8-4.8-.9-.7-.1-1.3-.1-2-.1zm12 36s1.7 12.5 6.8 15.6c6.1 3.6 21.6-.8 21.6-.8s-12.6 4.9-14.7 10.4c-2.2 5.3 3.9 16.7 3.9 16.7s-9-9.5-15.2-9.7c-7.4-.1-18.8 10.7-18.8 10.7s6.6-7.8 6-12.2c-.8-6.7-13.4-16-13.4-16s12.9 5.5 17.9 2.5c5.5-3.2 5.9-17.2 5.9-17.2zm-320.56 3.7c-2.69-.1-4.85.7-6.11 1.9-1.71 1.6-3.67 5-1.71 14.5l-16.53 6.4c-5.62-9.4-8.92-9.7-11.25-9.3-2.34.4-6.49 3.6-9.14 8.9-2.65 5.2-3.35 11.7-2.2 15.2 1.14 3.5 2.18 5.4 10.07 5.5l3.58 17.2c-6.78 3-7.41 5.5-7.52 7.8-.11 2.3 1.51 6 4.43 8.6 2.92 2.5 6.38 3.5 8.65 3 2.28-.5 5.29-2.2 7.91-10.6l17.57 2c.85 11.8 4.27 14.9 7.21 16.1 2.93 1.2 8.2.4 13.1-2.7s8.6-8.3 9.3-12c.6-3.7.4-6.6-7.1-10.9l7.5-16.3c5.4 1.8 7.4.6 9.7-1.7 2.4-2.4 4.1-7 4.1-10.8-.1-3.8-1.2-5.5-2.6-6.2-1.4-.6-6.2-1.3-16 4.6L98.21 362c3.69-5.9 2.99-8.9 1.5-11.7-1.6-2.9-5.43-5.6-9.43-6.6-.99-.2-1.95-.3-2.84-.4zM91.4 375s-4.68 8.5-1.92 12.1c2.75 3.3 14.12 3.7 14.12 3.7s-12.61 1.9-15.64 5.8c-2.06 2.3-.14 9-.14 9s-4.4-9.8-9.92-11.9c-4.68-1.7-14.86 1.5-14.86 1.5s8.67-5 9.09-9.1c.41-3.9-7.03-10.4-7.03-10.4s9.78 7.1 15.57 6.7c4.95-.4 10.73-7.4 10.73-7.4z"></path></svg>