<svg stroke="currentColor" fill="currentColor" stroke-width="0" viewBox="0 0 512 512" height="1em" width="1em" xmlns="http://www.w3.org/2000/svg"><path d="M18 20.813v124.062c29.144 25.523 57.37 49.464 84.375 71.563 5.023-1.894 14.962-7.8 25.688-16.188 11.8-9.23 25.18-21.31 37.875-34.03 12.693-12.724 24.73-26.115 33.906-37.876 8.405-10.775 14.297-20.736 16.094-25.563-21.434-26.277-44.613-53.706-69.313-81.968H18zm211.03 98.156c-3.632 6.475-8.583 13.33-14.468 20.874-9.812 12.578-22.258 26.385-35.406 39.562-13.147 13.178-26.967 25.687-39.594 35.563-7.574 5.923-14.48 10.928-21.03 14.593 8.046 6.48 16.013 12.785 23.812 18.906l-.47-1.75c3.795-1.018 13.79-6.738 24.595-15.19 10.804-8.45 23.076-19.55 34.718-31.218 11.64-11.668 22.69-23.948 31.093-34.718 8.055-10.325 13.58-19.86 14.876-23.813-5.867-7.486-11.93-15.095-18.125-22.81zm31 39.436c-3.33 5.84-7.777 11.954-13.03 18.688-9.04 11.587-20.498 24.314-32.594 36.437-12.095 12.125-24.805 23.622-36.437 32.72-7.382 5.773-14.058 10.626-20.44 14.063 7.35 5.662 14.597 11.165 21.69 16.468 4.76-2.366 12.16-6.993 20-13.124 10.512-8.222 22.447-19.016 33.78-30.375 11.333-11.357 22.075-23.3 30.25-33.78 6.05-7.755 10.62-15.072 12.97-19.75-5.22-6.982-10.627-14.106-16.19-21.344zm26.658 40.813c-2.536 3.743-5.462 7.644-8.688 11.78-8.812 11.296-19.964 23.687-31.75 35.5-11.786 11.813-24.192 23.006-35.53 31.875-4.06 3.174-7.9 6.046-11.595 8.563l94.28 141.28c43.757-7.75 105.398 16.894 158.595 66.063l14.438-14.436L347.094 360.5c-11.034 5.484-24.775 3.663-33.97-5.53-11.517-11.52-11.517-30.202 0-41.72 11.52-11.518 30.202-11.518 41.72 0 9.218 9.218 11.038 23.014 5.5 34.063l119.312 119.312 14.47-14.47c-49.17-53.196-73.847-114.806-66.095-158.56L286.69 199.218z"></path></svg>