<svg stroke="currentColor" fill="currentColor" stroke-width="0" viewBox="0 0 512 512" height="1em" width="1em" xmlns="http://www.w3.org/2000/svg"><path d="m214.5 23.24-1 8.1c-14 61.5 21 88.66 21 88.66l11-13s-24-19.76-18-63.56c41 11.6 58 36.6 64 48.8-44 15.76-56 57.26-80 87.96l21-3.9-2 31.3s44-8.7 69 17.7c5-8.6 8-18.9 6-29.2l-3-28.2c-3-1.1-7-3-11-5.4-12-7.3-25-19.1-25-19.1-2-1.9-2-5.2-1-7.8 2-2.5 5-3.7 7-2.7 0 0 11 3.5 21 6.7 11 3.9 20 14.3 21 26.6 1 8.4 3 18.9 4 28.3 2 15.4-3 30.8-12 42.7l7 18.3h38l7-18.3c-9-11.9-14-27.3-12-42.7 1-9.4 3-19.9 4-28.3 1-12.3 10-22.7 21-26.6 10-3.2 21-6.7 21-6.7 2-1 5 .2 7 2.7 1 2.6 1 5.9-1 7.8 0 0-13 11.8-25 19.1-4 2.4-8 4.3-11 5.4l-3 28.2c-2 10.3 1 20.6 6 29.2 25-26.4 69-17.7 69-17.7l-2-31.3 21 3.9c-24-30.7-36-72.2-80-87.96 6-12.2 23-37.2 64-48.8 6 43.8-18 63.56-18 63.56l11 13s35-27.16 21-88.66l-1-8.1c-43.3 7.32-85.9 35.37-110 62.9-5.5-.13-10.5-.52-16 0-42.8-34.75-61.3-56.12-110-62.9zm24.7 205.26c38.2 53.2-87.7 46.6-153.61 119.5-26.11 28-32.53 56.3-25.95 80.3 12.23 44 71.86 73 144.06 55 49.8-13 96-32 134.8-40 35.1-8 63.8-5 82.3 24l15.3-5c-2.9-38-14.4-68.8-36.5-87.5-16.8-14.2-39.9-22-70.9-21.1-29.3.8-65.9 9.3-111.2 27.3-27 9.5-76.5 27.7-102.4 12.6-9.1-5.6-11.9-15-11.2-24.3 34.4 52 124.1-27 198.5-35.7 0 0 6.6-88.3-63.2-105.1zm188.6 0c-53.1 12.4-64.1 54.1-65.2 105.1 26.5-.2 49.9 23.7 49.9 23.7s-27-98.6 15.3-128.8zm-100.3 1.3h10c3 0 6 2.8 6 6.3 0 3.4-3 6.2-6 6.2h-10c-3 0-6-2.8-6-6.2 0-3.5 3-6.3 6-6.3zm61.4 157.7c13.7 11.6 22.2 28.8 26.8 49.8-15.8-12-35-16-57.1-14-24.1 2-51.9 10-82.3 20l26.1-25c-28.3 14-53.1 17-75.4 12l80.9-40.2-61.2 11.2c23.8-20.2 95.2-52.2 142.2-13.8z"></path></svg>