<svg stroke="currentColor" fill="currentColor" stroke-width="0" viewBox="0 0 512 512" height="1em" width="1em" xmlns="http://www.w3.org/2000/svg"><path d="M131.5 23.906c-70.56 2.47-100.474 70.008-101.063 104.53-2.2 129.255 153.66 66.31 156.532 129.064 3.123 68.31-100.445 78.95-105.126-5.25-27.54 110.96 59.15 168.72 133.53 149.406l-.78-.47v-54.936h56.062c-.74-3.815-1.125-7.757-1.125-11.78 0-2.337.122-4.637.376-6.908h-55.312v-63.53l49.906-28.813 29.063 50.343c4.896-3.81 10.38-6.91 16.28-9.125l-29.156-50.563 52.688-30.406L387 226.437l-29.844 51.656c5.724 2.623 10.99 6.094 15.625 10.25l30.376-52.594 48.97 28.28v63.533h-59.032c.254 2.27.375 4.57.375 6.906 0 4.023-.386 7.965-1.126 11.78h59.78v54.938l-52.687 30.406-28.53-49.375c-4.782 3.953-10.182 7.2-16 9.592l28.374 49.125-49.905 28.813-49-28.28 27.78-48.158c-6.003-1.986-11.612-4.88-16.655-8.5l-27.313 47.313-27.75-16.03c-14.41 23.334-32.845 35.984-51.718 39.967 84.677 48.568 197.274 52.484 259.874-12.25 64.14-66.327 61.303-174.725 20.47-254.062-28.28 56.73-123.93 13.764-92.283-47.313 7.413-14.303 10.865-27.54 10.658-39.437l27.156-7.28-7.813 29.155 18.033 4.813 7.812-29.094 21.313 21.312 13.218-13.22-21.312-21.31 29.125-7.814-4.845-18.062L441 69.313l7.813-29.126-18.063-4.843-7.813 29.125-21.312-21.314-13.22 13.22 21.314 21.312-25.908 6.968c-11.268-28.337-48.504-45.664-105.156-46.75 84.123 12.04 52.984 118.1 8.188 133.156-39.562 13.3-59.797-6.677-52-36.78 10.018-38.682-12.282-60.445-37.47-63.876l-18.53-3.344 13.906-16.437-14.28-12.063-13.876 16.376-7.22-20.188-17.593 6.28L147 61.28l-21.125-3.81-3.344 18.374 21.126 3.844-13.906 16.406L144 108.188l13.875-16.407 7.22 20.22 17.624-6.28-7.25-20.282 18.468 3.343c29.282 50.18-56.84 94.55-94.563 39.657-26.562-38.65-23.513-83.452 32.125-104.53zM323 292.03c-8.926 1.76-16.83 6.225-22.844 12.533L323 317.75v-25.72zm18.688.345v25.375l21.75-12.563c-5.71-6.233-13.224-10.775-21.75-12.812zM290.5 320.563c-1.465 4.36-2.28 9.033-2.28 13.906 0 4.546.684 8.92 1.967 13.03l23.5-13.563-23.187-13.375zm82.28.812l-21.717 12.563 22 12.687c1.115-3.856 1.718-7.927 1.718-12.156 0-4.573-.702-8.967-2-13.095zM323 350.125l-23.5 13.563c6.09 6.676 14.247 11.395 23.5 13.218v-26.78zm18.688 0v26.438c8.843-2.113 16.594-6.937 22.375-13.532l-22.375-12.905zM73.563 394.78l-18.032 4.845 7.657 28.594-28.624-7.658-4.844 18.063 28.624 7.688-20.938 20.937 13.22 13.22 20.937-20.94 7.656 28.595 18.06-4.844-7.686-28.624 28.656 7.688 4.813-18.063-28.626-7.655 20.97-20.97-13.22-13.186-20.937 20.936-7.688-28.625z"></path></svg>