<svg stroke="currentColor" fill="currentColor" stroke-width="0" viewBox="0 0 512 512" height="1em" width="1em" xmlns="http://www.w3.org/2000/svg"><path d="M214.156 20.813c-.608.008-1.242.03-1.875.062l-.218.03h-.25c-11.497 0-21.325 3.677-25.78 8.876-4.235 4.94-6.13 11.863.093 25.532 6.06 9.42 10.98 22.273 15.25 38.876l-18.094 4.656c-7.37-28.672-16.613-40.406-23.218-43.313-3.302-1.452-6.556-1.55-11.25-.124-4.693 1.427-10.484 4.595-16.75 9.22-9.72 7.174-15.934 16.55-15.562 24.686.29 6.318 4.227 14.314 17.313 22.97 1.1.612 2.186 1.203 3.312 1.843l-.094.188c3.064 1.842 6.5 3.71 10.47 5.593l-8.03 16.906c-5.413-2.568-10.266-5.282-14.595-8.093-16.192-8.893-28.146-12.87-34.78-12.314-3.52.295-5.73 1.276-8.376 3.906-2.647 2.63-5.526 7.308-8.126 14.563-4.317 12.045-5.144 22.04-1.656 27.72 2.788 4.54 9.68 9.21 25.656 10.78 3.855.08 7.95.24 12.437.438v.125c.458 0 .878.004 1.345 0l.188 18.687c-4.722.045-9.132-.107-13.282-.438-12.98-.08-20.925.962-24.405 2.72-2.186 1.103-3.117 2.034-4.313 4.468-1.195 2.434-2.3 6.568-3.03 12.53-.682 5.566-.214 9.71 1 12.657 1.212 2.947 3.035 5.14 7.218 7.375 8.365 4.47 26.81 7.183 57.594 4.563l1.594 18.625c-23.947 2.038-41.727 1.667-55.282-1.844-1.168 4.557-.977 8.102-.125 11.095 1.156 4.055 3.732 7.52 7.626 10.594 7.79 6.147 21.05 9.56 28.906 9.56H227.97c13.584 0 25.346-10.03 29.843-27.905l8.062-32.063 9.906 31.532c5.752 18.3 17.86 28.437 30 28.437H418.69c7.072 0 20.338-4.332 28.375-11.342 4.018-3.506 6.778-7.437 7.968-11.532.77-2.64 1.005-5.44.345-8.72-13.707 3.824-31.838 4.29-56.53 2.19l1.592-18.626c30.786 2.62 49.23-.094 57.594-4.563 4.184-2.234 6.007-4.428 7.22-7.375 1.213-2.946 1.682-7.09 1-12.656-.73-5.963-1.835-10.097-3.03-12.53-1.197-2.435-2.127-3.366-4.314-4.47-3.48-1.757-11.423-2.8-24.406-2.72-4.15.332-8.56.484-13.28.44l.186-18.69c.467.006.887 0 1.344 0v-.124c4.488-.198 8.583-.358 12.438-.437 15.975-1.57 22.867-6.24 25.656-10.78 3.487-5.68 2.66-15.675-1.656-27.72-2.6-7.255-5.48-11.932-8.125-14.563-2.647-2.63-4.857-3.61-8.375-3.906-6.636-.556-18.59 3.42-34.782 12.313-4.328 2.81-9.18 5.524-14.594 8.093l-8.03-16.907c3.97-1.884 7.405-3.75 10.468-5.594l-.094-.187c1.126-.64 2.213-1.23 3.313-1.844 13.085-8.654 17.022-16.65 17.31-22.968.373-8.137-5.84-17.512-15.56-24.687-6.266-4.624-12.058-7.792-16.75-9.22-4.695-1.426-7.95-1.327-11.25.126-2.31 1.018-4.932 3.136-7.69 6.657-.507 1.188-1.063 2.393-1.655 3.594l-.656-.31c-4.452 6.866-9.112 17.516-13.19 33.374l-18.124-4.656c4.843-18.84 10.51-32.857 17.75-42.5 4.325-11.303 2.404-17.425-1.437-21.907-4.457-5.198-14.317-8.874-25.814-8.874h-.22l-.248-.03c-10.128-.51-17.03 1.954-22.72 6.218-5.687 4.264-10.215 10.742-13.624 18.75-6.818 16.015-8.688 37.643-8.688 53.5v.062l-.187 37.03v.095h-18.69v-.093l-.217-37.03v-.062c0-15.858-1.87-37.486-8.688-53.5-3.41-8.01-7.906-14.487-13.594-18.75-5.33-4-11.746-6.415-20.874-6.282zm53.063 259.875c-9.075 13.634-23.052 22.53-39.25 22.53H115.062c-12.312 0-28.024-3.77-40.47-13.593-2.153-1.7-4.197-3.62-6.062-5.75 12.33 91.778 42.41 159.598 81.626 203.313l2.78 3.093h227.285l2.78-3.092c39.775-44.203 70.367-113.023 82.563-206.313-1.888 2.345-4 4.47-6.22 6.406-12.092 10.55-27.56 15.94-40.656 15.94H305.781c-15.713 0-29.264-8.94-38.56-22.533zM164.544 318.86c25.405.424 52.918 18.043 63.33 50.92-18.84 33.4-94.952 30.596-104.97-29.31 8.96-14.128 23.55-21.168 39.19-21.595.813-.022 1.63-.027 2.45-.014zm201.05.015c16.37-.13 31.822 6.878 41.155 21.594-10.017 59.906-86.16 62.71-105 29.31 10.48-33.09 38.302-50.703 63.844-50.905zM174.936 340.28c-8.748 0-15.656 6.907-15.656 15.658 0 8.75 6.91 15.625 15.657 15.625 8.75 0 15.625-6.875 15.625-15.625 0-8.748-6.877-15.657-15.625-15.657zm180.72 0c-8.75 0-15.657 6.907-15.657 15.658 0 8.75 6.908 15.625 15.656 15.625 8.75 0 15.625-6.875 15.625-15.625 0-8.748-6.876-15.657-15.624-15.657z"></path></svg>