<svg stroke="currentColor" fill="currentColor" stroke-width="0" viewBox="0 0 512 512" height="1em" width="1em" xmlns="http://www.w3.org/2000/svg"><path d="M375.344 18.438c-1.137-.01-2.276.007-3.438.03-13.273.27-28.187 2.787-45.562 8.126-22.4 6.883-38.08 27.877-35.844 50.312 1.62 16.34 15.186 34.143 30.875 45.625 24.664 18.046 42.29 36.65 54.375 54.44l7.625 48.843 18.47-2.907-5.064-32.437c-1.34-23-7.98-45.714-22.342-69.095 14.54 8.79 27.36 18.46 38.03 28.156l28.22 55.72 16.656-8.438-26.53-52.406c-7.148-17.347-17.845-33.647-33.783-49.03 15.97 4.774 30.48 10.84 42.97 17.436l39.906 45.22 14-12.376-40.5-45.875-.094.095C441.37 85.048 426.1 72.19 406.063 61.687v-.093c-.278-.243-.558.187-.812.187-25.3-1.83-47.73-.167-62.28 3.69 13.373-10.633 34.805-18.547 64.592-21.25l47.375 18.31 6.75-17.436-41.375-16-.093-.032c-13.467-6.492-27.824-10.464-44.876-10.625zm-237.688.03c-16.838.232-31.037 4.164-44.375 10.595l-41.468 16.03 6.72 17.438 47.406-18.31c29.77 2.706 51.224 10.62 64.593 21.25-14.55-3.857-36.98-5.52-62.28-3.69-.254 0-.534-.43-.813-.186v.093C87.4 72.192 72.132 85.047 60.188 99.876l-.124-.094-40.5 45.876 14.03 12.375L73.5 112.813c12.49-6.596 27-12.662 42.97-17.437-15.94 15.384-26.668 31.684-33.814 49.03l-26.53 52.407 16.687 8.438L101 149.53c10.672-9.694 23.49-19.366 38.03-28.155-14.36 23.38-21 46.095-22.343 69.094l-5.03 32.436 18.468 2.906 7.594-48.78c12.084-17.806 29.684-36.437 54.374-54.5 15.69-11.483 29.254-29.286 30.875-45.626 2.234-22.435-13.414-43.43-35.814-50.312-19.113-5.873-35.252-8.32-49.5-8.125zM307.72 235.814c-11.41 0-24.272 4.91-40.22 22.718v130.814c19.24-13.898 38.485-19.628 56.563-19.844 22.987-.275 43.643 7.632 61.562 15.438 17.92 7.805 33.542 15.33 44.156 16.468 5.308.57 9.002-.088 12.564-2.312 3.187-1.99 6.62-5.816 10-12.53L431.688 256.81c-10.648 7.425-20.88 11.553-30.72 12.688-13.806 1.592-26.063-2.53-36.75-7.97-21.37-10.875-38.164-25.762-56.5-25.717zm-99.376 5c-18.118-.082-35.583 15.45-57.406 27.093-10.912 5.822-23.348 10.394-37.407 9.156-10.018-.88-20.423-4.782-31.186-12.156L62.906 393.47c13.616 13.096 25.344 15.566 38.594 13.842 14.267-1.855 30.332-9.854 47.406-18.093 17.074-8.24 35.31-16.776 55.438-17.22 14.575-.32 29.73 4.21 44.47 15.344V259.47c-16.255-18.45-24.774-18.62-40.47-18.658zM45.438 278.875l-24.782 158.22 194.906 13v19h83.563v-18.97l195.53-13.03-24.78-158.22-15.53 1.22 16.936 106.5.44 2.78-1.158 2.53c-4.76 10.555-10.745 18.306-18.312 23.033-3.66 2.285-7.59 3.727-11.594 4.53l.03.188-1.998.188c-.084.012-.167.02-.25.03-.958.136-1.915.217-2.875.282h-.125L258.563 437.28l-.782.064-.75-.063-158.467-10.967h-.094c-4.606.203-9.278-.1-13.97-.97-.03-.005-.063.006-.094 0-13.02-2.434-26.164-9.29-38.25-22.124l-3.125-3.314.69-4.5 17.405-115.312-15.688-1.22zM324.28 388.188c-18.502.22-37.827 6.678-59.436 27.625l-2.344 2.28 124.563-12.03c-2.944-1.34-5.893-2.688-8.907-4-17.257-7.518-35.372-14.096-53.875-13.875zm-119.53 2.5c-14.906.328-30.94 7.28-47.72 15.375-3.318 1.6-6.69 3.246-10.06 4.875L254 418.344l-2.72-3.125c-17.09-19.683-31.624-24.86-46.53-24.533z"></path></svg>