<svg stroke="currentColor" fill="currentColor" stroke-width="0" viewBox="0 0 512 512" height="1em" width="1em" xmlns="http://www.w3.org/2000/svg"><path d="M232.197 104v80h96v-80h-96zm112 32v16h136v-16h-136zm-163.054 64l-37.504 75.008 224.767-58.635L362.56 200H181.143zm222.133 25.092c-3.69.026-6.933.46-9.2 1.117l-.103.031-297.46 77.598c-12.339 3.219-19.092 6.415-24.038 10.695-4.942 4.276-8.702 10.272-13.754 20.254L31.358 392.18c-2.754 6.371-5.853 27.068-.338 43.568 5.52 16.518 17.015 30.102 47.45 30.08h.003l273.697-.88 94.795-.348c16.262-4.548 26.11-14.702 31.715-25.704 5.701-11.19 6.156-23.595 4.558-28.35l-.068-.206-6.693-24.24-37.315-139.42c-3.892-10.64-11.61-16.252-20.588-19.272-4.514-1.519-9.343-2.194-13.691-2.303a50.494 50.494 0 0 0-1.607-.013zm-1.977 11.27c17.578 0 32 14.421 32 32 0 17.578-14.422 32-32 32s-32-14.422-32-32c0-17.579 14.422-32 32-32zm0 16c-8.931 0-16 7.068-16 16 0 8.93 7.069 16 16 16 8.931 0 16-7.07 16-16 0-8.932-7.069-16-16-16zm-58.27 21.53l4.028 15.485-191.738 49.865-4.026-15.484 191.736-49.865zm74.657 36.083l12.416 51.15-15.55 3.775-12.415-51.152 15.549-3.773zm-31.82 2.441l12.273 60.002-258.727 30.598 7.826-43.82 230.84-45.253 7.787-1.527zm-285.348 5.555c17.578 0 32 14.421 32 32 0 17.578-14.422 32-32 32-1.35 0-2.678-.095-3.985-.26 14.23 6.145 24.26 20.332 24.26 36.748 0 21.997-18.003 40-40 40s-40-18.003-40-40 18.003-40 40-40c2.116 0 4.194.17 6.223.49-10.893-5.123-18.498-16.216-18.498-28.978 0-17.579 14.421-32 32-32zm272.851 13.2L161.063 372.79l-2.108 11.803 220.02-26.02-5.606-27.4zm-272.851 2.8c-8.932 0-16 7.068-16 16 0 8.931 7.068 16 16 16 8.931 0 16-7.069 16-16 0-8.932-7.069-16-16-16zM432.198 376c21.996 0 40 18.003 40 40s-18.004 40-40 40c-21.997 0-40-18.003-40-40s18.003-40 40-40zm0 16c-13.35 0-24 10.65-24 24s10.65 24 24 24c13.349 0 24-10.65 24-24s-10.651-24-24-24zm-351.405 2.459c-13.35 0-24 10.65-24 24s10.65 24 24 24 24-10.65 24-24-10.65-24-24-24zM365.986 413.4l.252 15.998-223.341 3.512-.252-15.998 223.341-3.512z"></path></svg>