<svg stroke="currentColor" fill="currentColor" stroke-width="0" viewBox="0 0 512 512" height="1em" width="1em" xmlns="http://www.w3.org/2000/svg"><path d="M219.756 18.604c4.052 15.357 3.397 24.041 25.824 32.28-11.984 2.437-17.24 4.507-36.502-4.966 3.663 15.35 4.19 26.554 30.022 29.95-12.1 29.8-9.43 68.721 6.771 101.05C202.175 135.722 175.955 26.476 180.8 19.01c-16.578 15.218-29.301 30.44-38.373 51.594-17.433 59.912-22.848 130.145 11.465 186.052 18.791 24.069 46.468 35.866 82.117 25.237-19.815 21.2-61.112 22.051-60.274 51.793-23.867.12-62.388 50.074-80.752 28.255-17.04-20.245 42.624-48.484 36.143-74.14-4.908-19.427-42.686-26.202-70.23-49.643 7.915-29.149-15.428-39.194-40.99-45.695 12.544 14.59 14.274 38.384 8.67 52.271.993.497 13.347-1.809 17.945 2.08 19.335 16.358 78.757 33.365 61.193 52.356-21.627 23.384-54.648 50.988-38.718 75.239 18.849 28.694 75.356 19.427 105.27-3.641-.646 21.619-16.875 46.225-47.435 52.722-11.366 1.646-5.19 37.526-33.92 56.473 5.498 4.408 31.43 21.09 38.424 16.185 16.572-11.619 36.787-25.491 61.875 1.211-7.23-29.056-14.994-37.351-56.01-30.507 8.758-9.139 37.773-18.964 55.918-10.903 54.972-19.776 31.988-37.868 66.926-72.05 30.825 9.253 22.75 44.758 43.98 56.726 29.066-5.264 44.414-10.73 51.756-2.137 7.306 9.274 11.514 11.72 29.24 11.084 11.7 2.646 23.577 15.721 2.686 33.266 40.79-5.645 37.187-35.145 10.467-53.123 8.726-30.173 36.299-6.263 48.135 3.957-6.592-41.814-51.232-51.059-69.44-16.371-11.71-8.922-21.316-18.63-40.031-20.047 3.35-27.712-1.264-36.928-8.512-55.35 15.492-14.416 27.208-27.594 37.441-44.102 37.842 7.222 90.616 15.978 79.995 51.612 40.211-42.77-8.803-40.885-4.623-54.281 4.071-13.05 30.22-16.567 39.304 4.453 4-40.592-44.39-41.118-52.69-21.375-19.237-.065-27.955-9.57-43.263-19.854a159.814 159.814 0 0 0 6.06-26.912c16.883-4.655 34.953-7.128 49.891-20.533 25.367 9.855 42.736-4.934 42.174-27.07 0 0-32.033 35.189-33.7-1.795-.681-15.082 18.625-29.18 43.183-13.656-17.624-40.296-63.094-24.75-62.852 16.8-15.843 7.322-28.376 7.113-41.28 2.614-10.32-30.437-43.035-39.44-60.757-52.116-10.889-7.788 9.06-25.721 27.973-17.61 18.912 8.11 36.923-1.29 45.836-10.24-26.242 2.808-48.716-14.667-48.141-17.93.6-3.41 29.811-7.592 51.326 5.825-1.565-34.591-30.833-35.783-52.08-37.105-18.792-34.937-43.299-38.584-71.062-24.748-19.344-1.381-43.732-6.665-61.303-15.277zM85.154 25.355a2.007 2.007 0 0 0-.265.604c.09-.202.174-.402.265-.604zm-.265.604c-43.453 96.534-16.103 179.77 41.088 215.559-20.947-50.153-17.93-106.467-5.967-156.57-19.158-25.464-36.877-52.809-35.121-58.989zm221.45 17.627c1.756 0 29.795 15.652 29.795 15.652l-23.078 3.16z"></path></svg>