<svg stroke="currentColor" fill="currentColor" stroke-width="0" viewBox="0 0 512 512" height="1em" width="1em" xmlns="http://www.w3.org/2000/svg"><path d="M128 73c-25.495 0-44.07 6.4-55.97 13.86C60.134 94.32 56 103.84 56 104.63v40.274c6.343 2.532 12.03 5.422 17.023 8.545C89.79 163.94 100 175.957 100 189.542v59.57c8.63-1.35 17.956-2.113 28-2.113s19.37.764 28 2.113v-59.57c0-13.585 10.21-25.604 26.977-36.094 4.992-3.124 10.68-6.014 17.023-8.546V104.63c0-.792-4.133-10.31-16.03-17.77C172.07 79.4 153.494 73 128 73zm256 0c-25.495 0-44.07 6.4-55.97 13.86C316.134 94.32 312 103.84 312 104.63v40.274c6.343 2.532 12.03 5.422 17.023 8.545C345.79 163.94 356 175.957 356 189.542v59.57c8.63-1.35 17.956-2.113 28-2.113s19.37.764 28 2.113v-59.57c0-13.585 10.21-25.604 26.977-36.094 4.992-3.124 10.68-6.014 17.023-8.546V104.63c0-.792-4.133-10.31-16.03-17.77C428.07 79.4 409.494 73 384 73zM119 91.086h18v31.63h45v18h-45v99.34h-18v-99.34H74v-18h45v-31.63zm256 0h18v31.63h45v18h-45v99.34h-18v-99.34h-45v-18h45v-31.63zM256 153c-28.832 0-49.91 7.222-63.477 15.71C178.958 177.195 174 187.946 174 189.542v63.494c12.076 3.43 22.355 8.07 30.77 13.33C222.37 277.367 233 290 233 304v58.715h46V304c0-14 10.63-26.632 28.23-37.633 8.415-5.26 18.694-9.9 30.77-13.33v-63.494c0-1.596-4.958-12.347-18.523-20.834C305.91 160.22 284.832 153 256 153zm-238 1.016v56.888h42.666v18H18v133.81h5V304c0-14 10.63-26.632 28.23-37.633 8.415-5.26 18.694-9.9 30.77-13.33v-63.494c0-1.596-4.958-12.347-18.523-20.834C52.917 162.1 37.78 156.28 18 154.015zm476 0c-19.78 2.263-34.916 8.086-45.477 14.693C434.958 177.195 430 187.946 430 189.542v63.494c12.076 3.43 22.355 8.07 30.77 13.33C478.37 277.367 489 290 489 304v58.715h5v-133.81h-42.666v-18H494v-56.89zM247 174.36h18v36.544h51.666v18H265v112.448h-18V228.904h-51.666v-18H247V174.36zM128 265c-30.5 0-52.83 7.633-67.23 16.633C46.37 290.633 41 302 41 304v183h174V304c0-2-5.37-13.368-19.77-22.367-14.4-9-36.73-16.633-67.23-16.633zm256 0c-30.5 0-52.83 7.633-67.23 16.633C302.37 290.633 297 302 297 304v183h174V304c0-2-5.37-13.368-19.77-22.367-14.4-9-36.73-16.633-67.23-16.633zm-265 23h18v39h55v18h-55v119h-18V345H64v-18h55v-39zm256 0h18v39h55v18h-55v119h-18V345h-55v-18h55v-39z"></path></svg>