<svg stroke="currentColor" fill="currentColor" stroke-width="0" viewBox="0 0 512 512" height="1em" width="1em" xmlns="http://www.w3.org/2000/svg"><path d="M87.367 202.125c-3.915 37.715-7.82 75.606-11.521 111.53l55.562-49.268 66.319-241.5c-76.892 6.031-102.04 130.038-110.36 179.238zm-11.521 111.53l-.002.001.002.002v-.004zM52.859 27.584l-17.224 5.23c9.194 30.297 25.192 58.884 52.695 79.046a262.985 262.985 0 0 1 6.412-17.584C73.302 77.146 60.836 53.871 52.86 27.586zm-7.127 75.772l-13.796 11.561c14.94 18.495 24.928 35.097 44.25 46.103 1.17-6.204 2.434-12.432 3.845-18.673-14.49-10.271-24.582-27.282-34.299-38.99zm290.213 4.188l-68.357 60.771c-26.015-13.266-54.933-31.442-78.611-39.818-2.098 5.647-3.75 11.415-5.34 17.217 22.013 9.264 45.08 21.523 65.187 32.701 27.544 14.787 54.625 29.625 77.19 47.18 7.266 4.904 14.51 9.934 21.648 15.1 35.633 25.784 68.641 54.61 88.94 82.593 20.298 27.983 27.563 53.353 16.193 76.297l16.127 7.992c15.139-30.55 4.507-64.173-17.75-94.857-22.258-30.684-56.466-60.201-92.957-86.608-12.866-9.31-26.015-18.206-39.026-26.592 24.738-36.767 29.987-70.986 16.756-91.976zm-160.379 67.592l-4.783 17.44c37.4 16.243 77.063 36.291 110.488 58.843a427.135 427.135 0 0 1 12.41 8.828c22.704 16.796 42.978 35.574 56.028 54.668 13.05 19.094 18.797 37.844 14.566 56.443-5.483 24.106-2.258 42.453 7.215 54.926 9.473 12.474 23.891 18.022 37.705 20.309 11.487 1.901 40.355 4.95 55.268 38.617l16.459-7.29c-18.432-41.61-58.681-47.412-68.785-49.085-11.165-1.848-20.666-6.003-26.313-13.438-5.646-7.434-8.74-19.2-3.998-40.046 5.61-24.664-2.441-48.916-17.256-70.592-14.814-21.677-36.47-41.44-60.183-58.983a461.519 461.519 0 0 0-14.92-10.568 272.93 272.93 0 0 0 7.691-8.043c-17.57-11.549-37.503-22.425-58.076-33.508l-7.803 6.938c-22.342-11.667-42.245-20.393-55.713-25.46zm27.055 50.937c-43.146 38.429-86.357 76.775-129.59 115.104-.009.079-.017.086-.025.166l-5.613 4.97-19.817-21.785-.047.076c-7.457-8.261-18.015-13.087-29.529-14.79v18.93c8.223 1.713 14.326 5.657 17.912 11.376 4.663 7.434 4.814 17.46-.139 28.817-1.649 3.78-3.892 7.624-6.644 11.406L18 390.24v25.809c2.232-1.465 4.387-3 6.46-4.58l204.876-128.873c11.75-7.407 22.54-15.07 32.432-22.88-18.765-13.269-39.824-21.604-59.147-33.642zm72.631 75.604l-14.662 10.44c7.338 10.305 17.222 19.578 22.33 28.917 5.108 9.34 6.88 16.934-1.982 30.041-7.176 10.613-17.888 28.665-16.06 48.694.916 10.014 5.656 20.429 15.17 28.363 9.516 7.934 23.27 13.576 42.55 16.762l2.935-17.76c-17.226-2.846-27.852-7.735-33.957-12.826s-8.225-10.193-8.771-16.176c-1.093-11.966 6.864-27.834 13.045-36.975 12.011-17.765 9.987-35.73 2.86-48.76-7.125-13.029-17.913-22.932-23.458-30.72zm-41.633 30.261l-17.986.715c-.624 27.725 2.833 76.063-18.865 97.305l9.363 15.373c27.446-21.357 28.366-85.096 27.488-113.393zm-114.068 44.145c-16.48 3.924-37.906 21.363-53.322 31.055l-3.047 29.691c-.6 3.072-1.09 6.216-1.428 9.414-1.839 17.462.575 34.01 6.504 47.756h21.021a50.923 50.923 0 0 1-1.775-3.031c-5.458-10.155-8.51-24.25-7.45-39.594l8.95-32.578c2.167-4.138 4.622-7.854 7.283-11.006 18.213-18.833 36.386-16.595 48.28 4.865 5.83 10.856 8.934 26.161 7.187 42.735-1.638 15.541-7.198 29.165-14.47 38.609h22.12c5.682-10.64 9.51-23.121 10.936-36.658 2.104-19.989-1.36-38.78-9.293-53.54-11.54-15.582-24.714-27.804-41.496-27.718z"></path></svg>