<svg stroke="currentColor" fill="currentColor" stroke-width="0" viewBox="0 0 512 512" height="1em" width="1em" xmlns="http://www.w3.org/2000/svg"><path d="M245.625 14.656v141.53c-27.713 6.03-48.875 38.405-48.875 77.47 0 15.552 3.366 30.034 9.156 42.22-3.25-3.28-6.404-6.91-9.406-10.97-33.54-45.34-33.54-121.904 0-167.25l-15-11.125c-39.288 53.12-39.292 136.387 0 189.5 2.543 3.44 5.202 6.67 7.97 9.69-55.29-22.365-93.407-72.152-93.407-129.408H77.374c0 61.73 38.437 115.01 94.438 141.938-21.208 7.248-40.477 17.198-57 29.344-36.29 26.675-59.594 64.432-59.594 106.5h18.686c0-35.19 19.332-67.448 51.97-91.438 16.31-11.99 35.903-21.796 57.75-28.594-2.178 2.024-4.292 4.167-6.345 6.407-42.477 46.365-42.477 120.787 0 167.155L191.063 475c-32.263-35.218-35.342-90.954-9.25-130.094 4.213 13.518 16.883 23.438 31.72 23.438 3.25 0 6.396-.49 9.374-1.375.453 1.81 1.043 3.564 1.78 5.25-4.572 6.227-7.28 13.926-7.28 22.25 0 14.788 8.532 27.58 20.938 33.717-.826-4.1-1.28-8.56-1.28-13.25 0-19.7 8.013-35.687 17.905-35.687 9.89 0 17.905 15.987 17.905 35.688 0 4.69-.456 9.15-1.28 13.25 12.404-6.14 20.936-18.93 20.936-33.72 0-8.215-2.657-15.814-7.124-22 .776-1.73 1.402-3.54 1.875-5.406 2.88.824 5.904 1.282 9.033 1.282 14.87 0 27.566-9.965 31.75-23.53 26.16 39.143 23.102 94.94-9.188 130.186l13.78 12.625c42.48-46.368 42.48-120.79 0-167.156-2.05-2.24-4.166-4.384-6.342-6.408 21.845 6.798 41.438 16.604 57.75 28.594 32.637 23.99 51.968 56.25 51.968 91.438h18.69c0-42.068-23.305-79.825-59.595-106.5-16.524-12.146-35.792-22.096-57-29.344 56-26.93 94.438-80.208 94.438-141.938h-18.688c0 57.256-38.118 107.043-93.406 129.407 2.765-3.02 5.424-6.25 7.967-9.69 39.292-53.11 39.292-136.38 0-189.5l-15 11.126c33.542 45.345 33.54 121.913 0 167.25-2.987 4.04-6.14 7.64-9.375 10.906 5.77-12.18 9.125-26.627 9.125-42.156 0-39.065-21.162-71.44-48.875-77.47V14.657h-18.687zm9.47 281.5c8.137 0 14.53 6.398 14.53 14.53 0 8.135-6.393 14.533-14.53 14.533-8.14 0-14.5-6.398-14.5-14.533 0-8.133 6.366-14.53 14.5-14.53zm-41.564 24.438c8.14 0 14.532 6.398 14.532 14.53 0 8.134-6.393 14.532-14.53 14.532-8.14 0-14.532-6.396-14.532-14.53s6.398-14.532 14.53-14.532zm82.782 0c8.138 0 14.532 6.398 14.532 14.53 0 8.134-6.394 14.532-14.53 14.532-8.14 0-14.533-6.396-14.533-14.53s6.4-14.532 14.533-14.532zm-41.218 23.875c8.138 0 14.53 6.397 14.53 14.53s-6.392 14.53-14.53 14.53c-8.138 0-14.5-6.395-14.5-14.53 0-8.133 6.367-14.53 14.5-14.53z"></path></svg>