<svg stroke="currentColor" fill="currentColor" stroke-width="0" viewBox="0 0 512 512" height="1em" width="1em" xmlns="http://www.w3.org/2000/svg"><path d="M258.924 26.24l-27.717 43.752 27.717 93.643L286.64 69.99l-27.716-43.75zm-134.69 36.1l-2.13 51.748 70.828 67.24-22.82-94.955-45.878-24.033zm267.284 0l-45.883 24.033-22.817 94.955 70.827-67.24-2.127-51.748zM75.234 166.02l-51.75 2.126 24.032 45.88 94.957 22.82-67.24-70.826zm365.282 0l-67.24 70.826 94.958-22.82 24.032-45.88-51.75-2.126zM257.68 184.906c-44.552 0-73.683 19.55-93.12 48.89-18.467 27.874-27.254 65.027-28.097 101.13 26.087 13.015 41.985 26.69 49.12 41.693 6.084 12.788 4.095 26.367-2.94 37.03 5.2 4.41 11.51 8.304 18.59 11.582l8.21-18.51 17.086 7.573-7.7 17.363c8.863 2.48 18.362 4.098 28.06 4.756v-21.13h18.686v21.18c9.763-.62 19.366-2.233 28.4-4.84l-7.18-18.013 17.358-6.92 7.287 18.277c6.542-3.192 12.524-7.025 17.728-11.488-3.267-4.238-5.804-8.768-7.098-13.78-2.07-8.03-.64-16.824 3.782-24.55 8.258-14.428 25.677-26.786 53.043-40.146-.854-34.222-9.458-71.365-27.842-99.715-19.39-29.902-48.53-50.384-93.373-50.384zm-83.043 94.502h.002c37.05 3.798 58.884 24.694 63.356 49.32-27.388-17.367-49.047-14.653-65.633 2.395-18.615-15.848-12.507-33.47 2.274-51.715zm169.384 0h.003c14.78 18.244 20.888 35.867 2.272 51.715-16.586-17.048-38.245-19.762-65.633-2.396 4.472-24.625 26.308-45.52 63.36-49.32zm-89.07 59.703c9.183 16.556 16.467 33.107 20.083 49.66-9.877 7.357-27.558 8.426-40.166 0 4.887-16.553 10.766-33.104 20.084-49.66zm-77.315 94.42l-17.99 29.09c42.795 39.326 137.24 44.524 191.84-.485l-17.56-28.535c-4.854 3.413-10.036 6.395-15.466 8.968l6.208 15.577-17.36 6.92-6.312-15.83c-11.373 3.404-23.373 5.337-35.42 5.972v20.828H246.89v-20.88c-12.305-.692-24.432-2.694-35.802-6.038l-7.217 16.276-17.085-7.575 6.754-15.23c-5.655-2.614-10.99-5.628-15.905-9.06z"></path></svg>