<svg stroke="currentColor" fill="currentColor" stroke-width="0" viewBox="0 0 512 512" height="1em" width="1em" xmlns="http://www.w3.org/2000/svg"><path d="M454.6 16.71c-12.1.21-23.6 6.62-29.1 17.97-6.5 12.86-3.2 27.92 6.5 37.82l-18-8.9-4.7 9.55-45.9-45.56-37.9 59.37-48-48.77L245.8 124l-29.4-94.07-37.1 60.45-18.6-55.15-58.4 36.98-4.29-8.65-18.1 8.96c9.68-9.93 12.96-24.97 6.59-37.83-5.62-11.35-17.12-17.76-29.2-17.97-5.49-.1-11.09 1.09-16.32 3.67-16.71 8.28-24.42 28.36-16.25 44.87 6.37 12.87 20.32 19.38 34.08 17.7l-18.12 8.97 7.98 16.17 20.61-10.2 6.19 12.5-20.58 10.2 7.99 16.2 20.6-10.2 6.18 12.5-20.59 10.2 7.99 16.2 20.61-10.2 6.23 12.5L83.27 178l7.98 16.2L111.9 184l6.9 13.9c-25.56 18.6-39.11 52-38.9 73.3 1.5 47.3 34.2 79.4 74.8 114.8 35.4 30.8 76.1 63.2 100.9 110 .1-.1.1-.2.2-.3.1.1.1.2.2.3 24.8-46.8 65.5-79.2 100.9-110 40.6-35.4 73.3-67.5 74.8-114.8.2-21.2-13.2-54.5-38.6-73.1l7-14.1 20.7 10.2 7.8-16.2-20.6-10.2 6.3-12.5 20.5 10.2 8-16.2-20.5-10.2 6.2-12.5 20.6 10.2 8-16.2-20.6-10.2 6.1-12.5 20.7 10.2 8-16.2-18.2-8.9c13.8 1.6 27.7-4.9 34.2-17.7 8.2-16.56.5-36.64-16.3-44.92-5.2-2.58-10.9-3.77-16.4-3.67zM148 63.86l20.6 69.94 46.7-45.01 23.9 89.81 54.6-86.26 35.6 56.16 31.9-79.86 46 8.41-1.3 2.65 20.5 10.2-6.2 12.5-20.5-10.2-8 16.2 20.5 10.2-6.2 12.5-20.5-10.2-8 16.2 20.6 10.2-6.2 12.5-20.6-10.2-8 16.2L384 176l-6.6 13.2c-7.6-3.1-15.9-4.9-25-5-38-.5-82.6 25.7-96.6 67.7-14-42-58.6-68.2-96.6-67.7-8.9.1-17.2 1.9-24.7 4.9L128 176l20.6-10.2-8-16.2-20.6 10.2-6.2-12.5 20.6-10.2-8-16.2-20.6 10.2-6.17-12.5 20.57-10.2-8-16.16-20.57 10.16-6.2-12.51L106 79.7l-2.2-4.37L148 63.86z"></path></svg>