<svg stroke="currentColor" fill="currentColor" stroke-width="0" viewBox="0 0 512 512" height="1em" width="1em" xmlns="http://www.w3.org/2000/svg"><path d="M41.918 27.688l5.035 18.48 59.123 10.2 46.766 153.976-56.938 15.496 2.748 10.09.967 3.55-1.794 3.208c-24.027 42.99-40.35 87.134-76.77 132.066 7.738 9.582 25.567 30.68 49.098 52.12 31.787 28.96 73.7 57.357 111.283 58.76 93.952 3.503 163.51-70.954 163.51-70.954l2.754-2.98 146.3 3.247v-72.783l-124.207-4.56-2.338-4.946c-45.31-95.853-150.475-223.65-223.66-287.746zm10.256 37.646l38.998 143.14 39.06-10.632L92.078 72.22zM192 236.524c63.776 0 115.477 51.7 115.477 115.476 0 63.776-51.7 115.477-115.477 115.477-63.776 0-115.477-51.7-115.477-115.477 0-63.776 51.7-115.477 115.477-115.477zm.785 18.47a96.87 96.87 0 0 0-21.89 2.33c-52.185 11.633-85.204 63.597-73.57 115.78 11.632 52.186 63.596 85.205 115.78 73.572 52.185-11.633 85.204-63.597 73.57-115.78-9.996-44.847-49.78-75.54-93.89-75.902zm-.904 17.985a78.604 78.604 0 0 1 33.35 7.305l-25.248 39.735a32.75 32.75 0 0 0-6.1-.946l-10.175-45.642a78.932 78.932 0 0 1 8.174-.453zm-25.743 4.368l10.175 45.642a32.725 32.725 0 0 0-4.21 2.73L133.244 296c8.866-10.27 19.363-13.997 32.893-18.654zm74.467 12.304a78.612 78.612 0 0 1 26.048 36.485l-45.642 10.176a32.877 32.877 0 0 0-5.408-7.31zm-118.57 25.578l39.22 24.922a32.924 32.924 0 0 0-2.18 9.967l-45.642 10.173c-1.72-15.995 1.516-31.58 8.603-45.063zm148.534 28.477a78.584 78.584 0 0 1-6.384 40.523l-39.94-25.378c.352-1.627.58-3.288.682-4.97zm-107.578 23.98a32.767 32.767 0 0 0 3.45 5.122l-25.25 39.733a78.573 78.573 0 0 1-23.842-34.68zm52.795 7.116l39.22 24.92c-9.197 12.142-21.93 21.693-37.142 26.93l-10.175-45.643a32.928 32.928 0 0 0 8.097-6.207zm-34.58 8.332a32.878 32.878 0 0 0 8.914 1.79l10.173 45.643a78.613 78.613 0 0 1-44.094-8.082z"></path></svg>