<svg stroke="currentColor" fill="currentColor" stroke-width="0" viewBox="0 0 512 512" height="1em" width="1em" xmlns="http://www.w3.org/2000/svg"><path d="M106 53.5c45 150-45 150 0 300h60c-45-150 45-150 0-300h-60zm120 0c45 150-45 150 0 300h60c-45-150 45-150 0-300h-60zm120 0c45 150-45 150 0 300h60c-45-150 45-150 0-300h-60zm-270 315c-15 0-30 30-30 30-30 0-30 0-30 30v30h480v-30c0-30 0-30-30-30 0 0-15-30-30-30-30 0-30 45-60 45s-30-45-60-45-30 45-60 45-30-45-60-45-30 45-60 45-30-45-60-45z"></path></svg>