<svg stroke="currentColor" fill="currentColor" stroke-width="0" viewBox="0 0 512 512" height="1em" width="1em" xmlns="http://www.w3.org/2000/svg"><path d="M92.656 19.188v41.5h331.72v-41.5H92.655zM119.5 79.374V433.53h22.28V79.376H119.5zm46.594 0c3.212 43.324 13.312 82.022 27.78 110.906 17.685 35.304 40.845 54.75 64.064 54.75 23.218 0 46.346-19.446 64.03-54.75 14.47-28.883 24.57-67.58 27.782-110.905H166.094zm209.156 0V433.53h22.28V79.376h-22.28zm-117.313 185.22c-23.218 0-46.378 19.415-64.062 54.717-14.835 29.614-25.098 69.562-28.03 114.22H350c-2.933-44.658-13.197-84.606-28.03-114.22-17.686-35.302-40.814-54.718-64.033-54.718zM92.657 452.218v41.467h331.718V452.22H92.655z"></path></svg>