<svg stroke="currentColor" fill="currentColor" stroke-width="0" viewBox="0 0 512 512" height="1em" width="1em" xmlns="http://www.w3.org/2000/svg"><path d="M256 25c-6.6 0-16.1 3.77-26.1 10.69-9.9 6.92-20.3 16.69-29.6 27.09-8.4 9.52-15.9 19.56-21.5 28.35 5-2.29 10-4.34 15.1-6.17l.9-.41c20.2-8.78 40.6-13.25 61.1-13.25 20.5-.02 41 4.37 61.3 13.26l.8.35c5.1 1.84 10.2 3.91 15.2 6.22-5.6-8.79-13.1-18.83-21.5-28.35-9.3-10.4-19.7-20.17-29.6-27.09C272.1 28.77 262.6 25 256 25zm0 67.23c-16.3 0-32.5 2.37-48.2 7.1 1 16.67 5.3 36.37 13 51.87 8.8 17.6 20.5 28.6 35.2 28.6 14.7 0 26.4-11 35.2-28.6 7.7-15.5 12-35.2 13-51.87-15.7-4.73-31.9-7.1-48.2-7.1zm-66 13.67c-7.1 3.1-14.1 6.7-20.8 10.9 1.3 19.1 10.4 34.5 24.8 45.7 5.7 4.5 12.3 8.2 19.5 11-3.3-4.4-6.2-9.3-8.7-14.3-8.4-16.6-13.2-35.7-14.8-53.3zm132 0c-1.6 17.6-6.4 36.7-14.8 53.3-2.5 5.1-5.5 10-8.8 14.5 7.4-2.9 14.1-6.6 19.9-11.2 14.2-11.2 23.2-26.6 24.5-45.7-6.7-4.2-13.7-7.8-20.8-10.9zm-131.4 76.2c-23.4 3.6-46.8 9.2-70.3 16.7L93.42 427l31.18 10.4 26.5-198.6 17.9 1.8L155.6 442c23.6 5.7 62.1 9 100.4 9 38.3 0 76.8-3.3 100.4-9L343 240.6l17.9-1.8 26.5 198.6 31.1-10.3-26.8-228.3c-23.4-7.4-46.7-13.1-70-16.7-4.1 2.6-8.4 4.8-12.9 6.8-3.3 11.9-2.9 26 0 39.1 3.7 16.7 11.7 31.8 17.6 37.6l-12.8 12.8c-10.1-10.2-18.1-27.1-22.4-46.4-2.6-11.7-3.8-24.4-2.2-36.7-10.4 2.3-21.5 3.2-33 2.5-11.5.7-22.6-.3-33-2.6 1.6 12.3.4 25-2.2 36.8-4.3 19.3-12.3 36.2-22.4 46.4l-12.8-12.8c5.9-5.8 13.9-20.9 17.6-37.6 2.9-13.2 3.3-27.3 0-39.3-4.4-1.9-8.6-4.1-12.6-6.6zm10.2 154.4h110.4l17.6 77.5-17.6 4-14.4-63.5h-81.6L200.8 418l-17.6-4 17.6-77.5zM91.28 445.2l-2.23 18.9c.05-.3.69 1.7 3.98 4.3 3.4 2.6 8.67 5.3 13.77 7.1 5.1 1.6 10.1 2.2 12.4 2l2.9-22-30.82-10.3zm329.42 0l-30.8 10.3 2.9 22c2.3.2 7.3-.4 12.4-2 5.1-1.8 10.4-4.5 13.8-7.1 3.3-2.6 3.9-4.6 3.9-4.3l-2.2-18.9zm-266.3 15l-1.3 19.2v.1c.5.5 2.1 1.7 4.5 2.9 4.8 2.4 13 4.8 23.1 6.8 20.1 3.8 47.7 5.8 75.3 5.8 27.6 0 55.2-2 75.3-5.8 10.1-2 18.3-4.4 23.1-6.8 2.4-1.2 4-2.4 4.5-2.9v-.1l-1.3-19.2c-26.5 6.1-63.9 8.8-101.6 8.8-37.7 0-75.1-2.7-101.6-8.8z"></path></svg>