<svg stroke="currentColor" fill="currentColor" stroke-width="0" viewBox="0 0 512 512" height="1em" width="1em" xmlns="http://www.w3.org/2000/svg"><path d="M256 105c-8.4 0-15 6.6-15 15s6.6 15 15 15 15-6.6 15-15-6.6-15-15-15zm-96 23c-8.4 0-15 6.6-15 15s6.6 15 15 15 15-6.6 15-15-6.6-15-15-15zm192 0c-8.4 0-15 6.6-15 15s6.6 15 15 15 15-6.6 15-15-6.6-15-15-15zm-105 23.7V222h18v-70.3c-2.9.8-5.9 1.3-9 1.3-3.1 0-6.1-.5-9-1.3zm36 7.5v18.1c14 1.4 28 4 42 7.8v-18.6c-14-3.5-28-6-42-7.3zm-54 .3c-14 1.5-28 4-42 7.6v18.7c14-3.9 28-6.6 42-8.2v-18.1zm-78 15.2v68.5c5.9-2.4 11.9-4.6 18-6.6v-61.9c-2.9.8-5.9 1.3-9 1.3-3.1 0-6.1-.5-9-1.3zm192 0v61.9c6.1 2 12.1 4.2 18 6.6v-68.5c-2.9.8-5.9 1.3-9 1.3-3.1 0-6.1-.5-9-1.3zm36 10.9v19.8c14.3 7 28.6 15.2 43 24.6v-2.8c-4.4-5.6-7-12.6-7-20.2 0-.8 0-1.6.1-2.4-12-7.2-24-13.5-36.1-19zm-246 1c-12 5.5-24.1 11.8-36.04 18.8.02.5.04 1.1.04 1.6 0 7.6-2.62 14.6-7 20.2v3.6c14.3-9.3 28.7-17.4 43-24.4v-19.8zM64 192c-8.39 0-15 6.6-15 15s6.61 15 15 15 15-6.6 15-15-6.61-15-15-15zm384 0c-8.4 0-15 6.6-15 15s6.6 15 15 15 15-6.6 15-15-6.6-15-15-15zM54 238.4v69.4c5.43-6 11.47-11.8 18-17.4V239c-2.56.6-5.24 1-8 1-3.48 0-6.84-.6-10-1.6zm404 0c-3.2 1-6.5 1.6-10 1.6-2.8 0-5.4-.3-8-1v51.4c6.5 5.6 12.6 11.4 18 17.4v-69.4zM256 240c-53.9 0-108.4 19.4-149 46.5-36.17 24.1-60.24 54.3-65.06 79.5h46.01c2.26-11.6 8.62-22.4 17.35-32.2 10.9-12.3 25.6-23.3 42.3-32.6C180.9 282.4 221.8 270 256 270s75.1 12.4 108.4 31.2c16.7 9.3 31.4 20.3 42.3 32.6 8.7 9.8 15.1 20.6 17.3 32.2h46.1c-4.9-25.2-28.9-55.4-65.1-79.5-40.6-27.1-95.1-46.5-149-46.5zm220 7.8v19.8l9.9-11.4c-3.3-2.9-6.6-5.6-9.9-8.4zM36 248c-3.27 2.7-6.54 5.3-9.81 8.1L36 267.8V248zm211 117.1V487h18V365.1h-18zm-35.8.8c-6.2.3-12.4.5-18.5.9L168.6 487H187l24.2-121.1zm89.6 0L325 487h18.4l-24.1-120.2c-6.1-.4-12.3-.6-18.5-.9zm-153.5 4.4c-6.6.7-13.1 1.4-19.6 2.2L89.53 487h18.87l38.9-116.7zm217.4 0L403.6 487h18.8l-38.1-114.5c-6.5-.8-13-1.5-19.6-2.2z"></path></svg>