<svg stroke="currentColor" fill="currentColor" stroke-width="0" viewBox="0 0 512 512" height="1em" width="1em" xmlns="http://www.w3.org/2000/svg"><path d="M241 30.32c-4.7 0-9.3.7-13.8 2.22-13.5 4.65-26.5 16.93-35.5 42.12-9.7 26.74-12.9 50.34-27.4 70.04-14.6 19.7-39.9 32.3-88.23 37.5-20.53 2.3-33.92 11.1-42.5 23.3-8.59 12.2-12.18 28.1-10.74 44.4 2.89 32.4 25.05 64.2 63.49 67.9C137 322.7 175.4 319 205 308.9c-.4-6.4-.7-12.8-.8-19.3-1-50.6 33.2-90.5 71.2-104.3 9.5-3.5 19.3-5.3 29-5.2.8 0 1.5.1 2.3.1 2.8-10.4 5.3-21.4 7.6-32.7 9.6-46.8-14.3-89.71-43.6-107.81-9.1-5.66-18.5-8.86-27.6-9.33-.7 0-1.4-.1-2.1-.1zm-32.4 41.62l17.6 3.32c-10.3 55.14-26.5 90.14-53.4 112.24-18.7 15.4-41.8 24.1-70 29.9l-4.46-17.5c26.86-5.5 47.36-13.4 63.06-26.3 22.5-18.5 37.2-48.5 47.2-101.66zM304 198.1c-7.2-.1-14.8 1.3-22.5 4.1-30.6 11.2-60.2 44.9-59.3 87 1 50.7 10.6 95.3 38.9 128.7 28.2 33.4 76 56.9 157.2 63.5 37.3 3.1 62.1-18.9 69.2-43.2 3.5-12.2 2.5-24.8-3.6-35.6-6-10.8-17.4-20.3-36.5-25.7-45-12.7-68.5-32.7-80.5-56.6-12-23.8-12.9-49.8-17.4-75v-.1c-4-23.4-13.9-36-25.7-42.3-6-3.1-12.7-4.7-19.8-4.8zm-223.42 5l4.4 17.6c-7.22 1.1-14.7 2.1-22.54 3.1l-2.2-17.8c7.12-.9 13.87-1.8 20.34-2.9zm223.32 14.3l1.4 18c-5.7.5-10.7 1.5-15.1 2.9l-7.9-16.2c6.5-2.4 13.7-4 21.6-4.7zm-37.5 13.2l8.1 16.6c-1.4 1.2-2.6 2.5-3.8 3.9-7.1 8.5-11 20.3-12.2 33.9-2.5 27.3 6.2 61.1 14.7 82.2l-16.6 6.8c-9.4-23.2-18.9-58.4-16.1-90.6 1.5-16 6.1-31.6 16.4-43.8 2.7-3.3 5.9-6.3 9.5-9z"></path></svg>