<svg stroke="currentColor" fill="currentColor" stroke-width="0" viewBox="0 0 512 512" height="1em" width="1em" xmlns="http://www.w3.org/2000/svg"><path d="M316.78 22.875c-39.934 7.73-68.166 23.587-85.06 45.594l56.686 32.718c7.082-3.366 14.852-5.288 22.97-5.407 4.6-.066 9.312.447 14.062 1.595 3.55-21.452.93-46.382-8.657-74.5zm-97.155 60.188l-86.97 150.562 93.126 53.813 21.876-37.875c-9.93-9.794-14.08-24.695-14.594-40.22-.63-18.986 3.98-40.098 12.563-59.187 6.37-14.167 14.91-27.294 25.72-37.22l-51.72-29.874zM426.095 86c-29.394 5.69-52.423 15.795-69.283 29.5 9.33 9.8 14.302 21.758 15.282 34.03l56.53 32.626c10.69-25.678 10.483-57.99-2.53-96.156zM64.968 94.063L27.03 159.78l102 42.75 60.814-105.31L64.97 94.062zm246.624 19.968c-6.535.105-12.59 2.26-18.563 5.845-11.942 7.17-22.876 21.332-30.342 37.938-7.467 16.605-11.48 35.512-10.97 50.906.51 15.377 5.323 26.064 12.813 30.405.008.004.026-.004.033 0 7.503 4.316 19.15 3.152 32.718-4.094 13.584-7.253 27.95-20.167 38.595-34.936 10.645-14.77 17.45-31.35 17.688-45.28.237-13.933-4.683-25.242-20.5-34.376-7.91-4.568-14.935-6.51-21.47-6.407zm58.812 56.126c-3.198 14.315-10.297 28.28-19.375 40.875-12.236 16.98-28.18 31.522-44.936 40.47-13.74 7.338-28.795 11.2-42.28 7.438l-21.845 37.812 93.124 53.78L422 199.94l-51.594-29.782zm54.22 62.625l-60.782 105.345 88.03 67 37.938-65.75-65.187-106.594zm-276.657 31.282c-22.477 9.84-39.73 23.148-51.814 39.344l87.5 50.53c8.04-18.58 11.052-40.098 8.5-64.342l-44.187-25.53zM87.874 320.22L18.22 440.78v37.345l85.843-148.563-16.188-9.343zm169.406 6.967c-22.48 9.84-39.725 23.143-51.81 39.344l87.5 50.533c8.042-18.59 11.056-40.12 8.5-64.375l-44.19-25.5zM122.19 340.031l-90 154.876H53.81l84.594-145.5-16.22-9.375zm34.437 19.876l-77.78 135h21.56l72.376-125.656-16.155-9.344zM197.47 383.5l-63.22 111.406h21.5l57.906-102.062-16.187-9.344zm34.436 19.906l-51.062 91.5h21.375l45.874-82.187-16.188-9.314zm34.438 19.875l-38.938 71.626h21.313l33.843-62.28-16.22-9.345z"></path></svg>