<svg stroke="currentColor" fill="currentColor" stroke-width="0" viewBox="0 0 512 512" height="1em" width="1em" xmlns="http://www.w3.org/2000/svg"><path d="M20.02 20.02c-1.415 1.414-2.87 4.939-1.404 12.857 1.467 7.919 5.948 19.18 14.07 32.718l.075.124.07.126c36.072 64.774 100.54 100.053 156.894 156.407 3.535 3.535 4.692 8.141 4.86 12.202.168 4.06-.524 8.036-1.648 12.226-2.248 8.38-6.392 17.635-11.551 27.216-8.686 16.13-20.094 32.615-30.883 44.898l10.23 10.231 168.292-168.291-10.231-10.231c-12.283 10.789-28.768 22.197-44.899 30.883-9.58 5.159-18.835 9.303-27.215 11.551-4.19 1.124-8.166 1.816-12.226 1.648-4.06-.168-8.667-1.325-12.202-4.86-53.66-53.66-81.946-115.656-156.388-156.882l-.137-.076-.132-.08c-13.537-8.123-24.8-12.605-32.718-14.07-7.918-1.467-11.443-.012-12.858 1.402zm27.576 27.576A32 16 45 0 1 81.538 58.91 32 16 45 0 1 92.85 92.851a32 16 45 0 1-33.94-11.313 32 16 45 0 1-11.315-33.942zm125.865 294.157l9.9 9.9L351.652 183.36l-9.9-9.9zm22.628 22.627l9.9 9.9 168.29-168.292-9.899-9.9zm22.53 22.724c21.7 21.843 56.445 58.776 71.301 106.89l18.939-18.938c.264-11.26-.095-21.74-1.047-31.48 5.234 4.6 10.043 11.404 14.27 18.257l25.795-25.795c-4.578-9.167-10.801-17.054-16.325-25.486 8.741 5.196 17.668 10.207 25.477 16.334l40.646-40.646c-6.681-2.406-12.95-6.323-19.066-10.804 9.83 1.596 20.11.934 30.588-.718l25.66-25.66c-3.612-10.324-7.613-20.26-13.055-28.756 11.272 2.37 19.41 8.292 27.163 14.648l19.88-19.88c-3.56-2.767-6.356-6.46-9.117-14.082 6.663 3.66 13.225 3.978 19.931 3.268l14.336-14.336c-48.115-14.856-85.048-49.601-106.89-71.3z"></path></svg>