<svg stroke="currentColor" fill="currentColor" stroke-width="0" viewBox="0 0 512 512" height="1em" width="1em" xmlns="http://www.w3.org/2000/svg"><path d="M72.125 18.688c-9.46 13.14-16.043 26.715-20.344 40.406-77.626 45.738-20.02 138.16 54.44 156.5C92.84 159.11 134.66 125.15 85.937 70.47c-8.967 20.638-14.905 43.45-12.72 59.03l-18.5 2.594c-4.168-29.71 10.02-65.347 25.657-91.97l.063.032c2.062-3.534 4.335-7.046 6.843-10.53l-15.155-10.94zM347.25 47.593c-2.45.03-4.947.108-7.5.28 60.054 73.07 59.996 109.712 27.875 136.595 27.75 8.257 52.752 7.666 73.188.78-4.254-15.946-14.26-34.174-27.938-42.813l9.97-15.78c21.69 13.696 33.306 38.822 37.467 59.812l-.093.03c4.044 13.375 5.324 26.87 2.686 40.313l18.344 3.593c4.417-22.507.312-44.035-8.438-64.344 23.963-23.15 31.486-59.877 13.5-97.75-36.238 43.52-63.132-21.646-139.062-20.718zm10.063 108.437c-107.724 16.108-77.38 85.577-148.813 51.657 8.637 24.32 19.064 44.07 31.344 59.125 15.183-13.762 20.977-25.165 29.062-42.718l16.97 7.812c-8.85 19.21-17.296 35.014-37.22 52.03-.086.075-.163.147-.25.22-15.116 14.143-33.605 24.908-53.22 27.72l2.658 18.5c27.763-3.98 51.817-19.937 70.03-39.188 31.32 18.082 70.952 15.045 119.22-9.97-32.857-24.236-69.882-45.273-29.78-125.187zm-226.188 39.564c-16.46 35.83 4.11 98.707 69.344 42.656-22.37-4.4-45.016-12.364-69.345-42.656zM34.97 198.78c-25.453 49.62-7.315 149.23 69.593 81.69-26.776-12.287-52.236-29.996-69.594-81.69zm445.217 62.72c-15.204 58.85-114.852 8.227-128.343 82.594 26.05-4.657 55.36-15.45 68.75-29.188l13.375 13.063c-20.942 21.483-57.817 32.097-88.44 36.03v-.094c-12.127 2.265-24.29 3.608-36.56 3.688l.124 18.687c16.406-.105 32.412-2.222 48.094-5.624 48.993 98.302 148.144-20.957 123-119.156zm-425.156 72l-16.843 8.156c8.867 18.3 26.883 37.096 49.626 51.28.83.52 1.687.996 2.53 1.502 17.297 105.905 167.944 75.538 183.22-21.5-42.678 38.96-130.002-78.15-176.407-19.344 14.625 15.48 44.454 29.52 69.5 36.03l-4.72 18.063c-26.692-6.94-57.662-19.817-76.842-39.562-14.042-11.11-24.918-24.006-30.063-34.625zm229.72 79.938c-56.055 51.053 20.728 137.41 75.47 31.156-43.082 14.07-68.174 1.94-75.47-31.156z"></path></svg>