<svg stroke="currentColor" fill="currentColor" stroke-width="0" viewBox="0 0 512 512" height="1em" width="1em" xmlns="http://www.w3.org/2000/svg"><path d="M152.313 19.438C138.075 73.11 172.984 126.662 178.25 180.25c-28.744-16.01-71.286-25.18-88.656-43.656 9.36 29.558 51.055 44.096 77.094 66.312-57.236 1.556-101.637 65.75-148.125 79 54.52 31.628 111.427.296 167.437 23.875-27.654 34.76-47.284 67.888-57.97 107.283C148.787 384.2 174.07 351.39 198.72 326c-11.686 54.742 1.313 109.477 28.155 164.22 13.028-52.977 67.36-98.796 75.03-157.533 22.665 36.313 53.4 62.266 83.158 103.938-14.644-51.287-47.12-87.914-64.22-123.625 52.358 5.59 115.075 28.68 168.5 43.47-29.835-58.79-64.534-103.922-107.78-125.158 33.01.717 70.858 5.604 103.312 10.907-33.377-19.14-68.513-28.226-110-33.032 49.013-47.885 68.943-95.774 68.406-143.657-48.033 32.51-96.09 58.57-144.124 74.75 17.206-28.64 40.82-59.57 62-85.468-35.326 20.535-61.807 48.477-88.22 85.094-23.716-46.89-79.993-64.068-120.623-120.47zm35.625 72.937c8.325 26.55 49.006 61.23 63.718 91.625-7.935 2.196-15.188 5.65-21.437 10.063-9.67-33.43-46.513-71.114-42.282-101.688zm213.28 31.906c-20.144 34.656-47.403 60.806-83 86.72-2.394-7.408-7.083-13.755-13.124-18.563 31.454-17.384 66.972-44.313 96.125-68.156zm-129.812 75.814c6.66.108 12.638 1.57 17.375 3.97 7.22 3.653 11.376 8.906 12.345 15.436.97 6.53-1.55 13.663-7.53 20.188-5.983 6.524-15.326 12.01-26.283 14.218-10.956 2.208-21.094.686-28.312-2.97-7.218-3.653-11.374-8.906-12.344-15.436-.97-6.53 1.55-13.694 7.53-20.22 5.983-6.524 15.328-11.98 26.283-14.186 2.738-.552 5.424-.86 8.03-.97.977-.04 1.955-.046 2.906-.03zm-63.562 30.562c-.138 2.495-.034 5.02.344 7.563.983 6.622 3.748 12.55 7.718 17.56-36.236-7.654-91.958 24.29-125.062 10.157 34.23-.804 77.367-27.78 117-35.28zm107.5 10.25c43.444 16.685 78.393 35.883 108.406 65.72-39.556-17.844-87.918-37.4-126.563-45.47 3.768-2.62 7.204-5.558 10.188-8.812 3.177-3.465 5.884-7.328 7.97-11.438zM274.156 271.5l.22.03c-19.568 32.856-17.574 83.757-44.313 131.845 8.36-50.135 3.05-88.19 17.593-130.438 7.4 1.1 15.3.903 23.344-.718 1.07-.217 2.108-.46 3.156-.72z"></path></svg>