<svg stroke="currentColor" fill="currentColor" stroke-width="0" viewBox="0 0 512 512" height="1em" width="1em" xmlns="http://www.w3.org/2000/svg"><path d="M216.058 50.312c-.86-.005-1.572.037-2.12.123-5.981.932-20.108 8.016-36.207 19.511-16.098 11.496-34.887 27.134-53.93 44.485C95.74 140 67.162 169.31 45.217 194.7a3640.34 3640.34 0 0 0 50.812-3.872c1.538-16.08 6.79-32.61 17.368-45.879 10.166-12.751 26.122-21.682 46.617-21.675 18.943.006 41.55 7.126 68.935 23.275 21.438-25.45 40.574-39.736 58.412-45.451 4.809-1.54 9.513-2.39 14.06-2.643 13.645-.757 25.888 3.872 35.364 11.428 12.635 10.075 21.142 24.598 26.899 38.805.992 2.45 1.896 4.884 2.724 7.293 23.722-4.31 47.353-8.98 70.862-14.045-37.748-21.248-80.89-42.643-120-59.428-24.529-10.527-47.336-19.235-65.735-24.926-16.098-4.98-29.455-7.241-35.476-7.271zM305.4 116.13c-3.799-.029-7.94.635-12.548 2.111-14.046 4.5-32.654 17.808-54.899 45.59l-5.01 6.26-6.795-4.258c-28.717-17.994-50.548-24.553-66.142-24.558-15.595-.005-25.28 5.793-32.537 14.896-14.515 18.206-15.809 52.865-10.364 69.465 18.603 56.713 44.738 83.02 82.76 99.79 40.195-.354 79.786-7.153 118.967-19.483 20.884-31.578 38.095-67.142 36.006-118.356-.289-7.076-2.844-19.814-7.838-32.139-4.994-12.324-12.465-24.333-21.44-31.49-5.609-4.473-11.496-7.346-18.552-7.773-.53-.032-1.065-.05-1.608-.055zm-3.562 12.434a32.378 32.378 0 0 1 1.945.008c12.646.438 23.185 11.183 29.035 24.455-30.127-21.403-61.454-.145-79.638 12.49 12.363-17.632 28.675-36.452 48.658-36.953zm-137.897 25.761c13.546.007 30.081 4.885 46.036 17.26-86.153-26.888-63.03 66.667-35.965 120.168-28.36-17.18-59.2-88.077-38.166-125.47 3.994-7.101 14.55-11.965 28.095-11.958zm273.852 5.817a2248.032 2248.032 0 0 1-66.674 13.187c.972 4.94 1.54 9.517 1.703 13.524 1.966 48.19-12.285 84.872-30.328 115.326 3.958-.999 8.002-2.008 11.836-2.985 35.11-44.441 56.905-91.65 83.463-139.052zm15.437 9.289c-24.388 43.716-45.437 88.85-78.228 132.535 42.408 26.96 76.17 59.279 109.562 91.057-4.48-75.07-16.635-149.384-31.334-223.592zm-357.435 39.4a3715.148 3715.148 0 0 1-68.361 5.033c42.3 39.285 77.699 79.787 131.166 113.1 2.476.118 4.947.205 7.414.275-28.645-19.655-50.737-49.423-66.012-95.994-2.143-6.533-3.63-14.2-4.207-22.414zm-66.64 31.49l35.439 208.356c15.896-32.83 45.198-74.957 77.945-110.531-46.16-29.99-78.98-64.656-113.385-97.825zm333.741 75.29l-1.09.277c-54.862 13.97-125.265 32.309-201.154 29.244-35.114 37.072-67.574 85.062-82.158 116.557 146.769-2.776 272.969-26.229 398.856-50.698-35.89-34.067-70.647-67.974-114.454-95.38z"></path></svg>