<svg stroke="currentColor" fill="currentColor" stroke-width="0" viewBox="0 0 512 512" height="1em" width="1em" xmlns="http://www.w3.org/2000/svg"><path d="M256 24c-67.94 0-109.512 28.038-135.855 71.016-5.116 8.345-9.612 17.29-13.547 26.714l9.11 6.41s27.29 18.618 39.538 23.202c11.417 4.272 25.115 5.133 39.65 6.28 14.536 1.15 30.026 2.604 44.45 10.046 6.602 3.406 11.727 8.845 16.12 13.61.3.325.232.292.518.61.292-.325.224-.292.528-.622 4.396-4.782 9.52-10.24 16.203-13.627 14.53-7.363 30.093-8.45 44.623-9.3 14.53-.85 28.143-1.487 39.385-5.74 6.07-2.297 16.45-8.49 24.705-13.996 8.255-5.507 14.638-10.3 14.638-10.3l9.2-6.91c-3.903-9.3-8.356-18.132-13.41-26.378C365.51 52.038 323.94 24 256 24zM115.38 149.62c-8.117 24.86-13.518 46.368-14.284 64.882-.88 21.285 3.656 38.784 16.646 56.2 3.226 4.326 17.322 10.325 30.574 13.048 13.253 2.724 25.084 3.432 25.084 3.432l8.473.498v32.674l-3.096 2.69s-9.965 8.677-19.87 20.16C149 354.685 140.31 369.596 140.31 376.5c0 19.28 17.468 42.31 36.698 52.256 8.275 4.28 22.1 2.26 35.428-.78 4.93-1.126 10.668-5.18 17.472-9.935 6.805-4.754 15.124-10.374 26.092-10.374 10.968 0 19.287 5.62 26.092 10.375 6.804 4.756 12.542 8.81 17.472 9.935 13.328 3.04 27.153 5.06 35.428.78 19.23-9.945 36.697-32.976 36.697-52.255 0-6.903-8.69-21.814-18.596-33.297-9.906-11.482-19.87-20.16-19.87-20.16l-3.097-2.69V287.68l8.473-.498s11.83-.71 25.084-3.432c13.252-2.724 27.348-8.722 30.574-13.047 12.99-17.417 17.527-34.916 16.646-56.2-.764-18.455-6.134-39.886-14.207-64.642-2.327 1.64-2.307 1.735-5.28 3.718-8.706 5.807-19.11 12.37-28.323 15.858-14.986 5.67-30.463 6.04-44.703 6.873-14.24.832-27.125 2.108-37.54 7.385-1.994 1.01-7.263 5.59-11.088 9.752-3.826 4.16-6.637 7.8-6.637 7.8l-7.102 9.204-7.13-9.18s-2.824-3.63-6.66-7.79c-3.837-4.16-9.1-8.763-11.14-9.816-10.494-5.414-23.4-6.975-37.613-8.098-14.213-1.122-29.62-1.782-44.542-7.367-11.97-4.48-24.632-12.566-33.557-18.58zm52.4 34.956c16.23.14 33.973 5.41 47.93 11.174 8.774 3.623 16.51 11.337 20.145 20.084 5.14 12.37 9.497 30.7 0 40.166-23.74 23.668-76.98 23.668-100.72 0-14.244-14.2-14.244-46.05 0-60.25 8.31-8.284 20.02-11.282 32.644-11.174zm176.44 0c12.626-.108 24.336 2.89 32.645 11.174 14.244 14.2 14.244 46.05 0 60.25-23.74 23.668-76.98 23.668-100.72 0-9.497-9.467-5.14-27.796 0-40.166 3.634-8.747 11.37-16.46 20.144-20.084 13.957-5.764 31.7-11.035 47.93-11.174zM84.134 235.22c-.287 6.905-.432 13.838-.432 20.78 0 38.662 9.978 97.927 36.652 146.277C147.025 450.627 188.912 488 256 488c67.087 0 108.975-37.373 135.648-85.723 26.674-48.35 36.65-107.615 36.65-146.277 0-6.942-.144-13.875-.43-20.78-2.338 16.362-8.42 31.813-19.182 46.245-9.583 12.85-26.66 16.89-41.38 19.916-7.29 1.5-14.12 2.433-19.18 3v7.944c3.384 3.062 10.21 9.398 18.597 19.12 10.876 12.61 22.966 27.822 22.966 45.056 0 28.995-21.616 55.41-46.428 68.244-16.156 8.356-34.062 3.893-47.7.78-10.146-2.313-17.445-8.3-23.78-12.727-6.336-4.427-11.26-7.13-15.782-7.13-4.52 0-9.446 2.703-15.78 7.13-6.337 4.427-13.636 10.414-23.78 12.728-13.64 3.112-31.547 7.575-47.702-.78-24.812-12.834-46.427-39.25-46.427-68.245 0-17.234 12.09-32.447 22.967-45.055 8.388-9.723 15.213-16.06 18.596-19.12v-7.946c-5.06-.567-11.89-1.5-19.18-3-14.718-3.024-31.796-7.066-41.38-19.915-10.762-14.432-16.843-29.883-19.18-46.244zM256 256l60.434 60.25c-60.433 10.613-60.435 10.606-120.868 0L256 256zm0 85.354c25.18 0 50.36 5.02 80.576 15.062 20.144 20.083 20.144 40.168 0 40.168-60.433-20.083-100.72-20.083-161.152 0-20.144 0-20.144-20.085 0-40.168 30.216-10.042 55.396-15.062 80.576-15.062z"></path></svg>