<svg stroke="currentColor" fill="currentColor" stroke-width="0" viewBox="0 0 512 512" height="1em" width="1em" xmlns="http://www.w3.org/2000/svg"><path d="M144 23c-9.282 0-17 7.718-17 17 0 5.99 3.224 11.317 8 14.35v40.46l-15.156 7.38L91.68 228.93l76.5-12.75 15.238-91.434 48.268-77.014L153 86.047V54.35c4.776-3.033 8-8.36 8-14.35 0-9.282-7.718-17-17-17zm112 19.832L202.62 128h106.76L256 42.832zM416 45c-24.96 0-45 20.04-45 45s20.04 45 45 45 45-20.04 45-45-20.04-45-45-45zm-135.686 2.732l48.268 77.014 15.068 90.414 76.637 13.617-17.135-77.105C374.586 145.708 353 120.287 353 90c0-2.263.126-4.497.36-6.7l-73.046-35.568zM416 71c9.282 0 17 7.718 17 17s-7.718 17-17 17-17-7.718-17-17 7.718-17 17-17zm-288 48h32v18h-32v-18zm64 89l16 32h96l16-32H192zm149.88 25.13l-39.46 92.067 91.148-13.35 25.967-64.92-77.656-13.798zm-171.468.925L92.51 247.04l25.922 64.806 89.494 13.11-37.514-90.9zM198.942 256l29.71 71.992L256 331.998l25.527-3.74L312.494 256h-113.55zm-84.962 73.385L58.15 455H32v18h64v-18H77.85l6.543-14.72c.154-.06.285-.122.486-.18 1.41-.413 3.09-.958 5.097-1.637 4.014-1.358 9.296-3.25 15.464-5.514 12.34-4.53 28.187-10.538 43.86-16.546 18.96-7.267 34.964-13.486 46.782-18.093L247 436.5V471h-23v18h64v-18h-23v-34.5l50.918-38.19c11.818 4.608 27.82 10.827 46.78 18.094 15.675 6.008 31.523 12.017 43.86 16.545 6.17 2.263 11.45 4.155 15.465 5.513 2.007.68 3.687 1.224 5.098 1.637.202.058.333.12.487.18L434.15 455H416v18h64v-18h-26.15l-55.83-125.613-18.493 2.71 38.096 85.717c-1.6-.578-3.097-1.116-4.86-1.763-12.184-4.47-27.99-10.462-43.622-16.454-14.304-5.483-28.13-10.84-39.288-15.176l24.304-48.608-21.715 3.18L314.44 375H265v-26.13l-9 1.32-9-1.32V375h-49.438l-18.003-36.008-21.718-3.18 24.304 48.608c-11.156 4.337-24.983 9.693-39.287 15.176-15.633 5.992-31.44 11.983-43.622 16.455-1.764.648-3.26 1.186-4.86 1.764l38.095-85.72-18.493-2.71zM219 393h28v21l-28-21zm46 0h28l-28 21v-21z"></path></svg>