<svg stroke="currentColor" fill="currentColor" stroke-width="0" viewBox="0 0 512 512" height="1em" width="1em" xmlns="http://www.w3.org/2000/svg"><path d="M256.977 22.395c-16.8 0-32.49 7.65-45.864 20.177-13.372 12.53-24.82 29.98-34.363 51.117-2 4.428-3.91 9.03-5.736 13.777-5.035-.793-9.986-1.442-14.83-1.926-5.77-.575-11.4-.932-16.87-1.06-16.42-.39-31.427 1.275-44.58 5.262-17.536 5.317-32.006 15.083-40.406 29.63-8.4 14.55-9.62 31.964-5.457 49.81 4.165 17.845 13.552 36.484 27.087 55.318 2.84 3.95 5.874 7.912 9.076 11.873-3.198 3.957-6.228 7.913-9.064 11.86-13.536 18.833-22.923 37.472-27.087 55.318-4.164 17.846-2.943 35.26 5.457 49.807 8.4 14.55 22.87 24.315 40.406 29.63 17.537 5.318 38.373 6.507 61.45 4.202 4.838-.484 9.78-1.13 14.808-1.922 1.83 4.755 3.743 9.366 5.746 13.802 9.543 21.14 20.99 38.587 34.363 51.116 13.373 12.528 29.065 20.18 45.864 20.18 16.798 0 32.49-7.652 45.863-20.18 13.372-12.53 24.82-29.977 34.363-51.116 2.003-4.436 3.916-9.045 5.746-13.8 5.022.79 9.96 1.437 14.794 1.92 23.078 2.304 43.915 1.115 61.45-4.202 17.538-5.316 32.008-15.082 40.408-29.63 8.4-14.55 9.62-31.962 5.457-49.807-4.165-17.845-13.553-36.484-27.087-55.318-2.837-3.946-5.867-7.902-9.065-11.86 3.202-3.96 6.237-7.92 9.076-11.872 13.535-18.834 22.922-37.473 27.086-55.318 4.164-17.846 2.943-35.26-5.457-49.81-8.4-14.547-22.87-24.313-40.406-29.63-13.152-3.987-28.16-5.652-44.578-5.263-5.474.128-11.105.485-16.874 1.06-4.84.484-9.787 1.133-14.817 1.925-1.828-4.746-3.738-9.347-5.737-13.776-9.543-21.14-20.99-38.59-34.363-51.118-13.373-12.528-29.065-20.177-45.863-20.177zm0 18.687c11.205 0 22.192 4.923 33.086 15.13 10.893 10.205 21.297 25.653 30.107 45.167 1.404 3.11 2.765 6.334 4.086 9.643-21.417 4.762-44.1 12.068-67.285 21.83-23.18-9.76-45.86-17.064-67.273-21.826 1.322-3.31 2.68-6.536 4.086-9.648 8.81-19.515 19.214-34.963 30.108-45.17 10.894-10.205 21.88-15.128 33.087-15.128zm-123.59 82.057c1.804-.018 3.637-.006 5.498.036 4.96.11 10.117.43 15.443.963 3.406.34 6.887.775 10.424 1.288-6.586 20.927-11.6 44.222-14.742 69.18-20.048 15.2-37.718 31.194-52.55 47.363-2.212-2.805-4.33-5.6-6.327-8.378-12.495-17.386-20.67-34.12-24.063-48.658-3.392-14.538-2.16-26.513 3.442-36.217 5.602-9.704 15.36-16.757 29.644-21.088 9.375-2.843 20.6-4.375 33.23-4.49zm247.168 0c12.63.115 23.855 1.647 33.23 4.49 14.286 4.33 24.04 11.383 29.643 21.087 5.602 9.704 6.835 21.68 3.443 36.217-3.39 14.537-11.57 31.272-24.063 48.658-1.997 2.778-4.113 5.573-6.325 8.38-14.83-16.167-32.495-32.157-52.537-47.355-3.14-24.962-8.16-48.26-14.746-69.19 3.533-.513 7.01-.95 10.413-1.288 5.326-.533 10.483-.853 15.444-.964 1.86-.042 3.693-.054 5.498-.037zm-49.92 5.64c4.97 15.438 9.085 32.472 12.156 50.7-9.716-6.567-19.876-12.932-30.446-19.035-10.565-6.1-21.15-11.713-31.69-16.843 17.32-6.455 34.127-11.407 49.98-14.82zm-147.317.003c15.85 3.414 32.655 8.366 49.97 14.82-10.54 5.13-21.125 10.743-31.69 16.842-10.566 6.1-20.72 12.462-30.434 19.024 3.07-18.223 7.184-35.253 12.154-50.687zm73.653 24.46c15.207 6.708 30.643 14.504 46.03 23.388 15.393 8.888 29.87 18.36 43.285 28.18 1.796 16.527 2.762 33.798 2.762 51.57 0 17.762-.963 35.026-2.758 51.546-13.415 9.818-27.89 19.288-43.278 28.174-15.39 8.885-30.83 16.684-46.04 23.392-15.212-6.708-30.652-14.507-46.042-23.392-15.385-8.883-29.854-18.35-43.264-28.164-1.795-16.523-2.76-33.79-2.76-51.557 0-17.775.965-35.048 2.762-51.577 13.413-9.817 27.885-19.288 43.273-28.172 15.388-8.883 30.824-16.68 46.03-23.386zm1.264 28.116l-53.502 33.017 53.502 33.02 53.502-33.02-53.502-33.018zm-110.76 39.134c-.827 11.698-1.257 23.68-1.257 35.885 0 12.198.43 24.172 1.258 35.864-14.25-11.77-26.943-23.85-37.827-35.873 10.884-12.022 23.577-24.104 37.827-35.876zm219.005.01c14.243 11.77 26.933 23.847 37.813 35.867-10.88 12.02-23.57 24.097-37.813 35.864.826-11.688 1.256-23.66 1.256-35.855 0-12.204-.43-24.18-1.257-35.876zm-173.8 8.394v65.198l56.19 34.677v-65.195l-56.19-34.68zm131.058.034l-56.177 34.67v65.164l56.178-34.67v-65.164zm-226.28 41.84c14.834 16.17 32.502 32.16 52.548 47.36 3.14 24.955 8.156 48.248 14.74 69.175-3.53.51-7.006.947-10.406 1.287-21.304 2.127-39.887.84-54.172-3.49-14.286-4.33-24.04-11.386-29.643-21.09-5.602-9.705-6.835-21.68-3.443-36.217 3.392-14.537 11.568-31.272 24.063-48.658 1.993-2.775 4.107-5.566 6.314-8.367zm319.024.003c2.207 2.8 4.32 5.59 6.313 8.364 12.494 17.385 20.67 34.12 24.062 48.657 3.392 14.537 2.162 26.512-3.44 36.217-5.604 9.704-15.36 16.76-29.646 21.09-14.284 4.33-32.864 5.617-54.168 3.49-3.397-.34-6.868-.775-10.395-1.285 6.585-20.932 11.6-44.23 14.74-69.19 20.04-15.196 37.706-31.182 52.535-47.345zm-73.687 62.483c-3.07 18.226-7.184 35.26-12.154 50.697-15.854-3.413-32.663-8.368-49.984-14.822 10.542-5.132 21.13-10.746 31.7-16.848 10.567-6.1 20.724-12.464 30.44-19.027zm-171.635.01c9.71 6.56 19.862 12.92 30.424 19.017 10.57 6.102 21.16 11.716 31.7 16.848-17.316 6.453-34.12 11.407-49.973 14.82-4.97-15.434-9.08-32.464-12.15-50.685zm86.37.85l.68.42.677-.42h-1.356zm-.56 45.767c23.19 9.76 45.874 17.065 67.294 21.826-1.324 3.32-2.686 6.55-4.094 9.67-8.81 19.513-19.214 34.96-30.108 45.167-10.893 10.206-21.88 15.13-33.085 15.13-11.206 0-22.193-4.924-33.086-15.13-10.893-10.206-21.297-25.654-30.107-45.168-1.408-3.12-2.77-6.352-4.095-9.67 21.416-4.762 44.098-12.066 67.283-21.825z"></path></svg>