<svg stroke="currentColor" fill="currentColor" stroke-width="0" viewBox="0 0 512 512" height="1em" width="1em" xmlns="http://www.w3.org/2000/svg"><path d="M259.018 21.47c-2.272-.005-4.546.015-6.82.06-36.368.74-72.766 7.872-105.448 20.613l.145.37c-38.557 13.652-71.722 33.97-94.426 69.07-27.634 42.722-39.162 105.694-29.997 202.04l.533 5.604 5.2 2.148c32.755 13.53 63.133 8.315 90.624-2.256l7.85-3.02-2.178-8.123c-7.86-29.316-7.11-59.575-.234-82.346 5.06-16.763 13.07-28.685 22.47-34.7.83 45.51-.165 98.438-5.76 150.86l-.412.778c.102.054.21.105.313.16-4.056 37.617-10.484 74.95-20.335 109.07l-2.05 7.095 6.433 3.632c71.865 40.593 186.79 35.656 259.605 2.108l7.31-3.367-2.245-7.73c-22.162-76.22-22.934-183.8-25.002-265.046 9.762 7.228 17.977 19.765 23.14 36.418 7.185 23.17 8.103 53.197.25 82.485l-2.17 8.095 7.815 3.035c29.822 11.578 60.122 11.905 89.725 3.178l6.06-1.786.6-6.29c9.165-96.35-2.403-159.354-29.974-202.09-24.33-37.712-60.728-58.286-102.7-71.882l.14-.357c-4.814-1.922-9.98-3.69-14.513-5.152-26.585-8.516-55.18-12.623-83.95-12.674zm-.07 18.846c21.927.032 43.68 2.533 64.208 7.64-12.15 13.886-30.527 22.83-50.57 26.112l-5.38.883-10.513 28.634-11.644-28.752-5.284-.785c-20.07-2.98-38.043-11.573-49.928-25.733 22.378-5.293 45.837-8.03 69.11-7.998zm82.786 14.067c37.39 10.9 68.45 25.843 91.172 52.037l-10.732 19.818 14.898 27.512 12.543-23.164c18.33 33.59 27.677 82.064 23.764 153.37l-9.552-17.64-14.9 27.512 7.775 14.356c-16.283 2.02-32.397.686-48.693-4.473 6.492-29.867 5.23-59.657-2.424-84.337-8.38-27.028-24.725-48.86-48.373-54.988l-12.053-3.123.37 12.445c1.34 45.107 1.617 101.145 5.76 156.678-18.66 6.12-49.793 10.57-82.124 11.61l6.127-11.315-14.9-27.512-14.897 27.512 6.246 11.535c-34.712-.246-69.467-4.502-90.836-11.444 3.393-36.233 4.697-72.2 4.838-105.547l8.37 15.453 14.898-27.512-14.9-27.512-8.47 15.643c-.095-8.21-.235-16.27-.44-24.012l-.278-10.627-10.502 1.64c-23.77 3.71-39.984 25.23-48.045 51.933-7.37 24.41-8.426 54.278-1.883 84.166-20.88 7.07-41.23 9.415-63.838 1.57-7.876-90.523 3.685-147.407 27.504-184.232 23.22-35.898 58.63-54.383 103.037-67.312 14.094 20.29 36.406 32.362 60.432 37.06l25.92 63.997 14.343-39.07 9.304 17.182 14.9-27.512-8.783-16.217c21.568-5.738 41.358-17.422 54.42-35.48zm-15.21 40.306l-14.9 27.51 14.9 27.51 14.898-27.51zM119.52 110.04l-14.897 27.51 14.898 27.512 14.9-27.51zm197.917 57.34l-14.898 27.513 14.897 27.51 14.9-27.51zM77.97 168.67l-14.898 27.512 14.9 27.51 14.897-27.51zm180.407 4.262l-14.9 27.51 14.9 27.51 14.898-27.51zM432.53 190.6l-14.9 27.51 14.9 27.513 14.898-27.512zm-145.886 48.963l-14.9 27.51 14.9 27.513 14.9-27.512zm-69.156 5.554l-14.9 27.512 14.9 27.51 14.9-27.51zm114.588 25.238l-14.898 27.512 14.898 27.512 14.9-27.513zm20.83 79.383c.627 6.774 1.322 13.517 2.092 20.215-21.064 7.54-59.77 12.824-98.217 13.01-38.48.186-77.818-4.65-100.44-12.733.94-6.74 1.792-13.502 2.568-20.27 26.296 8.143 62.176 11.137 98.186 10.966 35.813-.17 70.754-3.4 95.812-11.188zm4.53 39.366c3.016 21.5 6.925 42.273 12.064 61.57-52.01 21.488-127.94 27.74-188.018 13.318l8.5-15.697-14.898-27.51-14.898 27.51 6.248 11.54c-9.19-2.9-17.885-6.342-25.91-10.36 5.285-19.45 9.54-39.696 12.94-60.28 15.244 5.214 34.004 8.556 54.315 10.453l-7.21 13.313 14.9 27.513 14.897-27.512-6.564-12.12c10.836.607 21.945.864 33.07.81 37.896-.183 74.855-3.797 100.563-12.546z"></path></svg>