<svg stroke="currentColor" fill="currentColor" stroke-width="0" viewBox="0 0 512 512" height="1em" width="1em" xmlns="http://www.w3.org/2000/svg"><path d="M89.045 14.615c6.77 31.628 8.796 63.257.937 94.885H27.695v25.783c14.904-4.855 30.023-7.95 45.23-9.543.047 127.8 1.575 243.702 30.27 365.713 30.09-118.464 27.335-237.957 27.258-365.027 15.218 1.827 30.365 4.857 45.315 8.857V109.5h-62.12c-6.642-31.628-5.722-63.257.768-94.885h-25.37zm334.61.004c-28.694 122.01-30.224 237.912-30.272 365.712-15.206-1.59-30.325-4.687-45.23-9.543v25.782h62.288c7.86 31.628 5.837 63.257-.934 94.885h25.37c-6.49-31.628-7.41-63.257-.77-94.885h62.12V370.79c-14.95 4-30.094 7.027-45.312 8.855.077-127.07 2.833-246.562-27.258-365.026zM255.34 23.36c-25.084 3.247-47.137 32.07-47.137 68.892 0 20.31 7.048 38.302 17.48 50.816l10.202 12.24-15.66 2.928c-13.684 2.56-23.8 9.845-32.27 21.42-8.47 11.576-14.848 27.52-19.31 45.8-8.22 33.672-9.91 74.718-10.137 110.554h43.994l11.88 158.584h96.356l10.508-158.584h41.87c-.013-36.225-.356-77.82-7.803-111.752-4.04-18.408-10.17-34.354-18.762-45.822-8.592-11.47-19.2-18.7-34.482-21.057l-15.98-2.466L296.2 142.3c9.983-12.452 16.68-30.23 16.68-50.048 0-39.264-24.734-68.813-52.34-68.813-2.905 0-4.742-.137-5.196-.08h-.004zM97.006 124.44c4.69-.02 9.383.093 14.074.328v181.015H92.383v-181.28c1.54-.034 3.082-.055 4.623-.062zm315.838 75.847h18.695v181.018c-6.233.31-12.467.404-18.696.26V200.288z"></path></svg>