<svg stroke="currentColor" fill="currentColor" stroke-width="0" viewBox="0 0 512 512" height="1em" width="1em" xmlns="http://www.w3.org/2000/svg"><path d="M292.563 65.656v40h85.156l-81.658 82.656-12.937 13.125c-9.054-6.765-18.936-12.412-29.406-16.75-16.478-6.825-34.23-10.343-52.064-10.343-17.835 0-35.553 3.52-52.03 10.344-16.48 6.824-31.514 16.858-44.126 29.468-12.613 12.612-22.643 27.647-29.47 44.125-6.825 16.48-10.373 34.228-10.374 52.064 0 17.836 3.52 35.553 10.344 52.03 6.825 16.48 16.888 31.514 29.5 44.126 12.612 12.612 27.647 22.643 44.125 29.47 16.478 6.824 34.195 10.374 52.03 10.374 17.837 0 35.586-3.55 52.064-10.375 16.477-6.827 31.512-16.857 44.124-29.47 12.61-12.612 22.644-27.647 29.47-44.125 6.823-16.478 10.343-34.196 10.342-52.03 0-17.836-3.518-35.587-10.344-52.064-4.183-10.098-9.583-19.646-16.03-28.436l13.218-13.406 81.844-82.875v85.875h40V65.656H292.562zm-90.907 148.688c12.533 0 25.17 2.516 36.75 7.312 11.58 4.797 22.263 11.95 31.125 20.813 8.863 8.86 16.017 19.545 20.814 31.124 4.796 11.58 7.312 24.217 7.312 36.75 0 12.533-2.517 25.14-7.312 36.72-4.796 11.577-11.92 22.292-20.78 31.155-8.864 8.862-19.578 16.014-31.158 20.81-11.58 4.798-24.216 7.313-36.75 7.314-12.533 0-25.14-2.516-36.72-7.313-11.578-4.795-22.292-11.95-31.155-20.81-8.86-8.864-16.015-19.578-20.81-31.158-4.798-11.58-7.314-24.185-7.314-36.718 0-12.534 2.516-25.17 7.313-36.75l.093-.22c4.796-11.494 11.91-22.13 20.718-30.937 8.808-8.805 19.444-15.892 30.94-20.687l.218-.094c11.58-4.795 24.185-7.313 36.718-7.312z"></path></svg>