<svg stroke="currentColor" fill="currentColor" stroke-width="0" viewBox="0 0 512 512" height="1em" width="1em" xmlns="http://www.w3.org/2000/svg"><path d="M287.586 15.297l3.504 110.963 31.537-110.963h-35.04zm-95.78.238l-1.75 236.047-170.533-43.33L130.486 377.69l-88.77-5.174 114.432 112.357-44.466-75.867L186.896 417l-51.748-109.94 110.114 79.956-12.635-185.23.002.003 75.212 170.57 75.816-89.95-6.62 154.582 60.173-39.978-20.388 79.486 75.756-142.787-75.924 1.94L487.32 155.87l-131.402 73.08-12.264-139.69-65.41 140.336-86.435-214.06h-.003zM45.503 44.095L39.355 75.94 154.285 218h.002l-77.6-166.836-31.185-7.07zm422.27 24.776l-31.184 7.07-43.738 107.37 81.068-82.59-6.147-31.85zM279.208 403.61c-40.176 0-72.708 32.537-72.708 72.71 0 5.725.636 10.706 1.887 16.05 7.25-32.545 36.097-56.655 70.82-56.655 34.82 0 63.673 23.97 70.82 56.656 1.218-5.277 1.888-10.404 1.888-16.05 0-40.175-32.536-72.71-72.71-72.71z"></path></svg>