<svg stroke="currentColor" fill="currentColor" stroke-width="0" viewBox="0 0 512 512" height="1em" width="1em" xmlns="http://www.w3.org/2000/svg"><path d="M229.28 21.97v39.75c-30.905 1.29-61.546 9.284-89.53 23.905l21.406 37.063C184.2 110.92 210.32 104.28 238 104.28c93.408 0 168.938 75.53 168.938 168.94 0 26.766-6.234 52.056-17.282 74.53l-5.97-2.563-26.467-12.437c-21.125 44.53-66.495 75.313-119.064 75.313-8.49 0-16.8-.778-24.844-2.313l-7.375 33.375C127.89 424.178 69.03 355.665 69.03 273.22c0-26.843 6.267-52.2 17.376-74.72l-37.312-21.53c-40.207 78.3-28.27 175.748 33.937 242.093l-31.124 31.125 13.22 13.218L116.53 412c24.013 21.04 53.516 35.934 86.064 42.28l-6.938 31.44c1.515.333 3.016.636 4.53.936.01.002.023-.002.033 0 6.05 1.198 12.11 2.15 18.155 2.813.01 0 .02-.002.03 0 3.02.33 6.053.58 9.064.78 4.53.3 9.056.458 13.56.47 25.954.06 51.352-4.64 75.095-13.564 2.363-.888 4.734-1.81 7.063-2.78 9.477-3.953 18.656-8.6 27.468-13.876 2.518-1.508 5.014-3.076 7.47-4.688 1.227-.805 2.444-1.605 3.655-2.437 2.424-1.663 4.802-3.39 7.158-5.156 8.243-6.18 16.06-12.97 23.375-20.345 2.09-2.107 4.15-4.268 6.156-6.47 1.007-1.105 1.98-2.213 2.967-3.342.977-1.118 1.952-2.235 2.907-3.375.005-.007-.005-.026 0-.032.954-1.14 1.912-2.275 2.844-3.437.005-.008-.006-.026 0-.033.936-1.168 1.867-2.34 2.78-3.53 2.748-3.582 5.375-7.252 7.907-11.032.842-1.257 1.682-2.502 2.5-3.78 1.912-2.992 3.734-6.052 5.5-9.158l36.688 15.782 7.375-17.158-66.032-28.437c11.786-24.18 18.458-51.308 18.563-79.97h28.06c0-16.67-1.963-33.12-5.75-49.06L485.657 220l-2.187-18.563-43.876 5.188c-11.17-33.444-30.614-63.935-57-88.406-24.59-22.81-53.15-38.68-83.25-47.72L309.5 32.625l-18.03-4.844-10.22 38.126c-10.994-2.27-22.124-3.643-33.28-4.156V21.97h-18.69zM123.595 95c-10.347 6.634-20.245 14.223-29.53 22.813l30.28 30.312h.03c6.448-5.856 13.358-11.22 20.657-16.03L123.595 95zm-42.688 36.094c-8.512 9.367-15.998 19.302-22.53 29.656l37.187 21.47c4.692-7.334 9.95-14.283 15.687-20.782l-30.344-30.344zm83.688 61.062c-21.845 19.907-35.906 48.677-35.906 80.625 0 60.152 49.005 109.158 109.156 109.158 60.15 0 109.156-49.006 109.156-109.157h-18.688c0 50.038-40.43 90.47-90.468 90.47-50.037 0-90.47-40.432-90.47-90.47 0-26.47 11.628-50.238 29.814-66.81l-12.594-13.814zM239.25 215.5c-33.542 0-60.938 27.395-60.938 60.938 0 33.53 27.392 60.906 60.938 60.906 33.542 0 60.906-27.364 60.906-60.906 0-33.53-27.36-60.938-60.906-60.938zm0 18.688c23.443 0 42.22 18.82 42.22 42.25 0 5.505-1.05 10.754-2.94 15.562-3.377-10.958-13.59-18.906-25.655-18.906-14.82 0-26.844 12.023-26.844 26.844 0 7.082 2.736 13.516 7.22 18.312-20.575-2.883-36.25-20.418-36.25-41.813 0-23.446 18.803-42.25 42.25-42.25z"></path></svg>