<svg stroke="currentColor" fill="currentColor" stroke-width="0" viewBox="0 0 512 512" height="1em" width="1em" xmlns="http://www.w3.org/2000/svg"><path d="M235.966 40.457c-7.926-.141-16.31 2.089-26.047 7.838 45.628 37.319 84.604 74.281 99.064 135.908 17.996-1.883 35.981-3.33 51.559-3.37-18.957-53.372-50.33-98.905-91.332-127.33-12.263-8.5-22.826-12.86-33.244-13.046zm-42.809 17.334c-30.096 3.739-56.135 11.538-77.076 24.576-30.268 18.845-50.78 48.345-59.037 95.776-6.361 36.54-1.923 80.413 1.447 119.486 10.813 8.693 23.377 16.695 34.438 23.164 17.888 10.39 39.477 20.978 56.675 26.336 4.947-17.031 10.328-31.971 16.252-47.483 26.32-1.116 51.671.46 75.756 4.854 8.359 18.34 14.133 38.85 16.951 56.15 27.107-.1 51.992-1.257 76.434-4.443-7.743-3.891-15.521-9.467-21.068-14.938-14.387.241-25.648-.097-38.795-.89-16.618-46.674-23.382-98.451-26.973-141.627 14.429-5.107 30.143-9.316 43.092-11.764-13.905-58.052-50.912-90.982-98.096-129.197zM316.12 70.578c28.121 30.098 49.649 68.246 63.733 110.42a693.55 693.55 0 0 1 31.884 1.549c-9.414-46.551-61.234-104.65-95.617-111.969zm32.977 128.6c-28.668.998-56.841 4.673-81.776 12.338 3.158 37.792 7.103 74.814 20.508 111.437 4.308.187 8.594.294 12.863.328-10.146-20.957-11.255-50.056-9.705-68.273 5.276-33.539 29.025-50.64 58.11-55.83zm-22.022 26.59c-24.67 19.41-23.483 57.1-12.787 84.136 15.54 33.049 50.055 39.288 79.805 42.656-14.238-15.658-22.975-38.403-22.975-63.107 0-30.457 13.273-57.94 33.777-72.82-24.306-2.555-57.116-3.381-77.82 9.135zm112.885-2.801c-26.915 0-50.842 28.652-50.842 66.486s23.927 66.488 50.842 66.488 50.844-28.654 50.844-66.488-23.93-66.486-50.844-66.486zM36.683 250.715c-16.19 21.251-24.367 57.995-.75 77.25 50.241 40.966 98.127 78.223 168.523 113.814 76.817 38.837 158.348 39.888 224.867 1.9 61.012-34.842 65.701-62.89 54.338-88.826-30.917 27.084-73.153 19.666-110.213 13.307-38.023 7.399-76.867 10.731-112.54 10.537.52 4.997.891 9.383 1.35 14.537-40.267 8.662-91.068 5.532-119.308-11.523.57-5.76 1.466-12.043 2.434-17.012-20.019-5.952-42.49-17.302-61.496-28.342-12.889-8.121-25.865-15.173-36.78-24.726-3.08-2.621-5.514-5.898-6.142-8.602-1.434-17.831-3.293-36.226-4.283-52.314zM178.558 317.1c-6.464 17.459-13.307 38.856-16.059 55.319 22.324 11.178 55.301 11.125 80.238 6.613-2.124-19.546-5.848-39.728-13.699-58.43-18.443-3.028-33.843-4.157-50.48-3.502z"></path></svg>