<svg stroke="currentColor" fill="currentColor" stroke-width="0" viewBox="0 0 512 512" height="1em" width="1em" xmlns="http://www.w3.org/2000/svg"><path d="M256 21c-10.615 0-20.6 3.914-29.547 14.039.512-.027 1.029-.04 1.547-.04 12.701 0 23.655 8.064 28 19.307C260.345 43.063 271.299 35 284 35c.796 0 1.582.041 2.363.103C277.086 25.006 266.584 21 256 21zm-28 32c-6.734 0-12 5.266-12 12s5.266 12 12 12 12-5.266 12-12-5.266-12-12-12zm56 0c-6.734 0-12 5.266-12 12s5.266 12 12 12 12-5.266 12-12-5.266-12-12-12zm-28 22.693C251.655 86.936 240.701 95 228 95c-9.023 0-17.161-4.073-22.68-10.46-1.763 9.055-3.075 19.175-3.8 30.46h109.25c-.393-11.71-1.544-22.155-3.268-31.454C301.988 90.502 293.482 95 284 95c-12.701 0-23.655-8.064-28-19.307zM154.844 133l2.953 15.748c-13.556 2.706-24.952 8.46-34.026 16.525-12.882 11.451-21.042 27.024-26.36 44.043-9.885 31.629-10.383 68.875-10.405 99.676-4.34 1.98-7.964 5.204-10.918 8.611-4.8 5.537-8.448 12.145-11.455 18.592-6.014 12.894-9.33 25.49-9.33 25.49l17.394 4.629s3.07-11.404 8.248-22.51c2.59-5.552 5.74-10.945 8.742-14.408C92.69 325.933 94.937 325 96 325c1.063 0 3.31.933 6.313 4.396 3.002 3.463 6.152 8.856 8.742 14.408 5.179 11.106 8.248 22.51 8.248 22.51l17.394-4.629s-3.316-12.596-9.33-25.49c-3.007-6.447-6.655-13.055-11.455-18.592-2.949-3.402-6.565-6.62-10.896-8.602.071-30.618.876-66.485 9.574-94.318 4.681-14.98 11.521-27.408 21.139-35.957 6.73-5.983 14.86-10.308 25.369-12.369L199.468 371H215v-23c0-22 20.5-33 41-33s41 11 41 33v23h15.531l38.371-204.643c10.509 2.061 18.638 6.386 25.37 12.37 9.617 8.548 16.457 20.975 21.138 35.956 8.698 27.833 9.503 63.7 9.574 94.318-4.33 1.981-7.947 5.2-10.896 8.602-4.8 5.537-8.448 12.145-11.455 18.592-6.014 12.894-9.33 25.49-9.33 25.49l17.394 4.629s3.07-11.404 8.248-22.51c2.59-5.552 5.74-10.945 8.743-14.408C412.69 325.933 414.937 325 416 325c1.063 0 3.31.933 6.313 4.396 3.002 3.463 6.152 8.856 8.742 14.408 5.179 11.106 8.248 22.51 8.248 22.51l17.394-4.629s-3.316-12.596-9.33-25.49c-3.007-6.447-6.655-13.055-11.455-18.592-2.954-3.407-6.577-6.631-10.918-8.611-.022-30.801-.52-68.047-10.404-99.676-5.319-17.02-13.479-32.592-26.361-44.043-9.074-8.065-20.47-13.819-34.026-16.525L357.156 133zm24.761 34h152.79l-39.454 62H219.06zM224 243h64v18h-64zm16 32h32v18h-32zm16 58c-11.5 0-23 4.999-23 15v7h46v-7c0-10.001-11.5-15-23-15zm-23 40v30h46v-30zm-33 21v36h15v-36zm97 0v36h15v-36zm-64 27v30h46v-30zm0 48v7c0 20 46 20 46 0v-7z"></path></svg>