<svg stroke="currentColor" fill="currentColor" stroke-width="0" viewBox="0 0 512 512" height="1em" width="1em" xmlns="http://www.w3.org/2000/svg"><path d="M147.078 67.273a15.34 15.34 0 0 0-4.986.867c-5.107 1.795-9.07 6.194-11.252 13.114-2.183 6.919-2.178 16.064 1.043 25.23s8.939 16.303 14.97 20.336c6.032 4.033 11.874 4.986 16.981 3.191 5.107-1.794 9.069-6.191 11.252-13.111 2.183-6.92 2.178-16.064-1.043-25.23-3.221-9.167-8.939-16.305-14.97-20.338-4.148-2.773-8.204-4.09-11.995-4.059zm217.844 0c-3.79-.031-7.85 1.286-11.996 4.059-6.032 4.033-11.75 11.17-14.97 20.336-3.222 9.166-3.227 18.313-1.044 25.232 2.183 6.92 6.145 11.315 11.252 13.11 5.107 1.794 10.953.845 16.984-3.188 6.032-4.033 11.748-11.172 14.97-20.338 3.22-9.166 3.227-18.313 1.044-25.232-2.183-6.92-6.147-11.315-11.254-13.11a15.349 15.349 0 0 0-4.986-.869zM104.129 95.455c-1.63-.007-3.17.3-4.606.894-3.827 1.585-6.76 5.14-8.238 10.885-1.477 5.744-1.098 13.35 1.965 20.854 3.063 7.503 8.106 13.178 13.168 16.214 5.062 3.037 9.631 3.482 13.459 1.897 3.828-1.585 6.761-5.139 8.238-10.883.063-.243.118-.493.174-.742-5.725-5.967-10.355-13.491-13.389-22.123a63.746 63.746 0 0 1-3.33-14.98c-2.638-1.357-5.132-2.007-7.441-2.016zm303.74 0c-2.31.01-4.802.659-7.44 2.015a63.748 63.748 0 0 1-3.331 14.98c-3.034 8.633-7.662 16.157-13.387 22.124.056.25.111.5.174.742 1.477 5.744 4.41 9.3 8.238 10.885 3.828 1.585 8.395 1.136 13.457-1.9 5.062-3.037 10.107-8.71 13.17-16.213 3.063-7.504 3.44-15.108 1.963-20.852-1.477-5.744-4.409-9.3-8.236-10.885a11.822 11.822 0 0 0-4.608-.896zM67.332 124.609c-2.697-.015-4.96.735-6.793 2.092-2.932 2.17-4.721 5.86-4.754 11.285-.032 5.424 2 12.162 6.424 18.217 4.425 6.054 10.209 10.011 15.363 11.595 5.155 1.585 9.187.966 12.12-1.205 2.439-1.806 4.068-4.68 4.572-8.713-7.512-5.353-13.706-13.257-17.645-22.906a57.331 57.331 0 0 1-2.853-9.08c-.37-.135-.744-.286-1.108-.398-1.933-.594-3.707-.878-5.326-.887zm377.336 0c-1.618.009-3.393.29-5.326.885-.364.112-.738.263-1.108.398a57.327 57.327 0 0 1-2.853 9.082c-3.94 9.65-10.134 17.555-17.647 22.908.505 4.03 2.136 6.904 4.575 8.71 2.932 2.17 6.964 2.792 12.119 1.208 5.154-1.584 10.938-5.545 15.363-11.6 4.425-6.054 6.457-12.79 6.424-18.214-.033-5.424-1.824-9.112-4.756-11.283-1.833-1.357-4.094-2.108-6.791-2.094zm-259.785 11.578c-3.917 4.83-8.976 8.662-15.08 10.807-.267.093-.535.171-.803.258v18.478h10.729l23.367 23.367c-.25-5.72-.771-11.394-1.684-17.078-2.984-18.588-8.164-28.669-16.53-35.832zm142.236 0c-8.366 7.163-13.547 17.243-16.531 35.832-6.132 38.203 5.083 75.873 1.486 130.928-1.151 17.628-8.668 36.315-16.627 54.756-7.959 18.44-16.513 36.61-20.5 50.914-2.481 8.903-.61 15.277 4.098 21.127 4.709 5.85 12.863 10.731 22.494 13.18 19.262 4.896 42.665.114 54.623-17.917 37.654-56.772 85.318-134.982 99.475-177.388.629-1.884.838-4.213.646-6.883-.484-.357-.961-.73-1.424-1.133-6.293-5.487-8.703-13.834-8.142-21.65.056-.784.148-1.568.258-2.35-.254-.427-.497-.85-.762-1.281-.04-.064-.082-.128-.121-.192-2.992-.672-5.893-1.88-8.557-3.728-7.382-5.122-10.995-13.728-11.355-22.262-.545-.605-1.111-1.207-1.664-1.81-4.547-.667-8.947-2.332-12.828-5.205-5.546-4.106-9.08-9.953-10.81-16.348-5.176.7-10.499.183-15.558-1.912-7.93-3.284-13.627-9.772-16.89-17.397-8.24 3.636-17.483 4.598-26.233 1.524-6.103-2.145-11.16-5.977-15.078-10.805zm-183.553 9.283c-3.263 7.623-8.957 14.11-16.886 17.393-5.059 2.095-10.38 2.612-15.557 1.912-1.73 6.396-5.264 12.244-10.81 16.35-3.882 2.873-8.282 4.539-12.829 5.205-.553.603-1.12 1.205-1.664 1.81-.36 8.535-3.972 17.14-11.355 22.262-2.664 1.848-5.565 3.058-8.557 3.73-.039.063-.082.127-.12.19-.266.43-.509.854-.763 1.281.11.782.202 1.566.258 2.35.561 7.816-1.849 16.163-8.142 21.65-.463.403-.94.776-1.424 1.133-.192 2.67.017 5 .646 6.883 7.798 23.357 25.78 57.586 46.637 93.103v-137.72l37.272-37.272H151v-17.8a40.456 40.456 0 0 1-7.434-2.46zm-98.673 17.12c-.688.216-1.311.52-1.868.906-1.988 1.38-3.38 3.864-3.537 8.049-.157 4.184 1.248 9.633 4.594 14.625 3.346 4.991 7.816 8.31 11.703 9.689 3.887 1.379 6.668.97 8.656-.41 1.989-1.38 3.378-3.862 3.536-8.047.047-1.257-.066-2.637-.31-4.076-7.547-3.33-14.467-8.944-19.925-16.412a55.377 55.377 0 0 1-2.85-4.325zm422.214 0a55.388 55.388 0 0 1-2.85 4.322c-5.457 7.469-12.378 13.085-19.925 16.416-.244 1.437-.356 2.816-.309 4.072.158 4.185 1.546 6.671 3.534 8.05 1.988 1.38 4.771 1.788 8.658.409 3.887-1.379 8.357-4.698 11.703-9.69 3.346-4.991 4.751-10.438 4.594-14.622-.158-4.185-1.547-6.672-3.535-8.051a6.854 6.854 0 0 0-1.87-.907zM147.73 183.73L121 210.457V373.73h78V210.46l-26.728-26.729zM29.31 200.15a8.083 8.083 0 0 0-.7.006c-1.491.08-2.567.572-3.369 1.272-1.283 1.118-2.161 3.024-1.916 6.445.246 3.42 1.896 7.876 5.158 11.781 3.263 3.905 7.312 6.272 10.58 7.057 3.27.785 5.25.197 6.534-.922 1.283-1.119 2.165-3.027 1.92-6.447-.184-2.553-1.154-5.68-2.989-8.725-4.42-2.404-8.494-5.745-12.002-9.89-.25-.077-.506-.163-.75-.221a12.23 12.23 0 0 0-2.466-.356zm453.377 0c-.729.022-1.546.135-2.465.355-.244.059-.499.145-.75.221-3.508 4.146-7.582 7.487-12.002 9.89-1.835 3.047-2.803 6.173-2.987 8.725-.245 3.421.635 5.329 1.918 6.448 1.284 1.118 3.265 1.707 6.534.922 3.268-.786 7.315-3.152 10.578-7.057 3.263-3.905 4.914-8.359 5.16-11.78.245-3.42-.635-5.326-1.918-6.445-.802-.699-1.878-1.192-3.37-1.271a8.438 8.438 0 0 0-.698-.008zM135 238.73h18v96h-18zm32 32h18v48h-18zm50 87.996v33.004h-82.766a2041.756 2041.756 0 0 0 21.604 33.277c11.958 18.031 35.361 22.813 54.623 17.916 9.63-2.448 17.786-7.33 22.494-13.18 4.709-5.85 6.58-12.223 4.098-21.126-3.913-14.038-12.222-31.805-20.053-49.89z"></path></svg>