<svg stroke="currentColor" fill="currentColor" stroke-width="0" viewBox="0 0 512 512" height="1em" width="1em" xmlns="http://www.w3.org/2000/svg"><path d="M234.615 16.943c-38.106.26-75.86 12.47-109.418 37.246 108.164-5.378 163.065 47.928 199.688 94.078l2.226 2.804-.538 3.543c-2.153 14.16.21 28.97 7.914 42.31 18.043 31.252 57.83 41.913 89.084 23.87 31.254-18.043 41.913-57.83 23.87-89.08-9.636-16.69-25.98-27.246-43.682-30.916l-2.74-.57-1.825-2.12c-46.1-53.607-105.733-81.565-164.578-81.167zm-92.322 53.08c-10.028-.016-20.632.522-31.844 1.663-11.678 8.884-22.494 18.84-32.298 29.728 6.523-1.695 13.252-2.6 20.03-2.654.904-.008 1.81 0 2.714.023 13.168.33 26.43 3.852 38.606 10.88 8.91 5.144 16.464 11.743 22.578 19.31 23.693-18.095 52.583-29.727 84.045-32.26-26.31-15.876-59.523-26.618-103.832-26.69zm-44.057 45.11c-22.362.15-44.022 11.83-56.04 32.644-9.636 16.69-10.608 36.12-4.936 53.287l.88 2.66-.927 2.64C-1.302 316.3 38.897 423.187 136.18 465.603 77.436 374.62 96.15 300.422 117.81 245.63l1.315-3.33 3.336-1.304c13.34-5.216 24.987-14.668 32.688-28.008 18.044-31.25 7.385-71.037-23.87-89.08-9.765-5.638-20.366-8.474-30.876-8.754-.722-.02-1.444-.026-2.166-.02zm293.213 5.533c24.48 0 44.124 19.645 44.124 44.123 0 24.477-19.645 44.122-44.125 44.122s-44.126-19.645-44.126-44.123c0-24.48 19.646-44.124 44.125-44.124zM98.104 137.064c24.48 0 44.125 19.645 44.125 44.124 0 24.478-19.645 44.123-44.125 44.123S53.98 205.667 53.98 181.188c0-24.478 19.646-44.123 44.125-44.123zM471.24 178.86c-4.15 22.802-17.875 43.723-39.447 56.177-4.307 2.487-8.75 4.534-13.277 6.156.463 4.96.71 9.982.71 15.063 0 30.15-8.34 58.35-22.835 82.43 32.152-17.625 62.903-47.413 87.657-100.23-1.67-20.753-6.06-40.734-12.807-59.597zm-212.094 28.326c-27.204 0-49.056 21.852-49.056 49.056 0 27.205 21.852 49.06 49.056 49.06 27.205 0 49.06-21.855 49.06-49.06 0-27.204-21.855-49.056-49.06-49.056zm234.97 47.796c-49.426 96.358-123.04 117.25-181.32 125.89l-3.544.526-2.797-2.236c-11.187-8.944-25.197-14.305-40.6-14.305-36.09 0-65.216 29.125-65.216 65.21 0 36.088 29.125 65.212 65.214 65.212 19.27 0 36.586-8.877 48.617-22.372l1.864-2.09 2.75-.517c114.467-21.613 186.935-109.867 175.03-215.318zM113.622 323.02c-4.68 42.24 4.264 91.172 47.035 149.293 14.683 6.217 30.14 10.958 46.18 14.072-14.007-14.67-22.645-34.508-22.645-56.317 0-10.406 1.985-20.356 5.56-29.52-33.534-16.157-60.566-43.662-76.13-77.528zm152.107 63.652c24.48 0 44.125 19.645 44.125 44.123 0 24.478-19.645 44.123-44.125 44.123s-44.125-19.645-44.125-44.123c0-24.478 19.646-44.123 44.125-44.123z"></path></svg>