<svg stroke="currentColor" fill="currentColor" stroke-width="0" viewBox="0 0 512 512" height="1em" width="1em" xmlns="http://www.w3.org/2000/svg"><path d="M421.938 24.406c-5.65.336-10.627 1.725-11.875 8.907l15.593 18.562-237.03 193.28c-.01 0-.022.004-.032 0-11.304-.278-16.79 7.678-18.563 11.5-9.31 20.08-15.027 41.64-26.905 61.97-36.13 33.16-81.964 64.002-110.75 98.313 17.28 23.824 40.84 44.52 61.25 66.78 8.26-.503 12.864-9.733 18.906-15.562 26.738-50.49 46.192-96.418 77.532-143.22 11.856-7.617 26.222-15.02 32.782-23.092a9.5 9.5 0 0 0 2.28.594c5.565.765 9.94 2.26 13.126 4.468 2.783 1.93 4.912 4.473 6.594 8.72-4.9 28.004 3.67 42.852 7.25 56.593a9.5 9.5 0 0 0 11.375 6.874l44.5-10.406a9.5 9.5 0 0 0 6-14.094c-7.66-12.86-11.664-31-15.095-50.625 17.508-5.41 28.902-18.48 39.125-28.908a4 4 0 0 0 .938-4l-8-25.156 16.187-13.47a9.5 9.5 0 0 0 1.97-2.28c33.177 23.91 67.84 45.264 107.717 57.688l9.282-24.5c-37.892-12.75-83.78-38.932-111.844-65.72l5.688-5.936 98.187-102.844 5.844-6.125-5.408-6.5-.625-.782L482.781 50l-8.53-8.53-18.53 15.968-33.783-33.032zM325.563 162.47l6.03 8.624-27 23a9.5 9.5 0 0 0-.03.03l-76.282 64.782-7.78-8.594 105.063-87.843zm-1.25 88.936l6.28 19.78c-9.665 9.944-19.265 20.217-33.093 24.814-1.076-6.458-2.143-13.02-3.28-19.563l30.092-25.03z"></path></svg>