<svg stroke="currentColor" fill="currentColor" stroke-width="0" viewBox="0 0 512 512" height="1em" width="1em" xmlns="http://www.w3.org/2000/svg"><path d="M32 28.5v34h177.162c13.44-11.255 29.48-18 46.838-18H80v-16zm224 16c17.358 0 33.399 6.745 46.838 18H432v16h48v-34zm0 18c-18.687 0-36.025 10.529-49.244 29.035C193.537 110.041 185 136.31 185 165.5c0 29.19 8.537 55.459 21.756 73.965S237.313 268.5 256 268.5s36.025-10.529 49.244-29.035C318.463 220.959 327 194.69 327 165.5c0-29.19-8.537-55.459-21.756-73.965S274.687 62.5 256 62.5zm-224 30v34h139.68a145.593 145.593 0 0 1 5.709-18H80v-16zm302.611 16a145.593 145.593 0 0 1 5.71 18H432v16h48v-34zM32 156.5v34h136.885a164.02 164.02 0 0 1-1.735-18H80v-16zm312.85 16a164.02 164.02 0 0 1-1.735 18H432v16h48v-34zM32 220.5v34h149.613c3.233-1.86 6.6-3.575 10.078-5.168a120.698 120.698 0 0 1-7.877-12.832H80v-16zm296.186 16a120.698 120.698 0 0 1-7.877 12.832 122.386 122.386 0 0 1 10.078 5.168H432v16h48v-34zM203.37 263.223c-28.513 11.107-46.58 32.34-59.133 60.898-7.258 16.512-12.351 35.582-15.879 56.393 8.432.088 16.157 3.27 22.641 8.398V348.5h210v40.412c6.484-5.128 14.209-8.31 22.64-8.398-3.527-20.811-8.62-39.881-15.878-56.393-12.553-28.558-30.62-49.79-59.133-60.898C294.119 277.619 275.925 286.5 256 286.5c-19.925 0-38.12-8.881-52.629-23.277zM32 284.5v34h95.074c2.72-6.244 6.026-12.839 9.033-18H80v-16zm343.893 16c3.523 6.334 6.58 12.16 9.033 18H432v16h48v-34zM32 348.5v34h77.643a354.614 354.614 0 0 1 3.298-18H80v-16zm144 16v18h48v-18zm80 0v18h90.146v-18zm143.059 0a354.614 354.614 0 0 1 3.298 18H432v16h48v-34zM176 396.5v18h80v-18zm-48 2c-6.462 0-12.797 3.682-18.08 11.24-5.283 7.558-8.92 18.739-8.92 31.26s3.637 23.702 8.92 31.26c5.283 7.558 11.618 11.24 18.08 11.24 6.462 0 12.797-3.682 18.08-11.24 5.283-7.558 8.92-18.739 8.92-31.26s-3.637-23.702-8.92-31.26c-5.283-7.558-11.618-11.24-18.08-11.24zm256 0c-6.462 0-12.797 3.682-18.08 11.24-5.283 7.558-8.92 18.739-8.92 31.26s3.637 23.702 8.92 31.26c5.283 7.558 11.618 11.24 18.08 11.24 6.462 0 12.797-3.682 18.08-11.24 5.283-7.558 8.92-18.739 8.92-31.26s-3.637-23.702-8.92-31.26c-5.283-7.558-11.618-11.24-18.08-11.24zm-352 14v34h51.184C80 432.622 80 417.647 80 412.5zm192 16v18h112v-18zm204.053 0c.617 4.043.947 8.22.947 12.5.376 12.5.578 15.482 1 21.5h50v-34zm-257.93 34c-2.067 7.416-5.193 14.188-9.242 20h190.238c-4.05-5.812-7.175-12.584-9.242-20z"></path></svg>