<svg stroke="currentColor" fill="currentColor" stroke-width="0" viewBox="0 0 512 512" height="1em" width="1em" xmlns="http://www.w3.org/2000/svg"><path d="M105 19.77C67.06 63.14 42.58 110 27.98 159.7c31.27 16.9 65.8 24.3 101.82 26.5-4.2-21.6-5.5-43.6-2.8-66.3l.9-7.6 7.7-.3c3.2-.1 6.3-.2 9.5-.2C129.5 80.82 117 50.15 105 19.77zM339.1 53.7c-.1 30.53-2.8 60.3-7 89.7 12.5 4 25 8.2 37.5 12.7l15.1 5.4-12.4 10.1c-18.8 15.2-36.6 30.8-53.6 46.8-1.3 6.3-2.6 12.6-4 18.9 15.4-3.8 30.6-8 45.3-12.7l3.2-34 18 1.6-2.4 25.9c35.7-13.4 68.4-31.2 95.8-57.7-34.4-20.9-64.9-45-94-70l-3 9.8-17.2-5.25 5.3-17.49c-8.9-7.89-17.8-15.83-26.6-23.76zM107.4 68.25l17.5 19.61-13.4 11.98L94 80.23zM92.06 117.5l7.76 16.2-36.59 17.5-7.76-16.2zm66.74 12.3c-4.8 0-9.7.1-14.6.2-3.2 43.8 9.9 86.3 29.2 128.7 4.6-.4 9.3-.6 14-.6 10.5-.1 21.4.6 32.8 2.1l11.5 1.5-4.4 10.8c-3.7 9-7.5 17.9-11.3 26.7 40.3-45.1 82.8-89.6 132.6-131.3-63.2-21.6-125.2-36.1-184.9-38-1.6-.1-3.2-.1-4.9-.1zm241.8 11.1l27.6 8-5 17.2-27.6-8zM188 151.5l15.9 21.2-14.4 10.8-15.9-21.2zm80.3 21.8l8.4 16-36.6 19.1-8.4-16zM184.1 213l36.1 17.5-7.8 16.2-36.1-17.5zM484 233.2c-72.5 11.8-130.1 36.4-180 68.4 12.1 14.6 23.6 29.4 35.4 43.7 20.5.2 41.4-.7 62.8-2.3l20.2-1.5-11.3 14.6 22 10-7.4 16.4-25.9-11.8c-5.4 7-10.9 14.1-16.5 21.2 18.1 15.8 38.5 29 63.1 37.6 21-64 28.6-129.8 37.6-196.3zm-68.4 38.5l28.7 12.8-7.4 16.4-28.7-12.8zm-228.2 4.4c-65.1.4-113.12 30.8-155.78 59.6 22.18 48.4 60.5 87.1 115.48 116.6 1.4-13.6 3.8-26.7 6.8-39.5l-22-7.1 5.4-17.2 21.3 6.8c12.2-41.4 30.9-79.9 47.3-118.4-6.3-.5-12.5-.8-18.5-.8zm171 5.1l18 1.8-3.7 36-18-1.8zm-217.2 14.3l16.6 7-12.2 29.2-16.6-7zm-58.14 43.1l20.64 19.7-12.38 13-20.68-19.7zm129.74 5.2c2.1 50.5 13.1 99.9 33 148.4 62.9-36.1 100.7-82.2 137.7-130-35.1 1.9-69.3 1.5-102.1-2.7l-2 19.4-18-1.8 2.1-20.3c-17.4-3-34.3-7.3-50.7-13zM321.1 398l4.6 17.4-41.9 11.1-4.6-17.4zm-61.8 27.2l11.2 36-17.2 5.4-11.2-36z"></path></svg>