<svg stroke="currentColor" fill="currentColor" stroke-width="0" viewBox="0 0 512 512" height="1em" width="1em" xmlns="http://www.w3.org/2000/svg"><path d="M348.92 15.633c-1.387-.018-2.776.02-4.168.113l-.002.006c-13.368.9-26.782 7.143-39.715 19.27-20.056-5.876-37.08-10.614-57.232-.58-37.81-11.887-75.686-13.068-104.54 19.27-42.477-10.09-87.2 9.883-76.51 58.985-47.074 14.955-56.408 78.2-.58 73.586 7.938 46.78 41.118 55.937 83.514 40.883 19.41 24.008 46.462 39.182 77.282 46.443.28 5.105.085 10.33-.566 15.68-5.807 47.77-50.79 105.31-121.367 154.696L81.12 460.723l29.16-1.354c29.003-1.347 48.05-2.39 58.935-1.55-5.818 6.555-11.317 12.37-16.28 17.297L134.04 493.88l26.26-4.417c23.887-4.017 44.442-7.94 59.927-8.363 15.484-.423 24.434 2.174 29.916 9.552l7.33 9.864 6.597-10.368c6.53-10.26 13.576-12.87 27.227-12.257 13.65.613 32.84 6.013 57.043 13.3l29.69 8.94-21.036-22.782c-8.04-8.707-15.965-18.118-23.357-27.786 2.535.115 5.228.297 8.015.596 12.14 1.3 26.887 3.978 40.67 8.067l26.127 7.75-17.145-21.184c-32.25-39.843-64.6-69.885-69.768-104.74-2.584-17.43.916-36.76 15.28-61.374 1.952-3.342 4.124-6.783 6.49-10.31 7.932-2.277 15.826-4.915 23.634-7.913 27.094 24.058 78.02 4.07 50.812-27.45 58.72-14.457 105.89-59.625 26.865-95.196 46.613-36.08 17.39-90.36-40.297-88.188-14.636-21.026-34.603-33.72-55.4-33.987zm11.277 65.488c-42.59 32.678-48.978 37.184-53.506 65.825.317 3.472.597 7.013 1.103 10.11 3.153 19.296 10.22 32.648 21.43 39.89 11.21 7.243 24.752 7.554 38.814 5.344 3.876-.61 7.86-1.446 11.91-2.397-26.82 26.337-45.555 49.373-57.742 70.253-15.75 26.986-20.6 50.827-17.404 72.385 5.283 35.632 30.606 63.305 56.864 93.556-6.317-1.147-12.557-2.146-18.21-2.752-8.907-.955-16.085-1.496-22.225-1.018-15.78-23.394-27.137-46.75-28.396-64.013l-16.875 1.23c2.246 30.812 24.037 66.155 49.786 97.565-12.35-3.28-23.554-5.657-33.69-6.112-13.696-.614-26.363 3.152-35.763 12.244-9.7-7.222-22.628-9.424-36.527-9.044-11.164.304-23.902 2.172-37.366 4.402 44.064-49.242 105.015-137.42 104.04-226.442l-16.92.186c.81 73.714-47.797 152.037-88.25 201.336-11.867-3.388-25.73-3.414-44.05-2.566 60.184-46.96 99.88-99.595 105.98-149.77 3.418-28.11-4.46-55.45-25.085-78.033-16.147-17.684-39.853-32.51-71.576-44.105 7.55-1.88 14.953-4.365 21.462-9.18 6.738-4.988 11.306-13.447 12.117-23.892 4.84 5.99 9.412 10.25 15.808 12.004 3.987 1.093 8.89.41 12.398-1.818 1.18-.75 2.055-1.72 2.987-2.65 1.008 13.36 2.204 26.116 4.996 35.543 1.305 4.41 2.77 8.54 6.917 11.938 4.147 3.4 11.522 3.424 16.02.846 2.954-1.693 5.624-4.19 8.255-7.105.53 5.72 1.776 10.502 4.068 14.624 1.406 2.527 3.53 5.005 6.594 6.473 3.065 1.467 6.72 1.527 9.586.712 5.732-1.63 9.41-5.37 13.29-10.104 8.362-10.204 17.167-27.234 25.41-49.5-1.647-26.645-3.49-39.06-35.522-58.758 25.123 13.013 47.678 20.495 89.27-7.207z"></path></svg>