<svg stroke="currentColor" fill="currentColor" stroke-width="0" viewBox="0 0 512 512" height="1em" width="1em" xmlns="http://www.w3.org/2000/svg"><path d="M220.324 73.05c-5.148.102-10.244.408-15.28.925 38.583 92.843 40.53 149.816 41.948 194.722 13.665-.22 27.327-.79 40.985-1.726-.867-86.935-37.327-165.248-67.653-193.92zm40.545 3.663c27.632 13.237 52.446 35.57 72.437 60.955l18.207-12.98c-24.553-23.846-55.78-40.86-90.645-47.975zm-74.163.09C105.784 93.517 44.517 163.548 41.16 248.64c62.735 12.36 125.33 19.76 187.834 20.13-1.395-45.53-3.087-99.25-42.287-191.967zm244.068 14.543c-1.904-.045-3.733.247-5.462.853-5.536 1.94-10 7.087-12.463 15.51-2.464 8.425-2.434 19.664 1.22 30.987 3.655 11.323 10.147 20.295 16.994 25.455 6.848 5.16 13.388 6.453 18.924 4.512 5.536-1.94 9.998-7.087 12.46-15.512 2.464-8.424 2.437-19.663-1.218-30.986-1.744-5.406-4.14-10.268-6.91-14.443a15.318 9.72 76.94 0 0-6.146-7.575c-1.288-1.282-2.607-2.435-3.94-3.44-4.707-3.547-9.268-5.265-13.46-5.362zm5.805 8.857a28.954 18.568 76.585 0 1 3.45.305 15.318 9.72 76.94 0 0-2.934 17.04 15.318 9.72 76.94 0 0 13.416 11.14 15.318 9.72 76.94 0 0 5.744-12.774 28.954 18.568 76.585 0 1 2.34 6.106 28.954 18.568 76.585 0 1-9.225 34.36 28.954 18.568 76.585 0 1-25.64-21.05 28.954 18.568 76.585 0 1 9.223-34.357 28.954 18.568 76.585 0 1 3.627-.77zm-43.223 16.762l-13.67 9.744c-.292 19.73 3.38 31.84 8.604 41.048 5.153 9.08 12.31 15.71 20.147 23.537l16.1-9.61c-1.477-.884-2.917-1.846-4.305-2.892-10.227-7.708-18.465-19.618-23.152-34.14-3.023-9.367-4.227-18.796-3.723-27.688zm-31.265 22.29l-64.63 46.073c5.126 19.47 9.352 43.4 10.077 66.193l84.907-50.68c-6.756-6.63-14-13.953-19.812-24.2-5.47-9.64-9.332-21.66-10.543-37.386zm40.457 76.516l-22.27 13.292c2.23 8.957 3.495 17.38 3.683 24.963 7.63-1.557 15.26-3.232 22.89-5.056-.43-11.366-1.9-22.46-4.304-33.2zM41 266.794v30.127c122.077 29.426 243.923 29.426 366 0v-29.6c-122.274 28.494-244.39 23.097-366-.527zm0 48.646v157.04c17.678 3.434 35.344 6.476 53 9.106V426c4.292-6.5 12.224-9.7 20.72-9.865 12.42-.244 26.045 5.99 31.28 17.865v54.055c87.183 8.608 174.138 5.576 261-15.207v-157.41c-121.928 28.724-244.072 28.724-366 0zm329.984 87.73c6.89.014 13.016 3.185 13.016 10.185v32l-32 4v-32c0-9 10.125-14.203 18.984-14.185zm-81.486 11.783C296.968 414.955 304 418.5 304 426v32l-32 2v-32c0-8.5 9.03-13.05 17.498-13.047zM208 420c8 0 16 4 16 12v32h-32v-32c0-8 8-12 16-12z"></path></svg>