<svg stroke="currentColor" fill="currentColor" stroke-width="0" viewBox="0 0 512 512" height="1em" width="1em" xmlns="http://www.w3.org/2000/svg"><path d="M439.088 50.27C295.73 49.974-39.922 265.802 61.39 388.523c51.407 62.274 112.452 65.694 170.964 36.868l-29.897-31.613a9.5 9.5 0 0 1-2.414-8.38c7.617-38.315 39.88-59.08 76.672-62.917a9.5 9.5 0 0 1 .834-.048 9.5 9.5 0 0 1 8.548 5.054l22.29 42.125C402.254 278.2 471.797 124.89 452.34 50.983c-4.203-.47-8.628-.703-13.252-.712zm-51.818 52.728a16.56 22.098 61.413 0 1 14.447 9.557 16.56 22.098 61.413 0 1-40.668 16.797 16.56 22.098 61.413 0 1 26.22-26.354zm-52.122 2.5a16.56 22.098 61.413 0 1 .002 0 16.56 22.098 61.413 0 1 14.446 9.557 16.56 22.098 61.413 0 1-40.668 16.797 16.56 22.098 61.413 0 1 26.22-26.354zm41.54 44.1a16.56 22.098 61.413 0 1 14.45 9.556 16.56 22.098 61.413 0 1-40.67 16.797 16.56 22.098 61.413 0 1 26.22-26.352zm-53.75 3.33a16.56 22.098 61.413 0 1 14.45 9.556 16.56 22.098 61.413 0 1-40.67 16.797 16.56 22.098 61.413 0 1 26.22-26.352zm-117.8 70.36a25.768 29.553 70.787 0 1 26.876 24.175 25.768 29.553 70.787 0 1-58.33 4.057 25.768 29.553 70.787 0 1 30.242-28.202 25.768 29.553 70.787 0 1 1.21-.03zm-60.05 39.82a25.767 29.553 46.864 0 1 21.766 13.92 25.768 29.553 46.864 1 1-51.676 27.363 25.767 29.553 46.864 0 1 29.91-41.283zm-21.39 66.933a25.767 29.553.983 0 1 7.59 1.476 25.767 29.553.983 0 1-16.33 56.144 25.767 29.553.983 0 1 7.67-57.615 25.767 29.553.983 0 1 1.07-.004zm148.765 12.306c-26.483 4.247-45.74 17.43-52.508 42.28l67.082 70.933c2.007-6.71 5.41-12.678 10.46-17.36 5.598-5.19 13.037-7.99 21.358-8.18l-46.392-87.674zm47.49 106.2c-4.262-.128-7.16 1.382-9.54 3.59-3.108 2.88-5.637 8.42-6.382 15.753 6.18-.332 10.884-1.732 14.124-4.09 3.598-2.617 6.407-6.84 8.022-14.13-2.36-.713-4.418-1.07-6.223-1.125z"></path></svg>