<svg stroke="currentColor" fill="currentColor" stroke-width="0" viewBox="0 0 512 512" height="1em" width="1em" xmlns="http://www.w3.org/2000/svg"><path d="M255.97 22.75c-44.405 0-85.1 25.434-115.25 68.125-30.152 42.69-49.157 102.41-49.157 168.563 0 66.152 19.005 125.87 49.156 168.562 30.15 42.69 70.845 68.125 115.25 68.125 44.402 0 85.067-25.434 115.218-68.125 30.15-42.69 49.187-102.41 49.187-168.563 0-66.152-19.037-125.87-49.188-168.562-30.15-42.69-70.815-68.125-115.218-68.125zm77.468 116.313c10.96 39.393 15.825 78.762 16.843 118.156 16.952-3.024 33.782-6.753 50.376-11.44-5.884 14.73-26.045 26.294-50.187 32.032-.282 44.07-4.86 88.15-10.595 132.22-7.335-42.81-13.62-85.628-16.094-128.438-22 1.092-44.25-2.78-60.31-13.313 19.79-1.902 39.66-3.972 59.467-6.75-1.156-40.83 1.515-81.637 10.5-122.467zm-176.22 95.5c1.883-.025 3.75-.008 5.626.062-6.855 5.274-11.28 13.558-11.28 22.875 0 15.93 12.91 28.844 28.842 28.844 15.932 0 28.844-12.913 28.844-28.844 0-4.615-1.073-8.976-3-12.844 13.33 5.66 26.475 13.614 39.438 23.625-37.067 62.158-128.797 25.067-137.188-22.5 16.552-7.404 32.767-11.01 48.72-11.218z"></path></svg>