<svg stroke="currentColor" fill="currentColor" stroke-width="0" viewBox="0 0 512 512" height="1em" width="1em" xmlns="http://www.w3.org/2000/svg"><path d="M256.25 20.656c-32.78 0-64.03 6.79-92.438 19-8.182-10.618-20.994-17.468-35.437-17.468-24.716 0-44.78 20.033-44.78 44.75 0 8.356 2.324 16.18 6.31 22.874-42.638 42.655-69.093 101.49-69.093 166.282 0 129.617 105.823 234.72 235.438 234.72 129.615-.002 234.72-105.103 234.72-234.72 0-129.618-105.105-235.438-234.72-235.438zm0 19.313c119.515 0 216.094 96.607 216.094 216.124s-96.58 216.094-216.094 216.094c-119.515 0-216.813-96.577-216.813-216.094 0-59.568 24.176-113.438 63.22-152.5 7.273 5.113 16.15 8.094 25.718 8.094 24.716 0 44.75-20.034 44.75-44.75 0-3.453-.385-6.804-1.125-10.032C197.91 46 226.396 39.97 256.25 39.97zm-.125 51.81c-91.3 0-165.875 74.575-165.875 165.876 0 91.3 74.576 165.406 165.875 165.406 35.12 0 67.708-10.965 94.5-29.656 7.13 4.23 15.45 6.656 24.344 6.656 26.396 0 47.81-21.384 47.81-47.78 0-12.763-5.005-24.366-13.155-32.938 7.677-19.067 11.906-39.884 11.906-61.688 0-91.3-74.106-165.875-165.405-165.875zm0 19.126c81.2 0 146.78 65.55 146.78 146.75 0 17.833-3.172 34.924-8.967 50.72-5.81-2.513-12.237-3.907-18.97-3.907-26.396 0-47.78 21.414-47.78 47.81 0 10.59 3.454 20.362 9.28 28.283-23.065 15.084-50.66 23.843-80.343 23.843-81.2 0-147.22-65.55-147.22-146.75s66.02-146.75 147.22-146.75zm-1.063 19.625c-7.462 31.99-21.767 62.112-42.906 83.25-21.14 21.14-48.73 32.913-80.72 40.376 31.99 7.462 62.112 21.736 83.25 42.875 21.14 21.14 32.914 48.764 40.376 80.75 7.463-31.986 19.204-59.61 40.344-80.75 21.14-21.138 51.262-35.412 83.25-42.874-32.236-7.428-59.455-19.11-80.72-40.375-21.262-21.263-35.446-51.013-42.873-83.25zm.094 86.564c20.498 0 37.125 16.627 37.125 37.125 0 20.496-16.626 37.124-37.124 37.124-20.497 0-37.125-16.628-37.125-37.125 0-20.5 16.63-37.126 37.126-37.126z"></path></svg>