<svg stroke="currentColor" fill="currentColor" stroke-width="0" viewBox="0 0 512 512" height="1em" width="1em" xmlns="http://www.w3.org/2000/svg"><path d="M220.1 89.57c-3.8 0-7.5.12-10.9.29-9.2.46-17 1.53-22.3 2.96-1.8.49-3.1 1.05-4.2 1.58 1.4 1.39 3.3 3.05 6.1 4.99 8 5.61 20.9 12.41 36.3 18.91 30.9 13 71.9 24.9 106.1 27.4 12.4.9 20.9-3 26.4-7.8 5.5-4.9 7.3-11.3 7.2-12.8-.1-1.1-1.3-3.6-5.6-6.9-4.3-3.2-11.2-6.7-19.7-9.9-17-6.4-40.4-11.59-64.1-14.82-17.8-2.42-35.7-3.77-51.4-3.9h-3.9zm-46.6 20.73c-9.1 20-18.9 42.3-26.7 61.5 7.5 5.6 15.6 11.3 24 16.8 8.9-7.9 23.4-14 23.4-14s-7.1 11.2-12 21.3c11.6 7.2 23.7 14.1 36 20.4 8.5-11 28.4-20.8 28.4-20.8s-6.4 16.5-10.5 29.5c11.8 5.5 23.8 10.3 35.5 14.2 3.8 1.3 7.6 2.5 11.4 3.6 6-15.6 20.6-35 20.6-35s2.8 23 2.1 40.4c15 2.7 29.3 3.6 42.2 2.2 7.1-17.5 9.1-38.5 7.5-53.3 12.7 11.3 16.9 29.3 18.9 46.2 1.7-.8 3.4-1.6 5.1-2.6-3.2-24.4-7.3-60.1-9-90.3-.4.3-.7.6-1 .9-9 8-22.6 13.5-39.6 12.2-37.1-2.7-79.2-15-111.6-28.7-16.2-6.8-30-13.9-39.7-20.8-1.8-1.2-3.5-2.5-5-3.7zm-58.1 72.4c-39.55-.4-74.74 6.1-94.88 30.8C3.118 234.8 127.1 343 245.8 390.6c88.6 35.5 176.1 53 229.7-11.1 51.8-62-20.8-139.6-82.7-177.7 3.9 35.1 8.4 65.7 8.4 65.7v1.1c.3 9.5-3.8 18.4-10.4 24.5-6.7 6.1-15.5 9.8-25.7 12.2-20.3 4.6-46.6 3.6-75.7-2-58.1-11.2-126.8-41.1-171.6-89.1l-3.3-3.5 1.1-4.7c1.5-6.3 4.1-14.2 7.4-23.1-2.5-.1-5.1-.2-7.6-.2zm24.7 6.4c-2.4 6.3-4.3 11.9-5.7 16.5 10 10.1 21.2 19.4 33.3 27.8-2.6-8.7-5.1-19.6-4.7-28.5-7.9-5.2-15.6-10.5-22.9-15.8zm36.4 24.4c-1.4 7.8-2.3 16.9-2.9 23.9 15.3 10 31.7 18.8 48.5 26.1-3.4-8.4-7.1-19.5-8-29.2-12.9-6.4-25.5-13.5-37.6-20.8zm55.4 29.3c-1.3 7.8-2.4 16.8-3.1 23.5 18.9 7.8 38.1 13.8 56.2 17.8-1.8-6.9-3.7-15.7-4.3-23.4-5-1.4-9.9-2.9-14.8-4.6-11.3-3.8-22.7-8.3-34-13.3zm150 16.8c-2.2 1-4.4 2-6.7 2.8-.4 7.4-1.6 14.8-3.3 21.8 2.9-1.3 5.1-2.8 6.8-4.3 3.3-3.1 4.7-5.9 4.6-10.6-.1-.4-.7-5-1.4-9.7zm-79.4 6.2c-2.3 6.7-5.7 14.2-8.6 20.1 27 5.1 51.1 5.5 67.3 1.9h.1c-2.2-6.7-4.7-13.6-8.4-19.8-15.8 2.1-32.8 1.1-50.4-2.2z"></path></svg>