<svg stroke="currentColor" fill="currentColor" stroke-width="0" viewBox="0 0 512 512" height="1em" width="1em" xmlns="http://www.w3.org/2000/svg"><path d="M321.28 25.25c-5.283-.02-10.664.664-16 2.094-32.517 8.713-52.123 42.41-43.25 74.937 25.442 93.258 17.27 64.235 41.783 155.97 8.69 32.53 42.42 51.963 74.937 43.25 32.52-8.713 52.114-42.44 43.22-74.97-23.16-84.706-19.757-73.42-38.658-144.186h.032l-3.156-11.75c-7.08-26.42-30.626-44.21-56.657-45.28-.75-.032-1.494-.06-2.25-.064zm-.81 18.688c18.96-.337 36.327 12.095 41.592 31.218l.063.28c15.085 56.296 18.418 69.392 23.906 90-16.61 17.467-61.828 30.824-82 20.783-5.28-20-8.876-33.524-23.967-88.845-6.186-22.672 7.31-45.904 30.062-52 2.844-.762 5.677-1.202 8.5-1.375.615-.038 1.232-.052 1.844-.063zm-141.25 91.03c-13.855 0-27.704 5.274-38.22 15.782h-.03c-3.675 3.674-3.08 3.075-6.19 6.188l-9.75 9.75h.064c-31.984 32.104-33.768 34.17-82.656 82.562-21.185 20.97-21.068 55.495-.032 76.53 21.036 21.037 55.474 21.057 76.5 0 57.914-57.996 39.236-39.802 98.5-98.53 21.167-20.977 21.067-55.495.03-76.53-10.516-10.52-24.356-15.75-38.217-15.75zm0 18.563c9.04 0 18.087 3.465 25.03 10.407 13.886 13.886 13.943 36.244.03 50.032-35.797 35.473-44.024 43.716-57.03 56.81-18.86-2.615-44.693-29.792-50.313-49.374 13.315-13.35 21.23-21.447 57.25-57.47 6.943-6.942 15.99-10.405 25.032-10.405zM427.905 319c-5.457-.02-10.986.675-16.5 2.156-95.318 25.614-64.922 17.872-162.094 43.438-33.698 8.866-53.754 43.83-44.75 77.437 9.005 33.61 43.8 53.724 77.407 44.72 97.095-26.02 66.704-18.39 162.124-43.438 33.71-8.848 53.754-43.828 44.75-77.437-7.316-27.308-31.69-45.715-58.594-46.813-.776-.03-1.564-.06-2.344-.062zm-95.094 42.78c-12.75 21.474-1.198 70.14 19.657 86.533-15.047 4.102-32.154 8.81-75.314 20.375-23.84 6.387-48.144-7.63-54.53-31.47-6.39-23.84 7.615-48.263 31.436-54.53 46.026-12.11 63.028-16.65 78.75-20.907z"></path></svg>