<svg stroke="currentColor" fill="currentColor" stroke-width="0" viewBox="0 0 512 512" height="1em" width="1em" xmlns="http://www.w3.org/2000/svg"><path d="M274.639 24.324c-1.305-.008-2.609 0-3.914.027-51.867 1.055-104.298 29.226-135.069 81.643 7.894-1.849 16.23-3.578 24.918-5.245 40.784-55.165 109.828-71.82 163.772-47.845 33.498 14.888 61.522 45.309 73.933 93.998 6.188 24.276 8.4 53.16 5.149 86.777a215.415 215.415 0 0 1-11.662 4.254C357.004 249.52 309.028 256.679 256 256.679c-53.028 0-101.004-7.159-135.766-18.746-17.398-5.8-31.388-12.652-41.146-20.342-.29-.229-.565-.46-.848-.691A192 64 0 0 1 256 176.68a192 64 0 0 1 131.156 17.485c-.127-7.895-.948-17.402-2.709-26.877-3.03-16.298-8.33-33.269-13.87-44.482-32.923-7.762-72.188-12.127-114.577-12.127-54.632 0-104.122 7.223-141.457 19.668-18.65 6.217-34.418 13.686-46.596 23.283C55.68 163.298 46 176.566 46 192.68c0 16.112 9.68 29.38 21.947 39.048A98.426 98.426 0 0 0 73 235.443v197.236c0 5.189 3.194 11.174 11.658 17.844 8.464 6.67 21.703 13.3 38.424 18.873 33.442 11.147 80.71 18.283 132.918 18.283 52.209 0 99.476-7.136 132.918-18.283 16.721-5.574 29.96-12.203 38.424-18.873 8.464-6.67 11.658-12.655 11.658-17.844V253.095c-5.532 53.188-19.494 85.11-34.598 116.803.002.186.01.371.01.558 0 9.347-2.862 17.978-7.998 24.624-5.135 6.645-12.98 11.417-21.896 11.417-8.917 0-16.76-4.772-21.895-11.417-5.135-6.646-7.998-15.277-7.998-24.624 0-9.346 2.863-17.977 7.998-24.623 5.136-6.645 12.978-11.416 21.895-11.416 8.738 0 16.438 4.587 21.576 11.024.185-.537.375-1.078.559-1.613 11.708-26.34 21.133-54.236 25.013-98.461 8.404-4.033 15.908-8.533 22.387-13.639C456.32 222.06 466 208.792 466 192.679s-9.68-29.381-21.947-39.049c-8.362-6.59-18.416-12.174-29.934-17.04-14.385-50.057-45.396-83.66-82.465-100.135-18.047-8.022-37.451-12.014-57.015-12.131zM69.139 207.43zm373.722 0zm-19.972 1.99a192 64 0 0 1 10.933 7.428c-.303.248-.598.496-.91.742-3.132 2.469-6.706 4.85-10.683 7.139.342-5.201.567-10.31.66-15.309zM91.252 245.806c7.143 3.372 14.924 6.416 23.291 9.205C151.878 267.456 201.368 274.68 256 274.68c40.082 0 77.375-3.9 109.152-10.887-1.347 22.319-5.683 62.65-19.502 62.157-34.923-1.246-22.114-45.128-43.703-36.75-15.494 6.013-13.837 34.672-28.804 35.26-18.017.706-35.747-27.532-57.608-29.301-16.208-1.312-16.45 63.536-36.75 64.81-19.16 1.203-20.674-55.664-29.799-57.361-36.095-6.713 18.027 104.509-38.238 111.244-23.923 2.864-16.886-102.419-19.496-168.045zm283.266 106.611c-2.623 0-5.226 1.282-7.653 4.422-2.427 3.14-4.24 8.03-4.24 13.617 0 5.588 1.813 10.477 4.24 13.618 2.427 3.14 5.03 4.423 7.653 4.423 2.622 0 5.227-1.283 7.654-4.423 2.427-3.141 4.24-8.03 4.24-13.618 0-5.587-1.813-10.476-4.24-13.617-2.427-3.14-5.032-4.422-7.654-4.422z"></path></svg>