<svg stroke="currentColor" fill="currentColor" stroke-width="0" viewBox="0 0 512 512" height="1em" width="1em" xmlns="http://www.w3.org/2000/svg"><path d="M435.81 30.275C388.838 40.961 334.08 61.244 287.38 91.85c-13.3-17.911-43.633-31.767-65.365-47.67 14.824 17.007 33.197 32.832 44.923 50.873-30.61-2.727-105.185 1.463-107.044 5.367 25.135.906 65.16 1.522 92.511 4.582-23.869 8.135-43.06 19.42-59.443 30.06l79.082-16.076L256.113 494h18.014l15.937-375.113c41.485 14.063 76.712 35.74 111.977 58.388-23.826-30.197-45.612-56.79-90.092-73.029 29.257-29.168 81.371-49.765 123.862-73.97zm-302.939 89.393c-1.314 18.979-5.194 37.6-9.3 55.902-26.657-21.312-65.582-20.787-95.489-26.105 31.447 11.587 62.99 23.048 88.395 42.404-34.894 38.905-49.344 78.384-63.795 119.498 24.794-32.845 45.483-66.863 75.922-98.096L179.338 494h18.29l-52.116-288.385c38.12 6.632 68.002 21.504 98.937 35.32-25.786-17.036-51.694-35.034-86.94-48.378 26.469-11.813 55.016-23.104 84.618-28.69-31.193-5.296-76.743-3.807-98.523 9.928.637-18.66-1.947-34.846-10.733-54.127zm174.836 149.781c20.367 8.667 40.404 18.357 58.582 28.738-26.913 11.338-58.842 41.589-57.117 44.463 20.586-10.82 42.02-20.368 66.271-25.69L350.637 494h18.176l24.648-175.896c31.778 15.48 61.363 33.882 86.053 58.814-17.609-23.227-30.058-43.027-52.3-59.979 19.11-1.195 36.87.293 56.704 3.159-26.561-6.52-45.137-17.429-77.51-16.461a2.274 2.274 0 0 0-.043-.024c.273-.082 69.754-20.935 70.914-22.543 1.103-1.527-72.323 1.302-96.18 7.123-28.946-13.617-53.64-16.558-73.392-18.744z"></path></svg>