<svg stroke="currentColor" fill="currentColor" stroke-width="0" viewBox="0 0 512 512" height="1em" width="1em" xmlns="http://www.w3.org/2000/svg"><path d="M492.063 21.47L353.375 43.312l43.188 19.406L360.5 85.03c5.877 6.705 10.767 14.518 14.344 23.282l37.844-23.406-2.094 50.906 81.47-114.343zM301.125 76.437c-1.608-.015-3.204.04-4.813.156-19.3 1.397-38.492 12.485-51.468 36.97l-7.906 14.936-8.438-14.625c-17.056-29.533-47.546-40.198-73.22-35.156-25.67 5.04-46.32 24.368-45.155 61.03.747 23.506 12.27 41.744 29.125 59.313l15.938-9.875c7.068-4.376 14.39-6.487 21.187-6.313 2.266.058 4.472.378 6.594.938 8.486 2.237 15.004 8.183 18.686 15.312 7.364 14.257 3.867 34.654-13.25 45.25l-15.187 9.406c15.353 65.592-25.282 99.922-25.282 135.657 0 20.192 17.73 35.032 34.875 35.032 17.528 0 34.187-13.858 34.187-33.033 0-37.474-43.044-81-17.063-137.187 13.904 13.542 26.968 28.61 36.875 46.594 6.853-11.823 15.104-22.28 24.032-31.813 26.65 31.85-6.063 66.597-6.063 93 0 13.414 11.642 23.126 23.907 23.126 11.997 0 24.407-10.37 24.407-24.5 0-27.533-40.804-63.71-1.688-128.28 2.408-1.993 4.773-3.945 7.125-5.907 15.045 21.743-6.28 45.09-6.28 63 0 9.463 8.22 16.31 16.875 16.31 8.464 0 17.22-7.31 17.22-17.28 0-19.657-29.467-40.713-.19-87.188 4.754-5 9.035-10.085 12.658-15.343 9.17-13.313 14.443-27.468 13.875-45.657-1.066-34.09-22.314-55.8-47.25-62.032-4.676-1.167-9.49-1.8-14.313-1.843zM174.75 201.53c-2.53.125-5.71 1.05-9.72 3.532L19.938 295v31.75l158.625-98.25c9.33-5.775 9.66-14.662 6.5-20.78-1.58-3.06-3.905-5.07-6.843-5.845-.736-.194-1.543-.31-2.44-.344-.335-.01-.67-.016-1.03 0zm147.375 166.94c-2.102 29.32-18.28 38.26-18.28 54.592 0 8.108 8.908 15.313 18.28 15.313 9.167 0 18.625-7.182 18.625-15.72 0-17.01-15.994-24.82-18.625-54.186zM240.75 386.31c-4.03 44.97-28.53 56.92-28.53 82.97 0 13.072 14.493 24.062 28.53 24.062 14.35 0 28-11.054 28-23.47 0-25.006-24.782-38.666-28-83.562z"></path></svg>