<svg stroke="currentColor" fill="currentColor" stroke-width="0" viewBox="0 0 512 512" height="1em" width="1em" xmlns="http://www.w3.org/2000/svg"><path d="M256 63.43c-17.6 0-33.4 1.83-44.3 4.54-3.3.83-6 1.76-8.1 2.65 2.1.9 4.8 1.82 8.1 2.65 10.9 2.69 26.7 4.54 44.3 4.54 17.5 0 33.3-1.85 44.2-4.54 3.3-.83 6-1.75 8.1-2.65-2.1-.89-4.8-1.82-8.1-2.65-10.9-2.71-26.7-4.54-44.2-4.54zm-60.1 24.13L155 271.9c11.3 4 26.1 7.2 42.4 9.6V260.7h117.1V282c16.4-2.3 31.2-5.6 42.4-9.8L316 87.56c-3.4 1.4-7.2 2.6-11.4 3.6-12.9 3.3-29.9 5.1-48.6 5.1-18.8 0-35.8-1.8-48.7-5.1-4.2-1-8-2.2-11.4-3.6zm20 191.54v66.6l80.1.5v-67.1zm-64.9 11l-6 26.8c13.6 5.1 32 9.1 52.4 11.8v-28.4c-17.2-2.3-33.1-5.6-46.4-10.2zm210 .3c-13.3 4.9-29.3 8.3-46.5 10.5v27.8c20.4-2.7 38.8-6.7 52.4-11.8zm-127.6 6.2h45.1v32.9h-45.1zm-103 1a230 82.16 0 0 0-104.44 68.8A230 82.16 0 0 0 256 448.6a230 82.16 0 0 0 230-82.2 230 82.16 0 0 0-104.4-68.7l15.1 67.7v1c0 5.2-2.8 9.7-5.9 12.6-3.2 2.9-6.9 4.9-11.1 6.7-8.3 3.6-19.1 6.2-31.8 8.4-25.5 4.2-58.7 6.2-91.9 6.2-33.3 0-66.5-2-92-6.2-12.7-2.2-23.5-4.8-31.8-8.4-4.2-1.8-7.9-3.8-11.1-6.7-3.1-2.9-5.8-7.4-5.8-12.6v-1zm10.4 37.8l-6.6 30.3c.8.7 2.5 1.9 5.2 3 6 2.6 15.8 5.1 27.7 7.1 23.8 4 56.4 6 88.9 6 32.4 0 65-2 88.8-6 11.9-2 21.7-4.5 27.7-7.1 2.7-1.1 4.4-2.3 5.3-3l-6.7-30.3c-16 6-35.4 10-56.6 12.4v16.9l-117.1-.5v-16.4c-21.1-2.4-40.6-6.4-56.6-12.4z"></path></svg>