<svg stroke="currentColor" fill="currentColor" stroke-width="0" viewBox="0 0 512 512" height="1em" width="1em" xmlns="http://www.w3.org/2000/svg"><path d="M122.8 17.01C20.21 16.79-22.04 166 76.59 206.7c10.67-6.3 25.11-15.4 39.41-26.1 13.8-10.5 27.4-22.5 37-34.5 9.6-12 14.7-23.7 14-33.5-.7-9.5-7.9-19.54-18.9-27.2-25.3-15.85-49.4-15.59-72.48 0-20.05 14.25-22.96 34.8-6.26 49.5 13.63 9.9 27.9 16.9 41.94 7 14.2-14.3-1.7-23-13.72-30.1l8.82-15.65C116 102.4 125 108 131.6 116.9c10.3 15.1 3.2 30.1-9.8 39.7-22.53 14.5-46.34 7.1-64.22-8.1-27.83-25-18.57-59.16 7.78-77.89 32.38-19.94 63.74-20.03 93.14 0 13.8 9.69 25.3 23.62 26.5 40.79 1.1 16.5-6.8 32-17.9 45.9-11.1 14-25.7 26.7-40.3 37.7-17.5 13.1-34.88 23.7-46.18 30.1.6 8.9 1.7 18.6 3.39 28.6 45.19-20.8 82.89-47.9 105.69-80.5 25.1-35.7 33.1-77.51 13.8-128.27-29.5-19.65-56.8-27.86-80.7-27.92zm266.4 0c-23.9.1-51.2 8.27-80.7 27.92-19.3 50.76-11.3 92.57 13.8 128.27 22.8 32.6 60.5 59.7 105.7 80.5 1.7-10.1 2.8-19.9 3.4-28.9-39.9-26.5-99.7-67.2-104.4-112.4-.8-17.44 6.7-35.21 18.2-49.47 11.4-14.26 27.3-25.4 45.2-26.67 41.2 1.71 81.8 38.65 82.6 75.74 0 14.5-8.3 27.1-18.9 36.5-21.3 15.7-42.2 23-63.9 8.1-7.6-5.5-14.2-13.5-15.2-23.8.6-17.4 16.8-28.5 30.6-36.66l8.8 15.66c-7.2 5.8-18.2 9.6-21.4 19.4.2 3 3 7.4 7.7 10.7 14.4 9.8 30.9 2.2 41.5-6.9 7.9-7 12.8-15.8 12.8-23-3.5-29.64-35.6-59.07-63.4-57.78-10.9.77-23.2 8.59-32.4 19.99C350 85.62 342 100.6 345 111.6c12.6 45.6 53.5 71.8 90.9 94.8 98-41 55.7-189.61-46.7-189.39zM223.7 48c16.4 51.75 7.1 98-19.2 135.6-8.1 11.5-17.6 22.2-28.4 32.2 18.5 7.8 38.1 12.7 55.9 13.2 1.8-11.4 5.7-21.4 9.4-30.7 4.7-12.1 9.1-23 9.9-35.7 1.4-20.2-2.6-53.2-7.1-80.54-2.1-13.29-4.4-25.24-6.1-34.06zm32.7 0c1.6 8.56 3.6 19.28 5.6 31.15 4.6 27.85 8.9 60.95 7.3 84.65-1.1 16-6.5 29.1-11.2 41.1-9 26.1-13.9 32.8-1.9 54.9 3.3 6.1 7.3 13.2 8.5 21.6l99.8-42.8c-3.3-2.3-6.5-4.6-9.6-7-19.1 8.1-48.2 15.5-64.6 3.7-18.5-18.6-4-59.4-.2-84.1-12-30.6-13.8-65.45-1.8-103.2zm47.7 130.6c-2.2 8.4-10 37-3.1 42.2 11.8 5.6 26.6 1.7 38-2.2-13.8-13.3-25.7-25.8-34.9-40zm-143.3 50.2c-4.6 3.6-9.3 7.1-14.2 10.4 33 14.2 66.5 27.1 99.4 41.6-4.1-11.7-12.3-22.6-14.4-33.7-23.6-.7-48.3-7.8-70.8-18.3zM383 250.5L308.8 328c-1.2 13-1.2 23.1-.4 30.6 4 28.7 17.4 24 37.8 29.4 1.7-5.8 3.1-11.6 4.1-17.4-5.1-14.9-10-30.4-10.7-46.7l18-.8c.4 8.9 2.5 18.3 5.3 27.9 33.9-6.3 52.2-42.1 61.4-79.2-14.5-6.5-28.3-13.6-41.3-21.3zm-255.4.9c-12.6 7.4-26 14.2-39.87 20.4 8.54 34.9 25.27 68.6 55.37 77.8 13.8-6.6 25-13.5 30.7-20.4l13.8 11.4c-6.8 8.3-16.3 15-27.2 20.8 3.4 37.5 26.5 78.8 50.9 105.6-2.9-25.6 0-63.4 17.5-73.2-2.5-12.9-5.6-27.3-4.8-39.3 2-22.5 16.3-39.5 21.7-59.4L208 332.8zm136.9 41.9c-2.9 15.7-10.3 28.1-16.2 41.3l41.9-.2c.2-4.4.6-9.1 1.2-14.2zm25.3 48.5l-25 40.6-21.3-34.8c-3.4 14.5.3 31.7 3.4 44.3 13.7 4.3 20 18.5 23.3 30.4 20.3-23.8 43-15.1 63.2-2.9 2.4-4.7 4.6-9.5 6.6-14.3-12.2-2.7-26.3-4.9-34.7-11.8-7.8-6.5-13-17.2-14.8-32.7-.6-5.5-.8-11.7-.7-18.8zM240.4 409c-21.9 10.2-11.1 61.4-6.3 78.3v.2c6.9 4.5 16 9.3 24.3 8.3-1-21 .6-80.8-18-86.8zm63.7 15.9c3.1 8.4 6.2 17.9 8.7 27.5 4.1-5.4 8-11.2 11.7-17.2-6.8-4.2-13.1-7.9-20.4-10.3zm-17.4 5.2c-10.1 17.3-9.4 40.8-9.4 57.7 6.7-4.4 13.8-10.6 20.8-17.9-2.8-13.2-7.2-28.2-11.4-39.8z"></path></svg>