<svg stroke="currentColor" fill="currentColor" stroke-width="0" viewBox="0 0 512 512" height="1em" width="1em" xmlns="http://www.w3.org/2000/svg"><path d="M216.4 18.66c-3 35.94 12.6 64.01 28.1 88.94 15.5 24.9 30.6 47 32.2 72.3 1.2 17.3-4.6 34.5-11.5 53-6.9 18.6-14.8 38.4-15.5 60.9l18 .6c.5-18.5 7.4-36.4 14.4-55.2 6.9-18.8 14-38.5 12.6-60.5-2-31.5-19.8-56.3-35-80.65-15.1-24.34-27.9-47.81-25.3-77.87l-18-1.52zm134.2 9.52c-18.7 10.56-39.1 23.47-52.1 37.64-7.9 8.63-12.8 17.38-13.9 25.86-1 7.53.8 15.42 7.3 24.72 20.2-.7 35.3-13.8 45.7-33.24 8.9-16.54 13.3-37.15 13-54.98zM141.7 97.64c-1.1.01-2.2.04-3.2.07-5.7.18-11 .73-15.9 1.49 10.5 16.8 30.5 35.8 52.2 46.8 13.1 6.6 26.6 10.4 38.8 10.1 10.8-.2 20.4-3.5 29-10.9-1.6-8.6-6.2-15.9-13.9-22.5-8.8-7.5-21.4-13.7-35.5-18-15.4-4.7-32.6-6.92-48.2-7.06-1.1-.01-2.2-.01-3.3 0zM347.5 208.2c-2.1.1-4.1.3-6.1.5-14.2 1.8-26.1 8-34.8 22.2 3.8 3.9 8.1 6 13.1 7 6.6 1.3 14.7.4 23.2-2.5 12.7-4.2 26.3-12.8 36.8-22-10-3.3-20.5-5.2-30.3-5.2h-1.9zM32 311v18h204.3c-1.1 7.3-2.8 17.7-5.5 28.8-5 21-14.4 44.1-24.2 51.7-12.5 9.6-29.8 10.2-49.6 7.9-3.8-2.4-14.6-9.6-25.1-18.9-6.4-5.6-12.4-12-16-17.6-3.6-5.7-4.3-9.8-3.5-12.4-.1.6-.1 0 2.2-.9 2.4-.9 6.2-1.7 10.1-2 7.8-.7 15.5 0 15.5 0l1.6-18s-2.2-.2-5.6-.3c-3.5-.1-8.1-.1-13 .3-4.9.5-10.1 1.3-15.1 3.2-4.9 1.9-10.55 5.4-12.74 12.1-3.25 9.8.24 19.5 5.34 27.6 4.9 7.9 11.9 15 19 21.2-13.6-1.9-27.53-3.1-40.68-1-3.49-6.9-7.94-14.2-15.19-20.1-8.92-7.3-21.63-11.8-39.25-12.2l-.38 18c14.84.3 22.78 3.7 28.25 8.2 3.71 3 6.49 6.9 9.04 11.4-3.48 1.7-6.87 3.7-10.13 6.1-10.6 7.9-14.53 20.9-17.66 32.2-3.13 11.2-4.44 21-4.44 21l17.84 2.4s1.18-8.7 3.94-18.6c2.74-9.8 8.09-20.4 11.06-22.6 16.99-12.6 42.6-9.1 71.1-4.4 28.4 4.7 60 10.4 84.4-8.4 8-6.2 13.9-14.9 18.6-24.6 4.8 10.5 11.7 19.6 20 27.5-10.7 2.7-20 7.5-28.1 13.3-13.4 9.7-24 21.7-34.8 31.5l12 13.4c8-7.3 15.3-14.8 22.6-21.4 4.1 7.3 9.9 13.1 16.4 17.3 10.4 6.8 22.2 10.3 33 12.9l4.2-17.4c-10-2.5-20-5.7-27.3-10.5-5.5-3.6-9.6-7.7-12-13.6 10.1-6.5 20.8-10.4 35.4-9.6 6.5 3.7 13.3 7 20.3 9.8 26.6 10.5 56.4 14.4 82.5 12 16.4-1.6 32.8-11 47.4-22 6.6 5.3 12 11.7 15.7 18 5.3 9 6.5 17.7 5.3 21.6l17 5.6c4-11.7.2-24.5-6.8-36.4-4.3-7.2-9.9-14.1-16.8-20.3.1 0 .1-.1.2-.1 18-15.1 31.3-29.8 31.3-29.8l-13.2-12.2s-12.8 13.9-29.7 28.2c-17 14.3-38.8 28.2-52 29.4-23 2.2-50.6-1.4-74.3-10.8-23.6-9.3-43-24.2-51.9-43.8-2.6-5.7.7-22 7.1-36 3-6.6 6.2-12.5 8.8-17 3.8 2 8.1 4.4 12.9 7.2 13 7.6 27.9 18 34.1 25.5 4.6 5.5 10.6 18.6 14.7 29.7 4.1 11.2 6.7 20.5 6.7 20.5l17.4-4.8s-2.8-10-7.2-21.9c-2.8-7.9-6.2-16.5-10.5-24.2 4.1-.6 9.5-.6 15.7.6 12.2 2.4 26.8 8.5 39 17.5l10.6-14.6c-14.5-10.5-31-17.6-46.2-20.5-5.7-1.1-11.3-1.8-16.7-1.6-5.1.1-9.9 1-14.2 2.8-9.5-9.3-22.6-17.6-34.2-24.5-.8-.5-1.6-.9-2.4-1.4H480v-18H32z"></path></svg>