<svg stroke="currentColor" fill="currentColor" stroke-width="0" viewBox="0 0 512 512" height="1em" width="1em" xmlns="http://www.w3.org/2000/svg"><path d="M228.223 21.195c-.69.007-1.367.026-2.036.055-10.698.47-18.53 3.562-24.062 9.094-46.247 46.247-64.492 89.795-64.344 129.062.15 39.268 18.763 75.295 49.845 106.375 30.724 30.723 69.188 47.024 110.063 45.94 31.945-.85 65.598-12.347 98.27-36.824-1.063-1.837-2.15-3.646-3.276-5.394-10.605-16.437-24.044-28.604-36.274-34.766-.003 0-.006-.002-.01-.004-2.334-.888-4.714-1.882-7.134-2.976l-1.344-.445-.47-.414c-22.307-10.453-47.853-29.242-72.52-53.91-23.78-23.78-42.1-48.52-52.774-70.156-5.336-10.82-8.82-20.845-9.84-30.15-1.02-9.306.608-18.744 7.17-25.307 4.922-4.922 11.462-7.07 18.35-7.404 2.296-.113 4.63-.024 6.957.23 9.305 1.022 19.334 4.507 30.152 9.843 21.638 10.673 46.375 28.992 70.155 52.77 20.19 20.192 36.426 41.098 47.408 60.166 10.354 2.306 19.776 6.258 28.254 11.56-11.875-26.925-32.735-57.202-60.7-85.165-31.504-31.503-65.977-54.003-95.25-64.78-13.72-5.054-26.26-7.5-36.59-7.4zm224.78 134.858c-8.156 0-14.767 6.61-14.767 14.765 0 8.156 6.61 14.766 14.766 14.766 8.155 0 14.766-6.61 14.766-14.766 0-8.154-6.61-14.765-14.766-14.765zm-131.15 27.277l35.82 31.658c18.85 6.934 36.815 22.84 50.714 44.38 14.405 22.33 24.3 50.874 24.3 82.232v42.312c-2.678-3.76-7.063-6.223-12.03-6.223-8.156 0-14.766 6.61-14.766 14.765 0 8.156 6.61 14.766 14.766 14.766 4.968 0 9.353-2.46 12.03-6.222v93.088h32.277v-21.158c2.658 1.303 5.637 2.054 8.797 2.054 11.067 0 20.04-8.972 20.04-20.04s-8.973-20.04-20.04-20.04c-3.16 0-6.14.752-8.797 2.055V341.6c0-40.176-6.675-80.88-21.86-110.422-15.184-29.544-37.235-47.848-72.166-47.848h-49.085zm-164.072 77.2l-27.06 12.72.218.22c-3.374 3.36-3.612 5.753-1.563 11.592 2.05 5.84 7.55 13.72 15.22 21.375 7.492 7.483 15.54 12.637 21.686 14.625 6.148 1.99 8.97 1.4 11.376-1l.094.094 12.625-26.875c-5.527-4.4-10.858-9.17-15.97-14.28-5.936-5.937-11.49-12.096-16.624-18.47zm-128 16.376c-4.147.122-6.81 1.282-8.374 2.844-1.952 1.953-3.558 5.7-3.5 12.188.058 6.488 1.904 15.2 5.72 24.968 7.63 19.535 22.975 43.288 44.718 65.03 21.743 21.745 45.758 37.354 65.594 45.252 9.917 3.948 18.778 5.924 25.375 6.062 6.596.138 10.365-1.428 12.25-3.313 2.485-2.485 3.91-7.837 1.718-17.656-1.543-6.92-4.898-15.422-9.81-24.717-10.077 6.655-23.1 6.935-35.064 3.062-14.03-4.542-28.03-14.195-40.906-27.063-12.703-12.694-22.842-26.034-27.72-39.937-4.203-11.987-3.644-25.438 3.72-36.03-9.252-4.857-17.694-8.16-24.563-9.658-3.652-.795-6.667-1.104-9.156-1.03zM109.97 283l-25.564 12-4.625 2.188-.124-.094c-5.077 5.687-5.392 11.384-2.25 20.344 3.352 9.556 11.82 21.42 23.313 32.906 11.318 11.31 23.5 19.284 33.436 22.5 9.1 2.946 15.123 2.408 19.78-1.406l-.155-.25 2.19-4.625 12.25-26.094c-2.612-.273-5.208-.824-7.69-1.626-10.238-3.312-20.103-10.15-29.155-19.188-8.878-8.864-16.05-18.217-19.625-28.406-.925-2.634-1.534-5.42-1.78-8.25zm275.286 27.602c-11.067 0-20.04 8.97-20.04 20.04 0 11.068 8.973 20.04 20.04 20.04 11.067 0 20.04-8.972 20.04-20.04 0-11.07-8.973-20.04-20.04-20.04z"></path></svg>