<svg stroke="currentColor" fill="currentColor" stroke-width="0" viewBox="0 0 512 512" height="1em" width="1em" xmlns="http://www.w3.org/2000/svg"><path d="M325.3 26.22c-15.1 11.32-27.1 20.28-37.5 26.52-11.1 6.69-21.2 10.7-31.8 10.7-10.7 0-20.7-4.01-31.9-10.7-10.4-6.23-22.5-15.19-37.6-26.5-2.8.53-8 1.82-14.7 4.59-1.4.57-2.9 1.21-4.4 1.86 6.6 6.19 18 16.71 31.2 27.26 10.3 8.19 21.5 16.32 31.9 22.23 10.4 5.92 20.1 9.29 25.5 9.29 5.4 0 15-3.37 25.4-9.28 10.3-5.91 21.5-14.05 31.8-22.23 13.3-10.66 24.9-21.27 31.3-27.43-1.5-.68-3-1.32-4.5-1.9-6.7-2.67-11.8-3.91-14.7-4.41zM361.7 41c-2.8 2.83-18 17.56-37.3 33.02-8.8 7.02-18.3 14.05-27.9 20.05L256 175l-40.6-80.83c-9.6-6.06-19.2-13.11-28-20.15-18.9-15.09-33.7-29.43-37.1-32.77-2.4 1.33-4.8 2.71-7.2 4.16-20.2 12.1-40.1 28.85-46.69 42.38C85.25 110.1 76.01 130.4 68 149.5l188 140.8 188-140.8c-8.1-19.1-17.2-39.4-28.4-61.72h-.1c-7.2-14.53-27-31.1-47.1-42.98-2.2-1.32-4.5-2.58-6.7-3.8zm-119.6 66.2l13.9 27.6 13.7-27.5c-4.5 1.4-9.1 2.2-13.7 2.2s-9.3-.8-13.9-2.3zM75.11 177.3l19.77 49.3 61.52 11.6zm361.69 0l-81.2 60.8 61.5-11.5zm-380.52 1.5c-2.54 6.6-4.99 13.2-7.31 19.6l23.01 19.5zm399.42 0L440 217.9l23-19.5c-2.3-6.4-4.8-13-7.3-19.6zM42.53 216.6c-3.76 10.9-7.36 21.6-10.94 32.3 18.47 18.4 60.96 60.7 106.81 102.5 24 21.9 48.5 43.2 69.9 60 19.8 15.5 37.2 26.7 47.7 31.1 10.5-4.4 27.9-15.6 47.7-31.1 21.4-16.8 45.9-38.1 69.9-60 45.8-41.8 88.3-84.1 106.8-102.5-3.6-10.7-7.2-21.5-11-32.3L256 397.1zM106.5 247l101.6 86-26-71.7zm299 0l-75.8 14.3-26.2 72zm-199 28.6l19 52.2 19.6-23.2zm98.8.2l-38.5 28.8 19.6 23.2zM45.76 288.3V335h18v-29.2c-6.37-6.1-12.46-12.1-18-17.5zm420.44 0c-5.5 5.4-11.6 11.4-18 17.5V335h18zM256 319.7L229.4 351l26.6 22.5 26.4-22.4zm-143.4 32.5V402h18v-33.3c-1.5-1.3-2.9-2.7-4.4-4-4.6-4.2-9.1-8.3-13.6-12.5zm286.4.3c-4.4 4.1-8.8 8.2-13.2 12.2-1.6 1.5-3.2 2.9-4.8 4.4V402h18zm-219.2 59.1v40.7h18v-26.2c-.2-.2-.4-.3-.6-.5-5.6-4.4-11.5-9.1-17.4-14zm152.2.1c-5.9 4.9-11.6 9.5-17.2 13.9-.3.2-.5.4-.8.6v26.1h18zm-85 46.7v27.4h18v-27.4c-2.1.9-4.2 1.7-6.2 2.4l-2.8 1-2.8-1c-2-.7-4.1-1.5-6.2-2.4z"></path></svg>