<svg stroke="currentColor" fill="currentColor" stroke-width="0" viewBox="0 0 512 512" height="1em" width="1em" xmlns="http://www.w3.org/2000/svg"><path d="M195.078 81.106a72.32 72.32 0 0 0-4.875.144c20.211 18.922 90.405 54.51 115.96 67.815.566 6.98 4.585 13.445 9.626 18.35a40.955 40.955 0 0 0 8.951 5.618 36.729 36.729 0 0 0 11.121 3.114c39.043-7.876 79.358-20.672 91.674-40.938-26.172 7.951-64.972 20.712-76.94 11.75 10.764-11.26 66.873-25.417 99.874-34.89-33.286-5.368-67.09-3.996-94.844 1.15-8.986-11.726-37.958-6.492-40.58 1.076-43.533-21.561-93.918-33.137-119.967-33.19zm-72.002 4.12a62.517 62.517 0 0 0-2.113.007C83.334 85.964 42.866 120.307 21 172.24c62.03-24.275 107.601-13.472 127.008 50.608 17.565 58.001 20.151 72.474 37.605 90.674 5.596-.823 11.045-1.271 16.336-1.319 11.296-.1 21.9 1.556 31.834 4.932 7.502 2.55 14.56 6.053 21.232 10.4 31.198-13.47 51.025-65.112 51.586-64.447.517.613-8.556 52.854-37.365 75.49.694.628 1.386 1.26 2.07 1.908 37.534-5.482 46.148-27.539 95.938-46.64 36.044-13.828 90.576 8.131 117.07 57.414 8.86-21.59 19.38-105.537-44.095-138.588-55.477 20.318-92.092 27.083-131.909 29.553-2.828-10.308 10.185-38.304 16.522-49.948a58.814 58.814 0 0 1-26.553-16.79c-13.189 17.134-43.243 50.162-56.353 48.34-40.633-18.251-60.322-49.021-60.93-100.151-15.404-26.37-36.115-38.139-57.92-38.45zm78.957 244.932a94.728 94.728 0 0 0-7.232.352c-7.85 12.626-21.201 21.432-33.524 33.387-13.017 2.469-28.692-4.616-43.332-7.98 5.554 7.889 16.231 17.695 31.723 18.233-10.327 5.87-21.318 10.866-34.403 13.102 14.893 3.369 27.772 5.36 39.61-2.998l-11.053 24.88c6.803-2.052 13.433-5.372 19.47-12.95 7.79 3.006 17.858 4.384 28.475.095-7.337 9.633-15.61 18.732-26.834 26.147 14.966-2.992 27.568-6.43 35.375-18.973l-.963 27.442c8.26-7.014 15.099-16.496 15.489-37.17 18.54-12.41 30.418-29.978 39.662-44.164-4.779-4.05-9.7-7.476-14.82-10.256-10.114 15.388-21.978 32.425-39.512 42.344l.135.238-.78-.412c-8.367 6.232-20.49 7.628-32.45 9.23 2.213-3.659 4.332-8.02 6.323-13.293l-.062-.078c12.52-11.941 32.194-23.737 41.455-46.32a82.068 82.068 0 0 0-12.752-.856z"></path></svg>