<svg stroke="currentColor" fill="currentColor" stroke-width="0" viewBox="0 0 512 512" height="1em" width="1em" xmlns="http://www.w3.org/2000/svg"><path d="M18 18v26.697C50.28 79.223 86.162 119.62 121.27 154.73c7.474 7.472 14.906 14.672 22.29 21.577.626-15.512 2.587-30.3 6.32-43.92-1.05-1.043-2.097-2.06-3.15-3.116C112.02 94.566 75.78 53.63 42.343 18H18zm451.656 0C436.22 53.63 399.978 94.565 365.27 129.27c-1.053 1.056-2.1 2.074-3.15 3.117 3.733 13.62 5.694 28.408 6.32 43.92 7.384-6.905 14.815-14.105 22.29-21.578C425.837 119.62 461.72 79.222 494 44.696V18h-24.344zM256 73c-37.004 0-59.39 12.048-73.865 31.926-14.475 19.878-20.815 48.9-20.815 82.76 0 32.733 12.526 74.317 31.2 106.765 18.674 32.45 43.356 54.31 63.48 54.31 20.124 0 44.806-21.86 63.48-54.31 18.674-32.447 31.2-74.03 31.2-106.762 0-33.86-6.34-62.884-20.815-82.762C315.39 85.048 293.005 73 256 73zm0 33.84c28.723 0 52.2 23.476 52.2 52.2 0 28.722-23.477 52.2-52.2 52.2-28.723 0-52.2-23.478-52.2-52.2 0-28.724 23.477-52.2 52.2-52.2zm0 18c-18.995 0-34.2 15.204-34.2 34.2 0 18.994 15.205 34.2 34.2 34.2 18.995 0 34.2-15.206 34.2-34.2 0-18.996-15.205-34.2-34.2-34.2zm0 163.8a17.28 17.28 0 0 1 17.28 17.28A17.28 17.28 0 0 1 256 323.2a17.28 17.28 0 0 1-17.28-17.28A17.28 17.28 0 0 1 256 288.64zm-21.295 73.817c-1.627 12.586 15.293 28.578 23.174 34.924 13.667 11.006 17.264 17.432 17.57 28.745-1.237 20.46-24.713 30.12-40.116 22.61-10.508-4.9-14.115-13.667-18.064-26.34-2.847-9.13-8.66-17.694-16.848-23.45-6.236-4.133-14.468-11.77-21.254-5.674-4.812 8.384 5.022 12.23 9.338 21.86.937 5.91.795 9.66.865 13.84.095 16.42 7.29 59.422 66.314 60.977 35.535.936 64.83-31.247 66.322-62.418.21-4.415 1.247-47.05-44.97-64.967-6.754 2.702-13.774 4.197-21.036 4.197-7.355 0-14.46-1.534-21.295-4.303z"></path></svg>