<svg stroke="currentColor" fill="currentColor" stroke-width="0" viewBox="0 0 512 512" height="1em" width="1em" xmlns="http://www.w3.org/2000/svg"><path d="M257.406 17.188c-25.61 0-46.22 20.72-46.22 46.593 0 25.875 20.61 46.595 46.22 46.595s46.25-20.72 46.25-46.594c0-25.872-20.64-46.593-46.25-46.593zm122.78 37.937l-78.31 58.625c2.665 5.776 4.776 12.026 6.25 18.656l69-51.656 3.062-25.625zm-255.342 1.28l8.875 27.407 64.186 39.376c2.513-5.943 5.514-11.462 8.938-16.47l-82-50.312zM398.47 59.47l-3.095 26.28 41.438 52.625c4.674-4.206 10.216-7.468 16.312-9.47L398.47 59.47zm-291.94 1l-51.718 80c6.345 1.322 12.192 3.976 17.282 7.655l41.844-64.72-7.407-22.936zm111.94 55.5c-7.12 10.803-12.285 24.91-13.907 40.686-2 19.438 1.785 37.464 9.062 50.563 7.277 13.098 17.574 20.998 29.28 22.218 11.708 1.22 23.405-4.372 33.19-15.688 9.783-11.316 17.156-28.218 19.155-47.656 1.74-16.923-.89-32.787-6.406-45.25-9.327 5.225-20.04 8.22-31.438 8.22-14.59 0-28.083-4.874-38.937-13.095zm248.75 29.374c-14.947 0-26.876 11.93-26.876 26.875s11.93 26.874 26.875 26.874 26.842-11.93 26.842-26.875c0-14.947-11.897-26.876-26.843-26.876zM45.56 158.22c-14.946 0-26.874 11.896-26.874 26.843 0 14.946 11.928 26.875 26.875 26.875 14.946 0 26.843-11.93 26.843-26.875 0-14.947-11.897-26.844-26.844-26.844zM212.5 230.03c-10.02 7.32-16.327 17.48-16.53 27.532-.185 9.06 3.95 16.745 11.655 22.625 7.705 5.88 19.014 9.51 32.03 8.75 26.036-1.52 46.228-20.007 46.595-38.125.148-7.302-2.523-13.71-7.594-19-10.786 8.85-23.713 13.758-37.28 12.344-11.08-1.154-20.883-6.343-28.876-14.125zm69.906 62.5c-9.156 6.97-20.466 11.91-32.72 14.033l47.783 81.125 15.874-13.625-30.938-81.532zm-81.687 5.564l-9.595 91.78 18.53 13.345 24.532-95.5c-12.492-.33-24.01-3.736-33.468-9.626zm125.124 89.844l-15.72 13.5 65.22 51.03c2.495-9.733 8.156-18.518 16.156-24.78l-65.656-39.75zm-142.47 19.375l-55.905 29.75c4.933 6.162 8.355 13.66 9.53 22 .09.648.156 1.29.22 1.937l64.56-40.406-18.405-13.28zm235.907 29.437c-.773.01-1.562.048-2.342.125-1.784.176-3.558.514-5.344 1.063-14.29 4.384-22.197 19.273-17.813 33.562 4.385 14.29 19.275 22.197 33.564 17.813 14.29-4.385 22.196-19.274 17.812-33.563-3.596-11.72-14.268-19.132-25.875-19zm-327 1.78c-1.355-.013-2.736.087-4.124.283-14.8 2.084-24.928 15.543-22.844 30.343 2.085 14.8 15.544 24.928 30.344 22.844 14.8-2.084 24.928-15.544 22.844-30.344-1.824-12.95-12.355-22.316-24.875-23.062-.447-.027-.892-.058-1.344-.063z"></path></svg>