<svg stroke="currentColor" fill="currentColor" stroke-width="0" viewBox="0 0 512 512" height="1em" width="1em" xmlns="http://www.w3.org/2000/svg"><path d="M248.8 31.83c-9.2.01-17.1 4.28-25.4 12.96-4.6 4.87-9.1 11.11-13.5 18.27 18.4 2.52 34.9 4.13 44.2 3.63 8.3-.45 20.7-2.89 33.9-6.1-4.8-6.42-9.6-12.05-14.4-16.5-8.8-8.23-17.1-12.26-24.8-12.26zm179 39.08c-8.6-.15-13.8 2.83-19.2 8.94-5.3 6.12-10.1 15.66-14.5 26.55-8.8 21.9-15.7 49.1-34.7 65.3l-8.8 7.5-5.1-10.5c-10.1-20.7-21.5-46.3-33.9-69.74-4.2 3.04-8.5 5.84-12.9 8.54 3.7 5 6 10.9 6 17.4 0 11.3-6.9 20.8-16.2 27-9.3 6.2-21.3 9.6-34.4 9.6-13.1 0-25.1-3.4-34.4-9.6-9.3-6.2-16.2-15.7-16.2-27 0-5.5 1.7-10.6 4.4-15.1-5.7-2.2-11.6-4.5-17.4-6.9-10.6 25.3-20.3 53-30.7 75.7l-1.9 4-4.4 1c-6.9 1.5-19.9 8.2-33.6 18-13.6 9.9-28.38 22.7-41.04 36.2-12.67 13.5-23.24 27.7-28.72 39.6-2.74 5.9-4.16 11.2-4.34 15.2-.17 4 .63 6.5 2.45 8.8 4.29 5.3 7.53 6.4 12.26 6.4 4.73 0 11.27-2.2 18.63-6.1 14.72-7.8 31.86-21.9 49.56-30.4l16.8-8.2-4.1 18.3c-15.3 67.4-28.7 119-76.69 211.3l390.79 1.7c-21-100-28.6-134.9-66.2-235.3l-2-5.4 4-4.1c17-17.5 40.3-65.6 50.1-107.5 5-20.9 6.6-40.5 4-53.32-1.3-6.4-3.5-10.87-6.2-13.57-2.6-2.69-5.7-4.2-11.4-4.3zm-110.5.46c-21.3 6.2-45.1 12.38-62.2 13.3-19.4 1.04-52-3.9-82.1-9.19.5.2.8.39 1.3.59 15.2 7.04 31.5 13.97 46 19.02 14.5 5.01 27.5 8.01 34.5 7.91 18.3-.3 35.3-9.97 51.8-22.78 3.6-2.83 7.1-5.83 10.7-8.85zM282 115.6c-8.4 3.2-17.3 5.2-26.8 5.4-8.7.1-18.5-1.9-29.3-5.1-3.1 3-4.4 6.1-4.4 9 0 3.9 2.4 8.2 8.2 12 5.7 3.8 14.5 6.6 24.4 6.6 9.9 0 18.7-2.8 24.4-6.6 5.8-3.8 8.2-8.1 8.2-12 0-3-1.4-6.2-4.7-9.3zm-14 62c17.9 0 34.3 4.7 46.7 12.8 12.5 8.2 21.4 20.5 21.4 34.9 0 14.4-8.9 26.7-21.4 34.9-12.4 8.1-28.8 12.8-46.7 12.8-17.9 0-34.3-4.7-46.7-12.8-12.5-8.2-21.4-20.5-21.4-34.9 0-14.4 8.9-26.7 21.4-34.9 12.4-8.1 28.8-12.8 46.7-12.8zm0 18c-14.7 0-27.9 4-36.9 9.9-5.2 3.4-8.9 7.3-11 11.3 16.2-5.6 30.6-8.9 45.6-9.3 15.4-.4 31.3 2.4 50.1 9.1-2.1-3.9-5.7-7.7-10.9-11.1-9-5.9-22.2-9.9-36.9-9.9zm1.1 29.1c-15.2-.1-29.5 3.9-48 10.8 2.2 3.4 5.5 6.7 10 9.6 9 5.9 22.2 9.9 36.9 9.9s27.9-4 36.9-9.9c4.5-2.9 7.8-6.2 10-9.6-18.4-7.3-32.5-10.7-45.8-10.8zm9.6 78.5c28.4 0 54.3 7.9 73.6 21.5 19.3 13.5 32.2 33.1 32.2 55.3 0 22.2-12.9 41.8-32.2 55.3-19.3 13.6-45.2 21.5-73.6 21.5-28.4 0-54.3-7.9-73.6-21.5-19.3-13.5-32.2-33.1-32.2-55.3 0-22.2 12.9-41.8 32.2-55.3 19.3-13.6 45.2-21.5 73.6-21.5zm0 18c-25 0-47.5 7.1-63.3 18.2-13.7 9.6-22.2 21.8-24.1 34.9 29.3-24.8 59.3-36.4 89.2-36.1 28.8.3 56.8 11.3 84.2 30.1-3.3-10.8-11.1-20.8-22.7-28.9-15.8-11.1-38.3-18.2-63.3-18.2zm1.6 35c-28-.3-56.3 11.3-86.1 39.6 3.8 9.2 11.1 17.7 21.2 24.8 15.8 11.1 38.3 18.2 63.3 18.2s47.5-7.1 63.3-18.2c12-8.4 19.9-18.7 23-29.9-28.9-22.1-57.1-34.2-84.7-34.5z"></path></svg>