<svg stroke="currentColor" fill="currentColor" stroke-width="0" viewBox="0 0 512 512" height="1em" width="1em" xmlns="http://www.w3.org/2000/svg"><path d="M264.438 19.406c-44.538 0-85.325 25.498-115.563 68.313-30.238 42.814-49.344 102.72-49.344 169.06 0 66.342 19.107 126.218 49.345 169.033 30.238 42.814 71.025 68.312 115.563 68.312 5.567 0 11.063-.407 16.5-1.188h-5.22v-101.03c-3.053-.113-6.146-.188-9.28-.188-42.64 0-77.884 10.712-89.594 25.06-12.247-31.8 31.85-44.782 79.937-45.28 3.207-.033 6.432-.013 9.658.063 13.398.317 29.624 1.364 44.812 3.812v-96.5c-7.803-4.306-13.24-10.104-14.5-17.156 34.81 11.84 95.232 3.377 105.28-3.533-6.275 26.1-43.588 33.29-72.092 27.313v93.875c15.12 4.21 26.88 10.5 29.937 19.844H360v.374c.856 2.857.906 5.995 0 9.437V450c7.074-7.285 13.763-15.357 20-24.188 30.238-42.814 49.313-102.69 49.313-169.03 0-66.342-19.075-126.248-49.313-169.063-30.238-42.816-71.025-68.314-115.563-68.314zM180.03 196.094c31.532 0 57.757 21.39 63.345 49.656-12.986-12.15-36.66-22.038-63.72-25.188-21.95-2.554-41.682-.146-55.28 5.72 11.178-18.06 31.913-30.188 55.656-30.188zm-63.093 73.312c13.18 11.733 36.34 21.21 62.72 24.28 22.427 2.612 42.504.024 56.124-6.123-11.164 18.15-31.94 30.375-55.75 30.375-31.1 0-57.034-20.832-63.093-48.532zm177.47 123.906v96.875c16.583-4.4 32.347-12.38 46.906-23.5v-61.093c-11.7-5.73-28.008-10.08-46.907-12.28z"></path></svg>