<svg stroke="currentColor" fill="currentColor" stroke-width="0" viewBox="0 0 512 512" height="1em" width="1em" xmlns="http://www.w3.org/2000/svg"><path d="M244 439.765l-22.63 3 8.5-148.15a68.48 68.48 0 0 0 22.33 6.7l-7.94 138.45zm28.5 7l4.37 1.32 18.3.65v-153.58a70.07 70.07 0 0 1-22.68 6.29v145.35zm-255.26 45.6h473.52l-56.07-32.23-37.84-9.11-46.68-19.3-36.71 34.72-39.41-1.4-27.86-8.41-41.34 5.41-25-15.92-10.78-18.22L85 447.515l-55.34 20.32zm148.05-334.53c-3.757-4.877-10.72-5.866-15.686-2.227-4.966 3.638-6.122 10.575-2.604 15.627l12 16.45 16.21-16.32zm35.71 48.72l-15.6-21.29-16.17 16.3 15.19 20.8 15.37-14.81a8.55 8.55 0 0 1 1.21-1zm25.67 35L211 220.285l-16.44 15.88 16.67 22.76c2.46-6.81 7.9-12.78 15.42-17.32zm-24.9-146.42c-2.193-5.775-8.606-8.733-14.422-6.651-5.817 2.081-8.897 8.436-6.928 14.291l14.23 39.78 20.64-9.62zm16.83 114.35l10.91 30.48a67.76 67.76 0 0 1 21.67-6.74l-11.43-31.86zm2.4-60.42l-20.64 9.62 12.46 34.83 21.18-8.15zm30 32.69l22.62-1.87-1.72-38.52-22.64 1.26zm.75 17l1.51 34.25a83.52 83.52 0 0 1 22.72.42l-1.61-36.54zm17.36-120.58c-.433-6.13-5.672-10.8-11.812-10.53-6.14.272-10.947 5.385-10.838 11.53l2.05 46.5 22.64-1.31zm82.54 20.19c1.945-5.83-1.109-12.149-6.886-14.247-5.777-2.098-12.174.788-14.424 6.507L318 124.575l21.15 8.2zm-18.29 50.4l-21.15-8.2-15.62 43 21.41 7.45zm-55 85.06a63.82 63.82 0 0 1 21.28 7.84l12.59-34.67-21.42-7.45zm106.42-21c5.037-3.722 6.102-10.823 2.38-15.86-3.722-5.037-10.823-6.102-15.86-2.38l-27.18 20.08 14.41 17.55zm-68.65 50.72l28.7-21.21-14.41-17.55-26.69 19.72c6.79 5.16 11.27 11.71 12.38 19.01zm-53 21.46c20.78 0 36.31-9.38 36.31-17.76s-15.53-17.76-36.31-17.76-36.31 9.38-36.31 17.76 15.47 17.72 36.26 17.72z"></path></svg>