<svg stroke="currentColor" fill="currentColor" stroke-width="0" viewBox="0 0 512 512" height="1em" width="1em" xmlns="http://www.w3.org/2000/svg"><path d="M332.8 19.82l-18 1.8c.8 7.85 1 15.59.8 23.25-18-11.24-49.6-27.9-62-14.45-10 10.84 16.5 41.03 16.5 41.03s-28.6 7.4-29.4 19.04c-.8 12.71 29.2 24.71 29.2 24.71s-49.6 13.2-43.2 29.4c7.1 17.7 43.5 4.7 65.3-5-8.8 21.4-19 42.6-28.7 64.1 6.2 1.3 12 3 17.5 5 26.7-58.4 59-118.58 52-188.88zm95.6 6.53C360.3 74.06 325.3 145.8 296.9 215.9c5.5 3.1 10.6 6.8 15.1 10.8 4.6-11.3 9.3-22.7 14.3-34 18.1 7.4 94.9 36.6 113 7.3 12.1-19.5-35.4-59.1-35.4-59.1s66.1 19.4 73.2-4c7-23.1-57.9-43.73-57.9-43.73s65.4 5.72 64.2-16.31c-1.3-23.78-43.4-23.17-70.4-15 8-7.38 16.6-14.33 25.8-20.77l-10.4-14.74zm-210 191.05c-1.9 0-3.9 0-5.9.1-8.3.2-23 6.8-38.7 19.7-1.4 1.1-2.8 2.3-4.2 3.6 12.1 19.6 36.2 36.7 63.7 47.5 27.4 10.8 57.9 15.5 81.2 12.8 4.5-9.3 5.9-18.6 3.8-28.7-3.9-19-14.1-32.2-31.6-41.6-15.2-8.1-36.3-12.8-62.6-13.3-1.9 0-3.8-.1-5.7-.1zm-62.1 36.1c-7.9 8.2-16 17.7-23.7 28.2 0 15.4 8.8 27.8 16.8 37.7-13.6-3.7-21.5-7.8-26.9-23.2-26.64 40.8-47.28 92.9-47.81 145.4 37.61-18.5 78.81-36.1 116.41-53.8-23.9-3.2-44.3-12.9-61.8-27.2 35.4 10 62.6 14.4 98.9 8.9 4.5-2.4 9-4.7 13.3-7.1 6.7-3.7 13.1-7.5 19.2-11.3-23.2-.7-50.4-4.8-69.4-14.8 25.6 1.3 76.6-1.7 95.9-3.8 5.1-4.2 9.6-8.4 13.6-12.6-23.6.1-49.7-5.2-74.1-14.9-28.6-11.3-55-28.5-70.4-51.5zM56.66 440.6c-10.59 13.9-19.33 28.3-28.1 41.8l15.1 9.8c4.78-7.4 9.44-14.8 14.23-22h-.07l-.81-13.8c-.31-5.3-.42-10.6-.35-15.8z"></path></svg>