<svg stroke="currentColor" fill="currentColor" stroke-width="0" viewBox="0 0 512 512" height="1em" width="1em" xmlns="http://www.w3.org/2000/svg"><path d="M159.3 50.48a16 16 0 0 0-16 16 16 16 0 0 0 7.6 13.61c-1.9 17.76-6.4 37.01-14.1 50.61-5.8 10.2-12.4 17.1-21.4 19.7a18.5 18.5 0 0 0 1.5-7.3 18.5 18.5 0 0 0-18.5-18.5 18.5 18.5 0 0 0-18.5 18.5 18.5 18.5 0 0 0 15.16 18.2l.45 1.8c1.1 24.6.61 54.4-6.85 74.8-3.84 10.6-9.23 18.2-16.5 22.6-4.64 2.8-10.34 4.6-17.77 4.5a20.57 20.57 0 0 0 3.38-11.3 20.57 20.57 0 0 0-20.57-20.6 20.57 20.57 0 0 0-20.57 20.6A20.57 20.57 0 0 0 33.68 274l53.65 192.4 3.3-.9 7.48-27.4L54.87 283c10.19-.1 19.13-2.5 26.61-7.1 11.82-7.1 19.32-18.8 24.12-31.8 2.3-6.3 4-12.9 5.2-19.8l21.8 87.2 9.6-35.3-26.8-107.6c16.4-3.2 29.1-14.8 37.1-29.1 2.4-4.2 4.4-8.7 6.2-13.3l7.7 61.4 12.4-45.4-8.1-64.54a16 16 0 0 0 4.6-11.18 16 16 0 0 0-16-16zm193.4 0a16 16 0 0 0-16 16 16 16 0 0 0 4.6 11.18l-8.1 64.54 12.4 45.4 7.7-61.4c1.8 4.6 3.8 9.1 6.2 13.3 8 14.3 20.7 25.9 37.1 29.1l-26.8 107.6 9.6 35.3 21.8-87.2c1.2 6.8 2.9 13.5 5.2 19.8 4.8 13 12.3 24.7 24.1 31.8 7.5 4.6 16.4 7 26.6 7.1l-43.2 155 7.5 27.5 3.3.9L478.3 274a20.57 20.57 0 0 0 17.1-20.3 20.57 20.57 0 0 0-20.6-20.6 20.57 20.57 0 0 0-20.6 20.6 20.57 20.57 0 0 0 3.4 11.3c-7.5.1-13.1-1.7-17.8-4.5-7.2-4.4-12.6-12-16.5-22.6-7.4-20.4-7.9-50.3-6.8-74.9l.4-1.7a18.5 18.5 0 0 0 15.2-18.2 18.5 18.5 0 0 0-18.5-18.5 18.5 18.5 0 0 0-.1 0 18.5 18.5 0 0 0-18.4 18.5 18.5 18.5 0 0 0 1.5 7.3c-9-2.6-15.6-9.5-21.4-19.7-7.7-13.6-12.2-32.85-14.1-50.61a16 16 0 0 0 7.6-13.61 16 16 0 0 0-16-16zM198.9 137l-91.1 334h296.4l-91.1-334H198.9z"></path></svg>