<svg stroke="currentColor" fill="currentColor" stroke-width="0" viewBox="0 0 512 512" height="1em" width="1em" xmlns="http://www.w3.org/2000/svg"><path d="M499.78 16.125L477.157 22.5l-151.47 42.53-6.592 1.876-.22 6.844-.905 29.344-18.814 5.03-6.656 1.75-.28 6.907-.97 24.657-134.125 133.594-2.875 2.876.125 4.063c.71 20.398-14.288 31.957-22.75 31.217-9.973-.872-15.33-4.037-18.875-8.437-3.544-4.4-5.546-10.93-5.5-19.656l.125-24.156-16.344 17.78c-17.327 18.843-26.697 42.824-26.843 66.97l-.062 9.406h9.406c12.214.003 24.46 2.815 35.72 8.344l-4.063 14.468c-20.925 17.263-41.855 40.54-52.968 59.97-1.636 2.857-2.977 5.514-4.064 7.968L16.25 454.75l-1.5 41.656 41.656-1.5 9-32.187c2.383-1.07 4.96-2.36 7.72-3.94 19.338-11.062 42.48-31.857 59.718-52.686l14.47-4.063c5.345 11.147 8.143 23.224 8.186 35.064l.03 9.312h9.314c24.72.007 49.722-9.366 68.844-27.53l13.906-13.22-19-2.78c-10.576-1.556-18.374-5.412-23.03-9.75-4.66-4.34-6.335-8.744-5.876-13.626 1.054-11.204 4.174-16.044 8.437-19.063 4.263-3.018 11.267-4.52 21.094-4.218l4.06.124 2.845-2.875 136.313-136.314 18.968-.47 6.938-.186 1.844-6.688 4.437-16.093 32.906-1.44 6.75-.28 1.845-6.53L491.75 36.624l8.03-20.5zM466.157 45L429.97 173.906 397 175.312l-6.78.282-1.814 6.594-4.406 16-15.75.375-3.72.093-2.655 2.625-136.28 136.314c-9.812.1-19.142 1.668-27.064 6.812l.69-19.25 144.343-144.344 26.437-1.03L374.625 163l1.844-6.656 6.905-.188 32.25-.937 22.938-82.595-82.594 22.938L355 125.5l-.22 6.875-6.655 1.844-19.03 5.186-.876 30.344-142.25 142.22-21.19.75c4.803-7.545 7.843-16.86 8.22-27.158l134-133.437 2.625-2.594.125-3.655.875-21.47 18.875-5.03 6.72-1.813.186-6.937.938-29.438L466.156 45zM93.03 307.78c1.38 3.076 3.004 6.015 5.157 8.69 4.966 6.163 11.98 10.684 20.5 13.217l-4.343 15.5c-9.857-4.416-20.287-7.18-30.844-8.25 1.23-10.044 4.448-19.957 9.53-29.156zm87.25 23.095l-1.53 42.97-57.5 16.092 16.063-57.53 42.968-1.532zm2.657 61.22c2.006 5.516 5.43 10.576 9.875 14.717 3.934 3.665 8.684 6.685 14.032 9.094-10.278 6.204-21.67 9.998-33.188 11.28-1.086-10.328-3.84-20.554-8.125-30.248l17.407-4.844z"></path></svg>