<svg stroke="currentColor" fill="currentColor" stroke-width="0" viewBox="0 0 512 512" height="1em" width="1em" xmlns="http://www.w3.org/2000/svg"><path d="M169 21v62h174V21H169zm17.4 82l-2.5 5c-2.3 4.8-11.2 12.7-23.4 20.4-12.3 7.7-27.7 15.6-42.7 23.7-15.1 8-29.87 16.1-41.42 24.7C64.82 185.4 55 194.8 55 208v228c0 20.5 15.09 35 30.54 43.8C101 488.6 117 493 128 493h256c11 0 27-4.4 42.5-13.2C441.9 471 457 456.5 457 436V208c0-13.2-9.8-22.6-21.4-31.2-11.5-8.6-26.3-16.7-41.4-24.7-15-8.1-30.4-16-42.7-23.7-12.2-7.7-21.1-15.6-23.4-20.4l-2.5-5H186.4zm10.6 18h118c6.1 8.7 15.8 15.6 27 22.6 13.2 8.3 28.8 16.4 43.8 24.3 14.9 8 29.1 15.9 39.1 23.3 9.9 7.4 14.1 14 14.1 16.8H73c0-2.8 4.18-9.4 14.12-16.8 9.95-7.4 24.18-15.3 39.08-23.3 15-7.9 30.6-16 43.8-24.3 11.2-7 20.9-13.9 27-22.6zm27 151h64v48h48v64h-48v48h-64v-48h-48v-64h48v-48z"></path></svg>