<svg stroke="currentColor" fill="currentColor" stroke-width="0" viewBox="0 0 512 512" height="1em" width="1em" xmlns="http://www.w3.org/2000/svg"><path d="M149.2 30L29.08 253.2 75.85 487h36.75L66.92 258.8 170.8 66h170.4l103.9 192.8L399.4 487h36.8l46.7-233.8L362.8 30H149.2zM144 144l15.4 77.2c3.5 1 7 1.9 10.5 2.8h.2c-2-10.2-3.1-20.9-3.1-32 0-8 .6-15.8 1.6-23.4L144 144zm224 0l-24.6 24.6c1 7.6 1.6 15.4 1.6 23.4 0 11.1-1.1 21.8-3.1 32h.2c3.5-.9 7-1.8 10.5-2.8L368 144zm-151 6.6c-2 0-4 .1-6 .3-8 .9-15.6 3.3-20.6 5.8-.4.2-.8.5-1.2.7-2.7 10.8-4.2 22.4-4.2 34.6 0 29.2 8.5 55.5 21.8 74 13.2 18.5 30.5 29 49.2 29 18.7 0 36-10.5 49.2-29 13.3-18.5 21.8-44.8 21.8-74 0-12.2-1.5-23.8-4.2-34.6-.4-.2-.8-.5-1.2-.7-5-2.5-12.6-4.9-20.6-5.8-2-.2-4-.3-6-.3-6-.1-12 .6-16.9 2.2-6.6 2.2-11.3 5.6-14 11.2l-8.1 16.1-8.1-16.1c-2.7-5.6-7.4-9-14-11.2-4.9-1.6-10.9-2.3-16.9-2.2zm22.6 45l12.8 12.8c-9 8.9-19.1 14.7-30.1 14.9-11 .1-21.4-5.6-30.7-15l12.8-12.6c7.2 7.3 12.8 9.6 17.7 9.6 4.8-.1 10.5-2.6 17.5-9.7zm68 0l12.8 12.8c-9 8.9-19.1 14.7-30.1 14.9-11 .1-21.4-5.6-30.7-15l12.8-12.6c7.2 7.3 12.8 9.6 17.7 9.6 4.8-.1 10.5-2.6 17.5-9.7zm-201.7 26.1c3.9 30.5 20.8 55 45.4 73 16.9 12.4 37.3 21.5 59.2 26.8l7.9-19.7c-10-6.3-18.9-15-26.3-25.4-6.9-9.6-12.5-20.7-16.7-32.9-22.8-5.1-45.9-12.4-69.5-21.8zm300.2 0c-23.6 9.4-46.7 16.7-69.5 21.8-4.2 12.2-9.8 23.3-16.7 32.9-7.4 10.4-16.3 19.1-26.3 25.4l7.9 19.7c21.9-5.3 42.3-14.4 59.2-26.8 24.6-18 41.5-42.5 45.4-73zM218 243h76v18h-11.5L272 282l-10.5-21h-11L240 282l-10.5-21H218v-18zm-96.8 49.1l-18.4 3.7c-1.7 6.2-2.6 16.2-1.8 28.6.9 15.4 3.9 34.1 7.8 53.8 7.4 37.1 18.2 77.3 26.2 108.8h31l-14.9-134 17.8-2L184 487h63v-78h-11.8l-37.3-55.9 5.9-14.7c-23.1-5.9-44.8-15.7-63.1-29.1-7-5.2-13.6-10.9-19.5-17.2zm269.6 0c-5.9 6.3-12.5 12-19.5 17.2-18.3 13.4-40 23.3-63.1 29.1l5.9 14.7-37.3 55.9H265v78h63l15.1-136 17.8 2L346 487h31c8-31.5 18.8-71.7 26.2-108.8 3.9-19.7 6.9-38.4 7.8-53.8.8-12.4-.1-22.4-1.8-28.6l-18.4-3.7zm-156.1 17.4l-16.6 41.4 26.7 40.1h22.4l26.7-40.1-16.6-41.4c-6.8 2.3-13.9 3.5-21.3 3.5s-14.5-1.2-21.3-3.5z"></path></svg>