<svg stroke="currentColor" fill="currentColor" stroke-width="0" viewBox="0 0 512 512" height="1em" width="1em" xmlns="http://www.w3.org/2000/svg"><path d="M204.055 213.905q-18.12-5.28-34.61-9a145.92 145.92 0 0 1-6.78-44.33c0-65.61 42.17-118.8 94.19-118.8 52.02 0 94.15 53.14 94.15 118.76a146.3 146.3 0 0 1-6.16 42.32q-20.52 4.3-43.72 11.05c-22 6.42-39.79 12.78-48.56 16.05-8.72-3.27-26.51-9.63-48.51-16.05zm-127.95 84.94a55.16 55.16 0 1 0 55.16 55.15 55.16 55.16 0 0 0-55.16-55.15zm359.79 0a55.16 55.16 0 1 0 55.16 55.15 55.16 55.16 0 0 0-55.15-55.15zm-71.15 55.15a71.24 71.24 0 0 1 42.26-65v-77.55c-64.49 0-154.44 35.64-154.44 35.64s-89.95-35.64-154.44-35.64v74.92a71.14 71.14 0 0 1 0 135.28v7c64.49 0 154.44 41.58 154.44 41.58s89.99-41.55 154.44-41.55v-9.68a71.24 71.24 0 0 1-42.26-65z"></path></svg>