<svg stroke="currentColor" fill="currentColor" stroke-width="0" viewBox="0 0 512 512" height="1em" width="1em" xmlns="http://www.w3.org/2000/svg"><path d="M417.063 85.625c-35.503-.147-80.717 9.822-129.563 28.97-9.31-1.8-18.804-2.706-28.344-2.69-25.04.045-50.414 6.454-73.656 19.907-32.044 18.55-54.554 47.287-65.813 79.782-80.284 64.16-123.395 133.9-100.718 173.28 23.35 40.55 109.384 36.656 208.593-4.218 1.7-.7 3.417-1.403 5.125-2.125.622-.262 1.25-.514 1.875-.78 1.81-.765 3.62-1.554 5.437-2.344l1.563-.687c1.443-.633 2.895-1.29 4.343-1.94 19.712-8.812 39.79-19.016 59.844-30.624 15.83-9.162 30.907-18.77 45.156-28.656.394-.273.795-.54 1.188-.813.672-.465 1.33-.94 2-1.406 100.373-70.007 158.15-152.83 132.625-197.155-11.013-19.123-35.953-28.36-69.658-28.5zm-56.375 50c24.466-.44 42.61 5.846 50.437 19.438 8.373 14.54 3.594 35.145-11.22 57.937-3.086-9.146-7.093-18.13-12.092-26.813-11.72-20.35-27.54-36.846-45.782-49.093 6.543-.87 12.788-1.364 18.658-1.47zM111.75 269.905c1.397 22.12 7.76 44.257 19.563 64.75 5.088 8.838 10.948 16.957 17.437 24.314-27.663 1.7-48.293-4.418-56.78-19.158-9.82-17.05-1.558-42.433 19.78-69.906zm291.22 27.658c-25.755 21.322-55.33 41.912-87.876 60.75-31.97 18.504-63.966 33.663-94.75 45.28 36.843 10.142 77.578 6.073 113.28-14.593 35.833-20.74 59.75-54.215 69.345-91.438z"></path></svg>