<svg stroke="currentColor" fill="currentColor" stroke-width="0" viewBox="0 0 512 512" height="1em" width="1em" xmlns="http://www.w3.org/2000/svg"><path d="M196.336 18.547l39.486 92.598c15.428 5.19 30.466 4.96 46.135.003l34.246-92.6H196.336zM163.73 35.12l4.58 12.55c8.285 22.705 21.58 45.92 28.958 67.684 7.376 21.764 9.1 40.382-3.14 57.646-13.68 19.295-38.588 39.036-60.622 62.426S91.95 286.95 91.95 323.506c0 90.996 73.863 165.607 164.91 165.607 91.046 0 165.607-74.562 165.607-165.607 0-36.353-18.633-64.975-40.346-88.727-21.712-23.752-46.847-43.572-62.23-62.305-9.18-11.176-8.083-34.136-.88-58.948 7.202-24.812 19.265-50.037 25.908-65.34l5.67-13.066H330l-32.982 89.187c-4.628 21.963-4.8 43.92 8.43 60.03 17.494 21.302 42.586 40.852 62.88 63.052 20.295 22.198 35.45 46.107 35.45 76.116 0 80.852-66.064 146.92-146.92 146.92-80.853 0-146.22-66.015-146.22-146.92 0-29.948 15.754-53.275 36.47-75.266 20.72-21.99 46.04-41.55 62.263-64.43 16.084-22.685 13.952-48.6 6.29-72.304l-24.262-56.893c-.116-.265-.242-.538-.357-.802h.017l-7.97-18.69H163.73zm93.225 202.234c-29.526 0-56.244 4.575-74.752 11.5-9.254 3.462-16.414 7.55-20.732 11.37-3.928 3.476-5.263 6.203-5.474 8.42h-.267c0 15.347 7.808 29.99 20.916 41.887-.505-.217-1.025-.427-1.523-.65-10.727-4.78-19.682-10.378-26.387-16.952-2.23-2.187-4.24-4.532-5.937-7.02-7.48 12.14-12.415 25.588-12.415 41.14 0 69.77 56.745 127.132 126.517 127.132 69.772 0 127.13-57.36 127.13-127.13 0-15.723-4.923-29.484-12.39-41.93-1.802 2.782-4 5.39-6.466 7.808-6.705 6.574-15.66 12.17-26.387 16.953-.444.198-.908.385-1.356.58 13.06-11.885 20.837-26.5 20.837-41.817h-.354c-.21-2.216-1.546-4.943-5.475-8.418-4.317-3.82-11.477-7.91-20.73-11.37-18.51-6.926-45.23-11.5-74.755-11.5z"></path></svg>