<svg stroke="currentColor" fill="currentColor" stroke-width="0" viewBox="0 0 512 512" height="1em" width="1em" xmlns="http://www.w3.org/2000/svg"><path d="M255.9 63.99l-5.8.1h-.2l-4.1.16.5 16c-11.7.51-23.2 1.96-34.4 4.27l-3.4-15.82-5 1.26h-.2l-5.4 1.32h-.2l-5.4 1.44h-.2l-1.7.51 4.6 15.52c-11.3 3.31-22.2 7.49-32.6 12.45l-6.8-14.57-.5.32h-.1l-.1.1-4.9 2.42h-.2l-4.8 2.54-.1.1h-.1l-4.7 2.64-.1.1h-.1l-1 .61 8.2 13.84c-10.2 6-19.8 12.7-28.9 20.2l-10-12.5-.3.1-.1.1-.1.1-4.1 3.5-.1.1-.1.1-3.96 3.6-.1.1-.1.1-3.94 3.7-.1.1-.1.1-.95.9L105.3 141c-8.34 8.1-16.08 16.8-23.07 26.2l-12.96-10 .12.3-.1.1-.1.1-3.18 4.3-.1.1-.1.1-3.07 4.4-.1.1-.1.1-2.97 4.5-.1.1-.1.1-.79 1.3 13.85 8.6c-6.16 9.8-11.56 20-16.13 30.7l-14.52-6.3-.39.4v.2l-2.06 5.1-.1.1v.1l-1.94 5.1v.2l-1.82 5.2v.2l-.35 1 15.04 4.9c-3.66 11-6.46 22.3-8.34 34l-15.72-2.6-.37 1.7v.2l-.78 5.6v.2l-.65 5.7v.2l-.43 4.9 15.86 1.4c-.46 5.8-.7 11.5-.7 17.4h18C57.03 187 146 98.01 256 98.01S455 187 455 297h18c0-6.5-.3-12.9-.9-19.2l16-1.4-.3-3.1v-.2l-.7-5.7v-.2l-.8-5.6v-.2l-.6-3.5-15.8 2.7c-1.9-11.6-4.8-22.9-8.5-33.8l15.1-5.3-1.6-4.5v-.1l-.1-.1-1.9-5.1-.1-.1v-.1l-2.1-5.1v-.1l-.1-.1-.9-2.1-14.7 6.5c-4.6-10.7-10.1-21-16.3-30.7l13.4-8.8-2.8-4.3-.1-.1-.1-.1-3-4.4-.1-.1-.1-.1-3.1-4.3-.1-.1-.1-.1-1.2-1.7-12.8 9.8c-7-9.2-14.8-17.9-23.2-25.9l10.9-11.7-3.6-3.4v-.1l-.1-.1-4-3.6-.1-.1-.1-.1-4.1-3.4-.1-.1-.1-.1-1.8-1.5-10.1 12.7c-9-7.3-18.6-13.9-28.7-19.6l7.9-14.06-4.2-2.35h-.1l-.1-.1-4.8-2.54h-.2l-4.9-2.42-.1-.1h-.1l-2.1-.98-6.8 14.45c-10.4-4.89-21.3-8.99-32.5-12.2l4.2-15.48-5.4-1.44h-.2l-5.4-1.32h-.2l-5.4-1.18H302.8l-1.3-.25-3 15.56c-11.3-2.24-22.8-3.6-34.6-4.02l.5-15.98-2.3-.1h-.2l-5.8-.1h-.1zM256 146c-83.5 0-151 67.5-151 151s67.5 151 151 151 151-67.5 151-151c0-56-30.3-104.8-75.5-130.8L289.6 250l-15.8-8.8 41.5-83.1c-18.2-7.8-38.2-12.1-59.3-12.1z"></path></svg>