<svg stroke="currentColor" fill="currentColor" stroke-width="0" viewBox="0 0 512 512" height="1em" width="1em" xmlns="http://www.w3.org/2000/svg"><path d="M314.125 45.125l-36.28 10.97 26.717 38.874L340.844 84l-26.72-38.875zM260.47 61.313l-43 13 26.686 38.874 41.625-12.562-26.467-38.5 1.156-.813zm91.467 38.874l-36.28 10.938 27.374 39.813L379.314 140l-27.375-39.813zM120.47 107.78l-36.282 10.94 26.718 38.905 36.28-10.97-26.717-38.874zm176.405 9.032l-41.594 12.563 12.814 18.656c13.59 1.764 26.138 6.878 36.844 14.44l19.312-5.845-27.375-39.813zm-230.03 7.157l-43 12.968 26.718 38.906 41.562-12.563-26.47-38.5 1.19-.81zm323.56 32.155l-36.28 10.97 25.97 37.81 36.28-10.936-25.97-37.845zm-232.092 6.72L122 173.78l27.375 39.814 36.28-10.938-27.343-39.812zm99.125 3.186c-22.736 0-42.626 11.753-53.97 29.532l66.782 97.188c6.682-1.346 12.98-3.725 18.72-6.97l7.874 11.69 15.78-10.033-8.874-13.187c10.95-11.475 17.656-27.028 17.656-44.22 0-35.446-28.52-64-63.97-64zm77.906 6.75l-14.438 4.345c9.396 11.262 15.84 25.07 18.188 40.188l22.22-6.72-25.97-37.812zm-232.125 6.69L61.655 192l27.313 39.813 41.593-12.563-27.344-39.78zm324.28 30.655l-36.28 10.97 27.342 39.81 36.313-10.967-27.375-39.813zm-230.72 8.688l-36.31 10.968 25.968 37.782 36.312-10.968-25.97-37.78zm175.657 7.937l-32.625 9.875c-.35 4.407-1.012 8.72-2.03 12.906l20.312 29.595 41.687-12.563-27.342-39.812zm-230.75 8.688L100.094 248l25.97 37.813 41.592-12.594-25.97-37.783zm324.282 30.656l-36.314 10.97 26 37.81 36.313-10.937-26-37.843zm-232.095 6.687l-36.313 10.97 27.344 39.78 36.313-10.967-27.345-39.782zm177.03 9.94L369.22 295.31l25.967 37.813 41.688-12.563-25.97-37.843zm-232.124 6.686l-41.624 12.563 27.313 39.81 41.655-12.592-27.344-39.782zm152.314 8.47L301.78 316.5l37.314 58.656 29.312-18.625-37.312-58.655zm-58.75 30.874l-36.313 10.97 26 37.81 36.314-10.936-26-37.844zm-55.094 16.625l-41.656 12.594 25.97 37.81 41.655-12.56-25.97-37.845zm178.313 20.875c-36.29.507-64.44 29.054-70.375 64.844L368.5 404l9.72 14.406c-1.222 2.47-1.908 5.245-1.908 8.188 0 10.222 8.278 18.53 18.5 18.53 10.223 0 18.5-8.308 18.5-18.53 0-10.223-8.277-18.5-18.5-18.5-.335 0-.67.045-1 .062l-9.437-14.062 37.438-23.438c-9.068-3.125-17.876-4.523-26.25-4.406z"></path></svg>