<svg stroke="currentColor" fill="currentColor" stroke-width="0" viewBox="0 0 512 512" height="1em" width="1em" xmlns="http://www.w3.org/2000/svg"><path d="M151.21 26.775c-18.385 2.518-37.75 18.106-48.784 28.028l15.607 18.527c17.103-12.17 32.453-18.857 36.975-5.98 43.955 125.186 102.805 440.16 214.205 416.636 90.158-25.674 42.966-127.593 56.11-188.435 2.508-10.346 8.965-23.229 21.237-22.842 11.477.362 6.472-5.97 2.8-7.682-35.743-19.406-80.315-25.59-117.909-38.12-11.833-3.945-8.18 4.162-5.371 10.28 4.217 9.188 2.88 41.07 5.293 54.526a32.625 32.625 0 0 1 15.105-3.707c18.12 0 33 14.881 33 33 0 6.41-1.87 12.412-5.08 17.496 10.623 5.506 17.947 16.611 17.947 29.318 0 18.12-14.88 33-33 33-1.186 0-2.358-.067-3.513-.191-.511 4.767-2.01 8.147-4.81 9.693-10.326 3.204-45.397-73.375-83.014-161.382-6.54 3.924-12.608 5.998-19.31 5.212 17.077 46.103 35.722 91.756 58.396 136.98l-16.09 8.067c-45.888-91.528-75.273-184.003-107.725-277.195l16.998-5.92c2.355 6.764 4.67 13.496 6.996 20.24a27.134 27.134 0 0 1 10.82-5.945c-14.584-34.816-28.005-66.631-38.576-90.332-5.286-7.657-17.624-13.574-28.306-13.272zM89.522 67.424C77.28 80.24 66.187 94.324 58.33 106.93l7.474 8.806c8.001-5.403 22.698-19.026 37.948-31.418zm135.737 79.97c-5.1 0-9.041 3.942-9.041 9.042s3.941 9.04 9.04 9.04c5.1 0 9.042-3.94 9.042-9.04s-3.942-9.041-9.041-9.041zm12.707 34.122c-5.1 0-9.041 3.941-9.041 9.04 0 5.1 3.941 9.042 9.04 9.042 5.1 0 9.04-3.942 9.04-9.041 0-5.1-3.94-9.041-9.04-9.041zm13.904 36.752c-5.1 0-9.041 3.94-9.041 9.039 0 5.1 3.941 9.04 9.04 9.04 5.1 0 9.042-3.94 9.042-9.04s-3.942-9.04-9.041-9.04zm94.61 87.738c-8.392 0-15 6.609-15 15 0 8.39 6.608 15 15 15 8.39 0 15-6.61 15-15 0-8.391-6.61-15-15-15zm12.866 46.814c-8.39 0-15 6.61-15 15 0 8.391 6.61 15 15 15 8.391 0 15-6.609 15-15 0-8.39-6.609-15-15-15z"></path></svg>