<svg stroke="currentColor" fill="currentColor" stroke-width="0" viewBox="0 0 512 512" height="1em" width="1em" xmlns="http://www.w3.org/2000/svg"><path d="M329.1 466c-5.3 1-10.8 1-16.6 1l-.5 16h19.1zm-50.8-2-1.6 17c6.4 1 12.6 1 18.6 2l.6-17c-5.7 0-11.6-1-17.6-2zm93.6-5c-8 2-16.7 4-26.2 6l1.9 16c10.4-1 19.9-3 28.7-6zm15.7-6 4.4 16c5-2 9.7-4 14.1-7l7 12 14.4-8-7.7-13c4.1-3 7.7-7 10.8-11l16.4 14 10.6-13-17.5-14c2.1-4 3.8-8 5.1-12l26.3 4 2.7-16-25.9-5c.1-1.9.2-4 .1-6.2 0-2-.2-4.1-.4-6.2l25.8-6.2-3.9-16.2-25.5 6.1c-1.4-4.3-3.3-8.7-5.5-13l20.1-14-9.5-13.7-19.5 13.5c-3.3-4.4-7-8.8-11.2-13.1l13.2-19.4-13.8-9.4-11.8 17.4c-4.7-3.8-9.8-7.5-15.2-11.1l10.1-20.5-14.9-7.4-9.6 19.4c-5.6-3-11.5-5.9-17.7-8.6l7.1-18-15.5-6.2-7 17.9c-4.9-1.7-9.9-3.4-15-5l7.1-22-15.9-5.2-7.3 22.6c-5-1.3-10.2-2.5-15.5-3.6l4.7-30.3-16.5-2.5-4.6 29.7c-5.2-.9-10.5-1.7-15.9-2.4l5.1-31.5-16.4-2.7-5.3 32.4c-1.1-.1-2.2-.2-3.4-.3-4.8-.5-9.5-1-14.1-1.5l7.5-33.1L222 226l-7.8 34.3c-6-1.1-11.8-2.3-17.4-3.6l10.8-35.4-37-11.6-13.3 33.7c-6.2-2.9-12-5.9-17.2-9.1l15.4-28.6-14.7-7.9-14.5 26.9c-4.1-3.4-7.9-6.8-11.3-10.4l16-17.8-12.4-11.2-14.1 15.8c-3.6-5.5-6.47-11.1-8.63-16.9-19.13-51 18.93-107.8 81.93-111.3.9 6.2 2.8 12.8 5.9 19.5l74.9 21.4 3.4-8.8-31.8-11 5.4-15.7 32.6 11.2 6.6-16.6-31.4-16.4c-13-55.1-59.6-38.9-65.6-.3-2.5.1-5 .3-7.4.5L167.5 33 151 35l2.9 24.6c-4.2 1.1-8.3 2.3-12.3 3.8L132.2 42 117 48.7l9.5 21.7c-4.3 2.5-8.4 5.2-12.3 8.1l-13.7-18.1-13.3 10 14.5 19.2c-3.36 3.6-6.46 7.4-9.27 11.3L72.64 87.6l-9.31 13.8 20.6 13.9c-2.06 4.3-3.81 8.7-5.23 13.1l-26.13-6-3.74 16.3 26.24 6c-.59 4.5-.87 9-.81 13.6l-28.21 2.2 1.31 16.6 28.6-2.3c.78 4.1 1.83 8.1 3.16 12L51.44 201l7.6 14.8 26.73-13.6c2.12 3.9 4.56 7.8 7.31 11.6l-23.7 26.5 12.41 11.1 22.11-24.7c4.3 4.4 9.1 8.6 14.4 12.7l-17.5 32.5 14.6 8 16.8-31.1c5.8 3.6 12.2 6.9 19 10l-19.7 50 12 65.3v.2l10.4 56.7h-16.4l.3 17 36.1-1-1.8-10-11.5-62L192 272.6c5.9 1.5 12.1 2.8 18.5 3.9l-19.4 85 16.3 3.7 19.6-86.1c5.3.7 10.8 1.3 16.4 1.8.7 0 1.4.1 2.2.2l-11.5 70.4 16.5 2.7 11.5-71.3c5.5.7 10.9 1.5 16.1 2.4l-9.1 58.2 16.5 2.6 9-57.7c5 1.1 10 2.2 14.8 3.5l-3 62.5L302 430h-17.1v17h32.8l3.5-59.7 31.8-80.5c20.6 9.1 37.1 20 49.7 31.7 18.8 17.6 28.6 37.1 29.1 55.7.4 17.8-8.1 34.8-24.9 47.8-5.6 4-12 8-19.3 11zM154.1 339.4l32.8-107.1-6.5-2.1-31.6 80.2zm169.9-4.6 13.6-34.2c-3.8-1.4-7.7-2.7-11.8-4zM212.5 53.4c6.1 0 11.2 5 11.2 11.1 0 6.2-5.1 11.2-11.2 11.2-6.2 0-11.2-5-11.2-11.2 0-6.1 5-11.1 11.2-11.1z"></path></svg>