<svg stroke="currentColor" fill="currentColor" stroke-width="0" viewBox="0 0 512 512" height="1em" width="1em" xmlns="http://www.w3.org/2000/svg"><path d="M264.11 24.357l-8.022 39.594-28.2-25.122 9.624 25.83-41.48-16.638 41.52 39.777c-9.3 6.495-15.388 17.393-15.388 29.89 0 20.188 15.884 36.22 35.555 36.22 19.67 0 35.555-16.032 35.555-36.22 0-13.184-6.774-24.59-16.95-30.923l24.79-42.37-27.863 17.69-9.143-37.727zM101.776 67.01c-6.163 0-11.688 2.68-15.52 6.92l-39.075-5.62-2.66 18.5 30.865 4.438-58.524 41.41 41.198-8.55-8.027 35.87 25.852-21.962 18.504 34.08-.82-64.887c2.52 1.074 5.294 1.67 8.207 1.67 3.056 0 5.95-.668 8.567-1.845 13.156 16.754 30.582 30.514 56.65 39.242-7.11 6.444-14.18 12.935-21.303 19.362 48.007 2.993 81.67 49.824 90.275 97.98-6.853 1.445-13.963 3.815-21.307 7.2 28.664 57.982-21.168 129.288-33.297 164.05l5.285.192-34.125 41.227 37.58-18.92 1.53 36.722 19.288-27.903 26.69 28.128-14.5-57.935 6.728.244c.643-48.52 13.678-85.638 21.662-140.625 6.06 49.21 18.806 98.424 6.37 147.635l6.263-.746-14.87 52.83 26.693-28.128 19.287 27.9 1.53-36.72 37.582 18.917-32.63-39.276 5.202-.62c-7.866-38.65-40.228-108.407-19.248-165.44-6.265-4.002-13.042-6.928-20.272-8.65 12.328-43.742 46.016-86.71 85.612-94.556l-7.616-12.46c25.346-10.523 39.26-26.136 48.553-43.866 2.37.82 4.912 1.272 7.56 1.272 1.65 0 3.258-.174 4.81-.502l13.74 59.543 7.71-41.362 30.143 21.032-10.514-32.248 38.557-4.207-55.183-21.805 52.47-6.725-2.374-18.537-60.85 7.797c-4.22-5.62-10.94-9.254-18.51-9.254-9.673 0-17.955 5.94-21.41 14.37L305.49 91.76c2.952 5.537 4.987 11.636 5.908 18.084l47.694-6.112c-11.316 8.315-20.168 19.095-25.875 33.018l-5.9-9.65c-8.985 9.427-17.88 17.535-26.672 24.047-9.928 13.01-25.47 21.45-42.926 21.45-18.198 0-34.312-9.17-44.156-23.13-6.782-6.855-13.448-15.606-19.984-26.455-5.158 4.28-10.225 8.667-15.248 13.105-8.67-13.547-18.666-25.162-30.402-34.435l56.123 8.072c.93-6.43 2.966-12.51 5.914-18.03L120.62 78.87c-3.382-7.012-10.537-11.862-18.843-11.862zm112.88 203.81c0-.002 0-.005-.003-.007l-.002.01.006-.003z"></path></svg>