<svg stroke="currentColor" fill="currentColor" stroke-width="0" viewBox="0 0 512 512" height="1em" width="1em" xmlns="http://www.w3.org/2000/svg"><path d="M191.11 19.373c-50.45.415-96.5 14.087-127.567 45.154-42.76 42.758-51.6 112.812-38.316 183.776 13.284 70.964 48.79 141.863 90.164 183.236 52.5 52.5 127.488 70.074 197.864 53.267-6.04-.71-12.1-1.752-18.15-3.13-45.28-10.308-90.755-38.134-129.092-76.282-38.39-38.202-69.823-87.152-85.657-139.883-16.76-1.876-29.564-17.29-31.492-35.346-1.752-16.41 6.584-32.28 20.395-37.664 0-10.03.653-20.08 2.015-30.11-8.74-4.717-14.032-13.544-15.757-22.956-1.777-9.694-.165-20.35 4.808-30.315 4.973-9.964 12.52-17.66 21.334-22.07 4.407-2.203 9.26-3.563 14.162-3.796.613-.03 1.226-.042 1.84-.035 4.296.045 8.593.98 12.625 2.993 9.217 4.6 14.764 13.685 16.54 23.38 1.778 9.693.166 20.35-4.807 30.315-4.974 9.965-12.52 17.662-21.334 22.07-3.426 1.714-7.12 2.91-10.9 3.47-1.148 8.733-1.72 17.5-1.745 26.263 14.32 4.02 24.877 18.136 26.612 34.395 1.552 14.536-4.812 28.645-15.882 35.424 14.933 48.883 44.255 94.624 80.425 130.616 36.298 36.12 79.286 62.027 120.057 71.31 30.218 6.878 58.857 4.985 83.926-8.21 8.53-5.39 16.82-11.377 24.79-17.982l.085-.078.004.003c5.75-4.77 11.34-9.85 16.74-15.25 23.34-23.34 40.78-50.168 52.295-78.536-17.795 18.48-40.435 29.402-64.686 32.598-48.438 6.384-102.423-16.486-139.125-63.658-56.55-72.687-59-139.165-33.89-181.108 16.725-27.934 45.845-44.265 76.503-43.892.99.012 1.98.04 2.97.088 14.426.683 29.113 5.08 42.94 13.718 54.013 33.746 75.73 82.143 70.427 117.754-2.65 17.806-13.255 33.073-30.02 38.168-15.575 4.733-34.518.858-55.595-12.13-6.516-3-12.884-7.375-18.574-13.065-19.452-19.453-23.65-46.792-9.378-61.065 14.272-14.272 41.613-10.074 61.067 9.38 19.003 19.004 23.438 45.53 10.327 60.05 2.49-.092 4.743-.452 6.718-1.053 9.3-2.827 15.084-10.373 16.97-23.04 3.774-25.334-12.82-68.52-61.845-99.15-36.085-22.546-76.09-10.213-96.474 23.836-20.385 34.05-20.766 91.433 32.605 160.03 33.03 42.454 81.09 61.99 121.933 56.607 40.167-5.294 74.18-33.198 83.732-91.534 1.91-56.265-17.765-111.874-59.3-153.41l-.034-.034c-31.14-31.124-79.645-58.436-132.467-75.28-38.272-10.127-69.105-2.288-92.846 16.708-25.944 20.758-43.36 55.854-48.457 97.37-2.83 23.054-1.868 47.97 3.38 73.284 8.544.99 16.787 5.21 22.686 12.25 11.208 13.375 9.78 33.56-3.668 44.256 4.03 8.495 8.594 16.91 13.713 25.19 2.926-.838 5.93-1.238 8.948-1.22.843.003 1.686.04 2.528.108 11.23.9 22.334 7.324 29.648 17.358 8.63 11.837 10.16 27.278 3.916 38.69 7.486 7.04 15.532 13.83 24.14 20.327 4.44-4.13 10.107-6.906 16.07-8.273 2.45-.562 4.977-.916 7.552-1.06.966-.055 1.938-.08 2.916-.075 6.85.03 13.978 1.497 20.932 4.41 10.595 4.44 19.084 11.523 24.355 20.085 5.27 8.562 7.302 19.218 3.26 28.865-4.043 9.647-13.063 15.672-22.863 17.918-9.8 2.247-20.804 1.163-31.4-3.277-10.594-4.44-19.083-11.52-24.354-20.083-3.99-6.48-6.114-14.157-5.164-21.69-10.534-7.793-20.298-16.013-29.315-24.584-15.46 6.788-34.284-.154-44.99-14.84-9.558-13.11-10.417-30.64-1.642-42.222-5.88-9.455-11.084-19.09-15.65-28.83-10.72.83-21.77-3.566-29.152-12.376-11.42-13.63-9.735-34.332 4.433-44.86 1.503-1.117 3.08-2.064 4.702-2.878-5.555-27.058-6.593-53.807-3.53-78.75 5.565-45.34 24.603-85.102 55.33-109.686 9.508-7.608 20.145-13.656 31.726-17.904-11.147-1.26-22.212-1.958-33.09-2.05-1.636-.015-3.27-.016-4.897-.003zm-94.557 82.48c-1.99.11-4.174.72-6.54 1.903-4.735 2.368-9.695 7.13-12.976 13.705-3.28 6.575-4.105 13.402-3.15 18.608.954 5.207 3.305 8.437 6.51 10.036 3.204 1.598 7.2 1.537 11.933-.83 4.734-2.368 9.694-7.132 12.975-13.706 3.28-6.573 4.104-13.403 3.15-18.61-.954-5.205-3.306-8.435-6.51-10.034-1.602-.8-3.4-1.184-5.392-1.072zM79.156 209.255c-6.992.308-12.933 7.52-11.715 18.928 1.22 11.408 9.925 19.14 16.917 18.832 6.993-.308 12.935-7.52 11.717-18.928-1.218-11.41-9.925-19.14-16.918-18.832zm80.387 33.887c-2.76.09-5.41.918-7.53 2.496-5.662 4.205-6.523 11.584-1.26 17.866 5.265 6.282 14.666 7.393 20.327 3.187 5.66-4.206 6.522-11.583 1.258-17.865-2.632-3.14-6.298-4.99-10.014-5.527-.93-.134-1.86-.187-2.78-.157zm45.562 80.818c-.387.004-.77.02-1.146.052-2.006.164-3.826.723-5.302 1.664-5.9 3.763-7.44 12.976-.68 22.248 6.758 9.27 18.163 11.614 24.065 7.85 5.902-3.76 7.443-12.977.684-22.25-4.753-6.518-11.803-9.61-17.622-9.563zm87.204 66.878c-.61-.005-1.208.01-1.794.04-1.563.08-3.037.28-4.39.59-5.416 1.242-8.487 3.776-9.81 6.932-1.322 3.157-.974 7.123 1.938 11.854 2.912 4.73 8.41 9.61 15.668 12.65 7.257 3.04 14.59 3.54 20.006 2.3 5.414-1.242 8.488-3.776 9.81-6.933 1.323-3.155.973-7.12-1.94-11.852-2.91-4.73-8.41-9.61-15.667-12.65-4.762-1.996-9.557-2.897-13.82-2.93z"></path></svg>