<svg stroke="currentColor" fill="currentColor" stroke-width="0" viewBox="0 0 512 512" height="1em" width="1em" xmlns="http://www.w3.org/2000/svg"><path d="M426.7 63.83c-7.2 2.78-14.2 9.16-20 16.46 4.6 19.6-4.6 40.81-11.9 56.01 19.4-.6 53 6.3 68.4-2.3 18.4-10.3 35-46.21 29.8-63.71-18.8-4.75-50.3-11.83-66.3-6.46zm-149.3 8.56l-1.7 12.6c12.3 2.9 23.4 7.4 33.7 14.5 1.6-11.2 4.5-21 12.3-27.3-14.7-1-30.1-.9-44.3.2zm193.3 2c-14.1 8-27.9 13.7-34.4 22.4-6.4-5.6-10.5-12-8.6-20.9 14.1-6.1 29.2-4.7 43-1.5zm-211.7 0c-10.8 1.4-21.5 3.4-32.2 6.1 10.8.1 21.9.5 31.1 1.5zm73.2 12.6c-8.3 17.01-3.1 28.61 3.6 41.91 8.8-15 16.5-31.01 23-47.71-9-1.8-20.6-.5-26.6 5.8zm46.1-6.2C320 240.2 158.9 331.4 17.99 320.7c1.2 36.6 60.44 21.1 81.95 17.1 52.16-10 119.46-33 167.66-74.6 38.7-33.3 74.3-72.9 98.2-111.2 7.4-16.4 28.9-46.9 24-65.71-1.6-4.5-7.1-4.5-11.5-5.5zM196.5 100.2c10.7 5.9 19.9 13.2 28.7 20.2 3.4-7.3 8.6-14.6 16.3-21.61-14.7-.6-31.5.2-45 1.41zm71.6 1.5c-18.5 10.6-25.5 20.2-28.4 30.3 10.1 10 21.1 23.9 30.1 36.2-.9-23.7 19.8-44.1 36.8-48-11.1-10.4-22.9-15.3-38.5-18.5zm-101.4 6c-1.4 12.8-2.8 25.7-1 37.8 10.6-10.5 25.8-16.5 38.8-18.2-11.7-8.8-23.3-16.3-37.8-19.6zm-19.2 10.2c-12.2 14.5-22.7 31.6-31.8 48.2 9.3-4.3 20.3-7.4 34.3-8.1-3.9-13.8-3.6-27.5-2.5-40.1zm149.1 25.8c-12.9 11.8-8.6 31.4-5.3 45.4 14.9-16.1 28.4-33.8 40.1-52.8-11.6.2-25.9.5-34.8 7.4zM170 169.1c-.5 18.3 4.5 40.3 10.7 57.8 15.4-33 41.5-50.3 74.8-47.6-8.6-11.6-18.8-24.5-27.4-33.4-24.6-2-45.5 1.2-58.1 23.2zM105.7 147c-11.18 10.3-21.2 21.1-30.11 32.2 3.78.4 7.55 1.5 11.2 3.2 5.57-10.9 11.85-23.1 18.91-35.4zm46.3 28.7c-28 .5-38.8 11.2-53.36 24.2-4.87 20.5-6.6 40.8-5.13 60.5 17.69-22.5 44.29-35.3 70.19-27.3-6.1-17-11.1-37.6-11.7-57.4zm66.6 30.1c-14.6 10.3-24.4 29.2-27.5 50.8l-1.4 9.4c31.7-16.1 61.5-37.2 87.9-62.9-20.4-8-41.7-9.3-59 2.7zm-159.71-3.6c-10.67 16.4-19.12 33.3-25.53 50.3 17.8-4.6 33.58 5.5 42.99 17.6-2.72-23.2-1.33-47.1 4.01-70.9-7.6-4.3-15.53-1.3-21.47 3zm296.71-3.3c-8.8 11.7-18.2 23.1-28.1 34 7 17.3 6.1 37.5-1.5 52.8-9.4 18.9-25 33.7-36.9 60.8-5 11.9-11.3 62.5 3.6 63.3 47.2-27.1 100.3-90.1 103-142.4-6.6-28.1-22.3-48.5-40.1-68.5zM129 252.8c-14.3 7.1-27.7 22.9-34.72 45.7 29.92-5.4 59.92-15.2 88.62-29.1-16.5-17.2-33.7-26.7-53.9-16.6zm-87.41 16.1c-17.44 4.2-19.14 18.7-21.5 33.8 17.13 1.3 34.63.9 52.24-1-3.9-14.8-15.21-32.7-30.74-32.8zM144 345.5c-9.6 2.8-19 5.3-28.2 7.4-8 14.4-20.49 34.1-22.38 50.8.74 17 5.02 31.9 10.58 46.4 46.3-32.7 51.8-65.4 40-104.6z"></path></svg>