<svg stroke="currentColor" fill="currentColor" stroke-width="0" viewBox="0 0 512 512" height="1em" width="1em" xmlns="http://www.w3.org/2000/svg"><path d="M383.9 23.46c-13.4 2.23-26.3 3-36.9 5.31-14.8 3.18-24.2 7.59-29.8 22.41-1.4 3.88-1 6 .4 8.61 1.4 2.62 4.5 5.52 8.5 7.8 4 2.29 8.8 3.93 12.9 4.62 4 .69 7.5 0 7.5 0h.1c17.9-8.16 30.2-27.83 37.3-48.75zm-72.7 55.78c-3.4 20.1-13.5 38.56-25.2 56.26-.4 2.2-.9 4.3-1.5 6.4-2.7 9.3-7.5 18.2-14.3 25.8l.1.1c7.7-5.9 15.5-9.5 23.2-11.3 14.3-20.2 28.8-42.7 34.4-68.52-3.7-1.19-7.3-2.76-10.8-4.75-2-1.17-4-2.5-5.9-3.99zm-85.7 8.61c-11.9-.1-25.5 2.26-40.4 6-23.5 5.89-49 14.75-73.5 19.95 18.2 16.8 32.3 34.5 47.2 46.4 18.9 15 37.8 22.4 73.6 11.2 18.3-5.7 30.6-19.7 34.8-34.5 4.3-14.8 1.1-29.8-12.3-40.42-7.6-6.01-17.6-8.53-29.4-8.63zm81.2 84.35c-8.7-.1-17.4 3-27.8 11.8-23.6 19.9-12.7 40.7-2.2 45.4h.1c2.4 1.1 8.6 1.5 16.5-.2 8-1.7 17.6-5.3 27.5-10.1 14.5-7 29.4-16.7 40.9-26.4-13.2-5-25.1-12.2-36.4-16.3-5.9-2.2-11.4-3.8-16.9-4.1-.6 0-1.2-.1-1.7-.1zM244.6 237c-48 .5-91.3 4.6-122.7 10.6-16.9 3.2-30.51 7.1-39.1 11-4.3 1.9-7.31 3.9-8.75 5.3-.52.5-.62.6-.76.8.14.2.24.3.76.8 1.44 1.4 4.45 3.4 8.75 5.3 8.59 3.9 22.2 7.8 39.1 11 33.9 6.5 81.5 10.6 134.1 10.6 52.6 0 100.2-4.1 134.1-10.6 16.9-3.2 30.5-7.1 39.1-11 4.3-1.9 7.3-3.9 8.8-5.3.5-.5.6-.6.7-.8-.1-.2-.2-.3-.7-.8-1.5-1.4-4.5-3.4-8.8-5.3-8.6-3.9-22.2-7.8-39.1-11-19.3-3.7-43.1-6.6-69.7-8.5-8 3.4-15.8 6.1-23.3 7.7-9.9 2.1-19.2 2.8-27.7-1-2.2-1-4.3-2.2-6.2-3.6.9 8.8 2 17.6 3.2 26.5l-17.8 2.6c-1.7-11.4-3.1-22.7-4-34.3zM80.33 289.3l7.89 39.4c10.2 8.7 32.98 17.4 61.98 23 30.7 5.8 68.3 8.8 105.8 8.8s75.1-3 105.8-8.8c29-5.6 51.8-14.3 62-23l7.9-39.4c-10.2 3.9-23.1 7.3-38.2 10.2-35.6 6.8-84 10.9-137.5 10.9s-101.9-4.1-137.5-10.9c-15.1-2.9-27.98-6.3-38.17-10.2zm44.57 75.2l11.7 93.4c6.5 8.1 21.9 16.5 42.7 21.9 22 5.7 49.3 8.7 76.7 8.7 27.4 0 54.7-3 76.7-8.7 20.8-5.4 36.2-13.8 42.7-21.9l11.7-93.4c-6.9 1.8-14.2 3.3-21.9 4.8-32.3 6.2-70.7 9.2-109.2 9.2s-76.9-3-109.2-9.2c-7.7-1.4-15-3-21.9-4.8z"></path></svg>