<svg stroke="currentColor" fill="currentColor" stroke-width="0" viewBox="0 0 512 512" height="1em" width="1em" xmlns="http://www.w3.org/2000/svg"><path d="M229.3 23.6c-1.3 0-2.7.1-4 .11-21.2 1.03-40.7 8.51-49.7 18.54-11.2 12.51-16.6 46.14-3.2 82.45 12.4 33.6 39.5 69.4 88.1 94.3 13.5-37.3 17.4-100.3 16.6-148.56l18-.28c.7 46.64-1.9 105.94-15.2 147.94 34.2-16.5 64.8-32.9 86.4-54.7 24.7-24.9 38.9-56.5 35.9-107.03-.2-3.85-3-8.72-9.4-13.57-6.3-4.85-15.9-9.24-27-11.93-22.1-5.37-50.1-3.97-72.2 8.76l-5.2 2.97-4.7-3.59c-12.9-9.73-31.7-14.93-50.4-15.39h-4zM89.18 161.3c-2.71 0-5.42.1-8.14.3-20.35 1.6-44.06 16.8-52.99 39.1s-5.33 52.4 32.32 88.2l3.13 3-.36 4.3c-3.69 43.4.54 71.8 8.13 88.8 7.59 17.1 17.53 23.3 29.03 25.3 11.4 1.9 25-1.3 36.8-6.9 11.8-5.5 21.8-13.6 25.2-18v-.1c35-44.4 51.2-90.1 70-136.8-80.2 46.4-112.6 41.3-142.88 45.7l-2.58-17.8c35.26-5.1 60.76 2.2 145.56-48.9-44.9-31.9-91.1-65.2-140.52-66.2zM394 218.6c-3.8.1-7.7.4-11.7.8-27.2 2.8-56.1 12.8-84.2 19.5 36 45.6 60.9 84 103.5 112.4l-10 15c-44.6-29.8-70.5-68.5-104.2-111.6-6.4 32.2-11.2 64.7-9.3 93.9 2.2 35 13.4 64.8 42.4 86.7 16.8 12.7 30.4 18 41 18.8 10.6.8 18.8-2.4 26.7-8.9 15.6-13 27.6-40.5 36.4-67.7l1.2-3.6 3.5-1.7c40.1-19.4 55-41.5 58.1-62.1 3.1-20.7-6.1-41.6-19.4-57.6-21.9-26.4-45.5-34.1-71.5-33.9zm-138.4 17.6c-40.8 91.8-22.5 168.6-3 252.2l17.6-4c-19.5-83.8-36.6-154.2 1.8-240.8z"></path></svg>