<svg stroke="currentColor" fill="currentColor" stroke-width="0" viewBox="0 0 512 512" height="1em" width="1em" xmlns="http://www.w3.org/2000/svg"><path d="M243.5 52.06C203.4 97.42 156.6 131.5 99.8 161.6c11.9 6.1 25.1 9.4 37 11 9.3 1.2 17.8 1.3 23.9 1.1 3.1-.1 5.6-.2 7.3-.4.9-.1 1.6-.2 2-.2.4-.1 1.4-.5-.5.2l5.6 17c-2.1.8-1.9.5-2.6.6-.8.1-1.6.2-2.7.3-2.2.2-5 .4-8.5.5-2.5.1-5.2.1-8.2.1.4 1.7.6 3.4.6 5.3 0 14.2-12.9 24.5-27 24.5s-26.99-10.3-26.99-24.5c0-5.2 1.79-9.9 4.69-13.8-8.05-3-16.06-6.9-23.56-12.1-19.96 9.9-41.1 19.4-63.59 28.8v149.7c11.13 28.4 29.91 50.9 74.31 62.6l-4.6 17.4c-33.24-8.8-55.03-24.7-69.71-43.9V413c9.54 15.5 20.05 27.7 39.76 33.6l-5.1 17.2c-14.8-4.3-25.86-12-34.66-21.2v49.1H236.2c14.1-4.2 21.8-9.7 28.6-16.2 4.2-4 8-8.5 12.4-13.1-44.8-19.7-80.7-31.4-110.1-50.8-32.2-21.2-55.8-52.6-72.94-111.6l-1.3-4.5 2.9-3.6C133.8 244.1 221.1 201.8 287.5 170c-2.3-42.7-14.8-82.1-44-117.94zm-13.3 34.75l18 .68c-.6 17.11-5.3 36.21-23.9 52.01l-11.6-13.8c14.6-12.4 16.9-23.9 17.5-38.89zm267.6 21.69c-7.2 3.7-16.7 8.9-26.7 15.2-20.8 12.9-43.1 30.9-49.8 44.8-7.8 16.3-7.7 49-4.4 76.7 3.4 27.6 9 50.4 9 50.4l1.5 6.1-5.1 3.5c-25.4 17.5-41 35.4-58.1 51.6l-2.2 2-21.2 2.6c1.1 19.8-6.7 37-13 52.8l11.9 2.4c12.9-11.1 22.5-22.7 26.7-34.8l1.4-4 4-1.5c33-12.3 61.4-32.4 85.7-58.4 11-20.9 4.1-45.8 3-73.8l-.1-3.7 37.4-40.7v-91.2zm-371.1 82.1c-5.7 0-9 3.6-9 6.5s3.3 6.5 9 6.5 9-3.6 9-6.5-3.3-6.5-9-6.5zm155.1 3.6c-9.8 4.4-19.6 8.8-29.4 13.1-4.8 2.4-9.5 4.9-14.3 7.4l3.1.5c15.6 2.7 25.6 9.6 33.9 16.3 4.3-13.1 7.3-25.5 6.7-37.3zm114.6 15.7c-9.5 23.4-17.1 47-23 62l-1.4 3.6-3.6 1.4c-24.2 10-52 19-99.1 6.8-6.6 17.4-20.8 29.1-32.5 40.2l7.7 6.5c5.2-2.2 11-4.8 16.7-7.9 7.4-4 13.8-9.1 15.6-11.8l3.3-5.1 5.9 1.2c50 9.4 80.7 3 109.9-14.5 3.2-1.9 6.3-3.9 9.5-6.1-1.8-8.7-4.3-22-6.3-38.9-1.5-12-2.6-24.8-2.7-37.4zm-168.8 10.3c-11.5 6.2-23 12.5-34.1 19l2.1.5c15.2 3.6 25.7 9.7 34.2 16.1 1.3-3.4 2.6-6.7 3.4-9.6 1.6-6.4 1.9-11.3-1.5-18l-4.1-8zm-44.1 25c-11.2 6.8-21.8 13.7-31.6 20.6l6.7.9c10.8 1.3 18.8 6 24.4 11.2.7.7 1.2 1.4 1.9 2 1.9-9.9 2.2-19.7-.1-29.3l-1.3-5.4zm-35.8 23.7c-10.1 7.3-19.1 14.7-26.6 22.1 9.1 4 17.8 9 25.8 15.3 2.8-10 2.8-19.5 1.7-29.7l-.9-7.7zm37.2 90.2c-10.3 4.9-22.3 9.6-35.6 13.5 8.3 9.6 17.5 17.2 27.7 24 1.5 1 3 1.9 4.5 2.8l2-10.1c.8-4.4 1.9-13 1.9-21.1.1-3.2-.2-6.3-.5-9.1zm47.1 21c-11.3 8.3-23.3 15-36.9 19.5l-8.6 2.8c9.7 5.5 20.4 10.5 32.2 15.6l4.1-10.8c3.5-9.2 6.8-16.6 8.4-22.8.4-1.5.6-2.9.8-4.3zm41.4 20.7c-13.5 8.4-27.3 14.3-39.5 18.2l-7.4 2.4c9.7 4 20.2 8.3 31.3 12.9l3.6-8.7c3.6-8.5 9.2-15.8 12-24.8zm36.8 23.7c-14.4 6.8-29 11.9-39.1 13.5l-3.2.5c8 3.4 16.3 7 25.1 11 2.7-.2 4.5-1.1 6.5-2.8 2.4-2.1 4.8-5.8 6.8-10.6 1.5-3.5 2.7-7.5 3.9-11.6z"></path></svg>