<svg stroke="currentColor" fill="currentColor" stroke-width="0" viewBox="0 0 512 512" height="1em" width="1em" xmlns="http://www.w3.org/2000/svg"><path d="M316.3 21.21c-7.6.01-15.2.47-22.6 1.18-24 2.37-48.4 9.08-69.4 21.22-19.9 11.45-36.2 29.02-50.5 47.09-13.7 17.3-24.7 36.9-33 57.3-8.5 21.1-17 66-17 66 13.9-22.3 43.4-25.6 43.4-25.6 12-1.4 33.1-2.4 37.5 8.6 0 0 4.5-67.8 41.8-94.8 24.1-17.52 59.2-34.6 86.9-22.86C361 90.99 379 124.7 377.5 157.9c-12.9 82.2-130.2 163.6-130.2 163.6 12.1.5 24.1 2.6 32.9 10 9.6 7.6 12.2 16.7 13.5 28.8 0 0 114.9-95.7 142-165.7 9.7-42.1 9-72.8-8.8-110.71-18.6-34.06-37.1-43.04-62.3-54-15-6.52-31.7-8.69-48.3-8.68zM182.1 202a18.56 40.42 72.94 0 0-43.6 13.2 18.56 40.42 72.94 0 0-3 27.9 18.56 40.42 72.94 0 0 55.1-11.6 18.56 40.42 72.94 0 0 3-27.9 18.56 40.42 72.94 0 0-11.5-1.6zm55.7 131.5c-1.5 0-3 0-4.7.1L204.9 360c12.8-1 23.2-.7 33.1 7.7 10.1 8.9 11.7 16.4 13.3 30.2l26.2-25.1c-1.4-12.8-4-22.3-13.7-30.8-8.6-7.4-15.5-8.6-26-8.5zM193 374L70.06 490.8l85.54-.1 83.6-80c-1.8-12.8-3.3-19.7-13.2-27.6-9.8-7.5-20.7-8.7-33-9.1z"></path></svg>