<svg stroke="currentColor" fill="currentColor" stroke-width="0" viewBox="0 0 512 512" height="1em" width="1em" xmlns="http://www.w3.org/2000/svg"><path d="M252.28 18.25L198.5 196.53 154.97 63.595l-50.75 182.5-33.25-87.625-34.907 140.75c-10.612 14.005-16.47 29.292-16.47 45.28 0 5.906.9 11.848 2.438 17.53C38.147 303.664 135.618 258.69 253.47 258.69c117.85 0 215.352 44.975 231.468 103.343 1.538-5.682 2.437-11.624 2.437-17.53 0-16.412-6.19-32.066-17.344-46.375L435.407 158.47l-29.03 76.75L358.03 63.593l-47.75 146.844-58-192.188zm-.843 149.313c14.193 0 25.72 16.46 25.72 36.78s-11.527 36.813-25.72 36.813c-14.192 0-25.687-16.492-25.687-36.812 0-20.32 11.495-36.78 25.688-36.78zm-95.78 26.843c10.812 0 19.562 12.55 19.562 28.03 0 15.484-8.75 28.033-19.564 28.033-10.813 0-19.594-12.55-19.594-28.032 0-15.483 8.78-28.032 19.594-28.032zm202.062 0c10.812 0 19.592 12.55 19.592 28.03 0 15.484-8.78 28.033-19.593 28.033-10.814 0-19.564-12.55-19.564-28.032 0-15.483 8.75-28.032 19.563-28.032zm-284.97 45.25c8.233 0 14.906 9.556 14.906 21.344 0 11.788-6.673 21.344-14.906 21.344S57.844 272.788 57.844 261c0-11.788 6.673-21.344 14.906-21.344zm360.938 0c8.232 0 14.906 9.556 14.906 21.344 0 11.788-6.674 21.344-14.906 21.344-8.233 0-14.907-9.556-14.907-21.344 0-11.788 6.675-21.344 14.908-21.344zM126.344 403.5c-16.1.228-32.323 4.688-48.72 14.375 48.73 62.635 97.458 50.163 146.19 29.53-32.1-27.026-64.507-44.373-97.47-43.905zm257.875 0c-32.173.35-63.806 17.507-95.158 43.906 48.73 20.632 97.458 33.104 146.188-29.53-17.177-10.15-34.18-14.56-51.03-14.376z"></path></svg>