<svg stroke="currentColor" fill="currentColor" stroke-width="0" viewBox="0 0 512 512" height="1em" width="1em" xmlns="http://www.w3.org/2000/svg"><path d="M94.371 87.72l-14.676 26.54-40.927-24.873L20.07 120.15l42.192 25.641-14.575 26.357 15.752 8.71 46.684-84.426zM112 128c-12.406 17.74-28.85 57.069-31.646 80.46-1.51 12.633.156 22.758 2.863 26.73 1.353 1.985 2.479 2.81 4.902 3.314 2.424.504 6.516.344 12.47-1.736l12.307-4.301-.341 13.033c-.303 11.499 4.752 25.295 12.767 38.895 2.02-17.074 8.016-34.148 14.38-51.221-3.64 27.491-2.424 52.21 2.58 74.762 5.335 6.22 11.051 12.027 16.863 17.103 12.204 10.66 24.815 18.15 32.767 20.356 3.976 1.103 6.375.725 6.908.488.533-.237.76.118 1.239-2.805 1.542-9.415.807-30.268 1.867-55.385 1.003-23.768 5.305-54.726 14.319-83.528C197.233 181.141 160.156 136.151 112 128zm118.8 88.178c-5.788 19.743-8.61 39.331-10.005 57.353l9.666 17.95-10.805 4.714c-.187 7.113-.234 13.586-.285 19.766l19.652-8.576.092.17 33.059-14.541-.043-.08 93.627-40.862-7.201-16.498-94.989 41.457zm178.991 48.681c-44.479 57.958-86.364 118.263-184.195 170.905 1.367 1.082 2.706 2.157 4.013 3.199C239.647 446.963 248.1 453 256 453c7.9 0 16.353-6.037 26.39-14.037 10.038-8 21.66-17.963 37.61-17.963s27.572 9.963 37.61 17.963C367.646 446.963 376.1 453 384 453c1.082 0 2.174-.124 3.28-.34a748.512 748.512 0 0 0 4.878-22.088l-18.887-31.648 18.26-13.344-16.855-15.451 29.488-17.693c3.11-29.2 4.82-58.325 5.627-87.577zm17.697 9.9c-1.878 54.857-7.063 109.735-19.025 165.718.642-.505 1.273-.992 1.928-1.514 8.532-6.8 18.212-15.017 30.72-17.328l7.094-4.451c.06-4.398.102-8.788.115-13.163l-13.947-2.99s6.643-16.46 13.211-32.105c-1.693-33.026-6.783-64.837-20.096-94.166zm-146.754 34.153l-33.058 14.541 30.902 57.39a407.377 407.377 0 0 0 28.238-23.491zM139.338 331.25l-15.188 6.629 7.2 16.498 22.902-9.996a189.539 189.539 0 0 1-6.947-5.783 212.624 212.624 0 0 1-7.967-7.348zm-44.631 49.92c-2.589.006-5.186.17-7.824.549-3.313.677-6.773 1.252-9.541 3.2 1.69 2.914 4.871 5.5 7.146 7.085 6.59 4.538 17.22 9.18 29.512 12.04 12.292 2.863 23.877 3.394 31.793 2.233 3.313-.677 6.771-1.253 9.539-3.2-1.694-2.913-4.87-5.5-7.144-7.085-6.59-4.538-17.218-9.177-29.51-12.039-8.513-1.382-16.205-2.8-23.971-2.783zm60.625 21.906c.13.305.063.281.121.03.059-.252.128-.244-.121-.03zm-86.457-.457c-2.918 6.024-5.2 12.191-6.947 18.436A43.474 43.474 0 0 1 64 421c15.95 0 27.572 9.963 37.61 17.963C111.646 446.963 120.1 453 128 453c6.132 0 12.607-3.657 19.887-9.025 1.978-6.92 3.63-13.802 4.754-20.66a60.452 60.452 0 0 1-4.235.77c-10.999 1.614-24.335.786-38.488-2.509-14.153-3.295-26.483-8.443-35.639-14.748a55.04 55.04 0 0 1-5.404-4.209zM64 439c-13.413 0-26.972 6.374-39 13.35v21.064c.916-.582 1.815-1.16 2.768-1.746C40.264 463.988 56.099 457 64 457c7.9 0 16.353 6.037 26.39 14.037 10.038 8 21.66 17.963 37.61 17.963s27.572-9.963 37.61-17.963C175.646 463.037 184.1 457 192 457c7.9 0 16.353 6.037 26.39 14.037 10.038 8 21.66 17.963 37.61 17.963s27.572-9.963 37.61-17.963C303.646 463.037 312.1 457 320 457c7.9 0 16.354 6.037 26.39 14.037 10.038 8 21.66 17.963 37.61 17.963s27.572-9.963 37.61-17.963C431.646 463.037 440.1 457 448 457c7.9 0 23.736 6.989 36.232 14.668.953.585 1.852 1.164 2.768 1.746V452.35c-12.028-6.976-25.587-13.35-39-13.35-15.95 0-27.572 9.963-37.61 17.963C400.354 464.963 391.9 471 384 471c-7.9 0-16.353-6.037-26.39-14.037-10.038-8-21.66-17.963-37.61-17.963s-27.572 9.963-37.61 17.963C272.354 464.963 263.9 471 256 471c-7.9 0-16.353-6.037-26.39-14.037-10.038-8-21.66-17.963-37.61-17.963s-27.572 9.963-37.61 17.963C144.354 464.963 135.9 471 128 471c-7.9 0-16.353-6.037-26.39-14.037C91.571 448.963 79.95 439 64 439z"></path></svg>