<svg stroke="currentColor" fill="currentColor" stroke-width="0" viewBox="0 0 512 512" height="1em" width="1em" xmlns="http://www.w3.org/2000/svg"><path d="M194.547 20.182l-12.815 195.064L73.522 94.22l45.562 160.89-92.547-8.542 54.106 103.94-61.225 8.54 79.943 65.73c-2.728-11.64-4.188-23.762-4.204-36.206l-20.963-1.7 1.508-18.626 20.536 1.664c2.134-18.274 7.394-35.593 15.233-51.414l-40.48-29.09 10.908-15.176 38.9 27.96c9.578-14.64 21.52-27.59 35.288-38.31l-27.73-50.21 16.36-9.033 26.845 48.607c14.872-8.968 31.34-15.55 48.88-19.217l-12.952-90.87 18.502-2.637 12.94 90.785c4.583-.4 9.22-.62 13.906-.62h.004c4.13 0 8.223.163 12.275.475l6.574-62.775 18.587 1.945-6.634 63.37c13.316 2.632 26.043 6.93 37.95 12.68l18.37-36.737L356.678 218l-18.746 37.492c8.832 5.635 17.065 12.124 24.59 19.342l46.53-52.115 13.942 12.446-47.707 53.438c8.29 10.074 15.348 21.19 20.957 33.115l32.97-22.372 10.493 15.464-36.393 24.696c3.837 11.695 6.35 23.988 7.327 36.707l19.594-3.19 3.002 18.448-22.29 3.627c-.47 11.016-2.07 21.754-4.706 32.09l80.9-63.87-56.24-5.695 54.034-85.428-59.73 9.252 39.868-103.57-88.28 35.94 32.75-116.752-96.82 111.057-17.085-168.008-42.715 108.207-58.375-128.142zm58.29 229.193c-76.976.002-138.993 62.02-138.993 138.996 0 33.147 11.532 63.544 30.783 87.485l-130.545-46.02h-.713v62.487h146.823l.004.004h29.6c-.002 0-.004-.002-.006-.004h1.548l-3.07-1.082c-28.443-20.302-46.98-53.577-46.98-91.19 0-61.712 49.773-112.13 111.55-112.13 61.776 0 112.13 50.354 112.13 112.13 0 37.508-18.62 70.66-47.05 90.97l-3.69 1.302h1.848l-.006.004h29.424c.002 0 .003-.003.004-.004h146.7v-62.488h-.716l-130.195 45.898c19.395-23.942 31.13-54.303 31.13-87.36 0-76.932-62.6-138.995-139.577-138.997h-.004z"></path></svg>