<svg stroke="currentColor" fill="currentColor" stroke-width="0" viewBox="0 0 512 512" height="1em" width="1em" xmlns="http://www.w3.org/2000/svg"><path d="M257.97 20.22C150.394 88.557 72.1 275.18 69.874 494.374h375.188c-2.2-219.194-79.52-405.817-187.094-474.156zm-18.845 163.06l18.344 36.282 18.342-36.28c9.99 2.326 19.72 6.537 29.063 12.437l4.156 48.56 20.095-28.624c7.938 8.123 15.48 17.558 22.594 28.156L345.436 279l18.375-15.344c24.39 44.295 42.05 103.6 49.532 170.78-10.036-32.144-26.553-60.393-47.625-82.342l4-35.813L344.093 333c-6.098-4.53-12.452-8.595-19.03-12.156l-3.345-40.97-26.314 28.876c-7.31-2.074-14.792-3.58-22.437-4.438l-15.5-33.25-15.5 33.282c-8.14.916-16.12 2.522-23.876 4.812l-24.875-27.28-3.157 38.874c-6.645 3.585-13.065 7.68-19.22 12.25l-25.624-16.72 4.03 35.814c-21.08 21.95-37.618 50.19-47.656 82.344 7.482-67.188 25.17-126.485 49.562-170.782L169.5 279l-6.28-35.188c7.37-10.983 15.213-20.71 23.468-29.03l19.25 27.374 3.937-46.312c9.4-5.963 19.193-10.22 29.25-12.563z"></path></svg>