<svg stroke="currentColor" fill="currentColor" stroke-width="0" viewBox="0 0 512 512" height="1em" width="1em" xmlns="http://www.w3.org/2000/svg"><path d="M25 43.637v13.447c166.014 44.44 287.965 45.322 452.29 2.586l4.93-14.79C317.103 87.802 190.876 87.396 25 43.636zm7.965 34.168l20.83 41.66c169.675 15.31 234.248 15.327 403.537.074l13.19-39.575c-156.893 39.28-279.4 38.56-437.557-2.16zM247.027 137l-11.5 46h40.946l-11.5-46h-17.946zM89 140.623V361H48v-41h16l-24-16-24 16h16v41h-7v14h7v71.14h-7v14h7V496h16v-35.86h41V487h46v-26.86h41V496h16v-35.86h7v-14h-7V375h7v-14h-7v-41h16l-24-16-24 16h16v41h-41V144.207c-14.517-1.026-29.803-2.226-46-3.584zm334 0c-16.197 1.358-31.483 2.558-46 3.584V361h-41v-41h16l-24-16-24 16h16v41h-7v14h7v71.14h-7v14h7V496h16v-35.86h41V487h46v-26.86h41V496h16v-35.86h7v-14h-7V375h7v-14h-7v-41h16l-24-16-24 16h16v41h-41V140.623zM44.486 185l10 30H71v-30H44.486zM153 185v30h206v-30h-63.473l4 16h-87.054l4-16H153zm288 0v30h16.514l10-30H441zM48 375h41v71.14H48V375zm87 0h41v71.14h-41V375zm201 0h41v71.14h-41V375zm87 0h41v71.14h-41V375z"></path></svg>