<svg stroke="currentColor" fill="currentColor" stroke-width="0" viewBox="0 0 512 512" height="1em" width="1em" xmlns="http://www.w3.org/2000/svg"><path d="M260.656 18.47c-57.894 0-102.687 36.608-102.687 79 0 20.057 10.018 38.82 26.718 53.03v53.688h23.28v-55.375h18.688v55.375H251v-55.375h18.688v55.375h23.75v-55.375h18.687v55.375h23.344v-52.75c17.376-14.32 27.874-33.463 27.874-53.97 0-42.386-44.794-79-102.688-79zm-42.437 50c17.144 0 30.843 13.666 30.843 30.81 0 17.14-13.7 30.845-30.844 30.845-17.145 0-30.845-13.704-30.845-30.844s13.7-30.81 30.844-30.81zm82.624 0c17.145 0 30.812 13.666 30.812 30.81 0 17.14-13.668 30.845-30.812 30.845C283.7 130.125 270 116.42 270 99.28s13.7-30.81 30.844-30.81zM142.188 119c-48.82 35.525-80.563 93.098-80.563 158.094 0 55.067 22.787 104.8 59.438 140.312 4.343-13.65 14.108-24.938 26.75-31.28-27.542-27.797-44.563-66.027-44.563-108.25 0-49.647 23.53-93.792 60.03-121.907-9.986-10.747-17.313-23.265-21.093-36.97zm235.562 4.438c-4.512 13.358-12.41 25.466-22.875 35.78 34.185 28.204 55.97 70.875 55.97 118.657 0 42.63-17.357 81.203-45.376 109.063 12.41 6.753 21.835 18.36 25.717 32.218 37.712-35.616 61.25-86.09 61.25-142.062 0-62.352-29.213-117.878-74.687-153.656zM171.312 399.25c-18.903 0-34.03 15.13-34.03 34.03 0 18.902 15.126 34.033 34.03 34.033 18.905 0 34.032-15.13 34.032-34.032 0-18.903-15.127-34.03-34.03-34.03zm169.094 0c-18.903 0-34.03 15.13-34.03 34.03 0 18.902 15.126 34.033 34.03 34.033 18.905 0 34.03-15.13 34.03-34.032.002-18.903-15.125-34.03-34.03-34.03zm-83.22 26.156c-18.902 0-34.03 15.13-34.03 34.03 0 18.902 15.127 34.033 34.03 34.033 18.906 0 34.002-15.132 34.002-34.033 0-18.904-15.096-34.03-34-34.03z"></path></svg>