<svg stroke="currentColor" fill="currentColor" stroke-width="0" viewBox="0 0 512 512" height="1em" width="1em" xmlns="http://www.w3.org/2000/svg"><path d="M245.1 49.28A129.8 129.8 0 0 0 115.3 178.9a129.8 129.8 0 0 0 17 64.4l12.2-19.1 13.1 7.6 3-6.8a32.45 32.45 0 0 1-2.1-11.3 32.45 32.45 0 0 1 32.5-32.6 32.45 32.45 0 0 1 10.6 1.9l9.5-11.7 15.4 5.3 12.7-16.2-2.5 29.8-14.3-1.1-1.8 11.3a32.45 32.45 0 0 1 2.8 13.3 32.45 32.45 0 0 1-32.4 32.5 32.45 32.45 0 0 1-19.8-6.8l-13.3 4.9-9.7-6.8-15.8 5.9a129.8 129.8 0 0 0 13.7 19.4l-9.2 46.2c5.6.8 11.1 1.5 16.5 2.2 2.1 12.9 7 26.6 16 40.9 1.9-11.2 4.4-22.8 13.1-37.9 42.4 3.7 82.7 3.7 125.1 0 8.7 15.1 11.2 26.7 13.1 37.9 9-14.3 13.9-28 16-40.9 5.4-.7 10.9-1.4 16.5-2.2l-9.1-46.1a129.8 129.8 0 0 0 30.7-84 129.8 129.8 0 0 0-68.2-114.12l-8.5 1.13 17.5 17.01-34.4 21.18 14.9-23.07-17.9-15.87 8.1-9.07a129.8 129.8 0 0 0-41.2-6.81zm54 131.92a32.45 32.45 0 0 1 32.5 32.5 32.45 32.45 0 0 1-32.5 32.4 32.45 32.45 0 0 1-32.4-32.4 32.45 32.45 0 0 1 32.4-32.5zm-54 67.5l16.2 48.8h-32.5zM105 321.1v86.6h21.6v-86.6zm-64.9 10.6v65h10.79v-22.5H87v-19.6H50.89v-22.9zm151.1 6.1c-2 5.8-3 11.2-4 17.3l-6.1 35.9h34.6c3.5-9.4 8.7-18.1 14.8-26.7l14.6-20.4 14.6 20.4c6.2 8.6 11.3 17.3 14.8 26.7H309l-6.1-35.9c-1-6.1-2-11.5-4-17.3zm162.5 4.9v43.4h14.1l2.1-2.1v-39.2l-2.2-2.1zm-209.1 1.1V391h28l-18.4-29.3c-3.8-6-7-12-9.6-17.9zm243.3 10.8v19.6h84.8l-23.3-19.6zm-52.2 7.4l-18.2 29h18.2zm-90.6 12.8c-10.3 14.4-15.8 25-16.3 40.6-27.4-.6-54.7-2.7-81.1-6.3l9.8 46.5c53.5 9.5 116.8 9.5 175.2 0l9.7-46.5c-26.4 3.6-53.7 5.7-81.1 6.3-.5-15.6-5.9-26.2-16.2-40.6zm227.3 15.8c.4 23.5-19.3 29.5-19.3 49.2 0 15.8 11.4 21.5 19.3 21.5s19.3-5.7 19.3-21.5c0-19.7-19.3-25.7-19.3-49.2z"></path></svg>