<svg stroke="currentColor" fill="currentColor" stroke-width="0" viewBox="0 0 512 512" height="1em" width="1em" xmlns="http://www.w3.org/2000/svg"><path d="M257.7 18.523c-7.444-.01-14.966.471-22.56 1.416-32.784 4.066-62.074 17.176-86.755 41.516-19.534 19.252-32.502 42.853-35.518 71.738-3.58 34.666 7.34 64.264 29.545 88.463 7.136 7.76 10.294 15.323 10.098 26.301-.312 17.262-14.356 44.088 1.732 52.861 25.953-33.816 43.307-25.62 64.805-38.33 8.562 30.886 21.126 12.051 36.953 12.186 15.828.135 30.079 20.137 37.021-11.42 20.757 12.4 55.951 14.776 64.387 37.365 15.63-8.533 1.82-34.465 1.309-51.068-.37-11.633 1.906-20.674 10.777-27.553 2.813-2.189 4.945-5.63 7.192-8.732 21.612-30.056 29.118-63.41 18.03-100.344-10.266-34.151-32.33-57.467-60.624-73.93-24.237-14.085-49.811-20.428-76.393-20.469zm87 110.547c18.852-.14 27.493 11.631 23.542 32.02-4.574 23.515-24.083 40.69-44.84 39.582-22.465-1.197-40.66-19.708-43.109-44.02-.196-1.903.457-4.83 1.682-5.828 11.199-9.042 48.023-21.638 62.724-21.754zm-173.536.032c14.414.91 30.992 7.932 47.373 15.666 2.414 1.163 4.63 2.925 7.106 3.638 6.142 1.736 6.397 6.428 5.517 11.889-3.951 23.344-24.17 41.485-44.955 40.348-23.573-1.28-41.602-20.247-43.252-45.553-1.138-17.432 7.108-26.216 28.211-25.988zm84.705 59.425c7.818 19.139 15.153 37.026 22.746 55.618h-45.38c7.507-18.48 14.872-36.395 22.634-55.618zm-1.95 99.05c-13.867 0-25.11 11.241-25.11 25.109v89.468s11.243 91.323 25.11 91.323h4.017c13.868 0 25.11-91.322 25.11-91.323v-89.468c0-13.868-11.242-25.11-25.11-25.11h-4.016zm-51.954.009c-19.89-.483-35.575 13.85-38.764 18.176a22.315 22.315 0 0 0-4.36 13.285v79.867s10.037 81.524 22.417 81.524h3.586c12.38 0 22.415-81.523 22.416-81.524v-79.867c0-2.673 17.401-24.452 12.22-27.026-6.046-3.002-11.946-4.3-17.515-4.435zm108.27 0c-5.57.135-11.468 1.433-17.514 4.435-5.18 2.574 12.22 24.353 12.22 27.026v79.867c.001 0 10.036 81.524 22.416 81.524h3.586c12.38 0 22.416-81.524 22.416-81.524v-79.867c0-4.973-1.62-9.567-4.361-13.285-3.188-4.326-18.874-18.659-38.764-18.176z"></path></svg>