<svg stroke="currentColor" fill="currentColor" stroke-width="0" viewBox="0 0 512 512" height="1em" width="1em" xmlns="http://www.w3.org/2000/svg"><path d="M163.858 21.243c-2.266 5.14-4.88 11.152-7.495 17.225-.424.987-.719 1.682-1.136 2.654 46.94 34.112 113.516 50.012 189.967 31.479a58.65 58.65 0 0 0-5.06-16.354C280.513 78.775 208.7 64.95 163.859 21.243zm-15.873 36.813c-1.232 2.896-2.511 5.91-2.551 6.004-3.166 8.379-2.27 14.281.851 20.21 3.13 5.944 9.129 11.698 16.39 16.512 14.525 9.628 34.312 15.364 38.513 16.145 11.832 2.2 23.552-2.345 37.228-8.117 10.718-4.524 22.59-9.782 35.947-10.53-48.762-1.385-92.039-16.292-126.378-40.224zm197.084 33.06c-21.6 4.903-42.56 7.224-62.645 7.268 1.104.098 2.218.231 3.342.402 14.74 1.215 23.143 22.597 31.51 25.428 1.667.456 3.728.61 8.658-2.317 9.744-5.783 16.819-17.286 19.135-30.78zm-210.65 7.965c-9.534 42.265-19.942 87.684-33.573 131.168-2.694 32.854.654 51.908 7.814 69.914 7.2 18.105 18.928 35.706 32.784 63.297 8.276 1.96 15.813 2.913 21.76 2.334 17.577-1.71 45.076-17.907 66.765-34.223a457.655 457.655 0 0 0 24.576-19.883c-32.383-.46-66.65-.952-96.588-1.382l-2.553-2.436c-12.872-12.28-22.589-30.64-21.38-48.896l.556-8.407c51.317 1.353 96.286 3.537 147.098 5.623 1.27-3.863 2.541-7.733 3.822-11.716-32.477-5.825-99.194-17.967-120.746-23.217-8.324-2.916-10.934-13.993-13.56-21.211-3.383-9.38-6.832-21.22-8.01-32.611l-1.262-12.182 160.578 32.6c4.287-15.582 8.19-31.118 11.328-45.965-17.573-2.413-18.902-21.77-30.765-25.307-12.529-3.023-23.891 3.006-37.647 8.813-13.755 5.806-29.428 12.592-47.52 9.228-7.993-1.486-27.476-7.11-45.165-18.836-6.807-4.512-13.312-9.953-18.313-16.705zm28.944 78.89c2.415 9.378 5.192 18.272 9.094 26.514 3.796.878 8.866 1.949 14.541 3.112l-5.01-25.844zm37.711 7.657l4.99 25.756c8.862 1.72 18.273 3.506 27.788 5.285l-3.64-25.125zm47.877 9.72l3.59 24.776c21.283 3.916 40.362 7.355 45.945 8.352l5.301-21.995zm-95.953 73.612c2.005 8.02 6.763 16.976 12.565 23.453l14.355.207-8.277-22.912c-6.256-.254-12.935-.521-18.643-.748zm38.067 1.539l8.091 22.397 26.284.376-6.69-21.646c-10.024-.41-18.41-.75-27.685-1.127zm46.767 1.91l6.531 21.133c11.842.17 23.304.334 34.856.494 2.596-6.773 5.107-14.164 6.96-19.646-6.932-.285-27.953-1.146-48.347-1.98zm-153.81 5.654c-6.882 17.355-14.478 34.028-22.979 49.622 6.786 4.136 17.907 10.699 34.1 18.539a286.764 286.764 0 0 0 21.94 9.515c-9.973-18.394-18.721-32.76-25.15-48.924-3.522-8.858-6.213-18.193-7.911-28.752zm189.857 40.541c-7.021 6.339-18.977 16.733-33.09 27.35-22.663 17.05-50.295 35.267-75.842 37.754-7.658.745-15.77.08-24.046-1.543-1.906 17.734-6.522 35.6-13.463 51.832 107.342 6.767 202.84 9.795 316.681 7.19-.116-8.066-.651-15.593-1.51-18.514-5.25-17.87-21.36-32.542-43.396-45.567l-23.299 43.057-77.383 11.693 54.01-77.529a2107.793 2107.793 0 0 0-14.336-6.076l-42.234 57.17-82.879 3.516 13.182-15.657s17.811-21.153 35.98-42.578a6752.13 6752.13 0 0 1 22.45-26.351 321.521 321.521 0 0 1-10.825-5.747zm35.184 5.088c-8.128 9.295-16.62 19.29-23.987 27.952l27.686.753 14.012-18.966zM66.207 351.464c-5.182 27.578-6.555 52.46-4.94 78.04a7708.424 7708.424 0 0 0 46.952 3.257c7.989-16.699 13.315-36.352 15.049-55.319-12.399-4.083-24.706-9.564-35.969-15.017-7.757-3.756-14.864-7.521-21.092-10.961zm307.353 3.87l-13.023 19.005 15.752 7.31 10.25-18.25zM270.154 369.24a16253.728 16253.728 0 0 0-16.878 19.975l33.332-1.414 13.115-17.754zm79.936 20.096l-12.865 18.469 27.129-4.1 3.351-6.195zM55.358 447.083c-3.282 12.566-4.922 33.798-1.606 43.674h110.576c2.708-27.614 210.034-16.532 211.514 0h83.203c1.473-6.923 1.7-26.288-1.723-31.906-144.743 3.794-259.438-1.395-401.964-11.768z"></path></svg>