<svg stroke="currentColor" fill="currentColor" stroke-width="0" viewBox="0 0 512 512" height="1em" width="1em" xmlns="http://www.w3.org/2000/svg"><path d="M112 73c-13.75 0-24.214 4.87-33.047 13.271-8.832 8.402-15.755 20.6-20.414 34.575-5.887 17.661-7.953 38.064-6.887 56.111a57.246 57.246 0 0 1 2.461-.187c8.38-.405 16.317 1.094 23.494 4.234 14.355 6.28 25.436 18.27 34.057 32.28 15.104 24.543 23.187 55.746 24.96 80.585 114.097-14.223 124.655-14.223 238.753 0 1.772-24.84 9.855-56.042 24.959-80.586 8.62-14.009 19.702-25.999 34.057-32.28 7.875-3.444 16.67-4.898 25.955-4.046 1.066-18.047-1-38.45-6.887-56.111-4.659-13.976-11.582-26.173-20.414-34.575C424.214 77.87 413.75 73 400 73zM56.969 194.502c-.686-.008-1.38.006-2.082.04-5.621.284-11.8 1.978-18.862 5.509-23.413 11.707-26.349 65.687 14.82 79.41l4.505 1.502L86.79 391h338.42l31.44-110.037 4.504-1.502c41.17-13.723 38.234-67.703 14.82-79.41-14.121-7.061-24.722-6.775-34.367-2.555-9.645 4.22-18.564 13.23-25.943 25.22C400.906 246.7 393 282 393 304v10.195l-10.117-1.265c-128-16-125.766-16-253.766 0L119 314.195V304c0-22-7.906-57.3-22.664-81.283-7.38-11.991-16.298-21.001-25.943-25.22-4.22-1.847-8.624-2.94-13.424-2.995zM83.727 409l-23.272 23.271c11.994 3.239 33.75 3.763 42.545-1.666 3.272-4.695 6.903-14.536 10.438-21.605zm314.836 0c1.494 6.017 6.952 19.12 10.437 21.605 13.2 5.463 29.904 5.774 42.545 1.666L428.273 409z"></path></svg>