<svg stroke="currentColor" fill="currentColor" stroke-width="0" viewBox="0 0 512 512" height="1em" width="1em" xmlns="http://www.w3.org/2000/svg"><path d="M246.47 16.29l43.774 85.93 40.65-42.927L246.47 16.29zm179.84 23.823l-13.472 13.47 46.807 46.808 13.48-13.46-46.816-46.817zm-52.42.95L113.88 315.656l81.65 81.653L471.808 138.98l-97.918-97.92zm-3.097 50.57c12.955 0 25.912 4.916 35.742 14.746 19.66 19.66 19.66 51.82 0 71.48-19.66 19.662-51.822 19.662-71.482 0-19.66-19.66-19.66-51.82 0-71.48 9.83-9.83 22.785-14.747 35.74-14.747zM167.367 104.97l42.176 82.48 38.86-41.044-81.036-41.437zm203.426 5.235c-8.134 0-16.266 3.13-22.525 9.39-12.52 12.518-12.52 32.533 0 45.05 12.518 12.52 32.534 12.52 45.052 0 12.52-12.517 12.52-32.532 0-45.05-6.26-6.26-14.394-9.39-22.527-9.39zM286.88 177.14c12.524.03 25.056 4.813 34.57 14.327 19.026 19.027 19.13 50.124.146 69.107-18.983 18.983-50.08 18.88-69.108-.148-19.027-19.027-19.13-50.124-.146-69.108 9.49-9.49 22.01-14.21 34.537-14.18zm166.58 4.58l-43.43 40.608 86.58 44.102-43.15-84.71zM88.927 194.88l39.957 77.75 36.445-38.487-76.402-39.264zm197.926.83c-7.704-.02-15.394 2.922-21.295 8.823-11.804 11.803-11.776 30.756.146 42.678 11.923 11.923 30.875 11.953 42.678.15 11.804-11.804 11.777-30.756-.146-42.678-5.96-5.962-13.68-8.95-21.382-8.97zm-84.237 67.6c12.01.068 24.032 4.693 33.164 13.825 18.263 18.264 18.496 48.085.324 66.258-18.173 18.172-47.994 17.94-66.258-.325-18.264-18.264-18.497-48.085-.325-66.257 9.088-9.086 21.085-13.57 33.095-13.5zm163.38.194l-41.893 39.17 83.843 42.873-41.95-82.043zM202.55 281.88c-7.187-.047-14.342 2.674-19.814 8.145-10.942 10.943-10.884 28.62.325 39.83 11.21 11.207 28.886 11.265 39.83.323 10.94-10.943 10.883-28.62-.326-39.828-5.604-5.605-12.825-8.42-20.013-8.47zm75.343 64.003l-39.666 37.088 79.8 41.01-40.134-78.097zm-158.784 1.43L18.93 447.493V494.9h45.648l101.13-100.988-46.6-46.6z"></path></svg>