<svg stroke="currentColor" fill="currentColor" stroke-width="0" viewBox="0 0 512 512" height="1em" width="1em" xmlns="http://www.w3.org/2000/svg"><path d="M85.365 46.973L65.95 137.566l8.753 40.844c14.597 4.118 35.126-.73 35.707-14.564zm68.254 0l-14.936 71.14 17.515 61.64c11.382-.696 22.047-5.993 22.464-15.907zm68.253 0l-15.244 71.14 30.16 58.762c5.76-2.613 9.873-6.952 10.128-13.03zm68.254 0l-25.045 116.873c.255 6.077 4.368 10.416 10.13 13.03l30.16-58.763zm68.254 0l-25.044 116.873c.417 9.914 11.082 15.21 22.465 15.906l17.516-61.64zm68.255 0L401.59 163.846c.58 13.835 21.11 18.682 35.707 14.564l8.752-40.844zM18 51.12V179.81c4.793-.103 9.544-1.012 13.547-2.736l6.723-31.37zm476 0l-20.27 94.585 6.723 31.37c4.003 1.725 8.754 2.634 13.547 2.738zM52.982 162.956L30.84 266.293l13.69 63.902c17.79 3.014 39.45-3.694 39.974-20.136zm81.207 0l-16.75 75.156 23.156 92.375c13.14-1.656 24.732-8.457 25.115-20.427zm81.206 0l-16.105 75.156 36.41 88.205c6.49-3.46 10.982-8.88 11.218-16.257zm81.208 0L265.082 310.06c.236 7.38 4.728 12.798 11.217 16.258l36.41-88.205zm81.207 0L346.29 310.06c.382 11.97 11.975 18.772 25.114 20.428l23.155-92.375zm81.208 0L427.496 310.06c.524 16.44 22.185 23.15 39.973 20.135l13.69-63.902zM112 282.957L73.08 464.582c.88 35.177 76.96 35.177 77.84 0zm96 0l-38.92 181.625c.88 35.177 76.96 35.177 77.84 0zm96 0l-38.92 181.625c.88 35.177 76.96 35.177 77.84 0zm96 0l-38.92 181.625c.88 35.177 76.96 35.177 77.84 0zM18 292.29v198.642c18.55-.59 36.495-9.37 36.92-26.35zm476 0l-36.92 172.292c.425 16.98 18.37 25.76 36.92 26.35z"></path></svg>