<svg stroke="currentColor" fill="currentColor" stroke-width="0" viewBox="0 0 512 512" height="1em" width="1em" xmlns="http://www.w3.org/2000/svg"><path d="M16 17.188v236.656c0 20.48 19.324 40.365 48.156 57.47 11.504-6.066 23.26-9.564 34.813-9.564 29.023 0 53.453 20.3 62.093 48.188 1.888.495 3.752.863 5.625 1.343 13.824-9.92 26.255-12.217 34.687-12.217 17.552 0 33.037 9.688 42.125 24.312 4.288.208 8.717.53 12.78.53 4.177 0 8.507-.18 12.94-.436 9.087-14.69 24.586-24.408 42.186-24.408 8.08 0 19.85 2.198 32.97 11.094 2.655-.736 5.296-1.576 7.968-2.344 9.216-26.784 33.18-46.03 61.47-46.03 10.27 0 20.71 2.715 30.998 7.53C475.325 291.6 496 271.923 496 253.97V17.187H16zm67.53 126.28c20.72 0 37.5 16.796 37.5 37.532 0 20.72-16.78 37.5-37.5 37.5S46 201.72 46 181s16.81-37.53 37.53-37.53zm345.126 0c20.72 0 37.53 16.796 37.53 37.532.002 20.72-16.81 37.5-37.53 37.5-20.72 0-37.53-16.78-37.53-37.5s16.81-37.53 37.53-37.53zM76.97 155.282c-9.112 0-16.5 7.39-16.5 16.5 0 9.112 7.388 16.5 16.5 16.5 9.11 0 16.5-7.388 16.5-16.5 0-9.11-7.39-16.5-16.5-16.5zm345.124 0c-9.11 0-16.5 7.39-16.5 16.5 0 9.112 7.39 16.5 16.5 16.5s16.5-7.388 16.5-16.5c0-9.11-7.39-16.5-16.5-16.5zm-241.03 11.97c33.135 0 60 26.848 60 60 .014 33.136-26.85 60.03-60 60.03-33.137 0-60.033-26.894-60.033-60.03s26.897-60 60.032-60zm150.06 0c33.137 0 60 26.848 60 60 .017 33.136-26.847 60.03-60 60.03-33.135 0-60.03-26.894-60.03-60.03s26.895-60 60.03-60zM170.563 182.5c-16.577 0-30.03 13.423-30.03 30 0 16.577 13.453 30.03 30.03 30.03 16.578 0 30-13.453 30-30.03s-13.422-30-30-30zm150.032 0c-16.578 0-30 13.423-30 30 0 16.577 13.422 30.03 30 30.03 16.577 0 30.03-13.453 30.03-30.03s-13.453-30-30.03-30zM100.03 193.563c-3.63 0-6.593 2.96-6.593 6.593 0 3.632 2.962 6.563 6.594 6.563 3.633 0 6.564-2.932 6.564-6.564s-2.93-6.594-6.563-6.594zm345.126 0c-3.632 0-6.594 2.96-6.594 6.593 0 3.632 2.962 6.563 6.594 6.563s6.563-2.932 6.563-6.564-2.932-6.594-6.564-6.594zM207.47 242.875c-8.29 0-15 6.71-15 15s6.71 15.03 15 15.03c8.287 0 15-6.74 15-15.03s-6.713-15-15-15zm150.06 0c-8.287 0-15.03 6.71-15.03 15s6.743 15.03 15.03 15.03c8.29 0 15-6.74 15-15.03s-6.71-15-15-15zm56.314 81.375c-25.584 0-43.156 23.245-43.156 47.47 31.408 25.71 51.75 67.292 51.75 114.092 0 3.008-.06 6.008-.157 9 29.105-24.928 46.94-58.54 46.94-95.5 0-20.624-5.565-40.165-15.533-57.78-14.368-12.257-27.955-17.282-39.843-17.282zM99 324.28c-11.872 0-25.49 4.995-39.875 17.25-9.968 17.617-15.5 37.19-15.5 57.814 0 36.944 17.818 70.556 46.906 95.5-.11-2.976-.155-5.992-.155-9 0-46.8 20.373-88.398 51.78-114.094.017-24.24-17.57-47.47-43.155-47.47zm102.406 35.845c-8.144 0-17.488 3.5-27.344 12.125-6.832 12.4-10.656 26.175-10.656 40.688 0 26.016 12.25 49.666 32.22 67.218-.08-2.096-.126-4.2-.126-6.312 0-32.944 13.98-62.217 35.53-80.313 0-17.023-12.072-33.405-29.624-33.405zm110.03 0c-17.55 0-29.623 16.382-29.623 33.438 21.552 18.096 35.5 47.352 35.5 80.312 0 2.112-.014 4.216-.094 6.313 19.967-17.568 32.217-41.203 32.217-67.22 0-14.51-3.808-28.287-10.656-40.687-9.855-8.623-19.182-12.17-27.342-12.155z"></path></svg>