<svg stroke="currentColor" fill="currentColor" stroke-width="0" viewBox="0 0 512 512" height="1em" width="1em" xmlns="http://www.w3.org/2000/svg"><path d="M264.19 22.39c-.554.012-1.108.02-1.66.038v-.002c-52.9 1.676-105.277 23.03-147.286 61.365-25.217 124.222 24.038 247.992 119.043 321.222-17.144-25.713-30.106-53.245-36.69-80.772-49.914-107.69-20.766-234.732 66.592-301.85zm30.68 1.706c-77.615 46.415-115.48 140.617-99.183 232.402 4.403-20.76 13.934-40.557 29.69-58.478 2.05-2.333 4.138-4.53 6.256-6.616 38.873-59.723 101.832-93.466 165.105-93.34 18.225.034 36.475 2.884 54.182 8.727-33.106-39.478-81.564-64.963-134.35-78.47-7.188-1.84-14.43-3.238-21.7-4.224zm-202.356 83.34c-10.875 12.882-20.737 27.128-29.34 42.685-22.313 40.347-37.12 88.304-42.287 137.6 2.763 107.585 83.768 194.647 188.556 206.68h215.01c-33.88-4.424-61.725-8.88-86.846-17.087-162.98-45.706-265.025-204.716-245.093-369.877zm303.812 9.142c-42.554-.115-85.028 16.918-118.607 48.483 12.745-3 25.603-3 37.925-.412l.005.002c84.882 6.24 155.457 65.86 176.76 144.68 7.134-34.17 7.018-73.436-.77-115.435-3.985-21.498-11.093-40.84-20.73-58.13-23.626-12.9-49.116-19.118-74.584-19.187zm-27.38 79.465c10.36 11.516 18.504 25.568 23.382 41.437 29.622 70.347 13.426 151.21-39.723 197.034 5.042.13 10.118-.122 15.192-.803 53.854-7.224 91.762-38.66 112.2-85.075-4.152-68.78-48.96-127.365-111.052-152.592zm-65.118 53.037c-14.914-.015-30.54 9.213-39.687 25.06-.064.11-.12.224-.185.337-21.33 35.273-19.836 71.004-5.19 99.734 27.39 4.356 56.023-4.833 79.274-23.597-18.987 3.46-38.792-.936-53.186-13.46 16.658 3.132 35.604-6.325 46.072-24.456 12.728-22.046 8.095-48.547-10.348-59.195-5.187-2.995-10.914-4.416-16.75-4.422zm84.233 69.21c-24.04 46.008-69.416 76.152-116.24 75.737 14.265 17.256 33.723 30.236 55.137 36.452 37.113-24.273 58.677-66.55 61.104-112.19zM22.688 378.01c6.39 41.997 20.944 82.144 45.07 116.392h71.77c-51.79-23.142-93.474-64.69-116.84-116.392z"></path></svg>