<svg stroke="currentColor" fill="currentColor" stroke-width="0" viewBox="0 0 512 512" height="1em" width="1em" xmlns="http://www.w3.org/2000/svg"><path d="M265.174 45.484c-.776-.007-1.267.05-1.65.112l-27.59 47.79c.304.79 1.13 2.36 2.693 4.268 3.39 4.134 9.688 9.436 17.47 13.928 7.78 4.492 15.52 7.296 20.796 8.164 2.432.4 4.205.33 5.043.197l6.99-12.105c-.318-.153-.635-.305-.946-.484-6.76-3.903-9.076-12.55-5.173-19.31 3.902-6.76 12.546-9.074 19.306-5.17.31.178.6.378.893.577l6.52-11.294c-.303-.79-1.13-2.362-2.694-4.27-3.39-4.133-9.688-9.435-17.47-13.927-7.78-4.494-15.52-7.297-20.794-8.165-1.318-.217-2.477-.3-3.394-.31zm-60.7 48.536c-1.037-.014-2.06-.004-3.068.03-16.13.52-27.71 6.237-34.203 17.483-.276.478-.728 1.883.668 5.627 1.397 3.744 4.64 9.01 9.558 14.72 9.837 11.42 26.167 24.707 46.054 36.188 19.888 11.482 39.56 18.98 54.368 21.79 7.404 1.407 13.587 1.58 17.527.917 3.94-.663 4.93-1.755 5.205-2.232v-.002c5.958-10.316 5.226-23.413-2.328-37.88-2.336-4.474-5.336-8.993-8.932-13.43-1.055.42-2.117.74-3.146.96-4.08.88-8.104.69-12.32-.004-8.427-1.388-17.713-4.997-27.104-10.418-9.392-5.422-17.16-11.66-22.576-18.266-2.708-3.303-4.888-6.693-6.166-10.666-.36-1.116-.622-2.332-.778-3.596-4.423-.757-8.7-1.168-12.757-1.22zm97.23 4.818l193.605 255.916v-231.73L301.702 98.837zM154.91 132.822L42.62 327.316l-.007.012c-.51.892-.9 2.505.434 6.313 1.34 3.824 4.512 9.13 9.385 14.872 9.744 11.483 26.056 24.766 45.943 36.248 19.887 11.48 39.55 18.966 54.365 21.664 7.41 1.35 13.59 1.442 17.57.69 3.98-.75 5.176-1.9 5.69-2.79l.002.002L288.295 209.83c-4.396-.122-9.03-.68-13.93-1.61-17.716-3.36-38.812-11.603-60.226-23.966-21.416-12.363-39.1-26.512-50.87-40.174-3.255-3.778-6.055-7.512-8.358-11.258zm33.48 64.776c5.008.09 9.662 1.28 13.788 3.662v-.008c14.67 8.47 19.61 30.27 14.66 56.482-2.465-16.616-10.93-31.077-24.73-39.04-13.8-7.96-30.553-8.064-46.174-1.89 14.537-12.503 29.654-19.44 42.455-19.206zM94.45 303.38c2.02 17.568 10.47 33.054 24.882 41.378 14.65 8.45 32.714 7.993 49.16.617v.006c-21.552 20.4-45.073 28.748-60.855 19.636-15.65-9.034-19.83-33.092-13.187-61.635zm-64.513 45.9l-8.1 14.03c-.513.887-.91 2.498.43 6.32 1.34 3.824 4.51 9.13 9.382 14.872 9.74 11.478 26.044 24.757 45.92 36.236l.024.014h.002c19.887 11.48 39.548 18.965 54.365 21.662 7.408 1.35 13.59 1.442 17.57.69 3.98-.75 5.177-1.9 5.69-2.788l8.1-14.03c-4.408-.072-9.045-.586-13.93-1.475-17.84-3.247-38.947-11.503-60.362-23.867-21.413-12.363-39.116-26.514-50.848-40.34-3.213-3.785-5.977-7.542-8.243-11.324z"></path></svg>