<svg stroke="currentColor" fill="currentColor" stroke-width="0" viewBox="0 0 512 512" height="1em" width="1em" xmlns="http://www.w3.org/2000/svg"><path d="M137.46 90.097c-14.41 28.215 25.124 70.588 17.373 101.307C138.251 257.12 73.625 335.86 18.587 382.572V479.7c106.135-46.97 180.365-213.541 215.88-311.881 46.528-2.995 84.174-5.497 118.327-9.336-5.352 10.408-10.068 22.593-16.42 35.574-34.63 70.771-62.16 210.036-43.045 254.887 18.589 31.617 59.818 41.229 93.942 40.707 32.074-.491 73.942-12.82 87.09-40.947 8.33-18.781 11.147-42.267 9.38-68.522-5.916 12.667-20.916 17.987-32.69 18.106-11.225-.905-21.359-3.517-28.331-11.286-6.913 9.653-20.358 13.77-30.383 13.871-16.499-.577-33.965-10.09-34.328-26.132 0-4.036 1.19-7.745 3.13-10.989-19.729-41.205-5.36-153.84 9.891-207.494 11.62-1.541 22.932-3.296 34.158-5.332 6.63 25.738 13.507 98.29 16.317 127.899 25.124 2.583 44.88 23.956 44.88 49.736 0 6.693-1.34 13.084-3.751 18.932 7.74 2.233 14.734 6.42 18.97 12.656-4.401-30.302-14.113-105.396-27.943-138.727-10.164-24.495-17.775-53.203-32.945-73.508 22.198-4.593 44.502-10.45 68.724-18.21-72.805-10.987-157.198-13.317-230.003-15.25 0 0-25.676-44.128-48.03-49.512-25.312-6.097-62.302 3.645-73.946 25.154zm56.256-1.883c19.389-.548 39.853 18.98 48.133 37.479-16.522 5.454-45.523.784-57.17-12.12-6.984-7.737-5.515-23.126 5.177-24.976a27.113 27.113 0 0 1 3.86-.383zm190.67 240.348c0 7.623 2.62 14.586 7.008 20.06 10.694.77 23.888 5.32 29.595 11.612 15.568-2.208 27.397-15.457 27.397-31.672 0-17.78-14.22-32-32-32s-32 14.22-32 32zm67.144 35.477a50.315 50.315 0 0 1-15.797 10.607c6.367 7.203 31.426 7.208 31.647-2.49-1.996-6.084-10.385-7.964-15.85-8.117zm-59.193 2.568c-4.527.46-16.182 1.725-16.328 8.135 2.052 6.204 10.793 8.072 16.328 8.132 4.526-.46 16.182-1.724 16.328-8.132-2.05-6.208-10.792-8.075-16.328-8.135z"></path></svg>