<svg stroke="currentColor" fill="currentColor" stroke-width="0" viewBox="0 0 512 512" height="1em" width="1em" xmlns="http://www.w3.org/2000/svg"><path d="M87.49 27.99C58.7 27.99 35.5 51.17 35.5 80c0 28.8 23.2 52 52 52s52-23.2 52-52c0-28.83-23.2-52.01-52.01-52.01zM219.5 54.55c-2.6 4.13-4 9.58-4.5 15.32-20.8-.7-39.2-1.03-58.3-.73.8 6.29 1.1 12.15.4 18 19.8-.25 39.1 0 58.2.77.3 3.12.7 5.96 1.2 8.26-11.9 24.43-25.4 44.13-32.3 70.43 2.3 24.6 5.2 53.2 23.1 77.7 5 19.9 9.1 39.7 14.6 59.6 2.1-25.1 7.6-51.9 21.4-79.2-1.9-9.1-2.1-17.2-1.3-25.7-4.2-8.1-9.8-16.2-19.2-24 12.9-23.8 13.2-46.2 17.6-71.8l19.5-4.78c1.8-2.39 3.3-4.92 4.4-7.56 31 2.54 61.2 6.27 90.6 10.94.6-6.09 2-11.99 4.1-17.56-29.6-4.75-60-8.55-91.2-11.17 0-4.55-.4-9.28-1.1-14.13-17.1-2.57-31.6-6.06-47.2-4.39zm205 2.44c-28.8 0-52 23.18-52 52.01 0 28.8 23.2 52 52 52s52-23.2 52-52c0-28.83-23.2-52.01-52-52.01zm-135 108.11c-7.5 0-14.6 3.9-20.3 11.6-5.8 7.6-9.7 18.8-9.7 31.3 0 6.6 1.1 13.6 3 19.1 8.9-3.1 18.1-7.5 26.7-15 7.9 6.4 16.6 10.9 26.8 15 2.2-5.9 3.5-11.9 3.5-19.1 0-12.5-3.9-23.7-9.7-31.3-5.7-7.7-12.8-11.6-20.3-11.6zm-.3 58.9c-6.8 10.6-8.8 14.7-21.7 12.9 5.3 7.4 12.7 14.1 22 14 10.4-.1 17.2-6.5 21.8-13.8-11.2.8-16.9-3.1-22.1-13.1zm60.8 28.3c2.4 25.1 3.6 39.4 1.5 63.8 2.2 3.2 2.8 19.1 11.1 22.5-12.8 6.5-17.6 24.1-24.6 31-18.2 21.6-31.1 55.3-43.6 86.3 3.7 12.8 8.3 25.5 13.7 38.1H365c-5.6-27.2-13.6-54.7-22.2-82.1 3.4-5.4 3-4 6.5-23 14.9-10.2 47.2-27.3 52.6-49.6-5-19.9-11.7-32.8-23.5-49.9 2.8-24.2-16.2-30.8-28.4-37.1zm-100.3 3.4c-3.5 10.4-5.9 20.7-7.6 30.9l13.9-1.2c-3.2-9.7-4.9-20.1-6.3-29.7zm65.9 3.5c-7.4 6-16.4 9.7-26.1 9.7-7.4 0-14.3-2.1-20.4-5.7.5 2.4.9 4.8 1.5 7.2 1.9 8.5 4.7 16.8 8 22.4 3.2 5.5 6 7.5 8.9 7.7 3.1.2 6.6-1.5 10.9-6.7 4.4-5.2 8.7-13.2 12.2-21.4 1.9-4.5 3.6-9 5-13.2zm17.4 5c-2.8 7.9-5.3 14.6-8.6 21.5l9.8.5c-.2-7.3-.6-14.6-1.2-22zm-69.4 38.7l-23.7 2c-.6 7.7-.9 15.4-1.1 23l94.6-1.5c.7-7.3 1-14.7 1.1-22.1l-20.5-1.1c-7.6 8.6-18.5 15.7-27.7 15.3-10.3-.7-17.8-7.7-22.7-15.6zm65.6 41.5l-90.4 1.5c-.9 9.3 6.9 16.2 12.3 20.3l66.7-.2c7.2-8 8.6-11.2 11.4-21.6zM236 376.8c-14.4 39-29.7 77.9-41.2 117.2h53.1c6.7-12.3 12.8-24.9 18-37.8-.7-31.9-14.5-62.9-29.9-79.4zm70.3 7.3l-41.9.1c7.8 13.1 11.8 28.8 15 45.6l8.3-.8c6.1-15.2 10.6-30.7 18.6-44.9z"></path></svg>