<svg stroke="currentColor" fill="currentColor" stroke-width="0" viewBox="0 0 512 512" height="1em" width="1em" xmlns="http://www.w3.org/2000/svg"><path d="M176.627 28.995C148.28 58.81 115.299 96.145 87.199 133.61 54.425 177.31 29.385 221.68 25.59 249.331l105.706 26.426c2.423-83.416 27.743-164.682 45.332-246.762zm158.746 0c19.444 82.462 39.362 163.183 45.332 246.762L486.41 249.33c-3.795-27.652-28.835-72.022-61.61-115.72-28.099-37.466-61.08-74.8-89.427-104.616zM55 80.21v67.19a858.533 858.533 0 0 1 17.8-24.59l.2-.262V80.21zm384 0v42.338l.2.262A858.535 858.535 0 0 1 457 147.4V80.21zm-192 32v52.648c5.93-4.323 12.122-3.717 18 0V112.21zm9 68.65c-9.092 6.936-16.603 16.958-22.553 25.674-4.776 7.036-9.08 14.404-12.068 20.695-2.887 6.078-4.215 11.405-4.307 12.674l14.553 87.307h48.75l14.553-87.307c-.092-1.27-1.42-6.596-4.307-12.674-2.989-6.291-7.292-13.66-12.068-20.695-7.091-9.554-13.257-18.898-22.553-25.674zm-10 31.35h20l14 36h-48zm-94.043 26.912l-13.855 193.973L180.09 412.1l-14.213-63.96 45.889-30.591-8.15-48.91zm208.086 0l-51.656 29.518-8.153 48.91 45.89 30.592-14.214 63.959 41.988 20.994zM39.057 271.251c19.713 24.978 40.743 50.236 58.359 75.86 9.945 14.464 18.821 29.098 25.643 43.954l6.935-97.08zm433.886 0l-90.937 22.734 6.935 97.08c6.822-14.856 15.698-29.49 25.643-43.955 17.616-25.623 38.646-50.88 58.36-75.859zm-257.933 65.77l-28.887 19.257 18.43 82.932H231v-48h16v-46h-30.625zm81.98 0l-1.365 8.189H265v46h16v48h26.447l18.43-82.932zM208.553 457.21l5.732 25.795L231 474.647V457.21zm72.447 0v17.437l16.715 8.358 5.732-25.795z"></path></svg>