<svg stroke="currentColor" fill="currentColor" stroke-width="0" viewBox="0 0 512 512" height="1em" width="1em" xmlns="http://www.w3.org/2000/svg"><path d="M38.748 473.09a20.53 20.53 0 1 0 0-29 20.46 20.46 0 0 0 0 29zm89.32-218a8.51 8.51 0 1 1 12 12 38.43 38.43 0 0 0 0 54.36l50.6 50.52a38.47 38.47 0 0 0 54.4 0 8.54 8.54 0 0 1 12-.06 8.42 8.42 0 0 1 0 12 55 55 0 0 1-39.22 16.06 54.94 54.94 0 0 1-39.22-16.08l-50.56-50.37a55.46 55.46 0 0 1 0-78.43zm314.86-196.81c8.78-8.31 36.35-25.4 36.35-25.4s-17.08 27.56-25.4 36.35c-58.39 61.66-215.17 222.6-267.3 276.06l-19.71-19.71c53.46-52.13 214.4-208.91 276.06-267.3zm-336.79 325.53c8.8-8.8 17.5-16.88 25.68-23.94l20.47 20.47c-7.07 8.19-15.14 16.88-23.94 25.68a423.48 423.48 0 0 1-41.95 37.16 36.77 36.77 0 0 0-17.33-17.54 424 424 0 0 1 37.07-41.83z"></path></svg>