<svg stroke="currentColor" fill="currentColor" stroke-width="0" viewBox="0 0 512 512" height="1em" width="1em" xmlns="http://www.w3.org/2000/svg"><path d="M383.594 20.313c-28.797 0-57.576 10.982-79.53 32.937L53.093 304.188c-43.91 43.912-43.91 115.184 0 159.093 43.91 43.91 115.214 43.912 159.125 0l250.936-250.936c43.91-43.913 43.91-115.185 0-159.094-21.955-21.954-50.765-32.937-79.562-32.938zm9.97 23.812c3.18 0 6.352 1.23 8.78 3.656 4.853 4.855 4.853 12.71 0 17.564-4.854 4.853-12.71 4.853-17.563 0-4.852-4.854-4.852-12.71 0-17.563 2.428-2.426 5.6-3.655 8.783-3.655zm34.155 34.156c3.18 0 6.353 1.2 8.78 3.626 4.854 4.854 4.854 12.74 0 17.594-4.854 4.854-12.74 4.854-17.594 0-4.853-4.854-4.853-12.74 0-17.594 2.427-2.427 5.632-3.625 8.813-3.625zm-69.314 1c3.18 0 6.354 1.23 8.78 3.657 4.855 4.854 4.855 12.71.002 17.563-4.854 4.854-12.71 4.854-17.563 0-4.854-4.854-4.854-12.71 0-17.563 2.427-2.426 5.6-3.656 8.78-3.656zm34.156 34.157c3.182 0 6.354 1.198 8.782 3.626 4.853 4.853 4.853 12.74 0 17.593-4.854 4.854-12.74 4.854-17.594 0-4.854-4.853-4.854-12.74 0-17.594 2.427-2.426 5.63-3.625 8.813-3.624zm71.813 1.5c3.18 0 6.354 1.23 8.78 3.657 4.855 4.853 4.855 12.71 0 17.562-4.852 4.854-12.708 4.854-17.56 0-4.855-4.853-4.855-12.71 0-17.562 2.426-2.427 5.6-3.657 8.78-3.656zm-142.625 1c3.18 0 6.354 1.23 8.78 3.657 4.855 4.853 4.855 12.71 0 17.562-4.852 4.854-12.74 4.854-17.592 0-4.854-4.853-4.854-12.71 0-17.562 2.426-2.427 5.63-3.657 8.812-3.656zm34.125 34.157c3.18 0 6.385 1.23 8.813 3.656 4.853 4.854 4.853 12.71 0 17.563-4.854 4.853-12.74 4.853-17.594 0-4.854-4.854-4.854-12.71 0-17.563 2.427-2.427 5.6-3.656 8.78-3.656zm73.344 0c3.18 0 6.353 1.23 8.78 3.656 4.854 4.854 4.854 12.71 0 17.563-4.854 4.853-12.71 4.853-17.563 0-4.853-4.854-4.853-12.71 0-17.563 2.427-2.427 5.6-3.656 8.782-3.656zm-194.814 4.5l13.22 13.22-73.907 73.905-13.22-13.22 73.906-73.906zm55.78 0l73.908 73.906-13.22 13.22-73.905-73.907 13.217-13.22zm102.377 32.156c3.18 0 6.353 1.23 8.78 3.656 4.854 4.854 4.854 12.71 0 17.563-4.853 4.852-12.74 4.852-17.593 0-4.854-4.855-4.854-12.71 0-17.564 2.427-2.427 5.63-3.656 8.813-3.656zm-41.688 84.28l13.22 13.22-73.94 73.938-13.186-13.22 73.905-73.937zm-177.156.033l73.905 73.906-13.22 13.217L160.5 284.25l13.22-13.188zm-42.25 35.156c3.18 0 6.353 1.196 8.78 3.624 4.854 4.853 4.854 12.74 0 17.594-4.854 4.853-12.71 4.853-17.563 0-4.853-4.854-4.853-12.74 0-17.594 2.427-2.427 5.6-3.625 8.782-3.625zm34.155 34.155c3.18 0 6.354 1.198 8.78 3.625 4.855 4.854 4.855 12.74 0 17.594-4.852 4.853-12.708 4.853-17.56 0-4.855-4.854-4.855-12.74 0-17.594 2.426-2.427 5.6-3.625 8.78-3.625zm-69.313 1c3.182 0 6.354 1.198 8.782 3.625 4.853 4.854 4.853 12.74 0 17.594-4.854 4.853-12.71 4.853-17.563 0-4.852-4.854-4.852-12.74 0-17.594 2.428-2.427 5.6-3.625 8.782-3.625zm34.157 34.156c3.18 0 6.353 1.2 8.78 3.626 4.854 4.854 4.854 12.74 0 17.594-4.854 4.854-12.71 4.854-17.563 0-4.853-4.854-4.853-12.74 0-17.594 2.427-2.427 5.6-3.625 8.782-3.625zm71.81 1.5c3.182 0 6.355 1.2 8.782 3.626 4.854 4.854 4.854 12.74 0 17.594-4.853 4.854-12.708 4.854-17.562 0-4.854-4.854-4.854-12.74 0-17.594 2.427-2.427 5.6-3.625 8.78-3.625zm-142.624 1c3.18 0 6.354 1.2 8.782 3.626 4.853 4.854 4.853 12.74 0 17.594-4.854 4.854-12.71 4.854-17.563 0-4.854-4.854-4.854-12.74 0-17.594 2.427-2.427 5.6-3.625 8.78-3.625zm34.157 34.158c3.18 0 6.353 1.197 8.78 3.625 4.854 4.853 4.854 12.74 0 17.593-4.853 4.854-12.708 4.854-17.562 0-4.852-4.853-4.852-12.74 0-17.594 2.428-2.426 5.6-3.625 8.782-3.625zm73.312 0c3.18 0 6.354 1.197 8.78 3.625 4.855 4.853 4.855 12.74 0 17.593-4.852 4.854-12.708 4.854-17.56 0-4.855-4.853-4.855-12.74 0-17.594 2.426-2.426 5.6-3.625 8.78-3.625zm-36.656 36.656c3.18 0 6.353 1.23 8.78 3.656 4.854 4.854 4.854 12.71 0 17.563-4.854 4.853-12.71 4.853-17.563 0-4.853-4.854-4.853-12.74 0-17.594 2.427-2.428 5.6-3.626 8.782-3.626z"></path></svg>