<svg stroke="currentColor" fill="currentColor" stroke-width="0" viewBox="0 0 512 512" height="1em" width="1em" xmlns="http://www.w3.org/2000/svg"><path d="M110.037 23.27c-1.32.075-2.665.417-4.014 1.073L79 41.943l10.5 21.58 30.525-10.405c13.04-6.344 2.762-30.57-9.988-29.847zm110.926 0c-12.75-.723-23.027 23.504-9.988 29.848L241.5 63.523l10.5-21.58-27.023-17.6c-1.35-.656-2.695-.998-4.014-1.072zM65.475 51.473L28.5 69.96v5.563c0 42.4 16.395 98.962 41.02 146.164 12.315 23.6 26.693 44.793 42.67 60.504 13.498 13.274 28.41 22.913 44.398 25.585 1.247 64.995 17.26 110.633 42.027 140.044 25.804 30.642 61.022 42.836 95.446 40.685 53.712-3.357 106.658-40.218 127.342-92.984a79.726 79.726 0 0 1-18.777-2.27c-19.496 43.688-64.946 74.494-109.686 77.29-29.577 1.85-58.36-7.957-80.555-34.314-21.268-25.256-36.55-66.5-37.793-128.483 15.92-2.713 30.77-12.33 44.22-25.552 15.975-15.71 30.353-36.903 42.667-60.503 24.625-47.202 41.02-103.764 41.02-146.164V69.96l-36.975-18.488-8.05 16.1 26.763 13.384c-1.344 37.38-16.41 89.65-38.717 132.403-11.685 22.398-25.307 42.205-39.33 55.995-14.024 13.79-28.065 21.168-40.69 21.168-12.625 0-26.666-7.378-40.69-21.168-14.023-13.79-27.645-33.597-39.33-55.997-22.308-42.753-37.374-95.02-38.718-132.402l26.763-13.383-8.05-16.1zM421.5 253.522c-34.348 0-62 27.652-62 62 0 34.35 27.652 62 62 62s62-27.65 62-62c0-34.348-27.652-62-62-62zm0 30c17.567 0 32 14.434 32 32 0 17.567-14.433 32-32 32s-32-14.433-32-32c0-17.566 14.433-32 32-32zm0 18c-7.84 0-14 6.162-14 14 0 7.84 6.16 14 14 14s14-6.16 14-14c0-7.838-6.16-14-14-14z"></path></svg>