<svg stroke="currentColor" fill="currentColor" stroke-width="0" viewBox="0 0 512 512" height="1em" width="1em" xmlns="http://www.w3.org/2000/svg"><path d="M261.9 34.73c-25.2-.2-52.1 1.53-77.5 6.71-14.9 10.66-28.3 22.71-40.3 35.76l20.3 5.33-41 20.27C88.35 151.9 70.85 210 69.86 261 68.63 324.8 88.51 379.4 122 418.4l14.3-1.1-3.4 12.7c14.8 14.5 31.6 26.3 50.1 35 21.5 5.7 43.7 10.1 64.8 12.2-17.6-11.1-33.5-26.5-47.2-44.5l-26.1-9.9 10.3-13.4c-27.5-45.5-43.7-100.9-44-147.3-.2-22.6 3.4-47.5 10.3-72.3l-28 8.1 34.3-28.5c7.3-20.8 16.7-41.2 28.1-59.9 20.5-33.57 47.8-61.81 80.1-74.71-1.3 0-2.5 0-3.7-.1zm43.6 10.57c-41.2-.82-77.9 29.89-104.6 73.6-9.5 15.5-17.6 32.6-24.1 50.1l19.1 19.9-24.9-2.7c-8 26.3-12.4 52.7-12.2 75.7.3 43.8 16.8 99.3 44.3 142.7.2.4.5.8.7 1.1l24.3 7.1-6.3 17.4c24.7 29.1 54.8 47.9 87.5 47.1 20.5-.5 39.4-9 56.1-23.2l-9-26.3 26.5 8.5c8.1-9.6 15.5-20.6 22.2-32.6 23.6-42.4 37-96.1 37.1-137.9.1-43.4-13.3-99.4-37.6-143.7-12-21.9-26.4-40.73-42.8-54.26l-14.1 15.57-23.8-35.6c-6-1.52-12.1-2.39-18.4-2.51zm14 151.8l6.1 6.4c3.4 3.5 6.7 7.1 10 10.7l14.6-1.6-1.1 17.8c7.9 10.4 14.9 21.8 19.8 34.9l1.2 3.2-1.2 3.1c-7.5 20.5-24.7 43.9-44.5 60.5l-5.8 4.8-5.7-4.8c-20.1-16.6-38.7-37.7-49.8-61.2l-1.9-4 2-4c10.8-21.5 30.6-41.9 49.8-59.8zm-.7 25.5c-12.2 11.7-23.7 24.1-32.1 36.2 19.4 1.5 41.7 1.2 59.5.3-7.1-13.2-16.8-25-27.4-36.5zm-31.7 54.2c8.4 13.1 19.4 25.5 31.5 36.3 11.1-10.7 21.3-24 27.9-36-17.8 1-39.5 1.3-59.4-.3z"></path></svg>