<svg stroke="currentColor" fill="currentColor" stroke-width="0" viewBox="0 0 512 512" height="1em" width="1em" xmlns="http://www.w3.org/2000/svg"><path d="M206.893 18.176l-27.23 74.533-84.936-28.235 17.134 83.593-86.297 25.768 51.99 54.76-59.252 48.69 93.805 25.314-72.3 67.283 50.978 13.012-22.8 51.867 60.937-37.405-13.543 86.213 100.975-61.183 39.156 75.894 39.135-61.16 77.744 46.284-2.74-93.998 85.386 35.367-31.36-70.043 48.653 1.272-42.88-52.065 63.88-19.67-63.064-36.73 57.404-72.982-70.96-12.328 66.82-100.553-109.022 44.486 13.414-65.402-71.193 58.504-13.135-65.244-41.22 52.388-55.477-68.23zm52.345 90.98h.047c82.104 0 146.59 52.22 146.59 113.3 0 19.404-9.242 30.604-25.768 41.433-16.525 10.827-40.02 19.56-63.863 30.28l-7.377 3.318 26.863 93.87c-8.333 2.637-17.08 4.926-26.1 6.845l-20.482-46.38-2.753 50.406c-8.003 1.085-16.117 1.883-24.26 2.377l-10.55-51.603-12.626 52.178c-8.13-.1-16.204-.517-24.138-1.274l-2.656-49.922-20.033 46.727c-9.805-1.852-19.24-4.285-28.1-7.36l34.276-92.197-6.82-3.953c-19.516-11.314-40.035-21.866-54.97-33.846-14.936-11.98-23.823-24.21-23.823-40.902 0-61.068 64.46-113.278 146.54-113.3zm62.9 55.53c-29.543-.155-56.048 24.43-50.378 65.375 10.284 74.273 136.613 22.558 103.254-32.357-13.756-22.645-33.94-32.915-52.877-33.016zm-140.925.486c-17.51.267-34.493 10.685-42.723 36.69-16.22 51.262 72.746 97.79 95.4 26.2 10.138-32.038-20.812-62.226-50.982-62.884-.565-.013-1.13-.015-1.695-.006zm3.63 21.062c16.585 0 30.23 13.645 30.23 30.23 0 16.587-13.645 30.23-30.23 30.23-16.583 0-30.23-13.643-30.23-30.23 0-16.584 13.646-30.23 30.23-30.23zm0 18.69c-6.484 0-11.54 5.056-11.54 11.54 0 6.488 5.055 11.544 11.54 11.544 6.487 0 11.544-5.056 11.544-11.543 0-6.487-5.057-11.54-11.543-11.54zm139.764 0c6.486 0 11.543 5.054 11.543 11.54 0 6.488-5.057 11.544-11.543 11.544-6.485 0-11.54-5.056-11.54-11.543 0-6.485 5.055-11.54 11.54-11.54zm-70.613 55.105l-22.414 49.923h37.188l-14.774-49.924z"></path></svg>