<svg stroke="currentColor" fill="currentColor" stroke-width="0" viewBox="0 0 512 512" height="1em" width="1em" xmlns="http://www.w3.org/2000/svg"><path d="M252.346 18.877c-19.536.195-39.364 2.83-59.108 8.12C66.88 60.852-8.105 190.73 25.752 317.086c33.09 123.493 157.892 197.898 281.49 169.604-11.01-2.66-21.492-6.692-31.254-11.903-59.243 4.118-116.364-17.684-157.722-57.52l89.226-30.038-116.346-2.033c-9.852-14.41-17.99-30.27-24.054-47.36l138.064-4.85-148.19-36.716c-2.512-18.358-2.487-36.612-.18-54.366l164.66 47.21-153.97-91.075c7.012-19.295 16.845-37.454 29.155-53.843l154.395 108.356L132.96 106.785c18.577-14.824 39.982-26.635 63.677-34.49l95.49 158.21L247.06 62.22c4.312-.314 8.61-.492 12.895-.534 21.16-.212 41.92 2.86 61.656 8.837l29.372 152.756 16.305-132.65c21.806 12.92 41.258 29.83 57.164 50.042l-17.634 102.236 38.36-70.15c6.86 13.168 12.408 27.278 16.41 42.215 8.77 32.73 9.173 65.732 2.52 96.734 4.368 12.062 7.048 24.927 7.742 38.31 20.578-47.373 25.888-101.77 11.482-155.535C454.763 87.868 357.838 17.825 252.346 18.877zm88.484 223.426c3.214 1.914 6.224 4.218 8.955 6.95 12.214 12.213 16.07 29.897 13.256 47.35-2.814 17.45-12.047 35.214-26.825 49.993-14.78 14.78-32.543 24.01-49.994 26.826-17.45 2.814-35.133-1.044-47.347-13.258-6.858-6.858-11.08-15.44-12.967-24.736-1.324 6.987-2.025 14.2-2.025 21.578 0 63.473 51.256 114.728 114.73 114.728 63.473 0 114.73-51.255 114.73-114.728 0-62.73-50.067-113.524-112.51-114.703zm-28.34 11.478c-2.28.05-4.643.268-7.08.66-12.997 2.098-27.555 9.392-39.756 21.593-12.2 12.2-19.495 26.758-21.59 39.756-2.098 12.997.75 23.89 8.022 31.16 7.27 7.272 18.163 10.12 31.16 8.025 12.998-2.097 27.557-9.39 39.758-21.592 12.2-12.2 19.493-26.76 21.59-39.758 2.096-12.998-.75-23.89-8.022-31.16-5.453-5.454-12.944-8.418-21.832-8.676-.74-.022-1.49-.025-2.25-.01zm-13.808 20.35c4.61-.08 8.81 1.342 11.857 4.388 7.496 7.497 5.16 21.99-5.222 32.37-10.38 10.382-24.875 12.72-32.373 5.223-7.497-7.496-5.16-21.99 5.22-32.372 6.165-6.164 13.78-9.492 20.517-9.61z"></path></svg>