<svg stroke="currentColor" fill="currentColor" stroke-width="0" viewBox="0 0 512 512" height="1em" width="1em" xmlns="http://www.w3.org/2000/svg"><path d="M36.195 295.215c11.482-39.19 64.37-91.15 97.155-138.632 61.773-28.665 90.453 1.999 158.835-53.994 43.305 14.096 84.51 31.63 114.28 49.593l-17.8 56.114c32.894 14.682 63.743 35.79 105.873 21.442-3.346 42.22 11.428 74.85-43.66 108.588-21.82-9.826-58.49-8.026-76.74-38.76-.527 38.876-18.157 85.136-32.11 109.845-8.67-.595-61.844-63.654-61.927-100.613-18.917 2.472-34.672 56.343-49.147 82.293l-92.234 13.525c-20.307-27.104-27.568-62.376-46.931-92.121-20.937-32.161-38.676 39.801-70.465 52.475-9.423-9.163-.504-34.417 14.87-69.755z"></path></svg>