<svg stroke="currentColor" fill="currentColor" stroke-width="0" viewBox="0 0 512 512" height="1em" width="1em" xmlns="http://www.w3.org/2000/svg"><path d="M191.016 21.223l30.134 64.965-118.543-63.64 59.25 77.796-123.93-74.23L139.96 160.796l-86.446-49.315 69.675 89.41-41.096-16.087 55.174 59.226c-.14-2.69-.21-5.4-.21-8.124 0-42.632 17.186-81.3 44.98-109.478 35.214-25.46 80.616-19.796 119.876-1.115 11.515 5.478 22.556 12.13 32.926 19.515l23.685 19.252c11.312 10.59 21.05 21.986 28.627 33.607l77.15-68.765.01-.008c17.818-15.805 23.727-28.155 25.663-43.726 1.432-11.527-.004-26.39-1.815-43.502L368.84 147.262l-12.75-13.674 13.353-11.815c-12.63-8.46-26.75-14.87-41.884-18.78L260.17 30.726l22.723 63.59-91.88-73.094zm46.02 106.662c-15.684.07-30.484 4.126-43.352 13.195-23.513 24.63-37.94 58.012-37.94 94.826 0 75.94 61.36 137.3 137.3 137.3 75.938 0 137.296-61.36 137.296-137.3 0-15.76-2.652-30.89-7.522-44.976l-40.46 36.064-5.604-10.443c-14.45-26.928-47.06-57.324-82.87-74.363-19.023-9.05-38.534-14.383-56.847-14.302zm-104.73 173.053l-44.15 39.156 87.63 98.812 44.15-39.158-14.5-16.348-24.225 21.504-51.17-57.818-6.18-6.982 24.146-21.463-15.7-17.702zm34.274 26.197l-16.367 14.55 32.59 36.82 18.554-16.47c-13.347-9.727-25.097-21.517-34.777-34.9zm-60.207 61.668L75.867 415.86l38.21 15.146 16.638-14.756-24.342-27.447zM60.377 429.82l8.598 41.19 29.44-26.112-38.038-15.078zm-16.148 14.1l-21.304 18.894c-.68 8.615 1.325 14.94 5.197 19.33 3.872 4.39 10.162 7.378 19.262 8.014l5.48-4.86-8.636-41.378z"></path></svg>