<svg stroke="currentColor" fill="currentColor" stroke-width="0" viewBox="0 0 512 512" height="1em" width="1em" xmlns="http://www.w3.org/2000/svg"><path d="M256 25c-41.6 0-82.7 15.32-104.4 43.96-21.9 43.14-53.71 90.84-79.96 135.54C45.2 249.5 25 292 25 320c0 61.8 22.3 102 61.99 128.5 8.64 5.8 18.11 10.8 28.51 15.3-15.2-17.7-28.93-43-39.77-68.3C63.44 366.9 55 339 55 320c0-12.5 7.22-24.6 17.14-38.7 9.92-14.1 23.19-29.4 37.46-43.7 14.3-14.3 29.6-27.5 43.7-37.5 11.2-7.9 21.1-14 31-16.2-.8-2.5-1.3-5.1-1.3-7.9 0-9.7 5.7-18.2 13.9-22.3-3.1-2.2-6-4.5-8.8-6.9-15-12.9-27.6-29.7-36.2-46.8l16.2-8.03c7.4 14.93 18.8 30.13 31.8 41.23 12.9 11 27.1 17.8 40.1 17.8v18c-2.8 0-5.5-.2-8.2-.6.8 2.4 1.2 5 1.2 7.6 0 9.3-5.3 17.6-13 21.9 13.1 6.2 24.7 9.1 36 9.1s22.9-2.9 36-9.1c-7.7-4.3-13-12.6-13-21.9 0-2.6.4-5.2 1.2-7.6-2.7.4-5.4.6-8.2.6v-18c13 0 27.2-6.8 40.1-17.8 13-11.1 24.4-26.3 31.8-41.23l16.2 8.03c-8.6 17.1-21.2 33.9-36.2 46.8-2.8 2.4-5.7 4.7-8.8 6.9 8.2 4.1 13.9 12.6 13.9 22.3 0 2.8-.5 5.4-1.3 7.9 9.9 2.2 19.8 8.3 31 16.2 14.1 10 29.4 23.2 43.7 37.5 14.3 14.3 27.5 29.6 37.5 43.7 9.9 14.1 17.1 26.2 17.1 38.7 0 19-8.4 46.9-20.7 75.5-10.9 25.3-24.6 50.6-39.8 68.3 10.4-4.5 19.9-9.5 28.5-15.3 39.7-26.5 62-66.7 62-128.5 0-28-20.3-70.4-46.7-115.4-26.3-44.8-58.1-92.4-79.9-135.66C338.6 40.32 297.6 25 256 25zm-66 176.4c-4.7 1-15 5.5-26.3 13.5-12.9 9-27.6 21.8-41.3 35.5-13.7 13.7-26.46 28.4-35.54 41.3C77.78 304.6 73 316.5 73 320c0 7.6 2.6 20.4 7.09 35.2L195.3 240l28.7 71.8 32-80 32 80 28.7-71.8 115.2 115.1c4.5-14.7 7.1-27.5 7.1-35.1 0-3.5-4.8-15.4-13.9-28.3-9-12.9-21.8-27.6-35.5-41.3-13.7-13.7-28.4-26.5-41.3-35.5-11.3-8-21.6-12.5-26.3-13.5-23.6 15.3-44.5 23.6-66 23.6s-42.4-8.3-66-23.6zm121.8 190.3c-5.5 0-11.9 2.3-19.6 5.9-10.3 4.7-22.1 11.4-36.2 11.4-14.1 0-25.9-6.7-36.2-11.4-7.7-3.6-14.1-5.9-19.6-5.9-1.9 0-3.6.2-5.3.8-11.6 3.9-27.9 22.4-39.5 40.4-4.4 6.8-8.2 13.5-11.2 19.1 71.4-11.9 152.2-11.9 223.6 0-3-5.6-6.8-12.3-11.2-19.1-11.6-18-27.9-36.5-39.5-40.4-1.7-.6-3.4-.8-5.3-.8zM256 461c-41 0-81.9 3.5-119.4 10.5C170.1 482 210.4 487 256 487c45.6 0 85.9-5 119.4-15.5-37.5-7-78.4-10.5-119.4-10.5z"></path></svg>