<svg stroke="currentColor" fill="currentColor" stroke-width="0" viewBox="0 0 512 512" height="1em" width="1em" xmlns="http://www.w3.org/2000/svg"><path d="M225.691 394.74a91.308 91.308 0 1 0-91.308-91.309 91.308 91.308 0 0 0 91.308 91.308zm0-132.663a41.345 41.345 0 1 1-41.344 41.345 41.392 41.392 0 0 1 41.344-41.345zm-13.778 41.345a13.778 13.778 0 1 1 13.778 13.759 13.797 13.797 0 0 1-13.788-13.75zm160.047-73.068a52.056 52.056 0 1 0-52.056-52.056 52.056 52.056 0 0 0 52.056 52.056zm0-75.628a23.572 23.572 0 1 1-23.572 23.572 23.6 23.6 0 0 1 23.572-23.553zm-7.854 23.572a7.854 7.854 0 1 1 7.854 7.855 7.864 7.864 0 0 1-7.864-7.855zm114.106 1.357v-1.022-.134a103.194 103.194 0 0 0-2.962-31.684l14.839-3.67A122.304 122.304 0 0 0 464.29 93.46l-11.485 9.976a103.749 103.749 0 0 0-22.483-19.645c-.84-.545-1.7-1.061-2.56-1.577l7.892-13.1a117.527 117.527 0 0 0-53.757-16.664l-.955 15.288v.163c-2.322-.153-4.654-.077-7.004-.077H350.06V52.506h-45.864v15.288h-30.577V52.506h-45.864v15.288H197.18V52.506h-45.864v15.288h-30.576V52.506H74.875v15.288H44.299V52.506H18.5v46.82h355.38c28.666 0 53.28 14.916 65.93 39.892a73.335 73.335 0 0 1 7.95 38.22v.44a71.959 71.959 0 0 1-10.682 32.487c-25.216 40.963-68.386 96.305-113.82 155.002a153.97 153.97 0 0 1-20.018 21.566 122.304 122.304 0 0 1-75.246 25.798H18.5v31.532h10.51v15.288h45.865v-15.288h30.576v15.288h45.864v-15.288h30.576v15.288h45.864v-15.498a145.762 145.762 0 0 0 21.824-1.615h.153l2.236 15.145a163.812 163.812 0 0 0 50.565-16.13l-6.975-13.682a149.794 149.794 0 0 0 26.916-17.59l9.737 11.857a164.146 164.146 0 0 0 28.025-29.554l6.364-8.6-12.317-9.058 18.155-24.623 12.25 9.02 27.183-36.94-12.316-9.058 18.154-24.623 12.317 9.058 27.146-36.95-12.317-9.058 13.177-17.839a107.215 107.215 0 0 0 5.035-7.51l13.033 8.026a117.336 117.336 0 0 0 17.4-53.575zm-231.853 232.37a118.148 118.148 0 0 0 35.287-11.467 117.986 117.986 0 0 1-35.287 11.466zM18.5 394.73v-49.964a41.392 41.392 0 0 0 40.924-41.335A41.392 41.392 0 0 0 18.5 262.096v-49.973a91.308 91.308 0 0 1 90.888 91.308A91.308 91.308 0 0 1 18.5 394.73zm0-77.55v-27.518a13.788 13.788 0 0 1 13.377 13.76A13.788 13.788 0 0 1 18.5 317.18z"></path></svg>