<svg stroke="currentColor" fill="currentColor" stroke-width="0" viewBox="0 0 512 512" height="1em" width="1em" xmlns="http://www.w3.org/2000/svg"><path d="M287.9 76.19v.01h-1.1c-1.9.1-5.4 1.68-9.3 5.36-3.9 3.69-8 9.05-11.5 14.52C258.9 107 254.2 118 254.2 118l-5.1 12-9.4-9s-11-10.5-24.4-19.6c-6.7-4.46-14-8.5-20.2-10.59-6.2-2.09-10.7-1.98-13.1-.75-5.2 2.67-9.7 9.27-12.8 19.24-3.1 10.1-4.6 22.8-5 35.1-.8 24.7 2.4 47.6 2.4 47.6l2.3 15.9-14.8-6.3s-9.7-4.2-20.4-6.8c-5.4-1.2-11-2-15-1.9-4.1.2-5.9 1.2-6.4 1.8-2.7 3.3-3.9 9.4-2.6 17.9 1.2 8.6 4.8 18.9 9.1 28.5 8.6 19.3 19.8 36 19.8 36l9.8 14.5-17.6-.5c.1 0-10.1-.3-21.7 1.1-11.57 1.4-23.95 5.8-26.76 9-10.59 12.2-14.01 26.1-13.15 41.2.87 15.2 6.38 31.4 13.83 45.9s16.81 27.3 24.58 35.8c.7.7 1.3 1.4 2 2 16-9.9 25.7-25.6 33.2-46.2 9.2-25.6 14-58 21.3-91.1 7.3-33.2 17.1-67.3 37.7-96.3 20.7-29.1 52.3-52.6 100.7-64 13.7-3.2 26.7-4.7 38.9-4.8-3-4.5-6.5-9.3-10.5-14.4-7.1-9.1-15.2-17.93-23.1-24.09-7.4-5.78-14.5-8.87-19.9-9.02zM148.6 118.7c-22 4.2-47.7 28.3-69.23 63.3-21.89 35.5-39.78 81.1-48.85 123.9-9.08 42.7-8.81 82.7 2.39 105.7 5.6 11.5 13.22 18.8 24.37 22.2 8.66 2.7 19.98 2.9 34.36-.7-8.29-9.6-17.18-22.1-24.61-36.6-8.26-16.1-14.72-34.3-15.79-53-1.06-18.7 3.64-38.1 17.53-54.1 9.68-11.2 25.08-13.4 38.13-15 3.3-.4 5.6-.5 8.5-.6-4-6.9-8.7-15.6-13.1-25.3-4.62-10.6-8.76-22-10.4-33.3-1.64-11.2-.87-23 6.61-32v-.1c5.19-6.2 12.69-7.9 19.39-8.2 6.8-.2 13.6.9 19.9 2.4 3.4.8 6.5 1.7 9.5 2.6-.8-9.4-1.5-22.1-1.1-36.1.3-8.3 1-16.8 2.4-25.1zm194.3 22.9c-11.1 0-23.2 1.3-36.2 4.5-44.9 10.5-71.9 31-90.2 56.8-18.3 25.8-27.7 57.4-34.8 89.7-7.1 32.4-11.8 65.2-22 93.4-5.4 14.9-12.7 28.7-22.8 40 129.5-22.2 254.5-67 351-112.1-2.2-14-10.2-56-31.9-96-13.2-24.3-31.2-46.9-55.2-61-15.1-8.8-32.5-14.5-53.2-15.2-1.6-.1-3.1-.1-4.7-.1z"></path></svg>