<svg stroke="currentColor" fill="currentColor" stroke-width="0" viewBox="0 0 512 512" height="1em" width="1em" xmlns="http://www.w3.org/2000/svg"><path d="M252.826 85.162c-12.295 0-22.263 9.973-22.263 22.274 0 6.545 2.824 12.43 7.318 16.505-17.227 3.053-33.423 10.562-48.218 21.564 4.093 1.436 8.62 2.72 13.525 3.777 16.838 3.627 37.55 5.008 57.97 4.407 20.42-.6 40.615-3.183 56.406-7.125 1.224-.305 2.41-.63 3.578-.964-16.056-11.974-33.772-19.82-52.663-22.327 4.08-4.036 6.613-9.638 6.613-15.834 0-12.3-9.968-22.274-22.264-22.274zm-79.273 74.225c-4.527 4.47-8.882 9.288-13.057 14.412 26.254 9.453 58.836 15.887 94.848 15.887 36.46 0 69.31-5.498 95.36-15.2-4.11-5.09-8.39-9.89-12.845-14.346-4.836 1.703-10.117 3.17-15.766 4.58-17.532 4.375-38.765 7.02-60.375 7.655-21.612.635-43.545-.738-62.47-4.813-9.363-2.015-18.09-4.593-25.697-8.175zm-101.272 1.8C59.95 161 47.278 165.13 37.938 175c-9.34 9.87-14.998 24.657-16.312 44.53-1.47 22.042 1.022 38.312 6.97 50.814 5.946 12.502 15.397 20.635 25.31 26.22 9.815 5.526 19.944 9.16 29.503 13.207-1.39-6.85-2.278-14.083-2.646-21.688-6.516-2.555-12.605-4.932-17.7-7.8-7.797-4.392-13.495-9.354-17.593-17.97-4.1-8.615-6.525-21.508-5.19-41.53 1.123-16.975 5.726-27.132 11.22-32.938 5.494-5.806 12.203-8.096 20.5-7.97 10.355.16 22.67 5.086 33.033 12.23 3.188-5.497 6.64-10.85 10.328-16.055-12.74-8.877-27.897-14.63-43.08-14.863zm387.882 6.614c-11.768-.228-23.427 4.766-32.387 19.817h.002c-11.343 19.057 10.273 70.745-16.515 78.233-.035-.346-.063-.694-.1-1.04l-.094.928c-17.243-1.76-27.984 2.648-35.298 9.666-7.315 7.02-11.37 17.463-12.075 28.785-.706 11.322 2.086 23.248 7.276 31.964 3.395 5.702 7.53 9.915 12.387 12.395l-.322 1.608c28.657 2.568 82.005-3.247 86.13-57.637 3.07-40.457-30.97-111.518 15.565-89.764-3.6-11.372 1.018-19.242 12.096-21.092-9.85-6.638-23.327-13.604-36.664-13.863zm-326.474 15.012c-21.276 28.462-34.438 61.033-34.438 97.313 0 43.367 16.458 69.532 44 86.688 27.542 17.155 67.3 24.375 112.063 24.375 44.76 0 84.658-7.208 112.375-24.375 1.61-.998 3.177-2.03 4.71-3.088-7.236-4.373-13.164-10.75-17.486-18.01-7.407-12.44-10.806-27.66-9.87-42.69.938-15.028 6.362-30.14 17.788-41.105 9.998-9.593 24.464-15.386 42.293-15.217.978.01 1.975.054 2.973.1-5.512-23.568-16.517-45.475-30.815-63.834-31.777 16.617-74.14 25.405-121.936 25.405-48.047 0-90.2-10.66-121.656-25.563zm226.193 209.11c-29.715 13.08-65.89 17.953-104.567 17.953-38.47 0-74.382-4.812-103.89-17.738 5.108 11.837 13.503 20.477 24.602 27.236 19.175 11.677 47.392 16.79 79.366 16.79 31.974 0 60.325-5.113 79.628-16.802 11.236-6.803 19.725-15.502 24.863-27.438z"></path></svg>