<svg stroke="currentColor" fill="currentColor" stroke-width="0" viewBox="0 0 512 512" height="1em" width="1em" xmlns="http://www.w3.org/2000/svg"><path d="M236.28 21.53c-185.644.495-313.788 255.03-99.936 404.845 12.265 23.964 49.66 34.098 104.344 41.656 39.702 5.587 44.827-11.274 37.312-34.31-14.935-45.782-52.38-68.562-120.22-57.095C-12.09 239.802 136.31 44.317 291.626 89.095 458.56 137.22 421.335 291.012 343.75 366.53c-70.898 69.013-37.743 124.546 22.094 129 73.38 12.87 137.08-59.02 113.28-115.967 6.166 53.188-90.466 121.6-126.687 82.5-24.154-45.743 72.12-75.863 101.938-163.97C500.43 162.016 442.752 55.69 274.125 24.938c-12.82-2.337-25.45-3.44-37.844-3.406zm22.157 114.44l-11.656 47.75c-4.155-2.81-8.567-4.918-12.905-5.782-4.027-.804-7.993-1.22-11.78-1.125v.03c-26.51.935-48.896 23.905-48.47 56.095.486 36.782 39.767 78.312 54.656 78.312 14.89 0 24.85-8.214 30.376-13.47 5.422 4.43 12.1 13 29.406 13 17.306 0 51.455-42.493 50.97-79.28-.487-36.787-26.89-60.97-58.938-53.97-4.586 1.008-9.617 3.024-14.063 6.064l10.564-43.188-18.156-4.437zM188.063 407c1.093.007 2.25.102 3.438.25 12.662 1.575 22.752 11.945 23.125 18.97.187 3.512-.98 5.694-3.938 7.78-2.956 2.086-8.012 3.538-14.343 2.75-12.663-1.575-22.752-11.973-23.125-19-.188-3.513 1.01-5.664 3.968-7.75 2.217-1.564 5.587-2.793 9.812-2.97.352-.013.698-.032 1.063-.03z"></path></svg>