<svg stroke="currentColor" fill="currentColor" stroke-width="0" viewBox="0 0 512 512" height="1em" width="1em" xmlns="http://www.w3.org/2000/svg"><path d="M128.813 20.813c-.73.03-1.536.107-2.407.218-33.88 4.403-58.97 36.928-58.97 78.157 0 17.885 4.538 35.768 12.626 50.157-11.006 4.402-20.227 11.366-27.5 20.094-9.996 11.996-16.582 27.018-21.124 43.5-9.086 32.963-10.125 72.234-10.125 107.625v9.343H63.344l9.968 154.75.563 8.75H191.78l.564-8.75 9.97-154.75h42.03v-9.344c0-35.39-1.04-74.66-10.125-107.625-4.544-16.48-11.13-31.503-21.126-43.5-7.273-8.727-16.494-15.69-27.5-20.093 4.88-8.683 8.453-18.635 10.53-29.094l65.814 15.938 16.218 3.937L273 124.22l-12.75-39.345L313.72 98.5c-.003.23 0 .457 0 .688 0 17.884 4.535 35.767 12.624 50.156-11.007 4.402-20.26 11.366-27.53 20.094-9.998 11.996-16.553 27.018-21.095 43.5-9.086 32.963-10.158 72.234-10.158 107.625v9.343h42.064l1.968 30.875v1.408h.094l7.875 122.468.562 8.75H438.03l.564-8.75 7.844-122.28h.125l.03-2.126 1.938-30.344h42.064v-9.344c0-35.39-1.04-74.66-10.125-107.625-4.544-16.48-11.13-31.503-21.126-43.5-7.273-8.727-16.525-15.69-27.53-20.093 8.087-14.39 12.623-32.272 12.623-50.156 0-41.23-25.056-73.755-58.937-78.157h-.03c-1.743-.22-3.205-.254-4.376-.218-.893.028-1.45.068-2 .094-.56-.026-1.136-.065-2.03-.093-1.173-.037-2.635-.003-4.377.218h-.03c-28.334 3.682-50.472 27.03-56.97 58.69L248.47 62.593l-16.44-4.188 5.22 16.125 12.813 39.564-51.875-12.53c.017-.795.03-1.583.03-2.376 0-41.23-25.056-73.755-58.937-78.157h-.03c-1.742-.22-3.204-.254-4.375-.218-.91.03-1.5.07-2.063.094-.56-.026-1.135-.065-2.03-.093-.586-.02-1.24-.032-1.97 0zm3.406 18.812c.433.006.7 0 1.218 0 5.338 0 10.785 1.384 15.875 3.78l.093-.155c16.9 7.98 29.447 27.32 30.094 53.78l-19.28-4.655c-3.217-12.606-14.644-21.906-28.25-21.906-16.103 0-29.157 13.053-29.157 29.155s13.052 29.156 29.156 29.156c11.977 0 22.262-7.234 26.75-17.56l19.093 4.624c-2.573 13.025-7.828 25.176-14.22 32.875l-10.155 12.218 15.593 2.937c12.813 2.408 22.09 8.375 29.72 17.53 7.63 9.158 13.393 21.712 17.47 36.5 7.434 26.98 9.063 60.967 9.31 93.282h-24.874l.563-58.593-18.69-.188-1.06 109.78.03.002-7.22 112.53H141.5V335h-18.688v139.72H91.406l-7.25-112.345h.063l1.06-109.78-18.686-.19-.563 58.782H40.126c.25-32.315 1.908-66.303 9.344-93.28 4.075-14.79 9.806-27.344 17.436-36.5 7.63-9.157 16.907-15.124 29.72-17.532l15.593-2.938-10.126-12.218c-9.083-10.943-15.97-30.87-15.97-49.532 0-27.573 12.788-47.748 30.157-55.938l.064.156c5.09-2.397 10.536-3.78 15.875-3.78zm246.25 0c.44.006.722 0 1.25 0 5.337 0 10.784 1.384 15.874 3.78l.062-.124c17.33 8.21 30.094 28.368 30.094 55.907 0 18.664-6.855 38.59-15.938 49.532l-10.156 12.218 15.625 2.937c12.813 2.408 22.06 8.375 29.69 17.53 7.63 9.158 13.39 21.712 17.467 36.5 7.436 26.98 9.096 60.967 9.344 93.282h-24.717l.562-58.593-18.688-.188-1.03 107.03L420.5 474.72h-32.906V335h-18.688v139.72h-31.25l-7.344-114.533 1.063-107.593-18.688-.188-.593 58.78-25.72.002c.25-32.316 1.91-66.304 9.345-93.282 4.075-14.79 9.838-27.343 17.467-36.5 7.63-9.156 16.876-15.123 29.688-17.53l15.625-2.94-10.156-12.217c-8.415-10.138-14.902-27.996-15.813-45.407l16.72 4.25c3.46 12.237 14.685 21.218 28.03 21.218 16.105 0 29.158-13.053 29.158-29.155S393.382 70.47 377.28 70.47c-12.17 0-22.57 7.466-26.936 18.06l-16.625-4.218c3.687-19.918 14.76-34.387 28.81-41.03l.064.124c5.09-2.397 10.536-3.78 15.875-3.78z"></path></svg>