<svg stroke="currentColor" fill="currentColor" stroke-width="0" viewBox="0 0 512 512" height="1em" width="1em" xmlns="http://www.w3.org/2000/svg"><path d="M234.14 91.863c-1.884-.044-3.663.045-5.34.248l.01.09c-.434.052-.863.087-1.285.13h-.002c-13.39 2.16-21.5 11.353-24.646 23.768-3.146 12.414-.44 27.54 9.547 39.16 9.99 11.62 27.353 20.48 55.79 19.205l12.6-.594-3.117 12.206c-9.385 5.377-17.616 12.364-24.72 20.324 15.527 5.488 31.878 8.408 45.714 9.717-2.974-14.808-.99-29.996 6.933-44.303l15.746 8.72c-6.41 11.572-7.487 22.054-4.604 33.997 2.883 11.945 10.233 25.285 21.36 40.01l-13.458 10.173-.15 16.642c-21.68-.194-51.467-6.878-77.633-23.6-6.053-3.87-11.9-8.322-17.354-13.376-11.782 28.37-13.634 57.465-6.003 70.255 11.11-24.634 27.01-29.252 44.993-32.588-17.13 18.342-28.124 33.785-17.815 51.715 3.96-13.97 38.467-32.305 43.477-25.274 2.426 3.405 5.083 6.54 8.3 9.21 8.34 6.918 18.13 12.053 29.19 15.42l.037-.005 8.34 2.03c-5.805-15.73-8.153-33.626-5.144-53.413l17.797 2.706c-3.344 21.99.81 40.485 9.285 56.04l81.662 19.86c4.41-12.413 9.188-24.877 14.26-37.356-4.748 2.686-10.11 4.462-15.887 5.053-22.403 2.292-42.428-14.017-44.72-36.42-2.292-22.4 14.015-42.426 36.418-44.718 20.553-2.103 39.066 11.456 43.757 31.007 8.772-19.053 18.108-38.04 27.843-56.81l-56.24-21.658c-8.008 8.796-14.95 21.628-21.135 38.007l-16.84-6.356c5.648-14.965 12.06-27.965 20.22-38.488l-16.872-6.498c-6.757 8.568-12.733 20.16-18.13 34.457L379.48 214.2c5.03-13.322 10.668-25.077 17.6-34.925l-5.084-5.002c-2.194-16.02-17.753-27.21-36.896-35.41-6.882-1.782-13.76-1.697-21.245-.088-12.01 2.584-25.53 9.6-40.527 20.356l-10.492-14.626c10.924-7.835 21.527-14.21 32.127-18.563-8.53-2.18-16.54-4.04-23.16-5.696l-2.15-.553-1.684-1.442c-22.453-19.28-40.65-26.077-53.83-26.385zm123.77 77.6c7.553-.037 13.758 5.46 14.547 13.172.842 8.23-4.86 15.26-13.088 16.103-8.228.842-15.264-4.885-16.106-13.115-.842-8.227 4.89-15.232 13.12-16.074v-.005c.513-.053 1.023-.08 1.526-.082zm-116.328 51.912c-1.31 2.015-2.558 4.06-3.752 6.13 5.653 5.773 11.992 10.763 18.748 15.08 21.657 13.842 47.678 20.033 65.62 20.7-7.162-9.676-13.092-19.14-17.376-28.63-17.95-1.016-41.1-4.503-63.24-13.28zm121.797 15.45c10.08 3.908 15.52 13.43 17.007 22.218 1.488 8.788.636 17.726.322 26.44-.315 8.717-.152 17.062 1.897 23.785 2.05 6.722 5.425 11.945 13.44 16.466l-8.844 15.678c-11.797-6.656-18.7-16.682-21.812-26.894-3.113-10.213-3-20.486-2.67-29.682.332-9.197.82-17.465-.08-22.787-.903-5.324-1.58-6.818-5.765-8.44l6.504-16.784zm-155.51 30.68c-6.978 5.368-13.82 10.095-20.54 14.272-.036 6.428.315 12.146 1.045 17.24 2.548 17.786 9 28.637 20.025 40.776l-13.324 12.102c-12.446-13.705-21.47-29.047-24.52-50.325-.45-3.152-.768-6.445-.98-9.863-3.92 1.95-7.795 3.7-11.64 5.313-1.103 14.91-.797 28.72 1.2 41.394 4.15 26.33 15.117 47.86 36.43 66.328l-11.787 13.604c-24.34-21.09-37.728-47.333-42.425-77.13-1.882-11.944-2.416-24.457-1.867-37.54-10.743 3.26-21.227 5.415-31.525 6.844 9.952 57.595 35.397 100.764 73.375 133.67l-11.787 13.605c-41.182-35.683-68.956-83.598-79.503-145.416-12.627.897-25.03 1.028-37.35 1.15 15.65 47.394 39.204 84.183 62.473 112.69L101.227 437.6C76.184 406.922 50.59 366.644 34.14 314.62v42.817c13.126 50.52 37.506 100.093 65.676 129.643l21.49.002c-3.314-11.54-6.186-23.62-8.495-36.29l17.71-3.226c2.534 13.908 5.765 27.06 9.54 39.516 31.29 0 52.604.002 85.35.01-.666-.393-1.352-.782-1.998-1.18-20.464-12.617-30.62-27.875-35.625-40.082l16.654-6.826c3.844 9.375 11.098 20.908 28.417 31.586 10.005 6.168 23.49 11.983 41.588 16.517l89.887.028c-2.843-7.497-5.46-15.186-7.836-23.086-18.242 5.263-35.12 8.87-52.215 8-25.948-1.325-51.095-13.908-78.112-43.933l13.38-12.04c25.086 27.88 44.625 36.922 65.65 37.995 12.102.618 25.142-1.73 39.888-5.648-31.355-6.03-62.652-20.484-89.363-47.766l12.86-12.594c23.715 24.22 51.593 37.16 79.655 42.63-2.182-11.116-3.896-22.668-5.107-34.712-28.958-9.042-57.345-21.712-82.312-36.916.21 6.438 1.007 12.948 1.032 19.012-3.372-4.565-6.83-9.075-9.875-13.87-6.615-11.97-15.55-23.158-18.51-36.772-1.766 3.254-3.335 10.53-4.826 15.318-12.35-9.858-21.156-24.316-23.19-40.076-.67-11.76.18-23.593 2.42-35.172zm78.995 54.466c-7.31 2.355-14.182 6.856-19.824 12.096-1.383 1.774-2.47 3.64-3.335 5.577 23.016 14.82 50.13 27.303 77.92 36.462-.433-8.41-.63-17.054-.572-25.96-20.188-5.014-40.118-12.378-54.188-28.174zm-74.76 42.688c2.62 11.624 5.226 17.557 8.11 21.072 2.883 3.516 6.75 5.746 14.502 8.95l-6.873 16.636c-8.537-3.527-15.9-7.284-21.547-14.17-5.647-6.885-8.874-15.767-11.752-28.53l17.56-3.958zM34.14 415.22v71.915c2.916-.023 23.332-.03 41.626-.04-16.245-20.01-30.38-44.875-41.625-71.874z"></path></svg>