<svg stroke="currentColor" fill="currentColor" stroke-width="0" viewBox="0 0 512 512" height="1em" width="1em" xmlns="http://www.w3.org/2000/svg"><path d="M476.72 51.375c-5.28 30.185-124.992 107.9-82.47 16.875-80.216 45.38-107.557 23.42-78.53-5.656-54.825 2.8-62.753 88.173-55.345 112.406l17.438 19.125c-2.14-31.218.404-48.445 19.5-71.47 13.764 20.614 18.495 33.702 52.062 6.97-9.393 53.52 54.61 18.747 88.75 10.938-15.248 14.048-35.153 32.723-38.875 55.468-1.24 7.587 6.208 17.925 14.125 25.626-9.443 2.236-41.474 8.91-38.563 26.22 2.912 17.31 12.14 11.885 3.5 15.28-12.403 2.766-21.156 5.58-39.593-2.187l18.874 20.717c28.39 14.79 73.904 7.306 83.594-14.875-14.778-1.22-27.125-4.674-33-11.53 44.022-8.34 66.764-39.243 85.78-75.032-33.638 18.95-42.158 17.784-56 16.313 35.514-14.365 46.876-108.943 38.75-145.188zM246.874 186.063l-56.78 70.125 79.186 86.906 75.095-50-97.5-107.03zm-62.344 90.125L21.657 467.625l21.438 23.53 205.75-144.374-64.313-70.592z"></path></svg>