<svg stroke="currentColor" fill="currentColor" stroke-width="0" viewBox="0 0 512 512" height="1em" width="1em" xmlns="http://www.w3.org/2000/svg"><path d="M80.08 82.66L60.24 102.5 192.9 242.7v58.6h78v-50.9zm-25.4 40.14v80.3l4.01 2.7c10.56 7 14.74 14.1 15.93 19.8 1.18 5.8-.43 10.8-3.85 14.9-6.86 8.3-19.91 12.3-32.73-.6l-12.72 12.8c19.18 19.1 46.13 15.1 59.27-.6 6.58-7.9 9.97-18.9 7.65-30.1-2.05-10-8.72-19.7-19.56-28v-52.2zm258.02 52.5v144h-185c22.6 5.8 40.6 23.5 46.7 46H337c7.5-27.6 32.8-48 62.7-48 29.9 0 55.2 20.4 62.7 48h24.3v-84.6l-60.2-105.4zm36 14h62.1l54.7 92H348.7v-83zm-321.49 130l11.5 46h10.25c6.12-22.5 24.09-40.2 46.74-46zm84.49 16c-26.08 0-47.02 20.9-47.02 47s20.94 47 47.02 47c26.1 0 47-20.9 47-47s-20.9-47-47-47zm288 0c-26.1 0-47 20.9-47 47s20.9 47 47 47 47-20.9 47-47-20.9-47-47-47z"></path></svg>