<svg stroke="currentColor" fill="currentColor" stroke-width="0" viewBox="0 0 512 512" height="1em" width="1em" xmlns="http://www.w3.org/2000/svg"><path d="M483.44 177.075l-151.73-78.02-29.51 47.083c27.702 33.995 52.362 66.91 52.775 91.22l51.992 61.733c42.438-30.05 67.93-70.722 76.473-122.015zM207.185 22.818l-25.49 40.672 40.67 25.49 22.055-5.06 13.558 8.497-8.497 13.558-3.717 5.93 40.673 25.492 3.717-5.932 25.49-40.672L288.53 73.8l-22.055 5.06-13.558-8.497-5.06-22.054zm29.02 104.34l-49.92 79.65 40.672 25.49 46.202-73.718 3.716-5.93zm-59.48 94.9l-7.434 11.864 40.673 25.49 7.435-11.862zm-15.732 27.907l2.338 38.66 35.813-14.75zm-16.6 23.684l-19.24 30.7 20.583-8.48zm40.67 25.49l-20.583 8.478 1.344 22.22zm-38.178 15.725l-35.89 14.78c6.847 5.088 8.36 13.788 7.605 21.62-.467 4.84-1.796 9.863-3.87 14.905 3.633-4.065 7.574-7.45 11.728-9.98 6.718-4.096 15.208-6.526 22.77-2.582zm-46.632 29.21c-.08-.05-.078-.023-.042.07.1-.01.124-.018.043-.07zm-.042.07c-.36.026-1.943.026-5.058 1.925-3.965 2.416-8.997 7.32-13.044 13.777-4.047 6.457-6.267 13.124-6.713 17.746-.35 3.63.34 5.056.472 5.392.36-.027 1.944-.027 5.06-1.926 3.964-2.417 8.996-7.32 13.043-13.778 4.047-6.457 6.267-13.124 6.713-17.746.35-3.63-.34-5.056-.472-5.392zm-24.343 38.84c-.098.007-.123.017-.042.068.08.05.078.024.042-.068zm65.058-13.418c-.08-.05-.078-.024-.042.067.098-.007.123-.017.042-.067zm-.042.067c-.36.028-1.944.028-5.06 1.926-3.964 2.417-8.996 7.32-13.043 13.778-4.047 6.457-6.267 13.124-6.713 17.746-.35 3.63.34 5.055.472 5.392.36-.027 1.943-.028 5.058-1.926 3.965-2.416 8.997-7.32 13.044-13.777 4.047-6.457 6.267-13.125 6.713-17.746.35-3.63-.34-5.056-.472-5.393zm-24.344 38.842c-.1.008-.124.017-.043.068.08.05.078.024.042-.068zm-14.52-22.026c-3.633 4.064-7.574 7.45-11.728 9.98-7.092 4.323-16.16 6.805-24.026 1.875l-37.706 60.16s.69 15.91 5.06 22.055c3.092 4.346 8.3 7.61 13.558 8.497 7.437 1.255 22.054-5.06 22.054-5.06l37.706-60.16c-7.866-4.93-9.586-14.174-8.788-22.44.467-4.843 1.796-9.866 3.87-14.907z"></path></svg>