<svg stroke="currentColor" fill="currentColor" stroke-width="0" viewBox="0 0 512 512" height="1em" width="1em" xmlns="http://www.w3.org/2000/svg"><path d="M249.732 22.447c-36.686 14.92-66.09 46.27-77.392 87.354 16.886 9.69 25.848 29.84 20.57 49.536-6.288 23.468-30.41 37.398-53.88 31.11-8.636-2.315-15.974-7.05-21.495-13.274-39.796 9.484-74.095 37.174-90.722 76.29 10.97-5.244 23.145-8.03 35.658-7.91 6.764.064 13.626.976 20.446 2.803 9.307 2.494 17.8 6.534 25.287 11.758 11.77-19.426 32.72-31.77 55.365-32.695.833-.034 1.667-.052 2.504-.055 5.86-.02 11.812.725 17.73 2.31 16.115 4.32 29.318 14.164 38.15 26.942 17.566-5.8 31.458-19.638 37.34-37.168-24.84-15.33-37.902-45.733-29.978-75.308 4.83-18.03 16.576-32.422 31.616-41.113-15.16-19.403-21.392-45.44-14.553-70.963.9-3.356 2.046-6.55 3.355-9.617zm19.834 1.9c-2.187 3.97-3.95 8.132-5.134 12.555-5.806 21.668.474 43.64 14.722 58.836 4.233-1.016 8.584-1.635 13-1.816.833-.034 1.667-.054 2.504-.057 5.86-.02 11.812.725 17.73 2.31 11.55 3.095 21.6 9.035 29.626 16.85 20.286-5.855 37.058-21.882 42.94-43.83 1.068-3.99 1.538-8.085 1.622-12.285-27.947 25.9-71.684 25.523-98.85-1.644-8.847-8.846-14.904-19.615-18.16-30.918zm135.043 41.63c-.364 2.658-.876 5.345-1.602 8.056-6.935 25.883-25.78 45.495-49.06 54.555 8.35 14.903 11.155 32.93 6.404 50.662-7.778 29.027-33.466 48.637-61.998 50.164-3.984 18.863 1.576 38.664 14.896 52.688 8.506-4.263 17.913-6.773 27.637-7.17.832-.034 1.667-.054 2.504-.057 5.86-.02 11.814.725 17.733 2.31 29.93 8.02 49.844 35.082 50.248 64.67 3.177-.31 6.385-.46 9.62-.404 5.625.1 11.32.763 17.016 2.036 22.22 4.97 40.317 18.287 51.91 35.9 5.84-44.56-11.674-88.138-44.334-116.534-8.75 3.746-18.766 4.705-28.672 2.05-23.468-6.288-37.396-30.412-31.107-53.88 5.127-19.137 22.11-31.926 40.927-32.59 10.71-40.516 1.268-81.384-22.12-112.455zM295.56 112.53c-22.043-.39-42.218 14.13-48.197 36.445-7.054 26.325 8.425 53.137 34.75 60.19 26.323 7.054 53.138-8.428 60.192-34.75 7.053-26.326-8.43-53.137-34.752-60.19-3.29-.882-6.59-1.41-9.856-1.612-.714-.044-1.427-.07-2.138-.084zM166.974 246.024c-22.042-.39-42.22 14.134-48.198 36.448-7.053 26.325 8.425 53.135 34.75 60.19 26.323 7.052 53.14-8.428 60.192-34.75 7.052-26.326-8.43-53.14-34.753-60.192-3.29-.88-6.587-1.41-9.854-1.61-.714-.044-1.427-.072-2.138-.085zM62.252 264.227c-12.942-.134-25.322 3.77-35.643 10.85 3.035.736 6.032 1.665 8.976 2.86 8.58 3.476 16.93 8.535 23.885 15.49 25.982 25.98 27.916 67.116 5.405 95.104 25.453-1.025 48.234-17.35 56.395-42.622-18.528-16.51-27.358-42.63-20.567-68.154-6.487-5.132-14.107-9.06-22.625-11.344-5.3-1.42-10.61-2.13-15.826-2.183zm282.04 29.312c-22.04-.39-42.217 14.13-48.196 36.444-7.054 26.326 8.427 53.138 34.752 60.192 26.323 7.053 53.136-8.43 60.19-34.752 7.053-26.325-8.428-53.136-34.75-60.19-3.29-.88-6.59-1.41-9.856-1.61-.715-.045-1.428-.072-2.14-.085zm-99.45.192c-3.59-.08-7.2.19-10.79.778.068 6.023-.654 12.147-2.286 18.238-9.667 36.077-46.997 57.63-83.075 47.963-3.983-1.067-7.778-2.49-11.385-4.192-11.953 30.197-40.82 49.698-72.483 50.716 14.008 11.373 30.652 20.118 49.13 25.07 24.042 6.44 48.37 5.974 70.708-.306-5.585-19.028 2.288-40.1 20.225-50.457 7.233-4.175 15.16-6.064 22.94-5.89 14.857.333 29.185 8.184 37.157 21.993 9.654 16.72 7.072 37.136-4.95 50.916 16.55 19.293 38.774 34.03 65.128 41.09 14.625 3.92 29.43 5.272 43.79 4.268-25.375-18.835-38.995-51.03-32.675-83.775-3.416-.37-6.845-1.004-10.263-1.92-36.08-9.668-57.63-46.996-47.963-83.075 1.45-5.41 3.525-10.493 6.122-15.195-10.722-10.213-24.835-15.896-39.33-16.22zm175.77 66.39c-3.973-.076-7.895.215-11.73.835-7.192 25.736-28.503 43.942-53.288 48.47-.202.772-.4 1.547-.576 2.333-6.29 28.138 6.278 55.694 29.34 70.082-1.518-5.666-2.303-11.58-2.303-17.865 0-39.347 32.17-71.77 71.515-71.772 4.918 0 10.07.718 14.71 1.668 3.487.714 6.885 1.754 10.167 3.012-8.49-17.32-24.162-30.606-44.52-35.158-4.464-.998-8.92-1.522-13.316-1.606zM54.993 398.18c-.04.034-.086.067-.127.1.035.036.072.07.108.105l.02-.205z"></path></svg>