<svg stroke="currentColor" fill="currentColor" stroke-width="0" viewBox="0 0 512 512" height="1em" width="1em" xmlns="http://www.w3.org/2000/svg"><path d="M256 16.457c-3.944 0-7.948.71-9.984 1.512-.5.195-.405.172-.62.303l-.005.018s-9.845 37.48-22.8 87.296c18.278 13.215 47.39 13.42 65.992.6l-21.978-87.913c-.218-.13-.123-.11-.62-.304-2.036-.802-6.04-1.513-9.984-1.513zm-52.875 164.38c-2.03 7.883-3.96 15.317-6.004 23.288-4.585 17.886-9.118 35.69-13.538 53.133 53.046 16.998 90.254 17.196 142.92.605l-19.092-76.36c-34.76 15.42-69.524 15.196-104.285-.665zm-39.16 155.007l-.012.05c-4.518 18.527-8.28 34.408-10.896 46.18-1.308 5.886-2.33 10.752-3.008 14.338-.678 3.586-.93 6.52-.93 5.852 0 7.406 2.56 13.51 7.732 19.422 5.17 5.91 13.12 11.357 23.136 15.808 20.032 8.903 48.042 13.71 76.012 13.71s55.98-4.807 76.012-13.71c10.016-4.45 17.965-9.898 23.136-15.808 4.975-5.686 7.47-11.58 7.657-18.61l-16.537-66.148c-55.62 33.65-127.023 33.288-182.303-1.084zm212.248 46.648l4.666 18.664v1.108c0 11.906-4.684 22.7-12.187 31.275-7.502 8.573-17.66 15.198-29.37 20.403-23.424 10.41-53.353 15.26-83.323 15.26-29.97 0-59.9-4.85-83.322-15.26-11.712-5.205-21.87-11.83-29.37-20.404-7.504-8.575-12.187-19.37-12.187-31.276 0-3.082.503-5.28 1.24-9.19.525-2.778 1.262-6.292 2.09-10.137l-84.56 28.186L256 497.003l206.11-85.88-85.897-28.63z"></path></svg>