<svg stroke="currentColor" fill="currentColor" stroke-width="0" viewBox="0 0 512 512" height="1em" width="1em" xmlns="http://www.w3.org/2000/svg"><path d="M19.81 13.96l28.75 59.8 22.37-7.08 7.77-22.15zm472.39 0l-58.9 30.58 7.8 22.14 22.3 7.07zM256 38.84c-20 0-55.6 15-84.4 38.03C142.8 99.94 121 130.3 121 157.8c0 19.7 5.6 52.8 14.9 90.5l45.1 30-10 15-28.1-18.7c7.2 25.7 15.9 52.5 25.5 78 13.9 36.6 29.7 70.7 45.6 95 8 12.2 16 21.9 23.3 28.2 7.3 6.3 13.7 9 18.7 9s11.4-2.7 18.7-9c7.3-6.3 15.3-16 23.3-28.2 15.9-24.3 31.7-58.4 45.6-95 9.6-25.5 18.3-52.3 25.5-78L341 293.3l-10-15 45.1-30c9.3-37.7 14.9-70.8 14.9-90.5 0-27.5-21.8-57.86-50.6-80.93C311.6 53.84 276 38.84 256 38.84zm0 12.57a9 9 0 0 1 9 9 9 9 0 0 1-9 9 9 9 0 0 1-9-9 9 9 0 0 1 9-9zm167.7 20.32L391.4 105c3.5 5.3 6.6 10.8 9.2 16.4l36-37.14-9.6-3.05zm-339.27.25L71.51 84.51l38.69 39.79c2.4-5.7 5.4-11.3 8.8-16.8zm130.77.46L256 126.8l40.8-54.36 14.4 10.8L256 156.8l-55.2-73.56zm40.8 5.4a9 9 0 0 1 9 9 9 9 0 0 1-9 9 9 9 0 0 1-9-9 9 9 0 0 1 9-9zM151 141.8h18c0 5.1.2 10.4.6 15.9 5.9-5.5 13.8-8.9 22.4-8.9 18.1 0 33 14.9 33 33s-14.9 33-33 33c-3.8 0-7.4-.7-10.8-1.8 9.4 25.9 24.7 49.9 47.8 65.3l-10 15c-51.8-34.6-68-101.5-68-151.5zm192 0h18c0 50-16.2 116.9-68 151.5l-10-15c23.1-15.4 38.4-39.4 47.8-65.3-3.4 1.1-7 1.8-10.8 1.8-18.1 0-33-14.9-33-33s14.9-33 33-33c8.6 0 16.5 3.4 22.4 8.9.4-5.5.6-10.8.6-15.9zm-151 25c-8.4 0-15 6.6-15 15s6.6 15 15 15 15-6.6 15-15-6.6-15-15-15zm128 0c-8.4 0-15 6.6-15 15s6.6 15 15 15 15-6.6 15-15-6.6-15-15-15zm-73 7h18v65.4l19-9.5 8 16.2-27 13.5v186.4h-18V259.4l-27-13.5 8-16.2 19 9.5zm-45.1 132.1c7.7-.3 14.2 4.5 18.8 10.1 5.2 6.5 9.1 15 11.3 24.8 2.2 9.9 2.3 19.2.4 27.3-2.1 8.1-6.8 16.2-15.8 18.2-9.1 2.1-16.9-3.3-22.1-9.7-5.2-6.5-9.1-15-11.3-24.8-2.2-9.9-2.3-19.2-.4-27.3 2-8 6.7-16.2 15.8-18.2 1.1-.3 2.3-.4 3.3-.4zm108.2 0c1 .1 2.2.2 3.3.5 9.1 2 13.7 10.1 15.8 18.2 2 8.1 1.8 17.4-.4 27.2-2.2 9.9-6 18.3-11.3 24.9-5.3 6.3-13 11.7-22 9.7-9.1-2.1-13.9-10.2-15.8-18.2-2-8.2-1.9-17.5.3-27.3 2.2-9.9 6.1-18.3 11.3-24.8 4.6-5.7 11.1-10.5 18.8-10.2zm-107.5 18c-.1 0-.1 0 0 .1 0-.1.1-.1.1-.1zm0 .1c-.2.2-1.4 1.2-2.3 4.9-1 4.5-1.2 11.5.5 19 1.6 7.4 4.8 13.6 7.6 17.3 2.4 2.9 3.9 3.4 4.2 3.5.2-.2 1.4-1.2 2.3-5 1-4.5 1.2-11.5-.5-18.9-1.6-7.4-4.8-13.7-7.7-17.4-2.4-2.9-3.8-3.3-4.1-3.4zm10 44.7c-.1.1-.1.1 0 .1s.1 0 0-.1zm96.9-44.8c-.1 0-.1 0 0 .1 0-.1.1-.1 0-.1zm0 .1c-.3 0-1.8.4-4.2 3.5-2.9 3.6-6 9.9-7.7 17.3-1.7 7.4-1.5 14.5-.5 19 1 3.6 2.1 4.7 2.3 4.9.3-.1 1.8-.5 4.2-3.5 2.8-3.6 6-9.9 7.7-17.3 1.6-7.4 1.4-14.4.4-19-.9-3.7-2.1-4.7-2.2-4.9zm-10.1 44.7c-.1.1-.1.1 0 .1s.1 0 0-.1zm-149.6-14.6L26.57 481.2l12.92 12.5 117.41-121c-1.8-4.5-3.6-9.1-5.3-13.7-.6-1.6-1.2-3.2-1.8-4.9zm211.3 3c-.2.6-.5 1.3-.7 1.9-2.1 5.6-4.3 11.2-6.5 16.7L472.5 498l13-12.6zM224 397.8a9 9 0 0 1 9 9 9 9 0 0 1-9 9 9 9 0 0 1-9-9 9 9 0 0 1 9-9zm64 0a9 9 0 0 1 9 9 9 9 0 0 1-9 9 9 9 0 0 1-9-9 9 9 0 0 1 9-9z"></path></svg>