<svg stroke="currentColor" fill="currentColor" stroke-width="0" viewBox="0 0 512 512" height="1em" width="1em" xmlns="http://www.w3.org/2000/svg"><path d="M468.72 21.45c-4.12-.06-8.86.69-14.214 2.437-.886.41-73.34 33.862-146.268 70.326-36.687 18.343-73.365 37.396-100.642 53.133-13.64 7.868-24.953 14.94-32.51 20.463-3.78 2.76-6.626 5.173-8.164 6.77-.49.51-.496.696-.62.977.885 18.142 15.927 45.03 31.975 66.427 4.204 5.606 8.403 10.845 12.338 15.56l15.928-15.927 1.084-.607s7.78-4.4 17.12-7.65c4.672-1.626 9.773-3.046 15.142-3.366 5.367-.32 11.818.453 16.74 5.36 4.91 4.9 5.697 11.337 5.39 16.69-.304 5.355-1.705 10.443-3.313 15.102-3.216 9.32-7.58 17.083-7.58 17.083l-.61 1.096-16.06 16.06c4.716 3.934 9.954 8.133 15.56 12.337 21.397 16.048 48.284 31.09 66.426 31.974.28-.123.467-.128.977-.62 1.597-1.537 4.01-4.384 6.77-8.163 5.524-7.557 12.596-18.87 20.464-32.51 15.737-27.277 34.79-63.955 53.133-100.642 36.464-72.928 69.917-145.382 70.326-146.268 4.725-14.486 2.022-24.414-3.586-30.02-3.535-3.537-8.783-5.925-15.808-6.025zM261.864 247.935c-.27-.002-.573.005-.906.025-2.665.16-6.55 1.097-10.294 2.4-6.642 2.31-11.982 5.16-13.266 5.855l-37.838 37.838 18.385 18.385 37.953-37.954c.697-1.295 3.51-6.603 5.79-13.21 1.29-3.73 2.21-7.605 2.36-10.254.102-1.782-.132-2.588-.202-2.856-.223-.06-.787-.223-1.983-.228zm1.983.228c.13.035.177.042.07-.064-.11-.11-.105-.067-.07.064zm-77.012 58.617l-9.9 9.902 18.382 18.382 9.9-9.9-18.382-18.383zm-35.164 10.093L46.467 412.486l53.047 53.047 95.613-105.205-43.455-43.455zM33.132 424.607l-9.665 8.782c-1.213 1.223-1.72 2.35-1.865 4.54-.148 2.21.372 5.432 1.806 9.162 2.87 7.46 9.277 16.667 17.055 24.445 7.778 7.778 16.985 14.185 24.445 17.055 3.73 1.434 6.95 1.954 9.162 1.806 2.19-.146 3.317-.652 4.54-1.865l8.783-9.664-54.262-54.263z"></path></svg>