<svg stroke="currentColor" fill="currentColor" stroke-width="0" viewBox="0 0 512 512" height="1em" width="1em" xmlns="http://www.w3.org/2000/svg"><path d="M138.7 25c-11.6 0-23 12.8-23 31s11.4 31 23 31 23-12.8 23-31-11.4-31-23-31zM256 25c-11.6 0-23 12.8-23 31s11.4 31 23 31 23-12.8 23-31-11.4-31-23-31zm117.4 0c-11.6 0-23 12.8-23 31s11.4 31 23 31 23-12.8 23-31-11.4-31-23-31zm-262 67.65c-.2.34-.3.65-.5 1-.9 2.07-1.7 4.36-2.6 6.85 8 9.1 12.7 21.9 12.7 35.5 0 6.6-1.1 13.1-3.2 19 2.4 3.4 4.6 7.2 6.4 11.3.1.2.2.5.3.7h28.3c.1-.2.2-.5.3-.7 1.8-4.2 4-7.9 6.4-11.3-2.1-5.9-3.2-12.4-3.2-19 0-13.7 4.8-26.5 12.7-35.6-.8-2.46-1.6-4.7-2.5-6.75-.2-.35-.3-.66-.5-1-7.1 7.65-16.5 12.35-27.3 12.35s-20.2-4.7-27.3-12.35zm117.3 0c-.2.34-.3.65-.5 1-.9 2.07-1.7 4.36-2.6 6.85 8 9.1 12.7 21.9 12.7 35.5 0 6.6-1.1 13.1-3.2 19 2.4 3.4 4.6 7.2 6.4 11.3.1.2.2.5.3.7h28.4c.1-.2.2-.5.3-.7 1.8-4.1 4-7.9 6.4-11.3-2.1-5.9-3.2-12.4-3.2-19 0-13.6 4.7-26.4 12.7-35.5-.9-2.49-1.7-4.78-2.6-6.85-.2-.35-.3-.66-.5-1C276.2 100.3 266.8 105 256 105s-20.2-4.7-27.3-12.35zm117.4 0c-.2.34-.3.65-.5 1-.9 2.07-1.7 4.36-2.6 6.85 8 9.1 12.7 21.9 12.7 35.5 0 6.6-1.1 13.1-3.2 19 2.4 3.4 4.6 7.2 6.4 11.3.1.2.2.5.3.7h28.3c.1-.2.2-.5.3-.7 1.8-4.2 4-7.9 6.4-11.3-2.1-5.9-3.2-12.4-3.2-19 0-13.7 4.8-26.5 12.7-35.6-.8-2.46-1.6-4.7-2.5-6.75-.2-.35-.3-.66-.5-1-7.1 7.65-16.5 12.35-27.3 12.35s-20.2-4.7-27.3-12.35zM80 105c-11.59 0-23 12.8-23 31s11.41 31 23 31 23-12.8 23-31-11.41-31-23-31zm117.3 0c-11.6 0-23 12.8-23 31s11.4 31 23 31 23-12.8 23-31-11.4-31-23-31zm117.4 0c-11.6 0-23 12.8-23 31s11.4 31 23 31 23-12.8 23-31-11.4-31-23-31zm117.3 0c-11.6 0-23 12.8-23 31s11.4 31 23 31 23-12.8 23-31-11.4-31-23-31zM52.71 172.7c-.17.3-.33.6-.49 1-6.46 14.5-10.34 39-10.97 73.3h77.45c-.6-34.3-4.5-58.8-10.9-73.3-.2-.4-.3-.7-.5-1-7.1 7.6-16.51 12.3-27.3 12.3-10.77 0-20.2-4.7-27.29-12.3zm117.29 0c-.2.3-.3.6-.5 1-6.4 14.5-10.3 39-10.9 73.3H236c-.6-34.3-4.5-58.8-10.9-73.3-.2-.4-.3-.7-.5-1-7.1 7.6-16.5 12.3-27.3 12.3s-20.2-4.7-27.3-12.3zm117.4 0c-.2.3-.3.6-.5 1-6.4 14.5-10.3 39-10.9 73.3h77.4c-.6-34.3-4.5-58.8-10.9-73.3-.2-.4-.3-.7-.5-1-7.1 7.6-16.5 12.3-27.3 12.3s-20.2-4.7-27.3-12.3zm117.3 0c-.2.3-.3.6-.5 1-6.4 14.5-10.3 39-10.9 73.3h77.4c-.6-34.3-4.5-58.8-10.9-73.3-.2-.4-.3-.7-.5-1-7.1 7.6-16.5 12.3-27.3 12.3s-20.2-4.7-27.3-12.3zM25 265v16h462v-16zm16 34v188h206V351.1c-3.4 1.1-6.9 2-10.7 2.9-10.4 2.4-22.2 3.9-33.5 5-6.2.5-12.1.9-17.6 1.2l23.4 46.8H233v9c0 19-9.8 33.7-21.4 43-11.6 9.3-24.6 14-35.6 14s-24-4.7-35.6-14c-11.6-9.3-21.4-24-21.4-43v-9h24.4l23-46.1c-3.9.1-6.4.1-6.4.1v-18c13-.7 27.1-.8 41.2-2 10.7-.9 21.9-2.4 31-4.5 6.4-1.5 11.7-3.6 14.8-5.2V320h18v11.3c3.1 1.6 8.4 3.7 14.8 5.2 9.1 2.1 20.3 3.6 31 4.5 15.3.5 26.2 1.9 41.2 2v18s-2.5 0-6.5-.1l23.1 46.1H393v9c0 19-9.8 33.7-21.4 42.9-11.6 9.3-24.6 14-35.6 14s-24-4.7-35.6-14C288.8 449.7 279 435 279 416v-9h24.4l23.4-46.8c-5.5-.3-11.4-.7-17.6-1.2-11.3-1.1-23.1-2.6-33.5-5-3.8-.9-7.3-1.8-10.7-2.9V487h206V299zm135 83.1L163.6 407h24.8zm160 0L323.6 407h24.8z"></path></svg>