<svg stroke="currentColor" fill="currentColor" stroke-width="0" viewBox="0 0 512 512" height="1em" width="1em" xmlns="http://www.w3.org/2000/svg"><path d="M207.1 35.3c-6.5 0-12 5-12.5 11.5s4 12.3 10.4 13.4c32.2 5.3 52.9 35.2 67.7 72.9 10 25.3 17.1 54.2 22.1 83.2 24.7-5.7 47.1-5.7 64.5-4 4.9-27.6 11.8-55.1 21.4-79.2 14.8-37.7 35.5-67.6 67.7-72.9 6.4-1.1 10.9-6.9 10.4-13.4s-6-11.5-12.5-11.5H207.1zm-6 68.5c-54.3.4-109.52 32.8-109.52 99.5v159.6C91.58 443 155.2 484 219.6 484c58.3 0 116.1-34 126.3-99.7.5-1.4.7-2.7.6-4.2v-.1c.7-5.5 1-11.2 1-17.1v-41.7c.9-17.5 2.3-37.9 4.7-59.4-13.5-1.1-31.1-.8-50.5 4.4 2.1 20.2 3.4 39.3 4.2 55.8v40.9c0 53.1-43.5 79.1-86.3 79.1s-86.3-26-86.3-79.1V203.3c0-47.9 48.6-63.4 86.3-56.2 20.4 3.9 39.1 14.5 42.8 33.4V227c6.2-2.7 12.4-5 18.5-6.9-2.5-13.1-5.4-26.3-8.8-39.1-7-26.2-16-50.9-28.2-70.5-5.3-1.8-10.8-3.2-16.5-4.3-8.6-1.6-17.4-2.4-26.3-2.4zm-20.4 87.1c-4.5 0-8.3 3.7-8.3 8.3v4.2c0 4.6 3.8 8.4 8.3 8.4 4.6 0 8.4-3.8 8.4-8.4v-4.2c0-4.6-3.8-8.3-8.4-8.3zm25.5 0c-4.5 0-8.3 3.7-8.3 8.3v4.2c0 4.6 3.8 8.4 8.3 8.4 4.6 0 8.4-3.8 8.4-8.4v-4.2c0-4.6-3.8-8.3-8.4-8.3zm25.6 0c-4.5 0-8.3 3.7-8.3 8.3v4.2c0 4.6 3.8 8.4 8.3 8.4 4.6 0 8.4-3.8 8.4-8.4v-4.2c0-4.6-3.8-8.3-8.4-8.3zM180.7 224c-4.5 0-8.3 3.7-8.3 8.2v41.2c0 4.6 3.8 8.3 8.3 8.3 4.6 0 8.4-3.7 8.4-8.3v-41.2c0-4.5-3.8-8.2-8.4-8.2zm25.5 0c-4.5 0-8.3 3.7-8.3 8.2v41.2c0 4.6 3.8 8.3 8.3 8.3 4.6 0 8.4-3.7 8.4-8.3v-41.2c0-4.5-3.8-8.2-8.4-8.2zm25.6 0c-4.5 0-8.3 3.7-8.3 8.2v41.2c0 4.6 3.8 8.3 8.3 8.3 4.6 0 8.4-3.7 8.4-8.3v-41.2c0-4.5-3.8-8.2-8.4-8.2zm108.5 4c-23.3-.1-52.8 4.2-83.4 20v19c52-30 101.8-22 119.9-18l4.7-16c-8.5-2.2-23-4.9-41.2-5zm56.5 8-5.2 19 20.5 9.1 8.5-24.4-23.8-3.7zm-241 6.1c-4 8-6.4 18.8-6.4 33.9v84.1c0 40.9 34.2 62.9 69 62.9s69-22 69-62.9v-89.3c-8.2 3.2-16.6 7.2-25 12.4v76.9c0 25.6-22.4 37.6-44 37.6s-44-12-44-37.6v-62.6c-10.7-2.8-18.6-12.6-18.6-24.2v-31.2zm95.9 48.3c-.9.7-1.8 1.4-2.8 2.1-2.3 1.8-4.9 3.1-7.6 4l-1.2.4-.9.3v53.4c0 10.9-8.7 16.2-17.2 16.2-11.8 0-25.3-.1-25.3-.1 5.5 8.3 15.4 12.6 25.3 12.6 14.9 0 29.7-9.7 29.7-28.7v-60.2zm-64.8 7.9v33.6c0 5.2 2.1 10.3 5.9 14.1 3.7 3.7 8.8 5.8 14.1 5.8 5.3 0 10.3-2.1 14.1-5.8 3.7-3.8 5.8-8.9 5.8-14.1v-33.6h-12.5v33.6c0 1.9-.8 3.8-2.2 5.2-1.4 1.4-3.2 2.2-5.2 2.2s-3.9-.8-5.3-2.2c-1.4-1.4-2.2-3.3-2.2-5.2v-33.6h-12.5z"></path></svg>