<svg stroke="currentColor" fill="currentColor" stroke-width="0" viewBox="0 0 512 512" height="1em" width="1em" xmlns="http://www.w3.org/2000/svg"><path d="M117.834 17.443c42.376 107.05-62.124 114.634 20.678 210.897-28.655-84.62 51.3-129.568-20.678-210.897zm225.922.688c-2.024-.06-4.103.345-6.365 1.25-5.17 2.064-11.69 7.488-18.13 18.643-6.44 11.155-9.613 22.672-9.77 31.35-.156 8.68 2.39 13.3 5.285 14.973 2.895 1.67 8.17 1.564 15.608-2.91 7.437-4.475 15.823-12.98 22.263-24.135 6.44-11.154 7.88-19.51 7.083-25.023-.8-5.512-3.368-8.892-8.162-11.66-2.397-1.384-4.648-2.21-6.947-2.43-.286-.03-.575-.047-.864-.056zm50.674 45.04c-.41.01-.833.028-1.266.06-5.198.37-11.99 2.385-20.357 7.215-11.156 6.442-19.662 14.83-24.137 22.266-4.475 7.438-4.58 12.713-2.908 15.608 1.67 2.895 6.292 5.44 14.97 5.284 8.68-.157 20.195-3.33 31.35-9.77 11.153-6.44 16.58-12.956 18.645-18.13 2.065-5.172 1.528-9.384-1.24-14.177-2.767-4.793-6.146-7.364-11.657-8.162-1.033-.15-2.167-.22-3.4-.193zm42.797 9.816c-35.587 150.27 34.9 124.747 10.625 263.5 57.687-113.445-1.726-153.902-10.625-263.5zM311.852 101.52c-6.42-.166-12.73 3.096-16.166 9.05-5 8.66-2.034 19.733 6.627 24.733 8.66 5 19.732 2.033 24.732-6.627s2.033-19.733-6.627-24.733c-2.706-1.562-5.648-2.345-8.566-2.422zm-84.47 18.8c-58.445 21.166-65.416 76.894-51.294 117.698 10.148 12.91 56.414 25.582 56.414 25.582s-48.184-7.06-63.832-7.315v-.002l.027-.08c-38.84 4.528-68.547 27.707-68.547 55.518 0 7.123 1.957 13.93 5.51 20.19 11.354 13.146 82.012 29.77 82.012 29.77s-71.235-10.798-88.484-11.4c-45.124 6.186-79.426 35.19-79.426 69.91 0 39.206 43.726 70.87 97.394 70.87h275.508c53.67 0 97.014-31.664 97.014-70.87 0-39.203-43.344-71.147-97.014-71.147h-1.607c12.914-9.91 20.763-22.974 20.763-37.322 0-29.684-33.554-54.095-76.207-56.17 28.615-95.79-135.14-67.4-108.232-135.23zM60.54 148.885c-87.533 77.6 24.97 64.76-4.636 186.05 59.073-112.215-31.264-111.346 4.635-186.05z"></path></svg>