<svg stroke="currentColor" fill="currentColor" stroke-width="0" viewBox="0 0 512 512" height="1em" width="1em" xmlns="http://www.w3.org/2000/svg"><path d="M203.75 18.75c-30.807.152-58.2 2.922-79.375 7.656-15.057 3.367-26.967 7.8-34.313 12.344-7.345 4.545-9.187 8.14-9.187 10.72 0 2.578 2.32 7.302 9.906 13 3.283 2.463 7.427 4.992 12.25 7.5 12.58-26.887 60.835-36.463 106.25-36.75 19.47-.123 38.308 1.267 53.72 4.093-68.11 9.035-126.228 12.386-103.344 51.968 24.78-16.026 76.058-14.97 112.125-10.5-34.733 4.607-66.215 7.26-78.655 17.19 16.52 2.635 34.167 4.663 52.5 5.874 47.178 3.116 89.886.327 120-6.406 15.057-3.367 26.967-7.8 34.313-12.344 7.345-4.545 9.187-8.14 9.187-10.72 0-2.578-2.288-7.27-9.875-12.968-7.587-5.696-19.598-11.715-34.72-17.093C334.29 31.555 291.554 23.116 244.376 20c-11.795-.78-23.296-1.18-34.406-1.25-2.084-.013-4.166-.01-6.22 0zM74.094 72.906c-4.445 17.937-5.67 34.503-4.25 49.938.006.018-.007.044 0 .062 5.82 16.932 23.4 31.81 49.22 43.188 28.19 12.424 65.143 20.243 101.967 22.906 36.826 2.663 73.606.193 101.25-7.094.066-.017.124-.045.19-.062l.186.125c72.355-9.74 112.614-41.626 102.313-95.595-6.856 24.535-27.576 42.58-54.25 55.625 2.854-10.052 6.517-20.498 11.124-31.375-3.85 1.1-7.888 2.115-12.125 3.063-32.675 7.305-76.713 10.025-125.345 6.812-48.632-3.213-92.642-11.767-125.188-23.344-16.272-5.788-29.685-12.263-39.656-19.75-1.918-1.44-3.744-2.932-5.436-4.5zm7.562 93.406c11.72 25.393 30.867 47.514 53.563 67.907 10.904 7.757 26.756 14.574 45.28 19.405 25.235 6.58 55.16 9.846 83.5 9.656 25.045-.167 48.934-3.1 67.094-8.342 56.052-11.073 85.383-44.642 71.312-87.688-2.314 22.634-17.737 39.6-39.125 51.938-1.028-10.75-1.267-21.987-.405-33.813-9.994 6.235-22.157 10.986-35.844 14.594-30.526 8.045-68.822 10.472-107.342 7.686-38.52-2.786-77.172-10.8-108.188-24.47-10.954-4.826-21.063-10.442-29.844-16.874zm321.906 71.75c-4.685 14.62-14.652 26.757-28.25 36.188-1.862-5.797-3.624-11.708-5.218-17.78-6.943 5.897-15.767 10.318-25.938 13.905-21.858 7.71-50.187 11.394-80.03 11.594-26.414.176-53.918-2.413-78.782-7.94 22.057 16.116 44.73 31.753 65.562 47.876 20.303 8.023 48.924 7.27 73.97-.156 11.94-3.54 22.962-8.51 31.655-14.094 35.963-17.71 60.943-41.843 47.033-69.594zm10.657 59.375c.337 12.78-7.11 24.512-18.5 34.657-2.77-8.588-5.972-17.316-9.283-26.28-2.933 3.837-6.436 7.415-10.312 10.655-12.036 10.06-28.197 17.926-45.938 23.186-15.81 4.688-33.028 7.436-49.656 7.03 8.393 7.718 16.145 15.62 23 23.845 12.03 6.828 34.757 6.622 55.75-.06 5.846-1.862 11.49-4.14 16.658-6.69.076-.036.142-.086.218-.124 34.1-14.63 54.92-39.592 38.063-66.22zM44.593 363.781l66 96.94-80.03-55.47 19.873 48.47-32.718-21.033.593 61.313h290.843l-28.03-32.094L279.937 480l-52.532-43.813 5.813 37.375-77.064-81.156 20.438 71.25-132-99.875zm359.312 4.376c-1 .81-2.013 1.628-3.062 2.406-9.94 7.374-22.49 13.45-35.906 17.72-14.445 4.597-30.13 7.443-44.594 6.374 2.874 5.13 5.382 10.404 7.47 15.813 4.2 4.1 9.464 7.06 15.31 8.936l.345.438c44.033 10.426 81.254-3.684 74.905-48.094-1.93 8.424-7.29 15.254-14.78 20.563 1.134-8.125 1.125-16.143.31-24.157zm-69.656 67.938c2.15 17.584-.015 36.745-7.72 57.937 27.994-20.634 46.844-39.46 59-57.217-5.283 1.592-10.828 2.678-16.436 3.28-11.496 1.236-23.753.172-34.844-4z"></path></svg>