<svg stroke="currentColor" fill="currentColor" stroke-width="0" viewBox="0 0 512 512" height="1em" width="1em" xmlns="http://www.w3.org/2000/svg"><path d="M24.844 25.563c1.333 77.685 25.778 141.568 63.283 187.955 4.367-4.937 8.77-9.796 13.13-14.553a9.5 9.5 0 0 1 7.348-3.178 9.5 9.5 0 0 1 6.66 16.016c-22.957 25.048-46.51 52.82-58.777 76.95-6.132 12.067-9.31 23.07-9.037 31.874.17 5.474 1.374 10.174 4.26 14.562l16.552-22.684a9.5 9.5 0 0 1 7.898-4.008 9.5 9.5 0 0 1 7.45 15.207l-16.635 22.797c2.973.316 6.316-.284 10.474-1.75 8.174-2.882 18.38-9.868 28.734-19.672 20.704-19.608 42.15-50.057 56.953-77.644a9.5 9.5 0 0 1 9.9-4.885c6.228 1.017 22.147 2.215 35.78.573 6.816-.82 13.107-2.395 17.232-4.432 4.124-2.035 5.597-3.84 6.12-5.934a9.5 9.5 0 1 1 18.434 4.603c-2.193 8.78-8.967 14.825-16.145 18.37-7.18 3.542-15.245 5.277-23.372 6.256-12.798 1.542-25.47 1.082-34.522.143-2.816 5.038-5.806 10.122-8.937 15.192 29.03 14.058 60.48 21.354 92.34 21.115 22.055-.164 43.82-4.29 64.64-11.937-6.014-8.637-11.297-17.378-15.596-25.96A9.5 9.5 0 1 1 326 252.03c13.688 27.32 40.692 59.164 67.537 79.982 13.423 10.41 26.846 18.047 37.842 21.363 5.988 1.806 10.902 2.378 14.983 1.854l-10.996-13.093a9.5 9.5 0 0 1 7.06-15.715 9.5 9.5 0 0 1 7.49 3.494l12.054 14.352c3.226-4.725 4.71-9.948 5.042-16.102.513-9.534-2.39-21.344-8.18-34.158-11.578-25.63-34.297-54.796-57.053-79.625a9.5 9.5 0 0 1 7.322-16.01 9.5 9.5 0 0 1 6.685 3.172c3.1 3.384 6.205 6.848 9.29 10.37 37.514-47.34 61.834-111.574 62.892-186.352H24.843zm138.664 270.68c-4.952 14.607-8.863 29.266-11.043 42.61-2.476 15.154-2.608 28.608-.29 37.745 2.32 9.137 5.71 13.32 12.514 15.22 10.31 2.88 17.56 1.32 24.884-3.572 7.325-4.893 14.436-13.87 20.696-25.87 6.813-13.064 12.555-29.486 17.517-47.09-22.16-3.106-43.775-9.54-64.28-19.044zm173.04 6.083c-9.938 3.936-20.108 7.144-30.456 9.57.512.913 1.02 1.844 1.54 2.733 7.736 13.262 16.197 23.722 23.802 29.292 7.604 5.57 12.882 6.638 19.34 3.77 7.937-3.52 12.458-8.014 15.236-14.087-10.454-9.556-20.457-20.185-29.46-31.28z"></path></svg>