<svg stroke="currentColor" fill="currentColor" stroke-width="0" viewBox="0 0 512 512" height="1em" width="1em" xmlns="http://www.w3.org/2000/svg"><path d="M82.651 20.988c10.808 16.773 23.587 31.3 41.244 45.234-10.27-2.274-33.336 2.031-43.177 15.039-2.1-20.28-4.55-40.888 1.933-60.273zm36.295 66.462c5.02.13 10.25 1.489 15.344 4.463 5.787 4 17.457 72.552 34.66 103.002 5.98-7.097 8.85-12.717 11.108-19.562 4.16-12.609 41.558-.75 38 11.594-13.773 47.772-10.911 71.476-7.4 99.714 1.062 8.552-20.608 22.253-42.143 20.043C121.3 268.906 51.98 189.15 53.415 181.91c2.844-14.343 28.053-25.924 39.717-11.164 8.72 11.034 19.825 25.756 31.803 32.237-12.897-31.854-38.887-89.693-34.584-98.92 4.314-9.253 15.768-16.944 28.595-16.612zm-97.74 26.9c15.159 12.472 33.13 20.169 46.809 27.768-15.075.5-24.481 8.642-30.895 18.983-7.286-7.79-15.178-28.902-15.914-46.75zm408.143 90.708c6.482 19.385 4.03 39.992 1.931 60.273-9.841-13.008-32.906-17.315-43.177-15.04 17.657-13.934 30.438-28.46 41.246-45.233zm-36.295 66.463c12.827-.333 24.28 7.359 28.595 16.611 4.303 9.227-21.69 67.064-34.586 98.918 11.978-6.48 23.086-21.203 31.805-32.236 11.664-14.76 36.871-3.18 39.715 11.164 1.435 7.239-67.886 86.999-115.1 124.797-21.535 2.21-43.203-11.494-42.14-20.045 3.51-28.238 6.37-51.94-7.403-99.713-3.558-12.344 33.842-24.205 38.002-11.596 2.259 6.845 5.126 12.467 11.106 19.565 17.203-30.45 28.875-99.003 34.662-103.002 5.095-2.975 10.324-4.333 15.344-4.463zm97.74 26.9c-.736 17.848-8.628 38.958-15.914 46.748-6.414-10.341-15.822-18.48-30.897-18.98 13.679-7.6 31.652-15.297 46.81-27.768z"></path></svg>