<svg stroke="currentColor" fill="currentColor" stroke-width="0" viewBox="0 0 512 512" height="1em" width="1em" xmlns="http://www.w3.org/2000/svg"><path d="M295.8 38c-.6.01-1.1.07-1.7.2-4.5 1-7.3 5.4-6.3 9.9 0 0 3.6 16 2.9 30.7-.8 5.63-.7 14.41-5.8 17.4-6.9 2.76-12.3-3.85-15.7-8.4-3-3.9-6-8.13-7.8-12.7-4.9-12.25-9.2-22.3-9.2-22.3-1.9-3.9-6.5-5.8-10.6-4.2-4.1 1.7-6.2 6.1-4.9 10.3 0 0 3.9 10.26 9.2 22.2 3.4 7.69 5.6 16.8 6.7 24.6 3.5 17.4-12.1 14.1-22.8 6.9-4.1-2.9-8.3-6-11.3-9.9-8.1-10.47-15.1-18.7-15.1-18.7-3-3.1-7.8-3.4-11.2-.7-3.4 2.6-4.1 7.5-1.8 11.1 0 0 6.6 9 15.5 19.1 3.4 3.8 5.6 8.7 7.8 13.3 2.8 5.9 6.1 15.5 1.1 19.8-8.6 4.6-17.9 1.1-23.5-4.5-10.1-10.2-20.4-19.2-20.4-19.2-3.4-2.5-8.1-2-11 1-2.8 3-3 7.7-.4 11 0 0 9.7 9.5 20.3 19.4 6.5 6.1 9.6 17.4 4.9 22.8-13.8 6.4-25.9-2.8-37.9-8-4-1.7-8.6-.1-10.6 3.8s-.7 8.7 3 10.9c7.2 3.9 14.3 7.3 20.1 13.1 3.1 3.3 5.9 7.1 3.6 11.6-4.1 7.6-7.3 15-9.4 22.2-7.2 25.4-1.8 48 22.1 63.1 0 0 .2-.3.6-.8 4.2-6.8 3.7-15.5-1.4-21.7-8.1-9.9-9.1-22.4-5.2-36 1.8-6.2 4.5-12.7 8.1-19.3.2-.2.3-.5.5-.8 14.1-25.6 40.3-52.3 69.8-74 31.2-23 66.3-40.4 95.3-44.1 15.6-1.9 29.2-.1 38.9 8.1 6.3 5.3 10.7 13.3 13.1 24.1l16.3-3.6c-3.9-17.5-12.2-28.93-23-36.7-3-2.2-6-4.8-7.9-7.7-1.7-10.56 3.1-20.95-4.4-23-6.6-1.79-9.5 9.16-13.5 15.4-2 3.2-5.3 6.4-10.9 5.6-3.3-4.3-3.7-11.31-3.4-16.3.4-7.74.7-13.7.7-13.7-.1-4.4-3.6-7.9-7.9-8.1-4.4-.2-8.1 3-8.7 7.3 0 0-.7 6-.7 13.4-1.2 5.89-1.7 16.82-8.1 19.2-4.6 1.4-7.7 1.9-9.9.3-2.5-1.8-3.5-5.2-4.5-9.1-2.1-8-3.1-18-5.3-27.8-.9-3.94-4.4-6.57-8.3-6.5zm125.7 103.1h-.8c-4.4.3-7.8 3.9-7.8 8.3-.1 20.3 7.4 58.4-3.2 73.4-1.1-1.3-3.1-3.5-4.4-5.6-11.6-19.3-15.2-38.4-22.9-59.5-1.5-4.1-6.1-6.3-10.3-4.9-4.3 1.3-6.7 5.8-5.5 10.1 6.6 22.2 14.7 44.2 15.1 67.5-.4 7.1-.3 16.3-5.9 20.7-3.6-1.9-6.5-5.5-8.6-8.2-13.8-18.5-19.7-39.4-30.5-60.4-2.1-3.9-6.8-5.5-10.8-3.7-4 1.9-5.9 6.5-4.4 10.6 9 23 20.2 40.5 24.8 64.1 0 4.2 3 14-1.1 16.6-4.8 1.7-10.3-2.3-13.6-4.7-16.3-11.5-24.9-28.3-38.6-43.2-3-3.1-7.9-3.4-11.2-.7-3.4 2.7-4.1 7.5-1.7 11.1 9.8 17.4 28.7 27.8 30.7 48.6.3 3.1-.6 5.7-3.8 7.3-2.4 1.1-5.4.7-8.7 0-18.7-4.6-31.1-18-47.5-28.3-3.7-2.2-8.5-1.3-11 2.3-2.6 3.5-2 8.4 1.3 11.2 9.6 8.6 19 11.9 26.2 21.8 1 1.4 7.9 9.4-.8 10.5-17.8 2-32.6 1.3-42.9.2-9-1.1-19 4.3-19.9 13.4C336 344.2 442.2 256 471.5 161.3c1-4.3-1.7-8.7-6-9.8-4.3-1.2-8.7 1.2-10.1 5.5-5.7 11.4-7.3 25.3-18.7 30.8-1.4-.4-2.1-3.2-2.7-5.1-3.6-10.9-2.9-22.8-4.5-34.5-.6-4-4-7-8-7.1zM136 318.5c-56.88.3-109.41 55.2-101.42 156.5C50.8 381.1 126.4 338.4 164 322.8c-9.3-2.9-18.7-4.3-28-4.3zm236.8 6.7s-88.4 34.7-140.2 30.6c12.2 39.9-42.2 63.2-42.2 63.2 4.8 10 14.9 15.6 27.1 21 8.4 3.7 10.6 13 11.1 19s-1.2 11.9-1 18c.3 4 3.5 8 7.6 8s7.8-2 8.8-6c1.9-7.7.3-13.1 2.3-20 2-6.9 5.9-14 15.4-13 5.6 1.5 8.6 8.6 10.7 13 4.5 9.4 5.1 18.9 8.2 29 1.3 5 5.6 7 9.8 6 4.3-1 7.1-5 6.4-9-2.2-11.2-5.2-20.9-4.5-32 .4-6 1.7-13 8.1-14 10.6-2 19.1 4 25.6 11 8.8 9.3 12.1 20.7 18.3 32 2.2 4 6.8 5 10.7 3 3.9-1 5.8-6 4.4-10-4.8-12.6-11.4-21.5-13.5-34-1.1-5.5-1-13.1 4.2-15 9.4-3 18 .1 25.1 5 8.9 6.2 14 13.8 20.8 22 2.8 3 7.8 4 11.3 2 3.6-3 4.5-8 2.2-12-6.5-9.3-13.8-17.8-19-28-1.8-3.9-3.1-7.1-3.6-11 13.9-7.4 17.9 1.6 29 7 3.7 2 8.1 1 10.5-2 2.3-4 1.9-8-1-11.1-11.6-8.1-22-17.9-23.1-31-1.2-13.4-8.5-27.8-29.5-41.7zm-187 7.3C165 339 65.58 375.6 50.17 484 133.4 395.1 262 381.1 185.8 332.5z"></path></svg>