<svg stroke="currentColor" fill="currentColor" stroke-width="0" viewBox="0 0 512 512" height="1em" width="1em" xmlns="http://www.w3.org/2000/svg"><path d="M336 35.27L282.27 89H311v26.146c-13.694.442-26.686 1.887-39 4.233V119c-20.41 0-36.037-.854-49.084-2.668 3.39-.714 6.58-1.558 9.527-2.578 3.88-1.343 7.405-2.938 10.553-5.598C246.144 105.496 249 101 249 96v-9h-9c-32 0-62.12-.124-91.975-15.05l-5.703-2.85-4.582 4.433c-7.094 6.866-9.93 15.897-9 23.55.93 7.655 4.376 13.78 7.367 19.24l2.56 4.677H144c8.2 0 18.56.003 29.492-.27 14.938 6.71 30.153 11.206 50.154 13.737-46.397 20.775-80.146 56.27-103.46 97.068-25.914 45.348-39.6 97.11-45.514 143.723C45.777 377.964 23 402.423 23 432c0 31.374 25.626 57 57 57s57-25.626 57-57c0-26.998-18.983-49.725-44.27-55.543 5.817-44.493 18.966-93.785 43.084-135.992C169.534 181.455 223.4 136.057 311 133.15v18.09c-89.057 4.69-160 78.55-160 168.76 0 93.23 75.77 169 169 169s169-75.77 169-169c0-90.21-70.943-164.07-160-168.76V89h7c5.5 0 10.848-1.408 14.926-4.977C355.004 80.455 357 75 357 70c0-10-5.576-19.303-14.637-28.363L336 35.27zm-25 134.003v127.434c-9.316 3.65-16 12.758-16 23.293 0 1.867.216 3.686.613 5.44L269.275 343H240v18h48v-8.85l17.635-11.757C309.713 343.286 314.673 345 320 345c13.7 0 25-11.3 25-25 0-1.867-.216-3.686-.613-5.44L370.725 297H400v-18h-48v8.85l-17.635 11.757a25.09 25.09 0 0 0-5.365-2.9V169.273C408.297 173.92 471 239.52 471 320c0 83.502-67.498 151-151 151s-151-67.498-151-151c0-80.48 62.703-146.08 142-150.727zM72.703 393.683C71.533 407.155 71 420.037 71 432h18c0-11.66.55-24.282 1.74-37.51C107.11 399.12 119 414.086 119 432c0 21.646-17.354 39-39 39s-39-17.354-39-39a38.842 38.842 0 0 1 31.703-38.318z"></path></svg>