<svg stroke="currentColor" fill="currentColor" stroke-width="0" viewBox="0 0 512 512" height="1em" width="1em" xmlns="http://www.w3.org/2000/svg"><path d="M109.902 35.87l-71.14 59.284h142.28l-71.14-59.285zm288 32l-71.14 59.284h142.28l-71.14-59.285zM228.73 84.403l-108.9 90.75h217.8l-108.9-90.75zm-173.828 28.75v62h36.81l73.19-60.992v-1.008h-110zm23 14h16v18h-16v-18zm265 18v10.963l23 19.166v-16.13h16v18h-13.756l.104.087 19.098 15.914h-44.446v14h78v-39h18v39h14v-62h-110zm-194.345 48v20.08l24.095-20.08h-24.095zm28.158 0l105.1 87.582 27.087-22.574v-65.008H176.715zm74.683 14h35.735v34h-35.735v-34zm-76.714 7.74L30.37 335.153H319l-144.314-120.26zm198.046 13.51l-76.857 64.047 32.043 26.704H481.63l-108.9-90.75zm-23.214 108.75l.103.086 19.095 15.914h-72.248v77.467h60.435v-63.466h50v63.467h46v-93.466H349.516zm-278.614 16V476.13h126v-76.976h50v76.977h31.565V353.155H70.902zm30 30h50v50h-50v-50z"></path></svg>