<svg stroke="currentColor" fill="currentColor" stroke-width="0" viewBox="0 0 512 512" height="1em" width="1em" xmlns="http://www.w3.org/2000/svg"><path d="M258.094 18.5c-74.34 0-138.073 62.498-156.188 148.438 52.758-7.697 102.23-22.044 153.938-45.094l4.125-1.813 3.967 2.064c49.424 25.667 97.648 41.026 150.657 46.406-17.66-86.744-81.71-150-156.5-150zm1.28 122.156c-57.41 25.148-112.883 39.993-172.53 47 6.724 32.847 6.91 65.935-.5 98.938 89.29 41.602 231.648 43.154 340.594-.125-10.762-32.516-11.727-65.66-1.188-98.408-59.03-4.235-112.628-20.06-166.375-47.406zm-13.5 33.125h18.72v127.75h-18.72V173.78zm-58.78 11.19h18.687v101.655h-18.686V184.97zm115.72 0h18.686v101.655h-18.688V184.97zm-171.72 14.905h18.687v79.28h-18.686v-79.28zm227.72 0h18.686v79.28h-18.688v-79.28zm38.748 116.75c-14.302 4.282-28.96 7.873-43.78 10.844l-19.22 64.06c26.114-17.337 48.002-43.31 63-74.905zm-277.53 2.875c13.95 28.257 33.448 51.85 56.562 68.53l-17.688-58.905c-13.397-2.61-26.387-5.826-38.875-9.625zm213.156 11.656c-51.63 8.175-104.745 8.588-153.72 1.438l20.845 69.5c18 8.52 37.49 13.187 57.78 13.187 18.588 0 36.507-3.92 53.22-11.124l21.875-73zm-195.5 47.156c-19.436 21.562-36.416 44.367-48.594 72.157 70.233-8.736 133.743 14.684 168.03 50.75 39.684-35.607 103.71-55.685 170.876-44.25-15.08-29.372-33.32-51.982-53.938-74-31.187 31.75-71.53 51-115.968 51-46.568 0-88.65-21.142-120.406-55.658z"></path></svg>