<svg stroke="currentColor" fill="currentColor" stroke-width="0" viewBox="0 0 512 512" height="1em" width="1em" xmlns="http://www.w3.org/2000/svg"><path d="M256 27c-7.2 0-14.6 1.01-19.2 2.54-2 .69-3.2 1.44-3.8 1.85V169.2c7.7-.1 15.3-.2 23-.2 7.7 0 15.3.1 23 .2V31.39c-.6-.41-1.8-1.16-3.8-1.85-4.6-1.53-12-2.54-19.2-2.54zm-41 18.77c-29.1 9.82-55.3 29.91-76.3 57.63-15.7 20.7-28.5 45.8-37.1 73.7 40.4-3.9 77.3-6.4 113.4-7.5zm82 0V169.6c36.1 1.1 73 3.6 113.4 7.5-8.6-27.9-21.4-53-37.1-73.7-21-27.72-47.2-47.81-76.3-57.63zM256 187c-59.6 0-119.2 4-191.01 11.9l-.49.1H64c-.62 0-1.39.1-3.34 2.6-1.96 2.6-4.22 7.4-6.03 13.5C51.02 227.3 49 244.7 49 262c0 17.3 2.02 34.7 5.63 46.9 1.81 6.1 4.07 10.9 6.03 13.5 1.95 2.5 2.72 2.6 3.34 2.6 111.1 0 142-16 192-16s80.9 16 192 16c.6 0 1.4-.1 3.3-2.6 2-2.6 4.3-7.4 6.1-13.5 3.6-12.2 5.6-29.6 5.6-46.9 0-17.3-2-34.7-5.6-46.9-1.8-6.1-4.1-10.9-6.1-13.5-1.9-2.5-2.7-2.6-3.3-2.6h-.5l-.5-.1C375.2 191 315.6 187 256 187zM88 221c9.28 0 17 7.7 17 17s-7.72 17-17 17c-9.28 0-17-7.7-17-17s7.72-17 17-17zm168 106c-40.7 0-71.3 12.5-155.8 15.4 8.7 29.7 21.9 56.3 38.5 78.2C169.2 460.8 210.6 485 256 485c45.4 0 86.8-24.2 117.3-64.4 16.6-21.9 29.8-48.5 38.5-78.2C327.3 339.5 296.7 327 256 327zm206.5 9.8c-3.9 3.6-8.8 6.2-14.5 6.2h-2.5c1 4 2 8.3 3 12.8 4.4 19.6 8 43.5 6.6 57.2-1.3 11.9-9 27.9-16.4 43.9-7.5 16.1-14.5 28.7-14.5 28.7l15.6 8.8s7.4-13.1 15.2-29.9c7.8-16.8 16.1-32.8 17.9-49.5 2.1-18.6-2.3-42.7-6.8-63.1-1.2-5.4-2.4-10.5-3.6-15.1zM224 349h64v18h-64zm-32 56h128v18H192z"></path></svg>