<svg stroke="currentColor" fill="currentColor" stroke-width="0" viewBox="0 0 512 512" height="1em" width="1em" xmlns="http://www.w3.org/2000/svg"><path d="M377.8 21.36c-7 .1-12.2 2.05-15.6 5.38-5.9 5.94-7.4 17.97-1.9 34.65 1.9 5.83 4.7 12.03 8.3 18.38-5.4-11.73-5.9-20.88-1.4-25.43 9.4-9.36 37.2 3.29 62.2 28.27 25 24.99 37.6 52.79 28.3 62.19-4.5 4.5-13.7 4-25.5-1.4 6.4 3.6 12.6 6.4 18.4 8.3 16.7 5.5 28.7 4 34.7-2 5.9-5.9 7.5-17.9 2-34.6-5.6-16.76-18.1-36.52-36-54.41-17.8-17.89-37.6-30.34-54.4-35.93-7.3-2.41-13.7-3.47-19.1-3.4zm-260.2 4.26c-5.3.1-9.9.68-13.7 1.78-6.8 1.93-11.3 5.25-13.7 9.29-4.2 7.24-2.5 19.34 7.1 33.9 3.3 5.22 7.6 10.48 12.8 15.59-8.2-9.91-11.1-18.61-8-24.17 6.8-11.37 36.9-6.3 67.4 11.33C200 90.93 219.4 114.5 213 126c-3.2 5.5-12.3 7.4-25.1 5.2 7.2 1.9 13.9 2.9 20 3.2 17.6 1.1 28.7-3.5 33-10.8 4.1-7.3 2.6-19.3-7-33.97-9.8-14.69-27-30.59-48.9-43.25-21.9-12.67-44.2-19.53-61.9-20.62-1.9-.11-3.7-.16-5.5-.14zm226.2 43.06c-21.6 42.42-48.4 83.12-79.2 124.62 2.3 18.1 7.4 30.3 15.6 38.5s20.4 13.3 38.4 15.6c41.5-30.8 82.3-57.6 124.7-79.2-19.6-6.9-40.8-20.6-59.8-39.7-19.1-19.1-32.9-40.11-39.7-59.82zM83.2 81.92C73.3 128.5 57.9 174.7 39 222.8c6.9 16.8 14.9 27.3 25 33.2 10 5.7 23.2 7.5 41.2 5.1 32-40.5 64.6-76.9 99.9-108.8-20.7-1.6-44.7-9.4-68-22.9-23.4-13.4-42.2-30.22-53.9-47.48zM250 212.7c-35.6 46.4-75.9 94.2-119.1 147l-.2.2c.8 4.9 5 10 8.1 13.3 4 3.1 8 7.6 13.2 8.1l.2-.2C205 337.9 252.9 297.6 299.3 262c-12.9-3.5-23.4-9.1-31.8-17.5-8.4-8.4-14-19-17.5-31.8zM29.9 245.3c-3.84 9.3-7.82 18.6-11.9 28.1v105.4c24.92-34.9 48.69-67.9 72.3-98.7-13.4 0-25-2.6-35.2-8.6-10.4-5.9-18.5-14.7-25.2-26.2zM397.7 269c-3.7 0-6.8.8-9.4 2.2-7.2 4.2-11.8 15.5-10.8 32.9.3 6.2 1.4 12.9 3.3 19.9-2.2-12.7-.3-21.7 5.2-24.9 11.5-6.5 35.1 13 52.7 43.5s22.6 60.5 11.3 67.3c-5.6 3.2-14.3.3-24.3-8 5.3 5.2 10.6 9.5 15.7 12.8 14.7 9.7 26.6 11.3 34 7.1 7.2-4.2 11.9-15.4 10.9-32.9-1.1-17.6-8.1-40-20.7-61.9s-28.5-39-43.3-48.8c-6.4-4.2-12.3-6.9-17.5-8.2-2.5-.6-4.9-1-7.1-1zm-38 37.9c-31.9 35.4-68.3 67.7-108.8 99.9-2.4 18-.7 31.1 5.1 41.2 5.8 10 16.3 18.1 33.1 25 48-19 94.4-34.3 140.9-44.2-17.1-11.8-34-30.5-47.4-53.9-13.6-23.3-21.4-47.2-22.9-68zm-242.3 69.8l-19.5 23.4c-2.68 2.7 11.3 16.6 14 13.8l23.4-19.3c-1.8-1.5-7.6-7.1-9.2-8.7-1.7-1.7-7.2-7.4-8.7-9.2zm-30.85 35.8l-37.03 37.1c2.5 1.5 4.92 3.3 7.15 5.5 2.25 2.3 4.09 4.7 5.63 7.2l37.02-37c-5.28-2.9-9.88-7.5-12.77-12.8zm145.25 9.2C201 445.3 168 469.1 133.1 494h105.5c9.4-4.1 18.8-8.1 28.1-11.9-11.6-6.7-20.3-14.8-26.2-25.1-6-10.3-8.6-22-8.7-35.3zM36.05 463.1l-14.73 14.7c.26 6.9 5.08 12.9 12.74 12.8l14.74-14.8c-1.31-3.2-2.96-6-4.85-7.9-1.88-1.9-4.73-3.5-7.9-4.8z"></path></svg>