<svg stroke="currentColor" fill="currentColor" stroke-width="0" viewBox="0 0 512 512" height="1em" width="1em" xmlns="http://www.w3.org/2000/svg"><path d="M160 25c-14.5 0-38 3.89-56.7 11.36-9.29 3.73-17.41 8.37-22.69 13.25A29.895 29.895 0 0 0 75.99 55H244c-1.2-1.77-2.6-3.55-4.6-5.39-5.3-4.88-13.4-9.52-22.7-13.25C198 28.89 174.5 25 160 25zM89 73v129.9l71 42.6 71-42.6V73H89zm167 78v18h23v14h-30v18h51.3l29.3 29.4 12.8-12.8-34.7-34.6H297v-14h23v-18h-64zM84.65 221.3L39.12 494.5l17.76 3L74.3 393h171.4l17.4 104.5 17.8-3-45.5-273.2-16.7 10 13.7 81.8-72.4 26.4-72.38-26.3 13.68-81.9-16.65-10zm263.15 22.4s-10.2 49.6 5.2 59.7c9.8 6.4 28.8-2.9 31-15.4 3.8-19.6-36.2-44.3-36.2-44.3zM377 329s-13.4 29.1-5.8 38.5c4.9 5.9 17.4 3.7 20.6-3.6C397 352.3 377 329 377 329zm-292.41 2.3l48.91 17.8-55.22 20.1 6.31-37.9zm150.81 0l6.3 37.9-55.2-20.1 48.9-17.8zm179 7.5s1.4 32.1 12.4 36.9c7.2 3 17.2-4.7 16.8-12.7-.8-12.6-29.2-24.2-29.2-24.2zM160 358.7l44.8 16.3h-89.6l44.8-16.3zm251.7 40.5s-3.4 21.5 3.4 26.2c4.3 2.9 12.1-1 12.8-6.3 1.3-8.6-16.2-19.9-16.2-19.9z"></path></svg>