<svg stroke="currentColor" fill="currentColor" stroke-width="0" viewBox="0 0 512 512" height="1em" width="1em" xmlns="http://www.w3.org/2000/svg"><path d="M86.236 28.564l-41.248 110h422.024l-41.248-110zm32.764 128v176.07c76.024 28.87 197.976 28.87 274 0v-176.07h-18v137.428c-7.16-3.66-15.96-6.65-26.307-9.236-24.208-6.052-56.74-9.64-92.693-9.64-7.85 0-15.526.18-23 .51-.017-12.01.002-24.02.04-36.032l24.013-60.03H238.05L215 237.194v39.566c-19.528 1.612-37.125 4.354-51.693 7.996-10.346 2.586-19.147 5.577-26.307 9.236V156.564zm89 23v16h4.266l6.4-16zm68.44 0l-25.6 64h17.867l25.602-64zm-196.44 23v18h21v-18zm75 0v18h42v-18zm149.492 0l-16.4 41H304v-23h53v-18zm106.508 0v18h12v80h57v-18h-39v-80zm-155 90.55c34.738 0 66.208 3.575 88.326 9.105 11.06 2.763 19.795 6.09 25.035 9.186 4.377 2.587 5.365 4.425 5.576 4.71.04-.057.064-.074.064 0 0 .073-.023.055-.064 0-.21.283-1.2 2.12-5.575 4.706-5.24 3.098-13.975 6.425-25.034 9.19-22.118 5.53-53.588 9.103-88.326 9.103-34.738 0-66.208-3.574-88.326-9.103-11.06-2.765-19.795-6.092-25.035-9.19-4.377-2.586-5.365-4.423-5.576-4.707-.04.056-.064.074-.064 0 0-.073.023-.056.064 0 .21-.284 1.2-2.122 5.575-4.71 5.24-3.096 13.975-6.422 25.034-9.186 12.965-3.243 29.16-5.805 47.326-7.376v28.72h18v-29.91c7.456-.347 15.138-.54 23-.54zm137 58.665c-32.96 11.616-71.95 18.42-112 20.417v27.45c40.88-2.024 80.4-9.035 112-21.038zm-274 .02v26.83c9.95 3.777 20.683 7.063 32 9.852V361.16c-11.143-2.664-21.856-5.785-32-9.36zm50 13.202v27.408c29.46 5.657 61.842 8.253 94 7.81v-27.447c-31.99.444-64.16-2.134-94-7.77zm224 32.777c-5.196 1.83-10.525 3.553-16 5.146v25.158c5.527-1.687 10.863-3.51 16-5.46zm-274 .01v24.827c27.454 10.426 60.89 17.082 96 19.98v-25.44c-34.372-2.842-67.45-9.302-96-19.366zm240 9.837c-38.988 9.09-83.038 12.637-126 10.67v25.445c43.22 1.968 87.805-1.613 126-10.777zM119 441.78c1.642 9.154 8.428 17.585 16 21.704v-16.558c-5.475-1.593-10.804-3.317-16-5.147zm274 .007c-12.8 4.513-26.5 8.312-40.834 11.373v19.73c16.52-4.255 40.596-15.226 40.834-31.103zm-240 9.84v19.275c33.85 9.257 73.556 12.422 103 12.534 29.185 0 56.113-2.365 78.166-6.493v-20.37c-58.66 9.767-125.146 8.115-181.166-4.946z"></path></svg>