<svg stroke="currentColor" fill="currentColor" stroke-width="0" viewBox="0 0 512 512" height="1em" width="1em" xmlns="http://www.w3.org/2000/svg"><path d="M340.573 495.942h-79.318c-17.24-19.952-46.972-25.794 25.136-118.418 12.088-15.528-46.796-47.858-56.975-35.75-28.683 46.058-50.585 105.183-120.653 71.499-6.986 26.338 4.46 54.395 10.054 82.67h-94.4c16.02-47.83 23.117-100.957 70.94-127.915l40.776 20.109c-1.342-16.2-2.167-32.398 1.676-48.597-120.404-30.952-104.494-70.512-112.833-80.714l23.46 7.54c-15.39-46.284 5.568-77.477 18.434-92.724 4.425 9.79 12.396 44.278 20.108 65.913 4.531-5.565 4.27-12.491 17.316-14.244-3.269 44.218 4.552 80.447 46.362 80.715 14.779-23.381 32.411-39.627 51.39-52.507-4.278-20.515-1.554-60.232-20.11-60.885-25.41-.894-37.227 2.808-54.74-2.793-16.173-22.335-14.987-47.59-12.74-67.847-54.678-27.557-48.39-81.972-13.772-88.792-4.022 22.54-9.233 40.639 15.9 49.392.914-42.185 2.97-89.372 65.844-54.272-20.147 7.362-41.442 16.125-36.077 39.484 46.607-22.884 55.874 4.5 63.086 21.858-17.15-.46-38.262-19.805-52.078 6.336-8.267 15.643 3.313 43.175 13.965 59.21 30.528-25.635 55.627-59.8 103.337-48.038-23.147-24.95-24.066-49.9-25.695-74.85 15.918 4.581 33.276 14.078 57.534 37.425h150.816L432.74 119.46l-15.584-20.272-24.075 24.74-21.785-26.252-29.046 33.514 13.406 16.2 15.082-18.993 20.108 21.785 25.136-21.226 12.848 12.289-11.73 28.487c-32.382 2.288-63.976-11.185-98.31 30.164 9.407 21.581 26.252 34.796 52.506 37.424 61.734-77.259 87.839-40.664 97.308-19.008-18.712-7.396-41.145-5.18-48.99 20.963 94.104-13.285 65.17 46.659 58.734 63.227-9.057-20.891-7.92-50.593-41.698-38.37 21.891 49.98.846 55.718-11.73 64.795-2.965-27.495-3.925-70.39-31.28-62.56-48.574 13.901-81.41 34.295-99.428-35.191-12.245 12.959-20.846 28.52-18.433 51.948 64.634 19.134 94.215 50.374 100.082 103.907 1.383 12.625-48.923 20.805-72.712 15.07-8.508 46.645 12.735 72.095 37.425 93.841z"></path></svg>