<svg stroke="currentColor" fill="currentColor" stroke-width="0" viewBox="0 0 512 512" height="1em" width="1em" xmlns="http://www.w3.org/2000/svg"><path d="M453.004 35.117c-65.314 46.61-189.755 41.018-213.559 125.426C184.41 101.41 98.625 83.031 21.771 63.209c6.532 139.103 71.38 147.437 192.44 194.547 23.71 25.786 29.786 49.93 19.254 82.705 46.403 5.1 71.504 15.468 106.754 27.742-.708-71.67-25.14-108.928-75.518-175.035 11.058 4.233 44.979 37.02 56.578 58.607 109.419-42.421 147.64-112.074 131.725-216.658zM180.178 353.9c-60.89-.24-114.034 19.49-158.426 74.221 167.075-48.84 292.003-13.21 471.893 7.895-118.936-38.752-224.474-81.763-313.467-82.116zm98.043 77.844c-99.28.255-206.34 18.738-256.866 63.139 168.002-26.61 356.801-28.408 470.8-4.967 1.102-35.337-101.418-58.46-213.934-58.172z"></path></svg>