<svg stroke="currentColor" fill="currentColor" stroke-width="0" viewBox="0 0 512 512" height="1em" width="1em" xmlns="http://www.w3.org/2000/svg"><path d="M41.84 23.79c-4.42-.12-9.53 1.11-13.24 4.82-3.71 3.71-4.94 8.82-4.82 13.24.13 4.42 1.34 8.64 3.19 12.95 3.7 8.62 10.1 17.64 18.6 26.14 3.72 3.72 7.53 7.01 11.37 9.87l12.91-12.94c-3.75-2.59-7.72-5.83-11.55-9.66-7.13-7.12-12.34-14.78-14.78-20.5-1.1-2.56-1.54-4.58-1.66-5.84 1.25.12 3.28.56 5.84 1.66 5.71 2.45 13.37 7.66 20.49 14.78 3.83 3.82 7.08 7.79 9.67 11.54l12.91-12.93c-2.86-3.83-6.14-7.63-9.85-11.34-8.5-8.5-17.51-14.9-26.13-18.6-4.31-1.84-8.53-3.07-12.95-3.19zm60.96 46.54L70.31 102.9 216 248.5l32.5-32.5L102.8 70.33zM263.9 226l-16.7 16.7c24.2 20.8 54.6 49.2 86.9 81.5 35.8 35.8 66.9 69.4 88.1 94.7 5.4 6.4 10.1 12.2 14.1 17.4-5.2-4-11-8.7-17.4-14-25.3-21.3-58.9-52.4-94.7-88.2-32.3-32.3-60.7-62.7-81.5-86.9L226 263.9c23.9 36.3 39.5 77.1 55.3 114 17 39.9 34.3 75.9 65.8 94.7l.3.2.3.2c47.4 23.6 91.4 18.5 117.3-6.9.2-.1.4-.3.6-.5.2-.2.4-.4.5-.6 25.4-25.9 30.5-69.9 6.9-117.2-13.8-27.5-49.5-43.8-90.7-62.2-38.2-17.1-81.7-35.3-118.4-59.6zm49.9 48.3c21 10.1 41.9 19.1 61.1 27.7 40.9 18.3 73.1 36 81.9 53.8 3.3 6.7 6 13.1 8 19.4-19.3-4.7-48.1-19.7-82.3-44.8-20.8-15.3-43.8-34.1-68.7-56.1zm-41.5 37.3c22.8 25.7 42.4 49.5 58.1 70.9 25.1 34.3 40.1 63.1 44.8 82.4-6.2-2-12.6-4.6-19.1-7.9-24.9-15.1-41.5-47-58.3-86.2-8-18.7-16.1-38.8-25.5-59.2zm122 49c29.4 19.6 54.2 31.5 75.1 33.7 2.7 18.5-.4 34.4-7.5 46.8-.3-.5-.6-.9-.9-1.4-5.6-8.5-14.1-19.4-24.9-32.3-11.5-13.6-25.7-29.5-41.8-46.8zm-33.6 33.8c17.2 16.1 33.1 30.2 46.7 41.7 12.9 10.8 23.8 19.3 32.3 24.9.5.3.9.6 1.4.9-12.4 7.1-28.3 10.2-46.8 7.5-2.1-20.8-14-45.6-33.6-75z"></path></svg>