<svg stroke="currentColor" fill="currentColor" stroke-width="0" viewBox="0 0 512 512" height="1em" width="1em" xmlns="http://www.w3.org/2000/svg"><path d="M254.656 18.344c-130.276 0-235.97 105.693-235.97 235.97.002 25.49 4.078 49.986 11.564 72.936 38.363-12.022 76.732-21.103 115.094 0l86.687-23.53-21.718-11.564c-2.516-58.148-.82-90.49 9.813-123.03L160.5 192.718c20.212-31.087 48.12-49.398 75.53-64.814-1.944-48.208-52.63-51.764-101.06-47.75l102.31-35.062 61.095 44.968c14.093-11.636 24.928-25.64 30.03-44.968 12.954 28.392 11.902 67.482-15.28 86.03 8.56 18.695.783 43.07-18.563 49.845L330 227.655l67.75 31.125 91.97-24.936c-10.383-120.703-111.684-215.5-235.064-215.5zm38.25 191.375c-20.026 11.44-30.87 32.635-23.844 62.31l28.188 14 72.375-19.624-49.563-22.75-2.125-.97-1.437-1.874-23.594-31.093zM490.626 253L322.5 298.563l41.594 20.687-42.594 80.53-15.625-2.124 16.75 56.688-48.688-47.438 18.438 62.5L220.125 399l14.78-11.063-52.53-7.187 73.063-64-106 28.75c-6.286 43.902-35.572 59.558-68.5 68.03 43.135 46.707 104.988 75.908 173.718 75.908 130.276 0 235.97-104.847 235.97-235.125V253z"></path></svg>