<svg stroke="currentColor" fill="currentColor" stroke-width="0" viewBox="0 0 512 512" height="1em" width="1em" xmlns="http://www.w3.org/2000/svg"><path d="M335.656 19.53c-24.51.093-48.993 5.235-71.062 15.626-22.46 10.577-43.112 34.202-58.375 62.563-15.264 28.36-25.182 61.262-27.69 88.75-7.487 82.112-51.926 155.352-159.78 252.56l-.188 21.44C89.216 403.443 139.915 346.632 176.313 290l.063.03c-9.293 32.473-22.623 63.18-43.594 87.97-31.47 35.584-69.222 71.1-114.468 106.53l-.062 8.25 25 .064h.47l1.28-1.156c24.405-16.498 48.607-31.488 72.594-41.5l.187.187-46.436 42.5 28.937.063c48.372-41.685 94.714-90.58 129.626-137 33.587-44.658 56.02-87.312 60.688-116.844-1.268-2.32-2.552-4.628-3.656-7.094-18.833-42.06-4.273-96.424 40.218-116.063 32.73-14.45 74.854-3.165 90.438 31.344.15.333.324.634.47.97 13.302 24.062 6.175 49.48-9.345 61.97-7.866 6.328-18.442 9.528-28.75 6.56-10.31-2.966-19.043-11.772-24.5-25.124l17.28-7.062c3.992 9.764 8.667 13.15 12.375 14.22 3.708 1.066 7.767.148 11.875-3.158 8.216-6.61 14.282-21.91 4.406-39.03l-.28-.47-.22-.5c-10.7-24.82-41.96-33.333-66.22-22.625-34.063 15.037-45.594 58.052-30.686 91.345 20.527 45.846 77.97 61.177 122.375 40.875 60.157-27.5 80.13-103.328 53.094-161.813-24.737-53.503-81.41-82.484-138.908-83.843-1.633-.04-3.272-.07-4.906-.063zm-25.75 26.72c3.238.035 6.363.348 9.406.906 10.343 1.898 19.946 6.753 29.032 13.25-30.623-5.437-58.324 4.612-80.78 24.782-22.44 20.152-39.16 50.59-45.783 84.718-4.655-11.358-7.166-21.462-6.686-31.72.296-6.343 1.715-12.956 4.78-20.217 9.094-18.016 21.032-33.946 35.22-46.69 7.824-7.026 16.39-13.07 25.53-17.905 10.932-5.212 20.522-7.22 29.282-7.125zm122.938 62.313c22.583 13.167 34.365 41.86 32.937 70.656-.564 11.395-3.466 22.975-8.905 33.624-12.48 18.937-35.53 25.51-49.97 20.875l-.092-.25c27.943-10.365 39.18-32.377 40.312-55.19.124-2.5.115-4.994-.03-7.468 1.447-13.31-.412-28.793-5.47-43.437-2.244-6.496-5.15-12.89-8.844-18.72l.064-.093zm-135.563 1.312c-20.97 19.342-29.406 35.252-33.25 51.25-3.848 16.023-2.788 32.84-2.905 52.875-.14 23.79-2.56 51.542-18.438 85.688-.005.012-.025.018-.03.03-21.095 26.753-45.276 52.25-68.907 67.376l-.063-.03c64.195-71.545 68.527-114.792 68.75-153.19.112-19.197-1.253-37.594 3.438-57.124.57-2.37 1.233-4.742 2-7.125h.03c8.098-17.036 16.572-26.058 25.47-31.563 7.18-4.44 15.035-6.697 23.906-8.187z"></path></svg>