<svg stroke="currentColor" fill="currentColor" stroke-width="0" viewBox="0 0 512 512" height="1em" width="1em" xmlns="http://www.w3.org/2000/svg"><path d="M24 87.002v17.996h472V87.002zm127.04 114.084c-4.514-.074-9.04 2.158-9.04 6.914v60.988l18-34V208c.053-4.462-4.448-6.84-8.96-6.914zm209.92 0c-4.512.074-9.013 2.452-8.96 6.914v26.988l18 34V208c0-4.756-4.526-6.988-9.04-6.914zM181.419 233L72.359 439h77.42l54.53-206zm41.508 0l-12.176 46H247v-46zM265 233v126h56.4l-34.279-126zm40.775 0l69.104 254h17.935l-11.447-49.799L412.564 487h52.489L330.582 233zM64 281c-7.62 0-14.45 1.658-18.604 3.734-3.271 1.636-4.106 2.98-4.318 3.266.212.287 1.047 1.63 4.318 3.266C49.55 293.342 56.38 295 64 295c7.62 0 14.45-1.658 18.604-3.734 3.271-1.636 4.106-2.98 4.318-3.266-.212-.287-1.047-1.63-4.318-3.266C78.45 282.658 71.62 281 64 281zm22.922 7c.057.077.078.095.078 0s-.021-.077-.078 0zm-45.844 0c-.057-.077-.078-.094-.078 0 0 .095.021.077.078 0zM448 281c-7.62 0-14.45 1.658-18.604 3.734-3.271 1.636-4.106 2.98-4.318 3.266.212.287 1.047 1.63 4.318 3.266C433.55 293.342 440.38 295 448 295c7.62 0 14.45-1.658 18.604-3.734 3.271-1.636 4.106-2.98 4.318-3.266-.212-.287-1.047-1.63-4.318-3.266C462.45 282.658 455.62 281 448 281zm22.922 7c.057.077.078.095.078 0s-.021-.077-.078 0zm-45.844 0c-.057-.077-.078-.095-.078 0s.021.077.078 0zm-219.094 9l-50.293 190h22.9l15.253-76.838-3.52 76.838H247V297zM41 308.984v150.782l46-86.889v-63.893C80.3 311.632 72.464 313 64 313s-16.3-1.368-23-4.016zm384 0v63.893l46 86.889V308.984c-6.7 2.648-14.536 4.016-23 4.016s-16.3-1.368-23-4.016zm-368.297 19.29c4.418 0 8 7.163 8 16 0 8.836-3.582 16-8 16s-8-7.164-8-16c0-8.837 3.582-16 8-16zM265 377v110h91.225l-29.926-110zM62.83 457l-15.883 30h90.127l7.942-30H62.83z"></path></svg>