<svg stroke="currentColor" fill="currentColor" stroke-width="0" viewBox="0 0 512 512" height="1em" width="1em" xmlns="http://www.w3.org/2000/svg"><path d="M179.3 38.94C154.7 77.7 142.7 139.7 168.4 185.9l-16.3 9.2c-6.7-11.9-11.2-24.4-13.9-37.2-34.5-6.3-69.42-7.5-104.98-2.1 34.07 10.1 52.77 23.7 76.68 46.7-26.82 9.7-60.25 30.2-92.93 70.2 35.47-8.8 64.83-11.5 89.43-6.3-36.94 22.5-64.06 56.1-88.34 114.1 35.9-17.2 64.89-18.8 102.94-18.8-23.07 32.7-35.27 77.2-36.31 112.8 24.51-26 57.61-60.2 87.21-79 3 29.9 15 58.3 35.9 85.3-.2-43.9 10.3-88.3 31.6-133.4-18.8 9-32.4 18.1-49.9 29.3 6.2-27.9 12.4-55.8 18.7-83.7-23.3 2.4-39 10-60.5 18.5 16.3-33.1 32.7-66.1 49.1-99.2l16.8 8.3-28.4 57.4c18.4-4.4 28.7-4.1 45.7-1.3-4.5 20.4-9 40.7-13.6 61 65.3-36.2 148.3-45.9 226.7-50 7.6-12.9 13.8-24.2 18.8-34.8l-6.3-24.4-24.4 30.8-7.8-27.5-22.5 29.2-7.5-26.1-23.9 31.5-7.7-28.2-23.8 31.4 1.2-41.1 22.6-42.7 7.6 28.3 23.9-31.5 7.6 28.2 23.5-30 6.5 26.9 24.5-30.8 7.8 27.5 24.6-32c2.3-10.8 4.6-22.4 7.4-35.7-55.5-3.7-106.3 4.8-154 9.8-38-20.8-80.8-26.8-121.9-18.5-13.6-29.69-27.2-59.38-40.9-89.06zM325.5 158.3c-4.5 14.2-13 18.3-24.7 20.6-16.1-4.4-28.3-15.5-34.4-30.2 20.4-3.8 42.4 3.4 59.1 9.6z"></path></svg>