<svg stroke="currentColor" fill="currentColor" stroke-width="0" viewBox="0 0 512 512" height="1em" width="1em" xmlns="http://www.w3.org/2000/svg"><path d="M255.838 20.014c-46.198 0-92.387 13.48-132.154 40.41-6.758-3.917-14.596-6.176-22.97-6.176-25.37 0-45.933 20.568-45.933 45.936 0 8.312 2.222 16.1 6.083 22.828-62.673 91.82-53.3 218.253 28.147 299.7 81.133 81.135 206.908 90.746 298.638 28.868 6.925 4.19 15.04 6.608 23.727 6.608 25.37 0 45.934-20.564 45.934-45.932 0-8.598-2.37-16.64-6.482-23.522 62.655-91.817 53.28-218.235-28.162-299.675-46.03-46.03-106.43-69.046-166.828-69.046zm0 18.578c55.575 0 111.15 21.23 153.607 63.685 74.088 74.088 83.513 188.115 28.315 272.39-7.468-5.252-16.563-8.345-26.385-8.345-1.133 0-2.256.043-3.37.123l-92.698-3.002 49.26-171.656-149.17 48.344 8.748-116.638-85.225 2.192.014-.02c-37.956-.28-39.983-20.097-19.176-39.12 4.96-4 10.058-7.748 15.27-11.247 1-.606 2.014-1.21 3.06-1.803-.035-.048-.073-.094-.108-.142 35.764-23.165 76.808-34.76 117.858-34.76zm-39.97 22.488c-6.655 1.36-13.186 3.057-19.58 5.063-2.308 13.93-6.433 27.24-12.114 39.683l20.472-.527c5.553-13.96 9.386-28.787 11.223-44.22zm89.075 2.037c-16.647 30.16-38.852 61.37-64.386 91.46l-2.39 31.85c34.282-37.795 63.946-78.343 85.063-117.728-5.968-2.143-12.068-4.01-18.287-5.583zm84.963 45.75l-81.465 81.465 39.103-12.67 55.57-55.572c-4.193-4.612-8.6-9.023-13.207-13.223zm-316.16 28.488c7.37 5.357 16.392 8.575 26.16 8.745l93.842 11.5-35.3 145.13 148.896-47.99-34.508 149.156 96.934-11.11-.014.03c36.085-3.498 39.427 16.134 19.12 34.834-85.258 66.25-208.29 60.198-286.646-18.156-74.014-74.014-83.5-187.89-28.484-272.14zm58.47 31.532c-19.22 13.763-41.652 23.336-65.978 27.38-2.002 6.395-3.694 12.928-5.05 19.587 36.93-4.42 70.385-20.235 96.757-43.815l-25.728-3.153zM443.2 188.852c-23.79 12.764-48 28.65-71.77 46.78l-9.096 31.696c28.52-23.762 57.94-44.434 86.422-60.17-1.563-6.225-3.423-12.33-5.557-18.306zm-288.927 51.96c-29.948 25.386-60.998 47.47-91.013 64.05 1.574 6.22 3.442 12.32 5.586 18.288 25.848-13.872 52.195-31.422 77.935-51.54l7.493-30.798zm296.393 55.372c-39.822 4.804-75.598 22.86-102.795 49.615l27.167.88c20.182-15.63 44.25-26.49 70.53-30.897 2.02-6.4 3.73-12.936 5.1-19.6zm-226.71 5.066l-39 12.568L109 389.778c4.2 4.605 8.61 9.015 13.22 13.208L223.956 301.25zm47.087 27.482c-33.008 36.814-61.585 76.107-82.11 114.323 5.975 2.135 12.08 3.995 18.305 5.56 14.46-26.148 33.09-53.08 54.436-79.385l9.37-40.498zm52.38 88.178l-20.49 2.348c-3.15 10.08-5.43 20.543-6.736 31.305 6.664-1.367 13.202-3.073 19.604-5.086 1.66-9.865 4.235-19.415 7.624-28.567z"></path></svg>