<svg stroke="currentColor" fill="currentColor" stroke-width="0" viewBox="0 0 512 512" height="1em" width="1em" xmlns="http://www.w3.org/2000/svg"><path d="M190.83 20.24v15.262h136.225l-37.823 19.69H190.83v236.53c-16.15-20.85-41.408-34.314-69.736-34.314-48.594 0-88.19 39.588-88.19 88.176s39.596 88.176 88.19 88.176c44.44 0 81.35-33.11 87.336-75.934 1.04-5.406 1.59-10.983 1.59-16.69h-.5v-138.03h229.947v143.273c-16.156-20.733-41.344-34.11-69.58-34.11-48.594 0-88.192 39.59-88.192 88.177 0 48.588 39.598 88.176 88.192 88.176 45.258 0 82.704-34.34 87.633-78.31.743-4.598 1.134-9.313 1.134-14.122h-.498V185.753H267.814l37.825-19.69h152.516v-26.535h-191.61L476.983 20.24H190.83zm18.69 63.492h117.556l-117.556 66.64V83.73zm-88.426 192.364c37 0 67.066 28.642 69.35 65.04H51.745c2.283-36.398 32.348-65.04 69.348-65.04zm248.793 54.863c37.065 0 67.173 28.743 69.36 65.23H300.524c2.19-36.487 32.3-65.23 69.364-65.23z"></path></svg>