<svg width="24" height="24" viewBox="0 0 24 24" fill="none" xmlns="http://www.w3.org/2000/svg">
<path opacity="0.3" d="M5.586 10.025L9.886 7.33C10.5224 6.93147 11.2581 6.72011 12.009 6.72011C12.7599 6.72011 13.4956 6.93147 14.132 7.33L18.439 10.025" stroke="black" stroke-width="1.5"/>
<path opacity="0.5" d="M3.734 13.234L9.82 17.154C10.4656 17.5696 11.2172 17.7906 11.985 17.7906C12.7528 17.7906 13.5044 17.5696 14.15 17.154L20.244 13.234" stroke="black" stroke-width="1.5" stroke-linecap="round"/>
<path d="M3.734 17.422L9.82 21.34C10.4656 21.7556 11.2172 21.9766 11.985 21.9766C12.7528 21.9766 13.5044 21.7556 14.15 21.34L20.244 17.42" stroke="black" stroke-width="1.5" stroke-linecap="round"/>
<path d="M4.637 9.214C4.35486 9.03054 4.12358 8.77885 3.96458 8.48224C3.80558 8.18563 3.72399 7.85369 3.72738 7.51717C3.73078 7.18064 3.81903 6.85042 3.98398 6.55707C4.14892 6.26372 4.38522 6.01674 4.671 5.839L10.416 2.266C10.8915 1.9704 11.4401 1.81373 12 1.81373C12.5599 1.81373 13.1085 1.9704 13.584 2.266L19.33 5.84C19.6158 6.01774 19.8521 6.26472 20.017 6.55807C20.182 6.85142 20.2702 7.18164 20.2736 7.51817C20.277 7.85469 20.1954 8.18663 20.0364 8.48324C19.8774 8.77985 19.6461 9.03154 19.364 9.215L13.636 12.938C13.1494 13.2543 12.5814 13.4227 12.001 13.4227C11.4206 13.4227 10.8526 13.2543 10.366 12.938L4.637 9.214Z" stroke="black" stroke-width="1.499"/>
</svg>
