<svg width="18" height="22" viewBox="0 0 18 22" fill="none" xmlns="http://www.w3.org/2000/svg">
<path opacity="0.3" d="M3 9L7.01463 6.55362C7.60879 6.19186 8.29568 6 8.99673 6C9.69778 6 10.3847 6.19186 10.9788 6.55362L15 9" stroke="black" stroke-width="1.5"/>
<path opacity="0.5" d="M1 12L6.898 16.3015C7.52367 16.7575 8.25204 17 8.99612 17C9.74021 17 10.4686 16.7575 11.0942 16.3015L17 12" stroke="black" stroke-width="1.5" stroke-linecap="round"/>
<path d="M1 16.0022L6.898 20.3015C7.52367 20.7575 8.25204 21 8.99612 21C9.74021 21 10.4686 20.7575 11.0942 20.3015L17 16" stroke="black" stroke-width="1.5" stroke-linecap="round"/>
<path d="M1.87967 8.01208C1.60685 7.83824 1.38321 7.59975 1.22946 7.3187C1.07571 7.03765 0.99682 6.72312 1.0001 6.40425C1.00338 6.08538 1.08872 5.77248 1.24822 5.49452C1.40771 5.21656 1.63621 4.98254 1.91255 4.81412L7.46783 1.42854C7.92758 1.14844 8.45815 1 8.99952 1C9.54089 1 10.0715 1.14844 10.5312 1.42854L16.0874 4.81507C16.3638 4.98348 16.5923 5.21751 16.7518 5.49547C16.9113 5.77343 16.9966 6.08633 16.9999 6.4052C17.0032 6.72407 16.9243 7.0386 16.7705 7.31965C16.6168 7.6007 16.3931 7.83919 16.1203 8.01303L10.5815 11.5407C10.1109 11.8405 9.56173 12 9.00048 12C8.43924 12 7.89005 11.8405 7.41948 11.5407L1.87967 8.01208Z" stroke="black" stroke-width="1.499"/>
</svg>
