<svg width="14" height="14" viewBox="0 0 14 14" fill="none" xmlns="http://www.w3.org/2000/svg">
<path d="M2.724 5.683L5.944 3.665C6.26231 3.46553 6.63036 3.35974 7.006 3.35974C7.38164 3.35974 7.74969 3.46553 8.068 3.665L11.293 5.683" stroke="black" stroke-opacity="0.3"/>
<path d="M1.5 7.616L5.939 10.397C6.2572 10.5963 6.62506 10.7019 7.0005 10.7019C7.37594 10.7019 7.7438 10.5963 8.062 10.397L12.507 7.616" stroke="black" stroke-opacity="0.5" stroke-linecap="round"/>
<path d="M1.5 10.413L5.939 13.194C6.2572 13.3933 6.62506 13.4989 7.0005 13.4989C7.37594 13.4989 7.7438 13.3933 8.062 13.194L12.507 10.413" stroke="black" stroke-linecap="round"/>
<path d="M1.96999 5C1.82661 4.91 1.70841 4.78508 1.62649 4.63694C1.54456 4.4888 1.50159 4.32228 1.50159 4.153C1.50159 3.98371 1.54456 3.81719 1.62649 3.66905C1.70841 3.52091 1.82661 3.39599 1.96999 3.306L5.93499 0.820995C6.25319 0.62173 6.62105 0.516052 6.99649 0.516052C7.37194 0.516052 7.7398 0.62173 8.05799 0.820995L12.028 3.306C12.1712 3.39604 12.2892 3.52092 12.3709 3.66896C12.4527 3.817 12.4956 3.98337 12.4956 4.1525C12.4956 4.32162 12.4527 4.48799 12.3709 4.63603C12.2892 4.78407 12.1712 4.90895 12.028 4.999L8.05799 7.484C7.7398 7.68326 7.37194 7.78894 6.99649 7.78894C6.62105 7.78894 6.25319 7.68326 5.93499 7.484L1.96999 5Z" stroke="black"/>
</svg>
