<svg width="14" height="14" viewBox="0 0 14 14" fill="none" xmlns="http://www.w3.org/2000/svg">
<g clip-path="url(#clip0_18_12)">
<path fill-rule="evenodd" clip-rule="evenodd" d="M6.5 10V13H7.5V10H13V9H7.5V6H6.5V9H1V10H6.5Z" fill="black" fill-opacity="0.3"/>
<path fill-rule="evenodd" clip-rule="evenodd" d="M1 6H1.5H1.52971H1.55935H1.58891H1.6184H1.64782H1.67716H1.70643H1.73563H1.76476H1.79382H1.82281H1.85172H1.88057H1.90934H1.93805H1.96668H1.99525H2.02375H2.05218H2.08054H2.10883H2.13705H2.16521H2.1933H2.22132H2.24928H2.27716H2.30499H2.33274H2.36044H2.38806H2.41562H2.44312H2.47055H2.49792H2.52522H2.55246H2.57964H2.60676H2.63381H2.6608H2.68772H2.71459H2.74139H2.76814H2.79482H2.82144H2.848H2.8745H2.90094H2.92732H2.95365H2.97991H3.00611H3.03226H3.05835H3.08438H3.11035H3.13627H3.16213H3.18793H3.21367H3.23936H3.265H3.29058H3.3161H3.34157H3.36698H3.39234H3.41765H3.4429H3.4681H3.49324H3.51834H3.54338H3.56836H3.5933H3.61818H3.64302H3.6678H3.69253H3.71721H3.74184H3.76642H3.79095H3.81543H3.83986H3.86425H3.88858H3.91287H3.9371H3.96129H3.98544H4.00953H4.03358H4.05759H4.08154H4.10545H4.12932H4.15314H4.17691H4.20064H4.22433H4.24797H4.27157H4.29512H4.31863H4.3421H4.36552H4.38891H4.41225H4.43554H4.4588H4.48202H4.50519H4.52832H4.55142H4.57447H4.59748H4.62046H4.64339H4.66629H4.68914H4.71196H4.73474H4.75748H4.78019H4.80285H4.82548H4.84808H4.87064H4.89316H4.91564H4.93809H4.96051H4.98289H5.00523H5.02754H5.04982H5.07206H5.09427H5.11645H5.13859H5.1607H5.18278H5.20482H5.22684H5.24882H5.27077H5.29269H5.31458H5.33644H5.35827H5.38007H5.40184H5.42359H5.4453H5.46698H5.48864H5.51027H5.53187H5.55344H5.57498H5.5965H5.61799H5.63946H5.6609H5.68231H5.7037H5.72506H5.7464H5.76772H5.78901H5.81027H5.83151H5.85273H5.87393H5.8951H5.91625H5.93738H5.95848H5.97957H6.00063H6.02167H6.04269H6.0637H6.08468H6.10564H6.12658H6.1475H6.1684H6.18928H6.21015H6.231H6.25182H6.27264H6.29343H6.31421H6.33497H6.35571H6.37644H6.39715H6.41785H6.43853H6.45919H6.47984H6.50048H6.5211H6.54171H6.56231H6.58289H6.60346H6.62401H6.64456H6.66509H6.68561H6.70612H6.72661H6.7471H6.76757H6.78804H6.80849H6.82894H6.84937H6.8698H6.89022H6.91063H6.93103H6.95142H6.9718H6.99218H7.01255H7.03291H7.05327H7.07362H7.09396H7.1143H7.13463H7.15496H7.17528H7.1956H7.21591H7.23622H7.25652H7.27683H7.29712H7.31742H7.33771H7.358H7.37829H7.39858H7.41887H7.43915H7.45943H7.47972H7.5H7.52028H7.54057H7.56085H7.58113H7.60142H7.62171H7.642H7.66229H7.68258H7.70288H7.72317H7.74348H7.76378H7.78409H7.8044H7.82472H7.84504H7.86537H7.8857H7.90604H7.92638H7.94673H7.96709H7.98745H8.00782H8.0282H8.04858H8.06897H8.08937H8.10978H8.1302H8.15063H8.17106H8.19151H8.21196H8.23243H8.2529H8.27339H8.29388H8.31439H8.33491H8.35544H8.37599H8.39654H8.41711H8.43769H8.45829H8.4789H8.49952H8.52016H8.54081H8.56147H8.58215H8.60285H8.62356H8.64429H8.66503H8.68579H8.70657H8.72736H8.74818H8.769H8.78985H8.81072H8.8316H8.8525H8.87342H8.89436H8.91532H8.9363H8.95731H8.97833H8.99937H9.0204H9.0415H9.0626H9.0837H9.1049H9.1261H9.1473H9.1685H9.1897H9.211H9.2323H9.2536H9.2749H9.2963H9.3177H9.3391H9.3605H9.382H9.4035H9.425H9.4466H9.4681H9.4897H9.5114H9.533H9.5547H9.5764H9.5982H9.6199H9.6417H9.6636H9.6854H9.7073H9.7292H9.7512H9.7732H9.7952H9.8172H9.8393H9.8614H9.8836H9.9057H9.9279H9.9502H9.9725H9.9948H10.0171H10.0395H10.0619H10.0844H10.1068H10.1294H10.1519H10.1745H10.1971H10.2198H10.2425H10.2653H10.288H10.3109H10.3337H10.3566H10.3795H10.4025H10.4255H10.4486H10.4717H10.4948H10.518H10.5412H10.5645H10.5878H10.6111H10.6345H10.6579H10.6814H10.7049H10.7284H10.752H10.7757H10.7994H10.8231H10.8469H10.8707H10.8945H10.9185H10.9424H10.9664H10.9905H11.0146H11.0387H11.0629H11.0871H11.1114H11.1358H11.1601H11.1846H11.2091H11.2336H11.2582H11.2828H11.3075H11.3322H11.357H11.3818H11.4067H11.4316H11.4566H11.4817H11.5068H11.5319H11.5571H11.5824H11.6077H11.633H11.6584H11.6839H11.7094H11.735H11.7606H11.7863H11.8121H11.8379H11.8637H11.8896H11.9156H11.9417H11.9677H11.9939H12.0201H12.0464H12.0727H12.0991H12.1255H12.152H12.1786H12.2052H12.2319H12.2586H12.2854H12.3123H12.3392H12.3662H12.3932H12.4204H12.4475H12.4748H12.5021H12.5294H12.5569H12.5844H12.6119H12.6396H12.6673H12.695H12.7228H12.7507H12.7787H12.8067H12.8348H12.8629H12.8912H12.9195H12.9478H12.9763H13V5.5C13 5.22386 13.2239 5 13.5 5H13.4703H13.4407H13.4111H13.3816H13.3522H13.3228H13.2936H13.2644H13.2352H13.2062H13.1772H13.1483H13.1194H13.0907H13.062H13.0333H13.0047H12.9763H12.9478H12.9195H12.8912H12.8629H12.8348H12.8067H12.7787H12.7507H12.7228H12.695H12.6673H12.6396H12.6119H12.5844H12.5569H12.5294H12.5021H12.4748H12.4475H12.4204H12.3932H12.3662H12.3392H12.3123H12.2854H12.2586H12.2319H12.2052H12.1786H12.152H12.1255H12.0991H12.0727H12.0464H12.0201H11.9939H11.9677H11.9417H11.9156H11.8896H11.8637H11.8379H11.8121H11.7863H11.7606H11.735H11.7094H11.6839H11.6584H11.633H11.6077H11.5824H11.5571H11.5319H11.5068H11.4817H11.4566H11.4316H11.4067H11.3818H11.357H11.3322H11.3075H11.2828H11.2582H11.2336H11.2091H11.1846H11.1601H11.1358H11.1114H11.0871H11.0629H11.0387H11.0146H10.9905H10.9664H10.9424H10.9185H10.8945H10.8707H10.8469H10.8231H10.7994H10.7757H10.752H10.7284H10.7049H10.6814H10.6579H10.6345H10.6111H10.5878H10.5645H10.5412H10.518H10.4948H10.4717H10.4486H10.4255H10.4025H10.3795H10.3566H10.3337H10.3109H10.288H10.2653H10.2425H10.2198H10.1971H10.1745H10.1519H10.1294H10.1068H10.0844H10.0619H10.0395H10.0171H9.9948H9.9725H9.9502H9.9279H9.9057H9.8836H9.8614H9.8393H9.8172H9.7952H9.7732H9.7512H9.7292H9.7073H9.6854H9.6636H9.6417H9.6199H9.5982H9.5764H9.5547H9.533H9.5114H9.4897H9.4681H9.4466H9.425H9.4035H9.382H9.3605H9.3391H9.3177H9.2963H9.2749H9.2536H9.2323H9.211H9.1897H9.1685H9.1473H9.1261H9.1049H9.0837H9.0626H9.0415H9.0204H8.99937H8.97833H8.95731H8.9363H8.91532H8.89436H8.87342H8.8525H8.8316H8.81072H8.78985H8.769H8.74818H8.72736H8.70657H8.68579H8.66503H8.64429H8.62356H8.60285H8.58215H8.56147H8.54081H8.52016H8.49952H8.4789H8.45829H8.43769H8.41711H8.39654H8.37599H8.35544H8.33491H8.31439H8.29388H8.27339H8.2529H8.23243H8.21196H8.19151H8.17106H8.15063H8.1302H8.10978H8.08937H8.06897H8.04858H8.0282H8.00782H7.98745H7.96709H7.94673H7.92638H7.90604H7.8857H7.86537H7.84504H7.82472H7.8044H7.78409H7.76378H7.74348H7.72317H7.70288H7.68258H7.66229H7.642H7.62171H7.60142H7.58113H7.56085H7.54057H7.52028H7.5H7.47972H7.45943H7.43915H7.41887H7.39858H7.37829H7.358H7.33771H7.31742H7.29712H7.27683H7.25652H7.23622H7.21591H7.1956H7.17528H7.15496H7.13463H7.1143H7.09396H7.07362H7.05327H7.03291H7.01255H6.99218H6.9718H6.95142H6.93103H6.91063H6.89022H6.8698H6.84937H6.82894H6.80849H6.78804H6.76757H6.7471H6.72661H6.70612H6.68561H6.66509H6.64456H6.62401H6.60346H6.58289H6.56231H6.54171H6.5211H6.50048H6.47984H6.45919H6.43853H6.41785H6.39715H6.37644H6.35571H6.33497H6.31421H6.29343H6.27264H6.25182H6.231H6.21015H6.18928H6.1684H6.1475H6.12658H6.10564H6.08468H6.0637H6.04269H6.02167H6.00063H5.97957H5.95848H5.93738H5.91625H5.8951H5.87393H5.85273H5.83151H5.81027H5.78901H5.76772H5.7464H5.72506H5.7037H5.68231H5.6609H5.63946H5.61799H5.5965H5.57498H5.55344H5.53187H5.51027H5.48864H5.46698H5.4453H5.42359H5.40184H5.38007H5.35827H5.33644H5.31458H5.29269H5.27077H5.24882H5.22684H5.20482H5.18278H5.1607H5.13859H5.11645H5.09427H5.07206H5.04982H5.02754H5.00523H4.98289H4.96051H4.93809H4.91564H4.89316H4.87064H4.84808H4.82548H4.80285H4.78019H4.75748H4.73474H4.71196H4.68914H4.66629H4.64339H4.62046H4.59748H4.57447H4.55142H4.52832H4.50519H4.48202H4.4588H4.43554H4.41225H4.38891H4.36552H4.3421H4.31863H4.29512H4.27157H4.24797H4.22433H4.20064H4.17691H4.15314H4.12932H4.10545H4.08154H4.05759H4.03358H4.00953H3.98544H3.96129H3.9371H3.91287H3.88858H3.86425H3.83986H3.81543H3.79095H3.76642H3.74184H3.71721H3.69253H3.6678H3.64302H3.61818H3.5933H3.56836H3.54338H3.51834H3.49324H3.4681H3.4429H3.41765H3.39234H3.36698H3.34157H3.3161H3.29058H3.265H3.23936H3.21367H3.18793H3.16213H3.13627H3.11035H3.08438H3.05835H3.03226H3.00611H2.97991H2.95365H2.92732H2.90094H2.8745H2.848H2.82144H2.79482H2.76814H2.74139H2.71459H2.68772H2.6608H2.63381H2.60676H2.57964H2.55246H2.52522H2.49792H2.47055H2.44312H2.41562H2.38806H2.36044H2.33274H2.30499H2.27716H2.24928H2.22132H2.1933H2.16521H2.13705H2.10883H2.08054H2.05218H2.02375H1.99525H1.96668H1.93805H1.90934H1.88057H1.85172H1.82281H1.79382H1.76476H1.73563H1.70643H1.67716H1.64782H1.6184H1.58891H1.55935H1.52971H1.5H1V6Z" fill="black" fill-opacity="0.3"/>
<path opacity="0.5" d="M13.5 5.5V12.5C13.5 13.0523 13.0523 13.5 12.5 13.5H1.5C0.94772 13.5 0.5 13.0523 0.5 12.5V1.5C0.5 0.94772 0.94772 0.5 1.5 0.5H8.5" stroke="black" stroke-linecap="round" stroke-linejoin="round"/>
<path d="M8.5 3H13.5" stroke="black" stroke-linecap="round" stroke-linejoin="round"/>
</g>
<defs>
<clipPath id="clip0_18_12">
<rect width="14" height="14" fill="white"/>
</clipPath>
</defs>
</svg>
