<svg id="svg-platform-xbox-360" viewBox="0 0 40 16" xmlns="http://www.w3.org/2000/svg">
	<path d="M38.947 8.5c0 .767-.083 1.435-.25 2.003-.162.565-.39 1.031-.682 1.4-.288.37-.631.646-1.029.83a3.06 3.06 0 0 1-1.279.267 3.06 3.06 0 0 1-1.278-.268 2.783 2.783 0 0 1-1.017-.828c-.289-.37-.514-.836-.676-1.4-.163-.569-.244-1.237-.244-2.004 0-.771.081-1.44.244-2.003.162-.565.387-1.032.676-1.4.288-.37.627-.644 1.017-.823.393-.183.82-.274 1.278-.274.46 0 .885.091 1.28.274.397.179.74.453 1.028.822.292.37.52.836.682 1.4.167.565.25 1.233.25 2.004Zm-1.553 0c0-.637-.047-1.165-.14-1.583-.093-.418-.22-.751-.377-.999-.155-.248-.333-.42-.536-.517a1.387 1.387 0 0 0-1.26 0c-.2.097-.376.27-.53.517-.155.248-.279.58-.372.999-.09.418-.134.946-.134 1.583s.045 1.165.134 1.583c.093.418.217.751.371.999.155.247.331.422.53.523a1.433 1.433 0 0 0 1.26 0c.204-.1.382-.276.536-.523.159-.248.285-.58.378-.999.093-.418.14-.946.14-1.583ZM28.3 7.294l-.305.378a2.682 2.682 0 0 1 1.187-.268c.334 0 .656.054.97.164.316.11.594.276.833.5.24.219.433.493.579.821.146.33.219.713.219 1.151 0 .41-.075.796-.225 1.157a2.849 2.849 0 0 1-1.62 1.571 3.35 3.35 0 0 1-1.267.232 3.37 3.37 0 0 1-1.266-.226 2.775 2.775 0 0 1-.956-.627 2.792 2.792 0 0 1-.61-.974 3.701 3.701 0 0 1-.206-1.267c0-.414.083-.838.25-1.272a5.82 5.82 0 0 1 .785-1.364l2.1-2.82a.875.875 0 0 1 .317-.25 1.1 1.1 0 0 1 .488-.103h1.34L28.3 7.294Zm.34 4.476c.24 0 .46-.04.659-.122a1.569 1.569 0 0 0 .859-.852c.08-.2.121-.415.121-.646a1.86 1.86 0 0 0-.116-.676 1.39 1.39 0 0 0-.84-.834 1.894 1.894 0 0 0-.658-.11c-.24 0-.456.04-.651.122a1.505 1.505 0 0 0-.822.853 1.704 1.704 0 0 0-.116.633c0 .243.032.467.097.67.07.199.169.369.299.511.134.142.298.254.493.335.195.077.42.116.676.116Zm-9.923-5.219c.06-.422.178-.791.353-1.108a2.66 2.66 0 0 1 .651-.798c.264-.215.565-.375.902-.48.34-.11.706-.165 1.096-.165a3.2 3.2 0 0 1 1.096.177c.329.113.609.274.84.48a2.133 2.133 0 0 1 .719 1.614c0 .28-.033.528-.098.743a1.6 1.6 0 0 1-.706.956c-.175.11-.372.201-.59.274.527.167.92.42 1.18.761.26.341.39.77.39 1.285 0 .439-.08.826-.243 1.163a2.53 2.53 0 0 1-.658.853c-.276.227-.597.4-.962.517a3.693 3.693 0 0 1-1.151.177 3.92 3.92 0 0 1-1.157-.152 2.511 2.511 0 0 1-.859-.45 2.721 2.721 0 0 1-.62-.732 4.932 4.932 0 0 1-.44-.998l.665-.274a.771.771 0 0 1 .487-.055.467.467 0 0 1 .335.243c.073.143.152.283.237.42.09.139.195.262.317.372a1.6 1.6 0 0 0 .426.262c.166.065.363.097.59.097a1.7 1.7 0 0 0 .67-.121 1.46 1.46 0 0 0 .476-.33c.13-.133.225-.281.286-.444.065-.166.097-.333.097-.499a2.24 2.24 0 0 0-.067-.572.852.852 0 0 0-.28-.445c-.142-.122-.347-.217-.615-.286-.264-.07-.619-.104-1.066-.104V7.861c.37-.004.676-.039.92-.104s.436-.154.578-.268a.929.929 0 0 0 .305-.42c.057-.162.085-.341.085-.536 0-.414-.116-.729-.347-.944-.231-.215-.54-.322-.925-.322-.18 0-.344.026-.494.079a1.347 1.347 0 0 0-.889.931c-.069.187-.16.311-.274.372-.11.06-.266.075-.469.042l-.791-.14Z" fill="currentColor"/>
	<g clip-path="url(#def-xbox-360-a)">
	<path d="M3.393 13.268A6.96 6.96 0 0 0 8 15a6.962 6.962 0 0 0 4.61-1.732C13.704 12.154 10.092 8.189 8 6.61c-2.09 1.579-5.703 5.544-4.607 6.658Zm6.51-8.4c1.458 1.726 4.366 6.014 3.546 7.53A6.966 6.966 0 0 0 15 8.002a6.962 6.962 0 0 0-2.082-4.979s-.016-.014-.048-.025a.462.462 0 0 0-.164-.024c-.344 0-1.157.252-2.802 1.893Zm-6.772-1.87c-.032.011-.048.025-.05.025A6.97 6.97 0 0 0 1 8.003c0 1.665.581 3.192 1.552 4.392-.816-1.517 2.087-5.803 3.548-7.528-1.645-1.644-2.461-1.894-2.805-1.894a.394.394 0 0 0-.165.028v-.002ZM8 3.072S6.281 2.067 4.94 2.018c-.527-.017-.848.172-.888.199C5.305 1.377 6.635 1 7.991 1H8c1.363 0 2.686.376 3.947 1.217-.04-.028-.359-.217-.887-.199C9.718 2.067 8 3.069 8 3.069v.004Z" fill="currentColor"/>
	</g>
</svg>