<svg id="svg-platform-steam-deck-unsupported" viewBox="0 0 26 16" xmlns="http://www.w3.org/2000/svg">
	<path d="M3.506 1v2.514A4.49 4.49 0 0 1 8 8a4.49 4.49 0 0 1-4.494 4.486V15a7.009 7.009 0 0 0 6.734-5.059A8 8 0 0 1 10 8a8 8 0 0 1 .24-1.941A7.009 7.009 0 0 0 3.506 1zm0 3.508a3.5 3.5 0 1 0 0 7 3.5 3.5 0 1 0 0-7zM18 1.334a6.669 6.669 0 0 0-6.667 6.667A6.67 6.67 0 0 0 18 14.667a6.67 6.67 0 0 0 6.667-6.666A6.67 6.67 0 0 0 18 1.334Zm0 12a5.332 5.332 0 0 1-5.333-5.333c0-1.234.42-2.367 1.126-3.267l7.474 7.473A5.268 5.268 0 0 1 18 13.334zm4.207-2.067-7.474-7.473A5.268 5.268 0 0 1 18 2.667a5.332 5.332 0 0 1 5.333 5.334 5.27 5.27 0 0 1-1.126 3.266z" fill="currentColor"/>
</svg>