<svg id="svg-platform-nintendo-switch-1" viewBox="0 0 25 16" xmlns="http://www.w3.org/2000/svg">
	<g fill="currentColor">
	<path d="M8.172 8.005c0-3.833.01-6.976.02-6.985.01-.011.59-.02 1.285-.02 1.009 0 1.322.009 1.525.044a3.599 3.599 0 0 1 2.952 2.91c.04.212.046.708.046 4.034 0 3.553.004 3.97-.107 4.355-.02.066-.043.13-.07.211a3.62 3.62 0 0 1-2.998 2.422c-.278.028-2.528.04-2.606.011-.044-.018-.047-.658-.047-6.982Zm4.091.235a1.418 1.418 0 0 0-.974-.905 1.408 1.408 0 0 0-1.695.94 1.663 1.663 0 0 0-.013.818 1.428 1.428 0 0 0 1.708.968c.447-.119.795-.44.972-.9.096-.249.098-.648.002-.92ZM3.246 3.903c-.182.035-.46.174-.608.304-.305.263-.455.638-.432 1.078.011.23.026.29.119.476.135.281.341.487.623.626.194.096.243.108.496.116.228.009.31 0 .464-.052.629-.212 1.009-.823.9-1.45a1.33 1.33 0 0 0-1.562-1.098Z"/>
	<path d="M2.997 1.047a3.619 3.619 0 0 0-2.87 2.638c-.127.49-.136.777-.122 4.578.008 3.492.012 3.572.07 3.842.322 1.452 1.354 2.489 2.82 2.83.193.044.435.053 2.004.062 1.624.01 1.792.008 1.835-.035.044-.044.047-.604.047-6.948 0-4.703-.01-6.918-.03-6.959-.028-.052-.078-.055-1.775-.052-1.381.003-1.796.012-1.978.044ZM5.622 13.88l-1.181-.015c-1.087-.01-1.203-.017-1.42-.072a2.458 2.458 0 0 1-1.82-1.896c-.065-.294-.065-7.508-.004-7.795A2.49 2.49 0 0 1 2.7 2.31c.383-.154.56-.172 1.8-.175l1.122-.003V13.88h.001Zm18.706-2.039v1.295h-5.6v-1.295h2.051V5.94c0-.233.007-.474.021-.721l-1.456 1.218a.64.64 0 0 1-.252.126.61.61 0 0 1-.42-.07.444.444 0 0 1-.126-.119L18 5.625 21.087 3h1.421v8.841h1.82Z"/>
	</g>
</svg>