<svg id="svg-platform-pc-vr" viewBox="0 0 42 16" xmlns="http://www.w3.org/2000/svg">
	<path d="M35.371 7.755c.355 0 .663-.044.924-.133a1.78 1.78 0 0 0 .651-.364c.173-.159.302-.345.386-.56.084-.215.126-.45.126-.707 0-.513-.17-.908-.511-1.183-.337-.275-.852-.413-1.547-.413h-1.204v3.36h1.175Zm4.844 5.306h-1.7c-.322 0-.556-.126-.7-.378l-2.128-3.241a.735.735 0 0 0-.267-.259c-.093-.051-.233-.077-.42-.077h-.804v3.955h-1.883V2.939H35.4c.686 0 1.273.072 1.764.217.494.14.898.338 1.21.595.318.257.551.565.7.924.15.355.224.747.224 1.176 0 .34-.05.663-.154.966a2.692 2.692 0 0 1-.433.826 2.84 2.84 0 0 1-.7.651c-.276.187-.59.334-.946.441.122.07.234.154.337.252.102.093.195.205.28.336l2.533 3.738ZM31.268 2.939 27.18 13.061h-1.701L21.39 2.939h1.512c.163 0 .296.04.399.119.102.08.18.182.23.308L25.92 9.54c.079.2.154.422.224.665.074.238.144.488.21.749.056-.261.116-.511.182-.749.065-.243.137-.464.217-.665l2.373-6.174a.672.672 0 0 1 .217-.294.634.634 0 0 1 .406-.133h1.519Zm-13.866 7.735c.103 0 .194.04.273.12l.742.804c-.41.509-.917.898-1.519 1.17-.597.27-1.316.405-2.156.405-.751 0-1.428-.128-2.03-.385a4.472 4.472 0 0 1-1.533-1.07 4.73 4.73 0 0 1-.98-1.639A6.206 6.206 0 0 1 9.863 8c0-.76.122-1.456.364-2.086a4.822 4.822 0 0 1 1.022-1.638 4.64 4.64 0 0 1 1.582-1.064 5.194 5.194 0 0 1 2.03-.385c.738 0 1.39.121 1.96.364a4.67 4.67 0 0 1 1.463.952l-.63.875a.552.552 0 0 1-.147.147.39.39 0 0 1-.238.063.484.484 0 0 1-.217-.056 5.593 5.593 0 0 1-.245-.147 6.23 6.23 0 0 0-.308-.196 2.351 2.351 0 0 0-.406-.189 2.886 2.886 0 0 0-.539-.147 3.447 3.447 0 0 0-.7-.063c-.452 0-.868.082-1.246.245a2.651 2.651 0 0 0-.966.7c-.27.303-.48.677-.63 1.12A4.66 4.66 0 0 0 11.788 8c0 .57.08 1.076.238 1.52.164.442.383.816.658 1.12.276.303.6.536.973.7a3.06 3.06 0 0 0 1.204.237c.257 0 .488-.014.693-.042.21-.028.402-.072.574-.133.178-.06.343-.137.497-.23.159-.099.315-.218.47-.358a.577.577 0 0 1 .146-.098.332.332 0 0 1 .161-.042ZM5.075 8.028c.345 0 .646-.042.903-.126a1.74 1.74 0 0 0 .637-.371c.173-.163.301-.36.385-.588a2.28 2.28 0 0 0 .126-.777c0-.27-.042-.516-.126-.735a1.453 1.453 0 0 0-.378-.56 1.646 1.646 0 0 0-.637-.35 2.936 2.936 0 0 0-.91-.126H3.668v3.633h1.407Zm0-5.089c.677 0 1.262.08 1.757.238.495.159.903.38 1.225.665.322.285.56.625.714 1.022.159.397.238.83.238 1.302 0 .49-.082.94-.245 1.351a2.802 2.802 0 0 1-.735 1.05c-.327.294-.737.523-1.232.686-.49.163-1.064.245-1.722.245H3.668v3.563H1.785V2.939h3.29Z" fill="currentColor"/>
</svg>