<svg id="svg-platform-ps-3" viewBox="0 0 28 16" xmlns="http://www.w3.org/2000/svg">
	<g clip-path="url(#def-ps-3-a)">
	<path d="M15.858 11.451c-.313.395-1.08.676-1.08.676l-5.695 2.046v-1.509l4.192-1.493c.476-.17.549-.412.162-.538-.386-.127-1.085-.09-1.56.08l-2.794.984v-1.566l.16-.054s.808-.286 1.943-.412c1.135-.125 2.525.017 3.616.43 1.23.39 1.368.962 1.056 1.356ZM9.625 8.883v-3.86c0-.453-.083-.87-.508-.988-.326-.105-.528.198-.528.65v9.664l-2.606-.827V2c1.108.206 2.722.692 3.59.985 2.207.757 2.955 1.7 2.955 3.825 0 2.071-1.278 2.856-2.903 2.072v.001ZM1.2 12.508C-.061 12.15-.271 11.41.304 10.984c.532-.394 1.436-.69 1.436-.69l3.737-1.33v1.515l-2.69.963c-.474.17-.547.411-.161.538.386.126 1.085.09 1.56-.08l1.29-.469v1.356l-.257.043a8.453 8.453 0 0 1-4.018-.323v.001Z" fill="currentColor"/>
	</g>
	<path d="M20.755 5.7c.07-.486.205-.91.406-1.275.2-.369.45-.674.749-.917a3.08 3.08 0 0 1 1.036-.553 4.094 4.094 0 0 1 1.26-.189c.467 0 .887.068 1.26.203.378.13.7.315.966.553a2.45 2.45 0 0 1 .826 1.855c0 .322-.037.607-.112.854a1.839 1.839 0 0 1-.812 1.099c-.2.126-.427.231-.68.315.608.191 1.06.483 1.359.875.299.392.448.884.448 1.477 0 .504-.093.95-.28 1.337a2.907 2.907 0 0 1-.756.98 3.32 3.32 0 0 1-1.106.595 4.245 4.245 0 0 1-1.323.203c-.509 0-.952-.058-1.33-.175a2.888 2.888 0 0 1-.987-.518 3.13 3.13 0 0 1-.714-.84 5.668 5.668 0 0 1-.504-1.148l.763-.315a.888.888 0 0 1 .56-.063c.177.037.306.13.385.28.084.163.175.324.273.483.103.159.224.301.364.427.14.121.303.222.49.301.191.075.418.112.679.112.294 0 .55-.047.77-.14.22-.098.401-.224.546-.378.15-.154.259-.324.329-.51.075-.192.112-.384.112-.575 0-.243-.026-.462-.077-.658a.98.98 0 0 0-.322-.51c-.163-.14-.4-.25-.707-.33-.303-.08-.712-.119-1.225-.119V7.204a4.374 4.374 0 0 0 1.057-.119c.28-.075.502-.177.665-.308.168-.135.285-.296.35-.483s.098-.392.098-.616c0-.476-.133-.838-.4-1.085-.265-.247-.62-.37-1.063-.37a1.7 1.7 0 0 0-.567.09 1.552 1.552 0 0 0-1.022 1.071c-.08.215-.184.357-.315.427-.126.07-.306.086-.54.05l-.91-.162Z" fill="currentColor"/>
</svg>