<svg id="svg-platform-ios" viewBox="0 0 16 16" xmlns="http://www.w3.org/2000/svg">
	<path d="M.733 4.033a.723.723 0 0 0-.517 1.234.72.72 0 0 0 .517.206c.414 0 .74-.32.74-.72 0-.4-.326-.72-.74-.72Zm5.074.014c-2.24 0-3.64 1.526-3.64 3.953 0 2.447 1.4 3.967 3.64 3.967 2.226 0 3.633-1.52 3.633-3.967 0-2.427-1.407-3.953-3.633-3.953Zm7.226 0c-1.666 0-2.853.92-2.853 2.286 0 1.087.673 1.767 2.087 2.094l.993.24c.967.22 1.36.54 1.36 1.093 0 .64-.647 1.093-1.567 1.093-.94 0-1.646-.46-1.72-1.166H10c.053 1.413 1.213 2.28 2.973 2.28 1.86 0 3.027-.914 3.027-2.367 0-1.14-.667-1.787-2.213-2.14l-.887-.2c-.94-.227-1.327-.527-1.327-1.033 0-.64.587-1.067 1.454-1.067.873 0 1.473.433 1.54 1.147h1.306c-.033-1.347-1.146-2.26-2.84-2.26ZM5.807 5.213C7.167 5.213 8.04 6.3 8.04 8c0 1.713-.873 2.8-2.233 2.8-1.374 0-2.24-1.087-2.24-2.8 0-1.7.866-2.787 2.24-2.787Zm-5.733.994v5.633H1.4V6.207H.073h.001Z" fill="currentColor"/>
</svg>