<svg width="409" height="262" viewBox="0 0 409 262" fill="none" xmlns="http://www.w3.org/2000/svg">
<g filter="url(#filter0_d_1189_2595)">
<path d="M326 106.98H47C38.1634 106.98 31 114.143 31 122.98V150.98C31 159.817 38.1634 166.98 47 166.98H326C334.837 166.98 342 159.817 342 150.98V122.98C342 114.143 334.837 106.98 326 106.98Z" fill="white" fill-opacity="0.5"/>
<path d="M326 106.98H47C38.1634 106.98 31 114.143 31 122.98V150.98C31 159.817 38.1634 166.98 47 166.98H326C334.837 166.98 342 159.817 342 150.98V122.98C342 114.143 334.837 106.98 326 106.98Z" fill="url(#paint0_linear_1189_2595)" fill-opacity="0.2"/>
<path d="M326 106.98H47C38.1634 106.98 31 114.143 31 122.98V150.98C31 159.817 38.1634 166.98 47 166.98H326C334.837 166.98 342 159.817 342 150.98V122.98C342 114.143 334.837 106.98 326 106.98Z" fill="url(#paint1_linear_1189_2595)" fill-opacity="0.1"/>
<path d="M326 107.48H47C38.4396 107.48 31.5 114.42 31.5 122.98V150.98C31.5 159.54 38.4396 166.48 47 166.48H326C334.56 166.48 341.5 159.54 341.5 150.98V122.98C341.5 114.42 334.56 107.48 326 107.48Z" stroke="url(#paint2_linear_1189_2595)"/>
<path d="M326 107.48H47C38.4396 107.48 31.5 114.42 31.5 122.98V150.98C31.5 159.54 38.4396 166.48 47 166.48H326C334.56 166.48 341.5 159.54 341.5 150.98V122.98C341.5 114.42 334.56 107.48 326 107.48Z" stroke="url(#paint3_linear_1189_2595)" stroke-opacity="0.2"/>
</g>
<path d="M314 130.98H102C99.7909 130.98 98 132.771 98 134.98V138.98C98 141.189 99.7909 142.98 102 142.98H314C316.209 142.98 318 141.189 318 138.98V134.98C318 132.771 316.209 130.98 314 130.98Z" fill="url(#paint4_linear_1189_2595)" fill-opacity="0.6"/>
<path d="M79 130.98H57C54.7909 130.98 53 132.771 53 134.98V138.98C53 141.189 54.7909 142.98 57 142.98H79C81.2091 142.98 83 141.189 83 138.98V134.98C83 132.771 81.2091 130.98 79 130.98Z" fill="url(#paint5_linear_1189_2595)" fill-opacity="0.8"/>
<g opacity="0.8">
<g filter="url(#filter1_di_1189_2595)">
<path d="M361.941 25.4234L83.091 34.5697C74.2592 34.8593 67.3344 42.2538 67.6241 51.0856L68.542 79.0705C68.8317 87.9023 76.2261 94.8271 85.058 94.5374L363.908 85.3911C372.74 85.1014 379.665 77.707 379.375 68.8752L378.457 40.8902C378.167 32.0584 370.773 25.1337 361.941 25.4234Z" fill="white" fill-opacity="0.5"/>
<path d="M361.941 25.4234L83.091 34.5697C74.2592 34.8593 67.3344 42.2538 67.6241 51.0856L68.542 79.0705C68.8317 87.9023 76.2261 94.8271 85.058 94.5374L363.908 85.3911C372.74 85.1014 379.665 77.707 379.375 68.8752L378.457 40.8902C378.167 32.0584 370.773 25.1337 361.941 25.4234Z" fill="url(#paint6_linear_1189_2595)" fill-opacity="0.2"/>
<path d="M361.957 25.9231L83.1069 35.0694C74.5511 35.35 67.8427 42.5133 68.1234 51.0692L69.0413 79.0541C69.3219 87.6099 76.4853 94.3183 85.0411 94.0376L363.891 84.8914C372.447 84.6107 379.155 77.4474 378.875 68.8916L377.957 40.9066C377.676 32.3508 370.513 25.6424 361.957 25.9231Z" stroke="url(#paint7_linear_1189_2595)"/>
<path d="M361.957 25.9231L83.1069 35.0694C74.5511 35.35 67.8427 42.5133 68.1234 51.0692L69.0413 79.0541C69.3219 87.6099 76.4853 94.3183 85.0411 94.0376L363.891 84.8914C372.447 84.6107 379.155 77.4474 378.875 68.8916L377.957 40.9066C377.676 32.3508 370.513 25.6424 361.957 25.9231Z" stroke="url(#paint8_linear_1189_2595)" stroke-opacity="0.2"/>
</g>
<path d="M350.734 49.8035L138.848 56.7534C136.64 56.8258 134.909 58.6744 134.982 60.8823L135.113 64.8802C135.185 67.0881 137.034 68.8193 139.242 68.7469L351.128 61.797C353.336 61.7246 355.067 59.876 354.995 57.6681L354.863 53.6702C354.791 51.4623 352.942 49.7311 350.734 49.8035Z" fill="url(#paint9_linear_1189_2595)" fill-opacity="0.4"/>
<path d="M115.861 57.5075L93.8728 58.2287C91.6649 58.3011 89.9337 60.1497 90.0061 62.3577L90.1373 66.3555C90.2097 68.5635 92.0583 70.2946 94.2662 70.2222L116.254 69.501C118.462 69.4286 120.194 67.58 120.121 65.372L119.99 61.3742C119.918 59.1662 118.069 57.435 115.861 57.5075Z" fill="url(#paint10_linear_1189_2595)" fill-opacity="0.4"/>
</g>
<g opacity="0.5">
<path d="M387.695 182.851L108.713 179.665C99.8768 179.564 92.6321 186.645 92.5312 195.481L92.2114 223.479C92.1105 232.315 99.1917 239.56 108.028 239.661L387.009 242.847C395.845 242.948 403.09 235.867 403.191 227.031L403.511 199.032C403.612 190.196 396.531 182.952 387.695 182.851Z" fill="white" fill-opacity="0.5"/>
<path d="M387.695 182.851L108.713 179.665C99.8768 179.564 92.6321 186.645 92.5312 195.481L92.2114 223.479C92.1105 232.315 99.1917 239.56 108.028 239.661L387.009 242.847C395.845 242.948 403.09 235.867 403.191 227.031L403.511 199.032C403.612 190.196 396.531 182.952 387.695 182.851Z" fill="url(#paint11_linear_1189_2595)" fill-opacity="0.2"/>
<path d="M387.689 183.351L108.707 180.165C100.147 180.067 93.1288 186.927 93.031 195.487L92.7113 223.485C92.6135 232.045 99.4734 239.063 108.033 239.161L387.015 242.347C395.575 242.445 402.593 235.585 402.691 227.025L403.011 199.027C403.109 190.467 396.249 183.449 387.689 183.351Z" stroke="url(#paint12_linear_1189_2595)"/>
<path d="M387.689 183.351L108.707 180.165C100.147 180.067 93.1288 186.927 93.031 195.487L92.7113 223.485C92.6135 232.045 99.4734 239.063 108.033 239.161L387.015 242.347C395.575 242.445 402.593 235.585 402.691 227.025L403.011 199.027C403.109 190.467 396.249 183.449 387.689 183.351Z" stroke="url(#paint13_linear_1189_2595)" stroke-opacity="0.2"/>
<path d="M375.421 206.712L163.435 204.291C161.226 204.265 159.415 206.036 159.39 208.245L159.344 212.244C159.319 214.453 161.089 216.265 163.298 216.29L375.284 218.711C377.493 218.736 379.305 216.966 379.33 214.757L379.376 210.757C379.401 208.548 377.63 206.737 375.421 206.712Z" fill="url(#paint14_linear_1189_2595)" fill-opacity="0.4"/>
<path d="M140.436 204.028L118.437 203.777C116.228 203.751 114.417 205.522 114.392 207.731L114.346 211.73C114.321 213.939 116.091 215.751 118.3 215.776L140.299 216.027C142.508 216.052 144.319 214.282 144.344 212.073L144.39 208.073C144.415 205.864 142.645 204.053 140.436 204.028Z" fill="url(#paint15_linear_1189_2595)" fill-opacity="0.4"/>
</g>
<defs>
<filter id="filter0_d_1189_2595" x="24" y="101.98" width="325" height="74" filterUnits="userSpaceOnUse" color-interpolation-filters="sRGB">
<feFlood flood-opacity="0" result="BackgroundImageFix"/>
<feColorMatrix in="SourceAlpha" type="matrix" values="0 0 0 0 0 0 0 0 0 0 0 0 0 0 0 0 0 0 127 0" result="hardAlpha"/>
<feOffset dy="2"/>
<feGaussianBlur stdDeviation="3.5"/>
<feComposite in2="hardAlpha" operator="out"/>
<feColorMatrix type="matrix" values="0 0 0 0 0 0 0 0 0 0 0 0 0 0 0 0 0 0 0.03 0"/>
<feBlend mode="normal" in2="BackgroundImageFix" result="effect1_dropShadow_1189_2595"/>
<feBlend mode="normal" in="SourceGraphic" in2="effect1_dropShadow_1189_2595" result="shape"/>
</filter>
<filter id="filter1_di_1189_2595" x="0.615234" y="0.414581" width="407.769" height="165.132" filterUnits="userSpaceOnUse" color-interpolation-filters="sRGB">
<feFlood flood-opacity="0" result="BackgroundImageFix"/>
<feColorMatrix in="SourceAlpha" type="matrix" values="0 0 0 0 0 0 0 0 0 0 0 0 0 0 0 0 0 0 127 0" result="hardAlpha"/>
<feOffset dx="-19" dy="23"/>
<feGaussianBlur stdDeviation="24"/>
<feComposite in2="hardAlpha" operator="out"/>
<feColorMatrix type="matrix" values="0 0 0 0 0 0 0 0 0 0 0 0 0 0 0 0 0 0 0.05 0"/>
<feBlend mode="normal" in2="BackgroundImageFix" result="effect1_dropShadow_1189_2595"/>
<feBlend mode="normal" in="SourceGraphic" in2="effect1_dropShadow_1189_2595" result="shape"/>
<feColorMatrix in="SourceAlpha" type="matrix" values="0 0 0 0 0 0 0 0 0 0 0 0 0 0 0 0 0 0 127 0" result="hardAlpha"/>
<feOffset dy="2"/>
<feGaussianBlur stdDeviation="3.5"/>
<feComposite in2="hardAlpha" operator="arithmetic" k2="-1" k3="1"/>
<feColorMatrix type="matrix" values="0 0 0 0 0 0 0 0 0 0 0 0 0 0 0 0 0 0 0.03 0"/>
<feBlend mode="normal" in2="shape" result="effect2_innerShadow_1189_2595"/>
</filter>
<linearGradient id="paint0_linear_1189_2595" x1="59.4343" y1="123.291" x2="330.997" y2="218.59" gradientUnits="userSpaceOnUse">
<stop stop-color="#F5F5F5"/>
<stop offset="1" stop-color="white" stop-opacity="0"/>
</linearGradient>
<linearGradient id="paint1_linear_1189_2595" x1="5.46095" y1="87.0709" x2="145.729" y2="169.171" gradientUnits="userSpaceOnUse">
<stop stop-color="#FD366E"/>
<stop offset="0.504443" stop-color="#FD4B6C"/>
<stop offset="1" stop-color="#FE9567"/>
</linearGradient>
<linearGradient id="paint2_linear_1189_2595" x1="175.934" y1="102.832" x2="174.533" y2="175.165" gradientUnits="userSpaceOnUse">
<stop stop-color="white" stop-opacity="0.16"/>
<stop offset="1" stop-color="white" stop-opacity="0"/>
</linearGradient>
<linearGradient id="paint3_linear_1189_2595" x1="123.5" y1="196.48" x2="120.676" y2="105.073" gradientUnits="userSpaceOnUse">
<stop stop-color="#818186"/>
<stop offset="1" stop-color="#D8D8DB"/>
</linearGradient>
<linearGradient id="paint4_linear_1189_2595" x1="80.6103" y1="130.98" x2="338.037" y2="146.645" gradientUnits="userSpaceOnUse">
<stop stop-color="#FD366E"/>
<stop offset="1" stop-color="#FE9567" stop-opacity="0"/>
</linearGradient>
<linearGradient id="paint5_linear_1189_2595" x1="50.6287" y1="130.98" x2="216.142" y2="125.686" gradientUnits="userSpaceOnUse">
<stop stop-color="#FD366E"/>
<stop offset="1" stop-color="#FE9567" stop-opacity="0"/>
</linearGradient>
<linearGradient id="paint6_linear_1189_2595" x1="96.0533" y1="50.464" x2="370.594" y2="136.81" gradientUnits="userSpaceOnUse">
<stop stop-color="#F5F5F5"/>
<stop offset="1" stop-color="white" stop-opacity="0"/>
</linearGradient>
<linearGradient id="paint7_linear_1189_2595" x1="211.804" y1="26.2142" x2="212.775" y2="98.5541" gradientUnits="userSpaceOnUse">
<stop stop-color="white" stop-opacity="0.16"/>
<stop offset="1" stop-color="white" stop-opacity="0"/>
</linearGradient>
<linearGradient id="paint8_linear_1189_2595" x1="162.468" y1="121.531" x2="156.649" y2="30.2652" gradientUnits="userSpaceOnUse">
<stop stop-color="#818186"/>
<stop offset="1" stop-color="#D8D8DB"/>
</linearGradient>
<linearGradient id="paint9_linear_1189_2595" x1="-14.2036" y1="64.9343" x2="375.366" y2="69.6192" gradientUnits="userSpaceOnUse">
<stop stop-color="#C3C3C6"/>
<stop offset="1" stop-color="#EDEDF0"/>
</linearGradient>
<linearGradient id="paint10_linear_1189_2595" x1="87.505" y1="58.4375" x2="172.797" y2="47.7685" gradientUnits="userSpaceOnUse">
<stop stop-color="#C3C3C6"/>
<stop offset="1" stop-color="#EDEDF0"/>
</linearGradient>
<linearGradient id="paint11_linear_1189_2595" x1="120.96" y1="196.117" x2="391.417" y2="294.511" gradientUnits="userSpaceOnUse">
<stop stop-color="#F5F5F5"/>
<stop offset="1" stop-color="white" stop-opacity="0"/>
</linearGradient>
<linearGradient id="paint12_linear_1189_2595" x1="237.692" y1="176.984" x2="235.465" y2="249.296" gradientUnits="userSpaceOnUse">
<stop stop-color="white" stop-opacity="0.16"/>
<stop offset="1" stop-color="white" stop-opacity="0"/>
</linearGradient>
<linearGradient id="paint13_linear_1189_2595" x1="184.192" y1="270.027" x2="182.412" y2="178.594" gradientUnits="userSpaceOnUse">
<stop stop-color="#818186"/>
<stop offset="1" stop-color="#D8D8DB"/>
</linearGradient>
<linearGradient id="paint14_linear_1189_2595" x1="10.1711" y1="205.7" x2="399.154" y2="227.597" gradientUnits="userSpaceOnUse">
<stop stop-color="#C3C3C6"/>
<stop offset="1" stop-color="#EDEDF0"/>
</linearGradient>
<linearGradient id="paint15_linear_1189_2595" x1="112.067" y1="203.704" x2="197.748" y2="196.815" gradientUnits="userSpaceOnUse">
<stop stop-color="#C3C3C6"/>
<stop offset="1" stop-color="#EDEDF0"/>
</linearGradient>
</defs>
</svg>
