<?xml version="1.0" encoding="utf-8"?>
<!-- Generator: Adobe Illustrator 26.0.2, SVG Export Plug-In . SVG Version: 6.00 Build 0)  -->
<svg version="1.1" id="Layer_1" xmlns="http://www.w3.org/2000/svg" xmlns:xlink="http://www.w3.org/1999/xlink" x="0px" y="0px"
	 viewBox="0 0 64 64" style="enable-background:new 0 0 64 64;" xml:space="preserve">
<style type="text/css">
	.st0{fill-opacity:0;}
	.st1{fill:#FFFFFF;fill-opacity:0.85;}
	.st2{fill:#FFFFFF;fill-opacity:0.425;}
</style>
<g>
	<rect x="11.6" y="4.4" class="st0" width="40.8" height="55.3"/>
	<path class="st1" d="M39.9,4.4C34.5,4.3,28.6,7,24.6,12.5c-0.6,0.8-1.1,1.6-1.7,2.8c6.8,1.2,12.3,7.2,12.3,13.9
		c0,1.9-0.4,3.7-1,5.2c4.1-0.6,6.7-1.5,9-2.8c5.2-3,9.2-7.8,9.2-14.7C52.4,9,46.8,4.4,39.9,4.4z M41.1,17.8
		c-0.6,0.5-1.6,0.5-2.1-0.2c-0.6-0.7-0.5-1.6,0.2-2.1l4.6-3.9c0.6-0.5,1.6-0.4,2.1,0.2c0.5,0.6,0.5,1.6-0.2,2.1L41.1,17.8z
		 M35.4,59.6h2.4c1.9,0,3.2-1,3.2-2.9V36.1c-2.7,1-5.6,1.6-8.9,1.8v18.8C32.1,58.6,33.4,59.6,35.4,59.6z"/>
	<path class="st2" d="M23,38.3c4.8,0,9.2-3,9.2-9.1c0-5.4-5.1-11.1-11.7-11.1c-5.6,0-8.8,4.4-8.8,9C11.6,33.9,17.4,38.3,23,38.3z
		 M21.4,33.5c-0.9,0.8-2.4,0-4.2-2.2c-1.8-2.2-2.3-3.8-1.4-4.5c0.9-0.8,2.4-0.1,4.2,2.2S22.3,32.8,21.4,33.5z"/>
</g>
</svg>
