<?xml version="1.0" encoding="utf-8"?>
<!-- Generator: Adobe Illustrator 26.0.2, SVG Export Plug-In . SVG Version: 6.00 Build 0)  -->
<svg version="1.1" id="Layer_1" xmlns="http://www.w3.org/2000/svg" xmlns:xlink="http://www.w3.org/1999/xlink" x="0px" y="0px"
	 viewBox="0 0 64 64" style="enable-background:new 0 0 64 64;" xml:space="preserve">
<style type="text/css">
	.st0{fill-opacity:0;}
	.st1{fill:#FFFFFF;fill-opacity:0.85;}
</style>
<g>
	<rect x="18.4" y="1.5" class="st0" width="27.3" height="61"/>
	<path class="st1" d="M32,26.9c7.3,0.1,13.6-5.7,13.5-12.7S39.4,1.5,32,1.5c-6.7,0-10.8,4.2-12.8,7.1c-0.7,1-0.9,2.1-0.9,3.3v4.6
		c0,1.2,0.3,2.3,0.9,3.3C21.2,22.7,25.4,26.8,32,26.9z M24.1,19.1c-0.8,0-1.5-0.7-1.5-1.5v-6.9c0-0.8,0.7-1.5,1.5-1.5
		c0.9,0,1.5,0.7,1.5,1.5v6.9C25.6,18.5,24.9,19.1,24.1,19.1z M33.7,52.1h8.8V26.4c-2.5,1.9-5.5,3.2-8.8,3.4V52.1z M36.8,62.4h2.7
		c1.9,0,3.1-0.9,3.1-2.8v-4.4h-8.8v4.4C33.7,61.5,34.9,62.4,36.8,62.4z"/>
</g>
</svg>
