<?xml version="1.0" encoding="utf-8"?>
<!-- Generator: Adobe Illustrator 26.0.2, SVG Export Plug-In . SVG Version: 6.00 Build 0)  -->
<svg version="1.1" id="Layer_1" xmlns="http://www.w3.org/2000/svg" xmlns:xlink="http://www.w3.org/1999/xlink" x="0px" y="0px"
	 viewBox="0 0 64 64" style="enable-background:new 0 0 64 64;" xml:space="preserve">
<style type="text/css">
	.st0{fill-opacity:0;}
	.st1{fill:#FFFFFF;fill-opacity:0.85;}
</style>
<g>
	<rect x="5.8" class="st0" width="52.4" height="64"/>
	<path class="st1" d="M32,36.7c-1.6,0-3-1.3-3-2.9c0-1.6,1.3-3,3-3s3,1.3,3,3C35,35.3,33.6,36.7,32,36.7z M22,63.9h19.9
		c10.9,0,16.3-5.3,16.3-16.3V21.4H44.6c-0.6,1.2-2,2.2-3.6,2.2H23c-1.6,0-3-0.9-3.6-2.2H5.8v26.3C5.8,58.6,11.1,63.9,22,63.9z
		 M5.8,18.1h13.6c0.6-1.3,2-2.3,3.6-2.3h17.8c1.8,0,3.1,0.9,3.6,2.3h13.6v-2C58.2,5.3,52.9,0,42,0H22C11.1,0,5.8,5.3,5.8,16.2V18.1z
		"/>
</g>
</svg>
