<svg xmlns="http://www.w3.org/2000/svg" xml:space="preserve" viewBox="0 0 64 64">
  <path fill="none" d="M0 7.4h63.9v49.3H0z"/>
  <path fill="#fff" fill-opacity=".85" d="M17.1 56.6h29.7c11.6 0 17.1-5.6 17.1-17V26.2H46.5c-.5 1.3-1.6 2.1-3.1 2.1H20.7c-1.4 0-2.7-.8-3.1-2.1H0v13.4c0 11.5 5.6 17 17.1 17zM31.9 39c-1.4 0-2.5-1.1-2.5-2.5s1.1-2.6 2.5-2.6 2.6 1.2 2.6 2.6c.1 1.3-1.1 2.5-2.6 2.5zM0 23.6h17.4c.4-1.3 1.7-2.1 3.1-2.1h22.6c1.4 0 2.6.8 3.1 2.1h17.4v-.9c0-10.3-6.1-15.3-17.1-15.3H17.1C6.2 7.4 0 12.4 0 22.7v.9z"/>
</svg>
