<svg xmlns="http://www.w3.org/2000/svg" xml:space="preserve" viewBox="0 0 64 64">
  <path fill="none" d="M14.7 4.5h34.5v55H14.7z"/>
  <path fill="#fff" fill-opacity=".85" d="M28.1 4.7c-7.2.1-13.4 6-13.4 14.1 0 8.4 11.9 18.4 20.6 18.4 6.2 0 13.9-6 13.9-13.7-.1-9.2-11.5-18.8-21.1-18.8zM38.2 33c-1.7 0-1.8-2.2-.1-4.9 1.7-2.8 4.4-4.9 6.1-4.9 1.7 0 1.8 2.2.1 4.9-1.6 2.7-4.4 4.9-6.1 4.9zm-8.7-14c-1 1.4-2.8 1.7-4.3.7l-4.3-3.1c-1.4-1-1.7-2.8-.6-4.2.9-1.4 2.8-1.8 4.2-.8l4.3 3.2c1.3.9 1.7 2.8.7 4.2zm-2.9 40.5c1.9 0 3.2-1 3.2-2.9V39.3c-3.7-1.2-7.3-3.3-10.3-6.1v23.3c0 1.9 1.2 2.9 3.2 2.9l3.9.1z"/>
</svg>
