<?xml version="1.0" encoding="utf-8"?>
<!-- Generator: Adobe Illustrator 26.0.2, SVG Export Plug-In . SVG Version: 6.00 Build 0)  -->
<svg version="1.1" id="Layer_1" xmlns="http://www.w3.org/2000/svg" xmlns:xlink="http://www.w3.org/1999/xlink" x="0px" y="0px"
	 viewBox="0 0 64 64" style="enable-background:new 0 0 64 64;" xml:space="preserve">
<style type="text/css">
	.st0{fill-opacity:0;}
	.st1{fill:#FFFFFF;fill-opacity:0.85;}
</style>
<g>
	<rect x="14.8" y="4.5" class="st0" width="34.5" height="55"/>
	<path class="st1" d="M35.8,4.7c-9.6-0.1-21,9.5-21,18.8c0,7.7,7.7,13.7,13.9,13.7c8.7,0,20.6-10.1,20.6-18.4
		C49.2,10.7,43,4.8,35.8,4.7z M25.7,33c-1.8,0-4.4-2.2-6.1-4.9c-1.7-2.8-1.6-4.9,0.2-4.9c1.7,0,4.4,2.2,6.1,4.9
		C27.5,30.8,27.4,33,25.7,33z M34.4,19c-1-1.4-0.7-3.3,0.7-4.2l4.3-3.2c1.3-1,3.2-0.7,4.2,0.8c1.1,1.4,0.8,3.2-0.6,4.2l-4.3,3.1
		C37.2,20.7,35.2,20.4,34.4,19z M37.2,59.5h3.9c1.9,0,3.2-1,3.2-2.9V33.2c-3.1,2.8-6.7,4.9-10.3,6.1v17.2
		C34,58.5,35.2,59.5,37.2,59.5z"/>
</g>
</svg>
