<svg xmlns="http://www.w3.org/2000/svg" xml:space="preserve" viewBox="0 0 64 64">
  <path fill="none" d="M18.4 1.5h27.3v61H18.4z"/>
  <path fill="#fff" fill-opacity=".85" d="M32 26.9c7.3.1 13.6-5.7 13.5-12.7S39.4 1.5 32 1.5c-6.7 0-10.8 4.2-12.8 7.1-.7 1-.9 2.1-.9 3.3v4.6c0 1.2.3 2.3.9 3.3 2 2.9 6.2 7 12.8 7.1zm-7.9-7.8c-.8 0-1.5-.7-1.5-1.5v-6.9c0-.8.7-1.5 1.5-1.5.9 0 1.5.7 1.5 1.5v6.9c0 .9-.7 1.5-1.5 1.5zm9.6 33h8.8V26.4c-2.5 1.9-5.5 3.2-8.8 3.4v22.3zm3.1 10.3h2.7c1.9 0 3.1-.9 3.1-2.8v-4.4h-8.8v4.4c-.1 1.9 1.1 2.8 3 2.8z"/>
</svg>
