<svg xmlns="http://www.w3.org/2000/svg" xml:space="preserve" viewBox="0 0 64 64">
  <path fill="none" d="M11.6 4.4h40.8v55.3H11.6z"/>
  <path fill="#fff" fill-opacity=".85" d="M24.1 4.4c-6.9 0-12.5 4.6-12.5 12.5 0 6.9 4.1 11.7 9.2 14.7 2.3 1.3 4.9 2.3 9 2.8-.7-1.6-1-3.3-1-5.2 0-6.7 5.5-12.7 12.3-13.9-.6-1.2-1.1-2.1-1.7-2.8-3.9-5.6-9.9-8.2-15.3-8.1zm-1.2 13.4-4.6-3.9c-.7-.5-.7-1.5-.2-2.1.5-.7 1.5-.8 2.1-.2l4.6 3.9c.7.5.8 1.5.2 2.1-.5.6-1.4.7-2.1.2zm5.8 41.8c1.9 0 3.2-1 3.2-2.9V37.9c-3.2-.2-6.2-.8-8.9-1.8v20.6c0 1.9 1.2 2.9 3.2 2.9h2.5z"/>
  <path fill="#fff" fill-opacity=".425" d="M41 38.3c5.6 0 11.4-4.4 11.4-11.2 0-4.5-3.2-9-8.8-9-6.6 0-11.7 5.7-11.7 11.1 0 6.1 4.3 9.1 9.1 9.1zm1.6-4.8c-.9-.8-.4-2.3 1.4-4.5 1.9-2.2 3.3-3 4.2-2.2s.4 2.3-1.4 4.5c-1.9 2.2-3.4 3-4.2 2.2z"/>
</svg>
