<svg xmlns="http://www.w3.org/2000/svg" xml:space="preserve" viewBox="0 0 64 64">
  <path fill="none" d="M0 4.6h63.9v54.8H0z"/>
  <path fill="#fff" fill-opacity=".85" d="M19.4 59.4h25.3c13 0 19.3-6.2 19.3-19.4V25.8H48.3c-.6 1.4-2 2.3-3.8 2.3H19.4c-1.7 0-3.1-.9-3.7-2.3H0V40c0 13.1 6.2 19.4 19.4 19.4zm12.5-18.8c-1.6 0-2.9-1.3-2.9-2.9 0-1.6 1.3-2.9 2.9-2.9 1.6 0 2.9 1.3 2.9 2.9.1 1.5-1.2 2.9-2.9 2.9zM0 22.7h15.6c.5-1.5 1.9-2.4 3.7-2.4h25.4c1.7 0 3.1.9 3.7 2.4h15.5v-1.1c0-11.5-7-16.9-19.4-16.9H19.4C7 4.6 0 10.1 0 21.6v1.1z"/>
</svg>
