<svg xmlns="http://www.w3.org/2000/svg" xml:space="preserve" viewBox="0 0 64 64">
  <path fill="none" d="M1 9.7h62v44.6H1z"/>
  <path fill="#fff" fill-opacity=".85" d="M28.5 54.3h7.1c6.8 0 11.7-.8 15.5-2.7C59.1 47.7 63 40.1 63 32c0-3.3-.6-6.4-1.9-9.3H2.9C1.6 25.5 1 28.7 1 32c0 8.2 3.9 15.7 11.9 19.6 3.8 1.9 8.8 2.7 15.6 2.7zM32 40.9c-2.9 0-5.1-2.2-5.1-5v-7.3l2.3-1v4c.9-.6 1.8-.9 2.8-.9 2.7 0 5.1 2.3 5.1 5.2 0 2.7-2.3 5-5.1 5zm0-2.3c1.5 0 2.7-1.3 2.7-2.7 0-1.5-1.2-2.8-2.7-2.8-1.5 0-2.8 1.3-2.8 2.8 0 1.5 1.3 2.7 2.8 2.7zM4.2 20.2h55.7c-2-3.2-4.9-6-8.7-7.8-3.8-1.9-8.7-2.7-15.5-2.7h-7.1c-6.8 0-11.7.8-15.5 2.7-4.1 1.8-7 4.6-8.9 7.8z"/>
</svg>
