<svg xmlns="http://www.w3.org/2000/svg" xml:space="preserve" viewBox="0 0 64 64">
  <path fill="none" d="M11.6 12.6h40.8v38.8H11.6z"/>
  <path fill="#fff" fill-opacity=".85" d="m37.6 33.5 4.8-10.9c1.4-3.3-.1-7.2-3.5-8.6-3.3-1.4-7.2.1-8.6 3.5l-4.8 10.9c-1.4 3.3.1 7.2 3.5 8.6 3.3 1.4 7.2-.3 8.6-3.5zm-10.3-2.6c0-2.2 1.8-4.1 4-4.1 2.3 0 4.1 1.8 4.1 4.1S33.6 35 31.3 35c-2.2 0-4-1.8-4-4.1zm6.5 0c0-1.3-1-2.4-2.4-2.4-1.3 0-2.4 1.1-2.4 2.4 0 1.3 1 2.4 2.4 2.4s2.4-1 2.4-2.4zM45 21.8c-.1.6-.3 1.1-.6 1.7l-4.8 10.9c-2 4.5-7.1 6.5-11.6 4.7-4.4-1.9-6.5-6.8-4.8-11.2-2.2 2.6-2.7 6.6-1 11.1 3 8.3 10.5 9.9 18 7l4.5-1.8c6.1-2.4 9-8 7.2-14.1-1.2-4.2-4.3-6.1-6.9-8.3z"/>
  <path fill="#fff" fill-opacity=".425" d="M19.3 30.8c-4.5 1.2-7.7 5.3-7.7 10.1 0 5.8 4.7 10.5 10.5 10.5 2.6 0 5-.9 6.8-2.6-4-1.3-7.2-4.4-8.8-9.1-1.1-3-1.4-6-.8-8.9z"/>
  <path fill="#fff" fill-opacity=".212" d="M27.3 30.9c0-2.2 1.8-4.1 4-4.1 2.3 0 4.1 1.8 4.1 4.1S33.6 35 31.3 35c-2.2 0-4-1.8-4-4.1zm6.5 0c0-1.3-1-2.4-2.4-2.4-1.3 0-2.4 1.1-2.4 2.4 0 1.3 1 2.4 2.4 2.4s2.4-1 2.4-2.4z"/>
</svg>
