<?xml version="1.0" encoding="utf-8"?>
<!-- Generator: Adobe Illustrator 26.0.2, SVG Export Plug-In . SVG Version: 6.00 Build 0)  -->
<svg version="1.1" id="Layer_1" xmlns="http://www.w3.org/2000/svg" xmlns:xlink="http://www.w3.org/1999/xlink" x="0px" y="0px"
	 viewBox="0 0 64 64" style="enable-background:new 0 0 64 64;" xml:space="preserve">
<style type="text/css">
	.st0{fill-opacity:0;}
	.st1{fill:#FFFFFF;fill-opacity:0.85;}
</style>
<g>
	<rect x="0.8" y="1" class="st0" width="62.4" height="62.1"/>
	<path class="st1" d="M20,63h24c12.7,0,19.2-6.6,19.2-19.2V20.1C63.2,7.5,56.6,1,44,1H20C7.4,1,0.8,7.5,0.8,20.1v23.7
		C0.8,56.5,7.4,63,20,63z M32,47.2c-8.4,0-15.2-6.8-15.2-15.2c0-5.7,3.1-10.7,7.9-13.4V32c0,4.1,3.2,7.2,7.3,7.2
		c4,0,7.3-3.2,7.3-7.2S36,24.6,32,24.6c-1.4,0-2.8,0.5-4,1.3v-8.6c1.2-0.4,2.6-0.5,4-0.5c8.3,0,15.2,6.8,15.2,15.2
		C47.2,40.3,40.4,47.2,32,47.2z M32,36c-2.2,0-4-1.8-4-4c0-2.2,1.9-4,4-4s4,1.9,4,4C36,34.1,34.1,36,32,36z"/>
</g>
</svg>
