<svg xmlns="http://www.w3.org/2000/svg" xml:space="preserve" viewBox="0 0 64 64">
  <path fill="none" d="M.8 1h62.4v62.1H.8z"/>
  <path fill="#fff" fill-opacity=".85" d="M20 63h24c12.7 0 19.2-6.6 19.2-19.2V20.1C63.2 7.5 56.6 1 44 1H20C7.4 1 .8 7.5.8 20.1v23.7C.8 56.5 7.4 63 20 63zm12-15.8c-8.4 0-15.2-6.8-15.2-15.2 0-5.7 3.1-10.7 7.9-13.4V32c0 4.1 3.2 7.2 7.3 7.2 4 0 7.3-3.2 7.3-7.2S36 24.6 32 24.6c-1.4 0-2.8.5-4 1.3v-8.6c1.2-.4 2.6-.5 4-.5 8.3 0 15.2 6.8 15.2 15.2 0 8.3-6.8 15.2-15.2 15.2zM32 36c-2.2 0-4-1.8-4-4s1.9-4 4-4 4 1.9 4 4-1.9 4-4 4z"/>
</svg>
