<svg xmlns="http://www.w3.org/2000/svg" xml:space="preserve" viewBox="0 0 64 64">
  <path fill="none" d="M12.4 4.3h39.1v55.3H12.4z"/>
  <path fill="#fff" fill-opacity=".85" d="M37.9 4.3c-14 0-25.5 16.1-25.5 35.8 0 9.3 2.5 19.5 5.5 19.5 2.3 0 4.2-3.1 4.5-6.2-4.6-1.3-8-5.6-8-10.6 0-3 1.2-5.7 3.3-7.8 1-13.6 9.8-25.5 19.9-25.5 6.1 0 8.8 4.5 8.8 12.9L22.3 35c-3.5 1.9-5.1 4.7-5.1 7.8 0 4.5 3.7 8.3 8.2 8.3 2.2 0 3.7-.6 6.8-2.3l12.1-6.7c5.3-2.9 7.2-6.5 7.2-13.9v-6.7C51.6 11 46.9 4.3 37.9 4.3zM25.2 48c-2.9 0-5.2-2.3-5.2-5.2s2.3-5.2 5.2-5.2c2.9 0 5.2 2.3 5.2 5.2S28 48 25.2 48zm0-2.1c1.7 0 3.2-1.4 3.2-3.2 0-1.7-1.4-3.2-3.2-3.2-1.8 0-3.2 1.5-3.2 3.2 0 1.8 1.4 3.2 3.2 3.2z"/>
  <path fill="#fff" fill-opacity=".212" d="M25.2 48c-2.9 0-5.2-2.3-5.2-5.2s2.3-5.2 5.2-5.2c2.9 0 5.2 2.3 5.2 5.2S28 48 25.2 48zm0-2.1c1.7 0 3.2-1.4 3.2-3.2 0-1.7-1.4-3.2-3.2-3.2-1.8 0-3.2 1.5-3.2 3.2 0 1.8 1.4 3.2 3.2 3.2z"/>
</svg>
