<?xml version="1.0" encoding="utf-8"?>
<!-- Generator: Adobe Illustrator 26.0.2, SVG Export Plug-In . SVG Version: 6.00 Build 0)  -->
<svg version="1.1" id="Layer_1" xmlns="http://www.w3.org/2000/svg" xmlns:xlink="http://www.w3.org/1999/xlink" x="0px" y="0px"
	 viewBox="0 0 64 64" style="enable-background:new 0 0 64 64;" xml:space="preserve">
<style type="text/css">
	.st0{fill-opacity:0;}
	.st1{fill:#FFFFFF;fill-opacity:0.85;}
	.st2{fill:#FFFFFF;fill-opacity:0.425;}
	.st3{fill:#FFFFFF;fill-opacity:0.2125;}
</style>
<g>
	<rect x="11.6" y="12.6" class="st0" width="40.8" height="38.8"/>
	<path class="st1" d="M35,37c3.3-1.4,4.9-5.3,3.5-8.6l-4.8-10.9c-1.5-3.4-5.3-4.9-8.6-3.5c-3.3,1.4-4.9,5.3-3.5,8.6l4.8,10.9
		C27.8,36.7,31.7,38.4,35,37z M32.6,35c-2.3,0-4.1-1.8-4.1-4.1c0-2.2,1.8-4.1,4.1-4.1c2.2,0,4,1.8,4,4.1C36.7,33.2,34.9,35,32.6,35z
		 M32.6,33.3c1.3,0,2.4-1.1,2.4-2.4c0-1.3-1-2.4-2.4-2.4c-1.4,0-2.4,1.1-2.4,2.4C30.2,32.3,31.2,33.3,32.6,33.3z M12.1,30
		c-1.8,6.1,1.1,11.7,7.2,14.1l4.5,1.8c7.4,2.9,15,1.3,18-7c1.6-4.5,1.1-8.5-1-11.1c1.7,4.4-0.4,9.3-4.8,11.2
		c-4.5,1.9-9.6-0.2-11.6-4.7l-4.8-10.9c-0.3-0.6-0.4-1.1-0.6-1.7C16.4,24,13.3,25.9,12.1,30z"/>
	<path class="st2" d="M43.9,39.7c-1.7,4.7-4.8,7.8-8.8,9.1c1.8,1.6,4.2,2.6,6.8,2.6c5.8,0,10.5-4.7,10.5-10.5
		c0-4.9-3.3-8.9-7.7-10.1C45.3,33.7,45,36.7,43.9,39.7z"/>
	<path class="st3" d="M32.6,35c-2.3,0-4.1-1.8-4.1-4.1c0-2.2,1.8-4.1,4.1-4.1c2.2,0,4,1.8,4,4.1C36.7,33.2,34.9,35,32.6,35z
		 M32.6,33.3c1.3,0,2.4-1.1,2.4-2.4c0-1.3-1-2.4-2.4-2.4c-1.4,0-2.4,1.1-2.4,2.4C30.2,32.3,31.2,33.3,32.6,33.3z"/>
</g>
</svg>
