<svg xmlns="http://www.w3.org/2000/svg" xml:space="preserve" viewBox="0 0 64 64">
  <path fill="none" d="M12.4 4.3h39.1v55.3H12.4z"/>
  <path fill="#fff" fill-opacity=".85" d="M12.4 21.5v6.7c0 7.5 1.9 11 7.2 13.9l12.1 6.7c3.1 1.7 4.6 2.3 6.8 2.3 4.5 0 8.2-3.7 8.2-8.3 0-3.1-1.6-5.9-5.1-7.8l-24-12.6c0-8.4 2.8-12.9 8.8-12.9 10.1 0 18.9 11.9 19.9 25.5 2.1 2.1 3.3 4.8 3.3 7.8 0 5-3.4 9.3-8 10.6.2 3.1 2.1 6.2 4.5 6.2 3 0 5.5-10.2 5.5-19.5C51.6 20.4 40 4.3 26.1 4.3c-9 0-13.7 6.7-13.7 17.2zm21.2 21.3c0-2.9 2.3-5.2 5.2-5.2 2.9 0 5.2 2.3 5.2 5.2S41.7 48 38.8 48c-2.8 0-5.2-2.4-5.2-5.2zm8.4 0c0-1.7-1.4-3.2-3.2-3.2-1.7 0-3.2 1.5-3.2 3.2 0 1.7 1.4 3.2 3.2 3.2 1.8-.1 3.2-1.5 3.2-3.2z"/>
  <path fill="#fff" fill-opacity=".212" d="M33.6 42.8c0-2.9 2.3-5.2 5.2-5.2 2.9 0 5.2 2.3 5.2 5.2S41.7 48 38.8 48c-2.8 0-5.2-2.4-5.2-5.2zm8.4 0c0-1.7-1.4-3.2-3.2-3.2-1.7 0-3.2 1.5-3.2 3.2 0 1.7 1.4 3.2 3.2 3.2 1.8-.1 3.2-1.5 3.2-3.2z"/>
</svg>
