<svg stroke="currentColor" fill="currentColor" stroke-width="0" viewBox="0 0 512 512" height="1em" width="1em" xmlns="http://www.w3.org/2000/svg"><rect width="352" height="192" x="80" y="112" fill="none" stroke-linecap="round" stroke-linejoin="round" stroke-width="32" rx="32" ry="32"></rect><rect width="352" height="128" x="80" y="304" fill="none" stroke-linecap="round" stroke-linejoin="round" stroke-width="32" rx="32" ry="32"></rect><path fill="none" stroke-linecap="round" stroke-linejoin="round" stroke-width="32" d="M400 112H112a32.09 32.09 0 01-32-32h0a32.09 32.09 0 0132-32h288a32.09 32.09 0 0132 32h0a32.09 32.09 0 01-32 32zM144 432v22a10 10 0 01-10 10h-28a10 10 0 01-10-10v-22zm272 0v22a10 10 0 01-10 10h-28a10 10 0 01-10-10v-22z"></path><circle cx="368" cy="368" r="16" fill="none" stroke-linejoin="round" stroke-width="32"></circle><circle cx="144" cy="368" r="16" fill="none" stroke-linejoin="round" stroke-width="32"></circle><path fill="none" stroke-linecap="round" stroke-linejoin="round" stroke-width="32" d="M256 112v192M80 80v288M432 80v288"></path></svg>