<svg stroke="currentColor" fill="currentColor" stroke-width="0" viewBox="0 0 512 512" height="1em" width="1em" xmlns="http://www.w3.org/2000/svg"><rect width="96" height="96" x="80" y="16" rx="8" ry="8"></rect><rect width="96" height="96" x="208" y="16" rx="8" ry="8"></rect><rect width="96" height="96" x="336" y="16" rx="8" ry="8"></rect><rect width="96" height="96" x="80" y="144" rx="8" ry="8"></rect><rect width="96" height="96" x="208" y="144" rx="8" ry="8"></rect><rect width="96" height="96" x="336" y="144" rx="8" ry="8"></rect><rect width="96" height="96" x="80" y="272" rx="8" ry="8"></rect><rect width="96" height="96" x="208" y="272" rx="8" ry="8"></rect><rect width="96" height="96" x="208" y="400" rx="8" ry="8"></rect><rect width="96" height="96" x="336" y="272" rx="8" ry="8"></rect></svg>