<svg xmlns="http://www.w3.org/2000/svg" aria-hidden="true" role="img" width="1em" height="1em" preserveAspectRatio="xMidYMid meet" viewBox="0 0 32 32"><path fill="#333" d="M7.453 29.865c0-.074.494-1.717 1.1-3.651A21.808 21.808 0 0 0 9.5 22.6c-.079-.056-.35.045-.6.224c-.764.538-.92.4-1.491-1.356c-.617-1.9-.639-2.091-.317-2.81c.21-.47.2-.579-.147-1.277a3.75 3.75 0 0 1-.377-1.044c0-.26-1.413-1.438-3.647-3.04A3.845 3.845 0 0 1 2 12.5a10.477 10.477 0 0 1 2.378-.039l2.378.1l.232-.741c.981-3.13 2.463-5.957 3.122-5.957c.137 0 .416.265.619.588c.331.527.376.853.435 3.126a23.013 23.013 0 0 0 .165 2.739c.055.11.228-.035.385-.322c.2-.367.412-.467.71-.335s.485.043.646-.345c.242-.582 1.455-4.513 1.455-4.717c0-.069.24-.9.534-1.846l.751-2.424c.213-.688.246-.607 1.524 3.726c1.32 4.474 2.03 6.124 2.385 5.544c.248-.4 1.55-.428 1.914-.034c.207.224.338.221.453-.01c.237-.48.8-.4.953.14c.117.423.147.423.32 0a.812.812 0 0 1 .692-.466c.389 0 .538.164.666.735l.165.735l2.558-.183a11.521 11.521 0 0 1 2.56-.046a20.79 20.79 0 0 1-2.321 1.889c-1.277.96-2.342 1.775-2.368 1.81a17.607 17.607 0 0 0 .128 1.867a11.075 11.075 0 0 1-.544 5.713a4.308 4.308 0 0 1-1.021 1.49c-.278.186-.506.4-.506.486s.3 1.077.66 2.212a9.682 9.682 0 0 1 .54 2.065c-.109 0-2.757-2.07-6.876-5.373a11.143 11.143 0 0 0-1.643-1.184c-.171 0-1.649 1.133-5.984 4.588c-2.514 2-2.612 2.073-2.612 1.835Zm5.158-4.727a175.87 175.87 0 0 1 2.947-2.282c.488-.351.651-.263 3.021 1.631c1.378 1.1 2.737 2.174 3.021 2.384s.868.666 1.3 1.013c.491.4.742.492.674.256c-.77-2.634-.793-2.678-1.327-2.476c-.644.244-1.043-.006-1.249-.783a1.739 1.739 0 0 1 .24-1.451a2.377 2.377 0 0 0-.221-2.731a4.289 4.289 0 0 1-.686-1.53l-.241-1.023l-.517.71c-.636.873-1.411.918-2.059.119l-.477-.588l-.554.762c-.555.763-1.194.862-1.844.284c-.179-.159-.258-.1-.258.2a1.24 1.24 0 0 1-.375.777c-.619.57-1.223.419-1.633-.409L12 19.249l-.3.775a7.032 7.032 0 0 1-.853 1.479a13.891 13.891 0 0 0-1.455 3.663c-.5 1.627-.9 3.042-.9 3.143s.381-.141.847-.538s1.942-1.582 3.279-2.633Zm11.343-1.131c1.015-1.154 1.25-3.288.8-7.271c-.375-3.329-.562-4.419-.784-4.565c-.154-.1-.177.01-.091.426c.562 2.7.593 4.053.1 4.434c-.337.262-.695-.719-.976-2.675c-.218-1.515-.445-2.2-.617-1.85a3.359 3.359 0 0 0 .16 1.07a26.718 26.718 0 0 1 .394 3.381a21.757 21.757 0 0 0 .375 3.151c.309.985.8.747 1.118-.54s.35-.425.044 1.055c-.317 1.536-1.26 2-2.352 1.15c-.175-.136-.234 0-.234.555a4.988 4.988 0 0 1-.3 1.5l-.3.765l.408.139a2.247 2.247 0 0 0 2.255-.725ZM9.346 21.468c2.118-1.232 2.5-2.668 1.793-6.805a21.941 21.941 0 0 1-.3-2.3c0-1.029-.256-.554-.448.832c-.254 1.832-1.016 3.389-1.657 3.383c-.557-.005-.738-.21-.968-1.094c-.413-1.585.037-4.018 1.184-6.406c.84-1.749 1.3-1.908 1.3-.448c0 2.276-.776 5.625-1.184 5.115a3.814 3.814 0 0 1 .065-2.2c.2-.72.157-1.818-.066-1.818c-.259 0-.773 1.91-.841 3.127c-.06 1.076-.022 1.338.231 1.612c.888.962 2.052-1.973 2.111-5.323c.031-1.759-.138-2.254-.674-1.982c-.781.4-2.883 5.883-2.883 7.523c0 1.283.319 2.186.88 2.491c.954.519 1.876-.4 2.529-2.531l.275-.894v1.22c0 1.759-.567 2.686-2.357 3.852a8.893 8.893 0 0 0-.852.6a9.758 9.758 0 0 0 .892 2.534a5.283 5.283 0 0 0 .969-.484Zm12.764-2.184c.213-.475.25-.992.2-2.817c-.05-1.986-.1-2.337-.486-3.144c-.691-1.458-1.544-1.086-1.045.455c.265.82.589.68.475-.205c-.091-.7.079-.723.375-.041c.556 1.281.416 3.055-.242 3.055c-.45 0-.59-.39-.883-2.459a6.752 6.752 0 0 0-.362-1.714c-.217 0-.314.388-.179.718a28.23 28.23 0 0 1 .452 2.859c.441 3.507 1.057 4.707 1.69 3.293Zm-8.38.056a3.385 3.385 0 0 0 .095-1.33c-.06-1.008-.094-1.081-.364-.79c-.387.419-.8-.375-.944-1.8c-.107-1.082-.14-1.061.64-.415c.1.081.346-.194.553-.611c.377-.763.5-1.68.228-1.68c-.081 0-.147.134-.147.3c0 .429-.4.368-.494-.075c-.053-.258-.166-.167-.367.3c-.16.369-.356.671-.434.671s-.185-.3-.237-.671c-.09-.646-.1-.65-.3-.113a.951.951 0 0 0-.01.964a18.818 18.818 0 0 1 .521 3.791c0 1.174.8 2.1 1.267 1.463Zm2.688-1.556a7.055 7.055 0 0 0 .416-4.259c-.236-1.141-.645-1.568-1.222-1.275c-.429.218-1.082 2.746-1.084 4.2c0 2.262 1.06 3.015 1.89 1.337Zm-1.007-1.792a3.77 3.77 0 0 1-.29-1.416c0-.745.022-.772.2-.3c.22.586.611.688.761.2a1.035 1.035 0 0 0-.065-.656c-.232-.469-.2-1.107.049-1.107c.28 0 .672 1.154.672 1.982c0 .609-.613 1.893-.9 1.893c-.07 0-.26-.268-.422-.6Zm3.937 1.708a6.447 6.447 0 0 0-.141-4.918c-.358-.773-1.153-.906-1.479-.248a11.607 11.607 0 0 0-.489 3.895c.238 1.919 1.477 2.671 2.109 1.271ZM18.1 15.527a2.492 2.492 0 0 1-.318-1.565c.008-.909.031-.991.135-.472c.153.764.473 1.052.753.679c.174-.231.166-.341-.05-.676c-.288-.447-.344-1.079-.1-1.079a5.037 5.037 0 0 1 1.017 2.25c0 .48-.564 1.327-.884 1.327c-.126 0-.377-.209-.553-.464Zm8.662-1.318l1.547-1.175l-1.658-.012c-1.484-.011-1.658.043-1.656.51a11.532 11.532 0 0 0 .2 1.857c.011 0 .716-.534 1.567-1.18ZM6.535 14l.158-.949l-1.393-.095c-.764-.052-1.389-.012-1.389.088a14.1 14.1 0 0 0 2.447 1.934c.013-.017.09-.457.177-.978Zm9.526-2.941a1.624 1.624 0 0 1 .819.6c.192.349.276.326.573-.163c.191-.315.44-.572.553-.572s.2-.066.2-.146c0-.278-2.122-7.306-2.2-7.3s-2.27 7.386-2.337 7.925c-.028.226.06.309.231.219c.152-.081.363.063.468.319c.17.415.24.382.644-.306c.384-.654.544-.742 1.048-.579Z"/><path fill="#6398aa" d="M14.5 12.175a.85.85 0 0 1-.115-.2a.737.737 0 0 0-.194-.29a.281.281 0 0 0-.3-.061c-.087.035-.111.039-.15.024c-.065-.026-.089-.106-.07-.242c.023-.169.2-.825.548-2.054c.711-2.5 1.666-5.646 1.772-5.839c.012-.021.012-.021.024 0c.063.114.432 1.266.937 2.922c.682 2.24 1.25 4.21 1.25 4.339c0 .079-.06.127-.186.147c-.157.026-.339.212-.587.6a1.674 1.674 0 0 1-.226.31c-.048.046-.052.048-.1.048s-.056 0-.1-.043a.958.958 0 0 1-.1-.144a1.268 1.268 0 0 0-.414-.422a1.525 1.525 0 0 0-.738-.281a.434.434 0 0 0-.4.156a2.718 2.718 0 0 0-.416.6c-.257.425-.348.513-.441.426Zm-8.248 2.753a19.055 19.055 0 0 1-2.3-1.838c-.031-.038-.034-.044-.025-.057a2.7 2.7 0 0 1 1.14-.085c.23.012 1.619.1 1.621.108s-.3 1.779-.321 1.881c-.01.044-.03.042-.115-.009Zm18.925.422A14.239 14.239 0 0 1 25 13.56a.553.553 0 0 1 .044-.29c.081-.151.245-.205.7-.23a47.04 47.04 0 0 1 2.025 0l.521.008l-1.261.952c-1.144.867-1.81 1.369-1.834 1.382c-.006 0-.012-.006-.018-.027ZM8.506 28.281c0-.071.149-.6.527-1.878c.905-3.057 1.319-4.165 1.827-4.892a7.664 7.664 0 0 0 .969-1.792l.171-.427l.225.448c.394.784.632 1.011 1.062 1.016a1.239 1.239 0 0 0 1.1-1.137c0-.124.044-.251.086-.251a1.119 1.119 0 0 1 .226.14a1.271 1.271 0 0 0 .666.3a.879.879 0 0 0 .609-.148a2.47 2.47 0 0 0 .711-.764c.187-.252.347-.459.354-.459s.143.159.3.352a5.091 5.091 0 0 0 .422.467a1.049 1.049 0 0 0 1.549-.08a6.111 6.111 0 0 0 .467-.572c.168-.228.307-.41.31-.4s.066.269.141.584s.169.67.209.789a3.826 3.826 0 0 0 .642 1.234a2.17 2.17 0 0 1 .466 1.246a3.051 3.051 0 0 1-.352 1.447a2.07 2.07 0 0 0-.267.934a2.017 2.017 0 0 0 .213.851a.773.773 0 0 0 1.069.413a1.351 1.351 0 0 1 .316-.068c.2 0 .315.193.542.881c.157.474.5 1.637.5 1.695c0 .03-.016.051-.039.051a1.486 1.486 0 0 1-.407-.224c-.2-.144-2.612-2.029-3.408-2.663c-2.128-1.693-2.828-2.233-3.171-2.446c-.37-.23-.622-.285-.827-.177c-.254.133-3.726 2.847-5.751 4.5a10.846 10.846 0 0 1-1.313 1c-.149.083-.143.081-.143.03Z"/></svg>