<svg xmlns="http://www.w3.org/2000/svg" aria-hidden="true" role="img" width="0.71em" height="1em" preserveAspectRatio="xMidYMid meet" viewBox="0 0 256 361"><path fill="#E44D26" d="m255.555 70.766l-23.241 260.36l-104.47 28.962l-104.182-28.922L.445 70.766h255.11Z"/><path fill="#F16529" d="m128 337.95l84.417-23.403l19.86-222.49H128V337.95Z"/><path fill="#EBEBEB" d="M82.82 155.932H128v-31.937H47.917l.764 8.568l7.85 88.01H128v-31.937H85.739l-2.919-32.704Zm7.198 80.61h-32.06l4.474 50.146l65.421 18.16l.147-.04V271.58l-.14.037l-35.568-9.604l-2.274-25.471Z"/><path d="M24.18 0h16.23v16.035h14.847V0h16.231v48.558h-16.23v-16.26H40.411v16.26h-16.23V0Zm68.65 16.103H78.544V0h44.814v16.103h-14.295v32.455h-16.23V16.103h-.001ZM130.47 0h16.923l10.41 17.062L168.203 0h16.93v48.558h-16.164V24.49l-11.166 17.265h-.28L146.35 24.49v24.068h-15.88V0Zm62.74 0h16.235v32.508h22.824v16.05h-39.06V0Z"/><path fill="#FFF" d="M127.89 220.573h39.327l-3.708 41.42l-35.62 9.614v33.226l65.473-18.145l.48-5.396l7.506-84.08l.779-8.576H127.89v31.937Zm0-64.719v.078h77.143l.64-7.178l1.456-16.191l.763-8.568H127.89v31.86Z"/></svg>