<svg xmlns="http://www.w3.org/2000/svg" aria-hidden="true" role="img" width="1.9em" height="1em" preserveAspectRatio="xMidYMid meet" viewBox="0 0 256 135"><defs><radialGradient id="svgIDa" cx=".837" cy="-125.811" r="363.057" gradientTransform="matrix(.463 0 0 .463 76.464 81.918)" gradientUnits="userSpaceOnUse"><stop offset="0" stop-color="#FFF"/><stop offset=".5" stop-color="#4C6B97"/><stop offset="1" stop-color="#231F20"/></radialGradient></defs><ellipse cx="128" cy="67.3" fill="url(#svgIDa)" rx="128" ry="67.3"/><ellipse cx="128" cy="67.3" fill="#6181B6" rx="123" ry="62.3"/><path fill="#FFF" d="m152.9 87.5l6.1-31.4c1.4-7.1.2-12.4-3.4-15.7c-3.5-3.2-9.5-4.8-18.3-4.8h-10.6l3-15.6c.1-.6 0-1.2-.4-1.7s-.9-.7-1.5-.7h-14.6c-1 0-1.8.7-2 1.6l-6.5 33.3c-.6-3.8-2-7-4.4-9.6c-4.3-4.9-11-7.4-20.1-7.4H52.1c-1 0-1.8.7-2 1.6L37 104.7c-.1.6 0 1.2.4 1.7s.9.7 1.5.7h14.7c1 0 1.8-.7 2-1.6l3.2-16.3h10.9c5.7 0 10.6-.6 14.3-1.8c3.9-1.3 7.4-3.4 10.5-6.3c2.5-2.3 4.6-4.9 6.2-7.7l-2.6 13.5c-.1.6 0 1.2.4 1.7s.9.7 1.5.7h14.6c1 0 1.8-.7 2-1.6l7.2-37h10c4.3 0 5.5.8 5.9 1.2c.3.3.9 1.5.2 5.2L134.1 87c-.1.6 0 1.2.4 1.7s.9.7 1.5.7h15c.9-.3 1.7-1 1.9-1.9zm-67.6-26c-.9 4.7-2.6 8.1-5.1 10c-2.5 1.9-6.6 2.9-12 2.9h-6.5l4.7-24.2h8.4c6.2 0 8.7 1.3 9.7 2.4c1.3 1.6 1.6 4.7.8 8.9zm130-18.6c-4.3-4.9-11-7.4-20.1-7.4h-28.3c-1 0-1.8.7-2 1.6l-13.1 67.5c-.1.6 0 1.2.4 1.7s.9.7 1.5.7h14.7c1 0 1.8-.7 2-1.6l3.2-16.3h10.9c5.7 0 10.6-.6 14.3-1.8c3.9-1.3 7.4-3.4 10.5-6.3c2.6-2.4 4.8-5.1 6.4-8c1.6-2.9 2.8-6.1 3.5-9.6c1.7-8.7.4-15.5-3.9-20.5zM200 61.5c-.9 4.7-2.6 8.1-5.1 10c-2.5 1.9-6.6 2.9-12 2.9h-6.5l4.7-24.2h8.4c6.2 0 8.7 1.3 9.7 2.4c1.4 1.6 1.7 4.7.8 8.9z"/><path fill="#000004" d="M74.8 48.2c5.6 0 9.3 1 11.2 3.1c1.9 2.1 2.3 5.6 1.3 10.6c-1 5.2-3 9-5.9 11.2c-2.9 2.2-7.3 3.3-13.2 3.3h-8.9l5.5-28.2h10zM39 105h14.7l3.5-17.9h12.6c5.6 0 10.1-.6 13.7-1.8c3.6-1.2 6.8-3.1 9.8-5.9c2.5-2.3 4.5-4.8 6-7.5s2.6-5.7 3.2-9c1.6-8 .4-14.2-3.5-18.7s-10.1-6.7-18.6-6.7H52.1L39 105zm74.3-85.4h14.6l-3.5 17.9h13c8.2 0 13.8 1.4 16.9 4.3c3.1 2.9 4 7.5 2.8 13.9L151 87.1h-14.8l5.8-29.9c.7-3.4.4-5.7-.7-6.9c-1.1-1.2-3.6-1.9-7.3-1.9h-11.7l-7.5 38.7h-14.6l13.1-67.5zm76.2 28.6c5.6 0 9.3 1 11.2 3.1c1.9 2.1 2.3 5.6 1.3 10.6c-1 5.2-3 9-5.9 11.2c-2.9 2.2-7.3 3.3-13.2 3.3H174l5.5-28.2h10zM153.7 105h14.7l3.5-17.9h12.6c5.6 0 10.1-.6 13.7-1.8c3.6-1.2 6.8-3.1 9.8-5.9c2.5-2.3 4.5-4.8 6-7.5s2.6-5.7 3.2-9c1.6-8 .4-14.2-3.5-18.7s-10.1-6.7-18.6-6.7h-28.3L153.7 105z"/></svg>