<svg data-name="Layer 1" xmlns="http://www.w3.org/2000/svg" width="873.10972" height="736.45123" viewBox="0 0 873.10972 736.45123" xmlns:xlink="http://www.w3.org/1999/xlink"><path d="M366.76928,711.59414h38.856a135.90059,135.90059,0,0,0,0-46.32831h-38.856A83.36024,83.36024,0,0,1,366.76928,711.59414Z" transform="translate(-163.44514 -81.77438)" fill="#3f3d56"/><path d="M355.45394,713.21066h38.856a135.90008,135.90008,0,0,0,0-46.32831h-38.856A83.36024,83.36024,0,0,1,355.45394,713.21066Z" transform="translate(-163.44514 -81.77438)" fill="#ff6584"/><path d="M835.11394,339.558a82,82,0,1,1,82-82h0A82.093,82.093,0,0,1,835.11394,339.558Z" transform="translate(-163.44514 -81.77438)" fill="#e6e6e6"/><path d="M268.82206,684.14232a6.56087,6.56087,0,0,1-1.39941-.15235l-14.41993-3.14648a6.5078,6.5078,0,0,1-4.96484-7.73633l26.229-120.18555a6.50621,6.50621,0,0,1,7.73584-4.96484l14.42041,3.14746a6.4995,6.4995,0,0,1,4.96436,7.73633L275.159,679.02513a6.50669,6.50669,0,0,1-6.33691,5.11719Z" transform="translate(-163.44514 -81.77438)" fill="#6c63ff"/><path d="M271.06436,551.29513l-9.667,49.5169a6,6,0,0,0,3.83624,7.33963l21.25121,7.21947a6,6,0,0,0,7.87754-4.88956l6.85205-51.48376a6.01088,6.01088,0,0,0-4.57909-7.14187l-18.423-5.1476A6.01071,6.01071,0,0,0,271.06436,551.29513Z" transform="translate(-163.44514 -81.77438)" fill="#ccc"/><path d="M355.05936,684.14232a6.50669,6.50669,0,0,1-6.33691-5.11719L322.49394,558.84056a6.4995,6.4995,0,0,1,4.96435-7.73633l14.42041-3.14746a6.50409,6.50409,0,0,1,7.73584,4.96484l26.229,120.18555a6.5078,6.5078,0,0,1-4.96484,7.73633L356.45878,683.99A6.5609,6.5609,0,0,1,355.05936,684.14232Z" transform="translate(-163.44514 -81.77438)" fill="#6c63ff"/><path d="M352.81706,551.29513l9.667,49.5169a6,6,0,0,1-3.83623,7.33963l-21.25121,7.21947a6,6,0,0,1-7.87755-4.88956l-6.852-51.48376a6.01087,6.01087,0,0,1,4.57909-7.14187l18.423-5.1476A6.01071,6.01071,0,0,1,352.81706,551.29513Z" transform="translate(-163.44514 -81.77438)" fill="#ccc"/><circle cx="355.6688" cy="36.78365" r="14" fill="#e6e6e6"/><circle cx="346.6688" cy="258.78365" r="25" fill="#e6e6e6"/><circle cx="822.6688" cy="298.78365" r="6" fill="#ff6584"/><circle cx="828.6688" cy="44.78365" r="6" fill="#f2f2f2"/><circle cx="738.6688" cy="411.78365" r="6" fill="#f2f2f2"/><circle cx="564.6688" cy="38.78365" r="6" fill="#ff6584"/><path d="M821.11394,233.558a15,15,0,1,1,15-15h0A15.01671,15.01671,0,0,1,821.11394,233.558Zm0-28a13,13,0,1,0,13,13A13,13,0,0,0,821.11394,205.558Z" transform="translate(-163.44514 -81.77438)" fill="#ccc"/><path d="M793.11394,271.558a11,11,0,1,1,11-11h0A11.01245,11.01245,0,0,1,793.11394,271.558Zm0-20a9,9,0,1,0,9,9A9,9,0,0,0,793.11394,251.558Z" transform="translate(-163.44514 -81.77438)" fill="#ccc"/><path d="M855.11394,324.558a11,11,0,1,1,11-11h0A11.01245,11.01245,0,0,1,855.11394,324.558Zm0-20a9,9,0,1,0,9,9h0A9.01015,9.01015,0,0,0,855.11394,304.558Z" transform="translate(-163.44514 -81.77438)" fill="#ccc"/><path d="M835.11394,290.558c-68.41113,0-122-14.49512-122-33,0-10.78272,15.90527-20.04834,44.78613-26.09033l.41016,1.958c-27.45215,5.74269-43.19629,14.53859-43.19629,24.13234,0,16.80371,54.95313,31,120,31s120-14.19629,120-31c0-9.61182-15.79785-18.41895-43.34277-24.16309l.4082-1.958c28.97656,6.04295,44.93457,15.31932,44.93457,26.12108C957.11394,276.06292,903.52507,290.558,835.11394,290.558Z" transform="translate(-163.44514 -81.77438)" fill="#ccc"/><path d="M773.55492,607.77438c-2.77441,0-5.57715-.04395-8.32813-.12989l.0625-1.998c3.9502.123,7.98145.15722,11.9502.10254l.02734,2Q775.4138,607.77389,773.55492,607.77438ZM789.3,607.31051l-.11719-1.99609c3.95605-.2334,7.96289-.56153,11.90918-.97461l.209,1.98828C797.32445,606.74508,793.28734,607.07613,789.3,607.31051Zm-36.09571-.31152c-3.98925-.30567-8.0205-.706-11.98242-1.19239l.24414-1.98437c3.93164.48144,7.93164.87988,11.89063,1.18261Zm60.03907-2.19922-.29981-1.97657c3.93067-.59668,7.8916-1.28906,11.76953-2.05957l.38965,1.96094C821.19457,603.50094,817.20433,604.19912,813.2434,604.79977Zm-83.93506-.73145c-3.94092-.668-7.91895-1.43555-11.82324-2.2832l.42431-1.95508c3.87451.8418,7.82178,1.60352,11.73291,2.26563Zm107.54834-3.96191-.48047-1.94141c3.8584-.9541,7.73828-2.00879,11.53223-3.13379l.56835,1.918C844.65355,598.083,840.74437,599.14547,836.85668,600.10641Zm-131.07617-1.14649c-3.86573-1.02832-7.75586-2.15918-11.5625-3.36328l.60253-1.90625c3.77784,1.19434,7.63819,2.31641,11.47364,3.33594Zm154.1582-5.70117-.65625-1.88867c3.74414-1.30176,7.50976-2.709,11.19433-4.18359l.74219,1.85742C867.50707,590.52926,863.71215,591.94723,859.93871,593.25875ZM682.7932,591.69234c-3.75439-1.37988-7.53223-2.86914-11.22754-4.42578l.77637-1.84375c3.667,1.54493,7.41553,3.02246,11.1416,4.39258Zm199.47461-7.36822-.82812-1.82031c3.5957-1.63379,7.21-3.37793,10.74218-5.1836l.91016,1.78125C889.53246,580.92086,885.89086,582.6777,882.26781,584.32412ZM660.55736,582.33c-3.60889-1.71973-7.23144-3.54883-10.76562-5.4375l.94238-1.76367c3.50781,1.874,7.10205,3.68945,10.68359,5.39648Zm243.10889-8.94434-.99024-1.73632c3.44825-1.96778,6.89063-4.03614,10.2295-6.14844l1.06836,1.68945c-3.36426,2.129-6.832,4.21393-10.30762,6.19537Zm-264.376-2.418c-3.43262-2.042-6.87012-4.19531-10.21631-6.39941l1.10059-1.66992c3.32031,2.1875,6.73144,4.32422,10.13818,6.35058Zm284.69922-10.43945-1.14453-1.63867c3.24707-2.26856,6.4873-4.64453,9.63086-7.06055l1.21875,1.58594c-3.16693,2.43469-6.43256,4.82825-9.705,7.1134Zm-304.82568-2.81641c-3.228-2.34472-6.45264-4.80078-9.585-7.30175l1.248-1.5625c3.1084,2.48144,6.30859,4.91894,9.51172,7.24511Zm323.90289-11.84558-1.28906-1.52929c3.02636-2.55371,6.03808-5.21485,8.95312-7.91016l1.35742,1.46875C949.1516,540.61129,946.11644,543.29293,943.06664,545.86617Zm-342.728-3.18554c-3.00635-2.63282-5.99316-5.3711-8.877-8.13965l1.38476-1.44336c2.86231,2.74805,5.82618,5.46582,8.80957,8.0791Zm360.40088-13.16114-1.42383-1.40429c2.79-2.82715,5.54981-5.75293,8.20117-8.69532l1.48633,1.33789c-2.67193,2.96582-5.45221,5.91309-8.26373,8.76172Zm-377.773-3.51172c-2.7583-2.90039-5.48242-5.89843-8.09668-8.91015l1.51074-1.31055c2.59424,2.98926,5.29737,5.96387,8.03516,8.8418Zm393.89307-14.37988-1.54492-1.26953c2.5205-3.06738,5.002-6.23242,7.37793-9.40918l1.60156,1.19727c-2.39362,3.20117-4.89459,6.3916-7.43463,9.48144ZM567.18877,507.831c-2.477-3.12989-4.916-6.36133-7.24951-9.6045l1.623-1.168c2.31592,3.21778,4.73633,6.42481,7.19483,9.53223ZM991.28838,492.334l-1.6543-1.12305c2.23047-3.28418,4.415-6.66406,6.49219-10.04785l1.70508,1.04687c-2.09479,3.40921-4.296,6.81543-6.543,10.124Zm-438.15088-4.0293c-2.1792-3.34082-4.312-6.77832-6.33984-10.21973l1.72265-1.01562c2.0127,3.415,4.1294,6.82715,6.292,10.1416Zm450.76611-16.51074-1.75-.9668c1.91993-3.47461,3.78516-7.043,5.5459-10.60644l1.793.88671C1007.71892,464.69723,1005.83818,468.29293,1003.90361,471.79391Zm-462.9707-4.20508c-1.86523-3.52539-3.67383-7.14258-5.37549-10.75l1.8086-.85352c1.689,3.58008,3.48339,7.16993,5.33447,10.668Zm473.65137-17.416-1.832-.80273c1.59375-3.63965,3.124-7.36719,4.54882-11.07813l1.86719.7168C1017.73272,442.749,1016.18975,446.50484,1014.58428,450.17281Zm-483.90235-4.31543c-1.5332-3.67968-3.00146-7.44433-4.36377-11.19043l1.87989-.68359c1.35156,3.71777,2.80859,7.45313,4.32959,11.10449Zm492.55079-18.21582-1.89844-.6289c1.248-3.76074,2.42578-7.60449,3.5-11.42578l1.92578.541C1025.67705,419.97848,1024.48955,423.8525,1023.23272,427.64156Zm-500.76716-4.38281c-1.18994-3.81152-2.3081-7.70508-3.32324-11.57422l1.93457-.50781c1.00733,3.83984,2.11719,7.7041,3.29785,11.48633Zm507.28559-18.79492-1.94824-.45313c.8955-3.85449,1.71386-7.791,2.43359-11.69824l1.9668.36133c-.72449,3.93848-1.54969,7.9043-2.452,11.79Zm-513.394-4.49414c-.834-3.90625-1.58887-7.88574-2.24317-11.83008l1.97266-.32812c.6499,3.915,1.39892,7.86425,2.22656,11.74023Zm517.75238-19.1836-1.98243-.27148c.53809-3.917.99219-7.91113,1.35059-11.87207l1.99219.17969c-.36121,3.99219-.81922,8.0166-1.36023,11.96386Zm-521.69385-4.5664c-.47168-3.959-.85889-7.99121-1.15137-11.98438l1.99512-.14648c.28955,3.96387.67432,7.96484,1.14258,11.89453Zm523.86865-19.40918-1.998-.08984c.17774-3.9629.26856-7.98243.26856-11.94629h2c.00012,3.99414-.0907,8.04394-.27039,12.03613Zm-525.626-4.60156c-.06835-2.45215-.103-4.95411-.10351-7.43457q0-2.3086.03955-4.6084l2,.03515q-.03956,2.28224-.03955,4.57325c.00049,2.46191.03516,4.94531.10254,7.37988Zm523.88184-10.22461c-.041-3.96533-.17383-7.98438-.39355-11.94629l1.99609-.11133c.22168,3.99219.35547,8.0415.39746,12.03613ZM513.06908,328.26116l-1.99609-.125c.24951-3.99609.59423-8.03222,1.02343-11.99658l1.98828.21533C513.65844,320.28951,513.31713,324.29488,513.06908,328.26116Zm520.142-10.13476c-.39942-3.94287-.89649-7.93213-1.47656-11.85791l1.97851-.292c.584,3.95557,1.085,7.9751,1.48828,11.94776ZM515.64183,304.50826l-1.97656-.30566c.61279-3.95654,1.32471-7.94434,2.11621-11.854l1.96.39649C516.95629,296.625,516.24974,300.58248,515.64183,304.50826ZM1029.716,294.49264c-.76269-3.90137-1.623-7.82862-2.55859-11.67237l1.94336-.47265c.94238,3.873,1.80957,7.83056,2.57812,11.76123ZM520.37914,281.09127l-1.93994-.48633c.97119-3.87353,2.04687-7.77929,3.19726-11.60937l1.915.57519C522.41039,273.37154,521.343,277.24752,520.37914,281.09127Zm503.68451-9.81348c-1.11524-3.8081-2.334-7.63867-3.62207-11.38671l1.89062-.6504c1.29883,3.77686,2.52735,7.6377,3.65137,11.47461ZM527.264,258.1777l-1.88672-.66309c1.3291-3.78076,2.76416-7.57959,4.26513-11.291l1.8545.75C530.00707,250.65621,528.58275,254.42623,527.264,258.1777Zm489.0332-9.49463c-1.459-3.68067-3.02149-7.37451-4.64453-10.97949l1.82422-.82129c1.63574,3.63281,3.21,7.355,4.67968,11.06347Zm-480.0567-12.70264-1.81739-.835c1.67041-3.63769,3.44825-7.28564,5.28418-10.84228l1.77735.917C539.66234,228.75,537.89818,232.37006,536.24047,235.98043Zm470.26849-9.03564c-1.79-3.53077-3.68652-7.06885-5.63672-10.51465l1.74024-.98535c1.96582,3.47265,3.876,7.03759,5.67968,10.5957Zm-459.2915-12.2295-1.7334-.998c1.99512-3.46436,4.09912-6.93213,6.2539-10.30616l1.68555,1.07618c-2.13812,3.34861-4.2265,6.79-6.206,10.228Zm447.5415-8.53515c-2.11328-3.36424-4.32617-6.71582-6.57715-9.96192l1.64258-1.13964c2.26855,3.271,4.499,6.648,6.62793,10.03808ZM560.09056,194.5566l-1.63476-1.15234c2.30566-3.27,4.71631-6.5293,7.1665-9.6875l1.58008,1.22558C564.77123,188.07714,562.37816,191.31147,560.09056,194.5566Zm421.064-7.99218c-2.41016-3.15674-4.91992-6.29493-7.46191-9.32715l1.5332-1.28467c2.56055,3.05566,5.08984,6.21728,7.51855,9.398ZM574.744,175.66547l-1.52247-1.29687c2.58741-3.03906,5.28418-6.064,8.01514-8.99072l1.46192,1.36424C579.98851,169.64693,577.31224,172.64936,574.744,175.66547Zm391.06982-7.4082c-2.68652-2.92432-5.47363-5.82275-8.28223-8.61377l1.41016-1.41894c2.83008,2.813,5.63769,5.73291,8.34473,8.6792Zm-374.76514-10.064-1.39843-1.42969c2.85986-2.79785,5.81933-5.564,8.79541-8.22119l1.332,1.49218c-2.95362,2.63675-5.89063,5.38187-8.729,8.15874Zm357.81787-6.77979c-2.94433-2.67041-5.98437-5.3042-9.03515-7.82812l1.27539-1.541c3.07324,2.543,6.13672,5.19677,9.10351,7.88769ZM608.86693,142.2817l-1.26269-1.5508c3.09326-2.519,6.29-5.0034,9.50195-7.38427l1.19141,1.60644C615.10961,137.31635,611.93676,139.7817,608.86693,142.2817Zm321.58154-6.10693c-3.17675-2.39209-6.44531-4.73926-9.71484-6.97608l1.12891-1.65039c3.29492,2.25342,6.58789,4.61817,9.78906,7.02881Zm-302.39941-8.11035-1.11621-1.65918c3.31055-2.22754,6.71875-4.4087,10.13037-6.48438l1.03906,1.709C634.717,123.68942,631.3347,125.85445,628.04906,128.06442Zm282.65918-5.39112c-3.37988-2.09179-6.85059-4.13086-10.31543-6.06152l.97266-1.74707c3.49218,1.94531,6.98925,4.00049,10.3955,6.10744Zm-262.27148-7.01025-.96-1.75488c3.50245-1.91651,7.09375-3.77588,10.67383-5.52735l.87891,1.79687c-3.55268,1.73778-7.11664,3.583-10.59271,5.48534Zm241.37011-4.63379c-3.55859-1.77294-7.2041-3.48584-10.835-5.09082l.80859-1.8291c3.65918,1.61718,7.333,3.34326,10.91895,5.12989ZM669.85863,105.185l-.79492-1.835c3.66016-1.58643,7.4043-3.10792,11.12793-4.52247l.71,1.87012C677.20629,102.101,673.491,103.61079,669.85863,105.185Zm198.05176-3.83448c-3.70313-1.436-7.49317-2.80615-11.26563-4.07177l.63672-1.89649c3.80078,1.27588,7.62012,2.65625,11.35156,4.104ZM692.16722,96.71381l-.623-1.90039c3.80078-1.24609,7.67871-2.41943,11.52539-3.48632l.53467,1.92675C699.78685,94.313,695.93871,95.477,692.16722,96.71381ZM845.2307,93.74015c-3.81445-1.0874-7.70508-2.1001-11.56348-3.00976l.459-1.94629c3.88867.9165,7.80859,1.937,11.65332,3.03222ZM715.1892,90.32462l-.44532-1.9497c3.89649-.89013,7.86573-1.70117,11.79688-2.41016l.35547,1.96777c-3.90186.70415-7.84027,1.50883-11.707,2.39212Zm106.78759-2.06688c-3.89453-.731-7.86132-1.38135-11.791-1.93312l.27734-1.98046c3.96.55615,7.958,1.21142,11.88282,1.94775ZM738.7014,86.08147l-.26464-1.98242c3.959-.52833,7.98535-.97266,11.96679-1.31935l.17383,1.99219c-3.95117.34477-7.94629.7852-11.876,1.30961ZM798.31762,84.934c-3.93946-.3711-7.94922-.65723-11.91895-.84913l.09766-1.998c3.999.19385,8.03906.482,12.00879.856Zm-35.81446-.9292-.084-1.998c3.67578-.15332,7.42187-.23144,11.13574-.23243l.90527.00148-.00586,2-.89941-.00148c-3.68555.001-7.4043.07859-11.05176.23046Z" transform="translate(-163.44514 -81.77438)" fill="#e6e6e6"/><path d="M548.02794,450.56365c9.36615-11.33011,19.94116-21.98141,32.84784-29.018s28.45465-10.15924,42.54663-5.97461c10.51953,3.12375,19.486,9.99582,27.7843,17.17615,17.002,14.71151,32.67945,31.55514,52.73328,41.72073s46.47772,12.063,63.511-2.6124c13.48077-11.61471,19.22833-31.73233,35.3269-39.31326,15.86939-7.473,34.26972.5516,50.37329,7.50568a421.22991,421.22991,0,0,0,67.648,22.62985c15.65967,3.799,31.791,6.71109,47.83228,5.18329s32.14166-7.94971,42.60418-20.205" transform="translate(-163.44514 -81.77438)" fill="#e6e6e6"/><path d="M471.55971,394.28164h40.37656a141.21885,141.21885,0,0,0,0-48.14124H471.55971A86.6223,86.6223,0,0,1,471.55971,394.28164Z" transform="translate(-163.44514 -81.77438)" fill="#6c63ff"/><path d="M847.55974,270.28164h40.37653a141.21891,141.21891,0,0,0,0-48.14125H847.55974A86.62178,86.62178,0,0,1,847.55974,270.28164Z" transform="translate(-163.44514 -81.77438)" fill="#6c63ff"/><rect x="315.6688" y="279.78365" width="27" height="3" fill="#f2f2f2"/><rect x="315.6688" y="286.78365" width="27" height="3" fill="#f2f2f2"/><rect x="692.6688" y="151.78365" width="27" height="3" fill="#f2f2f2"/><rect x="692.6688" y="165.78365" width="27" height="3" fill="#f2f2f2"/><rect x="692.6688" y="158.78365" width="27" height="3" fill="#f2f2f2"/><rect y="734.21051" width="324.03261" height="2.24072" fill="#3f3d56"/><circle cx="148.66718" cy="401.52407" r="53.51916" fill="#6c63ff"/><path d="M303.67948,816.64427H288.9202a6.50753,6.50753,0,0,1-6.5-6.5V687.12962a6.50753,6.50753,0,0,1,6.5-6.5h14.75928a6.50753,6.50753,0,0,1,6.5,6.5V810.14427A6.50753,6.50753,0,0,1,303.67948,816.64427Z" transform="translate(-163.44514 -81.77438)" fill="#2f2e41"/><path d="M332.87186,816.64427H318.1121a6.50753,6.50753,0,0,1-6.5-6.5V687.12962a6.50753,6.50753,0,0,1,6.5-6.5h14.75976a6.50753,6.50753,0,0,1,6.5,6.5V810.14427A6.50753,6.50753,0,0,1,332.87186,816.64427Z" transform="translate(-163.44514 -81.77438)" fill="#2f2e41"/><path d="M345.03544,701.09153h-67.0625a6.50752,6.50752,0,0,1-6.5-6.5V552.116a6.50752,6.50752,0,0,1,6.5-6.5h67.0625a6.50753,6.50753,0,0,1,6.5,6.5V694.59153A6.50753,6.50753,0,0,1,345.03544,701.09153Z" transform="translate(-163.44514 -81.77438)" fill="#ccc"/><path d="M338.0385,460.67044a5.902,5.902,0,0,0-5.14916-4.56241,8.16416,8.16416,0,0,0-7.27,2.937c-2.06725,2.28606-3.16286,5.13563-4.64918,7.78654-1.5519,2.76789-3.63524,4.76163-6.8426,5.35552-6.51828,1.20694-12.13117-3.40312-16.47983-7.62743a113.09737,113.09737,0,0,1-13.71758-16.05987c-3.8765-5.5143-7.80747-11.50717-9.18384-18.20857a15.53042,15.53042,0,0,1,5.21955-15.55091c10.27414-8.48728,24.64955-4.95833,36.70006-4.59907,7.08564.21124,14.1701-.73255,20.21762-4.67632,5.11018-3.3325,8.98986-8.498,9.1155-14.77579.03865-1.93125-2.96136-1.93111-3,0-.11161,5.577-3.92106,10.00908-8.52889,12.74491-5.58327,3.315-11.9095,3.91964-18.28411,3.69131-12.50645-.448-26.359-3.47392-37.2535,4.6412a18.14061,18.14061,0,0,0-7.58639,14.39105c-.09745,6.69683,3.062,13.075,6.52322,18.62192a117.45151,117.45151,0,0,0,12.6697,16.74012c4.47779,4.93283,9.4641,10.3615,15.83059,12.78215a15.42512,15.42512,0,0,0,9.62865.52154,12.80475,12.80475,0,0,0,7.56227-6.4776c1.57928-2.81674,2.693-6.31216,5.38788-8.31416,1.9221-1.42792,5.71126-1.53649,6.19718,1.43639.31066,1.90062,3.202,1.0942,2.89284-.79752Z" transform="translate(-163.44514 -81.77438)" fill="#2f2e41"/><circle cx="570.6688" cy="397.78365" r="6" fill="#ff6584"/><path d="M723.55973,528.28164h40.37652a141.21885,141.21885,0,0,0,0-48.14124H723.55973A86.62248,86.62248,0,0,1,723.55973,528.28164Z" transform="translate(-163.44514 -81.77438)" fill="#3f3d56"/><rect x="567.6688" y="416.78365" width="27" height="3" fill="#f2f2f2"/><path d="M357.3079,506.95677l-.05566-2c3.7207-.10352,7.001-.33692,9.46582-2.1377a6.14794,6.14794,0,0,0,2.38134-4.52832,3.51432,3.51432,0,0,0-1.15283-2.89453c-1.63623-1.38183-4.269-.93457-6.188-.05469l-1.65478.75879,3.17334-23.19043,1.98144.27149-2.69922,19.72656c2.60743-.7666,5.02344-.43652,6.67823.96094a5.471,5.471,0,0,1,1.86035,4.49219,8.13264,8.13264,0,0,1-3.2002,6.07324C364.73075,506.74876,360.615,506.864,357.3079,506.95677Z" transform="translate(-163.44514 -81.77438)" fill="#2f2e41"/><rect x="177.61276" y="393.10817" width="10.77148" height="2" fill="#2f2e41"/></svg>