<svg width="65" height="65" viewBox="0 0 65 65" fill="none" xmlns="http://www.w3.org/2000/svg">
<path d="M0.921875 32.9219C0.921875 37.1242 1.74958 41.2853 3.35773 45.1677C4.96588 49.0502 7.32298 52.5778 10.2945 55.5493C13.2659 58.5208 16.7936 60.8779 20.676 62.486C24.5584 64.0942 28.7196 64.9219 32.9219 64.9219C37.1242 64.9219 41.2853 64.0942 45.1677 62.486C49.0502 60.8779 52.5778 58.5208 55.5493 55.5493C58.5208 52.5778 60.8779 49.0502 62.486 45.1677C64.0942 41.2853 64.9219 37.1242 64.9219 32.9219C64.9219 28.7196 64.0942 24.5584 62.486 20.676C60.8779 16.7936 58.5208 13.2659 55.5493 10.2945C52.5778 7.32298 49.0502 4.96588 45.1677 3.35773C41.2853 1.74958 37.1242 0.921875 32.9219 0.921875C28.7196 0.921875 24.5584 1.74958 20.676 3.35773C16.7936 4.96588 13.2659 7.32298 10.2945 10.2945C7.32298 13.2659 4.96588 16.7936 3.35773 20.676C1.74958 24.5584 0.921875 28.7196 0.921875 32.9219V32.9219Z" fill="#262A3C"/>
<path d="M35.7851 35.2012C29.4241 40.7037 19.8163 40.0403 14.2748 33.7261C14.2436 33.6949 14.2202 33.6637 14.1968 33.6325C14.7743 43.9661 23.6173 51.8803 33.9587 51.3105C44.2924 50.7329 52.2065 41.89 51.6368 31.5486C51.1919 23.5095 45.6582 16.6568 37.8924 14.5183C42.7939 20.8715 41.8729 29.9564 35.7851 35.2012V35.2012Z" fill="#FFDC00"/>
<path d="M26.31 26.0227L27.5198 28.2081L29.9705 28.6764L28.2612 30.5027L28.5734 32.9847L26.31 31.9232L24.0466 32.9847L24.3588 30.5027L22.6495 28.6764L25.1003 28.2081L26.31 26.0227ZM26.2632 15.7671L27.0827 17.3359L28.7529 17.6715L27.59 18.9827L27.8008 20.7622L26.2632 19.9973L24.7256 20.7622L24.9364 18.9827L23.7734 17.6715L25.4437 17.3359L26.2632 15.7671Z" fill="#FFDC00"/>
</svg>
