<svg xmlns="http://www.w3.org/2000/svg" viewBox="0 0 256 256"><rect width="256" height="256" fill="none"/><path d="M112,224a95.2,95.2,0,0,1-29-48" fill="none" stroke="currentColor" stroke-linecap="round" stroke-linejoin="round" stroke-width="12"/><path d="M192,152c0,31.67,13.31,59,40,72H61A103.65,103.65,0,0,1,32,152c0-28.21,11.23-50.89,29.47-69.64a8,8,0,0,1,8.67-1.81L95.52,90.83a16,16,0,0,0,20.82-9l21-53.11c4.15-10,15.47-15.32,25.63-11.53a20,20,0,0,1,11.51,26.4L153.13,96.69a16,16,0,0,0,8.93,20.76L187,127.29a8,8,0,0,1,5,7.43Z" fill="none" stroke="currentColor" stroke-linecap="round" stroke-linejoin="round" stroke-width="12"/><line x1="43.93" y1="105.57" x2="192.8" y2="165.12" fill="none" stroke="currentColor" stroke-linecap="round" stroke-linejoin="round" stroke-width="12"/></svg>