<svg xmlns="http://www.w3.org/2000/svg" viewBox="0 0 256 256"><rect width="256" height="256" fill="none"/><path d="M40.49,205.52,93,61.14a7.79,7.79,0,0,1,12.84-2.85l91.88,91.88A7.79,7.79,0,0,1,194.86,163L50.48,215.51A7.79,7.79,0,0,1,40.49,205.52Z" fill="none" stroke="currentColor" stroke-linecap="round" stroke-linejoin="round" stroke-width="12"/><path d="M168,72s0-24,24-24,24-24,24-24" fill="none" stroke="currentColor" stroke-linecap="round" stroke-linejoin="round" stroke-width="12"/><line x1="144" y1="16" x2="144" y2="40" fill="none" stroke="currentColor" stroke-linecap="round" stroke-linejoin="round" stroke-width="12"/><line x1="216" y1="112" x2="232" y2="128" fill="none" stroke="currentColor" stroke-linecap="round" stroke-linejoin="round" stroke-width="12"/><line x1="216" y1="80" x2="240" y2="72" fill="none" stroke="currentColor" stroke-linecap="round" stroke-linejoin="round" stroke-width="12"/><line x1="78.09" y1="102.09" x2="153.91" y2="177.91" fill="none" stroke="currentColor" stroke-linecap="round" stroke-linejoin="round" stroke-width="12"/><line x1="101.11" y1="197.11" x2="58.89" y2="154.89" fill="none" stroke="currentColor" stroke-linecap="round" stroke-linejoin="round" stroke-width="12"/></svg>