<svg xmlns="http://www.w3.org/2000/svg" viewBox="0 0 256 256"><rect width="256" height="256" fill="none"/><path d="M109.77,97,83.82,52a8,8,0,0,0-11.55-2.54A95.94,95.94,0,0,0,32,119.14,8.1,8.1,0,0,0,40,128H92" fill="none" stroke="currentColor" stroke-linecap="round" stroke-linejoin="round" stroke-width="12"/><path d="M146.23,97l26-44.94a8,8,0,0,1,11.55-2.54A95.94,95.94,0,0,1,224,119.14a8.1,8.1,0,0,1-8,8.86H164" fill="none" stroke="currentColor" stroke-linecap="round" stroke-linejoin="round" stroke-width="12"/><path d="M146,159.18l25.83,44.73a8,8,0,0,1-3.56,11.26,96.24,96.24,0,0,1-80.54,0,8,8,0,0,1-3.56-11.26L110,159.18" fill="none" stroke="currentColor" stroke-linecap="round" stroke-linejoin="round" stroke-width="12"/><circle cx="128" cy="128" r="10"/></svg>