<svg stroke="currentColor" fill="currentColor" stroke-width="0" viewBox="0 0 16 16" height="1em" width="1em" xmlns="http://www.w3.org/2000/svg"><path fill-rule="evenodd" clip-rule="evenodd" d="M11.957 6h.05a2.99 2.99 0 0 1 2.116.879 3.003 3.003 0 0 1 0 4.242 2.99 2.99 0 0 1-2.117.879v-1a2.002 2.002 0 0 0 0-4h-.914l-.123-.857a2.49 2.49 0 0 0-2.126-2.122A2.478 2.478 0 0 0 6.231 5.5l-.333.762-.809-.189A2.49 2.49 0 0 0 4.523 6c-.662 0-1.297.263-1.764.732A2.503 2.503 0 0 0 4.523 11h.498v1h-.498a3.486 3.486 0 0 1-2.628-1.16 3.502 3.502 0 0 1 1.958-5.78 3.462 3.462 0 0 1 1.468.04 3.486 3.486 0 0 1 3.657-2.06A3.479 3.479 0 0 1 11.957 6zm-5.25 5.121l1.314 1.314V7h.994v5.4l1.278-1.279.707.707-2.146 2.147h-.708L6 11.829l.707-.708z"></path></svg>