<svg stroke="currentColor" fill="currentColor" stroke-width="0" viewBox="0 0 16 16" height="1em" width="1em" xmlns="http://www.w3.org/2000/svg"><circle cx="7.50002" cy="7.5" r="1"></circle><path fill-rule="evenodd" clip-rule="evenodd" d="M13.6835 9.50931L12.7324 9.20047C12.9058 8.66624 13 8.0951 13 7.5C13 6.9049 12.9058 6.33376 12.7324 5.79953L13.6835 5.49069C13.889 6.12344 14 6.79875 14 7.5C14 8.20125 13.889 8.87656 13.6835 9.50931ZM13.2928 4.54842L12.4021 5.00313C11.8748 3.9702 11.0298 3.12523 9.99687 2.59787L10.4516 1.70723C11.6721 2.33037 12.6696 3.3279 13.2928 4.54842ZM9.50931 1.31652L9.20047 2.26763C8.66624 2.09415 8.0951 2 7.5 2C6.9049 2 6.33376 2.09415 5.79953 2.26763L5.49069 1.31652C6.12344 1.11105 6.79875 1 7.5 1C8.20125 1 8.87656 1.11105 9.50931 1.31652ZM4.54842 1.70723L5.00313 2.59787C3.9702 3.12523 3.12523 3.9702 2.59787 5.00313L1.70723 4.54842C2.33037 3.3279 3.3279 2.33037 4.54842 1.70723ZM1.31652 5.49069C1.11105 6.12344 1 6.79875 1 7.5C1 8.20125 1.11105 8.87656 1.31652 9.50931L2.26763 9.20047C2.09415 8.66624 2 8.0951 2 7.5C2 6.9049 2.09415 6.33376 2.26763 5.79953L1.31652 5.49069ZM1.70723 10.4516L2.59787 9.99687C3.12523 11.0298 3.9702 11.8748 5.00313 12.4021L4.54842 13.2928C3.3279 12.6696 2.33037 11.6721 1.70723 10.4516ZM5.49069 13.6835L5.79953 12.7324C6.33376 12.9058 6.9049 13 7.5 13C8.0951 13 8.66624 12.9058 9.20047 12.7324L9.50931 13.6835C8.87656 13.889 8.20125 14 7.5 14C6.79875 14 6.12344 13.889 5.49069 13.6835ZM10.4516 13.2928L9.99687 12.4021C11.0298 11.8748 11.8748 11.0298 12.4021 9.99687L13.2928 10.4516C12.6696 11.6721 11.6721 12.6696 10.4516 13.2928Z"></path></svg>