<svg stroke="currentColor" fill="currentColor" stroke-width="0" viewBox="0 0 16 16" height="1em" width="1em" xmlns="http://www.w3.org/2000/svg"><path fill-rule="evenodd" clip-rule="evenodd" d="M10.832 2.688A4.056 4.056 0 0 0 8.02 1.5h-.04a4.056 4.056 0 0 0-4 4c-.013.75.198 1.487.606 2.117L7.734 14h.533l3.147-6.383c.409-.63.62-1.367.606-2.117a4.056 4.056 0 0 0-1.188-2.812zM7.925 2.5l.082.01.074-.01a3.075 3.075 0 0 1 2.941 3.037 2.74 2.74 0 0 1-.467 1.568l-.02.034-.017.035L8 12.279l-2.517-5.1-.017-.039-.02-.034a2.74 2.74 0 0 1-.467-1.568A3.074 3.074 0 0 1 7.924 2.5zm.612 2.169a1 1 0 1 0-1.112 1.663 1 1 0 0 0 1.112-1.663zM6.87 3.837a2 2 0 1 1 2.22 3.326 2 2 0 0 1-2.22-3.326z"></path></svg>