<svg stroke="currentColor" fill="currentColor" stroke-width="0" viewBox="0 0 16 16" height="1em" width="1em" xmlns="http://www.w3.org/2000/svg"><path fill-rule="evenodd" clip-rule="evenodd" d="M10.232 10.707L8.5 12.44V9h-1v3.44l-1.732-1.733-.707.707L7.646 14h.708l2.585-2.586-.707-.707zM5.061 3.586l.707.707L7.5 2.56V6h1V2.56l1.732 1.733.707-.707L8.354 1h-.708L5.061 3.586zm-.268 1.682L3.06 7H6.5v1H3.06l1.733 1.732-.707.707L1.5 7.854v-.708l2.586-2.585.707.707zM9.5 7h3.44l-1.733-1.732.707-.707L14.5 7.146v.708l-2.586 2.585-.707-.707L12.94 8H9.5V7z"></path></svg>