<svg stroke="currentColor" fill="currentColor" stroke-width="0" viewBox="0 0 16 16" height="1em" width="1em" xmlns="http://www.w3.org/2000/svg"><path d="M1 5H0V4h1v1zm0 2H0V6h1v1zm0 2H0V8h1v1zm0 2H0v-1h1v1zm0 2H0v-1h1v1zm0 1v1H0v-1h1zm0 1h1v1H1v-1zm2 0h1v1H3v-1zM1 1H0V0h1v1zm2 0H2V0h1v1zm1-1h1v1H4V0zm3 1H6V0h1v1zm2 0H8V0h1v1zm2 0h-1V0h1v1zm0 1V1h1v1h-1zm1 2h-1V3h1v1zM1 3H0V2h1v1z"></path><path fill-rule="evenodd" clip-rule="evenodd" d="M5 6l1-1h7l1 1v9l-1 1H6l-1-1V6zm1 0v9h7V6H6z"></path><path d="M15 7h1v2h-1V7zm0 3h1v2h-1v-2zm0 3h1v2h-1v-2zM7 8h5v1H7z"></path></svg>