<svg stroke="currentColor" fill="currentColor" stroke-width="0" viewBox="0 0 16 16" height="1em" width="1em" xmlns="http://www.w3.org/2000/svg"><path fill-rule="evenodd" clip-rule="evenodd" d="M9.111 4.663A2 2 0 1 1 6.89 1.337a2 2 0 0 1 2.222 3.326zm-.555-2.494A1 1 0 1 0 7.444 3.83a1 1 0 0 0 1.112-1.66zm2.61.03a1.494 1.494 0 0 1 1.895.188 1.513 1.513 0 0 1-.487 2.46 1.492 1.492 0 0 1-1.635-.326 1.512 1.512 0 0 1 .228-2.321zm.48 1.61a.499.499 0 1 0 .705-.708.509.509 0 0 0-.351-.15.499.499 0 0 0-.5.503.51.51 0 0 0 .146.356zM3.19 12.487H5v1.005H3.19a1.197 1.197 0 0 1-.842-.357 1.21 1.21 0 0 1-.348-.85v-1.81a.997.997 0 0 1-.71-.332A1.007 1.007 0 0 1 1 9.408V7.226c.003-.472.19-.923.52-1.258.329-.331.774-.52 1.24-.523H4.6a2.912 2.912 0 0 0-.55 1.006H2.76a.798.798 0 0 0-.54.232.777.777 0 0 0-.22.543v2.232h1v2.826a.202.202 0 0 0 .05.151.24.24 0 0 0 .14.05zm7.3-6.518a1.765 1.765 0 0 0-1.25-.523H6.76a1.765 1.765 0 0 0-1.24.523c-.33.335-.517.786-.52 1.258v3.178a1.06 1.06 0 0 0 .29.734 1 1 0 0 0 .71.332v2.323a1.202 1.202 0 0 0 .35.855c.18.168.407.277.65.312h2a1.15 1.15 0 0 0 1-1.167V11.47a.997.997 0 0 0 .71-.332 1.006 1.006 0 0 0 .29-.734V7.226a1.8 1.8 0 0 0-.51-1.258zM10 10.454H9v3.34a.202.202 0 0 1-.06.14.17.17 0 0 1-.14.06H7.19a.21.21 0 0 1-.2-.2v-3.34H6V7.226c0-.203.079-.398.22-.543a.798.798 0 0 1 .54-.232h2.48a.778.778 0 0 1 .705.48.748.748 0 0 1 .055.295v3.228zm2.81 3.037H11v-1.005h1.8a.24.24 0 0 0 .14-.05.2.2 0 0 0 .06-.152V9.458h1V7.226a.777.777 0 0 0-.22-.543.798.798 0 0 0-.54-.232h-1.29a2.91 2.91 0 0 0-.55-1.006h1.84a1.77 1.77 0 0 1 1.24.523c.33.335.517.786.52 1.258v2.182c0 .273-.103.535-.289.733-.186.199-.44.318-.711.333v1.81c0 .319-.125.624-.348.85a1.197 1.197 0 0 1-.842.357zM4 1.945a1.494 1.494 0 0 0-1.386.932A1.517 1.517 0 0 0 2.94 4.52 1.497 1.497 0 0 0 5.5 3.454c0-.4-.158-.784-.44-1.067A1.496 1.496 0 0 0 4 1.945zm0 2.012a.499.499 0 0 1-.5-.503.504.504 0 0 1 .5-.503.509.509 0 0 1 .5.503.504.504 0 0 1-.5.503z"></path></svg>