<svg stroke="currentColor" fill="currentColor" stroke-width="0" viewBox="0 0 16 16" height="1em" width="1em" xmlns="http://www.w3.org/2000/svg"><path fill-rule="evenodd" clip-rule="evenodd" d="M7.67 14.72h.71L10.1 13h2.4l.5-.5v-2.42l1.74-1.72v-.71l-1.71-1.72V3.49l-.5-.49H10.1L8.38 1.29h-.71L6 3H3.53L3 3.5v2.43L1.31 7.65v.71L3 10.08v2.42l.53.5H6l1.67 1.72zM6.16 12H4V9.87l-.12-.35L2.37 8l1.48-1.51.15-.35V4h2.16l.36-.14L8 2.35l1.54 1.51.35.14H12v2.14l.17.35L13.69 8l-1.55 1.52-.14.35V12H9.89l-.38.15L8 13.66l-1.48-1.52-.36-.14zm1.443-5.859a.962.962 0 0 0-.128.291c-.03.109-.05.215-.062.317l-.005.043h-.895l.003-.051c.018-.326.089-.615.212-.864.052-.108.117-.214.193-.318.081-.106.18-.2.294-.28.119-.084.255-.15.409-.2A1.71 1.71 0 0 1 8.165 5c.28 0 .523.046.726.14.2.089.366.21.494.363.127.152.22.326.279.52.058.194.087.394.087.599 0 .191-.032.371-.098.54-.064.164-.143.32-.238.466-.094.143-.197.28-.31.41-.11.129-.211.252-.304.372a2.47 2.47 0 0 0-.23.34.653.653 0 0 0-.088.318v.48h-.888v-.539c0-.168.031-.323.094-.464a2.15 2.15 0 0 1 .24-.401c.096-.127.2-.25.308-.368a4.74 4.74 0 0 0 .299-.356c.093-.12.17-.246.228-.377a.984.984 0 0 0 .09-.421 1.04 1.04 0 0 0-.047-.318v-.001a.638.638 0 0 0-.13-.243.558.558 0 0 0-.216-.158H8.46a.689.689 0 0 0-.294-.059.643.643 0 0 0-.339.083.742.742 0 0 0-.223.215zM8.5 11h-.888v-.888H8.5V11z"></path></svg>