<svg width="32" height="32" viewBox="0 0 32 32" fill="none" xmlns="http://www.w3.org/2000/svg">
<path d="M10.4333 9.06112L15.8889 6L21.3445 9.06112L19.3444 10.1945L15.8889 8.26112L12.4389 10.1945L10.4333 9.06112ZM21.3445 12.9278L19.3444 11.7944L15.8889 13.7278L12.4389 11.7944L10.4333 12.9278V15.1889L13.8778 17.1222V20.9833L15.8889 22.1167L17.8945 20.9833V17.1222L21.3445 15.1889V12.9278ZM21.3445 19.0556V16.7889L19.3444 17.9223V20.1834L21.3445 19.0556ZM22.7722 19.8556L19.3223 21.7834V24.05L24.7779 20.9833V14.8612L22.7722 15.989V19.8556ZM20.7667 10.9945L22.7667 12.1278V14.3889L24.7779 13.2611V10.9945L22.7722 9.86114L20.7667 11V10.9945ZM13.8778 22.6055V24.8666L15.8889 26L17.8945 24.8666V22.6111L15.8889 23.7389L13.8834 22.6055H13.8778ZM10.4333 19.05L12.4333 20.1834V17.9223L10.4333 16.7889V19.0556V19.05ZM13.8778 10.9945L15.8889 12.1278L17.8945 10.9945L15.8889 9.86114L13.8834 11L13.8778 10.9945ZM9.00555 12.1278L11.0111 10.9945L9.0111 9.86114L7 11V13.2667L9.00555 14.3945V12.1333V12.1278ZM9.00555 15.989L7 14.8612V20.9833L12.4556 24.05V21.7778L9.0111 19.85V15.9834L9.00555 15.989Z" fill="currentColor"/>
</svg>
