<svg width="32" height="32" viewBox="0 0 32 32" fill="none" xmlns="http://www.w3.org/2000/svg">
<path d="M16 6C10.475 6 6 10.475 6 16C6 21.525 10.475 26 16 26C21.525 26 26 21.525 26 16C26 10.475 21.525 6 16 6ZM21.9125 21.8H20.8688V17.475C20.8688 17.475 20.85 17.4688 20.8375 17.4625C19.4125 19.0438 17.9875 20.625 16.5562 22.2188C16.2937 21.9813 16.0375 21.75 15.7688 21.5063C16.8625 20.2875 17.95 19.0812 19.0375 17.875C19.0375 17.8688 19.025 17.8625 19.0187 17.85C16.1937 19.325 13.375 20.8 10.5375 22.2813C10.3875 21.9938 10.2375 21.7125 10.1 21.4375C10.0625 21.3688 10.1 21.3188 10.1688 21.2813C10.95 20.875 11.7313 20.4687 12.5125 20.0625C13.8625 19.3563 15.2062 18.6563 16.5562 17.95C17.3937 17.5125 18.2375 17.075 19.075 16.6375C19.1188 16.6125 19.1625 16.5875 19.2125 16.5625C19.2125 16.55 19.2063 16.5375 19.2 16.5313H10.3V15.4813H19.2375C19.1813 15.4438 19.1625 15.4188 19.1375 15.4063C17.35 14.475 15.5625 13.5438 13.7812 12.6188C12.5812 11.9938 11.3875 11.3688 10.1875 10.7438C10.0875 10.6938 10.0688 10.6188 10.1063 10.5375C10.2375 10.2688 10.3812 10 10.525 9.71875C13.3438 11.1875 16.1562 12.6563 18.9688 14.125C18.975 14.1188 18.9875 14.1063 18.9938 14.1C17.9188 12.9063 16.8375 11.7063 15.75 10.5C16.0125 10.2625 16.2625 10.0313 16.5313 9.7875C17.9688 11.3813 19.4 12.9688 20.8563 14.5875V10.2H21.9V21.8063L21.9125 21.8Z" fill="currentColor"/>
</svg>
