<svg width="32" height="32" viewBox="0 0 32 32" fill="none" xmlns="http://www.w3.org/2000/svg">
<path d="M15.0969 6.03953C12.4967 6.26952 10.0372 7.55207 8.3439 9.56544C6.10962 12.2247 5.41829 15.8307 6.50518 19.1415C6.99288 20.6218 7.82125 21.9671 8.92367 23.0691C10.0261 24.1711 11.3718 24.9991 12.8526 25.4865C14.9217 26.1677 17.0759 26.1729 19.1398 25.4917C20.6205 25.0042 21.9661 24.1761 23.0683 23.074C24.1706 21.9719 24.9988 20.6266 25.4864 19.1463C26.1677 17.0776 26.1729 14.924 25.4916 12.861C24.0388 8.45358 19.7358 5.62884 15.0969 6.03953ZM16.5248 9.28497C17.0558 9.53018 21.5593 12.1245 21.7248 12.2848C21.8298 12.3902 21.9652 12.5605 22.0254 12.6706C22.1356 12.871 22.1356 12.8858 22.1356 15.9509C22.1356 19.0161 22.1356 19.0313 22.025 19.2316C21.9648 19.3414 21.8298 19.5121 21.7244 19.6171C21.5392 19.7974 16.7949 22.5172 16.4495 22.6422C16.219 22.7271 15.8082 22.7271 15.5678 22.6422C15.2271 22.522 10.4732 19.8022 10.2728 19.6123C10.1566 19.4989 10.0556 19.3709 9.97223 19.2316C9.86162 19.0313 9.86162 19.0161 9.86162 15.9509C9.86162 12.8858 9.86162 12.871 9.97183 12.6706C10.0319 12.5605 10.1674 12.385 10.2724 12.2848C10.4427 12.1197 14.7811 9.61553 15.4223 9.30981C15.7381 9.15956 16.2294 9.14954 16.5248 9.28497Z" fill="currentColor"/>
<path d="M15.7734 10.1713C14.2352 11.0179 10.9842 12.8858 10.904 12.9808C10.7886 13.101 10.7886 13.121 10.7886 14.4532C10.7886 15.1945 10.7986 15.8007 10.8138 15.8007C10.8287 15.8007 10.9237 15.7506 11.0291 15.6853C11.1293 15.6204 11.3148 15.525 11.4398 15.4701C11.6551 15.38 11.8607 15.3748 15.9237 15.3499C20.793 15.3199 20.3169 15.37 20.8932 14.8339L21.2086 14.5386V13.8174C21.2086 13.1462 21.2034 13.0962 21.0984 12.9808C20.9581 12.8305 16.229 10.1464 16.0487 10.1112C15.9786 10.1011 15.8583 10.126 15.7734 10.1713ZM15.0816 12.5004C15.157 12.5252 15.2872 12.6101 15.3622 12.6855C15.6279 12.9359 15.6479 13.026 15.6479 13.8975V14.6988H14.6961V13.3466H13.594V14.6988H12.6422V13.9324C12.6422 12.9659 12.7175 12.7656 13.1684 12.53C13.2886 12.4651 13.489 12.4499 14.1302 12.4451C14.5859 12.4451 15.0015 12.4707 15.0816 12.5004ZM18.8441 12.54C19.2749 12.7604 19.355 12.9756 19.355 13.9472V14.6984H18.4032V13.3462H17.3011V14.6984H16.3493V13.8971C16.3493 13.0256 16.3693 12.9355 16.6346 12.6851C16.855 12.4747 16.9705 12.4495 17.8421 12.4495C18.5483 12.4447 18.6837 12.4599 18.8441 12.54ZM21.1236 15.8608C21.0884 15.9009 20.8932 16.011 20.6976 16.1064L20.3317 16.2763L11.7657 16.3268L11.54 16.4618C11.415 16.5319 11.1942 16.7174 11.0491 16.8677L10.7886 17.1482V17.9743C10.7886 18.7605 10.7934 18.8057 10.9036 18.9211C10.9637 18.986 12.0959 19.6524 13.4184 20.4036C15.2472 21.4301 15.8683 21.7607 15.9938 21.7607C16.124 21.7607 16.7552 21.4253 18.6188 20.3684C19.9662 19.6071 21.1036 18.936 21.1385 18.8759C21.2387 18.7308 21.219 15.7406 21.1236 15.8608ZM13.594 18.3049H14.6913L14.7213 16.9775L15.6479 16.9478V17.764C15.6479 18.5205 15.6379 18.5954 15.5325 18.7657C15.2772 19.1864 14.9967 19.2717 14.0096 19.2465C13.2281 19.2312 13.103 19.1864 12.8225 18.8406L12.6674 18.6455L12.6522 17.7988L12.6321 16.9526H13.594V18.3049ZM17.3059 18.3049H18.4032V16.9526H19.355V17.7139C19.355 18.5753 19.2997 18.7757 19.0096 19.0213C18.7791 19.2116 18.5587 19.2565 17.7972 19.2565C17.1708 19.2565 17.1007 19.2465 16.8603 19.1263C16.6751 19.0313 16.5649 18.936 16.4747 18.7857C16.3545 18.5806 16.3493 18.5353 16.3493 17.7592V16.9474L17.2762 16.9779L17.3059 18.3049Z" fill="currentColor"/>
</svg>
