<?xml version="1.0" encoding="UTF-8"?>
<svg width="135px" height="156px" viewBox="0 0 135 156" version="1.1" xmlns="http://www.w3.org/2000/svg" xmlns:xlink="http://www.w3.org/1999/xlink">
    <!-- Generator: Sketch 53.2 (72643) - https://sketchapp.com -->
    <title>Illustration/Errors/File-No-Results</title>
    <desc>Created with Sketch.</desc>
    <defs>
        <linearGradient x1="-0.453250677%" y1="49.4082172%" x2="100.408011%" y2="50.6642052%" id="linearGradient-1">
            <stop stop-color="#B3BAC5" offset="0%"></stop>
            <stop stop-color="#DFE1E5" stop-opacity="0.5" offset="100%"></stop>
        </linearGradient>
        <linearGradient x1="14.2392602%" y1="84.9096843%" x2="85.7938704%" y2="15.1088994%" id="linearGradient-2">
            <stop stop-color="#C1C7D0" offset="56%"></stop>
            <stop stop-color="#E9EBEF" stop-opacity="0.5" offset="97%"></stop>
        </linearGradient>
    </defs>
    <g id="Page-1" stroke="none" stroke-width="1" fill="none" fill-rule="evenodd">
        <g id="Illustration/Errors/File-No-Results">
            <g id="No-File-or-Link-Results">
                <g id="Group" opacity="0.3" fill="#B3BAC5" fill-rule="nonzero">
                    <g id="_Group_">
                        <path d="M101.482588,155.412706 L89.4063529,155.412706 C88.3522038,155.412706 87.4976471,154.558149 87.4976471,153.504 C87.4976471,152.449851 88.3522038,151.595294 89.4063529,151.595294 L101.482588,151.595294 C102.536737,151.595294 103.391294,152.449851 103.391294,153.504 C103.391294,154.558149 102.536737,155.412706 101.482588,155.412706 L101.482588,155.412706 Z M78.1927059,155.412706 L66.1164706,155.412706 C65.0623214,155.412706 64.2077647,154.558149 64.2077647,153.504 C64.2077647,152.449851 65.0623214,151.595294 66.1164706,151.595294 L78.1927059,151.595294 C79.246855,151.595294 80.1014118,152.449851 80.1014118,153.504 C80.1014118,154.558149 79.246855,155.412706 78.1927059,155.412706 L78.1927059,155.412706 Z M54.9028235,155.412706 L42.8357647,155.412706 C41.7816156,155.412706 40.9270588,154.558149 40.9270588,153.504 C40.9270588,152.449851 41.7816156,151.595294 42.8357647,151.595294 L54.9028235,151.595294 C55.9569727,151.595294 56.8115294,152.449851 56.8115294,153.504 C56.8115294,154.558149 55.9569727,155.412706 54.9028235,155.412706 L54.9028235,155.412706 Z M31.6129412,155.412706 L19.5458824,155.412706 C18.4917332,155.412706 17.6371765,154.558149 17.6371765,153.504 C17.6371765,152.449851 18.4917332,151.595294 19.5458824,151.595294 L31.6221176,151.595294 C32.6762668,151.595294 33.5308235,152.449851 33.5308235,153.504 C33.5308235,154.558149 32.6762668,155.412706 31.6221176,155.412706 L31.6129412,155.412706 Z" id="Shape"></path>
                        <path d="M8.33223529,155.412706 L1.90870588,155.412706 C0.854556732,155.412706 1.29096038e-16,154.558149 0,153.504 L0,147.080471 C-1.29096038e-16,146.026321 0.854556732,145.171765 1.90870588,145.171765 C2.96285503,145.171765 3.81741176,146.026321 3.81741176,147.080471 L3.81741176,151.595294 L8.33223529,151.595294 C9.38638444,151.595294 10.2409412,152.449851 10.2409412,153.504 C10.2409412,154.558149 9.38638444,155.412706 8.33223529,155.412706 L8.33223529,155.412706 Z" id="Shape"></path>
                        <path d="M1.90870588,136.802824 C0.854556732,136.802824 1.23873486e-16,135.948267 -5.22449922e-18,134.894118 L-5.22449922e-18,121.771765 C-1.34322485e-16,120.717616 0.854556732,119.863059 1.90870588,119.863059 C2.96285503,119.863059 3.81741176,120.717616 3.81741176,121.771765 L3.81741176,134.894118 C3.81741176,135.948267 2.96285503,136.802824 1.90870588,136.802824 L1.90870588,136.802824 Z M1.90870588,111.494118 C0.854556732,111.494118 1.23873486e-16,110.639561 -5.22449922e-18,109.585412 L-5.22449922e-18,96.4630588 C-1.34322485e-16,95.4089097 0.854556732,94.5543529 1.90870588,94.5543529 C2.96285503,94.5543529 3.81741176,95.4089097 3.81741176,96.4630588 L3.81741176,109.585412 C3.81741176,110.091632 3.61631654,110.577119 3.25836476,110.935071 C2.90041297,111.293022 2.41492616,111.494118 1.90870588,111.494118 L1.90870588,111.494118 Z M1.90870588,86.1854118 C1.40089166,86.1854176 0.914008996,85.9830632 0.555792249,85.6231243 C0.197575502,85.2631853 -0.00244141454,84.7753378 -2.11907315e-16,84.2675294 L-2.11907315e-16,71.1451765 C-1.29094597e-16,70.0910273 0.854556732,69.2364706 1.90870588,69.2364706 C2.96285503,69.2364706 3.81741176,70.0910273 3.81741176,71.1451765 L3.81741176,84.2675294 C3.81985318,84.7753378 3.61983626,85.2631853 3.26161952,85.6231243 C2.90340277,85.9830632 2.4165201,86.1854176 1.90870588,86.1854118 L1.90870588,86.1854118 Z M1.90870588,60.8767059 C1.40089166,60.8767118 0.914008996,60.6743574 0.555792249,60.3144184 C0.197575502,59.9544795 -0.00244141454,59.4666319 -2.11903926e-16,58.9588235 L-2.11903926e-16,45.8364706 C-1.29094597e-16,44.7823214 0.854556732,43.9277647 1.90870588,43.9277647 C2.96285503,43.9277647 3.81741176,44.7823214 3.81741176,45.8364706 L3.81741176,58.9588235 C3.81741176,60.0129727 2.96285503,60.8675294 1.90870588,60.8675294 L1.90870588,60.8767059 Z M1.90870588,35.568 C1.40089166,35.5680059 0.914008996,35.3656515 0.555792249,35.0057125 C0.197575502,34.6457736 -0.00244141454,34.157926 -2.11907315e-16,33.6501176 L-2.11907315e-16,20.5185882 C-1.29094597e-16,19.4644391 0.854556732,18.6098824 1.90870588,18.6098824 C2.96285503,18.6098824 3.81741176,19.4644391 3.81741176,20.5185882 L3.81741176,33.6409412 C3.81985318,34.1487495 3.61983626,34.6365971 3.26161952,34.9965361 C2.90340277,35.356475 2.4165201,35.5588294 1.90870588,35.5588235 L1.90870588,35.568 Z" id="Shape"></path>
                        <path d="M1.90870588,10.2409412 C0.854556732,10.2409412 1.29096038e-16,9.38638444 0,8.33223529 L0,1.90870588 C-1.29096038e-16,0.854556732 0.854556732,1.93644057e-16 1.90870588,0 L8.33223529,0 C9.38638444,6.45480192e-17 10.2409412,0.854556732 10.2409412,1.90870588 C10.2409412,2.96285503 9.38638444,3.81741176 8.33223529,3.81741176 L3.81741176,3.81741176 L3.81741176,8.33223529 C3.81741176,9.38638444 2.96285503,10.2409412 1.90870588,10.2409412 Z" id="Shape"></path>
                        <path d="M101.464235,3.81741176 L89.388,3.81741176 C88.3338508,3.81741176 87.4792941,2.96285503 87.4792941,1.90870588 C87.4792941,0.854556732 88.3338508,1.93644057e-16 89.388,0 L101.464235,0 C102.518384,6.45480192e-17 103.372941,0.854556732 103.372941,1.90870588 C103.372941,2.96285503 102.518384,3.81741176 101.464235,3.81741176 Z M78.1835294,3.81741176 L66.0705882,3.81741176 C65.0164391,3.81741176 64.1618824,2.96285503 64.1618824,1.90870588 C64.1618824,0.854556732 65.0164391,1.93644057e-16 66.0705882,0 L78.1743529,0 C79.2285021,6.45480192e-17 80.0830588,0.854556732 80.0830588,1.90870588 C80.0830588,2.96285503 79.2285021,3.81741176 78.1743529,3.81741176 L78.1835294,3.81741176 Z M54.9028235,3.81741176 L42.8265882,3.81741176 C41.7724391,3.81741176 40.9178824,2.96285503 40.9178824,1.90870588 C40.9178824,0.854556732 41.7724391,1.93644057e-16 42.8265882,0 L54.8936471,0 C55.9477962,6.45480192e-17 56.8023529,0.854556732 56.8023529,1.90870588 C56.8023529,2.96285503 55.9477962,3.81741176 54.8936471,3.81741176 L54.9028235,3.81741176 Z M31.6221176,3.81741176 L19.5458824,3.81741176 C18.4917332,3.81741176 17.6371765,2.96285503 17.6371765,1.90870588 C17.6371765,0.854556732 18.4917332,1.93644057e-16 19.5458824,0 L31.6129412,0 C32.6670903,6.45480192e-17 33.5216471,0.854556732 33.5216471,1.90870588 C33.5216471,2.96285503 32.6670903,3.81741176 31.6129412,3.81741176 L31.6221176,3.81741176 Z" id="Shape"></path>
                        <path d="M119.092235,10.2409412 C118.038086,10.2409412 117.183529,9.38638444 117.183529,8.33223529 L117.183529,3.81741176 L112.668706,3.81741176 C111.614557,3.81741176 110.76,2.96285503 110.76,1.90870588 C110.76,0.854556732 111.614557,1.93644057e-16 112.668706,0 L119.092235,0 C119.598456,-3.56591433e-15 120.083942,0.201095221 120.441894,0.55904701 C120.799846,0.916998798 121.000941,1.40248561 121.000941,1.90870588 L121.000941,8.33223529 C121.000941,9.38638444 120.146384,10.2409412 119.092235,10.2409412 Z" id="Shape"></path>
                        <path d="M119.110588,111.494118 C118.056439,111.494118 117.201882,110.639561 117.201882,109.585412 L117.201882,96.4630588 C117.201882,95.4089097 118.056439,94.5543529 119.110588,94.5543529 C120.164737,94.5543529 121.019294,95.4089097 121.019294,96.4630588 L121.019294,109.585412 C121.019294,110.091632 120.818199,110.577119 120.460247,110.935071 C120.102295,111.293022 119.616809,111.494118 119.110588,111.494118 L119.110588,111.494118 Z M119.110588,86.1854118 C118.056439,86.1854118 117.201882,85.330855 117.201882,84.2767059 L117.201882,71.1451765 C117.201882,70.0910273 118.056439,69.2364706 119.110588,69.2364706 C120.164737,69.2364706 121.019294,70.0910273 121.019294,71.1451765 L121.019294,84.2675294 C121.0193,84.7753436 120.816946,85.2622263 120.457007,85.620443 C120.097068,85.9786598 119.60922,86.1786767 119.101412,86.1762353 L119.110588,86.1854118 Z M119.110588,60.8767059 C118.056439,60.8767059 117.201882,60.0221492 117.201882,58.968 L117.201882,45.8364706 C117.201882,44.7823214 118.056439,43.9277647 119.110588,43.9277647 C120.164737,43.9277647 121.019294,44.7823214 121.019294,45.8364706 L121.019294,58.9588235 C121.0193,59.4666377 120.816946,59.9535204 120.457007,60.3117372 C120.097068,60.6699539 119.60922,60.8699708 119.101412,60.8675294 L119.110588,60.8767059 Z M119.110588,35.568 C118.056439,35.568 117.201882,34.7134433 117.201882,33.6592941 L117.201882,20.5185882 C117.201882,19.4644391 118.056439,18.6098824 119.110588,18.6098824 C120.164737,18.6098824 121.019294,19.4644391 121.019294,20.5185882 L121.019294,33.6409412 C121.021749,34.1503438 120.820476,34.6395924 120.460269,34.9997987 C120.100063,35.3600049 119.610814,35.5612785 119.101412,35.5588235 L119.110588,35.568 Z" id="Shape"></path>
                    </g>
                </g>
                <path d="M98.7388235,107.805176 L93.1778824,102.299294 L85.5522353,110.025882 L91.1131765,115.531765 C92.5316141,116.930551 93.5243608,118.702858 93.9762353,120.643059 L93.9762353,120.643059 C94.4281098,122.583259 95.4208565,124.355567 96.8392941,125.754353 L119.385882,148.016471 C122.802067,151.385881 128.302593,151.348909 131.673176,147.933882 L131.673176,147.933882 C135.042587,144.517698 135.005615,139.017171 131.590588,135.646588 L109.044,113.402824 C107.619079,112.017023 105.831171,111.062624 103.886824,110.649882 L103.886824,110.649882 C101.935547,110.209633 100.149943,109.222936 98.7388235,107.805176 L98.7388235,107.805176 Z" id="Shape" fill="#CFD4DB" fill-rule="nonzero"></path>
                <path d="M98.7388235,107.805176 L97.0503529,106.135059 C94.9138992,104.029988 91.4757025,104.054634 89.3696471,106.190118 L89.3696471,106.190118 C87.2645759,108.326571 87.2892225,111.764768 89.4247059,113.870824 L91.1131765,115.540941 C92.5316141,116.939727 93.5243608,118.712035 93.9762353,120.652235 L93.9762353,120.652235 C94.4281098,122.592436 95.4208565,124.364743 96.8392941,125.763529 L119.385882,148.016471 C122.802067,151.385881 128.302593,151.348909 131.673176,147.933882 L131.673176,147.933882 C135.042587,144.517698 135.005615,139.017171 131.590588,135.646588 L109.044,113.402824 C107.619079,112.017023 105.831171,111.062624 103.886824,110.649882 L103.886824,110.649882 C101.935547,110.209633 100.149943,109.222936 98.7388235,107.805176 L98.7388235,107.805176 Z" id="_Path_" fill="url(#linearGradient-1)" fill-rule="nonzero"></path>
                <path d="M103.694118,110.539765 C101.831689,110.087458 100.127937,109.135642 98.7663529,107.786824 L97.0778824,106.116706 C94.9414287,104.011635 91.5032319,104.036281 89.3971765,106.171765 L89.3971765,106.171765 C87.2921053,108.308218 87.3167519,111.746415 89.4522353,113.852471 L91.1407059,115.522588 C92.4990551,116.865993 93.4665144,118.553496 93.9395294,120.404471 C97.6728211,117.630303 100.962031,114.303961 103.694118,110.539765 L103.694118,110.539765 Z" id="Shape" fill="#DFE1E5" fill-rule="nonzero" style="mix-blend-mode: multiply;"></path>
                <path d="M61.3997647,125.029412 C36.3130421,125.196657 15.8406566,104.995428 15.6734118,79.9087059 C15.5061669,54.8219833 35.7073951,34.3495978 60.7941176,34.1823529 L60.7941176,34.1823529 C72.8445051,34.0682187 84.4396171,38.7802819 92.9943529,47.268 L92.9943529,47.268 C106.06496,60.1700021 110.078024,79.6744264 103.162705,96.6885616 C96.2473856,113.702697 79.7651346,124.876892 61.3997647,125.001882 L61.3997647,125.029412 Z M36.4948235,55.3341176 C24.9069193,67.0743953 23.2260347,85.3654055 32.4801407,99.0209964 C41.7342466,112.676587 59.345915,117.893441 74.544456,111.48111 C89.742997,105.068778 98.2953546,88.8132069 94.9712013,72.6557427 C91.6470481,56.4982786 77.3722182,44.9390546 60.8767059,45.0472941 C51.7016881,45.0821006 42.9219736,48.7863008 36.4948235,55.3341176 Z" id="Shape" fill="url(#linearGradient-2)" fill-rule="nonzero"></path>
                <path d="M77.3025882,68.5115294 L72.5675294,63.7397647 C71.8573554,63.0580579 70.7358211,63.0580579 70.0256471,63.7397647 L61.1244706,72.5767059 L52.3058824,63.6663529 C51.5957083,62.9846461 50.474174,62.9846461 49.764,63.6663529 L44.9647059,68.3922353 C44.282999,69.1024093 44.282999,70.2239436 44.9647059,70.9341176 L53.82,79.8352941 L44.9647059,88.6630588 C44.282999,89.3732328 44.282999,90.4947672 44.9647059,91.2049412 L49.6997647,95.9767059 C50.4099387,96.6584127 51.531473,96.6584127 52.2416471,95.9767059 L61.0877647,87.1764706 L69.9247059,96.0776471 C70.6348799,96.7593539 71.7564142,96.7593539 72.4665882,96.0776471 L77.2383529,91.3425882 C77.9200598,90.6324142 77.9200598,89.5108799 77.2383529,88.8007059 L68.4014118,79.8352941 L77.3025882,70.9983529 C77.9497796,70.2957345 77.9497796,69.2141478 77.3025882,68.5115294 Z" id="_Clipping_Path_" fill="#C1C7D0" fill-rule="nonzero"></path>
            </g>
        </g>
    </g>
</svg>