<svg fill="#ffffff" xmlns="http://www.w3.org/2000/svg" viewBox="0 0 100 100"><path fill="#c7ede6" d="M87.215,56.71C88.35,54.555,89,52.105,89,49.5c0-6.621-4.159-12.257-10.001-14.478 C78.999,35.015,79,35.008,79,35c0-11.598-9.402-21-21-21c-9.784,0-17.981,6.701-20.313,15.757C36.211,29.272,34.638,29,33,29 c-7.692,0-14.023,5.793-14.89,13.252C12.906,43.353,9,47.969,9,53.5C9,59.851,14.149,65,20.5,65c0.177,0,0.352-0.012,0.526-0.022 C21.022,65.153,21,65.324,21,65.5C21,76.822,30.178,86,41.5,86c6.437,0,12.175-2.972,15.934-7.614C59.612,80.611,62.64,82,66,82 c4.65,0,8.674-2.65,10.666-6.518C77.718,75.817,78.837,76,80,76c6.075,0,11-4.925,11-11C91,61.689,89.53,58.727,87.215,56.71z"/><path fill="#fdfcef" d="M72.5,36.5V37h-3v-0.5c0,0-4.242,0-5.5,0c-2.485,0-4.5-2.015-4.5-4.5 c0-2.333,1.782-4.229,4.055-4.455C63.533,27.364,63.5,27.187,63.5,27c0-2.485,2.015-4.5,4.5-4.5c1.438,0,2.703,0.686,3.527,1.736 C71.667,21.6,73.829,19.5,76.5,19.5c2.761,0,5,2.239,5,5c0,0.446-0.077,0.87-0.187,1.282c0.642-0.777,1.6-1.282,2.687-1.282 c1.781,0,3.234,1.335,3.455,3.055C87.636,27.533,87.813,27.5,88,27.5c2.485,0,4.5,2.015,4.5,4.5s-2.015,4.5-4.5,4.5s-9.5,0-9.5,0 H72.5z"/><path fill="#472b29" d="M76.5,19c3.033,0,5.5,2.467,5.5,5.5c0,0.016,0,0.031,0,0.047C82.602,24.192,83.29,24,84,24 c1.831,0,3.411,1.261,3.858,3.005C87.905,27.002,87.952,27,88,27c2.757,0,5,2.243,5,5s-2.243,5-5,5H72.5 c-0.276,0-0.5-0.224-0.5-0.5s0.224-0.5,0.5-0.5H88c2.206,0,4-1.794,4-4s-1.794-4-4-4c-0.117,0-0.23,0.017-0.343,0.032 l-0.141,0.019c-0.021,0.003-0.041,0.004-0.062,0.004c-0.246,0-0.462-0.185-0.495-0.437C86.768,26.125,85.496,25,84,25 c-0.885,0-1.723,0.401-2.301,1.1c-0.098,0.118-0.241,0.182-0.386,0.182c-0.078,0-0.156-0.018-0.228-0.056 c-0.209-0.107-0.314-0.346-0.254-0.573C80.946,25.218,81,24.852,81,24.5c0-2.481-2.019-4.5-4.5-4.5 c-2.381,0-4.347,1.872-4.474,4.263c-0.011,0.208-0.15,0.387-0.349,0.45c-0.05,0.016-0.101,0.024-0.152,0.024 c-0.15,0-0.296-0.069-0.392-0.192C70.362,23.563,69.221,23,68,23c-2.206,0-4,1.794-4,4c0,0.117,0.017,0.23,0.032,0.343 l0.019,0.141c0.016,0.134-0.022,0.268-0.106,0.373c-0.084,0.105-0.207,0.172-0.34,0.185C61.549,28.247,60,29.949,60,32 c0,2.206,1.794,4,4,4h5.5c0.276,0,0.5,0.224,0.5,0.5S69.776,37,69.5,37H64c-2.757,0-5-2.243-5-5c0-2.397,1.689-4.413,4.003-4.877 C63.001,27.082,63,27.041,63,27c0-2.757,2.243-5,5-5c1.176,0,2.293,0.416,3.183,1.164C71.781,20.76,73.945,19,76.5,19L76.5,19z"/><path fill="#472b29" d="M78,26c1.403,0,2.609,0.999,2.913,2.341C81.28,28.119,81.699,28,82.125,28 c1.202,0,2.198,0.897,2.353,2.068C84.681,30.022,84.874,30,85.063,30c1.529,0,2.811,1.2,2.918,2.732 C87.99,32.87,87.886,32.99,87.749,33c-0.006,0-0.012,0-0.018,0c-0.13,0-0.24-0.101-0.249-0.232 c-0.089-1.271-1.151-2.268-2.419-2.268c-0.229,0-0.47,0.042-0.738,0.127c-0.022,0.007-0.045,0.01-0.067,0.01 c-0.055,0-0.11-0.02-0.156-0.054C84.038,30.537,84,30.455,84,30.375c0-1.034-0.841-1.875-1.875-1.875 c-0.447,0-0.885,0.168-1.231,0.473c-0.047,0.041-0.106,0.063-0.165,0.063c-0.032,0-0.063-0.006-0.093-0.019 c-0.088-0.035-0.148-0.117-0.155-0.212C80.377,27.512,79.288,26.5,78,26.5c-0.208,0-0.425,0.034-0.682,0.107 c-0.023,0.007-0.047,0.01-0.07,0.01c-0.109,0-0.207-0.073-0.239-0.182c-0.038-0.133,0.039-0.271,0.172-0.309 C77.483,26.04,77.744,26,78,26L78,26z"/><path fill="#472b29" d="M64.117,27.5c1.326,0,2.508,0.897,2.874,2.182c0.038,0.133-0.039,0.271-0.172,0.309 C66.795,29.997,66.772,30,66.75,30c-0.109,0-0.209-0.072-0.24-0.182C66.205,28.748,65.221,28,64.117,28 c-0.117,0-0.23,0.014-0.342,0.029c-0.012,0.002-0.023,0.003-0.035,0.003c-0.121,0-0.229-0.092-0.246-0.217 c-0.019-0.137,0.077-0.263,0.214-0.281C63.842,27.516,63.978,27.5,64.117,27.5L64.117,27.5z"/><path fill="#fff" d="M31.5,81h-10c-0.276,0-0.5-0.224-0.5-0.5s0.224-0.5,0.5-0.5h10c0.276,0,0.5,0.224,0.5,0.5 S31.777,81,31.5,81z"/><path fill="#fff" d="M34.5,81h-1c-0.276,0-0.5-0.224-0.5-0.5s0.224-0.5,0.5-0.5h1c0.276,0,0.5,0.224,0.5,0.5 S34.777,81,34.5,81z"/><path fill="#fff" d="M39.491,83H30.5c-0.276,0-0.5-0.224-0.5-0.5s0.224-0.5,0.5-0.5h8.991c0.276,0,0.5,0.224,0.5,0.5 S39.767,83,39.491,83z"/><path fill="#fff" d="M28.5,83h-1c-0.276,0-0.5-0.224-0.5-0.5s0.224-0.5,0.5-0.5h1c0.276,0,0.5,0.224,0.5,0.5 S28.777,83,28.5,83z"/><path fill="#fff" d="M25.5,83h-2c-0.276,0-0.5-0.224-0.5-0.5s0.224-0.5,0.5-0.5h2c0.276,0,0.5,0.224,0.5,0.5 S25.777,83,25.5,83z"/><path fill="#fff" d="M31.5,85h-2c-0.276,0-0.5-0.224-0.5-0.5s0.224-0.5,0.5-0.5h2c0.276,0,0.5,0.224,0.5,0.5 S31.776,85,31.5,85z"/><path fill="#fff" d="M34.5,76c-0.177,0-0.823,0-1,0c-0.276,0-0.5,0.224-0.5,0.5c0,0.276,0.224,0.5,0.5,0.5 c0.177,0,0.823,0,1,0c0.276,0,0.5-0.224,0.5-0.5C35,76.224,34.776,76,34.5,76z"/><path fill="#fff" d="M34.5,78c-0.177,0-4.823,0-5,0c-0.276,0-0.5,0.224-0.5,0.5c0,0.276,0.224,0.5,0.5,0.5 c0.177,0,4.823,0,5,0c0.276,0,0.5-0.224,0.5-0.5C35,78.224,34.776,78,34.5,78z"/><path fill="#fff" d="M39.5,80c-0.177,0-2.823,0-3,0c-0.276,0-0.5,0.224-0.5,0.5c0,0.276,0.224,0.5,0.5,0.5 c0.177,0,2.823,0,3,0c0.276,0,0.5-0.224,0.5-0.5C40,80.224,39.776,80,39.5,80z"/><g><path fill="#fff" d="M48.5,23h-10c-0.276,0-0.5-0.224-0.5-0.5s0.224-0.5,0.5-0.5h10c0.276,0,0.5,0.224,0.5,0.5 S48.776,23,48.5,23z"/><path fill="#fff" d="M52.5,23h-2c-0.276,0-0.5-0.224-0.5-0.5s0.224-0.5,0.5-0.5h2c0.276,0,0.5,0.224,0.5,0.5 S52.776,23,52.5,23z"/><path fill="#fff" d="M57.5,25h-10c-0.276,0-0.5-0.224-0.5-0.5s0.224-0.5,0.5-0.5h10c0.276,0,0.5,0.224,0.5,0.5 S57.777,25,57.5,25z"/><path fill="#fff" d="M45.5,25h-1c-0.276,0-0.5-0.224-0.5-0.5s0.224-0.5,0.5-0.5h1c0.276,0,0.5,0.224,0.5,0.5 S45.776,25,45.5,25z"/><path fill="#fff" d="M42.47,25H40.5c-0.276,0-0.5-0.224-0.5-0.5s0.224-0.5,0.5-0.5h1.97c0.276,0,0.5,0.224,0.5,0.5 S42.746,25,42.47,25z"/><path fill="#fff" d="M51.5,21h-5c-0.276,0-0.5-0.224-0.5-0.5s0.224-0.5,0.5-0.5h5c0.276,0,0.5,0.224,0.5,0.5 S51.777,21,51.5,21z"/><path fill="#fff" d="M48.5,27h-2c-0.276,0-0.5-0.224-0.5-0.5s0.224-0.5,0.5-0.5h2c0.276,0,0.5,0.224,0.5,0.5 S48.776,27,48.5,27z"/></g><g><path fill="#85cfcc" d="M73.525,72H33.475C30.451,72,28,69.549,28,66.525V37.475C28,34.451,30.451,32,33.475,32h40.049 C76.549,32,79,34.451,79,37.475v29.049C79,69.549,76.549,72,73.525,72z"/><path fill="#472b29" d="M62,68H35c-1.654,0-3-1.346-3-3V39c0-1.654,1.346-3,3-3h2.667c0.276,0,0.5,0.224,0.5,0.5 s-0.224,0.5-0.5,0.5H35c-1.103,0-2,0.897-2,2v26c0,1.103,0.897,2,2,2h27c0.276,0,0.5,0.224,0.5,0.5S62.276,68,62,68z"/><path fill="#472b29" d="M72,68h-6.5c-0.276,0-0.5-0.224-0.5-0.5s0.224-0.5,0.5-0.5H72c1.103,0,2-0.897,2-2V39 c0-1.103-0.897-2-2-2H55.417c-0.276,0-0.5-0.224-0.5-0.5s0.224-0.5,0.5-0.5H72c1.654,0,3,1.346,3,3v26C75,66.654,73.654,68,72,68z"/><path fill="#472b29" d="M51.583,37H41.25c-0.276,0-0.5-0.224-0.5-0.5s0.224-0.5,0.5-0.5h10.333c0.276,0,0.5,0.224,0.5,0.5 S51.859,37,51.583,37z"/><path fill="#472b29" d="M73.525,33.4c2.247,0,4.075,1.829,4.075,4.076v29.049c0,2.247-1.828,4.076-4.075,4.076H33.475 c-2.247,0-4.075-1.829-4.075-4.076V37.476c0-2.247,1.828-4.076,4.075-4.076H73.525 M73.525,32H33.475 C30.451,32,28,34.451,28,37.476v29.049C28,69.549,30.451,72,33.475,72h40.049C76.549,72,79,69.549,79,66.524V37.476 C79,34.451,76.549,32,73.525,32L73.525,32z"/><path fill="#472b29" d="M38.172,59.632c0-0.09,0.007-0.158,0.022-0.203l4.479-14.618C42.865,44.271,43.399,44,44.277,44 c0.894,0,1.435,0.252,1.628,0.756l4.466,14.616c0.029,0.095,0.044,0.165,0.044,0.213c0,0.283-0.174,0.528-0.525,0.732 c-0.351,0.205-0.723,0.307-1.116,0.307c-0.474,0-0.769-0.163-0.883-0.491l-0.934-3.231h-5.543l-0.923,3.222 c-0.105,0.333-0.384,0.499-0.833,0.499c-0.36,0-0.697-0.097-1.013-0.293C38.33,60.135,38.172,59.903,38.172,59.632z M41.955,55.007h4.477l-2.261-7.741L41.955,55.007z"/><path fill="#472b29" d="M52.014,59.834V44.902c0-0.21,0.086-0.391,0.259-0.541c0.173-0.15,0.395-0.226,0.666-0.226h4.398 c1.503,0,2.702,0.399,3.598,1.195c0.894,0.797,1.342,2.052,1.342,3.767v0.18c0,1.714-0.463,2.974-1.388,3.778 c-0.923,0.805-2.153,1.207-3.688,1.207h-2.796v5.571c0,0.241-0.117,0.432-0.351,0.575c-0.233,0.143-0.516,0.214-0.846,0.214 c-0.316,0-0.593-0.071-0.833-0.214C52.133,60.266,52.014,60.074,52.014,59.834z M54.405,52.368h2.796 c0.857,0,1.52-0.244,1.986-0.733c0.464-0.488,0.699-1.222,0.699-2.199v-0.271c0-0.977-0.235-1.706-0.699-2.188 c-0.466-0.481-1.129-0.722-1.986-0.722h-2.796V52.368z"/><path fill="#472b29" d="M64.306,59.834V44.902c0-0.255,0.116-0.447,0.349-0.575c0.233-0.128,0.516-0.192,0.846-0.192 c0.33,0,0.613,0.064,0.846,0.192c0.233,0.128,0.351,0.32,0.351,0.575v14.931c0,0.241-0.117,0.432-0.351,0.575 c-0.233,0.143-0.516,0.214-0.846,0.214c-0.316,0-0.593-0.071-0.833-0.214C64.425,60.266,64.306,60.074,64.306,59.834z"/></g><g><path fill="#fdfcef" d="M16.5,64.5c0,0-1.567,0-3.5,0S9.5,62.933,9.5,61c0-1.781,1.335-3.234,3.055-3.455 C12.527,57.366,12.5,57.187,12.5,57c0-1.933,1.567-3.5,3.5-3.5c1.032,0,1.95,0.455,2.59,1.165c0.384-1.808,1.987-3.165,3.91-3.165 c2.209,0,4,1.791,4,4c0,0.191-0.03,0.374-0.056,0.558C26.872,55.714,27.408,55.5,28,55.5c1.228,0,2.245,0.887,2.455,2.055 C30.634,57.527,30.813,57.5,31,57.5c1.933,0,3.5,1.567,3.5,3.5s-1.567,3.5-3.5,3.5s-7.5,0-7.5,0V65h-7V64.5z"/><path fill="#472b29" d="M14.75,60c0.138,0,0.25-0.112,0.25-0.25c0-1.223-0.995-2.218-2.218-2.218 c-0.034,0.009-0.737-0.001-1.244,0.136c-0.133,0.036-0.212,0.173-0.176,0.306c0.036,0.134,0.173,0.213,0.306,0.176 c0.444-0.12,1.1-0.12,1.113-0.118c0.948,0,1.719,0.771,1.719,1.718C14.5,59.888,14.612,60,14.75,60z"/><circle cx="21.5" cy="64.5" r=".5" fill="#472b29"/><path fill="#472b29" d="M13,65h3.5c0.276,0,0.5-0.224,0.5-0.5S16.776,64,16.5,64H13c-1.654,0-3-1.346-3-3 c0-1.496,1.125-2.768,2.618-2.959c0.134-0.018,0.255-0.088,0.336-0.196s0.115-0.244,0.094-0.377C13.025,57.314,13,57.16,13,57 c0-1.654,1.346-3,3-3c0.85,0,1.638,0.355,2.219,1c0.125,0.139,0.321,0.198,0.5,0.148c0.182-0.049,0.321-0.195,0.36-0.379 C19.42,53.165,20.859,52,22.5,52c1.93,0,3.5,1.57,3.5,3.5c0,0.143-0.021,0.28-0.041,0.418c-0.029,0.203,0.063,0.438,0.242,0.54 c0.179,0.102,0.396,0.118,0.556-0.01C27.122,56.155,27.551,56,28,56c0.966,0,1.792,0.691,1.963,1.644 c0.048,0.267,0.296,0.446,0.569,0.405C30.686,58.025,30.84,58,31,58c1.654,0,3,1.346,3,3s-1.346,3-3,3h-7.5 c-0.276,0-0.5,0.224-0.5,0.5s0.224,0.5,0.5,0.5H31c2.206,0,4-1.794,4-4s-1.794-4-4-4c-0.059,0-0.116,0.002-0.174,0.006 C30.412,55.82,29.289,55,28,55c-0.349,0-0.689,0.061-1.011,0.18C26.824,52.847,24.874,51,22.5,51 c-1.831,0-3.466,1.127-4.153,2.774C17.667,53.276,16.845,53,16,53c-2.206,0-4,1.794-4,4c0,0.048,0.001,0.095,0.004,0.142 C10.261,57.59,9,59.169,9,61C9,63.206,10.794,65,13,65z"/><path fill="#472b29" d="M18.5,64c0.159,0,0.841,0,1,0c0.276,0,0.5,0.224,0.5,0.5c0,0.276-0.224,0.5-0.5,0.5 c-0.159,0-0.841,0-1,0c-0.276,0-0.5-0.224-0.5-0.5C18,64.224,18.224,64,18.5,64z"/></g></svg>