<svg width="20" height="20" viewBox="0 0 20 20" fill="none" xmlns="http://www.w3.org/2000/svg">
<path d="M10 9.09961C10.4661 9.09961 10.8495 9.45426 10.8955 9.9082L10.9004 10V13.5498L10.8955 13.6416C10.8495 14.0955 10.4661 14.4502 10 14.4502C9.50294 14.4502 9.09961 14.0469 9.09961 13.5498V10L9.10449 9.9082C9.15047 9.45426 9.53393 9.09961 10 9.09961Z" fill="black" style="fill:black;fill-opacity:1;"/>
<path d="M10 5.7998C10.6627 5.7998 11.2002 6.33726 11.2002 7C11.2002 7.66272 10.6627 8.2002 10 8.2002C9.3373 8.20017 8.79983 7.6627 8.7998 7C8.7998 6.33727 9.33728 5.79983 10 5.7998Z" fill="black" style="fill:black;fill-opacity:1;"/>
<path fill-rule="evenodd" clip-rule="evenodd" d="M11.9004 2.625C12.8659 2.625 13.6431 2.62452 14.2705 2.67578C14.908 2.7279 15.4682 2.83757 15.9863 3.10156L16.2871 3.27051C16.9726 3.69087 17.5314 4.29324 17.8984 5.01367L17.9902 5.20996C18.1889 5.673 18.2786 6.1716 18.3242 6.72949C18.3755 7.35694 18.375 8.13414 18.375 9.09961V10.9004C18.375 11.8659 18.3755 12.6431 18.3242 13.2705C18.2786 13.8284 18.1889 14.327 17.9902 14.79L17.8984 14.9863C17.5314 15.7068 16.9726 16.3091 16.2871 16.7295L15.9863 16.8984C15.4682 17.1624 14.908 17.2721 14.2705 17.3242C13.6431 17.3755 12.8659 17.375 11.9004 17.375H8.09961C7.13414 17.375 6.35694 17.3755 5.72949 17.3242C5.09195 17.2721 4.53179 17.1624 4.01367 16.8984C3.29324 16.5314 2.69087 15.9726 2.27051 15.2871L2.10156 14.9863C1.83757 14.4682 1.7279 13.908 1.67578 13.2705C1.62452 12.6431 1.625 11.8659 1.625 10.9004V9.09961C1.625 8.13414 1.62452 7.35694 1.67578 6.72949C1.7279 6.09195 1.83757 5.53179 2.10156 5.01367C2.52101 4.19046 3.19046 3.52101 4.01367 3.10156C4.53179 2.83757 5.09195 2.7279 5.72949 2.67578C6.35694 2.62452 7.13414 2.625 8.09961 2.625H11.9004ZM8.09961 4.375C7.10529 4.375 6.41174 4.37583 5.87207 4.41992C5.34298 4.46318 5.03894 4.54382 4.80859 4.66113C4.31467 4.9128 3.9128 5.31467 3.66113 5.80859C3.54382 6.03894 3.46318 6.34298 3.41992 6.87207C3.37583 7.41174 3.375 8.10529 3.375 9.09961V10.9004C3.375 11.8947 3.37583 12.5883 3.41992 13.1279C3.46318 13.657 3.54382 13.9611 3.66113 14.1914C3.9128 14.6853 4.31467 15.0872 4.80859 15.3389C5.03894 15.4562 5.34298 15.5368 5.87207 15.5801C6.41174 15.6242 7.10529 15.625 8.09961 15.625H11.9004C12.8947 15.625 13.5883 15.6242 14.1279 15.5801C14.657 15.5368 14.9611 15.4562 15.1914 15.3389L15.3721 15.2373C15.7834 14.9851 16.1186 14.6237 16.3389 14.1914L16.4199 14.0029C16.4942 13.7954 16.5476 13.525 16.5801 13.1279C16.6242 12.5883 16.625 11.8947 16.625 10.9004V9.09961C16.625 8.10529 16.6242 7.41174 16.5801 6.87207C16.5476 6.47499 16.4942 6.20463 16.4199 5.99707L16.3389 5.80859C16.0872 5.31467 15.6853 4.9128 15.1914 4.66113C14.9611 4.54382 14.657 4.46318 14.1279 4.41992C13.5883 4.37583 12.8947 4.375 11.9004 4.375H8.09961Z" fill="black" style="fill:black;fill-opacity:1;"/>
</svg>
