<svg width="20" height="20" viewBox="0 0 20 20" fill="none" xmlns="http://www.w3.org/2000/svg">
<path d="M10 9.10461C10.4661 9.10461 10.8495 9.45926 10.8955 9.91321L10.9004 10.005V13.5548L10.8955 13.6466C10.8495 14.1006 10.4661 14.4552 10 14.4552C9.50294 14.4552 9.09961 14.0519 9.09961 13.5548V10.005L9.10449 9.91321C9.15047 9.45926 9.53393 9.10461 10 9.10461Z" fill="black" style="fill:black;fill-opacity:1;"/>
<path d="M10 5.80481C10.6627 5.80481 11.2002 6.34226 11.2002 7.005C11.2002 7.66772 10.6627 8.2052 10 8.2052C9.3373 8.20517 8.79983 7.66771 8.7998 7.005C8.7998 6.34228 9.33728 5.80484 10 5.80481Z" fill="black" style="fill:black;fill-opacity:1;"/>
<path fill-rule="evenodd" clip-rule="evenodd" d="M11.9004 2.13001C12.8659 2.13 13.6431 2.12952 14.2705 2.18079C14.908 2.23291 15.4682 2.34258 15.9863 2.60657L16.2871 2.77551C16.9726 3.19588 17.5314 3.79824 17.8984 4.51868L17.9902 4.71497C18.1889 5.178 18.2786 5.6766 18.3242 6.2345C18.3755 6.86194 18.375 7.63914 18.375 8.60461V11.4054C18.375 12.3709 18.3755 13.1481 18.3242 13.7755C18.2786 14.3334 18.1889 14.832 17.9902 15.295L17.8984 15.4913C17.5314 16.2118 16.9726 16.8141 16.2871 17.2345L15.9863 17.4034C15.4682 17.6674 14.908 17.7771 14.2705 17.8292C13.6431 17.8805 12.8659 17.88 11.9004 17.88H8.09961C7.13414 17.88 6.35694 17.8805 5.72949 17.8292C5.09195 17.7771 4.53179 17.6674 4.01367 17.4034C3.29324 17.0364 2.69087 16.4776 2.27051 15.7921L2.10156 15.4913C1.83757 14.9732 1.7279 14.4131 1.67578 13.7755C1.62452 13.1481 1.625 12.3709 1.625 11.4054V8.60461C1.625 7.63914 1.62452 6.86194 1.67578 6.2345C1.7279 5.59696 1.83757 5.0368 2.10156 4.51868C2.52101 3.69547 3.19046 3.02601 4.01367 2.60657C4.53179 2.34258 5.09195 2.23291 5.72949 2.18079C6.35694 2.12952 7.13414 2.13 8.09961 2.13001H11.9004ZM8.09961 3.88001C7.10529 3.88001 6.41174 3.88083 5.87207 3.92493C5.34298 3.96818 5.03894 4.04882 4.80859 4.16614C4.31467 4.41781 3.9128 4.81967 3.66113 5.3136C3.54382 5.54395 3.46318 5.84799 3.41992 6.37708C3.37583 6.91674 3.375 7.61029 3.375 8.60461V11.4054C3.375 12.3997 3.37583 13.0933 3.41992 13.6329C3.46318 14.162 3.54382 14.4661 3.66113 14.6964C3.9128 15.1903 4.31467 15.5922 4.80859 15.8439C5.03894 15.9612 5.34298 16.0418 5.87207 16.0851C6.41174 16.1292 7.10529 16.13 8.09961 16.13H11.9004C12.8947 16.13 13.5883 16.1292 14.1279 16.0851C14.657 16.0418 14.9611 15.9612 15.1914 15.8439L15.3721 15.7423C15.7834 15.4901 16.1186 15.1287 16.3389 14.6964L16.4199 14.5079C16.4942 14.3004 16.5476 14.03 16.5801 13.6329C16.6242 13.0933 16.625 12.3997 16.625 11.4054V8.60461C16.625 7.61029 16.6242 6.91674 16.5801 6.37708C16.5476 5.97999 16.4942 5.70964 16.4199 5.50208L16.3389 5.3136C16.0872 4.81967 15.6853 4.41781 15.1914 4.16614C14.9611 4.04882 14.657 3.96818 14.1279 3.92493C13.5883 3.88083 12.8947 3.88001 11.9004 3.88001H8.09961Z" fill="black" style="fill:black;fill-opacity:1;"/>
</svg>
