<svg width="20" height="20" viewBox="0 0 20 20" fill="none" xmlns="http://www.w3.org/2000/svg">
<path fill-rule="evenodd" clip-rule="evenodd" d="M16.4668 10.3691C16.8796 10.2441 17.3255 10.2653 17.7275 10.4316L17.8818 10.5059C18.0272 10.5854 18.1487 10.6806 18.2529 10.7715C18.3859 10.8875 18.5333 11.0362 18.6895 11.1924C18.8456 11.3485 18.9943 11.4959 19.1104 11.6289C19.2012 11.7331 19.2964 11.8547 19.376 12L19.4502 12.1543L19.5127 12.3281C19.6377 12.741 19.6167 13.1868 19.4502 13.5889L19.376 13.7432C19.2965 13.8883 19.2011 14.0092 19.1104 14.1133C18.9943 14.2463 18.8456 14.3946 18.6895 14.5508L16.7959 16.4453C16.644 16.5972 16.5207 16.7211 16.3965 16.8301L16.2715 16.9346C16.1998 16.9906 16.1247 17.0437 16.0488 17.0938L15.8154 17.2344C15.7202 17.2866 15.6225 17.333 15.5156 17.3789L15.1582 17.5244L14.1191 17.9404C13.8622 18.0432 13.6137 18.1427 13.4092 18.2041C13.2517 18.2514 12.971 18.3267 12.6611 18.2646L12.5273 18.2295C12.1657 18.11 11.8711 17.8467 11.7119 17.5059L11.6523 17.3555C11.5329 16.9938 11.6237 16.6527 11.6777 16.4727C11.7391 16.2681 11.8386 16.0196 11.9414 15.7627L12.3574 14.7236C12.4372 14.5242 12.5011 14.361 12.5723 14.2119L12.6475 14.0664C12.6913 13.9866 12.739 13.909 12.7891 13.833L12.9473 13.6104C13.0811 13.4393 13.2342 13.2882 13.4365 13.0859L15.3311 11.1924C15.4872 11.0362 15.6356 10.8875 15.7686 10.7715C15.9075 10.6503 16.0768 10.5212 16.293 10.4316L16.4668 10.3691ZM16.9707 12.0459C16.9608 12.0532 16.9447 12.0684 16.9189 12.0908C16.8414 12.1585 16.7414 12.2567 16.5684 12.4297L14.6748 14.3232C14.4443 14.5537 14.3795 14.6204 14.3262 14.6885L14.249 14.7959C14.2249 14.8325 14.2018 14.8698 14.1807 14.9082L14.1113 15.0547C14.082 15.1233 14.0433 15.221 13.9824 15.373L13.6328 16.249L14.5088 15.8994L14.8271 15.7705C14.8955 15.7414 14.9357 15.722 14.9736 15.7012L15.0859 15.6328C15.1225 15.6087 15.1588 15.5827 15.1934 15.5557L15.3145 15.4482C15.3684 15.3967 15.4432 15.3225 15.5586 15.207L17.4521 13.3135C17.6252 13.1404 17.7243 13.0405 17.792 12.9629C17.8144 12.9372 17.8277 12.9199 17.835 12.9102C17.8435 12.8843 17.8437 12.8568 17.835 12.8311C17.8275 12.8211 17.8138 12.8043 17.792 12.7793C17.7243 12.7017 17.6252 12.6027 17.4521 12.4297C17.2794 12.2569 17.1801 12.1585 17.1025 12.0908C17.0767 12.0682 17.0596 12.0532 17.0498 12.0459C17.0242 12.0374 16.9963 12.0374 16.9707 12.0459Z" fill="black" style="fill:black;fill-opacity:1;"/>
<path fill-rule="evenodd" clip-rule="evenodd" d="M13.5 2.625C14.1855 2.625 14.7522 2.62449 15.2129 2.66211C15.6839 2.70059 16.1209 2.7836 16.5322 2.99316L16.7646 3.12305C17.2933 3.4473 17.7237 3.91216 18.0068 4.46777L18.0801 4.62305C18.2369 4.98864 18.3042 5.37495 18.3379 5.78711C18.3755 6.24782 18.375 6.81454 18.375 7.5V9C18.375 9.48325 17.9832 9.875 17.5 9.875C17.0168 9.875 16.625 9.48325 16.625 9V7.875H3.375V12.5C3.375 13.2142 3.37581 13.6974 3.40625 14.0703C3.43585 14.4326 3.48895 14.6138 3.55176 14.7373L3.61523 14.8496C3.77136 15.1041 3.99521 15.312 4.2627 15.4482L4.36719 15.4932C4.48714 15.5362 4.65738 15.5715 4.92969 15.5938C5.30261 15.6242 5.78576 15.625 6.5 15.625H10C10.4832 15.625 10.875 16.0168 10.875 16.5C10.875 16.9832 10.4832 17.375 10 17.375H6.5C5.81454 17.375 5.24782 17.3755 4.78711 17.3379C4.37495 17.3042 3.98864 17.2369 3.62305 17.0801L3.46777 17.0068C2.91216 16.7237 2.4473 16.2933 2.12305 15.7646L1.99316 15.5322C1.7836 15.1209 1.70059 14.6839 1.66211 14.2129C1.62449 13.7522 1.625 13.1855 1.625 12.5V7.5C1.625 6.81454 1.62449 6.24782 1.66211 5.78711C1.70059 5.31612 1.7836 4.87907 1.99316 4.46777L2.12305 4.23535C2.4473 3.70671 2.91216 3.27629 3.46777 2.99316L3.62305 2.91992C3.98864 2.76311 4.37495 2.69578 4.78711 2.66211C5.24782 2.62449 5.81454 2.625 6.5 2.625H13.5ZM6.5 4.375C5.78576 4.375 5.30261 4.37581 4.92969 4.40625C4.65738 4.4285 4.48714 4.46384 4.36719 4.50684L4.2627 4.55176C3.99521 4.68805 3.77136 4.89591 3.61523 5.15039L3.55176 5.2627C3.48895 5.38616 3.43585 5.56739 3.40625 5.92969C3.4012 5.99155 3.39808 6.05651 3.39453 6.125H16.6055C16.6019 6.05651 16.5988 5.99155 16.5938 5.92969C16.5715 5.65738 16.5362 5.48714 16.4932 5.36719L16.4482 5.2627C16.312 4.99521 16.1041 4.77136 15.8496 4.61523L15.7373 4.55176C15.6138 4.48895 15.4326 4.43585 15.0703 4.40625C14.6974 4.37581 14.2142 4.375 13.5 4.375H6.5Z" fill="black" style="fill:black;fill-opacity:1;"/>
</svg>
