<svg width="512" height="512" viewBox="0 0 512 512" fill="none" xmlns="http://www.w3.org/2000/svg">
<g filter="url(#filter0_di_131_250)">
<path d="M17 183.4C17 125.155 17 96.0318 28.3353 73.785C38.3062 54.2161 54.2161 38.3062 73.785 28.3353C96.0318 17 125.155 17 183.4 17H328.6C386.845 17 415.968 17 438.215 28.3353C457.784 38.3062 473.694 54.2161 483.665 73.785C495 96.0318 495 125.155 495 183.4V328.6C495 386.845 495 415.968 483.665 438.215C473.694 457.784 457.784 473.694 438.215 483.665C415.968 495 386.845 495 328.6 495H183.4C125.155 495 96.0318 495 73.785 483.665C54.2161 473.694 38.3062 457.784 28.3353 438.215C17 415.968 17 386.845 17 328.6V183.4Z" fill="url(#paint0_linear_131_250)" style=""/>
<circle cx="103" cy="95" r="26" fill="url(#paint1_linear_131_250)" style=""/>
<circle cx="103" cy="95" r="24.5" stroke="black" stroke-opacity="0.14" style="stroke:black;stroke-opacity:0.14;" stroke-width="3"/>
<circle cx="179" cy="95" r="26" fill="url(#paint2_linear_131_250)" style=""/>
<circle cx="179" cy="95" r="24.5" stroke="black" stroke-opacity="0.14" style="stroke:black;stroke-opacity:0.14;" stroke-width="3"/>
<circle cx="255" cy="95" r="26" fill="url(#paint3_linear_131_250)" style=""/>
<circle cx="255" cy="95" r="24.5" stroke="black" stroke-opacity="0.14" style="stroke:black;stroke-opacity:0.14;" stroke-width="3"/>
</g>
<path d="M342 197C348.627 197 354 202.373 354 209V297C354 303.627 348.627 309 342 309C335.373 309 330 303.627 330 297V237.971L198.971 369H258C264.627 369 270 374.373 270 381C270 387.627 264.627 393 258 393H170C163.373 393 158 387.627 158 381V293C158 286.373 163.373 281 170 281C176.627 281 182 286.373 182 293V352.029L313.029 221H254C247.373 221 242 215.627 242 209C242 202.373 247.373 197 254 197H342Z" fill="white" fill-opacity="0.8" style="fill:white;fill-opacity:0.8;"/>
<rect x="300" y="300" width="212" height="212" rx="106" fill="#8B96A8" style="fill:#8B96A8;fill:color(display-p3 0.5463 0.5894 0.6588);fill-opacity:1;"/>
<path d="M400.542 468C398.999 468 397.694 467.565 396.626 466.695C395.597 465.864 394.885 464.678 394.49 463.135L391.405 450.082C390.258 449.687 389.13 449.271 388.023 448.836C386.915 448.401 385.867 447.946 384.878 447.472L373.487 454.473C372.182 455.264 370.837 455.6 369.453 455.481C368.108 455.363 366.901 454.769 365.833 453.701L358.239 446.107C357.171 445.039 356.558 443.793 356.4 442.369C356.281 440.945 356.657 439.601 357.527 438.335L364.469 427.003C363.994 425.974 363.539 424.926 363.104 423.858C362.669 422.79 362.293 421.722 361.977 420.655L348.806 417.51C347.263 417.154 346.077 416.462 345.246 415.433C344.415 414.366 344 413.06 344 411.518V400.779C344 399.276 344.415 398.01 345.246 396.982C346.077 395.914 347.263 395.202 348.806 394.846L361.858 391.701C362.214 390.475 362.61 389.328 363.045 388.26C363.52 387.192 363.955 386.184 364.35 385.234L357.409 373.724C356.578 372.419 356.202 371.094 356.281 369.749C356.4 368.404 357.013 367.198 358.121 366.13L365.833 358.477C366.901 357.409 368.088 356.796 369.393 356.637C370.699 356.479 372.004 356.796 373.309 357.587L384.819 364.706C385.808 364.192 386.856 363.717 387.964 363.282C389.111 362.808 390.258 362.373 391.405 361.977L394.49 348.865C394.885 347.362 395.597 346.175 396.626 345.305C397.694 344.435 398.999 344 400.542 344H411.458C413.001 344 414.286 344.435 415.315 345.305C416.383 346.175 417.095 347.362 417.451 348.865L420.536 362.096C421.762 362.491 422.909 362.907 423.977 363.342C425.085 363.777 426.113 364.251 427.062 364.766L438.691 357.587C439.957 356.796 441.222 356.499 442.488 356.697C443.793 356.894 445 357.488 446.107 358.477L453.879 366.13C454.987 367.198 455.58 368.404 455.659 369.749C455.738 371.094 455.382 372.419 454.591 373.724L447.59 385.234C447.986 386.184 448.401 387.192 448.836 388.26C449.311 389.328 449.746 390.475 450.142 391.701L463.194 394.846C464.697 395.202 465.864 395.914 466.695 396.982C467.565 398.01 468 399.276 468 400.779V411.518C468 413.06 467.565 414.366 466.695 415.433C465.864 416.462 464.697 417.154 463.194 417.51L450.023 420.655C449.667 421.722 449.271 422.79 448.836 423.858C448.441 424.926 447.986 425.974 447.472 427.003L454.473 438.335C455.343 439.601 455.699 440.945 455.541 442.369C455.422 443.793 454.829 445.039 453.761 446.107L446.107 453.701C445.039 454.769 443.813 455.363 442.429 455.481C441.084 455.6 439.779 455.264 438.513 454.473L427.062 447.472C426.073 447.946 425.025 448.401 423.918 448.836C422.81 449.271 421.683 449.687 420.536 450.082L417.451 463.135C417.095 464.678 416.383 465.864 415.315 466.695C414.286 467.565 413.001 468 411.458 468H400.542ZM406 426.944C409.837 426.944 413.337 426.014 416.501 424.155C419.666 422.256 422.197 419.725 424.096 416.561C425.994 413.357 426.944 409.837 426.944 406C426.944 402.163 425.994 398.663 424.096 395.499C422.197 392.295 419.666 389.763 416.501 387.904C413.337 386.006 409.837 385.056 406 385.056C402.124 385.056 398.604 386.006 395.439 387.904C392.275 389.763 389.744 392.295 387.845 395.499C385.986 398.663 385.056 402.163 385.056 406C385.056 409.837 385.986 413.357 387.845 416.561C389.744 419.725 392.275 422.256 395.439 424.155C398.604 426.014 402.124 426.944 406 426.944Z" fill="white" style="fill:white;fill-opacity:1;"/>
<defs>
<filter id="filter0_di_131_250" x="7" y="11" width="498" height="498" filterUnits="userSpaceOnUse" color-interpolation-filters="sRGB">
<feFlood flood-opacity="0" result="BackgroundImageFix"/>
<feColorMatrix in="SourceAlpha" type="matrix" values="0 0 0 0 0 0 0 0 0 0 0 0 0 0 0 0 0 0 127 0" result="hardAlpha"/>
<feOffset dy="4"/>
<feGaussianBlur stdDeviation="5"/>
<feComposite in2="hardAlpha" operator="out"/>
<feColorMatrix type="matrix" values="0 0 0 0 0 0 0 0 0 0 0 0 0 0 0 0 0 0 0.4 0"/>
<feBlend mode="normal" in2="BackgroundImageFix" result="effect1_dropShadow_131_250"/>
<feBlend mode="normal" in="SourceGraphic" in2="effect1_dropShadow_131_250" result="shape"/>
<feColorMatrix in="SourceAlpha" type="matrix" values="0 0 0 0 0 0 0 0 0 0 0 0 0 0 0 0 0 0 127 0" result="hardAlpha"/>
<feMorphology radius="20" operator="erode" in="SourceAlpha" result="effect2_innerShadow_131_250"/>
<feOffset/>
<feComposite in2="hardAlpha" operator="arithmetic" k2="-1" k3="1"/>
<feColorMatrix type="matrix" values="0 0 0 0 0 0 0 0 0 0 0 0 0 0 0 0 0 0 0.8 0"/>
<feBlend mode="normal" in2="shape" result="effect2_innerShadow_131_250"/>
</filter>
<linearGradient id="paint0_linear_131_250" x1="256" y1="132.5" x2="256" y2="495" gradientUnits="userSpaceOnUse">
<stop stop-color="#111111" style="stop-color:#111111;stop-color:color(display-p3 0.0667 0.0667 0.0667);stop-opacity:1;"/>
<stop offset="1" stop-color="#363636" style="stop-color:#363636;stop-color:color(display-p3 0.2132 0.2132 0.2132);stop-opacity:1;"/>
</linearGradient>
<linearGradient id="paint1_linear_131_250" x1="103" y1="69" x2="103" y2="121" gradientUnits="userSpaceOnUse">
<stop stop-color="#FF7C6A" style="stop-color:#FF7C6A;stop-color:color(display-p3 1.0000 0.4868 0.4168);stop-opacity:1;"/>
<stop offset="1" stop-color="#D44531" style="stop-color:#D44531;stop-color:color(display-p3 0.8323 0.2687 0.1918);stop-opacity:1;"/>
</linearGradient>
<linearGradient id="paint2_linear_131_250" x1="179" y1="69" x2="179" y2="121" gradientUnits="userSpaceOnUse">
<stop stop-color="#FFB648" style="stop-color:#FFB648;stop-color:color(display-p3 1.0000 0.7132 0.2829);stop-opacity:1;"/>
<stop offset="1" stop-color="#D08A20" style="stop-color:#D08A20;stop-color:color(display-p3 0.8164 0.5394 0.1240);stop-opacity:1;"/>
</linearGradient>
<linearGradient id="paint3_linear_131_250" x1="255" y1="69" x2="255" y2="121" gradientUnits="userSpaceOnUse">
<stop stop-color="#4BD96F" style="stop-color:#4BD96F;stop-color:color(display-p3 0.2932 0.8519 0.4338);stop-opacity:1;"/>
<stop offset="1" stop-color="#16BB3F" style="stop-color:#16BB3F;stop-color:color(display-p3 0.0861 0.7320 0.2487);stop-opacity:1;"/>
</linearGradient>
</defs>
</svg>
