<svg width="512" height="512" viewBox="0 0 512 512" fill="none" xmlns="http://www.w3.org/2000/svg">
<g clip-path="url(#clip0_131_250)">
<path d="M17 183.4C17 125.155 17 96.0318 28.3353 73.785C38.3062 54.2161 54.2161 38.3062 73.785 28.3353C96.0318 17 125.155 17 183.4 17H328.6C386.845 17 415.968 17 438.215 28.3353C457.784 38.3062 473.694 54.2161 483.665 73.785C495 96.0318 495 125.155 495 183.4V328.6C495 386.845 495 415.968 483.665 438.215C473.694 457.784 457.784 473.694 438.215 483.665C415.968 495 386.845 495 328.6 495H183.4C125.155 495 96.0318 495 73.785 483.665C54.2161 473.694 38.3062 457.784 28.3353 438.215C17 415.968 17 386.845 17 328.6V183.4Z" fill="url(#paint0_linear_131_250)" style=""/>
<circle cx="103" cy="95" r="26" fill="url(#paint1_linear_131_250)" style=""/>
<circle cx="103" cy="95" r="24.5" stroke="black" stroke-opacity="0.14" style="stroke:black;stroke-opacity:0.14;" stroke-width="3"/>
<circle cx="179" cy="95" r="26" fill="url(#paint2_linear_131_250)" style=""/>
<circle cx="179" cy="95" r="24.5" stroke="black" stroke-opacity="0.14" style="stroke:black;stroke-opacity:0.14;" stroke-width="3"/>
<circle cx="255" cy="95" r="26" fill="url(#paint3_linear_131_250)" style=""/>
<circle cx="255" cy="95" r="24.5" stroke="black" stroke-opacity="0.14" style="stroke:black;stroke-opacity:0.14;" stroke-width="3"/>
<path d="M183.4 27H328.6C357.887 27 379.252 27.0079 396.093 28.3838C412.294 29.7075 423.48 32.2502 432.781 36.7988L433.675 37.2451C451.086 46.1164 465.292 60.1895 474.328 77.498L474.755 78.3252C479.584 87.8038 482.25 99.1837 483.616 115.907C484.992 132.748 485 154.113 485 183.4V328.6C485 357.887 484.992 379.252 483.616 396.093C482.293 412.294 479.75 423.48 475.201 432.781L474.755 433.675C465.884 451.086 451.811 465.292 434.502 474.328L433.675 474.755C424.196 479.584 412.816 482.25 396.093 483.616C379.252 484.992 357.887 485 328.6 485H183.4C154.113 485 132.748 484.992 115.907 483.616C99.7059 482.293 88.5197 479.75 79.2188 475.201L78.3252 474.755C60.9144 465.884 46.7078 451.811 37.6719 434.502L37.2451 433.675C32.4156 424.196 29.7502 412.816 28.3838 396.093C27.0079 379.252 27 357.887 27 328.6V183.4C27 154.113 27.0079 132.748 28.3838 115.907C29.7502 99.1837 32.4156 87.8038 37.2451 78.3252C46.2572 60.638 60.638 46.2572 78.3252 37.2451C87.8038 32.4156 99.1837 29.7502 115.907 28.3838C132.748 27.0079 154.113 27 183.4 27Z" stroke="black" stroke-opacity="0.8" style="stroke:black;stroke-opacity:0.8;" stroke-width="20"/>
</g>
<path d="M342 197C348.627 197 354 202.373 354 209V297C354 303.627 348.627 309 342 309C335.373 309 330 303.627 330 297V237.971L198.971 369H258C264.627 369 270 374.373 270 381C270 387.627 264.627 393 258 393H170C163.373 393 158 387.627 158 381V293C158 286.373 163.373 281 170 281C176.627 281 182 286.373 182 293V352.029L313.029 221H254C247.373 221 242 215.627 242 209C242 202.373 247.373 197 254 197H342Z" fill="white" fill-opacity="0.8" style="fill:white;fill-opacity:0.8;"/>
<rect x="312" y="312" width="200" height="200" rx="100" fill="#8B96A8" style="fill:#8B96A8;fill:color(display-p3 0.5463 0.5894 0.6588);fill-opacity:1;"/>
<path d="M407.07 468C405.677 468 404.498 467.607 403.533 466.821C402.604 466.071 401.961 464.999 401.604 463.606L398.817 451.816C397.781 451.459 396.763 451.084 395.763 450.691C394.762 450.298 393.816 449.887 392.922 449.458L382.633 455.782C381.455 456.496 380.24 456.8 378.989 456.693C377.775 456.586 376.685 456.05 375.721 455.085L368.861 448.226C367.897 447.261 367.343 446.136 367.2 444.85C367.093 443.564 367.432 442.349 368.218 441.206L374.488 430.97C374.059 430.041 373.648 429.095 373.256 428.13C372.863 427.166 372.523 426.201 372.237 425.236L360.341 422.396C358.947 422.075 357.876 421.449 357.125 420.521C356.375 419.556 356 418.377 356 416.984V407.284C356 405.927 356.375 404.783 357.125 403.855C357.876 402.89 358.947 402.247 360.341 401.925L372.13 399.085C372.452 397.978 372.809 396.942 373.202 395.977C373.631 395.012 374.024 394.101 374.381 393.244L368.111 382.848C367.361 381.669 367.021 380.472 367.093 379.257C367.2 378.043 367.754 376.953 368.754 375.989L375.721 369.076C376.685 368.111 377.757 367.557 378.936 367.414C380.115 367.271 381.294 367.557 382.473 368.272L392.869 374.702C393.762 374.238 394.709 373.809 395.709 373.416C396.745 372.988 397.781 372.595 398.817 372.237L401.604 360.394C401.961 359.037 402.604 357.965 403.533 357.179C404.498 356.393 405.677 356 407.07 356H416.93C418.323 356 419.485 356.393 420.413 357.179C421.378 357.965 422.021 359.037 422.343 360.394L425.129 372.344C426.237 372.702 427.273 373.077 428.237 373.47C429.238 373.863 430.167 374.292 431.024 374.756L441.527 368.272C442.67 367.557 443.814 367.289 444.957 367.468C446.136 367.647 447.226 368.182 448.226 369.076L455.246 375.989C456.246 376.953 456.782 378.043 456.854 379.257C456.925 380.472 456.604 381.669 455.889 382.848L449.566 393.244C449.923 394.101 450.298 395.012 450.691 395.977C451.12 396.942 451.513 397.978 451.87 399.085L463.659 401.925C465.017 402.247 466.071 402.89 466.821 403.855C467.607 404.783 468 405.927 468 407.284V416.984C468 418.377 467.607 419.556 466.821 420.521C466.071 421.449 465.017 422.075 463.659 422.396L451.763 425.236C451.441 426.201 451.084 427.166 450.691 428.13C450.334 429.095 449.923 430.041 449.458 430.97L455.782 441.206C456.568 442.349 456.889 443.564 456.746 444.85C456.639 446.136 456.103 447.261 455.139 448.226L448.226 455.085C447.261 456.05 446.154 456.586 444.903 456.693C443.689 456.8 442.51 456.496 441.367 455.782L431.024 449.458C430.131 449.887 429.184 450.298 428.184 450.691C427.183 451.084 426.165 451.459 425.129 451.816L422.343 463.606C422.021 464.999 421.378 466.071 420.413 466.821C419.485 467.607 418.323 468 416.93 468H407.07ZM412 430.917C415.465 430.917 418.627 430.077 421.485 428.398C424.343 426.683 426.63 424.397 428.344 421.539C430.059 418.645 430.917 415.465 430.917 412C430.917 408.535 430.059 405.373 428.344 402.515C426.63 399.621 424.343 397.335 421.485 395.656C418.627 393.941 415.465 393.083 412 393.083C408.499 393.083 405.319 393.941 402.461 395.656C399.603 397.335 397.317 399.621 395.602 402.515C393.923 405.373 393.083 408.535 393.083 412C393.083 415.465 393.923 418.645 395.602 421.539C397.317 424.397 399.603 426.683 402.461 428.398C405.319 430.077 408.499 430.917 412 430.917Z" fill="white" style="fill:white;fill-opacity:1;"/>
<defs>
<linearGradient id="paint0_linear_131_250" x1="256" y1="132.5" x2="256" y2="495" gradientUnits="userSpaceOnUse">
<stop stop-color="#111111" style="stop-color:#111111;stop-color:color(display-p3 0.0667 0.0667 0.0667);stop-opacity:1;"/>
<stop offset="1" stop-color="#363636" style="stop-color:#363636;stop-color:color(display-p3 0.2132 0.2132 0.2132);stop-opacity:1;"/>
</linearGradient>
<linearGradient id="paint1_linear_131_250" x1="103" y1="69" x2="103" y2="121" gradientUnits="userSpaceOnUse">
<stop stop-color="#FF7C6A" style="stop-color:#FF7C6A;stop-color:color(display-p3 1.0000 0.4868 0.4168);stop-opacity:1;"/>
<stop offset="1" stop-color="#D44531" style="stop-color:#D44531;stop-color:color(display-p3 0.8323 0.2687 0.1918);stop-opacity:1;"/>
</linearGradient>
<linearGradient id="paint2_linear_131_250" x1="179" y1="69" x2="179" y2="121" gradientUnits="userSpaceOnUse">
<stop stop-color="#FFB648" style="stop-color:#FFB648;stop-color:color(display-p3 1.0000 0.7132 0.2829);stop-opacity:1;"/>
<stop offset="1" stop-color="#D08A20" style="stop-color:#D08A20;stop-color:color(display-p3 0.8164 0.5394 0.1240);stop-opacity:1;"/>
</linearGradient>
<linearGradient id="paint3_linear_131_250" x1="255" y1="69" x2="255" y2="121" gradientUnits="userSpaceOnUse">
<stop stop-color="#4BD96F" style="stop-color:#4BD96F;stop-color:color(display-p3 0.2932 0.8519 0.4338);stop-opacity:1;"/>
<stop offset="1" stop-color="#16BB3F" style="stop-color:#16BB3F;stop-color:color(display-p3 0.0861 0.7320 0.2487);stop-opacity:1;"/>
</linearGradient>
<clipPath id="clip0_131_250">
<path d="M17 183.4C17 125.155 17 96.0318 28.3353 73.785C38.3062 54.2161 54.2161 38.3062 73.785 28.3353C96.0318 17 125.155 17 183.4 17H328.6C386.845 17 415.968 17 438.215 28.3353C457.784 38.3062 473.694 54.2161 483.665 73.785C495 96.0318 495 125.155 495 183.4V328.6C495 386.845 495 415.968 483.665 438.215C473.694 457.784 457.784 473.694 438.215 483.665C415.968 495 386.845 495 328.6 495H183.4C125.155 495 96.0318 495 73.785 483.665C54.2161 473.694 38.3062 457.784 28.3353 438.215C17 415.968 17 386.845 17 328.6V183.4Z" fill="white" style="fill:white;fill-opacity:1;"/>
</clipPath>
</defs>
</svg>
