<svg width="20" height="20" viewBox="0 0 20 20" fill="none" xmlns="http://www.w3.org/2000/svg">
<path d="M14.5 5.25C14.9142 5.25 15.25 5.58579 15.25 6V10C15.25 10.4142 14.9142 10.75 14.5 10.75C14.0858 10.75 13.75 10.4142 13.75 10V7.71484L7.4248 13.25H9.5L9.57715 13.2539C9.95512 13.2925 10.25 13.6118 10.25 14C10.25 14.3882 9.95512 14.7075 9.57715 14.7461L9.5 14.75H5.5C5.08579 14.75 4.75 14.4142 4.75 14V10C4.75 9.58579 5.08579 9.25 5.5 9.25C5.91421 9.25 6.25 9.58579 6.25 10V12.2842L12.5752 6.75H10.5L10.4229 6.74609C10.0449 6.70747 9.75 6.38817 9.75 6C9.75 5.61183 10.0449 5.29253 10.4229 5.25391L10.5 5.25H14.5Z" fill="black" style="fill:black;fill-opacity:1;"/>
<path fill-rule="evenodd" clip-rule="evenodd" d="M11.9004 2.12988C12.8659 2.12988 13.6431 2.1294 14.2705 2.18066C14.908 2.23278 15.4682 2.34247 15.9863 2.60645L16.2871 2.77539C16.9726 3.19574 17.5314 3.79816 17.8984 4.51855L17.9902 4.71484C18.1889 5.17785 18.2786 5.67653 18.3242 6.23438C18.3755 6.86179 18.375 7.63908 18.375 8.60449V11.4053C18.375 12.3707 18.3755 13.148 18.3242 13.7754C18.2786 14.3332 18.1889 14.8319 17.9902 15.2949L17.8984 15.4912C17.5314 16.2116 16.9726 16.814 16.2871 17.2344L15.9863 17.4033C15.4682 17.6673 14.908 17.777 14.2705 17.8291C13.6431 17.8804 12.8659 17.8799 11.9004 17.8799H8.09961C7.13414 17.8799 6.35694 17.8804 5.72949 17.8291C5.09196 17.777 4.53179 17.6673 4.01367 17.4033C3.29326 17.0362 2.69087 16.4775 2.27051 15.792L2.10156 15.4912C1.83761 14.9731 1.7279 14.4129 1.67578 13.7754C1.62453 13.148 1.625 12.3707 1.625 11.4053V8.60449C1.625 7.63908 1.62452 6.86179 1.67578 6.23438C1.72791 5.59689 1.83759 5.03664 2.10156 4.51855C2.52101 3.69539 3.1905 3.02587 4.01367 2.60645C4.53178 2.34247 5.09197 2.23278 5.72949 2.18066C6.35693 2.1294 7.13414 2.12988 8.09961 2.12988H11.9004ZM8.09961 3.87988C7.10529 3.87988 6.41173 3.88071 5.87207 3.9248C5.34302 3.96806 5.03894 4.04871 4.80859 4.16602C4.3147 4.41767 3.9128 4.8196 3.66113 5.31348C3.54383 5.54381 3.46318 5.84794 3.41992 6.37695C3.37583 6.9166 3.375 7.61024 3.375 8.60449V11.4053C3.375 12.3995 3.37584 13.0932 3.41992 13.6328C3.46317 14.1618 3.54384 14.466 3.66113 14.6963C3.91279 15.1902 4.31469 15.5921 4.80859 15.8438C5.03894 15.9611 5.34299 16.0417 5.87207 16.085C6.41174 16.1291 7.10529 16.1299 8.09961 16.1299H11.9004C12.8947 16.1299 13.5883 16.1291 14.1279 16.085C14.657 16.0417 14.9611 15.9611 15.1914 15.8438L15.3721 15.7422C15.7833 15.49 16.1186 15.1285 16.3389 14.6963L16.4199 14.5078C16.4942 14.3003 16.5476 14.0298 16.5801 13.6328C16.6242 13.0932 16.625 12.3995 16.625 11.4053V8.60449C16.625 7.61024 16.6242 6.9166 16.5801 6.37695C16.5476 5.97994 16.4942 5.7095 16.4199 5.50195L16.3389 5.31348C16.0872 4.8196 15.6853 4.41767 15.1914 4.16602C14.9611 4.04871 14.657 3.96806 14.1279 3.9248C13.5883 3.88071 12.8947 3.87988 11.9004 3.87988H8.09961Z" fill="black" style="fill:black;fill-opacity:1;"/>
</svg>
