<svg width="20" height="20" viewBox="0 0 20 20" fill="none" xmlns="http://www.w3.org/2000/svg">
<path d="M12.9697 9.46973C13.2626 9.17683 13.7374 9.17683 14.0303 9.46973C14.3231 9.76262 14.3232 10.2374 14.0303 10.5303L12.8105 11.75H15.25C17.183 11.75 18.75 13.317 18.75 15.25C18.75 17.183 17.183 18.75 15.25 18.75H14.167C13.7528 18.75 13.417 18.4142 13.417 18C13.417 17.5858 13.7528 17.25 14.167 17.25H15.25C16.3546 17.25 17.25 16.3546 17.25 15.25C17.25 14.1454 16.3546 13.25 15.25 13.25H12.8105L14.0303 14.4697L14.082 14.5264C14.3223 14.8209 14.3049 15.2557 14.0303 15.5303C13.7557 15.8048 13.3209 15.8223 13.0264 15.582L12.9697 15.5303L10.4697 13.0303C10.3291 12.8896 10.25 12.6989 10.25 12.5C10.25 12.3011 10.3291 12.1104 10.4697 11.9697L12.9697 9.46973Z" fill="black" style="fill:black;fill-opacity:1;"/>
<path fill-rule="evenodd" clip-rule="evenodd" d="M13.5 2.625C14.1855 2.625 14.7522 2.62449 15.2129 2.66211C15.6839 2.70059 16.1209 2.7836 16.5322 2.99316L16.7646 3.12305C17.2933 3.4473 17.7237 3.91216 18.0068 4.46777L18.0801 4.62305C18.2369 4.98864 18.3042 5.37495 18.3379 5.78711C18.3755 6.24782 18.375 6.81454 18.375 7.5V9C18.375 9.48325 17.9832 9.875 17.5 9.875C17.0168 9.875 16.625 9.48325 16.625 9V7.875H3.375V12.5C3.375 13.2142 3.37581 13.6974 3.40625 14.0703C3.43585 14.4326 3.48895 14.6138 3.55176 14.7373L3.61523 14.8496C3.77136 15.1041 3.99521 15.312 4.2627 15.4482L4.36719 15.4932C4.48714 15.5362 4.65738 15.5715 4.92969 15.5938C5.30261 15.6242 5.78577 15.625 6.5 15.625H9.75C10.2332 15.625 10.625 16.0168 10.625 16.5C10.625 16.9832 10.2332 17.375 9.75 17.375H6.5C5.81454 17.375 5.24782 17.3755 4.78711 17.3379C4.37495 17.3042 3.98864 17.2369 3.62305 17.0801L3.46777 17.0068C2.91216 16.7237 2.4473 16.2933 2.12305 15.7646L1.99316 15.5322C1.7836 15.1209 1.70059 14.6839 1.66211 14.2129C1.62449 13.7522 1.625 13.1855 1.625 12.5V7.5C1.625 6.81454 1.62449 6.24782 1.66211 5.78711C1.70059 5.31612 1.7836 4.87907 1.99316 4.46777L2.12305 4.23535C2.4473 3.70671 2.91216 3.27629 3.46777 2.99316L3.62305 2.91992C3.98864 2.76311 4.37495 2.69578 4.78711 2.66211C5.24782 2.62449 5.81454 2.625 6.5 2.625H13.5ZM6.5 4.375C5.78577 4.375 5.30261 4.37581 4.92969 4.40625C4.65738 4.4285 4.48714 4.46384 4.36719 4.50684L4.2627 4.55176C3.99521 4.68805 3.77136 4.89591 3.61523 5.15039L3.55176 5.2627C3.48895 5.38616 3.43585 5.56739 3.40625 5.92969C3.4012 5.99155 3.39808 6.05651 3.39453 6.125H16.6055C16.6019 6.05651 16.5988 5.99155 16.5938 5.92969C16.5715 5.65738 16.5362 5.48714 16.4932 5.36719L16.4482 5.2627C16.312 4.99521 16.1041 4.77136 15.8496 4.61523L15.7373 4.55176C15.6138 4.48895 15.4326 4.43585 15.0703 4.40625C14.6974 4.37581 14.2142 4.375 13.5 4.375H6.5Z" fill="black" style="fill:black;fill-opacity:1;"/>
</svg>
