<svg width="20" height="20" viewBox="0 0 20 20" fill="none" xmlns="http://www.w3.org/2000/svg">
<path d="M0.789795 7.38281C1.09315 7.0462 1.59901 7.00043 1.95679 7.2627L2.02612 7.31934L6.56226 11.4072C6.76532 11.5902 6.86996 11.8558 6.84937 12.124L6.83276 12.2383L5.97241 16.292L9.56226 14.2217L9.66675 14.1709C9.9154 14.0685 10.2006 14.0852 10.4373 14.2217L14.9578 17.2227C15.3763 17.464 15.5202 17.9994 15.2791 18.418C15.0376 18.8364 14.5023 18.9805 14.0837 18.7393L9.99976 15.9902L5.14722 18.7891C4.84801 18.9615 4.47448 18.9423 4.19507 18.7393C3.91579 18.5362 3.78168 18.1874 3.85327 17.8496L5.01538 12.3682L0.854248 8.61914L0.790771 8.55566C0.493233 8.22705 0.486728 7.71929 0.789795 7.38281ZM9.99976 0.875C10.345 0.875024 10.6579 1.07827 10.7986 1.39355L13.0789 6.51074L18.6511 7.09863C18.9951 7.13497 19.285 7.37109 19.3914 7.7002C19.4976 8.02929 19.4009 8.39037 19.1433 8.62109L14.5085 12.7705L18.6189 16.8809L18.6785 16.9473C18.959 17.2909 18.9393 17.7987 18.6189 18.1191C18.2984 18.4395 17.7907 18.4593 17.447 18.1787L17.3806 18.1191L2.38062 3.11914L2.32104 3.05273C2.04065 2.7091 2.06034 2.20126 2.38062 1.88086C2.701 1.56047 3.20881 1.54088 3.55249 1.82129L3.6189 1.88086L7.32886 5.59082L9.20093 1.39355L9.26147 1.28125C9.42029 1.03101 9.69757 0.87509 9.99976 0.875ZM8.65405 6.91602L13.2693 11.5312L16.5066 8.63184L12.3943 8.19824C12.084 8.1654 11.8145 7.96947 11.6873 7.68457L9.99976 3.89844L8.65405 6.91602Z" fill="black" style="fill:black;fill-opacity:1;"/>
</svg>
