<?xml version="1.0" encoding="utf-8"?>
<!-- Generator: Adobe Illustrator 26.0.2, SVG Export Plug-In . SVG Version: 6.00 Build 0)  -->
<svg version="1.1" id="Layer_1" xmlns="http://www.w3.org/2000/svg" xmlns:xlink="http://www.w3.org/1999/xlink" x="0px" y="0px"
	 viewBox="0 0 128 128" style="enable-background:new 0 0 128 128;" xml:space="preserve">
<style type="text/css">
	.st0{fill:#3B82F7;}
	.st1{fill-opacity:0;}
	.st2{fill:#FFFFFF;fill-opacity:0.85;}
	.st3{fill:#FFFFFF;fill-opacity:0.2125;}
</style>
<circle class="st0" cx="64" cy="64" r="64"/>
<g>
	<rect x="21.3" y="35.2" class="st1" width="85.5" height="57.5"/>
	<path class="st2" d="M47.8,35.3c-14.6,0-26.5,16.7-26.5,37.2c0,9.7,2.6,20.3,5.7,20.3c2.4,0,4.4-3.2,4.6-6.5
		c-4.8-1.4-8.3-5.8-8.3-11.1c0-3.1,1.2-5.9,3.4-8.1C27.8,53,37,40.6,47.5,40.6c6.3,0,9.2,4.7,9.2,13.4L31.5,67.1
		c-3.7,1.9-5.3,4.9-5.3,8.1c0,4.7,3.9,8.6,8.6,8.6c2.3,0,3.8-0.6,7.1-2.3l12.6-6.9C60,71.5,62,67.8,62,60v-6.9
		C62,42.1,57.2,35.3,47.8,35.3z M34.5,80.6c-3,0-5.4-2.4-5.4-5.4c0-3,2.4-5.4,5.4-5.4c3,0,5.4,2.4,5.4,5.4
		C40,78.2,37.5,80.6,34.5,80.6z M34.5,78.5c1.8,0,3.3-1.5,3.3-3.3s-1.5-3.3-3.3-3.3c-1.8,0-3.3,1.5-3.3,3.3S32.7,78.5,34.5,78.5z
		 M80.2,35.3c-9.4,0-14.2,6.9-14.2,17.8V60c0,7.8,2,11.5,7.5,14.5l12.7,6.9c3.3,1.8,4.8,2.3,7.1,2.3c4.7,0,8.6-3.9,8.6-8.6
		c0-3.2-1.7-6.2-5.4-8.1L71.3,54c0-8.7,2.9-13.4,9.2-13.4c10.5,0,19.7,12.4,20.8,26.6c2.2,2.2,3.4,5,3.4,8.1c0,5.2-3.6,9.7-8.3,11.1
		c0.2,3.2,2.2,6.5,4.7,6.5c3.1,0,5.7-10.7,5.7-20.3C106.7,52,94.8,35.3,80.2,35.3z M93.5,80.6c-3,0-5.4-2.4-5.4-5.4
		c0-3,2.4-5.4,5.4-5.4c3,0,5.4,2.4,5.4,5.4C98.9,78.2,96.5,80.6,93.5,80.6z M93.5,78.5c1.8,0,3.3-1.5,3.3-3.3s-1.5-3.3-3.3-3.3
		c-1.8,0-3.3,1.5-3.3,3.3S91.6,78.5,93.5,78.5z"/>
	<path class="st3" d="M34.5,80.6c-3,0-5.4-2.4-5.4-5.4c0-3,2.4-5.4,5.4-5.4c3,0,5.4,2.4,5.4,5.4C40,78.2,37.5,80.6,34.5,80.6z
		 M34.5,78.5c1.8,0,3.3-1.5,3.3-3.3s-1.5-3.3-3.3-3.3c-1.8,0-3.3,1.5-3.3,3.3S32.7,78.5,34.5,78.5z M93.5,80.6c-3,0-5.4-2.4-5.4-5.4
		c0-3,2.4-5.4,5.4-5.4c3,0,5.4,2.4,5.4,5.4C98.9,78.2,96.5,80.6,93.5,80.6z M93.5,78.5c1.8,0,3.3-1.5,3.3-3.3s-1.5-3.3-3.3-3.3
		c-1.8,0-3.3,1.5-3.3,3.3S91.6,78.5,93.5,78.5z"/>
</g>
</svg>
