<svg xmlns="http://www.w3.org/2000/svg" xml:space="preserve" viewBox="0 0 128 128">
  <circle cx="64" cy="64" r="64" fill="#3b82f7"/>
  <path fill="none" d="M25.5 44.3h76.9v35.3H25.5z"/>
  <path fill="#fff" fill-opacity=".85" d="M41.3 66.5c3 1.3 6.5-.2 7.8-3.2l4.4-9.9c1.3-3-.1-6.5-3.2-7.8-3-1.3-6.5.1-7.8 3.2l-4.3 9.9c-1.3 3 .1 6.5 3.1 7.8zm2.2-1.7c-2.1 0-3.7-1.6-3.7-3.7s1.6-3.7 3.7-3.7 3.7 1.6 3.7 3.7c0 2-1.6 3.7-3.7 3.7zm0-1.6c1.3 0 2.2-.9 2.2-2.2 0-1.2-.9-2.2-2.2-2.2-1.2 0-2.1 1-2.1 2.2 0 1.3.9 2.2 2.1 2.2zm18.6-3c-1.1-3.7-3.9-5.5-6.2-7.5-.1.5-.3 1-.5 1.6L51 64.2c-1.8 4-6.5 5.9-10.6 4.2-4-1.8-5.9-6.2-4.4-10.2-2 2.4-2.4 6-.9 10.1 2.7 7.5 9.6 9 16.3 6.3l4.1-1.6c5.6-2.1 8.2-7.3 6.6-12.8zm24.6 6.3c3-1.3 4.5-4.8 3.2-7.8l-4.3-9.9c-1.4-3.1-4.8-4.5-7.8-3.2-3 1.3-4.5 4.9-3.2 7.8l4.4 9.9c1.2 3 4.6 4.5 7.7 3.2zm-2.2-1.7c-2.1 0-3.7-1.6-3.7-3.7s1.6-3.7 3.7-3.7c2 0 3.7 1.6 3.7 3.7 0 2-1.7 3.7-3.7 3.7zm0-1.6c1.2 0 2.1-.9 2.1-2.2 0-1.2-.9-2.2-2.1-2.2-1.3 0-2.2 1-2.2 2.2 0 1.3.9 2.2 2.2 2.2zm-18.6-3c-1.6 5.5 1 10.7 6.6 12.9l4.1 1.6c6.8 2.6 13.6 1.2 16.3-6.3 1.5-4.1 1-7.7-.9-10.1 1.5 4-.4 8.4-4.4 10.2-4 1.7-8.7-.2-10.5-4.2l-4.4-9.9c-.2-.5-.4-1-.5-1.6-2.5 1.9-5.2 3.7-6.3 7.4z"/>
  <path fill="#fff" fill-opacity=".425" d="M33.2 69c-1-2.8-1.2-5.5-.7-8.1-4 1.1-7 4.8-7 9.2 0 5.3 4.2 9.6 9.5 9.6 2.4 0 4.6-.9 6.2-2.3-3.6-1.3-6.4-4.1-8-8.4zm61.6 0c-1.5 4.2-4.4 7.1-8 8.3 1.7 1.5 3.8 2.3 6.2 2.3 5.2 0 9.5-4.3 9.5-9.6 0-4.4-3-8.1-7-9.2.5 2.8.3 5.5-.7 8.2z"/>
  <path fill="#fff" fill-opacity=".212" d="M43.5 64.8c-2.1 0-3.7-1.6-3.7-3.7s1.6-3.7 3.7-3.7 3.7 1.6 3.7 3.7c0 2-1.6 3.7-3.7 3.7zm0-1.6c1.3 0 2.2-.9 2.2-2.2 0-1.2-.9-2.2-2.2-2.2-1.2 0-2.1 1-2.1 2.2 0 1.3.9 2.2 2.1 2.2zm41 1.6c-2.1 0-3.7-1.6-3.7-3.7s1.6-3.7 3.7-3.7c2 0 3.7 1.6 3.7 3.7 0 2-1.7 3.7-3.7 3.7zm0-1.6c1.2 0 2.1-.9 2.1-2.2 0-1.2-.9-2.2-2.1-2.2-1.3 0-2.2 1-2.2 2.2 0 1.3.9 2.2 2.2 2.2z"/>
</svg>
