<svg xmlns="http://www.w3.org/2000/svg" xml:space="preserve" viewBox="0 0 128 128">
  <circle cx="64" cy="64" r="64" fill="#3b82f7"/>
  <path fill="none" d="M46 30.9h36v66.2H46z"/>
  <path fill="#fff" fill-opacity=".85" d="M64 97.1c10.2 0 16.3-4.9 17.2-14.9 1.1-11.9 1.1-24-.1-36.9-.8-9.4-7-14.3-17.1-14.3-10.2 0-16.3 4.9-17.1 14.3-1.1 12.9-1.1 25-.1 36.9.9 9.9 7 14.9 17.2 14.9zm0-11.9c-.9 0-1.2.5-2 .5-.7 0-1.2-.7-1.8-1.5-.7-1-1.2-2.5-1.2-3.9 0-2.3 1.5-3.5 3-3.5.7 0 1.3.5 1.9.5.6 0 1.1-.5 2.1-.5.3 0 1.5 0 2.3 1.1-.2.1-1.3.8-1.3 2.3 0 1.7 1.5 2.3 1.5 2.3s-.2.8-.8 1.7c-.5.7-1 1.5-1.8 1.5s-1-.5-1.9-.5zm-.3-8.5c0-1.6 1.1-2.8 2.3-2.8.3 1.4-.9 2.9-2.3 2.8z"/>
</svg>
