<svg xmlns="http://www.w3.org/2000/svg" viewBox="0 0 512 512"><!--! Font Awesome Pro 6.2.0 by @fontawesome - https://fontawesome.com License - https://fontawesome.com/license (Commercial License) Copyright 2022 Fonticons, Inc. --><path d="M32 80C32 53.49 53.49 32 80 32H432C458.5 32 480 53.49 480 80V205.8C465.5 198.2 449.2 193.4 432 192.3L432 192V160C432 142.3 417.7 128 400 128H304C286.3 128 272 142.3 272 160V192H240V160C240 142.3 225.7 128 208 128H112C94.33 128 80 142.3 80 160V192L80 192.3C62.75 193.4 46.5 198.2 32 205.8V80zM424 224C472.6 224 512 263.4 512 312V456C512 469.3 501.3 480 488 480C474.7 480 464 469.3 464 456V416H48V456C48 469.3 37.25 480 24 480C10.75 480 0 469.3 0 456V312C0 263.4 39.4 224 88 224H424zM464 312C464 289.9 446.1 272 424 272H88C65.91 272 48 289.9 48 312V368H464V312z"/></svg>