<svg xmlns="http://www.w3.org/2000/svg" viewBox="0 0 640 512"><!--! Font Awesome Pro 6.2.0 by @fontawesome - https://fontawesome.com License - https://fontawesome.com/license (Commercial License) Copyright 2022 Fonticons, Inc. --><path d="M524 64H616C629.3 64 640 74.75 640 88C640 101.3 629.3 112 616 112H512C504.4 112 497.3 108.4 492.8 102.4L468.7 70.31L421.7 170.2C418 178.1 410.4 183.3 401.8 183.9C393.1 184.6 384.8 180.5 380 173.3L339.2 112H216C202.7 112 192 101.3 192 88C192 74.75 202.7 64 216 64H352C360 64 367.5 68.01 371.1 74.69L396.4 111.3L442.3 13.78C445.9 6.163 453.2 .9806 461.6 .1246C469.9-.7314 478.1 2.865 483.2 9.6L524 64zM288 216C288 188.7 307.5 165.1 333.4 161L353.4 191.1C358.1 198.1 364.2 203.8 371.2 208H344C339.6 208 336 211.6 336 216V368H592V280C592 240.2 559.8 208 520 208H428.8C438.2 202.4 445.9 194.1 450.7 183.8L461.9 160H520C586.3 160 640 213.7 640 280V496C640 509.3 629.3 520 616 520C602.7 520 592 509.3 592 496V416H48V488C48 501.3 37.25 512 24 512C10.75 512 0 501.3 0 488V88C0 74.75 10.75 64 24 64C37.25 64 48 74.75 48 88V368H288V216zM256 248C256 296.6 216.6 336 168 336C119.4 336 80 296.6 80 248C80 199.4 119.4 160 168 160C216.6 160 256 199.4 256 248zM168 208C145.9 208 128 225.9 128 248C128 270.1 145.9 288 168 288C190.1 288 208 270.1 208 248C208 225.9 190.1 208 168 208z"/></svg>