<svg xmlns="http://www.w3.org/2000/svg" viewBox="0 0 576 512"><!--! Font Awesome Pro 6.2.0 by @fontawesome - https://fontawesome.com License - https://fontawesome.com/license (Commercial License) Copyright 2022 Fonticons, Inc. --><path d="M167.1 .0003H279.1C302.1 .0003 320 17.91 320 40V96H336C357.4 96 376.3 110.2 382.2 130.8L400.4 194.8C384.4 197.7 369 202.8 354.8 209.8L336 144H111.1L47.1 368H255.1C255.1 384.6 258.3 400.7 262.6 416H47.1C32.94 416 18.75 408.9 9.679 396.9C.6086 384.9-2.291 369.3 1.847 354.8L65.85 130.8C71.73 110.2 90.57 96 112 96H128V40C128 17.91 145.9 0 168 0L167.1 .0003zM175.1 48V96H271.1V48H175.1zM159.1 448H275.2C278.3 454.1 281.8 459.1 285.5 465.6C277.9 492.4 253.2 512 223.1 512C188.7 512 159.1 483.3 159.1 448zM287.1 368C287.1 288.5 352.5 224 432 224C511.5 224 576 288.5 576 368C576 447.5 511.5 512 432 512C352.5 512 287.1 447.5 287.1 368zM448 303.1C448 295.2 440.8 287.1 432 287.1C423.2 287.1 416 295.2 416 303.1V351.1H368C359.2 351.1 352 359.2 352 367.1C352 376.8 359.2 383.1 368 383.1H416V431.1C416 440.8 423.2 447.1 432 447.1C440.8 447.1 448 440.8 448 431.1V383.1H496C504.8 383.1 512 376.8 512 367.1C512 359.2 504.8 351.1 496 351.1H448V303.1z"/></svg>