<svg xmlns="http://www.w3.org/2000/svg" viewBox="0 0 576 512"><!--! Font Awesome Pro 6.2.0 by @fontawesome - https://fontawesome.com License - https://fontawesome.com/license (Commercial License) Copyright 2022 Fonticons, Inc. --><path d="M448 160C448 168.8 440.8 176 432 176C423.2 176 416 168.8 416 160C416 151.2 423.2 144 432 144C440.8 144 448 151.2 448 160zM288 40C288 53.25 298.7 64 312 64H328C341.3 64 352 53.25 352 40V16C352 7.164 359.2 0 368 0C376.8 0 384 7.164 384 16V40C384 48.59 382.1 56.73 378.6 64H448C461.3 64 472 53.25 472 40V16C472 7.164 479.2 0 488 0C496.8 0 504 7.164 504 16V40C504 60.67 492.8 78.72 476.1 88.42L529.6 137C543.9 149.1 552 168.4 552 187.6C552 225.4 521.4 256 483.6 256H441.3L425.2 304.2C424.4 306.6 424 309.2 424 311.8V472C424 494.1 406.1 512 384 512H336C313.9 512 296 494.1 296 472V376H289.2C267.1 376 245.4 371.4 225.4 362.7C221.1 379.8 210.7 395.1 195.5 405.2L188.1 409.5L206.7 458.3C216.2 484.4 196.9 512 169.2 512H123.2C106.4 512 91.36 501.5 85.62 485.7L63.16 423.9C57.61 408.7 57.38 391.1 62.52 376.5L70.77 351.8C71.58 349.4 72 346.8 72 344.2V339.9C72 333.5 69.47 327.4 64.97 322.9L63.9 321.8C62.93 330.2 55.54 336.5 47 335.1C38.18 335.4 31.48 327.8 32.03 319L35.34 266C36.45 248.4 42.25 232.1 51.5 218.4C67.73 188.4 99.49 168 136 168H327L334.2 144H305.1C296 144 288 135.1 288 126C288 117.8 293.6 110.6 301.6 108.6L352 96H312C281.1 96 256 70.93 256 40V16C256 7.164 263.2 .0003 272 .0003C280.8 .0003 288 7.164 288 16L288 40zM418.1 112C403.7 112 391 121.4 386.9 135.2L367.9 198.9C364.8 209 355.5 216 344.9 216H136C109.5 216 88 237.5 88 264V268.1C88 274.5 90.53 280.6 95.03 285.1L98.91 288.1C112.4 302.5 120 320.8 120 339.9V344.2C120 351.9 118.8 359.6 116.3 366.1L108.1 391.7C106.3 396.9 106.4 402.4 108.3 407.5L128.8 464H157.7L137.4 408.2C133.7 397.8 137.5 386.2 146.7 380L168.9 365.2C176.7 360 180.8 350.6 179.2 341.3L176.3 323.9C174.8 314.5 178.9 305 186.1 299.8C195 294.7 205.4 294.7 213.3 300L227.1 309.2C245.4 321.5 267.1 328 289.2 328H320C333.3 328 344 338.7 344 352V464H376V311.8C376 304 377.2 296.4 379.7 289L401.2 224.4C404.5 214.6 413.7 207.1 424 207.1H483.6C494.9 207.1 504 198.9 504 187.6C504 181.9 501.6 176.4 497.3 172.6L440 120.5C434 115 426.2 111.1 418.1 111.1L418.1 112z"/></svg>