<svg xmlns="http://www.w3.org/2000/svg" viewBox="0 0 576 512"><!--! Font Awesome Pro 6.2.0 by @fontawesome - https://fontawesome.com License - https://fontawesome.com/license (Commercial License) Copyright 2022 Fonticons, Inc. --><path d="M384 160C384 151.2 391.2 144 400 144C408.8 144 416 151.2 416 160C416 168.8 408.8 176 400 176C391.2 176 384 168.8 384 160zM240 0C248.8 0 256 7.164 256 16V40C256 53.25 266.7 64 280 64H296C309.3 64 320 53.25 320 40V16C320 7.164 327.2 0 336 0C344.8 0 352 7.164 352 16V40C352 48.59 350.1 56.73 346.6 64H416C429.3 64 440 53.25 440 40V16C440 7.164 447.2 0 456 0C464.8 0 472 7.164 472 16V40C472 60.67 460.8 78.72 444.1 88.42L487.9 128.2C495.2 118.4 506.8 112 520 112C542.1 112 560 129.9 560 152C560 174.1 542.1 192 520 192L519.9 191.1C517.6 227.7 487.9 256 451.6 256H409.3L393.2 304.2C392.4 306.6 392 309.2 392 311.8V472C392 494.1 374.1 512 352 512H304C281.9 512 264 494.1 264 472V376H257.2C235.1 376 213.4 371.4 193.4 362.7C189.1 379.8 178.7 395.1 163.5 405.2L156.1 409.5L174.7 458.3C184.2 484.4 164.9 512 137.2 512H91.21C74.39 512 59.36 501.5 53.62 485.7L31.16 423.9C25.61 408.7 25.38 391.1 30.52 376.5L38.77 351.8C39.58 349.4 40 346.8 40 344.2V339.9C40 333.5 37.47 327.4 32.97 322.9L31.9 321.8C30.93 330.2 23.54 336.5 15 335.1C6.183 335.4-.5194 327.8 .0317 319L3.344 266C4.445 248.4 10.25 232.1 19.5 218.4C35.73 188.4 67.49 168 104 168H295L302.2 144H273.1C264 144 256 135.1 256 126C256 117.8 261.6 110.6 269.6 108.6L320 96H280C249.1 96 224 70.93 224 40V16C224 7.164 231.2 .0003 240 .0003V0zM335.9 198.9C332.8 209 323.5 216 312.9 216H104C77.49 216 56 237.5 56 264V268.1C56 274.5 58.53 280.6 63.03 285.1L66.91 288.1C80.42 302.5 88 320.8 88 339.9V344.2C88 351.9 86.75 359.6 84.31 366.1L76.06 391.7C74.35 396.9 74.42 402.4 76.27 407.5L96.81 464H125.7L105.4 408.2C101.7 397.8 105.5 386.2 114.7 380L136.9 365.2C144.7 360 148.8 350.6 147.2 341.3L144.3 323.9C142.8 314.5 146.9 305 154.1 299.8C163 294.7 173.4 294.7 181.3 300L195.1 309.2C213.4 321.5 235.1 328 257.2 328H288C301.3 328 312 338.7 312 352V464H344V311.8C344 304 345.2 296.4 347.7 289L369.2 224.4C372.5 214.6 381.7 207.1 392 207.1H451.6C462.9 207.1 472 198.9 472 187.6C472 181.9 469.6 176.4 465.3 172.6L408 120.5C402 115 394.2 111.1 386.1 111.1C371.7 111.1 359 121.4 354.9 135.2L335.9 198.9z"/></svg>