<svg xmlns="http://www.w3.org/2000/svg" viewBox="0 0 512 512"><!--! Font Awesome Pro 6.2.0 by @fontawesome - https://fontawesome.com License - https://fontawesome.com/license (Commercial License) Copyright 2022 Fonticons, Inc. --><path d="M104.3 325.2C92.83 329.3 80.26 328.9 69.09 324.1L51.91 316.8C67.29 382.6 126.2 432 196 432H312C356.2 432 392 396.2 392 352V339.2C392 317.5 383.4 297.8 369.1 283.2C354.1 268.8 351.4 247.1 360.1 228.9C364.9 218.8 371.4 210.3 378.5 203.4L412.1 237.6C408.5 241.1 405.5 245.2 403.4 249.6C426.1 272.8 440 304.5 440 339.2V352C440 422.7 382.7 480 312 480H196C87.75 480 0 390.1 0 282.7C0 268.1 11.89 255.1 26.55 255.1C30.15 255.1 33.7 256.7 37.01 258.1L88 279.1L234.5 227.3C224.4 214.7 216.8 200.1 212.4 184.2C209.5 173.1 208 163.2 208 152C208 85.73 261.7 32 328 32C394.3 32 448 85.73 448 152C448 185.5 434.3 215.8 412.1 237.6L378.5 203.4C391.8 190.2 400 172.1 400 152C400 112.2 367.8 80 328 80C288.2 80 256 112.2 256 152C256 169.1 261.9 184.8 271.9 197.1C281.6 209.2 284.9 225.3 280.7 240.2C276.5 255.2 265.4 267.2 250.8 272.4L104.3 325.2zM368 151.1C368 165.3 357.3 175.1 344 175.1C330.7 175.1 320 165.3 320 151.1C320 138.7 330.7 127.1 344 127.1C357.3 127.1 368 138.7 368 151.1zM243.1 400.3C209 408.8 174.5 399.5 150.3 378C140.4 369.2 139.5 354.1 148.3 344.2C157.1 334.2 172.3 333.4 182.2 342.2C194.6 353.2 212.9 358.4 231.5 353.7C254.2 348.1 269.6 329.7 272.2 309.7C273.1 296.6 286 287.4 299.2 289.1C312.3 290.9 321.6 302.9 319.8 316.1C314.5 355.9 284.6 389.9 243.1 400.3L243.1 400.3zM384 215.1L416 131.1L432.1 134C442.7 135.3 453.3 135.3 463.9 134L499.2 129.6C505.1 128.7 512 134 512 140.9C512 191.2 471.2 231.1 420.9 231.1H384V215.1z"/></svg>