<svg xmlns="http://www.w3.org/2000/svg" viewBox="0 0 384 512"><!--! Font Awesome Pro 6.2.0 by @fontawesome - https://fontawesome.com License - https://fontawesome.com/license (Commercial License) Copyright 2022 Fonticons, Inc. --><path d="M360 0C366.7 0 373.1 2.82 377.7 7.775C382.2 12.73 384.5 19.36 383.9 26.06L347.7 446.2C344.5 483.4 313.3 512 275.1 512H108C70.67 512 39.52 483.4 36.31 446.2L.0886 26.06C-.489 19.36 1.77 12.73 6.316 7.775C10.86 2.82 17.28 0 24 0L360 0zM326.9 128L333.8 48H50.16L57.06 128H326.9zM61.19 176L84.13 442.1C85.2 454.5 95.58 464 108 464H275.1C288.4 464 298.8 454.5 299.9 442.1L322.8 176H61.19z"/></svg>