<svg xmlns="http://www.w3.org/2000/svg" viewBox="0 0 448 512"><!--! Font Awesome Pro 6.2.0 by @fontawesome - https://fontawesome.com License - https://fontawesome.com/license (Commercial License) Copyright 2022 Fonticons, Inc. --><path d="M408 32C430.1 32 448 49.91 448 72V96C448 185.8 395.1 263.3 318.8 298.1L382.1 446.5C387.3 458.7 381.6 472.8 369.5 478.1C357.3 483.3 343.2 477.6 337.9 465.5L316.7 416H160C160 451.3 131.3 480 96 480C60.65 480 32 451.3 32 416C32 380.7 60.65 352 96 352C99.44 352 102.8 352.3 106.1 352.8L129.2 298.1C52.86 263.3 0 185.8 0 96V72C0 49.91 17.91 32 40 32L408 32zM48 80V96C48 193.2 126.8 272 224 272C321.2 272 400 193.2 400 96V80H48zM151.8 368H296.2L273.3 314.6C257.4 318.1 240.9 320 224 320C207.1 320 190.6 318.1 174.7 314.6L151.8 368zM96 392C82.75 392 72 402.7 72 416C72 429.3 82.75 440 96 440C109.3 440 120 429.3 120 416C120 402.7 109.3 392 96 392z"/></svg>