<svg xmlns="http://www.w3.org/2000/svg" viewBox="0 0 448 512"><!--! Font Awesome Pro 6.2.0 by @fontawesome - https://fontawesome.com License - https://fontawesome.com/license (Commercial License) Copyright 2022 Fonticons, Inc. --><path d="M119.1 0C133.3 0 143.1 10.75 143.1 24V26.59C143.1 31.94 146.7 36.94 151.1 39.91L163.5 48.16C181.3 60.03 191.1 80.01 191.1 101.4V104C191.1 117.3 181.3 128 167.1 128C154.7 128 143.1 117.3 143.1 104V101.4C143.1 96.06 141.3 91.06 136.9 88.09L124.5 79.84C106.7 67.97 95.1 47.99 95.1 26.59V24C95.1 10.75 106.7 .0003 119.1 .0003V0zM416 160C433.7 160 448 174.3 448 192C448 270.1 401.4 337.3 334.4 367.3L382.1 478.5C387.3 490.7 381.6 504.8 369.5 510.1C357.3 515.3 343.2 509.6 337.9 497.5L327 472H155.3C145.9 495.5 122.9 512 95.1 512C60.65 512 31.1 483.3 31.1 448C31.1 412.7 60.65 384 95.1 384C99.44 384 102.8 384.3 106.1 384.8L113.6 367.3C46.65 337.3 0 270.1 0 192C0 174.3 14.33 160 32 160H416zM48.88 208C56.84 279.1 117.9 336 191.1 336H256C330.1 336 391.2 279.1 399.1 208H48.88zM147.5 410C150.7 414.3 153.3 418.1 155.3 424H306.5L288.2 381.3C277.7 383.1 266.1 384 256 384H191.1C181 384 170.3 383.1 159.8 381.3L147.5 410zM95.1 424C82.74 424 71.1 434.7 71.1 448C71.1 461.3 82.74 472 95.1 472C109.3 472 119.1 461.3 119.1 448C119.1 434.7 109.3 424 95.1 424zM256 26.59C256 31.94 258.7 36.94 263.1 39.91L275.5 48.16C293.3 60.03 304 80.01 304 101.4V104C304 117.3 293.3 128 280 128C266.7 128 256 117.3 256 104V101.4C256 96.06 253.3 91.06 248.9 88.09L236.5 79.84C218.7 67.97 207.1 47.99 207.1 26.59V24C207.1 10.75 218.7 .0003 232 .0003C245.3 .0003 256 10.75 256 24V26.59z"/></svg>