<svg xmlns="http://www.w3.org/2000/svg" viewBox="0 0 448 512"><!--! Font Awesome Pro 6.2.0 by @fontawesome - https://fontawesome.com License - https://fontawesome.com/license (Commercial License) Copyright 2022 Fonticons, Inc. --><path d="M144 264C144 277.3 133.3 288 120 288C106.7 288 96 277.3 96 264V152C96 138.7 106.7 128 120 128C133.3 128 144 138.7 144 152V264zM240 264C240 277.3 229.3 288 216 288C202.7 288 192 277.3 192 264V152C192 138.7 202.7 128 216 128C229.3 128 240 138.7 240 152V264zM0 96C0 60.65 28.65 32 64 32H384C419.3 32 448 60.65 448 96V416C448 451.3 419.3 480 384 480H64C28.65 480 0 451.3 0 416V96zM48 96V416C48 424.8 55.16 432 64 432H384C392.8 432 400 424.8 400 416V96C400 87.16 392.8 80 384 80H64C55.16 80 48 87.16 48 96z"/></svg>