<svg xmlns="http://www.w3.org/2000/svg" viewBox="0 0 640 512"><!--! Font Awesome Pro 6.2.0 by @fontawesome - https://fontawesome.com License - https://fontawesome.com/license (Commercial License) Copyright 2022 Fonticons, Inc. --><path d="M48 96V416C48 424.8 55.16 432 64 432H232.9C227 442.1 224 455.2 224 467.7C224 471.9 224.3 475.1 224.1 480H64C28.65 480 0 451.3 0 416V96C0 60.65 28.65 32 64 32H384C419.3 32 448 60.65 448 96V128C430.1 128 413.1 134.5 400 145.9V96C400 87.16 392.8 80 384 80H64C55.16 80 48 87.16 48 96zM144 264C144 277.3 133.3 288 120 288C106.7 288 96 277.3 96 264V152C96 138.7 106.7 128 120 128C133.3 128 144 138.7 144 152V264zM240 264C240 277.3 229.3 288 216 288C202.7 288 192 277.3 192 264V152C192 138.7 202.7 128 216 128C229.3 128 240 138.7 240 152V264zM261.8 445.8L412.2 180.9C419.5 167.1 433.2 160 448 160C462.8 160 476.5 167.1 483.8 180.9L634.2 445.8C638 452.5 640 460 640 467.7C640 492.2 620.2 512 595.7 512H300.3C275.8 512 256 492.2 256 467.7C256 460 257.1 452.5 261.8 445.8V445.8zM463.1 272C463.1 263.2 456.8 256 447.1 256C439.2 256 431.1 263.2 431.1 272V360C431.1 368.8 439.2 376 447.1 376C456.8 376 463.1 368.8 463.1 360V272zM448 456C461.3 456 472 445.3 472 432C472 418.7 461.3 408 448 408C434.7 408 424 418.7 424 432C424 445.3 434.7 456 448 456z"/></svg>