<svg xmlns="http://www.w3.org/2000/svg" viewBox="0 0 640 512"><!--! Font Awesome Pro 6.2.0 by @fontawesome - https://fontawesome.com License - https://fontawesome.com/license (Commercial License) Copyright 2022 Fonticons, Inc. --><path d="M287.1 255.1C287.1 273.7 273.7 287.1 255.1 287.1C238.3 287.1 223.1 273.7 223.1 255.1C223.1 238.3 238.3 223.1 255.1 223.1C273.7 223.1 287.1 238.3 287.1 255.1zM352 255.1C352 238.3 366.3 223.1 384 223.1C401.7 223.1 416 238.3 416 255.1C416 273.7 401.7 287.1 384 287.1C366.3 287.1 352 273.7 352 255.1zM52.04 54.48C49.55 61.95 48.67 69.86 49.45 77.7C52.3 106.3 76.33 128 105 128L168.4 127.1C186 108.4 211.6 95.1 239.1 95.1H400C428.4 95.1 453.1 108.4 471.6 127.1L534.1 128C563.7 128 587.7 106.3 590.6 77.7C591.3 69.86 590.5 61.95 587.1 54.48L576.8 21.06C574.4 13.71 577.5 5.651 584.4 1.946C591.2-1.759 599.7-.0479 604.5 6.006L611.9 15.33C630.1 38.04 640 66.44 640 95.47C640 166.1 582.8 223.1 512 223.1H496V287.1C496 333 465 370.8 423.3 381.2L397.7 466.4C389.6 493.5 364.6 512 336.4 512H303.6C275.4 512 250.4 493.5 242.3 466.4L216.7 381.2C174.1 370.8 144 333 144 287.1V223.1L128 224C57.21 224 0 166.1 0 95.47C0 66.44 9.875 38.04 28.05 15.33L35.51 6.006C40.35-.0482 48.84-1.759 55.65 1.946C62.46 5.651 65.63 13.71 63.18 21.06L52.04 54.48zM254.9 341.2L288.3 452.6C290.3 459.4 296.6 464 303.6 464H336.4C343.4 464 349.7 459.4 351.7 452.6L385.1 341.2L411.7 334.6C432.6 329.4 448 310.4 448 287.1V191.1C448 165.5 426.5 143.1 400 143.1H239.1C213.5 143.1 191.1 165.5 191.1 191.1V287.1C191.1 310.4 207.4 329.4 228.3 334.6L254.9 341.2z"/></svg>