<svg xmlns="http://www.w3.org/2000/svg" viewBox="0 0 576 512"><!--! Font Awesome Pro 6.2.0 by @fontawesome - https://fontawesome.com License - https://fontawesome.com/license (Commercial License) Copyright 2022 Fonticons, Inc. --><path d="M137.5 23.57C141.6 12.66 152.1 6.261 164.4 8.41L233.5 21.35C269.5 28.11 306.5 28.11 342.6 21.35L411.6 8.41C423 6.262 434.4 12.66 438.5 23.57L467.4 100.8C479.1 131.9 495.9 160.8 517.2 186.3L562.4 240.6C569.9 249.5 569.9 262.5 562.4 271.4L517.2 325.7C495.9 351.2 479.1 380.1 467.4 411.2L438.5 488.4C434.4 499.3 423 505.7 411.6 503.6L342.6 490.6C306.5 483.9 269.5 483.9 233.5 490.6L164.4 503.6C152.1 505.7 141.6 499.3 137.5 488.4L108.6 411.2C96.92 380.1 80.09 351.2 58.82 325.7L13.56 271.4C6.146 262.5 6.146 249.5 13.56 240.6L58.82 186.3C80.09 160.8 96.92 131.9 108.6 100.8L137.5 23.57zM164.5 88.29L153.5 117.6C139.1 153.8 120.4 187.4 95.7 217.1L83.24 231.1H133.1C156.5 204.4 174.8 172.8 186.8 138.6L189.3 131.6L164.5 88.29zM206.6 65.15L230.5 107.1C268.3 116.6 307.7 116.6 345.5 107.1L369.4 65.15L351.4 68.53C309.5 76.39 266.5 76.39 224.6 68.53L206.6 65.15zM411.5 88.29L386.7 131.6L389.2 138.6C401.2 172.8 419.5 204.4 442.9 231.1H492.8L480.3 217.1C455.6 187.4 436 153.8 422.5 117.6L411.5 88.29zM492.8 279.1H442.1C419.3 308.1 401.1 340.4 389.3 375.3L387.3 381.3L411.5 423.7L422.5 394.4C436 358.2 455.6 324.6 480.3 294.9L492.8 279.1zM369.4 446.8L347.3 408.1C309.4 396.4 268.1 395.3 230.5 404.9L206.6 446.8L224.6 443.5C266.5 435.6 309.5 435.6 351.4 443.5L369.4 446.8zM164.5 423.7L189.3 380.4L186.8 373.4C174.8 339.2 156.5 307.6 133.1 279.1H83.24L95.7 294.9C120.4 324.6 139.1 358.2 153.5 394.4L164.5 423.7zM193.2 279.1C203.3 294.1 212.1 310.7 219.7 327.1L246.6 279.1H193.2zM261.1 351.4C279.2 349.9 297.4 350.2 315.5 352.4L288 304.4L261.1 351.4zM356.6 327.7C364.2 311.1 373 295.2 383.1 279.1H329.4L356.6 327.7zM382.8 231.1C372.7 217 363.9 201.3 356.3 184.9L329.4 231.1H382.8zM314.7 160.1C296.9 162.6 279.1 162.6 261.3 160.1L288 207.6L314.7 160.1zM219.7 184.9C212.1 201.3 203.3 217 193.2 231.1H246.6L219.7 184.9z"/></svg>