<svg xmlns="http://www.w3.org/2000/svg" viewBox="0 0 640 512"><!--! Font Awesome Pro 6.2.0 by @fontawesome - https://fontawesome.com License - https://fontawesome.com/license (Commercial License) Copyright 2022 Fonticons, Inc. --><path d="M243.3 259.3C237.1 265.6 226.9 265.6 220.7 259.3L180.7 219.3C174.4 213.1 174.4 202.9 180.7 196.7C186.9 190.4 197.1 190.4 203.3 196.7L232 225.4L292.7 164.7C298.9 158.4 309.1 158.4 315.3 164.7C321.6 170.9 321.6 181.1 315.3 187.3L243.3 259.3zM16.85 487.4C14.95 479.4 16.16 470.9 20.49 463.6L20.52 463.6C24.36 456.6 27.87 449.4 31.06 442C63.63 366.5 63.1 269.6 63.1 192C63.1 85.96 106.1 0 159.1 0H492.1L492.2 .0941C493.4 .032 494.7 0 495.1 0C520.5 0 540.1 11.35 554 24.55C567.6 37.5 577.7 53.99 585.1 70.68C600 104.2 607.1 147.1 607.1 192C607.1 236.9 600 279.8 585.1 313.3C577.7 330 567.6 346.5 554 359.5C540.1 372.6 520.5 384 495.1 384C478.2 384 463 378 450.7 369.7C453.7 351.4 456.4 331.2 458.6 308.9C469.1 325.1 482 336 495.1 336C531.3 336 559.1 271.5 559.1 192C559.1 112.5 531.3 48 495.1 48C494.4 48 492.9 48.13 491.4 48.37C458.2 53.71 431.1 115.1 431.1 192C431.1 250.9 428.2 300.1 422.7 340.6L422.6 341.4C413.2 409.5 398.9 452.8 389.3 475.9C379.3 499.9 356.2 512 333.9 512H47.1C36.47 512 25.83 505.8 20.15 495.8C18.64 493.1 17.54 490.3 16.85 487.4L16.85 487.4zM159.7 48.03C159.6 48.06 159.3 48.13 158.8 48.32C157.9 48.71 156.1 49.64 153.6 51.73C148.5 56.11 141.7 64.33 135 77.7C121.7 104.5 111.1 144.8 111.1 191.1C111.1 234.3 111.9 285.4 106.1 336.1C101.2 378.5 91.97 423.1 73.84 464H333.9C336.6 464 339.2 463.2 341.1 462C342.9 460.1 344.1 459.6 344.1 457.5C357.7 427 383.1 345.2 383.1 191.1C383.1 147.1 391.1 104.2 406.9 70.68C410.3 62.97 414.3 55.3 418.1 47.1H159.1C159.1 47.1 159.9 48 159.7 48.03L159.7 48.03zM519.1 192C519.1 218.5 509.3 240 495.1 240C482.7 240 471.1 218.5 471.1 192C471.1 165.5 482.7 144 495.1 144C509.3 144 519.1 165.5 519.1 192z"/></svg>