<svg width="226" height="268" viewBox="0 0 226 268" fill="none" xmlns="http://www.w3.org/2000/svg">
<path d="M219.437 129.488C220.311 123.86 225.12 118.44 225.12 112.56C225.12 106.681 220.312 101.26 219.437 95.632C218.519 89.851 221.404 83.207 219.634 77.765C217.842 72.224 211.591 68.553 208.979 63.438C206.345 58.269 207.023 51.056 203.624 46.39C200.225 41.713 193.144 40.139 189.057 36.063C184.981 31.976 183.407 24.895 178.73 21.496C174.064 18.097 166.851 18.775 161.682 16.141C156.568 13.529 152.896 7.27799 147.355 5.48599C141.913 3.71599 135.269 6.60098 129.488 5.68298C123.86 4.80898 118.44 0 112.56 0C106.681 0 101.26 4.80798 95.632 5.68298C89.851 6.60098 83.207 3.71599 77.765 5.48599C72.224 7.27799 68.553 13.529 63.438 16.141C58.269 18.775 51.056 18.097 46.39 21.496C41.713 24.895 40.139 31.976 36.063 36.063C31.976 40.139 24.895 41.713 21.496 46.39C18.097 51.056 18.775 58.269 16.141 63.438C13.529 68.552 7.278 72.224 5.486 77.765C3.716 83.207 6.601 89.851 5.683 95.632C4.809 101.26 0 106.68 0 112.56C0 118.439 4.808 123.86 5.683 129.488C6.601 135.269 3.716 141.913 5.486 147.355C7.278 152.896 13.529 156.567 16.141 161.682C18.775 166.851 18.097 174.064 21.496 178.73C24.895 183.407 31.976 184.981 36.063 189.057C40.139 193.144 41.713 200.226 46.39 203.624C51.056 207.023 58.269 206.345 63.438 208.979C68.552 211.591 72.224 217.842 77.765 219.634C83.207 221.404 89.851 218.519 95.632 219.437C101.26 220.311 106.68 225.12 112.56 225.12C118.439 225.12 123.86 220.312 129.488 219.437C135.269 218.519 141.913 221.404 147.355 219.634C152.896 217.842 156.567 211.591 161.682 208.979C166.851 206.345 174.064 207.023 178.73 203.624C183.407 200.225 184.981 193.144 189.057 189.057C193.144 184.981 200.226 183.407 203.624 178.73C207.023 174.064 206.345 166.851 208.979 161.682C211.591 156.568 217.842 152.896 219.634 147.355C221.404 141.914 218.519 135.269 219.437 129.488ZM167.408 36.151L190.543 56.182L104.069 156.032L65.405 117.368L87.043 95.741L102.463 111.15L167.408 36.151ZM112.56 200.805C63.821 200.805 24.316 161.3 24.316 112.561C24.316 63.822 63.821 24.317 112.56 24.317C127.608 24.317 141.782 28.087 154.174 34.732L145.344 44.939C135.432 40.131 124.318 37.431 112.56 37.431C71.066 37.431 37.429 71.068 37.429 112.562C37.429 154.056 71.066 187.693 112.56 187.693C154.054 187.693 187.691 154.056 187.691 112.562C187.691 102.104 185.549 92.148 181.691 83.1L191.078 72.248C197.296 84.324 200.804 98.038 200.804 112.562C200.805 161.3 161.3 200.805 112.56 200.805Z" fill="#82CE51"/>
<rect x="56" y="243" width="37" height="20" rx="4" fill="#82CE51" fill-opacity="0.45"/>
<g filter="url(#filter0_d_48_39)">
<path d="M22.0568 257V248.273H25.0057C25.6903 248.273 26.25 248.396 26.6847 248.643C27.1222 248.888 27.446 249.219 27.6562 249.636C27.8665 250.054 27.9716 250.52 27.9716 251.034C27.9716 251.548 27.8665 252.016 27.6562 252.436C27.4489 252.857 27.1278 253.192 26.6932 253.442C26.2585 253.689 25.7017 253.812 25.0227 253.812H22.9091V252.875H24.9886C25.4574 252.875 25.8338 252.794 26.1179 252.632C26.402 252.47 26.608 252.251 26.7358 251.976C26.8665 251.697 26.9318 251.384 26.9318 251.034C26.9318 250.685 26.8665 250.372 26.7358 250.097C26.608 249.821 26.4006 249.605 26.1136 249.449C25.8267 249.29 25.446 249.21 24.9716 249.21H23.1136V257H22.0568ZM29.5376 257V250.455H30.5092V251.443H30.5774C30.6967 251.119 30.9126 250.857 31.2251 250.655C31.5376 250.453 31.8899 250.352 32.282 250.352C32.3558 250.352 32.4482 250.354 32.5589 250.357C32.6697 250.359 32.7536 250.364 32.8104 250.369V251.392C32.7763 251.384 32.6982 251.371 32.576 251.354C32.4567 251.334 32.3303 251.324 32.1967 251.324C31.8786 251.324 31.5945 251.391 31.3445 251.524C31.0973 251.655 30.9013 251.837 30.7564 252.07C30.6143 252.3 30.5433 252.562 30.5433 252.858V257H29.5376ZM36.5476 257.136C35.9169 257.136 35.3729 256.997 34.9155 256.719C34.4609 256.438 34.1101 256.045 33.8629 255.543C33.6186 255.037 33.4964 254.449 33.4964 253.778C33.4964 253.108 33.6186 252.517 33.8629 252.006C34.1101 251.491 34.4538 251.091 34.8942 250.804C35.3374 250.514 35.8544 250.369 36.4453 250.369C36.7862 250.369 37.1229 250.426 37.4553 250.54C37.7876 250.653 38.0902 250.838 38.3629 251.094C38.6357 251.347 38.853 251.682 39.0149 252.099C39.1768 252.517 39.2578 253.031 39.2578 253.642V254.068H34.2124V253.199H38.2351C38.2351 252.83 38.1612 252.5 38.0135 252.21C37.8686 251.92 37.6612 251.692 37.3913 251.524C37.1243 251.357 36.8089 251.273 36.4453 251.273C36.0447 251.273 35.6982 251.372 35.4055 251.571C35.1158 251.767 34.8928 252.023 34.7365 252.338C34.5803 252.653 34.5021 252.991 34.5021 253.352V253.932C34.5021 254.426 34.5874 254.845 34.7578 255.189C34.9311 255.53 35.1712 255.79 35.478 255.969C35.7848 256.145 36.1413 256.233 36.5476 256.233C36.8118 256.233 37.0504 256.196 37.2635 256.122C37.4794 256.045 37.6655 255.932 37.8217 255.781C37.978 255.628 38.0987 255.437 38.1839 255.21L39.1555 255.483C39.0533 255.812 38.8814 256.102 38.6399 256.352C38.3984 256.599 38.1001 256.793 37.745 256.932C37.3899 257.068 36.9908 257.136 36.5476 257.136ZM45.424 251.92L44.5206 252.176C44.4638 252.026 44.38 251.879 44.2692 251.737C44.1612 251.592 44.0135 251.473 43.826 251.379C43.6385 251.286 43.3984 251.239 43.1058 251.239C42.7053 251.239 42.3714 251.331 42.1044 251.516C41.8402 251.697 41.7081 251.929 41.7081 252.21C41.7081 252.46 41.799 252.658 41.9808 252.803C42.1626 252.947 42.4467 253.068 42.8331 253.165L43.8047 253.403C44.3899 253.545 44.826 253.763 45.1129 254.055C45.3999 254.345 45.5433 254.719 45.5433 255.176C45.5433 255.551 45.4354 255.886 45.2195 256.182C45.0064 256.477 44.7081 256.71 44.3246 256.881C43.9411 257.051 43.495 257.136 42.9865 257.136C42.3189 257.136 41.7663 256.991 41.3288 256.702C40.8913 256.412 40.6143 255.989 40.4979 255.432L41.4524 255.193C41.5433 255.545 41.7152 255.81 41.968 255.986C42.2237 256.162 42.5575 256.25 42.9695 256.25C43.4382 256.25 43.8104 256.151 44.0859 255.952C44.3643 255.75 44.5036 255.509 44.5036 255.227C44.5036 255 44.424 254.81 44.2649 254.656C44.1058 254.5 43.8615 254.384 43.532 254.307L42.4411 254.051C41.8416 253.909 41.4013 253.689 41.12 253.391C40.8416 253.089 40.7024 252.713 40.7024 252.261C40.7024 251.892 40.8061 251.565 41.0135 251.281C41.2237 250.997 41.5092 250.774 41.87 250.612C42.2337 250.45 42.6456 250.369 43.1058 250.369C43.7536 250.369 44.2621 250.511 44.6314 250.795C45.0036 251.08 45.2678 251.455 45.424 251.92ZM51.6935 251.92L50.7901 252.176C50.7333 252.026 50.6495 251.879 50.5387 251.737C50.4308 251.592 50.283 251.473 50.0955 251.379C49.908 251.286 49.668 251.239 49.3754 251.239C48.9748 251.239 48.641 251.331 48.3739 251.516C48.1097 251.697 47.9776 251.929 47.9776 252.21C47.9776 252.46 48.0685 252.658 48.2504 252.803C48.4322 252.947 48.7163 253.068 49.1026 253.165L50.0742 253.403C50.6594 253.545 51.0955 253.763 51.3825 254.055C51.6694 254.345 51.8129 254.719 51.8129 255.176C51.8129 255.551 51.7049 255.886 51.489 256.182C51.2759 256.477 50.9776 256.71 50.5941 256.881C50.2106 257.051 49.7646 257.136 49.256 257.136C48.5884 257.136 48.0359 256.991 47.5984 256.702C47.1609 256.412 46.8839 255.989 46.7674 255.432L47.7219 255.193C47.8129 255.545 47.9847 255.81 48.2376 255.986C48.4933 256.162 48.8271 256.25 49.239 256.25C49.7077 256.25 50.0799 256.151 50.3555 255.952C50.6339 255.75 50.7731 255.509 50.7731 255.227C50.7731 255 50.6935 254.81 50.5344 254.656C50.3754 254.5 50.131 254.384 49.8015 254.307L48.7106 254.051C48.1112 253.909 47.6708 253.689 47.3896 253.391C47.1112 253.089 46.9719 252.713 46.9719 252.261C46.9719 251.892 47.0756 251.565 47.283 251.281C47.4933 250.997 47.7788 250.774 48.1396 250.612C48.5032 250.45 48.9151 250.369 49.3754 250.369C50.0231 250.369 50.5316 250.511 50.9009 250.795C51.2731 251.08 51.5373 251.455 51.6935 251.92ZM60.2131 257V248.273H65.4801V249.21H61.2699V252.159H65.2074V253.097H61.2699V256.062H65.5483V257H60.2131ZM68.2543 253.062V257H67.2486V250.455H68.2202V251.477H68.3054C68.4588 251.145 68.6918 250.878 69.0043 250.676C69.3168 250.472 69.7202 250.369 70.2145 250.369C70.6577 250.369 71.0455 250.46 71.3778 250.642C71.7102 250.821 71.9688 251.094 72.1534 251.46C72.3381 251.824 72.4304 252.284 72.4304 252.841V257H71.4247V252.909C71.4247 252.395 71.2912 251.994 71.0241 251.707C70.7571 251.418 70.3906 251.273 69.9247 251.273C69.6037 251.273 69.3168 251.342 69.0639 251.482C68.8139 251.621 68.6165 251.824 68.4716 252.091C68.3267 252.358 68.2543 252.682 68.2543 253.062ZM77.1147 250.455V251.307H73.7227V250.455H77.1147ZM74.7113 248.886H75.717V255.125C75.717 255.409 75.7582 255.622 75.8406 255.764C75.9258 255.903 76.0337 255.997 76.1644 256.045C76.2979 256.091 76.4386 256.114 76.5863 256.114C76.6971 256.114 76.788 256.108 76.859 256.097C76.93 256.082 76.9869 256.071 77.0295 256.062L77.234 256.966C77.1658 256.991 77.0707 257.017 76.9485 257.043C76.8263 257.071 76.6715 257.085 76.484 257.085C76.1999 257.085 75.9215 257.024 75.6488 256.902C75.3789 256.78 75.1545 256.594 74.9755 256.344C74.7994 256.094 74.7113 255.778 74.7113 255.398V248.886ZM81.3015 257.136C80.6708 257.136 80.1268 256.997 79.6694 256.719C79.2148 256.438 78.864 256.045 78.6168 255.543C78.3725 255.037 78.2504 254.449 78.2504 253.778C78.2504 253.108 78.3725 252.517 78.6168 252.006C78.864 251.491 79.2077 251.091 79.6481 250.804C80.0913 250.514 80.6083 250.369 81.1992 250.369C81.5401 250.369 81.8768 250.426 82.2092 250.54C82.5415 250.653 82.8441 250.838 83.1168 251.094C83.3896 251.347 83.6069 251.682 83.7688 252.099C83.9308 252.517 84.0117 253.031 84.0117 253.642V254.068H78.9663V253.199H82.989C82.989 252.83 82.9151 252.5 82.7674 252.21C82.6225 251.92 82.4151 251.692 82.1452 251.524C81.8782 251.357 81.5629 251.273 81.1992 251.273C80.7987 251.273 80.4521 251.372 80.1594 251.571C79.8697 251.767 79.6467 252.023 79.4904 252.338C79.3342 252.653 79.256 252.991 79.256 253.352V253.932C79.256 254.426 79.3413 254.845 79.5117 255.189C79.685 255.53 79.9251 255.79 80.2319 255.969C80.5387 256.145 80.8952 256.233 81.3015 256.233C81.5657 256.233 81.8043 256.196 82.0174 256.122C82.2333 256.045 82.4194 255.932 82.5756 255.781C82.7319 255.628 82.8526 255.437 82.9379 255.21L83.9094 255.483C83.8072 255.812 83.6353 256.102 83.3938 256.352C83.1523 256.599 82.854 256.793 82.4989 256.932C82.1438 257.068 81.7447 257.136 81.3015 257.136ZM85.5415 257V250.455H86.5131V251.443H86.5813C86.7006 251.119 86.9165 250.857 87.229 250.655C87.5415 250.453 87.8938 250.352 88.2859 250.352C88.3597 250.352 88.4521 250.354 88.5629 250.357C88.6737 250.359 88.7575 250.364 88.8143 250.369V251.392C88.7802 251.384 88.7021 251.371 88.5799 251.354C88.4606 251.334 88.3342 251.324 88.2006 251.324C87.8825 251.324 87.5984 251.391 87.3484 251.524C87.1012 251.655 86.9052 251.837 86.7603 252.07C86.6183 252.3 86.5472 252.562 86.5472 252.858V257H85.5415ZM99.603 250.455V251.307H96.2109V250.455H99.603ZM97.1996 248.886H98.2053V255.125C98.2053 255.409 98.2464 255.622 98.3288 255.764C98.4141 255.903 98.522 255.997 98.6527 256.045C98.7862 256.091 98.9268 256.114 99.0746 256.114C99.1854 256.114 99.2763 256.108 99.3473 256.097C99.4183 256.082 99.4751 256.071 99.5178 256.062L99.7223 256.966C99.6541 256.991 99.5589 257.017 99.4368 257.043C99.3146 257.071 99.1598 257.085 98.9723 257.085C98.6882 257.085 98.4098 257.024 98.1371 256.902C97.8672 256.78 97.6428 256.594 97.4638 256.344C97.2876 256.094 97.1996 255.778 97.1996 255.398V248.886ZM103.705 257.136C103.114 257.136 102.595 256.996 102.149 256.714C101.706 256.433 101.359 256.04 101.109 255.534C100.862 255.028 100.739 254.437 100.739 253.761C100.739 253.08 100.862 252.484 101.109 251.976C101.359 251.467 101.706 251.072 102.149 250.791C102.595 250.51 103.114 250.369 103.705 250.369C104.295 250.369 104.813 250.51 105.256 250.791C105.702 251.072 106.048 251.467 106.295 251.976C106.545 252.484 106.67 253.08 106.67 253.761C106.67 254.437 106.545 255.028 106.295 255.534C106.048 256.04 105.702 256.433 105.256 256.714C104.813 256.996 104.295 257.136 103.705 257.136ZM103.705 256.233C104.153 256.233 104.523 256.118 104.812 255.888C105.102 255.658 105.317 255.355 105.456 254.98C105.595 254.605 105.665 254.199 105.665 253.761C105.665 253.324 105.595 252.916 105.456 252.538C105.317 252.161 105.102 251.855 104.812 251.622C104.523 251.389 104.153 251.273 103.705 251.273C103.256 251.273 102.886 251.389 102.597 251.622C102.307 251.855 102.092 252.161 101.953 252.538C101.814 252.916 101.744 253.324 101.744 253.761C101.744 254.199 101.814 254.605 101.953 254.98C102.092 255.355 102.307 255.658 102.597 255.888C102.886 256.118 103.256 256.233 103.705 256.233ZM114.24 257.136C113.626 257.136 113.098 256.991 112.654 256.702C112.211 256.412 111.87 256.013 111.632 255.504C111.393 254.996 111.274 254.415 111.274 253.761C111.274 253.097 111.396 252.51 111.64 252.001C111.887 251.49 112.231 251.091 112.672 250.804C113.115 250.514 113.632 250.369 114.223 250.369C114.683 250.369 115.098 250.455 115.467 250.625C115.836 250.795 116.139 251.034 116.375 251.341C116.61 251.648 116.757 252.006 116.814 252.415H115.808C115.731 252.116 115.561 251.852 115.297 251.622C115.035 251.389 114.683 251.273 114.24 251.273C113.848 251.273 113.504 251.375 113.208 251.58C112.916 251.781 112.687 252.067 112.522 252.436C112.36 252.803 112.279 253.233 112.279 253.727C112.279 254.233 112.359 254.673 112.518 255.048C112.68 255.423 112.907 255.714 113.2 255.922C113.495 256.129 113.842 256.233 114.24 256.233C114.501 256.233 114.738 256.188 114.951 256.097C115.164 256.006 115.345 255.875 115.493 255.705C115.64 255.534 115.745 255.33 115.808 255.091H116.814C116.757 255.477 116.616 255.825 116.392 256.135C116.17 256.442 115.876 256.686 115.51 256.868C115.146 257.047 114.723 257.136 114.24 257.136ZM119.289 253.062V257H118.284V248.273H119.289V251.477H119.375C119.528 251.139 119.758 250.871 120.065 250.672C120.375 250.47 120.787 250.369 121.301 250.369C121.747 250.369 122.137 250.459 122.473 250.638C122.808 250.814 123.068 251.085 123.252 251.452C123.44 251.815 123.534 252.278 123.534 252.841V257H122.528V252.909C122.528 252.389 122.393 251.987 122.123 251.703C121.856 251.416 121.485 251.273 121.011 251.273C120.681 251.273 120.386 251.342 120.125 251.482C119.866 251.621 119.662 251.824 119.511 252.091C119.363 252.358 119.289 252.682 119.289 253.062ZM128.118 257.136C127.487 257.136 126.943 256.997 126.486 256.719C126.031 256.438 125.68 256.045 125.433 255.543C125.189 255.037 125.067 254.449 125.067 253.778C125.067 253.108 125.189 252.517 125.433 252.006C125.68 251.491 126.024 251.091 126.464 250.804C126.908 250.514 127.425 250.369 128.016 250.369C128.357 250.369 128.693 250.426 129.026 250.54C129.358 250.653 129.661 250.838 129.933 251.094C130.206 251.347 130.423 251.682 130.585 252.099C130.747 252.517 130.828 253.031 130.828 253.642V254.068H125.783V253.199H129.805C129.805 252.83 129.732 252.5 129.584 252.21C129.439 251.92 129.232 251.692 128.962 251.524C128.695 251.357 128.379 251.273 128.016 251.273C127.615 251.273 127.268 251.372 126.976 251.571C126.686 251.767 126.463 252.023 126.307 252.338C126.151 252.653 126.072 252.991 126.072 253.352V253.932C126.072 254.426 126.158 254.845 126.328 255.189C126.501 255.53 126.741 255.79 127.048 255.969C127.355 256.145 127.712 256.233 128.118 256.233C128.382 256.233 128.621 256.196 128.834 256.122C129.05 256.045 129.236 255.932 129.392 255.781C129.548 255.628 129.669 255.437 129.754 255.21L130.726 255.483C130.624 255.812 130.452 256.102 130.21 256.352C129.969 256.599 129.67 256.793 129.315 256.932C128.96 257.068 128.561 257.136 128.118 257.136ZM135.017 257.136C134.403 257.136 133.875 256.991 133.432 256.702C132.989 256.412 132.648 256.013 132.409 255.504C132.17 254.996 132.051 254.415 132.051 253.761C132.051 253.097 132.173 252.51 132.418 252.001C132.665 251.49 133.009 251.091 133.449 250.804C133.892 250.514 134.409 250.369 135 250.369C135.46 250.369 135.875 250.455 136.244 250.625C136.614 250.795 136.916 251.034 137.152 251.341C137.388 251.648 137.534 252.006 137.591 252.415H136.585C136.509 252.116 136.338 251.852 136.074 251.622C135.813 251.389 135.46 251.273 135.017 251.273C134.625 251.273 134.281 251.375 133.986 251.58C133.693 251.781 133.464 252.067 133.3 252.436C133.138 252.803 133.057 253.233 133.057 253.727C133.057 254.233 133.136 254.673 133.295 255.048C133.457 255.423 133.685 255.714 133.977 255.922C134.273 256.129 134.619 256.233 135.017 256.233C135.278 256.233 135.516 256.188 135.729 256.097C135.942 256.006 136.122 255.875 136.27 255.705C136.418 255.534 136.523 255.33 136.585 255.091H137.591C137.534 255.477 137.393 255.825 137.169 256.135C136.947 256.442 136.653 256.686 136.287 256.868C135.923 257.047 135.5 257.136 135.017 257.136ZM139.999 254.614L139.982 253.369H140.186L143.05 250.455H144.294L141.243 253.54H141.158L139.999 254.614ZM139.061 257V248.273H140.067V257H139.061ZM143.22 257L140.663 253.761L141.379 253.062L144.499 257H143.22ZM151.81 250.455V251.307H148.418V250.455H151.81ZM149.407 248.886H150.412V255.125C150.412 255.409 150.453 255.622 150.536 255.764C150.621 255.903 150.729 255.997 150.86 256.045C150.993 256.091 151.134 256.114 151.282 256.114C151.392 256.114 151.483 256.108 151.554 256.097C151.625 256.082 151.682 256.071 151.725 256.062L151.929 256.966C151.861 256.991 151.766 257.017 151.644 257.043C151.522 257.071 151.367 257.085 151.179 257.085C150.895 257.085 150.617 257.024 150.344 256.902C150.074 256.78 149.85 256.594 149.671 256.344C149.495 256.094 149.407 255.778 149.407 255.398V248.886ZM154.469 253.062V257H153.463V248.273H154.469V251.477H154.554C154.708 251.139 154.938 250.871 155.245 250.672C155.554 250.47 155.966 250.369 156.48 250.369C156.926 250.369 157.317 250.459 157.652 250.638C157.988 250.814 158.248 251.085 158.432 251.452C158.62 251.815 158.713 252.278 158.713 252.841V257H157.708V252.909C157.708 252.389 157.573 251.987 157.303 251.703C157.036 251.416 156.665 251.273 156.191 251.273C155.861 251.273 155.566 251.342 155.304 251.482C155.046 251.621 154.841 251.824 154.691 252.091C154.543 252.358 154.469 252.682 154.469 253.062ZM163.298 257.136C162.667 257.136 162.123 256.997 161.665 256.719C161.211 256.438 160.86 256.045 160.613 255.543C160.369 255.037 160.246 254.449 160.246 253.778C160.246 253.108 160.369 252.517 160.613 252.006C160.86 251.491 161.204 251.091 161.644 250.804C162.087 250.514 162.604 250.369 163.195 250.369C163.536 250.369 163.873 250.426 164.205 250.54C164.538 250.653 164.84 250.838 165.113 251.094C165.386 251.347 165.603 251.682 165.765 252.099C165.927 252.517 166.008 253.031 166.008 253.642V254.068H160.962V253.199H164.985C164.985 252.83 164.911 252.5 164.763 252.21C164.619 251.92 164.411 251.692 164.141 251.524C163.874 251.357 163.559 251.273 163.195 251.273C162.795 251.273 162.448 251.372 162.156 251.571C161.866 251.767 161.643 252.023 161.487 252.338C161.33 252.653 161.252 252.991 161.252 253.352V253.932C161.252 254.426 161.337 254.845 161.508 255.189C161.681 255.53 161.921 255.79 162.228 255.969C162.535 256.145 162.891 256.233 163.298 256.233C163.562 256.233 163.8 256.196 164.013 256.122C164.229 256.045 164.415 255.932 164.572 255.781C164.728 255.628 164.849 255.437 164.934 255.21L165.906 255.483C165.803 255.812 165.631 256.102 165.39 256.352C165.148 256.599 164.85 256.793 164.495 256.932C164.14 257.068 163.741 257.136 163.298 257.136ZM173.384 257.136C172.839 257.136 172.357 256.999 171.94 256.723C171.522 256.445 171.195 256.053 170.96 255.547C170.724 255.038 170.606 254.438 170.606 253.744C170.606 253.057 170.724 252.46 170.96 251.955C171.195 251.449 171.523 251.058 171.944 250.783C172.364 250.507 172.85 250.369 173.401 250.369C173.827 250.369 174.164 250.44 174.411 250.582C174.661 250.722 174.852 250.881 174.982 251.06C175.116 251.236 175.219 251.381 175.293 251.494H175.379V248.273H176.384V257H175.413V255.994H175.293C175.219 256.114 175.114 256.264 174.978 256.446C174.842 256.625 174.647 256.786 174.394 256.928C174.141 257.067 173.805 257.136 173.384 257.136ZM173.521 256.233C173.924 256.233 174.265 256.128 174.543 255.918C174.822 255.705 175.033 255.411 175.178 255.036C175.323 254.658 175.396 254.222 175.396 253.727C175.396 253.239 175.325 252.811 175.183 252.445C175.04 252.075 174.83 251.788 174.552 251.584C174.273 251.376 173.93 251.273 173.521 251.273C173.094 251.273 172.739 251.382 172.455 251.601C172.174 251.817 171.962 252.111 171.82 252.483C171.681 252.852 171.612 253.267 171.612 253.727C171.612 254.193 171.683 254.616 171.825 254.997C171.969 255.375 172.183 255.676 172.464 255.901C172.748 256.122 173.1 256.233 173.521 256.233ZM178.366 257V250.455H179.371V257H178.366ZM178.877 249.364C178.681 249.364 178.512 249.297 178.37 249.163C178.231 249.03 178.161 248.869 178.161 248.682C178.161 248.494 178.231 248.334 178.37 248.2C178.512 248.067 178.681 248 178.877 248C179.073 248 179.241 248.067 179.38 248.2C179.522 248.334 179.593 248.494 179.593 248.682C179.593 248.869 179.522 249.03 179.38 249.163C179.241 249.297 179.073 249.364 178.877 249.364ZM183.855 259.591C183.37 259.591 182.952 259.528 182.603 259.403C182.253 259.281 181.962 259.119 181.729 258.918C181.499 258.719 181.316 258.506 181.179 258.278L181.98 257.716C182.071 257.835 182.186 257.972 182.326 258.125C182.465 258.281 182.655 258.416 182.897 258.53C183.141 258.646 183.461 258.705 183.855 258.705C184.384 258.705 184.82 258.577 185.164 258.321C185.507 258.065 185.679 257.665 185.679 257.119V255.79H185.594C185.52 255.909 185.415 256.057 185.279 256.233C185.145 256.406 184.952 256.561 184.699 256.697C184.449 256.831 184.111 256.898 183.685 256.898C183.157 256.898 182.682 256.773 182.262 256.523C181.844 256.273 181.513 255.909 181.269 255.432C181.027 254.955 180.907 254.375 180.907 253.693C180.907 253.023 181.025 252.439 181.26 251.942C181.496 251.442 181.824 251.055 182.245 250.783C182.665 250.507 183.151 250.369 183.702 250.369C184.128 250.369 184.466 250.44 184.716 250.582C184.969 250.722 185.162 250.881 185.296 251.06C185.432 251.236 185.537 251.381 185.611 251.494H185.713V250.455H186.685V257.188C186.685 257.75 186.557 258.207 186.301 258.56C186.049 258.915 185.708 259.175 185.279 259.339C184.853 259.507 184.378 259.591 183.855 259.591ZM183.821 255.994C184.225 255.994 184.566 255.902 184.844 255.717C185.123 255.533 185.334 255.267 185.479 254.92C185.624 254.574 185.696 254.159 185.696 253.676C185.696 253.205 185.625 252.788 185.483 252.428C185.341 252.067 185.131 251.784 184.853 251.58C184.574 251.375 184.23 251.273 183.821 251.273C183.395 251.273 183.04 251.381 182.756 251.597C182.475 251.812 182.263 252.102 182.121 252.466C181.982 252.83 181.912 253.233 181.912 253.676C181.912 254.131 181.983 254.533 182.125 254.882C182.27 255.229 182.483 255.501 182.765 255.7C183.049 255.896 183.401 255.994 183.821 255.994ZM191.27 257.136C190.64 257.136 190.096 256.997 189.638 256.719C189.184 256.438 188.833 256.045 188.586 255.543C188.341 255.037 188.219 254.449 188.219 253.778C188.219 253.108 188.341 252.517 188.586 252.006C188.833 251.491 189.176 251.091 189.617 250.804C190.06 250.514 190.577 250.369 191.168 250.369C191.509 250.369 191.846 250.426 192.178 250.54C192.51 250.653 192.813 250.838 193.086 251.094C193.358 251.347 193.576 251.682 193.738 252.099C193.9 252.517 193.98 253.031 193.98 253.642V254.068H188.935V253.199H192.958C192.958 252.83 192.884 252.5 192.736 252.21C192.591 251.92 192.384 251.692 192.114 251.524C191.847 251.357 191.532 251.273 191.168 251.273C190.767 251.273 190.421 251.372 190.128 251.571C189.838 251.767 189.615 252.023 189.459 252.338C189.303 252.653 189.225 252.991 189.225 253.352V253.932C189.225 254.426 189.31 254.845 189.48 255.189C189.654 255.53 189.894 255.79 190.201 255.969C190.507 256.145 190.864 256.233 191.27 256.233C191.534 256.233 191.773 256.196 191.986 256.122C192.202 256.045 192.388 255.932 192.544 255.781C192.701 255.628 192.821 255.437 192.907 255.21L193.878 255.483C193.776 255.812 193.604 256.102 193.363 256.352C193.121 256.599 192.823 256.793 192.468 256.932C192.113 257.068 191.713 257.136 191.27 257.136ZM200.147 251.92L199.243 252.176C199.186 252.026 199.103 251.879 198.992 251.737C198.884 251.592 198.736 251.473 198.549 251.379C198.361 251.286 198.121 251.239 197.828 251.239C197.428 251.239 197.094 251.331 196.827 251.516C196.563 251.697 196.431 251.929 196.431 252.21C196.431 252.46 196.522 252.658 196.703 252.803C196.885 252.947 197.169 253.068 197.556 253.165L198.527 253.403C199.113 253.545 199.549 253.763 199.836 254.055C200.123 254.345 200.266 254.719 200.266 255.176C200.266 255.551 200.158 255.886 199.942 256.182C199.729 256.477 199.431 256.71 199.047 256.881C198.664 257.051 198.218 257.136 197.709 257.136C197.042 257.136 196.489 256.991 196.051 256.702C195.614 256.412 195.337 255.989 195.221 255.432L196.175 255.193C196.266 255.545 196.438 255.81 196.691 255.986C196.946 256.162 197.28 256.25 197.692 256.25C198.161 256.25 198.533 256.151 198.809 255.952C199.087 255.75 199.226 255.509 199.226 255.227C199.226 255 199.147 254.81 198.988 254.656C198.828 254.5 198.584 254.384 198.255 254.307L197.164 254.051C196.564 253.909 196.124 253.689 195.843 253.391C195.564 253.089 195.425 252.713 195.425 252.261C195.425 251.892 195.529 251.565 195.736 251.281C195.946 250.997 196.232 250.774 196.593 250.612C196.956 250.45 197.368 250.369 197.828 250.369C198.476 250.369 198.985 250.511 199.354 250.795C199.726 251.08 199.99 251.455 200.147 251.92ZM204.626 250.455V251.307H201.234V250.455H204.626ZM202.223 248.886H203.229V255.125C203.229 255.409 203.27 255.622 203.352 255.764C203.438 255.903 203.545 255.997 203.676 256.045C203.81 256.091 203.95 256.114 204.098 256.114C204.209 256.114 204.3 256.108 204.371 256.097C204.442 256.082 204.499 256.071 204.541 256.062L204.746 256.966C204.678 256.991 204.582 257.017 204.46 257.043C204.338 257.071 204.183 257.085 203.996 257.085C203.712 257.085 203.433 257.024 203.161 256.902C202.891 256.78 202.666 256.594 202.487 256.344C202.311 256.094 202.223 255.778 202.223 255.398V248.886Z" fill="white"/>
</g>
<defs>
<filter id="filter0_d_48_39" x="18.0568" y="248" width="190.689" height="19.5909" filterUnits="userSpaceOnUse" color-interpolation-filters="sRGB">
<feFlood flood-opacity="0" result="BackgroundImageFix"/>
<feColorMatrix in="SourceAlpha" type="matrix" values="0 0 0 0 0 0 0 0 0 0 0 0 0 0 0 0 0 0 127 0" result="hardAlpha"/>
<feOffset dy="4"/>
<feGaussianBlur stdDeviation="2"/>
<feComposite in2="hardAlpha" operator="out"/>
<feColorMatrix type="matrix" values="0 0 0 0 0 0 0 0 0 0 0 0 0 0 0 0 0 0 0.25 0"/>
<feBlend mode="normal" in2="BackgroundImageFix" result="effect1_dropShadow_48_39"/>
<feBlend mode="normal" in="SourceGraphic" in2="effect1_dropShadow_48_39" result="shape"/>
</filter>
</defs>
</svg>
