<?xml version="1.0" standalone="no"?><!DOCTYPE svg PUBLIC "-//W3C//DTD SVG 1.1//EN" "http://www.w3.org/Graphics/SVG/1.1/DTD/svg11.dtd"><svg t="1704698524614" class="icon" viewBox="0 0 1024 1024" version="1.1" xmlns="http://www.w3.org/2000/svg" p-id="6697" xmlns:xlink="http://www.w3.org/1999/xlink" width="200" height="200"><path d="M544.059897 959.266898h-64.949141c-228.633593 0-415.697442-187.063849-415.697442-415.697442v-64.949141c0-228.633593 187.063849-415.697442 415.697442-415.697442h64.949141c228.633593 0 415.697442 187.063849 415.697442 415.697442v64.949141C959.756315 772.203049 772.692466 959.266898 544.059897 959.266898z" fill="#FD9B00" p-id="6698"></path><path d="M638.254276 718.937463c0-186.152591-151.296463-337.64564-337.178748-337.64564v-80.094453c230.17966 0 417.439071 187.459069 417.43907 417.739069H638.254276zM576.586686 718.937463h-80.368854c0-52.377878-20.342554-101.550994-57.208569-138.422129-36.882397-36.960212-85.890668-57.311981-138.048411-57.311981v-80.070904C452.934103 443.132449 576.586686 566.766602 576.586686 718.937463zM356.501512 607.516214c30.775945 0 55.629737 25.013518 55.629737 55.528373 0 30.607004-24.853792 55.351241-55.629737 55.351241-30.667413 0-55.583663-24.743213-55.583663-55.351241C300.917849 632.529733 325.834099 607.516214 356.501512 607.516214z" fill="#FFFFFF" p-id="6699"></path></svg>