<svg width="70" height="66" viewBox="0 0 70 66" fill="none" xmlns="http://www.w3.org/2000/svg">
<path fill-rule="evenodd" clip-rule="evenodd" d="M33.9208 3.93075C33.3959 3.93695 32.9144 4.22215 32.6581 4.67681C32.4018 5.13147 32.408 5.68739 32.6788 6.13378L35.4935 10.8085C35.7642 11.2549 36.254 11.5256 36.779 11.5173L42.2762 11.4388C42.8011 11.4305 43.2826 11.1474 43.5389 10.6928C43.7952 10.236 43.7869 9.68218 43.5182 9.23372L40.7014 4.56108C40.4328 4.11469 39.943 3.84396 39.418 3.85016L33.9208 3.93075V3.93075ZM67.83 23.0739C68.202 23.2806 68.5058 23.5782 68.7166 23.9295C68.9295 24.2788 69.0494 24.6859 69.0556 25.1075L69.1568 32.2332C69.163 32.6569 69.0556 33.064 68.8551 33.4215C68.6526 33.7791 68.3591 34.0849 67.9912 34.3019L61.812 37.9537C61.7149 38.0115 61.6157 38.0611 61.5144 38.1024C61.531 38.2099 61.5413 38.3194 61.5434 38.431L61.6467 45.5568C61.6529 45.9804 61.5434 46.3876 61.3429 46.7451C61.1424 47.1026 60.8469 47.4085 60.479 47.6255L54.2998 51.2772C54.2048 51.3351 54.1056 51.3847 54.0043 51.426C54.0208 51.5335 54.0291 51.643 54.0312 51.7546L54.1345 58.8803C54.1407 59.3019 54.0332 59.7111 53.8307 60.0686C53.6302 60.4262 53.3347 60.73 52.9689 60.947L46.7897 64.6008C46.4218 64.8178 46.0106 64.9293 45.5973 64.9355C45.186 64.9417 44.7706 64.8405 44.3986 64.6359L38.114 61.1619C37.742 60.9573 37.4382 60.6597 37.2274 60.3084C37.0166 59.957 36.8968 59.552 36.8906 59.1283L36.7872 52.0047C36.7852 51.8931 36.7914 51.7835 36.8058 51.674C36.7025 51.6347 36.6012 51.5893 36.5041 51.5355L30.2215 48.0615C29.8475 47.8549 29.5458 47.5593 29.3329 47.208C29.1221 46.8567 29.0022 46.4516 28.996 46.028L28.8927 38.9022C28.8906 38.7927 28.8968 38.6832 28.9113 38.5736C28.808 38.5344 28.7088 38.4889 28.6096 38.4331L22.327 34.9612C21.955 34.7545 21.6512 34.459 21.4404 34.1077C21.2276 33.7563 21.1077 33.3513 21.1015 32.9276L21.0003 25.8019C20.9941 25.3803 21.1015 24.9711 21.302 24.6136C21.5045 24.256 21.798 23.9522 22.1658 23.7353L28.345 20.0815C28.7129 19.8645 29.1242 19.7529 29.5354 19.7467C29.9488 19.7405 30.3641 19.8417 30.7361 20.0463L37.0187 23.5203C37.1158 23.5741 37.2088 23.634 37.2977 23.7001C37.3824 23.6319 37.4754 23.5679 37.5705 23.5121L43.7497 19.8583C44.1176 19.6413 44.5288 19.5297 44.9421 19.5255C45.3534 19.5193 45.7688 19.6185 46.1408 19.8252L52.4233 23.2971C52.5225 23.3509 52.6155 23.4108 52.7023 23.4769C52.7891 23.4087 52.8801 23.3467 52.9751 23.2889L59.1564 19.6371C59.5222 19.4201 59.9335 19.3085 60.3468 19.3023C60.7601 19.2961 61.1734 19.3953 61.5475 19.602L67.83 23.0739V23.0739Z" fill="#AFD27D"/>
<path fill-rule="evenodd" clip-rule="evenodd" d="M29.6078 23.1277C29.6284 23.0863 29.6222 23.0367 29.5933 23.0037C29.5644 22.9706 29.521 22.9644 29.4879 22.9892L25.334 25.8928C25.3071 25.9114 25.2906 25.9465 25.2927 25.9837L25.3733 31.6711C25.3753 31.7166 25.4022 31.7579 25.4394 31.7682C25.4787 31.7806 25.5179 31.76 25.5386 31.7207L29.6078 23.1277V23.1277Z" fill="#E7F1D8"/>
<path fill-rule="evenodd" clip-rule="evenodd" d="M37.7296 36.3065C37.7503 36.2673 37.7441 36.2156 37.7151 36.1825C37.6862 36.1515 37.6428 36.1453 37.6097 36.1681L33.4558 39.0738C33.4289 39.0924 33.4124 39.1254 33.4145 39.1626L33.4951 44.85C33.4971 44.8975 33.524 44.9368 33.5612 44.9492C33.6005 44.9595 33.6397 44.9409 33.6604 44.8996L37.7296 36.3065V36.3065Z" fill="#E7F1D8"/>
<path fill-rule="evenodd" clip-rule="evenodd" d="M45.8515 49.4875C45.8722 49.4461 45.8639 49.3966 45.837 49.3635C45.8081 49.3304 45.7647 49.3242 45.7316 49.349L41.5777 52.2526C41.5508 52.2712 41.5343 52.3064 41.5364 52.3436L41.617 58.0309C41.619 58.0764 41.6459 58.1177 41.6831 58.1281C41.7224 58.1405 41.7616 58.1198 41.7823 58.0805L45.8515 49.4875Z" fill="#E7F1D8"/>
<path fill-rule="evenodd" clip-rule="evenodd" d="M66.7161 31.3198L60.6774 35.0232L54.5354 31.4954L54.43 24.2684L60.4687 20.5671L66.6128 24.0928L66.7161 31.3198ZM59.3817 44.8314L53.343 48.5327L47.1989 45.0071L47.0935 37.7801L53.1322 34.0767L59.2763 37.6044L59.3817 44.8314V44.8314ZM46.0065 62.0443L39.8624 58.5187L39.759 51.2917L45.7977 47.5883L51.9397 51.1139L52.0451 58.343L46.0065 62.0443ZM32.1394 45.2261L32.034 37.9971L38.0727 34.2957L44.2168 37.8214L44.3222 45.0484L38.2835 48.7518L32.1394 45.2261ZM24.4164 31.9315L24.311 24.7045L30.3497 21.0011L36.4938 24.5268L36.5992 31.7558L30.5584 35.4572L24.4164 31.9315V31.9315ZM45.4092 20.7841L51.5533 24.3098L51.6566 31.5388L45.6179 35.2402L39.4759 31.7145L39.3705 24.4854L45.4092 20.7841V20.7841ZM37.37 8.777L34.6152 4.03615L39.9884 3.95762L42.7432 8.70053L37.37 8.777ZM68.014 21.5116L61.8699 17.9859C60.975 17.4713 59.8735 17.4878 58.9931 18.0272L52.9545 21.7286L46.8104 18.2029L46.707 10.9759L53.4587 6.83643C54.1407 6.41691 54.3639 5.50966 53.9568 4.80907C53.5476 4.10849 52.6651 3.87909 51.9831 4.29655L45.7523 8.11568L42.4581 2.44278C41.9331 1.53967 40.9701 0.98581 39.945 1.00028L32.7036 1.10567C32.0629 1.11601 31.4719 1.47767 31.1598 2.05219C30.8477 2.62671 30.8581 3.33557 31.1867 3.89976L34.9004 10.2918C35.4253 11.197 36.3884 11.7488 37.4134 11.7343L43.8386 11.6413L43.9336 18.2442L37.8949 21.9456L31.7509 18.4199C30.856 17.9074 29.7545 17.9239 28.8741 18.4633L22.8354 22.1646C21.9571 22.704 21.4198 23.6919 21.4342 24.7458L21.5396 31.9728C21.5541 33.0268 22.1204 34.0002 23.0152 34.5127L29.1572 38.0384L29.2626 45.2674C29.2771 46.3194 29.8434 47.2927 30.7382 47.8073L36.8802 51.333L36.9856 58.56C37.0001 59.614 37.5663 60.5874 38.4612 61.0999L44.6053 64.6256C45.0517 64.8818 45.5518 65.0079 46.0478 64.9996C46.5458 64.9934 47.0418 64.8529 47.482 64.5842L53.5207 60.8829C54.4011 60.3435 54.9364 59.3536 54.9219 58.3017L54.8186 51.0726L60.8572 47.3713C61.7356 46.8319 62.2729 45.842 62.2584 44.7901L62.153 37.561L68.1917 33.8597C69.0721 33.3203 69.6094 32.3324 69.5929 31.2784L69.4895 24.0514C69.4751 22.9975 68.9088 22.0241 68.014 21.5116V21.5116Z" fill="#4E652C" stroke="white" stroke-width="0.00666667"/>
</svg>
