<svg width="500" height="500" viewBox="0 0 500 500" fill="none" xmlns="http://www.w3.org/2000/svg">
<path d="M0 204.8C0 133.113 0 97.2699 13.9512 69.8892C26.223 45.8045 45.8045 26.223 69.8892 13.9512C97.2699 0 133.113 0 204.8 0H295.2C366.887 0 402.73 0 430.111 13.9512C454.196 26.223 473.777 45.8045 486.049 69.8892C500 97.2699 500 133.113 500 204.8V295.2C500 366.887 500 402.73 486.049 430.111C473.777 454.196 454.196 473.777 430.111 486.049C402.73 500 366.887 500 295.2 500H204.8C133.113 500 97.2699 500 69.8892 486.049C45.8045 473.777 26.223 454.196 13.9512 430.111C0 402.73 0 366.887 0 295.2V204.8Z" fill="white"/>
<path d="M250 86C204.631 86 165.984 101.795 134.057 134.057C101.795 165.984 86 204.631 86 250C86 295.033 101.795 333.68 134.057 365.943C165.984 397.869 204.631 414 250 414C295.033 414 333.68 397.869 365.943 365.943C397.869 333.68 414 295.033 414 250C414 204.631 397.869 165.984 365.943 134.057C333.68 101.795 295.033 86 250 86ZM159.934 137.082H188.836V277.221C188.836 299.066 193.205 315.197 202.615 325.951C212.361 337.377 228.156 343.09 250 343.09C271.508 343.09 287.303 337.377 297.385 326.287C306.795 315.533 311.5 299.066 311.5 277.221V137.082H340.402V276.549C340.402 306.459 332.672 328.975 317.885 344.434C302.426 360.566 279.91 368.631 250 368.631C220.09 368.631 197.574 360.566 182.451 344.434C167.328 328.975 159.934 306.459 159.934 276.549V137.082Z" fill="black"/>
</svg>
