<svg width="500" height="500" viewBox="0 0 500 500" fill="none" xmlns="http://www.w3.org/2000/svg">
<path d="M0 204.8C0 133.113 0 97.2699 13.9512 69.8892C26.223 45.8045 45.8045 26.223 69.8892 13.9512C97.2699 0 133.113 0 204.8 0H295.2C366.887 0 402.73 0 430.111 13.9512C454.196 26.223 473.777 45.8045 486.049 69.8892C500 97.2699 500 133.113 500 204.8V295.2C500 366.887 500 402.73 486.049 430.111C473.777 454.196 454.196 473.777 430.111 486.049C402.73 500 366.887 500 295.2 500H204.8C133.113 500 97.2699 500 69.8892 486.049C45.8045 473.777 26.223 454.196 13.9512 430.111C0 402.73 0 366.887 0 295.2V204.8Z" fill="white"/>
<path d="M372.878 95H315.784V276.54C315.784 302.856 315.784 318.022 309.54 328.281C297.942 347.906 280.547 359.504 250.662 359.504C220.331 359.504 202.043 348.353 191.338 328.281C185.986 318.914 185.094 308.209 185.094 281.892V95H128V286.799C128 364.856 166.806 405 250.662 405C333.626 405 372.878 364.41 372.878 286.799V95Z" fill="black"/>
</svg>
