<svg width="500" height="500" viewBox="0 0 500 500" fill="none" xmlns="http://www.w3.org/2000/svg">
<path d="M0 204.8C0 133.113 0 97.2699 13.9512 69.8892C26.223 45.8045 45.8045 26.223 69.8892 13.9512C97.2699 0 133.113 0 204.8 0H295.2C366.887 0 402.73 0 430.111 13.9512C454.196 26.223 473.777 45.8045 486.049 69.8892C500 97.2699 500 133.113 500 204.8V295.2C500 366.887 500 402.73 486.049 430.111C473.777 454.196 454.196 473.777 430.111 486.049C402.73 500 366.887 500 295.2 500H204.8C133.113 500 97.2699 500 69.8892 486.049C45.8045 473.777 26.223 454.196 13.9512 430.111C0 402.73 0 366.887 0 295.2V204.8Z" fill="white"/>
<path d="M411.383 360.165L405.832 350.344C393.876 357.603 382.347 360.592 377.223 360.592C368.256 360.592 367.402 352.052 367.402 342.231V185.523C367.402 144.105 368.683 119.339 411.383 105.675L407.967 95L295.24 135.138C296.521 140.689 298.229 179.972 298.229 218.829V332.41L235.033 360.165C214.964 337.534 184.22 312.769 156.039 304.229C197.03 273.485 214.964 252.135 214.964 210.289V156.915C214.964 126.598 200.446 103.967 173.972 95H163.298L91.989 138.127L97.5399 147.521C107.361 141.97 120.598 135.138 130.846 135.138C139.386 135.138 145.791 140.262 145.791 158.623V250.854C145.791 312.769 112.912 326.433 89 337.534V343.939C111.631 351.198 159.455 381.088 179.523 405L299.937 351.198C303.78 370.413 313.601 388.774 333.242 400.303H344.771L411.383 360.165Z" fill="black"/>
</svg>
