<svg width="500" height="500" viewBox="0 0 500 500" fill="none" xmlns="http://www.w3.org/2000/svg">
<path d="M0 204.8C0 133.113 0 97.2699 13.9512 69.8892C26.223 45.8045 45.8045 26.223 69.8892 13.9512C97.2699 0 133.113 0 204.8 0H295.2C366.887 0 402.73 0 430.111 13.9512C454.196 26.223 473.777 45.8045 486.049 69.8892C500 97.2699 500 133.113 500 204.8V295.2C500 366.887 500 402.73 486.049 430.111C473.777 454.196 454.196 473.777 430.111 486.049C402.73 500 366.887 500 295.2 500H204.8C133.113 500 97.2699 500 69.8892 486.049C45.8045 473.777 26.223 454.196 13.9512 430.111C0 402.73 0 366.887 0 295.2V204.8Z" fill="white"/>
<path d="M337.041 161.583H277.145V172.516C296.635 173.942 299.487 179.171 299.487 203.415V271.867C299.487 303.716 290.93 326.058 255.754 326.058C219.151 326.058 217.249 305.617 217.249 275.194V193.907C217.249 177.27 220.101 174.893 239.116 172.516V161.583H162.107V172.516C181.597 174.417 183.974 177.27 183.974 192.957V271.867C183.974 318.928 208.217 343.646 250.049 343.646C296.635 343.646 314.699 313.699 314.699 268.539V202.939C314.699 180.597 317.075 174.893 337.041 172.516V161.583ZM412.148 250.475C412.148 159.681 340.368 86 252.426 86C159.255 86 87 157.78 87 250.475C87 341.745 158.78 414 250.049 414C340.843 414 412.148 342.22 412.148 250.475ZM392.183 250.475C392.183 329.861 330.861 394.035 251 394.035C171.614 394.035 106.965 329.861 106.965 250.475C106.965 170.615 171.614 105.965 251 105.965C330.861 105.965 392.183 170.615 392.183 250.475Z" fill="black"/>
</svg>
