<svg width="500" height="500" viewBox="0 0 500 500" fill="none" xmlns="http://www.w3.org/2000/svg">
<path d="M0 204.8C0 133.113 0 97.2699 13.9512 69.8892C26.223 45.8045 45.8045 26.223 69.8892 13.9512C97.2699 0 133.113 0 204.8 0H295.2C366.887 0 402.73 0 430.111 13.9512C454.196 26.223 473.777 45.8045 486.049 69.8892C500 97.2699 500 133.113 500 204.8V295.2C500 366.887 500 402.73 486.049 430.111C473.777 454.196 454.196 473.777 430.111 486.049C402.73 500 366.887 500 295.2 500H204.8C133.113 500 97.2699 500 69.8892 486.049C45.8045 473.777 26.223 454.196 13.9512 430.111C0 402.73 0 366.887 0 295.2V204.8Z" fill="white"/>
<path d="M399.638 367.437L394.025 358.37L382.368 364.415C377.618 367.006 372.869 368.301 368.983 368.301C359.053 368.301 350.85 360.098 350.85 341.964V188.259C350.85 146.379 352.145 120.042 397.911 107.089L394.889 95L296.88 132.131C300.334 154.15 300.334 178.329 300.334 209.847V335.056L224.345 369.596C210.529 357.507 171.671 327.716 154.401 321.24C198.872 284.972 212.688 264.68 212.688 219.345V155.877C212.688 140.766 203.621 106.226 180.738 95H174.262L103.454 133.858L109.499 144.652C120.724 136.88 133.245 131.699 141.017 131.699C150.947 131.699 158.719 139.903 158.719 157.604V254.318C158.719 316.49 125.474 333.329 100 344.554V350.599C126.337 357.507 169.081 384.276 187.214 405L300.334 350.167C301.63 367.869 309.833 393.343 329.694 405H335.738L399.638 367.437Z" fill="black"/>
</svg>
