<svg width="500" height="500" viewBox="0 0 500 500" fill="none" xmlns="http://www.w3.org/2000/svg">
<path d="M0 204.8C0 133.113 0 97.2699 13.9512 69.8892C26.223 45.8045 45.8045 26.223 69.8892 13.9512C97.2699 0 133.113 0 204.8 0H295.2C366.887 0 402.73 0 430.111 13.9512C454.196 26.223 473.777 45.8045 486.049 69.8892C500 97.2699 500 133.113 500 204.8V295.2C500 366.887 500 402.73 486.049 430.111C473.777 454.196 454.196 473.777 430.111 486.049C402.73 500 366.887 500 295.2 500H204.8C133.113 500 97.2699 500 69.8892 486.049C45.8045 473.777 26.223 454.196 13.9512 430.111C0 402.73 0 366.887 0 295.2V204.8Z" fill="white"/>
<path d="M437.48 95H315.063L313.201 102.447H322.045C349.042 102.447 356.489 108.964 356.955 119.67C356.955 124.79 356.024 128.514 355.093 131.772L315.063 295.15C302.961 345.42 275.964 383.123 224.297 383.123C179.147 383.123 157.27 356.126 157.27 330.991C157.27 323.078 158.667 306.321 160.529 299.339L202.42 131.772C206.61 115.015 214.988 102.447 251.76 102.447H259.673L261.535 95H108.862L107 102.447H115.378C140.514 102.447 150.288 107.568 150.288 116.877C150.288 117.808 150.288 119.204 149.823 120.135L114.447 273.739C113.517 277.928 107.931 314.234 107.931 317.958C107.931 360.315 136.79 405 211.264 405C299.703 405 325.769 346.817 337.871 297.477L378.366 131.772C382.556 115.015 393.261 102.447 428.171 102.447H435.619L437.48 95Z" fill="black"/>
</svg>
