<svg width="500" height="500" viewBox="0 0 500 500" fill="none" xmlns="http://www.w3.org/2000/svg">
<path d="M0 204.8C0 133.113 0 97.2699 13.9512 69.8892C26.223 45.8045 45.8045 26.223 69.8892 13.9512C97.2699 0 133.113 0 204.8 0H295.2C366.887 0 402.73 0 430.111 13.9512C454.196 26.223 473.777 45.8045 486.049 69.8892C500 97.2699 500 133.113 500 204.8V295.2C500 366.887 500 402.73 486.049 430.111C473.777 454.196 454.196 473.777 430.111 486.049C402.73 500 366.887 500 295.2 500H204.8C133.113 500 97.2699 500 69.8892 486.049C45.8045 473.777 26.223 454.196 13.9512 430.111C0 402.73 0 366.887 0 295.2V204.8Z" fill="white"/>
<path d="M396.491 95H356.595L311.654 275.222C304.775 302.737 299.731 320.621 289.183 333.92C271.757 355.932 241.491 370.148 207.556 370.148C167.201 370.148 143.355 350.888 143.355 319.246C143.355 310.074 145.189 299.068 149.775 281.183L196.55 95H156.654L108.503 287.145C104.834 302.278 103 315.577 103 327.959C103 378.861 135.101 405 198.843 405C277.719 405 329.08 364.186 348.34 287.145L396.491 95Z" fill="black"/>
</svg>
