<svg width="500" height="500" viewBox="0 0 500 500" fill="none" xmlns="http://www.w3.org/2000/svg">
<path d="M0 204.8C0 133.113 0 97.2699 13.9512 69.8892C26.223 45.8045 45.8045 26.223 69.8892 13.9512C97.2699 0 133.113 0 204.8 0H295.2C366.887 0 402.73 0 430.111 13.9512C454.196 26.223 473.777 45.8045 486.049 69.8892C500 97.2699 500 133.113 500 204.8V295.2C500 366.887 500 402.73 486.049 430.111C473.777 454.196 454.196 473.777 430.111 486.049C402.73 500 366.887 500 295.2 500H204.8C133.113 500 97.2699 500 69.8892 486.049C45.8045 473.777 26.223 454.196 13.9512 430.111C0 402.73 0 366.887 0 295.2V204.8Z" fill="white"/>
<path d="M366.615 106.055C366.615 100.067 361.548 95 355.56 95H285.545C279.557 95 274.49 100.067 274.49 106.055V113.425C274.49 119.874 279.557 124.48 285.545 124.48H307.195V298.596C307.195 343.737 279.097 375.52 250.077 375.52C221.058 375.52 193.42 343.737 193.42 298.596V124.48H214.609C220.597 124.48 225.664 119.874 225.664 113.425V106.055C225.664 100.067 220.597 95 214.609 95H145.055C139.067 95 134 100.067 134 106.055V113.425C134 119.874 139.067 124.48 145.055 124.48H166.244V298.596C166.244 354.331 201.251 405 250.077 405C298.903 405 333.911 354.331 333.911 298.596V124.48H355.56C361.548 124.48 366.615 119.874 366.615 113.425V106.055Z" fill="black"/>
</svg>
