<svg width="500" height="500" viewBox="0 0 500 500" fill="none" xmlns="http://www.w3.org/2000/svg">
<path d="M0 204.8C0 133.113 0 97.2699 13.9512 69.8892C26.223 45.8045 45.8045 26.223 69.8892 13.9512C97.2699 0 133.113 0 204.8 0H295.2C366.887 0 402.73 0 430.111 13.9512C454.196 26.223 473.777 45.8045 486.049 69.8892C500 97.2699 500 133.113 500 204.8V295.2C500 366.887 500 402.73 486.049 430.111C473.777 454.196 454.196 473.777 430.111 486.049C402.73 500 366.887 500 295.2 500H204.8C133.113 500 97.2699 500 69.8892 486.049C45.8045 473.777 26.223 454.196 13.9512 430.111C0 402.73 0 366.887 0 295.2V204.8Z" fill="white"/>
<path d="M369.837 95H329.941V275.222C329.941 302.737 329.482 320.621 322.145 333.92C310.222 355.932 283.624 370.148 249.689 370.148C216.213 370.148 190.533 356.849 178.609 333.92C172.189 321.538 169.896 309.615 169.896 281.183V95H130V287.145C130 365.104 170.814 405 249.689 405C328.565 405 369.837 364.186 369.837 287.145V95Z" fill="black"/>
</svg>
