<svg width="500" height="500" viewBox="0 0 500 500" fill="none" xmlns="http://www.w3.org/2000/svg">
<path d="M0 204.8C0 133.113 0 97.2699 13.9512 69.8892C26.223 45.8045 45.8045 26.223 69.8892 13.9512C97.2699 0 133.113 0 204.8 0H295.2C366.887 0 402.73 0 430.111 13.9512C454.196 26.223 473.777 45.8045 486.049 69.8892C500 97.2699 500 133.113 500 204.8V295.2C500 366.887 500 402.73 486.049 430.111C473.777 454.196 454.196 473.777 430.111 486.049C402.73 500 366.887 500 295.2 500H204.8C133.113 500 97.2699 500 69.8892 486.049C45.8045 473.777 26.223 454.196 13.9512 430.111C0 402.73 0 366.887 0 295.2V204.8Z" fill="white"/>
<path d="M419.587 107.806H381.61L324.202 215.114C301.239 257.949 218.219 391.752 168.761 391.752C159.046 391.752 155.954 385.57 155.954 379.387C155.954 372.322 160.812 360.399 173.177 340.969L255.313 214.231C268.561 193.917 272.094 174.487 272.094 159.473C272.094 116.638 233.234 95 193.048 95C136.524 95 80 134.744 80 189.06C80 219.088 101.197 239.402 130.783 239.402C169.202 239.402 194.373 202.749 200.556 173.604H191.724C181.125 204.074 163.462 226.154 130.342 226.154C110.028 226.154 98.1054 210.256 98.1054 189.06C98.1054 141.368 141.382 110.456 189.074 110.456C214.245 110.456 242.507 125.47 242.507 147.55C242.507 159.031 239.416 172.279 226.61 192.151L162.578 292.393C138.732 329.929 131.667 349.359 131.667 366.14C131.667 389.986 146.239 405 167.436 405C192.165 405 226.61 380.271 257.963 337.436L259.288 337.877C253.105 351.567 251.781 361.724 251.781 369.231C251.781 390.427 268.561 403.675 289.758 403.675C317.578 403.675 346.282 379.387 379.402 339.202L370.128 333.462C338.333 370.114 313.604 390.427 295.94 390.427C287.991 390.427 281.368 386.011 281.368 374.971C281.368 371.88 281.809 363.932 288.875 350.684L419.587 107.806Z" fill="black"/>
</svg>
