<?xml version="1.0" encoding="UTF-8"?>
<!--Generator: Apple Native CoreSVG 232.5-->
<!DOCTYPE svg
PUBLIC "-//W3C//DTD SVG 1.1//EN"
       "http://www.w3.org/Graphics/SVG/1.1/DTD/svg11.dtd">
<svg version="1.1" xmlns="http://www.w3.org/2000/svg" xmlns:xlink="http://www.w3.org/1999/xlink" width="11.4141" height="17.5892">
 <g>
  <rect height="17.5892" opacity="0" width="11.4141" x="0" y="0"/>
  <path d="M3.70312 17.1344L10.8047 8.00164C10.9375 7.83757 11.0078 7.68132 11.0078 7.50164C11.0078 7.20476 10.7734 6.9782 10.4453 6.9782L6.03125 6.9782L8.35938 0.900074C8.67188 0.0953867 7.8125-0.342113 7.30469 0.329762L0.203125 9.45476C0.0703125 9.62664 0 9.78289 0 9.95476C0 10.2594 0.234375 10.486 0.5625 10.486L4.97656 10.486L2.64844 16.5563C2.33594 17.361 3.19531 17.7985 3.70312 17.1344ZM4.16406 15.0329L6.78125 9.32195L1.95312 9.32195L7.05469 2.54851L6.83594 2.43132L4.22656 8.14226L9.04688 8.14226L3.94531 14.9157Z" fill="#ffffff" fill-opacity="0.85"/>
 </g>
</svg>
