<?xml version="1.0" encoding="UTF-8"?>
<!--Generator: Apple Native CoreSVG 232.5-->
<!DOCTYPE svg
PUBLIC "-//W3C//DTD SVG 1.1//EN"
       "http://www.w3.org/Graphics/SVG/1.1/DTD/svg11.dtd">
<svg version="1.1" xmlns="http://www.w3.org/2000/svg" xmlns:xlink="http://www.w3.org/1999/xlink" width="23.7812" height="16.8828">
 <g>
  <rect height="16.8828" opacity="0" width="23.7812" x="0" y="0"/>
  <path d="M20.2188 11.9609L21.4297 13.1641C21.6797 13.4141 21.6797 13.8281 21.4297 14.0703C21.1797 14.3203 20.7656 14.3359 20.5234 14.0781L19.3047 12.875C19.0547 12.625 19.0547 12.2109 19.3047 11.9609C19.5547 11.7188 19.9688 11.7188 20.2188 11.9609ZM19.5547 8.34375C19.5547 9.73635 18.8031 10.9679 17.6889 11.6477C17.4702 9.37473 15.645 7.66358 13.25 7.42188C13.0002 7.0275 12.7141 6.66776 12.3946 6.34942C13.0729 5.22684 14.3049 4.46875 15.6953 4.46875C17.8047 4.46875 19.5547 6.22656 19.5547 8.34375ZM23.7812 8.34375C23.7812 8.70312 23.4922 8.99219 23.1406 8.99219L21.4453 8.99219C21.1016 8.99219 20.7969 8.70312 20.7969 8.34375C20.7969 8 21.1016 7.69531 21.4453 7.69531L23.1406 7.69531C23.4922 7.69531 23.7812 8 23.7812 8.34375ZM21.4297 2.61719C21.6797 2.86719 21.6797 3.28906 21.4297 3.53906L20.2266 4.73438C19.9688 4.99219 19.5547 4.98438 19.3047 4.73438C19.0547 4.48438 19.0547 4.07031 19.3047 3.82812L20.5234 2.61719C20.7656 2.36719 21.1797 2.36719 21.4297 2.61719ZM10.8828 2.61719L12.0859 3.82812C12.3281 4.0625 12.3281 4.49219 12.0781 4.73438C11.8281 4.98438 11.4141 4.98438 11.1641 4.73438L9.96875 3.53125C9.71875 3.28906 9.72656 2.86719 9.97656 2.61719C10.2266 2.36719 10.6406 2.375 10.8828 2.61719ZM16.3438 0.882812L16.3438 2.58594C16.3438 2.92969 16.0469 3.22656 15.6953 3.22656C15.3438 3.22656 15.0469 2.92969 15.0469 2.58594L15.0469 0.882812C15.0469 0.539062 15.3438 0.234375 15.6953 0.234375C16.0469 0.234375 16.3438 0.539062 16.3438 0.882812Z" fill="#ffffff" fill-opacity="0.85"/>
  <path d="M4.39844 15.9688L12.8516 15.9688C15.0781 15.9688 16.8047 14.2812 16.8047 12.1094C16.8047 9.95312 15.0469 8.32031 12.7109 8.30469C11.8125 6.59375 10.1953 5.54688 8.26562 5.54688C5.71875 5.54688 3.5625 7.52344 3.32031 10.0938C2.02344 10.4844 1.14062 11.5938 1.14062 13C1.14062 14.7344 2.44531 15.9688 4.39844 15.9688Z" fill="#ffffff" fill-opacity="0.85"/>
 </g>
</svg>
