<?xml version="1.0" encoding="UTF-8"?>
<!--Generator: Apple Native CoreSVG 232.5-->
<!DOCTYPE svg
PUBLIC "-//W3C//DTD SVG 1.1//EN"
       "http://www.w3.org/Graphics/SVG/1.1/DTD/svg11.dtd">
<svg version="1.1" xmlns="http://www.w3.org/2000/svg" xmlns:xlink="http://www.w3.org/1999/xlink" width="18.2266" height="19.6124">
 <g>
  <rect height="19.6124" opacity="0" width="18.2266" x="0" y="0"/>
  <path d="M11.1875 15.5913L9.41406 15.5913L9.39844 15.9429L10.3516 14.1148C10.4453 13.9429 10.375 13.8101 10.2031 13.8101L8.50781 13.8101C8.28125 13.8101 8.20312 13.8882 8.13281 14.0523L7.07031 16.4742C6.98438 16.6695 7.07031 16.7867 7.27344 16.7867L8.71875 16.7867L8.82031 16.3257L7.5625 19.3804C7.52344 19.482 7.54688 19.5679 7.61719 19.5992C7.6875 19.6304 7.77344 19.607 7.85938 19.521L11.3125 15.982C11.4766 15.8101 11.4141 15.5913 11.1875 15.5913Z" fill="#ffffff" fill-opacity="0.85"/>
  <path d="M4.0625 12.6929L13.7578 12.6929C16.3203 12.6929 18.2266 10.7476 18.2266 8.34134C18.2266 5.84915 16.1953 4.02884 13.5469 4.02884C12.5703 2.09915 10.7578 0.856966 8.5 0.856966C5.5625 0.856966 3.14062 3.16165 2.88281 6.06009C1.46875 6.47415 0.390625 7.70072 0.390625 9.34915C0.390625 11.2007 1.73438 12.6929 4.0625 12.6929ZM4.04688 11.4429C2.44531 11.4429 1.64062 10.5445 1.64062 9.38822C1.64062 8.45072 2.1875 7.60697 3.51562 7.2554C3.94531 7.13822 4.10156 6.93509 4.14062 6.49759C4.32031 3.9429 6.23438 2.10697 8.5 2.10697C10.2578 2.10697 11.6406 3.07572 12.4844 4.80228C12.6641 5.18509 12.8984 5.3179 13.3594 5.3179C15.6719 5.3179 16.9766 6.70853 16.9766 8.37259C16.9766 10.0757 15.6172 11.4429 13.8359 11.4429Z" fill="#ffffff" fill-opacity="0.85"/>
 </g>
</svg>
