<?xml version="1.0" encoding="UTF-8"?>
<!--Generator: Apple Native CoreSVG 232.5-->
<!DOCTYPE svg
PUBLIC "-//W3C//DTD SVG 1.1//EN"
       "http://www.w3.org/Graphics/SVG/1.1/DTD/svg11.dtd">
<svg version="1.1" xmlns="http://www.w3.org/2000/svg" xmlns:xlink="http://www.w3.org/1999/xlink" width="18.2266" height="19.4453">
 <g>
  <rect height="19.4453" opacity="0" width="18.2266" x="0" y="0"/>
  <path d="M11.4688 19.4453C11.6094 19.4453 11.7109 19.3047 11.7031 19.1641L11.6484 18.4219L12.2734 18.8438C12.3828 18.9141 12.5625 18.8828 12.6406 18.7656C12.7109 18.6484 12.6719 18.4688 12.5156 18.3984L11.8438 18.0781L12.5234 17.7422C12.6719 17.6719 12.7031 17.5 12.6484 17.3828C12.5781 17.2578 12.3828 17.2344 12.2734 17.3047L11.6484 17.7422L11.7109 16.9844C11.7266 16.8359 11.6094 16.7109 11.4688 16.7109C11.3047 16.7109 11.2109 16.8359 11.2188 16.9844L11.2656 17.7422L10.6328 17.3047C10.5234 17.2344 10.3594 17.25 10.2812 17.3828C10.2109 17.5 10.2422 17.6641 10.3906 17.7422L11.0625 18.0781L10.3906 18.4062C10.2422 18.4766 10.2031 18.6406 10.2734 18.7656C10.3438 18.8984 10.5234 18.9219 10.6328 18.8438L11.2656 18.4219L11.2266 19.1641C11.2188 19.3047 11.3047 19.4453 11.4688 19.4453Z" fill="#000000" fill-opacity="0.85"/>
  <path d="M7.14062 19.4453C7.28125 19.4453 7.38281 19.3047 7.375 19.1641L7.32812 18.4219L7.94531 18.8438C8.05469 18.9141 8.23438 18.8828 8.3125 18.7656C8.38281 18.6484 8.34375 18.4688 8.1875 18.3984L7.51562 18.0781L8.19531 17.7422C8.34375 17.6719 8.375 17.5 8.32031 17.3828C8.25 17.2578 8.05469 17.2344 7.94531 17.3047L7.32812 17.7422L7.38281 16.9844C7.39844 16.8359 7.28125 16.7109 7.14062 16.7109C6.97656 16.7109 6.88281 16.8359 6.89062 16.9844L6.9375 17.7422L6.30469 17.3047C6.19531 17.2344 6.03125 17.25 5.95312 17.3828C5.88281 17.5 5.91406 17.6641 6.0625 17.7422L6.73438 18.0781L6.0625 18.4062C5.91406 18.4766 5.875 18.6406 5.94531 18.7656C6.01562 18.8984 6.19531 18.9219 6.30469 18.8438L6.9375 18.4219L6.89844 19.1641C6.89062 19.3047 6.97656 19.4453 7.14062 19.4453Z" fill="#000000" fill-opacity="0.85"/>
  <path d="M2.8125 19.4453C2.95312 19.4453 3.05469 19.3047 3.04688 19.1641L3 18.4219L3.61719 18.8438C3.73438 18.9141 3.90625 18.8828 3.98438 18.7656C4.05469 18.6484 4.01562 18.4688 3.85938 18.3984L3.19531 18.0781L3.86719 17.7422C4.01562 17.6719 4.04688 17.5 3.99219 17.3828C3.92188 17.2578 3.73438 17.2344 3.61719 17.3047L3 17.7422L3.05469 16.9844C3.07031 16.8359 2.95312 16.7109 2.8125 16.7109C2.64844 16.7109 2.55469 16.8359 2.5625 16.9844L2.60938 17.7422L1.98438 17.3047C1.86719 17.2344 1.70312 17.25 1.625 17.3828C1.55469 17.5 1.58594 17.6641 1.73438 17.7422L2.40625 18.0781L1.73438 18.4062C1.58594 18.4766 1.54688 18.6406 1.61719 18.7656C1.6875 18.8984 1.86719 18.9219 1.98438 18.8438L2.60938 18.4219L2.57031 19.1641C2.5625 19.3047 2.64844 19.4453 2.8125 19.4453Z" fill="#000000" fill-opacity="0.85"/>
  <path d="M13.1641 16.5078C13.3047 16.5078 13.4062 16.375 13.3984 16.2344L13.3438 15.4844L13.9688 15.9062C14.0781 15.9844 14.2578 15.9531 14.3359 15.8359C14.4062 15.7188 14.3672 15.5391 14.2109 15.4688L13.5391 15.1406L14.2188 14.8047C14.3672 14.7344 14.3984 14.5703 14.3438 14.4453C14.2734 14.3203 14.0781 14.2969 13.9688 14.375L13.3438 14.8047L13.4062 14.0547C13.4219 13.9062 13.3047 13.7812 13.1641 13.7812C13 13.7812 12.9062 13.9062 12.9141 14.0547L12.9609 14.8047L12.3281 14.375C12.2188 14.2969 12.0547 14.3125 11.9766 14.4453C11.9062 14.5703 11.9375 14.7344 12.0859 14.8047L12.7578 15.1406L12.0859 15.4688C11.9375 15.5391 11.8984 15.7109 11.9688 15.8359C12.0391 15.9609 12.2188 15.9844 12.3281 15.9141L12.9609 15.4922L12.9219 16.2344C12.9141 16.375 13 16.5078 13.1641 16.5078Z" fill="#000000" fill-opacity="0.85"/>
  <path d="M8.83594 16.5078C8.97656 16.5078 9.07812 16.375 9.07031 16.2344L9.02344 15.4844L9.64062 15.9062C9.75 15.9844 9.92969 15.9531 10.0078 15.8359C10.0781 15.7188 10.0391 15.5391 9.88281 15.4688L9.21094 15.1406L9.89062 14.8047C10.0391 14.7344 10.0703 14.5703 10.0156 14.4453C9.94531 14.3203 9.75 14.2969 9.64062 14.375L9.02344 14.8047L9.07812 14.0547C9.09375 13.9062 8.97656 13.7812 8.83594 13.7812C8.67188 13.7812 8.57812 13.9062 8.58594 14.0547L8.63281 14.8047L8 14.375C7.89062 14.2969 7.72656 14.3125 7.64844 14.4453C7.57812 14.5703 7.60938 14.7344 7.75781 14.8047L8.42969 15.1406L7.75781 15.4688C7.60938 15.5391 7.57031 15.7109 7.64062 15.8359C7.71094 15.9609 7.89062 15.9844 8 15.9141L8.63281 15.4922L8.59375 16.2344C8.58594 16.375 8.67188 16.5078 8.83594 16.5078Z" fill="#000000" fill-opacity="0.85"/>
  <path d="M4.50781 16.5078C4.64844 16.5078 4.75 16.375 4.74219 16.2344L4.69531 15.4844L5.3125 15.9062C5.42188 15.9844 5.60156 15.9531 5.67969 15.8359C5.75 15.7188 5.71094 15.5391 5.55469 15.4688L4.89062 15.1406L5.5625 14.8047C5.71094 14.7344 5.74219 14.5703 5.6875 14.4453C5.61719 14.3203 5.42188 14.2969 5.3125 14.375L4.69531 14.8047L4.75 14.0547C4.76562 13.9062 4.64844 13.7812 4.50781 13.7812C4.34375 13.7812 4.25 13.9062 4.25781 14.0547L4.30469 14.8047L3.67969 14.375C3.5625 14.2969 3.39844 14.3125 3.32031 14.4453C3.25 14.5703 3.28125 14.7344 3.42969 14.8047L4.10156 15.1406L3.42969 15.4688C3.28125 15.5391 3.24219 15.7109 3.3125 15.8359C3.38281 15.9609 3.5625 15.9844 3.67969 15.9141L4.30469 15.4922L4.26562 16.2344C4.25781 16.375 4.34375 16.5078 4.50781 16.5078Z" fill="#000000" fill-opacity="0.85"/>
  <path d="M4.0625 12.6094L13.7578 12.6094C16.3203 12.6094 18.2266 10.6641 18.2266 8.25781C18.2266 5.76562 16.1953 3.94531 13.5469 3.94531C12.5703 2.01562 10.7578 0.773438 8.5 0.773438C5.5625 0.773438 3.14062 3.07812 2.88281 5.97656C1.46875 6.39062 0.390625 7.61719 0.390625 9.26562C0.390625 11.1172 1.73438 12.6094 4.0625 12.6094Z" fill="#000000" fill-opacity="0.85"/>
 </g>
</svg>
