<?xml version="1.0" encoding="UTF-8"?>
<!--Generator: Apple Native CoreSVG 232.5-->
<!DOCTYPE svg
PUBLIC "-//W3C//DTD SVG 1.1//EN"
       "http://www.w3.org/Graphics/SVG/1.1/DTD/svg11.dtd">
<svg version="1.1" xmlns="http://www.w3.org/2000/svg" xmlns:xlink="http://www.w3.org/1999/xlink" width="18.2266" height="17.965">
 <g>
  <rect height="17.965" opacity="0" width="18.2266" x="0" y="0"/>
  <path d="M12.9297 17.713L13.9453 15.9552C14.0859 15.713 14.0078 15.4395 13.7734 15.3067C13.5391 15.1661 13.2734 15.2442 13.1328 15.4864L12.1016 17.2598C11.9766 17.4864 12.0391 17.7598 12.2812 17.8927C12.5156 18.0255 12.7969 17.9473 12.9297 17.713Z" fill="#ffffff" fill-opacity="0.85"/>
  <path d="M10.4844 15.5177L11.5 13.752C11.6406 13.5177 11.5625 13.2442 11.3281 13.1036C11.0938 12.9708 10.8281 13.0411 10.6875 13.2833L9.66406 15.0645C9.53125 15.2833 9.59375 15.5567 9.83594 15.6973C10.0703 15.8302 10.3516 15.7442 10.4844 15.5177Z" fill="#ffffff" fill-opacity="0.85"/>
  <path d="M6.71094 17.7208L7.72656 15.963C7.86719 15.7208 7.79688 15.4473 7.5625 15.3145C7.32031 15.1739 7.05469 15.252 6.91406 15.4942L5.89062 17.2677C5.75781 17.4942 5.82812 17.7677 6.0625 17.9005C6.29688 18.0333 6.57812 17.9552 6.71094 17.7208Z" fill="#ffffff" fill-opacity="0.85"/>
  <path d="M4.26562 15.5255L5.28125 13.7598C5.42969 13.5255 5.35156 13.252 5.11719 13.1114C4.88281 12.9786 4.61719 13.0489 4.46875 13.2911L3.44531 15.0723C3.3125 15.2911 3.38281 15.5645 3.625 15.7052C3.85156 15.838 4.13281 15.752 4.26562 15.5255Z" fill="#ffffff" fill-opacity="0.85"/>
  <path d="M4.0625 11.8692L13.7578 11.8692C16.3203 11.8692 18.2266 9.92391 18.2266 7.51766C18.2266 5.02547 16.1953 3.20516 13.5469 3.20516C12.5703 1.27547 10.7578 0.0332872 8.5 0.0332872C5.5625 0.0332872 3.14062 2.33797 2.88281 5.23641C1.46875 5.65047 0.390625 6.87704 0.390625 8.52547C0.390625 10.377 1.73438 11.8692 4.0625 11.8692ZM4.04688 10.6192C2.44531 10.6192 1.64062 9.72079 1.64062 8.56454C1.64062 7.62704 2.1875 6.78329 3.51562 6.43172C3.94531 6.31454 4.10156 6.11141 4.14062 5.67391C4.32031 3.11922 6.23438 1.28329 8.5 1.28329C10.2578 1.28329 11.6406 2.25204 12.4844 3.9786C12.6641 4.36141 12.8984 4.49422 13.3594 4.49422C15.6719 4.49422 16.9766 5.88485 16.9766 7.54891C16.9766 9.25204 15.6172 10.6192 13.8359 10.6192Z" fill="#ffffff" fill-opacity="0.85"/>
 </g>
</svg>
