<?xml version="1.0" encoding="UTF-8"?>
<!--Generator: Apple Native CoreSVG 232.5-->
<!DOCTYPE svg
PUBLIC "-//W3C//DTD SVG 1.1//EN"
       "http://www.w3.org/Graphics/SVG/1.1/DTD/svg11.dtd">
<svg version="1.1" xmlns="http://www.w3.org/2000/svg" xmlns:xlink="http://www.w3.org/1999/xlink" width="18.2266" height="18.0124">
 <g>
  <rect height="18.0124" opacity="0" width="18.2266" x="0" y="0"/>
  <path d="M12.2969 17.7679L14.6094 13.7679C14.7422 13.5336 14.6719 13.2679 14.4453 13.1351C14.2266 12.9945 13.9453 13.0648 13.8047 13.307L11.5078 17.2914C11.375 17.5258 11.4453 17.7992 11.6719 17.9398C11.8984 18.0726 12.1641 18.0023 12.2969 17.7679Z" fill="#ffffff" fill-opacity="0.85"/>
  <path d="M10.4844 15.5414L11.5 13.7758C11.6406 13.5414 11.5625 13.2679 11.3281 13.1273C11.0938 12.9945 10.8281 13.0648 10.6875 13.307L9.66406 15.0883C9.53125 15.307 9.59375 15.5804 9.83594 15.7211C10.0703 15.8539 10.3516 15.7679 10.4844 15.5414Z" fill="#ffffff" fill-opacity="0.85"/>
  <path d="M6.08594 17.7758L8.39062 13.7758C8.52344 13.5414 8.46094 13.2758 8.23438 13.1429C8.00781 13.0023 7.71875 13.0726 7.58594 13.3148L5.29688 17.2992C5.16406 17.5336 5.22656 17.807 5.46094 17.9476C5.6875 18.0804 5.95312 18.0023 6.08594 17.7758Z" fill="#ffffff" fill-opacity="0.85"/>
  <path d="M4.26562 15.5492L5.28125 13.7836C5.42969 13.5492 5.35156 13.2758 5.11719 13.1351C4.88281 13.0023 4.61719 13.0726 4.46875 13.3148L3.44531 15.0961C3.3125 15.3148 3.38281 15.5883 3.625 15.7289C3.85156 15.8617 4.13281 15.7758 4.26562 15.5492Z" fill="#ffffff" fill-opacity="0.85"/>
  <path d="M4.0625 11.8929L13.7578 11.8929C16.3203 11.8929 18.2266 9.94763 18.2266 7.54138C18.2266 5.04919 16.1953 3.22888 13.5469 3.22888C12.5703 1.29919 10.7578 0.0570053 8.5 0.0570053C5.5625 0.0570053 3.14062 2.36169 2.88281 5.26013C1.46875 5.67419 0.390625 6.90076 0.390625 8.54919C0.390625 10.4008 1.73438 11.8929 4.0625 11.8929ZM4.04688 10.6429C2.44531 10.6429 1.64062 9.74451 1.64062 8.58826C1.64062 7.65076 2.1875 6.80701 3.51562 6.45544C3.94531 6.33826 4.10156 6.13513 4.14062 5.69763C4.32031 3.14294 6.23438 1.30701 8.5 1.30701C10.2578 1.30701 11.6406 2.27576 12.4844 4.00232C12.6641 4.38513 12.8984 4.51794 13.3594 4.51794C15.6719 4.51794 16.9766 5.90857 16.9766 7.57263C16.9766 9.27576 15.6172 10.6429 13.8359 10.6429Z" fill="#ffffff" fill-opacity="0.85"/>
 </g>
</svg>
