<?xml version="1.0" encoding="utf-8"?>
<!-- Generator: Adobe Illustrator 23.0.2, SVG Export Plug-In . SVG Version: 6.00 Build 0)  -->
<svg version="1.1" id="Layer_1" xmlns="http://www.w3.org/2000/svg" xmlns:xlink="http://www.w3.org/1999/xlink" x="0px" y="0px"
	 viewBox="0 0 24 24" style="enable-background:new 0 0 24 24;" xml:space="preserve">
<title>SeekIconTemplate24px_03</title>
<g>
	<path d="M22.3,1.9l-0.2-0.2c-1.2-1.2-3.1-1.2-4.2,0c0,0,0,0,0,0l-7.6,7.6c-0.1,0.1-0.2,0.3-0.3,0.5l-1,4c-0.1,0.3,0,0.7,0.3,0.9
		C9.5,14.9,9.7,15,10,15c0.1,0,0.2,0,0.2,0l4-1c0.2,0,0.3-0.1,0.5-0.3l7.6-7.6c0.6-0.6,0.9-1.3,0.9-2.1S22.9,2.4,22.3,1.9z
		 M13.5,12.1l-2.1,0.5l0.5-2.1L17,5.4L18.6,7L13.5,12.1z M20.9,4.7L20,5.6L18.4,4l0.9-0.9c0.4-0.4,1-0.4,1.4,0l0.2,0.2
		c0.2,0.2,0.3,0.4,0.3,0.7S21.1,4.5,20.9,4.7z"/>
	<path d="M20,11c-0.6,0-1,0.4-1,1v6c0,0.6-0.4,1-1,1H6c-0.6,0-1-0.4-1-1V6c0-0.6,0.4-1,1-1h6c0.6,0,1-0.4,1-1s-0.4-1-1-1H6
		C4.3,3,3,4.3,3,6v12c0,1.7,1.3,3,3,3h12c1.7,0,3-1.3,3-3v-6C21,11.4,20.6,11,20,11z"/>
</g>
</svg>
