<svg xmlns="http://www.w3.org/2000/svg" width="24" height="24" viewBox="0 0 24 24">
  <title>SeekIconTemplate24px_03_outline</title>
  <g id="_02" data-name="02">
    <g id="people">
      <g id="new_artwork-2" data-name="new artwork">
        <path d="M14.77161,4.02307C14.84833,4.01715,14.92181,4,15,4a3,3,0,0,1,0,6c-.07819,0-.15167-.01715-.22839-.02307a6.529,6.529,0,0,1-1.32508,1.7511A4.934,4.934,0,0,0,15,12,5,5,0,0,0,15,2a4.934,4.934,0,0,0-1.55347.272A6.529,6.529,0,0,1,14.77161,4.02307Z"/>
        <path d="M17,14H15.14734a6.54014,6.54014,0,0,1,1.61316,2H17a3.00328,3.00328,0,0,1,3,3v2a1,1,0,0,0,2,0V19A5.00588,5.00588,0,0,0,17,14Z"/>
        <path d="M9,12a5,5,0,1,1,5-5A5.00588,5.00588,0,0,1,9,12ZM9,4a3,3,0,1,0,3,3A3.00328,3.00328,0,0,0,9,4Z"/>
        <path d="M15,22a.99943.99943,0,0,1-1-1V19a3.00328,3.00328,0,0,0-3-3H7a3.00328,3.00328,0,0,0-3,3v2a1,1,0,0,1-2,0V19a5.00588,5.00588,0,0,1,5-5h4a5.00588,5.00588,0,0,1,5,5v2A.99943.99943,0,0,1,15,22Z"/>
      </g>
    </g>
  </g>
</svg>
