<svg xmlns="http://www.w3.org/2000/svg" width="24" height="24" viewBox="0 0 24 24">
  <title>SeekIconTemplate24px_03</title>
  <g id="_08" data-name="08">
    <g id="phone">
      <g id="artwork-22" data-name="artwork">
        <path d="M18.33789,20.999a2.45029,2.45029,0,0,1-.292-.0166A17.20521,17.20521,0,0,1,3.01758,5.9541a2.62967,2.62967,0,0,1,.65527-2.04687A2.72292,2.72292,0,0,1,5.69922,3H8.98828a1.0004,1.0004,0,0,1,.89453.55273l1.69434,3.3877a1.00049,1.00049,0,0,1-.0625,1.00195L10.18457,9.9375a14.43865,14.43865,0,0,0,3.75488,3.791l1.11817-1.11817a1.00338,1.00338,0,0,1,1.07812-.22168L20.37109,14.083A1.00045,1.00045,0,0,1,21,15.01172v3.28906a2.72292,2.72292,0,0,1-.90723,2.02637A2.64133,2.64133,0,0,1,18.33789,20.999ZM5.69922,5a.71675.71675,0,0,0-.53418.23926.63015.63015,0,0,0-.16113.48828A15.19113,15.19113,0,0,0,18.27246,18.99609a.64908.64908,0,0,0,.48828-.16113A.71675.71675,0,0,0,19,18.30078v-2.6123l-2.99414-1.19727-1.22852,1.22754a.99787.99787,0,0,1-1.23632.1416A16.49521,16.49521,0,0,1,8.13867,10.457a.99848.99848,0,0,1,.01758-1.082L9.52832,7.31641,8.37012,5Z"/>
      </g>
    </g>
  </g>
</svg>
