<svg width="713" height="350" viewBox="0 0 713 350" fill="none" xmlns="http://www.w3.org/2000/svg">
<path d="M283.869 283.273H287.298L294.156 294.815H294.446L301.304 283.273H304.733L295.798 297.81V308H292.804V297.81L283.869 283.273ZM313.13 308.386C311.456 308.386 309.987 307.988 308.723 307.191C307.468 306.394 306.486 305.279 305.777 303.847C305.077 302.414 304.727 300.74 304.727 298.824C304.727 296.892 305.077 295.206 305.777 293.765C306.486 292.324 307.468 291.205 308.723 290.408C309.987 289.612 311.456 289.213 313.13 289.213C314.805 289.213 316.27 289.612 317.525 290.408C318.789 291.205 319.771 292.324 320.471 293.765C321.18 295.206 321.534 296.892 321.534 298.824C321.534 300.74 321.18 302.414 320.471 303.847C319.771 305.279 318.789 306.394 317.525 307.191C316.27 307.988 314.805 308.386 313.13 308.386ZM313.13 305.827C314.402 305.827 315.449 305.501 316.27 304.849C317.091 304.197 317.698 303.339 318.093 302.277C318.487 301.214 318.684 300.063 318.684 298.824C318.684 297.584 318.487 296.429 318.093 295.359C317.698 294.288 317.091 293.423 316.27 292.763C315.449 292.103 314.402 291.773 313.13 291.773C311.859 291.773 310.812 292.103 309.991 292.763C309.17 293.423 308.562 294.288 308.168 295.359C307.774 296.429 307.576 297.584 307.576 298.824C307.576 300.063 307.774 301.214 308.168 302.277C308.562 303.339 309.17 304.197 309.991 304.849C310.812 305.501 311.859 305.827 313.13 305.827ZM337.571 300.418V289.455H340.42V308H337.571V304.861H337.378C336.943 305.803 336.267 306.603 335.349 307.263C334.432 307.915 333.273 308.241 331.872 308.241C330.713 308.241 329.683 307.988 328.781 307.481C327.88 306.966 327.171 306.193 326.656 305.163C326.141 304.124 325.883 302.816 325.883 301.239V289.455H328.733V301.045C328.733 302.398 329.111 303.476 329.868 304.281C330.632 305.086 331.606 305.489 332.79 305.489C333.498 305.489 334.218 305.308 334.951 304.945C335.691 304.583 336.311 304.028 336.81 303.279C337.317 302.531 337.571 301.577 337.571 300.418ZM359.403 308L353.753 289.455H356.747L360.756 303.653H360.949L364.909 289.455H367.952L371.864 303.605H372.057L376.065 289.455H379.06L373.409 308H370.608L366.551 293.753H366.261L362.205 308H359.403ZM389.73 308.386C388.056 308.386 386.587 307.988 385.323 307.191C384.067 306.394 383.085 305.279 382.377 303.847C381.677 302.414 381.327 300.74 381.327 298.824C381.327 296.892 381.677 295.206 382.377 293.765C383.085 292.324 384.067 291.205 385.323 290.408C386.587 289.612 388.056 289.213 389.73 289.213C391.404 289.213 392.869 289.612 394.125 290.408C395.389 291.205 396.371 292.324 397.071 293.765C397.779 295.206 398.133 296.892 398.133 298.824C398.133 300.74 397.779 302.414 397.071 303.847C396.371 305.279 395.389 306.394 394.125 307.191C392.869 307.988 391.404 308.386 389.73 308.386ZM389.73 305.827C391.002 305.827 392.048 305.501 392.869 304.849C393.69 304.197 394.298 303.339 394.692 302.277C395.087 301.214 395.284 300.063 395.284 298.824C395.284 297.584 395.087 296.429 394.692 295.359C394.298 294.288 393.69 293.423 392.869 292.763C392.048 292.103 391.002 291.773 389.73 291.773C388.458 291.773 387.412 292.103 386.591 292.763C385.77 293.423 385.162 294.288 384.768 295.359C384.373 296.429 384.176 297.584 384.176 298.824C384.176 300.063 384.373 301.214 384.768 302.277C385.162 303.339 385.77 304.197 386.591 304.849C387.412 305.501 388.458 305.827 389.73 305.827ZM405.332 296.844V308H402.483V289.455H405.236V292.352H405.477C405.912 291.411 406.572 290.654 407.457 290.082C408.343 289.503 409.486 289.213 410.886 289.213C412.142 289.213 413.241 289.471 414.183 289.986C415.124 290.493 415.857 291.266 416.38 292.304C416.903 293.334 417.165 294.638 417.165 296.216V308H414.315V296.409C414.315 294.952 413.937 293.817 413.18 293.004C412.424 292.183 411.385 291.773 410.065 291.773C409.156 291.773 408.343 291.97 407.626 292.364C406.918 292.759 406.359 293.334 405.948 294.091C405.538 294.848 405.332 295.765 405.332 296.844ZM426.139 283.273L425.897 301.045H423.096L422.855 283.273H426.139ZM424.497 308.193C423.901 308.193 423.39 307.98 422.963 307.553C422.537 307.127 422.323 306.616 422.323 306.02C422.323 305.424 422.537 304.913 422.963 304.487C423.39 304.06 423.901 303.847 424.497 303.847C425.092 303.847 425.603 304.06 426.03 304.487C426.457 304.913 426.67 305.424 426.67 306.02C426.67 306.414 426.569 306.777 426.368 307.107C426.175 307.437 425.913 307.702 425.583 307.903C425.261 308.097 424.899 308.193 424.497 308.193Z" fill="white"/>
<g clip-path="url(#clip0_125_332)">
<rect x="258.5" y="47.5" width="197" height="197" rx="65.4102" fill="#495A79"/>
<path d="M273.506 116.373C273.506 86.623 297.623 62.5059 327.373 62.5059H343.47C347.72 62.5059 351.165 65.9512 351.165 70.2012V132.47C351.165 136.72 347.72 140.165 343.47 140.165H281.201C276.951 140.165 273.506 136.72 273.506 132.47V116.373Z" fill="#FFCD33"/>
<path d="M273.506 159.404C273.506 155.154 276.951 151.708 281.201 151.708H343.47C347.72 151.708 351.165 155.154 351.165 159.404V221.673C351.165 225.923 347.72 229.368 343.47 229.368H327.373C297.623 229.368 273.506 205.251 273.506 175.501V159.404Z" fill="#D94158"/>
<path d="M362.708 70.2012C362.708 65.9512 366.154 62.5059 370.404 62.5059H386.501C416.251 62.5059 440.368 86.623 440.368 116.373V132.47C440.368 136.72 436.923 140.165 432.673 140.165H370.404C366.154 140.165 362.708 136.72 362.708 132.47V70.2012Z" fill="#4596E6"/>
<path d="M362.708 159.404C362.708 155.154 366.154 151.708 370.404 151.708H432.673C436.923 151.708 440.368 155.154 440.368 159.404V175.501C440.368 205.251 416.251 229.368 386.501 229.368H370.404C366.154 229.368 362.708 225.923 362.708 221.673V159.404Z" fill="#25B987"/>
<circle cx="357" cy="146" r="38.0918" fill="#E0E4EC" stroke="#495A79" stroke-width="11.543"/>
<rect x="336.607" y="140.229" width="40.7852" height="11.543" fill="#8C98B0"/>
</g>
<defs>
<clipPath id="clip0_125_332">
<rect width="197" height="197" fill="white" transform="translate(258 47)"/>
</clipPath>
</defs>
</svg>
