<!-- Sourced from https://IconBuddy.app -->
<svg xmlns="http://www.w3.org/2000/svg" viewBox="0 0 32 32">
  <path fill="currentColor"
    d="M20 3c-4.945 0-9 4.055-9 9c0 .52.085.978.156 1.438L3.28 21.28l-.28.314V29h7v-3h3v-3h3v-2.97c1.18.58 2.555.97 4 .97c4.945 0 9-4.055 9-9s-4.055-9-9-9zm0 2c3.855 0 7 3.145 7 7s-3.145 7-7 7a7.37 7.37 0 0 1-3.406-.875l-.25-.125H14v3h-3v3H8v3H5v-4.563l7.906-7.937l.375-.344l-.092-.53c-.1-.6-.188-1.137-.188-1.626c0-3.855 3.145-7 7-7zm2 3a2 2 0 1 0-.001 3.999A2 2 0 0 0 22 8z" />
</svg>