<svg xmlns="http://www.w3.org/2000/svg" id="host-maintenance-" width="38" height="38" y="1824" data-name="Layer 1" style="fill:#fafafa" viewBox="-1 -1 38 38"><defs><style>.bwvmw-color-yellow{fill:#fac400}</style></defs><path d="M26.65 2H9.35A1.33 1.33 0 0 0 8 3.31V34h20V3.31A1.33 1.33 0 0 0 26.65 2zM26 32H10V4h16z"/><path d="M12 6h12v2H12zm0 4h12v2H12zm6 16a1 1 0 1 1-1 1 1 1 0 0 1 1-1m0-2a3 3 0 1 0 3 3 3 3 0 0 0-3-3z"/><path d="M0 0h36v36H0z" style="fill:none"/><path d="M6.57 14H2v8l4.57-8z"/><path d="M11.16 14H6.59l-4.57 8h4.57l4.57-8z" class="bwvmw-color-yellow"/><path d="M15.73 14h-4.57l-4.57 8h4.57l4.57-8z"/><path d="M20.3 14h-4.57l-4.57 8h4.57l4.57-8z" class="bwvmw-color-yellow"/><path d="M24.86 14H20.3l-4.57 8h4.57l4.56-8z"/><path d="M29.43 14h-4.57l-4.56 8h4.56l4.57-8z" class="bwvmw-color-yellow"/><path d="M34 14h-4.57l-4.57 8h4.57L34 14z"/><path d="m33.98 14-4.57 8h4.57v-8z" class="bwvmw-color-yellow"/></svg>