<svg xmlns="http://www.w3.org/2000/svg" viewBox="0 0 24 24" id="pineapple">
  <path d="M22.35,12.72,17.5,7.87a5.31,5.31,0,0,0-5.62-1.25,4.52,4.52,0,0,1-.07-.75,4.93,4.93,0,0,1,1-3,.5.5,0,0,0-.52-.79,5.84,5.84,0,0,0-2.54,1.4,4.92,4.92,0,0,1,1-2.69A.5.5,0,0,0,10.21,0,5.88,5.88,0,0,0,6.67,2.67a5.58,5.58,0,0,0-.45.91A5.39,5.39,0,0,0,5.73,3a4.14,4.14,0,0,0-3.6-1.17.5.5,0,0,0-.36.36A4.15,4.15,0,0,0,2.94,5.8a5.64,5.64,0,0,0,.58.49,5.25,5.25,0,0,0-.89.44A5.84,5.84,0,0,0,0,10.31a.5.5,0,0,0,.79.52,4.86,4.86,0,0,1,2.69-1A5.86,5.86,0,0,0,2,12.39a.5.5,0,0,0,.79.52,4.86,4.86,0,0,1,3-1,4.73,4.73,0,0,1,.76.07,5.4,5.4,0,0,0,1.26,5.61l4.85,4.85a5.39,5.39,0,0,0,7.63,0l2.08-2.08A5.41,5.41,0,0,0,22.35,12.72Zm-1.64-.23.93.93,0,.05-1.18.21Zm-4-3.95,0,0,.95,1-1.19.21Zm1.85,1.85,1.24,1.24-.39,2.24-3.73.65.65-3.74ZM12.3,7.53a4.19,4.19,0,0,1,3.56.35l-.35,2-3.73.65Zm3,3.43-.65,3.74-3.73.65.65-3.74Zm-4.6-.22L8,11.21a4.36,4.36,0,0,1,.45-.56l2.08-2.08a4.44,4.44,0,0,1,.61-.51Zm-7.2.61A5,5,0,0,1,5,9.84a.5.5,0,0,0-.19-.9,6,6,0,0,0-3.31.34A4.85,4.85,0,0,1,3.14,7.59,4.39,4.39,0,0,1,4.8,7,.5.5,0,0,0,5,6.05a6.75,6.75,0,0,1-1.32-1,3.42,3.42,0,0,1-1-2.33A3.5,3.5,0,0,1,5,3.72,6.66,6.66,0,0,1,6,5a.5.5,0,0,0,.93-.17A4.62,4.62,0,0,1,7.52,3.2,4.89,4.89,0,0,1,9.18,1.55a6,6,0,0,0-.44,2.24,5.48,5.48,0,0,0,.11,1.07.5.5,0,0,0,.39.39A.51.51,0,0,0,9.75,5a4.94,4.94,0,0,1,1.51-1.42,6,6,0,0,0-.44,2.24A5.31,5.31,0,0,0,11,7.05a5.4,5.4,0,0,0-1.08.82L7.79,9.95A5.34,5.34,0,0,0,7,11.06,6,6,0,0,0,3.53,11.36Zm6,6.52-1-1-.07-.08,1.28-.22Zm-1.71-2a4.4,4.4,0,0,1-.31-3.57l3.08-.53L9.9,15.53Zm5.66,5.92-.1-.08-1-1,1.3-.23Zm-1.94-1.92-1.15-1.15.41-2.35,3.73-.65-.65,3.74Zm6.41,2.87a4.21,4.21,0,0,1-3.57-.3l.37-2.11,3.73-.65Zm-3-3.46.65-3.74,3.73-.65-.65,3.74Zm6.75.35-2.08,2.08a4.42,4.42,0,0,1-.53.44l.46-2.65,2.64-.46A4.38,4.38,0,0,1,21.65,19.66Zm-2-1.18.65-3.74,2-.35A4.4,4.4,0,0,1,22.68,18Z" fill="#ffffff" class="color000000 svgShape"></path>
</svg>