<svg xmlns="http://www.w3.org/2000/svg" viewBox="0 0 256 256"><rect width="256" height="256" fill="none"/><path d="M120,208H40a8,8,0,0,1-8-8V64a8,8,0,0,1,8-8H93.33a8,8,0,0,1,4.8,1.6l27.74,20.8a8,8,0,0,0,4.8,1.6H216a8,8,0,0,1,8,8v32" fill="none" stroke="currentColor" stroke-linecap="round" stroke-linejoin="round" stroke-width="8"/><polygon points="184 198.54 213.67 216 205.6 183.41 232 161.61 197.35 158.94 184 128 170.65 158.94 136 161.61 162.4 183.41 154.33 216 184 198.54" fill="none" stroke="currentColor" stroke-linecap="round" stroke-linejoin="round" stroke-width="8"/></svg>