<svg xmlns="http://www.w3.org/2000/svg" viewBox="0 0 256 256"><rect width="256" height="256" fill="none"/><path d="M32,208V64a8,8,0,0,1,8-8H93.33a8,8,0,0,1,4.8,1.6l27.74,20.8a8,8,0,0,0,4.8,1.6H200a8,8,0,0,1,8,8v24" fill="none" stroke="currentColor" stroke-linecap="round" stroke-linejoin="round" stroke-width="8"/><path d="M32,208l30-75a8,8,0,0,1,7.43-5h48.16a8.07,8.07,0,0,0,4.44-1.34l20-13.32a8.07,8.07,0,0,1,4.44-1.34H232a8,8,0,0,1,7.59,10.53L211.09,208Z" fill="none" stroke="currentColor" stroke-linecap="round" stroke-linejoin="round" stroke-width="8"/></svg>