<svg xmlns="http://www.w3.org/2000/svg" viewBox="0 0 256 256"><rect width="256" height="256" fill="none"/><line x1="40" y1="112" x2="216" y2="112" fill="none" stroke="currentColor" stroke-linecap="round" stroke-linejoin="round" stroke-width="8"/><path d="M56,152a16,16,0,0,1-16-16V64A32,32,0,0,1,72,32H216V136a16,16,0,0,1-16,16H152a8,8,0,0,0-7.92,9.13L152,208a24,24,0,0,1-48,0l7.92-46.87A8,8,0,0,0,104,152Z" fill="none" stroke="currentColor" stroke-linecap="round" stroke-linejoin="round" stroke-width="8"/><line x1="184" y1="32" x2="184" y2="80" fill="none" stroke="currentColor" stroke-linecap="round" stroke-linejoin="round" stroke-width="8"/></svg>