<svg width="563" height="108" viewBox="0 0 563 108" fill="none" xmlns="http://www.w3.org/2000/svg">
<path d="M64.3092 0.259394C60.1163 -0.864113 55.8423 1.77302 54.9657 6.02449L50.9884 25.3158C48.3904 37.9168 38.5465 47.7653 25.9467 50.3692L7.02287 54.2801C2.77187 55.1586 0.13598 59.4329 1.25947 63.6258C2.38309 67.8192 6.8038 70.2029 10.9248 68.8373L29.3407 62.7351C41.5851 58.6779 55.0695 62.291 63.6448 71.9269L76.5434 86.4207C79.4289 89.6631 84.4482 89.8092 87.5174 86.74C90.5871 83.6703 90.4404 78.6501 87.1969 75.7648L72.609 62.7885C62.9468 54.1936 59.3239 40.6746 63.3932 28.3998L69.5188 9.92278C70.8847 5.80285 68.5018 1.38278 64.3092 0.259394Z" fill="url(#paint0_linear_1340_94)"></path>
<path d="M64.3092 0.259394C60.1163 -0.864113 55.8423 1.77302 54.9657 6.02449L50.9884 25.3158C48.3904 37.9168 38.5465 47.7653 25.9467 50.3692L7.02287 54.2801C2.77187 55.1586 0.13598 59.4329 1.25947 63.6258C2.38309 67.8192 6.8038 70.2029 10.9248 68.8373L29.3407 62.7351C41.5851 58.6779 55.0695 62.291 63.6448 71.9269L76.5434 86.4207C79.4289 89.6631 84.4482 89.8092 87.5174 86.74C90.5871 83.6703 90.4404 78.6501 87.1969 75.7648L72.609 62.7885C62.9468 54.1936 59.3239 40.6746 63.3932 28.3998L69.5188 9.92278C70.8847 5.80285 68.5018 1.38278 64.3092 0.259394Z" fill="url(#paint1_linear_1340_94)" fill-opacity="0.46"></path>
<path d="M64.3092 0.259394C60.1163 -0.864113 55.8423 1.77302 54.9657 6.02449L50.9884 25.3158C48.3904 37.9168 38.5465 47.7653 25.9467 50.3692L7.02287 54.2801C2.77187 55.1586 0.13598 59.4329 1.25947 63.6258C2.38309 67.8192 6.8038 70.2029 10.9248 68.8373L29.3407 62.7351C41.5851 58.6779 55.0695 62.291 63.6448 71.9269L76.5434 86.4207C79.4289 89.6631 84.4482 89.8092 87.5174 86.74C90.5871 83.6703 90.4404 78.6501 87.1969 75.7648L72.609 62.7885C62.9468 54.1936 59.3239 40.6746 63.3932 28.3998L69.5188 9.92278C70.8847 5.80285 68.5018 1.38278 64.3092 0.259394Z" fill="url(#paint2_linear_1340_94)" fill-opacity="0.66"></path>
<path d="M64.3092 0.259394C60.1163 -0.864113 55.8423 1.77302 54.9657 6.02449L50.9884 25.3158C48.3904 37.9168 38.5465 47.7653 25.9467 50.3692L7.02287 54.2801C2.77187 55.1586 0.13598 59.4329 1.25947 63.6258C2.38309 67.8192 6.8038 70.2029 10.9248 68.8373L29.3407 62.7351C41.5851 58.6779 55.0695 62.291 63.6448 71.9269L76.5434 86.4207C79.4289 89.6631 84.4482 89.8092 87.5174 86.74C90.5871 83.6703 90.4404 78.6501 87.1969 75.7648L72.609 62.7885C62.9468 54.1936 59.3239 40.6746 63.3932 28.3998L69.5188 9.92278C70.8847 5.80285 68.5018 1.38278 64.3092 0.259394Z" fill="url(#paint3_linear_1340_94)" fill-opacity="0.67"></path>
<path d="M64.3092 0.259394C60.1163 -0.864113 55.8423 1.77302 54.9657 6.02449L50.9884 25.3158C48.3904 37.9168 38.5465 47.7653 25.9467 50.3692L7.02287 54.2801C2.77187 55.1586 0.13598 59.4329 1.25947 63.6258C2.38309 67.8192 6.8038 70.2029 10.9248 68.8373L29.3407 62.7351C41.5851 58.6779 55.0695 62.291 63.6448 71.9269L76.5434 86.4207C79.4289 89.6631 84.4482 89.8092 87.5174 86.74C90.5871 83.6703 90.4404 78.6501 87.1969 75.7648L72.609 62.7885C62.9468 54.1936 59.3239 40.6746 63.3932 28.3998L69.5188 9.92278C70.8847 5.80285 68.5018 1.38278 64.3092 0.259394Z" fill="url(#paint4_linear_1340_94)"></path>
<path d="M64.3092 0.259394C60.1163 -0.864113 55.8423 1.77302 54.9657 6.02449L50.9884 25.3158C48.3904 37.9168 38.5465 47.7653 25.9467 50.3692L7.02287 54.2801C2.77187 55.1586 0.13598 59.4329 1.25947 63.6258C2.38309 67.8192 6.8038 70.2029 10.9248 68.8373L29.3407 62.7351C41.5851 58.6779 55.0695 62.291 63.6448 71.9269L76.5434 86.4207C79.4289 89.6631 84.4482 89.8092 87.5174 86.74C90.5871 83.6703 90.4404 78.6501 87.1969 75.7648L72.609 62.7885C62.9468 54.1936 59.3239 40.6746 63.3932 28.3998L69.5188 9.92278C70.8847 5.80285 68.5018 1.38278 64.3092 0.259394Z" fill="url(#paint5_radial_1340_94)" fill-opacity="0.94"></path>
<path d="M64.3092 0.259394C60.1163 -0.864113 55.8423 1.77302 54.9657 6.02449L50.9884 25.3158C48.3904 37.9168 38.5465 47.7653 25.9467 50.3692L7.02287 54.2801C2.77187 55.1586 0.13598 59.4329 1.25947 63.6258C2.38309 67.8192 6.8038 70.2029 10.9248 68.8373L29.3407 62.7351C41.5851 58.6779 55.0695 62.291 63.6448 71.9269L76.5434 86.4207C79.4289 89.6631 84.4482 89.8092 87.5174 86.74C90.5871 83.6703 90.4404 78.6501 87.1969 75.7648L72.609 62.7885C62.9468 54.1936 59.3239 40.6746 63.3932 28.3998L69.5188 9.92278C70.8847 5.80285 68.5018 1.38278 64.3092 0.259394Z" fill="url(#paint6_radial_1340_94)" fill-opacity="0.1"></path>
<path d="M14.1852 24.3911C10.7562 21.2887 10.6228 15.9476 13.8926 12.6779C17.1623 9.40812 22.5033 9.54156 25.6057 12.9705L35.3591 23.7506C37.99 26.6584 37.8785 31.1183 35.1058 33.8911C32.333 36.6639 27.873 36.7753 24.9653 34.1444L14.1852 24.3911Z" fill="url(#paint7_linear_1340_94)"></path>
<path d="M14.1852 24.3911C10.7562 21.2887 10.6228 15.9476 13.8926 12.6779C17.1623 9.40812 22.5033 9.54156 25.6057 12.9705L35.3591 23.7506C37.99 26.6584 37.8785 31.1183 35.1058 33.8911C32.333 36.6639 27.873 36.7753 24.9653 34.1444L14.1852 24.3911Z" fill="url(#paint8_linear_1340_94)" fill-opacity="0.46"></path>
<path d="M14.1852 24.3911C10.7562 21.2887 10.6228 15.9476 13.8926 12.6779C17.1623 9.40812 22.5033 9.54156 25.6057 12.9705L35.3591 23.7506C37.99 26.6584 37.8785 31.1183 35.1058 33.8911C32.333 36.6639 27.873 36.7753 24.9653 34.1444L14.1852 24.3911Z" fill="url(#paint9_linear_1340_94)" fill-opacity="0.66"></path>
<path d="M14.1852 24.3911C10.7562 21.2887 10.6228 15.9476 13.8926 12.6779C17.1623 9.40812 22.5033 9.54156 25.6057 12.9705L35.3591 23.7506C37.99 26.6584 37.8785 31.1183 35.1058 33.8911C32.333 36.6639 27.873 36.7753 24.9653 34.1444L14.1852 24.3911Z" fill="url(#paint10_linear_1340_94)" fill-opacity="0.67"></path>
<path d="M14.1852 24.3911C10.7562 21.2887 10.6228 15.9476 13.8926 12.6779C17.1623 9.40812 22.5033 9.54156 25.6057 12.9705L35.3591 23.7506C37.99 26.6584 37.8785 31.1183 35.1058 33.8911C32.333 36.6639 27.873 36.7753 24.9653 34.1444L14.1852 24.3911Z" fill="url(#paint11_linear_1340_94)"></path>
<path d="M14.1852 24.3911C10.7562 21.2887 10.6228 15.9476 13.8926 12.6779C17.1623 9.40812 22.5033 9.54156 25.6057 12.9705L35.3591 23.7506C37.99 26.6584 37.8785 31.1183 35.1058 33.8911C32.333 36.6639 27.873 36.7753 24.9653 34.1444L14.1852 24.3911Z" fill="url(#paint12_radial_1340_94)" fill-opacity="0.94"></path>
<path d="M14.1852 24.3911C10.7562 21.2887 10.6228 15.9476 13.8926 12.6779C17.1623 9.40812 22.5033 9.54156 25.6057 12.9705L35.3591 23.7506C37.99 26.6584 37.8785 31.1183 35.1058 33.8911C32.333 36.6639 27.873 36.7753 24.9653 34.1444L14.1852 24.3911Z" fill="url(#paint13_radial_1340_94)" fill-opacity="0.1"></path>
<path d="M90.0279 30.3514C94.4292 28.933 99.1214 31.488 100.318 35.9545C101.515 40.4211 98.7289 44.9798 94.2081 45.9521L79.9957 49.0088C76.162 49.8333 72.3553 47.5068 71.3404 43.7191C70.3255 39.9314 72.459 36.0133 76.1912 34.8105L90.0279 30.3514Z" fill="url(#paint14_linear_1340_94)"></path>
<path d="M90.0279 30.3514C94.4292 28.933 99.1214 31.488 100.318 35.9545C101.515 40.4211 98.7289 44.9798 94.2081 45.9521L79.9957 49.0088C76.162 49.8333 72.3553 47.5068 71.3404 43.7191C70.3255 39.9314 72.459 36.0133 76.1912 34.8105L90.0279 30.3514Z" fill="url(#paint15_linear_1340_94)" fill-opacity="0.46"></path>
<path d="M90.0279 30.3514C94.4292 28.933 99.1214 31.488 100.318 35.9545C101.515 40.4211 98.7289 44.9798 94.2081 45.9521L79.9957 49.0088C76.162 49.8333 72.3553 47.5068 71.3404 43.7191C70.3255 39.9314 72.459 36.0133 76.1912 34.8105L90.0279 30.3514Z" fill="url(#paint16_linear_1340_94)" fill-opacity="0.66"></path>
<path d="M90.0279 30.3514C94.4292 28.933 99.1214 31.488 100.318 35.9545C101.515 40.4211 98.7289 44.9798 94.2081 45.9521L79.9957 49.0088C76.162 49.8333 72.3553 47.5068 71.3404 43.7191C70.3255 39.9314 72.459 36.0133 76.1912 34.8105L90.0279 30.3514Z" fill="url(#paint17_linear_1340_94)" fill-opacity="0.67"></path>
<path d="M90.0279 30.3514C94.4292 28.933 99.1214 31.488 100.318 35.9545C101.515 40.4211 98.7289 44.9798 94.2081 45.9521L79.9957 49.0088C76.162 49.8333 72.3553 47.5068 71.3404 43.7191C70.3255 39.9314 72.459 36.0133 76.1912 34.8105L90.0279 30.3514Z" fill="url(#paint18_linear_1340_94)"></path>
<path d="M90.0279 30.3514C94.4292 28.933 99.1214 31.488 100.318 35.9545C101.515 40.4211 98.7289 44.9798 94.2081 45.9521L79.9957 49.0088C76.162 49.8333 72.3553 47.5068 71.3404 43.7191C70.3255 39.9314 72.459 36.0133 76.1912 34.8105L90.0279 30.3514Z" fill="url(#paint19_radial_1340_94)" fill-opacity="0.94"></path>
<path d="M90.0279 30.3514C94.4292 28.933 99.1214 31.488 100.318 35.9545C101.515 40.4211 98.7289 44.9798 94.2081 45.9521L79.9957 49.0088C76.162 49.8333 72.3553 47.5068 71.3404 43.7191C70.3255 39.9314 72.459 36.0133 76.1912 34.8105L90.0279 30.3514Z" fill="url(#paint20_radial_1340_94)" fill-opacity="0.1"></path>
<path d="M46.5794 93.3443C45.6071 97.8651 41.0484 100.651 36.5818 99.4544C32.1152 98.2575 29.5603 93.5654 30.9786 89.1641L35.4378 75.3274C36.6405 71.5952 40.5587 69.4617 44.3464 70.4766C48.134 71.4915 50.4605 75.2982 49.636 79.1318L46.5794 93.3443Z" fill="url(#paint21_linear_1340_94)"></path>
<path d="M46.5794 93.3443C45.6071 97.8651 41.0484 100.651 36.5818 99.4544C32.1152 98.2575 29.5603 93.5654 30.9786 89.1641L35.4378 75.3274C36.6405 71.5952 40.5587 69.4617 44.3464 70.4766C48.134 71.4915 50.4605 75.2982 49.636 79.1318L46.5794 93.3443Z" fill="url(#paint22_linear_1340_94)" fill-opacity="0.46"></path>
<path d="M46.5794 93.3443C45.6071 97.8651 41.0484 100.651 36.5818 99.4544C32.1152 98.2575 29.5603 93.5654 30.9786 89.1641L35.4378 75.3274C36.6405 71.5952 40.5587 69.4617 44.3464 70.4766C48.134 71.4915 50.4605 75.2982 49.636 79.1318L46.5794 93.3443Z" fill="url(#paint23_linear_1340_94)" fill-opacity="0.66"></path>
<path d="M46.5794 93.3443C45.6071 97.8651 41.0484 100.651 36.5818 99.4544C32.1152 98.2575 29.5603 93.5654 30.9786 89.1641L35.4378 75.3274C36.6405 71.5952 40.5587 69.4617 44.3464 70.4766C48.134 71.4915 50.4605 75.2982 49.636 79.1318L46.5794 93.3443Z" fill="url(#paint24_linear_1340_94)" fill-opacity="0.67"></path>
<path d="M46.5794 93.3443C45.6071 97.8651 41.0484 100.651 36.5818 99.4544C32.1152 98.2575 29.5603 93.5654 30.9786 89.1641L35.4378 75.3274C36.6405 71.5952 40.5587 69.4617 44.3464 70.4766C48.134 71.4915 50.4605 75.2982 49.636 79.1318L46.5794 93.3443Z" fill="url(#paint25_linear_1340_94)"></path>
<path d="M46.5794 93.3443C45.6071 97.8651 41.0484 100.651 36.5818 99.4544C32.1152 98.2575 29.5603 93.5654 30.9786 89.1641L35.4378 75.3274C36.6405 71.5952 40.5587 69.4617 44.3464 70.4766C48.134 71.4915 50.4605 75.2982 49.636 79.1318L46.5794 93.3443Z" fill="url(#paint26_radial_1340_94)" fill-opacity="0.94"></path>
<path d="M46.5794 93.3443C45.6071 97.8651 41.0484 100.651 36.5818 99.4544C32.1152 98.2575 29.5603 93.5654 30.9786 89.1641L35.4378 75.3274C36.6405 71.5952 40.5587 69.4617 44.3464 70.4766C48.134 71.4915 50.4605 75.2982 49.636 79.1318L46.5794 93.3443Z" fill="url(#paint27_radial_1340_94)" fill-opacity="0.1"></path>
<path d="M126 8H157.2C166.038 8 173.848 9.6 180.629 12.8C187.486 16 192.819 20.6476 196.629 26.7429C200.514 32.8381 202.457 39.9619 202.457 48.1143C202.457 56.4191 200.59 63.6191 196.857 69.7143C193.2 75.8095 187.981 80.4952 181.2 83.7714C174.419 86.9714 166.495 88.5714 157.429 88.5714H126V8ZM156.514 70.7429C161.162 70.7429 165.2 69.9048 168.629 68.2286C172.057 66.5524 174.724 64.0381 176.629 60.6857C178.533 57.3333 179.486 53.219 179.486 48.3429C179.486 43.3143 178.533 39.1238 176.629 35.7714C174.724 32.4191 172.057 29.9429 168.629 28.3429C165.2 26.6667 161.2 25.8286 156.629 25.8286H148.057V70.7429H156.514Z" fill="#F1F0EC"></path>
<path d="M239.53 90.2857C232.902 90.2857 226.997 89.0286 221.816 86.5143C216.711 84 212.711 80.4191 209.816 75.7714C206.921 71.1238 205.473 65.7524 205.473 59.6571C205.473 53.6381 206.921 48.3429 209.816 43.7714C212.711 39.1238 216.711 35.581 221.816 33.1429C226.997 30.6286 232.902 29.3714 239.53 29.3714C246.235 29.3714 252.14 30.6286 257.245 33.1429C262.426 35.581 266.464 39.1238 269.359 43.7714C272.254 48.3429 273.702 53.6381 273.702 59.6571C273.702 65.7524 272.254 71.1238 269.359 75.7714C266.464 80.4191 262.426 84 257.245 86.5143C252.14 89.0286 246.235 90.2857 239.53 90.2857ZM239.53 74.7429C242.121 74.7429 244.368 74.1333 246.273 72.9143C248.178 71.6191 249.664 69.8286 250.73 67.5429C251.797 65.2572 252.33 62.6286 252.33 59.6571C252.33 56.6857 251.797 54.0952 250.73 51.8857C249.74 49.6 248.292 47.8476 246.387 46.6286C244.483 45.4095 242.235 44.8 239.645 44.8C237.054 44.8 234.768 45.4095 232.787 46.6286C230.883 47.8476 229.397 49.6 228.33 51.8857C227.34 54.0952 226.845 56.6857 226.845 59.6571C226.845 62.6286 227.378 65.2952 228.445 67.6571C229.511 69.9429 230.997 71.6952 232.902 72.9143C234.807 74.1333 237.016 74.7429 239.53 74.7429Z" fill="#F1F0EC"></path>
<path d="M279.431 31.0857H299.774V38.5143C301.526 36.1524 304.003 34.0952 307.203 32.3429C310.479 30.5905 314.365 29.7143 318.86 29.7143C324.269 29.7143 329.031 30.9714 333.146 33.4857C337.336 35.9238 340.536 39.4286 342.746 44C345.031 48.4952 346.174 53.8286 346.174 60C346.174 65.8667 345.031 71.1238 342.746 75.7714C340.46 80.3429 337.222 83.8857 333.031 86.4C328.841 88.9143 324.003 90.1714 318.517 90.1714C315.698 90.1714 313.146 89.8286 310.86 89.1429C308.574 88.5333 306.555 87.6571 304.803 86.5143C303.126 85.3714 301.717 84.1143 300.574 82.7429V108H279.431V31.0857ZM312.003 74.7429C314.593 74.7429 316.803 74.1714 318.631 73.0286C320.536 71.8095 322.022 70.0952 323.088 67.8857C324.155 65.6 324.688 62.8952 324.688 59.7714C324.688 56.6476 324.155 53.981 323.088 51.7714C322.098 49.4857 320.65 47.7714 318.746 46.6286C316.841 45.4095 314.593 44.8 312.003 44.8C309.488 44.8 307.279 45.4095 305.374 46.6286C303.469 47.7714 301.946 49.4857 300.803 51.7714C299.736 53.981 299.203 56.6476 299.203 59.7714C299.203 62.8191 299.736 65.4857 300.803 67.7714C301.869 70.0572 303.355 71.8095 305.26 73.0286C307.241 74.1714 309.488 74.7429 312.003 74.7429Z" fill="#F1F0EC"></path>
<path d="M351.98 31.0857H372.323V38.5143C374.076 36.1524 376.552 34.0952 379.752 32.3429C383.028 30.5905 386.914 29.7143 391.409 29.7143C396.818 29.7143 401.58 30.9714 405.695 33.4857C409.885 35.9238 413.085 39.4286 415.295 44C417.58 48.4952 418.723 53.8286 418.723 60C418.723 65.8667 417.58 71.1238 415.295 75.7714C413.009 80.3429 409.771 83.8857 405.58 86.4C401.39 88.9143 396.552 90.1714 391.066 90.1714C388.247 90.1714 385.695 89.8286 383.409 89.1429C381.123 88.5333 379.104 87.6571 377.352 86.5143C375.676 85.3714 374.266 84.1143 373.123 82.7429V108H351.98V31.0857ZM384.552 74.7429C387.142 74.7429 389.352 74.1714 391.18 73.0286C393.085 71.8095 394.571 70.0952 395.638 67.8857C396.704 65.6 397.237 62.8952 397.237 59.7714C397.237 56.6476 396.704 53.981 395.638 51.7714C394.647 49.4857 393.199 47.7714 391.295 46.6286C389.39 45.4095 387.142 44.8 384.552 44.8C382.038 44.8 379.828 45.4095 377.923 46.6286C376.018 47.7714 374.495 49.4857 373.352 51.7714C372.285 53.981 371.752 56.6476 371.752 59.7714C371.752 62.8191 372.285 65.4857 373.352 67.7714C374.418 70.0572 375.904 71.8095 377.809 73.0286C379.79 74.1714 382.038 74.7429 384.552 74.7429Z" fill="#F1F0EC"></path>
<path d="M424.529 8H445.672V88.5714H424.529V8Z" fill="#F1F0EC"></path>
<path d="M483.476 90.2857C476.771 90.2857 471.019 89.0286 466.219 86.5143C461.419 83.9238 457.724 80.3429 455.133 75.7714C452.619 71.1238 451.362 65.7143 451.362 59.5429C451.362 53.5238 452.657 48.2667 455.247 43.7714C457.914 39.2 461.647 35.6571 466.447 33.1429C471.324 30.6286 476.962 29.3714 483.362 29.3714C490.6 29.3714 496.695 30.8571 501.647 33.8286C506.676 36.8 510.295 40.9143 512.504 46.1714C514.79 51.4286 515.628 57.4095 515.019 64.1143H471.704C471.704 66.781 472.162 69.0667 473.076 70.9714C474.066 72.8762 475.4 74.3619 477.076 75.4286C478.828 76.419 480.885 76.9143 483.247 76.9143C486.219 76.9143 488.581 76.3048 490.333 75.0857C492.162 73.8667 493.533 72.1524 494.447 69.9429H514.104C513.343 73.6762 511.704 77.0667 509.19 80.1143C506.676 83.1619 503.247 85.6381 498.904 87.5429C494.562 89.3714 489.419 90.2857 483.476 90.2857ZM494.676 53.3714C494.523 51.0095 493.952 49.0286 492.962 47.4286C492.047 45.7524 490.752 44.4952 489.076 43.6572C487.4 42.8191 485.495 42.4 483.362 42.4C480.085 42.4 477.457 43.3905 475.476 45.3714C473.495 47.2762 472.314 49.9429 471.933 53.3714H494.676Z" fill="#F1F0EC"></path>
<path d="M520.967 31.0857H541.31V42.7429C542.986 39.2381 545.424 36.2667 548.624 33.8286C551.824 31.3143 556.205 30.0571 561.767 30.0571H562.796V49.4857H557.653C553.691 49.4857 550.567 50.0952 548.281 51.3143C545.996 52.4571 544.396 54.2095 543.481 56.5714C542.567 58.8571 542.11 61.9048 542.11 65.7143V88.5714H520.967V31.0857Z" fill="#F1F0EC"></path>
<defs>
<linearGradient id="paint0_linear_1340_94" x1="7.23327" y1="62.3326" x2="48.1235" y2="30.169" gradientUnits="userSpaceOnUse">
<stop stop-color="#FF9EFA"></stop>
<stop offset="0.422647" stop-color="#F55C15" stop-opacity="0.84"></stop>
<stop offset="1" stop-color="#6B13F5"></stop>
</linearGradient>
<linearGradient id="paint1_linear_1340_94" x1="55.6034" y1="45.8768" x2="41.1422" y2="93.9976" gradientUnits="userSpaceOnUse">
<stop stop-color="#A73394" stop-opacity="0"></stop>
<stop offset="1" stop-color="#6B13F5"></stop>
</linearGradient>
<linearGradient id="paint2_linear_1340_94" x1="84.0271" y1="87.0164" x2="39.3969" y2="54.6034" gradientUnits="userSpaceOnUse">
<stop offset="0.385417" stop-color="#6B13F5"></stop>
<stop offset="1" stop-color="#E2606E" stop-opacity="0"></stop>
</linearGradient>
<linearGradient id="paint3_linear_1340_94" x1="25.9331" y1="4.73728" x2="29.9223" y2="37.8983" gradientUnits="userSpaceOnUse">
<stop offset="0.182292" stop-color="#6B13F5"></stop>
<stop offset="1" stop-color="#CB4758" stop-opacity="0"></stop>
</linearGradient>
<linearGradient id="paint4_linear_1340_94" x1="64.5793" y1="35.9036" x2="37.6516" y2="52.3594" gradientUnits="userSpaceOnUse">
<stop stop-color="#6B13F5"></stop>
<stop offset="1" stop-color="#E46373" stop-opacity="0"></stop>
</linearGradient>
<radialGradient id="paint5_radial_1340_94" cx="0" cy="0" r="1" gradientUnits="userSpaceOnUse" gradientTransform="translate(38.6489 53.1074) rotate(176.204) scale(52.7244 138.365)">
<stop stop-color="#F55C15" stop-opacity="0.46"></stop>
<stop offset="0.831969" stop-color="#EE82C6" stop-opacity="0"></stop>
</radialGradient>
<radialGradient id="paint6_radial_1340_94" cx="0" cy="0" r="1" gradientUnits="userSpaceOnUse" gradientTransform="translate(-1.49331 68.0673) rotate(-19.7843) scale(36.8309 36.7807)">
<stop stop-color="#FF9EFA"></stop>
<stop offset="1" stop-color="#DD5A68" stop-opacity="0"></stop>
</radialGradient>
<linearGradient id="paint7_linear_1340_94" x1="7.23327" y1="62.3326" x2="48.1235" y2="30.169" gradientUnits="userSpaceOnUse">
<stop stop-color="#FF9EFA"></stop>
<stop offset="0.422647" stop-color="#F55C15" stop-opacity="0.84"></stop>
<stop offset="1" stop-color="#6B13F5"></stop>
</linearGradient>
<linearGradient id="paint8_linear_1340_94" x1="55.6034" y1="45.8768" x2="41.1422" y2="93.9976" gradientUnits="userSpaceOnUse">
<stop stop-color="#A73394" stop-opacity="0"></stop>
<stop offset="1" stop-color="#6B13F5"></stop>
</linearGradient>
<linearGradient id="paint9_linear_1340_94" x1="84.0271" y1="87.0164" x2="39.3969" y2="54.6034" gradientUnits="userSpaceOnUse">
<stop offset="0.385417" stop-color="#6B13F5"></stop>
<stop offset="1" stop-color="#E2606E" stop-opacity="0"></stop>
</linearGradient>
<linearGradient id="paint10_linear_1340_94" x1="25.9331" y1="4.73728" x2="29.9223" y2="37.8983" gradientUnits="userSpaceOnUse">
<stop offset="0.182292" stop-color="#6B13F5"></stop>
<stop offset="1" stop-color="#CB4758" stop-opacity="0"></stop>
</linearGradient>
<linearGradient id="paint11_linear_1340_94" x1="64.5793" y1="35.9036" x2="37.6516" y2="52.3594" gradientUnits="userSpaceOnUse">
<stop stop-color="#6B13F5"></stop>
<stop offset="1" stop-color="#E46373" stop-opacity="0"></stop>
</linearGradient>
<radialGradient id="paint12_radial_1340_94" cx="0" cy="0" r="1" gradientUnits="userSpaceOnUse" gradientTransform="translate(38.6489 53.1074) rotate(176.204) scale(52.7244 138.365)">
<stop stop-color="#F55C15" stop-opacity="0.46"></stop>
<stop offset="0.831969" stop-color="#EE82C6" stop-opacity="0"></stop>
</radialGradient>
<radialGradient id="paint13_radial_1340_94" cx="0" cy="0" r="1" gradientUnits="userSpaceOnUse" gradientTransform="translate(-1.49331 68.0673) rotate(-19.7843) scale(36.8309 36.7807)">
<stop stop-color="#FF9EFA"></stop>
<stop offset="1" stop-color="#DD5A68" stop-opacity="0"></stop>
</radialGradient>
<linearGradient id="paint14_linear_1340_94" x1="7.23327" y1="62.3326" x2="48.1235" y2="30.169" gradientUnits="userSpaceOnUse">
<stop stop-color="#FF9EFA"></stop>
<stop offset="0.422647" stop-color="#F55C15" stop-opacity="0.84"></stop>
<stop offset="1" stop-color="#6B13F5"></stop>
</linearGradient>
<linearGradient id="paint15_linear_1340_94" x1="55.6034" y1="45.8768" x2="41.1422" y2="93.9976" gradientUnits="userSpaceOnUse">
<stop stop-color="#A73394" stop-opacity="0"></stop>
<stop offset="1" stop-color="#6B13F5"></stop>
</linearGradient>
<linearGradient id="paint16_linear_1340_94" x1="84.0271" y1="87.0164" x2="39.3969" y2="54.6034" gradientUnits="userSpaceOnUse">
<stop offset="0.385417" stop-color="#6B13F5"></stop>
<stop offset="1" stop-color="#E2606E" stop-opacity="0"></stop>
</linearGradient>
<linearGradient id="paint17_linear_1340_94" x1="25.9331" y1="4.73728" x2="29.9223" y2="37.8983" gradientUnits="userSpaceOnUse">
<stop offset="0.182292" stop-color="#6B13F5"></stop>
<stop offset="1" stop-color="#CB4758" stop-opacity="0"></stop>
</linearGradient>
<linearGradient id="paint18_linear_1340_94" x1="64.5793" y1="35.9036" x2="37.6516" y2="52.3594" gradientUnits="userSpaceOnUse">
<stop stop-color="#6B13F5"></stop>
<stop offset="1" stop-color="#E46373" stop-opacity="0"></stop>
</linearGradient>
<radialGradient id="paint19_radial_1340_94" cx="0" cy="0" r="1" gradientUnits="userSpaceOnUse" gradientTransform="translate(38.6489 53.1074) rotate(176.204) scale(52.7244 138.365)">
<stop stop-color="#F55C15" stop-opacity="0.46"></stop>
<stop offset="0.831969" stop-color="#EE82C6" stop-opacity="0"></stop>
</radialGradient>
<radialGradient id="paint20_radial_1340_94" cx="0" cy="0" r="1" gradientUnits="userSpaceOnUse" gradientTransform="translate(-1.49331 68.0673) rotate(-19.7843) scale(36.8309 36.7807)">
<stop stop-color="#FF9EFA"></stop>
<stop offset="1" stop-color="#DD5A68" stop-opacity="0"></stop>
</radialGradient>
<linearGradient id="paint21_linear_1340_94" x1="7.23327" y1="62.3326" x2="48.1235" y2="30.169" gradientUnits="userSpaceOnUse">
<stop stop-color="#FF9EFA"></stop>
<stop offset="0.422647" stop-color="#F55C15" stop-opacity="0.84"></stop>
<stop offset="1" stop-color="#6B13F5"></stop>
</linearGradient>
<linearGradient id="paint22_linear_1340_94" x1="55.6034" y1="45.8768" x2="41.1422" y2="93.9976" gradientUnits="userSpaceOnUse">
<stop stop-color="#A73394" stop-opacity="0"></stop>
<stop offset="1" stop-color="#6B13F5"></stop>
</linearGradient>
<linearGradient id="paint23_linear_1340_94" x1="84.0271" y1="87.0164" x2="39.3969" y2="54.6034" gradientUnits="userSpaceOnUse">
<stop offset="0.385417" stop-color="#6B13F5"></stop>
<stop offset="1" stop-color="#E2606E" stop-opacity="0"></stop>
</linearGradient>
<linearGradient id="paint24_linear_1340_94" x1="25.9331" y1="4.73728" x2="29.9223" y2="37.8983" gradientUnits="userSpaceOnUse">
<stop offset="0.182292" stop-color="#6B13F5"></stop>
<stop offset="1" stop-color="#CB4758" stop-opacity="0"></stop>
</linearGradient>
<linearGradient id="paint25_linear_1340_94" x1="64.5793" y1="35.9036" x2="37.6516" y2="52.3594" gradientUnits="userSpaceOnUse">
<stop stop-color="#6B13F5"></stop>
<stop offset="1" stop-color="#E46373" stop-opacity="0"></stop>
</linearGradient>
<radialGradient id="paint26_radial_1340_94" cx="0" cy="0" r="1" gradientUnits="userSpaceOnUse" gradientTransform="translate(38.6489 53.1074) rotate(176.204) scale(52.7244 138.365)">
<stop stop-color="#F55C15" stop-opacity="0.46"></stop>
<stop offset="0.831969" stop-color="#EE82C6" stop-opacity="0"></stop>
</radialGradient>
<radialGradient id="paint27_radial_1340_94" cx="0" cy="0" r="1" gradientUnits="userSpaceOnUse" gradientTransform="translate(-1.49331 68.0673) rotate(-19.7843) scale(36.8309 36.7807)">
<stop stop-color="#FF9EFA"></stop>
<stop offset="1" stop-color="#DD5A68" stop-opacity="0"></stop>
</radialGradient>
</defs>
</svg>
