<svg xmlns="http://www.w3.org/2000/svg" viewBox="0 0 34 32"><path d="M16.734 15.43c.115.01.108-.086.109-.162.002-.266.001-.532.001-.798 0-.283.001-.566-.001-.85 0-.068.001-.15-.096-.15s-.095.081-.095.15a452.65 452.65 0 0 0 0 1.648c0 .067-.01.154.083.162zM20.202 15.435c.107-.009.098-.103.098-.179v-.799-.825c0-.08-.004-.167-.112-.166-.105.001-.084.091-.084.155-.002.55-.002 1.1 0 1.65 0 .07-.028.175.098.165zM18.175 15.436c.092.004.111-.066.111-.14v-1.7c0-.079-.032-.139-.12-.13-.084.008-.073.082-.074.14l-.001.85c0 .275-.001.55.001.824.001.063-.023.151.083.155zM17.463 15.435c.093-.002.101-.078.101-.149v-1.674c0-.073-.012-.144-.106-.145-.107-.001-.088.086-.088.15-.002.275-.001.55-.001.824s-.002.55.001.824c.001.069-.033.172.093.17zM16.815 10.856c0-.06-.001-.133-.086-.128s-.074.081-.074.139l-.001.824c0 .275-.002.549.001.824.001.063-.02.155.085.153.084-.002.075-.081.075-.138v-1.674zM17.808 15.435c.109.007.116-.079.116-.16v-1.649c0-.081-.007-.167-.116-.16-.103.007-.077.097-.078.16-.003.275-.001.55-.001.824s-.001.55.001.824c.001.063-.025.153.078.16zM17.007 14.446c0 .275-.001.55.001.824.001.063-.025.154.074.164.107.011.121-.072.121-.156v-1.649c0-.079-.002-.17-.112-.164-.122.007-.08.113-.082.181-.005.266-.002.533-.002.799zM20.465 15.288c0 .065-.016.151.09.149.092-.002.106-.074.106-.147v-1.676c0-.072-.012-.145-.104-.149-.107-.004-.092.081-.092.147-.002.275-.001.55-.001.825 0 .284-.001.567.001.851zM13.992 12.701c.11.006.115-.081.115-.161 0-.557.001-1.114-.001-1.672 0-.07-.008-.145-.104-.146-.109-.001-.088.085-.088.148-.002.274-.001.549-.001.823 0 .283-.001.566.001.849.001.063-.024.153.079.159zM15.351 12.567c0 .06-.002.129.081.135.089.006.119-.054.119-.132v-1.701c0-.07-.008-.144-.104-.147-.105-.003-.096.078-.096.144l-.001.85v.85zM13.989 13.465c-.1.009-.075.099-.076.163-.002.275-.001.55-.001.825s-.001.55.001.825c.001.063-.023.154.081.158.108.004.115-.083.115-.163v-1.65c0-.083-.014-.167-.12-.158zM14.354 12.701c.11.006.114-.081.115-.161 0-.557.001-1.114-.001-1.672 0-.07-.008-.145-.104-.146-.109-.001-.088.085-.088.148-.002.274-.001.549-.001.823 0 .283-.002.566.001.849.001.063-.025.153.079.159zM14.996 12.565c0 .058-.009.131.077.137.09.006.117-.056.117-.134v-1.697c0-.069-.006-.145-.102-.148-.109-.004-.091.081-.091.145-.002.274-.001.549-.001.823v.874zM14.718 12.701c.092.004.11-.066.111-.14 0-.566.001-1.132-.001-1.697 0-.071-.012-.144-.108-.142-.109.002-.084.09-.084.152-.003.274-.001.549-.001.823 0 .283-.001.566.001.849.001.063-.024.151.083.155zM17.37 9.804c0 .063-.025.154.075.163.108.01.119-.074.119-.157v-.823c0-.274.001-.549-.001-.823-.001-.075.011-.17-.1-.175-.127-.005-.092.101-.092.168-.003.549-.002 1.097-.001 1.646zM18.613 10.874c0-.063.017-.154-.09-.146-.086.006-.068.086-.068.141-.002.265-.001.53-.001.795 0 .282-.002.564.001.846.001.062-.026.157.076.16s.082-.092.082-.155c.002-.547.002-1.094 0-1.642zM19.489 15.431c.096-.004.095-.083.095-.152v-.825-.825c0-.068.005-.149-.09-.157s-.108.066-.108.139v1.677c0 .071.006.148.103.144zM18.18 10.723c-.108 0-.087.086-.088.15-.002.274-.001.549-.001.823 0 .283-.001.566.001.849.001.063-.023.151.08.158.09.006.114-.062.114-.137v-1.697c0-.071-.013-.144-.107-.145zM17.097 10.723c-.108 0-.087.086-.088.15-.002.274-.001.549-.001.823 0 .283-.001.566.001.849.001.063-.023.151.081.158.09.006.114-.062.114-.137v-1.697c0-.071-.013-.145-.107-.145zM18.454 8.967c0 .274-.002.549.001.823.001.062-.025.154.085.15.085-.003.074-.081.074-.138V8.13c0-.057.011-.134-.075-.137-.111-.004-.083.089-.084.151-.003.274-.002.549-.002.823zM17.463 10.724c-.126-.005-.091.101-.092.169-.004.266-.002.531-.002.797 0 .283-.001.566.001.849.001.064-.024.154.076.163.106.009.12-.075.12-.157v-1.646c0-.076.006-.17-.103-.174zM17.824 10.724c-.126-.005-.091.101-.092.169-.004.266-.002.531-.002.797 0 .283-.001.566.001.849.001.064-.024.154.076.163.106.009.12-.075.12-.157v-1.646c0-.076.006-.17-.103-.174zM18.455 15.273c0 .056-.014.135.073.136.106.002.085-.089.085-.151.003-.265.001-.53.001-.795 0-.274.002-.547-.001-.821-.001-.063.019-.153-.088-.149-.087.004-.071.083-.071.138-.002.547-.002 1.094 0 1.642zM16.738 9.938c.099-.002.078-.096.079-.159.003-.265.001-.53.001-.796 0-.282.001-.565-.001-.847 0-.056.013-.134-.072-.141-.108-.009-.09.082-.09.145-.002.547-.002 1.095 0 1.642 0 .063-.02.157.082.155zM17.009 9.801c0 .07-.029.175.098.164.109-.009.095-.104.095-.179.002-.266.001-.531 0-.797 0-.274.001-.549-.001-.823-.001-.074.012-.17-.098-.176-.128-.008-.094.098-.094.166-.003.549-.002 1.097 0 1.646zM19.745 15.247c0 .074-.044.196.1.186.125-.009.098-.119.099-.2.003-.257.001-.513.001-.77 0-.265.001-.53-.001-.796-.001-.081.025-.192-.101-.199-.144-.008-.098.114-.098.187-.004.53-.004 1.061 0 1.591zM17.73 8.969c0 .283-.001.566.001.849 0 .064-.018.15.089.149.094-.001.104-.074.104-.146V8.15c0-.078-.003-.167-.114-.161-.107.005-.077.097-.078.158-.004.274-.002.549-.002.823zM18.091 8.978c0 .274-.002.549.001.823.001.07-.03.172.097.165.093-.005.096-.083.096-.153 0-.557.001-1.114-.001-1.671 0-.069-.003-.148-.097-.152-.128-.006-.094.098-.095.166-.004.274-.002.549-.002.823zM14.353 13.465c-.102.006-.078.097-.078.16-.002.275-.001.55-.001.825s-.001.55.001.825c.001.064-.023.154.078.161.107.007.118-.079.118-.16v-1.65c0-.082-.01-.167-.118-.161zM15.714 12.512c0 .062-.024.158.076.161.123.004.088-.105.089-.173.004-.266.002-.533.002-.799s.003-.533-.002-.799c-.001-.068.037-.177-.088-.174-.101.002-.077.097-.077.16-.002.541-.002 1.083 0 1.624zM11.257 15.435c.109.007.116-.079.116-.16v-1.649c0-.081-.007-.167-.116-.16-.103.007-.077.097-.078.16-.002.275-.001.55-.001.824s-.001.55.001.824c.001.063-.025.153.078.16zM10.247 15.277c0 .058-.004.133.084.129.086-.005.073-.081.074-.137.002-.274.001-.548.001-.822 0-.265.002-.531-.001-.796-.001-.061.026-.155-.082-.153-.084.001-.075.079-.076.136v1.644zM11.631 15.435c.11-.004.103-.095.103-.172v-1.641c0-.083-.014-.164-.121-.155-.098.008-.08.095-.081.16-.002.274-.001.547-.001.821s-.002.547.001.821c.001.071-.024.172.097.167zM11.897 15.259c.001.063-.019.153.088.15.086-.002.077-.078.078-.135V13.63c0-.057.01-.133-.075-.137-.107-.005-.089.084-.09.147-.002.265-.001.531-.001.797 0 .274-.002.548.001.822zM9.886 15.279c0 .059-.001.132.087.126.085-.005.076-.08.076-.137.002-.266.001-.532.001-.797 0-.274.002-.549-.001-.823-.001-.063.019-.154-.087-.151-.085.002-.076.079-.077.136v1.647zM12.619 15.261c0 .064-.017.156.089.148.1-.008.075-.099.076-.162.003-.265.001-.531.001-.796s.002-.531-.001-.797c-.001-.063.024-.154-.077-.161-.106-.007-.088.085-.088.149-.002.54-.002 1.079 0 1.619zM12.257 14.447c0 .274-.001.548.001.822 0 .056-.012.133.073.139.107.008.092-.081.092-.144.002-.54.002-1.079 0-1.619 0-.063.02-.156-.085-.152-.102.003-.079.095-.08.158-.003.265-.001.531-.001.797z"/><path d="M27.75 16.528c.145-.445.388-.553.849-.563 1.549-.033 2.799-.622 3.495-2.106.064-.137.058-.188-.078-.272-.993-.61-2.056-.722-3.175-.479-.097.021-.208.106-.243-.092-.165-.926-.665-1.663-1.336-2.296-.223-.21-.442-.427-.719-.57-.249.239-.479.498-.611.819-.528 1.28-.527 2.54.195 3.754.084.141.045.185-.074.244a6.964 6.964 0 0 1-.98.389c-.919.292-1.867.243-2.811.252-.191.002-.248-.046-.245-.242.012-.765-.007-1.531.012-2.295.006-.24-.072-.281-.289-.277-.696.013-1.393.007-2.089.004-.418-.002-.361.047-.362-.349-.002-1.634-.003-3.267.002-4.9.001-.169-.028-.24-.221-.238-.954.01-1.908.01-2.863 0-.188-.002-.227.061-.225.235.009.748-.006 1.496.01 2.244.005.231-.06.282-.284.281-1.651-.01-3.301-.002-4.952-.01-.208-.001-.254.061-.251.258.011.756 0 1.513.008 2.27.002.168-.044.217-.214.215-.756-.009-1.513.002-2.27-.008-.194-.003-.264.038-.26.25.014.782.001 1.565.009 2.347.002.168-.043.219-.214.216-.645-.01-1.289-.002-1.934-.006-.127-.001-.208.011-.22.169-.043.566-.082 1.131-.031 1.698.027.299.029.299-.276.238-.599-.12-1.143-.352-1.588-.806-.037.439-.157.617-.546.812-.4.2-.84.282-1.26.427 1.169 0 2.338.006 3.507-.005.199-.002.256.064.29.248a6.968 6.968 0 0 0 1.53 3.273c1.576 1.885 3.657 2.761 6.048 2.974 1.854.165 3.69-.01 5.495-.458 3.512-.873 6.301-2.77 8.236-5.862.085-.136.177-.174.331-.173 1.53.006 3.061.004 4.591.004h.261c-.289-.108-.584-.165-.863-.266-.462-.168-.959-.32-.944-.967-.154.124-.28.243-.423.337-.756.493-1.601.573-2.474.53-.155-.008-.115-.071-.071-.159.18-.36.401-.708.525-1.087zm-8.57-3.113c-.001-.141.059-.173.185-.173.679.004 1.358.004 2.037 0 .131-.001.186.048.186.181-.003.688-.003 1.375 0 2.063 0 .139-.069.174-.194.172-.335-.004-.671-.002-1.006-.002s-.671-.004-1.006.002c-.133.002-.205-.023-.204-.181.007-.688.006-1.375.001-2.063zm-.325-.693c.001.145-.057.196-.199.195a125.74 125.74 0 0 0-2.037.001c-.16.002-.182-.073-.179-.205.006-.335.002-.67.002-1.005s.005-.671-.003-1.005c-.003-.142.038-.197.188-.195.67.006 1.341.006 2.011 0 .151-.001.218.042.217.203-.005.67-.005 1.341 0 2.011zm-2.413-3.757c0-.327.006-.653-.003-.979-.004-.148.028-.215.196-.213.67.009 1.34.008 2.01.001.16-.002.209.057.207.21-.005.662-.005 1.323 0 1.985.001.153-.045.214-.206.213-.67-.006-1.34-.007-2.01.001-.166.002-.202-.062-.198-.212.009-.335.003-.67.003-1.005zm-.003 4.487c-.001-.15.032-.212.198-.21.67.008 1.34.008 2.009.001.161-.002.207.059.206.211-.005.661-.006 1.322 0 1.984.002.165-.049.229-.221.223-.334-.011-.67-.003-1.005-.003-.326 0-.653-.006-.979.003-.15.004-.213-.031-.211-.198.009-.67.007-1.339.001-2.009zm-2.535-2.944c.66.008 1.321.008 1.981 0 .158-.002.21.048.205.205-.01.334-.003.669-.003 1.003s-.005.669.003 1.003c.003.142-.04.197-.189.196-.669-.006-1.338-.006-2.007 0-.147.001-.191-.048-.189-.193.006-.669.007-1.338 0-2.007-.002-.152.036-.21.2-.208zm2.183 3.967c0 .335-.004.67.002 1.005.003.133-.045.18-.179.179-.679-.005-1.357-.004-2.036-.001-.12.001-.168-.038-.167-.163.004-.696.004-1.392 0-2.088-.001-.121.041-.167.164-.166.679.004 1.357.006 2.036-.001.158-.002.185.069.182.202-.006.344-.002.687-.002 1.031zm-4.94-3.967c.677.005 1.355.005 2.032 0 .138-.001.176.054.175.183-.004.686-.004 1.372 0 2.058.001.12-.042.169-.164.168-.686-.003-1.372-.004-2.058.001-.153.001-.16-.082-.159-.197.003-.334.001-.669.001-1.003 0-.343.004-.686-.002-1.029-.003-.131.038-.182.175-.181zm.033 2.734c.335.009.67.003 1.006.003.327 0 .653.006.98-.003.149-.004.191.051.19.194-.006.679-.006 1.358 0 2.037.001.153-.061.186-.199.185-.662-.005-1.324-.007-1.986.001-.162.002-.203-.054-.201-.208.007-.67.008-1.341-.001-2.011-.002-.167.059-.203.21-.199zm-2.949.186c-.001-.153.061-.187.199-.186.662.005 1.323.007 1.985-.001.163-.002.202.057.201.209-.007.67-.008 1.34 0 2.01.002.165-.059.204-.21.2-.326-.009-.653-.003-.979-.003s-.653-.005-.979.002c-.145.003-.218-.025-.216-.195.008-.679.007-1.358.001-2.036zm18.036 4.909c-.6.894-1.28 1.721-2.082 2.439a12.606 12.606 0 0 1-3.269 2.115c-1.266.569-2.591.929-3.963 1.134-.669.1-1.343.142-2.017.186-1.681.068-3.323-.092-4.879-.795-.919-.415-1.71-1.01-2.432-1.704-.035-.034-.085-.061-.083-.15.835.053 1.669.044 2.502-.006a11.59 11.59 0 0 0 1.905-.312l.242-.083c.13-.044.212-.125.169-.269-.044-.146-.159-.162-.289-.12-.521.17-1.056.27-1.602.322-.433.041-.865.101-1.302.081-.616.021-1.231.005-1.846-.038a.255.255 0 0 1-.21-.118 6.732 6.732 0 0 1-1.162-2.738c-.024-.137.031-.143.129-.142.342.004.685.006 1.027.008.077-.003.154-.008.232-.008h16.297c.077 0 .154.005.232.007.764-.002 1.528-.001 2.292-.01.191-.002.206.054.108.2zm.498-.824c-.076.138-.148.173-.304.128-.34-.096-.679-.19-.967-.401-.101-.073-.146-.055-.23.025-.188.179-.41.308-.672.354-.572.217-1.174.247-1.773.249a8.166 8.166 0 0 1-2.116-.248c-.438-.115-.892-.21-1.2-.592-.07-.086-.1-.009-.138.024-.819.728-1.816.838-2.847.798a3.93 3.93 0 0 1-1.659-.421c-.216-.111-.387-.36-.583-.396-.173-.032-.347.268-.57.36-.577.24-1.184.349-1.798.419-.822.093-1.645.09-2.459-.088-.38-.083-.752-.195-1.035-.483-.09-.092-.137-.042-.212.005a2.82 2.82 0 0 1-1.201.427c-.323.105-.658.102-.992.11-.091.002-.136-.029-.151-.128-.073-.479-.04-.959-.029-1.44.003-.127.085-.149.193-.147.292.006.584.006.876.009.112-.003.223-.008.335-.008 5.32 0 10.64.002 15.96-.003.916-.001 1.811-.142 2.662-.506.325-.139.634-.306.918-.516.056-.041.168-.077.049-.19-.457-.433-.679-.988-.757-1.597-.1-.781-.032-1.544.362-2.249.154-.276.162-.278.394-.073.714.632 1.244 1.373 1.353 2.353.015.136.013.274.009.411-.002.061 0 .101.071.104 1.029-.465 2.063-.497 3.109-.053.208.088.192.179.087.341-.513.799-1.274 1.2-2.18 1.359-.429.076-.864.137-1.302.061-.197-.034-.304.025-.378.23a12.744 12.744 0 0 1-.825 1.769z"/><path d="M8.448 15.258c.001.062-.021.154.088.145.084-.007.069-.086.069-.142.002-.539.002-1.079 0-1.618 0-.063.016-.154-.09-.145-.085.007-.067.087-.067.142-.002.265-.001.531-.001.796 0 .274-.002.548.001.822zM9.525 15.263c0 .056-.013.134.072.14.107.008.091-.081.092-.145.002-.54.002-1.08 0-1.621 0-.056.013-.134-.072-.14-.107-.008-.091.081-.092.145-.002.266-.001.532-.001.797 0 .274-.001.549.001.823zM8.883 15.406c.086.002.083-.072.083-.131.002-.274.001-.549.001-.823s.001-.549-.001-.823c0-.058.005-.132-.08-.134-.086-.002-.083.072-.083.131v1.646c0 .058-.005.132.08.134zM14.73 13.466c-.125-.006-.093.1-.094.169-.003.541-.003 1.083 0 1.625 0 .068-.036.174.088.175.109.001.108-.091.108-.169v-.799-.825c-.001-.077.006-.17-.102-.175zM9.245 15.406c.085 0 .082-.073.082-.132l.001-.798c0-.283.001-.566-.001-.849 0-.059.004-.133-.082-.133s-.082.073-.082.132v1.646c0 .059-.004.132.082.133zM15.801 13.496c-.105-.001-.085.09-.086.153-.003.266-.001.532-.001.798 0 .274-.001.549.001.823 0 .058-.007.132.078.136.088.004.085-.069.085-.128v-1.647c0-.058.007-.135-.078-.135zM20.921 15.436c.091-.003.101-.079.101-.151v-1.676c0-.073-.017-.144-.109-.144-.106 0-.087.087-.087.152-.002.275-.001.55-.001.825s-.002.55.001.825c.001.069-.031.173.095.169zM13.062 12.672c.087 0 .077-.077.077-.134.002-.282.001-.564.001-.846s.001-.564-.001-.846c0-.05.004-.11-.066-.118-.088-.01-.092.058-.092.119v1.693c0 .059-.004.133.081.133zM15.554 13.654c0-.084.011-.191-.114-.188-.118.002-.087.108-.087.177-.002.539-.002 1.078 0 1.617 0 .07-.03.175.09.175.125 0 .111-.107.112-.19.002-.265.001-.53.001-.796s.001-.53-.001-.796zM12.979 14.437c0 .274-.002.547.001.821.001.063-.021.153.085.151.087-.002.073-.081.073-.136.002-.547.002-1.094 0-1.641 0-.055.016-.134-.071-.138-.107-.005-.087.086-.088.149-.003.265-.001.53-.001.795zM12.62 12.542c0 .059-.003.132.083.13.085-.002.08-.075.08-.134.002-.274.001-.548.001-.822 0-.283.001-.565-.001-.848 0-.057.014-.133-.071-.14-.108-.009-.092.08-.093.144v1.67zM15.081 13.466c-.121.006-.082.112-.083.18-.004.266-.002.533-.002.799 0 .275-.002.55.001.825.001.07-.028.173.098.165.091-.006.098-.083.098-.154v-1.65c0-.08-.004-.171-.112-.165zM21.264 15.436c.107.008.119-.077.119-.159v-.825-.825c0-.081-.008-.167-.116-.162-.103.005-.08.096-.08.159-.002.55-.002 1.1 0 1.65 0 .064-.023.154.077.162zM11.26 12.702c.09.006.114-.062.114-.137v-1.697c0-.071-.013-.144-.107-.145-.108 0-.087.086-.088.15-.002.274-.001.549-.001.823 0 .283-.001.566.001.849.001.063-.023.151.081.158zM11.617 12.702c.107.007.119-.077.119-.159 0-.558.001-1.116-.001-1.674 0-.071-.012-.144-.106-.146-.105-.002-.094.08-.094.146-.002.275-.001.55-.001.824 0 .283-.001.567.001.85 0 .065-.018.153.082.159zM12.259 12.542c0 .059-.003.132.084.13.085-.002.079-.076.08-.134.002-.283.001-.565.001-.848 0-.274.001-.548-.001-.822 0-.056.014-.133-.072-.14-.107-.009-.092.08-.092.144-.002.557-.001 1.113 0 1.67zM11.977 12.671c.104.004.084-.09.085-.153.003-.274.001-.548.001-.822s.001-.548-.001-.822c0-.064.016-.153-.091-.146-.085.006-.073.082-.073.139-.001.548-.002 1.096 0 1.644 0 .063-.021.155.079.159zM13.863 20.13a.655.655 0 0 0-.684-.649.661.661 0 1 0 .684.649zm-.648.486a.473.473 0 0 1-.486-.457.459.459 0 0 1 .426-.485c.089-.005.213-.048.149.146-.051.153.061.272.211.213.176-.069.155.024.159.127a.466.466 0 0 1-.459.456z"/></svg>