<svg xmlns="http://www.w3.org/2000/svg" viewBox="0 0 711.573 450.88"> <path fill="#000" d="M701.117 241.325c-6.969-8.889-17.021-15.077-30.154-18.561 11.704-3.036 20.617-8.22 26.737-15.547 6.119-7.325 9.18-16.485 9.18-27.474 0-16.171-5.83-29.151-17.49-38.934-11.66-9.784-27.229-14.676-46.706-14.676-6.524 0-14.005.716-22.45 2.144-8.442 1.431-18.071 3.575-28.88 6.434v24.928c9.29-3.572 18.18-6.254 26.67-8.042 8.487-1.786 16.707-2.68 24.66-2.68 11.972 0 21.196 2.747 27.676 8.243 6.477 5.495 9.717 13.38 9.717 23.655 0 9.74-3.486 17.334-10.454 22.784-6.97 5.45-16.666 8.174-29.084 8.174H619.9v22.248h20.639c13.581 0 24.346 3.418 32.3 10.252 7.952 6.836 11.928 16.063 11.928 27.676 0 12.599-3.976 22.25-11.928 28.95-7.954 6.701-19.346 10.052-34.176 10.052-8.756 0-17.556-1.16-26.403-3.484-8.844-2.323-17.824-5.852-26.939-10.59v26.939a180.865 180.865 0 0 0 28.147 7.372c9.559 1.696 18.94 2.547 28.144 2.547 21.89 0 39.021-5.248 51.397-15.748 12.375-10.499 18.563-24.95 18.563-43.356 0-13.314-3.485-24.414-10.455-33.306"/> <path fill="#000" d="M293.111.006l-77.28 74.857h35.31l49.55-48.043 49.551 48.043h35.313L308.27.006zM229.557 92.38c-19.923 0-39.982 3.306-60.174 9.918-20.192 6.613-40.832 16.663-61.92 30.154v21.443c20.462-11.882 40.834-20.75 61.115-26.603 20.284-5.852 40.608-8.777 60.979-8.777 20.284 0 40.566 2.925 60.847 8.777 20.284 5.853 40.789 14.72 61.518 26.603v-21.443c-21.088-13.49-41.727-23.54-61.92-30.154-20.19-6.612-40.34-9.918-60.445-9.918zM568.19 143.25l-89.423 79.7v15.634l89.423 79.7v-36.417l-57.392-51.1 57.392-51.099zm-480.218.84L0 222.498v15.383l87.973 78.406v-35.826l-56.461-50.272 56.46-50.271zm282.828.531v35.828l56.459 50.272-56.46 50.27v35.825l87.973-78.406v-15.38zm-248.455 49.715v36.05h29.787v-36.05zm-14.883 112.043v21.443c21.088 13.49 41.728 23.543 61.92 30.155 20.192 6.612 40.251 9.92 60.174 9.92 20.105 0 40.254-3.308 60.445-9.92 20.193-6.612 40.832-16.664 61.92-30.155V306.38c-20.73 11.882-41.234 20.751-61.518 26.603-20.281 5.852-40.563 8.78-60.847 8.78-20.371 0-40.695-2.928-60.979-8.78-20.281-5.852-40.653-14.72-61.115-26.603zm83.098 74.766v24.466l23.285 45.27h18.2l-11.7-45.27v-24.466z"/>
</svg>