<svg xmlns="http://www.w3.org/2000/svg" viewBox="0 0 32 32"><path d="M16 27.442c-6.152 0-11.156-5.005-11.156-11.156S9.848 5.13 16 5.13s11.156 5.006 11.156 11.156c0 6.151-5.004 11.156-11.156 11.156zm0-19.833c-4.783 0-8.677 3.892-8.677 8.677s3.894 8.677 8.677 8.677c4.784 0 8.677-3.893 8.677-8.677S20.784 7.609 16 7.609zm1.939 9.453c.213 0 .392.104.547.316.154.209.232.468.232.775 0 .308-.077.567-.232.776s-.337.315-.547.315c-.224 0-.416-.104-.571-.315-.152-.21-.231-.469-.231-.776s.076-.565.231-.775c.155-.212.349-.316.571-.316zm2.741-2.838c.597.647.898 1.432.898 2.353 0 .597-.07 1.135-.206 1.613-.138.476-.312.866-.521 1.163-.212.3-.468.564-.777.787-.309.229-.593.392-.85.497s-.552.186-.886.243c-.33.058-.58.09-.753.098-.167.007-.349.011-.545.011-.044 0-.191.005-.436.012-.239.01-.445.015-.605.015s-.366-.005-.605-.015c-.243-.007-.392-.012-.436-.012-.196 0-.379-.002-.545-.011a6.55 6.55 0 0 1-.752-.098 4.042 4.042 0 0 1-.887-.243 3.932 3.932 0 0 1-.848-.497 3.376 3.376 0 0 1-.778-.787c-.208-.298-.383-.688-.521-1.163a5.931 5.931 0 0 1-.206-1.613c0-.921.3-1.706.899-2.353-.066-.032-.07-.355-.01-.969a5.751 5.751 0 0 1 .396-1.698c.746.079 1.664.501 2.764 1.261.372-.097.88-.146 1.528-.146.68 0 1.189.05 1.529.146.501-.338.98-.615 1.438-.826.465-.208.799-.331 1.009-.363l.315-.072c.213.517.344 1.085.397 1.698.062.614.058.937-.007.969zm-4.654 6.232c1.342 0 2.354-.161 3.041-.483.685-.323 1.034-.988 1.034-1.99a1.87 1.87 0 0 0-.656-1.456 1.483 1.483 0 0 0-.792-.388c-.295-.048-.752-.048-1.368 0-.614.05-1.034.072-1.26.072-.307 0-.641-.016-1.055-.048a32.571 32.571 0 0 0-.97-.061 3.015 3.015 0 0 0-.764.085 1.524 1.524 0 0 0-.681.338c-.417.372-.629.857-.629 1.456 0 1.002.339 1.667 1.018 1.989.678.324 1.687.484 3.029.484zm-1.941-3.394c.211 0 .392.104.545.316.154.209.232.468.232.775 0 .308-.077.567-.232.776-.154.209-.336.315-.545.315-.226 0-.418-.104-.573-.315-.154-.21-.232-.469-.232-.776s.077-.565.232-.775c.155-.212.347-.316.573-.316z"/></svg>