<svg xmlns="http://www.w3.org/2000/svg" viewBox="0 0 32 32"><path d="M9.633 7.968h3.751v10.514c0 4.738-2.271 6.392-5.899 6.392-.888 0-2.024-.148-2.764-.395l.42-3.036a6.18 6.18 0 0 0 1.925.296c1.58 0 2.567-.716 2.567-3.282V7.968zm7.008 12.785c.987.518 2.567 1.037 4.171 1.037 1.728 0 2.641-.716 2.641-1.826 0-1.012-.79-1.629-2.789-2.32-2.764-.987-4.59-2.517-4.59-4.961 0-2.838 2.394-4.985 6.293-4.985 1.9 0 3.258.37 4.245.839l-.839 3.011a7.779 7.779 0 0 0-3.455-.79c-1.629 0-2.419.765-2.419 1.604 0 1.061.913 1.53 3.085 2.369 2.937 1.086 4.294 2.616 4.294 4.985 0 2.789-2.122 5.158-6.688 5.158-1.9 0-3.776-.518-4.714-1.037l.765-3.085z"/></svg>