<svg xmlns="http://www.w3.org/2000/svg" viewBox="0 0 32 32"><path d="M5.082 5.593c-.564.564-.423 1.213.564 2.679.508.761 1.1 1.946 1.326 2.623.226.705.677 1.664.987 2.143.564.79.564.959.197 2.397-.226.902-.31 2.031-.197 2.736.169 1.185 1.128 2.905 1.72 3.102.508.169 1.241-.733 1.269-1.551 0-.705.028-.733.338-.226.536.874 2.228 2.735 2.369 2.594.056-.056-.31-.79-.846-1.607-.508-.846-1.1-1.946-1.325-2.454-.31-.846-.423-.902-.79-.508-.226.226-.508.874-.592 1.466-.226 1.354-.733 1.523-1.128.367s-.395-3.131 0-4.484c.282-.931.254-1.184-.226-1.89-.31-.423-.79-1.438-1.044-2.256-.254-.79-.846-1.974-1.325-2.595-1.1-1.551-1.1-2.115.056-1.89.479.085 1.213.423 1.664.733.423.31 1.156.564 1.607.564 1.354 0 3.723 1.326 5.443 3.046 1.326 1.325 2.002 2.397 3.441 5.302 1.692 3.44 1.833 3.638 2.877 3.976 1.241.423 3.835 2.002 3.835 2.341 0 .113-.649.282-1.438.338-2.115.226-2.313.62-.931 1.861.649.564 1.862 1.438 2.736 1.918l1.579.902-.733-.931c-.423-.508-1.297-1.297-1.974-1.72s-1.213-.874-1.213-.987c0-.113.479-.31 1.072-.395 1.579-.282 2.03-.423 2.03-.705 0-.423-2.848-2.566-4.202-3.159-1.156-.536-1.297-.762-2.792-3.835-1.326-2.82-1.861-3.61-3.553-5.302-2.171-2.171-3.666-3.102-5.584-3.384-.649-.113-1.551-.451-1.946-.733-.931-.705-2.82-.959-3.272-.479z"/></svg>