<svg xmlns="http://www.w3.org/2000/svg" viewBox="0 0 32 32"><path d="M13.275 15.88h5.417c1.508 0 2.712-1.241 2.712-2.756V7.96c0-1.47-1.24-2.574-2.712-2.819-.932-.155-1.898-.226-2.825-.221s-1.813.083-2.592.221c-2.295.405-2.712 1.254-2.712 2.819v2.067h5.423v.689H8.527c-1.576 0-2.956.947-3.388 2.75-.498 2.066-.52 3.355 0 5.512.385 1.606 1.306 2.75 2.882 2.75h1.865V19.25c0-1.79 1.549-3.369 3.388-3.369zm-.342-7.231a1.024 1.024 0 0 1-1.018-1.03c0-.572.455-1.037 1.018-1.037.56 0 1.018.465 1.018 1.037 0 .57-.457 1.03-1.018 1.03zm13.893 4.816c-.389-1.569-1.133-2.75-2.712-2.75h-2.035v2.408c0 1.867-1.583 3.439-3.388 3.439h-5.417c-1.484 0-2.712 1.27-2.712 2.756v5.164c0 1.47 1.278 2.334 2.712 2.756 1.717.505 3.363.596 5.417 0 1.365-.395 2.712-1.191 2.712-2.756v-2.067h-5.417v-.689h8.129c1.576 0 2.163-1.099 2.712-2.75.566-1.699.542-3.332 0-5.512zm-7.793 10.329c.562 0 1.018.461 1.018 1.03 0 .572-.456 1.037-1.018 1.037a1.03 1.03 0 0 1-1.018-1.037c0-.57.457-1.03 1.018-1.03z"/></svg>