<svg xmlns="http://www.w3.org/2000/svg" viewBox="0 0 32 32"><path d="M14.824 7.518c0 .007.103.202.232.441.126.235.219.437.205.447s-.371.146-.792.295c-.424.152-.765.282-.759.288s.487.056 1.067.109c.699.066 1.067.113 1.093.139.023.023.182.282.358.57l.315.53.056-.133c.03-.07.126-.302.215-.51l.156-.381.841-.089c.46-.05.871-.089.914-.089.04-.003.073-.013.073-.03 0-.013-.311-.142-.696-.285-.381-.142-.696-.265-.696-.268s.083-.205.182-.447.175-.447.169-.454c-.007-.01-.331.089-.715.215l-.702.229-.745-.295c-.732-.288-.772-.301-.772-.282zm4.628 2.52c-.891.354-1.623.649-1.63.656s.656.275 1.474.6l1.484.586.159-.063c1.653-.643 3.157-1.242 3.15-1.249-.023-.027-2.948-1.172-2.981-1.172-.023.003-.768.291-1.656.643zm-8.553-.344c-.855.089-1.573.338-1.878.653-.209.215-.242.398-.113.619.192.331.822.61 1.693.752.391.066 1.54.056 1.938-.013.931-.162 1.534-.46 1.676-.835.053-.139.053-.159 0-.295-.139-.364-.732-.666-1.61-.818a8.216 8.216 0 0 0-1.706-.063zm15.92 1.03a2.098 2.098 0 0 1-.354.285c-.451.291-1.034.556-4.651 2.113-2.544 1.093-3.193 1.381-4.074 1.805-.977.467-1.381.596-1.872.596-.441 0-.702-.076-1.524-.441-.328-.146-1.67-.709-2.981-1.255-5.734-2.385-5.84-2.435-6.148-2.766l-.129-.142v2.256l.146.139c.139.136.613.421.782.47.046.013.358.142.696.288s1.984.835 3.66 1.534c2.773 1.156 3.405 1.421 4.349 1.835.5.222.778.278 1.249.262.345-.013.447-.033.749-.136a7.34 7.34 0 0 0 .752-.318c.719-.361 1.59-.745 5.058-2.239 3.263-1.408 3.687-1.603 4.041-1.848.364-.258.348-.195.348-1.451 0-.6-.003-1.09-.01-1.09s-.043.046-.086.103zm-11.422 1.471c-1.335.205-2.441.381-2.461.388-.03.01 3.326 1.421 3.468 1.457.033.01 1.534-2.15 1.534-2.206 0-.03.003-.033-2.541.361zm11.441 2.233c-.03.05-.169.172-.305.268-.434.298-1.086.596-5.052 2.302-2.282.984-2.998 1.299-3.677 1.63-1.1.533-1.365.619-1.954.616-.457-.003-.739-.076-1.345-.351-.583-.268-1.236-.543-3.856-1.63-4.558-1.891-5.085-2.127-5.406-2.438l-.159-.149v2.219l.179.169c.292.272.262.258 5.154 2.296 1.795.745 3.488 1.457 3.76 1.58.722.325.931.401 1.216.46.666.136 1.159.026 2.239-.5.702-.341 1.56-.722 3.637-1.616 3.948-1.703 4.922-2.14 5.21-2.332.103-.073.242-.189.311-.265l.123-.136v-1.11c0-.61-.003-1.11-.01-1.11a.724.724 0 0 0-.066.096zm-.036 3.633c-.262.328-.785.58-4.856 2.332-2.657 1.146-3.465 1.504-4.339 1.921-.918.437-1.219.53-1.749.53-.361 0-.729-.086-1.136-.265-.951-.417-1.577-.682-4.353-1.838-3.157-1.315-4.167-1.742-4.505-1.911-.315-.159-.636-.384-.709-.5l-.07-.106v1.13c0 1.295-.023 1.199.325 1.434.384.258.954.51 4.744 2.083 2.65 1.1 3.604 1.501 4.074 1.713.961.431 1.216.5 1.752.47.49-.023.812-.129 1.66-.533.884-.424 1.537-.715 4.422-1.958 4.008-1.726 4.442-1.934 4.747-2.286l.106-.119v-1.106c0-.61-.003-1.11-.007-1.11a.764.764 0 0 0-.106.119z"/></svg>