<svg width="102" height="20" viewBox="0 0 102 20" fill="none" xmlns="http://www.w3.org/2000/svg">
<path d="M5.37175 15.552V4.768H7.48375C10.7478 4.768 12.5718 6.848 12.5718 10.176C12.5718 13.472 10.7478 15.552 7.48375 15.552H5.37175ZM0.31575 20H7.73975C13.9158 20 17.6597 16.16 17.6597 10.176C17.6597 4.192 13.9158 0.351999 7.73975 0.351999H0.31575V20ZM19.8158 0.351999V20H33.8638V15.552H24.8718V12.16H33.0958V7.84H24.8718V4.768H33.8638V0.351999H19.8158ZM36.4095 20H50.3615V15.552H41.5615V0.351999H36.4095V20ZM52.722 0.351999V20H66.77V15.552H57.778V12.16H66.002V7.84H57.778V4.768H66.77V0.351999H52.722ZM68.4838 4.768H74.5318V20H79.6838V4.768H85.7638V0.351999H68.4838V4.768ZM87.8783 0.351999V20H101.926V15.552H92.9343V12.16H101.158V7.84H92.9343V4.768H101.926V0.351999H87.8783Z" fill="#F13C68"/>
</svg>
