<svg width="60" height="33" viewBox="0 0 60 33" fill="none" xmlns="http://www.w3.org/2000/svg">
<rect width="60" height="33" rx="4" fill="#9F7300"/>
<path d="M6.7706 22V11.8182H10.9766C11.7389 11.8182 12.3968 11.9673 12.9503 12.2656C13.5071 12.5606 13.9363 12.9732 14.2379 13.5036C14.5395 14.0305 14.6903 14.6437 14.6903 15.343C14.6903 16.0457 14.5362 16.6605 14.228 17.1875C13.9231 17.7112 13.4872 18.1172 12.9205 18.4055C12.3537 18.6939 11.6809 18.8381 10.902 18.8381H8.30682V16.8991H10.4446C10.8158 16.8991 11.1257 16.8345 11.3743 16.7053C11.6262 16.576 11.8168 16.3954 11.946 16.1634C12.0753 15.928 12.1399 15.6546 12.1399 15.343C12.1399 15.0282 12.0753 14.7564 11.946 14.5277C11.8168 14.2957 11.6262 14.1167 11.3743 13.9908C11.1224 13.8648 10.8125 13.8018 10.4446 13.8018H9.23153V22H6.7706ZM16.8754 22H14.2305L17.6658 11.8182H20.9421L24.3775 22H21.7326L19.3413 14.3835H19.2617L16.8754 22ZM16.5224 17.9929H22.0508V19.8622H16.5224V17.9929ZM23.8691 13.8168V11.8182H32.475V13.8168H29.3876V22H26.9615V13.8168H23.8691ZM42.4542 15.5071H39.9684C39.9353 15.2519 39.8673 15.0215 39.7646 14.8161C39.6618 14.6106 39.5259 14.4349 39.3569 14.2891C39.1879 14.1432 38.9873 14.0322 38.7553 13.956C38.5266 13.8764 38.2731 13.8366 37.9947 13.8366C37.5008 13.8366 37.0749 13.9576 36.717 14.1996C36.3623 14.4415 36.0889 14.7912 35.8967 15.2486C35.7077 15.706 35.6133 16.2595 35.6133 16.9091C35.6133 17.5852 35.7094 18.152 35.9016 18.6094C36.0972 19.0634 36.3706 19.4065 36.7219 19.6385C37.0766 19.8672 37.4959 19.9815 37.9798 19.9815C38.2515 19.9815 38.4985 19.9467 38.7205 19.8771C38.9459 19.8075 39.1431 19.7064 39.3121 19.5739C39.4845 19.438 39.6254 19.2739 39.7347 19.0817C39.8474 18.8861 39.9253 18.6657 39.9684 18.4205L42.4542 18.4354C42.4111 18.8861 42.2802 19.3303 42.0614 19.7678C41.846 20.2053 41.5494 20.6046 41.1715 20.9659C40.7937 21.3239 40.333 21.6089 39.7894 21.821C39.2492 22.0331 38.6294 22.1392 37.93 22.1392C37.0086 22.1392 36.1834 21.937 35.4542 21.5327C34.7283 21.125 34.1549 20.5317 33.734 19.7528C33.3131 18.974 33.1026 18.026 33.1026 16.9091C33.1026 15.7888 33.3164 14.8393 33.744 14.0604C34.1715 13.2815 34.7499 12.6899 35.479 12.2855C36.2082 11.8812 37.0252 11.679 37.93 11.679C38.5465 11.679 39.1166 11.7652 39.6403 11.9375C40.1639 12.1065 40.6246 12.3551 41.0224 12.6832C41.4201 13.008 41.7433 13.4074 41.9918 13.8814C42.2404 14.3554 42.3945 14.8973 42.4542 15.5071ZM43.8624 22V11.8182H46.3233V15.9048H50.3354V11.8182H52.7914V22H50.3354V17.9084H46.3233V22H43.8624Z" fill="white"/>
</svg>
