<svg stroke="currentColor" fill="currentColor" stroke-width="0" version="1.1" viewBox="0 0 16 16" height="1em" width="1em" xmlns="http://www.w3.org/2000/svg"><path d="M3.953 10.512c0.003 0.009 0.088 0.238 0.134 0.353 0.263 0.622 0.641 1.184 1.122 1.666s1.041 0.859 1.666 1.122c0.647 0.272 1.331 0.412 2.037 0.412s1.394-0.137 2.037-0.412c0.625-0.262 1.184-0.641 1.666-1.122s0.859-1.041 1.122-1.666c0.272-0.647 0.412-1.331 0.412-2.037s-0.137-1.394-0.412-2.037c-0.262-0.625-0.641-1.184-1.122-1.666s-1.041-0.859-1.666-1.122c-0.647-0.272-1.331-0.413-2.037-0.413-0.716 0-1.431 0.144-2.066 0.413-0.509 0.216-1.372 0.769-1.875 1.291l-0.003 0.003v-4.313h7.241c0.262-0.003 0.262-0.372 0.262-0.491 0-0.122 0-0.487-0.266-0.491h-7.828c-0.213 0-0.344 0.178-0.344 0.341v6.066c0 0.197 0.244 0.338 0.472 0.384 0.444 0.094 0.544-0.047 0.653-0.197l0.016-0.019c0.166-0.247 0.681-0.766 0.688-0.772 0.806-0.806 1.884-1.25 3.037-1.25 1.147 0 2.222 0.444 3.028 1.25 0.809 0.809 1.256 1.881 1.256 3.019 0 1.141-0.444 2.216-1.25 3.019-0.794 0.794-1.906 1.25-3.047 1.25-0.772 0-1.519-0.206-2.159-0.597l0.003-3.688c0-0.491 0.213-1.028 0.572-1.431 0.409-0.463 0.972-0.716 1.588-0.716 0.594 0 1.15 0.225 1.566 0.634 0.409 0.406 0.637 0.95 0.637 1.528 0 1.231-0.969 2.197-2.206 2.197-0.238 0-0.672-0.106-0.691-0.109-0.25-0.075-0.356 0.272-0.391 0.387-0.134 0.441 0.069 0.528 0.109 0.541 0.397 0.125 0.659 0.147 1.003 0.147 1.747 0 3.169-1.422 3.169-3.169 0-1.734-1.422-3.144-3.166-3.144-0.856 0-1.659 0.328-2.263 0.919-0.575 0.566-0.903 1.319-0.903 2.069v0.019c-0.003 0.094-0.003 2.306-0.006 3.031l-0.003-0.003c-0.328-0.363-0.653-0.919-0.869-1.488-0.084-0.222-0.275-0.184-0.534-0.103-0.125 0.034-0.469 0.141-0.391 0.394v0zM7.675 9.647c0 0.106 0.097 0.2 0.156 0.253l0.019 0.019c0.1 0.097 0.194 0.147 0.281 0.147 0.072 0 0.116-0.034 0.131-0.050 0.044-0.041 0.537-0.544 0.588-0.591l0.553 0.55c0.050 0.056 0.106 0.088 0.172 0.088 0.088 0 0.184-0.053 0.284-0.156 0.238-0.244 0.119-0.375 0.063-0.438l-0.559-0.559 0.584-0.588c0.128-0.137 0.016-0.284-0.097-0.397-0.162-0.162-0.322-0.206-0.422-0.112l-0.581 0.581-0.588-0.588c-0.031-0.031-0.072-0.047-0.113-0.047-0.078 0-0.172 0.053-0.275 0.156-0.181 0.181-0.219 0.306-0.125 0.406l0.588 0.584-0.584 0.584c-0.053 0.050-0.078 0.103-0.075 0.156zM8.953 1.716c-0.938 0-1.938 0.191-2.669 0.506-0.078 0.031-0.125 0.094-0.134 0.181-0.009 0.084 0.013 0.194 0.069 0.337 0.047 0.116 0.166 0.425 0.4 0.334 0.75-0.288 1.581-0.444 2.334-0.444 0.856 0 1.688 0.169 2.469 0.497 0.622 0.263 1.206 0.644 1.844 1.194 0.047 0.041 0.097 0.059 0.147 0.059 0.125 0 0.244-0.122 0.347-0.237 0.169-0.191 0.287-0.35 0.119-0.509-0.609-0.575-1.275-1.006-2.1-1.356-0.894-0.372-1.847-0.563-2.825-0.563zM14.006 13.3v0c-0.113-0.113-0.209-0.178-0.294-0.203s-0.162-0.006-0.222 0.053l-0.056 0.056c-0.581 0.581-1.259 1.037-2.012 1.356-0.781 0.331-1.609 0.497-2.463 0.497-0.856 0-1.684-0.169-2.463-0.497-0.753-0.319-1.431-0.775-2.013-1.356-0.606-0.606-1.063-1.284-1.356-2.012-0.288-0.713-0.381-1.247-0.413-1.422-0.003-0.016-0.006-0.028-0.006-0.037-0.041-0.206-0.231-0.222-0.503-0.178-0.112 0.019-0.459 0.072-0.428 0.319v0.006c0.091 0.578 0.253 1.144 0.481 1.681 0.366 0.866 0.891 1.644 1.559 2.313s1.447 1.191 2.313 1.559c0.897 0.378 1.85 0.572 2.831 0.572s1.934-0.194 2.831-0.572c0.866-0.366 1.644-0.891 2.313-1.559 0 0 0.037-0.037 0.059-0.059 0.069-0.084 0.134-0.225-0.159-0.516z"></path></svg>