<svg stroke="currentColor" fill="currentColor" stroke-width="0" version="1.1" viewBox="0 0 16 16" height="1em" width="1em" xmlns="http://www.w3.org/2000/svg"><path d="M13.657 2.343c-1.511-1.511-3.52-2.343-5.657-2.343s-4.146 0.832-5.657 2.343c-1.511 1.511-2.343 3.52-2.343 5.657s0.832 4.146 2.343 5.657c1.511 1.511 3.52 2.343 5.657 2.343s4.146-0.832 5.657-2.343c1.511-1.511 2.343-3.52 2.343-5.657s-0.832-4.146-2.343-5.657zM14 8c0 1.294-0.412 2.494-1.111 3.475l-8.364-8.364c0.981-0.699 2.181-1.111 3.475-1.111 3.308 0 6 2.692 6 6zM2 8c0-1.294 0.412-2.494 1.111-3.475l8.364 8.364c-0.981 0.699-2.181 1.111-3.475 1.111-3.308 0-6-2.692-6-6z"></path></svg>