<svg stroke="currentColor" fill="currentColor" stroke-width="0" version="1.1" viewBox="0 0 16 16" height="1em" width="1em" xmlns="http://www.w3.org/2000/svg"><path d="M14.777 5.751l-7-4.667c-0.168-0.112-0.387-0.112-0.555 0l-7 4.667c-0.139 0.093-0.223 0.249-0.223 0.416v4.667c0 0.167 0.084 0.323 0.223 0.416l7 4.667c0.084 0.056 0.181 0.084 0.277 0.084s0.193-0.028 0.277-0.084l7-4.667c0.139-0.093 0.223-0.249 0.223-0.416v-4.667c0-0.167-0.084-0.323-0.223-0.416zM7.5 10.232l-2.599-1.732 2.599-1.732 2.599 1.732-2.599 1.732zM8 5.899v-3.465l5.599 3.732-2.599 1.732-3-2zM7 5.899l-3 2-2.599-1.732 5.599-3.732v3.465zM3.099 8.5l-2.099 1.399v-2.798l2.099 1.399zM4 9.101l3 2v3.465l-5.599-3.732 2.599-1.732zM8 11.101l3-2 2.599 1.732-5.599 3.732v-3.465zM11.901 8.5l2.099-1.399v2.798l-2.099-1.399z"></path></svg>