<svg stroke="currentColor" fill="currentColor" stroke-width="0" version="1.1" viewBox="0 0 16 16" height="1em" width="1em" xmlns="http://www.w3.org/2000/svg"><path d="M8 16c4.418 0 8-3.582 8-8s-3.582-8-8-8-8 3.582-8 8 3.582 8 8 8zM8 1.5c3.59 0 6.5 2.91 6.5 6.5s-2.91 6.5-6.5 6.5-6.5-2.91-6.5-6.5 2.91-6.5 6.5-6.5zM4 5c0-0.552 0.448-1 1-1s1 0.448 1 1c0 0.552-0.448 1-1 1s-1-0.448-1-1zM10 5c0-0.552 0.448-1 1-1s1 0.448 1 1c0 0.552-0.448 1-1 1s-1-0.448-1-1zM11.345 10h1.014c0.144 1.133-0.507 2.258-1.624 2.665-1.295 0.472-2.733-0.199-3.204-1.494-0.283-0.777-1.145-1.179-1.923-0.896-0.712 0.259-1.109 1.005-0.953 1.725h-1.013c-0.144-1.133 0.507-2.258 1.624-2.665 1.295-0.472 2.733 0.199 3.204 1.494 0.283 0.777 1.145 1.179 1.923 0.896 0.712-0.259 1.109-1.005 0.953-1.725z"></path></svg>