<svg stroke="currentColor" fill="currentColor" stroke-width="0" version="1.1" viewBox="0 0 16 16" height="1em" width="1em" xmlns="http://www.w3.org/2000/svg"><path d="M8 0c-4.418 0-8 3.582-8 8s3.582 8 8 8c4.418 0 8-3.582 8-8s-3.582-8-8-8zM8 13c-0.757 0-1.475-0.169-2.118-0.47l0.518-0.864c0.49 0.214 1.031 0.334 1.6 0.334 1.456 0 2.731-0.778 3.43-1.942l0.858 0.515c-0.874 1.454-2.467 2.427-4.288 2.427zM13 6c0 0.55-0.45 1-1 1h-2c-0.55 0-1-0.45-1-1h-2c0 0.55-0.45 1-1 1h-2c-0.55 0-1-0.45-1-1v-1.5c0-0.275 0.225-0.5 0.5-0.5h3c0.275 0 0.5 0.225 0.5 0.5v0.5h2v-0.5c0-0.275 0.225-0.5 0.5-0.5h3c0.275 0 0.5 0.225 0.5 0.5v1.5z"></path></svg>