<svg stroke="currentColor" fill="currentColor" stroke-width="0" version="1.1" viewBox="0 0 16 16" height="1em" width="1em" xmlns="http://www.w3.org/2000/svg"><path d="M14.5 0h-13c-0.825 0-1.5 0.675-1.5 1.5v13c0 0.825 0.675 1.5 1.5 1.5h13c0.825 0 1.5-0.675 1.5-1.5v-13c0-0.825-0.675-1.5-1.5-1.5zM4.5 10.5c-1.381 0-2.5-1.119-2.5-2.5s1.119-2.5 2.5-2.5 2.5 1.119 2.5 2.5-1.119 2.5-2.5 2.5zM11.5 10.5c-1.381 0-2.5-1.119-2.5-2.5s1.119-2.5 2.5-2.5c1.381 0 2.5 1.119 2.5 2.5s-1.119 2.5-2.5 2.5z"></path></svg>