<svg stroke="currentColor" fill="currentColor" stroke-width="0" version="1.1" viewBox="0 0 16 16" height="1em" width="1em" xmlns="http://www.w3.org/2000/svg"><path d="M8 0c-4.418 0-8 3.582-8 8s3.582 8 8 8 8-3.582 8-8-3.582-8-8-8zM11 4c0.552 0 1 0.448 1 1s-0.448 1-1 1-1-0.448-1-1 0.448-1 1-1zM5 4c0.552 0 1 0.448 1 1s-0.448 1-1 1-1-0.448-1-1 0.448-1 1-1zM8.497 10.615c-0.020-0.018-0.039-0.036-0.058-0.055-0.293-0.293-0.439-0.677-0.439-1.060-0 0.384-0.146 0.768-0.439 1.060-0.019 0.019-0.038 0.037-0.058 0.055-1.352 1.227-4.503-0.029-4.503-1.615 0.969 0.625 1.726 0.153 2.439-0.561 0.586-0.586 1.536-0.586 2.121 0 0.293 0.293 0.439 0.677 0.439 1.060 0-0.384 0.146-0.768 0.439-1.060 0.586-0.586 1.536-0.586 2.121 0 0.713 0.714 1.471 1.186 2.439 0.561 0 1.586-3.151 2.842-4.503 1.615z"></path></svg>