<svg stroke="currentColor" fill="currentColor" stroke-width="0" version="1.1" viewBox="0 0 16 16" height="1em" width="1em" xmlns="http://www.w3.org/2000/svg"><path d="M12.25 11.75c-1.002 0-1.943-0.39-2.652-1.098l-1.598-1.598-1.598 1.598c-0.708 0.708-1.65 1.098-2.652 1.098s-1.944-0.39-2.652-1.098c-0.708-0.708-1.098-1.65-1.098-2.652s0.39-1.943 1.098-2.652c0.708-0.708 1.65-1.098 2.652-1.098s1.943 0.39 2.652 1.098l1.598 1.598 1.598-1.598c0.708-0.708 1.65-1.098 2.652-1.098s1.944 0.39 2.652 1.098c0.708 0.708 1.098 1.65 1.098 2.652s-0.39 1.943-1.098 2.652c-0.708 0.708-1.65 1.098-2.652 1.098zM10.652 9.598c0.427 0.427 0.994 0.662 1.598 0.662s1.171-0.235 1.598-0.662c0.427-0.427 0.662-0.994 0.662-1.598s-0.235-1.171-0.662-1.598c-0.427-0.427-0.994-0.662-1.598-0.662s-1.171 0.235-1.598 0.662l-1.598 1.598 1.598 1.598zM3.75 5.74c-0.604 0-1.171 0.235-1.598 0.662s-0.662 0.994-0.662 1.598c0 0.604 0.235 1.171 0.662 1.598s0.994 0.662 1.598 0.662c0.604 0 1.171-0.235 1.598-0.662l1.598-1.598-1.598-1.598c-0.427-0.427-0.994-0.662-1.598-0.662v0z"></path></svg>