<svg stroke="currentColor" fill="currentColor" stroke-width="0" version="1.1" viewBox="0 0 16 16" height="1em" width="1em" xmlns="http://www.w3.org/2000/svg"><path d="M14.5 0h-13c-0.825 0-1.5 0.675-1.5 1.5v13c0 0.825 0.675 1.5 1.5 1.5h13c0.825 0 1.5-0.675 1.5-1.5v-13c0-0.825-0.675-1.5-1.5-1.5zM11.666 11.887c-2.775 0-3.737-1.25-4.25-2.806l-0.513-1.603c-0.384-1.172-0.834-2.084-2.244-2.084-0.978 0-1.972 0.706-1.972 2.678 0 1.541 0.784 2.503 1.894 2.503 1.25 0 2.084-0.931 2.084-0.931l0.513 1.394c0 0-0.866 0.85-2.678 0.85-2.25 0-3.5-1.313-3.5-3.75 0-2.534 1.25-4.025 3.609-4.025 2.134 0 3.206 0.769 3.881 2.853l0.528 1.603c0.384 1.172 1.059 2.022 2.678 2.022 1.091 0 1.669-0.241 1.669-0.834 0-0.466-0.272-0.803-1.091-0.994l-1.091-0.256c-1.331-0.322-1.859-1.009-1.859-2.1 0-1.747 1.412-2.294 2.853-2.294 1.634 0 2.631 0.594 2.759 2.038l-1.603 0.194c-0.066-0.691-0.481-0.978-1.25-0.978-0.706 0-1.137 0.322-1.137 0.866 0 0.481 0.209 0.769 0.912 0.931l1.025 0.225c1.378 0.322 2.116 0.994 2.116 2.294 0 1.597-1.347 2.206-3.334 2.206z"></path></svg>