<svg stroke="currentColor" fill="currentColor" stroke-width="0" version="1.1" viewBox="0 0 16 16" height="1em" width="1em" xmlns="http://www.w3.org/2000/svg"><path d="M16 4.414l-1.414-1.414-2.793 2.793-1.586-1.586 2.793-2.793-1.414-1.414-2.793 2.793-1.793-1.793-1.354 1.353 8 8 1.354-1.353-1.793-1.793 2.793-2.793z"></path><path d="M12.407 10.528l-6.935-6.935c-1.497 1.795-3.196 4.57-2.022 6.957l-2.066 2.066c-0.486 0.486-0.486 1.282 0 1.768l0.232 0.232c0.486 0.486 1.282 0.486 1.768 0l2.066-2.066c2.387 1.174 5.161-0.524 6.957-2.022z"></path></svg>