<svg stroke="currentColor" fill="currentColor" stroke-width="0" version="1.1" viewBox="0 0 16 16" height="1em" width="1em" xmlns="http://www.w3.org/2000/svg"><path d="M13.5 11c-0.706 0-1.342 0.293-1.797 0.763l-6.734-3.367c0.021-0.129 0.032-0.261 0.032-0.396s-0.011-0.267-0.032-0.396l6.734-3.367c0.455 0.47 1.091 0.763 1.797 0.763 1.381 0 2.5-1.119 2.5-2.5s-1.119-2.5-2.5-2.5-2.5 1.119-2.5 2.5c0 0.135 0.011 0.267 0.031 0.396l-6.734 3.367c-0.455-0.47-1.091-0.763-1.797-0.763-1.381 0-2.5 1.119-2.5 2.5s1.119 2.5 2.5 2.5c0.706 0 1.343-0.293 1.797-0.763l6.734 3.367c-0.021 0.129-0.031 0.261-0.031 0.396 0 1.381 1.119 2.5 2.5 2.5s2.5-1.119 2.5-2.5c0-1.381-1.119-2.5-2.5-2.5z"></path></svg>