<svg stroke="currentColor" fill="currentColor" stroke-width="0" version="1.1" viewBox="0 0 16 16" height="1em" width="1em" xmlns="http://www.w3.org/2000/svg"><path d="M3.032 13l0.9-3h4.137l0.9 3h1.775l-3-10h-3.488l-3 10h1.776zM5.432 5h1.137l0.9 3h-2.937l0.9-3zM16 3l-2.5 4-2.5-4h5z"></path><path d="M13.5 13h-1c-0.276 0-0.5-0.224-0.5-0.5s0.224-0.5 0.5-0.5h2c0.276 0 0.5-0.224 0.5-0.5s-0.224-0.5-0.5-0.5h-2c-0.827 0-1.5 0.673-1.5 1.5 0 0.384 0.145 0.734 0.383 1 0.275 0.307 0.674 0.5 1.117 0.5h1c0.276 0 0.5 0.224 0.5 0.5s-0.224 0.5-0.5 0.5h-2c-0.276 0-0.5 0.224-0.5 0.5s0.224 0.5 0.5 0.5h2c0.827 0 1.5-0.673 1.5-1.5 0-0.384-0.145-0.734-0.383-1-0.275-0.307-0.674-0.5-1.117-0.5z"></path></svg>