<svg xmlns="http://www.w3.org/2000/svg" width="16" height="16"><path fill="#ffffff" d="M14.041 11.277c0 .777-.517 1.223-1.155 1.223s-1.155-.446-1.155-1.223.517-1.406 1.155-1.406 1.155.63 1.155 1.406zm-8.18 0c0 .777-.517 1.215-1.155 1.215s-1.155-.438-1.155-1.215.517-1.406 1.155-1.406 1.155.63 1.155 1.406zM0 10.45c0-.244.123-.367.37-.367V4.875C.37 3.958.544 3.5.89 3.5l13.24.015c.3 0 .507.071.62.214.12.132.217.402.29.81l.47 2.689v2.857c.327 0 .49.132.49.397 0 .255-.15.382-.45.382-.073.316-.278.562-.59.474H1.03c-.273 0-.47-.076-.59-.229-.047-.071-.133-.188-.26-.351-.12-.071-.18-.173-.18-.306zm1.417-6.294c-.187 0-.307.041-.36.122-.047.081-.07.265-.07.55v1.65c0 .306.027.499.08.58.06.071.19.107.39.107H4.11c.193 0 .313-.031.36-.092.053-.071.08-.25.08-.535V4.737c0-.255-.027-.412-.08-.474-.047-.071-.163-.107-.35-.107zm4.364 0c-.28 0-.443.02-.49.061-.08.071-.12.29-.12.657v1.329c0 .438.02.698.06.779.053.112.213.168.48.168H8.61c.073 0 .11-.275.11-.825V4.737c0-.295-.033-.474-.1-.535-.033-.031-.167-.046-.4-.046zm4.142 0c-.247 0-.4.056-.46.168-.06.102-.09.351-.09.749v1.298c0 .346.027.565.08.657.06.081.203.122.43.122h2.109c.28 0 .44-.015.48-.046.087-.061.13-.27.13-.626V4.661c0-.255-.03-.407-.09-.458-.033-.031-.15-.046-.35-.046zm3.627 0c-.153 0-.25.056-.29.168-.027.071-.04.244-.04.519v1.635c0 .285.027.468.08.55.06.081.183.122.37.122h.887c.233 0 .35-.092.35-.275l-.1-.58-.27-1.589c-.04-.244-.09-.397-.15-.458s-.177-.092-.35-.092z"/></svg>