<svg xmlns="http://www.w3.org/2000/svg" width="32" height="32" fill="none" viewBox="0 0 16 16"><path fill="#fff" d="M0 0h16v16H0z"/><path fill="#000" fill-rule="evenodd" d="M2.907 6.66c.57-.23 1.277-.41 2.093-.41 1.164 0 2.05.366 2.648.739q.196.124.352.244.155-.12.353-.244A4.95 4.95 0 0 1 11 6.25c.816 0 1.522.18 2.093.41a9 9 0 0 0-.566-1.304C11.732 3.878 10.38 2.5 8 2.5S4.269 3.878 3.473 5.356c-.24.445-.425.894-.566 1.304M14.25 8.25l.745-.087V8.16l-.001-.006-.002-.019-.01-.065-.036-.23a11 11 0 0 0-.173-.792 10.8 10.8 0 0 0-.925-2.404C12.894 2.872 11.12 1 8 1S3.106 2.872 2.152 4.644c-.474.882-.76 1.756-.925 2.404a11 11 0 0 0-.218 1.087l-.003.02v.008h-.001l.745.087-.745-.086a.75.75 0 0 0 1.272.62l.004-.004.028-.026q.04-.038.132-.11a4 4 0 0 1 .548-.363A4.14 4.14 0 0 1 5 7.75c.836 0 1.45.26 1.853.511.17.107.303.212.397.296v4.068a.875.875 0 0 1-1.75 0v-.875a.75.75 0 0 0-1.5 0v.875a2.375 2.375 0 1 0 4.75 0V8.557c.094-.084.227-.19.398-.296A3.45 3.45 0 0 1 11 7.75c.841 0 1.528.263 2.01.53a4 4 0 0 1 .681.474l.028.026.003.003v-.001h-.001l.002.001a.75.75 0 0 0 1.272-.619zm-5.667.473H8.58z" clip-rule="evenodd"/></svg>