<svg width="32" height="32" viewBox="0 0 16 16" fill="white" xmlns="http://www.w3.org/2000/svg">
<path d="M12.5 7.25V7.25C13.4665 7.25 14.25 6.4665 14.25 5.5V3.75M1.75 3.75V5.5C1.75 6.4665 2.5335 7.25 3.5 7.25M14.25 13.25V11.5C14.25 10.5335 13.4665 9.75 12.5 9.75M1.75 13.25V11.5C1.75 10.5335 2.5335 9.75 3.5 9.75M11.3829 11.7838C10.826 10.8288 9.66752 9.75 8 9.75C6.33248 9.75 5.17404 10.8288 4.61708 11.7838M11.3829 11.7838C11.927 10.7335 12.25 9.42223 12.25 8C12.25 4.54822 10.3472 1.75 8 1.75C5.65279 1.75 3.75 4.54822 3.75 8C3.75 9.42223 4.07303 10.7335 4.61708 11.7838M11.3829 11.7838C10.6065 13.2826 9.38009 14.25 8 14.25C6.61991 14.25 5.39346 13.2826 4.61708 11.7838" stroke="black" stroke-width="1.5" stroke-linecap="round" stroke-linejoin="round"/>
</svg>
