<svg width="32" height="32" viewBox="0 0 16 16" fill="white" xmlns="http://www.w3.org/2000/svg">
<path d="M3.49902 1.9978L3.49902 10.0001" stroke="black" stroke-width="2" stroke-linecap="round" stroke-linejoin="round"/>
<path d="M8 1.9978L8 10.0001" stroke="black" stroke-width="2" stroke-linecap="round" stroke-linejoin="round"/>
<path d="M12.501 1.9978L12.501 10.0001" stroke="black" stroke-width="2" stroke-linecap="round" stroke-linejoin="round"/>
<path d="M3.99902 13.9978C3.99902 14.2739 3.77517 14.4978 3.49902 14.4978C3.22288 14.4978 2.99902 14.2739 2.99902 13.9978C2.99902 13.7217 3.22288 13.4978 3.49902 13.4978C3.77517 13.4978 3.99902 13.7217 3.99902 13.9978Z" stroke="black" stroke-linecap="round" stroke-linejoin="round"/>
<path d="M8.5 13.9978C8.5 14.2739 8.27614 14.4978 8 14.4978C7.72386 14.4978 7.5 14.2739 7.5 13.9978C7.5 13.7217 7.72386 13.4978 8 13.4978C8.27614 13.4978 8.5 13.7217 8.5 13.9978Z" stroke="black" stroke-linecap="round" stroke-linejoin="round"/>
<path d="M13.001 13.9978C13.001 14.2739 12.7771 14.4978 12.501 14.4978C12.2248 14.4978 12.001 14.2739 12.001 13.9978C12.001 13.7217 12.2248 13.4978 12.501 13.4978C12.7771 13.4978 13.001 13.7217 13.001 13.9978Z" stroke="black" stroke-linecap="round" stroke-linejoin="round"/>
</svg>
