<svg width="32" height="32" viewBox="0 0 16 16" fill="white" xmlns="http://www.w3.org/2000/svg">
<path d="M14.25 1.75H15C15 1.51051 14.8856 1.28542 14.6922 1.14422C14.4988 1.00302 14.2495 0.962691 14.0214 1.03568L14.25 1.75ZM14.25 11.25L14.0214 11.9643C14.2495 12.0373 14.4988 11.997 14.6922 11.8558C14.8856 11.7146 15 11.4895 15 11.25H14.25ZM8 9.25L8.22858 8.53568C8.15469 8.51204 8.07758 8.5 8 8.5V9.25ZM8 3.75V4.5C8.07758 4.5 8.15469 4.48796 8.22858 4.46432L8 3.75ZM4.5 9.25C4.5 8.83579 4.16421 8.5 3.75 8.5C3.33579 8.5 3 8.83579 3 9.25H4.5ZM8 9.25C8 8.83579 7.66421 8.5 7.25 8.5C6.83579 8.5 6.5 8.83579 6.5 9.25H8ZM13.5 1.75V11.25H15V1.75H13.5ZM14.4786 10.5357L8.22858 8.53568L7.77142 9.96432L14.0214 11.9643L14.4786 10.5357ZM14.0214 1.03568L7.77142 3.03568L8.22858 4.46432L14.4786 2.46432L14.0214 1.03568ZM8 3H3.75V4.5H8V3ZM1 5.75V7.25H2.5V5.75H1ZM3.75 10H8V8.5H3.75V10ZM3 9.25V12.5H4.5V9.25H3ZM8 12.5V9.25H6.5V12.5H8ZM5.5 15C6.88071 15 8 13.8807 8 12.5H6.5C6.5 13.0523 6.05228 13.5 5.5 13.5V15ZM3 12.5C3 13.8807 4.11929 15 5.5 15V13.5C4.94772 13.5 4.5 13.0523 4.5 12.5H3ZM1 7.25C1 8.76878 2.23122 10 3.75 10V8.5C3.05964 8.5 2.5 7.94036 2.5 7.25H1ZM3.75 3C2.23122 3 1 4.23122 1 5.75H2.5C2.5 5.05964 3.05964 4.5 3.75 4.5V3Z" fill="black"/>
</svg>
