<svg width="32" height="32" viewBox="0 0 16 16" fill="white" xmlns="http://www.w3.org/2000/svg">
<path d="M3.25 5.25V10.75M10.75 3.25H5.25M12.75 5.25V10.75M10.75 12.75H5.25M11.75 10.75H13.25C13.8023 10.75 14.25 11.1977 14.25 11.75V13.25C14.25 13.8023 13.8023 14.25 13.25 14.25H11.75C11.1977 14.25 10.75 13.8023 10.75 13.25V11.75C10.75 11.1977 11.1977 10.75 11.75 10.75ZM2.75 10.75H4.25C4.80228 10.75 5.25 11.1977 5.25 11.75V13.25C5.25 13.8023 4.80228 14.25 4.25 14.25H2.75C2.19772 14.25 1.75 13.8023 1.75 13.25V11.75C1.75 11.1977 2.19772 10.75 2.75 10.75ZM2.75 1.75H4.25C4.80228 1.75 5.25 2.19772 5.25 2.75V4.25C5.25 4.80228 4.80228 5.25 4.25 5.25H2.75C2.19772 5.25 1.75 4.80228 1.75 4.25V2.75C1.75 2.19772 2.19772 1.75 2.75 1.75ZM11.75 1.75H13.25C13.8023 1.75 14.25 2.19772 14.25 2.75V4.25C14.25 4.80228 13.8023 5.25 13.25 5.25H11.75C11.1977 5.25 10.75 4.80228 10.75 4.25V2.75C10.75 2.19772 11.1977 1.75 11.75 1.75Z" stroke="black" stroke-width="1.5" stroke-linecap="round" stroke-linejoin="round"/>
</svg>
