<svg width="32" height="32" viewBox="0 0 16 16" fill="white" xmlns="http://www.w3.org/2000/svg">
<path d="M6.24993 6C6.24993 7.24264 5.23939 8.25 4 8.25C2.76061 8.25 1.76172 7.24264 1.76172 6C1.76172 4.75736 2.76644 3.75 4.00582 3.75C5.24521 3.75 6.24993 4.75736 6.24993 6ZM6.24993 6V10C6.24993 11.2426 5.23939 12.25 4 12.25H3.75C2.5 12.25 1.75 11.25 1.75 11.25" stroke="black" stroke-width="1.5" stroke-linecap="round" stroke-linejoin="round"/>
<path d="M12 3.75C10.7606 3.75 9.75003 4.75736 9.75003 6L9.75003 10C9.74356 11.2394 10.7606 12.25 12 12.25C13.2394 12.25 14.25 11.2426 14.25 10V6C14.25 4.75736 13.2394 3.75 12 3.75Z" stroke="black" stroke-width="1.5" stroke-linecap="round" stroke-linejoin="round"/>
</svg>
