<svg width="32" height="32" viewBox="0 0 16 16" fill="white" xmlns="http://www.w3.org/2000/svg">
<path d="M10.25 5.75H12.25C13.3546 5.75 14.25 6.64543 14.25 7.75V11.25H13M10.25 11.25V3.75C10.25 3.19772 9.80228 2.75 9.25 2.75H2.75C2.19772 2.75 1.75 3.19772 1.75 3.75V11.25H3.99991M10.25 11.25H6M10.25 11.25H10.9999M10.9999 11.25C10.843 11.4589 10.75 11.7186 10.75 12C10.75 12.6904 11.3096 13.25 12 13.25C12.6904 13.25 13.25 12.6904 13.25 12C13.25 11.3096 12.6904 10.75 12 10.75C11.591 10.75 11.228 10.9464 10.9999 11.25ZM6.25 12C6.25 12.6904 5.69036 13.25 5 13.25C4.30964 13.25 3.75 12.6904 3.75 12C3.75 11.3096 4.30964 10.75 5 10.75C5.69036 10.75 6.25 11.3096 6.25 12Z" stroke="black" stroke-width="1.5" stroke-linecap="round" stroke-linejoin="round"/>
</svg>
