<svg width="32" height="32" viewBox="0 0 16 16" fill="white" xmlns="http://www.w3.org/2000/svg">
<path fill-rule="evenodd" clip-rule="evenodd" d="M2.75 2C2.33579 2 2 2.33579 2 2.75C2 3.16421 2.33579 3.5 2.75 3.5H8.25C8.66421 3.5 9 3.16421 9 2.75C9 2.33579 8.66421 2 8.25 2H2.75ZM11.75 2C11.3358 2 11 2.33579 11 2.75C11 3.16421 11.3358 3.5 11.75 3.5H13.25C13.6642 3.5 14 3.16421 14 2.75C14 2.33579 13.6642 2 13.25 2H11.75ZM8 13.25C8 12.8358 8.33579 12.5 8.75 12.5H13.25C13.6642 12.5 14 12.8358 14 13.25C14 13.6642 13.6642 14 13.25 14H8.75C8.33579 14 8 13.6642 8 13.25ZM2.75 12.5C2.33579 12.5 2 12.8358 2 13.25C2 13.6642 2.33579 14 2.75 14H5.25C5.66421 14 6 13.6642 6 13.25C6 12.8358 5.66421 12.5 5.25 12.5H2.75ZM2 9.75C2 9.33579 2.33579 9 2.75 9H7.25C7.66421 9 8 9.33579 8 9.75C8 10.1642 7.66421 10.5 7.25 10.5H2.75C2.33579 10.5 2 10.1642 2 9.75ZM10.75 9C10.3358 9 10 9.33579 10 9.75C10 10.1642 10.3358 10.5 10.75 10.5H13.25C13.6642 10.5 14 10.1642 14 9.75C14 9.33579 13.6642 9 13.25 9H10.75ZM2 6.25C2 5.83579 2.33579 5.5 2.75 5.5H4.25C4.66421 5.5 5 5.83579 5 6.25C5 6.66421 4.66421 7 4.25 7H2.75C2.33579 7 2 6.66421 2 6.25ZM7.75 5.5C7.33579 5.5 7 5.83579 7 6.25C7 6.66421 7.33579 7 7.75 7H13.25C13.6642 7 14 6.66421 14 6.25C14 5.83579 13.6642 5.5 13.25 5.5H7.75Z" fill="black"/>
</svg>
