<svg width="32" height="32" viewBox="0 0 16 16" fill="none" xmlns="http://www.w3.org/2000/svg">
<rect x="0" y="0" width="16" height="16" fill="white"/>
<path d="M8.25 14.25C4.5 14.25 1.75 11.4518 1.75 8C1.75 4.54822 4.54822 1.75 8 1.75C13 1.75 14.25 5 14.25 8V8.25C14.25 9.35457 13.3546 10.25 12.25 10.25V10.25C11.1454 10.25 10.25 9.35457 10.25 8.25V5.75M10.25 8C10.25 9.24264 9.24264 10.25 8 10.25C6.75736 10.25 5.75 9.24264 5.75 8C5.75 6.75736 6.75736 5.75 8 5.75C9.24264 5.75 10.25 6.75736 10.25 8Z" stroke="black" stroke-width="1.5" stroke-linecap="round" stroke-linejoin="round"/>
</svg>
