<svg xmlns="http://www.w3.org/2000/svg" width="32" height="32" fill="none" viewBox="0 0 16 16"><path fill="#181c1f" d="M0 0h16v16H0z"/><path fill="#fff" fill-rule="evenodd" d="M1 3.75C1 2.784 1.784 2 2.75 2h6.5c.966 0 1.75.784 1.75 1.75V5h1.25A2.75 2.75 0 0 1 15 7.75v3.5a.75.75 0 0 1-.75.75H14a2 2 0 1 1-4 0H7a2 2 0 1 1-4 0H1.75a.75.75 0 0 1-.75-.75zm2.677 6.75c.353-.311.816-.5 1.323-.5s.97.189 1.323.5H9.5V3.75a.25.25 0 0 0-.25-.25h-6.5a.25.25 0 0 0-.25.25v6.75zM11 6.5v3.768a1.99 1.99 0 0 1 2.323.232h.177V7.75c0-.69-.56-1.25-1.25-1.25zm1.396 5.195a.5.5 0 1 0 .008.01zm-7 0a.5.5 0 1 0-.791.609.5.5 0 0 0 .791-.61" clip-rule="evenodd"/></svg>