<svg width="32" height="32" viewBox="0 0 16 16" fill="none" xmlns="http://www.w3.org/2000/svg">
<rect x="0" y="0" width="16" height="16" fill="white"/>
<path d="M11.75 9.75L14.25 12M14.25 12L11.75 14.25M14.25 12H10.5689C8.87842 12 7.37047 10.9373 6.80191 9.34535L6.34649 8.07018M11.75 1.75L14.25 4M14.25 4L11.75 6.25M14.25 4H10.6018C8.89527 4 7.37665 5.0827 6.82033 6.69604L6.34649 8.07018M6.34649 8.07018L6.19809 7.65466C5.62953 6.06268 4.12158 5 2.43112 5H1.75M6.34649 8.07018L6.17967 8.55396C5.62335 10.1673 4.10473 11.25 2.39818 11.25H1.75" stroke="black" stroke-width="1.5" stroke-linecap="round" stroke-linejoin="round"/>
</svg>
