<svg width="32" height="32" viewBox="0 0 16 16" fill="white" xmlns="http://www.w3.org/2000/svg">
<path d="M1.75 5C2.12588 4.17463 3.13604 3.75 4.00592 3.75C5.24531 3.75 6.25003 4.75736 6.25003 6C6.25003 7.24264 4.98949 8 3.7501 8C4.98949 8 6.25003 8.75736 6.25003 10C6.25003 11.2426 5.24531 12.25 4.00592 12.25C3.13278 12.25 2.1203 11.8319 1.75 11" stroke="black" stroke-width="1.5" stroke-linecap="round" stroke-linejoin="round"/>
<path d="M9.75 5C10.1259 4.17463 11.136 3.75 12.0059 3.75C13.2453 3.75 14.25 4.75736 14.25 6C14.25 7.24264 12.9895 8 11.7501 8C12.9895 8 14.25 8.75736 14.25 10C14.25 11.2426 13.2453 12.25 12.0059 12.25C11.1328 12.25 10.1203 11.8319 9.75 11" stroke="black" stroke-width="1.5" stroke-linecap="round" stroke-linejoin="round"/>
</svg>
