<svg width="32" height="32" viewBox="0 0 16 16" fill="white" xmlns="http://www.w3.org/2000/svg">
<path d="M1.75 5C2.12588 4.17463 3.13604 3.75 4.00592 3.75C5.24531 3.75 6.25003 4.75736 6.25003 6C6.25003 7.24264 4.98949 8 3.7501 8C4.98949 8 6.25003 8.75736 6.25003 10C6.25003 11.2426 5.24531 12.25 4.00592 12.25C3.13278 12.25 2.1203 11.8319 1.75 11" stroke="black" stroke-width="1.5" stroke-linecap="round" stroke-linejoin="round"/>
<path d="M14.5 10C14.5 11.2426 13.4894 12.25 12.25 12.25C11.0106 12.25 10 11.2426 10 10C10 8.75736 11.0165 8 12.2559 8C13.4953 8 14.5 8.75736 14.5 10Z" stroke="black" stroke-width="1.5" stroke-linecap="round" stroke-linejoin="round"/>
<path d="M14.0001 5.5C14.0001 6.4665 13.2166 7.25 12.2501 7.25C11.2836 7.25 10.5001 6.4665 10.5001 5.5C10.5001 4.5335 11.2836 3.75 12.2501 3.75C13.2166 3.75 14.0001 4.5335 14.0001 5.5Z" stroke="black" stroke-width="1.5" stroke-linecap="round" stroke-linejoin="round"/>
</svg>
