<svg width="32" height="32" viewBox="0 0 16 16" fill="white" xmlns="http://www.w3.org/2000/svg">
<path d="M1.75 11.25L1.03317 11.0294C0.963171 11.2569 1.00531 11.5041 1.14671 11.6956C1.28811 11.887 1.51199 12 1.75 12L1.75 11.25ZM14.25 11.25V12C14.488 12 14.7119 11.887 14.8533 11.6956C14.9947 11.5041 15.0368 11.2569 14.9668 11.0294L14.25 11.25ZM13.25 8H12.5C12.5 8.07476 12.5112 8.14911 12.5332 8.22056L13.25 8ZM2.75 8L3.46683 8.22056C3.48882 8.14911 3.5 8.07476 3.5 8H2.75ZM10.1942 12.5L10.9257 12.666L10.9257 12.666L10.1942 12.5ZM5.80575 12.5L5.07435 12.666L5.80575 12.5ZM14.9668 11.0294L13.9668 7.77944L12.5332 8.22056L13.5332 11.4706L14.9668 11.0294ZM14 8V7H12.5V8H14ZM2 7V8H3.5V7H2ZM2.03317 7.77944L1.03317 11.0294L2.46683 11.4706L3.46683 8.22056L2.03317 7.77944ZM9.5 12C9.5 12.1156 9.48706 12.2273 9.46284 12.334L10.9257 12.666C10.9744 12.4511 11 12.2281 11 12H9.5ZM9.46284 12.334C9.31129 13.0019 8.71292 13.5 8 13.5V15C9.42867 15 10.6225 14.0021 10.9257 12.666L9.46284 12.334ZM8 13.5C7.28708 13.5 6.68871 13.0019 6.53716 12.334L5.07435 12.666C5.37753 14.0021 6.57133 15 8 15V13.5ZM6.53716 12.334C6.51294 12.2273 6.5 12.1156 6.5 12H5C5 12.2281 5.02559 12.4511 5.07435 12.666L6.53716 12.334ZM1.75 12H5.75V10.5H1.75V12ZM6.5 12V11.25H5V12H6.5ZM5.75 12H10.25V10.5H5.75V12ZM10.25 12H14.25V10.5H10.25V12ZM11 12V11.25H9.5V12H11ZM8 1C4.68629 1 2 3.68629 2 7H3.5C3.5 4.51472 5.51472 2.5 8 2.5V1ZM14 7C14 3.68629 11.3137 1 8 1V2.5C10.4853 2.5 12.5 4.51472 12.5 7H14Z" fill="black"/>
</svg>
