<svg width="32" height="32" viewBox="0 0 16 16" fill="none" xmlns="http://www.w3.org/2000/svg">
<rect x="0" y="0" width="16" height="16" fill="#fff"/>
<path fill-rule="evenodd" clip-rule="evenodd" d="M9.75 3.5C9.33579 3.5 9 3.16421 9 2.75C9 2.33579 9.33579 2 9.75 2H13.25C13.6642 2 14 2.33579 14 2.75V6.25C14 6.66421 13.6642 7 13.25 7C12.8358 7 12.5 6.66421 12.5 6.25V4.56066L9.30888 7.75178C9.74505 8.39249 10 9.16647 10 10C10 12.2091 8.20914 14 6 14C3.79086 14 2 12.2091 2 10C2 7.79086 3.79086 6 6 6C6.83353 6 7.60751 6.25495 8.24822 6.69112L11.4393 3.5H9.75ZM6 7.5C4.61929 7.5 3.5 8.61929 3.5 10C3.5 11.3807 4.61929 12.5 6 12.5C7.38071 12.5 8.5 11.3807 8.5 10C8.5 8.61929 7.38071 7.5 6 7.5Z" fill="#000"/>
</svg>
