<svg width="16" height="16" viewBox="0 0 16 16" fill="currentColor" xmlns="http://www.w3.org/2000/svg">
  <path fill-rule="evenodd" clip-rule="evenodd" d="M2 8C2 4.68629 4.68629 2 8 2C11.3137 2 14 4.68629 14 8C14 11.3137 11.3137 14 8 14C4.68629 14 2 11.3137 2 8ZM8 2.92308C5.19609 2.92308 2.92308 5.19609 2.92308 8C2.92308 10.8039 5.19609 13.0769 8 13.0769C10.8039 13.0769 13.0769 10.8039 13.0769 8C13.0769 5.19609 10.8039 2.92308 8 2.92308Z" fill="#9B9BB1"/>
  <path fill-rule="evenodd" clip-rule="evenodd" d="M7.07692 8.00001C7.07692 8.50981 7.4902 8.92309 8 8.92309C8.5098 8.92309 8.92308 8.50981 8.92308 8.00001C8.92308 7.49021 8.5098 7.07693 8 7.07693C7.4902 7.07693 7.07692 7.49021 7.07692 8.00001Z" fill="#9B9BB1"/>
</svg>
