<svg height="16" viewBox="0 0 12 16" width="12" xmlns="http://www.w3.org/2000/svg"><path d="m8.49531 1.94442c-.1239-.40703-.18585-.61055-.30734-.76136-.10725-.13315-.24684-.236571-.40545-.300397-.17967-.072299-.39239-.072299-.81787-.072299h-1.94281c-.42492 0-.63737 0-.81687.072147-.15846.063696-.29797.166909-.40522.299819-.12149.15053-.18363.35367-.3079.75993l-2.720121 8.89264c1.005061-.521 2.097981-.89612 3.250681-1.09723l1.74107-5.95199c.0286-.09779.11827-.16499.22016-.16499.10161 0 .19112.06685.21996.1643l1.76239 5.95569c1.14739.20201 2.23531.57642 3.23611 1.09562z"/><path d="m6.14902 11.9012c1.02591 0 1.91655-.2602 2.36277-.6417.05939.1865.09143.3852.09143.5914 0 .3353-.08474.6508-.23396.9263-.28596.5279-.70087.791-1.07434 1.0278-.46942.2978-.8735.5541-.8735 1.2421 0 .2285.05254.4449.14619.6375-.62702-.2607-1.0679-.8791-1.0679-1.6005l.00003-.0423c.00062-.4753.00137-1.061-.67007-1.061-.39174 0-.70931.3175-.70931.7092-.75444-.7545-.68848-1.8391-.68848-1.8391 0-.2209.02245-.5667.12256-.8688.28005.5272 1.33543.9191 2.59458.9191z"/></svg>