<svg xmlns="http://www.w3.org/2000/svg" xml:space="preserve" viewBox="0 0 128 128">
  <circle cx="64" cy="64" r="64" fill="#3b82f7"/>
  <path fill="none" d="M19 33.8h90v56.6H19z"/>
  <path fill="#fff" d="M38.8 55.8c0-1.5.9-2.6 2.6-2.6H47v-5.4c0-1.6.9-2.6 2.5-2.6s2.5.9 2.5 2.6v5.5h5.3c1.7 0 2.7.9 2.7 2.6s-1 2.7-2.7 2.7H52V64c0 1.6-.9 2.6-2.5 2.6S47 65.6 47 64v-5.5h-5.6c-1.7-.1-2.6-1.1-2.6-2.7zm30.6 4.3c0-2.6 2-4.5 4.5-4.5 2.6 0 4.5 2 4.5 4.5 0 2.6-2 4.5-4.5 4.5s-4.5-1.9-4.5-4.5zm9.2-9.2c0-2.6 2-4.5 4.5-4.5 2.6 0 4.5 2 4.5 4.5s-1.9 4.5-4.5 4.5c-2.5 0-4.5-2-4.5-4.5zM30.8 90.2c4.3 0 7.2-1.5 9.9-4.8l5.7-6.8c.9-.9 1.7-1.4 2.7-1.4H79c.9 0 1.9.5 2.7 1.4l5.7 6.8c2.7 3.2 5.6 4.8 9.9 4.8 7.1 0 11.8-4.7 11.8-12 0-3.1-.8-6.7-1.9-10.7-1.9-6.3-5.2-15.1-8.4-21.8C96 40.1 94.6 37.6 88 36c-5.9-1.3-14-2.3-24-2.3s-18.2 1-24 2.3c-6.6 1.5-8 4.1-10.7 9.7-3.2 6.7-6.5 15.4-8.4 21.8-1.2 4-1.9 7.6-1.9 10.7 0 7.3 4.7 12 11.8 12z" opacity=".85"/>
</svg>
