<?xml version="1.0" encoding="utf-8"?>
<!-- Generator: Adobe Illustrator 26.0.2, SVG Export Plug-In . SVG Version: 6.00 Build 0)  -->
<svg version="1.1" id="Layer_1" xmlns="http://www.w3.org/2000/svg" xmlns:xlink="http://www.w3.org/1999/xlink" x="0px" y="0px"
	 viewBox="0 0 128 128" style="enable-background:new 0 0 128 128;" xml:space="preserve">
<style type="text/css">
	.st0{fill:#3B82F7;}
	.st1{fill-opacity:0;}
	.st2{fill:#FFFFFF;fill-opacity:0.85;}
</style>
<circle class="st0" cx="64" cy="64" r="64"/>
<g>
	<rect x="30" y="28.8" class="st1" width="68" height="70.8"/>
	<path class="st2" d="M30,65.4c0,10.1,2.9,21.1,7.8,29.8c0.8,1.4,2.4,1.8,3.9,1c1.4-0.8,1.8-2.3,0.9-3.9c-4.5-8.1-7-17.9-7-26.9
		C35.7,46.8,47,34.5,64,34.5c17,0,28.3,12.4,28.3,30.9c0,9-2.5,18.7-7,26.9c-0.9,1.6-0.5,3.1,0.9,3.9c1.5,0.8,3.1,0.4,3.9-1
		c4.9-8.6,7.8-19.7,7.8-29.8c0-22-13.6-36.6-34-36.6C43.5,28.8,30,43.4,30,65.4z M40.5,94.3c1.1,3.8,4.4,5.6,8.2,4.5
		c3.8-1.1,5.6-4.4,4.5-8.3l-4.8-16.3c-1.1-3.8-4.4-5.6-8.2-4.5c-3.8,1.1-5.6,4.4-4.5,8.3L40.5,94.3z M87.5,94.3L92.3,78
		c1.1-3.9-0.6-7.2-4.5-8.3c-3.9-1.1-7.1,0.7-8.2,4.5l-4.8,16.3c-1.1,3.9,0.7,7.2,4.5,8.3C83.2,99.9,86.4,98.1,87.5,94.3z"/>
</g>
</svg>
