<svg xmlns="http://www.w3.org/2000/svg" xml:space="preserve" viewBox="0 0 128 128">
  <circle cx="64" cy="64" r="64" fill="#3b82f7"/>
  <path fill="none" d="M22.5 38h82.9v52.1H22.5z"/>
  <path fill="#fff" fill-opacity=".85" d="M32.9 90h62.2c6.9 0 10.3-3.4 10.3-10.2V48.1c0-6.8-3.5-10.2-10.3-10.2H32.9c-6.9 0-10.3 3.4-10.3 10.2v31.7C22.5 86.6 26 90 32.9 90zM35 56.1c-.9 0-1.5-.6-1.5-1.5v-3.1c0-.9.6-1.5 1.5-1.5h3.1c1 0 1.5.6 1.5 1.5v3.1c0 .9-.6 1.5-1.5 1.5H35zm11 0c-1 0-1.5-.6-1.5-1.5v-3.1c0-.9.6-1.5 1.5-1.5h3.1c.9 0 1.5.6 1.5 1.5v3.1c0 .9-.6 1.5-1.5 1.5H46zm10.9 0c-.9 0-1.5-.6-1.5-1.5v-3.1c0-.9.6-1.5 1.5-1.5H60c1 0 1.5.6 1.5 1.5v3.1c0 .9-.6 1.5-1.5 1.5h-3.1zm10.9 0c-.9 0-1.5-.6-1.5-1.5v-3.1c0-.9.6-1.5 1.5-1.5H71c.9 0 1.5.6 1.5 1.5v3.1c0 .9-.6 1.5-1.5 1.5h-3.2zm11 0c-1 0-1.5-.6-1.5-1.5v-3.1c0-.9.6-1.5 1.5-1.5h3.1c.9 0 1.5.6 1.5 1.5v3.1c0 .9-.6 1.5-1.5 1.5h-3.1zm10.9 0c-1 0-1.5-.6-1.5-1.5v-3.1c0-.9.6-1.5 1.5-1.5h3.1c1 0 1.5.6 1.5 1.5v3.1c0 .9-.6 1.5-1.5 1.5h-3.1zM35 67c-.9 0-1.5-.6-1.5-1.5v-3.1c0-.9.6-1.5 1.5-1.5h3.1c1 0 1.5.6 1.5 1.5v3.1c0 .9-.6 1.5-1.5 1.5H35zm11 0c-1 0-1.5-.6-1.5-1.5v-3.1c0-.9.6-1.5 1.5-1.5h3.1c.9 0 1.5.6 1.5 1.5v3.1c0 .9-.6 1.5-1.5 1.5H46zm10.9 0c-.9 0-1.5-.6-1.5-1.5v-3.1c0-.9.6-1.5 1.5-1.5H60c1 0 1.5.6 1.5 1.5v3.1c0 .9-.6 1.5-1.5 1.5h-3.1zm10.9 0c-.9 0-1.5-.6-1.5-1.5v-3.1c0-.9.6-1.5 1.5-1.5H71c.9 0 1.5.6 1.5 1.5v3.1c0 .9-.6 1.5-1.5 1.5h-3.2zm11 0c-1 0-1.5-.6-1.5-1.5v-3.1c0-.9.6-1.5 1.5-1.5h3.1c.9 0 1.5.6 1.5 1.5v3.1c0 .9-.6 1.5-1.5 1.5h-3.1zm10.9 0c-1 0-1.5-.6-1.5-1.5v-3.1c0-.9.6-1.5 1.5-1.5h3.1c1 0 1.5.6 1.5 1.5v3.1c0 .9-.6 1.5-1.5 1.5h-3.1zM35 78c-.9 0-1.5-.6-1.5-1.5v-3.1c0-.9.6-1.5 1.5-1.5h3.1c1 0 1.5.6 1.5 1.5v3.1c0 .9-.6 1.5-1.5 1.5H35zm11.3 0c-1.2 0-1.9-.7-1.9-1.9v-2.4c0-1.2.7-1.8 1.9-1.8h35.2c1.2 0 1.8.7 1.8 1.8v2.4c0 1.2-.7 1.9-1.8 1.9H46.3zm43.4 0c-1 0-1.5-.6-1.5-1.5v-3.1c0-.9.6-1.5 1.5-1.5h3.1c1 0 1.5.6 1.5 1.5v3.1c0 .9-.6 1.5-1.5 1.5h-3.1z"/>
</svg>
