<svg width="40" height="40" viewBox="0 0 40 40" fill="none" xmlns="http://www.w3.org/2000/svg">
<path fill-rule="evenodd" clip-rule="evenodd" d="M33.295 18.6396H36.875L36.8725 18.6371C36.9812 18.6368 37.088 18.6648 37.1825 18.7184C37.277 18.772 37.3559 18.8493 37.4114 18.9427C37.467 19.0361 37.4972 19.1423 37.4991 19.2509C37.5011 19.3595 37.4747 19.4668 37.4225 19.5621L33.395 26.9696L33.356 26.9483C32.3713 26.4122 31.003 25.6671 28.7825 25.6671C27.0325 25.6671 26.1575 26.1252 25.2825 26.5833C24.4075 27.0415 23.5325 27.4996 21.7825 27.4996C20.0325 27.4996 19.1575 27.0415 18.2825 26.5833C17.4075 26.1252 16.5325 25.6671 14.7825 25.6671C13.0325 25.6671 12.1575 26.1252 11.2825 26.5833C10.4075 27.0415 9.53253 27.4996 7.78253 27.4996C6.24003 27.4996 5.37753 27.1446 4.59503 26.7446L8.33503 19.1271C8.40735 18.9807 8.5192 18.8574 8.65793 18.7713C8.79666 18.6851 8.95673 18.6395 9.12003 18.6396H10.7875C10.8135 18.6394 10.8388 18.6311 10.8599 18.6159C10.8809 18.6006 10.8967 18.5792 10.905 18.5546L13.655 12.9946C13.728 12.846 13.8412 12.7208 13.9817 12.6333C14.1222 12.5458 14.2845 12.4995 14.45 12.4996H22.9225C22.975 12.4996 23.04 12.4646 23.04 12.3646V11.2071C23.0391 10.9996 23.0957 10.7959 23.2033 10.6186C23.311 10.4412 23.4656 10.2971 23.65 10.2021L26.6825 8.43709C27.19 8.18709 27.5425 8.46709 27.725 8.93209L28.575 10.9946C28.5833 11.0192 28.5991 11.0406 28.6202 11.0559C28.6413 11.0711 28.6665 11.0794 28.6925 11.0796H30.0775C30.2613 11.0804 30.4401 11.1393 30.5884 11.248C30.7366 11.3567 30.8465 11.5095 30.9025 11.6846L33.17 18.5496C33.1789 18.5758 33.1957 18.5985 33.2181 18.6146C33.2405 18.6308 33.2674 18.6395 33.295 18.6396ZM18.3461 18.4931C18.4399 18.3994 18.4925 18.2722 18.4925 18.1396H18.495V16.1396C18.495 15.8646 18.27 15.6396 17.995 15.6396H14.37C14.2516 15.6394 14.1355 15.6722 14.0347 15.7345C13.934 15.7968 13.8527 15.886 13.8 15.9921L12.8475 17.9421C12.59 18.3946 12.8675 18.6396 13.18 18.6396H17.9925C18.1251 18.6396 18.2523 18.5869 18.3461 18.4931ZM23.8532 18.4902C23.9488 18.3946 24.0025 18.2649 24.0025 18.1296V16.1496C24.0025 15.8671 23.775 15.6396 23.4925 15.6396H20.0125C19.73 15.6396 19.5025 15.8671 19.5025 16.1496V18.1296C19.5025 18.2649 19.5563 18.3946 19.6519 18.4902C19.7476 18.5859 19.8773 18.6396 20.0125 18.6396H23.4925C23.6278 18.6396 23.7575 18.5859 23.8532 18.4902ZM25.5075 18.6421L30.3375 18.6396C30.61 18.6396 30.865 18.4796 30.7325 18.0671L30.25 16.1171C30.18 15.8371 29.9275 15.6396 29.6375 15.6396H25.505C25.225 15.6396 25 15.8671 25 16.1421V18.1396C25.0004 18.2059 25.0137 18.2715 25.0394 18.3327C25.0651 18.3938 25.1026 18.4493 25.1497 18.496C25.1968 18.5426 25.2527 18.5795 25.3141 18.6046C25.3755 18.6297 25.4412 18.6424 25.5075 18.6421Z" fill="black"/>
<path d="M17.7674 31.4403C18.7137 31.9372 19.786 32.5003 21.8425 32.5003C23.8964 32.5003 24.9712 31.9373 25.915 31.4429L25.92 31.4403C26.7475 31.0053 27.3975 30.6653 28.84 30.6653C29.8725 30.6653 30.4975 30.8378 31.0725 31.0953L32.27 28.8953C31.455 28.5078 30.4475 28.1653 28.84 28.1653C26.785 28.1653 25.7075 28.7278 24.76 29.2253L24.7543 29.2283C23.932 29.6594 23.2817 30.0003 21.8425 30.0003C20.4033 30.0003 19.753 29.6594 18.9307 29.2283L18.925 29.2253C17.9775 28.7278 16.9 28.1653 14.8425 28.1653C12.785 28.1653 11.71 28.7278 10.76 29.2253L10.7586 29.226C9.93425 29.6582 9.28167 30.0003 7.84 30.0003C5.99048 30.0003 4.248 28.913 4.11219 28.8282L4.1075 28.8253L3.6175 28.5553L2.5 30.7903L2.8225 30.9678C2.9175 31.0303 5.21 32.5003 7.84 32.5003C9.8975 32.5003 10.9725 31.9378 11.9225 31.4378L11.9239 31.437C12.7482 31.0049 13.4008 30.6628 14.8425 30.6628C16.2842 30.6628 16.9368 31.0049 17.7611 31.437L17.7625 31.4378L17.7674 31.4403Z" fill="black"/>
</svg>
