<svg stroke="currentColor" fill="currentColor" stroke-width="0" version="1" viewBox="0 0 48 48" enable-background="new 0 0 48 48" height="1em" width="1em" xmlns="http://www.w3.org/2000/svg"><rect x="204" fill="none" width="48" height="48"></rect><polygon fill="#90CAF9" points="244,45 212,45 212,3 234,3 244,13"></polygon><polygon fill="#E1F5FE" points="242.5,14 233,14 233,4.5"></polygon><g fill="#1976D2"><circle cx="227" cy="30" r="4"></circle><polygon points="234,21 229,19 229,30 231,30 231,22.9 234,24"></polygon></g><polygon fill="#90CAF9" points="40,45 8,45 8,3 30,3 40,13"></polygon><polygon fill="#E1F5FE" points="38.5,14 29,14 29,4.5"></polygon><g fill="#1976D2"><circle cx="23" cy="30" r="4"></circle><polygon points="30,21 25,19 25,30 27,30 27,22.9 30,24"></polygon></g></svg>