<svg width="36" height="36" viewBox="0 0 36 36" xmlns="http://www.w3.org/2000/svg"><path fill="#F4900C" d="M23 4.326c0 4.368-9.837 6.652-9.837 13.206c0 2.184 1.085 4.468 2.177 4.468h15.291c1.093 0 2.192-2.284 2.192-4.468C32.823 10.977 23 8.694 23 4.326"/><path fill="#FFD983" d="M35 33.815C35 35.022 34.711 36 32.815 36h-19.66C11.26 36 11 35.022 11 33.815V22.894c0-1.206.26-1.894 2.156-1.894h19.66c1.895 0 2.184.688 2.184 1.894z"/><path fill="#FFD983" d="M23 34a2 2 0 0 1-2 2H3a2 2 0 0 1-2-2v-1a2 2 0 0 1 2-2h18a2 2 0 0 1 2 2z"/><path fill="#662113" d="M26 29c0-3-1.896-5-3-5s-3 2-3 5v7h6zm-8 2.333c0-2-1.264-3.333-2-3.333s-2 1.333-2 3.333V36h4zm14 0c0-2-1.264-3.333-2-3.333s-2 1.333-2 3.333V36h4z"/><path fill="#FFD983" d="M9 34a2 2 0 0 1-2 2H5a2 2 0 0 1-2-2V8a2 2 0 0 1 2-2h2a2 2 0 0 1 2 2z"/><path fill="#F4900C" d="M5.995.326c0 1.837-2.832 2.918-2.832 5.675c0 .919.312 2 .627 2h4.402c.314 0 .631-1.081.631-2c0-2.757-2.828-3.838-2.828-5.675"/><path fill="#FFAC33" d="M10 12a1 1 0 0 1-1 1H3a1 1 0 0 1 0-2h6a1 1 0 0 1 1 1m0-4a1 1 0 0 1-1 1H3a1 1 0 0 1 0-2h6a1 1 0 0 1 1 1"/></svg>