<svg width="24" height="24" xmlns="http://www.w3.org/2000/svg" fill="currentColor">
  <path
    fill="currentColor"
    d="m4.223,4.584a0.5,0.5 0 0 0 -0.223,0.416l0,14.5a0.5,0.5 0 0 0 1,0l0,-5.723c0.886,-0.515 2.05,-0.777 3.5,-0.777c0.97,0 1.704,0.178 3.342,0.724c1.737,0.58 2.545,0.776 3.658,0.776c1.759,0 3.187,-0.357 4.277,-1.084a0.5,0.5 0 0 0 0.223,-0.416l0,-8.5a0.5,0.5 0 0 0 -0.777,-0.416c-0.91,0.606 -2.148,0.916 -3.723,0.916c-0.97,0 -1.704,-0.178 -3.342,-0.724c-1.737,-0.58 -2.545,-0.776 -3.658,-0.776c-1.758,0 -3.187,0.357 -4.277,1.084z"
    clip-rule="evenodd"
    fill-rule="evenodd"
  />
</svg>