<svg width="512" height="512" viewBox="0 0 512 512" fill="none" xmlns="http://www.w3.org/2000/svg">
  <rect width="512" height="512" rx="128" fill="#1B1B1B"/>
  <path d="M256 120C178.6 120 116 182.6 116 260C116 337.4 178.6 400 256 400C295.4 400 331.2 383.6 356.8 356.8L320 320C302.4 339.2 280.4 352 256 352C205.2 352 164 310.8 164 260C164 209.2 205.2 168 256 168C280.4 168 302.4 180.8 320 200L356.8 163.2C331.2 136.4 295.4 120 256 120Z" fill="white"/>
  <path d="M320 260H396V308H320V260Z" fill="white"/>
</svg>
