<svg stroke="currentColor" fill="currentColor" stroke-width="0" viewBox="0 0 1024 1024" height="1em" width="1em" xmlns="http://www.w3.org/2000/svg"><path d="M512 0C229.232 0 0 229.232 0 512c0 282.784 229.232 512 512 512 282.784 0 512-229.216 512-512C1024 229.232 794.784 0 512 0zm0 961.008c-247.024 0-448-201.984-448-449.01 0-247.024 200.976-448 448-448s448 200.977 448 448-200.976 449.01-448 449.01zm20.368-642.368c-12.496 12.496-12.496 32.752 0 45.248l115.76 115.76H287.68c-17.68 0-32 14.336-32 32s14.32 32 32 32h362.464l-117.76 117.744c-12.496 12.496-12.496 32.752 0 45.248 6.256 6.256 14.432 9.376 22.624 9.376s16.368-3.12 22.624-9.376l189.008-194-189.008-194c-12.512-12.496-32.752-12.496-45.264 0z"></path></svg>