<svg stroke="currentColor" fill="currentColor" stroke-width="0" viewBox="0 0 1024 1024" height="1em" width="1em" xmlns="http://www.w3.org/2000/svg"><path d="M0 512c0 282.784 229.232 512 512 512 282.784 0 512-229.216 512-512C1024 229.232 794.784 0 512 0 229.232 0 0 229.232 0 512zm961.008 0c0 247.024-201.969 448-449.009 448s-448-200.976-448-448 200.976-448 448-448 449.009 200.976 449.009 448zM479.663 287.68v360.448l-115.76-115.76c-12.496-12.496-32.752-12.496-45.248 0s-12.496 32.752 0 45.248l194.016 189.008 194-189.008c6.256-6.256 9.376-14.432 9.376-22.624s-3.12-16.368-9.376-22.624c-12.496-12.496-32.752-12.496-45.248 0l-117.744 117.76V287.68c0-17.68-14.336-32-32-32s-32.016 14.32-32.016 32z"></path></svg>