<svg stroke="currentColor" fill="currentColor" stroke-width="0" viewBox="0 0 1024 1024" height="1em" width="1em" xmlns="http://www.w3.org/2000/svg"><path d="M512 0C229.232 0 0 229.232 0 512c0 282.784 229.232 512 512 512 282.784 0 512-229.216 512-512C1024 229.232 794.784 0 512 0zm0 961.008c-247.024 0-448-201.984-448-449.01 0-247.024 200.976-448 448-448s448 200.977 448 448-200.976 449.01-448 449.01zm204.336-636.352L415.935 626.944l-135.28-135.28c-12.496-12.496-32.752-12.496-45.264 0-12.496 12.496-12.496 32.752 0 45.248l158.384 158.4c12.496 12.48 32.752 12.48 45.264 0 1.44-1.44 2.673-3.009 3.793-4.64l318.784-320.753c12.48-12.496 12.48-32.752 0-45.263-12.512-12.496-32.768-12.496-45.28 0z"></path></svg>