<svg stroke="currentColor" fill="currentColor" stroke-width="0" viewBox="0 0 1024 1024" height="1em" width="1em" xmlns="http://www.w3.org/2000/svg"><path d="M1023.31 473.296c-1.36-11.312-5.614-21.713-12.095-30.465h.16l-.88-.88c-3.28-4.32-7.12-8.128-11.408-11.504L581.807 27.04c-36.223-36.223-99.504-36.288-135.776 0L28.815 427.295c-9.024 8.4-28.88 31.09-28.88 53.345v479.52c0 35.184 28.816 64 64 64h896c35.183 0 64-28.816 64-64V481.904c.223-2.88-.065-5.76-.625-8.607zM269.794 726.335L63.938 915.902V544.718zm65.775 26.384c2.288-1.52 4.465-3.248 6.37-5.408.367-.416.623-.912.96-1.344l141.167-130c7.248-5.84 15.84-8.912 24.88-8.912 9.184 0 18.367 3.216 24.527 8l383.6 345.104H110.337zm421.889-22.161l202.48-179.696v361.84zm-653.68-287.729L491.279 72.285c6.064-6.032 14.097-9.376 22.625-9.376 8.56 0 16.592 3.344 22.656 9.376l361.376 344.352h-.975l54.896 55.792-242.304 215.04-135.248-121.664c-37.68-29.536-91.775-30.816-131.68 1.376L317.121 682.765 75.33 469.421l26.992-26.592h1.456z"></path></svg>