<svg stroke="currentColor" fill="currentColor" stroke-width="0" viewBox="0 0 1024 1024" height="1em" width="1em" xmlns="http://www.w3.org/2000/svg"><path d="M990.848 696.304V438.16l16.096-8.496c10.464-5.44 17.055-16.225 17.183-28.032.128-11.777-6.256-22.689-16.592-28.368l-481.44-257.6c-9.631-5.28-21.28-5.249-30.976.095l-478.8 257.92C6.126 379.36-.177 390.143-.113 401.84s6.496 22.4 16.817 27.97l210.384 111.983c-2.64 4.656-4.272 9.968-4.272 15.696v270.784c0 9.12 3.905 17.84 10.72 23.904 6.945 6.16 73.441 60.096 276.753 60.096 202.592 0 270.88-50.976 278-56.784 7.44-6.064 11.744-15.152 11.744-24.784V552.976c0-4.496-.944-8.768-2.608-12.64l129.424-68.369V696.48c-18.976 11.104-31.84 31.472-31.84 55.024 0 35.344 28.656 64 64 64s64-28.656 64-64c0-23.697-13.04-44.145-32.16-55.2zM736.031 812.368c-25.152 12.096-91.712 35.904-225.744 35.904-134.88 0-199.936-25.344-223.472-37.536V573.6l207.808 110.624a31.896 31.896 0 0 0 15.184 3.84 31.675 31.675 0 0 0 14.816-3.664l211.408-111.664v239.632zM510.063 619.81l-411.6-218.561 412.32-220.976 413.6 220.336z"></path></svg>