<svg stroke="currentColor" fill="currentColor" stroke-width="0" viewBox="0 0 1024 1024" height="1em" width="1em" xmlns="http://www.w3.org/2000/svg"><path d="M704.144 0H319.856c-53.024 0-96 42.976-96 96v832c0 53.024 42.976 96 96 96h384.288c53.024 0 96-42.976 96-96V96c0-53.024-42.976-96-96-96zm32 928c0 17.664-14.336 32-32 32H319.856c-17.664 0-32-14.336-32-32V96c0-17.664 14.336-32 32-32h384.288c17.664 0 32 14.336 32 32v832zM512.048 800.176c-35.28 0-63.84 28.592-63.84 63.824s28.576 63.841 63.84 63.841c35.28 0 63.84-28.608 63.84-63.84 0-35.233-28.56-63.825-63.84-63.825zm64-704.176h-128c-17.664 0-32 14.336-32 32s14.336 32 32 32h128c17.664 0 32-14.336 32-32s-14.336-32-32-32z"></path></svg>