<svg fill="none" height="16" viewBox="0 0 16 16" width="16" xmlns="http://www.w3.org/2000/svg" xmlns:xlink="http://www.w3.org/1999/xlink"><clipPath id="a"><path d="m0 0h16v16h-16z"/></clipPath><g clip-path="url(#a)"><path d="m15.832 3.10091c-.17-.083-.242.075-.341.156-.034.026-.063.06-.092.09-.247.265-.537.439-.915.418-.553-.031-1.025.143-1.442.565-.088-.52-.383-.832-.832-1.032-.234-.104-.472-.207-.636-.433-.114-.16-.146-.34-.203-.516-.037-.107-.073-.216-.196-.234-.133-.02-.185.091-.237.184-.209.382-.29.802-.282 1.227.019.957.423 1.72 1.226 2.262.091.062.115.125.086.215-.055.187-.12.369-.177.556-.037.119-.092.145-.22.093-.4324-.18569-.8251-.4525-1.157-.786-.57104-.553-1.08704-1.162-1.73104-1.64-.14944-.10993-.30288-.21434-.46-.313-.656-.638.087-1.162.259-1.224.18-.065.062-.288-.52-.286-.58.003-1.113.197-1.79.457-.1.039-.204.067-.31.09-.63363-.11904-1.28161-.14163-1.922-.067-1.257.14-2.261.734-2.998997 1.748-.8869998 1.22-1.095 2.604-.84 4.05.269 1.52199 1.045997 2.78199 2.239997 3.76799 1.239 1.022 2.665 1.523 4.292 1.427.988-.057 2.089-.19 3.33-1.24.31304.155.64104.218 1.18604.264.42.04.824-.02 1.137-.085.49-.104.456-.558.279-.64-1.437-.67-1.121-.398-1.408-.618.73-.864 1.83-1.76099 2.26-4.66999.034-.23.006-.375 0-.562-.002-.114.024-.158.155-.171.36-.042.709-.14 1.03-.317.93-.508 1.306-1.343 1.394-2.344.013-.153-.002-.312-.164-.392zm-8.11204 9.00999c-1.392-1.094-2.067-1.454-2.346-1.439-.261.016-.214.314-.157.509.06.192.138.324.248.493.076.111.128.277-.076.402-.448.277-1.228-.094-1.264-.112-.908-.534-1.666-1.24-2.201-2.20499-.51799-.91473-.81458-1.93805-.866-2.988-.013-.257.063-.347.318-.394.33629-.0644.68087-.07318 1.02-.026 1.421.208 2.63.843 3.645 1.85.579.573 1.017 1.257 1.468 1.92699.48.71.996 1.387 1.653 1.942.232.195.417.343.595.452-.535.06-1.426.072-2.037-.41zm.668-4.29199c-.00018-.03309.00769-.06573.02293-.0951.01525-.02937.03741-.0546.06457-.07349.02717-.0189.05852-.03091.09136-.03499.03284-.00407.06618-.0001.09714.01158.029.01.055.026.076.05.03698.03797.05747.089.057.142.00014.02704-.00511.05384-.01542.07884-.01032.025-.02551.04769-.04468.06677-.01916.01908-.04194.03415-.06698.04435-.02505.01019-.05188.01531-.07892.01504-.02686.00014-.05349-.00509-.07831-.01537s-.04734-.0254-.06624-.04449c-.01891-.01909-.03381-.04176-.04385-.06668-.01003-.02492-.015-.0516-.0146-.07846zm2.07304 1.064c-.1244.05744-.2576.09328-.394.106-.19156.00678-.37953-.05294-.53204-.169-.182-.153-.313-.238-.367-.505-.024-.115-.01-.291.01-.392.047-.218-.005-.358-.16-.485-.124-.104-.283-.132-.458-.132-.06003-.00338-.11835-.02122-.17-.052-.073-.037-.132-.127-.075-.239.03662-.05186.07963-.09889.128-.14.237-.135.51-.09.764.01.234.096.412.273.667.522.26004.3.30804.384.45604.61.118.176.225.357.298.565.044.13-.013.236-.167.3z" fill="currentColor"/></g></svg>