<svg width="512" height="512" viewBox="64 64 384 384" fill="none" xmlns="http://www.w3.org/2000/svg">
<path fill-rule="evenodd" clip-rule="evenodd" d="M292.851 249.19C242.657 222.066 181.584 186.893 135.62 158.223C122.058 148.453 128.941 127.716 145.332 127.716H372.764C385.451 127.716 393.938 141.861 387.58 152.565C372.297 178.96 349.986 212.471 331.349 239.041C321.345 253.302 305.042 255.752 292.851 249.19ZM219.645 257.998C268.177 283.868 336.191 323.212 384.518 352.961C399.451 362.177 393.501 384.284 376.06 384.284C347.52 384.284 301.144 384.292 255.009 384.299C209.35 384.306 163.926 384.313 136.261 384.313C122.32 384.313 115.175 369.847 121.095 359.756C141.103 325.662 163.589 291.246 182.284 265.552C190.597 254.09 207.513 251.523 219.645 257.998Z" fill="black"/>
</svg>