<svg width="512" height="512" viewBox="0 0 512 512" fill="none" xmlns="http://www.w3.org/2000/svg" xmlns:xlink="http://www.w3.org/1999/xlink" class=""><rect id="r9" width="512" height="512" x="0" y="0" rx="128" fill="url(#ra)" stroke="#FFFFFF" stroke-width="0" stroke-opacity="100%" paint-order="stroke"></rect><clipPath id="clip"><use xlink:href="#r9"></use></clipPath><defs><linearGradient id="ra" gradientUnits="userSpaceOnUse" gradientTransform="rotate(45)" style="transform-origin: center center;"><stop stop-color="#FE7DB7"></stop><stop offset="1" stop-color="#9146ff"></stop></linearGradient><radialGradient id="rb" cx="0" cy="0" r="1" gradientUnits="userSpaceOnUse" gradientTransform="translate(256) rotate(90) scale(512)"><stop stop-color="white"></stop><stop offset="1" stop-color="white" stop-opacity="0"></stop></radialGradient></defs><svg width="425" height="425" viewBox="0 0 500 500" fill="none" xmlns="http://www.w3.org/2000/svg" x="43.5" y="43.5" alignment-baseline="middle" style="color: rgb(255, 255, 255);">
<path d="M275.2 415C267.2 415 260.667 413.133 255.6 409.4C250.533 405.667 247.6 400.067 246.8 392.6C246.267 384.867 248.4 378.333 253.2 373C258.267 367.667 265.333 364.867 274.4 364.6C286.933 364.333 296.4 363.267 302.8 361.4C309.467 359.267 314.4 355.533 317.6 350.2C320.8 344.867 323.333 337.133 325.2 327C327.067 317.933 328.8 307.667 330.4 296.2C332 284.733 333.333 272.867 334.4 260.6C334.933 249.133 333.067 241.267 328.8 237C324.8 232.733 316.8 230.6 304.8 230.6H239.6C233.2 270.333 220.133 304.733 200.4 333.8C180.933 362.867 153.733 387.667 118.8 408.2C112.4 411.933 105.467 413.4 98 412.6C90.5333 411.8 84.9333 408.2 81.2 401.8C77.4667 395.667 76.4 389.4 78 383C79.6 376.333 83.7333 371.133 90.4 367.4C114.933 353.8 134.8 338.2 150 320.6C165.467 303 176.8 281.8 184 257C191.467 231.933 195.2 202.067 195.2 167.4V128.6H89.6C83.7333 128.6 78.6667 126.467 74.4 122.2C70.1333 117.933 68 112.867 68 107C68 100.867 70.1333 95.6667 74.4 91.4C78.6667 87.1333 83.7333 85 89.6 85H411.2C417.333 85 422.4 87.1333 426.4 91.4C430.667 95.6667 432.8 100.867 432.8 107C432.8 112.867 430.667 117.933 426.4 122.2C422.4 126.467 417.333 128.6 411.2 128.6H244V167.4C244 170.333 244 173.267 244 176.2C244 178.867 243.867 181.667 243.6 184.6H305.6C326.4 184.6 342.533 187 354 191.8C365.467 196.333 373.333 203.933 377.6 214.6C382.133 225.267 383.867 239.533 382.8 257.4C382 272.067 380.8 285.667 379.2 298.2C377.867 310.733 376 323.667 373.6 337C370.133 356.733 364.533 372.333 356.8 383.8C349.333 395.267 339.067 403.267 326 407.8C312.933 412.6 296 415 275.2 415Z" fill="white"></path>
</svg>
</svg>