<?xml version="1.0" encoding="UTF-8"?>
<!DOCTYPE svg PUBLIC "-//W3C//DTD SVG 1.1//EN" "http://www.w3.org/Graphics/SVG/1.1/DTD/svg11.dtd">
<svg viewBox="0 0 16 16" width="100%" height="100%" fill="none" xmlns="http://www.w3.org/2000/svg">
<path d="M3.75 1.75H12.25C13.3546 1.75 14.25 2.64543 14.25 3.75V12.25C14.25 13.3546 13.3546 14.25 12.25 14.25H3.75C2.64543 14.25 1.75 13.3546 1.75 12.25V3.75C1.75 2.64543 2.64543 1.75 3.75 1.75Z" stroke="black" stroke-width="1.5" stroke-linecap="round" stroke-linejoin="round"/>
<path d="M4.5 4L11.5 4C11.7761 4 12 4.22386 12 4.5L12 11.5C12 11.7761 11.7761 12 11.5 12L4.5 12C4.22386 12 4 11.7761 4 11.5L4 4.5C4 4.22386 4.22386 4 4.5 4Z" fill="black" fill-rule="nonzero" opacity="1" stroke="none"/>
</svg>