<?xml version="1.0" encoding="UTF-8"?>
<svg width="752pt" height="752pt" version="1.1" viewBox="0 0 752 752" xmlns="http://www.w3.org/2000/svg">
 <g>
  <path d="m553.59 168.81h-266.39c-7.8477 0-15.375 3.1211-20.926 8.6719-5.5508 5.5508-8.6719 13.078-8.6719 20.93v59.195c0 7.8516 3.1211 15.379 8.6719 20.93 5.5508 5.5508 13.078 8.668 20.926 8.668h266.39c7.8516 0 15.379-3.1172 20.93-8.668 5.5508-5.5508 8.668-13.078 8.668-20.93v-59.195c0-7.8516-3.1172-15.379-8.668-20.93-5.5508-5.5508-13.078-8.6719-20.93-8.6719zm-266.39 29.602h59.199v59.195h-59.199z"/>
  <path d="m553.59 316.8h-266.39c-7.8477 0-15.375 3.1172-20.926 8.668-5.5508 5.5508-8.6719 13.078-8.6719 20.93v59.199c0 7.8477 3.1211 15.379 8.6719 20.93 5.5508 5.5508 13.078 8.668 20.926 8.668h266.39c7.8516 0 15.379-3.1172 20.93-8.668 5.5508-5.5508 8.668-13.082 8.668-20.93v-59.199c0-7.8516-3.1172-15.379-8.668-20.93-5.5508-5.5508-13.078-8.668-20.93-8.668zm-266.39 29.598h59.199v59.199h-59.199z"/>
  <path d="m553.59 464.8h-266.39c-7.8477 0-15.375 3.1211-20.926 8.6719-5.5508 5.5508-8.6719 13.078-8.6719 20.93v59.199-0.003906c0 7.8516 3.1211 15.379 8.6719 20.93 5.5508 5.5508 13.078 8.668 20.926 8.668h266.39c7.8516 0 15.379-3.1172 20.93-8.668 5.5508-5.5508 8.668-13.078 8.668-20.93v-59.195c0-7.8516-3.1172-15.379-8.668-20.93-5.5508-5.5508-13.078-8.6719-20.93-8.6719zm-266.39 29.602h59.199v59.199l-59.199-0.003906z"/>
  <path d="m198.41 538.79h29.598c5.2852 0 10.172-2.8203 12.816-7.3984s2.6445-10.219 0-14.797c-2.6445-4.582-7.5312-7.4023-12.816-7.4023h-29.598v-118.39h29.598c5.2852 0 10.172-2.8203 12.816-7.3984 2.6445-4.582 2.6445-10.223 0-14.801-2.6445-4.5781-7.5312-7.3984-12.816-7.3984h-29.598v-118.39h29.598c5.2852 0 10.172-2.8242 12.816-7.4023s2.6445-10.219 0-14.797c-2.6445-4.582-7.5312-7.4023-12.816-7.4023h-29.598v-29.598c0-5.2891-2.8242-10.172-7.4023-12.816-4.5781-2.6445-10.219-2.6445-14.797 0-4.582 2.6445-7.4023 7.5273-7.4023 12.816v325.59c0 7.8516 3.1211 15.379 8.6719 20.93s13.078 8.668 20.93 8.668z"/>
 </g>
</svg>
