<svg width="16" height="16" viewBox="0 0 16 16" fill="none" xmlns="http://www.w3.org/2000/svg">
<path d="M10.5454 4.54541L6.5 8.59081L5.45459 7.54541C4.92739 7.0182 4.07261 7.0182 3.54541 7.54541C3.0182 8.07261 3.0182 8.92739 3.54541 9.45459L5.54541 11.4546C6.07261 11.9818 6.92739 11.9818 7.45459 11.4546L12.4546 6.45459C12.9818 5.92739 12.9818 5.07261 12.4546 4.54541C11.9274 4.0182 11.0726 4.0182 10.5454 4.54541ZM1.5 8C1.5 4.41015 4.41015 1.5 8 1.5C11.5899 1.5 14.5 4.41015 14.5 8C14.5 11.5899 11.5899 14.5 8 14.5C4.41015 14.5 1.5 11.5899 1.5 8Z" fill="black" stroke="black"/>
</svg>
