<svg width="16" height="16" viewBox="0 0 16 16" fill="none" xmlns="http://www.w3.org/2000/svg">
<path d="M13.8483 11.4229L8.39992 3.19514C8.24236 2.98563 7.93599 2.93723 7.71563 3.08702C7.67173 3.11687 7.63331 3.1534 7.60191 3.19514L2.13786 11.4456C1.84334 11.9518 2.03623 12.5891 2.56868 12.8691C2.73096 12.9545 2.91328 12.9995 3.09874 13H12.905C13.5131 12.9968 14.0033 12.5255 14 11.9474C13.9989 11.7629 13.9466 11.5819 13.8483 11.4229ZM2.94655 11.9011L7.7107 4.7137C7.75727 4.64403 7.85443 4.62344 7.92771 4.66771C7.9729 4.69501 8.00037 4.74231 8.0006 4.79321V11.9538C8.0006 12.0363 7.93021 12.1032 7.84339 12.1032H3.09874C3.0095 12.1013 2.93882 12.0309 2.94086 11.9461C2.94123 11.9308 2.944 11.9157 2.94907 11.9011H2.94655Z" fill="black"/>
</svg>
