<svg width="16" height="16" viewBox="0 0 16 16" fill="none" xmlns="http://www.w3.org/2000/svg">
<path d="M3.42815 7.99997C3.42815 7.36879 3.93983 6.85712 4.57101 6.85712C5.20219 6.85712 5.71387 7.36879 5.71387 7.99997C5.71387 8.63116 5.20219 9.14283 4.57101 9.14283C3.93983 9.14283 3.42815 8.63116 3.42815 7.99997Z" fill="black"/>
<path d="M6.85686 7.99997C6.85686 7.36879 7.36854 6.85712 7.99972 6.85712C8.6309 6.85712 9.14258 7.36879 9.14258 7.99997C9.14258 8.63116 8.6309 9.14283 7.99972 9.14283C7.36854 9.14283 6.85686 8.63116 6.85686 7.99997Z" fill="black"/>
<path d="M10.2856 7.99997C10.2856 7.36879 10.7972 6.85712 11.4284 6.85712C12.0596 6.85712 12.5713 7.36879 12.5713 7.99997C12.5713 8.63116 12.0596 9.14283 11.4284 9.14283C10.7972 9.14283 10.2856 8.63116 10.2856 7.99997Z" fill="black"/>
</svg>
