<svg width="16" height="16" viewBox="0 0 16 16" fill="none" xmlns="http://www.w3.org/2000/svg">
<path fill-rule="evenodd" clip-rule="evenodd" d="M8.8635 0.504028C8.32973 0.192668 7.66971 0.192668 7.13594 0.504028L1.99308 3.50403C1.46643 3.81125 1.14258 4.37508 1.14258 4.98479V11.0155C1.14258 11.6252 1.46643 12.1891 1.99308 12.4963L7.13594 15.4963C7.66971 15.8076 8.32973 15.8076 8.8635 15.4963L14.0064 12.4963C14.533 12.1891 14.8569 11.6252 14.8569 11.0155V4.98479C14.8569 4.37508 14.533 3.81125 14.0064 3.50403L8.8635 0.504028ZM13.1426 4.98479L7.99972 1.98479L2.85686 4.98479V11.0155L7.99972 14.0155L13.1426 11.0155V4.98479ZM8.43175 11.7749C8.29835 11.8527 8.14918 11.8916 8 11.8916V4.16016C8.14918 4.16018 8.29835 4.19911 8.43175 4.27695L11.0032 5.77729C11.2665 5.93094 11.4284 6.21292 11.4284 6.51784V9.5339C11.4284 9.83883 11.2665 10.1208 11.0032 10.2745L8.43175 11.7749Z" fill="#F2BE00" style="fill:#F2BE00;fill:color(display-p3 0.9490 0.7451 0.0000);fill-opacity:1;"/>
</svg>
