<svg id="Layer_1" xmlns="http://www.w3.org/2000/svg" xmlns:xlink="http://www.w3.org/1999/xlink" x="0px" y="0px" viewBox="0 0 20 20" xml:space="preserve" width="16px" height="16px" role="img" aria-hidden="true"><style type="text/css">
	.st0{fill-rule:evenodd;clip-rule:evenodd;}
</style><g><path class="st0" d="M9,2.6C9,2,9.5,1.5,10.1,1.5s1.1,0.5,1.1,1.1s-0.5,1.1-1.1,1.1S9,3.2,9,2.6z M10.1,0C8.7,0,7.5,1.2,7.5,2.6 c0,0.5,0.1,0.9,0.3,1.2l-4,4C3.5,7.6,3.1,7.5,2.6,7.5c-1.4,0-2.6,1.2-2.6,2.6s1.2,2.6,2.6,2.6c0.5,0,0.9-0.1,1.2-0.3l3.9,3.9 c-0.2,0.4-0.3,0.8-0.3,1.2c0,1.4,1.2,2.6,2.6,2.6s2.6-1.2,2.6-2.6c0-0.5-0.1-0.9-0.3-1.2l3.9-3.9c0.4,0.2,0.8,0.3,1.2,0.3 c1.4,0,2.6-1.2,2.6-2.6s-1.2-2.6-2.6-2.6c-0.5,0-0.9,0.1-1.2,0.3l-3.9-3.9c0.2-0.4,0.3-0.8,0.3-1.2C12.7,1.2,11.5,0,10.1,0z  M11.3,15.2l3.9-3.9c-0.2-0.4-0.3-0.8-0.3-1.2c0-0.5,0.1-0.9,0.3-1.2l-4-4c-0.3,0.1-0.6,0.2-1.1,0.2S9.2,5.1,8.9,4.9l-4,4 C5.1,9.1,5.2,9.5,5.2,10c0,0.5-0.1,0.9-0.3,1.2l3.9,3.9c0.4-0.2,0.9-0.3,1.3-0.3C10.6,14.8,11,15,11.3,15.2z M2.6,8.9 C2,8.9,1.6,9.4,1.6,10c0,0.6,0.5,1.1,1.1,1.1s1.1-0.5,1.1-1.1C3.7,9.4,3.2,8.9,2.6,8.9z M9,10c0-0.6,0.5-1.1,1.1-1.1 s1.1,0.5,1.1,1.1c0,0.6-0.5,1.1-1.1,1.1S9,10.6,9,10z M10.1,7.5c-1.4,0-2.6,1.2-2.6,2.6s1.2,2.6,2.6,2.6s2.6-1.2,2.6-2.6 S11.5,7.5,10.1,7.5z M17.5,8.9c-0.6,0-1.1,0.5-1.1,1.1c0,0.6,0.5,1.1,1.1,1.1c0.6,0,1.1-0.5,1.1-1.1C18.6,9.4,18.1,8.9,17.5,8.9z  M9,17.5c0-0.6,0.5-1.1,1.1-1.1s1.1,0.5,1.1,1.1s-0.5,1.1-1.1,1.1S9,18.1,9,17.5z"></path></g></svg>