<svg baseProfile="tiny" id="Layer_1" xmlns="http://www.w3.org/2000/svg" xmlns:xlink="http://www.w3.org/1999/xlink" x="0px" y="0px" viewBox="0 0 20 20" overflow="visible" xml:space="preserve" width="16px" height="16px" role="img" aria-hidden="true"><path fill-rule="evenodd" d="M1.8,1.8C2,1.5,2.3,1.4,2.7,1.4h2.6V6H1.4V2.7C1.4,2.3,1.5,2,1.8,1.8z M1.4,7.4V12h3.9 V7.4H1.4z M1.4,13.4v4c0,0.3,0.1,0.7,0.4,0.9c0.2,0.2,0.6,0.4,0.9,0.4h2.6v-5.2L1.4,13.4L1.4,13.4z M6.7,18.6h10.6 c0.3,0,0.7-0.1,0.9-0.4c0.2-0.2,0.4-0.6,0.4-0.9v-4H6.7V18.6z M18.6,12V7.4H6.7V12H18.6z M18.6,6V2.7c0-0.3-0.1-0.7-0.4-0.9 c-0.2-0.2-0.6-0.4-0.9-0.4H6.7V6H18.6z M2.7,0C2,0,1.3,0.3,0.8,0.8S0,2,0,2.7v14.6c0,0.7,0.3,1.4,0.8,1.9S2,20,2.7,20h14.6 c0.7,0,1.4-0.3,1.9-0.8S20,18,20,17.3V2.7c0-0.7-0.3-1.4-0.8-1.9S18,0,17.3,0H2.7z"></path></svg>