<svg xmlns="http://www.w3.org/2000/svg" width="32" height="32" fill="none" viewBox="0 0 16 16"><path fill="#fff" d="M0 0h16v16H0z"/><path fill="#000" fill-rule="evenodd" d="M5.653 2.958A.75.75 0 1 0 6.69 4.042l.56-.536V7.25H3.506l.536-.56a.75.75 0 0 0-1.084-1.037l-1.75 1.828a.75.75 0 0 0 0 1.038l1.75 1.828A.75.75 0 1 0 4.042 9.31l-.536-.56H7.25v3.744l-.56-.536a.75.75 0 0 0-1.037 1.084l1.828 1.75a.75.75 0 0 0 1.038 0l1.828-1.75a.75.75 0 0 0-1.037-1.084l-.56.536V8.75h3.744l-.536.56a.75.75 0 0 0 1.084 1.037l1.75-1.828a.75.75 0 0 0 0-1.038l-1.75-1.828a.75.75 0 1 0-1.084 1.037l.536.56H8.75V3.506l.56.536a.75.75 0 1 0 1.037-1.084l-1.828-1.75a.75.75 0 0 0-1.038 0z" clip-rule="evenodd"/></svg>