<svg width="32" height="32" viewBox="0 0 16 16" fill="white" xmlns="http://www.w3.org/2000/svg">
<path d="M8 5.75H5.75C4.64543 5.75 3.75 4.85457 3.75 3.75V3.75C3.75 2.64543 4.64543 1.75 5.75 1.75H5.875C7.04861 1.75 8 2.70139 8 3.875V5.75ZM8 5.75H10.25C11.3546 5.75 12.25 4.85457 12.25 3.75C12.25 2.64543 11.3546 1.75 10.25 1.75H10.125C8.95139 1.75 8 2.70139 8 3.875V5.75ZM8 5.75V14.25M1.75 5.75H2.75M2.75 5.75H13.25M2.75 5.75V12.25C2.75 13.3546 3.64543 14.25 4.75 14.25H11.25C12.3546 14.25 13.25 13.3546 13.25 12.25V5.75M13.25 5.75H14.25" stroke="black" stroke-width="1.5" stroke-linecap="round" stroke-linejoin="round"/>
</svg>
