<svg width="32" height="32" viewBox="0 0 16 16" fill="none" xmlns="http://www.w3.org/2000/svg">
<rect x="0" y="0" width="16" height="16" fill="#181c1f"/>
<path fill-rule="evenodd" clip-rule="evenodd" d="M1 8.875C1 5.63033 3.63033 3 6.875 3C10.1197 3 12.75 5.63033 12.75 8.875V10.2955L13.6925 9.24828C13.9696 8.94039 14.4438 8.91544 14.7517 9.19253C15.0596 9.46962 15.0846 9.94384 14.8075 10.2517L12.5575 12.7517C12.4152 12.9098 12.2126 13 12 13C11.7874 13 11.5848 12.9098 11.4425 12.7517L9.19253 10.2517C8.91544 9.94384 8.94039 9.46962 9.24828 9.19253C9.55616 8.91544 10.0304 8.94039 10.3075 9.24828L11.25 10.2955V8.875C11.25 6.45875 9.29125 4.5 6.875 4.5C4.45875 4.5 2.5 6.45875 2.5 8.875V12.25C2.5 12.6642 2.16421 13 1.75 13C1.33579 13 1 12.6642 1 12.25V8.875Z" fill="#fff"/>
</svg>
