<svg width="32" height="32" viewBox="0 0 16 16" fill="none" xmlns="http://www.w3.org/2000/svg">
<rect x="0" y="0" width="16" height="16" fill="white"/>
<path d="M6.40901 6.40901L3.58058 3.58058M3.58058 12.4194L6.40901 9.59099M12.4194 12.4194L9.59099 9.59099M9.59099 6.40901L12.4194 3.58058M14.25 8C14.25 11.4518 11.4518 14.25 8 14.25C4.54822 14.25 1.75 11.4518 1.75 8C1.75 4.54822 4.54822 1.75 8 1.75C11.4518 1.75 14.25 4.54822 14.25 8ZM10.25 8C10.25 9.24264 9.24264 10.25 8 10.25C6.75736 10.25 5.75 9.24264 5.75 8C5.75 6.75736 6.75736 5.75 8 5.75C9.24264 5.75 10.25 6.75736 10.25 8Z" stroke="black" stroke-width="1.5" stroke-linecap="round" stroke-linejoin="round"/>
</svg>
