<svg xmlns="http://www.w3.org/2000/svg" width="32" height="32" fill="none" viewBox="0 0 16 16"><path fill="#fff" d="M0 0h16v16H0z"/><path fill="#000" fill-rule="evenodd" d="M6.538 1.634a2 2 0 0 1 2.923 0l.659.706a.5.5 0 0 0 .382.158l.965-.033a2 2 0 0 1 2.066 2.067l-.032.965a.5.5 0 0 0 .158.382l.705.66a2 2 0 0 1 0 2.922l-.705.659a.5.5 0 0 0-.158.382l.032.965a2 2 0 0 1-2.066 2.066l-.965-.032a.5.5 0 0 0-.382.158l-.66.705a2 2 0 0 1-2.922 0l-.66-.705a.5.5 0 0 0-.381-.158l-.965.032a2 2 0 0 1-2.067-2.066l.033-.965a.5.5 0 0 0-.158-.382l-.706-.66a2 2 0 0 1 0-2.922l.706-.66a.5.5 0 0 0 .158-.381l-.033-.965a2 2 0 0 1 2.067-2.067l.965.033a.5.5 0 0 0 .382-.158zM8.365 2.66a.5.5 0 0 0-.73 0l-.66.705a2 2 0 0 1-1.529.633l-.965-.032a.5.5 0 0 0-.516.516l.032.965a2 2 0 0 1-.633 1.529l-.705.66a.5.5 0 0 0 0 .73l.705.659a2 2 0 0 1 .633 1.529l-.032.964a.5.5 0 0 0 .516.517l.965-.033a2 2 0 0 1 1.529.634l.66.705a.5.5 0 0 0 .73 0l.659-.705a2 2 0 0 1 1.529-.633l.964.032a.5.5 0 0 0 .517-.517l-.033-.964a2 2 0 0 1 .634-1.53l.705-.658a.5.5 0 0 0 0-.73l-.705-.66a2 2 0 0 1-.633-1.529l.032-.965a.5.5 0 0 0-.517-.516l-.964.032a2 2 0 0 1-1.53-.633zm1.936 4.1-.003.003-.013.015a8 8 0 0 0-.265.305c-.177.211-.42.513-.682.873-.533.734-1.101 1.656-1.372 2.52a.75.75 0 0 1-1.246.305l-1.5-1.5a.75.75 0 0 1 1.06-1.06l.705.704a13 13 0 0 1 1.139-1.85A17 17 0 0 1 9.173 5.77l.018-.02.006-.006.001-.002H9.2l.551.508-.55-.509A.75.75 0 0 1 10.3 6.759" clip-rule="evenodd"/></svg>