<svg xmlns="http://www.w3.org/2000/svg" width="32" height="32" fill="none" viewBox="0 0 16 16"><path fill="#181c1f" d="M0 0h16v16H0z"/><path fill="#fff" fill-rule="evenodd" d="M4.75 1a.75.75 0 0 1 .75.75V2h5v-.25a.75.75 0 0 1 1.5 0V2h.25A2.75 2.75 0 0 1 15 4.75v7.5A2.75 2.75 0 0 1 12.25 15h-8.5A2.75 2.75 0 0 1 1 12.25v-7.5A2.75 2.75 0 0 1 3.75 2H4v-.25A.75.75 0 0 1 4.75 1M4 3.5h-.25c-.69 0-1.25.56-1.25 1.25v7.5c0 .69.56 1.25 1.25 1.25h8.5c.69 0 1.25-.56 1.25-1.25v-7.5c0-.69-.56-1.25-1.25-1.25H12v.75a.75.75 0 0 1-1.5 0V3.5h-5v.75a.75.75 0 0 1-1.5 0zm0 3.75a.75.75 0 0 1 .75-.75h6.5a.75.75 0 0 1 0 1.5h-6.5A.75.75 0 0 1 4 7.25" clip-rule="evenodd"/></svg>