<svg xmlns="http://www.w3.org/2000/svg" width="32" height="32" fill="none" viewBox="0 0 16 16"><path fill="#181c1f" d="M0 0h16v16H0z"/><path fill="#fff" fill-rule="evenodd" d="M6.75 1a.75.75 0 0 1 .75.75V3h1V1.75a.75.75 0 0 1 1.5 0v1.386a2.876 2.876 0 0 1 1.447 4.435A2.875 2.875 0 0 1 10.125 13H10v1.25a.75.75 0 0 1-1.5 0V13h-1v1.25a.75.75 0 0 1-1.5 0V13H3.75a.75.75 0 0 1 0-1.5H5v-7H3.75a.75.75 0 0 1 0-1.5H6V1.75A.75.75 0 0 1 6.75 1M6.5 4.5v2.75h2.625a1.375 1.375 0 0 0 0-2.75zm2.625 4.25H6.5v2.75h3.625a1.375 1.375 0 1 0 0-2.75z" clip-rule="evenodd"/></svg>