<svg width="32" height="32" viewBox="0 0 16 16" fill="white" xmlns="http://www.w3.org/2000/svg">
<g clip-path="url(#clip0_84_561)">
<path d="M9.96189 8.0913L8.09177 9.96141L6.03906 7.9087L7.90918 6.03859C8.29396 5.6538 8.91782 5.6538 9.3026 6.03859L9.96189 6.69787C10.3467 7.08266 10.3467 7.70651 9.96189 8.0913Z" fill="black"/>
<path d="M12.4199 12.4192L12.0664 12.0657M14.25 7.99965L13.75 7.99965M12.4188 3.58061L12.0652 3.93416M7.99987 1.75004L7.99987 2.25004M3.93347 3.93449L3.57991 3.58093M3.9998 14.2501L9.96168 8.09136C10.3465 7.70657 10.3465 7.08272 9.96168 6.69793L9.3024 6.03865C8.91761 5.65386 8.29376 5.65387 7.90897 6.03865L1.7498 12.0001" stroke="black" stroke-width="1.5" stroke-linecap="round" stroke-linejoin="round"/>
</g>
<defs>
<clipPath id="clip0_84_561">
<rect width="32" height="32" fill="black"/>
</clipPath>
</defs>
</svg>
