<svg width="32" height="32" viewBox="0 0 16 16" fill="none" xmlns="http://www.w3.org/2000/svg">
<rect x="0" y="0" width="16" height="16" fill="#fff"/>
<path fill-rule="evenodd" clip-rule="evenodd" d="M6.50004 2.5C6.04815 2.5 5.66444 2.80034 5.54135 3.21394C5.4232 3.61094 5.00558 3.83699 4.60857 3.71884C4.21157 3.60069 3.98552 3.18307 4.10367 2.78606C4.41085 1.75392 5.36642 1 6.50004 1C7.88075 1 9.00004 2.11929 9.00004 3.5C9.00004 4.88071 7.88075 6 6.50004 6H6.25H2.75C2.33579 6 2 5.66421 2 5.25C2 4.83579 2.33579 4.5 2.75 4.5H6.25H6.50004C7.05232 4.5 7.50004 4.05228 7.50004 3.5C7.50004 2.94772 7.05232 2.5 6.50004 2.5ZM12.5 5.5C12.0481 5.5 11.6644 5.80034 11.5413 6.21394C11.4232 6.61094 11.0056 6.83699 10.6086 6.71884C10.2116 6.60069 9.98552 6.18307 10.1037 5.78606C10.4109 4.75392 11.3664 4 12.5 4C13.8808 4 15 5.11929 15 6.5C15 7.88071 13.8808 9 12.5 9H12.25H4.75C4.33579 9 4 8.66421 4 8.25C4 7.83579 4.33579 7.5 4.75 7.5H12.25H12.5C13.0523 7.5 13.5 7.05228 13.5 6.5C13.5 5.94772 13.0523 5.5 12.5 5.5ZM2.75 10C2.33579 10 2 10.3358 2 10.75C2 11.1642 2.33579 11.5 2.75 11.5H8.25H8.50004C9.05232 11.5 9.50004 11.9477 9.50004 12.5C9.50004 13.0523 9.05232 13.5 8.50004 13.5C8.04815 13.5 7.66444 13.1997 7.54135 12.7861C7.4232 12.3891 7.00558 12.163 6.60857 12.2812C6.21157 12.3993 5.98552 12.8169 6.10367 13.2139C6.41085 14.2461 7.36642 15 8.50004 15C9.88075 15 11 13.8807 11 12.5C11 11.1193 9.88075 10 8.50004 10H8.25H2.75Z" fill="#000"/>
</svg>
