<svg width="32" height="32" viewBox="0 0 16 16" fill="none" xmlns="http://www.w3.org/2000/svg">
<rect x="0" y="0" width="16" height="16" fill="#fff"/>
<path fill-rule="evenodd" clip-rule="evenodd" d="M7 2.59069C4.43988 3.06094 2.5 5.30393 2.5 8C2.5 11.0376 4.96243 13.5 8 13.5C10.6961 13.5 12.9391 11.5601 13.4093 9H8.75C7.7835 9 7 8.2165 7 7.25V2.59069ZM8.5 2.52242V7.25C8.5 7.38807 8.61193 7.5 8.75 7.5H13.4776C13.2398 4.86143 11.1386 2.7602 8.5 2.52242ZM1 8C1 4.13401 4.13401 1 8 1C11.866 1 15 4.13401 15 8C15 11.866 11.866 15 8 15C4.13401 15 1 11.866 1 8Z" fill="#000"/>
</svg>
