<svg xmlns="http://www.w3.org/2000/svg" width="32" height="32" fill="none" viewBox="0 0 16 16"><path fill="#fff" d="M0 0h16v16H0z"/><path fill="#000" fill-rule="evenodd" d="M8 1a.75.75 0 0 1 .616.322l4.909 7.072a2.615 2.615 0 0 1-.148 3.196l-2.62 3.14a.75.75 0 0 1-.575.27H5.818a.75.75 0 0 1-.576-.27l-2.62-3.14a2.615 2.615 0 0 1-.147-3.196l4.909-7.072A.75.75 0 0 1 8 1m-.75 3.146L3.707 9.249c-.297.428-.275.97.068 1.38L6.169 13.5h3.662l2.394-2.87c.343-.41.365-.953.068-1.381L8.75 4.146V9.25a.75.75 0 0 1-1.5 0z" clip-rule="evenodd"/></svg>