<svg xmlns="http://www.w3.org/2000/svg" width="32" height="32" fill="none" viewBox="0 0 16 16"><path fill="#fff" d="M0 0h16v16H0z"/><path fill="#000" fill-rule="evenodd" d="M2.75 3A1.75 1.75 0 0 0 1 4.75v1.313a.75.75 0 0 0 .563.726 1.25 1.25 0 0 1 0 2.422.75.75 0 0 0-.563.726v1.313c0 .966.784 1.75 1.75 1.75h10.5A1.75 1.75 0 0 0 15 11.25V9.937a.75.75 0 0 0-.563-.726 1.25 1.25 0 0 1 0-2.422.75.75 0 0 0 .563-.726V4.75A1.75 1.75 0 0 0 13.25 3zM2.5 4.75a.25.25 0 0 1 .25-.25h10.5a.25.25 0 0 1 .25.25v.8a2.749 2.749 0 0 0 0 4.9v.8a.25.25 0 0 1-.25.25H2.75a.25.25 0 0 1-.25-.25v-.8a2.75 2.75 0 0 0 0-4.9zm4.25 2.5a.75.75 0 0 0 0 1.5h2.5a.75.75 0 0 0 0-1.5z" clip-rule="evenodd"/></svg>