<svg width="32" height="32" viewBox="0 0 16 16" fill="none" xmlns="http://www.w3.org/2000/svg">
<rect x="0" y="0" width="16" height="16" fill="#181c1f"/>
<path fill-rule="evenodd" clip-rule="evenodd" d="M8 2.5C7.77172 2.5 7.54668 2.51391 7.3257 2.54092L7.29747 2.58001C7.13255 2.81052 6.90564 3.16568 6.67646 3.64434C6.27989 4.47264 5.87442 5.67487 5.7737 7.25H10.2263C10.1256 5.67487 9.72011 4.47264 9.32354 3.64434C9.09436 3.16568 8.86745 2.81052 8.70253 2.58001L8.6743 2.54092C8.45332 2.51391 8.22828 2.5 8 2.5ZM10.2263 8.75H5.7737C5.87442 10.3251 6.27989 11.5274 6.67646 12.3557C6.90564 12.8343 7.13255 13.1895 7.29747 13.42L7.3257 13.4591C7.54668 13.4861 7.77172 13.5 8 13.5C8.22828 13.5 8.45332 13.4861 8.6743 13.4591L8.70253 13.42C8.86745 13.1895 9.09436 12.8343 9.32354 12.3557C9.72011 11.5274 10.1256 10.3251 10.2263 8.75ZM4.27099 7.25C4.3655 5.57659 4.76597 4.24579 5.19989 3.26514C3.78767 4.10211 2.78211 5.55289 2.55071 7.25H4.27099ZM2.55071 8.75H4.27099C4.3655 10.4234 4.76597 11.7542 5.19989 12.7349C3.78767 11.8979 2.78211 10.4471 2.55071 8.75ZM11.729 8.75H13.4493C13.2179 10.4471 12.2123 11.8979 10.8001 12.7349C11.234 11.7542 11.6345 10.4234 11.729 8.75ZM13.4493 7.25H11.729C11.6345 5.57659 11.234 4.24579 10.8001 3.26514C12.2123 4.1021 13.2179 5.55289 13.4493 7.25ZM1 8C1 4.13401 4.13401 1 8 1C11.866 1 15 4.13401 15 8C15 11.866 11.866 15 8 15C4.13401 15 1 11.866 1 8Z" fill="#fff"/>
</svg>
