<svg width="32" height="32" viewBox="0 0 16 16" fill="none" xmlns="http://www.w3.org/2000/svg">
<rect x="0" y="0" width="16" height="16" fill="white"/>
<path d="M5.75 9.5C5.75 9.5 6.40618 10.75 8.00001 10.75C9.59384 10.75 10.25 9.5 10.25 9.5M14.25 8C14.25 11.4518 11.4518 14.25 8 14.25C4.54822 14.25 1.75 11.4518 1.75 8C1.75 4.54822 4.54822 1.75 8 1.75C11.4518 1.75 14.25 4.54822 14.25 8Z" stroke="black" stroke-width="1.5" stroke-linecap="round" stroke-linejoin="round"/>
<path d="M6.5 6C6.5 6.27614 6.27614 6.5 6 6.5C5.72386 6.5 5.5 6.27614 5.5 6C5.5 5.72386 5.72386 5.5 6 5.5C6.27614 5.5 6.5 5.72386 6.5 6Z" stroke="black" stroke-linecap="round" stroke-linejoin="round"/>
<path d="M10.5 6C10.5 6.27614 10.2761 6.5 10 6.5C9.72386 6.5 9.5 6.27614 9.5 6C9.5 5.72386 9.72386 5.5 10 5.5C10.2761 5.5 10.5 5.72386 10.5 6Z" stroke="black" stroke-linecap="round" stroke-linejoin="round"/>
</svg>
