<svg xmlns="http://www.w3.org/2000/svg" width="32" height="32" fill="none" viewBox="0 0 16 16"><path fill="#181c1f" d="M0 0h16v16H0z"/><path fill="#fff" fill-rule="evenodd" d="M5.75 2.5c-.69 0-1.25.56-1.25 1.25v3.253c.98.272 2.187.497 3.5.497 1.646 0 3.127-.354 4.2-.712a14 14 0 0 0 1.258-.488 9 9 0 0 0 .413-.198l.018-.01h.002a.75.75 0 0 1 .718 1.316l-.359-.658c.36.658.359.659.359.659h-.002l-.003.002-.008.005-.03.015-.106.054a11 11 0 0 1-.46.216V9.25c0 1.296-.52 2.471-1.361 3.328l1.141 1.142a.75.75 0 1 1-1.06 1.06l-1.303-1.302A4.7 4.7 0 0 1 9.25 14h-2.5a4.7 4.7 0 0 1-2.167-.522L3.28 14.78a.75.75 0 0 1-1.06-1.06l1.141-1.142A4.74 4.74 0 0 1 2 9.25V7.701a13 13 0 0 1-.566-.27l-.03-.015-.008-.005-.003-.002h-.001l.358-.659-.36.658a.75.75 0 0 1 .719-1.317l.003.002.017.01.081.04q.112.057.332.157.192.088.458.195V3.75A2.75 2.75 0 0 1 5.75 1h1.5a.75.75 0 0 1 0 1.5zM3.5 8.269v.981a3.25 3.25 0 0 0 3.25 3.25h2.5a3.25 3.25 0 0 0 3.25-3.25v-.981C11.338 8.64 9.764 9 8 9s-3.338-.359-4.5-.731" clip-rule="evenodd"/></svg>