<svg xmlns="http://www.w3.org/2000/svg" width="32" height="32" fill="none" viewBox="0 0 16 16"><path fill="#fff" d="M0 0h16v16H0z"/><path fill="#000" fill-rule="evenodd" d="M4.75 2.5c-.69 0-1.25.56-1.25 1.25v8.5c0 .69.56 1.25 1.25 1.25h2.5a.75.75 0 0 1 0 1.5h-2.5A2.75 2.75 0 0 1 2 12.25v-8.5A2.75 2.75 0 0 1 4.75 1h3.836c.464 0 .909.184 1.237.513l3.906 3.905A.927.927 0 0 1 13.073 7H9.75A1.75 1.75 0 0 1 8 5.25V2.5zm4.75.81v1.94c0 .138.112.25.25.25h1.94zM12 9a.75.75 0 0 1 .75.75v1.5h1.5a.75.75 0 0 1 0 1.5h-1.5v1.5a.75.75 0 0 1-1.5 0v-1.5h-1.5a.75.75 0 0 1 0-1.5h1.5v-1.5A.75.75 0 0 1 12 9" clip-rule="evenodd"/></svg>