<svg width="32" height="32" viewBox="0 0 16 16" fill="none" xmlns="http://www.w3.org/2000/svg">
<rect x="0" y="0" width="16" height="16" fill="#181c1f"/>
<path fill-rule="evenodd" clip-rule="evenodd" d="M11.9795 12.8773C11.6813 12.5898 11.6726 12.115 11.9601 11.8168C12.9143 10.827 13.5 9.48268 13.5 8C13.5 4.96243 11.0376 2.5 8 2.5C7.58579 2.5 7.25 2.16421 7.25 1.75C7.25 1.33579 7.58579 1 8 1C11.866 1 15 4.13401 15 8C15 9.88636 14.2529 11.5998 13.0399 12.8579C12.7525 13.1561 12.2777 13.1648 11.9795 12.8773Z" fill="#fff"/>
<path opacity="0.3" fill-rule="evenodd" clip-rule="evenodd" d="M2.5 8C2.5 4.96243 4.96243 2.5 8 2.5C7.58579 2.5 7.25 2.16421 7.25 1.75C7.25 1.33579 7.58579 1 8 1C4.13401 1 1 4.13401 1 8C1 11.866 4.13401 15 8 15C11.8306 15 14.9425 11.9231 14.9992 8.10605C14.9718 9.95053 14.2301 11.6234 13.0399 12.8579C12.7525 13.1561 12.2777 13.1648 11.9795 12.8773C11.6813 12.5898 11.6726 12.115 11.9601 11.8168C10.9597 12.8545 9.55522 13.5 8 13.5C4.96243 13.5 2.5 11.0376 2.5 8Z" fill="#fff"/>
</svg>
