<svg xmlns="http://www.w3.org/2000/svg" width="32" height="32" fill="none" viewBox="0 0 16 16"><path fill="#181c1f" d="M0 0h16v16H0z"/><path fill="#fff" fill-rule="evenodd" d="M11.78 1.22a.75.75 0 0 1 0 1.06L9.803 4.258l1.94 1.94L13.72 4.22a.75.75 0 1 1 1.06 1.06l-1.977 1.978.977.977a.75.75 0 0 1 0 1.061l-1.238 1.239a5.005 5.005 0 0 1-6.507.49L2.28 14.78a.75.75 0 0 1-1.06-1.06l3.755-3.755a5.005 5.005 0 0 1 .49-6.507l1.24-1.238a.75.75 0 0 1 1.06 0l.978.977L10.72 1.22a.75.75 0 0 1 1.06 0M8.212 4.788l-.978-.977-.708.708a3.504 3.504 0 1 0 4.955 4.955l.708-.708-.977-.978z" clip-rule="evenodd"/></svg>