<svg xmlns="http://www.w3.org/2000/svg" width="32" height="32" fill="none" viewBox="0 0 16 16"><path fill="#fff" d="M0 0h16v16H0z"/><path fill="#000" fill-rule="evenodd" d="M8 2.5a5.5 5.5 0 1 0 0 11 5.5 5.5 0 0 0 0-11M1 8a7 7 0 1 1 14 0A7 7 0 0 1 1 8m9.599.836a.75.75 0 0 1 .315 1.013l-.631-.332.63.332v.002l-.002.004-.005.008-.011.021a2 2 0 0 1-.169.256A3.33 3.33 0 0 1 8 11.5a3.33 3.33 0 0 1-2.895-1.616l-.011-.021-.005-.008-.002-.004V9.85c0-.001-.001-.001.663-.35l-.664.349A.75.75 0 1 1 6.42 9.16q.016.03.061.09A1.83 1.83 0 0 0 8 10a1.83 1.83 0 0 0 1.59-.856.75.75 0 0 1 1.009-.308" clip-rule="evenodd"/><path fill="#000" fill-rule="evenodd" d="M5 6a1 1 0 1 1 2 0 1 1 0 0 1-2 0m4 0a1 1 0 1 1 2 0 1 1 0 0 1-2 0" clip-rule="evenodd"/></svg>