<svg xmlns="http://www.w3.org/2000/svg" width="32" height="32" fill="none" viewBox="0 0 16 16"><path fill="#fff" d="M0 0h16v16H0z"/><path fill="#000" fill-rule="evenodd" d="M8 1a.75.75 0 0 1 .75.75v1.546l.943-1.048a.75.75 0 1 1 1.114 1.004L8.75 5.538V7.25h1.712l2.286-2.057a.75.75 0 1 1 1.004 1.114l-1.048.943h1.546a.75.75 0 0 1 0 1.5h-1.546l1.048.943a.75.75 0 1 1-1.004 1.114L10.462 8.75H8.75v1.712l2.057 2.286a.75.75 0 1 1-1.114 1.004l-.943-1.048v1.546a.75.75 0 0 1-1.5 0v-1.546l-.943 1.048a.75.75 0 1 1-1.114-1.004l2.057-2.286V8.75H5.538l-2.286 2.057a.75.75 0 0 1-1.004-1.114l1.048-.943H1.75a.75.75 0 0 1 0-1.5h1.546l-1.048-.943a.75.75 0 1 1 1.004-1.114L5.538 7.25H7.25V5.538L5.193 3.252a.75.75 0 1 1 1.114-1.004l.943 1.048V1.75A.75.75 0 0 1 8 1" clip-rule="evenodd"/></svg>