<svg width="32" height="32" viewBox="0 0 16 16" fill="none" xmlns="http://www.w3.org/2000/svg">
<rect x="0" y="0" width="16" height="16" fill="#181c1f"/>
<path fill-rule="evenodd" clip-rule="evenodd" d="M3.5 3.75C3.5 3.05964 4.05964 2.5 4.75 2.5H11.25C11.9404 2.5 12.5 3.05964 12.5 3.75V12.25C12.5 12.9404 11.9404 13.5 11.25 13.5H4.75C4.05964 13.5 3.5 12.9404 3.5 12.25V8.25V3.75ZM4.75 1C3.23122 1 2 2.23122 2 3.75V8.25V12.25C2 13.7688 3.23122 15 4.75 15H11.25C12.7688 15 14 13.7688 14 12.25V3.75C14 2.23122 12.7688 1 11.25 1H4.75ZM5.25 6C4.97386 6 4.75 6.22386 4.75 6.5V7C4.75 7.27614 4.97386 7.5 5.25 7.5H5.75C6.02614 7.5 6.25 7.27614 6.25 7V6.5C6.25 6.22386 6.02614 6 5.75 6H5.25ZM5.25 8.5C4.97386 8.5 4.75 8.72386 4.75 9V9.5C4.75 9.77614 4.97386 10 5.25 10H5.75C6.02614 10 6.25 9.77614 6.25 9.5V9C6.25 8.72386 6.02614 8.5 5.75 8.5H5.25ZM4.75 11.5C4.75 11.2239 4.97386 11 5.25 11H5.75C6.02614 11 6.25 11.2239 6.25 11.5V12C6.25 12.2761 6.02614 12.5 5.75 12.5H5.25C4.97386 12.5 4.75 12.2761 4.75 12V11.5ZM7.75 6C7.47386 6 7.25 6.22386 7.25 6.5V7C7.25 7.27614 7.47386 7.5 7.75 7.5H8.25C8.52614 7.5 8.75 7.27614 8.75 7V6.5C8.75 6.22386 8.52614 6 8.25 6H7.75ZM7.25 9C7.25 8.72386 7.47386 8.5 7.75 8.5H8.25C8.52614 8.5 8.75 8.72386 8.75 9V9.5C8.75 9.77614 8.52614 10 8.25 10H7.75C7.47386 10 7.25 9.77614 7.25 9.5V9ZM7.75 11C7.47386 11 7.25 11.2239 7.25 11.5V12C7.25 12.2761 7.47386 12.5 7.75 12.5H8.25C8.52614 12.5 8.75 12.2761 8.75 12V11.5C8.75 11.2239 8.52614 11 8.25 11H7.75ZM9.75 6.5C9.75 6.22386 9.97386 6 10.25 6H10.75C11.0261 6 11.25 6.22386 11.25 6.5V7C11.25 7.27614 11.0261 7.5 10.75 7.5H10.25C9.97386 7.5 9.75 7.27614 9.75 7V6.5ZM10.25 8.5C9.97386 8.5 9.75 8.72386 9.75 9V12C9.75 12.2761 9.97386 12.5 10.25 12.5H10.75C11.0261 12.5 11.25 12.2761 11.25 12V9C11.25 8.72386 11.0261 8.5 10.75 8.5H10.25Z" fill="#fff"/>
</svg>
