<svg width="32" height="32" viewBox="0 0 16 16" fill="none" xmlns="http://www.w3.org/2000/svg">
<rect x="0" y="0" width="16" height="16" fill="#181c1f"/>
<path fill-rule="evenodd" clip-rule="evenodd" d="M8 2C8.41422 2 8.75 2.33579 8.75 2.75L8.75 11.3401L10.7004 9.23966C10.9823 8.93613 11.4568 8.91855 11.7603 9.20041C12.0639 9.48226 12.0815 9.95681 11.7996 10.2603L8.5496 13.7603C8.40769 13.9132 8.20855 14 8 14C7.79145 14 7.59232 13.9132 7.45041 13.7603L4.20041 10.2603C3.91856 9.95681 3.93613 9.48226 4.23966 9.2004C4.5432 8.91855 5.01775 8.93613 5.2996 9.23966L7.25 11.3401L7.25 2.75C7.25 2.33579 7.58579 2 8 2Z" fill="#fff"/>
</svg>
