<svg width="32" height="32" viewBox="0 0 16 16" fill="white" xmlns="http://www.w3.org/2000/svg">
<path d="M6.49999 10C6.49999 11.2426 5.48939 12.25 4.25 12.25C3.01061 12.25 2 11.2426 2 10C2 8.75736 3.0165 8 4.25588 8C5.49527 8 6.49999 8.75736 6.49999 10Z" stroke="black" stroke-width="1.5" stroke-linecap="round" stroke-linejoin="round"/>
<path d="M6.00006 5.5C6.00006 6.4665 5.21656 7.25 4.25006 7.25C3.28356 7.25 2.50006 6.4665 2.50006 5.5C2.50006 4.5335 3.28356 3.75 4.25006 3.75C5.21656 3.75 6.00006 4.5335 6.00006 5.5Z" stroke="black" stroke-width="1.5" stroke-linecap="round" stroke-linejoin="round"/>
<path d="M9.75 5C10.1259 4.17463 11.136 3.75 12.0059 3.75C13.2453 3.75 14.25 4.75736 14.25 6C14.25 7.24264 12.9895 8 11.7501 8C12.9895 8 14.25 8.75736 14.25 10C14.25 11.2426 13.2453 12.25 12.0059 12.25C11.1328 12.25 10.1203 11.8319 9.75 11" stroke="black" stroke-width="1.5" stroke-linecap="round" stroke-linejoin="round"/>
</svg>
