<svg xmlns="http://www.w3.org/2000/svg" width="32" height="32" fill="none" viewBox="0 0 16 16"><path fill="#181c1f" d="M0 0h16v16H0z"/><path fill="#fff" fill-rule="evenodd" d="M15 7.87v4.775c0 .744-.408 1.444-1.104 1.707-3.425 1.294-6.493.233-7.964-.477-.595-.287-.92-.905-.92-1.566V7.622c1.167-1.835 1.321-4.441 1.33-5.544.003-.287.235-.527.521-.509 3.195.21 3.961 2.357 3.365 4.936-.018.076.017.052.12-.018.32-.218 1.288-.879 3.353-.394.801.188 1.3.953 1.3 1.776M3.505 6.78v6.5a1.25 1.25 0 0 1-2.5 0v-6.5a1.25 1.25 0 0 1 2.5 0" clip-rule="evenodd"/></svg>