<svg width="32" height="32" viewBox="0 0 16 16" fill="white" xmlns="http://www.w3.org/2000/svg">
<path d="M5.75 3.75H4.75C4.19772 3.75 3.75 4.19772 3.75 4.75V5.75M5.75 3.75V1.75M5.75 3.75H10.25M10.25 3.75H11.25C11.8023 3.75 12.25 4.19772 12.25 4.75V5.75M10.25 3.75V1.75M5.75 14.25V12.25M10.25 14.25V12.25M12.25 5.75H14.25M12.25 5.75V10.25M12.25 10.25V11.25C12.25 11.8023 11.8023 12.25 11.25 12.25H4.75C4.19772 12.25 3.75 11.8023 3.75 11.25V10.25M12.25 10.25H14.25M3.75 10.25H1.75M3.75 10.25V5.75M3.75 5.75H1.75" stroke="black" stroke-width="1.5" stroke-linecap="round" stroke-linejoin="round"/>
</svg>
