<svg width="32" height="32" viewBox="0 0 16 16" fill="none" xmlns="http://www.w3.org/2000/svg">
<rect x="0" y="0" width="16" height="16" fill="#181c1f"/>
<path fill-rule="evenodd" clip-rule="evenodd" d="M3 3.75C3 2.23122 4.23122 1 5.75 1H8H10.25C11.7688 1 13 2.23122 13 3.75V10.25C13 12.8734 10.8734 15 8.25 15H7.75C5.12665 15 3 12.8734 3 10.25V3.75ZM5.75 2.5C5.05964 2.5 4.5 3.05964 4.5 3.75V10.25C4.5 12.0449 5.95507 13.5 7.75 13.5H8.25C10.0449 13.5 11.5 12.0449 11.5 10.25V3.75C11.5 3.05964 10.9404 2.5 10.25 2.5H8.75V4.25C8.75 4.66421 8.41421 5 8 5C7.58579 5 7.25 4.66421 7.25 4.25V2.5H5.75Z" fill="#fff"/>
</svg>
