<svg xmlns="http://www.w3.org/2000/svg" width="32" height="32" fill="none" viewBox="0 0 16 16"><path fill="#181c1f" d="M0 0h16v16H0z"/><path fill="#fff" fill-rule="evenodd" d="M8 1a.75.75 0 0 1 .75.75v2.32a4 4 0 0 1 1.498.621l1.64-1.64a.75.75 0 0 1 1.061 1.06l-1.64 1.64a4 4 0 0 1 .66 1.749h2.281a.75.75 0 0 1 0 1.5h-3a.75.75 0 0 1-.75-.75V8c0-.69-.28-1.315-.732-1.768A2.5 2.5 0 0 0 8 5.5a2.5 2.5 0 0 0-1.768.732A2.5 2.5 0 0 0 5.5 8v.25a.75.75 0 0 1-.75.75h-3a.75.75 0 0 1 0-1.5h2.28a4 4 0 0 1 .661-1.748L3.051 4.11a.75.75 0 1 1 1.06-1.06l1.641 1.64a4 4 0 0 1 1.498-.62V1.75A.75.75 0 0 1 8 1M1 11.25a.75.75 0 0 1 .75-.75h12.5a.75.75 0 0 1 0 1.5H1.75a.75.75 0 0 1-.75-.75m2 3a.75.75 0 0 1 .75-.75h8.5a.75.75 0 0 1 0 1.5h-8.5a.75.75 0 0 1-.75-.75" clip-rule="evenodd"/></svg>