<svg xmlns="http://www.w3.org/2000/svg" width="32" height="32" fill="none" viewBox="0 0 16 16"><path fill="#fff" d="M0 0h16v16H0z"/><path fill="#000" fill-rule="evenodd" d="M3 2.125C3 1.504 3.504 1 4.125 1h7.75a1.125 1.125 0 0 1 0 2.25h-7.75A1.125 1.125 0 0 1 3 2.125M1 7a2.75 2.75 0 0 1 2.75-2.75h8.5A2.75 2.75 0 0 1 15 7v2a2.75 2.75 0 0 1-2.75 2.75h-8.5A2.75 2.75 0 0 1 1 9zm2.75-1.25c-.69 0-1.25.56-1.25 1.25v2c0 .69.56 1.25 1.25 1.25h8.5c.69 0 1.25-.56 1.25-1.25V7c0-.69-.56-1.25-1.25-1.25zM4 8a.75.75 0 0 1 .75-.75h.5a.75.75 0 0 1 0 1.5h-.5A.75.75 0 0 1 4 8m3 0a.75.75 0 0 1 .75-.75h3.5a.75.75 0 0 1 0 1.5h-3.5A.75.75 0 0 1 7 8m-4 5.875c0-.621.504-1.125 1.125-1.125h7.75a1.125 1.125 0 0 1 0 2.25h-7.75A1.125 1.125 0 0 1 3 13.875" clip-rule="evenodd"/></svg>