<svg xmlns="http://www.w3.org/2000/svg" width="32" height="32" fill="none" viewBox="0 0 16 16"><path fill="#181c1f" d="M0 0h16v16H0z"/><path fill="#fff" fill-rule="evenodd" d="M12.75 3.56v2.696a.75.75 0 1 1-1.5 0V3.561l-.548.548a.75.75 0 0 1-1.06-1.06l1.828-1.83a.75.75 0 0 1 1.06 0l1.829 1.83a.75.75 0 1 1-1.06 1.06zM8.455 2.199a.75.75 0 0 0-.623-1.195C4.044 1.1 1 4.194 1 8c0 3.868 3.144 7 7.018 7a7.01 7.01 0 0 0 6.978-6.256.75.75 0 0 0-1.097-.742 4.3 4.3 0 0 1-2.023.498c-2.337 0-4.183-1.817-4.183-4 0-.856.28-1.65.762-2.302M2.5 8a5.505 5.505 0 0 1 4-5.29 5.3 5.3 0 0 0-.307 1.79c0 3.064 2.571 5.5 5.683 5.5q.693-.001 1.34-.154A5.52 5.52 0 0 1 8.019 13.5C4.968 13.5 2.5 11.036 2.5 8" clip-rule="evenodd"/></svg>