<svg xmlns="http://www.w3.org/2000/svg" width="32" height="32" fill="none" viewBox="0 0 16 16"><path fill="#181c1f" d="M0 0h16v16H0z"/><path fill="#fff" fill-rule="evenodd" d="M3.75 2.5c-.69 0-1.25.56-1.25 1.25v1.5a.75.75 0 0 1-1.5 0v-1.5A2.75 2.75 0 0 1 3.75 1h1.5a.75.75 0 0 1 0 1.5zM10 1.75a.75.75 0 0 1 .75-.75h1.5A2.75 2.75 0 0 1 15 3.75v1.5a.75.75 0 0 1-1.5 0v-1.5c0-.69-.56-1.25-1.25-1.25h-1.5a.75.75 0 0 1-.75-.75M1.75 10a.75.75 0 0 1 .75.75v1.5c0 .69.56 1.25 1.25 1.25h1.5a.75.75 0 0 1 0 1.5h-1.5A2.75 2.75 0 0 1 1 12.25v-1.5a.75.75 0 0 1 .75-.75m12.5 0a.75.75 0 0 1 .75.75v1.5A2.75 2.75 0 0 1 12.25 15h-1.5a.75.75 0 0 1 0-1.5h1.5c.69 0 1.25-.56 1.25-1.25v-1.5a.75.75 0 0 1 .75-.75" clip-rule="evenodd"/></svg>