<svg width="32" height="32" viewBox="0 0 16 16" fill="white" xmlns="http://www.w3.org/2000/svg">
<path d="M6.49999 10C6.49999 11.2426 5.48939 12.25 4.25 12.25C3.01061 12.25 2 11.2426 2 10C2 8.75736 3.0165 8 4.25588 8C5.49527 8 6.49999 8.75736 6.49999 10Z" stroke="black" stroke-width="1.5" stroke-linecap="round" stroke-linejoin="round"/>
<path d="M6.00006 5.5C6.00006 6.4665 5.21656 7.25 4.25006 7.25C3.28356 7.25 2.50006 6.4665 2.50006 5.5C2.50006 4.5335 3.28356 3.75 4.25006 3.75C5.21656 3.75 6.00006 4.5335 6.00006 5.5Z" stroke="black" stroke-width="1.5" stroke-linecap="round" stroke-linejoin="round"/>
<path d="M12 3.75C10.7606 3.75 9.75003 4.75736 9.75003 6L9.75003 10C9.74356 11.2394 10.7606 12.25 12 12.25C13.2394 12.25 14.25 11.2426 14.25 10V6C14.25 4.75736 13.2394 3.75 12 3.75Z" stroke="black" stroke-width="1.5" stroke-linecap="round" stroke-linejoin="round"/>
</svg>
