<svg xmlns="http://www.w3.org/2000/svg" width="32" height="32" fill="none" viewBox="0 0 16 16"><path fill="#181c1f" d="M0 0h16v16H0z"/><path fill="#fff" fill-rule="evenodd" d="M11 2.75a.75.75 0 0 1 .75-.75h.5A2.75 2.75 0 0 1 15 4.75v.5a.75.75 0 0 1-1.5 0v-.5c0-.69-.56-1.25-1.25-1.25h-.5a.75.75 0 0 1-.75-.75m-7.25.75c-.69 0-1.25.56-1.25 1.25v.5a.75.75 0 0 1-1.5 0v-.5A2.75 2.75 0 0 1 3.75 2h.5a.75.75 0 0 1 0 1.5zm7.5 1.5a.75.75 0 0 1 .75.75v4.5a.75.75 0 0 1-1.5 0v-4.5a.75.75 0 0 1 .75-.75m-6.5 0a.75.75 0 0 1 .75.75v4.5a.75.75 0 0 1-1.5 0v-4.5A.75.75 0 0 1 4.75 5M8 5a.75.75 0 0 1 .75.75v4.5a.75.75 0 0 1-1.5 0v-4.5A.75.75 0 0 1 8 5m-6.25 5a.75.75 0 0 1 .75.75v.5c0 .69.56 1.25 1.25 1.25h.5a.75.75 0 0 1 0 1.5h-.5A2.75 2.75 0 0 1 1 11.25v-.5a.75.75 0 0 1 .75-.75m12.5 0a.75.75 0 0 1 .75.75v.5A2.75 2.75 0 0 1 12.25 14h-.5a.75.75 0 0 1 0-1.5h.5c.69 0 1.25-.56 1.25-1.25v-.5a.75.75 0 0 1 .75-.75" clip-rule="evenodd"/></svg>