<svg width="32" height="32" viewBox="0 0 16 16" fill="white" xmlns="http://www.w3.org/2000/svg">
<path d="M12 11.6263C13.4657 10.3137 14.25 8.5904 14.25 8C14.25 7 12 2.75 8 2.75C6.59373 2.75 5.40375 3.2753 4.45181 4M2.25 6.75C2.25 6.75 1.75 7.5 1.75 8C1.75 9 4 13.25 8 13.25C8.34658 13.25 8.93002 13.2181 9.25 13.1592M1.75 1.75L14.25 14.25M6.63721 6.20947C7.01541 5.92119 7.48768 5.75 7.99994 5.75C9.24258 5.75 10.2499 6.75736 10.2499 8C10.2499 8.50543 10.0833 8.97195 9.80192 9.34758" stroke="black" stroke-width="1.5" stroke-linecap="round" stroke-linejoin="round"/>
</svg>
