<svg xmlns="http://www.w3.org/2000/svg" width="32" height="32" fill="none" viewBox="0 0 16 16"><path fill="#181c1f" d="M0 0h16v16H0z"/><path fill="#fff" fill-rule="evenodd" d="M3.124 4.762c-.503.694-.794 1.648-.86 2.75a.5.5 0 0 1 .111-.012H4.25A1.5 1.5 0 0 1 5.75 9v1.5a1.5 1.5 0 0 1-1.5 1.5h-1.5a1.5 1.5 0 0 1-1.5-1.5V8c0-1.441.326-2.806 1.064-3.824C3.066 3.136 4.219 2.5 5.75 2.5h.5a.5.5 0 0 1 0 1h-.5c-1.219 0-2.066.489-2.626 1.262m8 0c-.503.694-.794 1.648-.86 2.75a.5.5 0 0 1 .111-.012h1.875a1.5 1.5 0 0 1 1.5 1.5v1.5a1.5 1.5 0 0 1-1.5 1.5h-1.5a1.5 1.5 0 0 1-1.5-1.5V8c0-1.441.326-2.806 1.064-3.824.752-1.04 1.905-1.676 3.436-1.676h.5a.5.5 0 0 1 0 1h-.5c-1.219 0-2.066.489-2.626 1.262" clip-rule="evenodd"/></svg>