<svg width="32" height="32" viewBox="0 0 16 16" fill="none" xmlns="http://www.w3.org/2000/svg">
<rect x="0" y="0" width="16" height="16" fill="white"/>
<path d="M7.43376 2.17103C7.60585 1.60966 8.39415 1.60966 8.56624 2.17103L9.61978 5.60769C9.69652 5.85802 9.92611 6.02873 10.186 6.02873H13.6562C14.2231 6.02873 14.4665 6.75397 14.016 7.10088L11.1582 9.3015C10.9608 9.45349 10.8784 9.71341 10.9518 9.95262L12.0311 13.4735C12.2015 14.0292 11.5636 14.4777 11.1051 14.1246L8.35978 12.0106C8.14737 11.847 7.85263 11.847 7.64022 12.0106L4.89491 14.1246C4.43638 14.4777 3.79852 14.0292 3.96889 13.4735L5.04824 9.95262C5.12157 9.71341 5.03915 9.45349 4.84178 9.3015L1.98404 7.10088C1.53355 6.75397 1.77692 6.02873 2.34382 6.02873H5.81398C6.07389 6.02873 6.30348 5.85802 6.38022 5.60769L7.43376 2.17103Z" stroke="black" stroke-width="1.5" stroke-linecap="round" stroke-linejoin="round"/>
</svg>
