<svg width="32" height="32" viewBox="0 0 16 16" fill="white" xmlns="http://www.w3.org/2000/svg">
<path d="M3.25 1.75C1.75 1.75 1.75 3.25 1.75 3.25M12.75 1.75C14.25 1.75 14.25 3.25 14.25 3.25M5.75 11.25H1.75L3.75 8V6C3.75 3.65279 5.65279 1.75 8 1.75C10.3472 1.75 12.25 3.65279 12.25 6V8L14.25 11.25H10.25M5.75 11.25V12C5.75 12.1718 5.76927 12.3392 5.80575 12.5C6.03312 13.502 6.92921 14.25 8 14.25C9.07079 14.25 9.96688 13.502 10.1942 12.5C10.2307 12.3392 10.25 12.1718 10.25 12V11.25M5.75 11.25H10.25" stroke="black" stroke-width="1.5" stroke-linecap="round" stroke-linejoin="round"/>
</svg>
