<svg xmlns="http://www.w3.org/2000/svg" width="32" height="32" fill="none" viewBox="0 0 16 16"><path fill="#181c1f" d="M0 0h16v16H0z"/><path fill="#fff" fill-rule="evenodd" d="M4.64 2.5a1.25 1.25 0 0 0-1.226 1.005l-.89 4.448a1.3 1.3 0 0 0-.024.245V8.3c.375-.192.8-.3 1.25-.3h8.5c.45 0 .875.108 1.25.3v-.102q0-.123-.024-.245l-.89-4.448A1.25 1.25 0 0 0 11.36 2.5zm8.86 8.25c0-.69-.56-1.25-1.25-1.25h-8.5c-.69 0-1.25.56-1.25 1.25v1.5c0 .69.56 1.25 1.25 1.25h8.5c.69 0 1.25-.56 1.25-1.25zm1.5.5v1A2.75 2.75 0 0 1 12.25 15h-8.5A2.75 2.75 0 0 1 1 12.25V8.198q0-.272.053-.54l.89-4.447A2.75 2.75 0 0 1 4.64 1h6.72a2.75 2.75 0 0 1 2.697 2.21l.89 4.449q.053.266.053.539zm-11 0a.75.75 0 0 1 .75-.75h.5a.75.75 0 0 1 0 1.5h-.5a.75.75 0 0 1-.75-.75" clip-rule="evenodd"/></svg>