<svg xmlns="http://www.w3.org/2000/svg" width="32" height="32" fill="none" viewBox="0 0 16 16"><path fill="#181c1f" d="M0 0h16v16H0z"/><path fill="#fff" fill-rule="evenodd" d="M10.17 3.275A.75.75 0 0 1 10.75 3h2.5a.75.75 0 0 1 0 1.5h-1.585l.91 4.555a3.001 3.001 0 1 1-1.51.094L10.8 7.828l-4.032 1.06-.547 1.096a3 3 0 1 1-1.263-.828l.392-.784L3.666 6.5H2.75a.75.75 0 0 1 0-1.5h2.5a.75.75 0 0 1 .354 1.411l.897.997 4.005-1.054-.491-2.457a.75.75 0 0 1 .155-.622m-5.896 7.25a1.5 1.5 0 1 0 1.16 1.034l-.013.026a.75.75 0 1 1-1.342-.67zm7.09.116a1.5 1.5 0 1 0 1.565.181l.056.28a.75.75 0 1 1-1.47.295z" clip-rule="evenodd"/></svg>