<svg xmlns="http://www.w3.org/2000/svg" width="32" height="32" fill="none" viewBox="0 0 16 16"><path fill="#fff" d="M0 0h16v16H0z"/><path fill="#000" fill-rule="evenodd" d="M3.617 4.677a5.5 5.5 0 0 0 7.706 7.706l-.103-.103a.75.75 0 1 1 1.06-1.06l.103.103a5.5 5.5 0 0 0-7.706-7.706l.103.103a.75.75 0 0 1-1.06 1.06zM1 8a7 7 0 1 1 14 0A7 7 0 0 1 1 8m4.22-2.78a.75.75 0 0 1 1.06 0l.5.5a.75.75 0 0 1-1.06 1.06l-.5-.5a.75.75 0 0 1 0-1.06m2 2a.75.75 0 0 1 1.06 0l.5.5a.75.75 0 0 1-1.06 1.06l-.5-.5a.75.75 0 0 1 0-1.06m2 2a.75.75 0 0 1 1.06 0l.5.5a.75.75 0 1 1-1.06 1.06l-.5-.5a.75.75 0 0 1 0-1.06" clip-rule="evenodd"/></svg>