<svg width="32" height="32" viewBox="0 0 16 16" fill="none" xmlns="http://www.w3.org/2000/svg">
<rect x="0" y="0" width="16" height="16" fill="white"/>
<path d="M1.75 1.75V14.25M5.75 3.75H8.25C8.80228 3.75 9.25 4.19772 9.25 4.75V5.25C9.25 5.80228 8.80228 6.25 8.25 6.25H5.75C5.19772 6.25 4.75 5.80228 4.75 5.25V4.75C4.75 4.19772 5.19772 3.75 5.75 3.75ZM13.25 12.25H5.75C5.19772 12.25 4.75 11.8023 4.75 11.25V10.75C4.75 10.1977 5.19772 9.75 5.75 9.75H13.25C13.8023 9.75 14.25 10.1977 14.25 10.75V11.25C14.25 11.8023 13.8023 12.25 13.25 12.25Z" stroke="black" stroke-width="1.5" stroke-linecap="round" stroke-linejoin="round"/>
</svg>
