<svg width="32" height="32" viewBox="0 0 16 16" fill="none" xmlns="http://www.w3.org/2000/svg">
<rect x="0" y="0" width="16" height="16" fill="#fff"/>
<path fill-rule="evenodd" clip-rule="evenodd" d="M2.79917 2.00368C2.3851 1.9929 2.04069 2.31984 2.02991 2.73391C2.01914 3.14799 2.34607 3.49239 2.76015 3.50317C5.32224 3.56984 7.76092 4.6177 9.57277 6.43042C11.3846 8.24314 12.4313 10.6823 12.4967 13.2444C12.5073 13.6585 12.8516 13.9856 13.2656 13.9751C13.6797 13.9645 14.0068 13.6202 13.9963 13.2061C13.921 10.2597 12.7173 7.45464 10.6337 5.37001C8.55006 3.28539 5.74557 2.08035 2.79917 2.00368ZM2.02536 7.22308C2.04356 6.80927 2.39378 6.48856 2.80759 6.50676C4.55683 6.58369 6.21372 7.31339 7.4514 8.55189C8.68908 9.79038 9.41768 11.4478 9.49346 13.197C9.51139 13.6109 9.19045 13.9609 8.77662 13.9788C8.3628 13.9967 8.01279 13.6758 7.99487 13.262C7.93532 11.8875 7.36285 10.5853 6.39039 9.6122C5.41792 8.63909 4.11608 8.06576 2.74169 8.00531C2.32787 7.98711 2.00716 7.6369 2.02536 7.22308ZM5 12.4998C5 13.3283 4.32843 13.9998 3.5 13.9998C2.67157 13.9998 2 13.3283 2 12.4998C2 11.6714 2.67157 10.9998 3.5 10.9998C4.32843 10.9998 5 11.6714 5 12.4998Z" fill="#000"/>
</svg>
