<svg width="32" height="32" viewBox="0 0 16 16" fill="none" xmlns="http://www.w3.org/2000/svg">
<rect x="0" y="0" width="16" height="16" fill="#fff"/>
<path fill-rule="evenodd" clip-rule="evenodd" d="M5 1.75C5 1.33579 5.33579 1 5.75 1H10.25C10.6642 1 11 1.33579 11 1.75V4H12.25C12.6642 4 13 4.33579 13 4.75V12.25C13 13.7688 11.7688 15 10.25 15H5.75C4.23122 15 3 13.7688 3 12.25V4.75C3 4.33579 3.33579 4 3.75 4H5V1.75ZM6.5 4H9.5V2.5H6.5V4ZM4.5 5.5V12.25C4.5 12.9404 5.05964 13.5 5.75 13.5H10.25C10.9404 13.5 11.5 12.9404 11.5 12.25V5.5H10.25H5.75H4.5Z" fill="#000"/>
</svg>
