<svg width="32" height="32" viewBox="0 0 16 16" fill="none" xmlns="http://www.w3.org/2000/svg">
<rect x="0" y="0" width="16" height="16" fill="#181c1f"/>
<path fill-rule="evenodd" clip-rule="evenodd" d="M2.5 8C2.5 4.96243 4.96243 2.5 8 2.5C11.0376 2.5 13.5 4.96243 13.5 8C13.5 11.0376 11.0376 13.5 8 13.5C4.96243 13.5 2.5 11.0376 2.5 8ZM8 1C4.13401 1 1 4.13401 1 8C1 11.866 4.13401 15 8 15C11.866 15 15 11.866 15 8C15 4.13401 11.866 1 8 1ZM8.49871 4.03121C8.22472 3.99678 8 4.22386 8 4.5L8 7.5C8 7.77614 7.77614 8 7.5 8L4.5 8C4.22386 8 3.99678 8.22472 4.03121 8.49871C4.10841 9.11312 4.32756 9.70362 4.67412 10.2223C5.11365 10.8801 5.73836 11.3928 6.46926 11.6955C7.20017 11.9983 8.00444 12.0775 8.78036 11.9231C9.55628 11.7688 10.269 11.3878 10.8284 10.8284C11.3878 10.269 11.7688 9.55629 11.9231 8.78036C12.0775 8.00444 11.9983 7.20017 11.6955 6.46927C11.3928 5.73836 10.8801 5.11365 10.2223 4.67412C9.70362 4.32757 9.11312 4.10841 8.49871 4.03121Z" fill="#fff"/>
</svg>
