<svg width="32" height="32" viewBox="0 0 16 16" fill="white" xmlns="http://www.w3.org/2000/svg">
<path d="M5.25 12.5C5.25 13.4665 4.4665 14.25 3.5 14.25C2.5335 14.25 1.75 13.4665 1.75 12.5C1.75 11.5335 2.5335 10.75 3.5 10.75C4.4665 10.75 5.25 11.5335 5.25 12.5ZM5.25 12.5V4.78078C5.25 4.32191 5.5623 3.92193 6.00746 3.81064L13.0075 2.06063C13.6386 1.90285 14.25 2.38021 14.25 3.03078V10.5M14.25 10.5C14.25 11.4665 13.4665 12.25 12.5 12.25C11.5335 12.25 10.75 11.4665 10.75 10.5C10.75 9.5335 11.5335 8.75 12.5 8.75C13.4665 8.75 14.25 9.5335 14.25 10.5Z" stroke="black" stroke-width="1.5" stroke-linecap="round" stroke-linejoin="round"/>
</svg>
