<svg xmlns="http://www.w3.org/2000/svg" width="32" height="32" fill="none" viewBox="0 0 16 16"><path fill="#181c1f" d="M0 0h16v16H0z"/><path fill="#fff" fill-rule="evenodd" d="m4.5 1.75.613-.431a.75.75 0 0 0-1.226 0zm0 0 .614-.431.002.003.007.01.024.035a22 22 0 0 1 .41.61c.263.4.615.955.967 1.565.352.609.712 1.286.986 1.93.265.621.49 1.302.49 1.888C8 9.457 6.45 11 4.5 11S1 9.457 1 7.36c0-.586.225-1.267.49-1.888.274-.644.634-1.321.986-1.93a33 33 0 0 1 1.377-2.175l.024-.035.007-.01.002-.002v-.001zm-.726 2.543c.254-.439.508-.849.726-1.19.218.341.472.751.726 1.19.336.581.663 1.2.904 1.767.252.59.37 1.036.37 1.3 0 1.303-.913 2.14-2 2.14s-2-.837-2-2.14c0-.264.118-.71.37-1.3a17 17 0 0 1 .904-1.767M12 7.75l.6-.451a.75.75 0 0 0-1.2 0zm0 0 .6-.45.002.002.005.008.02.027a16 16 0 0 1 .338.47c.217.308.507.735.798 1.206.29.469.589.994.818 1.497.217.478.419 1.034.419 1.53 0 1.744-1.374 2.96-3 2.96s-3-1.216-3-2.96c0-.496.202-1.052.419-1.53.23-.503.528-1.028.818-1.497a25 25 0 0 1 1.135-1.676l.02-.027.006-.008.002-.002zm-.487 2.052c.167-.27.335-.527.487-.752.152.225.32.481.487.752.273.441.536.907.729 1.33.204.45.284.755.284.908 0 .856-.64 1.46-1.5 1.46s-1.5-.604-1.5-1.46c0-.153.08-.459.284-.908.193-.423.456-.889.729-1.33" clip-rule="evenodd"/></svg>