<svg xmlns="http://www.w3.org/2000/svg" width="32" height="32" fill="none" viewBox="0 0 16 16"><path fill="#181c1f" d="M0 0h16v16H0z"/><path fill="#fff" fill-rule="evenodd" d="M3.225 1.07a.75.75 0 0 1 .574-.025l.956.348c.95.345 1.674 1.163 1.827 2.158l.075.485 1.404.51-.003-1.858a.75.75 0 0 1 1.006-.706l.79.287c1.482.539 2.535 1.904 2.537 3.45l.001.401.922.335c1.24.451 2.017 1.79 1.552 3.07-.464 1.282-1.919 1.81-3.16 1.36l-2.084-.758-4.02 1.664a2.86 2.86 0 0 1-2.06.033l-2.048-.745a.75.75 0 0 1-.127-1.35l2.719-1.613-2.52-.916a.75.75 0 0 1-.449-.96l1.72-4.746a.75.75 0 0 1 .388-.423m7.66 4.503c-.06-.731-.55-1.439-1.325-1.804l.002 1.323zM3.992 2.71l-1.21 3.335 3.305 1.2a.75.75 0 0 1 .127 1.35L3.495 10.21l.56.203c.332.12.684.111.974-.009L9.318 8.63a.75.75 0 0 1 .543-.012l2.358.857c.583.212 1.097-.075 1.237-.46.14-.387-.071-.938-.654-1.15l-1.415-.514-2.83-1.028-2.83-1.029a.75.75 0 0 1-.485-.59L5.1 3.777c-.063-.406-.377-.801-.857-.976zM1 14.25a.75.75 0 0 1 .75-.75h12.5a.75.75 0 0 1 0 1.5H1.75a.75.75 0 0 1-.75-.75" clip-rule="evenodd"/></svg>