<svg width="32" height="32" viewBox="0 0 16 16" fill="none" xmlns="http://www.w3.org/2000/svg">
<rect x="0" y="0" width="16" height="16" fill="#fff"/>
<path fill-rule="evenodd" clip-rule="evenodd" d="M4.75 2C5.16421 2 5.5 2.33579 5.5 2.75V8C5.5 9.38071 6.61929 10.5 8 10.5C9.38071 10.5 10.5 9.38071 10.5 8V2.75C10.5 2.33579 10.8358 2 11.25 2C11.6642 2 12 2.33579 12 2.75V8C12 10.2091 10.2091 12 8 12C5.79086 12 4 10.2091 4 8V2.75C4 2.33579 4.33579 2 4.75 2ZM1 14.25C1 13.8358 1.33579 13.5 1.75 13.5H14.25C14.6642 13.5 15 13.8358 15 14.25C15 14.6642 14.6642 15 14.25 15H1.75C1.33579 15 1 14.6642 1 14.25Z" fill="#000"/>
</svg>
