<svg width="32" height="32" viewBox="0 0 16 16" fill="white" xmlns="http://www.w3.org/2000/svg">
<path d="M6.25 12.2885L6.84576 12.7441C6.9458 12.6133 7 12.4532 7 12.2885H6.25ZM4.75 14.25L4.15424 13.7944C3.9809 14.021 3.9512 14.3264 4.07762 14.5822C4.20403 14.8381 4.46465 15 4.75 15V14.25ZM6.25 9.53H7C7 9.31039 6.90374 9.10181 6.73664 8.95931C6.56953 8.81682 6.34836 8.75472 6.13151 8.78942L6.25 9.53ZM1.75 10.25H1C1 10.4696 1.09626 10.6782 1.26336 10.8207C1.43047 10.9632 1.65164 11.0253 1.86849 10.9906L1.75 10.25ZM2.44522 7.52753L2.67381 8.24185H2.67381L2.44522 7.52753ZM6.25 6.31L6.47858 7.02432C6.78922 6.92491 7 6.63615 7 6.31H6.25ZM9.75 6.31H9C9 6.63615 9.21078 6.92491 9.52142 7.02432L9.75 6.31ZM13.5548 7.52753L13.7834 6.81321L13.7834 6.81321L13.5548 7.52753ZM14.25 10.25L14.1315 10.9906C14.3484 11.0253 14.5695 10.9632 14.7366 10.8207C14.9037 10.6782 15 10.4696 15 10.25H14.25ZM9.75 9.53L9.86849 8.78942C9.65164 8.75472 9.43047 8.81682 9.26336 8.95931C9.09626 9.10181 9 9.31039 9 9.53H9.75ZM9.75 12.2884H9C9 12.453 9.05419 12.6131 9.15422 12.7439L9.75 12.2884ZM11.25 14.25V15C11.5353 15 11.796 14.8381 11.9224 14.5823C12.0488 14.3264 12.0191 14.0211 11.8458 13.7944L11.25 14.25ZM5.65424 11.8329L4.15424 13.7944L5.34576 14.7056L6.84576 12.7441L5.65424 11.8329ZM5.5 9.53V12.2885H7V9.53H5.5ZM6.13151 8.78942L1.63151 9.50942L1.86849 10.9906L6.36849 10.2706L6.13151 8.78942ZM2.5 10.25V8.47995H1V10.25H2.5ZM2.5 8.47995C2.5 8.37123 2.57026 8.27498 2.67381 8.24185L2.21664 6.81321C1.49183 7.04515 1 7.71893 1 8.47995H2.5ZM2.67381 8.24185L6.47858 7.02432L6.02142 5.59568L2.21664 6.81321L2.67381 8.24185ZM5.5 3.5V6.31H7V3.5H5.5ZM8 1C6.61929 1 5.5 2.11929 5.5 3.5H7C7 2.94772 7.44771 2.5 8 2.5V1ZM10.5 3.5C10.5 2.11929 9.38071 1 8 1V2.5C8.55228 2.5 9 2.94772 9 3.5H10.5ZM10.5 6.31V3.5H9V6.31H10.5ZM9.52142 7.02432L13.3262 8.24185L13.7834 6.81321L9.97858 5.59568L9.52142 7.02432ZM13.3262 8.24185C13.4297 8.27498 13.5 8.37124 13.5 8.47995H15C15 7.71893 14.5082 7.04515 13.7834 6.81321L13.3262 8.24185ZM13.5 8.47995V10.25H15V8.47995H13.5ZM14.3685 9.50942L9.86849 8.78942L9.63151 10.2706L14.1315 10.9906L14.3685 9.50942ZM10.5 12.2884V9.53H9V12.2884H10.5ZM11.8458 13.7944L10.3458 11.8328L9.15422 12.7439L10.6542 14.7056L11.8458 13.7944ZM4.75 15H11.25V13.5H4.75V15Z" fill="black"/>
</svg>
