<svg xmlns="http://www.w3.org/2000/svg" width="32" height="32" fill="none" viewBox="0 0 16 16"><path fill="#181c1f" d="M0 0h16v16H0z"/><path fill="#fff" fill-rule="evenodd" d="M1 3.75A2.75 2.75 0 0 1 3.75 1h8.5A2.75 2.75 0 0 1 15 3.75v8.5A2.75 2.75 0 0 1 12.25 15h-8.5A2.75 2.75 0 0 1 1 12.25zM3.75 2.5c-.69 0-1.25.56-1.25 1.25v8.5c0 .69.56 1.25 1.25 1.25H8V12c-.653 0-1.237-.068-1.81-.256-.572-.189-1.094-.484-1.64-.894a.75.75 0 1 1 .9-1.2c.454.34.832.545 1.21.669.377.124.793.181 1.34.181V9.1a.1.1 0 0 0-.1-.1 1.6 1.6 0 0 1-1.529-2.07L7.735 2.5zm5.554 0L7.805 7.371A.1.1 0 0 0 7.9 7.5a1.6 1.6 0 0 1 1.6 1.6v1.162c.326-.127.66-.32 1.05-.612a.75.75 0 1 1 .9 1.2c-.546.41-1.068.705-1.64.894a5 5 0 0 1-.31.09V13.5h2.75c.69 0 1.25-.56 1.25-1.25v-8.5c0-.69-.56-1.25-1.25-1.25zM5 4a.75.75 0 0 1 .75.75v1.5a.75.75 0 0 1-1.5 0v-1.5A.75.75 0 0 1 5 4m6 0a.75.75 0 0 1 .75.75v1.5a.75.75 0 0 1-1.5 0v-1.5A.75.75 0 0 1 11 4" clip-rule="evenodd"/></svg>