<svg xmlns="http://www.w3.org/2000/svg" width="32" height="32" fill="none" viewBox="0 0 16 16"><path fill="#fff" d="M0 0h16v16H0z"/><path fill="#000" fill-rule="evenodd" d="M3.75 3.5c-.69 0-1.25.56-1.25 1.25V6h11V4.75c0-.69-.56-1.25-1.25-1.25zm9.75 4h-11v3.75c0 .69.56 1.25 1.25 1.25h8.5c.69 0 1.25-.56 1.25-1.25zM1 4.75A2.75 2.75 0 0 1 3.75 2h8.5A2.75 2.75 0 0 1 15 4.75v6.5A2.75 2.75 0 0 1 12.25 14h-8.5A2.75 2.75 0 0 1 1 11.25zm3 5A.75.75 0 0 1 4.75 9h1.5a.75.75 0 0 1 0 1.5h-1.5A.75.75 0 0 1 4 9.75" clip-rule="evenodd"/></svg>