<svg xmlns="http://www.w3.org/2000/svg" width="32" height="32" fill="none" viewBox="0 0 16 16"><path fill="#181c1f" d="M0 0h16v16H0z"/><path fill="#fff" fill-rule="evenodd" d="M5.75 2.5A3.25 3.25 0 0 0 2.5 5.75v4.5a3.25 3.25 0 0 0 3.25 3.25h4.5a3.25 3.25 0 0 0 3.25-3.25v-.5a.75.75 0 0 1 1.5 0v.5A4.75 4.75 0 0 1 10.25 15h-4.5A4.75 4.75 0 0 1 1 10.25v-4.5A4.75 4.75 0 0 1 5.75 1h.5a.75.75 0 0 1 0 1.5zM11.5 1a.75.75 0 0 1 .75.75v2h2a.75.75 0 0 1 0 1.5h-2v2a.75.75 0 0 1-1.5 0v-2h-2a.75.75 0 0 1 0-1.5h2v-2A.75.75 0 0 1 11.5 1" clip-rule="evenodd"/></svg>