<svg width="32" height="32" viewBox="0 0 16 16" fill="white" xmlns="http://www.w3.org/2000/svg">
<path d="M5.75 10C10.0001 10 10 5.75 10 5.75C10 5.75 10 10 14.25 10C10 10 10 14.25 10 14.25C10 14.25 10 10 5.75 10Z" fill="black"/>
<path d="M4 1.75C4 1.75 4.00007 4 1.75 4C4 4 4 6.25 4 6.25C4 6.25 4 4 6.25 4C4 4 4 1.75 4 1.75Z" fill="black"/>
<path d="M5.75 10C10.0001 10 10 5.75 10 5.75C10 5.75 10 10 14.25 10C10 10 10 14.25 10 14.25C10 14.25 10 10 5.75 10Z" stroke="black" stroke-width="1.5" stroke-linecap="round" stroke-linejoin="round"/>
<path d="M4 1.75C4 1.75 4.00007 4 1.75 4C4 4 4 6.25 4 6.25C4 6.25 4 4 6.25 4C4 4 4 1.75 4 1.75Z" stroke="black" stroke-width="1.5" stroke-linecap="round" stroke-linejoin="round"/>
</svg>
