<svg xmlns="http://www.w3.org/2000/svg" width="32" height="32" fill="none" viewBox="0 0 16 16"><path fill="#181c1f" d="M0 0h16v16H0z"/><path fill="#fff" fill-rule="evenodd" d="M9.81 1.252a.75.75 0 0 1-.062 1.059L5.817 5.805A2.75 2.75 0 0 1 3.99 6.5H2.75a.25.25 0 0 0-.25.25v2.5c0 .138.112.25.25.25h1.24a2.75 2.75 0 0 1 1.827.695l3.931 3.495a.75.75 0 1 1-.996 1.12L4.82 11.317A1.25 1.25 0 0 0 3.99 11H2.75A1.75 1.75 0 0 1 1 9.25v-2.5C1 5.784 1.784 5 2.75 5h1.24c.306 0 .601-.112.83-.316L8.752 1.19a.75.75 0 0 1 1.059.063M11.977 4a.75.75 0 0 1 .558.248l2.25 2.5a.75.75 0 0 1-1.115 1.004l-.943-1.048v4.546a.75.75 0 0 1-1.5 0V6.704l-.942 1.048A.75.75 0 0 1 9.17 6.748l2.25-2.5A.75.75 0 0 1 11.976 4" clip-rule="evenodd"/></svg>