<svg xmlns="http://www.w3.org/2000/svg" width="32" height="32" fill="none" viewBox="0 0 16 16"><path fill="#181c1f" d="M0 0h16v16H0z"/><path fill="#fff" fill-rule="evenodd" d="M8 2.5A1.75 1.75 0 1 0 8 6a1.75 1.75 0 0 0 0-3.5M4.75 4.25a3.25 3.25 0 1 1 6.5 0 3.25 3.25 0 0 1-6.5 0M6.25 10c-1.466 0-3.062.89-3.703 2.56-.085.22-.039.418.121.596.175.194.48.344.83.344H7.25a.75.75 0 0 1 0 1.5H3.499c-.754 0-1.473-.314-1.946-.841-.49-.544-.717-1.326-.406-2.137C2.032 9.716 4.227 8.5 6.25 8.5h1a.75.75 0 0 1 0 1.5zM12 9a.75.75 0 0 1 .75.75v1.5h1.5a.75.75 0 0 1 0 1.5h-1.5v1.5a.75.75 0 0 1-1.5 0v-1.5h-1.5a.75.75 0 0 1 0-1.5h1.5v-1.5A.75.75 0 0 1 12 9" clip-rule="evenodd"/></svg>