<svg xmlns="http://www.w3.org/2000/svg" width="32" height="32" fill="none" viewBox="0 0 16 16"><path fill="#fff" d="M0 0h16v16H0z"/><path fill="#000" fill-rule="evenodd" d="M7.048 1.006c-.77-.079-1.312.548-1.343 1.184-.03.604-.127 1.68-.423 2.737a7 7 0 0 1-.457 1.219A2 2 0 0 0 1 6.966v5a2 2 0 0 0 3.505 1.318q.083.058.173.112c1.493.877 4.89 2.412 8.722 1.015 1.048-.382 1.6-1.406 1.6-2.405v-4.54c0-1.358-1.015-2.595-2.461-2.66-.858-.038-1.494 0-1.955.05.054-1.007-.223-1.858-.777-2.515-.696-.825-1.733-1.229-2.76-1.335M3.5 8.005v3.961a.5.5 0 0 1-1 0v-5a.5.5 0 1 1 1 0zM5 11.262c.004.385.18.689.437.84 1.356.797 4.248 2.066 7.449.9.35-.128.614-.507.614-.996v-4.54c0-.646-.471-1.137-1.028-1.161-1.083-.049-1.745.037-2.125.097l-.154.025-.109.018a2 2 0 0 1-.275.027h-.004c-.063 0-.399.004-.646-.28-.27-.31-.187-.67-.172-.736v-.002c.246-1.064.024-1.73-.327-2.146-.324-.384-.838-.653-1.474-.768a14 14 0 0 1-.46 2.792C6.43 6.393 5.916 7.586 5 8.374z" clip-rule="evenodd"/></svg>