<svg xmlns="http://www.w3.org/2000/svg" width="32" height="32" fill="none" viewBox="0 0 16 16"><path fill="#181c1f" d="M0 0h16v16H0z"/><path fill="#fff" fill-rule="evenodd" d="M5.5 3.5a2.5 2.5 0 0 1 5 0v2.263l3.283 1.05A1.75 1.75 0 0 1 15 8.48v1.77a.75.75 0 0 1-.868.74l-3.632-.58v1.624l1.346 1.76A.75.75 0 0 1 11.25 15h-6.5a.75.75 0 0 1-.596-1.206l1.346-1.76V10.41l-3.632.582A.75.75 0 0 1 1 10.25V8.48a1.75 1.75 0 0 1 1.217-1.667L5.5 5.763zm2.5-1a1 1 0 0 0-1 1v2.81a.75.75 0 0 1-.521.714L2.674 8.242a.25.25 0 0 0-.174.238v.89l3.632-.58A.75.75 0 0 1 7 9.53v2.759a.75.75 0 0 1-.154.455l-.578.756h3.464l-.578-.756A.75.75 0 0 1 9 12.288V9.53a.75.75 0 0 1 .868-.74l3.632.58v-.89a.25.25 0 0 0-.174-.238L9.521 7.024A.75.75 0 0 1 9 6.31V3.5a1 1 0 0 0-1-1" clip-rule="evenodd"/></svg>