<svg xmlns="http://www.w3.org/2000/svg" width="32" height="32" fill="none" viewBox="0 0 16 16"><path fill="#181c1f" d="M0 0h16v16H0z"/><path fill="#fff" fill-rule="evenodd" d="M4 1.75S4 4 1.75 4C4 4 4 6.25 4 6.25S4 4 6.25 4C4 4 4 1.75 4 1.75m6 4S10 10 5.75 10C10 10 10 14.25 10 14.25S10 10 14.25 10C10 10 10 5.75 10 5.75" clip-rule="evenodd"/><path fill="#fff" d="M1.75 3.25a.75.75 0 0 0 0 1.5zM4 1.75h.75a.75.75 0 0 0-1.5 0zm-.75 4.5a.75.75 0 0 0 1.5 0zm3-1.5a.75.75 0 0 0 0-1.5zm-.5 4.5a.75.75 0 0 0 0 1.5zM10 5.75h.75a.75.75 0 1 0-1.5 0zm-.75 8.5a.75.75 0 0 0 1.5 0zm5-3.5a.75.75 0 0 0 0-1.5zm-12.5-6c.694 0 1.264-.176 1.717-.478.448-.298.737-.691.923-1.062a3.5 3.5 0 0 0 .36-1.452V1.75h-1.5v-.004.004l-.002.043q-.004.065-.023.185c-.027.162-.08.366-.177.562a1.2 1.2 0 0 1-.413.484c-.18.12-.454.226-.885.226zM4 6.25h.75v-.008a2 2 0 0 0-.006-.142 3.5 3.5 0 0 0-.354-1.31 2.7 2.7 0 0 0-.923-1.062c-.453-.302-1.023-.478-1.717-.478v1.5c.431 0 .705.106.885.226.184.123.317.292.413.484a2 2 0 0 1 .202.794v-.003zm2.25-3c-.694 0-1.264.176-1.717.478A2.7 2.7 0 0 0 3.61 4.79a3.5 3.5 0 0 0-.36 1.452v.007L4 6.25h.75v.006l.002-.05a2 2 0 0 1 .2-.746c.096-.192.229-.361.413-.484.18-.12.454-.226.885-.226zM4 1.75h-.75v.008a2 2 0 0 0 .006.142 3.5 3.5 0 0 0 .354 1.31c.186.37.475.764.923 1.062.453.302 1.023.478 1.717.478v-1.5c-.431 0-.705-.106-.885-.226a1.2 1.2 0 0 1-.413-.484 2 2 0 0 1-.202-.794v.003zm1.75 9c1.194 0 2.139-.3 2.873-.79a4.5 4.5 0 0 0 1.517-1.75 6 6 0 0 0 .533-1.673 6 6 0 0 0 .077-.763v-.023L10 5.75h-.75v-.002.025l-.006.106a5 5 0 0 1-.05.412c-.058.35-.173.803-.396 1.249a3 3 0 0 1-1.007 1.172c-.461.307-1.11.538-2.041.538zm4.25 3.5h.75v-.024a3 3 0 0 0-.01-.212 6 6 0 0 0-.067-.551 6 6 0 0 0-.533-1.673 4.5 4.5 0 0 0-1.517-1.75c-.734-.49-1.68-.79-2.873-.79v1.5c.931 0 1.58.23 2.041.538.466.31.786.73 1.007 1.172.223.446.338.9.396 1.25a5 5 0 0 1 .056.543v-.002zm4.25-5c-1.194 0-2.139.3-2.873.79a4.5 4.5 0 0 0-1.517 1.75 6 6 0 0 0-.533 1.673 6 6 0 0 0-.077.783v.003l.75.001h.75v.002-.025l.006-.106c.007-.097.021-.239.05-.412a4.5 4.5 0 0 1 .396-1.249 3 3 0 0 1 1.007-1.172c.461-.307 1.11-.538 2.041-.538zM10 5.75h-.75v.009l.001.064q.002.06.01.163a6 6 0 0 0 .6 2.224 4.5 4.5 0 0 0 1.516 1.75c.734.49 1.68.79 2.873.79v-1.5c-.931 0-1.58-.23-2.041-.538a3 3 0 0 1-1.007-1.172 4.5 4.5 0 0 1-.396-1.25 5 5 0 0 1-.055-.517l-.001-.023v-.003.002z"/></svg>