<svg width="32" height="32" viewBox="0 0 16 16" fill="white" xmlns="http://www.w3.org/2000/svg">
<path d="M6.49999 10C6.49999 11.2426 5.48939 12.25 4.25 12.25C3.01061 12.25 2 11.2426 2 10C2 8.75736 3.0165 8 4.25588 8C5.49527 8 6.49999 8.75736 6.49999 10Z" stroke="black" stroke-width="1.5" stroke-linecap="round" stroke-linejoin="round"/>
<path d="M6.00006 5.5C6.00006 6.4665 5.21656 7.25 4.25006 7.25C3.28356 7.25 2.50006 6.4665 2.50006 5.5C2.50006 4.5335 3.28356 3.75 4.25006 3.75C5.21656 3.75 6.00006 4.5335 6.00006 5.5Z" stroke="black" stroke-width="1.5" stroke-linecap="round" stroke-linejoin="round"/>
<path d="M9.75007 10C9.75007 8.75736 10.7606 7.75 12 7.75C13.2394 7.75 14.2383 8.75736 14.2383 10C14.2383 11.2426 13.2336 12.25 11.9942 12.25C10.7548 12.25 9.75007 11.2426 9.75007 10ZM9.75007 10V6C9.75007 4.75736 10.7606 3.75 12 3.75H12.25C13.5 3.75 14.25 4.75 14.25 4.75" stroke="black" stroke-width="1.5" stroke-linecap="round" stroke-linejoin="round"/>
</svg>
