<svg width="32" height="32" viewBox="0 0 16 16" fill="none" xmlns="http://www.w3.org/2000/svg">
<rect x="0" y="0" width="16" height="16" fill="white"/>
<path d="M3.75 14.25H12.25M5.702 5.70176C5.11376 6.2899 4.74991 7.10248 4.74991 8.00004V8.25004L1.75 8.25M5.702 5.70176C6.29012 5.11373 7.10254 4.75004 7.99991 4.75004M5.702 5.70176L3.58085 3.5806M7.99991 4.75004C8.89727 4.75004 9.70967 5.11371 10.2978 5.70172M7.99991 4.75004L8 1.75M10.2978 5.70172C10.8861 6.28987 11.2499 7.10246 11.2499 8.00004V8.25004L14.25 8.25M10.2978 5.70172L12.4189 3.58057M1.75 11.25H14.25" stroke="black" stroke-width="1.5" stroke-linecap="round" stroke-linejoin="round"/>
</svg>
