<svg width="32" height="32" viewBox="0 0 16 16" fill="none" xmlns="http://www.w3.org/2000/svg">
<rect x="0" y="0" width="16" height="16" fill="#fff"/>
<path fill-rule="evenodd" clip-rule="evenodd" d="M2.5 3.75C2.5 2.23122 3.73122 1 5.25 1H10.75C12.2688 1 13.5 2.23122 13.5 3.75V12.25C13.5 13.7688 12.2688 15 10.75 15H5.25C3.73122 15 2.5 13.7688 2.5 12.25V3.75ZM5.25 2.5C4.55964 2.5 4 3.05964 4 3.75V12.25C4 12.9404 4.55964 13.5 5.25 13.5H10.75C11.4404 13.5 12 12.9404 12 12.25V3.75C12 3.05964 11.4404 2.5 10.75 2.5H5.25ZM7 4.25C7 3.83579 7.33579 3.5 7.75 3.5H8.25C8.66421 3.5 9 3.83579 9 4.25C9 4.66421 8.66421 5 8.25 5H7.75C7.33579 5 7 4.66421 7 4.25Z" fill="#000"/>
</svg>
