<svg xmlns="http://www.w3.org/2000/svg" width="32" height="32" fill="none" viewBox="0 0 16 16"><path fill="#fff" d="M0 0h16v16H0z"/><path fill="#000" fill-rule="evenodd" d="M5.75 1A4.75 4.75 0 0 0 1 5.75v.672C1 6.99 1.176 7.54 1.498 8A2.75 2.75 0 0 0 1 9.578v.672A4.75 4.75 0 0 0 5.75 15h.672A2.75 2.75 0 0 0 8 14.502 2.75 2.75 0 0 0 9.578 15h.672A4.75 4.75 0 0 0 15 10.25v-.672A2.75 2.75 0 0 0 14.502 8 2.75 2.75 0 0 0 15 6.422V5.75A4.75 4.75 0 0 0 10.25 1h-.672A2.75 2.75 0 0 0 8 1.498 2.75 2.75 0 0 0 6.422 1zm1.11 1.58L2.58 6.86a1.3 1.3 0 0 1-.08-.438V5.75A3.25 3.25 0 0 1 5.75 2.5h.672c.15 0 .3.027.438.08M9.578 13.5c-.15 0-.3-.027-.438-.08l4.28-4.28q.08.21.08.438v.672a3.25 3.25 0 0 1-3.25 3.25zM8.695 2.866a1.25 1.25 0 0 1 .883-.366h.672a3.25 3.25 0 0 1 3.25 3.25v.672c0 .331-.132.649-.366.883l-.164.165-5.5 5.5-.165.164a1.25 1.25 0 0 1-.883.366H5.75a3.25 3.25 0 0 1-3.25-3.25v-.672c0-.331.132-.649.366-.883l.164-.165 5.5-5.5L8 2.5l.53.53zM8 7a1 1 0 1 1 2 0 1 1 0 0 1-2 0M6 9a1 1 0 1 1 2 0 1 1 0 0 1-2 0" clip-rule="evenodd"/></svg>