<svg width="32" height="32" viewBox="0 0 16 16" fill="none" xmlns="http://www.w3.org/2000/svg">
<rect x="0" y="0" width="16" height="16" fill="#fff"/>
<path fill-rule="evenodd" clip-rule="evenodd" d="M8 1C4.13401 1 1 4.13401 1 8C1 11.866 4.13401 15 8 15C11.866 15 15 11.866 15 8C15 4.13401 11.866 1 8 1ZM9.25172 5.19253C8.94384 4.91544 8.46962 4.94039 8.19253 5.24828C7.91543 5.55616 7.94039 6.03038 8.24828 6.30747L9.29553 7.25H4.75C4.33579 7.25 4 7.58579 4 8C4 8.41421 4.33579 8.75 4.75 8.75H9.29553L8.24828 9.69253C7.94039 9.96962 7.91543 10.4438 8.19253 10.7517C8.46962 11.0596 8.94384 11.0846 9.25172 10.8075L11.7517 8.55747C11.9098 8.41524 12 8.21262 12 8C12 7.78738 11.9098 7.58476 11.7517 7.44253L9.25172 5.19253Z" fill="#000"/>
</svg>
