<svg xmlns="http://www.w3.org/2000/svg" width="32" height="32" fill="none" viewBox="0 0 16 16"><path fill="#fff" d="M0 0h16v16H0z"/><path fill="#000" fill-rule="evenodd" d="M8 1a.75.75 0 0 1 .75.75V3h.5c.966 0 1.75.784 1.75 1.75v.5A1.75 1.75 0 0 1 9.25 7h-.5v2h4.5c.966 0 1.75.784 1.75 1.75v.5A1.75 1.75 0 0 1 13.25 13h-4.5v1.25a.75.75 0 0 1-1.5 0V13h-4.5A1.75 1.75 0 0 1 1 11.25v-.5C1 9.784 1.784 9 2.75 9h4.5V7h-.5A1.75 1.75 0 0 1 5 5.25v-.5C5 3.784 5.784 3 6.75 3h.5V1.75A.75.75 0 0 1 8 1m0 3.5H6.75a.25.25 0 0 0-.25.25v.5c0 .138.112.25.25.25h2.5a.25.25 0 0 0 .25-.25v-.5a.25.25 0 0 0-.25-.25zm0 6H2.75a.25.25 0 0 0-.25.25v.5c0 .138.112.25.25.25h10.5a.25.25 0 0 0 .25-.25v-.5a.25.25 0 0 0-.25-.25z" clip-rule="evenodd"/></svg>