<svg xmlns="http://www.w3.org/2000/svg" width="32" height="32" fill="none" viewBox="0 0 16 16"><path fill="#181c1f" d="M0 0h16v16H0z"/><path fill="#fff" fill-rule="evenodd" d="M6.356 2.008a.75.75 0 0 1 .636.848L6.686 5h3.485l.337-2.356a.75.75 0 0 1 1.485.212L11.686 5h1.564a.75.75 0 0 1 0 1.5h-1.778l-.429 3h1.207a.75.75 0 0 1 0 1.5h-1.421l-.337 2.356a.75.75 0 0 1-1.484-.212L9.314 11H5.829l-.337 2.356a.75.75 0 1 1-1.484-.212L4.314 11H2.75a.75.75 0 0 1 0-1.5h1.778l.429-3H3.75a.75.75 0 1 1 0-1.5h1.421l.337-2.356a.75.75 0 0 1 .848-.636M6.472 6.5l-.429 3h3.485l.429-3z" clip-rule="evenodd"/></svg>