<svg width="32" height="32" viewBox="0 0 16 16" fill="none" xmlns="http://www.w3.org/2000/svg">
<rect x="0" y="0" width="16" height="16" fill="white"/>
<path d="M8.79505 1.75H7.20495C7.08578 1.75 6.98318 1.83411 6.95981 1.95097L6.5695 3.90249C6.53562 4.07192 6.34418 4.15671 6.19594 4.06796L4.51699 3.06277C4.42074 3.00515 4.29789 3.01869 4.21651 3.0959L3.14059 4.11662C3.05784 4.19513 3.03872 4.31969 3.09411 4.4194L4.08367 6.20061C4.16593 6.34867 4.08025 6.53395 3.91416 6.56717L1.95098 6.95981C1.83412 6.98318 1.75001 7.08578 1.75001 7.20495L1.75 8.77375C1.75 8.90219 1.84732 9.00973 1.97513 9.02251L3.88904 9.2139C4.06327 9.23133 4.16608 9.41785 4.08777 9.57447L3.08058 11.5888C3.03246 11.6851 3.05132 11.8013 3.12741 11.8774L4.11666 12.8667C4.19558 12.9456 4.31727 12.9626 4.41484 12.9084L6.1955 11.9192C6.34504 11.8361 6.53197 11.9244 6.56282 12.0926L6.92078 14.0451C6.94254 14.1638 7.046 14.25 7.16668 14.25L8.83334 14.25C8.95402 14.25 9.05748 14.1638 9.07924 14.0451L9.43719 12.0926C9.46803 11.9244 9.65496 11.8361 9.8045 11.9192L11.5852 12.9084C11.6827 12.9626 11.8044 12.9456 11.8833 12.8667L12.8726 11.8774C12.9487 11.8013 12.9675 11.6851 12.9194 11.5888L11.9122 9.57447C11.8339 9.41785 11.9367 9.23133 12.111 9.2139L14.0249 9.02251C14.1527 9.00973 14.25 8.90219 14.25 8.77375V7.20495C14.25 7.08578 14.1659 6.98318 14.049 6.95981L12.0858 6.56717C11.9198 6.53395 11.8341 6.34867 11.9163 6.20061L12.9084 4.41484C12.9626 4.31727 12.9456 4.19558 12.8667 4.11666L11.8833 3.13334C11.8044 3.05442 11.6827 3.03737 11.5852 3.09158L9.79939 4.08367C9.65133 4.16593 9.46605 4.08025 9.43283 3.91416L9.04019 1.95097C9.01682 1.83411 8.91422 1.75 8.79505 1.75Z" stroke="black" stroke-width="1.5" stroke-linecap="round" stroke-linejoin="round"/>
<path d="M9.25 8C9.25 8.69036 8.69036 9.25 8 9.25C7.30964 9.25 6.75 8.69036 6.75 8C6.75 7.30964 7.30964 6.75 8 6.75C8.69036 6.75 9.25 7.30964 9.25 8Z" stroke="black" stroke-width="1.5" stroke-linecap="round" stroke-linejoin="round"/>
</svg>
