<svg xmlns="http://www.w3.org/2000/svg" width="32" height="32" fill="none" viewBox="0 0 16 16"><path fill="#fff" d="M0 0h16v16H0z"/><path fill="#000" fill-rule="evenodd" d="M1 1.75A.75.75 0 0 1 1.75 1h4.5a.75.75 0 0 1 .75.75v10.5A2.75 2.75 0 0 1 4.25 15h-.5A2.75 2.75 0 0 1 1 12.25zm1.5.75V5h3V2.5zm3 4h-3V9h3zm0 4h-3v1.75c0 .69.56 1.25 1.25 1.25h.5c.69 0 1.25-.56 1.25-1.25zm5.22-9.28a.75.75 0 0 1 1.06 0l3 3a.75.75 0 0 1 0 1.06l-5.5 5.5a.75.75 0 1 1-1.06-1.06l4.97-4.97-1.94-1.94-1.97 1.97a.75.75 0 0 1-1.06-1.06z" clip-rule="evenodd"/></svg>