<svg width="32" height="32" viewBox="0 0 16 16" fill="white" xmlns="http://www.w3.org/2000/svg">
<path d="M6.25 3.75H2.75L2.06063 6.50746C1.90285 7.13861 2.38021 7.75 3.03078 7.75H4C5.24264 7.75 6.25 8.75736 6.25 10V10C6.25 11.2426 5.24264 12.25 4 12.25H1.75" stroke="black" stroke-width="1.5" stroke-linecap="round" stroke-linejoin="round"/>
<path d="M9.75007 10C9.75007 8.75736 10.7606 7.75 12 7.75C13.2394 7.75 14.2383 8.75736 14.2383 10C14.2383 11.2426 13.2336 12.25 11.9942 12.25C10.7548 12.25 9.75007 11.2426 9.75007 10ZM9.75007 10V6C9.75007 4.75736 10.7606 3.75 12 3.75H12.25C13.5 3.75 14.25 4.75 14.25 4.75" stroke="black" stroke-width="1.5" stroke-linecap="round" stroke-linejoin="round"/>
</svg>
