<svg width="32" height="32" viewBox="0 0 16 16" fill="none" xmlns="http://www.w3.org/2000/svg">
<rect x="0" y="0" width="16" height="16" fill="white"/>
<path d="M5 14.25V13.5C5 12.1193 3.88071 11 2.5 11H1.75M10.75 2V2.75C10.75 4.13071 11.8693 5.25 13.25 5.25H14M5.75 8.75L7.25 10.25M8.75 5.75L10.25 7.25M9.25 6.75L6.75 9.25M14.25 2.75V6.25C14.25 10.6683 10.6683 14.25 6.25 14.25H2.75C2.19772 14.25 1.75 13.8023 1.75 13.25V9.75C1.75 5.33172 5.33172 1.75 9.75 1.75H13.25C13.8023 1.75 14.25 2.19772 14.25 2.75Z" stroke="black" stroke-width="1.5" stroke-linecap="round" stroke-linejoin="round"/>
</svg>
