<svg xmlns="http://www.w3.org/2000/svg" width="32" height="32" fill="none" viewBox="0 0 16 16"><path fill="#181c1f" d="M0 0h16v16H0z"/><path fill="#fff" fill-rule="evenodd" d="M9.557 1.066A.75.75 0 0 1 10 1.75v12.5a.75.75 0 0 1-1.248.56L4.82 11.317A1.25 1.25 0 0 0 3.99 11H2.75A1.75 1.75 0 0 1 1 9.25v-2.5C1 5.784 1.784 5 2.75 5h1.24c.306 0 .601-.112.83-.316L8.752 1.19a.75.75 0 0 1 .805-.123M8.5 3.42 5.817 5.805A2.75 2.75 0 0 1 3.99 6.5H2.75a.25.25 0 0 0-.25.25v2.5c0 .138.112.25.25.25h1.24a2.75 2.75 0 0 1 1.827.695L8.5 12.58zm4.674 2.85a.75.75 0 0 1 1.056-.096l-.48.576.48-.576h.001l.001.002.003.002.006.005.013.011a2 2 0 0 1 .132.132c.074.083.166.2.257.35.183.306.357.75.357 1.324a2.55 2.55 0 0 1-.357 1.323 2.3 2.3 0 0 1-.39.483l-.012.011-.006.005-.003.002v.001h-.001l-.481-.575.48.576a.75.75 0 1 1-.96-1.156 1 1 0 0 0 .087-.118c.067-.112.143-.292.143-.552s-.076-.44-.143-.552a1 1 0 0 0-.101-.134.75.75 0 0 1-.082-1.044" clip-rule="evenodd"/></svg>