<svg xmlns="http://www.w3.org/2000/svg" width="32" height="32" fill="none" viewBox="0 0 16 16"><path fill="#181c1f" d="M0 0h16v16H0z"/><path fill="#fff" fill-rule="evenodd" d="M3.75 2.5c-.69 0-1.25.56-1.25 1.25V4h5.472l-.939-1.073a1.25 1.25 0 0 0-.94-.427zM10.079 4h3.171c.966 0 1.75.784 1.75 1.75v6.5A2.75 2.75 0 0 1 12.25 15h-8.5A2.75 2.75 0 0 1 1 12.25v-8.5A2.75 2.75 0 0 1 3.75 1h2.342a2.75 2.75 0 0 1 2.07.94l-.564.493.564-.494 1.729 1.976a.25.25 0 0 0 .188.085M2.5 5.5v6.75c0 .69.56 1.25 1.25 1.25h8.5c.69 0 1.25-.56 1.25-1.25v-6.5a.25.25 0 0 0-.25-.25z" clip-rule="evenodd"/></svg>