<svg xmlns="http://www.w3.org/2000/svg" width="32" height="32" fill="none" viewBox="0 0 16 16"><path fill="#181c1f" d="M0 0h16v16H0z"/><path fill="#fff" fill-rule="evenodd" d="M8.75 1a.75.75 0 0 0 0 1.5h.388a.25.25 0 0 1 .16.058l.952.793v9.298l-.952.793a.25.25 0 0 1-.16.058H8.75a.75.75 0 0 0 0 1.5h.388c.41 0 .806-.143 1.12-.406l.742-.618.742.618a1.75 1.75 0 0 0 1.12.406h.388a.75.75 0 0 0 0-1.5h-.388a.25.25 0 0 1-.16-.058l-.952-.793V3.35l.952-.793a.25.25 0 0 1 .16-.058h.388a.75.75 0 0 0 0-1.5h-.388c-.41 0-.806.144-1.12.406L11 2.024l-.742-.618A1.75 1.75 0 0 0 9.138 1zM3 3.362a1 1 0 0 0-1 1v7.276a1 1 0 0 0 1 1h4.195a1 1 0 0 0 1-1V4.362a1 1 0 0 0-1-1z" clip-rule="evenodd"/></svg>