<svg xmlns="http://www.w3.org/2000/svg" width="32" height="32" fill="none" viewBox="0 0 16 16"><path fill="#fff" d="M0 0h16v16H0z"/><path fill="#000" fill-rule="evenodd" d="M11.879 2.87a1.25 1.25 0 0 0-1.77-.006L8.512 4.45 11.56 7.5l1.585-1.607a1.245 1.245 0 0 0-.004-1.752zm-1.372 5.698L7.448 5.509l-4.631 4.606L5.95 13.19zM7.75 13.5h6.499a.75.75 0 0 1 0 1.5H5.958a.75.75 0 0 1-.525-.215l-4.208-4.132a.75.75 0 0 1-.004-1.067l5.7-5.668L9.051 1.8a2.75 2.75 0 0 1 3.893.013l1.261 1.27a2.745 2.745 0 0 1 .009 3.86v.001L12.098 9.09z" clip-rule="evenodd"/></svg>