<svg xmlns="http://www.w3.org/2000/svg" width="32" height="32" fill="none" viewBox="0 0 16 16"><path fill="#fff" d="M0 0h16v16H0z"/><path fill="#000" fill-rule="evenodd" d="M2.5 8q-.001.004.011.075.015.078.056.204c.056.17.143.382.266.624a7.6 7.6 0 0 0 1.1 1.597c.977 1.091 2.352 2 4.067 2s3.09-.909 4.066-2a7.6 7.6 0 0 0 1.101-1.597 4.5 4.5 0 0 0 .266-.624q.04-.126.056-.204c.01-.048.01-.072.011-.075 0 .003 0-.02-.011-.075a2 2 0 0 0-.056-.204 4.5 4.5 0 0 0-.266-.624 7.6 7.6 0 0 0-1.1-1.597c-.977-1.09-2.353-2-4.067-2s-3.09.909-4.066 2a7.6 7.6 0 0 0-1.101 1.597 4.6 4.6 0 0 0-.266.624 2 2 0 0 0-.056.204zm.316-3.5C3.965 3.216 5.715 2 8 2s4.035 1.216 5.184 2.5a9 9 0 0 1 1.32 1.919c.152.297.271.58.354.835.08.242.142.505.142.746s-.063.504-.142.746a6 6 0 0 1-.353.835 9 9 0 0 1-1.321 1.92C12.035 12.783 10.285 14 8 14s-4.035-1.216-5.184-2.5a9 9 0 0 1-1.32-1.919 6 6 0 0 1-.354-.835A2.5 2.5 0 0 1 1 8c0-.241.063-.504.142-.746.083-.255.202-.538.353-.835a9 9 0 0 1 1.321-1.92M8 6.5a1.5 1.5 0 1 0 0 3 1.5 1.5 0 0 0 0-3M5 8a3 3 0 1 1 6 0 3 3 0 0 1-6 0" clip-rule="evenodd"/></svg>