<svg width="32" height="32" viewBox="0 0 16 16" fill="none" xmlns="http://www.w3.org/2000/svg">
<rect x="0" y="0" width="16" height="16" fill="#fff"/>
<path fill-rule="evenodd" clip-rule="evenodd" d="M8 1C4.13401 1 1 4.13401 1 8C1 11.866 4.13401 15 8 15C11.866 15 15 11.866 15 8C15 4.13401 11.866 1 8 1ZM10.8075 9.25172C11.0846 8.94384 11.0596 8.46962 10.7517 8.19253C10.4438 7.91544 9.96962 7.94039 9.69253 8.24828L8.75 9.29553L8.75 4.75C8.75 4.33579 8.41421 4 8 4C7.58579 4 7.25 4.33579 7.25 4.75L7.25 9.29553L6.30747 8.24828C6.03038 7.94039 5.55616 7.91543 5.24828 8.19253C4.94039 8.46962 4.91544 8.94384 5.19253 9.25172L7.44253 11.7517C7.58476 11.9098 7.78738 12 8 12C8.21261 12 8.41524 11.9098 8.55747 11.7517L10.8075 9.25172Z" fill="#000"/>
</svg>
