<svg xmlns="http://www.w3.org/2000/svg" width="32" height="32" fill="none" viewBox="0 0 16 16"><path fill="#181c1f" d="M0 0h16v16H0z"/><path fill="#fff" fill-rule="evenodd" d="M1 9.75A.75.75 0 0 1 1.75 9h.5a.75.75 0 0 1 .75.75v3.5a.75.75 0 0 1-.75.75h-.5a.75.75 0 0 1-.75-.75z" clip-rule="evenodd"/><path fill="#fff" fill-rule="evenodd" d="M13 2.75a.75.75 0 0 1 .75-.75h.5a.75.75 0 0 1 .75.75v10.5a.75.75 0 0 1-.75.75h-.5a.75.75 0 0 1-.75-.75zm-4 2A.75.75 0 0 1 9.75 4h.5a.75.75 0 0 1 .75.75v8.5a.75.75 0 0 1-.75.75h-.5a.75.75 0 0 1-.75-.75zm-4 3A.75.75 0 0 1 5.75 7h.5a.75.75 0 0 1 .75.75v5.5a.75.75 0 0 1-.75.75h-.5a.75.75 0 0 1-.75-.75z" clip-rule="evenodd" opacity=".3"/></svg>