<svg xmlns="http://www.w3.org/2000/svg" width="32" height="32" fill="none" viewBox="0 0 16 16"><path fill="#fff" d="M0 0h16v16H0z"/><path fill="#000" fill-rule="evenodd" d="M9.75 2.5A7.25 7.25 0 0 0 2.5 9.75v.5a3.25 3.25 0 0 1 3.25 3.25h.5a7.25 7.25 0 0 0 7.25-7.25V6h-.25A3.25 3.25 0 0 1 10 2.75V2.5zm1.75 0v.25c0 .966.784 1.75 1.75 1.75h.25V2.75a.25.25 0 0 0-.25-.25zm-7.25 11a1.75 1.75 0 0 0-1.75-1.75v1.5c0 .138.112.25.25.25zM1 9.75A8.75 8.75 0 0 1 9.75 1h3.5c.966 0 1.75.784 1.75 1.75v3.5A8.75 8.75 0 0 1 6.25 15h-3.5A1.75 1.75 0 0 1 1 13.25zm7.22-4.53a.75.75 0 0 1 1.06 0l1.5 1.5a.75.75 0 1 1-1.06 1.06l-.22-.22L7.56 9.5l.22.22a.75.75 0 1 1-1.06 1.06l-1.5-1.5a.75.75 0 0 1 1.06-1.06l.22.22L8.44 6.5l-.22-.22a.75.75 0 0 1 0-1.06" clip-rule="evenodd"/></svg>