<svg width="32" height="32" viewBox="0 0 16 16" fill="none" xmlns="http://www.w3.org/2000/svg">
<rect x="0" y="0" width="16" height="16" fill="#fff"/>
<path fill-rule="evenodd" clip-rule="evenodd" d="M14.6572 3.12019C14.8709 3.25837 15 3.49551 15 3.75V12.25C15 12.5045 14.8709 12.7416 14.6572 12.8798C14.4435 13.018 14.1743 13.0384 13.9422 12.9339L10 11.1599V12.25C10 12.5169 9.85819 12.7636 9.62761 12.898C9.39703 13.0324 9.11242 13.0341 8.88024 12.9025L1.38024 8.65252C1.14524 8.51935 1 8.27011 1 8C1 7.72989 1.14524 7.48065 1.38024 7.34749L8.88024 3.09749C9.11242 2.96591 9.39703 2.96763 9.62761 3.102C9.85819 3.23636 10 3.48313 10 3.75V4.84006L13.9422 3.06606C14.1743 2.96162 14.4435 2.982 14.6572 3.12019ZM10 6.48494V9.51506L13.5 11.0901V4.90994L10 6.48494ZM3.27126 8L8.5 10.963V10V6V5.03705L3.27126 8Z" fill="#000"/>
</svg>
