<svg xmlns="http://www.w3.org/2000/svg" width="32" height="32" fill="none" viewBox="0 0 16 16"><path fill="#181c1f" d="M0 0h16v16H0z"/><path fill="#fff" fill-rule="evenodd" d="M8.445 1.065a.75.75 0 0 1 .808.128l4.168 3.763C14.633 6.05 13.821 8 12.232 8H9.5v2h4.75a.75.75 0 0 1 .63 1.156l-1.659 2.581A2.75 2.75 0 0 1 10.908 15H4.911a2.75 2.75 0 0 1-2.388-1.386l-1.424-2.492A.75.75 0 0 1 1.75 10H4.5V7.75a.75.75 0 0 1 1.5 0V10h2V1.75a.75.75 0 0 1 .445-.685M8.75 11.5H3.042l.783 1.37c.223.39.637.63 1.086.63h5.997a1.25 1.25 0 0 0 1.052-.574l.916-1.426zm.75-5h2.732a.248.248 0 0 0 .184-.43L9.5 3.437z" clip-rule="evenodd"/></svg>