<svg xmlns="http://www.w3.org/2000/svg" width="32" height="32" fill="none" viewBox="0 0 16 16"><path fill="#181c1f" d="M0 0h16v16H0z"/><path fill="#fff" d="M7.25 5a.75.75 0 1 1-1.5 0 .75.75 0 0 1 1.5 0"/><path fill="#fff" fill-rule="evenodd" d="M3.14 9.292a.77.77 0 0 1 .282.371q.083.27.2.524A5.877 5.877 0 0 0 15 8.125V7.25a.75.75 0 0 0-.75-.75h-2.5a.5.5 0 0 1-.5-.5V5a4 4 0 0 0-7.9-.895.77.77 0 0 1-.26.393l-.047.045-1.75 1.75a1 1 0 0 0 .056 1.466l1.75 1.5zM7.25 2.5A2.5 2.5 0 0 0 4.75 5v3.505c0 .384.088.746.241 1.068l.027.064A4.377 4.377 0 0 0 13.5 8.125.125.125 0 0 0 13.375 8H10.5a.75.75 0 0 1-.75-.75V5a2.5 2.5 0 0 0-2.5-2.5" clip-rule="evenodd"/></svg>