<svg xmlns="http://www.w3.org/2000/svg" width="32" height="32" fill="none" viewBox="0 0 16 16"><path fill="#fff" d="M0 0h16v16H0z"/><path fill="#000" fill-rule="evenodd" d="M2 14.25c0 .414.336.75.75.75h10.5a.75.75 0 0 0 .75-.75v-.5a.75.75 0 0 0-.75-.75H2.75a.75.75 0 0 0-.75.75zM2.75 11a.75.75 0 0 1-.75-.75v-.5A.75.75 0 0 1 2.75 9h10.5a.75.75 0 0 1 .75.75v.5a.75.75 0 0 1-.75.75zM2 6.25c0 .414.336.75.75.75h10.5a.75.75 0 0 0 .75-.75v-.5a.75.75 0 0 0-.75-.75H2.75a.75.75 0 0 0-.75.75zm0-4c0 .414.336.75.75.75h10.5a.75.75 0 0 0 .75-.75v-.5a.75.75 0 0 0-.75-.75H2.75a.75.75 0 0 0-.75.75z" clip-rule="evenodd"/></svg>