<svg width="32" height="32" viewBox="0 0 16 16" fill="none" xmlns="http://www.w3.org/2000/svg">
<rect x="0" y="0" width="16" height="16" fill="white"/>
<path d="M8 14.25V10.75M12.4194 1.75C14.8602 4.09721 14.8602 7.90279 12.4194 10.25M3.58058 10.25C1.13981 7.90279 1.13981 4.09721 3.58058 1.75M10.2981 3.75C11.5673 4.99264 11.5673 7.00736 10.2981 8.25M5.7019 8.25C4.4327 7.00736 4.4327 4.99264 5.7019 3.75" stroke="black" stroke-width="1.5" stroke-linecap="round" stroke-linejoin="round"/>
<path d="M8.5 6C8.5 6.27614 8.27614 6.5 8 6.5C7.72386 6.5 7.5 6.27614 7.5 6C7.5 5.72386 7.72386 5.5 8 5.5C8.27614 5.5 8.5 5.72386 8.5 6Z" stroke="black" stroke-linecap="round" stroke-linejoin="round"/>
</svg>
