<svg xmlns="http://www.w3.org/2000/svg" width="32" height="32" fill="none" viewBox="0 0 16 16"><path fill="#fff" d="M0 0h16v16H0z"/><path fill="#000" fill-rule="evenodd" d="M2.5 5.75A3.25 3.25 0 0 1 5.75 2.5h4.5a3.25 3.25 0 0 1 3.25 3.25v2.5a3.25 3.25 0 0 1-3.25 3.25H7.691a.75.75 0 0 0-.422.13L5.5 12.833v-.709a.75.75 0 0 0-.563-.726A3.25 3.25 0 0 1 2.5 8.25zM5.75 1A4.75 4.75 0 0 0 1 5.75v2.5a4.75 4.75 0 0 0 3 4.417v1.583a.75.75 0 0 0 1.172.62L7.922 13h2.328A4.75 4.75 0 0 0 15 8.25v-2.5A4.75 4.75 0 0 0 10.25 1zM4 7a1 1 0 1 1 2 0 1 1 0 0 1-2 0m3 0a1 1 0 1 1 2 0 1 1 0 0 1-2 0m4-1a1 1 0 1 0 0 2 1 1 0 0 0 0-2" clip-rule="evenodd"/></svg>