<svg xmlns="http://www.w3.org/2000/svg" width="32" height="32" fill="none" viewBox="0 0 16 16"><path fill="#181c1f" d="M0 0h16v16H0z"/><path fill="#fff" fill-rule="evenodd" d="M2.268 1.176a.75.75 0 0 1 1.056.092l1.478 1.759A.8.8 0 0 1 5 3h5.25A2.75 2.75 0 0 1 13 5.75V6a2 2 0 1 1 0 4v.25c0 .674-.243 1.291-.645 1.77l1.47 1.748a.75.75 0 1 1-1.15.964l-10.5-12.5a.75.75 0 0 1 .093-1.056m9.09 9.655a1.26 1.26 0 0 0 .142-.581v-4.5c0-.69-.56-1.25-1.25-1.25H6.04zM13 8.5a.5.5 0 0 0 0-1zM1.75 5a.75.75 0 0 1 .75.75v4.5c0 .69.56 1.25 1.25 1.25h3.5a.75.75 0 0 1 0 1.5h-3.5A2.75 2.75 0 0 1 1 10.25v-4.5A.75.75 0 0 1 1.75 5" clip-rule="evenodd"/></svg>