<svg width="32" height="32" viewBox="0 0 16 16" fill="none" xmlns="http://www.w3.org/2000/svg">
<rect x="0" y="0" width="16" height="16" fill="#181c1f"/>
<path fill-rule="evenodd" clip-rule="evenodd" d="M12.8256 1.33302C13.9301 1.05689 15 1.89227 15 3.03077V10.5C15 11.8807 13.8807 13 12.5 13C11.1193 13 10 11.8807 10 10.5C10 9.11928 11.1193 7.99999 12.5 7.99999C12.8556 7.99999 13.1938 8.07422 13.5 8.20802V3.03077C13.5 2.86813 13.3472 2.74879 13.1894 2.78823L6.18937 4.53823C6.07807 4.56606 6 4.66605 6 4.78077V12.5C6 13.8807 4.88071 15 3.5 15C2.11929 15 1 13.8807 1 12.5C1 11.1193 2.11929 9.99999 3.5 9.99999C3.85555 9.99999 4.19377 10.0742 4.5 10.208V4.78077C4.5 3.97775 5.04652 3.27778 5.82556 3.08302L12.8256 1.33302ZM4.5 12.5C4.5 11.9477 4.05228 11.5 3.5 11.5C2.94772 11.5 2.5 11.9477 2.5 12.5C2.5 13.0523 2.94772 13.5 3.5 13.5C4.05228 13.5 4.5 13.0523 4.5 12.5ZM13.5 10.5C13.5 9.94771 13.0523 9.49999 12.5 9.49999C11.9477 9.49999 11.5 9.94771 11.5 10.5C11.5 11.0523 11.9477 11.5 12.5 11.5C13.0523 11.5 13.5 11.0523 13.5 10.5Z" fill="#fff"/>
</svg>
