<svg xmlns="http://www.w3.org/2000/svg" width="32" height="32" fill="none" viewBox="0 0 16 16"><path fill="#fff" d="M0 0h16v16H0z"/><path fill="#000" fill-rule="evenodd" d="M11.28 1.166a.75.75 0 0 1 1 .054l2.5 2.5a.75.75 0 0 1 .054 1l-6.34 7.872a4.75 4.75 0 0 1-2.768 1.678l-3.579.715a.75.75 0 0 1-.677-.205l-.25-.25a.75.75 0 0 1-.205-.677l.715-3.579a4.75 4.75 0 0 1 1.678-2.767zm.416 1.59-7.347 5.92a3 3 0 0 0-.319.294l3 3.001q.158-.15.295-.32l5.918-7.346zM5.679 12.74 3.26 10.321a3 3 0 0 0-.06.247l-.557 2.788 2.788-.557a3 3 0 0 0 .247-.06M14.25 15h-4.5a.75.75 0 0 1 0-1.5h4.5a.75.75 0 0 1 0 1.5" clip-rule="evenodd"/></svg>