<svg xmlns="http://www.w3.org/2000/svg" width="32" height="32" fill="none" viewBox="0 0 16 16"><path fill="#181c1f" d="M0 0h16v16H0z"/><path fill="#fff" fill-rule="evenodd" d="M4.704 1.745a.75.75 0 0 0-1.5 0v.005l-.003.043q-.004.065-.022.185c-.027.162-.08.366-.177.562a1.2 1.2 0 0 1-.413.484c-.18.12-.454.226-.885.226a.75.75 0 1 0 0 1.5c.431 0 .705.106.885.226.184.123.317.292.413.484a2 2 0 0 1 .202.79v.005a.75.75 0 0 0 1.5 0V6.25l.002-.043q.004-.065.023-.185c.027-.162.08-.366.177-.562.096-.192.229-.361.413-.484.18-.12.454-.226.885-.226a.75.75 0 0 0 0-1.5c-.431 0-.705-.106-.885-.226a1.2 1.2 0 0 1-.413-.484 2 2 0 0 1-.202-.79zm6 4.002v.026l.006.106c.007.096.021.239.05.412.058.35.173.803.396 1.249.221.442.541.861 1.007 1.172.461.307 1.11.538 2.04.538a.75.75 0 0 1 0 1.5c-.93 0-1.579.23-2.04.538-.466.31-.786.73-1.007 1.172-.223.446-.338.9-.396 1.25a4 4 0 0 0-.056.517v.023a.75.75 0 0 1-1.5.003v-.026l-.007-.106a5 5 0 0 0-.05-.412 4.5 4.5 0 0 0-.395-1.249 3 3 0 0 0-1.007-1.172c-.461-.307-1.11-.538-2.041-.538a.75.75 0 0 1 0-1.5c.931 0 1.58-.23 2.04-.538A2.97 2.97 0 0 0 8.752 7.54c.222-.446.337-.9.396-1.25a5 5 0 0 0 .055-.517V5.75m0 0v-.002a.75.75 0 0 1 1.5 0" clip-rule="evenodd"/></svg>