<svg xmlns="http://www.w3.org/2000/svg" width="32" height="32" fill="none" viewBox="0 0 16 16"><path fill="#181c1f" d="M0 0h16v16H0z"/><path fill="#fff" fill-rule="evenodd" d="M6.5 2.5a1 1 0 0 0-.959.714.75.75 0 0 1-1.437-.428A2.5 2.5 0 1 1 6.5 6H2.75a.75.75 0 0 1 0-1.5H6.5a1 1 0 0 0 0-2m6 3a1 1 0 0 0-.959.714.75.75 0 1 1-1.437-.428A2.5 2.5 0 1 1 12.5 9H4.75a.75.75 0 0 1 0-1.5h7.75a1 1 0 1 0 0-2M2.75 10a.75.75 0 0 0 0 1.5H8.5a1 1 0 1 1-.959 1.286.75.75 0 0 0-1.437.428A2.5 2.5 0 1 0 8.5 10z" clip-rule="evenodd"/></svg>