<svg width="32" height="32" viewBox="0 0 16 16" fill="none" xmlns="http://www.w3.org/2000/svg">
<rect x="0" y="0" width="16" height="16" fill="white"/>
<path d="M5.75 3.75V8M5.75 3.75H3.75M5.75 3.75H6.75M5.75 12.25H10.125C11.2986 12.25 12.25 11.2986 12.25 10.125V10.125C12.25 8.95139 11.2986 8 10.125 8H5.75M5.75 12.25V8M5.75 12.25H3.75M5.75 8H9.125C10.2986 8 11.25 7.04861 11.25 5.875V5.875C11.25 4.70139 10.2986 3.75 9.125 3.75H6.75M6.75 3.75V1.75M9.25 3.75V1.75M6.75 14.25V12.25M9.25 14.25V12.25" stroke="black" stroke-width="1.5" stroke-linecap="round" stroke-linejoin="round"/>
</svg>
