<svg xmlns="http://www.w3.org/2000/svg" width="32" height="32" fill="none" viewBox="0 0 16 16"><path fill="#fff" d="M0 0h16v16H0z"/><path fill="#000" fill-rule="evenodd" d="M12 2.5c-.702 0-1.103.232-1.234.54-.14.33-.266.806-.266 1.46 0 1.133.377 1.746.582 2h1.836c.205-.254.582-.867.582-2 0-.654-.125-1.13-.266-1.46-.13-.308-.532-.54-1.234-.54m-2.615-.047C9.878 1.293 11.107 1 12 1s2.122.293 2.615 1.453c.22.52.385 1.195.385 2.047 0 1.577-.563 2.532-.97 3.008-.323.377-.772.492-1.13.492h-1.8c-.358 0-.807-.115-1.13-.492C9.563 7.032 9 6.078 9 4.5c0-.852.165-1.528.385-2.047l.69.293zM4 4.5c-.702 0-1.103.232-1.234.54-.14.33-.266.806-.266 1.46 0 1.133.377 1.746.582 2h1.836c.205-.254.582-.867.582-2 0-.654-.125-1.13-.266-1.46-.13-.308-.532-.54-1.234-.54m-2.615-.047C1.878 3.293 3.107 3 4 3s2.122.293 2.615 1.453C6.835 4.973 7 5.648 7 6.5c0 1.577-.563 2.532-.97 3.008-.323.377-.772.492-1.13.492H3.1c-.358 0-.807-.115-1.13-.492C1.563 9.032 1 8.078 1 6.5c0-.852.165-1.528.385-2.047M10 9.75a.75.75 0 0 1 .75-.75h2.5a.75.75 0 0 1 .75.75v1.5A1.75 1.75 0 0 1 12.25 13h-.5A1.75 1.75 0 0 1 10 11.25zm1.5.75v.75c0 .138.112.25.25.25h.5a.25.25 0 0 0 .25-.25v-.75zM2 11.75a.75.75 0 0 1 .75-.75h2.5a.75.75 0 0 1 .75.75v1.5A1.75 1.75 0 0 1 4.249 15h-.5a1.75 1.75 0 0 1-1.75-1.75zm1.5.75v.75c0 .138.112.25.25.25h.5a.25.25 0 0 0 .25-.25v-.75z" clip-rule="evenodd"/></svg>