<svg xmlns="http://www.w3.org/2000/svg" width="32" height="32" fill="none" viewBox="0 0 16 16"><path fill="#fff" d="M0 0h16v16H0z"/><path fill="#000" fill-rule="evenodd" d="M8 2.5a5.5 5.5 0 1 0 0 11 5.5 5.5 0 0 0 0-11M1 8a7 7 0 1 1 14 0A7 7 0 0 1 1 8m9.797-1.737-.001.001-.004.005-.018.019a13 13 0 0 0-.34.381c-.225.26-.533.627-.858 1.051-.667.872-1.345 1.909-1.61 2.755a.75.75 0 0 1-1.246.305l-1.5-1.5a.75.75 0 0 1 1.06-1.06l.717.716c.4-.77.927-1.524 1.388-2.127A24 24 0 0 1 9.672 5.27l.022-.024.006-.006.002-.002v-.001h.001l.547.513-.547-.513a.75.75 0 0 1 1.094 1.026" clip-rule="evenodd"/></svg>