<svg width="32" height="32" viewBox="0 0 16 16" fill="none" xmlns="http://www.w3.org/2000/svg">
<rect x="0" y="0" width="16" height="16" fill="white"/>
<path d="M11.2503 7.75C11.2504 11.75 14.25 14.25 14.25 14.25C14.25 14.25 11.5003 11.25 7.75031 11.25M4.74982 10.25L7.49982 7.5M7.49982 7.5L10.2498 4.75M7.49982 7.5L5.49982 5.5M7.49982 7.5L9.99982 10M2.74982 8.25L5.49982 5.5M5.49982 5.5L8.24982 2.75M5.49982 5.5L2.99982 3M2.93207 8.64065L4.35916 10.0677C5.93549 11.6441 8.49124 11.6441 10.0676 10.0678C11.6439 8.49142 11.6439 5.93568 10.0676 4.35935L8.64047 2.93225C7.06414 1.35592 4.5084 1.35592 2.93207 2.93225C1.35573 4.50858 1.35573 7.06432 2.93207 8.64065Z" stroke="black" stroke-width="1.5" stroke-linecap="round" stroke-linejoin="round"/>
</svg>
