<svg width="32" height="32" viewBox="0 0 16 16" fill="none" xmlns="http://www.w3.org/2000/svg">
<rect x="0" y="0" width="16" height="16" fill="white"/>
<path d="M5.5 9.5C5.5 9.77614 5.27614 10 5 10C4.72386 10 4.5 9.77614 4.5 9.5C4.5 9.22386 4.72386 9 5 9C5.27614 9 5.5 9.22386 5.5 9.5Z" stroke="black" stroke-linecap="round" stroke-linejoin="round"/>
<path d="M11.5 9.5C11.5 9.77614 11.2761 10 11 10C10.7239 10 10.5 9.77614 10.5 9.5C10.5 9.22386 10.7239 9 11 9C11.2761 9 11.5 9.22386 11.5 9.5Z" stroke="black" stroke-linecap="round" stroke-linejoin="round"/>
<path d="M14.25 6H14L13 7.31302L12.2959 3.39615C12.1246 2.44335 11.2955 1.75 10.3275 1.75H5.67254C4.70446 1.75 3.87536 2.44335 3.70409 3.39615L3 7.31302L2.25 6H1.75M10.75 12.25V13.5C10.75 13.9142 11.0858 14.25 11.5 14.25C11.9142 14.25 12.25 13.9142 12.25 13.5V12.25M3.75 12.25V13.5C3.75 13.9142 4.08579 14.25 4.5 14.25C4.91421 14.25 5.25 13.9142 5.25 13.5V12.25M14.25 9.75V11.25C14.25 11.8023 13.8023 12.25 13.25 12.25H2.75C2.19772 12.25 1.75 11.8023 1.75 11.25V9.75C1.75 8.09315 3.09315 6.75 4.75 6.75H11.25C12.9069 6.75 14.25 8.09315 14.25 9.75Z" stroke="black" stroke-width="1.5" stroke-linecap="round" stroke-linejoin="round"/>
</svg>
