<svg width="32" height="32" viewBox="0 0 16 16" fill="none" xmlns="http://www.w3.org/2000/svg">
<rect x="0" y="0" width="16" height="16" fill="#181c1f"/>
<path fill-rule="evenodd" clip-rule="evenodd" d="M2.5 8C2.5 4.96243 4.96243 2.5 8 2.5C11.0376 2.5 13.5 4.96243 13.5 8C13.5 11.0376 11.0376 13.5 8 13.5C4.96243 13.5 2.5 11.0376 2.5 8ZM8 1C4.13401 1 1 4.13401 1 8C1 11.866 4.13401 15 8 15C11.866 15 15 11.866 15 8C15 4.13401 11.866 1 8 1ZM8.71329 4.51824C8.61289 4.20922 8.32492 4 8 4C7.67508 4 7.38711 4.20922 7.28671 4.51824L6.72542 6.24569H4.90907C4.58415 6.24569 4.29618 6.45492 4.19577 6.76393C4.09537 7.07295 4.20536 7.41147 4.46823 7.60246L5.93769 8.67008L5.37641 10.3975C5.276 10.7066 5.38599 11.0451 5.64886 11.2361C5.91172 11.4271 6.26767 11.4271 6.53054 11.2361L8 10.1684L9.46946 11.2361C9.73233 11.4271 10.0883 11.4271 10.3511 11.2361C10.614 11.0451 10.724 10.7066 10.6236 10.3975L10.0623 8.67009L11.5318 7.60246C11.7946 7.41147 11.9046 7.07295 11.8042 6.76393C11.7038 6.45492 11.4159 6.24569 11.0909 6.24569H9.27458L8.71329 4.51824Z" fill="#fff"/>
</svg>
