<svg xmlns="http://www.w3.org/2000/svg" width="32" height="32" fill="none" viewBox="0 0 16 16"><path fill="#fff" d="M0 0h16v16H0z"/><path fill="#000" fill-rule="evenodd" d="M5.673 2.5a1.25 1.25 0 0 0-1.23 1.029l-.459 2.55Q4.355 6 4.75 6h6.5q.394 0 .766.078l-.458-2.55a1.25 1.25 0 0 0-1.23-1.028zm8.343 4.717c.61.668.984 1.557.984 2.533v1.5A1.75 1.75 0 0 1 13.25 13H13v.5a1.5 1.5 0 0 1-3 0V13H6v.5a1.5 1.5 0 0 1-3 0V13h-.25A1.75 1.75 0 0 1 1 11.25v-1.5c0-1.008.398-1.923 1.045-2.597l-.23-.403H1.75a.75.75 0 0 1 0-1.5h.5c.122 0 .24.03.344.083l.372-2.07A2.75 2.75 0 0 1 5.673 1h4.655a2.75 2.75 0 0 1 2.706 2.263l.403 2.242A.75.75 0 0 1 14 5.25h.25a.75.75 0 0 1 .13 1.489zM5.25 11.5h-2.5a.25.25 0 0 1-.25-.25v-1.5A2.25 2.25 0 0 1 4.75 7.5h6.5a2.25 2.25 0 0 1 2.25 2.25v1.5a.25.25 0 0 1-.25.25zM4 9.5a1 1 0 1 1 2 0 1 1 0 0 1-2 0m7-1a1 1 0 1 0 0 2 1 1 0 0 0 0-2" clip-rule="evenodd"/></svg>