<svg xmlns="http://www.w3.org/2000/svg" width="32" height="32" fill="none" viewBox="0 0 16 16"><path fill="#fff" d="M0 0h16v16H0z"/><path fill="#000" fill-rule="evenodd" d="M1 5.75A2.75 2.75 0 0 1 3.75 3h6.5A2.75 2.75 0 0 1 13 5.75V6a2 2 0 1 1 0 4v.25A2.75 2.75 0 0 1 10.25 13h-6.5A2.75 2.75 0 0 1 1 10.25zM13 8.5a.5.5 0 0 0 0-1zm-9.25-4c-.69 0-1.25.56-1.25 1.25v4.5c0 .69.56 1.25 1.25 1.25h6.5c.69 0 1.25-.56 1.25-1.25v-4.5c0-.69-.56-1.25-1.25-1.25zm3.916.626a.75.75 0 0 1 .208 1.04L7.151 7.25H8.25a.75.75 0 0 1 .624 1.166l-1.5 2.25a.75.75 0 1 1-1.248-.832l.723-1.084H5.75a.75.75 0 0 1-.624-1.166l1.5-2.25a.75.75 0 0 1 1.04-.208" clip-rule="evenodd"/></svg>