<svg xmlns="http://www.w3.org/2000/svg" width="32" height="32" fill="none" viewBox="0 0 16 16"><path fill="#fff" d="M0 0h16v16H0z"/><path fill="#000" fill-rule="evenodd" d="M9.512 1.047A.75.75 0 0 1 10 1.75V7h3.25a.75.75 0 0 1 .53 1.28l-2.48 2.482 2.524 3.006a.75.75 0 1 1-1.148.964l-10.5-12.5a.75.75 0 1 1 1.148-.964l2.634 3.135L8.683 1.26a.75.75 0 0 1 .83-.212m-2.577 4.52L8.5 7.428V3.761zM9.4 8.5l.93 1.109L11.44 8.5zM4.78 7.22a.75.75 0 0 1 0 1.06l-.22.22h1.19a.75.75 0 0 1 .75.75v3.19l.216-.216a.75.75 0 0 1 1.06 1.06L6.28 14.78A.75.75 0 0 1 5 14.25V10H2.75a.75.75 0 0 1-.53-1.28l1.5-1.5a.75.75 0 0 1 1.06 0" clip-rule="evenodd"/></svg>