<svg xmlns="http://www.w3.org/2000/svg" width="32" height="32" fill="none" viewBox="0 0 16 16"><path fill="#fff" d="M0 0h16v16H0z"/><path fill="#000" fill-rule="evenodd" d="M5.1 2.793c1.195-2.39 4.605-2.39 5.8 0l3.755 7.514c1.077 2.156-.49 4.693-2.9 4.693h-7.51c-2.41 0-3.977-2.537-2.9-4.693zm4.458.67c-.642-1.284-2.474-1.284-3.116 0l-3.755 7.514A1.743 1.743 0 0 0 4.245 13.5h7.51a1.743 1.743 0 0 0 1.558-2.523zM8 5a1 1 0 0 1 1 1v2a1 1 0 0 1-2 0V6a1 1 0 0 1 1-1m0 5a1 1 0 1 0 0 2 1 1 0 0 0 0-2" clip-rule="evenodd"/></svg>