<svg xmlns="http://www.w3.org/2000/svg" width="32" height="32" fill="none" viewBox="0 0 16 16"><path fill="#181c1f" d="M0 0h16v16H0z"/><path fill="#fff" fill-rule="evenodd" d="M6.75 2.5a.25.25 0 0 0-.25.25v.261q.123-.01.25-.011h2.5q.127 0 .25.011V2.75a.25.25 0 0 0-.25-.25zM11 3.629V2.75A1.75 1.75 0 0 0 9.25 1h-2.5A1.75 1.75 0 0 0 5 2.75v.879c-.61.504-1 1.267-1 2.121v4.5c0 .854.39 1.617 1 2.121v.879c0 .966.784 1.75 1.75 1.75h2.5A1.75 1.75 0 0 0 11 13.25v-.879c.61-.504 1-1.267 1-2.121v-1.5h.25a.75.75 0 0 0 0-1.5H12v-1.5c0-.854-.39-1.617-1-2.121m-1.5 9.36a3 3 0 0 1-.25.011h-2.5q-.127 0-.25-.011v.261c0 .138.112.25.25.25h2.5a.25.25 0 0 0 .25-.25zM6.75 4.5c-.69 0-1.25.56-1.25 1.25v4.5c0 .69.56 1.25 1.25 1.25h2.5c.69 0 1.25-.56 1.25-1.25v-4.5c0-.69-.56-1.25-1.25-1.25zm2.03 2.72a.75.75 0 0 1 0 1.06l-.25.25a.75.75 0 0 1-1.06-1.06l.25-.25a.75.75 0 0 1 1.06 0" clip-rule="evenodd"/></svg>