<svg xmlns="http://www.w3.org/2000/svg" width="32" height="32" fill="none" viewBox="0 0 16 16"><path fill="#fff" d="M0 0h16v16H0z"/><path fill="#000" fill-rule="evenodd" d="M10.9 2.793c-1.195-2.39-4.605-2.39-5.8 0l-3.755 7.514C.268 12.463 1.835 15 4.245 15h7.51c2.41 0 3.977-2.537 2.9-4.693zm-4.458.67c.642-1.284 2.474-1.284 3.116 0l3.755 7.514a1.743 1.743 0 0 1-1.558 2.523h-7.51a1.743 1.743 0 0 1-1.558-2.523zM8.75 6a.75.75 0 0 0-1.5 0v2a.75.75 0 1 0 1.5 0zM8 10a1 1 0 1 0 0 2 1 1 0 0 0 0-2" clip-rule="evenodd"/></svg>