<svg width="32" height="32" viewBox="0 0 16 16" fill="none" xmlns="http://www.w3.org/2000/svg">
<rect x="0" y="0" width="16" height="16" fill="#181c1f"/>
<path fill-rule="evenodd" clip-rule="evenodd" d="M7.46967 1.21967C7.76256 0.926777 8.23744 0.926777 8.53033 1.21967L13.7803 6.46967L14.7803 7.46967C15.0732 7.76256 15.0732 8.23744 14.7803 8.53033C14.5693 8.74135 14.2638 8.80034 14 8.70729V13.25C14 14.2165 13.2165 15 12.25 15H3.75C2.7835 15 2 14.2165 2 13.25V8.70729C1.73617 8.80034 1.43069 8.74135 1.21967 8.53033C0.926777 8.23744 0.926777 7.76256 1.21967 7.46967L2.21967 6.46967L7.46967 1.21967ZM3.5 7.31066V13.25C3.5 13.3881 3.61193 13.5 3.75 13.5H12.25C12.3881 13.5 12.5 13.3881 12.5 13.25V7.31066L8 2.81066L3.5 7.31066Z" fill="#fff"/>
</svg>
