<svg width="32" height="32" viewBox="0 0 16 16" fill="none" xmlns="http://www.w3.org/2000/svg">
<rect x="0" y="0" width="16" height="16" fill="white"/>
<path d="M11.5 8H12.25M5.75 12V13.25C5.75 13.8023 6.19772 14.25 6.75 14.25H9.25C9.80228 14.25 10.25 13.8023 10.25 13.25V12M5.75 4V2.75C5.75 2.19772 6.19772 1.75 6.75 1.75H9.25C9.80228 1.75 10.25 2.19772 10.25 2.75V4M8 8L8.25 7.75M4.75 10.25V5.75C4.75 4.64543 5.64543 3.75 6.75 3.75H9.25C10.3546 3.75 11.25 4.64543 11.25 5.75V10.25C11.25 11.3546 10.3546 12.25 9.25 12.25H6.75C5.64543 12.25 4.75 11.3546 4.75 10.25Z" stroke="black" stroke-width="1.5" stroke-linecap="round" stroke-linejoin="round"/>
</svg>
