<svg xmlns="http://www.w3.org/2000/svg" width="32" height="32" fill="none" viewBox="0 0 16 16"><path fill="#fff" d="M0 0h16v16H0z"/><path fill="#000" fill-rule="evenodd" d="M5.36 2.314a.75.75 0 1 0-1.22.872l7.5 10.5a.75.75 0 0 0 1.22-.872l-2.256-3.16.069.075.003.004a.75.75 0 0 0 1.15-.963l-.576.48.576-.48-.001-.002-.002-.002-.006-.007-.015-.018a3 3 0 0 0-.232-.24 5.6 5.6 0 0 0-.666-.548A5.2 5.2 0 0 0 8.75 7.06L6.966 4.562Q7.458 4.5 8 4.5c1.838 0 3.27.574 4.245 1.147a7.7 7.7 0 0 1 1.103.782 5 5 0 0 1 .333.31l.012.013.002.002h-.001v-.001a.75.75 0 0 0 1.114-1.005l-.537.484.536-.484-.002-.002-.003-.003-.008-.01a3 3 0 0 0-.122-.124 7 7 0 0 0-.348-.319 9 9 0 0 0-1.319-.936A9.8 9.8 0 0 0 8 3a10 10 0 0 0-2.006.202zm8.89 3.936-.557.502zM8 11a1 1 0 1 0 0 2 1 1 0 0 0 0-2M5.8 8.233a.75.75 0 0 1-.024 1.06l-.508.486a.75.75 0 0 1-1.036-1.084l.508-.486a.75.75 0 0 1 1.06.024m-2.76-2.12a.75.75 0 1 0-.628-1.362c-.25.115-.527.327-.728.498-.19.163-.438.396-.567.6a.75.75 0 0 0 1.266.803l-.002.004-.002.003.003-.004.065-.07a3.3 3.3 0 0 1 .594-.472" clip-rule="evenodd"/></svg>