<svg xmlns="http://www.w3.org/2000/svg" width="32" height="32" fill="none" viewBox="0 0 16 16"><path fill="#fff" d="M0 0h16v16H0z"/><path fill="#000" fill-rule="evenodd" d="M11.22 1.22a.75.75 0 0 1 1.06 0l1.25 1.25 1.25 1.25a.75.75 0 0 1-1.06 1.06L13 4.06 11.56 5.5l.97.97 1 1a.75.75 0 0 1-1.06 1.06l-.46-.46-4.874 5.048a3.01 3.01 0 0 1-3.694.501L2.28 14.78a.75.75 0 0 1-1.061-1.06l1.161-1.162a3.01 3.01 0 0 1 .501-3.694L7.93 3.991l-.46-.46A.75.75 0 1 1 8.53 2.47l1 1 .97.97L11.94 3l-.72-.72a.75.75 0 0 1 0-1.06M8.99 5.05 3.925 9.943a1.508 1.508 0 1 0 2.133 2.133l4.892-5.067-.98-.979z" clip-rule="evenodd"/></svg>