<svg xmlns="http://www.w3.org/2000/svg" width="32" height="32" fill="none" viewBox="0 0 16 16"><path fill="#181c1f" d="M0 0h16v16H0z"/><path fill="#fff" fill-rule="evenodd" d="M8 2.5A5.5 5.5 0 0 0 2.5 8c0 3.022 2.399 5.5 5.75 5.5a.75.75 0 0 1 0 1.5C4.101 15 1 11.882 1 8a7 7 0 0 1 7-7c2.676 0 4.479.88 5.589 2.285C14.673 4.658 15 6.415 15 8v.25a2.75 2.75 0 0 1-4.82 1.81 3 3 0 1 1-.614-4.62.75.75 0 0 1 1.434.31v2.5a1.25 1.25 0 1 0 2.5 0V8c0-1.415-.298-2.783-1.089-3.785C11.647 3.245 10.324 2.5 8 2.5M9.5 8a1.5 1.5 0 1 0-3 0 1.5 1.5 0 0 0 3 0" clip-rule="evenodd"/></svg>