<svg width="32" height="32" viewBox="0 0 16 16" fill="none" xmlns="http://www.w3.org/2000/svg">
<rect x="0" y="0" width="16" height="16" fill="#fff"/>
<path fill-rule="evenodd" clip-rule="evenodd" d="M2 2.75C2 2.33579 2.33579 2 2.75 2H13.25C13.6642 2 14 2.33579 14 2.75V4.25C14 4.66421 13.6642 5 13.25 5C12.8358 5 12.5 4.66421 12.5 4.25V3.5H8.75V12.5H9.25C9.66421 12.5 10 12.8358 10 13.25C10 13.6642 9.66421 14 9.25 14H8H6.75C6.33579 14 6 13.6642 6 13.25C6 12.8358 6.33579 12.5 6.75 12.5H7.25V3.5H3.5V4.25C3.5 4.66421 3.16421 5 2.75 5C2.33579 5 2 4.66421 2 4.25V2.75Z" fill="#000"/>
</svg>
