<svg xmlns="http://www.w3.org/2000/svg" width="32" height="32" fill="none" viewBox="0 0 16 16"><path fill="#fff" d="M0 0h16v16H0z"/><path fill="#000" fill-rule="evenodd" d="M2 2.75A.75.75 0 0 1 2.75 2h10.5a.75.75 0 0 1 0 1.5H2.75A.75.75 0 0 1 2 2.75m0 3.5a.75.75 0 0 1 .75-.75h10.5a.75.75 0 0 1 0 1.5H2.75A.75.75 0 0 1 2 6.25m0 3.5A.75.75 0 0 1 2.75 9h10.5a.75.75 0 0 1 0 1.5H2.75A.75.75 0 0 1 2 9.75m0 3.5a.75.75 0 0 1 .75-.75H8A.75.75 0 0 1 8 14H2.75a.75.75 0 0 1-.75-.75" clip-rule="evenodd"/></svg>