<svg width="32" height="32" viewBox="0 0 16 16" fill="none" xmlns="http://www.w3.org/2000/svg">
<rect x="0" y="0" width="16" height="16" fill="white"/>
<path d="M1.75 4.75L13.25 4.75M13.25 4.75C13.8023 4.75 14.25 5.19772 14.25 5.75L14.25 12.25C14.25 13.3546 13.3546 14.25 12.25 14.25L3.75 14.25C2.64543 14.25 1.75 13.3546 1.75 12.25L1.75 3.75C1.75 2.64543 2.64543 1.75 3.75 1.75L6.09246 1.75C6.66919 1.75 7.21784 1.99896 7.59762 2.43299L9.32619 4.4085C9.51608 4.62552 9.7904 4.75 10.0788 4.75L13.25 4.75Z" stroke="black" stroke-width="1.5" stroke-linecap="round" stroke-linejoin="round"/>
</svg>
