<svg width="32" height="32" viewBox="0 0 16 16" fill="none" xmlns="http://www.w3.org/2000/svg">
<rect x="0" y="0" width="16" height="16" fill="#fff"/>
<path fill-rule="evenodd" clip-rule="evenodd" d="M4.49902 1.9978C4.49902 1.44552 4.05131 0.997803 3.49902 0.997803C2.94674 0.997803 2.49902 1.44552 2.49902 1.9978V10.0001C2.49902 10.5524 2.94674 11.0001 3.49902 11.0001C4.05131 11.0001 4.49902 10.5524 4.49902 10.0001L4.49902 1.9978ZM9 1.9978C9 1.44552 8.55228 0.997803 8 0.997803C7.44772 0.997803 7 1.44552 7 1.9978L7 10.0001C7 10.5524 7.44772 11.0001 8 11.0001C8.55229 11.0001 9 10.5524 9 10.0001L9 1.9978ZM13.501 1.9978C13.501 1.44552 13.0533 0.997803 12.501 0.997803C11.9487 0.997803 11.501 1.44552 11.501 1.9978V10.0001C11.501 10.5524 11.9487 11.0001 12.501 11.0001C13.0533 11.0001 13.501 10.5524 13.501 10.0001V1.9978ZM2.49902 14C2.49902 13.4477 2.94674 13 3.49902 13C4.05131 13 4.49902 13.4477 4.49902 14C4.49902 14.5523 4.05131 15 3.49902 15C2.94674 15 2.49902 14.5523 2.49902 14ZM7.00003 14C7.00003 13.4477 7.44775 13 8.00003 13C8.55232 13 9.00003 13.4477 9.00003 14C9.00003 14.5523 8.55232 15 8.00003 15C7.44775 15 7.00003 14.5523 7.00003 14ZM12.501 13C11.9488 13 11.501 13.4477 11.501 14C11.501 14.5523 11.9488 15 12.501 15C13.0533 15 13.501 14.5523 13.501 14C13.501 13.4477 13.0533 13 12.501 13Z" fill="#000"/>
</svg>
