<svg xmlns="http://www.w3.org/2000/svg" width="32" height="32" fill="none" viewBox="0 0 16 16"><path fill="#181c1f" d="M0 0h16v16H0z"/><path fill="#fff" fill-rule="evenodd" d="M12.005 2.757a.876.876 0 0 1 1.238 0l.528-.528-.528.528a.876.876 0 0 1 0 1.238L11.65 5.59l-1.24-1.24zm.715 6.023-.71-.708-4.65 4.845a4.75 4.75 0 0 1-2.34 1.333l-.039.009-3.06.72a.75.75 0 0 1-.902-.902l.73-3.1A4.75 4.75 0 0 1 3.082 8.64l4.845-4.65-.708-.71a.75.75 0 0 1 1.06-1.06l1.07 1.07 1.594-1.594a2.376 2.376 0 1 1 3.36 3.36L12.71 6.65l1.07 1.07a.75.75 0 0 1-1.06 1.06M8.99 5.05l1.96 1.96L8.08 10H3.865q.12-.146.257-.278z" clip-rule="evenodd"/></svg>