<svg width="32" height="32" viewBox="0 0 16 16" fill="none" xmlns="http://www.w3.org/2000/svg">
<rect x="0" y="0" width="16" height="16" fill="white"/>
<path d="M5.75 11.25H1.75L2.75 8V7C2.75 4.1005 5.10051 1.75 8 1.75V1.75C10.8995 1.75 13.25 4.10051 13.25 7V8L14.25 11.25H10.25M5.75 11.25V12C5.75 12.1718 5.76927 12.3392 5.80575 12.5C6.03312 13.502 6.92921 14.25 8 14.25C9.07079 14.25 9.96688 13.502 10.1942 12.5C10.2307 12.3392 10.25 12.1718 10.25 12V11.25M5.75 11.25H10.25" stroke="black" stroke-width="1.5" stroke-linecap="round" stroke-linejoin="round"/>
</svg>
