<svg xmlns="http://www.w3.org/2000/svg" width="32" height="32" fill="none" viewBox="0 0 16 16"><path fill="#181c1f" d="M0 0h16v16H0z"/><path fill="#fff" fill-rule="evenodd" d="M6.717 1.951c.389-1.268 2.178-1.268 2.566 0l1.02 3.328h3.353c1.297 0 1.825 1.64.818 2.416l-2.775 2.137 1.05 3.422c.377 1.233-1.046 2.278-2.101 1.465L8 12.68l-2.647 2.04c-1.056.813-2.48-.232-2.101-1.465L4.3 9.832 1.527 7.695c-1.008-.775-.48-2.416.817-2.416h3.353zM8 2.883l-.903 2.945c-.172.562-.69.95-1.283.95H2.795l2.504 1.93c.447.343.63.928.466 1.464l-.937 3.057 2.355-1.813a1.34 1.34 0 0 1 1.634 0l2.355 1.813-.937-3.057a1.35 1.35 0 0 1 .466-1.465l2.504-1.928h-3.019a1.34 1.34 0 0 1-1.283-.951z" clip-rule="evenodd"/></svg>