<svg xmlns="http://www.w3.org/2000/svg" width="32" height="32" fill="none" viewBox="0 0 16 16"><path fill="#181c1f" d="M0 0h16v16H0z"/><path fill="#fff" fill-rule="evenodd" d="M3.75 2.5c-.69 0-1.25.56-1.25 1.25v6.433l.981-1.174a1.775 1.775 0 0 1 2.771.048.985.985 0 0 0 1.521.039l2.148-2.479a1.773 1.773 0 0 1 2.428-.248l1.151.886V3.75c0-.69-.56-1.25-1.25-1.25zm9.75 6.647-2.065-1.589a.273.273 0 0 0-.38.042l-2.148 2.478a2.485 2.485 0 0 1-3.838-.099.275.275 0 0 0-.437-.008l-2.108 2.523A1.25 1.25 0 0 0 3.75 13.5h8.5c.69 0 1.25-.56 1.25-1.25zM1 3.75A2.75 2.75 0 0 1 3.75 1h8.5A2.75 2.75 0 0 1 15 3.75v8.5A2.75 2.75 0 0 1 12.25 15h-8.5A2.75 2.75 0 0 1 1 12.25z" clip-rule="evenodd"/><path fill="#fff" fill-rule="evenodd" d="M3.75 4.75a1 1 0 1 1 2 0 1 1 0 0 1-2 0" clip-rule="evenodd"/></svg>