<svg width="32" height="32" viewBox="0 0 16 16" fill="none" xmlns="http://www.w3.org/2000/svg">
<rect x="0" y="0" width="16" height="16" fill="#fff"/>
<path fill-rule="evenodd" clip-rule="evenodd" d="M5.75 1C3.12665 1 1 3.12665 1 5.75V6.42157C1 6.99017 1.17609 7.54062 1.49808 8C1.1761 8.45938 1 9.00982 1 9.57843V10.25C1 12.8734 3.12665 15 5.75 15H6.42157C6.99018 15 7.54062 14.8239 8 14.5019C8.45938 14.8239 9.00982 15 9.57843 15H10.25C12.8734 15 15 12.8734 15 10.25V9.57843C15 9.00982 14.8239 8.45938 14.5019 8C14.8239 7.54062 15 6.99018 15 6.42157V5.75C15 3.12665 12.8734 1 10.25 1H9.57843C9.00983 1 8.45938 1.17609 8 1.49808C7.54062 1.17609 6.99018 1 6.42157 1H5.75ZM6.85995 2.57939L2.57939 6.85995C2.52738 6.72107 2.5 6.57273 2.5 6.42157V5.75C2.5 3.95507 3.95508 2.5 5.75 2.5H6.42157C6.57273 2.5 6.72107 2.52738 6.85995 2.57939ZM9.57843 13.5C9.42727 13.5 9.27893 13.4726 9.14005 13.4206L13.4206 9.14005C13.4726 9.27893 13.5 9.42727 13.5 9.57843V10.25C13.5 12.0449 12.0449 13.5 10.25 13.5H9.57843ZM8.69454 2.86612C8.92896 2.6317 9.24691 2.5 9.57843 2.5H10.25C12.0449 2.5 13.5 3.95508 13.5 5.75V6.42157C13.5 6.75309 13.3683 7.07104 13.1339 7.30546L12.9697 7.46967L7.46967 12.9697L7.30546 13.1339C7.07104 13.3683 6.75309 13.5 6.42157 13.5H5.75C3.95508 13.5 2.5 12.0449 2.5 10.25V9.57843C2.5 9.24691 2.6317 8.92897 2.86612 8.69454L3.03033 8.53033L8.53033 3.03033L8 2.5L8.53033 3.03033L8.69454 2.86612ZM8 7C8 6.44772 8.44772 6 9 6C9.55229 6 10 6.44772 10 7C10 7.55228 9.55229 8 9 8C8.44772 8 8 7.55228 8 7ZM6 9C6 8.44772 6.44772 8 7 8C7.55228 8 8 8.44772 8 9C8 9.55229 7.55228 10 7 10C6.44772 10 6 9.55229 6 9Z" fill="#000"/>
</svg>
