<svg xmlns="http://www.w3.org/2000/svg" width="32" height="32" fill="none" viewBox="0 0 16 16"><path fill="#181c1f" d="M0 0h16v16H0z"/><path fill="#fff" fill-rule="evenodd" d="M2.268 1.176a.75.75 0 0 1 1.056.092l.617.734L4 2h9.25a.75.75 0 0 1 .75.75v1.5a.75.75 0 0 1-1.5 0V3.5H8.75v4.227l5.074 6.04a.75.75 0 1 1-1.148.965l-5.25-6.25-5.25-6.25a.75.75 0 0 1 .092-1.056M7.25 5.94V3.5H5.2zM8 11.25a.75.75 0 0 1 .75.75v1.5h.5a.75.75 0 0 1 0 1.5h-2.5a.75.75 0 0 1 0-1.5h.5V12a.75.75 0 0 1 .75-.75" clip-rule="evenodd"/></svg>