<svg width="32" height="32" viewBox="0 0 16 16" fill="none" xmlns="http://www.w3.org/2000/svg">
<rect x="0" y="0" width="16" height="16" fill="white"/>
<path d="M4.25006 2.75L2.75006 4.25M1.75 6.75L1.75 9.25M2.75001 11.75L4.25001 13.25M6.75 14.25H9.25M13.25 11.75L11.75 13.25M14.2501 6.75V9.25M11.75 2.75L13.25 4.25M6.74992 1.75L9.24992 1.75M5.49977 5.5L3.58054 3.58058M4.50001 8L1.75001 8M5.5004 10.5L3.58084 12.4196M8.0005 11.5V14.25M10.5005 10.5L12.2429 12.2426M11.5004 7.99998L14.0004 7.99998M10.5004 5.49998L12.2432 3.75722M8.00041 4.49998L8.0004 1.99998M11.2504 7.99998C11.2504 9.79491 9.79533 11.25 8.0004 11.25C6.20548 11.25 4.7504 9.79491 4.7504 7.99998C4.7504 6.20506 6.20548 4.74998 8.0004 4.74998C9.79533 4.74998 11.2504 6.20506 11.2504 7.99998Z" stroke="black" stroke-width="1.5" stroke-linecap="round" stroke-linejoin="round"/>
</svg>
