<svg width="32" height="32" viewBox="0 0 16 16" fill="none" xmlns="http://www.w3.org/2000/svg">
<rect x="0" y="0" width="16" height="16" fill="#181c1f"/>
<path fill-rule="evenodd" clip-rule="evenodd" d="M2 1.75C2 1.33579 2.33579 1 2.75 1H13.25C13.6642 1 14 1.33579 14 1.75V2.45658C14 3.45509 13.6853 4.4282 13.1007 5.23766L10.9163 8.26225C11.5883 8.97784 12 9.94085 12 11C12 13.2091 10.2091 15 8 15C5.79086 15 4 13.2091 4 11C4 9.94085 4.41165 8.97784 5.0837 8.26225L2.89927 5.23766C2.31466 4.4282 2 3.45509 2 2.45658V1.75ZM6.29664 7.37976C6.81343 7.13618 7.39081 7 8 7C8.60919 7 9.18657 7.13618 9.70336 7.37976L11.8847 4.35943C12.2762 3.81732 12.4908 3.16794 12.4997 2.5H3.50029C3.50921 3.16794 3.72377 3.81732 4.11529 4.35943L6.29664 7.37976ZM8 8.5C6.61929 8.5 5.5 9.61929 5.5 11C5.5 12.3807 6.61929 13.5 8 13.5C9.38071 13.5 10.5 12.3807 10.5 11C10.5 9.61929 9.38071 8.5 8 8.5Z" fill="#fff"/>
</svg>
