<svg xmlns="http://www.w3.org/2000/svg" width="32" height="32" fill="none" viewBox="0 0 16 16"><path fill="#181c1f" d="M0 0h16v16H0z"/><path fill="#fff" fill-rule="evenodd" d="M3.5 7a4.5 4.5 0 0 1 9 0c0 .693-.262 1.45-.718 2.231-.453.776-1.067 1.526-1.7 2.189A20 20 0 0 1 8 13.308q-.151-.12-.343-.277a20 20 0 0 1-1.74-1.611c-.632-.663-1.246-1.413-1.699-2.189C3.763 8.451 3.5 7.693 3.5 7m4.064 7.86L8 14.25za.75.75 0 0 0 .872 0L8 14.25l.436.61.002-.001.004-.003.013-.01.049-.035.176-.132a22 22 0 0 0 2.487-2.223c.68-.713 1.379-1.557 1.91-2.469.53-.906.923-1.93.923-2.987A6 6 0 0 0 2 7c0 1.057.394 2.08.922 2.987.532.912 1.23 1.756 1.91 2.468a22 22 0 0 0 2.664 2.356l.049.035.013.01.004.003zM8 5a2 2 0 1 0 0 4 2 2 0 0 0 0-4" clip-rule="evenodd"/></svg>