<svg width="32" height="32" viewBox="0 0 16 16" fill="none" xmlns="http://www.w3.org/2000/svg">
<rect x="0" y="0" width="16" height="16" fill="white"/>
<path d="M14.25 8.25V8C14.25 4.54822 11.4518 1.75 8 1.75H7.75M14.25 11.75V14.25M1.75 8C1.75 6.06977 2.62501 4.34392 4 3.19745L4.25 3M11.25 10.25V8C11.25 6.20507 9.79493 4.75 8 4.75H7.75M1.75 11.25H2.75C3.85457 11.25 4.75 10.3546 4.75 9.25V8.75M11.25 12.75V14.25M8 8.75V10.25C8 12.4591 6.20914 14.25 4 14.25H3.75M5.25 6.25H5.26" stroke="black" stroke-width="1.5" stroke-linecap="round" stroke-linejoin="round"/>
</svg>
