<svg xmlns="http://www.w3.org/2000/svg" width="32" height="32" fill="none" viewBox="0 0 16 16"><path fill="#181c1f" d="M0 0h16v16H0z"/><path fill="#fff" fill-rule="evenodd" d="M2.28 1.22a.75.75 0 0 0-1.06 1.06l2.054 2.055 7.445 7.445h.001l3 3a.75.75 0 1 0 1.06-1.06L13.06 12h1.19a.75.75 0 0 0 .717-.97L14 7.886V7A6 6 0 0 0 3.788 2.727zm10.955 9.28H11.56L4.848 3.788A4.5 4.5 0 0 1 12.5 7v1q0 .114.033.22zM3.5 6.75a.75.75 0 0 0-1.5 0v1.137l-.962 3.126a.74.74 0 0 0-.024.384.75.75 0 0 0 .624.595q.066.01.13.008H5.02c.004.097.008.193.013.278.005.101.015.272.041.388.126.556.348 1.185.894 1.654.552.473 1.31.68 2.282.68a.75.75 0 0 0 0-1.5c-.778 0-1.128-.167-1.305-.318-.18-.155-.305-.398-.406-.839l.001.003v.002-.02l-.01-.133a43 43 0 0 1-.027-.79l-.002-.123-.001-.034v-.01a.75.75 0 0 0-.75-.738H2.765l.702-2.28A.8.8 0 0 0 3.5 8z" clip-rule="evenodd"/></svg>