<?xml version="1.0" encoding="UTF-8"?>
<!--Generator: Apple Native CoreSVG 232.5-->
<!DOCTYPE svg
PUBLIC "-//W3C//DTD SVG 1.1//EN"
       "http://www.w3.org/Graphics/SVG/1.1/DTD/svg11.dtd">
<svg version="1.1" xmlns="http://www.w3.org/2000/svg" xmlns:xlink="http://www.w3.org/1999/xlink" width="23.3301" height="20.8301">
 <g>
  <rect height="20.8301" opacity="0" width="23.3301" x="0" y="0"/>
  <path d="M22.9688 6.5918L22.9688 19.0527C22.9688 20.1367 22.3438 20.8301 21.3574 20.8301L13.9355 20.8301C14.8581 20.8301 15.4646 20.2235 15.5389 19.2578L20.8398 19.2578C21.2207 19.2578 21.3965 19.0723 21.3965 18.6914L21.3965 6.95312C21.3965 6.57227 21.2207 6.38672 20.8398 6.38672L15.5469 6.38672L15.5469 4.81445L21.3574 4.81445C22.3438 4.81445 22.9688 5.50781 22.9688 6.5918ZM19.5898 15.791L19.5898 17.3145C19.5898 17.5098 19.4531 17.6465 19.2578 17.6465L17.6855 17.6465C17.4805 17.6465 17.3633 17.5098 17.3633 17.3145L17.3633 15.791C17.3633 15.5957 17.4805 15.459 17.6855 15.459L19.2578 15.459C19.4531 15.459 19.5898 15.5957 19.5898 15.791ZM19.5898 12.0605L19.5898 13.584C19.5898 13.7793 19.4531 13.916 19.2578 13.916L17.6855 13.916C17.4805 13.916 17.3633 13.7793 17.3633 13.584L17.3633 12.0605C17.3633 11.8652 17.4805 11.7285 17.6855 11.7285L19.2578 11.7285C19.4531 11.7285 19.5898 11.8652 19.5898 12.0605ZM19.5898 8.33008L19.5898 9.85352C19.5898 10.0488 19.4531 10.1855 19.2578 10.1855L17.6855 10.1855C17.4805 10.1855 17.3633 10.0488 17.3633 9.85352L17.3633 8.33008C17.3633 8.13477 17.4805 7.99805 17.6855 7.99805L19.2578 7.99805C19.4531 7.99805 19.5898 8.13477 19.5898 8.33008Z" fill="#ffffff" fill-opacity="0.85"/>
  <path d="M0 19.0527C0 20.1367 0.625 20.8301 1.62109 20.8301L13.9355 20.8301C14.9219 20.8301 15.5469 20.1367 15.5469 19.0527L15.5469 1.78711C15.5469 0.703125 14.9219 0.00976562 13.9355 0.00976562L1.62109 0.00976562C0.625 0.00976562 0 0.703125 0 1.78711ZM1.57227 18.6914L1.57227 2.14844C1.57227 1.75781 1.74805 1.58203 2.13867 1.58203L13.418 1.58203C13.7988 1.58203 13.9746 1.75781 13.9746 2.14844L13.9746 18.6914C13.9746 19.0723 13.7988 19.2578 13.418 19.2578L2.13867 19.2578C1.74805 19.2578 1.57227 19.0723 1.57227 18.6914ZM4.375 20L5.6543 20L5.6543 16.7383C5.6543 16.5332 5.76172 16.4258 5.9668 16.4258L9.58008 16.4258C9.79492 16.4258 9.89258 16.5332 9.89258 16.7383L9.89258 20L11.1719 20L11.1719 16.377C11.1719 15.5371 10.8008 15.1465 10 15.1465L5.54688 15.1465C4.74609 15.1465 4.375 15.5371 4.375 16.377ZM4.53125 5.84961L6.43555 5.84961C6.66992 5.84961 6.83594 5.69336 6.83594 5.44922L6.83594 3.60352C6.83594 3.36914 6.66992 3.20312 6.43555 3.20312L4.53125 3.20312C4.29688 3.20312 4.15039 3.36914 4.15039 3.60352L4.15039 5.44922C4.15039 5.69336 4.29688 5.84961 4.53125 5.84961ZM9.11133 5.84961L11.0059 5.84961C11.2402 5.84961 11.4062 5.69336 11.4062 5.44922L11.4062 3.60352C11.4062 3.36914 11.2402 3.20312 11.0059 3.20312L9.11133 3.20312C8.86719 3.20312 8.7207 3.36914 8.7207 3.60352L8.7207 5.44922C8.7207 5.69336 8.86719 5.84961 9.11133 5.84961ZM4.53125 9.7168L6.43555 9.7168C6.66992 9.7168 6.83594 9.56055 6.83594 9.31641L6.83594 7.4707C6.83594 7.23633 6.66992 7.07031 6.43555 7.07031L4.53125 7.07031C4.29688 7.07031 4.15039 7.23633 4.15039 7.4707L4.15039 9.31641C4.15039 9.56055 4.29688 9.7168 4.53125 9.7168ZM9.11133 9.7168L11.0059 9.7168C11.2402 9.7168 11.4062 9.56055 11.4062 9.31641L11.4062 7.4707C11.4062 7.23633 11.2402 7.07031 11.0059 7.07031L9.11133 7.07031C8.86719 7.07031 8.7207 7.23633 8.7207 7.4707L8.7207 9.31641C8.7207 9.56055 8.86719 9.7168 9.11133 9.7168ZM4.53125 13.584L6.43555 13.584C6.66992 13.584 6.83594 13.418 6.83594 13.1836L6.83594 11.3379C6.83594 11.0938 6.66992 10.9375 6.43555 10.9375L4.53125 10.9375C4.29688 10.9375 4.15039 11.0938 4.15039 11.3379L4.15039 13.1836C4.15039 13.418 4.29688 13.584 4.53125 13.584ZM9.11133 13.584L11.0059 13.584C11.2402 13.584 11.4062 13.418 11.4062 13.1836L11.4062 11.3379C11.4062 11.0938 11.2402 10.9375 11.0059 10.9375L9.11133 10.9375C8.86719 10.9375 8.7207 11.0938 8.7207 11.3379L8.7207 13.1836C8.7207 13.418 8.86719 13.584 9.11133 13.584Z" fill="#ffffff" fill-opacity="0.85"/>
 </g>
</svg>
