<?xml version="1.0" encoding="UTF-8"?>
<!--Generator: Apple Native CoreSVG 232.5-->
<!DOCTYPE svg
PUBLIC "-//W3C//DTD SVG 1.1//EN"
       "http://www.w3.org/Graphics/SVG/1.1/DTD/svg11.dtd">
<svg version="1.1" xmlns="http://www.w3.org/2000/svg" xmlns:xlink="http://www.w3.org/1999/xlink" width="22.9297" height="22.373">
 <g>
  <rect height="22.373" opacity="0" width="22.9297" x="0" y="0"/>
  <path d="M18.2324 20.3711L5.52734 20.3711C5.18555 20.3711 4.91211 20.6348 4.91211 20.9863C4.91211 21.3379 5.18555 21.6113 5.52734 21.6113L18.2324 21.6113C18.5742 21.6113 18.8477 21.3379 18.8477 20.9863C18.8477 20.6348 18.5742 20.3711 18.2324 20.3711Z" fill="#ffffff" fill-opacity="0.85"/>
  <path d="M18.2324 17.0605L5.52734 17.0605C5.18555 17.0605 4.91211 17.3242 4.91211 17.6758C4.91211 18.0273 5.18555 18.291 5.52734 18.291L18.2324 18.291C18.5742 18.291 18.8477 18.0273 18.8477 17.6758C18.8477 17.3242 18.5742 17.0605 18.2324 17.0605Z" fill="#ffffff" fill-opacity="0.85"/>
  <path d="M5.22461 14.7949L17.3438 14.7949C20.5469 14.7949 22.9297 12.3633 22.9297 9.35547C22.9297 6.24023 20.3906 3.96484 17.0801 3.96484C15.8594 1.55273 13.5938 0 10.7715 0C7.09961 0 4.07227 2.88086 3.75 6.50391C1.98242 7.02148 0.634766 8.55469 0.634766 10.6152C0.634766 12.9297 2.31445 14.7949 5.22461 14.7949ZM5.20508 13.2324C3.20312 13.2324 2.19727 12.1094 2.19727 10.6641C2.19727 9.49219 2.88086 8.4375 4.54102 7.99805C5.07812 7.85156 5.27344 7.59766 5.32227 7.05078C5.54688 3.85742 7.93945 1.5625 10.7715 1.5625C12.9688 1.5625 14.6973 2.77344 15.752 4.93164C15.9766 5.41016 16.2695 5.57617 16.8457 5.57617C19.7363 5.57617 21.3672 7.31445 21.3672 9.39453C21.3672 11.5234 19.668 13.2324 17.4414 13.2324Z" fill="#ffffff" fill-opacity="0.85"/>
 </g>
</svg>
