<?xml version="1.0" encoding="UTF-8"?>
<!--Generator: Apple Native CoreSVG 232.5-->
<!DOCTYPE svg
PUBLIC "-//W3C//DTD SVG 1.1//EN"
       "http://www.w3.org/Graphics/SVG/1.1/DTD/svg11.dtd">
<svg version="1.1" xmlns="http://www.w3.org/2000/svg" xmlns:xlink="http://www.w3.org/1999/xlink" width="22.9297" height="22.5156">
 <g>
  <rect height="22.5156" opacity="0" width="22.9297" x="0" y="0"/>
  <path d="M15.1172 22.2197L18.0078 17.2197C18.1738 16.9267 18.0859 16.5752 17.793 16.4287C17.5098 16.2724 17.168 16.3408 17.002 16.6435L14.1309 21.624C13.9551 21.917 14.043 22.2588 14.3262 22.4345C14.5996 22.6006 14.9609 22.5029 15.1172 22.2197Z" fill="#ffffff" fill-opacity="0.85"/>
  <path d="M11.2598 22.2099L14.1211 17.2392C14.2969 16.9267 14.209 16.5947 13.916 16.4287C13.6133 16.2529 13.2812 16.3408 13.1055 16.6533L10.2344 21.6435C10.0781 21.917 10.1465 22.2588 10.4492 22.4345C10.7422 22.6006 11.0938 22.5029 11.2598 22.2099Z" fill="#ffffff" fill-opacity="0.85"/>
  <path d="M7.37305 22.2099L10.2344 17.2392C10.4102 16.9267 10.3223 16.5947 10.0293 16.4287C9.72656 16.2529 9.39453 16.3408 9.21875 16.6533L6.34766 21.6435C6.19141 21.917 6.25977 22.2588 6.5625 22.4345C6.85547 22.6006 7.20703 22.5029 7.37305 22.2099Z" fill="#ffffff" fill-opacity="0.85"/>
  <path d="M3.47656 22.2099L6.34766 17.2392C6.52344 16.9267 6.42578 16.5947 6.13281 16.4287C5.83984 16.2529 5.50781 16.3408 5.33203 16.6533L2.45117 21.6435C2.29492 21.917 2.37305 22.2588 2.66602 22.4345C2.95898 22.6006 3.31055 22.5029 3.47656 22.2099Z" fill="#ffffff" fill-opacity="0.85"/>
  <path d="M5.22461 14.8662L17.3438 14.8662C20.5469 14.8662 22.9297 12.4345 22.9297 9.42673C22.9297 6.31149 20.3906 4.0361 17.0801 4.0361C15.8594 1.62399 13.5938 0.0712566 10.7715 0.0712566C7.09961 0.0712566 4.07227 2.95212 3.75 6.57516C1.98242 7.09274 0.634766 8.62594 0.634766 10.6865C0.634766 13.0009 2.31445 14.8662 5.22461 14.8662ZM5.20508 13.3037C3.20312 13.3037 2.19727 12.1806 2.19727 10.7353C2.19727 9.56344 2.88086 8.50876 4.54102 8.0693C5.07812 7.92282 5.27344 7.66891 5.32227 7.12204C5.54688 3.92868 7.93945 1.63376 10.7715 1.63376C12.9688 1.63376 14.6973 2.84469 15.752 5.0029C15.9766 5.48141 16.2695 5.64743 16.8457 5.64743C19.7363 5.64743 21.3672 7.38571 21.3672 9.46579C21.3672 11.5947 19.668 13.3037 17.4414 13.3037Z" fill="#ffffff" fill-opacity="0.85"/>
 </g>
</svg>
