<?xml version="1.0" encoding="UTF-8"?>
<!--Generator: Apple Native CoreSVG 232.5-->
<!DOCTYPE svg
PUBLIC "-//W3C//DTD SVG 1.1//EN"
       "http://www.w3.org/Graphics/SVG/1.1/DTD/svg11.dtd">
<svg version="1.1" xmlns="http://www.w3.org/2000/svg" xmlns:xlink="http://www.w3.org/1999/xlink" width="23.4863" height="15.5957">
 <g>
  <rect height="15.5957" opacity="0" width="23.4863" x="0" y="0"/>
  <path d="M4.93164 15.459L17.6465 15.459C20.9375 15.459 23.4863 12.9688 23.4863 9.78516C23.4863 6.57227 20.8789 4.15039 17.334 4.15039C16.0352 1.57227 13.6523 0 10.752 0C6.96289 0 3.75977 2.93945 3.41797 6.83594C1.46484 7.39258 0.146484 9.0332 0.146484 11.1133C0.146484 13.5156 1.89453 15.459 4.93164 15.459ZM4.91211 13.8867C2.91016 13.8867 1.71875 12.8027 1.71875 11.1621C1.71875 9.75586 2.61719 8.74023 4.19922 8.32031C4.74609 8.18359 4.95117 7.92969 4.99023 7.36328C5.22461 4.05273 7.70508 1.57227 10.752 1.57227C13.1055 1.57227 14.9219 2.88086 16.0156 5.12695C16.25 5.60547 16.5332 5.77148 17.1289 5.77148C20.1855 5.77148 21.9043 7.61719 21.9043 9.82422C21.9043 12.0996 20.0879 13.8867 17.7539 13.8867Z" fill="#ffffff" fill-opacity="0.85"/>
 </g>
</svg>
