<?xml version="1.0" encoding="UTF-8"?>
<!--Generator: Apple Native CoreSVG 232.5-->
<!DOCTYPE svg
PUBLIC "-//W3C//DTD SVG 1.1//EN"
       "http://www.w3.org/Graphics/SVG/1.1/DTD/svg11.dtd">
<svg version="1.1" xmlns="http://www.w3.org/2000/svg" xmlns:xlink="http://www.w3.org/1999/xlink" width="22.9297" height="24.3066">
 <g>
  <rect height="24.3066" opacity="0" width="22.9297" x="0" y="0"/>
  <path d="M14.4824 24.3066C14.6582 24.3066 14.7852 24.1309 14.7754 23.9551L14.707 23.0273L15.4883 23.5547C15.625 23.6426 15.8496 23.6035 15.9473 23.457C16.0352 23.3105 15.9863 23.0859 15.791 22.998L14.9512 22.5977L15.8008 22.1777C15.9863 22.0898 16.0254 21.875 15.957 21.7285C15.8691 21.5723 15.625 21.543 15.4883 21.6309L14.707 22.1777L14.7852 21.2305C14.8047 21.0449 14.6582 20.8887 14.4824 20.8887C14.2773 20.8887 14.1602 21.0449 14.1699 21.2305L14.2285 22.1777L13.4375 21.6309C13.3008 21.543 13.0957 21.5625 12.998 21.7285C12.9102 21.875 12.9492 22.0801 13.1348 22.1777L13.9746 22.5977L13.1348 23.0078C12.9492 23.0957 12.9004 23.3008 12.9883 23.457C13.0762 23.623 13.3008 23.6523 13.4375 23.5547L14.2285 23.0273L14.1797 23.9551C14.1699 24.1309 14.2773 24.3066 14.4824 24.3066Z" fill="#ffffff" fill-opacity="0.85"/>
  <path d="M9.07227 24.3066C9.24805 24.3066 9.375 24.1309 9.36523 23.9551L9.30664 23.0273L10.0781 23.5547C10.2148 23.6426 10.4395 23.6035 10.5371 23.457C10.625 23.3105 10.5762 23.0859 10.3809 22.998L9.54102 22.5977L10.3906 22.1777C10.5762 22.0898 10.6152 21.875 10.5469 21.7285C10.459 21.5723 10.2148 21.543 10.0781 21.6309L9.30664 22.1777L9.375 21.2305C9.39453 21.0449 9.24805 20.8887 9.07227 20.8887C8.86719 20.8887 8.75 21.0449 8.75977 21.2305L8.81836 22.1777L8.02734 21.6309C7.89062 21.543 7.68555 21.5625 7.58789 21.7285C7.5 21.875 7.53906 22.0801 7.72461 22.1777L8.56445 22.5977L7.72461 23.0078C7.53906 23.0957 7.49023 23.3008 7.57812 23.457C7.66602 23.623 7.89062 23.6523 8.02734 23.5547L8.81836 23.0273L8.76953 23.9551C8.75977 24.1309 8.86719 24.3066 9.07227 24.3066Z" fill="#ffffff" fill-opacity="0.85"/>
  <path d="M3.66211 24.3066C3.83789 24.3066 3.96484 24.1309 3.95508 23.9551L3.89648 23.0273L4.66797 23.5547C4.81445 23.6426 5.0293 23.6035 5.12695 23.457C5.21484 23.3105 5.16602 23.0859 4.9707 22.998L4.14062 22.5977L4.98047 22.1777C5.16602 22.0898 5.20508 21.875 5.13672 21.7285C5.04883 21.5723 4.81445 21.543 4.66797 21.6309L3.89648 22.1777L3.96484 21.2305C3.98438 21.0449 3.83789 20.8887 3.66211 20.8887C3.45703 20.8887 3.33984 21.0449 3.34961 21.2305L3.4082 22.1777L2.62695 21.6309C2.48047 21.543 2.27539 21.5625 2.17773 21.7285C2.08984 21.875 2.12891 22.0801 2.31445 22.1777L3.1543 22.5977L2.31445 23.0078C2.12891 23.0957 2.08008 23.3008 2.16797 23.457C2.25586 23.623 2.48047 23.6523 2.62695 23.5547L3.4082 23.0273L3.35938 23.9551C3.34961 24.1309 3.45703 24.3066 3.66211 24.3066Z" fill="#ffffff" fill-opacity="0.85"/>
  <path d="M16.6016 20.6348C16.7773 20.6348 16.9043 20.4688 16.8945 20.293L16.8262 19.3555L17.6074 19.8828C17.7441 19.9805 17.9688 19.9414 18.0664 19.7949C18.1543 19.6484 18.1055 19.4238 17.9102 19.3359L17.0703 18.9258L17.9199 18.5059C18.1055 18.418 18.1445 18.2129 18.0762 18.0566C17.9883 17.9004 17.7441 17.8711 17.6074 17.9688L16.8262 18.5059L16.9043 17.5684C16.9238 17.3828 16.7773 17.2266 16.6016 17.2266C16.3965 17.2266 16.2793 17.3828 16.2891 17.5684L16.3477 18.5059L15.5566 17.9688C15.4199 17.8711 15.2148 17.8906 15.1172 18.0566C15.0293 18.2129 15.0684 18.418 15.2539 18.5059L16.0938 18.9258L15.2539 19.3359C15.0684 19.4238 15.0195 19.6387 15.1074 19.7949C15.1953 19.9512 15.4199 19.9805 15.5566 19.8926L16.3477 19.3652L16.2988 20.293C16.2891 20.4688 16.3965 20.6348 16.6016 20.6348Z" fill="#ffffff" fill-opacity="0.85"/>
  <path d="M11.1914 20.6348C11.3672 20.6348 11.4941 20.4688 11.4844 20.293L11.4258 19.3555L12.1973 19.8828C12.334 19.9805 12.5586 19.9414 12.6562 19.7949C12.7441 19.6484 12.6953 19.4238 12.5 19.3359L11.6602 18.9258L12.5098 18.5059C12.6953 18.418 12.7344 18.2129 12.666 18.0566C12.5781 17.9004 12.334 17.8711 12.1973 17.9688L11.4258 18.5059L11.4941 17.5684C11.5137 17.3828 11.3672 17.2266 11.1914 17.2266C10.9863 17.2266 10.8691 17.3828 10.8789 17.5684L10.9375 18.5059L10.1465 17.9688C10.0098 17.8711 9.80469 17.8906 9.70703 18.0566C9.61914 18.2129 9.6582 18.418 9.84375 18.5059L10.6836 18.9258L9.84375 19.3359C9.6582 19.4238 9.60938 19.6387 9.69727 19.7949C9.78516 19.9512 10.0098 19.9805 10.1465 19.8926L10.9375 19.3652L10.8887 20.293C10.8789 20.4688 10.9863 20.6348 11.1914 20.6348Z" fill="#ffffff" fill-opacity="0.85"/>
  <path d="M5.78125 20.6348C5.95703 20.6348 6.08398 20.4688 6.07422 20.293L6.01562 19.3555L6.78711 19.8828C6.92383 19.9805 7.14844 19.9414 7.24609 19.7949C7.33398 19.6484 7.28516 19.4238 7.08984 19.3359L6.25977 18.9258L7.09961 18.5059C7.28516 18.418 7.32422 18.2129 7.25586 18.0566C7.16797 17.9004 6.92383 17.8711 6.78711 17.9688L6.01562 18.5059L6.08398 17.5684C6.10352 17.3828 5.95703 17.2266 5.78125 17.2266C5.57617 17.2266 5.45898 17.3828 5.46875 17.5684L5.52734 18.5059L4.74609 17.9688C4.59961 17.8711 4.39453 17.8906 4.29688 18.0566C4.20898 18.2129 4.24805 18.418 4.43359 18.5059L5.27344 18.9258L4.43359 19.3359C4.24805 19.4238 4.19922 19.6387 4.28711 19.7949C4.375 19.9512 4.59961 19.9805 4.74609 19.8926L5.52734 19.3652L5.47852 20.293C5.46875 20.4688 5.57617 20.6348 5.78125 20.6348Z" fill="#ffffff" fill-opacity="0.85"/>
  <path d="M5.22461 15.7617L17.3438 15.7617C20.5469 15.7617 22.9297 13.3301 22.9297 10.3223C22.9297 7.20703 20.3906 4.93164 17.0801 4.93164C15.8594 2.51953 13.5938 0.966797 10.7715 0.966797C7.09961 0.966797 4.07227 3.84766 3.75 7.4707C1.98242 7.98828 0.634766 9.52148 0.634766 11.582C0.634766 13.8965 2.31445 15.7617 5.22461 15.7617ZM5.20508 14.1992C3.20312 14.1992 2.19727 13.0762 2.19727 11.6309C2.19727 10.459 2.88086 9.4043 4.54102 8.96484C5.07812 8.81836 5.27344 8.56445 5.32227 8.01758C5.54688 4.82422 7.93945 2.5293 10.7715 2.5293C12.9688 2.5293 14.6973 3.74023 15.752 5.89844C15.9766 6.37695 16.2695 6.54297 16.8457 6.54297C19.7363 6.54297 21.3672 8.28125 21.3672 10.3613C21.3672 12.4902 19.668 14.1992 17.4414 14.1992Z" fill="#ffffff" fill-opacity="0.85"/>
 </g>
</svg>
