<?xml version="1.0" encoding="UTF-8"?>
<!--Generator: Apple Native CoreSVG 232.5-->
<!DOCTYPE svg
PUBLIC "-//W3C//DTD SVG 1.1//EN"
       "http://www.w3.org/Graphics/SVG/1.1/DTD/svg11.dtd">
<svg version="1.1" xmlns="http://www.w3.org/2000/svg" xmlns:xlink="http://www.w3.org/1999/xlink" width="13.8965" height="19.7949">
 <g>
  <rect height="19.7949" opacity="0" width="13.8965" x="0" y="0"/>
  <path d="M6.76758 19.7754C10.8301 19.7754 13.5352 17.1289 13.5352 13.1641C13.5352 11.2109 12.7734 9.26758 12.1973 7.96875C11.1523 5.61523 9.51172 3.02734 8.08594 0.820312C7.74414 0.302734 7.34375 0 6.76758 0C6.19141 0 5.79102 0.302734 5.44922 0.820312C4.02344 3.02734 2.38281 5.61523 1.33789 7.96875C0.771484 9.26758 0 11.2109 0 13.1641C0 17.1289 2.70508 19.7754 6.76758 19.7754ZM6.76758 18.1738C3.66211 18.1738 1.60156 16.1719 1.60156 13.1641C1.60156 11.5625 2.2168 10.0098 2.76367 8.74023C3.85742 6.17188 5.30273 4.0625 6.66992 2.00195C6.73828 1.9043 6.81641 1.9043 6.875 2.00195C8.23242 4.0625 9.6875 6.17188 10.7617 8.73047C11.3184 10.0098 11.9434 11.5625 11.9434 13.1641C11.9434 16.1719 9.87305 18.1738 6.76758 18.1738Z" fill="#ffffff" fill-opacity="0.85"/>
 </g>
</svg>
