<?xml version="1.0" encoding="UTF-8"?>
<!--Generator: Apple Native CoreSVG 232.5-->
<!DOCTYPE svg
PUBLIC "-//W3C//DTD SVG 1.1//EN"
       "http://www.w3.org/Graphics/SVG/1.1/DTD/svg11.dtd">
<svg version="1.1" xmlns="http://www.w3.org/2000/svg" xmlns:xlink="http://www.w3.org/1999/xlink" width="21.0718" height="20.9204">
 <g>
  <rect height="20.9204" opacity="0" width="21.0718" x="0" y="0"/>
  <path d="M10.4773 6.35376L9.17847 7.67212C10.4675 7.77954 11.3074 8.1604 11.9421 8.79517C13.6511 10.5042 13.6414 12.926 11.9519 14.6155L8.75855 17.7991C7.05933 19.4983 4.65698 19.5081 2.948 17.8088C1.23902 16.0901 1.24878 13.6877 2.948 11.9885L4.86206 10.0745C4.58862 9.45923 4.52027 8.72681 4.62769 8.09204L1.75659 10.9534C-0.577391 13.2971-0.596922 16.6174 1.76636 18.9807C4.13941 21.3538 7.45972 21.3342 9.7937 19.0002L13.1335 15.6506C15.4773 13.3069 15.4968 9.98657 13.1238 7.62329C12.5085 7.00806 11.7273 6.56861 10.4773 6.35376ZM10.2332 14.4006L11.532 13.0823C10.2429 12.9846 9.40308 12.594 8.76831 11.9592C7.05933 10.2502 7.06909 7.82837 8.75855 6.13892L11.9421 2.95532C13.6511 1.25611 16.0535 1.24634 17.7625 2.95532C19.4714 4.66431 19.4519 7.07642 17.7625 8.76587L15.8484 10.6799C16.1218 11.3049 16.1804 12.0276 16.0828 12.6624L18.9539 9.80103C21.2878 7.45728 21.3074 4.14673 18.9441 1.77368C16.571-0.599363 13.2507-0.579832 10.907 1.76392L7.57691 5.10376C5.23316 7.44751 5.21362 10.7678 7.58667 13.1311C8.20191 13.7463 8.98316 14.1858 10.2332 14.4006Z" fill="#ffffff" fill-opacity="0.85"/>
 </g>
</svg>
