<?xml version="1.0" encoding="UTF-8"?>
<!--Generator: Apple Native CoreSVG 232.5-->
<!DOCTYPE svg
PUBLIC "-//W3C//DTD SVG 1.1//EN"
       "http://www.w3.org/Graphics/SVG/1.1/DTD/svg11.dtd">
<svg version="1.1" xmlns="http://www.w3.org/2000/svg" xmlns:xlink="http://www.w3.org/1999/xlink" width="20.0098" height="19.7949">
 <g>
  <rect height="19.7949" opacity="0" width="20.0098" x="0" y="0"/>
  <path d="M15.3418 13.2617C9.96094 13.2617 6.62109 10.0195 6.62109 4.81445C6.62109 3.33008 6.86523 2.02148 7.22656 1.31836C7.37305 1.03516 7.40234 0.898438 7.40234 0.703125C7.40234 0.380859 7.09961 0 6.68945 0C6.61133 0 6.42578 0.0292969 6.15234 0.136719C2.53906 1.60156 0 5.41016 0 9.51172C0 15.4395 4.30664 19.7559 10.2344 19.7559C14.4824 19.7559 17.9297 17.5293 19.5117 13.877C19.6289 13.623 19.6484 13.4082 19.6484 13.3008C19.6484 12.9004 19.3066 12.627 19.0039 12.627C18.8477 12.627 18.7305 12.6367 18.4961 12.7246C17.7051 13.0469 16.5137 13.2617 15.3418 13.2617ZM1.5332 9.44336C1.5332 6.40625 3.11523 3.51562 5.64453 1.92383C5.33203 2.83203 5.16602 3.83789 5.16602 4.95117C5.16602 11.0547 8.88672 14.6875 15.1172 14.6875C16.123 14.6875 16.9727 14.5703 17.7832 14.2871C16.2988 16.7383 13.4375 18.2324 10.293 18.2324C5.22461 18.2324 1.5332 14.541 1.5332 9.44336Z" fill="#ffffff" fill-opacity="0.85"/>
 </g>
</svg>
