<?xml version="1.0" encoding="UTF-8"?>
<!--Generator: Apple Native CoreSVG 232.5-->
<!DOCTYPE svg
PUBLIC "-//W3C//DTD SVG 1.1//EN"
       "http://www.w3.org/Graphics/SVG/1.1/DTD/svg11.dtd">
<svg version="1.1" xmlns="http://www.w3.org/2000/svg" xmlns:xlink="http://www.w3.org/1999/xlink" width="18.4277" height="24.0723">
 <g>
  <rect height="24.0723" opacity="0" width="18.4277" x="0" y="0"/>
  <path d="M8.48633 4.75586C8.61328 4.75586 8.68164 4.67773 8.70117 4.56055C8.99414 2.97852 8.96484 2.90039 10.6641 2.59766C10.7812 2.56836 10.8594 2.5 10.8594 2.37305C10.8594 2.25586 10.7812 2.17773 10.6641 2.1582C8.96484 1.85547 8.99414 1.77734 8.70117 0.195312C8.68164 0.078125 8.61328 0 8.48633 0C8.35938 0 8.29102 0.078125 8.27148 0.195312C7.97852 1.77734 8.00781 1.85547 6.30859 2.1582C6.18164 2.17773 6.11328 2.25586 6.11328 2.37305C6.11328 2.5 6.18164 2.56836 6.30859 2.59766C8.00781 2.90039 7.97852 2.97852 8.27148 4.56055C8.29102 4.67773 8.35938 4.75586 8.48633 4.75586Z" fill="#ffffff" fill-opacity="0.85"/>
  <path d="M3.75977 11.4746C3.94531 11.4746 4.07227 11.3477 4.0918 11.1719C4.44336 8.56445 4.53125 8.56445 7.22656 8.04688C7.39258 8.01758 7.51953 7.90039 7.51953 7.71484C7.51953 7.53906 7.39258 7.41211 7.22656 7.39258C4.53125 7.01172 4.43359 6.92383 4.0918 4.27734C4.07227 4.0918 3.94531 3.96484 3.75977 3.96484C3.58398 3.96484 3.45703 4.0918 3.42773 4.28711C3.11523 6.89453 2.96875 6.88477 0.292969 7.39258C0.126953 7.42188 0 7.53906 0 7.71484C0 7.91016 0.126953 8.01758 0.332031 8.04688C2.98828 8.47656 3.11523 8.54492 3.42773 11.1523C3.45703 11.3477 3.58398 11.4746 3.75977 11.4746Z" fill="#ffffff" fill-opacity="0.85"/>
  <path d="M10.3809 22.2754C10.6348 22.2754 10.8203 22.0898 10.8691 21.8262C11.5625 16.4844 12.3145 15.6641 17.6074 15.0781C17.8809 15.0488 18.0664 14.8535 18.0664 14.5898C18.0664 14.3359 17.8809 14.1406 17.6074 14.1113C12.3145 13.5254 11.5625 12.7051 10.8691 7.35352C10.8203 7.08984 10.6348 6.91406 10.3809 6.91406C10.127 6.91406 9.94141 7.08984 9.90234 7.35352C9.20898 12.7051 8.44727 13.5254 3.16406 14.1113C2.88086 14.1406 2.69531 14.3359 2.69531 14.5898C2.69531 14.8535 2.88086 15.0488 3.16406 15.0781C8.4375 15.7715 9.16992 16.4844 9.90234 21.8262C9.94141 22.0898 10.127 22.2754 10.3809 22.2754Z" fill="#ffffff" fill-opacity="0.85"/>
 </g>
</svg>
