<?xml version="1.0" encoding="UTF-8"?>
<!--Generator: Apple Native CoreSVG 232.5-->
<!DOCTYPE svg
PUBLIC "-//W3C//DTD SVG 1.1//EN"
       "http://www.w3.org/Graphics/SVG/1.1/DTD/svg11.dtd">
<svg version="1.1" xmlns="http://www.w3.org/2000/svg" xmlns:xlink="http://www.w3.org/1999/xlink" width="25.3906" height="20.4004">
 <g>
  <rect height="20.4004" opacity="0" width="25.3906" x="0" y="0"/>
  <path d="M17.8516 15.7227C17.8516 16.875 17.4749 17.9505 16.8362 18.8184L14.6124 18.8184C15.6181 18.1582 16.2891 17.013 16.2891 15.7227C16.2891 13.6523 14.5801 11.9434 12.5195 11.9434C10.4492 11.9434 8.74023 13.6523 8.74023 15.7227C8.74023 17.013 9.41121 18.1582 10.4169 18.8184L8.19312 18.8184C7.55439 17.9505 7.17773 16.875 7.17773 15.7227C7.17773 12.793 9.59961 10.3711 12.5195 10.3711C15.4297 10.3711 17.8516 12.793 17.8516 15.7227ZM5.40039 15.4688C5.41016 15.9082 5.0293 16.2598 4.52148 16.2598L2.11914 16.2598C1.61133 16.2598 1.25 15.9082 1.25 15.4688C1.25 15.0293 1.61133 14.6777 2.11914 14.6777L4.52148 14.6777C5.01953 14.6777 5.39062 15.0293 5.40039 15.4688ZM23.7793 15.4688C23.7793 15.9082 23.418 16.2598 22.9102 16.2598L20.5078 16.2598C20.0098 16.2598 19.6387 15.9082 19.6289 15.4688C19.6191 15.0293 20.0098 14.6777 20.5078 14.6777L22.9102 14.6777C23.418 14.6777 23.7793 15.0293 23.7793 15.4688ZM5.72266 7.80273L7.42188 9.50195C7.7832 9.85352 7.7832 10.3711 7.48047 10.6836C7.17773 10.9961 6.65039 10.9863 6.29883 10.625L4.59961 8.92578C4.22852 8.56445 4.23828 8.05664 4.55078 7.75391C4.86328 7.45117 5.36133 7.44141 5.72266 7.80273ZM20.4785 7.75391C20.7812 8.06641 20.8008 8.56445 20.4297 8.92578L18.7305 10.625C18.3789 10.9863 17.8613 10.9863 17.5488 10.6836C17.2363 10.3809 17.2461 9.85352 17.6074 9.50195L19.3066 7.80273C19.668 7.44141 20.1758 7.44141 20.4785 7.75391Z" fill="#ffffff" fill-opacity="0.85"/>
  <path d="M0.849609 20.3809L24.1797 20.3809C24.6387 20.3809 25.0293 20.0293 25.0293 19.5996C25.0293 19.1699 24.6387 18.8184 24.1797 18.8184L0.849609 18.8184C0.390625 18.8184 0 19.1699 0 19.5996C0 20.0293 0.390625 20.3809 0.849609 20.3809Z" fill="#ffffff" fill-opacity="0.85"/>
  <path d="M12.5195 0C12.0801 0 11.7188 0.390625 11.7188 0.869141L11.7188 4.52148L11.8359 5.99609L11.2109 5.26367L9.89258 3.93555C9.74609 3.78906 9.56055 3.71094 9.375 3.71094C8.98438 3.71094 8.70117 3.97461 8.70117 4.36523C8.70117 4.57031 8.76953 4.72656 8.93555 4.87305L11.9824 7.71484C12.1875 7.90039 12.334 7.96875 12.5195 7.96875C12.6953 7.96875 12.8418 7.90039 13.0469 7.71484L16.0938 4.87305C16.2598 4.72656 16.3281 4.57031 16.3281 4.36523C16.3281 3.97461 16.0449 3.71094 15.6543 3.71094C15.4688 3.71094 15.2832 3.78906 15.1367 3.93555L13.916 5.16602L13.1934 5.99609L13.3105 4.52148L13.3105 0.869141C13.3105 0.390625 12.9492 0 12.5195 0Z" fill="#ffffff" fill-opacity="0.85"/>
 </g>
</svg>
