<?xml version="1.0" encoding="UTF-8"?>
<!--Generator: Apple Native CoreSVG 232.5-->
<!DOCTYPE svg
PUBLIC "-//W3C//DTD SVG 1.1//EN"
       "http://www.w3.org/Graphics/SVG/1.1/DTD/svg11.dtd">
<svg version="1.1" xmlns="http://www.w3.org/2000/svg" xmlns:xlink="http://www.w3.org/1999/xlink" width="20.3027" height="17.334">
 <g>
  <rect height="17.334" opacity="0" width="20.3027" x="0" y="0"/>
  <path d="M1.14258 5.87891C2.54883 5.42969 4.00391 5.19531 5.39062 5.19531C7.1875 5.19531 8.50586 5.48828 10.2051 5.48828C11.9629 5.48828 13.0566 4.29688 13.0566 2.74414C13.0566 1.15234 11.8359 0.00976562 10.332 0.00976562C9.21875 0.00976562 8.24219 0.712891 7.83203 1.64062C7.67578 1.96289 7.73438 2.33398 8.07617 2.50977C8.38867 2.66602 8.76953 2.56836 8.97461 2.17773C9.18945 1.67969 9.7168 1.28906 10.332 1.28906C11.1426 1.28906 11.7773 1.85547 11.7773 2.74414C11.7773 3.63281 11.1621 4.21875 10.2051 4.21875C8.58398 4.21875 7.24609 3.92578 5.39062 3.92578C3.79883 3.92578 2.1875 4.20898 0.751953 4.66797C0.341797 4.78516 0.185547 5.13672 0.283203 5.46875C0.380859 5.81055 0.703125 6.00586 1.14258 5.87891ZM16.416 10.4492C18.6914 10.4492 20.3027 9.00391 20.3027 6.98242C20.3027 4.99023 18.7695 3.54492 16.8652 3.54492C15.0977 3.54492 13.7891 4.77539 13.5547 6.38672C13.4961 6.79688 13.7207 7.11914 14.0723 7.16797C14.4336 7.2168 14.7461 6.99219 14.8242 6.5332C14.9902 5.50781 15.8398 4.81445 16.8652 4.81445C18.0566 4.81445 19.0234 5.70312 19.0234 6.98242C19.0234 8.28125 17.998 9.17969 16.416 9.17969C13.4375 9.17969 10.2246 7.48047 6.31836 7.48047C4.30664 7.48047 2.4707 7.80273 0.751953 8.4082C0.351562 8.55469 0.185547 8.89648 0.283203 9.22852C0.380859 9.57031 0.712891 9.77539 1.14258 9.62891C2.73438 9.02344 4.39453 8.75977 6.31836 8.75977C10.2148 8.75977 13.125 10.4492 16.416 10.4492ZM10.2148 17.334C11.7188 17.334 12.8809 16.2207 12.8809 14.6289C12.8809 12.3242 10.5273 11.0352 6.19141 11.0352C4.375 11.0352 2.41211 11.3867 0.751953 11.9531C0.351562 12.0996 0.185547 12.4414 0.283203 12.7734C0.380859 13.1152 0.712891 13.3203 1.14258 13.1738C2.69531 12.6172 4.43359 12.3145 6.19141 12.3145C9.73633 12.3145 11.6113 13.2031 11.6113 14.6289C11.6113 15.5176 10.9863 16.0645 10.2148 16.0645C9.44336 16.0645 8.97461 15.5469 8.83789 14.7266C8.7793 14.3652 8.51562 14.0625 8.0957 14.0918C7.65625 14.1211 7.48047 14.4922 7.53906 14.8926C7.71484 16.25 8.7207 17.334 10.2148 17.334Z" fill="#ffffff" fill-opacity="0.85"/>
 </g>
</svg>
