<svg stroke="currentColor" fill="none" stroke-width="2" viewBox="0 0 24 24" stroke-linecap="round" stroke-linejoin="round" height="1em" width="1em" xmlns="http://www.w3.org/2000/svg"><desc></desc><path stroke="none" d="M0 0h24v24H0z" fill="none"></path><path d="M12 8h3a1 1 0 0 1 1 1v3"></path><path d="M15.716 15.698a0.997 .997 0 0 1 -.716 .302h-6a1 1 0 0 1 -1 -1v-6c0 -.273 .11 -.52 .287 -.7"></path><path d="M3 8h1"></path><path d="M3 16h1"></path><path d="M8 3v1"></path><path d="M16 3v1"></path><path d="M20 8h1"></path><path d="M20 16h1"></path><path d="M8 20v1"></path><path d="M16 20v1"></path><path d="M3 3l18 18"></path></svg>