<svg stroke="currentColor" fill="none" stroke-width="2" viewBox="0 0 24 24" stroke-linecap="round" stroke-linejoin="round" height="1em" width="1em" xmlns="http://www.w3.org/2000/svg"><desc></desc><path stroke="none" d="M0 0h24v24H0z" fill="none"></path><path d="M4 9a2 2 0 0 1 2 -2h11a2 2 0 0 1 2 2v.5a0.5 .5 0 0 0 .5 .5a0.5 .5 0 0 1 .5 .5v3a0.5 .5 0 0 1 -.5 .5a0.5 .5 0 0 0 -.5 .5v.5a2 2 0 0 1 -2 2h-5.5"></path><path d="M3 16.143c0 -2.84 2.09 -5.143 4.667 -5.143h2.333v.857c0 2.84 -2.09 5.143 -4.667 5.143h-2.333v-.857z"></path><path d="M3 20v-3"></path></svg>