<svg stroke="currentColor" fill="none" stroke-width="2" viewBox="0 0 24 24" stroke-linecap="round" stroke-linejoin="round" height="1em" width="1em" xmlns="http://www.w3.org/2000/svg"><desc></desc><path stroke="none" d="M0 0h24v24H0z" fill="none"></path><path d="M4 7v-1a2 2 0 0 1 2 -2h2"></path><path d="M4 17v1a2 2 0 0 0 2 2h2"></path><path d="M16 4h2a2 2 0 0 1 2 2v1"></path><path d="M16 20h2a2 2 0 0 0 2 -2v-1"></path><rect x="5" y="11" width="1" height="2"></rect><line x1="10" y1="11" x2="10" y2="13"></line><rect x="14" y="11" width="1" height="2"></rect><line x1="19" y1="11" x2="19" y2="13"></line></svg>