<svg stroke="currentColor" fill="none" stroke-width="2" viewBox="0 0 24 24" stroke-linecap="round" stroke-linejoin="round" height="1em" width="1em" xmlns="http://www.w3.org/2000/svg"><desc></desc><path stroke="none" d="M0 0h24v24H0z" fill="none"></path><circle cx="10" cy="10" r="6"></circle><path d="M13.5 15h.5a2 2 0 0 1 2 2v1a2 2 0 0 1 -2 2h-8a2 2 0 0 1 -2 -2v-1a2 2 0 0 1 2 -2h.5"></path><path d="M16 17a5.698 5.698 0 0 0 4.467 -7.932l-.467 -1.068"></path><path d="M10 10v.01"></path><circle cx="20" cy="8" r="1"></circle></svg>