<svg stroke="currentColor" fill="none" stroke-width="2" viewBox="0 0 24 24" stroke-linecap="round" stroke-linejoin="round" height="1em" width="1em" xmlns="http://www.w3.org/2000/svg"><desc></desc><path stroke="none" d="M0 0h24v24H0z" fill="none"></path><circle cx="12" cy="5" r="2"></circle><path d="M20 12.5v4.75a0.734 .734 0 0 1 -.055 .325a0.704 .704 0 0 1 -.348 .366l-5.462 2.58a4.998 4.998 0 0 1 -4.27 0l-5.462 -2.58a0.705 .705 0 0 1 -.401 -.691l-.002 -4.75"></path><path d="M4.431 12.216l5.634 -2.332a5.065 5.065 0 0 1 3.87 0l5.634 2.332a0.692 .692 0 0 1 .028 1.269l-5.462 2.543a5.064 5.064 0 0 1 -4.27 0l-5.462 -2.543a0.691 .691 0 0 1 .028 -1.27z"></path><line x1="12" y1="7" x2="12" y2="13"></line></svg>