<svg stroke="currentColor" fill="none" stroke-width="2" viewBox="0 0 24 24" stroke-linecap="round" stroke-linejoin="round" height="1em" width="1em" xmlns="http://www.w3.org/2000/svg"><desc></desc><path stroke="none" d="M0 0h24v24H0z" fill="none"></path><path d="M9.884 5.873a3 3 0 0 1 5.116 2.127v1"></path><path d="M13 9h3a6 6 0 0 1 1 3v1m-.298 3.705a5.002 5.002 0 0 1 -9.702 -1.705v-3a6 6 0 0 1 1 -3h1"></path><path d="M3 13h4"></path><path d="M17 13h4"></path><path d="M12 20v-6"></path><path d="M4 19l3.35 -2"></path><path d="M4 7l3.75 2.4"></path><path d="M20 7l-3.75 2.4"></path><path d="M3 3l18 18"></path></svg>