<svg stroke="currentColor" fill="none" stroke-width="2" viewBox="0 0 24 24" stroke-linecap="round" stroke-linejoin="round" height="1em" width="1em" xmlns="http://www.w3.org/2000/svg"><desc></desc><path stroke="none" d="M0 0h24v24H0z" fill="none"></path><path d="M9.88 9.878a3 3 0 1 0 4.242 4.243m.58 -3.425a3.012 3.012 0 0 0 -1.412 -1.405"></path><path d="M10 6h9a2 2 0 0 1 2 2v8c0 .294 -.064 .574 -.178 .825m-2.822 1.175h-13a2 2 0 0 1 -2 -2v-8a2 2 0 0 1 2 -2h1"></path><line x1="18" y1="12" x2="18.01" y2="12"></line><line x1="6" y1="12" x2="6.01" y2="12"></line><line x1="3" y1="3" x2="21" y2="21"></line></svg>