<svg stroke="currentColor" fill="none" stroke-width="2" viewBox="0 0 24 24" stroke-linecap="round" stroke-linejoin="round" height="1em" width="1em" xmlns="http://www.w3.org/2000/svg"><desc></desc><path stroke="none" d="M0 0h24v24H0z" fill="none"></path><line x1="18" y1="7" x2="17" y2="8"></line><path d="M14 11h1a2 2 0 0 1 2 2v3a1.5 1.5 0 0 0 3 0v-7l-3 -3"></path><path d="M4 20v-14a2 2 0 0 1 2 -2h6a2 2 0 0 1 2 2v14"></path><path d="M9 11.5l-1.5 2.5h3l-1.5 2.5"></path><line x1="3" y1="20" x2="15" y2="20"></line><line x1="4" y1="8" x2="14" y2="8"></line></svg>