<svg stroke="currentColor" fill="none" stroke-width="2" viewBox="0 0 24 24" stroke-linecap="round" stroke-linejoin="round" height="1em" width="1em" xmlns="http://www.w3.org/2000/svg"><desc></desc><path stroke="none" d="M0 0h24v24H0z" fill="none"></path><path d="M20 4v.01"></path><path d="M20 20v.01"></path><path d="M20 16v.01"></path><path d="M20 12v.01"></path><path d="M20 8v.01"></path><path d="M8.297 4.289a0.997 .997 0 0 1 .703 -.289h6a1 1 0 0 1 1 1v7m0 4v3a1 1 0 0 1 -1 1h-6a1 1 0 0 1 -1 -1v-11"></path><path d="M4 4v.01"></path><path d="M4 20v.01"></path><path d="M4 16v.01"></path><path d="M4 12v.01"></path><path d="M4 8v.01"></path><path d="M3 3l18 18"></path></svg>