<svg stroke="currentColor" fill="none" stroke-width="2" viewBox="0 0 24 24" stroke-linecap="round" stroke-linejoin="round" height="1em" width="1em" xmlns="http://www.w3.org/2000/svg"><desc></desc><path stroke="none" d="M0 0h24v24H0z" fill="none"></path><line x1="3" y1="3" x2="21" y2="21"></line><path d="M9 5h9a3 3 0 0 1 3 3v8a3 3 0 0 1 -.128 .87"></path><path d="M18.87 18.872a3 3 0 0 1 -.87 .128h-12a3 3 0 0 1 -3 -3v-8c0 -1.352 .894 -2.495 2.124 -2.87"></path><line x1="3" y1="11" x2="11" y2="11"></line><line x1="15" y1="11" x2="21" y2="11"></line><line x1="7" y1="15" x2="7.01" y2="15"></line><line x1="11" y1="15" x2="13" y2="15"></line></svg>