<svg stroke="currentColor" fill="none" stroke-width="2" viewBox="0 0 24 24" stroke-linecap="round" stroke-linejoin="round" height="1em" width="1em" xmlns="http://www.w3.org/2000/svg"><desc></desc><path stroke="none" d="M0 0h24v24H0z" fill="none"></path><circle cx="5" cy="18" r="2"></circle><circle cx="19" cy="6" r="2"></circle><path d="M19 8v5c0 .594 -.104 1.164 -.294 1.692m-1.692 2.298a4.978 4.978 0 0 1 -3.014 1.01h-3l3 -3"></path><path d="M14 21l-3 -3"></path><path d="M5 16v-5c0 -1.632 .782 -3.082 1.992 -3.995m3.008 -1.005h3l-3 -3"></path><path d="M11.501 7.499l1.499 -1.499"></path><path d="M3 3l18 18"></path></svg>