<svg stroke="currentColor" fill="none" stroke-width="2" viewBox="0 0 24 24" stroke-linecap="round" stroke-linejoin="round" height="1em" width="1em" xmlns="http://www.w3.org/2000/svg"><desc></desc><path stroke="none" d="M0 0h24v24H0z" fill="none"></path><path d="M17 17h-8a2 2 0 0 1 -2 -2v-8m1.177 -2.823c.251 -.114 .53 -.177 .823 -.177h3l2 2h5a2 2 0 0 1 2 2v7c0 .55 -.223 1.05 -.583 1.411"></path><path d="M17 17v2a2 2 0 0 1 -2 2h-10a2 2 0 0 1 -2 -2v-9a2 2 0 0 1 2 -2h2"></path><path d="M3 3l18 18"></path></svg>