<svg stroke="currentColor" fill="none" stroke-width="2" viewBox="0 0 24 24" stroke-linecap="round" stroke-linejoin="round" height="1em" width="1em" xmlns="http://www.w3.org/2000/svg"><desc></desc><path stroke="none" d="M0 0h24v24H0z" fill="none"></path><path d="M8 8h-3a6 6 0 0 0 6 6h2c.316 0 .626 -.024 .928 -.071m2.792 -1.22a5.99 5.99 0 0 0 2.276 -4.484l.004 -.225h-7"></path><path d="M18.814 18.844a2 2 0 1 1 -2.64 -2.666"></path><path d="M9 14l-3 6"></path><path d="M15 18h-8"></path><path d="M15 5v-1"></path><path d="M12 5v-1"></path><path d="M9 5v-1"></path><path d="M3 3l18 18"></path></svg>