<svg stroke="currentColor" fill="none" stroke-width="2" viewBox="0 0 24 24" stroke-linecap="round" stroke-linejoin="round" height="1em" width="1em" xmlns="http://www.w3.org/2000/svg"><desc></desc><path stroke="none" d="M0 0h24v24H0z" fill="none"></path><path d="M19 8h-14a6 6 0 0 0 6 6h2a6 6 0 0 0 5.996 -5.775l.004 -.225z"></path><path d="M17 20a2 2 0 1 1 0 -4a2 2 0 0 1 0 4z"></path><path d="M15 14l1 2"></path><path d="M9 14l-3 6"></path><path d="M15 18h-8"></path><path d="M15 5v-1"></path><path d="M12 5v-1"></path><path d="M9 5v-1"></path></svg>