<svg stroke="currentColor" fill="none" stroke-width="2" viewBox="0 0 24 24" stroke-linecap="round" stroke-linejoin="round" height="1em" width="1em" xmlns="http://www.w3.org/2000/svg"><desc></desc><path stroke="none" d="M0 0h24v24H0z" fill="none"></path><line x1="3" y1="3" x2="21" y2="21"></line><path d="M19 19a2 2 0 0 1 -2 2h-10a2 2 0 0 1 -2 -2v-6a2 2 0 0 1 2 -2h4m4 0h2a2 2 0 0 1 2 2v2"></path><circle cx="12" cy="16" r="1"></circle><path d="M8 11v-3m.712 -3.278a4 4 0 0 1 7.288 2.278v4"></path></svg>