<svg stroke="currentColor" fill="none" stroke-width="2" viewBox="0 0 24 24" stroke-linecap="round" stroke-linejoin="round" height="1em" width="1em" xmlns="http://www.w3.org/2000/svg"><desc></desc><path stroke="none" d="M0 0h24v24H0z" fill="none"></path><path d="M10 4l2 1l2 -1m-2 -2v6.5l3 1.72"></path><path d="M10 4l2 1l2 -1m-2 -2v6.5l3 1.72" transform="rotate(60 12 12)"></path><path d="M10 4l2 1l2 -1m-2 -2v6.5l3 1.72" transform="rotate(120 12 12)"></path><path d="M10 4l2 1l2 -1m-2 -2v6.5l3 1.72" transform="rotate(180 12 12)"></path><path d="M10 4l2 1l2 -1m-2 -2v6.5l3 1.72" transform="rotate(240 12 12)"></path><path d="M10 4l2 1l2 -1m-2 -2v6.5l3 1.72" transform="rotate(300 12 12)"></path></svg>