<svg stroke="currentColor" fill="none" stroke-width="2" viewBox="0 0 24 24" stroke-linecap="round" stroke-linejoin="round" height="1em" width="1em" xmlns="http://www.w3.org/2000/svg"><desc></desc><path stroke="none" d="M0 0h24v24H0z" fill="none"></path><path d="M17.8 19.817l-2.172 1.138a0.392 .392 0 0 1 -.568 -.41l.415 -2.411l-1.757 -1.707a0.389 .389 0 0 1 .217 -.665l2.428 -.352l1.086 -2.193a0.392 .392 0 0 1 .702 0l1.086 2.193l2.428 .352a0.39 .39 0 0 1 .217 .665l-1.757 1.707l.414 2.41a0.39 .39 0 0 1 -.567 .411l-2.172 -1.138z"></path><path d="M6.2 19.817l-2.172 1.138a0.392 .392 0 0 1 -.568 -.41l.415 -2.411l-1.757 -1.707a0.389 .389 0 0 1 .217 -.665l2.428 -.352l1.086 -2.193a0.392 .392 0 0 1 .702 0l1.086 2.193l2.428 .352a0.39 .39 0 0 1 .217 .665l-1.757 1.707l.414 2.41a0.39 .39 0 0 1 -.567 .411l-2.172 -1.138z"></path><path d="M12 9.817l-2.172 1.138a0.392 .392 0 0 1 -.568 -.41l.415 -2.411l-1.757 -1.707a0.389 .389 0 0 1 .217 -.665l2.428 -.352l1.086 -2.193a0.392 .392 0 0 1 .702 0l1.086 2.193l2.428 .352a0.39 .39 0 0 1 .217 .665l-1.757 1.707l.414 2.41a0.39 .39 0 0 1 -.567 .411l-2.172 -1.138z"></path></svg>