<svg stroke="currentColor" fill="none" stroke-width="2" viewBox="0 0 24 24" stroke-linecap="round" stroke-linejoin="round" height="1em" width="1em" xmlns="http://www.w3.org/2000/svg"><desc></desc><path stroke="none" d="M0 0h24v24H0z" fill="none"></path><path d="M6 6h-.975a2.025 2.025 0 0 0 -2.025 2.025v2.834c0 .537 .213 1.052 .593 1.432l6.116 6.116a2.025 2.025 0 0 0 2.864 0l2.834 -2.834c.028 -.028 .055 -.056 .08 -.085"></path><path d="M17.573 18.407l.418 -.418m1.997 -1.997l.419 -.419a2.025 2.025 0 0 0 0 -2.864l-7.117 -7.116"></path><path d="M6 9h-.01"></path><path d="M3 3l18 18"></path></svg>