<svg stroke="currentColor" fill="none" stroke-width="2" viewBox="0 0 24 24" stroke-linecap="round" stroke-linejoin="round" height="1em" width="1em" xmlns="http://www.w3.org/2000/svg"><desc></desc><path stroke="none" d="M0 0h24v24H0z" fill="none"></path><line x1="15" y1="5" x2="15" y2="7"></line><line x1="15" y1="11" x2="15" y2="13"></line><line x1="15" y1="17" x2="15" y2="19"></line><path d="M5 5h14a2 2 0 0 1 2 2v3a2 2 0 0 0 0 4v3a2 2 0 0 1 -2 2h-14a2 2 0 0 1 -2 -2v-3a2 2 0 0 0 0 -4v-3a2 2 0 0 1 2 -2"></path></svg>