<svg width="179" height="101" viewBox="0 0 179 101" fill="none" xmlns="http://www.w3.org/2000/svg">
<path d="M170.5 0.393066H8.5C4.08172 0.393066 0.5 3.97479 0.5 8.39307V92.3931C0.5 96.8113 4.08172 100.393 8.5 100.393H170.5C174.918 100.393 178.5 96.8113 178.5 92.3931V8.39307C178.5 3.97479 174.918 0.393066 170.5 0.393066Z" fill="white" fill-opacity="0.1"/>
<path d="M87.8972 48.6958H21.8972C20.7926 48.6958 19.8972 49.5912 19.8972 50.6958V54.6958C19.8972 55.8004 20.7926 56.6958 21.8972 56.6958H87.8972C89.0018 56.6958 89.8972 55.8004 89.8972 54.6958V50.6958C89.8972 49.5912 89.0018 48.6958 87.8972 48.6958Z" fill="white" fill-opacity="0.1"/>
<path d="M87.8972 60.6958H21.8972C20.7926 60.6958 19.8972 61.5912 19.8972 62.6958V66.6958C19.8972 67.8004 20.7926 68.6958 21.8972 68.6958H87.8972C89.0018 68.6958 89.8972 67.8004 89.8972 66.6958V62.6958C89.8972 61.5912 89.0018 60.6958 87.8972 60.6958Z" fill="white" fill-opacity="0.1"/>
<path d="M154.5 36.6958H102.501C100.292 36.6958 98.501 38.4867 98.501 40.6958V76.6958C98.501 78.9049 100.292 80.6958 102.501 80.6958H154.5C156.709 80.6958 158.5 78.9049 158.5 76.6958V40.6958C158.5 38.4867 156.709 36.6958 154.5 36.6958Z" fill="white" fill-opacity="0.1"/>
<path d="M87.8972 36.6958H21.8972C20.7926 36.6958 19.8972 37.5912 19.8972 38.6958V42.6958C19.8972 43.8004 20.7926 44.6958 21.8972 44.6958H87.8972C89.0018 44.6958 89.8972 43.8004 89.8972 42.6958V38.6958C89.8972 37.5912 89.0018 36.6958 87.8972 36.6958Z" fill="white" fill-opacity="0.1"/>
<path d="M34.8972 19.252C34.8972 15.1098 31.5394 11.752 27.3972 11.752C23.2551 11.752 19.8972 15.1098 19.8972 19.252C19.8972 23.3941 23.2551 26.752 27.3972 26.752C31.5394 26.752 34.8972 23.3941 34.8972 19.252Z" fill="white" fill-opacity="0.1"/>
</svg>
