<svg id="uuid-dd2dfe50-134a-4efb-8883-e00d814f299e" xmlns="http://www.w3.org/2000/svg" width="52.434" height="44.65" viewBox="0 0 52.434 44.65"><defs><linearGradient id="uuid-4341b8fa-1830-4a69-b366-e5af3eded21e" x1="35.748" y1="36.748" x2="35.748" y2="16.489" gradientUnits="userSpaceOnUse"><stop offset="0" stop-color="#225086" /><stop offset="1" stop-color="#0055c5" /></linearGradient><linearGradient id="uuid-1f2904ff-dfd7-45a0-a9a2-fa901698fa56" x1="35.848" y1="18.715" x2="35.848" y2="0" gradientUnits="userSpaceOnUse"><stop offset="0" stop-color="#225086" /><stop offset="1" stop-color="#0055c5" /></linearGradient><linearGradient id="uuid-382247db-ae3e-44c4-8654-9aeb983b6f19" x1="14.586" y1="44.65" x2="14.586" y2="24.39" gradientUnits="userSpaceOnUse"><stop offset="0" stop-color="#0294e4" /><stop offset="1" stop-color="#6df" /></linearGradient><linearGradient id="uuid-93c9aead-656a-41e2-9860-cd306c03ea8f" x1="16.781" y1="26.616" x2="16.781" y2="7.901" gradientUnits="userSpaceOnUse"><stop offset="0" stop-color="#0294e4" /><stop offset="1" stop-color="#6df" /></linearGradient></defs><g><g><path d="M22.752,36.543l5.759-5.773c.389-.39.906-.605,1.457-.605s1.064.213,1.453.601c.386.385.606.918.604,1.457v2.098h.049l12.12-.014v-2.095c-.003-1.134.918-2.059,2.052-2.063h.005c.55,0,1.066.214,1.454.602l4.406,4.401c.191-.383.31-.808.317-1.265,0-.031,0-.061,0-.092v-.363c-1.181-9.312-6.496-16.943-16.671-16.943s-15.671,6.45-16.671,16.989c-.184,1.62.98,3.083,2.601,3.267.011.001.023.003.034.004h.864c.055-.069.103-.141.166-.205Z" fill="url(#uuid-4341b8fa-1830-4a69-b366-e5af3eded21e)" stroke-width="0" /><path d="M35.894,18.715c-1.792.008-3.546-.513-5.042-1.499l4.997,13.309,4.997-13.037c-1.499.873-3.218,1.299-4.951,1.226Z" fill="#fff" isolation="isolate" opacity=".8" stroke-width="0" /><circle cx="35.848" cy="9.357" r="9.357" fill="url(#uuid-1f2904ff-dfd7-45a0-a9a2-fa901698fa56)" stroke-width="0" /></g><g><path d="M22.748,39.979c-.938-.946-.938-2.486.004-3.436l5.759-5.773c.193-.193.418-.343.662-.446-2.777-3.621-6.891-5.934-12.482-5.934C6.515,24.39,1.018,30.841.019,41.379c-.184,1.62.98,3.083,2.601,3.267.011.001.023.003.034.004h24.76l-4.665-4.671Z" fill="url(#uuid-382247db-ae3e-44c4-8654-9aeb983b6f19)" stroke-width="0" /><path d="M16.826,26.616c-1.792.008-3.546-.513-5.042-1.499l4.997,13.309,4.997-13.037c-1.499.873-3.218,1.299-4.951,1.226Z" fill="#fff" isolation="isolate" opacity=".8" stroke-width="0" /><circle cx="16.781" cy="17.259" r="9.357" fill="url(#uuid-93c9aead-656a-41e2-9860-cd306c03ea8f)" stroke-width="0" /></g><path d="M52.235,37.748l-5.766-5.759h0c-.058-.058-.137-.091-.219-.09-.17,0-.307.138-.307.308v3.54h0c0,.17-.138.307-.307.307l-13.561.016c-.013,0-.024.005-.036.007h-1.457c-.17,0-.307-.138-.307-.307v-3.547c0-.082-.032-.161-.09-.219-.12-.12-.315-.12-.435,0l-5.759,5.774c-.266.268-.266.7,0,.968l5.759,5.766h0c.06.065.144.1.232.098.17-.004.304-.144.301-.314v-3.557c0-.17.137-.307.307-.307h1.438c.016.003.031.01.048.01l13.561-.016h0c.17,0,.307.138.307.307v3.53c0,.082.032.161.09.218.12.12.315.12.435,0l5.766-5.766c.266-.268.266-.7,0-.968Z" fill="#6df" stroke-width="0" /></g></svg>