<svg class="svg-icon" style="width: 1em;height: 1em;vertical-align: middle;fill: currentColor;overflow: hidden;" viewBox="0 0 1024 1024" version="1.1" xmlns="http://www.w3.org/2000/svg"><path d="M137.90246 0.00041a48.573421 48.573421 0 0 0-35.589106 15.293433A53.964778 53.964778 0 0 0 87.0404 50.934149V968.345622a48.706541 48.706541 0 0 0 15.272954 35.640306 49.97118 49.97118 0 0 0 35.589106 15.293434h746.336982a48.639981 48.639981 0 0 0 35.589105-15.293434 50.37054 50.37054 0 0 0 15.272954-35.640306V288.717094L646.727857 0.00041H137.90246z" fill="#5ACC9B" /><path d="M935.101501 288.717094h-237.445025c-27.822069-0.6656-50.22718-23.075831-50.928619-50.93374V0.00041l288.373644 288.716684z" fill="#BDEBD7" /><path d="M499.184876 692.992132a19.046392 19.046392 0 0 0 11.888635 5.058558 16.855033 16.855033 0 0 0 11.878395-5.053438l150.93242-144.358342a7.920637 7.920637 0 0 0 1.725439-9.374716 8.232957 8.232957 0 0 0-7.633917-5.119998H578.933964V389.852414a17.341433 17.341433 0 0 0-16.998394-16.957434H460.206331a17.341433 17.341433 0 0 0-16.998393 16.957434v144.291782h-89.036764a7.439357 7.439357 0 0 0-7.639037 5.119998 9.251836 9.251836 0 0 0 1.725439 9.369596l150.9273 144.363462z m223.89751 70.487012H299.059516a16.993273 16.993273 0 0 0-15.600634 8.171517 17.044473 17.044473 0 0 0 0 17.633273 16.993273 16.993273 0 0 0 15.600634 8.171517h424.03311a17.013753 17.013753 0 0 0 15.933434-16.988154 17.013753 17.013753 0 0 0-15.933434-16.988153z" fill="#FFFFFF" /></svg>