<svg class="svg-icon" style="width: 1em;height: 1em;vertical-align: middle;fill: currentColor;overflow: hidden;" viewBox="0 0 1024 1024" version="1.1" xmlns="http://www.w3.org/2000/svg"><path d="M594.944 0l335.12448 341.31968v563.2c0 65.9968-52.50048 119.48032-117.29408 119.48032H209.54624c-64.7936 0-117.2992-53.5296-117.2992-119.48032V119.48032C92.25216 53.48352 144.75776 0 209.55136 0H594.944z" fill="#FD7541" /><path d="M930.06848 341.31968h-211.9168c-64.74752 0-123.20768-59.48928-123.20768-125.4912V0l335.12448 341.31968z" fill="#FFFFFF" fill-opacity=".4" /><path d="M415.27808 451.44576c-85.83168 0-155.37152 70.84032-155.37152 158.208 0 87.36256 69.58592 158.208 155.37152 158.208 85.78048 0 155.3664-70.84544 155.3664-158.2592H415.2832v-158.1568z" fill="#FFFFFF" opacity=".4" /><path d="M439.48032 426.7264v158.2592h155.32032c0-87.41376-69.53984-158.2592-155.3664-158.2592h0.04608z" fill="#FFFFFF" /></svg>