<svg class="svg-icon" style="width: 1em;height: 1em;vertical-align: middle;fill: currentColor;overflow: hidden;" viewBox="0 0 1024 1024" version="1.1" xmlns="http://www.w3.org/2000/svg"><path d="M594.944 0l335.12448 341.31968v563.2c0 65.9968-52.50048 119.48032-117.29408 119.48032H209.54624c-64.7936 0-117.2992-53.5296-117.2992-119.48032V119.48032C92.25216 53.48352 144.75776 0 209.55136 0H594.944z" fill="#627CFE" /><path d="M930.06848 341.31968h-211.9168c-64.74752 0-123.20768-59.48928-123.20768-125.4912V0l335.12448 341.31968z" fill="#FFFFFF" fill-opacity=".4" /><path d="M519.68 606.62784v66.42176l120.832 73.40032v-213.0432z" fill="#FFFFFF" opacity=".99" /><path d="M534.528 512.13824H282.25024a22.48192 22.48192 0 0 0-22.2976 22.62016v210.52928c0 12.38016 9.91744 22.66624 22.25152 22.66624h252.50816a22.48192 22.48192 0 0 0 22.25152-22.66624v-210.7136a22.62016 22.62016 0 0 0-22.43584-22.43584zM356.2496 719.36v-158.81216L483.328 639.9488 356.2496 719.36z" fill="#FFFFFF" opacity=".99" /></svg>