<svg xmlns="http://www.w3.org/2000/svg" viewBox="0 0 256 256"><rect width="256" height="256" fill="none"/><rect x="48" y="40" width="64" height="176" rx="8" fill="none" stroke="currentColor" stroke-linecap="round" stroke-linejoin="round" stroke-width="8"/><path d="M217.67,205.77l-46.81,10a8,8,0,0,1-9.5-6.21L128.18,51.8a8.07,8.07,0,0,1,6.15-9.57l46.81-10a8,8,0,0,1,9.5,6.21L223.82,196.2A8.07,8.07,0,0,1,217.67,205.77Z" fill="none" stroke="currentColor" stroke-linecap="round" stroke-linejoin="round" stroke-width="8"/><line x1="48" y1="72" x2="112" y2="72" fill="none" stroke="currentColor" stroke-linecap="round" stroke-linejoin="round" stroke-width="8"/><line x1="48" y1="184" x2="112" y2="184" fill="none" stroke="currentColor" stroke-linecap="round" stroke-linejoin="round" stroke-width="8"/><line x1="133.16" y1="75.48" x2="195.61" y2="62.06" fill="none" stroke="currentColor" stroke-linecap="round" stroke-linejoin="round" stroke-width="8"/><line x1="139.79" y1="107.04" x2="202.25" y2="93.62" fill="none" stroke="currentColor" stroke-linecap="round" stroke-linejoin="round" stroke-width="8"/><line x1="156.39" y1="185.94" x2="218.84" y2="172.52" fill="none" stroke="currentColor" stroke-linecap="round" stroke-linejoin="round" stroke-width="8"/></svg>