<svg xmlns="http://www.w3.org/2000/svg" viewBox="0 0 256 256"><rect width="256" height="256" fill="none"/><path d="M50.69,184.92A127.52,127.52,0,0,0,64,128a63.85,63.85,0,0,1,24-50" fill="none" stroke="currentColor" stroke-linecap="round" stroke-linejoin="round" stroke-width="8"/><path d="M128,128a191.11,191.11,0,0,1-24,93" fill="none" stroke="currentColor" stroke-linecap="round" stroke-linejoin="round" stroke-width="8"/><path d="M96,128a32,32,0,0,1,64,0,223.12,223.12,0,0,1-21.28,95.41" fill="none" stroke="currentColor" stroke-linecap="round" stroke-linejoin="round" stroke-width="8"/><path d="M218.56,184A289.45,289.45,0,0,0,224,128a96,96,0,0,0-192,0,95.8,95.8,0,0,1-5.47,32" fill="none" stroke="currentColor" stroke-linecap="round" stroke-linejoin="round" stroke-width="8"/><path d="M92.81,160a158.92,158.92,0,0,1-18.12,47.84" fill="none" stroke="currentColor" stroke-linecap="round" stroke-linejoin="round" stroke-width="8"/><path d="M120,64.5a66,66,0,0,1,8-.49,64,64,0,0,1,64,64,259.86,259.86,0,0,1-2,32" fill="none" stroke="currentColor" stroke-linecap="round" stroke-linejoin="round" stroke-width="8"/><path d="M183.94,192q-2.28,8.88-5.18,17.5" fill="none" stroke="currentColor" stroke-linecap="round" stroke-linejoin="round" stroke-width="8"/></svg>