<svg xmlns="http://www.w3.org/2000/svg" viewBox="0 0 256 256"><rect width="256" height="256" fill="none"/><path d="M200,112v88.89a7.11,7.11,0,0,1-7.11,7.11H40a8,8,0,0,1-8-8V88a8,8,0,0,1,8-8H85.33a8,8,0,0,1,4.8,1.6l27.74,20.8a8,8,0,0,0,4.8,1.6H192A8,8,0,0,1,200,112Z" fill="none" stroke="currentColor" stroke-linecap="round" stroke-linejoin="round" stroke-width="8"/><path d="M64,80V56a8,8,0,0,1,8-8h45.33a8,8,0,0,1,4.8,1.6l27.74,20.8a8,8,0,0,0,4.8,1.6H224a8,8,0,0,1,8,8v88.89a7.11,7.11,0,0,1-7.11,7.11H200" fill="none" stroke="currentColor" stroke-linecap="round" stroke-linejoin="round" stroke-width="8"/></svg>