<svg xmlns="http://www.w3.org/2000/svg" viewBox="0 0 256 256"><rect width="256" height="256" fill="none"/><path d="M48.07,96a8,8,0,0,1-7.89-9.72C46.68,55.55,83.52,32,128,32s81.32,23.55,87.82,54.28A8,8,0,0,1,207.93,96Z" fill="none" stroke="currentColor" stroke-linecap="round" stroke-linejoin="round" stroke-width="8"/><polyline points="24 176 68 160 108 176 148 160 188 176 232 160" fill="none" stroke="currentColor" stroke-linecap="round" stroke-linejoin="round" stroke-width="8"/><line x1="24" y1="128" x2="232" y2="128" fill="none" stroke="currentColor" stroke-linecap="round" stroke-linejoin="round" stroke-width="8"/><path d="M208,168.73V184a32,32,0,0,1-32,32H80a32,32,0,0,1-32-32V167.27" fill="none" stroke="currentColor" stroke-linecap="round" stroke-linejoin="round" stroke-width="8"/></svg>