<svg xmlns="http://www.w3.org/2000/svg" viewBox="0 0 256 256"><rect width="256" height="256" fill="none"/><path d="M216,93.53l8.7.75a8,8,0,0,1,4.54,14.07L224,112.92" fill="none" stroke="currentColor" stroke-linecap="round" stroke-linejoin="round" stroke-width="8"/><path d="M192,140.84l-7.87,6.86a8.08,8.08,0,0,0-2.54,7.89L184.45,168" fill="none" stroke="currentColor" stroke-linecap="round" stroke-linejoin="round" stroke-width="8"/><path d="M144,199l-11.88-7.21a7.93,7.93,0,0,0-8.24,0l-51.1,31a8,8,0,0,1-11.89-8.69l13.52-58.54a8.08,8.08,0,0,0-2.54-7.89L26.76,108.35A8,8,0,0,1,31.3,94.28l59.46-5.14a8,8,0,0,0,6.67-4.88L120.66,28.9a8,8,0,0,1,14.68,0l23.23,55.36a8,8,0,0,0,6.67,4.88l10.76.93" fill="none" stroke="currentColor" stroke-linecap="round" stroke-linejoin="round" stroke-width="8"/><path d="M191.84,200l3.27,14.13a8,8,0,0,1-11.89,8.69L172,216" fill="none" stroke="currentColor" stroke-linecap="round" stroke-linejoin="round" stroke-width="8"/><line x1="128" y1="24" x2="128" y2="190.63" fill="none" stroke="currentColor" stroke-linecap="round" stroke-linejoin="round" stroke-width="8"/></svg>