<?xml version="1.0" encoding="UTF-8"?>
<svg id="Layer_1" data-name="Layer 1" xmlns="http://www.w3.org/2000/svg" viewBox="0 0 100 50">
  <defs>
    <style>
      .cls-1 {
        fill: #b7804e;
      }

      .cls-1, .cls-2, .cls-3 {
        stroke-width: 0px;
      }

      .cls-2 {
        fill: #321912;
      }

      .cls-3 {
        fill: #603424;
      }
    </style>
  </defs>
  <path class="cls-1" d="M47.66,27.97c17.55-16.22,48.95-11.74,48.95-11.74,0,0-27.99-8.85-54.97,3.63-19.12,8.85-11.09,22.33-9.88,22.59,8.33,1.78,16.22,1.79,16.22,1.79,0,0-11.04-6.37-.32-16.28Z"/>
  <path class="cls-3" d="M32.8,13.5c-25.21,7.35-15.14,25.19-14.45,25.45,6.25,2.46,15.79,3.95,15.79,3.95,0,0-10.16-12.93,6.11-21.22,27.09-13.81,56.62-5.34,56.62-5.34,0,0-16.27-16.8-64.07-2.85Z"/>
  <path class="cls-2" d="M32.73,6.71C15.77,9.28.34,18.08,3.9,27.26c3.37,8.68,16.39,12.36,16.39,12.36,0,0-10.46-15.35,12.84-24.92,28.81-11.82,63.87,1.7,63.87,1.7,0,0-18.75-16.6-64.27-9.7Z"/>
</svg>