<svg xmlns="http://www.w3.org/2000/svg" viewBox="0 0 256 256"><rect width="256" height="256" fill="none"/><path d="M235.5,216.81c-22.56-11-35.5-34.58-35.5-64.8V134.73a15.94,15.94,0,0,0-10.09-14.87L165,110a8,8,0,0,1-4.48-10.34l21.32-53a28,28,0,0,0-16.1-37,28.14,28.14,0,0,0-35.82,16,.61.61,0,0,0,0,.12L108.9,79a8,8,0,0,1-10.37,4.49L73.11,73.14A15.89,15.89,0,0,0,55.74,76.8C34.68,98.45,24,123.75,24,152a111.45,111.45,0,0,0,31.18,77.53A8,8,0,0,0,61,232H232a8,8,0,0,0,3.5-15.19ZM115.11,216a87.53,87.53,0,0,1-24.34-42,8,8,0,0,0-15.49,4,105.16,105.16,0,0,0,18.36,38H64.44A95.54,95.54,0,0,1,40,152a85.9,85.9,0,0,1,7.73-36.29l137.8,55.12c3,18,10.56,33.48,21.89,45.16Z"/></svg>