<svg xmlns="http://www.w3.org/2000/svg" viewBox="0 0 256 256"><rect width="256" height="256" fill="none"/><path d="M243.84,76.19a12.08,12.08,0,0,0-13.34-1.7l-50.21,25L138.37,29.86a12.11,12.11,0,0,0-20.74,0L75.71,99.52l-50.19-25A12.11,12.11,0,0,0,8.62,89.12l37,113.36a8,8,0,0,0,11.68,4.4C57.55,206.73,83.12,192,128,192s70.45,14.73,70.68,14.87a8,8,0,0,0,11.71-4.39l37-113.33A12.06,12.06,0,0,0,243.84,76.19Zm-68,80.61a8,8,0,0,1-7.87,6.61,8.36,8.36,0,0,1-1.4-.12,228.2,228.2,0,0,0-77.22,0,8,8,0,0,1-2.78-15.76,244.42,244.42,0,0,1,82.78,0A8,8,0,0,1,175.88,156.8Z"/></svg>