<svg xmlns="http://www.w3.org/2000/svg" viewBox="0 0 256 256"><rect width="256" height="256" fill="none"/><path d="M184,144H168a8,8,0,0,0-8,8v56a8,8,0,0,0,16,0v-8h8a28,28,0,0,0,0-56Zm0,40h-8V160h8a12,12,0,0,1,0,24Zm-48-32v56a8,8,0,0,1-16,0V152a8,8,0,0,1,16,0ZM96,208a8,8,0,0,1-8,8H56a8,8,0,0,1-7-12l25.16-44H56a8,8,0,0,1,0-16H88a8,8,0,0,1,7,12L69.79,200H88A8,8,0,0,1,96,208ZM213.66,82.34l-56-56A8,8,0,0,0,152,24H56A16,16,0,0,0,40,40v72a8,8,0,0,0,8,8H208a8,8,0,0,0,8-8V88A8,8,0,0,0,213.66,82.34ZM152,88V44l44,44Z"/></svg>