<svg xmlns="http://www.w3.org/2000/svg" viewBox="0 0 256 256"><rect width="256" height="256" fill="none"/><path d="M48,120H208a8,8,0,0,0,8-8V88a8,8,0,0,0-2.34-5.66l-56-56A8,8,0,0,0,152,24H56A16,16,0,0,0,40,40v72A8,8,0,0,0,48,120ZM152,44l44,44H152ZM52,144H36a8,8,0,0,0-8,8v56a8,8,0,0,0,8,8H52a36,36,0,0,0,0-72Zm0,56H44V160h8a20,20,0,0,1,0,40Zm169.53-4.91a8,8,0,0,1,.25,11.31A30.06,30.06,0,0,1,200,216c-17.65,0-32-16.15-32-36s14.35-36,32-36a30.06,30.06,0,0,1,21.78,9.6,8,8,0,0,1-11.56,11.06A14.18,14.18,0,0,0,200,160c-8.82,0-16,9-16,20s7.18,20,16,20a14.24,14.24,0,0,0,10.22-4.66A8,8,0,0,1,221.53,195.09ZM128,144c-17.64,0-32,16.15-32,36s14.36,36,32,36,32-16.15,32-36S145.64,144,128,144Zm0,56c-8.82,0-16-9-16-20s7.18-20,16-20,16,9,16,20S136.82,200,128,200Z"/></svg>