<svg xmlns="http://www.w3.org/2000/svg" viewBox="0 0 256 256"><rect width="256" height="256" fill="none"/><path d="M216,40H40A16,16,0,0,0,24,56V200a16,16,0,0,0,16,16H216a16,16,0,0,0,16-16V56A16,16,0,0,0,216,40ZM195.58,175.16c-.72.36-17.89,8.84-35.58,8.84-17.89,0-27.29-4.7-35.58-8.84C116.74,171.32,110.11,168,96,168c-13.84,0-28.29,7.09-28.43,7.16a8,8,0,0,1-7.15-14.32C61.14,160.48,78.31,152,96,152c17.89,0,27.29,4.7,35.58,8.84,7.68,3.84,14.31,7.16,28.42,7.16,13.84,0,28.29-7.09,28.43-7.16a8,8,0,0,1,7.15,14.32Zm0-40c-.72.36-17.89,8.84-35.58,8.84-17.89,0-27.29-4.7-35.58-8.84C116.74,131.32,110.11,128,96,128c-13.84,0-28.29,7.09-28.43,7.16a8,8,0,0,1-7.15-14.32C61.14,120.48,78.31,112,96,112c17.89,0,27.29,4.7,35.58,8.84,7.68,3.84,14.31,7.16,28.42,7.16,13.84,0,28.29-7.09,28.43-7.16a8,8,0,0,1,7.15,14.32Zm0-40c-.72.36-17.89,8.84-35.58,8.84-17.89,0-27.29-4.7-35.58-8.84C116.74,91.32,110.11,88,96,88c-13.84,0-28.29,7.09-28.43,7.16a8,8,0,0,1-7.15-14.32C61.14,80.48,78.31,72,96,72c17.89,0,27.29,4.7,35.58,8.84C139.26,84.68,145.89,88,160,88c13.84,0,28.29-7.09,28.43-7.16a8,8,0,0,1,7.15,14.32Z"/></svg>