<svg width="28" height="28" viewBox="0 0 28 28" fill="none" xmlns="http://www.w3.org/2000/svg">
<path d="M13.9912 22.7422C18.9746 22.7422 23.0879 18.6289 23.0879 13.6543C23.0879 8.67969 18.9658 4.56641 13.9824 4.56641C9.00781 4.56641 4.90332 8.67969 4.90332 13.6543C4.90332 18.6289 9.0166 22.7422 13.9912 22.7422ZM13.9912 20.9316C9.95703 20.9316 6.73145 17.6885 6.73145 13.6543C6.73145 9.62012 9.95703 6.38574 13.9824 6.38574C18.0166 6.38574 21.2598 9.62012 21.2686 13.6543C21.2773 17.6885 18.0254 20.9316 13.9912 20.9316ZM11.0293 17.3545C12.4971 17.3545 13.4902 16.001 13.4902 13.6631C13.4902 11.3164 12.4971 9.96289 11.0293 9.96289C9.55273 9.96289 8.57715 11.3164 8.57715 13.6631C8.57715 16.001 9.55273 17.3545 11.0293 17.3545ZM16.9268 17.3545C18.3945 17.3545 19.3877 16.001 19.3877 13.6631C19.3877 11.3164 18.3945 9.96289 16.9268 9.96289C15.459 9.96289 14.4834 11.3164 14.4834 13.6631C14.4834 16.001 15.459 17.3545 16.9268 17.3545ZM11.0381 16.168C10.3086 16.168 9.84277 15.2627 9.84277 13.6631C9.84277 12.0547 10.3086 11.1582 11.0381 11.1582C11.7676 11.1582 12.2246 12.0547 12.2246 13.6631C12.2246 15.2627 11.7676 16.168 11.0381 16.168ZM16.9355 16.168C16.2061 16.168 15.749 15.2627 15.749 13.6631C15.749 12.0547 16.2061 11.1582 16.9355 11.1582C17.665 11.1582 18.1221 12.0547 18.1221 13.6631C18.1221 15.2627 17.6738 16.168 16.9355 16.168Z" fill="#1C1C1E"/>
</svg>
