<svg width="28" height="28" viewBox="0 0 28 28" fill="none" xmlns="http://www.w3.org/2000/svg">
<path d="M13.9912 22.7422C18.9746 22.7422 23.0879 18.6289 23.0879 13.6543C23.0879 8.67969 18.9658 4.56641 13.9824 4.56641C9.00781 4.56641 4.90332 8.67969 4.90332 13.6543C4.90332 18.6289 9.0166 22.7422 13.9912 22.7422ZM10.915 17.4951C9.38574 17.4951 8.36621 16.0977 8.36621 13.6543C8.36621 11.2109 9.38574 9.81348 10.915 9.81348C12.4443 9.81348 13.4727 11.2109 13.4727 13.6543C13.4727 16.0977 12.4443 17.4951 10.915 17.4951ZM17.041 17.4951C15.5117 17.4951 14.501 16.0977 14.501 13.6543C14.501 11.2109 15.5117 9.81348 17.041 9.81348C18.5703 9.81348 19.5986 11.2109 19.5986 13.6543C19.5986 16.0977 18.5703 17.4951 17.041 17.4951ZM10.915 16.2471C11.6797 16.2471 12.1367 15.3154 12.1367 13.6543C12.1367 11.9932 11.6709 11.0615 10.915 11.0615C10.1592 11.0615 9.69336 11.9932 9.69336 13.6543C9.69336 15.3154 10.1592 16.2471 10.915 16.2471ZM17.0498 16.2471C17.8145 16.2471 18.2715 15.3154 18.2715 13.6543C18.2715 11.9932 17.8057 11.0615 17.0498 11.0615C16.2939 11.0615 15.8281 11.9932 15.8281 13.6543C15.8281 15.3154 16.2939 16.2471 17.0498 16.2471Z" fill="#1C1C1E"/>
</svg>
