<svg width="28" height="28" viewBox="0 0 28 28" fill="none" xmlns="http://www.w3.org/2000/svg">
<path d="M8.67383 21.8809H19.3174C21.2246 21.8809 22.209 20.8965 22.209 19.0156V8.31934C22.209 6.43848 21.2246 5.4541 19.3174 5.4541H8.67383C6.77539 5.4541 5.78223 6.42969 5.78223 8.31934V19.0156C5.78223 20.8965 6.77539 21.8809 8.67383 21.8809ZM10.9502 17.4951C9.4209 17.4951 8.40137 16.0977 8.40137 13.6543C8.40137 11.2109 9.4209 9.81348 10.9502 9.81348C12.4795 9.81348 13.5078 11.2109 13.5078 13.6543C13.5078 16.0977 12.4795 17.4951 10.9502 17.4951ZM17.0762 17.4951C15.5469 17.4951 14.5361 16.0977 14.5361 13.6543C14.5361 11.2109 15.5469 9.81348 17.0762 9.81348C18.6055 9.81348 19.6338 11.2109 19.6338 13.6543C19.6338 16.0977 18.6055 17.4951 17.0762 17.4951ZM10.9502 16.2471C11.7148 16.2471 12.1719 15.3154 12.1719 13.6543C12.1719 11.9932 11.7061 11.0615 10.9502 11.0615C10.2031 11.0615 9.72852 11.9932 9.72852 13.6543C9.72852 15.3154 10.2031 16.2471 10.9502 16.2471ZM17.085 16.2471C17.8496 16.2471 18.3066 15.3154 18.3066 13.6543C18.3066 11.9932 17.8408 11.0615 17.085 11.0615C16.3291 11.0615 15.8633 11.9932 15.8633 13.6543C15.8633 15.3154 16.3291 16.2471 17.085 16.2471Z" fill="#1C1C1E"/>
</svg>
