<svg width="28" height="28" viewBox="0 0 28 28" fill="none" xmlns="http://www.w3.org/2000/svg">
<path d="M13.9912 22.7422C18.9746 22.7422 23.0879 18.6289 23.0879 13.6543C23.0879 8.67969 18.9658 4.56641 13.9824 4.56641C9.00781 4.56641 4.90332 8.67969 4.90332 13.6543C4.90332 18.6289 9.0166 22.7422 13.9912 22.7422ZM11.5918 17.4951C10.0625 17.4951 9.05176 16.0977 9.05176 13.6543C9.05176 11.2109 10.0625 9.81348 11.5918 9.81348C13.1211 9.81348 14.1494 11.2109 14.1494 13.6543C14.1494 16.0977 13.1211 17.4951 11.5918 17.4951ZM17.7969 17.4072C17.4014 17.4072 17.1641 17.1523 17.1641 16.7217V11.4658H17.1113L16.2764 12.1162C16.0654 12.292 15.96 12.3271 15.7754 12.3271C15.4854 12.3271 15.2129 12.0635 15.2129 11.7383C15.2129 11.4834 15.3359 11.2988 15.5557 11.123L16.8213 10.2178C17.1729 9.9541 17.3838 9.86621 17.6914 9.86621C18.1572 9.86621 18.4473 10.165 18.4473 10.6309V16.7217C18.4473 17.1523 18.2012 17.4072 17.7969 17.4072ZM11.6006 16.2471C12.3564 16.2471 12.8311 15.3154 12.8311 13.6543C12.8311 11.9932 12.3564 11.0615 11.6006 11.0615C10.8535 11.0615 10.3789 11.9932 10.3789 13.6543C10.3789 15.3154 10.8535 16.2471 11.6006 16.2471Z" fill="#1C1C1E"/>
</svg>
