<svg width="28" height="28" viewBox="0 0 28 28" fill="none" xmlns="http://www.w3.org/2000/svg">
<path d="M8.67383 21.8809H19.3174C21.2246 21.8809 22.209 20.8965 22.209 19.0156V8.31934C22.209 6.43848 21.2246 5.4541 19.3174 5.4541H8.67383C6.77539 5.4541 5.78223 6.42969 5.78223 8.31934V19.0156C5.78223 20.8965 6.77539 21.8809 8.67383 21.8809ZM11.627 17.4951C10.0977 17.4951 9.08691 16.0977 9.08691 13.6543C9.08691 11.2109 10.0977 9.81348 11.627 9.81348C13.1562 9.81348 14.1846 11.2109 14.1846 13.6543C14.1846 16.0977 13.1562 17.4951 11.627 17.4951ZM17.832 17.4072C17.4365 17.4072 17.1992 17.1523 17.1992 16.7217V11.4658H17.1465L16.3115 12.1162C16.1006 12.292 15.9951 12.3271 15.8105 12.3271C15.5205 12.3271 15.248 12.0635 15.248 11.7383C15.248 11.4834 15.3711 11.2988 15.5908 11.123L16.8564 10.2178C17.208 9.9541 17.4189 9.86621 17.7266 9.86621C18.1924 9.86621 18.4824 10.165 18.4824 10.6309V16.7217C18.4824 17.1523 18.2363 17.4072 17.832 17.4072ZM11.6357 16.2471C12.4004 16.2471 12.8662 15.3154 12.8662 13.6543C12.8662 11.9932 12.3916 11.0615 11.6357 11.0615C10.8887 11.0615 10.4141 11.9932 10.4141 13.6543C10.4141 15.3154 10.8887 16.2471 11.6357 16.2471Z" fill="#1C1C1E"/>
</svg>
