<svg width="28" height="28" viewBox="0 0 28 28" fill="none" xmlns="http://www.w3.org/2000/svg">
<path d="M8.67383 21.8809H19.3174C21.2246 21.8809 22.209 20.8965 22.209 19.0156V8.31934C22.209 6.43848 21.2246 5.4541 19.3174 5.4541H8.67383C6.77539 5.4541 5.78223 6.42969 5.78223 8.31934V19.0156C5.78223 20.8965 6.77539 21.8809 8.67383 21.8809ZM8.78809 20.1318C7.97949 20.1318 7.53125 19.71 7.53125 18.8574V8.47754C7.53125 7.625 7.97949 7.20312 8.78809 7.20312H19.2031C20.0029 7.20312 20.46 7.625 20.46 8.47754V18.8574C20.46 19.71 20.0029 20.1318 19.2031 20.1318H8.78809ZM11.1348 17.3457C12.6025 17.3457 13.5957 15.9922 13.5957 13.6543C13.5957 11.3076 12.6025 9.96289 11.1348 9.96289C9.66699 9.96289 8.69141 11.3076 8.69141 13.6543C8.69141 15.9922 9.66699 17.3457 11.1348 17.3457ZM16.874 17.3457C18.3418 17.3457 19.3525 16.4756 19.3525 15.2275C19.3525 14.3223 18.7461 13.584 17.8936 13.5049V13.4521C18.5967 13.3291 19.1416 12.626 19.1416 11.835C19.1416 10.7275 18.2363 9.96289 16.918 9.96289C15.7578 9.96289 14.9141 10.6309 14.6943 11.4131C14.6592 11.5449 14.6504 11.6416 14.6504 11.7734C14.6504 12.1162 14.8701 12.3447 15.1865 12.3447C15.4678 12.3447 15.6172 12.2041 15.7227 11.9316C15.916 11.3691 16.2939 11.0703 16.8916 11.0703C17.5068 11.0703 17.9287 11.4482 17.9287 12.002C17.9287 12.5645 17.5156 12.9863 16.8916 12.9863H16.4961C16.1709 12.9863 15.9512 13.2148 15.9512 13.5576C15.9512 13.874 16.1533 14.1201 16.4961 14.1201H16.918C17.6562 14.1201 18.1221 14.5332 18.1221 15.166C18.1221 15.7549 17.6211 16.2207 16.8828 16.2207C16.2764 16.2207 15.8369 15.9219 15.6084 15.3594C15.4941 15.0957 15.3271 14.9551 15.0635 14.9551C14.7646 14.9551 14.5186 15.1748 14.5186 15.5264C14.5186 15.6494 14.5361 15.7461 14.5713 15.8691C14.791 16.6426 15.7139 17.3457 16.874 17.3457ZM11.1436 16.1592C10.4141 16.1592 9.95703 15.2539 9.95703 13.6543C9.95703 12.0547 10.4141 11.1494 11.1436 11.1494C11.873 11.1494 12.3301 12.0547 12.3301 13.6543C12.3301 15.2539 11.8818 16.1592 11.1436 16.1592Z" fill="#1C1C1E"/>
</svg>
