<svg width="28" height="28" viewBox="0 0 28 28" fill="none" xmlns="http://www.w3.org/2000/svg">
<path d="M8.67383 21.8809H19.3174C21.2246 21.8809 22.209 20.8965 22.209 19.0156V8.31934C22.209 6.43848 21.2246 5.4541 19.3174 5.4541H8.67383C6.77539 5.4541 5.78223 6.42969 5.78223 8.31934V19.0156C5.78223 20.8965 6.77539 21.8809 8.67383 21.8809ZM11.0381 17.4951C9.50879 17.4951 8.49805 16.0977 8.49805 13.6543C8.49805 11.2109 9.50879 9.81348 11.0381 9.81348C12.5762 9.81348 13.5957 11.2109 13.5957 13.6543C13.5957 16.0977 12.5762 17.4951 11.0381 17.4951ZM16.9971 17.4951C15.8018 17.4951 14.8438 16.7568 14.6152 15.957C14.5713 15.834 14.5537 15.7285 14.5537 15.5967C14.5537 15.2363 14.8174 14.999 15.1338 14.999C15.4062 14.999 15.5732 15.1396 15.7051 15.4209C15.9336 16.001 16.3818 16.3086 17.0146 16.3086C17.7705 16.3086 18.2979 15.834 18.2979 15.2275C18.2979 14.5684 17.8145 14.1465 17.0586 14.1465H16.6191C16.2588 14.1465 16.0479 13.8916 16.0479 13.5576C16.0479 13.1885 16.2764 12.9512 16.6191 12.9512H17.0146C17.665 12.9512 18.0957 12.5205 18.0957 11.9404C18.0957 11.3691 17.6562 10.9824 17.0234 10.9824C16.3994 10.9824 16.0127 11.29 15.8105 11.8701C15.7051 12.1514 15.5381 12.292 15.2568 12.292C14.9229 12.292 14.6943 12.0547 14.6943 11.6943C14.6943 11.5625 14.7031 11.457 14.7383 11.3252C14.9668 10.5166 15.8457 9.81348 17.0498 9.81348C18.4209 9.81348 19.3613 10.6045 19.3613 11.7646C19.3613 12.582 18.7988 13.3203 18.0693 13.4346V13.4961C18.9482 13.584 19.5898 14.3398 19.5898 15.2891C19.5898 16.5898 18.5352 17.4951 16.9971 17.4951ZM11.0469 16.2471C11.8115 16.2471 12.2773 15.3154 12.2773 13.6543C12.2773 11.9932 11.8027 11.0615 11.0469 11.0615C10.2998 11.0615 9.8252 11.9932 9.8252 13.6543C9.8252 15.3154 10.2998 16.2471 11.0469 16.2471Z" fill="#1C1C1E"/>
</svg>
