<svg width="28" height="28" viewBox="0 0 28 28" fill="none" xmlns="http://www.w3.org/2000/svg">
<path d="M8.67383 21.8809H19.3174C21.2246 21.8809 22.209 20.8965 22.209 19.0156V8.31934C22.209 6.43848 21.2246 5.4541 19.3174 5.4541H8.67383C6.77539 5.4541 5.78223 6.42969 5.78223 8.31934V19.0156C5.78223 20.8965 6.77539 21.8809 8.67383 21.8809ZM8.78809 20.1318C7.97949 20.1318 7.53125 19.71 7.53125 18.8574V8.47754C7.53125 7.625 7.97949 7.20312 8.78809 7.20312H19.2031C20.0029 7.20312 20.46 7.625 20.46 8.47754V18.8574C20.46 19.71 20.0029 20.1318 19.2031 20.1318H8.78809ZM11.0557 17.3457C12.5234 17.3457 13.5166 15.9922 13.5166 13.6543C13.5166 11.3076 12.5234 9.96289 11.0557 9.96289C9.58789 9.96289 8.6123 11.3076 8.6123 13.6543C8.6123 15.9922 9.58789 17.3457 11.0557 17.3457ZM18.1045 17.3369C18.4824 17.3369 18.6846 17.0732 18.6846 16.7129V15.79H19.0889C19.4229 15.79 19.625 15.5879 19.625 15.2539C19.625 14.9111 19.4229 14.709 19.0889 14.709H18.6846V10.8945C18.6846 10.3232 18.3242 9.96289 17.7354 9.96289C17.1816 9.96289 16.8389 10.1738 16.5488 10.7012C15.8896 11.8262 15.0898 13.2412 14.5801 14.208C14.4395 14.4893 14.3779 14.7178 14.3779 14.9902C14.3779 15.4912 14.6943 15.79 15.1865 15.79H17.5332V16.7129C17.5332 17.0732 17.7354 17.3369 18.1045 17.3369ZM11.0645 16.1592C10.335 16.1592 9.87793 15.2539 9.87793 13.6543C9.87793 12.0547 10.335 11.1494 11.0645 11.1494C11.7939 11.1494 12.251 12.0547 12.251 13.6543C12.251 15.2539 11.8027 16.1592 11.0645 16.1592ZM17.5332 14.7178H15.626V14.6738C16.0742 13.7773 16.874 12.3096 17.4893 11.2285H17.5332V14.7178Z" fill="#1C1C1E"/>
</svg>
