<svg width="28" height="28" viewBox="0 0 28 28" fill="none" xmlns="http://www.w3.org/2000/svg">
<path d="M13.9912 22.7422C18.9746 22.7422 23.0879 18.6289 23.0879 13.6543C23.0879 8.67969 18.9658 4.56641 13.9824 4.56641C9.00781 4.56641 4.90332 8.67969 4.90332 13.6543C4.90332 18.6289 9.0166 22.7422 13.9912 22.7422ZM10.9766 17.4951C9.44727 17.4951 8.42773 16.0889 8.42773 13.6543C8.42773 11.2109 9.44727 9.81348 10.9766 9.81348C12.5059 9.81348 13.5342 11.2109 13.5342 13.6543C13.5342 16.0889 12.5059 17.4951 10.9766 17.4951ZM17.1729 17.5039C16.2412 17.5039 15.4502 17.1348 15.002 16.2471C14.7031 15.6758 14.5361 14.8672 14.5361 13.8213C14.5361 11.1494 15.6348 9.81348 17.3398 9.81348C18.3418 9.81348 19.0537 10.3232 19.2822 10.9033C19.3525 11.0439 19.3789 11.1582 19.3789 11.3076C19.3789 11.6328 19.1416 11.8438 18.8691 11.8438C18.6055 11.8438 18.4561 11.7295 18.3066 11.5186C18.0869 11.2021 17.7617 10.9736 17.2871 10.9736C16.373 10.9736 15.7402 11.9316 15.7402 13.4521C15.7402 13.5225 15.7402 13.5664 15.7402 13.6104H15.8018C16.0215 13.0479 16.5928 12.5381 17.498 12.5381C18.6318 12.5381 19.6514 13.3818 19.6514 14.8848C19.6514 16.5283 18.623 17.5039 17.1729 17.5039ZM10.9766 16.2471C11.7412 16.2471 12.1982 15.3154 12.1982 13.6543C12.1982 11.9932 11.7324 11.0615 10.9766 11.0615C10.2383 11.0615 9.75488 11.9932 9.75488 13.6543C9.75488 15.3154 10.2383 16.2471 10.9766 16.2471ZM17.1113 16.3877C17.8848 16.3877 18.377 15.834 18.377 14.9727C18.377 14.1465 17.8584 13.584 17.1113 13.584C16.3555 13.584 15.8281 14.1553 15.8281 14.9639C15.8281 15.8076 16.3555 16.3877 17.1113 16.3877Z" fill="#1C1C1E"/>
</svg>
