<svg width="28" height="28" viewBox="0 0 28 28" fill="none" xmlns="http://www.w3.org/2000/svg">
<path d="M8.67383 21.8809H19.3174C21.2246 21.8809 22.209 20.8965 22.209 19.0156V8.31934C22.209 6.43848 21.2246 5.4541 19.3174 5.4541H8.67383C6.77539 5.4541 5.78223 6.42969 5.78223 8.31934V19.0156C5.78223 20.8965 6.77539 21.8809 8.67383 21.8809ZM11.0381 17.4951C9.50879 17.4951 8.49805 16.0977 8.49805 13.6543C8.49805 11.2109 9.50879 9.81348 11.0381 9.81348C12.5762 9.81348 13.5957 11.2109 13.5957 13.6543C13.5957 16.0977 12.5762 17.4951 11.0381 17.4951ZM17.1113 17.4951C15.5469 17.4951 14.501 16.625 14.501 15.3154C14.501 14.4014 15.0635 13.6719 16.0039 13.4697V13.4082C15.2129 13.1885 14.7734 12.5732 14.7734 11.7822C14.7734 10.6133 15.7402 9.81348 17.1201 9.81348C18.5 9.81348 19.4668 10.6133 19.4668 11.7822C19.4668 12.5732 19.0098 13.2061 18.2363 13.4082V13.4697C19.168 13.6719 19.7305 14.3926 19.7305 15.3066C19.7305 16.6162 18.667 17.4951 17.1113 17.4951ZM17.1201 12.9775C17.7529 12.9775 18.2012 12.5293 18.2012 11.9141C18.2012 11.29 17.7529 10.8594 17.1201 10.8594C16.4785 10.8594 16.0391 11.29 16.0391 11.9141C16.0391 12.5293 16.4785 12.9775 17.1201 12.9775ZM11.0469 16.2471C11.8115 16.2471 12.2686 15.3154 12.2686 13.6543C12.2686 11.9932 11.8027 11.0615 11.0469 11.0615C10.2998 11.0615 9.8252 11.9932 9.8252 13.6543C9.8252 15.3154 10.2998 16.2471 11.0469 16.2471ZM17.1289 16.4404C17.8848 16.4404 18.4385 15.9395 18.4385 15.2275C18.4385 14.5068 17.9023 14.0059 17.1289 14.0059C16.3555 14.0059 15.8018 14.5156 15.8018 15.2275C15.8018 15.9395 16.3555 16.4404 17.1289 16.4404Z" fill="#1C1C1E"/>
</svg>
