<svg width="28" height="28" viewBox="0 0 28 28" fill="none" xmlns="http://www.w3.org/2000/svg">
<path d="M13.9912 22.7422C18.9746 22.7422 23.0879 18.6289 23.0879 13.6543C23.0879 8.67969 18.9658 4.56641 13.9824 4.56641C9.00781 4.56641 4.90332 8.67969 4.90332 13.6543C4.90332 18.6289 9.0166 22.7422 13.9912 22.7422ZM13.9912 20.9316C9.95703 20.9316 6.73145 17.6885 6.73145 13.6543C6.73145 9.62012 9.95703 6.38574 13.9824 6.38574C18.0166 6.38574 21.2598 9.62012 21.2686 13.6543C21.2773 17.6885 18.0254 20.9316 13.9912 20.9316ZM11.1436 17.3545C12.6113 17.3545 13.6045 16.001 13.6045 13.6631C13.6045 11.3164 12.6113 9.96289 11.1436 9.96289C9.67578 9.96289 8.7002 11.3164 8.7002 13.6631C8.7002 16.001 9.67578 17.3545 11.1436 17.3545ZM16.7861 17.3545C18.5088 17.3545 19.4316 15.9834 19.4316 13.417C19.4316 11.2021 18.5264 9.96289 16.8828 9.96289C15.4414 9.96289 14.4922 10.9385 14.4922 12.4502C14.4922 13.9004 15.4502 14.7354 16.584 14.7354C17.4717 14.7354 18.0166 14.2695 18.2363 13.6807H18.2891C18.2979 15.2363 17.7266 16.2471 16.7686 16.2471C16.3203 16.2471 15.9688 16.0186 15.7666 15.6846C15.6084 15.4385 15.4326 15.3418 15.2129 15.3418C14.9053 15.3418 14.6943 15.5703 14.6943 15.8955C14.6943 16.001 14.7295 16.1328 14.7734 16.2471C14.9316 16.7305 15.626 17.3545 16.7861 17.3545ZM16.9443 13.751C16.2061 13.751 15.7051 13.1885 15.7051 12.3887C15.7051 11.5625 16.1973 11.0176 16.9443 11.0176C17.665 11.0176 18.1836 11.5889 18.1836 12.4062C18.1836 13.1885 17.6738 13.751 16.9443 13.751ZM11.1523 16.168C10.4229 16.168 9.96582 15.2627 9.96582 13.6631C9.96582 12.0547 10.4229 11.1582 11.1523 11.1582C11.8818 11.1582 12.3389 12.0547 12.3389 13.6631C12.3389 15.2627 11.8906 16.168 11.1523 16.168Z" fill="#1C1C1E"/>
</svg>
