<svg width="28" height="28" viewBox="0 0 28 28" fill="none" xmlns="http://www.w3.org/2000/svg">
<path d="M8.67383 21.8809H19.3174C21.2246 21.8809 22.209 20.8965 22.209 19.0156V8.31934C22.209 6.43848 21.2246 5.4541 19.3174 5.4541H8.67383C6.77539 5.4541 5.78223 6.42969 5.78223 8.31934V19.0156C5.78223 20.8965 6.77539 21.8809 8.67383 21.8809ZM8.78809 20.1318C7.97949 20.1318 7.53125 19.71 7.53125 18.8574V8.47754C7.53125 7.625 7.97949 7.20312 8.78809 7.20312H19.2031C20.0029 7.20312 20.46 7.625 20.46 8.47754V18.8574C20.46 19.71 20.0029 20.1318 19.2031 20.1318H8.78809ZM11.1611 17.3457C12.6289 17.3457 13.6221 15.9922 13.6221 13.6543C13.6221 11.3076 12.6289 9.96289 11.1611 9.96289C9.68457 9.96289 8.70898 11.3076 8.70898 13.6543C8.70898 15.9922 9.68457 17.3457 11.1611 17.3457ZM16.8037 17.3457C18.5176 17.3457 19.4492 15.9746 19.4492 13.4082C19.4492 11.1934 18.5439 9.96289 16.9004 9.96289C15.459 9.96289 14.501 10.9297 14.501 12.4502C14.501 13.8916 15.4678 14.7354 16.6016 14.7354C17.4893 14.7354 18.0342 14.2607 18.2539 13.6719H18.3066C18.3154 15.2363 17.7354 16.2471 16.7861 16.2471C16.3291 16.2471 15.9775 16.0186 15.7754 15.6758C15.626 15.4297 15.4502 15.333 15.2217 15.333C14.9229 15.333 14.7119 15.5703 14.7119 15.8867C14.7119 15.9922 14.7471 16.124 14.791 16.2471C14.9492 16.7217 15.6436 17.3457 16.8037 17.3457ZM16.9619 13.7422C16.2236 13.7422 15.7227 13.1797 15.7227 12.3887C15.7227 11.5625 16.2148 11.0088 16.9619 11.0088C17.6826 11.0088 18.2012 11.5801 18.2012 12.3975C18.2012 13.1797 17.6914 13.7422 16.9619 13.7422ZM11.1699 16.1592C10.4404 16.1592 9.97461 15.2539 9.97461 13.6543C9.97461 12.0547 10.4404 11.1494 11.1699 11.1494C11.8994 11.1494 12.3564 12.0547 12.3564 13.6543C12.3564 15.2539 11.8994 16.1592 11.1699 16.1592Z" fill="#1C1C1E"/>
</svg>
