<svg width="28" height="28" viewBox="0 0 28 28" fill="none" xmlns="http://www.w3.org/2000/svg">
<path d="M8.67383 21.8809H19.3174C21.2246 21.8809 22.209 20.8965 22.209 19.0156V8.31934C22.209 6.43848 21.2246 5.4541 19.3174 5.4541H8.67383C6.77539 5.4541 5.78223 6.42969 5.78223 8.31934V19.0156C5.78223 20.8965 6.77539 21.8809 8.67383 21.8809ZM11.0645 17.4951C9.53516 17.4951 8.52441 16.0977 8.52441 13.6543C8.52441 11.2109 9.53516 9.81348 11.0645 9.81348C12.6025 9.81348 13.6221 11.2109 13.6221 13.6543C13.6221 16.0977 12.6025 17.4951 11.0645 17.4951ZM16.9355 17.4951C15.7227 17.4951 15.002 16.8447 14.835 16.3438C14.791 16.2207 14.7559 16.0889 14.7559 15.9746C14.7559 15.6406 14.9756 15.3945 15.292 15.3945C15.5293 15.3945 15.7139 15.5 15.8721 15.7461C16.083 16.1064 16.4434 16.335 16.918 16.335C17.9023 16.335 18.4912 15.2891 18.4824 13.6719H18.4297C18.2012 14.2871 17.6387 14.7705 16.7158 14.7705C15.5381 14.7705 14.5449 13.9004 14.5449 12.4062C14.5449 10.8154 15.5381 9.81348 17.0322 9.81348C18.7373 9.81348 19.6865 11.0967 19.6865 13.3994C19.6865 16.0713 18.7109 17.4951 16.9355 17.4951ZM17.0938 13.7334C17.8496 13.7334 18.377 13.1533 18.377 12.3447C18.377 11.501 17.8408 10.9121 17.1025 10.9121C16.3291 10.9121 15.8193 11.4834 15.8193 12.3359C15.8193 13.1533 16.3379 13.7334 17.0938 13.7334ZM11.0732 16.2471C11.8291 16.2471 12.2949 15.3154 12.2949 13.6543C12.2949 11.9932 11.8291 11.0615 11.0732 11.0615C10.3262 11.0615 9.85156 11.9932 9.85156 13.6543C9.85156 15.3154 10.3262 16.2471 11.0732 16.2471Z" fill="#1C1C1E"/>
</svg>
