<svg width="28" height="28" viewBox="0 0 28 28" fill="none" xmlns="http://www.w3.org/2000/svg">
<path d="M8.67383 21.8809H19.3174C21.2246 21.8809 22.209 20.8965 22.209 19.0156V8.31934C22.209 6.43848 21.2246 5.4541 19.3174 5.4541H8.67383C6.77539 5.4541 5.78223 6.42969 5.78223 8.31934V19.0156C5.78223 20.8965 6.77539 21.8809 8.67383 21.8809ZM8.78809 20.1318C7.97949 20.1318 7.53125 19.71 7.53125 18.8574V8.47754C7.53125 7.625 7.97949 7.20312 8.78809 7.20312H19.2031C20.0029 7.20312 20.46 7.625 20.46 8.47754V18.8574C20.46 19.71 20.0029 20.1318 19.2031 20.1318H8.78809ZM14.4922 17.6533C15.0283 17.6533 15.3535 17.3281 15.3535 16.7217V10.5781C15.3535 9.99805 14.9932 9.64648 14.4131 9.64648C14.0352 9.64648 13.7539 9.75195 13.3232 10.0332L11.8115 11.0615C11.5654 11.2197 11.4688 11.3867 11.4688 11.6592C11.4688 11.9844 11.7148 12.2744 12.0488 12.2744C12.207 12.2744 12.3125 12.248 12.5322 12.0986L13.5781 11.4043H13.6484V16.7217C13.6484 17.3281 13.9736 17.6533 14.4922 17.6533Z" fill="#1C1C1E"/>
</svg>
