<svg width="28" height="28" viewBox="0 0 28 28" fill="none" xmlns="http://www.w3.org/2000/svg">
<path d="M8.67383 21.8809H19.3174C21.2246 21.8809 22.209 20.8965 22.209 19.0156V8.31934C22.209 6.43848 21.2246 5.4541 19.3174 5.4541H8.67383C6.77539 5.4541 5.78223 6.42969 5.78223 8.31934V19.0156C5.78223 20.8965 6.77539 21.8809 8.67383 21.8809ZM12.1631 17.4072C11.7676 17.4072 11.5303 17.1523 11.5303 16.7217V11.4658H11.4775L10.6426 12.1162C10.4316 12.292 10.3262 12.3271 10.1416 12.3271C9.84277 12.3271 9.5791 12.0635 9.5791 11.7383C9.5791 11.4834 9.70215 11.2988 9.92188 11.123L11.1875 10.2178C11.5391 9.9541 11.75 9.86621 12.0576 9.86621C12.5234 9.86621 12.8047 10.165 12.8047 10.6309V16.7217C12.8047 17.1523 12.5674 17.4072 12.1631 17.4072ZM16.9355 17.4072C16.5312 17.4072 16.2939 17.1523 16.2939 16.7217V11.4658H16.25L15.415 12.1162C15.2041 12.292 15.0898 12.3271 14.9141 12.3271C14.624 12.3271 14.3516 12.0635 14.3516 11.7383C14.3516 11.4834 14.4658 11.2988 14.6943 11.123L15.9512 10.2178C16.3027 9.9541 16.5137 9.86621 16.8301 9.86621C17.2959 9.86621 17.5771 10.165 17.5771 10.6309V16.7217C17.5771 17.1523 17.3398 17.4072 16.9355 17.4072Z" fill="#1C1C1E"/>
</svg>
