<svg width="28" height="28" viewBox="0 0 28 28" fill="none" xmlns="http://www.w3.org/2000/svg">
<path d="M8.67383 21.8809H19.3174C21.2246 21.8809 22.209 20.8965 22.209 19.0156V8.31934C22.209 6.43848 21.2246 5.4541 19.3174 5.4541H8.67383C6.77539 5.4541 5.78223 6.42969 5.78223 8.31934V19.0156C5.78223 20.8965 6.77539 21.8809 8.67383 21.8809ZM8.78809 20.1318C7.97949 20.1318 7.53125 19.71 7.53125 18.8574V8.47754C7.53125 7.625 7.97949 7.20312 8.78809 7.20312H19.2031C20.0029 7.20312 20.46 7.625 20.46 8.47754V18.8574C20.46 19.71 20.0029 20.1318 19.2031 20.1318H8.78809ZM12.2158 17.2666C12.6025 17.2666 12.8311 17.0205 12.8311 16.6074V10.7451C12.8311 10.2969 12.5586 10.0068 12.1191 10.0068C11.8203 10.0068 11.6182 10.0947 11.2842 10.3496L10.0625 11.2109C9.85156 11.3867 9.72852 11.5625 9.72852 11.8086C9.72852 12.1162 9.99219 12.3711 10.2734 12.3711C10.4404 12.3711 10.5459 12.3359 10.748 12.1689L11.5654 11.5449H11.6094V16.6074C11.6094 17.0205 11.8379 17.2666 12.2158 17.2666ZM16.7949 17.2666C17.1816 17.2666 17.4189 17.0205 17.4189 16.6074V10.7451C17.4189 10.2969 17.1377 10.0068 16.707 10.0068C16.3994 10.0068 16.2061 10.0947 15.8721 10.3496L14.6504 11.2109C14.4307 11.3867 14.3164 11.5625 14.3164 11.8086C14.3164 12.1162 14.5713 12.3711 14.8525 12.3711C15.0283 12.3711 15.1338 12.3359 15.3359 12.1689L16.1445 11.5449H16.1973V16.6074C16.1973 17.0205 16.4258 17.2666 16.7949 17.2666Z" fill="#1C1C1E"/>
</svg>
