<svg width="28" height="28" viewBox="0 0 28 28" fill="none" xmlns="http://www.w3.org/2000/svg">
<path d="M13.9912 22.7422C18.9746 22.7422 23.0879 18.6289 23.0879 13.6543C23.0879 8.67969 18.9658 4.56641 13.9824 4.56641C9.00781 4.56641 4.90332 8.67969 4.90332 13.6543C4.90332 18.6289 9.0166 22.7422 13.9912 22.7422ZM14.6152 17.3018C14.2549 17.3018 14 17.0645 14 16.6865C14 16.4668 14.0791 16.291 14.2549 16.0801L16.4521 13.5049C16.8828 13.0039 17.3223 12.5381 17.3223 11.9932C17.3223 11.3955 16.8916 10.9912 16.2412 10.9912C15.6699 10.9912 15.2568 11.2988 15.0547 11.9053C14.9404 12.1777 14.7822 12.3535 14.4834 12.3535C14.1406 12.3535 13.9209 12.1162 13.9209 11.7559C13.9209 11.6416 13.9473 11.5273 13.9648 11.4043C14.2109 10.4814 15.1514 9.82227 16.2236 9.82227C17.6211 9.82227 18.5176 10.6309 18.5264 11.8789C18.5264 12.7578 18.0605 13.3994 17.3838 14.1904L15.8105 16.0273V16.0977H18.1396C18.4824 16.0977 18.7285 16.3174 18.7285 16.6953C18.7285 17.0645 18.4824 17.3018 18.1396 17.3018H14.6152ZM11.627 17.4072C11.2314 17.4072 10.9941 17.1611 10.9941 16.7217V11.4746H10.9414L10.1064 12.1162C9.88672 12.292 9.79004 12.3271 9.59668 12.3271C9.30664 12.3271 9.03418 12.0635 9.03418 11.7383C9.03418 11.4834 9.15723 11.2988 9.38574 11.123L10.6514 10.2178C11.0029 9.9541 11.2139 9.86621 11.5215 9.86621C11.9785 9.86621 12.2686 10.165 12.2686 10.6309V16.7217C12.2686 17.1611 12.0225 17.4072 11.627 17.4072Z" fill="#1C1C1E"/>
</svg>
