<svg width="28" height="28" viewBox="0 0 28 28" fill="none" xmlns="http://www.w3.org/2000/svg">
<path d="M8.67383 21.8809H19.3174C21.2246 21.8809 22.209 20.8965 22.209 19.0156V8.31934C22.209 6.43848 21.2246 5.4541 19.3174 5.4541H8.67383C6.77539 5.4541 5.78223 6.42969 5.78223 8.31934V19.0156C5.78223 20.8965 6.77539 21.8809 8.67383 21.8809ZM14.6504 17.3018C14.29 17.3018 14.0352 17.0645 14.0352 16.6865C14.0352 16.4668 14.1143 16.291 14.2988 16.0801L16.4873 13.5049C16.918 13.0039 17.3574 12.5381 17.3574 11.9932C17.3574 11.3955 16.9268 10.9912 16.2764 10.9912C15.7051 10.9912 15.292 11.2988 15.0898 11.9053C14.9756 12.1777 14.8174 12.3535 14.5186 12.3535C14.1758 12.3535 13.9561 12.1162 13.9561 11.7559C13.9561 11.6416 13.9824 11.5273 14 11.4043C14.2461 10.4814 15.1865 9.82227 16.2588 9.82227C17.665 9.82227 18.5527 10.6309 18.5615 11.8789C18.5615 12.7578 18.0957 13.3994 17.4189 14.1904L15.8457 16.0273V16.0977H18.1748C18.5176 16.0977 18.7637 16.3174 18.7637 16.6953C18.7637 17.0645 18.5176 17.3018 18.1748 17.3018H14.6504ZM11.6621 17.4072C11.2666 17.4072 11.0293 17.1611 11.0293 16.7217V11.4746H10.9766L10.1416 12.1162C9.93066 12.292 9.8252 12.3271 9.64062 12.3271C9.3418 12.3271 9.06934 12.0635 9.06934 11.7383C9.06934 11.4834 9.19238 11.2988 9.4209 11.123L10.6865 10.2178C11.0381 9.9541 11.249 9.86621 11.5566 9.86621C12.0137 9.86621 12.3037 10.165 12.3037 10.6309V16.7217C12.3037 17.1611 12.0576 17.4072 11.6621 17.4072Z" fill="#1C1C1E"/>
</svg>
