<svg width="28" height="28" viewBox="0 0 28 28" fill="none" xmlns="http://www.w3.org/2000/svg">
<path d="M13.9912 22.7422C18.9746 22.7422 23.0879 18.6289 23.0879 13.6543C23.0879 8.67969 18.9658 4.56641 13.9824 4.56641C9.00781 4.56641 4.90332 8.67969 4.90332 13.6543C4.90332 18.6289 9.0166 22.7422 13.9912 22.7422ZM16.1094 17.4951C14.9053 17.4951 13.9473 16.7568 13.71 15.957C13.6748 15.834 13.6572 15.7285 13.6572 15.5967C13.6572 15.2363 13.9209 14.999 14.2285 14.999C14.5098 14.999 14.6768 15.1396 14.7998 15.4209C15.0371 16.001 15.4854 16.3086 16.1182 16.3086C16.8828 16.3086 17.3926 15.834 17.3926 15.2275C17.3926 14.5684 16.918 14.1465 16.1621 14.1465H15.7227C15.3623 14.1465 15.1514 13.8916 15.1514 13.5576C15.1514 13.1885 15.3799 12.9512 15.7227 12.9512H16.127C16.7686 12.9512 17.208 12.5205 17.208 11.9404C17.208 11.3691 16.7598 10.9824 16.127 10.9824C15.5117 10.9824 15.1162 11.29 14.9141 11.8701C14.8086 12.1514 14.6504 12.292 14.3604 12.292C14.0176 12.292 13.7979 12.0547 13.7979 11.6943C13.7979 11.5625 13.8066 11.457 13.8418 11.3252C14.0703 10.5166 14.9492 9.81348 16.1533 9.81348C17.5244 9.81348 18.4648 10.6045 18.4648 11.7646C18.4648 12.582 17.9023 13.3203 17.1816 13.4346V13.4961C18.0605 13.584 18.6934 14.3398 18.6934 15.2891C18.6934 16.5898 17.6387 17.4951 16.1094 17.4951ZM11.6094 17.4072C11.2139 17.4072 10.9766 17.1523 10.9766 16.7217V11.4658H10.9238L10.0889 12.1162C9.87793 12.292 9.77246 12.3271 9.58789 12.3271C9.28906 12.3271 9.0166 12.0635 9.0166 11.7383C9.0166 11.4834 9.14844 11.2988 9.36816 11.123L10.6338 10.2178C10.9854 9.9541 11.1875 9.86621 11.5039 9.86621C11.9609 9.86621 12.251 10.165 12.251 10.6309V16.7217C12.251 17.1523 12.0049 17.4072 11.6094 17.4072Z" fill="#1C1C1E"/>
</svg>
