<svg width="28" height="28" viewBox="0 0 28 28" fill="none" xmlns="http://www.w3.org/2000/svg">
<path d="M13.9912 22.7422C18.9746 22.7422 23.0879 18.6289 23.0879 13.6543C23.0879 8.67969 18.9658 4.56641 13.9824 4.56641C9.00781 4.56641 4.90332 8.67969 4.90332 13.6543C4.90332 18.6289 9.0166 22.7422 13.9912 22.7422ZM13.9912 20.9316C9.95703 20.9316 6.73145 17.6885 6.73145 13.6543C6.73145 9.62012 9.95703 6.38574 13.9824 6.38574C18.0166 6.38574 21.2598 9.62012 21.2686 13.6543C21.2773 17.6885 18.0254 20.9316 13.9912 20.9316ZM16.0215 17.3545C17.4893 17.3545 18.5088 16.4844 18.5088 15.2363C18.5088 14.3311 17.8936 13.5928 17.0498 13.5137V13.4521C17.7441 13.3379 18.2891 12.6348 18.2891 11.8438C18.2891 10.7363 17.3838 9.96289 16.0654 9.96289C14.9053 9.96289 14.0615 10.6396 13.8418 11.4219C13.8066 11.5537 13.7979 11.6504 13.7979 11.7734C13.7979 12.125 14.0176 12.3447 14.334 12.3447C14.6152 12.3447 14.7646 12.2041 14.8701 11.9316C15.0635 11.3779 15.4414 11.0791 16.0391 11.0791C16.6543 11.0791 17.085 11.457 17.085 12.0107C17.085 12.5732 16.6631 12.9951 16.0391 12.9951H15.6436C15.3184 12.9951 15.0986 13.2148 15.0986 13.5576C15.0986 13.8828 15.3008 14.1289 15.6436 14.1289H16.0742C16.8037 14.1289 17.2695 14.542 17.2695 15.166C17.2695 15.7637 16.7686 16.2207 16.0303 16.2207C15.4238 16.2207 14.9844 15.9219 14.7559 15.3682C14.6416 15.0957 14.4746 14.9639 14.2109 14.9639C13.9121 14.9639 13.666 15.1836 13.666 15.5264C13.666 15.6582 13.6836 15.7549 13.7188 15.8691C13.9385 16.6426 14.8613 17.3545 16.0215 17.3545ZM11.6885 17.2666C12.0752 17.2666 12.3037 17.0293 12.3037 16.6162V10.7539C12.3037 10.3057 12.0312 10.0156 11.5918 10.0156C11.293 10.0156 11.0908 10.0947 10.7568 10.3496L9.53516 11.2197C9.32422 11.3955 9.20996 11.5625 9.20996 11.8174C9.20996 12.125 9.46484 12.3799 9.74609 12.3799C9.92188 12.3799 10.0186 12.3447 10.2207 12.1777L11.0381 11.5449H11.0908V16.6162C11.0908 17.0293 11.3105 17.2666 11.6885 17.2666Z" fill="#1C1C1E"/>
</svg>
