<svg width="28" height="28" viewBox="0 0 28 28" fill="none" xmlns="http://www.w3.org/2000/svg">
<path d="M13.9912 22.7422C18.9746 22.7422 23.0879 18.6289 23.0879 13.6543C23.0879 8.67969 18.9658 4.56641 13.9824 4.56641C9.00781 4.56641 4.90332 8.67969 4.90332 13.6543C4.90332 18.6289 9.0166 22.7422 13.9912 22.7422ZM17.375 17.4863C16.9883 17.4863 16.7773 17.2051 16.7773 16.8271V15.8779H14.3516C13.833 15.8779 13.499 15.5703 13.499 15.043C13.499 14.7529 13.5605 14.5156 13.71 14.2168C14.2373 13.2148 15.0635 11.7559 15.7402 10.5869C16.0479 10.042 16.4082 9.81348 16.9883 9.81348C17.6035 9.81348 17.9814 10.2002 17.9814 10.7891V14.7441H18.4033C18.7461 14.7441 18.957 14.9639 18.957 15.3242C18.957 15.667 18.7461 15.8779 18.4033 15.8779H17.9814V16.8271C17.9814 17.2139 17.7705 17.4863 17.375 17.4863ZM11.5391 17.4072C11.1436 17.4072 10.9062 17.1523 10.9062 16.7217V11.4658H10.8535L10.0186 12.1162C9.79883 12.292 9.69336 12.3271 9.51758 12.3271C9.21875 12.3271 8.94629 12.0635 8.94629 11.7383C8.94629 11.4834 9.06934 11.2988 9.29785 11.123L10.5635 10.2178C10.9062 9.9541 11.1172 9.86621 11.4336 9.86621C11.8994 9.86621 12.1807 10.165 12.1807 10.6309V16.7217C12.1807 17.1523 11.9434 17.4072 11.5391 17.4072ZM16.7773 14.7529V11.1406H16.7334C16.0918 12.2656 15.2744 13.7773 14.8086 14.709V14.7529H16.7773Z" fill="#1C1C1E"/>
</svg>
