<svg width="28" height="28" viewBox="0 0 28 28" fill="none" xmlns="http://www.w3.org/2000/svg">
<path d="M8.67383 21.8809H19.3174C21.2246 21.8809 22.209 20.8965 22.209 19.0156V8.31934C22.209 6.43848 21.2246 5.4541 19.3174 5.4541H8.67383C6.77539 5.4541 5.78223 6.42969 5.78223 8.31934V19.0156C5.78223 20.8965 6.77539 21.8809 8.67383 21.8809ZM17.4102 17.4863C17.0322 17.4863 16.8125 17.2051 16.8125 16.8271V15.8779H14.3867C13.8682 15.8779 13.5342 15.5703 13.5342 15.043C13.5342 14.7529 13.5957 14.5156 13.7451 14.2168C14.2812 13.2148 15.0986 11.7559 15.7754 10.5869C16.083 10.042 16.4434 9.81348 17.0234 9.81348C17.6387 9.81348 18.0166 10.2002 18.0166 10.7891V14.7441H18.4385C18.7812 14.7441 18.9922 14.9639 18.9922 15.3242C18.9922 15.667 18.7812 15.8779 18.4385 15.8779H18.0166V16.8271C18.0166 17.2139 17.8057 17.4863 17.4102 17.4863ZM11.5742 17.4072C11.1787 17.4072 10.9414 17.1523 10.9414 16.7217V11.4658H10.8887L10.0537 12.1162C9.83398 12.292 9.72852 12.3271 9.55273 12.3271C9.25391 12.3271 8.98145 12.0635 8.98145 11.7383C8.98145 11.4834 9.11328 11.2988 9.33301 11.123L10.5986 10.2178C10.9414 9.9541 11.1523 9.86621 11.4688 9.86621C11.9346 9.86621 12.2246 10.165 12.2246 10.6309V16.7217C12.2246 17.1523 11.9785 17.4072 11.5742 17.4072ZM16.8125 14.7529V11.1406H16.7686C16.127 12.2656 15.3096 13.7773 14.8438 14.709V14.7529H16.8125Z" fill="#1C1C1E"/>
</svg>
