<svg width="28" height="28" viewBox="0 0 28 28" fill="none" xmlns="http://www.w3.org/2000/svg">
<path d="M8.67383 21.8809H19.3174C21.2246 21.8809 22.209 20.8965 22.209 19.0156V8.31934C22.209 6.43848 21.2246 5.4541 19.3174 5.4541H8.67383C6.77539 5.4541 5.78223 6.42969 5.78223 8.31934V19.0156C5.78223 20.8965 6.77539 21.8809 8.67383 21.8809ZM16.3027 17.5039C15.3711 17.5039 14.5889 17.1348 14.1318 16.2471C13.8418 15.6758 13.666 14.8672 13.666 13.8213C13.666 11.1494 14.7646 9.81348 16.4697 9.81348C17.4805 9.81348 18.1836 10.3232 18.4209 10.9033C18.4824 11.0439 18.5088 11.1582 18.5088 11.3076C18.5088 11.6328 18.2803 11.8438 18.0078 11.8438C17.7441 11.8438 17.5859 11.7295 17.4277 11.5186C17.2256 11.2021 16.9004 10.9736 16.4258 10.9736C15.5029 10.9736 14.8701 11.9316 14.8701 13.4521C14.8701 13.5225 14.8789 13.5664 14.8789 13.6104H14.9404C15.1602 13.0479 15.7227 12.5381 16.6367 12.5381C17.7617 12.5381 18.7812 13.3818 18.7812 14.8848C18.7812 16.5283 17.7617 17.5039 16.3027 17.5039ZM11.4248 17.4072C11.0205 17.4072 10.7832 17.1523 10.7832 16.7217V11.4658H10.7393L9.9043 12.1162C9.69336 12.292 9.5791 12.3271 9.40332 12.3271C9.10449 12.3271 8.84082 12.0635 8.84082 11.7383C8.84082 11.4834 8.95508 11.2988 9.18359 11.123L10.4404 10.2178C10.792 9.9541 11.0029 9.86621 11.3105 9.86621C11.7764 9.86621 12.0664 10.165 12.0664 10.6309V16.7217C12.0664 17.1523 11.8291 17.4072 11.4248 17.4072ZM16.2412 16.3877C17.0146 16.3877 17.5156 15.834 17.5156 14.9727C17.5156 14.1465 16.9971 13.584 16.2412 13.584C15.4854 13.584 14.9668 14.1553 14.9668 14.9639C14.9668 15.8076 15.4941 16.3877 16.2412 16.3877Z" fill="#1C1C1E"/>
</svg>
