<svg width="28" height="28" viewBox="0 0 28 28" fill="none" xmlns="http://www.w3.org/2000/svg">
<path d="M8.67383 21.8809H19.3174C21.2246 21.8809 22.209 20.8965 22.209 19.0156V8.31934C22.209 6.43848 21.2246 5.4541 19.3174 5.4541H8.67383C6.77539 5.4541 5.78223 6.42969 5.78223 8.31934V19.0156C5.78223 20.8965 6.77539 21.8809 8.67383 21.8809ZM8.78809 20.1318C7.97949 20.1318 7.53125 19.71 7.53125 18.8574V8.47754C7.53125 7.625 7.97949 7.20312 8.78809 7.20312H19.2031C20.0029 7.20312 20.46 7.625 20.46 8.47754V18.8574C20.46 19.71 20.0029 20.1318 19.2031 20.1318H8.78809ZM16.1973 17.3545C17.5947 17.3545 18.5791 16.4141 18.5791 14.8408C18.5791 13.3906 17.5947 12.582 16.5049 12.582C15.6348 12.582 15.0811 13.0742 14.8701 13.6104H14.8174C14.8086 13.5752 14.8086 13.5312 14.8086 13.4697C14.8086 12.002 15.4238 11.0615 16.3115 11.0615C16.7686 11.0615 17.085 11.29 17.2871 11.5977C17.4365 11.7998 17.5771 11.9053 17.832 11.9053C18.0957 11.9053 18.3154 11.7031 18.3154 11.3955C18.3154 11.2549 18.2891 11.1406 18.2363 11.0176C18.0078 10.4551 17.3311 9.96289 16.3555 9.96289C14.7119 9.96289 13.6572 11.2461 13.6572 13.8125C13.6572 14.8232 13.8242 15.5967 14.1143 16.1504C14.5449 17.0029 15.3008 17.3545 16.1973 17.3545ZM11.4951 17.2666C11.8818 17.2666 12.1104 17.0205 12.1104 16.6074V10.7451C12.1104 10.2969 11.8379 10.0068 11.3984 10.0068C11.0996 10.0068 10.8975 10.0947 10.5635 10.3496L9.3418 11.2109C9.13086 11.3867 9.0166 11.5625 9.0166 11.8086C9.0166 12.1162 9.27148 12.3711 9.55273 12.3711C9.72852 12.3711 9.8252 12.3359 10.0273 12.1689L10.8447 11.5449H10.8887V16.6074C10.8887 17.0205 11.1172 17.2666 11.4951 17.2666ZM16.1357 16.291C15.4062 16.291 14.8965 15.7285 14.8965 14.9111C14.8965 14.1289 15.4062 13.5752 16.1357 13.5752C16.8652 13.5752 17.3662 14.1201 17.3662 14.9199C17.3662 15.7549 16.8828 16.291 16.1357 16.291Z" fill="#1C1C1E"/>
</svg>
