<svg width="28" height="28" viewBox="0 0 28 28" fill="none" xmlns="http://www.w3.org/2000/svg">
<path d="M13.9912 22.7422C18.9746 22.7422 23.0879 18.6289 23.0879 13.6543C23.0879 8.67969 18.9658 4.56641 13.9824 4.56641C9.00781 4.56641 4.90332 8.67969 4.90332 13.6543C4.90332 18.6289 9.0166 22.7422 13.9912 22.7422ZM13.9912 20.9316C9.95703 20.9316 6.73145 17.6885 6.73145 13.6543C6.73145 9.62012 9.95703 6.38574 13.9824 6.38574C18.0166 6.38574 21.2598 9.62012 21.2686 13.6543C21.2773 17.6885 18.0254 20.9316 13.9912 20.9316ZM11.8291 17.2666C12.2158 17.2666 12.4443 17.0293 12.4443 16.6162V10.7539C12.4443 10.3057 12.1719 10.0156 11.7324 10.0156C11.4336 10.0156 11.2314 10.0947 10.8975 10.3496L9.67578 11.2197C9.46484 11.3955 9.3418 11.5625 9.3418 11.8174C9.3418 12.125 9.60547 12.3799 9.88672 12.3799C10.0537 12.3799 10.1592 12.3447 10.3613 12.1777L11.1787 11.5449H11.2227V16.6162C11.2227 17.0293 11.4512 17.2666 11.8291 17.2666ZM15.1865 17.2754C15.4766 17.2754 15.6523 17.1172 15.8193 16.7832L18.3594 11.5977C18.4824 11.3252 18.5176 11.1494 18.5176 10.9561C18.5176 10.499 18.2012 10.1299 17.6562 10.1299H14.3516C14.0088 10.1299 13.7627 10.3496 13.7627 10.6924C13.7627 11.0352 14.0176 11.2461 14.3516 11.2461H17.1377V11.3076L14.6416 16.1855C14.5537 16.335 14.5273 16.458 14.5273 16.6338C14.5273 17.0117 14.8086 17.2754 15.1865 17.2754Z" fill="#1C1C1E"/>
</svg>
