<svg width="28" height="28" viewBox="0 0 28 28" fill="none" xmlns="http://www.w3.org/2000/svg">
<path d="M8.67383 21.8809H19.3174C21.2246 21.8809 22.209 20.8965 22.209 19.0156V8.31934C22.209 6.43848 21.2246 5.4541 19.3174 5.4541H8.67383C6.77539 5.4541 5.78223 6.42969 5.78223 8.31934V19.0156C5.78223 20.8965 6.77539 21.8809 8.67383 21.8809ZM11.7852 17.4072C11.3896 17.4072 11.1523 17.1523 11.1523 16.7217V11.4658H11.0996L10.2646 12.1162C10.0449 12.292 9.93945 12.3271 9.75488 12.3271C9.46484 12.3271 9.19238 12.0635 9.19238 11.7383C9.19238 11.4834 9.32422 11.2988 9.54395 11.123L10.8096 10.2178C11.1523 9.9541 11.3633 9.86621 11.6797 9.86621C12.1455 9.86621 12.4355 10.165 12.4355 10.6309V16.7217C12.4355 17.1523 12.1895 17.4072 11.7852 17.4072ZM15.2744 17.416C14.8877 17.416 14.5889 17.1348 14.5889 16.7393C14.5889 16.5547 14.6152 16.4316 14.7031 16.2734L17.2959 11.2285V11.1494H14.4043C14.0527 11.1494 13.7891 10.9297 13.7891 10.5693C13.7891 10.209 14.0439 9.98926 14.4043 9.98926H17.8408C18.4121 9.98926 18.7373 10.376 18.7373 10.8506C18.7373 11.0527 18.7021 11.2373 18.5703 11.5186L15.9424 16.8975C15.7666 17.2578 15.582 17.416 15.2744 17.416Z" fill="#1C1C1E"/>
</svg>
