<svg width="28" height="28" viewBox="0 0 28 28" fill="none" xmlns="http://www.w3.org/2000/svg">
<path d="M13.9912 22.7422C18.9746 22.7422 23.0879 18.6289 23.0879 13.6543C23.0879 8.67969 18.9658 4.56641 13.9824 4.56641C9.00781 4.56641 4.90332 8.67969 4.90332 13.6543C4.90332 18.6289 9.0166 22.7422 13.9912 22.7422ZM16.3203 17.4951C14.7734 17.4951 13.7275 16.625 13.7275 15.3154C13.7275 14.4014 14.29 13.6719 15.2217 13.4697V13.4082C14.4395 13.1885 13.9912 12.5732 13.9912 11.7822C13.9912 10.6133 14.958 9.81348 16.3379 9.81348C17.7266 9.81348 18.6934 10.6133 18.6934 11.7822C18.6934 12.5732 18.2363 13.2061 17.4629 13.4082V13.4697C18.3945 13.6719 18.957 14.3926 18.957 15.3066C18.957 16.6162 17.8936 17.4951 16.3203 17.4951ZM11.46 17.4072C11.0645 17.4072 10.8271 17.1523 10.8271 16.7217V11.4658H10.7832L9.93945 12.1162C9.72852 12.292 9.62305 12.3271 9.43848 12.3271C9.14844 12.3271 8.87598 12.0635 8.87598 11.7383C8.87598 11.4834 8.99902 11.2988 9.22754 11.123L10.4844 10.2178C10.8359 9.9541 11.0469 9.86621 11.3633 9.86621C11.8291 9.86621 12.1104 10.165 12.1104 10.6309V16.7217C12.1104 17.1523 11.873 17.4072 11.46 17.4072ZM16.3379 12.9775C16.9795 12.9775 17.4189 12.5293 17.4189 11.9141C17.4189 11.29 16.9795 10.8594 16.3379 10.8594C15.7051 10.8594 15.2656 11.29 15.2656 11.9141C15.2656 12.5293 15.7051 12.9775 16.3379 12.9775ZM16.3467 16.4404C17.1113 16.4404 17.665 15.9395 17.665 15.2275C17.665 14.5068 17.1289 14.0059 16.3467 14.0059C15.582 14.0059 15.0283 14.5156 15.0283 15.2275C15.0283 15.9395 15.582 16.4404 16.3467 16.4404Z" fill="#1C1C1E"/>
</svg>
