<svg width="28" height="28" viewBox="0 0 28 28" fill="none" xmlns="http://www.w3.org/2000/svg">
<path d="M13.9912 22.7422C18.9746 22.7422 23.0879 18.6289 23.0879 13.6543C23.0879 8.67969 18.9658 4.56641 13.9824 4.56641C9.00781 4.56641 4.90332 8.67969 4.90332 13.6543C4.90332 18.6289 9.0166 22.7422 13.9912 22.7422ZM13.9912 20.9316C9.95703 20.9316 6.73145 17.6885 6.73145 13.6543C6.73145 9.62012 9.95703 6.38574 13.9824 6.38574C18.0166 6.38574 21.2598 9.62012 21.2686 13.6543C21.2773 17.6885 18.0254 20.9316 13.9912 20.9316ZM16.2324 17.3545C17.7354 17.3545 18.7637 16.502 18.7637 15.2539C18.7637 14.3662 18.2188 13.6719 17.3223 13.4873V13.4258C18.0693 13.2236 18.5088 12.6172 18.5088 11.8613C18.5088 10.7363 17.5771 9.96289 16.25 9.96289C14.9141 9.96289 13.9912 10.7363 13.9912 11.8613C13.9912 12.6172 14.4131 13.2061 15.1689 13.4258V13.4873C14.2725 13.6719 13.7363 14.375 13.7363 15.2627C13.7363 16.5107 14.7383 17.3545 16.2324 17.3545ZM11.5566 17.2666C11.9434 17.2666 12.1719 17.0293 12.1719 16.6162V10.7539C12.1719 10.3057 11.8994 10.0156 11.46 10.0156C11.1611 10.0156 10.959 10.0947 10.625 10.3496L9.40332 11.2197C9.19238 11.3955 9.07812 11.5625 9.07812 11.8174C9.07812 12.125 9.33301 12.3799 9.61426 12.3799C9.78125 12.3799 9.88672 12.3447 10.0889 12.1777L10.9062 11.5449H10.9502V16.6162C10.9502 17.0293 11.1787 17.2666 11.5566 17.2666ZM16.25 13.0127C15.6348 13.0127 15.2041 12.582 15.2041 11.9844C15.2041 11.3779 15.6348 10.9648 16.25 10.9648C16.8652 10.9648 17.2959 11.3779 17.2959 11.9844C17.2959 12.582 16.8652 13.0127 16.25 13.0127ZM16.2588 16.3438C15.5117 16.3438 14.9756 15.8604 14.9756 15.166C14.9756 14.4893 15.5117 13.9883 16.2588 13.9883C17.0059 13.9883 17.5332 14.4805 17.5332 15.166C17.5332 15.8604 16.9971 16.3438 16.2588 16.3438Z" fill="#1C1C1E"/>
</svg>
