<svg width="28" height="28" viewBox="0 0 28 28" fill="none" xmlns="http://www.w3.org/2000/svg">
<path d="M8.67383 21.8809H19.3174C21.2246 21.8809 22.209 20.8965 22.209 19.0156V8.31934C22.209 6.43848 21.2246 5.4541 19.3174 5.4541H8.67383C6.77539 5.4541 5.78223 6.42969 5.78223 8.31934V19.0156C5.78223 20.8965 6.77539 21.8809 8.67383 21.8809ZM8.78809 20.1318C7.97949 20.1318 7.53125 19.71 7.53125 18.8574V8.47754C7.53125 7.625 7.97949 7.20312 8.78809 7.20312H19.2031C20.0029 7.20312 20.46 7.625 20.46 8.47754V18.8574C20.46 19.71 20.0029 20.1318 19.2031 20.1318H8.78809ZM16.25 17.3457C17.7529 17.3457 18.7725 16.4932 18.7725 15.2451C18.7725 14.3574 18.2275 13.6719 17.3398 13.4785V13.4258C18.0869 13.2236 18.5176 12.6084 18.5176 11.8525C18.5176 10.7275 17.5947 9.96289 16.2676 9.96289C14.9316 9.96289 14.0088 10.7275 14.0088 11.8525C14.0088 12.6084 14.4307 13.2061 15.1865 13.4258V13.4785C14.29 13.6719 13.7539 14.3662 13.7539 15.2539C13.7539 16.502 14.7559 17.3457 16.25 17.3457ZM11.5742 17.2666C11.9609 17.2666 12.1895 17.0205 12.1895 16.6074V10.7451C12.1895 10.2969 11.917 10.0068 11.4775 10.0068C11.1699 10.0068 10.9766 10.0947 10.6426 10.3496L9.4209 11.2109C9.20117 11.3867 9.08691 11.5625 9.08691 11.8086C9.08691 12.1162 9.35059 12.3711 9.62305 12.3711C9.79883 12.3711 9.9043 12.3359 10.1064 12.1689L10.915 11.5449H10.9678V16.6074C10.9678 17.0205 11.1963 17.2666 11.5742 17.2666ZM16.2676 13.0039C15.6436 13.0039 15.2129 12.5732 15.2129 11.9756C15.2129 11.3779 15.6436 10.9648 16.2676 10.9648C16.8828 10.9648 17.3135 11.3779 17.3135 11.9756C17.3135 12.5732 16.8828 13.0039 16.2676 13.0039ZM16.2676 16.3438C15.5205 16.3438 14.9844 15.8604 14.9844 15.166C14.9844 14.4805 15.5205 13.9883 16.2676 13.9883C17.0234 13.9883 17.542 14.4717 17.542 15.166C17.542 15.8604 17.0059 16.3438 16.2676 16.3438Z" fill="#1C1C1E"/>
</svg>
