<svg width="28" height="28" viewBox="0 0 28 28" fill="none" xmlns="http://www.w3.org/2000/svg">
<path d="M8.67383 21.8809H19.3174C21.2246 21.8809 22.209 20.8965 22.209 19.0156V8.31934C22.209 6.43848 21.2246 5.4541 19.3174 5.4541H8.67383C6.77539 5.4541 5.78223 6.42969 5.78223 8.31934V19.0156C5.78223 20.8965 6.77539 21.8809 8.67383 21.8809ZM8.78809 20.1318C7.97949 20.1318 7.53125 19.71 7.53125 18.8574V8.47754C7.53125 7.625 7.97949 7.20312 8.78809 7.20312H19.2031C20.0029 7.20312 20.46 7.625 20.46 8.47754V18.8574C20.46 19.71 20.0029 20.1318 19.2031 20.1318H8.78809ZM12.0137 17.6006H16.4697C16.9004 17.6006 17.1904 17.3369 17.1904 16.915C17.1904 16.4844 16.9004 16.2295 16.4697 16.2295H13.6133V16.1592L15.459 14.2344C16.3027 13.3906 16.8213 12.6963 16.8213 11.7646C16.8213 10.4111 15.7051 9.50586 14.0352 9.50586C12.7256 9.50586 11.6006 10.2441 11.3018 11.2373C11.2578 11.3691 11.2402 11.501 11.2402 11.624C11.2402 12.0371 11.5215 12.2832 11.9434 12.2832C12.3125 12.2832 12.4883 12.0723 12.6553 11.8174C12.8838 11.3428 13.2881 10.8418 14.0439 10.8418C14.7822 10.8418 15.2568 11.2549 15.2568 11.8965C15.2568 12.4678 14.791 12.9688 14.2461 13.5049L11.5918 16.2646C11.3633 16.4844 11.2842 16.6953 11.2842 16.9238C11.2842 17.3281 11.5654 17.6006 12.0137 17.6006Z" fill="#1C1C1E"/>
</svg>
