<svg width="28" height="28" viewBox="0 0 28 28" fill="none" xmlns="http://www.w3.org/2000/svg">
<path d="M8.67383 21.8809H19.3174C21.2246 21.8809 22.209 20.8965 22.209 19.0156V8.31934C22.209 6.43848 21.2246 5.4541 19.3174 5.4541H8.67383C6.77539 5.4541 5.78223 6.42969 5.78223 8.31934V19.0156C5.78223 20.8965 6.77539 21.8809 8.67383 21.8809ZM10.0889 17.3018C9.72852 17.3018 9.47363 17.0645 9.47363 16.6865C9.47363 16.4668 9.54395 16.291 9.7373 16.0801L11.9258 13.5049C12.3564 13.0039 12.7871 12.5381 12.7871 11.9932C12.7871 11.3955 12.3652 10.9912 11.7148 10.9912C11.1348 10.9912 10.7305 11.2988 10.5283 11.9053C10.4141 12.1777 10.2559 12.3535 9.95703 12.3535C9.61426 12.3535 9.39453 12.1162 9.39453 11.7559C9.39453 11.6416 9.4209 11.5273 9.43848 11.4043C9.68457 10.4814 10.625 9.82227 11.6973 9.82227C13.0947 9.82227 13.9912 10.6309 14 11.8789C14 12.7578 13.5342 13.3994 12.8574 14.1904L11.2842 16.0273V16.0977H13.6133C13.9561 16.0977 14.2021 16.3174 14.2021 16.6953C14.2021 17.0645 13.9561 17.3018 13.6133 17.3018H10.0889ZM17.7705 17.4072C17.3662 17.4072 17.1289 17.1611 17.1289 16.7217V11.4746H17.085L16.2412 12.1162C16.0391 12.292 15.9248 12.3271 15.749 12.3271C15.459 12.3271 15.1865 12.0635 15.1865 11.7383C15.1865 11.4834 15.3008 11.2988 15.5293 11.123L16.7861 10.2178C17.1377 9.9541 17.3486 9.86621 17.665 9.86621C18.1309 9.86621 18.4121 10.165 18.4121 10.6309V16.7217C18.4121 17.1611 18.1748 17.4072 17.7705 17.4072Z" fill="#1C1C1E"/>
</svg>
