<svg width="28" height="28" viewBox="0 0 28 28" fill="none" xmlns="http://www.w3.org/2000/svg">
<path d="M13.9912 22.7422C18.9746 22.7422 23.0879 18.6289 23.0879 13.6543C23.0879 8.67969 18.9658 4.56641 13.9824 4.56641C9.00781 4.56641 4.90332 8.67969 4.90332 13.6543C4.90332 18.6289 9.0166 22.7422 13.9912 22.7422ZM13.9912 20.9316C9.95703 20.9316 6.73145 17.6885 6.73145 13.6543C6.73145 9.62012 9.95703 6.38574 13.9824 6.38574C18.0166 6.38574 21.2598 9.62012 21.2686 13.6543C21.2773 17.6885 18.0254 20.9316 13.9912 20.9316ZM9.68457 17.1699H13.0859C13.4111 17.1699 13.6396 16.9414 13.6396 16.5811C13.6396 16.2207 13.4111 16.0098 13.0859 16.0098H10.8184V15.957L12.3477 14.1729C12.998 13.417 13.4551 12.793 13.4463 11.9492C13.4463 10.7539 12.585 9.96289 11.2314 9.96289C10.2031 9.96289 9.29785 10.6133 9.06934 11.501C9.04297 11.6152 9.02539 11.7207 9.02539 11.835C9.02539 12.1777 9.22754 12.4062 9.56152 12.4062C9.84277 12.4062 9.99219 12.2393 10.1064 11.9668C10.2998 11.3867 10.6953 11.0879 11.2578 11.0879C11.8818 11.0879 12.2949 11.4834 12.2949 12.0547C12.2949 12.582 11.873 13.0303 11.46 13.5137L9.3418 16.0098C9.16602 16.1943 9.10449 16.3789 9.10449 16.5811C9.10449 16.9414 9.33301 17.1699 9.68457 17.1699ZM15.3359 17.1699H18.7373C19.0625 17.1699 19.291 16.9414 19.291 16.5811C19.291 16.2207 19.0625 16.0098 18.7373 16.0098H16.4785V15.957L17.999 14.1729C18.6494 13.417 19.1064 12.793 19.1064 11.9492C19.0977 10.7539 18.2363 9.96289 16.8828 9.96289C15.8545 9.96289 14.9492 10.6133 14.7207 11.501C14.6943 11.6152 14.6768 11.7207 14.6768 11.835C14.6768 12.1777 14.8789 12.4062 15.2129 12.4062C15.5029 12.4062 15.6436 12.2393 15.7578 11.9668C15.9512 11.3867 16.3467 11.0879 16.9092 11.0879C17.5332 11.0879 17.9463 11.4834 17.9463 12.0547C17.9463 12.582 17.5244 13.0303 17.1113 13.5137L14.9932 16.0098C14.8262 16.1943 14.7559 16.3789 14.7559 16.5811C14.7559 16.9414 14.9932 17.1699 15.3359 17.1699Z" fill="#1C1C1E"/>
</svg>
