<svg width="28" height="28" viewBox="0 0 28 28" fill="none" xmlns="http://www.w3.org/2000/svg">
<path d="M8.67383 21.8809H19.3174C21.2246 21.8809 22.209 20.8965 22.209 19.0156V8.31934C22.209 6.43848 21.2246 5.4541 19.3174 5.4541H8.67383C6.77539 5.4541 5.78223 6.42969 5.78223 8.31934V19.0156C5.78223 20.8965 6.77539 21.8809 8.67383 21.8809ZM8.78809 20.1318C7.97949 20.1318 7.53125 19.71 7.53125 18.8574V8.47754C7.53125 7.625 7.97949 7.20312 8.78809 7.20312H19.2031C20.0029 7.20312 20.46 7.625 20.46 8.47754V18.8574C20.46 19.71 20.0029 20.1318 19.2031 20.1318H8.78809ZM9.69336 17.1611H13.0947C13.4199 17.1611 13.6572 16.9326 13.6572 16.5811C13.6572 16.2207 13.4199 16.0098 13.0947 16.0098H10.8359V15.9482L12.3652 14.1641C13.0156 13.4082 13.4639 12.793 13.4639 11.9492C13.4639 10.7451 12.5938 9.96289 11.249 9.96289C10.2207 9.96289 9.30664 10.6045 9.07812 11.4922C9.06055 11.6064 9.03418 11.7119 9.03418 11.8262C9.03418 12.1689 9.24512 12.3975 9.57031 12.3975C9.86035 12.3975 10.0098 12.2305 10.124 11.9668C10.3174 11.3779 10.7129 11.0879 11.2666 11.0879C11.8994 11.0879 12.3125 11.4746 12.3125 12.0547C12.3125 12.582 11.8906 13.0215 11.4775 13.5137L9.35938 16.001C9.18359 16.1943 9.11328 16.3701 9.11328 16.5723C9.11328 16.9326 9.35059 17.1611 9.69336 17.1611ZM15.3535 17.1611H18.7549C19.0801 17.1611 19.3086 16.9326 19.3086 16.5811C19.3086 16.2207 19.0801 16.0098 18.7549 16.0098H16.4873V15.9482L18.0166 14.1641C18.667 13.4082 19.124 12.793 19.1152 11.9492C19.1152 10.7451 18.2539 9.96289 16.9004 9.96289C15.8721 9.96289 14.9668 10.6045 14.7383 11.4922C14.7119 11.6064 14.6943 11.7119 14.6943 11.8262C14.6943 12.1689 14.8965 12.3975 15.2305 12.3975C15.5117 12.3975 15.6611 12.2305 15.7754 11.9668C15.9688 11.3779 16.3643 11.0879 16.9268 11.0879C17.5508 11.0879 17.9639 11.4746 17.9639 12.0547C17.9639 12.582 17.542 13.0215 17.1289 13.5137L15.0107 16.001C14.835 16.1943 14.7734 16.3701 14.7734 16.5723C14.7734 16.9326 15.002 17.1611 15.3535 17.1611Z" fill="#1C1C1E"/>
</svg>
