<svg width="28" height="28" viewBox="0 0 28 28" fill="none" xmlns="http://www.w3.org/2000/svg">
<path d="M8.67383 21.8809H19.3174C21.2246 21.8809 22.209 20.8965 22.209 19.0156V8.31934C22.209 6.43848 21.2246 5.4541 19.3174 5.4541H8.67383C6.77539 5.4541 5.78223 6.42969 5.78223 8.31934V19.0156C5.78223 20.8965 6.77539 21.8809 8.67383 21.8809ZM9.55273 17.3018C9.19238 17.3018 8.94629 17.0645 8.94629 16.6865C8.94629 16.4668 9.0166 16.291 9.20117 16.0801L11.3896 13.5049C11.8203 13.0039 12.2598 12.5469 12.2598 11.9932C12.2598 11.3955 11.8291 10.9912 11.1787 10.9912C10.6074 10.9912 10.1943 11.2988 10.001 11.9053C9.88672 12.1865 9.72852 12.3623 9.4209 12.3623C9.07812 12.3623 8.8584 12.1162 8.8584 11.7559C8.8584 11.6416 8.88477 11.5361 8.91113 11.4043C9.14844 10.4814 10.0889 9.82227 11.1611 9.82227C12.5674 9.82227 13.4639 10.6396 13.4639 11.8789C13.4639 12.7578 13.0068 13.4082 12.3213 14.1904L10.748 16.0361V16.0977H13.0771C13.4199 16.0977 13.666 16.3174 13.666 16.6953C13.666 17.0645 13.4199 17.3018 13.0771 17.3018H9.55273ZM15.4326 17.3018C15.0723 17.3018 14.8174 17.0645 14.8174 16.6865C14.8174 16.4668 14.8877 16.291 15.0811 16.0801L17.2695 13.5049C17.6914 13.0039 18.1309 12.5469 18.1309 11.9932C18.1309 11.3955 17.7002 10.9912 17.0586 10.9912C16.4785 10.9912 16.0742 11.2988 15.8721 11.9053C15.749 12.1865 15.5996 12.3623 15.3008 12.3623C14.958 12.3623 14.7383 12.1162 14.7383 11.7559C14.7383 11.6416 14.7559 11.5361 14.7822 11.4043C15.0195 10.4814 15.9688 9.82227 17.041 9.82227C18.4385 9.82227 19.335 10.6396 19.3438 11.8789C19.3438 12.7578 18.8691 13.4082 18.2012 14.1904L16.6279 16.0361V16.0977H18.957C19.2998 16.0977 19.5459 16.3174 19.5459 16.6953C19.5459 17.0645 19.2998 17.3018 18.957 17.3018H15.4326Z" fill="#1C1C1E"/>
</svg>
