<svg width="28" height="28" viewBox="0 0 28 28" fill="none" xmlns="http://www.w3.org/2000/svg">
<path d="M13.9912 22.7422C18.9746 22.7422 23.0879 18.6289 23.0879 13.6543C23.0879 8.67969 18.9658 4.56641 13.9824 4.56641C9.00781 4.56641 4.90332 8.67969 4.90332 13.6543C4.90332 18.6289 9.0166 22.7422 13.9912 22.7422ZM9.49121 17.3018C9.13086 17.3018 8.88477 17.0645 8.88477 16.6865C8.88477 16.4668 8.95508 16.2822 9.13965 16.0801L11.3369 13.4961C11.7588 13.0039 12.1982 12.5381 12.1982 11.9932C12.1982 11.3955 11.7676 10.9912 11.126 10.9912C10.5459 10.9912 10.1416 11.29 9.93945 11.9053C9.81641 12.1777 9.66699 12.3535 9.36816 12.3535C9.0166 12.3535 8.80566 12.1162 8.80566 11.7559C8.80566 11.6416 8.82324 11.5273 8.84961 11.4043C9.08691 10.4814 10.0273 9.81348 11.0996 9.81348C12.5059 9.81348 13.4023 10.6309 13.4023 11.8789C13.4111 12.7578 12.9365 13.3994 12.2598 14.1904L10.6865 16.0273V16.0977H13.0244C13.3584 16.0977 13.6045 16.3086 13.6045 16.6953C13.6045 17.0645 13.3584 17.3018 13.0244 17.3018H9.49121ZM17.041 17.4951C15.8457 17.4951 14.8789 16.7568 14.6504 15.957C14.6152 15.834 14.5977 15.7285 14.5977 15.5967C14.5977 15.2363 14.8525 14.999 15.1689 14.999C15.4414 14.999 15.6172 15.1396 15.7402 15.4209C15.9775 16.001 16.4258 16.3086 17.0586 16.3086C17.8145 16.3086 18.3418 15.834 18.3418 15.2275C18.3418 14.5684 17.8584 14.1465 17.0938 14.1465H16.6631C16.2939 14.1465 16.0918 13.8916 16.0918 13.5576C16.0918 13.1885 16.3115 12.9512 16.6631 12.9512H17.0586C17.709 12.9512 18.1396 12.5205 18.1396 11.9404C18.1396 11.3691 17.6914 10.9824 17.0674 10.9824C16.4434 10.9824 16.0566 11.29 15.8545 11.8701C15.7402 12.1514 15.582 12.292 15.292 12.292C14.958 12.292 14.7383 12.0547 14.7383 11.6943C14.7383 11.5625 14.7471 11.457 14.7822 11.3252C15.0107 10.5166 15.8896 9.81348 17.0938 9.81348C18.4648 9.81348 19.4053 10.6045 19.4053 11.7646C19.4053 12.582 18.834 13.3203 18.1133 13.4346V13.4961C18.9922 13.584 19.625 14.3398 19.625 15.2891C19.625 16.5898 18.5703 17.4951 17.041 17.4951Z" fill="#1C1C1E"/>
</svg>
