<svg width="28" height="28" viewBox="0 0 28 28" fill="none" xmlns="http://www.w3.org/2000/svg">
<path d="M13.9912 22.7422C18.9746 22.7422 23.0879 18.6289 23.0879 13.6543C23.0879 8.67969 18.9658 4.56641 13.9824 4.56641C9.00781 4.56641 4.90332 8.67969 4.90332 13.6543C4.90332 18.6289 9.0166 22.7422 13.9912 22.7422ZM9.49121 17.3018C9.13086 17.3018 8.88477 17.0645 8.88477 16.6865C8.88477 16.4668 8.95508 16.2822 9.13965 16.0801L11.3369 13.4961C11.7588 13.0039 12.1982 12.5381 12.1982 11.9932C12.1982 11.3955 11.7676 10.9912 11.126 10.9912C10.5459 10.9912 10.1416 11.29 9.93945 11.9053C9.81641 12.1777 9.66699 12.3535 9.36816 12.3535C9.0166 12.3535 8.80566 12.1162 8.80566 11.7559C8.80566 11.6416 8.82324 11.5273 8.84961 11.4043C9.08691 10.4814 10.0273 9.81348 11.0996 9.81348C12.5059 9.81348 13.4023 10.6309 13.4023 11.8789C13.4111 12.7578 12.9365 13.3994 12.2598 14.1904L10.6865 16.0273V16.0977H13.0244C13.3584 16.0977 13.6045 16.3086 13.6045 16.6953C13.6045 17.0645 13.3584 17.3018 13.0244 17.3018H9.49121ZM18.1221 17.4863C17.7354 17.4863 17.5244 17.2051 17.5244 16.8271V15.8779H15.0986C14.5801 15.8779 14.2461 15.5703 14.2461 15.043C14.2461 14.7529 14.3164 14.5156 14.457 14.2168C14.9932 13.2148 15.8018 11.7559 16.4873 10.5869C16.7949 10.042 17.1465 9.81348 17.7354 9.81348C18.3506 9.81348 18.7285 10.2002 18.7285 10.7891V14.7441H19.1416C19.4844 14.7441 19.7041 14.9639 19.7041 15.3242C19.7041 15.667 19.4844 15.8779 19.1416 15.8779H18.7285V16.8271C18.7285 17.2139 18.5088 17.4863 18.1221 17.4863ZM17.5244 14.7529V11.1406H17.4717C16.8477 12.2656 16.0215 13.7773 15.5557 14.709V14.7529H17.5244Z" fill="#1C1C1E"/>
</svg>
