<svg width="28" height="28" viewBox="0 0 28 28" fill="none" xmlns="http://www.w3.org/2000/svg">
<path d="M8.67383 21.8809H19.3174C21.2246 21.8809 22.209 20.8965 22.209 19.0156V8.31934C22.209 6.43848 21.2246 5.4541 19.3174 5.4541H8.67383C6.77539 5.4541 5.78223 6.42969 5.78223 8.31934V19.0156C5.78223 20.8965 6.77539 21.8809 8.67383 21.8809ZM9.52637 17.3018C9.16602 17.3018 8.91992 17.0645 8.91992 16.6865C8.91992 16.4668 8.99023 16.2822 9.1748 16.0801L11.3721 13.4961C11.7939 13.0039 12.2334 12.5381 12.2334 11.9932C12.2334 11.3955 11.8027 10.9912 11.1611 10.9912C10.5811 10.9912 10.1768 11.29 9.97461 11.9053C9.85156 12.1777 9.70215 12.3535 9.40332 12.3535C9.06055 12.3535 8.84082 12.1162 8.84082 11.7559C8.84082 11.6416 8.8584 11.5273 8.88477 11.4043C9.12207 10.4814 10.0625 9.81348 11.1436 9.81348C12.541 9.81348 13.4375 10.6309 13.4375 11.8789C13.4463 12.7578 12.9717 13.3994 12.2949 14.1904L10.7217 16.0273V16.0977H13.0596C13.4023 16.0977 13.6396 16.3086 13.6396 16.6953C13.6396 17.0645 13.4023 17.3018 13.0596 17.3018H9.52637ZM18.1572 17.4863C17.7705 17.4863 17.5596 17.2051 17.5596 16.8271V15.8779H15.1338C14.6152 15.8779 14.2812 15.5703 14.2812 15.043C14.2812 14.7529 14.3516 14.5156 14.4922 14.2168C15.0283 13.2148 15.8369 11.7559 16.5225 10.5869C16.8301 10.042 17.1816 9.81348 17.7705 9.81348C18.3857 9.81348 18.7637 10.2002 18.7637 10.7891V14.7441H19.1768C19.5195 14.7441 19.7393 14.9639 19.7393 15.3242C19.7393 15.667 19.5195 15.8779 19.1768 15.8779H18.7637V16.8271C18.7637 17.2139 18.5439 17.4863 18.1572 17.4863ZM17.5596 14.7529V11.1406H17.5068C16.8828 12.2656 16.0566 13.7773 15.5908 14.709V14.7529H17.5596Z" fill="#1C1C1E"/>
</svg>
