<svg width="28" height="28" viewBox="0 0 28 28" fill="none" xmlns="http://www.w3.org/2000/svg">
<path d="M8.67383 21.8809H19.3174C21.2246 21.8809 22.209 20.8965 22.209 19.0156V8.31934C22.209 6.43848 21.2246 5.4541 19.3174 5.4541H8.67383C6.77539 5.4541 5.78223 6.42969 5.78223 8.31934V19.0156C5.78223 20.8965 6.77539 21.8809 8.67383 21.8809ZM8.78809 20.1318C7.97949 20.1318 7.53125 19.71 7.53125 18.8574V8.47754C7.53125 7.625 7.97949 7.20312 8.78809 7.20312H19.2031C20.0029 7.20312 20.46 7.625 20.46 8.47754V18.8574C20.46 19.71 20.0029 20.1318 19.2031 20.1318H8.78809ZM9.62305 17.1611H13.0244C13.3496 17.1611 13.5869 16.9326 13.5869 16.5811C13.5869 16.2207 13.3496 16.0098 13.0244 16.0098H10.7656V15.9482L12.2949 14.1641C12.9453 13.4082 13.3936 12.793 13.3936 11.9492C13.3936 10.7451 12.5234 9.96289 11.1787 9.96289C10.1504 9.96289 9.23633 10.6045 9.00781 11.4922C8.99023 11.6064 8.96387 11.7119 8.96387 11.8262C8.96387 12.1689 9.1748 12.3975 9.5 12.3975C9.79004 12.3975 9.93945 12.2305 10.0449 11.9668C10.2471 11.3779 10.6426 11.0879 11.1963 11.0879C11.8203 11.0879 12.2422 11.4746 12.2422 12.0547C12.2422 12.582 11.8203 13.0215 11.4072 13.5137L9.28906 16.001C9.11328 16.1943 9.04297 16.3701 9.04297 16.5723C9.04297 16.9326 9.28027 17.1611 9.62305 17.1611ZM16.8037 17.3457C18.3418 17.3457 19.3438 16.4053 19.3438 14.876C19.3438 13.5488 18.4385 12.6172 17.1729 12.6172C16.6104 12.6172 16.0215 12.8896 15.7578 13.2852H15.7227L15.8809 11.2109H18.5703C18.8604 11.2109 19.0713 11 19.0713 10.666C19.0713 10.3496 18.8691 10.1387 18.5703 10.1387H15.6699C15.1953 10.1387 14.8877 10.4287 14.8613 10.9297L14.668 13.54C14.6416 14.0234 14.8965 14.3223 15.3184 14.3223C15.6172 14.3223 15.7842 14.2432 16.0479 14.041C16.373 13.7598 16.6279 13.6367 16.9883 13.6367C17.6738 13.6367 18.1484 14.1904 18.1484 14.9111C18.1484 15.7461 17.6299 16.2559 16.874 16.2559C16.3291 16.2559 15.8809 15.957 15.6436 15.5C15.5029 15.2715 15.3447 15.1309 15.1074 15.1309C14.791 15.1309 14.5625 15.3682 14.5625 15.6934C14.5625 15.834 14.5889 15.9658 14.6504 16.0977C14.8965 16.7744 15.7314 17.3457 16.8037 17.3457Z" fill="#1C1C1E"/>
</svg>
