<svg width="28" height="28" viewBox="0 0 28 28" fill="none" xmlns="http://www.w3.org/2000/svg">
<path d="M13.9912 22.7422C18.9746 22.7422 23.0879 18.6289 23.0879 13.6543C23.0879 8.67969 18.9658 4.56641 13.9824 4.56641C9.00781 4.56641 4.90332 8.67969 4.90332 13.6543C4.90332 18.6289 9.0166 22.7422 13.9912 22.7422ZM9.35938 17.3018C8.99902 17.3018 8.75293 17.0645 8.75293 16.6865C8.75293 16.4668 8.82324 16.2822 9.00781 16.0801L11.2051 13.4961C11.627 13.0039 12.0664 12.5381 12.0664 11.9932C12.0664 11.3955 11.6357 10.9912 10.9941 10.9912C10.4141 10.9912 10.0098 11.29 9.80762 11.9053C9.68457 12.1777 9.53516 12.3535 9.23633 12.3535C8.88477 12.3535 8.67383 12.1162 8.67383 11.7559C8.67383 11.6416 8.69141 11.5273 8.71777 11.4043C8.95508 10.4814 9.89551 9.81348 10.9678 9.81348C12.374 9.81348 13.2705 10.6309 13.2705 11.8789C13.2793 12.7578 12.8047 13.3994 12.1279 14.1904L10.5547 16.0273V16.0977H12.8926C13.2266 16.0977 13.4727 16.3086 13.4727 16.6953C13.4727 17.0645 13.2266 17.3018 12.8926 17.3018H9.35938ZM17.0322 17.5039C16.1006 17.5039 15.3271 17.1348 14.8701 16.2471C14.5713 15.6758 14.4043 14.8672 14.4043 13.8213C14.4043 11.1494 15.5029 9.81348 17.1992 9.81348C18.21 9.81348 18.9219 10.3232 19.1592 10.9033C19.2207 11.0439 19.2383 11.1582 19.2383 11.3076C19.2383 11.6328 19.0098 11.8438 18.7373 11.8438C18.4736 11.8438 18.3242 11.7295 18.166 11.5186C17.9551 11.2021 17.6299 10.9736 17.1553 10.9736C16.2412 10.9736 15.5996 11.9316 15.5996 13.4521C15.5996 13.5225 15.6084 13.5664 15.6084 13.6104H15.6787C15.8896 13.0479 16.4609 12.5381 17.3662 12.5381C18.4912 12.5381 19.5195 13.3818 19.5195 14.8848C19.5195 16.5283 18.4912 17.5039 17.0322 17.5039ZM16.9795 16.3877C17.7529 16.3877 18.2539 15.834 18.2539 14.9727C18.2539 14.1465 17.7354 13.584 16.9795 13.584C16.2236 13.584 15.7051 14.1553 15.7051 14.9639C15.7051 15.8076 16.2324 16.3877 16.9795 16.3877Z" fill="#1C1C1E"/>
</svg>
