<svg width="28" height="28" viewBox="0 0 28 28" fill="none" xmlns="http://www.w3.org/2000/svg">
<path d="M8.67383 21.8809H19.3174C21.2246 21.8809 22.209 20.8965 22.209 19.0156V8.31934C22.209 6.43848 21.2246 5.4541 19.3174 5.4541H8.67383C6.77539 5.4541 5.78223 6.42969 5.78223 8.31934V19.0156C5.78223 20.8965 6.77539 21.8809 8.67383 21.8809ZM8.78809 20.1318C7.97949 20.1318 7.53125 19.71 7.53125 18.8574V8.47754C7.53125 7.625 7.97949 7.20312 8.78809 7.20312H19.2031C20.0029 7.20312 20.46 7.625 20.46 8.47754V18.8574C20.46 19.71 20.0029 20.1318 19.2031 20.1318H8.78809ZM9.55273 17.1611H12.9453C13.2705 17.1611 13.5078 16.9326 13.5078 16.5811C13.5078 16.2207 13.2705 16.0098 12.9453 16.0098H10.6865V15.9482L12.2158 14.1641C12.8662 13.4082 13.3145 12.793 13.3145 11.9492C13.3145 10.7451 12.4443 9.96289 11.0996 9.96289C10.0713 9.96289 9.16602 10.6045 8.9375 11.4922C8.91113 11.6064 8.88477 11.7119 8.88477 11.8262C8.88477 12.1689 9.0957 12.3975 9.4209 12.3975C9.71094 12.3975 9.86035 12.2305 9.97461 11.9668C10.168 11.3779 10.5635 11.0879 11.126 11.0879C11.75 11.0879 12.1631 11.4746 12.1631 12.0547C12.1631 12.582 11.7412 13.0215 11.3281 13.5137L9.20996 16.001C9.03418 16.1943 8.96387 16.3701 8.96387 16.5723C8.96387 16.9326 9.20117 17.1611 9.55273 17.1611ZM16.9355 17.3545C18.3418 17.3545 19.3262 16.4141 19.3262 14.8408C19.3262 13.3906 18.3418 12.582 17.252 12.582C16.3818 12.582 15.8281 13.0742 15.6172 13.6104H15.5557C15.5557 13.5752 15.5557 13.5312 15.5557 13.4697C15.5557 12.002 16.1621 11.0615 17.0498 11.0615C17.5156 11.0615 17.832 11.29 18.0342 11.5977C18.1836 11.7998 18.3242 11.9053 18.5791 11.9053C18.834 11.9053 19.0625 11.7031 19.0625 11.3955C19.0625 11.2549 19.0361 11.1406 18.9746 11.0176C18.7549 10.4551 18.0693 9.96289 17.0938 9.96289C15.459 9.96289 14.4043 11.2461 14.4043 13.8125C14.4043 14.8232 14.5713 15.5967 14.8525 16.1504C15.292 17.0029 16.0391 17.3545 16.9355 17.3545ZM16.8828 16.291C16.1533 16.291 15.6436 15.7285 15.6436 14.9111C15.6436 14.1289 16.1445 13.5752 16.8828 13.5752C17.6123 13.5752 18.1133 14.1201 18.1133 14.9199C18.1133 15.7549 17.6299 16.291 16.8828 16.291Z" fill="#1C1C1E"/>
</svg>
