<svg width="28" height="28" viewBox="0 0 28 28" fill="none" xmlns="http://www.w3.org/2000/svg">
<path d="M13.9912 22.7422C18.9746 22.7422 23.0879 18.6289 23.0879 13.6543C23.0879 8.67969 18.9658 4.56641 13.9824 4.56641C9.00781 4.56641 4.90332 8.67969 4.90332 13.6543C4.90332 18.6289 9.0166 22.7422 13.9912 22.7422ZM13.9912 20.9316C9.95703 20.9316 6.73145 17.6885 6.73145 13.6543C6.73145 9.62012 9.95703 6.38574 13.9824 6.38574C18.0166 6.38574 21.2598 9.62012 21.2686 13.6543C21.2773 17.6885 18.0254 20.9316 13.9912 20.9316ZM9.78125 17.1699H13.1826C13.5078 17.1699 13.7363 16.9414 13.7363 16.5811C13.7363 16.2207 13.5078 16.0098 13.1826 16.0098H10.915V15.957L12.4443 14.1729C13.0947 13.417 13.5518 12.793 13.543 11.9492C13.543 10.7539 12.6816 9.96289 11.3281 9.96289C10.2998 9.96289 9.39453 10.6133 9.16602 11.501C9.13965 11.6152 9.12207 11.7207 9.12207 11.835C9.12207 12.1777 9.32422 12.4062 9.6582 12.4062C9.93945 12.4062 10.0889 12.2393 10.2031 11.9668C10.3965 11.3867 10.792 11.0879 11.3545 11.0879C11.9785 11.0879 12.3916 11.4834 12.3916 12.0547C12.3916 12.582 11.9697 13.0303 11.5566 13.5137L9.43848 16.0098C9.27148 16.1943 9.20117 16.3789 9.20117 16.5811C9.20117 16.9414 9.42969 17.1699 9.78125 17.1699ZM15.96 17.2754C16.25 17.2754 16.4258 17.1172 16.5928 16.7832L19.1328 11.5977C19.2559 11.3252 19.291 11.1494 19.291 10.9561C19.291 10.499 18.9746 10.1299 18.4297 10.1299H15.125C14.7822 10.1299 14.5361 10.3496 14.5361 10.6924C14.5361 11.0352 14.791 11.2461 15.125 11.2461H17.9111V11.3076L15.415 16.1855C15.3271 16.335 15.3008 16.458 15.3008 16.6338C15.3008 17.0117 15.5908 17.2754 15.96 17.2754Z" fill="#1C1C1E"/>
</svg>
