<svg width="28" height="28" viewBox="0 0 28 28" fill="none" xmlns="http://www.w3.org/2000/svg">
<path d="M8.67383 21.8809H19.3174C21.2246 21.8809 22.209 20.8965 22.209 19.0156V8.31934C22.209 6.43848 21.2246 5.4541 19.3174 5.4541H8.67383C6.77539 5.4541 5.78223 6.42969 5.78223 8.31934V19.0156C5.78223 20.8965 6.77539 21.8809 8.67383 21.8809ZM8.78809 20.1318C7.97949 20.1318 7.53125 19.71 7.53125 18.8574V8.47754C7.53125 7.625 7.97949 7.20312 8.78809 7.20312H19.2031C20.0029 7.20312 20.46 7.625 20.46 8.47754V18.8574C20.46 19.71 20.0029 20.1318 19.2031 20.1318H8.78809ZM9.79883 17.1611H13.1914C13.5166 17.1611 13.7539 16.9326 13.7539 16.5811C13.7539 16.2207 13.5166 16.0098 13.1914 16.0098H10.9326V15.9482L12.4619 14.1641C13.1123 13.4082 13.5605 12.793 13.5605 11.9492C13.5605 10.7451 12.6904 9.96289 11.3457 9.96289C10.3174 9.96289 9.41211 10.6045 9.18359 11.4922C9.15723 11.6064 9.13086 11.7119 9.13086 11.8262C9.13086 12.1689 9.3418 12.3975 9.66699 12.3975C9.95703 12.3975 10.1064 12.2305 10.2207 11.9668C10.4141 11.3779 10.8096 11.0879 11.3633 11.0879C11.9961 11.0879 12.4092 11.4746 12.4092 12.0547C12.4092 12.582 11.9873 13.0215 11.5742 13.5137L9.45605 16.001C9.28027 16.1943 9.20996 16.3701 9.20996 16.5723C9.20996 16.9326 9.44727 17.1611 9.79883 17.1611ZM15.9775 17.2666C16.2676 17.2666 16.4434 17.1172 16.6104 16.7744L19.1416 11.5889C19.2734 11.3164 19.3086 11.1406 19.3086 10.9561C19.3086 10.499 18.9922 10.1299 18.4473 10.1299H15.1426C14.7998 10.1299 14.5537 10.3408 14.5537 10.6836C14.5537 11.0264 14.7998 11.2373 15.1426 11.2373H17.9287V11.3076L15.4238 16.1855C15.3447 16.335 15.3184 16.4492 15.3184 16.625C15.3184 17.0029 15.5996 17.2666 15.9775 17.2666Z" fill="#1C1C1E"/>
</svg>
