<svg width="28" height="28" viewBox="0 0 28 28" fill="none" xmlns="http://www.w3.org/2000/svg">
<path d="M13.9912 22.7422C18.9746 22.7422 23.0879 18.6289 23.0879 13.6543C23.0879 8.67969 18.9658 4.56641 13.9824 4.56641C9.00781 4.56641 4.90332 8.67969 4.90332 13.6543C4.90332 18.6289 9.0166 22.7422 13.9912 22.7422ZM9.35938 17.3018C8.99902 17.3018 8.75293 17.0645 8.75293 16.6865C8.75293 16.4668 8.82324 16.2822 9.00781 16.0801L11.2051 13.4961C11.627 13.0039 12.0664 12.5381 12.0664 11.9932C12.0664 11.3955 11.6357 10.9912 10.9941 10.9912C10.4141 10.9912 10.0098 11.29 9.80762 11.9053C9.68457 12.1777 9.53516 12.3535 9.23633 12.3535C8.89355 12.3535 8.67383 12.1162 8.67383 11.7559C8.67383 11.6416 8.69141 11.5273 8.71777 11.4043C8.95508 10.4814 9.9043 9.81348 10.9678 9.81348C12.374 9.81348 13.2705 10.6309 13.2793 11.8789C13.2793 12.7578 12.8047 13.3994 12.1279 14.1904L10.5459 16.0273V16.0977H12.8926C13.2354 16.0977 13.4727 16.3086 13.4727 16.6953C13.4727 17.0645 13.2354 17.3018 12.8926 17.3018H9.35938ZM16.9707 17.4951C15.415 17.4951 14.3779 16.625 14.3779 15.3154C14.3779 14.4014 14.9316 13.6719 15.8633 13.4697V13.4082C15.0811 13.1885 14.6416 12.5732 14.6416 11.7822C14.6416 10.6133 15.5996 9.81348 16.9883 9.81348C18.377 9.81348 19.335 10.6133 19.335 11.7822C19.335 12.5732 18.8867 13.2061 18.1133 13.4082V13.4697C19.0361 13.6719 19.5986 14.3926 19.5986 15.3066C19.5986 16.6162 18.5439 17.4951 16.9707 17.4951ZM16.9883 12.9775C17.6211 12.9775 18.0693 12.5293 18.0693 11.9141C18.0693 11.29 17.6211 10.8594 16.9883 10.8594C16.3555 10.8594 15.9072 11.29 15.9072 11.9141C15.9072 12.5293 16.3555 12.9775 16.9883 12.9775ZM16.9971 16.4404C17.7617 16.4404 18.3154 15.9395 18.3154 15.2275C18.3154 14.5068 17.7705 14.0059 16.9971 14.0059C16.2236 14.0059 15.6787 14.5156 15.6787 15.2275C15.6787 15.9395 16.2236 16.4404 16.9971 16.4404Z" fill="#1C1C1E"/>
</svg>
