<svg width="28" height="28" viewBox="0 0 28 28" fill="none" xmlns="http://www.w3.org/2000/svg">
<path d="M13.9912 22.751C18.9746 22.751 23.0879 18.6377 23.0879 13.6631C23.0879 8.67969 18.9658 4.56641 13.9824 4.56641C9.00781 4.56641 4.90332 8.67969 4.90332 13.6631C4.90332 18.6377 9.0166 22.751 13.9912 22.751ZM13.9912 20.9316C9.95703 20.9316 6.73145 17.6973 6.73145 13.6631C6.73145 9.62891 9.95703 6.38574 13.9824 6.38574C18.0166 6.38574 21.2598 9.62891 21.2686 13.6631C21.2773 17.6973 18.0254 20.9316 13.9912 20.9316ZM13.9473 17.8115C15.8896 17.8115 17.085 16.8359 17.085 15.4385C17.085 14.4189 16.3291 13.6016 15.2832 13.5137V13.4346C16.1445 13.3027 16.8301 12.5117 16.8301 11.624C16.8301 10.3848 15.6787 9.51465 14.0176 9.51465C12.5498 9.51465 11.46 10.1562 11.2051 11.167C11.1611 11.2988 11.1523 11.4043 11.1523 11.5449C11.1523 11.958 11.4424 12.2217 11.873 12.2217C12.2158 12.2217 12.4268 12.0723 12.5674 11.7559C12.7695 11.167 13.2705 10.8066 13.9912 10.8066C14.7646 10.8066 15.248 11.1846 15.248 11.8086C15.248 12.4502 14.7119 12.916 13.9561 12.916H13.5078C13.0947 12.916 12.8223 13.1709 12.8223 13.5576C12.8223 13.9355 13.1035 14.1992 13.5078 14.1992H14C14.8877 14.1992 15.4854 14.665 15.4854 15.3594C15.4854 16.0449 14.8789 16.502 13.9824 16.502C13.1299 16.502 12.6465 16.0977 12.4268 15.5527C12.2773 15.2363 12.0576 15.0869 11.7324 15.0869C11.293 15.0869 11.0029 15.3682 11.0029 15.7812C11.0029 15.9219 11.0205 16.0098 11.0557 16.1416C11.3369 17.1348 12.5059 17.8115 13.9473 17.8115Z" fill="#1C1C1E"/>
</svg>
