<svg width="28" height="28" viewBox="0 0 28 28" fill="none" xmlns="http://www.w3.org/2000/svg">
<path d="M8.67383 21.8809H19.3174C21.2246 21.8809 22.209 20.8965 22.209 19.0156V8.31934C22.209 6.43848 21.2246 5.4541 19.3174 5.4541H8.67383C6.77539 5.4541 5.78223 6.42969 5.78223 8.31934V19.0156C5.78223 20.8965 6.77539 21.8809 8.67383 21.8809ZM8.78809 20.1318C7.97949 20.1318 7.53125 19.71 7.53125 18.8574V8.47754C7.53125 7.625 7.97949 7.20312 8.78809 7.20312H19.2031C20.0029 7.20312 20.46 7.625 20.46 8.47754V18.8574C20.46 19.71 20.0029 20.1318 19.2031 20.1318H8.78809ZM13.9648 17.8027C15.9072 17.8027 17.1025 16.8271 17.1025 15.4297C17.1025 14.4102 16.3379 13.5928 15.3008 13.4961V13.4258C16.1621 13.2939 16.8477 12.5029 16.8477 11.6152C16.8477 10.376 15.6875 9.50586 14.0264 9.50586C12.5674 9.50586 11.4688 10.1475 11.2139 11.1582C11.1787 11.29 11.1611 11.3955 11.1611 11.5361C11.1611 11.9404 11.46 12.2129 11.8906 12.2129C12.2246 12.2129 12.4443 12.0635 12.5762 11.7471C12.7871 11.1582 13.2881 10.7979 14.0088 10.7979C14.7822 10.7979 15.2656 11.1758 15.2656 11.7998C15.2656 12.4414 14.7207 12.9072 13.9736 12.9072H13.5166C13.1123 12.9072 12.8398 13.1621 12.8398 13.5488C12.8398 13.918 13.1123 14.1816 13.5166 14.1816H14.0176C14.9053 14.1816 15.4941 14.6562 15.4941 15.3506C15.4941 16.0361 14.8965 16.4932 14 16.4932C13.1475 16.4932 12.6641 16.0889 12.4443 15.5439C12.2861 15.2188 12.0752 15.0781 11.7412 15.0781C11.3105 15.0781 11.0205 15.3594 11.0205 15.7637C11.0205 15.9043 11.0381 16.001 11.0732 16.1328C11.3457 17.126 12.5146 17.8027 13.9648 17.8027Z" fill="#1C1C1E"/>
</svg>
