<svg width="28" height="28" viewBox="0 0 28 28" fill="none" xmlns="http://www.w3.org/2000/svg">
<path d="M13.9912 22.7422C18.9746 22.7422 23.0879 18.6289 23.0879 13.6543C23.0879 8.67969 18.9658 4.56641 13.9824 4.56641C9.00781 4.56641 4.90332 8.67969 4.90332 13.6543C4.90332 18.6289 9.0166 22.7422 13.9912 22.7422ZM13.9912 20.9316C9.95703 20.9316 6.73145 17.6885 6.73145 13.6543C6.73145 9.62012 9.95703 6.38574 13.9824 6.38574C18.0166 6.38574 21.2598 9.62012 21.2686 13.6543C21.2773 17.6885 18.0254 20.9316 13.9912 20.9316ZM11.7324 17.3545C13.2002 17.3545 14.2197 16.4844 14.2197 15.2363C14.2197 14.3311 13.6045 13.5928 12.7607 13.5137V13.4521C13.4551 13.3379 14 12.6348 14 11.8438C14 10.7363 13.0947 9.96289 11.7764 9.96289C10.6162 9.96289 9.77246 10.6396 9.55273 11.4219C9.51758 11.5537 9.50879 11.6504 9.50879 11.7734C9.50879 12.125 9.72852 12.3447 10.0449 12.3447C10.3262 12.3447 10.4756 12.2041 10.5811 11.9316C10.7744 11.3779 11.1523 11.0791 11.75 11.0791C12.3652 11.0791 12.7959 11.457 12.7959 12.0107C12.7959 12.5732 12.374 12.9951 11.75 12.9951H11.3545C11.0293 12.9951 10.8096 13.2148 10.8096 13.5576C10.8096 13.8828 11.0205 14.1289 11.3545 14.1289H11.7852C12.5146 14.1289 12.9805 14.542 12.9805 15.166C12.9805 15.7637 12.4795 16.2207 11.7412 16.2207C11.1348 16.2207 10.6953 15.9219 10.4668 15.3682C10.3525 15.0957 10.1855 14.9639 9.92188 14.9639C9.62305 14.9639 9.37695 15.1836 9.37695 15.5264C9.37695 15.6582 9.39453 15.7549 9.42969 15.8691C9.64941 16.6426 10.5723 17.3545 11.7324 17.3545ZM17.709 17.2666C18.0957 17.2666 18.3242 17.0293 18.3242 16.6162V10.7539C18.3242 10.3057 18.0518 10.0156 17.6123 10.0156C17.3135 10.0156 17.1113 10.0947 16.7773 10.3496L15.5557 11.2197C15.3447 11.3955 15.2305 11.5625 15.2305 11.8174C15.2305 12.125 15.4854 12.3799 15.7666 12.3799C15.9424 12.3799 16.0391 12.3447 16.2412 12.1777L17.0586 11.5449H17.1025V16.6162C17.1025 17.0293 17.3311 17.2666 17.709 17.2666Z" fill="#1C1C1E"/>
</svg>
