<svg width="28" height="28" viewBox="0 0 28 28" fill="none" xmlns="http://www.w3.org/2000/svg">
<path d="M8.67383 21.8809H19.3174C21.2246 21.8809 22.209 20.8965 22.209 19.0156V8.31934C22.209 6.43848 21.2246 5.4541 19.3174 5.4541H8.67383C6.77539 5.4541 5.78223 6.42969 5.78223 8.31934V19.0156C5.78223 20.8965 6.77539 21.8809 8.67383 21.8809ZM8.78809 20.1318C7.97949 20.1318 7.53125 19.71 7.53125 18.8574V8.47754C7.53125 7.625 7.97949 7.20312 8.78809 7.20312H19.2031C20.0029 7.20312 20.46 7.625 20.46 8.47754V18.8574C20.46 19.71 20.0029 20.1318 19.2031 20.1318H8.78809ZM11.1611 17.3457C12.6377 17.3457 13.6484 16.4756 13.6484 15.2275C13.6484 14.3223 13.042 13.584 12.1895 13.5049V13.4521C12.8926 13.3291 13.4375 12.626 13.4375 11.835C13.4375 10.7275 12.5234 9.96289 11.2139 9.96289C10.0537 9.96289 9.20996 10.6309 8.99023 11.4131C8.95508 11.5449 8.94629 11.6416 8.94629 11.7734C8.94629 12.1162 9.15723 12.3447 9.48242 12.3447C9.75488 12.3447 9.91309 12.2041 10.0098 11.9316C10.2031 11.3691 10.5811 11.0703 11.1875 11.0703C11.7939 11.0703 12.2246 11.4482 12.2246 12.002C12.2246 12.5645 11.8115 12.9863 11.1787 12.9863H10.792C10.4668 12.9863 10.2471 13.2148 10.2471 13.5576C10.2471 13.874 10.4492 14.1201 10.792 14.1201H11.2139C11.9521 14.1201 12.418 14.5332 12.418 15.166C12.418 15.7549 11.9082 16.2207 11.1787 16.2207C10.5723 16.2207 10.1328 15.9219 9.9043 15.3594C9.79004 15.0957 9.62305 14.9551 9.35938 14.9551C9.06055 14.9551 8.81445 15.1748 8.81445 15.5264C8.81445 15.6494 8.83203 15.7461 8.86719 15.8691C9.08691 16.6426 10.0098 17.3457 11.1611 17.3457ZM15.3447 17.1611H18.7461C19.0713 17.1611 19.2998 16.9326 19.2998 16.5811C19.2998 16.2207 19.0713 16.0098 18.7461 16.0098H16.4785V15.9482L18.0078 14.1641C18.6582 13.4082 19.1152 12.793 19.1064 11.9492C19.1064 10.7451 18.2451 9.96289 16.8916 9.96289C15.8633 9.96289 14.958 10.6045 14.7295 11.4922C14.7031 11.6064 14.6855 11.7119 14.6855 11.8262C14.6855 12.1689 14.8877 12.3975 15.2217 12.3975C15.5029 12.3975 15.6523 12.2305 15.7666 11.9668C15.96 11.3779 16.3555 11.0879 16.918 11.0879C17.542 11.0879 17.9551 11.4746 17.9551 12.0547C17.9551 12.582 17.5332 13.0215 17.1201 13.5137L15.002 16.001C14.835 16.1943 14.7646 16.3701 14.7646 16.5723C14.7646 16.9326 14.9932 17.1611 15.3447 17.1611Z" fill="#1C1C1E"/>
</svg>
