<svg width="28" height="28" viewBox="0 0 28 28" fill="none" xmlns="http://www.w3.org/2000/svg">
<path d="M8.67383 21.8809H19.3174C21.2246 21.8809 22.209 20.8965 22.209 19.0156V8.31934C22.209 6.43848 21.2246 5.4541 19.3174 5.4541H8.67383C6.77539 5.4541 5.78223 6.42969 5.78223 8.31934V19.0156C5.78223 20.8965 6.77539 21.8809 8.67383 21.8809ZM11.0732 17.4951C9.87793 17.4951 8.91992 16.7568 8.68262 15.957C8.64746 15.834 8.62988 15.7285 8.62988 15.5967C8.62988 15.2363 8.88477 14.999 9.20117 14.999C9.48242 14.999 9.64941 15.1396 9.77246 15.4209C10.0098 16.001 10.458 16.3086 11.082 16.3086C11.8467 16.3086 12.3652 15.834 12.3652 15.2275C12.3652 14.5684 11.8818 14.1465 11.126 14.1465H10.6865C10.335 14.1465 10.1152 13.8916 10.1152 13.5576C10.1152 13.1885 10.3438 12.9512 10.6865 12.9512H11.0908C11.7412 12.9512 12.1631 12.5205 12.1631 11.9404C12.1631 11.3691 11.7236 10.9824 11.0996 10.9824C10.4756 10.9824 10.0801 11.29 9.87793 11.8701C9.78125 12.1514 9.61426 12.292 9.32422 12.292C8.99023 12.292 8.76172 12.0547 8.76172 11.6943C8.76172 11.5625 8.77051 11.457 8.80566 11.3252C9.04297 10.5166 9.91309 9.81348 11.126 9.81348C12.4883 9.81348 13.4375 10.6045 13.4375 11.7646C13.4375 12.582 12.875 13.3203 12.1455 13.4346V13.4961C13.0244 13.584 13.666 14.3398 13.666 15.2891C13.666 16.5898 12.6113 17.4951 11.0732 17.4951ZM15.415 17.3018C15.0547 17.3018 14.8086 17.0645 14.8086 16.6865C14.8086 16.4668 14.8877 16.2822 15.0635 16.0801L17.2607 13.4961C17.6826 13.0039 18.1221 12.5381 18.1221 11.9932C18.1221 11.3955 17.7002 10.9912 17.0498 10.9912C16.4785 10.9912 16.0654 11.29 15.8633 11.9053C15.749 12.1777 15.5908 12.3535 15.2832 12.3535C14.9404 12.3535 14.7295 12.1162 14.7295 11.7559C14.7295 11.6416 14.7471 11.5273 14.7734 11.4043C15.0107 10.4814 15.96 9.81348 17.0234 9.81348C18.4297 9.81348 19.335 10.6309 19.335 11.8789C19.335 12.7578 18.8691 13.3994 18.1924 14.1904L16.6104 16.0273V16.0977H18.9395C19.2822 16.0977 19.5283 16.3086 19.5283 16.6953C19.5283 17.0645 19.2822 17.3018 18.9395 17.3018H15.415Z" fill="#1C1C1E"/>
</svg>
