<svg width="28" height="28" viewBox="0 0 28 28" fill="none" xmlns="http://www.w3.org/2000/svg">
<path d="M13.9912 22.7422C18.9746 22.7422 23.0879 18.6289 23.0879 13.6543C23.0879 8.67969 18.9658 4.56641 13.9824 4.56641C9.00781 4.56641 4.90332 8.67969 4.90332 13.6543C4.90332 18.6289 9.0166 22.7422 13.9912 22.7422ZM13.9912 20.9316C9.95703 20.9316 6.73145 17.6885 6.73145 13.6543C6.73145 9.62012 9.95703 6.38574 13.9824 6.38574C18.0166 6.38574 21.2598 9.62012 21.2686 13.6543C21.2773 17.6885 18.0254 20.9316 13.9912 20.9316ZM11.0645 17.3545C12.541 17.3545 13.5518 16.4844 13.5518 15.2363C13.5518 14.3311 12.9365 13.5928 12.0928 13.5137V13.4521C12.7871 13.3379 13.332 12.6348 13.332 11.8438C13.332 10.7363 12.4268 9.96289 11.1084 9.96289C9.94824 9.96289 9.10449 10.6396 8.88477 11.4219C8.84961 11.5537 8.84082 11.6504 8.84082 11.7734C8.84082 12.125 9.06055 12.3447 9.37695 12.3447C9.6582 12.3447 9.80762 12.2041 9.91309 11.9316C10.1064 11.3779 10.4844 11.0791 11.082 11.0791C11.6973 11.0791 12.1279 11.457 12.1279 12.0107C12.1279 12.5732 11.7061 12.9951 11.082 12.9951H10.6865C10.3613 12.9951 10.1504 13.2148 10.1504 13.5576C10.1504 13.8828 10.3525 14.1289 10.6865 14.1289H11.1172C11.8467 14.1289 12.3125 14.542 12.3125 15.166C12.3125 15.7637 11.8115 16.2207 11.0732 16.2207C10.4668 16.2207 10.0273 15.9219 9.79883 15.3682C9.68457 15.0957 9.52637 14.9639 9.2627 14.9639C8.95508 14.9639 8.70898 15.1836 8.70898 15.5264C8.70898 15.6582 8.72656 15.7549 8.76172 15.8691C8.99023 16.6426 9.91309 17.3545 11.0645 17.3545ZM16.9707 17.3545C18.4473 17.3545 19.458 16.4844 19.458 15.2363C19.458 14.3311 18.8516 13.5928 17.999 13.5137V13.4521C18.7021 13.3379 19.2471 12.6348 19.2471 11.8438C19.2471 10.7363 18.3418 9.96289 17.0234 9.96289C15.8633 9.96289 15.0195 10.6396 14.7998 11.4219C14.7646 11.5537 14.7559 11.6504 14.7559 11.7734C14.7559 12.125 14.9668 12.3447 15.292 12.3447C15.5645 12.3447 15.7227 12.2041 15.8193 11.9316C16.0127 11.3779 16.3994 11.0791 16.9971 11.0791C17.6035 11.0791 18.0342 11.457 18.0342 12.0107C18.0342 12.5732 17.6211 12.9951 16.9971 12.9951H16.6016C16.2764 12.9951 16.0566 13.2148 16.0566 13.5576C16.0566 13.8828 16.2588 14.1289 16.6016 14.1289H17.0234C17.7617 14.1289 18.2275 14.542 18.2275 15.166C18.2275 15.7637 17.7178 16.2207 16.9883 16.2207C16.3818 16.2207 15.9424 15.9219 15.7139 15.3682C15.5996 15.0957 15.4326 14.9639 15.1689 14.9639C14.8701 14.9639 14.624 15.1836 14.624 15.5264C14.624 15.6582 14.6416 15.7549 14.6768 15.8691C14.8965 16.6426 15.8193 17.3545 16.9707 17.3545Z" fill="#1C1C1E"/>
</svg>
