<svg width="28" height="28" viewBox="0 0 28 28" fill="none" xmlns="http://www.w3.org/2000/svg">
<path d="M8.67383 21.8809H19.3174C21.2246 21.8809 22.209 20.8965 22.209 19.0156V8.31934C22.209 6.43848 21.2246 5.4541 19.3174 5.4541H8.67383C6.77539 5.4541 5.78223 6.42969 5.78223 8.31934V19.0156C5.78223 20.8965 6.77539 21.8809 8.67383 21.8809ZM8.78809 20.1318C7.97949 20.1318 7.53125 19.71 7.53125 18.8574V8.47754C7.53125 7.625 7.97949 7.20312 8.78809 7.20312H19.2031C20.0029 7.20312 20.46 7.625 20.46 8.47754V18.8574C20.46 19.71 20.0029 20.1318 19.2031 20.1318H8.78809ZM11.0645 17.3457C12.541 17.3457 13.5518 16.4756 13.5518 15.2275C13.5518 14.3223 12.9453 13.584 12.0928 13.5049V13.4521C12.7959 13.3291 13.3408 12.626 13.3408 11.835C13.3408 10.7275 12.4268 9.96289 11.1172 9.96289C9.95703 9.96289 9.11328 10.6309 8.89355 11.4131C8.8584 11.5449 8.84961 11.6416 8.84961 11.7734C8.84961 12.1162 9.06055 12.3447 9.38574 12.3447C9.6582 12.3447 9.81641 12.2041 9.91309 11.9316C10.1064 11.3691 10.4932 11.0703 11.0908 11.0703C11.6973 11.0703 12.1279 11.4482 12.1279 12.002C12.1279 12.5645 11.7148 12.9863 11.082 12.9863H10.6953C10.3701 12.9863 10.1504 13.2148 10.1504 13.5576C10.1504 13.874 10.3525 14.1201 10.6953 14.1201H11.1172C11.8555 14.1201 12.3213 14.5332 12.3213 15.166C12.3213 15.7549 11.8115 16.2207 11.082 16.2207C10.4756 16.2207 10.0361 15.9219 9.80762 15.3594C9.69336 15.0957 9.52637 14.9551 9.2627 14.9551C8.96387 14.9551 8.71777 15.1748 8.71777 15.5264C8.71777 15.6494 8.73535 15.7461 8.77051 15.8691C8.99023 16.6426 9.91309 17.3457 11.0645 17.3457ZM18.0957 17.3369C18.4736 17.3369 18.6758 17.0732 18.6758 16.7129V15.79H19.0801C19.4141 15.79 19.6162 15.5879 19.6162 15.2539C19.6162 14.9111 19.4053 14.709 19.0801 14.709H18.6758V10.8945C18.6758 10.3232 18.3154 9.96289 17.7266 9.96289C17.1729 9.96289 16.8301 10.1738 16.54 10.7012C15.8809 11.8262 15.0811 13.2412 14.5713 14.208C14.4307 14.4893 14.3691 14.7178 14.3691 14.9902C14.3691 15.4912 14.6855 15.79 15.1777 15.79H17.5244V16.7129C17.5244 17.0732 17.7266 17.3369 18.0957 17.3369ZM17.5244 14.7178H15.6172V14.6738C16.0654 13.7773 16.8652 12.3096 17.4805 11.2285H17.5244V14.7178Z" fill="#1C1C1E"/>
</svg>
