<svg width="28" height="28" viewBox="0 0 28 28" fill="none" xmlns="http://www.w3.org/2000/svg">
<path d="M13.9912 22.7422C18.9746 22.7422 23.0879 18.6289 23.0879 13.6543C23.0879 8.67969 18.9658 4.56641 13.9824 4.56641C9.00781 4.56641 4.90332 8.67969 4.90332 13.6543C4.90332 18.6289 9.0166 22.7422 13.9912 22.7422ZM11.0293 17.4951C9.83398 17.4951 8.86719 16.7568 8.63867 15.957C8.60352 15.834 8.57715 15.7285 8.57715 15.5967C8.57715 15.2363 8.84082 14.999 9.15723 14.999C9.43848 14.999 9.60547 15.1396 9.72852 15.4209C9.95703 16.001 10.4141 16.3086 11.0381 16.3086C11.8027 16.3086 12.3213 15.834 12.3213 15.2275C12.3213 14.5684 11.8379 14.1465 11.082 14.1465H10.6514C10.291 14.1465 10.0801 13.8916 10.0801 13.5576C10.0801 13.1885 10.2998 12.9512 10.6514 12.9512H11.0469C11.6973 12.9512 12.1279 12.5205 12.1279 11.9404C12.1279 11.3691 11.6797 10.9824 11.0469 10.9824C10.4316 10.9824 10.0449 11.29 9.83398 11.8701C9.7373 12.1514 9.57031 12.292 9.28027 12.292C8.94629 12.292 8.71777 12.0547 8.71777 11.6943C8.71777 11.5625 8.72656 11.457 8.76172 11.3252C8.99902 10.5166 9.87793 9.81348 11.0732 9.81348C12.4443 9.81348 13.3936 10.6045 13.3936 11.7646C13.3936 12.582 12.8311 13.3203 12.1016 13.4346V13.4961C12.9805 13.584 13.6133 14.3398 13.6133 15.2891C13.6133 16.5898 12.5674 17.4951 11.0293 17.4951ZM16.9795 17.4951C15.8545 17.4951 14.9932 16.8975 14.7383 16.2031C14.6768 16.0625 14.6504 15.9219 14.6504 15.7637C14.6504 15.4297 14.8877 15.1836 15.2129 15.1836C15.459 15.1836 15.626 15.333 15.7754 15.5703C16.0215 16.0449 16.4873 16.3525 17.041 16.3525C17.832 16.3525 18.3682 15.8252 18.3682 14.9639C18.3682 14.2168 17.876 13.6455 17.1641 13.6455C16.8037 13.6455 16.54 13.7598 16.1973 14.0586C15.9248 14.2695 15.749 14.3574 15.4414 14.3574C14.9932 14.3574 14.7207 14.0322 14.7471 13.5312L14.958 10.8242C14.9844 10.3057 15.3008 9.99805 15.8018 9.99805H18.8076C19.1328 9.99805 19.335 10.2178 19.335 10.5518C19.335 10.8945 19.1152 11.123 18.8076 11.123H16.0215L15.8633 13.2764H15.8984C16.1709 12.8633 16.7773 12.582 17.3662 12.582C18.6758 12.582 19.6162 13.54 19.6162 14.9287C19.6162 16.5107 18.5791 17.4951 16.9795 17.4951Z" fill="#1C1C1E"/>
</svg>
