<svg width="28" height="28" viewBox="0 0 28 28" fill="none" xmlns="http://www.w3.org/2000/svg">
<path d="M8.67383 21.8809H19.3174C21.2246 21.8809 22.209 20.8965 22.209 19.0156V8.31934C22.209 6.43848 21.2246 5.4541 19.3174 5.4541H8.67383C6.77539 5.4541 5.78223 6.42969 5.78223 8.31934V19.0156C5.78223 20.8965 6.77539 21.8809 8.67383 21.8809ZM11.0645 17.4951C9.86914 17.4951 8.90234 16.7568 8.67383 15.957C8.63867 15.834 8.6123 15.7285 8.6123 15.5967C8.6123 15.2363 8.87598 14.999 9.19238 14.999C9.47363 14.999 9.64062 15.1396 9.76367 15.4209C9.99219 16.001 10.4492 16.3086 11.0732 16.3086C11.8379 16.3086 12.3564 15.834 12.3564 15.2275C12.3564 14.5684 11.873 14.1465 11.1172 14.1465H10.6865C10.3262 14.1465 10.1152 13.8916 10.1152 13.5576C10.1152 13.1885 10.3438 12.9512 10.6865 12.9512H11.082C11.7324 12.9512 12.1631 12.5205 12.1631 11.9404C12.1631 11.3691 11.7236 10.9824 11.082 10.9824C10.4668 10.9824 10.0801 11.29 9.86914 11.8701C9.77246 12.1514 9.60547 12.292 9.31543 12.292C8.98145 12.292 8.75293 12.0547 8.75293 11.6943C8.75293 11.5625 8.76172 11.457 8.79688 11.3252C9.03418 10.5166 9.91309 9.81348 11.1084 9.81348C12.4795 9.81348 13.4287 10.6045 13.4287 11.7646C13.4287 12.582 12.8662 13.3203 12.1367 13.4346V13.4961C13.0156 13.584 13.6484 14.3398 13.6484 15.2891C13.6484 16.5898 12.6025 17.4951 11.0645 17.4951ZM17.0146 17.4951C15.8896 17.4951 15.0283 16.8975 14.7734 16.2031C14.7119 16.0625 14.6855 15.9219 14.6855 15.7637C14.6855 15.4297 14.9229 15.1836 15.248 15.1836C15.4941 15.1836 15.6611 15.333 15.8105 15.5703C16.0566 16.0449 16.5225 16.3525 17.0762 16.3525C17.8672 16.3525 18.4033 15.8252 18.4033 14.9639C18.4033 14.2168 17.9111 13.6455 17.1992 13.6455C16.8389 13.6455 16.5752 13.7598 16.2324 14.0586C15.96 14.2695 15.7842 14.3574 15.4766 14.3574C15.0283 14.3574 14.7559 14.0322 14.7822 13.5312L14.9932 10.8242C15.0195 10.3057 15.3359 9.99805 15.8369 9.99805H18.8428C19.168 9.99805 19.3789 10.2178 19.3789 10.5518C19.3789 10.8945 19.1504 11.123 18.8428 11.123H16.0566L15.8984 13.2764H15.9336C16.2061 12.8633 16.8125 12.582 17.4014 12.582C18.7109 12.582 19.6514 13.54 19.6514 14.9287C19.6514 16.5107 18.6143 17.4951 17.0146 17.4951Z" fill="#1C1C1E"/>
</svg>
