<svg width="28" height="28" viewBox="0 0 28 28" fill="none" xmlns="http://www.w3.org/2000/svg">
<path d="M8.67383 21.8809H19.3174C21.2246 21.8809 22.209 20.8965 22.209 19.0156V8.31934C22.209 6.43848 21.2246 5.4541 19.3174 5.4541H8.67383C6.77539 5.4541 5.78223 6.42969 5.78223 8.31934V19.0156C5.78223 20.8965 6.77539 21.8809 8.67383 21.8809ZM8.78809 20.1318C7.97949 20.1318 7.53125 19.71 7.53125 18.8574V8.47754C7.53125 7.625 7.97949 7.20312 8.78809 7.20312H19.2031C20.0029 7.20312 20.46 7.625 20.46 8.47754V18.8574C20.46 19.71 20.0029 20.1318 19.2031 20.1318H8.78809ZM11.1611 17.3457C12.6377 17.3457 13.6484 16.4756 13.6484 15.2275C13.6484 14.3223 13.0332 13.584 12.1895 13.5049V13.4521C12.8838 13.3291 13.4287 12.626 13.4287 11.835C13.4287 10.7275 12.5234 9.96289 11.2051 9.96289C10.0537 9.96289 9.20996 10.6309 8.98145 11.4131C8.94629 11.5449 8.9375 11.6416 8.9375 11.7734C8.9375 12.1162 9.15723 12.3447 9.47363 12.3447C9.75488 12.3447 9.91309 12.2041 10.0098 11.9316C10.2031 11.3691 10.5811 11.0703 11.1787 11.0703C11.7939 11.0703 12.2246 11.4482 12.2246 12.002C12.2246 12.5645 11.8027 12.9863 11.1787 12.9863H10.792C10.458 12.9863 10.2471 13.2148 10.2471 13.5576C10.2471 13.874 10.4492 14.1201 10.792 14.1201H11.2139C11.9521 14.1201 12.4092 14.5332 12.4092 15.166C12.4092 15.7549 11.9082 16.2207 11.1699 16.2207C10.5635 16.2207 10.124 15.9219 9.9043 15.3594C9.78125 15.0957 9.62305 14.9551 9.35938 14.9551C9.05176 14.9551 8.80566 15.1748 8.80566 15.5264C8.80566 15.6494 8.82324 15.7461 8.8584 15.8691C9.08691 16.6426 10.0098 17.3457 11.1611 17.3457ZM16.8828 17.3457C18.4209 17.3457 19.4229 16.4053 19.4229 14.876C19.4229 13.5488 18.5176 12.6172 17.252 12.6172C16.6895 12.6172 16.1006 12.8896 15.8369 13.2852H15.8018L15.9512 11.2109H18.6494C18.9395 11.2109 19.1504 11 19.1504 10.666C19.1504 10.3496 18.9482 10.1387 18.6494 10.1387H15.749C15.2744 10.1387 14.9668 10.4287 14.9404 10.9297L14.7471 13.54C14.7119 14.0234 14.9756 14.3223 15.3975 14.3223C15.6963 14.3223 15.8633 14.2432 16.1182 14.041C16.4521 13.7598 16.707 13.6367 17.0674 13.6367C17.7529 13.6367 18.2275 14.1904 18.2275 14.9111C18.2275 15.7461 17.709 16.2559 16.9531 16.2559C16.3994 16.2559 15.96 15.957 15.7139 15.5C15.582 15.2715 15.415 15.1309 15.1865 15.1309C14.8701 15.1309 14.6416 15.3682 14.6416 15.6934C14.6416 15.834 14.668 15.9658 14.7295 16.0977C14.9756 16.7744 15.8018 17.3457 16.8828 17.3457Z" fill="#1C1C1E"/>
</svg>
