<svg width="28" height="28" viewBox="0 0 28 28" fill="none" xmlns="http://www.w3.org/2000/svg">
<path d="M13.9912 22.7422C18.9746 22.7422 23.0879 18.6289 23.0879 13.6543C23.0879 8.67969 18.9658 4.56641 13.9824 4.56641C9.00781 4.56641 4.90332 8.67969 4.90332 13.6543C4.90332 18.6289 9.0166 22.7422 13.9912 22.7422ZM11.1963 17.4424C10.0098 17.4424 9.06934 16.7217 8.84082 15.9219C8.80566 15.8076 8.78809 15.7021 8.78809 15.5703C8.78809 15.2188 9.04297 14.9902 9.35059 14.9902C9.62305 14.9902 9.78125 15.1309 9.9043 15.4033C10.1416 15.9746 10.5898 16.2822 11.2139 16.2822C11.9609 16.2822 12.4883 15.8164 12.4883 15.2012C12.4883 14.5596 12.0049 14.1377 11.2578 14.1377H10.8184C10.4668 14.1377 10.2559 13.8828 10.2559 13.5576C10.2559 13.1973 10.4844 12.96 10.8184 12.96H11.2227C11.8643 12.96 12.2861 12.5381 12.2861 11.958C12.2861 11.3955 11.8467 11.0088 11.2227 11.0088C10.5986 11.0088 10.2119 11.3164 10.0186 11.8877C9.91309 12.1689 9.75488 12.3096 9.47363 12.3096C9.13965 12.3096 8.91992 12.0723 8.91992 11.7207C8.91992 11.5889 8.92871 11.4834 8.96387 11.3604C9.19238 10.5518 10.0537 9.85742 11.249 9.85742C12.6025 9.85742 13.5254 10.6484 13.5254 11.791C13.5254 12.5996 12.9717 13.3203 12.251 13.4434V13.4961C13.1211 13.584 13.7539 14.3311 13.7539 15.2715C13.7539 16.5459 12.7168 17.4424 11.1963 17.4424ZM16.0303 17.3633C15.6523 17.3633 15.3535 17.0908 15.3535 16.7041C15.3535 16.5195 15.3887 16.4053 15.4678 16.2471L18.0342 11.2373V11.1758H15.1777C14.835 11.1758 14.5713 10.9561 14.5713 10.6045C14.5713 10.2529 14.8262 10.0332 15.1777 10.0332H18.5703C19.124 10.0332 19.4492 10.4199 19.4492 10.8857C19.4492 11.0791 19.4141 11.2637 19.291 11.5361L16.6807 16.8535C16.5137 17.2051 16.3291 17.3633 16.0303 17.3633Z" fill="#1C1C1E"/>
</svg>
