<svg width="28" height="28" viewBox="0 0 28 28" fill="none" xmlns="http://www.w3.org/2000/svg">
<path d="M8.67383 21.8809H19.3174C21.2246 21.8809 22.209 20.8965 22.209 19.0156V8.31934C22.209 6.43848 21.2246 5.4541 19.3174 5.4541H8.67383C6.77539 5.4541 5.78223 6.42969 5.78223 8.31934V19.0156C5.78223 20.8965 6.77539 21.8809 8.67383 21.8809ZM8.78809 20.1318C7.97949 20.1318 7.53125 19.71 7.53125 18.8574V8.47754C7.53125 7.625 7.97949 7.20312 8.78809 7.20312H19.2031C20.0029 7.20312 20.46 7.625 20.46 8.47754V18.8574C20.46 19.71 20.0029 20.1318 19.2031 20.1318H8.78809ZM11.293 17.3457C12.7607 17.3457 13.7715 16.4756 13.7715 15.2275C13.7715 14.3223 13.165 13.584 12.3213 13.5049V13.4521C13.0156 13.3291 13.5605 12.626 13.5605 11.835C13.5605 10.7275 12.6553 9.96289 11.3369 9.96289C10.1768 9.96289 9.33301 10.6309 9.11328 11.4131C9.07812 11.5449 9.06934 11.6416 9.06934 11.7734C9.06934 12.1162 9.28906 12.3447 9.60547 12.3447C9.88672 12.3447 10.0361 12.2041 10.1416 11.9316C10.335 11.3691 10.7129 11.0703 11.3105 11.0703C11.9258 11.0703 12.3564 11.4482 12.3564 12.002C12.3564 12.5645 11.9346 12.9863 11.3105 12.9863H10.915C10.5898 12.9863 10.3701 13.2148 10.3701 13.5576C10.3701 13.874 10.5723 14.1201 10.915 14.1201H11.3369C12.0752 14.1201 12.541 14.5332 12.541 15.166C12.541 15.7549 12.04 16.2207 11.3018 16.2207C10.6953 16.2207 10.2559 15.9219 10.0273 15.3594C9.91309 15.0957 9.74609 14.9551 9.48242 14.9551C9.18359 14.9551 8.9375 15.1748 8.9375 15.5264C8.9375 15.6494 8.95508 15.7461 8.99023 15.8691C9.20996 16.6426 10.1328 17.3457 11.293 17.3457ZM15.9951 17.2666C16.2852 17.2666 16.4697 17.1172 16.6279 16.7744L19.168 11.5889C19.291 11.3164 19.3262 11.1406 19.3262 10.9561C19.3262 10.499 19.0186 10.1299 18.4648 10.1299H15.1602C14.8174 10.1299 14.5713 10.3408 14.5713 10.6836C14.5713 11.0264 14.8262 11.2373 15.1602 11.2373H17.9551V11.3076L15.4502 16.1855C15.3711 16.335 15.3359 16.4492 15.3359 16.625C15.3359 17.0029 15.626 17.2666 15.9951 17.2666Z" fill="#1C1C1E"/>
</svg>
