<svg width="28" height="28" viewBox="0 0 28 28" fill="none" xmlns="http://www.w3.org/2000/svg">
<path d="M13.9912 22.7422C18.9746 22.7422 23.0879 18.6289 23.0879 13.6543C23.0879 8.67969 18.9658 4.56641 13.9824 4.56641C9.00781 4.56641 4.90332 8.67969 4.90332 13.6543C4.90332 18.6289 9.0166 22.7422 13.9912 22.7422ZM11.0645 17.3984C9.9043 17.3984 8.96387 16.6777 8.73535 15.8955C8.7002 15.7725 8.68262 15.6758 8.68262 15.5439C8.68262 15.1924 8.9375 14.9639 9.24512 14.9639C9.51758 14.9639 9.68457 15.1045 9.79883 15.377C10.0273 15.9395 10.4668 16.2383 11.082 16.2383C11.8203 16.2383 12.3301 15.7812 12.3301 15.1836C12.3301 14.5508 11.8643 14.1289 11.1172 14.1289H10.6953C10.3438 14.1289 10.1416 13.8828 10.1416 13.5576C10.1416 13.2061 10.3613 12.9688 10.6953 12.9688H11.0908C11.7148 12.9688 12.1367 12.5469 12.1367 11.9844C12.1367 11.4219 11.7061 11.0527 11.0908 11.0527C10.4844 11.0527 10.1064 11.3516 9.91309 11.9053C9.80762 12.1865 9.64941 12.3271 9.36816 12.3271C9.04297 12.3271 8.82324 12.0986 8.82324 11.7471C8.82324 11.6152 8.83203 11.5186 8.86719 11.3779C9.08691 10.5869 9.94824 9.91016 11.1172 9.91016C12.4531 9.91016 13.3672 10.6836 13.3672 11.8174C13.3672 12.6084 12.8223 13.3291 12.1191 13.4434V13.5049C12.9717 13.584 13.5869 14.3311 13.5869 15.2451C13.5869 16.5107 12.5674 17.3984 11.0645 17.3984ZM17.041 17.3984C15.5293 17.3984 14.5098 16.5459 14.5098 15.2715C14.5098 14.375 15.0547 13.6719 15.9688 13.4785V13.417C15.2041 13.1973 14.7734 12.5996 14.7734 11.8262C14.7734 10.6924 15.7139 9.91016 17.0586 9.91016C18.4033 9.91016 19.3438 10.6924 19.3438 11.8262C19.3438 12.5996 18.9043 13.2148 18.1484 13.417V13.4785C19.0537 13.6719 19.6074 14.3662 19.6074 15.2715C19.6074 16.5371 18.5703 17.3984 17.041 17.3984ZM17.0586 12.9951C17.6826 12.9951 18.1133 12.5557 18.1133 11.958C18.1133 11.3516 17.6826 10.9297 17.0586 10.9297C16.4346 10.9297 16.0039 11.3516 16.0039 11.958C16.0039 12.5557 16.4346 12.9951 17.0586 12.9951ZM17.0674 16.3701C17.8057 16.3701 18.3506 15.8779 18.3506 15.1836C18.3506 14.4893 17.8232 13.9971 17.0674 13.9971C16.3115 13.9971 15.7754 14.498 15.7754 15.1836C15.7754 15.8779 16.3115 16.3701 17.0674 16.3701Z" fill="#1C1C1E"/>
</svg>
