<svg width="28" height="28" viewBox="0 0 28 28" fill="none" xmlns="http://www.w3.org/2000/svg">
<path d="M8.67383 21.8809H19.3174C21.2246 21.8809 22.209 20.8965 22.209 19.0156V8.31934C22.209 6.43848 21.2246 5.4541 19.3174 5.4541H8.67383C6.77539 5.4541 5.78223 6.42969 5.78223 8.31934V19.0156C5.78223 20.8965 6.77539 21.8809 8.67383 21.8809ZM8.78809 20.1318C7.97949 20.1318 7.53125 19.71 7.53125 18.8574V8.47754C7.53125 7.625 7.97949 7.20312 8.78809 7.20312H19.2031C20.0029 7.20312 20.46 7.625 20.46 8.47754V18.8574C20.46 19.71 20.0029 20.1318 19.2031 20.1318H8.78809ZM11.126 17.3457C12.5938 17.3457 13.6133 16.4756 13.6133 15.2275C13.6133 14.3223 12.998 13.584 12.1543 13.5049V13.4521C12.8486 13.3291 13.3936 12.626 13.3936 11.835C13.3936 10.7275 12.4883 9.96289 11.1699 9.96289C10.0098 9.96289 9.16602 10.6309 8.94629 11.4131C8.91113 11.5449 8.90234 11.6416 8.90234 11.7734C8.90234 12.1162 9.12207 12.3447 9.43848 12.3447C9.71973 12.3447 9.86914 12.2041 9.97461 11.9316C10.168 11.3691 10.5459 11.0703 11.1436 11.0703C11.7588 11.0703 12.1895 11.4482 12.1895 12.002C12.1895 12.5645 11.7676 12.9863 11.1436 12.9863H10.748C10.4229 12.9863 10.2031 13.2148 10.2031 13.5576C10.2031 13.874 10.4141 14.1201 10.748 14.1201H11.1787C11.9082 14.1201 12.374 14.5332 12.374 15.166C12.374 15.7549 11.873 16.2207 11.1348 16.2207C10.5283 16.2207 10.0889 15.9219 9.86035 15.3594C9.74609 15.0957 9.5791 14.9551 9.32422 14.9551C9.0166 14.9551 8.77051 15.1748 8.77051 15.5264C8.77051 15.6494 8.78809 15.7461 8.82324 15.8691C9.04297 16.6426 9.96582 17.3457 11.126 17.3457ZM17.0234 17.3457C18.5176 17.3457 19.5459 16.4932 19.5459 15.2451C19.5459 14.3574 19.001 13.6719 18.1133 13.4785V13.4258C18.8604 13.2236 19.291 12.6084 19.291 11.8525C19.291 10.7275 18.3682 9.96289 17.0322 9.96289C15.7051 9.96289 14.7734 10.7275 14.7734 11.8525C14.7734 12.6084 15.2041 13.2061 15.96 13.4258V13.4785C15.0635 13.6719 14.5186 14.3662 14.5186 15.2539C14.5186 16.502 15.5205 17.3457 17.0234 17.3457ZM17.0322 13.0039C16.417 13.0039 15.9863 12.5732 15.9863 11.9756C15.9863 11.3779 16.417 10.9648 17.0322 10.9648C17.6475 10.9648 18.0781 11.3779 18.0781 11.9756C18.0781 12.5732 17.6475 13.0039 17.0322 13.0039ZM17.041 16.3438C16.2939 16.3438 15.7578 15.8604 15.7578 15.166C15.7578 14.4805 16.2939 13.9883 17.041 13.9883C17.7969 13.9883 18.3154 14.4717 18.3154 15.166C18.3154 15.8604 17.7793 16.3438 17.041 16.3438Z" fill="#1C1C1E"/>
</svg>
