<svg width="28" height="28" viewBox="0 0 28 28" fill="none" xmlns="http://www.w3.org/2000/svg">
<path d="M13.9912 22.7422C18.9746 22.7422 23.0879 18.6289 23.0879 13.6543C23.0879 8.67969 18.9658 4.56641 13.9824 4.56641C9.00781 4.56641 4.90332 8.67969 4.90332 13.6543C4.90332 18.6289 9.0166 22.7422 13.9912 22.7422ZM13.9912 20.9316C9.95703 20.9316 6.73145 17.6885 6.73145 13.6543C6.73145 9.62012 9.95703 6.38574 13.9824 6.38574C18.0166 6.38574 21.2598 9.62012 21.2686 13.6543C21.2773 17.6885 18.0254 20.9316 13.9912 20.9316ZM11.082 17.3545C12.5586 17.3545 13.5693 16.4844 13.5693 15.2363C13.5693 14.3311 12.9629 13.5928 12.1104 13.5137V13.4521C12.8135 13.3379 13.3496 12.6348 13.3496 11.8438C13.3496 10.7363 12.4443 9.96289 11.1348 9.96289C9.97461 9.96289 9.13086 10.6396 8.91113 11.4219C8.87598 11.5537 8.86719 11.6504 8.86719 11.7734C8.86719 12.125 9.07812 12.3447 9.40332 12.3447C9.67578 12.3447 9.83398 12.2041 9.93066 11.9316C10.124 11.3779 10.502 11.0791 11.1084 11.0791C11.7148 11.0791 12.1455 11.457 12.1455 12.0107C12.1455 12.5732 11.7236 12.9951 11.0996 12.9951H10.7129C10.3789 12.9951 10.168 13.2148 10.168 13.5576C10.168 13.8828 10.3701 14.1289 10.7129 14.1289H11.1348C11.873 14.1289 12.3389 14.542 12.3389 15.166C12.3389 15.7637 11.8291 16.2207 11.0996 16.2207C10.4844 16.2207 10.0537 15.9219 9.8252 15.3682C9.70215 15.0957 9.54395 14.9639 9.28027 14.9639C8.98145 14.9639 8.73535 15.1836 8.73535 15.5264C8.73535 15.6582 8.75293 15.7549 8.7793 15.8691C9.00781 16.6426 9.93066 17.3545 11.082 17.3545ZM16.7686 17.3545C18.4912 17.3545 19.4141 15.9834 19.4141 13.417C19.4141 11.2021 18.5088 9.96289 16.8652 9.96289C15.4238 9.96289 14.4746 10.9385 14.4746 12.4502C14.4746 13.9004 15.4326 14.7354 16.5664 14.7354C17.4541 14.7354 17.999 14.2695 18.2188 13.6807H18.2715C18.2891 15.2363 17.709 16.2471 16.7598 16.2471C16.3027 16.2471 15.9512 16.0186 15.749 15.6846C15.5996 15.4385 15.415 15.3418 15.1953 15.3418C14.8877 15.3418 14.6768 15.5703 14.6768 15.8955C14.6768 16.001 14.7119 16.1328 14.7646 16.2471C14.9141 16.7305 15.6084 17.3545 16.7686 17.3545ZM16.9268 13.751C16.1885 13.751 15.6875 13.1885 15.6875 12.3887C15.6875 11.5625 16.1797 11.0176 16.9355 11.0176C17.6475 11.0176 18.166 11.5889 18.166 12.4062C18.166 13.1885 17.6562 13.751 16.9268 13.751Z" fill="#1C1C1E"/>
</svg>
