<svg width="28" height="28" viewBox="0 0 28 28" fill="none" xmlns="http://www.w3.org/2000/svg">
<path d="M13.9912 22.7422C18.9746 22.7422 23.0879 18.6289 23.0879 13.6543C23.0879 8.67969 18.9658 4.56641 13.9824 4.56641C9.00781 4.56641 4.90332 8.67969 4.90332 13.6543C4.90332 18.6289 9.0166 22.7422 13.9912 22.7422ZM11.0469 17.3984C9.87793 17.3984 8.9375 16.6777 8.71777 15.8955C8.68262 15.7725 8.66504 15.6758 8.66504 15.5439C8.66504 15.1924 8.91113 14.9639 9.21875 14.9639C9.49121 14.9639 9.6582 15.1045 9.77246 15.377C10.0098 15.9395 10.4492 16.2383 11.0645 16.2383C11.7939 16.2383 12.3037 15.7812 12.3037 15.1836C12.3037 14.5508 11.8379 14.1289 11.0996 14.1289H10.6689C10.3262 14.1289 10.1152 13.8828 10.1152 13.5576C10.1152 13.2061 10.335 12.9688 10.6689 12.9688H11.0645C11.6973 12.9688 12.1104 12.5469 12.1104 11.9844C12.1104 11.4219 11.6797 11.0527 11.0645 11.0527C10.4668 11.0527 10.0801 11.3516 9.88672 11.9053C9.78125 12.1865 9.62305 12.3271 9.3418 12.3271C9.0166 12.3271 8.79688 12.0986 8.79688 11.7471C8.79688 11.6152 8.80566 11.5186 8.84082 11.3779C9.06934 10.5869 9.92188 9.91016 11.0908 9.91016C12.4268 9.91016 13.3496 10.6836 13.3496 11.8174C13.3496 12.6084 12.7959 13.3291 12.0928 13.4434V13.5049C12.9453 13.584 13.5693 14.3311 13.5693 15.2451C13.5693 16.5107 12.541 17.3984 11.0469 17.3984ZM16.8125 17.3984C15.6348 17.3984 14.9316 16.7656 14.7734 16.2822C14.7207 16.1592 14.6855 16.0273 14.6855 15.9219C14.6855 15.5879 14.8965 15.3594 15.2129 15.3594C15.4414 15.3594 15.626 15.4561 15.7754 15.7021C15.9775 16.0361 16.3379 16.2734 16.7949 16.2734C17.7529 16.2734 18.333 15.2451 18.3242 13.6719H18.2715C18.0518 14.2695 17.498 14.7441 16.6016 14.7441C15.4502 14.7441 14.4834 13.8916 14.4834 12.4326C14.4834 10.8945 15.4502 9.91016 16.9092 9.91016C18.5791 9.91016 19.4932 11.167 19.4932 13.4082C19.4932 16.0098 18.5527 17.3984 16.8125 17.3984ZM16.9707 13.7334C17.7002 13.7334 18.2188 13.1709 18.2188 12.3799C18.2188 11.5625 17.6914 10.9824 16.9707 10.9824C16.2148 10.9824 15.7227 11.5361 15.7227 12.3711C15.7227 13.1709 16.2236 13.7334 16.9707 13.7334Z" fill="#1C1C1E"/>
</svg>
