<svg width="28" height="28" viewBox="0 0 28 28" fill="none" xmlns="http://www.w3.org/2000/svg">
<path d="M8.67383 21.8809H19.3174C21.2246 21.8809 22.209 20.8965 22.209 19.0156V8.31934C22.209 6.43848 21.2246 5.4541 19.3174 5.4541H8.67383C6.77539 5.4541 5.78223 6.42969 5.78223 8.31934V19.0156C5.78223 20.8965 6.77539 21.8809 8.67383 21.8809ZM10.4668 15.2979C10.4668 15.043 10.5371 14.8057 10.6689 14.5332C11.5654 12.9336 12.3828 11.457 13.2705 9.86621C13.4639 9.52344 13.6836 9.35645 14.0352 9.35645C14.5098 9.35645 14.7998 9.70801 14.7998 10.1123C14.7998 10.2881 14.7471 10.4375 14.6504 10.6484C13.9209 12.0283 13.165 13.3906 12.4268 14.7705H14.6504V13.1006C14.6504 12.582 14.9492 12.2568 15.4238 12.2568C15.9248 12.2568 16.2236 12.5732 16.2236 13.1006V14.7705H16.7334C17.2168 14.7705 17.5068 15.043 17.5068 15.4561C17.5068 15.8955 17.2168 16.1855 16.7334 16.1855H16.2236V16.9502C16.2236 17.5127 15.9248 17.8203 15.4238 17.8203C14.9492 17.8203 14.6504 17.5039 14.6504 16.9502V16.1855H11.3984C10.8271 16.1855 10.4668 15.8516 10.4668 15.2979Z" fill="#1C1C1E"/>
</svg>
