<svg width="28" height="28" viewBox="0 0 28 28" fill="none" xmlns="http://www.w3.org/2000/svg">
<path d="M13.9912 22.7422C18.9746 22.7422 23.0879 18.6289 23.0879 13.6543C23.0879 8.67969 18.9658 4.56641 13.9824 4.56641C9.00781 4.56641 4.90332 8.67969 4.90332 13.6543C4.90332 18.6289 9.0166 22.7422 13.9912 22.7422ZM10.4316 15.2979C10.4316 15.043 10.502 14.8057 10.6338 14.5332C11.5303 12.9336 12.3477 11.457 13.2354 9.86621C13.4287 9.52344 13.6484 9.35645 14 9.35645C14.4746 9.35645 14.7646 9.70801 14.7646 10.1123C14.7646 10.2881 14.7119 10.4375 14.6152 10.6484C13.8857 12.0283 13.1299 13.3906 12.3916 14.7705H14.6152V13.1006C14.6152 12.582 14.9141 12.2568 15.3887 12.2568C15.8896 12.2568 16.1885 12.5732 16.1885 13.1006V14.7705H16.6982C17.1816 14.7705 17.4717 15.043 17.4717 15.4561C17.4717 15.8955 17.1816 16.1855 16.6982 16.1855H16.1885V16.9502C16.1885 17.5127 15.8896 17.8203 15.3887 17.8203C14.9141 17.8203 14.6152 17.5039 14.6152 16.9502V16.1855H11.3633C10.792 16.1855 10.4316 15.8516 10.4316 15.2979Z" fill="#1C1C1E"/>
</svg>
