<svg width="28" height="28" viewBox="0 0 28 28" fill="none" xmlns="http://www.w3.org/2000/svg">
<path d="M8.67383 21.8809H19.3174C21.2246 21.8809 22.209 20.8965 22.209 19.0156V8.31934C22.209 6.43848 21.2246 5.4541 19.3174 5.4541H8.67383C6.77539 5.4541 5.78223 6.42969 5.78223 8.31934V19.0156C5.78223 20.8965 6.77539 21.8809 8.67383 21.8809ZM8.78809 20.1318C7.97949 20.1318 7.53125 19.71 7.53125 18.8574V8.47754C7.53125 7.625 7.97949 7.20312 8.78809 7.20312H19.2031C20.0029 7.20312 20.46 7.625 20.46 8.47754V18.8574C20.46 19.71 20.0029 20.1318 19.2031 20.1318H8.78809ZM12.2773 17.3369C12.6465 17.3369 12.8574 17.0732 12.8574 16.7129V15.79H13.2617C13.5957 15.79 13.7979 15.5879 13.7979 15.2539C13.7979 14.9111 13.5869 14.709 13.2617 14.709H12.8574V10.8945C12.8574 10.3232 12.4883 9.96289 11.9082 9.96289C11.3457 9.96289 11.0117 10.1738 10.7129 10.7012C10.0625 11.8262 9.2627 13.2412 8.75293 14.208C8.6123 14.4893 8.55078 14.7178 8.55078 14.9902C8.55078 15.4912 8.86719 15.79 9.35938 15.79H11.7061V16.7129C11.7061 17.0732 11.9082 17.3369 12.2773 17.3369ZM17.041 17.3457C18.5088 17.3457 19.502 15.9922 19.502 13.6543C19.502 11.3076 18.5088 9.96289 17.041 9.96289C15.5645 9.96289 14.5889 11.3076 14.5889 13.6543C14.5889 15.9922 15.5645 17.3457 17.041 17.3457ZM17.041 16.1592C16.3115 16.1592 15.8545 15.2539 15.8545 13.6543C15.8545 12.0547 16.3115 11.1494 17.041 11.1494C17.7705 11.1494 18.2275 12.0547 18.2275 13.6543C18.2275 15.2539 17.7793 16.1592 17.041 16.1592ZM11.7061 14.7178H9.79004V14.6738C10.2471 13.7773 11.0469 12.3096 11.6621 11.2285H11.7061V14.7178Z" fill="#1C1C1E"/>
</svg>
