<svg width="28" height="28" viewBox="0 0 28 28" fill="none" xmlns="http://www.w3.org/2000/svg">
<path d="M8.67383 21.8809H19.3174C21.2246 21.8809 22.209 20.8965 22.209 19.0156V8.31934C22.209 6.43848 21.2246 5.4541 19.3174 5.4541H8.67383C6.77539 5.4541 5.78223 6.42969 5.78223 8.31934V19.0156C5.78223 20.8965 6.77539 21.8809 8.67383 21.8809ZM12.2246 17.4863C11.8467 17.4863 11.6357 17.2051 11.6357 16.8271V15.8779H9.20996C8.69141 15.8779 8.35742 15.5703 8.35742 15.043C8.35742 14.7529 8.41895 14.5156 8.56836 14.2168C9.0957 13.2148 9.91309 11.7559 10.5986 10.5869C10.9062 10.042 11.2578 9.81348 11.8379 9.81348C12.4531 9.81348 12.8398 10.2002 12.8398 10.7891V14.7441H13.2529C13.5957 14.7441 13.8066 14.9639 13.8066 15.3242C13.8066 15.667 13.5957 15.8779 13.2529 15.8779H12.8398V16.8271C12.8398 17.2139 12.6201 17.4863 12.2246 17.4863ZM17.1816 17.4951C15.6523 17.4951 14.6328 16.0977 14.6328 13.6543C14.6328 11.2109 15.6523 9.81348 17.1816 9.81348C18.7109 9.81348 19.7393 11.2109 19.7393 13.6543C19.7393 16.0977 18.7109 17.4951 17.1816 17.4951ZM17.1816 16.2471C17.9463 16.2471 18.4033 15.3154 18.4033 13.6543C18.4033 11.9932 17.9375 11.0615 17.1816 11.0615C16.4258 11.0615 15.96 11.9932 15.96 13.6543C15.96 15.3154 16.4258 16.2471 17.1816 16.2471ZM11.6357 14.7529V11.1406H11.583C10.9502 12.2656 10.1328 13.7773 9.6582 14.709V14.7529H11.6357Z" fill="#1C1C1E"/>
</svg>
