<svg width="28" height="28" viewBox="0 0 28 28" fill="none" xmlns="http://www.w3.org/2000/svg">
<path d="M13.9912 22.7422C18.9746 22.7422 23.0879 18.6289 23.0879 13.6543C23.0879 8.67969 18.9658 4.56641 13.9824 4.56641C9.00781 4.56641 4.90332 8.67969 4.90332 13.6543C4.90332 18.6289 9.0166 22.7422 13.9912 22.7422ZM13.9912 20.9316C9.95703 20.9316 6.73145 17.6885 6.73145 13.6543C6.73145 9.62012 9.95703 6.38574 13.9824 6.38574C18.0166 6.38574 21.2598 9.62012 21.2686 13.6543C21.2773 17.6885 18.0254 20.9316 13.9912 20.9316ZM12.3037 17.3457C12.6816 17.3457 12.8838 17.082 12.8838 16.7217V15.79H13.2881C13.6221 15.79 13.8242 15.5967 13.8242 15.2627C13.8242 14.9199 13.6221 14.7178 13.2881 14.7178H12.8838V10.8945C12.8838 10.332 12.5234 9.96289 11.9346 9.96289C11.3809 9.96289 11.0381 10.1826 10.748 10.71C10.0889 11.835 9.28906 13.25 8.7793 14.208C8.63867 14.498 8.57715 14.7178 8.57715 14.9902C8.57715 15.5 8.89355 15.7988 9.38574 15.7988H11.7324V16.7217C11.7324 17.0732 11.9346 17.3457 12.3037 17.3457ZM15.248 17.1699H18.6494C18.9746 17.1699 19.2031 16.9414 19.2031 16.5811C19.2031 16.2207 18.9746 16.0098 18.6494 16.0098H16.3906V15.957L17.9111 14.1729C18.5615 13.417 19.0186 12.793 19.0186 11.9492C19.0098 10.7539 18.1484 9.96289 16.7949 9.96289C15.7666 9.96289 14.8613 10.6133 14.6328 11.501C14.6064 11.6152 14.5889 11.7207 14.5889 11.835C14.5889 12.1777 14.791 12.4062 15.125 12.4062C15.415 12.4062 15.5557 12.2393 15.6699 11.9668C15.8633 11.3867 16.2588 11.0879 16.8213 11.0879C17.4453 11.0879 17.8584 11.4834 17.8584 12.0547C17.8584 12.582 17.4365 13.0303 17.0234 13.5137L14.9053 16.0098C14.7383 16.1943 14.668 16.3789 14.668 16.5811C14.668 16.9414 14.9053 17.1699 15.248 17.1699ZM11.7324 14.7178H9.8252V14.6826C10.2734 13.7773 11.0732 12.3184 11.6885 11.2373H11.7324V14.7178Z" fill="#1C1C1E"/>
</svg>
