<svg width="28" height="28" viewBox="0 0 28 28" fill="none" xmlns="http://www.w3.org/2000/svg">
<path d="M8.67383 21.8809H19.3174C21.2246 21.8809 22.209 20.8965 22.209 19.0156V8.31934C22.209 6.43848 21.2246 5.4541 19.3174 5.4541H8.67383C6.77539 5.4541 5.78223 6.42969 5.78223 8.31934V19.0156C5.78223 20.8965 6.77539 21.8809 8.67383 21.8809ZM8.78809 20.1318C7.97949 20.1318 7.53125 19.71 7.53125 18.8574V8.47754C7.53125 7.625 7.97949 7.20312 8.78809 7.20312H19.2031C20.0029 7.20312 20.46 7.625 20.46 8.47754V18.8574C20.46 19.71 20.0029 20.1318 19.2031 20.1318H8.78809ZM12.3125 17.3369C12.6904 17.3369 12.9014 17.0732 12.9014 16.7129V15.79H13.3057C13.6309 15.79 13.833 15.5879 13.833 15.2539C13.833 14.9111 13.6309 14.709 13.3057 14.709H12.9014V10.8945C12.9014 10.3232 12.5322 9.96289 11.9521 9.96289C11.3896 9.96289 11.0557 10.1738 10.7568 10.7012C10.1064 11.8262 9.30664 13.2412 8.78809 14.208C8.65625 14.4893 8.59473 14.7178 8.59473 14.9902C8.59473 15.4912 8.91113 15.79 9.40332 15.79H11.75V16.7129C11.75 17.0732 11.9521 17.3369 12.3125 17.3369ZM15.2656 17.1611H18.667C18.9922 17.1611 19.2207 16.9326 19.2207 16.5811C19.2207 16.2207 18.9922 16.0098 18.667 16.0098H16.3994V15.9482L17.9287 14.1641C18.5791 13.4082 19.0361 12.793 19.0273 11.9492C19.0273 10.7451 18.166 9.96289 16.8125 9.96289C15.7842 9.96289 14.8789 10.6045 14.6504 11.4922C14.624 11.6064 14.6064 11.7119 14.6064 11.8262C14.6064 12.1689 14.8086 12.3975 15.1426 12.3975C15.4238 12.3975 15.5732 12.2305 15.6875 11.9668C15.8809 11.3779 16.2764 11.0879 16.8389 11.0879C17.4629 11.0879 17.876 11.4746 17.876 12.0547C17.876 12.582 17.4541 13.0215 17.041 13.5137L14.9229 16.001C14.7471 16.1943 14.6855 16.3701 14.6855 16.5723C14.6855 16.9326 14.9141 17.1611 15.2656 17.1611ZM11.75 14.7178H9.83398V14.6738C10.291 13.7773 11.0908 12.3096 11.7061 11.2285H11.75V14.7178Z" fill="#1C1C1E"/>
</svg>
