<svg width="28" height="28" viewBox="0 0 28 28" fill="none" xmlns="http://www.w3.org/2000/svg">
<path d="M13.9912 22.7422C18.9746 22.7422 23.0879 18.6289 23.0879 13.6543C23.0879 8.67969 18.9658 4.56641 13.9824 4.56641C9.00781 4.56641 4.90332 8.67969 4.90332 13.6543C4.90332 18.6289 9.0166 22.7422 13.9912 22.7422ZM13.9912 20.9316C9.95703 20.9316 6.73145 17.6885 6.73145 13.6543C6.73145 9.62012 9.95703 6.38574 13.9824 6.38574C18.0166 6.38574 21.2598 9.62012 21.2686 13.6543C21.2773 17.6885 18.0254 20.9316 13.9912 20.9316ZM12.3213 17.3457C12.6904 17.3457 12.9014 17.082 12.9014 16.7217V15.79H13.3057C13.6396 15.79 13.8418 15.5967 13.8418 15.2627C13.8418 14.9199 13.6309 14.7178 13.3057 14.7178H12.9014V10.8945C12.9014 10.332 12.5322 9.96289 11.9521 9.96289C11.3896 9.96289 11.0557 10.1826 10.7568 10.71C10.1064 11.835 9.30664 13.25 8.79688 14.208C8.65625 14.498 8.59473 14.7178 8.59473 14.9902C8.59473 15.5 8.91113 15.7988 9.40332 15.7988H11.75V16.7217C11.75 17.0732 11.9521 17.3457 12.3213 17.3457ZM16.9092 17.3545C18.3857 17.3545 19.3965 16.4844 19.3965 15.2363C19.3965 14.3311 18.7812 13.5928 17.9375 13.5137V13.4521C18.6318 13.3379 19.1768 12.6348 19.1768 11.8438C19.1768 10.7363 18.2715 9.96289 16.9531 9.96289C15.8018 9.96289 14.958 10.6396 14.7295 11.4219C14.6943 11.5537 14.6855 11.6504 14.6855 11.7734C14.6855 12.125 14.9053 12.3447 15.2217 12.3447C15.5029 12.3447 15.6611 12.2041 15.7578 11.9316C15.9512 11.3779 16.3291 11.0791 16.9268 11.0791C17.542 11.0791 17.9727 11.457 17.9727 12.0107C17.9727 12.5732 17.5508 12.9951 16.9268 12.9951H16.5312C16.2061 12.9951 15.9951 13.2148 15.9951 13.5576C15.9951 13.8828 16.1973 14.1289 16.5312 14.1289H16.9619C17.6914 14.1289 18.1572 14.542 18.1572 15.166C18.1572 15.7637 17.6562 16.2207 16.918 16.2207C16.3115 16.2207 15.8721 15.9219 15.6436 15.3682C15.5293 15.0957 15.3711 14.9639 15.1074 14.9639C14.7998 14.9639 14.5537 15.1836 14.5537 15.5264C14.5537 15.6582 14.5713 15.7549 14.6064 15.8691C14.835 16.6426 15.7578 17.3545 16.9092 17.3545ZM11.75 14.7178H9.83398V14.6826C10.291 13.7773 11.0908 12.3184 11.7061 11.2373H11.75V14.7178Z" fill="#1C1C1E"/>
</svg>
