<svg width="28" height="28" viewBox="0 0 28 28" fill="none" xmlns="http://www.w3.org/2000/svg">
<path d="M8.67383 21.8809H19.3174C21.2246 21.8809 22.209 20.8965 22.209 19.0156V8.31934C22.209 6.43848 21.2246 5.4541 19.3174 5.4541H8.67383C6.77539 5.4541 5.78223 6.42969 5.78223 8.31934V19.0156C5.78223 20.8965 6.77539 21.8809 8.67383 21.8809ZM12.2861 17.4863C11.8994 17.4863 11.6885 17.2051 11.6885 16.8271V15.8779H9.2627C8.74414 15.8779 8.41895 15.5703 8.41895 15.043C8.41895 14.7529 8.48047 14.5156 8.62988 14.2168C9.15723 13.2148 9.97461 11.7646 10.6514 10.5869C10.959 10.042 11.3193 9.81348 11.9082 9.81348C12.5146 9.81348 12.9014 10.2002 12.9014 10.7891V14.7441H13.3145C13.6572 14.7441 13.8682 14.9639 13.8682 15.3242C13.8682 15.667 13.6572 15.8779 13.3145 15.8779H12.9014V16.8271C12.9014 17.2139 12.6816 17.4863 12.2861 17.4863ZM17.0586 17.4951C15.8545 17.4951 14.8965 16.7568 14.6592 15.957C14.6328 15.834 14.6152 15.7285 14.6152 15.5967C14.6152 15.2363 14.8701 14.999 15.1865 14.999C15.459 14.999 15.6348 15.1396 15.749 15.4209C15.9863 16.001 16.4346 16.3086 17.0762 16.3086C17.8232 16.3086 18.3506 15.834 18.3506 15.2275C18.3506 14.5684 17.876 14.1465 17.1113 14.1465H16.6719C16.3115 14.1465 16.1006 13.8916 16.1006 13.5576C16.1006 13.1885 16.3291 12.9512 16.6719 12.9512H17.0762C17.7178 12.9512 18.1572 12.5205 18.1572 11.9404C18.1572 11.3691 17.709 10.9824 17.085 10.9824C16.4609 10.9824 16.0654 11.29 15.8721 11.8701C15.7578 12.1514 15.5996 12.292 15.3096 12.292C14.9668 12.292 14.7471 12.0547 14.7471 11.6943C14.7471 11.5625 14.7559 11.457 14.7998 11.3252C15.0195 10.5166 15.9072 9.81348 17.1113 9.81348C18.4736 9.81348 19.4141 10.6133 19.4141 11.7646C19.4141 12.582 18.8516 13.3203 18.1309 13.4346V13.4961C19.0098 13.584 19.6426 14.3398 19.6426 15.2891C19.6426 16.5898 18.5879 17.4951 17.0586 17.4951ZM11.6885 14.7529V11.1406H11.6445C11.0117 12.2656 10.1855 13.7773 9.71973 14.709V14.7529H11.6885Z" fill="#1C1C1E"/>
</svg>
