<svg width="28" height="28" viewBox="0 0 28 28" fill="none" xmlns="http://www.w3.org/2000/svg">
<path d="M13.9912 22.7422C18.9746 22.7422 23.0879 18.6289 23.0879 13.6543C23.0879 8.67969 18.9658 4.56641 13.9824 4.56641C9.00781 4.56641 4.90332 8.67969 4.90332 13.6543C4.90332 18.6289 9.0166 22.7422 13.9912 22.7422ZM13.9912 20.9316C9.95703 20.9316 6.73145 17.6885 6.73145 13.6543C6.73145 9.62012 9.95703 6.38574 13.9824 6.38574C18.0166 6.38574 21.2598 9.62012 21.2686 13.6543C21.2773 17.6885 18.0254 20.9316 13.9912 20.9316ZM12.0928 17.3457C12.4707 17.3457 12.6729 17.082 12.6729 16.7217V15.79H13.0771C13.4111 15.79 13.6133 15.5967 13.6133 15.2627C13.6133 14.9199 13.4111 14.7178 13.0771 14.7178H12.6729V10.8945C12.6729 10.332 12.3125 9.96289 11.7236 9.96289C11.1699 9.96289 10.8271 10.1826 10.5371 10.71C9.87793 11.835 9.07812 13.25 8.56836 14.208C8.42773 14.498 8.36621 14.7178 8.36621 14.9902C8.36621 15.5 8.68262 15.7988 9.1748 15.7988H11.5215V16.7217C11.5215 17.0732 11.7236 17.3457 12.0928 17.3457ZM17.9902 17.3457C18.3682 17.3457 18.5791 17.082 18.5791 16.7217V15.79H18.9834C19.3086 15.79 19.5107 15.5967 19.5107 15.2627C19.5107 14.9199 19.3086 14.7178 18.9834 14.7178H18.5791V10.8945C18.5791 10.332 18.21 9.96289 17.6299 9.96289C17.0674 9.96289 16.7334 10.1826 16.4346 10.71C15.7754 11.835 14.9844 13.25 14.4658 14.208C14.334 14.498 14.2725 14.7178 14.2725 14.9902C14.2725 15.5 14.5889 15.7988 15.0811 15.7988H17.4189V16.7217C17.4189 17.0732 17.6299 17.3457 17.9902 17.3457ZM11.5215 14.7178H9.61426V14.6826C10.0625 13.7773 10.8623 12.3184 11.4775 11.2373H11.5215V14.7178ZM17.4189 14.7178H15.5117V14.6826C15.96 13.7773 16.7686 12.3184 17.375 11.2373H17.4189V14.7178Z" fill="#1C1C1E"/>
</svg>
