<svg width="28" height="28" viewBox="0 0 28 28" fill="none" xmlns="http://www.w3.org/2000/svg">
<path d="M13.9912 22.7422C18.9746 22.7422 23.0879 18.6289 23.0879 13.6543C23.0879 8.67969 18.9658 4.56641 13.9824 4.56641C9.00781 4.56641 4.90332 8.67969 4.90332 13.6543C4.90332 18.6289 9.0166 22.7422 13.9912 22.7422ZM12.0137 17.4863C11.6357 17.4863 11.4248 17.2051 11.4248 16.8271V15.8779H8.99902C8.48047 15.8779 8.15527 15.5703 8.15527 15.043C8.15527 14.7529 8.2168 14.5156 8.35742 14.2168C8.88477 13.2148 9.71094 11.7646 10.3877 10.5869C10.7041 10.042 11.0469 9.81348 11.6357 9.81348C12.251 9.81348 12.6377 10.2002 12.6377 10.7891V14.7441H13.0508C13.3848 14.7441 13.6045 14.9639 13.6045 15.3242C13.6045 15.667 13.3936 15.8779 13.0508 15.8779H12.6377V16.8271C12.6377 17.2139 12.418 17.4863 12.0137 17.4863ZM18.1484 17.4863C17.7705 17.4863 17.5596 17.2051 17.5596 16.8271V15.8779H15.125C14.6064 15.8779 14.2812 15.5703 14.2812 15.043C14.2812 14.7529 14.3428 14.5156 14.4922 14.2168C15.0195 13.2148 15.8369 11.7646 16.5225 10.5869C16.8301 10.042 17.1816 9.81348 17.7705 9.81348C18.3857 9.81348 18.7637 10.2002 18.7637 10.7891V14.7441H19.1768C19.5195 14.7441 19.7305 14.9639 19.7305 15.3242C19.7305 15.667 19.5283 15.8779 19.1768 15.8779H18.7637V16.8271C18.7637 17.2139 18.5439 17.4863 18.1484 17.4863ZM11.4248 14.7529V11.1406H11.3809C10.7393 12.2656 9.92188 13.7773 9.44727 14.709V14.7529H11.4248ZM17.5596 14.7529V11.1406H17.5156C16.874 12.2656 16.0566 13.7773 15.582 14.709V14.7529H17.5596Z" fill="#1C1C1E"/>
</svg>
