<svg width="28" height="28" viewBox="0 0 28 28" fill="none" xmlns="http://www.w3.org/2000/svg">
<path d="M8.67383 21.8809H19.3174C21.2246 21.8809 22.209 20.8965 22.209 19.0156V8.31934C22.209 6.43848 21.2246 5.4541 19.3174 5.4541H8.67383C6.77539 5.4541 5.78223 6.42969 5.78223 8.31934V19.0156C5.78223 20.8965 6.77539 21.8809 8.67383 21.8809ZM8.78809 20.1318C7.97949 20.1318 7.53125 19.71 7.53125 18.8574V8.47754C7.53125 7.625 7.97949 7.20312 8.78809 7.20312H19.2031C20.0029 7.20312 20.46 7.625 20.46 8.47754V18.8574C20.46 19.71 20.0029 20.1318 19.2031 20.1318H8.78809ZM12.1016 17.3369C12.4795 17.3369 12.6904 17.0732 12.6904 16.7129V15.79H13.0947C13.4199 15.79 13.6221 15.5879 13.6221 15.2539C13.6221 14.9111 13.4199 14.709 13.0947 14.709H12.6904V10.8945C12.6904 10.3232 12.3213 9.96289 11.7412 9.96289C11.1787 9.96289 10.8447 10.1738 10.5459 10.7012C9.89551 11.8262 9.0957 13.2412 8.57715 14.208C8.44531 14.4893 8.38379 14.7178 8.38379 14.9902C8.38379 15.4912 8.7002 15.79 9.19238 15.79H11.5391V16.7129C11.5391 17.0732 11.7412 17.3369 12.1016 17.3369ZM18.0078 17.3369C18.3857 17.3369 18.5879 17.0732 18.5879 16.7129V15.79H18.9922C19.3262 15.79 19.5283 15.5879 19.5283 15.2539C19.5283 14.9111 19.3262 14.709 18.9922 14.709H18.5879V10.8945C18.5879 10.3232 18.2275 9.96289 17.6387 9.96289C17.085 9.96289 16.7422 10.1738 16.4521 10.7012C15.793 11.8262 15.002 13.2412 14.4834 14.208C14.3428 14.4893 14.2812 14.7178 14.2812 14.9902C14.2812 15.4912 14.5977 15.79 15.0898 15.79H17.4365V16.7129C17.4365 17.0732 17.6387 17.3369 18.0078 17.3369ZM11.5391 14.7178H9.62305V14.6738C10.0801 13.7773 10.8799 12.3096 11.4951 11.2285H11.5391V14.7178ZM17.4365 14.7178H15.5293V14.6738C15.9775 13.7773 16.7861 12.3096 17.3926 11.2285H17.4365V14.7178Z" fill="#1C1C1E"/>
</svg>
