<svg width="28" height="28" viewBox="0 0 28 28" fill="none" xmlns="http://www.w3.org/2000/svg">
<path d="M8.67383 21.8809H19.3174C21.2246 21.8809 22.209 20.8965 22.209 19.0156V8.31934C22.209 6.43848 21.2246 5.4541 19.3174 5.4541H8.67383C6.77539 5.4541 5.78223 6.42969 5.78223 8.31934V19.0156C5.78223 20.8965 6.77539 21.8809 8.67383 21.8809ZM8.78809 20.1318C7.97949 20.1318 7.53125 19.71 7.53125 18.8574V8.47754C7.53125 7.625 7.97949 7.20312 8.78809 7.20312H19.2031C20.0029 7.20312 20.46 7.625 20.46 8.47754V18.8574C20.46 19.71 20.0029 20.1318 19.2031 20.1318H8.78809ZM12.2246 17.3369C12.6025 17.3369 12.8047 17.0732 12.8047 16.7129V15.79H13.209C13.543 15.79 13.7451 15.5879 13.7451 15.2539C13.7451 14.9111 13.5342 14.709 13.209 14.709H12.8047V10.8945C12.8047 10.3232 12.4355 9.96289 11.8555 9.96289C11.293 9.96289 10.959 10.1738 10.6602 10.7012C10.0098 11.8262 9.20996 13.2412 8.7002 14.208C8.55957 14.4893 8.49805 14.7178 8.49805 14.9902C8.49805 15.4912 8.81445 15.79 9.30664 15.79H11.6533V16.7129C11.6533 17.0732 11.8555 17.3369 12.2246 17.3369ZM16.7949 17.3457C18.333 17.3457 19.335 16.4053 19.335 14.876C19.335 13.5488 18.4385 12.6172 17.1641 12.6172C16.6016 12.6172 16.0127 12.8896 15.749 13.2852H15.7139L15.8721 11.2109H18.5615C18.8516 11.2109 19.0625 11 19.0625 10.666C19.0625 10.3496 18.8691 10.1387 18.5615 10.1387H15.6611C15.1865 10.1387 14.8789 10.4287 14.8525 10.9297L14.6592 13.54C14.6328 14.0234 14.8877 14.3223 15.3096 14.3223C15.6084 14.3223 15.7842 14.2432 16.0391 14.041C16.3643 13.7598 16.6191 13.6367 16.9795 13.6367C17.665 13.6367 18.1484 14.1904 18.1484 14.9111C18.1484 15.7461 17.6211 16.2559 16.8652 16.2559C16.3203 16.2559 15.8721 15.957 15.6348 15.5C15.4941 15.2715 15.3359 15.1309 15.0986 15.1309C14.7822 15.1309 14.5537 15.3682 14.5537 15.6934C14.5537 15.834 14.5801 15.9658 14.6416 16.0977C14.8877 16.7744 15.7227 17.3457 16.7949 17.3457ZM11.6533 14.7178H9.7373V14.6738C10.1943 13.7773 10.9941 12.3096 11.6094 11.2285H11.6533V14.7178Z" fill="#1C1C1E"/>
</svg>
