<svg width="28" height="28" viewBox="0 0 28 28" fill="none" xmlns="http://www.w3.org/2000/svg">
<path d="M13.9912 22.7422C18.9746 22.7422 23.0879 18.6289 23.0879 13.6543C23.0879 8.67969 18.9658 4.56641 13.9824 4.56641C9.00781 4.56641 4.90332 8.67969 4.90332 13.6543C4.90332 18.6289 9.0166 22.7422 13.9912 22.7422ZM12.1895 17.4863C11.8027 17.4863 11.5918 17.2051 11.5918 16.8271V15.8779H9.16602C8.64746 15.8779 8.32227 15.5703 8.32227 15.043C8.32227 14.7529 8.38379 14.5156 8.52441 14.2168C9.06055 13.2148 9.87793 11.7646 10.5635 10.5869C10.8623 10.042 11.2139 9.81348 11.8115 9.81348C12.418 9.81348 12.8047 10.2002 12.8047 10.7891V14.7441H13.2178C13.5605 14.7441 13.7715 14.9639 13.7715 15.3242C13.7715 15.667 13.5605 15.8779 13.2178 15.8779H12.8047V16.8271C12.8047 17.2139 12.585 17.4863 12.1895 17.4863ZM17.1113 17.5039C16.1885 17.5039 15.3975 17.1348 14.9492 16.2471C14.6504 15.6758 14.4834 14.8672 14.4834 13.8213C14.4834 11.1494 15.582 9.81348 17.2871 9.81348C18.2891 9.81348 19.001 10.3232 19.2383 10.9033C19.2998 11.0439 19.3262 11.1582 19.3262 11.3076C19.3262 11.6328 19.0889 11.8438 18.8164 11.8438C18.5527 11.8438 18.4033 11.7295 18.2451 11.5186C18.0342 11.2021 17.709 10.9736 17.2432 10.9736C16.3203 10.9736 15.6875 11.9404 15.6875 13.4521C15.6875 13.5225 15.6875 13.5664 15.6875 13.6104H15.749C15.9688 13.0479 16.54 12.5381 17.4453 12.5381C18.5791 12.5381 19.5986 13.3818 19.5986 14.8848C19.5986 16.5283 18.5703 17.5039 17.1113 17.5039ZM11.5918 14.7529V11.1406H11.5479C10.915 12.2656 10.0889 13.7773 9.62305 14.709V14.7529H11.5918ZM17.0586 16.3877C17.832 16.3877 18.3242 15.834 18.3242 14.9727C18.3242 14.1465 17.8145 13.584 17.0586 13.584C16.2939 13.584 15.7754 14.1553 15.7754 14.9639C15.7754 15.8076 16.3027 16.3877 17.0586 16.3877Z" fill="#1C1C1E"/>
</svg>
