<svg width="28" height="28" viewBox="0 0 28 28" fill="none" xmlns="http://www.w3.org/2000/svg">
<path d="M13.9912 22.7422C18.9746 22.7422 23.0879 18.6289 23.0879 13.6543C23.0879 8.67969 18.9658 4.56641 13.9824 4.56641C9.00781 4.56641 4.90332 8.67969 4.90332 13.6543C4.90332 18.6289 9.0166 22.7422 13.9912 22.7422ZM12.207 17.4863C11.8291 17.4863 11.6182 17.2051 11.6182 16.8271V15.8779H9.18359C8.66504 15.8779 8.33984 15.5703 8.33984 15.043C8.33984 14.7529 8.40137 14.5156 8.55078 14.2168C9.07812 13.2148 9.89551 11.7646 10.5811 10.5869C10.8887 10.042 11.2402 9.81348 11.8291 9.81348C12.4443 9.81348 12.8223 10.2002 12.8223 10.7891V14.7441H13.2354C13.5781 14.7441 13.7979 14.9639 13.7979 15.3242C13.7979 15.667 13.5869 15.8779 13.2354 15.8779H12.8223V16.8271C12.8223 17.2139 12.6113 17.4863 12.207 17.4863ZM15.9863 17.4072C15.5996 17.4072 15.3008 17.1348 15.3008 16.7393C15.3008 16.5547 15.3271 16.4316 15.415 16.2734L18.0078 11.2197V11.1494H15.1162C14.7646 11.1494 14.501 10.9297 14.501 10.5693C14.501 10.209 14.7646 9.98926 15.1162 9.98926H18.5527C19.124 9.98926 19.4492 10.376 19.4492 10.8506C19.4492 11.0527 19.4141 11.2373 19.2822 11.5186L16.6543 16.8975C16.4785 17.2578 16.2939 17.4072 15.9863 17.4072ZM11.6182 14.7529V11.1406H11.5742C10.9326 12.2656 10.1152 13.7773 9.64062 14.709V14.7529H11.6182Z" fill="#1C1C1E"/>
</svg>
