<svg width="28" height="28" viewBox="0 0 28 28" fill="none" xmlns="http://www.w3.org/2000/svg">
<path d="M13.9912 22.7422C18.9746 22.7422 23.0879 18.6289 23.0879 13.6543C23.0879 8.67969 18.9658 4.56641 13.9824 4.56641C9.00781 4.56641 4.90332 8.67969 4.90332 13.6543C4.90332 18.6289 9.0166 22.7422 13.9912 22.7422ZM13.9912 20.9316C9.95703 20.9316 6.73145 17.6885 6.73145 13.6543C6.73145 9.62012 9.95703 6.38574 13.9824 6.38574C18.0166 6.38574 21.2598 9.62012 21.2686 13.6543C21.2773 17.6885 18.0254 20.9316 13.9912 20.9316ZM12.2686 17.3457C12.6465 17.3457 12.8574 17.082 12.8574 16.7217V15.79H13.2617C13.5869 15.79 13.7891 15.5967 13.7891 15.2627C13.7891 14.9199 13.5869 14.7178 13.2617 14.7178H12.8574V10.8945C12.8574 10.332 12.4883 9.96289 11.9082 9.96289C11.3457 9.96289 11.0117 10.1826 10.7129 10.71C10.0625 11.835 9.2627 13.25 8.74414 14.208C8.6123 14.498 8.55078 14.7178 8.55078 14.9902C8.55078 15.5 8.86719 15.7988 9.35938 15.7988H11.7061V16.7217C11.7061 17.0732 11.9082 17.3457 12.2686 17.3457ZM15.9072 17.2754C16.1973 17.2754 16.373 17.1172 16.54 16.7832L19.0801 11.5977C19.2031 11.3252 19.2383 11.1494 19.2383 10.9561C19.2383 10.499 18.9219 10.1299 18.377 10.1299H15.0723C14.7295 10.1299 14.4834 10.3496 14.4834 10.6924C14.4834 11.0352 14.7295 11.2461 15.0723 11.2461H17.8584V11.3076L15.3535 16.1855C15.2744 16.335 15.248 16.458 15.248 16.6338C15.248 17.0117 15.5293 17.2754 15.9072 17.2754ZM11.7061 14.7178H9.79004V14.6826C10.2471 13.7773 11.0469 12.3184 11.6621 11.2373H11.7061V14.7178Z" fill="#1C1C1E"/>
</svg>
