<svg width="28" height="28" viewBox="0 0 28 28" fill="none" xmlns="http://www.w3.org/2000/svg">
<path d="M8.67383 21.8809H19.3174C21.2246 21.8809 22.209 20.8965 22.209 19.0156V8.31934C22.209 6.43848 21.2246 5.4541 19.3174 5.4541H8.67383C6.77539 5.4541 5.78223 6.42969 5.78223 8.31934V19.0156C5.78223 20.8965 6.77539 21.8809 8.67383 21.8809ZM8.78809 20.1318C7.97949 20.1318 7.53125 19.71 7.53125 18.8574V8.47754C7.53125 7.625 7.97949 7.20312 8.78809 7.20312H19.2031C20.0029 7.20312 20.46 7.625 20.46 8.47754V18.8574C20.46 19.71 20.0029 20.1318 19.2031 20.1318H8.78809ZM12.1895 17.3369C12.5674 17.3369 12.7783 17.0732 12.7783 16.7129V15.79H13.1826C13.5078 15.79 13.71 15.5879 13.71 15.2539C13.71 14.9111 13.5078 14.709 13.1826 14.709H12.7783V10.8945C12.7783 10.3232 12.4092 9.96289 11.8291 9.96289C11.2666 9.96289 10.9238 10.1738 10.6338 10.7012C9.97461 11.8262 9.18359 13.2412 8.66504 14.208C8.5332 14.4893 8.47168 14.7178 8.47168 14.9902C8.47168 15.4912 8.78809 15.79 9.28027 15.79H11.6182V16.7129C11.6182 17.0732 11.8291 17.3369 12.1895 17.3369ZM17.0322 17.3457C18.5352 17.3457 19.5635 16.4932 19.5635 15.2451C19.5635 14.3574 19.0186 13.6719 18.1221 13.4785V13.4258C18.8691 13.2236 19.3086 12.6084 19.3086 11.8525C19.3086 10.7275 18.377 9.96289 17.0498 9.96289C15.7227 9.96289 14.791 10.7275 14.791 11.8525C14.791 12.6084 15.2129 13.2061 15.9688 13.4258V13.4785C15.0723 13.6719 14.5361 14.3662 14.5361 15.2539C14.5361 16.502 15.5381 17.3457 17.0322 17.3457ZM17.0498 13.0039C16.4346 13.0039 16.0039 12.5732 16.0039 11.9756C16.0039 11.3779 16.4346 10.9648 17.0498 10.9648C17.665 10.9648 18.0957 11.3779 18.0957 11.9756C18.0957 12.5732 17.665 13.0039 17.0498 13.0039ZM11.6182 14.7178H9.71094V14.6738C10.1592 13.7773 10.9678 12.3096 11.5742 11.2285H11.6182V14.7178ZM17.0586 16.3438C16.3115 16.3438 15.7754 15.8604 15.7754 15.166C15.7754 14.4805 16.3115 13.9883 17.0586 13.9883C17.8057 13.9883 18.333 14.4717 18.333 15.166C18.333 15.8604 17.7969 16.3438 17.0586 16.3438Z" fill="#1C1C1E"/>
</svg>
