<svg width="28" height="28" viewBox="0 0 28 28" fill="none" xmlns="http://www.w3.org/2000/svg">
<path d="M13.9912 22.7422C18.9746 22.7422 23.0879 18.6289 23.0879 13.6543C23.0879 8.67969 18.9658 4.56641 13.9824 4.56641C9.00781 4.56641 4.90332 8.67969 4.90332 13.6543C4.90332 18.6289 9.0166 22.7422 13.9912 22.7422ZM13.9912 20.9316C9.95703 20.9316 6.73145 17.6885 6.73145 13.6543C6.73145 9.62012 9.95703 6.38574 13.9824 6.38574C18.0166 6.38574 21.2598 9.62012 21.2686 13.6543C21.2773 17.6885 18.0254 20.9316 13.9912 20.9316ZM12.1807 17.3457C12.5586 17.3457 12.7695 17.082 12.7695 16.7217V15.79H13.1738C13.499 15.79 13.7012 15.5967 13.7012 15.2627C13.7012 14.9199 13.499 14.7178 13.1738 14.7178H12.7695V10.8945C12.7695 10.332 12.4004 9.96289 11.8203 9.96289C11.2578 9.96289 10.9238 10.1826 10.625 10.71C9.97461 11.835 9.1748 13.25 8.65625 14.208C8.52441 14.498 8.46289 14.7178 8.46289 14.9902C8.46289 15.5 8.7793 15.7988 9.27148 15.7988H11.6182V16.7217C11.6182 17.0732 11.8203 17.3457 12.1807 17.3457ZM16.8477 17.3545C18.5615 17.3545 19.4932 15.9834 19.4932 13.417C19.4932 11.2021 18.5879 9.96289 16.9443 9.96289C15.5029 9.96289 14.5449 10.9385 14.5449 12.4502C14.5449 13.9004 15.5117 14.7354 16.6367 14.7354C17.5332 14.7354 18.0781 14.2695 18.2979 13.6807H18.3506C18.3594 15.2363 17.7793 16.2471 16.8301 16.2471C16.373 16.2471 16.0215 16.0186 15.8193 15.6846C15.6699 15.4385 15.4941 15.3418 15.2656 15.3418C14.9668 15.3418 14.7559 15.5703 14.7559 15.8955C14.7559 16.001 14.791 16.1328 14.835 16.2471C14.9932 16.7305 15.6875 17.3545 16.8477 17.3545ZM17.0059 13.751C16.2676 13.751 15.7666 13.1885 15.7666 12.3887C15.7666 11.5625 16.2588 11.0176 17.0059 11.0176C17.7266 11.0176 18.2451 11.5889 18.2451 12.4062C18.2451 13.1885 17.7354 13.751 17.0059 13.751ZM11.6182 14.7178H9.70215V14.6826C10.1592 13.7773 10.959 12.3184 11.5742 11.2373H11.6182V14.7178Z" fill="#1C1C1E"/>
</svg>
