<svg width="28" height="28" viewBox="0 0 28 28" fill="none" xmlns="http://www.w3.org/2000/svg">
<path d="M8.67383 21.8809H19.3174C21.2246 21.8809 22.209 20.8965 22.209 19.0156V8.31934C22.209 6.43848 21.2246 5.4541 19.3174 5.4541H8.67383C6.77539 5.4541 5.78223 6.42969 5.78223 8.31934V19.0156C5.78223 20.8965 6.77539 21.8809 8.67383 21.8809ZM13.9648 17.9697C12.4531 17.9697 11.3809 17.3984 11.0205 16.4932C10.9502 16.3525 10.915 16.2031 10.915 16.0273C10.915 15.623 11.2051 15.3418 11.6621 15.3418C11.9961 15.3418 12.2246 15.4912 12.4004 15.7461C12.6904 16.2734 13.2441 16.5986 13.9385 16.5986C14.835 16.5986 15.5029 15.9395 15.5029 15.0605C15.5029 14.1641 14.9316 13.5752 14.0703 13.5752C13.6396 13.5752 13.3232 13.707 12.9277 14.0234C12.585 14.2607 12.3652 14.3486 11.9961 14.3486C11.3721 14.3486 11.0205 13.9707 11.0645 13.3555L11.293 10.5078C11.3281 9.92773 11.75 9.54102 12.3916 9.54102H16.1797C16.5928 9.54102 16.8564 9.80469 16.8564 10.209C16.8564 10.6045 16.584 10.8682 16.1797 10.8682H12.6816L12.4883 13.0918H12.5762C12.8838 12.6348 13.6396 12.3096 14.4043 12.3096C16.0566 12.3096 17.1992 13.4082 17.1992 15.0166C17.1992 16.8096 15.8984 17.9697 13.9648 17.9697Z" fill="#1C1C1E"/>
</svg>
