<svg width="28" height="28" viewBox="0 0 28 28" fill="none" xmlns="http://www.w3.org/2000/svg">
<path d="M13.9912 22.7422C18.9746 22.7422 23.0879 18.6289 23.0879 13.6543C23.0879 8.67969 18.9658 4.56641 13.9824 4.56641C9.00781 4.56641 4.90332 8.67969 4.90332 13.6543C4.90332 18.6289 9.0166 22.7422 13.9912 22.7422ZM17.1465 17.5039C15.6172 17.5039 14.6064 16.1064 14.6064 13.6631C14.6064 11.2197 15.6172 9.82227 17.1465 9.82227C18.6758 9.82227 19.7041 11.2197 19.7041 13.6631C19.7041 16.1064 18.6758 17.5039 17.1465 17.5039ZM11.0557 17.5039C9.93066 17.5039 9.06934 16.9062 8.81445 16.2119C8.75293 16.0713 8.72656 15.9307 8.72656 15.7812C8.72656 15.4385 8.95508 15.1924 9.28906 15.1924C9.53516 15.1924 9.70215 15.3506 9.85156 15.5879C10.1064 16.0537 10.5547 16.3613 11.1172 16.3613C11.9082 16.3613 12.4443 15.834 12.4443 14.9727C12.4443 14.2256 11.9521 13.6543 11.249 13.6543C10.8711 13.6543 10.6162 13.7773 10.2734 14.0674C10.001 14.2783 9.8252 14.3662 9.51758 14.3662C9.06934 14.3662 8.79688 14.041 8.82324 13.5488L9.03418 10.833C9.06055 10.3145 9.37695 10.0068 9.87793 10.0068H12.8926C13.209 10.0068 13.4111 10.2266 13.4111 10.5693C13.4111 10.9033 13.1914 11.1318 12.8926 11.1318H10.0977L9.93945 13.2852H9.97461C10.2471 12.8721 10.8535 12.5908 11.4424 12.5908C12.752 12.5908 13.6836 13.5576 13.6836 14.9375C13.6836 16.5195 12.6553 17.5039 11.0557 17.5039ZM17.1553 16.2559C17.9111 16.2559 18.3857 15.3242 18.3857 13.6631C18.3857 12.002 17.9111 11.0703 17.1553 11.0703C16.4082 11.0703 15.9336 12.002 15.9336 13.6631C15.9336 15.3242 16.4082 16.2559 17.1553 16.2559Z" fill="#1C1C1E"/>
</svg>
