<svg width="28" height="28" viewBox="0 0 28 28" fill="none" xmlns="http://www.w3.org/2000/svg">
<path d="M8.67383 21.8809H19.3174C21.2246 21.8809 22.209 20.8965 22.209 19.0156V8.31934C22.209 6.43848 21.2246 5.4541 19.3174 5.4541H8.67383C6.77539 5.4541 5.78223 6.42969 5.78223 8.31934V19.0156C5.78223 20.8965 6.77539 21.8809 8.67383 21.8809ZM8.78809 20.1318C7.97949 20.1318 7.53125 19.71 7.53125 18.8574V8.47754C7.53125 7.625 7.97949 7.20312 8.78809 7.20312H19.2031C20.0029 7.20312 20.46 7.625 20.46 8.47754V18.8574C20.46 19.71 20.0029 20.1318 19.2031 20.1318H8.78809ZM17.041 17.3545C18.5088 17.3545 19.502 16.0098 19.502 13.6631C19.502 11.3252 18.5088 9.97168 17.041 9.97168C15.5732 9.97168 14.5977 11.3252 14.5977 13.6631C14.5977 16.0098 15.5732 17.3545 17.041 17.3545ZM11.1787 17.3545C12.708 17.3545 13.71 16.4141 13.71 14.8936C13.71 13.5576 12.8135 12.6348 11.5479 12.6348C10.9766 12.6348 10.3877 12.9072 10.1328 13.2939H10.0977L10.2471 11.2197H12.9365C13.2354 11.2197 13.4375 11.0088 13.4375 10.6836C13.4375 10.3584 13.2441 10.1475 12.9365 10.1475H10.0449C9.56152 10.1475 9.2627 10.4375 9.22754 10.9385L9.03418 13.5576C9.00781 14.0322 9.27148 14.3311 9.69336 14.3311C9.9834 14.3311 10.1592 14.2607 10.4141 14.0498C10.748 13.7686 11.0029 13.6455 11.3545 13.6455C12.0488 13.6455 12.5234 14.1992 12.5234 14.9287C12.5234 15.7549 12.0049 16.2646 11.2402 16.2646C10.6953 16.2646 10.2471 15.9658 10.0098 15.5176C9.86914 15.2891 9.71094 15.1396 9.47363 15.1396C9.15723 15.1396 8.9375 15.377 8.9375 15.7021C8.9375 15.8428 8.96387 15.9834 9.0166 16.1064C9.27148 16.7832 10.0977 17.3545 11.1787 17.3545ZM17.0498 16.168C16.3203 16.168 15.8633 15.2627 15.8633 13.6631C15.8633 12.0635 16.3203 11.1582 17.0498 11.1582C17.7793 11.1582 18.2363 12.0635 18.2363 13.6631C18.2363 15.2627 17.7881 16.168 17.0498 16.168Z" fill="#1C1C1E"/>
</svg>
