<svg width="28" height="28" viewBox="0 0 28 28" fill="none" xmlns="http://www.w3.org/2000/svg">
<path d="M13.9912 22.7422C18.9746 22.7422 23.0879 18.6289 23.0879 13.6543C23.0879 8.67969 18.9658 4.56641 13.9824 4.56641C9.00781 4.56641 4.90332 8.67969 4.90332 13.6543C4.90332 18.6289 9.0166 22.7422 13.9912 22.7422ZM13.9912 20.9316C9.95703 20.9316 6.73145 17.6885 6.73145 13.6543C6.73145 9.62012 9.95703 6.38574 13.9824 6.38574C18.0166 6.38574 21.2598 9.62012 21.2686 13.6543C21.2773 17.6885 18.0254 20.9316 13.9912 20.9316ZM17.1641 14.9902C17.1641 13.5488 16.1094 12.4766 14.5889 12.4766C13.9912 12.4766 13.4111 12.6963 13.1299 12.9775L13.0332 12.96C13.1387 12.793 13.2529 12.6348 13.499 12.3271C13.877 11.8262 14.4043 11.1758 14.7822 10.6836C14.9229 10.499 14.9932 10.332 14.9932 10.1562C14.9932 9.83984 14.7734 9.52344 14.29 9.52344C13.9209 9.52344 13.7188 9.74316 13.5342 9.98047C13.0244 10.6309 12.4971 11.3076 12.0928 11.8438C11.2402 12.9688 10.8271 13.9443 10.8271 14.9111C10.8271 16.6426 12.0928 17.8115 14 17.8115C15.8896 17.8115 17.1641 16.6338 17.1641 14.9902ZM12.3477 15.0605C12.3477 14.2432 13.0508 13.6367 14 13.6367C14.958 13.6367 15.6611 14.2432 15.6611 15.0693C15.6611 15.8955 14.958 16.5195 14 16.5195C13.0596 16.5195 12.3477 15.8867 12.3477 15.0605Z" fill="#1C1C1E"/>
</svg>
