<svg width="28" height="28" viewBox="0 0 28 28" fill="none" xmlns="http://www.w3.org/2000/svg">
<path d="M13.9912 22.7422C18.9746 22.7422 23.0879 18.6289 23.0879 13.6543C23.0879 8.67969 18.9658 4.56641 13.9824 4.56641C9.00781 4.56641 4.90332 8.67969 4.90332 13.6543C4.90332 18.6289 9.0166 22.7422 13.9912 22.7422ZM13.9912 20.9316C9.95703 20.9316 6.73145 17.6885 6.73145 13.6543C6.73145 9.62012 9.95703 6.38574 13.9824 6.38574C18.0166 6.38574 21.2598 9.62012 21.2686 13.6543C21.2773 17.6885 18.0254 20.9316 13.9912 20.9316ZM14.0615 17.8115C15.8809 17.8115 17.1465 16.7656 17.1465 14.9727C17.1465 13.3643 15.9424 12.4414 14.5449 12.4414C13.4463 12.4414 12.7695 12.9863 12.4707 13.5928H12.4004C12.3916 13.54 12.3916 13.4961 12.3916 13.4434C12.3916 11.8525 13.1299 10.8066 14.2285 10.8066C14.791 10.8066 15.1074 11.0439 15.3623 11.3252C15.626 11.5713 15.8105 11.7295 16.1533 11.7295C16.5137 11.7295 16.7773 11.4834 16.7773 11.123C16.7773 10.9648 16.7422 10.8242 16.6631 10.6836C16.3643 10.042 15.415 9.50586 14.2725 9.50586C12.1279 9.50586 10.8008 10.9561 10.8008 13.7949C10.8008 14.9727 11.0205 15.8516 11.3984 16.458C11.9785 17.3984 12.9453 17.8115 14.0615 17.8115ZM13.9824 16.5547C13.1123 16.5547 12.4795 15.9219 12.4795 15.0254C12.4795 14.1729 13.1035 13.5576 13.9912 13.5576C14.8789 13.5576 15.4941 14.1641 15.4941 15.0342C15.4941 15.957 14.8965 16.5547 13.9824 16.5547Z" fill="#1C1C1E"/>
</svg>
