<svg width="28" height="28" viewBox="0 0 28 28" fill="none" xmlns="http://www.w3.org/2000/svg">
<path d="M13.9912 22.7422C18.9746 22.7422 23.0879 18.6289 23.0879 13.6543C23.0879 8.67969 18.9658 4.56641 13.9824 4.56641C9.00781 4.56641 4.90332 8.67969 4.90332 13.6543C4.90332 18.6289 9.0166 22.7422 13.9912 22.7422ZM14.0615 17.9697C12.9102 17.9697 11.8906 17.5391 11.293 16.5635C10.8975 15.9307 10.6689 15.0166 10.6689 13.7949C10.6689 10.8418 12.0488 9.33887 14.2812 9.33887C15.4766 9.33887 16.4697 9.89258 16.7773 10.5518C16.8564 10.7012 16.9004 10.8506 16.9004 11.0176C16.9004 11.3955 16.6191 11.6504 16.2412 11.6504C15.8896 11.6504 15.6963 11.4834 15.415 11.2285C15.1514 10.9385 14.8174 10.6924 14.2461 10.6924C13.1035 10.6924 12.3389 11.7734 12.3389 13.4258C12.3389 13.4785 12.3389 13.5225 12.3477 13.584H12.418C12.7256 12.9424 13.4463 12.3799 14.5801 12.3799C16.0303 12.3799 17.2783 13.3467 17.2783 15.0254C17.2783 16.8799 15.96 17.9697 14.0615 17.9697ZM13.9824 16.6602C14.9316 16.6602 15.5469 16.0361 15.5469 15.0869C15.5469 14.1816 14.9053 13.5488 13.9912 13.5488C13.0771 13.5488 12.4268 14.1904 12.4268 15.0781C12.4268 15.9922 13.0771 16.6602 13.9824 16.6602Z" fill="#1C1C1E"/>
</svg>
