<svg width="28" height="28" viewBox="0 0 28 28" fill="none" xmlns="http://www.w3.org/2000/svg">
<path d="M13.9912 22.7422C18.9746 22.7422 23.0879 18.6289 23.0879 13.6543C23.0879 8.67969 18.9658 4.56641 13.9824 4.56641C9.00781 4.56641 4.90332 8.67969 4.90332 13.6543C4.90332 18.6289 9.0166 22.7422 13.9912 22.7422ZM13.9912 20.9316C9.95703 20.9316 6.73145 17.6885 6.73145 13.6543C6.73145 9.62012 9.95703 6.38574 13.9824 6.38574C18.0166 6.38574 21.2598 9.62012 21.2686 13.6543C21.2773 17.6885 18.0254 20.9316 13.9912 20.9316ZM13.9736 17.8115C15.9248 17.8115 17.2256 16.8623 17.2256 15.4385C17.2256 14.4541 16.5137 13.6631 15.4502 13.4697V13.4082C16.3555 13.1533 16.8916 12.4854 16.8916 11.6416C16.8916 10.376 15.7139 9.50586 13.9824 9.50586C12.2598 9.50586 11.082 10.376 11.082 11.6416C11.082 12.4854 11.6006 13.1357 12.5146 13.4082V13.4697C11.4512 13.6631 10.7393 14.4541 10.7393 15.4385C10.7393 16.8711 12.0225 17.8115 13.9736 17.8115ZM13.9824 12.9512C13.2178 12.9512 12.6641 12.459 12.6641 11.791C12.6641 11.1318 13.2178 10.6572 13.9824 10.6572C14.7559 10.6572 15.3008 11.1318 15.3008 11.791C15.3008 12.459 14.7559 12.9512 13.9824 12.9512ZM13.9912 16.6689C13.0684 16.6689 12.4004 16.1152 12.4004 15.333C12.4004 14.5859 13.0771 14.0146 13.9912 14.0146C14.9141 14.0146 15.5732 14.5771 15.5732 15.333C15.5732 16.1152 14.9053 16.6689 13.9912 16.6689Z" fill="#1C1C1E"/>
</svg>
