<svg width="28" height="28" viewBox="0 0 28 28" fill="none" xmlns="http://www.w3.org/2000/svg">
<path d="M13.9912 22.7422C18.9746 22.7422 23.0879 18.6289 23.0879 13.6543C23.0879 8.67969 18.9658 4.56641 13.9824 4.56641C9.00781 4.56641 4.90332 8.67969 4.90332 13.6543C4.90332 18.6289 9.0166 22.7422 13.9912 22.7422ZM13.9736 17.9697C11.9346 17.9697 10.5986 16.9941 10.5986 15.5088C10.5986 14.4805 11.3369 13.6543 12.4531 13.4521V13.3906C11.4951 13.1094 10.959 12.4326 10.959 11.5537C10.959 10.2354 12.1807 9.33887 13.9824 9.33887C15.7842 9.33887 17.0146 10.2354 17.0146 11.5537C17.0146 12.4326 16.4609 13.1182 15.5205 13.3906V13.4521C16.6191 13.6543 17.3662 14.4717 17.3662 15.5C17.3662 16.9854 16.0127 17.9697 13.9736 17.9697ZM13.9824 12.9072C14.7822 12.9072 15.3447 12.4062 15.3447 11.7119C15.3447 11.0352 14.7822 10.543 13.9824 10.543C13.1914 10.543 12.6201 11.0352 12.6201 11.7119C12.6201 12.4062 13.1914 12.9072 13.9824 12.9072ZM13.9912 16.7744C14.9316 16.7744 15.626 16.1943 15.626 15.3945C15.626 14.6035 14.9492 14.0322 13.9912 14.0322C13.0508 14.0322 12.3477 14.6123 12.3477 15.3945C12.3477 16.1943 13.042 16.7744 13.9912 16.7744Z" fill="#1C1C1E"/>
</svg>
