<svg width="28" height="28" viewBox="0 0 28 28" fill="none" xmlns="http://www.w3.org/2000/svg">
<path d="M8.67383 21.8809H19.3174C21.2246 21.8809 22.209 20.8965 22.209 19.0156V8.31934C22.209 6.43848 21.2246 5.4541 19.3174 5.4541H8.67383C6.77539 5.4541 5.78223 6.42969 5.78223 8.31934V19.0156C5.78223 20.8965 6.77539 21.8809 8.67383 21.8809ZM10.7217 12.2744C10.7217 10.5518 12.0488 9.33887 14.0352 9.33887C16.0215 9.33887 17.3574 10.5518 17.3574 12.3711C17.3574 13.4258 16.9355 14.3398 16.0918 15.4736C15.6787 16.0273 15.0723 16.8184 14.6416 17.3545C14.3516 17.7148 14.1582 17.9609 13.7188 17.9609C13.2441 17.9609 12.9541 17.6445 12.9541 17.3018C12.9541 17.0645 13.0508 16.8711 13.2178 16.6777C13.6748 16.1152 14.1934 15.5 14.624 14.9551C14.8174 14.7266 14.9668 14.5332 15.0459 14.3926H14.9229C14.6152 14.7002 14 14.9023 13.4199 14.9023C11.8555 14.9023 10.7217 13.7949 10.7217 12.2744ZM12.3125 12.2041C12.3125 13.0654 13.0508 13.6895 14.0352 13.6895C15.0107 13.6895 15.749 13.0654 15.749 12.2041C15.749 11.3428 15.002 10.71 14.0264 10.71C13.0508 10.71 12.3125 11.3428 12.3125 12.2041Z" fill="#1C1C1E"/>
</svg>
