<svg width="28" height="28" viewBox="0 0 28 28" fill="none" xmlns="http://www.w3.org/2000/svg">
<path d="M13.9912 22.7422C18.9746 22.7422 23.0879 18.6289 23.0879 13.6543C23.0879 8.67969 18.9658 4.56641 13.9824 4.56641C9.00781 4.56641 4.90332 8.67969 4.90332 13.6543C4.90332 18.6289 9.0166 22.7422 13.9912 22.7422ZM10.6865 12.2744C10.6865 10.5518 12.0137 9.33887 14 9.33887C15.9863 9.33887 17.3223 10.5518 17.3223 12.3711C17.3223 13.4258 16.9004 14.3398 16.0566 15.4736C15.6436 16.0273 15.0371 16.8184 14.6064 17.3545C14.3164 17.7148 14.1143 17.9609 13.6836 17.9609C13.209 17.9609 12.9189 17.6445 12.9189 17.3018C12.9189 17.0645 13.0156 16.8711 13.1826 16.6777C13.6396 16.1152 14.1582 15.5 14.5889 14.9551C14.7822 14.7266 14.9316 14.5332 15.0107 14.3926H14.8877C14.5801 14.7002 13.9648 14.9023 13.3848 14.9023C11.8203 14.9023 10.6865 13.7949 10.6865 12.2744ZM12.2773 12.2041C12.2773 13.0654 13.0156 13.6895 14 13.6895C14.9756 13.6895 15.7139 13.0654 15.7139 12.2041C15.7139 11.3428 14.9668 10.71 13.9912 10.71C13.0156 10.71 12.2773 11.3428 12.2773 12.2041Z" fill="#1C1C1E"/>
</svg>
