<svg width="28" height="28" viewBox="0 0 28 28" fill="none" xmlns="http://www.w3.org/2000/svg">
<path d="M13.9912 22.7422C18.9746 22.7422 23.0879 18.6289 23.0879 13.6543C23.0879 8.67969 18.9658 4.56641 13.9824 4.56641C9.00781 4.56641 4.90332 8.67969 4.90332 13.6543C4.90332 18.6289 9.0166 22.7422 13.9912 22.7422ZM13.9912 20.9316C9.95703 20.9316 6.73145 17.6885 6.73145 13.6543C6.73145 9.62012 9.95703 6.38574 13.9824 6.38574C18.0166 6.38574 21.2598 9.62012 21.2686 13.6543C21.2773 17.6885 18.0254 20.9316 13.9912 20.9316ZM10.8184 12.3359C10.8184 13.7949 11.917 14.8584 13.4111 14.8584C13.9824 14.8584 14.5713 14.665 14.8701 14.3574L14.9844 14.3662C14.8965 14.498 14.7646 14.6826 14.5801 14.9111C14.1582 15.4385 13.666 16.0273 13.2178 16.5811C13.0596 16.7568 12.9629 16.9502 12.9629 17.1699C12.9629 17.4951 13.2441 17.7939 13.6836 17.7939C14.1055 17.7939 14.2812 17.5654 14.5625 17.2227C14.9844 16.7041 15.5732 15.9395 15.9688 15.4033C16.7861 14.3135 17.1816 13.4346 17.1816 12.4238C17.1816 10.6836 15.9072 9.50586 14 9.50586C12.1016 9.50586 10.8184 10.6836 10.8184 12.3359ZM12.3301 12.2568C12.3301 11.4307 13.042 10.8154 13.9912 10.8154C14.9404 10.8154 15.6611 11.4307 15.6611 12.2656C15.6611 13.1006 14.9492 13.6982 14 13.6982C13.042 13.6982 12.3301 13.1006 12.3301 12.2568Z" fill="#1C1C1E"/>
</svg>
