<svg width="28" height="28" viewBox="0 0 28 28" fill="none" xmlns="http://www.w3.org/2000/svg">
<path d="M13.9912 22.7422C18.9746 22.7422 23.0879 18.6289 23.0879 13.6543C23.0879 8.67969 18.9658 4.56641 13.9824 4.56641C9.00781 4.56641 4.90332 8.67969 4.90332 13.6543C4.90332 18.6289 9.0166 22.7422 13.9912 22.7422ZM13.7979 17.9697C12.2598 17.9697 11.3809 17.2666 11.1348 16.625C11.082 16.5107 11.0557 16.3877 11.0557 16.2734C11.0557 15.8779 11.3633 15.5879 11.7676 15.5879C12.1104 15.5879 12.3037 15.7373 12.4795 15.9307C12.8311 16.3701 13.2178 16.6074 13.7891 16.6074C14.9316 16.6074 15.6875 15.5 15.6436 13.6982H15.5732C15.2832 14.3662 14.5801 14.9199 13.4375 14.9199C11.9785 14.9199 10.7305 13.9443 10.7305 12.2656C10.7305 10.499 12.0049 9.33887 13.9385 9.33887C16.0566 9.33887 17.2959 10.7891 17.2959 13.417C17.2959 16.3965 16.0479 17.9697 13.7979 17.9697ZM14 13.7334C14.9141 13.7334 15.5557 13.0918 15.5557 12.2129C15.5557 11.3076 14.8965 10.6309 14.0088 10.6309C13.0771 10.6309 12.4443 11.2637 12.4443 12.2041C12.4443 13.0918 13.0859 13.7334 14 13.7334Z" fill="#1C1C1E"/>
</svg>
