<svg width="28" height="28" viewBox="0 0 28 28" fill="none" xmlns="http://www.w3.org/2000/svg">
<path d="M16.4082 22.2939C21.1279 22.2939 25.0479 18.374 25.0479 13.6543C25.0479 8.93457 21.1191 5.00586 16.3906 5.00586C13.7188 5.00586 11.3018 6.27148 9.71094 8.22266C9.39453 8.16992 9.06055 8.14355 8.70898 8.14355C6.72266 8.14355 5.03516 9.05762 4.39355 10.4111C4.24414 10.6924 4.16504 10.9912 4.16504 11.2373C4.16504 11.7471 4.5166 12.0986 5.01758 12.0986C5.37793 12.0986 5.63281 11.9404 5.80859 11.6152C6.38867 10.3584 7.30273 9.83105 8.66504 9.83105C8.1377 10.8945 7.82129 12.0723 7.76855 13.3203C5.11426 13.5137 3.62012 14.7793 3.62012 16.7744C3.62012 18.8838 5.21973 20.3076 7.56641 20.3076C8.48047 20.3076 9.37695 20.0264 10.1064 19.5254C11.6885 21.2217 13.9385 22.2939 16.4082 22.2939ZM18.9131 11.2461C18.9131 9.09277 17.8057 7.51074 15.8809 6.79004C16.0479 6.77246 16.2236 6.77246 16.3906 6.77246C20.2227 6.77246 23.2812 9.82227 23.29 13.6543C23.2988 16.5986 21.4883 19.0771 18.9131 20.0703V11.2461ZM13.2529 8.33691C15.3975 8.33691 16.6543 9.49707 16.6543 11.457V12.6523L12.2686 12.916C11.2139 12.9775 10.291 13.1797 9.53516 13.5049C9.5791 11.501 10.4492 9.7168 11.8203 8.49512C12.3564 8.38086 12.7695 8.33691 13.2529 8.33691ZM12.5234 14.709L16.6543 14.4453V15.8252C16.6543 17.8115 15.1074 19.3936 13.0156 19.6572C11.5127 18.8135 10.3613 17.416 9.84277 15.7285C10.4844 15.0957 11.3721 14.7881 12.5234 14.709ZM5.53613 16.7656C5.53613 15.7109 6.35352 15.0166 7.84766 14.8496C8.03223 16.1592 8.52441 17.3809 9.23633 18.4355C8.83203 18.585 8.40137 18.6641 7.93555 18.6641C6.50293 18.6641 5.53613 17.9082 5.53613 16.7656ZM16.4082 20.5361C16.1357 20.5361 15.8633 20.5186 15.5996 20.4922C16.1006 20.123 16.5049 19.6836 16.7598 19.209V20.5273C16.6455 20.5361 16.5225 20.5361 16.4082 20.5361Z" fill="#1C1C1E"/>
</svg>
