<svg width="28" height="28" viewBox="0 0 28 28" fill="none" xmlns="http://www.w3.org/2000/svg">
<path d="M8.67383 21.8809H19.3174C21.2246 21.8809 22.209 20.8965 22.209 19.0156V8.31934C22.209 6.43848 21.2246 5.4541 19.3174 5.4541H8.67383C6.77539 5.4541 5.78223 6.42969 5.78223 8.31934V19.0156C5.78223 20.8965 6.77539 21.8809 8.67383 21.8809ZM8.78809 20.1318C7.97949 20.1318 7.53125 19.71 7.53125 18.8574V8.47754C7.53125 7.625 7.97949 7.20312 8.78809 7.20312H19.2031C20.0029 7.20312 20.46 7.625 20.46 8.47754V18.8574C20.46 19.71 20.0029 20.1318 19.2031 20.1318H8.78809ZM11.2051 17.7676C11.6094 17.7676 11.873 17.5654 12.0137 17.0645L12.5498 15.5H15.4502L15.9863 17.0645C16.127 17.5654 16.3906 17.7676 16.7949 17.7676C17.2695 17.7676 17.5771 17.4775 17.5771 17.0293C17.5771 16.8799 17.542 16.7129 17.4629 16.4844L15.2305 10.3672C15.0195 9.76074 14.6064 9.45312 13.9912 9.45312C13.3848 9.45312 12.9805 9.75195 12.7607 10.3672L10.5371 16.4844C10.458 16.7129 10.4229 16.8799 10.4229 17.0205C10.4229 17.4775 10.7217 17.7676 11.2051 17.7676ZM12.9189 14.2695L13.9561 11.1143H14.0439L15.0811 14.2695H12.9189Z" fill="#1C1C1E"/>
</svg>
