<svg width="28" height="28" viewBox="0 0 28 28" fill="none" xmlns="http://www.w3.org/2000/svg">
<g clip-path="url(#clip0_308_2482)">
<path d="M-2.80469 20.29C-2.20703 20.29 -1.89062 20.0176 -1.69727 19.3848L-0.739258 16.6865H4.27051L5.22852 19.3848C5.42188 20.0176 5.73828 20.29 6.33594 20.29C6.96875 20.29 7.37305 19.8857 7.37305 19.2969C7.37305 19.0771 7.33789 18.8926 7.25 18.6465L3.38281 8.1875C3.11035 7.43164 2.60059 7.03613 1.77441 7.03613C0.983398 7.03613 0.473633 7.43164 0.209961 8.1875L-3.68359 18.6992C-3.77148 18.9277 -3.80664 19.1211 -3.80664 19.3145C-3.80664 19.9033 -3.42871 20.29 -2.80469 20.29ZM26.4189 20.2461C28.748 20.2461 30.5674 19.2441 31.4463 17.5918C31.6396 17.2227 31.7539 16.8359 31.7539 16.4668C31.7539 15.9219 31.3584 15.5352 30.7959 15.5352C30.3389 15.5352 30.0752 15.7109 29.8027 16.2471C29.2051 17.6533 28.0449 18.4092 26.4189 18.4092C24.0547 18.4092 22.5518 16.5898 22.5518 13.6104C22.5518 10.6836 24.0635 8.87305 26.4189 8.87305C27.9834 8.87305 29.2051 9.76953 29.8203 11.2285C30.084 11.7383 30.3652 11.9492 30.8486 11.9492C31.4111 11.9492 31.7979 11.5713 31.7979 11.0264C31.7979 10.7539 31.7363 10.4551 31.6133 10.1475C30.8926 8.24902 28.8271 7.03613 26.4189 7.03613C22.6748 7.03613 20.3369 9.5498 20.3369 13.6191C20.3369 17.7324 22.666 20.2461 26.4189 20.2461ZM10.0273 20.0352H14.4658C17.2959 20.0352 19.0361 18.6201 19.0361 16.4844C19.0361 14.7178 17.6914 13.4609 15.8721 13.2939V13.2324C17.3135 13.0127 18.377 11.8086 18.377 10.3496C18.377 8.52148 16.8125 7.25586 14.3779 7.25586H10.0273C9.36816 7.25586 8.94629 7.66016 8.94629 8.33691V18.9541C8.94629 19.6221 9.36816 20.0352 10.0273 20.0352ZM11.1436 12.6875V8.95215H13.833C15.3184 8.95215 16.2061 9.65527 16.2061 10.7012C16.2061 11.9492 15.2217 12.6875 13.5518 12.6875H11.1436ZM-0.238281 15.0254L1.73047 9.33008H1.79199L3.76074 15.0254H-0.238281ZM11.1436 18.3477V14.208H13.8418C15.7314 14.208 16.7861 14.9639 16.7861 16.3262C16.7861 17.583 15.7666 18.3477 13.9473 18.3477H11.1436Z" fill="#1C1C1E"/>
</g>
<defs>
<clipPath id="clip0_308_2482">
<rect width="28" height="28" fill="white"/>
</clipPath>
</defs>
</svg>
