<svg width="28" height="28" viewBox="0 0 28 28" fill="none" xmlns="http://www.w3.org/2000/svg">
<path d="M7.90039 21.3008C7.90039 23.0938 8.86719 24.043 10.6689 24.043H17.3223C19.1328 24.043 20.0908 23.0938 20.0908 21.3008V7.9502C20.0908 7.15918 19.9238 6.6582 19.4668 6.10449L18.1836 4.53125C17.5332 3.74023 16.9004 3.37988 16.0479 3.37988H11.9434C11.0908 3.37988 10.4668 3.74023 9.81641 4.53125L8.52441 6.10449C8.06738 6.6582 7.90039 7.15918 7.90039 7.9502V21.3008ZM10.0889 6.63184L11.0996 5.41016C11.4512 4.97949 11.6621 4.75098 12.1982 4.75098H15.793C16.3291 4.75098 16.54 4.97949 16.8916 5.41016L17.9023 6.63184C18.0693 6.83398 18.0254 7.20312 17.6035 7.20312H10.3877C9.96582 7.20312 9.93066 6.83398 10.0889 6.63184ZM9.64941 21.0459V8.77637C9.87793 8.89062 10.1152 8.93457 10.4053 8.93457H17.5947C17.876 8.93457 18.1133 8.89062 18.3418 8.77637V21.0459C18.3418 21.8545 17.8936 22.2852 17.1113 22.2852H10.8799C10.0977 22.2852 9.64941 21.8545 9.64941 21.0459ZM16.3994 21.1602C16.8564 21.1602 17.2168 20.7998 17.2168 20.3428C17.2168 19.8945 16.8564 19.5254 16.3994 19.5254C15.9424 19.5254 15.582 19.8945 15.582 20.3428C15.582 20.7998 15.9424 21.1602 16.3994 21.1602Z" fill="#1C1C1E"/>
</svg>
