<svg width="28" height="31" viewBox="0 0 28 31" fill="none" xmlns="http://www.w3.org/2000/svg">
<g filter="url(#filter0_d_610_1611)">
<path d="M14 22.7422C18.9658 22.7422 23.0791 18.6377 23.0791 13.6631C23.0791 8.69727 18.9658 4.58398 13.9912 4.58398C9.02539 4.58398 4.9209 8.69727 4.9209 13.6631C4.9209 18.6377 9.03418 22.7422 14 22.7422ZM14 9.04883C16.54 9.04883 18.6143 11.1318 18.6143 13.6631C18.6143 14.8848 18.1309 16.0361 17.2871 16.8887L16.7861 16.3174C17.4629 15.6055 17.8584 14.6475 17.8584 13.6631C17.8584 11.5537 16.1094 9.81348 14 9.81348C11.8906 9.81348 10.1592 11.5537 10.1592 13.6631C10.1592 14.6475 10.5459 15.6055 11.2139 16.3174L10.7129 16.8887C9.86914 16.0361 9.39453 14.8848 9.39453 13.6631C9.39453 11.1318 11.4688 9.04883 14 9.04883ZM14 10.332C15.8281 10.332 17.3398 11.835 17.3398 13.6631C17.3398 14.5068 17.0146 15.3066 16.4434 15.9307L15.9248 15.3506C16.3379 14.8936 16.5664 14.2871 16.5664 13.6631C16.5664 12.2568 15.4062 11.0879 14 11.0879C12.5938 11.0879 11.4424 12.2568 11.4424 13.6631C11.4424 14.2871 11.6621 14.8848 12.0664 15.3506L11.5566 15.9307C10.9766 15.3066 10.6689 14.5068 10.6689 13.6631C10.6689 11.835 12.1719 10.332 14 10.332ZM14 11.6064C15.125 11.6064 16.0654 12.5381 16.0654 13.6631C16.0654 14.1553 15.8896 14.5947 15.582 14.9639L15.0635 14.3662C15.2129 14.1641 15.292 13.9092 15.292 13.6631C15.292 12.96 14.7119 12.3711 14 12.3711C13.2969 12.3711 12.7168 12.96 12.7168 13.6631C12.7168 13.9092 12.7871 14.1641 12.9365 14.375L12.418 14.9639C12.1191 14.5947 11.9434 14.1641 11.9434 13.6631C11.9434 12.5381 12.875 11.6064 14 11.6064ZM11.3984 18.1719C11.0908 18.1719 10.9414 17.8291 11.1436 17.6006L13.7275 14.6914C13.877 14.5244 14.1406 14.5244 14.2812 14.6914L16.8564 17.6006C17.0586 17.8291 16.918 18.1719 16.6104 18.1719H11.3984Z" fill="#1C1C1E"/>
</g>
<defs>
<filter id="filter0_d_610_1611" x="-4" y="0" width="36" height="36" filterUnits="userSpaceOnUse" color-interpolation-filters="sRGB">
<feFlood flood-opacity="0" result="BackgroundImageFix"/>
<feColorMatrix in="SourceAlpha" type="matrix" values="0 0 0 0 0 0 0 0 0 0 0 0 0 0 0 0 0 0 127 0" result="hardAlpha"/>
<feOffset dy="4"/>
<feGaussianBlur stdDeviation="2"/>
<feComposite in2="hardAlpha" operator="out"/>
<feColorMatrix type="matrix" values="0 0 0 0 0 0 0 0 0 0 0 0 0 0 0 0 0 0 0.25 0"/>
<feBlend mode="normal" in2="BackgroundImageFix" result="effect1_dropShadow_610_1611"/>
<feBlend mode="normal" in="SourceGraphic" in2="effect1_dropShadow_610_1611" result="shape"/>
</filter>
</defs>
</svg>
