<svg width="28" height="28" viewBox="0 0 28 28" fill="none" xmlns="http://www.w3.org/2000/svg">
<path d="M25.0391 13.6543C25.0303 12.6172 23.6152 11.7998 21.8838 11.7998H18.2715C17.7793 11.7998 17.5947 11.7119 17.2959 11.3867L11.3369 4.94434C11.1436 4.7334 10.915 4.62793 10.6602 4.62793H9.52637C9.29785 4.62793 9.16602 4.83887 9.27148 5.07617L12.3564 11.791L7.84766 12.292L6.23926 9.42676C6.11621 9.20703 5.93164 9.11035 5.6416 9.11035H5.24609C5.00879 9.11035 4.85059 9.26855 4.85059 9.50586V17.8027C4.85059 18.04 5.00879 18.1982 5.24609 18.1982H5.6416C5.93164 18.1982 6.11621 18.1016 6.23926 17.8818L7.84766 15.0078L12.3564 15.5176L9.27148 22.2324C9.16602 22.4697 9.29785 22.6807 9.52637 22.6807H10.6602C10.915 22.6807 11.1436 22.5664 11.3369 22.3643L17.2959 15.9219C17.5947 15.5967 17.7793 15.5088 18.2715 15.5088H21.8838C23.6152 15.5088 25.0303 14.6826 25.0391 13.6543Z" fill="#1C1C1E"/>
</svg>
