<svg width="28" height="28" viewBox="0 0 28 28" fill="none" xmlns="http://www.w3.org/2000/svg">
<path d="M11.8906 5.8935C9.99219 5.90229 8.44531 7.15034 8.44531 9.3476C8.44531 11.1933 9.5 12.5292 10.9414 13.3554C11.5566 13.707 12.2246 13.9531 13.2441 14.1201C13.0596 13.6806 12.9629 13.1884 12.9629 12.6523C12.9629 10.7451 14.5098 9.04878 16.417 8.71479C16.3027 8.44233 16.1885 8.24897 16.0654 8.08198C15.002 6.59663 13.3672 5.87592 11.8906 5.8935ZM11.416 9.53217L10.2383 8.5478C10.0537 8.3896 10.0361 8.12592 10.1943 7.93256C10.3525 7.73042 10.625 7.71284 10.8184 7.87104L11.9873 8.85542C12.1807 9.00483 12.1982 9.27729 12.0488 9.47065C11.8906 9.6728 11.6094 9.69038 11.416 9.53217ZM16.4346 15.1572C18.0078 15.1572 19.5459 13.9003 19.5459 12.081C19.5459 10.789 18.6318 9.60249 17.1113 9.60249C15.3271 9.60249 13.9121 11.1494 13.9121 12.6523C13.9121 14.2871 15.0547 15.1572 16.4346 15.1572ZM16.8125 13.8564C16.5488 13.6367 16.7158 13.206 17.1992 12.5996C17.6914 11.9843 18.1133 11.7646 18.377 11.9931C18.6318 12.2128 18.4824 12.6611 17.999 13.2499C17.498 13.8652 17.0762 14.0849 16.8125 13.8564ZM13.1299 21.0546C13.7188 21.0546 14.0967 20.7382 14.0967 20.1669V15.2451C13.165 15.1748 12.3213 14.9814 11.5039 14.6386V20.1669C11.5039 20.7382 11.8818 21.0546 12.4707 21.0546H13.1299Z" fill="#1C1C1E"/>
</svg>
