<svg width="28" height="28" viewBox="0 0 28 28" fill="none" xmlns="http://www.w3.org/2000/svg">
<path d="M9.97461 21.459H18.0166C21.6729 21.459 23.4307 19.71 23.4307 16.0625V11.2461C23.4307 7.59863 21.6729 5.84961 18.0166 5.84961H9.97461C6.30957 5.84961 4.56055 7.59863 4.56055 11.2461V16.0625C4.56055 19.71 6.30957 21.459 9.97461 21.459ZM17.5508 10.3848H10.4316C9.99219 10.3848 9.62305 10.6221 9.44727 10.9912H6.2832C6.3623 8.63574 7.51367 7.57227 9.97461 7.57227H18.0166C20.4775 7.57227 21.6201 8.63574 21.6992 10.9912H18.5352C18.377 10.6221 18.0078 10.3848 17.5508 10.3848ZM9.97461 19.7363C7.42578 19.7363 6.2832 18.5938 6.2832 16.0625V11.9229H9.44727C9.62305 12.292 9.99219 12.5293 10.4316 12.5293H17.5508C18.0078 12.5293 18.377 12.292 18.5352 11.9229H21.708V16.0625C21.708 18.5938 20.5654 19.7363 18.0166 19.7363H9.97461ZM13.9912 15.5791C14.4746 15.5703 14.8701 15.1748 14.8701 14.709C14.8701 14.2256 14.4746 13.8389 13.9912 13.8389C13.5166 13.8389 13.1211 14.2256 13.1211 14.709C13.1211 15.1836 13.5166 15.5879 13.9912 15.5791Z" fill="#1C1C1E"/>
</svg>
