<svg width="28" height="28" viewBox="0 0 28 28" fill="none" xmlns="http://www.w3.org/2000/svg">
<path d="M9.45605 23.2168H18.5439C20.4775 23.2168 21.4707 22.2412 21.4707 20.334V7.0625C21.4707 5.14648 20.4775 4.1709 18.5439 4.1709H9.45605C7.52246 4.1709 6.5293 5.14648 6.5293 7.0625V20.334C6.5293 22.2412 7.52246 23.2168 9.45605 23.2168ZM9.48242 5.92871H11.0996V8.79395C11.0996 9.3916 10.7744 9.7168 10.1943 9.7168H8.27832V7.1416C8.27832 6.33301 8.70898 5.92871 9.48242 5.92871ZM9.48242 21.4678C8.70898 21.4678 8.27832 21.0547 8.27832 20.2549V10.9385H10.2207C11.6182 10.9385 12.3213 10.2441 12.3213 8.87305V5.92871H18.5264C19.291 5.92871 19.7217 6.33301 19.7217 7.1416V20.2549C19.7217 21.0547 19.291 21.4678 18.5264 21.4678H9.48242Z" fill="#1C1C1E"/>
</svg>
