<svg width="28" height="28" viewBox="0 0 28 28" fill="none" xmlns="http://www.w3.org/2000/svg">
<path d="M7.65441 15.6056L22.7452 11.5802C24.4943 11.1144 25.7599 9.82238 25.2941 8.53917C24.8546 7.37902 23.1319 7.05382 21.5675 7.58995L16.2589 9.4005C15.8986 9.52355 15.6437 9.51476 15.2218 9.31261L7.87414 5.84972C7.61925 5.72667 7.338 5.70909 7.08312 5.77941L6.47668 5.97277C6.22179 6.05187 6.14269 6.3507 6.36242 6.588L10.7745 11.2814L7.97082 12.2394L3.76964 10.7452C3.49718 10.6573 3.26867 10.7013 3.02257 10.9298L2.7589 11.1671C2.55675 11.3517 2.54796 11.5978 2.72375 11.7823L5.79992 15.2452C6.23058 15.7198 6.86339 15.8165 7.65441 15.6056ZM4.3673 21.67H23.4132C23.8878 21.67 24.2745 21.2833 24.2745 20.8087C24.2745 20.3341 23.8878 19.9474 23.4132 19.9474H4.3673C3.90148 19.9474 3.50597 20.3341 3.50597 20.8087C3.50597 21.2833 3.90148 21.67 4.3673 21.67Z" fill="#1C1C1E"/>
</svg>
