<svg width="28" height="28" viewBox="0 0 28 28" fill="none" xmlns="http://www.w3.org/2000/svg">
<path d="M4.75391 11H9.32422C9.48242 10.5869 9.89551 10.332 10.3701 10.332H17.5947C18.0781 10.332 18.4824 10.5869 18.6494 11H23.2197V10.7188C23.2197 7.37012 21.2598 5.7793 17.6826 5.7793H10.291C6.71387 5.7793 4.75391 7.37012 4.75391 10.7188V11ZM10.291 21.5293H17.709C21.4707 21.5293 23.2461 19.7539 23.2461 15.9922V11.9316H18.667C18.5 12.3359 18.1045 12.5908 17.6035 12.5908H10.3965C9.91309 12.5908 9.50879 12.3359 9.3418 11.9316H4.75391V15.9922C4.75391 19.7539 6.5293 21.5293 10.291 21.5293ZM14 16.1152C13.5254 16.124 13.1299 15.7285 13.1299 15.2627C13.1299 14.7793 13.5254 14.3926 14 14.3926C14.4746 14.3926 14.8701 14.7793 14.8701 15.2627C14.8701 15.7021 14.4746 16.1064 14 16.1152Z" fill="#1C1C1E"/>
</svg>
