<svg width="28" height="28" viewBox="0 0 28 28" fill="none" xmlns="http://www.w3.org/2000/svg">
<path d="M16.1094 5.8935C14.624 5.87592 12.9893 6.59663 11.9346 8.08198C11.8115 8.24897 11.6885 8.44233 11.583 8.71479C13.4814 9.04878 15.0371 10.7451 15.0371 12.6523C15.0371 13.1884 14.9404 13.6806 14.7471 14.1201C15.7754 13.9531 16.4434 13.707 17.0586 13.3554C18.4912 12.5292 19.5547 11.1933 19.5547 9.3476C19.5547 7.15034 18.0078 5.91108 16.1094 5.8935ZM16.5752 9.53217C16.3818 9.69038 16.1094 9.6728 15.9512 9.47065C15.793 9.27729 15.8193 9.00483 16.0127 8.85542L17.1816 7.87104C17.375 7.71284 17.6475 7.73042 17.8057 7.93256C17.9551 8.12592 17.9463 8.3896 17.7529 8.5478L16.5752 9.53217ZM11.5566 15.1572C12.9365 15.1572 14.0791 14.2871 14.0791 12.6523C14.0791 11.1494 12.6641 9.60249 10.8799 9.60249C9.36816 9.60249 8.44531 10.789 8.44531 12.081C8.44531 13.9003 9.9834 15.1572 11.5566 15.1572ZM11.1787 13.8564C10.915 14.0849 10.502 13.8564 10.001 13.2499C9.50879 12.6611 9.35938 12.2128 9.61426 11.9931C9.88672 11.7646 10.2998 11.9843 10.792 12.5996C11.2842 13.206 11.4424 13.6367 11.1787 13.8564ZM14.8613 21.0546H15.5293C16.1182 21.0546 16.4961 20.7382 16.4961 20.1669V14.6386C15.6699 14.9814 14.8262 15.1748 13.8945 15.2451V20.1669C13.8945 20.7382 14.2812 21.0546 14.8613 21.0546Z" fill="#1C1C1E"/>
</svg>
