<svg width="28" height="28" viewBox="0 0 28 28" fill="none" xmlns="http://www.w3.org/2000/svg">
<path d="M11.1963 22.54H16.8037C19.8535 22.54 21.3389 21.0547 21.3389 18.0049V9.30371C21.3389 6.25391 19.8535 4.76855 16.8037 4.76855H11.1963C8.14648 4.76855 6.66113 6.25391 6.66113 9.30371V18.0049C6.66113 21.0547 8.14648 22.54 11.1963 22.54ZM16.4961 9.25098H11.5039C11.0732 9.25098 10.7041 9.48828 10.5371 9.84863H8.36621V9.30371C8.36621 7.33496 9.22754 6.47363 11.1963 6.47363H16.8037C18.7725 6.47363 19.6338 7.33496 19.6338 9.30371V9.84863H17.4717C17.3047 9.48828 16.9443 9.25098 16.4961 9.25098ZM11.1963 20.835C9.22754 20.835 8.36621 19.9736 8.36621 18.0049V10.7803H10.5371C10.7041 11.1494 11.0732 11.3779 11.5039 11.3779H16.4961C16.9443 11.3779 17.3047 11.1494 17.4717 10.7803H19.6338V18.0049C19.6338 19.9736 18.7725 20.835 16.8037 20.835H11.1963Z" fill="#1C1C1E"/>
</svg>
