<svg width="28" height="28" viewBox="0 0 28 28" fill="none" xmlns="http://www.w3.org/2000/svg">
<path d="M9.91309 21.6436C14.2725 21.6436 17.9023 18.0137 17.9023 13.6543C17.9023 9.29492 14.2637 5.65625 9.9043 5.65625C5.54492 5.65625 1.92383 9.29492 1.92383 13.6543C1.92383 18.0137 5.55371 21.6436 9.91309 21.6436ZM22.5781 19.6572C22.8857 20.0264 23.4219 20.0352 23.8174 19.6133C25.2676 18.0576 26.0674 15.9395 26.0674 13.6543C26.0674 11.3691 25.25 9.2334 23.8174 7.69531C23.4307 7.26465 22.8945 7.28223 22.5781 7.65137C22.2793 7.99414 22.376 8.43359 22.71 8.81152C23.8613 10.0859 24.4941 11.7822 24.4941 13.6543C24.4941 15.5176 23.8525 17.2227 22.71 18.4971C22.376 18.875 22.2793 19.3145 22.5781 19.6572ZM10.9502 10.3584C10.6953 10.6836 10.2383 10.9297 9.86914 10.9297H9.75488C9.75488 10.9033 9.74609 10.8418 9.74609 10.7715C9.74609 10.3584 9.97461 9.9541 10.1855 9.69922C10.4668 9.34766 10.9502 9.11035 11.3545 9.09277C11.3633 9.14551 11.3633 9.18945 11.3633 9.24219C11.3633 9.65527 11.2051 10.0596 10.9502 10.3584ZM20.0205 17.1436C20.3281 17.5039 20.9082 17.5215 21.2598 17.082C22.0156 16.1768 22.4463 14.9551 22.4463 13.6543C22.4463 12.3535 22.0156 11.1318 21.2598 10.2178C20.9082 9.78711 20.3281 9.7959 20.0205 10.165C19.7305 10.5078 19.8447 10.9297 20.126 11.3252C20.6094 11.9404 20.873 12.7842 20.873 13.6543C20.873 14.5244 20.6094 15.3682 20.126 15.9834C19.8447 16.3789 19.7305 16.8008 20.0205 17.1436ZM9.92188 16.7393C9.31543 16.7393 9.0957 17.0732 8.60352 17.0732C8.10254 17.0732 7.75977 16.6162 7.36426 16.0537C6.89844 15.4033 6.5293 14.3838 6.5293 13.4082C6.5293 11.8613 7.54004 11.0352 8.5332 11.0352C9.06934 11.0352 9.49121 11.3867 9.81641 11.3867C10.1416 11.3867 10.625 11.0176 11.2314 11.0176C11.46 11.0176 12.2773 11.0352 12.8135 11.8174C12.7607 11.8525 11.9521 12.3096 11.9521 13.3379C11.9521 14.5156 12.9893 14.9375 13.0244 14.9463C13.0244 14.9727 12.8662 15.5264 12.4795 16.0713C12.1367 16.5635 11.7764 17.0557 11.2314 17.0557C10.6953 17.0557 10.5547 16.7393 9.92188 16.7393Z" fill="#1C1C1E"/>
</svg>
