<svg width="28" height="28" viewBox="0 0 28 28" fill="none" xmlns="http://www.w3.org/2000/svg">
<path d="M7.91797 3.38867C6.57324 3.38867 5.81738 4.15332 5.81738 5.52441V18.6201C5.81738 19.9824 6.57324 20.7471 7.91797 20.7471H11.126C12.4619 20.7471 13.2266 19.9824 13.2266 18.6201V5.52441C13.2266 4.15332 12.4619 3.38867 11.126 3.38867H7.91797ZM8.11133 5.00586H10.9326C11.3633 5.00586 11.6094 5.25195 11.6094 5.66504V18.4707C11.6094 18.8926 11.3633 19.1299 10.9326 19.1299H8.11133C7.68066 19.1299 7.43457 18.8926 7.43457 18.4707V5.66504C7.43457 5.25195 7.68066 5.00586 8.11133 5.00586ZM16.8828 9.51465C15.5469 9.51465 14.7822 10.2793 14.7822 11.6416V18.6201C14.7822 19.9824 15.5469 20.7471 16.8828 20.7471H20.0996C21.4355 20.7471 22.1914 19.9824 22.1914 18.6201V11.6416C22.1914 10.2793 21.4355 9.51465 20.0996 9.51465H16.8828ZM17.0762 11.1318H19.8975C20.3369 11.1318 20.5742 11.3691 20.5742 11.791V18.4707C20.5742 18.8926 20.3369 19.1299 19.8975 19.1299H17.0762C16.6455 19.1299 16.4082 18.8926 16.4082 18.4707V11.791C16.4082 11.3691 16.6455 11.1318 17.0762 11.1318ZM4.29688 22.3467C3.875 22.3467 3.53223 22.7158 3.53223 23.1377C3.53223 23.5684 3.875 23.9375 4.29688 23.9375H23.6943C24.125 23.9375 24.459 23.5684 24.459 23.1377C24.459 22.7158 24.125 22.3467 23.6943 22.3467H4.29688Z" fill="#1C1C1E"/>
</svg>
