<svg width="28" height="28" viewBox="0 0 28 28" fill="none" xmlns="http://www.w3.org/2000/svg">
<path d="M4.29688 14.4277H5.81738V20.1846C5.81738 21.5469 6.57324 22.3203 7.91797 22.3203H11.126C12.4619 22.3203 13.2266 21.5469 13.2266 20.1846V14.4277H14.7822V17.1172C14.7822 18.4795 15.5469 19.2529 16.8828 19.2529H20.0996C21.4355 19.2529 22.1914 18.4795 22.1914 17.1172V14.4277H23.6943C24.125 14.4277 24.459 14.0586 24.459 13.6367C24.459 13.2061 24.125 12.8369 23.6943 12.8369H22.1914V10.1475C22.1914 8.78516 21.4355 8.01172 20.0996 8.01172H16.8828C15.5469 8.01172 14.7822 8.78516 14.7822 10.1475V12.8369H13.2266V7.08008C13.2266 5.71777 12.4619 4.95312 11.126 4.95312H7.91797C6.57324 4.95312 5.81738 5.71777 5.81738 7.08008V12.8369H4.29688C3.875 12.8369 3.53223 13.2061 3.53223 13.6367C3.53223 14.0586 3.875 14.4277 4.29688 14.4277Z" fill="#1C1C1E"/>
</svg>
