<svg width="28" height="28" viewBox="0 0 28 28" fill="none" xmlns="http://www.w3.org/2000/svg">
<path d="M4.29688 4.97949H23.6943C24.125 4.97949 24.459 4.61035 24.459 4.17969C24.459 3.75781 24.125 3.38867 23.6943 3.38867H4.29688C3.875 3.38867 3.53223 3.75781 3.53223 4.17969C3.53223 4.61035 3.875 4.97949 4.29688 4.97949ZM7.91797 23.9375H11.126C12.4619 23.9375 13.2266 23.1641 13.2266 21.8018V8.70605C13.2266 7.34375 12.4619 6.57031 11.126 6.57031H7.91797C6.57324 6.57031 5.81738 7.34375 5.81738 8.70605V21.8018C5.81738 23.1641 6.57324 23.9375 7.91797 23.9375ZM16.8828 17.8115H20.0996C21.4355 17.8115 22.1914 17.0469 22.1914 15.6846V8.70605C22.1914 7.34375 21.4355 6.57031 20.0996 6.57031H16.8828C15.5469 6.57031 14.7822 7.34375 14.7822 8.70605V15.6846C14.7822 17.0469 15.5469 17.8115 16.8828 17.8115ZM8.11133 22.3203C7.68066 22.3203 7.43457 22.0742 7.43457 21.6611V8.85547C7.43457 8.43359 7.68066 8.19629 8.11133 8.19629H10.9326C11.3633 8.19629 11.6094 8.43359 11.6094 8.85547V21.6611C11.6094 22.0742 11.3633 22.3203 10.9326 22.3203H8.11133ZM17.0762 16.1943C16.6455 16.1943 16.4082 15.957 16.4082 15.5352V8.85547C16.4082 8.43359 16.6455 8.19629 17.0762 8.19629H19.8975C20.3369 8.19629 20.5742 8.43359 20.5742 8.85547V15.5352C20.5742 15.957 20.3369 16.1943 19.8975 16.1943H17.0762Z" fill="#1C1C1E"/>
</svg>
