<svg width="28" height="28" viewBox="0 0 28 28" fill="none" xmlns="http://www.w3.org/2000/svg">
<path d="M21.9175 22.4277C22.2764 22.4277 22.584 22.1494 22.584 21.7905V5.62598C22.584 5.27441 22.2764 4.98877 21.9175 4.98877C21.5659 4.98877 21.2583 5.27441 21.2583 5.62598V21.7905C21.2583 22.1494 21.5659 22.4277 21.9175 22.4277ZM18.1675 13.0601C19.3027 13.0601 19.9473 12.4229 19.9473 11.3096V8.63623C19.9473 7.51562 19.3027 6.88574 18.1675 6.88574H12.2935C11.1582 6.88574 10.521 7.51562 10.521 8.63623V11.3096C10.521 12.4229 11.1582 13.0601 12.2935 13.0601H18.1675ZM18.0503 11.7124H12.418C12.0664 11.7124 11.8687 11.5073 11.8687 11.1484V8.79736C11.8687 8.43115 12.0664 8.2334 12.418 8.2334H18.0503C18.3945 8.2334 18.5996 8.43115 18.5996 8.79736V11.1484C18.5996 11.5073 18.3945 11.7124 18.0503 11.7124ZM18.1675 20.5308C19.3027 20.5308 19.9473 19.9009 19.9473 18.7876V16.1069C19.9473 14.9937 19.3027 14.3564 18.1675 14.3564H7.1958C6.06055 14.3564 5.41602 14.9937 5.41602 16.1069V18.7876C5.41602 19.9009 6.06055 20.5308 7.1958 20.5308H18.1675ZM18.0503 19.1831H7.31299C6.96875 19.1831 6.76367 18.9854 6.76367 18.6191V16.2681C6.76367 15.9092 6.96875 15.7114 7.31299 15.7114H18.0503C18.3945 15.7114 18.5996 15.9092 18.5996 16.2681V18.6191C18.5996 18.9854 18.3945 19.1831 18.0503 19.1831Z" fill="#1C1C1E"/>
</svg>
