<svg width="28" height="28" viewBox="0 0 28 28" fill="none" xmlns="http://www.w3.org/2000/svg">
<path d="M23.501 24.1133C23.9316 24.1133 24.3008 23.7793 24.3008 23.3486V3.95117C24.3008 3.5293 23.9316 3.18652 23.501 3.18652C23.0791 3.18652 22.71 3.5293 22.71 3.95117V23.3486C22.71 23.7793 23.0791 24.1133 23.501 24.1133ZM19.001 12.8721C20.3633 12.8721 21.1367 12.1074 21.1367 10.7715V7.56348C21.1367 6.21875 20.3633 5.46289 19.001 5.46289H11.9521C10.5898 5.46289 9.8252 6.21875 9.8252 7.56348V10.7715C9.8252 12.1074 10.5898 12.8721 11.9521 12.8721H19.001ZM19.001 21.8369C20.3633 21.8369 21.1367 21.0811 21.1367 19.7451V16.5283C21.1367 15.1924 20.3633 14.4277 19.001 14.4277H5.83496C4.47266 14.4277 3.69922 15.1924 3.69922 16.5283V19.7451C3.69922 21.0811 4.47266 21.8369 5.83496 21.8369H19.001Z" fill="#1C1C1E"/>
</svg>
