<svg width="28" height="28" viewBox="0 0 28 28" fill="none" xmlns="http://www.w3.org/2000/svg">
<path d="M17.2432 4.3291C17.8672 4.3291 18.377 3.81934 18.377 3.19531C18.377 2.5625 17.8672 2.06152 17.2432 2.06152C16.6104 2.06152 16.1094 2.5625 16.1094 3.19531C16.1094 3.81934 16.6104 4.3291 17.2432 4.3291ZM12.2861 6.21875C12.9102 6.21875 13.4199 5.71777 13.4199 5.08496C13.4199 4.46094 12.9102 3.95117 12.2861 3.95117C11.6533 3.95117 11.1523 4.46094 11.1523 5.08496C11.1523 5.71777 11.6533 6.21875 12.2861 6.21875ZM22.4551 6.47363C23.0879 6.47363 23.5889 5.96387 23.5889 5.33105C23.5889 4.70703 23.0879 4.19727 22.4551 4.19727C21.8311 4.19727 21.3213 4.70703 21.3213 5.33105C21.3213 5.96387 21.8311 6.47363 22.4551 6.47363ZM17.2432 14.7354C19.6689 14.7354 21.6641 12.7314 21.6641 10.2881C21.6641 7.8623 19.6689 5.88477 17.2432 5.88477C14.8174 5.88477 12.8135 7.8623 12.8135 10.2881C12.8135 12.7314 14.8174 14.7354 17.2432 14.7354ZM17.2432 12.3096C16.1445 12.3096 15.2305 11.3955 15.2305 10.2969C15.2305 9.20703 16.1445 8.30176 17.2432 8.30176C18.333 8.30176 19.2383 9.20703 19.2383 10.2969C19.2383 11.3955 18.333 12.3096 17.2432 12.3096ZM10.3438 11.4395C10.9766 11.4395 11.4775 10.9297 11.4775 10.3057C11.4775 9.67285 10.9766 9.17188 10.3438 9.17188C9.71973 9.17188 9.20996 9.67285 9.20996 10.3057C9.20996 10.9297 9.71973 11.4395 10.3438 11.4395ZM24.3535 11.457C24.9863 11.457 25.4873 10.9561 25.4873 10.3232C25.4873 9.69922 24.9863 9.18945 24.3535 9.18945C23.7207 9.18945 23.2197 9.69922 23.2197 10.3232C23.2197 10.9561 23.7207 11.457 24.3535 11.457ZM5.79102 13.5664C6.42383 13.5664 6.9248 13.0654 6.9248 12.4326C6.9248 11.8086 6.42383 11.2988 5.79102 11.2988C5.1582 11.2988 4.65723 11.8086 4.65723 12.4326C4.65723 13.0654 5.1582 13.5664 5.79102 13.5664ZM10.3438 21.0811C12.4707 21.0811 14.1934 19.3584 14.1934 17.2139C14.1934 15.1045 12.4619 13.3906 10.3438 13.3906C8.22559 13.3906 6.50293 15.1045 6.50293 17.2139C6.50293 19.3496 8.22559 21.0811 10.3438 21.0811ZM22.2002 16.6602C22.8242 16.6602 23.334 16.1592 23.334 15.5352C23.334 14.9023 22.8242 14.3926 22.2002 14.3926C21.5674 14.3926 21.0664 14.9023 21.0664 15.5352C21.0664 16.1592 21.5674 16.6602 22.2002 16.6602ZM10.3438 18.8398C9.45605 18.8398 8.73535 18.1279 8.73535 17.2227C8.73535 16.335 9.45605 15.6143 10.3438 15.6143C11.2314 15.6143 11.9697 16.3438 11.9697 17.2227C11.9697 18.1279 11.2402 18.8398 10.3438 18.8398ZM17.2256 18.3477C17.8584 18.3477 18.3682 17.8379 18.3682 17.2139C18.3682 16.5811 17.8584 16.0801 17.2256 16.0801C16.6016 16.0801 16.0918 16.5811 16.0918 17.2139C16.0918 17.8379 16.6016 18.3477 17.2256 18.3477ZM3.6377 18.3652C4.27051 18.3652 4.77148 17.8643 4.77148 17.2314C4.77148 16.5986 4.27051 16.0977 3.6377 16.0977C3.00488 16.0977 2.50391 16.5986 2.50391 17.2314C2.50391 17.8643 3.00488 18.3652 3.6377 18.3652ZM15.1777 22.918C15.8105 22.918 16.3115 22.417 16.3115 21.7842C16.3115 21.1602 15.8105 20.6504 15.1777 20.6504C14.5449 20.6504 14.0439 21.1602 14.0439 21.7842C14.0439 22.417 14.5449 22.918 15.1777 22.918ZM5.79102 23.1553C6.42383 23.1553 6.9248 22.6543 6.9248 22.0215C6.9248 21.3975 6.42383 20.8877 5.79102 20.8877C5.1582 20.8877 4.65723 21.3975 4.65723 22.0215C4.65723 22.6543 5.1582 23.1553 5.79102 23.1553ZM10.3438 25.0801C10.9766 25.0801 11.4775 24.5703 11.4775 23.9375C11.4775 23.3135 10.9766 22.8037 10.3438 22.8037C9.71973 22.8037 9.20996 23.3135 9.20996 23.9375C9.20996 24.5703 9.71973 25.0801 10.3438 25.0801Z" fill="#1C1C1E"/>
</svg>
