<svg width="28" height="28" viewBox="0 0 28 28" fill="none" xmlns="http://www.w3.org/2000/svg">
<path d="M13.9912 24.1045C16.5312 24.1045 18.7285 21.3799 18.7285 18.4531C18.7285 18.0576 18.667 17.7324 18.5352 17.4512C18.7549 17.5127 18.9834 17.5742 19.2031 17.627C19.7832 17.8027 19.959 18.0576 19.8799 18.5762L19.2471 22.7158C19.1592 23.2783 19.5107 23.6035 19.9678 23.6035C20.4512 23.6035 20.6709 23.3047 20.75 22.8213L21.4619 18.2949C21.6377 17.1787 21.1895 16.5723 19.9766 16.2998L15.9951 15.377L15.9863 15.2891C16.3379 15.1221 16.5752 14.7881 16.6982 14.4277L19.4492 14.0762C20.6357 13.9268 21.1631 13.2412 21.1631 12.0723V9.05762C21.1631 8.58301 20.8906 8.30176 20.416 8.30176C19.9414 8.30176 19.6689 8.58301 19.6689 9.05762V11.7559C19.6689 12.4238 19.3086 12.6436 18.7021 12.7139L16.7686 12.96C16.6719 12.6963 16.4961 12.459 16.2588 12.3008V12.2129C17.7881 11.9316 18.6318 11.0088 18.6318 9.65527C18.6318 8.57422 18.2363 7.57227 17.5947 6.79004L17.709 6.71094C18.6143 6.06055 18.7725 5.12012 18.1924 4.07422L17.6826 3.22168C17.5068 2.8877 17.2959 2.74707 16.9883 2.74707C16.6016 2.74707 16.3027 3.03711 16.3027 3.41504C16.3027 3.58203 16.3291 3.67871 16.4258 3.86328L16.8652 4.54883C17.1465 5.00586 17.1289 5.41016 16.7598 5.72656C16.7158 5.77051 16.6719 5.79688 16.6191 5.84082C15.8721 5.31348 14.9668 5.01465 13.9912 5.01465C13.0332 5.01465 12.1367 5.31348 11.3896 5.83203C11.3457 5.79688 11.3018 5.76172 11.2578 5.71777C10.8887 5.41016 10.8711 5.00586 11.1523 4.54883L11.5918 3.86328C11.6973 3.67871 11.7148 3.58203 11.7148 3.41504C11.7148 3.03711 11.4248 2.74707 11.0293 2.74707C10.7305 2.74707 10.5107 2.8877 10.335 3.22168L9.8252 4.07422C9.24512 5.12012 9.40332 6.06055 10.3086 6.71094L10.4053 6.78125C9.76367 7.55469 9.35938 8.56543 9.35938 9.65527C9.35938 11.0088 10.2031 11.9316 11.7236 12.2129V12.3008C11.4863 12.459 11.3193 12.6963 11.2139 12.96L9.28906 12.7139C8.68262 12.6436 8.32227 12.4238 8.32227 11.7559V9.05762C8.32227 8.58301 8.0498 8.30176 7.5752 8.30176C7.10059 8.30176 6.81934 8.58301 6.81934 9.05762V12.0723C6.81934 13.2412 7.35547 13.9268 8.54199 14.0762L11.293 14.4277C11.4072 14.7881 11.6533 15.1221 12.0049 15.2891V15.377L8.01465 16.2998C6.80176 16.5723 6.35352 17.1787 6.5293 18.2949L7.24121 22.8213C7.32031 23.3047 7.54004 23.6035 8.02344 23.6035C8.48047 23.6035 8.83203 23.2783 8.74414 22.7158L8.11133 18.5762C8.03223 18.0488 8.20801 17.8027 8.79688 17.627C9.0166 17.5654 9.23633 17.5127 9.45605 17.4512C9.32422 17.7324 9.2627 18.0576 9.2627 18.4531C9.2627 21.3799 11.46 24.1045 13.9912 24.1045Z" fill="#1C1C1E"/>
</svg>
