<svg width="28" height="28" viewBox="0 0 28 28" fill="none" xmlns="http://www.w3.org/2000/svg">
<path d="M8.02344 23.6035C8.48047 23.6035 8.83203 23.2783 8.74414 22.7158L8.11133 18.5762C8.02344 18.0312 8.2168 17.7852 8.8584 17.6094L9.37695 17.4688C9.29785 17.7588 9.2627 18.084 9.2627 18.4531C9.2627 21.3799 11.46 24.1045 13.9912 24.1045C16.5312 24.1045 18.7285 21.3799 18.7285 18.4531C18.7285 18.0928 18.6934 17.7588 18.6143 17.4688L19.124 17.6094C19.7744 17.7852 19.959 18.0312 19.8799 18.5762L19.2471 22.7158C19.1592 23.2783 19.5107 23.6035 19.9678 23.6035C20.4512 23.6035 20.6709 23.3047 20.75 22.8213L21.4619 18.2949C21.6377 17.1787 21.1895 16.5811 19.9766 16.2998L16.0566 15.377V15.2891C16.417 15.1133 16.6719 14.7969 16.8125 14.4277L19.4492 14.0762C20.6357 13.9268 21.1631 13.2412 21.1631 12.0723V9.05762C21.1631 8.58301 20.8906 8.30176 20.416 8.30176C19.9414 8.30176 19.6689 8.58301 19.6689 9.05762V11.7559C19.6689 12.4238 19.3086 12.6348 18.7021 12.7139L16.8477 12.96C16.7422 12.6963 16.5752 12.459 16.3379 12.3008V12.2129C17.8672 11.9316 18.6318 11.0088 18.6318 9.65527C18.6318 8.57422 18.2451 7.57227 17.6123 6.77246L17.709 6.71094C18.6143 6.06055 18.7725 5.12012 18.1924 4.07422L17.6826 3.22168C17.5068 2.8877 17.2959 2.74707 16.9883 2.74707C16.6016 2.74707 16.3027 3.03711 16.3027 3.41504C16.3027 3.58203 16.3291 3.67871 16.4258 3.86328L16.8652 4.54883C17.1641 5.04102 17.1201 5.47168 16.6807 5.78809L16.6104 5.84082C15.8633 5.32227 14.958 5.01465 13.9912 5.01465C13.0332 5.01465 12.1367 5.31348 11.3896 5.83203L11.3369 5.78809C10.8975 5.47168 10.8535 5.04102 11.1523 4.54883L11.5918 3.86328C11.6973 3.67871 11.7148 3.58203 11.7148 3.41504C11.7148 3.03711 11.4248 2.74707 11.0293 2.74707C10.7305 2.74707 10.5107 2.8877 10.335 3.22168L9.8252 4.07422C9.24512 5.12012 9.40332 6.06055 10.3086 6.71094L10.3877 6.76367C9.74609 7.55469 9.35938 8.56543 9.35938 9.65527C9.35938 11.0088 10.124 11.9316 11.6533 12.2129V12.3008C11.416 12.459 11.249 12.6963 11.1436 12.96L9.28906 12.7139C8.68262 12.6348 8.32227 12.4238 8.32227 11.7559V9.05762C8.32227 8.58301 8.0498 8.30176 7.5752 8.30176C7.10059 8.30176 6.81934 8.58301 6.81934 9.05762V12.0723C6.81934 13.2412 7.35547 13.9268 8.54199 14.0762L11.1699 14.4277C11.3193 14.7969 11.5742 15.1133 11.9258 15.2891V15.377L8.01465 16.2998C6.80176 16.5811 6.35352 17.1787 6.5293 18.2949L7.24121 22.8213C7.32031 23.3047 7.54004 23.6035 8.02344 23.6035ZM12.4355 10.833C11.4951 10.833 10.959 10.376 10.959 9.59375C10.959 7.99414 12.374 6.62305 13.9912 6.62305C15.6084 6.62305 17.0322 7.99414 17.0322 9.59375C17.0322 10.376 16.4961 10.833 15.5469 10.833H12.4355ZM12.4619 13.6016C12.4619 12.8105 12.9453 12.3535 13.7891 12.3535H14.2109C15.0459 12.3535 15.5293 12.8105 15.5293 13.6016C15.5293 14.5771 14.8701 15.4033 14.0791 15.4033H13.9121C13.1211 15.4033 12.4619 14.5771 12.4619 13.6016ZM13.9912 22.4258C12.2158 22.4258 10.8623 20.3428 10.8623 18.6377C10.8623 17.5039 11.5215 16.8096 12.8047 16.8096H15.1865C16.4697 16.8096 17.1201 17.5039 17.1201 18.6377C17.1201 20.3428 15.7754 22.4258 13.9912 22.4258Z" fill="#1C1C1E"/>
</svg>
