<svg width="28" height="28" viewBox="0 0 28 28" fill="none" xmlns="http://www.w3.org/2000/svg">
<path d="M14 22.7334C18.9658 22.7334 23.0791 18.6289 23.0791 13.6543C23.0791 8.68848 18.9658 4.5752 13.9912 4.5752C9.02539 4.5752 4.9209 8.68848 4.9209 13.6543C4.9209 18.6289 9.03418 22.7334 14 22.7334ZM14 20.9492C9.95703 20.9492 6.71387 17.6973 6.71387 13.6543C6.71387 9.61133 9.94824 6.36816 13.9912 6.36816C18.0342 6.36816 21.2861 9.61133 21.2949 13.6543C21.2949 17.6973 18.043 20.9492 14 20.9492ZM8.5332 13.4082C8.5332 14.7266 8.99902 15.9482 9.85156 16.8623C10.0977 17.126 10.458 17.1436 10.6777 16.8887C10.8711 16.6689 10.8447 16.3701 10.6162 16.0889C9.96582 15.3857 9.61426 14.4453 9.61426 13.4082C9.61426 12.3711 9.96582 11.4307 10.6162 10.7275C10.8447 10.4551 10.8711 10.1475 10.6865 9.92773C10.4668 9.67285 10.0977 9.68164 9.85156 9.9541C9.00781 10.8682 8.5332 12.0986 8.5332 13.4082ZM18.3682 13.4082C18.3682 14.4453 18.0166 15.3857 17.375 16.0889C17.1377 16.3701 17.1113 16.6689 17.3047 16.8887C17.5244 17.1436 17.8936 17.126 18.1396 16.8623C18.9922 15.9482 19.4492 14.7266 19.4492 13.4082C19.4492 12.0986 18.9746 10.8682 18.1396 9.9541C17.8936 9.68164 17.5244 9.67285 17.3047 9.92773C17.1113 10.1475 17.1377 10.4551 17.375 10.7275C18.0166 11.4307 18.3682 12.3711 18.3682 13.4082ZM10.6426 13.4082C10.6426 14.1553 10.8887 14.876 11.3369 15.4209C11.5654 15.7021 11.9697 15.7109 12.1895 15.4561C12.374 15.2363 12.3389 14.9639 12.1191 14.665C11.8643 14.3311 11.7236 13.8828 11.7236 13.4082C11.7236 12.9424 11.873 12.4941 12.1279 12.1338C12.3389 11.8438 12.3652 11.5713 12.1895 11.3604C11.9609 11.0967 11.5654 11.1055 11.3369 11.3955C10.8887 11.9404 10.6426 12.6523 10.6426 13.4082ZM16.2676 13.4082C16.2676 13.8916 16.1182 14.3398 15.8633 14.6738C15.6348 14.9727 15.6172 15.2363 15.8018 15.4561C16.0127 15.7109 16.417 15.7021 16.6455 15.4209C17.0938 14.876 17.3486 14.1553 17.3486 13.4082C17.3486 12.6523 17.0938 11.9404 16.6455 11.3955C16.417 11.1055 16.0215 11.0967 15.8018 11.3604C15.626 11.5713 15.6436 11.8438 15.8545 12.1338C16.1182 12.4941 16.2676 12.9424 16.2676 13.4082ZM12.9541 13.4082C12.9541 13.7949 13.165 14.1201 13.4814 14.3047V18.6465C13.4814 18.9805 13.6924 19.2178 13.9912 19.2178C14.3076 19.2178 14.5098 18.9893 14.5098 18.6465V14.3047C14.8174 14.1201 15.0371 13.7861 15.0371 13.4082C15.0371 12.8281 14.5713 12.3623 13.9912 12.3623C13.4111 12.3623 12.9541 12.8281 12.9541 13.4082Z" fill="#1C1C1E"/>
</svg>
