<svg width="28" height="28" viewBox="0 0 28 28" fill="none" xmlns="http://www.w3.org/2000/svg">
<path d="M21.5674 20.2109C21.8398 20.4834 22.2969 20.4834 22.5605 20.2109C22.8242 19.9385 22.833 19.499 22.5605 19.2266L6.74902 3.41504C6.46777 3.14258 6.01953 3.14258 5.74707 3.41504C5.4834 3.67871 5.4834 4.14453 5.74707 4.4082L21.5674 20.2109ZM21.9717 16.9414C23.0264 15.4736 23.5977 13.6455 23.5977 11.6943C23.5977 9.38281 22.7715 7.21191 21.3213 5.65625C20.917 5.22559 20.3721 5.24316 20.0557 5.6123C19.7568 5.96387 19.8535 6.41211 20.1963 6.79883C21.3564 8.08203 21.998 9.80469 21.998 11.6943C21.998 13.2148 21.585 14.6211 20.8115 15.7812L21.9717 16.9414ZM7.92676 17.7852C8.23438 17.4336 8.1377 16.9854 7.79492 16.5986C6.63477 15.3154 5.99316 13.584 5.99316 11.6943C5.99316 10.1475 6.42383 8.72363 7.21484 7.55469L6.06348 6.40332C4.99121 7.8623 4.39355 9.72559 4.39355 11.6943C4.39355 14.0146 5.20215 16.168 6.66992 17.7412C7.06543 18.1719 7.61914 18.1543 7.92676 17.7852ZM19.2383 14.208C19.625 13.4785 19.8359 12.6084 19.8359 11.6943C19.8359 10.376 19.3965 9.14551 18.6406 8.22266C18.2715 7.77441 17.6826 7.79199 17.3662 8.16113C17.0762 8.5127 17.1904 8.94336 17.4805 9.34766C17.9551 9.98047 18.2363 10.8154 18.2363 11.6943C18.2363 12.1338 18.1484 12.5732 17.999 12.9688L19.2383 14.208ZM10.625 15.2275C10.915 14.8848 10.8008 14.4541 10.5107 14.0498C10.0186 13.4346 9.75488 12.5732 9.75488 11.6943C9.75488 11.2285 9.85156 10.7803 10.0186 10.3584L8.77051 9.11914C8.36621 9.88379 8.15527 10.7715 8.15527 11.6943C8.15527 13.0127 8.58594 14.252 9.35059 15.1748C9.71973 15.6143 10.3086 15.6055 10.625 15.2275ZM13.9912 21.8721C14.4658 21.8721 14.7559 21.5293 14.7559 21.0195V15.0957L13.2354 13.5752V21.0195C13.2354 21.5205 13.543 21.8721 13.9912 21.8721Z" fill="#1C1C1E"/>
</svg>
