<svg width="28" height="28" viewBox="0 0 28 28" fill="none" xmlns="http://www.w3.org/2000/svg">
<path d="M8.2168 10.1299C8.2168 12.002 9.35059 13.2939 11.5303 13.874L15.9688 15.0781C17.375 15.4648 18.0957 16.1943 18.0957 17.2139V17.3984H17.7002C17.1113 17.3984 16.6455 17.4688 16.3027 17.8027C15.96 18.1455 15.8984 18.6025 15.8984 19.2002V21.6348C15.8984 22.2324 15.96 22.707 16.3027 23.0322C16.6455 23.375 17.1113 23.4453 17.709 23.4453H20.1436C20.7412 23.4453 21.207 23.375 21.5498 23.0322C21.8838 22.707 21.9453 22.2324 21.9453 21.6348V19.2002C21.9453 18.6025 21.8838 18.1455 21.5498 17.8027C21.207 17.4688 20.7412 17.3984 20.1436 17.3984H19.7832V17.2139C19.7832 15.3418 18.6494 14.0498 16.4697 13.4697L12.0312 12.2656C10.6338 11.8877 9.9043 11.1494 9.9043 10.1299V9.93652H10.2822C10.8799 9.93652 11.3545 9.86621 11.6885 9.52344C12.0225 9.18945 12.0928 8.72363 12.0928 8.12598V5.69141C12.0928 5.09375 12.0225 4.63672 11.6885 4.29395C11.3545 3.95996 10.8799 3.88965 10.2822 3.88965H7.84766C7.25 3.88965 6.78418 3.95996 6.44141 4.29395C6.10742 4.63672 6.0459 5.09375 6.0459 5.69141V8.12598C6.0459 8.72363 6.10742 9.18945 6.44141 9.52344C6.78418 9.86621 7.25 9.93652 7.84766 9.93652H8.2168V10.1299Z" fill="#1C1C1E"/>
</svg>
