<svg width="28" height="28" viewBox="0 0 28 28" fill="none" xmlns="http://www.w3.org/2000/svg">
<path d="M9.41211 21.4414C9.41211 22.7158 10.2559 23.5156 11.6006 23.5156H16.4082C17.7529 23.5156 18.5879 22.7158 18.5879 21.4414V5.83203C18.5879 4.55762 17.7529 3.75781 16.4082 3.75781H11.6006C10.2559 3.75781 9.41211 4.55762 9.41211 5.83203V21.4414ZM14.0088 13.0039C12.3301 13.0039 10.9678 11.6328 10.9678 9.9541C10.9678 8.27539 12.3301 6.91309 14.0088 6.91309C15.6787 6.91309 17.0498 8.27539 17.0498 9.9541C17.0498 11.6328 15.6787 13.0039 14.0088 13.0039ZM14.0088 11.1846C14.6943 11.1846 15.2393 10.6396 15.2393 9.9541C15.2393 9.26855 14.6943 8.72363 14.0088 8.72363C13.332 8.72363 12.7783 9.26855 12.7783 9.9541C12.7783 10.6396 13.332 11.1846 14.0088 11.1846ZM14.0088 16.5898C13.3584 16.5898 12.8486 16.0713 12.8486 15.4385C12.8486 14.7881 13.3584 14.2783 14.0088 14.2783C14.6416 14.2783 15.1602 14.7881 15.1602 15.4385C15.1602 16.0713 14.6416 16.5898 14.0088 16.5898Z" fill="#1C1C1E"/>
</svg>
