<svg width="28" height="28" viewBox="0 0 28 28" fill="none" xmlns="http://www.w3.org/2000/svg">
<g clip-path="url(#clip0_308_1565)">
<path d="M8.14648 17.0996C8.14648 18.5322 8.75293 19.4199 9.62305 19.9209C10.0801 20.1846 10.3438 20.501 10.5195 21.0283L10.8447 22.0039C11.0469 22.6104 11.5039 22.8389 12.0488 22.8389H15.9424C16.4873 22.8389 16.9443 22.6279 17.1465 22.0039L17.4717 21.0283C17.6475 20.501 17.9111 20.1846 18.3682 19.9209C19.2471 19.4199 19.8535 18.5322 19.8535 17.0996V13.1357H19.8799C20.3721 13.1357 20.7061 12.7842 20.7061 12.2568V11.1143C20.7061 10.5869 20.3721 10.2354 19.8799 10.2354H19.8535V10.209C19.8535 8.77637 19.2471 7.88867 18.3682 7.3877C17.9111 7.12402 17.6475 6.80762 17.4717 6.28027L17.1465 5.30469C16.9531 4.69824 16.4873 4.46973 15.9424 4.46973H12.0488C11.5039 4.46973 11.0469 4.69824 10.8447 5.30469L10.5195 6.28027C10.3438 6.81641 10.0713 7.1416 9.62305 7.3877C8.74414 7.87109 8.14648 8.77637 8.14648 10.209V17.0996ZM3.04883 19.6572C3.34766 19.3057 3.25098 18.8662 2.91699 18.4883C1.77441 17.2227 1.1416 15.5176 1.1416 13.6543C1.1416 11.791 1.77441 10.0859 2.91699 8.82031C3.25977 8.44238 3.34766 8.00293 3.04883 7.65137C2.74121 7.29102 2.19629 7.26465 1.80078 7.69531C0.376953 9.2334 -0.44043 11.3691 -0.44043 13.6543C-0.44043 15.9395 0.350586 18.0576 1.80078 19.6133C2.20508 20.0439 2.74121 20.0264 3.04883 19.6572ZM24.9424 19.6572C25.25 20.0264 25.7949 20.0439 26.1904 19.6133C27.6406 18.0576 28.4316 15.9395 28.4316 13.6543C28.4316 11.3691 27.6143 9.2334 26.1904 7.69531C25.7949 7.26465 25.2588 7.29102 24.9424 7.65137C24.6436 8.00293 24.7314 8.44238 25.0742 8.82031C26.2168 10.0859 26.8584 11.791 26.8584 13.6543C26.8584 15.5176 26.2168 17.2227 25.0742 18.4883C24.7402 18.8662 24.6436 19.3057 24.9424 19.6572ZM9.69336 16.8271V10.4814C9.69336 9.28613 10.3789 8.58301 11.5303 8.58301H16.4609C17.6211 8.58301 18.2979 9.28613 18.2979 10.4814V16.8271C18.2979 18.0137 17.6211 18.7168 16.4609 18.7168H11.5303C10.3789 18.7168 9.69336 18.0137 9.69336 16.8271ZM5.62402 17.1348C5.91406 16.792 5.7998 16.3701 5.50977 15.9746C5.03516 15.3682 4.77148 14.5156 4.77148 13.6543C4.77148 12.793 5.03516 11.9404 5.50977 11.334C5.7998 10.9385 5.91406 10.5166 5.62402 10.165C5.31641 9.80469 4.73633 9.78711 4.36719 10.2266C3.61133 11.1318 3.18945 12.3535 3.18945 13.6543C3.18945 14.9551 3.61133 16.1768 4.36719 17.082C4.73633 17.5215 5.31641 17.5039 5.62402 17.1348ZM22.3672 17.1348C22.6748 17.5039 23.2637 17.5215 23.624 17.082C24.3799 16.1768 24.8018 14.9551 24.8018 13.6543C24.8018 12.3535 24.3799 11.1318 23.624 10.2266C23.2637 9.78711 22.6748 9.80469 22.3672 10.165C22.0771 10.5166 22.1914 10.9385 22.4814 11.334C22.9561 11.9404 23.2197 12.793 23.2197 13.6543C23.2197 14.5156 22.9561 15.3682 22.4814 15.9746C22.1914 16.3701 22.0771 16.792 22.3672 17.1348Z" fill="#1C1C1E"/>
</g>
<defs>
<clipPath id="clip0_308_1565">
<rect width="28" height="28" fill="white"/>
</clipPath>
</defs>
</svg>
