<svg width="28" height="28" viewBox="0 0 28 28" fill="none" xmlns="http://www.w3.org/2000/svg">
<path d="M11.6797 23.5156H16.3027C17.832 23.5156 18.834 22.5488 18.834 21.0986V6.1748C18.834 4.72461 17.832 3.75781 16.3027 3.75781H11.6797C10.1504 3.75781 9.15723 4.71582 9.15723 6.1748V21.0986C9.15723 22.5576 10.1504 23.5156 11.6797 23.5156ZM11.8818 21.9336C11.1875 21.9336 10.7656 21.5293 10.7656 20.8701V6.40332C10.7656 5.75293 11.1875 5.33984 11.8818 5.33984H16.1006C16.7861 5.33984 17.2256 5.75293 17.2256 6.40332V20.8701C17.2256 21.5293 16.7861 21.9336 16.1006 21.9336H11.8818ZM14 12.4678C15.5029 12.4678 16.7246 11.2461 16.7246 9.74316C16.7246 8.24023 15.5029 7.01855 14 7.01855C12.4971 7.01855 11.2754 8.24023 11.2754 9.74316C11.2754 11.2461 12.4971 12.4678 14 12.4678ZM14 10.833C13.4023 10.833 12.9189 10.3496 12.9189 9.74316C12.9189 9.14551 13.4023 8.66211 14 8.66211C14.6064 8.66211 15.0898 9.14551 15.0898 9.74316C15.0898 10.3496 14.6064 10.833 14 10.833ZM12.6289 15.2627C13.1914 15.2627 13.6484 14.8057 13.6484 14.2344C13.6484 13.6719 13.1914 13.2061 12.6289 13.2061C12.0576 13.2061 11.5918 13.6631 11.5918 14.2344C11.5918 14.8057 12.0576 15.2627 12.6289 15.2627ZM15.4326 18.0488C15.9775 18.0488 16.417 17.6182 16.417 17.0732V14.1816C16.417 13.6367 15.9688 13.2061 15.4326 13.2061C14.8965 13.2061 14.4658 13.6455 14.4658 14.1816V17.0732C14.4658 17.6182 14.8965 18.0488 15.4326 18.0488ZM12.6289 18.0488C13.1914 18.0488 13.6484 17.5918 13.6484 17.0293C13.6484 16.458 13.1914 16.001 12.6289 16.001C12.0576 16.001 11.5918 16.458 11.5918 17.0293C11.5918 17.5918 12.0576 18.0488 12.6289 18.0488Z" fill="#1C1C1E"/>
</svg>
