<svg width="28" height="28" viewBox="0 0 28 28" fill="none" xmlns="http://www.w3.org/2000/svg">
<path d="M12.1631 23.5332H15.8369C17.4805 23.5332 18.4648 22.54 18.4648 20.9229V6.37695C18.4648 4.75977 17.4805 3.77539 15.8369 3.77539H12.1631C10.5283 3.77539 9.53516 4.75977 9.53516 6.37695V20.9229C9.53516 22.5488 10.5283 23.5332 12.1631 23.5332ZM14.0264 12.5205C12.4004 12.5205 11.0732 11.1934 11.0732 9.56738C11.0732 7.93262 12.4004 6.61426 14.0264 6.61426C15.6523 6.61426 16.9795 7.93262 16.9795 9.56738C16.9795 11.1934 15.6523 12.5205 14.0264 12.5205ZM14.0264 10.7627C14.6943 10.7627 15.2217 10.2266 15.2217 9.56738C15.2217 8.89941 14.6943 8.37207 14.0264 8.37207C13.3584 8.37207 12.8311 8.89941 12.8311 9.56738C12.8311 10.2266 13.3584 10.7627 14.0264 10.7627ZM12.5059 15.5088C11.8906 15.5088 11.3984 15.0166 11.3984 14.4102C11.3984 13.7949 11.8906 13.3027 12.5059 13.3027C13.1035 13.3027 13.5957 13.7949 13.5957 14.4102C13.5957 15.0166 13.1035 15.5088 12.5059 15.5088ZM15.582 18.5234C15.0195 18.5234 14.5537 18.0576 14.5537 17.4775V14.3486C14.5537 13.7686 15.0195 13.3027 15.582 13.3027C16.1709 13.3027 16.6367 13.7598 16.6367 14.3486V17.4775C16.6367 18.0576 16.1709 18.5234 15.582 18.5234ZM12.5059 18.5234C11.8906 18.5234 11.3984 18.0225 11.3984 17.4248C11.3984 16.8096 11.8906 16.3086 12.5059 16.3086C13.1035 16.3086 13.5957 16.8096 13.5957 17.4248C13.5957 18.0225 13.1035 18.5234 12.5059 18.5234Z" fill="#1C1C1E"/>
</svg>
