<svg width="28" height="28" viewBox="0 0 28 28" fill="none" xmlns="http://www.w3.org/2000/svg">
<path d="M21.8047 5.90234C20.8994 4.99707 19.6514 4.82129 18.0342 4.82129H9.93945C8.34863 4.82129 7.10059 4.99707 6.19531 5.90234C5.29004 6.80762 5.12305 8.04688 5.12305 9.6377V17.6797C5.12305 19.2969 5.29004 20.5361 6.19531 21.4326C7.10059 22.3291 8.34863 22.5137 9.95703 22.5137H18.0342C19.6514 22.5137 20.8994 22.3291 21.8047 21.4326C22.7012 20.5273 22.877 19.2969 22.877 17.6797V9.65527C22.877 8.03809 22.7012 6.79883 21.8047 5.90234ZM10.0186 11.7207C9.99219 11.0439 10.5283 10.4111 11.2402 10.3672C11.3018 11.0088 10.7305 11.791 10.0186 11.7207ZM14.8877 10.8066V11.8613H15.749V12.5732H14.8877V15.043C14.8877 15.4473 15.0635 15.5967 15.4326 15.5967C15.5205 15.5967 15.6875 15.5967 15.7227 15.5703V16.3174C15.6523 16.335 15.4326 16.3525 15.2305 16.3525C14.3252 16.3525 13.9648 16.0361 13.9648 15.1484V12.5732H13.332V11.8613H13.9648V10.8066H14.8877ZM12.4707 14.7881C12.3301 15.2451 12.0312 15.79 11.6445 16.1592C11.5215 16.2734 11.3457 16.3525 11.126 16.3525C10.9238 16.3525 10.8008 16.2734 10.625 16.2207C10.502 16.1855 10.3525 16.1064 10.1592 16.1064C9.71973 16.1064 9.52637 16.3701 9.15723 16.3701C8.91992 16.3701 8.71777 16.2207 8.44531 15.9219C7.93555 15.3594 7.60156 14.4541 7.60156 13.6807C7.60156 13.2061 7.72461 12.7578 8.01465 12.3887C8.26953 12.0547 8.65625 11.8701 9.12207 11.8701C9.56152 11.8701 9.81641 12.1426 10.0449 12.1426C10.3174 12.1426 10.6338 11.8613 11.1787 11.8613C11.6533 11.8613 12.0576 12.0547 12.3125 12.4414C11.9785 12.6436 11.8467 12.8896 11.7764 13.0918C11.6621 13.3906 11.6357 13.7422 11.7764 14.1025C11.8994 14.4189 12.1191 14.6387 12.4707 14.7881ZM18.7637 16.3174H17.7969L16.1621 11.8613H17.1289L18.2803 15.4473L19.3701 11.8613H20.3721L18.7637 16.3174Z" fill="#1C1C1E"/>
</svg>
