<svg width="28" height="28" viewBox="0 0 28 28" fill="none" xmlns="http://www.w3.org/2000/svg">
<path d="M9.05176 23.7705H18.9395C20.5303 23.7705 21.5674 22.7686 21.5674 21.2305V6.07812C21.5674 4.53125 20.5303 3.5293 18.9395 3.5293H9.05176C7.46094 3.5293 6.42383 4.53125 6.42383 6.07812V21.2305C6.42383 22.7686 7.46094 23.7705 9.05176 23.7705ZM9.29785 22.0215C8.57715 22.0215 8.17285 21.626 8.17285 20.9404V6.35938C8.17285 5.67383 8.57715 5.27832 9.29785 5.27832H18.6934C19.4141 5.27832 19.8184 5.67383 19.8184 6.35938V20.9404C19.8184 21.626 19.4141 22.0215 18.6934 22.0215H9.29785ZM9.99219 8.31934H10.7656C11.0029 8.31934 11.1787 8.16113 11.1787 7.94141V7.13281C11.1787 6.91309 11.0029 6.75488 10.7656 6.75488H9.99219C9.77246 6.75488 9.61426 6.92188 9.61426 7.13281V7.94141C9.61426 8.15234 9.77246 8.31934 9.99219 8.31934ZM12.4004 8.31934H13.1738C13.4111 8.31934 13.5869 8.16113 13.5869 7.94141V7.13281C13.5869 6.91309 13.4111 6.75488 13.1738 6.75488H12.4004C12.1895 6.75488 12.0225 6.92188 12.0225 7.13281V7.94141C12.0225 8.15234 12.1807 8.31934 12.4004 8.31934ZM14.8086 8.31934H15.582C15.8193 8.31934 15.9951 8.16113 15.9951 7.94141V7.13281C15.9951 6.91309 15.8193 6.75488 15.582 6.75488H14.8086C14.5889 6.75488 14.4219 6.92188 14.4219 7.13281V7.94141C14.4219 8.15234 14.5889 8.31934 14.8086 8.31934ZM17.208 8.31934H17.9902C18.2275 8.31934 18.3945 8.16113 18.3945 7.94141V7.13281C18.3945 6.91309 18.2275 6.75488 17.9902 6.75488H17.208C16.9971 6.75488 16.8301 6.92188 16.8301 7.13281V7.94141C16.8301 8.15234 16.9971 8.31934 17.208 8.31934ZM9.99219 10.7539H10.7656C11.0029 10.7539 11.1787 10.5869 11.1787 10.3672V9.56738C11.1787 9.33887 11.0029 9.18066 10.7656 9.18066H9.99219C9.77246 9.18066 9.61426 9.34766 9.61426 9.56738V10.3672C9.61426 10.5869 9.77246 10.7539 9.99219 10.7539ZM12.4004 10.7539H13.1738C13.4111 10.7539 13.5869 10.5869 13.5869 10.3672V9.56738C13.5869 9.33887 13.4111 9.18066 13.1738 9.18066H12.4004C12.1895 9.18066 12.0137 9.34766 12.0137 9.56738V10.3672C12.0137 10.5869 12.1807 10.7539 12.4004 10.7539ZM14.8086 10.7539H15.582C15.8193 10.7539 15.9951 10.5869 15.9951 10.376V9.56738C15.9951 9.33887 15.8193 9.18066 15.582 9.18066H14.8086C14.5889 9.18066 14.4219 9.34766 14.4219 9.56738V10.376C14.4219 10.5869 14.5889 10.7539 14.8086 10.7539ZM17.208 10.7539H17.9902C18.2275 10.7539 18.3945 10.5869 18.3945 10.376V9.56738C18.3945 9.33887 18.2275 9.18066 17.9902 9.18066H17.208C16.9971 9.18066 16.8301 9.34766 16.8301 9.56738V10.376C16.8301 10.5869 16.9971 10.7539 17.208 10.7539ZM9.99219 13.1885H10.7656C11.0029 13.1885 11.1787 13.0303 11.1787 12.8018V12.0107C11.1787 11.7822 11.0029 11.6152 10.7656 11.6152H9.99219C9.77246 11.6152 9.61426 11.7822 9.61426 12.0107V12.8018C9.61426 13.0215 9.77246 13.1885 9.99219 13.1885ZM12.4004 13.1885H13.1738C13.4111 13.1885 13.5869 13.0303 13.5869 12.8018V12.0107C13.5869 11.7822 13.4111 11.6152 13.1738 11.6152H12.4004C12.1895 11.6152 12.0137 11.7822 12.0137 12.0107V12.8018C12.0137 13.0215 12.1807 13.1885 12.4004 13.1885ZM9.99219 20.5449H10.7656C11.0029 20.5449 11.1787 20.3867 11.1787 20.167V19.3584C11.1787 19.1387 11.0029 18.9805 10.7656 18.9805H9.99219C9.77246 18.9805 9.61426 19.1475 9.61426 19.3584V20.167C9.61426 20.3779 9.77246 20.5449 9.99219 20.5449ZM12.4004 20.5449H13.1738C13.4111 20.5449 13.5869 20.3867 13.5869 20.167V19.3584C13.5869 19.1387 13.4111 18.9805 13.1738 18.9805H12.4004C12.1895 18.9805 12.0137 19.1475 12.0137 19.3584V20.167C12.0137 20.3779 12.1807 20.5449 12.4004 20.5449ZM14.8086 20.5449H15.5908C15.8193 20.5449 15.9951 20.3867 15.9951 20.167V19.3584C15.9951 19.1387 15.8193 18.9805 15.5908 18.9805H14.8086C14.5889 18.9805 14.4219 19.1475 14.4219 19.3584V20.167C14.4219 20.3779 14.5889 20.5449 14.8086 20.5449ZM17.208 20.5449H17.9902C18.2275 20.5449 18.3945 20.3867 18.3945 20.167V19.3584C18.3945 19.1387 18.2275 18.9805 17.9902 18.9805H17.208C16.9971 18.9805 16.8389 19.1475 16.8389 19.3584V20.167C16.8389 20.3779 16.9971 20.5449 17.208 20.5449Z" fill="#1C1C1E"/>
</svg>
