<svg width="28" height="28" viewBox="0 0 28 28" fill="none" xmlns="http://www.w3.org/2000/svg">
<path d="M6.79297 19.6484H21.1982C22.666 19.6484 23.6416 18.6289 23.6416 17.0996V10.1475C23.6416 8.64453 22.666 7.65137 21.1982 7.65137H6.79297C5.3252 7.65137 4.34961 8.64453 4.34961 10.1475V17.0996C4.34961 18.6289 5.3252 19.6484 6.79297 19.6484ZM7.20605 17.8906C6.53809 17.8906 6.16016 17.4951 6.16016 16.8008V10.4902C6.16016 9.80469 6.53809 9.40039 7.20605 9.40039H20.7852C21.4531 9.40039 21.8398 9.80469 21.8398 10.4902L21.8311 16.8008C21.8311 17.4951 21.4619 17.8906 20.7852 17.8906H7.20605ZM7.67188 12.1074H8.5332C8.72656 12.1074 8.8584 11.9756 8.8584 11.7822V10.9473C8.8584 10.7451 8.72656 10.5957 8.5332 10.5957H7.67188C7.47852 10.5957 7.34668 10.7451 7.34668 10.9473V11.7822C7.34668 11.9756 7.47852 12.1074 7.67188 12.1074ZM10.0889 12.1074H10.9502C11.1436 12.1074 11.2754 11.9756 11.2754 11.7822V10.9473C11.2754 10.7451 11.1436 10.5957 10.9502 10.5957H10.0889C9.9043 10.5957 9.76367 10.7451 9.76367 10.9473V11.7822C9.76367 11.9756 9.89551 12.1074 10.0889 12.1074ZM12.5146 12.1074H13.376C13.5693 12.1074 13.7012 11.9756 13.7012 11.7822V10.9473C13.7012 10.7451 13.5693 10.5957 13.376 10.5957H12.5146C12.3213 10.5957 12.1895 10.7451 12.1895 10.9473V11.7822C12.1895 11.9756 12.3213 12.1074 12.5146 12.1074ZM14.9316 12.1074H15.8018C15.9951 12.1074 16.127 11.9756 16.127 11.7822V10.9473C16.127 10.7451 15.9951 10.5957 15.8018 10.5957H14.9404C14.7471 10.5957 14.6152 10.7451 14.6152 10.9473V11.7822C14.6152 11.9756 14.7471 12.1074 14.9316 12.1074ZM19.5107 12.1074H20.3721C20.5654 12.1074 20.6973 11.9756 20.6973 11.7822V10.9473C20.6973 10.7451 20.5654 10.5957 20.3721 10.5957H19.5107C19.3174 10.5957 19.1855 10.7451 19.1855 10.9473V11.7822C19.1855 11.9756 19.3174 12.1074 19.5107 12.1074ZM7.67188 14.4102H8.5332C8.72656 14.4102 8.8584 14.2783 8.8584 14.085V13.2412C8.8584 13.0391 8.72656 12.8984 8.5332 12.8984H7.67188C7.47852 12.8984 7.34668 13.0391 7.34668 13.2412V14.085C7.34668 14.2783 7.47852 14.4102 7.67188 14.4102ZM10.0889 14.4102H10.9502C11.1436 14.4102 11.2754 14.2783 11.2754 14.085V13.2412C11.2754 13.0391 11.1436 12.8984 10.9502 12.8984H10.0889C9.9043 12.8984 9.76367 13.0391 9.76367 13.2412V14.085C9.76367 14.2783 9.89551 14.4102 10.0889 14.4102ZM12.5234 14.4102H13.376C13.5781 14.4102 13.71 14.2783 13.71 14.085V13.2412C13.71 13.0391 13.5781 12.8984 13.376 12.8984H12.5234C12.3213 12.8984 12.1895 13.0391 12.1895 13.2412V14.085C12.1895 14.2783 12.3213 14.4102 12.5234 14.4102ZM19.5107 14.4102H20.3721C20.5654 14.4102 20.6973 14.2783 20.6973 14.085V13.2412C20.6973 13.0391 20.5654 12.8984 20.3721 12.8984H19.5107C19.3174 12.8984 19.1855 13.0391 19.1855 13.2412V14.085C19.1855 14.2783 19.3174 14.4102 19.5107 14.4102ZM19.5107 16.7041H20.3721C20.5654 16.7041 20.6973 16.5723 20.6973 16.3789V15.5439C20.6973 15.333 20.5654 15.1924 20.3721 15.1924H19.5107C19.3174 15.1924 19.1855 15.333 19.1855 15.5439V16.3789C19.1855 16.5723 19.3174 16.7041 19.5107 16.7041Z" fill="#1C1C1E"/>
</svg>
