<svg width="28" height="28" viewBox="0 0 28 28" fill="none" xmlns="http://www.w3.org/2000/svg">
<path d="M10.8535 5.52441C10.8535 5.76172 10.9941 5.92871 11.2314 5.95508C13.3057 6.24512 13.3057 6.24512 13.5605 8.27539C13.5957 8.5127 13.7627 8.66211 14 8.66211C14.2373 8.66211 14.3955 8.5127 14.4307 8.27539C14.6855 6.24512 14.6855 6.24512 16.7598 5.95508C16.9971 5.92871 17.1465 5.76172 17.1465 5.52441C17.1465 5.28711 16.9971 5.12012 16.7598 5.09375C14.6855 4.80371 14.6855 4.80371 14.4307 2.77344C14.3955 2.53613 14.2373 2.38672 14 2.38672C13.7627 2.38672 13.5957 2.53613 13.5605 2.77344C13.3057 4.80371 13.3057 4.80371 11.2314 5.09375C10.9941 5.12012 10.8535 5.28711 10.8535 5.52441ZM21.6465 10.8506C22.2178 10.8506 22.6836 10.3848 22.6836 9.81348C22.6836 9.25098 22.2178 8.77637 21.6465 8.77637C21.0752 8.77637 20.6094 9.25098 20.6094 9.81348C20.6094 10.3848 21.0752 10.8506 21.6465 10.8506ZM6.34473 10.8506C6.91602 10.8506 7.38184 10.3848 7.38184 9.81348C7.38184 9.25098 6.91602 8.77637 6.34473 8.77637C5.78223 8.77637 5.30762 9.25098 5.30762 9.81348C5.30762 10.3848 5.78223 10.8506 6.34473 10.8506ZM14 14.7002C14.5625 14.7002 15.0371 14.2256 15.0371 13.6631C15.0371 13.0918 14.5625 12.626 14 12.626C13.4287 12.626 12.9629 13.0918 12.9629 13.6631C12.9629 14.2256 13.4287 14.7002 14 14.7002ZM3.86621 17.6885C3.86621 17.9258 4.00684 18.0928 4.24414 18.1191C6.31836 18.4092 6.32715 18.4092 6.58203 20.4395C6.6084 20.6768 6.77539 20.8262 7.0127 20.8262C7.25 20.8262 7.41699 20.6768 7.44336 20.4395C7.69824 18.4092 7.70703 18.4092 9.78125 18.1191C10.0186 18.0928 10.1592 17.9258 10.1592 17.6885C10.1592 17.4512 10.0186 17.2842 9.78125 17.2578C7.70703 16.9678 7.69824 16.9678 7.44336 14.9375C7.41699 14.7002 7.25 14.5508 7.0127 14.5508C6.77539 14.5508 6.6084 14.7002 6.58203 14.9375C6.32715 16.9678 6.31836 16.9678 4.24414 17.2578C4.00684 17.2842 3.86621 17.4512 3.86621 17.6885ZM17.8232 17.6885C17.8232 17.9258 17.9727 18.0928 18.21 18.1191C20.2842 18.4092 20.2842 18.4092 20.5391 20.4395C20.5742 20.6768 20.7412 20.8262 20.9697 20.8262C21.207 20.8262 21.374 20.6768 21.4092 20.4395C21.6641 18.4092 21.6641 18.4092 23.7383 18.1191C23.9756 18.0928 24.125 17.9258 24.125 17.6885C24.125 17.4512 23.9756 17.2842 23.7383 17.2578C21.6641 16.9678 21.6641 16.9678 21.4092 14.9375C21.374 14.7002 21.207 14.5508 20.9697 14.5508C20.7412 14.5508 20.5742 14.7002 20.5391 14.9375C20.2842 16.9678 20.2842 16.9678 18.21 17.2578C17.9727 17.2842 17.8232 17.4512 17.8232 17.6885ZM14 23.3135C14.5625 23.3135 15.0371 22.8389 15.0371 22.2764C15.0371 21.7051 14.5625 21.2393 14 21.2393C13.4287 21.2393 12.9629 21.7051 12.9629 22.2764C12.9629 22.8389 13.4287 23.3135 14 23.3135Z" fill="#1C1C1E"/>
</svg>
