<svg width="28" height="28" viewBox="0 0 28 28" fill="none" xmlns="http://www.w3.org/2000/svg">
<path d="M14 8.20508C15.4854 8.20508 16.6807 6.99219 16.6807 5.51562C16.6807 4.03027 15.4854 2.83496 14 2.83496C12.5146 2.83496 11.3105 4.03027 11.3105 5.51562C11.3105 7.00098 12.5059 8.20508 14 8.20508ZM14 6.81641C13.2793 6.81641 12.6904 6.23633 12.6904 5.51562C12.6904 4.80371 13.2793 4.21484 14 4.21484C14.7119 4.21484 15.292 4.80371 15.292 5.51562C15.292 6.23633 14.7119 6.81641 14 6.81641ZM21.6465 11.2285C22.4287 11.2285 23.0615 10.5957 23.0615 9.81348C23.0615 9.04004 22.4287 8.39844 21.6465 8.39844C20.8643 8.39844 20.2314 9.04004 20.2314 9.81348C20.2314 10.5957 20.8643 11.2285 21.6465 11.2285ZM6.34473 11.2285C7.12695 11.2285 7.75977 10.5957 7.75977 9.81348C7.75977 9.04004 7.12695 8.39844 6.34473 8.39844C5.57129 8.39844 4.92969 9.04004 4.92969 9.81348C4.92969 10.5957 5.57129 11.2285 6.34473 11.2285ZM14 15.0781C14.7734 15.0781 15.415 14.4365 15.415 13.6631C15.415 12.8721 14.7822 12.248 14 12.248C13.2178 12.248 12.585 12.8809 12.585 13.6631C12.585 14.4365 13.2178 15.0781 14 15.0781ZM7.0127 20.3779C8.49805 20.3779 9.69336 19.1738 9.69336 17.6885C9.69336 16.2031 8.49805 15.0078 7.0127 15.0078C5.53613 15.0078 4.32324 16.2031 4.32324 17.6885C4.32324 19.1826 5.51855 20.3779 7.0127 20.3779ZM20.9873 20.3779C22.4639 20.3779 23.668 19.1738 23.668 17.6885C23.668 16.2031 22.4639 15.0078 20.9873 15.0078C19.502 15.0078 18.2891 16.2031 18.2891 17.6885C18.2891 19.1826 19.4932 20.3779 20.9873 20.3779ZM7.0127 18.998C6.29199 18.998 5.71191 18.4092 5.71191 17.6885C5.71191 16.9766 6.30078 16.3965 7.0127 16.3965C7.72461 16.3965 8.31348 16.9766 8.31348 17.6885C8.31348 18.4092 7.72461 18.998 7.0127 18.998ZM20.9873 18.998C20.2666 18.998 19.6777 18.4092 19.6777 17.6885C19.6777 16.9766 20.2666 16.3965 20.9873 16.3965C21.6904 16.3965 22.2793 16.9766 22.2793 17.6885C22.2793 18.4092 21.6904 18.998 20.9873 18.998ZM14 23.6914C14.7734 23.6914 15.415 23.0586 15.415 22.2764C15.415 21.4941 14.7734 20.8613 14 20.8613C13.2178 20.8613 12.585 21.4941 12.585 22.2764C12.585 23.0586 13.2178 23.6914 14 23.6914Z" fill="#1C1C1E"/>
</svg>
