<svg width="28" height="28" viewBox="0 0 28 28" fill="none" xmlns="http://www.w3.org/2000/svg">
<path d="M9.1748 21.8809H18.8164C20.6357 21.8809 21.6289 20.9141 21.6289 19.1035V10.5957C22.4551 10.376 22.9209 9.67285 22.9209 8.69727V7.42285C22.9209 6.22754 22.2266 5.4541 21.0225 5.4541H6.97754C5.81738 5.4541 5.07031 6.22754 5.07031 7.42285V8.69727C5.07031 9.67285 5.53613 10.3672 6.37109 10.5957V19.1035C6.37109 20.9141 7.36426 21.8809 9.1748 21.8809ZM7.31152 9.05762C6.90723 9.05762 6.73145 8.87305 6.73145 8.46875V7.65137C6.73145 7.24707 6.90723 7.0625 7.31152 7.0625H20.6973C21.0928 7.0625 21.2598 7.24707 21.2598 7.65137V8.46875C21.2598 8.87305 21.0928 9.05762 20.6973 9.05762H7.31152ZM9.2627 20.2021C8.52441 20.2021 8.12012 19.8066 8.12012 19.0596V10.666H19.8711V19.0596C19.8711 19.8066 19.4668 20.2021 18.7373 20.2021H9.2627ZM11.1699 14.2607H16.8301C17.252 14.2607 17.5508 13.9531 17.5508 13.5225V13.2412C17.5508 12.8105 17.252 12.5205 16.8301 12.5205H11.1699C10.748 12.5205 10.4492 12.8105 10.4492 13.2412V13.5225C10.4492 13.9531 10.748 14.2607 11.1699 14.2607Z" fill="#1C1C1E"/>
</svg>
