<svg width="28" height="28" viewBox="0 0 28 28" fill="none" xmlns="http://www.w3.org/2000/svg">
<path d="M6.69629 20.8877H15.9424C17.8408 20.8877 18.9307 19.8242 18.9307 17.9609V9.33008C18.9307 7.4668 17.9111 6.40332 16.0127 6.40332H6.69629C4.86816 6.40332 3.70801 7.4668 3.70801 9.33008V18.0225C3.70801 19.877 4.80664 20.8877 6.69629 20.8877ZM20.2227 16.4756L23.2285 19.0596C23.5889 19.376 23.9756 19.5781 24.3447 19.5781C25.0566 19.5781 25.54 19.0684 25.54 18.2949V9.04004C25.54 8.2666 25.0566 7.75684 24.3447 7.75684C23.9668 7.75684 23.5889 7.95898 23.2285 8.27539L20.2227 10.8594V16.4756ZM8.15527 17.4248C7.70703 17.4248 7.37305 17.1172 7.37305 16.6953C7.37305 16.4756 7.45215 16.2822 7.62793 16.1152L11.2666 12.5205L12.6465 11.2812L10.3438 11.4307H9.04297C8.63867 11.4307 8.30469 11.123 8.30469 10.71C8.30469 10.2793 8.62109 9.93652 9.04297 9.93652H14.0264C14.624 9.93652 14.9316 10.2441 14.9316 10.8418V15.7725C14.9316 16.1943 14.5889 16.5107 14.1582 16.5107C13.7451 16.5107 13.4375 16.1768 13.4375 15.7725V14.5332L13.5869 12.248L12.3477 13.6016L8.70898 17.1963C8.55078 17.3545 8.38379 17.4248 8.15527 17.4248Z" fill="#1C1C1E"/>
</svg>
