<svg width="28" height="28" viewBox="0 0 28 28" fill="none" xmlns="http://www.w3.org/2000/svg">
<path d="M13.9912 22.6455C18.9746 22.6455 23.0879 18.5322 23.0879 13.5576C23.0879 8.57422 18.9658 4.46094 13.9824 4.46094C9.00781 4.46094 4.90332 8.57422 4.90332 13.5576C4.90332 18.5322 9.0166 22.6455 13.9912 22.6455ZM9.24512 14.6387C9.24512 12.4502 10.8184 11.0967 12.9805 11.0967H15.6699L16.6543 11.1406L15.96 10.6133L15.0459 9.72559C14.9053 9.61133 14.8262 9.42676 14.8262 9.2334C14.8262 8.83789 15.1426 8.52148 15.5293 8.52148C15.7227 8.52148 15.8896 8.58301 16.0215 8.73242L18.4648 11.2021C18.6143 11.3604 18.7109 11.5625 18.7109 11.7734C18.7109 11.9932 18.6143 12.1865 18.4648 12.3535L16.0215 14.8408C15.8809 14.9727 15.7139 15.043 15.5205 15.043C15.1338 15.043 14.8262 14.7266 14.8262 14.3223C14.8262 14.1465 14.8877 13.9619 15.0371 13.8301L16.1182 12.8281L16.6543 12.4414L15.6699 12.4854H12.9805C11.6885 12.4854 10.7305 13.2412 10.7305 14.5859C10.7305 15.9482 11.6709 16.792 12.9805 16.792H14.2637C14.7031 16.792 15.0371 17.0557 15.0371 17.5127C15.0371 17.9697 14.7119 18.2334 14.2549 18.2334H12.9805C10.8271 18.2334 9.24512 16.8447 9.24512 14.6387Z" fill="#1C1C1E"/>
</svg>
