<svg width="28" height="28" viewBox="0 0 28 28" fill="none" xmlns="http://www.w3.org/2000/svg">
<path d="M5.57129 17.0029C5.57129 20.5273 7.88281 22.8389 11.8027 22.8389H13.9297C14.5186 22.8389 14.9229 22.3994 14.9229 21.8633C14.9229 21.3271 14.5186 20.8877 13.9297 20.8877H11.873C9.06055 20.8877 7.50488 19.2178 7.50488 16.9326C7.50488 14.6475 9.06055 13.0479 11.873 13.0479H17.4365L19.4668 12.96L17.9287 14.252L15.6963 16.4316C15.5205 16.6074 15.415 16.8184 15.415 17.1084C15.415 17.6621 15.793 18.0576 16.373 18.0576C16.6104 18.0576 16.8828 17.9434 17.0762 17.7588L22.1123 12.793C22.3145 12.5996 22.4199 12.3359 22.4199 12.0723C22.4199 11.7998 22.3145 11.5361 22.1123 11.3428L17.0762 6.37695C16.8828 6.19238 16.6104 6.07812 16.373 6.07812C15.793 6.07812 15.415 6.47363 15.415 7.02734C15.415 7.31738 15.5205 7.53711 15.6963 7.7041L17.9287 9.88379L19.4668 11.1846L17.4365 11.0879H11.917C7.93555 11.0879 5.57129 13.5049 5.57129 17.0029Z" fill="#1C1C1E"/>
</svg>
