<svg width="28" height="28" viewBox="0 0 28 28" fill="none" xmlns="http://www.w3.org/2000/svg">
<path d="M5.6416 20.3164C6.19531 20.3164 6.6084 19.9209 6.6084 19.376V13.584C6.62598 13.8301 6.74023 14.0586 6.91602 14.2256L12.7168 20.0176C12.9277 20.2197 13.165 20.3164 13.4199 20.3164C13.9648 20.3164 14.3691 19.9209 14.3691 19.3848C14.3691 19.1035 14.2637 18.8662 14.0791 18.6904L12.1016 16.6865L9.55273 14.4102L11.4512 14.4805H22.3145C22.9033 14.4805 23.3076 14.0762 23.3076 13.5049C23.3076 12.9248 22.9033 12.5205 22.3145 12.5205H11.4512L9.56152 12.5996L12.1016 10.3145L14.0791 8.31055C14.2637 8.13477 14.3691 7.89746 14.3691 7.61621C14.3691 7.08008 13.9648 6.68457 13.4199 6.68457C13.165 6.68457 12.9277 6.78125 12.7168 6.9834L6.91602 12.7754C6.74023 12.9512 6.62598 13.1797 6.6084 13.417V7.63379C6.6084 7.08887 6.19531 6.68457 5.6416 6.68457C5.09668 6.68457 4.68359 7.08887 4.68359 7.63379V19.376C4.68359 19.9209 5.09668 20.3164 5.6416 20.3164Z" fill="#1C1C1E"/>
</svg>
