<svg width="28" height="28" viewBox="0 0 28 28" fill="none" xmlns="http://www.w3.org/2000/svg">
<path d="M13.9912 22.7422C18.9746 22.7422 23.0879 18.6289 23.0879 13.6543C23.0879 8.67969 18.9658 4.56641 13.9824 4.56641C9.00781 4.56641 4.90332 8.67969 4.90332 13.6543C4.90332 18.6289 9.0166 22.7422 13.9912 22.7422ZM13.9912 20.9316C9.95703 20.9316 6.73145 17.6885 6.73145 13.6543C6.73145 9.62012 9.95703 6.38574 13.9824 6.38574C18.0166 6.38574 21.2598 9.62012 21.2686 13.6543C21.2773 17.6885 18.0254 20.9316 13.9912 20.9316ZM10.4229 14.1465L15.4854 17.126C15.8984 17.3721 16.3818 17.1611 16.3818 16.7305V10.5957C16.3818 10.165 15.8721 9.97168 15.4854 10.2002L10.4229 13.1885C10.0625 13.3994 10.0537 13.9355 10.4229 14.1465Z" fill="#1C1C1E"/>
</svg>
