<svg width="28" height="28" viewBox="0 0 28 28" fill="none" xmlns="http://www.w3.org/2000/svg">
<path d="M20.3281 20.6592C23.0703 20.6592 25.2324 18.6465 25.2324 16.1328C25.2324 14.2607 24.1689 12.5996 22.4199 11.8701C22.4287 7.89746 19.5635 5.03223 15.8809 5.03223C13.543 5.03223 11.7852 6.23633 10.6865 7.83594C8.4541 7.23828 6.10742 8.89941 6.01953 11.3779C4.00684 11.7383 2.76758 13.54 2.76758 15.7461C2.76758 18.418 5.10547 20.6504 8.18164 20.6504L20.3281 20.6592ZM20.3281 18.9014H8.19043C6.09863 18.9014 4.54297 17.4424 4.54297 15.7461C4.54297 13.9883 5.62402 12.6875 7.41699 12.6875C7.54883 12.6875 7.60156 12.6172 7.59277 12.4941C7.54004 9.88379 9.41211 8.9873 11.3018 9.58496C11.416 9.62012 11.4863 9.59375 11.5391 9.49707C12.4092 7.96777 13.6924 6.78125 15.8721 6.78125C18.6318 6.78125 20.6006 8.96973 20.7324 11.5273C20.7588 12.002 20.7236 12.5117 20.6885 12.9336C20.6709 13.0566 20.7236 13.127 20.8379 13.1445C22.4287 13.4521 23.457 14.5771 23.457 16.1328C23.457 17.6709 22.0947 18.9014 20.3281 18.9014ZM10.9414 13.8652C10.9414 15.8252 12.4971 17.3896 14.4307 17.3896C16.3643 17.3896 17.9199 15.8252 17.9199 13.8916C17.9199 13.5664 17.6475 13.3027 17.3223 13.3027C16.9971 13.3027 16.7246 13.5664 16.7246 13.8916C16.7246 15.166 15.7051 16.1943 14.4307 16.1943C13.1475 16.1943 12.1279 15.166 12.1279 13.8916C12.1279 12.6699 13.0771 11.6768 14.2637 11.6416C14.3516 11.6328 14.4482 11.6328 14.5273 11.6416L13.8945 12.2656C13.8154 12.3623 13.7627 12.4854 13.7627 12.626C13.7627 12.9424 14 13.1709 14.3076 13.1709C14.4482 13.1709 14.5977 13.1006 14.6943 13.0127L16.1709 11.5273C16.3818 11.3164 16.3818 10.9385 16.1709 10.7275L14.7119 9.24219C14.6064 9.12793 14.457 9.05762 14.2988 9.05762C13.9824 9.05762 13.7539 9.30371 13.7539 9.59375C13.7539 9.75195 13.8154 9.88379 13.9033 9.97168L14.3691 10.4551C14.3076 10.4463 14.2373 10.4463 14.167 10.4463C12.4531 10.5078 10.9414 11.9932 10.9414 13.8652Z" fill="#1C1C1E"/>
</svg>
