<svg width="28" height="28" viewBox="0 0 28 28" fill="none" xmlns="http://www.w3.org/2000/svg">
<path d="M8.67383 21.8809H19.3174C21.2246 21.8809 22.209 20.8965 22.209 19.0156V8.31934C22.209 6.43848 21.2246 5.4541 19.3174 5.4541H8.67383C6.77539 5.4541 5.78223 6.42969 5.78223 8.31934V19.0156C5.78223 20.8965 6.77539 21.8809 8.67383 21.8809ZM8.78809 20.1318C7.97949 20.1318 7.53125 19.71 7.53125 18.8574V8.47754C7.53125 7.625 7.97949 7.20312 8.78809 7.20312H19.2031C20.0029 7.20312 20.46 7.625 20.46 8.47754V18.8574C20.46 19.71 20.0029 20.1318 19.2031 20.1318H8.78809ZM9.92188 10.6396C9.67578 10.877 9.67578 11.29 9.92188 11.5273L12.1104 13.6631C12.2246 13.7686 12.3916 13.8389 12.541 13.8389C12.8838 13.8389 13.1299 13.6016 13.1299 13.25C13.1299 13.0918 13.0684 12.9424 12.9541 12.8281L12.04 11.9404L11.7412 11.668L12.1719 11.6855H17.665C18.0078 11.6855 18.2627 11.4219 18.2627 11.0791C18.2627 10.7363 18.0078 10.4814 17.665 10.4814H12.1807L11.75 10.4902L12.04 10.2266L12.9541 9.33887C13.0684 9.2334 13.1299 9.0752 13.1299 8.91699C13.1299 8.56543 12.8838 8.31934 12.541 8.31934C12.3828 8.31934 12.2158 8.39844 12.1104 8.5127L9.92188 10.6396ZM18.0693 16.6865C18.3242 16.4404 18.3154 16.0537 18.0693 15.8076L15.8896 13.6807C15.7842 13.5664 15.6084 13.4961 15.459 13.4961C15.1074 13.4961 14.8613 13.7334 14.8613 14.085C14.8613 14.2432 14.9229 14.3926 15.0371 14.5068L15.96 15.3857L16.2588 15.667L15.8193 15.6494H10.3262C9.99219 15.6494 9.7373 15.9043 9.7373 16.2471C9.7373 16.5898 9.99219 16.8535 10.3262 16.8535H15.8105L16.2588 16.8359L15.96 17.1084L15.0459 17.9961C14.9316 18.1104 14.8613 18.251 14.8613 18.418C14.8613 18.7607 15.1162 19.0156 15.459 19.0156C15.5996 19.0156 15.7666 18.9365 15.8896 18.8311L18.0693 16.6865Z" fill="#1C1C1E"/>
</svg>
