<svg width="28" height="28" viewBox="0 0 28 28" fill="none" xmlns="http://www.w3.org/2000/svg">
<path d="M8.67383 21.8809H19.3174C21.2246 21.8809 22.209 20.8965 22.209 19.0156V8.31934C22.209 6.43848 21.2246 5.4541 19.3174 5.4541H8.67383C6.77539 5.4541 5.78223 6.42969 5.78223 8.31934V19.0156C5.78223 20.8965 6.77539 21.8809 8.67383 21.8809ZM19.625 13.6631C19.625 13.9004 19.5283 14.0762 19.3262 14.2783L16.7949 16.792C16.6543 16.9414 16.4697 17.0029 16.2676 17.0029C15.8633 17.0029 15.5645 16.6953 15.5645 16.2822C15.5645 16.0625 15.6699 15.8779 15.8105 15.7373L16.373 15.1836L17.3926 14.3574L15.5557 14.4365H12.4795L10.6426 14.3574L11.6621 15.1836L12.2246 15.7373C12.3652 15.8779 12.4707 16.0625 12.4707 16.2822C12.4707 16.6953 12.1719 17.0029 11.7676 17.0029C11.5654 17.0029 11.3809 16.9414 11.2402 16.792L8.70898 14.2783C8.51562 14.0762 8.41895 13.9004 8.41895 13.6631C8.41895 13.417 8.51562 13.2236 8.70898 13.0391L11.2402 10.5254C11.3809 10.3848 11.5654 10.3057 11.7676 10.3057C12.1719 10.3057 12.4707 10.6221 12.4707 11.0352C12.4707 11.2637 12.374 11.4395 12.2246 11.5801L11.6621 12.125L10.6338 12.9688L12.4795 12.8809H15.5557L17.4014 12.9688L16.373 12.125L15.8105 11.5801C15.6699 11.4395 15.5645 11.2637 15.5645 11.0352C15.5645 10.6221 15.8633 10.3057 16.2676 10.3057C16.4697 10.3057 16.6543 10.3848 16.7949 10.5254L19.3262 13.0391C19.5283 13.2236 19.625 13.417 19.625 13.6631Z" fill="#1C1C1E"/>
</svg>
