<svg width="28" height="28" viewBox="0 0 28 28" fill="none" xmlns="http://www.w3.org/2000/svg">
<path d="M13.9912 22.7422C18.9746 22.7422 23.0879 18.6289 23.0879 13.6543C23.0879 8.67969 18.9658 4.56641 13.9824 4.56641C9.00781 4.56641 4.90332 8.67969 4.90332 13.6543C4.90332 18.6289 9.0166 22.7422 13.9912 22.7422ZM13.9912 20.9316C9.95703 20.9316 6.73145 17.6885 6.73145 13.6543C6.73145 9.62012 9.95703 6.38574 13.9824 6.38574C18.0166 6.38574 21.2598 9.62012 21.2686 13.6543C21.2773 17.6885 18.0254 20.9316 13.9912 20.9316ZM10.2383 13.7158C10.6074 13.7158 10.9062 13.417 10.9062 13.0479V12.6436L10.8096 11.4043L12.5498 13.2588C12.8311 13.5576 13.2969 13.5488 13.5869 13.2588C13.8682 12.9775 13.8682 12.5029 13.5781 12.2217L11.75 10.4902L12.9541 10.5957H13.3496C13.7188 10.5957 14.0176 10.2969 14.0176 9.92773C14.0176 9.55859 13.7188 9.25977 13.3496 9.25977H10.3965C9.86914 9.25977 9.57031 9.50586 9.57031 10.0771V13.0479C9.57031 13.417 9.86914 13.7158 10.2383 13.7158ZM14.6152 18.084H17.5684C18.0957 18.084 18.3945 17.8291 18.3945 17.2578V14.2959C18.3945 13.918 18.0957 13.6191 17.7266 13.6191C17.3486 13.6191 17.0498 13.918 17.0498 14.2959V14.6914L17.1553 15.9307L15.415 14.085C15.1338 13.7773 14.6592 13.7861 14.3779 14.0762C14.0879 14.3662 14.0879 14.8408 14.3867 15.1133L16.2148 16.8447L15.0107 16.7393H14.6152C14.2461 16.7393 13.9473 17.0381 13.9473 17.4072C13.9473 17.7852 14.2461 18.084 14.6152 18.084Z" fill="#1C1C1E"/>
</svg>
