<svg width="28" height="28" viewBox="0 0 28 28" fill="none" xmlns="http://www.w3.org/2000/svg">
<path d="M14 22.7334C18.9658 22.7334 23.0791 18.6289 23.0791 13.6543C23.0791 8.68848 18.9658 4.5752 13.9912 4.5752C9.02539 4.5752 4.9209 8.68848 4.9209 13.6543C4.9209 18.6289 9.03418 22.7334 14 22.7334ZM14 20.9492C9.95703 20.9492 6.71387 17.6973 6.71387 13.6543C6.71387 9.61133 9.94824 6.36816 13.9912 6.36816C18.0342 6.36816 21.2861 9.61133 21.2949 13.6543C21.2949 17.6973 18.043 20.9492 14 20.9492ZM10.7832 10.4287H17.208C17.5859 10.4287 17.8584 10.1475 17.8584 9.77832C17.8584 9.40918 17.5859 9.12793 17.208 9.12793H10.7832C10.4053 9.12793 10.1328 9.40918 10.1328 9.77832C10.1328 10.1475 10.4053 10.4287 10.7832 10.4287ZM13.9824 18.8135C14.3691 18.8135 14.6416 18.5322 14.6416 18.1455V14.4805L14.5449 12.9775L15.916 14.542L16.4873 15.1133C16.6191 15.2451 16.7861 15.3154 16.9707 15.3154C17.3398 15.3154 17.5947 15.0342 17.5947 14.665C17.5947 14.4893 17.542 14.3223 17.3838 14.1729L14.4834 11.2637C14.3428 11.1318 14.1758 11.0439 13.9824 11.0439C13.7979 11.0439 13.6309 11.123 13.4902 11.2637L10.5898 14.1816C10.4668 14.3135 10.3877 14.5068 10.3877 14.665C10.3877 15.043 10.6514 15.3154 11.0205 15.3154C11.2227 15.3154 11.3721 15.2451 11.5039 15.1133L12.0137 14.5596L13.4287 12.9688L13.3232 14.4805V18.1455C13.3232 18.5322 13.5869 18.8135 13.9824 18.8135Z" fill="#1C1C1E"/>
</svg>
