<svg width="28" height="28" viewBox="0 0 28 28" fill="none" xmlns="http://www.w3.org/2000/svg">
<path d="M9.48242 20.3516C9.72852 20.3516 9.9834 20.2725 10.2207 20.1143L10.6777 19.8154C11.8643 19.0156 13.6045 17.2227 13.9824 16.291H14.0088C14.3867 17.2139 16.1182 19.0156 17.3135 19.8154L17.7705 20.1143C18.0078 20.2637 18.2627 20.3516 18.5176 20.3516C19.0449 20.3516 19.3701 19.9912 19.3701 19.499C19.3701 19.2002 19.2119 18.9014 18.9395 18.7256L18.2363 18.2773C16.9971 17.4688 14.8789 15.4209 14.8789 13.4346V10.2002H16.2061C16.874 10.2002 17.0674 9.69043 16.6719 9.1543L14.5625 6.18359C14.2461 5.73535 13.7539 5.73535 13.4287 6.18359L11.3193 9.14551C10.9238 9.69043 11.1084 10.2002 11.7939 10.2002H13.1123V13.4346C13.1123 15.4209 10.9854 17.46 9.75488 18.2773L9.05176 18.7256C8.7793 18.9014 8.62109 19.209 8.62109 19.5078C8.62109 19.9648 8.9375 20.3516 9.48242 20.3516Z" fill="#1C1C1E"/>
</svg>
