<svg width="28" height="28" viewBox="0 0 28 28" fill="none" xmlns="http://www.w3.org/2000/svg">
<path d="M8.67383 21.8809H19.3174C21.2246 21.8809 22.209 20.8965 22.209 19.0156V8.31934C22.209 6.43848 21.2246 5.4541 19.3174 5.4541H8.67383C6.77539 5.4541 5.78223 6.42969 5.78223 8.31934V19.0156C5.78223 20.8965 6.77539 21.8809 8.67383 21.8809ZM18.7461 13.6455C18.7461 13.9092 18.6494 14.1113 18.4385 14.3135L15.3359 17.3633C15.1777 17.5127 15.002 17.5918 14.7822 17.5918C14.3428 17.5918 14.0352 17.2666 14.0352 16.8271C14.0352 16.6074 14.123 16.4053 14.2725 16.2646L15.3799 15.21L16.3994 14.3926L14.5273 14.4805H10.0889C9.62305 14.4805 9.28906 14.1289 9.28906 13.6543C9.28906 13.1709 9.62305 12.8193 10.0889 12.8193H14.5273L16.3994 12.9072L15.3711 12.0898L14.2725 11.0352C14.1318 10.8945 14.0352 10.6924 14.0352 10.4727C14.0352 10.0332 14.3428 9.7168 14.7822 9.7168C15.002 9.7168 15.1777 9.77832 15.3359 9.93652L18.4385 12.9951C18.6582 13.1973 18.7461 13.3994 18.7461 13.6455Z" fill="#1C1C1E"/>
</svg>
