<svg width="28" height="28" viewBox="0 0 28 28" fill="none" xmlns="http://www.w3.org/2000/svg">
<path d="M14 21.5381C14.5625 21.5381 14.958 21.1426 14.958 20.5625V12.3799L14.8701 10.5342L17.2168 13.1094L19.0273 14.8848C19.2031 15.0605 19.4492 15.1748 19.7217 15.1748C20.249 15.1748 20.6445 14.7793 20.6445 14.2344C20.6445 13.9795 20.5391 13.7422 20.3281 13.5312L14.7119 7.96777C14.5713 7.81836 14.3955 7.71289 14.2021 7.67773H19.792C20.3369 7.67773 20.7324 7.27344 20.7324 6.72852C20.7324 6.18359 20.3369 5.7793 19.792 5.7793H8.18164C7.64551 5.7793 7.25879 6.18359 7.25879 6.72852C7.25879 7.27344 7.64551 7.67773 8.18164 7.67773H13.7891C13.5957 7.71289 13.4199 7.81836 13.2793 7.96777L7.66309 13.5312C7.45215 13.7422 7.35547 13.9795 7.35547 14.2344C7.35547 14.7793 7.74219 15.1748 8.27832 15.1748C8.55078 15.1748 8.78809 15.0693 8.97266 14.8848L10.7744 13.1094L13.1211 10.5254L13.0332 12.3799V20.5625C13.0332 21.1426 13.4287 21.5381 14 21.5381Z" fill="#1C1C1E"/>
</svg>
