<svg width="28" height="28" viewBox="0 0 28 28" fill="none" xmlns="http://www.w3.org/2000/svg">
<path d="M6.01953 21.8809H21.9629C23.8613 21.8809 24.8633 20.8965 24.8633 19.0156V9.78711C24.8633 7.90625 23.8613 6.92188 21.9629 6.92188H19.5635C18.8779 6.92188 18.6582 6.80762 18.2275 6.35938L17.5332 5.6123C17.0762 5.12891 16.6104 4.8916 15.7139 4.8916H12.2246C11.3281 4.8916 10.8711 5.12891 10.4053 5.6123L9.71094 6.35938C9.28906 6.79883 9.06055 6.92188 8.375 6.92188H6.01953C4.12109 6.92188 3.12793 7.90625 3.12793 9.78711V19.0156C3.12793 20.8965 4.12109 21.8809 6.01953 21.8809ZM6.13379 20.1318C5.33398 20.1318 4.87695 19.71 4.87695 18.8574V9.94531C4.87695 9.10156 5.33398 8.67969 6.13379 8.67969H8.88477C9.67578 8.67969 10.0801 8.53906 10.5283 8.05566L11.1963 7.31738C11.6885 6.78125 11.9521 6.64062 12.7256 6.64062H15.2129C15.9863 6.64062 16.25 6.78125 16.7334 7.30859L17.4102 8.05566C17.8584 8.53906 18.2627 8.67969 19.0537 8.67969H21.8486C22.6572 8.67969 23.1055 9.10156 23.1055 9.94531V18.8574C23.1055 19.71 22.6572 20.1318 21.8486 20.1318H6.13379ZM14 9.18945C12.9629 9.18945 11.9609 9.54102 11.2578 10.1035C10.8271 10.4375 10.7217 10.8945 11.0117 11.2285C11.293 11.5625 11.7061 11.5801 12.084 11.3076C12.6641 10.8594 13.2529 10.6396 14 10.6396C15.5732 10.6396 16.8828 11.6768 17.2607 13.0742H16.3994C15.9863 13.0742 15.8633 13.4785 16.1094 13.8125L17.4893 15.6934C17.7266 16.0273 18.1484 16.0449 18.3945 15.6934L19.748 13.8125C19.9941 13.4785 19.8799 13.0742 19.458 13.0742H18.667C18.2627 10.7891 16.373 9.18945 14 9.18945ZM8.50684 14.7002H9.33301C9.74609 16.9854 11.6357 18.585 14.0088 18.585C15.0459 18.585 16.0391 18.2422 16.751 17.6709C17.1816 17.3457 17.2871 16.8799 16.9971 16.5459C16.7158 16.2119 16.3027 16.1943 15.916 16.4668C15.3359 16.9062 14.7559 17.1348 14.0088 17.1348C12.4355 17.1348 11.126 16.0977 10.7393 14.7002H11.5654C11.9785 14.7002 12.1016 14.2959 11.8555 13.9619L10.4844 12.0811C10.2383 11.7471 9.8252 11.7383 9.57031 12.0811L8.2168 13.9619C7.97949 14.2959 8.08496 14.7002 8.50684 14.7002Z" fill="#1C1C1E"/>
</svg>
