<svg width="28" height="28" viewBox="0 0 28 28" fill="none" xmlns="http://www.w3.org/2000/svg">
<path d="M14 22.0039C14.5713 22.0039 14.9756 21.5996 14.9756 21.0195V10.165L14.9053 8.2666L17.1816 10.8066L19.1855 12.793C19.3613 12.9688 19.6074 13.083 19.8799 13.083C20.416 13.083 20.8203 12.6787 20.8203 12.125C20.8203 11.8701 20.7236 11.6328 20.5127 11.4219L14.7207 5.62109C14.5273 5.41895 14.2637 5.31348 14 5.31348C13.7275 5.31348 13.4639 5.41895 13.2705 5.62109L7.4873 11.4219C7.27637 11.6328 7.17969 11.8701 7.17969 12.125C7.17969 12.6787 7.5752 13.083 8.11133 13.083C8.39258 13.083 8.63867 12.9688 8.81445 12.793L10.8096 10.8066L13.0947 8.25781L13.0156 10.165V21.0195C13.0156 21.5996 13.4199 22.0039 14 22.0039Z" fill="#1C1C1E"/>
</svg>
