<svg width="28" height="28" viewBox="0 0 28 28" fill="none" xmlns="http://www.w3.org/2000/svg">
<path d="M9.31543 23.1816H18.6846C20.5742 23.1816 21.5498 22.1885 21.5498 20.29V12.4238H14.958C13.8594 12.4238 13.332 11.8965 13.332 10.7979V4.13574H9.31543C7.43457 4.13574 6.4502 5.12891 6.4502 7.03613V20.29C6.4502 22.1885 7.43457 23.1816 9.31543 23.1816ZM15.125 11.1406H21.4619C21.4092 10.7363 21.1191 10.3584 20.6621 9.89258L15.8545 5.02344C15.415 4.5752 15.0195 4.27637 14.6152 4.22363V10.6309C14.624 10.9736 14.791 11.1406 15.125 11.1406ZM14 14.085C14.4043 14.085 14.7383 14.3926 14.7383 14.7969V17.6973L14.6768 19.0068L15.3359 18.3213L16.0566 17.5918C16.1885 17.46 16.3643 17.3633 16.5488 17.3633C16.9355 17.3633 17.2256 17.6357 17.2256 18.0137C17.2256 18.2158 17.1377 18.3828 16.9883 18.5146L14.5713 20.7471C14.3691 20.9229 14.2109 21.002 14 21.002C13.7979 21.002 13.6309 20.9229 13.4375 20.7471L11.0117 18.5146C10.8623 18.3828 10.7744 18.2158 10.7744 18.0137C10.7744 17.6357 11.0645 17.3633 11.4512 17.3633C11.627 17.3633 11.8115 17.46 11.9434 17.5918L12.6641 18.3213L13.332 19.0068L13.2617 17.6973V14.7969C13.2617 14.3926 13.5957 14.085 14 14.085Z" fill="#1C1C1E"/>
</svg>
