<svg width="28" height="28" viewBox="0 0 28 28" fill="none" xmlns="http://www.w3.org/2000/svg">
<path d="M13.9912 22.7422C18.9746 22.7422 23.0879 18.6289 23.0879 13.6543C23.0879 8.67969 18.9658 4.56641 13.9824 4.56641C9.00781 4.56641 4.90332 8.67969 4.90332 13.6543C4.90332 18.6289 9.0166 22.7422 13.9912 22.7422ZM13.9912 20.9316C9.95703 20.9316 6.73145 17.6885 6.73145 13.6543C6.73145 9.62012 9.95703 6.38574 13.9824 6.38574C18.0166 6.38574 21.2598 9.62012 21.2686 13.6543C21.2773 17.6885 18.0254 20.9316 13.9912 20.9316ZM14.8701 9.1543C12.7695 9.1543 11.4688 10.6572 11.4688 12.7227V15.3242L11.5039 16.2646L10.9941 15.6143L10.1504 14.7178C10.0273 14.5859 9.86035 14.5068 9.67578 14.5068C9.29785 14.5068 8.99023 14.8145 8.99023 15.1836C8.99023 15.3682 9.05176 15.5264 9.19238 15.6582L11.5654 17.9961C11.7236 18.1455 11.9082 18.2334 12.1191 18.2334C12.3213 18.2334 12.5146 18.1455 12.6641 17.9961L15.0547 15.6494C15.1865 15.5176 15.248 15.3594 15.248 15.1748C15.248 14.8057 14.9492 14.5068 14.5713 14.5068C14.3955 14.5068 14.2197 14.5771 14.0967 14.709L13.1211 15.7637L12.752 16.2646L12.7959 15.3242V12.7227C12.7959 11.4922 13.5254 10.5605 14.8174 10.5605C16.127 10.5605 16.9443 11.4658 16.9443 12.7314V13.9707C16.9443 14.3926 17.1904 14.709 17.6299 14.709C18.0693 14.709 18.3242 14.3926 18.3242 13.9531V12.7314C18.3242 10.666 16.9883 9.1543 14.8701 9.1543Z" fill="#1C1C1E"/>
</svg>
