<svg width="28" height="28" viewBox="0 0 28 28" fill="none" xmlns="http://www.w3.org/2000/svg">
<path d="M8.67383 21.8809H19.3174C21.2246 21.8809 22.209 20.8965 22.209 19.0156V8.31934C22.209 6.43848 21.2246 5.4541 19.3174 5.4541H8.67383C6.77539 5.4541 5.78223 6.42969 5.78223 8.31934V19.0156C5.78223 20.8965 6.77539 21.8809 8.67383 21.8809ZM8.78809 20.1318C7.97949 20.1318 7.53125 19.71 7.53125 18.8574V8.47754C7.53125 7.625 7.97949 7.20312 8.78809 7.20312H19.2031C20.0029 7.20312 20.46 7.625 20.46 8.47754V18.8574C20.46 19.71 20.0029 20.1318 19.2031 20.1318H8.78809ZM18.5352 14.7002C18.5352 12.5908 17.0322 11.29 14.9668 11.29H12.3652L11.4248 11.3252L12.0752 10.8242L12.9717 9.97168C13.1035 9.85742 13.1826 9.68164 13.1826 9.49707C13.1826 9.11914 12.875 8.81152 12.5059 8.81152C12.3213 8.81152 12.1631 8.88184 12.0312 9.02246L9.69336 11.3955C9.54395 11.5449 9.45605 11.7295 9.45605 11.9404C9.45605 12.1514 9.54395 12.3359 9.69336 12.4854L12.04 14.876C12.1719 15.0078 12.3301 15.0693 12.5146 15.0693C12.8838 15.0693 13.1826 14.7705 13.1826 14.3926C13.1826 14.2168 13.1123 14.041 12.9805 13.918L11.9258 12.9424L11.4248 12.5732L12.3652 12.6172H14.9668C16.1973 12.6172 17.1289 13.3467 17.1289 14.6387C17.1289 15.9482 16.2236 16.7656 14.958 16.7656H13.7188C13.2969 16.7656 12.9805 17.0205 12.9805 17.4512C12.9805 17.8906 13.2969 18.1455 13.7363 18.1455H14.958C17.0322 18.1455 18.5352 16.8096 18.5352 14.7002Z" fill="#1C1C1E"/>
</svg>
