<svg width="28" height="28" viewBox="0 0 28 28" fill="none" xmlns="http://www.w3.org/2000/svg">
<path d="M5.09668 11.1846C5.09668 14.9375 8.25195 18.6465 13.1562 21.8105C13.4287 21.9863 13.7627 22.1621 13.9912 22.1621C14.2197 22.1621 14.5537 21.9863 14.8262 21.8105C19.7393 18.6465 22.8857 14.9375 22.8857 11.1846C22.8857 7.94141 20.6445 5.69141 17.7705 5.69141C16.0918 5.69141 14.7822 6.45605 13.9912 7.61621C13.2178 6.46484 11.8994 5.69141 10.2207 5.69141C7.33789 5.69141 5.09668 7.94141 5.09668 11.1846ZM6.90723 11.1758C6.90723 8.96094 8.36621 7.45801 10.3262 7.45801C11.9082 7.45801 12.7959 8.41602 13.3496 9.25098C13.5957 9.61133 13.7627 9.72559 13.9912 9.72559C14.2285 9.72559 14.3779 9.60254 14.6328 9.25098C15.2305 8.43359 16.083 7.45801 17.6562 7.45801C19.625 7.45801 21.084 8.96094 21.084 11.1758C21.084 14.2695 17.8672 17.6973 14.1582 20.1582C14.0791 20.2109 14.0264 20.2461 13.9912 20.2461C13.9561 20.2461 13.9033 20.2109 13.833 20.1582C10.124 17.6973 6.90723 14.2695 6.90723 11.1758ZM14.7734 17.1084V14.2695L14.7031 12.9072L15.3799 13.6104L16.0215 14.2695C16.1445 14.4102 16.3467 14.5068 16.54 14.5068C16.9355 14.5068 17.2344 14.2168 17.2344 13.8301C17.2344 13.6104 17.1553 13.4434 16.9883 13.2939L14.5889 11.0967C14.3867 10.9121 14.2109 10.833 14 10.833C13.7803 10.833 13.6045 10.9121 13.4023 11.0967L11.0117 13.2939C10.8447 13.4434 10.7568 13.6104 10.7568 13.8301C10.7568 14.2168 11.0557 14.5068 11.46 14.5068C11.6445 14.5068 11.8467 14.4102 11.9785 14.2695L12.6201 13.6104L13.2881 12.9072L13.2178 14.2695V17.1084C13.2178 17.5303 13.5781 17.8467 14 17.8467C14.4131 17.8467 14.7734 17.5303 14.7734 17.1084Z" fill="#1C1C1E"/>
</svg>
