<svg width="28" height="28" viewBox="0 0 28 28" fill="none" xmlns="http://www.w3.org/2000/svg">
<path d="M8.67383 21.8809H19.3174C21.2246 21.8809 22.209 20.8965 22.209 19.0156V8.31934C22.209 6.43848 21.2246 5.4541 19.3174 5.4541H8.67383C6.77539 5.4541 5.78223 6.42969 5.78223 8.31934V19.0156C5.78223 20.8965 6.77539 21.8809 8.67383 21.8809ZM8.78809 20.1318C7.97949 20.1318 7.53125 19.71 7.53125 18.8574V8.47754C7.53125 7.625 7.97949 7.20312 8.78809 7.20312H19.2031C20.0029 7.20312 20.46 7.625 20.46 8.47754V18.8574C20.46 19.71 20.0029 20.1318 19.2031 20.1318H8.78809ZM16.7422 11.3164C16.3027 11.3164 16.0127 11.6328 16.0127 12.1162V13.5137L16.1445 14.7705L14.9668 13.4873L11.9082 10.4287C11.7412 10.2617 11.5479 10.1826 11.3105 10.1826C10.8535 10.1826 10.5283 10.4902 10.5283 10.9561C10.5283 11.167 10.625 11.3779 10.7744 11.5273L13.8506 14.6035L15.1426 15.7812L13.9561 15.6406H12.4707C11.9873 15.6406 11.6797 15.9307 11.6797 16.3701C11.6797 16.8096 11.9873 17.0996 12.4619 17.0996H16.5752C17.1289 17.0996 17.4717 16.8184 17.4717 16.2119V12.125C17.4717 11.6504 17.1816 11.3164 16.7422 11.3164Z" fill="#1C1C1E"/>
</svg>
