<svg width="28" height="28" viewBox="0 0 28 28" fill="none" xmlns="http://www.w3.org/2000/svg">
<path d="M13.9912 22.7422C18.9746 22.7422 23.0879 18.6289 23.0879 13.6543C23.0879 8.67969 18.9658 4.56641 13.9824 4.56641C9.00781 4.56641 4.90332 8.67969 4.90332 13.6543C4.90332 18.6289 9.0166 22.7422 13.9912 22.7422ZM9.9834 13.7158C9.58789 13.7158 9.2627 13.3994 9.2627 13.0039V9.83105C9.2627 9.22461 9.58789 8.95215 10.1592 8.95215H13.3057C13.71 8.95215 14.0264 9.26855 14.0264 9.67285C14.0264 10.0684 13.71 10.3848 13.3057 10.3848H12.8926L11.6094 10.2793L13.5518 12.1162C13.8682 12.4062 13.8682 12.9248 13.5605 13.2324C13.2529 13.54 12.7432 13.5488 12.4443 13.2236L10.5986 11.2637L10.7041 12.582V13.0039C10.7041 13.3994 10.3877 13.7158 9.9834 13.7158ZM14.6504 18.374C14.2549 18.374 13.9297 18.0576 13.9297 17.6533C13.9297 17.2578 14.2549 16.9414 14.6504 16.9414H15.0723L16.3467 17.0469L14.4043 15.21C14.0967 14.9199 14.0967 14.4014 14.4043 14.0938C14.7119 13.7861 15.2217 13.7773 15.5205 14.1025L17.3662 16.0625L17.252 14.7441V14.3223C17.252 13.9268 17.5771 13.6016 17.9727 13.6016C18.377 13.6016 18.6934 13.9268 18.6934 14.3223V17.4951C18.6934 18.1016 18.377 18.374 17.8057 18.374H14.6504Z" fill="#1C1C1E"/>
</svg>
