<svg width="28" height="28" viewBox="0 0 28 28" fill="none" xmlns="http://www.w3.org/2000/svg">
<path d="M13.9912 22.7422C18.9746 22.7422 23.0879 18.6289 23.0879 13.6543C23.0879 8.67969 18.9658 4.56641 13.9824 4.56641C9.00781 4.56641 4.90332 8.67969 4.90332 13.6543C4.90332 18.6289 9.0166 22.7422 13.9912 22.7422ZM11.126 11.2197C11.5918 11.2197 11.8906 11.5449 11.8906 12.0547V13.4961L11.7676 14.7969L12.9893 13.4697L16.1533 10.2969C16.3203 10.1211 16.5312 10.0332 16.7861 10.0332C17.252 10.0332 17.5947 10.3584 17.5947 10.8594C17.5947 11.0703 17.498 11.29 17.3311 11.457L14.1494 14.6299L12.8135 15.8604L14.0527 15.7197H15.5732C16.083 15.7197 16.4082 16.0186 16.4082 16.4756C16.4082 16.9414 16.083 17.2402 15.582 17.2402H11.3105C10.7305 17.2402 10.3701 16.9414 10.3701 16.3086V12.0635C10.3701 11.5625 10.6689 11.2197 11.126 11.2197Z" fill="#1C1C1E"/>
</svg>
