<svg width="28" height="28" viewBox="0 0 28 28" fill="none" xmlns="http://www.w3.org/2000/svg">
<path d="M13.9912 22.7598C18.9746 22.7598 23.0879 18.6465 23.0879 13.6631C23.0879 8.68848 18.9658 4.5752 13.9824 4.5752C9.00781 4.5752 4.90332 8.68848 4.90332 13.6631C4.90332 18.6465 9.0166 22.7598 13.9912 22.7598ZM13.1387 17.6006C12.875 17.6006 12.6816 17.4951 12.4268 17.2666L8.6123 13.6895C8.41895 13.5137 8.34863 13.3115 8.34863 13.127C8.34863 12.9336 8.41895 12.7402 8.6123 12.5645L12.4268 9.00488C12.708 8.75 12.875 8.64453 13.1299 8.64453C13.5166 8.64453 13.7891 8.94336 13.7891 9.3125V11.0439H13.9121C17.2344 11.0439 18.7812 13.1709 18.7812 16.6777C18.7812 17.2754 18.5176 17.583 18.1836 17.583C17.9287 17.583 17.7002 17.5039 17.5156 17.1523C16.7598 15.7373 15.6787 15.2275 13.9121 15.2275H13.7891V16.959C13.7891 17.3281 13.5166 17.6006 13.1387 17.6006Z" fill="#1C1C1E"/>
</svg>
