<svg width="28" height="28" viewBox="0 0 28 28" fill="none" xmlns="http://www.w3.org/2000/svg">
<path d="M8.67383 21.8809H19.3174C21.2246 21.8809 22.209 20.8965 22.209 19.0156V8.31934C22.209 6.43848 21.2246 5.4541 19.3174 5.4541H8.67383C6.77539 5.4541 5.78223 6.42969 5.78223 8.31934V19.0156C5.78223 20.8965 6.77539 21.8809 8.67383 21.8809ZM18.7461 14.7441C18.7461 16.9414 17.1729 18.3389 15.0195 18.3389H13.7451C13.2881 18.3389 12.9629 18.0752 12.9629 17.6094C12.9629 17.1611 13.2881 16.8975 13.7275 16.8975H15.0195C16.3291 16.8975 17.2607 16.0449 17.2607 14.6826C17.2607 13.3467 16.3027 12.5908 15.0195 12.5908H12.3213L11.3457 12.5469L11.873 12.9248L12.9629 13.9268C13.1035 14.0586 13.1738 14.2432 13.1738 14.4277C13.1738 14.832 12.8574 15.1396 12.4795 15.1396C12.2861 15.1396 12.1104 15.0781 11.9785 14.9375L9.53516 12.4502C9.37695 12.292 9.28027 12.0898 9.28027 11.8789C9.28027 11.668 9.38574 11.4658 9.53516 11.3076L11.9785 8.83789C12.1104 8.68848 12.2773 8.62695 12.4707 8.62695C12.8574 8.62695 13.1738 8.94336 13.1738 9.33887C13.1738 9.53223 13.0947 9.70801 12.9541 9.83105L12.0312 10.71L11.3457 11.2373L12.3213 11.1934H15.0195C17.1816 11.1934 18.7461 12.5469 18.7461 14.7441Z" fill="#1C1C1E"/>
</svg>
