<svg width="28" height="28" viewBox="0 0 28 28" fill="none" xmlns="http://www.w3.org/2000/svg">
<path d="M4.8418 21.9424C4.8418 23.8496 5.82617 24.834 7.70703 24.834H15.9336C17.8145 24.834 18.7988 23.8408 18.7988 21.9424V20.3164H20.293C22.1738 20.3164 23.1582 19.3232 23.1582 17.4248V5.35742C23.1582 3.4502 22.1738 2.45703 20.293 2.45703H12.0664C10.1855 2.45703 9.20117 3.4502 9.20117 5.35742V6.97461H7.70703C5.82617 6.97461 4.8418 7.96777 4.8418 9.875V21.9424ZM13.5078 5.05859V4.85645C13.5078 4.59277 13.7012 4.29395 14.1055 4.29395H18.2451C18.6582 4.29395 18.8428 4.59277 18.8428 4.85645V5.05859C18.8428 5.34863 18.6406 5.6123 18.2451 5.6123H14.1055C13.7188 5.6123 13.5078 5.34863 13.5078 5.05859ZM6.59082 21.8281V9.98926C6.59082 9.17188 7.0127 8.73242 7.85645 8.73242H15.7754C16.6279 8.73242 17.0498 9.17188 17.0498 9.98926V21.8281C17.0498 22.6367 16.6279 23.085 15.7754 23.085H7.85645C7.0127 23.085 6.59082 22.6367 6.59082 21.8281ZM9.47363 13.7773C9.69336 14.0498 10.0186 14.0586 10.3262 13.8389C10.792 13.4961 11.249 13.3115 11.8467 13.3115C13.0947 13.3115 14.1318 14.1377 14.4395 15.2451H13.7627C13.4287 15.2451 13.3408 15.5703 13.5254 15.834L14.624 17.3281C14.8086 17.5918 15.1426 17.6094 15.3359 17.3281L16.417 15.834C16.6104 15.5703 16.5225 15.2451 16.1885 15.2451H15.5557C15.2305 13.4258 13.7363 12.1602 11.8467 12.1602C11.0205 12.1602 10.2295 12.4414 9.6582 12.8896C9.31543 13.1533 9.24512 13.5137 9.47363 13.7773ZM7.25 15.957C7.05664 16.2119 7.14453 16.5371 7.47852 16.5371H8.1377C8.47168 18.3652 9.96582 19.6221 11.8555 19.6221C12.6816 19.6221 13.4727 19.3496 14.0352 18.9014C14.3779 18.6377 14.4482 18.2686 14.2285 18.0049C14 17.7324 13.6748 17.7324 13.3672 17.9434C12.9102 18.2949 12.4531 18.4795 11.8555 18.4795C10.5986 18.4795 9.56152 17.6533 9.2627 16.5371H9.9043C10.2383 16.5371 10.3262 16.2119 10.1416 15.957L9.04297 14.4541C8.8584 14.1992 8.52441 14.1816 8.32227 14.4541L7.25 15.957Z" fill="#1C1C1E"/>
</svg>
