<svg width="28" height="28" viewBox="0 0 28 28" fill="none" xmlns="http://www.w3.org/2000/svg">
<path d="M18.7551 5.4541H11.9172C11.3283 5.4541 10.9592 5.78809 10.968 6.32422C10.9768 6.86914 11.3283 7.20312 11.9172 7.20312H18.6408C19.4582 7.20312 19.8977 7.625 19.8977 8.47754V17.6094L18.6584 16.2559L17.9553 15.5615C17.5861 15.2012 17.0676 15.166 16.7072 15.5439C16.3381 15.9043 16.3469 16.4316 16.716 16.8008L19.7219 19.7979C20.3899 20.457 21.1545 20.457 21.8225 19.7979L24.8195 16.8008C25.1975 16.4316 25.2063 15.9043 24.8371 15.5439C24.468 15.1748 23.9582 15.1924 23.5803 15.5615L22.8772 16.2559L21.6555 17.6006V8.31934C21.6555 6.42969 20.6535 5.4541 18.7551 5.4541ZM3.15451 11.791C3.52365 12.1602 4.0422 12.1426 4.41134 11.7734L5.11447 11.0791L6.34494 9.73438V19.0156C6.34494 20.8965 7.3381 21.8809 9.23654 21.8809H16.0832C16.6633 21.8809 17.0324 21.5469 17.0236 21.002C17.0236 20.4658 16.6633 20.1318 16.0832 20.1318H9.3508C8.5422 20.1318 8.09396 19.71 8.09396 18.8574V9.72559L9.33322 11.0791L10.0363 11.7734C10.4143 12.1338 10.924 12.1602 11.2932 11.791C11.6535 11.4219 11.6535 10.9033 11.2756 10.5342L8.26974 7.53711C7.60177 6.87793 6.84591 6.87793 6.17795 7.53711L3.17209 10.5342C2.80295 10.9033 2.79416 11.4219 3.15451 11.791Z" fill="#1C1C1E"/>
</svg>
