<svg width="28" height="28" viewBox="0 0 28 28" fill="none" xmlns="http://www.w3.org/2000/svg">
<path d="M14 22.9795C14.4131 22.9795 14.7734 22.6719 14.7734 22.25V5.08496C14.7734 4.66309 14.4131 4.34668 14 4.34668C13.5957 4.34668 13.2266 4.66309 13.2266 5.08496V22.25C13.2266 22.6719 13.5869 22.9795 14 22.9795ZM3.40039 18.9541L10.1592 14.8232C11.1084 14.2432 11.1172 13.0918 10.1592 12.5117L3.40039 8.38086C2.39844 7.77441 1.41406 8.2666 1.41406 9.42676V17.9082C1.41406 19.0859 2.4248 19.543 3.40039 18.9541ZM24.5908 18.9541C25.5752 19.543 26.5859 19.0859 26.5859 17.9082V9.42676C26.5859 8.2666 25.5928 7.77441 24.5908 8.38086L17.8408 12.5117C16.874 13.0918 16.8828 14.2432 17.8408 14.8232L24.5908 18.9541Z" fill="#1C1C1E"/>
</svg>
