<svg width="28" height="28" viewBox="0 0 28 28" fill="none" xmlns="http://www.w3.org/2000/svg">
<path d="M12.5322 19.0332C13.9297 19.0332 15.2393 18.6113 16.3291 17.8906L20.1787 21.749C20.4336 21.9951 20.7588 22.1182 21.1104 22.1182C21.8398 22.1182 22.376 21.5469 22.376 20.8262C22.376 20.4922 22.2617 20.167 22.0156 19.9209L18.1924 16.0801C18.9834 14.9551 19.4492 13.5928 19.4492 12.1162C19.4492 8.31055 16.3379 5.19922 12.5322 5.19922C8.73535 5.19922 5.61523 8.31055 5.61523 12.1162C5.61523 15.9219 8.72656 19.0332 12.5322 19.0332ZM12.5322 17.1875C9.74609 17.1875 7.46094 14.9023 7.46094 12.1162C7.46094 9.33008 9.74609 7.04492 12.5322 7.04492C15.3184 7.04492 17.6035 9.33008 17.6035 12.1162C17.6035 14.9023 15.3184 17.1875 12.5322 17.1875ZM9.53516 11.7646C9.53516 12.2568 10.0625 12.3535 10.3438 12.0723L10.9941 11.4395L13.1826 13.6191L12.5059 14.2783C12.207 14.5684 12.3301 15.0957 12.8135 15.0957H14.9844C15.3008 15.0957 15.5029 14.876 15.5029 14.5068V12.459C15.5029 11.9668 14.9756 11.8701 14.6855 12.1426L14.0264 12.793L11.8467 10.6045L12.5234 9.93652C12.8223 9.64648 12.708 9.12793 12.2158 9.12793H10.0537C9.72852 9.12793 9.53516 9.34766 9.53516 9.7168V11.7646Z" fill="#1C1C1E"/>
</svg>
