<svg width="28" height="28" viewBox="0 0 28 28" fill="none" xmlns="http://www.w3.org/2000/svg">
<path d="M6.69629 20.8877H15.9424C17.8408 20.8877 18.9307 19.8242 18.9307 17.9609V9.33008C18.9307 7.4668 17.9111 6.40332 16.0127 6.40332H6.69629C4.86816 6.40332 3.70801 7.4668 3.70801 9.33008V18.0225C3.70801 19.877 4.80664 20.8877 6.69629 20.8877ZM20.2227 16.4756L23.2285 19.0596C23.5889 19.376 23.9756 19.5781 24.3447 19.5781C25.0566 19.5781 25.54 19.0684 25.54 18.2949V9.04004C25.54 8.2666 25.0566 7.75684 24.3447 7.75684C23.9668 7.75684 23.5889 7.95898 23.2285 8.27539L20.2227 10.8594V16.4756ZM14.4922 9.93652C14.9404 9.93652 15.2744 10.2441 15.2744 10.666C15.2744 10.8857 15.1953 11.0791 15.0195 11.2461L11.3896 14.8408L10.0098 16.0801L12.3125 15.9307H13.6045C14.0176 15.9307 14.3516 16.2383 14.3516 16.6514C14.3516 17.082 14.0264 17.4248 13.6133 17.4248H8.62109C8.02344 17.4248 7.71582 17.1172 7.71582 16.5195V11.5801C7.71582 11.167 8.05859 10.8506 8.48926 10.8506C8.91113 10.8506 9.21875 11.1846 9.21875 11.5889V12.8281L9.06055 15.1133L10.3086 13.7598L13.9385 10.165C14.0967 10.0068 14.2725 9.93652 14.4922 9.93652Z" fill="#1C1C1E"/>
</svg>
