<svg width="28" height="28" viewBox="0 0 28 28" fill="none" xmlns="http://www.w3.org/2000/svg">
<path d="M8.67383 21.8809H19.3174C21.2246 21.8809 22.209 20.8965 22.209 19.0156V8.31934C22.209 6.43848 21.2246 5.4541 19.3174 5.4541H8.67383C6.77539 5.4541 5.78223 6.42969 5.78223 8.31934V19.0156C5.78223 20.8965 6.77539 21.8809 8.67383 21.8809ZM16.874 11.2197C17.3311 11.2197 17.6299 11.5625 17.6299 12.0635V16.3086C17.6299 16.9414 17.2783 17.2402 16.6895 17.2402H12.4268C11.917 17.2402 11.5918 16.9414 11.5918 16.4756C11.5918 16.0186 11.9258 15.7197 12.4355 15.7197H13.9561L15.1953 15.8604L13.8506 14.6299L10.6689 11.457C10.5107 11.29 10.4053 11.0703 10.4053 10.8594C10.4053 10.3584 10.748 10.0332 11.2227 10.0332C11.4775 10.0332 11.6797 10.1211 11.8555 10.2969L15.0195 13.4697L16.2412 14.7969L16.1094 13.4961V12.0547C16.1094 11.5449 16.4082 11.2197 16.874 11.2197Z" fill="#1C1C1E"/>
</svg>
