<svg width="28" height="28" viewBox="0 0 28 28" fill="none" xmlns="http://www.w3.org/2000/svg">
<path d="M12.0224 21.9336C12.5761 21.9336 12.9013 21.582 12.9013 20.9932V15.9131C13.9033 17.3018 15.5293 18.4092 17.5683 19.1123C18.1396 19.332 18.6142 19.042 18.7812 18.6377C18.9482 18.2422 18.8252 17.7412 18.2363 17.4688C15.125 16.1768 12.9013 14.2344 12.9013 11.0703V9.25977H14.2285C14.8965 9.25977 15.0898 8.75 14.6943 8.20508L12.5849 5.24316C12.2685 4.79492 11.7763 4.79492 11.4599 5.24316L9.35055 8.20508C8.94626 8.75 9.13083 9.25977 9.81637 9.25977H11.1435V20.9932C11.1435 21.582 11.4687 21.9336 12.0224 21.9336Z" fill="#1C1C1E"/>
</svg>
