<svg width="28" height="28" viewBox="0 0 28 28" fill="none" xmlns="http://www.w3.org/2000/svg">
<path d="M7.16211 21.002H16.3027C18.5615 21.002 19.8711 19.7275 19.8711 17.5127V16.458L23.0264 19.1299C23.4395 19.4814 23.8701 19.7188 24.292 19.7188C25.0918 19.7188 25.6455 19.1387 25.6455 18.2686V9.08398C25.6455 8.21387 25.0918 7.63379 24.292 7.63379C23.8701 7.63379 23.4395 7.87109 23.0264 8.21387L19.8711 10.8945V9.7959C19.8711 7.58105 18.5615 6.29785 16.3027 6.29785H7.16211C4.98242 6.29785 3.60254 7.58105 3.60254 9.7959V17.5742C3.60254 19.7803 4.90332 21.002 7.16211 21.002ZM7.45215 19.4199C6.08105 19.4199 5.29883 18.6816 5.29883 17.2578V10.0508C5.29883 8.60059 6.08105 7.88867 7.45215 7.88867H16.0127C17.3838 7.88867 18.166 8.61816 18.166 10.0508V17.2578C18.166 18.6816 17.375 19.4199 16.0127 19.4199H7.45215ZM23.6855 17.6885L19.8711 14.5684V12.7842L23.6855 9.66406C23.7646 9.60254 23.8174 9.56738 23.8877 9.56738C23.9844 9.56738 24.0371 9.6377 24.0371 9.76074V17.5918C24.0371 17.7061 23.9844 17.7852 23.8877 17.7852C23.8174 17.7852 23.7646 17.7412 23.6855 17.6885ZM9.02539 17.2666C9.23633 17.2666 9.40332 17.1963 9.55273 17.0469L13.0596 13.584L14.2637 12.2744L14.1143 14.4805V15.6846C14.1143 16.0713 14.4043 16.3789 14.7998 16.3789C15.2129 16.3789 15.5381 16.0889 15.5381 15.6846V10.9297C15.5381 10.3672 15.248 10.0684 14.6855 10.0684H9.87793C9.48242 10.0684 9.1748 10.4023 9.1748 10.8066C9.1748 11.2109 9.49121 11.501 9.88672 11.501H11.1348L13.3584 11.3516L12.0312 12.5557L8.52441 16.0186C8.35742 16.1768 8.28711 16.3613 8.28711 16.5811C8.28711 16.9766 8.60352 17.2666 9.02539 17.2666Z" fill="#1C1C1E"/>
</svg>
