<svg width="28" height="28" viewBox="0 0 28 28" fill="none" xmlns="http://www.w3.org/2000/svg">
<path d="M15.1689 21.8369C15.6523 21.8369 16.0303 21.6523 16.4961 21.2129L23.457 14.6826C23.7998 14.3574 23.9316 13.9795 23.9316 13.6543C23.9316 13.3203 23.7998 12.9512 23.457 12.626L16.4961 6.13965C15.9863 5.66504 15.6523 5.47168 15.1865 5.47168C14.4834 5.47168 13.9824 6.0166 13.9824 6.70215V9.83105H13.7627C7.69824 9.83105 4.88574 13.7246 4.88574 20.1055C4.88574 21.2217 5.36035 21.8018 5.97559 21.8018C6.44141 21.8018 6.87207 21.6523 7.21484 21.0107C8.59473 18.4443 10.5547 17.5039 13.7627 17.5039H13.9824V20.6504C13.9824 21.3359 14.4834 21.8369 15.1689 21.8369ZM15.7314 19.5693C15.6523 19.5693 15.5996 19.5166 15.5996 19.4287V16.1855C15.5996 15.9834 15.5117 15.8955 15.3096 15.8955H14.1846C10.1592 15.8955 7.59277 17.1699 6.53809 19.3672C6.51172 19.4199 6.48535 19.4463 6.4502 19.4463C6.41504 19.4463 6.38867 19.4199 6.38867 19.3584C6.5293 15.166 8.52441 11.4307 14.1846 11.4307H15.3096C15.5117 11.4307 15.5996 11.3428 15.5996 11.1406V7.81836C15.5996 7.73926 15.6523 7.68652 15.7314 7.68652C15.7842 7.68652 15.8369 7.71289 15.8809 7.75684L21.8838 13.4873C21.9453 13.5576 21.9717 13.6016 21.9717 13.6543C21.9717 13.707 21.9541 13.751 21.8838 13.8213L15.8721 19.499C15.8281 19.543 15.7754 19.5693 15.7314 19.5693Z" fill="#1C1C1E"/>
</svg>
