<svg width="28" height="28" viewBox="0 0 28 28" fill="none" xmlns="http://www.w3.org/2000/svg">
<path d="M8.20801 5.59473L3.77832 10.1299C3.60254 10.3057 3.48828 10.5781 3.48828 10.8154C3.48828 11.3691 3.875 11.7471 4.41992 11.7471C4.68359 11.7471 4.89453 11.6592 5.07031 11.4746L6.88086 9.59375L8.04102 8.25781L7.9707 10.1211V21.0811C7.9707 21.6348 8.36621 22.0303 8.91113 22.0303C9.45605 22.0303 9.84277 21.6348 9.84277 21.0811V10.1211L9.78125 8.25781L10.9326 9.59375L12.7432 11.4746C12.9189 11.6592 13.1387 11.7471 13.4023 11.7471C13.9385 11.7471 14.3252 11.3691 14.3252 10.8154C14.3252 10.5781 14.2109 10.3057 14.0352 10.1299L9.60547 5.59473C9.21875 5.19043 8.60352 5.18164 8.20801 5.59473ZM19.792 21.7227L24.2217 17.1875C24.3975 17.0029 24.5117 16.7305 24.5117 16.4932C24.5117 15.9482 24.125 15.5703 23.5801 15.5703C23.3164 15.5703 23.1055 15.6582 22.9297 15.834L21.1191 17.7148L19.959 19.0508L20.0293 17.1875V6.22754C20.0293 5.69141 19.6338 5.28711 19.0889 5.28711C18.5527 5.28711 18.1572 5.69141 18.1572 6.22754V17.1875L18.2188 19.0508L17.0674 17.7148L15.2568 15.834C15.0811 15.6582 14.8613 15.5703 14.6064 15.5703C14.0615 15.5703 13.6748 15.9482 13.6748 16.4932C13.6748 16.7305 13.7891 17.0029 13.9648 17.1875L18.3945 21.7227C18.7812 22.1357 19.3965 22.1445 19.792 21.7227Z" fill="#1C1C1E"/>
</svg>
