<svg width="28" height="28" viewBox="0 0 28 28" fill="none" xmlns="http://www.w3.org/2000/svg">
<path d="M13.9912 22.9707C14.4043 22.9707 14.7559 22.6631 14.7559 22.25V5.08496C14.7559 4.67188 14.3955 4.36426 13.9912 4.36426C13.5957 4.36426 13.2266 4.67188 13.2266 5.08496V22.25C13.2266 22.6631 13.5869 22.9707 13.9912 22.9707ZM3.43555 18.9365L10.1768 14.8145C11.126 14.2344 11.1348 13.1006 10.1768 12.5205L3.43555 8.39844C2.44238 7.79199 1.4668 8.27539 1.4668 9.43555V17.8994C1.4668 19.0684 2.45996 19.5254 3.43555 18.9365ZM24.5557 18.9365C25.5225 19.5254 26.5244 19.0684 26.5244 17.8994V9.43555C26.5244 8.27539 25.5488 7.79199 24.5557 8.39844L17.8057 12.5205C16.8564 13.1006 16.8652 14.2344 17.8057 14.8145L24.5557 18.9365Z" fill="#1C1C1E"/>
</svg>
