<svg width="28" height="28" viewBox="0 0 28 28" fill="none" xmlns="http://www.w3.org/2000/svg">
<path d="M9.21875 5.30469C8.70898 5.30469 8.26074 5.32227 7.90039 5.38379C7.47852 5.46289 7.02148 5.74414 7.02148 6.3418C7.02148 6.91309 7.42578 7.27344 7.98828 7.27344C8.32227 7.27344 8.67383 7.23828 9.15723 7.23828C11.9697 7.23828 13.1914 8.22266 13.1914 11.0703L13.1826 16.7041L13.2617 18.9893L11.6885 17.249L8.97266 14.5244C8.79688 14.3486 8.55078 14.2344 8.27832 14.2344C7.74219 14.2344 7.33789 14.6387 7.33789 15.2012C7.33789 15.4473 7.43457 15.6846 7.64551 15.8955L13.4287 21.6875C13.6221 21.8896 13.8945 22.0039 14.1582 22.0039C14.4219 22.0039 14.6943 21.8896 14.8877 21.6875L20.6797 15.8955C20.8818 15.6846 20.9785 15.4473 20.9785 15.2012C20.9785 14.6387 20.583 14.2344 20.0469 14.2344C19.7656 14.2344 19.5195 14.3486 19.3438 14.5244L16.6279 17.249L15.0635 18.9805L15.1338 16.7041V10.9473C15.1338 6.95703 13.1826 5.30469 9.21875 5.30469Z" fill="#1C1C1E"/>
</svg>
