<svg width="28" height="28" viewBox="0 0 28 28" fill="none" xmlns="http://www.w3.org/2000/svg">
<path d="M21.04 6.61426C20.1348 5.71777 18.8867 5.5332 17.2783 5.5332H10.6953C9.10449 5.5332 7.85645 5.71777 6.95117 6.62305C6.0459 7.51953 5.87891 8.75879 5.87891 10.3496V16.9326C5.87891 18.5498 6.0459 19.7891 6.95117 20.6855C7.85645 21.5908 9.10449 21.7666 10.7129 21.7666H17.2783C18.8867 21.7666 20.1348 21.5908 21.04 20.6855C21.9453 19.7803 22.1123 18.5498 22.1123 16.9326V10.376C22.1123 8.75879 21.9453 7.51953 21.04 6.61426ZM16.8564 16.0537C16.3818 16.0537 16.083 15.7373 16.083 15.2275V13.7861L16.2148 12.4766L14.9932 13.8125L11.8291 16.9766C11.6533 17.1523 11.4512 17.2402 11.1963 17.2402C10.7217 17.2402 10.3789 16.915 10.3789 16.4229C10.3789 16.2031 10.4844 15.9834 10.6426 15.8252L13.8242 12.6436L15.1689 11.4219L13.9297 11.5625H12.4092C11.8994 11.5625 11.5742 11.2637 11.5742 10.7979C11.5742 10.332 11.8994 10.0332 12.4004 10.0332H16.6631C17.252 10.0332 17.6123 10.332 17.6123 10.9736V15.21C17.6123 15.7109 17.3135 16.0537 16.8564 16.0537Z" fill="#1C1C1E"/>
</svg>
