<svg width="28" height="28" viewBox="0 0 28 28" fill="none" xmlns="http://www.w3.org/2000/svg">
<path d="M8.67383 21.8809H19.3174C21.2246 21.8809 22.209 20.8965 22.209 19.0156V8.31934C22.209 6.43848 21.2246 5.4541 19.3174 5.4541H8.67383C6.77539 5.4541 5.78223 6.42969 5.78223 8.31934V19.0156C5.78223 20.8965 6.77539 21.8809 8.67383 21.8809ZM11.1611 16.0537C10.7041 16.0537 10.4053 15.7109 10.4053 15.21V10.9736C10.4053 10.332 10.7656 10.0332 11.3457 10.0332H15.6172C16.1182 10.0332 16.4434 10.332 16.4434 10.7979C16.4434 11.2637 16.1182 11.5625 15.6084 11.5625H14.0791L12.8398 11.4219L14.1846 12.6436L17.3662 15.8252C17.5332 15.9834 17.6299 16.2031 17.6299 16.4229C17.6299 16.915 17.2871 17.2402 16.8213 17.2402C16.5664 17.2402 16.3555 17.1523 16.1797 16.9766L13.0156 13.8125L11.8027 12.4766L11.9258 13.7861V15.2275C11.9258 15.7373 11.627 16.0537 11.1611 16.0537Z" fill="#1C1C1E"/>
</svg>
