<svg width="28" height="28" viewBox="0 0 28 28" fill="none" xmlns="http://www.w3.org/2000/svg">
<path d="M14 21.5469C14.5801 21.5469 14.9756 21.1514 14.9756 20.5537V12.4414L14.8877 10.5957L17.1992 13.127L19.001 14.9023C19.1768 15.0781 19.4229 15.1924 19.7041 15.1924C20.2402 15.1924 20.6445 14.7881 20.6445 14.2344C20.6445 13.9795 20.5391 13.7334 20.3281 13.5225L14.7295 7.98535C14.5801 7.83594 14.4043 7.73047 14.2021 7.68652H19.7832C20.3369 7.68652 20.7412 7.28223 20.7412 6.72852C20.7412 6.1748 20.3369 5.77051 19.7832 5.77051H8.19922C7.6543 5.77051 7.25879 6.1748 7.25879 6.72852C7.25879 7.28223 7.6543 7.68652 8.19922 7.68652H13.7979C13.5957 7.73047 13.4199 7.83594 13.2705 7.98535L7.68066 13.5225C7.46973 13.7334 7.36426 13.9795 7.36426 14.2344C7.36426 14.7881 7.75977 15.1924 8.30469 15.1924C8.57715 15.1924 8.82324 15.0781 9.00781 14.9023L10.8008 13.127L13.1123 10.5869L13.0156 12.4414V20.5537C13.0156 21.1514 13.4199 21.5469 14 21.5469Z" fill="#1C1C1E"/>
</svg>
