<svg width="28" height="28" viewBox="0 0 28 28" fill="none" xmlns="http://www.w3.org/2000/svg">
<path d="M14 22.7334C18.9658 22.7334 23.0791 18.6289 23.0791 13.6543C23.0791 8.68848 18.9658 4.5752 13.9912 4.5752C9.02539 4.5752 4.9209 8.68848 4.9209 13.6543C4.9209 18.6289 9.03418 22.7334 14 22.7334ZM14 20.9492C9.95703 20.9492 6.71387 17.6973 6.71387 13.6543C6.71387 9.61133 9.94824 6.36816 13.9912 6.36816C18.0342 6.36816 21.2861 9.61133 21.2949 13.6543C21.2949 17.6973 18.043 20.9492 14 20.9492ZM13.9824 16.335C14.1758 16.335 14.3428 16.2559 14.4834 16.124L17.3838 13.2061C17.542 13.0566 17.5947 12.8896 17.5947 12.7139C17.5947 12.3535 17.3398 12.0723 16.9707 12.0723C16.7861 12.0723 16.6191 12.1426 16.4873 12.2744L15.9336 12.8281L14.5449 14.4014L14.6416 12.9072V9.24219C14.6416 8.85547 14.3691 8.57422 13.9824 8.57422C13.5869 8.57422 13.3232 8.85547 13.3232 9.24219V12.9072L13.4287 14.4102L12.0137 12.8193L11.5039 12.2744C11.3809 12.1338 11.2227 12.0723 11.0205 12.0723C10.6514 12.0723 10.3877 12.3359 10.3877 12.7227C10.3877 12.8721 10.4668 13.0742 10.5898 13.1973L13.4902 16.124C13.6309 16.2646 13.7979 16.335 13.9824 16.335ZM10.7832 18.2598H17.208C17.5859 18.2598 17.8584 17.9785 17.8584 17.6006C17.8584 17.2314 17.5859 16.959 17.208 16.959H10.7832C10.4053 16.959 10.1328 17.2314 10.1328 17.6006C10.1328 17.9785 10.4053 18.2598 10.7832 18.2598Z" fill="#1C1C1E"/>
</svg>
