<svg width="28" height="28" viewBox="0 0 28 28" fill="none" xmlns="http://www.w3.org/2000/svg">
<path d="M8.67383 21.8809H19.3174C21.2246 21.8809 22.209 20.8965 22.209 19.0156V8.31934C22.209 6.43848 21.2246 5.4541 19.3174 5.4541H8.67383C6.77539 5.4541 5.78223 6.42969 5.78223 8.31934V19.0156C5.78223 20.8965 6.77539 21.8809 8.67383 21.8809ZM8.78809 20.1318C7.97949 20.1318 7.53125 19.71 7.53125 18.8574V8.47754C7.53125 7.625 7.97949 7.20312 8.78809 7.20312H19.2031C20.0029 7.20312 20.46 7.625 20.46 8.47754V18.8574C20.46 19.71 20.0029 20.1318 19.2031 20.1318H8.78809ZM11.2578 11.3164C10.8096 11.3164 10.5283 11.6504 10.5283 12.125V16.2119C10.5283 16.8184 10.8711 17.0996 11.4248 17.0996H15.5381C16.0127 17.0996 16.3203 16.8096 16.3203 16.3701C16.3203 15.9307 16.0127 15.6406 15.5293 15.6406H14.0439L12.8574 15.7812L14.1494 14.6035L17.2168 11.5273C17.375 11.3779 17.4717 11.167 17.4717 10.9561C17.4717 10.4902 17.1465 10.1826 16.6895 10.1826C16.4521 10.1826 16.2588 10.2617 16.0918 10.4287L13.0332 13.4873L11.8555 14.7705L11.9873 13.5137V12.1162C11.9873 11.6328 11.6973 11.3164 11.2578 11.3164Z" fill="#1C1C1E"/>
</svg>
