<svg width="28" height="28" viewBox="0 0 28 28" fill="none" xmlns="http://www.w3.org/2000/svg">
<path d="M4.8418 21.9424C4.8418 23.8496 5.82617 24.834 7.70703 24.834H15.9336C17.8145 24.834 18.7988 23.8408 18.7988 21.9424V20.3164H20.293C22.1738 20.3164 23.1582 19.3232 23.1582 17.4248V5.35742C23.1582 3.4502 22.1738 2.45703 20.293 2.45703H12.0664C10.1855 2.45703 9.20117 3.4502 9.20117 5.35742V6.97461H7.70703C5.82617 6.97461 4.8418 7.96777 4.8418 9.875V21.9424ZM13.5078 5.05859V4.85645C13.5078 4.59277 13.7012 4.29395 14.1055 4.29395H18.2451C18.6582 4.29395 18.8428 4.59277 18.8428 4.85645V5.05859C18.8428 5.34863 18.6406 5.6123 18.2451 5.6123H14.1055C13.7188 5.6123 13.5078 5.34863 13.5078 5.05859ZM6.59082 21.8281V9.98926C6.59082 9.17188 7.0127 8.73242 7.85645 8.73242H15.7754C16.6279 8.73242 17.0498 9.17188 17.0498 9.98926V21.8281C17.0498 22.6367 16.6279 23.085 15.7754 23.085H7.85645C7.0127 23.085 6.59082 22.6367 6.59082 21.8281ZM11.8203 19.6748C12.1982 19.6748 12.4707 19.4111 12.4707 19.0508V15.4561L12.4092 13.9443L13.0947 14.7881L13.8945 15.6143C14 15.7373 14.1494 15.8076 14.3252 15.8076C14.6768 15.8076 14.9316 15.5615 14.9316 15.2275C14.9316 15.0518 14.8701 14.9111 14.7559 14.7881L12.3389 12.3359C12.1895 12.1777 12.0312 12.0898 11.8203 12.0898C11.627 12.0898 11.4775 12.1689 11.3105 12.3359L8.89355 14.7881C8.77051 14.9111 8.71777 15.0518 8.71777 15.2275C8.71777 15.5615 8.97266 15.8076 9.31543 15.8076C9.49121 15.8076 9.64941 15.7285 9.75488 15.6143L10.5547 14.7969L11.2402 13.9443L11.1699 15.4561V19.0508C11.1699 19.4111 11.4512 19.6748 11.8203 19.6748Z" fill="#1C1C1E"/>
</svg>
