<svg width="28" height="28" viewBox="0 0 28 28" fill="none" xmlns="http://www.w3.org/2000/svg">
<path d="M13.9912 22.751C18.9746 22.751 23.0879 18.6377 23.0879 13.6631C23.0879 8.67969 18.9658 4.56641 13.9824 4.56641C9.00781 4.56641 4.90332 8.67969 4.90332 13.6631C4.90332 18.6377 9.0166 22.751 13.9912 22.751ZM10.8447 10.8242C10.5459 10.4727 10.6426 9.98047 11.1084 9.62891C11.8555 9.03125 12.9102 8.66211 14.0088 8.66211C16.5312 8.66211 18.5264 10.3496 18.9658 12.7754H19.8008C20.249 12.7754 20.3633 13.2148 20.1084 13.5664L18.667 15.5615C18.4033 15.9307 17.9551 15.9131 17.7002 15.5615L16.25 13.5664C15.9863 13.2236 16.1094 12.7754 16.5576 12.7754H17.4541C17.0498 11.3076 15.6699 10.209 14.0088 10.209C13.2178 10.209 12.6113 10.4463 11.9961 10.9121C11.583 11.1934 11.1523 11.1846 10.8447 10.8242ZM7.88281 13.7246L9.31543 11.7295C9.58789 11.3604 10.0273 11.3779 10.2822 11.7295L11.7412 13.7246C11.9961 14.0674 11.8818 14.5068 11.4336 14.5068H10.5723C10.9766 15.9834 12.3564 17.082 14.0264 17.082C14.8174 17.082 15.4238 16.8359 16.0303 16.3789C16.4434 16.0889 16.8828 16.0977 17.1816 16.458C17.4893 16.8096 17.3926 17.3105 16.9268 17.6621C16.1797 18.2598 15.1162 18.6201 14.0264 18.6201C11.5039 18.6201 9.50879 16.9414 9.06934 14.5068H8.18164C7.7334 14.5068 7.61914 14.0674 7.88281 13.7246Z" fill="#1C1C1E"/>
</svg>
