<svg width="28" height="28" viewBox="0 0 28 28" fill="none" xmlns="http://www.w3.org/2000/svg">
<path d="M13.9912 22.7422C18.9746 22.7422 23.0879 18.6289 23.0879 13.6543C23.0879 8.67969 18.9658 4.56641 13.9824 4.56641C9.00781 4.56641 4.90332 8.67969 4.90332 13.6543C4.90332 18.6289 9.0166 22.7422 13.9912 22.7422ZM10.0098 13.584C9.61426 13.584 9.29785 13.2676 9.29785 12.8721C9.29785 12.4941 9.61426 12.1777 10.0098 12.1777H10.3877L11.6357 12.2832L9.39453 10.1475C9.08691 9.85742 9.07812 9.35645 9.38574 9.05762C9.68457 8.75879 10.1768 8.75879 10.4668 9.06641L12.6201 11.3252L12.5146 10.042V9.65527C12.5146 9.26855 12.8311 8.95215 13.209 8.95215C13.6045 8.95215 13.9209 9.26855 13.9209 9.65527V12.7139C13.9209 13.3115 13.6045 13.584 13.0508 13.584H10.0098ZM14.7559 18.3477C14.3691 18.3477 14.0527 18.04 14.0527 17.6445V14.5859C14.0527 13.9883 14.3604 13.7158 14.9229 13.7158H17.9639C18.3594 13.7158 18.667 14.0322 18.667 14.4277C18.667 14.8057 18.3594 15.1221 17.9639 15.1221H17.5771L16.3291 15.0166L18.5791 17.1523C18.8867 17.4424 18.8955 17.9434 18.5879 18.2422C18.2891 18.541 17.7969 18.5498 17.498 18.2334L15.3447 15.9746L15.459 17.2578V17.6445C15.459 18.04 15.1426 18.3477 14.7559 18.3477Z" fill="#1C1C1E"/>
</svg>
