<svg width="28" height="28" viewBox="0 0 28 28" fill="none" xmlns="http://www.w3.org/2000/svg">
<path d="M6.74023 6.24512C6.13379 6.24512 5.86133 6.69336 5.78223 7.12402C5.71191 7.48438 5.69434 7.94141 5.69434 8.45117C5.69434 12.5732 7.4082 14.4541 11.4688 14.4541H17.2607L19.3525 14.3311L16.7861 16.6777L14.8174 18.6641C14.6328 18.8398 14.5273 19.0859 14.5273 19.3584C14.5273 19.9033 14.9316 20.2988 15.4941 20.2988C15.7402 20.2988 15.9775 20.2021 16.2061 19.9736L21.9805 14.208C22.1914 14.0059 22.3057 13.7422 22.3057 13.4785C22.3057 13.2061 22.1914 12.9424 21.9805 12.7402L16.1885 6.95703C15.9775 6.75488 15.7402 6.64941 15.4941 6.64941C14.9316 6.64941 14.5273 7.05371 14.5273 7.58984C14.5273 7.87109 14.6416 8.1084 14.8174 8.28418L16.7861 10.2793L19.3613 12.626L17.2607 12.4941H11.5918C8.7002 12.4941 7.67188 11.3076 7.67188 8.38965C7.67188 7.89746 7.69824 7.55469 7.69824 7.21191C7.69824 6.64062 7.31152 6.24512 6.74023 6.24512Z" fill="#1C1C1E"/>
</svg>
