<svg width="28" height="28" viewBox="0 0 28 28" fill="none" xmlns="http://www.w3.org/2000/svg">
<path d="M10.458 20.29C10.458 22.1885 11.4336 23.1816 13.3232 23.1816H22.6924C24.582 23.1816 25.5576 22.1885 25.5576 20.29V7.03613C25.5576 5.12891 24.582 4.13574 22.6924 4.13574H13.3232C11.4336 4.13574 10.458 5.12891 10.458 7.03613V20.29ZM12.207 20.1758V7.1416C12.207 6.33301 12.6289 5.89355 13.4814 5.89355H22.5342C23.3867 5.89355 23.8086 6.33301 23.8086 7.1416V20.1758C23.8086 20.9844 23.3867 21.4238 22.5342 21.4238H13.4814C12.6289 21.4238 12.207 20.9844 12.207 20.1758ZM22.7627 9.41797C22.7627 9.03125 22.499 8.84668 22.1475 8.84668C21.1982 8.84668 18.7549 10.2441 18.7549 13.2939C18.7549 16.3438 21.1982 17.75 22.1475 17.75C22.499 17.75 22.7627 17.5566 22.7627 17.1699V9.41797ZM2.6709 12.2744C2.19629 12.8105 2.5039 13.5312 3.20703 13.5312H4.70996V17.1348C4.70996 17.5918 5.07031 17.9258 5.52734 17.9258C5.97558 17.9258 6.33593 17.5918 6.33593 17.1348V13.5312H7.8125C8.55957 13.5312 8.83203 12.793 8.36621 12.2744L6.05468 9.64648C5.73828 9.29492 5.29004 9.29492 4.98242 9.64648L2.6709 12.2744ZM18.0693 13.2939C18.0605 12.0635 17.0234 11.0703 15.6348 11.0703C14.334 11.0703 13.2529 12.0635 13.2529 13.2939C13.2529 14.5244 14.334 15.5176 15.6348 15.5176C17.0234 15.5176 18.0781 14.5244 18.0693 13.2939Z" fill="#1C1C1E"/>
</svg>
