<svg width="28" height="28" viewBox="0 0 28 28" fill="none" xmlns="http://www.w3.org/2000/svg">
<path d="M13.9912 22.7422C18.9746 22.7422 23.0879 18.6289 23.0879 13.6543C23.0879 8.67969 18.9658 4.56641 13.9824 4.56641C9.00781 4.56641 4.90332 8.67969 4.90332 13.6543C4.90332 18.6289 9.0166 22.7422 13.9912 22.7422ZM13.9912 20.9316C9.95703 20.9316 6.73145 17.6885 6.73145 13.6543C6.73145 9.62012 9.95703 6.38574 13.9824 6.38574C18.0166 6.38574 21.2598 9.62012 21.2686 13.6543C21.2773 17.6885 18.0254 20.9316 13.9912 20.9316ZM9.45605 13.6543C9.45605 13.9004 9.55273 14.0938 9.74609 14.2871L12.7256 17.2227C12.875 17.3633 13.0508 17.4424 13.2617 17.4424C13.6748 17.4424 13.9736 17.126 13.9736 16.7129C13.9736 16.4932 13.8857 16.3086 13.7451 16.1768L12.6729 15.1572L11.6885 14.3662L13.4902 14.4453H17.7793C18.2275 14.4453 18.5439 14.1025 18.5439 13.6543C18.5439 13.1973 18.2275 12.8633 17.7793 12.8633H13.4902L11.6973 12.9512L12.6816 12.1514L13.7451 11.1318C13.877 11 13.9736 10.8154 13.9736 10.5957C13.9736 10.1826 13.6748 9.875 13.2617 9.875C13.0508 9.875 12.875 9.94531 12.7256 10.0859L9.74609 13.0303C9.54395 13.2236 9.45605 13.417 9.45605 13.6543Z" fill="#1C1C1E"/>
</svg>
