<svg width="28" height="28" viewBox="0 0 28 28" fill="none" xmlns="http://www.w3.org/2000/svg">
<path d="M8.67383 21.8809H19.3174C21.2246 21.8809 22.209 20.8965 22.209 19.0156V8.31934C22.209 6.43848 21.2246 5.4541 19.3174 5.4541H8.67383C6.77539 5.4541 5.78223 6.42969 5.78223 8.31934V19.0156C5.78223 20.8965 6.77539 21.8809 8.67383 21.8809ZM8.78809 20.1318C7.97949 20.1318 7.53125 19.71 7.53125 18.8574V8.47754C7.53125 7.625 7.97949 7.20312 8.78809 7.20312H19.2031C20.0029 7.20312 20.46 7.625 20.46 8.47754V18.8574C20.46 19.71 20.0029 20.1318 19.2031 20.1318H8.78809ZM19.3877 13.6631C19.3877 13.4346 19.291 13.25 19.1064 13.0654L16.6631 10.6484C16.5312 10.5078 16.3555 10.4463 16.1621 10.4463C15.7754 10.4463 15.4854 10.7451 15.4854 11.1318C15.4854 11.3516 15.5732 11.5361 15.7227 11.6504L16.2764 12.1865L17.2607 12.9951L15.4941 12.916H12.5059L10.7305 12.9951L11.7236 12.1865L12.2686 11.6504C12.418 11.5361 12.5059 11.3516 12.5059 11.1318C12.5059 10.7451 12.2246 10.4463 11.8291 10.4463C11.6445 10.4463 11.4688 10.5078 11.3281 10.6484L8.89355 13.0654C8.70898 13.25 8.6123 13.4346 8.6123 13.6631C8.6123 13.8828 8.70898 14.0586 8.89355 14.252L11.3281 16.6777C11.4688 16.8096 11.6445 16.8711 11.8291 16.8711C12.2246 16.8711 12.5059 16.5811 12.5059 16.1855C12.5059 15.9746 12.4092 15.79 12.2686 15.667L11.7236 15.1309L10.7393 14.3311L12.5059 14.4014H15.4941L17.252 14.3311L16.2764 15.1309L15.7227 15.667C15.582 15.79 15.4854 15.9746 15.4854 16.1855C15.4854 16.5811 15.7754 16.8711 16.1621 16.8711C16.3555 16.8711 16.5312 16.8096 16.6631 16.6777L19.1064 14.252C19.291 14.0586 19.3877 13.8828 19.3877 13.6631Z" fill="#1C1C1E"/>
</svg>
