<svg width="28" height="28" viewBox="0 0 28 28" fill="none" xmlns="http://www.w3.org/2000/svg">
<path d="M5.52734 21.7578H10.8447C12.4443 21.7578 13.1387 21.0635 13.1387 19.4814V17.6621H15.2568V20.6504C15.2568 21.3359 15.7666 21.8369 16.4521 21.8369C16.9268 21.8369 17.3047 21.6436 17.7705 21.2129L24.7314 14.6826C25.0742 14.3574 25.2061 13.9795 25.2061 13.6543C25.2061 13.3203 25.083 12.9512 24.7314 12.626L17.7705 6.13086C17.2607 5.66504 16.9355 5.47168 16.4609 5.47168C15.7666 5.47168 15.2568 6.0166 15.2568 6.70215V9.91016H9.86035C8.2168 9.91016 7.51367 10.6221 7.51367 12.2393V13.8916H5.52734C3.97168 13.8916 3.2334 14.6123 3.2334 16.1328V19.5254C3.2334 21.0547 3.9541 21.7578 5.52734 21.7578ZM17.0059 19.5693C16.9268 19.5693 16.874 19.5166 16.874 19.4287V16.1064C16.874 15.9043 16.7861 15.8164 16.584 15.8164H10.0537C9.52637 15.8164 9.2627 15.5264 9.2627 14.9463V12.3008C9.2627 11.7119 9.52637 11.4307 10.0537 11.4307H16.584C16.7861 11.4307 16.874 11.334 16.874 11.1406V7.81836C16.874 7.73926 16.9355 7.68652 17.0059 7.68652C17.0674 7.68652 17.1113 7.71289 17.1553 7.75684L23.1582 13.4873C23.2285 13.5576 23.2549 13.6016 23.2549 13.6543C23.2549 13.707 23.2285 13.751 23.1582 13.8213L17.1553 19.499C17.1025 19.543 17.0586 19.5693 17.0059 19.5693ZM5.71191 20.1846C5.18457 20.1846 4.92969 19.8945 4.92969 19.3232V16.335C4.92969 15.7549 5.18457 15.4736 5.71191 15.4736H7.5752V15.834C7.5752 16.3877 7.75977 16.792 8.26953 17.1611L11.4424 19.2354V19.3232C11.4424 19.8945 11.1875 20.1846 10.6602 20.1846H5.71191Z" fill="#1C1C1E"/>
</svg>
