<svg width="28" height="28" viewBox="0 0 28 28" fill="none" xmlns="http://www.w3.org/2000/svg">
<path d="M8.67383 21.8809H19.3174C21.2246 21.8809 22.209 20.8965 22.209 19.0156V8.31934C22.209 6.43848 21.2246 5.4541 19.3174 5.4541H8.67383C6.77539 5.4541 5.78223 6.42969 5.78223 8.31934V19.0156C5.78223 20.8965 6.77539 21.8809 8.67383 21.8809ZM8.78809 20.1318C7.97949 20.1318 7.53125 19.71 7.53125 18.8574V8.47754C7.53125 7.625 7.97949 7.20312 8.78809 7.20312H19.2031C20.0029 7.20312 20.46 7.625 20.46 8.47754V18.8574C20.46 19.71 20.0029 20.1318 19.2031 20.1318H8.78809ZM17.1025 17.7412L19.2295 15.5527C19.3438 15.4385 19.4229 15.2715 19.4229 15.1221C19.4229 14.7705 19.1768 14.5244 18.8252 14.5244C18.6582 14.5244 18.5088 14.5859 18.4033 14.7002L17.5156 15.6143L17.252 15.9131L17.2607 15.4736V9.98926C17.2607 9.64648 16.9971 9.3916 16.6543 9.3916C16.3115 9.3916 16.0566 9.65527 16.0566 9.98926V15.4824L16.0742 15.9131L15.793 15.6143L14.9141 14.7002C14.7998 14.5859 14.6504 14.5244 14.4922 14.5244C14.1406 14.5244 13.9033 14.7705 13.9033 15.1221C13.9033 15.2627 13.9736 15.4297 14.0791 15.5527L16.2148 17.7412C16.4346 17.9609 16.8477 17.9961 17.1025 17.7412ZM10.9062 9.58496L8.77051 11.7734C8.66504 11.8965 8.58594 12.0635 8.58594 12.2041C8.58594 12.5469 8.84082 12.793 9.18359 12.793C9.3418 12.793 9.48242 12.7314 9.59668 12.6172L10.4844 11.7031L10.7568 11.3955L10.748 11.8438V17.3281C10.748 17.6709 11.0029 17.917 11.3457 17.917C11.6973 17.917 11.9521 17.6621 11.9521 17.3281V11.835L11.9346 11.3955L12.207 11.7031L13.0947 12.6172C13.209 12.7402 13.3584 12.793 13.5166 12.793C13.8594 12.793 14.1055 12.5469 14.1055 12.2041C14.1055 12.0547 14.0264 11.8789 13.9209 11.7734L11.7852 9.58496C11.5566 9.35645 11.1699 9.32129 10.9062 9.58496Z" fill="#1C1C1E"/>
</svg>
