<svg width="28" height="28" viewBox="0 0 28 28" fill="none" xmlns="http://www.w3.org/2000/svg">
<path d="M13.9912 22.7422C18.9746 22.7422 23.0879 18.6289 23.0879 13.6543C23.0879 8.67969 18.9658 4.56641 13.9824 4.56641C9.00781 4.56641 4.90332 8.67969 4.90332 13.6543C4.90332 18.6289 9.0166 22.7422 13.9912 22.7422ZM17.2168 17.8994C16.9619 18.1543 16.5312 18.1543 16.2764 17.8994L14.0703 15.6318C13.9473 15.5 13.877 15.333 13.877 15.1748C13.877 14.8145 14.1318 14.5596 14.4922 14.5596C14.668 14.5596 14.8262 14.6123 14.9404 14.7441L15.8545 15.6846L16.1357 15.9922L16.1182 15.5439V9.84863C16.1182 9.49707 16.3818 9.22461 16.751 9.22461C17.1025 9.22461 17.375 9.48828 17.375 9.84863V15.5352L17.3662 15.9834L17.6475 15.6846L18.5615 14.7441C18.6758 14.6211 18.834 14.5596 19.001 14.5596C19.3701 14.5596 19.625 14.8145 19.625 15.1748C19.625 15.333 19.5371 15.5088 19.4229 15.6318L17.2168 17.8994ZM10.7656 9.42676C11.0293 9.1543 11.4336 9.17188 11.6885 9.42676L13.9033 11.6943C14.0176 11.8086 14.0967 11.9844 14.0967 12.1514C14.0967 12.5117 13.833 12.7666 13.4814 12.7666C13.3145 12.7666 13.1562 12.7051 13.0332 12.5908L12.1191 11.6328L11.8379 11.3252L11.8555 11.7822V17.4775C11.8555 17.8203 11.5918 18.0928 11.2227 18.0928C10.8711 18.0928 10.5986 17.8203 10.5986 17.4775V11.7822L10.6074 11.3252L10.335 11.6328L9.41211 12.5732C9.29785 12.6963 9.13965 12.7666 8.97266 12.7666C8.6123 12.7666 8.34863 12.5029 8.34863 12.1514C8.34863 11.9932 8.43652 11.8262 8.54199 11.6943L10.7656 9.42676Z" fill="#1C1C1E"/>
</svg>
