<svg width="28" height="28" viewBox="0 0 28 28" fill="none" xmlns="http://www.w3.org/2000/svg">
<path d="M21.1367 6.5791C20.2227 5.67383 18.9746 5.48926 17.3662 5.48926H10.6162C9.02539 5.48926 7.77734 5.67383 6.87207 6.5791C5.9668 7.47559 5.7998 8.71484 5.7998 10.3057V17.0029C5.7998 18.6201 5.9668 19.8594 6.87207 20.7559C7.77734 21.6611 9.02539 21.8369 10.6338 21.8369H17.3662C18.9746 21.8369 20.2314 21.6611 21.1367 20.7559C22.0332 19.8506 22.2002 18.6201 22.2002 17.0029V10.332C22.2002 8.71484 22.0332 7.47559 21.1367 6.5791ZM20.4512 10.0859V17.249C20.4512 18.1631 20.3369 18.9893 19.8535 19.4727C19.3613 19.9648 18.5264 20.0879 17.6123 20.0879H10.3965C9.48242 20.0879 8.63867 19.9561 8.15527 19.4727C7.67188 18.9893 7.54883 18.1631 7.54883 17.249V10.1035C7.54883 9.17188 7.67188 8.33691 8.15527 7.85352C8.63867 7.37012 9.48242 7.24707 10.4141 7.24707H17.6123C18.5264 7.24707 19.3613 7.37012 19.8535 7.85352C20.3369 8.3457 20.4512 9.17188 20.4512 10.0859ZM16.751 15.957C17.1904 15.957 17.4717 15.6318 17.4717 15.1572V11.0703C17.4717 10.4551 17.1289 10.1826 16.5752 10.1826H12.4707C11.9873 10.1826 11.6797 10.4639 11.6797 10.9033C11.6797 11.3516 11.9961 11.6328 12.4795 11.6328H13.9561L15.1514 11.4922L13.8594 12.6787L10.7832 15.7549C10.6338 15.9043 10.5283 16.1064 10.5283 16.3174C10.5283 16.792 10.8623 17.0996 11.3105 17.0996C11.5479 17.0996 11.7412 17.0117 11.9082 16.8535L14.9756 13.7861L16.1445 12.5117L16.0215 13.7686V15.166C16.0215 15.6494 16.3027 15.957 16.751 15.957Z" fill="#1C1C1E"/>
</svg>
