<svg width="28" height="28" viewBox="0 0 28 28" fill="none" xmlns="http://www.w3.org/2000/svg">
<path d="M20.8203 13.1006C20.8203 12.8457 20.7236 12.6084 20.5127 12.3975L14.7295 6.59668C14.5537 6.4209 14.3252 6.30664 14.0879 6.28906H19.8799C20.4248 6.28906 20.8203 5.87598 20.8203 5.32227C20.8203 4.77734 20.4248 4.36426 19.8799 4.36426H8.1377C7.58398 4.36426 7.17969 4.77734 7.17969 5.32227C7.17969 5.87598 7.58398 6.28906 8.1377 6.28906H13.9121C13.6748 6.30664 13.4463 6.4209 13.2705 6.59668L7.4873 12.3975C7.27637 12.6084 7.17969 12.8457 7.17969 13.1006C7.17969 13.6455 7.5752 14.0498 8.11133 14.0498C8.39258 14.0498 8.63867 13.9443 8.81445 13.7686L10.8184 11.7822L13.0947 9.24219L13.0244 11.1318V21.9951C13.0244 22.584 13.4199 22.9883 14 22.9883C14.5801 22.9883 14.9756 22.584 14.9756 21.9951V11.1318L14.9053 9.2334L17.1816 11.7822L19.1855 13.7686C19.3613 13.9443 19.6074 14.0498 19.8799 14.0498C20.416 14.0498 20.8203 13.6455 20.8203 13.1006Z" fill="#1C1C1E"/>
</svg>
