<svg width="28" height="28" viewBox="0 0 28 28" fill="none" xmlns="http://www.w3.org/2000/svg">
<path d="M13.9912 22.7598C18.9746 22.7598 23.0879 18.6465 23.0879 13.6631C23.0879 8.68848 18.9658 4.5752 13.9824 4.5752C9.00781 4.5752 4.90332 8.68848 4.90332 13.6631C4.90332 18.6465 9.0166 22.7598 13.9912 22.7598ZM9.93945 14.0762C9.93945 11.9053 11.6797 10.1738 13.666 10.1035C13.7451 10.1035 13.833 10.1123 13.8945 10.1123L13.3672 9.56738C13.2793 9.45312 13.2002 9.30371 13.2002 9.11914C13.2002 8.78516 13.4551 8.49512 13.8418 8.49512C14.0264 8.49512 14.1934 8.58301 14.3164 8.70605L16.0127 10.4375C16.25 10.6836 16.2676 11.123 16.0127 11.3691L14.2988 13.083C14.1934 13.1973 14.0176 13.2764 13.8506 13.2764C13.4814 13.2764 13.2002 13.0215 13.2002 12.6436C13.2002 12.4766 13.2617 12.3271 13.3584 12.2305L14.0791 11.501C13.9912 11.501 13.877 11.501 13.7803 11.501C12.4092 11.5449 11.3281 12.6963 11.3281 14.1025C11.3281 15.5791 12.5059 16.7744 13.9912 16.7744C15.459 16.7744 16.6455 15.5879 16.6455 14.1025C16.6455 13.7246 16.9531 13.417 17.3486 13.417C17.7178 13.417 18.0342 13.7246 18.0342 14.1025C18.0342 16.3438 16.2324 18.1631 13.9912 18.1631C11.75 18.1631 9.93945 16.3438 9.93945 14.0762Z" fill="#1C1C1E"/>
</svg>
