<svg width="28" height="28" viewBox="0 0 28 28" fill="none" xmlns="http://www.w3.org/2000/svg">
<path d="M21.251 20.7031C21.8662 20.7031 22.1387 20.2549 22.2178 19.8242C22.2881 19.4727 22.3057 19.0156 22.3057 18.4971C22.3057 14.375 20.5918 12.4941 16.5312 12.4941H10.7393L8.64746 12.6172L11.2139 10.2793L13.1826 8.28418C13.3584 8.1084 13.4727 7.8623 13.4727 7.58984C13.4727 7.05371 13.0684 6.64941 12.5059 6.64941C12.2598 6.64941 12.0225 6.75488 11.7939 6.97461L6.01074 12.7402C5.80859 12.9424 5.69434 13.2061 5.69434 13.4785C5.69434 13.7422 5.80859 14.0059 6.01074 14.208L11.8115 19.9912C12.0225 20.2021 12.2598 20.2988 12.5059 20.2988C13.0684 20.2988 13.4727 19.8945 13.4727 19.3584C13.4727 19.0859 13.3584 18.8398 13.1826 18.6641L11.2139 16.6777L8.63867 14.3311L10.7393 14.4541H16.4082C19.2998 14.4541 20.3281 15.6406 20.3281 18.5586C20.3281 19.0508 20.293 19.4023 20.293 19.7363C20.293 20.3076 20.6797 20.7031 21.251 20.7031Z" fill="#1C1C1E"/>
</svg>
