<svg width="28" height="28" viewBox="0 0 28 28" fill="none" xmlns="http://www.w3.org/2000/svg">
<path d="M8.03223 19.3057V13.707C8.07617 13.9092 8.18164 14.085 8.32227 14.2344L13.8594 19.8242C14.0703 20.0352 14.3164 20.1406 14.5713 20.1406C15.1338 20.1406 15.5381 19.7451 15.5381 19.2002C15.5381 18.9189 15.4238 18.6816 15.2393 18.4971L13.4727 16.7041L10.9238 14.3926L12.7783 14.4805H20.8994C21.4883 14.4805 21.8926 14.085 21.8926 13.5049C21.8926 12.9248 21.4883 12.5205 20.8994 12.5205H12.7783L10.9326 12.6084L13.4727 10.3057L15.2393 8.50391C15.415 8.32812 15.5381 8.08203 15.5381 7.80078C15.5381 7.26465 15.1338 6.86035 14.5713 6.86035C14.3164 6.86035 14.0703 6.96582 13.8594 7.17676L8.32227 12.7754C8.18164 12.9248 8.07617 13.1006 8.03223 13.2939V7.71289C8.03223 7.16797 7.61914 6.76367 7.06543 6.76367C6.52051 6.76367 6.10742 7.16797 6.10742 7.71289V19.3057C6.10742 19.8506 6.52051 20.2461 7.06543 20.2461C7.61914 20.2461 8.03223 19.8506 8.03223 19.3057Z" fill="#1C1C1E"/>
</svg>
