<svg width="28" height="28" viewBox="0 0 28 28" fill="none" xmlns="http://www.w3.org/2000/svg">
<path d="M8.19922 19.6309C7.6543 19.6309 7.25879 20.0352 7.25879 20.5889C7.25879 21.1426 7.6543 21.5469 8.19922 21.5469H19.7832C20.3369 21.5469 20.7412 21.1426 20.7412 20.5889C20.7412 20.0352 20.3369 19.6309 19.7832 19.6309H14.2021C14.4043 19.5869 14.5801 19.4814 14.7295 19.332L20.3281 13.7949C20.5391 13.584 20.6445 13.3379 20.6445 13.083C20.6445 12.5293 20.2402 12.125 19.7041 12.125C19.4229 12.125 19.1768 12.2393 19.001 12.415L17.1992 14.1904L14.8877 16.7217L14.9756 14.876V6.76367C14.9756 6.16602 14.5801 5.77051 14 5.77051C13.4199 5.77051 13.0156 6.16602 13.0156 6.76367V14.876L13.1123 16.7305L10.8008 14.1904L9.00781 12.415C8.82324 12.2393 8.57715 12.125 8.30469 12.125C7.75977 12.125 7.36426 12.5293 7.36426 13.083C7.36426 13.3379 7.46973 13.584 7.68066 13.7949L13.2705 19.332C13.4199 19.4814 13.5957 19.5869 13.7891 19.6309H8.19922Z" fill="#1C1C1E"/>
</svg>
