<svg width="28" height="28" viewBox="0 0 28 28" fill="none" xmlns="http://www.w3.org/2000/svg">
<path d="M13.9912 22.7422C18.9746 22.7422 23.0879 18.6289 23.0879 13.6543C23.0879 8.67969 18.9658 4.56641 13.9824 4.56641C9.00781 4.56641 4.90332 8.67969 4.90332 13.6543C4.90332 18.6289 9.0166 22.7422 13.9912 22.7422ZM16.8389 11.2197C17.2959 11.2197 17.5947 11.5625 17.5947 12.0635V16.3086C17.5947 16.9414 17.2432 17.2402 16.6543 17.2402H12.3916C11.8818 17.2402 11.5566 16.9414 11.5566 16.4756C11.5566 16.0186 11.8906 15.7197 12.4004 15.7197H13.9209L15.1602 15.8604L13.8154 14.6299L10.6338 11.457C10.4756 11.29 10.3701 11.0703 10.3701 10.8594C10.3701 10.3584 10.7129 10.0332 11.1787 10.0332C11.4424 10.0332 11.6445 10.1211 11.8203 10.2969L14.9844 13.4697L16.2061 14.7969L16.0742 13.4961V12.0547C16.0742 11.5449 16.373 11.2197 16.8389 11.2197Z" fill="#1C1C1E"/>
</svg>
