<svg width="28" height="28" viewBox="0 0 28 28" fill="none" xmlns="http://www.w3.org/2000/svg">
<path d="M8.67383 21.8809H19.3174C21.2246 21.8809 22.209 20.8965 22.209 19.0156V8.31934C22.209 6.43848 21.2246 5.4541 19.3174 5.4541H8.67383C6.77539 5.4541 5.78223 6.42969 5.78223 8.31934V19.0156C5.78223 20.8965 6.77539 21.8809 8.67383 21.8809ZM8.78809 20.1318C7.97949 20.1318 7.53125 19.71 7.53125 18.8574V8.47754C7.53125 7.625 7.97949 7.20312 8.78809 7.20312H19.2031C20.0029 7.20312 20.46 7.625 20.46 8.47754V18.8574C20.46 19.71 20.0029 20.1318 19.2031 20.1318H8.78809ZM18.5439 13.6455C18.5439 13.4082 18.4473 13.2236 18.2539 13.0215L15.2656 10.0771C15.1162 9.93652 14.9492 9.86621 14.7295 9.86621C14.3252 9.86621 14.0264 10.1738 14.0264 10.5869C14.0264 10.8066 14.1143 10.9912 14.2549 11.123L15.3096 12.1514L16.3027 12.9424L14.501 12.8633H10.2119C9.77246 12.8633 9.44727 13.1973 9.44727 13.6543C9.44727 14.1025 9.76367 14.4365 10.2119 14.4365H14.501L16.3115 14.3574L15.3184 15.1572L14.2549 16.168C14.1055 16.2998 14.0264 16.4932 14.0264 16.7041C14.0264 17.1172 14.3252 17.4336 14.7295 17.4336C14.9492 17.4336 15.1162 17.3633 15.2656 17.2139L18.2539 14.2783C18.4385 14.0938 18.5439 13.9004 18.5439 13.6455Z" fill="#1C1C1E"/>
</svg>
