<svg width="28" height="28" viewBox="0 0 28 28" fill="none" xmlns="http://www.w3.org/2000/svg">
<path d="M13.9912 22.7422C18.9746 22.7422 23.0879 18.6289 23.0879 13.6543C23.0879 8.67969 18.9658 4.56641 13.9824 4.56641C9.00781 4.56641 4.90332 8.67969 4.90332 13.6543C4.90332 18.6289 9.0166 22.7422 13.9912 22.7422ZM13.9912 20.9316C9.95703 20.9316 6.73145 17.6885 6.73145 13.6543C6.73145 9.62012 9.95703 6.38574 13.9824 6.38574C18.0166 6.38574 21.2598 9.62012 21.2686 13.6543C21.2773 17.6885 18.0254 20.9316 13.9912 20.9316ZM11.2402 15.9658C11.6797 15.9658 11.9697 15.6494 11.9697 15.166V13.7686L11.8379 12.5117L13.0156 13.7949L16.0742 16.8535C16.2412 17.0205 16.4346 17.0996 16.6719 17.0996C17.1289 17.0996 17.4541 16.792 17.4541 16.3262C17.4541 16.1152 17.3574 15.9043 17.208 15.7549L14.1318 12.6787L12.8398 11.501L14.0264 11.6416H15.5117C15.9951 11.6416 16.3027 11.3516 16.3027 10.9121C16.3027 10.4727 15.9951 10.1826 15.5205 10.1826H11.4072C10.8535 10.1826 10.5107 10.4639 10.5107 11.0703V15.1572C10.5107 15.6318 10.8008 15.9658 11.2402 15.9658Z" fill="#1C1C1E"/>
</svg>
