<svg width="28" height="28" viewBox="0 0 28 28" fill="none" xmlns="http://www.w3.org/2000/svg">
<path d="M6.47656 21.8809H21.5146C23.4219 21.8809 24.415 20.8965 24.415 19.0156V8.31934C24.415 6.43848 23.4219 5.4541 21.5146 5.4541H6.47656C4.57812 5.4541 3.58496 6.42969 3.58496 8.31934V19.0156C3.58496 20.8965 4.57812 21.8809 6.47656 21.8809ZM19.3789 12.7051C19.3789 11.2637 18.5879 10.4814 17.1289 10.4814H5.33398V8.47754C5.33398 7.625 5.78223 7.20312 6.59082 7.20312H21.4004C22.209 7.20312 22.6572 7.625 22.6572 8.47754V18.8574C22.6572 19.71 22.209 20.1318 21.4004 20.1318H19.3789V12.7051ZM6.59082 20.1318C5.78223 20.1318 5.33398 19.71 5.33398 18.8574V11.9404H13.042V20.1318H6.59082ZM16.9883 11.9404C17.5859 11.9404 17.9199 12.2832 17.9199 12.8896V20.1318H14.501V11.9404H16.9883Z" fill="#1C1C1E"/>
</svg>
