<svg width="28" height="28" viewBox="0 0 28 28" fill="none" xmlns="http://www.w3.org/2000/svg">
<path d="M14.5088 22.8037C15.2119 22.8037 15.625 22.3906 15.625 21.6699C15.625 21.5557 15.6162 21.415 15.6074 21.2832L15.4229 15.2275L20.4766 18.3564C20.7578 18.5498 21.0479 18.6377 21.3555 18.6377C21.9971 18.6377 22.4541 18.1543 22.4541 17.5039C22.4541 16.9941 22.2344 16.6689 21.7158 16.4141L16.3193 13.6631L21.7158 10.9033C22.2344 10.6484 22.4541 10.3232 22.4541 9.82227C22.4541 9.16309 21.9971 8.68848 21.3555 8.68848C21.0479 8.68848 20.7578 8.77637 20.4766 8.96973L15.4229 12.0898L15.6074 6.04297C15.6162 5.90234 15.625 5.77051 15.625 5.65625C15.625 4.93555 15.2119 4.51367 14.5088 4.51367C13.7969 4.51367 13.3838 4.93555 13.3838 5.65625C13.3838 5.77051 13.3926 5.90234 13.4014 6.04297L13.5859 12.0898L8.53223 8.96973C8.24219 8.77637 7.96094 8.68848 7.65332 8.68848C7.01172 8.68848 6.5459 9.16309 6.5459 9.82227C6.5459 10.3232 6.76562 10.6484 7.29297 10.9033L12.6895 13.6631L7.29297 16.4141C6.76562 16.6689 6.5459 17.0029 6.5459 17.5039C6.5459 18.1543 7.01172 18.6377 7.65332 18.6377C7.96094 18.6377 8.24219 18.5498 8.53223 18.3564L13.5859 15.2275L13.4014 21.2832C13.3926 21.415 13.3838 21.5557 13.3838 21.6699C13.3838 22.3906 13.7969 22.8037 14.5088 22.8037Z" fill="#1C1C1E"/>
</svg>
