<svg width="28" height="28" viewBox="0 0 28 28" fill="none" xmlns="http://www.w3.org/2000/svg">
<path d="M8.67383 21.8809H19.3174C21.2246 21.8809 22.209 20.8965 22.209 19.0156V8.31934C22.209 6.43848 21.2246 5.4541 19.3174 5.4541H8.67383C6.77539 5.4541 5.78223 6.42969 5.78223 8.31934V19.0156C5.78223 20.8965 6.77539 21.8809 8.67383 21.8809ZM8.78809 20.1318C7.97949 20.1318 7.53125 19.71 7.53125 18.8574V8.47754C7.53125 7.625 7.97949 7.20312 8.78809 7.20312H19.2031C20.0029 7.20312 20.46 7.625 20.46 8.47754V18.8574C20.46 19.71 20.0029 20.1318 19.2031 20.1318H8.78809ZM10.4053 15.4561C10.4053 15.6934 10.5635 15.8691 10.8096 15.8691H11.249L10.8799 16.959C10.8447 17.0908 10.8271 17.1963 10.8271 17.2754C10.8271 17.6357 11.0996 17.8906 11.4951 17.8906C11.8291 17.8906 12.04 17.7148 12.1367 17.3809L12.6025 15.8691H15.3799L15.8457 17.3896C15.9424 17.7236 16.1445 17.8906 16.4961 17.8906C16.8916 17.8906 17.1553 17.6357 17.1553 17.2754C17.1553 17.1963 17.1377 17.0908 17.1025 16.959L16.7334 15.8691H17.1816C17.4277 15.8691 17.5859 15.6934 17.5859 15.4561C17.5859 15.2188 17.4277 15.043 17.1816 15.043H16.4697L16.2412 14.3311H17.1816C17.4277 14.3311 17.5859 14.1553 17.5859 13.918C17.5859 13.6807 17.4277 13.4961 17.1816 13.4961H15.9688L14.8789 10.1562C14.7471 9.74316 14.4482 9.48828 13.9912 9.48828C13.5254 9.48828 13.2354 9.73438 13.1035 10.1562L12.0137 13.4961H10.8096C10.5635 13.4961 10.4053 13.6807 10.4053 13.918C10.4053 14.1553 10.5635 14.3311 10.8096 14.3311H11.7412L11.5127 15.043H10.8096C10.5635 15.043 10.4053 15.2188 10.4053 15.4561ZM13.3145 13.4961L13.9912 11.2812L14.668 13.4961H13.3145ZM12.8486 15.043L13.0684 14.3311H14.9141L15.1338 15.043H12.8486Z" fill="#1C1C1E"/>
</svg>
