<svg width="28" height="28" viewBox="0 0 28 28" fill="none" xmlns="http://www.w3.org/2000/svg">
<path d="M8.67383 21.8809H19.3174C21.2246 21.8809 22.209 20.8965 22.209 19.0156V8.31934C22.209 6.43848 21.2246 5.4541 19.3174 5.4541H8.67383C6.77539 5.4541 5.78223 6.42969 5.78223 8.31934V19.0156C5.78223 20.8965 6.77539 21.8809 8.67383 21.8809ZM11.8818 17.7324C11.2402 17.7324 10.8799 17.3721 10.8799 16.7305V10.4551C10.8799 9.80469 11.249 9.45312 11.8818 9.45312H14.5889C16.1709 9.45312 17.1816 10.2441 17.1816 11.4922C17.1816 12.3975 16.6016 13.1094 15.6787 13.3115V13.373C16.9004 13.5312 17.6387 14.2959 17.6387 15.4209C17.6387 16.8271 16.4346 17.7324 14.6152 17.7324H11.8818ZM12.5762 12.9072H13.8242C14.9053 12.9072 15.5029 12.4941 15.5029 11.7646C15.5029 11.0791 14.9932 10.666 14.1582 10.666H12.5762V12.9072ZM12.5762 16.4844H13.9121C15.248 16.4844 15.8809 16.0977 15.8809 15.2715C15.8809 14.4805 15.292 14.0234 14.2812 14.0234H12.5762V16.4844Z" fill="#1C1C1E"/>
</svg>
