<svg width="28" height="28" viewBox="0 0 28 28" fill="none" xmlns="http://www.w3.org/2000/svg">
<path d="M11.583 20.7207C12.3564 20.7207 13.0068 20.1318 13.0068 19.0596V13.9971C13.1211 14.4189 13.4375 14.7793 13.9648 15.0869L22.9736 20.3779C23.3516 20.6064 23.6855 20.7207 24.0723 20.7207C24.8457 20.7207 25.4961 20.1318 25.4961 19.0596V8.22266C25.4961 7.15039 24.8457 6.56152 24.0723 6.56152C23.6855 6.56152 23.3516 6.67578 22.9736 6.9043L13.9648 12.1953C13.4375 12.5029 13.1211 12.8545 13.0068 13.2764V8.22266C13.0068 7.15039 12.3652 6.56152 11.5918 6.56152C11.1963 6.56152 10.8711 6.67578 10.4844 6.9043L1.47559 12.1953C0.807617 12.5908 0.482422 13.0391 0.482422 13.6367C0.482422 14.2256 0.816406 14.7002 1.47559 15.0869L10.4844 20.3779C10.8623 20.6064 11.1963 20.7207 11.583 20.7207Z" fill="#1C1C1E"/>
</svg>
