<svg width="28" height="28" viewBox="0 0 28 28" fill="none" xmlns="http://www.w3.org/2000/svg">
<path d="M6.72267 20.9668H8.7881C9.62306 20.9668 10.0537 20.5361 10.0537 19.7012V14.0059C10.0186 13.8916 10.0098 13.7773 10.0098 13.6455C10.0098 13.5225 10.0186 13.3994 10.0537 13.2939V7.60742C10.0537 6.75488 9.62306 6.35059 8.7881 6.3418H6.72267C5.88771 6.3418 5.45704 6.77246 5.45704 7.60742V19.7012C5.44825 20.5361 5.87892 20.9668 6.72267 20.9668ZM21.1104 20.7295C21.8838 20.7295 22.5342 20.1494 22.5342 19.0771V8.23145C22.5342 7.15918 21.8926 6.5791 21.1192 6.5791C20.7324 6.5791 20.3984 6.69336 20.0117 6.91309L11.0029 12.2041C10.4844 12.5205 10.1592 12.8633 10.0537 13.2939V14.0059C10.168 14.4365 10.4844 14.7969 11.0029 15.1045L20.0117 20.3955C20.3984 20.6152 20.7236 20.7295 21.1104 20.7295Z" fill="#1C1C1E"/>
</svg>
