<svg width="28" height="28" viewBox="0 0 28 28" fill="none" xmlns="http://www.w3.org/2000/svg">
<path d="M8.9375 21.8809H19.2734C20.9697 21.8809 21.9541 20.8965 21.9541 19.0156V9.91895C21.9541 8.03809 20.9609 7.05371 19.0625 7.05371H17.8232C17.7793 5.08496 16.1006 3.4502 14 3.4502C11.9082 3.4502 10.2207 5.08496 10.1768 7.05371H8.9375C7.03906 7.05371 6.0459 8.03809 6.0459 9.91895V19.0156C6.0459 20.8965 7.03906 21.8809 8.9375 21.8809ZM14 5.00586C15.2041 5.00586 16.0918 5.91113 16.127 7.05371H11.873C11.9082 5.91113 12.7959 5.00586 14 5.00586ZM9.05176 20.1318C8.24316 20.1318 7.79492 19.71 7.79492 18.8574V10.0771C7.79492 9.2334 8.24316 8.81152 9.05176 8.81152H18.9482C19.748 8.81152 20.2051 9.2334 20.2051 10.0771V18.8574C20.2051 19.71 19.748 20.1318 19.1592 20.1318H9.05176Z" fill="#1C1C1E"/>
</svg>
