<svg width="28" height="28" viewBox="0 0 28 28" fill="none" xmlns="http://www.w3.org/2000/svg">
<path d="M13.9912 22.7422C18.9746 22.7422 23.0879 18.6289 23.0879 13.6543C23.0879 8.67969 18.9658 4.56641 13.9824 4.56641C9.00781 4.56641 4.90332 8.67969 4.90332 13.6543C4.90332 18.6289 9.0166 22.7422 13.9912 22.7422ZM13.9912 20.9316C9.95703 20.9316 6.73145 17.6885 6.73145 13.6543C6.73145 9.62012 9.95703 6.38574 13.9824 6.38574C18.0166 6.38574 21.2598 9.62012 21.2686 13.6543C21.2773 17.6885 18.0254 20.9316 13.9912 20.9316ZM9.96582 16.5107C9.96582 17.46 10.4756 17.9521 11.4336 17.9521H16.6631C17.5244 17.9521 18.0166 17.46 18.0166 16.5107V11.8965C18.0166 10.9561 17.5156 10.4639 16.5488 10.4639H15.916C15.8984 9.46191 15.0547 8.64453 13.9912 8.64453C12.9365 8.64453 12.0928 9.46191 12.0664 10.4639H11.4336C10.4756 10.4639 9.96582 10.9473 9.96582 11.8965V16.5107ZM13.0156 10.4639C13.0332 9.88379 13.4023 9.51465 13.9912 9.51465C14.5889 9.51465 14.958 9.88379 14.9756 10.4639H13.0156Z" fill="#1C1C1E"/>
</svg>
