<svg width="28" height="28" viewBox="0 0 28 28" fill="none" xmlns="http://www.w3.org/2000/svg">
<path d="M13.9912 22.7422C18.9746 22.7422 23.0879 18.6289 23.0879 13.6543C23.0879 8.67969 18.9658 4.56641 13.9824 4.56641C9.00781 4.56641 4.90332 8.67969 4.90332 13.6543C4.90332 18.6289 9.0166 22.7422 13.9912 22.7422ZM14.1143 18.9102C13.8682 18.9102 13.6836 18.7344 13.6836 18.4795V17.8818H12.2861C11.7939 17.8818 11.4775 17.5566 11.4775 17.0557V10.3848C11.4775 9.88379 11.8027 9.5498 12.2861 9.5498H13.6836V8.89062C13.6836 8.63574 13.8682 8.45996 14.1143 8.45996C14.3516 8.45996 14.5273 8.63574 14.5273 8.89062V9.5498H14.6943C16.1357 9.5498 17.085 10.4375 17.085 11.6855C17.085 12.4502 16.6104 13.1533 15.9424 13.4697C16.8652 13.7422 17.4805 14.5156 17.4805 15.5C17.4805 16.9502 16.4082 17.8818 14.7207 17.8818H14.5273V18.4795C14.5273 18.7344 14.3516 18.9102 14.1143 18.9102ZM12.875 13.0215H13.6836V10.7451H12.8838L12.875 13.0215ZM14.5273 12.9775C15.3008 12.8809 15.6963 12.4766 15.6963 11.835C15.6963 11.2021 15.292 10.833 14.5273 10.7627V12.9775ZM12.8838 16.6865L13.6836 16.6777V14.1729H12.8838V16.6865ZM14.5273 16.6689C15.5557 16.625 16.0654 16.1943 16.0654 15.4121C16.0654 14.6562 15.5557 14.2344 14.5273 14.1729V16.6689Z" fill="#1C1C1E"/>
</svg>
