<svg width="28" height="28" viewBox="0 0 28 28" fill="none" xmlns="http://www.w3.org/2000/svg">
<path d="M20.2138 13.9619L21.6464 12.4062C23.6679 10.3408 23.6328 7.73921 21.7783 5.86714C19.9238 3.99507 17.3046 3.97749 15.2392 5.99897L13.6835 7.43159C14.5361 7.15034 15.3886 7.41401 16.2499 8.27534L19.458 11.4833C20.3281 12.3447 20.4951 13.1093 20.2138 13.9619ZM12.6552 18.0751C13.5517 18.9804 14.413 18.998 15.3359 18.0751L18.4384 14.9726C19.3613 14.0498 19.3437 13.1972 18.4472 12.3007L15.3447 9.19819C14.4482 8.30171 13.5956 8.28413 12.6728 9.20698L9.56147 12.3095C8.6474 13.2324 8.66498 14.0937 9.56147 14.9902L12.6552 18.0751ZM13.4111 12.3623C13.0683 12.0195 13.0683 11.4833 13.3935 11.1582C13.7363 10.8154 14.2636 10.8154 14.6064 11.1582C14.9316 11.4833 14.9492 12.0107 14.5888 12.3623C14.2724 12.6787 13.7275 12.6874 13.4111 12.3623ZM11.5126 14.2519C11.1699 13.9091 11.1699 13.3818 11.5126 13.039C11.8466 12.6962 12.374 12.705 12.7167 13.0566C13.0331 13.373 13.0507 13.9091 12.7167 14.2343C12.3652 14.5947 11.8378 14.5771 11.5126 14.2519ZM16.4872 14.2519C16.1621 14.5771 15.6259 14.5771 15.2831 14.2343C14.958 13.9179 14.958 13.373 15.2831 13.0566C15.6347 12.6962 16.1621 12.705 16.4872 13.039C16.83 13.3818 16.83 13.9091 16.4872 14.2519ZM6.22162 21.4238C8.06733 23.3046 10.6953 23.3222 12.7607 21.2832L14.2988 19.8505C13.455 20.1318 12.6288 19.8945 11.7675 19.0332L8.55951 15.8251C7.6894 14.955 7.51361 14.1904 7.79486 13.3378L6.35346 14.8847C4.32318 16.9414 4.36713 19.5429 6.22162 21.4238ZM13.3935 16.1328C13.0683 15.8076 13.0507 15.2802 13.4111 14.9287C13.7363 14.5947 14.2724 14.6035 14.5888 14.9287C14.9316 15.2714 14.9492 15.8076 14.6064 16.1328C14.2548 16.4755 13.7363 16.4755 13.3935 16.1328Z" fill="#1C1C1E"/>
</svg>
