<svg width="28" height="28" viewBox="0 0 28 28" fill="none" xmlns="http://www.w3.org/2000/svg">
<path d="M0.113281 15.1924C0.113281 17.8379 0.710938 20.7031 1.52832 21.5557V24.2451H2.53027V21.6611C3.10156 21.3359 3.53223 20.4922 3.58496 19.6924C1.99414 19.2793 0.807617 17.8203 0.807617 16.0977C0.807617 15.0781 1.22949 14.1377 1.98535 13.4258C2.31934 8.92578 5.26367 4.90039 8.66504 4.90039C10.6777 4.90039 11.5918 6.39453 11.5918 9.21582L3.46191 13.4609C2.2666 14.085 1.7041 15.0605 1.7041 16.0977C1.7041 17.6445 2.97852 18.9277 4.5166 18.9277C5.27246 18.9277 5.76465 18.7344 6.83691 18.1543L10.959 15.8955C12.7607 14.9023 13.3936 13.6982 13.3936 11.1494V8.87305C13.3936 5.33105 11.8291 3.09863 8.75293 3.09863C4.02441 3.09863 0.113281 8.54785 0.113281 15.1924ZM25.4785 24.2451H26.4805V21.5381C27.2891 20.668 27.8779 17.8203 27.8779 15.1924C27.8779 8.54785 23.9668 3.09863 19.2295 3.09863C16.1621 3.09863 14.5977 5.33105 14.5977 8.87305V11.1494C14.5977 13.6982 15.2305 14.9023 17.0322 15.8955L21.1543 18.1543C22.2266 18.7344 22.7188 18.9277 23.4746 18.9277C25.0127 18.9277 26.2871 17.6445 26.2871 16.0977C26.2871 15.0605 25.7246 14.085 24.5293 13.4609L16.3994 9.21582C16.3994 6.39453 17.3135 4.90039 19.3262 4.90039C22.7275 4.90039 25.6719 8.92578 26.0059 13.4258C26.7617 14.1377 27.1836 15.0781 27.1836 16.0977C27.1836 17.8203 25.9971 19.2793 24.4062 19.6924C24.459 20.501 24.8896 21.3535 25.4785 21.6699V24.2451ZM4.45508 17.9346C3.44434 17.9346 2.61816 17.1084 2.61816 16.0977C2.61816 15.0869 3.44434 14.2607 4.45508 14.2607C5.46582 14.2607 6.29199 15.0869 6.29199 16.0977C6.29199 17.1084 5.46582 17.9346 4.45508 17.9346ZM23.5361 17.9346C22.5254 17.9346 21.6992 17.1084 21.6992 16.0977C21.6992 15.0869 22.5254 14.2607 23.5361 14.2607C24.5469 14.2607 25.373 15.0869 25.373 16.0977C25.373 17.1084 24.5469 17.9346 23.5361 17.9346ZM4.45508 17.1348C5.02637 17.1348 5.49219 16.6689 5.49219 16.0977C5.49219 15.5264 5.02637 15.0605 4.45508 15.0605C3.88379 15.0605 3.41797 15.5264 3.41797 16.0977C3.41797 16.6689 3.88379 17.1348 4.45508 17.1348ZM23.5361 17.1348C24.1074 17.1348 24.5732 16.6689 24.5732 16.0977C24.5732 15.5264 24.1074 15.0605 23.5361 15.0605C22.9648 15.0605 22.499 15.5264 22.499 16.0977C22.499 16.6689 22.9648 17.1348 23.5361 17.1348Z" fill="#1C1C1E"/>
</svg>
