<svg width="28" height="28" viewBox="0 0 28 28" fill="none" xmlns="http://www.w3.org/2000/svg">
<path d="M10.7344 17.3125C11.7031 17.3125 12.7422 16.7422 12.9688 15.5156L13.3516 13.4219C13.7578 11.2266 12.0938 9.58594 9.42188 8.66406C7.84375 8.11719 6.29688 7.86719 4.73438 7.86719C4.25781 7.86719 4.10156 8.03906 4.10156 8.34375C4.10156 9.09375 4.49219 9.66406 5.25 9.77344C6.49219 9.96094 7.46875 10.2188 8.42969 10.6875C8.82031 10.875 8.96875 11.1484 8.89844 11.5703L8.42969 14.4062C8.15625 16.0469 9.25781 17.3125 10.7344 17.3125ZM17.2734 17.3125C18.75 17.3125 19.8516 16.0469 19.5859 14.4062L19.1172 11.5703C19.0391 11.1484 19.1875 10.875 19.5781 10.6875C20.5469 10.2188 21.5234 9.96094 22.7578 9.77344C23.5234 9.66406 23.9062 9.09375 23.9062 8.34375C23.9062 8.03906 23.7578 7.86719 23.2812 7.86719C21.7188 7.86719 20.1719 8.11719 18.5859 8.66406C15.9219 9.58594 14.2578 11.2266 14.6562 13.4219L15.0469 15.5156C15.2656 16.7422 16.3125 17.3125 17.2734 17.3125ZM10.7344 18.0625C8.75 18.0625 7.34375 16.3281 7.6875 14.2891L7.96875 12.5938C6.44531 12.9922 5.32812 13.6484 4.83594 14.6484C5.26562 16.5234 5.94531 18.2656 6.89844 19.9297C7.35156 20.1484 7.82031 20.2266 8.46875 20.2266C10.9453 20.2266 13.1562 19.0312 13.3281 16.6406C12.8047 17.5156 11.8516 18.0625 10.7344 18.0625ZM17.2734 18.0625C16.1641 18.0625 15.2031 17.5156 14.6797 16.6406C14.8594 19.0312 17.0703 20.2266 19.5469 20.2266C20.1875 20.2266 20.6641 20.1484 21.1172 19.9297C22.0703 18.2656 22.75 16.5234 23.1719 14.6484C22.6875 13.6484 21.5703 12.9922 20.0391 12.5938L20.3203 14.2891C20.6641 16.3281 19.2656 18.0625 17.2734 18.0625ZM10.7344 16.2188C10.0469 16.2188 9.5 15.6719 9.5 14.9922C9.5 14.3047 10.0469 13.75 10.7344 13.75C11.4219 13.75 11.9688 14.2969 11.9688 14.9922C11.9688 15.6797 11.4219 16.2188 10.7344 16.2188ZM17.2812 16.2188C16.5938 16.2188 16.0469 15.6797 16.0469 14.9922C16.0469 14.2969 16.5938 13.75 17.2812 13.75C17.9688 13.75 18.5078 14.3047 18.5078 14.9922C18.5078 15.6719 17.9688 16.2188 17.2812 16.2188ZM10.7344 15.6719C11.1172 15.6719 11.4141 15.3672 11.4141 14.9922C11.4141 14.6094 11.1172 14.3047 10.7344 14.3047C10.3516 14.3047 10.0469 14.6094 10.0469 14.9922C10.0469 15.3672 10.3516 15.6719 10.7344 15.6719ZM17.2812 15.6719C17.6641 15.6719 17.9609 15.3672 17.9609 14.9922C17.9609 14.6094 17.6641 14.3047 17.2812 14.3047C16.8906 14.3047 16.5938 14.6094 16.5938 14.9922C16.5938 15.3672 16.8906 15.6719 17.2812 15.6719ZM1.36719 17.7188C1.36719 19.5859 2.625 20.8516 4.48438 20.8516C5.23438 20.8516 5.875 20.6172 6.27344 20.3438C5.25781 18.5938 4.53906 16.7266 4.08594 14.7344C2.69531 14.875 1.36719 16.0078 1.36719 17.7188ZM26.6406 17.7188C26.6406 16.0078 25.3203 14.875 23.9297 14.7344C23.4766 16.7266 22.75 18.5938 21.7344 20.3438C22.1406 20.6172 22.7812 20.8516 23.5312 20.8516C25.3906 20.8516 26.6406 19.5859 26.6406 17.7188Z" fill="#1C1C1E"/>
</svg>
