<svg width="28" height="28" viewBox="0 0 28 28" fill="none" xmlns="http://www.w3.org/2000/svg">
<path d="M17.6172 17.5625C18.6641 17.5625 19.7969 16.9375 20.0391 15.6094L20.4531 13.3438C20.8906 10.9609 19.0859 9.1875 16.1953 8.1875C14.4844 7.59375 12.8047 7.32031 11.1094 7.32031C10.5938 7.32031 10.4297 7.50781 10.4297 7.83594C10.4297 8.64844 10.8516 9.26562 11.6719 9.39062C13.0156 9.59375 14.0781 9.875 15.125 10.375C15.5469 10.5781 15.7031 10.8828 15.625 11.3359L15.1172 14.4141C14.8281 16.1875 16.0234 17.5625 17.6172 17.5625ZM17.6172 18.375C15.4688 18.375 13.9453 16.4922 14.3125 14.2812L14.625 12.4375C12.9688 12.875 11.7578 13.5859 11.2266 14.6719C11.6875 16.7031 12.4219 18.5859 13.4609 20.3906C13.9453 20.6328 14.4609 20.7188 15.1562 20.7188C17.8438 20.7188 20.2422 19.4219 20.4297 16.8281C19.8672 17.7812 18.8281 18.375 17.6172 18.375ZM17.6172 16.375C16.875 16.375 16.2812 15.7812 16.2812 15.0391C16.2812 14.2969 16.875 13.6953 17.6172 13.6953C18.3594 13.6953 18.9531 14.2891 18.9531 15.0391C18.9531 15.7891 18.3594 16.375 17.6172 16.375ZM17.6172 15.7812C18.0312 15.7812 18.3594 15.4531 18.3594 15.0391C18.3594 14.625 18.0312 14.2969 17.6172 14.2969C17.2031 14.2969 16.875 14.625 16.875 15.0391C16.875 15.4531 17.2031 15.7812 17.6172 15.7812ZM7.46875 18C7.46875 20.0234 8.82812 21.3906 10.8438 21.3906C11.6562 21.3906 12.3438 21.1406 12.7891 20.8438C11.6797 18.9453 10.8984 16.9219 10.4062 14.7578C8.89844 14.9141 7.46875 16.1406 7.46875 18Z" fill="#1C1C1E"/>
</svg>
