<svg width="28" height="28" viewBox="0 0 28 28" fill="none" xmlns="http://www.w3.org/2000/svg">
<path d="M14 22.7422C18.9658 22.7422 23.0791 18.6377 23.0791 13.6631C23.0791 8.69727 18.9658 4.58398 13.9912 4.58398C9.02539 4.58398 4.9209 8.69727 4.9209 13.6631C4.9209 18.6377 9.03418 22.7422 14 22.7422ZM9.6582 12.459V11.2637C9.6582 10.4727 10.0889 10.0684 10.8535 10.0684H17.1465C17.9199 10.0684 18.3418 10.4727 18.3418 11.2637V12.459H17.252V11.8877C17.252 11.4746 17.0322 11.2549 16.6016 11.2549H15.1338C14.7119 11.2549 14.4922 11.4746 14.4922 11.8877V12.459H13.5518V11.8877C13.5518 11.4746 13.332 11.2549 12.9277 11.2549H11.3809C10.9678 11.2549 10.748 11.4746 10.748 11.8877V12.459H9.6582ZM8.63867 16.8887V14.3662C8.63867 13.54 9.0957 13.083 9.92188 13.083H18.0781C18.9131 13.083 19.3701 13.54 19.3701 14.3662V16.8887C19.3701 17.1084 19.2207 17.2578 18.9922 17.2578H18.7461C18.5264 17.2578 18.377 17.1084 18.377 16.8887V16.2822C18.333 16.2998 18.1836 16.2998 18.0781 16.2998H9.92188C9.81641 16.2998 9.67578 16.2998 9.62305 16.2822V16.8887C9.62305 17.1084 9.47363 17.2578 9.25391 17.2578H9.00781C8.78809 17.2578 8.63867 17.1084 8.63867 16.8887Z" fill="#1C1C1E"/>
</svg>
