<svg width="28" height="28" viewBox="0 0 28 28" fill="none" xmlns="http://www.w3.org/2000/svg">
<path d="M6.96875 19.4639H21.0225C21.9277 19.4639 22.4814 18.9717 22.4814 18.2334C22.4814 17.3018 21.6377 16.502 20.8467 15.7461C20.2227 15.1396 20.082 13.874 19.9678 12.7051C19.8271 9.48828 18.8867 7.2207 16.6104 6.40332C16.25 5.24316 15.292 4.34668 13.9912 4.34668C12.6992 4.34668 11.7412 5.24316 11.3721 6.40332C9.10449 7.2207 8.15527 9.48828 8.02344 12.7051C7.90918 13.874 7.75977 15.1396 7.14453 15.7461C6.35352 16.502 5.50977 17.3018 5.50977 18.2334C5.50977 18.9717 6.06348 19.4639 6.96875 19.4639ZM13.9912 23.085C15.5557 23.085 16.6895 21.9688 16.8037 20.6943H11.1875C11.3018 21.9688 12.4355 23.085 13.9912 23.085Z" fill="#1C1C1E"/>
</svg>
