<svg width="28" height="28" viewBox="0 0 28 28" fill="none" xmlns="http://www.w3.org/2000/svg">
<path d="M13.9912 22.7422C18.9746 22.7422 23.0879 18.6289 23.0879 13.6543C23.0879 8.67969 18.9658 4.56641 13.9824 4.56641C9.00781 4.56641 4.90332 8.67969 4.90332 13.6543C4.90332 18.6289 9.0166 22.7422 13.9912 22.7422ZM13.9912 20.9316C9.95703 20.9316 6.73145 17.6885 6.73145 13.6543C6.73145 9.62012 9.95703 6.38574 13.9824 6.38574C18.0166 6.38574 21.2598 9.62012 21.2686 13.6543C21.2773 17.6885 18.0254 20.9316 13.9912 20.9316ZM11.9785 10.0244L18.4033 16.458C18.4824 16.3613 18.5352 16.2383 18.5352 16.0889C18.5352 15.5879 18.0869 15.166 17.6562 14.7529C17.3135 14.4189 17.252 13.7334 17.1904 13.1094C17.1289 11.3691 16.6104 10.1475 15.3887 9.69922C15.1865 9.0752 14.6768 8.60059 13.9824 8.60059C13.2881 8.60059 12.7783 9.0752 12.5762 9.69922C12.3389 9.77832 12.1455 9.88379 11.9785 10.0244ZM17.9375 18.2422C18.1045 18.4092 18.3945 18.4092 18.5615 18.2422C18.7373 18.0664 18.7373 17.7939 18.5615 17.6182L10.0273 9.08398C9.85156 8.9082 9.57031 8.9082 9.39453 9.08398C9.21875 9.25098 9.22754 9.53223 9.39453 9.70801L17.9375 18.2422ZM15.4326 16.7393L10.8447 12.1514C10.792 12.4854 10.7568 12.8369 10.748 13.2324C10.7041 13.7861 10.625 14.4277 10.3086 14.7529C9.88672 15.1748 9.4209 15.5879 9.4209 16.0889C9.4209 16.4756 9.71094 16.7393 10.1943 16.7393H15.4326ZM13.9824 18.7871C14.8174 18.7871 15.4326 18.1982 15.4854 17.4863H12.4795C12.5322 18.1982 13.1475 18.7871 13.9824 18.7871Z" fill="#1C1C1E"/>
</svg>
