<svg width="28" height="28" viewBox="0 0 28 28" fill="none" xmlns="http://www.w3.org/2000/svg">
<path d="M8.67383 21.8721H19.3174C21.2158 21.8721 22.2002 20.8877 22.2002 19.0156V8.31934C22.2002 6.43848 21.2158 5.46289 19.3174 5.46289H8.67383C6.77539 5.46289 5.79102 6.43848 5.79102 8.31934V19.0156C5.79102 20.8965 6.77539 21.8721 8.67383 21.8721ZM10.0889 16.8535C9.58789 16.8535 9.28906 16.5811 9.28906 16.1855C9.28906 15.667 9.76367 15.2275 10.2119 14.7881C10.5459 14.4453 10.625 13.7422 10.6777 13.1094C10.748 11.2812 11.2842 9.99805 12.5674 9.52344C12.7783 8.88184 13.2969 8.38086 14.0264 8.38086C14.7559 8.38086 15.2744 8.88184 15.4854 9.52344C16.7686 9.99805 17.3047 11.2812 17.375 13.1094C17.4277 13.7422 17.4893 14.4541 17.8408 14.7881C18.2891 15.2188 18.7637 15.667 18.7637 16.1855C18.7637 16.5811 18.4648 16.8535 17.9639 16.8535H10.0889ZM14.0264 18.9893C13.1562 18.9893 12.5234 18.374 12.4619 17.6357H15.5908C15.5293 18.374 14.8965 18.9893 14.0264 18.9893Z" fill="#1C1C1E"/>
</svg>
