<svg width="28" height="28" viewBox="0 0 28 28" fill="none" xmlns="http://www.w3.org/2000/svg">
<path d="M13.9912 22.7598C18.9746 22.7598 23.0879 18.6465 23.0879 13.6631C23.0879 8.68848 18.9658 4.5752 13.9824 4.5752C9.00781 4.5752 4.90332 8.68848 4.90332 13.6631C4.90332 18.6465 9.0166 22.7598 13.9912 22.7598ZM10.0625 16.8623C9.56152 16.8623 9.25391 16.5811 9.25391 16.1855C9.25391 15.6582 9.7373 15.2275 10.1768 14.7881C10.5195 14.4453 10.5898 13.7422 10.6514 13.0918C10.7217 11.2812 11.2578 10.0068 12.5322 9.54102C12.7432 8.89062 13.2705 8.39844 13.9912 8.39844C14.7207 8.39844 15.2393 8.89062 15.459 9.54102C16.7246 10.0068 17.2695 11.2812 17.3398 13.0918C17.4014 13.7422 17.4629 14.4453 17.8145 14.7881C18.2627 15.2188 18.7285 15.6582 18.7285 16.1855C18.7285 16.5811 18.4297 16.8623 17.9287 16.8623H10.0625ZM13.9912 18.998C13.1211 18.998 12.4883 18.374 12.4268 17.6357H15.5557C15.5029 18.374 14.8613 18.998 13.9912 18.998Z" fill="#1C1C1E"/>
</svg>
