<svg width="28" height="28" viewBox="0 0 28 28" fill="none" xmlns="http://www.w3.org/2000/svg">
<path d="M10.1592 7.05371L11.416 8.31055C11.6973 8.1084 12.0049 7.97656 12.3301 7.88867C12.5498 7.82715 12.6729 7.72168 12.6904 7.48438C12.7344 6.59668 13.2266 5.99902 13.9912 5.99902C14.7646 5.99902 15.2568 6.59668 15.3008 7.48438C15.3184 7.72168 15.4414 7.82715 15.6523 7.88867C17.085 8.27539 18.1924 9.49707 18.2803 13.1621C18.3418 14.1729 18.4297 14.8584 18.6934 15.4824L22.209 19.0684C22.4023 18.8574 22.5166 18.5762 22.5166 18.2598C22.5166 17.46 21.7959 16.7656 21.1016 16.1152C20.3633 15.3418 20.126 14.4453 20.0293 13.0039C19.9238 9.4707 18.9219 7.22949 16.6191 6.40332C16.2852 5.23438 15.3008 4.34668 13.9912 4.34668C12.6816 4.34668 11.7061 5.23438 11.3721 6.40332C10.915 6.56152 10.5107 6.78125 10.1592 7.05371ZM5.79102 6.22754L21.7695 22.1885C22.042 22.4697 22.499 22.4697 22.7627 22.1885C23.0264 21.916 23.0352 21.4766 22.7627 21.2041L6.78418 5.23438C6.51172 4.96191 6.06348 4.96191 5.79102 5.23438C5.51855 5.49805 5.51855 5.96387 5.79102 6.22754ZM13.9912 22.7949C15.8721 22.7949 17.208 21.4414 17.4189 19.8594H17.8848L15.96 17.9434H7.58398V17.8379C7.8125 17.583 8.32227 17.1172 8.75293 16.625C9.33301 15.9658 9.61426 14.8496 9.69336 13.25C9.71094 12.7139 9.75488 12.2305 9.81641 11.791L8.27832 10.2529C8.10254 10.9824 8.01465 11.8262 7.97949 12.7578C7.86523 13.9971 7.72461 15.21 7.0918 15.8164C6.29199 16.5811 5.43945 17.3809 5.43945 18.3213C5.43945 19.0771 6.00195 19.5781 6.9248 19.5781H10.5371C10.6074 21.2568 11.9873 22.7949 13.9912 22.7949ZM13.9912 21.3799C13.0068 21.3799 12.2861 20.668 12.2246 19.5781H15.7666C15.7051 20.668 14.9844 21.3799 13.9912 21.3799Z" fill="#1C1C1E"/>
</svg>
