<svg width="28" height="28" viewBox="0 0 28 28" fill="none" xmlns="http://www.w3.org/2000/svg">
<path d="M19.4316 11.6504C19.7217 11.6504 19.9502 11.4219 19.9502 11.1318V3.70508C19.9502 3.40625 19.7217 3.17773 19.4316 3.17773C19.1416 3.17773 18.9131 3.40625 18.9131 3.70508V11.1318C18.9131 11.4307 19.1328 11.6504 19.4316 11.6504ZM21.5146 10.6484C21.8135 10.6484 22.042 10.4199 22.042 10.1299V4.68945C22.042 4.39941 21.8135 4.17969 21.5146 4.17969C21.2334 4.17969 21.0049 4.4082 21.0049 4.68945V10.1299C21.0049 10.4199 21.2334 10.6484 21.5146 10.6484ZM6.97754 19.4023H21.0137C21.9102 19.4023 22.4639 18.9102 22.4639 18.1807C22.4639 17.2578 21.6113 16.458 20.8203 15.6934C20.3281 15.2012 20.1172 14.2344 20.0645 13.4082C20.0645 13.2588 20.0557 13.1182 20.0557 12.9775C19.8711 13.0654 19.6514 13.1094 19.4229 13.1094C18.5527 13.1094 17.8232 12.5557 17.5771 11.7822L17.542 11.6064C17.4805 11.6328 17.4014 11.6504 17.3311 11.6504C16.4258 11.6504 15.6436 11.0264 15.4326 10.1826L15.415 10.0508C15.3535 10.0684 15.292 10.0859 15.2305 10.0859C14.1406 10.0859 13.2617 9.19824 13.2617 8.1084V6.71094C13.2617 5.62109 14.1406 4.7334 15.2305 4.7334C15.2656 4.7334 15.3008 4.7334 15.3359 4.74219L15.3535 4.67188C14.958 4.43457 14.501 4.30273 13.9912 4.30273C12.6904 4.30273 11.7412 5.19043 11.3809 6.35059C9.0957 7.17676 8.15527 9.45312 8.03223 12.6875C7.92676 13.8389 7.77734 15.0957 7.16211 15.6934C6.37109 16.458 5.52734 17.2578 5.52734 18.1807C5.52734 18.9102 6.07227 19.4023 6.97754 19.4023ZM17.3311 10.1914C17.6299 10.1914 17.8584 9.96289 17.8584 9.66406V5.15527C17.8584 4.86523 17.6299 4.63672 17.3311 4.63672C17.041 4.63672 16.8213 4.86523 16.8213 5.15527V9.66406C16.8213 9.96289 17.0498 10.1914 17.3311 10.1914ZM23.624 9.08398C23.9141 9.08398 24.1338 8.86426 24.1338 8.56543V6.25391C24.1338 5.96387 23.9141 5.73535 23.624 5.73535C23.3252 5.73535 23.1055 5.97266 23.1055 6.25391V8.56543C23.1055 8.85547 23.3252 9.08398 23.624 9.08398ZM15.2305 8.62695C15.5293 8.62695 15.7578 8.39844 15.7578 8.1084V6.71094C15.7578 6.4209 15.5293 6.19238 15.2305 6.19238C14.9492 6.19238 14.7207 6.4209 14.7207 6.71094V8.1084C14.7207 8.39844 14.9492 8.62695 15.2305 8.62695ZM13.9912 23.0146C15.5469 23.0146 16.6719 21.9072 16.7949 20.624H11.1963C11.3105 21.9072 12.4443 23.0146 13.9912 23.0146Z" fill="#1C1C1E"/>
</svg>
