<svg width="28" height="28" viewBox="0 0 28 28" fill="none" xmlns="http://www.w3.org/2000/svg">
<path d="M13.9912 22.7422C18.9746 22.7422 23.0879 18.6289 23.0879 13.6543C23.0879 8.67969 18.9658 4.56641 13.9824 4.56641C9.00781 4.56641 4.90332 8.67969 4.90332 13.6543C4.90332 18.6289 9.0166 22.7422 13.9912 22.7422ZM13.9912 20.9316C9.95703 20.9316 6.73145 17.6885 6.73145 13.6543C6.73145 9.62012 9.95703 6.38574 13.9824 6.38574C18.0166 6.38574 21.2598 9.62012 21.2686 13.6543C21.2773 17.6885 18.0254 20.9316 13.9912 20.9316ZM10.1855 17.1172C11.4512 17.1172 12.4971 16.1416 12.6025 14.9023H13.4902C13.8418 14.9023 14.0088 14.8145 14.2021 14.5947L16.3467 12.0986L16.5488 12.6084C15.8457 13.0303 15.3799 13.8037 15.3799 14.6914C15.3799 16.0273 16.4609 17.1172 17.8057 17.1172C19.1416 17.1172 20.2314 16.0273 20.2314 14.6914C20.2314 13.3467 19.1416 12.2656 17.8057 12.2656C17.6035 12.2656 17.4102 12.2832 17.2256 12.3271L16.127 9.6377C16.0303 9.40918 15.8984 9.33008 15.6436 9.33008H14.5977C14.3867 9.33008 14.2109 9.49707 14.2109 9.70801C14.2109 9.91016 14.3779 10.0771 14.5977 10.0771H15.5293L16.0303 11.3252L12.8223 11.7383L12.3301 10.8506H12.6289C12.8311 10.8506 13.0068 10.6748 13.0068 10.4814C13.0068 10.2705 12.8398 10.1035 12.6289 10.1035H11.0117C10.8008 10.1035 10.6338 10.2705 10.6338 10.4814C10.6338 10.6836 10.8008 10.8506 11.0117 10.8506H11.4863L12.0928 11.9404L11.4863 12.6348C11.1084 12.3975 10.6689 12.2656 10.1855 12.2656C8.84961 12.2656 7.75977 13.3467 7.75977 14.6914C7.75977 16.0273 8.84961 17.1172 10.1855 17.1172ZM13.209 12.4326L15.4766 12.0371L13.9648 13.7773L13.209 12.4326ZM13.3496 14.1904H12.5586C12.4795 13.8037 12.3037 13.4434 12.0576 13.1445L12.4971 12.6611L13.3496 14.1904ZM10.1943 16.3613C9.2627 16.3613 8.51562 15.6143 8.51562 14.6738C8.51562 13.751 9.2627 13.0039 10.1943 13.0039C10.4844 13.0039 10.7568 13.0742 10.9854 13.2061L10.2207 14.085H10.1943C9.85156 14.085 9.58789 14.3486 9.58789 14.6738C9.58789 15.0166 9.85156 15.2803 10.1943 15.2803C10.5195 15.2803 10.7832 15.0166 10.7832 14.6738C10.7832 14.6387 10.7832 14.6035 10.7744 14.5684L11.5566 13.707C11.75 13.9795 11.8643 14.3135 11.8643 14.6738C11.8643 15.6143 11.1172 16.3613 10.1943 16.3613ZM17.8145 16.3613C16.8828 16.3613 16.1357 15.6143 16.1357 14.6738C16.1357 14.1113 16.4082 13.6104 16.8389 13.3115L17.2783 14.4014C17.2344 14.4893 17.208 14.5771 17.208 14.6738C17.208 15.0166 17.4717 15.2803 17.8145 15.2803C18.1396 15.2803 18.4033 15.0166 18.4033 14.6738C18.4033 14.4014 18.21 14.1641 17.9551 14.1025L17.5156 13.0303C17.6123 13.0127 17.709 13.0039 17.8145 13.0039C18.7373 13.0039 19.4844 13.751 19.4844 14.6738C19.4844 15.6143 18.7373 16.3613 17.8145 16.3613Z" fill="#1C1C1E"/>
</svg>
