<svg width="28" height="28" viewBox="0 0 28 28" fill="none" xmlns="http://www.w3.org/2000/svg">
<path d="M8.67383 21.8809H19.3174C21.2246 21.8809 22.209 20.8965 22.209 19.0156V8.31934C22.209 6.43848 21.2246 5.4541 19.3174 5.4541H8.67383C6.77539 5.4541 5.78223 6.42969 5.78223 8.31934V19.0156C5.78223 20.8965 6.77539 21.8809 8.67383 21.8809ZM8.78809 20.1318C7.97949 20.1318 7.53125 19.71 7.53125 18.8574V8.47754C7.53125 7.625 7.97949 7.20312 8.78809 7.20312H19.2031C20.0029 7.20312 20.46 7.625 20.46 8.47754V18.8574C20.46 19.71 20.0029 20.1318 19.2031 20.1318H8.78809ZM11.4424 16.9854C11.4424 17.46 11.75 17.7588 12.2158 17.7588H12.6289V18.4531C12.6289 18.6904 12.8047 18.8574 13.0332 18.8574C13.2705 18.8574 13.4463 18.6904 13.4463 18.4531V17.7588H14.0088V18.4531C14.0088 18.6904 14.1846 18.8574 14.4131 18.8574C14.6504 18.8574 14.8174 18.6904 14.8174 18.4531V17.7412C16.3115 17.6094 17.1992 16.7656 17.1992 15.4648C17.1992 14.5244 16.6104 13.7861 15.7314 13.5225C16.373 13.2148 16.8213 12.5381 16.8213 11.8086C16.8213 10.71 16.0566 9.93652 14.8174 9.78711V9.0752C14.8174 8.83789 14.6504 8.6709 14.4131 8.6709C14.1846 8.6709 14.0088 8.83789 14.0088 9.0752V9.76074H13.4463V9.0752C13.4463 8.83789 13.2705 8.6709 13.0332 8.6709C12.8047 8.6709 12.6289 8.83789 12.6289 9.0752V9.76074H12.2158C11.7588 9.76074 11.4424 10.0684 11.4424 10.5518V16.9854ZM12.7871 13.083V10.8945H14.1406C14.9932 10.8945 15.4854 11.2725 15.4854 11.9492C15.4854 12.6875 14.9316 13.1006 13.9297 13.0918L12.7871 13.083ZM12.7871 16.6162V14.1904H14.1494C15.2656 14.1904 15.8545 14.6035 15.8545 15.3945C15.8545 16.1943 15.292 16.6074 14.2285 16.6162H12.7871Z" fill="#1C1C1E"/>
</svg>
