<svg width="28" height="28" viewBox="0 0 28 28" fill="none" xmlns="http://www.w3.org/2000/svg">
<path d="M20.3281 20.6592C23.0703 20.6592 25.2324 18.6465 25.2324 16.1328C25.2324 14.2607 24.1689 12.5996 22.4199 11.8701C22.4287 7.89746 19.5635 5.03223 15.8809 5.03223C13.543 5.03223 11.7852 6.23633 10.6865 7.83594C8.4541 7.23828 6.10742 8.89941 6.01953 11.3779C4.00684 11.7383 2.76758 13.54 2.76758 15.7461C2.76758 18.418 5.10547 20.6504 8.18164 20.6504L20.3281 20.6592ZM20.3281 18.9014H8.19043C6.09863 18.9014 4.54297 17.4424 4.54297 15.7461C4.54297 13.9883 5.62402 12.6875 7.41699 12.6875C7.54883 12.6875 7.60156 12.6172 7.59277 12.4941C7.54004 9.88379 9.41211 8.9873 11.3018 9.58496C11.416 9.62012 11.4863 9.59375 11.5391 9.49707C12.4092 7.96777 13.6924 6.78125 15.8721 6.78125C18.6318 6.78125 20.6006 8.96973 20.7324 11.5273C20.7588 12.002 20.7236 12.5117 20.6885 12.9336C20.6709 13.0566 20.7236 13.127 20.8379 13.1445C22.4287 13.4521 23.457 14.5771 23.457 16.1328C23.457 17.6709 22.0947 18.9014 20.3281 18.9014ZM8.46289 15.1924C8.02344 15.7461 8.56836 16.291 9.13086 15.9922L11.9609 14.4805L15.5469 16.4229C15.7227 16.5283 15.8896 16.5811 16.0479 16.5811C16.2764 16.5811 16.4873 16.4668 16.6807 16.2207L19.5547 12.5469C19.959 12.0195 19.4668 11.4482 18.8779 11.7559L16.0391 13.2588L12.4531 11.3252C12.2773 11.2197 12.1104 11.167 11.9434 11.167C11.7236 11.167 11.5215 11.2812 11.3281 11.5186L8.46289 15.1924Z" fill="#1C1C1E"/>
</svg>
