<svg width="28" height="31" viewBox="0 0 28 31" fill="none" xmlns="http://www.w3.org/2000/svg">
<g filter="url(#filter0_d_610_1631)">
<path d="M14 22.7422C18.9658 22.7422 23.0791 18.6377 23.0791 13.6631C23.0791 8.69727 18.9658 4.58398 13.9912 4.58398C9.02539 4.58398 4.9209 8.69727 4.9209 13.6631C4.9209 18.6377 9.03418 22.7422 14 22.7422ZM9.0957 16.6338V14.2344C9.0957 13.54 9.22754 13.127 9.62305 12.6436L9.97461 12.1865C10.1328 11.4482 10.3965 10.6836 10.5371 10.3848C10.7568 9.91016 11.1963 9.62012 11.75 9.5498C12.0488 9.51465 12.9189 9.49707 14 9.49707C15.0723 9.49707 15.9512 9.51465 16.2412 9.5498C16.8037 9.62891 17.2344 9.91016 17.4629 10.3848C17.6035 10.6836 17.8672 11.4482 18.0254 12.1865L18.377 12.6436C18.7725 13.127 18.8955 13.54 18.8955 14.2344V16.6338C18.8955 16.9414 18.6582 17.1875 18.3418 17.1875H17.8496C17.542 17.1875 17.3047 16.9414 17.3047 16.6338V15.9395C16.3994 16.001 15.0811 16.0361 14 16.0361C12.9277 16.0361 11.6006 16.001 10.6953 15.9395V16.6338C10.6953 16.9414 10.4492 17.1875 10.1416 17.1875H9.64941C9.3418 17.1875 9.0957 16.9414 9.0957 16.6338ZM12.5059 13.0918C12.5059 13.1973 12.5938 13.2764 12.6992 13.2764H13.8154L13.2793 14.7266C13.165 15.0078 13.4727 15.166 13.6484 14.9287L15.4326 12.6699C15.4678 12.626 15.4941 12.5557 15.4941 12.5029C15.4941 12.3975 15.4062 12.3008 15.3008 12.3008L14.1934 12.3096L14.7383 10.8594C14.8438 10.5781 14.5449 10.4375 14.3691 10.666L12.5762 12.9336C12.5322 12.9775 12.5059 13.0391 12.5059 13.0918Z" fill="#1C1C1E"/>
</g>
<defs>
<filter id="filter0_d_610_1631" x="-4" y="0" width="36" height="36" filterUnits="userSpaceOnUse" color-interpolation-filters="sRGB">
<feFlood flood-opacity="0" result="BackgroundImageFix"/>
<feColorMatrix in="SourceAlpha" type="matrix" values="0 0 0 0 0 0 0 0 0 0 0 0 0 0 0 0 0 0 127 0" result="hardAlpha"/>
<feOffset dy="4"/>
<feGaussianBlur stdDeviation="2"/>
<feComposite in2="hardAlpha" operator="out"/>
<feColorMatrix type="matrix" values="0 0 0 0 0 0 0 0 0 0 0 0 0 0 0 0 0 0 0.25 0"/>
<feBlend mode="normal" in2="BackgroundImageFix" result="effect1_dropShadow_610_1631"/>
<feBlend mode="normal" in="SourceGraphic" in2="effect1_dropShadow_610_1631" result="shape"/>
</filter>
</defs>
</svg>
