<svg width="28" height="28" viewBox="0 0 28 28" fill="none" xmlns="http://www.w3.org/2000/svg">
<path d="M18.2188 15.3594L20.0732 13.0654C20.2314 12.8633 20.3193 12.6787 20.3193 12.4766C20.3193 12.1074 20.0381 11.8438 19.6426 11.8438L14.7207 11.7646L17.2256 4.63672C17.5684 3.66992 16.6016 3.16895 15.96 3.95117L11.873 9.02246L18.2188 15.3594ZM20.1875 20.8525C20.46 21.125 20.9082 21.125 21.1719 20.8525C21.4443 20.5889 21.4531 20.1318 21.1719 19.8594L7.62793 6.31543C7.36426 6.05176 6.89844 6.04297 6.63477 6.31543C6.37109 6.5791 6.37109 7.04492 6.63477 7.30859L20.1875 20.8525ZM11.8643 23.2256L15.9512 18.1631L9.60547 11.8174L7.75977 14.1113C7.60156 14.3047 7.51367 14.4893 7.51367 14.7002C7.51367 15.0605 7.79492 15.333 8.19043 15.333L13.1035 15.4033L10.6074 22.5312C10.2734 23.498 11.2314 23.999 11.8643 23.2256Z" fill="#1C1C1E"/>
</svg>
