<svg width="28" height="28" viewBox="0 0 28 28" fill="none" xmlns="http://www.w3.org/2000/svg">
<path d="M5.09668 11.1846C5.09668 14.9375 8.25195 18.6465 13.1562 21.8105C13.4287 21.9863 13.7627 22.1621 13.9912 22.1621C14.2197 22.1621 14.5537 21.9863 14.8262 21.8105C19.7393 18.6465 22.8857 14.9375 22.8857 11.1846C22.8857 7.94141 20.6445 5.69141 17.7705 5.69141C16.0918 5.69141 14.7822 6.45605 13.9912 7.61621C13.2178 6.46484 11.8994 5.69141 10.2207 5.69141C7.33789 5.69141 5.09668 7.94141 5.09668 11.1846ZM6.90723 11.1758C6.90723 8.96094 8.36621 7.45801 10.3262 7.45801C11.9082 7.45801 12.7959 8.41602 13.3496 9.25098C13.5957 9.61133 13.7627 9.72559 13.9912 9.72559C14.2285 9.72559 14.3779 9.60254 14.6328 9.25098C15.2305 8.43359 16.083 7.45801 17.6562 7.45801C19.625 7.45801 21.084 8.96094 21.084 11.1758C21.084 14.2695 17.8672 17.6973 14.1582 20.1582C14.0791 20.2109 14.0264 20.2461 13.9912 20.2461C13.9561 20.2461 13.9033 20.2109 13.833 20.1582C10.124 17.6973 6.90723 14.2695 6.90723 11.1758ZM11.2754 14.709C11.2754 14.876 11.416 15.0078 11.5918 15.0078H13.7012L12.5674 18.0049C12.4092 18.4355 12.875 18.6816 13.165 18.3301L16.6191 14.0234C16.6895 13.9443 16.7334 13.8477 16.7334 13.7598C16.7334 13.5928 16.584 13.4609 16.4082 13.4609H14.3076L15.4326 10.4727C15.5908 10.0332 15.125 9.78711 14.8438 10.1475L11.3809 14.4453C11.3105 14.5332 11.2754 14.6211 11.2754 14.709Z" fill="#1C1C1E"/>
</svg>
