<svg width="28" height="28" viewBox="0 0 28 28" fill="none" xmlns="http://www.w3.org/2000/svg">
<path d="M12.0137 9.08398L13.0859 10.1562L14.9053 7.74805L13.5869 10.6572L15.8721 12.9424H17.9639L17.0674 14.1289L18.1836 15.2539L20.1523 12.749C20.3105 12.5557 20.3896 12.3711 20.3896 12.1602C20.3896 11.791 20.1084 11.5273 19.7217 11.5273H14.7031L17.3047 4.63672C17.665 3.66992 16.6543 3.16016 16.0391 3.95117L12.0137 9.08398ZM20.2666 20.8525C20.5391 21.125 20.9873 21.125 21.251 20.8525C21.5234 20.5889 21.5322 20.1318 21.251 19.8594L7.70703 6.31543C7.44336 6.05176 6.97754 6.04297 6.71387 6.31543C6.4502 6.5791 6.4502 7.04492 6.71387 7.30859L20.2666 20.8525ZM7.59277 15.0166C7.59277 15.377 7.87402 15.6494 8.26074 15.6494H13.2881L10.6777 22.5312C10.3174 23.498 11.3281 24.0078 11.9434 23.2256L15.96 18.0928L14.8877 17.0293L13.0771 19.4199L14.3867 16.5195L12.0928 14.2344H10.0098L10.915 13.0479L9.79004 11.9229L7.83887 14.4189C7.68066 14.6211 7.59277 14.8057 7.59277 15.0166Z" fill="#1C1C1E"/>
</svg>
