<svg width="28" height="28" viewBox="0 0 28 28" fill="none" xmlns="http://www.w3.org/2000/svg">
<path d="M14 22.7334C18.9658 22.7334 23.0791 18.6289 23.0791 13.6543C23.0791 8.68848 18.9658 4.5752 13.9912 4.5752C9.02539 4.5752 4.9209 8.68848 4.9209 13.6543C4.9209 18.6289 9.03418 22.7334 14 22.7334ZM14 20.9492C9.95703 20.9492 6.71387 17.6973 6.71387 13.6543C6.71387 9.61133 9.94824 6.36816 13.9912 6.36816C18.0342 6.36816 21.2861 9.61133 21.2949 13.6543C21.2949 17.6973 18.043 20.9492 14 20.9492ZM9.28027 16.502C9.28027 16.8008 9.51758 17.0293 9.80762 17.0293H10.2822C10.5811 17.0293 10.8096 16.8008 10.8096 16.502V15.834C11.6885 15.8867 12.9717 15.9219 14 15.9219C15.0371 15.9219 16.3115 15.8867 17.1816 15.834V16.502C17.1816 16.8008 17.4189 17.0293 17.7178 17.0293H18.1836C18.4824 17.0293 18.7109 16.8008 18.7109 16.502V14.1992C18.7109 13.5137 18.5879 13.127 18.2188 12.6611L17.876 12.2217C17.7266 11.5098 17.4717 10.7715 17.3311 10.4814C17.1201 10.0244 16.6982 9.76074 16.1621 9.68164C15.8809 9.64648 15.0371 9.62012 14 9.62012C12.9629 9.62012 12.1191 9.64648 11.8379 9.68164C11.3018 9.75195 10.8799 10.0244 10.6602 10.4814C10.5283 10.7715 10.2734 11.5098 10.124 12.2217L9.78125 12.6611C9.41211 13.127 9.28027 13.5137 9.28027 14.1992V16.502ZM12.5586 13.0918C12.5586 13.0391 12.585 12.9863 12.6289 12.9336L14.3604 10.7451C14.5273 10.5342 14.8086 10.666 14.7031 10.9385L14.1846 12.3359H15.248C15.3535 12.3359 15.4414 12.415 15.4414 12.5205C15.4414 12.5732 15.415 12.6348 15.3799 12.6787L13.666 14.8584C13.4902 15.0781 13.1914 14.9287 13.2969 14.665L13.8242 13.2676H12.752C12.6465 13.2676 12.5586 13.1885 12.5586 13.0918Z" fill="#1C1C1E"/>
</svg>
