<svg width="28" height="28" viewBox="0 0 28 28" fill="none" xmlns="http://www.w3.org/2000/svg">
<path d="M13.9912 22.1621C14.2197 22.1621 14.5537 21.9863 14.8262 21.8105C19.7393 18.6465 22.8857 14.9375 22.8857 11.1846C22.8857 7.94141 20.6445 5.69141 17.8408 5.69141C16.0918 5.69141 14.7822 6.6582 13.9912 8.09961C13.2178 6.6582 11.8994 5.69141 10.1504 5.69141C7.33789 5.69141 5.09668 7.94141 5.09668 11.1846C5.09668 14.9375 8.25195 18.6465 13.1562 21.8105C13.4287 21.9863 13.7627 22.1621 13.9912 22.1621ZM11.1611 14.7441C11.1611 14.6475 11.2051 14.5596 11.2842 14.4717L14.8701 9.99805C15.1689 9.62891 15.6611 9.88379 15.4854 10.332L14.3252 13.4434H16.5137C16.6895 13.4434 16.8477 13.584 16.8477 13.7598C16.8477 13.8564 16.8037 13.9531 16.7158 14.0322L13.1299 18.5059C12.8311 18.875 12.3389 18.6201 12.5146 18.1631L13.6836 15.0518H11.4951C11.3105 15.0518 11.1611 14.9199 11.1611 14.7441Z" fill="#1C1C1E"/>
</svg>
