<svg width="28" height="28" viewBox="0 0 28 28" fill="none" xmlns="http://www.w3.org/2000/svg">
<path d="M14 22.7422C18.9658 22.7422 23.0791 18.6377 23.0791 13.6631C23.0791 8.69727 18.9658 4.58398 13.9912 4.58398C9.02539 4.58398 4.9209 8.69727 4.9209 13.6631C4.9209 18.6377 9.03418 22.7422 14 22.7422ZM15.9512 8.23145L14.3955 12.3887L12.7432 10.7363L15.1162 7.77441C15.5205 7.27344 16.1709 7.61621 15.9512 8.23145ZM18.1221 18.4355L9.22754 9.54102C9.05176 9.36523 9.05176 9.06641 9.22754 8.89941C9.41211 8.71484 9.70215 8.71484 9.88672 8.89941L18.7725 17.7939C18.957 17.9697 18.957 18.251 18.7725 18.4355C18.5967 18.6113 18.2979 18.6025 18.1221 18.4355ZM14.5449 12.5293H17.3398C17.5859 12.5293 17.7881 12.7051 17.7881 12.96C17.7881 13.0742 17.7266 13.2061 17.6387 13.3291L16.6104 14.6035L14.5449 12.5293ZM13.2793 14.6123H10.5635C10.3086 14.6123 10.1064 14.4277 10.1064 14.1816C10.1064 14.0586 10.168 13.9355 10.2646 13.8037L11.249 12.582L13.2793 14.6123ZM15.1162 16.4492L12.7256 19.4375C12.3213 19.9297 11.6621 19.5869 11.8906 18.9717L13.4463 14.7793L15.1162 16.4492Z" fill="#1C1C1E"/>
</svg>
