<svg width="28" height="28" viewBox="0 0 28 28" fill="none" xmlns="http://www.w3.org/2000/svg">
<path d="M6.46777 21.8545H21.5234C23.4219 21.8545 24.4062 20.8789 24.4062 19.0068V10.6045C24.4062 8.72363 23.4219 7.74805 21.5234 7.74805H20.4688V6.64941C20.4688 5.89355 20.0293 5.4541 19.2822 5.4541H16.8301C16.0742 5.4541 15.6436 5.89355 15.6436 6.64941V7.74805H12.3301V6.64941C12.3301 5.89355 11.8994 5.4541 11.1436 5.4541H8.69141C7.93555 5.4541 7.50488 5.89355 7.50488 6.64941V7.74805H6.46777C4.56934 7.74805 3.58496 8.72363 3.58496 10.6045V19.0068C3.58496 20.8789 4.56934 21.8545 6.46777 21.8545ZM6.57324 20.1318C5.75586 20.1318 5.30762 19.71 5.30762 18.8574V10.7539C5.30762 9.89258 5.75586 9.4707 6.57324 9.4707H21.418C22.2266 9.4707 22.6836 9.89258 22.6836 10.7539V18.8574C22.6836 19.71 22.2266 20.1318 21.418 20.1318H6.57324ZM11.2666 15.3506C11.2666 15.5176 11.4072 15.6406 11.5742 15.6406H13.6924L12.5586 18.6465C12.4004 19.0859 12.8662 19.3232 13.1562 18.9717L16.6104 14.665C16.6807 14.5859 16.7246 14.4893 16.7246 14.4014C16.7246 14.2256 16.584 14.1025 16.4082 14.1025H14.2988L15.4238 11.0967C15.582 10.6572 15.1162 10.4199 14.835 10.7715L11.3721 15.0869C11.3018 15.1748 11.2666 15.2627 11.2666 15.3506Z" fill="#1C1C1E"/>
</svg>
