<svg width="28" height="28" viewBox="0 0 28 28" fill="none" xmlns="http://www.w3.org/2000/svg">
<path d="M15.6875 23.1816H17.8848C18.7637 23.1816 19.2295 22.6982 19.2295 21.8369V9.99805L20.5654 22.0303C20.6533 22.8916 21.1631 23.3311 22.0332 23.2256L24.7842 22.8564C25.6543 22.751 26.0586 22.2412 25.9707 21.3799L24.4062 7.23828C24.3184 6.37695 23.8086 5.9375 22.9385 6.04297L20.1787 6.41211C19.748 6.45605 19.4316 6.61426 19.2295 6.86035V4.98828C19.2295 4.12695 18.7637 3.64355 17.8848 3.64355H15.6875C14.8174 3.64355 14.3516 4.12695 14.3516 4.98828V21.8369C14.3516 22.6982 14.8174 23.1816 15.6875 23.1816ZM3.34766 23.1816H4.80664C5.68555 23.1816 6.15137 22.6982 6.15137 21.8369V7.4668C6.15137 6.60547 5.68555 6.12207 4.80664 6.12207H3.34766C2.46875 6.12207 2.00293 6.60547 2.00293 7.4668V21.8369C2.00293 22.6982 2.46875 23.1816 3.34766 23.1816ZM8.5332 23.1816H11.9609C12.8398 23.1816 13.3057 22.6982 13.3057 21.8369V10.5869C13.3057 9.72559 12.8398 9.25098 11.9609 9.25098H8.5332C7.66309 9.25098 7.19727 9.72559 7.19727 10.5869V21.8369C7.19727 22.6982 7.66309 23.1816 8.5332 23.1816ZM9.22754 12.5381C8.88477 12.5381 8.62988 12.2744 8.62988 11.9404C8.62988 11.6152 8.88477 11.3604 9.22754 11.3604H11.293C11.627 11.3604 11.8818 11.6152 11.8818 11.9404C11.8818 12.2744 11.627 12.5381 11.293 12.5381H9.22754ZM9.22754 21.0723C8.88477 21.0723 8.62988 20.8174 8.62988 20.4834C8.62988 20.1494 8.88477 19.8945 9.22754 19.8945H11.293C11.627 19.8945 11.8818 20.1494 11.8818 20.4834C11.8818 20.8174 11.627 21.0723 11.293 21.0723H9.22754Z" fill="#1C1C1E"/>
</svg>
