<svg width="28" height="28" viewBox="0 0 28 28" fill="none" xmlns="http://www.w3.org/2000/svg">
<path d="M13.9912 22.7598C18.9746 22.7598 23.0879 18.6465 23.0879 13.6631C23.0879 8.68848 18.9658 4.5752 13.9824 4.5752C9.00781 4.5752 4.90332 8.68848 4.90332 13.6631C4.90332 18.6465 9.0166 22.7598 13.9912 22.7598ZM11.3809 18.4795C11.0293 18.4795 10.792 18.2246 10.792 17.8203V10.2705C10.792 9.37402 11.2754 8.89062 12.1719 8.89062H15.8018C16.6982 8.89062 17.1816 9.37402 17.1816 10.2705V17.8203C17.1816 18.2246 16.9531 18.4795 16.5928 18.4795C16.3467 18.4795 16.1973 18.3477 15.8105 17.9697L14.0264 16.2119C14.0088 16.1855 13.9648 16.1855 13.9473 16.2119L12.1631 17.9697C11.7764 18.3477 11.627 18.4795 11.3809 18.4795Z" fill="#1C1C1E"/>
</svg>
