<svg width="28" height="28" viewBox="0 0 28 28" fill="none" xmlns="http://www.w3.org/2000/svg">
<path d="M9.5791 20.7207C11.1172 20.7207 12.1807 21.2744 12.6553 21.5996C12.8223 21.6875 13.2617 21.96 13.376 21.9863V7.37891C12.7168 6.23633 10.915 5.33984 9.07812 5.33984C6.64355 5.33984 4.65723 6.71094 4.13867 7.74805V21.0283C4.14746 21.8105 4.58691 22.127 5.13184 22.127C5.53613 22.127 5.79102 21.9863 6.06348 21.7754C6.62598 21.3184 7.91797 20.7207 9.5791 20.7207ZM18.4209 20.7207C20.082 20.7207 21.3652 21.3184 21.9277 21.7754C22.2002 21.9863 22.4551 22.127 22.8506 22.127C23.3955 22.127 23.8525 21.8105 23.8525 21.0283V7.74805C23.334 6.71094 21.3477 5.33984 18.9219 5.33984C17.085 5.33984 15.2744 6.23633 14.624 7.37891V22.0039C14.7295 21.9775 15.1689 21.6963 15.3447 21.5996C15.8193 21.2744 16.8828 20.7207 18.4209 20.7207Z" fill="#1C1C1E"/>
</svg>
