<svg width="28" height="28" viewBox="0 0 28 28" fill="none" xmlns="http://www.w3.org/2000/svg">
<path d="M19.8975 21.2744C20.0645 22.7158 20.8379 23.3926 22.2881 23.208L23.9844 23.0146C25.4346 22.8301 26.0586 22.0479 25.9004 20.6064L24.4854 7.80078C24.3271 6.35938 23.5361 5.67383 22.0947 5.86719L20.3984 6.06055C20.0205 6.10449 19.7041 6.19238 19.4404 6.32422V5.83203C19.4404 4.38184 18.7197 3.64355 17.2695 3.64355H14.9141C13.4551 3.64355 12.7344 4.38184 12.7344 5.83203V9.27734C12.585 9.25977 12.4268 9.25098 12.251 9.25098H8.19043C8.01465 9.25098 7.84766 9.25977 7.69824 9.27734V8.31934C7.69824 6.86035 6.97754 6.12207 5.52734 6.12207H4.24414C2.78516 6.12207 2.06445 6.86035 2.06445 8.31934V20.9932C2.06445 22.4434 2.78516 23.1816 4.24414 23.1816H17.2695C18.7197 23.1816 19.4404 22.4434 19.4404 20.9932V17.1787L19.8975 21.2744ZM15.1689 5.32227H17.0146C17.5156 5.32227 17.7617 5.58594 17.7617 6.06055V20.7559C17.7617 21.2393 17.5156 21.5029 17.0146 21.5029H14.4219V6.06055C14.4219 5.58594 14.668 5.32227 15.1689 5.32227ZM21.541 20.8613L20.1699 8.5127C20.1172 8.03809 20.3369 7.77441 20.8291 7.7041L22.0156 7.56348C22.5078 7.49316 22.7891 7.73926 22.8418 8.20508L24.2129 20.5537C24.2656 21.0371 24.0459 21.3008 23.5537 21.3711L22.3584 21.5117C21.8662 21.582 21.5938 21.3447 21.541 20.8613ZM4.49023 21.5029C3.99805 21.5029 3.74316 21.2393 3.74316 20.7559V8.53906C3.74316 8.06445 3.99805 7.80957 4.49023 7.80957H5.26367C5.77344 7.80957 6.01074 8.06445 6.01074 8.53906V21.5029H4.49023ZM8.44531 10.9297H11.9873C12.4971 10.9297 12.7344 11.1846 12.7344 11.6592V21.5029H7.69824V11.6592C7.69824 11.1846 7.94434 10.9297 8.44531 10.9297ZM8.99023 13.1445H11.4775C11.7939 13.1445 12.04 12.8896 12.04 12.5732C12.04 12.2568 11.7939 12.0107 11.4775 12.0107H8.99023C8.65625 12.0107 8.41895 12.2568 8.41895 12.5732C8.41895 12.8896 8.66504 13.1445 8.99023 13.1445ZM8.99023 20.4307H11.4775C11.7939 20.4307 12.04 20.1758 12.04 19.8506C12.04 19.543 11.7939 19.2881 11.4775 19.2881H8.99023C8.66504 19.2881 8.41895 19.543 8.41895 19.8506C8.41895 20.1758 8.65625 20.4307 8.99023 20.4307Z" fill="#1C1C1E"/>
</svg>
