<svg width="28" height="28" viewBox="0 0 28 28" fill="none" xmlns="http://www.w3.org/2000/svg">
<path d="M13.9912 22.7422C18.9746 22.7422 23.0879 18.6289 23.0879 13.6543C23.0879 8.67969 18.9658 4.56641 13.9824 4.56641C9.00781 4.56641 4.90332 8.67969 4.90332 13.6543C4.90332 18.6289 9.0166 22.7422 13.9912 22.7422ZM13.9912 20.9316C9.95703 20.9316 6.73145 17.6885 6.73145 13.6543C6.73145 9.62012 9.95703 6.38574 13.9824 6.38574C18.0166 6.38574 21.2598 9.62012 21.2686 13.6543C21.2773 17.6885 18.0254 20.9316 13.9912 20.9316ZM11.4688 18.2861C11.7148 18.2861 11.8555 18.1631 12.2334 17.8027L13.9473 16.0977C13.9648 16.0713 14.0088 16.0713 14.0264 16.0977L15.749 17.8027C16.1182 18.1631 16.2588 18.2861 16.5049 18.2861C16.8389 18.2861 17.0586 18.0488 17.0586 17.6621V10.4023C17.0586 9.53223 16.6016 9.06641 15.7402 9.06641H12.2334C11.3721 9.06641 10.915 9.53223 10.915 10.4023V17.6621C10.915 18.0488 11.1348 18.2861 11.4688 18.2861Z" fill="#1C1C1E"/>
</svg>
