<svg width="28" height="28" viewBox="0 0 28 28" fill="none" xmlns="http://www.w3.org/2000/svg">
<path d="M14 22.7334C18.9658 22.7334 23.0791 18.6289 23.0791 13.6543C23.0791 8.68848 18.9658 4.5752 13.9912 4.5752C9.02539 4.5752 4.9209 8.68848 4.9209 13.6543C4.9209 18.6289 9.03418 22.7334 14 22.7334ZM14 20.9492C9.95703 20.9492 6.71387 17.6973 6.71387 13.6543C6.71387 9.61133 9.94824 6.36816 13.9912 6.36816C18.0342 6.36816 21.2861 9.61133 21.2949 13.6543C21.2949 17.6973 18.043 20.9492 14 20.9492ZM11.7236 18.2598H17.2344C17.4629 18.2598 17.6387 18.0752 17.6387 17.8555C17.6387 17.6621 17.5068 17.5127 17.3574 17.4512C16.8389 17.2139 16.7422 16.5107 17.2607 16.0186C17.4717 15.8252 17.6387 15.6055 17.6387 15.1836V10.4639C17.6387 9.54102 17.1641 9.05762 16.2588 9.05762H11.7412C10.8271 9.05762 10.3613 9.53223 10.3613 10.4639V16.8711C10.3613 17.7852 10.8271 18.2598 11.7236 18.2598ZM11.6621 15.4473C11.5215 15.4473 11.3984 15.333 11.3984 15.166V10.0947C11.3984 9.93652 11.5215 9.82227 11.6621 9.82227C11.8203 9.82227 11.9434 9.94531 11.9434 10.0947V15.166C11.9434 15.333 11.8203 15.4473 11.6621 15.4473ZM11.8379 17.4512C11.3984 17.4512 11.1611 17.1963 11.1611 16.8096C11.1611 16.4404 11.4336 16.1768 11.8643 16.1768H16.1094C16.1445 16.1768 16.1797 16.1768 16.2148 16.1768C16.0391 16.6074 16.0566 17.0645 16.25 17.4512H11.8379Z" fill="#1C1C1E"/>
</svg>
