<svg width="28" height="28" viewBox="0 0 28 28" fill="none" xmlns="http://www.w3.org/2000/svg">
<path d="M15.5205 25.2383C19.1416 25.2383 21.3213 23.9375 21.3213 21.7666V17.0029C22.8418 15.667 23.7295 13.5312 23.7295 11.167C23.7295 5.67383 20.1699 2.01758 14.8262 2.01758C9.50879 2.01758 5.9668 5.59473 5.9668 10.9736C5.9668 11.2725 5.97559 11.5273 6.00195 11.7734L4.73633 14.041C4.41113 14.6123 4.26172 15.1572 4.26172 15.667C4.26172 16.6338 4.86816 17.416 5.9668 17.6445V19.4287C5.9668 21.2305 7.20605 22.127 8.92871 21.9424L9.80762 21.8457C9.86035 23.9727 11.9961 25.2383 15.5205 25.2383ZM15.5205 23.542C12.9541 23.542 11.416 22.751 11.416 21.4766V20.2725C11.416 20.0703 11.293 19.9736 11.0996 19.9912L8.72656 20.2461C8.03223 20.3252 7.66309 20.0264 7.66309 19.2969V16.502C7.66309 16.3613 7.55762 16.2646 7.4082 16.2646H6.9248C6.3623 16.2646 6.03711 15.9834 6.03711 15.5439C6.03711 15.3154 6.11621 15.043 6.27441 14.7705L7.75098 12.1162C7.68945 11.7207 7.6543 11.334 7.6543 10.9473C7.6543 6.60547 10.5195 3.71387 14.8262 3.71387C19.1504 3.71387 22.0332 6.69336 22.0332 11.167C22.0332 13.3467 21.1191 15.2363 19.6162 16.1504V21.4766C19.6162 22.751 18.0781 23.542 15.5205 23.542ZM9.02539 9.53223C9.02539 11.2109 10.1855 12.3535 11.917 12.3535C12.1543 12.3535 12.374 12.3359 12.585 12.292C13.1123 12.749 13.8682 13.0127 14.6943 13.0127C15.0107 13.0127 15.3535 12.9775 15.6875 12.8896C16.0215 13.2236 16.5225 13.417 17.1113 13.417H17.3311C17.4893 14.2959 18.0605 14.8936 18.7812 14.8936C19.8184 14.8936 20.5566 13.7422 20.5566 12.1074C20.5566 11.6768 20.5391 11.3428 20.5127 11.0439C20.8115 10.6572 20.9785 10.1475 20.9785 9.55859C20.9785 8.38965 20.2051 7.47559 19.0273 7.2207C18.7725 6.19238 17.8848 5.4541 16.8037 5.4541C16.7246 5.4541 16.6191 5.47168 16.5137 5.48926C16.127 5.05859 15.5469 4.79492 14.9229 4.79492C14.2373 4.79492 13.6396 5.0498 13.2266 5.47168C12.9189 5.34863 12.6025 5.28711 12.2686 5.28711C11.0908 5.28711 10.2031 6.0957 10.2031 7.19434V7.20312C9.47363 7.73047 9.02539 8.60938 9.02539 9.53223ZM12.585 7.0625C12.5762 7.35254 12.7783 7.56348 13.0596 7.56348C13.3408 7.56348 13.5254 7.37891 13.543 7.09766C13.5693 6.30664 14.1406 5.75293 14.9229 5.75293C15.3799 5.75293 15.793 5.99902 15.96 6.37695C16.0303 6.50879 16.1709 6.51758 16.373 6.46484C16.4785 6.43848 16.5928 6.4209 16.7158 6.4209C17.5156 6.42969 18.1309 7.04492 18.1309 7.85352C18.1309 9.86621 15.2041 9.56738 15.2041 11.7207C15.2041 11.8174 15.2129 11.9141 15.2305 12.0107C15.0811 12.0371 14.9229 12.0459 14.7734 12.0459C14.4043 12.0459 14.0439 11.9668 13.7451 11.835C14.3955 11.3955 14.7822 10.6836 14.7822 9.81348C14.7822 9.76074 14.7734 9.70801 14.7734 9.65527C15.7051 9.36523 16.1973 8.68848 16.1885 7.65137C16.1885 7.39648 15.96 7.16797 15.6963 7.16797C15.4414 7.16797 15.2217 7.3877 15.2305 7.65137C15.2393 8.24023 15.0107 8.58301 14.5098 8.73242C14.4131 8.57422 14.2988 8.43359 14.1582 8.31934C13.9736 8.16113 13.8506 8.09961 13.6748 8.09961C13.4023 8.09961 13.209 8.28418 13.209 8.53906C13.209 8.82031 13.3584 8.89941 13.5693 9.09277C13.7363 9.25098 13.8242 9.49707 13.8242 9.7959C13.8242 10.7539 13.0771 11.3867 11.9346 11.3867C10.7568 11.3867 9.9834 10.6572 9.9834 9.53223C9.9834 9.04004 10.168 8.57422 10.4932 8.23145C10.8184 8.72363 11.3896 9.01367 12.1016 9.01367C12.3564 9.01367 12.585 8.79395 12.585 8.53906C12.585 8.27539 12.3652 8.05566 12.1016 8.05566C11.5391 8.05566 11.1699 7.71289 11.1699 7.19434C11.1699 6.64062 11.627 6.24512 12.2598 6.24512C12.4092 6.24512 12.5674 6.27148 12.7168 6.31543C12.6377 6.54395 12.5938 6.79004 12.585 7.0625ZM17.8408 11.4307C17.8408 11.6855 18.0342 11.8877 18.3066 11.9141C18.7812 11.9492 19.2119 11.8789 19.5811 11.7383C19.5898 11.8438 19.5898 11.9668 19.5898 12.0986C19.5898 13.1621 19.2207 13.9355 18.7812 13.9355C18.3945 13.9355 18.1309 13.4434 18.1309 12.7402C18.1309 12.6084 18.0342 12.5381 17.9111 12.5381C17.7969 12.5381 17.6562 12.5469 17.5244 12.5469C16.6367 12.5469 16.1797 12.2568 16.1797 11.6943C16.1797 10.2617 18.8428 10.543 19.0889 8.20508C19.6602 8.37207 20.0117 8.87305 20.0117 9.55859C20.0117 10.4727 19.3438 11.0352 18.3242 10.9561C18.0605 10.9385 17.8408 11.167 17.8408 11.4307Z" fill="#1C1C1E"/>
</svg>
