<svg width="28" height="28" viewBox="0 0 28 28" fill="none" xmlns="http://www.w3.org/2000/svg">
<path d="M10.4756 7.13281V7.99414H17.5244V7.13281C17.5244 6.7373 17.252 6.48242 16.8125 6.48242H11.1787C10.748 6.48242 10.4756 6.7373 10.4756 7.13281ZM13.9912 13.3115C10.5371 13.3115 7.24121 12.7842 4.04199 11.4482V10.8066C4.04199 8.95215 5.00879 7.99414 6.88086 7.99414H8.64746V7.05371C8.64746 5.64746 9.55273 4.8125 11.0645 4.8125H16.9268C18.4385 4.8125 19.3438 5.64746 19.3438 7.05371V7.99414H21.1104C22.9912 7.99414 23.9492 8.95215 23.9492 10.8066V11.4482C20.75 12.7842 17.4541 13.3115 13.9912 13.3115ZM6.88086 22.1973C5.00879 22.1973 4.04199 21.248 4.04199 19.3848V13.1182C6.71387 14.0938 9.12207 14.5508 11.5566 14.7354V15.4297C11.5566 16.0977 11.9434 16.4668 12.6201 16.4668H15.3623C16.0479 16.4668 16.4346 16.0977 16.4346 15.4297V14.7354C18.8691 14.5508 21.2773 14.0938 23.9492 13.1182V19.3848C23.9492 21.248 22.9912 22.1973 21.1104 22.1973H6.88086Z" fill="#1C1C1E"/>
</svg>
