<svg width="28" height="28" viewBox="0 0 28 28" fill="none" xmlns="http://www.w3.org/2000/svg">
<path d="M14 22.7422C18.9658 22.7422 23.0791 18.6377 23.0791 13.6631C23.0791 8.69727 18.9658 4.58398 13.9912 4.58398C9.02539 4.58398 4.9209 8.69727 4.9209 13.6631C4.9209 18.6377 9.03418 22.7422 14 22.7422ZM8.92871 12.1602V11.8438C8.92871 10.8945 9.41211 10.4199 10.3701 10.4199H11.2666V9.94531C11.2666 9.22461 11.7412 8.78516 12.4971 8.78516H15.5205C16.2764 8.78516 16.751 9.22461 16.751 9.94531V10.4199H17.6475C18.6055 10.4199 19.0889 10.8945 19.0889 11.8438V12.1602C17.4365 12.8457 15.7754 13.1006 14.0088 13.1006C12.2422 13.1006 10.5811 12.8457 8.92871 12.1602ZM12.207 10.4199H15.8105V9.98926C15.8105 9.77832 15.6699 9.65527 15.4502 9.65527H12.5586C12.3389 9.65527 12.207 9.77832 12.207 9.98926V10.4199ZM8.92871 16.2295V13.0303C10.291 13.5312 11.5127 13.7598 12.7695 13.8477V14.1992C12.7695 14.5332 12.9717 14.7266 13.2969 14.7266H14.7207C15.0459 14.7266 15.2393 14.5332 15.2393 14.1992V13.8477C16.5049 13.7598 17.7266 13.5312 19.0889 13.0303V16.2295C19.0889 17.1875 18.6055 17.6621 17.6475 17.6621H10.3701C9.41211 17.6621 8.92871 17.1875 8.92871 16.2295Z" fill="#1C1C1E"/>
</svg>
