<svg width="28" height="28" viewBox="0 0 28 28" fill="none" xmlns="http://www.w3.org/2000/svg">
<path d="M14 22.7422C18.9658 22.7422 23.0791 18.6377 23.0791 13.6631C23.0791 8.69727 18.9658 4.58398 13.9912 4.58398C9.02539 4.58398 4.9209 8.69727 4.9209 13.6631C4.9209 18.6377 9.03418 22.7422 14 22.7422ZM11.7764 18.8574C11.5127 18.8574 11.3545 18.6729 11.3545 18.3828V17.126H11.1699C9.9043 17.126 9.14844 16.3613 9.14844 15.0605V11.6592C9.14844 10.376 9.88672 9.61133 11.1963 9.61133H16.8125C18.1133 9.61133 18.8604 10.376 18.8604 11.6592V15.0605C18.8604 16.3613 18.1133 17.126 16.8125 17.126H13.9121L12.3037 18.5762C12.084 18.7783 11.9521 18.8574 11.7764 18.8574Z" fill="#1C1C1E"/>
</svg>
