<svg width="28" height="28" viewBox="0 0 28 28" fill="none" xmlns="http://www.w3.org/2000/svg">
<path d="M6.88086 22.5752C7.25 22.5752 7.52246 22.4082 7.96191 22.0039L10.4492 19.71C9.95703 19.3057 9.53516 18.6465 9.53516 17.2666V11.123C9.53516 8.35449 11.2314 6.69336 13.9912 6.69336H20.3018L20.293 6.4209C20.1348 4.66309 18.9658 3.49414 16.8916 3.49414H4.68359C2.58301 3.49414 1.25586 4.71582 1.25586 6.86035V15.6494C1.25586 17.7676 2.56543 19.0771 4.62207 19.0771H6.03711V21.626C6.03711 22.2061 6.35352 22.5752 6.88086 22.5752ZM21.6201 23.832C22.1475 23.832 22.4551 23.4629 22.4551 22.8828V20.334H23.3691C25.4346 20.334 26.7441 19.0244 26.7441 16.9062V11.3428C26.7441 9.19824 25.417 7.97656 23.3164 7.97656H14.2461C12.0664 7.97656 10.8184 9.19824 10.8184 11.3691V16.9062C10.8184 19.042 12.0752 20.334 14.2461 20.334H17.3047L20.5391 23.2607C20.9785 23.6562 21.251 23.832 21.6201 23.832ZM18.8164 15.3154C18.3682 15.3154 18.1221 15.0605 18.1045 14.6123L17.9902 11.4482C17.9727 10.9824 18.3242 10.6572 18.8076 10.6572C19.291 10.6572 19.6426 10.9912 19.625 11.4482L19.5107 14.6123C19.4932 15.0693 19.2471 15.3154 18.8164 15.3154ZM18.8076 18.1543C18.3066 18.1543 17.8848 17.8027 17.8848 17.293C17.8848 16.792 18.2979 16.4316 18.8076 16.4316C19.3086 16.4316 19.7217 16.7832 19.7217 17.293C19.7217 17.8115 19.3086 18.1543 18.8076 18.1543Z" fill="#1C1C1E"/>
</svg>
