<svg width="28" height="28" viewBox="0 0 28 28" fill="none" xmlns="http://www.w3.org/2000/svg">
<path d="M14.0176 23.5332C14.5361 23.5332 14.9229 23.2783 15.3359 22.6104L16.918 20.0264H19.5986C22.2441 20.0264 23.7295 18.4971 23.7295 15.8867V9.05762C23.7295 6.44727 22.2441 4.91797 19.5986 4.91797H8.39258C5.75586 4.91797 4.26172 6.44727 4.26172 9.05762V15.8867C4.26172 18.5059 5.75586 20.0264 8.39258 20.0264H11.1084L12.6992 22.6104C13.1035 23.2783 13.499 23.5332 14.0176 23.5332ZM14.0176 21.7666L12.5059 19.0068C12.1982 18.4268 11.9609 18.2686 11.3193 18.2686H8.4541C6.80176 18.2686 6.01074 17.4336 6.01074 15.834V9.11035C6.01074 7.51074 6.80176 6.67578 8.4541 6.67578H19.5459C21.1895 6.67578 21.9805 7.51074 21.9805 9.11035V15.834C21.9805 17.4336 21.1895 18.2686 19.5459 18.2686H16.7158C16.0654 18.2686 15.8193 18.4268 15.5117 19.0068L14.0176 21.7666Z" fill="#1C1C1E"/>
</svg>
