<svg width="28" height="28" viewBox="0 0 28 28" fill="none" xmlns="http://www.w3.org/2000/svg">
<path d="M14 22.7334C18.9658 22.7334 23.0791 18.6289 23.0791 13.6543C23.0791 8.68848 18.9658 4.5752 13.9912 4.5752C9.02539 4.5752 4.9209 8.68848 4.9209 13.6543C4.9209 18.6289 9.03418 22.7334 14 22.7334ZM9.28027 11.2021C9.28027 11.0439 9.35938 10.9033 9.54395 10.8066L13.4111 8.58301C13.6045 8.46875 13.7979 8.40723 13.9912 8.40723C14.1934 8.40723 14.3867 8.46875 14.5801 8.58301L18.4473 10.8066C18.6318 10.9033 18.7197 11.0439 18.7197 11.2021C18.7197 11.4219 18.5527 11.624 18.2715 11.624H9.71973C9.44727 11.624 9.28027 11.4219 9.28027 11.2021ZM9.83398 16.2998V16.1943C9.83398 15.9922 9.96582 15.8604 10.1768 15.8604H10.3789V12.96H10.1768C9.96582 12.96 9.83398 12.8369 9.83398 12.626V12.5205C9.83398 12.3008 9.96582 12.1777 10.1855 12.1777H11.3105C11.5215 12.1777 11.6533 12.3008 11.6533 12.5205V12.626C11.6533 12.8369 11.5303 12.96 11.3105 12.96H11.126V15.8604H11.3105C11.5303 15.8604 11.6533 15.9922 11.6533 16.1943V16.2998C11.6533 16.5195 11.5303 16.6514 11.3105 16.6514H10.1855C9.96582 16.6514 9.83398 16.5107 9.83398 16.2998ZM12.0225 16.2998V16.1943C12.0225 15.9922 12.1455 15.8604 12.3564 15.8604H12.5498V12.96H12.3564C12.1455 12.96 12.0225 12.8369 12.0225 12.626V12.5205C12.0225 12.3008 12.1543 12.1777 12.3564 12.1777H13.4814C13.7012 12.1777 13.8418 12.3008 13.8418 12.5205V12.626C13.8418 12.8369 13.71 12.96 13.4902 12.96H13.3057V15.8604H13.4902C13.7012 15.8604 13.8418 15.9922 13.8418 16.1943V16.2998C13.8418 16.5195 13.7012 16.6514 13.4814 16.6514H12.3564C12.1455 16.6514 12.0225 16.5195 12.0225 16.2998ZM14.2021 16.2998V16.1943C14.2021 15.9922 14.334 15.8604 14.5449 15.8604H14.7383V12.96H14.5449C14.3252 12.96 14.2021 12.8369 14.2021 12.626V12.5205C14.2021 12.3008 14.334 12.1777 14.5449 12.1777H15.6787C15.8721 12.1777 16.0215 12.3008 16.0215 12.5205V12.626C16.0215 12.8369 15.8809 12.96 15.6787 12.96H15.4854V15.8604H15.6787C15.8809 15.8604 16.0215 15.9922 16.0215 16.1943V16.2998C16.0215 16.5107 15.8809 16.6514 15.6787 16.6514H14.5449C14.334 16.6514 14.2021 16.5107 14.2021 16.2998ZM16.373 16.2998V16.1943C16.373 15.9922 16.5049 15.8604 16.7158 15.8604H16.918V12.96H16.7158C16.5049 12.96 16.373 12.8369 16.373 12.626V12.5205C16.373 12.3008 16.5049 12.1777 16.7246 12.1777H17.8496C18.0605 12.1777 18.2012 12.3008 18.2012 12.5205V12.626C18.2012 12.8369 18.0605 12.96 17.8584 12.96H17.665V15.8604H17.8584C18.0605 15.8604 18.2012 15.9922 18.2012 16.1943V16.2998C18.2012 16.5195 18.0605 16.6514 17.8496 16.6514H16.7246C16.5049 16.6514 16.373 16.5107 16.373 16.2998ZM9.06934 17.6182C9.06934 17.3896 9.25391 17.1963 9.47363 17.1963H18.5176C18.7461 17.1963 18.9307 17.3896 18.9307 17.6182C18.9307 17.8555 18.7461 18.04 18.5176 18.04H9.47363C9.25391 18.04 9.06934 17.8555 9.06934 17.6182Z" fill="#1C1C1E"/>
</svg>
