<svg width="28" height="28" viewBox="0 0 28 28" fill="none" xmlns="http://www.w3.org/2000/svg">
<path d="M6.64355 24.2539H7.69824C8.46289 24.2539 8.98145 23.7354 8.98145 22.9795V21.5908C10.6689 21.7139 12.3652 21.7754 14 21.7754C15.6348 21.7754 17.3311 21.7227 19.0186 21.5908V22.9795C19.0186 23.7354 19.5371 24.2539 20.3018 24.2539H21.3652C22.1299 24.2539 22.6484 23.7354 22.6484 22.9795V12.125H23.0439C23.6064 12.125 24.0107 11.7559 24.0107 11.2285V7.57227C24.0107 7.03613 23.6064 6.67578 23.0439 6.67578H22.6484V5.76172C22.6484 4.53125 21.9453 3.78418 20.6533 3.61719C18.8164 3.38867 16.3994 3.26562 14 3.26562C11.6006 3.26562 9.20117 3.37988 7.34668 3.61719C6.06348 3.79297 5.35156 4.53125 5.35156 5.76172V6.67578H4.95605C4.39355 6.67578 3.98926 7.03613 3.98926 7.57227V11.2285C3.98926 11.7559 4.39355 12.125 4.95605 12.125H5.35156V22.9795C5.35156 23.7354 5.87012 24.2539 6.64355 24.2539ZM8.07617 15.623C7.49609 15.5264 7.20605 15.1836 7.20605 14.542V6.52637C7.20605 5.81445 7.53125 5.43652 8.18164 5.35742C11.5918 4.94434 16.3818 4.96191 19.8359 5.35742C20.4863 5.43652 20.8027 5.81445 20.8027 6.52637V14.542C20.8027 15.1924 20.5127 15.5352 19.9326 15.623C16.4697 16.1504 11.46 16.168 8.07617 15.623ZM8.64746 19.6133C7.98828 19.6133 7.49609 19.1211 7.49609 18.4707C7.49609 17.8115 7.98828 17.3193 8.64746 17.3193C9.29785 17.3193 9.79004 17.8115 9.79004 18.4707C9.79004 19.1211 9.29785 19.6133 8.64746 19.6133ZM19.3613 19.6133C18.7021 19.6133 18.21 19.1211 18.21 18.4707C18.21 17.8115 18.7021 17.3193 19.3613 17.3193C20.0117 17.3193 20.5127 17.8115 20.5127 18.4707C20.5127 19.1211 20.0117 19.6133 19.3613 19.6133ZM12.084 19.2617C11.6094 19.2617 11.2754 18.9277 11.2754 18.4531C11.2754 17.9785 11.6094 17.6533 12.084 17.6533H15.8984C16.373 17.6533 16.7158 17.9785 16.7158 18.4531C16.7158 18.9277 16.373 19.2617 15.8984 19.2617H12.084Z" fill="#1C1C1E"/>
</svg>
