<svg width="28" height="28" viewBox="0 0 28 28" fill="none" xmlns="http://www.w3.org/2000/svg">
<path d="M7.35547 24.1924H8.41016C9.1748 24.1924 9.69336 23.6738 9.69336 22.918L9.70215 21.5732C11.082 21.6699 12.6025 21.7227 14 21.7227C15.3887 21.7227 16.918 21.6699 18.3066 21.5732V22.918C18.3066 23.6738 18.8252 24.1924 19.5898 24.1924H20.6445C21.418 24.1924 21.9277 23.6738 21.9277 22.918V20.624C22.2266 20.2725 22.3848 19.8066 22.3848 19.2266V13.1621H22.7803C23.3428 13.1621 23.7471 12.8018 23.7471 12.2656V9.18066C23.7471 8.64453 23.3428 8.28418 22.7803 8.28418H22.3848V4.75098C22.3848 3.52051 21.6729 2.78223 20.3896 2.60645C18.6055 2.38672 16.1445 2.26367 14 2.26367C11.8467 2.26367 9.38574 2.38672 7.61035 2.60645C6.32715 2.78223 5.61523 3.52051 5.61523 4.75098V8.28418H5.21973C4.65723 8.28418 4.25293 8.64453 4.25293 9.18066V12.2656C4.25293 12.8018 4.65723 13.1621 5.21973 13.1621H5.61523V19.2266C5.61523 19.7979 5.77344 20.2725 6.06348 20.624V22.918C6.06348 23.6738 6.58203 24.1924 7.35547 24.1924ZM14 20.2988C11.7939 20.2988 9.48242 20.1846 8.02344 19.9824C7.30273 19.8857 7.03906 19.499 7.03906 18.8135V5.16406C7.03906 4.4873 7.30273 4.10059 8.02344 3.99512C9.48242 3.79297 11.7939 3.67871 14 3.67871C16.1797 3.67871 18.4912 3.81055 19.9766 3.99512C20.6973 4.0918 20.9609 4.47852 20.9609 5.16406V18.8135C20.9609 19.499 20.6973 19.8945 19.9766 19.9824C18.4912 20.167 16.1797 20.2988 14 20.2988ZM7.92676 9.64648H20.0732V6.0957C20.0732 5.40137 19.7393 5.00586 19.001 4.92676C16.0215 4.61035 11.9961 4.61035 9.00781 4.92676C8.26953 5.00586 7.92676 5.40137 7.92676 6.0957V9.64648ZM7.92676 10.9736V14.4277C7.92676 15.043 8.22559 15.3857 8.80566 15.4912C11.5215 15.957 16.4082 15.9658 19.1943 15.4912C19.7305 15.3945 20.0732 15.043 20.0732 14.4277V10.9736H7.92676ZM9.30664 18.9893C9.88672 18.9893 10.3438 18.5322 10.3438 17.9521C10.3438 17.3721 9.88672 16.915 9.30664 16.915C8.72656 16.915 8.26953 17.3721 8.26953 17.9521C8.26953 18.5322 8.72656 18.9893 9.30664 18.9893ZM18.6934 18.9893C19.2734 18.9893 19.7305 18.5322 19.7305 17.9521C19.7305 17.3721 19.2734 16.915 18.6934 16.915C18.1045 16.915 17.6562 17.3721 17.6562 17.9521C17.6562 18.5322 18.1045 18.9893 18.6934 18.9893ZM12.3652 18.7344H15.6611C16.1182 18.7344 16.4521 18.3916 16.4521 17.9434C16.4521 17.4863 16.127 17.1611 15.6611 17.1611H12.3652C11.8643 17.1611 11.5303 17.4863 11.5303 17.9434C11.5303 18.3916 11.873 18.7344 12.3652 18.7344Z" fill="#1C1C1E"/>
</svg>
