<svg width="28" height="28" viewBox="0 0 28 28" fill="none" xmlns="http://www.w3.org/2000/svg">
<path d="M13.9912 22.7422C18.9746 22.7422 23.0879 18.6289 23.0879 13.6543C23.0879 8.67969 18.9658 4.56641 13.9824 4.56641C9.00781 4.56641 4.90332 8.67969 4.90332 13.6543C4.90332 18.6289 9.0166 22.7422 13.9912 22.7422ZM13.9912 20.9316C9.95703 20.9316 6.73145 17.6885 6.73145 13.6543C6.73145 9.62012 9.95703 6.38574 13.9824 6.38574C18.0166 6.38574 21.2598 9.62012 21.2686 13.6543C21.2773 17.6885 18.0254 20.9316 13.9912 20.9316ZM10.8447 17.9258H17.1289C18.1133 17.9258 18.623 17.416 18.623 16.4404V10.877C18.623 9.91016 18.1133 9.40039 17.1289 9.40039H10.8447C9.86914 9.40039 9.35059 9.90137 9.35059 10.877V16.4404C9.35059 17.416 9.86914 17.9258 10.8447 17.9258ZM10.8447 16.9941C10.4668 16.9941 10.2822 16.8184 10.2822 16.4316V12.2129C10.2822 11.8086 10.4844 11.6152 10.8711 11.6152H17.0938C17.4805 11.6152 17.6914 11.8086 17.6914 12.2129V16.4316C17.6914 16.8184 17.5068 16.9941 17.1289 16.9941H10.8447ZM13.0771 13.2676H13.3936C13.5957 13.2676 13.6572 13.2061 13.6572 13.0215V12.6963C13.6572 12.4941 13.5957 12.4326 13.3936 12.4326H13.0771C12.8838 12.4326 12.8223 12.4941 12.8223 12.6963V13.0215C12.8223 13.2061 12.8838 13.2676 13.0771 13.2676ZM14.5801 13.2676H14.8965C15.0986 13.2676 15.1514 13.2061 15.1514 13.0215V12.6963C15.1514 12.4941 15.0986 12.4326 14.8965 12.4326H14.5801C14.3779 12.4326 14.3164 12.4941 14.3164 12.6963V13.0215C14.3164 13.2061 14.3779 13.2676 14.5801 13.2676ZM16.0742 13.2676H16.3818C16.584 13.2676 16.6543 13.2061 16.6543 13.0215V12.6963C16.6543 12.4941 16.584 12.4326 16.3818 12.4326H16.0742C15.8721 12.4326 15.8018 12.4941 15.8018 12.6963V13.0215C15.8018 13.2061 15.8721 13.2676 16.0742 13.2676ZM11.5918 14.7354H11.8994C12.1016 14.7354 12.1719 14.6738 12.1719 14.4893V14.1641C12.1719 13.9707 12.1016 13.9092 11.8994 13.9092H11.5918C11.3896 13.9092 11.3193 13.9707 11.3193 14.1641V14.4893C11.3193 14.6738 11.3896 14.7354 11.5918 14.7354ZM13.0771 14.7354H13.3936C13.5957 14.7354 13.6572 14.6738 13.6572 14.4893V14.1641C13.6572 13.9707 13.5957 13.9092 13.3936 13.9092H13.0771C12.8838 13.9092 12.8223 13.9707 12.8223 14.1641V14.4893C12.8223 14.6738 12.8838 14.7354 13.0771 14.7354ZM14.5801 14.7354H14.8965C15.0986 14.7354 15.1514 14.6738 15.1514 14.4893V14.1641C15.1514 13.9707 15.0986 13.9092 14.8965 13.9092H14.5801C14.3779 13.9092 14.3164 13.9707 14.3164 14.1641V14.4893C14.3164 14.6738 14.3779 14.7354 14.5801 14.7354ZM16.0742 14.7354H16.3818C16.584 14.7354 16.6543 14.6738 16.6543 14.4893V14.1641C16.6543 13.9707 16.584 13.9092 16.3818 13.9092H16.0742C15.8721 13.9092 15.8018 13.9707 15.8018 14.1641V14.4893C15.8018 14.6738 15.8721 14.7354 16.0742 14.7354ZM11.5918 16.2119H11.8994C12.1016 16.2119 12.1719 16.1504 12.1719 15.9482V15.623C12.1719 15.4385 12.1016 15.377 11.8994 15.377H11.5918C11.3896 15.377 11.3193 15.4385 11.3193 15.623V15.9482C11.3193 16.1504 11.3896 16.2119 11.5918 16.2119ZM13.0771 16.2119H13.3936C13.5957 16.2119 13.6572 16.1504 13.6572 15.9482V15.623C13.6572 15.4385 13.5957 15.377 13.3936 15.377H13.0771C12.8838 15.377 12.8223 15.4385 12.8223 15.623V15.9482C12.8223 16.1504 12.8838 16.2119 13.0771 16.2119ZM14.5801 16.2119H14.8965C15.0986 16.2119 15.1514 16.1504 15.1514 15.9482V15.623C15.1514 15.4385 15.0986 15.377 14.8965 15.377H14.5801C14.3779 15.377 14.3164 15.4385 14.3164 15.623V15.9482C14.3164 16.1504 14.3779 16.2119 14.5801 16.2119Z" fill="#1C1C1E"/>
</svg>
