<svg width="28" height="28" viewBox="0 0 28 28" fill="none" xmlns="http://www.w3.org/2000/svg">
<path d="M4.41113 7.66895C5.02637 7.66895 5.52734 7.16797 5.52734 6.55273C5.52734 5.9375 5.02637 5.43652 4.41113 5.43652C3.78711 5.43652 3.28613 5.9375 3.28613 6.55273C3.28613 7.16797 3.78711 7.66895 4.41113 7.66895ZM6.96875 11.7295H8.69141V8.33691C8.69141 7.56348 9.0957 7.18555 9.83398 7.18555H21.9629C22.6924 7.18555 23.0967 7.56348 23.0967 8.33691V11.7295H24.8193V8.31934C24.8193 6.43848 23.835 5.46289 21.9365 5.46289H9.85156C7.94434 5.46289 6.96875 6.43848 6.96875 8.31934V11.7295ZM4.41113 11.2197C5.02637 11.2197 5.52734 10.71 5.52734 10.0947C5.52734 9.47949 5.02637 8.97852 4.41113 8.97852C3.78711 8.97852 3.28613 9.47949 3.28613 10.0947C3.28613 10.71 3.78711 11.2197 4.41113 11.2197ZM4.41113 14.8848C4.8418 14.8848 5.22852 14.6562 5.44824 14.3135H24.8193C25.1885 14.3135 25.4697 14.0234 25.4697 13.6631C25.4697 13.2939 25.1885 13.0127 24.8193 13.0127H5.45703C5.2373 12.6611 4.85059 12.4238 4.41113 12.4238C3.73438 12.4238 3.17188 12.9775 3.17188 13.6543C3.17188 14.3223 3.73438 14.8848 4.41113 14.8848ZM8.69141 15.5967H6.96875V19.0156C6.96875 20.8877 7.94434 21.8721 9.85156 21.8721H21.9365C23.835 21.8721 24.8193 20.8965 24.8193 19.0156V15.5967H23.0967V18.998C23.0967 19.7627 22.6924 20.1494 21.9629 20.1494H9.83398C9.0957 20.1494 8.69141 19.7627 8.69141 18.998V15.5967ZM4.41113 18.3213C5.02637 18.3213 5.52734 17.8203 5.52734 17.1963C5.52734 16.5811 5.02637 16.0801 4.41113 16.0801C3.78711 16.0801 3.28613 16.5811 3.28613 17.1963C3.28613 17.8203 3.78711 18.3213 4.41113 18.3213ZM4.41113 21.8721C5.02637 21.8721 5.52734 21.3711 5.52734 20.7559C5.52734 20.1406 5.02637 19.6309 4.41113 19.6309C3.78711 19.6309 3.28613 20.1406 3.28613 20.7559C3.28613 21.3711 3.78711 21.8721 4.41113 21.8721Z" fill="#1C1C1E"/>
</svg>
