<svg width="28" height="28" viewBox="0 0 28 28" fill="none" xmlns="http://www.w3.org/2000/svg">
<path d="M10.4844 23.0322C11.7852 23.0322 12.9893 22.6367 14 21.96C15.002 22.6367 16.2148 23.0322 17.5156 23.0322C20.9873 23.0322 23.8262 20.2021 23.8262 16.7129C23.8262 14.2256 22.3848 12.0723 20.293 11.0439C20.3018 10.9209 20.3018 10.7891 20.3018 10.6572C20.3018 7.17676 17.4717 4.34668 13.9912 4.34668C10.502 4.34668 7.67188 7.17676 7.67188 10.6572C7.67188 10.7891 7.68066 10.9209 7.68945 11.0527C5.59766 12.0811 4.16504 14.2344 4.16504 16.7129C4.16504 20.2021 6.99512 23.0322 10.4844 23.0322ZM10.4844 10.4023C10.0625 10.4023 9.6582 10.4463 9.2627 10.5166C9.33301 7.97656 11.416 5.92871 13.9912 5.92871C16.5576 5.92871 18.6494 7.96777 18.7197 10.5166C18.333 10.4375 17.9287 10.4023 17.5156 10.4023C16.2148 10.4023 15.002 10.7979 13.9912 11.4746C12.9893 10.7979 11.7852 10.4023 10.4844 10.4023ZM10.4844 11.9844C11.3018 11.9844 12.0752 12.1953 12.752 12.5645C12.2158 13.1797 11.7939 13.9004 11.5215 14.7002C10.5635 14.1113 9.8252 13.1885 9.48242 12.0898C9.79883 12.0195 10.1416 11.9844 10.4844 11.9844ZM17.5156 11.9844C17.8496 11.9844 18.1836 12.0195 18.5 12.0898C18.1572 13.1797 17.4189 14.1025 16.4609 14.6914C16.1973 13.9004 15.7754 13.1797 15.2393 12.5645C15.9072 12.1953 16.6895 11.9844 17.5156 11.9844ZM17.5156 21.4502C16.6895 21.4502 15.9072 21.2393 15.2393 20.8701C16.2061 19.7539 16.7949 18.3037 16.7949 16.7129C16.7949 16.5811 16.7861 16.4492 16.7773 16.3262C18.2715 15.5879 19.4316 14.2695 19.9766 12.6699C21.3301 13.5049 22.2441 14.999 22.2441 16.7129C22.2441 19.332 20.126 21.4502 17.5156 21.4502ZM10.4844 21.4502C7.86523 21.4502 5.74707 19.332 5.74707 16.7129C5.74707 15.0078 6.65234 13.5137 8.00586 12.6787C8.55078 14.2783 9.71094 15.5879 11.2051 16.3262C11.1963 16.4492 11.1963 16.5811 11.1963 16.7129C11.1963 18.3037 11.7852 19.7539 12.752 20.8701C12.084 21.2393 11.3105 21.4502 10.4844 21.4502ZM13.9912 15.3857C13.6484 15.3857 13.3145 15.3506 12.998 15.2891C13.2002 14.6299 13.543 14.041 13.9912 13.5488C14.4395 14.041 14.7822 14.6299 14.9932 15.2803C14.668 15.3506 14.334 15.3857 13.9912 15.3857ZM13.9912 16.9678C14.4131 16.9678 14.8174 16.9326 15.2041 16.8535C15.1777 18.0225 14.7207 19.0771 13.9912 19.8857C13.2705 19.0771 12.8135 18.0225 12.7783 16.8535C13.1738 16.9326 13.5781 16.9678 13.9912 16.9678Z" fill="#1C1C1E"/>
</svg>
