<svg width="28" height="28" viewBox="0 0 28 28" fill="none" xmlns="http://www.w3.org/2000/svg">
<path d="M14.0791 22.7334C19.0449 22.7334 23.1582 18.6289 23.1582 13.6543C23.1582 8.68848 19.0449 4.5752 14.0703 4.5752C9.10449 4.5752 5 8.68848 5 13.6543C5 18.6289 9.11328 22.7334 14.0791 22.7334ZM14.0791 20.9492C10.0361 20.9492 6.79297 17.6973 6.79297 13.6543C6.79297 9.61133 10.0273 6.36816 14.0703 6.36816C18.1133 6.36816 21.3652 9.61133 21.374 13.6543C21.374 17.6973 18.1221 20.9492 14.0791 20.9492ZM13.666 18.6816C13.666 18.9102 13.8506 19.0771 14.0791 19.0771C16.3906 19.0771 18.5439 17.6533 19.2471 15.623C19.3613 15.3242 19.2383 15.1045 18.9043 15.1045C16.8477 15.1045 15.2656 16.1943 14.4922 17.7061V14.1729C16.0654 13.9883 17.0674 12.7227 17.0674 11.1934C17.0674 10.6924 16.9795 10.1826 16.7422 9.68164C16.6367 9.43555 16.3379 9.3916 16.1445 9.59375L15.1865 10.5693L14.3691 9.51465C14.2197 9.30371 13.9473 9.30371 13.7891 9.51465L12.9717 10.5693L12.0137 9.59375C11.8203 9.3916 11.5215 9.43555 11.416 9.68164C11.1875 10.1826 11.082 10.6924 11.082 11.1934C11.082 12.7227 12.0928 13.9883 13.666 14.1729V18.6816ZM13.1035 16.915C12.2598 15.8428 10.9062 15.1045 9.23633 15.1045C8.91113 15.1045 8.7793 15.3242 8.89355 15.623C9.5 17.3809 11.1875 18.6816 13.1562 18.9805C13.1211 18.8926 13.1035 18.7871 13.1035 18.6816V16.915Z" fill="#1C1C1E"/>
</svg>
