<svg width="28" height="28" viewBox="0 0 28 28" fill="none" xmlns="http://www.w3.org/2000/svg">
<path d="M4.2793 3.29201L6.75781 5.41017C6.94238 5.55959 7.12695 5.66505 7.32031 5.66505C7.51367 5.66505 7.69824 5.55959 7.88281 5.41017L10.3613 3.29201C11.1436 2.64162 10.2207 1.41994 9.33301 2.21095L7.32031 4.03908L5.30762 2.21095C4.41992 1.41994 3.49707 2.64162 4.2793 3.29201ZM6.01953 21.8721H21.9717C23.8701 21.8721 24.8545 20.8877 24.8545 19.0156V9.79591C24.8545 7.92384 23.8701 6.93947 21.9717 6.93947H19.6162C18.9307 6.93947 18.7109 6.82521 18.2891 6.37697L17.5947 5.62111C17.1377 5.1465 16.6719 4.90041 15.7754 4.90041H12.1719C11.2754 4.90041 10.8096 5.1465 10.3525 5.62111L9.6582 6.37697C9.23633 6.81642 9.00781 6.93947 8.33105 6.93947H6.01953C4.12109 6.93947 3.13672 7.92384 3.13672 9.79591V19.0156C3.13672 20.8877 4.12109 21.8721 6.01953 21.8721ZM14 19.1299C11.3633 19.1299 9.25391 17.0117 9.25391 14.3662C9.25391 11.7295 11.3633 9.61134 14 9.61134C16.6367 9.61134 18.7461 11.7295 18.7461 14.3662C18.7461 17.0117 16.6279 19.1299 14 19.1299ZM19.3086 11.1406C19.3086 10.5166 19.8447 9.97169 20.4863 9.97169C21.1104 9.97169 21.6465 10.5166 21.6465 11.1406C21.6465 11.7822 21.1104 12.3008 20.4863 12.3008C19.8447 12.3096 19.3086 11.791 19.3086 11.1406ZM14 17.5567C15.7578 17.5567 17.1816 16.1416 17.1816 14.3662C17.1816 12.5996 15.7578 11.1846 14 11.1846C12.2422 11.1846 10.8184 12.5996 10.8184 14.3662C10.8184 16.1416 12.2422 17.5567 14 17.5567Z" fill="#1C1C1E"/>
</svg>
