<svg width="28" height="28" viewBox="0 0 28 28" fill="none" xmlns="http://www.w3.org/2000/svg">
<path d="M14 2.7998C9.0166 2.7998 5.83496 5.87598 5.83496 10.8242V16.4756C5.83496 21.4326 9.0166 24.5 14 24.5C18.9746 24.5 22.1562 21.4326 22.1562 16.4756V10.8242C22.1562 5.87598 18.9746 2.7998 14 2.7998ZM14 4.54883C17.9199 4.54883 20.4248 6.84277 20.4248 10.5869V16.7217C20.4248 20.4658 17.9199 22.7598 14 22.7598C10.0713 22.7598 7.5752 20.4658 7.5752 16.7217V10.5869C7.5752 6.84277 10.0713 4.54883 14 4.54883ZM14 21.3887C17.1992 21.3887 19.0537 19.666 19.0537 16.7217V10.5869C19.0537 7.64258 17.1992 5.91992 14 5.91992C10.8008 5.91992 8.95508 7.64258 8.95508 10.5869V16.7217C8.95508 19.666 10.8008 21.3887 14 21.3887Z" fill="#1C1C1E"/>
</svg>
