<svg width="28" height="28" viewBox="0 0 28 28" fill="none" xmlns="http://www.w3.org/2000/svg">
<path d="M9.81641 23.4629C10.3174 23.4629 10.6865 23.2168 11.293 22.6807L14.3076 20.0264H19.5986C22.2441 20.0264 23.7295 18.4971 23.7295 15.8867V9.05762C23.7295 6.44727 22.2441 4.91797 19.5986 4.91797H8.39258C5.75586 4.91797 4.26172 6.44727 4.26172 9.05762V15.8867C4.26172 18.5059 5.7998 20.0264 8.33105 20.0264H8.69141V22.1797C8.69141 22.9619 9.10449 23.4629 9.81641 23.4629ZM10.2559 21.4941V18.9893C10.2559 18.4707 10.0273 18.2686 9.53516 18.2686H8.4541C6.80176 18.2686 6.01074 17.4336 6.01074 15.834V9.11035C6.01074 7.51074 6.80176 6.67578 8.4541 6.67578H19.5459C21.1895 6.67578 21.9805 7.51074 21.9805 9.11035V15.834C21.9805 17.4336 21.1895 18.2686 19.5459 18.2686H14.2109C13.6748 18.2686 13.4111 18.3564 13.042 18.7432L10.2559 21.4941ZM8.52441 13.5137H11.8994C12.2158 13.5137 12.4619 13.25 12.4619 12.9336C12.4619 12.626 12.2158 12.3623 11.8994 12.3623H8.52441C8.2168 12.3623 7.9707 12.626 7.9707 12.9336C7.9707 13.25 8.2168 13.5137 8.52441 13.5137ZM13.7451 13.5137H19.4756C19.792 13.5137 20.0381 13.25 20.0381 12.9336C20.0381 12.626 19.792 12.3623 19.4756 12.3623H13.7451C13.4287 12.3623 13.1826 12.626 13.1826 12.9336C13.1826 13.25 13.4375 13.5137 13.7451 13.5137ZM8.52441 15.8252H9.95703C10.2734 15.8252 10.5283 15.5615 10.5283 15.2539C10.5283 14.9287 10.2734 14.6738 9.95703 14.6738H8.52441C8.2168 14.6738 7.9707 14.9375 7.9707 15.2539C7.9707 15.5615 8.2168 15.8252 8.52441 15.8252ZM11.8027 15.8252H16.0039C16.3203 15.8252 16.5752 15.5615 16.5752 15.2539C16.5752 14.9287 16.3203 14.6738 16.0039 14.6738H11.8027C11.4951 14.6738 11.2402 14.9375 11.2402 15.2539C11.2402 15.5615 11.4951 15.8252 11.8027 15.8252ZM17.8496 15.8252H19.4756C19.7832 15.8252 20.0381 15.5615 20.0381 15.2539C20.0381 14.9287 19.7832 14.6738 19.4756 14.6738H17.8496C17.542 14.6738 17.2871 14.9375 17.2871 15.2539C17.2871 15.5615 17.542 15.8252 17.8496 15.8252Z" fill="#1C1C1E"/>
</svg>
