<svg width="28" height="28" viewBox="0 0 28 28" fill="none" xmlns="http://www.w3.org/2000/svg">
<path d="M7.19724 15.2715H7.96189C8.44529 15.2715 8.81443 14.8936 8.81443 14.4189V13.3115C10.2383 13.4082 12.3213 13.4697 14 13.4697C15.6787 13.4697 17.7705 13.4082 19.1855 13.3115V14.4189C19.1855 14.8936 19.5635 15.2715 20.0469 15.2715H20.8115C21.2949 15.2715 21.664 14.8936 21.664 14.4189V10.6484C21.664 9.54102 21.4619 8.91699 20.8642 8.14355L20.3017 7.44043C20.0644 6.28906 19.6426 5.08496 19.4228 4.61914C19.0713 3.87207 18.3857 3.42383 17.5156 3.30957C17.0586 3.24805 15.6875 3.21289 14 3.21289C12.3125 3.21289 10.9414 3.24805 10.4931 3.30957C9.61423 3.41504 8.92869 3.87207 8.57712 4.61914C8.3574 5.08496 7.93552 6.28906 7.69822 7.44043L7.13572 8.14355C6.54685 8.91699 6.33591 9.54102 6.33591 10.6484V14.4189C6.33591 14.8936 6.71384 15.2715 7.19724 15.2715ZM9.10447 6.86035C9.24509 6.20996 9.53513 5.36621 9.72849 5.02344C9.91306 4.68945 10.124 4.54883 10.5107 4.49609C10.9677 4.43457 12.0576 4.39941 14 4.39941C15.9511 4.39941 17.041 4.42578 17.498 4.49609C17.8847 4.55762 18.0869 4.68945 18.2715 5.02344C18.4736 5.36621 18.7461 6.20996 18.8955 6.86035C18.9658 7.12402 18.8515 7.24707 18.5615 7.23828C17.5771 7.17676 16.3379 7.11523 14 7.11523C11.6709 7.11523 10.4316 7.17676 9.43845 7.23828C9.1572 7.24707 9.04294 7.12402 9.10447 6.86035ZM9.34177 11.7031C8.74412 11.7031 8.28709 11.2461 8.28709 10.6396C8.28709 10.042 8.74412 9.58496 9.34177 9.58496C9.94822 9.58496 10.4052 10.042 10.4052 10.6396C10.4052 11.2461 9.94822 11.7031 9.34177 11.7031ZM18.6582 11.7031C18.0517 11.7031 17.6035 11.2461 17.6035 10.6396C17.6035 10.042 18.0517 9.58496 18.6582 9.58496C19.2646 9.58496 19.7129 10.042 19.7129 10.6396C19.7129 11.2461 19.2646 11.7031 18.6582 11.7031ZM12.2861 11.4395C11.8379 11.4395 11.5215 11.123 11.5215 10.6748C11.5215 10.2266 11.8379 9.91016 12.2861 9.91016H15.7138C16.1709 9.91016 16.4785 10.2266 16.4785 10.6748C16.4785 11.123 16.1709 11.4395 15.7138 11.4395H12.2861ZM4.56052 18.6553L6.37986 21.0898C6.49412 21.0195 6.61716 20.9316 6.75779 20.835C7.80369 20.0703 8.68259 19.6572 9.7988 19.6572C10.9502 19.6572 11.8291 20.0879 12.8926 20.8789C13.5342 21.3623 13.6836 21.4502 14 21.4502C14.2988 21.4502 14.457 21.3623 15.0107 20.9492C16.1181 20.1055 17.0234 19.6572 18.2011 19.6572C19.3174 19.6572 20.1963 20.0703 21.2422 20.835C21.3828 20.9316 21.5058 21.0195 21.6201 21.0898L23.4394 18.6553C24.3095 17.5127 23.747 16.2119 22.2617 16.2119H5.73826C4.24412 16.2119 3.69041 17.5215 4.56052 18.6553ZM5.32517 24.1133H5.37791C8.19041 24.1133 8.41013 22.3115 9.7988 22.3115C11.1611 22.3115 11.5215 24.1133 14 24.1133C16.4697 24.1133 16.8388 22.3115 18.2011 22.3115C19.5898 22.3115 19.8095 24.1133 22.622 24.1133H22.6748C23.0703 24.1133 23.3955 23.7881 23.3955 23.3926C23.3955 22.9971 23.0703 22.6719 22.6748 22.6719H22.622C21.7344 22.6719 21.2158 22.3115 20.5302 21.8281C19.9502 21.4062 19.2119 20.8789 18.2011 20.8789C17.164 20.8789 16.417 21.4326 15.8369 21.8633C15.2217 22.3203 14.7646 22.6719 14 22.6719C13.2353 22.6719 12.7695 22.3203 12.1631 21.8633C11.583 21.4326 10.8359 20.8789 9.7988 20.8789C8.78806 20.8789 8.04978 21.4062 7.4697 21.8281C6.78416 22.3115 6.2656 22.6719 5.37791 22.6719H5.32517C4.92966 22.6719 4.60447 22.9971 4.60447 23.3926C4.60447 23.7881 4.92966 24.1133 5.32517 24.1133Z" fill="#1C1C1E"/>
</svg>
