<svg width="28" height="28" viewBox="0 0 28 28" fill="none" xmlns="http://www.w3.org/2000/svg">
<path d="M13.9912 22.7422C18.9746 22.7422 23.0879 18.6289 23.0879 13.6543C23.0879 8.67969 18.9658 4.56641 13.9824 4.56641C9.00781 4.56641 4.90332 8.67969 4.90332 13.6543C4.90332 18.6289 9.0166 22.7422 13.9912 22.7422ZM13.9912 20.9316C9.95703 20.9316 6.73145 17.6885 6.73145 13.6543C6.73145 9.62012 9.95703 6.38574 13.9824 6.38574C18.0166 6.38574 21.2598 9.62012 21.2686 13.6543C21.2773 17.6885 18.0254 20.9316 13.9912 20.9316ZM8.74414 10.4111C8.74414 10.7012 8.95508 10.9121 9.23633 10.9121H10.5371L11.1963 15.5C11.3018 16.1943 11.7412 16.5723 12.5146 16.5723H17.1992C17.4805 16.5723 17.6738 16.3789 17.6738 16.0801C17.6738 15.7988 17.4805 15.6055 17.1992 15.6055H12.5674C12.3389 15.6055 12.1982 15.4736 12.1631 15.2363L12.1191 14.9111H17.3926C18.0518 14.9111 18.3945 14.5156 18.4912 13.8564L18.8164 11.6592C18.8252 11.6064 18.834 11.5273 18.834 11.4922C18.834 11.2461 18.667 11.0791 18.3682 11.0791H11.5479L11.4775 10.543C11.4248 10.1562 11.126 9.90137 10.6953 9.90137H9.23633C8.95508 9.90137 8.74414 10.1123 8.74414 10.4111ZM11.8994 17.917C11.8994 18.3652 12.251 18.7168 12.6992 18.7168C13.1475 18.7168 13.499 18.3652 13.499 17.917C13.499 17.4688 13.1475 17.1172 12.6992 17.1172C12.251 17.1172 11.8994 17.4688 11.8994 17.917ZM15.6963 17.917C15.6963 18.3652 16.0566 18.7168 16.4961 18.7168C16.9443 18.7168 17.2959 18.3652 17.2959 17.917C17.2959 17.4688 16.9443 17.1172 16.4961 17.1172C16.0566 17.1172 15.6963 17.4688 15.6963 17.917Z" fill="#1C1C1E"/>
</svg>
