<svg width="28" height="28" viewBox="0 0 28 28" fill="none" xmlns="http://www.w3.org/2000/svg">
<path d="M13.9912 22.7598C18.9746 22.7598 23.0879 18.6465 23.0879 13.6631C23.0879 8.68848 18.9658 4.5752 13.9824 4.5752C9.00781 4.5752 4.90332 8.68848 4.90332 13.6631C4.90332 18.6465 9.0166 22.7598 13.9912 22.7598ZM8.55078 10.2793C8.55078 9.97168 8.77051 9.75195 9.06934 9.75195H10.5811C11.0205 9.75195 11.3369 10.0156 11.3984 10.4199L11.4688 10.9648H18.5439C18.8604 10.9648 19.0273 11.1406 19.0273 11.4043C19.0273 11.4482 19.0186 11.5273 19.0098 11.5801L18.6758 13.8564C18.5791 14.542 18.2188 14.9463 17.5244 14.9463H12.0576L12.1016 15.2891C12.1367 15.5352 12.2949 15.6758 12.5234 15.6758H17.3311C17.6211 15.6758 17.832 15.8691 17.832 16.168C17.832 16.4844 17.6211 16.6777 17.3311 16.6777H12.4707C11.6621 16.6777 11.1963 16.2822 11.0908 15.5527L10.4053 10.8066H9.06934C8.77051 10.8066 8.55078 10.5869 8.55078 10.2793ZM11.8203 18.0752C11.8203 17.6094 12.1895 17.2402 12.6553 17.2402C13.1211 17.2402 13.4902 17.6094 13.4902 18.0752C13.4902 18.541 13.1211 18.9014 12.6553 18.9014C12.1895 18.9014 11.8203 18.541 11.8203 18.0752ZM15.7578 18.0752C15.7578 17.6094 16.1357 17.2402 16.6016 17.2402C17.0674 17.2402 17.4365 17.6094 17.4365 18.0752C17.4365 18.541 17.0674 18.9014 16.6016 18.9014C16.1357 18.9014 15.7578 18.541 15.7578 18.0752Z" fill="#1C1C1E"/>
</svg>
