<svg width="28" height="28" viewBox="0 0 28 28" fill="none" xmlns="http://www.w3.org/2000/svg">
<path d="M3.55859 6.37695C3.55859 6.83398 3.94531 7.2207 4.38477 7.2207H7.13574L8.49805 16.5195C8.69141 17.8467 9.39453 18.6553 10.7393 18.6553H20.9697C21.3828 18.6553 21.7607 18.3301 21.7607 17.8643C21.7607 17.4072 21.3828 17.082 20.9697 17.082H10.9414C10.5195 17.082 10.2559 16.792 10.1943 16.3438L10.0537 15.4297H21.04C22.3848 15.4297 23.0967 14.6123 23.29 13.2764L23.9492 8.87305C23.9668 8.75879 23.9844 8.60938 23.9844 8.5127C23.9844 7.99414 23.624 7.64258 23.0176 7.64258H8.9375L8.79688 6.69336C8.68262 5.92871 8.375 5.54199 7.39941 5.54199H4.38477C3.94531 5.54199 3.55859 5.92871 3.55859 6.37695ZM9.92188 21.5293C9.92188 22.3818 10.6074 23.0674 11.46 23.0674C12.3125 23.0674 12.998 22.3818 12.998 21.5293C12.998 20.6768 12.3125 19.9912 11.46 19.9912C10.6074 19.9912 9.92188 20.6768 9.92188 21.5293ZM18.0342 21.5293C18.0342 22.3818 18.7285 23.0674 19.5811 23.0674C20.4336 23.0674 21.1104 22.3818 21.1104 21.5293C21.1104 20.6768 20.4336 19.9912 19.5811 19.9912C18.7285 19.9912 18.0342 20.6768 18.0342 21.5293Z" fill="#1C1C1E"/>
</svg>
