<svg width="28" height="28" viewBox="0 0 28 28" fill="none" xmlns="http://www.w3.org/2000/svg">
<path d="M6.44141 22.2236H21.5498C23.4395 22.2236 24.4062 21.2744 24.4062 19.4023V10.7891C24.4062 8.92578 23.4395 7.96777 21.5498 7.96777H19.3262V7.03613C19.3262 5.64746 18.4297 4.82129 16.9268 4.82129H11.0645C9.56152 4.82129 8.66504 5.64746 8.66504 7.03613V7.96777H6.44141C4.56055 7.96777 3.58496 8.92578 3.58496 10.7891V19.4023C3.58496 21.2744 4.56055 22.2236 6.44141 22.2236ZM10.458 7.12402C10.458 6.71094 10.7305 6.44727 11.1787 6.44727H16.8125C17.2607 6.44727 17.542 6.71094 17.542 7.12402V7.96777H10.458V7.12402Z" fill="#1C1C1E"/>
</svg>
