<svg width="28" height="28" viewBox="0 0 28 28" fill="none" xmlns="http://www.w3.org/2000/svg">
<path d="M8.67383 21.8809H19.3174C21.2246 21.8809 22.209 20.8965 22.209 19.0156V8.31934C22.209 6.43848 21.2246 5.4541 19.3174 5.4541H8.67383C6.77539 5.4541 5.78223 6.42969 5.78223 8.31934V19.0156C5.78223 20.8965 6.77539 21.8809 8.67383 21.8809ZM10.3789 13.6631C10.3789 11.2197 11.6182 9.62891 13.5869 9.40039V8.73242C13.5869 8.46875 13.7715 8.29297 14.0176 8.29297C14.2637 8.29297 14.4395 8.46875 14.4395 8.73242V9.3916C15.7402 9.50586 16.751 10.2529 17.1816 11.3164C17.252 11.4922 17.2959 11.6768 17.2959 11.8438C17.2959 12.2393 17.0322 12.5029 16.6455 12.5029C16.2852 12.5029 16.0918 12.3623 15.96 11.9756C15.749 11.3076 15.1777 10.8066 14.4395 10.6748V16.6777C15.2217 16.5723 15.8105 16.0801 16.0127 15.3857C16.1357 15.0254 16.3467 14.8584 16.6895 14.8584C17.0938 14.8584 17.3574 15.1309 17.3574 15.5176C17.3574 15.6846 17.3223 15.8516 17.2607 16.0098C16.8652 17.0908 15.8369 17.8555 14.4395 17.9521V18.6201C14.4395 18.8838 14.2637 19.0596 14.0176 19.0596C13.7715 19.0596 13.5869 18.8838 13.5869 18.6201V17.9434C11.6094 17.7236 10.3789 16.1328 10.3789 13.6631ZM11.8379 13.6631C11.8379 15.2979 12.4883 16.3965 13.5869 16.6514V10.7012C12.4971 10.9561 11.8379 12.0547 11.8379 13.6631Z" fill="#1C1C1E"/>
</svg>
