<svg width="28" height="28" viewBox="0 0 28 28" fill="none" xmlns="http://www.w3.org/2000/svg">
<path d="M8.67383 21.8809H19.3174C21.2246 21.8809 22.209 20.8965 22.209 19.0156V8.31934C22.209 6.43848 21.2246 5.4541 19.3174 5.4541H8.67383C6.77539 5.4541 5.78223 6.42969 5.78223 8.31934V19.0156C5.78223 20.8965 6.77539 21.8809 8.67383 21.8809ZM8.78809 20.1318C7.97949 20.1318 7.53125 19.71 7.53125 18.8574V8.47754C7.53125 7.625 7.97949 7.20312 8.78809 7.20312H19.2031C20.0029 7.20312 20.46 7.625 20.46 8.47754V18.8574C20.46 19.71 20.0029 20.1318 19.2031 20.1318H8.78809ZM10.502 13.6631C10.502 16.0361 11.6885 17.5566 13.5781 17.7852V18.4355C13.5781 18.6816 13.7627 18.8486 13.9912 18.8486C14.2285 18.8486 14.4131 18.6816 14.4131 18.4355V17.7939C15.7402 17.6885 16.7334 16.959 17.1113 15.9219C17.1729 15.7637 17.208 15.6055 17.208 15.4473C17.208 15.0693 16.9531 14.8232 16.5664 14.8232C16.2412 14.8232 16.0479 14.9814 15.9248 15.3154C15.7227 15.9922 15.1602 16.4668 14.4131 16.5723V10.7803C15.1162 10.9033 15.6699 11.3955 15.8721 12.0459C16.0039 12.4062 16.1797 12.5381 16.5225 12.5381C16.9004 12.5381 17.1465 12.292 17.1465 11.9141C17.1465 11.7471 17.1025 11.5801 17.0322 11.4131C16.6279 10.3848 15.6523 9.67285 14.4131 9.55859V8.92578C14.4131 8.6709 14.2285 8.50391 13.9912 8.50391C13.7539 8.50391 13.5781 8.6709 13.5781 8.92578V9.56738C11.6973 9.78711 10.502 11.3164 10.502 13.6631ZM11.8906 13.6631C11.8906 12.1162 12.5322 11.0527 13.5781 10.8066V16.5459C12.5234 16.2998 11.8906 15.2363 11.8906 13.6631Z" fill="#1C1C1E"/>
</svg>
