<svg width="28" height="28" viewBox="0 0 28 28" fill="none" xmlns="http://www.w3.org/2000/svg">
<path d="M9.28906 23.1816H20.7236C21.1895 23.1816 21.5498 22.8213 21.5498 22.3555C21.5498 21.96 21.2773 21.6699 20.9434 21.5117C19.8623 21.0283 19.6514 19.5342 20.75 18.4883C21.1982 18.0928 21.541 17.6533 21.541 16.7656V7.03613C21.541 5.1377 20.5654 4.14453 18.6758 4.14453H9.30664C7.42578 4.14453 6.44141 5.12891 6.44141 7.03613V20.3164C6.44141 22.1973 7.42578 23.1816 9.28906 23.1816ZM18.5176 5.89355C19.3701 5.89355 19.792 6.3418 19.792 7.15039V16.4932C19.792 16.9238 19.5459 17.1611 19.1064 17.1611H10.4756V5.89355H18.5176ZM8.19043 17.4688V7.15039C8.19043 6.4209 8.5332 5.99023 9.22754 5.91113V17.1699C8.83203 17.2051 8.48926 17.3105 8.19043 17.4688ZM12.7607 14.8408C13.1035 14.8408 13.332 14.665 13.4551 14.2432L13.9121 12.8984H16.3994L16.8564 14.2432C16.9795 14.665 17.208 14.8408 17.5508 14.8408C17.9639 14.8408 18.2188 14.5859 18.2188 14.1992C18.2188 14.0762 18.1924 13.9355 18.1221 13.7334L16.2148 8.49512C16.0303 7.96777 15.6699 7.71289 15.1426 7.71289C14.624 7.71289 14.2812 7.96777 14.0967 8.49512L12.1895 13.7334C12.1191 13.9355 12.0928 14.0762 12.0928 14.1992C12.0928 14.5859 12.3477 14.8408 12.7607 14.8408ZM14.2285 11.8438L15.1162 9.13672H15.1953L16.083 11.8438H14.2285ZM9.52637 21.5293C8.58594 21.5293 8.09375 20.9932 8.09375 20.167C8.09375 19.3672 8.65625 18.8135 9.58789 18.8135H18.3594C18.4561 18.8135 18.5527 18.8047 18.6406 18.7871C18.2012 19.7188 18.2539 20.7295 18.7285 21.5293H9.52637Z" fill="#1C1C1E"/>
</svg>
