<svg width="28" height="28" viewBox="0 0 28 28" fill="none" xmlns="http://www.w3.org/2000/svg">
<path d="M9.41211 20.2373C10.0098 20.2373 10.3262 19.9912 10.5195 19.3584L11.4775 16.6514H16.4873L17.4453 19.3584C17.6387 19.9912 17.9551 20.2373 18.5527 20.2373C19.1855 20.2373 19.5898 19.8594 19.5898 19.2705C19.5898 19.0508 19.5547 18.8662 19.4668 18.6201L15.5996 8.16113C15.3271 7.39648 14.8174 7.03613 13.9912 7.03613C13.2002 7.03613 12.6904 7.39648 12.4268 8.15234L8.5332 18.6729C8.44531 18.9014 8.41016 19.0947 8.41016 19.2881C8.41016 19.877 8.78809 20.2373 9.41211 20.2373ZM11.9873 14.999L13.9648 9.30371H14.0176L15.9951 14.999H11.9873Z" fill="#1C1C1E"/>
</svg>
