<svg width="28" height="31" viewBox="0 0 28 31" fill="none" xmlns="http://www.w3.org/2000/svg">
<g filter="url(#filter0_d_610_1731)">
<path d="M6.57324 15.4121C6.57324 18.6113 8.33105 19.8682 13.376 22.6279C13.6045 22.751 13.8418 22.8125 13.9912 22.8125C14.1494 22.8125 14.3867 22.751 14.6152 22.6279C19.6602 19.877 21.418 18.6113 21.418 15.4121V8.75879C21.418 7.72168 21.0137 7.35254 20.1436 6.9834C19.168 6.57031 15.8721 5.41016 14.9053 5.09375C14.624 4.99707 14.29 4.93555 13.9912 4.93555C13.7012 4.93555 13.3672 5.01465 13.0771 5.09375C12.1191 5.35742 8.82324 6.5791 7.84766 6.9834C6.97754 7.34375 6.57324 7.72168 6.57324 8.75879V15.4121ZM8.2168 15.0781V13.6543H13.9912V6.58789C14.123 6.58789 14.2549 6.61426 14.4482 6.68457C15.6348 7.15039 18.1396 8.03809 19.458 8.5127C19.7041 8.60059 19.7656 8.73242 19.7656 9.04004V13.6543H13.9912V20.9668C13.8682 20.9668 13.7451 20.9229 13.4902 20.7646C9.46484 18.3213 8.2168 17.6533 8.2168 15.0781Z" fill="#1C1C1E"/>
</g>
<defs>
<filter id="filter0_d_610_1731" x="-4" y="0" width="36" height="36" filterUnits="userSpaceOnUse" color-interpolation-filters="sRGB">
<feFlood flood-opacity="0" result="BackgroundImageFix"/>
<feColorMatrix in="SourceAlpha" type="matrix" values="0 0 0 0 0 0 0 0 0 0 0 0 0 0 0 0 0 0 127 0" result="hardAlpha"/>
<feOffset dy="4"/>
<feGaussianBlur stdDeviation="2"/>
<feComposite in2="hardAlpha" operator="out"/>
<feColorMatrix type="matrix" values="0 0 0 0 0 0 0 0 0 0 0 0 0 0 0 0 0 0 0.25 0"/>
<feBlend mode="normal" in2="BackgroundImageFix" result="effect1_dropShadow_610_1731"/>
<feBlend mode="normal" in="SourceGraphic" in2="effect1_dropShadow_610_1731" result="shape"/>
</filter>
</defs>
</svg>
