<svg width="28" height="28" viewBox="0 0 28 28" fill="none" xmlns="http://www.w3.org/2000/svg">
<path d="M12.7783 21.1514C12.9805 21.3447 13.2266 21.4502 13.5078 21.4502C14.0967 21.4502 14.5537 20.9932 14.5537 20.4131C14.5537 20.123 14.4395 19.8594 14.2373 19.6572L8.08496 13.6455L14.2373 7.65137C14.4395 7.44922 14.5537 7.17676 14.5537 6.89551C14.5537 6.31543 14.0967 5.8584 13.5078 5.8584C13.2266 5.8584 12.9805 5.96387 12.7871 6.15723L5.94922 12.8369C5.70312 13.0654 5.58008 13.3467 5.58008 13.6543C5.58008 13.9619 5.70312 14.2256 5.94043 14.4629L12.7783 21.1514ZM20.6357 21.1514C20.8379 21.3447 21.0752 21.4502 21.3652 21.4502C21.9541 21.4502 22.4111 20.9932 22.4111 20.4131C22.4111 20.123 22.2881 19.8594 22.0947 19.6572L15.9336 13.6455L22.0947 7.65137C22.2969 7.44922 22.4111 7.17676 22.4111 6.89551C22.4111 6.31543 21.9541 5.8584 21.3652 5.8584C21.0752 5.8584 20.8379 5.96387 20.6357 6.15723L13.7979 12.8369C13.5605 13.0654 13.4375 13.3467 13.4287 13.6543C13.4287 13.9619 13.5518 14.2256 13.7979 14.4629L20.6357 21.1514Z" fill="#1C1C1E"/>
</svg>
