<svg width="28" height="28" viewBox="0 0 28 28" fill="none" xmlns="http://www.w3.org/2000/svg">
<path d="M13.9912 5.42773C13.71 5.42773 13.4639 5.55957 13.1738 5.78809L7.24121 10.5869C7.03027 10.7627 6.89844 11.0264 6.89844 11.3516C6.89844 11.9492 7.38184 12.3887 7.93555 12.3887C8.19043 12.3887 8.44531 12.292 8.7002 12.0898L14 7.81836L19.291 12.0898C19.5371 12.292 19.8008 12.3887 20.0557 12.3887C20.6094 12.3887 21.0928 11.9492 21.0928 11.3516C21.0928 11.0264 20.9609 10.7627 20.75 10.5869L14.8086 5.78809C14.5273 5.55957 14.2812 5.42773 13.9912 5.42773ZM13.9912 21.7139C14.2812 21.7139 14.5273 21.5908 14.8086 21.3623L20.75 16.5635C20.9609 16.3789 21.0928 16.1152 21.0928 15.7988C21.0928 15.1924 20.6094 14.7529 20.0557 14.7529C19.8008 14.7529 19.5371 14.8584 19.291 15.0605L14 19.332L8.7002 15.0605C8.44531 14.8584 8.19043 14.7529 7.93555 14.7529C7.38184 14.7529 6.89844 15.1924 6.89844 15.7988C6.89844 16.1152 7.03027 16.3789 7.24121 16.5635L13.1738 21.3535C13.4639 21.5908 13.71 21.7139 13.9912 21.7139Z" fill="#1C1C1E"/>
</svg>
