<svg width="28" height="28" viewBox="0 0 28 28" fill="none" xmlns="http://www.w3.org/2000/svg">
<path d="M14.3867 20.9404C14.5537 21.3359 14.8965 21.5996 15.3008 21.5996C15.96 21.5996 16.417 21.1162 16.417 20.5186C16.417 20.1934 16.2324 19.7803 16.1094 19.4727L13.7363 13.6367L16.1094 7.80078C16.2324 7.49316 16.417 7.07129 16.417 6.75488C16.417 6.15723 15.96 5.67383 15.3008 5.67383C14.8965 5.67383 14.5537 5.9375 14.3867 6.32422L11.9697 12.2568C11.7764 12.7227 11.583 13.1885 11.583 13.6367C11.583 14.0762 11.7764 14.542 11.9697 15.0166L14.3867 20.9404Z" fill="#1C1C1E"/>
</svg>
