<svg width="28" height="28" viewBox="0 0 28 28" fill="none" xmlns="http://www.w3.org/2000/svg">
<path d="M8.67383 21.8809H19.3174C21.2246 21.8809 22.209 20.8965 22.209 19.0156V8.31934C22.209 6.43848 21.2246 5.4541 19.3174 5.4541H8.67383C6.77539 5.4541 5.78223 6.42969 5.78223 8.31934V19.0156C5.78223 20.8965 6.77539 21.8809 8.67383 21.8809ZM8.78809 20.1318C7.97949 20.1318 7.53125 19.71 7.53125 18.8574V8.47754C7.53125 7.625 7.97949 7.20312 8.78809 7.20312H19.2031C20.0029 7.20312 20.46 7.625 20.46 8.47754V18.8574C20.46 19.71 20.0029 20.1318 19.2031 20.1318H8.78809ZM14.9404 11.0879C14.3779 10.4814 13.6396 10.4902 13.0771 11.0879L9.71094 14.665C9.4209 14.9814 9.41211 15.4473 9.68457 15.7109C9.9834 16.0186 10.4668 16.0186 10.748 15.7197L14.0088 12.2568L17.2695 15.7197C17.5508 16.0186 18.0342 16.0186 18.333 15.7109C18.6055 15.4473 18.5967 14.9814 18.3066 14.665L14.9404 11.0879Z" fill="#1C1C1E"/>
</svg>
