<svg width="28" height="28" viewBox="0 0 28 28" fill="none" xmlns="http://www.w3.org/2000/svg">
<path d="M13.6133 20.9404L16.0303 15.0166C16.2324 14.542 16.417 14.0762 16.417 13.6367C16.417 13.1885 16.2324 12.7227 16.0303 12.2568L13.6133 6.32422C13.4463 5.9375 13.1035 5.67383 12.6992 5.67383C12.04 5.67383 11.583 6.15723 11.583 6.75488C11.583 7.07129 11.7676 7.49316 11.8906 7.80078L14.2637 13.6367L11.8906 19.4727C11.7676 19.7803 11.583 20.1934 11.583 20.5186C11.583 21.1162 12.04 21.5996 12.6992 21.5996C13.1035 21.5996 13.4463 21.3359 13.6133 20.9404Z" fill="#1C1C1E"/>
</svg>
