<svg width="28" height="28" viewBox="0 0 28 28" fill="none" xmlns="http://www.w3.org/2000/svg">
<path d="M8.67383 21.8809H19.3174C21.2246 21.8809 22.209 20.8965 22.209 19.0156V8.31934C22.209 6.43848 21.2246 5.4541 19.3174 5.4541H8.67383C6.77539 5.4541 5.78223 6.42969 5.78223 8.31934V19.0156C5.78223 20.8965 6.77539 21.8809 8.67383 21.8809ZM15.0107 11L18.5 14.7178C18.8076 15.043 18.8164 15.5352 18.5264 15.8076C18.21 16.1328 17.709 16.1328 17.4102 15.8164L14.0264 12.2217L10.6426 15.8164C10.3438 16.1328 9.85156 16.1328 9.52637 15.8076C9.24512 15.5352 9.24512 15.043 9.56152 14.7178L13.0508 11C13.6396 10.3672 14.4131 10.3672 15.0107 11Z" fill="#1C1C1E"/>
</svg>
