<svg width="28" height="28" viewBox="0 0 28 28" fill="none" xmlns="http://www.w3.org/2000/svg">
<path d="M8.67383 21.8809H19.3174C21.2246 21.8809 22.209 20.8965 22.209 19.0156V8.31934C22.209 6.43848 21.2246 5.4541 19.3174 5.4541H8.67383C6.77539 5.4541 5.78223 6.42969 5.78223 8.31934V19.0156C5.78223 20.8965 6.77539 21.8809 8.67383 21.8809ZM8.78809 20.1318C7.97949 20.1318 7.53125 19.71 7.53125 18.8574V8.47754C7.53125 7.625 7.97949 7.20312 8.78809 7.20312H19.2031C20.0029 7.20312 20.46 7.625 20.46 8.47754V18.8574C20.46 19.71 20.0029 20.1318 19.2031 20.1318H8.78809ZM15.7578 17.9785C16.0654 17.6797 16.0479 17.1963 15.7578 16.9238L12.2949 13.6543L15.7578 10.4023C16.0566 10.1211 16.0566 9.62891 15.7402 9.34766C15.459 9.0752 15.0107 9.08398 14.7031 9.37402L11.1348 12.7314C10.5986 13.2324 10.5986 14.1025 11.1348 14.5947L14.7031 17.9609C14.9756 18.2158 15.5029 18.2334 15.7578 17.9785Z" fill="#1C1C1E"/>
</svg>
