<svg width="28" height="28" viewBox="0 0 28 28" fill="none" xmlns="http://www.w3.org/2000/svg">
<path d="M8.67383 21.8809H19.3174C21.2246 21.8809 22.209 20.8965 22.209 19.0156V8.31934C22.209 6.43848 21.2246 5.4541 19.3174 5.4541H8.67383C6.77539 5.4541 5.78223 6.42969 5.78223 8.31934V19.0156C5.78223 20.8965 6.77539 21.8809 8.67383 21.8809ZM15.8018 18.0488C15.5381 18.3037 15.0107 18.2861 14.7295 18.0225L11.1084 14.6123C10.5635 14.1025 10.5635 13.2236 11.1084 12.7139L14.7295 9.30371C15.0371 9.01367 15.5029 9.01367 15.793 9.27734C16.1094 9.57617 16.1094 10.0771 15.8105 10.3672L12.2949 13.6543L15.8105 16.959C16.1006 17.249 16.1182 17.7324 15.8018 18.0488Z" fill="#1C1C1E"/>
</svg>
