<svg width="28" height="28" viewBox="0 0 28 28" fill="none" xmlns="http://www.w3.org/2000/svg">
<path d="M14 22.7334C18.9658 22.7334 23.0791 18.6289 23.0791 13.6543C23.0791 8.68848 18.9658 4.5752 13.9912 4.5752C9.02539 4.5752 4.9209 8.68848 4.9209 13.6543C4.9209 18.6289 9.03418 22.7334 14 22.7334ZM14 20.9492C9.95703 20.9492 6.71387 17.6973 6.71387 13.6543C6.71387 9.61133 9.94824 6.36816 13.9912 6.36816C18.0342 6.36816 21.2861 9.61133 21.2949 13.6543C21.2949 17.6973 18.043 20.9492 14 20.9492ZM12.1455 11.8262C12.9629 11.8262 13.6484 11.1406 13.6484 10.3232C13.6484 9.49707 12.9629 8.80273 12.1455 8.80273C11.3105 8.80273 10.625 9.49707 10.625 10.3232C10.625 11.1406 11.3018 11.8262 12.1455 11.8262ZM15.8545 11.8262C16.6807 11.8262 17.3662 11.1406 17.3662 10.3232C17.3662 9.49707 16.6807 8.80273 15.8545 8.80273C15.0283 8.80273 14.3428 9.49707 14.3428 10.3232C14.3428 11.1406 15.0283 11.8262 15.8545 11.8262ZM10.2822 15.166C11.1084 15.166 11.7939 14.4717 11.7939 13.6455C11.7939 12.8281 11.1084 12.1338 10.2822 12.1338C9.45605 12.1338 8.77051 12.8281 8.77051 13.6455C8.77051 14.4629 9.44727 15.166 10.2822 15.166ZM14 15.166C14.8174 15.166 15.5117 14.4717 15.5117 13.6455C15.5117 12.8281 14.8174 12.1338 14 12.1338C13.1738 12.1338 12.4795 12.8281 12.4795 13.6455C12.4795 14.4717 13.1738 15.166 14 15.166ZM17.709 15.166C18.5352 15.166 19.2207 14.4717 19.2207 13.6455C19.2207 12.8281 18.5352 12.1338 17.709 12.1338C16.8828 12.1338 16.1973 12.8281 16.1973 13.6455C16.1973 14.4717 16.8828 15.166 17.709 15.166ZM12.1455 18.4883C12.9629 18.4883 13.6484 17.8027 13.6484 16.9766C13.6484 16.1504 12.9629 15.4648 12.1455 15.4648C11.3105 15.4648 10.625 16.1504 10.625 16.9766C10.625 17.7939 11.3018 18.4883 12.1455 18.4883ZM15.8545 18.4883C16.6807 18.4883 17.3662 17.8027 17.3662 16.9766C17.3662 16.1504 16.6807 15.4648 15.8545 15.4648C15.0283 15.4648 14.3428 16.1504 14.3428 16.9766C14.3428 17.8027 15.0283 18.4883 15.8545 18.4883Z" fill="#1C1C1E"/>
</svg>
