<svg width="28" height="28" viewBox="0 0 28 28" fill="none" xmlns="http://www.w3.org/2000/svg">
<path d="M14 22.7334C18.9658 22.7334 23.0791 18.6289 23.0791 13.6543C23.0791 8.68848 18.9658 4.5752 13.9912 4.5752C9.02539 4.5752 4.9209 8.68848 4.9209 13.6543C4.9209 18.6289 9.03418 22.7334 14 22.7334ZM14 20.9492C9.95703 20.9492 6.71387 17.6973 6.71387 13.6543C6.71387 9.61133 9.94824 6.36816 13.9912 6.36816C18.0342 6.36816 21.2861 9.61133 21.2949 13.6543C21.2949 17.6973 18.043 20.9492 14 20.9492ZM13.9824 19.5342C17.252 19.5342 19.8799 16.915 19.8711 13.6455C19.8711 10.3848 17.2432 7.75684 13.9824 7.75684C10.7129 7.75684 8.10254 10.376 8.10254 13.6455C8.10254 16.915 10.7217 19.5342 13.9824 19.5342Z" fill="#1C1C1E"/>
</svg>
