<svg width="28" height="28" viewBox="0 0 28 28" fill="none" xmlns="http://www.w3.org/2000/svg">
<path d="M10.6953 10.4199C12.1631 10.4199 13.3848 9.20703 13.3848 7.73926C13.3848 6.27148 12.1631 5.0498 10.6953 5.0498C9.22754 5.0498 8.00586 6.27148 8.00586 7.73926C8.00586 9.18945 9.21875 10.4199 10.6953 10.4199ZM17.2959 10.4199C18.7637 10.4199 19.9854 9.20703 19.9854 7.73926C19.9854 6.27148 18.7637 5.0498 17.2959 5.0498C15.8281 5.0498 14.6064 6.27148 14.6064 7.73926C14.6064 9.20703 15.8281 10.4199 17.2959 10.4199ZM7.39941 16.3438C8.86719 16.3438 10.0889 15.1221 10.0889 13.6543C10.0889 12.1865 8.86719 10.9648 7.39941 10.9648C5.93164 10.9648 4.70996 12.1865 4.70996 13.6543C4.70996 15.1133 5.91406 16.3438 7.39941 16.3438ZM14 16.3438C15.4678 16.3438 16.6895 15.1221 16.6895 13.6543C16.6895 12.1865 15.4678 10.9648 14 10.9648C12.5322 10.9648 11.3105 12.1865 11.3105 13.6543C11.3105 15.1221 12.5322 16.3438 14 16.3438ZM20.6006 16.3438C22.0684 16.3438 23.29 15.1221 23.29 13.6543C23.29 12.1865 22.0684 10.9648 20.6006 10.9648C19.1328 10.9648 17.9111 12.1865 17.9111 13.6543C17.9111 15.1221 19.1328 16.3438 20.6006 16.3438ZM10.6953 22.25C12.1719 22.25 13.3848 21.0371 13.3848 19.5605C13.3848 18.1016 12.1631 16.8799 10.6953 16.8799C9.22754 16.8799 8.00586 18.1016 8.00586 19.5605C8.00586 21.0195 9.21875 22.25 10.6953 22.25ZM17.2959 22.25C18.7637 22.25 19.9854 21.0283 19.9854 19.5605C19.9854 18.1016 18.7637 16.8799 17.2959 16.8799C15.8281 16.8799 14.6064 18.1016 14.6064 19.5605C14.6064 21.0283 15.8281 22.25 17.2959 22.25Z" fill="#1C1C1E"/>
</svg>
