<svg width="28" height="28" viewBox="0 0 28 28" fill="none" xmlns="http://www.w3.org/2000/svg">
<path d="M26.498 13.6631C26.498 14.1201 26.1289 14.5244 25.6543 14.5244H23.0439C23.0703 14.2344 23.0879 13.9443 23.0879 13.6543C23.0879 13.3643 23.0703 13.083 23.0439 12.793H4.96484C5.4043 8.22266 9.31543 4.5752 14 4.5752C18.6758 4.5752 22.6045 8.22266 23.0439 12.793H25.6543C26.1289 12.793 26.498 13.1973 26.498 13.6631ZM1.50195 13.6631C1.50195 13.1973 1.87109 12.793 2.3457 12.793H4.96484C4.93848 13.083 4.92969 13.3643 4.92969 13.6543C4.92969 13.9443 4.93848 14.2344 4.96484 14.5244H23.0439C22.5957 19.0947 18.6846 22.7334 14.0088 22.7334C9.32422 22.7334 5.41309 19.0947 4.96484 14.5244H2.3457C1.87109 14.5244 1.50195 14.1201 1.50195 13.6631Z" fill="#1C1C1E"/>
</svg>
