<svg width="28" height="28" viewBox="0 0 28 28" fill="none" xmlns="http://www.w3.org/2000/svg">
<path d="M14 10.8945C16.1094 10.8945 17.8496 9.1543 17.8496 7.03613C17.8496 4.93555 16.1094 3.18652 14 3.18652C11.8643 3.18652 10.1328 4.93555 10.1328 7.03613C10.1328 9.1543 11.8643 10.8945 14 10.8945ZM13.9912 9.28613C12.7168 9.28613 11.7324 8.30176 11.7324 7.03613C11.7324 5.7793 12.7168 4.75977 13.9912 4.75977C15.2568 4.75977 16.25 5.7793 16.25 7.03613C16.25 8.30176 15.2568 9.28613 13.9912 9.28613ZM7.60156 17.5039C9.71973 17.5039 11.4512 15.7637 11.4512 13.6455C11.4512 11.5449 9.71973 9.7959 7.60156 9.7959C5.47461 9.7959 3.74316 11.5449 3.74316 13.6455C3.74316 15.7637 5.47461 17.5039 7.60156 17.5039ZM20.3984 17.5039C22.5078 17.5039 24.248 15.7637 24.248 13.6455C24.248 11.5449 22.5078 9.7959 20.3984 9.7959C18.2715 9.7959 16.54 11.5449 16.54 13.6455C16.54 15.7637 18.2715 17.5039 20.3984 17.5039ZM7.60156 15.8955C6.32715 15.8955 5.34277 14.9111 5.34277 13.6455C5.34277 12.3887 6.32715 11.3691 7.60156 11.3691C8.8584 11.3691 9.85156 12.3887 9.85156 13.6455C9.85156 14.9111 8.8584 15.8955 7.60156 15.8955ZM20.3984 15.8955C19.124 15.8955 18.1309 14.9111 18.1309 13.6455C18.1309 12.3887 19.124 11.3691 20.3984 11.3691C21.6553 11.3691 22.6484 12.3887 22.6484 13.6455C22.6484 14.9111 21.6553 15.8955 20.3984 15.8955ZM14 24.1045C16.1094 24.1045 17.8496 22.3643 17.8496 20.2549C17.8496 18.1455 16.1094 16.4053 14 16.4053C11.873 16.4053 10.1416 18.1455 10.1416 20.2549C10.1416 22.3643 11.873 24.1045 14 24.1045Z" fill="#1C1C1E"/>
</svg>
