<svg width="34" height="31" viewBox="0 0 34 31" fill="none" xmlns="http://www.w3.org/2000/svg">
<g filter="url(#filter0_d_610_1871)">
<path d="M4.50195 13.6631C4.50195 14.1201 4.87109 14.5244 5.3457 14.5244H7.96484C8.41309 19.0947 12.3242 22.7334 17.0088 22.7334C21.6846 22.7334 25.5957 19.0947 26.0439 14.5244H28.6543C29.1289 14.5244 29.498 14.1201 29.498 13.6631C29.498 13.1973 29.1289 12.793 28.6543 12.793H26.0439C25.6045 8.22266 21.6758 4.5752 17 4.5752C12.3154 4.5752 8.4043 8.22266 7.96484 12.793H5.3457C4.87109 12.793 4.50195 13.1973 4.50195 13.6631ZM17 6.36816C20.7529 6.36816 23.8203 9.16309 24.2422 12.793H9.77539C10.1885 9.16309 13.2471 6.36816 17 6.36816ZM17.0088 20.9492C13.2559 20.9492 10.1973 18.1543 9.77539 14.5244H24.251C23.8291 18.1543 20.7529 20.9492 17.0088 20.9492Z" fill="#1C1C1E"/>
</g>
<defs>
<filter id="filter0_d_610_1871" x="-1" y="0" width="36" height="36" filterUnits="userSpaceOnUse" color-interpolation-filters="sRGB">
<feFlood flood-opacity="0" result="BackgroundImageFix"/>
<feColorMatrix in="SourceAlpha" type="matrix" values="0 0 0 0 0 0 0 0 0 0 0 0 0 0 0 0 0 0 127 0" result="hardAlpha"/>
<feOffset dy="4"/>
<feGaussianBlur stdDeviation="2"/>
<feComposite in2="hardAlpha" operator="out"/>
<feColorMatrix type="matrix" values="0 0 0 0 0 0 0 0 0 0 0 0 0 0 0 0 0 0 0.25 0"/>
<feBlend mode="normal" in2="BackgroundImageFix" result="effect1_dropShadow_610_1871"/>
<feBlend mode="normal" in="SourceGraphic" in2="effect1_dropShadow_610_1871" result="shape"/>
</filter>
</defs>
</svg>
