<svg width="28" height="28" viewBox="0 0 28 28" fill="none" xmlns="http://www.w3.org/2000/svg">
<path d="M21.541 18.6641C22.5078 17.2227 23.0791 15.5 23.0791 13.6543C23.0791 8.68848 18.9658 4.5752 13.9912 4.5752C12.1455 4.5752 10.4229 5.14648 8.99023 6.11328L10.2734 7.3877C11.3457 6.74609 12.6201 6.36816 13.9824 6.36816C18.0254 6.36816 21.2773 9.61133 21.2861 13.6543C21.2861 15.0254 20.9082 16.291 20.2578 17.3721L21.541 18.6641ZM21.6465 22.3115C21.9277 22.584 22.376 22.5752 22.6396 22.3027C22.9121 22.0215 22.9121 21.582 22.6396 21.3096L6.34473 5.01465C6.07227 4.74219 5.62402 4.74219 5.34277 5.01465C5.0791 5.27832 5.0791 5.74414 5.34277 6.00781L21.6465 22.3115ZM17.7178 19.9121C16.6367 20.5713 15.3535 20.9492 13.9912 20.9492C9.94824 20.9492 6.70508 17.6973 6.70508 13.6543C6.70508 12.292 7.08301 11.0088 7.74219 9.92773L6.45898 8.64453C5.4834 10.0859 4.9209 11.8086 4.9209 13.6543C4.9209 18.6289 9.03418 22.7334 14 22.7334C15.8457 22.7334 17.5596 22.1709 19.001 21.2041L17.7178 19.9121Z" fill="#1C1C1E"/>
</svg>
