<svg width="28" height="28" viewBox="0 0 28 28" fill="none" xmlns="http://www.w3.org/2000/svg">
<path d="M7.42578 18.9277C10.3262 18.9277 12.6904 16.5547 12.6904 13.6543C12.6904 10.7627 10.3262 8.38965 7.42578 8.38965C4.5166 8.38965 2.16113 10.7627 2.16113 13.6543C2.16113 16.5547 4.5166 18.9277 7.42578 18.9277ZM20.5654 18.9277C23.4658 18.9277 25.8301 16.5547 25.8301 13.6543C25.8301 10.7627 23.4658 8.38965 20.5654 8.38965C17.665 8.38965 15.3008 10.7627 15.3008 13.6543C15.3008 16.5547 17.6562 18.9277 20.5654 18.9277ZM20.5654 17.2402C18.5967 17.2402 16.9883 15.6318 16.9883 13.6543C16.9883 11.6855 18.5967 10.0771 20.5654 10.0771C22.5342 10.0771 24.1514 11.6943 24.1514 13.6543C24.1514 15.623 22.5342 17.2402 20.5654 17.2402Z" fill="#1C1C1E"/>
</svg>
