<svg width="28" height="28" viewBox="0 0 28 28" fill="none" xmlns="http://www.w3.org/2000/svg">
<path d="M21.541 18.6729C22.5166 17.2314 23.0791 15.5 23.0791 13.6543C23.0791 8.68848 18.9658 4.5752 13.9912 4.5752C12.1455 4.5752 10.4316 5.1377 8.99023 6.10449L21.541 18.6729ZM21.6465 22.3027C21.9277 22.5752 22.376 22.5664 22.6396 22.2939C22.9033 22.0215 22.9121 21.582 22.6396 21.3096L6.34473 5.00586C6.07227 4.7334 5.62402 4.7334 5.34277 5.00586C5.0791 5.27832 5.0791 5.73535 5.34277 5.99902L21.6465 22.3027ZM6.45898 8.65332C5.4834 10.0859 4.9209 11.8086 4.9209 13.6543C4.9209 18.6289 9.03418 22.7334 14 22.7334C15.8457 22.7334 17.5596 22.1709 18.9922 21.2041L6.45898 8.65332Z" fill="#1C1C1E"/>
</svg>
