<svg width="28" height="28" viewBox="0 0 28 28" fill="none" xmlns="http://www.w3.org/2000/svg">
<path d="M14 10.8945C16.1182 10.8945 17.8496 9.1543 17.8496 7.03613C17.8496 4.92676 16.1182 3.18652 14 3.18652C11.8643 3.18652 10.1328 4.92676 10.1328 7.03613C10.1328 9.1543 11.8643 10.8945 14 10.8945ZM14 9.26855C12.7344 9.26855 11.7588 8.29297 11.7588 7.03613C11.7588 5.78809 12.7344 4.77734 14 4.77734C15.248 4.77734 16.2324 5.78809 16.2324 7.03613C16.2324 8.29297 15.248 9.26855 14 9.26855ZM7.61035 17.5039C9.71973 17.5039 11.46 15.7637 11.46 13.6455C11.46 11.5361 9.71973 9.7959 7.61035 9.7959C5.47461 9.7959 3.74316 11.5361 3.74316 13.6455C3.74316 15.7637 5.47461 17.5039 7.61035 17.5039ZM20.4072 17.5039C22.5166 17.5039 24.2568 15.7637 24.2568 13.6455C24.2568 11.5361 22.5166 9.7959 20.4072 9.7959C18.2715 9.7959 16.54 11.5361 16.54 13.6455C16.54 15.7637 18.2715 17.5039 20.4072 17.5039ZM7.60156 15.8779C6.34473 15.8779 5.36035 14.9023 5.36035 13.6455C5.36035 12.3975 6.34473 11.3867 7.60156 11.3867C8.8584 11.3867 9.84277 12.3975 9.84277 13.6455C9.84277 14.9023 8.8584 15.8779 7.60156 15.8779ZM20.3984 15.8779C19.1416 15.8779 18.1572 14.9023 18.1572 13.6455C18.1572 12.3975 19.1416 11.3867 20.3984 11.3867C21.6553 11.3867 22.6396 12.3975 22.6396 13.6455C22.6396 14.9023 21.6553 15.8779 20.3984 15.8779ZM14 24.1133C16.1182 24.1133 17.8496 22.3643 17.8496 20.2549C17.8496 18.1455 16.1182 16.4053 14 16.4053C11.8643 16.4053 10.1328 18.1455 10.1328 20.2549C10.1328 22.3643 11.8643 24.1133 14 24.1133ZM14 22.4873C12.7344 22.4873 11.7588 21.5117 11.7588 20.2549C11.7588 19.0068 12.7344 17.9961 14 17.9961C15.248 17.9961 16.2324 19.0068 16.2324 20.2549C16.2324 21.5117 15.248 22.4873 14 22.4873Z" fill="#1C1C1E"/>
</svg>
