<svg width="28" height="28" viewBox="0 0 28 28" fill="none" xmlns="http://www.w3.org/2000/svg">
<path d="M3.85748 11.8525C3.16315 11.8525 2.98737 12.3799 3.36529 12.8984L5.51862 15.8691C5.80865 16.2822 6.27447 16.2734 6.55572 15.8691L8.70904 12.8896C9.0694 12.3887 8.9024 11.8525 8.21686 11.8525H6.95123C7.74225 8.69727 10.5811 6.38574 14.0001 6.38574C16.3467 6.39453 18.4034 7.48438 19.7217 9.21582C20.0821 9.62891 20.6094 9.76074 21.0401 9.44434C21.4444 9.1543 21.5235 8.58301 21.128 8.1084C19.5108 5.99023 16.8389 4.56641 14.0001 4.56641C9.6319 4.56641 5.9317 7.72168 5.08795 11.8525H3.85748ZM13.6749 8.56543C13.2442 8.56543 12.9014 8.9082 12.9014 9.33008V14.0938C12.9014 14.3047 12.9717 14.498 13.1212 14.7002L15.2217 17.46C15.5294 17.873 15.9864 17.9434 16.3643 17.6709C16.7247 17.416 16.7598 16.9502 16.4786 16.5723L14.4395 13.8301V9.33008C14.4395 8.9082 14.0967 8.56543 13.6749 8.56543ZM14.0001 22.7422C18.3682 22.7422 22.0684 19.5869 22.9122 15.4561H24.1426C24.837 15.4561 25.0128 14.9287 24.6348 14.4102L22.4903 11.4395C22.1915 11.0352 21.7256 11.0352 21.4444 11.4395L19.2911 14.4189C18.9307 14.9287 19.0977 15.4561 19.7833 15.4561H21.0577C20.2579 18.6113 17.419 20.9316 14.0001 20.9316C11.6534 20.9229 9.59674 19.8242 8.27838 18.0928C7.91803 17.6797 7.39947 17.5479 6.96002 17.8643C6.55572 18.1543 6.47662 18.7256 6.87213 19.209C8.48932 21.3184 11.1612 22.7422 14.0001 22.7422Z" fill="#1C1C1E"/>
</svg>
