<svg width="28" height="28" viewBox="0 0 28 28" fill="none" xmlns="http://www.w3.org/2000/svg">
<path d="M8.07617 18.0225H19.0361C21.9805 18.0225 24.1953 15.7812 24.1953 12.9863C24.1953 10.1211 21.875 7.98535 18.8604 7.98535C17.7793 5.86719 15.7842 4.42578 13.1035 4.42578C9.72852 4.42578 6.99512 7.01855 6.66113 10.2881C5.03516 10.7891 3.80469 12.1953 3.80469 14.0938C3.80469 16.2822 5.41309 18.0225 8.07617 18.0225ZM8.08496 16.3525C6.34473 16.3525 5.47461 15.3945 5.47461 14.1377C5.47461 13.0918 6.09863 12.1953 7.56641 11.8086C8.07617 11.668 8.24316 11.4395 8.28711 10.9209C8.55078 8.03809 10.6162 6.0957 13.1035 6.0957C15.0107 6.0957 16.54 7.15918 17.4893 9.0752C17.709 9.51465 17.9727 9.66406 18.5088 9.66406C21.1191 9.66406 22.5254 11.1846 22.5254 13.0303C22.5254 14.876 21.0664 16.3525 19.0889 16.3525H8.08496ZM16.25 21.2744H14.3867L15.2217 19.666C15.3271 19.4727 15.248 19.3232 15.0547 19.3232H12.9805C12.7256 19.3232 12.6377 19.4111 12.5586 19.5957L11.3369 22.3818C11.2402 22.6016 11.3369 22.7334 11.5654 22.7334H13.1211L11.9346 25.625C11.8818 25.7393 11.9082 25.8447 11.9961 25.8799C12.0752 25.9062 12.1719 25.8887 12.2686 25.792L16.3906 21.7139C16.584 21.5205 16.5049 21.2744 16.25 21.2744ZM6.14258 22.4609C6.42383 22.6191 6.7666 22.5137 6.9248 22.2324L8.05859 20.2725C8.23438 19.9824 8.14648 19.6484 7.85645 19.4727C7.56641 19.3145 7.25 19.4111 7.07422 19.7012L5.93164 21.6787C5.77344 21.9512 5.84375 22.2939 6.14258 22.4609ZM18.4033 22.4609C18.6846 22.6191 19.0273 22.5137 19.1855 22.2324L20.3193 20.2725C20.4951 19.9824 20.4072 19.6484 20.1172 19.4727C19.8271 19.3145 19.5107 19.4111 19.335 19.7012L18.1924 21.6787C18.0342 21.9512 18.1045 22.2939 18.4033 22.4609ZM7.83887 24.9131C8.12012 25.0713 8.46289 24.9746 8.62988 24.6934L9.76367 22.7246C9.93066 22.4434 9.84277 22.1006 9.56152 21.9336C9.2627 21.7666 8.94629 21.8633 8.77051 22.1621L7.62793 24.1396C7.46973 24.4121 7.54883 24.7461 7.83887 24.9131ZM20.0996 24.9131C20.3809 25.0713 20.7236 24.9746 20.8906 24.6934L22.0244 22.7246C22.1914 22.4434 22.1035 22.1006 21.8223 21.9336C21.5234 21.7666 21.207 21.8633 21.0312 22.1621L19.8887 24.1396C19.7305 24.4121 19.8096 24.7461 20.0996 24.9131Z" fill="#1C1C1E"/>
</svg>
