<svg width="28" height="28" viewBox="0 0 28 28" fill="none" xmlns="http://www.w3.org/2000/svg">
<path d="M8.07617 18.0225H19.0361C21.9805 18.0225 24.1953 15.7812 24.1953 12.9863C24.1953 10.1211 21.875 7.98535 18.8604 7.98535C17.7793 5.86719 15.7842 4.42578 13.1035 4.42578C9.72852 4.42578 6.99512 7.01855 6.66113 10.2881C5.03516 10.7891 3.80469 12.1953 3.80469 14.0938C3.80469 16.2822 5.41309 18.0225 8.07617 18.0225ZM8.08496 16.3525C6.34473 16.3525 5.47461 15.3945 5.47461 14.1377C5.47461 13.0918 6.09863 12.1953 7.56641 11.8086C8.07617 11.668 8.24316 11.4395 8.28711 10.9209C8.55078 8.03809 10.6162 6.0957 13.1035 6.0957C15.0107 6.0957 16.54 7.15918 17.4893 9.0752C17.709 9.51465 17.9727 9.66406 18.5088 9.66406C21.1191 9.66406 22.5254 11.1846 22.5254 13.0303C22.5254 14.876 21.0664 16.3525 19.0889 16.3525H8.08496ZM9.28906 21.1953L9.83398 20.2373C10.001 19.9561 9.92188 19.6133 9.63184 19.4463C9.3418 19.2793 9.0166 19.3848 8.84961 19.6748L8.2959 20.6416C8.1377 20.9141 8.20801 21.248 8.49805 21.4238C8.78809 21.582 9.13086 21.4766 9.28906 21.1953ZM13.1299 22.54L14.4482 20.2549C14.6064 19.9648 14.5273 19.6221 14.2461 19.4551C13.9561 19.2881 13.6221 19.3848 13.4551 19.6836L12.1279 21.9863C11.9697 22.2588 12.0488 22.6016 12.3389 22.7686C12.6201 22.9268 12.9629 22.8213 13.1299 22.54ZM18.5 21.2305L19.0449 20.2725C19.2119 19.9912 19.1328 19.6484 18.8428 19.4814C18.5527 19.3145 18.2275 19.4199 18.0605 19.7012L17.5068 20.6768C17.3486 20.9492 17.4189 21.2832 17.709 21.4502C17.999 21.6172 18.3418 21.5117 18.5 21.2305ZM7.63672 23.9111C8.18164 23.9111 8.62988 23.4629 8.62988 22.9092C8.62988 22.373 8.18164 21.9248 7.63672 21.9248C7.0918 21.9248 6.64355 22.373 6.64355 22.9092C6.64355 23.4629 7.0918 23.9111 7.63672 23.9111ZM16.8477 23.9463C17.3838 23.9463 17.8408 23.4893 17.8408 22.9443C17.8408 22.4082 17.3926 21.96 16.8477 21.96C16.3027 21.96 15.8545 22.4082 15.8545 22.9443C15.8545 23.4893 16.3027 23.9463 16.8477 23.9463ZM11.4775 25.2559C12.0137 25.2559 12.4619 24.8076 12.4619 24.2539C12.4619 23.7266 12.0137 23.2695 11.4775 23.2695C10.9326 23.2695 10.4756 23.7266 10.4756 24.2539C10.4756 24.8076 10.9326 25.2559 11.4775 25.2559Z" fill="#1C1C1E"/>
</svg>
