<svg width="28" height="28" viewBox="0 0 28 28" fill="none" xmlns="http://www.w3.org/2000/svg">
<g clip-path="url(#clip0_507_315)">
<path d="M20.0557 5.58594C20.4951 5.58594 20.8555 5.2168 20.8555 4.78613V2.9668C20.8555 2.52734 20.4951 2.16699 20.0557 2.16699C19.6162 2.16699 19.2559 2.52734 19.2559 2.9668V4.78613C19.2559 5.2168 19.6162 5.58594 20.0557 5.58594ZM14.835 7.28223C15.1514 7.59863 15.6699 7.59863 15.9688 7.29102C16.2676 6.9834 16.2676 6.48242 15.96 6.16602L14.668 4.87402C14.3604 4.55762 13.8506 4.56641 13.5518 4.87402C13.2441 5.17285 13.2441 5.68262 13.5518 5.99902L14.835 7.28223ZM24.1514 7.29102C24.4502 7.59863 24.9775 7.59863 25.2852 7.28223L26.5684 5.99902C26.876 5.69141 26.876 5.18164 26.5684 4.87402C26.2607 4.56641 25.7598 4.56641 25.4521 4.87402L24.1514 6.16602C23.8438 6.47363 23.8525 6.9834 24.1514 7.29102ZM22.4111 15.1309C23.668 14.2783 24.459 12.9248 24.459 11.3779C24.459 8.93457 22.499 6.97461 20.0645 6.97461C18.4561 6.97461 17.0586 7.83594 16.3291 9.10156C16.707 9.47949 17.0322 9.91016 17.3047 10.4287C20.1523 10.6396 22.1123 12.4766 22.4111 15.1309ZM7.03906 20.2725H16.8213C19.3262 20.2725 21.2598 18.3652 21.2598 15.8779C21.2598 13.3818 19.2646 11.501 16.584 11.4922C15.5908 9.60254 13.7891 8.36328 11.4951 8.36328C8.56836 8.36328 6.10742 10.6133 5.84375 13.5576C4.31445 13.9971 3.33887 15.2891 3.33887 16.8799C3.33887 18.8926 4.8418 20.2725 7.03906 20.2725ZM26.6387 12.1777H28.458C28.8975 12.1777 29.249 11.8174 29.249 11.3779C29.2578 10.9385 28.8975 10.5781 28.458 10.5781H26.6387C26.208 10.5781 25.8389 10.9385 25.8389 11.3779C25.8389 11.8174 26.208 12.1777 26.6387 12.1777ZM25.4434 17.8994C25.7598 18.207 26.2607 18.1982 26.5684 17.8906C26.876 17.583 26.876 17.082 26.5684 16.7744L25.2764 15.4824C24.9688 15.1836 24.459 15.1748 24.1514 15.4824C23.8438 15.79 23.8438 16.2998 24.1514 16.6074L25.4434 17.8994Z" fill="#1C1C1E"/>
</g>
<defs>
<clipPath id="clip0_507_315">
<rect width="28" height="28" fill="white"/>
</clipPath>
</defs>
</svg>
