<svg width="28" height="28" viewBox="0 0 28 28" fill="none" xmlns="http://www.w3.org/2000/svg">
<path d="M8.07617 17.917H19.0361C21.8926 17.917 24.0986 15.7549 24.0986 12.9775C24.0986 10.1562 21.8135 8.03809 18.7988 8.06445C17.665 5.78809 15.5996 4.50488 13.0947 4.50488C9.80762 4.50488 7.04785 7.03613 6.74023 10.3408C5.02637 10.8418 3.89258 12.292 3.89258 14.0762C3.89258 16.3438 5.59766 17.917 8.07617 17.917ZM15.3359 22.2676L16.4697 20.3076C16.6455 20.0176 16.5576 19.6748 16.2676 19.5078C15.9775 19.3408 15.6523 19.4375 15.4854 19.7363L14.3428 21.7139C14.1846 21.9863 14.2549 22.3203 14.5537 22.4873C14.835 22.6543 15.1777 22.5488 15.3359 22.2676ZM17.3838 24.7637L19.9766 20.29C20.1348 20.0088 20.0557 19.6836 19.7744 19.5078C19.502 19.3496 19.1592 19.4375 18.9922 19.7275L16.417 24.1924C16.2588 24.4736 16.3379 24.8164 16.6191 24.9834C16.9004 25.1416 17.2256 25.0449 17.3838 24.7637ZM8.34863 22.2764L9.48242 20.3076C9.64941 20.0264 9.56152 19.6836 9.28027 19.5166C8.99023 19.3496 8.66504 19.4463 8.48926 19.7451L7.34668 21.7139C7.18848 21.9951 7.26758 22.3291 7.55762 22.4961C7.83887 22.6543 8.18164 22.5576 8.34863 22.2764ZM10.3965 24.7725L12.9805 20.2988C13.1387 20.0176 13.0596 19.6836 12.7871 19.5166C12.5059 19.3496 12.1631 19.4463 11.9961 19.7363L9.42969 24.2012C9.2627 24.4824 9.3418 24.8252 9.62305 24.9922C9.9043 25.1504 10.2295 25.0537 10.3965 24.7725Z" fill="#1C1C1E"/>
</svg>
