<svg width="28" height="28" viewBox="0 0 28 28" fill="none" xmlns="http://www.w3.org/2000/svg">
<path d="M8.07617 17.917H19.0361C21.8926 17.917 24.0986 15.7549 24.0986 12.9775C24.0986 10.1562 21.8135 8.03809 18.7988 8.06445C17.665 5.78809 15.5996 4.50488 13.0947 4.50488C9.80762 4.50488 7.04785 7.03613 6.74023 10.3408C5.02637 10.8418 3.89258 12.292 3.89258 14.0762C3.89258 16.3438 5.59766 17.917 8.07617 17.917ZM16.2412 21.2744H14.3779L15.2129 19.666C15.3184 19.4727 15.2393 19.3232 15.0459 19.3232H12.9717C12.7168 19.3232 12.6289 19.4111 12.5498 19.5957L11.3281 22.3818C11.2314 22.6016 11.3281 22.7334 11.5566 22.7334H13.1123L11.9258 25.625C11.873 25.7393 11.8994 25.8447 11.9873 25.8799C12.0664 25.9062 12.1631 25.8887 12.2598 25.792L16.3818 21.7139C16.5752 21.5205 16.4961 21.2744 16.2412 21.2744ZM6.13379 22.4609C6.41504 22.6191 6.75781 22.5137 6.91602 22.2324L8.0498 20.2725C8.22559 19.9824 8.1377 19.6484 7.84766 19.4727C7.55762 19.3145 7.24121 19.4111 7.06543 19.7012L5.92285 21.6787C5.76465 21.9512 5.83496 22.2939 6.13379 22.4609ZM18.3945 22.4609C18.6758 22.6191 19.0186 22.5137 19.1768 22.2324L20.3105 20.2725C20.4863 19.9824 20.3984 19.6484 20.1084 19.4727C19.8184 19.3145 19.502 19.4111 19.3262 19.7012L18.1836 21.6787C18.0254 21.9512 18.0957 22.2939 18.3945 22.4609ZM7.83008 24.9131C8.11133 25.0713 8.4541 24.9746 8.62109 24.6934L9.75488 22.7246C9.92188 22.4434 9.83398 22.1006 9.55273 21.9336C9.25391 21.7666 8.9375 21.8633 8.76172 22.1621L7.61914 24.1396C7.46094 24.4121 7.54004 24.7461 7.83008 24.9131ZM20.0908 24.9131C20.3721 25.0713 20.7148 24.9746 20.8818 24.6934L22.0156 22.7246C22.1826 22.4434 22.0947 22.1006 21.8135 21.9336C21.5146 21.7666 21.1982 21.8633 21.0225 22.1621L19.8799 24.1396C19.7217 24.4121 19.8008 24.7461 20.0908 24.9131Z" fill="#1C1C1E"/>
</svg>
