<svg width="28" height="28" viewBox="0 0 28 28" fill="none" xmlns="http://www.w3.org/2000/svg">
<path d="M22.4814 14.3751C25.2061 13.8301 26.832 11.5977 26.832 10.1212C26.832 9.76959 26.6738 9.51471 26.3838 9.51471C25.9355 9.51471 25.2764 10.0684 24.0459 10.0684C21.9277 10.0684 20.5918 8.78521 20.5918 6.83404C20.5918 5.63873 21.1807 4.78619 21.1807 4.294C21.1807 4.01275 20.9873 3.82818 20.6357 3.83697C19.0361 3.89849 16.9092 5.69146 16.417 8.08209C16.7158 8.36334 16.9971 8.73248 17.2256 9.21588C20.1172 9.41803 22.3584 11.6153 22.4814 14.3751ZM7.03906 19.0684H16.8213C19.3262 19.0684 21.2598 17.1612 21.2598 14.6739C21.2598 12.169 19.2646 10.2969 16.584 10.2881C15.5908 8.38971 13.7891 7.15924 11.4951 7.15924C8.56836 7.15924 6.10742 9.40924 5.84375 12.3536C4.31445 12.793 3.33887 14.085 3.33887 15.667C3.33887 17.6885 4.8418 19.0684 7.03906 19.0684ZM14.5713 22.2676H12.752L13.5342 20.7735C13.6396 20.5889 13.5605 20.4395 13.3672 20.4395H11.3721C11.126 20.4395 11.0469 20.5362 10.9678 20.712L9.81641 23.3135C9.72852 23.5245 9.81641 23.6651 10.0449 23.6651H11.5566L10.4141 26.4337C10.3613 26.5479 10.3877 26.6446 10.4668 26.6797C10.5547 26.7061 10.6426 26.6885 10.7393 26.5919L14.7031 22.6983C14.8877 22.5137 14.8174 22.2676 14.5713 22.2676Z" fill="#1C1C1E"/>
</svg>
