<svg width="28" height="28" viewBox="0 0 28 28" fill="none" xmlns="http://www.w3.org/2000/svg">
<path d="M7.10938 19.2002H16.6631C19.2822 19.2002 21.3037 17.2138 21.3037 14.665C21.3037 14.6299 21.3037 14.5947 21.3037 14.5683C24.1514 14.5068 26.0234 12.8896 26.7178 11.0351C27.0254 10.2529 26.6299 9.57614 25.8828 9.57614C25.3027 9.57614 24.8457 9.82223 23.9053 9.82223C21.7344 9.82223 20.6094 8.61813 20.6094 6.58786C20.6094 5.56833 20.9258 4.98825 20.9258 4.49606C20.9258 3.72263 20.2402 3.3447 19.4316 3.61716C17.4717 4.26755 15.8545 6.32419 15.8545 8.78513C15.8545 8.87302 15.8545 8.96091 15.8545 9.0488C14.7822 7.78317 13.2617 7.05368 11.4951 7.05368C8.54199 7.05368 6.08105 9.2861 5.73828 12.2216C4.24414 12.6963 3.24219 13.997 3.24219 15.6318C3.24219 17.706 4.80664 19.2002 7.10938 19.2002ZM17.2959 8.75876C17.2959 7.1152 18.2451 5.80563 19.3877 5.15524L19.4844 5.21677C19.3438 5.64743 19.2119 6.24509 19.2119 6.93063C19.2119 9.4443 21.0137 11.2021 23.5713 11.2021C24.2129 11.2021 24.7666 11.0879 25.1621 10.956L25.2236 11.0263C24.6611 12.0722 23.2461 13.1357 21.0312 13.1093C20.4951 11.6416 19.1943 10.5693 17.542 10.2529C17.3838 9.78708 17.2959 9.27731 17.2959 8.75876ZM7.10059 17.5566C5.65039 17.5566 4.88574 16.7304 4.88574 15.667C4.88574 14.7529 5.43066 13.9707 6.70508 13.6279C7.14453 13.5136 7.29395 13.3115 7.34668 12.8545C7.59277 10.3672 9.35059 8.69723 11.4951 8.69723C13.1475 8.69723 14.4482 9.62009 15.2744 11.2461C15.4766 11.6328 15.6963 11.7646 16.1621 11.7646C18.4385 11.7646 19.6602 13.0918 19.6602 14.7002C19.6602 16.291 18.3857 17.5566 16.6719 17.5566H7.10059ZM14.4922 22.2675H12.6729L13.4551 20.7734C13.5605 20.5888 13.4814 20.4394 13.2881 20.4394H11.293C11.0469 20.4394 10.9678 20.5361 10.8887 20.7119L9.7373 23.3134C9.64941 23.5244 9.7373 23.665 9.96582 23.665H11.4775L10.335 26.4336C10.2822 26.5478 10.3086 26.6445 10.3877 26.6797C10.4756 26.706 10.5635 26.6884 10.6602 26.5918L14.624 22.6982C14.8086 22.5136 14.7383 22.2675 14.4922 22.2675Z" fill="#1C1C1E"/>
</svg>
