<svg width="28" height="28" viewBox="0 0 28 28" fill="none" xmlns="http://www.w3.org/2000/svg">
<path d="M8.07617 17.917H19.0361C21.8926 17.917 24.0986 15.7549 24.0986 12.9775C24.0986 10.1562 21.8135 8.03809 18.7988 8.06445C17.665 5.78809 15.5996 4.50488 13.0947 4.50488C9.80762 4.50488 7.04785 7.03613 6.74023 10.3408C5.02637 10.8418 3.89258 12.292 3.89258 14.0762C3.89258 16.3438 5.59766 17.917 8.07617 17.917ZM8.49805 22.54C8.67383 22.54 8.79688 22.373 8.7793 22.1973L8.7002 21.3623L9.39453 21.8457C9.53516 21.9512 9.74609 21.916 9.83398 21.7666C9.93066 21.6172 9.86914 21.4062 9.68457 21.3271L8.92871 20.9756L9.69336 20.6152C9.86914 20.5273 9.92188 20.334 9.84277 20.1846C9.75488 20.0264 9.53516 20 9.39453 20.1055L8.70898 20.5889L8.78809 19.7539C8.81445 19.5605 8.67383 19.4111 8.49805 19.4111C8.2959 19.4111 8.18164 19.5605 8.19043 19.7539L8.26953 20.5889L7.5752 20.0967C7.43457 20 7.23242 20.0176 7.13574 20.1846C7.04785 20.334 7.10059 20.5273 7.28516 20.6152L8.04102 20.9756L7.28516 21.3271C7.10059 21.4062 7.04785 21.6084 7.12695 21.7666C7.21484 21.9248 7.43457 21.9512 7.5752 21.8457L8.26953 21.3623L8.19922 22.1973C8.18164 22.373 8.2959 22.54 8.49805 22.54ZM18.2363 22.54C18.4121 22.54 18.5352 22.373 18.5176 22.1973L18.4385 21.3623L19.1328 21.8457C19.2734 21.9512 19.4844 21.916 19.5723 21.7666C19.6689 21.6172 19.6074 21.4062 19.4229 21.3271L18.667 20.9756L19.4316 20.6152C19.6074 20.5273 19.6602 20.334 19.5811 20.1846C19.4932 20.0264 19.2734 20 19.1328 20.1055L18.4473 20.5889L18.5264 19.7539C18.5439 19.5605 18.4121 19.4111 18.2363 19.4111C18.0342 19.4111 17.9199 19.5605 17.9287 19.7539L17.999 20.5889L17.3135 20.0967C17.1729 20 16.9707 20.0176 16.874 20.1846C16.7861 20.334 16.8389 20.5273 17.0234 20.6152L17.7793 20.9756L17.0234 21.3271C16.8389 21.4062 16.7773 21.6084 16.8652 21.7666C16.9531 21.9248 17.1729 21.9512 17.3135 21.8457L17.999 21.3623L17.9375 22.1973C17.9199 22.373 18.0342 22.54 18.2363 22.54ZM13.3672 22.54C13.543 22.54 13.666 22.373 13.6484 22.1973L13.5693 21.3623L14.2637 21.8457C14.4043 21.9512 14.6152 21.916 14.7031 21.7666C14.7998 21.6172 14.7383 21.4062 14.5537 21.3271L13.7979 20.9756L14.5625 20.6152C14.7383 20.5273 14.791 20.334 14.7119 20.1846C14.624 20.0264 14.4043 20 14.2637 20.1055L13.5781 20.5889L13.6572 19.7539C13.6748 19.5605 13.543 19.4111 13.3672 19.4111C13.165 19.4111 13.0508 19.5605 13.0596 19.7539L13.1387 20.5889L12.4443 20.0967C12.3037 20 12.1016 20.0176 12.0049 20.1846C11.917 20.334 11.9697 20.5273 12.1543 20.6152L12.9102 20.9756L12.1543 21.3271C11.9697 21.4062 11.9082 21.6084 11.9961 21.7666C12.084 21.9248 12.3037 21.9512 12.4443 21.8457L13.1387 21.3623L13.0684 22.1973C13.0508 22.373 13.165 22.54 13.3672 22.54ZM11.46 25.8359C11.6357 25.8359 11.7588 25.6777 11.7412 25.4932L11.6621 24.6582L12.3564 25.1416C12.4971 25.2471 12.708 25.2119 12.7959 25.0625C12.8926 24.9131 12.8311 24.7021 12.6465 24.623L11.8906 24.2715L12.6553 23.9111C12.8311 23.832 12.8838 23.6299 12.8047 23.4805C12.7168 23.3223 12.4971 23.2959 12.3564 23.4014L11.6709 23.8848L11.75 23.0498C11.7676 22.8652 11.6357 22.707 11.46 22.707C11.2578 22.707 11.1436 22.8652 11.1523 23.0498L11.2314 23.8848L10.5371 23.4014C10.3965 23.2959 10.1943 23.3135 10.0977 23.4805C10.0098 23.6299 10.0625 23.8232 10.2471 23.9111L11.0029 24.2715L10.2471 24.623C10.0625 24.7109 10.001 24.9131 10.0889 25.0625C10.1768 25.2207 10.3965 25.2471 10.5371 25.1416L11.2314 24.667L11.1611 25.4932C11.1436 25.6777 11.2578 25.8359 11.46 25.8359ZM6.59082 25.8359C6.7666 25.8359 6.88965 25.6777 6.87207 25.4932L6.80176 24.6582L7.4873 25.1416C7.62793 25.2471 7.83887 25.2119 7.92676 25.0625C8.02344 24.9131 7.96191 24.7021 7.77734 24.623L7.02148 24.2715L7.78613 23.9111C7.96191 23.832 8.01465 23.6299 7.93555 23.4805C7.85645 23.3223 7.62793 23.2959 7.4873 23.4014L6.80176 23.8848L6.88086 23.0498C6.90723 22.8652 6.7666 22.707 6.59082 22.707C6.39746 22.707 6.27441 22.8652 6.2832 23.0498L6.3623 23.8848L5.66797 23.4014C5.52734 23.2959 5.3252 23.3135 5.22852 23.4805C5.14062 23.6299 5.19336 23.8232 5.37793 23.9111L6.13379 24.2715L5.37793 24.623C5.19336 24.7109 5.14062 24.9131 5.21973 25.0625C5.30762 25.2207 5.52734 25.2471 5.66797 25.1416L6.3623 24.667L6.29199 25.4932C6.27441 25.6777 6.39746 25.8359 6.59082 25.8359ZM16.3291 25.8359C16.5049 25.8359 16.6279 25.6777 16.6104 25.4932L16.5312 24.6582L17.2256 25.1416C17.3662 25.2471 17.5771 25.2119 17.665 25.0625C17.7617 24.9131 17.7002 24.7021 17.5156 24.623L16.7598 24.2715L17.5244 23.9111C17.7002 23.832 17.7529 23.6299 17.6738 23.4805C17.5859 23.3223 17.3662 23.2959 17.2256 23.4014L16.54 23.8848L16.6191 23.0498C16.6367 22.8652 16.5049 22.707 16.3291 22.707C16.127 22.707 16.0127 22.8652 16.0215 23.0498L16.0918 23.8848L15.4062 23.4014C15.2656 23.2959 15.0635 23.3135 14.9668 23.4805C14.8789 23.6299 14.9316 23.8232 15.1162 23.9111L15.8721 24.2715L15.1162 24.623C14.9316 24.7109 14.8701 24.9131 14.958 25.0625C15.0459 25.2207 15.2656 25.2471 15.4062 25.1416L16.0918 24.667L16.0303 25.4932C16.0127 25.6777 16.127 25.8359 16.3291 25.8359Z" fill="#1C1C1E"/>
</svg>
