<svg width="28" height="28" viewBox="0 0 28 28" fill="none" xmlns="http://www.w3.org/2000/svg">
<path d="M8.07617 18.0225H19.0361C21.9805 18.0225 24.1953 15.7812 24.1953 12.9863C24.1953 10.1211 21.875 7.98535 18.8604 7.98535C17.7793 5.86719 15.7842 4.42578 13.1035 4.42578C9.72852 4.42578 6.99512 7.01855 6.66113 10.2881C5.03516 10.7891 3.80469 12.1953 3.80469 14.0938C3.80469 16.2822 5.41309 18.0225 8.07617 18.0225ZM8.08496 16.3525C6.34473 16.3525 5.47461 15.3945 5.47461 14.1377C5.47461 13.0918 6.09863 12.1953 7.56641 11.8086C8.07617 11.668 8.24316 11.4395 8.28711 10.9209C8.55078 8.03809 10.6162 6.0957 13.1035 6.0957C15.0107 6.0957 16.54 7.15918 17.4893 9.0752C17.709 9.51465 17.9727 9.66406 18.5088 9.66406C21.1191 9.66406 22.5254 11.1846 22.5254 13.0303C22.5254 14.876 21.0664 16.3525 19.0889 16.3525H8.08496ZM16.25 21.2744H14.3867L15.2217 19.666C15.3271 19.4727 15.248 19.3232 15.0547 19.3232H12.9805C12.7256 19.3232 12.6377 19.4111 12.5586 19.5957L11.3369 22.3818C11.2402 22.6016 11.3369 22.7334 11.5654 22.7334H13.1211L11.9346 25.625C11.8818 25.7393 11.9082 25.8447 11.9961 25.8799C12.0752 25.9062 12.1719 25.8887 12.2686 25.792L16.3906 21.7139C16.584 21.5205 16.5049 21.2744 16.25 21.2744Z" fill="#1C1C1E"/>
</svg>
