<svg width="28" height="28" viewBox="0 0 28 28" fill="none" xmlns="http://www.w3.org/2000/svg">
<path d="M8.67383 21.8809H19.3174C21.2246 21.8809 22.209 20.8965 22.209 19.0156V8.31934C22.209 6.43848 21.2246 5.4541 19.3174 5.4541H8.67383C6.77539 5.4541 5.78223 6.42969 5.78223 8.31934V19.0156C5.78223 20.8965 6.77539 21.8809 8.67383 21.8809ZM8.78809 20.1318C7.97949 20.1318 7.53125 19.71 7.53125 18.8574V8.47754C7.53125 7.625 7.97949 7.20312 8.78809 7.20312H19.2031C20.0029 7.20312 20.46 7.625 20.46 8.47754V18.8574C20.46 19.71 20.0029 20.1318 19.2031 20.1318H8.78809ZM10.4229 13.7158C10.4229 15.2803 10.9414 16.4756 11.8555 17.1699L11.5654 18.3125C11.5479 18.3828 11.5391 18.4443 11.5391 18.5059C11.5391 18.752 11.7061 18.9189 11.9434 18.9189C12.1455 18.9189 12.3037 18.8135 12.3564 18.5938L12.6025 17.6006C12.8311 17.6973 13.0684 17.7676 13.3232 17.8115L13.1914 18.3213C13.1738 18.4004 13.165 18.4531 13.165 18.5059C13.165 18.7607 13.3232 18.9189 13.5693 18.9189C13.7803 18.9189 13.9297 18.8135 13.9912 18.5938L14.1758 17.8555C15.5908 17.7939 16.6367 17.0645 17.0322 15.9746C17.0938 15.8252 17.1289 15.6582 17.1289 15.5C17.1289 15.1309 16.874 14.8584 16.4873 14.8584C16.1533 14.8584 15.96 15.0605 15.8457 15.377C15.6611 16.001 15.1602 16.4668 14.4834 16.5811L15.6787 11.8525C15.749 11.9229 15.8105 12.0371 15.8545 12.1777C15.9688 12.4062 16.1182 12.5996 16.4434 12.5996C16.8213 12.5996 17.0674 12.3447 17.0674 11.9756C17.0674 11.7998 17.0234 11.6328 16.9531 11.4746C16.7686 11 16.4609 10.5957 16.0654 10.2881L16.3291 9.25098C16.3467 9.18066 16.3555 9.12793 16.3555 9.06641C16.3555 8.82031 16.1973 8.65332 15.9512 8.65332C15.749 8.65332 15.582 8.75879 15.5293 8.97852L15.3096 9.84863C15.0898 9.75195 14.8525 9.69043 14.5977 9.64648L14.6943 9.25098C14.7119 9.18066 14.7295 9.12793 14.7295 9.06641C14.7295 8.82031 14.5625 8.65332 14.3164 8.65332C14.1143 8.65332 13.9561 8.75879 13.9033 8.97852L13.7451 9.61133C11.7148 9.72559 10.4229 11.29 10.4229 13.7158ZM12.9102 16.3613L14.3076 10.833C14.5625 10.8682 14.7998 10.9648 15.0107 11.0967L13.6133 16.625C13.3496 16.5898 13.1123 16.4932 12.9102 16.3613ZM11.8115 13.7158C11.8115 12.2129 12.418 11.167 13.4199 10.8945L12.2422 15.5791C11.9697 15.0957 11.8115 14.4717 11.8115 13.7158Z" fill="#1C1C1E"/>
</svg>
