<svg width="28" height="28" viewBox="0 0 28 28" fill="none" xmlns="http://www.w3.org/2000/svg">
<path d="M8.67383 21.8809H19.3174C21.2246 21.8809 22.209 20.8965 22.209 19.0156V8.31934C22.209 6.43848 21.2246 5.4541 19.3174 5.4541H8.67383C6.77539 5.4541 5.78223 6.42969 5.78223 8.31934V19.0156C5.78223 20.8965 6.77539 21.8809 8.67383 21.8809ZM10.291 13.7246C10.291 11.1934 11.6357 9.56738 13.7539 9.44434L13.9121 8.79395C13.9648 8.56543 14.1406 8.45117 14.3516 8.45117C14.6064 8.45117 14.7822 8.62695 14.7822 8.88184C14.7822 8.94336 14.7559 9.00488 14.7383 9.0752L14.6416 9.47949C14.9053 9.53223 15.1514 9.60254 15.3799 9.69922L15.6084 8.79395C15.6699 8.56543 15.8281 8.45117 16.0391 8.45117C16.2939 8.45117 16.4697 8.62695 16.4697 8.88184C16.4697 8.95215 16.4521 9.01367 16.4346 9.0752L16.1709 10.1475C16.5752 10.4727 16.9004 10.8857 17.0938 11.3779C17.1641 11.5537 17.208 11.7295 17.208 11.9053C17.208 12.3008 16.9531 12.5645 16.5576 12.5645C16.2236 12.5645 16.0566 12.3623 15.9424 12.1162C15.8984 11.9844 15.8281 11.8613 15.7666 11.791L14.5273 16.6953C15.2129 16.5723 15.7314 16.0889 15.9336 15.4385C16.0479 15.1133 16.2588 14.9023 16.6016 14.9023C17.0146 14.9023 17.2783 15.1836 17.2783 15.5791C17.2783 15.7373 17.2344 15.9131 17.1816 16.0625C16.7686 17.2051 15.6699 17.9697 14.2021 18.0225L14.0088 18.7959C13.9473 19.0244 13.7891 19.1299 13.5693 19.1299C13.3145 19.1299 13.1475 18.9629 13.1475 18.708C13.1475 18.6465 13.1562 18.585 13.1826 18.5059L13.3145 17.9785C13.0508 17.9346 12.8047 17.8643 12.5762 17.7588L12.3213 18.7959C12.2598 19.0244 12.0928 19.1299 11.8818 19.1299C11.6357 19.1299 11.4512 18.9629 11.4512 18.6992C11.4512 18.6377 11.46 18.5674 11.4863 18.5059L11.7764 17.3105C10.8359 16.5986 10.291 15.3506 10.291 13.7246ZM12.8926 16.458C13.1035 16.5986 13.3408 16.7041 13.6221 16.748L15.0547 11C14.8438 10.8682 14.5977 10.7715 14.334 10.7363L12.8926 16.458ZM11.7588 13.7246C11.7588 14.498 11.9082 15.1484 12.1982 15.6406L13.4111 10.7979C12.3828 11.0791 11.7588 12.1689 11.7588 13.7246Z" fill="#1C1C1E"/>
</svg>
