<svg width="28" height="28" viewBox="0 0 28 28" fill="none" xmlns="http://www.w3.org/2000/svg">
<path d="M13.9912 22.7422C18.9746 22.7422 23.0879 18.6289 23.0879 13.6543C23.0879 8.67969 18.9658 4.56641 13.9824 4.56641C9.00781 4.56641 4.90332 8.67969 4.90332 13.6543C4.90332 18.6289 9.0166 22.7422 13.9912 22.7422ZM13.9912 20.9316C9.95703 20.9316 6.73145 17.6885 6.73145 13.6543C6.73145 9.62012 9.95703 6.38574 13.9824 6.38574C18.0166 6.38574 21.2598 9.62012 21.2686 13.6543C21.2773 17.6885 18.0254 20.9316 13.9912 20.9316ZM10.4053 13.7246C10.4053 15.2891 10.9326 16.4844 11.8379 17.1787L11.5479 18.3213C11.5303 18.3828 11.5215 18.4531 11.5215 18.5059C11.5215 18.752 11.6885 18.9277 11.9258 18.9277C12.1279 18.9277 12.2861 18.8223 12.3389 18.6025L12.5938 17.6094C12.8135 17.6973 13.0596 17.7676 13.3057 17.8115L13.1738 18.3301C13.1562 18.4004 13.1475 18.4619 13.1475 18.5146C13.1475 18.7607 13.3057 18.9277 13.5605 18.9277C13.7627 18.9277 13.9209 18.8223 13.9736 18.6025L14.1582 17.8643C15.5732 17.8027 16.6279 17.0645 17.0234 15.9746C17.0762 15.8252 17.1113 15.667 17.1113 15.5088C17.1113 15.1309 16.8652 14.8672 16.4697 14.8672C16.1445 14.8672 15.9424 15.0693 15.8281 15.377C15.6436 16.0098 15.1426 16.4756 14.4658 16.5898L15.6699 11.8525C15.7314 11.9229 15.793 12.0459 15.8369 12.1777C15.9512 12.4062 16.1006 12.5996 16.4258 12.5996C16.8125 12.5996 17.0498 12.3535 17.0498 11.9756C17.0498 11.8086 17.0146 11.6328 16.9443 11.4746C16.751 11 16.4434 10.6045 16.0479 10.2881L16.3115 9.25977C16.3291 9.18945 16.3379 9.12793 16.3379 9.0752C16.3379 8.8291 16.1797 8.66211 15.9336 8.66211C15.7314 8.66211 15.5732 8.75879 15.5117 8.9873L15.292 9.85742C15.0723 9.76074 14.835 9.69922 14.5801 9.64648L14.6768 9.25098C14.7031 9.18945 14.7119 9.12793 14.7119 9.0752C14.7119 8.8291 14.5537 8.66211 14.2988 8.66211C14.0967 8.66211 13.9385 8.76758 13.8857 8.9873L13.7275 9.61133C11.6973 9.72559 10.4053 11.2988 10.4053 13.7246ZM12.8926 16.3613L14.29 10.8418C14.5449 10.877 14.7822 10.9736 14.9932 11.0967L13.6045 16.6338C13.332 16.5898 13.1035 16.502 12.8926 16.3613ZM11.8027 13.7246C11.8027 12.2217 12.4004 11.1758 13.4111 10.8945L12.2334 15.5791C11.9521 15.1045 11.8027 14.4717 11.8027 13.7246Z" fill="#1C1C1E"/>
</svg>
