<svg width="28" height="28" viewBox="0 0 28 28" fill="none" xmlns="http://www.w3.org/2000/svg">
<path d="M4.72749 15.7021C3.40034 17.0204 3.38276 18.6991 4.70112 20.0175L8.70893 24.0253C9.04292 24.3593 9.59663 24.3593 9.93061 24.0253C10.2558 23.6913 10.2646 23.1552 9.93061 22.8212L7.86518 20.7646L8.68256 19.9472L10.8447 22.1269C11.0996 22.3729 11.5126 22.3817 11.7587 22.1269C12.0136 21.872 12.0224 21.4589 11.7675 21.204L9.59663 19.0331L10.4052 18.2245L12.5761 20.3954C12.8222 20.6503 13.2441 20.6503 13.4902 20.3954C13.7363 20.1493 13.7451 19.7362 13.499 19.4813L11.3193 17.3104L12.1367 16.4931L14.2988 18.6728C14.5537 18.9188 14.9667 18.9188 15.2128 18.6728C15.4677 18.4179 15.4765 18.0048 15.2216 17.7499L13.0507 15.579L13.8593 14.7704L16.0302 16.9413C16.2851 17.1962 16.6982 17.1962 16.9443 16.9413C17.1904 16.6864 17.1992 16.2733 16.9531 16.0185L14.7734 13.8476L15.582 13.0478L17.7529 15.2187C17.999 15.4647 18.4208 15.4647 18.6669 15.2187C18.9218 14.9726 18.9306 14.5507 18.6757 14.2958L16.5048 12.1249L17.3134 11.3163L19.4843 13.4872C19.7304 13.7333 20.1523 13.7333 20.3896 13.496C20.6445 13.2411 20.6533 12.828 20.3984 12.5731L18.2275 10.3935L19.0361 9.58486L21.207 11.7558C21.4619 12.0194 21.8749 12.0194 22.121 11.7646C22.3759 11.5097 22.3847 11.0966 22.1298 10.8417L19.9589 8.6708L20.7675 7.86221L22.8242 9.91885C23.1581 10.2528 23.6943 10.2616 24.0283 9.92764C24.3535 9.58486 24.3623 9.04873 24.0283 8.71475L20.0117 4.70693C18.6933 3.38857 17.0234 3.39736 15.6962 4.72451L4.72749 15.7021ZM6.07221 18.9628C5.37788 18.2685 5.3603 17.4774 6.04584 16.7831L16.7949 6.05166C17.4804 5.36611 18.2802 5.3749 18.9658 6.06045L19.5546 6.64932L6.66108 19.5517L6.07221 18.9628Z" fill="#1C1C1E"/>
</svg>
