<svg width="28" height="28" viewBox="0 0 28 28" fill="none" xmlns="http://www.w3.org/2000/svg">
<path d="M8.67383 21.8809H19.3174C21.2246 21.8809 22.209 20.8965 22.209 19.0156V8.31934C22.209 6.43848 21.2246 5.4541 19.3174 5.4541H8.67383C6.77539 5.4541 5.78223 6.42969 5.78223 8.31934V19.0156C5.78223 20.8965 6.77539 21.8809 8.67383 21.8809ZM8.78809 20.1318C7.97949 20.1318 7.53125 19.71 7.53125 18.8574V8.47754C7.53125 7.625 7.97949 7.20312 8.78809 7.20312H19.2031C20.0029 7.20312 20.46 7.625 20.46 8.47754V18.8574C20.46 19.71 20.0029 20.1318 19.2031 20.1318H8.78809ZM11.9609 12.9336V14.3838H11.3545C10.3174 14.3838 9.47363 15.2188 9.47363 16.2471C9.47363 17.293 10.3174 18.1367 11.3545 18.1367C12.3916 18.1367 13.2354 17.2842 13.2354 16.2471V15.6494H14.6592V16.2471C14.6592 17.2842 15.5117 18.1367 16.54 18.1367C17.5859 18.1367 18.4209 17.293 18.4209 16.2471C18.4209 15.2188 17.5859 14.3838 16.54 14.3838H15.9424V12.9336H16.54C17.5859 12.9336 18.4209 12.0986 18.4209 11.0703C18.4209 10.0244 17.5859 9.18945 16.54 9.18945C15.5117 9.18945 14.6592 10.042 14.6592 11.0703V11.668H13.2354V11.0703C13.2354 10.042 12.3916 9.18945 11.3545 9.18945C10.3174 9.18945 9.47363 10.0244 9.47363 11.0703C9.47363 12.0986 10.3174 12.9336 11.3545 12.9336H11.9609ZM11.3721 11.7031C11.0117 11.7031 10.7305 11.4219 10.7305 11.0703C10.7305 10.7275 11.0117 10.4463 11.3545 10.4463C11.6973 10.4463 11.9785 10.7363 11.9785 11.0879V11.7031H11.3721ZM16.5225 11.7031H15.9248V11.0879C15.9248 10.7363 16.1973 10.4463 16.54 10.4463C16.8828 10.4463 17.1729 10.7275 17.1729 11.0703C17.1729 11.4219 16.8828 11.7031 16.5225 11.7031ZM13.2178 14.4102V12.9072H14.6768V14.4102H13.2178ZM11.3721 15.6143H11.9785V16.2295C11.9785 16.5898 11.6973 16.8711 11.3545 16.8711C11.0117 16.8711 10.7305 16.5898 10.7305 16.2471C10.7305 15.9043 11.0205 15.6143 11.3721 15.6143ZM16.5225 15.6143C16.874 15.6143 17.1729 15.9043 17.1729 16.2471C17.1729 16.5898 16.8916 16.8711 16.54 16.8711C16.1973 16.8711 15.9248 16.5898 15.9248 16.2295V15.6143H16.5225Z" fill="#1C1C1E"/>
</svg>
