<svg width="28" height="28" viewBox="0 0 28 28" fill="none" xmlns="http://www.w3.org/2000/svg">
<path d="M14.7646 5.14637L17.0762 6.86024C17.5947 7.23817 18.1396 7.07118 18.1396 6.412V5.31336H18.4297C20.293 5.31336 21.4971 6.63172 21.4971 8.48622V9.87489C21.4971 10.2265 21.7871 10.5253 22.1387 10.5253C22.4902 10.5253 22.7803 10.2265 22.7803 9.87489V8.48622C22.7803 5.88465 21.0049 4.11805 18.4209 4.11805H18.1396V2.97547C18.1396 2.29872 17.5947 2.13172 17.0762 2.51844L14.7646 4.2411C14.3955 4.51356 14.3867 4.86512 14.7646 5.14637ZM5.03516 10.2089C5.03516 10.7098 5.38672 11.0438 5.92285 11.0438H9.59668V17.2577C9.59668 17.7147 9.9043 18.0136 10.3613 18.0136H16.6631V21.6259C16.6631 22.162 17.0146 22.5311 17.542 22.5311C18.0781 22.5311 18.4297 22.162 18.4297 21.6259V18.0136H22.0684C22.5957 18.0136 22.9561 17.6796 22.9561 17.1698C22.9561 16.6688 22.5957 16.3348 22.0684 16.3348H18.4297V10.121C18.4297 9.66395 18.1309 9.36512 17.6738 9.36512H11.3721V5.79676C11.3721 5.26063 11.0205 4.89149 10.4932 4.89149C9.95703 4.89149 9.59668 5.26063 9.59668 5.79676V9.36512H5.92285C5.38672 9.36512 5.03516 9.7079 5.03516 10.2089ZM11.627 16.3348C11.4424 16.3348 11.3721 16.2645 11.3721 16.08V11.0438H16.4082C16.584 11.0438 16.6631 11.1141 16.6631 11.2987V16.3348H11.627ZM5.26367 18.9013C5.26367 21.5028 7.03906 23.2694 9.62305 23.2694H9.9043V24.4032C9.9043 25.0888 10.4492 25.2557 10.9678 24.869L13.2793 23.1464C13.6484 22.8739 13.6572 22.5136 13.2793 22.2411L10.9678 20.5272C10.458 20.1493 9.9043 20.3163 9.9043 20.9755V22.0741H9.61426C7.75977 22.0741 6.54688 20.7557 6.54688 18.9013V17.5038C6.54688 17.1522 6.25684 16.8622 5.90527 16.8622C5.55371 16.8622 5.26367 17.1522 5.26367 17.5038V18.9013Z" fill="#1C1C1E"/>
</svg>
