<svg width="28" height="28" viewBox="0 0 28 28" fill="none" xmlns="http://www.w3.org/2000/svg">
<path d="M4.26172 9.18066C4.26172 9.68164 4.61328 10.0244 5.14941 10.0244H8.35742V18.7695C8.35742 19.2266 8.65625 19.5254 9.11328 19.5254H17.876V22.7686C17.876 23.3135 18.2539 23.6738 18.7549 23.6738C19.2646 23.6738 19.6426 23.3135 19.6426 22.7686V19.5254H22.8506C23.3867 19.5254 23.7383 19.1826 23.7383 18.6904C23.7383 18.1895 23.3867 17.8467 22.8506 17.8467H19.6426V9.10156C19.6426 8.64453 19.3438 8.33691 18.8867 8.33691H10.1328V5.10254C10.1328 4.55762 9.75488 4.18848 9.24512 4.18848C8.74414 4.18848 8.35742 4.55762 8.35742 5.10254V8.33691H5.14941C4.61328 8.33691 4.26172 8.68848 4.26172 9.18066ZM10.3789 17.8467C10.2031 17.8467 10.1328 17.7764 10.1328 17.5918V10.0244H17.6211C17.7969 10.0244 17.876 10.0947 17.876 10.2705V17.8467H10.3789Z" fill="#1C1C1E"/>
</svg>
