<svg width="28" height="28" viewBox="0 0 28 28" fill="none" xmlns="http://www.w3.org/2000/svg">
<path d="M13.9912 22.7598C18.9746 22.7598 23.0879 18.6465 23.0879 13.6631C23.0879 8.68848 18.9658 4.5752 13.9824 4.5752C9.00781 4.5752 4.90332 8.68848 4.90332 13.6631C4.90332 18.6465 9.0166 22.7598 13.9912 22.7598ZM8.97266 14.5244V12.7842C8.97266 12.1689 9.38574 11.7559 10.001 11.7559H12.084V9.69043C12.084 9.06641 12.4883 8.65332 13.1123 8.65332H14.8525C15.4678 8.65332 15.8809 9.06641 15.8809 9.69043V11.7559H17.9551C18.5703 11.7559 18.9922 12.1689 18.9922 12.7842V14.5244C18.9922 15.1396 18.5703 15.5615 17.9551 15.5615H15.8809V17.627C15.8809 18.251 15.4678 18.6641 14.8525 18.6641H13.1123C12.4883 18.6641 12.084 18.251 12.084 17.627V15.5615H10.0098C9.39453 15.5615 8.97266 15.1396 8.97266 14.5244Z" fill="#1C1C1E"/>
</svg>
