<svg width="28" height="28" viewBox="0 0 28 28" fill="none" xmlns="http://www.w3.org/2000/svg">
<path d="M6.44141 22.2236H21.5498C23.4395 22.2236 24.4062 21.2744 24.4062 19.4023V10.7891C24.4062 8.92578 23.4395 7.96777 21.5498 7.96777H19.3262V7.27344C19.3262 5.6123 18.4297 4.82129 16.7686 4.82129H11.2139C9.63184 4.82129 8.66504 5.6123 8.66504 7.27344V7.96777H6.44141C4.56055 7.96777 3.58496 8.92578 3.58496 10.7891V19.4023C3.58496 21.2744 4.56055 22.2236 6.44141 22.2236ZM10.2734 7.20312C10.2734 6.61426 10.625 6.28027 11.2402 6.28027H16.751C17.3662 6.28027 17.709 6.61426 17.709 7.20312V7.96777H10.2734V7.20312ZM6.51172 20.5361C5.74707 20.5361 5.33398 20.1494 5.33398 19.3496V10.8418C5.33398 10.0508 5.74707 9.65527 6.51172 9.65527H21.4795C22.2441 9.65527 22.6572 10.0508 22.6572 10.8418V19.3496C22.6572 20.1494 22.2441 20.5361 21.4795 20.5361H6.51172ZM9.7373 15.8779C9.7373 16.3965 10.0977 16.748 10.6162 16.748H12.3477V18.4795C12.3477 18.998 12.6904 19.3496 13.209 19.3496H14.7734C15.292 19.3496 15.6436 18.998 15.6436 18.4795V16.748H17.375C17.8936 16.748 18.2451 16.3965 18.2451 15.8779V14.3135C18.2451 13.7949 17.8936 13.4521 17.375 13.4521H15.6436V11.7207C15.6436 11.2021 15.292 10.8506 14.7734 10.8506H13.209C12.6904 10.8506 12.3477 11.2021 12.3477 11.7207V13.4521H10.6162C10.0889 13.4521 9.7373 13.7949 9.7373 14.3135V15.8779Z" fill="#1C1C1E"/>
</svg>
