<svg width="28" height="28" viewBox="0 0 28 28" fill="none" xmlns="http://www.w3.org/2000/svg">
<path d="M7.82129 21.3359C7.82129 23.1553 9.00781 24.3506 10.792 24.3506H17.1992C18.9834 24.3506 20.1699 23.1553 20.1699 21.3359V11.4219C20.1699 9.62891 19.0186 8.44238 17.2783 8.40723V7.25586C18.1133 7.1416 18.5967 6.54395 18.5967 5.6123V4.60156C18.5967 3.56445 17.999 2.94043 16.9795 2.94043H11.0117C9.99219 2.94043 9.38574 3.56445 9.38574 4.60156V5.6123C9.38574 6.54395 9.87793 7.1416 10.7129 7.25586V8.40723C8.96387 8.44238 7.82129 9.62891 7.82129 11.4219V21.3359ZM10.8887 5.48926V4.71582C10.8887 4.52246 11.0029 4.39062 11.2139 4.39062H16.8125C17.0146 4.39062 17.1377 4.52246 17.1377 4.71582V5.48926C17.1377 5.69141 17.0146 5.81445 16.8125 5.81445H11.2139C11.0029 5.81445 10.8887 5.69141 10.8887 5.48926ZM12.1191 8.40723V7.27344H15.8721V8.40723H12.1191ZM9.41211 21.3184V11.4395C9.41211 10.5693 9.97461 10.0068 10.8623 10.0068H17.1201C18.0078 10.0068 18.5791 10.5693 18.5791 11.4395V21.3184C18.5791 22.1973 18.0078 22.7686 17.1201 22.7686H10.8623C9.97461 22.7686 9.41211 22.1973 9.41211 21.3184ZM10.748 16.9502C10.748 17.3457 11.0117 17.6094 11.3984 17.6094H12.7695V18.9629C12.7695 19.3584 13.0244 19.6221 13.4199 19.6221H14.5625C14.958 19.6221 15.2217 19.3584 15.2217 18.9629V17.6094H16.584C16.9707 17.6094 17.2432 17.3457 17.2432 16.9502V15.8076C17.2432 15.4121 16.9707 15.1572 16.584 15.1572H15.2217V13.7949C15.2217 13.3994 14.958 13.1357 14.5625 13.1357H13.4199C13.0244 13.1357 12.7695 13.3994 12.7695 13.7949V15.1572H11.3984C11.0117 15.1572 10.748 15.4121 10.748 15.8076V16.9502Z" fill="#1C1C1E"/>
</svg>
