<svg width="28" height="28" viewBox="0 0 28 28" fill="none" xmlns="http://www.w3.org/2000/svg">
<path d="M21.418 19.7627L23.1494 12.7402C24.4414 12.7402 25.5312 11.6592 25.5312 10.3145C25.5312 8.9873 24.4414 7.89746 23.1055 7.89746C21.7695 7.89746 20.6885 8.9873 20.6885 10.3145C20.6885 10.5869 20.7324 10.8418 20.8115 11.0791L18.7197 12.3711C18.4473 12.5381 18.2803 12.4941 18.1309 12.2832L15.3975 8.60059C16.0127 8.16113 16.417 7.44043 16.417 6.62305C16.417 5.2959 15.3271 4.20605 14 4.20605C12.6553 4.20605 11.5742 5.28711 11.5742 6.62305C11.5742 7.44043 11.9785 8.16113 12.6025 8.60059L9.86035 12.292C9.71973 12.4854 9.56152 12.5293 9.30664 12.3711L7.18848 11.0615C7.25879 10.8242 7.30273 10.5781 7.30273 10.3145C7.30273 8.9873 6.22168 7.89746 4.88574 7.89746C3.54102 7.89746 2.45996 8.9873 2.45996 10.3145C2.45996 11.6416 3.53223 12.7227 4.85059 12.7402L6.57324 19.7627C6.93359 21.2217 7.72461 21.9512 9.23633 21.9512H18.7637C20.2754 21.9512 21.0664 21.2217 21.418 19.7627ZM14 7.50195C13.5166 7.50195 13.1211 7.10645 13.1211 6.62305C13.1211 6.13086 13.5166 5.75293 14 5.75293C14.4746 5.75293 14.8701 6.14844 14.8701 6.62305C14.8701 7.10645 14.4834 7.50195 14 7.50195ZM8.71777 13.8828C9.4209 14.2959 10.4141 14.252 11.0293 13.4258L14 9.42676L16.9971 13.4521C17.5947 14.2695 18.5791 14.3135 19.2383 13.918L21.5234 12.5381L20.4248 17.0293H7.56641L6.46777 12.5117L8.71777 13.8828ZM4.88574 11.1934C4.40234 11.1934 4.00684 10.7979 4.00684 10.3145C4.00684 9.83105 4.40234 9.44434 4.88574 9.44434C5.36035 9.44434 5.75586 9.83984 5.75586 10.3145C5.75586 10.7979 5.36914 11.1934 4.88574 11.1934ZM23.1055 11.1934C22.6133 11.1934 22.2354 10.7979 22.2354 10.3145C22.2354 9.83984 22.6309 9.44434 23.1055 9.44434C23.5889 9.44434 23.9844 9.83105 23.9844 10.3145C23.9844 10.7979 23.5889 11.1934 23.1055 11.1934ZM9.21875 20.334C8.64746 20.334 8.30469 20.0703 8.18164 19.5342L7.96191 18.6553H20.0293L19.8184 19.5342C19.6865 20.0703 19.3525 20.334 18.7725 20.334H9.21875Z" fill="#1C1C1E"/>
</svg>
