<svg width="28" height="28" viewBox="0 0 28 28" fill="none" xmlns="http://www.w3.org/2000/svg">
<path d="M5.95801 17.1963H22.0684L23.2549 12.3535C23.2637 12.3535 23.2812 12.3535 23.2988 12.3535C24.5205 12.3535 25.5225 11.3516 25.5225 10.1211C25.5225 8.89941 24.5293 7.89746 23.2988 7.89746C22.0684 7.89746 21.0752 8.9082 21.0752 10.1211C21.0752 10.4551 21.1455 10.7803 21.2773 11.0615L18.7285 12.8984C18.4648 13.083 18.2803 13.0215 18.1396 12.8105L15.1074 8.32812C15.7754 7.94141 16.2324 7.21191 16.2324 6.38574C16.2324 5.16406 15.2305 4.16211 14.0088 4.16211C12.7695 4.16211 11.7764 5.16406 11.7764 6.38574C11.7764 7.21191 12.2334 7.94141 12.9014 8.32812L9.86914 12.8105C9.72852 13.0127 9.57031 13.0742 9.31543 12.8896L6.73145 11.0264C6.85449 10.7539 6.9248 10.4463 6.9248 10.1211C6.9248 8.9082 5.92285 7.89746 4.70117 7.89746C3.4707 7.89746 2.46875 8.89941 2.46875 10.1211C2.46875 11.3516 3.4707 12.3535 4.70117 12.3535C4.71875 12.3535 4.74512 12.3535 4.7627 12.3535L5.95801 17.1963ZM6.29199 18.5938L6.58203 19.7627C6.94238 21.2129 7.7334 21.9512 9.24512 21.9512H18.7725C20.2842 21.9512 21.0752 21.2305 21.4268 19.7627L21.7168 18.5938H6.29199Z" fill="#1C1C1E"/>
</svg>
