<svg width="28" height="28" viewBox="0 0 28 28" fill="none" xmlns="http://www.w3.org/2000/svg">
<path d="M13.9912 22.7422C18.9746 22.7422 23.0879 18.6289 23.0879 13.6543C23.0879 8.67969 18.9658 4.56641 13.9824 4.56641C9.00781 4.56641 4.90332 8.67969 4.90332 13.6543C4.90332 18.6289 9.0166 22.7422 13.9912 22.7422ZM13.9912 20.9316C9.95703 20.9316 6.73145 17.6885 6.73145 13.6543C6.73145 9.62012 9.95703 6.38574 13.9824 6.38574C18.0166 6.38574 21.2598 9.62012 21.2686 13.6543C21.2773 17.6885 18.0254 20.9316 13.9912 20.9316ZM10.4492 13.6631C10.4492 16.2295 11.8379 17.8027 13.9912 17.8027C15.5117 17.8027 16.6279 17.0469 17.0322 15.9307C17.0762 15.79 17.1113 15.6406 17.1113 15.4912C17.1201 15.1396 16.8652 14.8936 16.4785 14.8936C16.1533 14.8936 15.96 15.0693 15.8281 15.4033C15.6348 16.0625 15.0371 16.5459 14.2549 16.625V15.4736C14.2549 14.665 14.7646 14.1113 15.4766 14.1113C15.6523 14.1113 15.7754 14.1377 15.8721 14.1377C16.127 14.1377 16.3027 13.9795 16.3027 13.7598C16.3027 13.4434 15.9863 13.2324 15.5029 13.2324C14.9932 13.2324 14.5098 13.5049 14.2461 14.0059V13.6455C14.2461 13.373 14.0791 13.2061 13.833 13.2061C13.5781 13.2061 13.4111 13.3906 13.4111 13.6455V16.5547C12.4268 16.2559 11.8379 15.2012 11.8379 13.6543C11.8379 11.8965 12.6816 10.7451 13.9912 10.7451C14.8525 10.7451 15.5293 11.2725 15.793 11.9932C15.916 12.2832 16.0918 12.4854 16.4434 12.4854C16.8125 12.4854 17.0586 12.2393 17.0586 11.8789C17.0586 11.7119 17.0146 11.5361 16.9531 11.3779C16.5225 10.2793 15.3711 9.54102 13.9824 9.54102C11.8467 9.54102 10.4492 11.1318 10.4492 13.6631Z" fill="#1C1C1E"/>
</svg>
