<svg width="28" height="28" viewBox="0 0 28 28" fill="none" xmlns="http://www.w3.org/2000/svg">
<path d="M8.67383 21.8809H19.3174C21.2246 21.8809 22.209 20.8965 22.209 19.0156V8.31934C22.209 6.43848 21.2246 5.4541 19.3174 5.4541H8.67383C6.77539 5.4541 5.78223 6.42969 5.78223 8.31934V19.0156C5.78223 20.8965 6.77539 21.8809 8.67383 21.8809ZM8.78809 20.1318C7.97949 20.1318 7.53125 19.71 7.53125 18.8574V8.47754C7.53125 7.625 7.97949 7.20312 8.78809 7.20312H19.2031C20.0029 7.20312 20.46 7.625 20.46 8.47754V18.8574C20.46 19.71 20.0029 20.1318 19.2031 20.1318H8.78809ZM10.458 13.6543C10.458 16.2207 11.8555 17.7939 14.0088 17.7939C15.5293 17.7939 16.6367 17.0469 17.041 15.9219C17.0938 15.7812 17.1289 15.6318 17.1289 15.4912C17.1289 15.1309 16.8828 14.8848 16.4961 14.8848C16.1709 14.8848 15.9688 15.0693 15.8457 15.3945C15.6523 16.0625 15.0547 16.5371 14.2725 16.625V15.4648C14.2725 14.6562 14.7822 14.1025 15.4854 14.1025C15.6699 14.1025 15.7842 14.1289 15.8896 14.1289C16.1445 14.1289 16.3115 13.9795 16.3115 13.751C16.3115 13.4346 16.0039 13.2324 15.5205 13.2324C15.0107 13.2324 14.5273 13.4961 14.2637 13.9971V13.6367C14.2637 13.3643 14.0879 13.2061 13.8506 13.2061C13.5957 13.2061 13.4287 13.3818 13.4287 13.6367L13.4199 16.5459C12.4355 16.2471 11.8555 15.1924 11.8555 13.6543C11.8555 11.8877 12.6992 10.7363 14.0088 10.7363C14.8613 10.7363 15.5469 11.2637 15.8105 11.9932C15.9336 12.2744 16.1094 12.4766 16.4521 12.4766C16.8301 12.4766 17.0674 12.2393 17.0674 11.8701C17.0674 11.7031 17.0322 11.5361 16.9619 11.3691C16.54 10.2705 15.3799 9.53223 13.9912 9.53223C11.8643 9.53223 10.458 11.123 10.458 13.6543Z" fill="#1C1C1E"/>
</svg>
