<svg width="28" height="28" viewBox="0 0 28 28" fill="none" xmlns="http://www.w3.org/2000/svg">
<path d="M6.30078 19.3145L13.0947 23.1113C13.71 23.4541 14.2725 23.4541 14.8877 23.1113L21.6816 19.3145C22.5342 18.8486 22.9561 18.3477 22.9561 17.1084V9.98047C22.9561 9.04883 22.6045 8.45117 21.8135 8.01172L15.6348 4.54883C14.5537 3.94238 13.4375 3.94238 12.3477 4.54883L6.16895 8.01172C5.38672 8.45117 5.03516 9.04883 5.03516 9.98047V17.1084C5.03516 18.3477 5.45703 18.8486 6.30078 19.3145ZM13.9912 12.7842L7.52246 9.17188L13.0596 6.05176C13.6924 5.69141 14.29 5.68262 14.9316 6.05176L20.4688 9.17188L13.9912 12.7842ZM7.26758 17.9521C6.78418 17.6885 6.61719 17.4072 6.61719 16.9414V10.5605L13.165 14.252V21.2744L7.26758 17.9521ZM20.7236 17.9521L14.8174 21.2744V14.252L21.3652 10.5605V16.9414C21.3652 17.4072 21.1982 17.6885 20.7236 17.9521Z" fill="#1C1C1E"/>
</svg>
