<svg width="28" height="28" viewBox="0 0 28 28" fill="none" xmlns="http://www.w3.org/2000/svg">
<path d="M13.9912 22.7422C18.9746 22.7422 23.0879 18.6289 23.0879 13.6543C23.0879 8.67969 18.9658 4.56641 13.9824 4.56641C9.00781 4.56641 4.90332 8.67969 4.90332 13.6543C4.90332 18.6289 9.0166 22.7422 13.9912 22.7422ZM11.6621 17.7236C11.0469 17.7236 10.7393 17.3369 10.7393 16.7129V10.4727C10.7393 9.84863 11.0469 9.46191 11.6621 9.46191H13.9648C16.5576 9.46191 17.9902 10.9297 17.9902 13.5752C17.9902 16.2471 16.54 17.7236 13.9648 17.7236H11.6621ZM12.4531 16.3701H13.7275C15.3447 16.3701 16.1885 15.4561 16.1885 13.5928C16.1885 11.7734 15.3359 10.8154 13.7275 10.8154H12.4531V16.3701Z" fill="#1C1C1E"/>
</svg>
