<svg width="28" height="28" viewBox="0 0 28 28" fill="none" xmlns="http://www.w3.org/2000/svg">
<path d="M8.67383 21.8809H19.3174C21.2246 21.8809 22.209 20.8965 22.209 19.0156V8.31934C22.209 6.43848 21.2246 5.4541 19.3174 5.4541H8.67383C6.77539 5.4541 5.78223 6.42969 5.78223 8.31934V19.0156C5.78223 20.8965 6.77539 21.8809 8.67383 21.8809ZM8.78809 20.1318C7.97949 20.1318 7.53125 19.71 7.53125 18.8574V8.47754C7.53125 7.625 7.97949 7.20312 8.78809 7.20312H19.2031C20.0029 7.20312 20.46 7.625 20.46 8.47754V18.8574C20.46 19.71 20.0029 20.1318 19.2031 20.1318H8.78809ZM11.7588 17.5654H13.9824C16.4521 17.5654 17.8408 16.1416 17.8408 13.5752C17.8408 11.0352 16.4609 9.62012 13.9824 9.62012H11.7588C11.1787 9.62012 10.8887 9.98926 10.8887 10.5781V16.5986C10.8887 17.1963 11.1787 17.5654 11.7588 17.5654ZM12.5146 16.2734V10.9121H13.7539C15.3008 10.9121 16.127 11.8262 16.127 13.5928C16.127 15.3857 15.3096 16.2734 13.7539 16.2734H12.5146Z" fill="#1C1C1E"/>
</svg>
