<svg width="28" height="28" viewBox="0 0 28 28" fill="none" xmlns="http://www.w3.org/2000/svg">
<path d="M7.53125 21.8809L15.125 21.8721C16.3115 21.8721 17.1641 21.5381 17.9639 20.668L22.9297 15.4209C23.5713 14.7266 23.8174 14.208 23.8174 13.6543C23.8174 13.1006 23.5801 12.5908 22.9297 11.8877L17.9727 6.61426C17.1729 5.74414 16.3203 5.4541 15.125 5.4541H7.53125C5.62402 5.4541 4.63086 6.42969 4.63086 8.31934V19.0947C4.63086 20.9756 5.62402 21.8809 7.53125 21.8809ZM9.62305 17.4951C9.15723 17.4951 8.78809 17.126 8.78809 16.6514C8.78809 16.4316 8.87598 16.2295 9.03418 16.0713L11.4336 13.6719L9.03418 11.2812C8.87598 11.123 8.78809 10.9121 8.78809 10.6924C8.78809 10.2266 9.15723 9.86621 9.62305 9.86621C9.86914 9.86621 10.0625 9.94531 10.2207 10.1035L12.6113 12.4941L15.0283 10.0947C15.1953 9.92773 15.3887 9.84863 15.626 9.84863C16.0918 9.84863 16.4521 10.2178 16.4521 10.6836C16.4521 10.9033 16.373 11.0967 16.2061 11.2725L13.8066 13.6719L16.1973 16.0625C16.3643 16.2295 16.4521 16.4316 16.4521 16.6514C16.4521 17.126 16.083 17.4951 15.6084 17.4951C15.3711 17.4951 15.1602 17.4072 15.002 17.249L12.6113 14.8584L10.2383 17.249C10.0713 17.416 9.86914 17.4951 9.62305 17.4951Z" fill="#1C1C1E"/>
</svg>
