<svg width="28" height="28" viewBox="0 0 28 28" fill="none" xmlns="http://www.w3.org/2000/svg">
<path d="M20.4775 21.8721C22.376 21.8721 23.3604 20.9668 23.3604 19.0859V8.31934C23.3604 6.43848 22.376 5.46289 20.4775 5.46289H12.875C11.6973 5.46289 10.8359 5.75293 10.0449 6.61426L5.07031 11.8965C4.42871 12.5908 4.18262 13.1006 4.18262 13.6543C4.18262 14.208 4.42871 14.7266 5.07031 15.4121L10.0537 20.668C10.8447 21.5293 11.7061 21.8633 12.875 21.8633L20.4775 21.8721ZM12.3916 17.5039C11.9346 17.5039 11.5654 17.126 11.5654 16.6602C11.5654 16.4492 11.6533 16.2383 11.8115 16.0889L14.2285 13.6719L11.8115 11.2637C11.6533 11.1055 11.5654 10.9033 11.5654 10.6836C11.5654 10.2178 11.9346 9.86621 12.3916 9.86621C12.6377 9.86621 12.8223 9.93652 12.9805 10.1035L15.3975 12.5117L17.832 10.0947C17.999 9.92773 18.1836 9.84863 18.4121 9.84863C18.8691 9.84863 19.2383 10.209 19.2383 10.666C19.2383 10.8945 19.1592 11.0879 18.9922 11.2549L16.5752 13.6719L18.9834 16.0801C19.1416 16.2383 19.2295 16.4404 19.2295 16.6602C19.2295 17.126 18.8691 17.5039 18.4033 17.5039C18.166 17.5039 17.9639 17.4072 17.7969 17.2578L15.3975 14.8496L12.998 17.2578C12.8398 17.416 12.6377 17.5039 12.3916 17.5039Z" fill="#1C1C1E"/>
</svg>
