<svg width="28" height="28" viewBox="0 0 28 28" fill="none" xmlns="http://www.w3.org/2000/svg">
<path d="M20.4775 21.8721C22.376 21.8721 23.3604 20.9668 23.3604 19.0859V8.31934C23.3604 6.43848 22.376 5.46289 20.4775 5.46289H12.875C11.6973 5.46289 10.8359 5.75293 10.0449 6.61426L5.07031 11.8965C4.42871 12.5908 4.18262 13.1006 4.18262 13.6543C4.18262 14.208 4.42871 14.7266 5.07031 15.4121L10.0537 20.668C10.8447 21.5293 11.7061 21.8633 12.875 21.8633L20.4775 21.8721ZM20.3721 20.1494H12.8047C12.1895 20.1494 11.7939 19.9912 11.3633 19.543L6.41504 14.3223C6.15137 14.0498 6.07227 13.8564 6.07227 13.6543C6.07227 13.4521 6.16016 13.2676 6.41504 12.9951L11.3545 7.74805C11.7852 7.2998 12.1895 7.18555 12.7959 7.18555H20.3721C21.1895 7.18555 21.6377 7.60742 21.6377 8.45996V18.8662C21.6377 19.7188 21.1895 20.1494 20.3721 20.1494ZM12.5059 17.3545C12.7344 17.3545 12.9277 17.2754 13.0771 17.1172L15.3975 14.7969L17.7178 17.1172C17.8672 17.2666 18.0605 17.3545 18.2979 17.3545C18.7373 17.3545 19.0889 17.0029 19.0889 16.5547C19.0889 16.335 19.001 16.1504 18.8516 16.001L16.5225 13.6719L18.8516 11.334C19.0186 11.1758 19.0977 10.9912 19.0977 10.7803C19.0977 10.3408 18.7461 9.98926 18.2979 9.98926C18.0869 9.98926 17.9111 10.0684 17.7441 10.2354L15.3975 12.5645L13.0684 10.2354C12.9102 10.0771 12.7344 10.0068 12.5059 10.0068C12.0664 10.0068 11.7148 10.3496 11.7148 10.7891C11.7148 11 11.8027 11.1934 11.9521 11.3428L14.2812 13.6719L11.9521 16.0098C11.8027 16.1504 11.7148 16.3438 11.7148 16.5547C11.7148 17.0029 12.0664 17.3545 12.5059 17.3545Z" fill="#1C1C1E"/>
</svg>
