<svg width="28" height="28" viewBox="0 0 28 28" fill="none" xmlns="http://www.w3.org/2000/svg">
<path d="M14 22.7422C18.9746 22.7422 23.0879 18.6289 23.0879 13.6543C23.0879 8.67969 18.9834 4.56641 14 4.56641C9.02539 4.56641 4.90332 8.67969 4.90332 13.6543C4.90332 18.6289 9.0166 22.7422 14 22.7422ZM14 20.9316C9.96582 20.9316 6.71387 17.6885 6.72266 13.6543C6.73145 9.62012 9.96582 6.38574 14 6.38574C18.0342 6.38574 21.2598 9.62012 21.2598 13.6543C21.2598 17.6885 18.0254 20.9316 14 20.9316ZM11.0029 11.7207L13.5078 14.2256C13.7891 14.5156 14.2285 14.5156 14.5098 14.2256L18.3857 10.3584C18.6582 10.0771 18.667 9.6377 18.377 9.36523C18.0869 9.09277 17.665 9.08398 17.3838 9.36523L14 12.7402L11.9961 10.7275C11.7148 10.4463 11.2842 10.4463 11.0029 10.7275C10.7217 11.0088 10.7217 11.4395 11.0029 11.7207ZM4.95605 18.6729V21.2305C4.95605 22.3818 5.51855 22.9355 6.6875 22.9355H9.4209C7.4873 21.9863 6.01074 20.5713 4.95605 18.6729ZM23.0352 18.6729C21.9805 20.5713 20.5039 21.9863 18.5703 22.9355H21.3037C22.4727 22.9355 23.0352 22.3818 23.0352 21.2305V18.6729Z" fill="#1C1C1E"/>
</svg>
