<svg width="28" height="28" viewBox="0 0 28 28" fill="none" xmlns="http://www.w3.org/2000/svg">
<path d="M4.91215 15.6933L11.9698 22.7421C13.3145 24.0868 14.6944 24.0956 16.0215 22.7597L23.1055 15.6757C24.4415 14.3397 24.4327 12.9599 23.0879 11.6151L16.0391 4.56631C14.6944 3.22158 13.3145 3.21279 11.9786 4.54873L4.89457 11.6327C3.55864 12.9687 3.57622 14.3485 4.91215 15.6933ZM6.21293 14.5507C5.62407 13.9618 5.60649 13.3554 6.21293 12.7489L13.0948 5.86709C13.71 5.26064 14.3077 5.26943 14.8965 5.8583L21.7872 12.7577C22.376 13.3466 22.3936 13.953 21.7872 14.5595L14.9053 21.4413C14.2989 22.0478 13.6836 22.0302 13.1036 21.4501L6.21293 14.5507ZM7.55766 14.0849L13.5694 20.0966C13.8682 20.3954 14.1319 20.3954 14.4395 20.0966L20.4512 14.0849C20.7413 13.786 20.7413 13.5224 20.4424 13.2147L14.4395 7.21182C14.1319 6.91299 13.8682 6.91299 13.5694 7.21182L7.55766 13.2235C7.25883 13.5224 7.25883 13.786 7.55766 14.0849Z" fill="#1C1C1E"/>
</svg>
