<svg width="28" height="28" viewBox="0 0 28 28" fill="none" xmlns="http://www.w3.org/2000/svg">
<path d="M4.91215 15.6933L11.9698 22.7421C13.3145 24.0868 14.6944 24.0956 16.0215 22.7597L23.1055 15.6757C24.4415 14.3397 24.4327 12.9599 23.0879 11.6151L16.0391 4.56631C14.6944 3.22158 13.3145 3.21279 11.9786 4.54873L4.89457 11.6327C3.55864 12.9687 3.57622 14.3485 4.91215 15.6933ZM22.2354 13.6542C22.2354 13.953 22.086 14.2606 21.7872 14.5595L14.9053 21.4413C14.2989 22.0478 13.6836 22.0302 13.1036 21.4501L6.21293 14.5507C5.91411 14.2519 5.76469 13.953 5.76469 13.6542H22.2354Z" fill="#1C1C1E"/>
</svg>
