<svg width="28" height="28" viewBox="0 0 28 28" fill="none" xmlns="http://www.w3.org/2000/svg">
<path d="M4.91215 15.6933L11.9698 22.7421C13.3145 24.0868 14.6944 24.0956 16.0215 22.7597L23.1055 15.6757C24.4415 14.3397 24.4327 12.9599 23.0879 11.6151L16.0391 4.56631C14.6944 3.22158 13.3145 3.21279 11.9786 4.54873L4.89457 11.6327C3.55864 12.9687 3.57622 14.3485 4.91215 15.6933ZM13.9913 5.41885C14.2989 5.41006 14.5977 5.55947 14.8965 5.8583L21.7872 12.7577C22.376 13.3466 22.3936 13.953 21.7872 14.5595L14.9053 21.4413C14.5977 21.7489 14.2989 21.8896 13.9913 21.8896V5.41885Z" fill="#1C1C1E"/>
</svg>
