<svg width="28" height="28" viewBox="0 0 28 28" fill="none" xmlns="http://www.w3.org/2000/svg">
<path d="M4.48145 16.0537C4.48145 17.9258 5.44824 18.9102 7.36426 18.9102H7.64551V11.3516C7.64551 8.75879 9.20117 7.21191 11.8115 7.21191H19.1416V7.09766C19.1416 5.22559 18.1572 4.25 16.2588 4.25H7.36426C5.46582 4.25 4.48145 5.2168 4.48145 7.09766V16.0537ZM11.8115 23.085H20.6357C22.5342 23.085 23.5186 22.1094 23.5186 20.2373V11.3516C23.5186 9.4707 22.5342 8.49512 20.6357 8.49512H11.8115C9.91309 8.49512 8.92871 9.4707 8.92871 11.3516V20.2373C8.92871 22.1094 9.91309 23.085 11.8115 23.085ZM12.752 13.6279C12.04 13.6191 11.46 13.0566 11.46 12.3359C11.46 11.624 12.04 11.0527 12.752 11.0527C13.4551 11.0527 14.0352 11.624 14.0352 12.3359C14.0352 13.0566 13.4551 13.6455 12.752 13.6279ZM19.6777 13.6279C18.9658 13.6191 18.3857 13.0566 18.3857 12.3359C18.3857 11.624 18.9658 11.0527 19.6777 11.0527C20.3809 11.0527 20.9609 11.624 20.9609 12.3359C20.9609 13.0566 20.3809 13.6455 19.6777 13.6279ZM16.2148 17.0996C15.5029 17.0996 14.9316 16.5195 14.9316 15.7988C14.9316 15.0957 15.5029 14.5244 16.2148 14.5244C16.9092 14.5244 17.498 15.0957 17.498 15.7988C17.498 16.5195 16.918 17.0996 16.2148 17.0996ZM12.752 20.5625C12.04 20.5625 11.4688 19.9824 11.4688 19.2705C11.4688 18.5586 12.04 17.9961 12.752 17.9961C13.4551 17.9961 14.0352 18.5674 14.0352 19.2705C14.0352 19.9824 13.4551 20.5625 12.752 20.5625ZM19.6777 20.5625C18.9658 20.5625 18.3945 19.9824 18.3945 19.2705C18.3945 18.5586 18.9658 17.9961 19.6777 17.9961C20.3809 17.9961 20.9609 18.5586 20.9609 19.2705C20.9609 19.9824 20.3809 20.5625 19.6777 20.5625Z" fill="#1C1C1E"/>
</svg>
