<svg width="28" height="28" viewBox="0 0 28 28" fill="none" xmlns="http://www.w3.org/2000/svg">
<path d="M10.994 13.6543C10.994 19.2969 12.62 22.707 16.4081 22.707H17.4101C16.6542 22.0566 16.0302 21.0986 15.5644 19.877H14.3602C14.0263 19.877 13.7538 19.6045 13.7538 19.2705C13.7538 18.9365 14.0263 18.6641 14.3602 18.6641H15.1776C15.0458 18.1631 14.9403 17.627 14.8612 17.1348H13.789C13.455 17.1348 13.1825 16.8623 13.1825 16.5283C13.1825 16.1943 13.455 15.9219 13.789 15.9219H14.703C14.6503 15.3506 14.6151 14.7178 14.6063 14.1729H13.5692C13.2352 14.1729 12.9716 13.9004 12.9716 13.5664C12.9716 13.2324 13.2352 12.96 13.5692 12.96H14.6063C14.6239 12.3799 14.6591 11.7822 14.7206 11.2109H13.789C13.455 11.2109 13.1825 10.9385 13.1825 10.6045C13.1825 10.2705 13.455 9.99805 13.789 9.99805H14.8876C14.9755 9.46191 15.0897 8.95215 15.2304 8.46875H14.3602C14.0263 8.46875 13.7538 8.19629 13.7538 7.8623C13.7538 7.52832 14.0263 7.25586 14.3602 7.25586H15.6347C16.0917 6.11328 16.6894 5.2168 17.4101 4.60156H16.4081C12.62 4.60156 10.994 8.01172 10.994 13.6543ZM15.8808 13.6543C15.8808 18.9541 17.5243 22.3994 19.9852 22.3994C22.4374 22.3994 24.081 18.9541 24.081 13.6543C24.081 8.35449 22.4374 4.90918 19.9852 4.90918C17.5243 4.90918 15.8808 8.35449 15.8808 13.6543ZM6.86318 20.7207C7.34658 20.7207 7.82119 20.3164 7.59267 19.6836C6.99501 18.0664 6.69619 16.335 6.69619 14.4365C6.69619 13.0566 6.85439 11.7559 7.17959 10.5254L8.41884 10.9561C9.0956 11.1846 9.54384 10.5078 9.35048 9.98047L8.22548 6.81641C8.0497 6.3418 7.53994 6.16602 7.09169 6.45605L4.25283 8.25781C3.76943 8.57422 3.77822 9.36523 4.41982 9.57617L5.68544 10.0156C5.3163 11.4043 5.13173 12.8809 5.13173 14.4365C5.13173 16.502 5.47451 18.4268 6.11611 20.2197C6.23916 20.5801 6.55556 20.7207 6.86318 20.7207Z" fill="#1C1C1E"/>
</svg>
