<svg width="28" height="28" viewBox="0 0 28 28" fill="none" xmlns="http://www.w3.org/2000/svg">
<path d="M14 16.8096C19.6426 16.8096 23.0527 15.1836 23.0527 11.3867V7.81836C23.0527 5.14648 19.4668 3.41504 14 3.41504C8.52441 3.41504 4.94727 5.14648 4.94727 7.81836V11.3867C4.94727 15.1836 8.35742 16.8096 14 16.8096ZM14 10.543C9.58789 10.543 6.66992 9.44434 6.66992 7.81836C6.66992 6.19238 9.58789 5.10254 14 5.10254C18.4121 5.10254 21.3301 6.19238 21.3301 7.81836C21.3301 9.44434 18.4121 10.543 14 10.543ZM9.10449 12.4414V11.6504C9.53516 11.7646 10.001 11.8701 10.4932 11.9492V13.0127C10.4932 13.3467 10.7656 13.6191 11.0996 13.6191C11.4336 13.6191 11.7061 13.3467 11.7061 13.0127V12.1162C12.2158 12.1689 12.752 12.2041 13.3057 12.2129V13.2324C13.3057 13.5576 13.5781 13.8301 13.9121 13.8301C14.2461 13.8301 14.5186 13.5576 14.5186 13.2324V12.2217C15.0723 12.2129 15.5996 12.1777 16.1182 12.1338V13.0127C16.1182 13.3467 16.3906 13.6191 16.7246 13.6191C17.0586 13.6191 17.3311 13.3467 17.3311 13.0127V11.9844C17.8145 11.9053 18.2803 11.8086 18.7109 11.6943V12.4414C18.7109 12.7754 18.9834 13.0479 19.3174 13.0479C19.6514 13.0479 19.9238 12.7754 19.9238 12.4414V11.3076C20.4512 11.1055 20.9258 10.8682 21.3301 10.6045V11.3867C21.3301 14.0762 18.5527 15.0869 14 15.0869C9.43848 15.0869 6.66992 14.0762 6.66992 11.3867V10.6045C7.03027 10.833 7.43457 11.0527 7.8916 11.2373V12.4414C7.8916 12.7754 8.16406 13.0479 8.49805 13.0479C8.83203 13.0479 9.10449 12.7754 9.10449 12.4414ZM10.0273 23.3662L10.4053 22.1533C11.7852 22.4961 13.2617 22.6719 14.7822 22.6719C16.8037 22.6719 18.7637 22.3467 20.5039 21.749C20.8818 21.626 21.0312 21.3096 21.0312 20.9932C21.0312 20.5098 20.6182 20.0439 19.9941 20.2725C18.4121 20.8174 16.6367 21.1074 14.7822 21.1074C13.4199 21.1074 12.1016 20.9492 10.8799 20.6504L11.2842 19.3408C11.4863 18.6553 10.8096 18.2334 10.291 18.4355L7.16211 19.6484C6.6875 19.8418 6.53809 20.3516 6.83691 20.791L8.70898 23.5771C9.04297 24.0518 9.8252 24.0166 10.0273 23.3662Z" fill="#1C1C1E"/>
</svg>
