<svg width="28" height="28" viewBox="0 0 28 28" fill="none" xmlns="http://www.w3.org/2000/svg">
<path d="M14 16.8096C19.6426 16.8096 23.0527 15.1836 23.0527 11.3867V7.81836C23.0527 5.14648 19.4668 3.41504 14 3.41504C8.52441 3.41504 4.94727 5.14648 4.94727 7.81836V11.3867C4.94727 15.1836 8.35742 16.8096 14 16.8096ZM14 10.543C9.58789 10.543 6.66992 9.44434 6.66992 7.81836C6.66992 6.19238 9.58789 5.10254 14 5.10254C18.4121 5.10254 21.3301 6.19238 21.3301 7.81836C21.3301 9.44434 18.4121 10.543 14 10.543ZM9.10449 12.4414V11.6504C9.53516 11.7646 10.001 11.8701 10.4932 11.9492V13.0127C10.4932 13.3467 10.7656 13.6191 11.0996 13.6191C11.4336 13.6191 11.7061 13.3467 11.7061 13.0127V12.1162C12.2158 12.1689 12.752 12.2041 13.3057 12.2129V13.2324C13.3057 13.5576 13.5781 13.8301 13.9121 13.8301C14.2461 13.8301 14.5186 13.5576 14.5186 13.2324V12.2217C15.0723 12.2129 15.5996 12.1777 16.1182 12.1338V13.0127C16.1182 13.3467 16.3906 13.6191 16.7246 13.6191C17.0586 13.6191 17.3311 13.3467 17.3311 13.0127V11.9844C17.8145 11.9053 18.2803 11.8086 18.7109 11.6943V12.4414C18.7109 12.7754 18.9834 13.0479 19.3174 13.0479C19.6514 13.0479 19.9238 12.7754 19.9238 12.4414V11.3076C20.4512 11.1055 20.9258 10.8682 21.3301 10.6045V11.3867C21.3301 14.0762 18.5527 15.0869 14 15.0869C9.43848 15.0869 6.66992 14.0762 6.66992 11.3867V10.6045C7.03027 10.833 7.43457 11.0527 7.8916 11.2373V12.4414C7.8916 12.7754 8.16406 13.0479 8.49805 13.0479C8.83203 13.0479 9.10449 12.7754 9.10449 12.4414ZM6.69629 20.9932C6.69629 21.3096 6.83691 21.626 7.21484 21.749C8.96387 22.3467 10.9238 22.6719 12.9453 22.6719C14.457 22.6719 15.9424 22.4961 17.3223 22.1445L17.7002 23.3486C17.8936 23.999 18.6758 24.0254 19.0098 23.5508L20.8818 20.7646C21.1807 20.334 21.0312 19.8154 20.5566 19.6309L17.4277 18.418C16.918 18.2158 16.2324 18.6377 16.4346 19.3232L16.8477 20.6504C15.6172 20.9492 14.3076 21.1074 12.9453 21.1074C11.0908 21.1074 9.31543 20.8174 7.7334 20.2725C7.10059 20.0439 6.69629 20.5098 6.69629 20.9932Z" fill="#1C1C1E"/>
</svg>
