<svg width="28" height="28" viewBox="0 0 28 28" fill="none" xmlns="http://www.w3.org/2000/svg">
<path d="M14 11.7646C19.2998 11.7646 22.7451 10.1211 22.7451 7.66895C22.7451 5.20801 19.2998 3.56445 14 3.56445C8.7002 3.56445 5.25488 5.20801 5.25488 7.66895C5.25488 10.1211 8.7002 11.7646 14 11.7646ZM14 16.6602C19.6426 16.6602 23.0527 15.0254 23.0527 11.2373V10.2354C22.4023 11 21.4355 11.624 20.2227 12.0811V13.2852C20.2227 13.6191 19.9502 13.8916 19.6162 13.8916C19.2822 13.8916 19.0098 13.6191 19.0098 13.2852V12.4678C18.5088 12.5996 17.9727 12.7139 17.4805 12.793V13.8564C17.4805 14.1904 17.208 14.4629 16.874 14.4629C16.54 14.4629 16.2588 14.1904 16.2588 13.8564V12.9424C15.6963 12.9951 15.0635 13.0391 14.5186 13.0479V14.0762C14.5186 14.4102 14.2461 14.6826 13.9121 14.6826C13.5781 14.6826 13.3057 14.4102 13.3057 14.0762V13.0391C12.7256 13.0303 12.1279 12.9951 11.5566 12.9248V13.8564C11.5566 14.1904 11.2842 14.4629 10.9502 14.4629C10.6162 14.4629 10.3438 14.1904 10.3438 13.8564V12.7578C9.80762 12.6699 9.29785 12.5645 8.81445 12.415V13.2852C8.81445 13.6191 8.54199 13.8916 8.20801 13.8916C7.87402 13.8916 7.60156 13.6191 7.60156 13.2852V12.0107C6.45898 11.5625 5.5625 10.9561 4.94727 10.2354V11.2373C4.94727 15.0254 8.35742 16.6602 14 16.6602ZM6.66113 20.7822C6.66113 21.0898 6.81055 21.4062 7.1709 21.5381C8.95508 22.1797 10.8799 22.5225 12.9453 22.5225C14.501 22.5225 15.9775 22.3291 17.3662 21.96L17.7705 23.208C17.9727 23.8584 18.7637 23.876 19.0801 23.4014L20.9346 20.5889C21.2246 20.1494 21.0664 19.6396 20.5918 19.4551L17.4453 18.2686C16.9268 18.0752 16.2412 18.5146 16.4609 19.1914L16.874 20.4658C15.6436 20.791 14.334 20.9492 12.9453 20.9492C11.0557 20.9492 9.31543 20.6504 7.69824 20.0527C7.06543 19.8242 6.66113 20.2988 6.66113 20.7822Z" fill="#1C1C1E"/>
</svg>
