<svg width="28" height="28" viewBox="0 0 28 28" fill="none" xmlns="http://www.w3.org/2000/svg">
<g clip-path="url(#clip0_308_1453)">
<path d="M6.62598 22.7773H14.0791C14.5186 22.7773 14.8789 22.4082 14.8789 21.9775C14.8789 21.5293 14.5186 21.1689 14.0791 21.1689H13.2969L13.1562 20.1934C13.4463 20.2812 13.7891 20.334 14.1758 20.334H18.043L17.9199 21.1689H17.208C16.7598 21.1689 16.3994 21.5293 16.3994 21.9775C16.3994 22.4082 16.7598 22.7773 17.208 22.7773H22.8594C23.2988 22.7773 23.6592 22.4082 23.6592 21.9775C23.6592 21.5293 23.2988 21.1689 22.8594 21.1689H22.1475L22.0156 20.334H25.8916C27.4912 20.334 28.3262 19.5254 28.3262 17.8906V11.3252C28.3262 9.69922 27.4912 8.89062 25.8916 8.89062H21.0312V7.00098C21.0312 5.36621 20.1963 4.55762 18.5967 4.55762H2.09961C0.5 4.55762 -0.334961 5.36621 -0.334961 7.00098V17.1348C-0.334961 18.7695 0.5 19.5781 2.09961 19.5781H7.63672L7.39941 21.1689H6.62598C6.17773 21.1689 5.81738 21.5293 5.81738 21.9775C5.81738 22.4082 6.17773 22.7773 6.62598 22.7773ZM2.21387 17.8643C1.63379 17.8643 1.37891 17.627 1.37891 17.0293V7.10645C1.37891 6.50879 1.63379 6.27148 2.21387 6.27148H18.4824C19.0625 6.27148 19.3174 6.50879 19.3174 7.10645V8.89062H14.1758C12.5762 8.89062 11.7324 9.69922 11.7324 11.3252V17.8643H2.21387ZM13.4463 17.7852V11.4395C13.4463 10.833 13.71 10.5957 14.2812 10.5957H25.7773C26.3574 10.5957 26.6123 10.833 26.6123 11.4395V17.7852C26.6123 18.3828 26.3574 18.6201 25.7773 18.6201H14.2812C13.71 18.6201 13.4463 18.3828 13.4463 17.7852Z" fill="#1C1C1E"/>
</g>
<defs>
<clipPath id="clip0_308_1453">
<rect width="28" height="28" fill="white"/>
</clipPath>
</defs>
</svg>
