<svg width="28" height="28" viewBox="0 0 28 28" fill="none" xmlns="http://www.w3.org/2000/svg">
<path d="M13.2354 3.08105V9.9541L13.3232 11.6504L11.7939 9.91895L11.3018 9.43555C11.1611 9.30371 10.9766 9.21582 10.7656 9.21582C10.3525 9.21582 10.0625 9.51465 10.0625 9.91895C10.0625 10.1299 10.1328 10.3145 10.2734 10.4463L13.376 13.5576C13.5605 13.751 13.7715 13.8477 13.9736 13.8477C14.1758 13.8477 14.3955 13.751 14.5801 13.5576L17.6826 10.4463C17.8232 10.3145 17.8936 10.1299 17.8936 9.91895C17.8936 9.51465 17.6035 9.21582 17.1904 9.21582C16.9795 9.21582 16.7949 9.30371 16.6543 9.43555L16.1621 9.91895L14.6328 11.6504L14.7119 9.9541V3.08105C14.7119 2.63281 14.3691 2.34277 13.9736 2.34277C13.5869 2.34277 13.2354 2.63281 13.2354 3.08105ZM5.51855 19.8154H11.126V21.4062H11.0908C10.6514 21.4062 10.291 21.7666 10.291 22.2061C10.291 22.6367 10.6514 22.9971 11.0908 22.9971H16.9004C17.3398 22.9971 17.7002 22.6367 17.7002 22.2061C17.7002 21.7666 17.3398 21.4062 16.9004 21.4062H16.8652V19.8154H22.4639C23.835 19.8154 24.6611 18.998 24.6611 17.627V7.03613C24.6611 5.66504 23.835 4.84766 22.4639 4.84766H15.9951V6.52637H22.3672C22.7451 6.52637 22.9736 6.76367 22.9736 7.13281V17.5303C22.9736 17.8994 22.7451 18.1367 22.3672 18.1367H5.62402C5.24609 18.1367 5.01758 17.8994 5.01758 17.5303V7.13281C5.01758 6.76367 5.24609 6.52637 5.62402 6.52637H11.9609V4.84766H5.51855C4.15625 4.84766 3.33008 5.66504 3.33008 7.03613V17.627C3.33008 18.998 4.15625 19.8154 5.51855 19.8154Z" fill="#1C1C1E"/>
</svg>
