<svg width="28" height="28" viewBox="0 0 28 28" fill="none" xmlns="http://www.w3.org/2000/svg">
<path d="M8.67383 21.8809H19.3174C21.2246 21.8809 22.209 20.8965 22.209 19.0156V8.31934C22.209 6.43848 21.2246 5.4541 19.3174 5.4541H8.67383C6.77539 5.4541 5.78223 6.42969 5.78223 8.31934V19.0156C5.78223 20.8965 6.77539 21.8809 8.67383 21.8809ZM8.78809 20.1318C7.97949 20.1318 7.53125 19.71 7.53125 18.8574V8.47754C7.53125 7.625 7.97949 7.20312 8.78809 7.20312H19.2031C20.0029 7.20312 20.46 7.625 20.46 8.47754V18.8574C20.46 19.71 20.0029 20.1318 19.2031 20.1318H8.78809ZM13.9824 11.5801C14.6504 11.5801 15.1338 11.1406 15.1338 10.5605C15.1338 9.92773 14.6592 9.4707 13.9824 9.4707C13.3584 9.4707 12.8662 9.92773 12.8662 10.5693C12.8662 11.1406 13.3584 11.5801 13.9824 11.5801ZM10.6426 14.4629H17.3574C17.8672 14.4629 18.2188 14.1641 18.2188 13.6719C18.2188 13.1709 17.8848 12.8721 17.3574 12.8721H10.6426C10.124 12.8721 9.78125 13.1709 9.78125 13.6719C9.78125 14.1641 10.1328 14.4629 10.6426 14.4629ZM13.9824 17.8467C14.6504 17.8467 15.1338 17.3984 15.1338 16.8271C15.1338 16.1855 14.6592 15.7461 13.9824 15.7461C13.3584 15.7461 12.8662 16.1943 12.8662 16.8271C12.8662 17.3984 13.3584 17.8467 13.9824 17.8467Z" fill="#1C1C1E"/>
</svg>
