<svg width="28" height="28" viewBox="0 0 28 28" fill="none" xmlns="http://www.w3.org/2000/svg">
<path d="M9.31543 23.1816H18.6846C20.5742 23.1816 21.5498 22.1885 21.5498 20.29V12.3096C21.5498 11.0791 21.3916 10.5166 20.627 9.73438L16.0303 5.06738C15.2832 4.31152 14.668 4.13574 13.5605 4.13574H9.31543C7.43457 4.13574 6.4502 5.12891 6.4502 7.03613V20.29C6.4502 22.1885 7.43457 23.1816 9.31543 23.1816ZM9.46484 21.4238C8.62109 21.4238 8.19922 20.9844 8.19922 20.1758V7.1416C8.19922 6.3418 8.62109 5.89355 9.47363 5.89355H13.2002V10.6748C13.2002 11.9492 13.8242 12.5645 15.0898 12.5645H19.8008V20.1758C19.8008 20.9844 19.3789 21.4238 18.5264 21.4238H9.46484ZM15.2568 11.0264C14.8877 11.0264 14.7295 10.8682 14.7295 10.5078V6.12207L19.5635 11.0264H15.2568Z" fill="#1C1C1E"/>
</svg>
