<svg width="28" height="28" viewBox="0 0 28 28" fill="none" xmlns="http://www.w3.org/2000/svg">
<path d="M6.15137 10.8154C6.71387 10.8154 7.0127 10.5078 7.0127 9.94531V7.95898C7.0127 7.10645 7.46094 6.68457 8.27832 6.68457H10.3086C10.8711 6.68457 11.1787 6.37695 11.1787 5.82324C11.1787 5.26953 10.8711 4.96191 10.3086 4.96191H8.17285C6.27441 4.96191 5.29004 5.9375 5.29004 7.80957V9.94531C5.29004 10.5078 5.59766 10.8154 6.15137 10.8154ZM21.8398 10.8154C22.4023 10.8154 22.7012 10.5078 22.7012 9.94531V7.80957C22.7012 5.9375 21.7168 4.96191 19.8184 4.96191H17.6826C17.1201 4.96191 16.8125 5.26953 16.8125 5.82324C16.8125 6.37695 17.1201 6.68457 17.6826 6.68457H19.7129C20.5215 6.68457 20.9785 7.10645 20.9785 7.95898V9.94531C20.9785 10.5078 21.2861 10.8154 21.8398 10.8154ZM11.6533 18.9365H16.7246C17.8232 18.9365 18.4033 18.3477 18.4033 17.2402V12.9512C18.4033 12.2568 18.2979 11.9404 17.8936 11.5273L15.3008 8.88184C14.9229 8.49512 14.5625 8.36328 13.9385 8.36328H11.6533C10.5635 8.36328 9.9834 8.96094 9.9834 10.0684V17.2402C9.9834 18.3477 10.5635 18.9365 11.6533 18.9365ZM11.6885 17.7588C11.3193 17.7588 11.1523 17.583 11.1523 17.2314V10.0771C11.1523 9.72559 11.3193 9.54102 11.6973 9.54102H13.6309V12.0898C13.6309 12.793 14.0264 13.1797 14.7295 13.1797H17.2344V17.2314C17.2344 17.583 17.0586 17.7588 16.6807 17.7588H11.6885ZM14.8965 12.0635C14.7998 12.0635 14.7559 12.0283 14.7559 11.9229V9.97168L16.8125 12.0635H14.8965ZM8.17285 22.373H10.3086C10.8711 22.373 11.1787 22.0654 11.1787 21.5117C11.1787 20.958 10.8711 20.6504 10.3086 20.6504H8.27832C7.46094 20.6504 7.0127 20.2285 7.0127 19.3672V17.3809C7.0127 16.8184 6.70508 16.5107 6.15137 16.5107C5.58887 16.5107 5.29004 16.8184 5.29004 17.3809V19.5166C5.29004 21.3975 6.27441 22.373 8.17285 22.373ZM17.6826 22.373H19.8184C21.7168 22.373 22.7012 21.3975 22.7012 19.5166V17.3809C22.7012 16.8184 22.3936 16.5107 21.8398 16.5107C21.2773 16.5107 20.9785 16.8271 20.9785 17.3809V19.3672C20.9785 20.2285 20.5215 20.6504 19.7129 20.6504H17.6826C17.1201 20.6504 16.8125 20.958 16.8125 21.5117C16.8125 22.0654 17.1201 22.373 17.6826 22.373Z" fill="#1C1C1E"/>
</svg>
