<svg width="28" height="28" viewBox="0 0 28 28" fill="none" xmlns="http://www.w3.org/2000/svg">
<path d="M8.7793 22.8477H13.7715C13.2441 22.3643 12.8311 21.7666 12.585 21.0986H8.9375C8.09375 21.0986 7.67188 20.668 7.67188 19.8594V6.81641C7.67188 6.0166 8.09375 5.55957 8.9375 5.55957H17.999C18.8164 5.55957 19.2646 6.00781 19.2646 6.81641V14.4102C19.9326 14.6562 20.5303 15.0693 21.0137 15.5967V6.70215C21.0137 4.79492 20.0381 3.81055 18.1484 3.81055H8.7793C6.89844 3.81055 5.91406 4.80371 5.91406 6.70215V19.9561C5.91406 21.8633 6.89844 22.8477 8.7793 22.8477ZM10.2646 9.13672H16.6807C16.9971 9.13672 17.2344 8.89062 17.2344 8.57422C17.2344 8.2666 16.9971 8.02051 16.6807 8.02051H10.2646C9.93945 8.02051 9.70215 8.2666 9.70215 8.57422C9.70215 8.89062 9.93945 9.13672 10.2646 9.13672ZM10.2646 12.1338H16.6807C16.9971 12.1338 17.2344 11.8877 17.2344 11.5713C17.2344 11.2637 16.9971 11.0176 16.6807 11.0176H10.2646C9.93945 11.0176 9.70215 11.2637 9.70215 11.5713C9.70215 11.8877 9.93945 12.1338 10.2646 12.1338ZM17.1553 22.8477C17.9023 22.8477 18.5967 22.6367 19.1855 22.2764L21.0576 24.1484C21.2686 24.3594 21.4795 24.4385 21.7344 24.4385C22.1826 24.4385 22.5254 24.0869 22.5254 23.6035C22.5254 23.3926 22.4287 23.1729 22.2617 23.0059L20.3809 21.1162C20.7852 20.5098 21.0225 19.7715 21.0225 18.9893C21.0225 16.8535 19.291 15.1221 17.1553 15.1221C15.0283 15.1221 13.2881 16.8623 13.2881 18.9893C13.2881 21.1162 15.0283 22.8477 17.1553 22.8477ZM17.1553 21.5117C15.7578 21.5117 14.624 20.3779 14.624 18.9893C14.624 17.6094 15.7578 16.4668 17.1553 16.4668C18.5352 16.4668 19.6689 17.6094 19.6689 18.9893C19.6689 20.3779 18.5439 21.5117 17.1553 21.5117Z" fill="#1C1C1E"/>
</svg>
