<svg width="28" height="28" viewBox="0 0 28 28" fill="none" xmlns="http://www.w3.org/2000/svg">
<path d="M6.45898 20.29C6.45898 22.1885 7.43457 23.1729 9.31543 23.1729H18.6758C20.5566 23.1729 21.5322 22.1885 21.5322 20.29V7.02734C21.5322 5.1377 20.5566 4.14453 18.6758 4.14453H9.31543C7.43457 4.14453 6.45898 5.1377 6.45898 7.02734V20.29ZM10.6162 8.73242C10.2734 8.73242 10.0273 8.47754 10.0273 8.14355C10.0273 7.81836 10.2734 7.56348 10.6162 7.56348H17.665C17.999 7.56348 18.2451 7.81836 18.2451 8.14355C18.2451 8.47754 17.999 8.73242 17.665 8.73242H10.6162ZM10.6162 11.3516C10.2734 11.3516 10.0273 11.0967 10.0273 10.7627C10.0273 10.4463 10.2734 10.2002 10.6162 10.2002H14.7383C15.0723 10.2002 15.3184 10.4463 15.3184 10.7627C15.3184 11.0967 15.0723 11.3516 14.7383 11.3516H10.6162ZM10.7568 20.0791C10.001 20.0791 9.56152 19.6748 9.56152 18.8926V13.9971C9.56152 13.2148 10.001 12.8193 10.7568 12.8193H17.2432C18.0254 12.8193 18.4297 13.2148 18.4297 13.9971V18.8926C18.4297 19.6748 18.0254 20.0791 17.2432 20.0791H10.7568Z" fill="#1C1C1E"/>
</svg>
