<svg width="28" height="28" viewBox="0 0 28 28" fill="none" xmlns="http://www.w3.org/2000/svg">
<path d="M7.45947 11.3462C7.92822 11.3462 8.17725 11.0898 8.17725 10.6211V8.96582C8.17725 8.25537 8.55078 7.90381 9.23193 7.90381H10.9238C11.3926 7.90381 11.6489 7.64746 11.6489 7.18604C11.6489 6.72461 11.3926 6.46826 10.9238 6.46826H9.14404C7.56201 6.46826 6.7417 7.28125 6.7417 8.84131V10.6211C6.7417 11.0898 6.99805 11.3462 7.45947 11.3462ZM20.5332 11.3462C21.002 11.3462 21.251 11.0898 21.251 10.6211V8.84131C21.251 7.28125 20.4307 6.46826 18.8486 6.46826H17.0688C16.6001 6.46826 16.3438 6.72461 16.3438 7.18604C16.3438 7.64746 16.6001 7.90381 17.0688 7.90381H18.7607C19.4346 7.90381 19.8154 8.25537 19.8154 8.96582V10.6211C19.8154 11.0898 20.0718 11.3462 20.5332 11.3462ZM12.0078 18.1138H16.2998C17.2007 18.1138 17.6694 17.6377 17.6694 16.7368V13.4556H14.3223C13.8096 13.4556 13.5166 13.1626 13.5166 12.6499V9.30273H12.0078C11.1143 9.30273 10.6455 9.78613 10.6455 10.687V16.7368C10.6455 17.645 11.1069 18.1138 12.0078 18.1138ZM14.564 12.6499H17.6255C17.5962 12.4668 17.4644 12.2764 17.2446 12.064L14.9082 9.72021C14.6885 9.50781 14.5054 9.36865 14.3223 9.34668V12.4155C14.3223 12.5693 14.4028 12.6499 14.564 12.6499ZM9.14404 20.9775H10.9238C11.3926 20.9775 11.6489 20.7212 11.6489 20.2598C11.6489 19.7983 11.3926 19.542 10.9238 19.542H9.23193C8.55078 19.542 8.17725 19.1904 8.17725 18.4727V16.8174C8.17725 16.3486 7.9209 16.0923 7.45947 16.0923C6.99072 16.0923 6.7417 16.3486 6.7417 16.8174V18.5972C6.7417 20.1646 7.56201 20.9775 9.14404 20.9775ZM17.0688 20.9775H18.8486C20.4307 20.9775 21.251 20.1646 21.251 18.5972V16.8174C21.251 16.3486 20.9946 16.0923 20.5332 16.0923C20.0645 16.0923 19.8154 16.356 19.8154 16.8174V18.4727C19.8154 19.1904 19.4346 19.542 18.7607 19.542H17.0688C16.6001 19.542 16.3438 19.7983 16.3438 20.2598C16.3438 20.7212 16.6001 20.9775 17.0688 20.9775Z" fill="#1C1C1E"/>
</svg>
