<svg width="28" height="28" viewBox="0 0 28 28" fill="none" xmlns="http://www.w3.org/2000/svg">
<path d="M9.20117 5.69141H10.5547C11.9346 5.69141 12.9365 6.0166 13.9121 6.9834L18.9043 11.9756C19.8535 12.9248 20.0908 14.0146 20.0908 15.3242V20.3164H20.3633C22.0508 20.3164 23.1582 19.3936 23.1582 17.4248V5.35742C23.1582 3.4502 22.1738 2.45703 20.293 2.45703H12.0488C10.1855 2.45703 9.20117 3.4502 9.20117 5.33105V5.69141ZM13.5078 5.05859V4.85645C13.5078 4.59277 13.7012 4.29395 14.1055 4.29395H18.2451C18.6582 4.29395 18.8428 4.59277 18.8428 4.85645V5.05859C18.8428 5.34863 18.6406 5.6123 18.2451 5.6123H14.1055C13.7188 5.6123 13.5078 5.34863 13.5078 5.05859ZM4.8418 21.9424C4.8418 23.8496 5.82617 24.834 7.70703 24.834H15.9336C17.8145 24.834 18.7988 23.8408 18.7988 21.9424V15.1309H12.5322C11.416 15.1309 10.8711 14.5771 10.8711 13.4609V6.97461H7.70703C5.82617 6.97461 4.8418 7.97656 4.8418 9.875V21.9424ZM12.6377 13.8389H18.6406C18.5352 13.4609 18.3066 13.1006 17.9111 12.6963L13.2793 7.99414C12.875 7.58984 12.5322 7.31738 12.1543 7.20312V13.3555C12.1543 13.6719 12.3213 13.8389 12.6377 13.8389Z" fill="#1C1C1E"/>
</svg>
