<svg width="28" height="28" viewBox="0 0 28 28" fill="none" xmlns="http://www.w3.org/2000/svg">
<path d="M8.67383 21.8809H19.3174C21.2246 21.8809 22.209 20.8965 22.209 19.0156V8.31934C22.209 6.43848 21.2246 5.4541 19.3174 5.4541H8.67383C6.77539 5.4541 5.78223 6.42969 5.78223 8.31934V19.0156C5.78223 20.8965 6.77539 21.8809 8.67383 21.8809ZM8.78809 20.1318C7.97949 20.1318 7.53125 19.71 7.53125 18.8574V8.47754C7.53125 7.625 7.97949 7.20312 8.78809 7.20312H19.2031C20.0029 7.20312 20.46 7.625 20.46 8.47754V18.8574C20.46 19.71 20.0029 20.1318 19.2031 20.1318H8.78809ZM14 18.585C14.2285 18.585 14.4043 18.4268 14.4043 18.1807V17.5918C15.8281 17.46 16.9004 16.6514 16.9004 15.3154C16.9004 14.1201 16.127 13.417 14.5977 13.127L14.4043 13.0918V10.9033C14.958 11 15.3535 11.334 15.5205 11.8525C15.6436 12.1426 15.8369 12.3096 16.1533 12.3096C16.5049 12.3096 16.751 12.0811 16.751 11.7383C16.751 11.6328 16.7246 11.5361 16.6982 11.4395C16.4609 10.5254 15.582 9.875 14.4043 9.75195V9.16309C14.4043 8.92578 14.2285 8.76758 14 8.76758C13.7715 8.76758 13.6045 8.92578 13.6045 9.16309V9.75195C12.2158 9.89258 11.2314 10.7363 11.2314 11.9668C11.2314 13.1006 11.9961 13.7773 13.4551 14.1113L13.6045 14.1465V16.458C12.8926 16.3525 12.4795 15.9746 12.3389 15.4561C12.2158 15.1484 12.0137 14.9814 11.7148 14.9814C11.3457 14.9814 11.1084 15.2275 11.1084 15.5791C11.1084 15.6846 11.126 15.7812 11.1611 15.8867C11.416 16.8184 12.3477 17.4775 13.6045 17.583V18.1807C13.6045 18.4268 13.7715 18.585 14 18.585ZM13.6045 12.8896L13.543 12.8721C12.8398 12.6611 12.5146 12.3535 12.5146 11.8877C12.5146 11.3955 12.9277 11 13.6045 10.8945V12.8896ZM14.4043 14.3398L14.5625 14.3838C15.3359 14.5859 15.6084 14.9023 15.6084 15.4033C15.6084 15.9658 15.2041 16.3701 14.4043 16.458V14.3398Z" fill="#1C1C1E"/>
</svg>
