<svg width="28" height="28" viewBox="0 0 28 28" fill="none" xmlns="http://www.w3.org/2000/svg">
<path d="M13.9912 22.7422C18.9746 22.7422 23.0879 18.6289 23.0879 13.6543C23.0879 8.67969 18.9658 4.56641 13.9824 4.56641C9.00781 4.56641 4.90332 8.67969 4.90332 13.6543C4.90332 18.6289 9.0166 22.7422 13.9912 22.7422ZM10.6777 14.0059C10.6777 12.3008 11.7939 11.1758 13.2529 11.1758C13.9736 11.1758 14.5889 11.457 14.9668 11.9141V10.5605H13.4111C13.165 10.5605 12.9893 10.3936 12.9893 10.1475C12.9893 9.90137 13.1562 9.72559 13.4111 9.72559H14.9756V9.37402C14.9756 8.97852 15.248 8.72363 15.6436 8.72363C16.0479 8.72363 16.3203 8.97852 16.3203 9.37402V9.72559H16.8828C17.1289 9.72559 17.2959 9.90137 17.2959 10.1475C17.2959 10.3936 17.1289 10.5605 16.8828 10.5605H16.3291V16.2559C16.3291 16.6777 16.0654 16.9326 15.6699 16.9326C15.3096 16.9326 15.0459 16.6953 15.0283 16.335V16.0361C14.6328 16.5547 14 16.8447 13.2617 16.8447C11.8027 16.8447 10.6777 15.7021 10.6777 14.0059ZM12.0664 14.0146C12.0664 14.999 12.6641 15.6582 13.5342 15.6582C14.3867 15.6582 14.9932 14.9639 14.9932 14.0146C14.9932 13.0654 14.3867 12.3711 13.5342 12.3711C12.6641 12.3711 12.0664 13.0303 12.0664 14.0146ZM11.1348 17.8379C11.1348 17.5918 11.3193 17.4072 11.5566 17.4072H16.1709C16.417 17.4072 16.6016 17.583 16.6016 17.8379C16.6016 18.0752 16.417 18.251 16.1709 18.251H11.5566C11.3281 18.251 11.1348 18.0752 11.1348 17.8379Z" fill="#1C1C1E"/>
</svg>
