<svg width="28" height="28" viewBox="0 0 28 28" fill="none" xmlns="http://www.w3.org/2000/svg">
<path d="M2.2666 13.6631C2.2666 16.625 3.37402 19.3408 5.30762 21.3711C5.65039 21.7402 6.14258 21.7139 6.43262 21.3887C6.72266 21.0811 6.66113 20.624 6.33594 20.2725C4.6748 18.5322 3.76953 16.2031 3.76953 13.6631C3.76953 11.123 4.6748 8.79395 6.33594 7.05371C6.66113 6.70215 6.72266 6.24512 6.43262 5.92871C6.14258 5.6123 5.65039 5.58594 5.30762 5.95508C3.37402 7.97656 2.2666 10.7012 2.2666 13.6631ZM25.7246 13.6631C25.7246 10.7012 24.6172 7.97656 22.6836 5.95508C22.332 5.58594 21.8398 5.6123 21.5498 5.92871C21.2686 6.24512 21.3213 6.70215 21.6553 7.05371C23.3164 8.79395 24.2217 11.123 24.2217 13.6631C24.2217 16.2031 23.3164 18.5322 21.6553 20.2725C21.3213 20.624 21.2686 21.0811 21.5498 21.3887C21.8398 21.7139 22.332 21.7402 22.6836 21.3711C24.6172 19.3408 25.7246 16.625 25.7246 13.6631ZM5.46582 13.6631C5.46582 15.7725 6.22168 17.7324 7.5752 19.2002C7.92676 19.5869 8.43652 19.5869 8.73535 19.2441C9.03418 18.9102 8.95508 18.4883 8.62109 18.1191C7.54883 16.915 6.96875 15.3594 6.96875 13.6631C6.96875 11.958 7.54883 10.4111 8.62109 9.20703C8.95508 8.83789 9.03418 8.40723 8.73535 8.08203C8.43652 7.73047 7.92676 7.73926 7.5752 8.11719C6.22168 9.59375 5.46582 11.5537 5.46582 13.6631ZM22.5166 13.6631C22.5166 11.5537 21.7607 9.59375 20.416 8.11719C20.0645 7.73926 19.5459 7.73047 19.2471 8.08203C18.957 8.40723 19.0273 8.83789 19.3613 9.20703C20.4336 10.4111 21.0137 11.958 21.0137 13.6631C21.0137 15.3594 20.4336 16.915 19.3613 18.1191C19.0273 18.4883 18.957 18.9102 19.2471 19.2441C19.5459 19.5869 20.0645 19.5869 20.416 19.2002C21.7607 17.7324 22.5166 15.7725 22.5166 13.6631ZM8.67383 13.6631C8.67383 14.8584 9.07812 15.9834 9.78125 16.8711C10.1064 17.2842 10.6602 17.293 10.9678 16.9414C11.2578 16.6162 11.1523 16.2207 10.8623 15.8164C10.4141 15.2275 10.168 14.4805 10.168 13.6631C10.168 12.8457 10.4141 12.0986 10.8623 11.5098C11.1523 11.0967 11.2578 10.7012 10.9678 10.376C10.6602 10.0332 10.1064 10.042 9.78125 10.4463C9.07812 11.3428 8.67383 12.4678 8.67383 13.6631ZM19.3174 13.6631C19.3174 12.4678 18.9131 11.3428 18.2012 10.4463C17.8848 10.042 17.3311 10.0332 17.0234 10.376C16.7246 10.7012 16.8301 11.0967 17.1289 11.5098C17.5771 12.0986 17.8145 12.8457 17.8145 13.6631C17.8145 14.4805 17.5771 15.2275 17.1289 15.8164C16.8301 16.2207 16.7246 16.6162 17.0234 16.9414C17.3311 17.293 17.8848 17.2842 18.2012 16.8711C18.9131 15.9834 19.3174 14.8584 19.3174 13.6631ZM13.9912 15.8076C15.1514 15.8076 16.1357 14.832 16.1357 13.6543C16.1357 12.4766 15.1514 11.5098 13.9912 11.5098C12.8398 11.5098 11.8467 12.4766 11.8467 13.6543C11.8467 14.832 12.8398 15.8076 13.9912 15.8076Z" fill="#1C1C1E"/>
</svg>
