<svg width="28" height="28" viewBox="0 0 28 28" fill="none" xmlns="http://www.w3.org/2000/svg">
<path d="M11.3633 21.6963C12.6201 21.6963 13.833 21.4326 14.9229 20.9404L13.7715 19.4727C13.0244 19.7539 12.2158 19.9033 11.3633 19.9033C7.32031 19.9033 4.07715 16.6602 4.07715 12.6172C4.07715 8.56543 7.30273 5.33105 11.3545 5.32227C15.415 5.32227 18.623 8.54785 18.6406 12.582C19.2031 12.4854 19.8359 12.5117 20.4336 12.6523C20.46 7.66895 16.3643 3.53809 11.3633 3.53809C6.38867 3.53809 2.28418 7.64258 2.28418 12.6172C2.28418 17.583 6.38867 21.6963 11.3633 21.6963ZM11.3721 15.3154C12.8486 15.3154 14.0703 14.1025 14.0703 12.6084C14.0703 11.123 12.8486 9.91016 11.3721 9.91016C9.87793 9.91016 8.65625 11.123 8.65625 12.6084C8.65625 14.1025 9.88672 15.3154 11.3721 15.3154ZM22.5166 22.9795C25.3994 21.9336 26.3662 19.543 25.2588 16.4668L24.793 15.1836C24.3799 14.0234 23.5449 13.4961 22.8945 13.7334C22.7275 13.7949 22.6748 13.918 22.7275 14.0674L22.9297 14.6211C23.0176 14.876 22.9385 15.043 22.7891 15.0957C22.6309 15.1484 22.4639 15.0781 22.376 14.8232L22.2441 14.4541C21.9893 13.7686 21.374 13.4697 20.7676 13.6895C20.4863 13.7949 20.3896 13.9619 20.4775 14.2168L20.7588 14.9639C20.8555 15.21 20.7764 15.377 20.6357 15.4297C20.4688 15.4912 20.3018 15.4121 20.2139 15.166L19.959 14.4629C19.6865 13.6895 19.0889 13.4785 18.4912 13.6895C18.2188 13.7861 18.1221 13.9707 18.21 14.208L18.7373 15.7021C18.834 15.9482 18.7549 16.1152 18.6143 16.168C18.4561 16.2295 18.2891 16.1504 18.1924 15.8955L16.4082 10.9736C16.2236 10.4639 15.7666 10.2529 15.3359 10.4111C14.8701 10.5781 14.668 11.0352 14.8525 11.5361L17.4717 18.6992C17.5332 18.8662 17.4541 18.998 17.3486 19.0244C17.252 19.0596 17.1465 19.0332 17.0146 18.9014L15.2744 17.0205C14.9932 16.7217 14.7031 16.625 14.3691 16.748C13.8945 16.9238 13.7012 17.3633 13.8506 17.7764C13.8945 17.917 13.9736 18.0488 14.0615 18.1455L16.3115 20.9492C18.2012 23.2871 20.3633 23.7705 22.5166 22.9795Z" fill="#1C1C1E"/>
</svg>
