<svg width="28" height="28" viewBox="0 0 28 28" fill="none" xmlns="http://www.w3.org/2000/svg">
<path d="M7.27637 7.57227C7.27637 8.00293 7.63672 8.36328 8.07617 8.36328C14.2549 8.36328 19.2383 13.3555 19.2383 19.5254C19.2383 19.9648 19.5986 20.3252 20.0381 20.3252C20.4775 20.3252 20.8291 19.9648 20.8291 19.5254C20.8291 12.4766 15.125 6.77246 8.07617 6.77246C7.63672 6.77246 7.27637 7.13281 7.27637 7.57227ZM7.27637 11.3428C7.27637 11.7822 7.63672 12.1426 8.07617 12.1426C12.1807 12.1426 15.4678 15.4297 15.4678 19.5254C15.4678 19.9648 15.8193 20.3252 16.2588 20.3252C16.6982 20.3252 17.0586 19.9648 17.0586 19.5254C17.0586 14.5596 13.0508 10.5518 8.07617 10.5518C7.63672 10.5518 7.27637 10.9121 7.27637 11.3428ZM7.27637 14.9375C7.27637 15.3682 7.63672 15.7285 8.07617 15.7285C10.168 15.7285 11.873 17.4336 11.873 19.5254C11.873 19.9648 12.2334 20.3252 12.6729 20.3252C13.1123 20.3252 13.4639 19.9648 13.4639 19.5254C13.4639 16.5547 11.0381 14.1377 8.07617 14.1377C7.63672 14.1377 7.27637 14.498 7.27637 14.9375ZM8.48047 20.4395C9.19238 20.4395 9.77246 19.8506 9.77246 19.1475C9.77246 18.418 9.20117 17.8467 8.48047 17.8467C7.76855 17.8467 7.1709 18.4443 7.1709 19.165C7.1709 19.8506 7.77734 20.4395 8.48047 20.4395Z" fill="#1C1C1E"/>
</svg>
