<svg width="28" height="28" viewBox="0 0 28 28" fill="none" xmlns="http://www.w3.org/2000/svg">
<path d="M10.458 8.00293C10.458 8.97852 10.5547 9.30371 11.1963 9.93652L12.9102 11.6504C13.5518 12.292 14.4482 12.292 15.0986 11.6504L16.8037 9.93652C17.4453 9.30371 17.542 8.97852 17.542 8.00293V5.79688C17.542 4.60156 16.8828 3.87207 15.8193 3.87207H12.1807C11.1172 3.87207 10.458 4.60156 10.458 5.79688V8.00293ZM8.33984 17.1963C9.31543 17.1963 9.64062 17.0996 10.2822 16.458L11.9873 14.7529C12.6377 14.1025 12.6377 13.2061 11.9873 12.5557L10.2822 10.8506C9.64062 10.209 9.31543 10.1123 8.33984 10.1123H6.13379C4.94727 10.1123 4.20898 10.7715 4.20898 11.835V15.4736C4.20898 16.5371 4.94727 17.1963 6.13379 17.1963H8.33984ZM19.6426 10.1123C18.667 10.1123 18.3506 10.209 17.709 10.8506L16.0039 12.5557C15.3535 13.2061 15.3535 14.1025 16.0039 14.7529L17.709 16.458C18.3506 17.0996 18.667 17.1963 19.6426 17.1963H21.8574C23.0439 17.1963 23.7822 16.5371 23.7822 15.4736V11.835C23.7822 10.7715 23.0439 10.1123 21.8574 10.1123H19.6426ZM8.36621 15.7373H6.25684C5.8877 15.7373 5.66797 15.5176 5.66797 15.1396V12.1689C5.66797 11.791 5.8877 11.5713 6.25684 11.5713H8.36621C8.77051 11.5713 8.99023 11.624 9.25391 11.8965L10.8184 13.4609C10.9502 13.5928 10.9502 13.7158 10.8184 13.8477L9.25391 15.4121C8.99023 15.6846 8.77051 15.7373 8.36621 15.7373ZM19.625 11.5713H21.7256C22.1035 11.5713 22.3232 11.791 22.3232 12.1689V15.1396C22.3232 15.5176 22.1035 15.7373 21.7256 15.7373H19.625C19.2207 15.7373 19.001 15.6846 18.7285 15.4121L17.1641 13.8477C17.0322 13.7158 17.041 13.5928 17.1641 13.4609L18.7285 11.8965C19.001 11.624 19.2207 11.5713 19.625 11.5713ZM17.542 19.2969C17.542 18.3213 17.4453 18.0049 16.8037 17.3633L15.0898 15.6494C14.4482 15.0078 13.5518 15.0078 12.9014 15.6494L11.1963 17.3633C10.5547 18.0049 10.458 18.3213 10.458 19.2969V21.5029C10.458 22.6982 11.1172 23.4365 12.1807 23.4365H15.8193C16.8828 23.4365 17.542 22.6982 17.542 21.5029V19.2969ZM16.083 19.2793V21.3799C16.083 21.7578 15.8633 21.9775 15.4854 21.9775H12.5146C12.1367 21.9775 11.917 21.7578 11.917 21.3799V19.2793C11.917 18.875 11.9697 18.6553 12.2422 18.3828L13.8066 16.8184C13.9385 16.6865 14.0615 16.6953 14.1934 16.8184L15.7578 18.3828C16.0215 18.6553 16.083 18.875 16.083 19.2793Z" fill="#1C1C1E"/>
</svg>
