<svg width="28" height="28" viewBox="0 0 28 28" fill="none" xmlns="http://www.w3.org/2000/svg">
<path d="M8.67383 21.8809H19.3174C21.2246 21.8809 22.209 20.8965 22.209 19.0156V8.31934C22.209 6.43848 21.2246 5.4541 19.3174 5.4541H8.67383C6.77539 5.4541 5.78223 6.42969 5.78223 8.31934V19.0156C5.78223 20.8965 6.77539 21.8809 8.67383 21.8809ZM8.78809 20.1318C7.97949 20.1318 7.53125 19.71 7.53125 18.8574V8.47754C7.53125 7.625 7.97949 7.20312 8.78809 7.20312H19.2031C20.0029 7.20312 20.46 7.625 20.46 8.47754V18.8574C20.46 19.71 20.0029 20.1318 19.2031 20.1318H8.78809ZM12.04 17.5654H16.0303C16.4521 17.5654 16.7334 17.3105 16.7334 16.8887C16.7334 16.4756 16.4521 16.2207 16.0303 16.2207H12.8223V14.1465H15.8457C16.2412 14.1465 16.5137 13.9355 16.5137 13.54C16.5137 13.1445 16.2412 12.916 15.8457 12.916H12.8223V10.9648H16.0303C16.4521 10.9648 16.7334 10.7012 16.7334 10.2881C16.7334 9.86621 16.4521 9.62012 16.0303 9.62012H12.04C11.4688 9.62012 11.1699 9.98926 11.1699 10.5781V16.5986C11.1699 17.1963 11.46 17.5654 12.04 17.5654Z" fill="#1C1C1E"/>
</svg>
