<svg width="28" height="28" viewBox="0 0 28 28" fill="none" xmlns="http://www.w3.org/2000/svg">
<path d="M8.67383 21.8809H19.3174C21.2246 21.8809 22.209 20.8965 22.209 19.0156V8.31934C22.209 6.43848 21.2246 5.4541 19.3174 5.4541H8.67383C6.77539 5.4541 5.78223 6.42969 5.78223 8.31934V19.0156C5.78223 20.8965 6.77539 21.8809 8.67383 21.8809ZM11.9873 17.7236C11.3809 17.7236 11.0645 17.3369 11.0645 16.7129V10.4727C11.0645 9.84863 11.3809 9.46191 11.9873 9.46191H16.127C16.5752 9.46191 16.874 9.7168 16.874 10.165C16.874 10.5957 16.5752 10.8682 16.127 10.8682H12.8135V12.8896H15.9424C16.3555 12.8896 16.6367 13.1182 16.6367 13.54C16.6367 13.9443 16.3555 14.1729 15.9424 14.1729H12.8135V16.3174H16.127C16.5752 16.3174 16.874 16.5723 16.874 17.0205C16.874 17.4512 16.5752 17.7236 16.127 17.7236H11.9873Z" fill="#1C1C1E"/>
</svg>
