<svg width="28" height="28" viewBox="0 0 28 28" fill="none" xmlns="http://www.w3.org/2000/svg">
<path d="M1.66895 9.16309C1.66895 10.9297 2.9082 12.4062 4.56934 12.7754C4.14746 12.0107 3.90137 11.1494 3.90137 10.2178C3.90137 8.27539 4.95605 6.5791 6.51172 5.65625C6.15137 5.54199 5.77344 5.47168 5.36914 5.47168C3.33008 5.47168 1.66895 7.13281 1.66895 9.16309ZM22.6309 12.8633C24.6611 12.8633 26.3223 11.2021 26.3223 9.16309C26.3223 7.13281 24.6611 5.47168 22.6309 5.47168C20.583 5.47168 18.9219 7.13281 18.9219 9.16309C18.9219 11.2021 20.583 12.8633 22.6309 12.8633ZM8.73535 21.8457H9.64941C10.3965 21.8457 10.8447 21.415 10.8447 20.6768V15.9658C10.8447 14.876 11.1172 14.3311 12.0049 13.5488C12.9453 12.7227 13.5518 11.5537 13.5518 10.209C13.5518 7.80957 11.6094 5.8584 9.19238 5.8584C6.77539 5.8584 4.83301 7.80957 4.83301 10.209C4.83301 11.5537 5.43945 12.7227 6.37988 13.5488C7.26758 14.3311 7.54004 14.876 7.54004 15.9658V20.6768C7.54004 21.415 7.98828 21.8457 8.73535 21.8457ZM18.5967 21.8457H19.5107C20.2578 21.8457 20.7061 21.415 20.7061 20.6768V15.9658C20.7061 14.9287 20.9697 14.3926 21.6992 13.6982C19.5898 13.2676 17.9902 11.3955 17.9902 9.16309C17.9902 7.87109 18.5264 6.69336 19.3877 5.8584H19.0537C16.6367 5.8584 14.6943 7.80957 14.6943 10.209C14.6943 11.5537 15.292 12.7227 16.2412 13.5488C17.1289 14.3311 17.4014 14.876 17.4014 15.9658V20.6768C17.4014 21.415 17.8496 21.8457 18.5967 21.8457ZM24.3975 10.7363C23.9141 10.7363 23.5361 10.042 23.5361 9.16309C23.5361 8.30176 23.9141 7.60742 24.3975 7.60742C24.8633 7.60742 25.2412 8.30176 25.2412 9.16309C25.2412 10.042 24.8633 10.7363 24.3975 10.7363ZM10.1768 11.3604C9.88672 11.3604 9.6582 11.1318 9.6582 10.8506V9.09277C9.6582 8.81152 9.88672 8.5918 10.1768 8.5918C10.4492 8.5918 10.6777 8.81152 10.6777 9.09277V10.8506C10.6777 11.1318 10.4492 11.3604 10.1768 11.3604Z" fill="#1C1C1E"/>
</svg>
