<svg width="30" height="29" viewBox="0 0 30 29" fill="none" xmlns="http://www.w3.org/2000/svg">
<g filter="url(#filter0_d_610_1531)">
<path d="M4.3125 11.668H25.6787V11.4043C25.6787 8.1084 23.7715 6.50879 20.2031 6.50879H9.80566C6.2373 6.50879 4.3125 8.09961 4.3125 11.4043V11.668ZM9.80566 20.7998H20.1855C23.9033 20.7998 25.6787 19.0596 25.6787 15.4297V12.5996H4.3125V15.4297C4.3125 19.0596 6.08789 20.7998 9.80566 20.7998ZM15 15.9043C14.5166 15.9131 14.1211 15.5176 14.1211 15.0342C14.1211 14.5508 14.5166 14.1553 15 14.1553C15.4834 14.1553 15.8701 14.5508 15.8701 15.0342C15.8701 15.5176 15.4834 15.9043 15 15.9043Z" fill="#1C1C1E"/>
</g>
<defs>
<filter id="filter0_d_610_1531" x="-3" y="0" width="36" height="36" filterUnits="userSpaceOnUse" color-interpolation-filters="sRGB">
<feFlood flood-opacity="0" result="BackgroundImageFix"/>
<feColorMatrix in="SourceAlpha" type="matrix" values="0 0 0 0 0 0 0 0 0 0 0 0 0 0 0 0 0 0 127 0" result="hardAlpha"/>
<feOffset dy="4"/>
<feGaussianBlur stdDeviation="2"/>
<feComposite in2="hardAlpha" operator="out"/>
<feColorMatrix type="matrix" values="0 0 0 0 0 0 0 0 0 0 0 0 0 0 0 0 0 0 0.25 0"/>
<feBlend mode="normal" in2="BackgroundImageFix" result="effect1_dropShadow_610_1531"/>
<feBlend mode="normal" in="SourceGraphic" in2="effect1_dropShadow_610_1531" result="shape"/>
</filter>
</defs>
</svg>
