<svg width="28" height="28" viewBox="0 0 28 28" fill="none" xmlns="http://www.w3.org/2000/svg">
<path d="M18.7197 12.3536C20.4951 12.3536 21.6816 11.2813 22.2705 10.4024C22.4639 10.1123 22.543 9.79593 22.543 9.46195V8.19633C22.543 7.85355 22.4551 7.53715 22.2705 7.2559C21.6816 6.34183 20.4951 5.31351 18.7197 5.29593C16.6895 5.28715 14.9316 6.87797 14.9492 8.82035C14.9668 10.7715 16.6807 12.3536 18.7197 12.3536ZM9.27148 12.3536C11.3105 12.3799 13.0684 10.7715 13.042 8.82035C13.0068 6.87797 11.3018 5.29593 9.27148 5.29593C7.49609 5.29593 6.33594 6.35062 5.7207 7.2559C5.53613 7.53715 5.44824 7.85355 5.44824 8.19633V9.46195C5.44824 9.79593 5.53613 10.1123 5.7207 10.4024C6.29199 11.2901 7.49609 12.336 9.27148 12.3536ZM7.10938 10.2266C6.87207 10.2266 6.67871 10.042 6.67871 9.79593V7.85355C6.67871 7.60746 6.87207 7.42289 7.10938 7.42289C7.35547 7.42289 7.54883 7.60746 7.54883 7.85355V9.79593C7.54883 10.042 7.35547 10.2266 7.10938 10.2266ZM20.8818 10.2266C20.6357 10.2266 20.4424 10.042 20.4424 9.79593V7.85355C20.4424 7.60746 20.6357 7.42289 20.8818 7.42289C21.1191 7.42289 21.3125 7.60746 21.3125 7.85355V9.79593C21.3125 10.042 21.1191 10.2266 20.8818 10.2266ZM10.3789 21.9776H11.4336V18.7784C11.8994 18.7168 12.1895 18.4268 12.1895 17.9346V12.3448C11.4424 12.8545 10.5547 13.1709 9.61426 13.2325V17.9346C9.61426 18.4268 9.91309 18.7256 10.3789 18.7784V21.9776ZM16.5664 21.9776H17.6211V18.7784C18.0869 18.7168 18.377 18.4268 18.377 17.9346V13.2325C17.4365 13.1709 16.5488 12.8545 15.8018 12.3448V17.9346C15.8018 18.4268 16.0918 18.7256 16.5664 18.7784V21.9776Z" fill="#1C1C1E"/>
</svg>
