<svg width="28" height="28" viewBox="0 0 28 28" fill="none" xmlns="http://www.w3.org/2000/svg">
<path d="M2.49512 13.6543C2.49512 14.2695 2.84668 14.6914 3.51465 14.8145C4.63086 15.0078 5.07031 15.5703 5.07031 16.9414V19.1914C5.07031 21.7139 6.23926 22.8652 8.75293 22.8652C8.9375 22.8652 9.11328 22.8389 9.24512 22.8037C9.6582 22.6719 9.86035 22.3818 9.86035 22.0127C9.86035 21.6084 9.67578 21.3799 9.29785 21.2744C9.20117 21.2568 9.10449 21.2393 8.99023 21.2305C7.58398 21.1162 7.06543 20.5098 7.06543 18.9541V16.2383C7.06543 14.7266 6.21289 13.8564 4.77148 13.707C4.70996 13.707 4.70996 13.6279 4.77148 13.6279C6.21289 13.4785 7.06543 12.6084 7.06543 11.0967V8.38086C7.06543 6.81641 7.58398 6.21875 8.99023 6.11328C9.13086 6.10449 9.2627 6.07812 9.35938 6.04297C9.68457 5.9375 9.86035 5.7002 9.86035 5.31348C9.86035 4.94434 9.6582 4.67188 9.24512 4.54004C9.08691 4.4873 8.90234 4.46094 8.68262 4.46094C6.23047 4.46094 5.07031 5.62988 5.07031 8.15234V10.3936C5.07031 11.7646 4.62207 12.3184 3.51465 12.5117C2.84668 12.6436 2.49512 13.0566 2.49512 13.6543ZM25.4961 13.6543C25.4961 13.0566 25.1357 12.6436 24.4766 12.5117C23.3604 12.3184 22.9209 11.7646 22.9209 10.3936V8.15234C22.9209 5.62988 21.7607 4.46094 19.3086 4.46094C19.0889 4.46094 18.9043 4.4873 18.7373 4.54004C18.333 4.67188 18.1309 4.94434 18.1309 5.31348C18.1309 5.7002 18.2979 5.9375 18.6318 6.04297C18.7285 6.07812 18.8516 6.10449 19.001 6.11328C20.4072 6.21875 20.917 6.81641 20.917 8.38086V11.0967C20.917 12.6084 21.7695 13.4785 23.2197 13.6279C23.2812 13.6279 23.2725 13.707 23.2197 13.707C21.7695 13.8564 20.917 14.7266 20.917 16.2383V18.9541C20.917 20.5098 20.4072 21.1162 19.001 21.2305C18.8867 21.2393 18.79 21.2568 18.6934 21.2744C18.3154 21.3799 18.1309 21.6084 18.1309 22.0127C18.1309 22.3818 18.333 22.6719 18.7461 22.8037C18.8779 22.8389 19.0537 22.8652 19.2383 22.8652C21.752 22.8652 22.9209 21.7139 22.9209 19.1914V16.9414C22.9209 15.5703 23.3604 15.0078 24.4766 14.8145C25.1357 14.6914 25.4961 14.2695 25.4961 13.6543ZM9.96582 15.1133C10.7568 15.1133 11.4248 14.4365 11.4248 13.6543C11.4248 12.8809 10.7568 12.1865 9.96582 12.1865C9.16602 12.1865 8.48926 12.8809 8.48926 13.6543C8.48926 14.4365 9.16602 15.1133 9.96582 15.1133ZM13.9912 15.1133C14.7822 15.1133 15.459 14.4365 15.459 13.6543C15.459 12.8809 14.7822 12.1865 13.9912 12.1865C13.209 12.1865 12.5322 12.8809 12.5322 13.6543C12.5322 14.4365 13.209 15.1133 13.9912 15.1133ZM18.0254 15.1133C18.8252 15.1133 19.4932 14.4365 19.4932 13.6543C19.4932 12.8809 18.8252 12.1865 18.0254 12.1865C17.2256 12.1865 16.5664 12.8809 16.5664 13.6543C16.5664 14.4365 17.2256 15.1133 18.0254 15.1133Z" fill="#1C1C1E"/>
</svg>
