<svg width="28" height="28" viewBox="0 0 28 28" fill="none" xmlns="http://www.w3.org/2000/svg">
<path d="M13.9912 22.7598C18.9746 22.7598 23.0879 18.6465 23.0879 13.6631C23.0879 8.68848 18.9658 4.5752 13.9824 4.5752C9.00781 4.5752 4.90332 8.68848 4.90332 13.6631C4.90332 18.6465 9.0166 22.7598 13.9912 22.7598ZM13.9912 14.085C13.833 14.085 13.666 14.0234 13.4814 13.8477L9.64941 9.99805C9.77246 9.91016 10.0361 9.83105 10.4053 9.83105H17.5684C17.9463 9.83105 18.21 9.91016 18.333 9.99805L14.4922 13.8477C14.3164 14.0146 14.1582 14.085 13.9912 14.085ZM12.2422 13.6543L9.1748 16.7217C9.10449 16.6074 9.06934 16.3877 9.06934 16.0713V11.2549C9.06934 10.9297 9.11328 10.71 9.1748 10.5957L12.2422 13.6543ZM15.7227 13.6543L18.79 10.5957C18.8516 10.71 18.8867 10.9297 18.8867 11.2549V16.0713C18.8867 16.3877 18.8516 16.6074 18.79 16.7217L15.7227 13.6543ZM13.9824 14.8408C14.3164 14.8408 14.5713 14.7178 14.9053 14.4102L15.1689 14.1641L18.333 17.3281C18.21 17.4336 17.9463 17.4951 17.5684 17.4951H10.4053C10.0186 17.4951 9.76367 17.4336 9.64062 17.3281L12.7959 14.1641L13.0684 14.4102C13.4023 14.7178 13.6572 14.8408 13.9824 14.8408Z" fill="#1C1C1E"/>
</svg>
