<svg width="28" height="28" viewBox="0 0 28 28" fill="none" xmlns="http://www.w3.org/2000/svg">
<path d="M7.0127 22.5049H20.9785C22.877 22.5049 23.8701 21.5205 23.8701 19.6396V10.9912C23.8701 9.4707 23.5713 8.9873 22.5605 8.23145L15.9775 3.17773C15.248 2.62402 14.7119 2.29883 13.9912 2.29883C13.2793 2.29883 12.7432 2.62402 12.0137 3.17773L5.43066 8.23145C4.42871 8.9873 4.12109 9.4707 4.12109 10.9912V19.6396C4.12109 21.5205 5.11426 22.5049 7.0127 22.5049ZM15.8896 13.7949C15.2568 13.1621 14.6416 12.8984 13.9824 12.8984C13.3232 12.8984 12.708 13.1621 12.0752 13.7949L11.5742 14.2783L6.58203 9.33887L12.9541 4.46094C13.3672 4.14453 13.6133 3.97754 13.9912 3.97754C14.3779 3.97754 14.6328 4.14453 15.0371 4.46094L21.3916 9.33008L16.3906 14.2783L15.8896 13.7949ZM22.2266 10.8066V19.5693C22.2266 19.7188 22.2178 19.8594 22.1826 19.9824L17.4629 15.3418L22.2266 10.6309C22.2266 10.6836 22.2266 10.7451 22.2266 10.8066ZM5.76465 19.5693V10.8066C5.76465 10.7539 5.76465 10.7012 5.76465 10.6572L10.502 15.3418L5.7998 19.9561C5.77344 19.8418 5.76465 19.71 5.76465 19.5693ZM12.9805 14.9902C13.3496 14.6211 13.6572 14.4717 13.9824 14.4717C14.3076 14.4717 14.6152 14.6211 14.9844 14.9902L20.917 20.8438H7.04785L12.9805 14.9902Z" fill="#1C1C1E"/>
</svg>
