<svg width="28" height="28" viewBox="0 0 28 28" fill="none" xmlns="http://www.w3.org/2000/svg">
<path d="M8.67383 21.8809H19.3174C21.2246 21.8809 22.209 20.8965 22.209 19.0156V8.31934C22.209 6.43848 21.2246 5.4541 19.3174 5.4541H8.67383C6.77539 5.4541 5.78223 6.42969 5.78223 8.31934V19.0156C5.78223 20.8965 6.77539 21.8809 8.67383 21.8809ZM10.7393 12.7666C10.1943 12.7666 9.81641 12.4854 9.81641 11.9756C9.81641 11.457 10.1768 11.1758 10.7393 11.1758H17.2959C17.8496 11.1758 18.21 11.457 18.21 11.9756C18.21 12.4854 17.8408 12.7666 17.2959 12.7666H10.7393ZM10.7393 16.1592C10.1943 16.1592 9.81641 15.8867 9.81641 15.3682C9.81641 14.8496 10.1768 14.5684 10.7393 14.5684H17.2959C17.8496 14.5684 18.21 14.8496 18.21 15.3682C18.21 15.8867 17.8408 16.1592 17.2959 16.1592H10.7393Z" fill="#1C1C1E"/>
</svg>
