<svg width="28" height="28" viewBox="0 0 28 28" fill="none" xmlns="http://www.w3.org/2000/svg">
<path d="M13.9823 22.7422C18.9657 22.7422 23.079 18.6289 23.079 13.6543C23.079 8.64457 18.9921 4.75102 14.3514 4.58403C13.7186 4.54887 13.2704 4.90922 13.2704 5.46293C13.2704 5.96391 13.622 6.35063 14.202 6.38578C18.078 6.5352 21.2509 9.59379 21.2596 13.6543C21.2684 17.6885 18.0165 20.9317 13.9823 20.9317C9.78113 20.9317 6.77527 17.5391 6.73133 13.7598C6.71375 13.1797 6.30066 12.8282 5.80848 12.8282C5.25477 12.8282 4.89441 13.2676 4.91199 13.9092C4.99988 18.6026 8.97254 22.7422 13.9823 22.7422ZM13.2704 14.0147C13.7977 14.0235 14.1757 13.628 14.1757 13.1094C14.1757 12.8721 14.0702 12.6348 13.8856 12.4502L9.41199 7.9766L7.83875 6.59672C8.70008 6.70219 9.77234 6.70219 10.203 6.70219C10.6513 6.70219 11.0116 6.32426 11.0116 5.88481C11.0116 5.42778 10.6513 5.05864 10.203 5.05864H6.26551C5.58875 5.05864 5.2284 5.41899 5.2284 6.08696V10.0157C5.2284 10.4727 5.59754 10.8331 6.04578 10.8331C6.49402 10.8331 6.86316 10.4727 6.86316 10.0157C6.86316 9.61137 6.85438 8.46 6.78406 7.66899L8.13758 9.24223L12.62 13.7247C12.8134 13.918 13.0331 14.0147 13.2704 14.0147Z" fill="#1C1C1E"/>
</svg>
