<svg width="28" height="28" viewBox="0 0 28 28" fill="none" xmlns="http://www.w3.org/2000/svg">
<path d="M8.49805 21.8809H9.02539V20.1582C9.02539 19.7979 9.30664 19.5166 9.66699 19.5166C10.0273 19.5166 10.2998 19.7979 10.2998 20.1582V21.8809H11.917V20.1582C11.917 19.7979 12.1982 19.5166 12.5586 19.5166C12.9189 19.5166 13.1914 19.7979 13.1914 20.1582V21.8809H14.8086V20.1582C14.8086 19.7979 15.0811 19.5166 15.4502 19.5166C15.8105 19.5166 16.083 19.7979 16.083 20.1582V21.8809H17.7002V20.1582C17.7002 19.7979 17.9727 19.5166 18.333 19.5166C18.6934 19.5166 18.9746 19.7979 18.9746 20.1582V21.8809H19.4844C21.3916 21.8809 22.3848 20.8965 22.3848 19.0156V8.31934C22.3848 6.43848 21.3916 5.4541 19.4844 5.4541H18.9746V7.17676C18.9746 7.53711 18.6934 7.80957 18.333 7.80957C17.9727 7.80957 17.7002 7.53711 17.7002 7.17676V5.4541H16.083V7.17676C16.083 7.53711 15.8105 7.80957 15.4502 7.80957C15.0811 7.80957 14.8086 7.53711 14.8086 7.17676V5.4541H13.1914V7.17676C13.1914 7.53711 12.9189 7.80957 12.5586 7.80957C12.1982 7.80957 11.917 7.53711 11.917 7.17676V5.4541H10.2998V7.17676C10.2998 7.53711 10.0273 7.80957 9.66699 7.80957C9.30664 7.80957 9.02539 7.53711 9.02539 7.17676V5.4541H8.49805C6.59961 5.4541 5.60645 6.42969 5.60645 8.31934V19.0156C5.60645 20.8965 6.59961 21.8809 8.49805 21.8809ZM9.45605 16.3174V11.0088C9.45605 10.499 9.81641 10.1475 10.335 10.1475H17.6475C18.1748 10.1475 18.5264 10.499 18.5264 11.0088V16.3174C18.5264 16.8359 18.1748 17.1875 17.6475 17.1875H10.335C9.81641 17.1875 9.45605 16.8359 9.45605 16.3174Z" fill="#1C1C1E"/>
</svg>
