<svg width="28" height="28" viewBox="0 0 28 28" fill="none" xmlns="http://www.w3.org/2000/svg">
<path d="M8.67383 21.8809H19.3174C21.2246 21.8809 22.209 20.8965 22.209 19.0156V8.31934C22.209 6.43848 21.2246 5.4541 19.3174 5.4541H8.67383C6.77539 5.4541 5.78223 6.42969 5.78223 8.31934V19.0156C5.78223 20.8965 6.77539 21.8809 8.67383 21.8809ZM15.2568 17.9697C13.2441 17.9697 11.5918 16.9238 11.126 14.9111H10.1855C9.93066 14.9111 9.76367 14.7178 9.76367 14.4717C9.76367 14.2168 9.93066 14.041 10.1855 14.041H10.9941C10.9941 13.9531 10.9854 13.8037 10.9854 13.6543C10.9854 13.5049 10.9854 13.3994 10.9941 13.2852H10.1855C9.93066 13.2852 9.76367 13.0918 9.76367 12.8457C9.76367 12.5908 9.93066 12.415 10.1855 12.415H11.1172C11.5918 10.3936 13.2441 9.34766 15.2656 9.34766C15.7402 9.34766 16.083 9.40039 16.3027 9.51465C16.5928 9.65527 16.6807 9.84863 16.6807 10.0859C16.6807 10.4023 16.4873 10.5957 16.1885 10.6221C15.9863 10.666 15.6523 10.6221 15.2656 10.6309C14.0264 10.6396 12.9893 11.2373 12.6289 12.415H15.3711C15.6348 12.415 15.8105 12.5908 15.8105 12.8457C15.8105 13.0918 15.6348 13.2852 15.3711 13.2852H12.4268C12.418 13.3906 12.418 13.5225 12.418 13.6631C12.418 13.7949 12.4268 13.9355 12.4355 14.041H15.3711C15.6348 14.041 15.8105 14.2168 15.8105 14.4717C15.8105 14.7178 15.6348 14.9111 15.3711 14.9111H12.6201C12.9893 16.0889 14.0176 16.6865 15.2568 16.6953C15.6523 16.6953 15.9775 16.6602 16.1885 16.7041C16.4873 16.7305 16.6895 16.9238 16.6895 17.2402C16.6895 17.4863 16.5664 17.6621 16.3115 17.7939C16.083 17.9082 15.7402 17.9697 15.2568 17.9697Z" fill="#1C1C1E"/>
</svg>
