<svg width="28" height="28" viewBox="0 0 28 28" fill="none" xmlns="http://www.w3.org/2000/svg">
<path d="M20.3281 20.6504C23.0703 20.6504 25.2324 18.6377 25.2324 16.124C25.2324 14.2607 24.1689 12.5996 22.4199 11.8701C22.4287 7.88867 19.5635 5.02344 15.8809 5.02344C13.543 5.02344 11.7852 6.23633 10.6865 7.82715C8.4541 7.22949 6.10742 8.89062 6.01953 11.3691C4.00684 11.7295 2.76758 13.54 2.76758 15.7373C2.76758 18.418 5.10547 20.6504 8.18164 20.6504H20.3281ZM14.0088 14.6738C13.4902 14.6738 13.2002 14.3838 13.1826 13.8564L13.0508 10.209C13.0332 9.67285 13.4287 9.28613 14 9.28613C14.5625 9.28613 14.9756 9.68164 14.958 10.2178L14.8262 13.8564C14.7998 14.3926 14.5098 14.6738 14.0088 14.6738ZM14 17.9697C13.4199 17.9697 12.9277 17.5566 12.9277 16.9678C12.9277 16.3789 13.4111 15.9658 14 15.9658C14.5889 15.9658 15.0723 16.3789 15.0723 16.9678C15.0723 17.5654 14.5889 17.9697 14 17.9697Z" fill="#1C1C1E"/>
</svg>
