<svg width="28" height="28" viewBox="0 0 28 28" fill="none" xmlns="http://www.w3.org/2000/svg">
<path d="M13.9561 22.5928C14.1143 22.5928 14.3428 22.5312 14.5713 22.417C19.6074 19.8242 21.2773 18.4619 21.2773 15.3066V8.77637C21.2773 7.73926 20.873 7.36133 20.0029 7.00098C19.0361 6.59668 15.8193 5.46289 14.8789 5.14648C14.5889 5.05859 14.2637 4.99707 13.9561 4.99707C13.6572 4.99707 13.332 5.05859 13.042 5.14648C12.0928 5.44531 8.87598 6.60547 7.91797 7.00098C7.04785 7.35254 6.64355 7.73926 6.64355 8.77637V15.3066C6.64355 18.4619 8.38379 19.7012 13.3496 22.417C13.5781 22.54 13.8066 22.5928 13.9561 22.5928ZM13.9648 14.9111C13.4463 14.9111 13.1475 14.6211 13.1299 14.0938L13.0068 9.69922C12.9893 9.16309 13.376 8.77637 13.9561 8.77637C14.5186 8.77637 14.9316 9.16309 14.9141 9.70801L14.7734 14.085C14.7559 14.6299 14.4658 14.9111 13.9648 14.9111ZM13.9648 17.9434C13.3672 17.9434 12.875 17.5127 12.875 16.9326C12.875 16.3613 13.3584 15.9219 13.9648 15.9219C14.5625 15.9219 15.0459 16.3525 15.0459 16.9326C15.0459 17.5215 14.5537 17.9434 13.9648 17.9434Z" fill="#1C1C1E"/>
</svg>
