<svg width="28" height="28" viewBox="0 0 28 28" fill="none" xmlns="http://www.w3.org/2000/svg">
<path d="M3.40039 17.2139C3.40039 19.5781 5.17578 21.3535 7.71582 21.3535H20.2842C22.8242 21.3535 24.5996 19.5781 24.5996 17.2139C24.5996 16.502 24.3975 15.8604 24.1514 15.2803L21.1279 8.19629C20.5127 6.74609 19.291 5.98145 17.6562 5.98145H10.3525C8.70898 5.98145 7.4873 6.74609 6.88086 8.19629L3.875 15.2451C3.62012 15.834 3.40039 16.4844 3.40039 17.2139ZM6.57324 13.2676L8.48926 8.5918C8.78809 7.83594 9.46484 7.44043 10.3701 7.44043H17.6299C18.5439 7.44043 19.2207 7.83594 19.5195 8.5918L21.4355 13.2676C21.084 13.1533 20.6973 13.083 20.2842 13.083H7.71582C7.30273 13.083 6.9248 13.1533 6.57324 13.2676ZM5.08789 17.2139C5.08789 15.8164 6.13379 14.7705 7.71582 14.7705H20.2842C21.8662 14.7705 22.9121 15.8164 22.9121 17.2139C22.9121 18.7607 21.8662 19.6572 20.2842 19.6572H7.71582C6.13379 19.6572 5.08789 18.6201 5.08789 17.2139ZM19.0889 17.2139C19.0889 17.8555 19.6162 18.3652 20.249 18.3564C20.8643 18.3477 21.3828 17.8555 21.3828 17.2139C21.3828 16.6074 20.8555 16.0801 20.249 16.0801C19.6162 16.0801 19.0889 16.6074 19.0889 17.2139Z" fill="#1C1C1E"/>
</svg>
