<svg width="28" height="28" viewBox="0 0 28 28" fill="none" xmlns="http://www.w3.org/2000/svg">
<path d="M8.67383 21.8721H19.3174C21.2158 21.8721 22.2002 20.8877 22.2002 19.0156V8.31934C22.2002 6.43848 21.2158 5.46289 19.3174 5.46289H8.67383C6.77539 5.46289 5.79102 6.43848 5.79102 8.31934V19.0156C5.79102 20.8965 6.77539 21.8721 8.67383 21.8721ZM14.0176 17.3721C10.5459 17.3721 8.12012 14.5332 8.12012 13.6543C8.12012 12.7842 10.5283 9.9541 14.0176 9.9541C17.5156 9.9541 19.9062 12.7842 19.9062 13.6543C19.9062 14.5332 17.5244 17.3721 14.0176 17.3721ZM14.0176 16.0625C15.3447 16.0625 16.4258 14.9639 16.4258 13.6631C16.4258 12.3184 15.3447 11.2549 14.0176 11.2549C12.6816 11.2549 11.6006 12.3184 11.6006 13.6631C11.6006 14.9639 12.6816 16.0625 14.0176 16.0625ZM14.0264 14.7178C13.4463 14.7178 12.9629 14.2256 12.9629 13.6631C12.9629 13.0918 13.4463 12.5996 14.0264 12.5996C14.5889 12.5996 15.0811 13.0918 15.0811 13.6631C15.0811 14.2256 14.5889 14.7178 14.0264 14.7178Z" fill="#1C1C1E"/>
</svg>
