<svg width="28" height="28" viewBox="0 0 28 28" fill="none" xmlns="http://www.w3.org/2000/svg">
<path d="M18.6758 14.2783L18.9482 13.9883C19.4316 13.4873 19.4404 12.8985 18.9395 12.3975L18.6934 12.1514C20.0908 10.9209 21.6025 10.7979 22.5869 9.80471C23.9492 8.42482 23.5977 6.4385 22.5518 5.38381C21.5146 4.32912 19.5283 4.00393 18.1309 5.34865C17.1289 6.32424 17.0146 7.84475 15.7842 9.24221L15.5469 8.99611C15.0459 8.49514 14.4482 8.51272 13.9473 8.98732L13.6572 9.25979C13.0684 9.8135 13.1562 10.3408 13.6836 10.8594L14.0352 11.2197L7.60156 17.6533C4.77148 20.4922 5.89648 20.4307 4.5166 22.3467L5.42188 23.2959C7.27637 21.9248 7.38184 23.1641 10.2383 20.3252L16.7158 13.8916L17.0762 14.252C17.6035 14.7705 18.1133 14.8584 18.6758 14.2783ZM7.47852 20.501C7.18848 20.1846 7.24121 19.8858 7.56641 19.5606L14.958 12.1338L15.8193 13.0039L8.40137 20.4219C8.11133 20.7119 7.75098 20.7998 7.47852 20.501Z" fill="#1C1C1E"/>
</svg>
