<svg width="28" height="28" viewBox="0 0 28 28" fill="none" xmlns="http://www.w3.org/2000/svg">
<path d="M8.35742 5.66504C5.79102 5.66504 3.77832 8.46875 3.51465 12.7051C3.93652 11.9053 4.72754 11.4219 5.76465 11.4219C7.32031 11.4219 8.33984 12.5029 8.33984 14.1113C8.33984 15.7373 7.32031 16.8096 5.76465 16.8096C4.82422 16.8096 4.06836 16.4141 3.62891 15.7285C4.14746 19.332 6.01953 21.6523 8.35742 21.6523C11.1084 21.6523 13.2266 18.418 13.2266 13.6543C13.2266 8.89062 11.1084 5.66504 8.35742 5.66504ZM19.6074 5.66504C17.0498 5.66504 15.0371 8.46875 14.7646 12.7051C15.1865 11.9053 15.9863 11.4219 17.0146 11.4219C18.5703 11.4219 19.5898 12.5029 19.5898 14.1113C19.5898 15.7373 18.5703 16.8096 17.0146 16.8096C16.0742 16.8096 15.3271 16.4141 14.8789 15.7285C15.3975 19.332 17.2695 21.6523 19.6074 21.6523C22.3584 21.6523 24.4766 18.418 24.4766 13.6543C24.4766 8.89062 22.3584 5.66504 19.6074 5.66504ZM5.05273 13.7949C5.36914 13.8564 5.66797 13.5664 5.74707 13.1621C5.82617 12.7754 5.63281 12.3887 5.29883 12.3271C4.99121 12.2744 4.66602 12.5557 4.5957 12.96C4.52539 13.3643 4.72754 13.7334 5.05273 13.7949ZM16.3027 13.7949C16.6191 13.8564 16.9268 13.5664 17.0059 13.1621C17.0762 12.7754 16.8828 12.3799 16.5576 12.3271C16.25 12.2744 15.916 12.5557 15.8457 12.96C15.7754 13.3643 15.9863 13.7334 16.3027 13.7949Z" fill="#1C1C1E"/>
</svg>
