<svg width="28" height="28" viewBox="0 0 28 28" fill="none" xmlns="http://www.w3.org/2000/svg">
<path d="M13.9912 22.7422C18.9746 22.7422 23.0879 18.6289 23.0879 13.6543C23.0879 8.67969 18.9658 4.56641 13.9824 4.56641C9.00781 4.56641 4.90332 8.67969 4.90332 13.6543C4.90332 18.6289 9.0166 22.7422 13.9912 22.7422ZM13.9912 20.9316C9.95703 20.9316 6.73145 17.6885 6.73145 13.6543C6.73145 9.62012 9.95703 6.38574 13.9824 6.38574C18.0166 6.38574 21.2598 9.62012 21.2686 13.6543C21.2773 17.6885 18.0254 20.9316 13.9912 20.9316ZM12.1016 17.6797C12.6553 17.6797 12.9541 17.3193 12.9541 16.7393V14.2959H15.9072C16.3027 14.2959 16.5664 14.0674 16.5664 13.6807C16.5664 13.2764 16.3027 13.0479 15.9072 13.0479H12.9541V10.9648H16.1797C16.6016 10.9648 16.8828 10.71 16.8828 10.2969C16.8828 9.875 16.6016 9.62012 16.1797 9.62012H12.1367C11.5566 9.62012 11.2578 9.98926 11.2578 10.5869V16.7393C11.2578 17.3105 11.5566 17.6797 12.1016 17.6797Z" fill="#1C1C1E"/>
</svg>
