<svg width="28" height="28" viewBox="0 0 28 28" fill="none" xmlns="http://www.w3.org/2000/svg">
<path d="M13.9912 22.7598C18.9746 22.7598 23.0879 18.6465 23.0879 13.6631C23.0879 8.68848 18.9658 4.5752 13.9824 4.5752C9.00781 4.5752 4.90332 8.68848 4.90332 13.6631C4.90332 18.6465 9.0166 22.7598 13.9912 22.7598ZM12.0312 17.8555C11.4512 17.8555 11.1436 17.46 11.1436 16.8535V10.4814C11.1436 9.85742 11.46 9.4707 12.0664 9.4707H16.2676C16.707 9.4707 17.0059 9.72559 17.0059 10.1738C17.0059 10.6045 16.707 10.877 16.2676 10.877H12.9189V13.0215H15.9863C16.3994 13.0215 16.6807 13.2676 16.6807 13.6895C16.6807 14.1025 16.3994 14.3311 15.9863 14.3311H12.9277V16.8535C12.9277 17.4688 12.6025 17.8555 12.0312 17.8555Z" fill="#1C1C1E"/>
</svg>
