<svg width="28" height="28" viewBox="0 0 28 28" fill="none" xmlns="http://www.w3.org/2000/svg">
<path d="M8.67383 21.8809H19.3174C21.2246 21.8809 22.209 20.8965 22.209 19.0156V8.31934C22.209 6.43848 21.2246 5.4541 19.3174 5.4541H8.67383C6.77539 5.4541 5.78223 6.42969 5.78223 8.31934V19.0156C5.78223 20.8965 6.77539 21.8809 8.67383 21.8809ZM12.0664 17.8467C11.4951 17.8467 11.1787 17.4512 11.1787 16.8447V10.4727C11.1787 9.84863 11.4951 9.45312 12.1016 9.45312H16.3027C16.7422 9.45312 17.041 9.7168 17.041 10.165C17.041 10.5957 16.7422 10.8682 16.3027 10.8682H12.9541V13.0127H16.0215C16.4346 13.0127 16.7158 13.25 16.7158 13.6719C16.7158 14.0938 16.4346 14.3223 16.0215 14.3223H12.9629V16.8447C12.9629 17.46 12.6377 17.8467 12.0664 17.8467Z" fill="#1C1C1E"/>
</svg>
