<svg width="28" height="28" viewBox="0 0 28 28" fill="none" xmlns="http://www.w3.org/2000/svg">
<path d="M13.9912 22.7422C18.9746 22.7422 23.0879 18.6289 23.0879 13.6543C23.0879 8.67969 18.9658 4.56641 13.9824 4.56641C9.00781 4.56641 4.90332 8.67969 4.90332 13.6543C4.90332 18.6289 9.0166 22.7422 13.9912 22.7422ZM11.3369 12.793C10.792 12.793 10.3438 12.3096 10.3438 11.6416C10.3438 10.9561 10.792 10.4814 11.3369 10.4814C11.873 10.4814 12.3301 10.9561 12.3301 11.6416C12.3301 12.3096 11.873 12.793 11.3369 12.793ZM16.6807 12.793C16.1357 12.793 15.6963 12.3096 15.6963 11.6416C15.6963 10.9561 16.1357 10.4814 16.6807 10.4814C17.2168 10.4814 17.6826 10.9561 17.6826 11.6416C17.6826 12.3096 17.2168 12.793 16.6807 12.793ZM10.7656 16.2383C10.7656 16.0186 10.9854 15.9131 11.1963 16.0098C11.8643 16.3613 12.6465 16.7656 13.9824 16.7656C15.3271 16.7656 16.1094 16.3525 16.7773 16.0098C16.9795 15.9131 17.208 16.0186 17.208 16.2383C17.208 16.8535 15.916 18.1367 13.9824 18.1367C12.0576 18.1367 10.7656 16.8535 10.7656 16.2383Z" fill="#1C1C1E"/>
</svg>
