<svg width="28" height="28" viewBox="0 0 28 28" fill="none" xmlns="http://www.w3.org/2000/svg">
<path d="M22.9297 18.0752C22.9297 15.8164 20.9434 14.5068 17.4189 13.4346C17.4102 13.3027 17.4014 13.1797 17.375 13.0566H20.9521C22.6396 13.0566 23.5801 12.1514 23.5801 10.5166C23.5801 7.65137 20.9873 4.72461 18.4121 4.72461C16.1621 4.72461 14.8438 6.71094 13.7715 10.2266C13.6484 10.2354 13.5254 10.2529 13.4023 10.2705V6.69336C13.4023 5.01465 12.4883 4.07422 10.8623 4.07422C7.98828 4.08301 5.07031 6.66699 5.07031 9.2334C5.07031 11.4922 7.04785 12.8105 10.5723 13.8828C10.5811 14.0059 10.5986 14.1289 10.6162 14.2432H7.03906C5.35156 14.2432 4.41992 15.1572 4.41992 16.792C4.41992 19.6572 7.00391 22.5928 9.57031 22.5928C11.8291 22.5928 13.1475 20.5977 14.2197 17.0732C14.3428 17.0645 14.4746 17.0469 14.5977 17.0293V20.6152C14.5977 22.2939 15.5029 23.2344 17.1289 23.2344C19.9941 23.2344 22.9297 20.6504 22.9297 18.0752ZM6.63477 9.2334C6.63477 7.51953 8.84961 5.64746 10.8447 5.64746C11.5742 5.64746 11.8291 5.91113 11.8291 6.69336V11C11.416 11.334 11.082 11.7734 10.8623 12.2656C8.09375 11.4219 6.63477 10.6309 6.63477 9.2334ZM18.4121 6.28906C20.126 6.28906 22.0068 8.5127 22.0068 10.5078C22.0068 11.2373 21.7344 11.4834 20.9521 11.4834H16.6455C16.3115 11.0703 15.8721 10.7363 15.3799 10.5166C16.2324 7.75684 17.0234 6.28906 18.4121 6.28906ZM13.9912 15.5264C12.9629 15.5264 12.1191 14.6914 12.1191 13.6543C12.1191 12.6172 12.9629 11.7646 13.9912 11.7646C15.0283 11.7646 15.8809 12.6172 15.8809 13.6543C15.8809 14.6914 15.0283 15.5264 13.9912 15.5264ZM13.9912 14.8672C14.668 14.8672 15.2129 14.3311 15.2129 13.6543C15.2129 12.9775 14.668 12.4238 13.9912 12.4238C13.3145 12.4238 12.7695 12.9688 12.7695 13.6543C12.7695 14.3398 13.3145 14.8672 13.9912 14.8672ZM16.1621 20.6152L16.1709 16.3086C16.584 15.9658 16.918 15.5352 17.1377 15.043C19.8975 15.8867 21.3564 16.6865 21.3564 18.0752C21.3564 19.7891 19.1416 21.6699 17.1465 21.6611C16.4082 21.6611 16.1621 21.3975 16.1621 20.6152ZM5.99316 16.8008C5.99316 16.0713 6.25684 15.8164 7.03906 15.8164L11.3369 15.8252C11.6797 16.2383 12.1104 16.5723 12.6113 16.792C11.7588 19.5518 10.9678 21.0107 9.57031 21.0107C7.86523 21.0107 5.99316 18.7959 5.99316 16.8008Z" fill="#1C1C1E"/>
</svg>
