<svg width="28" height="28" viewBox="0 0 28 28" fill="none" xmlns="http://www.w3.org/2000/svg">
<path d="M13.9912 22.7422C18.9746 22.7422 23.0879 18.6289 23.0879 13.6543C23.0879 8.67969 18.9658 4.56641 13.9824 4.56641C9.00781 4.56641 4.90332 8.67969 4.90332 13.6543C4.90332 18.6289 9.0166 22.7422 13.9912 22.7422ZM13.209 19.6133C12.8574 19.6133 12.6377 19.3936 12.6377 19.0068V12.1602C12.6377 11.9404 12.5586 11.7822 12.374 11.6504L11.0645 10.6484C10.7744 10.4287 10.6426 10.2002 10.6162 9.85742L10.4932 8.03809C10.4668 7.68652 10.6602 7.4668 10.9854 7.44922C11.3018 7.42285 11.5039 7.625 11.5303 7.96777L11.6533 9.80469L12.4531 10.3848C12.7432 10.5957 12.9365 10.666 13.332 10.666H14.0703C16.0742 10.666 16.9619 11.1143 16.9619 12.7139V15.1748C16.9619 15.5176 16.7686 15.7285 16.4521 15.7285C16.1357 15.7285 15.9336 15.5176 15.9336 15.1748V12.5908C15.9336 12.415 15.8281 12.2832 15.6787 12.2832C15.5205 12.2832 15.4238 12.4062 15.4238 12.5908V19.0068C15.4238 19.3936 15.2217 19.6133 14.8613 19.6133C14.5098 19.6133 14.29 19.3936 14.29 19.0068V15.1572C14.29 14.9814 14.1846 14.8584 14.0264 14.8584C13.8682 14.8584 13.7715 14.9727 13.7715 15.1572V19.0068C13.7715 19.3936 13.5605 19.6133 13.209 19.6133ZM14.0703 10.0947C13.4551 10.0947 12.9277 9.57617 12.9277 8.96094C12.9277 8.31934 13.4375 7.80078 14.0703 7.80078C14.7119 7.80078 15.2305 8.31934 15.2305 8.96094C15.2305 9.56738 14.7031 10.0947 14.0703 10.0947Z" fill="#1C1C1E"/>
</svg>
