<svg width="28" height="28" viewBox="0 0 28 28" fill="none" xmlns="http://www.w3.org/2000/svg">
<path d="M13.165 24.3066C13.7451 24.3066 14.167 23.9375 14.167 23.2431V16.5019C14.167 16.2031 14.3076 16.0273 14.5449 16.0273C14.7822 16.0273 14.9316 16.2031 14.9316 16.5019V23.2431C14.9316 23.9375 15.3535 24.3066 15.9336 24.3066C16.5049 24.3066 16.9268 23.9375 16.9268 23.2431V11.8525C16.9268 11.6152 17.041 11.4746 17.2344 11.4746C17.4189 11.4746 17.542 11.6152 17.542 11.8525V16.5283C17.542 17.1523 17.9111 17.5039 18.4385 17.5039C18.9658 17.5039 19.3262 17.1523 19.3262 16.5283V11.958C19.3262 9.17183 17.7529 8.45113 14.6328 8.45113H13.2793C12.6728 8.45113 12.3652 8.36324 11.8818 8.01167L10.7217 7.19429L10.5107 3.90718C10.4668 3.27437 10.0625 2.94039 9.53515 2.97554C8.99902 3.00191 8.62988 3.38863 8.66503 4.01265L8.87597 7.27339C8.91992 7.98531 9.20117 8.39839 9.64062 8.72359L11.75 10.2617C12.0576 10.4814 12.1631 10.7539 12.1631 11.1054V23.2431C12.1631 23.9375 12.5937 24.3066 13.165 24.3066ZM14.6328 7.57222C15.8018 7.57222 16.7422 6.60542 16.7422 5.47164C16.7422 4.30269 15.8018 3.35347 14.6328 3.35347C13.4551 3.35347 12.5322 4.30269 12.5322 5.47164C12.5322 6.623 13.4551 7.57222 14.6328 7.57222Z" fill="#1C1C1E"/>
</svg>
