<svg width="28" height="28" viewBox="0 0 28 28" fill="none" xmlns="http://www.w3.org/2000/svg">
<path d="M13.9912 22.7598C18.9746 22.7598 23.0879 18.6465 23.0879 13.6631C23.0879 8.68848 18.9658 4.5752 13.9824 4.5752C9.00781 4.5752 4.90332 8.68848 4.90332 13.6631C4.90332 18.6465 9.0166 22.7598 13.9912 22.7598ZM18.0869 18.4268L9.21875 9.55859C9.04297 9.38281 9.04297 9.08398 9.21875 8.9082C9.40332 8.72363 9.70215 8.72363 9.88672 8.9082L18.7461 17.7676C18.9219 17.9521 18.9219 18.2334 18.7461 18.4268C18.5703 18.6025 18.2715 18.5938 18.0869 18.4268ZM11.4072 9.40039C11.5479 9.38281 11.6973 9.38281 11.8906 9.38281C13.5166 9.38281 14.5449 10.1826 16.0391 10.1826C16.7686 10.1826 17.1553 9.98926 17.4277 9.98926C17.8232 9.98926 17.999 10.2002 17.999 10.5078V14.9287C17.999 15.2539 17.8584 15.4736 17.6562 15.6406L11.4072 9.40039ZM14.4482 15.8076C13.6484 15.5879 12.9014 15.2803 11.9346 15.2803C11.4336 15.2803 11.0996 15.377 10.9238 15.4385V18.04C10.9238 18.3037 10.7305 18.5146 10.458 18.5146C10.1943 18.5146 9.96582 18.2949 9.96582 18.04V11.3164L14.4482 15.8076Z" fill="#1C1C1E"/>
</svg>
