<svg width="28" height="28" viewBox="0 0 28 28" fill="none" xmlns="http://www.w3.org/2000/svg">
<path d="M21.6201 19.8066C21.8926 20.0791 22.3496 20.0791 22.6133 19.8066C22.8857 19.543 22.8857 19.0947 22.6133 18.8223L7.27637 3.49414C7.00391 3.22168 6.55566 3.22168 6.2832 3.49414C6.01074 3.75781 6.01074 4.22363 6.2832 4.4873L21.6201 19.8066ZM10.291 4.94434L22.1299 16.7832C22.2881 16.5371 22.3672 16.2471 22.3672 15.9043V7.15039C22.3672 6.57031 21.9189 6.20996 21.3213 6.20996C20.8203 6.20996 20.0293 6.54395 18.623 6.54395C15.626 6.54395 13.4375 4.98828 10.291 4.94434ZM6.5293 21.5557C6.5293 22.0039 6.90723 22.373 7.35547 22.373C7.80371 22.373 8.17285 22.0127 8.17285 21.5557V16.748C8.41895 16.6602 9.15723 16.3965 10.2734 16.3965C13.3057 16.3965 15.3271 17.8203 18.2275 17.9785L6.67871 6.43848C6.58203 6.59668 6.5293 6.76367 6.5293 6.97461V21.5557Z" fill="#1C1C1E"/>
</svg>
