<svg width="28" height="28" viewBox="0 0 28 28" fill="none" xmlns="http://www.w3.org/2000/svg">
<path d="M13.9912 22.7422C18.9746 22.7422 23.0879 18.6289 23.0879 13.6543C23.0879 8.67969 18.9658 4.56641 13.9824 4.56641C9.00781 4.56641 4.90332 8.67969 4.90332 13.6543C4.90332 18.6289 9.0166 22.7422 13.9912 22.7422ZM13.9912 20.9316C9.95703 20.9316 6.73145 17.6885 6.73145 13.6543C6.73145 9.62012 9.95703 6.38574 13.9824 6.38574C18.0166 6.38574 21.2598 9.62012 21.2686 13.6543C21.2773 17.6885 18.0254 20.9316 13.9912 20.9316ZM10.7217 18.3301C10.9854 18.3301 11.1787 18.1279 11.1787 17.873V15.3682C11.3369 15.3066 11.6621 15.21 12.1455 15.21C13.6748 15.21 14.6328 15.9746 16.1445 15.9746C16.7949 15.9746 17.085 15.9043 17.4189 15.7461C17.8057 15.5703 17.9814 15.2979 17.9814 14.876V10.6221C17.9814 10.332 17.8145 10.1299 17.4365 10.1299C17.1729 10.1299 16.7949 10.3145 16.1006 10.3145C14.6592 10.3145 13.6748 9.54102 12.1016 9.54102C11.4424 9.54102 11.1611 9.62012 10.8359 9.76953C10.458 9.93652 10.2646 10.2266 10.2646 10.6309V17.873C10.2646 18.1191 10.4756 18.3301 10.7217 18.3301Z" fill="#1C1C1E"/>
</svg>
