<svg width="28" height="28" viewBox="0 0 28 28" fill="none" xmlns="http://www.w3.org/2000/svg">
<path d="M17.7803 20.169L10.5205 7.59773C10.2129 7.06453 9.76853 6.90047 9.25584 6.94832C8.83201 7.00301 8.2783 7.21492 7.75193 7.52254C6.07713 8.49324 5.40721 10.0177 3.80076 10.9405C3.10349 11.3438 2.48142 11.5011 2.17381 11.6788C1.76365 11.918 1.57908 12.335 1.82517 12.7589L4.57322 17.5167C4.88084 18.0499 5.32517 18.2071 5.83787 18.1593C6.2617 18.1182 6.81541 17.8927 7.34178 17.585C9.01658 16.6143 9.6865 15.0968 11.2861 14.1671C11.7783 13.8868 12.2295 13.7296 12.5234 13.6134L16.6797 20.8048C16.8506 21.1124 17.2402 21.2218 17.5478 21.044C17.8486 20.8663 17.958 20.4698 17.7803 20.169ZM14.499 12.752L15.2373 14.0304L15.4697 13.6134C15.7705 13.7296 16.2148 13.8868 16.707 14.1671C18.3066 15.0968 18.9765 16.6143 20.6582 17.585C21.1777 17.8927 21.7314 18.1182 22.1553 18.1593C22.6679 18.2071 23.1191 18.0499 23.4267 17.5167L26.1679 12.7589C26.414 12.335 26.2363 11.918 25.8262 11.6788C25.5117 11.5011 24.8896 11.3438 24.1924 10.9405C22.5928 10.0177 21.9228 8.49324 20.2412 7.52254C19.7217 7.21492 19.1679 7.00301 18.7373 6.94832C18.2246 6.90047 17.7871 7.06453 17.4726 7.59773L14.499 12.752ZM16.1328 12.4718L18.5664 8.25398C18.9902 8.28133 19.4345 8.53426 19.5986 8.62996C21.164 9.5323 21.7656 11.0225 23.5566 12.0548C23.8984 12.253 24.3701 12.5196 24.7666 12.6358L22.3262 16.8536C21.9092 16.8263 21.4648 16.5802 21.3008 16.4845C19.7353 15.5889 19.1338 14.0919 17.3428 13.0596C17.001 12.8614 16.5293 12.5948 16.1328 12.4718ZM13.501 17.0313L12.7627 15.753L10.2129 20.169C10.042 20.4698 10.1445 20.8663 10.4521 21.044C10.7597 21.2218 11.1426 21.1124 11.3203 20.8048L13.501 17.0313Z" fill="#1C1C1E"/>
</svg>
