<svg width="28" height="28" viewBox="0 0 28 28" fill="none" xmlns="http://www.w3.org/2000/svg">
<path d="M13.9912 22.7422C18.9746 22.7422 23.0879 18.6289 23.0879 13.6543C23.0879 8.67969 18.9658 4.56641 13.9824 4.56641C9.00781 4.56641 4.90332 8.67969 4.90332 13.6543C4.90332 18.6289 9.0166 22.7422 13.9912 22.7422ZM13.9912 20.9316C9.95703 20.9316 6.73145 17.6885 6.73145 13.6543C6.73145 9.62012 9.95703 6.38574 13.9824 6.38574C18.0166 6.38574 21.2598 9.62012 21.2686 13.6543C21.2773 17.6885 18.0254 20.9316 13.9912 20.9316ZM17.9463 18.2422C18.1133 18.4092 18.3945 18.4092 18.5703 18.2422C18.7461 18.0664 18.7461 17.7939 18.5703 17.6182L10.0273 9.08398C9.85156 8.9082 9.57031 8.9082 9.39453 9.08398C9.22754 9.25098 9.22754 9.53223 9.39453 9.70801L17.9463 18.2422ZM11.5039 9.56738L17.5068 15.5703C17.7002 15.4033 17.8496 15.1836 17.8496 14.876V10.6221C17.8496 10.332 17.6826 10.1299 17.3047 10.1299C17.0322 10.1299 16.6631 10.3145 15.96 10.3145C14.5186 10.3145 13.5342 9.54102 11.9697 9.54102C11.7852 9.54102 11.6357 9.5498 11.5039 9.56738ZM14.4482 15.7197L10.124 11.3955V17.873C10.124 18.1191 10.3438 18.3301 10.5898 18.3301C10.8535 18.3301 11.0381 18.1279 11.0381 17.873V15.3682C11.2051 15.3066 11.5303 15.21 12.0049 15.21C12.9453 15.21 13.666 15.5088 14.4482 15.7197Z" fill="#1C1C1E"/>
</svg>
