<svg width="28" height="28" viewBox="0 0 28 28" fill="none" xmlns="http://www.w3.org/2000/svg">
<path d="M13.5693 22.4873C18.2979 22.4873 21.4619 19.2969 21.4619 14.498C21.4619 6.55273 14.668 3.23047 9.97461 3.23047C9.07812 3.23047 8.48926 3.56445 8.48926 4.20605C8.48926 4.45215 8.60352 4.71582 8.79688 4.94434C9.87793 6.24512 10.8887 7.66895 10.8975 9.35645C10.8975 9.53223 10.8887 9.69043 10.8535 9.86621C10.335 8.78516 9.47363 8.15234 8.69141 8.15234C8.27832 8.15234 7.99707 8.44238 7.99707 8.89941C7.99707 9.16309 8.05859 9.65527 8.05859 10.0859C8.05859 12.0986 6.5293 13.1445 6.5293 16.3789C6.5293 20.0439 9.33301 22.4873 13.5693 22.4873ZM13.7803 19.7803C12.1455 19.7803 11.0645 18.8047 11.0645 17.3369C11.0645 15.8076 12.1367 15.2979 12.2773 14.2432C12.2949 14.1377 12.374 14.0938 12.4707 14.1729C12.8574 14.5244 13.1123 14.9639 13.3232 15.4912C13.7715 14.8145 13.9473 13.54 13.7891 12.1689C13.7715 12.0547 13.8594 11.9932 13.9648 12.0371C15.8633 12.9072 16.8828 14.7881 16.8828 16.5459C16.8828 18.3037 15.8281 19.7803 13.7803 19.7803Z" fill="#1C1C1E"/>
</svg>
