<svg width="28" height="28" viewBox="0 0 28 28" fill="none" xmlns="http://www.w3.org/2000/svg">
<path d="M13.9912 22.7422C18.9746 22.7422 23.0879 18.6289 23.0879 13.6543C23.0879 8.67969 18.9658 4.56641 13.9824 4.56641C9.00781 4.56641 4.90332 8.67969 4.90332 13.6543C4.90332 18.6289 9.0166 22.7422 13.9912 22.7422ZM11.8379 17.9785C11.4248 17.9785 11.0996 17.9258 10.8711 17.8115C10.5723 17.6885 10.4316 17.4863 10.4316 17.2139C10.4316 16.915 10.6338 16.6953 10.959 16.6777C11.0645 16.6777 11.1436 16.6777 11.2314 16.6953C11.3721 16.7129 11.4863 16.7393 11.7324 16.7393C12.4883 16.7393 12.8486 16.3789 12.9893 15.5352L13.2441 13.9883H11.6885C11.3545 13.9883 11.1611 13.7861 11.1611 13.4873C11.1611 13.1709 11.3633 12.9688 11.6885 12.9688H13.3936L13.6133 11.6064C13.8682 10.0596 14.668 9.33008 16.127 9.33008C16.54 9.33008 16.8652 9.38281 17.0938 9.49707C17.3926 9.62012 17.542 9.82227 17.542 10.0947C17.542 10.3936 17.3398 10.6133 17.0059 10.6309C16.9004 10.6396 16.8213 10.6309 16.7334 10.6133C16.5928 10.5957 16.4785 10.5693 16.2324 10.5693C15.4854 10.5693 15.125 10.9209 14.9844 11.7471L14.7998 12.9688H16.4346C16.7686 12.9688 16.9619 13.1709 16.9619 13.4873C16.9619 13.7861 16.7686 13.9883 16.4346 13.9883H14.6328L14.3516 15.7021C14.0967 17.249 13.3057 17.9785 11.8379 17.9785Z" fill="#1C1C1E"/>
</svg>
