<svg width="28" height="28" viewBox="0 0 28 28" fill="none" xmlns="http://www.w3.org/2000/svg">
<path d="M13.9912 22.7422C18.9746 22.7422 23.0879 18.6289 23.0879 13.6543C23.0879 8.67969 18.9658 4.56641 13.9824 4.56641C9.00781 4.56641 4.90332 8.67969 4.90332 13.6543C4.90332 18.6289 9.0166 22.7422 13.9912 22.7422ZM13.9912 20.9316C9.95703 20.9316 6.73145 17.6885 6.73145 13.6543C6.73145 9.62012 9.95703 6.38574 13.9824 6.38574C18.0166 6.38574 21.2598 9.62012 21.2686 13.6543C21.2773 17.6885 18.0254 20.9316 13.9912 20.9316ZM11.9258 17.8115C13.332 17.8115 14.0879 17.1172 14.334 15.6318L14.5977 13.9795H16.3467C16.6631 13.9795 16.8477 13.7773 16.8477 13.4961C16.8477 13.1885 16.6631 12.9951 16.3467 12.9951H14.7559L14.9492 11.8174C15.0811 11.0264 15.4238 10.6836 16.1445 10.6836C16.3818 10.6836 16.4873 10.7012 16.6279 10.7275C16.707 10.7451 16.7861 10.7451 16.8828 10.7451C17.208 10.7275 17.3926 10.5254 17.3926 10.2266C17.3926 9.97168 17.2607 9.77832 16.9707 9.66406C16.751 9.55859 16.4434 9.50586 16.0391 9.50586C14.6416 9.50586 13.877 10.2002 13.6396 11.6855L13.4287 12.9951H11.7764C11.46 12.9951 11.2754 13.1885 11.2754 13.4961C11.2754 13.7773 11.46 13.9795 11.7764 13.9795H13.2705L13.0332 15.4648C12.9014 16.291 12.5498 16.6338 11.8203 16.6338C11.5918 16.6338 11.4775 16.6162 11.3457 16.5898C11.2578 16.5811 11.1787 16.5723 11.082 16.5723C10.7656 16.5898 10.5723 16.792 10.5723 17.0908C10.5723 17.3457 10.7129 17.5391 10.9941 17.6533C11.2139 17.7588 11.5303 17.8115 11.9258 17.8115Z" fill="#1C1C1E"/>
</svg>
