<svg width="28" height="28" viewBox="0 0 28 28" fill="none" xmlns="http://www.w3.org/2000/svg">
<path d="M13.9912 22.7422C18.9746 22.7422 23.0879 18.6289 23.0879 13.6543C23.0879 8.67969 18.9658 4.56641 13.9824 4.56641C9.00781 4.56641 4.90332 8.67969 4.90332 13.6543C4.90332 18.6289 9.0166 22.7422 13.9912 22.7422ZM13.9912 20.9316C9.95703 20.9316 6.73145 17.6885 6.73145 13.6543C6.73145 9.62012 9.95703 6.38574 13.9824 6.38574C18.0166 6.38574 21.2598 9.62012 21.2686 13.6543C21.2773 17.6885 18.0254 20.9316 13.9912 20.9316ZM9.15723 12.0283H18.8164V11.6592C18.8164 10.7803 18.3418 10.3232 17.4541 10.3232H13.5078C13.2002 10.3232 13.0332 10.2354 12.8047 10.0596L12.5586 9.86621C12.251 9.6377 12.0488 9.55859 11.627 9.55859H10.3877C9.61426 9.55859 9.15723 10.0068 9.15723 10.8682V12.0283ZM9.15723 16.2559C9.15723 17.1348 9.63184 17.5918 10.5283 17.5918H17.5596C18.3506 17.5918 18.8164 17.1348 18.8164 16.2559V12.7578H9.15723V16.2559Z" fill="#1C1C1E"/>
</svg>
