<svg width="28" height="28" viewBox="0 0 28 28" fill="none" xmlns="http://www.w3.org/2000/svg">
<path d="M10.9148 23.375C11.6883 23.375 12.1629 22.9355 12.1541 22.1973L11.9783 12.2393C11.9783 11.8789 12.1014 11.668 12.3914 11.5361C13.5867 11 14.1229 10.4375 14.0437 8.81152L13.7977 3.42383C13.7713 3.01074 13.534 2.77344 13.1561 2.77344C12.7781 2.77344 12.5584 3.02832 12.5584 3.44141L12.6287 8.6709C12.6287 8.99609 12.4266 9.18945 12.1365 9.18945C11.8377 9.18945 11.6355 9.00488 11.6268 8.69727L11.5389 3.27441C11.5301 2.87891 11.2928 2.63281 10.9148 2.63281C10.5369 2.63281 10.2996 2.87891 10.2908 3.27441L10.2029 8.69727C10.2029 8.99609 9.99199 9.18945 9.69316 9.18945C9.40312 9.18945 9.20098 8.99609 9.20976 8.6709L9.27129 3.44141C9.27129 3.02832 9.05156 2.77344 8.67363 2.77344C8.2957 2.77344 8.0584 3.01953 8.03203 3.42383L7.78594 8.81152C7.70683 10.4375 8.24297 11 9.43828 11.5361C9.72832 11.668 9.85137 11.8789 9.85137 12.2393L9.67558 22.1973C9.65801 22.9355 10.1414 23.375 10.9148 23.375ZM17.9021 15.6055L17.7264 22.1621C17.7 22.9355 18.1922 23.375 18.9568 23.375C19.7391 23.375 20.2137 22.9707 20.2137 22.2412V3.31836C20.2137 2.86133 19.9148 2.63281 19.5633 2.63281C19.2293 2.63281 18.992 2.81738 18.702 3.23047C17.2693 5.24316 16.285 9.11035 16.285 12.626V13.0918C16.285 13.7246 16.5047 14.1553 16.9881 14.4893L17.4627 14.8057C17.7791 15.0254 17.9109 15.2627 17.9021 15.6055Z" fill="#1C1C1E"/>
</svg>
