<svg width="28" height="28" viewBox="0 0 28 28" fill="none" xmlns="http://www.w3.org/2000/svg">
<path d="M14 22.7334C18.9658 22.7334 23.0791 18.6289 23.0791 13.6543C23.0791 8.68848 18.9658 4.5752 13.9912 4.5752C9.02539 4.5752 4.9209 8.68848 4.9209 13.6543C4.9209 18.6289 9.03418 22.7334 14 22.7334ZM12.0752 19.4727C11.6533 19.4727 11.3809 19.2354 11.3896 18.8223L11.4863 13.2148C11.4863 13.0303 11.416 12.9072 11.2578 12.8369C10.5811 12.5381 10.2822 12.2217 10.3262 11.3164L10.4668 8.28418C10.4756 8.04688 10.6074 7.91504 10.8184 7.91504C11.0381 7.91504 11.1611 8.05566 11.1611 8.29297L11.1172 11.2461C11.1172 11.4219 11.2314 11.5361 11.3896 11.5361C11.5654 11.5361 11.6797 11.4219 11.6797 11.2549L11.7236 8.21387C11.7236 7.98535 11.873 7.85352 12.0752 7.85352C12.2861 7.85352 12.4268 7.98535 12.4268 8.21387L12.4619 11.2549C12.4619 11.4219 12.585 11.5361 12.7607 11.5361C12.9277 11.5361 13.042 11.4219 13.042 11.2461L12.998 8.29297C12.998 8.05566 13.1211 7.91504 13.332 7.91504C13.543 7.91504 13.666 8.04688 13.6836 8.28418L13.833 11.3164C13.877 12.2217 13.5781 12.5381 12.9014 12.8369C12.7432 12.9072 12.6816 13.0303 12.6816 13.2148L12.7695 18.8223C12.7783 19.2354 12.5059 19.4727 12.0752 19.4727ZM15.6875 15.2188C15.6875 15.0078 15.6172 14.876 15.4326 14.7529L15.1689 14.5684C14.8965 14.3838 14.7734 14.1289 14.7734 13.7773V13.4434C14.7734 11.4746 15.3271 9.3125 16.127 8.1875C16.2939 7.9502 16.4258 7.85352 16.6104 7.85352C16.7949 7.85352 16.9707 7.96777 16.9707 8.23145V18.8398C16.9707 19.2441 16.7158 19.4727 16.2676 19.4727C15.8545 19.4727 15.5732 19.2354 15.582 18.7959L15.6875 15.2188Z" fill="#1C1C1E"/>
</svg>
