<svg width="28" height="28" viewBox="0 0 28 28" fill="none" xmlns="http://www.w3.org/2000/svg">
<path d="M6.88086 20.7295C7.26758 20.7295 7.60156 20.6152 7.97949 20.3955L16.9883 15.1045C17.5068 14.7969 17.832 14.4365 17.9375 14.0059V19.7012C17.9375 20.5361 18.3682 20.9668 19.2031 20.9668H21.2686C22.1035 20.9668 22.5342 20.5361 22.5342 19.7012V7.60742C22.5342 6.75488 22.1035 6.3418 21.2686 6.3418H19.2031C18.3682 6.3418 17.9375 6.77246 17.9375 7.60742V13.2939C17.832 12.8633 17.5156 12.5205 16.9883 12.2041L7.97949 6.91309C7.59277 6.69336 7.26758 6.5791 6.87207 6.5791C6.09863 6.5791 5.45703 7.15918 5.45703 8.23145V19.0771C5.45703 20.1494 6.10742 20.7295 6.88086 20.7295Z" fill="#1C1C1E"/>
</svg>
