<svg width="28" height="28" viewBox="0 0 28 28" fill="none" xmlns="http://www.w3.org/2000/svg">
<g clip-path="url(#clip0_308_2587)">
<path d="M0.640625 20.7031C1.02734 20.7031 1.36133 20.5889 1.73926 20.3691L10.748 15.0781C11.2666 14.7705 11.5918 14.4102 11.6973 13.9795V19.0508C11.6973 20.1143 12.3477 20.7031 13.1211 20.7031C13.5078 20.7031 13.8418 20.5889 14.2197 20.3691L23.2285 15.0781C23.7559 14.7705 24.0723 14.4102 24.1865 13.9795V19.7012C24.1865 20.5361 24.6084 20.9668 25.4521 20.9668H27.5176C28.3525 20.9668 28.7832 20.5361 28.7832 19.7012V7.60742C28.7832 6.75488 28.3525 6.3418 27.5176 6.3418H25.4521C24.6172 6.3418 24.1865 6.77246 24.1865 7.60742V13.2676C24.0723 12.8369 23.7559 12.4941 23.2285 12.1777L14.2197 6.88672C13.8418 6.66699 13.5078 6.55273 13.1211 6.55273C12.3477 6.55273 11.6973 7.13281 11.6973 8.20508V13.2676C11.5918 12.8369 11.2754 12.4941 10.748 12.1777L1.73926 6.88672C1.35254 6.66699 1.02734 6.55273 0.631836 6.55273C-0.141602 6.55273 -0.783203 7.13281 -0.783203 8.20508V19.0508C-0.783203 20.1143 -0.132812 20.7031 0.640625 20.7031Z" fill="#1C1C1E"/>
</g>
<defs>
<clipPath id="clip0_308_2587">
<rect width="28" height="28" fill="white"/>
</clipPath>
</defs>
</svg>
