<svg width="28" height="28" viewBox="0 0 28 28" fill="none" xmlns="http://www.w3.org/2000/svg">
<path d="M8.19043 20.7383C8.57715 20.7383 8.91113 20.624 9.28906 20.4043L18.2979 15.1133C18.8164 14.8057 19.1416 14.4453 19.2471 14.0146V20.1143C19.2471 20.6592 19.6777 21.0723 20.2314 21.0723C20.7939 21.0723 21.2246 20.6592 21.2246 20.1143V7.21191C21.2246 6.66699 20.7939 6.25391 20.2314 6.25391C19.6777 6.25391 19.2471 6.66699 19.2471 7.21191V13.3027C19.1416 12.8721 18.8252 12.5293 18.2979 12.2129L9.28906 6.92188C8.90234 6.70215 8.57715 6.58789 8.18164 6.58789C7.4082 6.58789 6.7666 7.16797 6.7666 8.24023V19.0859C6.7666 20.1582 7.41699 20.7383 8.19043 20.7383ZM8.70898 18.708C8.59473 18.708 8.50684 18.6377 8.50684 18.4795V8.84668C8.50684 8.68848 8.59473 8.61816 8.70898 8.61816C8.76172 8.61816 8.82324 8.63574 8.90234 8.67969L16.9707 13.4521C17.0762 13.5049 17.1289 13.5576 17.1289 13.6631C17.1289 13.7598 17.0762 13.8213 16.9707 13.874L8.90234 18.6465C8.82324 18.6904 8.76172 18.708 8.70898 18.708Z" fill="#1C1C1E"/>
</svg>
