<svg width="28" height="28" viewBox="0 0 28 28" fill="none" xmlns="http://www.w3.org/2000/svg">
<path d="M14 22.7334C18.9658 22.7334 23.0791 18.6289 23.0791 13.6543C23.0791 8.68848 18.9658 4.5752 13.9912 4.5752C9.02539 4.5752 4.9209 8.68848 4.9209 13.6543C4.9209 18.6289 9.03418 22.7334 14 22.7334ZM20.4424 13.6367C20.4424 13.9092 20.2842 14.1201 19.9854 14.2959L15.7842 16.7656C15.6084 16.8711 15.4678 16.915 15.2832 16.915C14.9316 16.915 14.6416 16.6689 14.6416 16.1768V13.9355C14.5625 14.0762 14.4395 14.1904 14.2549 14.2959L10.0625 16.7656C9.88672 16.8711 9.7373 16.915 9.55273 16.915C9.20996 16.915 8.91113 16.6689 8.91113 16.1768V11.1143C8.91113 10.6221 9.20117 10.3672 9.55273 10.3672C9.7373 10.3672 9.88672 10.4111 10.0625 10.5166L14.2549 12.9863C14.4395 13.0918 14.5625 13.2061 14.6416 13.3467V11.1143C14.6416 10.6221 14.9316 10.3672 15.2832 10.3672C15.4678 10.3672 15.6084 10.4111 15.7842 10.5166L19.9854 12.9863C20.2842 13.1621 20.4424 13.373 20.4424 13.6367Z" fill="#1C1C1E"/>
</svg>
