<svg width="28" height="28" viewBox="0 0 28 28" fill="none" xmlns="http://www.w3.org/2000/svg">
<path d="M3.91895 20.7207C4.30566 20.7207 4.63965 20.6064 5.01758 20.3779L14.0264 15.0869C14.5449 14.7793 14.8701 14.4189 14.9844 13.9883V19.0596C14.9844 20.1318 15.6348 20.7207 16.4082 20.7207C16.7949 20.7207 17.1201 20.6064 17.5068 20.3779L26.5156 15.0869C27.1748 14.7002 27.5088 14.2256 27.5088 13.6367C27.5088 13.0391 27.1836 12.5908 26.5156 12.1953L17.5068 6.9043C17.1201 6.67578 16.7861 6.56152 16.3994 6.56152C15.626 6.56152 14.9844 7.15039 14.9844 8.22266V13.2764C14.8701 12.8545 14.5537 12.5029 14.0264 12.1953L5.01758 6.9043C4.63965 6.67578 4.30566 6.56152 3.91895 6.56152C3.14551 6.56152 2.49512 7.15039 2.49512 8.22266V19.0596C2.49512 20.1318 3.14551 20.7207 3.91895 20.7207ZM4.4375 18.6816C4.33203 18.6816 4.23535 18.6113 4.23535 18.4619V8.82031C4.23535 8.6709 4.33203 8.5918 4.4375 8.5918C4.49023 8.5918 4.55176 8.61816 4.63086 8.66211L12.6992 13.4258C12.8135 13.4873 12.8662 13.5312 12.8662 13.6367C12.8662 13.7422 12.8047 13.7949 12.6992 13.8564L4.63086 18.6201C4.56055 18.6641 4.49023 18.6816 4.4375 18.6816ZM16.9268 18.6816C16.8125 18.6816 16.7246 18.6113 16.7246 18.4619V8.82031C16.7246 8.6709 16.8125 8.5918 16.9268 8.5918C16.9795 8.5918 17.041 8.61816 17.1113 8.66211L25.1885 13.4258C25.2939 13.4873 25.3467 13.5312 25.3467 13.6367C25.3467 13.7422 25.2939 13.7949 25.1885 13.8564L17.1113 18.6201C17.041 18.6641 16.9795 18.6816 16.9268 18.6816Z" fill="#1C1C1E"/>
</svg>
