<svg width="28" height="28" viewBox="0 0 28 28" fill="none" xmlns="http://www.w3.org/2000/svg">
<path d="M8.67383 21.8809H19.3174C21.2246 21.8809 22.209 20.8965 22.209 19.0156V8.31934C22.209 6.43848 21.2246 5.4541 19.3174 5.4541H8.67383C6.77539 5.4541 5.78223 6.42969 5.78223 8.31934V19.0156C5.78223 20.8965 6.77539 21.8809 8.67383 21.8809ZM8.78809 20.1318C7.97949 20.1318 7.53125 19.71 7.53125 18.8574V8.47754C7.53125 7.625 7.97949 7.20312 8.78809 7.20312H19.2031C20.0029 7.20312 20.46 7.625 20.46 8.47754V18.8574C20.46 19.71 20.0029 20.1318 19.2031 20.1318H8.78809ZM14.0176 17.7588C16.1885 17.7588 17.498 16.4668 17.498 14.665V14.1201C17.498 13.5752 17.1904 13.2764 16.6631 13.2764H14.5098C14.1406 13.2764 13.9209 13.5049 13.9209 13.8389C13.9209 14.1553 14.1406 14.4102 14.5098 14.4102H15.8633V14.8848C15.8633 15.8076 15.2393 16.4316 14.0527 16.4316C12.7695 16.4316 11.9258 15.2979 11.9258 13.5928C11.9258 11.9053 12.7607 10.7715 14.0352 10.7715C14.9229 10.7715 15.5557 11.1934 15.8809 11.9404C16.0391 12.2393 16.2324 12.3975 16.5928 12.3975C17.0322 12.3975 17.3047 12.1338 17.3047 11.7207C17.3047 11.5625 17.2871 11.4307 17.2256 11.2812C16.8037 10.2002 15.626 9.42676 14 9.42676C11.7061 9.42676 10.2207 11.0527 10.2207 13.5928C10.2207 16.1416 11.7061 17.7588 14.0176 17.7588Z" fill="#1C1C1E"/>
</svg>
