<svg width="28" height="28" viewBox="0 0 28 28" fill="none" xmlns="http://www.w3.org/2000/svg">
<path d="M8.67383 21.8809H19.3174C21.2246 21.8809 22.209 20.8965 22.209 19.0156V8.31934C22.209 6.43848 21.2246 5.4541 19.3174 5.4541H8.67383C6.77539 5.4541 5.78223 6.42969 5.78223 8.31934V19.0156C5.78223 20.8965 6.77539 21.8809 8.67383 21.8809ZM14.0527 17.9609C11.6182 17.9609 10.0625 16.2646 10.0625 13.5928C10.0625 10.9385 11.6182 9.22461 14.0176 9.22461C15.7314 9.22461 16.9619 10.0332 17.4014 11.1582C17.4629 11.3164 17.498 11.457 17.498 11.624C17.498 12.0723 17.208 12.3447 16.751 12.3447C16.3643 12.3447 16.1621 12.1689 15.9951 11.8613C15.6523 11.0791 14.9932 10.6396 14.0703 10.6396C12.7344 10.6396 11.8555 11.8262 11.8555 13.5928C11.8555 15.377 12.7432 16.5635 14.0879 16.5635C15.3184 16.5635 15.9688 15.9131 15.9688 14.9463V14.4541H14.5625C14.167 14.4541 13.9385 14.1816 13.9385 13.8564C13.9385 13.4961 14.167 13.2588 14.5625 13.2588H16.8213C17.375 13.2588 17.6914 13.5752 17.6914 14.1465V14.709C17.6914 16.6074 16.3203 17.9609 14.0527 17.9609Z" fill="#1C1C1E"/>
</svg>
