<svg width="28" height="28" viewBox="0 0 28 28" fill="none" xmlns="http://www.w3.org/2000/svg">
<path d="M4.55176 21.7842C5.87012 21.7842 6.75781 21.2832 7.54883 20.3779L9.11328 18.5586C9.33301 18.2949 9.56152 18.1807 9.83398 18.1807H18.1572C18.4297 18.1807 18.6582 18.2949 18.8779 18.5586L20.4424 20.3779C21.2334 21.2832 22.1299 21.7842 23.4395 21.7842C25.4697 21.7842 26.876 20.4395 26.876 18.2949C26.876 17.3721 26.6738 16.3262 26.3311 15.166C25.7861 13.3467 24.8457 10.8945 23.9492 9.00488C23.1846 7.40527 22.7715 6.62305 20.8379 6.18359C19.1416 5.79688 16.8213 5.54199 14 5.54199C11.1787 5.54199 8.84961 5.79688 7.15332 6.18359C5.22852 6.62305 4.80664 7.40527 4.04199 9.00488C3.14551 10.8945 2.20508 13.3467 1.66016 15.166C1.31738 16.3262 1.11523 17.3721 1.11523 18.2949C1.11523 20.4395 2.52148 21.7842 4.55176 21.7842ZM6.81934 11.9492C6.81934 11.4746 7.12695 11.167 7.61914 11.167H9.0957V9.74316C9.0957 9.25098 9.39453 8.93457 9.87793 8.93457C10.3525 8.93457 10.6514 9.25098 10.6514 9.74316V11.167H12.04C12.5762 11.167 12.9014 11.4746 12.9014 11.9492C12.9014 12.4414 12.5762 12.749 12.04 12.749H10.6514V14.1816C10.6514 14.6738 10.3525 14.9902 9.87793 14.9902C9.39453 14.9902 9.0957 14.6738 9.0957 14.1816V12.749H7.61914C7.12695 12.749 6.81934 12.4414 6.81934 11.9492ZM18.1133 10.5693C18.1133 9.83105 18.6846 9.25977 19.4141 9.25977C20.1523 9.25977 20.7148 9.83105 20.7148 10.5693C20.7148 11.3076 20.1523 11.8701 19.4141 11.8701C18.6846 11.8701 18.1133 11.3076 18.1133 10.5693ZM15.5029 13.2148C15.5029 12.4766 16.0742 11.9053 16.8037 11.9053C17.5332 11.9053 18.1045 12.4766 18.1045 13.2148C18.1045 13.9443 17.5332 14.5068 16.8037 14.5068C16.0742 14.5068 15.5029 13.9443 15.5029 13.2148Z" fill="#1C1C1E"/>
</svg>
