<svg width="28" height="28" viewBox="0 0 28 28" fill="none" xmlns="http://www.w3.org/2000/svg">
<path d="M5.4043 12.3359C5.4043 13.3115 5.9668 13.7598 6.94238 13.7598H13.1562V8.80273H11.8379C10.4932 8.80273 9.71973 7.98535 9.71973 7.02734C9.71973 6.0957 10.3701 5.52441 11.3193 5.52441C12.3301 5.52441 13.1562 6.33301 13.1562 7.57227V8.80273H14.835V13.7598H21.0488C22.0332 13.7598 22.5869 13.3115 22.5869 12.3359V10.3848C22.5869 9.29492 21.9805 8.80273 20.8818 8.80273H19.1592C19.6689 8.31055 19.9766 7.64258 19.9766 6.86035C19.9766 5.10254 18.5791 3.85449 16.8301 3.85449C15.5293 3.85449 14.4307 4.58398 14 5.88477C13.5693 4.58398 12.4619 3.85449 11.1611 3.85449C9.41211 3.85449 8.01465 5.10254 8.01465 6.86035C8.01465 7.64258 8.32227 8.31055 8.83203 8.80273H7.10938C6.05469 8.80273 5.4043 9.29492 5.4043 10.3848V12.3359ZM16.6719 5.52441C17.6211 5.52441 18.2715 6.0957 18.2715 7.02734C18.2715 7.98535 17.498 8.80273 16.1533 8.80273H14.835V7.57227C14.835 6.33301 15.6611 5.52441 16.6719 5.52441ZM6.61719 20.2285C6.61719 21.7227 7.50488 22.54 9.00781 22.54H13.1562V14.832H6.61719V20.2285ZM14.835 22.54H18.9834C20.4863 22.54 21.374 21.7227 21.374 20.2285V14.832H14.835V22.54Z" fill="#1C1C1E"/>
</svg>
