<svg width="28" height="28" viewBox="0 0 28 28" fill="none" xmlns="http://www.w3.org/2000/svg">
<path d="M14.6416 10.2969V6.05176H21.5059C23.4131 6.05176 24.3975 7.03613 24.3975 8.91699V13.4346H17.8936C18.9658 12.9072 19.6953 11.9668 19.6953 10.8506C19.6953 9.50586 18.7021 8.49512 17.3486 8.49512C16.2236 8.49512 15.2305 9.18066 14.6416 10.2969ZM3.59375 13.4346V8.91699C3.59375 7.03613 4.58691 6.05176 6.48535 6.05176H13.3672V10.2969C12.7783 9.18066 11.7852 8.49512 10.6602 8.49512C9.30664 8.49512 8.31348 9.50586 8.31348 10.8506C8.31348 11.9668 9.04297 12.9072 10.1152 13.4346H3.59375ZM12.9541 13.3203C11.2227 13.3203 9.74609 12.1162 9.74609 11.0088C9.74609 10.3584 10.1504 9.9541 10.7832 9.9541C12.0752 9.9541 13.2002 11.4131 13.2002 13.0742V13.3203H12.9541ZM15.0547 13.3203H14.7998V13.0742C14.7998 11.4131 15.9336 9.9541 17.2256 9.9541C17.8584 9.9541 18.2627 10.3584 18.2627 11.0088C18.2627 12.1162 16.7861 13.3203 15.0547 13.3203ZM24.3975 18.4092C24.3975 20.29 23.4131 21.2832 21.5059 21.2832H14.6416V15.377H14.7031C15.3184 17.2314 17.4189 18.8047 18.8252 19.0156C19.4229 19.1035 19.7832 18.6641 19.7832 18.207C19.7832 17.7148 19.4932 17.3984 18.957 17.3193C17.7441 17.1611 16.1006 15.6494 15.5732 14.6035H24.3975V18.4092ZM6.48535 21.2832C4.58691 21.2832 3.59375 20.2988 3.59375 18.4092V14.6035H12.4355C11.9082 15.6494 10.2646 17.1523 9.05176 17.3193C8.51562 17.4072 8.22559 17.7148 8.22559 18.207C8.22559 18.6641 8.57715 19.1035 9.18359 19.0156C10.5898 18.8047 12.6904 17.2314 13.3057 15.377H13.3672V21.2832H6.48535Z" fill="#1C1C1E"/>
</svg>
