<svg width="28" height="28" viewBox="0 0 28 28" fill="none" xmlns="http://www.w3.org/2000/svg">
<path d="M13.9912 22.7598C18.9746 22.7598 23.0879 18.6465 23.0879 13.6631C23.0879 8.68848 18.9658 4.5752 13.9824 4.5752C9.00781 4.5752 4.90332 8.68848 4.90332 13.6631C4.90332 18.6465 9.0166 22.7598 13.9912 22.7598ZM9.64062 12.9863V12.002C9.64062 11.4482 9.95703 11.1934 10.4932 11.1934H11.3809C11.1172 10.9473 10.9766 10.6045 10.9766 10.2178C10.9766 9.33008 11.6709 8.69727 12.5498 8.69727C13.209 8.69727 13.7627 9.06641 13.9912 9.73438C14.2109 9.06641 14.7646 8.69727 15.4238 8.69727C16.3027 8.69727 16.9971 9.33008 16.9971 10.2178C16.9971 10.6045 16.8564 10.9473 16.5928 11.1934H17.4805C18.0342 11.1934 18.333 11.4482 18.333 12.002V12.9863C18.333 13.4785 18.0605 13.707 17.5596 13.707H14.4043V11.1934H13.5693V10.5781C13.5693 9.94531 13.1475 9.53223 12.6289 9.53223C12.1543 9.53223 11.8115 9.83105 11.8115 10.2969C11.8115 10.7891 12.2158 11.1934 12.9014 11.1934H13.5693V13.707H10.4141C9.92188 13.707 9.64062 13.4785 9.64062 12.9863ZM15.0723 11.1934C15.7578 11.1934 16.1621 10.7891 16.1621 10.2969C16.1621 9.83105 15.8193 9.53223 15.3447 9.53223C14.8262 9.53223 14.4043 9.94531 14.4043 10.5781V11.1934H15.0723ZM10.2559 16.9854V14.252H13.5693V18.1543H11.46C10.7041 18.1543 10.2559 17.7412 10.2559 16.9854ZM14.4043 18.1543V14.252H17.7178V16.9854C17.7178 17.7412 17.2783 18.1543 16.5137 18.1543H14.4043Z" fill="#1C1C1E"/>
</svg>
