<svg width="28" height="28" viewBox="0 0 28 28" fill="none" xmlns="http://www.w3.org/2000/svg">
<path d="M9.20117 22.54H18.79C20.4512 22.54 21.374 21.6436 21.374 19.9824V14.7266H21.4268C22.1914 14.5068 22.5957 13.8564 22.5957 12.8896V10.6748C22.5957 9.4707 21.9277 8.72363 20.7324 8.72363H19.2207C19.6953 8.24902 19.9766 7.60742 19.9766 6.86035C19.9766 5.10254 18.5791 3.85449 16.8301 3.85449C15.5293 3.85449 14.4307 4.58398 13.9912 5.88477C13.5605 4.58398 12.4619 3.85449 11.1611 3.85449C9.41211 3.85449 8.01465 5.10254 8.01465 6.86035C8.01465 7.60742 8.2959 8.24902 8.77051 8.72363H7.25879C6.10742 8.72363 5.39551 9.4707 5.39551 10.6748V12.8896C5.39551 13.8564 5.7998 14.5068 6.55566 14.7266H6.6084V19.9824C6.6084 21.6436 7.54004 22.54 9.20117 22.54ZM13.1562 8.72363H11.8379C10.4932 8.72363 9.71973 7.98535 9.71973 7.02734C9.71973 6.0957 10.3701 5.52441 11.3193 5.52441C12.3301 5.52441 13.1562 6.33301 13.1562 7.57227V8.72363ZM14.835 8.72363V7.57227C14.835 6.33301 15.6611 5.52441 16.6719 5.52441C17.6211 5.52441 18.2715 6.0957 18.2715 7.02734C18.2715 7.98535 17.498 8.72363 16.1533 8.72363H14.835ZM13.1035 13.2588H7.72461C7.30273 13.2588 7.12695 13.083 7.12695 12.6611V10.9033C7.12695 10.4814 7.30273 10.3057 7.72461 10.3057H13.1035V13.2588ZM14.8877 13.2588V10.3057H20.2754C20.6885 10.3057 20.8555 10.4814 20.8555 10.9033V12.6787C20.8555 13.1006 20.6885 13.2588 20.2754 13.2588H14.8877ZM13.1035 20.9404H9.42969C8.73535 20.9404 8.34863 20.5537 8.34863 19.8682V14.8408H13.1035V20.9404ZM14.8877 20.9404V14.8408H19.6426V19.8682C19.6426 20.5537 19.2559 20.9404 18.5615 20.9404H14.8877Z" fill="#1C1C1E"/>
</svg>
