<svg width="28" height="28" viewBox="0 0 28 28" fill="none" xmlns="http://www.w3.org/2000/svg">
<path d="M6.48535 21.2832H21.5059C23.4131 21.2832 24.3975 20.29 24.3975 18.4092V8.91699C24.3975 7.03613 23.4131 6.05176 21.5059 6.05176H6.48535C4.58691 6.05176 3.59375 7.03613 3.59375 8.91699V18.4092C3.59375 20.2988 4.58691 21.2832 6.48535 21.2832ZM6.59961 7.80957H13.4199V10.543C12.875 9.49707 11.9434 8.85547 10.8975 8.85547C9.6582 8.85547 8.73535 9.78711 8.73535 11.0264C8.73535 12.0723 9.42969 12.9336 10.4316 13.4258H5.34277V9.0752C5.34277 8.23145 5.79102 7.80957 6.59961 7.80957ZM17.5684 13.4258C18.5703 12.9336 19.2559 12.0723 19.2559 11.0264C19.2559 9.78711 18.333 8.85547 17.0938 8.85547C16.0479 8.85547 15.125 9.49707 14.5713 10.543V7.80957H21.3916C22.2002 7.80957 22.6484 8.23145 22.6484 9.0752V13.4258H17.5684ZM13.0332 13.3203C11.4248 13.3203 10.0537 12.2041 10.0537 11.167C10.0537 10.5605 10.4229 10.1826 11.0117 10.1826C12.2158 10.1826 13.2705 11.5449 13.2705 13.0918V13.3203H13.0332ZM14.958 13.3203H14.7207V13.0918C14.7207 11.5449 15.7842 10.1826 16.9795 10.1826C17.5684 10.1826 17.9463 10.5605 17.9463 11.167C17.9463 12.2041 16.5752 13.3203 14.958 13.3203ZM21.3916 19.5254H14.5713V15.1924H14.6328C15.2129 16.9238 17.1641 18.3652 18.4648 18.5762C19.0186 18.6553 19.3438 18.251 19.3438 17.8379C19.3438 17.3984 19.0713 17.1084 18.5879 17.0381C17.4541 16.8887 15.9248 15.4824 15.4326 14.4893H22.6484V18.2598C22.6484 19.1035 22.2002 19.5254 21.3916 19.5254ZM6.59961 19.5254C5.79102 19.5254 5.34277 19.1035 5.34277 18.2598V14.4893H12.5674C12.0752 15.4824 10.5371 16.8887 9.40332 17.0381C8.91992 17.1084 8.65625 17.3984 8.65625 17.8379C8.65625 18.251 8.98145 18.6553 9.52637 18.5762C10.8271 18.3652 12.7871 16.9238 13.3584 15.1924H13.4199V19.5254H6.59961Z" fill="#1C1C1E"/>
</svg>
