<svg width="28" height="28" viewBox="0 0 28 28" fill="none" xmlns="http://www.w3.org/2000/svg">
<path d="M14 22.7334C18.9658 22.7334 23.0791 18.6289 23.0791 13.6543C23.0791 8.68848 18.9658 4.5752 13.9912 4.5752C9.02539 4.5752 4.9209 8.68848 4.9209 13.6543C4.9209 18.6289 9.03418 22.7334 14 22.7334ZM13.6396 18.9629L14.1406 16.9678C12.7168 16.3262 12.2861 15.9658 12.2861 15.333C12.2861 14.7617 12.5586 14.4717 12.7432 14.0938C13.1738 13.1973 12.6025 12.4414 11.5742 12.4414C9.79004 12.4414 8.86719 11.7207 8.86719 10.3232C8.86719 9.05762 9.31543 7.88867 9.78125 7.27344C10.9941 6.45605 12.4443 5.98145 13.9912 5.98145C14.3428 5.98145 14.6943 6.00781 15.0283 6.05176C15.6699 6.5 16.0215 6.84277 16.0215 7.04492C16.0215 7.61621 15.5557 7.96777 15.2041 8.36328C14.835 8.77637 14.8613 9.25098 15.2393 9.62891C15.6611 10.042 16.1445 10.4727 16.8301 11.123C16.918 11.2021 16.9443 11.2637 16.9443 11.3164C16.9443 11.4043 16.8916 11.4658 16.8037 11.4658C16.7334 11.4658 16.6807 11.4482 16.5576 11.3604C16.4697 11.2988 16.0039 10.9912 15.7666 10.8242C15.5293 10.666 15.3096 10.6484 15.0195 10.7451L13.499 11.3076C13.1387 11.4395 12.998 11.7998 13.1914 12.1514L13.9824 13.6807L14.7734 13.6719C15.4941 13.6631 15.96 13.7861 16.2324 14.041C16.5488 14.3311 17.0234 15.1309 17.0234 15.3682C17.0234 15.79 16.8916 16.0537 16.5312 16.4492L14.0264 19.1562C13.8418 19.3584 13.5693 19.2354 13.6396 18.9629ZM7.85645 10.3232C7.85645 12.3096 9.23633 13.4521 11.6621 13.4521C11.8467 13.4521 11.9521 13.6016 11.8379 13.7773C11.4336 14.4102 11.2666 14.8145 11.2666 15.333C11.2666 16.5283 12.2334 17.1787 12.998 17.4951L12.6816 18.7432C12.3389 20.123 13.8857 20.791 14.8789 19.7275L16.9971 17.4336C17.7178 16.6514 18.0342 16.0449 18.0342 15.3682C18.0342 14.8232 17.4277 13.8389 16.918 13.3643C16.3643 12.8545 15.8105 12.7578 14.9229 12.7578H14.5449L14.167 12.0371L15.2832 11.624C16.0127 12.0811 16.3906 12.3623 16.8125 12.3623C17.4453 12.3623 17.8672 11.958 17.8672 11.3779C17.8672 11.0439 17.7354 10.7539 17.4805 10.499C16.8213 9.84863 16.5312 9.55859 16.083 9.11035C15.9863 9.02246 15.9951 8.97852 16.1094 8.84668C16.4873 8.4248 17.0322 7.7832 17.0322 7.04492C17.0322 6.88672 17.0146 6.7373 16.9531 6.58789C19.7041 7.76562 21.6729 10.5078 21.6729 13.6543C21.6729 17.8467 18.1924 21.3271 14 21.3271C9.80762 21.3271 6.32715 17.8467 6.32715 13.6543C6.32715 11.8613 6.96875 10.1914 8.02344 8.88184C7.91797 9.34766 7.85645 9.83984 7.85645 10.3232Z" fill="#1C1C1E"/>
</svg>
