<svg width="28" height="28" viewBox="0 0 28 28" fill="none" xmlns="http://www.w3.org/2000/svg">
<path d="M13.9912 22.751C18.9746 22.751 23.0879 18.6377 23.0879 13.6543C23.0879 9.29497 19.9326 5.60356 15.8105 4.75102V3.45903C15.8105 2.79106 15.3096 2.5977 14.7646 2.99321L11.7939 5.0938C11.3457 5.41899 11.3457 5.91118 11.7939 6.22759L14.7559 8.33696C15.3008 8.73247 15.8105 8.55669 15.8105 7.87114V6.60552C18.957 7.40532 21.2598 10.2442 21.2598 13.6543C21.2598 17.6885 18.0254 20.9317 13.9912 20.9317C9.95703 20.9317 6.71387 17.6885 6.72266 13.6543C6.73145 11.3077 7.83008 9.25981 9.55273 7.93267C9.96582 7.57231 10.0977 7.05376 9.78125 6.62309C9.49121 6.21001 8.91992 6.1397 8.44531 6.52642C6.30957 8.12602 4.90332 10.8155 4.90332 13.6543C4.90332 18.6377 9.0166 22.751 13.9912 22.751ZM16.1182 17.4073C17.5508 17.4073 18.5439 16.0362 18.5439 13.8829C18.5439 11.7032 17.5508 10.3321 16.1182 10.3321C14.6768 10.3321 13.7012 11.6592 13.7012 13.8829C13.7012 16.0889 14.6768 17.4073 16.1182 17.4073ZM11.583 17.3282C11.9785 17.3282 12.2334 17.0645 12.2334 16.6426V11.211C12.2334 10.6924 11.9434 10.3936 11.4863 10.3936C11.2051 10.3936 11.0029 10.4815 10.6602 10.7364L9.51758 11.545C9.28906 11.7295 9.18359 11.9053 9.18359 12.1514C9.18359 12.4678 9.42969 12.7315 9.74609 12.7315C9.93066 12.7315 10.0449 12.6875 10.2207 12.5293L10.959 11.9405V16.6426C10.959 17.0557 11.2051 17.3282 11.583 17.3282ZM16.127 16.212C15.4238 16.212 14.9932 15.3506 14.9932 13.8829C14.9932 12.3887 15.415 11.5274 16.127 11.5274C16.8301 11.5274 17.2432 12.3799 17.2432 13.8829C17.2432 15.3506 16.8213 16.212 16.127 16.212Z" fill="#1C1C1E"/>
</svg>
