<svg width="28" height="28" viewBox="0 0 28 28" fill="none" xmlns="http://www.w3.org/2000/svg">
<path d="M13.9912 22.751C18.9746 22.751 23.0879 18.6377 23.0879 13.6543C23.0879 9.29497 19.9326 5.60356 15.8105 4.75102V3.45903C15.8105 2.79106 15.3096 2.5977 14.7646 2.99321L11.7939 5.0938C11.3457 5.41899 11.3457 5.91118 11.7939 6.22759L14.7559 8.33696C15.3008 8.73247 15.8105 8.55669 15.8105 7.87114V6.60552C18.957 7.40532 21.2598 10.2442 21.2598 13.6543C21.2598 17.6885 18.0254 20.9317 13.9912 20.9317C9.95703 20.9317 6.71387 17.6885 6.72266 13.6543C6.73145 11.3077 7.83008 9.25981 9.55273 7.93267C9.96582 7.57231 10.0977 7.05376 9.78125 6.62309C9.49121 6.21001 8.91992 6.1397 8.44531 6.52642C6.30957 8.12602 4.90332 10.8155 4.90332 13.6543C4.90332 18.6377 9.0166 22.751 13.9912 22.751ZM16.918 17.4073C18.3506 17.4073 19.3525 16.0362 19.3525 13.8829C19.3525 11.7032 18.3506 10.3321 16.918 10.3321C15.4766 10.3321 14.501 11.6592 14.501 13.8829C14.501 16.0977 15.4854 17.4073 16.918 17.4073ZM11.0205 17.4073C12.6553 17.4073 13.5693 16.0801 13.5693 13.6895C13.5693 12.5206 13.3145 11.6241 12.8135 11.0704C12.418 10.6045 11.8379 10.3409 11.126 10.3409C9.71094 10.3409 8.79688 11.2813 8.79688 12.7491C8.79688 14.0323 9.63184 14.9375 10.8096 14.9375C11.5303 14.9375 12.1104 14.5948 12.3828 14.0059C12.3828 14.0147 12.3828 14.0323 12.3828 14.0499C12.3828 15.3506 11.8643 16.2735 11.0029 16.2735C10.5986 16.2735 10.2822 16.0801 10.0801 15.7549C9.93945 15.5352 9.79004 15.4385 9.54395 15.4385C9.23633 15.4385 8.98145 15.6846 8.98145 15.9922C8.98145 16.1241 8.99902 16.212 9.07812 16.3526C9.25391 16.7305 9.87793 17.4073 11.0205 17.4073ZM11.1611 13.9004C10.502 13.9004 10.0449 13.4083 10.0449 12.6788C10.0449 11.9141 10.4932 11.4307 11.1699 11.4307C11.8203 11.4307 12.2861 11.9493 12.2861 12.6963C12.2861 13.4083 11.8203 13.9004 11.1611 13.9004ZM16.9268 16.212C16.2324 16.212 15.793 15.3506 15.793 13.8829C15.793 12.3887 16.2236 11.5274 16.9268 11.5274C17.6299 11.5274 18.0518 12.3799 18.0518 13.8829C18.0518 15.3506 17.6211 16.212 16.9268 16.212Z" fill="#1C1C1E"/>
</svg>
