<svg width="28" height="28" viewBox="0 0 28 28" fill="none" xmlns="http://www.w3.org/2000/svg">
<path d="M4.9209 13.6542C4.9209 18.6289 9.03418 22.7333 14 22.7333C18.9658 22.7333 23.0791 18.6289 23.0791 13.6542C23.0791 9.30366 19.9326 5.61225 15.8018 4.7685V3.47651C15.8018 2.80854 15.3096 2.61518 14.7734 3.0019L11.8203 5.10248C11.3721 5.4101 11.3721 5.90229 11.8203 6.21869L14.7646 8.31928C15.3096 8.706 15.8018 8.53022 15.8018 7.84467V6.60541C18.9658 7.38764 21.2861 10.2353 21.2861 13.6542C21.2861 17.6972 18.043 20.9492 14 20.9492C9.95703 20.9492 6.70508 17.6972 6.70508 13.6542C6.71387 11.2988 7.83008 9.23334 9.56152 7.9062C9.97461 7.55463 10.1064 7.04487 9.79883 6.6142C9.51758 6.20991 8.94629 6.1308 8.48047 6.51752C6.33594 8.11713 4.9209 10.8066 4.9209 13.6542ZM13.9121 17.416C15.3887 17.416 16.3555 16.4667 16.3555 15.0165C16.3555 13.707 15.4766 12.8105 14.2637 12.8105C13.7275 12.8105 13.1738 13.0566 12.9277 13.4697L13.0684 11.624H15.5996C15.9072 11.624 16.1445 11.3867 16.1445 11.0527C16.1445 10.7187 15.9072 10.499 15.5996 10.499H12.8047C12.3213 10.499 12.0488 10.789 12.0137 11.2988L11.8379 13.8037C11.7939 14.2695 12.0488 14.5068 12.4707 14.5068C12.7871 14.5068 12.9102 14.4453 13.1475 14.2607C13.4639 13.9882 13.7188 13.8652 14.0527 13.8652C14.7119 13.8652 15.1338 14.3398 15.1338 15.0429C15.1338 15.7636 14.6328 16.291 13.9561 16.291C13.4551 16.291 13.0508 16.0097 12.8223 15.5878C12.6904 15.3681 12.5322 15.2539 12.2861 15.2539C11.9697 15.2539 11.7412 15.4824 11.7412 15.8076C11.7412 15.9394 11.7676 16.0624 11.8203 16.1943C12.0576 16.8095 12.8311 17.416 13.9121 17.416Z" fill="#1C1C1E"/>
</svg>
