<svg width="28" height="28" viewBox="0 0 28 28" fill="none" xmlns="http://www.w3.org/2000/svg">
<path d="M13.9912 22.751C18.9746 22.751 23.0879 18.6377 23.0879 13.6543C23.0879 9.29497 19.9326 5.60356 15.8105 4.75102V3.45903C15.8105 2.79106 15.3096 2.5977 14.7646 2.99321L11.7939 5.0938C11.3457 5.41899 11.3457 5.91118 11.7939 6.22759L14.7559 8.33696C15.3008 8.73247 15.8105 8.55669 15.8105 7.87114V6.60552C18.957 7.40532 21.2598 10.2442 21.2598 13.6543C21.2598 17.6885 18.0254 20.9317 13.9912 20.9317C9.95703 20.9317 6.71387 17.6885 6.72266 13.6543C6.73145 11.3077 7.83008 9.25981 9.55273 7.93267C9.96582 7.57231 10.0977 7.05376 9.78125 6.62309C9.49121 6.21001 8.91992 6.1397 8.44531 6.52642C6.30957 8.12602 4.90332 10.8155 4.90332 13.6543C4.90332 18.6377 9.0166 22.751 13.9912 22.751ZM16.874 17.4073C18.3066 17.4073 19.2998 16.0362 19.2998 13.8829C19.2998 11.7032 18.3066 10.3321 16.874 10.3321C15.4326 10.3321 14.457 11.6504 14.457 13.8829C14.457 16.0889 15.4414 17.4073 16.874 17.4073ZM11.2666 17.4073C12.6816 17.4073 13.666 16.5723 13.666 15.3594C13.666 14.542 13.1387 13.8565 12.3652 13.7071C12.998 13.5225 13.4551 12.8721 13.4551 12.1602C13.4551 11.0704 12.585 10.3321 11.3105 10.3321C10.2295 10.3321 9.35938 10.9473 9.16602 11.7383C9.13086 11.8614 9.12207 11.9668 9.12207 12.0811C9.12207 12.4239 9.33301 12.67 9.66699 12.67C9.93066 12.67 10.1064 12.5381 10.2295 12.2569C10.4229 11.7383 10.7568 11.4747 11.2842 11.4747C11.8379 11.4747 12.2158 11.8174 12.2158 12.3184C12.2158 12.8282 11.8467 13.2149 11.2754 13.2149H10.9678C10.625 13.2149 10.3965 13.4434 10.3965 13.7774C10.3965 14.1202 10.625 14.3487 10.9678 14.3487H11.3105C11.9785 14.3487 12.3916 14.7266 12.3916 15.2979C12.3916 15.834 11.9258 16.2471 11.2754 16.2471C10.7217 16.2471 10.3174 15.9659 10.124 15.4737C9.99219 15.1836 9.8252 15.0518 9.55273 15.0518C9.25391 15.0518 8.99902 15.2891 8.99902 15.6407C8.99902 15.7549 9.00781 15.8604 9.04297 15.9747C9.24512 16.7745 10.1855 17.4073 11.2666 17.4073ZM16.8828 16.212C16.1797 16.212 15.749 15.3506 15.749 13.8829C15.749 12.3887 16.1797 11.5274 16.8828 11.5274C17.5859 11.5274 18.0078 12.3799 18.0078 13.8829C18.0078 15.3506 17.5771 16.212 16.8828 16.212Z" fill="#1C1C1E"/>
</svg>
