<svg width="28" height="28" viewBox="0 0 28 28" fill="none" xmlns="http://www.w3.org/2000/svg">
<path d="M13.9912 22.751C18.9746 22.751 23.0879 18.6377 23.0879 13.6543C23.0879 10.8154 21.6729 8.12595 19.5459 6.52635C19.0713 6.13963 18.4912 6.20994 18.2012 6.62302C17.8848 7.05369 18.0254 7.57224 18.4297 7.9326C20.1611 9.25974 21.2598 11.3076 21.2686 13.6543C21.2773 17.6885 18.0254 20.9316 13.9912 20.9316C9.95703 20.9316 6.73145 17.6885 6.73145 13.6543C6.73145 10.2441 9.03418 7.40525 12.1807 6.60545V7.87986C12.1807 8.55662 12.6816 8.74119 13.2266 8.34568L16.1973 6.2451C16.6367 5.9199 16.6455 5.42771 16.1973 5.11131L13.2354 3.00193C12.6816 2.60642 12.1807 2.7822 12.1807 3.46775V4.75095C8.0498 5.60349 4.90332 9.2949 4.90332 13.6543C4.90332 18.6377 9.0166 22.751 13.9912 22.751ZM16.874 17.4072C18.3066 17.4072 19.2998 16.0361 19.2998 13.8828C19.2998 11.7031 18.3066 10.332 16.874 10.332C15.4326 10.332 14.457 11.6504 14.457 13.8828C14.457 16.0888 15.4414 17.4072 16.874 17.4072ZM11.2666 17.4072C12.6816 17.4072 13.666 16.5722 13.666 15.3594C13.666 14.542 13.1387 13.8564 12.3652 13.707C12.998 13.5224 13.4551 12.872 13.4551 12.1601C13.4551 11.0703 12.585 10.332 11.3105 10.332C10.2295 10.332 9.35938 10.9472 9.16602 11.7383C9.13086 11.8613 9.12207 11.9668 9.12207 12.081C9.12207 12.4238 9.33301 12.6699 9.66699 12.6699C9.93066 12.6699 10.1064 12.5381 10.2295 12.2568C10.4229 11.7383 10.7568 11.4746 11.2842 11.4746C11.8379 11.4746 12.2158 11.8174 12.2158 12.3183C12.2158 12.8281 11.8467 13.2148 11.2754 13.2148H10.9678C10.625 13.2148 10.3965 13.4433 10.3965 13.7773C10.3965 14.1201 10.625 14.3486 10.9678 14.3486H11.3105C11.9785 14.3486 12.3916 14.7265 12.3916 15.2978C12.3916 15.834 11.9258 16.247 11.2754 16.247C10.7217 16.247 10.3174 15.9658 10.124 15.4736C9.99219 15.1836 9.8252 15.0517 9.55273 15.0517C9.25391 15.0517 8.99902 15.289 8.99902 15.6406C8.99902 15.7549 9.00781 15.8603 9.04297 15.9746C9.24512 16.7744 10.1855 17.4072 11.2666 17.4072ZM16.8828 16.2119C16.1797 16.2119 15.749 15.3506 15.749 13.8828C15.749 12.3886 16.1797 11.5273 16.8828 11.5273C17.5859 11.5273 18.0078 12.3799 18.0078 13.8828C18.0078 15.3506 17.5771 16.2119 16.8828 16.2119Z" fill="#1C1C1E"/>
</svg>
