<svg width="28" height="28" viewBox="0 0 28 28" fill="none" xmlns="http://www.w3.org/2000/svg">
<path d="M13.9912 22.751C18.9746 22.751 23.0879 18.6377 23.0879 13.6543C23.0879 10.8154 21.6729 8.12595 19.5459 6.52635C19.0713 6.13963 18.4912 6.20994 18.2012 6.62302C17.8848 7.05369 18.0254 7.57224 18.4297 7.9326C20.1611 9.25974 21.2598 11.3076 21.2686 13.6543C21.2773 17.6885 18.0254 20.9316 13.9912 20.9316C9.95703 20.9316 6.73145 17.6885 6.73145 13.6543C6.73145 10.2441 9.03418 7.40525 12.1807 6.60545V7.87986C12.1807 8.55662 12.6816 8.74119 13.2266 8.34568L16.1973 6.2451C16.6367 5.9199 16.6455 5.42771 16.1973 5.11131L13.2354 3.00193C12.6816 2.60642 12.1807 2.7822 12.1807 3.46775V4.75095C8.0498 5.60349 4.90332 9.2949 4.90332 13.6543C4.90332 18.6377 9.0166 22.751 13.9912 22.751ZM16.9355 17.4072C18.377 17.4072 19.3701 16.0361 19.3701 13.8828C19.3701 11.7031 18.377 10.332 16.9355 10.332C15.4941 10.332 14.5186 11.6592 14.5186 13.8828C14.5186 16.0976 15.5029 17.4072 16.9355 17.4072ZM11.0381 17.4072C12.6816 17.4072 13.5869 16.0801 13.5869 13.6894C13.5869 12.5205 13.332 11.624 12.8311 11.0703C12.4355 10.6045 11.8643 10.3408 11.1436 10.3408C9.72852 10.3408 8.82324 11.2812 8.82324 12.749C8.82324 14.0322 9.64941 14.9375 10.8359 14.9375C11.5479 14.9375 12.1367 14.5947 12.4004 14.0058C12.4004 14.0146 12.4004 14.0322 12.4004 14.0498C12.4004 15.3506 11.8818 16.2734 11.0205 16.2734C10.625 16.2734 10.2998 16.0801 10.1064 15.7549C9.95703 15.5351 9.80762 15.4385 9.56152 15.4385C9.2627 15.4385 9.00781 15.6845 9.00781 15.9922C9.00781 16.124 9.02539 16.2119 9.0957 16.3525C9.28027 16.7304 9.89551 17.4072 11.0381 17.4072ZM11.1875 13.9004C10.5195 13.9004 10.0625 13.4082 10.0625 12.6787C10.0625 11.914 10.5107 11.4306 11.1875 11.4306C11.8467 11.4306 12.3037 11.9492 12.3037 12.6963C12.3037 13.4082 11.8379 13.9004 11.1875 13.9004ZM16.9443 16.2119C16.25 16.2119 15.8193 15.3506 15.8193 13.8828C15.8193 12.3886 16.2412 11.5273 16.9443 11.5273C17.6562 11.5273 18.0693 12.3799 18.0693 13.8828C18.0693 15.3506 17.6475 16.2119 16.9443 16.2119Z" fill="#1C1C1E"/>
</svg>
