<svg width="28" height="28" viewBox="0 0 28 28" fill="none" xmlns="http://www.w3.org/2000/svg">
<path d="M13.9912 22.751C18.9746 22.751 23.0879 18.6377 23.0879 13.6543C23.0879 10.8154 21.6729 8.12595 19.5459 6.52635C19.0713 6.13963 18.4912 6.20994 18.2012 6.62302C17.8848 7.05369 18.0254 7.57224 18.4297 7.9326C20.1611 9.25974 21.2598 11.3076 21.2686 13.6543C21.2773 17.6885 18.0254 20.9316 13.9912 20.9316C9.95703 20.9316 6.73145 17.6885 6.73145 13.6543C6.73145 10.2441 9.03418 7.40525 12.1807 6.60545V7.87986C12.1807 8.55662 12.6816 8.74119 13.2266 8.34568L16.1973 6.2451C16.6367 5.9199 16.6455 5.42771 16.1973 5.11131L13.2354 3.00193C12.6816 2.60642 12.1807 2.7822 12.1807 3.46775V4.75095C8.0498 5.60349 4.90332 9.2949 4.90332 13.6543C4.90332 18.6377 9.0166 22.751 13.9912 22.751ZM16.3994 17.4248C17.8848 17.4248 18.8516 16.4756 18.8516 15.0166C18.8516 13.707 17.9727 12.8105 16.7686 12.8105C16.2324 12.8105 15.6699 13.0654 15.4238 13.4785L15.5645 11.6328H18.0869C18.4033 11.6328 18.6406 11.3867 18.6406 11.0527C18.6406 10.7187 18.4033 10.499 18.0869 10.499H15.292C14.8086 10.499 14.5361 10.789 14.501 11.2988L14.3252 13.8037C14.2812 14.2783 14.5361 14.5156 14.958 14.5156C15.2832 14.5156 15.4062 14.4541 15.6436 14.2695C15.9512 13.997 16.2061 13.874 16.5488 13.874C17.1992 13.874 17.6123 14.3486 17.6123 15.0429C17.6123 15.7636 17.1201 16.291 16.4521 16.291C15.9424 16.291 15.5469 16.0097 15.3184 15.5879C15.1865 15.3769 15.0283 15.2539 14.7822 15.2539C14.457 15.2539 14.2285 15.4824 14.2285 15.8164C14.2285 15.9482 14.2549 16.0713 14.3076 16.2031C14.5449 16.8095 15.3271 17.4248 16.3994 17.4248ZM10.3438 17.372C10.625 17.372 10.8271 17.2314 10.9766 16.8974L13.3057 12.0547C13.4375 11.7822 13.499 11.5801 13.499 11.3164C13.499 10.833 13.165 10.5078 12.6729 10.5078H9.5C9.1748 10.5078 8.94629 10.7451 8.94629 11.0791C8.94629 11.4306 9.19238 11.6504 9.5 11.6504H12.1016V11.6592L9.80762 16.291C9.72852 16.4492 9.68457 16.5635 9.68457 16.7304C9.68457 17.0996 9.96582 17.372 10.3438 17.372Z" fill="#1C1C1E"/>
</svg>
