<svg width="28" height="28" viewBox="0 0 28 28" fill="none" xmlns="http://www.w3.org/2000/svg">
<path d="M14 22.7422C18.9658 22.7422 23.0791 18.6377 23.0791 13.6631C23.0791 8.69727 18.9658 4.58398 13.9912 4.58398C9.02539 4.58398 4.9209 8.69727 4.9209 13.6631C4.9209 18.6377 9.03418 22.7422 14 22.7422ZM8.2959 12.0459C8.2959 11.8086 8.43652 11.5713 8.72656 11.4307L12.8398 9.55859C13.2793 9.35645 13.6396 9.25977 13.9912 9.26855C14.3516 9.25977 14.7031 9.35645 15.1426 9.55859L19.2559 11.4307C19.5459 11.5713 19.6953 11.8086 19.6953 12.0459C19.6953 12.3008 19.5459 12.5293 19.2559 12.6523L15.1426 14.5508C14.7031 14.7441 14.3516 14.8408 13.9912 14.832C13.6396 14.8408 13.2793 14.7441 12.8398 14.5508L11.0469 13.7158L13.5781 12.5381C13.71 12.582 13.8594 12.5996 14.0088 12.5996C14.4922 12.5996 14.958 12.3799 14.958 12.0459C14.958 11.7295 14.4922 11.5186 14.0088 11.5186C13.5342 11.5186 13.042 11.7295 13.042 12.0459C13.042 12.0723 13.0508 12.1074 13.0684 12.1426L10.3525 13.3906L8.72656 12.6523C8.43652 12.5293 8.2959 12.3008 8.2959 12.0459ZM9.84277 15.1836V13.8652L10.3789 14.1025V16.335C10.0361 15.9658 9.84277 15.5439 9.84277 15.1836ZM11.0293 16.8535V14.4014L12.585 15.1221C13.0947 15.3594 13.5605 15.4648 13.9912 15.4561C14.4219 15.4648 14.8965 15.3506 15.3975 15.1221L18.1396 13.8652V15.1836C18.1396 16.4844 16.4697 17.5479 13.9912 17.5479C12.7783 17.5479 11.75 17.293 11.0293 16.8535ZM10.0361 18.6025V17.7236C10.0361 17.46 10.168 17.2666 10.3789 17.1787V16.335C10.5547 16.5283 10.7656 16.7129 11.0293 16.8535V17.1875C11.2314 17.2666 11.3633 17.46 11.3633 17.7236V18.6025C11.3633 18.9629 11.126 19.1914 10.7832 19.1914H10.6162C10.2559 19.1914 10.0361 18.9629 10.0361 18.6025Z" fill="#1C1C1E"/>
</svg>
