<svg width="28" height="28" viewBox="0 0 28 28" fill="none" xmlns="http://www.w3.org/2000/svg">
<path d="M25.0039 9.51465L16.417 5.58594C15.4941 5.16406 14.7383 4.9707 14 4.98828C13.2617 4.9707 12.5059 5.16406 11.583 5.58594L2.99609 9.51465C2.38086 9.78711 2.06445 10.2969 2.06445 10.8154C2.06445 11.3428 2.38086 11.8437 2.99609 12.1162L6.39746 13.6543L12.1016 10.9912C12.0664 10.9297 12.0488 10.877 12.0488 10.8154C12.0488 10.1738 13.0244 9.7168 14.0264 9.7168C15.0371 9.7168 16.0039 10.1738 16.0039 10.8154C16.0039 11.4746 15.0371 11.9404 14.0264 11.9404C13.7188 11.9404 13.4023 11.8965 13.1211 11.8086L7.76855 14.3047L11.583 16.0537C12.5059 16.4756 13.2617 16.6602 14 16.6514C14.7383 16.6602 15.4941 16.4756 16.417 16.0537L25.0039 12.1162C25.6191 11.835 25.9355 11.3428 25.9355 10.8154C25.9355 10.2969 25.6191 9.78711 25.0039 9.51465ZM7.7334 15.7109V20.8525C9.2627 21.7666 11.4336 22.3203 14 22.3203C19.1592 22.3203 22.7012 20.0967 22.7012 17.3545V14.5859L16.9531 17.2227C15.8896 17.7061 14.9229 17.9521 14 17.9434C13.0859 17.9521 12.1104 17.7061 11.0469 17.2227L7.7334 15.7109ZM5.29883 14.5947V17.3545C5.29883 18.1191 5.70312 19.0244 6.43262 19.7979V15.1133L5.29883 14.5947ZM5.65918 22.9355V25.2119C5.65918 25.959 6.15137 26.4512 6.89844 26.4512H7.26758C8.01465 26.4512 8.49805 25.959 8.49805 25.2119V22.9355C8.49805 22.3555 8.20801 21.9336 7.7334 21.7666V20.8525C7.22363 20.5449 6.78418 20.1934 6.43262 19.7979V21.7666C5.95801 21.9248 5.65918 22.3555 5.65918 22.9355Z" fill="#1C1C1E"/>
</svg>
