<svg width="28" height="28" viewBox="0 0 28 28" fill="none" xmlns="http://www.w3.org/2000/svg">
<path d="M8.7002 19.7012C9.00781 19.7012 9.23633 19.6133 9.48242 19.499L19.1328 15.166C19.8008 14.8584 20.249 14.4014 20.249 13.6982C20.249 12.9951 19.8096 12.5381 19.1328 12.2305L9.48242 7.80957C9.25391 7.69531 9.03418 7.61621 8.74414 7.61621C8.15527 7.61621 7.74219 8.04688 7.74219 8.64453C7.74219 9.16309 8.00586 9.46191 8.50684 9.68164L17.5332 13.584V13.6807L8.50684 17.6094C7.97949 17.8291 7.74219 18.1367 7.74219 18.6641C7.74219 19.2705 8.12891 19.7012 8.7002 19.7012Z" fill="#1C1C1E"/>
</svg>
