<svg width="28" height="28" viewBox="0 0 28 28" fill="none" xmlns="http://www.w3.org/2000/svg">
<path d="M13.9912 22.7422C18.9746 22.7422 23.0879 18.6289 23.0879 13.6543C23.0879 8.67969 18.9658 4.56641 13.9824 4.56641C9.00781 4.56641 4.90332 8.67969 4.90332 13.6543C4.90332 18.6289 9.0166 22.7422 13.9912 22.7422ZM13.9912 20.9316C9.95703 20.9316 6.73145 17.6885 6.73145 13.6543C6.73145 9.62012 9.95703 6.38574 13.9824 6.38574C18.0166 6.38574 21.2598 9.62012 21.2686 13.6543C21.2773 17.6885 18.0254 20.9316 13.9912 20.9316ZM11.7764 17.2139C11.9609 17.2139 12.1104 17.1699 12.251 17.0996L17.3311 14.498C17.7266 14.2959 17.9023 14.0586 17.9023 13.6719C17.9023 13.3027 17.709 13.0303 17.3311 12.8369L12.251 10.1475C12.1016 10.0684 11.9609 10.0332 11.7676 10.0332C11.3018 10.0332 10.959 10.376 10.959 10.8242C10.959 11.2021 11.1436 11.4395 11.5742 11.6328L15.6172 13.6104V13.6719L11.5742 15.6055C11.1348 15.7988 10.959 16.0273 10.959 16.4141C10.959 16.8711 11.3105 17.2139 11.7764 17.2139Z" fill="#1C1C1E"/>
</svg>
