<svg width="28" height="28" viewBox="0 0 28 28" fill="none" xmlns="http://www.w3.org/2000/svg">
<path d="M8.67383 21.8809H19.3174C21.2246 21.8809 22.209 20.8965 22.209 19.0156V8.31934C22.209 6.43848 21.2246 5.4541 19.3174 5.4541H8.67383C6.77539 5.4541 5.78223 6.42969 5.78223 8.31934V19.0156C5.78223 20.8965 6.77539 21.8809 8.67383 21.8809ZM11.7236 17.3545C11.2227 17.3545 10.8623 16.9941 10.8623 16.5107C10.8623 16.1064 11.0469 15.8691 11.5127 15.6758L15.6963 13.6631V13.6016L11.5127 11.5625C11.0557 11.3604 10.8623 11.1055 10.8623 10.71C10.8623 10.2354 11.2227 9.875 11.7061 9.875C11.917 9.875 12.0576 9.91895 12.2246 9.99805L17.498 12.793C17.9023 13.0039 18.0957 13.2764 18.0957 13.6631C18.0957 14.0762 17.9111 14.3223 17.498 14.5244L12.2246 17.2314C12.0664 17.3105 11.917 17.3545 11.7236 17.3545Z" fill="#1C1C1E"/>
</svg>
