<svg width="28" height="28" viewBox="0 0 28 28" fill="none" xmlns="http://www.w3.org/2000/svg">
<path d="M11.2666 5.02342L18.6934 6.33299C19.4932 6.47362 20.1611 6.69334 20.6973 7.00096V6.42088C20.6621 4.51366 19.3174 3.59959 17.1377 3.98631L11.2666 5.02342ZM8.55957 22.083L18.2627 23.7969C20.1172 24.1221 21.2598 23.0674 21.2598 21.0547V10.4375C21.2598 8.59178 20.3545 7.87108 18.4824 7.53709L9.06934 5.87596C7.68066 5.63866 6.73145 6.42967 6.73145 7.80956V19.9648C6.73145 21.1514 7.35547 21.8721 8.55957 22.083ZM9.20117 11.3252V9.47069C9.20117 8.8203 9.62305 8.51268 10.2998 8.63573L12.1543 8.96092C12.875 9.08397 12.6992 10.3056 11.8906 10.1562L10.8096 9.97167C10.5723 9.92772 10.4404 10.0156 10.4404 10.2353V11.3779C10.4404 12.125 9.20117 12.1162 9.20117 11.3252ZM17.4893 12.7314V11.6767C17.4893 11.4043 17.4102 11.1318 16.9355 11.0439L16.2148 10.9209C15.3623 10.7715 15.5645 9.55858 16.4258 9.71678L17.3486 9.87499C18.333 10.0508 18.7285 10.4726 18.7285 11.3076V12.7314C18.7285 13.6015 17.4893 13.5312 17.4893 12.7314ZM10.4404 17.0117V18.0752C10.4404 18.3476 10.5283 18.6113 11.0029 18.6992L11.7236 18.8223C12.5762 18.9717 12.374 20.1846 11.5127 20.0264L10.5898 19.8681C9.59668 19.6924 9.20117 19.2705 9.20117 18.4355V17.0117C9.20117 16.1416 10.4404 16.2119 10.4404 17.0117ZM18.7285 18.418V20.2724C18.7285 20.9316 18.3154 21.2305 17.6387 21.1074L15.7842 20.7822C15.0635 20.6592 15.2305 19.4463 16.0391 19.5869L17.1201 19.7715C17.3662 19.8154 17.4893 19.7275 17.4893 19.5078V18.374C17.4893 17.6269 18.7285 17.6269 18.7285 18.418Z" fill="#1C1C1E"/>
</svg>
