<svg width="28" height="28" viewBox="0 0 28 28" fill="none" xmlns="http://www.w3.org/2000/svg">
<path d="M8.67383 21.8809H19.3174C21.2246 21.8809 22.209 20.8965 22.209 19.0156V8.31934C22.209 6.43848 21.2246 5.4541 19.3174 5.4541H8.67383C6.77539 5.4541 5.78223 6.42969 5.78223 8.31934V19.0156C5.78223 20.8965 6.77539 21.8809 8.67383 21.8809ZM8.78809 20.1318C7.97949 20.1318 7.53125 19.71 7.53125 18.8574V8.47754C7.53125 7.625 7.97949 7.20312 8.78809 7.20312H19.2031C20.0029 7.20312 20.46 7.625 20.46 8.47754V18.8574C20.46 19.71 20.0029 20.1318 19.2031 20.1318H8.78809ZM14.123 18.7607C14.3691 18.7607 14.5449 18.5938 14.5449 18.3477V17.7939C16.3818 17.6445 17.3838 16.3701 17.3838 14.4277V14.0498C17.3838 13.6367 17.1113 13.373 16.6982 13.373H14.5449V10.8066C15.2041 10.9033 15.749 11.3691 15.9688 11.9932C16.1094 12.3184 16.2676 12.459 16.6104 12.459C16.9707 12.459 17.2168 12.2129 17.2168 11.8438C17.2168 11.6855 17.1816 11.5449 17.1289 11.4043C16.7598 10.4023 15.749 9.69922 14.5449 9.57617V9.00488C14.5449 8.75879 14.3691 8.5918 14.123 8.5918C13.8857 8.5918 13.71 8.75879 13.71 9.00488V9.58496C11.8115 9.7959 10.6162 11.334 10.6162 13.6895C10.6162 16.0713 11.8027 17.5742 13.71 17.7852V18.3477C13.71 18.5938 13.8945 18.7607 14.123 18.7607ZM13.71 16.5723C12.6465 16.335 12.0049 15.2627 12.0049 13.6807C12.0049 12.1162 12.6465 11.0439 13.71 10.8242V16.5723ZM14.5449 16.5986V14.5156H16.0303V14.6738C16.0303 15.7197 15.4766 16.458 14.5449 16.5986Z" fill="#1C1C1E"/>
</svg>
