<svg width="28" height="28" viewBox="0 0 28 28" fill="none" xmlns="http://www.w3.org/2000/svg">
<path d="M2.53027 21.459C2.1875 22.2236 2.46875 23.1816 3.51465 23.1816C3.88379 23.1816 4.18262 23.0322 4.66601 22.6367L7.04785 20.6592C7.13574 20.5889 7.18848 20.5625 7.22363 20.5625C7.26758 20.5625 7.32031 20.5889 7.4082 20.6592L9.79004 22.6367C10.2734 23.0322 10.5811 23.1816 10.9414 23.1816C11.9873 23.1816 12.2686 22.2236 11.9258 21.459L7.97949 12.5557V8.4248C7.97949 6.41211 8.31348 4.90918 8.31348 4.61035C8.31348 4.33789 8.13769 4.14453 7.85644 4.14453C7.68066 4.14453 7.52246 4.24121 7.30273 4.49609L5.34277 6.72852C5.1582 6.95703 5.21094 7.23828 5.45703 7.36133C6.23926 7.69531 6.48535 7.81836 6.48535 8.4248V12.5381L2.53027 21.459ZM13.5518 15.1748C13.9824 15.1748 14.2725 14.9463 14.457 14.6035C14.6416 14.9463 14.9316 15.1748 15.3711 15.1748C16.2236 15.1748 16.4521 14.1816 16.8037 14.1816C16.8652 14.1816 16.918 14.2344 16.918 14.3047C16.918 14.9727 16.3203 15.5176 16.3203 16.4404C16.3203 17.416 17.4014 17.9521 17.4014 19.5693C17.4014 21.1426 16.2939 22.083 14.457 22.083C13.7539 22.083 13.1475 21.9424 12.6025 21.6875C12.6992 22.127 12.6729 22.4697 12.5146 22.8213C13.1387 23.0762 13.7803 23.1992 14.457 23.1992C16.8916 23.1992 18.5088 21.749 18.5088 19.5693C18.5088 17.7676 17.4189 17.0381 17.4189 16.4316C17.4189 15.7197 18.0254 15.1836 18.0254 14.2695C18.0254 13.5928 17.5596 13.1006 16.918 13.1006C16.373 13.1006 16.0566 13.417 15.8369 13.707C15.6523 13.9355 15.5293 14.1025 15.4062 14.1025C15.248 14.1025 15.1953 13.8564 15.1865 13.4785L15.1953 8.0293C15.1953 7.80957 15.2041 7.7832 15.3359 7.73926C15.5381 7.66016 15.6084 7.5459 15.6436 7.26465L15.8193 5.43652C15.8281 5.26074 15.7578 5.08496 15.6172 4.95312L14.8525 4.29395C14.7471 4.19727 14.6064 4.14453 14.457 4.14453C14.2988 4.14453 14.167 4.19727 14.0615 4.29395L13.2969 4.95312C13.1562 5.07617 13.0859 5.26953 13.0947 5.43652L13.2705 7.26465C13.2969 7.53711 13.376 7.66016 13.5869 7.73926C13.7012 7.77441 13.7187 7.80957 13.7187 8.0293L13.7363 13.4961C13.7363 13.8037 13.666 14.1025 13.5166 14.1025C13.3936 14.1025 13.2705 13.9268 13.0771 13.707C12.8574 13.417 12.541 13.1094 12.0049 13.1094C11.3545 13.1094 10.8887 13.584 10.8887 14.2695C10.8887 15.1836 11.4951 15.7197 11.4951 16.4316C11.4951 16.7393 11.1787 17.1172 10.8975 17.6797L11.5566 19.1562C11.6973 17.8467 12.5937 17.3281 12.5937 16.4404C12.5937 15.5176 12.0049 14.9727 12.0049 14.3047C12.0049 14.2344 12.0488 14.1816 12.1104 14.1816C12.4619 14.1816 12.6904 15.1748 13.5518 15.1748ZM21.5674 23.1465C24.0371 23.1465 25.6104 21.96 25.6104 20.0879C25.6104 18.251 24.4238 17.8379 24.4238 17.0469C24.4238 16.4756 24.6875 15.9395 24.6875 15.1748C24.6875 13.9355 23.7998 13.1445 22.3145 12.9512V7.68652C22.3145 7.34375 22.3496 7.26465 22.543 7.12402C22.7363 7.00098 22.8066 6.88672 22.7979 6.70215L22.6572 4.51367C22.6484 4.29395 22.4902 4.14453 22.2969 4.14453H20.8379C20.6445 4.14453 20.4863 4.29395 20.4775 4.51367L20.3457 6.70215C20.3281 6.87793 20.4072 7.00098 20.6006 7.12402C20.7939 7.27344 20.8291 7.35254 20.8291 7.68652V12.9512C19.335 13.1445 18.4473 13.9443 18.4473 15.1748C18.4473 15.8955 18.7109 16.4229 18.7109 16.9766C18.7109 17.082 18.6846 17.2051 18.5703 17.416C18.7637 17.7939 18.9219 18.207 19.0186 18.6904C19.3965 18.1982 19.8184 17.6797 19.8184 17.0293C19.8184 16.4053 19.5547 15.7549 19.5547 15.1748C19.5547 14.2959 20.3281 13.9707 21.5674 13.9707C22.7891 13.9707 23.5889 14.2783 23.5889 15.1748C23.5889 15.7549 23.3164 16.4053 23.3164 17.0293C23.3164 18.1279 24.5117 18.6816 24.5117 20.0879C24.5117 21.3184 23.4219 22.0566 21.5674 22.0566C20.2754 22.0566 19.335 21.6875 18.8604 21.0195C18.7285 21.4414 18.5527 21.7578 18.333 22.0654C19.0537 22.7773 20.1875 23.1465 21.5674 23.1465ZM3.5498 21.8018L7.22363 13.4346L10.9062 21.8018C10.9854 22.0039 10.8271 22.1094 10.6865 21.9863L7.97949 19.7188C7.68945 19.4814 7.44336 19.3672 7.22363 19.3672C7.01269 19.3672 6.7666 19.4814 6.47656 19.7188L3.77832 21.9863C3.62891 22.1094 3.4707 22.0039 3.5498 21.8018ZM21.5674 17.7588C22.1035 17.7588 22.5342 17.3193 22.5342 16.792C22.5342 16.2646 22.1035 15.8164 21.5674 15.8164C21.04 15.8164 20.6006 16.2559 20.6006 16.792C20.6006 17.3281 21.0312 17.7588 21.5674 17.7588ZM12.7432 19.4023C12.9453 19.4814 13.1738 19.3584 13.2441 19.165L13.9121 17.2314C13.9824 17.0293 13.877 16.8008 13.6748 16.7393C13.4727 16.6602 13.2529 16.7744 13.1738 16.9766L12.5059 18.9189C12.4355 19.1035 12.541 19.332 12.7432 19.4023ZM16.1621 19.4023C16.3643 19.3496 16.4785 19.1123 16.4082 18.9189L15.7314 16.9766C15.6611 16.7832 15.4502 16.6689 15.2393 16.7393C15.0459 16.792 14.9316 17.0293 15.002 17.2314L15.6699 19.165C15.7402 19.3584 15.96 19.4727 16.1621 19.4023ZM8.06738 17.6797C8.31348 17.6797 8.51562 17.4863 8.51562 17.2402C8.51562 16.9941 8.31348 16.792 8.06738 16.792C7.83008 16.792 7.61914 17.0029 7.61914 17.2402C7.61914 17.4775 7.83008 17.6797 8.06738 17.6797ZM8.55078 18.8223C8.79687 18.8223 9.00781 18.6201 9.00781 18.374C9.00781 18.1279 8.79687 17.917 8.55078 17.917C8.31348 17.917 8.10254 18.1367 8.10254 18.374C8.10254 18.6201 8.31348 18.8223 8.55078 18.8223ZM9.03418 19.9561C9.28027 19.9561 9.49121 19.7451 9.49121 19.5078C9.49121 19.2617 9.28027 19.0596 9.03418 19.0596C8.80566 19.0596 8.59473 19.2705 8.59473 19.5078C8.59473 19.7451 8.79687 19.9561 9.03418 19.9561ZM20.4688 20.2725H22.666C22.8857 20.2725 23.0703 20.0967 23.0703 19.8682C23.0703 19.6396 22.8857 19.4639 22.666 19.4639H20.4688C20.2402 19.4639 20.0557 19.6484 20.0557 19.8682C20.0557 20.0967 20.2314 20.2725 20.4688 20.2725Z" fill="#1C1C1E"/>
</svg>
