<svg width="28" height="28" viewBox="0 0 28 28" fill="none" xmlns="http://www.w3.org/2000/svg">
<path d="M6.25684 21.4326C7.02148 22.2061 8.28711 22.2061 9.05176 21.4326C9.61426 20.8701 9.76367 20.0352 9.5 19.332L10.0713 18.7695C11.1611 19.6133 12.5322 20.1143 14.0176 20.1143C14.7119 20.1143 15.3887 20.0088 16.0127 19.7979C18.2803 21.3623 20.1699 21.9863 21.084 21.0811C21.9629 20.1934 21.4092 18.4004 19.9502 16.2207C20.293 15.4385 20.4775 14.5684 20.4775 13.6543C20.4775 12.1689 19.9766 10.8066 19.1328 9.7168L19.7041 9.14551C20.4072 9.40918 21.2334 9.25977 21.7871 8.68848C22.5605 7.93262 22.5605 6.6582 21.7871 5.90234C21.0225 5.12012 19.7568 5.12012 19.001 5.90234C18.4297 6.45605 18.2803 7.28223 18.5439 7.98535L17.9727 8.55664C16.8828 7.7041 15.5029 7.19434 14.0176 7.19434C13.1387 7.19434 12.3125 7.37012 11.5479 7.68652C9.1748 5.99902 7.18848 5.2959 6.24805 6.24512C5.27246 7.21191 6.0459 9.28613 7.83887 11.7559C7.6543 12.3535 7.54883 12.9951 7.54883 13.6543C7.54883 15.1484 8.05859 16.5283 8.91992 17.6182L8.35742 18.1895C7.64551 17.917 6.81934 18.0664 6.25684 18.6377C5.4834 19.4023 5.4834 20.668 6.25684 21.4326ZM7.34668 7.34375C7.67188 7.01855 8.72656 7.51074 10.124 8.50391C9.50879 8.96973 8.98145 9.54102 8.55957 10.1914C7.54004 8.76758 7.02148 7.67773 7.34668 7.34375ZM14.0176 8.86426C15.0459 8.86426 16.0039 9.18945 16.7861 9.74316L15.4854 11.0439C14.7031 10.2793 13.9209 9.56738 13.165 8.93457C13.4375 8.89062 13.7275 8.86426 14.0176 8.86426ZM9.66699 11.624C10.0713 10.7715 10.7129 10.0596 11.5127 9.56738C12.4268 10.3145 13.4111 11.1934 14.3867 12.1426L12.1543 14.3838C11.2402 13.4521 10.3877 12.5029 9.66699 11.624ZM18.8252 13.6631C18.8252 13.9795 18.7988 14.2871 18.7373 14.5859C18.1133 13.8125 17.4102 13.0127 16.6367 12.2041L17.9463 10.9033C18.5 11.6855 18.8252 12.6348 18.8252 13.6631ZM13.3057 15.5264L15.5381 13.3115C16.4873 14.3047 17.3574 15.3066 18.0781 16.2207C17.6035 16.9766 16.918 17.5918 16.1094 17.9873C15.2217 17.2842 14.2637 16.4492 13.3057 15.5264ZM9.20996 13.6631C9.20996 13.6016 9.20996 13.54 9.20996 13.4873C9.77246 14.1377 10.3877 14.8145 11.0469 15.4912L10.0977 16.4404C9.54395 15.6494 9.20996 14.6914 9.20996 13.6631ZM14.0176 18.4619C12.9893 18.4619 12.04 18.1367 11.249 17.583L12.207 16.6338C12.9014 17.293 13.5869 17.9082 14.2549 18.4619C14.1758 18.4619 14.0967 18.4619 14.0176 18.4619ZM19.9766 19.9736C19.6777 20.2637 18.7725 19.8857 17.5596 19.0596C18.1484 18.6729 18.6758 18.1895 19.1152 17.627C19.9062 18.8047 20.2666 19.6836 19.9766 19.9736Z" fill="#1C1C1E"/>
</svg>
