<svg width="28" height="28" viewBox="0 0 28 28" fill="none" xmlns="http://www.w3.org/2000/svg">
<path d="M13.9912 22.7422C18.9746 22.7422 23.0879 18.6289 23.0879 13.6543C23.0879 8.67969 18.9658 4.56641 13.9824 4.56641C9.00781 4.56641 4.90332 8.67969 4.90332 13.6543C4.90332 18.6289 9.0166 22.7422 13.9912 22.7422ZM11.1875 17.8467C10.625 17.8467 10.291 17.4688 10.291 16.8359V10.3496C10.291 9.70801 10.625 9.33887 11.1875 9.33887C11.7676 9.33887 12.1104 9.70801 12.1104 10.3496V12.793H15.8545V10.3496C15.8545 9.70801 16.1885 9.33887 16.751 9.33887C17.3398 9.33887 17.6738 9.70801 17.6738 10.3496V16.8359C17.6738 17.4775 17.3398 17.8467 16.751 17.8467C16.1885 17.8467 15.8545 17.4688 15.8545 16.8359V14.1904H12.1104V16.8359C12.1104 17.4775 11.7676 17.8467 11.1875 17.8467Z" fill="#1C1C1E"/>
</svg>
