<svg width="28" height="28" viewBox="0 0 28 28" fill="none" xmlns="http://www.w3.org/2000/svg">
<path d="M16.1885 4.24121H7.36426C5.46582 4.24121 4.48145 5.2168 4.48145 7.09766V15.9746C4.48145 17.8555 5.46582 18.8311 7.36426 18.8311H16.1885C18.0869 18.8311 19.0713 17.8555 19.0713 15.9746V7.09766C19.0713 5.2168 18.0869 4.24121 16.1885 4.24121ZM8.98145 15.7285C8.41895 15.7285 8.09375 15.3594 8.09375 14.7354V8.21387C8.09375 7.58984 8.41895 7.2207 8.98145 7.2207C9.54395 7.2207 9.87793 7.58105 9.87793 8.21387V10.6836H13.6748V8.21387C13.6748 7.58984 14 7.2207 14.5625 7.2207C15.125 7.2207 15.459 7.58105 15.459 8.21387V14.7354C15.459 15.3594 15.125 15.7285 14.5625 15.7285C14 15.7285 13.6748 15.3594 13.6748 14.7354V12.0547H9.87793V14.7354C9.87793 15.3594 9.54395 15.7285 8.98145 15.7285ZM23.5186 11.2725C23.5186 9.40918 22.5518 8.41602 20.6357 8.41602H20.3545V15.9746C20.3545 18.5674 18.7988 20.1143 16.1885 20.1143H8.8584V20.2373C8.8584 22.1094 9.84277 23.085 11.7412 23.085H20.6357C22.5342 23.085 23.5186 22.1094 23.5186 20.2285V11.2725Z" fill="#1C1C1E"/>
</svg>
