<svg width="28" height="28" viewBox="0 0 28 28" fill="none" xmlns="http://www.w3.org/2000/svg">
<path d="M3.50598 21.8193L5.10559 23.4189C5.93176 24.2538 6.90734 24.2011 7.79504 23.2255L17.1027 12.9511C17.3487 13.0214 17.6036 13.0038 17.9025 12.9511L18.7814 12.7841L19.2999 13.3115L19.256 13.7773C19.2208 14.2431 19.3614 14.6298 19.8185 15.0781L20.5128 15.7548C20.9962 16.2382 21.6202 16.2646 22.0861 15.7988L24.7316 13.1445C25.1974 12.6699 25.1798 12.0634 24.6964 11.58L24.0021 10.8857C23.5538 10.4374 23.1759 10.2792 22.7189 10.3144L22.2355 10.3583L21.7345 9.86615L21.9366 8.94329C22.0685 8.35443 21.9103 7.91497 21.3126 7.31732L19.3878 5.4013C16.3468 2.36908 12.1808 2.38665 9.50012 5.06732C9.09582 5.46283 9.06945 6.01654 9.29797 6.40326C9.52648 6.78118 9.9923 7.02728 10.6251 6.86908C11.9523 6.55267 13.2706 6.5263 14.4835 7.30853L13.9913 8.539C13.8155 8.96087 13.7804 9.32122 13.8683 9.64642L3.69055 19.1298C2.74133 19.9999 2.67101 20.9755 3.50598 21.8193ZM11.1525 5.45404C13.297 3.98626 16.1534 4.31146 18.087 6.24505L20.2316 8.38079C20.4513 8.59173 20.4864 8.76751 20.4249 9.07513L20.1612 10.3847L21.5763 11.7997L22.4552 11.747C22.6661 11.7382 22.7364 11.7558 22.8946 11.914L23.3341 12.3535L21.2775 14.4101L20.838 13.9706C20.6798 13.8124 20.6534 13.7421 20.6622 13.5224L20.715 12.6523L19.3087 11.2372L17.964 11.4658C17.6739 11.5185 17.5245 11.5009 17.3048 11.2812L15.6085 9.59369C15.38 9.37396 15.3448 9.20697 15.4767 8.88177L16.2677 6.99212C14.8614 5.6474 13.0245 5.11126 11.2228 5.61224C11.0997 5.63861 11.047 5.53314 11.1525 5.45404ZM5.88781 22.0038L4.91223 21.037C4.54309 20.6679 4.63098 20.413 4.93859 20.123L14.7648 10.8593L15.9249 12.0283L6.79309 21.9863C6.51184 22.2939 6.24816 22.373 5.88781 22.0038Z" fill="#1C1C1E"/>
</svg>
