<svg width="28" height="28" viewBox="0 0 28 28" fill="none" xmlns="http://www.w3.org/2000/svg">
<path d="M11.2578 4.88281C11.3633 4.88281 11.4424 4.82129 11.4688 4.69824C11.6885 3.41504 11.6885 3.40625 12.9893 3.16895C13.1211 3.13379 13.1914 3.06348 13.1914 2.94922C13.1914 2.83496 13.1211 2.76465 12.998 2.73828C11.6885 2.47461 11.7148 2.46582 11.4688 1.20898C11.4424 1.08594 11.3721 1.01562 11.2578 1.01562C11.1436 1.01562 11.0645 1.09473 11.0469 1.20898C10.7832 2.4834 10.8184 2.49219 9.50879 2.73828C9.38574 2.75586 9.31543 2.84375 9.31543 2.94922C9.31543 3.05469 9.38574 3.13379 9.50879 3.16895C10.8184 3.42383 10.8096 3.41504 11.0469 4.69824C11.0645 4.8125 11.1436 4.88281 11.2578 4.88281ZM17.375 7.22949C17.5332 7.22949 17.6475 7.12402 17.665 6.95703C17.9111 4.92676 17.999 4.86523 20.0732 4.53125C20.2578 4.51367 20.3633 4.41699 20.3633 4.24121C20.3633 4.10059 20.2578 3.98633 20.1084 3.96875C18.0166 3.55566 17.9111 3.57324 17.665 1.54297C17.6475 1.37598 17.5332 1.27051 17.375 1.27051C17.2256 1.27051 17.1113 1.37598 17.0938 1.53418C16.8213 3.6084 16.7686 3.66113 14.6504 3.96875C14.501 3.97754 14.3867 4.10059 14.3867 4.24121C14.3867 4.4082 14.4922 4.51367 14.6504 4.53125C16.7686 4.95312 16.8213 4.94434 17.0938 6.97461C17.1113 7.12402 17.2256 7.22949 17.375 7.22949ZM11.3809 6.40332C11.2402 6.52637 11.1436 6.68457 11.0732 6.84277C10.3438 6.33301 9.47363 6.4209 8.80566 7.08887C8.56836 7.32617 8.42773 7.61621 8.40137 7.92383C7.64551 7.42285 6.82812 7.48438 6.18652 8.12598C5.5625 8.74121 5.50098 9.58496 5.97559 10.3232C5.68555 10.3408 5.41309 10.4814 5.20215 10.6836C4.49023 11.4043 4.49902 12.3887 5.2373 13.127L5.81738 13.6982C5.50977 13.707 5.21094 13.8564 4.97363 14.0938C4.26172 14.8057 4.28809 15.8428 5.04395 16.5986L10.4844 22.0391C12.8926 24.4473 15.7402 24.9307 18.2012 23.6211C19.6953 23.5684 21.1631 22.9004 22.4375 21.6348C24.7314 19.332 25.1094 16.4844 23.5537 13.1973L21.5498 8.96973C21.1631 8.15234 20.5127 7.66895 19.7129 7.67773C19.2822 7.67773 18.5527 7.90625 18.2363 8.58301C17.6123 8.1875 16.8477 8.24023 16.2588 8.71484L13.9561 6.4209C13.165 5.62109 12.1631 5.64746 11.3809 6.40332ZM16.1533 11.8789L12.0576 7.7832C12.084 7.68652 12.1367 7.60742 12.2158 7.52832C12.4531 7.29102 12.7871 7.30859 13.042 7.55469L15.6611 10.1826C15.6787 10.332 15.7227 10.4902 15.7842 10.6484L16.2588 11.7998C16.2764 11.835 16.2764 11.8613 16.25 11.8877C16.2236 11.9141 16.1885 11.9053 16.1533 11.8789ZM18.8867 21.248C16.6631 23.4717 13.877 23.4189 11.3896 20.9229L6.16895 15.7109C5.94043 15.4736 5.92285 15.1572 6.15137 14.9287C6.37988 14.7002 6.70508 14.7002 6.94238 14.9375L10.1416 18.1367C10.4053 18.4092 10.8184 18.3828 11.0645 18.1367C11.3193 17.8818 11.3457 17.4688 11.0732 17.2051L6.27441 12.4062C6.03711 12.1689 6.02832 11.8525 6.25684 11.624C6.47656 11.3955 6.81055 11.3955 7.03906 11.6328L11.5215 16.1064C11.7852 16.3789 12.1982 16.3525 12.4443 16.1064C12.6904 15.8516 12.7256 15.4473 12.4531 15.1748L7.18848 9.91016C6.95996 9.68164 6.95117 9.34766 7.1709 9.11914C7.39941 8.89941 7.72461 8.9082 7.96191 9.14551L13.1475 14.3311C13.4023 14.5859 13.8154 14.5771 14.0703 14.3223C14.3252 14.0674 14.3428 13.6543 14.0791 13.3906L9.68457 8.99609C9.44727 8.75879 9.43848 8.44238 9.66699 8.21387C9.89551 7.98535 10.2207 7.99414 10.4492 8.22266L16.6455 14.4189C17.0059 14.7793 17.4453 14.7529 17.7354 14.4541C17.9814 14.208 18.0957 13.8652 17.9111 13.3906L16.8037 10.4902C16.6719 10.1387 16.8037 9.85742 17.0674 9.73438C17.3574 9.60254 17.6299 9.73438 17.7969 10.1035L19.8271 14.4453C21.1719 17.3281 20.6885 19.4375 18.8867 21.248ZM21.1016 13.8389L19.2207 9.875C19.2031 9.80469 19.1943 9.73438 19.1943 9.65527C19.1943 9.3916 19.3965 9.14551 19.7393 9.14551C19.9502 9.14551 20.1699 9.29492 20.2842 9.54102L22.2793 13.8037C23.624 16.6777 23.1494 18.7959 21.3389 20.5977C21.2861 20.6416 21.2422 20.6943 21.1895 20.7383C22.3584 18.7432 22.332 16.4316 21.1016 13.8389ZM6.06348 24.9043C6.2041 24.9043 6.29199 24.8164 6.30957 24.6758C6.61719 22.9531 6.6084 22.918 8.40137 22.584C8.55078 22.5576 8.63867 22.4785 8.63867 22.3379C8.63867 22.1885 8.55078 22.1094 8.41016 22.083C6.6084 21.7227 6.64355 21.6963 6.30957 19.9912C6.29199 19.8506 6.2041 19.7627 6.06348 19.7627C5.93164 19.7627 5.84375 19.8506 5.81738 19.9912C5.4834 21.7051 5.53613 21.7402 3.72559 22.083C3.58496 22.1094 3.49707 22.1885 3.49707 22.3379C3.49707 22.4785 3.58496 22.5576 3.72559 22.584C5.53613 22.9443 5.50098 22.9619 5.81738 24.6758C5.84375 24.8164 5.93164 24.9043 6.06348 24.9043Z" fill="#1C1C1E"/>
</svg>
