<svg width="28" height="28" viewBox="0 0 28 28" fill="none" xmlns="http://www.w3.org/2000/svg">
<path d="M9.17383 21.9688H19.8174C21.7158 21.9688 22.7002 20.9932 22.7002 19.1211V8.41602C22.7002 6.54395 21.7158 5.56836 19.8174 5.56836H9.17383C7.27539 5.56836 6.29102 6.53516 6.29102 8.41602V19.1211C6.29102 20.9932 7.27539 21.9688 9.17383 21.9688ZM9.2793 20.2461C8.46191 20.2461 8.01367 19.8242 8.01367 18.9717V8.56543C8.01367 7.71289 8.46191 7.28223 9.2793 7.28223H19.7119C20.5205 7.28223 20.9775 7.71289 20.9775 8.56543V18.9717C20.9775 19.8242 20.5205 20.2461 19.7119 20.2461H9.2793ZM10.8701 15.3682C10.8701 17.5303 12.3027 18.8574 14.3066 18.8574C15.7568 18.8574 16.7676 18.2949 17.4531 16.9766C17.8926 16.2207 18.209 15.2451 18.499 14.3135C18.6309 13.8652 18.8242 13.3115 18.833 13.0654C18.8506 12.7754 18.6484 12.5645 18.3496 12.5557C18.0244 12.5381 17.8135 12.7402 17.6025 13.1797L16.917 14.6387C16.8555 14.7793 16.7852 14.832 16.7148 14.832C16.627 14.832 16.5742 14.7705 16.5742 14.6299V9.48828C16.5742 9.18066 16.3193 8.92578 16.0117 8.92578C15.6953 8.92578 15.4492 9.18066 15.4492 9.48828V13.1885C15.3262 13.1533 15.1943 13.1094 15.0537 13.083V8.78516C15.0537 8.47754 14.8076 8.22266 14.4912 8.22266C14.1836 8.22266 13.9287 8.47754 13.9287 8.78516V13.0215C13.7969 13.0391 13.6562 13.0566 13.5244 13.083V9.19824C13.5244 8.89062 13.2695 8.64453 12.9531 8.64453C12.6455 8.64453 12.3906 8.89062 12.3906 9.19824V13.417C12.2412 13.4873 12.127 13.5664 12.0039 13.6367V10.7275C12.0039 10.4111 11.749 10.1562 11.4414 10.1562C11.125 10.1562 10.8701 10.4111 10.8701 10.7275V15.3682Z" fill="#1C1C1E"/>
</svg>
