<svg width="28" height="28" viewBox="0 0 28 28" fill="none" xmlns="http://www.w3.org/2000/svg">
<path d="M10.001 1.99121C7.39941 1.99121 5.28125 4.10059 5.28125 6.70215C5.28125 7.75684 5.65039 8.80273 6.25684 9.59375C6.42383 9.82227 6.64355 9.91895 6.86328 9.91895C7.39062 9.91895 7.80371 9.32129 7.39941 8.79395C6.95117 8.22266 6.66992 7.48438 6.66992 6.70215C6.66992 4.86523 8.16406 3.38867 10.001 3.38867C11.7676 3.38867 13.209 4.76855 13.2969 6.52637C13.2969 6.5791 13.3057 6.63184 13.3057 6.71094C13.3408 7.12402 13.6133 7.35254 13.9648 7.35254C14.3516 7.35254 14.6592 7.09766 14.6768 6.71973C14.6855 6.64062 14.6855 6.53516 14.6768 6.41211C14.5361 3.93359 12.4795 1.99121 10.001 1.99121ZM18.4033 22.0303C22.1123 20.6768 23.6328 17.3896 22.165 13.3555L21.4443 11.3691C20.7236 9.40918 19.3438 8.57422 17.7266 9.12793C17.2871 8.5918 16.6016 8.40723 15.8809 8.6709C15.6436 8.75879 15.4326 8.87305 15.248 9.02246C14.7559 8.44238 14.0439 8.23145 13.3057 8.50391C13.1562 8.55664 12.998 8.64453 12.8574 8.75L11.9521 6.28027C11.5391 5.1377 10.5107 4.6543 9.43848 5.04102C8.33984 5.43652 7.85645 6.48242 8.26953 7.625L10.6426 14.1465C10.6602 14.1904 10.6514 14.2256 10.6074 14.2432C10.5811 14.252 10.5547 14.2432 10.5283 14.2168L9.67578 13.2939C9.14844 12.793 8.52441 12.6436 7.91797 12.8633C7.0127 13.1973 6.47656 14.0586 6.83691 15.043C6.93359 15.333 7.12695 15.6582 7.33789 15.9219L10.3262 19.5166C12.6201 22.2852 15.3711 23.1377 18.4033 22.0303ZM17.9287 20.5889C15.5908 21.4414 13.4551 20.958 11.4424 18.5762L8.42773 15.0342C8.34863 14.9375 8.2959 14.8496 8.24316 14.7266C8.15527 14.4717 8.26074 14.1904 8.55957 14.085C8.79688 13.9971 8.99902 14.085 9.19238 14.2959L11.293 16.3965C11.6445 16.748 11.9785 16.792 12.2949 16.6777C12.6816 16.5371 12.8662 16.124 12.708 15.6758L9.57031 7.05371C9.45605 6.7373 9.58789 6.44727 9.89551 6.33301C10.1943 6.22754 10.4756 6.36816 10.5898 6.67578L12.7959 12.7402C12.9189 13.0742 13.2969 13.2324 13.6309 13.1094C13.9561 12.9863 14.1318 12.626 14.0176 12.292L13.2354 10.1475C13.3408 10.042 13.499 9.94531 13.6396 9.89258C14 9.76074 14.3076 9.91895 14.4482 10.2969L15.1602 12.248C15.2832 12.5996 15.6523 12.7402 15.9863 12.6172C16.3027 12.5029 16.4873 12.1602 16.3643 11.8086L15.8193 10.3145C15.9248 10.209 16.083 10.1123 16.2236 10.0596C16.584 9.92773 16.8916 10.0859 17.0322 10.4639L17.5068 11.7559C17.6299 12.1074 18.0078 12.2568 18.3418 12.1338C18.6582 12.0195 18.8516 11.668 18.7197 11.3164L18.4209 10.4902C19.0889 10.2529 19.6865 10.7627 20.1084 11.9141L20.7588 13.707C21.9629 17.0029 20.873 19.5166 17.9287 20.5889Z" fill="#1C1C1E"/>
</svg>
