<svg width="28" height="28" viewBox="0 0 28 28" fill="none" xmlns="http://www.w3.org/2000/svg">
<path d="M17.5596 21.5996C21.2686 20.2549 22.5342 17.1611 21.0928 13.206L20.4951 11.5625C19.9502 10.0683 18.8779 9.37401 18.0254 9.68163C17.8145 9.76073 17.7441 9.92772 17.8145 10.1211L18.0781 10.833C18.1924 11.1494 18.0957 11.3603 17.9111 11.4307C17.709 11.501 17.4981 11.4043 17.3838 11.0879L17.208 10.6221C16.8828 9.72557 16.0918 9.33886 15.3008 9.6289C14.9316 9.76073 14.8174 9.98925 14.9316 10.3057L15.2832 11.2812C15.3975 11.5976 15.3096 11.7998 15.125 11.8701C14.9229 11.9404 14.7119 11.8525 14.5977 11.5273L14.2637 10.6308C13.9033 9.63768 13.1475 9.34765 12.3652 9.6289C12.0137 9.76073 11.8818 9.99804 11.9961 10.3057L12.6904 12.2217C12.8047 12.5381 12.708 12.749 12.5322 12.8105C12.3301 12.8896 12.1191 12.793 12.0049 12.4766L9.70216 6.14843C9.46485 5.49804 8.87598 5.22557 8.31348 5.42772C7.71583 5.64745 7.46094 6.22753 7.69825 6.87792L11.0381 16.0537C11.1172 16.2646 11.0293 16.4228 10.8975 16.4756C10.7744 16.5195 10.6338 16.4756 10.4756 16.3086L8.23438 13.9004C7.88282 13.5224 7.4961 13.3906 7.05665 13.5488C6.44141 13.7773 6.18653 14.3486 6.37989 14.8848C6.45899 15.0781 6.55567 15.2363 6.66114 15.3682L9.57032 18.9892C11.9961 21.9951 14.7822 22.6103 17.5596 21.5996Z" fill="#1C1C1E"/>
</svg>
