<svg width="28" height="28" viewBox="0 0 28 28" fill="none" xmlns="http://www.w3.org/2000/svg">
<path d="M13.0068 4.17972C9.06055 4.17972 6.51172 6.74613 6.51172 11.044V13.1621C6.51172 15.2452 7.53125 16.502 9.23633 16.5371C9.46484 17.1963 10.0537 17.5918 10.8096 17.5918C11.0645 17.5918 11.3018 17.5567 11.5303 17.4776C11.7939 18.1983 12.3916 18.6377 13.1738 18.6377C13.3408 18.6377 13.5166 18.6114 13.6836 18.5586V21.1866C13.6836 22.3994 14.4834 23.208 15.626 23.208C16.7949 23.208 17.6035 22.3994 17.6035 21.1866V14.2432C17.6035 14.1993 17.6299 14.1641 17.6738 14.1641C17.7002 14.1641 17.7266 14.1817 17.7441 14.2168L18.2275 15.377C18.5527 16.0274 19.0889 16.3789 19.7305 16.3789C20.6973 16.3789 21.4971 15.7549 21.4883 14.7002C21.4971 14.4014 21.4355 14.0323 21.3213 13.7071L19.748 9.30374C18.5352 5.91995 16.2412 4.17093 13.0068 4.17972ZM12.9629 5.69144C15.4502 5.69144 17.2959 6.87796 18.377 9.80472L19.9941 14.1729C20.0381 14.2871 20.0557 14.3838 20.0557 14.5157C20.0557 14.7793 19.8623 15.0078 19.5459 15.0078C19.291 15.0078 19.1328 14.8584 19.0273 14.6035L17.7705 11.9053C17.5596 11.4571 17.2607 11.2989 16.9268 11.2989C16.5137 11.2989 16.1885 11.6241 16.1885 12.0987V21.2744C16.1885 21.6084 15.96 21.8369 15.6436 21.8369C15.3184 21.8369 15.0986 21.6084 15.0986 21.2744V14.8321C15.0986 14.4717 14.7998 14.1993 14.4482 14.1993C14.0967 14.1993 13.8066 14.4717 13.8066 14.8321V17.1172C13.666 17.17 13.4902 17.2139 13.3408 17.2139C12.9541 17.2139 12.7168 16.959 12.7168 16.5547V14.4805C12.7168 14.1114 12.418 13.8477 12.0664 13.8477C11.7324 13.8477 11.4336 14.1114 11.4336 14.4805V16.0801C11.3018 16.1328 11.1172 16.1768 10.9678 16.1768C10.5811 16.1768 10.3438 15.9219 10.3438 15.5176V14.1377C10.3438 13.7686 10.0361 13.5049 9.68457 13.5049C9.35059 13.5049 9.05176 13.7686 9.05176 14.1377V15.0166C8.33984 15.0166 7.95312 14.3311 7.95312 13.1006V11.1934C7.95312 7.68656 9.83398 5.69144 12.9629 5.69144Z" fill="#1C1C1E"/>
</svg>
