<svg width="28" height="28" viewBox="0 0 28 28" fill="none" xmlns="http://www.w3.org/2000/svg">
<path d="M7.37305 16.7041C7.37305 20.6504 10.0273 23.0059 13.6045 23.0059C16.2852 23.0059 18.0254 21.916 19.2207 19.7275C20.0732 18.3652 20.6709 16.4932 21.1631 14.876C21.4268 14.041 21.7871 12.9863 21.8135 12.5205C21.8486 11.9932 21.5059 11.6152 20.9785 11.5801C20.3721 11.5361 19.9941 11.8877 19.6162 12.6787L18.3857 15.3242C18.2715 15.5879 18.1484 15.6758 18.0078 15.6758C17.8496 15.6758 17.7354 15.5879 17.7354 15.2979V6.00781C17.7354 5.43652 17.2871 4.98828 16.7158 4.98828C16.1533 4.98828 15.7051 5.43652 15.7051 6.00781V12.7666C15.4766 12.6875 15.2305 12.6172 14.9756 12.5645V4.75977C14.9756 4.18848 14.5273 3.74023 13.9561 3.74023C13.3936 3.74023 12.9453 4.18848 12.9453 4.75977V12.4678C12.6816 12.4941 12.4268 12.5293 12.1719 12.5732V5.48926C12.1719 4.92676 11.7236 4.47852 11.1611 4.47852C10.5898 4.47852 10.1416 4.92676 10.1416 5.48926V13.1709C9.87793 13.2939 9.63184 13.4346 9.40332 13.584V8.23145C9.40332 7.66895 8.95508 7.2207 8.39258 7.2207C7.82129 7.2207 7.37305 7.66895 7.37305 8.23145V16.7041Z" fill="#1C1C1E"/>
</svg>
