<svg width="28" height="28" viewBox="0 0 28 28" fill="none" xmlns="http://www.w3.org/2000/svg">
<path d="M14 22.7334C18.9658 22.7334 23.0791 18.6289 23.0791 13.6543C23.0791 8.68848 18.9658 4.5752 13.9912 4.5752C9.02539 4.5752 4.9209 8.68848 4.9209 13.6543C4.9209 18.6289 9.03418 22.7334 14 22.7334ZM11.2578 15.0518C11.2754 13.9268 11.5742 13.2236 12.1982 12.3975C12.9189 11.4219 13.8682 10.2969 14.5801 8.9082C14.7734 8.53027 14.9492 8.30176 15.3008 8.30176C15.6875 8.30176 15.9951 8.58301 15.9951 9.04004C15.9951 9.88379 15.1953 11.0615 15.1953 11.7031C15.1953 12.0371 15.459 12.248 15.8896 12.248H17.5771C18.0605 12.248 18.4297 12.6348 18.4297 13.1357C18.4297 13.3818 18.3418 13.6191 18.2012 13.7598C18.1221 13.8213 18.1045 13.8564 18.1836 13.9092C18.2979 14.0322 18.3682 14.2783 18.3682 14.498C18.3682 14.832 18.2275 15.0781 17.999 15.2275C17.9287 15.2715 17.9199 15.333 17.9639 15.4033C18.0693 15.5352 18.1396 15.7285 18.1396 15.9482C18.1396 16.3174 17.8936 16.6074 17.5947 16.7305C17.5508 16.748 17.542 16.8008 17.5771 16.8623C17.6211 16.9502 17.6738 17.1084 17.6738 17.2754C17.6738 17.7412 17.3047 17.9785 16.9004 18.084C16.6279 18.1455 16.1709 18.1895 15.5645 18.1895L14.9053 18.1807C12.6641 18.1719 11.2314 16.8271 11.2578 15.0518ZM8.89355 15.0869C8.89355 13.6016 9.71973 12.4326 10.8184 12.4326H11.4688C11.0469 13.0127 10.6074 13.8564 10.5898 15.043C10.5723 16.1416 10.959 17.0908 11.8203 17.7412H10.9854C9.77246 17.7412 8.89355 16.5459 8.89355 15.0869Z" fill="#1C1C1E"/>
</svg>
