<svg width="28" height="31" viewBox="0 0 28 31" fill="none" xmlns="http://www.w3.org/2000/svg">
<g filter="url(#filter0_d_610_1811)">
<path d="M14 22.7334C18.9658 22.7334 23.0791 18.6289 23.0791 13.6543C23.0791 8.68848 18.9658 4.5752 13.9912 4.5752C9.02539 4.5752 4.9209 8.68848 4.9209 13.6543C4.9209 18.6289 9.03418 22.7334 14 22.7334ZM10.3965 15.2891V10.4287C10.3965 10.0947 10.6602 9.83105 10.9941 9.83105C11.3193 9.83105 11.583 10.0947 11.583 10.4287V13.4609C11.7148 13.3906 11.8291 13.3115 11.9873 13.2412V8.8291C11.9873 8.50391 12.2598 8.24023 12.5762 8.24023C12.9102 8.24023 13.1738 8.50391 13.1738 8.8291V12.8809C13.3145 12.8545 13.4551 12.8457 13.5957 12.8281V8.39844C13.5957 8.08203 13.8594 7.80957 14.1934 7.80957C14.5186 7.80957 14.7822 8.08203 14.7822 8.39844V12.8809C14.9229 12.916 15.0635 12.96 15.1865 12.9951V9.12793C15.1865 8.81152 15.4502 8.53906 15.7754 8.53906C16.1006 8.53906 16.3643 8.80273 16.3643 9.12793V14.498C16.3643 14.6475 16.417 14.709 16.5225 14.709C16.5928 14.709 16.6631 14.665 16.7246 14.5068L17.4365 12.9863C17.665 12.5205 17.876 12.3096 18.2275 12.3271C18.5352 12.3447 18.7461 12.5645 18.7285 12.8721C18.7197 13.127 18.5176 13.7158 18.3682 14.1904C18.0693 15.1572 17.7441 16.1855 17.2695 16.9766C16.5488 18.3389 15.5029 18.9277 13.9912 18.9277C11.8994 18.9277 10.3965 17.5391 10.3965 15.2891Z" fill="#1C1C1E"/>
</g>
<defs>
<filter id="filter0_d_610_1811" x="-4" y="0" width="36" height="36" filterUnits="userSpaceOnUse" color-interpolation-filters="sRGB">
<feFlood flood-opacity="0" result="BackgroundImageFix"/>
<feColorMatrix in="SourceAlpha" type="matrix" values="0 0 0 0 0 0 0 0 0 0 0 0 0 0 0 0 0 0 127 0" result="hardAlpha"/>
<feOffset dy="4"/>
<feGaussianBlur stdDeviation="2"/>
<feComposite in2="hardAlpha" operator="out"/>
<feColorMatrix type="matrix" values="0 0 0 0 0 0 0 0 0 0 0 0 0 0 0 0 0 0 0.25 0"/>
<feBlend mode="normal" in2="BackgroundImageFix" result="effect1_dropShadow_610_1811"/>
<feBlend mode="normal" in="SourceGraphic" in2="effect1_dropShadow_610_1811" result="shape"/>
</filter>
</defs>
</svg>
