<svg width="28" height="28" viewBox="0 0 28 28" fill="none" xmlns="http://www.w3.org/2000/svg">
<path d="M4.48145 17.2578C4.83301 17.249 5.09668 16.9677 5.10547 16.6162C5.19336 12.8017 7.16211 9.96286 10.1768 8.87302L12.0928 14.1465C12.1104 14.1904 12.1016 14.2256 12.0576 14.2431C12.0312 14.2519 12.0049 14.2431 11.9785 14.2168L11.1172 13.2939C10.5986 12.7929 9.97461 12.6435 9.36816 12.8633C8.46289 13.1972 7.92676 14.0586 8.28711 15.0429C8.38379 15.333 8.56836 15.6582 8.78809 15.9218L11.7764 19.5166C14.0703 22.2851 16.8213 23.1377 19.8535 22.0302C23.5625 20.6767 25.083 17.3896 23.6152 13.3554L22.8945 11.3691C22.1738 9.40915 20.7939 8.57419 19.1768 9.1279C18.7285 8.59177 18.0518 8.4072 17.3311 8.67087C17.0938 8.75876 16.8828 8.87302 16.6982 9.02243C16.2061 8.44236 15.4941 8.23142 14.7559 8.50388C14.5977 8.55661 14.4482 8.6445 14.3076 8.74997L13.4023 6.28025C12.9893 5.13767 11.9609 4.65427 10.8887 5.04099C9.79004 5.4365 9.30664 6.48239 9.71973 7.62497L9.72852 7.65134C6.23047 8.92575 3.83105 12.292 3.83105 16.5898C3.83105 16.959 4.13867 17.2666 4.48145 17.2578ZM19.3789 20.5888C17.041 21.4414 14.9053 20.958 12.8926 18.5761L9.87793 15.0342C9.79883 14.9375 9.74609 14.8496 9.69336 14.7265C9.60547 14.4717 9.71094 14.1904 10.0098 14.0849C10.2471 13.997 10.4492 14.0849 10.6426 14.2959L12.7432 16.3965C13.0947 16.748 13.4287 16.792 13.7451 16.6777C14.1318 16.5371 14.3164 16.124 14.1582 15.6758L11.0205 7.05368C10.9062 6.73728 11.0381 6.44724 11.3457 6.33298C11.6445 6.22751 11.9258 6.36814 12.04 6.67575L14.2461 12.7402C14.3691 13.0742 14.7471 13.2324 15.0811 13.1093C15.4062 12.9863 15.582 12.6259 15.4678 12.292L14.6855 10.1474C14.791 10.042 14.9492 9.94528 15.0898 9.89255C15.4502 9.76071 15.7578 9.91892 15.8984 10.2968L16.6104 12.248C16.7334 12.5996 17.1025 12.7402 17.4365 12.6172C17.7529 12.5029 17.9375 12.1601 17.8145 11.8086L17.2695 10.3144C17.375 10.209 17.5332 10.1123 17.6738 10.0595C18.0342 9.92771 18.3418 10.0859 18.4824 10.4638L18.957 11.7558C19.0801 12.1074 19.458 12.2568 19.792 12.1338C20.1084 12.0195 20.3018 11.6679 20.1699 11.3164L19.8711 10.4902C20.5391 10.2529 21.1367 10.7627 21.5586 11.914L22.209 13.707C23.4131 17.0029 22.3232 19.5166 19.3789 20.5888Z" fill="#1C1C1E"/>
</svg>
