<svg width="28" height="28" viewBox="0 0 28 28" fill="none" xmlns="http://www.w3.org/2000/svg">
<path d="M18.7109 10.9736C18.7637 7.51074 15.9512 4.91796 11.6094 4.88281L10.3438 4.87402C9.15723 4.86523 8.26074 4.95312 7.7334 5.08495C6.94238 5.2871 6.23926 5.77929 6.23926 6.67578C6.23926 7.01855 6.32715 7.28222 6.44141 7.48437C6.50293 7.58984 6.48535 7.66894 6.39746 7.71288C5.7998 7.97656 5.34277 8.53027 5.34277 9.26855C5.34277 9.67285 5.46582 10.0508 5.65918 10.3232C5.74707 10.4375 5.72949 10.543 5.58887 10.6309C5.16699 10.8945 4.87695 11.4307 4.87695 12.0459C4.87695 12.4853 5.01758 12.9424 5.25488 13.1797C5.37793 13.2939 5.36035 13.373 5.22852 13.4873C4.92969 13.751 4.7627 14.1904 4.7627 14.709C4.7627 15.6582 5.49219 16.4141 6.45898 16.4141H9.72852C10.5195 16.4141 11.0381 16.8184 11.0381 17.4512C11.0381 18.6816 9.47363 20.9668 9.47363 22.6279C9.47363 23.5244 10.0537 24.0781 10.8359 24.0781C11.5127 24.0781 11.873 23.6299 12.2598 22.874C13.6396 20.1934 15.4766 18.0225 16.8828 16.1504C18.1045 14.5332 18.6758 13.1445 18.7109 10.9736ZM23.29 10.8945C23.29 8.08203 21.541 5.76171 19.2031 5.76171H17.6299C19.2646 7.00976 20.0469 8.87304 20.0117 10.9912C19.9766 13.2764 19.1592 14.9287 18.2979 16.0713H19.5547C21.6729 16.0713 23.29 13.8037 23.29 10.8945Z" fill="#1C1C1E"/>
</svg>
