<svg width="28" height="28" viewBox="0 0 28 28" fill="none" xmlns="http://www.w3.org/2000/svg">
<path d="M9.00781 5.85834C9.3418 5.77924 9.5791 5.42768 9.5 5.10248L8.98145 2.68549C8.90235 2.34271 8.56836 2.13178 8.22559 2.20209C7.88281 2.26361 7.6543 2.60639 7.72461 2.94916L8.25196 5.35736C8.32227 5.70014 8.65625 5.93744 9.00781 5.85834ZM5.58887 6.79877C5.84375 7.04486 6.24805 7.04486 6.48535 6.79877C6.72266 6.54389 6.73145 6.14838 6.48535 5.90228L4.72754 4.14447C4.47266 3.88959 4.08594 3.89838 3.83985 4.14447C3.58496 4.39936 3.57617 4.78607 3.83985 5.04096L5.58887 6.79877ZM13.1387 6.40326C13.0068 6.5351 12.9014 6.68451 12.8398 6.84271C12.1016 6.33295 11.2402 6.42084 10.5635 7.08881C10.3262 7.32611 10.1855 7.61615 10.1592 7.92377C9.41211 7.42279 8.58594 7.48432 7.94434 8.12592C7.3291 8.74115 7.25879 9.5849 7.74219 10.3232C7.45215 10.3408 7.17969 10.4814 6.96875 10.6835C6.24805 11.4042 6.26563 12.3886 6.99512 13.1269L7.5752 13.6982C7.27637 13.707 6.96875 13.8564 6.73145 14.0937C6.01953 14.8056 6.0459 15.8427 6.81055 16.5986L12.251 22.039C14.6504 24.4472 17.498 24.9306 19.959 23.621C21.4531 23.5683 22.9209 22.9003 24.1953 21.6347C26.498 19.332 26.8848 16.4755 25.3203 13.1972L23.3164 8.96967C22.9209 8.15229 22.2705 7.66889 21.4795 7.67768C21.0488 7.67768 20.3105 7.90619 20.0029 8.58295C19.3789 8.18744 18.6055 8.24018 18.0166 8.71479L15.7227 6.42084C14.9229 5.62104 13.9209 5.6474 13.1387 6.40326ZM17.9199 11.8788L13.8242 7.78314C13.8506 7.69525 13.9033 7.60736 13.9736 7.52826C14.2197 7.29096 14.5537 7.30854 14.8086 7.55463L17.4189 10.1738C17.4365 10.332 17.4805 10.4902 17.542 10.6484L18.0254 11.7997C18.0342 11.8349 18.0342 11.8613 18.0166 11.8876C17.9814 11.914 17.9463 11.9052 17.9199 11.8788ZM4.6836 9.80463C5.01758 9.87494 5.36035 9.65521 5.42188 9.31244C5.49219 8.96967 5.28125 8.64447 4.93848 8.57416L2.5127 8.04682C2.14356 7.96771 1.80078 8.20502 1.74805 8.57416C1.7041 8.90814 1.91504 9.22455 2.24903 9.29486L4.6836 9.80463ZM20.6445 21.248C18.4209 23.4716 15.6436 23.4189 13.1475 20.9228L7.93555 15.7109C7.69824 15.4736 7.68067 15.1572 7.90918 14.9287C8.1377 14.7001 8.46289 14.7001 8.7002 14.9374L11.8994 18.1367C12.1719 18.4091 12.5762 18.3828 12.8223 18.1367C13.0772 17.8818 13.1035 17.4687 12.8398 17.205L8.03223 12.4062C7.80371 12.1689 7.78614 11.8525 8.01465 11.624C8.24317 11.3954 8.56836 11.3954 8.80567 11.6328L13.2793 16.1064C13.5518 16.3788 13.9561 16.3525 14.2022 16.1064C14.457 15.8515 14.4834 15.4472 14.2197 15.1747L8.95508 9.9101C8.71778 9.68158 8.70899 9.3476 8.9375 9.11908C9.15723 8.89936 9.48242 8.90814 9.71973 9.14545L14.9053 14.331C15.1689 14.5859 15.5732 14.5771 15.8281 14.3222C16.083 14.0673 16.1006 13.6542 15.8457 13.3906L11.4424 8.99604C11.2051 8.75873 11.2051 8.44232 11.4248 8.21381C11.6533 7.98529 11.9785 7.99408 12.207 8.2226L18.4121 14.4189C18.7637 14.7792 19.2031 14.7529 19.4932 14.454C19.748 14.2079 19.8535 13.8652 19.6689 13.3906L18.5615 10.4902C18.4297 10.1386 18.5615 9.85736 18.8252 9.73432C19.1152 9.60248 19.3877 9.73432 19.5547 10.1035L21.5938 14.4453C22.9385 17.3281 22.4551 19.4374 20.6445 21.248ZM22.8682 13.8388L20.9873 9.89252C20.9697 9.81342 20.9522 9.74311 20.9522 9.65521C20.9522 9.39154 21.1631 9.14545 21.4971 9.14545C21.7168 9.14545 21.9277 9.29486 22.042 9.54096L24.0371 13.8037C25.3906 16.6777 24.9072 18.7958 23.0967 20.5976C23.0527 20.6503 23 20.6943 22.9473 20.747C24.1162 18.7519 24.0986 16.4316 22.8682 13.8388Z" fill="#1C1C1E"/>
</svg>
