<svg width="28" height="28" viewBox="0 0 28 28" fill="none" xmlns="http://www.w3.org/2000/svg">
<path d="M8.10254 23.2871C9.79883 23.2871 11.3896 22.8564 12.6025 21.749C13.0947 22.1182 13.666 22.2939 14.457 22.2939C15.2041 22.2939 15.8193 22.0654 16.8301 22.0654C17.7881 22.0654 18.3154 22.3115 19.0977 22.3115C20.9258 22.3115 21.6641 21.3447 21.6641 20.2637C21.6641 18.6377 20.3721 17.5391 17.9287 17.2842C18.7549 16.8799 19.5195 16.5547 20.0732 16.3438C21.1191 17.0205 22.6748 17.4424 23.791 17.4336C26.2871 17.416 27.7461 16.6162 27.7461 14.1904C27.7461 11.1758 25.4961 8.91699 22.7275 8.84668L20.8379 6.23633C19.4053 4.27637 17.8232 3.17773 15.7402 3.17773C14.1582 3.17773 12.0488 4.04785 12.0488 5.38379C12.0488 6.38574 13.0859 7.08008 14.2373 7.81836C15.4854 8.60938 17.4365 9.76953 18.9482 10.6748C18.7549 10.8418 18.6055 10.9209 18.4033 10.9209C18.1045 10.9209 17.665 10.7539 17.1904 10.4639C13.7188 8.54785 11.5742 6.85156 8.79688 6.85156C5.58008 6.85156 3.24219 8.52148 2.13477 11.7383C0.992188 11.958 0.245117 12.7051 0.245117 13.8389C0.245117 15.2188 1.34375 15.9658 2.55664 16.0098C3.41797 17.416 5.73828 18.6025 8.67383 18.3652L9.40332 18.998C9.15723 19.1035 8.91113 19.1387 8.64746 19.1387C7.9707 19.1299 7.43457 18.9541 6.75781 18.9541C5.49219 18.9541 4.62207 19.7012 4.62207 20.8262C4.62207 22.3818 6.01074 23.2871 8.10254 23.2871ZM16.7773 20.6416C15.7402 20.6416 14.9404 20.791 14.4922 20.791C14.0879 20.791 13.6924 20.7383 13.2969 20.4043L9.35059 16.915C6.51172 17.0557 4.5166 16.335 3.33008 14.6475C2.45996 14.7354 1.82715 14.4014 1.82715 13.7246C1.82715 13.0742 2.43359 12.6436 3.35645 12.6875C4.26172 9.76953 6.13379 8.4248 8.7793 8.4248C11.6182 8.4248 14.3691 10.6572 16.6631 11.9053C17.3223 12.2656 18.0254 12.3975 18.4912 12.3975C19.5723 12.3975 20.3809 11.7383 20.9521 10.4287L15.1602 6.7373C14.5713 6.37695 13.8242 5.79688 13.8242 5.56836C13.8242 5.06738 14.9229 4.71582 15.7578 4.71582C17.1201 4.71582 18.2275 5.49805 19.2646 6.7373L22.042 10.0332C24.5381 9.94531 26.3486 11.8174 26.3486 14.1992C26.3486 15.6846 25.6719 16.1328 23.835 16.1328C22.71 16.1328 21.4355 15.6934 20.3018 14.999C18.6582 15.4209 16.9443 16.2471 15.6611 17.2754C15.4766 17.293 15.3271 17.3193 15.1953 17.3369L14.5713 15.7725C13.2793 12.5996 11.1436 11.4395 8.91113 11.4395C8.55078 11.4395 8.14648 11.4482 7.75977 11.5361C7.28516 11.6416 7.10059 11.8701 7.10059 12.1865C7.10059 12.582 7.39062 12.8369 7.80371 12.8369C8.16406 12.8281 8.44531 12.7754 8.86719 12.7754C10.8271 12.7754 12.2158 13.8389 13.4375 16.6777L14.3252 18.7607C15.0195 18.6201 15.6963 18.5059 16.8037 18.5059C18.5439 18.5059 20.1348 19.0068 20.1348 20.1143C20.1348 20.5361 19.7656 20.8525 19.0977 20.8525C18.2275 20.8525 17.5859 20.6416 16.7773 20.6416ZM23.2373 13.6543C23.6768 13.6543 24.0459 13.2852 24.0459 12.8457C24.0459 12.3975 23.6768 12.0371 23.2373 12.0371C22.7891 12.0371 22.4287 12.3975 22.4287 12.8457C22.4287 13.2852 22.7891 13.6543 23.2373 13.6543ZM6.09863 20.835C6.09863 20.501 6.32715 20.2373 6.81055 20.2373C7.3291 20.2373 7.87402 20.3867 8.50684 20.3867C9.32422 20.3867 9.94824 20.3076 10.502 19.9473L11.5391 20.8438C10.7568 21.5557 9.52637 21.9424 8.09375 21.9424C6.89844 21.9424 6.09863 21.5205 6.09863 20.835Z" fill="#1C1C1E"/>
</svg>
