<svg width="28" height="28" viewBox="0 0 28 28" fill="none" xmlns="http://www.w3.org/2000/svg">
<path d="M6.46777 21.8633H21.5234C23.4219 21.8633 24.4062 20.8877 24.4062 19.0156V8.31055C24.4062 6.43848 23.4219 5.46289 21.5234 5.46289H6.46777C4.56934 5.46289 3.58496 6.42969 3.58496 8.31055V19.0156C3.58496 20.8877 4.56934 21.8633 6.46777 21.8633ZM11.8291 9.69043C12.8223 9.69043 13.5605 10.2529 13.9912 11.0352C14.4307 10.2529 15.1777 9.69043 16.1621 9.69043C17.665 9.69043 18.7812 10.833 18.7812 12.459C18.7812 14.9375 16.0742 17.082 14.4746 18.1191C14.3252 18.2158 14.1406 18.3389 14.0088 18.3389C13.8857 18.3389 13.6748 18.2158 13.5166 18.1191C11.9082 17.1084 9.20996 14.9375 9.20996 12.459C9.20996 10.833 10.3262 9.69043 11.8291 9.69043Z" fill="#1C1C1E"/>
</svg>
