<svg width="28" height="28" viewBox="0 0 28 28" fill="none" xmlns="http://www.w3.org/2000/svg">
<path d="M8.67383 21.8721H19.3174C21.2158 21.8721 22.2002 20.8877 22.2002 19.0156V8.31934C22.2002 6.43848 21.2158 5.46289 19.3174 5.46289H8.67383C6.77539 5.46289 5.79102 6.43848 5.79102 8.31934V19.0156C5.79102 20.8965 6.77539 21.8721 8.67383 21.8721ZM11.8555 9.68164C12.8398 9.68164 13.5781 10.2441 14.0176 11.0264C14.4482 10.2441 15.1953 9.68164 16.1797 9.68164C17.6826 9.68164 18.7988 10.8242 18.7988 12.4502C18.7988 14.9287 16.0918 17.0732 14.4922 18.1104C14.3428 18.207 14.1582 18.3213 14.0264 18.3213C13.9033 18.3213 13.6924 18.207 13.5342 18.1104C11.9258 17.0908 9.22754 14.9287 9.22754 12.4502C9.22754 10.8242 10.3438 9.68164 11.8555 9.68164Z" fill="#1C1C1E"/>
</svg>
