<svg width="28" height="28" viewBox="0 0 28 28" fill="none" xmlns="http://www.w3.org/2000/svg">
<path d="M7.46094 18.1982C7.46094 20.7471 9.0166 22.3203 11.5039 22.3203C13.3496 22.3203 14.7207 21.4766 15.5908 19.8857L16.373 18.4707C18.1045 15.2891 21.2158 14.6826 21.2158 10.3057C21.2158 6.13086 18.4912 3.33594 14.4131 3.33594C10.2559 3.33594 7.46094 6.14844 7.46094 10.3496V18.1982ZM9.00781 18.1279V10.3496C9.00781 7.0625 11.1699 4.87402 14.4131 4.87402C17.5684 4.87402 19.6689 7.05371 19.6689 10.3057C19.6689 13.9268 16.8213 14.5596 14.9844 17.8203L14.2461 19.0947C13.6309 20.2021 12.7871 20.7471 11.5742 20.7471C9.97461 20.7471 9.00781 19.7627 9.00781 18.1279ZM10.3262 15.6406C10.3262 16.5459 11.0205 17.1611 12.0488 17.1611C13.3936 17.1523 14.3076 16.0537 14.3076 14.6475C14.3076 12.0107 11.7412 11.7383 11.7412 9.92773C11.7412 8.5918 12.8135 7.61621 14.4043 7.61621C16.0391 7.61621 17.1025 8.6709 17.1025 10.2969C17.1025 10.6836 17.4277 11 17.8145 11C18.1924 11 18.5176 10.6836 18.5176 10.2969C18.5176 7.84473 16.874 6.20117 14.4043 6.20117C11.9697 6.20117 10.3262 7.76562 10.3262 9.92773C10.3262 11.8525 12.0576 12.4678 12.0576 13.2939C12.0576 14.2168 10.3262 14.041 10.3262 15.6406Z" fill="#1C1C1E"/>
</svg>
