<svg width="28" height="28" viewBox="0 0 28 28" fill="none" xmlns="http://www.w3.org/2000/svg">
<path d="M6.2832 19.3934L12.4092 22.8212C13.4814 23.4188 14.5098 23.4276 15.582 22.8212L21.7168 19.3934C22.5781 18.9013 23.0264 18.3915 23.0264 17.1171V10.1122C23.0264 8.89051 22.5693 8.38953 21.7695 7.94129L15.6699 4.51356C14.5537 3.88074 13.4199 3.88953 12.3213 4.51356L6.23047 7.94129C5.43066 8.38953 4.97363 8.89051 4.97363 10.1122V17.1171C4.97363 18.3915 5.42188 18.9013 6.2832 19.3934ZM14 5.85828C14.2988 5.85828 14.5977 5.94617 14.9141 6.13074L20.7412 9.41785C21.1543 9.65516 21.3125 9.89246 21.3125 10.3055V16.9677C21.3125 17.4159 21.1543 17.662 20.6973 17.9257L14.9141 21.1864C14.5889 21.3622 14.29 21.4589 14 21.4589V5.85828Z" fill="#1C1C1E"/>
</svg>
