<svg width="28" height="28" viewBox="0 0 28 28" fill="none" xmlns="http://www.w3.org/2000/svg">
<path d="M5.55371 19.4287H9.04297V17.0381C7.4082 16.8711 6.13379 15.5088 6.13379 13.8213C6.13379 12.0107 7.58398 10.5605 9.38574 10.5605C9.48242 10.5605 9.57031 10.5781 9.6582 10.6133C10.4668 8.89941 12.0488 8.35449 14.2285 8.35449H15.5381V5.55957C15.5381 4.04785 14.7295 3.23926 13.2266 3.23926H5.55371C4.04199 3.23926 3.24219 4.04785 3.24219 5.55957V17.1084C3.24219 18.6201 4.04199 19.4287 5.55371 19.4287ZM9.37695 9.11035C8.39258 9.11035 7.59277 8.32812 7.59277 7.32617C7.59277 6.32422 8.39258 5.5332 9.37695 5.54199C10.3701 5.55078 11.1611 6.32422 11.1699 7.32617C11.1787 8.32812 10.3701 9.11035 9.37695 9.11035ZM9.38574 8.13477C9.84277 8.13477 10.1943 7.77441 10.1943 7.32617C10.1943 6.86914 9.83398 6.50879 9.38574 6.50879C8.91992 6.50879 8.56836 6.85156 8.56836 7.32617C8.56836 7.77441 8.91992 8.13477 9.38574 8.13477ZM14.2461 24.0166H20.8379C22.1299 24.0166 23.1582 23.876 23.8877 23.1377C24.6172 22.3994 24.749 21.3887 24.749 20.0879V13.5576C24.749 12.2568 24.6172 11.2461 23.8877 10.5166C23.1494 9.77832 22.1299 9.6377 20.8379 9.6377H14.2285C12.9541 9.6377 11.9346 9.77832 11.1963 10.5166C10.458 11.2461 10.3262 12.2568 10.3262 13.54V20.0879C10.3262 21.3887 10.458 22.3994 11.1963 23.1377C11.9346 23.876 12.9541 24.0166 14.2461 24.0166ZM8.08496 13.8213C8.08496 14.4189 8.48926 14.9287 9.04297 15.0605V13.4082C9.05176 13.083 9.06934 12.8105 9.10449 12.5469C8.51562 12.6611 8.08496 13.1797 8.08496 13.8213ZM14.29 15.2451C14.2725 14.7002 14.7119 14.1729 15.292 14.1377C15.3359 14.6562 14.8789 15.3066 14.29 15.2451ZM18.2715 14.498V15.3594H18.9658V15.9307H18.2715V17.9521C18.2715 18.2861 18.4121 18.418 18.7109 18.418C18.79 18.418 18.9219 18.418 18.957 18.3916V18.998C18.8955 19.0068 18.7109 19.0332 18.5527 19.0332C17.8057 19.0332 17.5156 18.7695 17.5156 18.04V15.9307H17.0059V15.3594H17.5156V14.498H18.2715ZM16.2939 17.75C16.1797 18.1191 15.9336 18.5674 15.6172 18.875C15.5205 18.9629 15.3799 19.0332 15.1953 19.0332C15.0371 19.0332 14.9316 18.9717 14.7822 18.9189C14.6943 18.8926 14.5625 18.8311 14.4043 18.8311C14.0527 18.8311 13.8857 19.042 13.5957 19.042C13.3936 19.042 13.2354 18.9189 13.0068 18.6729C12.5938 18.2158 12.3213 17.4775 12.3213 16.8447C12.3213 16.458 12.418 16.0889 12.6641 15.7812C12.8662 15.5264 13.1826 15.3682 13.5605 15.3682C13.9121 15.3682 14.1318 15.5879 14.3164 15.5879C14.5361 15.5879 14.791 15.3594 15.2393 15.3594C15.626 15.3594 15.96 15.5176 16.1709 15.834C15.8896 15.9922 15.7842 16.1943 15.7314 16.3613C15.6348 16.6074 15.6172 16.8975 15.7314 17.1875C15.8369 17.4512 16.0127 17.627 16.2939 17.75ZM21.4355 18.998H20.6445L19.3174 15.3594H20.0996L21.0488 18.2861L21.9365 15.3594H22.7539L21.4355 18.998Z" fill="#1C1C1E"/>
</svg>
