<svg width="28" height="28" viewBox="0 0 28 28" fill="none" xmlns="http://www.w3.org/2000/svg">
<path d="M5.87012 18.7871H7.02148C7.28516 18.7871 7.39062 18.7344 7.58398 18.585L8.17285 18.1368C8.49805 18.462 8.98145 18.5323 9.46484 18.3213L12.374 17.1084C12.5938 17.0205 12.708 16.9327 12.8486 16.792L21.3389 8.36332C22.1826 7.51957 22.1826 6.50883 21.3301 5.6475L19.4229 3.73148C18.5703 2.87894 17.5596 2.87016 16.7158 3.71391L8.22559 12.1338C8.07617 12.2832 7.99707 12.3887 7.90039 12.6172L6.66992 15.5176C6.46777 15.9834 6.52051 16.4405 6.8457 16.8008L5.58008 18.1104C5.30762 18.4004 5.43945 18.7871 5.87012 18.7871ZM17.6914 4.87406C17.9199 4.65434 18.1924 4.64555 18.4033 4.86527L20.1963 6.66703C20.416 6.88676 20.4072 7.15043 20.1699 7.37894L19.5986 7.95023L17.1113 5.45414L17.6914 4.87406ZM9.78125 12.7403L16.1621 6.40336L18.6406 8.89945L12.2686 15.2364L9.78125 12.7403ZM9.28906 16.7657C9.12207 16.8272 9.00781 16.8272 8.8584 16.6778L8.30469 16.1329C8.16406 15.9922 8.16406 15.8604 8.22559 15.711L9.0166 13.8741L11.126 16.001L9.28906 16.7657ZM5.57129 21.9073H22.4375C22.8594 21.9073 23.2021 21.5469 23.2021 21.125C23.2021 20.7032 22.8594 20.3516 22.4375 20.3516H5.57129C5.14062 20.3516 4.79785 20.7032 4.79785 21.125C4.79785 21.5469 5.14941 21.9073 5.57129 21.9073Z" fill="#1C1C1E"/>
</svg>
