<svg width="28" height="28" viewBox="0 0 28 28" fill="none" xmlns="http://www.w3.org/2000/svg">
<path d="M9.76367 5.19043C11.9082 5.19043 13.5693 4.75098 13.5693 4.16211C13.5693 3.56445 11.917 3.125 9.76367 3.125C7.59277 3.125 5.94043 3.56445 5.94043 4.16211C5.94043 4.75098 7.60156 5.19043 9.76367 5.19043ZM3.97168 5.24316C3.40039 6.02539 3.16309 7.08887 3.16309 8.4248V14.6123C3.16309 18.0752 5.01758 19.6924 9.06055 19.8506C9.03418 19.5693 9.02539 19.2793 9.02539 18.9805V10.9648C9.02539 8.89062 9.54395 7.34375 10.6338 6.25391C10.3438 6.28027 10.0537 6.28906 9.75488 6.28906C7.75977 6.28906 5.82617 5.73535 4.8418 5.10254C4.52539 4.90918 4.16504 4.9707 3.97168 5.24316ZM17.5859 7.83594C19.9502 7.83594 21.7783 7.34375 21.7783 6.70215C21.7783 6.03418 19.9502 5.55957 17.5859 5.55957C15.1953 5.55957 13.3672 6.03418 13.3672 6.70215C13.3672 7.34375 15.1953 7.83594 17.5859 7.83594ZM17.5771 24.0166C22.5693 24.0166 24.8369 22.2412 24.8369 18.2246V11.4043C24.8369 9.91895 24.5732 8.75879 23.9492 7.88867C23.7383 7.58105 23.3428 7.51953 22.9912 7.73926C21.9277 8.46875 19.7744 9.04004 17.5771 9.04004C15.3711 9.04004 13.2266 8.46875 12.1543 7.73926C11.8027 7.51953 11.4072 7.58105 11.2051 7.88867C10.5811 8.75879 10.3086 9.91895 10.3086 11.4043V18.2246C10.3086 22.2412 12.585 24.0166 17.5771 24.0166Z" fill="#1C1C1E"/>
</svg>
