<svg width="28" height="28" viewBox="0 0 28 28" fill="none" xmlns="http://www.w3.org/2000/svg">
<path d="M9.79004 5.31348C11.9258 5.31348 13.5166 4.88281 13.5166 4.28516C13.5166 3.67871 11.9258 3.25684 9.79004 3.25684C7.66309 3.25684 6.07227 3.67871 6.07227 4.28516C6.07227 4.88281 7.66309 5.31348 9.79004 5.31348ZM3.21582 14.7178C3.21582 18.1191 5.01758 19.7627 9.06934 19.9385L9.06055 18.374C5.94043 18.2158 4.77148 16.9854 4.77148 14.5947V8.61816C4.77148 8.02051 4.87695 7.47559 5.12305 7.00098C6.05469 7.63379 7.70703 7.97656 9.79004 7.97656C11.8643 7.97656 13.5166 7.63379 14.457 7.00098C14.6152 7.23828 14.6855 7.49316 14.7031 7.77441C14.7383 7.96777 14.7559 8.16113 14.7734 8.36328C15.2305 8.35449 15.6611 8.35449 16.3467 8.35449C16.3379 8.13477 16.3203 7.89746 16.3027 7.71289C16.2236 6.71973 15.9072 5.90234 15.4678 5.33984C15.2656 5.0498 14.8965 5.00586 14.5713 5.22559C13.7188 5.88477 11.7852 6.40332 9.79004 6.40332C7.79492 6.40332 5.86133 5.88477 5 5.22559C4.68359 5.00586 4.31445 5.0498 4.10352 5.33984C3.5498 6.07812 3.21582 7.1416 3.21582 8.54785V14.7178ZM14.2637 24.0166H20.8555C22.1475 24.0166 23.1758 23.8672 23.9053 23.1377C24.6436 22.3994 24.7754 21.3887 24.7754 20.0967V13.5488C24.7754 12.2568 24.6436 11.2373 23.9053 10.5078C23.167 9.77832 22.1475 9.6377 20.8555 9.6377H14.2461C12.9805 9.6377 11.9521 9.77832 11.2139 10.5078C10.4844 11.2461 10.3525 12.2568 10.3525 13.5312V20.0967C10.3525 21.3887 10.4844 22.3994 11.2139 23.1377C11.9521 23.8672 12.9717 24.0166 14.2637 24.0166ZM14.3164 15.2363C14.29 14.6914 14.7383 14.1729 15.3184 14.1289C15.3623 14.6562 14.9053 15.2979 14.3164 15.2363ZM18.2891 14.4893V15.3594H18.9922V15.9307H18.2891V17.9521C18.2891 18.2861 18.4385 18.4092 18.7373 18.4092C18.8076 18.4092 18.9482 18.4092 18.9834 18.3916V18.998C18.9131 19.0068 18.7373 19.0332 18.5791 19.0332C17.832 19.0332 17.542 18.7695 17.542 18.04V15.9307H17.0322V15.3594H17.542V14.4893H18.2891ZM16.3115 17.75C16.2061 18.1191 15.96 18.5674 15.6436 18.875C15.5381 18.9629 15.4062 19.0332 15.2217 19.0332C15.0547 19.0332 14.958 18.9629 14.8086 18.9189C14.7119 18.8926 14.5889 18.8223 14.4307 18.8223C14.0703 18.8223 13.9121 19.042 13.6133 19.042C13.4111 19.042 13.2529 18.9189 13.0332 18.6729C12.6113 18.2158 12.3389 17.4775 12.3389 16.8447C12.3389 16.458 12.4355 16.0889 12.6816 15.7812C12.8838 15.5176 13.209 15.3682 13.5869 15.3682C13.9385 15.3682 14.1494 15.5879 14.3428 15.5879C14.5537 15.5879 14.8086 15.3594 15.2656 15.3594C15.6523 15.3594 15.9863 15.5176 16.1973 15.834C15.916 15.9922 15.8105 16.1943 15.749 16.3613C15.6611 16.6074 15.6436 16.8887 15.749 17.1875C15.8545 17.4424 16.0303 17.627 16.3115 17.75ZM21.4619 18.998H20.6709L19.335 15.3594H20.126L21.0664 18.2861L21.9629 15.3594H22.7715L21.4619 18.998Z" fill="#1C1C1E"/>
</svg>
