<svg width="28" height="28" viewBox="0 0 28 28" fill="none" xmlns="http://www.w3.org/2000/svg">
<path d="M14 22.7334C18.9658 22.7334 23.0791 18.6289 23.0791 13.6543C23.0791 8.68848 18.9658 4.5752 13.9912 4.5752C9.02539 4.5752 4.9209 8.68848 4.9209 13.6543C4.9209 18.6289 9.03418 22.7334 14 22.7334ZM14 20.9492C9.95703 20.9492 6.71387 17.6973 6.71387 13.6543C6.71387 9.61133 9.94824 6.36816 13.9912 6.36816C18.0342 6.36816 21.2861 9.61133 21.2949 13.6543C21.2949 17.6973 18.043 20.9492 14 20.9492ZM11.7061 18.708H16.3027C16.8828 18.708 17.2344 18.3652 17.2344 17.7588V17.6533C17.2344 16.3174 15.8369 14.9199 15.1074 14.1992C14.7383 13.8301 14.7646 13.4346 15.1074 13.0918C15.8369 12.3799 17.2344 10.9824 17.2344 9.6377V9.54102C17.2344 8.93457 16.8828 8.60059 16.3027 8.60059H11.7061C11.1172 8.60059 10.7656 8.93457 10.7656 9.54102V9.6377C10.7656 10.9824 12.1631 12.3799 12.8926 13.0918C13.2354 13.4346 13.2617 13.8301 12.8926 14.1992C12.1631 14.9199 10.7656 16.3174 10.7656 17.6533V17.7588C10.7656 18.3652 11.1172 18.708 11.7061 18.708ZM12.1543 17.8818C11.9082 17.8818 11.8467 17.5918 12.0137 17.4336L13.5869 15.8252C13.666 15.7461 13.6924 15.7109 13.6924 15.5967V13.2764C13.6924 13.0127 13.6396 12.8809 13.4551 12.7051C13.0947 12.3535 12.6992 11.9668 12.3828 11.6152C12.2246 11.457 12.3037 11.2637 12.4971 11.2637H15.5029C15.6963 11.2637 15.7754 11.457 15.626 11.6152C15.3008 11.9668 14.9053 12.3535 14.5449 12.7051C14.3604 12.8809 14.3076 13.0127 14.3076 13.2764V15.5967C14.3076 15.7109 14.334 15.7461 14.4131 15.8252L15.9863 17.4336C16.1533 17.5918 16.0918 17.8818 15.8457 17.8818H12.1543Z" fill="#1C1C1E"/>
</svg>
