<svg width="28" height="28" viewBox="0 0 28 28" fill="none" xmlns="http://www.w3.org/2000/svg">
<path d="M13.9912 22.7422C18.9746 22.7422 23.0879 18.6289 23.0879 13.6543C23.0879 8.67969 18.9658 4.56641 13.9824 4.56641C9.00781 4.56641 4.90332 8.67969 4.90332 13.6543C4.90332 18.6289 9.0166 22.7422 13.9912 22.7422ZM8.31348 12.9775C8.31348 12.8369 8.375 12.6963 8.49805 12.5908L13.2969 8.57422C13.7188 8.21387 14.2812 8.21387 14.7031 8.57422L16.8564 10.376V9.59375C16.8564 9.38281 17.0059 9.25098 17.208 9.25098H17.8232C18.0342 9.25098 18.166 9.38281 18.166 9.59375V11.4834L19.4932 12.5908C19.6074 12.6963 19.6689 12.8281 19.6689 12.9863C19.6689 13.2588 19.458 13.4434 19.1855 13.4434C19.0361 13.4434 18.9131 13.3555 18.7812 13.2588L14.2285 9.43555C14.0791 9.3125 13.9209 9.30371 13.7627 9.43555L9.20117 13.2588C9.08691 13.3555 8.95508 13.4434 8.80566 13.4434C8.49805 13.4434 8.31348 13.2236 8.31348 12.9775ZM9.83398 17.1436V13.6104L13.7012 10.3584C13.8857 10.209 14.0967 10.2002 14.2812 10.3584L18.1572 13.6104V17.1436C18.1572 17.8027 17.7354 18.207 17.0498 18.207H10.9326C10.2471 18.207 9.83398 17.8027 9.83398 17.1436ZM12.7783 17.2402H15.2041V14.3574C15.2041 14.1377 15.0811 13.9971 14.8438 13.9971H13.1387C12.9189 13.9971 12.7783 14.1377 12.7783 14.3574V17.2402Z" fill="#1C1C1E"/>
</svg>
