<svg width="28" height="28" viewBox="0 0 28 28" fill="none" xmlns="http://www.w3.org/2000/svg">
<path d="M8.67383 21.8809H19.3174C21.2246 21.8809 22.209 20.8965 22.209 19.0156V8.31934C22.209 6.43848 21.2246 5.4541 19.3174 5.4541H8.67383C6.77539 5.4541 5.78223 6.42969 5.78223 8.31934V19.0156C5.78223 20.8965 6.77539 21.8809 8.67383 21.8809ZM8.78809 20.1318C7.97949 20.1318 7.53125 19.71 7.53125 18.8574V8.47754C7.53125 7.625 7.97949 7.20312 8.78809 7.20312H19.2031C20.0029 7.20312 20.46 7.625 20.46 8.47754V18.8574C20.46 19.71 20.0029 20.1318 19.2031 20.1318H8.78809ZM10.6074 12.7842C10.6074 13.0039 10.7832 13.1885 11.0205 13.1885H16.9971C17.2344 13.1885 17.4102 13.0039 17.4102 12.7842C17.4102 12.5381 17.2344 12.3623 16.9971 12.3623H16.4346C16.5928 12.125 16.6631 11.8262 16.6631 11.5801C16.6631 10.2529 15.4678 9.45312 13.9736 9.45312C12.998 9.45312 12.084 9.80469 11.627 10.6045C11.5039 10.7891 11.4424 10.9824 11.4424 11.1934C11.4336 11.5273 11.6621 11.7734 12.0312 11.7734C12.2861 11.7734 12.4619 11.6855 12.6201 11.4043C12.8662 10.8857 13.3936 10.6221 13.9912 10.6221C14.7295 10.6221 15.3447 10.9736 15.3447 11.6592C15.3447 11.9053 15.2217 12.1953 14.958 12.3623H11.0205C10.7744 12.3623 10.6074 12.5381 10.6074 12.7842ZM17.3926 14.4365C17.3926 14.2168 17.2168 14.0322 16.9795 14.0322H11.0029C10.7656 14.0322 10.5898 14.2168 10.5898 14.4365C10.5898 14.6826 10.7656 14.8584 11.0029 14.8584H11.5654C11.4072 15.0957 11.3369 15.3945 11.3369 15.6406C11.3369 16.9678 12.5322 17.7676 14.0264 17.7676C15.0107 17.7676 15.9248 17.416 16.3818 16.6162C16.4961 16.4316 16.5576 16.2383 16.5664 16.0273C16.5664 15.6934 16.3379 15.4473 15.9688 15.4473C15.7139 15.4473 15.5381 15.5352 15.3799 15.8164C15.1426 16.335 14.6064 16.5986 14.0088 16.5986C13.2705 16.5986 12.6553 16.2471 12.6553 15.5615C12.6553 15.3154 12.7871 15.0254 13.042 14.8584H16.9795C17.2256 14.8584 17.3926 14.6826 17.3926 14.4365Z" fill="#1C1C1E"/>
</svg>
