<svg width="28" height="28" viewBox="0 0 28 28" fill="none" xmlns="http://www.w3.org/2000/svg">
<path d="M8.67383 21.8809H19.3174C21.2246 21.8809 22.209 20.8965 22.209 19.0156V8.31934C22.209 6.43848 21.2246 5.4541 19.3174 5.4541H8.67383C6.77539 5.4541 5.78223 6.42969 5.78223 8.31934V19.0156C5.78223 20.8965 6.77539 21.8809 8.67383 21.8809ZM10.4932 12.749C10.4932 12.4941 10.6602 12.3096 10.915 12.3096H15.0107C15.2832 12.1338 15.4062 11.835 15.4062 11.5801C15.4062 10.877 14.7734 10.5078 14.0088 10.5078C13.3936 10.5078 12.8486 10.7803 12.5938 11.3164C12.4268 11.6064 12.2422 11.7031 11.9785 11.7031C11.5918 11.7031 11.3457 11.4395 11.3545 11.0879C11.3633 10.8682 11.4248 10.666 11.5479 10.4814C12.0225 9.64648 12.9805 9.27734 13.9912 9.27734C15.5469 9.27734 16.8037 10.1123 16.8037 11.501C16.8037 11.7559 16.7158 12.0635 16.5576 12.3096H17.1465C17.3926 12.3096 17.5684 12.4941 17.5684 12.749C17.5684 12.9863 17.3926 13.1709 17.1465 13.1709H10.915C10.6689 13.1709 10.4932 12.9863 10.4932 12.749ZM17.5508 14.4717C17.5508 14.7266 17.375 14.9023 17.1289 14.9023H13.0332C12.7607 15.0781 12.6289 15.377 12.6289 15.6406C12.6289 16.3438 13.2705 16.7041 14.0352 16.7041C14.6504 16.7041 15.2041 16.4404 15.4502 15.9043C15.6084 15.6143 15.8018 15.5088 16.0654 15.5088C16.4434 15.5088 16.6982 15.7725 16.6895 16.124C16.6807 16.3438 16.6191 16.5459 16.4961 16.7393C16.0215 17.5654 15.0635 17.9346 14.0527 17.9346C12.4971 17.9346 11.2402 17.0996 11.2402 15.7197C11.2402 15.4561 11.3281 15.1572 11.4863 14.9023H10.8975C10.6514 14.9023 10.4668 14.7266 10.4668 14.4717C10.4668 14.2344 10.6514 14.041 10.8975 14.041H17.1289C17.375 14.041 17.5508 14.2344 17.5508 14.4717Z" fill="#1C1C1E"/>
</svg>
