<svg width="28" height="28" viewBox="0 0 28 28" fill="none" xmlns="http://www.w3.org/2000/svg">
<path d="M13.9912 22.7422C18.9746 22.7422 23.0879 18.6289 23.0879 13.6543C23.0879 8.67969 18.9658 4.56641 13.9824 4.56641C9.00781 4.56641 4.90332 8.67969 4.90332 13.6543C4.90332 18.6289 9.0166 22.7422 13.9912 22.7422ZM10.458 12.749C10.458 12.4941 10.625 12.3096 10.8799 12.3096H14.9756C15.248 12.1338 15.3711 11.835 15.3711 11.5801C15.3711 10.877 14.7383 10.5078 13.9736 10.5078C13.3584 10.5078 12.8135 10.7803 12.5586 11.3164C12.3916 11.6064 12.207 11.7031 11.9434 11.7031C11.5566 11.7031 11.3105 11.4395 11.3193 11.0879C11.3281 10.8682 11.3896 10.666 11.5127 10.4814C11.9873 9.64648 12.9365 9.27734 13.9561 9.27734C15.5117 9.27734 16.7686 10.1123 16.7686 11.501C16.7686 11.7559 16.6807 12.0635 16.5225 12.3096H17.1113C17.3574 12.3096 17.5332 12.4941 17.5332 12.749C17.5332 12.9863 17.3574 13.1709 17.1113 13.1709H10.8799C10.6338 13.1709 10.458 12.9863 10.458 12.749ZM17.5156 14.4717C17.5156 14.7266 17.3398 14.9023 17.0938 14.9023H12.998C12.7256 15.0781 12.5938 15.377 12.5938 15.6406C12.5938 16.3438 13.2354 16.7041 14 16.7041C14.6152 16.7041 15.1689 16.4404 15.415 15.9043C15.5732 15.6143 15.7666 15.5088 16.0303 15.5088C16.4082 15.5088 16.6631 15.7725 16.6543 16.124C16.6455 16.3438 16.584 16.5459 16.4609 16.7393C15.9863 17.5654 15.0283 17.9346 14.0176 17.9346C12.4619 17.9346 11.2051 17.0996 11.2051 15.7197C11.2051 15.4561 11.293 15.1572 11.4424 14.9023H10.8623C10.6162 14.9023 10.4316 14.7266 10.4316 14.4717C10.4316 14.2344 10.6162 14.041 10.8623 14.041H17.0938C17.3398 14.041 17.5156 14.2344 17.5156 14.4717Z" fill="#1C1C1E"/>
</svg>
