<svg width="28" height="28" viewBox="0 0 28 28" fill="none" xmlns="http://www.w3.org/2000/svg">
<path d="M9.02539 23.2695C14.3691 23.2695 18.6318 19.5078 18.6318 13.8301C18.6318 11.29 16.5312 9.19824 14 9.19824C13.1826 9.19824 12.4092 9.41797 11.7412 9.7959C13.1299 7.34375 15.8281 5.91992 18.9746 5.91992C19.4229 5.91992 19.748 5.57715 19.748 5.15527C19.748 4.7334 19.4229 4.39941 18.9746 4.39941C13.6309 4.39941 9.37695 8.16113 9.37695 13.8301C9.37695 16.3701 11.4688 18.4707 14 18.4707C14.8174 18.4707 15.5908 18.251 16.2588 17.873C14.8701 20.3164 12.1719 21.749 9.02539 21.749C8.57715 21.749 8.25195 22.083 8.25195 22.5049C8.25195 22.9268 8.57715 23.2695 9.02539 23.2695ZM13.9912 15.1221C13.2881 15.1221 12.708 14.542 12.708 13.8301C12.708 13.127 13.2881 12.5469 13.9912 12.5469C14.7031 12.5469 15.2832 13.127 15.2832 13.8301C15.2832 14.5332 14.7031 15.1221 13.9912 15.1221Z" fill="#1C1C1E"/>
</svg>
