<svg width="28" height="28" viewBox="0 0 28 28" fill="none" xmlns="http://www.w3.org/2000/svg">
<path d="M8.67383 21.8721H19.3174C21.2158 21.8721 22.2002 20.8877 22.2002 19.0156V8.31934C22.2002 6.43848 21.2158 5.46289 19.3174 5.46289H8.67383C6.77539 5.46289 5.79102 6.43848 5.79102 8.31934V19.0156C5.79102 20.8965 6.77539 21.8721 8.67383 21.8721ZM8.7793 20.1494C7.96191 20.1494 7.51367 19.7188 7.51367 18.8662V8.45996C7.51367 7.60742 7.96191 7.18555 8.7793 7.18555H19.2119C20.0205 7.18555 20.4775 7.60742 20.4775 8.45996V18.8662C20.4775 19.7188 20.0205 20.1494 19.2119 20.1494H8.7793ZM10.9062 16.8359H17.4629C18.5 16.8359 19.3086 16.0098 19.3086 14.9814C19.3086 14.1113 18.7285 13.4082 17.9727 13.2061C17.9727 13.1006 17.9727 12.9863 17.9639 12.8896C17.9287 11.1758 16.5488 9.7959 14.7734 9.7959C13.7275 9.7959 12.7959 10.2881 12.2158 11.0703C12.0752 11.0439 11.917 11.0352 11.7852 11.0527C10.9414 11.0879 10.2295 11.7119 10.0977 12.5645C9.28906 12.8984 8.7002 13.6807 8.7002 14.6562C8.7002 16.0537 9.64941 16.8359 10.9062 16.8359Z" fill="#1C1C1E"/>
</svg>
