<svg width="28" height="28" viewBox="0 0 28 28" fill="none" xmlns="http://www.w3.org/2000/svg">
<path d="M21.5674 20.4658C23.7207 19.9736 25.2324 18.2334 25.2324 16.1328C25.2324 14.2607 24.1689 12.5996 22.4199 11.8701C22.4287 7.89746 19.5635 5.03223 15.8809 5.03223C13.543 5.03223 11.7852 6.23633 10.6865 7.83594C10.124 7.67773 9.50879 7.67773 8.9375 7.83594L21.5674 20.4658ZM20.3369 22.7773C20.6182 23.0498 21.0576 23.0498 21.3301 22.7773C21.5938 22.5049 21.6025 22.0566 21.3301 21.7842L6.52051 6.9834C6.23926 6.70215 5.78223 6.71973 5.51855 6.9834C5.25488 7.24707 5.26367 7.71289 5.51855 7.96777L20.3369 22.7773ZM8.18164 20.6592H16.6631L6.24805 10.2705C6.11621 10.6045 6.03711 10.9736 6.01953 11.3779C4.00684 11.7383 2.76758 13.54 2.76758 15.7461C2.76758 18.418 5.10547 20.6592 8.18164 20.6592Z" fill="#1C1C1E"/>
</svg>
