<svg width="28" height="28" viewBox="0 0 28 28" fill="none" xmlns="http://www.w3.org/2000/svg">
<path d="M12.3916 7.48438H23.7294C24.1777 7.48438 24.538 7.11523 24.538 6.67578C24.538 6.21875 24.1777 5.86719 23.7294 5.86719H12.3916C11.9433 5.86719 11.5918 6.22754 11.5918 6.67578C11.5918 7.11523 11.9433 7.48438 12.3916 7.48438ZM12.3916 12.0898H23.7294C24.1777 12.0898 24.538 11.7207 24.538 11.2812C24.538 10.8242 24.1777 10.4727 23.7294 10.4727H12.3916C11.9433 10.4727 11.5918 10.833 11.5918 11.2812C11.5918 11.7207 11.9433 12.0898 12.3916 12.0898ZM4.9648 16.4668L8.02339 14.4189C8.5771 14.0498 8.55074 13.2764 8.02339 12.9072L4.9648 10.8242C4.26167 10.3408 3.5146 10.6045 3.52339 11.457V15.8428C3.5146 16.6689 4.28804 16.915 4.9648 16.4668ZM12.3916 16.6953H23.7294C24.1777 16.6953 24.538 16.3262 24.538 15.8867C24.538 15.4385 24.1777 15.0781 23.7294 15.0781H12.3916C11.9433 15.0781 11.5918 15.4385 11.5918 15.8867C11.5918 16.3262 11.9433 16.6953 12.3916 16.6953ZM12.3916 21.3008H19.0361C19.4843 21.3008 19.8447 20.9316 19.8447 20.4922C19.8447 20.0439 19.4843 19.6836 19.0361 19.6836H12.3916C11.9433 19.6836 11.5918 20.0439 11.5918 20.4922C11.5918 20.9316 11.9433 21.3008 12.3916 21.3008Z" fill="#1C1C1E"/>
</svg>
