<svg width="28" height="28" viewBox="0 0 28 28" fill="none" xmlns="http://www.w3.org/2000/svg">
<path d="M5.50977 21.9248C5.95801 21.9248 6.31836 21.5645 6.31836 21.1162V6.14844C6.31836 5.7002 5.95801 5.34863 5.50977 5.34863C5.07031 5.34863 4.70117 5.7002 4.70117 6.14844V21.1162C4.70117 21.5645 5.07031 21.9248 5.50977 21.9248ZM9.93945 21.9248C10.3877 21.9248 10.748 21.5645 10.748 21.1162V6.14844C10.748 5.7002 10.3877 5.34863 9.93945 5.34863C9.5 5.34863 9.13086 5.7002 9.13086 6.14844V21.1162C9.13086 21.5645 9.5 21.9248 9.93945 21.9248ZM14.3691 21.9248C14.8174 21.9248 15.1777 21.5645 15.1777 21.1162V6.14844C15.1777 5.7002 14.8086 5.34863 14.3691 5.34863C13.9297 5.34863 13.5605 5.7002 13.5605 6.14844V21.1162C13.5605 21.5645 13.9209 21.9248 14.3691 21.9248ZM19.8096 16.4668L22.8594 14.4189C23.4131 14.0498 23.3867 13.2764 22.8594 12.9072L19.8096 10.8242C19.0977 10.3408 18.3506 10.6045 18.3594 11.457V15.8428C18.3506 16.6689 19.1328 16.915 19.8096 16.4668Z" fill="#1C1C1E"/>
</svg>
