<svg width="28" height="28" viewBox="0 0 28 28" fill="none" xmlns="http://www.w3.org/2000/svg">
<path d="M8.67383 21.8809H19.3174C21.2246 21.8809 22.209 20.8965 22.209 19.0156V8.31934C22.209 6.43848 21.2246 5.4541 19.3174 5.4541H8.67383C6.77539 5.4541 5.78223 6.42969 5.78223 8.31934V19.0156C5.78223 20.8965 6.77539 21.8809 8.67383 21.8809ZM14.9492 18.1719C14.7295 18.1719 14.5537 18.0928 14.3252 17.873L11.2754 14.9814C11.0469 14.7529 10.8975 14.5947 10.8975 14.2607C10.8975 13.8213 11.2139 13.5752 11.6357 13.5752H12.875C13.7539 13.5752 14.3076 13.25 14.4658 12.6172H11.3633C11.126 12.6172 10.9414 12.4238 10.9414 12.1865C10.9414 11.9316 11.126 11.7559 11.3633 11.7559H14.4395C14.2812 11.1494 13.7539 10.8066 12.9717 10.8066H11.4424C11.1084 10.8066 10.8447 10.5342 10.8447 10.209C10.8447 9.86621 11.1084 9.61133 11.4424 9.61133H13.7979C14.1582 9.61133 14.5098 9.6377 14.835 9.69922H16.7422C16.9883 9.69922 17.1641 9.875 17.1641 10.1299C17.1641 10.3672 16.9883 10.5605 16.7422 10.5605H15.4326C15.7051 10.8857 15.8633 11.29 15.9248 11.7559H16.7773C17.0322 11.7559 17.1992 11.9316 17.1992 12.1865C17.1992 12.4238 17.0322 12.6172 16.7773 12.6172H15.9072C15.7314 13.7158 14.8877 14.6914 13.1914 14.7441L12.9717 14.7529L15.3447 16.9766C15.5117 17.1348 15.626 17.3193 15.626 17.5215C15.626 17.9082 15.3008 18.1719 14.9492 18.1719Z" fill="#1C1C1E"/>
</svg>
