<svg width="28" height="28" viewBox="0 0 28 28" fill="none" xmlns="http://www.w3.org/2000/svg">
<path d="M8.67383 21.8809H19.3174C21.2246 21.8809 22.209 20.8965 22.209 19.0156V8.31934C22.209 6.43848 21.2246 5.4541 19.3174 5.4541H8.67383C6.77539 5.4541 5.78223 6.42969 5.78223 8.31934V19.0156C5.78223 20.8965 6.77539 21.8809 8.67383 21.8809ZM8.78809 20.1318C7.97949 20.1318 7.53125 19.71 7.53125 18.8574V8.47754C7.53125 7.625 7.97949 7.20312 8.78809 7.20312H19.2031C20.0029 7.20312 20.46 7.625 20.46 8.47754V18.8574C20.46 19.71 20.0029 20.1318 19.2031 20.1318H8.78809ZM14.8965 17.9961C15.2305 17.9961 15.5381 17.7412 15.5381 17.3809C15.5381 17.1787 15.4326 17.0029 15.2832 16.8535L12.9805 14.7002H13.1914C14.8262 14.6475 15.6436 13.707 15.8193 12.6523H16.6455C16.8828 12.6523 17.0498 12.4678 17.0498 12.2393C17.0498 11.9932 16.8828 11.8262 16.6455 11.8262H15.8281C15.7666 11.3779 15.6172 10.9912 15.3447 10.6748H16.6104C16.8477 10.6748 17.0234 10.4902 17.0234 10.2617C17.0234 10.0156 16.8477 9.84863 16.6104 9.84863H14.7822C14.4746 9.7959 14.1406 9.76074 13.7891 9.76074H11.5215C11.1963 9.76074 10.9502 10.0068 10.9502 10.332C10.9502 10.6484 11.1963 10.9033 11.5215 10.9033H12.998C13.7539 10.9033 14.2637 11.2461 14.4219 11.8262H11.4512C11.2139 11.8262 11.0381 11.9932 11.0381 12.2393C11.0381 12.4678 11.2139 12.6523 11.4512 12.6523H14.4307C14.2812 13.2676 13.7539 13.584 12.9014 13.584H11.6973C11.3018 13.584 11.0029 13.8213 11.0029 14.2344C11.0029 14.5508 11.1436 14.7002 11.3721 14.9199L14.3164 17.7061C14.5273 17.917 14.6943 17.9961 14.8965 17.9961Z" fill="#1C1C1E"/>
</svg>
