<svg width="28" height="28" viewBox="0 0 28 28" fill="none" xmlns="http://www.w3.org/2000/svg">
<path d="M13.9912 22.7422C18.9746 22.7422 23.0879 18.6289 23.0879 13.6543C23.0879 8.67969 18.9658 4.56641 13.9824 4.56641C9.00781 4.56641 4.90332 8.67969 4.90332 13.6543C4.90332 18.6289 9.0166 22.7422 13.9912 22.7422ZM13.9912 20.9316C9.95703 20.9316 6.73145 17.6885 6.73145 13.6543C6.73145 9.62012 9.95703 6.38574 13.9824 6.38574C18.0166 6.38574 21.2598 9.62012 21.2686 13.6543C21.2773 17.6885 18.0254 20.9316 13.9912 20.9316ZM14.8877 18.0049C15.2217 18.0049 15.5293 17.75 15.5293 17.3809C15.5293 17.1875 15.4238 17.0117 15.2656 16.8623L12.9717 14.709H13.1738C14.8174 14.6562 15.626 13.7158 15.8018 12.6611H16.6279C16.8652 12.6611 17.041 12.4766 17.041 12.248C17.041 12.002 16.8652 11.8262 16.6279 11.8262H15.8105C15.749 11.3867 15.5996 11 15.3359 10.6836H16.5928C16.8389 10.6836 17.0059 10.499 17.0059 10.2705C17.0059 10.0244 16.8389 9.85742 16.5928 9.85742H14.7646C14.457 9.7959 14.123 9.76953 13.7715 9.76953H11.5039C11.1875 9.76953 10.9326 10.0156 10.9326 10.3408C10.9326 10.6484 11.1875 10.9121 11.5039 10.9121H12.9893C13.7363 10.9121 14.2461 11.2461 14.4043 11.8262H11.4336C11.2051 11.8262 11.0293 12.002 11.0293 12.248C11.0293 12.4766 11.2051 12.6611 11.4336 12.6611H14.4219C14.2637 13.2764 13.7363 13.584 12.8926 13.584H11.6885C11.2842 13.584 10.9941 13.8213 10.9941 14.2344C10.9941 14.5508 11.126 14.709 11.3545 14.9287L14.2988 17.7148C14.5098 17.9258 14.6768 18.0049 14.8877 18.0049Z" fill="#1C1C1E"/>
</svg>
