<svg width="28" height="28" viewBox="0 0 28 28" fill="none" xmlns="http://www.w3.org/2000/svg">
<path d="M13.9912 22.7422C18.9746 22.7422 23.0879 18.6289 23.0879 13.6543C23.0879 8.67969 18.9658 4.56641 13.9824 4.56641C9.00781 4.56641 4.90332 8.67969 4.90332 13.6543C4.90332 18.6289 9.0166 22.7422 13.9912 22.7422ZM7.77734 13.6543C7.77734 11.8613 8.92871 10.6396 10.6162 10.6396C11.4951 10.6396 12.251 11.0264 13.0596 11.7998L13.9912 12.6963L14.9229 11.7998C15.749 11.0088 16.4961 10.6396 17.3662 10.6396C19.0537 10.6396 20.2051 11.8613 20.2051 13.6543C20.2051 15.4385 19.0537 16.6602 17.3662 16.6602C16.4961 16.6602 15.749 16.2998 14.9229 15.5088L13.9912 14.6123L13.0596 15.5088C12.251 16.2822 11.4951 16.6602 10.6162 16.6602C8.92871 16.6602 7.77734 15.4385 7.77734 13.6543ZM9.16602 13.6543C9.16602 14.6387 9.72852 15.2539 10.6162 15.2539C11.0908 15.2539 11.5303 15.0166 12.0928 14.498L12.9893 13.6543L12.0928 12.8105C11.5127 12.2744 11.082 12.0547 10.6162 12.0547C9.72852 12.0547 9.16602 12.6699 9.16602 13.6543ZM14.9932 13.6543L15.8896 14.498C16.4521 15.0166 16.8916 15.2539 17.3662 15.2539C18.2451 15.2539 18.8164 14.6387 18.8164 13.6543C18.8164 12.6699 18.2451 12.0547 17.3662 12.0547C16.9004 12.0547 16.4609 12.2744 15.8896 12.8105L14.9932 13.6543Z" fill="#1C1C1E"/>
</svg>
