<svg width="28" height="28" viewBox="0 0 28 28" fill="none" xmlns="http://www.w3.org/2000/svg">
<path d="M5.50977 21.8721H17.2344C17.0059 21.5469 16.8477 21.1514 16.7861 20.7031C16.7773 20.5273 16.7686 20.3428 16.7598 20.1494H5.61523C4.79785 20.1494 4.34961 19.7188 4.34961 18.8662V8.45996C4.34961 7.60742 4.79785 7.18555 5.61523 7.18555H20.6182C21.418 7.18555 21.875 7.60742 21.875 8.45996V8.72363C22.4814 8.72363 23.0352 8.72363 23.5977 8.72363V8.31934C23.5977 6.43848 22.6221 5.46289 20.7148 5.46289H5.50977C3.61133 5.46289 2.62695 6.43848 2.62695 8.31934V19.0156C2.62695 20.8965 3.62012 21.8721 5.50977 21.8721ZM19.5283 21.8721H23.6504C24.7314 21.8721 25.3643 21.248 25.3643 20.2021V11.457C25.3643 10.4111 24.7314 9.78711 23.6504 9.78711H19.5283C18.4385 9.78711 17.7881 10.4111 17.7881 11.457V20.2021C17.7881 21.248 18.4385 21.8721 19.5283 21.8721ZM19.6162 20.5537C19.2646 20.5537 19.0801 20.3691 19.0801 20V11.6592C19.0801 11.29 19.2646 11.0967 19.6162 11.0967H19.9502C19.9854 11.0967 20.0029 11.123 20.0029 11.1582V11.2373C20.0029 11.5449 20.2139 11.7559 20.5127 11.7559H22.6396C22.9385 11.7559 23.1582 11.5449 23.1582 11.2373V11.1582C23.1582 11.123 23.1758 11.0967 23.2021 11.0967H23.5361C23.8965 11.0967 24.0811 11.2988 24.0811 11.668V19.9912C24.0811 20.3604 23.8965 20.5537 23.5361 20.5537H19.6162ZM9.71094 19.4463H16.7334V18.585H9.71094C9.45605 18.585 9.28027 18.752 9.28027 19.0156C9.28027 19.2793 9.45605 19.4463 9.71094 19.4463ZM20.3809 20.0879H22.7627C22.9473 20.0879 23.0791 19.9648 23.0791 19.7803C23.0791 19.5957 22.9473 19.4639 22.7627 19.4639H20.3809C20.2051 19.4639 20.0732 19.5957 20.0732 19.7803C20.0732 19.9648 20.1963 20.0879 20.3809 20.0879Z" fill="#1C1C1E"/>
</svg>
