<svg width="28" height="28" viewBox="0 0 28 28" fill="none" xmlns="http://www.w3.org/2000/svg">
<path d="M6.44141 15.6758V21.2305C6.44141 22.7598 7.47852 23.7529 9.05176 23.7529H18.9395C20.5127 23.7529 21.5498 22.7598 21.5498 21.2305V6.06934C21.5498 4.54883 20.5127 3.54688 18.9395 3.54688H9.05176C7.47852 3.54688 6.44141 4.54883 6.44141 6.06934V11.6328H8.16406V6.35059C8.16406 5.66504 8.56836 5.26953 9.28906 5.26953H18.7021C19.4229 5.26953 19.8271 5.66504 19.8271 6.35059V20.9492C19.8271 21.6348 19.4229 22.0303 18.7021 22.0303H9.28906C8.56836 22.0303 8.16406 21.6348 8.16406 20.9492V15.6758H6.44141ZM4.62207 14.3838H10.4053L12.1016 14.2959L10.3613 15.8252L9.88672 16.3174C9.75488 16.458 9.66699 16.6514 9.66699 16.8623C9.66699 17.2754 9.96582 17.5654 10.3701 17.5654C10.5723 17.5654 10.7568 17.4863 10.8975 17.3457L14.0088 14.252C14.1934 14.0586 14.2988 13.8477 14.2988 13.6455C14.2988 13.4434 14.1934 13.2236 14.0088 13.0391L10.8975 9.94531C10.7568 9.80469 10.5723 9.72559 10.3701 9.72559C9.96582 9.72559 9.66699 10.0156 9.66699 10.4287C9.66699 10.6396 9.75488 10.833 9.88672 10.9736L10.3613 11.4658L12.1016 12.9951L10.4053 12.9072H4.62207C4.17383 12.9072 3.88379 13.25 3.88379 13.6455C3.88379 14.041 4.17383 14.3838 4.62207 14.3838Z" fill="#1C1C1E"/>
</svg>
