<svg width="28" height="28" viewBox="0 0 28 28" fill="none" xmlns="http://www.w3.org/2000/svg">
<path d="M7.99707 20.8613C7.99707 22.3203 9.0166 23.2959 10.5459 23.2959H17.4893C18.9922 23.2959 19.9941 22.3203 19.9941 20.8613V6.43848C19.9941 4.97949 18.9922 4.00391 17.4893 4.00391H10.5459C9.0166 4.00391 7.99707 4.97949 7.99707 6.43848V20.8613ZM12.207 5.72656C12.207 5.49805 12.3652 5.34863 12.585 5.34863H15.415C15.6348 5.34863 15.793 5.49805 15.793 5.72656C15.793 5.95508 15.6348 6.10449 15.415 6.10449H12.585C12.3652 6.10449 12.207 5.95508 12.207 5.72656ZM9.75488 19.9561V7.34375H18.2363V19.9561H9.75488ZM14.0088 22.3115C13.5518 22.3115 13.1826 21.9424 13.1826 21.4854C13.1826 21.0371 13.5518 20.6768 14.0088 20.6768C14.457 20.6768 14.8174 21.0371 14.8174 21.4854C14.8174 21.9424 14.457 22.3115 14.0088 22.3115Z" fill="#1C1C1E"/>
</svg>
