<svg width="28" height="28" viewBox="0 0 28 28" fill="none" xmlns="http://www.w3.org/2000/svg">
<path d="M14 22.7422C18.9658 22.7422 23.0791 18.6377 23.0791 13.6631C23.0791 8.69727 18.9658 4.58398 13.9912 4.58398C9.02539 4.58398 4.9209 8.69727 4.9209 13.6631C4.9209 18.6377 9.03418 22.7422 14 22.7422ZM12.0137 19.3848C11.1172 19.3848 10.5107 18.7959 10.5107 17.9258V9.40039C10.5107 8.53027 11.1172 7.94141 12.0137 7.94141H15.9775C16.874 7.94141 17.4893 8.53027 17.4893 9.40039V17.9258C17.4893 18.7959 16.874 19.3848 15.9775 19.3848H12.0137ZM12.1455 18.3564H15.8545C16.2764 18.3564 16.5137 18.1279 16.5137 17.7324V9.59375C16.5137 9.19824 16.2764 8.96973 15.8545 8.96973H15.5029C15.4326 8.96973 15.3975 9.00488 15.3975 9.08398V9.20703C15.3975 9.44434 15.2393 9.59375 15.0195 9.59375H12.9805C12.752 9.59375 12.6025 9.44434 12.6025 9.20703V9.08398C12.6025 9.00488 12.5674 8.96973 12.4883 8.96973H12.1455C11.7148 8.96973 11.4863 9.19824 11.4863 9.59375V17.7324C11.4863 18.1279 11.7148 18.3564 12.1455 18.3564ZM8.96387 16.0713C8.84082 16.2471 8.60352 16.2383 8.42773 16.0713C7.84766 15.4209 7.53125 14.5684 7.53125 13.6631C7.53125 12.7578 7.84766 11.9053 8.42773 11.2637C8.60352 11.0879 8.84082 11.0879 8.96387 11.2549C9.10449 11.4043 9.07812 11.6064 8.91992 11.791C8.47168 12.2832 8.22559 12.9424 8.22559 13.6631C8.22559 14.3926 8.47168 15.0518 8.91992 15.5439C9.07812 15.7197 9.10449 15.9307 8.96387 16.0713ZM19.0098 16.0713C18.8691 15.9307 18.8955 15.7197 19.0625 15.5439C19.502 15.0518 19.748 14.3926 19.748 13.6631C19.748 12.9424 19.502 12.2832 19.0625 11.791C18.8955 11.6064 18.8691 11.4043 19.0098 11.2549C19.1328 11.0879 19.3701 11.0879 19.5459 11.2637C20.126 11.9053 20.4424 12.7578 20.4424 13.6631C20.4424 14.5684 20.126 15.4209 19.5459 16.0713C19.3701 16.2383 19.1328 16.2471 19.0098 16.0713ZM9.64941 15.4033C9.5 15.5703 9.23633 15.5703 9.08691 15.377C8.7002 14.9023 8.46289 14.3047 8.46289 13.6631C8.46289 13.0215 8.7002 12.4238 9.08691 11.9492C9.23633 11.7559 9.5 11.7559 9.64941 11.9316C9.77246 12.0811 9.72852 12.2568 9.59668 12.459C9.32422 12.793 9.18359 13.2148 9.18359 13.6631C9.18359 14.1113 9.32422 14.5332 9.59668 14.876C9.72852 15.0693 9.77246 15.2451 9.64941 15.4033ZM18.3242 15.4033C18.2012 15.2451 18.2539 15.0693 18.377 14.876C18.6582 14.5332 18.79 14.1113 18.79 13.6631C18.79 13.2148 18.6582 12.793 18.377 12.459C18.2539 12.2568 18.2012 12.0811 18.3242 11.9316C18.4736 11.7559 18.7373 11.7559 18.8867 11.9492C19.2822 12.4238 19.5107 13.0215 19.5107 13.6631C19.5107 14.3047 19.2822 14.9023 18.8867 15.377C18.7373 15.5703 18.4736 15.5703 18.3242 15.4033ZM12.875 17.9609C12.7256 17.9609 12.6025 17.8467 12.6025 17.6973C12.6025 17.5303 12.7256 17.4248 12.875 17.4248H15.125C15.292 17.4248 15.3975 17.5303 15.3975 17.6973C15.3975 17.8467 15.292 17.9609 15.125 17.9609H12.875Z" fill="#1C1C1E"/>
</svg>
