<svg width="28" height="28" viewBox="0 0 28 28" fill="none" xmlns="http://www.w3.org/2000/svg">
<path d="M9.06055 23.7529H18.9395C20.5215 23.7529 21.5498 22.7598 21.5498 21.2305V6.06934C21.5498 4.54883 20.5215 3.54688 18.9395 3.54688H9.06055C7.47852 3.54688 6.4502 4.54883 6.4502 6.06934V21.2305C6.4502 22.7598 7.47852 23.7529 9.06055 23.7529ZM9.29785 22.0303C8.57715 22.0303 8.17285 21.6348 8.17285 20.9492V6.35059C8.17285 5.66504 8.57715 5.26953 9.29785 5.26953H18.7109C19.4316 5.26953 19.8271 5.66504 19.8271 6.35059V20.9492C19.8271 21.6348 19.4316 22.0303 18.7109 22.0303H9.29785ZM10.4844 8.74121C11.0996 8.74121 11.6357 8.20508 11.6357 7.55469C11.6357 6.92188 11.0996 6.39453 10.4844 6.39453C9.8252 6.39453 9.29785 6.92188 9.29785 7.55469C9.29785 8.20508 9.8252 8.74121 10.4844 8.74121Z" fill="#1C1C1E"/>
</svg>
