<svg width="28" height="28" viewBox="0 0 28 28" fill="none" xmlns="http://www.w3.org/2000/svg">
<path d="M14 22.7334C18.9658 22.7334 23.0791 18.6289 23.0791 13.6543C23.0791 8.68848 18.9658 4.5752 13.9912 4.5752C9.02539 4.5752 4.9209 8.68848 4.9209 13.6543C4.9209 18.6289 9.03418 22.7334 14 22.7334ZM14 20.9492C9.95703 20.9492 6.71387 17.6973 6.71387 13.6543C6.71387 9.61133 9.94824 6.36816 13.9912 6.36816C18.0342 6.36816 21.2861 9.61133 21.2949 13.6543C21.2949 17.6973 18.043 20.9492 14 20.9492ZM17.3486 15.4121V9.5498C17.3486 8.71484 16.7598 8.15234 15.8984 8.15234H12.0928C11.4863 8.15234 11.0469 8.4248 10.8535 8.88184V8.9082L11.6357 9.69922V9.58496C11.6621 9.28613 11.8643 9.11914 12.207 9.11914H12.541C12.6201 9.11914 12.6553 9.16309 12.6553 9.2334V9.35645C12.6553 9.58496 12.7959 9.73438 13.0156 9.73438H14.9756C15.1953 9.73438 15.3359 9.58496 15.3359 9.35645V9.2334C15.3359 9.16309 15.3711 9.11914 15.4502 9.11914H15.7842C16.1885 9.11914 16.417 9.34766 16.417 9.73438V14.4717L17.3486 15.4121ZM17.7793 18.0576C17.9463 18.2246 18.2275 18.2246 18.3945 18.0576C18.5703 17.8818 18.5703 17.6094 18.3945 17.4424L10.2031 9.24219C10.0273 9.06641 9.74609 9.06641 9.5791 9.24219C9.40332 9.41797 9.40332 9.69922 9.5791 9.86621L17.7793 18.0576ZM12.0928 19.1562H15.8984C16.4873 19.1562 16.918 18.8926 17.1201 18.4355V18.4004L16.3467 17.627V17.7412C16.3027 18.0312 16.1094 18.1807 15.7754 18.1807H12.207C11.8027 18.1807 11.5742 17.9609 11.5742 17.5742V12.8457L10.6426 11.9141V17.75C10.6426 18.5938 11.2227 19.1562 12.0928 19.1562ZM12.9102 17.7939H15.0811C15.2305 17.7939 15.3359 17.6973 15.3359 17.5391C15.3359 17.3809 15.2305 17.2754 15.0811 17.2754H12.9102C12.7607 17.2754 12.6553 17.3809 12.6553 17.5391C12.6553 17.6973 12.7607 17.7939 12.9102 17.7939Z" fill="#1C1C1E"/>
</svg>
