<svg width="28" height="28" viewBox="0 0 28 28" fill="none" xmlns="http://www.w3.org/2000/svg">
<path d="M14 22.7334C18.9658 22.7334 23.0791 18.6289 23.0791 13.6543C23.0791 8.68848 18.9658 4.5752 13.9912 4.5752C9.02539 4.5752 4.9209 8.68848 4.9209 13.6543C4.9209 18.6289 9.03418 22.7334 14 22.7334ZM14 20.9492C9.95703 20.9492 6.71387 17.6973 6.71387 13.6543C6.71387 9.61133 9.94824 6.36816 13.9912 6.36816C18.0342 6.36816 21.2861 9.61133 21.2949 13.6543C21.2949 17.6973 18.043 20.9492 14 20.9492ZM10.6426 17.7676C10.6426 18.5938 11.2227 19.1562 12.0928 19.1562H15.9072C16.7686 19.1562 17.3574 18.5938 17.3574 17.7676V9.54102C17.3574 8.71484 16.7686 8.15234 15.9072 8.15234H12.0928C11.2227 8.15234 10.6426 8.71484 10.6426 9.54102V17.7676ZM12.9805 9.11035C12.9805 8.97852 13.0771 8.89941 13.1914 8.89941H14.8086C14.9316 8.89941 15.0107 8.97852 15.0107 9.11035C15.0107 9.2334 14.9316 9.3125 14.8086 9.3125H13.1914C13.0771 9.3125 12.9805 9.2334 12.9805 9.11035ZM11.583 17.3105V9.99805H16.4082V17.3105H11.583ZM9.1748 15.9658C9.30664 15.8252 9.28027 15.6318 9.12207 15.4561C8.7002 14.9814 8.46289 14.3486 8.46289 13.6543C8.46289 12.96 8.7002 12.3184 9.12207 11.8438C9.28027 11.6768 9.30664 11.4834 9.1748 11.334C9.06055 11.1758 8.82324 11.1758 8.66504 11.3428C8.10254 11.9668 7.79492 12.7842 7.79492 13.6543C7.79492 14.5244 8.10254 15.3418 8.66504 15.9658C8.82324 16.124 9.06055 16.124 9.1748 15.9658ZM18.8252 15.9658C18.9482 16.124 19.1768 16.124 19.3438 15.9658C19.9062 15.3418 20.2139 14.5244 20.2139 13.6543C20.2139 12.7842 19.9062 11.9668 19.3438 11.3428C19.1768 11.1758 18.9482 11.1758 18.8252 11.334C18.6934 11.4834 18.7197 11.6768 18.8779 11.8438C19.3086 12.3184 19.5371 12.96 19.5371 13.6543C19.5371 14.3486 19.3086 14.9814 18.8779 15.4561C18.7197 15.6318 18.6934 15.8252 18.8252 15.9658ZM18.1924 15.333C18.3242 15.5 18.5791 15.5 18.7285 15.3066C19.1064 14.8496 19.3262 14.2695 19.3262 13.6543C19.3262 13.0303 19.1064 12.459 18.7285 11.9932C18.5791 11.8086 18.3242 11.8086 18.1924 11.9756C18.0693 12.125 18.1133 12.292 18.2363 12.4766C18.5088 12.8018 18.6406 13.2148 18.6406 13.6543C18.6406 14.0938 18.5088 14.498 18.2363 14.832C18.1133 15.0166 18.0693 15.1836 18.1924 15.333ZM9.81641 15.333C9.93945 15.1836 9.88672 15.0166 9.76367 14.832C9.5 14.498 9.36816 14.0938 9.36816 13.6543C9.36816 13.2148 9.5 12.8018 9.76367 12.4766C9.88672 12.292 9.93945 12.125 9.81641 11.9756C9.67578 11.8086 9.4209 11.8086 9.28027 11.9932C8.90234 12.459 8.68262 13.0303 8.68262 13.6543C8.68262 14.2695 8.90234 14.8496 9.28027 15.3066C9.4209 15.5 9.67578 15.5 9.81641 15.333ZM14.0088 18.5938C13.7627 18.5938 13.5605 18.3916 13.5605 18.1455C13.5605 17.9082 13.7627 17.7061 14.0088 17.7061C14.2461 17.7061 14.4395 17.9082 14.4395 18.1455C14.4395 18.3916 14.2461 18.5938 14.0088 18.5938Z" fill="#1C1C1E"/>
</svg>
