<svg width="28" height="28" viewBox="0 0 28 28" fill="none" xmlns="http://www.w3.org/2000/svg">
<path d="M14 22.7422C18.9658 22.7422 23.0791 18.6377 23.0791 13.6631C23.0791 8.69727 18.9658 4.58398 13.9912 4.58398C9.02539 4.58398 4.9209 8.69727 4.9209 13.6631C4.9209 18.6377 9.03418 22.7422 14 22.7422ZM15.9863 7.9502C16.8828 7.9502 17.4893 8.53027 17.4893 9.3916V15.4912L16.5137 14.5068V9.86621H11.9434V9.93652L10.748 8.72363V8.69727C10.959 8.22266 11.4072 7.9502 12.0225 7.9502H15.9863ZM12.9453 8.95215C12.9453 9.06641 13.042 9.16309 13.165 9.16309H14.8438C14.9756 9.16309 15.0635 9.06641 15.0635 8.95215C15.0635 8.81152 14.9756 8.72363 14.8438 8.72363H13.165C13.042 8.72363 12.9453 8.81152 12.9453 8.95215ZM17.9287 18.2422L9.41211 9.72559C9.23633 9.55859 9.23633 9.26855 9.41211 9.08398C9.59668 8.9082 9.88672 8.9082 10.0625 9.08398L18.5703 17.5918C18.7549 17.7764 18.7549 18.0488 18.5703 18.2422C18.3945 18.4092 18.0957 18.4092 17.9287 18.2422ZM12.0225 19.3848C11.1172 19.3848 10.5107 18.7959 10.5107 17.9346V11.8613L11.4951 12.8457V17.46H16.0391V17.3809L17.252 18.6025V18.6377C17.041 19.1123 16.5928 19.3848 15.9863 19.3848H12.0225ZM14.0088 18.7959C14.2637 18.7959 14.4658 18.585 14.4658 18.3301C14.4658 18.0752 14.2637 17.8643 14.0088 17.8643C13.7539 17.8643 13.543 18.0752 13.543 18.3301C13.543 18.585 13.7539 18.7959 14.0088 18.7959Z" fill="#1C1C1E"/>
</svg>
