<svg width="28" height="28" viewBox="0 0 28 28" fill="none" xmlns="http://www.w3.org/2000/svg">
<path d="M11.8555 6.87793H16.1709C16.5576 6.87793 16.8037 6.61426 16.8037 6.23633V5.79688H17.1553C17.8496 5.79688 18.2539 6.1748 18.2539 6.84277V15.3857L20.0029 17.1436V6.43848C20.0029 4.97949 19.001 4.00391 17.5068 4.00391H10.5547C9.5 4.00391 8.71777 4.46973 8.34863 5.27832C8.32227 5.33105 8.30469 5.375 8.28711 5.41895L9.78125 6.91309C9.78125 6.85156 9.78125 6.81641 9.79004 6.75488C9.81641 6.13965 10.2031 5.79688 10.8623 5.79688H11.2227V6.23633C11.2227 6.61426 11.4688 6.87793 11.8555 6.87793ZM21.0488 21.7227C21.3213 21.9951 21.7695 21.9951 22.0332 21.7227C22.3057 21.4502 22.3145 21.002 22.0332 20.7295L6.96875 5.67383C6.69629 5.40137 6.24805 5.39258 5.9668 5.67383C5.70312 5.9375 5.70312 6.39453 5.9668 6.6582L21.0488 21.7227ZM10.5547 23.2959H17.5068C18.5 23.2959 19.2559 22.8564 19.6162 22.1006C19.6426 22.0479 19.6689 21.9951 19.6953 21.9512L18.2275 20.4482C18.2275 20.5098 18.2275 20.5449 18.2188 20.5977C18.166 21.1777 17.7881 21.4854 17.1553 21.4854H10.8623C10.168 21.4854 9.76367 21.1074 9.76367 20.4395V12.0195L8.01465 10.2617V20.8525C8.01465 22.3115 9.03418 23.2959 10.5547 23.2959ZM11.6621 20.791H16.3643C16.6191 20.791 16.8037 20.6152 16.8037 20.3428C16.8037 20.0791 16.6191 19.9033 16.3643 19.9033H11.6621C11.4072 19.9033 11.2227 20.0791 11.2227 20.3428C11.2227 20.6152 11.4072 20.791 11.6621 20.791Z" fill="#1C1C1E"/>
</svg>
