<svg width="28" height="28" viewBox="0 0 28 28" fill="none" xmlns="http://www.w3.org/2000/svg">
<path d="M14 22.7422C18.9658 22.7422 23.0791 18.6377 23.0791 13.6631C23.0791 8.69727 18.9658 4.58398 13.9912 4.58398C9.02539 4.58398 4.9209 8.69727 4.9209 13.6631C4.9209 18.6377 9.03418 22.7422 14 22.7422ZM10.5107 17.9346V9.3916C10.5107 8.53027 11.1172 7.9502 12.0137 7.9502H15.9863C16.8828 7.9502 17.4893 8.53027 17.4893 9.3916V17.9346C17.4893 18.7959 16.8828 19.3848 15.9863 19.3848H12.0137C11.1172 19.3848 10.5107 18.7959 10.5107 17.9346ZM12.9453 8.95215C12.9453 9.06641 13.042 9.16309 13.1562 9.16309H14.8438C14.9668 9.16309 15.0547 9.06641 15.0547 8.95215C15.0547 8.81152 14.9668 8.72363 14.8438 8.72363H13.1562C13.042 8.72363 12.9453 8.81152 12.9453 8.95215ZM11.4951 17.46H16.5049V9.86621H11.4951V17.46ZM14.0088 18.7959C14.2549 18.7959 14.4658 18.585 14.4658 18.3301C14.4658 18.0752 14.2549 17.8643 14.0088 17.8643C13.7539 17.8643 13.543 18.0752 13.543 18.3301C13.543 18.585 13.7539 18.7959 14.0088 18.7959Z" fill="#1C1C1E"/>
</svg>
