<svg width="28" height="28" viewBox="0 0 28 28" fill="none" xmlns="http://www.w3.org/2000/svg">
<path d="M21.207 19.6572C22.6748 19.6572 23.6504 18.6377 23.6504 17.1084V10.165C23.6504 8.66211 22.6748 7.66016 21.207 7.66016H6.79297C5.3252 7.66016 4.34961 8.66211 4.34961 10.165V17.1084C4.34961 18.6377 5.3252 19.6572 6.79297 19.6572H21.207ZM20.3105 17.8994H7.68945V9.41797H20.3105V17.8994ZM6.07227 15.4473C5.84375 15.4473 5.70312 15.2891 5.70312 15.0693V12.2393C5.70312 12.0195 5.84375 11.8613 6.07227 11.8613C6.30957 11.8613 6.4502 12.0195 6.4502 12.2393V15.0693C6.4502 15.2891 6.30957 15.4473 6.07227 15.4473ZM22.666 13.6455C22.666 14.1025 22.2969 14.4717 21.8398 14.4717C21.3916 14.4717 21.0225 14.1025 21.0225 13.6455C21.0225 13.1973 21.3916 12.8281 21.8398 12.8281C22.2969 12.8281 22.666 13.1973 22.666 13.6455Z" fill="#1C1C1E"/>
</svg>
