<svg width="28" height="28" viewBox="0 0 28 28" fill="none" xmlns="http://www.w3.org/2000/svg">
<path d="M7.8125 20.2373C7.8125 21.6963 8.83203 22.6719 10.3525 22.6719H17.6914C19.1855 22.6719 20.1875 21.6963 20.1875 20.2373V7.07129C20.1875 5.6123 19.1855 4.62793 17.6914 4.62793H10.3525C8.83203 4.62793 7.8125 5.6123 7.8125 7.07129V20.2373ZM9.55273 11.4746V7.42285C9.55273 6.75488 9.94824 6.37695 10.6426 6.37695H17.3574C18.0518 6.37695 18.4473 6.75488 18.4473 7.42285V11.4746C18.4473 12.1426 18.0518 12.5205 17.3574 12.5205H10.6426C9.94824 12.5205 9.55273 12.1426 9.55273 11.4746ZM14.0088 20.8262C12.1016 20.8262 10.5459 19.2881 10.5459 17.3809C10.5459 15.4736 12.1016 13.9355 14.0088 13.9355C15.9072 13.9355 17.4541 15.4736 17.4541 17.3809C17.4541 19.2881 15.9072 20.8262 14.0088 20.8262ZM14.0088 19.4463C15.1426 19.4463 16.0742 18.5234 16.0742 17.3809C16.0742 16.2471 15.1426 15.3154 14.0088 15.3154C12.8574 15.3154 11.9258 16.2471 11.9258 17.3809C11.9258 18.5234 12.8574 19.4463 14.0088 19.4463Z" fill="#1C1C1E"/>
</svg>
