<svg width="28" height="28" viewBox="0 0 28 28" fill="none" xmlns="http://www.w3.org/2000/svg">
<path d="M21.207 19.6484C22.6748 19.6484 23.6504 18.6289 23.6504 17.0996V10.1562C23.6504 8.65332 22.6748 7.65137 21.207 7.65137H6.79297C5.3252 7.65137 4.34961 8.65332 4.34961 10.1562V17.0996C4.34961 18.6289 5.3252 19.6484 6.79297 19.6484H21.207ZM20.3105 17.8906H7.68945V9.40918H20.3105V17.8906ZM22.666 13.6367C22.666 14.0938 22.2969 14.4629 21.8398 14.4629C21.3916 14.4629 21.0225 14.0938 21.0225 13.6367C21.0225 13.1885 21.3916 12.8193 21.8398 12.8193C22.2969 12.8193 22.666 13.1885 22.666 13.6367ZM6.57324 13.6367C6.57324 13.9531 6.31836 14.1992 6.01074 14.1992C5.70312 14.1992 5.45703 13.9531 5.45703 13.6367C5.45703 13.3291 5.70312 13.083 6.01074 13.083C6.31836 13.083 6.57324 13.3291 6.57324 13.6367Z" fill="#1C1C1E"/>
</svg>
