<svg width="28" height="28" viewBox="0 0 28 28" fill="none" xmlns="http://www.w3.org/2000/svg">
<path d="M9.88672 21.5645H13.0771V22.584C13.0771 24.3945 14.2197 25.4404 16.0303 25.4404H19.9502C20.3809 25.4404 20.7236 25.0889 20.7236 24.6582C20.7236 24.2188 20.3809 23.876 19.9502 23.876H16.0479C15.125 23.876 14.6504 23.4805 14.6504 22.5664V21.5645H18.1221C19.7744 21.5645 20.7236 20.5801 20.7236 18.9189V6.3418C20.7236 4.67188 19.7744 3.69629 18.1221 3.69629H15.8984V3.64355C15.8984 2.51855 15.125 1.75391 14 1.75391C12.875 1.75391 12.1016 2.51855 12.1016 3.64355V3.69629H9.88672C8.23438 3.69629 7.27637 4.67188 7.27637 6.3418V18.9189C7.27637 20.5801 8.23438 21.5645 9.88672 21.5645ZM14 4.30273C13.6484 4.30273 13.3672 4.0127 13.3672 3.65234C13.3672 3.30078 13.6484 3.01074 14 3.01074C14.3604 3.01074 14.6416 3.30078 14.6416 3.65234C14.6416 4.0127 14.3604 4.30273 14 4.30273ZM10.9766 18.8574C10.4229 18.8574 10.0625 18.5146 10.0625 17.9697V8.24902C10.0625 7.71289 10.4229 7.36133 10.9766 7.36133H17.041C17.5947 7.36133 17.9551 7.71289 17.9551 8.24902V17.9697C17.9551 18.5146 17.5947 18.8574 17.041 18.8574H10.9766ZM14 12.9863C14.7734 12.9863 15.415 12.3887 15.415 11.6152C15.415 11.1758 15.1865 10.7539 14.9844 10.3672L14.2812 9.08398C14.1055 8.75879 13.8945 8.76758 13.7275 9.08398L13.0244 10.3672C12.8223 10.7539 12.5938 11.1758 12.5938 11.6152C12.5938 12.3887 13.2441 12.9863 14 12.9863ZM12.1895 15.1836H15.8457C16.127 15.1836 16.3291 14.9639 16.3291 14.6914C16.3291 14.4277 16.127 14.2256 15.8457 14.2256H12.1895C11.8994 14.2256 11.7061 14.4277 11.7061 14.6914C11.7061 14.9639 11.8994 15.1836 12.1895 15.1836ZM12.875 17.1348H15.1338C15.415 17.1348 15.6172 16.9326 15.6172 16.6689C15.6172 16.4053 15.415 16.1855 15.1338 16.1855H12.875C12.5938 16.1855 12.4004 16.4053 12.4004 16.6689C12.4004 16.9326 12.5938 17.1348 12.875 17.1348Z" fill="#1C1C1E"/>
</svg>
