<svg width="28" height="28" viewBox="0 0 28 28" fill="none" xmlns="http://www.w3.org/2000/svg">
<path d="M13.9912 22.7422C18.9746 22.7422 23.0879 18.6289 23.0879 13.6543C23.0879 8.67969 18.9658 4.56641 13.9824 4.56641C9.00781 4.56641 4.90332 8.67969 4.90332 13.6543C4.90332 18.6289 9.0166 22.7422 13.9912 22.7422ZM13.9912 20.9316C9.95703 20.9316 6.73145 17.6885 6.73145 13.6543C6.73145 9.62012 9.95703 6.38574 13.9824 6.38574C18.0166 6.38574 21.2598 9.62012 21.2686 13.6543C21.2773 17.6885 18.0254 20.9316 13.9912 20.9316ZM13.5869 17.75C15.3799 17.75 16.3818 16.7832 16.3818 15.0518V10.4727C16.3818 9.875 16.0742 9.51465 15.5205 9.51465C14.9668 9.51465 14.668 9.89258 14.668 10.4727V15.0166C14.668 15.834 14.2725 16.2998 13.6133 16.2998C13.042 16.2998 12.6465 16.0098 12.4619 15.5C12.3037 15.1045 12.0664 14.9375 11.6709 14.9375C11.2051 14.9375 10.8887 15.2539 10.8887 15.7197C10.8887 15.8779 10.915 16.0186 10.959 16.168C11.2754 17.126 12.2861 17.75 13.5869 17.75Z" fill="#1C1C1E"/>
</svg>
