<svg width="28" height="28" viewBox="0 0 28 28" fill="none" xmlns="http://www.w3.org/2000/svg">
<path d="M16.1885 4.24121H7.36426C5.46582 4.24121 4.48145 5.2168 4.48145 7.09766V15.9746C4.48145 17.8555 5.46582 18.8311 7.36426 18.8311H16.1885C18.0869 18.8311 19.0713 17.8555 19.0713 15.9746V7.09766C19.0713 5.2168 18.0869 4.24121 16.1885 4.24121ZM11.3633 15.7461C10.0449 15.7461 9.0166 15.1133 8.69141 14.1289C8.63867 13.9795 8.6123 13.8301 8.6123 13.6719C8.6123 13.1973 8.9375 12.8809 9.41211 12.8721C9.79883 12.8721 10.0449 13.0566 10.2031 13.4434C10.4053 13.9795 10.8096 14.2783 11.4072 14.2783C12.084 14.2783 12.4971 13.7949 12.4971 12.9424V8.24023C12.4971 7.65137 12.7959 7.27344 13.3584 7.27344C13.9209 7.27344 14.2285 7.64258 14.2285 8.24023V12.9775C14.2285 14.7617 13.209 15.7461 11.3633 15.7461ZM23.5186 11.2725C23.5186 9.40918 22.5518 8.41602 20.6357 8.41602H20.3545V15.9746C20.3545 18.5674 18.7988 20.1143 16.1885 20.1143H8.8584V20.2373C8.8584 22.1094 9.84277 23.085 11.7412 23.085H20.6357C22.5342 23.085 23.5186 22.1094 23.5186 20.2285V11.2725Z" fill="#1C1C1E"/>
</svg>
