<svg width="28" height="28" viewBox="0 0 28 28" fill="none" xmlns="http://www.w3.org/2000/svg">
<path d="M14 2.73828C10.792 2.73828 8.24316 5.2959 8.24316 8.48633C8.24316 10.8506 9.63184 12.9424 11.8291 13.8213V22.3379C11.8291 22.5928 11.9082 22.8213 12.1016 23.0146L13.6309 24.4912C13.8242 24.6846 14.1934 24.7285 14.4395 24.4824L17.208 21.7139C17.4629 21.459 17.4541 21.0898 17.208 20.8438L15.6172 19.2705L17.8496 17.0381C18.0781 16.8008 18.0869 16.4316 17.832 16.1768L15.6611 13.9971C18.2891 12.8809 19.748 10.8682 19.748 8.48633C19.748 5.30469 17.1904 2.73828 14 2.73828ZM14 8.08203C13.1475 8.08203 12.4531 7.3877 12.4531 6.53516C12.4531 5.67383 13.1387 4.98828 14 4.98828C14.8525 4.98828 15.5469 5.68262 15.5469 6.53516C15.5469 7.3877 14.8525 8.08203 14 8.08203Z" fill="#1C1C1E"/>
</svg>
