<svg width="28" height="28" viewBox="0 0 28 28" fill="none" xmlns="http://www.w3.org/2000/svg">
<path d="M5.86133 10.8154C6.42383 10.8154 6.72266 10.5078 6.72266 9.94531V7.95898C6.72266 7.10645 7.1709 6.68457 7.98828 6.68457H10.0186C10.5811 6.68457 10.8887 6.37695 10.8887 5.82324C10.8887 5.26953 10.5811 4.96191 10.0186 4.96191H7.88281C5.98438 4.96191 5 5.9375 5 7.80957V9.94531C5 10.5078 5.30762 10.8154 5.86133 10.8154ZM21.5498 10.8154C22.1123 10.8154 22.4111 10.5078 22.4111 9.94531V7.80957C22.4111 5.9375 21.4268 4.96191 19.5283 4.96191H17.3926C16.8301 4.96191 16.5225 5.26953 16.5225 5.82324C16.5225 6.37695 16.8301 6.68457 17.3926 6.68457H19.4229C20.2314 6.68457 20.6885 7.10645 20.6885 7.95898V9.94531C20.6885 10.5078 20.9961 10.8154 21.5498 10.8154ZM13.71 8.40723C12.0928 8.40723 10.8008 9.70801 10.8008 11.2988C10.8008 12.5117 11.5127 13.5664 12.6113 14.0059V18.3477C12.6201 18.4795 12.6641 18.585 12.7607 18.6729L13.5254 19.4287C13.6396 19.5342 13.7979 19.543 13.9121 19.4199L15.3184 18.0225C15.4502 17.8994 15.4414 17.7236 15.3184 17.6094L14.501 16.7832L15.6523 15.6406C15.7666 15.5352 15.7578 15.3594 15.6348 15.2363L14.5186 14.1025C15.8545 13.54 16.6104 12.5293 16.6104 11.2988C16.6104 9.70801 15.3096 8.40723 13.71 8.40723ZM13.7012 9.82227C14.1846 9.82227 14.5801 10.2266 14.5801 10.71C14.5801 11.2021 14.1846 11.5977 13.7012 11.5977C13.2266 11.5977 12.8223 11.2021 12.8223 10.71C12.8223 10.2266 13.2178 9.82227 13.7012 9.82227ZM7.88281 22.373H10.0186C10.5811 22.373 10.8887 22.0654 10.8887 21.5117C10.8887 20.958 10.5811 20.6504 10.0186 20.6504H7.98828C7.1709 20.6504 6.72266 20.2285 6.72266 19.3672V17.3809C6.72266 16.8184 6.41504 16.5107 5.86133 16.5107C5.29883 16.5107 5 16.8184 5 17.3809V19.5166C5 21.3975 5.98438 22.373 7.88281 22.373ZM17.3926 22.373H19.5283C21.4268 22.373 22.4111 21.3975 22.4111 19.5166V17.3809C22.4111 16.8184 22.1035 16.5107 21.5498 16.5107C20.9873 16.5107 20.6885 16.8271 20.6885 17.3809V19.3672C20.6885 20.2285 20.2314 20.6504 19.4229 20.6504H17.3926C16.8301 20.6504 16.5225 20.958 16.5225 21.5117C16.5225 22.0654 16.8301 22.373 17.3926 22.373Z" fill="#1C1C1E"/>
</svg>
