<svg width="28" height="28" viewBox="0 0 28 28" fill="none" xmlns="http://www.w3.org/2000/svg">
<path d="M13.332 24.3682C13.7363 24.7197 14.29 24.7637 14.6768 24.377L17.3926 21.6611C17.7705 21.2832 17.7529 20.6943 17.3838 20.3164L16.0918 19.0244L18.0078 17.1084C18.377 16.7393 18.377 16.1416 17.999 15.7637L16.25 14.0059C18.6318 12.8193 19.9678 10.8418 19.9678 8.5127C19.9678 5.2168 17.3047 2.55371 14 2.55371C10.6865 2.55371 8.03223 5.20801 8.03223 8.5127C8.03223 10.877 9.37695 12.9951 11.5215 13.9619V22.2061C11.5215 22.5225 11.6182 22.8828 11.8906 23.1201L13.332 24.3682ZM14 22.8037L13.0508 21.8545V12.8018C11.0469 12.3623 9.61426 10.6045 9.61426 8.5127C9.61426 6.0957 11.5654 4.14453 14 4.14453C16.4346 4.14453 18.377 6.0957 18.377 8.5127C18.377 10.5869 16.9355 12.3711 14.7383 12.8545V14.7617L16.4258 16.4492L14.624 18.2158V19.8066L15.8105 20.9756L14 22.8037ZM14 8.56543C14.8613 8.56543 15.5645 7.8623 15.5645 7.00098C15.5645 6.13965 14.8613 5.43652 14 5.43652C13.1299 5.43652 12.4355 6.13086 12.4355 7.00098C12.4355 7.8623 13.1387 8.56543 14 8.56543Z" fill="#1C1C1E"/>
</svg>
