<svg width="28" height="28" viewBox="0 0 28 28" fill="none" xmlns="http://www.w3.org/2000/svg">
<path d="M8.67383 21.8809H19.3174C21.2246 21.8809 22.209 20.8965 22.209 19.0156V8.31934C22.209 6.43848 21.2246 5.4541 19.3174 5.4541H8.67383C6.77539 5.4541 5.78223 6.42969 5.78223 8.31934V19.0156C5.78223 20.8965 6.77539 21.8809 8.67383 21.8809ZM10.4141 13.6807C10.4141 13.4258 10.5986 13.25 10.8359 13.25H11.416V10.1562C11.416 9.70801 11.6973 9.43555 12.1279 9.43555C12.5498 9.43555 12.8398 9.70801 12.8398 10.1562V13.2412H13.1738L15.8809 9.77832C16.0566 9.53223 16.2676 9.42676 16.4697 9.42676C16.8564 9.42676 17.1377 9.69922 17.1377 10.0596C17.1377 10.1914 17.0762 10.3672 16.9707 10.5078L14.7559 13.25H16.9443C17.1992 13.25 17.3662 13.4258 17.3662 13.6807C17.3662 13.918 17.1992 14.1113 16.9443 14.1113H14.7471L16.9707 16.9238C17.085 17.082 17.1553 17.2666 17.1553 17.4248C17.1553 17.7939 16.8652 18.0752 16.4697 18.0752C16.25 18.0752 16.0303 17.9521 15.8633 17.7061L13.1914 14.1553H12.8398V17.3369C12.8398 17.7939 12.5498 18.0752 12.1279 18.0752C11.7061 18.0752 11.416 17.7939 11.416 17.3369V14.1113H10.8359C10.5986 14.1113 10.4141 13.918 10.4141 13.6807Z" fill="#1C1C1E"/>
</svg>
