<svg width="28" height="28" viewBox="0 0 28 28" fill="none" xmlns="http://www.w3.org/2000/svg">
<path d="M13.9912 22.7422C18.9746 22.7422 23.0879 18.6289 23.0879 13.6543C23.0879 8.67969 18.9658 4.56641 13.9824 4.56641C9.00781 4.56641 4.90332 8.67969 4.90332 13.6543C4.90332 18.6289 9.0166 22.7422 13.9912 22.7422ZM13.9912 20.9316C9.95703 20.9316 6.73145 17.6885 6.73145 13.6543C6.73145 9.62012 9.95703 6.38574 13.9824 6.38574C18.0166 6.38574 21.2598 9.62012 21.2686 13.6543C21.2773 17.6885 18.0254 20.9316 13.9912 20.9316ZM10.5195 13.6895C10.5195 13.918 10.6953 14.1025 10.9326 14.1025H11.4863V17.2139C11.4863 17.6357 11.7676 17.9082 12.1631 17.9082C12.5586 17.9082 12.8398 17.6357 12.8398 17.2139V14.1377H13.1738L15.7666 17.5654C15.9248 17.7939 16.127 17.9082 16.3379 17.9082C16.707 17.9082 16.9883 17.6445 16.9883 17.293C16.9883 17.1436 16.9268 16.9678 16.8125 16.8184L14.668 14.1025H16.7861C17.0234 14.1025 17.1904 13.918 17.1904 13.6895C17.1904 13.4434 17.0234 13.2764 16.7861 13.2764H14.6768L16.8125 10.6309C16.918 10.499 16.9707 10.332 16.9707 10.2002C16.9707 9.85742 16.707 9.60254 16.3379 9.60254C16.1445 9.60254 15.9512 9.69922 15.7842 9.92773L13.165 13.2676H12.8398V10.2969C12.8398 9.875 12.5674 9.61133 12.1631 9.61133C11.75 9.61133 11.4863 9.875 11.4863 10.2969V13.2764H10.9326C10.6953 13.2764 10.5195 13.4434 10.5195 13.6895Z" fill="#1C1C1E"/>
</svg>
