<svg width="28" height="28" viewBox="0 0 28 28" fill="none" xmlns="http://www.w3.org/2000/svg">
<path d="M13.9912 22.7422C18.9746 22.7422 23.0879 18.6289 23.0879 13.6543C23.0879 8.67969 18.9658 4.56641 13.9824 4.56641C9.00781 4.56641 4.90332 8.67969 4.90332 13.6543C4.90332 18.6289 9.0166 22.7422 13.9912 22.7422ZM12.3213 17.7236C11.7324 17.7236 11.4072 17.3105 11.4072 16.6865V10.3672C11.4072 9.74316 11.7324 9.33008 12.3213 9.33008C12.9189 9.33008 13.2529 9.72559 13.2529 10.3672V16.2383H16.373C16.8389 16.2383 17.1553 16.5107 17.1553 16.9766C17.1553 17.4424 16.8389 17.7236 16.373 17.7236H12.3213Z" fill="#1C1C1E"/>
</svg>
