<svg width="32" height="36" viewBox="0 0 32 36" fill="none" xmlns="http://www.w3.org/2000/svg">
<g filter="url(#filter0_d_610_1771)">
<path d="M16 2.29883C9.72461 2.29883 4.64453 7.3877 4.64453 13.6543C4.64453 18.6201 7.84375 22.8477 12.2822 24.377C12.168 23.8057 12.3174 23.2344 12.6689 22.8125C8.91602 21.459 6.23535 17.873 6.23535 13.6543C6.23535 8.2666 10.6123 3.89844 16 3.89844C21.3789 3.89844 25.7559 8.2666 25.7559 13.6543C25.7559 17.8643 23.084 21.4502 19.3398 22.8125C19.6914 23.2256 19.8408 23.7969 19.7266 24.3682C24.1562 22.8301 27.3467 18.6113 27.3467 13.6543C27.3467 7.3877 22.2578 2.29883 16 2.29883ZM16 5.8584C11.6934 5.8584 8.2041 9.34766 8.2041 13.6543C8.2041 17.9521 11.6934 21.4502 16 21.4502C20.2979 21.4502 23.7871 17.9521 23.7871 13.6543C23.7871 9.34766 20.2979 5.8584 16 5.8584ZM16 7.52832C19.375 7.52832 22.126 10.2705 22.126 13.6543C22.126 17.0381 19.375 19.7803 16 19.7803C12.6162 19.7803 9.86523 17.0381 9.86523 13.6543C9.86523 10.2705 12.6162 7.52832 16 7.52832ZM14.5146 17.3105H18.1709C18.5664 17.3105 18.8389 17.0645 18.8389 16.6602C18.8389 16.2559 18.5664 16.0186 18.1709 16.0186H15.3232V10.6748C15.3232 10.1211 15.0332 9.77832 14.5146 9.77832C13.9961 9.77832 13.7148 10.1299 13.7148 10.6748V16.4053C13.7148 16.9502 13.9961 17.3105 14.5146 17.3105ZM13.7061 24.5352L15.5166 26.9609C15.7627 27.2949 16.2285 27.2861 16.4834 26.9609L18.3027 24.5352C18.6807 24.043 18.4785 23.4102 17.8105 23.4102H14.1807C13.5479 23.4102 13.3193 24.0254 13.7061 24.5352Z" fill="#1C1C1E"/>
</g>
<defs>
<filter id="filter0_d_610_1771" x="-2" y="0" width="36" height="36" filterUnits="userSpaceOnUse" color-interpolation-filters="sRGB">
<feFlood flood-opacity="0" result="BackgroundImageFix"/>
<feColorMatrix in="SourceAlpha" type="matrix" values="0 0 0 0 0 0 0 0 0 0 0 0 0 0 0 0 0 0 127 0" result="hardAlpha"/>
<feOffset dy="4"/>
<feGaussianBlur stdDeviation="2"/>
<feComposite in2="hardAlpha" operator="out"/>
<feColorMatrix type="matrix" values="0 0 0 0 0 0 0 0 0 0 0 0 0 0 0 0 0 0 0.25 0"/>
<feBlend mode="normal" in2="BackgroundImageFix" result="effect1_dropShadow_610_1771"/>
<feBlend mode="normal" in="SourceGraphic" in2="effect1_dropShadow_610_1771" result="shape"/>
</filter>
</defs>
</svg>
