<svg width="28" height="28" viewBox="0 0 28 28" fill="none" xmlns="http://www.w3.org/2000/svg">
<path d="M11.7061 2.76465C11.3193 3.27441 11.5479 3.89844 12.1807 3.89844H15.8105C16.4785 3.89844 16.6807 3.26562 16.3027 2.76465L14.4834 0.347656C14.2285 0.0136719 13.7627 0.0136719 13.5166 0.347656L11.7061 2.76465ZM14 25.001C20.2578 25.001 25.3467 19.9209 25.3467 13.6543C25.3467 8.69727 22.1562 4.47852 17.7266 2.93164C17.8408 3.51172 17.6914 4.08301 17.3398 4.49609C21.084 5.8584 23.7559 9.44434 23.7559 13.6543C23.7559 19.042 19.3789 23.4102 14 23.4102C8.6123 23.4102 4.23535 19.0332 4.23535 13.6543C4.23535 9.43555 6.91602 5.84961 10.6689 4.49609C10.3174 4.07422 10.168 3.50293 10.2822 2.93164C5.84375 4.46094 2.64453 8.68848 2.64453 13.6543C2.64453 19.9209 7.72461 25.001 14 25.001ZM14 21.4502C18.2979 21.4502 21.7871 17.9521 21.7871 13.6543C21.7871 9.34766 18.2979 5.8584 14 5.8584C9.69336 5.8584 6.2041 9.34766 6.2041 13.6543C6.2041 17.9521 9.69336 21.4502 14 21.4502ZM14 19.7803C10.6162 19.7803 7.86523 17.0381 7.86523 13.6543C7.86523 10.2705 10.6162 7.52832 14 7.52832C17.375 7.52832 20.126 10.2705 20.126 13.6543C20.126 17.0381 17.375 19.7803 14 19.7803ZM12.5146 17.3105H16.1709C16.5664 17.3105 16.8389 17.0645 16.8389 16.6602C16.8389 16.2559 16.5664 16.0186 16.1709 16.0186H13.3232V10.6748C13.3232 10.1211 13.0332 9.77832 12.5146 9.77832C11.9961 9.77832 11.7148 10.1299 11.7148 10.6748V16.4053C11.7148 16.9502 11.9961 17.3105 12.5146 17.3105Z" fill="#1C1C1E"/>
</svg>
