<svg width="28" height="28" viewBox="0 0 28 28" fill="none" xmlns="http://www.w3.org/2000/svg">
<path d="M14 2.29883C7.7334 2.29883 2.65332 7.3877 2.65332 13.6543C2.65332 19.9209 7.7334 25.001 14 25.001C18.957 25.001 23.1758 21.8193 24.7227 17.3809C24.1514 17.4951 23.5713 17.3457 23.1582 16.9941C21.7959 20.7383 18.21 23.4102 14 23.4102C8.6123 23.4102 4.24414 19.0332 4.24414 13.6543C4.24414 8.2666 8.62109 3.89844 14 3.89844C18.2188 3.89844 21.8047 6.5791 23.1582 10.3232C23.5801 9.97168 24.1514 9.83105 24.7227 9.93652C23.1934 5.49805 18.9658 2.29883 14 2.29883ZM14 21.4502C18.3066 21.4502 21.7959 17.9521 21.7959 13.6543C21.7959 9.34766 18.3066 5.8584 14 5.8584C9.70215 5.8584 6.2041 9.34766 6.2041 13.6543C6.2041 17.9521 9.70215 21.4502 14 21.4502ZM12.418 17.5215C11.8643 17.5215 11.5654 17.1348 11.5654 16.5547V10.5166C11.5654 9.92773 11.8643 9.5498 12.418 9.5498C12.9805 9.5498 13.2881 9.91895 13.2881 10.5166V16.1328H16.2764C16.707 16.1328 17.0059 16.3877 17.0059 16.8271C17.0059 17.2578 16.7158 17.5215 16.2764 17.5215H12.418ZM24.8896 11.3604C24.3799 10.9736 23.7646 11.2021 23.7646 11.835V15.4736C23.7646 16.1328 24.3887 16.335 24.8896 15.957L27.3066 14.1377C27.6406 13.8916 27.6406 13.4258 27.3066 13.1709L24.8896 11.3604Z" fill="#1C1C1E"/>
</svg>
