<svg width="28" height="28" viewBox="0 0 28 28" fill="none" xmlns="http://www.w3.org/2000/svg">
<path d="M11.6885 3.03711L13.5078 5.46289C13.7627 5.80566 14.2285 5.79688 14.4834 5.46289L16.3115 3.03711C16.6807 2.54492 16.4785 1.91211 15.8193 1.91211H12.1719C11.5391 1.91211 11.3018 2.52734 11.6885 3.03711ZM14 18.3916C19.792 18.3916 23.2637 15.7812 23.2637 12.5557C23.2637 9.33008 19.792 6.71973 13.9912 6.71973C8.20801 6.71973 4.73633 9.33008 4.73633 12.5557C4.73633 15.7812 8.20801 18.3916 14 18.3916ZM12.8135 15.4824C12.3125 15.4824 11.9961 15.1221 11.9961 14.5771V10.2002C11.9961 9.64648 12.3213 9.30371 12.8135 9.30371C13.3232 9.30371 13.6396 9.64648 13.6396 10.2002V14.1025H15.6348C16.0654 14.1025 16.3555 14.375 16.3555 14.7881C16.3555 15.2012 16.0654 15.4824 15.6348 15.4824H12.8135ZM14 22.5488C16.2764 22.5488 17.6562 21.4854 17.6562 19.6748V19.3057C16.5225 19.543 15.3008 19.6836 14 19.6836C12.6992 19.6836 11.4775 19.543 10.3438 19.3057V19.6748C10.3438 21.4854 11.7236 22.5488 14 22.5488Z" fill="#1C1C1E"/>
</svg>
