<svg width="28" height="28" viewBox="0 0 28 28" fill="none" xmlns="http://www.w3.org/2000/svg">
<path d="M14 2.29883C7.72461 2.29883 2.64453 7.3877 2.64453 13.6543C2.64453 18.6201 5.84375 22.8477 10.2822 24.377C10.168 23.8057 10.3174 23.2344 10.6689 22.8125C6.91602 21.459 4.23535 17.873 4.23535 13.6543C4.23535 8.2666 8.6123 3.89844 14 3.89844C19.3789 3.89844 23.7559 8.2666 23.7559 13.6543C23.7559 17.8643 21.084 21.4502 17.3398 22.8125C17.6914 23.2256 17.8408 23.7969 17.7266 24.3682C22.1562 22.8301 25.3467 18.6113 25.3467 13.6543C25.3467 7.3877 20.2578 2.29883 14 2.29883ZM14 5.8584C9.69336 5.8584 6.2041 9.34766 6.2041 13.6543C6.2041 17.9521 9.69336 21.4502 14 21.4502C18.2979 21.4502 21.7871 17.9521 21.7871 13.6543C21.7871 9.34766 18.2979 5.8584 14 5.8584ZM12.4092 17.5215C11.8555 17.5215 11.5566 17.1348 11.5566 16.5547V10.5166C11.5566 9.92773 11.8555 9.5498 12.4092 9.5498C12.9717 9.5498 13.2793 9.91895 13.2793 10.5166V16.1328H16.2676C16.6982 16.1328 16.9971 16.3877 16.9971 16.8271C16.9971 17.2578 16.707 17.5215 16.2676 17.5215H12.4092ZM11.7061 24.5352L13.5166 26.9609C13.7627 27.2949 14.2285 27.2861 14.4834 26.9609L16.3027 24.5352C16.6807 24.043 16.4785 23.4102 15.8105 23.4102H12.1807C11.5479 23.4102 11.3193 24.0254 11.7061 24.5352Z" fill="#1C1C1E"/>
</svg>
