<svg width="28" height="31" viewBox="0 0 28 31" fill="none" xmlns="http://www.w3.org/2000/svg">
<g filter="url(#filter0_d_610_1753)">
<path d="M11.7588 3.07227L13.5693 5.48926C13.8242 5.82324 14.29 5.82324 14.5361 5.48926L16.3555 3.07227C16.7334 2.57129 16.5312 1.94727 15.8721 1.94727H12.2334C11.6006 1.94727 11.3721 2.5625 11.7588 3.07227ZM14 18.374C19.7744 18.374 23.2373 15.7725 23.2373 12.5557C23.2373 9.33887 19.7744 6.74609 13.9912 6.74609C8.22559 6.74609 4.7627 9.33887 4.7627 12.5557C4.7627 15.7725 8.22559 18.374 14 18.374ZM12.8135 15.4736C12.3213 15.4736 12.0049 15.1221 12.0049 14.5859V10.2002C12.0049 9.65527 12.3301 9.3125 12.8135 9.3125C13.3145 9.3125 13.6309 9.65527 13.6309 10.2002V14.1201H15.6348C16.0566 14.1201 16.3379 14.3838 16.3379 14.7969C16.3379 15.2012 16.0566 15.4736 15.6348 15.4736H12.8135ZM14 22.5225C16.2588 22.5225 17.6299 21.459 17.6299 19.666V19.2881C16.5049 19.5254 15.292 19.6572 14 19.6572C12.708 19.6572 11.4951 19.5254 10.3701 19.2881V19.666C10.3701 21.459 11.7412 22.5225 14 22.5225Z" fill="#1C1C1E"/>
</g>
<defs>
<filter id="filter0_d_610_1753" x="-4" y="0" width="36" height="36" filterUnits="userSpaceOnUse" color-interpolation-filters="sRGB">
<feFlood flood-opacity="0" result="BackgroundImageFix"/>
<feColorMatrix in="SourceAlpha" type="matrix" values="0 0 0 0 0 0 0 0 0 0 0 0 0 0 0 0 0 0 127 0" result="hardAlpha"/>
<feOffset dy="4"/>
<feGaussianBlur stdDeviation="2"/>
<feComposite in2="hardAlpha" operator="out"/>
<feColorMatrix type="matrix" values="0 0 0 0 0 0 0 0 0 0 0 0 0 0 0 0 0 0 0.25 0"/>
<feBlend mode="normal" in2="BackgroundImageFix" result="effect1_dropShadow_610_1753"/>
<feBlend mode="normal" in="SourceGraphic" in2="effect1_dropShadow_610_1753" result="shape"/>
</filter>
</defs>
</svg>
