<svg width="28" height="28" viewBox="0 0 28 28" fill="none" xmlns="http://www.w3.org/2000/svg">
<path d="M10.8799 21.8809H17.1201C22.376 21.8809 24.6699 19.5166 24.6699 14.4717V8.31934C24.6699 6.43848 23.6768 5.4541 21.7783 5.4541H6.22168C4.32324 5.4541 3.33008 6.42969 3.33008 8.31934V14.4717C3.33008 19.5166 5.61523 21.8809 10.8799 21.8809ZM12.3389 17.75C11.75 17.75 11.4248 17.3457 11.4248 16.7129V10.3936C11.4248 9.76953 11.75 9.36523 12.3389 9.36523C12.9365 9.36523 13.2705 9.76074 13.2705 10.3936V16.2734H16.3906C16.8564 16.2734 17.1729 16.5459 17.1729 17.0029C17.1729 17.4688 16.8564 17.75 16.3906 17.75H12.3389Z" fill="#1C1C1E"/>
</svg>
