<svg width="28" height="28" viewBox="0 0 28 28" fill="none" xmlns="http://www.w3.org/2000/svg">
<path d="M10.8799 21.8809H17.1201C22.376 21.8809 24.6699 19.5166 24.6699 14.4717V8.31934C24.6699 6.43848 23.6768 5.4541 21.7783 5.4541H6.22168C4.32324 5.4541 3.33008 6.42969 3.33008 8.31934V14.4717C3.33008 19.5166 5.61523 21.8809 10.8799 21.8809ZM10.915 20.1143C6.8457 20.1143 5.0791 18.3477 5.0791 14.5332V8.47754C5.0791 7.64258 5.53613 7.20312 6.33594 7.20312H21.6641C22.4551 7.20312 22.9121 7.64258 22.9121 8.47754V14.5332C22.9121 18.3477 21.1543 20.1143 17.085 20.1143H10.915ZM10.2383 17.5303H14.0879C14.5098 17.5303 14.7998 17.2754 14.7998 16.8447C14.7998 16.4141 14.5098 16.168 14.0879 16.168H11.0996V10.5518C11.0996 9.96289 10.792 9.60254 10.2383 9.60254C9.69336 9.60254 9.39453 9.97168 9.39453 10.5518V16.5811C9.39453 17.1523 9.69336 17.5303 10.2383 17.5303ZM17.7793 17.7324C18.2979 17.7324 18.6143 17.416 18.6143 16.8271V10.5166C18.6143 9.94531 18.2627 9.61133 17.709 9.61133C17.3398 9.61133 17.0586 9.70801 16.6455 9.98926L15.1514 11C14.9141 11.1494 14.8174 11.3164 14.8174 11.5801C14.8174 11.8965 15.0635 12.1777 15.3887 12.1777C15.5381 12.1777 15.6436 12.1514 15.8545 12.002L16.8916 11.3252H16.9531V16.8271C16.9531 17.416 17.2695 17.7324 17.7793 17.7324Z" fill="#1C1C1E"/>
</svg>
