<svg width="28" height="28" viewBox="0 0 28 28" fill="none" xmlns="http://www.w3.org/2000/svg">
<path d="M10.8799 5.4541C5.61523 5.4541 3.33008 7.81836 3.33008 12.8545V19.0156C3.33008 20.8965 4.32324 21.8809 6.22168 21.8809H21.7783C23.6768 21.8809 24.6699 20.8965 24.6699 19.0156V12.8545C24.6699 7.81836 22.376 5.4541 17.1201 5.4541H10.8799ZM10.915 7.2207H17.085C21.1543 7.2207 22.9121 8.9873 22.9121 12.8018V18.8574C22.9121 19.6924 22.4551 20.1318 21.6641 20.1318H6.33594C5.53613 20.1318 5.0791 19.6924 5.0791 18.8574V12.8018C5.0791 8.9873 6.8457 7.2207 10.915 7.2207ZM9.37695 17.5391H13.0771C13.499 17.5391 13.7891 17.2754 13.7891 16.8535C13.7891 16.4229 13.499 16.168 13.0771 16.168H10.2295V10.5605C10.2295 9.97168 9.92188 9.61133 9.37695 9.61133C8.82324 9.61133 8.5332 9.98047 8.5332 10.5605V16.5898C8.5332 17.1611 8.83203 17.5391 9.37695 17.5391ZM15.2568 17.5391H19.5723C19.9941 17.5391 20.2754 17.2754 20.2754 16.8711C20.2754 16.4492 19.9941 16.2031 19.5723 16.2031H16.8125V16.1416L18.6494 14.2607C19.4668 13.4346 19.9854 12.749 19.9854 11.8262C19.9854 10.499 18.8955 9.61133 17.2432 9.61133C15.9688 9.61133 14.8701 10.332 14.5713 11.3164C14.5273 11.4482 14.5098 11.5713 14.5098 11.6943C14.5098 12.0898 14.7822 12.3359 15.1953 12.3359C15.5469 12.3359 15.7227 12.125 15.8896 11.8789C16.1182 11.4043 16.5137 10.9033 17.2695 10.9033C17.9902 10.9033 18.4736 11.3252 18.4736 11.958C18.4736 12.5293 17.999 13.0127 17.4717 13.5488L14.8438 16.2471C14.6328 16.4492 14.5537 16.6602 14.5537 16.8799C14.5537 17.2754 14.8262 17.5391 15.2568 17.5391Z" fill="#1C1C1E"/>
</svg>
