<svg width="28" height="28" viewBox="0 0 28 28" fill="none" xmlns="http://www.w3.org/2000/svg">
<path d="M9.21875 8.38086C9.21875 8.86426 9.39453 9.22461 10.0098 9.52344C10.9854 9.98926 12.4707 10.2617 13.9912 10.2617C15.5205 10.2617 17.0059 9.98926 17.9727 9.52344C18.5967 9.22461 18.7725 8.86426 18.7725 8.38086C18.7725 7.19434 18.1045 6.14844 16.9443 5.49805L16.8916 5.2959C16.8301 5.01465 16.9619 4.83008 17.3223 4.71582L17.8936 4.51367C18.8516 4.23242 18.3857 2.80859 17.4102 3.13379L16.7246 3.39746C15.9336 3.67871 15.5117 4.22363 15.4766 4.96191C15.0195 4.85645 14.5273 4.80371 13.9912 4.80371C13.4639 4.80371 12.9629 4.85645 12.5059 4.96191C12.4795 4.22363 12.0488 3.67871 11.2578 3.39746L10.5723 3.13379C9.60547 2.80859 9.13086 4.23242 10.0889 4.51367L10.6602 4.71582C11.0293 4.83008 11.1523 5.01465 11.0908 5.2959L11.0381 5.49805C9.87793 6.14844 9.21875 7.19434 9.21875 8.38086ZM15.5469 24.1221C17.3926 23.8672 18.9219 23.0146 20.0117 21.7139L21.1543 22.6807C21.5234 22.9971 21.998 23.0234 22.2881 22.6631C22.5869 22.3115 22.4814 21.8369 22.1211 21.5293L20.8555 20.4658C21.4707 19.3232 21.8223 17.9609 21.8574 16.4492L23.3164 16.458C23.8086 16.458 24.1338 16.1592 24.1338 15.7021C24.1338 15.2539 23.8086 14.9463 23.3252 14.9463H21.7783C21.6201 13.7949 21.2598 12.582 20.7324 11.668L22.1826 10.4727C22.543 10.1738 22.6396 9.69922 22.3496 9.34766C22.0508 8.9873 21.585 9.01367 21.2158 9.32129L19.7832 10.5078C19.3438 10.1738 19.0361 10.1914 18.7637 10.3057C17.4365 10.9385 15.7666 11.3076 13.9912 11.3076C12.2158 11.3076 10.5459 10.9385 9.22754 10.3057C8.95508 10.1914 8.63867 10.1738 8.20801 10.5078L6.77539 9.32129C6.39746 9.01367 5.93164 8.9873 5.6416 9.34766C5.34277 9.69922 5.44824 10.1738 5.80859 10.4727L7.25879 11.668C6.73145 12.582 6.37109 13.7949 6.21289 14.9463H4.66602C4.18262 14.9463 3.85742 15.2539 3.85742 15.7021C3.85742 16.1592 4.18262 16.458 4.66602 16.458L6.13379 16.4492C6.16895 17.9609 6.52051 19.3232 7.12695 20.4658L5.86133 21.5293C5.50098 21.8369 5.4043 22.3115 5.69434 22.6631C5.99316 23.0234 6.46777 22.9971 6.82812 22.6807L7.97949 21.7139C9.06934 23.0146 10.5986 23.8672 12.4355 24.1221C13.0332 24.2012 13.3672 23.9727 13.3672 23.5068V13.5664C13.3672 13.2148 13.6484 12.9336 13.9912 12.9336C14.3428 12.9336 14.624 13.2148 14.624 13.5664V23.5068C14.624 23.9727 14.958 24.2012 15.5469 24.1221ZM10.4756 14.5684C9.83398 14.5684 9.32422 14.0322 9.32422 13.4082C9.32422 12.7666 9.83398 12.248 10.4756 12.248C11.1084 12.248 11.6357 12.7666 11.6357 13.4082C11.6357 14.0322 11.1084 14.5684 10.4756 14.5684ZM17.5156 14.5684C16.874 14.5684 16.3555 14.0322 16.3555 13.4082C16.3555 12.7666 16.874 12.248 17.5156 12.248C18.1484 12.248 18.667 12.7666 18.667 13.4082C18.667 14.0322 18.1484 14.5684 17.5156 14.5684ZM9.55273 18.3828C8.80566 18.3828 8.20801 17.7852 8.20801 17.0293C8.20801 16.2998 8.80566 15.7021 9.55273 15.7021C10.291 15.7021 10.8975 16.2998 10.8975 17.0293C10.8975 17.7852 10.291 18.3828 9.55273 18.3828ZM18.4385 18.3828C17.7002 18.3828 17.0938 17.7852 17.0938 17.0293C17.0938 16.2998 17.7002 15.7021 18.4385 15.7021C19.1855 15.7021 19.7832 16.2998 19.7832 17.0293C19.7832 17.7852 19.1855 18.3828 18.4385 18.3828ZM10.6777 21.6172C10.124 21.6172 9.67578 21.1689 9.67578 20.624C9.67578 20.0615 10.124 19.6133 10.6777 19.6133C11.2314 19.6133 11.6797 20.0615 11.6797 20.624C11.6797 21.1689 11.2314 21.6172 10.6777 21.6172ZM17.3135 21.6172C16.7598 21.6172 16.3115 21.1689 16.3115 20.624C16.3115 20.0615 16.7598 19.6133 17.3135 19.6133C17.8584 19.6133 18.3066 20.0615 18.3066 20.624C18.3066 21.1689 17.8584 21.6172 17.3135 21.6172Z" fill="#1C1C1E"/>
</svg>
