<svg width="28" height="28" viewBox="0 0 28 28" fill="none" xmlns="http://www.w3.org/2000/svg">
<path d="M4.34082 5.46289C3.88379 5.46289 3.58496 5.76172 3.58496 6.20996V21.1162C3.58496 21.5645 3.88379 21.8633 4.34082 21.8633H23.6504C24.1074 21.8633 24.4062 21.5645 24.4062 21.1162V6.20996C24.4062 5.76172 24.1074 5.46289 23.6504 5.46289H4.34082ZM5.5625 7.17676H22.4287C22.6133 7.17676 22.6836 7.25586 22.6836 7.43164V19.8945C22.6836 20.0703 22.6133 20.1406 22.4287 20.1406H5.5625C5.37793 20.1406 5.30762 20.0703 5.30762 19.8945V7.43164C5.30762 7.25586 5.37793 7.17676 5.5625 7.17676ZM6.64355 8.04688C6.33594 8.04688 6.16895 8.21387 6.16895 8.50391V18.8135C6.16895 19.1123 6.33594 19.2793 6.64355 19.2793H21.3477C21.6465 19.2793 21.8135 19.1123 21.8135 18.8135V8.50391C21.8135 8.21387 21.6465 8.04688 21.3477 8.04688H6.64355ZM7.28516 8.97852H20.6973C20.8203 8.97852 20.8818 9.04004 20.8818 9.16309V16.9678L17.208 13.5312C16.9092 13.2588 16.5664 13.1182 16.2061 13.1182C15.8369 13.1182 15.5029 13.2412 15.2041 13.5137L12.1807 16.2207L10.9502 15.1045C10.6689 14.8408 10.3613 14.7266 10.0449 14.7266C9.7373 14.7266 9.46484 14.8496 9.18359 15.0957L7.10059 16.9678V9.16309C7.10059 9.04004 7.1709 8.97852 7.28516 8.97852ZM11.1963 13.6455C12.0664 13.6455 12.7871 12.916 12.7871 12.0459C12.7871 11.167 12.0664 10.4463 11.1963 10.4463C10.3174 10.4463 9.59668 11.167 9.59668 12.0459C9.59668 12.916 10.3174 13.6455 11.1963 13.6455Z" fill="#1C1C1E"/>
</svg>
