<svg width="28" height="28" viewBox="0 0 28 28" fill="none" xmlns="http://www.w3.org/2000/svg">
<path d="M7.02148 20.29C7.02148 22.1885 7.99707 23.1729 9.87793 23.1729H18.1221C19.9941 23.1729 20.9697 22.1885 20.9697 20.29V7.02734C20.9697 5.1377 19.9941 4.14453 18.1221 4.14453H9.87793C7.99707 4.14453 7.02148 5.1377 7.02148 7.02734V20.29ZM11.8027 7.26465C11.4688 7.26465 11.1875 6.99219 11.1875 6.6582C11.1875 6.33301 11.4688 6.05176 11.8027 6.05176H16.1885C16.5312 6.05176 16.8037 6.33301 16.8037 6.6582C16.8037 6.99219 16.5225 7.26465 16.1885 7.26465H11.8027Z" fill="#1C1C1E"/>
</svg>
