<svg width="28" height="28" viewBox="0 0 28 28" fill="none" xmlns="http://www.w3.org/2000/svg">
<path d="M13.9912 22.7422C18.9746 22.7422 23.0879 18.6289 23.0879 13.6543C23.0879 8.67969 18.9658 4.56641 13.9824 4.56641C9.00781 4.56641 4.90332 8.67969 4.90332 13.6543C4.90332 18.6289 9.0166 22.7422 13.9912 22.7422ZM11.0029 17.9082C10.6338 17.9082 10.3877 17.6709 10.3877 17.3193C10.3877 16.9766 10.6514 16.7305 11.0117 16.7305H12.1279C11.1172 16.0449 10.4316 14.7881 10.4316 13.3115C10.4316 11.5537 11.3457 10.2002 12.8311 9.70801V8.94336C12.8311 8.68848 13.0068 8.5127 13.2617 8.5127C13.499 8.5127 13.6836 8.68848 13.6836 8.94336V9.5498C13.8242 9.54102 13.9736 9.53223 14.1055 9.53223C14.2197 9.53223 14.3428 9.53223 14.457 9.54102V8.94336C14.457 8.68848 14.6328 8.5127 14.8789 8.5127C15.125 8.5127 15.3008 8.68848 15.3008 8.94336V9.73438C16.7422 10.2266 17.5859 11.6328 17.5947 13.0918C17.5947 13.4785 17.3398 13.7598 16.9443 13.7598C16.54 13.7598 16.2939 13.4961 16.2764 13.1094C16.25 12.2393 15.8896 11.5449 15.3008 11.1406V13.2412C15.3008 13.4873 15.125 13.6631 14.8789 13.6631C14.6328 13.6631 14.457 13.4873 14.457 13.2412V10.8154C14.3516 10.7979 14.2285 10.7803 14.0967 10.7803C13.9736 10.7803 13.8242 10.7979 13.6836 10.8154V13.2412C13.6836 13.4873 13.5078 13.6631 13.2617 13.6631C13.0156 13.6631 12.8311 13.4873 12.8311 13.2412V11.123C12.1631 11.5537 11.7939 12.3535 11.7939 13.4961C11.7939 15.333 13.2529 16.7129 15.1074 16.7129H16.54C16.9092 16.7129 17.1729 16.959 17.1729 17.3105C17.1729 17.6621 16.918 17.9082 16.54 17.9082H11.0029Z" fill="#1C1C1E"/>
</svg>
