<svg width="28" height="28" viewBox="0 0 28 28" fill="none" xmlns="http://www.w3.org/2000/svg">
<path d="M13.9912 22.7422C18.9746 22.7422 23.0879 18.6289 23.0879 13.6543C23.0879 8.67969 18.9658 4.56641 13.9824 4.56641C9.00781 4.56641 4.90332 8.67969 4.90332 13.6543C4.90332 18.6289 9.0166 22.7422 13.9912 22.7422ZM13.9912 20.9316C9.95703 20.9316 6.73145 17.6885 6.73145 13.6543C6.73145 9.62012 9.95703 6.38574 13.9824 6.38574C18.0166 6.38574 21.2598 9.62012 21.2686 13.6543C21.2773 17.6885 18.0254 20.9316 13.9912 20.9316ZM11.1172 17.7588H16.4434C16.8037 17.7588 17.041 17.5215 17.041 17.1787C17.041 16.8447 16.7949 16.6074 16.4434 16.6074H15.0723C13.2793 16.6074 11.873 15.2803 11.873 13.5137C11.873 12.4062 12.2334 11.6328 12.875 11.2197V13.2588C12.875 13.5049 13.0508 13.6719 13.2881 13.6719C13.5254 13.6719 13.6924 13.5049 13.6924 13.2588V10.9297C13.833 10.9033 13.9736 10.8945 14.0967 10.8945C14.2197 10.8945 14.334 10.9121 14.4395 10.9209V13.2588C14.4395 13.5049 14.6152 13.6719 14.8438 13.6719C15.0811 13.6719 15.2568 13.5049 15.2568 13.2588V11.2461C15.8193 11.6328 16.1709 12.3008 16.1973 13.1357C16.2148 13.5137 16.4521 13.7598 16.8301 13.7598C17.1992 13.7598 17.4453 13.4961 17.4453 13.1182C17.4453 11.7207 16.6279 10.376 15.2568 9.90137V9.12793C15.2568 8.89062 15.0811 8.72363 14.8438 8.72363C14.6152 8.72363 14.4395 8.89062 14.4395 9.12793V9.7168C14.334 9.69922 14.2109 9.69922 14.1055 9.69922C13.9736 9.69922 13.833 9.70801 13.6924 9.7168V9.12793C13.6924 8.89062 13.5254 8.72363 13.2881 8.72363C13.0508 8.72363 12.875 8.89062 12.875 9.12793V9.875C11.4512 10.3496 10.5811 11.6416 10.5811 13.3379C10.5811 14.7617 11.2314 15.9746 12.2158 16.625H11.126C10.7832 16.625 10.5371 16.8623 10.5371 17.1875C10.5371 17.5303 10.7656 17.7588 11.1172 17.7588Z" fill="#1C1C1E"/>
</svg>
