<svg width="28" height="28" viewBox="0 0 28 28" fill="none" xmlns="http://www.w3.org/2000/svg">
<path d="M8.76172 4.24121C8.8584 4.24121 8.9375 4.1709 8.96387 4.06543C9.13965 3.08105 9.0957 3.06348 10.1768 2.86133C10.2822 2.83496 10.3525 2.75586 10.3525 2.65918C10.3525 2.55371 10.2822 2.47461 10.1768 2.45703C9.0957 2.24609 9.13086 2.21094 8.96387 1.25293C8.9375 1.14746 8.86719 1.06836 8.76172 1.06836C8.65625 1.06836 8.58594 1.14746 8.55957 1.25293C8.35742 2.21094 8.41895 2.24609 7.34668 2.45703C7.24121 2.47461 7.1709 2.55371 7.1709 2.65918C7.1709 2.76465 7.24121 2.83496 7.35547 2.86133C8.41895 3.0459 8.35742 3.08105 8.55957 4.05664C8.58594 4.1709 8.65625 4.24121 8.76172 4.24121ZM5.91406 8.32812C6.05469 8.32812 6.17773 8.21387 6.2041 8.07324C6.47656 6.57031 6.38867 6.52637 8.01465 6.27148C8.16406 6.23633 8.26953 6.12207 8.26953 5.97266C8.26953 5.82324 8.16406 5.7002 8.01465 5.67383C6.38867 5.41895 6.47656 5.35742 6.2041 3.88965C6.17773 3.73145 6.06348 3.61719 5.91406 3.61719C5.75586 3.61719 5.65039 3.72266 5.61523 3.88965C5.33398 5.34863 5.43066 5.40137 3.80469 5.67383C3.65527 5.7002 3.5498 5.82324 3.5498 5.97266C3.5498 6.13086 3.65527 6.23633 3.83105 6.27148C5.42188 6.51758 5.33398 6.57031 5.61523 8.04688C5.65039 8.21387 5.74707 8.32812 5.91406 8.32812ZM9.97461 14.7969C10.1768 14.7969 10.335 14.6475 10.3701 14.4453C10.915 11.3076 11.2139 10.8945 14.3164 10.4814C14.5361 10.4551 14.6855 10.2881 14.6855 10.0771C14.6855 9.875 14.5361 9.7168 14.3164 9.68164C11.2314 9.26855 10.8359 8.88184 10.3701 5.72656C10.335 5.51562 10.1768 5.36621 9.97461 5.36621C9.77246 5.36621 9.61426 5.50684 9.57031 5.71777C9.03418 8.86426 8.72656 9.26855 5.62402 9.68164C5.4043 9.7168 5.25488 9.875 5.25488 10.0771C5.25488 10.2881 5.4043 10.4551 5.62402 10.4814C8.70898 10.8418 9.11328 11.2812 9.57031 14.4365C9.60547 14.6475 9.75488 14.7969 9.97461 14.7969ZM11.7061 6.33301C11.8643 7.22949 11.9521 7.59863 12.4004 7.83594C13.543 7.39648 14.791 7.16797 16.0215 7.16797C19.7568 7.16797 22.8242 9.42676 22.8242 12.8633C22.8242 14.4189 21.9893 15.8779 20.7412 16.959C19.9678 15.9746 18.7373 15.3682 17.3047 15.3682C15.125 15.3682 13.5166 16.5107 13.5166 18.1895C13.5166 18.3037 13.5254 18.418 13.543 18.5234C10.1328 18.4004 7.4873 16.7305 7.4873 13.6367C7.4873 13.1973 7.56641 12.7842 7.69824 12.4062C7.45215 11.9932 6.94238 11.8877 6.17773 11.7646C5.97559 12.3447 5.87012 12.9688 5.87012 13.6279C5.87012 17.7324 9.37695 20.1406 13.877 20.1406C14.1934 20.1406 14.5186 20.123 14.835 20.1055C15.2217 20.2637 15.6787 20.3516 16.1885 20.3516C17.5068 20.3516 18.8164 20 20.0029 19.3936C20.0029 19.4551 20.0117 19.5254 20.0117 19.5869C20.0117 20.5889 19.4229 21.582 18.4561 22.2061C18.1484 22.417 17.9463 22.6543 17.9463 23.0146C17.9463 23.4277 18.2715 23.7617 18.7725 23.7617C18.9834 23.7617 19.1416 23.7002 19.335 23.5684C20.7412 22.6543 21.6201 21.125 21.6201 19.5693C21.6201 19.1738 21.5762 18.7959 21.4795 18.4443C23.2373 17.0557 24.4414 15.0518 24.4414 12.8633C24.4414 8.53027 20.6973 5.54199 16.0127 5.54199C14.5361 5.54199 13.0508 5.82324 11.7061 6.33301ZM15.1426 18.1631C15.1426 17.4688 16.1357 16.9941 17.4102 16.9941C18.2451 16.9941 18.9482 17.3281 19.4141 17.8818C18.4209 18.4268 17.2959 18.7432 16.1885 18.7432C15.5908 18.7432 15.1426 18.5059 15.1426 18.1631Z" fill="#1C1C1E"/>
</svg>
