<svg width="28" height="28" viewBox="0 0 28 28" fill="none" xmlns="http://www.w3.org/2000/svg">
<path d="M4.9209 13.6543C4.9209 18.6289 9.03418 22.7334 14 22.7334C18.9658 22.7334 23.0791 18.6289 23.0791 13.6543C23.0791 10.8066 21.6641 8.11719 19.5195 6.51758C19.0537 6.13086 18.4824 6.20996 18.2012 6.61426C17.8936 7.04492 18.0254 7.55469 18.4385 7.90625C20.1699 9.2334 21.2861 11.2988 21.2949 13.6543C21.2949 17.6973 18.043 20.9492 14 20.9492C9.95703 20.9492 6.71387 17.6973 6.71387 13.6543C6.71387 10.2354 9.03418 7.3877 12.1982 6.60547V7.85352C12.1982 8.52148 12.6904 8.71484 13.2354 8.32812L16.1885 6.22754C16.6279 5.91992 16.6279 5.42773 16.1885 5.11133L13.2441 3.01074C12.6992 2.62402 12.1982 2.7998 12.1982 3.48535V4.76855C8.07617 5.60352 4.9209 9.29492 4.9209 13.6543ZM9.74609 10.7979C9.67578 11.1934 9.62305 11.7119 9.62305 12.0635C9.62305 14.999 11.3809 16.9414 14.0439 16.9414C15.3711 16.9414 16.1445 16.3525 16.5312 15.9219C16.8564 16.3613 17.0322 16.8447 17.2344 17.4951C17.2959 17.6797 17.4277 17.7588 17.5771 17.7588C17.876 17.7588 18.1221 17.4951 18.1221 17.1436C18.1221 16.5986 17.3398 15.6582 16.9268 15.2803C15.1953 13.6895 12.585 14.6387 11.9258 12.8984C11.8818 12.7754 12.0137 12.6699 12.1367 12.7842C13.5605 14.0059 15.2305 13.0215 16.8916 14.5508C17.0498 14.6914 17.2168 14.6211 17.252 14.4629C17.2783 14.3486 17.2871 14.1641 17.2871 13.9971C17.2871 12.0898 15.96 11.1406 14.0615 11.1406C13.4287 11.1406 12.6992 11.3076 12.1279 11.3076C11.5039 11.3076 10.8184 11.2373 10.2471 10.666C10.0625 10.4814 9.80762 10.5078 9.74609 10.7979Z" fill="#1C1C1E"/>
</svg>
