<svg width="28" height="28" viewBox="0 0 28 28" fill="none" xmlns="http://www.w3.org/2000/svg">
<path d="M8.67383 21.8809H19.3174C21.2246 21.8809 22.209 20.8965 22.209 19.0156V8.31934C22.209 6.43848 21.2246 5.4541 19.3174 5.4541H8.67383C6.77539 5.4541 5.78223 6.42969 5.78223 8.31934V19.0156C5.78223 20.8965 6.77539 21.8809 8.67383 21.8809ZM16.373 17.4072C16.1709 17.4072 16.0215 17.3633 15.8545 17.2842L10.5107 14.542C10.0889 14.3398 9.89551 14.085 9.89551 13.6631C9.89551 13.2764 10.0977 12.9863 10.5107 12.7666L15.8545 9.94531C16.0303 9.86621 16.1709 9.82227 16.3818 9.82227C16.8828 9.82227 17.2432 10.1914 17.2432 10.6748C17.2432 11.0791 17.0498 11.3428 16.584 11.5449L12.3564 13.6016V13.6631L16.584 15.6846C17.0586 15.8867 17.2432 16.1328 17.2432 16.5459C17.2432 17.0381 16.874 17.4072 16.373 17.4072Z" fill="#1C1C1E"/>
</svg>
