<svg width="28" height="28" viewBox="0 0 28 28" fill="none" xmlns="http://www.w3.org/2000/svg">
<path d="M8.67383 21.8809H19.3174C21.2246 21.8809 22.209 20.8965 22.209 19.0156V8.31934C22.209 6.43848 21.2246 5.4541 19.3174 5.4541H8.67383C6.77539 5.4541 5.78223 6.42969 5.78223 8.31934V19.0156C5.78223 20.8965 6.77539 21.8809 8.67383 21.8809ZM8.78809 20.1318C7.97949 20.1318 7.53125 19.71 7.53125 18.8574V8.47754C7.53125 7.625 7.97949 7.20312 8.78809 7.20312H19.2031C20.0029 7.20312 20.46 7.625 20.46 8.47754V18.8574C20.46 19.71 20.0029 20.1318 19.2031 20.1318H8.78809ZM16.2412 17.2578C16.7246 17.2578 17.0762 16.9062 17.0762 16.4404C17.0762 16.0449 16.9004 15.8076 16.4434 15.6143L12.374 13.6631V13.6016L16.4434 11.6152C16.8916 11.4131 17.0762 11.1758 17.0762 10.7891C17.0762 10.3232 16.7246 9.98047 16.25 9.98047C16.0479 9.98047 15.916 10.0156 15.749 10.0947L10.6074 12.8105C10.2207 13.0127 10.0273 13.2852 10.0273 13.6631C10.0273 14.0586 10.2119 14.3047 10.6074 14.5068L15.749 17.1348C15.9072 17.2139 16.0479 17.2578 16.2412 17.2578Z" fill="#1C1C1E"/>
</svg>
