<svg width="28" height="28" viewBox="0 0 28 28" fill="none" xmlns="http://www.w3.org/2000/svg">
<path d="M13.9912 22.7422C18.9746 22.7422 23.0879 18.6289 23.0879 13.6543C23.0879 8.67969 18.9658 4.56641 13.9824 4.56641C9.00781 4.56641 4.90332 8.67969 4.90332 13.6543C4.90332 18.6289 9.0166 22.7422 13.9912 22.7422ZM16.3379 17.4072C16.1357 17.4072 15.9863 17.3633 15.8193 17.2842L10.4668 14.542C10.0537 14.3398 9.86035 14.085 9.86035 13.6631C9.86035 13.2764 10.0625 12.9863 10.4668 12.7666L15.8193 9.94531C15.9951 9.86621 16.1357 9.82227 16.3467 9.82227C16.8477 9.82227 17.208 10.1914 17.208 10.6748C17.208 11.0791 17.0146 11.3428 16.5488 11.5449L12.3213 13.6016V13.6631L16.5488 15.6846C17.0234 15.8867 17.208 16.1328 17.208 16.5459C17.208 17.0381 16.8389 17.4072 16.3379 17.4072Z" fill="#1C1C1E"/>
</svg>
