<svg width="28" height="28" viewBox="0 0 28 28" fill="none" xmlns="http://www.w3.org/2000/svg">
<path d="M5.55371 18.6025H22.4463C24.0723 18.6025 24.9424 17.7324 24.9424 16.1328V11.1934C24.9424 9.58496 24.0635 8.71484 22.4375 8.71484H5.54492C3.92773 8.71484 3.05762 9.58496 3.05762 11.1934V16.1328C3.05762 17.7324 3.92773 18.6025 5.55371 18.6025ZM5.78223 16.9326C5.11426 16.9326 4.72754 16.5547 4.72754 15.8516V11.4658C4.72754 10.7627 5.11426 10.3848 5.78223 10.3848H6.7666V16.9326H5.78223ZM14.0088 14.1113C16.5049 14.1113 18.3945 12.6436 18.79 10.3848H20.3018V16.9326H7.69824V10.3848H9.20996C9.60547 12.6436 11.4951 14.1113 14.0088 14.1113ZM14.0088 11.9932C15.0986 11.9932 15.9336 11.3691 16.1445 10.3848H17.7617C17.4189 12.1162 15.9424 13.2324 14.0088 13.2324C12.0576 13.2324 10.5811 12.125 10.2383 10.3848H11.8555C12.0664 11.3691 12.9014 11.9932 14.0088 11.9932ZM22.2178 10.3848C22.8857 10.3848 23.2725 10.7627 23.2725 11.4658V15.8516C23.2725 16.5547 22.877 16.9326 22.209 16.9326H21.2334V10.3848H22.2178Z" fill="#1C1C1E"/>
</svg>
