<svg width="28" height="28" viewBox="0 0 28 28" fill="none" xmlns="http://www.w3.org/2000/svg">
<path d="M13.9912 22.7598C18.9746 22.7598 23.0879 18.6465 23.0879 13.6631C23.0879 8.68848 18.9658 4.5752 13.9824 4.5752C9.00781 4.5752 4.90332 8.68848 4.90332 13.6631C4.90332 18.6465 9.0166 22.7598 13.9912 22.7598ZM7.90918 9.35645C8.375 8.65332 8.97266 8.04688 9.67578 7.56348L11.4424 9.33008C10.7129 9.76074 10.0889 10.3848 9.66699 11.1143L7.90918 9.35645ZM20.082 9.36523L18.3242 11.123C17.8936 10.3936 17.2695 9.76953 16.54 9.33887L18.3066 7.57227C19.0098 8.05566 19.6074 8.66211 20.082 9.36523ZM14 16.8096C12.251 16.8096 10.8447 15.4033 10.8447 13.6543C10.8447 11.9053 12.251 10.4902 14 10.4902C15.749 10.4902 17.1553 11.9053 17.1553 13.6543C17.1553 15.4033 15.749 16.8096 14 16.8096ZM20.0908 17.9258C19.6074 18.6289 19.0098 19.2354 18.3154 19.7188L16.5488 17.9521C17.2783 17.5215 17.9023 16.8975 18.3242 16.168L20.0908 17.9258ZM7.90918 17.9346L9.66699 16.1768C10.0889 16.915 10.7217 17.5303 11.4424 17.9609L9.68457 19.7275C8.98145 19.2529 8.38379 18.6377 7.90918 17.9346Z" fill="#1C1C1E"/>
</svg>
