<svg width="28" height="28" viewBox="0 0 28 28" fill="none" xmlns="http://www.w3.org/2000/svg">
<path d="M10.748 19.0332H17.252C17.6035 19.0332 17.8408 18.7959 17.8408 18.4443V17.0996C17.8408 14.9727 20.9609 13.6367 20.9609 9.75195C20.9609 5.63867 18.1572 2.87891 14 2.87891C9.83398 2.87891 7.03906 5.63867 7.03906 9.75195C7.03906 13.6367 10.1592 14.9727 10.1592 17.0996V18.4443C10.1592 18.7959 10.3965 19.0332 10.748 19.0332ZM11.0029 21.4766H16.9971C17.4717 21.4766 17.8584 21.0898 17.8584 20.6064C17.8584 20.1318 17.4717 19.7363 16.9971 19.7363H11.0029C10.5283 19.7363 10.1416 20.1318 10.1416 20.6064C10.1416 21.0898 10.5283 21.4766 11.0029 21.4766ZM14 23.6914C15.2832 23.6914 16.2061 23.0938 16.2939 22.1885H11.6973C11.7852 23.0938 12.6992 23.6914 14 23.6914Z" fill="#1C1C1E"/>
</svg>
