<svg width="28" height="28" viewBox="0 0 28 28" fill="none" xmlns="http://www.w3.org/2000/svg">
<path d="M13.9999 4.43457C17.2431 4.43457 19.4052 6.54395 19.4052 9.74316C19.4052 11.5625 18.4647 12.793 17.6386 13.9619L18.7196 15.0342C19.6161 13.7422 20.9608 12.2832 20.9608 9.74316C20.9608 5.62988 18.1659 2.87891 13.9999 2.87891C11.7675 2.87891 9.93934 3.66992 8.71766 5.04102L9.85145 6.16602C10.7831 5.06738 12.2245 4.43457 13.9999 4.43457ZM20.2225 20.0879C20.5038 20.3691 20.9345 20.3604 21.2069 20.0879C21.4794 19.8154 21.4794 19.3672 21.2069 19.0947L6.29188 4.1709C6.01063 3.88965 5.56239 3.90723 5.29872 4.1709C5.02626 4.43457 5.03505 4.90918 5.29872 5.16406L20.2225 20.0879ZM10.7567 19.0332H16.8475C16.9618 19.0332 17.0058 18.9189 16.9354 18.8223V18.5322L15.5731 17.1787V17.5039H11.6972V17.0469C11.6972 14.6562 8.74403 12.7402 8.74403 10.6748C8.74403 10.5166 8.7704 10.376 8.80556 10.2354L7.17079 8.61816C7.09169 8.96973 7.04774 9.34766 7.04774 9.74316C7.04774 13.6279 10.1591 14.9639 10.1591 17.0908V18.4443C10.1591 18.7959 10.3964 19.0332 10.7567 19.0332ZM11.0028 21.4766H16.997C17.4716 21.4766 17.8583 21.0898 17.8583 20.6064C17.8583 20.1318 17.4716 19.7363 16.997 19.7363H11.0028C10.5282 19.7363 10.1415 20.1318 10.1415 20.6064C10.1415 21.0898 10.5282 21.4766 11.0028 21.4766ZM13.9999 23.6914C15.2919 23.6914 16.2059 23.0938 16.3026 22.1885H11.7059C11.785 23.0938 12.6991 23.6914 13.9999 23.6914Z" fill="#1C1C1E"/>
</svg>
