<svg width="28" height="28" viewBox="0 0 28 28" fill="none" xmlns="http://www.w3.org/2000/svg">
<path d="M14 10.8682C14.6416 10.8682 15.1777 10.332 15.1777 9.68164C15.1777 9.04004 14.6504 8.50391 14 8.50391C13.3408 8.50391 12.8223 9.02246 12.8223 9.68164C12.8223 10.3232 13.3672 10.8682 14 10.8682ZM7.63672 13.6367C8.27832 13.6367 8.82324 13.0918 8.82324 12.459C8.82324 11.7998 8.2959 11.2725 7.63672 11.2725C6.98633 11.2725 6.45898 11.8086 6.45898 12.459C6.45898 13.1006 6.99512 13.6367 7.63672 13.6367ZM20.3809 13.6367C21.0225 13.6367 21.5674 13.0918 21.5674 12.459C21.5674 11.7998 21.04 11.2725 20.3809 11.2725C19.7305 11.2725 19.2031 11.8086 19.2031 12.459C19.2031 13.1006 19.7393 13.6367 20.3809 13.6367ZM22.6045 19.5254C23.2549 19.5254 23.7822 19.0068 23.7822 18.3477C23.7822 17.7061 23.2373 17.1699 22.6045 17.1699C21.9541 17.1699 21.418 17.7061 21.418 18.3477C21.418 18.998 21.9453 19.5254 22.6045 19.5254ZM5.39551 19.5254C6.03711 19.5254 6.58203 18.998 6.58203 18.3477C6.58203 17.6973 6.06348 17.1699 5.39551 17.1699C4.75391 17.1699 4.21777 17.7061 4.21777 18.3477C4.21777 18.998 4.75391 19.5254 5.39551 19.5254ZM10.7744 19.3936H17.1641C17.7178 19.3936 18.1748 18.9453 18.1748 18.4004C18.1748 17.8643 17.7178 17.4072 17.1641 17.4072H10.7744C10.2295 17.4072 9.77246 17.8643 9.77246 18.4004C9.77246 18.9453 10.2295 19.3936 10.7744 19.3936Z" fill="#1C1C1E"/>
</svg>
