<svg width="28" height="28" viewBox="0 0 28 28" fill="none" xmlns="http://www.w3.org/2000/svg">
<path d="M14.958 8.57422C14.958 8.05566 14.5186 7.61621 14 7.61621C13.4814 7.61621 13.042 8.05566 13.042 8.57422V11.2549C13.042 11.7734 13.4814 12.2041 14 12.2041C14.5186 12.2041 14.958 11.7734 14.958 11.2549V8.57422ZM9.43848 13.9531C9.80762 13.584 9.79883 12.9775 9.43848 12.6084L7.54883 10.7012C7.18848 10.3408 6.57324 10.332 6.2041 10.6924C5.83496 11.0615 5.84375 11.6768 6.21289 12.0459L8.09375 13.9531C8.46289 14.3223 9.07812 14.3135 9.43848 13.9531ZM18.4736 14.0322C18.834 14.3926 19.458 14.3926 19.8184 14.0234L21.7168 12.125C22.0859 11.7471 22.0947 11.1406 21.7168 10.7715C21.3564 10.4111 20.75 10.4023 20.3721 10.7715L18.4736 12.6787C18.1045 13.0479 18.1045 13.6543 18.4736 14.0322ZM10.8008 19.3936H17.1904C17.7441 19.3936 18.2012 18.9453 18.2012 18.4004C18.2012 17.8643 17.7441 17.4072 17.1904 17.4072H10.8008C10.2559 17.4072 9.79004 17.8643 9.79004 18.4004C9.79004 18.9453 10.2559 19.3936 10.8008 19.3936ZM4.07715 17.4336C3.56738 17.4336 3.12793 17.873 3.12793 18.3828C3.12793 18.9014 3.56738 19.3408 4.07715 19.3408H6.7666C7.29395 19.3408 7.7334 18.9014 7.7334 18.3828C7.7334 17.873 7.29395 17.4336 6.7666 17.4336H4.07715ZM20.2754 18.3828C20.2754 18.9014 20.7148 19.3408 21.2334 19.3408H23.9229C24.4326 19.3408 24.8721 18.9014 24.8721 18.3828C24.8721 17.873 24.4326 17.4336 23.9229 17.4336H21.2334C20.7148 17.4336 20.2754 17.873 20.2754 18.3828Z" fill="#1C1C1E"/>
</svg>
