<svg width="28" height="28" viewBox="0 0 28 28" fill="none" xmlns="http://www.w3.org/2000/svg">
<path d="M14 21.7754C14.7031 21.7754 15.0635 21.4238 15.0635 20.7207V6.59668C15.0635 5.89355 14.7031 5.54199 14 5.54199C13.2969 5.54199 12.9453 5.89355 12.9453 6.59668V20.7207C12.9453 21.4238 13.2969 21.7754 14 21.7754ZM4.5957 18.2422C5.30762 18.2422 5.65918 17.8906 5.65918 17.1875V10.1299C5.65918 9.42676 5.30762 9.0752 4.5957 9.0752C3.90137 9.0752 3.54102 9.42676 3.54102 10.1299V17.1875C3.54102 17.8906 3.90137 18.2422 4.5957 18.2422ZM23.4043 18.2422C24.1074 18.2422 24.459 17.8906 24.459 17.1875V10.1299C24.459 9.42676 24.1074 9.0752 23.4043 9.0752C22.7012 9.0752 22.3408 9.42676 22.3408 10.1299V17.1875C22.3408 17.8906 22.7012 18.2422 23.4043 18.2422ZM9.30664 16.001C10.001 16.001 10.3525 15.6494 10.3525 14.9463V12.3711C10.3525 11.668 10.001 11.3164 9.30664 11.3164C8.60352 11.3164 8.24316 11.668 8.24316 12.3711V14.9463C8.24316 15.6494 8.60352 16.001 9.30664 16.001ZM18.6934 16.001C19.3965 16.001 19.7568 15.6494 19.7568 14.9463V12.3711C19.7568 11.668 19.3965 11.3164 18.6934 11.3164C17.999 11.3164 17.6475 11.668 17.6475 12.3711V14.9463C17.6475 15.6494 17.999 16.001 18.6934 16.001Z" fill="#1C1C1E"/>
</svg>
