<svg width="28" height="28" viewBox="0 0 28 28" fill="none" xmlns="http://www.w3.org/2000/svg">
<path d="M14 22.7334C18.9658 22.7334 23.0791 18.6289 23.0791 13.6543C23.0791 8.68848 18.9658 4.5752 13.9912 4.5752C9.02539 4.5752 4.9209 8.68848 4.9209 13.6543C4.9209 18.6289 9.03418 22.7334 14 22.7334ZM9.22754 13.1709C8.77051 13.1709 8.44531 12.8809 8.44531 12.4502C8.44531 12.0107 8.77051 11.7207 9.22754 11.7207H18.7988C19.2471 11.7207 19.5811 12.0107 19.5811 12.4502C19.5811 12.8809 19.2471 13.1709 18.7988 13.1709H9.22754ZM10.4932 16.2295C10.0361 16.2295 9.71973 15.9395 9.71973 15.5C9.71973 15.0781 10.0361 14.7881 10.4932 14.7881H17.5332C17.9902 14.7881 18.3066 15.0781 18.3066 15.5C18.3066 15.9395 17.9902 16.2295 17.5332 16.2295H10.4932Z" fill="#1C1C1E"/>
</svg>
