<svg width="28" height="28" viewBox="0 0 28 28" fill="none" xmlns="http://www.w3.org/2000/svg">
<path d="M14 22.7334C18.9658 22.7334 23.0791 18.6289 23.0791 13.6543C23.0791 8.68848 18.9658 4.5752 13.9912 4.5752C9.02539 4.5752 4.9209 8.68848 4.9209 13.6543C4.9209 18.6289 9.03418 22.7334 14 22.7334ZM14 20.9492C9.95703 20.9492 6.71387 17.6973 6.71387 13.6543C6.71387 9.61133 9.94824 6.36816 13.9912 6.36816C18.0342 6.36816 21.2861 9.61133 21.2949 13.6543C21.2949 17.6973 18.043 20.9492 14 20.9492ZM9.8252 11.4395H18.1924C18.623 11.4395 18.9307 11.1582 18.9307 10.7451C18.9307 10.332 18.623 10.0596 18.1924 10.0596H9.8252C9.38574 10.0596 9.07812 10.332 9.07812 10.7451C9.07812 11.1582 9.38574 11.4395 9.8252 11.4395ZM9.8252 14.3398H18.1924C18.623 14.3398 18.9307 14.0586 18.9307 13.6455C18.9307 13.2324 18.623 12.96 18.1924 12.96H9.8252C9.38574 12.96 9.07812 13.2324 9.07812 13.6455C9.07812 14.0586 9.38574 14.3398 9.8252 14.3398ZM9.8252 17.249H18.1924C18.623 17.249 18.9307 16.9678 18.9307 16.5547C18.9307 16.1416 18.623 15.8691 18.1924 15.8691H9.8252C9.38574 15.8691 9.07812 16.1416 9.07812 16.5547C9.07812 16.9678 9.38574 17.249 9.8252 17.249Z" fill="#1C1C1E"/>
</svg>
