<svg width="28" height="28" viewBox="0 0 28 28" fill="none" xmlns="http://www.w3.org/2000/svg">
<path d="M13.5869 17.3018L14.9316 15.9395C13.8945 15.8516 13.1475 15.5088 12.6113 14.9727C11.126 13.4873 11.126 11.3867 12.6025 9.91895L15.5205 6.99219C17.0059 5.51563 19.0977 5.50684 20.583 6.99219C22.0771 8.48633 22.0596 10.5781 20.5918 12.0547L19.0977 13.54C19.3789 14.1904 19.4756 14.9814 19.3174 15.667L21.8311 13.1621C23.9932 11.0088 24.002 7.93262 21.8223 5.75293C19.6338 3.56445 16.5752 3.58203 14.4131 5.74414L11.3545 8.80274C9.19238 10.9648 9.18359 14.0322 11.3633 16.2119C11.873 16.7305 12.5762 17.1172 13.5869 17.3018ZM14.4043 9.875L13.0596 11.2373C14.0967 11.334 14.8438 11.668 15.3799 12.2041C16.874 13.6895 16.8652 15.79 15.3887 17.2666L12.4707 20.1846C10.9854 21.6699 8.89355 21.6699 7.41699 20.1846C5.92285 18.6904 5.93164 16.6074 7.4082 15.1309L8.89355 13.6367C8.6123 12.9951 8.52441 12.2041 8.67383 11.5098L6.16016 14.0234C3.99805 16.1768 3.98926 19.2441 6.16895 21.4238C8.35742 23.6123 11.416 23.5947 13.5781 21.4414L16.6367 18.374C18.7988 16.2119 18.8076 13.1445 16.6279 10.9648C16.1182 10.4551 15.4238 10.0684 14.4043 9.875Z" fill="#1C1C1E"/>
</svg>
