<svg width="28" height="28" viewBox="0 0 28 28" fill="none" xmlns="http://www.w3.org/2000/svg">
<path d="M8.67383 21.8809H19.3174C21.2246 21.8809 22.209 20.8965 22.209 19.0156V8.31934C22.209 6.43848 21.2246 5.4541 19.3174 5.4541H8.67383C6.77539 5.4541 5.78223 6.42969 5.78223 8.31934V19.0156C5.78223 20.8965 6.77539 21.8809 8.67383 21.8809ZM10.6514 17.2139C10.6514 16.8799 10.8271 16.6689 11.1699 16.5283C11.7236 16.3525 12.1807 15.8779 12.2598 15.1748C12.2773 15.0781 12.2861 14.9814 12.2773 14.8848H11.126C10.8447 14.8848 10.6426 14.7002 10.6426 14.4277C10.6426 14.1465 10.8447 13.9619 11.126 13.9619H12.1631C12.1104 13.7158 12.0312 13.4609 11.9697 13.2061H11.126C10.8447 13.2061 10.6426 13.0215 10.6426 12.749C10.6426 12.4678 10.8447 12.2832 11.126 12.2832H11.8203C11.8115 12.1953 11.8027 12.1162 11.8027 12.0283C11.8027 10.3672 12.9541 9.29492 14.8789 9.29492C15.5205 9.29492 16.0566 9.36523 16.4785 9.5498C16.7949 9.69922 16.918 9.90137 16.918 10.165C16.918 10.5078 16.6982 10.71 16.3291 10.7012C16.0039 10.6748 15.6611 10.5254 15.0107 10.5254C13.877 10.5254 13.2354 11.1406 13.2354 12.0283C13.2354 12.1162 13.2354 12.2129 13.2441 12.2832H15.749C16.0215 12.2832 16.2236 12.4678 16.2236 12.749C16.2236 13.0215 16.0215 13.2061 15.749 13.2061H13.4111C13.4727 13.4521 13.5342 13.6982 13.5957 13.9619H15.749C16.0215 13.9619 16.2236 14.1465 16.2236 14.4277C16.2236 14.7002 16.0215 14.8848 15.749 14.8848H13.666C13.666 15.0166 13.6572 15.1396 13.6396 15.2715C13.5518 15.7988 13.3145 16.291 12.9629 16.5811H16.6016C16.9795 16.5811 17.252 16.8359 17.252 17.2051C17.252 17.5918 16.9795 17.8291 16.6016 17.8291H11.2842C10.915 17.8291 10.6514 17.5918 10.6514 17.2139Z" fill="#1C1C1E"/>
</svg>
