<svg width="28" height="28" viewBox="0 0 28 28" fill="none" xmlns="http://www.w3.org/2000/svg">
<path d="M8.67383 21.8809H19.3174C21.2246 21.8809 22.209 20.8965 22.209 19.0156V8.31934C22.209 6.43848 21.2246 5.4541 19.3174 5.4541H8.67383C6.77539 5.4541 5.78223 6.42969 5.78223 8.31934V19.0156C5.78223 20.8965 6.77539 21.8809 8.67383 21.8809ZM8.78809 20.1318C7.97949 20.1318 7.53125 19.71 7.53125 18.8574V8.47754C7.53125 7.625 7.97949 7.20312 8.78809 7.20312H19.2031C20.0029 7.20312 20.46 7.625 20.46 8.47754V18.8574C20.46 19.71 20.0029 20.1318 19.2031 20.1318H8.78809ZM10.7744 17.082C10.7744 17.4424 11.0117 17.6709 11.3721 17.6709H16.4873C16.8477 17.6709 17.1025 17.4336 17.1025 17.0732C17.1025 16.7217 16.8477 16.4844 16.4873 16.4844H12.9717C13.3057 16.2031 13.543 15.7285 13.6221 15.21C13.6396 15.0869 13.6484 14.9639 13.6572 14.8408H15.6611C15.9248 14.8408 16.1182 14.665 16.1182 14.4014C16.1182 14.1377 15.9248 13.9531 15.6611 13.9531H13.5869C13.5254 13.6982 13.4639 13.4609 13.4023 13.2236H15.6611C15.9248 13.2236 16.1182 13.0479 16.1182 12.7754C16.1182 12.5117 15.9248 12.3359 15.6611 12.3359H13.2529C13.2441 12.2656 13.2354 12.1689 13.2354 12.0898C13.2354 11.2285 13.8594 10.6396 14.9492 10.6396C15.5732 10.6396 15.9072 10.7803 16.2236 10.8066C16.5664 10.8242 16.7773 10.6221 16.7773 10.2969C16.7773 10.042 16.6543 9.84863 16.3555 9.7168C15.9512 9.53223 15.4414 9.46191 14.8262 9.46191C12.9805 9.46191 11.873 10.499 11.873 12.0898C11.873 12.1777 11.8818 12.2568 11.8906 12.3359H11.2227C10.9502 12.3359 10.7656 12.5117 10.7656 12.7754C10.7656 13.0479 10.959 13.2236 11.2227 13.2236H12.04C12.0928 13.4697 12.1631 13.7158 12.2158 13.9531H11.2227C10.9502 13.9531 10.7656 14.1377 10.7656 14.4014C10.7656 14.665 10.959 14.8408 11.2227 14.8408H12.3301C12.3389 14.9375 12.3301 15.0166 12.3213 15.1221C12.2334 15.7988 11.7939 16.2559 11.2666 16.4316C10.9326 16.5635 10.7744 16.7656 10.7744 17.082Z" fill="#1C1C1E"/>
</svg>
