<svg width="28" height="28" viewBox="0 0 28 28" fill="none" xmlns="http://www.w3.org/2000/svg">
<path d="M6.01956 9.7959L6.74905 9.25977L7.46097 9.7959C7.7598 10.0156 8.10257 9.77832 7.98831 9.44434L7.69827 8.56543L8.41898 8.0293C8.69144 7.82715 8.57718 7.44043 8.2432 7.44043H7.34671L7.04788 6.5C6.9512 6.20996 6.54691 6.20996 6.45023 6.5L6.1514 7.44043H5.24612C4.90335 7.44043 4.78909 7.82715 5.06155 8.0293L5.79105 8.56543L5.5098 9.44434C5.39554 9.77832 5.72952 10.0156 6.01956 9.7959ZM11.1963 9.10156H22.2354C22.71 9.10156 23.0791 8.73242 23.0791 8.25781C23.0791 7.7832 22.71 7.41406 22.2354 7.41406H11.1963C10.7217 7.41406 10.3526 7.7832 10.3526 8.25781C10.3526 8.73242 10.7217 9.10156 11.1963 9.10156ZM6.01956 15.1924L6.74905 14.6562L7.46097 15.1924C7.7598 15.4209 8.10257 15.1748 7.98831 14.8408L7.69827 13.9619L8.41898 13.4258C8.69144 13.2236 8.57718 12.8369 8.2432 12.8369H7.34671L7.04788 11.8965C6.9512 11.6064 6.54691 11.6064 6.45023 11.8965L6.1514 12.8369H5.24612C4.90335 12.8369 4.78909 13.2236 5.06155 13.4258L5.79105 13.9619L5.5098 14.8408C5.39554 15.1748 5.72952 15.4121 6.01956 15.1924ZM11.1963 14.5068H22.2354C22.71 14.5068 23.0791 14.1377 23.0791 13.6631C23.0791 13.1885 22.71 12.8193 22.2354 12.8193H11.1963C10.7217 12.8193 10.3526 13.1885 10.3526 13.6631C10.3526 14.1377 10.7217 14.5068 11.1963 14.5068ZM6.01956 20.6064L6.74905 20.0703L7.46097 20.6064C7.7598 20.835 8.10257 20.5889 7.98831 20.2549L7.69827 19.376L8.41898 18.8398C8.69144 18.6377 8.57718 18.251 8.2432 18.251H7.34671L7.04788 17.3105C6.9512 17.0205 6.54691 17.0205 6.45023 17.3105L6.1514 18.251H5.24612C4.90335 18.251 4.78909 18.6377 5.06155 18.8398L5.79105 19.376L5.5098 20.2549C5.39554 20.5889 5.72952 20.8262 6.01956 20.6064ZM11.1963 19.9121H22.2354C22.71 19.9121 23.0791 19.543 23.0791 19.0684C23.0791 18.5938 22.71 18.2246 22.2354 18.2246H11.1963C10.7217 18.2246 10.3526 18.5938 10.3526 19.0684C10.3526 19.543 10.7217 19.9121 11.1963 19.9121Z" fill="#1C1C1E"/>
</svg>
