<svg width="28" height="28" viewBox="0 0 28 28" fill="none" xmlns="http://www.w3.org/2000/svg">
<path d="M14 22.7334C18.9658 22.7334 23.0791 18.6289 23.0791 13.6543C23.0791 8.68848 18.9658 4.5752 13.9912 4.5752C9.02539 4.5752 4.9209 8.68848 4.9209 13.6543C4.9209 18.6289 9.03418 22.7334 14 22.7334ZM9.7373 11.5449C9.29785 11.5449 8.92871 11.1758 8.92871 10.7363C8.92871 10.2793 9.29785 9.91895 9.7373 9.91895C10.1855 9.91895 10.5459 10.2793 10.5459 10.7363C10.5459 11.167 10.1768 11.5449 9.7373 11.5449ZM11.9434 11.3164C11.627 11.3164 11.3633 11.0527 11.3633 10.7363C11.3633 10.4023 11.6094 10.1475 11.9434 10.1475H18.4473C18.7812 10.1475 19.0449 10.4023 19.0449 10.7363C19.0449 11.0615 18.7812 11.3164 18.4473 11.3164H11.9434ZM9.7373 14.4717C9.29785 14.4717 8.92871 14.1113 8.92871 13.6631C8.92871 13.2148 9.29785 12.8545 9.7373 12.8545C10.1768 12.8545 10.5459 13.2236 10.5459 13.6631C10.5459 14.1025 10.1768 14.4717 9.7373 14.4717ZM11.9434 14.252C11.627 14.252 11.3633 13.9883 11.3633 13.6631C11.3633 13.3467 11.627 13.0742 11.9434 13.0742H18.4473C18.7812 13.0742 19.0449 13.3379 19.0449 13.6631C19.0449 13.9971 18.7812 14.252 18.4473 14.252H11.9434ZM9.7373 17.4072C9.29785 17.4072 8.92871 17.0469 8.92871 16.5986C8.92871 16.1504 9.29785 15.79 9.7373 15.79C10.1768 15.79 10.5459 16.1592 10.5459 16.5986C10.5459 17.0469 10.1855 17.4072 9.7373 17.4072ZM11.9434 17.1787C11.6094 17.1787 11.3633 16.9238 11.3633 16.5986C11.3633 16.2734 11.627 16.0098 11.9434 16.0098H18.4473C18.7812 16.0098 19.0449 16.2646 19.0449 16.5986C19.0449 16.9238 18.7812 17.1787 18.4473 17.1787H11.9434Z" fill="#1C1C1E"/>
</svg>
