<svg width="28" height="28" viewBox="0 0 28 28" fill="none" xmlns="http://www.w3.org/2000/svg">
<path d="M6.45898 20.29C6.45898 22.1885 7.43457 23.1729 9.31543 23.1729H18.6758C20.5566 23.1729 21.5322 22.1885 21.5322 20.29V7.02734C21.5322 5.1377 20.5566 4.14453 18.6758 4.14453H9.31543C7.43457 4.14453 6.45898 5.1377 6.45898 7.02734V20.29ZM10.0801 9.09277C9.61426 9.09277 9.22754 8.70605 9.22754 8.24023C9.22754 7.7832 9.61426 7.3877 10.0801 7.3877C10.5459 7.3877 10.9326 7.77441 10.9326 8.24023C10.9326 8.71484 10.5459 9.09277 10.0801 9.09277ZM12.6641 8.84668C12.3301 8.84668 12.0576 8.57422 12.0576 8.24023C12.0576 7.91504 12.3301 7.64258 12.6641 7.64258H18.166C18.4912 7.64258 18.7637 7.91504 18.7637 8.24023C18.7637 8.57422 18.4912 8.84668 18.166 8.84668H12.6641ZM10.0801 11.8174C9.60547 11.8174 9.22754 11.4307 9.22754 10.9648C9.22754 10.499 9.60547 10.1211 10.0801 10.1211C10.5459 10.1211 10.9326 10.4902 10.9326 10.9648C10.9326 11.4307 10.5459 11.8174 10.0801 11.8174ZM12.6641 11.5625C12.3213 11.5625 12.0576 11.2988 12.0576 10.9648C12.0576 10.6309 12.3213 10.3672 12.6641 10.3672H18.166C18.5 10.3672 18.7637 10.6309 18.7637 10.9648C18.7637 11.2988 18.5 11.5625 18.166 11.5625H12.6641ZM10.0801 14.6738C9.61426 14.6738 9.22754 14.2783 9.22754 13.8213C9.22754 13.3555 9.61426 12.9688 10.0801 12.9688C10.5459 12.9688 10.9326 13.3467 10.9326 13.8213C10.9326 14.2871 10.5459 14.6738 10.0801 14.6738ZM12.6641 14.4102C12.3301 14.4102 12.0576 14.1465 12.0576 13.8213C12.0576 13.4873 12.3213 13.2236 12.6641 13.2236H18.166C18.5 13.2236 18.7637 13.4873 18.7637 13.8213C18.7637 14.1465 18.4912 14.4102 18.166 14.4102H12.6641Z" fill="#1C1C1E"/>
</svg>
