<svg width="28" height="28" viewBox="0 0 28 28" fill="none" xmlns="http://www.w3.org/2000/svg">
<path d="M8.67383 21.8721H19.3174C21.2158 21.8721 22.2002 20.8877 22.2002 19.0156V8.31934C22.2002 6.43848 21.2158 5.46289 19.3174 5.46289H8.67383C6.77539 5.46289 5.79102 6.43848 5.79102 8.31934V19.0156C5.79102 20.8965 6.77539 21.8721 8.67383 21.8721ZM9.35938 14.4014C8.5332 14.4014 8.375 13.4785 9.06934 13.1621L17.3398 9.25977C18.0957 8.9082 18.7549 9.56738 18.4033 10.3232L14.5361 18.6025C14.2197 19.2881 13.2969 19.1475 13.2969 18.3037V14.709C13.2969 14.5244 13.1738 14.4014 12.998 14.4014H9.35938Z" fill="#1C1C1E"/>
</svg>
