<svg width="28" height="28" viewBox="0 0 28 28" fill="none" xmlns="http://www.w3.org/2000/svg">
<path d="M13.9912 22.7598C18.9746 22.7598 23.0879 18.6465 23.0879 13.6631C23.0879 8.68848 18.9658 4.5752 13.9824 4.5752C9.00781 4.5752 4.90332 8.68848 4.90332 13.6631C4.90332 18.6465 9.0166 22.7598 13.9912 22.7598ZM10.9062 18.1016C10.3262 18.6816 9.5791 18.1807 9.85156 17.4863L13.2705 8.78516C13.543 8.09961 14.4043 8.08203 14.6768 8.77637L18.0957 17.4863C18.377 18.1895 17.6211 18.6816 17.041 18.1016L14.2021 15.2627C14.0615 15.1221 13.8857 15.1221 13.7451 15.2627L10.9062 18.1016Z" fill="#1C1C1E"/>
</svg>
