<svg width="28" height="28" viewBox="0 0 28 28" fill="none" xmlns="http://www.w3.org/2000/svg">
<path d="M13.9561 22.8125C14.1143 22.8125 14.3516 22.7598 14.5801 22.6367C19.6338 19.8857 21.3916 18.6113 21.3916 15.4121V8.77637C21.3916 7.72168 20.9873 7.34375 20.0996 6.96582C19.1328 6.55273 15.8457 5.41016 14.8965 5.08496C14.5977 4.98828 14.2637 4.92676 13.9561 4.92676C13.6572 4.92676 13.3145 5.00586 13.0244 5.08496C12.0752 5.35742 8.78809 6.56152 7.82129 6.96582C6.93359 7.33496 6.5293 7.72168 6.5293 8.77637V15.4121C6.5293 18.6113 8.28711 19.8682 13.3408 22.6367C13.5693 22.7598 13.8066 22.8125 13.9561 22.8125ZM13.9561 20.9492C13.833 20.9492 13.71 20.9053 13.4551 20.7471C9.44727 18.3037 8.19922 17.6445 8.19922 15.0869V9.05762C8.19922 8.74121 8.26074 8.61816 8.50684 8.5127C9.80762 7.99414 12.3301 7.15918 13.4902 6.70215C13.6924 6.63184 13.833 6.60547 13.9561 6.60547C14.0879 6.60547 14.2285 6.63184 14.4307 6.70215C15.5908 7.15918 18.0957 8.04688 19.4053 8.5127C19.6602 8.60938 19.7217 8.74121 19.7217 9.05762V15.0869C19.7217 17.6621 18.4209 18.3564 14.4658 20.7471C14.2109 20.9053 14.0879 20.9492 13.9561 20.9492ZM10.8096 16.7129C10.8096 17.3809 11.1084 17.6885 11.7324 17.6885H16.1885C16.8125 17.6885 17.1113 17.3809 17.1113 16.7129V13.2852C17.1113 12.6875 16.8652 12.3799 16.373 12.3271V11.3428C16.373 9.72559 15.3975 8.64453 13.9648 8.64453C12.5234 8.64453 11.5566 9.72559 11.5566 11.3428V12.3271C11.0557 12.3799 10.8096 12.6875 10.8096 13.2852V16.7129ZM12.5938 12.3096V11.2549C12.5938 10.2881 13.1387 9.64648 13.9648 9.64648C14.791 9.64648 15.3359 10.2881 15.3359 11.2549V12.3096H12.5938Z" fill="#1C1C1E"/>
</svg>
