<svg width="28" height="28" viewBox="0 0 28 28" fill="none" xmlns="http://www.w3.org/2000/svg">
<path d="M8.22559 4.72461H19.7744C19.7129 3.93359 19.2471 3.51172 18.3945 3.51172H9.60547C8.75293 3.51172 8.28711 3.93359 8.22559 4.72461ZM6.50293 7.28223H21.5059C21.3828 6.44727 20.9521 5.96387 20.0117 5.96387H7.98828C7.04785 5.96387 6.62598 6.44727 6.50293 7.28223ZM7.36426 23.832H20.6182C22.5166 23.832 23.5186 22.8477 23.5186 20.9668V11.5977C23.5186 9.7168 22.5166 8.73242 20.6182 8.73242H7.36426C5.45703 8.73242 4.47266 9.70801 4.47266 11.5977V20.9668C4.47266 22.8477 5.45703 23.832 7.36426 23.832ZM7.47852 22.0742C6.66992 22.0742 6.22168 21.6611 6.22168 20.8086V11.7559C6.22168 10.9033 6.66992 10.4814 7.47852 10.4814H20.5039C21.3125 10.4814 21.7607 10.9033 21.7607 11.7559V20.8086C21.7607 21.6611 21.3125 22.0742 20.5039 22.0742H7.47852ZM10.8535 19.5869C10.8535 20.2549 11.1523 20.5713 11.7676 20.5713H16.2324C16.8477 20.5713 17.1465 20.2549 17.1465 19.5869V16.168C17.1465 15.5703 16.9004 15.2627 16.4082 15.21V14.2168C16.4082 12.5996 15.4326 11.5186 14 11.5186C12.5674 11.5186 11.5918 12.5996 11.5918 14.2168V15.21C11.0996 15.2627 10.8535 15.5703 10.8535 16.168V19.5869ZM12.6289 15.1924V14.1289C12.6289 13.1621 13.1738 12.5293 14 12.5293C14.8262 12.5293 15.3711 13.1621 15.3711 14.1289V15.1924H12.6289Z" fill="#1C1C1E"/>
</svg>
