<svg width="28" height="28" viewBox="0 0 28 28" fill="none" xmlns="http://www.w3.org/2000/svg">
<path d="M6.47656 21.8809H21.5146C23.4219 21.8809 24.415 20.8965 24.415 19.0156V8.31934C24.415 6.43848 23.4219 5.4541 21.5146 5.4541H6.47656C4.57812 5.4541 3.58496 6.42969 3.58496 8.31934V19.0156C3.58496 20.8965 4.57812 21.8809 6.47656 21.8809ZM10.7305 17.1084V13.5576C10.7305 12.9336 10.9854 12.6084 11.4951 12.5557V11.5361C11.4951 9.85742 12.5059 8.72363 14 8.72363C15.4941 8.72363 16.5137 9.85742 16.5137 11.5361V12.5645C17.0234 12.6084 17.2695 12.9336 17.2695 13.5576V17.1084C17.2695 17.8115 16.9619 18.1279 16.3203 18.1279H11.6885C11.0381 18.1279 10.7305 17.8115 10.7305 17.1084ZM12.585 12.5381H15.4238V11.4395C15.4238 10.4463 14.8525 9.77832 14 9.77832C13.1475 9.77832 12.585 10.4463 12.585 11.4395V12.5381Z" fill="#1C1C1E"/>
</svg>
