<svg width="28" height="28" viewBox="0 0 28 28" fill="none" xmlns="http://www.w3.org/2000/svg">
<path d="M4.01562 13.6543C4.01562 18.6289 8.12891 22.7422 13.1035 22.7422C15.9424 22.7422 18.623 21.3184 20.2314 19.2002C20.627 18.7256 20.5479 18.1543 20.1436 17.8643C19.7129 17.5479 19.1943 17.6797 18.834 18.0928C17.498 19.8154 15.459 20.9229 13.1035 20.9229C9.06934 20.9316 5.83496 17.6885 5.83496 13.6543C5.83496 9.62012 9.06934 6.38574 13.1035 6.38574C16.5137 6.38574 19.3525 8.68848 20.1523 11.835H18.8779C18.21 11.835 18.0254 12.3447 18.4121 12.8896L20.5215 15.8516C20.8379 16.2998 21.3301 16.2998 21.6553 15.8516L23.7646 12.8896C24.1602 12.3447 23.9756 11.835 23.2988 11.835H22.0156C21.1631 7.71289 17.4629 4.56641 13.1035 4.56641C8.12891 4.56641 4.01562 8.67969 4.01562 13.6543ZM10.0273 16.9678C10.0273 17.6357 10.3262 17.9434 10.9414 17.9434H15.4062C16.0215 17.9434 16.3203 17.6357 16.3203 16.9678V13.5576C16.3203 12.8809 16.0215 12.5732 15.4062 12.5732L11.8027 12.5645V11.5098C11.8027 10.543 12.3477 9.90137 13.1914 9.90137C14 9.90137 14.5449 10.4287 14.5449 11.2197V11.3955C14.5449 11.7207 14.7822 11.9053 15.0723 11.9053C15.3623 11.9053 15.582 11.7119 15.582 11.3867V11.2021C15.582 9.83105 14.6152 8.89941 13.1914 8.89941C11.7412 8.89941 10.7656 9.98047 10.7656 11.5977V12.582C10.2734 12.6348 10.0273 12.9424 10.0273 13.54V16.9678Z" fill="#1C1C1E"/>
</svg>
