<svg width="28" height="28" viewBox="0 0 28 28" fill="none" xmlns="http://www.w3.org/2000/svg">
<path d="M8.67383 21.8809H19.3174C21.2246 21.8809 22.209 20.8965 22.209 19.0156V8.31934C22.209 6.43848 21.2246 5.4541 19.3174 5.4541H8.67383C6.77539 5.4541 5.78223 6.42969 5.78223 8.31934V19.0156C5.78223 20.8965 6.77539 21.8809 8.67383 21.8809ZM10.748 17.0996V13.5488C10.748 12.916 11.0029 12.5996 11.5127 12.5469V11.5273C11.5127 9.83984 12.5322 8.71484 14.0176 8.71484C15.5205 8.71484 16.5312 9.83984 16.5312 11.5273V12.5469C17.041 12.5996 17.2959 12.916 17.2959 13.5488V17.0996C17.2959 17.7939 16.9795 18.1191 16.3379 18.1191H11.7061C11.0645 18.1191 10.748 17.7939 10.748 17.0996ZM12.6025 12.5293H15.4414V11.4307C15.4414 10.4287 14.8789 9.76953 14.0176 9.76953C13.165 9.76953 12.6025 10.4287 12.6025 11.4307V12.5293Z" fill="#1C1C1E"/>
</svg>
