<svg width="28" height="28" viewBox="0 0 28 28" fill="none" xmlns="http://www.w3.org/2000/svg">
<path d="M5.51855 19.8154H11.126V21.4062H11.0908C10.6514 21.4062 10.291 21.7666 10.291 22.2061C10.291 22.6367 10.6514 22.9971 11.0908 22.9971H16.9004C17.3398 22.9971 17.7002 22.6367 17.7002 22.2061C17.7002 21.7666 17.3398 21.4062 16.9004 21.4062H16.8652V19.8154H22.4639C23.835 19.8154 24.6611 18.998 24.6611 17.627V7.03613C24.6611 5.66504 23.835 4.84766 22.4639 4.84766H5.51855C4.15625 4.84766 3.33008 5.66504 3.33008 7.03613V17.627C3.33008 18.998 4.15625 19.8154 5.51855 19.8154ZM5.38672 15.7549C5.13184 15.7549 5.01758 15.6582 5.01758 15.3857V7.13281C5.01758 6.76367 5.24609 6.52637 5.62402 6.52637H22.3672C22.7451 6.52637 22.9736 6.76367 22.9736 7.13281V15.3857C22.9736 15.6582 22.8594 15.7549 22.6045 15.7549H5.38672ZM10.8711 13.4521C10.8711 13.9619 11.1172 14.2168 11.6006 14.2168H14.6152C15.0986 14.2168 15.3359 13.9619 15.3359 13.4521V11.1494C15.3359 10.7012 15.1514 10.4551 14.7734 10.4023V9.69043C14.7734 9.05762 15.1074 8.65332 15.6875 8.65332C16.2676 8.65332 16.6016 9.05762 16.6016 9.69043V10.2529C16.6016 10.5078 16.8037 10.7188 17.0674 10.7188C17.3135 10.7188 17.5244 10.5078 17.5244 10.2529V9.69043C17.5244 8.56543 16.8037 7.75684 15.6875 7.75684C14.5713 7.75684 13.8506 8.56543 13.8506 9.75195V10.3848H11.6006C11.1172 10.3848 10.8711 10.6396 10.8711 11.1494V13.4521Z" fill="#1C1C1E"/>
</svg>
