<svg width="28" height="28" viewBox="0 0 28 28" fill="none" xmlns="http://www.w3.org/2000/svg">
<path d="M2.39844 16.0537C2.39844 17.9434 3.38281 18.9189 5.29004 18.9189H5.7207V11.2549C5.7207 8.64453 7.1709 7.20312 9.79883 7.20312H21.0664V7.08887C21.0664 5.20801 20.0732 4.22363 18.1748 4.22363H5.29004C3.38281 4.22363 2.39844 5.20801 2.39844 7.08887V16.0537ZM9.9043 23.1113H22.7012C24.5996 23.1113 25.6016 22.127 25.6016 20.2461V11.3604C25.6016 9.47949 24.5996 8.49512 22.7012 8.49512H9.9043C7.99707 8.49512 7.0127 9.4707 7.0127 11.3604V20.2461C7.0127 22.127 7.99707 23.1113 9.9043 23.1113ZM13.1475 19.2441V15.6934C13.1475 15.0693 13.4023 14.7441 13.9121 14.6914V13.6719C13.9121 11.9932 14.9229 10.8594 16.417 10.8594C17.9111 10.8594 18.9219 11.9932 18.9219 13.6719V14.6914C19.4316 14.7441 19.6865 15.0693 19.6865 15.6934V19.2441C19.6865 19.9473 19.3789 20.2637 18.7373 20.2637H14.1055C13.4551 20.2637 13.1475 19.9473 13.1475 19.2441ZM14.9932 14.6738H17.8408V13.5752C17.8408 12.5732 17.2695 11.9141 16.417 11.9141C15.5645 11.9141 14.9932 12.582 14.9932 13.5752V14.6738Z" fill="#1C1C1E"/>
</svg>
