<svg width="28" height="28" viewBox="0 0 28 28" fill="none" xmlns="http://www.w3.org/2000/svg">
<path d="M9.28027 5.8584C9.23633 5.87598 9.25391 5.94629 9.30664 5.9375C9.48242 5.90234 9.70215 5.87598 9.91309 5.87598C10.6777 5.87598 11.3896 6.07812 12.2861 6.42969C12.6729 6.57031 12.998 6.71973 13.3145 6.88672C13.5869 7.02734 13.8066 7.15039 13.9297 7.21191C13.9736 7.23828 14.0176 7.23828 14.0615 7.21191C14.1846 7.15039 14.3955 7.02734 14.6768 6.88672C14.9932 6.71973 15.3184 6.57031 15.6963 6.42969C16.6016 6.07812 17.3135 5.87598 18.0781 5.87598C18.2891 5.87598 18.5088 5.90234 18.6846 5.9375C18.7373 5.94629 18.7549 5.87598 18.7109 5.8584C18.0078 5.4541 17.2959 5.12891 16.5312 4.91797C15.7578 4.66309 14.9141 4.54004 13.9912 4.54004C13.0771 4.54004 12.2334 4.66309 11.46 4.91797C10.6953 5.12891 9.97461 5.4541 9.28027 5.8584ZM8.47168 13.9092C9.46484 12.3184 10.3701 10.9648 11.4863 9.61133C11.5039 9.59375 11.5039 9.55859 11.4863 9.53223C10.9678 9.02246 10.4932 8.58301 10.0889 8.2666C9.48242 7.80078 8.58594 7.11523 7.87402 7.11523C7.72461 7.11523 7.64551 7.13281 7.60156 7.17676C6.78418 7.97656 6.08984 9.00488 5.61523 10.0859C5.13184 11.2549 4.88574 12.415 4.88574 13.6543C4.88574 15.6758 5.50098 17.5127 6.74023 19.165C6.75781 19.1914 6.80176 19.1738 6.79297 19.1387C6.74902 19.0156 6.72266 18.7871 6.72266 18.585C6.72266 18.1279 6.80176 17.6357 6.95117 17.1787C7.39062 15.9043 7.85645 14.8848 8.47168 13.9092ZM16.5049 9.61133C17.6211 10.9648 18.5264 12.3184 19.5107 13.9092C20.1348 14.8848 20.6006 15.9043 21.04 17.1787C21.1895 17.6357 21.2686 18.1279 21.2686 18.585C21.2686 18.7871 21.2422 19.0156 21.1982 19.1387C21.1895 19.1738 21.2334 19.1914 21.251 19.165C22.4902 17.5127 23.1055 15.6758 23.1055 13.6543C23.1055 12.415 22.8594 11.2549 22.376 10.0859C21.9014 9.00488 21.207 7.97656 20.3896 7.17676C20.3457 7.13281 20.2666 7.11523 20.1172 7.11523C19.4053 7.11523 18.5088 7.80078 17.9023 8.2666C17.498 8.58301 17.0234 9.02246 16.5049 9.53223C16.4873 9.55859 16.4873 9.59375 16.5049 9.61133ZM7.72461 19.7891C7.72461 20.0703 7.8125 20.29 8.1377 20.5977C9.52637 21.8896 11.7324 22.7598 13.9912 22.7598C16.2588 22.7598 18.4561 21.8896 19.8535 20.5977C20.1787 20.29 20.2666 20.0703 20.2666 19.7891C20.2666 19.4551 20.1611 19.0684 19.9502 18.6465C19.5371 17.7061 18.7637 16.625 18.0342 15.7637C16.7861 14.3223 15.4414 12.9248 14.0967 11.9229C14.0527 11.8877 14.0264 11.8701 13.9912 11.8701C13.9648 11.8701 13.9385 11.8877 13.8945 11.9229C12.5498 12.9248 11.2051 14.3223 9.95703 15.7637C9.22754 16.625 8.4541 17.7061 8.04102 18.6465C7.82129 19.0684 7.72461 19.4551 7.72461 19.7891Z" fill="#1C1C1E"/>
</svg>
