<svg width="32" height="31" viewBox="0 0 32 31" fill="none" xmlns="http://www.w3.org/2000/svg">
<g filter="url(#filter0_d_610_1791)">
<path d="M13.2227 5.06738C14.7608 5.41016 16.9492 6.06934 18.1621 6.47363C21.2207 7.49316 22.3018 8.80273 22.3018 11.7471C22.3018 13.8916 21.2998 15.0254 19.8321 15.0254C19.3399 15.0254 18.7949 14.8848 18.2237 14.6211V9.27734C18.2237 8.6709 18.1621 8.13477 17.5645 7.94141C17.0723 7.7832 16.8262 8.21387 16.8262 8.80273V22.2236L13.2227 21.0898V5.06738ZM6.23538 19.5166C4.82034 19.0156 4.53909 18.0928 5.38284 17.5215C6.15628 16.9941 6.82424 16.8096 7.501 16.5547L12.4932 14.7529V16.8184L8.85452 18.1191C8.10745 18.3916 7.99319 18.7607 8.55569 18.9453C8.9512 19.0859 10.085 19.042 10.7881 18.7783L12.4932 18.1543V20.0176C9.93557 20.5625 7.86135 20.0967 6.23538 19.5166ZM17.4942 19.8945L23.2949 17.8115C23.9805 17.5654 24.0332 17.2666 23.4971 17.082C22.9346 16.8975 22.0205 16.915 21.3701 17.1523L17.4942 18.5586V16.3438C18.3291 16.0625 19.4717 15.7637 20.4209 15.6846C21.959 15.5615 23.8926 15.7549 25.5274 16.3086C27.1182 16.8623 27.3028 17.6885 26.8985 18.2158C26.6436 18.5586 25.958 18.9365 24.8594 19.332L17.4942 21.9512V19.8945Z" fill="#1C1C1E"/>
</g>
<defs>
<filter id="filter0_d_610_1791" x="-2" y="0" width="36" height="36" filterUnits="userSpaceOnUse" color-interpolation-filters="sRGB">
<feFlood flood-opacity="0" result="BackgroundImageFix"/>
<feColorMatrix in="SourceAlpha" type="matrix" values="0 0 0 0 0 0 0 0 0 0 0 0 0 0 0 0 0 0 127 0" result="hardAlpha"/>
<feOffset dy="4"/>
<feGaussianBlur stdDeviation="2"/>
<feComposite in2="hardAlpha" operator="out"/>
<feColorMatrix type="matrix" values="0 0 0 0 0 0 0 0 0 0 0 0 0 0 0 0 0 0 0.25 0"/>
<feBlend mode="normal" in2="BackgroundImageFix" result="effect1_dropShadow_610_1791"/>
<feBlend mode="normal" in="SourceGraphic" in2="effect1_dropShadow_610_1791" result="shape"/>
</filter>
</defs>
</svg>
