<svg width="28" height="28" viewBox="0 0 28 28" fill="none" xmlns="http://www.w3.org/2000/svg">
<path d="M14 22.1533C20.2139 22.1533 23.3516 19.7979 22.1299 16.4316L20.1084 10.7979V7.88867C20.1084 6.38574 17.6563 5.25195 14 5.25195C10.3613 5.25195 7.90919 6.38574 7.90919 7.88867V10.7627L5.87013 16.4316C4.63966 19.8154 7.78614 22.1533 14 22.1533ZM14 8.94336C11.3897 8.94336 9.64942 8.41602 9.64942 7.88867C9.64942 7.35254 11.3897 6.8252 14 6.8252C16.6192 6.8252 18.3682 7.35254 18.3682 7.88867C18.3682 8.41602 16.6192 8.94336 14 8.94336ZM14 13.918C16.1621 13.918 17.8848 13.4873 18.9395 12.8018L20.4688 16.9854C21.1807 18.9717 18.7285 20.3955 14 20.3955C9.27149 20.3955 6.81056 18.9893 7.53126 16.9854L9.06056 12.8018C10.1152 13.4785 11.8291 13.918 14 13.918Z" fill="#1C1C1E"/>
</svg>
