<svg width="28" height="28" viewBox="0 0 28 28" fill="none" xmlns="http://www.w3.org/2000/svg">
<path d="M5.18457 22.3818L8.67383 21.7051C10.625 21.3359 11.4951 20.2637 11.4951 18.1895V17.1348L13.9912 16.5986L16.4873 17.1348H16.4961V18.1895C16.4961 20.2637 17.3662 21.3359 19.3174 21.7051L22.8066 22.3818C25.2852 22.8652 26.709 21.3271 26.1025 18.9102L23.2373 7.4668C22.7979 5.70898 21.418 4.59277 19.7393 4.59277C17.7969 4.59277 16.4961 5.83203 16.4961 7.69531V15.3682L17.5596 15.5967L20.4863 12.9688C20.8203 12.6611 21.3916 12.6787 21.6992 13.0215C22.0156 13.3818 21.9805 13.9443 21.6289 14.2432L19.625 16.0361L22.042 16.5547C22.4902 16.6426 22.7979 17.1084 22.71 17.5654C22.6221 18.0225 22.1387 18.3301 21.6816 18.2334L16.4961 17.1348V15.3682L14.8525 15.0166V5.7002C14.8525 5.22559 14.4658 4.83887 13.9912 4.83887C13.5166 4.83887 13.1299 5.22559 13.1299 5.7002V15.0166L11.4951 15.3682V17.1348V15.3682V7.69531C11.4951 5.83203 10.1855 4.59277 8.25195 4.59277C6.57324 4.59277 5.19336 5.70898 4.75391 7.4668L1.88867 18.9102C1.28223 21.3271 2.70606 22.8652 5.18457 22.3818ZM11.4863 15.3682V17.1348L6.29199 18.2334C5.84375 18.3301 5.36035 18.0225 5.27246 17.5654C5.17578 17.1084 5.4834 16.6426 5.94043 16.5547L8.34863 16.0361L6.34473 14.2432C5.99316 13.9443 5.95801 13.3818 6.27441 13.0215C6.59082 12.6787 7.16211 12.6611 7.49609 12.9688L10.4141 15.5967L11.4863 15.3682Z" fill="#1C1C1E"/>
</svg>
