<svg width="28" height="28" viewBox="0 0 28 28" fill="none" xmlns="http://www.w3.org/2000/svg">
<path d="M7.66309 21.7314H8.05859V22.9443H7.13574C6.71387 22.9443 6.37109 23.2871 6.37109 23.709C6.37109 24.1309 6.71387 24.4736 7.13574 24.4736H10.5195C10.9414 24.4736 11.2842 24.1309 11.2842 23.709C11.2842 23.2871 10.9414 22.9443 10.5195 22.9443H9.58789V21.7314H18.3857V22.9443H17.4541C17.0322 22.9443 16.6982 23.2871 16.6982 23.709C16.6982 24.1309 17.0322 24.4736 17.4541 24.4736H20.8467C21.2686 24.4736 21.6025 24.1309 21.6025 23.709C21.6025 23.2871 21.2686 22.9443 20.8467 22.9443H19.915V21.7314H20.3281C22.2354 21.7314 23.2285 20.7471 23.2285 18.8662V7.35254C23.2285 5.46289 22.2354 4.4873 20.3281 4.4873H19.915V2.73828C19.915 2.31641 19.5723 1.97363 19.1504 1.97363C18.7285 1.97363 18.3857 2.31641 18.3857 2.73828V4.4873H9.58789V2.73828C9.58789 2.31641 9.25391 1.97363 8.83203 1.97363C8.40137 1.97363 8.05859 2.31641 8.05859 2.73828V4.4873H7.66309C5.75586 4.4873 4.77148 5.46289 4.77148 7.35254V18.8662C4.77148 20.7471 5.75586 21.7314 7.66309 21.7314ZM7.77734 19.9824C6.96875 19.9824 6.52051 19.5605 6.52051 18.708V7.51074C6.52051 6.6582 6.96875 6.23633 7.77734 6.23633H20.2227C21.0312 6.23633 21.4707 6.6582 21.4707 7.51074V18.708C21.4707 19.5605 21.0225 19.9824 20.2227 19.9824H7.77734ZM14.0791 10.9824C14.3779 10.9824 14.7559 10.7715 14.9756 10.499C15.1865 10.2441 15.3271 9.91016 15.3271 9.56738C15.3271 9.51465 15.3271 9.4707 15.3184 9.43555C14.9756 9.45312 14.5801 9.65527 14.334 9.92773C14.1406 10.1475 13.9824 10.499 13.9824 10.8418C13.9824 10.8945 13.9824 10.9473 13.9912 10.9561C14.0088 10.9648 14.0352 10.9824 14.0791 10.9824ZM13.0244 16.0713C13.4287 16.0713 13.6221 15.8076 14.1143 15.8076C14.6416 15.8076 14.7559 16.0713 15.2041 16.0713C15.6699 16.0713 15.96 15.6494 16.25 15.2539C16.5752 14.7969 16.6807 14.3311 16.6982 14.3047C16.6719 14.2871 15.8105 13.9531 15.8105 12.9688C15.8105 12.1162 16.4873 11.7207 16.5312 11.7031C16.0742 11.0527 15.4062 11.0352 15.2041 11.0352C14.7031 11.0352 14.2988 11.3428 14.0352 11.3428C13.7627 11.3428 13.4023 11.0527 12.9717 11.0527C12.1367 11.0527 11.3018 11.7383 11.3018 13.0303C11.3018 13.8389 11.6094 14.6826 11.9961 15.2275C12.3213 15.6934 12.6113 16.0713 13.0244 16.0713Z" fill="#1C1C1E"/>
</svg>
