<svg width="28" height="28" viewBox="0 0 28 28" fill="none" xmlns="http://www.w3.org/2000/svg">
<path d="M13.9912 23.876C17.208 23.876 19.1064 22.3027 19.3877 19.1738C19.7129 15.4912 19.7041 11.9316 19.3701 7.98535C19.1152 4.99707 17.208 3.43262 13.9912 3.43262C10.7832 3.43262 8.87595 4.99707 8.62107 7.98535C8.28709 11.9316 8.2783 15.4912 8.60349 19.1738C8.88474 22.3027 10.7832 23.876 13.9912 23.876ZM14.457 17.2666C14.334 17.3984 14.1318 17.5127 13.9648 17.5127H13.9209C13.9209 17.5039 13.9121 17.4688 13.9121 17.4424C13.9121 17.2666 14.0088 17.0732 14.123 16.9678C14.2285 16.8096 14.457 16.7041 14.624 16.7041C14.6328 16.7217 14.6328 16.7393 14.6328 16.7656C14.6328 16.9502 14.5537 17.126 14.457 17.2666ZM13.9912 20.0879C13.7275 20.0879 13.6308 20.2197 13.4111 20.2197C13.1914 20.2197 13.0332 20.0264 12.8574 19.7715C12.6553 19.4902 12.497 19.042 12.497 18.6113C12.497 17.9258 12.9453 17.5654 13.3847 17.5654C13.6133 17.5654 13.7978 17.7061 13.956 17.7061C14.0967 17.7061 14.2988 17.5654 14.5625 17.5654C14.6767 17.5654 15.0371 17.5654 15.2744 17.8994C15.248 17.917 14.8877 18.1191 14.8877 18.5674C14.8877 19.1035 15.3535 19.2793 15.3623 19.2881C15.3623 19.2969 15.292 19.543 15.1162 19.7891C14.9756 20 14.8086 20.2197 14.5625 20.2197C14.334 20.2197 14.2812 20.0879 13.9912 20.0879Z" fill="#1C1C1E"/>
</svg>
