<svg width="28" height="28" viewBox="0 0 28 28" fill="none" xmlns="http://www.w3.org/2000/svg">
<path d="M13.9914 23.876C17.2082 23.876 19.1067 22.3027 19.3879 19.1738C19.7131 15.4912 19.7043 11.9316 19.3703 7.98535C19.1155 4.99707 17.2082 3.43262 13.9914 3.43262C10.7834 3.43262 8.8762 4.99707 8.62131 7.98535C8.28733 11.9316 8.27854 15.4912 8.60374 19.1738C8.88499 22.3027 10.7834 23.876 13.9914 23.876ZM13.9914 22.1621C11.7942 22.1621 10.5022 21.2217 10.3176 19.1738C10.0012 15.4824 10.01 11.9229 10.3352 7.98535C10.4934 6.08691 11.7942 5.14648 13.9914 5.14648C16.1975 5.14648 17.4983 6.08691 17.6565 7.98535C17.9817 11.9229 17.9905 15.4824 17.674 19.1738C17.4895 21.2217 16.1975 22.1621 13.9914 22.1621ZM14.4309 17.3105C14.5276 17.1787 14.6067 17.0117 14.6067 16.8359C14.6067 16.8096 14.6067 16.7832 14.5979 16.7656C14.4309 16.7656 14.2199 16.8799 14.1145 17.0205C14.009 17.1348 13.9123 17.3105 13.9123 17.4863C13.9123 17.5039 13.9211 17.5391 13.9211 17.5479H13.9651C14.1233 17.5479 14.3166 17.4424 14.4309 17.3105ZM13.9914 20.0176C14.2639 20.0176 14.3166 20.1494 14.5451 20.1494C14.7737 20.1494 14.9319 19.9385 15.0725 19.7275C15.2395 19.499 15.3098 19.2705 15.3098 19.2529C15.2922 19.2441 14.8528 19.0771 14.8528 18.5674C14.8528 18.1279 15.1955 17.9434 15.2131 17.917C14.9934 17.6006 14.6418 17.6006 14.5451 17.6006C14.2903 17.6006 14.0881 17.7412 13.9563 17.7412C13.7981 17.7412 13.6223 17.6006 13.4026 17.6006C12.9807 17.6006 12.55 17.9521 12.55 18.6025C12.55 19.0244 12.7082 19.4463 12.9016 19.7188C13.0686 19.9648 13.2268 20.1494 13.4377 20.1494C13.6487 20.1494 13.7365 20.0176 13.9914 20.0176Z" fill="#1C1C1E"/>
</svg>
