<svg width="28" height="28" viewBox="0 0 28 28" fill="none" xmlns="http://www.w3.org/2000/svg">
<path d="M10.1328 22.8389H17.8936C19.4141 22.8389 20.4248 21.8545 20.4248 20.3955V6.91309C20.4248 5.44531 19.4141 4.46973 17.8936 4.46973H10.1328C8.59473 4.46973 7.56641 5.44531 7.56641 6.9043V20.3955C7.56641 21.8545 8.59473 22.8389 10.1328 22.8389ZM14 15.3506C11.3896 15.3506 9.27148 13.2324 9.27148 10.6221C9.27148 8.02051 11.3896 5.89355 14 5.89355C16.6016 5.89355 18.7285 8.02051 18.7285 10.6221C18.7285 13.2324 16.6016 15.3506 14 15.3506ZM14 14.1289C15.9336 14.1289 17.5068 12.5557 17.5068 10.6221C17.5068 8.68848 15.9336 7.12402 14 7.12402C12.0664 7.12402 10.4932 8.68848 10.4932 10.6221C10.4932 12.5557 12.0664 14.1289 14 14.1289ZM14 19.6836C13.6484 19.6836 13.3672 19.3936 13.3672 19.0508V17.3896C13.3672 17.0381 13.6484 16.7568 14 16.7568C14.3428 16.7568 14.6328 17.0381 14.6328 17.3896V19.0508C14.6328 19.3936 14.3428 19.6836 14 19.6836Z" fill="#1C1C1E"/>
</svg>
