<svg width="28" height="28" viewBox="0 0 28 28" fill="none" xmlns="http://www.w3.org/2000/svg">
<path d="M8.67383 21.8809H19.3174C21.2246 21.8809 22.209 20.8965 22.209 19.0156V8.31934C22.209 6.43848 21.2246 5.4541 19.3174 5.4541H8.67383C6.77539 5.4541 5.78223 6.42969 5.78223 8.31934V19.0156C5.78223 20.8965 6.77539 21.8809 8.67383 21.8809ZM8.78809 20.1318C7.97949 20.1318 7.53125 19.71 7.53125 18.8574V8.47754C7.53125 7.625 7.97949 7.20312 8.78809 7.20312H19.2031C20.0029 7.20312 20.46 7.625 20.46 8.47754V18.8574C20.46 19.71 20.0029 20.1318 19.2031 20.1318H8.78809ZM10.792 16.9414C10.792 17.3721 11.082 17.627 11.4863 17.627C11.8818 17.627 12.1543 17.3721 12.1543 16.9414V14.3223C12.1543 12.8457 12.6553 11.9844 13.5078 11.7559V17.1172C13.5078 17.4248 13.71 17.6182 14 17.6182C14.2637 17.6182 14.4834 17.4248 14.4834 17.1172V11.7471C15.3447 11.958 15.8633 12.8193 15.8633 14.3223V16.9414C15.8633 17.3721 16.1357 17.627 16.54 17.627C16.9443 17.627 17.208 17.3721 17.208 16.9414V14.2871C17.208 12.0107 16.1445 10.6836 14.4834 10.4814V9.61133C14.4834 9.29492 14.2637 9.11914 14 9.11914C13.71 9.11914 13.5078 9.29492 13.5078 9.61133V10.4902C11.8555 10.6924 10.792 12.0195 10.792 14.2871V16.9414Z" fill="#1C1C1E"/>
</svg>
