<svg width="28" height="28" viewBox="0 0 28 28" fill="none" xmlns="http://www.w3.org/2000/svg">
<path d="M8.67383 21.8809H19.3174C21.2246 21.8809 22.209 20.8965 22.209 19.0156V8.31934C22.209 6.43848 21.2246 5.4541 19.3174 5.4541H8.67383C6.77539 5.4541 5.78223 6.42969 5.78223 8.31934V19.0156C5.78223 20.8965 6.77539 21.8809 8.67383 21.8809ZM10.7041 17.0469V14.3047C10.7041 11.9668 11.8027 10.5957 13.5078 10.376V9.47949C13.5078 9.1543 13.7188 8.96973 14.0264 8.96973C14.29 8.96973 14.5186 9.14551 14.5186 9.47949V10.376C16.2412 10.5869 17.3398 11.958 17.3398 14.3047V17.0469C17.3398 17.4951 17.0586 17.7588 16.6367 17.7588C16.2236 17.7588 15.9424 17.4951 15.9424 17.0469V14.3486C15.9424 12.8018 15.4062 11.9053 14.5186 11.6943V17.2314C14.5186 17.5566 14.29 17.75 14.0264 17.75C13.7188 17.75 13.5078 17.5479 13.5078 17.2314V11.6943C12.6377 11.9316 12.1191 12.8193 12.1191 14.3486V17.0469C12.1191 17.4951 11.8379 17.7588 11.4248 17.7588C11.0029 17.7588 10.7041 17.4951 10.7041 17.0469Z" fill="#1C1C1E"/>
</svg>
