<svg width="28" height="28" viewBox="0 0 28 28" fill="none" xmlns="http://www.w3.org/2000/svg">
<path d="M13.9912 22.7422C18.9746 22.7422 23.0879 18.6289 23.0879 13.6543C23.0879 8.67969 18.9658 4.56641 13.9824 4.56641C9.00781 4.56641 4.90332 8.67969 4.90332 13.6543C4.90332 18.6289 9.0166 22.7422 13.9912 22.7422ZM10.6689 17.0469V14.3047C10.6689 11.9668 11.7676 10.5957 13.4727 10.376V9.47949C13.4727 9.1543 13.6836 8.96973 13.9912 8.96973C14.2549 8.96973 14.4834 9.14551 14.4834 9.47949V10.376C16.2061 10.5869 17.3047 11.958 17.3047 14.3047V17.0469C17.3047 17.4951 17.0234 17.7588 16.6016 17.7588C16.1885 17.7588 15.9072 17.4951 15.9072 17.0469V14.3486C15.9072 12.8018 15.3711 11.9053 14.4834 11.6943V17.2314C14.4834 17.5566 14.2549 17.75 13.9912 17.75C13.6836 17.75 13.4727 17.5479 13.4727 17.2314V11.6943C12.6025 11.9316 12.084 12.8193 12.084 14.3486V17.0469C12.084 17.4951 11.8027 17.7588 11.3896 17.7588C10.9678 17.7588 10.6689 17.4951 10.6689 17.0469Z" fill="#1C1C1E"/>
</svg>
