<svg width="28" height="28" viewBox="0 0 28 28" fill="none" xmlns="http://www.w3.org/2000/svg">
<path d="M13.9912 22.7422C18.9746 22.7422 23.0879 18.6289 23.0879 13.6543C23.0879 8.67969 18.9658 4.56641 13.9824 4.56641C9.00781 4.56641 4.90332 8.67969 4.90332 13.6543C4.90332 18.6289 9.0166 22.7422 13.9912 22.7422ZM13.9912 20.9316C9.95703 20.9316 6.73145 17.6885 6.73145 13.6543C6.73145 9.62012 9.95703 6.38574 13.9824 6.38574C18.0166 6.38574 21.2598 9.62012 21.2686 13.6543C21.2773 17.6885 18.0254 20.9316 13.9912 20.9316ZM11.9082 10.5078C11.9082 11.4219 12.4883 12.1953 13.3057 12.4678V16.7568C13.3057 17.9346 13.5693 19.0771 13.9912 19.0771C14.4043 19.0771 14.6592 17.9521 14.6592 16.7568V12.4766C15.4854 12.2041 16.0654 11.4307 16.0654 10.5078C16.0654 9.35645 15.1338 8.4248 13.9912 8.4248C12.8398 8.43359 11.9082 9.36523 11.9082 10.5078ZM12.7695 9.98047C12.7695 9.61133 13.0947 9.29492 13.4551 9.29492C13.833 9.29492 14.1406 9.61133 14.1406 9.98047C14.1406 10.3496 13.833 10.666 13.4551 10.666C13.0947 10.666 12.7783 10.3496 12.7695 9.98047Z" fill="#1C1C1E"/>
</svg>
