<svg width="28" height="28" viewBox="0 0 28 28" fill="none" xmlns="http://www.w3.org/2000/svg">
<path d="M14 22.7334C18.9658 22.7334 23.0791 18.6289 23.0791 13.6543C23.0791 8.68848 18.9658 4.5752 13.9912 4.5752C9.02539 4.5752 4.9209 8.68848 4.9209 13.6543C4.9209 18.6289 9.03418 22.7334 14 22.7334ZM14 20.9492C9.95703 20.9492 6.71387 17.6973 6.71387 13.6543C6.71387 9.61133 9.94824 6.36816 13.9912 6.36816C18.0342 6.36816 21.2861 9.61133 21.2949 13.6543C21.2949 17.6973 18.043 20.9492 14 20.9492ZM14.7383 12.4414C15.5293 12.1514 16.0742 11.3867 16.0742 10.5078C16.0742 9.35645 15.1338 8.41602 13.9912 8.41602C13.0947 8.41602 12.3389 8.97852 12.0664 9.76074L14.7383 12.4414ZM17.9287 18.207C18.0957 18.374 18.3857 18.374 18.5527 18.207C18.7197 18.0312 18.7197 17.7676 18.5527 17.5918L10.0625 9.10156C9.88672 8.92578 9.60547 8.92578 9.43848 9.10156C9.2627 9.26855 9.27148 9.5498 9.43848 9.7168L17.9287 18.207ZM12.875 9.91895C12.875 9.57617 13.1738 9.27734 13.5078 9.27734C13.8506 9.27734 14.1406 9.57617 14.1406 9.91895C14.1406 10.2529 13.8506 10.5518 13.5078 10.5518C13.1738 10.5518 12.875 10.2529 12.875 9.91895ZM13.3145 14.5684V16.7393C13.3145 17.9258 13.5693 19.0771 13.9912 19.0771C14.4043 19.0771 14.6592 17.9434 14.6592 16.7393V15.9131L13.3145 14.5684Z" fill="#1C1C1E"/>
</svg>
