<svg width="28" height="28" viewBox="0 0 28 28" fill="none" xmlns="http://www.w3.org/2000/svg">
<path d="M20.2139 19.9561C20.2139 21.1074 21.0225 21.916 22.165 21.916C23.3164 21.916 24.1162 21.1074 24.1162 19.9561V5.77051C24.1162 4.61914 23.3164 3.81055 22.165 3.81055C21.0225 3.81055 20.2139 4.61914 20.2139 5.77051V19.9561ZM11.0029 17.3369C13.6572 17.6533 16.3994 18.4619 18.9395 19.7803C18.9307 19.7012 18.9307 19.6221 18.9307 19.543V6.1748C18.9307 6.12207 18.9307 6.06934 18.9307 6.0166C16.4346 7.32617 13.4375 8.19629 11.0029 8.45996V17.3369ZM7.79492 8.45996C5.25488 8.45996 3.88379 9.7959 3.88379 12.248V13.5488C3.88379 15.9922 5.25488 17.3281 7.79492 17.3281H9.71094V8.45996H7.79492ZM11.5391 23.6562C12.7168 23.6562 13.5869 22.7861 13.2617 21.3623L12.6729 18.7344C12.1367 18.5234 10.748 18.4092 9.84277 18.4004H7.64551L9.37695 22.0303C9.87793 23.0674 10.4316 23.6562 11.5391 23.6562Z" fill="#1C1C1E"/>
</svg>
