<svg width="28" height="28" viewBox="0 0 28 28" fill="none" xmlns="http://www.w3.org/2000/svg">
<path d="M7.52246 6.4209H9.05176V5.55078C9.05176 5.10254 8.73535 4.78613 8.28711 4.78613C7.83887 4.78613 7.52246 5.10254 7.52246 5.55078V6.4209ZM10.3789 6.4209H11.9082V5.55078C11.9082 5.10254 11.5918 4.78613 11.1436 4.78613C10.6953 4.78613 10.3789 5.10254 10.3789 5.55078V6.4209ZM13.2266 6.4209H14.7559V5.55078C14.7559 5.10254 14.4395 4.78613 13.9912 4.78613C13.543 4.78613 13.2266 5.10254 13.2266 5.55078V6.4209ZM16.083 6.4209H17.6123V5.55078C17.6123 5.10254 17.2959 4.78613 16.8477 4.78613C16.3994 4.78613 16.083 5.10254 16.083 5.55078V6.4209ZM18.9395 6.4209H20.4688V5.55078C20.4688 5.10254 20.1523 4.78613 19.7041 4.78613C19.2559 4.78613 18.9395 5.10254 18.9395 5.55078V6.4209ZM7.44336 19.6836H20.5479C22.4463 19.6836 23.4307 18.708 23.4307 16.8359V10.499C23.4307 8.62695 22.4463 7.64258 20.5479 7.64258H7.44336C5.54492 7.64258 4.56055 8.61816 4.56055 10.499V16.8359C4.56055 18.708 5.54492 19.6836 7.44336 19.6836ZM7.52246 20.9141V21.7842C7.52246 22.2324 7.83887 22.5488 8.28711 22.5488C8.73535 22.5488 9.05176 22.2324 9.05176 21.7842V20.9141H7.52246ZM10.3789 20.9141V21.7842C10.3789 22.2324 10.6953 22.5488 11.1436 22.5488C11.5918 22.5488 11.9082 22.2324 11.9082 21.7842V20.9141H10.3789ZM13.2266 20.9141V21.7842C13.2266 22.2324 13.543 22.5488 13.9912 22.5488C14.4395 22.5488 14.7559 22.2324 14.7559 21.7842V20.9141H13.2266ZM16.083 20.9141V21.7842C16.083 22.2324 16.3994 22.5488 16.8477 22.5488C17.2959 22.5488 17.6123 22.2324 17.6123 21.7842V20.9141H16.083ZM18.9395 20.9141V21.7842C18.9395 22.2324 19.2559 22.5488 19.7041 22.5488C20.1523 22.5488 20.4688 22.2324 20.4688 21.7842V20.9141H18.9395Z" fill="#1C1C1E"/>
</svg>
