<svg width="28" height="28" viewBox="0 0 28 28" fill="none" xmlns="http://www.w3.org/2000/svg">
<path d="M11.2402 5.041L18.6934 6.35936C19.4844 6.49999 20.1436 6.71971 20.6885 7.01854L20.6797 6.43846C20.6445 4.53124 19.3174 3.61717 17.1465 4.00389L11.2402 5.041ZM8.56836 22.0654L18.2627 23.7705C20.0996 24.0957 21.2334 23.0498 21.2334 21.0459V10.4375C21.2334 8.60057 20.3369 7.88866 18.4736 7.56346L9.07812 5.90233C7.69824 5.66502 6.75781 6.44725 6.75781 7.81834V19.9648C6.75781 21.1426 7.38184 21.8545 8.56836 22.0654ZM10.3174 11.1494C9.97461 11.0967 9.78125 10.833 9.78125 10.4814C9.78125 10.0596 10.1152 9.77831 10.5811 9.85741L17.3398 11.0439C17.7002 11.1142 17.8936 11.3252 17.8936 11.7119C17.8936 12.1338 17.5859 12.4238 17.1201 12.3535L10.3174 11.1494ZM10.3174 14.7529C9.9834 14.6914 9.78125 14.4365 9.78125 14.0849C9.78125 13.6719 10.1152 13.3906 10.5811 13.4697L17.3398 14.6562C17.7002 14.7265 17.8936 14.9375 17.8936 15.3066C17.8936 15.7461 17.5859 16.0361 17.1201 15.9658L10.3174 14.7529Z" fill="#1C1C1E"/>
</svg>
