<svg width="28" height="28" viewBox="0 0 28 28" fill="none" xmlns="http://www.w3.org/2000/svg">
<path d="M16.0654 16.2734H21.3916L16.1797 6.0957C15.749 5.25195 14.8525 4.75098 14 4.75098C13.1387 4.75098 12.2334 5.25195 11.8115 6.0957L9.80762 10.0244L13.2881 13.5049V9.34766C13.2881 8.89062 13.5693 8.5918 14.0264 8.5918C14.4834 8.5918 14.7559 8.89062 14.7559 9.34766V14.9727L16.0654 16.2734ZM12.4004 16.2734H14.5889L7.0127 8.69727C6.69629 8.37207 6.26562 8.36328 5.92285 8.68848C5.58008 9.03125 5.60645 9.4707 5.92285 9.7959L12.4004 16.2734ZM6.59961 16.2734H10.9941L8.08496 13.3643L6.59961 16.2734ZM7.88281 21.9424H20.1084C21.6904 21.9424 22.666 20.791 22.666 19.4639C22.666 19.0068 22.543 18.5322 22.3145 18.0752L22.0508 17.5566H5.94043L5.67676 18.0752C5.44824 18.5234 5.3252 19.0068 5.3252 19.4639C5.3252 20.791 6.30078 21.9424 7.88281 21.9424Z" fill="#1C1C1E"/>
</svg>
