<svg width="28" height="28" viewBox="0 0 28 28" fill="none" xmlns="http://www.w3.org/2000/svg">
<path d="M8.67383 21.8721H19.3174C21.2158 21.8721 22.2002 20.8877 22.2002 19.0156V8.31934C22.2002 6.43848 21.2158 5.46289 19.3174 5.46289H8.67383C6.77539 5.46289 5.79102 6.43848 5.79102 8.31934V19.0156C5.79102 20.8965 6.77539 21.8721 8.67383 21.8721ZM8.7793 20.1494C7.96191 20.1494 7.51367 19.7188 7.51367 18.8662V8.45996C7.51367 7.60742 7.96191 7.18555 8.7793 7.18555H19.2119C20.0205 7.18555 20.4775 7.60742 20.4775 8.45996V18.8662C20.4775 19.7188 20.0205 20.1494 19.2119 20.1494H8.7793ZM14.0088 15.2539C14.8613 15.2539 15.4854 14.5947 15.4854 13.6895V10.0596C15.4854 9.16309 14.8613 8.50391 14.0088 8.50391C13.1562 8.50391 12.5146 9.16309 12.5146 10.0596V13.6895C12.5146 14.5947 13.1562 15.2539 14.0088 15.2539ZM11.8291 18.8486H16.1885C16.4521 18.8486 16.6982 18.6025 16.6982 18.3389C16.6982 18.0664 16.4609 17.8291 16.1885 17.8291H14.5098V17.0293C16.2412 16.8096 17.4365 15.5176 17.4365 13.7334V12.6523C17.4365 12.3887 17.1992 12.1602 16.9355 12.1602C16.6543 12.1602 16.4258 12.3887 16.4258 12.6523V13.7334C16.4258 15.1133 15.4062 16.1064 14 16.1064C12.6025 16.1064 11.583 15.1133 11.583 13.7334V12.6523C11.583 12.3887 11.3545 12.1602 11.0732 12.1602C10.8096 12.1602 10.5723 12.3887 10.5723 12.6523V13.7334C10.5723 15.5176 11.7764 16.8184 13.5078 17.0293V17.8291H11.8291C11.5479 17.8291 11.3105 18.0664 11.3105 18.3389C11.3105 18.6113 11.5479 18.8486 11.8291 18.8486Z" fill="#1C1C1E"/>
</svg>
