<svg width="28" height="28" viewBox="0 0 28 28" fill="none" xmlns="http://www.w3.org/2000/svg">
<path d="M8.67383 21.8721H19.3174C21.2158 21.8721 22.2002 20.8877 22.2002 19.0156V8.31934C22.2002 6.43848 21.2158 5.46289 19.3174 5.46289H8.67383C6.77539 5.46289 5.79102 6.43848 5.79102 8.31934V19.0156C5.79102 20.8965 6.77539 21.8721 8.67383 21.8721ZM14.0176 15.3242C13.1299 15.3242 12.4619 14.6299 12.4619 13.6807V9.89258C12.4619 8.94336 13.1299 8.2666 14.0176 8.2666C14.9141 8.2666 15.5732 8.94336 15.5732 9.89258V13.6807C15.5732 14.6299 14.9141 15.3242 14.0176 15.3242ZM11.7412 19.0859C11.4512 19.0859 11.1963 18.8486 11.1963 18.5586C11.1963 18.2686 11.4512 18.0137 11.7412 18.0137H13.4902V17.1787C11.6797 16.9678 10.4229 15.6055 10.4229 13.7334V12.5996C10.4229 12.3184 10.6689 12.0811 10.9502 12.0811C11.2402 12.0811 11.4863 12.3184 11.4863 12.5996V13.7334C11.4863 15.1748 12.5498 16.2119 14.0176 16.2119C15.4854 16.2119 16.5576 15.1748 16.5576 13.7334V12.5996C16.5576 12.3184 16.7949 12.0811 17.085 12.0811C17.375 12.0811 17.6123 12.3184 17.6123 12.5996V13.7334C17.6123 15.6055 16.3643 16.959 14.5537 17.1787V18.0137H16.3027C16.5928 18.0137 16.8389 18.2686 16.8389 18.5586C16.8389 18.8398 16.584 19.0859 16.3027 19.0859H11.7412Z" fill="#1C1C1E"/>
</svg>
