<svg width="28" height="28" viewBox="0 0 28 28" fill="none" xmlns="http://www.w3.org/2000/svg">
<path d="M14 16.0889C15.9863 16.0889 17.375 14.6035 17.375 12.4766V7.00977C17.375 4.88281 15.9863 3.39746 14 3.39746C12.0225 3.39746 10.625 4.88281 10.625 7.00977V12.4766C10.625 14.6035 12.0225 16.0889 14 16.0889ZM14 14.4629C12.9717 14.4629 12.3213 13.6719 12.3213 12.5117V6.97461C12.3213 5.81445 12.9717 5.02344 14 5.02344C15.0283 5.02344 15.6787 5.81445 15.6787 6.97461V12.5117C15.6787 13.6719 15.0283 14.4629 14 14.4629ZM9.95703 22.7861H18.043C18.5088 22.7861 18.8955 22.4082 18.8955 21.9512C18.8955 21.4854 18.5088 21.1162 18.043 21.1162H14.8174V19.332C18.2891 18.998 20.7148 16.5107 20.7148 12.8721V11.1406C20.7148 10.6748 20.3457 10.3145 19.8799 10.3145C19.4141 10.3145 19.0273 10.6748 19.0273 11.1406V12.8105C19.0273 15.8076 16.9971 17.7764 14 17.7764C11.0029 17.7764 8.97266 15.8076 8.97266 12.8105V11.1406C8.97266 10.6748 8.59473 10.3145 8.12891 10.3145C7.66309 10.3145 7.28516 10.6748 7.28516 11.1406V12.8721C7.28516 16.5107 9.71094 18.998 13.1826 19.332V21.1162H9.95703C9.49121 21.1162 9.10449 21.4854 9.10449 21.9512C9.10449 22.4082 9.49121 22.7861 9.95703 22.7861Z" fill="#1C1C1E"/>
</svg>
