<svg width="28" height="28" viewBox="0 0 28 28" fill="none" xmlns="http://www.w3.org/2000/svg">
<path d="M14 15.957C15.7842 15.957 17.1025 14.6211 17.1025 12.6699V6.74609C17.1025 4.79492 15.7842 3.45898 14 3.45898C12.2158 3.45898 10.8975 4.79492 10.8975 6.74609V12.6699C10.8975 14.6211 12.2158 15.957 14 15.957ZM7.28516 12.8721C7.28516 16.5107 9.70215 18.998 13.1826 19.332V21.1162H9.95703C9.49121 21.1162 9.10449 21.4854 9.10449 21.9512C9.10449 22.4082 9.49121 22.7861 9.95703 22.7861H18.043C18.5088 22.7861 18.8955 22.4082 18.8955 21.9512C18.8955 21.4854 18.5088 21.1162 18.043 21.1162H14.8174V19.332C18.2979 18.998 20.7148 16.5107 20.7148 12.8721V11.1406C20.7148 10.6748 20.3457 10.3145 19.8799 10.3145C19.4141 10.3145 19.0273 10.6748 19.0273 11.1406V12.8105C19.0273 15.8076 16.9971 17.7764 14 17.7764C11.0029 17.7764 8.97266 15.8076 8.97266 12.8105V11.1406C8.97266 10.6748 8.59473 10.3145 8.12891 10.3145C7.66309 10.3145 7.28516 10.6748 7.28516 11.1406V12.8721Z" fill="#1C1C1E"/>
</svg>
