<svg width="28" height="28" viewBox="0 0 28 28" fill="none" xmlns="http://www.w3.org/2000/svg">
<path d="M13.9912 22.7422C18.9746 22.7422 23.0879 18.6289 23.0879 13.6543C23.0879 8.67969 18.9658 4.56641 13.9824 4.56641C9.00781 4.56641 4.90332 8.67969 4.90332 13.6543C4.90332 18.6289 9.0166 22.7422 13.9912 22.7422ZM10.4756 16.3174V11.3164C10.4756 10.9297 10.7305 10.666 11.0996 10.666C11.46 10.666 11.7061 10.8945 11.7061 11.3164V11.4043C11.9697 10.8857 12.4092 10.6396 12.9189 10.6396C13.4814 10.6396 13.9385 10.8857 14.2021 11.4131L15.3096 8.75C15.3975 8.56543 15.5293 8.44238 15.7227 8.44238C15.96 8.44238 16.1445 8.61816 16.1445 8.84668C16.1445 8.92578 16.127 9.00488 16.0918 9.0752L15.3887 10.7451C15.5117 10.7012 15.6436 10.6748 15.8018 10.6748C16.8389 10.6748 17.5068 11.4043 17.5068 12.5732V16.2998C17.5068 16.6865 17.252 16.9502 16.874 16.9502C16.5049 16.9502 16.2412 16.6865 16.2412 16.2998V12.7754C16.2412 12.2041 15.9424 11.8262 15.4414 11.8262C14.9316 11.8262 14.624 12.2217 14.624 12.8018V16.2998C14.624 16.6865 14.3604 16.9414 14 16.9414C13.6396 16.9414 13.3848 16.7041 13.3848 16.335V15.6846L12.3125 18.5498C12.2422 18.7432 12.0928 18.8574 11.9082 18.8574C11.6709 18.8574 11.4951 18.6816 11.4951 18.4531C11.4951 18.374 11.5127 18.2861 11.5391 18.2158L13.376 13.3027V12.7227C13.376 12.2041 13.0596 11.8262 12.5938 11.8262C12.0752 11.8262 11.7588 12.2393 11.7588 12.8457V16.2998C11.7588 16.6865 11.4951 16.9414 11.1172 16.9414C10.7393 16.9414 10.4756 16.6865 10.4756 16.3174Z" fill="#1C1C1E"/>
</svg>
