<svg width="28" height="28" viewBox="0 0 28 28" fill="none" xmlns="http://www.w3.org/2000/svg">
<path d="M8.67383 21.8809H19.3174C21.2246 21.8809 22.209 20.8965 22.209 19.0156V8.31934C22.209 6.43848 21.2246 5.4541 19.3174 5.4541H8.67383C6.77539 5.4541 5.78223 6.42969 5.78223 8.31934V19.0156C5.78223 20.8965 6.77539 21.8809 8.67383 21.8809ZM10.5107 16.3174V11.3164C10.5107 10.9297 10.7656 10.666 11.1348 10.666C11.4951 10.666 11.7412 10.8945 11.7412 11.3164V11.4043C12.0049 10.8857 12.4443 10.6396 12.9541 10.6396C13.5166 10.6396 13.9736 10.8857 14.2373 11.4131L15.3535 8.75C15.4326 8.56543 15.5645 8.44238 15.7578 8.44238C15.9951 8.44238 16.1797 8.61816 16.1797 8.84668C16.1797 8.92578 16.1621 9.00488 16.127 9.0752L15.4238 10.7451C15.5469 10.7012 15.6787 10.6748 15.8369 10.6748C16.874 10.6748 17.542 11.4043 17.542 12.5732V16.2998C17.542 16.6865 17.2871 16.9502 16.9092 16.9502C16.54 16.9502 16.2764 16.6865 16.2764 16.2998V12.7754C16.2764 12.2041 15.9775 11.8262 15.4766 11.8262C14.9668 11.8262 14.6592 12.2217 14.6592 12.8018V16.2998C14.6592 16.6865 14.3955 16.9414 14.0352 16.9414C13.6748 16.9414 13.4199 16.7041 13.4199 16.335V15.6846L12.3477 18.5498C12.2773 18.7432 12.1279 18.8574 11.9434 18.8574C11.7061 18.8574 11.5303 18.6816 11.5303 18.4531C11.5303 18.374 11.5479 18.2861 11.5742 18.2158L13.4111 13.3027V12.7227C13.4111 12.2041 13.0947 11.8262 12.6289 11.8262C12.1104 11.8262 11.7939 12.2393 11.7939 12.8457V16.2998C11.7939 16.6865 11.5303 16.9414 11.1523 16.9414C10.7744 16.9414 10.5107 16.6865 10.5107 16.3174Z" fill="#1C1C1E"/>
</svg>
