<svg width="28" height="28" viewBox="0 0 28 28" fill="none" xmlns="http://www.w3.org/2000/svg">
<path d="M13.9912 22.7422C18.9746 22.7422 23.0879 18.6289 23.0879 13.6543C23.0879 8.67969 18.9658 4.56641 13.9824 4.56641C9.00781 4.56641 4.90332 8.67969 4.90332 13.6543C4.90332 18.6289 9.0166 22.7422 13.9912 22.7422ZM13.9912 20.9316C9.95703 20.9316 6.73145 17.6885 6.73145 13.6543C6.73145 9.62012 9.95703 6.38574 13.9824 6.38574C18.0166 6.38574 21.2598 9.62012 21.2686 13.6543C21.2773 17.6885 18.0254 20.9316 13.9912 20.9316ZM10.6602 14.498H17.3135C17.8408 14.498 18.2188 14.1904 18.2188 13.6807C18.2188 13.1621 17.8584 12.8457 17.3135 12.8457H10.6602C10.124 12.8457 9.75488 13.1621 9.75488 13.6807C9.75488 14.1904 10.1328 14.498 10.6602 14.498Z" fill="#1C1C1E"/>
</svg>
