<svg width="28" height="28" viewBox="0 0 28 28" fill="none" xmlns="http://www.w3.org/2000/svg">
<path d="M8.67383 21.8809H19.3174C21.2246 21.8809 22.209 20.8965 22.209 19.0156V8.31934C22.209 6.43848 21.2246 5.4541 19.3174 5.4541H8.67383C6.77539 5.4541 5.78223 6.42969 5.78223 8.31934V19.0156C5.78223 20.8965 6.77539 21.8809 8.67383 21.8809ZM10.5723 14.5332C10.0186 14.5332 9.62305 14.208 9.62305 13.6719C9.62305 13.1357 10.001 12.793 10.5723 12.793H17.4805C18.0518 12.793 18.4209 13.1357 18.4209 13.6719C18.4209 14.208 18.0342 14.5332 17.4805 14.5332H10.5723Z" fill="#1C1C1E"/>
</svg>
