<svg width="28" height="28" viewBox="0 0 28 28" fill="none" xmlns="http://www.w3.org/2000/svg">
<path d="M15.3711 7.00977C15.4854 7.00977 15.5557 6.93066 15.5732 6.8252C15.8369 5.36621 15.8281 5.33984 17.3398 5.05859C17.4541 5.03223 17.5332 4.9707 17.5332 4.84766C17.5332 4.7334 17.4541 4.66309 17.3486 4.63672C15.8281 4.33789 15.8633 4.31152 15.5732 2.87891C15.5557 2.76465 15.4854 2.68555 15.3711 2.68555C15.2568 2.68555 15.1865 2.76465 15.1689 2.87012C14.8789 4.32031 14.9229 4.35547 13.4023 4.63672C13.2881 4.66309 13.209 4.7334 13.209 4.84766C13.209 4.9707 13.2881 5.03223 13.3936 5.05859C14.9229 5.36621 14.9053 5.375 15.1689 6.8252C15.1865 6.93066 15.2568 7.00977 15.3711 7.00977ZM19.5986 13.0742C19.7744 13.0742 19.9062 12.9512 19.9326 12.7578C20.2139 10.4287 20.3193 10.3584 22.6924 9.98926C22.9033 9.9541 23.0264 9.83984 23.0264 9.64648C23.0264 9.4707 22.9033 9.34766 22.7275 9.3125C20.3281 8.84668 20.2139 8.87305 19.9326 6.54395C19.9062 6.35059 19.7744 6.22754 19.5986 6.22754C19.4141 6.22754 19.2822 6.35059 19.2559 6.53516C18.957 8.9082 18.8779 8.97852 16.4609 9.3125C16.2852 9.33887 16.1621 9.4707 16.1621 9.64648C16.1621 9.83105 16.2852 9.9541 16.4609 9.98926C18.8867 10.4639 18.9482 10.4463 19.2559 12.7754C19.2822 12.9512 19.4141 13.0742 19.5986 13.0742ZM12.7959 21.6084C16.0654 21.6084 18.7725 19.9033 19.9854 17.0645C20.1436 16.6777 20.126 16.3613 19.9326 16.168C19.7744 16.0098 19.4756 15.9834 19.1592 16.124C18.4297 16.4229 17.5508 16.5811 16.5752 16.5811C12.6377 16.5811 10.0537 14.085 10.0537 10.2354C10.0537 9.21582 10.2559 8.08203 10.5811 7.41406C10.7568 7.04492 10.748 6.7373 10.5898 6.54395C10.4141 6.3418 10.0889 6.31543 9.68457 6.47363C6.85449 7.59863 4.93848 10.5254 4.93848 13.8389C4.93848 18.2861 8.20801 21.6084 12.7959 21.6084Z" fill="#1C1C1E"/>
</svg>
