<svg width="28" height="28" viewBox="0 0 28 28" fill="none" xmlns="http://www.w3.org/2000/svg">
<path d="M18.8604 16.4492C14.2109 16.4492 11.3193 13.6631 11.3193 9.1543C11.3193 7.88867 11.5303 6.74609 11.8555 6.12207C12.0049 5.83203 12.0488 5.65625 12.0488 5.43652C12.0488 5.06738 11.7412 4.68066 11.2842 4.68066C11.1699 4.68066 10.9678 4.71582 10.6865 4.82129C7.39062 6.16602 5.09668 9.60254 5.09668 13.3203C5.09668 18.6641 8.99023 22.5664 14.334 22.5664C18.1484 22.5664 21.2949 20.5273 22.7363 17.2227C22.8594 16.9502 22.8945 16.7217 22.8945 16.5811C22.8945 16.1328 22.5518 15.8516 22.1914 15.8516C22.0068 15.8516 21.8398 15.8779 21.585 15.9922C20.9082 16.2734 19.8711 16.4492 18.8604 16.4492ZM6.81934 13.2676C6.81934 10.7891 8.05859 8.38965 10.0801 7.02734C9.84277 7.73047 9.71973 8.5127 9.71973 9.36523C9.71973 14.7705 13.042 18.0225 18.5703 18.0225C19.3086 18.0225 19.9502 17.9346 20.5566 17.7236C19.2734 19.6748 16.9268 20.8525 14.3867 20.8525C10.0098 20.8525 6.81934 17.6533 6.81934 13.2676Z" fill="#1C1C1E"/>
</svg>
