<svg width="28" height="28" viewBox="0 0 28 28" fill="none" xmlns="http://www.w3.org/2000/svg">
<path d="M8.31361 17.9346C7.94447 18.3037 7.92689 18.9629 8.3224 19.3408C8.70033 19.7363 9.3683 19.7188 9.73744 19.3496L14.0001 15.0869L18.2628 19.3496C18.6408 19.7275 19.2911 19.7363 19.6691 19.3408C20.0646 18.9629 20.0558 18.3037 19.6779 17.9258L15.4152 13.6631L19.6779 9.40918C20.0558 9.02246 20.0646 8.37207 19.6691 7.99414C19.2911 7.59863 18.6408 7.60742 18.2628 7.98535L14.0001 12.248L9.73744 7.98535C9.3683 7.61621 8.70033 7.59863 8.3224 7.99414C7.92689 8.37207 7.94447 9.03125 8.31361 9.40039L12.5763 13.6631L8.31361 17.9346Z" fill="#1C1C1E"/>
</svg>
