<svg width="28" height="28" viewBox="0 0 28 28" fill="none" xmlns="http://www.w3.org/2000/svg">
<path d="M8.67383 21.8809H19.3174C21.2246 21.8809 22.209 20.8965 22.209 19.0156V8.31934C22.209 6.43848 21.2246 5.4541 19.3174 5.4541H8.67383C6.77539 5.4541 5.78223 6.42969 5.78223 8.31934V19.0156C5.78223 20.8965 6.77539 21.8809 8.67383 21.8809ZM11.0293 17.4863C10.5635 17.4863 10.1943 17.1172 10.1943 16.6426C10.1943 16.4316 10.2822 16.2207 10.4492 16.0625L12.8398 13.6631L10.4492 11.2725C10.2822 11.1143 10.1943 10.9033 10.1943 10.6924C10.1943 10.2178 10.5635 9.85742 11.0293 9.85742C11.2754 9.85742 11.4688 9.93652 11.627 10.0947L14.0264 12.4854L16.4346 10.0859C16.6104 9.91895 16.7949 9.83984 17.0322 9.83984C17.498 9.83984 17.8672 10.209 17.8672 10.6748C17.8672 10.8945 17.7793 11.0879 17.6123 11.2637L15.2217 13.6631L17.6123 16.0537C17.7705 16.2207 17.8584 16.4229 17.8584 16.6426C17.8584 17.1172 17.4893 17.4863 17.0146 17.4863C16.7773 17.4863 16.5752 17.3984 16.4082 17.2402L14.0264 14.8584L11.6445 17.2402C11.4863 17.4072 11.2754 17.4863 11.0293 17.4863Z" fill="#1C1C1E"/>
</svg>
