<svg width="28" height="28" viewBox="0 0 28 28" fill="none" xmlns="http://www.w3.org/2000/svg">
<path d="M5.24609 19.9121H22.7539C24.3271 19.9121 25.1709 19.0684 25.1709 17.4863V7.36133C25.1709 5.7793 24.3271 4.93555 22.7539 4.93555H5.24609C3.66406 4.93555 2.82031 5.7793 2.82031 7.36133V17.4863C2.82031 19.0684 3.66406 19.9121 5.24609 19.9121ZM5.34277 18.2334C4.78027 18.2334 4.49902 17.9609 4.49902 17.3896V7.45801C4.49902 6.88672 4.78027 6.61426 5.34277 6.61426H22.6484C23.2109 6.61426 23.4922 6.88672 23.4922 7.45801V17.3896C23.4922 17.9609 23.2109 18.2334 22.6484 18.2334H5.34277ZM16.6104 10.9033C17.0498 10.7979 17.1816 10.6924 17.1816 10.1738V8.45117C17.1816 8.09082 17.041 7.94141 16.5664 8.05566L14 8.69727C13.5518 8.80273 13.4551 8.9082 13.4551 9.43555V13.2852C13.4551 13.6631 13.4287 13.7246 12.998 13.8389L12.1982 14.0498C11.3633 14.2695 10.7129 14.7617 10.7129 15.6143C10.7129 16.3789 11.2842 16.9238 12.1807 16.9238C13.4463 16.9238 14.3076 16.0186 14.3076 14.7354V11.8262C14.3076 11.5186 14.3779 11.4395 14.5625 11.4043L16.6104 10.9033ZM9.5 22.9795H18.4912C18.9307 22.9795 19.291 22.6191 19.291 22.1885C19.291 21.749 18.9307 21.3887 18.4912 21.3887H9.5C9.06055 21.3887 8.70898 21.749 8.70898 22.1885C8.70898 22.6191 9.06055 22.9795 9.5 22.9795Z" fill="#1C1C1E"/>
</svg>
