<svg width="28" height="28" viewBox="0 0 28 28" fill="none" xmlns="http://www.w3.org/2000/svg">
<path d="M8.67383 21.8809H19.3174C21.2246 21.8809 22.209 20.8965 22.209 19.0156V8.31934C22.209 6.43848 21.2246 5.4541 19.3174 5.4541H8.67383C6.77539 5.4541 5.78223 6.42969 5.78223 8.31934V19.0156C5.78223 20.8965 6.77539 21.8809 8.67383 21.8809ZM8.78809 20.1318C7.97949 20.1318 7.53125 19.71 7.53125 18.8574V8.47754C7.53125 7.625 7.97949 7.20312 8.78809 7.20312H19.2031C20.0029 7.20312 20.46 7.625 20.46 8.47754V18.8574C20.46 19.71 20.0029 20.1318 19.2031 20.1318H8.78809ZM11.416 17.6797C11.8994 17.6797 12.1895 17.3721 12.1895 16.8535V12.2656H12.2422L15.7842 17.1963C16.0479 17.5654 16.25 17.6797 16.584 17.6797C17.0586 17.6797 17.3486 17.3809 17.3486 16.8799V10.332C17.3486 9.81348 17.0586 9.50586 16.5664 9.50586C16.0918 9.50586 15.8105 9.82227 15.8105 10.332V14.9639H15.749L12.2334 9.99805C11.9521 9.62012 11.75 9.50586 11.416 9.50586C10.9414 9.50586 10.6514 9.82227 10.6514 10.332V16.8535C10.6514 17.3633 10.9326 17.6797 11.416 17.6797Z" fill="#1C1C1E"/>
</svg>
