<svg width="28" height="28" viewBox="0 0 28 28" fill="none" xmlns="http://www.w3.org/2000/svg">
<path d="M13.9912 22.7422C18.9746 22.7422 23.0879 18.6289 23.0879 13.6543C23.0879 8.67969 18.9658 4.56641 13.9824 4.56641C9.00781 4.56641 4.90332 8.67969 4.90332 13.6543C4.90332 18.6289 9.0166 22.7422 13.9912 22.7422ZM10.1416 13.7598C10.1416 13.5049 10.335 13.3291 10.5723 13.3291H11.0645V10.2881C11.0645 9.77832 11.416 9.43555 11.9434 9.43555C12.3916 9.43555 12.6816 9.67285 12.8662 10.0684L14.4395 13.3291H15.5205V10.1387C15.5205 9.70801 15.793 9.43555 16.2061 9.43555C16.6104 9.43555 16.8828 9.70801 16.8828 10.1387V13.3291H17.3926C17.6387 13.3291 17.8232 13.5137 17.8232 13.7686C17.8232 14.0059 17.6387 14.1992 17.3926 14.1992H16.8828V17.2314C16.8828 17.7412 16.5312 18.084 16.0039 18.084C15.5469 18.084 15.2568 17.8467 15.0811 17.4424L13.5078 14.1904H12.418V17.3809C12.418 17.8115 12.1543 18.0752 11.7412 18.0752C11.3281 18.0752 11.0645 17.8115 11.0645 17.3809V14.1904H10.5723C10.3262 14.1904 10.1416 13.9971 10.1416 13.7598ZM12.4092 13.3291H13.1562L12.4092 11.7295V13.3291ZM14.791 14.1992L15.5293 15.79V14.1992H14.791Z" fill="#1C1C1E"/>
</svg>
