<svg width="28" height="28" viewBox="0 0 28 28" fill="none" xmlns="http://www.w3.org/2000/svg">
<path d="M13.9912 22.7422C18.9746 22.7422 23.0879 18.6289 23.0879 13.6543C23.0879 8.67969 18.9658 4.56641 13.9824 4.56641C9.00781 4.56641 4.90332 8.67969 4.90332 13.6543C4.90332 18.6289 9.0166 22.7422 13.9912 22.7422ZM13.9912 20.9316C9.95703 20.9316 6.73145 17.6885 6.73145 13.6543C6.73145 9.62012 9.95703 6.38574 13.9824 6.38574C18.0166 6.38574 21.2598 9.62012 21.2686 13.6543C21.2773 17.6885 18.0254 20.9316 13.9912 20.9316ZM10.2998 13.7686C10.2998 13.9971 10.4668 14.1816 10.7129 14.1816H11.1787V17.249C11.1787 17.6621 11.4336 17.917 11.8291 17.917C12.2158 17.917 12.4795 17.6621 12.4795 17.249V14.1816H13.5342L15.0459 17.3193C15.2217 17.6885 15.4941 17.917 15.9336 17.917C16.4346 17.917 16.7686 17.6006 16.7686 17.1084V14.1904H17.2607C17.4893 14.1904 17.6738 14.0059 17.6738 13.7686C17.6738 13.5312 17.4893 13.3555 17.2607 13.3555H16.7686V10.2793C16.7686 9.86621 16.5137 9.61133 16.1182 9.61133C15.7227 9.61133 15.4678 9.86621 15.4678 10.2793V13.3555H14.4219L12.8926 10.209C12.7256 9.83984 12.4531 9.61133 12.0137 9.61133C11.5127 9.61133 11.1787 9.92773 11.1787 10.4199V13.3555H10.7129C10.4756 13.3555 10.2998 13.5225 10.2998 13.7686ZM12.4707 13.3555V11.7998L13.1826 13.3555H12.4707ZM14.7646 14.1904H15.4766V15.7373L14.7646 14.1904Z" fill="#1C1C1E"/>
</svg>
