<svg width="28" height="28" viewBox="0 0 28 28" fill="none" xmlns="http://www.w3.org/2000/svg">
<path d="M13.9912 22.7422C18.9746 22.7422 23.0879 18.6289 23.0879 13.6543C23.0879 8.67969 18.9658 4.56641 13.9824 4.56641C9.00781 4.56641 4.90332 8.67969 4.90332 13.6543C4.90332 18.6289 9.0166 22.7422 13.9912 22.7422ZM11.6709 11.8613C11.627 11.5273 11.4775 11.2285 11.249 11C11.9961 9.11914 13.1738 7.42285 14.7031 6.02539C14.7998 6.03418 14.9053 6.05176 15.0107 6.06055C13.9297 7.9502 13.2793 10.0508 13.1123 12.2305C12.6201 12.1426 12.1367 12.0195 11.6709 11.8613ZM7.66309 9.37402C8.86719 7.61621 10.7744 6.36816 12.9629 6.06055C11.7412 7.39648 10.7744 8.92578 10.124 10.5869C9.86914 10.6045 9.64062 10.6836 9.44727 10.8066C8.80566 10.4023 8.20801 9.91895 7.66309 9.37402ZM16.8037 9.42676C16.7949 8.50391 16.9092 7.58105 17.1641 6.69336C18.79 7.44922 20.126 8.75879 20.8994 10.376C20.0469 11.0264 19.0977 11.5186 18.0957 11.8613C17.832 11.5449 17.4453 11.3428 17.0146 11.334C16.8828 10.71 16.8125 10.0771 16.8037 9.42676ZM15.5996 9.42676C15.6084 10.2441 15.7051 11.0527 15.8896 11.8262C15.7578 11.9756 15.6523 12.1602 15.5996 12.3535C15.3711 12.3711 15.1514 12.3799 14.9229 12.3799C14.7207 12.3799 14.5098 12.3799 14.3076 12.3623C14.4482 10.4902 14.9668 8.67969 15.8369 7.05371C15.6699 7.81836 15.5908 8.61816 15.5996 9.42676ZM6.33594 13.6543C6.33594 12.5205 6.58203 11.4482 7.03906 10.4727C7.5752 10.9824 8.16406 11.4395 8.78809 11.8262C8.7793 11.8965 8.77051 11.958 8.77051 12.0283C8.77051 12.5029 8.99902 12.9336 9.35938 13.1973C9.19238 14.0498 9.10449 14.9287 9.0957 15.8076C8.12012 15.333 7.19727 14.7266 6.34473 14.0059C6.33594 13.8916 6.33594 13.7686 6.33594 13.6543ZM21.6553 13.6543C21.6553 14.3486 21.5586 15.0254 21.3828 15.667C20.8906 15.9307 20.3896 16.1592 19.8799 16.3525C19.0889 15.623 18.4385 14.7793 17.9375 13.8477C18.166 13.6367 18.333 13.3555 18.3945 13.0303C19.4492 12.6875 20.4424 12.1953 21.3564 11.5537C21.5498 12.2217 21.6553 12.9248 21.6553 13.6543ZM10.2998 16.335C10.2734 15.3594 10.3525 14.3926 10.5283 13.4521C10.8271 13.3906 11.0996 13.2324 11.3018 13.0127C11.873 13.1973 12.4619 13.3467 13.0684 13.4434C13.0771 14.5244 13.2002 15.5879 13.4287 16.625C13.2793 16.748 13.1562 16.8975 13.0684 17.0645C12.1279 16.9238 11.1963 16.6777 10.2998 16.335ZM14.9229 13.584C15.2041 13.584 15.4854 13.5752 15.7666 13.5488C15.9863 13.8916 16.3467 14.1289 16.7598 14.1992C17.2432 15.1396 17.8584 16.001 18.5967 16.7656C17.6475 17.0205 16.6719 17.1699 15.6963 17.2139C15.5117 16.748 15.0986 16.4053 14.6064 16.3262C14.4043 15.4297 14.29 14.5068 14.2812 13.5664C14.4922 13.584 14.7119 13.584 14.9229 13.584ZM6.63477 15.7549C7.41699 16.3086 8.26074 16.7744 9.12207 17.1611C9.1748 18.0752 9.31543 18.9805 9.55273 19.8682C8.16406 18.875 7.11816 17.4248 6.63477 15.7549ZM13.9912 21.3184C12.9717 21.3184 11.9961 21.1074 11.0996 20.7383C10.7217 19.7451 10.4756 18.708 10.3701 17.6445C11.2227 17.9346 12.1016 18.1455 12.9805 18.2686C13.1826 18.8047 13.6836 19.1826 14.2812 19.209C14.5713 19.8945 14.9229 20.5625 15.3271 21.1953C14.8965 21.2744 14.4482 21.3184 13.9912 21.3184ZM15.4062 18.7607C15.5029 18.6641 15.582 18.541 15.6436 18.418C16.9971 18.3652 18.333 18.1367 19.6338 17.7148C19.8184 17.8643 20.0029 17.9961 20.1875 18.1279C19.2822 19.376 18.0166 20.3428 16.5488 20.8701C16.1006 20.2021 15.7227 19.499 15.4062 18.7607Z" fill="#1C1C1E"/>
</svg>
