<svg width="28" height="28" viewBox="0 0 28 28" fill="none" xmlns="http://www.w3.org/2000/svg">
<path d="M3.59375 20.3691C3.59375 22.1885 4.5957 23.1816 6.48535 23.1816H21.5059C23.4131 23.1816 24.4062 22.1973 24.4062 20.3164V7.00098C24.4062 5.12012 23.4131 4.13574 21.5059 4.13574H10.5107C8.60352 4.13574 7.61914 5.12012 7.61914 7.00098V10.9121H5.68555C4.37598 10.9121 3.59375 11.6504 3.59375 12.9072V20.3691ZM9.11328 21.4238C9.28027 21.1074 9.36816 20.7295 9.36816 20.2988V7.15918C9.36816 6.31543 9.80762 5.89355 10.625 5.89355H21.3916C22.2178 5.89355 22.6484 6.31543 22.6484 7.15918V20.1582C22.6484 21.002 22.2178 21.4238 21.3916 21.4238H9.11328ZM11.6006 9.62891H20.4336C20.7676 9.62891 21.0225 9.36523 21.0225 9.03125C21.0225 8.70605 20.7676 8.45117 20.4336 8.45117H11.6006C11.249 8.45117 10.9941 8.70605 10.9941 9.03125C10.9941 9.36523 11.2578 9.62891 11.6006 9.62891ZM11.6006 12.6611H20.4336C20.7676 12.6611 21.0225 12.4062 21.0225 12.0811C21.0225 11.7471 20.7676 11.4834 20.4336 11.4834H11.6006C11.2578 11.4834 10.9941 11.7471 10.9941 12.0811C10.9941 12.4062 11.249 12.6611 11.6006 12.6611ZM5.34277 20.2725V13.2148C5.34277 12.8721 5.5625 12.6611 5.91406 12.6611H7.61914V20.2725C7.61914 20.9492 7.12695 21.4238 6.48535 21.4238C5.84375 21.4238 5.34277 20.9316 5.34277 20.2725ZM12.0928 18.7607H14.2725C14.958 18.7607 15.3799 18.3477 15.3799 17.6621V15.623C15.3799 14.9463 14.958 14.5244 14.2725 14.5244H12.0928C11.4072 14.5244 10.9854 14.9463 10.9854 15.623V17.6621C10.9854 18.3477 11.4072 18.7607 12.0928 18.7607ZM16.9355 15.7021H20.4336C20.7676 15.7021 21.0225 15.4473 21.0225 15.1221C21.0225 14.7881 20.7676 14.5244 20.4336 14.5244H16.9355C16.584 14.5244 16.3379 14.7881 16.3379 15.1221C16.3379 15.4473 16.5928 15.7021 16.9355 15.7021ZM16.9355 18.7607H20.4336C20.7676 18.7607 21.0225 18.5059 21.0225 18.1807C21.0225 17.8467 20.7676 17.583 20.4336 17.583H16.9355C16.5928 17.583 16.3379 17.8467 16.3379 18.1807C16.3379 18.5059 16.584 18.7607 16.9355 18.7607Z" fill="#1C1C1E"/>
</svg>
