<svg width="28" height="28" viewBox="0 0 28 28" fill="none" xmlns="http://www.w3.org/2000/svg">
<path d="M4.97363 18.2949C4.97363 20.624 6.59082 22.1797 9.0166 22.1797C9.79004 22.1797 10.6162 21.9072 11.2051 21.4502C10.6953 21.1689 10.2734 20.791 9.81641 20.2021C9.59668 20.3076 9.32422 20.3691 9.06934 20.3691C8.33105 20.3691 7.83008 19.9297 7.83008 19.3057C7.83008 18.708 8.27832 18.3037 8.92871 18.3037C9.49121 18.3037 9.87793 18.6377 10.3086 19.0947C11.1699 20.0352 12.0312 21.1426 14 21.1426C15.9775 21.1426 16.8301 20.0352 17.7002 19.0947C18.1221 18.6377 18.5088 18.3037 19.0713 18.3037C19.7217 18.3037 20.1787 18.708 20.1787 19.3057C20.1787 19.9297 19.6777 20.3691 18.9395 20.3691C18.6758 20.3691 18.4121 20.3076 18.1924 20.2021C17.7266 20.791 17.3135 21.1689 16.8037 21.4502C17.3838 21.9072 18.21 22.1797 18.9834 22.1797C21.418 22.1797 23.0264 20.624 23.0264 18.2949C23.0264 16.0713 21.4092 14.4277 19.1064 14.208C18.2188 12.1162 17.5771 9.86621 17.1025 7.7832C16.6719 5.91113 15.6875 4.91797 14 4.91797C12.3125 4.91797 11.3369 5.91113 10.8975 7.7832C10.4229 9.86621 9.79004 12.1162 8.89355 14.208C6.59961 14.4277 4.97363 16.0713 4.97363 18.2949Z" fill="#1C1C1E"/>
</svg>
