<svg width="28" height="28" viewBox="0 0 28 28" fill="none" xmlns="http://www.w3.org/2000/svg">
<path d="M13.9912 22.7422C18.9746 22.7422 23.0879 18.6289 23.0879 13.6543C23.0879 8.67969 18.9658 4.56641 13.9824 4.56641C9.00781 4.56641 4.90332 8.67969 4.90332 13.6543C4.90332 18.6289 9.0166 22.7422 13.9912 22.7422ZM13.9912 20.9316C9.95703 20.9316 6.73145 17.6885 6.73145 13.6543C6.73145 9.62012 9.95703 6.38574 13.9824 6.38574C18.0166 6.38574 21.2598 9.62012 21.2686 13.6543C21.2773 17.6885 18.0254 20.9316 13.9912 20.9316ZM11.75 17.9082C12.1543 17.9082 12.3916 17.7061 12.4707 17.3193L12.8311 15.6318H14.2812L13.9648 17.1611C13.877 17.5742 14.1494 17.9082 14.5625 17.9082C14.9756 17.9082 15.2393 17.7061 15.3184 17.3105L15.6699 15.623H16.4609C16.8564 15.623 17.1465 15.333 17.1465 14.9375C17.1465 14.5947 16.9092 14.3486 16.5752 14.3486H15.9336L16.2676 12.7754H17.0586C17.4629 12.7754 17.7441 12.4854 17.7441 12.0986C17.7441 11.7471 17.5068 11.5098 17.1729 11.5098H16.5137L16.8125 10.0596C16.8916 9.65527 16.6016 9.32129 16.1885 9.32129C15.793 9.32129 15.5381 9.51465 15.4678 9.90137L15.1338 11.5098H13.6748L13.9736 10.0596C14.0615 9.66406 13.7715 9.32129 13.3584 9.32129C12.9541 9.32129 12.708 9.51465 12.6289 9.90137L12.2949 11.5098H11.5039C11.1084 11.5098 10.8184 11.7998 10.8184 12.1865C10.8184 12.5293 11.0557 12.7754 11.3896 12.7754H12.04L11.7148 14.3486H10.9062C10.502 14.3486 10.2207 14.6387 10.2207 15.0342C10.2207 15.377 10.458 15.623 10.792 15.623H11.4512L11.1348 17.1611C11.0557 17.5742 11.3369 17.9082 11.75 17.9082ZM12.9893 14.498L13.3584 12.6699H14.9932L14.6152 14.498H12.9893Z" fill="#1C1C1E"/>
</svg>
