<svg width="28" height="28" viewBox="0 0 28 28" fill="none" xmlns="http://www.w3.org/2000/svg">
<path d="M8.67383 21.8809H19.3174C21.2246 21.8809 22.209 20.8965 22.209 19.0156V8.31934C22.209 6.43848 21.2246 5.4541 19.3174 5.4541H8.67383C6.77539 5.4541 5.78223 6.42969 5.78223 8.31934V19.0156C5.78223 20.8965 6.77539 21.8809 8.67383 21.8809ZM8.78809 20.1318C7.97949 20.1318 7.53125 19.71 7.53125 18.8574V8.47754C7.53125 7.625 7.97949 7.20312 8.78809 7.20312H19.2031C20.0029 7.20312 20.46 7.625 20.46 8.47754V18.8574C20.46 19.71 20.0029 20.1318 19.2031 20.1318H8.78809ZM11.7676 17.8994C12.1719 17.8994 12.4092 17.7061 12.4883 17.3105L12.8398 15.623H14.29L13.9736 17.1523C13.8945 17.5654 14.167 17.8994 14.5801 17.8994C14.9932 17.8994 15.248 17.6973 15.3271 17.3105L15.6875 15.6143H16.4785C16.874 15.6143 17.1553 15.3242 17.1553 14.9287C17.1553 14.5859 16.918 14.3486 16.584 14.3486H15.9512L16.2764 12.7754H17.0762C17.4717 12.7754 17.7617 12.4766 17.7617 12.0898C17.7617 11.7471 17.5244 11.501 17.1904 11.501H16.5312L16.8301 10.0596C16.9092 9.65527 16.6104 9.3125 16.2061 9.3125C15.8105 9.3125 15.5557 9.50586 15.4766 9.89258L15.1514 11.501H13.6924L13.9912 10.0596C14.0703 9.66406 13.7891 9.3125 13.3672 9.3125C12.9717 9.3125 12.7256 9.50586 12.6465 9.89258L12.3125 11.501H11.5127C11.1172 11.501 10.8359 11.791 10.8359 12.1865C10.8359 12.5293 11.0732 12.7754 11.3984 12.7754H12.0576L11.7324 14.3486H10.915C10.5195 14.3486 10.2383 14.6387 10.2383 15.0254C10.2383 15.3682 10.4668 15.6143 10.8008 15.6143H11.4688L11.1523 17.1523C11.0645 17.5654 11.3545 17.8994 11.7676 17.8994ZM12.998 14.4893L13.376 12.6611H15.0107L14.6328 14.4893H12.998Z" fill="#1C1C1E"/>
</svg>
