<svg width="28" height="28" viewBox="0 0 28 28" fill="none" xmlns="http://www.w3.org/2000/svg">
<path d="M13.9912 22.7422C18.9746 22.7422 23.0879 18.6289 23.0879 13.6543C23.0879 8.67969 18.9658 4.56641 13.9824 4.56641C9.00781 4.56641 4.90332 8.67969 4.90332 13.6543C4.90332 18.6289 9.0166 22.7422 13.9912 22.7422ZM13.9912 20.9316C9.95703 20.9316 6.73145 17.6885 6.73145 13.6543C6.73145 9.62012 9.95703 6.38574 13.9824 6.38574C18.0166 6.38574 21.2598 9.62012 21.2686 13.6543C21.2773 17.6885 18.0254 20.9316 13.9912 20.9316ZM13.9912 17.7676C16.2324 17.7676 17.8145 16.0889 17.8145 13.6016C17.8145 11.1055 16.2324 9.42676 13.9912 9.42676C11.7412 9.42676 10.1592 11.1055 10.1592 13.6016C10.1592 16.0889 11.7412 17.7676 13.9912 17.7676ZM13.9912 16.4229C12.708 16.4229 11.8467 15.333 11.8467 13.6016C11.8467 11.8613 12.708 10.7715 13.9912 10.7715C15.2656 10.7715 16.127 11.8613 16.127 13.6016C16.127 15.333 15.2656 16.4229 13.9912 16.4229Z" fill="#1C1C1E"/>
</svg>
