<svg width="28" height="28" viewBox="0 0 28 28" fill="none" xmlns="http://www.w3.org/2000/svg">
<path d="M8.67383 21.8809H19.3174C21.2246 21.8809 22.209 20.8965 22.209 19.0156V8.31934C22.209 6.43848 21.2246 5.4541 19.3174 5.4541H8.67383C6.77539 5.4541 5.78223 6.42969 5.78223 8.31934V19.0156C5.78223 20.8965 6.77539 21.8809 8.67383 21.8809ZM8.78809 20.1318C7.97949 20.1318 7.53125 19.71 7.53125 18.8574V8.47754C7.53125 7.625 7.97949 7.20312 8.78809 7.20312H19.2031C20.0029 7.20312 20.46 7.625 20.46 8.47754V18.8574C20.46 19.71 20.0029 20.1318 19.2031 20.1318H8.78809ZM14 17.7588C16.25 17.7588 17.832 16.0889 17.832 13.5928C17.832 11.0967 16.25 9.42676 14 9.42676C11.7588 9.42676 10.1768 11.0967 10.1768 13.5928C10.1768 16.0889 11.7588 17.7588 14 17.7588ZM14 16.4141C12.7168 16.4141 11.8643 15.3242 11.8643 13.5928C11.8643 11.8525 12.7168 10.7715 14 10.7715C15.2832 10.7715 16.1445 11.8525 16.1445 13.5928C16.1445 15.3242 15.2832 16.4141 14 16.4141Z" fill="#1C1C1E"/>
</svg>
