<svg width="28" height="28" viewBox="0 0 28 28" fill="none" xmlns="http://www.w3.org/2000/svg">
<path d="M11.3105 22.3115H16.6895C17.832 22.3115 18.4561 21.9336 19.0625 21.2568L22.2617 17.6621C22.8682 16.9766 23.0264 16.5371 23.0264 15.6055V11.7646C23.0264 10.833 22.8682 10.3936 22.2617 9.70801L19.0625 6.11328C18.4561 5.44531 17.832 5.05859 16.6895 5.05859H11.3105C10.168 5.05859 9.55273 5.44531 8.9375 6.11328L5.74707 9.70801C5.13184 10.3936 4.97363 10.833 4.97363 11.7646V15.6055C4.97363 16.5371 5.13184 16.9766 5.74707 17.6621L8.9375 21.2568C9.55273 21.9336 10.168 22.3115 11.3105 22.3115ZM11.7324 20.5889C10.8975 20.5889 10.625 20.3955 10.1592 19.8857L7.32031 16.7217C6.97754 16.335 6.89844 16.0977 6.89844 15.4473V11.9229C6.89844 11.2725 6.97754 11.0352 7.32031 10.6484L10.1592 7.48438C10.625 6.97461 10.8975 6.78125 11.7324 6.78125H16.2764C17.1025 6.78125 17.375 6.97461 17.8408 7.48438L20.6797 10.6484C21.0225 11.0352 21.1104 11.2725 21.1104 11.9229V15.4473C21.1104 16.0977 21.0225 16.335 20.6797 16.7217L17.8408 19.8857C17.375 20.3955 17.1025 20.5889 16.2764 20.5889H11.7324Z" fill="#1C1C1E"/>
</svg>
