<svg width="28" height="28" viewBox="0 0 28 28" fill="none" xmlns="http://www.w3.org/2000/svg">
<path d="M13.9912 22.7422C18.9746 22.7422 23.0879 18.6289 23.0879 13.6543C23.0879 8.67969 18.9658 4.56641 13.9824 4.56641C9.00781 4.56641 4.90332 8.67969 4.90332 13.6543C4.90332 18.6289 9.0166 22.7422 13.9912 22.7422ZM12.0049 17.8467C11.4336 17.8467 11.126 17.4512 11.126 16.8447V10.4727C11.126 9.84863 11.4336 9.45312 12.04 9.45312H14.5449C16.3555 9.45312 17.5596 10.6045 17.5596 12.3271C17.5596 14.0586 16.3555 15.2012 14.5273 15.2012H12.9102V16.8447C12.9102 17.46 12.585 17.8467 12.0049 17.8467ZM12.9102 13.874H14.29C15.2568 13.874 15.8369 13.2939 15.8369 12.3271C15.8369 11.3691 15.2568 10.7891 14.29 10.7891H12.9102V13.874Z" fill="#1C1C1E"/>
</svg>
