<svg width="28" height="28" viewBox="0 0 28 28" fill="none" xmlns="http://www.w3.org/2000/svg">
<path d="M5.65048 23.1552C7.17977 24.6845 8.97274 24.7021 10.4757 23.1992C11.5216 22.1533 12.6114 19.7363 13.4288 18.7168L15.2569 20.5537C15.9952 21.3007 16.9005 21.3007 17.6212 20.58L18.7813 19.4111C19.3614 18.831 19.4757 18.1455 19.1065 17.5127L22.7452 13.874C23.7735 12.8457 23.7472 11.6152 22.7013 10.5693L15.7931 3.65231C14.7823 2.64156 13.0948 3.05465 12.752 4.57516C12.0489 7.62496 11.9171 8.34566 11.1085 9.6025C10.5284 9.35641 9.91317 9.49703 9.38583 10.0244L8.22567 11.1845C7.50497 11.9052 7.50497 12.8017 8.25204 13.5488L10.0802 15.3769C9.07821 16.1943 6.65243 17.2841 5.60653 18.33C4.1036 19.833 4.11239 21.6259 5.65048 23.1552ZM17.085 12.9863C17.5157 13.417 19.8272 12.1777 20.8292 11.0966L21.462 11.7207C21.8224 12.0898 21.8224 12.4941 21.4796 12.8369L18.0079 16.3173L12.3829 10.6836C13.3761 9.15426 13.5606 8.03805 14.2638 5.44527C14.3604 5.05856 14.6768 4.95309 14.9405 5.21676L19.0186 9.29488C18.7901 10.6923 18.0255 11.7295 17.1026 12.6523C16.9884 12.7578 17.0059 12.9072 17.085 12.9863ZM9.65829 12.1513L10.3438 11.4834C10.5372 11.29 10.7481 11.2812 10.9503 11.4834L17.3224 17.8554C17.5157 18.0488 17.5157 18.2685 17.3136 18.4619L16.6544 19.1386C16.4522 19.3408 16.2325 19.3496 16.0304 19.1474L13.921 17.0205C13.5606 16.6601 13.0772 16.6953 12.6641 17.0908C11.9786 17.7675 10.7833 20.6416 9.38583 22.039C8.58602 22.8476 7.61923 22.8388 6.78427 22.0214C5.96688 21.1865 5.96688 20.2109 6.76669 19.4199C8.17294 18.0224 11.0382 16.8271 11.7149 16.1416C12.1104 15.7285 12.1456 15.2451 11.7852 14.8847L9.65829 12.7666C9.46493 12.5644 9.46493 12.3535 9.65829 12.1513ZM8.06747 21.7929C8.63876 21.7929 9.10458 21.3271 9.10458 20.7558C9.10458 20.1845 8.63876 19.7099 8.06747 19.7099C7.48739 19.7099 7.02157 20.1845 7.02157 20.7558C7.02157 21.3271 7.48739 21.7929 8.06747 21.7929Z" fill="#1C1C1E"/>
</svg>
