<svg width="28" height="28" viewBox="0 0 28 28" fill="none" xmlns="http://www.w3.org/2000/svg">
<path d="M4.42874 20.914C6.18655 23.164 9.7637 23.7002 11.9522 21.9511C13.0948 21.0459 13.6485 19.8505 13.5606 18.6377C14.3955 18.4619 15.1602 17.9785 15.9864 17.1523C18.8867 14.2607 23.2549 7.85348 23.6153 7.34371C24.8194 5.65621 22.7539 3.59078 21.0576 4.79488C20.5567 5.14645 14.167 9.48824 11.2754 12.3974C10.4317 13.2412 9.93948 14.0146 9.75491 14.8671C9.07816 14.8671 8.41019 15.0957 7.81253 15.5791C6.45023 16.6601 6.91605 18.1103 6.19534 18.6728C5.55374 19.165 4.87698 18.8574 4.35843 19.2793C3.92777 19.6572 3.91019 20.2724 4.42874 20.914ZM21.6289 6.42086C21.8926 6.21871 22.1826 6.50875 21.9805 6.79C21.5586 7.48434 18.2891 12.1162 15.7227 14.9814C15.3184 13.9707 14.4307 13.0742 13.4463 12.6699C16.3291 10.1211 20.917 6.92184 21.6289 6.42086ZM12.6377 16.4404C12.2598 15.9658 11.8379 15.5966 11.3897 15.333C11.46 14.8232 11.75 14.3222 12.3125 13.7334C13.3496 13.9091 14.4834 15.0429 14.6768 16.0888C14.0616 16.6689 13.5694 16.9414 13.042 17.0205C12.919 16.8271 12.7871 16.6337 12.6377 16.4404ZM6.45902 20.5976C6.35355 20.4834 6.36234 20.3691 6.44144 20.29C6.56448 20.1757 7.00394 20.123 7.33792 19.789C8.21683 18.9101 7.87405 17.7324 8.85843 16.9326C9.62308 16.2998 10.7129 16.5019 11.46 17.4248C12.3213 18.4707 12.0664 19.7978 10.9414 20.7031C9.64945 21.7578 7.66312 21.7841 6.45902 20.5976Z" fill="#1C1C1E"/>
</svg>
