<svg width="28" height="28" viewBox="0 0 28 28" fill="none" xmlns="http://www.w3.org/2000/svg">
<path d="M19.2471 17.3281L22.6484 13.9268C23.668 12.9072 23.6416 11.6944 22.6045 10.6309L22.1035 10.1211C21.1895 11.2901 18.5879 12.6875 18.0957 12.1953C18.0166 12.1162 18.0078 11.958 18.1221 11.835C19.168 10.7891 19.8799 9.74318 20.0381 8.07326L15.5381 3.55568C14.624 2.65041 13.1035 3.00197 12.6816 4.63674C12.1016 6.87795 11.6094 8.21389 11.1436 9.22463L19.2471 17.3281ZM5.68555 23.0938C7.0918 24.5088 8.9375 24.5264 10.3262 23.1289C11.3721 22.0918 12.374 19.7979 13.1563 18.5674L15.1953 20.6153C15.8897 21.3184 16.7334 21.3184 17.4014 20.6416L18.1484 19.8946C18.834 19.2002 18.8164 18.4004 18.1133 17.6973L11.082 10.6572C10.3701 9.95412 9.56153 9.94533 8.86719 10.6309L8.12891 11.3692C7.45215 12.0459 7.45215 12.8809 8.15528 13.584L10.1943 15.6231C8.97266 16.3965 6.67871 17.4072 5.64161 18.4444C4.24414 19.8418 4.26172 21.6787 5.68555 23.0938ZM8.08496 21.8369C7.50489 21.8369 7.03028 21.3623 7.03028 20.7822C7.03028 20.2022 7.50489 19.7276 8.08496 19.7276C8.66504 19.7276 9.13086 20.2022 9.13086 20.7822C9.13086 21.3623 8.66504 21.8369 8.08496 21.8369Z" fill="#1C1C1E"/>
</svg>
