<svg width="28" height="28" viewBox="0 0 28 28" fill="none" xmlns="http://www.w3.org/2000/svg">
<path d="M21.172 4.92664C20.7237 5.25183 15.8546 8.5741 12.8224 11.2548C14.8966 11.9315 16.5138 13.5399 17.1905 15.6317C19.88 12.5907 23.2022 7.73035 23.5274 7.27332C24.6349 5.70007 22.7013 3.81043 21.172 4.92664ZM12.8136 15.6317C13.4903 16.3085 13.9825 17.1874 14.1319 17.952C14.7999 17.829 15.3536 17.5214 15.9161 16.9764C16.0128 16.8886 16.1007 16.8007 16.1886 16.704C15.837 14.4803 13.9562 12.5995 11.7501 12.2567C11.6534 12.3358 11.5567 12.4325 11.4689 12.5292C10.9239 13.0917 10.6075 13.663 10.5021 14.3309C11.2491 14.4628 12.1368 14.9462 12.8136 15.6317ZM4.46397 20.7997C6.07237 22.9266 9.41221 23.5595 11.5128 21.9686C13.297 20.6327 13.6046 18.6024 12.3214 16.9061C11.1612 15.368 9.17491 14.9901 7.85655 16.0096C6.4503 17.0731 7.0128 18.4354 6.18662 19.0507C5.47471 19.5956 4.87705 19.244 4.42002 19.5868C4.05967 19.8593 4.06846 20.2987 4.46397 20.7997Z" fill="#1C1C1E"/>
</svg>
