<svg width="28" height="28" viewBox="0 0 28 28" fill="none" xmlns="http://www.w3.org/2000/svg">
<path d="M13.9912 22.9795C18.9746 22.9795 23.0879 18.8662 23.0879 13.8916C23.0879 8.91699 18.9658 4.80371 13.9824 4.80371C9.00781 4.80371 4.90332 8.91699 4.90332 13.8916C4.90332 18.8662 9.0166 22.9795 13.9912 22.9795ZM14.2197 19.7451C13.7539 19.7451 13.5781 19.376 13.4199 18.8662L12.6465 16.335C12.5498 15.9834 12.5674 15.7725 12.7871 15.5439L17.9023 9.98926C17.9639 9.91895 17.9727 9.83984 17.9111 9.77832C17.8496 9.73438 17.7793 9.72559 17.7002 9.78711L12.1631 14.9375C11.917 15.1572 11.7236 15.1572 11.3721 15.0518L8.7793 14.2607C8.28711 14.1113 7.94434 13.9355 7.94434 13.4697C7.94434 13.0742 8.26074 12.8105 8.68262 12.6523L17.3311 9.33887C17.5508 9.25977 17.7354 9.21582 17.9111 9.21582C18.2539 9.21582 18.4736 9.43555 18.4736 9.77832C18.4736 9.9541 18.4297 10.1387 18.3506 10.3584L15.0547 18.9717C14.8789 19.4463 14.6064 19.7451 14.2197 19.7451Z" fill="#1C1C1E"/>
</svg>
