<svg width="28" height="28" viewBox="0 0 28 28" fill="none" xmlns="http://www.w3.org/2000/svg">
<path d="M13.9912 22.7422C18.9746 22.7422 23.0879 18.6289 23.0879 13.6543C23.0879 8.67969 18.9658 4.56641 13.9824 4.56641C9.00781 4.56641 4.90332 8.67969 4.90332 13.6543C4.90332 18.6289 9.0166 22.7422 13.9912 22.7422ZM13.9912 20.9316C9.95703 20.9316 6.73145 17.6885 6.73145 13.6543C6.73145 9.62012 9.95703 6.38574 13.9824 6.38574C18.0166 6.38574 21.2598 9.62012 21.2686 13.6543C21.2773 17.6885 18.0254 20.9316 13.9912 20.9316ZM17.041 13.7773L13.5957 17.2227C12.8047 18.0137 11.6885 18.0137 10.9326 17.2578C10.1592 16.502 10.168 15.3945 10.9678 14.5859L15.6787 9.875C16.1621 9.3916 16.8564 9.33887 17.3047 9.78711C17.7705 10.2441 17.709 10.9121 17.208 11.4131L12.585 16.0361C12.4355 16.1943 12.2686 16.1855 12.1279 16.0537C11.9873 15.9307 11.9873 15.7373 12.1455 15.5967L15.3623 12.3711C15.582 12.1514 15.5996 11.8701 15.3887 11.6592C15.1777 11.457 14.8877 11.4658 14.6768 11.6768L11.4512 14.9199C10.915 15.4473 10.9062 16.2734 11.3984 16.7832C11.917 17.3193 12.7168 17.293 13.2617 16.748L17.9111 12.0986C18.834 11.1758 18.8604 9.92773 17.999 9.0752C17.1289 8.21387 15.8809 8.23145 14.958 9.14551L10.2119 13.8916C9.02539 15.0869 9.03418 16.8447 10.1855 17.9961C11.3984 19.1738 13.0947 19.1562 14.2812 17.9697L17.7617 14.498C17.9551 14.3047 17.9639 13.9531 17.7617 13.7686C17.5684 13.584 17.2344 13.584 17.041 13.7773Z" fill="#1C1C1E"/>
</svg>
