<svg width="28" height="28" viewBox="0 0 28 28" fill="none" xmlns="http://www.w3.org/2000/svg">
<path d="M13.9912 22.7598C18.9746 22.7598 23.0879 18.6465 23.0879 13.6631C23.0879 8.68848 18.9658 4.5752 13.9824 4.5752C9.00781 4.5752 4.90332 8.68848 4.90332 13.6631C4.90332 18.6465 9.0166 22.7598 13.9912 22.7598ZM17.1641 13.7949C17.3662 13.584 17.7178 13.584 17.9199 13.7773C18.1309 13.9707 18.1221 14.3398 17.9199 14.5332L14.2988 18.1543C13.0684 19.376 11.3018 19.4023 10.0449 18.1719C8.84082 16.9854 8.84082 15.1484 10.0713 13.9092L15.002 8.96973C15.96 8.02051 17.2607 8.00293 18.166 8.89941C19.0625 9.78711 19.0361 11.0791 18.0781 12.0459L13.2441 16.8711C12.6729 17.4424 11.8379 17.4775 11.3105 16.9238C10.792 16.3877 10.8008 15.5176 11.3545 14.9639L14.7119 11.6064C14.9229 11.3867 15.2305 11.3779 15.4502 11.5889C15.6699 11.8086 15.6523 12.1074 15.4238 12.3271L12.084 15.6758C11.917 15.834 11.917 16.0273 12.0664 16.1592C12.2158 16.291 12.3828 16.291 12.5322 16.1328L17.3486 11.334C17.8584 10.8154 17.9199 10.1123 17.4453 9.6377C16.9795 9.18066 16.2588 9.22461 15.749 9.73438L10.8535 14.6299C10.0273 15.4648 10.0186 16.6162 10.8184 17.4072C11.6094 18.1895 12.7607 18.1895 13.5869 17.3633L17.1641 13.7949Z" fill="#1C1C1E"/>
</svg>
