<svg width="28" height="28" viewBox="0 0 28 28" fill="none" xmlns="http://www.w3.org/2000/svg">
<path d="M11.0117 23.4717C11.4248 23.4717 11.7588 23.1904 11.7588 22.8389C11.7588 22.6191 11.6973 22.4434 11.5479 22.1797C10.0801 19.6309 9.28906 16.5898 9.28906 13.6455C9.28906 10.7363 10.0361 7.75684 11.5303 5.15527C11.6709 4.90039 11.7412 4.70703 11.7412 4.49609C11.7412 4.14453 11.416 3.86328 11.0029 3.86328C10.5635 3.86328 10.2295 4.10938 9.84277 4.6543C7.99707 7.26465 7.05664 10.4551 7.05664 13.6543C7.05664 16.8535 7.99707 20.0615 9.86035 22.6719C10.2471 23.2256 10.5811 23.4717 11.0117 23.4717ZM16.9795 23.4717C17.4189 23.4717 17.7441 23.2256 18.1396 22.6719C19.9941 20.0615 20.9434 16.8535 20.9434 13.6543C20.9434 10.4551 20.0029 7.26465 18.1484 4.6543C17.7617 4.10938 17.4277 3.86328 16.9971 3.86328C16.584 3.86328 16.2588 4.14453 16.2588 4.49609C16.2588 4.70703 16.3203 4.90039 16.4697 5.15527C17.9551 7.75684 18.7109 10.7363 18.7109 13.6455C18.7109 16.5898 17.9111 19.6309 16.4521 22.1797C16.3027 22.4434 16.2412 22.6191 16.2412 22.8389C16.2412 23.1904 16.5664 23.4717 16.9795 23.4717Z" fill="#1C1C1E"/>
</svg>
