<svg width="28" height="28" viewBox="0 0 28 28" fill="none" xmlns="http://www.w3.org/2000/svg">
<path d="M14 22.7334C18.9658 22.7334 23.0791 18.6289 23.0791 13.6543C23.0791 8.68848 18.9658 4.5752 13.9912 4.5752C9.02539 4.5752 4.9209 8.68848 4.9209 13.6543C4.9209 18.6289 9.03418 22.7334 14 22.7334ZM12.0225 17.8379C11.46 17.8379 11.1523 17.4512 11.1523 16.8535V10.4463C11.1523 9.83984 11.46 9.45312 12.0576 9.45312H14.5625C16.3643 9.45312 17.5684 10.6045 17.5684 12.3184C17.5684 14.0498 16.373 15.1836 14.5449 15.1836H12.9102V16.8535C12.9102 17.46 12.5938 17.8379 12.0225 17.8379ZM12.9102 13.874H14.3076C15.292 13.874 15.8721 13.2939 15.8721 12.3184C15.8721 11.3516 15.2832 10.7627 14.3076 10.7627H12.9102V13.874Z" fill="#1C1C1E"/>
</svg>
