<svg width="28" height="28" viewBox="0 0 28 28" fill="none" xmlns="http://www.w3.org/2000/svg">
<path d="M8.15529 19.6221C10.6162 22.083 13.7012 22.8389 15.1602 22.9883C15.7403 23.0762 16.1094 22.7685 16.1358 22.3203C16.1709 21.9072 15.916 21.5732 15.3975 21.4678C14.0703 21.248 11.3369 20.6064 9.26271 18.5146C5.8965 15.1572 5.22853 9.9453 8.00588 7.15917C10.2295 4.94432 13.9209 5.16405 16.6455 6.63182L17.7969 5.49803C14.2988 3.37108 9.65822 3.30077 6.90725 6.05174C3.62014 9.34764 4.00685 15.4736 8.15529 19.6221ZM21.5147 6.86913L22.2617 6.11327C22.6485 5.71776 22.6836 5.14647 22.2969 4.77733L22.0332 4.52245C21.6904 4.20604 21.1367 4.23241 20.7588 4.60155L20.0029 5.35741L21.5147 6.86913ZM12.9278 15.4473L20.8643 7.51952L19.3438 6.0078L11.416 13.9355L10.6514 15.7812C10.5547 16.0273 10.8008 16.2646 11.0381 16.1767L12.9278 15.4473ZM11.4951 16.9414C14.2988 19.8594 19.124 20.9492 21.7608 18.3213C23.9053 16.168 23.7207 12.3447 21.3828 9.04003L20.2578 10.165C21.9805 12.7051 22.2969 15.5703 20.6533 17.2139C18.6319 19.2353 15.336 18.3213 13.1826 16.2646L11.4951 16.9414Z" fill="#1C1C1E"/>
</svg>
