<svg width="28" height="28" viewBox="0 0 28 28" fill="none" xmlns="http://www.w3.org/2000/svg">
<path d="M13.9912 22.7598C18.9746 22.7598 23.0879 18.6465 23.0879 13.6631C23.0879 8.68848 18.9658 4.5752 13.9824 4.5752C9.00781 4.5752 4.90332 8.68848 4.90332 13.6631C4.90332 18.6465 9.0166 22.7598 13.9912 22.7598ZM17.5596 11.2285L16.3818 10.0508L17.041 9.3916C17.3662 9.0752 17.7354 9.04883 18.0342 9.34766L18.2539 9.56738C18.5527 9.86621 18.5439 10.2441 18.2188 10.5693L17.5596 11.2285ZM11.1787 17.5918L9.92188 18.0664C9.66699 18.1543 9.38574 17.9082 9.50879 17.627L10.0098 16.4141L15.8281 10.5957L17.0059 11.7734L11.1787 17.5918Z" fill="#1C1C1E"/>
</svg>
