<svg width="28" height="28" viewBox="0 0 28 28" fill="none" xmlns="http://www.w3.org/2000/svg">
<path d="M20.0118 9.49701L20.9698 8.54779C21.4444 8.07318 21.462 7.55463 21.0313 7.11518L20.6885 6.7724C20.2579 6.34174 19.7217 6.37689 19.2559 6.84272L18.2979 7.78314L20.0118 9.49701ZM19.8536 19.6923C20.126 19.9648 20.5743 19.9648 20.838 19.6923C21.1104 19.4111 21.1192 18.9716 20.838 18.6992L9.26276 7.12397C8.9903 6.8515 8.53327 6.8515 8.2696 7.12397C8.00592 7.39643 8.00592 7.85346 8.2696 8.11713L19.8536 19.6923ZM16.5928 12.8984L19.168 10.3232L17.463 8.62689L14.8878 11.1933L16.5928 12.8984ZM9.24518 20.246L14.0616 15.4296L12.3565 13.7246L7.5401 18.5322L6.68756 20.6064C6.5821 20.8701 6.85456 21.1513 7.11823 21.0634L9.24518 20.246Z" fill="#1C1C1E"/>
</svg>
