<svg width="28" height="28" viewBox="0 0 28 28" fill="none" xmlns="http://www.w3.org/2000/svg">
<path d="M9.08696 22.0039C9.58794 22.0039 9.83403 21.7402 9.92192 21.3184L11.5479 13.373H16.4434L18.0782 21.3184C18.1661 21.7402 18.4034 22.0039 18.9131 22.0039C19.6075 22.0039 19.8536 21.4941 19.7217 20.9316L18.0342 12.7754C17.9024 12.1689 17.4102 11.7119 16.8125 11.6855L14.8262 5.91992C14.6856 5.5332 14.4131 5.30469 14.0088 5.30469C13.587 5.30469 13.2881 5.5332 13.1563 5.91992L11.17 11.6855C10.5811 11.7119 10.0889 12.1689 9.95708 12.7754L8.27837 20.9316C8.14653 21.5029 8.40141 22.0039 9.08696 22.0039Z" fill="#1C1C1E"/>
</svg>
