<svg width="28" height="28" viewBox="0 0 28 28" fill="none" xmlns="http://www.w3.org/2000/svg">
<path d="M8.43652 5.07617H19.5635C19.502 4.30273 19.0449 3.88086 18.2012 3.88086H9.79004C8.95508 3.88086 8.48926 4.30273 8.43652 5.07617ZM6.64355 7.61621H21.3564C21.2334 6.78125 20.8115 6.30664 19.8799 6.30664H8.12012C7.18848 6.30664 6.7666 6.78125 6.64355 7.61621ZM7.68066 23.4189H20.3105C22.1387 23.4189 23.0967 22.4697 23.0967 20.6592V11.8086C23.0967 9.99805 22.1387 9.04883 20.3105 9.04883H7.68066C5.84375 9.04883 4.89453 9.98926 4.89453 11.8086V20.6592C4.89453 22.4697 5.84375 23.4189 7.68066 23.4189ZM14.0088 17.5303C12.541 17.5127 11.3896 16.291 11.3809 14.6562C11.3809 13.1094 12.541 11.835 14.0088 11.835C15.4854 11.835 16.6455 13.1094 16.6455 14.6562C16.6455 16.291 15.4941 17.5479 14.0088 17.5303ZM9.0166 21.7578C9.71094 19.9912 11.6709 18.752 14.0088 18.752C16.3555 18.752 18.3154 19.9912 19.0098 21.7578H9.0166Z" fill="#1C1C1E"/>
</svg>
