<svg width="28" height="28" viewBox="0 0 28 28" fill="none" xmlns="http://www.w3.org/2000/svg">
<path d="M8.43652 4.8916H19.5635C19.502 4.10938 19.0449 3.6875 18.2012 3.6875H9.79004C8.95508 3.6875 8.48926 4.10938 8.43652 4.8916ZM6.64355 7.42285H21.3564C21.2334 6.58789 20.8115 6.11328 19.8799 6.11328H8.12012C7.18848 6.11328 6.7666 6.58789 6.64355 7.42285ZM7.59277 23.6035H20.3984C22.2881 23.6035 23.2812 22.6191 23.2812 20.7471V11.7119C23.2812 9.83105 22.2881 8.85547 20.3984 8.85547H7.59277C5.69434 8.85547 4.70996 9.83105 4.70996 11.7119V20.7471C4.70996 22.6279 5.69434 23.6035 7.59277 23.6035ZM7.69824 21.8809C6.88086 21.8809 6.43262 21.4502 6.43262 20.5977V11.8525C6.43262 11 6.88086 10.5781 7.69824 10.5781H20.293C21.1016 10.5781 21.5586 11 21.5586 11.8525V20.5977C21.5586 21.4502 21.1016 21.8809 20.293 21.8809H19.124C18.3506 20.1318 16.3818 18.9453 14.0352 18.9453C11.6973 18.9453 9.72852 20.1318 8.94629 21.8809H7.69824ZM14.0352 17.6797C15.5645 17.6973 16.751 16.3965 16.751 14.7178C16.751 13.1182 15.5557 11.7998 14.0352 11.7998C12.5234 11.7998 11.3193 13.1182 11.3281 14.7178C11.3281 16.3965 12.5146 17.6621 14.0352 17.6797Z" fill="#1C1C1E"/>
</svg>
