<svg width="28" height="28" viewBox="0 0 28 28" fill="none" xmlns="http://www.w3.org/2000/svg">
<path d="M13.9912 22.7598C18.9746 22.7598 23.0879 18.6465 23.0879 13.6631C23.0879 8.68848 18.9658 4.5752 13.9824 4.5752C9.00781 4.5752 4.90332 8.68848 4.90332 13.6631C4.90332 18.6465 9.0166 22.7598 13.9912 22.7598ZM16.2676 13.2324C15.3184 13.2324 14.5273 12.3799 14.5273 11.3076C14.5186 10.2529 15.3184 9.42676 16.2676 9.42676C17.1992 9.42676 17.999 10.2354 17.999 11.2988C17.999 12.3799 17.208 13.2324 16.2676 13.2324ZM11.2666 13.3203C10.4492 13.3203 9.74609 12.582 9.74609 11.6416C9.7373 10.7363 10.4492 10.0068 11.2666 10.0068C12.084 10.0068 12.7871 10.7188 12.7871 11.6416C12.7871 12.582 12.084 13.3203 11.2666 13.3203ZM8.87598 17.2402C8.2959 17.2402 8.07617 16.9941 8.07617 16.5635C8.07617 15.4033 9.33301 13.9795 11.2666 13.9795C12.04 13.9795 12.6553 14.208 13.1387 14.5156C12.1719 15.2715 11.6709 16.5811 12.1191 17.2402H8.87598ZM13.5693 17.2402C12.8574 17.2402 12.6025 17.0205 12.6025 16.625C12.6025 15.5176 14.0176 13.9883 16.2676 13.9883C18.5 13.9883 19.915 15.5176 19.915 16.625C19.915 17.0205 19.6689 17.2402 18.9482 17.2402H13.5693Z" fill="#1C1C1E"/>
</svg>
