<svg width="28" height="28" viewBox="0 0 28 28" fill="none" xmlns="http://www.w3.org/2000/svg">
<path d="M25.4502 15.7461C25.7578 15.9375 26.1406 15.8623 26.3525 15.5547C27.2412 14.2968 27.7539 12.6152 27.7539 10.8857C27.7539 9.14938 27.248 7.46091 26.3525 6.20993C26.1406 5.90231 25.7578 5.82712 25.4502 6.02536C25.1289 6.2236 25.0879 6.62692 25.3203 6.98239C26.0518 8.04196 26.4688 9.43649 26.4688 10.8857C26.4688 12.3281 26.0381 13.7158 25.3203 14.7822C25.0879 15.1377 25.1289 15.541 25.4502 15.7461ZM22.7227 13.9209C23.0098 14.1054 23.3926 14.0371 23.5977 13.7431C24.1445 13.0049 24.4727 11.9658 24.4727 10.8857C24.4727 9.7988 24.1445 8.76657 23.5977 8.02145C23.3926 7.72751 23.0098 7.65915 22.7227 7.85739C22.3945 8.0693 22.333 8.47263 22.5928 8.85544C22.9756 9.38864 23.1807 10.1201 23.1807 10.8857C23.1807 11.6445 22.9688 12.3691 22.5928 12.916C22.333 13.2988 22.3945 13.6953 22.7227 13.9209ZM17.5752 14.0029C19.0654 14.0029 20.3301 12.6767 20.3301 10.9609C20.3301 9.2861 19.0586 8.00778 17.5752 8.00778C16.0918 8.00778 14.8135 9.30661 14.8203 10.9746C14.8203 12.6767 16.085 14.0029 17.5752 14.0029ZM9.67285 14.1601C10.9717 14.1601 12.0723 12.998 12.0723 11.5078C12.0723 10.0449 10.9648 8.93747 9.67285 8.93747C8.3877 8.93747 7.2666 10.0654 7.27344 11.5215C7.27344 12.998 8.38086 14.1601 9.67285 14.1601ZM5.90625 20.3603H11.0264C10.3018 19.3144 11.1016 17.25 12.6396 16.0468C11.8877 15.5547 10.9102 15.1992 9.67285 15.1992C6.61719 15.1992 4.6416 17.4482 4.6416 19.3076C4.6416 19.9775 4.9834 20.3603 5.90625 20.3603ZM13.3096 20.3603H21.834C22.9551 20.3603 23.3447 20.0185 23.3447 19.3965C23.3447 17.6328 21.1162 15.2129 17.5752 15.2129C14.0273 15.2129 11.7988 17.6328 11.7988 19.3965C11.7988 20.0185 12.1885 20.3603 13.3096 20.3603Z" fill="#1C1C1E"/>
</svg>
