<svg width="28" height="28" viewBox="0 0 28 28" fill="none" xmlns="http://www.w3.org/2000/svg">
<path d="M6.47656 21.8809H21.5146C23.4219 21.8809 24.415 20.8965 24.415 19.0156V8.31934C24.415 6.43848 23.4219 5.4541 21.5146 5.4541H6.47656C4.57812 5.4541 3.58496 6.42969 3.58496 8.31934V19.0156C3.58496 20.8965 4.57812 21.8809 6.47656 21.8809ZM6.59082 20.1318C5.78223 20.1318 5.33398 19.71 5.33398 18.8574V8.47754C5.33398 7.625 5.78223 7.20312 6.59082 7.20312H21.4004C22.209 7.20312 22.6572 7.625 22.6572 8.47754V18.8574C22.6572 19.71 22.209 20.1318 21.4004 20.1318H19.7041C18.9307 18.0752 16.6895 16.6426 14 16.6426C11.3105 16.6426 9.06055 18.0752 8.2959 20.1318H6.59082ZM14 15.2363C15.6787 15.2451 16.9971 13.8213 16.9971 11.958C16.9971 10.209 15.6699 8.74121 14 8.74121C12.3213 8.74121 10.9941 10.209 11.0029 11.958C11.0117 13.8213 12.3125 15.2188 14 15.2363Z" fill="#1C1C1E"/>
</svg>
