<svg width="28" height="28" viewBox="0 0 28 28" fill="none" xmlns="http://www.w3.org/2000/svg">
<path d="M6.26855 14.0029C7.76562 14.0029 9.02344 12.6768 9.02344 10.9609C9.02344 9.28613 7.75195 8.00781 6.26855 8.00781C4.78516 8.00781 3.50684 9.30664 3.51367 10.9746C3.51367 12.6768 4.77832 14.0029 6.26855 14.0029ZM14.0068 14.0029C15.4971 14.0029 16.7617 12.6768 16.7617 10.9609C16.7617 9.28613 15.4902 8.00781 14.0068 8.00781C12.5166 8.00781 11.2451 9.30664 11.252 10.9746C11.252 12.6768 12.5098 14.0029 14.0068 14.0029ZM21.7314 14.0029C23.2217 14.0029 24.4863 12.6768 24.4863 10.9609C24.4863 9.28613 23.2148 8.00781 21.7314 8.00781C20.248 8.00781 18.9697 9.30664 18.9766 10.9746C18.9766 12.6768 20.2412 14.0029 21.7314 14.0029ZM2.00293 20.3604H10.5273C11.6553 20.3604 12.0449 20.0186 12.0449 19.3965C12.0449 17.6328 9.80957 15.2129 6.26855 15.2129C2.7207 15.2129 0.492188 17.6328 0.492188 19.3965C0.492188 20.0186 0.881836 20.3604 2.00293 20.3604ZM14 15.2129C12.8584 15.2129 11.8535 15.4727 11.0195 15.876C12.2158 16.8125 12.9814 18.0635 12.9814 19.3965C12.9814 19.7725 12.8994 20.0938 12.7354 20.3604H18.2656C19.3867 20.3604 19.7764 20.0186 19.7764 19.3965C19.7764 17.6328 17.5479 15.2129 14 15.2129ZM21.7314 15.2129C20.5898 15.2129 19.585 15.4727 18.751 15.876C19.9473 16.8057 20.7129 18.0635 20.7129 19.3965C20.7129 19.7725 20.6309 20.0938 20.4736 20.3604H25.9902C27.1113 20.3604 27.501 20.0186 27.501 19.3965C27.501 17.6328 25.2725 15.2129 21.7314 15.2129Z" fill="#1C1C1E"/>
</svg>
