<svg width="28" height="28" viewBox="0 0 28 28" fill="none" xmlns="http://www.w3.org/2000/svg">
<path d="M14 22.7422C18.9658 22.7422 23.0791 18.6377 23.0791 13.6631C23.0791 8.69727 18.9658 4.58398 13.9912 4.58398C9.02539 4.58398 4.9209 8.69727 4.9209 13.6631C4.9209 18.6377 9.03418 22.7422 14 22.7422ZM7.92676 12.7578C7.92676 11.2637 8.99902 10.1826 10.4932 10.1826H14.2197C15.7051 10.1826 16.7773 11.2637 16.7773 12.7578C16.7773 14.252 15.7139 15.3154 14.2197 15.3154H13.0684C12.7783 15.0518 12.7344 14.5684 12.8486 14.2871H14.1758C15.0811 14.2871 15.7051 13.6719 15.7051 12.7578C15.7051 11.8438 15.0811 11.2109 14.1758 11.2109H10.5459C9.64062 11.2109 9.00781 11.8438 9.00781 12.7578C9.00781 13.6719 9.63184 14.2871 10.5459 14.2871H10.7129C10.6689 14.6035 10.6953 15.0518 10.7568 15.3154H10.4932C8.99023 15.3154 7.92676 14.252 7.92676 12.7578ZM11.2051 14.6475C11.2051 13.1533 12.2686 12.0898 13.7627 12.0898H14.9141C15.2129 12.3359 15.248 12.8457 15.125 13.1182H13.8066C12.9014 13.1182 12.2773 13.7334 12.2773 14.6475C12.2773 15.5615 12.9014 16.1943 13.8066 16.1943H17.4365C18.3506 16.1943 18.9746 15.5615 18.9746 14.6475C18.9746 13.7334 18.3506 13.1182 17.4365 13.1182H17.2695C17.3223 12.6611 17.2695 12.3447 17.2256 12.0898H17.4893C18.9922 12.0898 20.0557 13.1533 20.0557 14.6475C20.0557 16.1504 18.9834 17.2227 17.4893 17.2227H13.7627C12.2773 17.2227 11.2051 16.1504 11.2051 14.6475Z" fill="#1C1C1E"/>
</svg>
