<svg width="28" height="28" viewBox="0 0 28 28" fill="none" xmlns="http://www.w3.org/2000/svg">
<path d="M14 13.5752C15.9248 13.5752 17.5508 11.8701 17.5508 9.66406C17.5508 7.51074 15.916 5.8584 14 5.8584C12.0928 5.8584 10.4492 7.53711 10.458 9.68164C10.458 11.8701 12.0752 13.5752 14 13.5752ZM4.9209 11.9844C5.43066 12.3711 6.0459 12.1426 6.0459 11.501V10.4111H8.28711C8.70019 10.4111 9.02539 10.0859 9.02539 9.66406C9.02539 9.25977 8.70019 8.92578 8.28711 8.92578H6.0459V7.8623C6.0459 7.19434 5.41309 6.99219 4.9209 7.37012L2.49512 9.19824C2.16113 9.44434 2.15234 9.91016 2.49512 10.165L4.9209 11.9844ZM19.7129 10.4111H21.9541V11.501C21.9541 12.1426 22.5693 12.3711 23.0879 11.9844L25.5137 10.165C25.8477 9.91016 25.8389 9.44434 25.5137 9.19824L23.0879 7.37012C22.5869 6.99219 21.9541 7.19434 21.9541 7.8623V8.92578H19.7129C19.2998 8.92578 18.9746 9.25977 18.9746 9.66406C18.9746 10.0859 19.2998 10.4111 19.7129 10.4111ZM8.52441 21.749H19.4756C20.9258 21.749 21.4268 21.3096 21.4268 20.501C21.4268 18.2422 18.5527 15.1309 14 15.1309C9.43848 15.1309 6.57324 18.2422 6.57324 20.501C6.57324 21.3096 7.07422 21.749 8.52441 21.749Z" fill="#1C1C1E"/>
</svg>
