<svg width="28" height="28" viewBox="0 0 28 28" fill="none" xmlns="http://www.w3.org/2000/svg">
<path d="M8.67383 21.8809H19.3174C21.2246 21.8809 22.209 20.8965 22.209 19.0156V8.31934C22.209 6.43848 21.2246 5.4541 19.3174 5.4541H8.67383C6.77539 5.4541 5.78223 6.42969 5.78223 8.31934V19.0156C5.78223 20.8965 6.77539 21.8809 8.67383 21.8809ZM7.53125 18.8574V8.47754C7.53125 7.625 7.97949 7.20312 8.78809 7.20312H19.2031C20.0029 7.20312 20.46 7.625 20.46 8.47754V18.8574C20.46 19.5166 20.1787 19.9209 19.6777 20.0703C18.8867 18.04 16.6631 16.6426 14 16.6426C11.3369 16.6426 9.10449 18.04 8.31348 20.0703C7.80371 19.9297 7.53125 19.5254 7.53125 18.8574ZM14 15.2363C15.6787 15.2451 16.9883 13.8213 16.9883 11.958C16.9883 10.209 15.6699 8.74121 14 8.74121C12.3213 8.74121 10.9941 10.209 11.0029 11.958C11.0117 13.8213 12.3125 15.2188 14 15.2363Z" fill="#1C1C1E"/>
</svg>
