<svg width="28" height="28" viewBox="0 0 28 28" fill="none" xmlns="http://www.w3.org/2000/svg">
<path d="M13.9912 22.7422C18.9746 22.7422 23.0879 18.6289 23.0879 13.6543C23.0879 8.67969 18.9658 4.56641 13.9824 4.56641C9.00781 4.56641 4.90332 8.67969 4.90332 13.6543C4.90332 18.6289 9.0166 22.7422 13.9912 22.7422ZM13.9912 20.9316C9.95703 20.9316 6.73145 17.6885 6.73145 13.6543C6.73145 9.62012 9.95703 6.38574 13.9824 6.38574C18.0166 6.38574 21.2598 9.62012 21.2686 13.6543C21.2773 17.6885 18.0254 20.9316 13.9912 20.9316ZM13.9912 13.3555C15.2217 13.3643 16.2148 12.3096 16.2148 10.9209C16.2148 9.62012 15.2217 8.53906 13.9912 8.53906C12.752 8.53906 11.7588 9.62012 11.7588 10.9209C11.7588 12.3096 12.752 13.3467 13.9912 13.3555ZM10.1064 18.0488H17.8672C18.2451 18.0488 18.4385 17.7852 18.4385 17.4336C18.4385 16.4844 17.0322 14.041 13.9912 14.041C10.9414 14.041 9.53516 16.4844 9.53516 17.4336C9.53516 17.7852 9.72852 18.0488 10.1064 18.0488Z" fill="#1C1C1E"/>
</svg>
