<svg width="28" height="28" viewBox="0 0 28 28" fill="none" xmlns="http://www.w3.org/2000/svg">
<path d="M9.62305 4.47852H18.3154C18.2539 3.69629 17.7881 3.27441 16.9355 3.27441H10.9941C10.1416 3.27441 9.67578 3.69629 9.62305 4.47852ZM8.11133 7.03613H19.8184C19.6953 6.20117 19.2734 5.71777 18.333 5.71777H9.59668C8.65625 5.71777 8.23438 6.20117 8.11133 7.03613ZM9.05176 24.0869H19.1592C20.8379 24.0869 21.8223 23.1025 21.8223 21.2305V11.2812C21.8223 9.40918 20.8379 8.43359 18.9395 8.43359H9.05176C7.15332 8.43359 6.16895 9.40039 6.16895 11.2812V21.2305C6.16895 23.1113 7.15332 24.0869 9.05176 24.0869ZM16.584 17.46C15.5381 17.46 14.6592 16.5371 14.6592 15.3506C14.6504 14.1816 15.5557 13.2764 16.5928 13.2764C17.6299 13.2764 18.5088 14.1641 18.5088 15.3418C18.5088 16.5371 17.6299 17.46 16.584 17.46ZM11.0557 17.5742C10.1504 17.5742 9.37695 16.7744 9.37695 15.7285C9.36816 14.709 10.1504 13.9268 11.0557 13.9268C11.9609 13.9268 12.7344 14.7002 12.7344 15.7197C12.7344 16.7744 11.9697 17.5742 11.0557 17.5742ZM9.07812 22.417C8.22559 22.417 7.80371 22.0039 7.80371 21.125V20.1055C8.33984 19.1914 9.51758 18.3828 11.0557 18.3828C11.7939 18.3828 12.3828 18.5586 12.9189 18.8838C12.0664 19.5254 11.4951 20.7646 11.4951 21.6875C11.4951 21.9775 11.5391 22.2324 11.6621 22.417H9.07812ZM12.998 22.417C12.8398 22.3906 12.6113 22.1445 12.6113 21.7227C12.6113 20.167 14.1494 18.4004 16.584 18.4004C18.1836 18.4004 19.5547 19.2002 20.1963 20.29V21.125C20.1963 22.0039 19.6865 22.417 18.9307 22.417H12.998Z" fill="#1C1C1E"/>
</svg>
