<svg width="28" height="28" viewBox="0 0 28 28" fill="none" xmlns="http://www.w3.org/2000/svg">
<g clip-path="url(#clip0_308_2039)">
<path d="M14.0088 13.5752C15.9336 13.5752 17.5596 11.8701 17.5596 9.66406C17.5596 7.51074 15.9248 5.8584 14.0088 5.8584C12.0928 5.8584 10.458 7.53711 10.4668 9.68164C10.4668 11.8701 12.084 13.5752 14.0088 13.5752ZM3.83105 13.7773C5.50977 13.7773 6.9248 12.2832 6.9248 10.3672C6.9248 8.48633 5.50098 7.05371 3.83105 7.05371C2.16992 7.05371 0.737305 8.5127 0.746094 10.3848C0.746094 12.2832 2.16113 13.7773 3.83105 13.7773ZM24.1602 13.7773C25.8301 13.7773 27.2451 12.2832 27.2451 10.3848C27.2539 8.5127 25.8213 7.05371 24.1602 7.05371C22.499 7.05371 21.0664 8.48633 21.0664 10.3672C21.0664 12.2832 22.4902 13.7773 24.1602 13.7773ZM-1.01172 21.7578H5.58008C4.63965 20.4131 5.65918 17.7588 7.64551 16.1943C6.67871 15.5703 5.41309 15.1133 3.83105 15.1133C-0.0976562 15.1133 -2.6377 18.0049 -2.6377 20.3867C-2.6377 21.2568 -2.19824 21.7578 -1.01172 21.7578ZM29.0029 21.7578C30.1895 21.7578 30.6289 21.2568 30.6289 20.3867C30.6289 18.0049 28.0889 15.1133 24.1602 15.1133C22.5781 15.1133 21.3213 15.5703 20.3545 16.1943C22.3408 17.7588 23.3604 20.4131 22.4199 21.7578H29.0029ZM8.52441 21.749H19.4844C20.9346 21.749 21.4355 21.3096 21.4355 20.501C21.4355 18.2422 18.5615 15.1309 14.0088 15.1309C9.44727 15.1309 6.58203 18.2422 6.58203 20.501C6.58203 21.3096 7.08301 21.749 8.52441 21.749Z" fill="#1C1C1E"/>
</g>
<defs>
<clipPath id="clip0_308_2039">
<rect width="28" height="28" fill="white"/>
</clipPath>
</defs>
</svg>
