<svg width="28" height="28" viewBox="0 0 28 28" fill="none" xmlns="http://www.w3.org/2000/svg">
<path d="M6.46777 21.8633H21.5234C23.4219 21.8633 24.4062 20.8877 24.4062 19.0156V8.31055C24.4062 6.43848 23.4219 5.46289 21.5234 5.46289H6.46777C4.56934 5.46289 3.58496 6.42969 3.58496 8.31055V19.0156C3.58496 20.8877 4.56934 21.8633 6.46777 21.8633ZM10.3877 13.6631C9.33301 13.6631 8.47168 12.7666 8.47168 11.5713C8.47168 10.4375 9.33301 9.50586 10.3877 9.50586C11.46 9.50586 12.3125 10.4375 12.3125 11.5713C12.3125 12.7666 11.46 13.6719 10.3877 13.6631ZM16.1533 10.7979C15.8193 10.7979 15.5732 10.543 15.5732 10.2178C15.5732 9.91016 15.8193 9.66406 16.1533 9.66406H20.7676C21.0928 9.66406 21.3389 9.91016 21.3389 10.2178C21.3389 10.543 21.0928 10.7979 20.7676 10.7979H16.1533ZM16.1533 14.2344C15.8193 14.2344 15.5732 13.9795 15.5732 13.6631C15.5732 13.3467 15.8193 13.1006 16.1533 13.1006H20.7676C21.0928 13.1006 21.3389 13.3467 21.3389 13.6631C21.3389 13.9795 21.0928 14.2344 20.7676 14.2344H16.1533ZM7.03906 17.7236C6.71387 17.7236 6.54688 17.4951 6.54688 17.2051C6.54688 16.3789 7.75977 14.2607 10.3877 14.2607C13.0244 14.2607 14.2461 16.3789 14.2461 17.2051C14.2461 17.4951 14.0791 17.7236 13.7539 17.7236H7.03906ZM16.1533 17.6709C15.8193 17.6709 15.5732 17.4248 15.5732 17.1172C15.5732 16.792 15.8193 16.5371 16.1533 16.5371H20.7676C21.0928 16.5371 21.3389 16.792 21.3389 17.1172C21.3389 17.4248 21.0928 17.6709 20.7676 17.6709H16.1533Z" fill="#1C1C1E"/>
</svg>
