<svg width="28" height="28" viewBox="0 0 28 28" fill="none" xmlns="http://www.w3.org/2000/svg">
<path d="M8.67383 21.8809H19.3174C21.2246 21.8809 22.209 20.8965 22.209 19.0156V8.31934C22.209 6.43848 21.2246 5.4541 19.3174 5.4541H8.67383C6.77539 5.4541 5.78223 6.42969 5.78223 8.31934V19.0156C5.78223 20.8965 6.77539 21.8809 8.67383 21.8809ZM8.78809 20.1318C7.97949 20.1318 7.53125 19.71 7.53125 18.8574V8.47754C7.53125 7.625 7.97949 7.20312 8.78809 7.20312H19.2031C20.0029 7.20312 20.46 7.625 20.46 8.47754V18.8574C20.46 19.71 20.0029 20.1318 19.2031 20.1318H8.78809ZM10.8184 12.3887C10.8184 12.626 10.9854 12.8105 11.2227 12.8105H11.7148V17.2666C11.7148 17.6973 12.0137 17.9521 12.4004 17.9521C12.7959 17.9521 13.0771 17.6973 13.0771 17.2666V15.1572H14.4922C15.9951 15.1572 17.041 14.1992 17.1992 12.8105H17.5947C17.8408 12.8105 18.0078 12.626 18.0078 12.3887C18.0078 12.1426 17.8408 11.9756 17.5947 11.9756H17.1904C16.9971 10.6572 15.9775 9.74316 14.5186 9.74316H12.4004C11.9697 9.74316 11.7148 10.0068 11.7148 10.4463V11.9756H11.2227C10.9854 11.9756 10.8184 12.1426 10.8184 12.3887ZM13.0771 11.9756V10.9033H14.2549C15.0811 10.9033 15.6436 11.2812 15.8018 11.9756H13.0771ZM13.0771 13.9971V12.8105H15.8193C15.6875 13.5752 15.125 13.9971 14.2549 13.9971H13.0771Z" fill="#1C1C1E"/>
</svg>
