<svg width="28" height="28" viewBox="0 0 28 28" fill="none" xmlns="http://www.w3.org/2000/svg">
<path d="M13.9912 22.7422C18.9746 22.7422 23.0879 18.6289 23.0879 13.6543C23.0879 8.67969 18.9658 4.56641 13.9824 4.56641C9.00781 4.56641 4.90332 8.67969 4.90332 13.6543C4.90332 18.6289 9.0166 22.7422 13.9912 22.7422ZM10.6689 12.3447C10.6689 12.0898 10.8447 11.9229 11.0908 11.9229H11.5918V10.3232C11.5918 9.86621 11.873 9.58496 12.3213 9.58496H14.5273C16.0566 9.58496 17.1025 10.5342 17.3047 11.9229H17.7354C17.9902 11.9229 18.1572 12.0898 18.1572 12.3447C18.1572 12.5908 17.9902 12.7842 17.7354 12.7842H17.3135C17.1553 14.2344 16.0654 15.2363 14.4922 15.2363H13.0244V17.4072C13.0244 17.8555 12.7344 18.1279 12.3213 18.1279C11.9082 18.1279 11.5918 17.8555 11.5918 17.4072V12.7842H11.0908C10.8447 12.7842 10.6689 12.5908 10.6689 12.3447ZM13.0332 11.9229H15.8457C15.6875 11.1934 15.1074 10.8066 14.2549 10.8066H13.0332V11.9229ZM13.0332 14.0146H14.2549C15.1426 14.0146 15.7314 13.584 15.8633 12.7842H13.0332V14.0146Z" fill="#1C1C1E"/>
</svg>
