<svg width="28" height="28" viewBox="0 0 28 28" fill="none" xmlns="http://www.w3.org/2000/svg">
<path d="M13.9912 22.7422C18.9746 22.7422 23.0879 18.6289 23.0879 13.6543C23.0879 8.67969 18.9658 4.56641 13.9824 4.56641C9.00781 4.56641 4.90332 8.67969 4.90332 13.6543C4.90332 18.6289 9.0166 22.7422 13.9912 22.7422ZM13.9912 20.9316C9.95703 20.9316 6.73145 17.6885 6.73145 13.6543C6.73145 9.62012 9.95703 6.38574 13.9824 6.38574C18.0166 6.38574 21.2598 9.62012 21.2686 13.6543C21.2773 17.6885 18.0254 20.9316 13.9912 20.9316ZM10.8008 12.3975C10.8008 12.6348 10.9678 12.8105 11.2139 12.8105H11.6973V17.2754C11.6973 17.6973 11.9961 17.9609 12.3828 17.9609C12.7783 17.9609 13.0596 17.6973 13.0596 17.2754V15.166H14.4746C15.9775 15.166 17.0234 14.208 17.1904 12.8105H17.5859C17.832 12.8105 17.9902 12.6348 17.9902 12.3975C17.9902 12.1514 17.832 11.9844 17.5859 11.9844H17.1729C16.9795 10.6572 15.9688 9.74316 14.501 9.74316H12.3828C11.9609 9.74316 11.6973 10.0156 11.6973 10.4551V11.9844H11.2139C10.9678 11.9844 10.8008 12.1514 10.8008 12.3975ZM13.0684 11.9844V10.9121H14.2461C15.0635 10.9121 15.626 11.2812 15.7842 11.9844H13.0684ZM13.0684 14.0059V12.8105H15.8105C15.6699 13.584 15.1074 14.0059 14.2373 14.0059H13.0684Z" fill="#1C1C1E"/>
</svg>
