<svg width="28" height="28" viewBox="0 0 28 28" fill="none" xmlns="http://www.w3.org/2000/svg">
<path d="M13.9912 22.7422C18.9746 22.7422 23.0879 18.6289 23.0879 13.6543C23.0879 8.67969 18.9658 4.56641 13.9824 4.56641C9.00781 4.56641 4.90332 8.67969 4.90332 13.6543C4.90332 18.6289 9.0166 22.7422 13.9912 22.7422ZM13.9912 20.9316C9.95703 20.9316 6.73145 17.6885 6.73145 13.6543C6.73145 9.62012 9.95703 6.38574 13.9824 6.38574C18.0166 6.38574 21.2598 9.62012 21.2686 13.6543C21.2773 17.6885 18.0254 20.9316 13.9912 20.9316ZM10.748 13.2148C10.748 13.4521 10.915 13.6279 11.1611 13.6279H11.6533V17.2754C11.6533 17.7061 11.9521 17.9697 12.3477 17.9697C12.7344 17.9697 13.0156 17.7061 13.0156 17.2754V15.3506H14.4307C15.6699 15.3506 16.6016 14.6738 16.9795 13.6279H17.5332C17.7793 13.6279 17.9375 13.4521 17.9375 13.2148C17.9375 12.9688 17.7793 12.8018 17.5332 12.8018H17.1465C17.1641 12.7227 17.1641 12.6348 17.1641 12.5469C17.1641 12.459 17.1641 12.3799 17.1553 12.2832H17.5332C17.7793 12.2832 17.9375 12.0986 17.9375 11.8701C17.9375 11.6152 17.7793 11.4482 17.5332 11.4482H16.9707C16.6016 10.4287 15.6875 9.75195 14.4658 9.75195H12.3477C11.917 9.75195 11.6533 10.0156 11.6533 10.4551V11.4482H11.1611C10.915 11.4482 10.748 11.6152 10.748 11.8701C10.748 12.0986 10.915 12.2832 11.1611 12.2832H11.6533V12.8018H11.1611C10.915 12.8018 10.748 12.9688 10.748 13.2148ZM13.0244 11.4482V10.9121H14.2109C14.7734 10.9121 15.2041 11.1055 15.4766 11.4482H13.0244ZM13.0244 12.8018V12.2832H15.8018C15.8105 12.3623 15.8193 12.4414 15.8193 12.5469C15.8193 12.6348 15.8105 12.7227 15.8018 12.8018H13.0244ZM13.0244 14.1904V13.6279H15.4854C15.2217 13.9883 14.7734 14.1904 14.2109 14.1904H13.0244Z" fill="#1C1C1E"/>
</svg>
