<svg width="28" height="28" viewBox="0 0 28 28" fill="none" xmlns="http://www.w3.org/2000/svg">
<path d="M13.9912 9.83105C10.0625 9.83984 6.41505 10.6484 4.59572 12.4678C3.77833 13.2852 3.35646 14.2783 3.40919 15.4912C3.44435 16.2031 3.67287 16.8271 4.09474 17.2578C4.42872 17.583 4.88576 17.7764 5.42189 17.6885L8.69142 17.1348C9.20119 17.0557 9.55275 16.8975 9.78126 16.6689C10.0713 16.3789 10.1592 15.957 10.1592 15.3857L10.168 14.4805C10.168 14.3398 10.2295 14.2344 10.3086 14.1465C10.4053 14.041 10.5371 13.9883 10.6426 13.9707C11.249 13.8301 12.4883 13.6895 14 13.6895C15.5029 13.6895 16.7422 13.7949 17.3486 13.9707C17.4453 13.9971 17.5772 14.0498 17.6738 14.1465C17.7529 14.2344 17.8057 14.3398 17.8145 14.4717L17.8233 15.3857C17.832 15.957 17.9199 16.3789 18.21 16.6689C18.4385 16.8975 18.7901 17.0557 19.2998 17.1348L22.5342 17.6797C23.0879 17.7764 23.5537 17.5742 23.9053 17.2227C24.3272 16.8184 24.5645 16.1943 24.582 15.4736C24.6172 14.2695 24.1602 13.2764 23.3516 12.4678C21.5322 10.6484 17.9287 9.83105 13.9912 9.83105Z" fill="#1C1C1E"/>
</svg>
