<svg width="28" height="28" viewBox="0 0 28 28" fill="none" xmlns="http://www.w3.org/2000/svg">
<path d="M19.0801 3.7666C18.7725 4.06543 18.7812 4.56641 19.0801 4.86523L22.0332 7.82715C22.332 8.12598 22.833 8.12598 23.1318 7.82715C23.4395 7.52832 23.4395 7.03613 23.1318 6.72852L20.1699 3.7666C19.8711 3.46777 19.3701 3.46777 19.0801 3.7666ZM9.20996 17.6885C11.8027 20.29 14.958 22.2939 17.5332 22.2939C18.6846 22.2939 19.6953 21.8896 20.5039 20.9932C20.9785 20.4658 21.2686 19.8594 21.2686 19.2529C21.2686 18.7871 21.084 18.3301 20.6357 18.0137L17.9287 16.0977C17.5068 15.7988 17.1553 15.6582 16.8389 15.6582C16.4258 15.6582 16.0566 15.8867 15.6523 16.291L15.0107 16.9238C14.9141 17.0205 14.791 17.0645 14.6768 17.0645C14.5361 17.0645 14.4043 17.0117 14.3076 16.959C13.7627 16.6602 12.8135 15.8516 11.9346 14.9727C11.0557 14.0938 10.2383 13.1533 9.94824 12.5908C9.89551 12.4941 9.84277 12.3711 9.84277 12.2305C9.84277 12.125 9.87793 12.002 9.9834 11.8965L10.6162 11.2549C11.0117 10.8418 11.249 10.4814 11.249 10.0684C11.249 9.74316 11.1084 9.3916 10.8096 8.96973L8.90234 6.29785C8.57715 5.84082 8.11133 5.64746 7.61914 5.64746C7.02148 5.64746 6.42383 5.91113 5.89648 6.41211C5.02637 7.23828 4.63965 8.2666 4.63965 9.40039C4.63965 11.9756 6.6084 15.0957 9.20996 17.6885ZM18.1924 8.71484C18.6758 9.18066 19.4404 9.18066 19.9238 8.70605C20.3896 8.23145 20.3896 7.45801 19.9238 6.9834C19.4404 6.50879 18.667 6.50879 18.1924 6.97461C17.709 7.45801 17.709 8.22266 18.1924 8.71484ZM14.9756 7.8623C14.6768 8.16113 14.6768 8.65332 14.9756 8.95215L17.9375 11.9141C18.2451 12.2217 18.7373 12.2217 19.0361 11.9141C19.335 11.6152 19.335 11.123 19.0361 10.8242L16.0742 7.8623C15.7754 7.56348 15.2744 7.56348 14.9756 7.8623ZM14.0967 12.8018C14.5801 13.2764 15.3447 13.2764 15.8281 12.8018C16.3027 12.3184 16.3027 11.5449 15.8281 11.0791C15.3447 10.5957 14.5801 10.5957 14.0967 11.0703C13.6221 11.5449 13.6221 12.3184 14.0967 12.8018Z" fill="#1C1C1E"/>
</svg>
