<svg width="28" height="28" viewBox="0 0 28 28" fill="none" xmlns="http://www.w3.org/2000/svg">
<path d="M21.6201 5.49805C21.4092 5.49805 21.2334 5.57715 21.0752 5.72656L17.542 9.26855L16.3379 10.5869L16.4785 8.31055V7.04492C16.4785 6.64062 16.1709 6.33301 15.7578 6.31543C15.3447 6.29785 15.002 6.62305 15.002 7.03613V11.9844C15.002 12.5645 15.3096 12.8721 15.8896 12.8721H20.8643C21.2861 12.8721 21.6025 12.5293 21.5938 12.1074C21.5762 11.7031 21.2686 11.3955 20.8643 11.3955H19.5635L17.2607 11.5449L18.6055 10.3408L22.1387 6.79004C22.3057 6.62305 22.3848 6.43848 22.3848 6.21875C22.3848 5.81445 22.0596 5.49805 21.6201 5.49805ZM10.0801 17.6885C12.6729 20.29 15.8281 22.2939 18.4033 22.2939C19.5547 22.2939 20.5654 21.8896 21.374 20.9932C21.8486 20.4658 22.1387 19.8594 22.1387 19.2529C22.1387 18.7871 21.9541 18.3301 21.5059 18.0137L18.7988 16.0977C18.377 15.7988 18.0254 15.6582 17.709 15.6582C17.2959 15.6582 16.9268 15.8867 16.5225 16.291L15.8809 16.9238C15.7842 17.0205 15.6611 17.0645 15.5469 17.0645C15.4062 17.0645 15.2744 17.0117 15.1777 16.959C14.6328 16.6602 13.6836 15.8516 12.8047 14.9727C11.9258 14.0938 11.1084 13.1533 10.8184 12.5908C10.7656 12.4941 10.7129 12.3711 10.7129 12.2305C10.7129 12.125 10.748 12.002 10.8535 11.8965L11.4863 11.2549C11.8818 10.8418 12.1191 10.4814 12.1191 10.0684C12.1191 9.74316 11.9785 9.3916 11.6797 8.96973L9.77246 6.29785C9.44727 5.84082 8.98145 5.64746 8.48926 5.64746C7.8916 5.64746 7.29395 5.91113 6.7666 6.41211C5.89648 7.23828 5.50977 8.2666 5.50977 9.40039C5.50977 11.9756 7.47852 15.0957 10.0801 17.6885Z" fill="#1C1C1E"/>
</svg>
