<svg width="28" height="28" viewBox="0 0 28 28" fill="none" xmlns="http://www.w3.org/2000/svg">
<path d="M19.1768 3.7666C18.8779 4.06543 18.8779 4.56641 19.1768 4.86523L22.1299 7.82715C22.4375 8.12598 22.9385 8.12598 23.2373 7.82715C23.5361 7.52832 23.5361 7.03613 23.2373 6.72852L20.2754 3.7666C19.9766 3.46777 19.4756 3.46777 19.1768 3.7666ZM17.5508 22.4258C19.0889 22.4258 20.1348 21.9863 21.084 20.958C21.1455 20.8877 21.207 20.8086 21.2686 20.7383C21.7871 20.1582 22.042 19.5518 22.042 18.9893C22.042 18.3301 21.6904 17.7324 20.9082 17.1963L18.2803 15.3682C17.4541 14.7969 16.5049 14.7529 15.7666 15.4912L15.1162 16.1416C14.8789 16.3701 14.668 16.3877 14.4043 16.2031C13.9297 15.8867 13.0332 15.0957 12.418 14.4805C11.7939 13.8564 11.1611 13.1533 10.8184 12.6172C10.6338 12.3447 10.6426 12.1338 10.8799 11.9053L11.5303 11.2549C12.2686 10.5166 12.2246 9.55859 11.6445 8.73242L9.78125 6.06934C9.2627 5.31348 8.63867 4.96191 7.97949 4.95312C7.4082 4.94434 6.81934 5.19922 6.23926 5.70898C6.16895 5.77051 6.09863 5.83203 6.02832 5.89355C4.98242 6.85156 4.53418 7.87988 4.53418 9.47949C4.53418 12.0723 6.03711 15.1309 8.96387 18.04C11.873 20.9316 14.8965 22.4258 17.5508 22.4258ZM17.5508 20.958C15.3096 20.9932 12.5234 19.4023 10.0713 16.9766C7.61914 14.5508 5.98438 11.6592 6.01953 9.41797C6.02832 8.47754 6.3623 7.65137 7.03027 7.07129C7.10059 7.01855 7.15332 6.97461 7.21484 6.92188C7.46094 6.71094 7.7334 6.59668 7.9707 6.59668C8.23438 6.59668 8.4541 6.70215 8.62988 6.96582L10.2822 9.43555C10.4932 9.73438 10.502 10.0771 10.1943 10.376L9.49121 11.0703C8.82324 11.7207 8.87598 12.4854 9.30664 13.083C9.78125 13.7422 10.6602 14.7529 11.416 15.4912C12.2158 16.2822 13.3057 17.2578 13.9385 17.7148C14.5361 18.1367 15.292 18.1982 15.9424 17.5303L16.6367 16.8271C16.9355 16.5195 17.2783 16.5283 17.5859 16.7305L20.0117 18.3477C20.2842 18.5234 20.3809 18.7432 20.3809 18.998C20.3809 19.2441 20.2666 19.5078 20.0557 19.7627C20.0029 19.8242 19.959 19.877 19.9062 19.9473C19.3174 20.6152 18.4912 20.9492 17.5508 20.958ZM18.2891 8.71484C18.7725 9.18066 19.5371 9.18066 20.0205 8.70605C20.4863 8.23145 20.4863 7.45801 20.0205 6.9834C19.5371 6.50879 18.7725 6.50879 18.2891 6.97461C17.8145 7.45801 17.8145 8.22266 18.2891 8.71484ZM15.0811 7.8623C14.7822 8.16113 14.7822 8.65332 15.0811 8.95215L18.043 11.9141C18.3418 12.2217 18.834 12.2217 19.1328 11.9141C19.4404 11.6152 19.4404 11.123 19.1328 10.8242L16.1709 7.8623C15.8721 7.56348 15.3799 7.56348 15.0811 7.8623ZM14.1934 12.8018C14.6768 13.2764 15.4502 13.2764 15.9248 12.8018C16.4082 12.3184 16.4082 11.5449 15.9248 11.0791C15.4502 10.5957 14.6768 10.5957 14.1934 11.0703C13.7188 11.5449 13.7188 12.3184 14.1934 12.8018Z" fill="#1C1C1E"/>
</svg>
