<svg width="28" height="28" viewBox="0 0 28 28" fill="none" xmlns="http://www.w3.org/2000/svg">
<path d="M3.12793 16.2734C3.12793 17.3633 3.76953 18.1982 4.89453 18.207C5.09668 18.207 5.39551 18.1895 5.7998 18.1191L9.11328 17.6357C10.4492 17.4512 10.8008 16.9062 10.8008 15.7812C10.8008 15.4473 10.8008 15.1133 10.8008 14.7793C10.8096 14.5068 10.9326 14.3838 11.1348 14.3311C12.4268 14.0498 15.5732 14.0498 16.8652 14.3311C17.0674 14.3838 17.1904 14.5068 17.1992 14.7793C17.1992 15.1133 17.1992 15.4473 17.1992 15.7812C17.208 16.9062 17.5508 17.4512 18.8867 17.6357L22.2002 18.1191C22.6045 18.1895 22.9033 18.207 23.1055 18.207C24.2305 18.1982 24.8721 17.3633 24.8721 16.2734V15.5176C24.8721 11.334 20.2402 9.25098 14 9.25098C7.76855 9.25098 3.12793 11.334 3.12793 15.5176V16.2734ZM4.69238 16.0537V15.5879C4.69238 12.0107 9.30664 10.7012 14 10.7012C18.6934 10.7012 23.3076 12.0107 23.3076 15.5879V16.0537C23.3076 16.4492 23.1143 16.7832 22.71 16.7832C22.5957 16.7832 22.4727 16.7568 22.2705 16.7217L19.2119 16.1504C18.957 16.0977 18.7637 15.9658 18.7637 15.5879V14.4629C18.7637 13.5137 18.4297 13.1533 17.9375 12.9951C16.4785 12.5908 11.5215 12.5908 10.0713 12.9951C9.57031 13.1533 9.23633 13.5137 9.23633 14.4629V15.5879C9.23633 15.9658 9.04297 16.0977 8.78809 16.1504L5.72949 16.7217C5.52734 16.7568 5.4043 16.7832 5.29004 16.7832C4.88574 16.7832 4.69238 16.4492 4.69238 16.0537Z" fill="#1C1C1E"/>
</svg>
