<svg width="28" height="28" viewBox="0 0 28 28" fill="none" xmlns="http://www.w3.org/2000/svg">
<path d="M13.9912 22.7598C18.9746 22.7598 23.0879 18.6465 23.0879 13.6631C23.0879 8.68848 18.9658 4.5752 13.9824 4.5752C9.00781 4.5752 4.90332 8.68848 4.90332 13.6631C4.90332 18.6465 9.0166 22.7598 13.9912 22.7598ZM7.83887 14.5244V14.4365C7.83887 12.0635 10.915 10.8682 13.9912 10.8682C17.0586 10.8682 20.1348 12.0635 20.1348 14.4365V14.5244C20.1348 15.2275 19.7744 15.7549 19.0713 15.7549C18.5703 15.7549 17.9727 15.7373 16.9531 15.4209C16.3555 15.2363 16.0918 14.9463 16.083 14.2871L16.0742 13.7773C16.0742 13.6807 16.0303 13.6104 15.8984 13.5664C15.626 13.4697 14.9316 13.3467 13.9912 13.3467C13.042 13.3467 12.3477 13.4697 12.0752 13.5664C11.9434 13.6104 11.8994 13.6807 11.8994 13.7773L11.8906 14.2871C11.8818 14.9463 11.6182 15.2363 11.0205 15.4209C10.001 15.7373 9.40332 15.7549 8.90234 15.7549C8.19922 15.7549 7.83887 15.2275 7.83887 14.5244Z" fill="#1C1C1E"/>
</svg>
