<svg width="28" height="28" viewBox="0 0 28 28" fill="none" xmlns="http://www.w3.org/2000/svg">
<path d="M13.9912 22.7598C18.9746 22.7598 23.0879 18.6465 23.0879 13.6631C23.0879 8.68848 18.9658 4.5752 13.9824 4.5752C9.00781 4.5752 4.90332 8.68848 4.90332 13.6631C4.90332 18.6465 9.0166 22.7598 13.9912 22.7598ZM11.8027 15.79C9.67578 13.6719 8.33105 10.9912 9.92188 9.3916C9.95703 9.35645 9.99219 9.32129 10.0449 9.28613C10.6689 8.8291 11.2227 8.74121 11.5918 9.27734L12.6992 10.8506C13.0859 11.3955 12.998 11.7031 12.585 12.1426L12.2334 12.5117C12.1191 12.6348 12.1631 12.8018 12.2158 12.8984C12.4004 13.2061 12.8398 13.751 13.3408 14.252C13.8418 14.7529 14.3691 15.1748 14.6855 15.3682C14.8086 15.4385 14.9932 15.4561 15.0986 15.3594L15.4502 15.0078C15.8545 14.6035 16.1973 14.5068 16.7422 14.8848C17.4365 15.377 17.8936 15.6934 18.333 16.0098C18.8691 16.4053 18.7461 17.0205 18.3506 17.4863C18.3066 17.5479 18.2539 17.6094 18.1924 17.6709C16.6016 19.2529 13.9209 17.917 11.8027 15.79Z" fill="#1C1C1E"/>
</svg>
