<svg width="28" height="28" viewBox="0 0 28 28" fill="none" xmlns="http://www.w3.org/2000/svg">
<path d="M14 22.7334C18.9658 22.7334 23.0791 18.6289 23.0791 13.6543C23.0791 8.68848 18.9658 4.5752 13.9912 4.5752C9.02539 4.5752 4.9209 8.68848 4.9209 13.6543C4.9209 18.6289 9.03418 22.7334 14 22.7334ZM10.2998 17.6973C9.37695 17.6973 8.88477 17.2139 8.88477 16.2998V11.0527C8.88477 10.1299 9.37695 9.65527 10.2998 9.65527H17.6914C18.6143 9.65527 19.0977 10.1299 19.0977 11.0527V16.2998C19.0977 17.2139 18.6143 17.6973 17.6914 17.6973H10.2998ZM12.2334 13.7598C12.8311 13.7598 13.3057 13.2764 13.3057 12.6875C13.3057 12.0986 12.8311 11.6152 12.2334 11.6152C11.6445 11.6152 11.1611 12.0986 11.1611 12.6875C11.1611 13.2764 11.6445 13.7598 12.2334 13.7598ZM10.3701 16.7568H17.6123C17.9463 16.7568 18.1572 16.5459 18.1572 16.2031V15.377L16.373 13.751C16.1797 13.5664 15.9248 13.4697 15.6963 13.4785C15.4502 13.4697 15.2129 13.5664 15.002 13.751L12.9717 15.5615L12.1455 14.8232C11.9521 14.6562 11.7412 14.5684 11.5303 14.5684C11.3369 14.5684 11.1348 14.6562 10.9502 14.8145L9.8252 15.7725V16.2031C9.8252 16.5459 10.0273 16.7568 10.3701 16.7568Z" fill="#1C1C1E"/>
</svg>
