<svg width="28" height="28" viewBox="0 0 28 28" fill="none" xmlns="http://www.w3.org/2000/svg">
<path d="M6.47656 21.8809H21.5146C23.4219 21.8809 24.415 20.8965 24.415 19.0156V8.31934C24.415 6.43848 23.4219 5.4541 21.5146 5.4541H6.47656C4.57812 5.4541 3.58496 6.42969 3.58496 8.31934V19.0156C3.58496 20.8965 4.57812 21.8809 6.47656 21.8809ZM6.59082 20.1318C5.78223 20.1318 5.33398 19.71 5.33398 18.8574V8.47754C5.33398 7.625 5.78223 7.20312 6.59082 7.20312H7.69824V14.1553C7.69824 14.7793 8.08496 15.0166 8.49805 15.0166H8.7002V20.1318H6.59082ZM9.75488 15.0166C10.1592 15.0166 10.5547 14.7793 10.5547 14.1553V7.20312H12.5674V14.1553C12.5674 14.7793 12.9805 15.0166 13.376 15.0166H13.5781V20.1318H9.55273V15.0166H9.75488ZM14.624 15.0166C15.0371 15.0166 15.4238 14.7793 15.4238 14.1553V7.20312H17.4453V14.1553C17.4453 14.7793 17.832 15.0166 18.2451 15.0166H18.4473V20.1318H14.4219V15.0166H14.624ZM19.4932 15.0166C19.9062 15.0166 20.3018 14.7793 20.3018 14.1553V7.20312H21.4004C22.209 7.20312 22.6572 7.625 22.6572 8.47754V18.8574C22.6572 19.71 22.209 20.1318 21.4004 20.1318H19.291V15.0166H19.4932Z" fill="#1C1C1E"/>
</svg>
