<svg width="28" height="28" viewBox="0 0 28 28" fill="none" xmlns="http://www.w3.org/2000/svg">
<path d="M8.42773 17.6885H13.1211V21.8545C13.1211 23.0762 13.7539 24.333 14 24.333C14.2373 24.333 14.8701 23.0762 14.8701 21.8545V17.6885H19.5723C20.4072 17.6885 20.9434 17.1611 20.9434 16.3613C20.9434 14.4629 19.4404 12.5996 17.1377 11.6768L16.8564 7.51074C17.9902 6.77246 19.0273 5.94629 19.4756 5.36621C19.7129 5.0498 19.8271 4.7334 19.8271 4.45215C19.8271 3.87207 19.3877 3.44141 18.7197 3.44141H9.27148C8.6123 3.44141 8.16406 3.87207 8.16406 4.45215C8.16406 4.7334 8.27832 5.0498 8.51562 5.36621C8.96387 5.94629 10.0098 6.77246 11.1348 7.51074L10.8535 11.6768C8.55957 12.5996 7.04785 14.4629 7.04785 16.3613C7.04785 17.1611 7.59277 17.6885 8.42773 17.6885ZM14 11.0791C13.4639 11.0791 12.9453 11.1318 12.4531 11.2197L12.7168 6.80762C12.7256 6.6582 12.6992 6.58789 12.585 6.53516C11.4072 5.92871 10.4932 5.22559 10.3438 5.02344C10.2734 4.92676 10.335 4.84766 10.4316 4.84766H17.5596C17.6562 4.84766 17.7178 4.92676 17.6475 5.02344C17.498 5.22559 16.584 5.92871 15.4062 6.53516C15.292 6.58789 15.2656 6.6582 15.2744 6.80762L15.5381 11.2197C15.0459 11.1318 14.5273 11.0791 14 11.0791ZM8.83203 16.1855C8.65625 16.1855 8.57715 16.0889 8.6123 15.8779C8.82324 14.3047 10.8975 12.5381 14 12.5381C17.0938 12.5381 19.168 14.3047 19.3877 15.8779C19.4141 16.0889 19.335 16.1855 19.1592 16.1855H8.83203Z" fill="#1C1C1E"/>
</svg>
