<svg width="28" height="28" viewBox="0 0 28 28" fill="none" xmlns="http://www.w3.org/2000/svg">
<path d="M8.67383 21.8721H19.3174C21.2158 21.8721 22.2002 20.8877 22.2002 19.0156V8.31934C22.2002 6.43848 21.2158 5.46289 19.3174 5.46289H8.67383C6.77539 5.46289 5.79102 6.43848 5.79102 8.31934V19.0156C5.79102 20.8965 6.77539 21.8721 8.67383 21.8721ZM10.4404 15.333C10.4404 14.3662 11.249 13.3643 12.5146 12.9072L12.6641 10.8066C12.0049 10.4375 11.4863 10.0244 11.249 9.72559C11.1172 9.55859 11.0469 9.3916 11.0469 9.2334C11.0469 8.94336 11.2754 8.72363 11.6094 8.72363H16.4434C16.7773 8.72363 17.0059 8.94336 17.0059 9.2334C17.0059 9.3916 16.9355 9.55859 16.8125 9.7168C16.5752 10.0156 16.0479 10.4287 15.3887 10.8066L15.5293 12.9072C16.8037 13.3643 17.6123 14.3662 17.6123 15.333C17.6123 15.7461 17.3398 16.0098 16.9268 16.0098H14.6416V17.6094C14.6416 18.5059 14.2021 19.3936 14.0264 19.3936C13.8418 19.3936 13.4111 18.5059 13.4111 17.6094V16.0098H11.126C10.7129 16.0098 10.4404 15.7461 10.4404 15.333Z" fill="#1C1C1E"/>
</svg>
