<svg width="28" height="28" viewBox="0 0 28 28" fill="none" xmlns="http://www.w3.org/2000/svg">
<path d="M13.9912 22.7422C18.9746 22.7422 23.0879 18.6289 23.0879 13.6543C23.0879 8.67969 18.9658 4.56641 13.9824 4.56641C9.00781 4.56641 4.90332 8.67969 4.90332 13.6543C4.90332 18.6289 9.0166 22.7422 13.9912 22.7422ZM13.9912 20.9316C9.95703 20.9316 6.73145 17.6885 6.73145 13.6543C6.73145 9.62012 9.95703 6.38574 13.9824 6.38574C18.0166 6.38574 21.2598 9.62012 21.2686 13.6543C21.2773 17.6885 18.0254 20.9316 13.9912 20.9316ZM10.5371 15.2891C10.5371 15.6846 10.8008 15.9395 11.2051 15.9395H13.4023V17.4775C13.4023 18.3389 13.8242 19.1914 13.9912 19.1914C14.167 19.1914 14.5801 18.3389 14.5801 17.4775V15.9395H16.7773C17.1816 15.9395 17.4453 15.6846 17.4453 15.2891C17.4453 14.3662 16.6631 13.3994 15.4414 12.96L15.3008 10.9385C15.9336 10.5781 16.4434 10.1826 16.6719 9.89258C16.7861 9.73438 16.8477 9.57617 16.8477 9.43555C16.8477 9.14551 16.6279 8.94336 16.3115 8.94336H11.6797C11.3545 8.94336 11.1348 9.14551 11.1348 9.43555C11.1348 9.57617 11.2051 9.74316 11.3281 9.90137C11.5566 10.1826 12.0576 10.5869 12.6904 10.9385L12.541 12.96C11.3281 13.3994 10.5371 14.3662 10.5371 15.2891Z" fill="#1C1C1E"/>
</svg>
