<svg width="28" height="28" viewBox="0 0 28 28" fill="none" xmlns="http://www.w3.org/2000/svg">
<path d="M7.04785 16.3613C7.04785 17.1611 7.59277 17.6885 8.42773 17.6885H13.1211V21.8545C13.1211 23.0762 13.7539 24.333 14 24.333C14.2373 24.333 14.8701 23.0762 14.8701 21.8545V17.6885H19.5723C20.4072 17.6885 20.9434 17.1611 20.9434 16.3613C20.9434 14.4629 19.4404 12.5205 16.9531 11.6064L16.6719 7.51074C17.9814 6.77246 19.0186 5.95508 19.4668 5.36621C19.7129 5.05859 19.8271 4.7334 19.8271 4.45215C19.8271 3.87207 19.3877 3.44141 18.7197 3.44141H9.27148C8.6123 3.44141 8.16406 3.87207 8.16406 4.45215C8.16406 4.7334 8.27832 5.05859 8.52441 5.36621C8.97266 5.95508 10.0098 6.77246 11.3193 7.51074L11.0381 11.6064C8.55078 12.5205 7.04785 14.4629 7.04785 16.3613Z" fill="#1C1C1E"/>
</svg>
