<svg width="28" height="28" viewBox="0 0 28 28" fill="none" xmlns="http://www.w3.org/2000/svg">
<path d="M8.16406 4.45215C8.16406 4.7334 8.27832 5.0498 8.51562 5.36621C8.96387 5.94629 10.0098 6.77246 11.1348 7.51074L11.0732 8.38086L12.541 9.84863L12.7168 6.80762C12.7256 6.6582 12.6992 6.58789 12.585 6.53516C11.4072 5.92871 10.4932 5.22559 10.3438 5.02344C10.2734 4.92676 10.335 4.84766 10.4316 4.84766H17.5596C17.6562 4.84766 17.7178 4.92676 17.6475 5.02344C17.498 5.22559 16.584 5.92871 15.4062 6.53516C15.292 6.58789 15.2656 6.6582 15.2744 6.80762L15.5381 11.2197C15.0459 11.1318 14.5361 11.0791 14 11.0791H13.7891L15.3711 12.6875C17.6035 12.9424 19.2822 14.8057 19.2822 16.1064C19.2822 16.1504 19.2822 16.1855 19.2734 16.2207L20.3984 17.46C20.7061 17.2666 20.9434 16.8887 20.9434 16.3613C20.9434 14.4629 19.4404 12.5908 17.1377 11.6855L16.8564 7.51074C17.9814 6.77246 19.0273 5.94629 19.4756 5.36621C19.7129 5.0498 19.8271 4.7334 19.8271 4.45215C19.8271 3.87207 19.3789 3.44141 18.7197 3.44141H9.27148C8.6123 3.44141 8.16406 3.87207 8.16406 4.45215ZM5.14941 6.05176L21.2422 22.127C21.5146 22.3994 21.9629 22.3994 22.2266 22.127C22.499 21.8457 22.499 21.415 22.2266 21.1426L6.14258 5.06738C5.87012 4.79492 5.42188 4.79492 5.14941 5.06738C4.88574 5.33105 4.88574 5.78809 5.14941 6.05176ZM7.04785 16.3613C7.04785 17.1611 7.58398 17.6885 8.41895 17.6885H13.1211V21.8545C13.1211 23.0762 13.7539 24.333 13.9912 24.333C14.2373 24.333 14.8701 23.0762 14.8701 21.8545V17.8027H15.2832L13.666 16.1855H8.83203C8.65625 16.1855 8.57715 16.0889 8.60352 15.8779C8.72656 14.9287 9.52637 13.9443 10.7832 13.3027L9.7373 12.2656C8.08496 13.25 7.04785 14.7881 7.04785 16.3613Z" fill="#1C1C1E"/>
</svg>
