<svg width="28" height="28" viewBox="0 0 28 28" fill="none" xmlns="http://www.w3.org/2000/svg">
<path d="M8.03223 20.835C8.03223 22.2852 9.05176 23.2607 10.5635 23.2607H17.4717C18.9658 23.2607 19.959 22.2852 19.959 20.835V6.45605C19.959 5.00586 18.9658 4.03027 17.4717 4.03027H10.5635C9.05176 4.03027 8.03223 5.00586 8.03223 6.45605V20.835ZM9.75488 20.4395V6.85156C9.75488 6.18359 10.1592 5.80566 10.8535 5.80566H17.1465C17.8408 5.80566 18.2451 6.18359 18.2451 6.85156V20.4395C18.2451 21.1074 17.8408 21.4941 17.1465 21.4941H10.8535C10.1592 21.4941 9.75488 21.1074 9.75488 20.4395ZM11.6797 9.65527H16.3203C16.7861 9.65527 17.1025 9.33887 17.1025 8.85547V7.73926C17.1025 7.25586 16.7861 6.93945 16.3203 6.93945H11.6797C11.2139 6.93945 10.8975 7.25586 10.8975 7.73926V8.85547C10.8975 9.33887 11.2139 9.65527 11.6797 9.65527Z" fill="#1C1C1E"/>
</svg>
