<svg width="28" height="28" viewBox="0 0 28 28" fill="none" xmlns="http://www.w3.org/2000/svg">
<path d="M10.6074 22.2852H17.3838C19.9326 22.2852 21.5059 20.6855 21.5059 18.084V12.793H21.7168C22.3145 12.793 22.6924 12.3799 22.6924 11.7383V10.2705C22.6924 9.62012 22.3145 9.20703 21.7168 9.20703H21.5059C21.5059 6.64941 19.9326 5.0498 17.3838 5.0498H10.6074C8.06738 5.0498 6.48535 6.64941 6.48535 9.24219V18.084C6.48535 20.6855 8.06738 22.2852 10.6074 22.2852ZM10.5635 20.6064C9.05176 20.6064 8.17285 19.6924 8.17285 18.1367V9.22461C8.17285 7.67773 9.05176 6.77246 10.5635 6.77246H17.4365C18.9395 6.77246 19.8271 7.67773 19.8271 9.22461V18.1367C19.8271 19.6924 18.9395 20.6064 17.4365 20.6064H10.5635ZM9.28027 18.2598C9.28027 19.0156 9.72852 19.4902 10.4404 19.4902H17.5596C18.2715 19.4902 18.7197 19.0156 18.7197 18.2598V16.6426C18.7197 15.8867 18.2715 15.4121 17.5596 15.4121H10.4404C9.72852 15.4121 9.28027 15.8867 9.28027 16.6426V18.2598ZM10.3613 18.1279V16.7744C10.3613 16.5986 10.458 16.4932 10.6338 16.4932H17.3662C17.5332 16.4932 17.6387 16.5986 17.6387 16.7744V18.1279C17.6387 18.3037 17.5332 18.418 17.3662 18.418H10.6338C10.458 18.418 10.3613 18.3037 10.3613 18.1279Z" fill="#1C1C1E"/>
</svg>
