<svg width="28" height="28" viewBox="0 0 28 28" fill="none" xmlns="http://www.w3.org/2000/svg">
<path d="M6.81055 19.6133H21.1895C22.6396 19.6133 23.6152 18.6025 23.6152 17.082V10.1738C23.6152 8.67969 22.6396 7.67773 21.1895 7.67773H6.81055C5.36035 7.67773 4.38477 8.67969 4.38477 10.1738V17.082C4.38477 18.6025 5.36035 19.6133 6.81055 19.6133ZM7.20605 17.8906C6.53809 17.8906 6.16016 17.4951 6.16016 16.792V10.499C6.16016 9.80469 6.53809 9.40039 7.20605 9.40039H20.7939C21.4619 9.40039 21.8398 9.80469 21.8398 10.499V16.792C21.8398 17.4951 21.4619 17.8906 20.7939 17.8906H7.20605ZM8.65625 15.3418H12.5059C12.9717 15.3418 13.2881 15.0342 13.2881 14.542V12.7402C13.2881 12.2568 12.9717 11.9404 12.5059 11.9404H8.65625C8.19043 11.9404 7.87402 12.2568 7.87402 12.7402V14.542C7.87402 15.0342 8.19043 15.3418 8.65625 15.3418ZM15.4941 15.3418H19.3438C19.8096 15.3418 20.126 15.0342 20.126 14.542V12.7402C20.126 12.2568 19.8096 11.9404 19.3438 11.9404H15.4941C15.0283 11.9404 14.7119 12.2568 14.7119 12.7402V14.542C14.7119 15.0342 15.0283 15.3418 15.4941 15.3418Z" fill="#1C1C1E"/>
</svg>
