<svg width="28" height="28" viewBox="0 0 28 28" fill="none" xmlns="http://www.w3.org/2000/svg">
<path d="M8.03223 20.835C8.03223 22.2852 9.05176 23.2607 10.5635 23.2607H17.4717C18.9658 23.2607 19.959 22.2852 19.959 20.835V6.45605C19.959 5.00586 18.9658 4.03027 17.4717 4.03027H10.5635C9.05176 4.03027 8.03223 5.00586 8.03223 6.45605V20.835ZM9.75488 20.4395V6.85156C9.75488 6.18359 10.1592 5.80566 10.8535 5.80566H17.1465C17.8408 5.80566 18.2451 6.18359 18.2451 6.85156V20.4395C18.2451 21.1074 17.8408 21.4941 17.1465 21.4941H10.8535C10.1592 21.4941 9.75488 21.1074 9.75488 20.4395ZM11.583 14.4453C11.583 14.5859 11.6182 14.7178 11.7236 14.8145L13.5781 16.7041C13.6924 16.8271 13.8506 16.8887 14 16.8887C14.1494 16.8887 14.3076 16.8271 14.4219 16.7041L16.2764 14.8145C16.3818 14.7178 16.417 14.5859 16.417 14.4453C16.417 14.1377 16.2061 13.9355 15.9072 13.9355C15.749 13.9268 15.626 13.9971 15.5205 14.1025L14.9229 14.709L14.5098 15.2451L14.5449 14.208V11.8086C14.5449 11.501 14.3164 11.2725 14 11.2725C13.6836 11.2725 13.4551 11.501 13.4551 11.8086V14.208L13.4902 15.2451L13.0684 14.709L12.4795 14.1025C12.374 13.9971 12.251 13.9268 12.0928 13.9355C11.7939 13.9355 11.583 14.1377 11.583 14.4453ZM11.6797 20.3516H16.3203C16.7861 20.3516 17.1025 20.0352 17.1025 19.5518V18.4443C17.1025 17.9521 16.7861 17.6445 16.3203 17.6445H11.6797C11.2139 17.6445 10.8975 17.9521 10.8975 18.4443V19.5518C10.8975 20.0352 11.2139 20.3516 11.6797 20.3516Z" fill="#1C1C1E"/>
</svg>
