<svg width="28" height="28" viewBox="0 0 28 28" fill="none" xmlns="http://www.w3.org/2000/svg">
<path d="M19.8799 20.4482C20.1523 20.7207 20.6094 20.7207 20.873 20.4482C21.1367 20.167 21.1455 19.7275 20.873 19.4551L7.43457 6.02539C7.16211 5.75293 6.71387 5.75293 6.43262 6.02539C6.16895 6.28906 6.16895 6.75488 6.43262 7.01855L19.8799 20.4482ZM19.0186 16.0449L20.8203 14.999C21.5762 14.5596 21.8926 14.2168 21.8926 13.6631C21.8926 13.1094 21.5762 12.7754 20.8203 12.3271L10.4404 6.32422C10.0713 6.10449 9.77246 5.96387 9.44727 5.96387C9.30664 5.96387 9.18359 6.04297 9.12207 6.15723L19.0186 16.0449ZM15.7842 17.917L8.11133 10.2441V19.9473C8.11133 20.8262 8.62109 21.3711 9.3418 21.3711C9.71094 21.3711 10.0361 21.2393 10.4404 21.002L15.7842 17.917Z" fill="#1C1C1E"/>
</svg>
