<svg width="28" height="28" viewBox="0 0 28 28" fill="none" xmlns="http://www.w3.org/2000/svg">
<path d="M19.8623 20.4482C20.1348 20.7207 20.5918 20.7207 20.8555 20.4482C21.1191 20.167 21.1279 19.7275 20.8555 19.4551L7.41699 6.02539C7.14453 5.75293 6.69629 5.75293 6.41504 6.02539C6.15137 6.28906 6.15137 6.75488 6.41504 7.01855L19.8623 20.4482ZM19.001 16.0449L20.8027 14.999C21.5586 14.5596 21.875 14.2168 21.875 13.6631C21.875 13.1094 21.5586 12.7754 20.8027 12.3271L10.4229 6.32422C10.0098 6.08691 9.59668 5.95508 9.20117 6.00781L13.0684 9.90137L19.4141 13.5664C19.4492 13.5928 19.4844 13.6191 19.4844 13.6631C19.4844 13.707 19.4492 13.7334 19.4141 13.7598L17.709 14.7529L19.001 16.0449ZM15.7666 17.917L14.4658 16.6162L10.0801 19.1475C10.0449 19.1738 10.0098 19.1914 9.97461 19.1914C9.93066 19.1914 9.89551 19.1475 9.89551 19.0859V12.0459L8.09375 10.2354V19.9473C8.09375 20.8262 8.60352 21.3711 9.32422 21.3711C9.69336 21.3711 10.0186 21.2393 10.4229 21.002L15.7666 17.917Z" fill="#1C1C1E"/>
</svg>
