<svg width="28" height="28" viewBox="0 0 28 28" fill="none" xmlns="http://www.w3.org/2000/svg">
<path d="M17.0146 20.9668H19.0801C19.915 20.9668 20.3457 20.5361 20.3457 19.7012V7.60742C20.3457 6.75488 19.915 6.3418 19.0801 6.3418H17.0146C16.1797 6.3418 15.749 6.77246 15.749 7.60742V19.7012C15.749 20.5361 16.1709 20.9668 17.0146 20.9668ZM24.3271 20.9668H26.3926C27.2275 20.9668 27.6582 20.5361 27.6582 19.7012V7.60742C27.6582 6.75488 27.2275 6.3418 26.3926 6.3418H24.3271C23.4922 6.3418 23.0615 6.77246 23.0615 7.60742V19.7012C23.0615 20.5361 23.4834 20.9668 24.3271 20.9668ZM1.76562 20.7295C2.15234 20.7295 2.48633 20.6152 2.86426 20.3955L11.873 15.1045C12.5322 14.7178 12.875 14.2432 12.875 13.6455C12.875 13.0566 12.541 12.5996 11.873 12.2041L2.86426 6.91309C2.47754 6.69336 2.15234 6.5791 1.75684 6.5791C0.983398 6.5791 0.341797 7.15918 0.341797 8.23145V19.0771C0.341797 20.1494 0.992188 20.7295 1.76562 20.7295Z" fill="#1C1C1E"/>
</svg>
