<svg width="28" height="28" viewBox="0 0 28 28" fill="none" xmlns="http://www.w3.org/2000/svg">
<path d="M5.24609 19.6309H22.7451C24.3447 19.6309 25.1797 18.8223 25.1797 17.1963V7.05371C25.1797 5.42773 24.3447 4.61914 22.7451 4.61914H5.24609C3.64648 4.61914 2.81152 5.42773 2.81152 7.05371V17.1963C2.81152 18.8223 3.64648 19.6309 5.24609 19.6309ZM11.7852 16.2822C11.3281 16.2822 10.959 15.9395 10.959 15.3154V8.92578C10.959 8.30176 11.3281 7.96777 11.7852 7.96777C12.0137 7.96777 12.207 8.03809 12.4268 8.15234L17.7266 11.2725C18.1221 11.5098 18.3154 11.7734 18.3154 12.1162C18.3154 12.4678 18.1133 12.7402 17.7266 12.9688L12.4268 16.0889C12.207 16.2119 12.0137 16.2822 11.7852 16.2822ZM9.5 22.707H18.4912C18.9307 22.707 19.291 22.3467 19.291 21.9072C19.291 21.4678 18.9307 21.0986 18.4912 21.0986H9.5C9.06055 21.0986 8.7002 21.4678 8.7002 21.9072C8.7002 22.3467 9.06055 22.707 9.5 22.707Z" fill="#1C1C1E"/>
</svg>
