<svg width="28" height="28" viewBox="0 0 28 28" fill="none" xmlns="http://www.w3.org/2000/svg">
<path d="M14.7207 14.0059L19.7041 6.63184C19.8359 6.43848 19.8975 6.27148 19.8975 6.06934C19.8975 5.65625 19.5459 5.34863 19.124 5.34863C18.7549 5.34863 18.5615 5.47168 18.2891 5.86719L13.3232 13.2676L8.30469 20.668C8.17285 20.8525 8.10254 21.0195 8.10254 21.248C8.10254 21.6875 8.47168 21.9688 8.91113 21.9688C9.25391 21.9688 9.44727 21.8369 9.70215 21.459L14.7207 14.0059ZM5.58887 9.76953C5.58887 10.1738 5.91406 10.4902 6.30957 10.4902H7.99707V12.1777C7.99707 12.5908 8.33105 12.9072 8.71777 12.8984C9.13086 12.8984 9.44727 12.582 9.44727 12.1777V10.4902H11.1348C11.5391 10.4902 11.8555 10.1738 11.8555 9.76953C11.8555 9.37402 11.5391 9.04883 11.1348 9.04883H9.44727V7.35254C9.44727 6.95703 9.12207 6.63184 8.71777 6.63184C8.32227 6.63184 7.99707 6.95703 7.99707 7.35254V9.04883H6.30957C5.91406 9.04883 5.58887 9.37402 5.58887 9.76953ZM16.1357 18.1367C16.1357 18.541 16.4609 18.8662 16.8564 18.8662H21.6816C22.0859 18.8662 22.4111 18.541 22.4111 18.1367C22.4111 17.7412 22.0859 17.416 21.6816 17.416H16.8564C16.4609 17.416 16.1357 17.7412 16.1357 18.1367Z" fill="#1C1C1E"/>
</svg>
