<svg width="28" height="28" viewBox="0 0 28 28" fill="none" xmlns="http://www.w3.org/2000/svg">
<path d="M13.9912 22.7422C18.9746 22.7422 23.0879 18.6289 23.0879 13.6543C23.0879 8.67969 18.9658 4.56641 13.9824 4.56641C9.00781 4.56641 4.90332 8.67969 4.90332 13.6543C4.90332 18.6289 9.0166 22.7422 13.9912 22.7422ZM13.9912 20.9316C9.95703 20.9316 6.73145 17.6885 6.73145 13.6543C6.73145 9.62012 9.95703 6.38574 13.9824 6.38574C18.0166 6.38574 21.2598 9.62012 21.2686 13.6543C21.2773 17.6885 18.0254 20.9316 13.9912 20.9316ZM10.748 14.4893H13.1562V16.9062C13.1562 17.3896 13.499 17.7324 13.9736 17.7324C14.4658 17.7324 14.8174 17.3896 14.8174 16.9062V14.4893H17.2344C17.7178 14.4893 18.0693 14.1465 18.0693 13.6631C18.0693 13.1797 17.7266 12.8281 17.2344 12.8281H14.8174V10.4111C14.8174 9.91895 14.4658 9.57617 13.9736 9.57617C13.499 9.57617 13.1562 9.91895 13.1562 10.4111V12.8281H10.748C10.2471 12.8281 9.9043 13.1797 9.9043 13.6631C9.9043 14.1465 10.2559 14.4893 10.748 14.4893Z" fill="#1C1C1E"/>
</svg>
