<svg width="28" height="28" viewBox="0 0 28 28" fill="none" xmlns="http://www.w3.org/2000/svg">
<path d="M7.3291 23.1201C8.40137 23.1201 10.959 22.0039 12.5586 20.8789C12.7256 20.7559 12.8662 20.7119 13.0068 20.7119C13.1211 20.7207 13.2266 20.7295 13.3232 20.7295C19.6602 20.7207 24.1953 17.2666 24.1953 12.5205C24.1953 7.97656 19.6514 4.32031 13.9912 4.32031C8.33105 4.32031 3.7959 7.97656 3.7959 12.5205C3.7959 15.3506 5.50098 17.8818 8.38379 19.4375C8.54199 19.5342 8.58594 19.666 8.50684 19.8242C7.99707 20.6768 7.14453 21.626 6.79297 22.0742C6.39746 22.5752 6.62598 23.1201 7.3291 23.1201ZM9.74609 12.5996C9.74609 12.0898 10.1152 11.7207 10.625 11.7207H13.1211V9.22461C13.1211 8.71484 13.4814 8.3457 13.9824 8.3457C14.501 8.3457 14.8613 8.71484 14.8613 9.22461V11.7207H17.375C17.876 11.7207 18.2363 12.0898 18.2363 12.5996C18.2363 13.1094 17.876 13.4609 17.375 13.4609H14.8613V15.9746C14.8613 16.4756 14.501 16.8359 13.9824 16.8359C13.4814 16.8359 13.1211 16.4756 13.1211 15.9746V13.4609H10.625C10.1152 13.4609 9.74609 13.1094 9.74609 12.5996Z" fill="#1C1C1E"/>
</svg>
