<svg width="28" height="28" viewBox="0 0 28 28" fill="none" xmlns="http://www.w3.org/2000/svg">
<path d="M13.9912 22.7422C18.9746 22.7422 23.0879 18.6289 23.0879 13.6543C23.0879 8.67969 18.9658 4.56641 13.9824 4.56641C9.00781 4.56641 4.90332 8.67969 4.90332 13.6543C4.90332 18.6289 9.0166 22.7422 13.9912 22.7422ZM13.9912 20.9316C9.95703 20.9316 6.73145 17.6885 6.73145 13.6543C6.73145 9.62012 9.95703 6.38574 13.9824 6.38574C18.0166 6.38574 21.2598 9.62012 21.2686 13.6543C21.2773 17.6885 18.0254 20.9316 13.9912 20.9316ZM11.5654 12.6699H13.3145V14.3926C13.3145 14.7705 13.6133 15.0781 14 15.0781C14.3867 15.0781 14.6855 14.7793 14.6855 14.4014V12.6699H16.4258C16.8125 12.6699 17.1113 12.3711 17.1113 11.9844C17.1113 11.5977 16.8125 11.2988 16.4258 11.2988H14.6855V9.57617C14.6855 9.18945 14.3867 8.89062 14 8.89062C13.6133 8.89062 13.3145 9.18945 13.3145 9.57617V11.2988H11.5654C11.1787 11.2988 10.8799 11.5977 10.8799 11.9844C10.8799 12.3711 11.1787 12.6699 11.5654 12.6699ZM11.5918 17.8643H16.3994C16.7949 17.8643 17.1113 17.5391 17.1113 17.1787C17.1113 16.8008 16.7949 16.4844 16.3994 16.4844H11.5918C11.1963 16.4844 10.8799 16.8008 10.8799 17.1787C10.8799 17.5391 11.1963 17.8643 11.5918 17.8643Z" fill="#1C1C1E"/>
</svg>
