<svg width="28" height="28" viewBox="0 0 28 28" fill="none" xmlns="http://www.w3.org/2000/svg">
<path d="M6.81934 21.7666H21.4004C23.0879 21.7666 24.0811 20.7822 24.0811 18.9014V15.4824H25.0479C26.9463 15.4824 27.9395 14.5068 27.9395 12.6172V7.30859C27.9395 5.42773 26.9463 4.44336 25.0479 4.44336H17.4365C15.6348 4.44336 14.6592 5.31348 14.5537 6.99219H13.0332C12.5234 6.99219 12.0225 6.85156 11.5391 6.44727L11.0381 6.04297C10.4141 5.5332 9.95703 5.36621 9.03418 5.36621H6.54688C4.90332 5.36621 3.91895 6.33301 3.91895 8.1875V18.9014C3.91895 20.791 4.91211 21.7666 6.81934 21.7666ZM17.4893 13.8037C16.6719 13.8037 16.2236 13.3818 16.2236 12.5205V7.40527C16.2236 6.54395 16.6719 6.12207 17.4893 6.12207H24.9863C25.8037 6.12207 26.2607 6.54395 26.2607 7.40527V12.5205C26.2607 13.3818 25.8037 13.8037 25.0039 13.8037H17.4893ZM19.0537 10.6748H20.5303V12.1514C20.5303 12.5469 20.8467 12.8633 21.2422 12.8633C21.6465 12.8633 21.9541 12.5469 21.9541 12.1514V10.6748H23.4219C23.8262 10.6748 24.1338 10.3584 24.1338 9.96289C24.1338 9.56738 23.8262 9.25098 23.4219 9.25098H21.9541V7.77441C21.9541 7.37891 21.6377 7.0625 21.2422 7.0625C20.8467 7.0625 20.5303 7.37891 20.5303 7.77441V9.25098H19.0537C18.6582 9.25098 18.3418 9.56738 18.3418 9.96289C18.3418 10.3584 18.6582 10.6748 19.0537 10.6748ZM5.67676 8.33691C5.67676 7.53711 6.11621 7.11523 6.89844 7.11523H8.56836C9.19238 7.11523 9.56152 7.26465 10.0625 7.66895L10.5635 8.08203C11.1699 8.57422 11.7676 8.75 12.6904 8.75H14.5361V10.5342H5.67676V8.33691ZM17.4365 15.4824H22.3232V18.752C22.3232 19.5957 21.875 20.0176 21.0664 20.0176H6.9248C6.11621 20.0176 5.67676 19.5957 5.67676 18.7432V12.0723H14.5361V12.6172C14.5361 14.5068 15.5293 15.4824 17.4365 15.4824Z" fill="#1C1C1E"/>
</svg>
