<svg width="28" height="28" viewBox="0 0 28 28" fill="none" xmlns="http://www.w3.org/2000/svg">
<path d="M17.4717 15.4121H25.0127C26.8848 15.4121 27.8604 14.4541 27.8604 12.5908V7.33496C27.8604 5.47168 26.8848 4.51367 25.0127 4.51367H17.4717C15.582 4.51367 14.6152 5.47168 14.6152 7.33496V12.5908C14.6152 14.4541 15.582 15.4121 17.4717 15.4121ZM3.92773 10.6309H13.3232V7.71289C13.3232 7.43164 13.3408 7.15918 13.3496 6.94824C13.1299 6.94824 12.9805 6.94824 12.7607 6.94824C12.2246 6.93066 11.8906 6.79004 11.4775 6.43848L11.0117 6.06055C10.3965 5.55078 9.93945 5.38379 9.02539 5.38379H6.53809C4.89453 5.38379 3.92773 6.3418 3.92773 8.1875V10.6309ZM21.2422 12.8281C20.8818 12.8281 20.6445 12.5908 20.6445 12.2305V10.5605H18.9746C18.623 10.5605 18.377 10.3232 18.377 9.96289C18.377 9.60254 18.6143 9.36523 18.9746 9.36523H20.6445V7.7041C20.6445 7.34375 20.8818 7.10645 21.2422 7.09766C21.6025 7.09766 21.8398 7.34375 21.8398 7.7041V9.36523H23.5098C23.8613 9.36523 24.1074 9.60254 24.1074 9.96289C24.1074 10.3232 23.8613 10.5605 23.5098 10.5605H21.8398V12.2305C21.8398 12.5908 21.6025 12.8281 21.2422 12.8281ZM6.81055 21.7578H21.4092C23.0879 21.7578 24.0635 20.6328 24.0635 18.7607V16.6953H17.4629C14.8789 16.6953 13.3232 15.166 13.3232 12.6084V11.8965H3.92773V18.9014C3.92773 20.7822 4.91211 21.7578 6.81055 21.7578Z" fill="#1C1C1E"/>
</svg>
