<svg width="28" height="28" viewBox="0 0 28 28" fill="none" xmlns="http://www.w3.org/2000/svg">
<path d="M17.4717 15.4297H25.0127C26.8936 15.4297 27.8691 14.4541 27.8691 12.5908V7.33496C27.8691 5.47168 26.8936 4.49609 25.0127 4.49609H17.4717C15.582 4.49609 14.6064 5.47168 14.6064 7.33496V12.5908C14.6064 14.4541 15.582 15.4297 17.4717 15.4297ZM3.91895 10.6484H13.3145V7.7041C13.3145 7.42285 13.3408 7.1416 13.3496 6.93066C13.1299 6.92188 12.9805 6.92188 12.7607 6.92188C12.2334 6.9043 11.8994 6.76367 11.4863 6.41211L11.0381 6.04297C10.4141 5.5332 9.95703 5.36621 9.03418 5.36621H6.54688C4.90332 5.36621 3.91895 6.33301 3.91895 8.1875V10.6484ZM18.2891 9.91016C18.2891 9.48828 18.623 9.16309 19.0361 9.16309H20.5654V7.63379C20.5654 7.2207 20.8906 6.88672 21.3037 6.88672C21.7256 6.88672 22.0596 7.2207 22.0596 7.63379V9.16309H23.5801C23.9932 9.16309 24.3184 9.48828 24.3184 9.91016C24.3184 10.332 23.9932 10.6572 23.5801 10.6572H22.0596V12.1777C22.0596 12.5908 21.7344 12.9248 21.3125 12.9248C20.8906 12.9248 20.5654 12.5908 20.5654 12.1777V10.6572H19.0361C18.623 10.6572 18.2891 10.3232 18.2891 9.91016ZM6.81934 21.7666H21.4004C23.0879 21.7666 24.0811 20.6416 24.0811 18.7607V16.7129H17.4717C14.8789 16.7129 13.3145 15.1748 13.3145 12.6172V11.9141H3.91895V18.9014C3.91895 20.791 4.91211 21.7666 6.81934 21.7666Z" fill="#1C1C1E"/>
</svg>
