<svg width="28" height="28" viewBox="0 0 28 28" fill="none" xmlns="http://www.w3.org/2000/svg">
<path d="M7.33789 11.7646C8.99023 11.7646 10.3262 10.4287 10.3262 8.77637C10.3262 7.13281 8.99023 5.79688 7.33789 5.79688C5.69434 5.79688 4.3584 7.13281 4.3584 8.77637C4.3584 10.4287 5.69434 11.7646 7.33789 11.7646ZM20.6445 11.7646C22.2969 11.7646 23.6328 10.4287 23.6328 8.77637C23.6328 7.13281 22.2969 5.79688 20.6445 5.79688C19.001 5.79688 17.665 7.13281 17.665 8.77637C17.665 10.4287 19.001 11.7646 20.6445 11.7646ZM7.33789 10.1475C6.57324 10.1475 5.97559 9.54102 5.97559 8.77637C5.97559 8.00293 6.57324 7.40527 7.33789 7.40527C8.12012 7.40527 8.71777 8.00293 8.71777 8.77637C8.71777 9.5498 8.12012 10.1475 7.33789 10.1475ZM20.6445 10.1475C19.8799 10.1475 19.2734 9.54102 19.2734 8.77637C19.2734 8.00293 19.8799 7.40527 20.6445 7.40527C21.4268 7.40527 22.0156 8.00293 22.0156 8.77637C22.0156 9.5498 21.4268 10.1475 20.6445 10.1475ZM11.7764 9.61133C12.1895 9.61133 12.5322 9.25977 12.5322 8.83789C12.5322 8.43359 12.1895 8.09082 11.7764 8.09082C11.3545 8.09082 11.0117 8.43359 11.0117 8.83789C11.0117 9.26855 11.3545 9.61133 11.7764 9.61133ZM13.9824 9.61133C14.3955 9.61133 14.7471 9.25977 14.7471 8.83789C14.7471 8.43359 14.3955 8.09082 13.9824 8.09082C13.5693 8.09082 13.2178 8.43359 13.2178 8.83789C13.2178 9.25977 13.5693 9.61133 13.9824 9.61133ZM16.2061 9.61133C16.6279 9.61133 16.9707 9.26855 16.9707 8.83789C16.9707 8.43359 16.6279 8.09082 16.2061 8.09082C15.793 8.09082 15.4502 8.43359 15.4502 8.83789C15.4502 9.25977 15.793 9.61133 16.2061 9.61133ZM18.3594 13.5928C18.7812 13.5928 19.124 13.2412 19.124 12.8193C19.124 12.415 18.7812 12.0635 18.3594 12.0635C17.9463 12.0635 17.6035 12.415 17.6035 12.8193C17.6035 13.2412 17.9463 13.5928 18.3594 13.5928ZM9.62305 13.5928C10.0361 13.5928 10.3789 13.2412 10.3789 12.8193C10.3789 12.415 10.0361 12.0635 9.62305 12.0635C9.20117 12.0635 8.8584 12.415 8.8584 12.8193C8.8584 13.2412 9.20117 13.5928 9.62305 13.5928ZM16.6982 15.4209C17.1201 15.4209 17.4629 15.0693 17.4629 14.6475C17.4629 14.2432 17.1201 13.9004 16.6982 13.9004C16.2852 13.9004 15.9424 14.2432 15.9424 14.6475C15.9424 15.0781 16.2852 15.4209 16.6982 15.4209ZM11.2842 15.4209C11.6973 15.4209 12.04 15.0693 12.04 14.6475C12.04 14.2432 11.6973 13.9004 11.2842 13.9004C10.8623 13.9004 10.5195 14.2432 10.5195 14.6475C10.5195 15.0781 10.8623 15.4209 11.2842 15.4209ZM13.9912 21.5381C15.6436 21.5381 16.9795 20.2021 16.9795 18.5498C16.9795 16.9062 15.6436 15.5703 13.9912 15.5703C12.3477 15.5703 11.0117 16.9062 11.0117 18.5498C11.0117 20.2021 12.3477 21.5381 13.9912 21.5381ZM13.9912 19.9297C13.2266 19.9297 12.6201 19.3232 12.6201 18.5498C12.6201 17.7764 13.2266 17.1875 13.9912 17.1875C14.7734 17.1875 15.3711 17.7764 15.3711 18.5498C15.3711 19.3232 14.7734 19.9297 13.9912 19.9297Z" fill="#1C1C1E"/>
</svg>
