<svg width="28" height="28" viewBox="0 0 28 28" fill="none" xmlns="http://www.w3.org/2000/svg">
<path d="M8.20801 10.1299C8.20801 12.002 9.35059 13.3027 11.5303 13.874L15.96 15.0781C17.3662 15.4648 18.0869 16.1943 18.0869 17.2139V17.5566C16.8477 17.917 15.9424 19.0684 15.9424 20.4219C15.9424 22.0654 17.2871 23.4014 18.9395 23.4014C20.583 23.4014 21.9189 22.0654 21.9189 20.4219C21.9189 19.0684 21.0137 17.917 19.7832 17.5566V17.2139C19.7832 15.3418 18.6406 14.0498 16.4609 13.4697L12.0225 12.2656C10.6338 11.8877 9.9043 11.1494 9.9043 10.1299V9.78711C11.1436 9.42676 12.04 8.28418 12.04 6.92188C12.04 5.27832 10.7041 3.94238 9.05176 3.94238C7.4082 3.94238 6.07227 5.27832 6.07227 6.92188C6.07227 8.28418 6.97754 9.42676 8.20801 9.78711V10.1299ZM9.05176 8.30176C8.28711 8.30176 7.68945 7.69531 7.68945 6.92188C7.68945 6.14844 8.28711 5.55078 9.05176 5.55078C9.83398 5.55078 10.4316 6.14844 10.4316 6.92188C10.4316 7.69531 9.83398 8.30176 9.05176 8.30176Z" fill="#1C1C1E"/>
</svg>
