<svg width="28" height="28" viewBox="0 0 28 28" fill="none" xmlns="http://www.w3.org/2000/svg">
<path d="M1.5459 15.4912C1.5459 16.9502 2.31934 17.7148 3.80469 17.7148H6.98633C8.30469 17.7148 8.98145 18.0576 9.84277 19.1826C11.3633 21.1514 13.71 22.2324 16.1533 22.2324H19.3262C20.0645 22.2324 20.5566 21.7402 20.5566 21.002V18.6289H24.916C25.7598 18.6289 26.4453 17.9434 26.4453 17.0996C26.4453 16.2646 25.7598 15.5791 24.916 15.5791H20.5566V11.7471H24.916C25.7598 11.7471 26.4453 11.0615 26.4453 10.2266C26.4453 9.38281 25.7598 8.69727 24.916 8.69727H20.5566V6.25391C20.5566 5.5332 20.0557 5.0498 19.3262 5.0498H16.1533C13.71 5.0498 11.3633 6.13965 9.84277 8.09961C8.98145 9.22461 8.30469 9.56738 6.98633 9.56738H3.80469C2.31934 9.56738 1.5459 10.332 1.5459 11.791V15.4912ZM3.14551 15.3418V11.9404C3.14551 11.4219 3.41797 11.167 3.91016 11.167H6.98633C8.80566 11.167 9.93945 10.5957 11.0996 9.08398C12.3213 7.50195 14.1846 6.64941 16.1533 6.64941H18.6494C18.8516 6.64941 18.957 6.75488 18.957 6.95703V20.334C18.957 20.5273 18.8516 20.6328 18.6494 20.6328H16.1533C14.1846 20.6328 12.3213 19.7891 11.0996 18.1982C9.93945 16.6865 8.80566 16.1152 6.98633 16.1152H3.91016C3.41797 16.1152 3.14551 15.8604 3.14551 15.3418Z" fill="#1C1C1E"/>
</svg>
