<svg width="28" height="28" viewBox="0 0 28 28" fill="none" xmlns="http://www.w3.org/2000/svg">
<path d="M14 22.7334C18.9658 22.7334 23.0791 18.6289 23.0791 13.6543C23.0791 8.68848 18.9658 4.5752 13.9912 4.5752C9.02539 4.5752 4.9209 8.68848 4.9209 13.6543C4.9209 18.6289 9.03418 22.7334 14 22.7334ZM14 20.9492C9.95703 20.9492 6.71387 17.6973 6.71387 13.6543C6.71387 9.61133 9.94824 6.36816 13.9912 6.36816C18.0342 6.36816 21.2861 9.61133 21.2949 13.6543C21.2949 17.6973 18.043 20.9492 14 20.9492ZM14 13.8916C14.3867 13.8916 14.6592 13.6104 14.6592 13.2148V9.51465C14.6592 9.11914 14.3867 8.83789 14 8.83789C13.6133 8.83789 13.3408 9.11914 13.3408 9.51465V13.2148C13.3408 13.6104 13.6133 13.8916 14 13.8916ZM14 18.1982C16.4961 18.1982 18.5615 16.1328 18.5615 13.6455C18.5615 12.415 18.0254 11.2021 17.1289 10.3584C16.4697 9.72559 15.5732 10.6396 16.2236 11.29C16.874 11.9053 17.2344 12.7314 17.2432 13.6455C17.2432 15.4473 15.8018 16.8887 14 16.8887C12.1982 16.8887 10.7656 15.4473 10.7656 13.6455C10.7656 12.7314 11.126 11.9053 11.7764 11.2812C12.4355 10.6309 11.5303 9.72559 10.8799 10.3584C9.97461 11.1934 9.44727 12.4062 9.44727 13.6455C9.44727 16.1328 11.5039 18.1982 14 18.1982Z" fill="#1C1C1E"/>
</svg>
