<svg width="28" height="28" viewBox="0 0 28 28" fill="none" xmlns="http://www.w3.org/2000/svg">
<path d="M7.59277 6.22754H20.3896V6.0957C20.3896 4.76855 19.3262 4.14453 17.8496 4.14453H10.1416C8.72656 4.14453 7.59277 4.76855 7.59277 6.0957V6.22754ZM6.78418 20.0088H6.95117V15.2363C6.95117 13.8828 7.74219 13.083 9.10449 13.083H18.8779C20.2402 13.083 21.04 13.8828 21.04 15.2363V20.0088H21.207C22.9912 20.0088 23.9668 19.0771 23.9668 17.2842V10.2178C23.9668 8.4248 22.9912 7.49316 21.207 7.49316H6.78418C5.06152 7.49316 4.02441 8.4248 4.02441 10.2178V17.2842C4.02441 19.0771 4.99121 20.0088 6.78418 20.0088ZM18.1748 10.543C18.1748 9.91895 18.7109 9.37402 19.3525 9.37402C19.9854 9.37402 20.5215 9.91895 20.5215 10.543C20.5215 11.1934 19.9854 11.7031 19.3525 11.7119C18.7109 11.7119 18.1748 11.1934 18.1748 10.543ZM8.23438 22.1885C8.23438 22.9092 8.70898 23.3838 9.42969 23.3838H18.5527C19.2734 23.3838 19.748 22.9092 19.748 22.1885V15.2363C19.748 14.7178 19.4053 14.375 18.8779 14.375H9.10449C8.58594 14.375 8.23438 14.7178 8.23438 15.2363V22.1885ZM11.2578 17.9346C10.8975 17.9346 10.6338 17.6621 10.6338 17.3105C10.6338 16.9766 10.8975 16.7041 11.2578 16.7041H16.7598C17.1025 16.7041 17.3662 16.9766 17.3662 17.3105C17.3662 17.6621 17.1025 17.9346 16.7598 17.9346H11.2578ZM11.2578 21.0459C10.8975 21.0459 10.6338 20.7822 10.6338 20.4395C10.6338 20.0879 10.8975 19.8154 11.2578 19.8154H16.7598C17.1025 19.8154 17.3662 20.0879 17.3662 20.4395C17.3662 20.7822 17.1025 21.0459 16.7598 21.0459H11.2578Z" fill="#1C1C1E"/>
</svg>
