<svg width="28" height="28" viewBox="0 0 28 28" fill="none" xmlns="http://www.w3.org/2000/svg">
<path d="M7.59277 6.22754H20.3896V6.0957C20.3896 4.76855 19.3262 4.14453 17.8496 4.14453H10.1416C8.72656 4.14453 7.59277 4.76855 7.59277 6.0957V6.22754ZM9.28906 23.375H18.7021C19.959 23.375 20.583 22.8037 20.583 21.4941V20.0088H21.207C22.9912 20.0088 23.9668 19.0771 23.9668 17.2842V10.2178C23.9668 8.4248 22.9912 7.49316 21.207 7.49316H6.78418C5.06152 7.49316 4.02441 8.4248 4.02441 10.2178V17.2842C4.02441 19.0771 4.99121 20.0088 6.78418 20.0088H7.39941V21.4941C7.39941 22.8037 8.02344 23.375 9.28906 23.375ZM18.1748 10.543C18.1748 9.91895 18.7109 9.37402 19.3525 9.37402C19.9854 9.37402 20.5215 9.91895 20.5215 10.543C20.5215 11.1934 19.9854 11.7031 19.3525 11.7119C18.7109 11.7119 18.1748 11.1934 18.1748 10.543ZM9.86035 21.8457C9.43848 21.8457 9.22754 21.6436 9.22754 21.2129V14.8408C9.22754 14.4189 9.43848 14.2168 9.86035 14.2168H18.1309C18.5527 14.2168 18.7637 14.4189 18.7637 14.8408V21.2129C18.7637 21.6436 18.5527 21.8457 18.1396 21.8457H9.86035ZM11.3457 16.5195C11.7939 16.5195 12.1543 16.1592 12.1543 15.7109C12.1543 15.2627 11.7939 14.9111 11.3457 14.9111C10.8975 14.9111 10.5371 15.2627 10.5371 15.7109C10.5371 16.1592 10.8975 16.5195 11.3457 16.5195ZM16.6543 16.5195C17.1113 16.5195 17.4717 16.1592 17.4717 15.7109C17.4717 15.2627 17.1113 14.9111 16.6543 14.9111C16.2148 14.9111 15.8545 15.2627 15.8545 15.7109C15.8545 16.1592 16.2148 16.5195 16.6543 16.5195ZM11.3457 18.8574C11.7939 18.8574 12.1543 18.5059 12.1543 18.0488C12.1543 17.6006 11.7939 17.249 11.3457 17.249C10.8975 17.249 10.5371 17.6006 10.5371 18.0488C10.5371 18.5059 10.8975 18.8574 11.3457 18.8574ZM16.6543 18.8574C17.1113 18.8574 17.4717 18.5059 17.4717 18.0488C17.4717 17.6006 17.1113 17.249 16.6543 17.249C16.2148 17.249 15.8545 17.6006 15.8545 18.0488C15.8545 18.5059 16.2148 18.8574 16.6543 18.8574ZM11.3457 21.1953C11.7939 21.1953 12.1543 20.8438 12.1543 20.3867C12.1543 19.9385 11.7939 19.5869 11.3457 19.5869C10.8975 19.5869 10.5371 19.9385 10.5371 20.3867C10.5371 20.8438 10.8975 21.1953 11.3457 21.1953ZM16.6543 21.1953C17.1113 21.1953 17.4717 20.8438 17.4717 20.3867C17.4717 19.9385 17.1113 19.5869 16.6543 19.5869C16.2148 19.5869 15.8545 19.9385 15.8545 20.3867C15.8545 20.8438 16.2148 21.1953 16.6543 21.1953Z" fill="#1C1C1E"/>
</svg>
