<svg width="28" height="28" viewBox="0 0 28 28" fill="none" xmlns="http://www.w3.org/2000/svg">
<path d="M7.26758 16.4492C7.56641 16.4492 7.82129 16.335 8.01465 16.124L14 9.91895L19.9678 16.124C20.1611 16.335 20.4248 16.4492 20.7236 16.4492C21.3125 16.4492 21.7607 15.9834 21.7607 15.4033C21.7607 15.1309 21.6729 14.9111 21.4619 14.6826L14.7822 7.73047C14.624 7.55469 14.4307 7.44922 14.2197 7.40527H20.4863C21.0752 7.40527 21.4883 6.97461 21.4883 6.40332C21.4883 5.82324 21.0752 5.40137 20.4863 5.40137H7.49609C6.90723 5.40137 6.50293 5.83203 6.50293 6.40332C6.50293 6.97461 6.90723 7.40527 7.49609 7.40527H13.7715C13.5605 7.44922 13.376 7.55469 13.209 7.73926L6.5293 14.6738C6.30957 14.9023 6.23047 15.1309 6.23047 15.4033C6.23047 15.9834 6.67871 16.4492 7.26758 16.4492Z" fill="#1C1C1E"/>
</svg>
