<svg width="28" height="28" viewBox="0 0 28 28" fill="none" xmlns="http://www.w3.org/2000/svg">
<path d="M1.04492 13.6455C1.04492 15.4824 2.3457 16.4844 3.7959 16.4844C4.40234 16.4844 4.85938 16.3174 5.39551 15.9834C5.91406 15.6758 6.27441 15.8604 6.27441 16.2998V19.4727C6.27441 21.292 7.25 22.2412 9.08691 22.2412H11.3457C11.7852 22.2412 11.9697 21.8721 11.6621 21.3623C11.3281 20.8262 11.1523 20.3604 11.1523 19.7627C11.1523 18.3037 12.1631 17.0029 14 17.0029C15.8369 17.0029 16.8477 18.3037 16.8477 19.7627C16.8477 20.3604 16.6719 20.8262 16.3467 21.3623C16.0303 21.8721 16.2148 22.2412 16.6631 22.2412H18.9131C20.7588 22.2412 21.7256 21.292 21.7256 19.4727V16.2998C21.7256 15.8604 22.0859 15.6758 22.6045 15.9834C23.1406 16.3174 23.5977 16.4844 24.2041 16.4844C25.6631 16.4844 26.9551 15.4824 26.9551 13.6455C26.9551 11.8086 25.6631 10.7979 24.2041 10.7979C23.5977 10.7979 23.1406 10.9648 22.6045 11.2988C22.0859 11.6064 21.7256 11.4307 21.7256 10.9824V7.81836C21.7256 5.99902 20.7588 5.0498 18.9131 5.0498H16.6631C16.2148 5.0498 16.0303 5.41895 16.3467 5.92871C16.6719 6.46484 16.8477 6.93066 16.8477 7.52832C16.8477 8.9873 15.8369 10.2881 14 10.2881C12.1631 10.2881 11.1523 8.9873 11.1523 7.52832C11.1523 6.93066 11.3281 6.46484 11.6621 5.92871C11.9697 5.41895 11.7852 5.0498 11.3457 5.0498H9.08691C7.25 5.0498 6.27441 5.99902 6.27441 7.81836V10.9824C6.27441 11.4307 5.91406 11.6064 5.39551 11.2988C4.85938 10.9648 4.40234 10.7979 3.7959 10.7979C2.3457 10.7979 1.04492 11.8086 1.04492 13.6455Z" fill="#1C1C1E"/>
</svg>
