<svg width="28" height="28" viewBox="0 0 28 28" fill="none" xmlns="http://www.w3.org/2000/svg">
<path d="M9.06055 22.2588H11.9697C12.7607 22.2588 13.2881 21.7314 13.2881 21.0547C13.2881 20.668 13.1387 20.3164 12.8398 19.9736C12.4883 19.5605 12.2422 19.1123 12.2422 18.6025C12.2422 17.6445 12.9277 16.8799 14 16.8799C15.0723 16.8799 15.7578 17.6445 15.7578 18.6025C15.7578 19.1123 15.5205 19.5605 15.1602 19.9736C14.8613 20.3164 14.7119 20.668 14.7119 21.0547C14.7119 21.7314 15.2393 22.2588 16.0303 22.2588H18.9395C20.7324 22.2588 21.7256 21.292 21.7256 19.5166V16.5898C21.7256 16.4492 21.8223 16.3789 21.9893 16.4844C22.499 16.8359 23.1055 17.0732 23.7998 17.0732C25.5049 17.0732 27.0605 15.7285 27.0605 13.6719C27.0605 11.6152 25.5049 10.2617 23.7998 10.2617C23.1055 10.2617 22.499 10.5078 21.9893 10.8506C21.8223 10.9561 21.7256 10.8945 21.7256 10.7451V7.76562C21.7256 5.99023 20.7324 5.02344 18.9395 5.02344H16.0303C15.2393 5.02344 14.7119 5.55078 14.7119 6.23633C14.7119 6.61426 14.8613 6.96582 15.1602 7.30859C15.5205 7.72168 15.7578 8.16992 15.7578 8.67969C15.7578 9.62891 15.0635 10.4023 14 10.4023C12.9453 10.4023 12.2422 9.62891 12.2422 8.67969C12.2422 8.16992 12.4883 7.72168 12.8398 7.30859C13.1387 6.96582 13.2881 6.61426 13.2881 6.23633C13.2881 5.55078 12.7607 5.02344 11.9697 5.02344H9.06055C7.26758 5.02344 6.27441 5.99023 6.27441 7.76562V10.7451C6.27441 10.8945 6.17773 10.9561 6.01953 10.8506C5.50098 10.5078 4.89453 10.2617 4.2002 10.2617C2.49512 10.2617 0.939453 11.6152 0.939453 13.6719C0.939453 15.7285 2.49512 17.0732 4.2002 17.0732C4.89453 17.0732 5.50098 16.8359 6.01953 16.4844C6.17773 16.3789 6.27441 16.4492 6.27441 16.5898V19.5166C6.27441 21.292 7.26758 22.2588 9.06055 22.2588ZM9.08691 20.5889C8.375 20.5889 7.94434 20.1846 7.94434 19.4463V15.7021C7.94434 14.9111 7.41699 14.3838 6.74023 14.3838C6.35352 14.3838 6.00195 14.5332 5.65918 14.832C5.24609 15.1836 4.79785 15.4297 4.28809 15.4297C3.33887 15.4297 2.56543 14.7266 2.56543 13.6719C2.56543 12.6084 3.33887 11.9141 4.28809 11.9141C4.79785 11.9141 5.24609 12.1514 5.65918 12.5117C6.00195 12.8018 6.35352 12.96 6.74023 12.96C7.41699 12.96 7.94434 12.4326 7.94434 11.6416V7.83594C7.94434 7.10645 8.375 6.69336 9.08691 6.69336H10.9502C11.3281 6.69336 11.2139 6.87793 11.1172 7.05371C10.8184 7.56348 10.5986 8.12598 10.5986 8.76758C10.5986 10.4727 11.9434 12.0283 14 12.0283C16.0566 12.0283 17.4102 10.4727 17.4102 8.76758C17.4102 8.12598 17.1816 7.56348 16.8828 7.05371C16.7861 6.87793 16.6719 6.69336 17.0498 6.69336H18.9131C19.625 6.69336 20.0557 7.10645 20.0557 7.83594V11.6416C20.0557 12.4326 20.583 12.96 21.2686 12.96C21.6465 12.96 21.998 12.8018 22.3408 12.5117C22.7539 12.1514 23.2021 11.9141 23.7119 11.9141C24.6611 11.9141 25.4434 12.6084 25.4434 13.6719C25.4434 14.7266 24.6611 15.4297 23.7119 15.4297C23.2021 15.4297 22.7539 15.1836 22.3408 14.832C21.998 14.5332 21.6465 14.3838 21.2686 14.3838C20.583 14.3838 20.0557 14.9111 20.0557 15.7021V19.4463C20.0557 20.1846 19.625 20.5889 18.9131 20.5889H17.0498C16.6719 20.5889 16.7861 20.4043 16.8828 20.2285C17.1816 19.7188 17.4102 19.1562 17.4102 18.5146C17.4102 16.8008 16.0742 15.2539 14 15.2539C11.9346 15.2539 10.5986 16.8008 10.5986 18.5146C10.5986 19.1562 10.8184 19.7188 11.1172 20.2285C11.2139 20.4043 11.3281 20.5889 10.9502 20.5889H9.08691Z" fill="#1C1C1E"/>
</svg>
