<svg width="28" height="28" viewBox="0 0 28 28" fill="none" xmlns="http://www.w3.org/2000/svg">
<path d="M3.46191 19.5166C3.46191 21.2832 4.44629 22.25 6.24805 22.25H17.085C18.8779 22.25 19.8623 21.2832 19.8623 19.5166V16.5723C19.8623 16.4316 19.959 16.3613 20.126 16.4668C20.6445 16.8184 21.251 17.0645 21.9453 17.0645C23.6504 17.0645 25.2061 15.7197 25.2061 13.6719C25.2061 11.624 23.6504 10.2705 21.9453 10.2705C21.251 10.2705 20.6445 10.5166 20.126 10.8682C19.959 10.9736 19.8623 10.9121 19.8623 10.7627V7.76562C19.8623 5.99902 18.8779 5.03223 17.085 5.03223H6.24805C4.44629 5.03223 3.46191 5.99902 3.46191 7.76562V11.6416C3.46191 12.4326 3.98926 12.9336 4.66602 12.9336C5.04395 12.9336 5.39551 12.7842 5.73828 12.4854C6.15137 12.125 6.6084 11.8877 7.10938 11.8877C8.06738 11.8877 8.84961 12.582 8.84961 13.6543C8.84961 14.7178 8.06738 15.4209 7.10938 15.4209C6.6084 15.4209 6.15137 15.1748 5.73828 14.8145C5.39551 14.5244 5.04395 14.3662 4.66602 14.3662C3.98926 14.3662 3.46191 14.8672 3.46191 15.6582V19.5166ZM5.11426 19.4375V16.6602C5.11426 16.291 5.30762 16.4141 5.47461 16.5195C5.97559 16.8271 6.53809 17.0469 7.19727 17.0469C8.89355 17.0469 10.4492 15.6934 10.4492 13.6543C10.4492 11.6064 8.89355 10.2529 7.19727 10.2529C6.53809 10.2529 5.97559 10.4814 5.47461 10.7891C5.30762 10.8945 5.11426 11.0176 5.11426 10.6396V7.84473C5.11426 7.09766 5.54492 6.68457 6.26562 6.68457H17.0586C17.7793 6.68457 18.2188 7.09766 18.2188 7.84473V11.6416C18.2188 12.4326 18.7373 12.9512 19.4141 12.9512C19.792 12.9512 20.1436 12.8018 20.4863 12.5029C20.8994 12.1426 21.3564 11.9053 21.8662 11.9053C22.8154 11.9053 23.5977 12.6084 23.5977 13.6719C23.5977 14.7354 22.8154 15.4385 21.8662 15.4385C21.3564 15.4385 20.8994 15.2012 20.4863 14.8408C20.1436 14.542 19.792 14.3838 19.4141 14.3838C18.7373 14.3838 18.2188 14.9111 18.2188 15.7021V19.4375C18.2188 20.1846 17.7793 20.6064 17.0586 20.6064H6.26562C5.54492 20.6064 5.11426 20.1846 5.11426 19.4375Z" fill="#1C1C1E"/>
</svg>
