<svg width="28" height="28" viewBox="0 0 28 28" fill="none" xmlns="http://www.w3.org/2000/svg">
<path d="M13.9912 22.7422C18.9746 22.7422 23.0879 18.6289 23.0879 13.6543C23.0879 8.67969 18.9658 4.56641 13.9824 4.56641C9.00781 4.56641 4.90332 8.67969 4.90332 13.6543C4.90332 18.6289 9.0166 22.7422 13.9912 22.7422ZM13.9912 20.9316C9.95703 20.9316 6.73145 17.6885 6.73145 13.6543C6.73145 9.62012 9.95703 6.38574 13.9824 6.38574C18.0166 6.38574 21.2598 9.62012 21.2686 13.6543C21.2773 17.6885 18.0254 20.9316 13.9912 20.9316ZM13.9912 17.7676C14.457 17.7676 14.8965 17.6885 15.2832 17.5479L15.8018 18.251C15.9951 18.5322 16.1885 18.6377 16.4521 18.6377C16.8213 18.6377 17.085 18.3828 17.085 18.0312C17.085 17.8467 17.0322 17.7148 16.8564 17.4863L16.4258 16.9062C17.2959 16.1855 17.8232 15.0254 17.8232 13.5928C17.8232 11.1055 16.2324 9.42676 13.9912 9.42676C11.7412 9.42676 10.1592 11.1055 10.1592 13.5928C10.1592 16.0889 11.7412 17.7676 13.9912 17.7676ZM13.9912 16.4229C12.6992 16.4229 11.8467 15.333 11.8467 13.5928C11.8467 11.8613 12.6992 10.7715 13.9912 10.7715C15.2744 10.7715 16.127 11.8613 16.127 13.5928C16.127 14.4805 15.8896 15.2012 15.4678 15.667L15.0459 15.1133C14.9316 14.9639 14.8086 14.9023 14.6152 14.9023C14.3252 14.9023 14.0703 15.1221 14.0703 15.4209C14.0703 15.5703 14.123 15.6934 14.2285 15.8428L14.5889 16.335C14.4043 16.3877 14.2021 16.4229 13.9912 16.4229Z" fill="#1C1C1E"/>
</svg>
