<svg width="28" height="28" viewBox="0 0 28 28" fill="none" xmlns="http://www.w3.org/2000/svg">
<path d="M13.9912 22.7422C18.9746 22.7422 23.0879 18.6289 23.0879 13.6543C23.0879 8.67969 18.9658 4.56641 13.9824 4.56641C9.00781 4.56641 4.90332 8.67969 4.90332 13.6543C4.90332 18.6289 9.0166 22.7422 13.9912 22.7422ZM13.7803 15.4648C13.209 15.4648 12.8926 15.2012 12.8926 14.6738V14.5771C12.8926 13.751 13.3672 13.2852 14.0176 12.8281C14.791 12.292 15.1689 12.002 15.1689 11.4395C15.1689 10.833 14.7031 10.4287 13.9824 10.4287C13.4551 10.4287 13.0684 10.6924 12.7783 11.1406C12.4971 11.457 12.3652 11.7295 11.8379 11.7295C11.4072 11.7295 11.0557 11.4482 11.0557 11.0088C11.0557 10.833 11.0908 10.6748 11.1523 10.5166C11.4424 9.65527 12.4971 8.95215 14.0703 8.95215C15.7051 8.95215 17.085 9.82227 17.085 11.3516C17.085 12.4062 16.5049 12.9336 15.5908 13.5225C15.0107 13.9004 14.6768 14.2168 14.6504 14.6914C14.6504 14.7178 14.6416 14.7617 14.6416 14.7969C14.6152 15.1748 14.29 15.4648 13.7803 15.4648ZM13.7715 18.2773C13.1738 18.2773 12.6816 17.8467 12.6816 17.2666C12.6816 16.6865 13.165 16.2559 13.7715 16.2559C14.3691 16.2559 14.8525 16.6865 14.8525 17.2666C14.8525 17.8555 14.3604 18.2773 13.7715 18.2773Z" fill="#1C1C1E"/>
</svg>
