<svg width="28" height="28" viewBox="0 0 28 28" fill="none" xmlns="http://www.w3.org/2000/svg">
<path d="M6.81055 21.7666H21.3916C23.0879 21.7666 24.0723 20.7822 24.0723 18.9014V9.85742C24.0723 7.97656 23.0791 6.99219 21.1807 6.99219H13.0332C12.4004 6.99219 12.0225 6.85156 11.5303 6.44727L11.0381 6.04297C10.4141 5.5332 9.95703 5.36621 9.03418 5.36621H6.54688C4.89453 5.36621 3.91895 6.33301 3.91895 8.1875V18.9014C3.91895 20.791 4.91211 21.7666 6.81055 21.7666ZM13.8242 16.0098C13.2969 16.0098 12.998 15.7637 12.998 15.2715V15.1836C12.998 14.4277 13.4375 13.9971 14.0352 13.5752C14.7559 13.0742 15.1074 12.8018 15.1074 12.292C15.1074 11.7295 14.6768 11.3516 14.0088 11.3516C13.5166 11.3516 13.165 11.5889 12.8926 12.0107C12.6289 12.3008 12.5146 12.5557 12.0225 12.5557C11.627 12.5557 11.3018 12.292 11.3018 11.8877C11.3018 11.7295 11.3369 11.5801 11.3896 11.4395C11.6533 10.6396 12.6377 9.98926 14.0879 9.98926C15.5996 9.98926 16.874 10.7891 16.874 12.2041C16.874 13.1797 16.3379 13.6719 15.5029 14.208C14.958 14.5684 14.6504 14.8584 14.624 15.2891C14.624 15.3242 14.624 15.3594 14.6152 15.3945C14.5977 15.7461 14.29 16.0098 13.8242 16.0098ZM13.8066 18.6113C13.2617 18.6113 12.8047 18.2158 12.8047 17.6797C12.8047 17.1436 13.2529 16.7393 13.8066 16.7393C14.3691 16.7393 14.8086 17.1436 14.8086 17.6797C14.8086 18.2246 14.3604 18.6113 13.8066 18.6113Z" fill="#1C1C1E"/>
</svg>
