<svg width="28" height="28" viewBox="0 0 28 28" fill="none" xmlns="http://www.w3.org/2000/svg">
<path d="M11.75 7.2207H16.2412V5.49805H11.75V7.2207ZM6.87207 6.5791C6.01074 7.44043 5.7998 8.5918 5.7998 10.0596V10.1299H7.52246V10.0156C7.52246 9.14551 7.64551 8.31934 8.12012 7.83594C8.60352 7.35254 9.45605 7.22949 10.335 7.22949H10.4668V5.50684H10.3789C8.91113 5.50684 7.7334 5.71777 6.87207 6.5791ZM21.1191 6.5791C20.2578 5.71777 19.0801 5.50684 17.5947 5.50684H17.5156V7.22949H17.6738C18.5352 7.22949 19.3789 7.36133 19.8623 7.83594C20.3457 8.31934 20.4688 9.14551 20.4688 9.99805V10.1299H22.1826V10.0771C22.1826 8.5918 21.9805 7.43164 21.1191 6.5791ZM13.8066 15.4033C14.29 15.4033 14.5977 15.1309 14.6152 14.7705C14.624 14.7354 14.624 14.6914 14.624 14.665C14.6504 14.208 14.958 13.9004 15.5293 13.5312C16.3994 12.96 16.9619 12.459 16.9619 11.4395C16.9619 9.97168 15.6436 9.13672 14.0879 9.13672C12.5762 9.13672 11.5566 9.82227 11.2842 10.6484C11.2314 10.7979 11.2051 10.9473 11.2051 11.1055C11.2051 11.5273 11.5303 11.791 11.8906 11.791C12.207 11.791 12.4268 11.6592 12.6025 11.4219L12.7344 11.2461C13.0332 10.7627 13.4551 10.5078 13.9824 10.5078C14.6943 10.5078 15.1689 10.9297 15.1689 11.5273C15.1689 12.0811 14.7998 12.3535 14.0527 12.8721C13.4287 13.3027 12.9805 13.7598 12.9805 14.5596V14.6562C12.9805 15.1484 13.2705 15.4033 13.8066 15.4033ZM20.4688 15.9219H22.1914V11.4131H20.4688V15.9219ZM5.7998 15.9219H7.52246V11.4131H5.7998V15.9219ZM13.7891 18.1016C14.3516 18.1016 14.8174 17.6885 14.8174 17.1348C14.8174 16.5811 14.3604 16.1768 13.7891 16.1768C13.2266 16.1768 12.7607 16.5898 12.7607 17.1348C12.7607 17.6885 13.2354 18.1016 13.7891 18.1016ZM21.1191 20.7559C21.9805 19.8945 22.1826 18.7432 22.1826 17.2578V17.1963H20.4688V17.3369C20.4688 18.1895 20.3369 19.0156 19.8623 19.4902C19.3789 19.9736 18.5352 20.1055 17.6738 20.1055H17.5156V21.8281H17.5947C19.0801 21.8281 20.2578 21.6172 21.1191 20.7559ZM6.86328 20.7559C7.7334 21.6172 8.91113 21.8281 10.3965 21.8281H10.4668V20.1055H10.3086C9.44727 20.1055 8.6123 19.9736 8.12891 19.4902C7.64551 19.0156 7.52246 18.1895 7.52246 17.3369V17.1963H5.7998V17.2578C5.7998 18.7432 6.01074 19.9033 6.86328 20.7559ZM11.75 21.8281H16.2412V20.1055H11.75V21.8281Z" fill="#1C1C1E"/>
</svg>
