<svg width="28" height="28" viewBox="0 0 28 28" fill="none" xmlns="http://www.w3.org/2000/svg">
<path d="M8.67383 21.8809H19.3174C21.2246 21.8809 22.209 20.8965 22.209 19.0156V8.31934C22.209 6.43848 21.2246 5.4541 19.3174 5.4541H8.67383C6.77539 5.4541 5.78223 6.42969 5.78223 8.31934V19.0156C5.78223 20.8965 6.77539 21.8809 8.67383 21.8809ZM13.8154 15.4648C13.2441 15.4648 12.9277 15.2012 12.9277 14.6738V14.5771C12.9277 13.751 13.4023 13.2852 14.0527 12.8281C14.8262 12.292 15.2041 12.002 15.2041 11.4395C15.2041 10.833 14.7383 10.4287 14.0264 10.4287C13.4902 10.4287 13.1123 10.6924 12.8135 11.1406C12.5322 11.457 12.4092 11.7295 11.873 11.7295C11.4424 11.7295 11.0908 11.4482 11.0908 11.0088C11.0908 10.833 11.126 10.6748 11.1875 10.5166C11.4775 9.65527 12.5322 8.95215 14.1055 8.95215C15.7402 8.95215 17.1201 9.82227 17.1201 11.3516C17.1201 12.4062 16.54 12.9336 15.626 13.5225C15.0459 13.9004 14.7119 14.2168 14.6855 14.6914C14.6855 14.7178 14.6768 14.7617 14.6768 14.7969C14.6504 15.1748 14.3252 15.4648 13.8154 15.4648ZM13.8066 18.2773C13.209 18.2773 12.7168 17.8467 12.7168 17.2666C12.7168 16.6865 13.2002 16.2559 13.8066 16.2559C14.4043 16.2559 14.8877 16.6865 14.8877 17.2666C14.8877 17.8555 14.3955 18.2773 13.8066 18.2773Z" fill="#1C1C1E"/>
</svg>
