<svg width="28" height="28" viewBox="0 0 28 28" fill="none" xmlns="http://www.w3.org/2000/svg">
<path d="M13.0859 15.5352C13.0859 13.127 11.3545 11.2637 9.0957 11.2637C8.01465 11.2637 7.03027 11.668 6.30957 12.4766H6.02832C6.50293 10.8682 8.04102 9.46191 10.0449 8.9082C10.3262 8.82031 10.5371 8.74121 10.6602 8.61816C10.8096 8.49512 10.8887 8.33691 10.8887 8.11719C10.8887 7.72168 10.5723 7.44043 10.124 7.44043C9.78125 7.44043 9.53516 7.50195 9.0957 7.64258C7.90918 8.03809 6.82812 8.72363 5.97559 9.62012C4.75391 10.8857 4.04199 12.5732 4.04199 14.5244C4.04199 17.917 6.17773 19.877 8.74414 19.877C11.2227 19.877 13.0859 18.0137 13.0859 15.5352ZM23.9492 15.5352C23.9492 13.127 22.209 11.2637 19.959 11.2637C18.8779 11.2637 17.8848 11.668 17.1729 12.4766H16.8828C17.3662 10.8682 18.8955 9.46191 20.8994 8.9082C21.1807 8.82031 21.4004 8.74121 21.5234 8.61816C21.6729 8.49512 21.7432 8.33691 21.7432 8.11719C21.7432 7.72168 21.4355 7.44043 20.9873 7.44043C20.6357 7.44043 20.3984 7.50195 19.9502 7.64258C18.7725 8.03809 17.6826 8.72363 16.8301 9.62012C15.6172 10.8857 14.9053 12.5732 14.9053 14.5244C14.9053 17.917 17.041 19.877 19.5986 19.877C22.0859 19.877 23.9492 18.0137 23.9492 15.5352Z" fill="#1C1C1E"/>
</svg>
