<svg width="28" height="28" viewBox="0 0 28 28" fill="none" xmlns="http://www.w3.org/2000/svg">
<path d="M4.04199 11.7822C4.04199 14.1904 5.77344 16.0537 8.02344 16.0537C9.11328 16.0537 10.1064 15.6494 10.8096 14.8408H11.1084C10.625 16.4492 9.0957 17.8643 7.0918 18.4092C6.81055 18.4971 6.59082 18.5762 6.46777 18.708C6.31836 18.8223 6.24805 18.9893 6.24805 19.2002C6.24805 19.5957 6.55566 19.877 6.99512 19.877C7.34668 19.877 7.58398 19.8154 8.03223 19.6748C9.21875 19.2793 10.3086 18.5938 11.1611 17.7061C12.374 16.4316 13.0859 14.7441 13.0859 12.793C13.0859 9.40039 10.9502 7.44043 8.38379 7.44043C5.90527 7.44043 4.04199 9.30371 4.04199 11.7822ZM14.9053 11.7822C14.9053 14.1904 16.6367 16.0537 18.8867 16.0537C19.9766 16.0537 20.9521 15.6494 21.6729 14.8408H21.9629C21.4883 16.4492 19.9502 17.8643 17.9463 18.4092C17.665 18.4971 17.4541 18.5762 17.3311 18.708C17.1816 18.8223 17.1025 18.9893 17.1025 19.2002C17.1025 19.5957 17.4189 19.877 17.8672 19.877C18.2012 19.877 18.4473 19.8154 18.8867 19.6748C20.0732 19.2793 21.1631 18.5938 22.0156 17.7061C23.2373 16.4316 23.9492 14.7441 23.9492 12.793C23.9492 9.40039 21.8135 7.44043 19.2471 7.44043C16.7598 7.44043 14.9053 9.30371 14.9053 11.7822Z" fill="#1C1C1E"/>
</svg>
