<svg width="28" height="28" viewBox="0 0 28 28" fill="none" xmlns="http://www.w3.org/2000/svg">
<path d="M14 2.29883C7.72461 2.29883 2.64453 7.3877 2.64453 13.6543C2.64453 18.6201 5.84375 22.8477 10.2822 24.377C10.168 23.8057 10.3174 23.2344 10.6689 22.8125C6.91602 21.459 4.23535 17.873 4.23535 13.6543C4.23535 8.2666 8.6123 3.89844 14 3.89844C19.3789 3.89844 23.7559 8.2666 23.7559 13.6543C23.7559 17.8643 21.084 21.4502 17.3398 22.8125C17.6914 23.2256 17.8408 23.7969 17.7266 24.3682C22.1562 22.8301 25.3467 18.6113 25.3467 13.6543C25.3467 7.3877 20.2578 2.29883 14 2.29883ZM14 5.8584C9.69336 5.8584 6.2041 9.34766 6.2041 13.6543C6.2041 17.9521 9.69336 21.4502 14 21.4502C18.2979 21.4502 21.7871 17.9521 21.7871 13.6543C21.7871 9.34766 18.2979 5.8584 14 5.8584ZM11.7412 17.6357C11.2314 17.6357 10.9502 17.2842 10.9502 16.7393V10.6133C10.9502 10.0332 11.2402 9.66406 11.8027 9.66406H14.2461C16.0654 9.66406 17.1816 10.6396 17.1816 12.2217C17.1816 13.2939 16.54 14.1816 15.5469 14.5068L16.7598 16.3789C16.8828 16.5723 16.9355 16.7305 16.9355 16.9414C16.9355 17.3545 16.6279 17.6357 16.1973 17.6357C15.8369 17.6357 15.6436 17.4863 15.3887 17.082L13.9736 14.7705H12.5498V16.7393C12.5498 17.293 12.2598 17.6357 11.7412 17.6357ZM12.5498 13.5928H14.0176C14.9492 13.5928 15.5469 13.1094 15.5469 12.2568C15.5469 11.3867 14.9404 10.8857 14.0439 10.8857H12.5498V13.5928ZM11.7061 24.5352L13.5166 26.9609C13.7627 27.2949 14.2285 27.2861 14.4834 26.9609L16.3027 24.5352C16.6807 24.043 16.4785 23.4102 15.8105 23.4102H12.1807C11.5479 23.4102 11.3193 24.0254 11.7061 24.5352Z" fill="#1C1C1E"/>
</svg>
