<svg width="28" height="28" viewBox="0 0 28 28" fill="none" xmlns="http://www.w3.org/2000/svg">
<path d="M11.7061 2.76465C11.3193 3.27441 11.5479 3.89844 12.1807 3.89844H15.8105C16.4785 3.89844 16.6807 3.26562 16.3027 2.76465L14.4834 0.347656C14.2285 0.0136719 13.7627 0.0136719 13.5166 0.347656L11.7061 2.76465ZM14 25.001C20.2578 25.001 25.3467 19.9209 25.3467 13.6543C25.3467 8.69727 22.1562 4.47852 17.7266 2.93164C17.8408 3.51172 17.6914 4.08301 17.3398 4.49609C21.084 5.8584 23.7559 9.44434 23.7559 13.6543C23.7559 19.042 19.3789 23.4102 14 23.4102C8.6123 23.4102 4.23535 19.0332 4.23535 13.6543C4.23535 9.43555 6.91602 5.84961 10.6689 4.49609C10.3174 4.07422 10.168 3.50293 10.2822 2.93164C5.84375 4.46094 2.64453 8.68848 2.64453 13.6543C2.64453 19.9209 7.72461 25.001 14 25.001ZM14 21.4502C18.2979 21.4502 21.7871 17.9521 21.7871 13.6543C21.7871 9.34766 18.2979 5.8584 14 5.8584C9.69336 5.8584 6.2041 9.34766 6.2041 13.6543C6.2041 17.9521 9.69336 21.4502 14 21.4502ZM14 19.7803C10.6162 19.7803 7.86523 17.0381 7.86523 13.6543C7.86523 10.2705 10.6162 7.52832 14 7.52832C17.375 7.52832 20.126 10.2705 20.126 13.6543C20.126 17.0381 17.375 19.7803 14 19.7803ZM11.8818 17.4072C12.374 17.4072 12.6465 17.0996 12.6465 16.5723V14.709H14L15.3359 16.8975C15.5732 17.2754 15.7666 17.4072 16.0918 17.4072C16.5049 17.4072 16.7949 17.1436 16.7949 16.7656C16.7949 16.5635 16.7422 16.4141 16.6191 16.2383L15.4678 14.4629C16.4082 14.1553 17.0234 13.3115 17.0234 12.292C17.0234 10.8066 15.96 9.88379 14.2461 9.88379H11.9434C11.416 9.88379 11.1436 10.2266 11.1436 10.7627V16.5723C11.1436 17.082 11.4072 17.4072 11.8818 17.4072ZM12.6465 13.6016V11.0264H14.0615C14.9141 11.0264 15.4854 11.501 15.4854 12.3271C15.4854 13.1357 14.9229 13.6016 14.0264 13.6016H12.6465Z" fill="#1C1C1E"/>
</svg>
