<svg width="28" height="28" viewBox="0 0 28 28" fill="none" xmlns="http://www.w3.org/2000/svg">
<path d="M13.5078 5.46289C13.7627 5.80566 14.2285 5.79688 14.4746 5.46289L16.3027 3.03711C16.6807 2.54492 16.4785 1.91211 15.8105 1.91211H12.1719C11.5303 1.91211 11.3018 2.52734 11.6885 3.03711L13.5078 5.46289ZM13.9912 18.6025C19.6777 18.6025 23.3164 16.0801 23.3164 12.5557C23.3164 9.03125 19.6689 6.50879 13.9824 6.50879C8.31348 6.50879 4.6748 9.03125 4.6748 12.5557C4.6748 16.0801 8.31348 18.6025 13.9912 18.6025ZM13.9912 16.8359C9.55273 16.8359 6.57324 15.1045 6.57324 12.5557C6.57324 10.0068 9.55273 8.27539 13.9824 8.27539C18.4297 8.27539 21.418 10.0068 21.418 12.5557C21.418 15.1045 18.4385 16.8359 13.9912 16.8359ZM12.5586 15.2188C12.9365 15.2188 13.1738 14.9551 13.1738 14.542V13.3203H13.9736L14.8965 14.8232C15.0898 15.1221 15.248 15.2275 15.5029 15.2275C15.8281 15.2275 16.083 15.0078 16.083 14.6826C16.083 14.5244 16.0391 14.4014 15.9512 14.2695L15.1865 13.1094C15.8369 12.8633 16.2324 12.2656 16.2324 11.5625C16.2324 10.4727 15.4502 9.7959 14.2197 9.7959H12.6025C12.1895 9.7959 11.9521 10.0596 11.9521 10.5166V14.542C11.9521 14.9639 12.1807 15.2188 12.5586 15.2188ZM13.1738 12.3711V10.7627H14.0703C14.6328 10.7627 14.9756 11.0791 14.9756 11.5801C14.9756 12.0811 14.6416 12.3711 14.0615 12.3711H13.1738ZM13.9912 22.5488C16.2676 22.5488 17.6475 21.4854 17.6475 19.6748V19.376C16.5312 19.6221 15.3096 19.7539 13.9912 19.7539C12.6816 19.7539 11.46 19.6221 10.3438 19.376V19.6748C10.3438 21.4854 11.7236 22.5488 13.9912 22.5488Z" fill="#1C1C1E"/>
</svg>
