<svg width="28" height="28" viewBox="0 0 28 28" fill="none" xmlns="http://www.w3.org/2000/svg">
<path d="M13.9999 2.29883C9.03407 2.29883 4.80653 5.49805 3.27723 9.93652C3.84852 9.83105 4.41981 9.97168 4.84169 10.3232C6.1952 6.5791 9.78114 3.89844 13.9999 3.89844C19.3876 3.89844 23.7645 8.2666 23.7645 13.6543C23.7645 19.0332 19.3876 23.4102 13.9999 23.4102C9.79872 23.4102 6.20399 20.7383 4.84169 16.9941C4.4286 17.3457 3.85731 17.4951 3.28602 17.3809C4.82411 21.8193 9.04286 25.001 13.9999 25.001C20.2665 25.001 25.3554 19.9209 25.3554 13.6543C25.3554 7.3877 20.2665 2.29883 13.9999 2.29883ZM13.9999 21.4502C18.3065 21.4502 21.7958 17.9521 21.7958 13.6543C21.7958 9.34766 18.3065 5.8584 13.9999 5.8584C9.70204 5.8584 6.20399 9.34766 6.20399 13.6543C6.20399 17.9521 9.70204 21.4502 13.9999 21.4502ZM13.9999 19.7803C10.6161 19.7803 7.87391 17.0381 7.87391 13.6543C7.87391 10.2705 10.6161 7.52832 13.9999 7.52832C17.3837 7.52832 20.1259 10.2705 20.1259 13.6543C20.1259 17.0381 17.3837 19.7803 13.9999 19.7803ZM11.8905 17.4072C12.3827 17.4072 12.6552 17.0996 12.6552 16.5723V14.709H14.0087L15.3446 16.8975C15.5819 17.2754 15.7753 17.4072 16.1005 17.4072C16.5136 17.4072 16.8036 17.1436 16.8036 16.7656C16.8036 16.5635 16.7509 16.4141 16.6278 16.2383L15.4765 14.4629C16.4169 14.1553 17.0321 13.3115 17.0321 12.292C17.0321 10.8066 15.9686 9.88379 14.2548 9.88379H11.952C11.4247 9.88379 11.1522 10.2266 11.1522 10.7627V16.5723C11.1522 17.082 11.4159 17.4072 11.8905 17.4072ZM12.6552 13.6016V11.0264H14.0702C14.9227 11.0264 15.494 11.501 15.494 12.3271C15.494 13.1357 14.9315 13.6016 14.035 13.6016H12.6552ZM3.11903 11.3604L0.693248 13.1709C0.359264 13.4258 0.368053 13.8916 0.693248 14.1377L3.11903 15.957C3.61122 16.335 4.24403 16.1328 4.24403 15.4736V11.835C4.24403 11.2021 3.6288 10.9736 3.11903 11.3604Z" fill="#1C1C1E"/>
</svg>
