<svg width="28" height="28" viewBox="0 0 28 28" fill="none" xmlns="http://www.w3.org/2000/svg">
<path d="M11.7588 3.07227L13.5693 5.48926C13.8242 5.82324 14.29 5.82324 14.5361 5.48926L16.3555 3.07227C16.7334 2.57129 16.5312 1.94727 15.8721 1.94727H12.2334C11.6006 1.94727 11.3721 2.5625 11.7588 3.07227ZM14 18.374C19.7744 18.374 23.2373 15.7725 23.2373 12.5557C23.2373 9.33887 19.7744 6.74609 13.9912 6.74609C8.22559 6.74609 4.7627 9.33887 4.7627 12.5557C4.7627 15.7725 8.22559 18.374 14 18.374ZM12.5234 15.3857C12.1191 15.3857 11.8643 15.1045 11.8643 14.6562V10.4023C11.8643 9.91895 12.1279 9.62891 12.5762 9.62891H14.2812C15.5996 9.62891 16.4258 10.3496 16.4258 11.5098C16.4258 12.2568 16.0039 12.8809 15.3184 13.1445L16.127 14.375C16.2236 14.5156 16.2676 14.6475 16.2676 14.8145C16.2676 15.166 15.9951 15.4033 15.6523 15.4033C15.3711 15.4033 15.1953 15.2803 15.002 14.9639L14.0264 13.3818H13.1826V14.6562C13.1826 15.1045 12.9277 15.3857 12.5234 15.3857ZM13.1826 12.3711H14.1143C14.7295 12.3711 15.0723 12.0635 15.0723 11.5361C15.0723 11 14.7207 10.6748 14.1318 10.6748H13.1826V12.3711ZM14 22.5225C16.2588 22.5225 17.6299 21.459 17.6299 19.666V19.2881C16.5049 19.5254 15.292 19.6572 14 19.6572C12.708 19.6572 11.4951 19.5254 10.3701 19.2881V19.666C10.3701 21.459 11.7412 22.5225 14 22.5225Z" fill="#1C1C1E"/>
</svg>
