<svg width="28" height="28" viewBox="0 0 28 28" fill="none" xmlns="http://www.w3.org/2000/svg">
<path d="M11.6973 3.07227L13.5078 5.48926C13.7627 5.82324 14.2285 5.82324 14.4746 5.48926L16.2939 3.07227C16.6719 2.57129 16.4697 1.94727 15.8105 1.94727H12.1719C11.5391 1.94727 11.3105 2.5625 11.6973 3.07227ZM14 18.6025C19.6602 18.6025 23.29 16.0889 23.29 12.5557C23.29 9.03125 19.6514 6.52637 13.9824 6.52637C8.33984 6.52637 4.70117 9.03125 4.70117 12.5557C4.70117 16.0889 8.33984 18.6025 14 18.6025ZM14 16.8535C9.55273 16.8535 6.57324 15.1221 6.57324 12.5557C6.57324 9.99805 9.55273 8.2666 13.9824 8.2666C18.4297 8.2666 21.4268 9.99805 21.4268 12.5557C21.4268 15.1221 18.4385 16.8535 14 16.8535ZM12.5586 15.2188C12.9365 15.2188 13.165 14.9639 13.165 14.542V13.3203H13.9736L14.9053 14.832C15.0898 15.1221 15.2393 15.2275 15.5029 15.2275C15.8193 15.2275 16.0742 15.0078 16.0742 14.6914C16.0742 14.5332 16.0303 14.4102 15.9336 14.2783L15.1777 13.1094C15.8193 12.8633 16.2148 12.2744 16.2148 11.5625C16.2148 10.4814 15.4414 9.80469 14.2109 9.80469H12.5938C12.1982 9.80469 11.9521 10.0684 11.9521 10.5078V14.542C11.9521 14.9639 12.1895 15.2188 12.5586 15.2188ZM13.165 12.3887V10.7627H14.0703C14.6328 10.7627 14.9756 11.0791 14.9756 11.5889C14.9756 12.0898 14.6416 12.3887 14.0527 12.3887H13.165ZM14 22.5225C16.2588 22.5225 17.6211 21.459 17.6211 19.666V19.3584C16.5137 19.6045 15.3008 19.7363 14 19.7363C12.6904 19.7363 11.4775 19.6045 10.3701 19.3584V19.666C10.3701 21.459 11.7324 22.5225 14 22.5225Z" fill="#1C1C1E"/>
</svg>
