<svg width="28" height="28" viewBox="0 0 28 28" fill="none" xmlns="http://www.w3.org/2000/svg">
<path d="M11.7061 2.76465C11.3193 3.27441 11.5479 3.89844 12.1807 3.89844H15.8105C16.4785 3.89844 16.6807 3.26562 16.3027 2.76465L14.4834 0.347656C14.2285 0.0136719 13.7627 0.0136719 13.5166 0.347656L11.7061 2.76465ZM14 25.001C20.2578 25.001 25.3467 19.9209 25.3467 13.6543C25.3467 8.69727 22.1562 4.47852 17.7266 2.93164C17.8408 3.51172 17.6914 4.08301 17.3398 4.49609C21.084 5.8584 23.7559 9.44434 23.7559 13.6543C23.7559 19.042 19.3789 23.4102 14 23.4102C8.6123 23.4102 4.23535 19.0332 4.23535 13.6543C4.23535 9.43555 6.91602 5.84961 10.6689 4.49609C10.3174 4.07422 10.168 3.50293 10.2822 2.93164C5.84375 4.46094 2.64453 8.68848 2.64453 13.6543C2.64453 19.9209 7.72461 25.001 14 25.001ZM14 21.4502C18.2979 21.4502 21.7871 17.9521 21.7871 13.6543C21.7871 9.34766 18.2979 5.8584 14 5.8584C9.69336 5.8584 6.2041 9.34766 6.2041 13.6543C6.2041 17.9521 9.69336 21.4502 14 21.4502ZM11.7412 17.6357C11.2314 17.6357 10.9502 17.2842 10.9502 16.7393V10.6133C10.9502 10.0332 11.2402 9.66406 11.8027 9.66406H14.2461C16.0654 9.66406 17.1816 10.6396 17.1816 12.2217C17.1816 13.2939 16.54 14.1816 15.5469 14.5068L16.7598 16.3789C16.8828 16.5723 16.9355 16.7305 16.9355 16.9414C16.9355 17.3545 16.6279 17.6357 16.1973 17.6357C15.8369 17.6357 15.6436 17.4863 15.3887 17.082L13.9736 14.7705H12.5498V16.7393C12.5498 17.293 12.2598 17.6357 11.7412 17.6357ZM12.5498 13.5928H14.0176C14.9492 13.5928 15.5469 13.1094 15.5469 12.2568C15.5469 11.3867 14.9404 10.8857 14.0439 10.8857H12.5498V13.5928Z" fill="#1C1C1E"/>
</svg>
