<svg width="28" height="28" viewBox="0 0 28 28" fill="none" xmlns="http://www.w3.org/2000/svg">
<path d="M14 2.29883C7.7334 2.29883 2.65332 7.3877 2.65332 13.6543C2.65332 19.9209 7.7334 25.001 14 25.001C18.957 25.001 23.1758 21.8193 24.7227 17.3809C24.1514 17.4951 23.5713 17.3457 23.1582 16.9941C21.7959 20.7383 18.21 23.4102 14 23.4102C8.6123 23.4102 4.24414 19.0332 4.24414 13.6543C4.24414 8.2666 8.62109 3.89844 14 3.89844C18.2188 3.89844 21.8047 6.5791 23.1582 10.3232C23.5801 9.97168 24.1514 9.83105 24.7227 9.93652C23.1934 5.49805 18.9658 2.29883 14 2.29883ZM14 21.4502C18.3066 21.4502 21.7959 17.9521 21.7959 13.6543C21.7959 9.34766 18.3066 5.8584 14 5.8584C9.70215 5.8584 6.2041 9.34766 6.2041 13.6543C6.2041 17.9521 9.70215 21.4502 14 21.4502ZM11.75 17.6357C11.2402 17.6357 10.959 17.2842 10.959 16.7393V10.6133C10.959 10.0332 11.249 9.66406 11.8115 9.66406H14.2549C16.0742 9.66406 17.1904 10.6396 17.1904 12.2217C17.1904 13.2939 16.5488 14.1816 15.5557 14.5068L16.7686 16.3789C16.8916 16.5723 16.9443 16.7305 16.9443 16.9414C16.9443 17.3545 16.6367 17.6357 16.2061 17.6357C15.8457 17.6357 15.6523 17.4863 15.3975 17.082L13.9824 14.7705H12.5586V16.7393C12.5586 17.293 12.2686 17.6357 11.75 17.6357ZM12.5586 13.5928H14.0264C14.958 13.5928 15.5557 13.1094 15.5557 12.2568C15.5557 11.3867 14.9492 10.8857 14.0527 10.8857H12.5586V13.5928ZM24.8896 11.3604C24.3799 10.9736 23.7646 11.2021 23.7646 11.835V15.4736C23.7646 16.1328 24.3887 16.335 24.8896 15.957L27.3066 14.1377C27.6406 13.8916 27.6406 13.4258 27.3066 13.1709L24.8896 11.3604Z" fill="#1C1C1E"/>
</svg>
