<svg width="28" height="28" viewBox="0 0 28 28" fill="none" xmlns="http://www.w3.org/2000/svg">
<path d="M16.1885 4.24121H7.36426C5.46582 4.24121 4.48145 5.2168 4.48145 7.09766V15.9746C4.48145 17.8555 5.46582 18.8311 7.36426 18.8311H16.1885C18.0869 18.8311 19.0713 17.8555 19.0713 15.9746V7.09766C19.0713 5.2168 18.0869 4.24121 16.1885 4.24121ZM9.41211 15.7285C8.87598 15.7285 8.57715 15.3594 8.57715 14.7793V8.33691C8.57715 7.72168 8.88477 7.33496 9.47363 7.33496H12.0488C13.9561 7.33496 15.1426 8.36328 15.1426 10.0244C15.1426 11.1582 14.4658 12.0986 13.4199 12.4414L14.6943 14.4102C14.8262 14.6123 14.8789 14.7705 14.8789 14.999C14.8789 15.4297 14.5625 15.7285 14.1055 15.7285C13.7275 15.7285 13.5166 15.5703 13.2529 15.1484L11.7676 12.7139H10.2646V14.7793C10.2646 15.3682 9.96582 15.7285 9.41211 15.7285ZM23.5186 11.2725C23.5186 9.40918 22.5518 8.41602 20.6357 8.41602H20.3545V15.9746C20.3545 18.5674 18.7988 20.1143 16.1885 20.1143H8.8584V20.2373C8.8584 22.1094 9.84277 23.085 11.7412 23.085H20.6357C22.5342 23.085 23.5186 22.1094 23.5186 20.2285V11.2725ZM10.2646 11.4746H11.8027C12.7959 11.4746 13.4199 10.9648 13.4199 10.0684C13.4199 9.14551 12.7871 8.61816 11.8379 8.61816H10.2646V11.4746Z" fill="#1C1C1E"/>
</svg>
