<svg width="28" height="28" viewBox="0 0 28 28" fill="none" xmlns="http://www.w3.org/2000/svg">
<path d="M10.8799 21.8809H17.1201C22.376 21.8809 24.6699 19.5166 24.6699 14.4717V8.31934C24.6699 6.43848 23.6768 5.4541 21.7783 5.4541H6.22168C4.32324 5.4541 3.33008 6.42969 3.33008 8.31934V14.4717C3.33008 19.5166 5.61523 21.8809 10.8799 21.8809ZM10.915 20.1143C6.8457 20.1143 5.0791 18.3477 5.0791 14.5332V8.47754C5.0791 7.64258 5.53613 7.20312 6.33594 7.20312H21.6641C22.4551 7.20312 22.9121 7.64258 22.9121 8.47754V14.5332C22.9121 18.3477 21.1543 20.1143 17.085 20.1143H10.915ZM18.7725 17.7236C19.291 17.7236 19.6074 17.4072 19.6074 16.8184V10.5254C19.6074 9.96289 19.2559 9.62012 18.7021 9.62012C18.3242 9.62012 18.0518 9.7168 17.6387 9.99805L16.1445 11.0088C15.9072 11.167 15.8105 11.334 15.8105 11.5889C15.8105 11.9141 16.0566 12.1865 16.3818 12.1865C16.5312 12.1865 16.6279 12.1602 16.8477 12.0195L17.8848 11.334H17.9463V16.8184C17.9463 17.4072 18.2627 17.7236 18.7725 17.7236ZM9.31543 17.6357C9.83398 17.6357 10.1152 17.3105 10.1152 16.7568V14.7881H11.5391L12.9453 17.0996C13.1914 17.4951 13.3936 17.6357 13.7451 17.6357C14.1758 17.6357 14.4834 17.3545 14.4834 16.959C14.4834 16.748 14.4219 16.5898 14.2988 16.4053L13.0859 14.5332C14.0791 14.208 14.7207 13.3203 14.7207 12.248C14.7207 10.6836 13.6045 9.70801 11.7939 9.70801H9.37695C8.81445 9.70801 8.52441 10.0684 8.52441 10.6484V16.7568C8.52441 17.293 8.80566 17.6357 9.31543 17.6357ZM10.1152 13.6191V10.9121H11.6006C12.5059 10.9121 13.1035 11.4131 13.1035 12.292C13.1035 13.1357 12.5146 13.6191 11.5742 13.6191H10.1152Z" fill="#1C1C1E"/>
</svg>
