<svg width="28" height="28" viewBox="0 0 28 28" fill="none" xmlns="http://www.w3.org/2000/svg">
<path d="M10.8799 21.8809H17.1201C22.376 21.8809 24.6699 19.5166 24.6699 14.4717V8.31934C24.6699 6.43848 23.6768 5.4541 21.7783 5.4541H6.22168C4.32324 5.4541 3.33008 6.42969 3.33008 8.31934V14.4717C3.33008 19.5166 5.61523 21.8809 10.8799 21.8809ZM18.9658 17.8906C18.4297 17.8906 18.1045 17.5566 18.1045 16.9414V11.2549H18.0342L16.9707 11.9668C16.7422 12.1162 16.6279 12.1426 16.4785 12.1426C16.1357 12.1426 15.8809 11.8525 15.8809 11.5186C15.8809 11.2373 15.9863 11.0703 16.2324 10.9033L17.7793 9.85742C18.21 9.56738 18.5 9.46191 18.8867 9.46191C19.4756 9.46191 19.8447 9.82227 19.8447 10.4111V16.9414C19.8447 17.5566 19.5107 17.8906 18.9658 17.8906ZM9.13086 17.8027C8.59473 17.8027 8.2959 17.4336 8.2959 16.8711V10.543C8.2959 9.93652 8.60352 9.5498 9.19238 9.5498H11.7061C13.5957 9.5498 14.7559 10.5693 14.7559 12.2041C14.7559 13.3115 14.0879 14.2344 13.0596 14.5684L14.3076 16.502C14.4482 16.7041 14.501 16.8623 14.501 17.082C14.501 17.5039 14.1846 17.8027 13.7275 17.8027C13.3672 17.8027 13.1475 17.6533 12.8838 17.2314L11.4336 14.8408H9.96582V16.8711C9.96582 17.4512 9.66699 17.8027 9.13086 17.8027ZM9.96582 13.6191H11.4688C12.4443 13.6191 13.0508 13.1094 13.0508 12.2393C13.0508 11.334 12.4355 10.8154 11.5039 10.8154H9.96582V13.6191Z" fill="#1C1C1E"/>
</svg>
