<svg width="28" height="28" viewBox="0 0 28 28" fill="none" xmlns="http://www.w3.org/2000/svg">
<path d="M10.8799 5.4541C5.61523 5.4541 3.33008 7.81836 3.33008 12.8545V19.0156C3.33008 20.8965 4.32324 21.8809 6.22168 21.8809H21.7783C23.6768 21.8809 24.6699 20.8965 24.6699 19.0156V12.8545C24.6699 7.81836 22.376 5.4541 17.1201 5.4541H10.8799ZM10.915 7.2207H17.085C21.1543 7.2207 22.9121 8.9873 22.9121 12.8018V18.8574C22.9121 19.6924 22.4551 20.1318 21.6641 20.1318H6.33594C5.53613 20.1318 5.0791 19.6924 5.0791 18.8574V12.8018C5.0791 8.9873 6.8457 7.2207 10.915 7.2207ZM15.7139 17.5391H20.0205C20.4424 17.5391 20.7236 17.2842 20.7236 16.8711C20.7236 16.4492 20.4424 16.2119 20.0205 16.2119H17.2607V16.1416L19.0977 14.2607C19.915 13.4346 20.4336 12.7578 20.4336 11.835C20.4336 10.499 19.3438 9.61133 17.6914 9.61133C16.417 9.61133 15.3096 10.332 15.0195 11.3164C14.9756 11.4482 14.958 11.5713 14.958 11.6943C14.958 12.0898 15.2393 12.3359 15.6436 12.3359C15.9951 12.3359 16.1709 12.1338 16.3379 11.8789C16.5664 11.4043 16.9619 10.9033 17.7178 10.9033C18.4385 10.9033 18.9219 11.3252 18.9219 11.958C18.9219 12.5293 18.4473 13.0127 17.9199 13.5488L15.292 16.2471C15.0811 16.458 15.002 16.6602 15.002 16.8799C15.002 17.2754 15.2744 17.5391 15.7139 17.5391ZM8.57715 17.6445C9.0957 17.6445 9.38574 17.3193 9.38574 16.7656V14.7969H10.8008L12.207 17.1084C12.4619 17.5127 12.6641 17.6445 13.0068 17.6445C13.4463 17.6445 13.7451 17.3721 13.7451 16.9678C13.7451 16.7568 13.6924 16.5986 13.5693 16.4141L12.3477 14.542C13.3496 14.2168 13.9912 13.3291 13.9912 12.2568C13.9912 10.6924 12.875 9.7168 11.0645 9.7168H8.63867C8.08496 9.7168 7.79492 10.0771 7.79492 10.6572V16.7656C7.79492 17.3018 8.06738 17.6445 8.57715 17.6445ZM9.38574 13.6279V10.9209H10.8623C11.7676 10.9209 12.3652 11.4219 12.3652 12.3008C12.3652 13.1445 11.7764 13.6279 10.8359 13.6279H9.38574Z" fill="#1C1C1E"/>
</svg>
