<svg width="28" height="28" viewBox="0 0 28 28" fill="none" xmlns="http://www.w3.org/2000/svg">
<path d="M6.45898 20.29C6.45898 22.1885 7.43457 23.1729 9.31543 23.1729H18.6758C20.5566 23.1729 21.5322 22.1885 21.5322 20.29V7.02734C21.5322 5.1377 20.5566 4.14453 18.6758 4.14453H9.31543C7.43457 4.14453 6.45898 5.1377 6.45898 7.02734V20.29ZM8.18164 20.1846V7.13281C8.18164 6.31543 8.60352 5.86719 9.45605 5.86719H18.5264C19.3789 5.86719 19.8096 6.31543 19.8096 7.13281V20.1846C19.8096 21.002 19.3789 21.4502 18.5264 21.4502H9.45605C8.60352 21.4502 8.18164 21.002 8.18164 20.1846ZM10.168 13.6543H13.2881C13.7891 13.6543 13.9912 13.4521 13.9912 12.96V7.84473C13.9912 7.35254 13.7891 7.15039 13.2881 7.15039H10.168C9.66699 7.15039 9.46484 7.35254 9.46484 7.84473V12.96C9.46484 13.4521 9.66699 13.6543 10.168 13.6543Z" fill="#1C1C1E"/>
</svg>
