<svg width="28" height="28" viewBox="0 0 28 28" fill="none" xmlns="http://www.w3.org/2000/svg">
<path d="M22.3848 23.0146C22.6572 23.2871 23.1055 23.2871 23.3779 23.0146C23.6416 22.7422 23.6504 22.3027 23.3779 22.0215L5.66797 4.32031C5.39551 4.04785 4.94727 4.04785 4.66602 4.32031C4.40234 4.58398 4.40234 5.0498 4.66602 5.31348L22.3848 23.0146ZM14.835 11.9492V7.17676H21.418C22.2266 7.17676 22.6836 7.60742 22.6836 8.45996V18.7695C22.6836 19.1035 22.5869 19.3584 22.4023 19.5166L23.8086 20.9141C24.2041 20.4746 24.4062 19.833 24.4062 19.0068V8.31055C24.4062 6.43848 23.4219 5.4541 21.5234 5.4541H8.33984L10.0625 7.17676H13.1475V10.2705L14.835 11.9492ZM6.46777 21.8721H19.6777L17.9375 20.1406H14.835V17.0293L13.1475 15.3418V20.1406H6.57324C5.75586 20.1406 5.30762 19.7188 5.30762 18.8662V8.54785C5.30762 8.20508 5.4043 7.9502 5.58887 7.7832L4.19141 6.40332C3.7959 6.84277 3.58496 7.47559 3.58496 8.31055V19.0068C3.58496 20.8877 4.56934 21.8721 6.46777 21.8721Z" fill="#1C1C1E"/>
</svg>
