<svg width="28" height="28" viewBox="0 0 28 28" fill="none" xmlns="http://www.w3.org/2000/svg">
<path d="M14.8525 11.9844V5.86719H18.5264C19.3789 5.86719 19.8096 6.31543 19.8096 7.13281V16.9414L21.5322 18.6641V7.02734C21.5322 5.1377 20.5566 4.14453 18.6758 4.14453H9.31543C8.55957 4.14453 7.96191 4.32031 7.53125 4.6543L8.95508 6.07812C9.0957 5.9375 9.30664 5.86719 9.58789 5.86719H13.1299V10.2617L14.8525 11.9844ZM21.7871 22.4346C22.0684 22.707 22.5078 22.707 22.7715 22.4346C23.0439 22.1533 23.0527 21.7139 22.7715 21.4326L6.22168 4.88281C5.94922 4.61035 5.50098 4.61035 5.21973 4.88281C4.95605 5.14648 4.95605 5.6123 5.21973 5.87598L21.7871 22.4346ZM9.31543 23.1729H18.6758C19.4229 23.1729 20.0205 23.0059 20.4512 22.6719L19.0361 21.248C18.8867 21.3799 18.6758 21.4502 18.4033 21.4502H14.8525V17.0645L13.1299 15.3418V21.4502H9.45605C8.60352 21.4502 8.18164 21.002 8.18164 20.1846V10.3936L6.45898 8.6709V20.29C6.45898 22.1885 7.43457 23.1729 9.31543 23.1729Z" fill="#1C1C1E"/>
</svg>
