<svg width="28" height="28" viewBox="0 0 28 28" fill="none" xmlns="http://www.w3.org/2000/svg">
<path d="M8.14648 18.4531H12.8662L14.9932 21.0195C17.252 23.7441 19.9326 24.5791 22.9033 23.498C26.5244 22.1797 28.0098 18.9541 26.5771 15.0078L25.874 13.0742C25.2324 11.3076 24.0371 10.4814 22.6221 10.7803V6.71973C22.6221 4.90039 21.6816 3.96875 19.8359 3.96875H8.14648C6.30957 3.96875 5.36914 4.8916 5.36914 6.71973V15.7021C5.36914 17.5303 6.30957 18.4531 8.14648 18.4531ZM22.4551 22.1182C20.1523 22.9531 18.043 22.4961 16.0566 20.1318L13.1035 16.6426C13.0244 16.5459 12.9629 16.4668 12.9189 16.335C12.8311 16.0801 12.9365 15.7988 13.2354 15.6934C13.4727 15.6055 13.6748 15.6934 13.8682 15.8955L15.9336 17.9697C16.2764 18.3213 16.5928 18.3564 16.9092 18.2422C17.2783 18.1104 17.4629 17.7148 17.3047 17.2842L14.2197 8.79395C14.1055 8.47754 14.2373 8.1875 14.5361 8.07324C14.8438 7.96777 15.125 8.1084 15.2393 8.41602L17.4189 14.4014C17.5332 14.7178 17.9023 14.876 18.2188 14.7529C18.5352 14.6387 18.7109 14.2959 18.5879 13.9707L17.8145 11.8525C17.9287 11.7471 18.0781 11.6504 18.2275 11.5977C18.5879 11.4658 18.9043 11.624 19.0361 12.002L19.7393 13.918C19.8623 14.252 20.2227 14.3926 20.5303 14.2783C20.8379 14.1641 21.0225 13.8301 20.8994 13.4961L20.3633 12.0107C20.4688 11.9053 20.6182 11.8086 20.7676 11.7559C21.1279 11.624 21.4443 11.7822 21.5762 12.1602L22.042 13.4346C22.165 13.7773 22.5342 13.9092 22.8506 13.7949C23.1582 13.6895 23.3428 13.3467 23.2197 13.0127L22.9121 12.1777C23.5801 11.9404 24.1865 12.459 24.6084 13.6191L25.2412 15.333C26.4189 18.585 25.3467 21.0635 22.4551 22.1182Z" fill="#1C1C1E"/>
</svg>
