<svg width="28" height="28" viewBox="0 0 28 28" fill="none" xmlns="http://www.w3.org/2000/svg">
<path d="M5.78223 18.5938H7.33789V19.9209C7.33789 21.8018 8.32227 22.7686 10.2207 22.7686H22.2178C24.1162 22.7686 25.1006 21.793 25.1006 19.9209V11.5713C25.1006 9.69043 24.1162 8.71484 22.2178 8.71484H20.583V7.39648C20.583 5.51562 19.5898 4.54004 17.7002 4.54004H5.78223C3.88379 4.54004 2.89941 5.51562 2.89941 7.39648V15.7461C2.89941 17.6182 3.88379 18.5938 5.78223 18.5938ZM5.8877 16.8711C5.07031 16.8711 4.62207 16.4492 4.62207 15.5967V7.53711C4.62207 6.68457 5.07031 6.2627 5.8877 6.2627H17.5947C18.4033 6.2627 18.8604 6.68457 18.8604 7.53711V8.71484H10.2207C8.32227 8.71484 7.33789 9.69043 7.33789 11.5713V16.8711H5.8877ZM10.3262 21.0547C9.50879 21.0547 9.06055 20.624 9.06055 19.7715V11.7207C9.06055 10.8682 9.50879 10.4375 10.3262 10.4375H22.1123C22.9209 10.4375 23.3779 10.8682 23.3779 11.7207V19.7715C23.3779 20.624 22.9209 21.0547 22.1123 21.0547H10.3262ZM11.0469 19.7715H21.4092C21.9102 19.7715 22.1035 19.5605 22.1035 19.0596V12.4326C22.1035 11.9229 21.9102 11.7207 21.4092 11.7207H11.0469C10.5459 11.7207 10.3525 11.9229 10.3525 12.4326V19.0596C10.3525 19.5605 10.5459 19.7715 11.0469 19.7715Z" fill="#1C1C1E"/>
</svg>
