<svg width="28" height="32" viewBox="0 0 28 32" fill="none" xmlns="http://www.w3.org/2000/svg">
<g filter="url(#filter0_d_610_1271)">
<path d="M9.52637 23.5068C9.88672 23.5068 10.168 23.3311 10.5986 22.9268L13.833 20.0088H19.5986C22.2441 20.0176 23.7295 18.4971 23.7295 15.8867V9.06641C23.7295 6.45605 22.2441 4.94434 19.5986 4.94434H8.39258C5.74707 4.94434 4.26172 6.45605 4.26172 9.06641V15.8867C4.26172 18.4971 5.78223 20.0088 8.33105 20.0088H8.68262V22.5576C8.68262 23.1289 8.99902 23.5068 9.52637 23.5068ZM8.90234 12.2568C8.19922 12.2568 7.85645 11.9229 7.85645 11.2373V9.53223C7.85645 8.83789 8.19922 8.50391 8.90234 8.50391H12.7344C13.4199 8.50391 13.7715 8.83789 13.7715 9.53223V11.2373C13.7715 11.9229 13.4199 12.2568 12.7344 12.2568H8.90234ZM16.2939 15.8691C15.5996 15.8691 15.2568 15.5439 15.2568 14.8408V10.1475C15.2568 9.46191 15.5996 9.11914 16.2939 9.11914H19.0186C19.7129 9.11914 20.0557 9.46191 20.0557 10.1475V14.8408C20.0557 15.5439 19.7129 15.8691 19.0186 15.8691H16.2939ZM9.93066 16.4316C9.23633 16.4316 8.89355 16.0977 8.89355 15.4033V14.252C8.89355 13.5664 9.23633 13.2236 9.93066 13.2236H13.2441C13.9385 13.2236 14.2725 13.5664 14.2725 14.252V15.4033C14.2725 16.0977 13.9385 16.4316 13.2441 16.4316H9.93066Z" fill="#1C1C1E"/>
</g>
<defs>
<filter id="filter0_d_610_1271" x="-4" y="0" width="36" height="36" filterUnits="userSpaceOnUse" color-interpolation-filters="sRGB">
<feFlood flood-opacity="0" result="BackgroundImageFix"/>
<feColorMatrix in="SourceAlpha" type="matrix" values="0 0 0 0 0 0 0 0 0 0 0 0 0 0 0 0 0 0 127 0" result="hardAlpha"/>
<feOffset dy="4"/>
<feGaussianBlur stdDeviation="2"/>
<feComposite in2="hardAlpha" operator="out"/>
<feColorMatrix type="matrix" values="0 0 0 0 0 0 0 0 0 0 0 0 0 0 0 0 0 0 0.25 0"/>
<feBlend mode="normal" in2="BackgroundImageFix" result="effect1_dropShadow_610_1271"/>
<feBlend mode="normal" in="SourceGraphic" in2="effect1_dropShadow_610_1271" result="shape"/>
</filter>
</defs>
</svg>
