<svg width="28" height="28" viewBox="0 0 28 28" fill="none" xmlns="http://www.w3.org/2000/svg">
<path d="M6.45898 20.29C6.45898 22.1885 7.43457 23.1729 9.31543 23.1729H18.6758C20.5566 23.1729 21.5322 22.1885 21.5322 20.29V7.02734C21.5322 5.1377 20.5566 4.14453 18.6758 4.14453H9.31543C7.43457 4.14453 6.45898 5.1377 6.45898 7.02734V20.29ZM8.18164 20.1846V7.13281C8.18164 6.31543 8.60352 5.86719 9.45605 5.86719H18.5264C19.3789 5.86719 19.8096 6.31543 19.8096 7.13281V20.1846C19.8096 21.002 19.3789 21.4502 18.5264 21.4502H9.45605C8.60352 21.4502 8.18164 21.002 8.18164 20.1846ZM10.7305 9.40918V17.9082C10.7305 18.4531 10.9678 18.6904 11.5215 18.6904H16.4609C17.0234 18.6904 17.2607 18.4531 17.2607 17.9082V9.40918C17.2607 8.86426 17.0234 8.62695 16.4609 8.62695H11.5215C10.9678 8.62695 10.7305 8.86426 10.7305 9.40918Z" fill="#1C1C1E"/>
</svg>
