<svg width="28" height="28" viewBox="0 0 28 28" fill="none" xmlns="http://www.w3.org/2000/svg">
<path d="M14 22.7334C18.9658 22.7334 23.0791 18.6289 23.0791 13.6543C23.0791 8.68848 18.9658 4.5752 13.9912 4.5752C9.02539 4.5752 4.9209 8.68848 4.9209 13.6543C4.9209 18.6289 9.03418 22.7334 14 22.7334ZM14 20.9492C9.95703 20.9492 6.71387 17.6973 6.71387 13.6543C6.71387 9.61133 9.94824 6.36816 13.9912 6.36816C18.0342 6.36816 21.2861 9.61133 21.2949 13.6543C21.2949 17.6973 18.043 20.9492 14 20.9492ZM10.3525 12.4414C10.3525 11.3428 10.9414 10.7539 12.0488 10.7539H17.085V10.6748C17.085 9.89258 16.6719 9.48828 15.8721 9.48828H10.1943C9.39453 9.48828 8.98145 9.89258 8.98145 10.6924V14.665C8.98145 15.4648 9.39453 15.8691 10.1855 15.8691H10.3525V12.4414ZM12.1016 17.7061H17.7793C18.5791 17.7061 18.9922 17.3018 18.9922 16.502V12.4941C18.9922 11.7119 18.5791 11.2988 17.7793 11.2988H12.1016C11.3018 11.2988 10.8887 11.7119 10.8887 12.4941V16.502C10.8887 17.3018 11.3018 17.7061 12.1016 17.7061Z" fill="#1C1C1E"/>
</svg>
