<svg width="28" height="28" viewBox="0 0 28 28" fill="none" xmlns="http://www.w3.org/2000/svg">
<path d="M6.45898 20.29C6.45898 22.1885 7.43457 23.1729 9.31543 23.1729H18.6758C20.5566 23.1729 21.5322 22.1885 21.5322 20.29V7.02734C21.5322 5.1377 20.5566 4.14453 18.6758 4.14453H9.31543C7.43457 4.14453 6.45898 5.1377 6.45898 7.02734V20.29ZM8.18164 20.1846V7.13281C8.18164 6.31543 8.60352 5.86719 9.45605 5.86719H18.5264C19.3789 5.86719 19.8096 6.31543 19.8096 7.13281V20.1846C19.8096 21.002 19.3789 21.4502 18.5264 21.4502H9.45605C8.60352 21.4502 8.18164 21.002 8.18164 20.1846ZM10.168 20.167H11.7764C12.2773 20.167 12.4795 19.9648 12.4795 19.4727V7.84473C12.4795 7.35254 12.2773 7.15039 11.7764 7.15039H10.168C9.66699 7.15039 9.46484 7.35254 9.46484 7.84473V19.4727C9.46484 19.9648 9.66699 20.167 10.168 20.167Z" fill="#1C1C1E"/>
</svg>
