<svg width="28" height="28" viewBox="0 0 28 28" fill="none" xmlns="http://www.w3.org/2000/svg">
<path d="M9.81641 23.4629C10.3174 23.4629 10.6865 23.2168 11.293 22.6807L14.3076 20.0264H19.5986C22.2441 20.0264 23.7295 18.4971 23.7295 15.8867V9.05762C23.7295 6.44727 22.2441 4.91797 19.5986 4.91797H8.39258C5.75586 4.91797 4.26172 6.44727 4.26172 9.05762V15.8867C4.26172 18.5059 5.7998 20.0264 8.33105 20.0264H8.69141V22.1797C8.69141 22.9619 9.10449 23.4629 9.81641 23.4629ZM10.2559 21.4941V18.9893C10.2559 18.4707 10.0273 18.2686 9.53516 18.2686H8.4541C6.80176 18.2686 6.01074 17.4336 6.01074 15.834V9.11035C6.01074 7.51074 6.80176 6.67578 8.4541 6.67578H19.5459C21.1895 6.67578 21.9805 7.51074 21.9805 9.11035V15.834C21.9805 17.4336 21.1895 18.2686 19.5459 18.2686H14.2109C13.6748 18.2686 13.4111 18.3564 13.042 18.7432L10.2559 21.4941ZM9.0957 12.2568H12.7783C13.4463 12.2568 13.7715 11.9404 13.7715 11.2725V9.62891C13.7715 8.96094 13.4463 8.65332 12.7783 8.65332H9.0957C8.42773 8.65332 8.09375 8.96094 8.09375 9.62891V11.2725C8.09375 11.9404 8.42773 12.2568 9.0957 12.2568ZM16.2061 15.7285H18.8252C19.4932 15.7285 19.8184 15.4121 19.8184 14.7441V10.2266C19.8184 9.55859 19.4932 9.24219 18.8252 9.24219H16.2061C15.5381 9.24219 15.2129 9.55859 15.2129 10.2266V14.7441C15.2129 15.4121 15.5381 15.7285 16.2061 15.7285ZM10.0889 16.2646H13.2705C13.9385 16.2646 14.2637 15.9482 14.2637 15.2803V14.1816C14.2637 13.5137 13.9385 13.1885 13.2705 13.1885H10.0889C9.4209 13.1885 9.08691 13.5137 9.08691 14.1816V15.2803C9.08691 15.9482 9.4209 16.2646 10.0889 16.2646Z" fill="#1C1C1E"/>
</svg>
