<svg width="28" height="28" viewBox="0 0 28 28" fill="none" xmlns="http://www.w3.org/2000/svg">
<path d="M9.32422 6.46484C10.001 5.97266 10.8711 5.70898 11.9082 5.70898H18.9307V5.39258C18.9131 3.52051 17.9463 2.55371 16.083 2.55371H7.7334C6.97754 2.55371 6.37988 2.7207 5.93164 3.06348L9.32422 6.46484ZM23.334 23.9902C23.6064 24.2627 24.0547 24.2715 24.3184 23.9902C24.5908 23.7178 24.5996 23.2783 24.3184 23.0059L4.66602 3.34473C4.39355 3.07227 3.94531 3.06348 3.66406 3.34473C3.40039 3.6084 3.40039 4.06543 3.66406 4.3291L23.334 23.9902ZM23.1143 20.2461V9.875C23.1143 7.97656 22.1387 6.99219 20.2578 6.99219H11.9082C11.2402 6.99219 10.6865 7.13281 10.2646 7.39648L23.1143 20.2461ZM4.87695 7.08887V17.3545C4.87695 19.2178 5.82617 20.2021 7.6543 20.2285H7.76855V10.4199C7.76855 10.2793 7.77734 10.1299 7.77734 9.98926L4.87695 7.08887ZM9.05176 11.2637V21.8721C9.05176 23.7705 10.0361 24.7549 11.9082 24.7549H20.2578C21.0137 24.7549 21.6113 24.5791 22.0332 24.2451L9.05176 11.2637Z" fill="#1C1C1E"/>
</svg>
