<svg width="28" height="28" viewBox="0 0 28 28" fill="none" xmlns="http://www.w3.org/2000/svg">
<path d="M10.8799 5.4541C5.61523 5.4541 3.33008 7.81836 3.33008 12.8545V19.0156C3.33008 20.8965 4.32324 21.8809 6.22168 21.8809H21.7783C23.6768 21.8809 24.6699 20.8965 24.6699 19.0156V12.8545C24.6699 7.81836 22.376 5.4541 17.1201 5.4541H10.8799ZM10.915 7.2207H17.085C21.1543 7.2207 22.9121 8.9873 22.9121 12.8018V18.8574C22.9121 19.6924 22.4551 20.1318 21.6641 20.1318H6.33594C5.53613 20.1318 5.0791 19.6924 5.0791 18.8574V12.8018C5.0791 8.9873 6.8457 7.2207 10.915 7.2207Z" fill="#1C1C1E"/>
</svg>
