<svg width="28" height="28" viewBox="0 0 28 28" fill="none" xmlns="http://www.w3.org/2000/svg">
<path d="M7.34668 4.4873C7.49609 4.34668 7.70703 4.27637 7.98828 4.27637H15.9336C16.7861 4.27637 17.208 4.72461 17.208 5.54199V6.99219H11.9082C11.2314 6.99219 10.6777 7.12402 10.2646 7.39648L11.7148 8.85547C11.8379 8.76758 11.9961 8.71484 12.207 8.71484H20.1084C20.9609 8.71484 21.3916 9.16309 21.3916 9.98047V18.5234L23.1143 20.2373V9.875C23.1143 7.97656 22.1387 6.99219 20.2578 6.99219H18.9307V5.43652C18.9307 3.53809 17.9639 2.55371 16.083 2.55371H7.7334C6.96875 2.55371 6.3623 2.72949 5.93164 3.07227L7.34668 4.4873ZM23.334 23.9902C23.6064 24.2627 24.0547 24.2715 24.3184 23.9902C24.5908 23.7178 24.5996 23.2783 24.3184 23.0059L4.66602 3.34473C4.39355 3.07227 3.94531 3.06348 3.66406 3.34473C3.40039 3.6084 3.40039 4.06543 3.66406 4.3291L23.334 23.9902ZM4.87695 7.08887V17.3545C4.87695 19.2441 5.85254 20.2373 7.7334 20.2373H9.05176V21.8721C9.05176 23.7705 10.0361 24.7549 11.9082 24.7549H20.2578C21.0049 24.7549 21.6025 24.5879 22.0332 24.2539L20.6182 22.8213C20.4775 22.9619 20.2754 23.0322 20.0029 23.0322H12.0576C11.2051 23.0322 10.7744 22.5752 10.7744 21.7666V12.9863L9.05176 11.2637V18.5146H7.87402C7.02148 18.5146 6.59961 18.0576 6.59961 17.249V8.81152L4.87695 7.08887Z" fill="#1C1C1E"/>
</svg>
