<svg width="28" height="28" viewBox="0 0 28 28" fill="none" xmlns="http://www.w3.org/2000/svg">
<path d="M6.45898 20.29C6.45898 22.1885 7.43457 23.1729 9.31543 23.1729H18.6758C20.5566 23.1729 21.5322 22.1885 21.5322 20.29V7.02734C21.5322 5.1377 20.5566 4.14453 18.6758 4.14453H9.31543C7.43457 4.14453 6.45898 5.1377 6.45898 7.02734V20.29ZM8.18164 20.1846V7.13281C8.18164 6.31543 8.60352 5.86719 9.45605 5.86719H18.5264C19.3789 5.86719 19.8096 6.31543 19.8096 7.13281V20.1846C19.8096 21.002 19.3789 21.4502 18.5264 21.4502H9.45605C8.60352 21.4502 8.18164 21.002 8.18164 20.1846ZM14.7031 20.167H17.8232C18.3242 20.167 18.5264 19.9648 18.5264 19.4727V14.3486C18.5264 13.8564 18.3242 13.6543 17.8232 13.6543H14.7031C14.2021 13.6543 13.9912 13.8564 13.9912 14.3486V19.4727C13.9912 19.9648 14.2021 20.167 14.7031 20.167Z" fill="#1C1C1E"/>
</svg>
