<svg width="28" height="28" viewBox="0 0 28 28" fill="none" xmlns="http://www.w3.org/2000/svg">
<path d="M6.46777 21.8633H21.5234C23.4219 21.8633 24.4062 20.8877 24.4062 19.0156V8.31055C24.4062 6.43848 23.4219 5.46289 21.5234 5.46289H6.46777C4.56934 5.46289 3.58496 6.42969 3.58496 8.31055V19.0156C3.58496 20.8877 4.56934 21.8633 6.46777 21.8633ZM6.57324 20.1406C5.75586 20.1406 5.30762 19.7188 5.30762 18.8662V8.45996C5.30762 7.60742 5.75586 7.17676 6.57324 7.17676H21.418C22.2266 7.17676 22.6836 7.60742 22.6836 8.45996V18.8662C22.6836 19.7188 22.2266 20.1406 21.418 20.1406H6.57324ZM18.21 18.8574H20.7061C21.1982 18.8574 21.4004 18.6553 21.4004 18.1543V9.17188C21.4004 8.6709 21.1982 8.45996 20.7061 8.45996H18.21C17.7178 8.45996 17.5156 8.6709 17.5156 9.17188V18.1543C17.5156 18.6553 17.7178 18.8574 18.21 18.8574Z" fill="#1C1C1E"/>
</svg>
