<svg width="28" height="28" viewBox="0 0 28 28" fill="none" xmlns="http://www.w3.org/2000/svg">
<path d="M5.29004 18.9189H6.9248V20.2461C6.9248 22.127 7.91797 23.1113 9.8252 23.1113H22.7012C24.5996 23.1113 25.6016 22.127 25.6016 20.2461V11.2725C25.6016 9.3916 24.5996 8.40723 22.7012 8.40723H21.0664V7.08887C21.0664 5.20801 20.0732 4.22363 18.1748 4.22363H5.29004C3.38281 4.22363 2.39844 5.20801 2.39844 7.08887V16.0537C2.39844 17.9434 3.38281 18.9189 5.29004 18.9189ZM5.4043 17.1699C4.5957 17.1699 4.14746 16.748 4.14746 15.8955V7.24707C4.14746 6.39453 4.5957 5.98145 5.4043 5.98145H18.0605C18.8604 5.98145 19.3174 6.39453 19.3174 7.24707V8.40723H9.8252C7.91797 8.40723 6.9248 9.3916 6.9248 11.2725V17.1699H5.4043ZM9.93945 21.3535C9.12207 21.3535 8.68262 20.9316 8.68262 20.0879V11.4307C8.68262 10.5869 9.12207 10.165 9.93945 10.165H22.5869C23.3955 10.165 23.8438 10.5869 23.8438 11.4307V20.0879C23.8438 20.9316 23.3955 21.3535 22.5869 21.3535H9.93945Z" fill="#1C1C1E"/>
</svg>
