<svg width="28" height="28" viewBox="0 0 28 28" fill="none" xmlns="http://www.w3.org/2000/svg">
<path d="M6.44141 23.1729H15.8018C17.6826 23.1729 18.6582 22.1885 18.6582 20.29V16.335H16.9355V20.1846C16.9355 21.002 16.5049 21.4502 15.6523 21.4502H6.58203C5.72949 21.4502 5.30762 21.002 5.30762 20.1846V7.13281C5.30762 6.31543 5.72949 5.86719 6.58203 5.86719H15.6523C16.5049 5.86719 16.9355 6.31543 16.9355 7.13281V10.9912H18.6582V7.02734C18.6582 5.1377 17.6826 4.14453 15.8018 4.14453H6.44141C4.56055 4.14453 3.58496 5.1377 3.58496 7.02734V20.29C3.58496 22.1885 4.56055 23.1729 6.44141 23.1729ZM12.1016 14.4629H20.9609L22.2617 14.4014L21.6201 14.9463L20.3105 16.1768C20.1523 16.3174 20.0645 16.5195 20.0645 16.7217C20.0645 17.1172 20.3633 17.4512 20.7676 17.4512C20.9785 17.4512 21.1367 17.3633 21.2861 17.2139L24.1338 14.2695C24.3359 14.0586 24.4062 13.8652 24.4062 13.6543C24.4062 13.4434 24.3359 13.25 24.1338 13.0391L21.2861 10.0859C21.1367 9.93652 20.9785 9.85742 20.7676 9.85742C20.3633 9.85742 20.0645 10.1738 20.0645 10.5781C20.0645 10.7715 20.1523 10.9824 20.3105 11.123L21.6201 12.3623L22.2705 12.9072L20.9609 12.8369H12.1016C11.6709 12.8369 11.3018 13.2061 11.3018 13.6543C11.3018 14.1025 11.6709 14.4629 12.1016 14.4629Z" fill="#1C1C1E"/>
</svg>
