<svg width="28" height="28" viewBox="0 0 28 28" fill="none" xmlns="http://www.w3.org/2000/svg">
<path d="M3.64648 13.3555H11.7236C13.1738 13.3555 13.9033 12.6348 13.9033 11.1934V7.53711C13.9033 6.0957 13.1738 5.375 11.7236 5.375H3.64648C2.19629 5.375 1.4668 6.0957 1.4668 7.53711V11.1934C1.4668 12.6348 2.19629 13.3555 3.64648 13.3555ZM18.7021 20.7471H24.3447C25.7949 20.7471 26.5244 20.0352 26.5244 18.585V8.85547C26.5244 7.41406 25.7949 6.70215 24.3447 6.70215H18.7021C17.2607 6.70215 16.5312 7.41406 16.5312 8.85547V18.585C16.5312 20.0352 17.2607 20.7471 18.7021 20.7471ZM3.85742 11.7031C3.37402 11.7031 3.11914 11.4482 3.11914 10.9473V7.7832C3.11914 7.27344 3.37402 7.02734 3.85742 7.02734H11.5039C11.9961 7.02734 12.251 7.27344 12.251 7.7832V10.9473C12.251 11.4482 11.9961 11.7031 11.5039 11.7031H3.85742ZM18.9131 19.1035C18.4385 19.1035 18.1748 18.8486 18.1748 18.3477V9.10156C18.1748 8.5918 18.4385 8.3457 18.9131 8.3457H24.125C24.6172 8.3457 24.8721 8.5918 24.8721 9.10156V18.3477C24.8721 18.8486 24.6172 19.1035 24.125 19.1035H18.9131ZM5.85254 21.8809H12.708C14.1494 21.8809 14.8877 21.1689 14.8877 19.7188V17.2402C14.8877 15.7988 14.1494 15.0869 12.708 15.0869H5.85254C4.40234 15.0869 3.67285 15.7988 3.67285 17.2402V19.7188C3.67285 21.1689 4.40234 21.8809 5.85254 21.8809ZM6.06348 20.2373C5.58008 20.2373 5.3252 19.9824 5.3252 19.4814V17.4863C5.3252 16.9854 5.58008 16.7393 6.06348 16.7393H12.4883C12.9717 16.7393 13.2354 16.9854 13.2354 17.4863V19.4814C13.2354 19.9824 12.9717 20.2373 12.4883 20.2373H6.06348Z" fill="#1C1C1E"/>
</svg>
