<svg width="28" height="28" viewBox="0 0 28 28" fill="none" xmlns="http://www.w3.org/2000/svg">
<path d="M26.5508 6.96577L27.2363 6.26264C27.5791 5.90229 27.5967 5.41011 27.2539 5.06733L27.0254 4.83003C26.7178 4.52241 26.208 4.56636 25.874 4.90034L25.1797 5.58589L26.5508 6.96577ZM16.5225 15.9306L18.377 15.1308L25.9092 7.60737L24.5293 6.24507L17.0059 13.7685L16.1709 15.5703C16.083 15.7812 16.3203 16.0185 16.5225 15.9306ZM3.0752 21.8632H21.418C23.0791 21.8632 24.002 20.958 24.002 19.3056V11.7734L22.2266 13.5488V19.1474C22.2266 19.833 21.8398 20.2197 21.1455 20.2197H3.33887C2.65332 20.2197 2.2666 19.833 2.2666 19.1474V11.8261C2.2666 11.1318 2.65332 10.7539 3.33887 10.7539H17.7441L19.3789 9.11909H3.0752C1.41406 9.11909 0.491211 10.0156 0.491211 11.6679V19.3056C0.491211 20.958 1.41406 21.8632 3.0752 21.8632ZM5.51855 16.8007C6.23926 16.8007 6.81934 16.2119 6.81934 15.4912C6.81934 14.7617 6.23926 14.1816 5.51855 14.1816C4.78906 14.1816 4.2002 14.7617 4.2002 15.4912C4.2002 16.2119 4.78906 16.8007 5.51855 16.8007ZM9.40332 16.8007C10.124 16.8007 10.7129 16.2119 10.7129 15.4912C10.7129 14.7617 10.124 14.1816 9.40332 14.1816C8.67383 14.1816 8.09375 14.7617 8.09375 15.4912C8.09375 16.2119 8.67383 16.8007 9.40332 16.8007ZM13.2881 16.8007C14.0088 16.8007 14.5977 16.2119 14.5977 15.4912C14.5977 14.7617 14.0088 14.1816 13.2881 14.1816C12.5674 14.1816 11.9785 14.7617 11.9785 15.4912C11.9785 16.2119 12.5674 16.8007 13.2881 16.8007Z" fill="#1C1C1E"/>
</svg>
