<svg width="28" height="28" viewBox="0 0 28 28" fill="none" xmlns="http://www.w3.org/2000/svg">
<path d="M6.46777 21.8633H21.5234C23.4219 21.8633 24.4062 20.8877 24.4062 19.0156V8.31055C24.4062 6.43848 23.4219 5.46289 21.5234 5.46289H6.46777C4.56934 5.46289 3.58496 6.42969 3.58496 8.31055V19.0156C3.58496 20.8877 4.56934 21.8633 6.46777 21.8633ZM6.57324 20.1406C5.75586 20.1406 5.30762 19.7188 5.30762 18.8662V8.45996C5.30762 7.60742 5.75586 7.17676 6.57324 7.17676H21.418C22.2266 7.17676 22.6836 7.60742 22.6836 8.45996V18.8662C22.6836 19.7188 22.2266 20.1406 21.418 20.1406H6.57324ZM7.28516 18.8574H13.3057C13.7979 18.8574 13.9912 18.6553 13.9912 18.1543V14.3662C13.9912 13.8652 13.7979 13.6543 13.3057 13.6543H7.28516C6.78418 13.6543 6.59082 13.8652 6.59082 14.3662V18.1543C6.59082 18.6553 6.78418 18.8574 7.28516 18.8574Z" fill="#1C1C1E"/>
</svg>
