<svg width="28" height="28" viewBox="0 0 28 28" fill="none" xmlns="http://www.w3.org/2000/svg">
<path d="M13.9912 22.7422C18.9746 22.7422 23.0879 18.6289 23.0879 13.6543C23.0879 8.67969 18.9658 4.56641 13.9824 4.56641C9.00781 4.56641 4.90332 8.67969 4.90332 13.6543C4.90332 18.6289 9.0166 22.7422 13.9912 22.7422ZM11.9873 13.918C11.9873 11.1318 12.6992 8.33691 14.0527 6.38574C17.8936 6.4209 20.9961 9.3916 21.251 13.1709C19.291 14.5332 16.4961 15.2539 13.7012 15.2539C13.1387 15.2539 12.585 15.2275 12.0312 15.1572C12.0049 14.7529 11.9873 14.3398 11.9873 13.918ZM10.291 13.918C10.291 14.2344 10.2998 14.542 10.3174 14.8584C8.96387 14.5332 7.72461 13.9971 6.74023 13.2588C6.90723 10.0771 9.07812 7.45801 12.0312 6.64941C10.8887 8.69727 10.291 11.3076 10.291 13.918ZM13.7012 16.9502C16.373 16.9502 19.0537 16.3262 21.1191 15.1221C20.4512 18.4443 17.5332 20.9141 14.0176 20.9316C13.1826 19.833 12.6113 18.4268 12.2861 16.8887C12.752 16.9238 13.2266 16.9502 13.7012 16.9502ZM6.90723 15.2627C7.9707 15.8955 9.20996 16.3438 10.5283 16.625C10.7832 18.084 11.249 19.4551 11.9346 20.6328C9.41211 19.8945 7.47852 17.8467 6.90723 15.2627Z" fill="#1C1C1E"/>
</svg>
