<svg width="28" height="28" viewBox="0 0 28 28" fill="none" xmlns="http://www.w3.org/2000/svg">
<path d="M14.9492 4.75092L17.2607 6.46479C17.7705 6.84272 18.3242 6.66694 18.3242 6.00776V4.91792H18.6143C20.4688 4.91792 21.6816 6.23628 21.6816 8.09077V9.47944C21.6816 9.831 21.9717 10.121 22.3232 10.121C22.6748 10.121 22.9648 9.831 22.9648 9.47944V8.08198C22.9648 5.48921 21.1895 3.71381 18.6055 3.71381H18.3242V2.58003C18.3242 1.90327 17.7793 1.72749 17.2607 2.11421L14.9492 3.83686C14.5713 4.10932 14.5713 4.46967 14.9492 4.75092ZM7.46094 21.872H16.1621C17.7617 21.872 18.5967 21.0634 18.5967 19.4374V10.7539C18.5967 9.12788 17.7617 8.31928 16.1621 8.31928H7.46094C5.86133 8.31928 5.02637 9.12788 5.02637 10.7539V19.4374C5.02637 21.0634 5.86133 21.872 7.46094 21.872ZM7.5752 20.1669C6.99512 20.1669 6.73145 19.9296 6.73145 19.332V10.8593C6.73145 10.2617 6.99512 10.0244 7.5752 10.0244H16.0479C16.6279 10.0244 16.8916 10.2617 16.8916 10.8593V19.332C16.8916 19.9296 16.6279 20.1669 16.0479 20.1669H7.5752Z" fill="#1C1C1E"/>
</svg>
