<svg width="28" height="28" viewBox="0 0 28 28" fill="none" xmlns="http://www.w3.org/2000/svg">
<path d="M10.8799 5.4541C5.61523 5.4541 3.33008 7.81836 3.33008 12.8545V19.0156C3.33008 20.8965 4.32324 21.8809 6.22168 21.8809H21.7783C23.6768 21.8809 24.6699 20.8965 24.6699 19.0156V12.8545C24.6699 7.81836 22.376 5.4541 17.1201 5.4541H10.8799ZM10.915 7.2207H17.085C21.1543 7.2207 22.9121 8.9873 22.9121 12.8018V18.8574C22.9121 19.6924 22.4551 20.1318 21.6641 20.1318H6.33594C5.53613 20.1318 5.0791 19.6924 5.0791 18.8574V12.8018C5.0791 8.9873 6.8457 7.2207 10.915 7.2207ZM17.7793 17.6445C18.333 17.6445 18.6406 17.2842 18.6406 16.7041V11.0703H20.5127C20.9346 11.0703 21.2158 10.8154 21.2158 10.3936C21.2158 9.97168 20.9346 9.7168 20.5127 9.7168H15.0811C14.668 9.7168 14.3779 9.97168 14.3779 10.3936C14.3779 10.8154 14.668 11.0703 15.0811 11.0703H16.9355V16.7041C16.9355 17.2754 17.2344 17.6445 17.7793 17.6445ZM8.24316 17.6445C8.76172 17.6445 9.04297 17.3193 9.04297 16.7656V14.7969H10.4668L11.873 17.1084C12.1279 17.5127 12.3301 17.6445 12.6729 17.6445C13.1123 17.6445 13.4111 17.3721 13.4111 16.9678C13.4111 16.7568 13.3584 16.5986 13.2354 16.4141L12.0137 14.542C13.0156 14.2168 13.6572 13.3291 13.6572 12.2656C13.6572 10.6924 12.541 9.72559 10.7305 9.72559H8.30469C7.75098 9.72559 7.46094 10.0771 7.46094 10.6572V16.7656C7.46094 17.3105 7.7334 17.6445 8.24316 17.6445ZM9.04297 13.6367V10.9297H10.5371C11.4336 10.9297 12.0312 11.4307 12.0312 12.3008C12.0312 13.1445 11.4424 13.6367 10.502 13.6367H9.04297Z" fill="#1C1C1E"/>
</svg>
