<svg width="28" height="28" viewBox="0 0 28 28" fill="none" xmlns="http://www.w3.org/2000/svg">
<path d="M13.9912 22.7422C18.9746 22.7422 23.0879 18.6289 23.0879 13.6543C23.0879 8.67969 18.9658 4.56641 13.9824 4.56641C9.00781 4.56641 4.90332 8.67969 4.90332 13.6543C4.90332 18.6289 9.0166 22.7422 13.9912 22.7422ZM13.9912 20.9316C9.95703 20.9316 6.73145 17.6885 6.73145 13.6543C6.73145 9.62012 9.95703 6.38574 13.9824 6.38574C18.0166 6.38574 21.2598 9.62012 21.2686 13.6543C21.2773 17.6885 18.0254 20.9316 13.9912 20.9316ZM12.5234 17.9873C12.9189 17.9873 13.1914 17.7148 13.1914 17.3105V16.5811H15.125C15.3799 16.5811 15.5381 16.4053 15.5381 16.1592C15.5381 15.9219 15.3799 15.7461 15.125 15.7461H13.1914V14.9023H14.5977C16.2324 14.9023 17.2871 13.8213 17.2871 12.3271C17.2871 10.8154 16.2588 9.73438 14.6328 9.73438H12.5234C12.1016 9.73438 11.8379 10.0068 11.8379 10.4463V14.0674H11.082C10.8271 14.0674 10.6689 14.2432 10.6689 14.4893C10.6689 14.7266 10.8271 14.9023 11.082 14.9023H11.8379V15.7461H11.0908C10.8359 15.7461 10.6777 15.9219 10.6777 16.1592C10.6777 16.4053 10.8359 16.5811 11.0908 16.5811H11.8379V17.3105C11.8379 17.7148 12.1191 17.9873 12.5234 17.9873ZM13.2002 13.7422V10.9297H14.3691C15.3887 10.9297 15.9248 11.4658 15.9248 12.3359C15.9248 13.2061 15.3799 13.7598 14.3691 13.7598L13.2002 13.7422Z" fill="#1C1C1E"/>
</svg>
