<svg width="28" height="28" viewBox="0 0 28 28" fill="none" xmlns="http://www.w3.org/2000/svg">
<path d="M25.0039 11.1934C25.0039 9.58496 24.1162 8.71484 22.499 8.71484H5.4834C3.85742 8.71484 2.9873 9.58496 2.9873 11.1934L2.99609 16.124C2.99609 17.7324 3.86621 18.6025 5.49219 18.6025H22.5078C24.125 18.6025 25.0039 17.7324 25.0039 16.124V11.1934ZM23.3252 11.4658V15.8516C23.3252 16.5547 22.9385 16.9326 22.2617 16.9326H5.71191C5.05273 16.9326 4.66602 16.5547 4.66602 15.8516V11.4658C4.66602 10.7627 5.05273 10.3848 5.7207 10.3848H5.76465V14.5508C5.76465 14.7705 5.94043 14.9375 6.16016 14.9375C6.38867 14.9287 6.54688 14.7705 6.54688 14.542V10.3848H7.3291V13.0918C7.3291 13.3115 7.51367 13.4785 7.72461 13.4697C7.96191 13.4697 8.11133 13.3115 8.11133 13.083L8.12012 10.3848H8.89355V13.0918C8.89355 13.3115 9.07812 13.4785 9.28906 13.4697C9.52637 13.4697 9.67578 13.3115 9.67578 13.083L9.68457 10.3848H10.458V13.0918C10.458 13.3115 10.6426 13.4785 10.8535 13.4697C11.082 13.4697 11.2402 13.3115 11.2402 13.083L11.249 10.3848H12.0312V13.0918C12.0312 13.3115 12.207 13.4785 12.4268 13.4697C12.6553 13.4697 12.8135 13.3115 12.8135 13.083L12.8223 10.3848H13.6045V14.5508C13.6045 14.7705 13.7803 14.9375 14 14.9375C14.2285 14.9287 14.3867 14.7705 14.3867 14.542L14.3955 10.3848H15.1689V13.0918C15.1689 13.3115 15.3447 13.4785 15.5645 13.4697C15.793 13.4697 15.9512 13.3115 15.9512 13.083V10.3848H16.7422V13.0918C16.7422 13.3115 16.918 13.4785 17.1289 13.4697C17.3662 13.4697 17.5156 13.3115 17.5156 13.083L17.5244 10.3848H18.2979V13.0918C18.2979 13.3115 18.4824 13.4785 18.6934 13.4697C18.9307 13.4697 19.0801 13.3115 19.0801 13.083L19.0889 10.3848H19.8711V13.0918C19.8711 13.3115 20.0469 13.4785 20.2666 13.4697C20.4951 13.4697 20.6533 13.3115 20.6533 13.083L20.6621 10.3848H21.4443V14.5508C21.4443 14.7705 21.6201 14.9375 21.8311 14.9375C22.0684 14.9287 22.2266 14.7705 22.2266 14.542V10.3848H22.2705C22.9385 10.3848 23.3252 10.7627 23.3252 11.4658Z" fill="#1C1C1E"/>
</svg>
