<svg width="28" height="28" viewBox="0 0 28 28" fill="none" xmlns="http://www.w3.org/2000/svg">
<path d="M8.67383 21.8809H19.3174C21.2246 21.8809 22.209 20.8965 22.209 19.0156V8.31934C22.209 6.43848 21.2246 5.4541 19.3174 5.4541H8.67383C6.77539 5.4541 5.78223 6.42969 5.78223 8.31934V19.0156C5.78223 20.8965 6.77539 21.8809 8.67383 21.8809ZM8.78809 20.1318C7.97949 20.1318 7.53125 19.71 7.53125 18.8574V8.47754C7.53125 7.625 7.97949 7.20312 8.78809 7.20312H19.2031C20.0029 7.20312 20.46 7.625 20.46 8.47754V18.8574C20.46 19.71 20.0029 20.1318 19.2031 20.1318H8.78809ZM11.3281 17.9697C11.6709 17.9697 11.8906 17.7236 11.8906 17.3369V14.6826H12.2246L13.1738 17.5479C13.2705 17.8467 13.4463 17.9697 13.7188 17.9697C14.0352 17.9697 14.2637 17.7324 14.2637 17.4072C14.2637 17.2842 14.2285 17.1523 14.1846 17.0205L13.2529 14.2959C13.9121 13.9355 14.29 13.0566 14.29 12.0459C14.29 10.4111 13.6221 9.59375 12.3213 9.59375H11.3545C10.9941 9.59375 10.7656 9.83984 10.7656 10.2617V17.3281C10.7656 17.7061 10.9766 17.9697 11.3281 17.9697ZM11.8906 13.4697V10.7188H12.2861C12.8838 10.7188 13.1475 11.1934 13.1475 12.0898C13.1475 12.9951 12.875 13.4697 12.2598 13.4697H11.8906ZM16.1885 17.9697C17.1816 17.9697 17.8232 17.2666 17.8232 16.1592C17.8232 15.3066 17.5156 14.7969 16.6631 14.3223L16.3379 14.1465C15.9072 13.9092 15.7227 13.6719 15.7227 13.2764C15.7227 12.8633 15.8809 12.6084 16.1797 12.6084C16.5312 12.6084 16.6367 12.8809 16.6719 13.3643C16.707 13.7158 16.874 13.9268 17.1992 13.9268C17.5332 13.9268 17.7354 13.707 17.7354 13.3291C17.7354 13.2324 17.7266 13.1533 17.7178 13.0566C17.6123 12.1953 17.085 11.5625 16.1885 11.5625C15.248 11.5625 14.6328 12.2656 14.6328 13.3291C14.6328 14.1729 14.9668 14.7266 15.793 15.166L16.127 15.3506C16.54 15.5615 16.707 15.834 16.707 16.2559C16.707 16.6953 16.5312 16.9414 16.1885 16.9414C15.8281 16.9414 15.6699 16.6514 15.6348 16.1855C15.5996 15.834 15.4326 15.6143 15.0986 15.6143C14.7646 15.6143 14.5625 15.8516 14.5625 16.2207C14.5625 16.3262 14.5625 16.4229 14.5801 16.5195C14.6855 17.3633 15.2744 17.9697 16.1885 17.9697Z" fill="#1C1C1E"/>
</svg>
