<svg width="28" height="28" viewBox="0 0 28 28" fill="none" xmlns="http://www.w3.org/2000/svg">
<path d="M13.9912 22.7422C18.9746 22.7422 23.0879 18.6289 23.0879 13.6543C23.0879 8.67969 18.9658 4.56641 13.9824 4.56641C9.00781 4.56641 4.90332 8.67969 4.90332 13.6543C4.90332 18.6289 9.0166 22.7422 13.9912 22.7422ZM13.9912 20.9316C9.95703 20.9316 6.73145 17.6885 6.73145 13.6543C6.73145 9.62012 9.95703 6.38574 13.9824 6.38574C18.0166 6.38574 21.2598 9.62012 21.2686 13.6543C21.2773 17.6885 18.0254 20.9316 13.9912 20.9316ZM11.3105 17.9697C11.6621 17.9697 11.873 17.7324 11.873 17.3457V14.6826H12.207L13.1562 17.5479C13.2529 17.8555 13.4375 17.9697 13.7012 17.9697C14.0264 17.9697 14.2461 17.7412 14.2461 17.416C14.2461 17.2842 14.2197 17.1611 14.167 17.0293L13.2354 14.2959C13.8945 13.9355 14.2725 13.0654 14.2725 12.0459C14.2725 10.4111 13.6133 9.60254 12.3125 9.60254H11.3369C10.9766 9.60254 10.7568 9.84863 10.7568 10.2705V17.3281C10.7568 17.7148 10.959 17.9697 11.3105 17.9697ZM11.873 13.4697V10.7188H12.2686C12.8662 10.7188 13.1299 11.1934 13.1299 12.0898C13.1299 13.0039 12.8662 13.4697 12.251 13.4697H11.873ZM16.1709 17.9785C17.1641 17.9785 17.8057 17.2754 17.8057 16.168C17.8057 15.3154 17.5068 14.8057 16.6543 14.3311L16.3291 14.1553C15.8984 13.918 15.7139 13.6807 15.7139 13.2852C15.7139 12.8721 15.8721 12.6172 16.1621 12.6172C16.5225 12.6172 16.6191 12.8896 16.6631 13.373C16.6895 13.7246 16.8564 13.9355 17.1904 13.9355C17.5244 13.9355 17.7178 13.707 17.7178 13.3379C17.7178 13.2412 17.709 13.1533 17.7002 13.0654C17.5947 12.2041 17.0674 11.5713 16.1709 11.5713C15.2393 11.5713 14.6152 12.2656 14.6152 13.3379C14.6152 14.1729 14.958 14.7354 15.7754 15.1748L16.1182 15.3594C16.5225 15.5703 16.6982 15.834 16.6982 16.2646C16.6982 16.7041 16.5137 16.9502 16.1709 16.9502C15.8193 16.9502 15.6611 16.6602 15.626 16.1855C15.5908 15.8428 15.415 15.623 15.0811 15.623C14.7471 15.623 14.5449 15.8604 14.5449 16.2295C14.5449 16.335 14.5537 16.4316 14.5625 16.5283C14.668 17.3721 15.2568 17.9785 16.1709 17.9785Z" fill="#1C1C1E"/>
</svg>
