<svg width="28" height="28" viewBox="0 0 28 28" fill="none" xmlns="http://www.w3.org/2000/svg">
<path d="M4.70117 19.9912C4.70117 20.3955 4.87695 20.7119 5.2373 20.9141L6.98633 21.9336C7.25879 22.0918 7.46973 22.1182 7.8125 21.9248L9.52637 20.9316C9.87793 20.7383 9.95703 20.5449 9.95703 20.2021L9.96582 19.0244L14.0264 16.9766L18.0342 18.998L18.043 20.2109C18.043 20.5537 18.1221 20.7471 18.4736 20.9404L20.1875 21.9336C20.5303 22.127 20.7412 22.1006 21.0137 21.9424L22.7627 20.9229C23.123 20.7207 23.2988 20.4043 23.2988 20L23.3164 17.9785C23.3164 17.6621 23.2461 17.4512 22.9033 17.2578L21.1719 16.2559C20.8379 16.0713 20.5918 16.1064 20.3193 16.2559L18.5527 17.2842C18.5264 17.3018 18.5 17.3105 18.4736 17.3369L14.8789 15.5264V10.6133L16.2852 9.80469C16.5752 9.6377 16.707 9.46191 16.707 9.06641V7.08008C16.707 6.68457 16.5752 6.51758 16.3027 6.35938L14.5361 5.34863C14.1758 5.14648 13.8242 5.14648 13.4727 5.34863L11.7061 6.35059C11.4424 6.50879 11.293 6.68457 11.293 7.08008V9.06641C11.293 9.45312 11.4424 9.64648 11.7236 9.80469L13.1826 10.6396V15.5264L9.56152 17.3457C9.51758 17.3193 9.48242 17.293 9.44727 17.2754L7.68066 16.2471C7.4082 16.0977 7.16211 16.0625 6.82812 16.2471L5.09668 17.249C4.75391 17.4424 4.68359 17.6533 4.68359 17.9697L4.70117 19.9912Z" fill="#1C1C1E"/>
</svg>
