<svg width="28" height="28" viewBox="0 0 28 28" fill="none" xmlns="http://www.w3.org/2000/svg">
<path d="M3.56738 19.1211C3.56738 21.0107 4.56055 21.9863 6.45898 21.9863H21.541C23.4395 21.9863 24.4326 21.002 24.4326 19.1211V16.0889C24.4326 15.4648 24.2305 14.7705 23.7559 14.2607L20.4512 10.7451C20.2227 10.5078 20.0117 10.2969 19.792 10.1123C19.9678 9.98047 20.1436 9.81348 20.3369 9.61133L23.1143 6.80762C23.6328 6.28906 23.3428 5.33984 22.4814 5.33984H5.51855C4.65723 5.33984 4.37598 6.28906 4.89453 6.80762L7.66309 9.61133C7.86523 9.80469 8.04102 9.97168 8.20801 10.1123C7.99707 10.2969 7.77734 10.5078 7.55762 10.7451L4.25293 14.2607C3.76953 14.7705 3.56738 15.4648 3.56738 16.0889V19.1211ZM5.73828 15.1309L8.87598 11.624C9.31543 11.1318 9.62305 10.8945 10.0977 10.8945H17.9023C18.377 10.8945 18.6846 11.1318 19.1328 11.624L22.2617 15.1309C22.4639 15.3506 22.3584 15.6846 21.9805 15.6846H6.01953C5.65039 15.6846 5.53613 15.3506 5.73828 15.1309ZM8.89355 12.9424C8.97266 13.1797 9.21875 13.2676 9.44727 13.1885L12.1279 12.2217C12.3652 12.1338 12.4883 11.8965 12.4004 11.668C12.3213 11.4307 12.0752 11.334 11.8467 11.4219L9.15723 12.3975C8.91992 12.4766 8.80566 12.7139 8.89355 12.9424ZM8.7793 14.5156C8.86719 14.7441 9.11328 14.8496 9.3418 14.7617L13.2441 13.3379C13.4814 13.2588 13.5957 13.0303 13.5166 12.793C13.4287 12.5645 13.2002 12.459 12.9541 12.5469L9.05176 13.9707C8.81445 14.0586 8.7002 14.2783 8.7793 14.5156ZM17.6035 18.7695C17.6035 18.4707 17.832 18.2598 18.1396 18.2598H20.6182C20.917 18.2598 21.1455 18.4707 21.1455 18.7695C21.1455 19.0596 20.917 19.2793 20.6182 19.2793H18.1396C17.8496 19.2793 17.6035 19.0684 17.6035 18.7695Z" fill="#1C1C1E"/>
</svg>
