<svg width="28" height="28" viewBox="0 0 28 28" fill="none" xmlns="http://www.w3.org/2000/svg">
<path d="M6.2041 12.5732C7.8916 12.5732 8.12012 11.8965 8.89355 11.8965C9.07812 11.8965 9.20996 11.9316 9.42969 12.0459L10.7393 12.749C10.9326 12.8545 11.0908 12.9512 11.2227 13.0215H11.2842C11.5039 12.2217 11.8115 11.7471 12.3916 11.3604V11.29L10.5723 10.3232C9.93066 9.98047 9.86035 9.70801 9.86035 8.91699C9.86035 6.87793 8.23438 5.24316 6.2041 5.24316C4.17383 5.24316 2.55664 6.87793 2.55664 8.91699C2.55664 10.9385 4.17383 12.5732 6.2041 12.5732ZM6.2041 10.9121C5.11426 10.9121 4.23535 10.0068 4.23535 8.91699C4.23535 7.79199 5.11426 6.91309 6.2041 6.91309C7.31152 6.91309 8.19043 7.79199 8.19043 8.91699C8.19043 10.0068 7.31152 10.9121 6.2041 10.9121ZM6.2041 22.5752C8.23438 22.5752 9.86035 20.9492 9.86035 18.9014C9.86035 18.1631 9.91309 17.8555 10.4844 17.5479L25.4434 9.61133C25.083 8.22266 23.5713 7.93262 21.3125 8.74121L13.71 11.4746C12.6201 11.8701 12.1367 12.415 11.8467 13.4258L11.6621 14.085C11.5303 14.5596 11.3105 14.7793 10.5811 15.1572L9.42969 15.7725C9.19238 15.8955 9.06934 15.9307 8.89355 15.9307C8.1377 15.9307 7.88281 15.2451 6.2041 15.2451C4.17383 15.2451 2.55664 16.8799 2.55664 18.9014C2.55664 20.9404 4.17383 22.5752 6.2041 22.5752ZM13.8945 14.1201C13.5078 14.1201 13.165 13.7949 13.165 13.3906C13.165 12.9775 13.5078 12.6523 13.8945 12.6523C14.3076 12.6523 14.6416 12.9775 14.6416 13.3906C14.6416 13.7949 14.3076 14.1201 13.8945 14.1201ZM21.3125 19.0684C23.5801 19.9033 25.083 19.5957 25.4434 18.1719L18.1133 14.2959L14.2812 16.3174V16.4316L21.3125 19.0684ZM6.2041 20.9053C5.11426 20.9053 4.23535 20.0088 4.23535 18.9014C4.23535 17.8027 5.11426 16.9062 6.2041 16.9062C7.31152 16.9062 8.19043 17.8027 8.19043 18.9014C8.19043 20.0088 7.31152 20.9053 6.2041 20.9053Z" fill="#1C1C1E"/>
</svg>
