<svg width="28" height="28" viewBox="0 0 28 28" fill="none" xmlns="http://www.w3.org/2000/svg">
<path d="M5.84375 22.7334C7.51367 22.7334 8.91113 21.5645 9.2627 19.9912H15.3799C15.8721 19.9912 16.1006 19.8682 16.4434 19.499L20.3369 15.3066L20.5391 16.1328C19.4141 16.7129 18.6494 17.8818 18.6494 19.2354C18.6494 21.1689 20.2139 22.7334 22.1475 22.7334C24.0723 22.7334 25.6455 21.1689 25.6455 19.2354C25.6455 17.3105 24.0723 15.7461 22.1475 15.7461C22.0771 15.7461 22.0156 15.7461 21.9541 15.7461L19.3086 5.2168C19.2031 4.79492 18.8604 4.58398 18.2803 4.58398H15.6523C15.2305 4.58398 14.8965 4.91797 14.8965 5.33984C14.8965 5.76172 15.2305 6.0957 15.6523 6.0957H17.9727C18.0605 6.0957 18.1045 6.12207 18.1133 6.18359L19.8711 13.3906L15.4062 18.374C15.3359 18.4619 15.3008 18.4883 15.2041 18.4883H9.2627C8.91113 16.915 7.51367 15.7461 5.84375 15.7461C3.91016 15.7461 2.3457 17.3105 2.3457 19.2354C2.3457 21.1689 3.91016 22.7334 5.84375 22.7334ZM5.84375 20.2549C6.10742 20.2549 6.34473 20.1582 6.5293 19.9912H7.86523C7.56641 20.8174 6.77539 21.3975 5.84375 21.3975C4.64844 21.3975 3.68164 20.4395 3.68164 19.2354C3.68164 18.04 4.64844 17.082 5.84375 17.082C6.77539 17.082 7.56641 17.6621 7.87402 18.4883H6.5293C6.35352 18.3213 6.11621 18.2246 5.84375 18.2246C5.27246 18.2246 4.83301 18.6641 4.82422 19.2354C4.81543 19.7979 5.26367 20.2549 5.84375 20.2549ZM22.1475 20.2549C22.71 20.2549 23.1582 19.7979 23.1582 19.2354C23.1582 18.8398 22.9385 18.4971 22.6045 18.3301L22.2881 17.082C23.4131 17.1611 24.3096 18.0928 24.3096 19.2354C24.3096 20.4307 23.3428 21.3975 22.1475 21.3975C20.9521 21.3975 19.9854 20.4395 19.9854 19.2354C19.9854 18.5146 20.3281 17.8818 20.873 17.4951L21.207 18.8574C21.1543 18.9717 21.1279 19.1035 21.1279 19.2354C21.1191 19.7979 21.5674 20.2549 22.1475 20.2549Z" fill="#1C1C1E"/>
</svg>
