<svg width="28" height="28" viewBox="0 0 28 28" fill="none" xmlns="http://www.w3.org/2000/svg">
<path d="M5.03521 19.2265L3.01373 22.2411C2.82916 22.5136 2.80279 22.8036 3.00494 23.0058L4.81548 24.8163C5.01763 25.0185 5.30767 24.9921 5.58013 24.8075L8.59478 22.7861C8.88482 22.5927 9.07818 22.2939 9.13091 21.9687L9.26275 21.0898L13.71 16.6513L14.3868 17.3368C14.879 17.8202 15.5118 17.829 16.0127 17.328L17.542 15.7988C17.2081 15.3769 17.2256 14.8232 17.6036 14.4452C17.9815 14.0673 18.5352 14.0497 18.9483 14.3837L24.0811 9.25969C25.461 7.87981 25.4786 6.40325 24.1251 5.04094L22.7803 3.69621C21.418 2.3427 19.9415 2.36028 18.5616 3.74895L13.4376 8.87297C13.7715 9.29485 13.754 9.85735 13.376 10.2177C12.9981 10.5956 12.4444 10.6132 12.0225 10.2792L10.4932 11.8085C9.99224 12.3095 10.001 12.9511 10.4844 13.4345L11.17 14.1113L6.7315 18.5585L5.85259 18.6904C5.5274 18.7431 5.21978 18.9364 5.03521 19.2265ZM11.9083 12.3007L12.418 11.7997C13.0772 11.914 13.7012 11.6855 14.2374 11.1493C14.7735 10.6132 14.9844 9.99797 14.8526 9.35637L19.5987 4.62785C20.3106 3.90715 21.084 3.90715 21.7872 4.61028L23.211 6.0341C23.9141 6.74602 23.9141 7.51067 23.1934 8.23137L18.4649 12.9687C17.8233 12.8368 17.2081 13.0478 16.6719 13.5839C16.1358 14.12 15.9073 14.7441 16.0215 15.412L15.5206 15.913C15.3184 16.1152 15.0723 16.1327 14.8614 15.9218L11.8995 12.9599C11.6885 12.7577 11.7061 12.5029 11.9083 12.3007ZM16.5928 9.41789C16.4258 9.58489 16.4258 9.85735 16.6016 10.0331C16.751 10.1825 17.0411 10.2001 17.1993 10.0331L20.6797 6.5175C20.8467 6.3593 20.8555 6.10442 20.6797 5.92864C20.5215 5.77043 20.2579 5.76164 20.0909 5.92864L16.5928 9.41789ZM17.8057 10.6308C17.6387 10.7978 17.6475 11.0702 17.8057 11.2284C17.9727 11.3954 18.2364 11.3954 18.4034 11.2284L21.9014 7.73918C22.0684 7.57219 22.0684 7.31731 21.9014 7.14153C21.7432 6.97453 21.462 6.98332 21.3038 7.14153L17.8057 10.6308ZM4.33209 22.4872L6.19537 20.0351L7.26763 19.8505L12.084 15.0341L12.7872 15.7372L7.97076 20.5536L7.78619 21.6259L5.33404 23.4892L4.33209 22.4872Z" fill="#1C1C1E"/>
</svg>
