<svg width="28" height="28" viewBox="0 0 28 28" fill="none" xmlns="http://www.w3.org/2000/svg">
<path d="M4.4375 8.58301C4.4375 9.18945 4.85059 9.58496 5.46582 9.58496H7.54883V20.2197C7.54883 22.1357 8.50684 23.1025 10.4229 23.1025H20.6621C22.4023 23.1025 23.5625 21.9072 23.5625 20.1055V17.6094C23.5625 17.0117 23.1494 16.6074 22.543 16.6074H21.8135V7.09766C21.8135 5.19922 20.8291 4.20605 18.9482 4.20605H6.87207C5.43066 4.20605 4.4375 5.20801 4.4375 6.7373V8.58301ZM6.10742 7.91504V6.7373C6.10742 6.20117 6.42383 5.87598 6.87207 5.87598C7.3291 5.87598 7.62793 6.20117 7.62793 6.7373V7.91504H6.10742ZM9.29785 20.1406V6.85156C9.29785 6.52637 9.27148 6.22754 9.21875 5.95508H18.79C19.6426 5.95508 20.0645 6.40332 20.0645 7.21191V16.6074H12.7256C12.1104 16.6074 11.6973 17.0117 11.6973 17.6094V20.1406C11.6973 20.8701 11.2051 21.3535 10.502 21.3535C9.79883 21.3535 9.29785 20.8438 9.29785 20.1406ZM11.7324 9.60254H17.6387C17.9551 9.60254 18.2012 9.35645 18.2012 9.04004C18.2012 8.73242 17.9551 8.49512 17.6387 8.49512H11.7324C11.3984 8.49512 11.1611 8.73242 11.1611 9.04004C11.1611 9.35645 11.3984 9.60254 11.7324 9.60254ZM11.7324 12.5996H14.835C15.1602 12.5996 15.3975 12.3623 15.3975 12.0547C15.3975 11.7383 15.1602 11.4922 14.835 11.4922H11.7324C11.3984 11.4922 11.1611 11.7383 11.1611 12.0547C11.1611 12.3623 11.3984 12.5996 11.7324 12.5996ZM13.1562 21.3535C13.3496 20.9844 13.4551 20.5537 13.4551 20.0439V18.3652H21.8135V20.0176C21.8135 20.8262 21.3125 21.3535 20.583 21.3535H13.1562Z" fill="#1C1C1E"/>
</svg>
