<svg width="28" height="28" viewBox="0 0 28 28" fill="none" xmlns="http://www.w3.org/2000/svg">
<path d="M18.6846 23.1904C20.5742 23.1904 21.5498 22.1973 21.5498 20.29V7.03613C21.5498 5.1377 20.5654 4.14453 18.6846 4.14453H12.9717C12.0488 4.14453 11.416 4.39062 10.8447 4.9707L7.21484 8.60059C6.66113 9.14551 6.4502 9.72559 6.4502 10.666V20.29C6.4502 22.1885 7.43457 23.1904 9.31543 23.1904H18.6846ZM12.1455 7.8623C12.1455 7.51953 12.4268 7.24707 12.7695 7.24707C13.1123 7.24707 13.376 7.51074 13.376 7.8623V10.666C13.376 11.0088 13.1123 11.29 12.7695 11.29C12.4268 11.29 12.1455 11.0088 12.1455 10.666V7.8623ZM14.0264 7.8623C14.0264 7.51953 14.3076 7.24707 14.668 7.24707C15.0107 7.24707 15.2744 7.51953 15.2744 7.8623V10.666C15.2744 11.0088 15.002 11.29 14.668 11.29C14.3164 11.29 14.0264 11.0088 14.0264 10.666V7.8623ZM15.9336 7.8623C15.9336 7.51953 16.1973 7.24707 16.54 7.24707C16.8916 7.24707 17.1641 7.51074 17.1641 7.8623V10.666C17.1641 11 16.8828 11.29 16.54 11.29C16.2061 11.29 15.9336 11.0088 15.9336 10.666V7.8623ZM17.8232 7.8623C17.8232 7.51953 18.0957 7.24707 18.4385 7.24707C18.7812 7.24707 19.0537 7.51074 19.0537 7.8623V10.6572C19.0537 11.0088 18.7812 11.29 18.4385 11.29C18.1045 11.29 17.8232 11.0088 17.8232 10.6572V7.8623Z" fill="#1C1C1E"/>
</svg>
