<svg width="28" height="28" viewBox="0 0 28 28" fill="none" xmlns="http://www.w3.org/2000/svg">
<g clip-path="url(#clip0_610_669)">
<path d="M9.5 7.80078C10.8975 7.21191 12.418 6.89551 14 6.89551C21.0576 6.89551 26.8057 13.1445 26.8057 20.791C26.8057 21.2568 27.1836 21.6348 27.6406 21.6348C28.1152 21.6348 28.4844 21.2568 28.4844 20.791C28.4844 12.2129 21.9805 5.2168 14 5.2168C11.9434 5.2168 9.9834 5.68262 8.2168 6.51758L9.5 7.80078ZM22.4902 24.2803C22.7715 24.5527 23.2197 24.5527 23.4834 24.2715C23.7471 23.999 23.7559 23.5684 23.4834 23.2871L5.79102 5.57715C5.50977 5.2959 5.06152 5.30469 4.78906 5.57715C4.52539 5.84082 4.52539 6.29785 4.78906 6.57031L22.4902 24.2803ZM5.17578 8.45996C1.73926 11.3076 -0.484375 15.7725 -0.484375 20.791C-0.484375 21.2568 -0.106445 21.6348 0.359375 21.6348C0.825195 21.6348 1.19434 21.2568 1.19434 20.791C1.19434 16.2383 3.2334 12.1865 6.37109 9.64648L5.17578 8.45996ZM15.9336 14.2256C16.54 13.6543 16.9443 12.8018 16.9443 11.8174C16.9443 10.0332 15.5908 8.67969 14.0176 8.67969C13.0684 8.67969 12.207 9.18945 11.6797 9.97168L15.9336 14.2256ZM23.4482 21.5381C23.7646 21.4414 23.9932 21.1426 23.9932 20.791C23.9932 16.6602 21.708 12.9336 18.21 11.2109C18.3242 11.8262 18.2891 12.4854 18.1221 13.0918C20.5918 14.5947 22.1826 17.3457 22.2969 20.3867C22.666 20.7822 23.0527 21.1777 23.4482 21.5381ZM8.62988 11.9053C5.7998 13.8037 4.00684 17.1348 4.00684 20.791C4.00684 21.248 4.37598 21.626 4.85059 21.626C5.30762 21.626 5.68555 21.248 5.68555 20.791C5.68555 17.627 7.27637 14.7354 9.8252 13.1094L8.62988 11.9053ZM9.1748 21.8018H18.5176L13.1123 16.3877C9.86914 16.748 7.87402 19.0684 7.87402 20.7822C7.87402 21.4238 8.36621 21.8018 9.1748 21.8018Z" fill="#1C1C1E"/>
</g>
<defs>
<clipPath id="clip0_610_669">
<rect width="28" height="28" fill="white"/>
</clipPath>
</defs>
</svg>
