<svg width="28" height="28" viewBox="0 0 28 28" fill="none" xmlns="http://www.w3.org/2000/svg">
<path d="M13.9912 22.7422C18.9746 22.7422 23.0879 18.6289 23.0879 13.6543C23.0879 8.67969 18.9658 4.56641 13.9824 4.56641C9.00781 4.56641 4.90332 8.67969 4.90332 13.6543C4.90332 18.6289 9.0166 22.7422 13.9912 22.7422ZM12.4619 17.126V12.5469C12.4619 12.2129 12.6729 12.0107 12.9893 12.0107C13.2881 12.0107 13.4902 12.2129 13.4902 12.5469V16.5986H14.7119C15.6436 16.5986 15.9424 16.3789 15.9424 15.3418V10.1475C15.9424 9.73438 16.1885 9.47949 16.584 9.47949C16.9707 9.47949 17.2168 9.74316 17.2168 10.1475V15.4473C17.2168 17.2842 16.5225 17.9873 14.9492 17.9873H13.332C12.7783 17.9873 12.4619 17.6973 12.4619 17.126ZM10.458 17.416V10.4375C10.458 9.875 10.7832 9.56738 11.3457 9.56738H13.0156C14.5449 9.56738 15.2217 10.2441 15.2217 11.8613V14.999C15.2217 15.3418 15.0195 15.5439 14.7119 15.5439C14.4043 15.5439 14.1846 15.3418 14.1846 14.999V12.1602C14.1846 11.2285 13.8154 10.9648 12.9189 10.9648H11.7324V17.4072C11.7324 17.8115 11.4863 18.084 11.1084 18.084C10.7217 18.084 10.458 17.8203 10.458 17.416Z" fill="#1C1C1E"/>
</svg>
