<svg width="28" height="28" viewBox="0 0 28 28" fill="none" xmlns="http://www.w3.org/2000/svg">
<path d="M21.418 15.4121V8.75879C21.418 7.72168 21.0137 7.34375 20.1436 6.9834C19.168 6.5791 15.8633 5.35742 14.9053 5.09375C14.624 5.01465 14.29 4.93555 13.9912 4.93555C13.7012 4.93555 13.3672 4.99707 13.0771 5.09375C12.1191 5.41016 8.82324 6.57031 7.84766 6.9834C6.97754 7.35254 6.57324 7.72168 6.57324 8.75879V15.4121C6.57324 18.6113 8.32227 19.877 13.376 22.6279C13.6045 22.751 13.8418 22.8125 13.9912 22.8125C14.1494 22.8125 14.3867 22.751 14.6152 22.6279C19.6514 19.8682 21.418 18.6113 21.418 15.4121ZM13.8418 20.9404C13.7451 20.9141 13.6396 20.8613 13.4902 20.7646C9.51758 18.374 8.2168 17.6709 8.2168 15.0781V9.04004C8.2168 8.73242 8.28711 8.60059 8.52441 8.5127C9.85156 8.03809 12.3564 7.15039 13.5342 6.68457C13.6748 6.64062 13.7627 6.61426 13.8418 6.60547V20.9404Z" fill="#1C1C1E"/>
</svg>
