<svg width="28" height="28" viewBox="0 0 28 28" fill="none" xmlns="http://www.w3.org/2000/svg">
<path d="M21.2773 22.3555C21.5498 22.6279 21.998 22.6279 22.2617 22.3555C22.5342 22.083 22.5342 21.6348 22.2617 21.3623L5.87891 4.98828C5.60645 4.71582 5.1582 4.71582 4.87695 4.98828C4.61328 5.25195 4.61328 5.70898 4.87695 5.97266L21.2773 22.3555ZM20.583 18.1367C21.1016 17.3281 21.3125 16.4316 21.3125 15.3066V8.77637C21.3125 7.73926 20.917 7.36133 20.0469 7.00098C19.0801 6.59668 15.8633 5.46289 14.9229 5.14648C14.6328 5.05859 14.2988 4.99707 14 4.99707C13.7012 4.99707 13.3672 5.05859 13.0771 5.14648C12.3477 5.38379 10.4404 6.06055 9.04297 6.58789L20.583 18.1367ZM6.6875 9.33887V15.3066C6.6875 18.4619 8.42773 19.7012 13.3936 22.417C13.6221 22.54 13.8418 22.5928 14 22.5928C14.1582 22.5928 14.3867 22.5312 14.6152 22.417C15.9336 21.7314 17.0234 21.1338 17.9023 20.5713L6.6875 9.33887Z" fill="#1C1C1E"/>
</svg>
