<svg width="28" height="28" viewBox="0 0 28 28" fill="none" xmlns="http://www.w3.org/2000/svg">
<path d="M13.9912 22.8125C14.1494 22.8125 14.3867 22.7598 14.6152 22.6367C19.6689 19.8857 21.4268 18.6113 21.4268 15.4121V8.77637C21.4268 7.72168 21.0225 7.34375 20.1348 6.96582C19.168 6.55273 15.8809 5.41016 14.9316 5.08496C14.6328 4.98828 14.2988 4.92676 13.9912 4.92676C13.6924 4.92676 13.3496 5.00586 13.0596 5.08496C12.1104 5.35742 8.82324 6.56152 7.85645 6.96582C6.96875 7.33496 6.56445 7.72168 6.56445 8.77637V15.4121C6.56445 18.6113 8.32227 19.8682 13.376 22.6367C13.6045 22.7598 13.8418 22.8125 13.9912 22.8125ZM14.4658 6.70215C15.626 7.15918 18.1309 8.04688 19.4404 8.5127C19.6953 8.60938 19.7568 8.74121 19.7568 9.05762V15.0869C19.7568 17.6621 18.4561 18.3564 14.501 20.7471C14.3428 20.8438 14.2285 20.8965 14.1406 20.9229V6.61426C14.2285 6.63184 14.334 6.6582 14.4658 6.70215Z" fill="#1C1C1E"/>
</svg>
