<svg width="28" height="28" viewBox="0 0 28 28" fill="none" xmlns="http://www.w3.org/2000/svg">
<path d="M13.9912 22.5928C14.1494 22.5928 14.3779 22.5312 14.6064 22.417C19.6426 19.8242 21.3125 18.4619 21.3125 15.3066V8.77637C21.3125 7.73926 20.9082 7.36133 20.0381 7.00098C19.0713 6.59668 15.8545 5.46289 14.9141 5.14648C14.624 5.05859 14.2988 4.99707 13.9912 4.99707C13.6924 4.99707 13.3672 5.05859 13.0771 5.14648C12.1279 5.44531 8.91113 6.60547 7.95312 7.00098C7.08301 7.35254 6.67871 7.73926 6.67871 8.77637V15.3066C6.67871 18.4619 8.41895 19.7012 13.3848 22.417C13.6133 22.54 13.8418 22.5928 13.9912 22.5928Z" fill="#1C1C1E"/>
</svg>
