<svg width="28" height="28" viewBox="0 0 28 28" fill="none" xmlns="http://www.w3.org/2000/svg">
<path d="M11.2139 21.8896H16.7773C18.0781 21.8896 18.7812 21.125 18.7812 19.8857V16.0625H22.2354C23.0176 16.0625 23.6064 15.5967 23.6064 14.8672C23.6064 14.4189 23.3955 14.1113 23.0176 13.7246L15.1514 5.84082C14.791 5.48047 14.4131 5.28711 14 5.28711C13.5869 5.28711 13.2002 5.48047 12.8486 5.84082L4.98242 13.7246C4.58691 14.1201 4.39355 14.4189 4.39355 14.8672C4.39355 15.5967 4.98242 16.0625 5.75586 16.0625H9.21875V19.8857C9.21875 21.125 9.92188 21.8896 11.2139 21.8896Z" fill="#1C1C1E"/>
</svg>
