<svg width="28" height="28" viewBox="0 0 28 28" fill="none" xmlns="http://www.w3.org/2000/svg">
<path d="M13.9912 22.7422C18.9746 22.7422 23.0879 18.6289 23.0879 13.6543C23.0879 8.67969 18.9658 4.56641 13.9824 4.56641C9.00781 4.56641 4.90332 8.67969 4.90332 13.6543C4.90332 18.6289 9.0166 22.7422 13.9912 22.7422ZM13.9912 20.9316C9.95703 20.9316 6.73145 17.6885 6.73145 13.6543C6.73145 9.62012 9.95703 6.38574 13.9824 6.38574C18.0166 6.38574 21.2598 9.62012 21.2686 13.6543C21.2773 17.6885 18.0254 20.9316 13.9912 20.9316ZM8.56836 15.9746C8.56836 16.3438 8.84961 16.5986 9.22754 16.5986H10.2559C11.0645 16.5986 11.5654 16.3525 12.1104 15.7109L13.0244 14.6211L13.9209 15.6934C14.4746 16.3525 15.0371 16.5986 15.8545 16.5986H16.5225V17.46C16.5225 17.7764 16.7422 17.9961 17.0586 17.9961C17.1904 17.9961 17.3223 17.9434 17.4365 17.8643L19.1504 16.4316C19.4141 16.2207 19.4141 15.8604 19.1504 15.6406L17.4453 14.208C17.3398 14.1201 17.1992 14.0674 17.0586 14.0674C16.7422 14.0674 16.5225 14.2783 16.5225 14.5947V15.3506H15.8809C15.415 15.3506 15.1426 15.21 14.791 14.7969L13.833 13.6631L14.791 12.5205C15.1426 12.0986 15.3975 11.9668 15.8545 11.9668H16.5225V12.7314C16.5225 13.0479 16.7422 13.2676 17.0586 13.2676C17.1992 13.2676 17.3398 13.2148 17.4453 13.1182L19.1504 11.7031C19.4141 11.4922 19.4141 11.123 19.1504 10.9121L17.4453 9.47949C17.3398 9.38281 17.208 9.33887 17.0586 9.33887C16.7422 9.33887 16.5225 9.5498 16.5225 9.86621V10.71H15.8545C15.0283 10.71 14.501 10.9561 13.9033 11.6592L13.0244 12.6963L12.1104 11.6152C11.5654 10.9561 11.0293 10.71 10.2207 10.71H9.22754C8.84961 10.71 8.56836 10.9736 8.56836 11.3428C8.56836 11.7031 8.84961 11.9668 9.22754 11.9668H10.1943C10.6338 11.9668 10.915 12.1074 11.2578 12.5205L12.2158 13.6543L11.2578 14.7881C10.915 15.2012 10.6514 15.3506 10.2207 15.3506H9.22754C8.84082 15.3506 8.56836 15.6143 8.56836 15.9746Z" fill="#1C1C1E"/>
</svg>
