<svg width="28" height="28" viewBox="0 0 28 28" fill="none" xmlns="http://www.w3.org/2000/svg">
<path d="M12.3916 23.3135H20.6094C22.3232 23.3135 23.2285 22.3906 23.2285 20.668V12.248C23.2285 11.4043 23.0352 10.8682 22.5254 10.3584L19.3438 7.17676C18.8164 6.6582 18.2275 6.4209 17.3926 6.4209H16.0303L14.29 4.68066C13.7715 4.16211 13.2002 3.93359 12.3564 3.93359H7.35547C5.65918 3.93359 4.7627 4.83887 4.7627 6.55273V17.9697C4.7627 19.6748 5.65918 20.5889 7.35547 20.5889H9.76367V20.668C9.76367 22.3906 10.6777 23.3135 12.3916 23.3135ZM7.47852 18.8838C6.79297 18.8838 6.45898 18.541 6.45898 17.873V6.64062C6.45898 5.97266 6.80176 5.62988 7.4873 5.62988H12.3389C12.7871 5.62988 13.1299 5.77051 13.4463 6.08691L13.7803 6.4209H12.3916C10.6777 6.4209 9.76367 7.34375 9.76367 9.0752V11.0088H8.91113C8.25195 11.0088 7.82129 11.4307 7.82129 12.1074V13.1709H9.76367V14.1641H7.82129V16.6777C7.82129 17.3457 8.25195 17.7764 8.91113 17.7764H9.76367V18.8838H7.47852ZM12.5146 21.5557C11.8467 21.5557 11.5215 21.2305 11.5215 20.5713V9.16309C11.5215 8.50391 11.8467 8.16992 12.5234 8.16992H17.375C17.8145 8.16992 18.1484 8.31055 18.4648 8.61816L21.1455 11.3164C21.3916 11.5625 21.4795 11.8262 21.4795 12.3008V20.5713C21.4795 21.2305 21.1455 21.5557 20.4775 21.5557H12.5146ZM12.8311 15.7812H15.3184C15.6699 15.7812 15.8633 15.9834 15.8633 16.3174V20.4746H17.3135V13.6104H13.9209C13.2617 13.6104 12.8311 14.0322 12.8311 14.709V15.7812ZM18.2979 20.4746H19.0713C19.7393 20.4746 20.1523 20.0439 20.1523 19.376V14.709C20.1523 14.0322 19.7393 13.6104 19.0713 13.6104H18.2979V20.4746ZM12.8311 19.376C12.8311 20.0439 13.2617 20.4746 13.9209 20.4746H14.8789V16.9062C14.8789 16.8184 14.8262 16.7656 14.7295 16.7656H12.8311V19.376Z" fill="#1C1C1E"/>
</svg>
