<svg width="28" height="28" viewBox="0 0 28 28" fill="none" xmlns="http://www.w3.org/2000/svg">
<path d="M17.2695 10.4199C18.2188 10.4199 19.0361 9.82227 19.3789 8.99609H22.2705C22.71 8.99609 23.0791 8.60938 23.0791 8.14355C23.0791 7.67773 22.71 7.2998 22.2705 7.2998H19.3789C19.0449 6.46484 18.2275 5.86719 17.2695 5.86719C16.3115 5.86719 15.4941 6.46484 15.1602 7.2998H5.74707C5.28125 7.2998 4.91211 7.67773 4.91211 8.14355C4.91211 8.60938 5.28125 8.99609 5.74707 8.99609H15.1602C15.5029 9.82227 16.3203 10.4199 17.2695 10.4199ZM17.2695 9.22461C16.6631 9.22461 16.1885 8.74121 16.1885 8.14355C16.1885 7.52832 16.6631 7.05371 17.2695 7.05371C17.8848 7.05371 18.3506 7.52832 18.3506 8.14355C18.3506 8.74121 17.8848 9.22461 17.2695 9.22461ZM5.7207 12.7842C5.28125 12.7842 4.91211 13.1621 4.91211 13.6279C4.91211 14.085 5.28125 14.4717 5.7207 14.4717H8.70898C9.05176 15.3154 9.86914 15.9043 10.8271 15.9043C11.7764 15.9043 12.5938 15.3154 12.9365 14.4717H22.2441C22.71 14.4717 23.0791 14.0938 23.0791 13.6279C23.0791 13.1621 22.71 12.7842 22.2441 12.7842H12.9365C12.5938 11.9492 11.7764 11.3604 10.8271 11.3604C9.86914 11.3604 9.05176 11.9492 8.70898 12.7842H5.7207ZM10.8271 14.7178C10.2207 14.7178 9.7373 14.2344 9.7373 13.6279C9.7373 13.0127 10.2207 12.5469 10.8271 12.5469C11.4336 12.5469 11.9082 13.0127 11.9082 13.6279C11.9082 14.2344 11.4336 14.7178 10.8271 14.7178ZM17.2695 21.3887C18.2275 21.3887 19.0449 20.791 19.3789 19.9561H22.2705C22.71 19.9561 23.0791 19.5781 23.0791 19.1123C23.0791 18.6377 22.71 18.2686 22.2705 18.2686H19.3789C19.0449 17.4336 18.2275 16.8359 17.2695 16.8359C16.3203 16.8359 15.4941 17.4336 15.1602 18.2686H5.74707C5.28125 18.2686 4.91211 18.6465 4.91211 19.1123C4.91211 19.5693 5.28125 19.9561 5.74707 19.9561H15.1602C15.4941 20.791 16.3115 21.3887 17.2695 21.3887ZM17.2695 20.1934C16.6631 20.1934 16.1885 19.71 16.1885 19.1123C16.1885 18.4971 16.6631 18.0312 17.2695 18.0312C17.8848 18.0312 18.3506 18.4971 18.3506 19.1123C18.3506 19.71 17.8848 20.1934 17.2695 20.1934Z" fill="#1C1C1E"/>
</svg>
