<svg width="28" height="28" viewBox="0 0 28 28" fill="none" xmlns="http://www.w3.org/2000/svg">
<path d="M16.918 15.9307H22.9209C24.3447 15.9307 25.1885 15.1045 25.1885 13.6982V7.67773C25.1885 6.27148 24.3447 5.44531 22.9209 5.44531H16.918C15.4941 5.44531 14.6504 6.27148 14.6504 7.67773V13.6982C14.6504 15.1045 15.4941 15.9307 16.918 15.9307ZM5.00879 15.8164H10.8887C12.2773 15.8164 13.1123 15.0078 13.1123 13.6279V7.74805C13.1123 6.36816 12.2773 5.55957 10.8887 5.55957H5.00879C3.62891 5.55957 2.80273 6.36816 2.80273 7.74805V13.6279C2.80273 15.0078 3.62891 15.8164 5.00879 15.8164ZM17.0674 14.2344C16.5928 14.2344 16.3555 13.9883 16.3555 13.5049V7.87109C16.3555 7.3877 16.5928 7.1416 17.0674 7.1416H22.7715C23.2461 7.1416 23.4834 7.3877 23.4834 7.87109V13.5049C23.4834 13.9883 23.2461 14.2344 22.7715 14.2344H17.0674ZM3.59375 19.042C3.16309 19.042 2.80273 19.4111 2.80273 19.877C2.80273 20.334 3.16309 20.7031 3.59375 20.7031H5.97559C6.30957 21.5557 7.13574 22.1533 8.10254 22.1533C9.06055 22.1533 9.88672 21.5557 10.2207 20.7031H24.3623C24.8193 20.7031 25.1885 20.3252 25.1885 19.877C25.1885 19.4111 24.8193 19.042 24.3623 19.042H10.2207C9.88672 18.1982 9.06055 17.5918 8.10254 17.5918C7.13574 17.5918 6.30957 18.1982 5.97559 19.042H3.59375ZM8.10254 20.9492C7.4873 20.9492 7.02148 20.4746 7.02148 19.877C7.02148 19.2617 7.4873 18.7959 8.10254 18.7959C8.7002 18.7959 9.1748 19.2617 9.1748 19.877C9.1748 20.4746 8.7002 20.9492 8.10254 20.9492Z" fill="#1C1C1E"/>
</svg>
