<svg width="28" height="28" viewBox="0 0 28 28" fill="none" xmlns="http://www.w3.org/2000/svg">
<g clip-path="url(#clip0_610_1713)">
<path d="M6.46777 21.8721H18.21C17.6475 21.3799 17.4102 20.7822 17.3135 20.1494H6.57324C5.76465 20.1494 5.30762 19.7188 5.30762 18.8662V8.45996C5.30762 7.60742 5.76465 7.18555 6.57324 7.18555H21.418C22.2354 7.18555 22.6836 7.60742 22.6836 8.45996V13.2588C23.2461 13.1709 23.8086 13.1621 24.4062 13.2588V8.31934C24.4062 6.43848 23.4219 5.46289 21.5234 5.46289H6.46777C4.56934 5.46289 3.58496 6.43848 3.58496 8.31934V19.0156C3.58496 20.8877 4.56934 21.8721 6.46777 21.8721ZM16.5137 12.1162C17.2607 12.1162 17.9023 11.6504 18.1572 10.9912H20.5303C20.8555 10.9912 21.1367 10.7012 21.1367 10.3584C21.1367 10.0068 20.8555 9.72559 20.5303 9.72559H18.166C17.9111 9.06641 17.2607 8.5918 16.5137 8.5918C15.7666 8.5918 15.1338 9.06641 14.8789 9.72559H7.47852C7.12695 9.72559 6.8457 10.0156 6.8457 10.3584C6.8457 10.7012 7.12695 10.9912 7.47852 10.9912H14.8789C15.1338 11.6504 15.7666 12.1162 16.5137 12.1162ZM16.5137 11.2109C16.0303 11.2109 15.6699 10.833 15.6699 10.3496C15.6699 9.86621 16.0303 9.50586 16.5137 9.50586C17.0059 9.50586 17.375 9.875 17.375 10.3496C17.375 10.833 17.0059 11.2109 16.5137 11.2109ZM7.45215 13.9707C7.12695 13.9707 6.8457 14.252 6.8457 14.6035C6.8457 14.9375 7.12695 15.2363 7.45215 15.2363H9.86035C10.1152 15.8867 10.7568 16.3613 11.4951 16.3613C12.2422 16.3613 12.8838 15.8867 13.1475 15.2363H19.1592C19.5723 14.7354 20.0645 14.3047 20.627 13.9707H13.1475C12.8838 13.3115 12.2422 12.8369 11.4951 12.8369C10.748 12.8369 10.1152 13.3115 9.86035 13.9707H7.45215ZM11.4951 15.4473C11.0205 15.4473 10.6514 15.0781 10.6514 14.6035C10.6514 14.1113 11.0205 13.7422 11.4951 13.7422C11.9873 13.7422 12.3477 14.1113 12.3477 14.6035C12.3477 15.0693 11.9873 15.4473 11.4951 15.4473ZM21.0312 16.8447C21.6289 16.1152 22.5342 15.6494 23.5449 15.6494C24.9336 15.6494 26.1377 16.5283 26.6211 17.7588H26.1729C25.6807 17.7588 25.4521 18.2158 25.7686 18.5762L26.9287 19.9648C27.2012 20.2725 27.5176 20.2812 27.7812 19.9648L28.8711 18.5762C29.1875 18.1895 28.9766 17.7588 28.4756 17.7588H27.9043C27.377 15.8516 25.6104 14.4277 23.5449 14.4277C22.1826 14.4277 20.9609 15.0518 20.1436 16.0098C19.5898 16.6338 20.4863 17.4512 21.0312 16.8447ZM19.3086 17.9521L18.2275 19.332C17.9111 19.7188 18.1221 20.1582 18.6143 20.1582H19.1855C19.7217 22.0566 21.4883 23.4805 23.5449 23.4805C24.9072 23.4805 26.1289 22.8652 26.9463 21.8984C27.5 21.2832 26.6123 20.4658 26.0674 21.0635C25.4697 21.793 24.5557 22.2676 23.5449 22.2676C22.1562 22.2676 20.9521 21.3799 20.4688 20.1582H20.9258C21.418 20.1582 21.6465 19.7012 21.3213 19.332L20.1611 17.9521C19.8975 17.6357 19.5723 17.6357 19.3086 17.9521Z" fill="#1C1C1E"/>
</g>
<defs>
<clipPath id="clip0_610_1713">
<rect width="28" height="28" fill="white"/>
</clipPath>
</defs>
</svg>
