<svg width="28" height="28" viewBox="0 0 28 28" fill="none" xmlns="http://www.w3.org/2000/svg">
<path d="M16.9355 15.9482H22.9648C24.3975 15.9482 25.25 15.1045 25.25 13.6982V7.64258C25.25 6.23633 24.3975 5.40137 22.9648 5.40137H16.9355C15.5029 5.40137 14.6592 6.23633 14.6592 7.64258V13.6982C14.6592 15.1045 15.5029 15.9482 16.9355 15.9482ZM4.97363 15.834H10.8711C12.2686 15.834 13.1123 15.0078 13.1123 13.6279V7.71289C13.1123 6.33301 12.2686 5.51562 10.8711 5.51562H4.97363C3.58496 5.51562 2.75 6.32422 2.75 7.71289V13.6279C2.75 15.0166 3.58496 15.834 4.97363 15.834ZM17.1025 14.2168C16.6279 14.2168 16.3906 13.9707 16.3906 13.4873V7.85352C16.3906 7.37012 16.6279 7.13281 17.1025 7.13281H22.7979C23.2812 7.13281 23.5098 7.37012 23.5098 7.85352V13.4873C23.5098 13.9707 23.2812 14.2168 22.7979 14.2168H17.1025ZM3.55859 19.042C3.11914 19.042 2.75 19.4199 2.75 19.8945C2.75 20.3516 3.11914 20.7383 3.55859 20.7383H5.94043C6.2832 21.582 7.10938 22.1885 8.07617 22.1885C9.04297 22.1885 9.87793 21.5908 10.2119 20.7383H24.415C24.8809 20.7383 25.25 20.3516 25.25 19.8945C25.25 19.4287 24.8809 19.042 24.415 19.042H10.2119C9.86914 18.1982 9.04297 17.6006 8.07617 17.6006C7.10938 17.6006 6.2832 18.1982 5.94043 19.042H3.55859ZM8.07617 20.9756C7.46094 20.9756 6.99512 20.4922 6.99512 19.8945C6.99512 19.2793 7.46094 18.8047 8.07617 18.8047C8.68262 18.8047 9.15723 19.2793 9.15723 19.8945C9.15723 20.4922 8.68262 20.9756 8.07617 20.9756Z" fill="#1C1C1E"/>
</svg>
