<svg width="28" height="28" viewBox="0 0 28 28" fill="none" xmlns="http://www.w3.org/2000/svg">
<path d="M13.9913 22.6631C14.4308 22.6631 14.6944 22.3643 14.6944 21.9248V20.1143L16.0392 20.9053C16.3819 21.1338 16.7599 21.1074 16.9884 20.7646C17.1729 20.457 17.0851 20.0791 16.7159 19.8594L14.6944 18.6904V17.6006L14.5011 14.5596L17.0675 16.2383L18.0079 16.7744L18.0167 19.1123C18.0167 19.543 18.2979 19.8154 18.6495 19.7979C19.0714 19.7891 19.2823 19.4727 19.2559 19.0508L19.2296 17.4863L20.8116 18.4004C21.1895 18.6201 21.5763 18.5322 21.7872 18.1631C21.9893 17.7852 21.8839 17.3896 21.5059 17.1787L19.9415 16.2734L21.3038 15.5C21.6729 15.3154 21.8399 14.9727 21.6466 14.6211C21.4708 14.2959 21.1017 14.1904 20.7325 14.3926L18.7022 15.5615L17.7618 15.0166L15.0108 13.6543L17.7618 12.292L18.7022 11.7471L20.7237 12.916C21.0929 13.1182 21.4796 13.0127 21.6554 12.6963C21.8399 12.3359 21.6729 11.9932 21.3038 11.7998L19.9415 11.0352L21.5147 10.1299C21.8927 9.91016 22.0069 9.53223 21.796 9.14551C21.5851 8.79395 21.1895 8.68848 20.8116 8.9082L19.2296 9.81348L19.2472 8.24902C19.2823 7.83594 19.0714 7.51953 18.6583 7.51074C18.2979 7.50195 18.0167 7.76562 18.0167 8.19629L18.0079 10.5254L17.0675 11.0703L14.5011 12.7578L14.6944 9.70801V8.61816L16.7159 7.44922C17.0851 7.22949 17.1729 6.85156 16.9884 6.54395C16.7686 6.19238 16.3819 6.1748 16.0392 6.40332L14.6944 7.19434V5.38379C14.6944 4.94434 14.4308 4.64551 13.9913 4.64551C13.5782 4.64551 13.297 4.94434 13.297 5.38379V7.19434L11.9434 6.40332C11.5919 6.1748 11.2227 6.19238 11.003 6.54395C10.8097 6.85156 10.9063 7.22949 11.2755 7.44922L13.297 8.61816V9.70801L13.4903 12.7578L10.9239 11.0703L9.98349 10.5254L9.9747 8.19629C9.9747 7.76562 9.69345 7.50195 9.34189 7.51074C8.92001 7.51953 8.70907 7.83594 8.73544 8.24902L8.76181 9.81348L7.17978 8.9082C6.81064 8.69727 6.40634 8.79395 6.1954 9.14551C5.97568 9.53223 6.10751 9.91895 6.47665 10.1299L8.0499 11.0352L6.68759 11.7998C6.31845 11.9932 6.15146 12.3184 6.33603 12.6963C6.50302 13.0127 6.88974 13.1182 7.26767 12.916L9.28915 11.7559L10.2208 12.292L12.9806 13.6543L10.2296 15.0166L9.28036 15.5615L7.25888 14.3926C6.88974 14.1904 6.51181 14.2959 6.35361 14.6123C6.15146 14.9902 6.31845 15.3154 6.68759 15.5L8.0499 16.2734L6.47665 17.1787C6.10751 17.3896 5.98447 17.8027 6.1954 18.1631C6.41513 18.5322 6.81064 18.6201 7.17978 18.4004L8.76181 17.4951L8.73544 19.0508C8.70907 19.4727 8.92001 19.7891 9.3331 19.7979C9.69345 19.8154 9.9747 19.5342 9.9747 19.1123L9.99228 16.7744L10.9239 16.2383L13.4903 14.5508L13.297 17.6006V18.6904L11.2755 19.8594C10.9063 20.0791 10.8097 20.457 11.003 20.7646C11.2227 21.1074 11.5919 21.1338 11.9434 20.9053L13.297 20.1055V21.9248C13.297 22.3555 13.5782 22.6631 13.9913 22.6631Z" fill="#1C1C1E"/>
</svg>
