<svg width="28" height="28" viewBox="0 0 28 28" fill="none" xmlns="http://www.w3.org/2000/svg">
<path d="M14 22.7422C18.9658 22.7422 23.0791 18.6377 23.0791 13.6631C23.0791 8.69727 18.9658 4.58398 13.9912 4.58398C9.02539 4.58398 4.9209 8.69727 4.9209 13.6631C4.9209 18.6377 9.03418 22.7422 14 22.7422ZM13.9912 19.332C13.6836 19.332 13.4639 19.0947 13.4639 18.7695V17.8291L12.7783 18.2246C12.4971 18.4004 12.2158 18.3564 12.0488 18.0928C11.9082 17.8555 11.9961 17.5566 12.2598 17.3984L13.4639 16.7129V16.0977L13.5605 14.4277L12.1455 15.3418L11.627 15.6494L11.6182 17.0381C11.6182 17.3457 11.4072 17.5742 11.1172 17.5654C10.8184 17.5566 10.625 17.3281 10.6514 16.9941V16.2119L9.84277 16.6865C9.56152 16.8447 9.2627 16.7744 9.0957 16.502C8.9375 16.2119 9.02539 15.9131 9.30664 15.7461L10.1152 15.2891L9.43848 14.8936C9.13965 14.7441 9.04297 14.4717 9.18359 14.1992C9.31543 13.9443 9.62305 13.8828 9.89551 14.0234L11.0908 14.7266L11.6094 14.4102L13.1299 13.6631L11.6094 12.916L11.0908 12.6084L9.89551 13.2939C9.62305 13.4434 9.31543 13.373 9.1748 13.127C9.04297 12.8457 9.14844 12.582 9.43848 12.4326L10.1152 12.0371L9.30664 11.5801C9.02539 11.4131 8.92871 11.1143 9.0957 10.8242C9.25391 10.5605 9.56152 10.4814 9.84277 10.6396L10.6514 11.1143V10.3232C10.6338 9.99805 10.8184 9.76953 11.1172 9.76074C11.4072 9.75195 11.6182 9.98047 11.6182 10.2881L11.627 11.6768L12.1455 11.9844L13.5605 12.8984L13.4639 11.2285V10.6133L12.2598 9.92773C11.9961 9.76953 11.9082 9.46191 12.0488 9.2334C12.2158 8.96973 12.4971 8.92578 12.7783 9.09277L13.4639 9.49707V8.55664C13.4639 8.23145 13.6836 7.99414 13.9912 7.99414C14.3076 7.99414 14.5273 8.22266 14.5273 8.55664V9.48828L15.1953 9.09277C15.4766 8.91699 15.7666 8.96973 15.9336 9.2334C16.0742 9.46191 15.9951 9.76953 15.7314 9.92773L14.5273 10.6133V11.2285L14.4307 12.8984L15.8457 11.9756L16.3555 11.6768L16.3643 10.2881C16.373 9.98047 16.5752 9.75195 16.874 9.76074C17.1729 9.76953 17.3574 10.0068 17.3398 10.3232V11.1143L18.1396 10.6396C18.4209 10.4814 18.7285 10.5605 18.8867 10.8242C19.0449 11.123 18.957 11.4131 18.6758 11.5801L17.876 12.0371L18.5439 12.4326C18.834 12.582 18.9395 12.8545 18.8076 13.1182C18.667 13.373 18.3594 13.4434 18.0869 13.2939L16.8916 12.5996L16.373 12.916L14.8525 13.6631L16.373 14.4102L16.8916 14.7266L18.0869 14.0234C18.3594 13.8828 18.6582 13.9531 18.8076 14.208C18.9395 14.4717 18.834 14.7441 18.5439 14.8936L17.876 15.2891L18.6758 15.7461C18.957 15.9131 19.0449 16.2119 18.8867 16.502C18.7197 16.7744 18.4209 16.8447 18.1396 16.6865L17.3398 16.2031V17.0029C17.3574 17.3281 17.1641 17.5566 16.8652 17.5654C16.5752 17.5742 16.373 17.3457 16.3643 17.0381L16.3555 15.6494L15.8545 15.3418L14.4307 14.4277L14.5273 16.0977V16.7129L15.7314 17.3984C15.9951 17.5566 16.0742 17.8555 15.9336 18.0928C15.7666 18.3477 15.4766 18.4092 15.1953 18.2246L14.5273 17.8379V18.7695C14.5273 19.1035 14.3076 19.332 13.9912 19.332Z" fill="#1C1C1E"/>
</svg>
