<svg width="28" height="28" viewBox="0 0 28 28" fill="none" xmlns="http://www.w3.org/2000/svg">
<path d="M22.666 22.3115C23.0527 22.5664 23.5713 22.4521 23.8525 22.0302C25.3994 19.7099 26.3311 16.8271 26.3311 13.6631C26.3311 10.4902 25.3818 7.61618 23.8525 5.28708C23.5713 4.85641 23.0527 4.75094 22.666 5.00583C22.2441 5.27829 22.1826 5.79684 22.4727 6.26266C23.8174 8.31051 24.6523 10.8506 24.6523 13.6631C24.6523 16.458 23.8174 19.0156 22.4727 21.0547C22.1826 21.5205 22.2441 22.039 22.666 22.3115ZM3.62012 17.416H6.10742C6.17773 17.416 6.24805 17.4336 6.30078 17.4863L10.1592 20.9316C10.6162 21.3447 10.9678 21.5381 11.4336 21.5381C12.084 21.5381 12.5762 21.0459 12.5762 20.3955V6.97458C12.5762 6.3154 12.084 5.78805 11.416 5.78805C10.9678 5.78805 10.6514 5.9902 10.1592 6.43844L6.30078 9.85739C6.24805 9.91012 6.17773 9.9277 6.10742 9.9277H3.62012C2.31934 9.9277 1.66016 10.6132 1.66016 11.9843V15.3593C1.66016 16.7392 2.32812 17.416 3.62012 17.416ZM19.1064 19.9297C19.5107 20.1757 20.0029 20.0879 20.2754 19.6748C21.4268 18.0576 22.0859 15.8867 22.0859 13.6543C22.0859 11.4218 21.4355 9.24216 20.2754 7.63376C20.0029 7.22067 19.5107 7.12399 19.1064 7.37887C18.6846 7.64255 18.623 8.16989 18.9307 8.63571C19.8711 10.0068 20.4072 11.791 20.4072 13.6543C20.4072 15.5088 19.8535 17.2929 18.9307 18.6728C18.6318 19.1386 18.6846 19.6572 19.1064 19.9297ZM3.77832 15.8427C3.48828 15.8427 3.34766 15.7021 3.34766 15.4121V11.9404C3.34766 11.6416 3.48828 11.5009 3.77832 11.5009H6.52051C6.75781 11.5009 6.93359 11.457 7.13574 11.2724L10.6338 8.082C10.6777 8.04684 10.7217 8.02048 10.7744 8.02048C10.8447 8.02048 10.8975 8.06442 10.8975 8.14352V19.1738C10.8975 19.2617 10.8447 19.3056 10.7832 19.3056C10.7305 19.3056 10.6865 19.2881 10.6338 19.2441L7.13574 16.0713C6.93359 15.8867 6.75781 15.8427 6.52051 15.8427H3.77832ZM15.5732 17.5742C15.9512 17.8203 16.4434 17.7324 16.7158 17.3457C17.4277 16.3965 17.8496 15.0517 17.8496 13.6543C17.8496 12.2568 17.4277 10.9209 16.7158 9.96286C16.4434 9.57614 15.9512 9.48825 15.5732 9.74313C15.1426 10.0244 15.0547 10.5429 15.4062 11.0527C15.8896 11.747 16.1621 12.6787 16.1621 13.6543C16.1621 14.6299 15.8809 15.5527 15.4062 16.2558C15.0635 16.7656 15.1426 17.2841 15.5732 17.5742Z" fill="#1C1C1E"/>
</svg>
