<svg width="28" height="28" viewBox="0 0 28 28" fill="none" xmlns="http://www.w3.org/2000/svg">
<path d="M13.9912 22.7422C18.9746 22.7422 23.0879 18.6289 23.0879 13.6543C23.0879 8.67969 18.9658 4.56641 13.9824 4.56641C9.00781 4.56641 4.90332 8.67969 4.90332 13.6543C4.90332 18.6289 9.0166 22.7422 13.9912 22.7422ZM13.9912 20.9316C9.95703 20.9316 6.73145 17.6885 6.73145 13.6543C6.73145 9.62012 9.95703 6.38574 13.9824 6.38574C18.0166 6.38574 21.2598 9.62012 21.2686 13.6543C21.2773 17.6885 18.0254 20.9316 13.9912 20.9316ZM17.9463 18.2422C18.1133 18.4004 18.4033 18.4092 18.5703 18.2422C18.7461 18.0576 18.7461 17.7939 18.5703 17.6182L10.0361 9.0752C9.86035 8.89941 9.5791 8.89941 9.40332 9.0752C9.22754 9.25098 9.23633 9.53223 9.40332 9.69922L17.9463 18.2422ZM13.4199 11.4746L16.0303 14.085V10.3672C16.0303 10.0508 15.793 9.80469 15.4766 9.80469C15.2568 9.80469 15.1074 9.90137 14.8701 10.1123L13.4199 11.4746ZM11.7236 15.4648H12.9453C12.9805 15.4648 13.0156 15.4736 13.042 15.5L14.8701 17.2227C15.0811 17.4248 15.2568 17.5127 15.4854 17.5127C15.6172 17.5127 15.7139 17.4512 15.7842 17.3721L15.8633 17.126L11.0293 12.292H10.9766C10.8535 12.4062 10.7656 12.6172 10.7656 12.8633V14.4629C10.7656 15.1133 11.1084 15.4648 11.7236 15.4648Z" fill="#1C1C1E"/>
</svg>
