<svg width="28" height="28" viewBox="0 0 28 28" fill="none" xmlns="http://www.w3.org/2000/svg">
<path d="M9.54395 17.416H12.04C12.1104 17.416 12.1719 17.4336 12.2334 17.4863L16.083 20.9316C16.54 21.3447 16.8916 21.5381 17.3574 21.5381C18.0166 21.5381 18.5088 21.0459 18.5088 20.3955V6.97461C18.5088 6.31543 18.0166 5.78809 17.3486 5.78809C16.8916 5.78809 16.5752 5.99023 16.083 6.43848L12.2334 9.85742C12.1719 9.91016 12.1104 9.92773 12.04 9.92773H9.54395C8.25195 9.92773 7.58398 10.6133 7.58398 11.9844V15.3594C7.58398 16.7393 8.25195 17.416 9.54395 17.416ZM9.70215 15.8428C9.41211 15.8428 9.27148 15.7021 9.27148 15.4121V11.9404C9.27148 11.6416 9.41211 11.501 9.70215 11.501H12.4443C12.6816 11.501 12.8574 11.457 13.0684 11.2725L16.5576 8.08203C16.6016 8.04688 16.6455 8.02051 16.707 8.02051C16.7686 8.02051 16.8213 8.06445 16.8213 8.14355V19.1738C16.8213 19.2617 16.7686 19.3057 16.707 19.3057C16.6543 19.3057 16.6104 19.2881 16.5664 19.2441L13.0684 16.0713C12.8662 15.8867 12.6816 15.8428 12.4443 15.8428H9.70215Z" fill="#1C1C1E"/>
</svg>
