<svg width="28" height="28" viewBox="0 0 28 28" fill="none" xmlns="http://www.w3.org/2000/svg">
<path d="M18.3594 15.8076V6.97461C18.3594 6.31543 17.876 5.78809 17.1992 5.78809C16.751 5.78809 16.4346 5.98145 15.9512 6.43848L12.541 9.59375C12.5059 9.62891 12.4619 9.65527 12.418 9.65527H12.1982L18.3594 15.8076ZM21.4355 22.3818C21.708 22.6455 22.1562 22.6543 22.4199 22.3818C22.6924 22.1006 22.6924 21.6611 22.4199 21.3887L7.02148 5.99902C6.74902 5.72656 6.30078 5.71777 6.01953 5.99902C5.75586 6.2627 5.75586 6.71973 6.01953 6.9834L21.4355 22.3818ZM9.54395 17.3896H12.0225C12.1016 17.3896 12.1719 17.416 12.2246 17.4688L15.9512 20.9316C16.3906 21.3535 16.7598 21.5381 17.208 21.5381C17.7178 21.5381 18.1045 21.2744 18.2803 20.7559L8.04102 10.5254C7.74219 10.8594 7.58398 11.3516 7.58398 12.002V15.3418C7.58398 16.7129 8.25195 17.3896 9.54395 17.3896Z" fill="#1C1C1E"/>
</svg>
