<svg width="28" height="28" viewBox="0 0 28 28" fill="none" xmlns="http://www.w3.org/2000/svg">
<path d="M15.1865 22.8037L22.0244 18.8398C22.7627 18.4092 23.0879 18.04 23.0879 17.4863C23.0879 16.9238 22.7627 16.5635 22.0244 16.124L18.043 13.8213L22.0244 11.5098C22.7627 11.0791 23.0879 10.71 23.0879 10.1562C23.0879 9.59375 22.7627 9.2334 22.0244 8.79395L15.1865 4.83008C14.7295 4.56641 14.3691 4.43457 14 4.43457C13.6221 4.43457 13.2617 4.56641 12.8047 4.83008L5.9668 8.79395C5.22852 9.2334 4.90332 9.59375 4.90332 10.1562C4.90332 10.71 5.22852 11.0791 5.9668 11.5098L9.94824 13.8213L5.9668 16.124C5.22852 16.5635 4.90332 16.9238 4.90332 17.4863C4.90332 18.04 5.22852 18.4092 5.9668 18.8398L12.8047 22.8037C13.2617 23.0674 13.6221 23.1992 14 23.1992C14.3691 23.1992 14.7295 23.0674 15.1865 22.8037ZM14 14.041C13.877 14.041 13.7715 13.9971 13.6396 13.9268L7.1709 10.2354C7.12695 10.2178 7.10938 10.1914 7.10938 10.1562C7.10938 10.1123 7.12695 10.0947 7.1709 10.0684L13.6396 6.38574C13.7715 6.30664 13.877 6.27148 14 6.27148C14.1143 6.27148 14.2197 6.30664 14.3516 6.38574L20.8291 10.0684C20.8643 10.0947 20.8906 10.1123 20.8906 10.1562C20.8906 10.1914 20.8643 10.2178 20.8291 10.2354L14.3516 13.9268C14.2197 13.9971 14.1143 14.041 14 14.041Z" fill="#1C1C1E"/>
</svg>
