<svg width="28" height="28" viewBox="0 0 28 28" fill="none" xmlns="http://www.w3.org/2000/svg">
<path d="M8.67383 21.8721H19.3174C21.2158 21.8721 22.2002 20.8877 22.2002 19.0156V8.31934C22.2002 6.43848 21.2158 5.46289 19.3174 5.46289H8.67383C6.77539 5.46289 5.79102 6.43848 5.79102 8.31934V19.0156C5.79102 20.8965 6.77539 21.8721 8.67383 21.8721ZM8.7793 20.1494C7.96191 20.1494 7.51367 19.7188 7.51367 18.8662V8.45996C7.51367 7.60742 7.96191 7.18555 8.7793 7.18555H19.2119C20.0205 7.18555 20.4775 7.60742 20.4775 8.45996V18.8662C20.4775 19.7188 20.0205 20.1494 19.2119 20.1494H8.7793ZM8.80566 10.5254C8.80566 10.9033 9.05176 11.1494 9.43848 11.1494H10.8535C11.2402 11.1494 11.4863 10.9033 11.4863 10.5254V9.09277C11.4863 8.71484 11.2402 8.47754 10.8535 8.47754H9.43848C9.05176 8.47754 8.80566 8.71484 8.80566 9.09277V10.5254ZM12.6641 10.5254C12.6641 10.9033 12.9102 11.1494 13.2969 11.1494H14.7119C15.0986 11.1494 15.3447 10.9033 15.3447 10.5254V9.09277C15.3447 8.71484 15.0986 8.47754 14.7119 8.47754H13.2969C12.9102 8.47754 12.6641 8.71484 12.6641 9.09277V10.5254ZM16.5137 10.5254C16.5137 10.9033 16.7598 11.1494 17.1465 11.1494H18.5615C18.9482 11.1494 19.1943 10.9033 19.1943 10.5254V9.09277C19.1943 8.71484 18.9482 8.47754 18.5615 8.47754H17.1465C16.7598 8.47754 16.5137 8.71484 16.5137 9.09277V10.5254ZM8.80566 14.375C8.80566 14.7617 9.05176 14.999 9.43848 14.999H10.8535C11.2402 14.999 11.4863 14.7617 11.4863 14.375V12.9424C11.4863 12.5645 11.2402 12.3271 10.8535 12.3271H9.43848C9.05176 12.3271 8.80566 12.5645 8.80566 12.9424V14.375ZM12.6641 14.375C12.6641 14.7617 12.9102 14.999 13.2969 14.999H14.7119C15.0986 14.999 15.3447 14.7617 15.3447 14.375V12.9424C15.3447 12.5645 15.0986 12.3271 14.7119 12.3271H13.2969C12.9102 12.3271 12.6641 12.5645 12.6641 12.9424V14.375ZM16.5137 14.375C16.5137 14.7617 16.7598 14.999 17.1465 14.999H18.5615C18.9482 14.999 19.1943 14.7617 19.1943 14.375V12.9424C19.1943 12.5645 18.9482 12.3271 18.5615 12.3271H17.1465C16.7598 12.3271 16.5137 12.5645 16.5137 12.9424V14.375ZM8.80566 18.2246C8.80566 18.6025 9.05176 18.8486 9.43848 18.8486H10.8535C11.2402 18.8486 11.4863 18.6025 11.4863 18.2246V16.792C11.4863 16.4141 11.2402 16.1768 10.8535 16.1768H9.43848C9.05176 16.1768 8.80566 16.4141 8.80566 16.792V18.2246ZM12.6641 18.2246C12.6641 18.6025 12.9102 18.8486 13.2969 18.8486H14.7119C15.0986 18.8486 15.3447 18.6025 15.3447 18.2246V16.792C15.3447 16.4141 15.0986 16.1768 14.7119 16.1768H13.2969C12.9102 16.1768 12.6641 16.4141 12.6641 16.792V18.2246ZM16.5137 18.2246C16.5137 18.6025 16.7598 18.8486 17.1465 18.8486H18.5615C18.9482 18.8486 19.1943 18.6025 19.1943 18.2246V16.792C19.1943 16.4141 18.9482 16.1768 18.5615 16.1768H17.1465C16.7598 16.1768 16.5137 16.4141 16.5137 16.792V18.2246Z" fill="#1C1C1E"/>
</svg>
