<svg width="28" height="28" viewBox="0 0 28 28" fill="none" xmlns="http://www.w3.org/2000/svg">
<path d="M14.8701 23.3486L21.6816 19.4111C22.6045 18.8749 22.8594 18.3652 22.8594 17.3544V9.25969C22.8594 7.83586 21.6113 7.45793 20.6182 8.02922L19.0889 8.90813V7.05364C19.0889 5.62981 17.8408 5.24309 16.8477 5.81438L15.5117 6.58782V4.98821C15.5117 3.56438 14.2725 3.18645 13.2793 3.75774L6.33594 7.77434C5.44824 8.28411 5.14062 8.82024 5.14062 9.84856V17.7236C5.14062 19.332 6.17773 19.8593 7.53125 19.0771L8.71777 18.3915V19.7802C8.71777 21.3886 9.74609 21.9159 11.0996 21.1337L12.4795 20.3339V21.9863C12.4795 23.5947 13.5166 24.122 14.8701 23.3486ZM6.83691 17.3456V9.88372C6.83691 9.54094 6.93359 9.42668 7.19727 9.26848L13.6748 5.52434C13.7539 5.4804 13.8154 5.52434 13.8154 5.60344V7.57219L9.9043 9.83098C9.0166 10.3495 8.71777 10.8769 8.71777 11.9052V16.4052L6.96875 17.4159C6.88965 17.4599 6.83691 17.4247 6.83691 17.3456ZM12.4795 14.1113V18.3564L10.5459 19.4726C10.4668 19.5165 10.4141 19.4902 10.4141 19.4023V11.9404C10.4141 11.5976 10.502 11.4833 10.7656 11.3251L17.2432 7.58098C17.3311 7.53704 17.3926 7.58098 17.3926 7.66008V9.8925L13.6748 12.037C12.7871 12.5556 12.4795 13.0917 12.4795 14.1113ZM14.5361 13.5312L21.0137 9.79583C21.1016 9.74309 21.1631 9.78704 21.1631 9.86614V17.2929C21.1631 17.6093 21.0928 17.7499 20.8115 17.9169L14.3164 21.6874C14.2373 21.7314 14.1758 21.6962 14.1758 21.6083V14.1552C14.1758 13.8036 14.2725 13.6894 14.5361 13.5312Z" fill="#1C1C1E"/>
</svg>
