<svg width="28" height="28" viewBox="0 0 28 28" fill="none" xmlns="http://www.w3.org/2000/svg">
<path d="M8.67383 21.8721H19.3174C21.2158 21.8721 22.2002 20.8877 22.2002 19.0156V8.31934C22.2002 6.43848 21.2158 5.46289 19.3174 5.46289H8.67383C6.77539 5.46289 5.79102 6.43848 5.79102 8.31934V19.0156C5.79102 20.8965 6.77539 21.8721 8.67383 21.8721ZM8.73535 8.89941C8.73535 8.31055 9.08691 7.95898 9.68457 7.95898H11.8027C12.4004 7.95898 12.752 8.31055 12.752 8.89941V11.0352C12.752 11.6152 12.4004 11.9756 11.8027 11.9756H9.68457C9.08691 11.9756 8.73535 11.6152 8.73535 11.0352V8.89941ZM9.24512 16.0273C8.91113 16.0273 8.66504 15.7725 8.66504 15.4473C8.66504 15.1396 8.91113 14.8936 9.24512 14.8936H17.9463C18.2715 14.8936 18.5176 15.1396 18.5176 15.4473C18.5176 15.7725 18.2715 16.0273 17.9463 16.0273H9.24512ZM9.24512 19.0332C8.91113 19.0332 8.66504 18.7959 8.66504 18.4795C8.66504 18.1543 8.91113 17.8994 9.24512 17.8994H15.7227C16.0479 17.8994 16.2939 18.1543 16.2939 18.4795C16.2939 18.7959 16.0479 19.0332 15.7227 19.0332H9.24512Z" fill="#1C1C1E"/>
</svg>
