<svg width="28" height="28" viewBox="0 0 28 28" fill="none" xmlns="http://www.w3.org/2000/svg">
<path d="M13.9912 22.7422C18.9746 22.7422 23.0879 18.6289 23.0879 13.6543C23.0879 8.67969 18.9658 4.56641 13.9824 4.56641C9.00781 4.56641 4.90332 8.67969 4.90332 13.6543C4.90332 18.6289 9.0166 22.7422 13.9912 22.7422ZM13.9912 20.9316C9.95703 20.9316 6.73145 17.6885 6.73145 13.6543C6.73145 9.62012 9.95703 6.38574 13.9824 6.38574C18.0166 6.38574 21.2598 9.62012 21.2686 13.6543C21.2773 17.6885 18.0254 20.9316 13.9912 20.9316ZM9.96582 11.4131C9.68457 11.958 9.75488 12.2129 10.2646 12.4941L12.3389 13.6191L10.2559 14.8232C9.74609 15.1221 9.67578 15.3682 9.97461 15.9043L10.0361 16.0098C10.335 16.5371 10.5986 16.6074 11.1084 16.3086L13.1035 15.1484V17.4775C13.0947 18.0664 13.2969 18.2598 13.9297 18.2598H14.0527C14.668 18.2598 14.8701 18.0664 14.8701 17.4688V15.1484L16.8652 16.3086C17.3926 16.625 17.6475 16.5459 17.9287 16.0098L17.9902 15.9043C18.2715 15.3594 18.2012 15.1045 17.7178 14.8232L15.626 13.6191L17.709 12.4941C18.2188 12.2129 18.2891 11.9492 18.0078 11.4131L17.9375 11.2988C17.6562 10.7539 17.3926 10.6748 16.8477 11L14.8701 12.1602V9.83984C14.8701 9.25977 14.668 9.06641 14.0527 9.06641H13.9297C13.2969 9.06641 13.1035 9.25977 13.1035 9.83984V12.1602L11.1172 11C10.5723 10.6924 10.3086 10.7539 10.0361 11.2988L9.96582 11.4131Z" fill="#1C1C1E"/>
</svg>
