<svg width="28" height="28" viewBox="0 0 28 28" fill="none" xmlns="http://www.w3.org/2000/svg">
<path d="M13.6045 23.085H14.3779C15.8457 23.085 16.5752 22.417 16.5752 21.0371V18.1191L19.0977 19.5869C19.5195 19.8242 19.915 19.9473 20.2666 19.9473C20.9346 19.9473 21.4971 19.5342 21.9717 18.708L22.3584 18.0312C22.6396 17.5479 22.7803 17.1084 22.7803 16.7129C22.7803 16.0625 22.4111 15.5264 21.6816 15.1045L19.1592 13.6543L21.6729 12.2041C22.4023 11.7822 22.7715 11.2461 22.7715 10.6045C22.7715 10.209 22.6309 9.76953 22.3496 9.28613L21.9717 8.61816C21.4883 7.7832 20.917 7.37012 20.249 7.37012C19.8887 7.37012 19.5107 7.48438 19.0889 7.73047L16.5752 9.18066V6.28027C16.5752 4.90039 15.8457 4.23242 14.3779 4.23242H13.6045C12.1367 4.23242 11.416 4.90039 11.416 6.28027V9.18066L8.90234 7.73047C8.48926 7.48438 8.10254 7.37012 7.74219 7.37012C7.07422 7.37012 6.51172 7.7832 6.02832 8.61816L5.6416 9.28613C5.36035 9.76953 5.21973 10.209 5.21973 10.6045C5.21973 11.2461 5.58887 11.7822 6.31836 12.2041L8.83203 13.6543L6.30957 15.1045C5.58008 15.5264 5.21094 16.0625 5.21094 16.7129C5.21094 17.1084 5.35156 17.5479 5.63281 18.0312L6.02832 18.708C6.50293 19.5342 7.06543 19.9473 7.72461 19.9473C8.08496 19.9473 8.48047 19.8242 8.89355 19.5869L11.416 18.1191V21.0371C11.416 22.417 12.1367 23.085 13.6045 23.085ZM13.8682 21.5908C13.1738 21.5908 12.9717 21.4062 12.9717 20.7471L12.9805 15.8252C12.9805 15.6846 12.8838 15.5879 12.7607 15.5879C12.708 15.5879 12.6641 15.5967 12.6201 15.623L8.38379 18.084C8.17285 18.207 7.99707 18.2686 7.84766 18.2686C7.60156 18.2686 7.41699 18.0928 7.20605 17.7236L7.07422 17.5039C6.94238 17.2578 6.86328 17.0732 6.86328 16.9062C6.86328 16.6689 7.0127 16.4932 7.35547 16.2998L11.6621 13.8213C11.75 13.7686 11.8027 13.6895 11.8027 13.6104C11.8027 13.5225 11.75 13.4434 11.6533 13.3906L7.36426 11.0176C7.02148 10.8154 6.87207 10.6396 6.87207 10.3936C6.87207 10.2354 6.94238 10.0508 7.07422 9.81348L7.20605 9.58496C7.41699 9.21582 7.61035 9.04004 7.85645 9.04004C8.00586 9.04004 8.18164 9.10156 8.39258 9.22461L12.6113 11.6768C12.6553 11.7031 12.6992 11.7207 12.752 11.7207C12.8838 11.7207 12.9805 11.6152 12.9805 11.4658L12.9717 6.58789C12.9717 5.91992 13.1738 5.73535 13.8682 5.73535H14.123C14.8174 5.73535 15.0195 5.91992 15.0195 6.58789L15.0107 11.4658C15.0107 11.6152 15.1074 11.7207 15.2393 11.7207C15.292 11.7207 15.3271 11.7031 15.3799 11.6768L19.5986 9.22461C19.8184 9.10156 19.9941 9.04004 20.1436 9.04004C20.3896 9.04004 20.5742 9.20703 20.7852 9.58496L20.917 9.81348C21.0576 10.0508 21.1279 10.2441 21.1279 10.4023C21.1279 10.6396 20.9697 10.8154 20.627 11.0176L16.3467 13.3906C16.25 13.4434 16.1973 13.5225 16.1973 13.6104C16.1973 13.6895 16.2412 13.7686 16.3291 13.8213L20.6357 16.2998C20.9785 16.4932 21.1367 16.6689 21.1367 16.9062C21.1367 17.0732 21.0576 17.2578 20.917 17.5039L20.7939 17.7236C20.5742 18.0928 20.3984 18.2686 20.1523 18.2686C19.9941 18.2686 19.8271 18.1982 19.6074 18.084L15.3711 15.623C15.3271 15.5967 15.2832 15.5879 15.2393 15.5879C15.1074 15.5879 15.0107 15.6846 15.0107 15.8252L15.0195 20.7471C15.0195 21.4062 14.8174 21.5908 14.123 21.5908H13.8682Z" fill="#1C1C1E"/>
</svg>
