<svg width="28" height="28" viewBox="0 0 28 28" fill="none" xmlns="http://www.w3.org/2000/svg">
<path d="M7.90906 22.2676C8.32215 22.584 8.83191 22.4785 9.42957 22.0479L13.9999 18.6904L18.5702 22.0479C19.1678 22.4785 19.6864 22.584 20.0995 22.2676C20.5038 21.96 20.5917 21.4502 20.3544 20.7559L18.5526 15.3857L23.1669 12.0723C23.7557 11.6504 24.0106 11.1846 23.8436 10.6924C23.6766 10.209 23.2108 9.97168 22.4813 9.98047L16.8212 10.0156L15.0985 4.61914C14.8788 3.91602 14.5184 3.53809 13.9999 3.53809C13.4901 3.53809 13.1298 3.91602 12.9012 4.61914L11.1786 10.0156L5.51844 9.98047C4.78894 9.97168 4.33191 10.209 4.16492 10.6924C3.99793 11.1846 4.24402 11.6504 4.84168 12.0723L9.45594 15.3857L7.64539 20.7559C7.40808 21.4502 7.49597 21.96 7.90906 22.2676ZM13.9999 16.8711V6.15723C14.0262 6.15723 14.035 6.16602 14.0526 6.21875L15.4589 11.0176C15.5907 11.457 15.828 11.6064 16.2762 11.5889L21.2772 11.4746C21.33 11.4746 21.3475 11.4834 21.3563 11.501C21.3651 11.5273 21.3563 11.5361 21.3124 11.5625L17.1903 14.3926C16.786 14.665 16.7333 14.9287 16.8827 15.3594L18.5526 20.0791C18.5702 20.123 18.5702 20.1318 18.5526 20.1494C18.535 20.1758 18.5175 20.1582 18.4823 20.1406L14.5184 17.082C14.3427 16.9414 14.1669 16.8711 13.9999 16.8711Z" fill="#1C1C1E"/>
</svg>
