<svg width="28" height="28" viewBox="0 0 28 28" fill="none" xmlns="http://www.w3.org/2000/svg">
<path d="M13.9912 22.751C18.9746 22.751 23.0879 18.6377 23.0879 13.6543C23.0879 8.67969 18.9658 4.56641 13.9824 4.56641C9.00781 4.56641 4.90332 8.67969 4.90332 13.6543C4.90332 18.6377 9.0166 22.751 13.9912 22.751ZM11.1875 17.6973C10.8184 17.6973 10.5635 17.46 10.5635 17.082C10.5635 16.7393 10.7393 16.5547 11.082 16.3965C11.6797 16.1855 12.207 15.5967 12.207 14.709C12.207 14.4717 12.1631 14.2168 12.1016 13.9619H11.0908C10.7832 13.9619 10.5547 13.751 10.5547 13.4521C10.5547 13.1445 10.7832 12.9336 11.0908 12.9336H11.873C11.7764 12.5996 11.7236 12.248 11.7236 11.8965C11.7236 10.2354 12.875 9.1543 14.791 9.1543C15.4414 9.1543 15.9688 9.24219 16.3906 9.41797C16.7158 9.55859 16.8389 9.76953 16.8389 10.0332C16.8389 10.376 16.6455 10.5781 16.2764 10.5781C15.9863 10.5781 15.6611 10.3936 14.9316 10.3936C13.7979 10.3936 13.1475 11 13.1475 11.9053C13.1475 12.292 13.2178 12.626 13.2969 12.9336H15.6699C15.9863 12.9336 16.2061 13.1445 16.2061 13.4521C16.2061 13.751 15.9863 13.9619 15.6699 13.9619H13.5254C13.5781 14.1904 13.6045 14.4365 13.6045 14.709C13.6045 15.4121 13.3232 16.0625 12.875 16.4492H16.5312C16.9092 16.4492 17.1816 16.6953 17.1816 17.0732C17.1816 17.46 16.9092 17.6973 16.5312 17.6973H11.1875Z" fill="#1C1C1E"/>
</svg>
