<svg width="28" height="28" viewBox="0 0 28 28" fill="none" xmlns="http://www.w3.org/2000/svg">
<path d="M13.9912 22.7422C18.9746 22.7422 23.0879 18.6289 23.0879 13.6543C23.0879 11.6416 22.4111 9.76953 21.2773 8.25781L21.9805 7.55469C22.209 7.32617 22.332 7.05371 22.332 6.79004C22.332 6.24512 21.9014 5.81445 21.3477 5.81445C21.0225 5.81445 20.7939 5.91113 20.5654 6.13086L19.9062 6.78125C18.5527 5.6123 16.8564 4.83887 15.0107 4.61914V3.73145C15.0107 3.15137 14.5537 2.68555 13.9912 2.68555C13.4375 2.68555 12.9717 3.15137 12.9717 3.73145V4.61914C8.46289 5.1377 4.90332 9.02246 4.90332 13.6543C4.90332 18.6289 9.0166 22.7422 13.9912 22.7422ZM13.9912 15.1836C13.1475 15.1836 12.4707 14.5068 12.4707 13.6631C12.4707 13.1006 12.7871 12.6172 13.2969 12.3271V8.09961C13.2969 7.71289 13.5957 7.40527 13.9824 7.40527C14.3779 7.40527 14.6855 7.71289 14.6855 8.09961V12.3359C15.1953 12.6084 15.5029 13.0918 15.5029 13.6631C15.5029 14.5068 14.835 15.1836 13.9912 15.1836Z" fill="#1C1C1E"/>
</svg>
