<svg width="28" height="28" viewBox="0 0 28 28" fill="none" xmlns="http://www.w3.org/2000/svg">
<path d="M21.0576 22.2148V7.98535H21.541C23.4307 7.98535 24.3887 8.93457 24.3887 10.7979V19.4023C24.3887 21.2656 23.4307 22.2148 21.541 22.2148H21.0576ZM10.4492 7.15039V7.98535H17.5508V7.15039C17.5508 6.7373 17.2783 6.47363 16.8213 6.47363H11.1787C10.7305 6.47363 10.4492 6.7373 10.4492 7.15039ZM19.5459 7.98535V22.2148H8.4541V7.98535H8.67383V7.07129C8.67383 5.68262 9.57031 4.85645 11.0645 4.85645H16.9355C18.4297 4.85645 19.3262 5.68262 19.3262 7.07129V7.98535H19.5459ZM6.4502 22.2148C4.57812 22.2148 3.61133 21.2656 3.61133 19.4023V10.7979C3.61133 8.93457 4.57812 7.98535 6.4502 7.98535H6.94238V22.2148H6.4502Z" fill="#1C1C1E"/>
</svg>
