<svg width="28" height="28" viewBox="0 0 28 28" fill="none" xmlns="http://www.w3.org/2000/svg">
<path d="M14.8965 4.68945C14.8965 4.20605 14.4834 3.79297 14 3.79297C13.5166 3.79297 13.1123 4.20605 13.1123 4.68945V6.47363C13.1123 6.95703 13.5166 7.36133 14 7.36133C14.4834 7.36133 14.8965 6.95703 14.8965 6.47363V4.68945ZM18.4121 7.95898C18.0693 8.30176 18.0693 8.87305 18.4209 9.21582C18.7549 9.55859 19.335 9.55859 19.6777 9.20703L20.9434 7.94141C21.2861 7.60742 21.2861 7.01855 20.9434 6.67578C20.6006 6.3418 20.0293 6.3418 19.6865 6.68457L18.4121 7.95898ZM8.32227 9.20703C8.65625 9.55859 9.23633 9.55859 9.5791 9.21582C9.92188 8.88184 9.92188 8.29297 9.58789 7.95898L8.32227 6.68457C7.98828 6.35059 7.4082 6.3418 7.06543 6.67578C6.72266 7.01855 6.72266 7.60742 7.05664 7.93262L8.32227 9.20703ZM14 8.9873C11.4688 8.9873 9.36816 11.0791 9.36816 13.6191C9.36816 16.1592 11.4688 18.251 14 18.251C16.5312 18.251 18.623 16.1592 18.623 13.6191C18.623 11.0791 16.5312 8.9873 14 8.9873ZM14 10.6484C15.6172 10.6484 16.9707 11.9932 16.9707 13.6191C16.9707 15.2451 15.6172 16.5898 14 16.5898C12.374 16.5898 11.0205 15.2451 11.0205 13.6191C11.0205 11.9932 12.374 10.6484 14 10.6484ZM22.9209 14.5156C23.4043 14.5156 23.8086 14.1025 23.8086 13.6191C23.8086 13.1357 23.4043 12.7314 22.9209 12.7314H21.1367C20.6533 12.7314 20.249 13.1357 20.249 13.6191C20.249 14.1025 20.6533 14.5156 21.1367 14.5156H22.9209ZM5.08789 12.7314C4.5957 12.7314 4.19141 13.1357 4.19141 13.6191C4.19141 14.1025 4.5957 14.5156 5.08789 14.5156H6.86328C7.34668 14.5156 7.75977 14.1025 7.75977 13.6191C7.75977 13.1357 7.34668 12.7314 6.86328 12.7314H5.08789ZM19.6689 18.0312C19.3262 17.6885 18.7549 17.6973 18.4121 18.04C18.0693 18.374 18.0693 18.9453 18.4209 19.2969L19.6953 20.5625C20.0293 20.9053 20.6094 20.8965 20.9521 20.5537C21.2861 20.2109 21.2861 19.6396 20.9434 19.2969L19.6689 18.0312ZM7.05664 19.2881C6.71387 19.6309 6.70508 20.2109 7.03906 20.5449C7.38184 20.8877 7.9707 20.8965 8.30469 20.5625L9.5791 19.2969C9.92188 18.9541 9.92188 18.374 9.58789 18.04C9.24512 17.6973 8.66504 17.6973 8.32227 18.0312L7.05664 19.2881ZM14.8965 20.7646C14.8965 20.2812 14.4834 19.877 14 19.877C13.5166 19.877 13.1123 20.2812 13.1123 20.7646V22.5488C13.1123 23.0322 13.5166 23.4453 14 23.4453C14.4834 23.4453 14.8965 23.0322 14.8965 22.5488V20.7646Z" fill="#1C1C1E"/>
</svg>
