<svg width="28" height="28" viewBox="0 0 28 28" fill="none" xmlns="http://www.w3.org/2000/svg">
<path d="M14 8.47754C14.4219 8.46875 14.7734 8.1084 14.7734 7.625V5.58594C14.7734 5.10254 14.4219 4.75098 14 4.75098C13.5693 4.75098 13.2178 5.10254 13.2178 5.58594V7.625C13.2178 8.1084 13.5693 8.47754 14 8.47754ZM18.5352 10.3496C18.8428 10.6484 19.3438 10.6484 19.6865 10.3057L21.1279 8.86426C21.4707 8.52148 21.4619 8.0293 21.1631 7.72168C20.8643 7.41406 20.3633 7.41406 20.0205 7.75684L18.5791 9.19824C18.2363 9.54102 18.2275 10.0508 18.5352 10.3496ZM9.45605 10.3496C9.75488 10.042 9.75488 9.54102 9.41211 9.19824L7.9707 7.75684C7.62793 7.41406 7.12695 7.42285 6.82812 7.72168C6.52051 8.02051 6.52051 8.52148 6.86328 8.86426L8.30469 10.3057C8.64746 10.6484 9.15723 10.6572 9.45605 10.3496ZM3.60254 19.2354H24.3887C24.8633 19.2354 25.2588 18.8486 25.2588 18.4004C25.2588 17.9434 24.8633 17.5742 24.3887 17.5742H17.9551C18.5 16.8096 18.8076 15.8779 18.8076 14.8848C18.8076 12.2393 16.6279 10.0596 14 10.0596C11.3633 10.0596 9.18359 12.2393 9.18359 14.8848C9.18359 15.8779 9.49121 16.8096 10.0361 17.5742H3.60254C3.12793 17.5742 2.73242 17.9521 2.73242 18.4004C2.73242 18.8486 3.12793 19.2354 3.60254 19.2354ZM10.7744 14.8936C10.7744 13.1094 12.2334 11.6592 14 11.6592C15.7578 11.6592 17.2168 13.1094 17.2168 14.8936C17.2168 16.001 16.6455 16.9941 15.8018 17.5742H12.1895C11.3457 16.9941 10.7744 16.001 10.7744 14.8936ZM4.69238 15.333H6.73145C7.21484 15.333 7.58398 14.9814 7.58398 14.5508C7.5752 14.1201 7.21484 13.7773 6.73145 13.7773H4.69238C4.21777 13.7773 3.85742 14.1201 3.85742 14.5508C3.85742 14.9814 4.21777 15.333 4.69238 15.333ZM21.2598 15.333H23.2988C23.7822 15.333 24.1338 14.9814 24.1338 14.5508C24.1338 14.1201 23.7822 13.7773 23.2988 13.7773H21.2598C20.7764 13.7773 20.4072 14.1201 20.4072 14.5508C20.416 14.9814 20.7852 15.333 21.2598 15.333Z" fill="#1C1C1E"/>
</svg>
