<svg width="28" height="28" viewBox="0 0 28 28" fill="none" xmlns="http://www.w3.org/2000/svg">
<path d="M14 9.66406C14.4219 9.66406 14.7822 9.28613 14.7822 8.82031V5.71777L14.6504 4.3291L15.2744 5.10254L16.2852 6.13965C16.4258 6.29785 16.6191 6.40332 16.8301 6.40332C17.2344 6.40332 17.5156 6.12207 17.5156 5.73535C17.5156 5.51562 17.4189 5.34863 17.2432 5.18164L14.5449 2.65039C14.3428 2.46582 14.1934 2.39551 14 2.39551C13.7979 2.39551 13.6484 2.46582 13.4463 2.65039L10.748 5.18164C10.5723 5.34863 10.4756 5.51562 10.4756 5.73535C10.4756 6.12207 10.7568 6.40332 11.1611 6.40332C11.3721 6.40332 11.5654 6.29785 11.7061 6.13965L12.7871 5.03223L13.3408 4.3291L13.209 5.71777V8.82031C13.209 9.28613 13.5693 9.66406 14 9.66406ZM18.5352 12.0283C18.8428 12.3359 19.3525 12.3271 19.6953 11.9844L21.1279 10.5518C21.4795 10.209 21.4707 9.70801 21.1631 9.40039C20.873 9.09277 20.3633 9.09277 20.0205 9.43555L18.5791 10.877C18.2363 11.2197 18.2275 11.7295 18.5352 12.0283ZM9.45605 12.0283C9.76367 11.7207 9.75488 11.2197 9.4209 10.877L7.97949 9.43555C7.63672 9.09277 7.13574 9.10156 6.82812 9.40039C6.52051 9.69922 6.52051 10.209 6.86328 10.5518L8.30469 11.9844C8.64746 12.3271 9.15723 12.3359 9.45605 12.0283ZM3.61133 20.9316H24.3799C24.8633 20.9316 25.2588 20.5449 25.2588 20.0879C25.2588 19.6221 24.8633 19.2441 24.3799 19.2441H17.9639C18.5088 18.4795 18.8164 17.5566 18.8164 16.5723C18.8164 13.918 16.6367 11.7383 14 11.7383C11.3633 11.7383 9.18359 13.918 9.18359 16.5723C9.18359 17.5566 9.49121 18.4795 10.0361 19.2441H3.61133C3.12793 19.2441 2.73242 19.6309 2.73242 20.0879C2.73242 20.5361 3.13672 20.9316 3.61133 20.9316ZM10.792 16.5723C10.792 14.7969 12.2422 13.3643 14 13.3643C15.7578 13.3643 17.1992 14.7969 17.1992 16.5723C17.1992 17.6797 16.6279 18.6641 15.8018 19.2441H12.1982C11.3633 18.6729 10.792 17.6797 10.792 16.5723ZM4.70117 17.0029H6.73145C7.21484 17.0029 7.59277 16.6514 7.58398 16.2207C7.5752 15.79 7.21484 15.4385 6.73145 15.4385H4.70117C4.21777 15.4385 3.85742 15.79 3.85742 16.2207C3.85742 16.6514 4.22656 17.0029 4.70117 17.0029ZM21.2686 17.0029H23.2988C23.7822 17.0029 24.1426 16.6514 24.1426 16.2207C24.1426 15.79 23.7822 15.4385 23.2988 15.4385H21.2686C20.7852 15.4385 20.4072 15.79 20.416 16.2207C20.4248 16.6514 20.7852 17.0029 21.2686 17.0029Z" fill="#1C1C1E"/>
</svg>
