<svg width="28" height="28" viewBox="0 0 28 28" fill="none" xmlns="http://www.w3.org/2000/svg">
<path d="M14 9.66406C14.4219 9.66406 14.7822 9.28613 14.7822 8.82031V5.71777L14.6504 4.3291L15.2744 5.10254L16.2852 6.13965C16.4258 6.29785 16.6191 6.40332 16.8301 6.40332C17.2344 6.40332 17.5156 6.12207 17.5156 5.73535C17.5156 5.51562 17.4189 5.34863 17.2432 5.18164L14.5449 2.65039C14.3428 2.46582 14.1934 2.39551 14 2.39551C13.7979 2.39551 13.6484 2.46582 13.4463 2.65039L10.748 5.18164C10.5723 5.34863 10.4756 5.51562 10.4756 5.73535C10.4756 6.12207 10.7568 6.40332 11.1611 6.40332C11.3721 6.40332 11.5654 6.29785 11.7061 6.13965L12.7871 5.03223L13.3408 4.3291L13.209 5.71777V8.82031C13.209 9.28613 13.5693 9.66406 14 9.66406ZM18.5352 12.002C18.8428 12.3008 19.3525 12.3008 19.6953 11.958L21.1279 10.5254C21.4795 10.1826 21.4707 9.68164 21.1631 9.37402C20.873 9.06641 20.3633 9.06641 20.0205 9.40918L18.5791 10.8506C18.2363 11.1846 18.2275 11.7031 18.5352 12.002ZM8.30469 11.958C8.64746 12.3008 9.15723 12.3096 9.45605 12.002C9.76367 11.6943 9.75488 11.1846 9.4209 10.8506L7.97949 9.40918C7.63672 9.06641 7.13574 9.0752 6.82812 9.37402C6.52051 9.67285 6.52051 10.1826 6.86328 10.5254L8.30469 11.958ZM18.7637 16.5283C18.7637 13.9092 16.6104 11.7471 14 11.7471C11.3896 11.7471 9.22754 13.9092 9.22754 16.5283C9.22754 17.0908 9.3418 17.627 9.55273 18.1191H18.4473C18.6494 17.627 18.7637 17.0908 18.7637 16.5283ZM4.70117 16.9766H6.73145C7.21484 16.9766 7.59277 16.625 7.58398 16.1943C7.5752 15.7637 7.21484 15.4121 6.73145 15.4121H4.70117C4.21777 15.4121 3.85742 15.7637 3.85742 16.1943C3.85742 16.625 4.22656 16.9766 4.70117 16.9766ZM21.2686 16.9766H23.2988C23.7822 16.9766 24.1426 16.625 24.1426 16.1943C24.1426 15.7637 23.7822 15.4121 23.2988 15.4121H21.2686C20.7852 15.4121 20.4072 15.7637 20.416 16.1943C20.4248 16.625 20.7852 16.9766 21.2686 16.9766ZM3.61133 20.9316H24.3799C24.8633 20.9316 25.2588 20.5449 25.2588 20.0879C25.2588 19.6221 24.8633 19.2441 24.3799 19.2441H3.61133C3.12793 19.2441 2.73242 19.6309 2.73242 20.0879C2.73242 20.5361 3.13672 20.9316 3.61133 20.9316Z" fill="#1C1C1E"/>
</svg>
