<svg width="28" height="28" viewBox="0 0 28 28" fill="none" xmlns="http://www.w3.org/2000/svg">
<path d="M13.9912 22.7598C18.9746 22.7598 23.0879 18.6465 23.0879 13.6631C23.0879 8.68848 18.9658 4.5752 13.9824 4.5752C9.00781 4.5752 4.90332 8.68848 4.90332 13.6631C4.90332 18.6465 9.0166 22.7598 13.9912 22.7598ZM18.8076 11.2197V12.8984C18.8076 13.4609 18.5703 13.6895 18.2275 14.0234L13.8506 18.3652C13.2529 18.9629 12.6553 18.9189 12.0664 18.3477L9.46484 15.7285C8.89355 15.1484 8.8584 14.5508 9.44727 13.9619L13.7715 9.58496C14.1143 9.24219 14.3604 9.00488 14.8965 9.00488H16.6455C17.0586 9.00488 17.3047 9.17188 17.5947 9.45312L18.4121 10.2617C18.7021 10.5518 18.8076 10.7891 18.8076 11.2197ZM15.5117 12.292C15.7842 12.5645 16.2148 12.5645 16.4873 12.292C16.7598 12.0195 16.7598 11.5801 16.4961 11.3076C16.2236 11.0439 15.7842 11.0439 15.5117 11.3076C15.2393 11.5889 15.2393 12.0283 15.5117 12.292Z" fill="#1C1C1E"/>
</svg>
