<svg width="28" height="28" viewBox="0 0 28 28" fill="none" xmlns="http://www.w3.org/2000/svg">
<path d="M18.8514 16.5371L20.0995 17.7764L23.2548 14.6123C23.9403 13.918 24.0106 13.5137 24.0106 12.5117V9.18066C24.0106 8.20508 23.7821 7.87109 23.0702 7.15918L21.0575 5.14648C20.3368 4.43457 20.0028 4.20605 19.036 4.20605H15.6962C14.703 4.20605 14.2987 4.27637 13.6132 4.9707L10.4491 8.12598L11.6884 9.36523L14.8612 6.20117C15.037 6.02539 15.204 5.91992 15.4852 5.91992H19.0184C19.2821 5.91992 19.4667 6.0166 19.6425 6.19238L22.0243 8.57422C22.1913 8.75 22.288 8.92578 22.288 9.19824V12.7314C22.288 13.0215 22.2001 13.1885 22.0243 13.3643L18.8514 16.5371ZM21.3739 22.5752C21.6464 22.8477 22.0946 22.8477 22.3671 22.5752C22.6307 22.3027 22.6395 21.8633 22.3671 21.582L6.62586 5.84961C6.3534 5.57715 5.90515 5.56836 5.6239 5.84961C5.36023 6.11328 5.36023 6.57031 5.6239 6.84277L21.3739 22.5752ZM17.9374 11.5361C18.6581 11.5361 19.203 10.9824 19.203 10.2705C19.203 9.56738 18.6581 9.00488 17.9374 9.00488C17.2255 9.00488 16.6805 9.56738 16.6805 10.2705C16.6805 10.9824 17.2255 11.5361 17.9374 11.5361ZM17.5595 20.3164L16.3202 19.0684L13.5077 21.8896C12.9276 22.4697 12.3212 22.4785 11.7235 21.8809L6.33582 16.502C5.73816 15.9043 5.75574 15.2891 6.32703 14.7178L9.15711 11.8965L7.91785 10.6572L4.9823 13.584C3.66394 14.9023 3.64637 16.2998 4.99109 17.627L10.5985 23.2344C11.9345 24.5615 13.3231 24.5527 14.6415 23.2344L17.5595 20.3164Z" fill="#1C1C1E"/>
</svg>
