<svg width="28" height="28" viewBox="0 0 28 28" fill="none" xmlns="http://www.w3.org/2000/svg">
<path d="M14 4.90918C8.10254 4.90918 3.45312 6.81641 3.45312 10.4287V10.4375C3.45312 11.7471 4.18262 12.125 5.43066 11.9932L8.63867 11.6592C9.85156 11.5273 10.0977 10.9209 10.0977 9.9541V9.68164C10.0977 8.89062 11.1787 8.54785 14 8.54785C16.9883 8.54785 17.9023 8.84668 17.9023 9.69043V9.9541C17.9023 10.8945 18.1484 11.5273 19.3613 11.6592L22.5693 11.9932C23.8174 12.125 24.5469 11.7471 24.5469 10.4287C24.5469 6.81641 19.9062 4.90918 14 4.90918ZM6.13379 16.9854H7.77734C8.41016 16.9854 8.76172 16.6338 8.76172 15.9922V14.3398C8.76172 13.707 8.41016 13.3467 7.77734 13.3467H6.13379C5.49219 13.3467 5.12305 13.707 5.12305 14.3398V15.9922C5.12305 16.6338 5.49219 16.9854 6.13379 16.9854ZM10.8447 16.9854H12.4883C13.1123 16.9854 13.4814 16.6338 13.4814 15.9922V14.3398C13.4814 13.707 13.1123 13.3467 12.4883 13.3467H10.8447C10.2031 13.3467 9.8252 13.707 9.8252 14.3398V15.9922C9.8252 16.6338 10.2031 16.9854 10.8447 16.9854ZM15.5381 16.9854H17.1816C17.8145 16.9854 18.1836 16.6338 18.1836 15.9922V14.3398C18.1836 13.707 17.8145 13.3467 17.1816 13.3467H15.5381C14.9053 13.3467 14.5449 13.707 14.5449 14.3398V15.9922C14.5449 16.6338 14.9053 16.9854 15.5381 16.9854ZM20.2314 16.9854H21.8838C22.5254 16.9854 22.9033 16.6338 22.9033 15.9922V14.3398C22.9033 13.707 22.5254 13.3467 21.8838 13.3467H20.2314C19.6074 13.3467 19.2559 13.707 19.2559 14.3398V15.9922C19.2559 16.6338 19.6074 16.9854 20.2314 16.9854ZM6.10742 21.7051H7.75977C8.39258 21.7051 8.76172 21.3447 8.76172 20.7119V19.042C8.76172 18.418 8.39258 18.0488 7.75977 18.0488H6.10742C5.4834 18.0488 5.12305 18.418 5.12305 19.042V20.7119C5.12305 21.3447 5.4834 21.7051 6.10742 21.7051ZM10.8184 21.7051H17.208C17.8496 21.7051 18.2012 21.3447 18.2012 20.7119V19.042C18.2012 18.418 17.8496 18.0488 17.208 18.0488H10.8184C10.1768 18.0488 9.8252 18.418 9.8252 19.042V20.7119C9.8252 21.3447 10.1768 21.7051 10.8184 21.7051ZM20.2666 21.7051H21.9189C22.5518 21.7051 22.9033 21.3447 22.9033 20.7119V19.042C22.9033 18.418 22.5518 18.0488 21.9189 18.0488H20.2666C19.6338 18.0488 19.2646 18.418 19.2646 19.042V20.7119C19.2646 21.3447 19.6338 21.7051 20.2666 21.7051Z" fill="#1C1C1E"/>
</svg>
