<svg width="28" height="28" viewBox="0 0 28 28" fill="none" xmlns="http://www.w3.org/2000/svg">
<path d="M17.1377 21.9863C18.0693 21.0547 17.8145 20.2812 16.8477 19.4814L14.3428 17.4511C13.4023 16.6777 12.7871 16.9853 12.1104 17.6357L11.917 17.8115C11.3105 18.3916 10.4668 17.9697 8.35742 15.8603C6.36231 13.8652 5.83496 12.8632 6.39746 12.292L6.58203 12.1074C7.26758 11.4218 7.53125 10.8154 6.7666 9.86618L4.72754 7.36129C3.93653 6.3945 3.1543 6.13961 2.22266 7.07126C-0.299803 9.59372 1.53711 14.1904 5.78223 18.4355C9.95703 22.6103 14.5889 24.5439 17.1377 21.9863ZM9.92188 10.5693H11.5654C12.1982 10.5693 12.5498 10.2177 12.5498 9.57614V7.92379C12.5498 7.29098 12.1982 6.93063 11.5654 6.93063H9.92188C9.28028 6.93063 8.91113 7.29098 8.91113 7.92379V9.57614C8.91113 10.2177 9.28028 10.5693 9.92188 10.5693ZM14.6328 10.5693H16.2764C16.9004 10.5693 17.2695 10.2177 17.2695 9.57614V7.92379C17.2695 7.29098 16.9004 6.93063 16.2764 6.93063H14.6328C13.9912 6.93063 13.6221 7.29098 13.6221 7.92379V9.57614C13.6221 10.2177 13.9912 10.5693 14.6328 10.5693ZM19.3262 10.5693H20.9697C21.6025 10.5693 21.9805 10.2177 21.9805 9.57614V7.92379C21.9805 7.29098 21.6025 6.93063 20.9697 6.93063H19.3262C18.6934 6.93063 18.333 7.29098 18.333 7.92379V9.57614C18.333 10.2177 18.6934 10.5693 19.3262 10.5693ZM24.0283 10.5693H25.6719C26.3135 10.5693 26.6914 10.2177 26.6914 9.57614V7.92379C26.6914 7.29098 26.3135 6.93063 25.6719 6.93063H24.0283C23.3955 6.93063 23.0439 7.29098 23.0439 7.92379V9.57614C23.0439 10.2177 23.3955 10.5693 24.0283 10.5693ZM9.89551 15.289H11.5479C12.1807 15.289 12.5498 14.9287 12.5498 14.2959V12.6259C12.5498 12.0019 12.1807 11.6328 11.5479 11.6328H9.89551C9.27149 11.6328 8.91113 12.0019 8.91113 12.6259V14.2959C8.91113 14.9287 9.27149 15.289 9.89551 15.289ZM14.6064 15.289H20.9961C21.6377 15.289 21.9893 14.9287 21.9893 14.2959V12.6259C21.9893 12.0019 21.6377 11.6328 20.9961 11.6328H14.6064C13.9736 11.6328 13.6221 12.0019 13.6221 12.6259V14.2959C13.6221 14.9287 13.9736 15.289 14.6064 15.289ZM24.0547 15.289H25.707C26.3398 15.289 26.6914 14.9287 26.6914 14.2959V12.6259C26.6914 12.0019 26.3398 11.6328 25.707 11.6328H24.0547C23.4219 11.6328 23.0527 12.0019 23.0527 12.6259V14.2959C23.0527 14.9287 23.4219 15.289 24.0547 15.289Z" fill="#1C1C1E"/>
</svg>
