<svg width="28" height="28" viewBox="0 0 28 28" fill="none" xmlns="http://www.w3.org/2000/svg">
<path d="M14 22.7422C18.9658 22.7422 23.0791 18.6377 23.0791 13.6631C23.0791 8.69727 18.9658 4.58398 13.9912 4.58398C9.02539 4.58398 4.9209 8.69727 4.9209 13.6631C4.9209 18.6377 9.03418 22.7422 14 22.7422ZM15.3184 18.2686C14.0703 19.5166 11.8291 18.585 9.80762 16.5459C7.7334 14.4805 6.83691 12.2656 8.06738 11.0176C8.52441 10.5605 8.89355 10.7012 9.28027 11.167L10.2734 12.3799C10.6426 12.8369 10.502 13.1182 10.1855 13.4609L10.0977 13.5664C9.84277 13.8564 10.0889 14.3398 11.0469 15.3066C12.0752 16.3086 12.4619 16.5107 12.7783 16.2471L12.875 16.1592C13.209 15.8604 13.4902 15.6934 13.9561 16.0713L15.1777 17.0732C15.6523 17.4424 15.7754 17.8203 15.3184 18.2686ZM11.9521 12.5645C11.6533 12.5645 11.4775 12.3799 11.4775 12.0811V11.2812C11.4775 10.9648 11.6533 10.8066 11.9521 10.8066H12.7607C13.0684 10.8066 13.2441 10.9648 13.2441 11.2812V12.0811C13.2441 12.3799 13.0684 12.5645 12.7607 12.5645H11.9521ZM14.2549 12.5645C13.9473 12.5645 13.7539 12.3799 13.7539 12.0811V11.2812C13.7539 10.9648 13.9473 10.8066 14.2549 10.8066H15.0547C15.3535 10.8066 15.5293 10.9648 15.5293 11.2812V12.0811C15.5293 12.3799 15.3535 12.5645 15.0547 12.5645H14.2549ZM16.5312 12.5645C16.2324 12.5645 16.0566 12.3799 16.0566 12.0811V11.2812C16.0566 10.9648 16.2324 10.8066 16.5312 10.8066H17.3311C17.6387 10.8066 17.832 10.9648 17.832 11.2812V12.0811C17.832 12.3799 17.6387 12.5645 17.3311 12.5645H16.5312ZM18.8252 12.5645C18.5264 12.5645 18.3506 12.3799 18.3506 12.0811V11.2812C18.3506 10.9648 18.5264 10.8066 18.8252 10.8066H19.625C19.9502 10.8066 20.1348 10.9648 20.1348 11.2812V12.0811C20.1348 12.3799 19.9502 12.5645 19.625 12.5645H18.8252ZM11.9434 14.8672C11.6357 14.8672 11.4775 14.6914 11.4775 14.375V13.5752C11.4775 13.2588 11.6357 13.1006 11.9434 13.1006H12.7432C13.0684 13.1006 13.2441 13.2588 13.2441 13.5752V14.375C13.2441 14.6914 13.0684 14.8672 12.7432 14.8672H11.9434ZM14.2461 14.8672C13.9385 14.8672 13.7539 14.6914 13.7539 14.375V13.5752C13.7539 13.2588 13.9385 13.1006 14.2461 13.1006H17.3574C17.665 13.1006 17.8408 13.2588 17.8408 13.5752V14.375C17.8408 14.6914 17.665 14.8672 17.3574 14.8672H14.2461ZM18.834 14.8672C18.5439 14.8672 18.3506 14.6914 18.3506 14.375V13.5752C18.3506 13.2588 18.5439 13.1006 18.834 13.1006H19.6514C19.9678 13.1006 20.1348 13.2588 20.1348 13.5752V14.375C20.1348 14.6914 19.9678 14.8672 19.6514 14.8672H18.834Z" fill="#1C1C1E"/>
</svg>
