<svg width="28" height="28" viewBox="0 0 28 28" fill="none" xmlns="http://www.w3.org/2000/svg">
<path d="M8.92871 23.0498C11.0557 23.0498 12.4355 21.6787 12.4355 19.5518V5.91992C12.9014 5.91992 13.2881 5.5332 13.2881 5.06738C13.2881 4.61035 12.9014 4.23242 12.4355 4.23242H5.41309C4.91211 4.23242 4.56055 4.60156 4.56055 5.06738C4.56055 5.5332 4.90332 5.91113 5.38672 5.91992V19.5518C5.38672 21.6787 6.78418 23.0498 8.92871 23.0498ZM19.0713 23.0498C21.207 23.0498 22.5869 21.6787 22.5869 19.5518V5.91992C23.0439 5.91992 23.4307 5.5332 23.4307 5.06738C23.4307 4.61035 23.0439 4.23242 22.5781 4.23242H15.5557C15.0635 4.23242 14.7119 4.60156 14.7119 5.06738C14.7119 5.5332 15.0547 5.91113 15.5381 5.91992V19.5518C15.5381 21.6787 16.9268 23.0498 19.0713 23.0498ZM18.9922 16.8271C19.3174 16.8271 19.5459 16.5898 19.5371 16.2822C19.5371 15.9834 19.291 15.7373 18.9922 15.7373H17.1641V13.9707H19.001C19.3086 13.9707 19.5459 13.7334 19.5459 13.417C19.5459 13.127 19.2998 12.8809 19.001 12.8809H17.1641V11.1143H19.001C19.3086 11.1143 19.5459 10.877 19.5459 10.5605C19.5459 10.2705 19.291 10.0332 18.9922 10.0332H17.1641V5.91992H20.9697V18.5586H17.1641V16.8271H18.9922ZM7.0127 8.1875V5.91992H10.8271V8.1875H7.0127ZM7.0127 11.1143V10.0332H8.84082C9.14844 10.0332 9.39453 10.2705 9.39453 10.5605C9.39453 10.877 9.15723 11.1143 8.84961 11.1143H7.0127ZM7.0127 13.9707V12.8809H8.84961C9.14844 12.8809 9.39453 13.127 9.39453 13.417C9.39453 13.7334 9.15723 13.9707 8.84961 13.9707H7.0127ZM7.0127 16.8271V15.7373H8.84082C9.14844 15.7373 9.38574 15.9834 9.38574 16.2822C9.39453 16.5898 9.16602 16.8271 8.84082 16.8271H7.0127Z" fill="#1C1C1E"/>
</svg>
