<svg width="28" height="28" viewBox="0 0 28 28" fill="none" xmlns="http://www.w3.org/2000/svg">
<path d="M5.69434 7.50195H22.2881C22.7275 7.50195 23.0791 7.15918 23.0791 6.71973C23.0791 6.28906 22.7275 5.9375 22.2881 5.9375H5.69434C5.25488 5.9375 4.91211 6.28906 4.91211 6.71973C4.91211 7.15918 5.25488 7.50195 5.69434 7.50195ZM5.69434 12.1074H15.5469C15.9863 12.1074 16.3379 11.7646 16.3379 11.3252C16.3379 10.8857 15.9863 10.543 15.5469 10.543H5.69434C5.25488 10.543 4.91211 10.8857 4.91211 11.3252C4.91211 11.7646 5.25488 12.1074 5.69434 12.1074ZM5.69434 16.7129H22.2881C22.7275 16.7129 23.0791 16.3701 23.0791 15.9307C23.0791 15.4912 22.7275 15.1484 22.2881 15.1484H5.69434C5.25488 15.1484 4.91211 15.4912 4.91211 15.9307C4.91211 16.3701 5.25488 16.7129 5.69434 16.7129ZM5.69434 21.3184H15.5469C15.9863 21.3184 16.3379 20.9668 16.3379 20.5361C16.3379 20.0967 15.9863 19.7539 15.5469 19.7539H5.69434C5.25488 19.7539 4.91211 20.0967 4.91211 20.5361C4.91211 20.9668 5.25488 21.3184 5.69434 21.3184Z" fill="#1C1C1E"/>
</svg>
