<svg width="28" height="28" viewBox="0 0 28 28" fill="none" xmlns="http://www.w3.org/2000/svg">
<g clip-path="url(#clip0_308_2512)">
<path d="M10.3262 17.3721C10.8799 17.3721 11.249 17.0205 11.249 16.4492V15.377H11.2842C11.8467 16.6162 12.9717 17.3721 14.4395 17.3721C16.8828 17.3721 18.4385 15.4648 18.4385 12.4502C18.4385 9.43555 16.874 7.51953 14.4482 7.51953C13.0244 7.51953 11.873 8.29297 11.3369 9.52344H11.2842V5.19043C11.2842 4.61035 10.915 4.22363 10.3613 4.22363C9.80762 4.22363 9.42969 4.61035 9.42969 5.19043V16.4492C9.42969 17.0293 9.78125 17.3721 10.3262 17.3721ZM23.9844 17.3721C25.7773 17.3721 27.3154 16.4229 27.8516 15.0781C27.9219 14.8936 27.957 14.7266 27.957 14.5771C27.957 14.1201 27.6143 13.8037 27.166 13.8037C26.7441 13.8037 26.542 13.9707 26.3047 14.4102C25.8564 15.333 25.1094 15.8691 24.002 15.8691C22.3936 15.8691 21.3477 14.5684 21.3477 12.4326C21.3477 10.3232 22.4023 8.99609 24.002 8.99609C25.0566 8.99609 25.8213 9.50586 26.2871 10.499C26.5068 10.9033 26.7266 11.0615 27.1221 11.0615C27.5791 11.0615 27.9219 10.7715 27.9219 10.3057C27.9219 10.1738 27.8867 10.0068 27.834 9.86621C27.3594 8.48633 25.8213 7.49316 23.958 7.49316C21.2158 7.49316 19.458 9.43555 19.458 12.4414C19.458 15.4736 21.2334 17.3721 23.9844 17.3721ZM2.82031 17.3721C4.12988 17.3721 5.37793 16.6689 5.91406 15.5527H5.94922V16.5195C5.98438 17.0557 6.32715 17.3809 6.8457 17.3809C7.38184 17.3809 7.74219 17.0381 7.74219 16.4404V10.6924C7.74219 8.75879 6.27441 7.51074 3.94531 7.51074C2.16113 7.51074 0.737305 8.24023 0.245117 9.3916C0.148438 9.60254 0.0957031 9.80469 0.0957031 9.98926C0.0957031 10.4375 0.429688 10.7451 0.895508 10.7451C1.22949 10.7451 1.47559 10.6221 1.66016 10.3496C2.16992 9.40039 2.84668 8.97852 3.88379 8.97852C5.14062 8.97852 5.90527 9.68164 5.90527 10.8242V11.5449L3.18945 11.6943C0.886719 11.8438 -0.387695 12.8545 -0.387695 14.5244C-0.387695 16.2295 0.939453 17.3721 2.82031 17.3721ZM13.9297 15.8516C12.3828 15.8516 11.2842 14.5068 11.2842 12.459C11.2842 10.4023 12.3828 9.04883 13.9297 9.04883C15.5205 9.04883 16.54 10.3672 16.54 12.4502C16.54 14.5332 15.5205 15.8516 13.9297 15.8516ZM3.32129 15.9482C2.23145 15.9482 1.48438 15.3594 1.48438 14.4541C1.48438 13.5928 2.17871 13.0215 3.43555 12.9336L5.90527 12.7754V13.6543C5.90527 14.9551 4.75391 15.9482 3.32129 15.9482ZM1.21191 23.0322C1.85352 23.0322 2.38086 22.4961 2.38086 21.8545C2.38086 21.1953 1.87109 20.6855 1.21191 20.6855C0.561523 20.6855 0.0341797 21.2041 0.0341797 21.8545C0.0341797 22.4961 0.561523 23.0322 1.21191 23.0322ZM5.55371 23.0322C6.19531 23.0322 6.72266 22.4961 6.72266 21.8545C6.72266 21.1953 6.2041 20.6855 5.55371 20.6855C4.90332 20.6855 4.37598 21.2041 4.37598 21.8545C4.37598 22.4961 4.90332 23.0322 5.55371 23.0322ZM9.87793 23.0322C10.5195 23.0322 11.0557 22.4961 11.0557 21.8545C11.0557 21.1953 10.5371 20.6855 9.87793 20.6855C9.22754 20.6855 8.7002 21.2041 8.7002 21.8545C8.7002 22.4961 9.22754 23.0322 9.87793 23.0322ZM14.2109 23.0322C14.8525 23.0322 15.3887 22.4961 15.3887 21.8545C15.3887 21.1953 14.8701 20.6855 14.2109 20.6855C13.5605 20.6855 13.0332 21.2041 13.0332 21.8545C13.0332 22.4961 13.5605 23.0322 14.2109 23.0322ZM18.5439 23.0322C19.1855 23.0322 19.7217 22.4961 19.7217 21.8545C19.7217 21.1953 19.2031 20.6855 18.5439 20.6855C17.8936 20.6855 17.3662 21.2041 17.3662 21.8545C17.3662 22.4961 17.8936 23.0322 18.5439 23.0322ZM22.877 23.0322C23.5186 23.0322 24.0459 22.4961 24.0459 21.8545C24.0459 21.1953 23.5273 20.6855 22.877 20.6855C22.2266 20.6855 21.6992 21.2041 21.6992 21.8545C21.6992 22.4961 22.2266 23.0322 22.877 23.0322ZM27.2012 23.0322C27.8428 23.0322 28.3789 22.4961 28.3789 21.8545C28.3789 21.1953 27.8604 20.6855 27.2012 20.6855C26.5508 20.6855 26.0322 21.2041 26.0322 21.8545C26.0322 22.4961 26.5508 23.0322 27.2012 23.0322Z" fill="#1C1C1E"/>
</g>
<defs>
<clipPath id="clip0_308_2512">
<rect width="28" height="28" fill="white"/>
</clipPath>
</defs>
</svg>
