<svg width="28" height="28" viewBox="0 0 28 28" fill="none" xmlns="http://www.w3.org/2000/svg">
<path d="M9.52637 23.5156C9.89551 23.5156 10.168 23.3398 10.6074 22.9443L13.8506 20.0176L19.5986 20.0264C22.2441 20.0264 23.7295 18.4971 23.7295 15.8867V9.05762C23.7295 6.44727 22.2441 4.91797 19.5986 4.91797H8.39258C5.75586 4.91797 4.26172 6.44727 4.26172 9.05762V15.8867C4.26172 18.5059 5.7998 20.0176 8.33105 20.0176H8.68262V22.5664C8.68262 23.1465 8.99023 23.5156 9.52637 23.5156ZM9.35059 10.0771C9.04297 10.0771 8.78809 9.82227 8.78809 9.49707C8.78809 9.18945 9.04297 8.93457 9.35059 8.93457H18.5527C18.8691 8.93457 19.124 9.18945 19.124 9.49707C19.124 9.82227 18.8691 10.0771 18.5527 10.0771H9.35059ZM9.35059 12.9863C9.04297 12.9863 8.78809 12.7227 8.78809 12.3975C8.78809 12.0986 9.04297 11.835 9.35059 11.835H18.5527C18.8691 11.835 19.124 12.0898 19.124 12.3975C19.124 12.7227 18.8691 12.9863 18.5527 12.9863H9.35059ZM9.35059 15.8867C9.04297 15.8867 8.78809 15.623 8.78809 15.3154C8.78809 14.9902 9.04297 14.7354 9.35059 14.7354H15.3535C15.6699 14.7354 15.9248 14.9902 15.9248 15.3154C15.9248 15.623 15.6699 15.8867 15.3535 15.8867H9.35059Z" fill="#1C1C1E"/>
</svg>
