<svg width="28" height="28" viewBox="0 0 28 28" fill="none" xmlns="http://www.w3.org/2000/svg">
<path d="M6.81055 20.2373C7.4082 20.2373 7.72461 19.9912 7.91797 19.3584L8.87598 16.6514H13.8857L14.8438 19.3584C15.0371 19.9912 15.3535 20.2373 15.9512 20.2373C16.584 20.2373 16.9883 19.8594 16.9883 19.2705C16.9883 19.0508 16.9531 18.8662 16.8652 18.6201L12.998 8.16113C12.7256 7.39648 12.2158 7.03613 11.3896 7.03613C10.5986 7.03613 10.0889 7.39648 9.8252 8.15234L5.93164 18.6729C5.84375 18.9014 5.80859 19.0947 5.80859 19.2881C5.80859 19.877 6.18652 20.2373 6.81055 20.2373ZM9.38574 14.999L11.3633 9.30371H11.416L13.3936 14.999H9.38574ZM21.4004 22.4961C21.8662 22.4961 22.1826 22.2061 22.1826 21.7139V15.7812C22.1826 15.2539 21.8398 14.9287 21.3125 14.9287C20.8643 14.9287 20.6182 15.0957 20.3018 15.3066L18.9395 16.2383C18.6582 16.4229 18.5352 16.5986 18.5352 16.8359C18.5352 17.1875 18.79 17.4424 19.1064 17.4424C19.291 17.4424 19.4053 17.3809 19.6074 17.249L20.5918 16.5898H20.6182V21.7139C20.6182 22.2061 20.9346 22.4961 21.4004 22.4961Z" fill="#1C1C1E"/>
</svg>
