<svg width="28" height="28" viewBox="0 0 28 28" fill="none" xmlns="http://www.w3.org/2000/svg">
<path d="M5.72949 7.47559H22.2617C22.7012 7.47559 23.0615 7.11523 23.0615 6.67578C23.0615 6.23633 22.71 5.88477 22.2617 5.88477H5.72949C5.28125 5.88477 4.93848 6.23633 4.93848 6.67578C4.93848 7.11523 5.29004 7.47559 5.72949 7.47559ZM5.72949 12.0811H22.2617C22.7012 12.0811 23.0615 11.7207 23.0615 11.2812C23.0615 10.8418 22.71 10.4902 22.2617 10.4902H5.72949C5.28125 10.4902 4.93848 10.8418 4.93848 11.2812C4.93848 11.7207 5.29004 12.0811 5.72949 12.0811ZM5.72949 16.6865H22.2617C22.7012 16.6865 23.0615 16.3262 23.0615 15.8867C23.0615 15.4473 22.71 15.0957 22.2617 15.0957H5.72949C5.28125 15.0957 4.93848 15.4473 4.93848 15.8867C4.93848 16.3262 5.29004 16.6865 5.72949 16.6865ZM12.8398 21.292H22.2617C22.7012 21.292 23.0615 20.9316 23.0615 20.4922C23.0615 20.0527 22.71 19.7012 22.2617 19.7012H12.8398C12.4004 19.7012 12.0576 20.0527 12.0576 20.4922C12.0576 20.9316 12.4004 21.292 12.8398 21.292Z" fill="#1C1C1E"/>
</svg>
