<svg width="28" height="28" viewBox="0 0 28 28" fill="none" xmlns="http://www.w3.org/2000/svg">
<path d="M9.81641 23.4629C10.3174 23.4629 10.6865 23.2168 11.293 22.6807L14.3076 20.0264H19.5986C22.2441 20.0264 23.7295 18.4971 23.7295 15.8867V9.05762C23.7295 6.44727 22.2441 4.91797 19.5986 4.91797H8.39258C5.75586 4.91797 4.26172 6.44727 4.26172 9.05762V15.8867C4.26172 18.5059 5.7998 20.0264 8.33105 20.0264H8.69141V22.1797C8.69141 22.9619 9.10449 23.4629 9.81641 23.4629ZM10.2559 21.4941V18.9893C10.2559 18.4707 10.0273 18.2686 9.53516 18.2686H8.4541C6.80176 18.2686 6.01074 17.4336 6.01074 15.834V9.11035C6.01074 7.51074 6.80176 6.67578 8.4541 6.67578H19.5459C21.1895 6.67578 21.9805 7.51074 21.9805 9.11035V15.834C21.9805 17.4336 21.1895 18.2686 19.5459 18.2686H14.2109C13.6748 18.2686 13.4111 18.3564 13.042 18.7432L10.2559 21.4941ZM9.52637 10.1738H18.377C18.6758 10.1738 18.9219 9.92773 18.9219 9.62012C18.9219 9.32129 18.6758 9.0752 18.377 9.0752H9.52637C9.22754 9.0752 8.99023 9.32129 8.99023 9.62012C8.99023 9.92773 9.22754 10.1738 9.52637 10.1738ZM9.52637 12.9688H18.377C18.6758 12.9688 18.9219 12.7139 18.9219 12.4062C18.9219 12.1162 18.6758 11.8613 18.377 11.8613H9.52637C9.22754 11.8613 8.99023 12.1162 8.99023 12.4062C8.99023 12.7139 9.22754 12.9688 9.52637 12.9688ZM9.52637 15.7549H15.292C15.5996 15.7549 15.8369 15.5088 15.8369 15.21C15.8369 14.9023 15.5996 14.6562 15.292 14.6562H9.52637C9.22754 14.6562 8.99023 14.9023 8.99023 15.21C8.99023 15.5088 9.22754 15.7549 9.52637 15.7549Z" fill="#1C1C1E"/>
</svg>
