<svg width="28" height="28" viewBox="0 0 28 28" fill="none" xmlns="http://www.w3.org/2000/svg">
<path d="M9.28906 23.1816H20.7236C21.1895 23.1816 21.5498 22.8213 21.5498 22.3555C21.5498 21.96 21.2773 21.6699 20.9434 21.5117C19.8623 21.0283 19.6514 19.5342 20.75 18.4883C21.1982 18.0928 21.541 17.6533 21.541 16.7656V7.03613C21.541 5.1377 20.5654 4.14453 18.6758 4.14453H9.30664C7.42578 4.14453 6.44141 5.12891 6.44141 7.03613V20.3164C6.44141 22.1973 7.42578 23.1816 9.28906 23.1816ZM9.1748 17.3896C8.88477 17.3896 8.63867 17.1523 8.63867 16.8535V6.15723C8.63867 5.8584 8.88477 5.62109 9.1748 5.62109C9.46484 5.62109 9.71094 5.8584 9.71094 6.15723V16.8535C9.71094 17.1523 9.46484 17.3896 9.1748 17.3896ZM12.1631 9.90137C11.8115 9.90137 11.5039 9.60254 11.5039 9.25098C11.5039 8.88184 11.8115 8.5918 12.1631 8.5918H18.5264C18.8867 8.5918 19.1855 8.88184 19.1855 9.25098C19.1855 9.60254 18.8867 9.90137 18.5264 9.90137H12.1631ZM12.1631 12.4502C11.8115 12.4502 11.5039 12.1602 11.5039 11.791C11.5039 11.4395 11.8115 11.1406 12.1631 11.1406H16.9971C17.3574 11.1406 17.6562 11.4395 17.6562 11.791C17.6562 12.1602 17.3574 12.4502 16.9971 12.4502H12.1631ZM9.52637 21.5293C8.58594 21.5293 8.09375 20.9932 8.09375 20.167C8.09375 19.3672 8.65625 18.8135 9.58789 18.8135H18.3594C18.4561 18.8135 18.5527 18.8047 18.6406 18.7871C18.2012 19.7188 18.2539 20.7295 18.7285 21.5293H9.52637Z" fill="#1C1C1E"/>
</svg>
