<svg width="28" height="28" viewBox="0 0 28 28" fill="none" xmlns="http://www.w3.org/2000/svg">
<path d="M14 22.7422C18.9658 22.7422 23.0791 18.6377 23.0791 13.6631C23.0791 8.69727 18.9658 4.58398 13.9912 4.58398C9.02539 4.58398 4.9209 8.69727 4.9209 13.6631C4.9209 18.6377 9.03418 22.7422 14 22.7422ZM12.875 16.9941C10.9502 17.5039 9.49121 16.625 8.96387 14.6211L8.24316 11.9141C8.04102 11.1494 8.31348 10.6748 9.06934 10.4814L12.9102 9.45312C13.6572 9.26855 14.1406 9.53223 14.3428 10.2705L15.0723 12.9775C15.6172 14.9902 14.7822 16.4668 12.875 16.9941ZM19.1592 11.4922C19.9062 11.6855 20.1875 12.1689 19.9766 12.9072L19.2559 15.6143C18.7197 17.6182 17.2695 18.4971 15.3535 17.9961C14.8086 17.8467 14.334 17.6094 13.9824 17.3105C14.6592 16.959 15.1689 16.458 15.4854 15.8604C15.6172 15.8691 15.7578 15.9043 15.8721 15.9395C16.2939 16.0537 16.6191 16.2295 17.0059 16.5723C17.1113 16.6953 17.2607 16.625 17.2607 16.458C17.2344 15.8428 16.7686 15.3242 16.0918 15.166C16.0039 15.1396 15.8896 15.1221 15.8018 15.1045C15.9863 14.4189 15.9775 13.6367 15.7402 12.8018L15.0986 10.4111C15.1602 10.4199 15.2393 10.4287 15.3096 10.4551L19.1592 11.4922ZM12.9102 12.415C13.1738 12.3271 13.3145 12.4854 13.4639 12.4414C13.5078 12.415 13.5605 12.3271 13.5166 12.2129C13.4287 11.8701 13.0859 11.6943 12.7432 11.7559C12.418 11.8438 12.207 12.2129 12.2861 12.5381C12.3389 12.6348 12.4004 12.7139 12.4531 12.6875C12.585 12.6787 12.6289 12.4854 12.9102 12.415ZM10.5371 13.0479C10.8096 12.9688 10.9414 13.1182 11.0908 13.0742C11.1611 13.0566 11.1875 12.96 11.1523 12.8369C11.0469 12.5293 10.7129 12.3271 10.3789 12.415C10.0361 12.4854 9.8252 12.8369 9.93066 13.1885C9.96582 13.2852 10.0273 13.3555 10.0889 13.3379C10.2207 13.3203 10.2471 13.1357 10.5371 13.0479ZM17.5244 14.4541C17.7881 14.5332 18.0518 14.3662 18.1396 14.1025C18.21 13.8301 18.0518 13.5576 17.7881 13.4873C17.5156 13.417 17.2344 13.5664 17.1729 13.8301C17.0938 14.1113 17.2607 14.3926 17.5244 14.4541ZM12.4971 15.5879C13.3145 15.377 13.8506 14.7441 13.877 13.9707C13.8945 13.8213 13.7627 13.751 13.6309 13.8389C13.209 14.1289 12.6465 14.3574 12.1982 14.4717C11.75 14.5947 11.1523 14.6826 10.6338 14.6387C10.4844 14.6387 10.3965 14.7441 10.4844 14.876C10.9062 15.5176 11.6973 15.8076 12.4971 15.5879Z" fill="#1C1C1E"/>
</svg>
