<svg width="28" height="28" viewBox="0 0 28 28" fill="none" xmlns="http://www.w3.org/2000/svg">
<path d="M10.172 20.7577C14.1017 19.6874 15.7892 16.6249 14.6876 12.5234L13.2111 7.01554C12.8048 5.47648 11.7657 4.90616 10.1954 5.32023L2.42199 7.38273C0.84387 7.8046 0.25012 8.81241 0.671995 10.3827L2.13293 15.8749C3.22668 19.9765 6.22668 21.8046 10.172 20.7577ZM25.5626 9.41398L17.7892 7.33585C16.3986 6.96085 15.3907 7.35148 14.9532 8.53898L14.8751 8.82023L15.7892 12.2265C16.6642 15.5155 15.9376 18.3046 13.8751 20.1093C14.6564 21.3671 16.0314 22.2968 17.8282 22.7812C21.7501 23.8202 24.7345 21.9921 25.8439 17.8984L27.3204 12.4062C27.7423 10.8593 27.1329 9.83585 25.5626 9.41398ZM10.2111 11.4062C9.61731 11.5702 9.547 11.953 9.297 11.9921C9.172 12.0155 9.03137 11.8905 8.96887 11.6562C8.78137 10.9999 9.19543 10.289 9.86731 10.1171C10.5548 9.94523 11.2423 10.3437 11.422 10.9999C11.4923 11.2421 11.4298 11.414 11.297 11.4609C11.0236 11.5546 10.7501 11.2577 10.2111 11.4062ZM5.46887 12.6874C4.88293 12.8515 4.80481 13.2343 4.55481 13.2812C4.43762 13.3046 4.28918 13.1718 4.22668 12.9374C4.03918 12.2812 4.46106 11.5702 5.13293 11.3984C5.81262 11.2343 6.50793 11.6327 6.67981 12.2734C6.75793 12.5234 6.68762 12.703 6.56262 12.7421C6.28918 12.8359 6.01574 12.539 5.46887 12.6874ZM17.6251 14.3124C17.0782 14.1718 16.7579 13.6249 16.8986 13.0624C17.047 12.5234 17.6017 12.1952 18.1564 12.3437C18.7032 12.4921 19.0236 13.0624 18.8751 13.6015C18.7267 14.1484 18.172 14.4687 17.6251 14.3124ZM22.2111 15.539C21.6642 15.3905 21.3439 14.828 21.5001 14.2812C21.6407 13.7343 22.1954 13.4218 22.7423 13.5702C23.2892 13.7109 23.6095 14.2655 23.4611 14.8202C23.3126 15.3593 22.7579 15.6874 22.2111 15.539ZM9.38293 17.7812C7.75012 18.2109 6.17981 17.6562 5.35168 16.3437C5.17981 16.0859 5.33606 15.8359 5.66418 15.8671C6.64856 15.9452 7.87512 15.7812 8.78137 15.5312C9.67981 15.2968 10.8048 14.8437 11.6329 14.2734C11.9064 14.078 12.1642 14.2187 12.1486 14.539C12.0939 16.0859 11.0314 17.328 9.38293 17.7812ZM18.9298 18.539C18.1251 18.3202 17.3282 18.3202 16.3751 18.5234C16.047 18.5937 15.8673 18.328 16.0314 18.078C16.7111 17.039 18.0392 16.5859 19.3595 16.9452C20.7111 17.289 21.6329 18.3359 21.6798 19.578C21.6954 19.8905 21.4064 20.0234 21.1642 19.8046C20.422 19.1405 19.7501 18.7577 18.9298 18.539Z" fill="#1C1C1E"/>
</svg>
