<svg width="28" height="28" viewBox="0 0 28 28" fill="none" xmlns="http://www.w3.org/2000/svg">
<path d="M12.8486 24.21C15.5029 24.21 17.6562 22.0654 17.6562 19.4023C17.6562 18.04 17.1025 16.8447 16.0566 15.8779C15.8721 15.7109 15.8281 15.6055 15.8281 15.3594L15.8369 7.66016C15.8369 5.69141 14.6328 4.38184 12.8486 4.38184C11.0469 4.38184 9.8252 5.69141 9.8252 7.66016L9.84277 15.3594C9.84277 15.6055 9.79883 15.7109 9.61426 15.8779C8.55957 16.8359 8.01465 18.04 8.01465 19.4023C8.01465 22.0654 10.168 24.21 12.8486 24.21ZM12.8486 22.6807C11.0205 22.6807 9.55273 21.2041 9.55273 19.3848C9.55273 18.2686 10.0801 17.3018 11.0029 16.6777C11.2754 16.502 11.3809 16.335 11.3809 15.9834V7.72168C11.3809 6.62305 11.9697 5.91992 12.8486 5.91992C13.7012 5.91992 14.29 6.62305 14.29 7.72168V15.9834C14.29 16.335 14.3955 16.502 14.668 16.6777C15.5908 17.3018 16.1182 18.2686 16.1182 19.3848C16.1182 21.2041 14.6504 22.6807 12.8486 22.6807ZM17.5156 7.81836H19.4404C19.7744 7.81836 19.9854 7.57227 19.9854 7.28223C19.9854 6.99219 19.7744 6.74609 19.4404 6.74609H17.5156C17.1816 6.74609 16.9619 6.99219 16.9619 7.28223C16.9619 7.57227 17.1816 7.81836 17.5156 7.81836ZM17.5156 10.2529H19.4404C19.7744 10.2529 19.9854 10.0068 19.9854 9.7168C19.9854 9.42676 19.7744 9.18066 19.4404 9.18066H17.5156C17.1816 9.18066 16.9619 9.42676 16.9619 9.7168C16.9619 10.0068 17.1816 10.2529 17.5156 10.2529ZM17.5156 12.7051H19.4404C19.7744 12.7051 19.9854 12.459 19.9854 12.1689C19.9854 11.8789 19.7744 11.6328 19.4404 11.6328H17.5156C17.1816 11.6328 16.9619 11.8789 16.9619 12.1689C16.9619 12.459 17.1816 12.7051 17.5156 12.7051ZM12.8311 21.4941C14 21.4941 14.9404 20.5537 14.9404 19.376C14.9404 18.5674 14.4834 17.8906 13.8066 17.5303C13.5254 17.3809 13.4375 17.2754 13.4375 16.8535V12.3623C13.4375 11.9141 13.1738 11.6328 12.8311 11.6328C12.4971 11.6328 12.2334 11.9141 12.2334 12.3623V16.8535C12.2334 17.2754 12.1455 17.3809 11.8643 17.5303C11.1875 17.8906 10.7305 18.5674 10.7305 19.376C10.7305 20.5537 11.6709 21.4941 12.8311 21.4941ZM17.5156 15.1484H19.4404C19.7744 15.1484 19.9854 14.9023 19.9854 14.6123C19.9854 14.3223 19.7744 14.0762 19.4404 14.0762H17.5156C17.1816 14.0762 16.9619 14.3223 16.9619 14.6123C16.9619 14.9023 17.1816 15.1484 17.5156 15.1484Z" fill="#1C1C1E"/>
</svg>
