<svg width="28" height="28" viewBox="0 0 28 28" fill="none" xmlns="http://www.w3.org/2000/svg">
<path d="M14 4.59277C14.4395 4.59277 14.7998 4.22363 14.7998 3.79297V1.97363C14.7998 1.53418 14.4395 1.17383 14 1.17383C13.5605 1.17383 13.2002 1.53418 13.2002 1.97363V3.79297C13.2002 4.22363 13.5605 4.59277 14 4.59277ZM18.0957 6.29785C18.3945 6.60547 18.9131 6.60547 19.2295 6.29785L20.5127 5.00586C20.8203 4.69824 20.8203 4.18848 20.5127 3.88086C20.2051 3.57324 19.7041 3.57324 19.3965 3.88086L18.0957 5.17285C17.7881 5.48047 17.7969 5.99023 18.0957 6.29785ZM9.63184 24.21C12.2861 24.21 14.4395 22.0654 14.4395 19.4023C14.4395 18.04 13.8857 16.8447 12.8398 15.8779C12.6553 15.7109 12.6113 15.6055 12.6113 15.3594V14.6123C13.0508 14.7617 13.5166 14.8408 14 14.8408C16.4697 14.8408 18.4385 12.8633 18.4385 10.3848C18.4385 7.91504 16.4697 5.9375 14 5.9375C13.4375 5.9375 12.8926 6.04297 12.3828 6.25391C11.9434 5.09375 10.9414 4.38184 9.63184 4.38184C7.83008 4.38184 6.6084 5.69141 6.6084 7.66016L6.62598 15.3594C6.62598 15.6055 6.58203 15.7109 6.39746 15.8779C5.34277 16.8359 4.79785 18.04 4.79785 19.4023C4.79785 22.0654 6.95117 24.21 9.63184 24.21ZM9.63184 22.6807C7.80371 22.6807 6.33594 21.2041 6.33594 19.3848C6.33594 18.2686 6.86328 17.3018 7.78613 16.6777C8.05859 16.502 8.16406 16.335 8.16406 15.9834V7.72168C8.16406 6.62305 8.75293 5.91992 9.63184 5.91992C10.4844 5.91992 11.0732 6.62305 11.0732 7.72168V15.9834C11.0732 16.335 11.1787 16.502 11.4512 16.6777C12.374 17.3018 12.9014 18.2686 12.9014 19.3848C12.9014 21.2041 11.4336 22.6807 9.63184 22.6807ZM14 7.41406C15.6611 7.41406 16.9707 8.71484 16.9707 10.3848C16.9707 12.0635 15.6611 13.3643 14 13.3643C13.5078 13.3643 13.0332 13.2412 12.6201 13.0215V7.7832C13.0332 7.5459 13.5078 7.41406 14 7.41406ZM9.61426 21.4941C10.7832 21.4941 11.7236 20.5449 11.7236 19.376C11.7236 18.5674 11.2666 17.8906 10.5898 17.5303C10.3086 17.3809 10.2207 17.2754 10.2207 16.8535V8.44238C10.2207 7.99414 9.95703 7.72168 9.61426 7.72168C9.28027 7.72168 9.0166 7.99414 9.0166 8.44238V16.8535C9.0166 17.2754 8.92871 17.3809 8.64746 17.5303C7.9707 17.8906 7.51367 18.5674 7.51367 19.376C7.51367 20.5537 8.4541 21.4941 9.61426 21.4941ZM20.5742 11.1846H22.3936C22.833 11.1846 23.1846 10.8242 23.1934 10.3848C23.1934 9.94531 22.833 9.59375 22.3936 9.59375L20.5742 9.58496C20.1436 9.58496 19.7744 9.94531 19.7744 10.3848C19.7744 10.8242 20.1436 11.1846 20.5742 11.1846ZM19.3877 16.9062C19.7041 17.2139 20.2051 17.2051 20.5127 16.8975C20.8203 16.5986 20.8203 16.0889 20.5039 15.7812L19.2207 14.4893C18.9131 14.1904 18.4033 14.1816 18.0957 14.4893C17.7881 14.7969 17.7881 15.3066 18.0957 15.6143L19.3877 16.9062Z" fill="#1C1C1E"/>
</svg>
