<svg width="28" height="28" viewBox="0 0 28 28" fill="none" xmlns="http://www.w3.org/2000/svg">
<path d="M2.92578 17.7412C2.92578 18.1895 3.11035 18.5059 3.50586 18.6816C4.50781 19.165 5.06152 19.7363 5.6416 20.8965C5.83496 21.2744 6.15137 21.4678 6.56445 21.4678H21.4355C21.8486 21.4678 22.165 21.2744 22.3584 20.8965C22.9385 19.7363 23.4922 19.165 24.4941 18.6816C24.8809 18.5059 25.0742 18.1895 25.0742 17.7412V9.55859C25.0742 9.11914 24.8809 8.80273 24.4941 8.61816C23.4922 8.13477 22.9385 7.57227 22.3584 6.40332C22.165 6.03418 21.8486 5.83203 21.4355 5.83203H6.56445C6.15137 5.83203 5.83496 6.03418 5.6416 6.40332C5.06152 7.57227 4.50781 8.13477 3.50586 8.61816C3.11035 8.80273 2.92578 9.11914 2.92578 9.55859V17.7412ZM6.74902 17.6357V9.68164C6.74902 9.18066 7.08301 8.84668 7.58398 8.84668H20.416C20.917 8.84668 21.251 9.18066 21.251 9.68164V17.6357C21.251 18.1367 20.917 18.4707 20.416 18.4707H7.58398C7.08301 18.4707 6.74902 18.1367 6.74902 17.6357ZM7.95312 11.6504H9.04297V10.042H8.12012C8.00586 10.042 7.95312 10.1035 7.95312 10.2178V11.6504ZM18.957 11.6504H20.0469V10.2178C20.0469 10.1035 19.9854 10.042 19.8711 10.042H18.957V11.6504ZM10.2471 17.2666H17.7529V10.0508H10.2471V17.2666ZM7.95312 14.4717H9.04297V12.8457H7.95312V14.4717ZM18.957 14.4717H20.0469V12.8457H18.957V14.4717ZM18.957 17.2754H19.8711C19.9854 17.2754 20.0469 17.2051 20.0469 17.0908V15.667H18.957V17.2754ZM7.95312 17.0908C7.95312 17.2051 8.01465 17.2666 8.12012 17.2666H9.04297V15.667H7.95312V17.0908Z" fill="#1C1C1E"/>
</svg>
