<svg width="28" height="28" viewBox="0 0 28 28" fill="none" xmlns="http://www.w3.org/2000/svg">
<path d="M13.8682 11.7207C19.3525 11.7207 22.5605 10.3497 22.5605 8.41606C22.5605 6.64946 20.0996 5.57719 16.4258 5.57719C13.7715 5.57719 11.6621 6.06059 10.0361 6.7813C9.56152 6.99223 9.45605 7.47563 9.61426 7.80962C9.79883 8.18755 10.2646 8.31059 10.7041 8.1436C12.1279 7.57231 13.9121 7.02739 16.3379 7.02739C19.1855 7.02739 20.9785 7.66899 20.9785 8.40727C20.9785 9.29497 18.0957 10.2266 13.7979 10.2266C9.35059 10.2266 7.02148 9.36528 7.02148 7.72173C7.02148 6.69341 7.9707 5.70024 10.4492 4.9268C10.9414 4.77739 11.1348 4.38188 11.0029 3.9688C10.8623 3.5645 10.502 3.4063 9.94824 3.55571C6.91602 4.42583 5.43945 6.0518 5.43945 7.75688C5.43945 10.3233 8.35742 11.7207 13.8682 11.7207ZM14.1318 14.7178C16.9355 14.7178 19.5195 14.2608 21.3389 13.5313C21.7344 13.3731 21.9102 12.9688 21.7256 12.626C21.5498 12.2832 21.1895 12.2129 20.7412 12.3711C19.0889 12.9864 16.6895 13.4082 14.1318 13.4082C12.2158 13.4082 10.0361 13.1709 8.31348 12.67C7.87402 12.5381 7.50488 12.6788 7.39941 13.0567C7.28516 13.4258 7.4873 13.7862 7.94434 13.918C9.79883 14.4454 12.1191 14.7178 14.1318 14.7178ZM14.7559 17.6709C17.0938 17.6446 19.2734 17.3106 21.2949 16.6514C21.7959 16.4844 21.9102 16.0713 21.7783 15.7374C21.6465 15.3946 21.3037 15.2715 20.8115 15.4297C18.834 16.0538 16.8564 16.3614 14.7383 16.3614C13.8418 16.3614 12.8926 16.2999 12.1719 16.2032C11.6973 16.1416 11.3984 16.3438 11.3369 16.6954C11.2666 17.0557 11.46 17.4073 11.9697 17.4864C12.6641 17.6006 13.6221 17.6797 14.7559 17.6709ZM13.9121 20.4659C15.5293 20.6504 17.5596 20.5889 19.2031 20.1495C19.6426 20.0352 19.8184 19.6485 19.7129 19.2881C19.5986 18.919 19.2471 18.7784 18.7812 18.8838C17.3662 19.2442 15.6699 19.3584 14.1143 19.1827C13.6396 19.1387 13.3145 19.3672 13.2705 19.7276C13.2266 20.0791 13.4111 20.4043 13.9121 20.4659ZM13.3057 23.3399C13.8857 23.4102 14.5361 23.4102 15.1426 23.3311C15.5732 23.2872 15.8018 23.0059 15.7666 22.628C15.7402 22.2852 15.459 22.0391 14.9932 22.1006C14.4922 22.1622 13.9121 22.1622 13.4287 22.1006C12.9805 22.0479 12.6992 22.294 12.6553 22.628C12.6113 22.9883 12.8398 23.2872 13.3057 23.3399Z" fill="#1C1C1E"/>
</svg>
