<svg width="28" height="28" viewBox="0 0 28 28" fill="none" xmlns="http://www.w3.org/2000/svg">
<path d="M2.84668 17.917C2.84668 19.7891 3.83105 20.7646 5.7207 20.7646H22.2793C24.1689 20.7646 25.1445 19.7891 25.1445 17.917V9.40039C25.1445 7.52832 24.1689 6.55273 22.2793 6.55273H5.7207C3.83105 6.55273 2.84668 7.52832 2.84668 9.40039V17.917ZM6.46777 13.4961V10.7803C6.46777 10.2793 6.77539 9.98926 7.27637 9.98926H20.7236C21.2246 9.98926 21.5234 10.2793 21.5234 10.7803V13.4961C21.5234 13.9795 21.2246 14.2871 20.7236 14.2871H7.27637C6.77539 14.2871 6.46777 13.9795 6.46777 13.4961Z" fill="#1C1C1E"/>
</svg>
