<svg width="28" height="28" viewBox="0 0 28 28" fill="none" xmlns="http://www.w3.org/2000/svg">
<path d="M13.9912 22.7422C18.9746 22.7422 23.0879 18.6289 23.0879 13.6543C23.0879 8.67969 18.9658 4.56641 13.9824 4.56641C9.00781 4.56641 4.90332 8.67969 4.90332 13.6543C4.90332 18.6289 9.0166 22.7422 13.9912 22.7422ZM13.9912 20.9316C9.95703 20.9316 6.73145 17.6885 6.73145 13.6543C6.73145 9.62012 9.95703 6.38574 13.9824 6.38574C18.0166 6.38574 21.2598 9.62012 21.2686 13.6543C21.2773 17.6885 18.0254 20.9316 13.9912 20.9316ZM11.0557 18.9629H11.3018C11.4336 18.9629 11.5127 18.9189 11.5742 18.8135L11.8115 18.4355H16.1533L16.3906 18.8135C16.4521 18.9189 16.5312 18.9629 16.6631 18.9629H16.8916C17.1113 18.9629 17.2168 18.7432 17.0938 18.5498L16.2236 17.1436H16.3027C17.1201 17.1436 17.5859 16.6074 17.5859 15.8164V12.8193C17.5859 11.7031 17.4541 10.7275 17.2959 10.0684C17.1113 9.2334 16.6104 8.69727 15.7666 8.5918C15.4678 8.55664 14.7998 8.50391 13.9912 8.50391C13.1738 8.50391 12.5059 8.55664 12.207 8.5918C11.3633 8.69727 10.8623 9.2334 10.6777 10.0684C10.5195 10.7275 10.3877 11.7031 10.3877 12.8193V15.8164C10.3877 16.6074 10.8535 17.1436 11.6709 17.1436H11.7412L10.8535 18.5586C10.7393 18.7432 10.8359 18.9629 11.0557 18.9629ZM12.9277 9.90137C12.7607 9.90137 12.6465 9.77832 12.6465 9.61133C12.6465 9.45312 12.7607 9.33887 12.9277 9.33887H15.0459C15.2129 9.33887 15.3359 9.45312 15.3359 9.61133C15.3359 9.77832 15.2129 9.90137 15.0459 9.90137H12.9277ZM13.9912 14.3662C13.0068 14.3574 12.1543 14.3135 11.7148 14.2607C11.4512 14.2344 11.3369 14.0586 11.3369 13.8125V12.8281C11.3369 12.0107 11.4336 11.3252 11.4951 11.0352C11.5391 10.8418 11.6621 10.7012 11.8555 10.6748C12.3125 10.6221 12.9102 10.5869 13.9912 10.5869C15.0635 10.5869 15.6611 10.6221 16.1094 10.6748C16.3027 10.7012 16.4346 10.8418 16.4785 11.0352C16.54 11.3252 16.6279 12.0107 16.6279 12.8281V13.8125C16.6279 14.0586 16.5137 14.2344 16.2588 14.2607C15.626 14.3311 14.7734 14.3662 13.9912 14.3662ZM15.9248 16.2295C15.5996 16.2295 15.3447 15.9834 15.3447 15.6494C15.3447 15.3242 15.5996 15.0781 15.9248 15.0781C16.25 15.0781 16.5049 15.3242 16.5049 15.6494C16.5049 15.9834 16.2412 16.2295 15.9248 16.2295ZM12.04 16.2207C11.7148 16.2207 11.4775 15.9834 11.4775 15.6494C11.4775 15.3242 11.7148 15.0869 12.04 15.0869C12.374 15.0869 12.6113 15.3242 12.6113 15.6494C12.6113 15.9834 12.3652 16.2207 12.04 16.2207ZM12.2246 17.7588L12.6113 17.1436H15.3535L15.7402 17.7588H12.2246Z" fill="#1C1C1E"/>
</svg>
