<svg width="28" height="28" viewBox="0 0 28 28" fill="none" xmlns="http://www.w3.org/2000/svg">
<path d="M7.64551 25.0273H8.19922C8.48047 25.0273 8.64746 24.9307 8.79688 24.6934L9.28906 23.8936H18.667L19.1592 24.6934C19.3086 24.9307 19.4668 25.0273 19.748 25.0273H20.2578C20.7412 25.0273 20.9697 24.5439 20.7148 24.1309L19.0273 21.3975C21.0664 21.3184 22.2705 19.9121 22.2705 17.8818V12.1514C22.2705 9.73438 21.998 7.59863 21.6289 6.06934C21.1543 3.90723 19.8359 2.6416 17.8057 2.38672C17.1377 2.30762 15.6436 2.19336 13.9912 2.19336C12.1982 2.19336 10.8447 2.30762 10.1768 2.38672C8.15527 2.6416 6.82812 3.90723 6.35352 6.06934C5.98438 7.59863 5.7207 9.67285 5.7207 12.0811V17.8818C5.7207 19.9033 6.90723 21.3008 8.91992 21.3975L7.20605 24.1572C6.95996 24.5527 7.1709 25.0273 7.64551 25.0273ZM9.37695 19.9824C7.85645 19.9824 7.13574 19.0771 7.13574 17.7939V12.0811C7.13574 9.73438 7.4082 7.79199 7.75098 6.32422C8.08496 4.79492 8.97266 3.95117 10.3701 3.79297C11.0205 3.71387 12.2861 3.62598 13.9912 3.62598C15.5557 3.62598 16.9707 3.71387 17.6211 3.79297C19.0186 3.95117 19.9062 4.79492 20.2402 6.32422C20.583 7.79199 20.8467 9.7959 20.8467 12.1514V17.7939C20.8467 19.0771 20.1348 19.9824 18.6143 19.9824H9.37695ZM11.7412 6.00781H16.2412C16.6104 6.00781 16.8477 5.76172 16.8477 5.40137C16.8477 5.04102 16.6104 4.79492 16.2412 4.79492H11.7412C11.3809 4.79492 11.1436 5.04102 11.1436 5.40137C11.1436 5.76172 11.3809 6.00781 11.7412 6.00781ZM13.9912 15.0518C16.1973 15.043 17.8672 14.9551 18.7988 14.8408C19.3525 14.7705 19.5986 14.4014 19.5986 13.8828V11.7822C19.5986 10.0508 19.4053 8.5918 19.2734 7.99414C19.1855 7.57227 18.9131 7.27344 18.4912 7.2207C17.5332 7.10645 16.417 7.04492 13.9912 7.03613C11.5654 7.04492 10.4492 7.10645 9.47363 7.22949C9.06055 7.27344 8.79688 7.57227 8.70898 7.99414C8.57715 8.5918 8.39258 10.0508 8.39258 11.7822V13.8828C8.39258 14.4014 8.62988 14.7705 9.18359 14.8408C10.1152 14.9551 11.7852 15.043 13.9912 15.0518ZM18.1133 18.6729C18.79 18.6729 19.3262 18.1455 19.3262 17.4512C19.3262 16.7656 18.7988 16.2383 18.1133 16.2383C17.4102 16.2383 16.8828 16.7656 16.8828 17.4512C16.8828 18.1455 17.4102 18.6729 18.1133 18.6729ZM9.86914 18.6641C10.5547 18.6641 11.082 18.1543 11.082 17.4512C11.082 16.7568 10.5723 16.2471 9.86914 16.2471C9.1748 16.2471 8.66504 16.7568 8.66504 17.4512C8.66504 18.1543 9.1748 18.6641 9.86914 18.6641ZM10.2031 22.4258L10.8359 21.4062H17.1201L17.7441 22.4258H10.2031Z" fill="#1C1C1E"/>
</svg>
