<svg width="28" height="28" viewBox="0 0 28 28" fill="none" xmlns="http://www.w3.org/2000/svg">
<path d="M3.98926 14.4366H6.48535V17.0118C6.48535 18.5675 7.47852 19.4552 9.28027 19.7628L18.7197 21.3448C20.46 21.6437 21.5059 20.5099 21.5059 18.6026V14.4366H24.0107C24.5381 14.4366 24.8721 14.0851 24.8721 13.6105C24.8721 13.1183 24.5381 12.7755 24.0107 12.7755H21.5059V8.60948C21.5059 6.63194 20.5215 5.55968 18.7197 5.8673L9.28027 7.44933C7.47852 7.75694 6.48535 8.63585 6.48535 10.2003V12.7755H3.98926C3.46191 12.7755 3.12793 13.1183 3.12793 13.6105C3.12793 14.0851 3.46191 14.4366 3.98926 14.4366ZM8.12891 10.2882C8.12891 9.58507 8.55957 9.18956 9.32422 9.06651L18.6494 7.51085C19.4316 7.37901 19.8623 7.83605 19.8623 8.73253V12.7755H8.12891V10.2882ZM9.32422 18.1456C8.55957 18.0226 8.12891 17.6271 8.12891 16.9239V14.4366H19.8623V18.4796C19.8623 19.3409 19.4053 19.8331 18.6494 19.7013L9.32422 18.1456Z" fill="#1C1C1E"/>
</svg>
