<svg width="28" height="28" viewBox="0 0 28 28" fill="none" xmlns="http://www.w3.org/2000/svg">
<path d="M24.8721 13.6105C24.8721 13.1183 24.5381 12.7755 24.0107 12.7755H21.5059V8.3546C21.5059 6.56163 20.3281 5.59483 18.5 5.90245L9.20117 7.4669C7.45215 7.75694 6.48535 8.67979 6.48535 10.2003V12.7755H21.5059V14.4366H24.0107C24.5381 14.4366 24.8721 14.0851 24.8721 13.6105ZM3.98926 14.4366H6.48535V17.0118C6.48535 18.5235 7.45215 19.4552 9.20117 19.7452L18.5 21.3097C20.3281 21.6085 21.5059 20.6505 21.5059 18.8575V14.4366H6.48535V12.7755H3.98926C3.46191 12.7755 3.12793 13.1183 3.12793 13.6105C3.12793 14.0851 3.46191 14.4366 3.98926 14.4366Z" fill="#1C1C1E"/>
</svg>
