<svg width="28" height="28" viewBox="0 0 28 28" fill="none" xmlns="http://www.w3.org/2000/svg">
<path d="M8.67383 21.8721H19.3174C21.2158 21.8721 22.2002 20.8877 22.2002 19.0156V8.31934C22.2002 6.43848 21.2158 5.46289 19.3174 5.46289H8.67383C6.77539 5.46289 5.79102 6.43848 5.79102 8.31934V19.0156C5.79102 20.8965 6.77539 21.8721 8.67383 21.8721ZM11.7676 18.9365C11.1084 18.9365 10.7305 18.585 10.7041 17.9258L10.3965 10.9561H9.71094C9.46484 10.9561 9.27148 10.7715 9.27148 10.5254C9.28027 10.2793 9.46484 10.0859 9.71094 10.0859H11.7939V9.42676C11.7939 8.65332 12.3037 8.16113 13.1475 8.16113H14.8789C15.7227 8.16113 16.2412 8.65332 16.2412 9.42676V10.0859H18.3154C18.5703 10.0859 18.7637 10.2793 18.7549 10.5254C18.7461 10.7715 18.5703 10.9561 18.3154 10.9561H17.6562L17.3486 17.9258C17.3223 18.585 16.9268 18.9365 16.2764 18.9365H11.7676ZM12.7783 10.0859H15.248V9.46191C15.248 9.2334 15.0811 9.08398 14.835 9.08398H13.1826C12.9453 9.08398 12.7783 9.2334 12.7783 9.46191V10.0859ZM12.4795 17.5391C12.6816 17.5391 12.8135 17.3984 12.8047 17.2139L12.6377 12.0283C12.6377 11.8262 12.4971 11.7031 12.3037 11.7031C12.084 11.7031 11.9609 11.835 11.9609 12.0371L12.1367 17.2227C12.1367 17.4072 12.2861 17.5391 12.4795 17.5391ZM14.0088 17.5391C14.2197 17.5391 14.3516 17.3984 14.3516 17.2139V12.0283C14.3516 11.8262 14.2197 11.7031 14.0088 11.7031C13.7979 11.7031 13.666 11.8262 13.666 12.0283V17.2139C13.666 17.3984 13.7979 17.5391 14.0088 17.5391ZM15.5381 17.5391C15.7314 17.5391 15.8721 17.4072 15.8809 17.2227L16.0566 12.0371C16.0566 11.835 15.9336 11.7031 15.7227 11.7031C15.5205 11.7031 15.3799 11.8262 15.3799 12.0283L15.2129 17.2139C15.2041 17.3984 15.3359 17.5391 15.5381 17.5391Z" fill="#1C1C1E"/>
</svg>
