<svg width="28" height="28" viewBox="0 0 28 28" fill="none" xmlns="http://www.w3.org/2000/svg">
<path d="M8.67383 21.8721H19.3174C21.2158 21.8721 22.2002 20.8877 22.2002 19.0156V8.31934C22.2002 6.43848 21.2158 5.46289 19.3174 5.46289H8.67383C6.77539 5.46289 5.79102 6.43848 5.79102 8.31934V19.0156C5.79102 20.8965 6.77539 21.8721 8.67383 21.8721ZM17.3662 15.3154L15.9248 13.874L15.9951 12.0723C16.0039 11.8789 15.8809 11.7471 15.6699 11.7471C15.4766 11.7471 15.3447 11.8701 15.3359 12.0635L15.292 13.2412L14.3428 12.3008V11.9756C14.3428 11.7822 14.2109 11.6592 14.0088 11.6592C13.9561 11.6592 13.9209 11.6768 13.8857 11.7031V11.8438L11.7148 9.67285H11.8643C11.8643 9.57617 11.8643 9.49707 11.873 9.40039C11.917 8.72363 12.4004 8.30176 13.165 8.30176H14.8525C15.6787 8.30176 16.1797 8.77637 16.1797 9.52344V10.1738H18.2012C18.4473 10.1738 18.6406 10.3584 18.6406 10.5957C18.6318 10.833 18.4473 11.0176 18.2012 11.0176H17.5596L17.3662 15.3154ZM17.8584 18.084L9.66699 9.89258C9.49121 9.7168 9.49121 9.43555 9.66699 9.25977C9.84277 9.08398 10.124 9.08398 10.2998 9.25977L18.4824 17.4424C18.6582 17.627 18.6582 17.8994 18.4824 18.0752C18.3154 18.2598 18.043 18.2598 17.8584 18.084ZM12.8047 10.1738H15.2129V9.55859C15.2129 9.33887 15.0459 9.18945 14.8086 9.18945H13.2002C12.9717 9.18945 12.8047 9.33887 12.8047 9.55859V10.1738ZM11.8203 18.7959C11.1787 18.7959 10.8096 18.4531 10.792 17.8115L10.5195 11.7383L12.0488 13.2676L12.1895 17.126C12.1895 17.3105 12.3301 17.4336 12.5146 17.4336C12.7168 17.4336 12.8398 17.3018 12.8311 17.1172L12.7256 13.9531L13.6748 14.9023V17.1172C13.6748 17.3018 13.8066 17.4336 14.0088 17.4336C14.2021 17.4336 14.3428 17.3018 14.3428 17.1172V15.5703L15.2041 16.4229L15.1777 17.1172C15.1777 17.3018 15.292 17.4336 15.4941 17.4336C15.626 17.4336 15.7402 17.3633 15.7666 17.2402L15.793 17.0117L17.0762 18.3037L17.0498 18.3828C16.9092 18.6377 16.6016 18.7959 16.2148 18.7959H11.8203Z" fill="#1C1C1E"/>
</svg>
