<svg width="28" height="28" viewBox="0 0 28 28" fill="none" xmlns="http://www.w3.org/2000/svg">
<path d="M6.48535 23.7002H21.5234C23.4131 23.7002 24.415 22.7158 24.415 20.835V16.625C24.415 16.2998 24.2568 15.9395 23.9932 15.7197C24.2744 15.3066 24.415 14.7705 24.415 14.1377V9.4707C24.415 8.53906 24.4062 7.87109 23.8877 7.42285L20.7324 4.59277C19.748 3.71387 19.0361 3.41504 17.665 3.41504H10.3438C8.96387 3.41504 8.26074 3.71387 7.26758 4.59277L4.12109 7.42285C3.60254 7.87109 3.58496 8.53906 3.58496 9.4707V14.1377C3.58496 14.7705 3.72559 15.3066 4.00684 15.7197C3.74316 15.9395 3.58496 16.2998 3.58496 16.625V20.835C3.58496 22.7246 4.58691 23.7002 6.48535 23.7002ZM14 11.29C12.8223 11.29 12.084 10.2793 12.084 9.33008V9.29492C12.084 8.95215 11.873 8.62695 11.416 8.62695H5.93164C5.47461 8.62695 5.31641 8.41602 5.69434 8.07324L8.55957 5.49805C9.04297 5.0498 9.37695 4.87402 10.1328 4.87402H17.876C18.6318 4.87402 18.957 5.0498 19.4404 5.49805L22.3145 8.06445C22.7012 8.4248 22.5254 8.62695 22.0771 8.62695H16.5928C16.127 8.62695 15.9248 8.95215 15.9248 9.29492V9.33008C15.9248 10.2793 15.1865 11.29 14 11.29ZM6.57324 15.2891C5.75586 15.2891 5.31641 14.8672 5.31641 14.0146V10.1738H10.5811C10.8623 11.7383 12.2246 12.8984 14 12.8984C15.7754 12.8984 17.1377 11.7383 17.4189 10.1738H22.6836V14.0146C22.6836 14.8672 22.2354 15.2891 21.4355 15.2891H6.57324ZM14 18.1631C13.0508 18.1631 12.3828 17.5039 12.1631 16.7568H15.8369C15.6172 17.5039 14.9492 18.1631 14 18.1631ZM6.57324 21.9951C5.75586 21.9951 5.31641 21.5732 5.31641 20.7207V16.8975H10.5811C10.8623 18.4619 12.2246 19.6221 14 19.6221C15.7754 19.6221 17.1377 18.4619 17.4189 16.8975H22.6836V20.7207C22.6836 21.5732 22.2354 21.9951 21.4355 21.9951H6.57324Z" fill="#1C1C1E"/>
</svg>
