<svg width="28" height="28" viewBox="0 0 28 28" fill="none" xmlns="http://www.w3.org/2000/svg">
<path d="M6.47656 21.3535H21.5146C23.4219 21.3535 24.415 20.3691 24.415 18.4883V13.5664C24.415 12.582 24.2744 12.1602 23.8174 11.5625L20.9346 7.72168C19.9062 6.35938 19.3701 5.98145 17.7881 5.98145H10.2119C8.62109 5.98145 8.08496 6.35938 7.06543 7.72168L4.17383 11.5625C3.72559 12.1602 3.58496 12.582 3.58496 13.5664V18.4883C3.58496 20.3691 4.57812 21.3535 6.47656 21.3535ZM14 15.9482C12.6641 15.9482 11.8291 14.8848 11.8291 13.7861V13.7158C11.8291 13.3115 11.583 12.9248 11.082 12.9248H5.79102C5.46582 12.9248 5.41309 12.6611 5.5625 12.4502L8.77051 8.14355C9.13965 7.63379 9.60547 7.44043 10.2031 7.44043H17.7969C18.3857 7.44043 18.8516 7.63379 19.2295 8.14355L22.4287 12.4502C22.5781 12.6611 22.5254 12.9248 22.2002 12.9248H16.9092C16.4082 12.9248 16.1709 13.3115 16.1709 13.7158V13.7861C16.1709 14.8848 15.3359 15.9482 14 15.9482Z" fill="#1C1C1E"/>
</svg>
