<svg width="28" height="28" viewBox="0 0 28 28" fill="none" xmlns="http://www.w3.org/2000/svg">
<path d="M13.9912 22.7598C18.9746 22.7598 23.0879 18.6465 23.0879 13.6631C23.0879 8.68848 18.9658 4.5752 13.9824 4.5752C9.00781 4.5752 4.90332 8.68848 4.90332 13.6631C4.90332 18.6465 9.0166 22.7598 13.9912 22.7598ZM10.1855 17.3457C9.22754 17.3457 8.72656 16.8447 8.72656 15.9043V13.4082C8.72656 12.916 8.79688 12.6963 9.02539 12.4062L10.5371 10.4111C11.0908 9.69043 11.3896 9.49707 12.1895 9.49707H15.8018C16.6016 9.49707 16.8916 9.69043 17.4453 10.4111L18.957 12.4062C19.1943 12.6963 19.2646 12.916 19.2646 13.4082V15.9043C19.2646 16.8447 18.7725 17.3457 17.8057 17.3457H10.1855ZM10.0889 13.0742H12.5586C12.8047 13.0742 12.9277 13.2676 12.9277 13.4521V13.5664C12.9277 14.1816 13.3408 14.5684 13.9912 14.5684C14.6504 14.5684 15.0723 14.1816 15.0723 13.5664V13.4521C15.0723 13.2676 15.1865 13.0742 15.4326 13.0742H17.9023C18.0518 13.0742 18.0869 12.9336 18.0166 12.8457L16.4521 10.7803C16.2939 10.5605 16.1094 10.4639 15.8193 10.4639H12.1807C11.8906 10.4639 11.7061 10.5518 11.5391 10.7803L9.9834 12.8457C9.9043 12.9512 9.93066 13.0742 10.0889 13.0742Z" fill="#1C1C1E"/>
</svg>
