<svg width="28" height="28" viewBox="0 0 28 28" fill="none" xmlns="http://www.w3.org/2000/svg">
<path d="M6.48535 15.4473H21.5234C23.4307 15.4473 24.415 14.4717 24.415 12.6787V9.4707C24.415 8.53906 24.4062 7.87109 23.8877 7.42285L20.7324 4.59277C19.748 3.71387 19.0361 3.41504 17.665 3.41504H10.3438C8.96387 3.41504 8.26074 3.71387 7.26758 4.59277L4.12109 7.42285C3.60254 7.87109 3.58496 8.53906 3.58496 9.4707V12.6787C3.58496 14.4717 4.57812 15.4473 6.48535 15.4473ZM14 11.3867C12.7783 11.3867 12.0137 10.332 12.0137 9.34766V9.32129C12.0137 8.96094 11.7939 8.62695 11.3105 8.62695H5.93164C5.47461 8.62695 5.31641 8.41602 5.69434 8.07324L8.55957 5.49805C9.04297 5.0498 9.37695 4.87402 10.1328 4.87402H17.876C18.6318 4.87402 18.957 5.0498 19.4404 5.49805L22.3145 8.06445C22.7012 8.4248 22.5254 8.62695 22.0771 8.62695H16.6895C16.2061 8.62695 15.9863 8.96094 15.9863 9.32129V9.34766C15.9863 10.332 15.2305 11.3867 14 11.3867ZM6.48535 23.7002H21.5234C23.4131 23.7002 24.415 22.7158 24.415 20.835V17.7676C24.415 17.2227 24.0898 16.7656 23.5361 16.7656H16.707C16.2236 16.7656 16.0039 17.0996 16.0039 17.46V17.4863C16.0039 18.4795 15.2393 19.5342 14 19.5342C12.7607 19.5342 11.9961 18.4795 11.9961 17.4863V17.46C11.9961 17.0996 11.7764 16.7656 11.293 16.7656H4.49023C3.93652 16.7656 3.58496 17.2227 3.58496 17.7676V20.835C3.58496 22.7246 4.58691 23.7002 6.48535 23.7002Z" fill="#1C1C1E"/>
</svg>
