<svg width="28" height="28" viewBox="0 0 28 28" fill="none" xmlns="http://www.w3.org/2000/svg">
<path d="M13.9912 22.7861C18.9746 22.7861 23.0879 18.6729 23.0879 13.6982C23.0879 8.72363 18.9658 4.61035 13.9824 4.61035C9.00781 4.61035 4.90332 8.72363 4.90332 13.6982C4.90332 18.6729 9.0166 22.7861 13.9912 22.7861ZM9.4209 15.3594L12.7695 9.53223C13.3848 8.46875 14.624 8.48633 15.2129 9.52344L18.5703 15.3594C19.2031 16.4492 18.6846 17.5303 17.4629 17.5303H10.5371C9.30664 17.5303 8.78809 16.4492 9.4209 15.3594ZM10.9062 15.7725C10.8184 15.9043 10.8711 16.0273 11.0381 16.0273H16.9531C17.1201 16.0273 17.1729 15.9043 17.085 15.7725L14.1318 10.6484C14.0615 10.5166 13.9209 10.5166 13.8418 10.6484L10.9062 15.7725Z" fill="#1C1C1E"/>
</svg>
