<svg width="28" height="28" viewBox="0 0 28 28" fill="none" xmlns="http://www.w3.org/2000/svg">
<path d="M7.25 22.1006H20.75C22.2881 22.1006 23.2725 20.9668 23.2725 19.5693C23.2725 19.1475 23.167 18.7168 22.9385 18.3213L16.1709 6.52637C15.6963 5.68262 14.8525 5.25195 14 5.25195C13.1475 5.25195 12.2949 5.69141 11.8203 6.52637L5.05273 18.3301C4.82422 18.7256 4.71875 19.1475 4.71875 19.5693C4.71875 20.9668 5.71191 22.1006 7.25 22.1006ZM7.41699 20.4131C6.87207 20.4131 6.51172 19.9648 6.51172 19.4814C6.51172 19.3408 6.5293 19.165 6.61719 19.0068L13.209 7.4668C13.3848 7.16797 13.6924 7.02734 14 7.02734C14.3076 7.02734 14.6064 7.16797 14.7734 7.4668L21.374 19.0244C21.4531 19.1738 21.4883 19.3408 21.4883 19.4814C21.4883 19.9648 21.1191 20.4131 20.5742 20.4131H7.41699Z" fill="#1C1C1E"/>
</svg>
