<svg width="28" height="28" viewBox="0 0 28 28" fill="none" xmlns="http://www.w3.org/2000/svg">
<path d="M4.72754 19.5605C4.72754 20.958 5.71191 22.083 7.24121 22.083H20.75C22.2881 22.083 23.2725 20.958 23.2725 19.5605C23.2725 19.1475 23.1582 18.7256 22.9385 18.3301L16.1709 6.52637C15.6875 5.69141 14.8525 5.25195 14 5.25195C13.1387 5.25195 12.3125 5.69141 11.8291 6.52637L5.06152 18.3213C4.8418 18.7168 4.72754 19.1475 4.72754 19.5605ZM14 20.4307V7.00098C14.3076 7.00098 14.624 7.1416 14.791 7.44043L21.4092 19.0068C21.4883 19.1738 21.5146 19.3408 21.5146 19.4814C21.5146 19.9736 21.1455 20.4307 20.6006 20.4307H14Z" fill="#1C1C1E"/>
</svg>
