<svg width="28" height="28" viewBox="0 0 28 28" fill="none" xmlns="http://www.w3.org/2000/svg">
<path d="M13.9912 22.7422C18.9746 22.7422 23.0879 18.6289 23.0879 13.6543C23.0879 8.67969 18.9658 4.56641 13.9824 4.56641C9.00781 4.56641 4.90332 8.67969 4.90332 13.6543C4.90332 18.6289 9.0166 22.7422 13.9912 22.7422ZM13.9912 20.9316C9.95703 20.9316 6.73145 17.6885 6.73145 13.6543C6.73145 9.62012 9.95703 6.38574 13.9824 6.38574C18.0166 6.38574 21.2598 9.62012 21.2686 13.6543C21.2773 17.6885 18.0254 20.9316 13.9912 20.9316ZM13.9824 17.9082C14.3779 17.9082 14.6592 17.6445 14.6592 17.2051V15.3594L16.0742 14.7441C16.2764 14.6562 16.3643 14.5244 16.3643 14.3398C16.3643 14.1113 16.2061 13.9355 15.9688 13.9355C15.8984 13.9355 15.8193 13.9619 15.7578 13.9883L14.6592 14.4717V13.6719L16.0742 13.0566C16.2764 12.9688 16.3643 12.8369 16.3643 12.6523C16.3643 12.415 16.2061 12.248 15.9688 12.248C15.8984 12.248 15.8281 12.2656 15.7666 12.292L14.6592 12.7842V10.9297H16.6191C16.9883 10.9297 17.2432 10.6836 17.2432 10.3232C17.2432 9.96289 16.9883 9.7168 16.6191 9.7168H11.3369C10.9766 9.7168 10.7129 9.96289 10.7129 10.3232C10.7129 10.6836 10.9766 10.9297 11.3369 10.9297H13.2969V13.3115L11.8994 13.9268C11.6973 14.0146 11.6094 14.1377 11.6094 14.3223C11.6094 14.5596 11.7764 14.7266 12.0137 14.7266C12.084 14.7266 12.1543 14.709 12.2246 14.6826L13.2969 14.208V15.0078L11.8994 15.6143C11.6973 15.7021 11.6094 15.834 11.6094 16.0186C11.6094 16.2471 11.7764 16.4229 12.0137 16.4229C12.084 16.4229 12.1543 16.3965 12.2246 16.3701L13.2969 15.8955V17.2051C13.2969 17.6445 13.5869 17.9082 13.9824 17.9082Z" fill="#1C1C1E"/>
</svg>
