<svg width="28" height="28" viewBox="0 0 28 28" fill="none" xmlns="http://www.w3.org/2000/svg">
<path d="M13.9912 22.7422C18.9746 22.7422 23.0879 18.6289 23.0879 13.6543C23.0879 8.67969 18.9658 4.56641 13.9824 4.56641C9.00781 4.56641 4.90332 8.67969 4.90332 13.6543C4.90332 18.6289 9.0166 22.7422 13.9912 22.7422ZM13.9824 18.0752C13.5693 18.0752 13.2705 17.8027 13.2705 17.3369V15.9834L12.1455 16.4844C12.0752 16.5107 11.9961 16.5283 11.9258 16.5283C11.6797 16.5283 11.5127 16.3525 11.5127 16.1064C11.5127 15.9219 11.6094 15.7812 11.8115 15.6934L13.2705 15.0605V14.2344L12.1455 14.7178C12.0752 14.7529 11.9961 14.7793 11.9258 14.7793C11.6797 14.7793 11.5127 14.5947 11.5127 14.3486C11.5127 14.1553 11.6094 14.0322 11.8115 13.9268L13.2705 13.3027V10.8242H11.2314C10.8535 10.8242 10.5811 10.5693 10.5811 10.1914C10.5811 9.81348 10.8535 9.55859 11.2314 9.55859H16.7246C17.1113 9.55859 17.3838 9.81348 17.3838 10.1914C17.3838 10.5693 17.1113 10.8242 16.7246 10.8242H14.6943V12.7402L15.8369 12.2393C15.9072 12.2129 15.9863 12.1865 16.0479 12.1865C16.2939 12.1865 16.4697 12.3711 16.4697 12.6172C16.4697 12.8018 16.3643 12.9424 16.1709 13.0303L14.6943 13.6719V14.498L15.8281 13.9971C15.8984 13.9619 15.9775 13.9443 16.0479 13.9443C16.2939 13.9443 16.4697 14.1289 16.4697 14.3662C16.4697 14.5596 16.3643 14.7002 16.1709 14.7881L14.6943 15.4297V17.3369C14.6943 17.8027 14.3955 18.0752 13.9824 18.0752Z" fill="#1C1C1E"/>
</svg>
