<svg width="28" height="28" viewBox="0 0 28 28" fill="none" xmlns="http://www.w3.org/2000/svg">
<path d="M8.67383 21.8809H19.3174C21.2246 21.8809 22.209 20.8965 22.209 19.0156V8.31934C22.209 6.43848 21.2246 5.4541 19.3174 5.4541H8.67383C6.77539 5.4541 5.78223 6.42969 5.78223 8.31934V19.0156C5.78223 20.8965 6.77539 21.8809 8.67383 21.8809ZM8.78809 20.1318C7.97949 20.1318 7.53125 19.71 7.53125 18.8574V8.47754C7.53125 7.625 7.97949 7.20312 8.78809 7.20312H19.2031C20.0029 7.20312 20.46 7.625 20.46 8.47754V18.8574C20.46 19.71 20.0029 20.1318 19.2031 20.1318H8.78809ZM14 17.8994C14.3955 17.8994 14.6768 17.6445 14.6768 17.2051V15.3594L16.0918 14.7354C16.2852 14.6562 16.3818 14.5244 16.3818 14.3398C16.3818 14.1025 16.2148 13.9355 15.9863 13.9355C15.9072 13.9355 15.8369 13.9531 15.7666 13.9795L14.6768 14.4629V13.6631L16.0918 13.0479C16.2852 12.96 16.3818 12.8281 16.3818 12.6436C16.3818 12.415 16.2148 12.2393 15.9775 12.2393C15.916 12.2393 15.8457 12.2568 15.7754 12.2832L14.6768 12.7754V10.9209H16.6367C16.9971 10.9209 17.2607 10.6748 17.2607 10.3145C17.2607 9.9541 16.9971 9.70801 16.6367 9.70801H11.3545C10.9941 9.70801 10.7305 9.9541 10.7305 10.3145C10.7305 10.6748 10.9941 10.9209 11.3545 10.9209H13.3145V13.3115L11.917 13.918C11.7148 14.0059 11.627 14.1377 11.627 14.3223C11.627 14.5508 11.7852 14.7266 12.0225 14.7266C12.0928 14.7266 12.1719 14.7002 12.2334 14.6738L13.3145 14.1992V14.999L11.917 15.6055C11.7148 15.7021 11.627 15.8252 11.627 16.0098C11.627 16.2471 11.7852 16.4141 12.0225 16.4141C12.0928 16.4141 12.1719 16.3965 12.2334 16.3701L13.3145 15.8867V17.2051C13.3145 17.6445 13.5957 17.8994 14 17.8994Z" fill="#1C1C1E"/>
</svg>
