<svg width="28" height="28" viewBox="0 0 28 28" fill="none" xmlns="http://www.w3.org/2000/svg">
<path d="M6.39746 23.1641C7.42578 23.1641 8.26074 22.3203 8.26074 21.292C8.26074 21.1777 8.25195 21.0635 8.23438 20.9492L10.792 18.3916L14.2109 18.3828C14.8086 18.3828 15.4414 18.1631 15.8633 17.75L23.1494 10.5693C23.5713 10.1475 23.5537 9.48828 23.1494 9.06641C22.7539 8.65332 22.0684 8.65332 21.6553 9.06641L14.6592 16.0713C14.4395 16.291 14.167 16.4053 13.8594 16.4053H11.583L11.4512 16.2646V13.7861C11.4512 13.4697 11.5742 13.1973 11.7852 12.9863L18.6758 6.0957C19.0889 5.68262 19.0801 5.01465 18.6846 4.60156C18.2803 4.17969 17.5947 4.17969 17.1816 4.60156L10.001 11.8877C9.55273 12.3447 9.36816 12.9512 9.35938 13.54V16.8271L6.74023 19.4551C6.62598 19.4287 6.51172 19.4199 6.39746 19.4199C5.36914 19.4199 4.53418 20.2549 4.53418 21.292C4.53418 22.3203 5.36914 23.1641 6.39746 23.1641Z" fill="#1C1C1E"/>
</svg>
