<svg width="28" height="28" viewBox="0 0 28 28" fill="none" xmlns="http://www.w3.org/2000/svg">
<path d="M13.9912 22.7422C18.9746 22.7422 23.0879 18.6289 23.0879 13.6543C23.0879 8.67969 18.9658 4.56641 13.9824 4.56641C9.00781 4.56641 4.90332 8.67969 4.90332 13.6543C4.90332 18.6289 9.0166 22.7422 13.9912 22.7422ZM13.9912 20.9316C9.95703 20.9316 6.73145 17.6885 6.73145 13.6543C6.73145 9.62012 9.95703 6.38574 13.9824 6.38574C18.0166 6.38574 21.2598 9.62012 21.2686 13.6543C21.2773 17.6885 18.0254 20.9316 13.9912 20.9316ZM13.1475 17.7061C15.626 17.7061 17.0762 15.9219 17.0762 14.3574C17.0762 13.9619 16.8301 13.6982 16.4521 13.6982C16.1182 13.6982 15.8896 13.9004 15.8193 14.3135C15.6699 15.4209 14.7822 16.4229 13.5078 16.4229V13.7949L15.2832 13.0742C15.4766 12.9951 15.5557 12.8721 15.5557 12.6787C15.5557 12.4414 15.3975 12.2744 15.1602 12.2744C15.0898 12.2744 15.0107 12.292 14.9316 12.3271L13.5078 12.9072V12.1162L15.2832 11.3955C15.4766 11.3164 15.5557 11.1934 15.5557 11C15.5557 10.7627 15.3975 10.5957 15.1602 10.5957C15.0898 10.5957 15.0107 10.6133 14.9316 10.6484L13.5078 11.2285V10.2178C13.5078 9.7959 13.2441 9.53223 12.8574 9.53223C12.4707 9.53223 12.2158 9.7959 12.2158 10.2178V11.7383L11.1699 12.1602C10.9766 12.2393 10.8887 12.3623 10.8887 12.5557C10.8887 12.793 11.0557 12.96 11.293 12.96C11.3633 12.96 11.4424 12.9424 11.5215 12.9072L12.2158 12.626V13.417L11.1699 13.8389C10.9766 13.9268 10.8887 14.0498 10.8887 14.2344C10.8887 14.4717 11.0557 14.6475 11.293 14.6475C11.3633 14.6475 11.4424 14.6211 11.5215 14.5947L12.2158 14.3047V16.8447C12.2158 17.3545 12.5322 17.7061 13.1475 17.7061Z" fill="#1C1C1E"/>
</svg>
