<svg width="28" height="28" viewBox="0 0 28 28" fill="none" xmlns="http://www.w3.org/2000/svg">
<path d="M3.68164 19.6309H15.6699V17.9258H3.7959C3.21582 17.9258 2.95215 17.6885 2.95215 17.0908V7.15918C2.95215 6.56152 3.21582 6.32422 3.7959 6.32422H21.0664C21.6465 6.32422 21.9102 6.56152 21.9102 7.15918V9.85742H23.6152V7.05371C23.6152 5.42773 22.7803 4.61914 21.1807 4.61914H3.68164C2.08203 4.61914 1.24707 5.42773 1.24707 7.05371V17.1963C1.24707 18.8223 2.08203 19.6309 3.68164 19.6309ZM19.0273 23.6826H24.7842C26.0762 23.6826 26.7529 22.9971 26.7529 21.6875V13.2324C26.7529 11.9141 26.0762 11.2373 24.7842 11.2373H19.0273C17.7178 11.2373 17.0586 11.9141 17.0586 13.2324V21.6875C17.0586 22.9971 17.7178 23.6826 19.0273 23.6826ZM21.9102 15.8867C21.0576 15.8867 20.3633 15.21 20.3721 14.3398C20.3721 13.4873 21.0576 12.8105 21.9102 12.8105C22.7715 12.8105 23.4395 13.4873 23.4395 14.3398C23.4395 15.21 22.7715 15.8867 21.9102 15.8867ZM21.9014 15.0342C22.2881 15.0342 22.5869 14.7354 22.5869 14.3398C22.5869 13.9531 22.2881 13.6543 21.9014 13.6543C21.5322 13.6543 21.2246 13.9707 21.2246 14.3398C21.2246 14.7354 21.5234 15.0342 21.9014 15.0342ZM21.9014 22.083C20.416 22.083 19.2295 20.8877 19.2295 19.3936C19.2295 17.8994 20.416 16.7129 21.9014 16.7041C23.3867 16.6953 24.582 17.8994 24.582 19.3936C24.582 20.8877 23.3867 22.083 21.9014 22.083ZM21.9014 20.4482C22.4902 20.4482 22.9648 19.9736 22.9648 19.3936C22.9648 18.7871 22.499 18.3213 21.9014 18.3213C21.3213 18.3213 20.8467 18.7871 20.8467 19.3936C20.8467 19.9736 21.3213 20.4482 21.9014 20.4482ZM7.4873 22.707H15.793C15.6963 22.3027 15.6787 21.8281 15.6787 21.0986H7.4873C7.04785 21.0986 6.6875 21.4678 6.6875 21.9072C6.6875 22.3467 7.04785 22.707 7.4873 22.707Z" fill="#1C1C1E"/>
</svg>
