<svg width="28" height="28" viewBox="0 0 28 28" fill="none" xmlns="http://www.w3.org/2000/svg">
<path d="M13.9912 22.7422C18.9746 22.7422 23.0879 18.6289 23.0879 13.6543C23.0879 8.67969 18.9658 4.56641 13.9824 4.56641C9.00781 4.56641 4.90332 8.67969 4.90332 13.6543C4.90332 18.6289 9.0166 22.7422 13.9912 22.7422ZM13.9912 20.9316C9.95703 20.9316 6.73145 17.6885 6.73145 13.6543C6.73145 9.62012 9.95703 6.38574 13.9824 6.38574C18.0166 6.38574 21.2598 9.62012 21.2686 13.6543C21.2773 17.6885 18.0254 20.9316 13.9912 20.9316ZM10.2119 16.7217H17.7617C18.5791 16.7217 19.0625 16.2383 19.0625 15.4297V11.0791C19.0625 10.2617 18.5879 9.78711 17.7617 9.78711H10.2119C9.38574 9.78711 8.91113 10.2617 8.91113 11.0791V15.4297C8.91113 16.2383 9.39453 16.7217 10.2119 16.7217ZM10.3525 15.5C10.1855 15.5 10.1328 15.4473 10.1328 15.2891V11.2197C10.1328 11.0527 10.1855 11 10.3525 11H17.6211C17.7793 11 17.8408 11.0615 17.8408 11.2197V15.2891C17.8408 15.4385 17.7793 15.5 17.6211 15.5H10.3525ZM11.7061 18.5234H16.2852C16.6104 18.5234 16.8652 18.251 16.8652 17.917C16.8652 17.6006 16.6104 17.3369 16.2852 17.3369H11.7061C11.3809 17.3369 11.1084 17.6006 11.1084 17.917C11.1084 18.251 11.3721 18.5234 11.7061 18.5234Z" fill="#1C1C1E"/>
</svg>
