<svg width="28" height="28" viewBox="0 0 28 28" fill="none" xmlns="http://www.w3.org/2000/svg">
<path d="M5.24609 19.6309H22.7451C24.3447 19.6309 25.1797 18.8223 25.1797 17.1963V7.05371C25.1797 5.42773 24.3447 4.61914 22.7451 4.61914H5.24609C3.64648 4.61914 2.81152 5.42773 2.81152 7.05371V17.1963C2.81152 18.8223 3.64648 19.6309 5.24609 19.6309ZM16.707 10.4375L14.5801 10.9561C14.3867 11.0088 14.3252 11.0791 14.3252 11.4043V14.4102C14.3252 15.7461 13.4199 16.6865 12.1016 16.6865C11.1787 16.6865 10.5811 16.124 10.5811 15.333C10.5811 14.4453 11.2578 13.9268 12.1191 13.6982L12.9541 13.4785C13.3936 13.3643 13.4287 13.3027 13.4287 12.8984V8.9082C13.4287 8.36328 13.5342 8.25781 13.9912 8.14355L16.6631 7.47559C17.1553 7.35254 17.3047 7.51074 17.3047 7.88867V9.68164C17.3047 10.2178 17.1729 10.332 16.707 10.4375ZM9.5 22.707H18.4912C18.9307 22.707 19.291 22.3467 19.291 21.9072C19.291 21.4678 18.9307 21.0986 18.4912 21.0986H9.5C9.06055 21.0986 8.7002 21.4678 8.7002 21.9072C8.7002 22.3467 9.06055 22.707 9.5 22.707Z" fill="#1C1C1E"/>
</svg>
