<svg width="28" height="28" viewBox="0 0 28 28" fill="none" xmlns="http://www.w3.org/2000/svg">
<path d="M13.9912 22.7422C18.9746 22.7422 23.0879 18.6289 23.0879 13.6543C23.0879 8.67969 18.9658 4.56641 13.9824 4.56641C9.00781 4.56641 4.90332 8.67969 4.90332 13.6543C4.90332 18.6289 9.0166 22.7422 13.9912 22.7422ZM13.9912 20.9316C9.95703 20.9316 6.73145 17.6885 6.73145 13.6543C6.73145 9.62012 9.95703 6.38574 13.9824 6.38574C18.0166 6.38574 21.2598 9.62012 21.2686 13.6543C21.2773 17.6885 18.0254 20.9316 13.9912 20.9316ZM13.9824 17.7676C16.0566 17.7676 17.4629 16.5723 17.4629 14.7617V10.4463C17.4629 9.84863 17.1553 9.51465 16.6104 9.51465C16.083 9.51465 15.7754 9.85742 15.7754 10.4463V14.6035C15.7754 15.6846 15.0635 16.3789 13.9824 16.3789C12.9014 16.3789 12.1895 15.6846 12.1895 14.6035V10.4463C12.1895 9.85742 11.8818 9.51465 11.3457 9.51465C10.8184 9.51465 10.5107 9.84863 10.5107 10.4463V14.7617C10.5107 16.5723 11.9082 17.7676 13.9824 17.7676Z" fill="#1C1C1E"/>
</svg>
