<svg width="28" height="28" viewBox="0 0 28 28" fill="none" xmlns="http://www.w3.org/2000/svg">
<path d="M6.29199 14.6475C6.63477 14.6475 6.86328 14.4365 7.12695 14.1289C7.58398 13.4697 8.11133 13.0742 8.89355 13.0742C9.67578 13.0742 10.168 13.4785 10.6074 14.1904C10.792 14.4541 10.9941 14.6475 11.293 14.6475C11.5918 14.6475 11.7939 14.4541 11.9785 14.1904C12.2422 13.7686 12.6465 13.4258 13.1035 13.2236V20.3867C13.1035 21.002 12.6729 21.4941 12.0049 21.4941C11.3369 21.4941 10.8975 20.9932 10.8975 20.3779C10.8975 19.7803 10.5195 19.4023 10.0186 19.4023C9.50879 19.4023 9.13086 19.7803 9.13086 20.3867C9.13086 21.9688 10.3613 23.2168 12.0049 23.2168C13.6484 23.2168 14.8789 22.0391 14.8789 20.4131V13.2236C15.3447 13.4258 15.749 13.7686 16.0127 14.1816C16.2061 14.4453 16.3906 14.6475 16.6895 14.6475C16.9883 14.6475 17.1904 14.4541 17.3838 14.1904C17.832 13.4961 18.3242 13.0742 19.0977 13.0742C19.8799 13.0742 20.416 13.4609 20.8643 14.1289C21.1279 14.4365 21.3564 14.6475 21.6992 14.6475C22.1299 14.6475 22.5166 14.2959 22.5166 13.7686C22.5166 10.5781 20.1084 6.0957 14.8789 5.63867V4.55762C14.8789 4.0127 14.501 3.63477 13.9912 3.63477C13.4902 3.63477 13.1123 4.0127 13.1123 4.55762V5.63867C7.87402 6.0957 5.47461 10.5781 5.47461 13.7686C5.47461 14.2959 5.86133 14.6475 6.29199 14.6475ZM16.4346 12.7754C15.9248 12.0459 14.9932 11.5098 13.9912 11.5098C12.998 11.5098 12.0664 12.0459 11.5479 12.7666C11.5039 12.8369 11.4775 12.8633 11.4336 12.8633C11.3896 12.8633 11.3545 12.8369 11.3105 12.7666C10.8271 11.9492 10.0361 11.5449 9.20996 11.5449C8.33984 11.5449 7.61035 11.9932 7.18848 12.5996C7.63672 10.3232 9.83398 7.19434 13.9912 7.19434C18.1572 7.20312 20.3545 10.3232 20.8027 12.5996C20.3721 11.9932 19.6514 11.5449 18.7812 11.5449C17.9551 11.5449 17.1641 11.958 16.6807 12.7754C16.6367 12.8369 16.6016 12.8633 16.5576 12.8633C16.5137 12.8633 16.4873 12.8369 16.4346 12.7754Z" fill="#1C1C1E"/>
</svg>
