<svg width="28" height="28" viewBox="0 0 28 28" fill="none" xmlns="http://www.w3.org/2000/svg">
<path d="M13.9912 22.7422C18.9746 22.7422 23.0879 18.6289 23.0879 13.6543C23.0879 8.67969 18.9658 4.56641 13.9824 4.56641C9.00781 4.56641 4.90332 8.67969 4.90332 13.6543C4.90332 18.6289 9.0166 22.7422 13.9912 22.7422ZM13.9912 20.9316C9.95703 20.9316 6.73145 17.6885 6.73145 13.6543C6.73145 9.62012 9.95703 6.38574 13.9824 6.38574C18.0166 6.38574 21.2598 9.62012 21.2686 13.6543C21.2773 17.6885 18.0254 20.9316 13.9912 20.9316ZM13.9824 17.75C14.6592 17.75 15.0459 17.4336 15.292 16.7305L17.5244 10.7715C17.5771 10.5957 17.6035 10.4727 17.6035 10.3232C17.6035 9.83984 17.2432 9.51465 16.7334 9.51465C16.2588 9.51465 16.0039 9.73438 15.8545 10.2705L14.0176 15.8955H13.9473L12.1104 10.2705C11.9609 9.73438 11.7061 9.51465 11.2314 9.51465C10.7217 9.51465 10.3613 9.84863 10.3613 10.3232C10.3613 10.4814 10.3877 10.5957 10.4404 10.7715L12.6816 16.7568C12.9277 17.4688 13.2881 17.75 13.9824 17.75Z" fill="#1C1C1E"/>
</svg>
