<svg width="28" height="28" viewBox="0 0 28 28" fill="none" xmlns="http://www.w3.org/2000/svg">
<path d="M8.67383 21.8721H19.3174C21.2158 21.8721 22.2002 20.8877 22.2002 19.0156V8.31934C22.2002 6.43848 21.2158 5.46289 19.3174 5.46289H8.67383C6.77539 5.46289 5.79102 6.43848 5.79102 8.31934V19.0156C5.79102 20.8965 6.77539 21.8721 8.67383 21.8721ZM8.7793 20.1494C7.96191 20.1494 7.51367 19.7188 7.51367 18.8662V8.45996C7.51367 7.60742 7.96191 7.18555 8.7793 7.18555H19.2119C20.0205 7.18555 20.4775 7.60742 20.4775 8.45996V18.8662C20.4775 19.7188 20.0205 20.1494 19.2119 20.1494H8.7793ZM10.4492 17.126H14.9053C15.8018 17.126 16.3203 16.6162 16.3203 15.7461V11.5889C16.3203 10.7012 15.8369 10.2002 14.9404 10.2002H10.4492C9.58789 10.2002 9.03418 10.7012 9.03418 11.5889V15.7637C9.03418 16.6426 9.56152 17.126 10.4492 17.126ZM16.8125 14.9111L18.3945 16.2559C18.5703 16.3965 18.7461 16.502 18.9131 16.502C19.2559 16.502 19.4844 16.2559 19.4844 15.8867V11.457C19.4844 11.0879 19.2559 10.8506 18.9131 10.8506C18.7461 10.8506 18.5615 10.9473 18.3945 11.0791L16.8125 12.4238V14.9111Z" fill="#1C1C1E"/>
</svg>
