<svg width="28" height="28" viewBox="0 0 28 28" fill="none" xmlns="http://www.w3.org/2000/svg">
<path d="M13.9912 22.7598C18.9746 22.7598 23.0879 18.6465 23.0879 13.6631C23.0879 8.68848 18.9658 4.5752 13.9824 4.5752C9.00781 4.5752 4.90332 8.68848 4.90332 13.6631C4.90332 18.6465 9.0166 22.7598 13.9912 22.7598ZM10.3262 17.2666C9.40332 17.2666 8.84961 16.7568 8.84961 15.8428V11.5186C8.84961 10.6045 9.42969 10.0771 10.3262 10.0771H14.9668C15.9072 10.0771 16.3994 10.6045 16.3994 11.5186V15.8252C16.3994 16.7305 15.8633 17.2666 14.9316 17.2666H10.3262ZM16.918 14.9814V12.3799L18.5352 11C18.7197 10.8506 18.9131 10.7539 19.0889 10.7539C19.4404 10.7539 19.6777 11 19.6777 11.3779V15.9746C19.6777 16.3613 19.4404 16.6074 19.0889 16.6074C18.9131 16.6074 18.7197 16.5107 18.5352 16.3613L16.918 14.9814Z" fill="#1C1C1E"/>
</svg>
