<svg width="28" height="28" viewBox="0 0 28 28" fill="none" xmlns="http://www.w3.org/2000/svg">
<path d="M13.9912 22.7422C18.9746 22.7422 23.0879 18.6289 23.0879 13.6543C23.0879 8.67969 18.9658 4.56641 13.9824 4.56641C9.00781 4.56641 4.90332 8.67969 4.90332 13.6543C4.90332 18.6289 9.0166 22.7422 13.9912 22.7422ZM13.9912 20.9316C9.95703 20.9316 6.73145 17.6885 6.73145 13.6543C6.73145 9.62012 9.95703 6.38574 13.9824 6.38574C18.0166 6.38574 21.2598 9.62012 21.2686 13.6543C21.2773 17.6885 18.0254 20.9316 13.9912 20.9316ZM10.4492 17.126H14.8877C15.7842 17.126 16.3027 16.6162 16.3027 15.7373V11.6064C16.3027 10.7188 15.8193 10.2178 14.9229 10.2178H10.4492C9.58789 10.2178 9.03418 10.7188 9.03418 11.6064V15.7637C9.03418 16.6426 9.56152 17.126 10.4492 17.126ZM16.7949 14.9287L18.3594 16.2559C18.5352 16.3965 18.7109 16.502 18.8867 16.502C19.2295 16.502 19.458 16.2559 19.458 15.8867V11.4658C19.458 11.1055 19.2295 10.8594 18.8867 10.8594C18.7109 10.8594 18.5264 10.9561 18.3594 11.0967L16.7949 12.4326V14.9287Z" fill="#1C1C1E"/>
</svg>
