<svg width="28" height="28" viewBox="0 0 28 28" fill="none" xmlns="http://www.w3.org/2000/svg">
<g clip-path="url(#clip0_610_1297)">
<path d="M10.6514 20.9932H16.3203C18.5615 20.9932 19.8711 19.7188 19.8711 17.5039V16.4404L23.0439 19.1299C23.4482 19.4727 23.8789 19.7012 24.292 19.7012C25.0918 19.7012 25.6367 19.1211 25.6367 18.2598V9.08398C25.6367 8.22266 25.0918 7.64258 24.292 7.64258C23.8789 7.64258 23.4482 7.87109 23.0439 8.21387L19.8711 10.9033V9.7959C19.8711 7.58984 18.5615 6.31543 16.3203 6.31543H7.1709C5.00879 6.31543 3.62012 7.58984 3.62012 9.80469V14.1201C3.875 13.9795 4.17383 13.9004 4.49023 13.9004C4.78027 13.9004 5.06152 13.9707 5.29883 14.0938V10.0508C5.29883 8.5918 6.08105 7.87109 7.46094 7.87109H16.0303C17.4102 7.87109 18.1924 8.60938 18.1924 10.0508V17.2578C18.1924 18.6992 17.4014 19.4287 16.0303 19.4287H10.6514V20.9932ZM19.8711 14.5684V12.7754L23.7031 9.6377C23.7822 9.57617 23.835 9.54102 23.9053 9.54102C24.002 9.54102 24.0547 9.62012 24.0547 9.73438V17.6094C24.0547 17.7324 24.002 17.8027 23.9053 17.8027C23.835 17.8027 23.7822 17.7588 23.7031 17.7061L19.8711 14.5684ZM4.49023 23.8408C4.78027 23.8408 5.00879 23.6123 5.00879 23.3223V15.8867C5.00879 15.5879 4.78027 15.3594 4.49023 15.3594C4.2002 15.3594 3.97168 15.5879 3.97168 15.8867V23.3223C3.97168 23.6211 4.19141 23.8408 4.49023 23.8408ZM6.57324 22.8389C6.87207 22.8389 7.10059 22.6104 7.10059 22.3203V16.8711C7.10059 16.5898 6.87207 16.3613 6.57324 16.3613C6.29199 16.3613 6.06348 16.5898 6.06348 16.8711V22.3203C6.06348 22.6104 6.29199 22.8389 6.57324 22.8389ZM2.38965 22.373C2.67969 22.373 2.9082 22.1445 2.9082 21.8457V17.3369C2.9082 17.0557 2.67969 16.8184 2.38965 16.8184C2.09961 16.8184 1.87109 17.0557 1.87109 17.3369V21.8457C1.87109 22.1445 2.09961 22.373 2.38965 22.373ZM8.67383 21.2656C8.97266 21.2656 9.19238 21.0459 9.19238 20.7471V18.4355C9.19238 18.1455 8.97266 17.917 8.67383 17.917C8.38379 17.917 8.15527 18.1543 8.15527 18.4355V20.7471C8.15527 21.0459 8.38379 21.2656 8.67383 21.2656ZM0.289062 20.8086C0.587891 20.8086 0.816406 20.5801 0.816406 20.2988V18.9014C0.816406 18.6113 0.587891 18.3828 0.289062 18.3828C0.0078125 18.3828 -0.220703 18.6113 -0.220703 18.9014V20.2988C-0.220703 20.5801 0.0078125 20.8086 0.289062 20.8086Z" fill="#1C1C1E"/>
</g>
<defs>
<clipPath id="clip0_610_1297">
<rect width="28" height="28" fill="white"/>
</clipPath>
</defs>
</svg>
