<svg width="28" height="28" viewBox="0 0 28 28" fill="none" xmlns="http://www.w3.org/2000/svg">
<path d="M14 22.7334C18.9658 22.7334 23.0791 18.6289 23.0791 13.6543C23.0791 8.68848 18.9658 4.5752 13.9912 4.5752C9.02539 4.5752 4.9209 8.68848 4.9209 13.6543C4.9209 18.6289 9.03418 22.7334 14 22.7334ZM14 20.9492C9.95703 20.9492 6.71387 17.6973 6.71387 13.6543C6.71387 9.61133 9.94824 6.36816 13.9912 6.36816C18.0342 6.36816 21.2861 9.61133 21.2949 13.6543C21.2949 17.6973 18.043 20.9492 14 20.9492ZM8.72656 13.6543C8.72656 16.5459 11.1084 18.9277 13.9912 18.9277C16.8828 18.9277 19.2734 16.5459 19.2734 13.6543C19.2734 10.7627 16.8916 8.38086 14 8.38086C11.1084 8.38086 8.72656 10.7627 8.72656 13.6543ZM10.9941 11.2021C11.6973 10.3232 12.7783 9.76074 14 9.76074C15.2305 9.76074 16.3027 10.3232 17.0146 11.2021H10.9941ZM10.1152 13.6543C10.1152 13.2324 10.1855 12.8281 10.3262 12.4414H17.6826C17.8232 12.8281 17.8936 13.2324 17.8936 13.6543C17.8848 15.8164 16.1533 17.5479 13.9912 17.5479C11.8379 17.5479 10.1152 15.8164 10.1152 13.6543Z" fill="#1C1C1E"/>
</svg>
