<svg width="28" height="28" viewBox="0 0 28 28" fill="none" xmlns="http://www.w3.org/2000/svg">
<path d="M9.31543 23.1816H18.6846C20.5654 23.1816 21.5498 22.1885 21.5498 20.29V7.03613C21.5498 5.12891 20.5742 4.13574 18.6846 4.13574H16.54C16.1973 4.13574 15.9863 4.39062 15.9863 4.72461V4.87402C15.9863 6.02539 15.2041 6.71094 14 6.71094C12.8047 6.71094 12.0137 6.02539 12.0137 4.87402V4.72461C12.0137 4.39062 11.8027 4.13574 11.46 4.13574H9.31543C7.43457 4.13574 6.4502 5.12891 6.4502 7.03613V20.29C6.4502 22.1885 7.43457 23.1816 9.31543 23.1816ZM10.7744 10.8857C10.4404 10.8857 10.2031 10.6396 10.2031 10.3145C10.2031 9.99805 10.4404 9.76074 10.7744 9.76074H17.2344C17.5508 9.76074 17.7969 9.99805 17.7969 10.3145C17.7969 10.6396 17.5508 10.8857 17.2344 10.8857H10.7744ZM10.7744 13.9971C10.4404 13.9971 10.2031 13.751 10.2031 13.4434C10.2031 13.1182 10.4404 12.8633 10.7744 12.8633H13.9121C14.2285 12.8633 14.4746 13.1182 14.4746 13.4434C14.4746 13.751 14.2285 13.9971 13.9121 13.9971H10.7744Z" fill="#1C1C1E"/>
</svg>
