<svg width="28" height="28" viewBox="0 0 28 28" fill="none" xmlns="http://www.w3.org/2000/svg">
<path d="M13.9912 22.7598C18.9746 22.7598 23.0879 18.6465 23.0879 13.6631C23.0879 8.68848 18.9658 4.5752 13.9824 4.5752C9.00781 4.5752 4.90332 8.68848 4.90332 13.6631C4.90332 18.6465 9.0166 22.7598 13.9912 22.7598ZM17.8672 13.6631C17.8672 15.6846 17.2871 17.6445 16.2148 19.2178C15.9775 19.5693 15.5469 19.6572 15.2217 19.4375C14.8789 19.209 14.8174 18.7783 15.0459 18.418C15.96 17.0908 16.4609 15.3945 16.4609 13.6631C16.4609 11.9229 15.9688 10.2441 15.0459 8.91699C14.8174 8.55664 14.8789 8.12598 15.2217 7.89746C15.5557 7.66895 15.9863 7.75684 16.2148 8.1084C17.2871 9.69922 17.8672 11.6592 17.8672 13.6631ZM15.0459 13.6631C15.0459 15.1396 14.6152 16.5723 13.8242 17.6885C13.5957 18.0225 13.1826 18.1191 12.8486 17.8906C12.5146 17.6797 12.4355 17.2314 12.6816 16.8535C13.2881 15.9922 13.6309 14.8496 13.6309 13.6631C13.6309 12.4854 13.2881 11.3428 12.6816 10.4814C12.4355 10.1035 12.5146 9.65527 12.8486 9.44434C13.1826 9.21582 13.5957 9.30371 13.8242 9.6377C14.6152 10.7451 15.0459 12.1689 15.0459 13.6631ZM12.2158 13.6631C12.2158 14.6035 11.9346 15.5264 11.4512 16.168C11.2402 16.4844 10.8096 16.5635 10.4844 16.3525C10.1328 16.1152 10.0625 15.6758 10.3262 15.2891C10.625 14.8672 10.8008 14.2695 10.8008 13.6631C10.8008 13.0479 10.625 12.459 10.3262 12.0459C10.0537 11.6592 10.124 11.2109 10.4844 10.9736C10.8096 10.7627 11.2314 10.8506 11.4512 11.1582C11.9346 11.835 12.2158 12.7578 12.2158 13.6631Z" fill="#1C1C1E"/>
</svg>
