<svg width="28" height="28" viewBox="0 0 28 28" fill="none" xmlns="http://www.w3.org/2000/svg">
<path d="M5.82617 15.4649H9.72852C10.1768 15.4649 10.4492 15.2627 10.5459 14.8672L11.75 9.32133L13.9648 22.6807C14.0879 23.4278 15.2305 23.419 15.3799 22.6895L17.5068 12.6524L17.9287 14.7881C18.0254 15.2452 18.2891 15.4649 18.7549 15.4649H22.1826C22.5869 15.4649 22.9121 15.1485 22.9121 14.7442C22.9121 14.3311 22.5957 14.0147 22.1826 14.0147H19.1328L18.1484 9.62016C17.9902 8.90825 16.918 8.90825 16.751 9.64653L14.668 18.9893L12.4443 5.4893C12.3301 4.75981 11.2666 4.74223 11.1084 5.48051L9.2627 14.0147H5.82617C5.41309 14.0147 5.08789 14.3399 5.08789 14.7442C5.08789 15.1485 5.41309 15.4649 5.82617 15.4649Z" fill="#1C1C1E"/>
</svg>
