<svg width="28" height="28" viewBox="0 0 28 28" fill="none" xmlns="http://www.w3.org/2000/svg">
<path d="M18.4385 13.6631C18.4385 10.7012 17.3311 7.97656 15.3975 5.95508C15.0547 5.58594 14.5538 5.6123 14.2725 5.92871C13.9825 6.24512 14.0352 6.70215 14.3692 7.05371C16.0303 8.79395 16.9356 11.123 16.9356 13.6631C16.9356 16.2031 16.0303 18.5322 14.3692 20.2725C14.0352 20.624 13.9825 21.0811 14.2725 21.3887C14.5538 21.7139 15.0547 21.7402 15.3975 21.3711C17.3311 19.3408 18.4385 16.625 18.4385 13.6631ZM15.2393 13.6631C15.2393 11.5537 14.4834 9.59375 13.1299 8.11719C12.7784 7.73926 12.2686 7.73047 11.961 8.08203C11.6709 8.40723 11.75 8.83789 12.084 9.20703C13.1475 10.4111 13.7364 11.958 13.7364 13.6631C13.7364 15.3594 13.1475 16.915 12.084 18.1191C11.75 18.4883 11.6709 18.9102 11.961 19.2441C12.2686 19.5869 12.7784 19.5869 13.1299 19.2002C14.4834 17.7324 15.2393 15.7725 15.2393 13.6631ZM12.0313 13.6631C12.0313 12.4678 11.627 11.3428 10.9151 10.4463C10.5987 10.042 10.045 10.0332 9.73735 10.376C9.44731 10.7012 9.54399 11.0967 9.84282 11.5098C10.2911 12.0986 10.5284 12.8457 10.5284 13.6631C10.5284 14.4805 10.2911 15.2275 9.84282 15.8164C9.54399 16.2207 9.44731 16.6162 9.73735 16.9414C10.045 17.293 10.5987 17.2842 10.9151 16.8711C11.627 15.9834 12.0313 14.8584 12.0313 13.6631Z" fill="#1C1C1E"/>
</svg>
