<svg width="28" height="28" viewBox="0 0 28 28" fill="none" xmlns="http://www.w3.org/2000/svg">
<path d="M13.9912 22.7422C18.9746 22.7422 23.0879 18.6289 23.0879 13.6543C23.0879 8.67969 18.9658 4.56641 13.9824 4.56641C9.00781 4.56641 4.90332 8.67969 4.90332 13.6543C4.90332 18.6289 9.0166 22.7422 13.9912 22.7422ZM13.9912 20.9316C9.95703 20.9316 6.73145 17.6885 6.73145 13.6543C6.73145 9.62012 9.95703 6.38574 13.9824 6.38574C18.0166 6.38574 21.2598 9.62012 21.2686 13.6543C21.2773 17.6885 18.0254 20.9316 13.9912 20.9316ZM13.1035 19.209C13.4111 19.209 13.6484 18.9717 13.6484 18.6641V8.65332C13.6484 8.33691 13.4111 8.09961 13.1035 8.09961C12.7959 8.09961 12.5586 8.33691 12.5586 8.65332V18.6641C12.5586 18.9805 12.7871 19.209 13.1035 19.209ZM16.6191 18.04C16.9355 18.04 17.1729 17.8027 17.1729 17.5039V9.80469C17.1729 9.50586 16.9355 9.26855 16.6191 9.26855C16.3203 9.26855 16.083 9.50586 16.083 9.80469V17.5039C16.083 17.8027 16.3203 18.04 16.6191 18.04ZM11.3457 17.082C11.6533 17.082 11.8906 16.8447 11.8906 16.5371V10.7627C11.8906 10.4639 11.6533 10.2266 11.3457 10.2266C11.0381 10.2266 10.8008 10.4639 10.8008 10.7627V16.5371C10.8008 16.8447 11.0381 17.082 11.3457 17.082ZM14.8613 16.4316C15.1689 16.4316 15.4062 16.1855 15.4062 15.8867V11.4219C15.4062 11.123 15.1689 10.8857 14.8613 10.8857C14.5625 10.8857 14.3252 11.123 14.3252 11.4219V15.8867C14.3252 16.1855 14.5625 16.4316 14.8613 16.4316ZM18.3945 15.4297C18.7021 15.4297 18.9307 15.2012 18.9307 14.8848V12.4238C18.9307 12.1074 18.7021 11.8789 18.3945 11.8789C18.0781 11.8789 17.8408 12.1162 17.8408 12.4238V14.8848C17.8408 15.1924 18.0781 15.4297 18.3945 15.4297ZM9.5791 14.999C9.88672 14.999 10.124 14.7617 10.124 14.4541V12.8545C10.124 12.5469 9.88672 12.3096 9.5791 12.3096C9.27148 12.3096 9.03418 12.5469 9.03418 12.8545V14.4541C9.03418 14.7617 9.27148 14.999 9.5791 14.999Z" fill="#1C1C1E"/>
</svg>
