<svg width="28" height="28" viewBox="0 0 28 28" fill="none" xmlns="http://www.w3.org/2000/svg">
<path d="M13.9912 22.7598C18.9746 22.7598 23.0879 18.6465 23.0879 13.6631C23.0879 8.68848 18.9658 4.5752 13.9824 4.5752C9.00781 4.5752 4.90332 8.68848 4.90332 13.6631C4.90332 18.6465 9.0166 22.7598 13.9912 22.7598ZM10.1592 13.6631C10.1592 11.6592 10.748 9.69922 11.8115 8.1084C12.04 7.75684 12.4707 7.66895 12.8047 7.89746C13.1475 8.12598 13.209 8.55664 12.9805 8.91699C12.0576 10.2441 11.5654 11.9229 11.5654 13.6631C11.5654 15.3945 12.0664 17.0908 12.9805 18.418C13.209 18.7783 13.1475 19.209 12.8047 19.4375C12.4795 19.6572 12.0488 19.5693 11.8115 19.2178C10.748 17.6445 10.1592 15.6846 10.1592 13.6631ZM12.9805 13.6631C12.9805 12.1689 13.4111 10.7451 14.2021 9.6377C14.4395 9.30371 14.8438 9.21582 15.1777 9.44434C15.5117 9.65527 15.5908 10.1035 15.3447 10.4814C14.7471 11.3428 14.3955 12.4854 14.3955 13.6631C14.3955 14.8496 14.7471 15.9922 15.3447 16.8535C15.5908 17.2314 15.5117 17.6797 15.1777 17.8906C14.8438 18.1191 14.4395 18.0225 14.2021 17.6885C13.4111 16.5723 12.9805 15.1396 12.9805 13.6631ZM15.8105 13.6631C15.8105 12.7578 16.0918 11.835 16.5752 11.1582C16.7949 10.8506 17.2168 10.7627 17.542 10.9736C17.9023 11.2109 17.9727 11.6592 17.7002 12.0459C17.4014 12.459 17.2256 13.0479 17.2256 13.6631C17.2256 14.2695 17.4014 14.8672 17.7002 15.2891C17.9639 15.6758 17.8936 16.1152 17.542 16.3525C17.2168 16.5635 16.7861 16.4844 16.5752 16.168C16.0918 15.5264 15.8105 14.6035 15.8105 13.6631Z" fill="#1C1C1E"/>
</svg>
