<svg width="28" height="28" viewBox="0 0 28 28" fill="none" xmlns="http://www.w3.org/2000/svg">
<path d="M14 22.7334C18.9658 22.7334 23.0791 18.6289 23.0791 13.6543C23.0791 8.68848 18.9658 4.5752 13.9912 4.5752C9.02539 4.5752 4.9209 8.68848 4.9209 13.6543C4.9209 18.6289 9.03418 22.7334 14 22.7334ZM14 20.9492C9.95703 20.9492 6.71387 17.6973 6.71387 13.6543C6.71387 9.61133 9.94824 6.36816 13.9912 6.36816C18.0342 6.36816 21.2861 9.61133 21.2949 13.6543C21.2949 17.6973 18.043 20.9492 14 20.9492ZM9.18359 13.1094C9.30664 13.25 9.50879 13.25 9.64941 13.1006C10.7832 11.8877 12.2949 11.2461 13.9912 11.2461C15.7051 11.2461 17.2256 11.8877 18.3594 13.1094C18.4824 13.2324 18.6846 13.2412 18.8076 13.1006L19.458 12.4414C19.5723 12.3271 19.5811 12.1602 19.4756 12.0371C18.3066 10.5869 16.1357 9.62012 13.9912 9.62012C11.8555 9.62012 9.68457 10.5869 8.50684 12.0371C8.41016 12.1602 8.41895 12.3271 8.5332 12.4414L9.18359 13.1094ZM11.1523 15.0693C11.293 15.21 11.4775 15.2012 11.627 15.0518C12.2158 14.4102 13.1211 14.0059 13.9912 14.0146C14.8613 14.0059 15.7754 14.4102 16.373 15.0605C16.5137 15.21 16.707 15.21 16.8301 15.0693L17.5684 14.3398C17.6826 14.2344 17.7002 14.0674 17.5859 13.9531C16.8037 12.9951 15.415 12.3975 13.9912 12.3975C12.5762 12.3975 11.1875 12.9951 10.3965 13.9531C10.291 14.0762 10.2998 14.2256 10.4316 14.3398L11.1523 15.0693ZM13.9912 17.6973C14.1318 17.6973 14.2285 17.6357 14.4482 17.4424L15.5996 16.3262C15.7051 16.2207 15.7227 16.0537 15.626 15.9307C15.2744 15.4648 14.6328 15.1484 13.9912 15.1484C13.3496 15.1484 12.708 15.4736 12.3389 15.9834C12.2598 16.0801 12.2861 16.2207 12.4004 16.3262L13.5518 17.4424C13.7539 17.6357 13.8594 17.6973 13.9912 17.6973Z" fill="#1C1C1E"/>
</svg>
