<svg width="28" height="28" viewBox="0 0 28 28" fill="none" xmlns="http://www.w3.org/2000/svg">
<path d="M14 22.7422C18.9658 22.7422 23.0791 18.6377 23.0791 13.6631C23.0791 8.69727 18.9658 4.58398 13.9912 4.58398C9.02539 4.58398 4.9209 8.69727 4.9209 13.6631C4.9209 18.6377 9.03418 22.7422 14 22.7422ZM9.00781 13.1094L8.33105 12.415C8.2168 12.292 8.19922 12.125 8.30469 11.9932C9.52637 10.4814 11.7764 9.47949 14 9.47949C16.2324 9.47949 18.4824 10.4814 19.7041 11.9932C19.8096 12.125 19.792 12.292 19.6777 12.415L19.001 13.1006C18.8604 13.2412 18.667 13.2412 18.5264 13.1006C17.3574 11.835 15.7754 11.1758 14 11.1758C12.2334 11.1758 10.6689 11.8438 9.5 13.0918C9.35059 13.25 9.13086 13.25 9.00781 13.1094ZM11.0557 15.1396L10.2998 14.3838C10.1768 14.2607 10.1592 14.1025 10.2646 13.9795C11.0908 12.9951 12.5322 12.3623 14 12.3623C15.4766 12.3623 16.918 12.9863 17.7441 13.9795C17.8496 14.0938 17.8408 14.2695 17.7178 14.3838L16.9531 15.1396C16.8037 15.2891 16.6191 15.2891 16.4697 15.1309C15.8545 14.4541 14.9053 14.0322 14 14.041C13.0947 14.0322 12.1543 14.4541 11.5566 15.1221C11.3984 15.2979 11.2051 15.2891 11.0557 15.1396ZM14 17.873C13.8594 17.873 13.7451 17.8115 13.543 17.6094L12.3389 16.4492C12.2334 16.335 12.207 16.1943 12.2861 16.0801C12.6641 15.5527 13.332 15.2188 14 15.2188C14.668 15.2188 15.3359 15.5439 15.7051 16.0361C15.8018 16.1592 15.7842 16.335 15.6787 16.4492L14.4746 17.6094C14.2637 17.8203 14.1494 17.873 14 17.873Z" fill="#1C1C1E"/>
</svg>
