<svg width="28" height="28" viewBox="0 0 28 28" fill="none" xmlns="http://www.w3.org/2000/svg">
<path d="M21.4092 20.2197C21.6904 20.4922 22.1387 20.4834 22.4023 20.2197C22.6748 19.9385 22.6748 19.499 22.4023 19.2354L6.58203 3.41505C6.30957 3.14259 5.86133 3.1338 5.58887 3.41505C5.31641 3.67872 5.3252 4.13576 5.58887 4.39943L21.4092 20.2197ZM13.7539 9.05763C13.8594 9.04005 13.9824 9.03126 14.0967 9.03126C17.3398 9.09279 20.0732 10.3408 22.2354 12.5557C22.4199 12.7402 22.7012 12.7315 22.8857 12.5381L24.1162 11.2988C24.3008 11.1231 24.292 10.8945 24.1514 10.7276C21.998 8.14357 18.0869 6.24513 14 6.24513C13.1035 6.24513 12.207 6.33302 11.2402 6.53517L13.7539 9.05763ZM7.48731 7.87111C6.02832 8.62697 4.77149 9.61134 3.83984 10.7276C3.69922 10.8945 3.69922 11.1231 3.875 11.2988L5.10547 12.5381C5.29883 12.7315 5.58887 12.7315 5.77344 12.5293C6.87207 11.3692 8.12012 10.4902 9.53516 9.91017L7.48731 7.87111ZM20.0732 15.3682L20.5918 14.8496C20.7676 14.6826 20.7764 14.4717 20.627 14.2959C19.7217 13.1797 18.1748 12.2217 16.5049 11.7998L20.0732 15.3682ZM11.4424 11.8086C9.74609 12.2744 8.30469 13.1797 7.36426 14.2959C7.21484 14.4717 7.23242 14.6914 7.39941 14.8496L8.7793 16.2031C8.99024 16.4053 9.27149 16.3877 9.47363 16.168C10.5195 15.0254 12.1543 14.2432 13.833 14.1992L11.4424 11.8086ZM14 16.5811C12.7432 16.5811 11.6094 17.2402 11.0029 18.0664C10.8975 18.2246 10.9414 18.418 11.0996 18.5674L13.2529 20.6416C13.6045 20.9844 13.7891 21.0811 14 21.0811C14.2197 21.0811 14.4043 20.9756 14.7559 20.6416L16.9092 18.5674C17.0674 18.418 17.1025 18.1719 16.9619 17.9961C16.3467 17.2139 15.2393 16.5811 14 16.5811Z" fill="#1C1C1E"/>
</svg>
