<svg width="28" height="28" viewBox="0 0 28 28" fill="none" xmlns="http://www.w3.org/2000/svg">
<path d="M5.77352 11.8701C7.03915 11.4746 8.34872 11.2725 9.59676 11.2725C11.2052 11.2725 12.3917 11.5273 13.921 11.5273C15.5294 11.5273 16.5665 10.4199 16.5665 8.97852C16.5665 7.50195 15.4503 6.43848 14.0352 6.43848C13.0245 6.43848 12.1192 7.0625 11.7237 7.92383C11.5567 8.25781 11.627 8.63574 11.9698 8.81152C12.2862 8.9873 12.6817 8.88184 12.8927 8.48633C13.0772 8.07324 13.5255 7.74805 14.0352 7.74805C14.7296 7.74805 15.2657 8.22266 15.2657 8.97852C15.2657 9.73438 14.7384 10.2178 13.921 10.2178C12.4796 10.2178 11.2667 9.96289 9.59676 9.96289C8.16415 9.96289 6.70516 10.2178 5.37801 10.6221C4.96493 10.7363 4.79794 11.0967 4.89462 11.4482C5.00008 11.7998 5.33407 11.9932 5.77352 11.8701ZM19.5636 16.0889C21.6466 16.0889 23.1319 14.7529 23.1319 12.8896C23.1319 11.0615 21.7257 9.7168 19.9591 9.7168C18.3946 9.7168 17.1817 10.7803 16.9181 12.2129C16.8302 12.6084 17.0411 12.96 17.3927 13.0303C17.753 13.1094 18.0958 12.8984 18.2013 12.4502C18.3595 11.5977 19.0977 11.0176 19.9591 11.0176C20.9962 11.0176 21.8224 11.7822 21.8224 12.8896C21.8224 14.0146 20.9347 14.7881 19.5636 14.7881C16.8829 14.7881 13.9649 13.2588 10.4405 13.2588C8.62118 13.2588 6.96005 13.5488 5.36923 14.0938C4.97372 14.2256 4.79794 14.5771 4.89462 14.9287C5.00008 15.2803 5.35165 15.4824 5.77352 15.333C7.22372 14.8057 8.72665 14.5684 10.4405 14.5684C13.9298 14.5684 16.5665 16.0889 19.5636 16.0889ZM13.9386 22.3818C15.3272 22.3818 16.4171 21.3359 16.4171 19.8594C16.4171 17.7324 14.2462 16.5547 10.2823 16.5547C8.65633 16.5547 6.88094 16.8623 5.37801 17.3721C4.97372 17.5127 4.79794 17.8643 4.89462 18.207C5.00008 18.5674 5.35165 18.7695 5.77352 18.6201C7.17098 18.1279 8.71786 17.8555 10.2823 17.8555C13.4112 17.8555 15.1075 18.6377 15.1075 19.8594C15.1075 20.6152 14.589 21.0723 13.9386 21.0723C13.297 21.0723 12.9015 20.6504 12.7696 19.9736C12.6729 19.6133 12.3741 19.3584 11.9698 19.4287C11.5567 19.4902 11.3897 19.877 11.4776 20.2725C11.7061 21.459 12.6202 22.3818 13.9386 22.3818Z" fill="#1C1C1E"/>
</svg>
