<svg width="28" height="28" viewBox="0 0 28 28" fill="none" xmlns="http://www.w3.org/2000/svg">
<path d="M8.67383 21.8809H19.3174C21.2246 21.8809 22.209 20.8965 22.209 19.0156V8.31934C22.209 6.43848 21.2246 5.4541 19.3174 5.4541H8.67383C6.77539 5.4541 5.78223 6.42969 5.78223 8.31934V19.0156C5.78223 20.8965 6.77539 21.8809 8.67383 21.8809ZM10.1064 13.4961C10.1064 13.2412 10.291 13.0654 10.5371 13.0654H10.9062L10.4844 10.3584C10.4668 10.2441 10.4492 10.1562 10.4492 10.0508C10.4492 9.67285 10.7217 9.43555 11.1084 9.43555C11.4512 9.43555 11.7324 9.6377 11.7676 9.99805L12.1279 13.0654H12.7871L13.2705 10.0771C13.332 9.67285 13.6309 9.43555 14.0088 9.43555C14.3779 9.43555 14.6943 9.67285 14.7559 10.0771L15.2393 13.0566H15.916L16.2852 9.98926C16.3291 9.62891 16.6104 9.42676 16.9443 9.42676C17.3223 9.42676 17.5859 9.65527 17.5859 10.0332C17.5859 10.1211 17.5684 10.2178 17.5596 10.3232L17.1289 13.0566H17.498C17.7529 13.0566 17.9287 13.2412 17.9287 13.4873C17.9287 13.7334 17.7529 13.9268 17.498 13.9268H16.9883L16.4521 17.416C16.3906 17.8291 16.083 18.0664 15.7051 18.0664C15.3096 18.0664 15.002 17.8379 14.9404 17.4072L14.3691 13.9268H13.666L13.1123 17.4072C13.0508 17.8379 12.7432 18.0664 12.3564 18.0664C11.9697 18.0664 11.6621 17.8291 11.5918 17.4072L11.0469 13.9355H10.5371C10.291 13.9355 10.1064 13.7334 10.1064 13.4961ZM13.8066 13.0654H14.2461L14.0264 11.5273L13.8066 13.0654ZM12.2246 13.918L12.4092 15.7549L12.6729 13.918H12.2246ZM15.3535 13.918L15.6348 15.7988L15.8369 13.918H15.3535Z" fill="#1C1C1E"/>
</svg>
