<svg width="28" height="28" viewBox="0 0 28 28" fill="none" xmlns="http://www.w3.org/2000/svg">
<path d="M13.9912 22.7422C18.9746 22.7422 23.0879 18.6289 23.0879 13.6543C23.0879 8.67969 18.9658 4.56641 13.9824 4.56641C9.00781 4.56641 4.90332 8.67969 4.90332 13.6543C4.90332 18.6289 9.0166 22.7422 13.9912 22.7422ZM10.0713 13.4961C10.0713 13.2412 10.2559 13.0654 10.502 13.0654H10.8711L10.4492 10.3584C10.4316 10.2441 10.4141 10.1562 10.4141 10.0508C10.4141 9.67285 10.6865 9.43555 11.0732 9.43555C11.416 9.43555 11.6973 9.6377 11.7324 9.99805L12.0928 13.0654H12.752L13.2354 10.0771C13.2969 9.67285 13.5957 9.43555 13.9736 9.43555C14.3428 9.43555 14.6592 9.67285 14.7207 10.0771L15.1953 13.0566H15.8809L16.25 9.98926C16.2939 9.62891 16.5752 9.42676 16.9092 9.42676C17.2783 9.42676 17.5508 9.65527 17.5508 10.0332C17.5508 10.1211 17.5332 10.2178 17.5244 10.3232L17.0938 13.0566H17.4629C17.7178 13.0566 17.8936 13.2412 17.8936 13.4873C17.8936 13.7334 17.7178 13.9268 17.4629 13.9268H16.9531L16.417 17.416C16.3555 17.8291 16.0479 18.0664 15.6699 18.0664C15.2744 18.0664 14.9668 17.8379 14.9053 17.4072L14.334 13.9268H13.6309L13.0771 17.4072C13.0156 17.8379 12.708 18.0664 12.3213 18.0664C11.9346 18.0664 11.627 17.8291 11.5566 17.4072L11.0117 13.9355H10.502C10.2559 13.9355 10.0713 13.7334 10.0713 13.4961ZM13.7715 13.0654H14.2109L13.9912 11.5273L13.7715 13.0654ZM12.1895 13.918L12.374 15.7549L12.6377 13.918H12.1895ZM15.3184 13.918L15.5996 15.7988L15.8018 13.918H15.3184Z" fill="#1C1C1E"/>
</svg>
