<svg width="28" height="28" viewBox="0 0 28 28" fill="none" xmlns="http://www.w3.org/2000/svg">
<path d="M4.97358 23.0673C6.53803 24.6142 8.6562 24.6054 10.1591 23.0849C11.5126 21.7226 11.8994 20.0527 14.1054 17.1435L17.6386 20.6591L17.7529 21.4325C17.8056 21.7753 18.0253 22.0829 18.3066 22.2763L21.0927 24.1484C21.4091 24.3593 21.7255 24.3593 21.9541 24.1308L23.6328 22.4521C23.8525 22.2235 23.8349 21.8984 23.6328 21.5907L21.7783 18.8134C21.5761 18.5146 21.2685 18.3124 20.9257 18.2597L20.1611 18.1454L16.4257 14.4101C16.7509 14.0673 17.0937 13.7069 17.4716 13.329C19.3613 14.164 21.6113 13.8476 23.1054 12.3446C24.749 10.7099 25.0039 8.10831 23.7207 6.05167L22.7187 7.05363V7.06242L21.3037 8.45988C21.0839 8.68839 20.8115 8.69718 20.583 8.45988L19.5986 7.4755C19.3525 7.22941 19.3437 6.95695 19.5634 6.73722L20.9697 5.33097L21.9804 4.32902C19.9326 3.04581 17.3398 3.29191 15.6962 4.93546C14.4042 6.23624 13.9824 8.08195 14.4306 9.77824L9.61421 4.94425C8.31342 3.64347 6.91596 3.63468 5.64155 4.9091L4.40229 6.15714C3.12788 7.42277 3.13667 8.82023 4.43745 10.121L9.35053 15.0341C7.34663 16.3349 6.06342 16.7831 4.956 17.873C3.4355 19.3847 3.42671 21.4941 4.97358 23.0673ZM18.5351 8.24015L19.8095 9.50577C20.4687 10.165 21.3124 10.1825 21.9365 9.55851L23.123 8.3632C23.2724 9.47062 22.9296 10.578 22.1298 11.3778C20.6972 12.8105 18.3242 12.7402 16.8037 11.2372C15.2919 9.7255 15.2304 7.33488 16.6718 5.91105C17.4628 5.12003 18.5703 4.77726 19.6689 4.91788L18.4824 6.09562C17.832 6.74601 17.8583 7.58097 18.5351 8.24015ZM5.37788 9.03995C4.76264 8.42472 4.77143 7.80949 5.36909 7.20304L6.68745 5.8671C7.29389 5.26066 7.91792 5.26945 8.53315 5.88468L13.956 11.3075C12.6376 12.5644 11.5039 13.496 10.5195 14.2167L5.37788 9.03995ZM10.7392 10.7011C10.8886 10.8681 11.1611 10.8505 11.3017 10.7099C11.4687 10.5429 11.4687 10.288 11.3105 10.1298L8.11128 6.93937C7.95307 6.78117 7.70698 6.78995 7.55757 6.93937C7.39936 7.09757 7.39936 7.34367 7.55757 7.50187L10.7392 10.7011ZM9.62299 11.8085C9.7812 11.9755 10.0361 11.9667 10.1943 11.8085C10.3437 11.6591 10.3525 11.413 10.1943 11.2548L6.99507 8.05558C6.85444 7.90617 6.59077 7.90617 6.43257 8.05558C6.27436 8.21378 6.26557 8.47745 6.42378 8.62687L9.62299 11.8085ZM15.8281 12.204C15.9863 12.3534 16.1445 12.5028 16.3115 12.6259C10.5371 18.5673 11.1347 20.0527 9.13081 22.0653C8.21674 22.9882 6.9687 23.0234 5.99311 22.0566C5.01753 21.0634 5.06147 19.8241 5.97553 18.9101C7.98823 16.9062 9.46479 17.5038 15.4062 11.7294C15.538 11.8964 15.6787 12.0546 15.8281 12.204ZM19.2382 21.037L19.0537 20.0527L15.0107 16.0097C15.1513 15.8339 15.3007 15.6669 15.4589 15.4823L19.5458 19.5693L20.5302 19.7362L22.1474 21.8808L21.374 22.6542L19.2382 21.037ZM7.53999 21.5644C8.11128 21.5644 8.5771 21.0985 8.5771 20.5185C8.5771 19.9472 8.11128 19.4814 7.53999 19.4814C6.9687 19.4814 6.49409 19.9472 6.49409 20.5185C6.49409 21.0985 6.9687 21.5644 7.53999 21.5644Z" fill="#1C1C1E"/>
</svg>
