<svg width="28" height="28" viewBox="0 0 28 28" fill="none" xmlns="http://www.w3.org/2000/svg">
<path d="M4.70108 23.1727C6.22159 24.6933 8.47159 24.746 9.96573 22.9794C11.1435 21.5907 13.622 17.4774 15.9511 15.1483C17.4364 13.663 19.0888 14.4804 20.8993 13.7509L19.3964 8.23134C19.2118 7.57216 19.4843 7.02723 20.2314 6.8163L23.6327 5.88466C23.5097 5.5243 23.2021 5.01454 22.789 4.58388C20.6972 2.44813 17.2255 2.3954 15.1425 4.38173C12.1103 7.26454 14.3515 10.2352 12.497 12.0897C10.08 14.5067 6.71378 16.2733 4.88565 17.8993C3.15421 19.4462 3.163 21.6434 4.70108 23.1727ZM21.9628 13.2411C22.288 13.0302 22.6308 12.7577 22.9735 12.4325C24.0722 11.3778 24.6171 9.82216 24.3534 8.61805L21.6728 9.36513C21.4003 9.44423 21.1718 9.4618 20.9169 9.42665L21.9628 13.2411ZM15.6259 9.8661C15.4325 9.91884 15.2655 9.82216 15.204 9.61122C15.1513 9.45302 15.2567 9.25966 15.4413 9.20692L17.4716 8.662C17.6386 8.61805 17.8232 8.72352 17.8759 8.90809C17.9462 9.10145 17.8232 9.27723 17.6386 9.32997L15.6259 9.8661ZM15.8808 10.8944C15.6874 10.9472 15.5204 10.8505 15.4589 10.6395C15.4062 10.4813 15.5116 10.288 15.6962 10.244L17.7265 9.69032C17.8935 9.65516 18.078 9.75184 18.1308 9.93641C18.1923 10.1386 18.078 10.3143 17.8935 10.3671L15.8808 10.8944ZM16.1357 11.9315C15.9511 11.9755 15.7577 11.8788 15.7226 11.6766C15.6786 11.4921 15.7841 11.3251 15.9599 11.2724L17.9814 10.7362C18.1747 10.6747 18.3593 10.789 18.4032 10.9647C18.4472 11.1493 18.3329 11.3339 18.1659 11.3778L16.1357 11.9315ZM7.30264 21.6171C6.72257 21.6171 6.24796 21.1425 6.24796 20.5624C6.24796 19.9911 6.72257 19.5165 7.30264 19.5165C7.88272 19.5165 8.35733 19.9911 8.35733 20.5624C8.35733 21.1425 7.88272 21.6171 7.30264 21.6171Z" fill="#1C1C1E"/>
</svg>
