<svg width="28" height="28" viewBox="0 0 28 28" fill="none" xmlns="http://www.w3.org/2000/svg">
<path d="M7.98828 21.4326C9.02539 21.4326 9.54395 20.7734 9.84277 19.8682L13.666 7.73926H22.6221C23.2373 7.73926 23.6504 7.34375 23.6504 6.75488C23.6504 6.1748 23.2373 5.78809 22.6221 5.78809H13.6133C12.5146 5.78809 12.0225 6.20996 11.7236 7.17676L8.11133 19.0156H7.92676L6.35352 13.4785C6.19531 12.9072 5.8877 12.626 5.35156 12.626C4.7627 12.626 4.34961 13.0391 4.34961 13.584C4.34961 13.7949 4.39355 13.9707 4.45508 14.1641L6.23047 19.9385C6.51172 20.8262 7.02148 21.4326 7.98828 21.4326ZM15.3535 19.7715C15.7227 19.7715 15.916 19.6396 16.2061 19.2266L18.0605 16.5547H18.1045L19.9502 19.2266C20.2314 19.6396 20.4336 19.7715 20.8027 19.7715C21.3037 19.7715 21.6641 19.4375 21.6641 18.9629C21.6641 18.7432 21.6025 18.5586 21.4355 18.3564L19.2207 15.3506L21.4531 12.3359C21.6201 12.1162 21.6816 11.9316 21.6816 11.7207C21.6816 11.2725 21.3301 10.9385 20.8467 10.9385C20.4775 10.9385 20.2666 11.0703 20.0117 11.457L18.2275 14.1465H18.1748L16.3291 11.457C16.0654 11.0615 15.8545 10.9385 15.4766 10.9385C14.9932 10.9385 14.6152 11.29 14.6152 11.7559C14.6152 11.9932 14.6768 12.1602 14.8613 12.3975L16.9883 15.3154L14.7471 18.3916C14.5889 18.6113 14.5273 18.7607 14.5273 18.998C14.5273 19.4375 14.8789 19.7715 15.3535 19.7715Z" fill="#1C1C1E"/>
</svg>
