<svg width="28" height="28" viewBox="0 0 28 28" fill="none" xmlns="http://www.w3.org/2000/svg">
<path d="M6.39746 21.3535H21.6025C23.501 21.3535 24.4941 20.3691 24.4941 18.4883V13.1973C24.4941 11.9404 24.1689 11.0352 23.4395 10.2969L20.6182 7.39648C19.6602 6.41211 18.9834 5.98145 17.7178 5.98145H10.291C9.02539 5.98145 8.34863 6.41211 7.39062 7.39648L4.56055 10.2969C3.82227 11.0527 3.50586 11.9141 3.50586 13.1973V18.4883C3.50586 20.3691 4.49902 21.3535 6.39746 21.3535ZM5.86133 12.0459C5.5625 12.0459 5.4834 11.7734 5.65918 11.5889L8.88477 8.17871C9.36816 7.66895 9.72852 7.47559 10.3877 7.47559H17.6123C18.2715 7.47559 18.6318 7.66895 19.124 8.17871L22.3496 11.5889C22.5254 11.7734 22.4463 12.0459 22.1387 12.0459H5.86133ZM6.48535 19.6396C5.68555 19.6396 5.2373 19.209 5.2373 18.374V14.3398C5.2373 13.8037 5.4834 13.5488 6.01074 13.5488H21.9893C22.5166 13.5488 22.7715 13.8037 22.7715 14.3398V18.374C22.7715 19.209 22.3232 19.6396 21.5146 19.6396H6.48535ZM14.0264 15.5703C14.3779 15.5703 14.6768 15.2803 14.6768 14.9111C14.6768 14.5596 14.3779 14.2607 14.0264 14.2607C13.6572 14.2607 13.3584 14.5596 13.3584 14.9111C13.3584 15.2891 13.6572 15.5703 14.0264 15.5703ZM7.32031 18.8486C7.61035 18.8486 7.85645 18.6289 7.85645 18.3301V14.8848C7.85645 14.5947 7.61035 14.3574 7.32031 14.3574C7.03027 14.3574 6.80176 14.5947 6.80176 14.8848V18.3301C6.80176 18.6289 7.03027 18.8486 7.32031 18.8486ZM9.35938 18.8486C9.64941 18.8486 9.89551 18.6289 9.89551 18.3301V14.8848C9.89551 14.5947 9.64941 14.3574 9.35938 14.3574C9.06934 14.3574 8.84082 14.5947 8.84082 14.8848V18.3301C8.84082 18.6289 9.06934 18.8486 9.35938 18.8486ZM11.3984 18.8486C11.6885 18.8486 11.9346 18.6289 11.9346 18.3301V14.8848C11.9346 14.5947 11.6885 14.3574 11.3984 14.3574C11.1084 14.3574 10.8799 14.5947 10.8799 14.8848V18.3301C10.8799 18.6289 11.1084 18.8486 11.3984 18.8486ZM16.54 18.8486C16.8301 18.8486 17.0762 18.6289 17.0762 18.3301V14.8848C17.0762 14.5947 16.8301 14.3574 16.54 14.3574C16.2412 14.3574 16.0215 14.5947 16.0215 14.8848V18.3301C16.0215 18.6289 16.2412 18.8486 16.54 18.8486ZM18.5791 18.8486C18.8691 18.8486 19.1152 18.6289 19.1152 18.3301V14.8848C19.1152 14.5947 18.8691 14.3574 18.5791 14.3574C18.2803 14.3574 18.0518 14.5947 18.0518 14.8848V18.3301C18.0518 18.6289 18.2803 18.8486 18.5791 18.8486ZM20.6182 18.8486C20.9082 18.8486 21.1543 18.6289 21.1543 18.3301V14.8848C21.1543 14.5947 20.9082 14.3574 20.6182 14.3574C20.3193 14.3574 20.0908 14.5947 20.0908 14.8848V18.3301C20.0908 18.6289 20.3193 18.8486 20.6182 18.8486ZM14.0264 17.2578C14.3779 17.249 14.6768 16.9678 14.6768 16.5986C14.6768 16.2471 14.3779 15.9482 14.0264 15.9482C13.6572 15.9482 13.3584 16.2471 13.3584 16.5986C13.3584 16.9678 13.6572 17.249 14.0264 17.2578ZM14.0264 18.9277C14.3779 18.9189 14.6768 18.6377 14.6768 18.2686C14.6768 17.917 14.3779 17.6182 14.0264 17.6182C13.6572 17.6182 13.3584 17.917 13.3584 18.2686C13.3584 18.6465 13.6572 18.9277 14.0264 18.9277Z" fill="#1C1C1E"/>
</svg>
