<svg width="28" height="28" viewBox="0 0 28 28" fill="none" xmlns="http://www.w3.org/2000/svg">
<path d="M13.9912 22.7422C18.9746 22.7422 23.0879 18.6289 23.0879 13.6543C23.0879 8.67969 18.9658 4.56641 13.9824 4.56641C9.00781 4.56641 4.90332 8.67969 4.90332 13.6543C4.90332 18.6289 9.0166 22.7422 13.9912 22.7422ZM13.9824 17.8467C13.4023 17.8467 13.0771 17.4424 13.0771 16.8184V14.8057L10.6074 10.6309C10.5107 10.4639 10.4668 10.2969 10.4668 10.1299C10.4668 9.68164 10.8184 9.33887 11.3018 9.33887C11.7148 9.33887 11.9258 9.48828 12.1543 9.93652L13.9648 13.1533H14.0264L15.8457 9.93652C16.0654 9.49707 16.2764 9.33887 16.6807 9.33887C17.1641 9.33887 17.5068 9.67285 17.5068 10.1387C17.5068 10.3057 17.4629 10.4727 17.3574 10.6309L14.9053 14.7881V16.8184C14.9053 17.46 14.5801 17.8467 13.9824 17.8467Z" fill="#1C1C1E"/>
</svg>
