<svg width="28" height="28" viewBox="0 0 28 28" fill="none" xmlns="http://www.w3.org/2000/svg">
<path d="M13.9912 22.7422C18.9746 22.7422 23.0879 18.6289 23.0879 13.6543C23.0879 8.67969 18.9658 4.56641 13.9824 4.56641C9.00781 4.56641 4.90332 8.67969 4.90332 13.6543C4.90332 18.6289 9.0166 22.7422 13.9912 22.7422ZM13.9912 20.9316C9.95703 20.9316 6.73145 17.6885 6.73145 13.6543C6.73145 9.62012 9.95703 6.38574 13.9824 6.38574C18.0166 6.38574 21.2598 9.62012 21.2686 13.6543C21.2773 17.6885 18.0254 20.9316 13.9912 20.9316ZM13.9824 17.6797C14.5449 17.6797 14.8613 17.3193 14.8613 16.7129V14.7441L17.2256 10.7451C17.3223 10.5957 17.3662 10.4287 17.3662 10.2705C17.3662 9.83105 17.041 9.51465 16.5752 9.51465C16.1973 9.51465 15.9951 9.65527 15.7842 10.0771L14.0264 13.1797H13.9648L12.207 10.0771C11.9961 9.64648 11.7939 9.51465 11.3984 9.51465C10.9502 9.51465 10.6074 9.83984 10.6074 10.2617C10.6074 10.4199 10.6514 10.5781 10.7393 10.7451L13.1211 14.7617V16.7129C13.1211 17.3018 13.4287 17.6797 13.9824 17.6797Z" fill="#1C1C1E"/>
</svg>
