<svg width="28" height="28" viewBox="0 0 28 28" fill="none" xmlns="http://www.w3.org/2000/svg">
<path d="M8.67383 21.8809H19.3174C21.2246 21.8809 22.209 20.8965 22.209 19.0156V8.31934C22.209 6.43848 21.2246 5.4541 19.3174 5.4541H8.67383C6.77539 5.4541 5.78223 6.42969 5.78223 8.31934V19.0156C5.78223 20.8965 6.77539 21.8809 8.67383 21.8809ZM14.0176 17.8467C13.4375 17.8467 13.1123 17.4424 13.1123 16.8184V14.8057L10.6426 10.6309C10.5459 10.4639 10.502 10.2969 10.502 10.1299C10.502 9.68164 10.8535 9.33887 11.3369 9.33887C11.75 9.33887 11.9609 9.48828 12.1895 9.93652L14 13.1533H14.0615L15.8809 9.93652C16.1006 9.49707 16.3115 9.33887 16.7158 9.33887C17.1992 9.33887 17.542 9.67285 17.542 10.1387C17.542 10.3057 17.498 10.4727 17.3926 10.6309L14.9404 14.7881V16.8184C14.9404 17.46 14.6152 17.8467 14.0176 17.8467Z" fill="#1C1C1E"/>
</svg>
