<svg width="28" height="28" viewBox="0 0 28 28" fill="none" xmlns="http://www.w3.org/2000/svg">
<path d="M13.9912 22.7422C18.9746 22.7422 23.0879 18.6289 23.0879 13.6543C23.0879 8.67969 18.9658 4.56641 13.9824 4.56641C9.00781 4.56641 4.90332 8.67969 4.90332 13.6543C4.90332 18.6289 9.0166 22.7422 13.9912 22.7422ZM13.9912 20.9316C9.95703 20.9316 6.73145 17.6885 6.73145 13.6543C6.73145 9.62012 9.95703 6.38574 13.9824 6.38574C18.0166 6.38574 21.2598 9.62012 21.2686 13.6543C21.2773 17.6885 18.0254 20.9316 13.9912 20.9316ZM13.9912 18.0225C14.3955 18.0225 14.6592 17.75 14.6592 17.3193V16.2646H16.2588C16.5049 16.2646 16.6631 16.0801 16.6631 15.8428C16.6631 15.6143 16.5049 15.4297 16.2588 15.4297H14.6592V14.7881H16.2588C16.5049 14.7881 16.6631 14.6035 16.6631 14.3662C16.6631 14.1377 16.5049 13.9531 16.2588 13.9531H15.0635L17.1025 10.666C17.1992 10.5166 17.2344 10.376 17.2344 10.2266C17.2344 9.86621 16.9531 9.58496 16.5664 9.58496C16.3027 9.58496 16.1006 9.69922 15.96 9.97168L14 13.3467L12.0312 9.96289C11.8818 9.69043 11.6885 9.58496 11.4248 9.58496C11.0293 9.58496 10.748 9.85742 10.748 10.2178C10.748 10.376 10.7832 10.5166 10.8799 10.666L12.9102 13.9531H11.75C11.5039 13.9531 11.3369 14.1377 11.3369 14.3662C11.3369 14.6035 11.5039 14.7881 11.75 14.7881H13.3232V15.4297H11.75C11.5039 15.4297 11.3369 15.6143 11.3369 15.8428C11.3369 16.0801 11.5039 16.2646 11.75 16.2646H13.3232V17.3193C13.3232 17.75 13.5869 18.0225 13.9912 18.0225Z" fill="#1C1C1E"/>
</svg>
