<svg width="28" height="28" viewBox="0 0 28 28" fill="none" xmlns="http://www.w3.org/2000/svg">
<path d="M13.9912 22.7422C18.9746 22.7422 23.0879 18.6289 23.0879 13.6543C23.0879 8.67969 18.9658 4.56641 13.9824 4.56641C9.00781 4.56641 4.90332 8.67969 4.90332 13.6543C4.90332 18.6289 9.0166 22.7422 13.9912 22.7422ZM13.9912 18.1895C13.5693 18.1895 13.2969 17.8994 13.2969 17.4424V16.3613H11.6533C11.3984 16.3613 11.2227 16.1768 11.2227 15.9307C11.2227 15.6846 11.3984 15.5 11.6533 15.5H13.2969V14.832H11.6533C11.3984 14.832 11.2227 14.6387 11.2227 14.3926C11.2227 14.1465 11.3984 13.9619 11.6533 13.9619H12.8574L10.748 10.543C10.6514 10.3848 10.6074 10.2441 10.6074 10.0771C10.6074 9.69922 10.915 9.40918 11.3193 9.40918C11.6006 9.40918 11.8027 9.51465 11.9609 9.80469L14 13.3203L16.0215 9.81348C16.1797 9.53223 16.3906 9.40918 16.6719 9.40918C17.0762 9.40918 17.375 9.69922 17.375 10.0771C17.375 10.2441 17.3311 10.3848 17.2344 10.543L15.1162 13.9619H16.3555C16.6104 13.9619 16.7861 14.1465 16.7861 14.3926C16.7861 14.6387 16.6104 14.832 16.3555 14.832H14.6943V15.5H16.3555C16.6104 15.5 16.7861 15.6846 16.7861 15.9307C16.7861 16.1768 16.6104 16.3613 16.3555 16.3613H14.6943V17.4512C14.6943 17.9082 14.4219 18.1895 13.9912 18.1895Z" fill="#1C1C1E"/>
</svg>
