<svg width="28" height="28" viewBox="0 0 28 28" fill="none" xmlns="http://www.w3.org/2000/svg">
<path d="M10.8799 5.4541C5.61523 5.4541 3.33008 7.81836 3.33008 12.8545V19.0156C3.33008 20.8965 4.32324 21.8809 6.22168 21.8809H21.7783C23.6768 21.8809 24.6699 20.8965 24.6699 19.0156V12.8545C24.6699 7.81836 22.376 5.4541 17.1201 5.4541H10.8799ZM16.3994 17.6885C15.8281 17.6885 15.5117 17.293 15.5117 16.6865V10.4463C15.5117 9.83984 15.8193 9.44434 16.3994 9.44434C16.9795 9.44434 17.2959 9.82227 17.2959 10.4463V16.2559H20.3896C20.8379 16.2559 21.1455 16.5195 21.1455 16.9678C21.1455 17.416 20.8379 17.6885 20.3896 17.6885H16.3994ZM8.40137 17.6885C7.94434 17.6885 7.61914 17.3809 7.61914 16.9502C7.61914 16.6865 7.69824 16.5195 7.93555 16.2031L11.75 11.0352V10.9561H8.30469C7.86523 10.9561 7.55762 10.6924 7.55762 10.2529C7.55762 9.83105 7.86523 9.55859 8.30469 9.55859H13.1387C13.6045 9.55859 13.9297 9.875 13.9297 10.3145C13.9297 10.5957 13.8682 10.7451 13.6484 11.0439L9.8252 16.2207V16.291H13.4727C13.9121 16.291 14.2197 16.5547 14.2197 16.9854C14.2197 17.416 13.9121 17.6885 13.4727 17.6885H8.40137Z" fill="#1C1C1E"/>
</svg>
