<svg width="28" height="28" viewBox="0 0 28 28" fill="none" xmlns="http://www.w3.org/2000/svg">
<path d="M10.8799 5.4541C5.61523 5.4541 3.33008 7.81836 3.33008 12.8545V19.0156C3.33008 20.8965 4.32324 21.8809 6.22168 21.8809H21.7783C23.6768 21.8809 24.6699 20.8965 24.6699 19.0156V12.8545C24.6699 7.81836 22.376 5.4541 17.1201 5.4541H10.8799ZM7.80371 17.6885C7.34668 17.6885 7.03027 17.3896 7.03027 16.959C7.03027 16.6953 7.10059 16.5283 7.33789 16.2119L11.1523 11.0352V10.9648H7.70703C7.27637 10.9648 6.96875 10.7012 6.96875 10.2617C6.96875 9.83105 7.26758 9.56738 7.70703 9.56738H12.541C13.0068 9.56738 13.332 9.875 13.332 10.3232C13.332 10.6045 13.2793 10.7539 13.042 11.0439L9.22754 16.2207V16.2998H12.875C13.3145 16.2998 13.6133 16.5547 13.6133 16.9941C13.6133 17.416 13.3057 17.6885 12.875 17.6885H7.80371ZM15.6084 17.8115C15.0723 17.8115 14.7822 17.4512 14.7822 16.8799V10.5518C14.7822 9.94531 15.0811 9.56738 15.6699 9.56738H18.1924C20.0732 9.56738 21.2422 10.5693 21.2422 12.2129C21.2422 13.3203 20.5742 14.2432 19.5459 14.5771L20.8027 16.5107C20.9258 16.7129 20.9785 16.8711 20.9785 17.0908C20.9785 17.5127 20.6621 17.8115 20.2139 17.8115C19.8447 17.8115 19.6426 17.6621 19.3701 17.2402L17.9199 14.8496H16.4434V16.8799C16.4434 17.46 16.1445 17.8115 15.6084 17.8115ZM16.4434 13.6279H17.9551C18.9219 13.6279 19.5371 13.127 19.5371 12.248C19.5371 11.3516 18.9131 10.833 17.9902 10.833H16.4434V13.6279Z" fill="#1C1C1E"/>
</svg>
