<svg width="28" height="28" viewBox="0 0 28 28" fill="none" xmlns="http://www.w3.org/2000/svg">
<path d="M10.8799 5.4541C5.61523 5.4541 3.33008 7.81836 3.33008 12.8545V19.0156C3.33008 20.8965 4.32324 21.8809 6.22168 21.8809H21.7783C23.6768 21.8809 24.6699 20.8965 24.6699 19.0156V12.8545C24.6699 7.81836 22.376 5.4541 17.1201 5.4541H10.8799ZM10.915 7.2207H17.085C21.1543 7.2207 22.9121 8.9873 22.9121 12.8018V18.8574C22.9121 19.6924 22.4551 20.1318 21.6641 20.1318H6.33594C5.53613 20.1318 5.0791 19.6924 5.0791 18.8574V12.8018C5.0791 8.9873 6.8457 7.2207 10.915 7.2207ZM8.04102 17.5391H12.9189C13.332 17.5391 13.6221 17.2842 13.6221 16.8711C13.6221 16.458 13.3408 16.2119 12.9189 16.2119H9.39453V16.1328L13.0771 11.1318C13.3057 10.8506 13.3496 10.71 13.3496 10.4463C13.3496 10.0156 13.042 9.72559 12.6025 9.72559H7.94434C7.52246 9.72559 7.24121 9.97168 7.24121 10.3848C7.24121 10.7979 7.53125 11.0527 7.94434 11.0527H11.2754V11.123L7.59277 16.124C7.36426 16.4229 7.29395 16.5898 7.29395 16.8359C7.29395 17.249 7.60156 17.5391 8.04102 17.5391ZM15.5381 17.6445C16.0566 17.6445 16.3467 17.3193 16.3467 16.7656V14.7969H17.7617L19.168 17.1084C19.4229 17.5127 19.625 17.6445 19.9766 17.6445C20.4072 17.6445 20.7061 17.3721 20.7061 16.9678C20.7061 16.7568 20.6533 16.5986 20.5303 16.4141L19.3086 14.542C20.3105 14.2168 20.9521 13.3291 20.9521 12.2656C20.9521 10.6924 19.8359 9.72559 18.0254 9.72559H15.5996C15.0459 9.72559 14.7559 10.0771 14.7559 10.6572V16.7656C14.7559 17.3105 15.0371 17.6445 15.5381 17.6445ZM16.3467 13.6367V10.9297H17.832C18.7285 10.9297 19.3262 11.4307 19.3262 12.3008C19.3262 13.1445 18.7373 13.6367 17.7969 13.6367H16.3467Z" fill="#1C1C1E"/>
</svg>
