<?xml version="1.0" standalone="no"?><!DOCTYPE svg PUBLIC "-//W3C//DTD SVG 1.1//EN" "http://www.w3.org/Graphics/SVG/1.1/DTD/svg11.dtd"><svg class="icon" width="128px" height="128.00px" viewBox="0 0 1024 1024" version="1.1" xmlns="http://www.w3.org/2000/svg"><path d="M337.417309 440.087273c-21.220073 24.185018-40.434036 48.211782-57.655854 71.912727 17.221818 23.691636 36.440436 47.727709 57.655854 71.898764C335.927855 560.663273 335.127273 536.692364 335.127273 512s0.800582-48.672582 2.290036-71.912727zM299.566545 724.4288c8.564364 42.281891 19.5584 81.398691 32.740073 116.414836 16.421236-5.306182 33.819927-12.288 51.819055-20.507927-9.597673-25.809455-18.180655-54.500073-25.344-85.829818a958.370909 958.370909 0 0 1-59.219782-10.077091zM676.742982 676.370618a865.466182 865.466182 0 0 0 57.762909-11.142982 1059.514182 1059.514182 0 0 0 6.3488-58.628654 1157.073455 1157.073455 0 0 1-64.111709 69.771636zM686.582691 583.912727c21.215418-24.185018 40.434036-48.221091 57.6512-71.912727-17.217164-23.710255-36.435782-47.746327-57.6512-71.917382 1.489455 23.235491 2.290036 47.225018 2.290036 71.917382s-0.800582 48.672582-2.290036 71.912727zM347.275636 676.379927a1160.215273 1160.215273 0 0 1-64.130327-69.780945 1058.629818 1058.629818 0 0 0 6.344146 58.628654c18.399418 4.207709 37.673891 7.959273 57.781527 11.152291zM358.781673 289.489455c7.181964-31.371636 15.764945-60.099491 25.399854-85.936873-18.036364-8.238545-35.397818-15.127273-51.851636-20.442764-13.186327 35.025455-24.203636 74.165527-32.768 116.461382a958.370909 958.370909 0 0 1 59.219782-10.081745zM617.453382 871.763782C586.0352 933.133964 548.123927 968.145455 512 968.145455c-36.184436 0-74.146909-35.118545-105.602327-96.656291-17.724509 8.019782-35.072 14.857309-51.926109 20.475345C395.636364 974.354618 450.690327 1024 512 1024c61.160727 0 116.130909-49.408 157.253818-131.472291-9.234618-3.118545-18.511127-6.330182-28.113454-10.221382-7.814982-3.165091-15.760291-6.916655-23.686982-10.542545zM665.218327 734.510545c-7.200582 31.418182-15.802182 60.206545-25.437091 86.081164 7.470545 3.425745 14.982982 6.972509 22.341819 9.956073a443.382691 443.382691 0 0 0 29.384145 10.761309c13.256145-35.127855 24.329309-74.407564 32.930909-116.880291a953.776873 953.776873 0 0 1-59.219782 10.081745zM676.7616 347.629382a1164.883782 1164.883782 0 0 1 64.093091 69.753018c-1.6384-19.981964-3.709673-39.563636-6.344146-58.610036-18.385455-4.207709-37.655273-7.954618-57.748945-11.142982zM512 55.854545c36.165818 0 74.109673 35.072 105.541818 96.553891 17.822255-8.070982 35.113891-14.568727 52.056437-20.210036C628.433455 49.710545 573.346909 0 512 0 450.653091 0 395.561891 49.710545 354.397091 132.189091c16.9472 5.636655 34.238836 12.139055 52.056436 20.210036C437.890327 90.926545 475.834182 55.854545 512 55.854545zM283.145309 417.401018a1154.248145 1154.248145 0 0 1 64.111709-69.771636c-20.107636 3.188364-39.368145 6.935273-57.762909 11.142982a1058.629818 1058.629818 0 0 0-6.3488 58.628654zM724.433455 299.5712c-8.564364-42.295855-19.577018-81.435927-32.758691-116.461382-16.458473 5.315491-33.819927 12.194909-51.856291 20.442764 9.634909 25.832727 18.217891 54.565236 25.399854 85.936873 20.363636 2.802036 40.075636 6.209164 59.219782 10.081745z" fill="#746DE0" /><path d="M55.854545 512c0-36.165818 35.072-74.109673 96.5632-105.546473-8.075636-17.826909-14.582691-35.118545-20.219345-52.051782C49.710545 395.561891 0 450.653091 0 512s49.710545 116.438109 132.1984 157.602909c5.636655-16.942545 12.148364-34.229527 20.219345-52.056436C90.9312 586.109673 55.854545 548.165818 55.854545 512zM734.510545 665.227636a865.466182 865.466182 0 0 1-57.762909 11.142982 1157.343418 1157.343418 0 0 1-70.106763 64.484073c19.977309-1.6384 39.558982-3.718982 58.577454-6.344146 20.363636-2.802036 40.075636-6.209164 59.219782-10.081745 42.272582-8.555055 81.398691-19.572364 116.433455-32.754036-5.306182-16.421236-12.288-33.819927-20.507928-51.819055-25.818764 9.616291-54.528 18.189964-85.853091 25.371927zM1024 512c0-61.346909-49.710545-116.438109-132.1984-157.602909-5.636655 16.942545-12.148364 34.238836-20.219345 52.056436C933.0688 437.890327 968.145455 475.834182 968.145455 512s-35.072 74.109673-96.544582 105.546473c8.052364 17.8176 14.564073 35.109236 20.200727 52.051782C974.289455 628.438109 1024 573.346909 1024 512zM203.654982 639.855709c-8.238545 17.999127-15.220364 35.397818-20.507927 51.819055 35.002182 13.181673 74.146909 24.198982 116.414836 32.754036a958.370909 958.370909 0 0 0 59.219782 10.081745c18.962618 2.615855 38.511709 4.701091 58.414545 6.334837a1163.403636 1163.403636 0 0 1-69.925236-64.465455c-20.107636-3.188364-39.377455-6.944582-57.781527-11.152291-31.325091-7.181964-60.034327-15.755636-85.834473-25.371927zM512 688.872727c-24.710982 0-48.686545-0.800582-71.945309-2.290036 23.728873 20.824436 47.746327 40.117527 71.870836 57.697745 23.710255-17.221818 47.764945-36.463709 71.963928-57.697745-23.216873 1.489455-47.197091 2.290036-71.889455 2.290036zM820.363636 384.144291c8.196655-17.999127 15.197091-35.397818 20.489309-51.819055-35.016145-13.181673-74.146909-24.198982-116.414836-32.754036a953.776873 953.776873 0 0 0-59.219782-10.081745c-19.037091-2.625164-38.632727-4.705745-58.600727-6.344146a1162.426182 1162.426182 0 0 1 69.943855 64.279273c0.074473 0.065164 0.130327 0.139636 0.200145 0.2048 20.093673 3.188364 39.363491 6.935273 57.748945 11.142982 31.325091 7.181964 60.034327 15.764945 85.853091 25.371927zM512 335.127273c24.818036 0 48.923927 0.800582 72.271127 2.317963A999.3728 999.3728 0 0 0 512 279.617164a999.177309 999.177309 0 0 0-72.271127 57.828072A1114.568145 1114.568145 0 0 1 512 335.127273zM347.257018 347.629382c0.0512-0.065164 0.125673-0.130327 0.176873-0.195491a1157.306182 1157.306182 0 0 1 69.948509-64.288582c-19.981964 1.6384-39.563636 3.718982-58.600727 6.344146a958.370909 958.370909 0 0 0-59.219782 10.081745c-42.272582 8.555055-81.398691 19.572364-116.419491 32.754036 5.292218 16.421236 12.292655 33.819927 20.512582 51.809746 25.800145-9.597673 54.504727-18.180655 85.834473-25.362618 18.399418-4.207709 37.655273-7.954618 57.762909-11.142982z" fill="#F8A131" /><path d="M386.927709 386.927709a1112.645818 1112.645818 0 0 1 52.801164-49.482473A999.177309 999.177309 0 0 1 512 279.617164a872.019782 872.019782 0 0 0-49.091491-33.224146c-15.183127 11.506036-30.366255 23.896436-45.526109 36.752291a1157.306182 1157.306182 0 0 0-69.948509 64.288582c-0.0512 0.065164-0.125673 0.130327-0.181527 0.195491a1154.248145 1154.248145 0 0 0-64.107055 69.771636c-12.874473 15.173818-25.2928 30.370909-36.803491 45.581964 10.077091 16.062836 21.4016 32.470109 33.419637 49.017018 17.221818-23.700945 36.435782-47.727709 57.655854-71.912727 15.546182-17.7152 31.818473-35.458327 49.5104-53.159564zM512 211.753891c16.290909 10.807855 32.656291 22.192873 49.091491 34.639127 27.275636-17.091491 53.652945-31.390255 78.726982-42.840436 18.036364-8.2432 35.397818-15.127273 51.851636-20.442764 29.858909-9.644218 56.836655-14.568727 79.746327-14.568727 27.475782 0 49.184582 6.967855 63.1296 20.912873 25.562764 25.562764 27.526982 77.200291 6.306909 142.871272-5.287564 16.421236-12.288 33.819927-20.489309 51.819055-11.492073 25.134545-25.544145 51.493236-42.691491 78.838691 12.418327 16.397964 23.784727 32.735418 34.564655 49.017018 23.873164-35.961018 43.910982-71.456582 59.345455-105.546473 8.070982-17.8176 14.582691-35.118545 20.219345-52.051782 28.9792-87.156364 25.506909-161.172945-17.7664-204.436945-43.254691-43.273309-117.271273-46.7456-204.436945-17.7664-16.942545 5.636655-34.234182 12.139055-52.051782 20.210036-34.089891 15.443782-69.585455 35.4816-105.546473 59.345455zM512.0512 812.357818a983.775418 983.775418 0 0 1-48.9984-34.760145c-27.364073 17.165964-53.746036 31.245964-78.927127 42.738036-17.999127 8.219927-35.397818 15.201745-51.819055 20.507927-65.670982 21.210764-117.289891 19.246545-142.848-6.2976-25.567418-25.562764-27.531636-77.200291-6.316218-142.871272 5.292218-16.421236 12.274036-33.819927 20.512582-51.819055 11.473455-25.134545 25.525527-51.502545 42.686836-78.848-12.432291-16.397964-23.780073-32.735418-34.578618-49.007709-23.873164 35.961018-43.910982 71.456582-59.345455 105.546473-8.070982 17.826909-14.582691 35.118545-20.219345 52.051782-28.9792 87.165673-25.506909 161.172945 17.7664 204.436945 24.962327 24.962327 60.090182 36.826764 102.106764 36.826764 30.836364 0 65.475491-6.609455 102.4-18.897455 16.854109-5.618036 34.2016-12.455564 51.926109-20.475345 34.145745-15.4624 69.641309-35.2256 105.658182-59.136zM676.566109 676.566109a1157.073455 1157.073455 0 0 0 64.293236-69.962473c12.865164-15.173818 25.283491-30.384873 36.8128-45.595927-10.072436-16.062836-21.4016-32.4608-33.438254-49.007709-17.217164 23.691636-36.435782 47.727709-57.6512 71.912727-15.546182 17.7152-31.818473 35.467636-49.5104 53.159564-17.687273 17.691927-35.453673 33.954909-53.182836 49.5104-24.203636 21.234036-48.253673 40.471273-71.959273 57.697745 16.304873 11.892364 32.633018 23.226182 48.905309 33.466182a1062.036945 1062.036945 0 0 0 45.800727-36.891927 1157.343418 1157.343418 0 0 0 69.929891-64.288582z" fill="#FF427A" /><path d="M812.2368 512c-10.784582-16.2816-22.146327-32.619055-34.564655-49.017018-11.529309-15.211055-23.947636-30.417455-36.817454-45.600582a1164.883782 1164.883782 0 0 0-64.093091-69.753018c-0.069818-0.065164-0.125673-0.139636-0.195491-0.2048a1162.426182 1162.426182 0 0 0-69.948509-64.279273c-15.164509-12.855855-30.347636-25.246255-45.526109-36.752291-16.4352-12.446255-32.800582-23.831273-49.091491-34.639127-35.961018-23.863855-71.456582-43.910982-105.546473-59.354764-17.8176-8.070982-35.109236-14.568727-52.051782-20.210036-87.165673-28.9792-161.168291-25.516218-204.436945 17.7664-43.273309 43.273309-46.750255 117.280582-17.7664 204.446254 5.636655 16.933236 12.148364 34.224873 20.219345 52.051782 15.434473 34.089891 35.490909 69.585455 59.345455 105.546473 10.798545 16.272291 22.146327 32.609745 34.583273 49.012364 11.506036 15.2064 23.924364 30.403491 36.798836 45.586618a1160.215273 1160.215273 0 0 0 64.288582 69.957818 1163.403636 1163.403636 0 0 0 69.766982 64.288582 1095.302982 1095.302982 0 0 0 45.851927 36.752291 983.775418 983.775418 0 0 0 49.003055 34.755491c35.509527 23.645091 70.888727 43.636364 105.397527 59.410618 7.926691 3.630545 15.872 7.382109 23.691636 10.542545 9.597673 3.8912 18.874182 7.102836 28.113455 10.221382 37.194473 12.553309 71.484509 19.116218 101.757672 19.116218 42.873018 0 77.963636-12.562618 103.019055-37.618036 43.273309-43.264 46.7456-117.271273 17.7664-204.427636-5.636655-16.942545-12.148364-34.234182-20.200727-52.051782-15.453091-34.089891-35.490909-69.585455-59.364073-105.546473z m22.309236 322.536727c-26.037527 26.037527-77.312 28.220509-143.034181 6.772364a443.382691 443.382691 0 0 1-29.384146-10.761309c-7.363491-2.983564-14.875927-6.530327-22.341818-9.960727-25.860655-11.859782-52.261236-26.051491-78.9504-42.840437-16.272291-10.24-32.600436-21.573818-48.909964-33.466182-24.124509-17.580218-48.141964-36.873309-71.870836-57.697745-17.947927-15.764945-35.728291-32.125673-53.126982-49.519709-17.691927-17.701236-33.964218-35.444364-49.5104-53.164218-21.220073-24.171055-40.434036-48.207127-57.655854-71.898764-12.013382-16.546909-23.342545-32.954182-33.419637-49.017018-17.142691-27.345455-31.213382-53.699491-42.686836-78.848-8.219927-17.989818-15.220364-35.388509-20.507927-51.805091-21.220073-65.675636-19.255855-117.313164 6.306909-142.885236 13.945018-13.945018 35.6352-20.898909 63.1296-20.89891 22.909673 0 49.887418 4.919855 79.741672 14.564073 16.458473 5.315491 33.819927 12.208873 51.856291 20.442764 25.074036 11.454836 51.456 25.748945 78.726982 42.840436 16.104727 10.100364 32.488727 21.168873 49.091491 33.224146a999.3728 999.3728 0 0 1 72.271127 57.828072 1112.357236 1112.357236 0 0 1 52.801164 49.473164c17.691927 17.701236 33.964218 35.444364 49.5104 53.164218 21.215418 24.171055 40.434036 48.207127 57.6512 71.917382 12.036655 16.546909 23.365818 32.944873 33.438254 49.012364 17.147345 27.3408 31.199418 53.704145 42.691491 78.843345 8.219927 17.999127 15.201745 35.397818 20.507928 51.819055 21.201455 65.661673 19.237236 117.294545-6.330182 142.861963z" fill="#3BABB7" /><path d="M586.472727 512c0-41.0624-33.401018-74.472727-74.472727-74.472727-41.076364 0-74.472727 33.410327-74.472727 74.472727s33.401018 74.472727 74.472727 74.472727 74.472727-33.410327 74.472727-74.472727z m-111.709091 0c0-20.535855 16.709818-37.236364 37.236364-37.236364s37.236364 16.700509 37.236364 37.236364-16.709818 37.236364-37.236364 37.236364-37.236364-16.700509-37.236364-37.236364z" fill="#9AB040" /></svg>