<svg width="16" height="16" viewBox="0 0 16 16" fill="none" xmlns="http://www.w3.org/2000/svg">
<path d="M14.767 6.53967L14.747 6.48867L12.842 1.32567C12.8054 1.22566 12.7377 1.14007 12.6487 1.08157C12.5597 1.02307 12.4543 0.994747 12.348 1.0008C12.2417 1.00686 12.1401 1.04697 12.0584 1.1152C11.9766 1.18343 11.919 1.27615 11.894 1.37967L10.607 5.46567H5.39701L4.11001 1.37967C4.09065 1.30308 4.05341 1.23218 4.00136 1.17276C3.9493 1.11335 3.88391 1.06711 3.81054 1.03784C3.73717 1.00857 3.65791 0.997098 3.57925 1.00437C3.50059 1.01164 3.42478 1.03744 3.35801 1.07967C3.26867 1.13927 3.20015 1.22527 3.16201 1.32567L1.25201 6.48567L1.23401 6.53867C0.95953 7.28484 0.925609 8.09823 1.13701 8.86467C1.34413 9.62401 1.78925 10.297 2.40701 10.7847L2.41401 10.7897L2.43101 10.8027L5.33401 13.0597L6.77001 14.1877L7.64501 14.8737C7.74645 14.9536 7.87185 14.9971 8.00101 14.9971C8.13018 14.9971 8.25558 14.9536 8.35701 14.8737L9.23101 14.1877L10.667 13.0597L13.587 10.7897L13.595 10.7827C14.2113 10.295 14.6553 9.62286 14.862 8.86467C15.0734 8.09937 15.0401 7.28715 14.767 6.54167V6.53967Z" fill="#E24329" style="fill:#E24329;fill:color(display-p3 0.8863 0.2627 0.1608);fill-opacity:1;"/>
<path d="M14.767 6.54026L14.747 6.48926C13.8138 6.68923 12.9379 7.09776 12.185 7.68426L8 10.9703C9.425 12.0903 10.666 13.0623 10.666 13.0623L13.586 10.7923L13.594 10.7853C14.2112 10.2977 14.656 9.62511 14.863 8.86626C15.0744 8.10023 15.0408 7.28626 14.767 6.54026Z" fill="#FC6D26" style="fill:#FC6D26;fill:color(display-p3 0.9882 0.4275 0.1490);fill-opacity:1;"/>
<path d="M5.33398 13.0617L6.76998 14.1897L7.64498 14.8757C7.74642 14.9557 7.87182 14.9992 8.00098 14.9992C8.13015 14.9992 8.25555 14.9557 8.35698 14.8757L9.23098 14.1897L10.667 13.0617C10.667 13.0617 9.42498 12.0857 7.99998 10.9697C6.57498 12.0857 5.33398 13.0617 5.33398 13.0617Z" fill="#FCA326" style="fill:#FCA326;fill:color(display-p3 0.9882 0.6392 0.1490);fill-opacity:1;"/>
<path d="M3.81444 7.68433C3.05644 7.09433 2.18144 6.68433 1.25344 6.48633L1.23344 6.53833C0.959288 7.2846 0.925717 8.098 1.13744 8.86433C1.34456 9.62367 1.78968 10.2966 2.40744 10.7843L2.41444 10.7893L2.43144 10.8023L5.33444 13.0593L8.00044 10.9673L3.81444 7.68433Z" fill="#FC6D26" style="fill:#FC6D26;fill:color(display-p3 0.9882 0.4275 0.1490);fill-opacity:1;"/>
</svg>
