<svg stroke="currentColor" fill="currentColor" stroke-width="0" version="1.1" id="Layer_1" x="0px" y="0px" viewBox="0 0 30 30" height="1em" width="1em" xmlns="http://www.w3.org/2000/svg"><path d="M10.04,10.08c0-0.3,0.09-0.55,0.26-0.73c0.2-0.19,0.46-0.28,0.79-0.28c0.3,0,0.55,0.09,0.73,0.28l6.05,6.05v-1.95
	c0-0.3,0.1-0.55,0.3-0.75s0.45-0.3,0.75-0.3c0.29,0,0.54,0.1,0.74,0.31s0.3,0.45,0.3,0.75v4.48c0,0.3-0.1,0.55-0.3,0.75
	s-0.45,0.3-0.74,0.3h-4.48c-0.29,0-0.54-0.1-0.74-0.3s-0.3-0.45-0.3-0.75c0-0.29,0.1-0.54,0.3-0.73s0.45-0.29,0.74-0.29h1.93
	l-6.08-6.06C10.13,10.63,10.04,10.38,10.04,10.08z"></path></svg>