<svg stroke="currentColor" fill="currentColor" stroke-width="0" viewBox="0 0 512 512" height="1em" width="1em" xmlns="http://www.w3.org/2000/svg"><path d="M320 176V16H32v480h128v-96h32v96h288V176zM112 432H80v-32h32zm0-80H80v-32h32zm0-80H80v-32h32zm0-80H80v-32h32zm0-80H80V80h32zm128-32h32v32h-32zm-48 272h-32v-32h32zm0-80h-32v-32h32zm0-80h-32v-32h32zm0-80h-32V80h32zm80 320h-32v-32h32zm0-80h-32v-32h32zm0-80h-32v-32h32zm0-80h-32v-32h32v32zm176 272H320v-32h32v-32h-32v-48h32v-32h-32v-48h32v-32h-32v-32h128z"></path><path d="M384 400h32v32h-32zm0-80h32v32h-32zm0-80h32v32h-32z"></path></svg>