<svg stroke="currentColor" fill="currentColor" stroke-width="0" viewBox="0 0 512 512" height="1em" width="1em" xmlns="http://www.w3.org/2000/svg"><path fill="none" stroke-linecap="round" stroke-linejoin="round" stroke-width="32" d="M407.94 52.22S321.3 160 240 160H80a16 16 0 00-16 16v96a16 16 0 0016 16h160c81.3 0 167.94 108.23 167.94 108.23 6.06 8 24.06 2.52 24.06-9.83V62c0-12.31-17-18.82-24.06-9.78zM64 256s-16-6-16-32 16-32 16-32m384 54s16-4.33 16-22-16-22-16-22m-192-42v128M112 160v128"></path><path fill="none" stroke-linecap="round" stroke-linejoin="round" stroke-width="32" d="M144 288v168a8 8 0 008 8h53a16 16 0 0015.29-20.73C211.91 416.39 192 386.08 192 336h16a16 16 0 0016-16v-16a16 16 0 00-16-16h-16"></path></svg>