<svg xmlns="http://www.w3.org/2000/svg" width="16" height="16"><path d="M14.844 1.807a.5.5 0 10-.707-.707l-1.322 1.322L11.492 1.1a.5.5 0 10-.707.707l1.322 1.322-1.322 1.323a.5.5 0 00.707.707l1.323-1.322 1.322 1.322a.5.5 0 00.707-.707l-1.322-1.323 1.322-1.322zM3.167 1a2.167 2.167 0 01.497 4.276.551.551 0 01.003.057v5.334a.551.551 0 01-.003.057A2.167 2.167 0 013.167 15a2.167 2.167 0 01-.497-4.276.551.551 0 01-.003-.057V5.333l.003-.057A2.167 2.167 0 013.167 1zm7.5 11.833a2.168 2.168 0 011.666-2.108V6.417a.5.5 0 011 0v4.308a2.168 2.168 0 01-.5 4.275 2.167 2.167 0 01-2.166-2.167zM2 3.167a1.167 1.167 0 102.334 0 1.167 1.167 0 00-2.334 0zm0 9.666a1.167 1.167 0 102.334 0 1.167 1.167 0 00-2.334 0zm10.833-1.166a1.167 1.167 0 10.001 2.334 1.167 1.167 0 00-.001-2.334z" stroke="#000" stroke-width=".5"/></svg>