<svg xmlns="http://www.w3.org/2000/svg" viewBox="0 0 16 16" width="16" height="16" >
    <path
        d="M14.844 1.807a.5.5 0 1 0-.707-.707l-1.322 1.322-1.323-1.322a.5.5 0 1 0-.707.707l1.322 1.322-1.322 1.323a.5.5 0 0 0 .707.707l1.323-1.322 1.322 1.322a.5.5 0 0 0 .707-.707l-1.322-1.323 1.322-1.322ZM3.167 1a2.167 2.167 0 0 1 .497 4.276A.551.551 0 0 1 3.667 5.333v5.334a.551.551 0 0 1-.003.057A2.167 2.167 0 0 1 3.167 15a2.167 2.167 0 0 1-.497-4.276A.551.551 0 0 1 2.667 10.667V5.333c0-.019.001-.038.003-.057A2.167 2.167 0 0 1 3.167 1ZM10.667 12.833a2.168 2.168 0 0 1 1.666-2.108V6.417a.5.5 0 0 1 1 0v4.308a2.168 2.168 0 0 1-.5 4.275 2.167 2.167 0 0 1-2.166-2.167ZM2 3.167a1.167 1.167 0 1 0 2.334 0 1.167 1.167 0 0 0-2.334 0Zm0 9.666a1.167 1.167 0 1 0 2.334 0 1.167 1.167 0 0 0-2.334 0Zm10.833-1.166a1.167 1.167 0 1 0 .001 2.334 1.167 1.167 0 0 0-.001-2.334Z"
        stroke="#000000" stroke-width="0.5" />
</svg>
