<svg width="56" height="56" viewBox="0 0 56 56" fill="none" xmlns="http://www.w3.org/2000/svg">
<path fill-rule="evenodd" clip-rule="evenodd" d="M14 13C12.3431 13 11 14.3431 11 16V24C11 25.6569 12.3431 27 14 27H24C25.6569 27 27 25.6569 27 24V16C27 14.3431 25.6569 13 24 13H14ZM14 29C12.3431 29 11 30.3431 11 32V40C11 41.6569 12.3431 43 14 43H24C25.6569 43 27 41.6569 27 40V32C27 30.3431 25.6569 29 24 29H14ZM29 16C29 14.3431 30.3431 13 32 13H42C43.6569 13 45 14.3431 45 16V24C45 25.6569 43.6569 27 42 27H32C30.3431 27 29 25.6569 29 24V16ZM32 29C30.3431 29 29 30.3431 29 32V40C29 41.6569 30.3431 43 32 43H42C43.6569 43 45 41.6569 45 40V32C45 30.3431 43.6569 29 42 29H32Z" fill="url(#paint0_linear_6902_39342)"/>
<path fill-rule="evenodd" clip-rule="evenodd" d="M14 14H24C25.1046 14 26 14.8954 26 16V24C26 25.1046 25.1046 26 24 26H14C12.8954 26 12 25.1046 12 24V16C12 14.8954 12.8954 14 14 14ZM11 16C11 14.3431 12.3431 13 14 13H24C25.6569 13 27 14.3431 27 16V24C27 25.6569 25.6569 27 24 27H14C12.3431 27 11 25.6569 11 24V16ZM14 30H24C25.1046 30 26 30.8954 26 32V40C26 41.1046 25.1046 42 24 42H14C12.8954 42 12 41.1046 12 40V32C12 30.8954 12.8954 30 14 30ZM11 32C11 30.3431 12.3431 29 14 29H24C25.6569 29 27 30.3431 27 32V40C27 41.6569 25.6569 43 24 43H14C12.3431 43 11 41.6569 11 40V32ZM42 14H32C30.8954 14 30 14.8954 30 16V24C30 25.1046 30.8954 26 32 26H42C43.1046 26 44 25.1046 44 24V16C44 14.8954 43.1046 14 42 14ZM32 13C30.3431 13 29 14.3431 29 16V24C29 25.6569 30.3431 27 32 27H42C43.6569 27 45 25.6569 45 24V16C45 14.3431 43.6569 13 42 13H32ZM32 30H42C43.1046 30 44 30.8954 44 32V40C44 41.1046 43.1046 42 42 42H32C30.8954 42 30 41.1046 30 40V32C30 30.8954 30.8954 30 32 30ZM29 32C29 30.3431 30.3431 29 32 29H42C43.6569 29 45 30.3431 45 32V40C45 41.6569 43.6569 43 42 43H32C30.3431 43 29 41.6569 29 40V32Z" fill="#B6B6B6"/>
<defs>
<linearGradient id="paint0_linear_6902_39342" x1="11" y1="14.5" x2="45.6446" y2="31.9283" gradientUnits="userSpaceOnUse">
<stop stop-color="#E9E9E9"/>
<stop offset="1" stop-color="#F2F2F2" stop-opacity="0"/>
</linearGradient>
</defs>
</svg>
