<svg width="56" height="56" viewBox="0 0 56 56" fill="none" xmlns="http://www.w3.org/2000/svg">
<path fill-rule="evenodd" clip-rule="evenodd" d="M28 17C30.2091 17 32 15.2091 32 13C32 10.7909 30.2091 9 28 9C25.7909 9 24 10.7909 24 13C24 15.2091 25.7909 17 28 17ZM35 28C35 31.866 31.866 35 28 35C24.134 35 21 31.866 21 28C21 24.134 24.134 21 28 21C31.866 21 35 24.134 35 28ZM32 43C32 45.2091 30.2091 47 28 47C25.7909 47 24 45.2091 24 43C24 40.7909 25.7909 39 28 39C30.2091 39 32 40.7909 32 43ZM46 36C46 38.2091 44.2091 40 42 40C39.7909 40 38 38.2091 38 36C38 33.7909 39.7909 32 42 32C44.2091 32 46 33.7909 46 36ZM14 24C16.2091 24 18 22.2091 18 20C18 17.7909 16.2091 16 14 16C11.7909 16 10 17.7909 10 20C10 22.2091 11.7909 24 14 24ZM46 20C46 22.2091 44.2091 24 42 24C39.7909 24 38 22.2091 38 20C38 17.7909 39.7909 16 42 16C44.2091 16 46 17.7909 46 20ZM14 40C16.2091 40 18 38.2091 18 36C18 33.7909 16.2091 32 14 32C11.7909 32 10 33.7909 10 36C10 38.2091 11.7909 40 14 40Z" fill="url(#paint0_linear_5268_1352)"/>
<path fill-rule="evenodd" clip-rule="evenodd" d="M31 13C31 14.6569 29.6569 16 28 16C26.3431 16 25 14.6569 25 13C25 11.3431 26.3431 10 28 10C29.6569 10 31 11.3431 31 13ZM32 13C32 15.2091 30.2091 17 28 17C25.7909 17 24 15.2091 24 13C24 10.7909 25.7909 9 28 9C30.2091 9 32 10.7909 32 13ZM28 34C31.3137 34 34 31.3137 34 28C34 24.6863 31.3137 22 28 22C24.6863 22 22 24.6863 22 28C22 31.3137 24.6863 34 28 34ZM28 35C31.866 35 35 31.866 35 28C35 24.134 31.866 21 28 21C24.134 21 21 24.134 21 28C21 31.866 24.134 35 28 35ZM28 46C29.6569 46 31 44.6569 31 43C31 41.3431 29.6569 40 28 40C26.3431 40 25 41.3431 25 43C25 44.6569 26.3431 46 28 46ZM28 47C30.2091 47 32 45.2091 32 43C32 40.7909 30.2091 39 28 39C25.7909 39 24 40.7909 24 43C24 45.2091 25.7909 47 28 47ZM42 39C43.6569 39 45 37.6569 45 36C45 34.3431 43.6569 33 42 33C40.3431 33 39 34.3431 39 36C39 37.6569 40.3431 39 42 39ZM42 40C44.2091 40 46 38.2091 46 36C46 33.7909 44.2091 32 42 32C39.7909 32 38 33.7909 38 36C38 38.2091 39.7909 40 42 40ZM17 20C17 21.6569 15.6569 23 14 23C12.3431 23 11 21.6569 11 20C11 18.3431 12.3431 17 14 17C15.6569 17 17 18.3431 17 20ZM18 20C18 22.2091 16.2091 24 14 24C11.7909 24 10 22.2091 10 20C10 17.7909 11.7909 16 14 16C16.2091 16 18 17.7909 18 20ZM42 23C43.6569 23 45 21.6569 45 20C45 18.3431 43.6569 17 42 17C40.3431 17 39 18.3431 39 20C39 21.6569 40.3431 23 42 23ZM42 24C44.2091 24 46 22.2091 46 20C46 17.7909 44.2091 16 42 16C39.7909 16 38 17.7909 38 20C38 22.2091 39.7909 24 42 24ZM17 36C17 37.6569 15.6569 39 14 39C12.3431 39 11 37.6569 11 36C11 34.3431 12.3431 33 14 33C15.6569 33 17 34.3431 17 36ZM18 36C18 38.2091 16.2091 40 14 40C11.7909 40 10 38.2091 10 36C10 33.7909 11.7909 32 14 32C16.2091 32 18 33.7909 18 36Z" fill="#B6B6B6"/>
<defs>
<linearGradient id="paint0_linear_5268_1352" x1="10" y1="10.9" x2="49.0589" y2="27.3248" gradientUnits="userSpaceOnUse">
<stop stop-color="#929292"/>
<stop offset="1" stop-color="#565656" stop-opacity="0"/>
</linearGradient>
</defs>
</svg>