<svg width="56" height="56" viewBox="0 0 56 56" fill="none" xmlns="http://www.w3.org/2000/svg">
<rect x="11" y="13" width="34" height="30" rx="3" fill="url(#paint0_linear_4290_12951)"/>
<path fill-rule="evenodd" clip-rule="evenodd" d="M23.9992 14H42C43.1046 14 44 14.8954 44 16V40C44 41.1046 43.1046 42 42 42H23.9992V34H43.9992V33H23.9992V23.5H43.9992V22.5H23.9992V14ZM22.9992 14H14C12.8954 14 12 14.8954 12 16V22.5H22.9992V14ZM12 23.5V33H22.9992V23.5H12ZM12 34V40C12 41.1046 12.8954 42 14 42H22.9992V34H12ZM11 16C11 14.3431 12.3431 13 14 13H42C43.6569 13 45 14.3431 45 16V40C45 41.6569 43.6569 43 42 43H14C12.3431 43 11 41.6569 11 40V16Z" fill="#9A9A9A"/>
<defs>
<linearGradient id="paint0_linear_4290_12951" x1="11" y1="14.5" x2="45.6446" y2="31.9283" gradientUnits="userSpaceOnUse">
<stop stop-color="#929292"/>
<stop offset="1" stop-color="#565656" stop-opacity="0"/>
</linearGradient>
</defs>
</svg>
