<svg width="56" height="56" viewBox="0 0 56 56" fill="none" xmlns="http://www.w3.org/2000/svg">
<path fill-rule="evenodd" clip-rule="evenodd" d="M11 13.5C11 13.2239 11.2239 13 11.5 13H13.5C13.7761 13 14 13.2239 14 13.5V15.5C14 15.7761 13.7761 16 13.5 16H11.5C11.2239 16 11 15.7761 11 15.5V13.5ZM18 14.5C18 14.2239 18.2239 14 18.5 14H44.5C44.7761 14 45 14.2239 45 14.5C45 14.7761 44.7761 15 44.5 15H18.5C18.2239 15 18 14.7761 18 14.5ZM18.5 23C18.2239 23 18 23.2239 18 23.5C18 23.7761 18.2239 24 18.5 24H36.5C36.7761 24 37 23.7761 37 23.5C37 23.2239 36.7761 23 36.5 23H18.5ZM18.5 41C18.2239 41 18 41.2239 18 41.5C18 41.7761 18.2239 42 18.5 42H36.5C36.7761 42 37 41.7761 37 41.5C37 41.2239 36.7761 41 36.5 41H18.5ZM18.5 32C18.2239 32 18 32.2239 18 32.5C18 32.7761 18.2239 33 18.5 33H44.5C44.7761 33 45 32.7761 45 32.5C45 32.2239 44.7761 32 44.5 32H18.5ZM11.5 22C11.2239 22 11 22.2239 11 22.5V24.5C11 24.7761 11.2239 25 11.5 25H13.5C13.7761 25 14 24.7761 14 24.5V22.5C14 22.2239 13.7761 22 13.5 22H11.5ZM11 31.5C11 31.2239 11.2239 31 11.5 31H13.5C13.7761 31 14 31.2239 14 31.5V33.5C14 33.7761 13.7761 34 13.5 34H11.5C11.2239 34 11 33.7761 11 33.5V31.5ZM11.5 40C11.2239 40 11 40.2239 11 40.5V42.5C11 42.7761 11.2239 43 11.5 43H13.5C13.7761 43 14 42.7761 14 42.5V40.5C14 40.2239 13.7761 40 13.5 40H11.5Z" fill="#9A9A9A"/>
</svg>
