<svg stroke="currentColor" fill="currentColor" stroke-width="0" version="1.1" viewBox="0 0 17 17" height="1em" width="1em" xmlns="http://www.w3.org/2000/svg"><g></g><path d="M15 2v-2h-13v2h-0.516c-0.818 0-1.484 0.675-1.484 1.505v2.99c0 0.83 0.666 1.505 1.484 1.505h6.024c0.275 0 0.5 0.225 0.5 0.5v1.5h-1.008v7h3v-7h-0.992v-1.5c0-0.827-0.673-1.5-1.5-1.5h-6.024c-0.266 0-0.484-0.227-0.484-0.505v-2.99c0-0.278 0.218-0.505 0.484-0.505h0.516v3h13v-3h1v-1h-1zM9 16h-1v-5h1v5zM14 5h-11v-4h11v4z"></path></svg>