<svg stroke="currentColor" fill="currentColor" stroke-width="0" version="1.1" viewBox="0 0 17 17" height="1em" width="1em" xmlns="http://www.w3.org/2000/svg"><g></g><path d="M15.5 0h-12.664l-2.836 2.776v12.724c0 0.827 0.673 1.5 1.5 1.5h14c0.827 0 1.5-0.673 1.5-1.5v-14c0-0.827-0.673-1.5-1.5-1.5zM13 1v2h-8v-2h8zM3 16v-1h11v1h-11zM16 15.5c0 0.275-0.224 0.5-0.5 0.5h-0.5v-2h-13v2h-0.5c-0.276 0-0.5-0.225-0.5-0.5v-12.304l2.244-2.196h0.756v3h10v-3h1.5c0.276 0 0.5 0.225 0.5 0.5v14zM8.5 5c-1.93 0-3.5 1.57-3.5 3.5s1.57 3.5 3.5 3.5 3.5-1.57 3.5-3.5-1.57-3.5-3.5-3.5zM8.5 11c-1.378 0-2.5-1.121-2.5-2.5s1.122-2.5 2.5-2.5 2.5 1.121 2.5 2.5-1.122 2.5-2.5 2.5z"></path></svg>