<svg version="1.2" xmlns="http://www.w3.org/2000/svg" viewBox="0 0 2000 2000" width="2000" height="2000"><style>.a{fill:#8d1414}.b{fill:#fff9f9}</style><path class="a" d="m1000 1986c-545.3 0-986-440.7-986-986 0-545.3 440.7-986 986-986 545.3 0 986 440.7 986 986 0 545.3-440.7 986-986 986z"/><path class="b" d="m1030.6 1299h-170.4q-43.2 0-72-25.2-27.6-26.4-27.6-76.8v-92.4h84v91.2h198q33.6 0 55.2-7.2 21.6-8.4 33.6-21.6 13.2-13.2 18-30 4.8-16.8 4.8-34.8 0-40.8-26.4-82.8-25.2-43.2-88.8-106.8l-126-138 78-74.4 120 138q36 42 60 76.8 24 33.6 39.6 66 15.6 32.4 21.6 63.6 7.2 31.2 7.2 66 0 87.6-54 138-54 50.4-154.8 50.4z"/></svg>