<svg version="1.2" xmlns="http://www.w3.org/2000/svg" viewBox="0 0 2000 2000" width="2000" height="2000"><style>.a{fill:#8d1414}.b{fill:#fff9f9}</style><path class="a" d="m1000 1986c-545.3 0-986-440.7-986-986 0-545.3 440.7-986 986-986 545.3 0 986 440.7 986 986 0 545.3-440.7 986-986 986z"/><path class="b" d="m999.4 1251.8q-50.4 0-91.2-15.6-39.6-15.6-67.2-42-27.6-27.6-42-63.6-14.4-37.2-14.4-80.4 0-63.6 31.2-124.8 31.2-61.2 94.8-130.8l40.8-46.8h108l32.4 34.8q68.4 73.2 94.8 134.4 27.6 61.2 27.6 121.2 0 45.6-14.4 85.2-14.4 38.4-42 67.2-27.6 28.8-68.4 45.6-39.6 15.6-90 15.6zm-12-103.2h24q51.6 0 85.2-31.2 33.6-31.2 33.6-79.2 0-34.8-19.2-69.6-19.2-36-58.8-78l-54-57.6h-7.2l-49.2 57.6q-36 42-55.2 74.4-18 32.4-18 67.2 0 24 8.4 45.6 9.6 20.4 25.2 36 15.6 15.6 37.2 25.2 22.8 9.6 48 9.6z"/></svg>