<svg version="1.2" xmlns="http://www.w3.org/2000/svg" viewBox="0 0 2000 2000" width="2000" height="2000"><style>.a{fill:#8d1414}.b{fill:#fff9f9}</style><path class="a" d="m1000 1986c-545.3 0-986-440.7-986-986 0-545.3 440.7-986 986-986 545.3 0 986 440.7 986 986 0 545.3-440.7 986-986 986z"/><path class="b" d="m1457.8 1220.4q-141.6 0-165.6-120h-6q-12 50.4-48 78-34.8 27.6-93.6 27.6h-79.2q-7.2 148.8-90 218.4-81.6 69.6-248.4 69.6-84 0-150-20.4-66-20.4-112.8-58.8-45.6-38.4-69.6-93.6-24-56.4-24-127.2 0-55.2 14.4-116.4 15.6-62.4 42-123.6l74.4 22.8q-22.8 46.8-37.2 98.4-14.4 50.4-14.4 96 0 102 63.6 158.4 63.6 56.4 177.6 56.4h72q115.2 0 168-50.4 54-51.6 54-160.8 0-28.8-7.2-72-7.2-44.4-24-126l-10.8-52.8 84-16.8 9.6 52.8q9.6 49.2 14.4 84 6 33.6 9.6 58.8h108q57.6 0 85.2-22.8 27.6-24 27.6-79.2v-93.6h84v93.6q0 64.8 18 91.2 18 25.2 62.4 25.2h24q76.8 0 76.8-76.8 0-19.2-2.4-49.2-1.2-31.2-7.2-66l-9.6-66 82.8-10.8 8.4 63.6q4.8 37.2 7.2 70.8 2.4 33.6 2.4 57.6 0 82.8-44.4 132-44.4 48-126 48zm-50.4-457.2h-13.2q-24 0-38.4-13.2-14.4-14.4-14.4-45.6 0-31.2 14.4-44.4 14.4-14.4 38.4-14.4h13.2q24 0 38.4 14.4 14.4 13.2 14.4 44.4 0 31.2-14.4 45.6-14.4 13.2-38.4 13.2zm-154.8 0h-13.2q-24 0-38.4-13.2-14.4-14.4-14.4-45.6 0-31.2 14.4-44.4 14.4-14.4 38.4-14.4h13.2q24 0 38.4 14.4 14.4 13.2 14.4 44.4 0 31.2-14.4 45.6-14.4 13.2-38.4 13.2zm78-145.2h-14.4q-22.8 0-37.2-13.2-13.2-14.4-13.2-43.2 0-28.8 13.2-42 14.4-14.4 37.2-14.4h14.4q22.8 0 36 14.4 14.4 13.2 14.4 42 0 28.8-14.4 43.2-13.2 13.2-36 13.2z"/></svg>