<svg version="1.2" xmlns="http://www.w3.org/2000/svg" viewBox="0 0 2000 2000" width="2000" height="2000"><style>.a{fill:#8d1414}.b{fill:#fff9f9}</style><path class="a" d="m1000 1986c-545.3 0-986-440.7-986-986 0-545.3 440.7-986 986-986 545.3 0 986 440.7 986 986 0 545.3-440.7 986-986 986z"/><path class="b" d="m588.6 1444v-103.2h120l44.4-75.6v-709.2h88.8v439.2l-14.4 140.4 6 2.4q39.6-52.8 79.2-87.6 39.6-36 80.4-57.6 42-21.6 84-31.2 43.2-9.6 88.8-9.6 116.4 0 181.2 64.8 64.8 63.6 64.8 176.4 0 135.6-68.4 193.2-68.4 57.6-201.6 57.6zm255.6-189.6l-51.6 80.4 3.6 6h345.6q90 0 138-30 48-30 48-105.6 0-74.4-38.4-111.6-37.2-38.4-105.6-38.4h-36q-48 0-87.6 9.6-38.4 8.4-74.4 31.2-34.8 21.6-69.6 61.2-33.6 38.4-72 97.2z"/></svg>