<svg version="1.2" xmlns="http://www.w3.org/2000/svg" viewBox="0 0 2000 2000" width="2000" height="2000"><style>.a{fill:#8d1414}.b{fill:#fff9f9}</style><path class="a" d="m1000 1986c-545.3 0-986-440.7-986-986 0-545.3 440.7-986 986-986 545.3 0 986 440.7 986 986 0 545.3-440.7 986-986 986z"/><path class="b" d="m999.2 1357.4q-126 0-212.4-13.2-85.2-13.2-138-42-52.8-28.8-76.8-75.6-22.8-48-22.8-116.4 0-48 12-98.4 13.2-50.4 39.6-111.6l74.4 22.8q-49.2 102-49.2 175.2 0 73.2 69.6 108 69.6 33.6 219.6 33.6h168q85.2 0 140.4-4.8 55.2-4.8 87.6-16.8 32.4-12 44.4-32.4 13.2-21.6 13.2-54 0-20.4-2.4-50.4-2.4-31.2-12-81.6l-18-99.6 84-13.2 15.6 99.6q8.4 54 10.8 88.8 3.6 33.6 3.6 56.4 0 62.4-24 105.6-22.8 43.2-76.8 69.6-52.8 26.4-139.2 38.4-85.2 12-211.2 12zm84-457.2h-13.2q-24 0-38.4-13.2-14.4-14.4-14.4-45.6 0-31.2 14.4-44.4 14.4-14.4 38.4-14.4h13.2q24 0 38.4 14.4 14.4 13.2 14.4 44.4 0 31.2-14.4 45.6-14.4 13.2-38.4 13.2zm-154.8 0h-13.2q-24 0-38.4-13.2-14.4-14.4-14.4-45.6 0-31.2 14.4-44.4 14.4-14.4 38.4-14.4h13.2q24 0 38.4 14.4 14.4 13.2 14.4 44.4 0 31.2-14.4 45.6-14.4 13.2-38.4 13.2zm78-145.2h-14.4q-22.8 0-37.2-13.2-13.2-14.4-13.2-43.2 0-28.8 13.2-42 14.4-14.4 37.2-14.4h14.4q22.8 0 36 14.4 14.4 13.2 14.4 42 0 28.8-14.4 43.2-13.2 13.2-36 13.2z"/></svg>