<svg version="1.2" xmlns="http://www.w3.org/2000/svg" viewBox="0 0 2000 2000" width="2000" height="2000"><style>.a{fill:#8d1414}.b{fill:#fff9f9}</style><path class="a" d="m1000 1986c-545.3 0-986-440.7-986-986 0-545.3 440.7-986 986-986 545.3 0 986 440.7 986 986 0 545.3-440.7 986-986 986z"/><path class="b" d="m779.4 643.8l15.6 252h70.8q57.6 0 85.2-22.8 27.6-24 27.6-79.2v-88.8h84v88.8q0 64.8 15.6 91.2 16.8 25.2 56.4 25.2h24q37.2 0 52.8-24 16.8-25.2 16.8-75.6 0-25.2-8.4-63.6-7.2-39.6-24-97.2l86.4-20.4q14.4 54 20.4 98.4 7.2 44.4 7.2 82.8 0 105.6-42 154.8-42 48-121.2 48-70.8 0-108-30-37.2-31.2-49.2-90h-6q-12 50.4-48 78-34.8 27.6-93.6 27.6h-39.6l24 372h-88.8l-46.8-727.2z"/></svg>