<svg version="1.2" xmlns="http://www.w3.org/2000/svg" viewBox="0 0 2000 2000" width="2000" height="2000"><style>.a{fill:#8d1414}.b{fill:#fff9f9}</style><path class="a" d="m1000 1986c-545.3 0-986-440.7-986-986 0-545.3 440.7-986 986-986 545.3 0 986 440.7 986 986 0 545.3-440.7 986-986 986z"/><path class="b" d="m774.4 1371v-103.2h82.8q145.2 0 214.8-63.6 69.6-63.6 69.6-177.6v-26.4h-6q-16.8 39.6-56.4 62.4-38.4 22.8-91.2 22.8-96 0-148.8-50.4-52.8-51.6-52.8-144 0-54 15.6-102 16.8-48 45.6-82.8 28.8-36 68.4-56.4 40.8-21.6 88.8-21.6 103.2 0 162 88.8 58.8 88.8 58.8 249.6 0 190.8-92.4 297.6-91.2 106.8-276 106.8zm213.6-391.2h24q51.6 0 81.6-8.4 31.2-9.6 48-28.8 0-97.2-38.4-153.6-38.4-57.6-105.6-57.6-61.2 0-94.8 40.8-32.4 40.8-32.4 106.8 0 52.8 27.6 76.8 28.8 24 90 24z"/></svg>