<svg width="17" height="17" viewBox="0 0 17 17" fill="none" xmlns="http://www.w3.org/2000/svg">
<path d="M15.5 8.5V5C15.5 4.46957 15.2893 3.96086 14.9142 3.58579C14.5391 3.21071 14.0304 3 13.5 3H3C2.46957 3 1.96086 3.21071 1.58579 3.58579C1.21071 3.96086 1 4.46957 1 5V13.5C1 14.0304 1.21071 14.5391 1.58579 14.9142C1.96086 15.2893 2.46957 15.5 3 15.5H7.5M4.25 1V4.5M12.25 1V4.5M4 7H12.5M12 12L13.75 13.75M13.75 13.75L15.5 15.5M13.75 13.75L15.5 12M13.75 13.75L12 15.5" stroke="black" stroke-width="1.5" stroke-linecap="round" stroke-linejoin="round"/>
</svg>
