<svg width="144" height="144" viewBox="0 0 144 144" fill="none" xmlns="http://www.w3.org/2000/svg">
<path d="M55.2813 20L51.375 20.4688C51.375 20.4688 33.8555 22.3828 21.0625 32.6563H20.9063L20.75 32.8125C17.8789 35.4492 16.6289 38.6914 14.6563 43.4375C12.6836 48.1836 10.5742 54.2383 8.71875 60.9375C5.00782 74.3555 2 90.6055 2 105.469V106.719L2.625 107.969C7.25391 116.094 15.4766 121.27 23.0938 124.844C30.7109 128.418 37.293 130.313 41.8438 130.469L44.8125 130.625L46.375 127.969L51.8438 118.281C57.6445 119.59 64.3242 120.469 72 120.469C79.6758 120.469 86.3555 119.59 92.1563 118.281L97.625 127.969L99.1875 130.625L102.156 130.469C106.707 130.313 113.289 128.418 120.906 124.844C128.523 121.27 136.746 116.094 141.375 107.969L142 106.719V105.469C142 90.6055 138.992 74.3555 135.281 60.9375C133.426 54.2383 131.316 48.1836 129.344 43.4375C127.371 38.6914 126.121 35.4492 123.25 32.8125L123.094 32.6563H122.938C110.145 22.3828 92.625 20.4688 92.625 20.4688L88.7188 20L87.3125 23.5938C87.3125 23.5938 85.8672 27.2461 84.9688 31.4063C79.3047 30.6445 74.6758 30.4688 72 30.4688C69.3242 30.4688 64.6953 30.6445 59.0313 31.4063C58.1328 27.2461 56.6875 23.5938 56.6875 23.5938L55.2813 20ZM48.4063 31.4063C48.6211 32.1094 48.8359 32.7148 49.0313 33.2813C42.5664 34.8828 35.6719 37.3242 29.3438 41.25L34.6563 49.6875C47.625 41.6406 66.2578 40.4688 72 40.4688C77.7422 40.4688 96.375 41.6406 109.344 49.6875L114.656 41.25C108.328 37.3242 101.434 34.8828 94.9688 33.2813C95.1641 32.7148 95.3789 32.1094 95.5938 31.4063C100.262 32.3438 109.168 34.4922 116.531 40.3125C116.492 40.332 118.406 43.2227 120.125 47.3438C121.883 51.582 123.836 57.2266 125.594 63.5938C128.973 75.8008 131.629 90.6641 131.844 103.75C128.699 108.555 122.859 112.891 116.688 115.781C111.297 118.301 107.039 119.219 104.5 119.688L102 115.469C103.484 114.922 104.949 114.316 106.219 113.75C113.914 110.371 118.094 106.719 118.094 106.719L111.531 99.2188C111.531 99.2188 108.719 101.797 102.156 104.688C95.5938 107.578 85.5742 110.469 72 110.469C58.4258 110.469 48.4063 107.578 41.8438 104.688C35.2813 101.797 32.4688 99.2188 32.4688 99.2188L25.9063 106.719C25.9063 106.719 30.0859 110.371 37.7813 113.75C39.0508 114.316 40.5156 114.922 42 115.469L39.5 119.688C36.9609 119.219 32.7031 118.301 27.3125 115.781C21.1406 112.891 15.3008 108.555 12.1563 103.75C12.3711 90.6641 15.0273 75.8008 18.4063 63.5938C20.1641 57.2266 22.1172 51.582 23.875 47.3438C25.5938 43.2227 27.5078 40.332 27.4688 40.3125C34.832 34.4922 43.7383 32.3438 48.4063 31.4063ZM54.5 65.4688C50.6328 65.4688 47.2148 67.6758 45.125 70.4688C43.0352 73.2617 42 76.6992 42 80.4688C42 84.2383 43.0352 87.6758 45.125 90.4688C47.2148 93.2617 50.6328 95.4688 54.5 95.4688C58.3672 95.4688 61.7852 93.2617 63.875 90.4688C65.9648 87.6758 67 84.2383 67 80.4688C67 76.6992 65.9648 73.2617 63.875 70.4688C61.7852 67.6758 58.3672 65.4688 54.5 65.4688ZM89.5 65.4688C85.6328 65.4688 82.2148 67.6758 80.125 70.4688C78.0352 73.2617 77 76.6992 77 80.4688C77 84.2383 78.0352 87.6758 80.125 90.4688C82.2148 93.2617 85.6328 95.4688 89.5 95.4688C93.3672 95.4688 96.7852 93.2617 98.875 90.4688C100.965 87.6758 102 84.2383 102 80.4688C102 76.6992 100.965 73.2617 98.875 70.4688C96.7852 67.6758 93.3672 65.4688 89.5 65.4688ZM54.5 75.4688C54.7734 75.4688 55.125 75.5664 55.75 76.4063C56.375 77.2461 57 78.7109 57 80.4688C57 82.2266 56.375 83.6914 55.75 84.5313C55.125 85.3711 54.7734 85.4688 54.5 85.4688C54.2266 85.4688 53.875 85.3711 53.25 84.5313C52.625 83.6914 52 82.2266 52 80.4688C52 78.7109 52.625 77.2461 53.25 76.4063C53.875 75.5664 54.2266 75.4688 54.5 75.4688ZM89.5 75.4688C89.7734 75.4688 90.125 75.5664 90.75 76.4063C91.375 77.2461 92 78.7109 92 80.4688C92 82.2266 91.375 83.6914 90.75 84.5313C90.125 85.3711 89.7734 85.4688 89.5 85.4688C89.2266 85.4688 88.875 85.3711 88.25 84.5313C87.625 83.6914 87 82.2266 87 80.4688C87 78.7109 87.625 77.2461 88.25 76.4063C88.875 75.5664 89.2266 75.4688 89.5 75.4688Z" fill="black"/>
</svg>
