<svg width="144" height="144" viewBox="0 0 144 144" fill="none" xmlns="http://www.w3.org/2000/svg">
<path d="M30 33C30 27.4305 32.2125 22.089 36.1508 18.1508C40.089 14.2125 45.4305 12 51 12H72V54H51C45.4305 54 40.089 51.7875 36.1508 47.8492C32.2125 43.911 30 38.5695 30 33Z" stroke="black" stroke-width="10.4167" stroke-linecap="round" stroke-linejoin="round"/>
<path d="M72 12H93C95.7578 12 98.4885 12.5432 101.036 13.5985C103.584 14.6539 105.899 16.2007 107.849 18.1508C109.799 20.1008 111.346 22.4158 112.401 24.9636C113.457 27.5115 114 30.2422 114 33C114 35.7578 113.457 38.4885 112.401 41.0364C111.346 43.5842 109.799 45.8992 107.849 47.8492C105.899 49.7993 103.584 51.3461 101.036 52.4015C98.4885 53.4568 95.7578 54 93 54H72V12Z" stroke="black" stroke-width="10.4167" stroke-linecap="round" stroke-linejoin="round"/>
<path d="M72 75C72 72.2422 72.5432 69.5115 73.5985 66.9636C74.6539 64.4158 76.2007 62.1008 78.1508 60.1508C80.1008 58.2007 82.4158 56.6539 84.9636 55.5985C87.5115 54.5432 90.2422 54 93 54C95.7578 54 98.4885 54.5432 101.036 55.5985C103.584 56.6539 105.899 58.2007 107.849 60.1508C109.799 62.1008 111.346 64.4158 112.401 66.9636C113.457 69.5115 114 72.2422 114 75C114 77.7578 113.457 80.4885 112.401 83.0364C111.346 85.5842 109.799 87.8992 107.849 89.8492C105.899 91.7993 103.584 93.3461 101.036 94.4015C98.4885 95.4568 95.7578 96 93 96C90.2422 96 87.5115 95.4568 84.9636 94.4015C82.4158 93.3461 80.1008 91.7993 78.1508 89.8492C76.2007 87.8992 74.6539 85.5842 73.5985 83.0364C72.5432 80.4885 72 77.7578 72 75V75Z" stroke="black" stroke-width="10.4167" stroke-linecap="round" stroke-linejoin="round"/>
<path d="M30 117C30 111.43 32.2125 106.089 36.1508 102.151C40.089 98.2125 45.4305 96 51 96H72V117C72 122.57 69.7875 127.911 65.8492 131.849C61.911 135.788 56.5695 138 51 138C45.4305 138 40.089 135.788 36.1508 131.849C32.2125 127.911 30 122.57 30 117Z" stroke="black" stroke-width="10.4167" stroke-linecap="round" stroke-linejoin="round"/>
<path d="M30 75C30 69.4305 32.2125 64.089 36.1508 60.1508C40.089 56.2125 45.4305 54 51 54H72V96H51C45.4305 96 40.089 93.7875 36.1508 89.8492C32.2125 85.911 30 80.5695 30 75Z" stroke="black" stroke-width="10.4167" stroke-linecap="round" stroke-linejoin="round"/>
</svg>
