<svg width="144" height="144" viewBox="0 0 144 144" fill="none" xmlns="http://www.w3.org/2000/svg">
<g clip-path="url(#clip0_705_110)">
<path d="M1.76459 88.5928C1.44419 87.227 3.07136 86.3667 4.06338 87.3587L56.6413 139.937C57.6333 140.929 56.773 142.556 55.4072 142.235C28.8742 136.011 7.98882 115.126 1.76459 88.5928ZM0.00272354 67.5203C-0.0226835 67.9282 0.130699 68.3265 0.419707 68.6155L75.3844 143.58C75.6734 143.869 76.0717 144.023 76.4797 143.997C79.8913 143.785 83.2388 143.335 86.5056 142.664C87.6064 142.438 87.9889 141.085 87.1942 140.291L3.70937 56.8058C2.91469 56.0111 1.56208 56.3935 1.336 57.4944C0.66508 60.7612 0.215217 64.1086 0.00272354 67.5203V67.5203ZM6.06374 42.7758C5.82399 43.314 5.94611 43.943 6.36276 44.3598L99.6402 137.637C100.057 138.054 100.686 138.176 101.224 137.936C103.796 136.791 106.289 135.499 108.691 134.071C109.486 133.599 109.609 132.506 108.955 131.853L12.1474 35.0448C11.4935 34.3909 10.401 34.5136 9.92869 35.3086C8.50118 37.7111 7.20935 40.2038 6.06374 42.7758V42.7758ZM18.2285 26.0265C17.6956 25.4936 17.6626 24.6388 18.1647 24.0766C31.3625 9.3014 50.5604 0 71.9307 0C111.733 0 144 32.2665 144 72.0692C144 93.4395 134.699 112.637 119.923 125.835C119.361 126.337 118.506 126.304 117.973 125.771L18.2285 26.0265Z" fill="#222326"/>
</g>
<defs>
<clipPath id="clip0_705_110">
<rect width="144" height="144" fill="white"/>
</clipPath>
</defs>
</svg>
