<svg width="17" height="20" viewBox="0 0 17 20" fill="none" xmlns="http://www.w3.org/2000/svg">
<path d="M1 13.7169V5.7831C1 5.60746 1.09215 5.44471 1.24275 5.35435L8.24275 1.15435C8.40109 1.05934 8.59891 1.05934 8.75725 1.15435L15.7572 5.35435C15.9079 5.44471 16 5.60746 16 5.7831V13.7169C16 13.8925 15.9079 14.0553 15.7572 14.1457L8.75725 18.3457C8.59891 18.4407 8.40109 18.4407 8.24275 18.3457L1.24275 14.1457C1.09215 14.0553 1 13.8925 1 13.7169Z" stroke="black" stroke-width="2"/>
<path d="M8.65145 4.09087L13.4514 6.97087C13.4816 6.98894 13.5 7.02149 13.5 7.05662V12.4434C13.5 12.4785 13.4816 12.5111 13.4514 12.5291L8.55145 15.4691C8.51978 15.4881 8.48022 15.4881 8.44855 15.4691L3.64292 12.5857C3.57818 12.5469 3.57818 12.4531 3.64292 12.4143L8.45145 9.52913C8.48157 9.51106 8.5 9.47851 8.5 9.44338V4.17662C8.5 4.09889 8.5848 4.05088 8.65145 4.09087Z" fill="black" stroke="black" stroke-width="0.5"/>
</svg>
