<svg width="144" height="144" viewBox="0 0 144 144" fill="none" xmlns="http://www.w3.org/2000/svg">
<path d="M138 18C132.254 22.0529 125.893 25.1527 119.16 27.18C115.546 23.0251 110.744 20.0802 105.402 18.7436C100.06 17.407 94.437 17.7432 89.2925 19.7067C84.148 21.6703 79.7307 25.1664 76.6379 29.7223C73.5451 34.2782 71.9262 39.674 72 45.18V51.18C61.4558 51.4534 51.0076 49.1149 41.5861 44.3727C32.1645 39.6305 24.0619 32.6318 18 24C18 24 -6 78 48 102C35.6432 110.388 20.9229 114.594 6 114C60 144 126 114 126 45C125.994 43.3287 125.834 41.6616 125.52 40.02C131.644 33.981 135.965 26.3563 138 18V18Z" stroke="white" stroke-width="10.4167" stroke-linecap="round" stroke-linejoin="round"/>
</svg>
