<svg stroke="currentColor" fill="currentColor" stroke-width="0" version="1.2" baseProfile="tiny" viewBox="0 0 24 24" height="1em" width="1em" xmlns="http://www.w3.org/2000/svg"><path d="M10.2 6.4c-.488 0-.931.197-1.253.512-2.381 2.315-5.947 5.789-5.947 5.789l5.944 5.789c.326.315.768.51 1.256.51.994 0 1.8-.805 1.8-1.799v-9c0-.994-.806-1.801-1.8-1.801zM19.2 6.4c-.488 0-.931.197-1.253.512-2.381 2.315-5.947 5.789-5.947 5.789l5.944 5.789c.326.315.768.51 1.256.51.994 0 1.8-.805 1.8-1.799v-9c0-.994-.806-1.801-1.8-1.801z"></path></svg>