<svg stroke="currentColor" fill="currentColor" stroke-width="0" viewBox="0 0 1024 1024" height="1em" width="1em" xmlns="http://www.w3.org/2000/svg"><path d="M763.024 259.968C718.4 141.536 622.465 66.527 477.553 66.527c-184.384 0-313.392 136.912-324.479 315.536C64.177 410.495.002 501.183.002 603.903c0 125.744 98.848 231.968 215.823 231.968h92.448c17.664 0 32-14.336 32-32 0-17.68-14.336-32-32-32h-92.448c-82.304 0-152.832-76.912-152.832-167.968 0-80.464 56.416-153.056 127.184-165.216l29.04-5.008-2.576-29.328-.24-.368c0-155.872 102.576-273.44 261.152-273.44 127.104 0 198.513 62.624 231.537 169.44l6.847 22.032 23.056.496c118.88 2.496 223.104 98.945 223.104 218.77 0 109.055-72.273 230.591-181.696 230.591h-73.12c-17.664 0-32 14.336-32 32 0 17.68 14.336 32 32 32l72.88-.095c160-4.224 243.344-157.071 243.344-294.495 0-147.712-115.76-265.744-260.48-281.312zM535.985 514.941c-.176-.192-.241-.352-.354-.512l-8.095-8.464c-4.432-4.688-10.336-7.008-16.24-6.976-5.905-.048-11.777 2.288-16.289 6.975l-8.095 8.464c-.16.16-.193.353-.336.513L371.072 642.685c-8.944 9.344-8.944 24.464 0 33.84l8.064 5.471c8.945 9.344 23.44 6.32 32.368-3.024l68.113-75.935v322.432c0 17.664 14.336 32 32 32s32-14.336 32-32V603.34l70.368 77.631c8.944 9.344 23.408 12.369 32.336 3.025l8.064-5.472c8.945-9.376 8.945-24.496 0-33.84z"></path></svg>