<svg stroke="currentColor" fill="currentColor" stroke-width="0" viewBox="0 0 1024 1024" height="1em" width="1em" xmlns="http://www.w3.org/2000/svg"><path d="M763.024 260C718.4 141.568 622.465 66.559 477.569 66.559c-184.384 0-313.392 136.912-324.479 315.536C64.178 410.527.002 501.215.002 603.935c0 125.744 98.848 231.968 215.823 231.968h28.448c17.664 0 32-14.32 32-32s-14.336-32-32-32h-28.448c-82.304 0-152.832-76.912-152.832-167.968 0-80.464 56.416-153.056 127.184-165.216l29.04-5.008-2.592-29.344-.24-.368c.016-155.872 102.607-273.44 261.184-273.44 127.104 0 198.513 62.624 231.553 169.44l6.832 22.032 23.072.497c118.864 2.496 223.088 98.944 223.088 218.784 0 109.056-72.272 230.592-181.713 230.592h-9.104c-17.664 0-32 14.32-32 32s14.336 32 32 32v-.096c160-4.224 252.24-157.088 252.24-294.496-.032-147.728-115.792-265.743-260.512-281.312zM646.337 775.47c-8.944-9.344-23.407-9.345-32.335-.001l-70.384 77.648V530.973c0-17.664-14.336-32-32-32s-32 14.336-32 32v322.432l-68.112-75.935c-8.944-9.344-23.44-11.344-32.368-2l-8.065 4.416c-8.944 9.376-8.944 24.48 0 33.823l115.504 127.744c.16.16.193.368.336.528l8.096 8.464c4.496 4.689 10.368 7.01 16.288 6.977 5.872.032 11.776-2.288 16.225-6.977l8.095-8.464c.16-.16.24-.335.368-.528L654.417 811.71c8.945-9.344 8.945-20.447 0-29.823z"></path></svg>