<svg stroke="currentColor" fill="currentColor" stroke-width="0" viewBox="0 0 1024 1024" height="1em" width="1em" xmlns="http://www.w3.org/2000/svg"><path d="M1022.98 509.984L905.475 102.895c-3.84-13.872-16.464-23.472-30.848-23.472H139.283c-14.496 0-27.184 9.744-30.944 23.777L.947 489.552c-1.984 7.504-1.009 15.007 1.999 21.536C1.218 516.88.003 522.912.003 529.264v351.312c0 35.343 28.656 64 64 64h896c35.343 0 64-28.657 64-64V529.264c0-1.712-.369-3.329-.496-5.008.832-4.592.816-9.44-.527-14.272zm-859.078-366.56l686.369-.001 93.12 321.84H645.055c-1.44 76.816-55.904 129.681-133.057 129.681s-130.624-52.88-132.064-129.68H74.158zm796.097 737.151H64.001V529.263h263.12c27.936 80.432 95.775 129.68 184.879 129.68s157.936-49.248 185.871-129.68h262.128v351.312z"></path></svg>