<svg stroke="currentColor" fill="currentColor" stroke-width="0" viewBox="0 0 1024 1024" height="1em" width="1em" xmlns="http://www.w3.org/2000/svg"><path d="M576 736l-32-.001v-286c0-.336-.096-.656-.096-1.008s.096-.655.096-.991c0-17.664-14.336-32-32-32h-64c-17.664 0-32 14.336-32 32s14.336 32 32 32h32v256h-32c-17.664 0-32 14.336-32 32s14.336 32 32 32h128c17.664 0 32-14.336 32-32s-14.336-32-32-32zm-64-384.001c35.344 0 64-28.656 64-64s-28.656-64-64-64-64 28.656-64 64 28.656 64 64 64zm0-352c-282.768 0-512 229.232-512 512 0 282.784 229.232 512 512 512 282.784 0 512-229.216 512-512 0-282.768-229.216-512-512-512zm0 961.008c-247.024 0-448-201.984-448-449.01 0-247.024 200.976-448 448-448s448 200.977 448 448-200.976 449.01-448 449.01z"></path></svg>