<svg stroke="currentColor" fill="currentColor" stroke-width="0" viewBox="0 0 1024 1024" height="1em" width="1em" xmlns="http://www.w3.org/2000/svg"><path d="M849.152 0H211.153c-46 0-66.032 34-66.032 66v127.312h-34.928c-17.311 0-31.344 14.032-31.344 31.345 0 17.311 14.033 31.343 31.344 31.343h34.928v128.752h-31.936c-17.312 0-31.344 14.033-31.344 31.344 0 17.313 14.032 31.345 31.343 31.345h31.936v129.44h-32.624c-17.312 0-31.344 14.032-31.344 31.344s14.032 31.344 31.344 31.344h32.624v128.464h-32.624c-17.312 0-31.344 14.032-31.344 31.343s14.032 31.344 31.344 31.344h32.624V960c0 53.025 41.536 64 64.528 64h639.504c53.025 0 96-42.975 96-96V96c0-53.024-42.96-96-96-96zM209.121 960l-.001-129.279h33.344c17.311 0 31.344-14.032 31.344-31.344s-14.033-31.344-31.344-31.344H209.12V639.569h33.344c17.311 0 31.344-14.033 31.344-31.344s-14.033-31.344-31.344-31.344H209.12V447.44h34.032c17.313 0 31.345-14.032 31.345-31.345 0-17.311-14.032-31.344-31.344-31.344h-34.032V256h31.024c17.312 0 31.344-14.032 31.344-31.343 0-17.313-14.032-31.345-31.344-31.345h-31.024V66c0-.752.064-1.376.16-1.936a28.23 28.23 0 0 1 1.872-.064h510v896H209.121zm672.031-31.999c0 17.664-14.336 32-32 32h-64v-896h64c17.664 0 32 14.336 32 32v832z"></path></svg>