<svg stroke="currentColor" fill="currentColor" stroke-width="0" viewBox="0 0 1024 1024" height="1em" width="1em" xmlns="http://www.w3.org/2000/svg"><path d="M997.795 1002.43H789.769c-14.715 0-26.607-11.892-26.607-26.607V640.806c0-114.898-59.263-114.898-78.816-114.898-52.611 0-74.986 41.525-82.243 59.466-3.427 8.064-5.04 21.77-5.04 40.921v349.732c0 14.715-11.892 26.607-26.606 26.607H362.23c-7.055 0-13.909-2.822-18.948-7.86s-7.861-11.895-7.66-18.95c0-5.643 2.822-567.432 0-624.881-.403-7.257 2.217-14.312 7.257-19.553s11.893-8.265 19.35-8.265h208.228c14.714 0 26.607 11.892 26.607 26.607v15.723c35.074-31.244 85.669-57.046 161.058-57.046 166.702 0 266.28 115.3 266.28 308.409v359.005c0 14.715-11.893 26.607-26.607 26.607zm-181.418-53.214l155.012-.004V616.815c0-162.268-77.606-255.193-213.065-255.193-90.507 0-134.45 45.153-162.066 86.476-3.225 10.885-13.506 18.949-25.6 18.949h-1.41c-9.677 0-18.546-5.242-23.181-13.707-3.628-6.653-4.435-14.313-2.016-21.368v-55.835H389.443c1.411 111.068 0 470.477-.403 572.877h154.809V626.09c0-26.809 2.822-46.16 8.869-60.875 23.383-57.852 72.566-92.724 131.427-92.724 83.855 0 132.03 61.28 132.03 168.113v308.611h.204zm-569.246 53.21H38.904c-14.715 0-26.607-11.892-26.607-26.607V349.73c0-14.715 11.892-26.608 26.607-26.608h208.227c14.715 0 26.607 11.893 26.607 26.607V975.82c0 14.715-11.892 26.608-26.607 26.608zM65.513 949.213h155.01V376.336H65.514v572.876zm77.605-658.344l-1.412-.001c-82.041 0-141.707-56.844-141.707-135.055 0-78.009 60.674-134.854 144.529-134.854 82.444 0 141.305 55.231 142.918 134.249 0 78.816-60.674 135.66-144.328 135.66zm1.41-216.492c-54.627 0-91.313 32.857-91.313 81.639 0 47.974 36.284 81.637 88.492 81.637h1.41c54.426 0 91.112-32.857 91.112-81.638-1.008-49.386-36.283-81.638-89.701-81.638z"></path></svg>