<svg xmlns="http://www.w3.org/2000/svg" xml:space="preserve" viewBox="0 0 128 128">
  <circle cx="64" cy="64" r="64" fill="#3b82f7"/>
  <path fill="#fff" fill-opacity=".85" d="M42.2 74.4c7.1 0 12.8 5.7 12.8 12.8 0 7.1-5.7 12.8-12.8 12.8s-12.8-5.7-12.8-12.8c0-7.1 5.7-12.8 12.8-12.8zm43.6.1c-7.1 0-12.8 5.7-12.8 12.8 0 7.1 5.7 12.8 12.8 12.8 7.1 0 12.8-5.7 12.8-12.8 0-7.1-5.7-12.8-12.8-12.8z"/>
  <path fill="#fff" fill-opacity=".425" d="M33.1 58.8C33.8 23.7 64 26 64 26s30.2-2.4 30.9 32.8c0 0 0 .1.1.1l6 2.8c.1 0 .1 0 .1-.1.2-2.6.5-9.1-1.9-16.6C95.6 33.4 84.6 16.7 64 16.7S32.4 33.4 28.8 45.1c-2.3 7.4-2.1 14-1.9 16.6 0 .1.1.1.1.1l6.1-3c0 .1 0 0 0 0z"/>
  <path fill="#fff" fill-opacity=".425" d="M40.5 64.9c-2.6-.6-5.1-4.6-5.6-5.6-.1-.1-.2-.2-.3-.1-.3.1-.9.4-1.5.7l-8.3 3.9c-.1.1-.2.2-.1.3.3.9 1.2 4.1.3 5-2.2 2.2-4.5 6.8-4.5 12.4 0 12.2 11.7 25.7 24.9 25.7s16.2-10.6 16.2-16.3c0-3.5-.1-7.1-5.3-15-5.1-7.7-12.9-10.3-15.8-11zm-13 .7 6.6-3.1c.4-.2.8 0 1 .4l.1.3c.2.4 0 .8-.4 1l-6.6 3.1c-.4.2-.8 0-1-.4l-.1-.3c-.1-.4 0-.9.4-1zm26.4 34.9c-2.6 2.5-6.1 4-9.4 4-4.2 0-9.2-2-13-5.1-4.6-3.8-7.1-9-7.1-14.6 0-3.4 1.2-7 3.2-9.6 2.6-3.4 6.6-5.3 11.5-5.3 5.5 0 10.5 2.5 14.3 7.1 3.1 3.8 5.1 8.7 5.1 12.8 0 4.1-1.6 7.9-4.6 10.7zM103 69.2c-.9-.9.1-4.2.3-5 0-.1 0-.2-.1-.3L94.9 60c-.6-.3-1.2-.6-1.5-.7-.1-.1-.3 0-.3.1-.6 1-3.1 5-5.6 5.6-2.9.7-10.7 3.2-15.9 11.1-5.2 7.9-5.3 11.5-5.3 15 0 5.7 3 16.3 16.2 16.3s24.9-13.6 24.9-25.7c.1-5.7-2.2-10.3-4.4-12.5zm-10.2-6.1.1-.3c.2-.4.6-.5 1-.4l6.6 3.1c.4.2.5.6.4 1l-.1.3c-.2.4-.6.5-1 .4l-6.6-3.1c-.4-.1-.6-.6-.4-1zm3.7 36.2c-3.8 3.2-8.8 5.1-13 5.1-3.3 0-6.8-1.5-9.4-4-3-2.8-4.6-6.6-4.6-10.7s1.9-9 5.1-12.8c3.7-4.6 8.8-7.1 14.3-7.1 4.9 0 8.8 1.8 11.5 5.3 2 2.6 3.2 6.2 3.2 9.6-.1 5.6-2.6 10.8-7.1 14.6z"/>
  <path fill="#fff" fill-opacity=".85" d="M52.9 77.4c-3.6-4.4-8.5-6.8-13.8-6.8-4.6 0-8.4 1.7-10.9 5-1.9 2.5-3.1 5.9-3.1 9.1 0 5.4 2.4 10.4 6.8 14.1 3.7 3.1 8.5 5 12.5 5 3.1 0 6.4-1.4 8.9-3.8 2.8-2.7 4.4-6.3 4.4-10.2.1-4-1.8-8.7-4.8-12.4zm-20.1-3.1s.7-.5 1.8-1c.7-.3 1.7-.6 1.7-.6.3-.1.7.1.7.4.1.3-.1.7-.4.7 0 0-1 .3-1.6.6-.9.4-1.5.8-1.5.8-.1.1-.2.1-.4.1s-.4-.1-.5-.2c-.2-.2-.1-.6.2-.8zm9.4 25.7c-7.1 0-12.8-5.7-12.8-12.8 0-7.1 5.7-12.8 12.8-12.8S55 80.1 55 87.2 49.2 100 42.2 100zm60.6-15.3c0-3.2-1.1-6.6-3.1-9.1-2.5-3.3-6.3-5-10.9-5-5.3 0-10.1 2.4-13.8 6.8-3 3.7-4.9 8.4-4.9 12.4 0 3.9 1.5 7.6 4.4 10.2 2.5 2.4 5.8 3.8 8.9 3.8 4 0 8.9-1.9 12.5-5 4.5-3.7 6.9-8.7 6.9-14.1zM91 73.1c.1-.3.4-.5.7-.4 0 0 1 .3 1.7.6 1.1.5 1.7 1 1.8 1 .3.2.3.6.1.8-.1.2-.3.2-.5.2-.1 0-.3 0-.4-.1 0 0-.6-.4-1.5-.8-.6-.3-1.6-.5-1.6-.6-.2 0-.4-.4-.3-.7zM85.8 100c-7 0-12.8-5.7-12.8-12.7 0-7.1 5.7-12.8 12.8-12.8 7.1 0 12.8 5.7 12.8 12.8 0 7-5.7 12.7-12.8 12.7z" opacity=".8"/>
</svg>
