<svg width="24" height="24" viewBox="0 0 24 24" xmlns="http://www.w3.org/2000/svg"><path fill="currentColor" d="m20.79 13.95l-2.33.62l-2-1.13v-2.88l2-1.13l2.33.62l.52-1.93l-1.77-.47l.46-1.77l-1.93-.52l-.62 2.33l-2 1.13L13 7.38V5.12l1.71-1.71L13.29 2L12 3.29L10.71 2L9.29 3.41L11 5.12v2.26L8.5 8.82l-2-1.13l-.58-2.33L4 5.88l.47 1.77l-1.77.47l.52 1.93l2.33-.62l2 1.13v2.89l-2 1.13l-2.33-.62l-.52 1.93l1.77.47L4 18.12l1.93.52l.62-2.33l2-1.13L11 16.62v2.26l-1.71 1.71L10.71 22L12 20.71L13.29 22l1.41-1.41l-1.7-1.71v-2.26l2.5-1.45l2 1.13l.62 2.33l1.88-.51l-.47-1.77l1.77-.47zM9.5 10.56L12 9.11l2.5 1.45v2.88L12 14.89l-2.5-1.45z"/></svg>