<?xml version="1.0" encoding="UTF-8"?>
<!-- Uploaded to: SVG Repo, www.svgrepo.com, Generator: SVG Repo Mixer Tools -->
<svg width="800px" height="800px" viewBox="0 0 512 512" version="1.1" xmlns="http://www.w3.org/2000/svg" xmlns:xlink="http://www.w3.org/1999/xlink">
    <title>ppt-document</title>
    <g id="Page-1" stroke="none" stroke-width="1" fill="none" fill-rule="evenodd">
        <g id="drop" fill="#000000" transform="translate(85.324800, 42.666667)">
            <path d="M234.6752,7.10542736e-15 L0.00853333333,7.10542736e-15 L0.00853333333,234.666667 L42.6752,234.666667 L42.6752,192 L42.6752,169.6 L42.6752,42.6666667 L216.968533,42.6666667 L298.6752,124.373333 L298.6752,169.6 L298.6752,192 L298.6752,234.666667 L341.341867,234.666667 L341.341867,106.666667 L234.6752,7.10542736e-15 L234.6752,7.10542736e-15 Z M53.7173333,332.6336 C50.2186667,334.318933 44.4586667,335.172267 36.4373333,335.172267 L28.1386667,335.172267 L28.1386667,299.2896 L36.4373333,299.2896 C44.4586667,299.2896 50.3253333,300.3776 53.9946667,302.6176 C58.9866667,305.6256 61.4826667,310.7456 61.4826667,317.9136 C61.4826667,325.188267 58.9013333,330.116267 53.7173333,332.6336 M64.2133333,280.004267 C57.7493333,278.382933 48.384,277.572267 36.096,277.572267 L1.42108547e-14,277.572267 L1.42108547e-14,405.700267 L28.864,405.700267 L28.864,356.868267 L40.96,356.868267 C49.7706667,356.868267 56.96,356.1856 62.528,354.8416 C68.1173333,353.4976 72.8533333,351.236267 76.7786667,348.100267 C85.824,340.868267 90.3466667,330.4576 90.3466667,316.910933 C90.3466667,308.590933 88.448,301.316267 84.6293333,295.108267 C79.936,287.342933 73.1306667,282.308267 64.2133333,280.004267 M179.592533,332.279467 C176.093867,333.9648 170.333867,334.818133 162.312533,334.818133 L154.013867,334.818133 L154.013867,298.935467 L162.312533,298.935467 C170.333867,298.935467 176.200533,300.023467 179.869867,302.263467 C184.861867,305.271467 187.357867,310.391467 187.357867,317.559467 C187.357867,324.834133 184.776533,329.762133 179.592533,332.279467 M190.088533,279.650133 C183.624533,278.0288 174.2592,277.218133 161.9712,277.218133 L125.8752,277.218133 L125.8752,405.346133 L154.7392,405.346133 L154.7392,356.514133 L166.8352,356.514133 C175.645867,356.514133 182.8352,355.831467 188.4032,354.487467 C193.992533,353.143467 198.728533,350.882133 202.653867,347.746133 C211.6992,340.514133 216.221867,330.103467 216.221867,316.5568 C216.221867,308.2368 214.3232,300.962133 210.504533,294.754133 C205.8112,286.9888 199.005867,281.954133 190.088533,279.650133 M234.6752,277.570133 L234.6752,300.183467 L271.7312,300.183467 L271.7312,405.698133 L300.5952,405.698133 L300.5952,300.183467 L338.205867,300.183467 L338.205867,277.570133 L234.6752,277.570133 Z" id="Combined-Shape">

</path>
        </g>
    </g>
</svg>