<svg stroke="currentColor" fill="currentColor" stroke-width="0" viewBox="0 0 16 16" height="1em" width="1em" xmlns="http://www.w3.org/2000/svg"><path d="M4.667 2.011A6 6 0 0 1 8 1a6.007 6.007 0 0 1 6 6 6 6 0 0 1-3.996 5.655v-.044c.016-.014.031-.03.046-.045a1.48 1.48 0 0 0 .434-1.046v-.137A5.042 5.042 0 0 0 12.19 4.2a5.04 5.04 0 1 0-6.69 7.176v.144a1.48 1.48 0 0 0 .48 1.09v.04A5.999 5.999 0 0 1 4.667 2.01z"></path><path d="M9.343 11.86a.48.48 0 0 1-.34.14v2.52a.48.48 0 0 1-.48.48H7.46c.011 0-.004-.004-.034-.012-.075-.02-.241-.064-.305-.129a.48.48 0 0 1-.141-.34V12a.48.48 0 0 1-.48-.48V9.5a1 1 0 0 1 1-1h.984a1 1 0 0 1 1 1v2.02a.48.48 0 0 1-.137.335l-.004.004z"></path><path d="M10.64 7c0 .525-.157 1.034-.445 1.465.183.302.289.656.289 1.035v.106a3.596 3.596 0 0 0 .06-5.15A3.6 3.6 0 1 0 5.5 9.59V9.5c0-.384.108-.743.296-1.047A2.64 2.64 0 1 1 10.64 7z"></path><path d="M9 7a1 1 0 1 1-2 0 1 1 0 0 1 2 0z"></path></svg>