<svg stroke="currentColor" fill="currentColor" stroke-width="0" viewBox="0 0 16 16" height="1em" width="1em" xmlns="http://www.w3.org/2000/svg"><path fill-rule="evenodd" clip-rule="evenodd" d="M12.547 9.328a1.567 1.567 0 0 0-.594-.117 1.202 1.202 0 0 0-.555.101 2.762 2.762 0 0 0-.43.258 2.166 2.166 0 0 0-.359.328c-.104.12-.205.23-.304.329a2.409 2.409 0 0 1-.29.25.534.534 0 0 1-.695-.063 32.17 32.17 0 0 1-.328-.312c-.14-.136-.312-.3-.515-.493A61.776 61.776 0 0 1 7.844 9l-.68-.664a25.847 25.847 0 0 1-1.21-1.266 5.312 5.312 0 0 1-.391-.484c-.094-.135-.141-.234-.141-.297a.46.46 0 0 1 .101-.312c.073-.094.16-.19.258-.29.1-.098.209-.203.328-.312.12-.11.23-.227.329-.352.098-.125.182-.268.25-.43.067-.16.101-.343.101-.546a1.567 1.567 0 0 0-.453-1.102 7.604 7.604 0 0 1-.531-.578 6.487 6.487 0 0 0-.617-.64 4.207 4.207 0 0 0-.696-.516A1.46 1.46 0 0 0 3.742 1a1.567 1.567 0 0 0-1.101.453c-.271.271-.508.513-.711.727a4.006 4.006 0 0 0-.516.664 2.63 2.63 0 0 0-.312.765A4.39 4.39 0 0 0 1 4.625c0 .552.089 1.125.266 1.719.177.593.416 1.185.718 1.773.302.589.67 1.167 1.102 1.735.432.567.901 1.106 1.406 1.617.505.51 1.042.982 1.61 1.414.567.432 1.148.805 1.742 1.117.593.313 1.19.557 1.789.734a6.157 6.157 0 0 0 1.75.266 4.696 4.696 0 0 0 1.008-.11 2.59 2.59 0 0 0 .773-.312c.23-.14.45-.312.664-.515.214-.204.453-.438.719-.704A1.568 1.568 0 0 0 15 12.257a2.009 2.009 0 0 0-.102-.515 1.674 1.674 0 0 0-.257-.484 7.24 7.24 0 0 0-.368-.445 5.381 5.381 0 0 0-.421-.422 91.549 91.549 0 0 0-.43-.383 8.277 8.277 0 0 1-.367-.344 1.516 1.516 0 0 0-.508-.336zm-.367 4.586a3.13 3.13 0 0 1-.797.086 5.526 5.526 0 0 1-1.516-.242 8.362 8.362 0 0 1-1.586-.664 13.205 13.205 0 0 1-3.047-2.297 17.15 17.15 0 0 1-1.289-1.461 10.502 10.502 0 0 1-1.03-1.578 9.12 9.12 0 0 1-.673-1.61A5.308 5.308 0 0 1 2 4.602a3.34 3.34 0 0 1 .094-.79c.057-.218.143-.414.258-.585.114-.172.255-.339.421-.5.167-.162.357-.35.57-.563a.542.542 0 0 1 .4-.164c.062-.005.158.036.288.125.13.089.271.195.422.32a7.058 7.058 0 0 1 .899.899c.125.15.229.289.312.414.083.125.125.221.125.289a.429.429 0 0 1-.101.312c-.073.084-.16.18-.258.29-.1.109-.209.213-.328.312-.12.099-.23.216-.329.351a2.266 2.266 0 0 0-.25.438 1.345 1.345 0 0 0-.101.54c.005.213.047.413.125.6.078.188.19.355.336.5l3.726 3.727a1.527 1.527 0 0 0 1.102.46 1.2 1.2 0 0 0 .547-.1 2.414 2.414 0 0 0 .789-.586c.11-.12.21-.23.305-.329.093-.098.19-.182.289-.25a.545.545 0 0 1 .312-.101c.073 0 .172.042.297.125.125.083.263.19.414.32.151.13.307.274.469.43.161.156.305.312.43.469.124.156.229.297.312.422.083.125.125.22.125.289a.533.533 0 0 1-.164.39c-.224.219-.414.41-.57.57a3.159 3.159 0 0 1-.5.422 1.93 1.93 0 0 1-.586.266zM15 1.704l-4.64 4.648h3.288v1h-5v-5h1V5.64L14.297 1l.703.703z"></path></svg>