<svg stroke="currentColor" fill="currentColor" stroke-width="0" viewBox="0 0 16 16" height="1em" width="1em" xmlns="http://www.w3.org/2000/svg"><path fill-rule="evenodd" clip-rule="evenodd" d="M2.119 4L3 4.881l-.619.619L.715 3.833v-.618L2.38 1.548l.62.619L2.167 3H15v1H2.119zM4 14.546V5.455L4.5 5h2l.5.455v9.09L6.5 15h-2l-.5-.454zm2-.455V5.909H5v8.182h1zm2-1.535V5.444L8.5 5h2l.5.444v7.112l-.5.444h-2l-.5-.444zm2-.445V5.89H9v6.222h1zm2-6.682v5.143l.5.428h2l.5-.428V5.429L14.5 5h-2l-.5.429zm2 .428v4.286h-1V5.857h1z"></path></svg>