<svg stroke="currentColor" fill="currentColor" stroke-width="0" viewBox="0 0 24 24" height="1em" width="1em" xmlns="http://www.w3.org/2000/svg"><path fill-rule="evenodd" clip-rule="evenodd" d="M13.735 1.694L15.178 1l8.029 6.328v1.388l-8.029 6.072-1.443-.694v-2.776h-.59c-4.06-.02-6.71.104-10.61 5.163l-1.534-.493a8.23 8.23 0 0 1 .271-2.255 11.026 11.026 0 0 1 3.92-6.793 11.339 11.339 0 0 1 7.502-2.547h1.04v-2.7zm1.804 7.917v2.776l5.676-4.281-5.648-4.545v2.664h-2.86A9.299 9.299 0 0 0 5.77 8.848a10.444 10.444 0 0 0-2.401 4.122c3.351-3.213 6.19-3.359 9.798-3.359h2.373zm-7.647 5.896a4.31 4.31 0 1 1 4.788 7.166 4.31 4.31 0 0 1-4.788-7.166zm.955 5.728a2.588 2.588 0 1 0 2.878-4.302 2.588 2.588 0 0 0-2.878 4.302z"></path></svg>