<svg stroke="currentColor" fill="currentColor" stroke-width="0" viewBox="0 0 16 16" height="1em" width="1em" xmlns="http://www.w3.org/2000/svg"><path d="M8.534 12.467H7.436l-.897-2.373h-3.59l-.845 2.373H1L4.248 4h1.027l3.26 8.467zm-2.32-3.265L4.885 5.594a3.454 3.454 0 0 1-.13-.567h-.023c-.04.24-.085.43-.136.567L3.279 9.202h2.935zm3.572 3.265V4h2.41c.732 0 1.312.18 1.741.537.43.359.644.825.644 1.4 0 .48-.13.897-.39 1.252-.26.354-.618.606-1.075.755v.024c.571.067 1.028.283 1.37.65.343.362.514.834.514 1.417 0 .724-.26 1.31-.78 1.76-.519.448-1.174.672-1.966.672H9.786zm.992-7.57v2.734h1.016c.543 0 .97-.13 1.281-.39.311-.263.466-.633.466-1.11 0-.822-.54-1.233-1.623-1.233h-1.14zm0 3.626v3.047h1.346c.583 0 1.034-.138 1.353-.414.322-.275.484-.653.484-1.133 0-1-.681-1.5-2.043-1.5h-1.14z"></path></svg>