<svg stroke="currentColor" fill="currentColor" stroke-width="0" viewBox="0 0 16 16" height="1em" width="1em" xmlns="http://www.w3.org/2000/svg"><path fill-rule="evenodd" clip-rule="evenodd" d="M14.491 1c-3.598.004-6.654 1.983-8.835 4H1.5l-.5.5v3l.147.354.991.991.001.009 4 4 .009.001.999.999L7.5 15h3l.5-.5v-4.154c2.019-2.178 3.996-5.233 3.992-8.846l-.501-.5zM2 6h2.643a23.828 23.828 0 0 0-2.225 2.71L2 8.294V6zm5.7 8l-.42-.423a23.59 23.59 0 0 0 2.715-2.216V14H7.7zm-1.143-1.144L3.136 9.437C4.128 8 8.379 2.355 13.978 2.016c-.326 5.612-5.987 9.853-7.421 10.84zM4 15v-1H2v-2H1v3h3zm6.748-7.667a1.5 1.5 0 1 0-2.496-1.666 1.5 1.5 0 0 0 2.495 1.666z"></path></svg>