<svg stroke="currentColor" fill="currentColor" stroke-width="0" viewBox="0 0 16 16" height="1em" width="1em" xmlns="http://www.w3.org/2000/svg"><path fill-rule="evenodd" clip-rule="evenodd" d="M5.468 3.687l-.757-.706a6 6 0 0 1 9.285 4.799L15.19 6.6l.75.76-2.09 2.07-.76-.01L11 7.31l.76-.76 1.236 1.25a5 5 0 0 0-7.528-4.113zm4.55 8.889l.784.73a6 6 0 0 1-8.796-5.04L.78 9.5 0 8.73l2.09-2.07.76.01 2.09 2.12-.76.76-1.167-1.18a5 5 0 0 0 7.005 4.206z"></path><path d="M1.123 2.949l.682-.732L13.72 13.328l-.682.732z"></path></svg>