<svg xmlns="http://www.w3.org/2000/svg" viewBox="0 0 100 100"><path fill="#c7ede6" d="M87.215,56.71C88.35,54.555,89,52.105,89,49.5c0-6.621-4.159-12.257-10.001-14.478 C78.999,35.015,79,35.008,79,35c0-11.598-9.402-21-21-21c-9.784,0-17.981,6.701-20.313,15.757C36.211,29.272,34.638,29,33,29 c-7.692,0-14.023,5.793-14.89,13.252C12.906,43.353,9,47.969,9,53.5C9,59.851,14.149,65,20.5,65c0.177,0,0.352-0.012,0.526-0.022 C21.022,65.153,21,65.324,21,65.5C21,76.822,30.178,86,41.5,86c6.437,0,12.175-2.972,15.934-7.614C59.612,80.611,62.64,82,66,82 c4.65,0,8.674-2.65,10.666-6.518C77.718,75.817,78.837,76,80,76c6.075,0,11-4.925,11-11C91,61.689,89.53,58.727,87.215,56.71z"/><path fill="#fdfcef" d="M65.125,46.5c0,0-3.64,0-6.125,0s-4.5-2.015-4.5-4.5c0-2.333,1.782-4.229,4.055-4.455 C58.533,37.364,58.5,37.187,58.5,37c0-2.485,2.015-4.5,4.5-4.5c1.438,0,2.703,0.686,3.527,1.736 C66.667,31.6,68.829,29.5,71.5,29.5c2.761,0,5,2.239,5,5c0,0.446-0.077,0.87-0.187,1.282c0.642-0.777,1.6-1.282,2.687-1.282 c1.781,0,3.234,1.335,3.455,3.055C82.636,37.533,82.813,37.5,83,37.5c2.485,0,4.5,2.015,4.5,4.5s-2.015,4.5-4.5,4.5s-9.5,0-9.5,0 h-5.375V47h-3V46.5z"/><path fill="#472b29" d="M71.5,29c3.033,0,5.5,2.467,5.5,5.5c0,0.016,0,0.031,0,0.047C77.602,34.192,78.29,34,79,34 c1.831,0,3.411,1.261,3.858,3.005C82.905,37.002,82.952,37,83,37c2.757,0,5,2.243,5,5s-2.243,5-5,5H68.125 c-0.276,0-0.5-0.224-0.5-0.5s0.224-0.5,0.5-0.5H83c2.206,0,4-1.794,4-4s-1.794-4-4-4c-0.117,0-0.23,0.017-0.343,0.032 l-0.141,0.019c-0.021,0.003-0.041,0.004-0.062,0.004c-0.246,0-0.462-0.185-0.495-0.437C81.768,36.125,80.496,35,79,35 c-0.885,0-1.723,0.401-2.301,1.1c-0.098,0.118-0.241,0.182-0.386,0.182c-0.078,0-0.156-0.018-0.228-0.056 c-0.209-0.107-0.314-0.346-0.254-0.573C75.946,35.218,76,34.852,76,34.5c0-2.481-2.019-4.5-4.5-4.5 c-2.381,0-4.347,1.872-4.474,4.263c-0.011,0.208-0.15,0.387-0.349,0.45c-0.05,0.016-0.101,0.024-0.152,0.024 c-0.15,0-0.296-0.069-0.392-0.192C65.362,33.563,64.221,33,63,33c-2.206,0-4,1.794-4,4c0,0.117,0.017,0.23,0.032,0.343 l0.019,0.141c0.016,0.134-0.022,0.268-0.106,0.373c-0.084,0.105-0.207,0.172-0.34,0.185C56.549,38.247,55,39.949,55,42 c0,2.206,1.794,4,4,4h6.125c0.276,0,0.5,0.224,0.5,0.5s-0.224,0.5-0.5,0.5H59c-2.757,0-5-2.243-5-5 c0-2.397,1.689-4.413,4.003-4.877C58.001,37.082,58,37.041,58,37c0-2.757,2.243-5,5-5c1.176,0,2.293,0.416,3.183,1.164 C66.781,30.76,68.945,29,71.5,29L71.5,29z"/><path fill="#472b29" d="M73 36c1.403 0 2.609.999 2.913 2.341C76.28 38.119 76.699 38 77.125 38c1.202 0 2.198.897 2.353 2.068C79.681 40.022 79.874 40 80.063 40c1.529 0 2.811 1.2 2.918 2.732C82.99 42.87 82.886 42.99 82.749 43c-.006 0-.012 0-.018 0-.13 0-.24-.101-.249-.232-.089-1.271-1.151-2.268-2.419-2.268-.229 0-.47.042-.738.127-.022.007-.045.01-.067.01-.055 0-.11-.02-.156-.054C79.038 40.537 79 40.455 79 40.375c0-1.034-.841-1.875-1.875-1.875-.447 0-.885.168-1.231.473-.047.041-.106.063-.165.063-.032 0-.063-.006-.093-.019-.088-.035-.148-.117-.155-.212C75.377 37.512 74.288 36.5 73 36.5c-.208 0-.425.034-.682.107-.023.007-.047.01-.07.01-.109 0-.207-.073-.239-.182-.038-.133.039-.271.172-.309C72.483 36.04 72.744 36 73 36L73 36zM59.117 37.5c1.326 0 2.508.897 2.874 2.182.038.133-.039.271-.172.309C61.795 39.997 61.772 40 61.75 40c-.109 0-.209-.072-.24-.182C61.205 38.748 60.221 38 59.117 38c-.117 0-.23.014-.342.029-.012.002-.023.003-.035.003-.121 0-.229-.092-.246-.217-.019-.137.077-.263.214-.281C58.842 37.516 58.978 37.5 59.117 37.5L59.117 37.5z"/><path fill="#fff" d="M26.405 37H16.5c-.276 0-.5-.224-.5-.5s.224-.5.5-.5h9.905c.276 0 .5.224.5.5S26.682 37 26.405 37zM29.5 37h-1c-.276 0-.5-.224-.5-.5s.224-.5.5-.5h1c.276 0 .5.224.5.5S29.777 37 29.5 37zM34.491 39H25.5c-.276 0-.5-.224-.5-.5s.224-.5.5-.5h8.991c.276 0 .5.224.5.5S34.767 39 34.491 39zM23.5 39h-1c-.276 0-.5-.224-.5-.5s.224-.5.5-.5h1c.276 0 .5.224.5.5S23.777 39 23.5 39zM20.5 39h-2c-.276 0-.5-.224-.5-.5s.224-.5.5-.5h2c.276 0 .5.224.5.5S20.777 39 20.5 39zM26.5 41h-2c-.276 0-.5-.224-.5-.5s.224-.5.5-.5h2c.276 0 .5.224.5.5S26.776 41 26.5 41zM29.5 32c-.177 0-.823 0-1 0-.276 0-.5.224-.5.5 0 .276.224.5.5.5.177 0 .823 0 1 0 .276 0 .5-.224.5-.5C30 32.224 29.776 32 29.5 32zM29.5 34c-.177 0-4.823 0-5 0-.276 0-.5.224-.5.5 0 .276.224.5.5.5.177 0 4.823 0 5 0 .276 0 .5-.224.5-.5C30 34.224 29.776 34 29.5 34zM34.5 36c-.177 0-2.823 0-3 0-.276 0-.5.224-.5.5 0 .276.224.5.5.5.177 0 2.823 0 3 0 .276 0 .5-.224.5-.5C35 36.224 34.776 36 34.5 36z"/><g><path fill="#fff" d="M85.5 59h-10c-.276 0-.5-.224-.5-.5s.224-.5.5-.5h10c.276 0 .5.224.5.5S85.776 59 85.5 59zM89.5 59h-2c-.276 0-.5-.224-.5-.5s.224-.5.5-.5h2c.276 0 .5.224.5.5S89.776 59 89.5 59zM94.5 61h-10c-.276 0-.5-.224-.5-.5s.224-.5.5-.5h10c.276 0 .5.224.5.5S94.777 61 94.5 61zM82.5 61h-1c-.276 0-.5-.224-.5-.5s.224-.5.5-.5h1c.276 0 .5.224.5.5S82.776 61 82.5 61zM79.375 61H77.5c-.276 0-.5-.224-.5-.5s.224-.5.5-.5h1.875c.276 0 .5.224.5.5S79.651 61 79.375 61zM88.5 57h-5c-.276 0-.5-.224-.5-.5s.224-.5.5-.5h5c.276 0 .5.224.5.5S88.777 57 88.5 57zM85.5 63h-2c-.276 0-.5-.224-.5-.5s.224-.5.5-.5h2c.276 0 .5.224.5.5S85.776 63 85.5 63z"/></g><g><path fill="#f15b6c" d="M28.955,67.3c-0.457,0-0.863-0.233-1.089-0.625c-0.221-0.383-0.22-0.84,0.001-1.223L48.913,29.14 c0.226-0.389,0.632-0.621,1.087-0.621s0.861,0.232,1.087,0.622l21.045,36.312c0.222,0.383,0.222,0.84,0.001,1.223 c-0.226,0.392-0.632,0.625-1.089,0.625H28.955z"/><path fill="#472b29" d="M50,29.218c0.121,0,0.344,0.035,0.481,0.273l21.045,36.312c0.132,0.227,0.057,0.425,0.001,0.522 c-0.059,0.103-0.2,0.274-0.482,0.274h-42.09c-0.282,0-0.423-0.172-0.482-0.274c-0.056-0.098-0.131-0.295,0.001-0.522 l21.045-36.312C49.656,29.254,49.879,29.218,50,29.218 M50,27.818c-0.659,0-1.317,0.324-1.693,0.971L27.262,65.101 C26.515,66.391,27.454,68,28.955,68h42.09c1.501,0,2.44-1.609,1.693-2.899L51.693,28.789C51.317,28.142,50.659,27.818,50,27.818 L50,27.818z"/></g><g><path fill="#fef6aa" d="M66.242,63.591c-0.047,0.083-0.131,0.13-0.225,0.13H33.983c-0.094,0-0.178-0.047-0.225-0.13 c-0.047-0.078-0.047-0.177-0.005-0.261L49.77,35.016c0.094-0.162,0.367-0.162,0.461,0L66.248,63.33 C66.29,63.414,66.29,63.513,66.242,63.591z"/></g><g><path fill="#472b29" d="M66.017 63.882H33.983c-.276 0-.522-.142-.659-.38-.13-.215-.139-.493-.017-.733.125-.247.427-.344.672-.219.137.07.228.193.26.332h31.368l-8.9-15.535c-.137-.24-.054-.545.186-.683.239-.136.544-.054.683.186l9.107 15.897c.134.262.125.54-.012.766C66.54 63.74 66.293 63.882 66.017 63.882zM65.802 63.223h.01H65.802zM55.809 45.259c-.173 0-.342-.09-.435-.251l-1.427-2.493c-.137-.24-.054-.545.186-.683.241-.138.546-.054.683.186l1.427 2.493c.137.24.054.545-.186.683C55.978 45.238 55.893 45.259 55.809 45.259zM35.912 59.722c-.084 0-.169-.021-.248-.066-.24-.137-.323-.443-.186-.683l13.857-24.207c.272-.462 1.06-.457 1.326-.005l3.05 5.319c.138.239.055.545-.185.682-.239.138-.545.054-.682-.185L50 35.619 36.347 59.47C36.254 59.631 36.085 59.722 35.912 59.722z"/></g><g><path fill="#f15b6c" d="M50 56.7A1.754 1.754 0 1 0 50 60.208A1.754 1.754 0 1 0 50 56.7Z"/><path fill="#472b29" d="M50,60.458c-1.105,0-2.004-0.899-2.004-2.003s0.899-2.003,2.004-2.003 c1.104,0,2.003,0.899,2.003,2.003S51.104,60.458,50,60.458z M50,56.951c-0.829,0-1.504,0.674-1.504,1.503s0.675,1.503,1.504,1.503 s1.503-0.674,1.503-1.503S50.829,56.951,50,56.951z"/></g><g><path fill="#f15b6c" d="M48.835,43.543h2.328c0.329,0,0.593,0.247,0.584,0.547l-0.265,9.671 c-0.008,0.29-0.267,0.521-0.584,0.521H49.1c-0.317,0-0.576-0.231-0.584-0.521l-0.265-9.671 C48.243,43.79,48.507,43.543,48.835,43.543z"/><path fill="#472b29" d="M50.899,54.532H49.1c-0.457,0-0.823-0.335-0.834-0.764l-0.265-9.671 c-0.005-0.204,0.072-0.398,0.218-0.549c0.158-0.162,0.382-0.255,0.616-0.255h2.329c0.234,0,0.458,0.093,0.616,0.255 c0.146,0.15,0.224,0.346,0.218,0.549l-0.265,9.671C51.722,54.197,51.355,54.532,50.899,54.532z M48.835,43.793 c-0.1,0-0.194,0.038-0.258,0.104c-0.037,0.037-0.079,0.1-0.077,0.187l0.265,9.671c0.004,0.153,0.154,0.277,0.334,0.277h1.799 c0.18,0,0.331-0.125,0.334-0.277l0.265-9.671c0.002-0.087-0.04-0.149-0.077-0.187c-0.064-0.066-0.158-0.104-0.257-0.104H48.835z"/></g><g><path fill="#fdfcef" d="M33.5,73.5c0,0,1.567,0,3.5,0s3.5-1.567,3.5-3.5c0-1.781-1.335-3.234-3.055-3.455 C37.473,66.366,37.5,66.187,37.5,66c0-1.933-1.567-3.5-3.5-3.5c-1.032,0-1.95,0.455-2.59,1.165 c-0.384-1.808-1.987-3.165-3.91-3.165c-2.209,0-4,1.791-4,4c0,0.191,0.03,0.374,0.056,0.558C23.128,64.714,22.592,64.5,22,64.5 c-1.228,0-2.245,0.887-2.455,2.055C19.366,66.527,19.187,66.5,19,66.5c-1.933,0-3.5,1.567-3.5,3.5s1.567,3.5,3.5,3.5s7.5,0,7.5,0 V74h7V73.5z"/><path fill="#472b29" d="M35.25 69C35.112 69 35 68.888 35 68.75c0-1.223.995-2.218 2.218-2.218.034.009.737-.001 1.244.136.133.036.212.173.176.306-.036.134-.173.213-.306.176-.444-.12-1.1-.12-1.113-.118-.948 0-1.719.771-1.719 1.718C35.5 68.888 35.388 69 35.25 69zM28.5 73A.5.5 0 1 0 28.5 74 .5.5 0 1 0 28.5 73z"/><path fill="#472b29" d="M37,74h-3.5c-0.276,0-0.5-0.224-0.5-0.5s0.224-0.5,0.5-0.5H37c1.654,0,3-1.346,3-3 c0-1.496-1.125-2.768-2.618-2.959c-0.134-0.018-0.255-0.088-0.336-0.196s-0.115-0.244-0.094-0.377C36.975,66.314,37,66.16,37,66 c0-1.654-1.346-3-3-3c-0.85,0-1.638,0.355-2.219,1c-0.125,0.139-0.321,0.198-0.5,0.148c-0.182-0.049-0.321-0.195-0.36-0.379 C30.58,62.165,29.141,61,27.5,61c-1.93,0-3.5,1.57-3.5,3.5c0,0.143,0.021,0.28,0.041,0.418c0.029,0.203-0.063,0.438-0.242,0.54 c-0.179,0.102-0.396,0.118-0.556-0.01C22.878,65.155,22.449,65,22,65c-0.966,0-1.792,0.691-1.963,1.644 c-0.048,0.267-0.296,0.446-0.569,0.405C19.314,67.025,19.16,67,19,67c-1.654,0-3,1.346-3,3s1.346,3,3,3h7.5 c0.276,0,0.5,0.224,0.5,0.5S26.776,74,26.5,74H19c-2.206,0-4-1.794-4-4s1.794-4,4-4c0.059,0,0.116,0.002,0.174,0.006 C19.588,64.82,20.711,64,22,64c0.349,0,0.689,0.061,1.011,0.18C23.176,61.847,25.126,60,27.5,60c1.831,0,3.466,1.127,4.153,2.774 C32.333,62.276,33.155,62,34,62c2.206,0,4,1.794,4,4c0,0.048-0.001,0.095-0.004,0.142C39.739,66.59,41,68.169,41,70 C41,72.206,39.206,74,37,74z"/><path fill="#472b29" d="M31.5,73c-0.159,0-0.841,0-1,0c-0.276,0-0.5,0.224-0.5,0.5c0,0.276,0.224,0.5,0.5,0.5 c0.159,0,0.841,0,1,0c0.276,0,0.5-0.224,0.5-0.5C32,73.224,31.776,73,31.5,73z"/></g></svg>