<svg xmlns="http://www.w3.org/2000/svg" width="16" height="16" fill="currentColor" class="qi-1001" viewBox="0 0 16 16">
  <path d="M9.21 1.491c-3.757-.066-6.613 2.537-6.88 5.705-.292 3.494 2.107 4.947 2.428 5.232C2.853 12.4.585 10.28.204 8.296a.104.104 0 0 0-.1-.085.103.103 0 0 0-.103.114c.403 3.526 3.405 6.2 6.79 6.186 3.604-.016 6.518-2.147 6.89-5.646.35-3.295-2.108-5.008-2.424-5.292 2.023.02 4.162 2.15 4.54 4.133.008.048.05.084.098.085A.103.103 0 0 0 16 7.676c-.406-3.521-3.405-6.126-6.788-6.185ZM8 9.503A1.502 1.502 0 1 1 8 6.5a1.502 1.502 0 0 1 0 3.004Z"/>
</svg>