<svg xmlns="http://www.w3.org/2000/svg" width="16" height="16" fill="currentColor" class="qi-1002" viewBox="0 0 16 16">
  <path d="M2.653 4.48c-.105-.315-.105-.573.014-.791.53-.967 2.19-2.004 4.637-2.443 2.743-.492 4.582.057 5.1.746a.71.71 0 0 1 .033.837c.897-.528 1.158-1.081 1.014-1.58C13.166.246 10.41-.369 7.09.244c-3.417.632-5.456 2.22-5.362 3.229.031.337.38.804.925 1.006Z"/>
  <path d="M11.568 3.056c-.178-.621-1.676-1.49-3.99-1.047-2.362.452-3.348 1.804-3.29 2.43.02.208.237.498.575.624-.066-.196-.065-.356.01-.492.327-.6 1.358-1.244 2.877-1.516 1.704-.306 2.845.035 3.166.463a.44.44 0 0 1 .022.52c.556-.329.718-.672.63-.982Z"/>
  <path d="M15.583 1.905c.062.674-.27 1.59-1.036 2.482.365.215.778.548.828.978.11.964-.43 2.058-1.606 2.953.008.007.016.012.024.017a.15.15 0 0 1 .03.023 1.278 1.278 0 0 1 .34 1.041c-.058.378-.301.568-.598.8-.3.232-.654.508-.926 1.062-.097.198-.38.559-.564.729-.378.35-.722.4-1.007.44-.18.026-.336.049-.462.141-.294.216-.43.424-.553.612-.101.154-.193.294-.356.415a.915.915 0 0 1-.432.167c-.165.03-.326.06-.519.252-.073.073-.128.19-.188.317-.078.167-.165.351-.31.476-.103.089-.21.146-.306.197-.117.062-.216.115-.27.207-.093.16-.123.34-.147.487-.028.167-.048.292-.149.299-.106.007-.964-1.02-1.167-1.975-.045-.21-.102-.478-.018-.791.022-.085.049-.15.085-.238.031-.078.07-.175.12-.319l.016-.044a2.85 2.85 0 0 0 .134-.446c.034-.234-.267-.455-.457-.595a1.666 1.666 0 0 1-.12-.092c-.149-.138-1.019-.973-.964-1.71 0-.189.048-.376.139-.542-.958-.5-1.593-1.174-1.774-1.808a1.946 1.946 0 0 1-.05-.459C1.513 6.41.583 5.356.424 4.445c-.073-.427.173-.94.554-1.38 0 .001-.035.686.285 1.026.956 1.018 3.98 1.787 7.223 1.262 3.613-.585 5.97-2.628 5.763-3.967-.06-.39-.198-.651-.538-.972 0 0 1.784.537 1.873 1.491Zm-5.95 9.347c1.13-.1 2.536-.664 3.386-1.793.17-.241.273-.524.298-.818-.83.52-1.902.951-3.247 1.199-1.852.341-3.422.098-4.581-.408.03.104.077.201.142.287.54.625 1.978 1.714 4.002 1.533ZM4.122 7.37c1.124.775 3.08 1.268 5.706.85 2.927-.463 4.836-2.11 4.671-3.22a1.227 1.227 0 0 0-.15-.395c-1.082 1.143-2.899 2.206-5.571 2.61-2.004.302-3.616.223-4.876-.072.06.088.134.165.22.227Z"/>
</svg>