<svg xmlns="http://www.w3.org/2000/svg" width="16" height="16" fill="currentColor" class="qi-1015" viewBox="0 0 16 16">
  <path d="m1 9 1 1.5L1 13l-1-2.5L1 9Zm15 1.5L15 9l-1 1.5 1 2.5 1-2.5ZM4.5 11l1 1.5-1 2.5-1-2.5 1-1.5Zm8 1.5-1-1.5-1 1.5 1 2.5 1-2.5Zm-3.5 1L8 12l-1 1.5L8 16l1-2.5ZM7.9 10a4.99 4.99 0 0 0 3.827-1.783 3 3 0 1 0 .553-5.63A4.999 4.999 0 0 0 7.9 0a4.998 4.998 0 0 0-4.359 2.549 3 3 0 1 0 .586 5.732A4.988 4.988 0 0 0 7.9 10Zm-.791-6.398c-.057-.362.17-.8.496-.997.256-.153.551-.133.806.023l.07.042a.846.846 0 0 1 .409.853L8.532 5.8H7.454L7.11 3.602ZM8.599 6.9a.6.6 0 1 1-1.2 0 .6.6 0 0 1 1.2 0Z"/>
</svg>