<svg xmlns="http://www.w3.org/2000/svg" width="16" height="16" fill="currentColor" class="qi-1021" viewBox="0 0 16 16">
  <path d="M16 4 6.5 9l3.5 3-6 4h9l2.5-5L11 9l5-3V4Zm-1.45 1.878-.1-.173.5-.291.1.172-.5.292Zm-2 1.167-.1-.173 1-.583.1.172-1 .584Zm-2 1.166-.1-.172 1-.584.1.173-1 .583Zm-1 .584-.376.22.265.22-.128.154-.485-.403.624-.364.1.173Zm1.389 1.69-.128.154-.75-.625.128-.153.75.625Zm1.196.998-.366.513-.163-.117.259-.362-.304-.253.128-.153.446.372Zm-1.616 2.263-.163-.117.625-.875.163.117-.625.875Zm-.938 1.312-.162-.116.312-.438.163.117-.313.437ZM3.535 2.467a.467.467 0 0 1 .933 0v.725l.628-.363a.467.467 0 1 1 .467.808L4.935 4l.628.363a.467.467 0 0 1-.467.808l-.628-.363v.725a.467.467 0 1 1-.933 0v-.725l-.628.363a.467.467 0 0 1-.467-.808L3.068 4l-.628-.363a.467.467 0 1 1 .467-.808l.628.363v-.725Z"/>
  <path d="M7.324 1.872 4.175.048a.347.347 0 0 0-.35 0L.675 1.872a.352.352 0 0 0-.175.304v3.648c0 .126.067.242.175.305l3.15 1.824a.344.344 0 0 0 .35 0l3.149-1.824a.351.351 0 0 0 .176-.305V2.176a.353.353 0 0 0-.176-.304Zm-.526 3.75L4 7.241l-2.798-1.62V2.38L4 .758 6.798 2.38v3.242Z"/>
</svg>