<svg xmlns="http://www.w3.org/2000/svg" width="16" height="16" fill="currentColor" class="qi-1027" viewBox="0 0 16 16">
  <path d="M7.07 4.933a.933.933 0 0 1 1.866 0v1.45l1.256-.725a.933.933 0 1 1 .933 1.617L9.87 8l1.256.725a.933.933 0 1 1-.933 1.617l-1.256-.725v1.45a.933.933 0 0 1-1.867 0v-1.45l-1.256.725a.933.933 0 1 1-.933-1.617L6.136 8 4.88 7.275a.933.933 0 0 1 .933-1.617l1.256.725v-1.45Z"/>
  <path d="M14.649 3.743 8.35.095a.693.693 0 0 0-.701 0L1.351 3.743a.705.705 0 0 0-.351.61v7.295c0 .251.134.483.351.61l6.298 3.647a.688.688 0 0 0 .701 0l6.298-3.648a.702.702 0 0 0 .352-.609V4.352a.705.705 0 0 0-.351-.609Zm-1.052 7.5L8 14.483l-5.597-3.242V4.76L8 1.516l5.597 3.242v6.484Z"/>
</svg>