<svg xmlns="http://www.w3.org/2000/svg" width="16" height="16" fill="currentColor" class="qi-1029" viewBox="0 0 16 16">
  <path d="M10.649.631a2 2 0 0 0-3.275.533 1.5 1.5 0 0 0-2.098.84 1 1 0 0 0-1.028.665 1 1 0 1 0 .388 1.162.995.995 0 0 0 1.22-.084 1.493 1.493 0 0 0 1.388.148 1.5 1.5 0 0 0 2.362.793 2.5 2.5 0 0 0 4.149-.719A1.002 1.002 0 0 0 15 3a1 1 0 0 0-.674-.946 1 1 0 0 0-1.36-1.042 2.497 2.497 0 0 0-2.318-.381ZM2.234 6.096a.75.75 0 1 0 0-1.5.75.75 0 0 0 0 1.5ZM3 2a.5.5 0 1 0 0-1 .5.5 0 0 0 0 1Z"/>
  <path d="M5 1.5a.5.5 0 1 0 0-1 .5.5 0 0 0 0 1Zm-.5 4a.5.5 0 1 0 0-1 .5.5 0 0 0 0 1Zm-3 1h3v1h-3v-1ZM16 16H0v-1h1.034l.5-7h2.932l.5 7H16v1ZM3.963 15l-.143-2H2.18l-.143 2h1.926Zm-.214-3-.067-.933H2.318L2.251 12H3.75Zm-.138-1.933L3.534 9H2.466l-.077 1.067h1.222Z"/>
  <path d="M10.773 7.63a.263.263 0 0 1 .454 0l3.738 6.482a.26.26 0 0 1-.227.388H7.262a.26.26 0 0 1-.227-.388l3.738-6.481ZM11 9.25c-.367 0-.655.242-.623.524l.282 2.476h.682l.282-2.476c.032-.282-.256-.524-.623-.524Zm.004 4.5a.5.5 0 1 0 0-1 .5.5 0 0 0 0 1Z"/>
</svg>