<svg xmlns="http://www.w3.org/2000/svg" width="16" height="16" fill="currentColor" class="qi-1033" viewBox="0 0 16 16">
  <path d="M7.9 10a4.99 4.99 0 0 0 3.827-1.783 3 3 0 1 0 .553-5.63A4.999 4.999 0 0 0 7.9 0a4.998 4.998 0 0 0-4.359 2.549 3 3 0 1 0 .586 5.732A4.988 4.988 0 0 0 7.9 10Zm-.791-6.398c-.057-.362.17-.8.496-.997.256-.153.551-.133.806.023l.07.042a.846.846 0 0 1 .409.853L8.532 5.8H7.454L7.11 3.602ZM8.599 6.9a.6.6 0 1 1-1.2 0 .6.6 0 0 1 1.2 0ZM1.501 10a.35.35 0 0 0-.35.35v.544l-.47-.272a.35.35 0 1 0-.35.606l.47.272-.47.272a.35.35 0 1 0 .35.606l.47-.272v.544a.35.35 0 1 0 .7 0v-.544l.471.272a.35.35 0 1 0 .35-.606L2.2 11.5l.47-.272a.35.35 0 1 0-.349-.606l-.471.272v-.544A.35.35 0 0 0 1.5 10Zm4 2a.35.35 0 0 0-.35.35v.544l-.47-.272a.35.35 0 1 0-.35.606l.47.272-.47.272a.35.35 0 1 0 .35.606l.47-.272v.544a.35.35 0 1 0 .7 0v-.544l.471.272a.35.35 0 1 0 .35-.606L6.2 13.5l.471-.272a.35.35 0 1 0-.35-.606l-.471.272v-.544A.35.35 0 0 0 5.5 12Zm4.65.35a.35.35 0 1 1 .7 0v.544l.47-.272a.35.35 0 1 1 .35.606l-.47.272.47.272a.35.35 0 1 1-.35.606l-.47-.272v.544a.35.35 0 1 1-.7 0v-.544l-.47.272a.35.35 0 1 1-.35-.606l.47-.272-.47-.272a.35.35 0 1 1 .35-.606l.47.272v-.544Zm4.35-2.35a.35.35 0 0 0-.35.35v.544l-.47-.272a.35.35 0 1 0-.35.606l.47.272-.47.272a.35.35 0 1 0 .35.606l.47-.272v.544a.35.35 0 1 0 .7 0v-.544l.47.272a.35.35 0 1 0 .35-.606l-.47-.272.47-.272a.35.35 0 1 0-.35-.606l-.47.272v-.544a.35.35 0 0 0-.35-.35Z"/>
</svg>