<svg xmlns="http://www.w3.org/2000/svg" width="16" height="16" fill="currentColor" class="qi-104-fill" viewBox="0 0 16 16">
  <path d="M11.727 14.217A4.99 4.99 0 0 1 7.9 16a4.988 4.988 0 0 1-3.773-1.719 3 3 0 1 1-.586-5.732A4.998 4.998 0 0 1 7.9 6a4.999 4.999 0 0 1 4.38 2.587 3 3 0 1 1-.553 5.63Z"/>
  <path d="M4.008 6.637a1.545 1.545 0 0 1 1.54-1.467.913.913 0 0 1 .108.012l.084.012a1 1 0 0 0 .961-.445 2.74 2.74 0 0 1 4.598 0 1 1 0 0 0 .961.445l.084-.012a.916.916 0 0 1 .108-.012 1.524 1.524 0 0 1 1.455 2.048c.312.135.602.316.86.538A2.484 2.484 0 0 0 12.136 4.2a3.74 3.74 0 0 0-6.27 0 2.506 2.506 0 0 0-.317-.032A2.548 2.548 0 0 0 3 6.717c.005.174.028.347.069.517.238-.3.569-.51.94-.597h-.001Z"/>
</svg>