<svg xmlns="http://www.w3.org/2000/svg" width="16" height="16" fill="currentColor" class="qi-104" viewBox="0 0 16 16">
  <path d="M7.9 16c1.453 0 2.761-.62 3.675-1.61a.335.335 0 0 1 .365-.083 3 3 0 1 0 .566-5.767.335.335 0 0 1-.341-.152A4.997 4.997 0 0 0 7.9 6a4.997 4.997 0 0 0-4.25 2.365.334.334 0 0 1-.32.153 3 3 0 1 0 .596 5.836.334.334 0 0 1 .345.086A4.99 4.99 0 0 0 7.9 16Zm3.905-2.896c-.172-.128-.438-.097-.555.083A3.996 3.996 0 0 1 7.9 15a3.996 3.996 0 0 1-3.297-1.734c-.112-.163-.347-.197-.513-.089a2 2 0 1 1-.362-3.54c.184.072.408-.01.485-.192a4.001 4.001 0 0 1 7.398.059c.08.2.335.282.53.19a2 2 0 1 1-.335 3.41Z"/>
  <path d="M4.008 6.637a1.545 1.545 0 0 1 1.54-1.467.913.913 0 0 1 .108.012l.084.012a1 1 0 0 0 .961-.445 2.74 2.74 0 0 1 4.598 0 1 1 0 0 0 .961.445l.084-.012a.916.916 0 0 1 .108-.012 1.524 1.524 0 0 1 1.455 2.048c.312.135.602.316.86.538A2.484 2.484 0 0 0 12.136 4.2a3.74 3.74 0 0 0-6.27 0 2.506 2.506 0 0 0-.317-.032A2.548 2.548 0 0 0 3 6.717c.005.174.028.347.069.517.238-.3.569-.51.94-.597h-.001Z"/>
</svg>