<svg xmlns="http://www.w3.org/2000/svg" width="16" height="16" fill="currentColor" class="qi-1045" viewBox="0 0 16 16">
  <path d="M3.25 5.121c.055-.203.306-.25.455-.102L5.116 6.43a.8.8 0 0 0 1.132 0l.282-.282a.8.8 0 0 0 0-1.132L5.12 3.605c-.149-.149-.101-.4.102-.454a2.799 2.799 0 0 1 3.531 2.79.284.284 0 0 1-.085.191l-.51.51 3.974 3.974a.8.8 0 0 1 0 1.132l-.283.283a.8.8 0 0 1-1.132 0L6.744 8.057l-.51.51a.284.284 0 0 1-.192.085 2.799 2.799 0 0 1-2.79-3.531Z"/>
  <path d="M16 8A8 8 0 1 1 0 8a8 8 0 0 1 16 0Zm-1.3 0a6.67 6.67 0 0 0-1.352-4.037l-9.385 9.385A6.7 6.7 0 0 0 14.7 8Zm-2.385-5.126a6.7 6.7 0 0 0-9.44 9.44l9.44-9.44Z"/>
</svg>