<svg xmlns="http://www.w3.org/2000/svg" width="16" height="16" fill="currentColor" class="qi-1052" viewBox="0 0 16 16">
  <path d="M.777 11.644a.5.5 0 1 0-.554.832l1.017.678a1.5 1.5 0 0 0 1.503.094l1.033-.517a.5.5 0 0 1 .448 0l1.105.553a1.5 1.5 0 0 0 1.342 0l1.105-.553a.5.5 0 0 1 .448 0l1.105.553a1.5 1.5 0 0 0 1.342 0l1.105-.553a.5.5 0 0 1 .448 0l1.033.517a1.5 1.5 0 0 0 1.503-.094l1.017-.678a.5.5 0 1 0-.554-.832l-1.017.678a.5.5 0 0 1-.501.031l-1.034-.517a1.5 1.5 0 0 0-1.342 0l-1.105.553a.5.5 0 0 1-.448 0l-1.105-.553a1.5 1.5 0 0 0-1.342 0l-1.105.553a.5.5 0 0 1-.448 0l-1.105-.553a1.5 1.5 0 0 0-1.342 0l-1.034.517a.5.5 0 0 1-.5-.03l-1.018-.679Zm0 2.5a.5.5 0 1 0-.554.832l1.017.678a1.5 1.5 0 0 0 1.503.094l1.033-.517a.5.5 0 0 1 .448 0l1.105.553a1.5 1.5 0 0 0 1.342 0l1.105-.553a.5.5 0 0 1 .448 0l1.105.553a1.5 1.5 0 0 0 1.342 0l1.105-.553a.5.5 0 0 1 .448 0l1.033.517a1.5 1.5 0 0 0 1.503-.094l1.017-.678a.5.5 0 1 0-.554-.832l-1.017.678a.5.5 0 0 1-.501.031l-1.034-.517a1.5 1.5 0 0 0-1.342 0l-1.105.553a.5.5 0 0 1-.448 0l-1.105-.553a1.5 1.5 0 0 0-1.342 0l-1.105.553a.5.5 0 0 1-.448 0l-1.105-.553a1.5 1.5 0 0 0-1.342 0l-1.034.517a.5.5 0 0 1-.5-.03l-1.018-.679Zm7.618-6.111c-.024.043.011.093.065.093h1.468c.06 0 .094.065.055.107l-2.978 3.243c-.052.055-.151.006-.124-.063L7.62 9.47c.015-.043-.019-.087-.069-.087h-1.42c-.096 0-.16-.09-.118-.17L7.41 6.578a.159.159 0 0 1 .058-.057.147.147 0 0 1 .076-.02h1.578c.054 0 .089.051.065.094l-.792 1.439ZM3.293 9.707A1 1 0 0 1 3 9c0-.5.555-1.395 1-2 .445.605 1 1.5 1 2a1 1 0 0 1-1.707.707Zm8 0A1 1 0 0 1 11 9c0-.5.555-1.395 1-2 .445.605 1 1.5 1 2a1 1 0 0 1-1.707.707Zm-1.156-4.602A2.99 2.99 0 0 1 8 6a2.99 2.99 0 0 1-2.138-.895 2 2 0 1 1-.375-3.745A2.997 2.997 0 0 1 8 0c1.052 0 1.977.541 2.512 1.36A2.004 2.004 0 0 1 13 3.3a2 2 0 0 1-2.863 1.805Zm-2.85-3.224.277 1.759h.862l.286-1.822a.677.677 0 0 0-.327-.682l-.056-.034a.607.607 0 0 0-.645-.018c-.26.157-.443.508-.397.797ZM8.48 4.52a.48.48 0 1 0-.96 0 .48.48 0 0 0 .96 0Z"/>
</svg>