<svg xmlns="http://www.w3.org/2000/svg" width="16" height="16" fill="currentColor" class="qi-1055" viewBox="0 0 16 16">
  <path d="M8.924 0C6.038-.05 3.844 1.95 3.64 4.383c-.225 2.684 1.618 3.8 1.865 4.02-1.464-.023-3.206-1.65-3.499-3.175a.08.08 0 0 0-.076-.066.079.079 0 0 0-.08.088c.31 2.707 2.616 4.762 5.215 4.75 2.769-.012 5.007-1.65 5.293-4.336.269-2.531-1.62-3.846-1.862-4.065 1.554.015 3.197 1.652 3.487 3.174a.08.08 0 0 0 .076.066.079.079 0 0 0 .076-.055c.004-.01.005-.022.004-.033-.312-2.704-2.616-4.705-5.215-4.75Zm-.93 6.155a1.154 1.154 0 1 1 0-2.308 1.154 1.154 0 0 1 0 2.308ZM.777 11.644a.5.5 0 1 0-.554.832l1.017.678a1.5 1.5 0 0 0 1.503.094l1.033-.517a.5.5 0 0 1 .448 0l1.105.553a1.5 1.5 0 0 0 1.342 0l1.105-.553a.5.5 0 0 1 .448 0l1.105.553a1.5 1.5 0 0 0 1.342 0l1.105-.553a.5.5 0 0 1 .448 0l1.033.517a1.5 1.5 0 0 0 1.503-.094l1.017-.678a.5.5 0 1 0-.554-.832l-1.017.678a.5.5 0 0 1-.501.031l-1.034-.517a1.5 1.5 0 0 0-1.342 0l-1.105.553a.5.5 0 0 1-.448 0l-1.105-.553a1.5 1.5 0 0 0-1.342 0l-1.105.553a.5.5 0 0 1-.448 0l-1.105-.553a1.5 1.5 0 0 0-1.342 0l-1.034.517a.5.5 0 0 1-.5-.03l-1.018-.679Zm0 2.5a.5.5 0 1 0-.554.832l1.017.678a1.5 1.5 0 0 0 1.503.094l1.033-.517a.5.5 0 0 1 .448 0l1.105.553a1.5 1.5 0 0 0 1.342 0l1.105-.553a.5.5 0 0 1 .448 0l1.105.553a1.5 1.5 0 0 0 1.342 0l1.105-.553a.5.5 0 0 1 .448 0l1.033.517a1.5 1.5 0 0 0 1.503-.094l1.017-.678a.5.5 0 1 0-.554-.832l-1.017.678a.5.5 0 0 1-.501.031l-1.034-.517a1.5 1.5 0 0 0-1.342 0l-1.105.553a.5.5 0 0 1-.448 0l-1.105-.553a1.5 1.5 0 0 0-1.342 0l-1.105.553a.5.5 0 0 1-.448 0l-1.105-.553a1.5 1.5 0 0 0-1.342 0l-1.034.517a.5.5 0 0 1-.5-.03l-1.018-.679Z"/>
</svg>