<svg xmlns="http://www.w3.org/2000/svg" width="16" height="16" fill="currentColor" class="qi-1057" viewBox="0 0 16 16">
  <path d="m10.591 8.276-3.254.264c-.364.03-.717.13-1.043.297l-1.266.65-.868-2.415c1.095-.75 1.94-1.436 2.276-2.545a.409.409 0 0 0-.424-.525.397.397 0 0 0-.348.286c-.307 1.009-1.179 1.593-2.498 2.475l-.017.011c-.448.3-.937.627-1.457 1.01C-.146 9.134-.137 10.97.126 11.75a.405.405 0 0 0 .51.256.406.406 0 0 0 .256-.514C.871 11.427.418 9.94 1.904 8.655l1.329 2.385c.221.395.603.674 1.044.762l2.01.404c.368.074.7.272.94.56l1.746 2.098a.378.378 0 0 0 .38.125l.024-.006a.378.378 0 0 0 .289-.381.384.384 0 0 0-.043-.167l-1.603-3.11a1.113 1.113 0 0 0-.685-.56l-.662-.186.252-.211a2.74 2.74 0 0 1 .998-.53l2.803-.813a.38.38 0 0 0 .268-.436.383.383 0 0 0-.403-.313Z"/>
  <path d="M7.052 14.708c-2.037-.36-3.766-1.441-5.352-2.68a.13.13 0 0 0-.18.02l-.488.59a.137.137 0 0 0-.03.108.139.139 0 0 0 .059.095c1.733 1.14 3.816 1.709 5.985 1.91l.006-.043Zm-4.284-.452a.13.13 0 0 0-.094-.003.133.133 0 0 0-.072.062l-.254.462a.139.139 0 0 0 .078.197A23.178 23.178 0 0 0 9 16l-.002-.057c-1.967-.106-4.174-.814-6.23-1.687Zm-.796-7.492a1 1 0 1 0 0-2 1 1 0 0 0 0 2Zm9.563-4.297a.467.467 0 0 1 .933 0v.725l.628-.363a.467.467 0 0 1 .467.808L12.935 4l.628.363a.467.467 0 0 1-.467.808l-.628-.363v.725a.467.467 0 1 1-.933 0v-.725l-.628.363a.467.467 0 1 1-.467-.808L11.068 4l-.628-.363a.467.467 0 0 1 .467-.808l.628.363v-.725Z"/>
  <path d="M15.325 1.872 12.175.048a.346.346 0 0 0-.35 0l-3.15 1.824a.353.353 0 0 0-.175.304v3.648c0 .126.067.242.175.305l3.15 1.824a.344.344 0 0 0 .35 0l3.149-1.824a.351.351 0 0 0 .176-.305V2.176a.353.353 0 0 0-.175-.304Zm-.526 3.75L12 7.241l-2.799-1.62V2.38L12 .758l2.799 1.621v3.242Z"/>
</svg>