<svg xmlns="http://www.w3.org/2000/svg" width="16" height="16" fill="currentColor" class="qi-1061" viewBox="0 0 16 16">
  <path d="M15.197 14.54.808 14.5H.806a.844.844 0 0 0-.568.212.703.703 0 0 0-.238.516c0 .096.02.192.061.28.04.09.1.17.174.238a.81.81 0 0 0 .261.159.869.869 0 0 0 .307.055l14.389.04h.002a.844.844 0 0 0 .568-.212.703.703 0 0 0 .238-.516.677.677 0 0 0-.061-.28.733.733 0 0 0-.174-.238.81.81 0 0 0-.261-.159.868.868 0 0 0-.307-.055ZM3 2a1 1 0 1 0 0-2 1 1 0 0 0 0 2Zm3.5 9a1.5 1.5 0 1 0 0-3 1.5 1.5 0 0 0 0 3Z"/>
  <path d="m5.725 14.514-3.455-.01a2 2 0 1 1 3.455.01ZM10.5 13a1.5 1.5 0 1 0 0-3 1.5 1.5 0 0 0 0 3ZM7 4.5a1.5 1.5 0 1 1-3 0 1.5 1.5 0 0 1 3 0ZM9.5 4a1.5 1.5 0 1 0 0-3 1.5 1.5 0 0 0 0 3ZM15 8a2 2 0 1 1-4 0 2 2 0 0 1 4 0Z"/>
</svg>