<svg xmlns="http://www.w3.org/2000/svg" width="16" height="16" fill="currentColor" class="qi-1068" viewBox="0 0 16 16">
  <path d="M11.878 6.506c.122.405.184.903.184 1.494 0 .59-.062 1.09-.184 1.498-.12.406-.289.714-.503.924a1.036 1.036 0 0 1-1.485 0c-.214-.21-.383-.518-.505-.924-.121-.408-.181-.907-.181-1.498 0-.59.06-1.089.18-1.494.123-.408.292-.716.506-.924a1.03 1.03 0 0 1 1.485 0c.214.208.382.516.503.924Z"/>
  <path d="M11 16a3 3 0 0 0 2.99-2.755A2.993 2.993 0 0 0 15 11c0-.535-.14-1.037-.385-1.471a2.998 2.998 0 0 0 .304-4.835 3 3 0 0 0-2.674-3.684A2.993 2.993 0 0 0 10 0c-.768 0-1.47.289-2 .764A2.989 2.989 0 0 0 6 0c-.893 0-1.695.39-2.245 1.01a3 3 0 0 0-2.674 3.684 2.998 2.998 0 0 0 .304 4.834A2.986 2.986 0 0 0 1 11c0 .893.39 1.695 1.01 2.245a3 3 0 0 0 4.49 2.354c.441.255.954.401 1.5.401s1.059-.146 1.5-.401c.441.255.954.401 1.5.401ZM6.6 6.734a2.404 2.404 0 0 0-.148-.62 1.648 1.648 0 0 0-.27-.464 1.063 1.063 0 0 0-.807-.384c-.28 0-.528.107-.745.32-.216.21-.385.52-.508.927C4 6.92 3.938 7.414 3.938 8c0 .596.062 1.098.184 1.506.124.405.294.712.508.92a1.048 1.048 0 0 0 1.54-.061c.109-.122.2-.271.274-.449a2.27 2.27 0 0 0 .156-.608l.941.008a4.18 4.18 0 0 1-.229 1.041 3.19 3.19 0 0 1-.455.86 2.12 2.12 0 0 1-.66.578c-.25.137-.53.205-.837.205-.453 0-.857-.158-1.213-.475-.355-.317-.635-.775-.84-1.373C3.102 9.554 3 8.836 3 8c0-.839.103-1.556.31-2.152.206-.598.487-1.056.842-1.373A1.766 1.766 0 0 1 5.36 4c.287 0 .553.06.8.183.247.121.466.3.66.536.192.233.35.52.475.859.125.337.208.722.246 1.156h-.94Zm6.088 3.422c-.206.596-.488 1.052-.845 1.369a1.779 1.779 0 0 1-2.423 0c-.356-.32-.637-.777-.845-1.373-.207-.598-.31-1.316-.31-2.152 0-.839.103-1.556.31-2.152.208-.598.49-1.056.845-1.373a1.779 1.779 0 0 1 2.423 0c.357.317.639.775.845 1.373C12.896 6.444 13 7.16 13 8c0 .839-.104 1.558-.312 2.156Z"/>
</svg>