<svg xmlns="http://www.w3.org/2000/svg" width="16" height="16" fill="currentColor" class="qi-1071" viewBox="0 0 16 16">
  <path d="M8.029 1.547c0-.427.327-.797.76-.797.435 0 .762.37.762.797V2.1c0 1.038-.793 1.904-1.801 1.904H4.63c-.14 0-.278.126-.278.312s.138.312.279.312h6.238c1.008 0 1.801.866 1.801 1.905 0 1.038-.793 1.904-1.8 1.904H2.55c-.14 0-.278.126-.278.312s.138.312.278.312h10.4c1.008 0 1.801.866 1.801 1.904 0 1.039-.793 1.905-1.801 1.905H4.63c-.14 0-.279.126-.279.312s.138.312.279.312h2.08c1.007 0 1.8.866 1.8 1.904v.555c0 .426-.327.796-.761.796s-.761-.37-.761-.796v-.555c0-.186-.138-.311-.279-.311H4.63c-1.007 0-1.8-.867-1.8-1.905s.793-1.905 1.8-1.905h8.319c.14 0 .278-.126.278-.312 0-.185-.138-.311-.278-.311H2.55c-1.007.001-1.8-.866-1.8-1.904s.793-1.905 1.801-1.905h8.318c.14 0 .279-.126.279-.311 0-.186-.138-.312-.279-.312H4.631c-1.008 0-1.801-.867-1.801-1.905s.793-1.905 1.8-1.905h3.12c.14 0 .279-.125.279-.311v-.554Zm.76-.312c-.14 0-.278.126-.278.312V2.1c0 .426-.327.796-.761.796H4.63c-.714 0-1.318.622-1.318 1.42 0 .798.604 1.42 1.319 1.42h6.238c.434 0 .762.37.762.797 0 .426-.328.796-.762.796H2.551c-.715 0-1.318.622-1.318 1.42 0 .798.603 1.42 1.318 1.42H12.95c.434 0 .761.37.761.796 0 .427-.327.797-.761.797H4.63c-.715 0-1.319.622-1.319 1.42 0 .798.604 1.42 1.319 1.42h2.08c.433 0 .76.37.76.796v.555c0 .185.138.311.279.311.14 0 .279-.126.279-.312V15.4c0-.798-.604-1.42-1.319-1.42H4.63c-.433 0-.76-.37-.76-.796 0-.426.327-.797.76-.797h8.319c.715 0 1.318-.622 1.318-1.42 0-.797-.603-1.42-1.318-1.42H2.55c-.434 0-.761-.37-.761-.796 0-.426.327-.797.761-.797h8.318c.715 0 1.319-.621 1.319-1.42 0-.797-.604-1.42-1.319-1.42H4.631c-.434 0-.762-.37-.762-.796 0-.426.328-.796.762-.796H7.75c.715 0 1.318-.622 1.318-1.42v-.554c0-.186-.138-.312-.278-.312ZM14.5 6a2.5 2.5 0 1 0 0-5 2.5 2.5 0 0 0 0 5Zm-.39-3.579c-.02-.176.16-.327.39-.327s.41.151.39.327l-.177 1.548h-.426L14.11 2.42Zm.705 2.173a.312.312 0 1 1-.625 0 .312.312 0 0 1 .625 0Z"/>
</svg>