<svg xmlns="http://www.w3.org/2000/svg" width="16" height="16" fill="currentColor" class="qi-1101" viewBox="0 0 16 16">
  <path d="M10.282 1.326a.491.491 0 0 0-.587-.125L2.303 4.72c-.438.209-.368.863.102.963l1.466.311-1.462 6.88c.857.12 1.663.15 2.758.127.15-.003.295-.01.435-.02l.614-2.89a.5.5 0 0 1 .593-.386l2.935.624a.5.5 0 0 1 .385.593l-.246 1.155c.292-.037.6-.062.931-.069.76-.016 1.39-.006 1.994.039l.845-3.974 1.466.312c.47.1.8-.47.485-.837l-5.322-6.22Z"/>
  <path d="M10.833 13c1.809-.038 2.828.07 4.594.485a.47.47 0 0 0 .562-.377.497.497 0 0 0-.357-.593c-1.84-.432-2.934-.548-4.818-.508-1.174.025-2.072.274-2.922.51l-.012.003c-.852.236-1.657.458-2.713.48-1.809.038-2.828-.07-4.594-.485a.47.47 0 0 0-.562.377.497.497 0 0 0 .357.593c1.84.432 2.934.548 4.818.508 1.174-.025 2.072-.274 2.922-.51l.012-.003c.852-.236 1.657-.458 2.713-.48Zm0 2c1.809-.038 2.828.07 4.594.485a.47.47 0 0 0 .562-.377.497.497 0 0 0-.357-.593c-1.84-.432-2.934-.548-4.818-.508-1.174.025-2.072.274-2.922.51l-.012.003c-.852.236-1.657.458-2.713.48-1.809.038-2.828-.07-4.594-.485a.47.47 0 0 0-.562.377.497.497 0 0 0 .357.593c1.84.432 2.934.547 4.818.508 1.174-.025 2.072-.274 2.922-.51l.012-.003c.852-.236 1.657-.458 2.713-.48Z"/>
</svg>