<svg xmlns="http://www.w3.org/2000/svg" width="16" height="16" fill="currentColor" class="qi-150-fill" viewBox="0 0 16 16">
  <path stroke="#000" d="M5.057.679c-.619 2.691-.61 5.866 1.581 8.166 2.159 2.265 5.852 3.055 8.674 2.607a.19.19 0 0 1 .173.057.071.071 0 0 1 .015.025 7.933 7.933 0 0 1-1.463 1.82c-3.236 2.994-8.324 2.836-11.362-.352a7.823 7.823 0 0 1 .357-11.175A8.038 8.038 0 0 1 4.953.507.072.072 0 0 1 4.974.5h.006a.07.07 0 0 1 .032.02c.036.034.06.094.045.159ZM15.5 11.532v.002-.002Z"/>
</svg>