<svg xmlns="http://www.w3.org/2000/svg" width="16" height="16" fill="currentColor" class="qi-150" viewBox="0 0 16 16">
  <path d="M4.403 1.393c-.448 2.58-.261 5.558 1.873 7.797 2.09 2.192 5.477 3.06 8.284 2.851-.255.333-.543.65-.863.946-3.035 2.808-7.81 2.66-10.66-.33a7.323 7.323 0 0 1 .334-10.463 7.57 7.57 0 0 1 1.032-.801ZM5.544.79c.114-.494-.351-.958-.811-.732a8.538 8.538 0 0 0-2.04 1.401 8.323 8.323 0 0 0-.38 11.887c3.227 3.386 8.628 3.553 12.064.374a8.432 8.432 0 0 0 1.547-1.92c.258-.438-.183-.924-.69-.843-2.705.43-6.217-.342-8.234-2.458C4.983 6.384 4.939 3.424 5.544.79Z"/>
</svg>