<svg xmlns="http://www.w3.org/2000/svg" width="16" height="16" fill="currentColor" class="qi-151-fill" viewBox="0 0 16 16">
  <path d="M10.994 14.396A4.758 4.758 0 0 1 7.406 16a4.76 4.76 0 0 1-3.537-1.547 2.908 2.908 0 0 1-1.057.197C1.26 14.65 0 13.441 0 11.95s1.26-2.7 2.813-2.7c.173 0 .342.015.507.044C4.124 7.924 5.652 7 7.406 7c1.769 0 3.308.94 4.107 2.328a2.93 2.93 0 0 1 .675-.078c1.553 0 2.812 1.209 2.812 2.7s-1.26 2.7-2.813 2.7a2.9 2.9 0 0 1-1.193-.254Zm4.611-7.762a.412.412 0 0 0-.109.015 4.127 4.127 0 0 1-1.082.145 4.303 4.303 0 0 1-1.424-.248 4.276 4.276 0 0 1-2.725-5.086A.389.389 0 0 0 9.9.972a.374.374 0 0 0-.14.027A4.772 4.772 0 0 0 6.779 5.72c.007.12.038.233.055.35a5.29 5.29 0 0 1 .667-.045c.113 0 .224.012.336.02a3.558 3.558 0 0 1-.06-.384 3.782 3.782 0 0 1 1.357-3.138c.003.553.092 1.103.262 1.629A5.25 5.25 0 0 0 12.66 7.49c.563.2 1.156.302 1.754.304h.047a3.79 3.79 0 0 1-.886.771c.32.165.614.374.874.622a4.774 4.774 0 0 0 1.525-2.037.384.384 0 0 0-.37-.516h.001Z"/>
</svg>