<svg xmlns="http://www.w3.org/2000/svg" width="16" height="16" fill="currentColor" class="qi-151" viewBox="0 0 16 16">
  <path d="M7.406 16a4.766 4.766 0 0 0 3.446-1.449.323.323 0 0 1 .341-.075c.31.113.645.174.995.174 1.553 0 2.812-1.209 2.812-2.7s-1.26-2.7-2.813-2.7c-.157 0-.312.012-.463.037a.32.32 0 0 1-.32-.138C10.58 7.86 9.098 7 7.406 7c-1.682 0-3.157.85-3.984 2.128a.318.318 0 0 1-.3.138 2.962 2.962 0 0 0-.31-.016C1.26 9.25 0 10.459 0 11.95s1.26 2.7 2.813 2.7c.302 0 .594-.046.867-.131a.322.322 0 0 1 .324.077A4.768 4.768 0 0 0 7.406 16Zm3.661-2.607c-.161-.115-.41-.087-.52.075a3.788 3.788 0 0 1-3.14 1.632 3.792 3.792 0 0 1-3.091-1.56c-.106-.147-.326-.178-.482-.08a1.93 1.93 0 0 1-1.022.29c-1.035 0-1.874-.806-1.874-1.8s.839-1.8 1.875-1.8c.24 0 .47.043.682.123.173.065.383-.008.455-.172C4.52 8.806 5.852 7.9 7.406 7.9c1.575 0 2.924.932 3.48 2.254.075.18.314.254.496.17.244-.111.517-.174.806-.174 1.035 0 1.874.806 1.874 1.8s-.839 1.8-1.874 1.8c-.42 0-.808-.133-1.12-.357Zm4.538-6.759a.412.412 0 0 0-.109.015 4.127 4.127 0 0 1-1.082.145 4.303 4.303 0 0 1-1.424-.248 4.276 4.276 0 0 1-2.725-5.086A.389.389 0 0 0 9.9.972a.374.374 0 0 0-.14.027A4.772 4.772 0 0 0 6.779 5.72c.007.12.038.233.055.35a5.29 5.29 0 0 1 .667-.045c.113 0 .224.012.336.02a3.563 3.563 0 0 1-.06-.384 3.782 3.782 0 0 1 1.357-3.138c.003.553.092 1.103.262 1.629A5.25 5.25 0 0 0 12.66 7.49c.563.2 1.156.302 1.754.304h.047a3.79 3.79 0 0 1-.886.771c.32.165.614.374.874.622a4.774 4.774 0 0 0 1.525-2.037.384.384 0 0 0-.37-.516h.001Z"/>
</svg>