<svg xmlns="http://www.w3.org/2000/svg" width="16" height="16" fill="currentColor" class="qi-1605" viewBox="0 0 16 16">
  <path d="M8.455 1.261a.526.526 0 0 0-.91 0L.07 14.224c-.2.346.052.776.454.776h14.952c.402 0 .654-.43.454-.776L8.455 1.26Zm.698 7.331c-.065-.536.22-1.394 1.231-1.692-.048.867.155 1.351.341 1.793.143.338.274.652.275 1.094 0 1.713-1.308 2.963-2.965 2.963C6.378 12.75 5 11.501 5 9.787c0-.71.308-1.583.923-1.91 0 0 .11 1.178.692 1.67.012-.13.007-.31 0-.524-.03-1.08-.086-3.02 1.845-3.773-.08 1.453-.03 2.465.693 3.342Z"/>
</svg>