<svg xmlns="http://www.w3.org/2000/svg" width="16" height="16" fill="currentColor" class="qi-2009" viewBox="0 0 16 16">
  <path d="M0 5.375a.375.375 0 1 1 .75 0V7.25h6.5V5.375a.375.375 0 1 1 .75 0v2.25A.375.375 0 0 1 7.625 8H.375A.375.375 0 0 1 0 7.625v-2.25Z"/>
  <path d="M4.203.203a.203.203 0 0 0-.406 0v.525L3.534.466a.203.203 0 0 0-.287.287l.55.55v.745c-.295.05-.554.205-.737.426a.203.203 0 0 0-.014-.01l-.63-.363-.202-.752a.203.203 0 0 0-.392.106l.096.358-.455-.262a.203.203 0 0 0-.203.351l.455.263-.36.096a.203.203 0 1 0 .106.393l.751-.202.631.365.015.007a1.216 1.216 0 0 0 0 .852.21.21 0 0 0-.015.007l-.63.365-.752-.202a.203.203 0 1 0-.105.393l.359.096-.455.263a.203.203 0 0 0 .203.351l.455-.262-.096.358a.203.203 0 0 0 .392.106l.201-.752.631-.364a.205.205 0 0 0 .014-.009c.183.221.442.377.738.426l-.001.017v.728l-.55.55a.203.203 0 0 0 .287.287l.263-.262v.525a.203.203 0 0 0 .406 0v-.525l.263.262a.203.203 0 0 0 .287-.287l-.55-.55v-.745c.295-.05.554-.205.737-.426l.014.01.63.363.202.752a.203.203 0 0 0 .392-.106l-.096-.358.455.262a.203.203 0 0 0 .203-.351l-.455-.263.36-.096a.203.203 0 0 0-.106-.393l-.751.202-.63-.365a.205.205 0 0 0-.016-.007 1.216 1.216 0 0 0 0-.852.202.202 0 0 0 .015-.007l.63-.365.752.202a.203.203 0 1 0 .105-.393l-.359-.096.455-.263a.203.203 0 1 0-.203-.351l-.455.262.096-.358a.203.203 0 1 0-.392-.106l-.201.752-.631.364a.204.204 0 0 0-.014.009 1.218 1.218 0 0 0-.738-.426l.001-.017v-.728l.55-.55a.203.203 0 0 0-.287-.287l-.263.262V.203ZM16 4 6.5 9l3.5 3-6 4h9l2.5-5L11 9l5-3V4Zm-1.45 1.878-.1-.173.5-.291.1.172-.5.292Zm-2 1.167-.1-.173 1-.583.1.172-1 .584Zm-2 1.166-.1-.172 1-.584.1.173-1 .583Zm-1 .584-.376.22.265.22-.128.154-.485-.403.624-.364.1.173Zm1.389 1.69-.128.154-.75-.625.128-.153.75.625Zm1.196.998-.366.513-.163-.117.259-.362-.304-.253.128-.153.446.372Zm-1.616 2.263-.163-.117.625-.875.163.117-.625.875Zm-.938 1.312-.162-.116.312-.438.163.117-.313.437Z"/>
</svg>