<svg xmlns="http://www.w3.org/2000/svg" width="16" height="16" fill="currentColor" class="qi-2020" viewBox="0 0 16 16">
  <path d="M8.341.946a.395.395 0 0 0-.682 0l-5.607 9.722a.39.39 0 0 0 .341.582h11.214a.39.39 0 0 0 .34-.582L8.342.946ZM7.066 4.161c-.048-.422.384-.786.934-.786s.982.364.934.786l-.422 3.714H7.488l-.422-3.714Zm1.69 5.214a.75.75 0 1 1-1.5 0 .75.75 0 0 1 1.5 0ZM.293 14.707A1 1 0 0 1 0 14c0-.5.555-1.395 1-2 .445.605 1 1.5 1 2a1 1 0 0 1-1.707.707Zm5 1A1 1 0 0 1 5 15c0-.5.555-1.395 1-2 .445.605 1 1.5 1 2a1 1 0 0 1-1.707.707Zm4 0A1 1 0 0 1 9 15c0-.5.555-1.395 1-2 .445.605 1 1.5 1 2a1 1 0 0 1-1.707.707Zm5-1A1 1 0 0 1 14 14c0-.5.555-1.395 1-2 .445.605 1 1.5 1 2a1 1 0 0 1-1.707.707Z"/>
</svg>