<svg xmlns="http://www.w3.org/2000/svg" width="16" height="16" fill="currentColor" class="qi-2023" viewBox="0 0 16 16">
  <path d="M16 4 6.5 9l3.5 3-6 4h9l2.5-5L11 9l5-3V4Zm-1.45 1.878-.1-.173.5-.291.1.172-.5.292Zm-2 1.167-.1-.173 1-.583.1.172-1 .584Zm-2 1.166-.1-.172 1-.584.1.173-1 .583Zm-1 .584-.376.22.265.22-.128.154-.485-.403.624-.364.1.173Zm1.389 1.69-.128.154-.75-.625.128-.153.75.625Zm1.196.998-.366.513-.163-.117.259-.362-.304-.253.128-.153.446.372Zm-1.616 2.263-.163-.117.625-.875.163.117-.625.875Zm-.938 1.312-.162-.116.312-.438.163.117-.313.437ZM4.227.63a.263.263 0 0 0-.454 0L.035 7.113a.26.26 0 0 0 .227.388h7.476a.26.26 0 0 0 .227-.388L4.227.63Zm-.85 2.144c-.032-.282.256-.524.623-.524s.655.242.623.524L4.34 5.25h-.68l-.282-2.476ZM4.504 6.25a.5.5 0 1 1-1 0 .5.5 0 0 1 1 0Z"/>
</svg>