<svg xmlns="http://www.w3.org/2000/svg" width="16" height="16" fill="currentColor" class="qi-2027" viewBox="0 0 16 16">
  <path d="M13.569 11.022c-.952 0-1.538-.125-2.29-.535-.745 1.243-1.388 2.78-1.59 4.195a24.87 24.87 0 0 0-.925-6.201C7.98 5.677 6.02 2.948 2.319 1c1.73 2.522 2.386 5.168 2.748 7.946.3 2.298.26 4.862-.25 6.679a8.85 8.85 0 0 0-.926-3.634C3.117 10.432 1.867 8.976 0 7.84c.846 1.91 1.379 3.57 1.599 4.982.196 1.269.09 2.424-.317 3.468h8.27v.002h5.44c-1.09-2.077-.024-5.332.008-5.486a5.3 5.3 0 0 1-1.431.216Z"/>
  <path d="M15.384 4.15c-1.011.298-1.296 1.156-1.231 1.692-.722-.877-.774-1.89-.693-3.342-2.314.903-1.776 3.507-1.845 4.298-.583-.493-.692-1.67-.692-1.67-.615.326-.923 1.2-.923 1.909C10 8.75 11.378 10 13.035 10 14.692 10 16 8.75 16 7.037c-.001-1.02-.701-1.356-.616-2.887Z"/>
</svg>