<svg xmlns="http://www.w3.org/2000/svg" width="16" height="16" fill="currentColor" class="qi-302" viewBox="0 0 16 16">
  <path d="M8.46 12.626c-.054 0-.089-.05-.065-.093l.792-1.438C9.21 11.05 9.176 11 9.122 11H7.544a.147.147 0 0 0-.076.02.158.158 0 0 0-.058.057l-1.397 2.637c-.042.079.022.17.118.17h1.42c.05 0 .084.043.069.086l-.739 1.943c-.027.07.072.118.124.063l2.978-3.243c.04-.042.006-.107-.055-.107H8.46ZM3 13a1 1 0 1 0 2 0c0-.5-.555-1.395-1-2-.445.605-1 1.5-1 2Zm8 0a1 1 0 0 0 2 0c0-.5-.555-1.395-1-2-.445.605-1 1.5-1 2Zm-3.1-3c1.453 0 2.761-.62 3.675-1.61a.335.335 0 0 1 .365-.083 3 3 0 1 0 .566-5.767.335.335 0 0 1-.341-.152A4.997 4.997 0 0 0 7.9 0a4.997 4.997 0 0 0-4.25 2.365.334.334 0 0 1-.32.153 3 3 0 1 0 .596 5.836.334.334 0 0 1 .345.086A4.99 4.99 0 0 0 7.9 10Zm3.905-2.896c-.172-.129-.438-.097-.555.083A3.997 3.997 0 0 1 7.9 9a3.996 3.996 0 0 1-3.297-1.734c-.112-.163-.347-.197-.513-.089a2 2 0 1 1-.362-3.54c.184.072.408-.01.485-.192a4.001 4.001 0 0 1 7.398.059c.08.2.335.282.53.19a2 2 0 1 1-.335 3.41Z"/>
</svg>