<svg xmlns="http://www.w3.org/2000/svg" width="16" height="16" fill="currentColor" class="qi-309" viewBox="0 0 16 16">
  <path d="M8.534 12.125a.25.25 0 0 1 .433.25l-1.75 3.031a.25.25 0 1 1-.433-.25l1.75-3.031Zm4.25.7a.25.25 0 0 1 .432.25l-1 1.732a.25.25 0 1 1-.432-.25l1-1.732Zm-9 0a.25.25 0 0 1 .433.25l-1 1.732a.25.25 0 0 1-.433-.25l1-1.732ZM7.9 10c1.453 0 2.761-.62 3.675-1.61a.335.335 0 0 1 .365-.083 3 3 0 1 0 .566-5.767.335.335 0 0 1-.341-.152A4.997 4.997 0 0 0 7.9 0a4.997 4.997 0 0 0-4.25 2.365.334.334 0 0 1-.32.153 3 3 0 1 0 .596 5.836.334.334 0 0 1 .345.086A4.99 4.99 0 0 0 7.9 10Zm3.905-2.896c-.172-.129-.438-.097-.555.083A3.997 3.997 0 0 1 7.9 9a3.996 3.996 0 0 1-3.297-1.734c-.112-.163-.347-.197-.513-.089a2 2 0 1 1-.362-3.54c.184.072.408-.01.485-.192a4.001 4.001 0 0 1 7.398.059c.08.2.335.282.53.19a2 2 0 1 1-.335 3.41Z"/>
</svg>