<svg xmlns="http://www.w3.org/2000/svg" width="16" height="16" fill="currentColor" class="qi-316-fill" viewBox="0 0 16 16">
  <path d="M1.293 10.707A1 1 0 0 1 1 10c0-.5.555-1.395 1-2 .445.605 1 1.5 1 2a1 1 0 0 1-1.707.707Zm8 0A1 1 0 0 1 9 10c0-.5.555-1.395 1-2 .445.605 1 1.5 1 2a1 1 0 0 1-1.707.707Zm2.5 0A1 1 0 0 1 11.5 10c0-.5.555-1.395 1-2 .445.605 1 1.5 1 2a1 1 0 0 1-1.707.707ZM14 10a1 1 0 0 0 2 0c0-.5-.555-1.395-1-2-.445.605-1 1.5-1 2Zm-.707 4.707A1 1 0 0 1 13 14c0-.5.555-1.395 1-2 .445.605 1 1.5 1 2a1 1 0 0 1-1.707.707ZM10 14a1 1 0 0 0 2 0c0-.5-.555-1.395-1-2-.445.605-1 1.5-1 2Zm-6-4a1 1 0 1 0 2 0c0-.5-.555-1.395-1-2-.445.605-1 1.5-1 2Zm.293 4.707A1 1 0 0 1 4 14c0-.5.555-1.395 1-2 .445.605 1 1.5 1 2a1 1 0 0 1-1.707.707ZM1 14a1 1 0 1 0 2 0c0-.5-.555-1.395-1-2-.445.605-1 1.5-1 2Z"/>
  <path d="M7.857 0a.5.5 0 0 0-.474.342l-.167.5a.5.5 0 0 0-.025.191c-3.729.31-6.71 2.74-7.19 5.824-.033.216.397.393.593.283.412-.232 1.055-.445 2.029-.445 1.359 0 2.074.414 2.416.718.13.116.415.116.545 0 .294-.262.864-.604 1.883-.695v8.749a.533.533 0 0 0 1.066 0V6.718c1.019.091 1.589.433 1.883.695.13.116.415.116.545 0 .342-.304 1.057-.718 2.416-.718.974 0 1.617.213 2.03.445.195.11.625-.067.591-.283-.48-3.087-3.464-5.517-7.196-5.824a.5.5 0 0 0-.025-.191l-.166-.5A.5.5 0 0 0 8.136 0h-.279Z"/>
</svg>