<svg xmlns="http://www.w3.org/2000/svg" width="16" height="16" fill="currentColor" class="qi-317" viewBox="0 0 16 16">
  <path d="M2 8.5a.5.5 0 0 1 1 0v2a.5.5 0 0 1-1 0v-2Zm8 0a.5.5 0 0 1 1 0v2a.5.5 0 0 1-1 0v-2ZM5.5 8a.5.5 0 0 0-.5.5v2a.5.5 0 0 0 1 0v-2a.5.5 0 0 0-.5-.5Zm6.5.5a.5.5 0 0 1 1 0v2a.5.5 0 0 1-1 0v-2Zm2.5-.5a.5.5 0 0 0-.5.5v2a.5.5 0 0 0 1 0v-2a.5.5 0 0 0-.5-.5ZM5 12.5a.5.5 0 0 1 1 0v2a.5.5 0 0 1-1 0v-2Zm8.5-.5a.5.5 0 0 0-.5.5v2a.5.5 0 0 0 1 0v-2a.5.5 0 0 0-.5-.5ZM2 12.5a.5.5 0 0 1 1 0v2a.5.5 0 0 1-1 0v-2Zm9.5-.5a.5.5 0 0 0-.5.5v2a.5.5 0 0 0 1 0v-2a.5.5 0 0 0-.5-.5Z"/>
  <path d="M7.386.342A.5.5 0 0 1 7.86 0h.28a.5.5 0 0 1 .474.342l.167.5a.513.513 0 0 1 .015.055c1.855.14 3.535.764 4.808 1.72C15.056 3.707 16 5.252 16 7a.5.5 0 0 1-.826.38h-4.348l.001-.002h4.346l-.003-.002a3.561 3.561 0 0 0-.58-.361A3.597 3.597 0 0 0 13 6.633c-.653 0-1.202.19-1.59.382a3.561 3.561 0 0 0-.58.36l-.003.003h-.654l-.003-.002a3.557 3.557 0 0 0-.58-.361A3.681 3.681 0 0 0 8.5 6.67v.708h1.673l.001.001H8.5V15.5a.5.5 0 0 1-1 0V7.38H.826A.5.5 0 0 1 0 7c0-1.748.944-3.293 2.396-4.383C3.67 1.66 5.35 1.037 7.204.897A.513.513 0 0 1 7.22.842l.167-.5ZM7.5 7.379V6.67a3.681 3.681 0 0 0-1.67.706l-.003.002L7.5 7.38ZM3 5.633a4.59 4.59 0 0 1 1.964.451c.02-.604.118-1.31.348-2.022a5.848 5.848 0 0 1 1.148-2.07c-1.346.223-2.54.73-3.463 1.424-.962.723-1.617 1.633-1.875 2.629A4.571 4.571 0 0 1 3 5.633ZM6.263 4.37a6.471 6.471 0 0 0-.3 1.75h.003A4.597 4.597 0 0 1 8 5.633a4.59 4.59 0 0 1 2.034.486h.003a6.47 6.47 0 0 0-.3-1.75C9.444 3.461 8.91 2.572 8 1.956c-.911.616-1.444 1.505-1.737 2.413ZM13 5.633c.76 0 1.402.197 1.878.412-.258-.996-.913-1.906-1.875-2.629-.923-.693-2.117-1.201-3.463-1.424.556.634.92 1.36 1.148 2.07.23.712.328 1.418.348 2.022A4.585 4.585 0 0 1 13 5.634ZM.83 7.376l-.004.003h4.348l-.004-.003a3.56 3.56 0 0 0-.58-.361A3.597 3.597 0 0 0 3 6.633c-.653 0-1.202.19-1.59.382a3.56 3.56 0 0 0-.58.36Zm4.344.003a.5.5 0 0 0 .652 0h-.652Z"/>
  <path d="M10.174 7.38h.652a.5.5 0 0 1-.652 0Z"/>
</svg>