<svg xmlns="http://www.w3.org/2000/svg" width="16" height="16" fill="currentColor" class="qi-406-fill" viewBox="0 0 16 16">
  <path d="M4.575 15a1 1 0 1 0 2 0c0-.5-.555-1.395-1-2-.445.605-1 1.5-1 2Zm6.501-2a.35.35 0 0 0-.35.35v.544l-.47-.272a.35.35 0 1 0-.35.606l.47.272-.47.272a.35.35 0 1 0 .35.606l.47-.272v.544a.35.35 0 1 0 .7 0v-.544l.47.272a.35.35 0 1 0 .35-.606l-.47-.272.47-.272a.35.35 0 1 0-.35-.606l-.47.272v-.544a.35.35 0 0 0-.35-.35Zm.918-2.104A4.758 4.758 0 0 1 8.406 12.5a4.76 4.76 0 0 1-3.537-1.547 2.908 2.908 0 0 1-1.056.197C2.258 11.15 1 9.941 1 8.45s1.26-2.7 2.813-2.7c.173 0 .342.015.507.044C5.124 4.424 6.652 3.5 8.406 3.5c1.769 0 3.308.94 4.107 2.328a2.93 2.93 0 0 1 .675-.078C14.74 5.75 16 6.959 16 8.45s-1.26 2.7-2.813 2.7a2.9 2.9 0 0 1-1.193-.254ZM5.195 1.904h.007a.5.5 0 0 0 .493-.506L5.683.494a.5.5 0 0 0-.5-.494h-.007a.5.5 0 0 0-.493.506l.012.905a.5.5 0 0 0 .5.493Zm-2.892.946a.5.5 0 1 0 .698-.716l-.648-.63a.5.5 0 1 0-.697.715l.647.631Zm-.179 2.203a.5.5 0 0 0-.5-.493h-.007l-.904.011a.5.5 0 0 0 .006 1h.007l.905-.011a.5.5 0 0 0 .493-.507Zm5.638-2.12a.5.5 0 0 0 .359-.151l.63-.648a.5.5 0 0 0-.716-.698l-.631.647a.5.5 0 0 0 .358.85ZM2.47 5.315a3.53 3.53 0 0 1 1.018-.288 1.83 1.83 0 0 1 1.811-1.603c.188.003.375.035.553.095.407-.193.838-.33 1.282-.405a2.82 2.82 0 0 0-4.67 2.145c0 .02.006.037.006.056Z"/>
</svg>