<svg xmlns="http://www.w3.org/2000/svg" width="16" height="16" fill="currentColor" class="qi-457" viewBox="0 0 16 16">
  <path d="M4.996 13a.35.35 0 0 0-.35.35v.544l-.471-.272a.35.35 0 1 0-.35.606l.471.272-.471.272a.35.35 0 1 0 .35.606l.471-.272v.544a.35.35 0 1 0 .7 0v-.544l.47.272a.35.35 0 1 0 .35-.606l-.47-.272.47-.272a.35.35 0 1 0-.35-.606l-.47.272v-.544a.35.35 0 0 0-.35-.35Zm5 0a.35.35 0 0 0-.35.35v.544l-.471-.272a.35.35 0 1 0-.35.606l.471.272-.471.272a.35.35 0 1 0 .35.606l.471-.272v.544a.35.35 0 1 0 .7 0v-.544l.47.272a.35.35 0 1 0 .35-.606l-.47-.272.47-.272a.35.35 0 1 0-.35-.606l-.47.272v-.544a.35.35 0 0 0-.35-.35Zm-2.59-.5a4.766 4.766 0 0 0 3.446-1.449.323.323 0 0 1 .341-.075c.31.113.645.174.995.174C13.74 11.15 15 9.941 15 8.45s-1.26-2.7-2.813-2.7c-.157 0-.312.013-.463.037a.32.32 0 0 1-.32-.138C10.58 4.36 9.098 3.5 7.406 3.5c-1.682 0-3.157.85-3.984 2.128a.318.318 0 0 1-.3.138 2.962 2.962 0 0 0-.31-.016C1.26 5.75 0 6.959 0 8.45s1.26 2.7 2.813 2.7c.302 0 .594-.046.867-.131a.322.322 0 0 1 .324.077A4.768 4.768 0 0 0 7.406 12.5Zm3.661-2.606c-.161-.116-.41-.088-.52.074a3.788 3.788 0 0 1-3.14 1.632 3.792 3.792 0 0 1-3.091-1.56c-.106-.147-.326-.178-.482-.08a1.93 1.93 0 0 1-1.022.29c-1.035 0-1.874-.806-1.874-1.8s.839-1.8 1.875-1.8c.24 0 .47.044.682.123.173.065.383-.008.455-.173.569-1.293 1.902-2.2 3.456-2.2 1.575 0 2.924.932 3.48 2.254.075.18.314.254.496.17.244-.111.517-.174.806-.174 1.035 0 1.874.806 1.874 1.8s-.839 1.8-1.874 1.8c-.42 0-.808-.133-1.12-.356Zm4.399-5.679a.31.31 0 0 0-.08.01 3.066 3.066 0 0 1-1.866-.076A3.183 3.183 0 0 1 11.492.364.29.29 0 0 0 11.22 0a.28.28 0 0 0-.104.02 3.546 3.546 0 0 0-2.21 3.096c.34.063.671.16.99.293a2.56 2.56 0 0 1 .54-1.671 4.166 4.166 0 0 0 2.755 3.356c.274.096.558.164.846.203a2.611 2.611 0 0 1-.239.163c.304.173.582.39.823.643a3.553 3.553 0 0 0 1.12-1.504.285.285 0 0 0-.275-.384Z"/>
</svg>