<svg xmlns="http://www.w3.org/2000/svg" width="16" height="16" fill="currentColor" class="qi-499" viewBox="0 0 16 16">
  <path d="M15.63 9.38a.593.593 0 0 0-.72-.417l-2.63.705-1.172-.678a3.089 3.089 0 0 0-.067-2.194l1.223-.706 2.482.665a.589.589 0 1 0 .306-1.137l-1.346-.36.953-.55a.588.588 0 1 0-.589-1.018l-1.043.603.398-1.489a.59.59 0 0 0-.416-.721.598.598 0 0 0-.72.415l-.704 2.627-1.173.676a3.26 3.26 0 0 0-1.935-1.03V3.35l1.815-1.815A.589.589 0 0 0 9.46.704l-.983.982V.588a.588.588 0 0 0-1.177 0v1.204L6.208.704a.589.589 0 1 0-.832.832l1.922 1.92v1.345a3.27 3.27 0 0 0-1.857 1.171L4.208 5.26l-.665-2.48a.588.588 0 0 0-1.137.306l.36 1.342-.949-.547A.589.589 0 1 0 1.228 4.9l1.043.603L.782 5.9a.589.589 0 0 0 .305 1.136l2.628-.705 1.172.678a3.09 3.09 0 0 0 .067 2.194l-1.223.706-2.481-.665a.597.597 0 0 0-.722.415.59.59 0 0 0 .417.722l1.344.36-.952.55a.588.588 0 0 0 .588 1.018l1.043-.603-.398 1.489a.59.59 0 0 0 1.137.306l.704-2.627 1.172-.675a3.26 3.26 0 0 0 1.936 1.03v1.42l-1.816 1.814a.588.588 0 0 0 .833.832l.983-.982v1.098a.589.589 0 0 0 1.177 0v-1.204l1.09 1.088a.589.589 0 0 0 .832-.832l-1.922-1.92v-1.345a3.27 3.27 0 0 0 1.858-1.171l1.232.712.665 2.48a.588.588 0 0 0 1.138-.306l-.36-1.342.95.548a.58.58 0 0 0 .65-.043.588.588 0 0 0-.062-.975l-1.043-.602 1.49-.4a.59.59 0 0 0 .416-.72Zm-7.632.72A2.102 2.102 0 1 1 8 5.898a2.102 2.102 0 0 1-.002 4.204Z"/>
</svg>