<svg xmlns="http://www.w3.org/2000/svg" width="16" height="16" fill="currentColor" class="qi-504-fill" viewBox="0 0 16 16">
  <path d="M7 1.5a.5.5 0 1 1-1 0 .5.5 0 0 1 1 0Zm-4 7a.5.5 0 1 1-1 0 .5.5 0 0 1 1 0ZM7.5 8a.5.5 0 1 0 0-1 .5.5 0 0 0 0 1Zm0 6.75a.75.75 0 1 1-1.5 0 .75.75 0 0 1 1.5 0Zm6.25-1.25a.75.75 0 1 0 0-1.5.75.75 0 0 0 0 1.5ZM10 4a1 1 0 1 1-2 0 1 1 0 0 1 2 0ZM5 7a1 1 0 1 0 0-2 1 1 0 0 0 0 2Zm6.5 7.25a1.25 1.25 0 1 1-2.5 0 1.25 1.25 0 0 1 2.5 0ZM2 4a1 1 0 1 0 0-2 1 1 0 0 0 0 2Z"/>
  <path d="M9.97 1c1.904 1.043 3.099 2.538 3.099 4.201 0 3.148-4.275 5.7-9.55 5.7a15.332 15.332 0 0 1-3.519-.4c2.06 1.036 4.25 1.544 6.451 1.496 2.075.037 4.14-.408 6.1-1.315a5.19 5.19 0 0 0 1.43-.882C15.224 8.782 16 7.618 16 6.298 16 3.894 13.502 1.836 9.97 1Z"/>
</svg>