<svg xmlns="http://www.w3.org/2000/svg" width="16" height="16" fill="currentColor" class="qi-508" viewBox="0 0 16 16">
  <path d="m15.914 5.254-1.571-1.692c-.141-.152-.343-.007-.343.246v.359H1c-.552 0-1 .597-1 1.333s.448 1.333 1 1.333h13v.359c0 .253.202.398.343.246l1.571-1.692c.115-.123.115-.369 0-.492Zm-1.358-.287.495.533-.495.533H1.007a.215.215 0 0 1-.074-.07A.786.786 0 0 1 .8 5.5c0-.212.065-.373.133-.463a.215.215 0 0 1 .074-.07h13.549Zm1.358 5.287-1.571-1.692c-.141-.152-.343-.007-.343.246v.359H1c-.552 0-1 .597-1 1.333s.448 1.333 1 1.333h13v.359c0 .253.202.398.343.246l1.571-1.692c.115-.123.115-.369 0-.492Zm-1.358-.287.495.533-.495.533H1.007a.214.214 0 0 1-.074-.07A.786.786 0 0 1 .8 10.5c0-.212.065-.373.133-.463a.215.215 0 0 1 .074-.07h13.549Z"/>
  <path d="M11.978 3.146c-.464.32-1.128.234-1.516-.156-.35-.351-.662-.605-.938-.76-.441-.265-.961-.397-1.56-.397-.584 0-1.08.167-1.49.5a1.614 1.614 0 0 0-.591 1.292c0 .189.025.37.076.542H3.847a3.304 3.304 0 0 1-.045-.542c0-1.014.394-1.868 1.182-2.563C5.788.355 6.821 0 8.082 0c.977 0 1.828.222 2.553.667.515.305 1.021.719 1.52 1.24.36.377.263.936-.177 1.239ZM5.63 6.833a35.33 35.33 0 0 0 1.932 1.375c.516.342.967.661 1.352.959h2.963c-.634-.717-1.576-1.474-2.826-2.271a61.018 61.018 0 0 1-.095-.063H5.63Zm5.191 5H13c0 1.125-.497 2.104-1.49 2.938C10.533 15.59 9.39 16 8.082 16c-2.038 0-3.686-.887-4.946-2.662-.284-.4-.105-.918.36-1.154a1.175 1.175 0 0 1 1.43.328c.886 1.159 1.859 1.738 2.92 1.738.819 0 1.52-.23 2.104-.688.583-.458.875-.993.875-1.604a2.26 2.26 0 0 0-.004-.125Z"/>
</svg>