<svg xmlns="http://www.w3.org/2000/svg" width="16" height="16" fill="currentColor" class="qi-509" viewBox="0 0 16 16">
  <path d="M.25 11a.25.25 0 1 0 0 .5h9.5a.25.25 0 1 0 0-.5H.25Zm3 1.5a.25.25 0 1 0 0 .5h3.5a.25.25 0 1 0 0-.5h-3.5ZM10 14.25a.25.25 0 0 1 .25-.25h3.5a.25.25 0 1 1 0 .5h-3.5a.25.25 0 0 1-.25-.25ZM8.25 12.5a.25.25 0 1 0 0 .5h7.5a.25.25 0 1 0 0-.5h-7.5ZM1 14.25a.25.25 0 0 1 .25-.25h7.5a.25.25 0 1 1 0 .5h-7.5a.25.25 0 0 1-.25-.25Zm2.25 1.25a.25.25 0 1 0 0 .5h9.5a.25.25 0 1 0 0-.5h-9.5ZM7.9 10c1.453 0 2.761-.62 3.675-1.61a.335.335 0 0 1 .365-.083 3 3 0 1 0 .566-5.767.335.335 0 0 1-.341-.152A4.997 4.997 0 0 0 7.9 0a4.997 4.997 0 0 0-4.25 2.365.334.334 0 0 1-.32.153 3 3 0 1 0 .596 5.836.334.334 0 0 1 .345.086A4.99 4.99 0 0 0 7.9 10Zm3.905-2.896c-.172-.129-.438-.097-.555.083A3.997 3.997 0 0 1 7.9 9a3.996 3.996 0 0 1-3.297-1.734c-.112-.163-.347-.197-.513-.089a2 2 0 1 1-.362-3.54c.184.072.408-.01.485-.192a4.001 4.001 0 0 1 7.398.059c.08.2.335.282.53.19a2 2 0 1 1-.335 3.41Z"/>
</svg>