<svg xmlns="http://www.w3.org/2000/svg" width="16" height="16" fill="currentColor" class="qi-900-fill" viewBox="0 0 16 16">
  <path d="M11.5 0A2.5 2.5 0 0 0 9 2.5v4.99a.534.534 0 0 1-.217.423 4.5 4.5 0 1 0 5.435 0A.534.534 0 0 1 14 7.49V2.5A2.5 2.5 0 0 0 11.5 0Zm2 11.5A2 2 0 1 1 11 9.563V3.5a.5.5 0 0 1 1 0v6.063a2 2 0 0 1 1.5 1.937ZM5.384 2.65c-1.011.298-1.296 1.156-1.231 1.692C3.43 3.465 3.38 2.452 3.46 1c-2.314.903-1.776 3.507-1.845 4.298-.583-.493-.692-1.67-.692-1.67C.308 3.953 0 4.827 0 5.536 0 7.25 1.378 8.5 3.035 8.5 4.692 8.5 6 7.25 6 5.537c-.001-1.02-.701-1.356-.616-2.887Z"/>
</svg>