<svg xmlns="http://www.w3.org/2000/svg" width="16" height="16" fill="currentColor" class="qi-900" viewBox="0 0 16 16">
  <path d="M5.384 2.65c-1.011.298-1.296 1.156-1.231 1.692C3.43 3.465 3.38 2.452 3.46 1c-2.314.903-1.776 3.507-1.845 4.298-.583-.493-.692-1.67-.692-1.67C.308 3.953 0 4.827 0 5.536 0 7.25 1.378 8.5 3.035 8.5 4.692 8.5 6 7.25 6 5.537c-.001-1.02-.701-1.356-.616-2.887ZM11.5 3a.5.5 0 0 0-.5.5v6.063a2 2 0 1 0 1 0V3.5a.5.5 0 0 0-.5-.5Z"/>
  <path d="m10.2 8.399-.532.356a3.3 3.3 0 1 0 3.665 0l-.533-.356V2.5a1.3 1.3 0 1 0-2.6 0v5.899ZM9 2.5a2.5 2.5 0 0 1 5 0v5.258a4.5 4.5 0 1 1-5 0V2.5Z"/>
</svg>