<svg xmlns="http://www.w3.org/2000/svg" width="16" height="16" fill="currentColor" class="qi-901-fill" viewBox="0 0 16 16">
  <path d="M11.5 0A2.5 2.5 0 0 0 9 2.5v4.99a.534.534 0 0 1-.217.423 4.5 4.5 0 1 0 5.435 0A.534.534 0 0 1 14 7.49V2.5A2.5 2.5 0 0 0 11.5 0Zm2 11.5A2 2 0 1 1 11 9.563V7.5a.5.5 0 0 1 1 0v2.063a2 2 0 0 1 1.5 1.937ZM2.302 1.7a.7.7 0 0 1 1.4 0v1.088l.942-.544a.7.7 0 1 1 .7 1.212L4.402 4l.942.544a.7.7 0 1 1-.7 1.212l-.942-.544V6.3a.7.7 0 1 1-1.4 0V5.212l-.942.544a.7.7 0 0 1-.7-1.212L1.602 4 .66 3.456a.7.7 0 0 1 .7-1.212l.942.544V1.7Z"/>
</svg>