<svg xmlns="http://www.w3.org/2000/svg" width="16" height="16" fill="currentColor" class="qi-qweather-fill" viewBox="0 0 16 16">
  <path d="M3.905 11.625a4.666 4.666 0 0 0 3.007 1.382 6.36 6.36 0 0 1-2.795-2.604 3.54 3.54 0 0 1 .589-4.054c.655-.692 1.586-1.093 2.619-1.123 1.151-.033 2.162.458 2.803 1.295a2.157 2.157 0 0 0 .029.036 3.85 3.85 0 0 1 .11.147c.252.383.385.83.382 1.288a2.235 2.235 0 0 1-1.168 1.964 2.235 2.235 0 0 1-.998.279h-.02a1.36 1.36 0 0 1-1.158-.65.135.135 0 0 1 .086-.202.138.138 0 0 1 .084.007 1.236 1.236 0 0 0 1.14-.13 1.213 1.213 0 0 0 .526-1.036 1.202 1.202 0 0 0-.168-.574 1.357 1.357 0 0 0-.638-.554 1.156 1.156 0 0 0-.162-.05l-.01-.002-.023-.005a2.026 2.026 0 0 0-2.03.666 1.831 1.831 0 0 0-.444 1.233 2.6 2.6 0 0 0 .568 1.567v.001l.003.002c.65.766 1.572 1.432 2.63 1.67.286.062.577.102.87.12a4.616 4.616 0 0 0 1.942-2.523 4.576 4.576 0 0 0-.161-3.17A4.628 4.628 0 0 0 9.33 4.29a4.686 4.686 0 0 0-3.178-.366A4.653 4.653 0 0 0 3.487 5.68a4.584 4.584 0 0 0 .418 5.945Z"/>
  <path d="M2 0a2 2 0 0 0-2 2v12a2 2 0 0 0 2 2h12a2 2 0 0 0 2-2V2a2 2 0 0 0-2-2H2Zm11.413 11.066.222-.198h.865c-.083.12-.162.238-.238.352-.462.69-.85 1.27-1.634 1.68a6.388 6.388 0 0 1-3.53.702 5.945 5.945 0 0 1-4.176-.293 5.873 5.873 0 0 1-2.929-2.967 5.805 5.805 0 0 1-.205-4.147 5.86 5.86 0 0 1 2.621-3.238 5.942 5.942 0 0 1 4.128-.697 5.906 5.906 0 0 1 3.554 2.194 5.816 5.816 0 0 1-.58 7.742c.859-.199 1.292-.586 1.902-1.13Z"/>
</svg>