<svg xmlns="http://www.w3.org/2000/svg" width="58" height="58" viewBox="0 0 58 58"><defs><style>.cls-1{fill:#0a6dc4;}</style></defs><title>icon_dragon_on</title><g id="レイヤー_2のコピー" data-name="レイヤー 2のコピー"><path class="cls-1" d="M29,57.22A28.22,28.22,0,1,0,.78,29,28.21,28.21,0,0,0,29,57.22ZM12.67,33.11s3.49-3.45,12.88-3.45C18.93,37.94,27,46.38,27,46.38A17,17,0,0,1,12.67,33.11Zm8.13-18.3h0c.43-.25,7.68-4.55,9.34-9.45,0,0,1.24,4-.16,7.2a17,17,0,0,1,7.18,32.06,7.24,7.24,0,0,1-7.38-.34,9.36,9.36,0,0,1-4.25-5.78,14,14,0,0,0,7.19-1.1,7.66,7.66,0,0,0,3.86-6.77,7.2,7.2,0,0,0-2.21-5.93s-2.76-2.21-3.31-4.42c0,0-1.58,5.91-9.69,6.33-8,.42-9.69,2.16-9.69,2.16C11.92,22.74,15.89,17.65,20.8,14.81Z"/><path class="cls-1" d="M21.65,21.8a3.21,3.21,0,0,0,.52-3.09c-3.52.91-4.86,5.26-4.86,5.26S20.49,23.13,21.65,21.8Z"/></g></svg>