<svg width="28" height="28" viewBox="0 0 28 28" fill="none" xmlns="http://www.w3.org/2000/svg">
<path d="M14.182 3.50768L15.2426 4.56834L6.40381 13.4072L5.34315 12.3465L14.182 3.50768Z" fill="#b6b6b6"/>
<path d="M21.2476 10.5733C22.7336 8.90437 22.6763 6.34518 21.076 4.7448C19.4756 3.14441 16.9164 3.08719 15.2474 4.57313L14.1854 3.51113C16.4415 1.44018 19.9503 1.49785 22.1366 3.68414C24.3229 5.87042 24.3806 9.37926 22.3096 11.6353L21.2476 10.5733Z" fill="#b6b6b6"/>
<path d="M15.5962 22.5996C13.0578 25.138 8.94221 25.138 6.40381 22.5996C3.8654 20.0612 3.8654 15.9456 6.40381 13.4072L5.34315 12.3465C2.21895 15.4707 2.21895 20.536 5.34315 23.6602C8.46734 26.7844 13.5327 26.7844 16.6569 23.6602L15.5962 22.5996Z" fill="#b6b6b6"/>
<path d="M16.3033 7.75032L17.364 8.81098L10.2929 15.882L9.23223 14.8214L16.3033 7.75032Z" fill="#b6b6b6"/>
<path d="M13.1213 18.7105C12.3403 19.4915 11.0739 19.4915 10.2929 18.7105C9.51184 17.9294 9.51184 16.6631 10.2929 15.882L9.23223 14.8214C7.8654 16.1882 7.8654 18.4043 9.23223 19.7711C10.5991 21.138 12.8151 21.138 14.182 19.7711L13.1213 18.7105Z" fill="#b6b6b6"/>
<path d="M21.253 10.5787L22.3137 11.6394L14.182 19.7711L13.1213 18.7105L21.253 10.5787Z" fill="#b6b6b6"/>
<path d="M23.3744 14.8214L24.435 15.882L16.6569 23.6602L15.5962 22.5996L23.3744 14.8214Z" fill="#b6b6b6"/>
</svg>