<svg xmlns="http://www.w3.org/2000/svg" viewBox="0 0 100 100"><path fill="#c7ede6" d="M88.704,55.677c0.3-0.616,0.566-1.264,0.796-1.943c2.633-7.77-1.349-17.078-9.733-19.325	C78.86,23.026,70.86,15.216,61.826,13.884c-10.341-1.525-19.814,5.044-22.966,15.485c-3.799-1.346-7.501-1.182-10.99,0.857	c-1.583,0.732-3.031,1.812-4.33,3.233c-1.907,2.086-3.147,4.719-3.652,7.495c-0.748,0.118-1.483,0.236-2.176,0.484	c-4.04,1.449-6.589,4.431-7.288,8.923c-0.435,2.797,0.443,5.587,0.933,6.714c1.935,4.455,6.422,6.98,10.981,6.312	c0.227-0.033,0.557,0.069,0.752,0.233c0.241,7.12,3.698,13.417,8.884,17.014c8.321,5.772,19.027,3.994,25.781-3.921	c2.894,2.96,6.338,4.398,10.384,3.876c4.023-0.519,7.147-2.739,9.426-6.349c1.053,0.283,2.051,0.691,3.083,0.804	c4.042,0.442,7.324-1.165,9.732-4.8c0.922-1.391,1.793-3.194,1.793-6.354C92.174,60.634,90.88,57.667,88.704,55.677z"/><path fill="#fff" d="M18.369,47.713H8.338c-0.276,0-0.5-0.224-0.5-0.5s0.224-0.5,0.5-0.5h10.03c0.276,0,0.5,0.224,0.5,0.5	S18.645,47.713,18.369,47.713z M21.25,47.713h-1.445c-0.276,0-0.5-0.224-0.5-0.5s0.224-0.5,0.5-0.5h1.445c0.276,0,0.5,0.224,0.5,0.5	S21.526,47.713,21.25,47.713z M25.304,47.713h-2.546c-0.276,0-0.5-0.224-0.5-0.5s0.224-0.5,0.5-0.5h2.546c0.276,0,0.5,0.224,0.5,0.5	S25.581,47.713,25.304,47.713z M25.304,49.578h-9.616c-0.276,0-0.5-0.224-0.5-0.5s0.224-0.5,0.5-0.5h9.616	c0.276,0,0.5,0.224,0.5,0.5S25.581,49.578,25.304,49.578z M13.957,49.578h-0.58c-0.276,0-0.5-0.224-0.5-0.5s0.224-0.5,0.5-0.5h0.58	c0.276,0,0.5,0.224,0.5,0.5S14.233,49.578,13.957,49.578z M11.58,49.578h-1.456c-0.276,0-0.5-0.224-0.5-0.5s0.224-0.5,0.5-0.5h1.456	c0.276,0,0.5,0.224,0.5,0.5S11.856,49.578,11.58,49.578z M20.715,45.848h-5.027c-0.276,0-0.5-0.224-0.5-0.5s0.224-0.5,0.5-0.5h5.027	c0.276,0,0.5,0.224,0.5,0.5S20.992,45.848,20.715,45.848z M20.715,43.983h-1.258c-0.276,0-0.5-0.224-0.5-0.5s0.224-0.5,0.5-0.5	h1.258c0.276,0,0.5,0.224,0.5,0.5S20.992,43.983,20.715,43.983z M17.447,51.443h-1.759c-0.276,0-0.5-0.224-0.5-0.5	s0.224-0.5,0.5-0.5h1.759c0.276,0,0.5,0.224,0.5,0.5S17.723,51.443,17.447,51.443z M74.394,25.392h-10.03	c-0.276,0-0.5-0.224-0.5-0.5s0.224-0.5,0.5-0.5h10.03c0.276,0,0.5,0.224,0.5,0.5S74.67,25.392,74.394,25.392z M77.276,25.392H75.83	c-0.276,0-0.5-0.224-0.5-0.5s0.224-0.5,0.5-0.5h1.446c0.276,0,0.5,0.224,0.5,0.5S77.552,25.392,77.276,25.392z M81.33,25.392h-2.546	c-0.276,0-0.5-0.224-0.5-0.5s0.224-0.5,0.5-0.5h2.546c0.276,0,0.5,0.224,0.5,0.5S81.606,25.392,81.33,25.392z M81.33,27.257h-9.616	c-0.276,0-0.5-0.224-0.5-0.5s0.224-0.5,0.5-0.5h9.616c0.276,0,0.5,0.224,0.5,0.5S81.606,27.257,81.33,27.257z M69.982,27.257h-0.58	c-0.276,0-0.5-0.224-0.5-0.5s0.224-0.5,0.5-0.5h0.58c0.276,0,0.5,0.224,0.5,0.5S70.258,27.257,69.982,27.257z M67.605,27.257h-1.456	c-0.276,0-0.5-0.224-0.5-0.5s0.224-0.5,0.5-0.5h1.456c0.276,0,0.5,0.224,0.5,0.5S67.881,27.257,67.605,27.257z M76.741,23.527	h-5.027c-0.276,0-0.5-0.224-0.5-0.5s0.224-0.5,0.5-0.5h5.027c0.276,0,0.5,0.224,0.5,0.5S77.017,23.527,76.741,23.527z M76.741,21.662h-1.257c-0.276,0-0.5-0.224-0.5-0.5s0.224-0.5,0.5-0.5h1.257c0.276,0,0.5,0.224,0.5,0.5S77.017,21.662,76.741,21.662	z M73.472,29.122h-1.759c-0.276,0-0.5-0.224-0.5-0.5s0.224-0.5,0.5-0.5h1.759c0.276,0,0.5,0.224,0.5,0.5	S73.749,29.122,73.472,29.122z"/><path fill="#fdfcef" d="M75.965,48.546c0,0,10.616,0,10.681,0c2.452,0,4.439-1.987,4.439-4.439	c0-2.139-1.513-3.924-3.527-4.344c0.023-0.187,0.039-0.377,0.039-0.57c0-2.539-2.058-4.598-4.597-4.598	c-1.499,0-2.827,0.721-3.666,1.831c-0.215-2.826-2.739-5.007-5.693-4.646c-2.16,0.264-3.947,1.934-4.344,4.073	c-0.127,0.686-0.114,1.352,0.013,1.977c-0.579-0.624-1.403-1.016-2.322-1.016c-1.68,0-3.052,1.308-3.16,2.961	c-0.763-0.169-1.593-0.158-2.467,0.17c-1.671,0.627-2.861,2.2-2.93,3.983c-0.099,2.533,1.925,4.617,4.435,4.617	c0.191,0,0.861,0,1.015,0h9.218"/><path fill="#472b29" d="M86.646,49.046H75.965c-0.276,0-0.5-0.224-0.5-0.5s0.224-0.5,0.5-0.5h10.681	c2.172,0,3.938-1.767,3.938-3.939c0-1.854-1.315-3.476-3.129-3.855c-0.254-0.053-0.425-0.291-0.394-0.549	c0.02-0.168,0.035-0.337,0.035-0.511c0-2.259-1.838-4.098-4.098-4.098c-1.292,0-2.483,0.595-3.267,1.632	c-0.126,0.166-0.343,0.237-0.54,0.179c-0.2-0.059-0.342-0.235-0.358-0.442c-0.094-1.238-0.7-2.401-1.663-3.191	c-0.973-0.797-2.206-1.148-3.471-0.997c-1.946,0.238-3.556,1.747-3.913,3.668c-0.111,0.599-0.107,1.2,0.012,1.786	c0.044,0.22-0.062,0.442-0.262,0.544c-0.197,0.103-0.441,0.061-0.595-0.104c-0.513-0.552-1.207-0.856-1.955-0.856	c-1.4,0-2.569,1.095-2.661,2.494c-0.01,0.146-0.082,0.28-0.199,0.367c-0.116,0.087-0.269,0.118-0.407,0.088	c-0.754-0.167-1.471-0.118-2.184,0.15c-1.499,0.562-2.547,1.983-2.606,3.535c-0.043,1.083,0.347,2.11,1.097,2.889	c0.749,0.779,1.758,1.208,2.839,1.208h10.233c0.276,0,0.5,0.224,0.5,0.5s-0.224,0.5-0.5,0.5H62.866c-1.355,0-2.62-0.538-3.56-1.516	c-0.94-0.977-1.429-2.263-1.376-3.621c0.076-1.949,1.384-3.73,3.255-4.432c0.72-0.27,1.462-0.363,2.221-0.279	c0.362-1.655,1.842-2.884,3.582-2.884c0.603,0,1.193,0.151,1.72,0.432c0.004-0.328,0.036-0.656,0.098-0.984	c0.436-2.346,2.398-4.188,4.774-4.478c1.532-0.192,3.039,0.244,4.226,1.216c0.899,0.737,1.544,1.742,1.847,2.851	c0.919-0.807,2.095-1.256,3.348-1.256c2.811,0,5.098,2.287,5.098,5.098c0,0.064-0.002,0.128-0.005,0.192	c2.048,0.628,3.492,2.547,3.492,4.723C91.585,46.83,89.369,49.046,86.646,49.046z"/><path fill="#fdfcef" d="M72.392,38.767c-1.642-0.108-3.055,1.026-3.157,2.533c-0.013,0.187-0.004,0.371,0.023,0.55	c-0.317-0.358-0.786-0.6-1.324-0.636c-0.985-0.065-1.836,0.586-1.959,1.471c-0.179-0.049-0.366-0.082-0.56-0.095	c-1.437-0.094-2.674,0.898-2.762,2.216"/><path fill="#472b29" d="M62.654,45.057c-0.006,0-0.011,0-0.017,0c-0.138-0.009-0.242-0.128-0.232-0.266	c0.099-1.453,1.455-2.552,3.027-2.449c0.118,0.008,0.235,0.022,0.354,0.044c0.26-0.878,1.168-1.49,2.166-1.42	c0.376,0.025,0.729,0.139,1.034,0.33c0-0.004,0-0.008,0.001-0.012c0.11-1.641,1.624-2.88,3.422-2.765	c0.138,0.009,0.242,0.128,0.232,0.266c-0.008,0.137-0.104,0.245-0.266,0.233c-1.514-0.102-2.798,0.933-2.891,2.3	c-0.011,0.164-0.004,0.331,0.021,0.497c0.017,0.109-0.041,0.217-0.142,0.263c-0.102,0.045-0.219,0.022-0.293-0.061	c-0.284-0.321-0.704-0.522-1.152-0.552c-0.849-0.046-1.589,0.497-1.694,1.256c-0.011,0.071-0.05,0.134-0.11,0.174	s-0.132,0.053-0.203,0.033c-0.176-0.047-0.343-0.076-0.512-0.086c-1.305-0.093-2.416,0.805-2.496,1.983	C62.894,44.956,62.785,45.057,62.654,45.057z"/><path fill="#fdfcef" d="M87.443,40.283c-1.543-0.727-3.327-0.213-3.985,1.15c-0.082,0.169-0.142,0.344-0.182,0.521"/><path fill="#472b29" d="M84.275,42.204c-0.019,0-0.037-0.002-0.057-0.006c-0.134-0.031-0.218-0.166-0.187-0.3	c0.046-0.201,0.114-0.394,0.201-0.574c0.715-1.484,2.653-2.054,4.316-1.268c0.125,0.059,0.179,0.208,0.12,0.333	c-0.06,0.126-0.21,0.177-0.333,0.12c-1.421-0.67-3.057-0.204-3.653,1.033c-0.071,0.146-0.127,0.304-0.165,0.468	C84.492,42.126,84.389,42.204,84.275,42.204z"/><path fill="#472b29" d="M69.293,47.488c-0.193,0-0.35-0.157-0.35-0.35v-2.503c0-0.193,0.156-0.35,0.35-0.35	s0.35,0.157,0.35,0.35v2.503C69.642,47.331,69.486,47.488,69.293,47.488z M69.293,43.734c-0.193,0-0.35-0.157-0.35-0.35v-1.251	c0-0.193,0.156-0.35,0.35-0.35s0.35,0.157,0.35,0.35v1.251C69.642,43.577,69.486,43.734,69.293,43.734z"/><path fill="#ee3e54" d="M74.938,40.461c0,0-0.45-3.381-1.828-4.872c-1.749-1.952-3.71-1.963-4.609-2.075	c-6.437-0.499-16.091-0.499-16.091-0.499h-0.022c0,0-9.654,0-16.091,0.499c-0.899,0.11-2.858,0.121-4.609,2.075	c-1.378,1.488-1.828,4.872-1.828,4.872s-0.461,3.968-0.461,7.936v3.721c0,3.97,0.461,7.939,0.461,7.939s0.45,3.381,1.828,4.868	c1.751,1.952,4.047,1.893,5.072,2.098c3.68,0.375,15.639,0.492,15.639,0.492s9.665-0.018,16.102-0.51	c0.899-0.115,2.858-0.126,4.609-2.077c1.378-1.486,1.828-4.868,1.828-4.868s0.461-3.968,0.461-7.939V48.4	C75.396,44.429,74.938,40.461,74.938,40.461z"/><path fill="#fdfcee" d="M48.784,42.375v12.001l10-6L48.784,42.375z"/><path fill="#472b29" d="M52.42,61.941c-3.005,0-4.734-2.311-4.806-2.408c-0.327-0.445-0.23-1.071,0.215-1.398	c0.446-0.328,1.071-0.229,1.397,0.215c0.046,0.06,1.22,1.591,3.194,1.591c1.972,0,3.182-1.575,3.193-1.592	c0.327-0.444,0.952-0.541,1.398-0.215c0.445,0.327,0.541,0.953,0.215,1.398C57.154,59.63,55.425,61.941,52.42,61.941z"/><circle cx="42.317" cy="55.636" r="2.5" fill="#1f212b"/><circle cx="42.317" cy="54.636" r="1" fill="#fff"/><circle cx="62.317" cy="55.636" r="2.5" fill="#1f212b"/><circle cx="62.317" cy="54.636" r="1" fill="#fff"/><path fill="#472b29" d="M52.41,33.014c0,0,9.654,0,16.091,0.499c0.899,0.112,2.86,0.124,4.609,2.075 c1.378,1.491,1.828,4.872,1.828,4.872s0.459,3.968,0.461,7.939v3.721c0,3.97-0.461,7.939-0.461,7.939s-0.45,3.381-1.828,4.868 c-1.751,1.952-3.71,1.963-4.609,2.077c-6.437,0.492-16.102,0.51-16.102,0.51S40.44,67.397,36.76,67.022 c-1.025-0.205-3.321-0.146-5.072-2.098c-1.378-1.486-1.828-4.868-1.828-4.868s-0.461-3.968-0.461-7.939v-3.721 c0-3.968,0.461-7.936,0.461-7.936s0.45-3.384,1.828-4.872c1.751-1.954,3.71-1.965,4.609-2.075 c6.437-0.499,16.091-0.499,16.091-0.499H52.41 M52.41,31.614h-0.022c-0.097,0-9.783,0.006-16.199,0.503l-0.031,0.002l-0.031,0.004 c-0.076,0.009-0.161,0.018-0.254,0.027c-1.065,0.107-3.28,0.331-5.228,2.503c-1.618,1.747-2.121,5.231-2.173,5.622 c-0.022,0.188-0.473,4.118-0.473,8.121v3.721c0,4.005,0.451,7.935,0.47,8.1c0.055,0.414,0.558,3.896,2.192,5.658 c1.785,1.99,4.068,2.283,5.295,2.441c0.203,0.026,0.382,0.048,0.53,0.077l0.065,0.013l0.066,0.007 c3.702,0.378,15.277,0.495,15.767,0.5c0.113,0,9.808-0.024,16.223-0.514l0.035-0.003l0.035-0.004 c0.079-0.01,0.167-0.019,0.262-0.029c1.062-0.111,3.272-0.341,5.211-2.502c1.618-1.745,2.122-5.227,2.174-5.618 c0.022-0.188,0.473-4.118,0.473-8.123v-3.721c-0.002-4.005-0.451-7.934-0.47-8.099c-0.055-0.415-0.558-3.896-2.191-5.662 c-1.927-2.15-4.141-2.377-5.205-2.486c-0.094-0.01-0.181-0.018-0.258-0.028L68.64,32.12l-0.033-0.003 C62.192,31.62,52.507,31.614,52.41,31.614L52.41,31.614z"/><path fill="#fdfcef" d="M26.98,73.496h7.934c0.133,0,0.71,0,0.874,0c2.161,0,3.903-1.756,3.818-3.889 c-0.06-1.503-1.084-2.828-2.522-3.356c-0.752-0.276-1.466-0.285-2.123-0.143c-0.093-1.392-1.274-2.494-2.72-2.494 c-0.79,0-1.5,0.331-1.998,0.856c0.109-0.526,0.121-1.087,0.011-1.665c-0.342-1.802-1.88-3.208-3.739-3.431 c-2.542-0.305-4.715,1.532-4.9,3.913c-0.722-0.936-1.865-1.543-3.155-1.543c-2.185,0-3.957,1.734-3.957,3.873 c0,0.163,0.014,0.322,0.034,0.48c-1.733,0.355-3.035,1.858-3.035,3.66c0,2.065,1.711,3.739,3.821,3.739c0.023,0,1.657,0,3.54,0 M24.98,73.496h0.36"/><path fill="#472b29" d="M11.003,69.756c0-1.85,1.239-3.483,3.003-4.038c-0.001-0.035-0.001-0.069-0.001-0.103 c0-2.411,1.999-4.373,4.457-4.373c1.056,0,2.051,0.359,2.842,1.007c0.268-0.893,0.798-1.689,1.546-2.302 c1.041-0.853,2.361-1.238,3.726-1.071c2.074,0.248,3.789,1.824,4.17,3.833c0.046,0.243,0.074,0.485,0.083,0.727 c0.437-0.21,0.921-0.323,1.414-0.323c1.506,0,2.791,1.028,3.135,2.424c0.64-0.06,1.27,0.019,1.88,0.244 c1.637,0.602,2.782,2.131,2.849,3.806c0.046,1.149-0.37,2.242-1.173,3.078c-0.813,0.846-1.959,1.331-3.144,1.331h-8.807 c-0.276,0-0.5-0.224-0.5-0.5s0.224-0.5,0.5-0.5h8.807c0.927,0,1.788-0.364,2.423-1.024c0.612-0.637,0.93-1.47,0.895-2.346 c-0.051-1.274-0.933-2.442-2.195-2.905c-0.603-0.223-1.207-0.263-1.846-0.125c-0.142,0.031-0.29-0.002-0.406-0.089 c-0.116-0.088-0.188-0.22-0.198-0.366c-0.076-1.136-1.052-2.027-2.221-2.027c-0.626,0-1.207,0.249-1.635,0.7 c-0.154,0.163-0.397,0.202-0.594,0.1c-0.198-0.104-0.303-0.326-0.258-0.545c0.1-0.482,0.103-0.977,0.009-1.472 c-0.301-1.585-1.661-2.83-3.307-3.027c-1.088-0.126-2.144,0.173-2.973,0.853c-0.804,0.66-1.29,1.584-1.369,2.604 c-0.016,0.206-0.157,0.38-0.355,0.44c-0.198,0.057-0.413-0.01-0.539-0.174c-0.662-0.858-1.668-1.349-2.76-1.349 c-1.906,0-3.457,1.513-3.457,3.373c0,0.142,0.012,0.28,0.03,0.417c0.033,0.26-0.14,0.501-0.396,0.554 c-1.528,0.312-2.636,1.646-2.636,3.17c0,1.786,1.49,3.239,3.321,3.239h3.54c0.276,0,0.5,0.224,0.5,0.5s-0.224,0.5-0.5,0.5h-3.54 C12.94,73.997,11.002,72.095,11.003,69.756z M24.48,73.497c0-0.276,0.224-0.5,0.5-0.5h0.36c0.276,0,0.5,0.224,0.5,0.5 s-0.224,0.5-0.5,0.5h-0.36C24.704,73.997,24.48,73.773,24.48,73.497z"/><path fill="#472b29" d="M17.03,68.193c0.018,0,0.036-0.002,0.055-0.006c0.135-0.03,0.22-0.164,0.189-0.299 c-0.037-0.164-0.094-0.325-0.17-0.479c-0.604-1.224-2.272-1.677-3.722-1.007c-0.125,0.058-0.18,0.206-0.122,0.331 c0.058,0.126,0.207,0.179,0.332,0.122c1.201-0.556,2.577-0.208,3.063,0.774c0.058,0.118,0.102,0.242,0.13,0.367 C16.812,68.114,16.915,68.193,17.03,68.193z"/><path fill="#472b29" d="M22.189,73.997h1.107c0.276,0,0.5-0.224,0.5-0.5s-0.224-0.5-0.5-0.5h-1.107 c-0.276,0-0.5,0.224-0.5,0.5S21.912,73.997,22.189,73.997z"/><path fill="#472b29" d="M48.784,54.876c-0.085,0-0.17-0.021-0.247-0.064c-0.157-0.089-0.253-0.256-0.253-0.436V42.375	c0-0.18,0.097-0.346,0.254-0.435c0.157-0.088,0.35-0.085,0.503,0.006l10,6.001c0.151,0.09,0.243,0.253,0.243,0.429	s-0.092,0.338-0.243,0.429l-10,6C48.962,54.853,48.873,54.876,48.784,54.876z M49.284,43.258v10.235l8.528-5.117L49.284,43.258z"/></svg>