<svg stroke="currentColor" fill="currentColor" stroke-width="0" viewBox="0 0 512 512" height="1em" width="1em" xmlns="http://www.w3.org/2000/svg"><path d="m144.2282,21.0001c-68.1947,0-123.2282,54.8865-123.2282,123.0813v43.3281h19.2406c6.7287,0 12.1906,5.8208 12.1906,13.0719v49.35c0,7.2511-5.4619,12.925-12.1906,12.925h-19.2406v27.9062h19.2406c6.7287,0 12.1906,5.6739 12.1906,12.925v49.4968c0,7.2512-5.4619,12.925-12.1906,12.925h-19.2406v1.9096c0,68.1947 55.0333,123.0808 123.2282,123.0808h223.6906c68.1948,0 123.0812-54.8861 123.0812-123.0808v-1.9096h-19.2406c-6.7287,0-12.1906-5.6738-12.1906-12.925v-49.4968c0-7.2511 5.4619-12.925 12.1906-12.925h19.2406v-27.9062h-19.2406c-6.7287,0-12.1906-5.6739-12.1906-12.925v-49.35c0-7.2511 5.4619-13.0719 12.1906-13.0719h19.2406v-43.3281c0-68.1947-54.8865-123.0813-123.0812-123.0813h-45.2375-133.2156-45.2375zm-8.8125,23.6469c-12.0307,13.0493-19.3875,30.4259-19.3875,49.6438v133.3625c0,40.6331 32.8043,73.4375 73.4375,73.4375h133.2156c40.6331,0 73.2906-32.8044 73.2906-73.4375v-133.3625c0-19.2334-7.3602-36.5911-19.3875-49.6438 32.8581,14.1689 55.8125,46.8827 55.8125,85.0406v167.8782c0,28.9831-13.1785,54.7629-33.9281,71.675 3.394,7.0533 5.4344,14.8271 5.4344,23.2063 0,26.9911-19.7978,49.2692-45.6782,53.1688 13.2485-7.8462 22.0313-22.3467 22.0313-38.9217 0-25.003-20.0881-45.0908-45.0906-45.0908h-158.3313c-25.0024,0-45.0907,20.0878-45.0907,45.0908 0,16.575 8.7828,31.0755 22.0313,38.9217-25.8804-3.8996-45.6782-26.1776-45.6782-53.1688 0-8.4266 2.004-16.2695 5.4344-23.3529-20.6996-16.9143-33.9281-42.6188-33.9281-71.5283v-167.8782c0-38.115 22.9721-70.8461 55.8125-85.0406zm70.6468,9.4h100.0219c30.5003,0 55.0781,24.5779 55.0781,55.0781v104.2813c0,30.5003-24.5778,55.0781-55.0781,55.0781h-100.0219c-30.5002,0-55.225-24.5778-55.225-55.0781v-104.2813c0-30.5002 24.7248-55.0781 55.225-55.0781zm49.9375,29.0812c-42.6153,0-77.1094,34.4941-77.1094,77.1094s34.4941,77.2563 77.1094,77.2563 77.1094-34.6409 77.1094-77.2563-34.4941-77.1094-77.1094-77.1094zm0,31.4313c25.2535,0 45.6782,20.4245 45.6782,45.6781s-20.4246,45.825-45.6782,45.825-45.6781-20.5715-45.6781-45.825 20.4246-45.6781 45.6781-45.6781zm-62.1281,261.4375h124.2563c6.7288,0 12.1906,5.4619 12.1906,12.1904s-5.4618,12.1909-12.1906,12.1909h-124.2563c-6.7288,0-12.1907-5.4619-12.1907-12.1909s5.4619-12.1904 12.1907-12.1904z"></path></svg>