<svg stroke="currentColor" fill="currentColor" stroke-width="0" viewBox="0 0 512 512" height="1em" width="1em" xmlns="http://www.w3.org/2000/svg"><path d="m195.7751,21.0596c-5.99.1535-11.9966.5664-18.0675,1.3218-98.2118,12.2222-167.7229,100.1823-155.2628,196.5188 1.7092,13.2151 3.5664,26.0205 6.6101,38.1875-.0216.8853-.147,1.7525-.147,2.6438 0,32.2722 16.7564,60.5927 42.0106,76.9625l-21.2991,105.4562c-4.0777,20.2404 16.6888,38.2294 37.3101,37.1594l143.5116-7.4906c30.9503,15.4793 66.8024,22.3825 103.8512,17.7719 98.2118-12.2221 167.7229-100.1823 155.2628-196.5188-1.0071-7.7859-2.0754-15.4682-3.3785-22.9125 .387-3.4213.7344-6.904.7344-10.4281 0-34.2294-18.8631-64.1173-46.711-79.9l22.1804-110.0094c4.0777-20.2403-16.6887-38.2293-37.3101-37.1594l-143.5116,7.4906c-25.8652-12.9229-55.2218-19.8763-85.7838-19.0937zm120.5967,41.8593h81.6709c14.4389,0 25.9996,11.5595 25.9996,25.9969v83.7187c-9.1481-3.0524-18.9238-4.7-29.0842-4.7-6.0772,0-11.8821.6335-17.6268,1.7625-6.8404-43.1825-29.3064-80.382-60.9594-106.7782zm-163.048,7.9312c58.8788-1.6258 128.3044,46.3124 174.5054,123.6688-18.2298,17.4767-28.2796,42.9052-24.8244,69.6187 .2184,1.6905.5628,3.3413.8814,4.9938 .007.0432-.007.0994 0,.1463 4.756,46.1983 43.6158,82.25 91.0718,82.25 23.5273,0 44.9994-8.9278 61.2531-23.5-3.7753,47.9649-23.6392,86.4447-58.756,103.6938-63.0403,30.965-152.8084-17.3872-209.9059-109.1281 15.4357-16.435 24.9714-38.5332 24.9714-62.8625 0-50.6679-40.9863-91.7969-91.6594-91.7969-25.7086,0-48.9862,10.563-65.6599,27.6125 1.2983-53.3177 21.4399-96.6788 59.3436-115.2969 8.5917-4.2202 17.7386-7.0021 27.1747-8.3718 3.8219-.5549 7.6791-.9198 11.6043-1.0282zm-47.8862,124.8438c21.6408,0 39.2197,17.5771 39.2197,39.2157s-17.5789,39.2156-39.2197,39.2156-39.2196-17.5771-39.2196-39.2156 17.5789-39.2157 39.2196-39.2157zm268.5151,0c21.6408,0 39.2196,17.5771 39.2196,39.2157s-17.5789,39.2156-39.2196,39.2156-39.0728-17.5771-39.0728-39.2156 17.4321-39.2157 39.0728-39.2157zm-285.995,149.6657c10.2423,3.9397 21.2908,6.1687 32.9034,6.1687 5.2147,0 10.1542-.632 15.1297-1.4687 8.1995,39.8661 29.8706,74.1836 59.6374,98.9937h-81.6709c-14.4388,0-25.9996-11.5595-25.9996-25.9968v-77.6969z"></path></svg>