<svg stroke="currentColor" fill="currentColor" stroke-width="0" viewBox="0 0 512 512" height="1em" width="1em" xmlns="http://www.w3.org/2000/svg"><path d="m256,491c45.5009,0 82.1031-36.2792 82.1031-81.3688v-122.4938c75.0668-7.6972 131.1692-25.5672 144.2313-47.2938-23.7679,14.9654-77.0125,26.755-144.2313,32.1657v-82.8424c-26.3208-5.1316-53.7862-7.9313-82.1031-7.9313s-55.7822,2.7996-82.1031,7.9313v82.8424c-67.3641-5.4257-120.7516-17.1443-144.3782-32.1657 12.9097,21.7736 69.1664,39.5789 144.3782,47.2938v122.4938c0,45.0895 36.6023,81.3688 82.1031,81.3688zm0-30.1094c-22.1138,0-39.95-18.13-39.95-40.2438s17.8362-39.95 39.95-39.95 39.95,17.8362 39.95,39.95-17.8361,40.2438-39.95,40.2438zm0-89.3c-22.1138,0-39.95-17.9831-39.95-40.0968s17.8362-39.95 39.95-39.95 39.95,17.8362 39.95,39.95-17.8361,40.0968-39.95,40.0968zm0-89.3c-22.1138,0-39.95-17.9831-39.95-40.0969s17.8362-39.95 39.95-39.95 39.95,17.8362 39.95,39.95-17.8361,40.0969-39.95,40.0969zm235-64.0375c-18.7286-111.8846-116.7838-197.2531-235-197.2531s-216.2714,85.3685-235,197.2531c29.3208-20.1572 63.8706-36.5746 102.0781-48.175 14.6745-50.1496 35.7897-91.4374 61.0999-118.675-16.1791,29.0545-29.6545,67.6578-39.5094,112.8 34.8542-8.6224 72.2828-13.3656 111.3313-13.3656s76.4772,4.7432 111.3313,13.3656c-9.8549-45.1422-23.3303-83.7454-39.5094-112.8 25.3103,27.2376 46.4255,68.5254 61.1,118.675 38.2075,11.6004 72.7573,28.0178 102.0781,48.175z"></path></svg>