<svg stroke="currentColor" fill="currentColor" stroke-width="0" viewBox="0 0 512 512" height="1em" width="1em" xmlns="http://www.w3.org/2000/svg"><path d="m339.9975,29.9471c-74.4602-24.1534-168.9843.9596-238.9555,70.9308s-95.278,164.6891-71.1246,239.1493c9.5782-66.1157 47.1447-139.5873 108.9157-201.3582s135.0488-99.1436 201.1645-108.7218zm142.0554,142.0554c-9.5782,66.1157-47.0477,139.2965-108.8187,201.0675s-135.1456,99.4343-201.2614,109.0126c74.4602,24.1534 169.1782-1.1536 239.1493-71.1247s95.0843-164.4953 70.9308-238.9554zm-92.1519-49.9035c-50.4068-50.4068-151.2436-31.3161-225.1957,42.6359s-93.0428,174.7889-42.636,225.1957 151.2437,31.3161 225.1957-42.6359 93.0427-174.7889 42.636-225.1957zm-74.0316,24.6126c.6904.5636 1.2938,1.2938 1.938,1.938l45.543,45.543c10.3068,10.3069 10.3068,26.9029 0,37.2096s-26.9028,10.3068-37.2096,0l-45.543-45.543c-10.3068-10.3069-10.3068-26.9028 0-37.2096 9.6627-9.6627 24.9181-10.3929 35.2717-1.938zm-75.6789,56.4927c.6904.5636 1.1969,1.197 1.8411,1.8411l64.923,64.9231c10.3069,10.3068 10.3069,26.9028 0,37.2095s-26.9027,10.307-37.2096,0l-64.923-64.923c-10.3068-10.3068-10.3068-26.9027 0-37.2096 9.6626-9.6626 25.0149-10.2959 35.3685-1.8411zm-56.3959,75.5821c.6904.5636 1.2938,1.2938 1.938,1.9379l45.543,45.543c10.3068,10.3068 10.3068,26.9028 0,37.2096s-26.9028,10.3068-37.2096,0l-45.543-45.543c-10.3068-10.3068-10.3068-26.9028 0-37.2096 9.6626-9.6626 24.918-10.3929 35.2716-1.9379z"></path></svg>