<svg stroke="currentColor" fill="currentColor" stroke-width="0" viewBox="0 0 512 512" height="1em" width="1em" xmlns="http://www.w3.org/2000/svg"><path d="m256.1468,20.9997-33.9281,58.0156c-55.6819,10.5942-102.148,47.0526-126.8999,96.2031-10.8593.0886-21.1176,2.643-30.4031,7.1969 20.703-81.1455 74.5922-140.154 138.7969-144.8188-2.6618-.1888-5.2359-.4403-7.9313-.4403-71.4627,0-131.6689,67.4079-150.2531,159.2125-15.0117,14.7623-24.5281,35.9406-24.5281,59.6313s9.5164,44.8689 24.5281,59.6312c18.5505,91.8393 78.7533,159.2125 150.2531,159.2125 2.6954,0 5.2695-.2522 7.9313-.4403-64.278-4.6699-118.1462-63.7206-138.7969-144.9656 9.3019,4.5731 19.5193,7.2547 30.4031,7.3437 24.7519,49.1505 71.218,85.6089 126.8999,96.2031l33.9281,58.0156 33.7813-58.1625c55.6091-10.6344 102.0256-46.9542 126.7532-96.0562 10.8838-.0894 21.1011-2.7706 30.4031-7.3437-20.6507,81.245-74.5189,140.2956-138.7969,144.9656 2.6618.1888 5.3828.4403 8.0781.4403 71.5402,0 131.7738-67.4405 150.2532-159.3594 14.9251-14.7564 24.3812-35.872 24.3812-59.4843 0-23.651-9.4135-44.8719-24.3812-59.6313-18.5462-91.8119-78.7867-159.2125-150.2532-159.2125-2.6953,0-5.4163.2515-8.0781.4403 64.2046,4.6648 118.0939,63.6733 138.7969,144.8188-9.2856-4.5539-19.5439-7.108-30.4031-7.1969-24.7276-49.102-71.1441-85.4218-126.7532-96.0562l-33.7813-58.1625zm-50.9656,87.2438-39.0687,66.9749h-43.7688c18.7882-31.0433 47.9767-54.9772 82.8374-66.9749zm101.7844.1463c34.7841,12.0176 63.9338,35.8365 82.6907,66.8281h-43.7688l-38.9219-66.8281zm-181.9781,87.0968h29.375 203.275 29.5219c33.884,0 60.9531,26.9926 60.9531,60.5125s-27.0691,60.5125-60.9531,60.5125h-29.5219-203.275-29.375c-33.8841,0-61.1-26.9926-61.1-60.5125s27.2159-60.5125 61.1-60.5125zm10.8688,24.0876c-13.1774,1.3373-23.3531,12.5938-23.3531,26.1437v20.8562c0,14.4533 11.5436,25.9969 25.9968,25.9969h75.6406c14.4533,0 26.1438-11.5436 26.1438-25.9969v-20.8562c0-14.4533-11.6905-26.1437-26.1438-26.1437h-75.6406c-.9033,0-1.7653-.0894-2.6437,0zm159.2125,0c-13.1935,1.3373-23.5,12.5938-23.5,26.1437v20.8562c0,14.4533 11.6905,25.9969 26.1437,25.9969h75.6406c14.4533,0 26.1438-11.5436 26.1438-25.9969v-20.8562c0-14.4533-11.6905-26.1437-26.1438-26.1437h-75.6406c-.9033,0-1.7642-.0894-2.6437,0zm-172.7251,117.2062h43.7688l39.0687,66.975c-34.8608-11.9977-64.0492-35.9316-82.8374-66.975zm223.5437,0h43.7688c-18.7569,30.9916-47.9066,54.8105-82.6907,66.8281l38.9219-66.8281z"></path></svg>