<svg stroke="currentColor" fill="currentColor" stroke-width="0" viewBox="0 0 512 512" height="1em" width="1em" xmlns="http://www.w3.org/2000/svg"><path d="m256,21.0014c-24.351,0-44.1947,18.1184-45.5309,40.831-6.9715,2.9479-13.3889,6.8346-18.7999,11.7499-7.5862,7.2731-11.7932,15.7813-14.247,23.7936-3.3018,10.1714-4.7338,20.4393-5.2875,30.403-.3387,6.0153-.5592,11.9368-.4418,17.9186-7.0791-2.1915-14.4238-3.5719-22.0312-4.4062-.565-1.3947-1.0203-2.7146-1.6158-4.1125-2.7086-6.5033-6.0451-13.5647-10.8682-20.2686-4.9444-6.6519-10.7704-12.1806-16.4499-17.0374-6.4272-5.5511-13.0979-10.6751-19.8282-15.5687-7.951-5.4069-15.8874-10.6341-23.7936-16.0093 6.8666,6.5768 13.9161,13.0149 20.7095,19.5343 5.6663,5.7956 11.0336,11.6855 16.009,17.7718 4.4749,5.4852 8.5267,11.1136 11.1625,16.7436 2.6987,5.5988 4.0932,11.4918 5.4341,17.7718 .0432.2054-.0504.3802 0,.5875-60.9267,3.4738-109.0243,53.6685-109.421,115.2962 .3992,61.6278 48.4947,111.9694 109.421,115.4431-.0504.2078.0432.3821 0,.5875-1.3409,6.28-2.7353,12.173-5.4341,17.7718-2.6357,5.63-6.6876,11.2584-11.1625,16.7436-4.9754,6.0863-10.3427,11.9762-16.009,17.7718-6.7929,6.5193-13.8428,12.9575-20.7095,19.5343 7.9062-5.3751 15.8426-10.6023 23.7936-16.0093 6.7298-4.8935 13.4005-10.1644 19.8282-15.7155 5.6799-4.8568 11.506-10.2386 16.4499-16.8905 4.8226-6.7039 8.1596-13.9121 10.8682-20.4155 .5953-1.3979 1.0509-2.5709 1.6159-3.9656 7.6074-.8342 14.9516-2.2147 22.0312-4.4062-.1175,5.9818.1038,11.9033.4418,17.9186 .5535,9.9637 1.9857,20.2315 5.2874,30.403 2.4544,8.0123 6.6608,16.5205 14.2471,23.7936 5.411,4.9153 11.8283,8.802 18.7998,11.7499 1.3691,22.6834 21.202,40.6841 45.531,40.6841s44.0261-18.0008 45.3839-40.6841c6.9841-2.9489 13.3855-6.8287 18.7998-11.7499 7.5895-7.2731 11.796-15.7813 14.2471-23.7936 3.3054-10.1715 4.7352-20.4393 5.2874-30.403 .3387-6.0153.5643-11.9368.4418-17.9186 7.0819,2.1915 14.4237,3.572 22.0316,4.4062 .5614,1.3947 1.0232,2.5678 1.6154,3.9656 2.7114,6.5034 6.0428,13.7117 10.8687,20.4155 4.9405,6.6519 10.7671,12.0337 16.4499,16.8905 6.4234,5.5511 13.0974,10.822 19.8282,15.7155 7.9481,5.407 15.8901,10.6342 23.7931,16.0093-6.8637-6.5767-13.9194-13.0149-20.7089-19.5342-5.6691-5.7955-11.0365-11.6855-16.009-17.7718-4.4744-5.4852-8.53-11.1136-11.1625-16.7436-2.6992-5.5988-4.0918-11.4918-5.4345-17.7718-.043-.2054.05-.3802 0-.5875 60.9299-3.4737 109.1699-53.8153 109.568-115.4431-.3992-61.6277-48.6381-111.8224-109.568-115.2962 .05-.2078-.043-.3821 0-.5875 1.3427-6.28 2.7353-12.173 5.4345-17.7718 2.6325-5.6301 6.6881-11.2585 11.1625-16.7437 4.973-6.0862 10.3399-11.9762 16.009-17.7718 6.7895-6.5193 13.8456-12.9575 20.709-19.5343-7.903,5.3751-15.845,10.6023-23.7931,16.0093-6.7309,4.8936-13.4048,10.0176-19.8282,15.5687-5.6828,4.8568-11.5094,10.3855-16.45,17.0374-4.8259,6.7039-8.1573,13.7653-10.8686,20.2686-.5924,1.3979-1.0543,2.7178-1.6155,4.1125-7.6078.8343-14.9496,2.2147-22.0315,4.4062 .1225-5.9818-.1031-11.9033-.4418-17.9186-.552-9.9637-1.982-20.2315-5.2874-30.403-2.4512-8.0123-6.6572-16.5205-14.2471-23.7936-5.4144-4.9212-11.8158-8.8009-18.7999-11.7499-1.324-22.7126-21.0328-40.831-45.3839-40.831zm0,38.9216c40.5232,0 73.4371,30.3872 73.4371,67.8559s-32.9139,67.8558-73.4371,67.8558-73.4371-30.3872-73.4371-67.8558 32.914-67.8559 73.4371-67.8559zm0,33.0467c-18.7308,0-33.9281,15.197-33.9281,33.9279s15.1973,33.9279 33.9281,33.9279 33.9282-15.197 33.9282-33.9279-15.1974-33.9279-33.9282-33.9279zm-132.7742,69.7652c1.5895-.0804 3.2392,0 4.8466,0 51.5122,0 93.2653,41.7551 93.2653,93.2651s-41.7531,93.2651-93.2653,93.2651-93.2648-41.7551-93.2648-93.2651c0-49.9003 39.1385-90.7671 88.4182-93.2651zm256.2951,0c1.5919-.0804 3.2374,0 4.8471,0 51.5099,0 93.2648,41.7551 93.2648,93.2651s-41.7549,93.2651-93.2648,93.2651-93.2648-41.7551-93.2648-93.2651c0-49.9003 39.1404-90.7671 88.4177-93.2651zm-276.1233,33.3404c-33.1381,0-60.0713,26.9322-60.0713,60.0715s26.9332,59.9246 60.0713,59.9246 59.9246-26.7853 59.9246-59.9246-26.7841-60.0715-59.9246-60.0715zm305.2048,0c-33.1403,0-59.9246,26.9322-59.9246,60.0715s26.7843,59.9246 59.9246,59.9246 60.0714-26.7853 60.0714-59.9246-26.9328-60.0715-60.0714-60.0715zm-152.6024,19.5343c10.6262,0 19.2408,18.0574 19.2408,40.3904s-8.6146,40.3904-19.2408,40.3904-19.2407-18.0574-19.2407-40.3904 8.6146-40.3904 19.2407-40.3904zm0,100.7557c40.5232,0 73.4371,30.5341 73.4371,68.0027s-32.9139,67.709-73.4371,67.709-73.4371-30.2403-73.4371-67.709 32.914-68.0027 73.4371-68.0027zm0,34.956c-18.7308,0-33.9281,15.197-33.9281,33.9279s15.1973,33.9279 33.9281,33.9279 33.9282-15.197 33.9282-33.9279-15.1974-33.9279-33.9282-33.9279z"></path></svg>