<svg stroke="currentColor" fill="currentColor" stroke-width="0" viewBox="0 0 512 512" height="1em" width="1em" xmlns="http://www.w3.org/2000/svg"><path d="m255.9996,20.9997c-14.4357,0-28.5557,1.1454-42.2722,3.2313l21.6662,210.1784-60.3026-201.5127c-26.8867,8.256-51.4751,20.5949-72.7276,35.9844l97.4242,182.7128-125.1512-159.0659c-17.8034,18.0622-31.6683,38.9103-40.9094,61.5407l145.9093,126.9002-155.4546-95.1751c-2.0171,10.375-3.1817,21.0181-3.1817,31.8719 0,13.0584 1.4983,25.8396 4.3939,38.1875l153.7876,59.3376-143.1815-28.0531c9.9229,22.0271 24.4652,42.3312 42.5756,59.7782l121.5154-2.4968-94.0911,24.8219c21.1408,14.6991 45.3819,26.4181 71.8181,34.2219l57.5756-41.7125-22.727,129.2502h19.2426l13.0289-102.6177-1.6655,102.6177h55.9094l-22.7276-129.2502 57.5763,41.8594c26.4643-7.7919 50.6535-19.669 71.8181-34.3688l-93.485-24.3813 121.0606,2.0562c18.1104-17.4469 32.6527-37.7511 42.5756-59.7782l-143.4849,27.9063 154.091-59.1907c2.8956-12.3479 4.3939-25.1292 4.3939-38.1875 0-10.8538-1.1646-21.4969-3.1817-31.8719l-155.1519,95.1751 145.6066-126.9002c-9.2663-22.6918-23.1889-43.5911-41.0608-61.6876l-124.9998,159.0658 97.2729-182.7128c-21.2496-15.3577-45.8597-27.6029-72.7276-35.8375l-60.1513,201.5127 21.5148-210.1784c-13.671-2.0714-27.7363-3.2313-42.1216-3.2313zm0,246.4566c30.7999,0 55.7581,17.3878 55.7581,38.9219s-24.9582,39.0688-55.7581,39.0688-55.7573-17.5347-55.7573-39.0688 24.9582-38.9219 55.7573-38.9219z"></path></svg>