<svg stroke="currentColor" fill="currentColor" stroke-width="0" viewBox="0 0 512 512" height="1em" width="1em" xmlns="http://www.w3.org/2000/svg"><path d="m171.6937,21c-16.3739,0-29.6687,13.9039-29.6687,31.2342v67.8227c0,11.5289 5.9276,21.5094 14.6875,26.9209l-135.7125,89.3892 87.9784,254.6329h147.0217 147.1687l87.8312-254.6329-135.7125-89.3892c8.7599-5.4116 14.6875-15.3921 14.6875-26.9209v-67.8227c0-17.3303-13.2949-31.2342-29.6688-31.2342h-168.6125zm18.6529,33.7627h131.3067c2.4257,0 4.6624.5607 6.7558,1.4873 .0504.0216.1081-.0216.1456,0 2.0463.9245 3.885,2.2347 5.4345,3.8671 .7887.8317 1.5769,1.6969 2.2029,2.6773 1.8781,2.941 2.9375,6.5598 2.9375,10.4113v40.1582c0,3.8515-1.0594,7.4443-2.9375,10.4114-.6263.9891-1.4142,1.8362-2.2029,2.6772-1.3061,1.3914-2.8923,2.5133-4.5533,3.4209l-73.4375-48.3386-73.4375,48.3386c-1.6788-.9119-3.2162-2.029-4.5534-3.4209-.7886-.841-1.5769-1.6881-2.2029-2.6772-1.8781-2.9671-2.9375-6.5599-2.9375-10.4114v-40.1582c0-3.8515 1.0594-7.4704 2.9375-10.4113 .626-.9804 1.4142-1.8456 2.2029-2.6773 3.1875-3.2787 7.5261-5.3544 12.3375-5.3544zm52.875,62.6171-6.4624,69.0126c-34.3636,5.8734-63.5788,27.2036-80.7808,56.8165-23.9813-1.6232-47.3685-3.7134-70.0596-6.3956l157.3029-119.4336zm25.5568,0 157.3029,119.5823c-22.6822,2.68-46.1028,4.7978-70.0596,6.3956-17.1907-29.661-46.4003-51.075-80.7808-56.9652l-6.4624-69.0126zm-12.7784,100.9905c1.4429,0 2.8327.075 4.2591.1492h.1456 .2912c2.2095.1268 4.4486.2948 6.6092.5946 .4829.0649.9884.222 1.4692.2976 1.3315.2104 2.6574.4692 3.9654.7437 .0505.007.0987-.007.1456,0 .0937.0216.2018-.0216.2912,0 .1081.0216.1924.1261.2962.1485 1.4081.3085 2.7316.6608 4.1125,1.0412 2.1606.5931 4.3739,1.32 6.4625,2.0823 1.0946.4 2.1578.7452 3.2308,1.1898 1.0034.4173 1.9542.8831 2.9374,1.3386 1.3941.6421 2.7604,1.3652 4.1126,2.0822 .94.4987 1.8711.954 2.7908,1.4874 2.4228,1.4083 4.7808,2.969 7.05,4.6108 2.2997,1.667 4.4866,3.4632 6.6092,5.3544 2.0139,1.7938 3.8878,3.6709 5.7283,5.6519 .0843.0915.2068.2047.2912.2976 7.7738,8.449 13.8232,18.4564 17.7721,29.5981 .0894.2573.2068.485.2912.7437 .6508,1.8918 1.2398,3.8508 1.7625,5.8007 .08.302.2205.5888.2962.8924 .583,2.2751 1.0651,4.6457 1.4683,6.9905 .3805,2.1185.6594,4.226.8817,6.3956 .2912,2.8642.4418,5.683.4418,8.6266 0,3.3691-.2213,6.5482-.5874,9.8164-.6003,5.3763-1.7117,10.738-3.2313,15.7658-4.8951,16.1683-14.178,30.2303-26.5841,40.7532-2.0911,1.7759-4.208,3.3444-6.4625,4.9082-13.364,9.2792-29.5137,14.7247-46.8533,14.7247s-33.489-5.4456-46.8534-14.7247c-2.2546-1.5638-4.3715-3.1322-6.4625-4.9082-4.1078-3.4847-7.9157-7.3832-11.3092-11.6013-.0468-.0288 0-.1196 0-.1492-5.0967-6.3445-9.3116-13.2926-12.4841-20.9715v-.1485c-1.0598-2.574-1.9773-5.1882-2.7909-7.8829-1.5237-5.0278-2.6264-10.3895-3.2313-15.7659-.0468-.3856-.1081-.6544-.1457-1.0411-.2867-2.893-.4418-5.8047-.4418-8.7753 0-2.9436.1457-5.7622.4418-8.6266 .2115-2.1593.5189-4.2862.8817-6.3956 .4042-2.3448.885-4.7154 1.4683-6.9905 .0799-.3012.2162-.5924.2961-.8923 .5226-1.9498 1.1116-3.9089 1.7625-5.8007 .0893-.2558.2021-.4893.2914-.7437 3.9485-11.1417 10.0016-21.149 17.7721-29.5981 .0893-.0951.2021-.2025.2914-.2976 1.8363-1.981 3.7144-3.8581 5.7284-5.6519 2.123-1.8912 4.3052-3.6875 6.6091-5.3544 2.2649-1.6418 4.6229-3.2025 7.05-4.6108 .916-.5333 1.8514-.9891 2.7909-1.4874 1.3574-.724 2.7129-1.4339 4.1125-2.0823 .1924-.0887.3949-.2097.5874-.2976l1.0279-.4461c.4324-.1888.884-.4137 1.3221-.5953 1.0679-.4439 2.1414-.7903 3.2308-1.1898 2.0887-.7623 4.3019-1.4893 6.4625-2.0823 .2537-.0721.4821-.2299.7346-.2976 1.1412-.3012 2.2203-.4908 3.3779-.7437l.7346-.1485c1.3113-.2738 2.6338-.5333 3.9653-.7437 .4828-.0764.9837-.2299 1.4692-.2976 2.1611-.2998 4.3969-.4684 6.6092-.5946 1.5726-.0908 3.1006-.1492 4.7-.1492zm0,16.9558c-37.1981,0-67.4158,30.932-67.4158,69.1614 0,27.6508 15.8038,51.4137 38.6284,62.4683 1.614-44.7959 13.8927-79.5728 28.7875-79.5728s27.1712,34.7769 28.7875,79.5728c22.8223-11.0547 38.6284-34.8175 38.6284-62.4683 0-38.2294-30.2206-69.1614-67.4159-69.1614zm-184.3283,30.3417c23.2391,3.0021 47.2806,5.4235 71.9692,7.288-2.6734,10.0704-4.1125,20.5916-4.1125,31.5317 0,18.3224 4.0091,35.6609 11.1625,51.1645l-39.3625,28.557-39.6567-118.5412zm368.6567,0-39.5096,118.5412-39.5096-28.557c7.1534-15.5036 11.1625-32.8421 11.1625-51.1645 0-10.9401-1.4392-21.4613-4.1125-31.5317 24.6534-1.8652 48.7362-4.2878 71.9692-7.288zm-98.4067,119.5823 50.525,23.9462-17.7716,53.2468h-101.3438v-39.7121c27.0038-4.1296 50.987-17.7678 68.5904-37.4809zm-171.8433.1485c17.5963,19.6696 41.6232,33.2082 68.5904,37.3322v39.712h-101.1971l-17.7716-53.2468 50.3784-23.7974z"></path></svg>