<svg stroke="currentColor" fill="currentColor" stroke-width="0" viewBox="0 0 512 512" height="1em" width="1em" xmlns="http://www.w3.org/2000/svg"><path d="m120.3052,21.0337c-.209.3805-.5261.7935-.7343,1.1748-.7962,1.4588-1.5701,2.9407-2.3498,4.4057-2.8577,5.3714-5.6593,10.7303-8.3707,16.1539-8.9307,17.8628-17.1783,36.007-24.6714,54.336-9.1965,22.4891-17.287,45.3417-23.0559,68.7276-4.5928,18.4443-7.9211,37.5408-7.0492,56.8325-5.1989-7.3268-10.2738-14.8798-14.6851-23.0561-4.8451-9.1648-9.2989-18.4572-11.0145-28.7834-1.6026-8.7159-.7891-18.6086.7342-28.3428 1.702-10.5973 4.4502-20.9994 7.6365-31.133 2.6539-8.4316 5.7127-16.6149 8.9581-24.6715 .9994-2.4806 1.8799-5.0545 2.937-7.4895 .2882-.668.5837-1.2464.8812-1.9091-.317.5815-.7133,1.1749-1.0275,1.7622-1.2213,2.2762-2.3555,4.5666-3.525,6.9021-3.7981,7.5848-7.3014,15.5055-10.5735,23.6435-3.93,9.7685-7.4052,19.9261-9.9856,30.8393-2.3959,9.9493-4.1677,20.9186-3.084,32.3079 1.3878,12.8945 5.5527,24.5802 10.1326,34.8043 5.2716,11.9784 11.5059,22.9562 17.9161,33.4827 5.5281,8.1466 11.0592,16.3504 16.5945,24.5246 4.4063,8.0715 9.8256,15.6934 16.1543,22.7624 13.9343,15.5676 30.5815,28.5796 46.2587,41.2659 14.902,12.2511 29.3025,24.096 38.329,37.5947 4.3738,6.4372 7.5911,13.251 9.252,20.1189 1.9016,7.515 2.0486,15.558.7343,23.4966-1.31,8.3074-7.1192,16.4893-14.9791,22.175-6.7229,5.07-15.6615,8.7203-25.2594,11.8952 .086-1.1845.1442-2.1717.1442-3.3776 0-26.8395-22.3613-48.6599-50.371-49.4898 15.513,6.4776 24.3543,18.4356 19.6786,28.0491-5.0072,10.2938-23.3607,13.8173-40.9727,7.7832-10.3048-3.5305-18.1827-9.5488-21.8813-16.007-6.5831,8.3122-10.5729,18.4752-10.5729,29.6645 0,27.363 23.3571,49.4897 52.1328,49.4897 4.7492,0 17.3317-1.2107 25.8466-2.9371 11.5679-2.3456 23.0839-5.4896 34.0697-9.9861 14.858-6.0808 29.7614-12.3223 42.5881-22.7623 12.0406-8.2195 22.4203-26.5577 24.0834-42.5877 .9922-10.9389.1729-22.0542-3.3773-32.7484-3.3052-9.7154-8.713-18.6038-15.126-26.5806-13.2433-16.2609-29.9128-28.7413-46.1125-40.0911-16.8986-12.0342-33.7187-23.2181-47.1399-36.4198-13.7606-13.5189-24.0842-29.6655-27.6084-47.1401-4.198-19.9763-2.2878-41.1739 1.1752-62.413 3.8039-23.0363 10.121-46.1258 17.4751-68.8745 5.9937-18.5331 12.6221-36.828 20.1189-55.0702 2.2762-5.5386 4.6202-11.0937 7.0492-16.5945 .6629-1.5002 1.3763-3.057 2.0558-4.5525 .1801-.3905.4107-.7845.5909-1.1748zm271.3857,0c.1801.3905.4107.7843.5908,1.1748 .6774,1.4955 1.3936,3.0523 2.0565,4.5525 2.429,5.5008 4.626,11.0559 6.9023,16.5945 7.4967,18.2422 14.2722,36.5371 20.2658,55.0702 7.3541,22.7486 13.5243,45.8381 17.3281,68.8745 3.4631,21.239 5.5203,42.4367 1.3223,62.413-3.5243,17.4746-13.9948,33.6212-27.7554,47.1401-13.4212,13.2017-30.0943,24.3856-46.9937,36.4198-16.199,11.3498-32.8685,23.8302-46.1117,40.0911-6.413,7.9768-11.8208,16.8652-15.1261,26.5806-3.5487,10.6942-4.5165,21.8096-3.5242,32.7484 1.663,16.0299 12.0427,34.3682 24.0833,42.5877 12.8268,10.44 27.8772,16.6815 42.7352,22.7623 10.9857,4.4965 22.3548,7.6405 33.9227,9.9861 8.5149,1.7264 21.3913,2.9371 26.1406,2.9371 28.7749,0 51.9857-22.1268 51.9857-49.4897 0-11.2441-3.9602-21.4785-10.5735-29.8114-3.6295,6.5002-11.2235,12.6031-21.5874,16.1539-17.612,6.0341-35.9647,2.5106-40.9719-7.7832-4.6707-9.6016 3.9242-21.5656 19.3846-28.0491-27.9521.9028-50.518,22.6977-50.518,49.4898 0,1.2059.072,2.1932.1441,3.3776-9.5979-3.1749-18.2425-6.8252-24.9653-11.8952-7.8599-5.6857-13.8161-13.8675-15.1261-22.175-1.315-7.9387-1.3143-15.9816.5909-23.4966 1.6601-6.8679 5.0252-13.6817 9.399-20.1189 9.0265-13.4987 23.4269-25.3436 38.3289-37.5947 15.6773-12.6864 32.1775-25.6984 46.1117-41.2659 6.3287-7.069 11.8951-14.6909 16.3013-22.7624 5.5354-8.1742 11.0664-16.378 16.5939-24.5246 6.4108-10.5265 12.6451-21.5043 17.9168-33.4827 4.5799-10.2241 8.7447-21.9099 10.1325-34.8044 1.0838-11.3893-.6917-22.3586-3.084-32.3079-2.5803-10.9132-6.0556-21.0708-9.9862-30.8393-3.2714-8.138-6.7748-16.0587-10.5729-23.6435-1.1702-2.3356-2.3036-4.6259-3.525-6.9021-.317-.5873-.7061-1.1809-1.0275-1.7622 .2954.6629.4468,1.2409.7343,1.9091 1.057,2.435 2.0846,5.0089 3.084,7.4895 3.2447,8.0566 6.3042,16.2399 8.958,24.6715 3.1863,10.1336 5.9339,20.5358 7.6358,31.133 1.524,9.7342 2.3375,19.6269.7343,28.3428-1.715,10.3262-6.1688,19.6185-11.0138,28.7834-4.412,8.1762-9.487,15.7293-14.6851,23.0561 .8719-19.2917-2.4564-38.3882-7.0493-56.8325-5.7695-23.386-14.0063-46.2385-23.2028-68.7276-7.4932-18.329-15.5937-36.4733-24.5244-54.336-2.7122-5.4235-5.66-10.7824-8.5178-16.1539-.7796-1.465-1.4065-2.9469-2.2027-4.4057-.209-.3812-.5261-.7946-.7343-1.1748zm-135.6929,32.0142c-71.2983,0-129.0846,57.9233-129.0846,129.2314 0,65.0286 81.6766,111.2711 110.5813,173.4344 8.7173,18.7482 14.5323,22.8435 18.5033,59.1822 3.971-36.3387 9.786-40.434 18.5034-59.1822 28.9046-62.1634 110.5812-108.4059 110.5812-173.4344 0-71.3081-57.7863-129.2314-129.0846-129.2314zm0,81.2102c45.835,0 82.9729,37.1315 82.9729,82.9724s-37.1379,82.9725-82.9729,82.9725-82.9721-37.1316-82.9721-82.9725 37.1378-82.9724 82.9721-82.9724zm0,50.0771c-27.7287,0-50.224,21.8904-50.224,48.9024s22.4953,48.9023 50.224,48.9023 50.224-21.8904 50.224-48.9023-22.4953-48.9024-50.224-48.9024z"></path></svg>