<svg stroke="currentColor" fill="currentColor" stroke-width="0" viewBox="0 0 512 512" height="1em" width="1em" xmlns="http://www.w3.org/2000/svg"><path d="m256.0001,20.9998-36.7751,43.9156c11.7989-2.4698 24.1223-3.8188 36.7751-3.8188s24.9778,1.349 36.7743,3.8188l-36.7743-43.9156zm0,47.7344c-15.5692,0-30.6365,2.155-44.8474,5.875l-13.1554,15.7157c18.4909-7.8009 38.2318-11.75 58.0028-11.75s39.5102,3.949 58.0028,11.75l-13.1553-15.7157c-14.2129-3.72-29.2815-5.875-44.8475-5.875zm0,17.625c-37.9022,0-75.741,14.5585-104.6437,43.1813-35.4314,35.0855-49.1328,83.5273-41.1105,128.9561h38.2699c-8.5813-35.7012 1.1759-74.8155 29.3003-102.6655 43.1267-42.7075 113.2395-42.7066 156.3677,0 28.1224,27.8506 37.8765,66.9643 29.3002,102.6655h38.27c8.0232-45.4283-5.6796-93.8699-41.1102-128.9561-28.9031-28.6225-66.7452-43.1813-104.6437-43.1813zm145.7539,172.1374c-5.0663,28.6921-18.7345,55.9785-41.1102,78.1376-57.8072,57.2446-151.3307,57.2451-209.1384,0-22.3762-22.1586-36.1933-49.4464-41.2595-78.1376h-59.6472l205.4014,203.2751 205.4006-203.2751h-59.6467zm-38.27,0h-23.3204-14.6504-139.0266-14.6504-23.3204c4.5754,19.0449 14.4487,36.9909 29.4492,51.8471 43.1258,42.7047 113.0915,42.7047 156.2188,0 15.0005-14.8581 24.7225-32.8023 29.3002-51.8471zm-312.4365-150.3999v11.4563 20.1219h-23.6199v10.7219h8.5216 43.3518 8.671v-10.7219h-23.6203v-20.1219h86.1069c5.1893-4.2139 10.5567-8.0442 16.145-11.4563h-102.2519-13.3043zm294.4976,0c5.5906,3.4121 10.9562,7.2424 16.145,11.4563h86.1066v20.1219h-23.6192v10.7219h8.6704 43.3524 8.5205v-10.7219h-23.6184v-20.1219-11.4563h-13.3057-102.2516zm-309.5958,50.0844v46.5596c0,10.3019 9.7111,18.653 21.676,18.653s21.6759-8.351 21.6759-18.653v-46.5596h-43.3518zm396.8986,0v46.5596c0,10.3019 9.7088,18.653 21.6769,18.653 11.9631,0 21.6755-8.351 21.6755-18.653v-46.5596h-43.3524zm-176.8478,1.6157c-18.9532-7e-05-37.8716,7.1323-52.3223,21.4437-14.0859,13.9474-21.1834,32.1065-21.5269,50.3782h147.6976c-.3006-18.2712-7.2935-36.4307-21.377-50.3782-14.4517-14.3111-33.5224-21.4437-52.4714-21.4437zm0,13.5125c13.0764,0 23.6189,10.5049 23.6189,23.3531s-10.5425,23.2063-23.6189,23.2063-23.6199-10.3579-23.6199-23.2063 10.5426-23.3531 23.6199-23.3531zm-73.4004,67.5623c.3899,3.611 1.0157,7.1887 1.943,10.7221h142.9139c.9297-3.5334 1.5482-7.1111 1.9435-10.7221h-146.8004zm-161.5997,17.625 235.0001,232.5035 234.9999-232.5035h-17.3407l-217.6592,215.3194-217.659-215.3194h-17.3411zm55.0125,67.8567v119.5559h-12.408v19.975h74.2972v-19.975h-11.6597v-69.9125l-50.2295-49.6434zm359.9753,0-50.2298,49.6434v69.9125h-11.8095v19.975h74.4471v-19.975h-12.4078v-119.5559zm-179.9877,71.3809c9.8071,0 17.7891,7.8419 17.7891,17.4784s-7.982,17.3313-17.7891,17.3313-17.7895-7.6948-17.7895-17.3313 7.9811-17.4784 17.7895-17.4784z"></path></svg>