<svg stroke="currentColor" fill="currentColor" stroke-width="0" viewBox="0 0 512 512" height="1em" width="1em" xmlns="http://www.w3.org/2000/svg"><path d="m243.5608,495.721c-70.0559-.8487-137.1015-8.7687-199.3304-22.6308-3.2915-24.0388-6.3647-48.7475-8.9924-74.037h100.7143c24.2357,34.6434 63.0913,58.2908 107.6085,62.0472v34.6206zm24.8788,0v-34.6206c44.4865-3.76 83.2226-27.4283 107.4583-62.0472h100.8644c-2.6276,25.2895-5.7009,49.9982-8.9923,74.037-62.229,13.8621-129.2726,21.7821-199.3304,22.6308zm-12.4397-66.993c-62.6328,0-113.4532-50.8175-113.4532-113.4535s50.8205-113.4535 113.4532-113.4535c62.6381,0 113.3036,50.8175 113.3036,113.4535s-50.6655,113.4535-113.3036,113.4535zm0-24.7289c26.1934,0 47.3597-25.9634 47.3597-57.8508s-21.1664-57.7009-47.3597-57.7009-47.3597,25.8136-47.3597,57.7009 21.1668,57.8508 47.3597,57.8508zm-223.7594-35.8195c-2.8699-31.4435-5.2501-63.7091-7.0442-96.6678h90.9728c-4.3053,13.7932-6.5944,28.5516-6.5944,43.7628 0,18.6648 3.524,36.4898 9.8916,52.905h-87.2258zm360.1438,0c6.3685-16.4206 10.0412-34.2329 10.0412-52.905 0-15.2105-2.2896-29.9702-6.5944-43.7628h90.9723c-1.7903,32.9587-4.1739,65.2243-7.0438,96.6678h-87.3754zm-368.6862-127.5415c-1.3712-31.6641-2.2311-64.0805-2.5481-96.8176h469.7003c-.3162,32.7371-1.1793,65.1535-2.5476,96.8176h-106.41c-25.5042-42.9866-72.2793-71.7889-125.8928-71.7889-53.615,0-100.5368,28.7945-126.0425,71.7889h-106.2594zm-2.6982-127.5415c0-23.2545.35-46.1987.8997-68.9413 33.6093-8.4093 68.8027-14.9491 105.21-19.6332v88.5746h-106.1097zm130.8389,0v-91.4222c33.8524-3.4813 68.6291-5.3954 104.1611-5.3954 35.4826,0 70.2051,1.9241 104.012,5.3954v91.4222h-208.1731zm233.0514,0v-88.5746c36.4097,4.6841 71.5988,11.224 105.2109,19.6332 .5449,22.7426.8844,45.6868.8988,68.9413h-106.1097z"></path></svg>