<svg stroke="currentColor" fill="currentColor" stroke-width="0" viewBox="0 0 512 512" height="1em" width="1em" xmlns="http://www.w3.org/2000/svg"><path d="M256.938 48A32 32 0 0 0 224 80a32 32 0 0 0 64 0 32 32 0 0 0-31.063-32zm-208 112A32 32 0 0 0 16 192a32 32 0 0 0 64 0 32 32 0 0 0-31.063-32zm207.53 0A16 16 0 0 0 240 176a16 16 0 0 0 32 0 16 16 0 0 0-15.53-16zm208.47 0A32 32 0 0 0 432 192a32 32 0 0 0 64 0 32 32 0 0 0-31.063-32zM192 208c-48 0-16 32 0 48 0 11.41-.386 21.89-1 32 19.59-9.974 41.51-16 65-16 23.49 0 45.41 6.026 65 16-.614-10.11-1-20.59-1-32 16-16 48-48 0-48-16 0-32 16-64 16s-48-16-64-16zm-66 31c-5.066.26-10.97 5.32-18 17.5-8 13.856-2.5 35.786-18.5 63.5S52 353.642 44 367.5c-24 41.57 19.642 29.856 41.5 24 9.648 5.57 18.66 11.062 27 16.5 2.637-47.1 27.794-88.193 65-112.5-8.915-4.568-18.138-9.306-28-15-4.027-15.026-10.87-40.626-22.5-41.5-.33-.025-.662-.017-1 0zm259 0c-11.632.872-18.474 26.473-22.5 41.5-9.862 5.694-19.085 10.432-28 15 37.206 24.307 62.363 65.4 65 112.5 8.34-5.438 17.352-10.93 27-16.5 21.856 5.856 65.5 17.57 41.5-24-8-13.856-29.5-19.786-45.5-47.5S412 270.358 404 256.5c-7.5-12.99-13.714-17.895-19-17.5zM48.47 256A16 16 0 0 0 32 272a16 16 0 0 0 32 0 16 16 0 0 0-15.53-16zm416 0A16 16 0 0 0 448 272a16 16 0 0 0 32 0 16 16 0 0 0-15.53-16zM256 304c-64 0-112 48-112 112v48h224v-48c0-64-48-112-112-112z"></path></svg>