<svg stroke="currentColor" fill="currentColor" stroke-width="0" viewBox="0 0 512 512" height="1em" width="1em" xmlns="http://www.w3.org/2000/svg"><path d="M305.975 298.814l22.704 2.383V486l-62.712-66.965V312.499l18.214 8.895zm-99.95 0l-22.716 2.383V486l62.711-66.965V312.499l-18.213 8.895zm171.98-115.78l7.347 25.574-22.055 14.87-1.847 26.571-25.81 6.425-10.803 24.314-26.46-2.795-18.475 19.087L256 285.403l-23.902 11.677-18.475-19.15-26.46 2.795-10.803-24.313-25.81-6.363-1.847-26.534-22.118-14.92 7.348-25.573-15.594-21.544 15.644-21.52-7.398-25.523 22.068-14.87L150.5 73.03l25.86-6.362 10.803-24.313 26.46 2.794L232.098 26 256 37.677 279.902 26l18.475 19.149 26.46-2.794 10.803 24.313 25.81 6.425 1.847 26.534 22.055 14.87-7.347 25.574 15.656 21.407zm-49.214-21.556a72.242 72.242 0 1 0-72.242 72.242 72.355 72.355 0 0 0 72.242-72.242zm-72.242-52.283a52.282 52.282 0 1 0 52.282 52.283 52.395 52.395 0 0 0-52.282-52.245z"></path></svg>