<svg stroke="currentColor" fill="currentColor" stroke-width="0" viewBox="0 0 512 512" height="1em" width="1em" xmlns="http://www.w3.org/2000/svg"><path d="M256 41c-29.8 0-50.9 10.83-65.3 26.98C176.4 84.12 169 106 169 128c0 17.5 4.9 29.1 12.3 39h8.8l-7.1-38.2v-.8c0-7 3.8-13.2 8.6-17.3 4.9-4.2 10.8-7 17.6-9.2 1.9-.6 3.8-1.2 5.8-1.74V71h82v28.76c2 .54 3.9 1.14 5.8 1.74 6.8 2.2 12.7 5 17.6 9.2 4.8 4.1 8.6 10.3 8.6 17.3v.8l-7.1 38.2h8.8c7.4-9.9 12.3-21.5 12.3-39 0-22-7.4-43.88-21.7-60.02C306.9 51.83 285.8 41 256 41zm-23 48v14h46V89h-46zm-44.5 96l4.7 14h27.2l-3.4-14h-28.5zm46.9 0l3.4 14h34.4l3.4-14h-41.2zm59.6 0l-3.4 14h27.2l4.7-14H295zm-121.5 11.9l-27.3 3.9c-22.5 7.6-41.3 19-54.2 30-12.48 10.7-18.29 22-18.79 24.8l14.23 57L141.2 326l28.4-28.4 12.8 12.8-29 29 2.4 27.1 34-13.6c4.4-17.9 12-33.2 20.8-45.4 13.7-19 29.3-31.3 45.4-31.3 16.1 0 31.6 12.3 45.4 31.3 8.8 12.2 16.4 27.5 20.8 45.4l34 13.6 2.4-27.1-29-29 12.8-12.8 28.4 28.4 53.8-13.4 14.3-57.1c-.2-1.3-1.2-4.7-4.1-8.9-3.1-4.7-8.1-10.2-14.7-15.8-12.9-11-31.8-22.4-54.3-30l-27.3-3.9-10.2 30.6-.2.5c-5.7 11.2-16.9 18.1-29.6 22.5-12.8 4.4-27.6 6.5-42.5 6.5-14.9 0-29.7-2.1-42.5-6.5-12.7-4.4-23.9-11.3-29.6-22.5l-.2-.5-10.2-30.6zm25.6 20.1l1.1 3.2c2.5 4.7 9.2 9.8 19.3 13.3 3.1 1.1 6.4 2 9.9 2.8l-4.7-19.3h-25.6zm44 0l5.3 21.8c2.5.1 5.1.2 7.6.2s5.1-.1 7.6-.2l5.3-21.8h-25.8zm44.2 0l-4.7 19.3c3.5-.8 6.8-1.7 9.9-2.8 10.1-3.5 16.8-8.6 19.3-13.3l1.1-3.2h-25.6zM256 294.2c-4.3 0-19.2 7.8-30.9 23.8-11.6 16.1-21.1 39.4-21.1 67.4 0 28.1 9.5 51.4 21.1 67.5 11.7 16 26.6 23.8 30.9 23.8 4.2 0 19.2-7.8 30.8-23.9 11.7-16.1 21.2-39.3 21.2-67.4 0-28-9.5-51.3-21.2-67.4-11.6-16-26.6-23.8-30.8-23.8zm-9 31.1h18v15.1h13.3v18H265v18h13.3v18H265v18.1h13.3v18H265v15.1h-18v-15.1h-13.4v-18H247v-18.1h-13.4v-18H247v-18h-13.4v-18H247v-15.1zm-165.66 4.3c-12.1 7.2-22.18 20.4-29.12 36.1C44.78 382.4 41 401.5 41 416c0 6.1 1.61 9.8 4.51 12.9 2.9 3.1 7.62 5.7 14.24 7.4 13.24 3.4 33.37 2.7 54.65-1.2 21.3-3.8 43.8-10.7 62.7-18.4 4-1.7 7.8-3.4 11.4-5.1-1.6-8.2-2.5-17-2.5-26.2 0-4 .2-8 .5-11.8l-87.16 34.8-9.7-14.8c8-8 19.86-19.8 29.46-31.4 4.8-5.7 9-11.4 11.9-16.3.8-1.3 1.1-2.3 1.7-3.5l-51.36-12.8zm349.36 0l-51.4 12.8c.6 1.2.9 2.2 1.7 3.5 2.9 4.9 7.1 10.6 11.9 16.3 9.6 11.6 21.5 23.4 29.5 31.4l-9.7 14.8-87.2-34.8c.3 3.8.5 7.8.5 11.8 0 9.2-.9 18-2.5 26.2 3.6 1.7 7.4 3.4 11.4 5.1 18.9 7.7 41.4 14.6 62.7 18.4 21.3 3.9 41.4 4.6 54.7 1.2 6.6-1.7 11.3-4.3 14.2-7.4 2.9-3.1 4.5-6.8 4.5-12.9 0-14.5-3.8-33.6-11.2-50.3-7-15.7-17-28.9-29.1-36.1zm-237.6 99.8c-2.9 1.3-6 2.6-9.2 3.9-6.8 2.8-13.9 5.4-21.3 7.9l5.6 61.8h175.6l5.6-61.8c-7.4-2.5-14.5-5.1-21.3-7.9-3.2-1.3-6.3-2.6-9.2-3.9-4.5 13-10.6 24.5-17.5 34-13.8 19-29.3 31.3-45.4 31.3-16.1 0-31.7-12.3-45.4-31.3-6.9-9.5-13-21-17.5-34z"></path></svg>