<svg stroke="currentColor" fill="currentColor" stroke-width="0" viewBox="0 0 512 512" height="1em" width="1em" xmlns="http://www.w3.org/2000/svg"><path d="M402.105 23.23c-7.135.02-14.64.307-22.437.872 40.125 28.894 79.33 68.1 108.227 108.224 1.316-18.198 1.093-34.787-.348-48.912-2.398-23.496-9.092-40.233-13.91-45.05-4.818-4.82-21.555-11.513-45.05-13.91-5.875-.6-12.173-.99-18.835-1.147-2.498-.06-5.05-.086-7.647-.078zm-92.53 12.63c-58.62 15.315-122.552 45.856-175.186 98.48C81.94 187.202 51.592 251.473 36.4 310.324c34.234 47.728 118.68 132.105 166.024 165.815 58.63-15.317 122.572-45.864 175.21-98.503 52.64-52.64 83.187-116.582 98.503-175.21-33.886-47.59-118.976-132.68-166.566-166.566zm-9.6 20.09l8.05 16.1c-11.915 5.958-23.11 11.755-33.668 17.47l5.94 12.242-16.195 7.857-5.498-11.33c-13.5 7.696-25.94 15.33-37.448 23.097l6.725 10.095-14.98 9.98-6.463-9.702c-12.19 8.987-23.36 18.27-33.796 28.154l9.723 9.723-12.726 12.726-9.723-9.722c-9.86 10.414-19.125 21.552-28.092 33.71l10.19 6.578-9.764 15.12-10.805-6.976c-7.575 11.217-15.02 23.32-22.52 36.424l13.266 6.154-7.573 16.33-14.49-6.722c-5.914 10.885-11.908 22.43-18.076 34.767l-16.1-8.05c6.045-12.092 11.97-23.495 17.853-34.288l-10.24-4.75 7.574-16.328 11.496 5.33c7.924-13.797 15.84-26.587 23.93-38.473l-12.334-7.965 9.762-15.12 12.996 8.39c9.726-13.15 19.805-25.223 30.543-36.514l-9.893-9.895 12.726-12.726 9.895 9.894c11.258-10.705 23.293-20.757 36.396-30.456L187.81 103.8l14.98-9.98 8.548 12.83c12.162-8.283 25.268-16.382 39.437-24.496l-6.43-13.25 16.194-7.857 5.974 12.312c10.55-5.737 21.673-11.517 33.46-17.41zM24.76 380.583c-1.275 17.855-1.087 34.14.26 48.047 2.277 23.475 8.798 40.26 13.418 45.065 4.892 4.814 21.572 11.464 44.976 13.852 14.125 1.44 30.713 1.664 48.912.348C92.506 459.22 53.59 420.39 24.76 380.585z"></path></svg>