<svg stroke="currentColor" fill="currentColor" stroke-width="0" viewBox="0 0 512 512" height="1em" width="1em" xmlns="http://www.w3.org/2000/svg"><path d="M258.28 21.75c-5.343 0-10.67.236-14.155.72-23.225 3.215-43.898 13.46-60.313 29.874-13.597 13.597-22.742 29.6-27.468 48.093-12.185 47.68 9.63 97.346 52.812 120.282 2.654 1.408 4.994 2.583 5.22 2.593.224.01 1.975-1.03 3.905-2.313 2.453-1.627 4.98-3.076 7.564-4.375.56-.29 1.12-.568 1.687-.844.125-.057.252-.097.376-.155 9.143-4.377 19.273-6.844 29.97-6.844 4.24 0 8.387.423 12.437 1.157.834.152 1.674.288 2.5.47 1.197.248 2.407.563 3.593.874 7.137 1.874 14.044 4.848 20.47 8.97 4.656 2.987 4.987 3.123 6.968 2.47 1.146-.38 4.913-2.433 8.375-4.532 19.342-11.73 33.51-27.46 42.436-47.125 6.902-15.21 9.464-27.24 9.438-44.25-.017-11.104-.632-16.49-3-25.907-10.44-41.513-45.395-72.45-88.625-78.437-3.485-.484-8.845-.72-14.19-.72zM89.22 52.438l-18.69 4.687 47.25 185.72H72.876l-29.22-119.157-18.093 4.093 30.97 126.75 1.75 7h130.123c2.206-6.69 5.235-12.953 8.94-18.686h-60.376L89.22 52.438zm333.467 0l-48.28 190.406h-55.594c3.757 5.734 6.82 11.994 9.062 18.687H453.06l1.75-7 30.97-126.75-18.126-4.093-29.187 119.157h-44.94l47.283-185.72-18.125-4.687zM257.875 228.094c-31.13 0-55.594 26.746-55.594 59.937 0 6.447.943 12.657 2.657 18.47 14.83.333 27.197 11.853 28.907 26.344.81-.067 1.61-.094 2.437-.094 7.985 0 15.265 3.2 20.595 8.375 5.33-5.176 12.61-8.375 20.594-8.375 1.702 0 3.373.158 5 .438 2.35-13.61 14.06-24.065 28.217-24.5 2.202-6.434 3.407-13.395 3.407-20.657 0-33.19-25.09-59.936-56.22-59.936zm-196.688 63.22l2.907 11.686L97.97 440.813l18.124-4.657L85.124 310h47.907l46.126 184.563 18.094-4.094L152.28 310h34.782c-1.594-5.968-2.568-12.24-2.812-18.688H61.187zm270.938-.002c-.25 6.45-1.252 12.72-2.875 18.688h29.813l-45 180.47 18.125 4.092L378.313 310h47.875L395.25 436.156l18.094 4.656L447.22 303l2.936-11.688h-118.03zm-127.852 33.87c-6.18 0-11.097 4.917-11.097 11.097s4.917 11.095 11.097 11.095 11.096-4.914 11.096-11.096c0-6.18-4.916-11.098-11.097-11.098zm107.332 1.953c-6.18 0-11.087 4.907-11.087 11.086 0 6.18 4.907 11.09 11.087 11.09s11.086-4.91 11.086-11.09c0-6.178-4.904-11.085-11.085-11.085zm-75.31 24.1c-6.18 0-11.088 4.907-11.088 11.085 0 6.18 4.907 11.088 11.088 11.088 6.18 0 11.086-4.907 11.086-11.088 0-6.178-4.905-11.086-11.085-11.086zm41.168 0c-6.18 0-11.086 4.907-11.086 11.085 0 6.18 4.905 11.088 11.086 11.088 6.18 0 11.088-4.907 11.088-11.088 0-6.178-4.907-11.086-11.087-11.086zm-60.557 33.39l8.406 33.406 18.094-4.655-5.437-21.563c-.557.032-1.125.063-1.69.063-7.392 0-14.18-2.738-19.374-7.25zm79.094.656c-5.077 4.11-11.516 6.595-18.53 6.595-.83 0-1.658-.058-2.47-.125l-5.313 21.625 18.094 4.656 8.22-32.75z"></path></svg>