<svg stroke="currentColor" fill="currentColor" stroke-width="0" viewBox="0 0 512 512" height="1em" width="1em" xmlns="http://www.w3.org/2000/svg"><path d="M260.22 21.75c-35.407 0-63.024 5.19-82.345 12.844-9.66 3.827-17.072 8.22-22.78 13.437-2.856 2.61-5.355 5.53-7.126 8.75-20.707 18.986-35.955 48.755-45.845 81.72-9.45 31.5-13.837 66.035-11.47 97.563-1.78 22.768 10.688 55.117 24.97 81.03l.063.126.03.03c33.913 34.964 83.458 60.827 135.313 67.563V129.625c3.036.106 6.094.188 9.19.188 3.204 0 6.36-.088 9.5-.22v254.97c61.97-8.614 120.527-44.526 152.592-90.188 6.31-18.61 9.023-38.46 7.344-54.875 2.966-32.438-1.393-68.354-11.187-101-9.96-33.2-25.327-63.16-46.25-82.125-1.754-3.06-4.144-5.847-6.876-8.344-5.71-5.217-13.12-9.61-22.78-13.436-19.323-7.653-46.94-12.844-82.345-12.844zm0 18.688c33.573 0 59.057 5.236 75.342 11.687 8.143 3.224 14.168 6.298 17.5 9.344 3.333 3.043 3.5 5.482 3.5 5.843 0 10.54-8.305 21.148-25.687 29.78-17.382 8.633-42.673 14.032-70.656 14.032-28.098 0-53.343-5.08-70.658-13.438-17.314-8.355-25.718-18.457-25.718-30.374 0-.36.76-2.8 4.094-5.844 3.332-3.047 8.794-6.12 16.937-9.345 16.285-6.45 41.77-11.688 75.344-11.688zm111.374 43.25c11.81 15.68 21.998 36.85 29 60.187 7.59 25.3 11.598 53.038 11.22 78.625-16.25-13.403-28.542-34.667-36.627-57.406-8.665-24.372-12.573-51-8.03-73.844 1.744-2.406 3.22-4.942 4.437-7.563zm-222.875.374c.568 1.294 1.18 2.57 1.874 3.813 5.502 25.973.96 54.837-8.875 80.25-7.943 20.52-19.176 39.02-32.97 51.75-.08-24.852 3.918-51.563 11.25-76 6.946-23.153 17.027-44.17 28.72-59.813zm242.06 269.344c-36.57 28.03-82.68 46.99-130.56 51.063l-.783.06-.812-.06c-47.334-4.036-92.797-22.698-129.125-50.19-.956 3.05-1.438 6.11-1.438 9.158 0 15.545 12.548 31.48 36.438 43.937 23.89 12.458 58.006 20.563 95.78 20.563 37.777 0 71.893-8.105 95.783-20.563 23.89-12.458 36.437-28.392 36.437-43.938 0-3.338-.573-6.697-1.72-10.03zm-275.655 33.28c-17.37 12.854-26.563 27.47-26.563 41.845 0 11.535 10.293 29.294 26.157 43.095 14.044 12.22 31.883 21.216 47.31 23.125 9.7-22.68 20.252-41.555 31.657-56.438-13.913-3.702-26.666-8.546-37.843-14.375-18.425-9.608-33.094-22.287-40.72-37.25zm290.28.095c-7.636 14.925-22.297 27.568-40.686 37.158-11.228 5.854-24.048 10.697-38.033 14.406 11.398 14.872 21.96 33.744 31.657 56.375 14.686-1.997 32.556-10.938 46.72-23.095 16.113-13.833 26.748-31.68 26.748-43.094 0-14.332-9.13-28.923-26.406-41.75z"></path></svg>