<svg stroke="currentColor" fill="currentColor" stroke-width="0" viewBox="0 0 512 512" height="1em" width="1em" xmlns="http://www.w3.org/2000/svg"><path d="M356.4 20.98c-17 0-35 1.86-53.4 6.03-.7.15-1.3.31-2 .46l-4.8 34.26c5.6 2.01 9.9 5.46 11.7 10.79C314.2 91 286 108.1 267.8 115.2c-15.5 6.2-42.9 11.9-49.7-3.3-3.1-7-1.3-14.43 3.3-21.43l-27.3-18.25c-10 6.59-19.5 13.68-28.7 21.24l12.4 28.84c8.9-2.3 17.6-1.3 24.4 5.5 15.9 15.9 0 42.5-16 58.4-15.9 15.9-42.4 31.8-58.3 15.9-6.8-6.7-7.8-15.4-5.5-24.4l-28.94-12.3c-7.55 9.2-14.63 18.7-21.21 28.6l18.2 27.3c6.99-4.5 14.45-6.4 21.45-3.3 15.2 6.8 9.5 34.3 3.4 49.8-7.2 18.1-24.3 46.4-42.78 40.1-5.34-1.8-8.79-6.2-10.8-11.8L27.47 301c-.15.7-.31 1.3-.46 2C4.828 401.4 49.04 485.1 77.6 491c-29.95-38.3-31.11-115.3-22.59-138.8C63.24 329.6 85.13 330 90.5 340c18.9 35.3 31 53.2 52.6 53.4-57.71-63.9 16.6-148.8 59.1-191.2 42.4-42.5 127.3-116.81 191.2-59.1-.2-21.6-18.1-33.8-53.4-52.63-10-5.38-10.4-27.27 12.2-35.49 23.5-8.53 100.5-7.37 138.8 22.59-4.8-23.21-60.9-56.75-134.6-56.59zM282.2 32.3c-27.2 7.69-50.4 17.61-71.3 29.54l22.9 15.25c6.8-5.64 14.6-10.23 21.4-12.93 6.4-2.52 14.9-4.35 23.2-4.68zm-131.1 73.5c-7.9 7-15.5 14.3-23.2 22-7.7 7.7-15.1 15.4-22.1 23.2l23.9 10.3c4.1-6.5 9.1-12.6 14.1-17.6 5-5 11.1-10 17.5-14zM61.86 210.9C49.93 231.8 40.01 255 32.3 282.2l27.18-3.9c.33-8.3 2.16-16.7 4.68-23.1 2.69-6.8 7.28-14.6 12.91-21.4z"></path></svg>