<svg stroke="currentColor" fill="currentColor" stroke-width="0" viewBox="0 0 512 512" height="1em" width="1em" xmlns="http://www.w3.org/2000/svg"><path d="M273.508 20.95c-20.294 83.173-71.2 93.138-116.574 21.183 22.312 81.62-20.014 117.135-95.952 75.732 62.942 60.523 46.187 111.364-41.34 113.98 82.154 20.54 93.91 74.45 22.852 120.378 82.168-22.885 115.243 21.042 70.113 101.03 62.48-70.69 116.493-53.202 116.88 42.278 19.073-92.266 71.62-103.97 118.925-23.135-27.222-87.467 16.35-125.63 96.375-80.063-66.397-61.842-50.328-112.95 41.34-113.977-87.137-20.138-96.734-77.174-18.15-124.28-88.478 29.408-125.027-11.343-79.518-93.23-59.8 63.712-112.373 48.707-114.952-39.896zm-6.91 73.575l28.68 33.502c2.66.902 5.298 1.883 7.91 2.952l43.5-8.115 8.484 45.492c.985 1.137 1.953 2.284 2.894 3.444l.01-.025 43.83 15.467-15.484 43.883-.416-.146c.328 1.608.634 3.22.904 4.838l.367-.314 30.14 35.21-35.09 30.036c-.52 1.647-1.08 3.286-1.665 4.916l8.424 45.168-43.078 8.035-4.205 4.204-.334-.334c-.705.615-1.42 1.216-2.132 1.815l-14.606 41.396-38.886-13.72c-4.54 1.19-9.128 2.155-13.746 2.88l-30.9 26.45-24.864-29.048c-6.178-1.572-12.267-3.576-18.22-6.014l-36.946 6.89-6.607-35.433c-.51-.494-1.022-.985-1.526-1.488-5.033-5.034-9.595-10.362-13.687-15.93l-33.38-11.78 11.66-33.046c-2.135-7.746-3.59-15.643-4.355-23.595L90.38 245.37l27.18-23.266c1.96-7.157 4.502-14.184 7.63-21.008l-6.698-35.912 37.555-7.002c4.542-4.28 9.307-8.187 14.254-11.733l12.845-36.4 38.732 13.667c4.34-.92 8.713-1.63 13.107-2.13l31.614-27.062zm-15.87 44.74c-30.553 0-61.104 11.68-84.468 35.046-18.532 18.532-29.706 41.587-33.54 65.577l76.75 10.802 11.577-45.626 43.164 4.795-10.44-70.553c-1.015-.026-2.03-.04-3.043-.04zm22.24 2.09l10.456 70.64 41.367 4.595-41.112 59.387 73.94 36.236c22.43-44.742 14.957-100.52-22.425-137.902-17.667-17.667-39.445-28.65-62.224-32.956zm-37.806 84.086l-11.697 46.095-92.25-12.982c-.06 30.628 11.62 61.273 35.043 84.695 23.006 23.006 52.98 34.677 83.062 35.03l-19.24-57.72 61.51-88.85-56.428-6.267zm37.754 66.08l-22.146 31.992 17.812 53.435c24.36-3.674 47.813-14.902 66.61-33.7 4.718-4.718 8.95-9.732 12.714-14.976l-74.99-36.75z"></path></svg>