<svg stroke="currentColor" fill="currentColor" stroke-width="0" viewBox="0 0 512 512" height="1em" width="1em" xmlns="http://www.w3.org/2000/svg"><path d="M256 41c-43.696 0-83.28 3.58-111.37 9.197-14.047 2.81-25.26 6.196-32.21 9.483-3.476 1.643-5.842 3.293-6.88 4.306l-.013.014.014.014c1.038 1.013 3.404 2.663 6.88 4.306 6.95 3.287 18.163 6.674 32.21 9.483C172.72 83.42 212.303 87 256 87s83.28-3.58 111.37-9.197c14.047-2.81 25.26-6.196 32.21-9.483 3.476-1.643 5.842-3.293 6.88-4.306l.013-.014-.014-.014c-1.038-1.013-3.404-2.663-6.88-4.306-6.95-3.287-18.163-6.674-32.21-9.483C339.28 44.58 299.697 41 256 41zm-80 15a32 8 0 0 1 32 8 32 8 0 0 1-32 8 32 8 0 0 1-32-8 32 8 0 0 1 32-8zm-75.168 26.594c-2.832 12.035-7.414 32.162-12.05 55.28 16.735 4.338 33.52 7.99 50.327 10.995 2.988-17.203 6.707-34.438 11.27-51.708-3.186-.547-6.3-1.113-9.282-1.71-14.91-2.98-27.13-6.49-36.37-10.86-1.363-.644-2.656-1.307-3.896-1.998zm310.336 0c-1.24.69-2.533 1.354-3.895 1.998-9.24 4.37-21.462 7.88-36.37 10.86-2.93.587-5.99 1.142-9.116 1.68 5.27 16.954 9.544 34.033 12.953 51.22 16.26-2.983 32.412-6.568 48.424-10.754-4.617-23-9.175-43.017-11.996-55.004zm-67.4 17.238c-23.065 2.982-49.9 4.803-78.768 5.117v54.198c30.885-.445 61.603-3.05 91.975-7.773-3.45-17.334-7.805-34.523-13.207-51.543zm-175.475.008c-4.647 17.345-8.416 34.67-11.426 51.98 30.062 4.54 60.16 6.967 90.133 7.354V104.95c-28.842-.314-55.656-2.133-78.707-5.11zm-84.38 55.277l-5.518 30.088c128.542 30.936 239.89 29.948 353.384.137l-4.98-30.172c-110.776 28.798-228.035 29.785-342.886-.053zm350.634 48.176c-16.95 4.406-33.876 8.174-50.83 11.312 3.656 47.603 1.776 95.87-3.55 144.49 18.6-3.803 36.796-8.527 54.468-14.17C439.592 314.762 439 291.606 439 256c0-14.915-1.77-33.334-4.453-52.707zm-357.13.256C74.758 222.827 73 241.15 73 256c0 23.794 4.678 57.228 10.424 89.404 16.604 4.828 33.386 8.97 50.27 12.418-4.532-47.516-6.03-95.247-2.577-143.222-17.624-3.063-35.507-6.74-53.7-11.05zm71.546 13.944c-3.336 47.978-1.63 95.883 3.164 143.813 31.553 5.49 63.348 8.592 94.873 9.33V225.94c-31.995-.576-64.57-3.38-98.037-8.446zm216.902.19c-33.303 5.275-66.792 8.068-100.865 8.34V370.8c32.816-.174 65.224-2.93 96.64-8.25 5.61-49.032 7.722-97.417 4.225-144.866zM86.66 364.93l8.29 31.9c104.15 32.39 225.75 32.428 326.077.733l8.272-32.264c-106.024 31.367-228.01 31.34-342.64-.37zm11.236 51.666c3.816 16.945 6.585 28.183 6.704 28.662.792 2.185 4.694 6.427 12.96 10.37 7.587 3.616 18.215 6.947 30.77 9.704-2.132-12.566-4.142-25.147-6.016-37.74-15.03-3.066-29.865-6.733-44.418-10.996zm318.366 1.31c-14.934 4.36-30.254 8.052-45.852 11.086-2.007 12.08-4.16 24.172-6.43 36.272 12.422-2.745 22.935-6.05 30.46-9.637 8.376-3.994 12.302-8.315 13.02-10.473 3.26-9.78 6.178-18.815 8.802-27.248zm-255.217 13.18c1.917 12.574 3.97 25.154 6.144 37.74 23.637 3.684 51.525 5.748 79.81 6.11V439.24c-28.815-.644-57.66-3.36-85.955-8.154zm190.55 1.223c-28.306 4.484-57.373 6.847-86.595 7.07v35.556c28.358-.363 56.317-2.437 79.994-6.14 2.33-12.19 4.538-24.353 6.602-36.487z"></path></svg>