<svg stroke="currentColor" fill="currentColor" stroke-width="0" viewBox="0 0 512 512" height="1em" width="1em" xmlns="http://www.w3.org/2000/svg"><path d="M241.9 20.47s-8.8 4.49-17.7 11.17c-4.4 3.33-8.9 7.22-12.6 11.86-3.7 4.64-7 10.4-6.5 17.52.5 8.44 6.3 14.78 12.1 18.4 5.9 3.63 12.2 5.75 18.1 7.83 5.9 2.08 11.3 4.13 14.4 6.1 3 1.97 3.3 2.49 3.4 4.1 0 0-.4 1.52-2.5 3.85-2.1 2.2-5.6 4.9-9.2 7.2-7.3 4.5-14.8 7.6-14.8 7.6l6.8 16.6s8.7-3.5 17.5-9.1c4.4-2.7 9-6 12.8-10.1 3.9-4.2 7.4-9.6 7.2-16.53-.2-8.46-5.9-15.06-11.6-18.74-5.8-3.68-12.1-5.8-18-7.88-5.9-2.09-11.4-4.14-14.6-6.15-3.2-2.01-3.7-2.78-3.8-4.38 0-.41.5-2.41 2.7-5.18 2.2-2.77 5.7-5.94 9.4-8.72 7.4-5.57 15.1-9.55 15.1-9.55zm-112 18s-8.8 4.49-17.7 11.17c-4.4 3.33-8.9 7.22-12.6 11.86-3.7 4.64-7 10.4-6.5 17.52.5 8.44 6.3 14.78 12.1 18.4 5.9 3.58 12.2 5.78 18.1 7.78 5.9 2.1 11.3 4.1 14.4 6.1 3 2 3.3 2.5 3.4 4.1v.1s-.4 1.5-2.5 3.8c-2.1 2.2-5.6 4.9-9.2 7.2-7.3 4.5-14.8 7.6-14.8 7.6l6.8 16.6s8.7-3.5 17.5-9.1c4.4-2.7 9-6 12.8-10.1 3.9-4.2 7.4-9.6 7.2-16.5-.2-8.5-5.9-15.06-11.6-18.74-5.8-3.68-12.1-5.8-18-7.88-5.9-2.09-11.4-4.14-14.6-6.15-3.2-2.01-3.7-2.78-3.8-4.38 0-.41.5-2.41 2.7-5.18 2.2-2.77 5.7-5.94 9.4-8.72 7.4-5.57 15.1-9.55 15.1-9.55zm218 0s-8.8 4.49-17.7 11.17c-4.4 3.33-8.9 7.22-12.6 11.86-3.7 4.64-7 10.4-6.5 17.52.5 8.44 6.3 14.78 12.1 18.4 5.9 3.58 12.2 5.78 18.1 7.78 5.9 2.1 11.3 4.1 14.4 6.1 3 2 3.3 2.5 3.4 4.1v.1s-.4 1.5-2.5 3.8c-2.1 2.2-5.6 4.9-9.2 7.2-7.3 4.5-14.8 7.6-14.8 7.6l6.8 16.6s8.7-3.5 17.5-9.1c4.4-2.7 9-6 12.8-10.1 3.9-4.2 7.4-9.6 7.2-16.5-.2-8.5-5.9-15.06-11.6-18.74-5.8-3.68-12.1-5.8-18-7.88-5.9-2.09-11.4-4.14-14.6-6.15-3.2-2.01-3.7-2.78-3.8-4.38 0-.41.5-2.41 2.7-5.18 2.2-2.77 5.7-5.94 9.4-8.72 7.4-5.57 15.1-9.55 15.1-9.55zM46 169.5v17.8h438v-17.8zm1.51 35.8C53.14 263.5 112.6 347.5 230 347.5s176.9-84 182.5-142.2zm74.79 133.6l-15.6 72.8c7.1.7 13.9 3 19.8 6.4l15-69.9c-6.7-2.8-13.1-5.9-19.2-9.3zm215.4 0c-6.1 3.4-12.5 6.5-19.2 9.3l30.7 143.1c5-.2 13.4-.5 16-1.4 1.8-.6 2.6-1.2 3-1.7.3-.5.7-1.3.8-3.2zM102 429.3c-17.3 0-31.05 13.8-31.05 31.1S84.7 491.5 102 491.5s31.1-13.8 31.1-31.1-13.8-31.1-31.1-31.1zm47.7 20.2c.8 3.5 1.2 7.2 1.2 10.9 0 2.3-.2 4.6-.5 6.9h175.4l-3.8-17.8z"></path></svg>