<svg stroke="currentColor" fill="currentColor" stroke-width="0" viewBox="0 0 512 512" height="1em" width="1em" xmlns="http://www.w3.org/2000/svg"><path d="M256 50c-21.6 0-39 17.35-39 39 0 21.6 17.4 39 39 39s39-17.4 39-39c0-21.65-17.4-39-39-39zm-48 89c-21.6 0-39 17.4-39 39s17.4 39 39 39 39-17.4 39-39-17.4-39-39-39zm96 0c-21.6 0-39 17.4-39 39s17.4 39 39 39 39-17.4 39-39-17.4-39-39-39zm-144 90c-21.6 0-39 17.4-39 39s17.4 39 39 39 39-17.4 39-39-17.4-39-39-39zm96 0c-21.6 0-39 17.4-39 39s17.4 39 39 39 39-17.4 39-39-17.4-39-39-39zm96 0c-21.6 0-39 17.4-39 39s17.4 39 39 39 39-17.4 39-39-17.4-39-39-39zm-240 89.4c-21.65 0-39 17.4-39 39s17.35 39 39 39c21.6 0 39-17.4 39-39s-17.4-39-39-39zm96 0c-21.6 0-39 17.4-39 39s17.4 39 39 39 39-17.4 39-39-17.4-39-39-39zm96 0c-21.6 0-39 17.4-39 39s17.4 39 39 39 39-17.4 39-39-17.4-39-39-39zm96 0c-21.6 0-39 17.4-39 39s17.4 39 39 39 39-17.4 39-39-17.4-39-39-39zM64 409c-21.65 0-39 17.4-39 39s17.35 39 39 39 39-17.4 39-39-17.35-39-39-39zm96 0c-21.6 0-39 17.4-39 39s17.4 39 39 39 39-17.4 39-39-17.4-39-39-39zm96 0c-21.6 0-39 17.4-39 39s17.4 39 39 39 39-17.4 39-39-17.4-39-39-39zm96 0c-21.6 0-39 17.4-39 39s17.4 39 39 39 39-17.4 39-39-17.4-39-39-39zm96 0c-21.6 0-39 17.4-39 39s17.4 39 39 39 39-17.4 39-39-17.4-39-39-39z"></path></svg>