<svg stroke="currentColor" fill="currentColor" stroke-width="0" viewBox="0 0 512 512" height="1em" width="1em" xmlns="http://www.w3.org/2000/svg"><path d="M256 30.28c-29 0-54.7 14.54-73.3 35.05C164 85.85 153 112.3 153 133.3c0 36.7 12.6 76.9 29.7 111.5l.6-1.8 18.6-74.3c-16.5 1.9-23.8-7.7-25.9-19.4l35.3-18.4 3.2-12.6-2.7-5.4c-9.2 3.4-19.9 7.7-32.7 12.8l-6.6-16.8c11.8-4.8 22-8.8 31.1-12.25l-3.7-7.34-.9-1.91v-2.12c0-6.25 2.6-12.09 6.4-16.43 3.7-4.33 8.6-7.42 13.9-9.79C230 54.3 243 52.28 256 52.28c13 0 26 2.02 36.7 6.78 5.3 2.37 10.2 5.46 13.9 9.79 3.8 4.34 6.4 10.18 6.4 16.43v2.12l-4.7 9.31c9 3.39 19.2 7.49 31 12.19l-6.6 16.8c-12.7-5.1-23.4-9.3-32.5-12.7l-2.7 5.3 3.2 12.6 35.3 18.4c-2.1 11.7-9.4 21.3-25.9 19.4l18.6 74.3.6 1.8C346.4 210.2 359 170 359 133.3c0-21-11-47.45-29.7-67.97C310.7 44.82 285 30.28 256 30.28zm0 40c-11 0-22 1.98-29.3 5.22-3.7 1.63-6.3 3.54-7.8 5.21-1 1.1-1.4 2.02-1.6 2.99l16.2 32.6-32.9 131.5-.1.3c-7.4 22.3-11.4 57.9-9.5 86.6.9 14.4 3.4 27.1 7 35.3 1.8 4 3.8 6.9 5.5 8.4 1.7 1.5 2.7 1.9 4.5 1.9-.5 0 1.9-.7 5.3-4.5 3.3-3.7 7.2-9.5 11.2-15.5 4-6 8.1-12.2 12.8-17.5 4.6-5.2 10.2-10.5 18.7-10.5s14.1 5.3 18.7 10.5c4.7 5.3 8.8 11.5 12.8 17.5s7.9 11.8 11.2 15.5c3.4 3.8 5.8 4.5 5.3 4.5 1.8 0 2.8-.4 4.5-1.9 1.7-1.5 3.7-4.4 5.5-8.4 3.6-8.2 6.1-20.9 7-35.3 1.9-28.7-2.1-64.3-9.5-86.6l-.1-.3-32.9-131.5 16.2-32.6c-.2-.97-.6-1.89-1.6-2.99-1.5-1.67-4.1-3.58-7.8-5.21-7.3-3.24-18.3-5.22-29.3-5.22zM135.5 123.8c-4.5 5-8.7 10-12.3 14.9-11.4 15.2-18.2 29.6-18.2 42.6-.3 99.3-15.98 192.7-31.91 288.3 0 1.2.39 2.1 1.98 3.6 1.75 1.7 5.05 3.7 9.55 5.2 9.01 3 22.48 4.2 36.38 2.7 13.9-1.5 28.3-5.7 39.6-12.5 11.1-6.6 19.1-15.4 22.5-27 .2-16.5 2.9-34.2 6.7-51.5-3.5-3.6-6.1-8.1-8.3-13-4.9-11.3-7.4-25.6-8.5-41.2-1.4-20.8-.1-43.9 3.4-64.6-22.9-40-41.4-90.2-41.4-138 0-3.2.2-6.3.5-9.5zm241 0c.3 3.2.5 6.4.5 9.5 0 47.8-18.5 98-41.4 138 3.5 20.7 4.8 43.8 3.4 64.6-1.1 15.6-3.6 29.9-8.5 41.2-2.2 4.9-4.8 9.4-8.3 13 3.8 17.3 6.5 35 6.7 51.5 3.4 11.6 11.4 20.4 22.5 27 11.3 6.8 25.7 11 39.6 12.5 13.9 1.5 27.4.3 36.4-2.7 4.5-1.5 7.8-3.5 9.5-5.2 1.6-1.5 2-2.4 2-3.6-15.9-95.6-31.6-189-31.9-288.3 0-13-6.8-27.4-18.2-42.6-3.7-4.9-7.9-9.9-12.3-14.9zM256 245.3c32 0 48 16 48 32s-32 32-48 32-48-16-48-32 16-32 48-32z"></path></svg>