<svg stroke="currentColor" fill="currentColor" stroke-width="0" viewBox="0 0 512 512" height="1em" width="1em" xmlns="http://www.w3.org/2000/svg"><path d="M357.764 39.938c-46.68.725-94.32 23.907-122.787 73.214C193.064-4.618 15.5 25.915 19.992 166.705c4.682 146.597 214.475 232.04 237.055 316.313 20.666-77.113 240.768-175.822 236.36-316.313h-.003c-2.512-80.032-65.21-125.75-131.127-126.768-1.503-.023-3.008-.023-4.513 0zM239.09 134.762c7.63 0 15.092.733 22.326 2.117-44.857 20.45-76.123 66.123-76.123 118.995 0 52.848 31.237 98.505 76.06 118.97-7.214 1.377-14.654 2.106-22.263 2.106-66.03 0-119.56-54.215-119.56-121.095s53.53-121.093 119.56-121.093zm51.715 11.884c40.137 19.533 67.847 61.094 67.847 109.21 0 48.14-27.736 89.716-67.904 109.238-49.632-10.863-86.766-55.504-86.766-109.22 0-53.735 37.162-98.387 86.823-109.228z"></path></svg>