<svg stroke="currentColor" fill="currentColor" stroke-width="0" viewBox="0 0 512 512" height="1em" width="1em" xmlns="http://www.w3.org/2000/svg"><path d="M214.5 57.19c-16.6.1-32.3 2.34-46.8 7.32-24.6 8.52-46 24.59-62.7 52.19-16.54 27.1-28.43 65.8-33.11 118.8 26.33 7.6 49.11 25.3 67.01 47.8 17.7 6.2 37.2 10.7 56.3 14 27 4.7 53.4 6.8 73.3 7.2 9.9.2 18.2 0 24-.4 2.9-.3 5.2-.6 6.4-.9 7.8-1.8 16-10.8 10.1-16.2-6.8-5.3-25-11.2-39.7-16.3l-10.5-3.6L220 255l12.5-11c11.1-9.7 20.1-21.1 24.3-30.9 4.1-9.9 4-16.6-1.1-22.7l14.2-12c10.3 12 9.9 28.3 4.1 41.9-4.1 9.3-10.4 18.2-17.8 26.4l14.4 4.5c9-7.3 19.4-12.5 29.2-15.2 5.7-1.7 11.3-2.6 16.7-2.4 5.4.2 11.1 1.5 15.4 6.2l1 .9.5 1.2c5.3 10.3 13.7 25.8 22 38.1 4.3 6.3 8.6 11.7 12.1 15 11 8.4 43.9 11.5 52.5 3.1.7-1 1.6-3.4 1.3-6.6-.8-6.5-5.3-14.1-14.1-16.4-18.5-2.8-31.6-12.1-37.8-24.1-6.3-12.2-5.9-26-1.2-37.6 3.1-7.6 10.3-20.2 20.3-32.4 9.8-12.2 21.4-24.6 37.3-26 11.4-.9 25.7-5 37.3-11-8.6-10.6-11.9-21.9-8.7-32.2 3-9.2 9.8-15.8 18.4-20.72-6.7-8.77-16-17.84-27.8-23.49-16.7-8.02-38.8-10.48-69.7 4.84 4.6 3.41 8.7 7.65 12.4 12.44L373 96.31c-5.1-6.7-11.7-11.44-16.2-12.93-4.7-1.49-5.9-1.44-8.6 2.08-2.8 3.83-3.1 7.33-1.6 12.4 1.7 5.04 5.8 11.24 12 16.64l-12.4 13.9c-8-7.1-14.4-15.5-17.3-25-2.1-6.68-2.2-14.1.1-20.97-37.7-14.72-76.2-24.75-111.2-25.22h-3.3zM413 90.81c8.8.21 18.4 3.02 28.4 6.74 0 0-15.1 18.05-23.9 15.65-7.1-2-13-21.66-13-21.66 2.7-.57 5.6-.79 8.5-.73zm69.9 16.09c-6.3 3.6-9.8 7.5-10.7 10.5-1.2 3.6-.6 8.2 6.2 15.9 3.1-3 5.4-6.1 6.5-9.1 2-7.4 1.1-11.9-2-17.3zm-11 53.6c-6.4 3.4-13.3 6.2-20.1 8.4l-6 32.9 15.4-8.4zM67.15 253.8c-4.06 7.5-14.76 28-25.39 56.7-12.86 34.7-21.18 75.7-11.58 96.8 6.61 14.5 20.86 28.3 37.64 37.1 16.77 8.8 35.78 12.6 51.08 9.2 21.8-4.7 39.4-30 44.2-57.7-1.5-30.8-13-64.1-31.3-91-17-25-39.64-43.8-64.65-51.1z"></path></svg>