<svg stroke="currentColor" fill="currentColor" stroke-width="0" viewBox="0 0 512 512" height="1em" width="1em" xmlns="http://www.w3.org/2000/svg"><path d="M59.88 52.08c-6.83.11-12.17 1.87-15.99 5.34C19.35 79.67 15.6 117.7 26.63 158c9.74 35.6 31.13 71.9 56.99 96.9.48.2.98.4 1.47.6-.84-11.8.74-23.3 6.28-36l16.43 7.2c-5 11.4-6 20-4.7 30.3 16.8-6 36.4 9 39.9 23.3 6 24.1-23.8 55.9-48.48 56.4-15.43.3-32.55-12.6-41.23-28-6.94 6.3-13.04 12.6-17.91 18.9-13.01 16.8-17.27 31.4-9.21 46.8 6.62 12.8 17.27 20.9 31.47 26 14.19 5.1 31.84 6.8 50.56 5.8 23-1.3 47.5-6.7 69.5-13.9-3.6-5.9-5.9-12.4-5.8-18.7.3-15.7 11-36.2 28.7-30.7l-2.6-17.2 17.8-2.8 3 19.3c2.1-.7 4.3-1.1 6.5-1.1 11.8 0 23.9 9.7 27.3 19.8 2.9 8.6.9 18.7-3.8 27.9 17.9 8 37.7 15.8 58.3 22.3 2.9-9.8 11.4-20.1 21.8-20.3 2.7-.1 5.5.6 8.4 2.1 1.5-8.1 2.3-15.5 1.1-22.4l17.8-3c1.6 9.9.5 19.2-1.1 27.9 12-.1 23.3 11.5 24.6 21.6.4 3.3 0 6.6-1.1 9.9 19.6 2.1 38.2 1.8 55-1.6-5.9-5.7-10-12.8-10.4-19.9-.8-12.8 7.2-30.4 22.8-28-.5-6.1-1.2-12.2-2.2-18.1l17.6-3.4c1.3 6.5 2.1 13 2.6 19.3 2-.7 4.1-1.1 6.2-1.1 7.8-.2 15.8 3.8 20.7 9.2.6-4.3.4-9.3-.5-14.9-1.9-11.9-6.9-25.7-12.9-38.6-6.2-13.4-13.2-25.8-18.6-34.6-6.2 4.5-13.2 7.5-19.7 7.6-17.5.4-37.8-21.1-35.9-38.5 1.3-11 9.4-24.3 21.1-24.7 2.2-.1 4.5.3 7 1.2-.1-10-1-22.2-1.7-30.3l18-1.6c.7 8.3 2 20.8 1.9 32.4 4.2-.5 8.4.4 12.2 2.2 2.7-7.2 5.6-15.4 8.2-24.1 9-29.4 14.1-64.1 6.2-81.4-4.7-10.3-11.9-20.1-20.7-28.8 2.6 4 4.4 8.2 4.9 12.3 3.3 24.6-29.8 52.8-54.4 50.5-22.7-1.9-45.8-32.9-40.8-55.3 3.1-13.5 14.6-28.87 28.9-29.21 6.5-.15 13.6 2.8 20.7 10.43 8-5.62 16.7-5.55 24.3-2.35-23.9-17.08-54.1-27.46-80.6-26-10.4.56-28.7 12.65-42.8 25.62C301.6 108.2 291.2 121 291.2 121l-6.6 8.1-7-7.7s-9.4-10.3-21.9-20.7c-12.5-10.44-28.7-20.12-37.2-20.6-4.3-.24-15.8 4.57-24.7 10.46-9 5.9-16 11.94-16 11.94l-5.6 4.9-5.8-4.6s-24.3-18.72-52.6-33.46c-14.08-7.36-29.2-13.63-41.97-16.08-3.19-.62-6.16-.99-8.93-1.13-.52 0-1.03 0-1.53-.1h-1.49zm27.49 39.34c3.22 8.1 4.87 16.18 5.65 24.08 1.9-.6 4-1 6.1-1 9.68-.1 19.88 5.9 23.58 13.2 8.7 16.8-8 45.6-26.28 50.3-16.96 4.4-41.65-11.9-43.79-29.3-1.52-13.3 5.84-32 22.64-29.1-.51-7.4-1.85-14.5-4.64-21.54zM234.8 169.2l17.8 2c-1 8.7-1.4 17.7-1 26.9 12.4-3 26.2 7.8 28.8 18.1.4 1.6.6 3.3.6 5 4.7-3.9 10.5-5.5 17-2.6 1.8-12.1 6.6-23.6 11.7-34.5l16.4 7.6c-4.6 9.8-8.3 19-9.9 27.7 12.7-2.6 26.3 10.3 29 22.7 4.8 22.7-19.2 52.6-39 53-18.3.5-39.5-26.1-37.6-47.6 0-.4.1-.7.1-1.1-7.3 7.4-16.8 12.6-25.5 12.7-17.5.4-37.8-21.1-35.9-38.5 1.3-10.9 9.4-24.2 21.1-24.6 1.7-.1 3.4.1 5.2.6-.2-9.3.2-18.5 1.2-27.4zm-80.6 248.4c-7.5 1.7-15.1 3.1-22.8 4.3-5.5 21.6-12.4 45.8-29.8 68.3h86.5c-17.5-22-28.5-48-33.9-72.6zm210.7 27.8c-8.2 6.6-18.4 10.8-27.2 9.9-.8-.1-1.7-.2-2.5-.4-2.9 11.9-7.3 24.2-14.4 36.3h79.5c-14.6-10.6-24.5-22.4-30.8-34.9-1.8-3.6-3.3-7.3-4.6-10.9z"></path></svg>