<svg stroke="currentColor" fill="currentColor" stroke-width="0" viewBox="0 0 512 512" height="1em" width="1em" xmlns="http://www.w3.org/2000/svg"><path d="M227.438 18.594L207.313 87.97c-51.705 15-93.266 51.876-115.188 99.06l-73.406 9.814 58 43.094c-1.834 13.845-2.095 28.103-.626 42.593 1.892 18.672 6.55 36.403 13.5 52.845l-33.563 63.22 62.69-15.97c10.04 11.805 21.53 22.302 34.155 31.22l4.063 72 44.656-47.5c3.523 1.154 7.08 2.212 10.687 3.155v51.094h18.69v-47.25c9.448 1.436 19.105 2.11 28.905 2.03v45.22h18.688V446.28c16.735-1.836 32.71-5.878 47.656-11.81l48.31 30.5 1.814 2.186v25.438h18.687V460.5l-2.092-2.563-12.594-15.437-8.47-34.344c19.613-15.464 35.89-34.777 47.813-56.687l67.438 2.655-49.313-51.406c3.958-18.31 5.146-37.53 3.157-57.158-1.816-17.9-6.148-34.947-12.626-50.812l.75 1.063 45.094-59.063-73.094 12.03c-33.67-41.52-84.87-67.627-140.97-68.06l-32.687-62.126zm31.343 80.78c18.82 0 37.02 3.223 54.033 9.157l4.625 40.595 34.187-20.97c38.577 26.43 65.657 69.033 70.75 119.282.18 1.775.346 3.546.47 5.313l-48.283 16.125 45.188 29.03c-8.816 42.143-33.876 78.896-68.97 102.626V235.75c1.017-6.205 1.21-12.552.408-19.03-7.203-58.14-80.477-59.517-100.844-6.75-36.378-45.1-100.77-19.982-93.656 37.186 3.574 28.718 29.094 49.678 55.593 67.22v107.78C157.405 406.133 113.557 362.12 99 305l29.72-24.97-34.814-21.405c.983-31.41 10.888-60.917 27.47-85.813l41.31 3.782-15.81-33.625c25.302-23.35 58.116-39.006 95.06-42.75 5.663-.575 11.276-.845 16.845-.845zm73.314 178.94v133.123c-16.367 8.158-34.377 13.722-53.53 16.063l-.002-79.063c10.236-20.103 35.553-43.51 53.532-70.125zM230.97 326.31c10.877 6.818 21.026 13.216 28.905 19.5v82.907c-9.82.093-19.493-.698-28.906-2.283V326.313z"></path></svg>