<svg stroke="currentColor" fill="currentColor" stroke-width="0" viewBox="0 0 512 512" height="1em" width="1em" xmlns="http://www.w3.org/2000/svg"><path d="M84.04 18.37c-12.7 8.85-20.6 27.75-20.5 45.98.19 34.2 27.8 61.95 61.86 61.95 27 0 49.9-17.2 58.4-41.25.8 5.2 1.2 10.4 1.2 15.75 0 59.2-47.9 107.1-107.06 107.1-22.1 0-42.54-6.7-59.58-18.1v21.8c17.75 9.5 38.08 15 59.58 15 69.26 0 125.76-56.5 125.76-125.8 0-31.47-11.7-60.33-30.8-82.43-85.84.75-12.9.53-88.86 0zM226.5 102.8c0 80.7-65.5 146-146.36 146-22.1 0-43.01-4.9-61.78-13.6v20.4c18.12 8.5 44.48 12.3 65.18 11.9l71.06 98.9-12.1-88.5L263 493.6h21.4L160.9 272.5l172 221.1h160.7V338.5L304.2 196.6l130.1 43-169.2-113.7 68.7 6.6-89.1-42.45c-2-26.01-10.1-50.4-22.9-71.67h-22.3c15.9 27.68 26.7 58.12 27 84.42zm-188.16 5.1c-7.72 0-14.74 3-19.98 7.9v42.9c5.24 4.9 12.26 7.9 19.98 7.9 16.2 0 29.3-13.2 29.3-29.4s-13.1-29.3-29.3-29.3z"></path></svg>