<svg stroke="currentColor" fill="currentColor" stroke-width="0" viewBox="0 0 512 512" height="1em" width="1em" xmlns="http://www.w3.org/2000/svg"><path d="M296.881 65.633c-8.507-.065-17.245.338-26.132 1.218l5.312 79.221.602 8.979-17.96 1.203-.6-8.979-5.231-78.035c-24.269 4.068-49.243 11.604-73.412 22.787l22.101 62.057 3.02 8.476-16.955 6.04-3.02-8.477-21.355-59.961c-20.723 11.21-40.568 25.227-58.532 42.17l33.336 35.42 6.168 6.554-13.105 12.334-6.168-6.552-32.914-34.971a259.947 259.947 0 0 0-37.295 51.832l36.435 10.01 8.678 2.385-4.768 17.355-8.677-2.385-39.918-10.967c-17.227 37.45-27.144 81.943-26.233 133.895l18.625 16.637 33.522-19.12c.478 26.975-.914 47.18-8.444 73.997-2.533 12.768 20.453 21.952 25.825 12.416l28.943-51.383 24.195 47.906c7.665 12.922 30.622 5.98 28.936-6.224l-9.567-69.262c26.494 2.38 69.87-3.698 82.37-23.707 11.06 16.91 27.193 25.466 46.255 30.66l-18.87 56.613c-2.873 11.787 13.255 26.697 24.947 16.545l44.275-50.45 48.477 50.046c9.164 8.967 28.718 2.945 25.328-5.215l-35.285-84.936c28.356 4.277 64.943 2.737 71.787-10.416l15.892-30.54c-24.827 3.03-49.394 4.148-72.26-7.202l4.471-23.342c33.131 1.879 46.292-6.9 65.487-19.865 22.843-15.43 32.654-62.595 22.843-62.574-36.964.079-59.419 12.218-91.806 24.83 8.547-26.065 22.6-56.031 20.361-79.955-2.507-26.799-18.559-46.983-42.87-59.963l-22.062 68.674-2.754 8.568-17.134-5.506 2.752-8.566 22.634-70.459c-17.626-6.318-38.161-9.648-60.25-9.816zm36.534 145.039c17.673 0 32 14.327 32 32 0 17.673-14.327 32-32 32-17.674 0-32-14.327-32-32 0-17.673 14.326-32 32-32z"></path></svg>