<svg stroke="currentColor" fill="currentColor" stroke-width="0" viewBox="0 0 512 512" height="1em" width="1em" xmlns="http://www.w3.org/2000/svg"><path d="M146.499 150.27C96.573 200.195 58.83 252.838 38.41 296.735c-10.21 21.949-16.034 41.712-17.185 57.376-1.152 15.663 2.144 26.57 9.05 33.477 6.907 6.906 17.815 10.203 33.478 9.051 15.663-1.152 35.427-6.975 57.376-17.185 43.897-20.42 96.54-58.163 146.465-108.088 49.926-49.926 87.668-102.569 108.088-146.466 10.21-21.948 16.034-41.712 17.185-57.375 1.152-15.664-2.144-26.571-9.05-33.477-6.907-6.907-17.815-10.204-33.478-9.052-15.663 1.152-35.427 6.975-57.376 17.185-43.897 20.42-96.54 58.163-146.465 108.089zm13.935 10.213c41.592-41.69 85.542-75.431 111.893-90.014-57.86 45.917-217.929 183.745-148.373 275.74 6.305 8.34-61.76 34.137-65.167 24.83-22.38-61.146 36.763-145.52 101.647-210.556zM41.744 412.841c4.947 8.962 10.733 18.459 16.161 28.652 3.506-2.819 7.906-5.132 11.59-6.03 8.066-1.885 16.128.87 21.76 5.488 5.63 4.619 9.599 10.81 12.702 17.479 3.899 8.377 6.483 17.462 7.526 26.004 2.893-.971 5.78-1.972 8.664-3.002.606-9.63-.184-21-.264-31.983-.053-7.272.214-14.436 1.99-21.283 2.625-7.78 5.641-13.813 11.925-18.142 7.374-5.046 16.26-5.932 23.704-3.857 7.443 2.076 13.74 6.48 19.25 11.573 9.504 8.784 16.758 19.647 20.942 28.494a573.433 573.433 0 0 0 8.793-4.965c-2.562-10.086-5.463-23.926-6.049-37.782-.6-14.18.845-29.487 10.423-39.63a34.039 34.039 0 0 1 4.62-4.014c7.867-5.586 17.288-6.762 25.611-5.138 8.324 1.624 15.891 5.63 22.704 10.407 9.209 6.458 16.99 14.19 22.588 21.131a644.594 644.594 0 0 0 10.154-8.416c-5.173-7.802-9.976-18.099-13.13-29.667-4.607-16.888-5.025-37.474 9.24-51.74 14.267-14.267 34.853-13.848 51.741-9.242 11.568 3.155 21.865 7.958 29.667 13.13 2.839-3.36 5.652-6.74 8.417-10.153-6.942-5.598-14.674-13.38-21.131-22.588-4.778-6.813-8.784-14.38-10.408-22.704-1.624-8.324-.448-17.745 5.138-25.611 1.29-1.79 2.581-3.22 4.014-4.62 10.144-9.578 25.45-11.023 39.63-10.423 13.857.586 27.696 3.487 37.782 6.049 1.682-2.921 3.34-5.852 4.966-8.793-8.848-4.184-19.71-11.439-28.494-20.942-5.094-5.511-9.498-11.807-11.573-19.25-2.076-7.444-1.19-16.33 3.856-23.704 4.123-6.084 11.761-10.219 18.142-11.925 6.847-1.776 14.012-2.043 21.283-1.99 10.983.08 22.354.87 31.984.264a479.55 479.55 0 0 0 3-8.664c-8.54-1.043-17.625-3.628-26.003-7.527-6.668-3.103-12.86-7.07-17.479-12.702-4.618-5.63-7.373-13.693-5.487-21.76 1.381-4.477 3.342-8.52 6.03-11.59-10.194-5.427-19.69-11.213-28.652-16.16 1.638 7.21 2.07 15.074 1.464 23.308-1.386 18.847-7.97 40.285-18.792 63.55C370.099 178.9 331.28 232.728 280.119 283.89c-51.16 51.16-104.99 89.98-151.518 111.624-23.264 10.822-44.702 17.405-63.549 18.791-8.234.606-16.098.175-23.307-1.464zm27.564 41.953a8.414 8.414 0 0 0-.466.471 17.728 17.728 0 0 0-2.452 3.877c4.645 11.014 8.274 22.823 9.658 35.629 10.182-9.497 12.795-4.634 17.98-4.858-.602-7.144-2.702-16.64-6.132-24.01-2.358-5.067-5.308-9.151-7.874-11.256-2.567-2.105-3.98-2.523-6.496-1.934-1.806.422-3.107 1.04-4.218 2.08zM451.197 73.13c-1.103 1.22-1.886 2.64-2.255 4.166-.588 2.517-.171 3.93 1.934 6.496 2.105 2.567 6.19 5.517 11.256 7.874 7.37 3.43 16.866 5.53 24.01 6.133-2.121-6.134-1.639-12.173 4.858-17.98-12.806-1.384-24.615-5.013-35.629-9.659-1.648.729-3.071 1.75-4.174 2.97zM142.84 425.434c-2.1 2.002-3.244 5.007-3.82 7.18-1.091 4.203-1.474 10.068-1.425 16.706.056 7.712.702 16.382.617 25.255 11.754-8.651 20.014-21.068 43.794-20.002-3.048-6.404-9.84-16.95-17.28-23.825-4.184-3.868-8.54-6.56-11.982-7.52-3.443-.96-5.68-.82-8.944 1.415-.34.24-.66.505-.96.79zm278.79-278.746c-.265.278-.518.572-.76.883-2.233 3.265-2.373 5.501-1.413 8.944.96 3.443 3.651 7.798 7.52 11.984 6.875 7.438 17.42 14.23 23.825 17.278-.606-20.71 9.905-32.31 20.001-43.794-8.873.085-17.543-.56-25.255-.617-6.638-.048-12.502.335-16.705 1.425-2.952.802-5.363 1.952-7.214 3.897zm-50.02 81.633c-.398.372-.764.767-1.096 1.188-2.641 3.72-3.123 7.204-2.195 11.963.929 4.758 3.685 10.448 7.525 15.925 5.06 7.215 12.092 14.048 17.687 18.698 3.589-15.098 16.365-31.912 34.451-49.896-8.701-1.987-19.218-3.878-29.014-4.293-8.39.554-21.39.837-27.358 6.415zM225.128 374.845c-6.146 6.112-7.177 22.42-6.992 27.894.414 9.797 2.305 20.314 4.292 29.015 14.862-12.526 26.804-28.222 49.896-34.452-4.65-5.594-11.483-12.627-18.698-17.686-5.477-3.84-11.167-6.597-15.925-7.525-4.758-.929-8.243-.446-11.963 2.195a9.727 9.727 0 0 0-.61.559zm80.045-65.901c-8.004 8.004-8.422 20.823-4.677 34.556 2.241 8.218 6.212 16.39 9.79 22.387 13.324-21.166 30.664-38.507 51.83-51.831-5.997-3.577-14.168-7.548-22.386-9.79-13.734-3.745-26.553-3.326-34.557 4.678z"></path></svg>