<svg stroke="currentColor" fill="currentColor" stroke-width="0" viewBox="0 0 512 512" height="1em" width="1em" xmlns="http://www.w3.org/2000/svg"><path d="M153.654 18l52.57 134.734c1.698 3.994 4.05 5.83 7.243 6.977 3.2 1.15 7.36 1.2 11.058.17 3.698-1.03 6.71-3.146 7.996-4.915 1.288-1.77 1.634-2.564.505-5.24l-.046-.112L181.57 18h-27.916zm94.168 120.143l1.88 4.81-.09-.223c3.346 7.937 1.828 16.822-2.532 22.82-4.36 5.996-10.773 9.734-17.723 11.67-6.95 1.937-14.653 2.065-21.98-.57-7.327-2.634-14.155-8.447-17.742-16.923l-.05-.118-1.757-4.5c-31.31 19.804-42.47 42.026-35.367 68.89 1.24 4.681 3.422 12.364 5.964 22.13 74.37-5.274 139.945-23.872 199.808-51.6-10.297-13.867-22.5-25.83-38.232-34.53-20.505-11.34-47.652-20.157-72.178-21.857zm120.557 71.52c-61.497 28.81-129.173 48.378-205.575 54.196 2.03 8.683 4.08 18.28 5.95 28.495 89.592-10.084 163.043-26.22 217.755-48.767-5.743-11.72-11.593-23.19-18.13-33.924zm26.04 50.16c-57.093 23.772-131.99 40.087-222.73 50.322C180.697 371.423 179.614 446.752 128 480c16.27 0 31.892-.152 46.926-.45 17.84-25.554 31.27-66.222 32.08-86.146 8.27 16.793 3.297 59.32-5.36 85.434 2.735-.093 5.435-.193 8.127-.297 11.824-12.397 11.724-28.632 14.72-47.284 3.324 14.92 7 32.967 9.505 46.156 11.273-.616 22.152-1.34 32.606-2.183 16.38-20.358 21.65-49.604 18.63-85.48 4.226 29.1 9.116 62.138 11.873 82.55 9.662-1.083 18.925-2.29 27.807-3.614 5.04-18.787-4.1-48.444-2.072-69.54 11.123 43.113 22.247 55.45 33.37 64.043 5.42-1.115 10.655-2.293 15.733-3.526-4.7-13.95 1.573-22.497 1.18-39.986 5.647 18.99 14.625 26.958 24.428 32.816 6.506-2.1 12.66-4.336 18.492-6.697-10.538-6.57-10.113-26.374-12.38-42.926 5.954 21.703 14.413 32.418 24.083 37.816 29.124-13.8 48.69-31.534 60.398-53.657-9.078-3.82-18.674-13.002-28.068-20.092 13.214 7.477 23.684 10.614 32.37 10.93 1.323-3.206 2.514-6.49 3.552-9.868-56.326-19.528-80.07-64.018-101.58-108.178z"></path></svg>