<svg stroke="currentColor" fill="currentColor" stroke-width="0" viewBox="0 0 512 512" height="1em" width="1em" xmlns="http://www.w3.org/2000/svg"><path d="M206.875 27.03l-3 2.064c-14.3 9.87-22.835 28.048-25.344 52.375-19.293 11.407-37.976 13.766-50.843 10.905-4.06 4.988-6.62 10.712-8.937 16.938 20.462 6.71 47.52 2.697 73.688-14.344l3.906-2.532.312-4.657c1.392-21.138 7.59-34.313 15.25-41.186l22.344 3.093c-1.668 18.234-1.372 38.198 7.53 60.376l2.657 6.562 7.032-.78c23.817-2.638 31.686-3.652 54.81.405l7.533 1.313 2.78-7.126c3.936-10.084 7.778-18.638 12.376-25.968 6.878 6.72 15.8 12.09 25.31 16.093 11.845 4.985 24.8 8.13 36.595 5.093-3.235-5.86-7.044-12.416-10.97-18-5.35-.25-11.948-1.607-18.374-4.312-11.263-4.742-21.638-13.227-24.686-18.75L330.47 53.03l-8.783 9.876c-8.824 9.927-14.54 21.44-19.687 33.907-16.88-2.398-28.733-2-45.188-.282-6.25-19.213-5.357-36.077-3.156-53.75l1.125-9.124-9.124-1.28-35.187-4.845-3.595-.5zm171.094 6.845L367.686 49.78c17.986 12.885 30.035 27.273 40.375 47.814l3.282 6.53-4.28 5.94c-6.31 8.73-11.433 19.695-15.908 32.374 4.09 11.243 6.268 24.716 6.28 35.968l.033 14.188-14.033-2.28L354 185.5l-26.594 29.188-11.97 13.125-7.78-15.938-16.594-34.03c-10.396 12.86-19.287 23.182-30.593 30.936-15.34 10.52-34.276 14.385-61 12.564l-8.126-.563-2.5-7.75L177.78 179l-40.624 7.844-11.937 2.344-2.19-12s-2.258-12.142-6.31-25.532c-2.028-6.695-4.507-13.658-7.157-19.156-2.65-5.498-5.83-9.36-6.75-10.03l-6.47-4.72 1.876-7.813c4.586-19.172 17.198-36 37.218-50.374l-10.72-19.813C56.08 95.554 25.5 197.82 24.095 296.344c43.835 22.98 73.8 47.83 92.28 74.844 17.738 25.923 24.46 53.747 23.407 81.562 11.497 6.293 22.977 11.934 35.69 15.344 21.81 5.85 45.39 8.69 69.78 8.687 24.396-.003 49.41-2.844 72.375-8.717 18.33-4.69 35.105-11.838 50.656-20.47 1.95-55.263 35.304-110.082 118.814-151.468-1.55-97.394-34.025-206.568-109.125-262.25zM202.436 250.063c6.002 3.154 11.246 7.896 14.625 13.75 12.22 21.162-.962 51.59-29.218 67.906-28.256 16.313-61.282 12.128-73.5-9.033-6.974-12.077-5.45-27.048 2.156-40.812 12.835-.22 27.956-2.805 44.25-9.03 15.522-5.93 30.078-14.063 41.688-22.783zm106.22 0c11.61 8.72 26.164 16.852 41.687 22.78 16.294 6.227 31.415 8.812 44.25 9.032 7.607 13.764 9.13 28.735 2.156 40.813-12.218 21.16-45.213 25.346-73.47 9.03-28.255-16.314-41.436-46.743-29.217-67.906 3.38-5.853 8.592-10.595 14.593-13.75zm-53.063 75.625c18.53 36.128 33.233 72.246 40.53 108.375-27.02-8.244-54.042-9.343-81.062 0 9.866-36.13 21.727-72.247 40.532-108.375z"></path></svg>