<svg stroke="currentColor" fill="currentColor" stroke-width="0" viewBox="0 0 512 512" height="1em" width="1em" xmlns="http://www.w3.org/2000/svg"><path d="M186.22 21.25c1.304 7.696 2.775 14.91 4.436 21.625h-24.999l10.53 14.78s13.66 19.322 21.75 43.814c4.047 12.245 6.576 25.603 5.595 38-.98 12.394-5.132 23.72-15.093 33.718-20.252 20.325-47.89 40.234-70.968 64.406-23.08 24.17-41.844 53.534-41.845 91.656 0 2.038.002 39.462-.03 76.813-.018 18.675-.04 37.337-.064 51.593-.01 7.13-.017 13.167-.03 17.53-.013 4.366-.07 7.62-.063 7.345l-.28 9.564 9.562.062 312.53 2.28 9.75.064-.344-9.75c.007.21-.043-3.14-.062-7.594-.02-4.454-.046-10.56-.063-17.78-.033-14.443-.068-33.324-.092-52.188-.05-37.73-.063-75.526-.063-77.938 0-38.97-19.523-68.73-43.53-93.03-24.01-24.302-52.733-44.122-73.75-64.407-9.965-9.617-13.824-20.463-14.408-32.563-.583-12.1 2.526-25.324 7.188-37.5 9.003-23.515 23.025-42.038 24-43.313l15.53-15.562h-32.53c1.647-6.712 3.142-13.924 4.438-21.625H186.22zM217 99.78c14.52 15.522 31.15 15.58 45.656.064-4.346 12.522-7.3 26.29-6.625 40.312.764 15.827 6.586 32.085 20.064 45.094v.03c22.692 21.903 51.186 41.51 73.47 64.064 22.28 22.555 38.123 47.073 38.123 79.906 0 2.55.014 40.232.063 77.97.024 18.867.06 37.73.094 52.186.016 6.595.045 11.937.062 16.28l-293.719-2.155c.013-4.24.02-9.396.032-15.842.023-14.266.044-32.948.06-51.625.035-37.356.032-74.663.032-76.813 0-32.095 15.238-56.318 36.657-78.75 21.417-22.432 48.81-42.17 70.686-64.125 13.238-13.287 19.274-29.548 20.53-45.438 1.135-14.317-1.343-28.396-5.186-41.156zm34.47 98.782c-17.31 0-31.532 14.224-31.532 31.532 0 17.307 14.223 31.53 31.53 31.53 17.308 0 31.532-14.223 31.532-31.53 0-17.308-14.224-31.53-31.53-31.53zm0 18.688c7.206 0 12.843 5.636 12.843 12.844 0 7.207-5.637 12.844-12.844 12.844-7.21 0-12.845-5.637-12.845-12.844 0-7.208 5.636-12.844 12.844-12.844zM131.5 277.625c-10.615 14.95-18.094 31.583-18.094 52 0 5.323-.142 119.566-.344 124.72l256.094 3.81c-.304-6.364-.53-121.892-.53-128.53 0-20.39-7.51-37.15-18.126-52h-37c3.193 5.568 5.03 12.007 5.03 18.844 0 20.968-17.215 38.186-38.186 38.186-20.97 0-38.156-17.217-38.156-38.187 0-6.838 1.842-13.277 5.03-18.845H131.5zm144 0c-8.475 2.115-14.625 9.648-14.625 18.844 0 10.87 8.597 19.5 19.47 19.5 10.87 0 19.5-8.632 19.5-19.5 0-9.197-6.175-16.73-14.658-18.845H275.5zM211.344 319.5c18.92 0 34.437 15.518 34.437 34.438 0 18.918-15.516 34.468-34.436 34.468s-34.47-15.55-34.47-34.47c0-18.918 15.55-34.436 34.47-34.436zm0 18.688c-8.82 0-15.78 6.93-15.78 15.75s6.96 15.78 15.78 15.78 15.75-6.96 15.75-15.78-6.93-15.75-15.75-15.75zm92.97 10.125c25.53 0 46.436 20.905 46.436 46.437 0 25.53-20.905 46.438-46.438 46.438-25.532 0-46.437-20.906-46.437-46.438 0-25.532 20.905-46.438 46.438-46.438zM304.31 367c-15.433 0-27.75 12.317-27.75 27.75s12.317 27.75 27.75 27.75 27.75-12.32 27.75-27.75c0-15.433-12.316-27.75-27.75-27.75z"></path></svg>