<svg stroke="currentColor" fill="currentColor" stroke-width="0" viewBox="0 0 512 512" height="1em" width="1em" xmlns="http://www.w3.org/2000/svg"><path d="M167.3 16.62c-24.7 4.14-49.6 7.41-73.41 15.75-1.48.01-2.96.04-4.47.08-6.38.17-13.01.6-19.89 1.26-11.69-7-32.19-7.85-48.58-11.57 10.1 4.13 18.87 8.92 26.06 14.5-9.3 1.5-19 3.38-29.13 5.67V411.6c23.41 26.6 30.14 51.7 32.2 81.2l52.32-.3c13.4-28 31.1-47.6 52.4-61.8 10.8 11.4 3.8 28.6 3.2 42.6 12-20 23.9-40 29.2-59.6 8.5-3.4 17.3-6.5 26.5-9.3-.7 14.2-15.3 29.1-17.5 42.4 20-12.4 37.6-32 45.1-50.2 13.8-3.5 28.4-6.9 43.8-10.7l.1-.1h.2c17.4-3.6 32.8-1 46.2 5.2 6.3 14.8 21.9 43.4 24 42.8-2.9-10-4.6-20.5-5.7-31.1 4.2 3.3 8.1 7.1 11.7 11 2.1 2.3 4.2 4.7 6.2 7.1.6 17.3 4.2 34.7 13 49.3.7-10.2-1.1-20.2.9-30.5 9.4 13.7 17.6 27.9 25.7 39.9 1.6 2.3 2.2 2 3.7 1.5 1.5-.4 2.9-1.9 3.1-3.1 1.5-8.2 1.7-24.9 4.4-40.4 1.3-7.7 3.2-15.4 6.9-22.1.5-.9 1-1.8 1.6-2.6-7.1-13.2-11.5-25.2-13.3-36.2-2-13-.1-25.1 6.2-34.5 10.9-16.6 32.2-23.3 59.4-23.3h2c-4.8-31.5-6.7-64.2-11.4-96.3 7.3 9.6 16.7 17.3 28.8 20.4-7.3-5.3-26.5-39.5-36.1-59.2-3.4-13.8-7.8-27.5-13.7-40.7-.7-.4-1.9-1.2-4.2-2.2-3.3-1.4-8-3.1-13.7-4.6-11.3-3.1-26.3-5.8-42.4-7.3-28-2.4-59.4-.6-80.9 8.7 9.4 17.8 23.9 30.2 50.2 34.4l9 1.4-1.5 9c-1.6 9.2-3.7 22.9-8.4 34.6-2.4 5.9-5.3 11.5-10.2 15.9-4.9 4.3-12.7 6.7-20 4.7-26.7-7.3-45.5-24.7-57.8-46.6-2.8 19.8-4.9 42.3-5 64.2-.1 34.4 5.2 67 17.8 84.6l-14.6 10.4c-16.9-23.6-21.4-59-21.2-95 .1-35 5-70.5 10.3-96.4-.9-3.4-1.7-7-2.4-10.5-3-15.4-4.1-31.5-3.5-47.2C230 80.56 208.6 62.92 183 50.72c-2.7-1.3-5.5-2.54-8.3-3.72 13.9-2.29 28.4-3.82 43.6-4.5-29.2-5.85-55.2-6.91-80.3-6.45-2.4-.46-4.8-.86-7.3-1.24 10.7-6.86 24.5-12.01 36.6-18.19zM271.6 73.9c-4 22.71-4.4 48 0 70.9 7.1 36.3 25.2 65.9 60.1 75.4 2 .6 1.8.5 3.3-.8 1.4-1.3 3.6-4.6 5.4-9 2.6-6.5 4.3-14.8 5.7-22.5-34.5-8.8-53-33.7-62.6-61.4-5.9-17-9.1-35.2-11.9-52.6zm98.6 166.4c11.1 0 24.7 6.9 24.2 15.7-.6 10.1-21.1 11.5-29.8 6.3-5.5-3.4-9.9-14.2-5.2-18.6 2.5-2.4 6.5-3.4 10.8-3.4zm109.3 96.5c-23.7.1-38.6 6.2-44.5 15.2-3.5 5.2-5 12-3.4 21.8 1.2 7.6 4.4 16.8 9.8 27.5.8-.3 1.6-.6 2.5-.8h.1c6.3-1.4 17.4-4.8 27.5-9.2 10-4.3 19.1-10.4 21.2-13.3 2.3-3.3 2.1-10.1-.6-19.5-2-6.8-5-14.2-7.1-21.6-1.9 0-3.7-.1-5.5-.1zm-11.7 15.3c.7 0 1.4 0 2.1.1 3.6.3 7.2 1.5 10.4 3.7l-10.2 14.8c-.9-.6-7.9-.8-11 7l-16.8-6.8c4.8-11.6 15.2-18.7 25.5-18.8z"></path></svg>