<svg stroke="currentColor" fill="currentColor" stroke-width="0" viewBox="0 0 512 512" height="1em" width="1em" xmlns="http://www.w3.org/2000/svg"><path d="M128 32l-80 96h48v80h64v-80h48l-80-96zm216 0c-40 0-40 0-40 39.945V232c0 40 0 40 40 40h80c40 0 40 0 40-40V72c0-40 0-40-40-40h-80zM176.096 236.904c-5.28.12-10.212 2.417-16.94 9.596l-6.562 6.969-6.813-6.72c-7.387-7.28-13.216-9.29-19.125-9.03-5.908.26-12.855 3.365-20.625 9.654l-6.219 5.031-5.906-5.375c-8.9-8.052-16.485-10.437-23.75-10.062-5.288.274-10.775 2.266-16.25 5.75l40.969 73.687c15.454 9.452 47.033 13.009 68.75 2.065l39.594-73.346c-7.51-3.062-14.26-6.2-20.094-7.404-2.112-.437-4.073-.758-5.97-.815-.355-.01-.71-.008-1.06 0zM352 304v80h-48l80 96 80-96h-48v-80h-64zM86.125 333.094v.002C68.09 345.838 53.609 367.813 48 400c-5.435 31.196 3.127 52.264 18.281 66.623 15.155 14.36 37.902 21.738 61 21.438 23.1-.3 46.136-8.31 61.625-22.936 15.49-14.627 24.251-35.425 19.283-65.188-5.137-30.757-18.4-52.147-35.19-65.093-28.483 15.056-64.094 11.856-86.874-1.75z"></path></svg>