<svg stroke="currentColor" fill="currentColor" stroke-width="0" viewBox="0 0 512 512" height="1em" width="1em" xmlns="http://www.w3.org/2000/svg"><path d="M45.57 105c-.82 1.1-2.24 3.8-3.56 7.7-2.64 7.7-5.13 19.8-7.09 34.5C31.01 176.5 29 216.3 29 256s2.01 79.5 5.92 108.8c1.96 14.7 4.45 26.8 7.09 34.5 1.32 3.9 2.74 6.6 3.56 7.7h73.93c1.8-2.9 4-7.7 6-14H108c-5 0-9.4-2.7-12.21-5.7-2.84-3.1-4.81-6.7-6.56-10.8-3.51-8.1-6.04-18.6-8.11-31C76.99 320.7 75 288.4 75 256s1.99-64.7 6.12-89.5c2.07-12.4 4.6-22.9 8.11-31 1.75-4.1 3.72-7.7 6.56-10.8 2.81-3 7.21-5.7 12.21-5.7h17.5c-2-6.3-4.2-11.1-6-14zM172 105c-.5 0-1 0-2.4 1.3-1.5 1.3-3.4 3.8-5.3 7.6-3.9 7.4-7.6 19.3-10.5 33.9-5.8 29-8.8 68.6-8.8 108.2 0 39.5 3 79.2 8.8 108.2 2.9 14.6 6.6 26.5 10.5 33.9 1.9 3.8 3.8 6.3 5.3 7.6 1.4 1.3 1.9 1.3 2.4 1.3 45.9 0 86.9-4 123-10.9-13.4-11.7-24.5-25.1-33-38.1-6.1-9.4-10.9-18.4-14.1-26.5-3.2-8-5.2-14.7-4.5-21.6 1.8-29.9 14.9-52.9 29.9-66.6 7.6-6.9 15.7-11.6 23.8-13.6 2-.5 4.1-.8 6.2-.9 6.3-.3 12.7 1.5 17.3 6.3.5.4.7.9 1 1.5 29.9 48 63.3 85.8 112.2 103.1 33.1-25.5 49.2-55.1 49.2-83.7 0-35.8-25.2-73.1-77.4-102.1S274.8 105 172 105zm-63 32c-.7.7-2 2.6-3.2 5.5-2.5 5.9-5 15.4-6.9 27-3.89 23.2-5.9 54.9-5.9 86.5s2.01 63.3 5.9 86.5c1.9 11.6 4.4 21.1 6.9 27 1.2 2.9 2.5 4.8 3.2 5.5h28.8c-.6-2.3-1.1-4.7-1.6-7.2-6.2-31-9.2-71.4-9.2-111.8 0-40.5 3-80.8 9.2-111.8.5-2.5 1-4.9 1.6-7.2zm253.9 25.6l72.8 68.6-6.2 6.6c-22.1 23.5-52.5 22.2-70.3 6.1-17.8-16-22.9-46.4-2.4-73.3zm2.9 27.4c-9 17.3-4.1 31.9 5.5 40.6 9.6 8.7 23.9 11.7 38.4.8l-6.7-6.3c-9 2.9-18.1 1.5-23.8-4.3-4.7-4.9-3.2-11.9-1.3-19.4zm-73.1 61.1c-2.3 1.5-4.8 3.3-7.2 5.5-11.6 10.6-22.7 29.3-24.1 54.6v.2l-.1.3v.2l32.3-4.2zm18 1.7l.8 51.5 34.8-4c-13-14.4-24.6-30.4-35.6-47.5zm53 65l.9 33.1 7.8-.8v.1l30.5-4.4c-14.4-7.7-27.3-17.2-39.2-28zm-18 .7l-33 3.8-10 34.5 44-4.2zm-52.8 7.4l-26.3 3.5c2.6 5.6 6.1 12.1 10.4 18.7 2.1 3.1 4.3 6.3 6.7 9.5zm97.9 39.8l-28.6 4.2-4.9 9.6c12-4.2 23.2-8.9 33.5-13.8zm-49.4 5.4l-42.4 4.1c5.8 5.8 12.1 11.2 18.8 15.9 5.3-1.3 10.4-2.6 15.4-4z"></path></svg>