<svg stroke="currentColor" fill="currentColor" stroke-width="0" viewBox="0 0 512 512" height="1em" width="1em" xmlns="http://www.w3.org/2000/svg"><path d="M348.77 14.06l-5.854 17.163C332.126 22.93 318.623 18.01 304 18c-15.35.016-29.457 5.454-40.496 14.512l-15.602-13.567-11.81 13.584 15.228 13.238c-5.303 7.707-8.958 16.64-10.465 26.306h-23.263v18H240V192h-16.023c-24.42 0-31.977-5.767-31.977-31.857v-26.127h9.064v-18h-10.59c-1.455-5.342-3.874-9.798-6.947-13.358l-7.373 13.358h-3.334l-13.203-7.286 8.63-15.636c-9.775-2.624-20.645-.482-28.624 6.412l-13.264-11.53-11.81 13.583 15.31 13.31c-1.187 3.886-1.86 8.254-1.86 13.13v21.71h-19.46v18H128V192c0 31.09 6.727 48.742 24.484 57.33L141.5 267.068l15.303 9.477 13.62-21.99c6.328.98 13.464 1.445 21.522 1.445 21.323-.077 42.648.162 63.97 0l.17 18s-8.49.07-16.085.137v75.052h-25.68v18H240v60.587h-15.488v18H240v49.368h128v-12.057h13.7v-18H368v-26.48h23.572v-18H368V316.62h-25.99v-18H368v-15.71h14.97v-18H368v-28.89h25.504v-18H368V137h16v-18h-16V88.008h-23.488v-18h22.314c-1.662-8.766-5.116-16.88-9.945-23.975l8.927-26.16-17.036-5.812zM309.35 43.093l.875 31.986-17.994.492-.876-31.988 17.994-.49zm-46.627 61.306h32v18h-32v-18zm53.852 69.182h32v18h-32v-18zm-169.717 11.035h32v18h-32v-18zm88.553 30.184h32v18h-32v-18zm230.022 12.733l-9.116 20.48c-.105 0-.21-.013-.314-.013-6.622 0-13.238 2.44-17.844 7.313l-12.76-11.094-11.81 13.583L432 273.813v46.275c0 12.18-7.97 15.912-16.395 15.912H386v48h32.994l.12 19.742 18-.11-.12-19.786C465.712 382.176 480 366.232 480 336v-18.223h16.512v-18H480V272c0-7.636-2.736-13.446-6.898-17.438l8.773-19.71-16.445-7.32zm-19.61 83.985l18 .113-.2 32-18-.112.2-32zm-152.472 19.574l.875 31.986-17.994.492-.876-31.988 17.994-.49zm26.312 49.496h32v18h-32v-18zm-62.574 32.453h32v18h-32v-18z"></path></svg>