<svg stroke="currentColor" fill="currentColor" stroke-width="0" viewBox="0 0 512 512" height="1em" width="1em" xmlns="http://www.w3.org/2000/svg"><path d="M119.436 36c-16.126 0-29.2 17.237-29.2 38.5v363c0 21.263 13.074 38.5 29.2 38.5h275.298c16.126 0 29.198-17.237 29.198-38.5v-363c0-21.263-13.072-38.5-29.198-38.5H119.436zm57.214 16.174h.002c13.612-.318 26.504 9.855 27.075 28.043.976 31.09-47.74 52.945-52.313 70.015-4.997-18.649-51.413-37.573-52.45-70.015-.994-31.155 37.404-37.91 52.452-11.848 6.261-10.846 15.921-15.977 25.234-16.195zm69.973 124.361c14.899 0 26.786 4.002 35.662 12.006 8.876 8.004 13.315 17.909 13.315 29.717 0 8.48-2.418 15.81-7.252 21.992-4.755 6.181-12.996 11.65-24.725 16.404 11.333 2.774 20.168 7.37 26.508 13.79 8.083 8.162 12.125 18.266 12.125 30.312 0 13.63-4.834 24.567-14.502 32.808-11.016 9.51-25.36 14.266-43.033 14.266-10.62 0-19.772-1.743-27.46-5.23-7.607-3.487-13.313-8.203-17.116-14.147-3.804-5.943-5.706-12.64-5.706-20.09 0-6.023 1.467-10.776 4.399-14.263s6.617-5.23 11.055-5.23c4.041 0 7.29 1.346 9.748 4.04 2.456 2.615 3.683 6.222 3.683 10.819 0 2.932-.634 5.427-1.902 7.488-1.268 1.981-3.487 3.844-6.656 5.588-3.408 1.822-5.112 3.566-5.112 5.23 0 2.378 1.19 5.07 3.567 8.082 2.457 2.932 6.023 5.31 10.699 7.133 4.755 1.743 10.738 2.615 17.95 2.615 12.441 0 21.634-3.052 27.577-9.154 6.023-6.181 9.033-16.046 9.033-29.598 0-14.185-2.575-24.25-7.726-30.193-5.072-6.023-12.639-9.035-22.703-9.035-2.695 0-6.064.317-10.106.95-3.249.476-5.587.714-7.013.714-2.378 0-4.24-.475-5.586-1.426-1.268-1.03-1.903-2.299-1.903-3.805 0-1.664.595-2.93 1.784-3.802 1.268-.951 3.288-1.428 6.062-1.428l6.537.238 5.707.238c10.065 0 17.633-2.575 22.705-7.726 5.072-5.151 7.608-13.117 7.608-23.895 0-13.234-2.418-22.624-7.252-28.172-4.834-5.626-12.046-8.439-21.635-8.439-8.797 0-15.809 1.584-21.04 4.754-5.23 3.17-7.845 6.102-7.845 8.797 0 1.743 1.504 4.081 4.516 7.013 4.28 3.963 6.42 8.082 6.42 12.362 0 3.249-1.19 5.984-3.567 8.203-2.377 2.219-5.427 3.328-9.152 3.328-3.962 0-7.212-1.506-9.748-4.518-2.457-3.01-3.686-7.21-3.686-12.6 0-8.4 3.013-15.848 9.036-22.347 8.558-9.193 20.801-13.789 36.73-13.789zM360.73 361.77c4.572 17.07 53.289 38.923 52.312 70.013-.57 18.189-13.462 28.364-27.074 28.045v-.002c-9.314-.217-18.975-5.349-25.237-16.195-15.048 26.061-53.445 19.307-52.45-11.848 1.036-32.442 47.451-51.364 52.449-70.013z"></path></svg>