<svg stroke="currentColor" fill="currentColor" stroke-width="0" viewBox="0 0 512 512" height="1em" width="1em" xmlns="http://www.w3.org/2000/svg"><path d="M119.436 36c-16.126 0-29.2 17.237-29.2 38.5v363c0 21.263 13.074 38.5 29.2 38.5h275.298c16.126 0 29.198-17.237 29.198-38.5v-363c0-21.263-13.072-38.5-29.198-38.5H119.436zm26.654 8.045s46.338 33.838 47.271 63.068c.776 24.287-25.024 32.122-40.775 18.586l13.633 32.653h-40.117l13.613-32.633c-15.535 13.88-40.004 5.347-40.756-18.606-.88-28.01 47.13-63.068 47.13-63.068zm63.789 132.49c20.05 4.597 36.414 6.895 49.094 6.895 5.943 0 11.531-.555 16.761-1.664 5.23-1.19 9.153-2.538 11.768-4.043 1.347-.714 2.219-1.069 2.615-1.069.793 0 1.19.593 1.19 1.782 0 2.773-1.784 6.46-5.35 11.056-3.566 4.517-8.44 8.122-14.621 10.817-6.102 2.694-13.156 4.04-21.16 4.04-9.272 0-20.328-1.426-33.166-4.279l-3.922 45.41c6.023-3.01 11.768-5.27 17.236-6.775 5.468-1.506 10.66-2.26 15.572-2.26 15.533 0 28.57 5.151 39.11 15.453 10.62 10.303 15.928 23.022 15.928 38.159 0 16.8-5.626 30.629-16.88 41.486-11.253 10.857-25.833 16.287-43.743 16.287-13.71 0-24.886-3.884-33.524-11.65-8.559-7.846-12.838-17.158-12.838-27.936 0-6.498 1.347-11.49 4.041-14.976 2.774-3.567 6.3-5.35 10.58-5.35 4.2 0 7.608 1.426 10.223 4.28 2.694 2.773 4.043 6.418 4.043 10.935 0 3.407-.674 6.063-2.022 7.965-1.267 1.902-3.645 3.486-7.132 4.754-3.487 1.347-5.23 2.893-5.23 4.636 0 2.536 1.188 5.35 3.566 8.44 2.377 3.011 5.944 5.509 10.699 7.49 4.834 1.902 10.342 2.852 16.523 2.852 12.125 0 21.358-3.765 27.697-11.293 6.42-7.529 9.63-19.772 9.63-36.73 0-15.454-3.37-26.747-10.106-33.88-6.736-7.132-15.334-10.697-25.795-10.697-4.755 0-9.509.87-14.264 2.613-4.754 1.744-9.51 4.359-14.265 7.846-.555 5.547-1.544 9.274-2.971 11.176-1.426 1.822-3.25 2.732-5.469 2.732-1.585 0-2.853-.554-3.804-1.664-.951-1.11-1.426-2.654-1.426-4.635 0-3.487 1.624-6.934 4.873-10.342.95-1.03 1.625-1.941 2.021-2.734l2.735-34.95c1.11-13.788 1.704-27.18 1.783-40.177zm135.9 177.113h40.117l-13.632 32.653c15.75-13.536 41.551-5.701 40.775 18.586-.933 29.23-47.271 63.068-47.271 63.068s-48.012-35.059-47.133-63.068c.751-23.953 25.222-32.486 40.758-18.606l-13.614-32.633z"></path></svg>