<svg stroke="currentColor" fill="currentColor" stroke-width="0" viewBox="0 0 512 512" height="1em" width="1em" xmlns="http://www.w3.org/2000/svg"><path d="M119.436 36c-16.126 0-29.2 17.237-29.2 38.5v363c0 21.263 13.074 38.5 29.2 38.5h275.298c16.126 0 29.198-17.237 29.198-38.5v-363c0-21.263-13.072-38.5-29.198-38.5H119.436zm26.832 8.408v.002h.015c13.587.01 24.442 10.853 24.442 24.442 0 5.71-2.003 10.997-5.266 15.173 1.12-.158 2.232-.31 3.396-.31 13.595 0 24.458 11.157 24.458 24.752 0 13.594-10.863 24.752-24.458 24.752-5.76 0-11.08-2.048-15.294-5.422l12.609 30.193h-40.117l12.42-29.744c-4.12 3.115-9.233 4.973-14.776 4.973-13.594 0-24.752-11.16-24.752-24.754 0-13.595 11.158-24.752 24.752-24.752 1.059 0 2.058.184 3.082.312-3.215-4.16-5.248-9.509-5.248-15.173 0-13.589 11.15-24.434 24.737-24.444zm99.271 132.127c16.404 0 30.076 6.815 41.012 20.445 10.936 13.631 16.404 32.77 16.404 57.416 0 20.446-3.052 37.722-9.154 51.829-6.023 14.026-14.027 24.488-24.012 31.382-9.985 6.816-21.238 10.223-33.76 10.223-12.125 0-21.634-2.655-28.529-7.965-6.815-5.389-10.223-11.808-10.223-19.258 0-4.913 1.387-8.875 4.16-11.886 2.853-3.012 6.42-4.518 10.7-4.518 3.883 0 7.17 1.309 9.865 3.924 2.694 2.615 4.043 5.745 4.043 9.39 0 2.616-1.229 5.508-3.686 8.678-1.505 1.982-2.26 3.685-2.26 5.112 0 2.219 1.31 4.16 3.924 5.824 2.616 1.585 6.815 2.377 12.6 2.377 8.242 0 15.493-2.258 21.754-6.776 6.26-4.596 11.334-12.085 15.217-22.466 3.883-10.461 5.824-23.973 5.824-40.536l-.238-10.58c-5.151 7.767-11.174 13.632-18.069 17.594-6.894 3.883-14.62 5.824-23.18 5.824-11.887 0-22.705-4.16-32.452-12.48-9.669-8.321-14.502-20.566-14.502-36.733 0-15.77 5.35-29.162 16.048-40.177 10.778-11.095 23.615-16.643 38.514-16.643zm.357 8.559c-8.875 0-16.167 3.724-21.873 11.174-5.705 7.37-8.558 18.503-8.558 33.402 0 13.63 2.853 23.815 8.558 30.55 5.706 6.657 13.155 9.985 22.348 9.985 9.114 0 16.76-3.605 22.941-10.816 6.261-7.212 9.393-17.316 9.393-30.313 0-13.472-3.25-24.17-9.748-32.096-6.419-7.924-14.105-11.886-23.06-11.886zm99.899 168.918h40.117l-12.611 30.193c4.215-3.374 9.535-5.422 15.295-5.422 13.594 0 24.459 11.158 24.459 24.752 0 13.595-10.865 24.752-24.46 24.752-1.163 0-2.275-.152-3.396-.31 3.263 4.176 5.266 9.462 5.266 15.173 0 13.589-10.853 24.433-24.44 24.442h-.017c-13.588-.01-24.735-10.853-24.735-24.442 0-5.665 2.033-11.013 5.248-15.173-1.023.128-2.025.312-3.084.312-13.594 0-24.751-11.159-24.751-24.754 0-13.594 11.157-24.752 24.752-24.752 5.542 0 10.655 1.858 14.775 4.973l-12.418-29.744z"></path></svg>