<svg stroke="currentColor" fill="currentColor" stroke-width="0" viewBox="0 0 512 512" height="1em" width="1em" xmlns="http://www.w3.org/2000/svg"><path d="M361.155 91.245l-18 .193.42 38.98c-45.773 13.285-108.533 19.738-166.474 23.573 35.097 96.284 99.357 173.77 157.845 257.13 20.718-19.655 51.11-31.983 83.46-36.01-20.8-18.109-36.634-27.966-58.833-70.438 31.27 37.085 52.579 48.467 77.623 62.006 3.263-13.094 8.938-24.638 18.721-32.674 8.667-7.12 20.026-10.654 33.53-10.344-46.874-59.763-101.67-117.054-127.83-189.435l-.462-42.98zM163.25 102.92l-17.998.244s.25 18.34.56 36.97c.156 9.316.325 18.703.489 25.929.06 2.636.117 4.58.174 6.542-34.378 83.733-69.154 160.993-123.92 233.442 33.635-1.387 66.326-1.203 98.552-.041 22.263-62.617 23.346-134.855 35.627-202.006 11.417 68.562 10.566 139.445 33.483 205.83 42.962 3.082 85.69 7.198 129.35 10.926-55.67-79.151-118.213-155.037-155.118-249.365-.05-1.782-.1-3.396-.152-5.737-.162-7.156-.333-16.523-.488-25.82-.31-18.594-.559-36.914-.559-36.914z"></path></svg>