<svg stroke="currentColor" fill="currentColor" stroke-width="0" viewBox="0 0 512 512" height="1em" width="1em" xmlns="http://www.w3.org/2000/svg"><path d="M119.436 36c-16.126 0-29.2 17.237-29.2 38.5v363c0 21.263 13.074 38.5 29.2 38.5h275.298c16.126 0 29.198-17.237 29.198-38.5v-363c0-21.263-13.072-38.5-29.198-38.5H119.436zm57.216 16.174c13.613-.319 26.504 9.854 27.075 28.043.976 31.09-47.74 52.945-52.313 70.015-4.997-18.649-51.413-37.573-52.45-70.015-.994-31.155 37.404-37.91 52.452-11.848 6.262-10.846 15.923-15.978 25.236-16.195zm34.31 124.361c20.05 4.597 36.415 6.895 49.095 6.895 5.943 0 11.529-.555 16.76-1.664 5.23-1.19 9.154-2.536 11.769-4.041 1.347-.714 2.219-1.07 2.615-1.07.793 0 1.188.594 1.188 1.782 0 2.774-1.782 6.459-5.348 11.055-3.566 4.517-8.44 8.124-14.621 10.819-6.102 2.694-13.156 4.04-21.16 4.04-9.272 0-20.328-1.426-33.166-4.279l-3.922 45.408c6.023-3.01 11.768-5.27 17.236-6.775 5.468-1.506 10.66-2.258 15.572-2.258 15.533 0 28.57 5.151 39.11 15.453 10.619 10.303 15.928 23.022 15.928 38.159 0 16.8-5.626 30.629-16.88 41.486-11.253 10.857-25.835 16.285-43.745 16.285-13.71 0-24.884-3.884-33.522-11.65-8.559-7.846-12.838-17.156-12.838-27.934 0-6.498 1.347-11.491 4.041-14.978 2.774-3.567 6.3-5.35 10.58-5.35 4.2 0 7.608 1.426 10.223 4.28 2.694 2.773 4.043 6.42 4.043 10.937 0 3.407-.674 6.06-2.022 7.963-1.268 1.902-3.646 3.488-7.132 4.756-3.487 1.347-5.23 2.893-5.23 4.636 0 2.536 1.188 5.349 3.566 8.44 2.377 3.011 5.944 5.507 10.699 7.488 4.834 1.902 10.342 2.853 16.523 2.853 12.125 0 21.358-3.764 27.697-11.292 6.42-7.53 9.63-19.774 9.63-36.733 0-15.453-3.37-26.745-10.106-33.877-6.736-7.132-15.334-10.7-25.795-10.7-4.755 0-9.509.873-14.264 2.616-4.755 1.744-9.51 4.359-14.265 7.846-.555 5.547-1.547 9.272-2.973 11.174-1.426 1.822-3.248 2.734-5.467 2.734-1.585 0-2.853-.555-3.804-1.664-.951-1.11-1.426-2.656-1.426-4.637 0-3.487 1.624-6.934 4.873-10.342.95-1.03 1.625-1.941 2.021-2.734l2.735-34.947c1.11-13.79 1.704-27.183 1.783-40.18zM360.73 361.77c4.572 17.07 53.289 38.923 52.312 70.013-.57 18.189-13.462 28.364-27.074 28.045v-.002c-9.314-.217-18.975-5.349-25.237-16.195-15.048 26.061-53.445 19.308-52.45-11.848 1.036-32.442 47.451-51.364 52.449-70.013z"></path></svg>