<svg stroke="currentColor" fill="currentColor" stroke-width="0" viewBox="0 0 512 512" height="1em" width="1em" xmlns="http://www.w3.org/2000/svg"><path d="M28.416 414.373l9.6 8.58c.337.256.628.567.86.92a3.68 3.68 0 0 1 .76-1l8.58-9.6c1.06-1.18 1.48-.71 1.56.49.08 1.2.81 13.27.88 14.28a2.6 2.6 0 0 1-.95 2.27l-5.95 6.65a14.08 14.08 0 0 1 10.65 12.84c.18 3.34 1.2 21.52 1.38 24.86.434 7.754-5.5 14.392-13.255 14.825-7.754.434-14.391-5.5-14.825-13.255-.18-3.34-1.2-21.52-1.39-24.85a14.07 14.07 0 0 1 9.15-14l-6.65-5.94a2.55 2.55 0 0 1-1.18-2.16c-.06-1-.67-13.08-.73-14.28-.06-1.2.31-1.71 1.51-.63zm86.895-36.035c.46 1.11 5.1 12.27 5.5 13.2a2.55 2.55 0 0 0 1.84 1.63l8.26 3.36a14.07 14.07 0 0 0-3.91 16.24c1.3 3.07 8.39 19.85 9.68 22.93 3.021 7.155 11.27 10.506 18.425 7.485 7.155-3.02 10.506-11.27 7.485-18.425-1.29-3.08-6.403-24.826-7.693-27.906-2.394-5.701-10.214-4.207-16.367-3.594l3.36-8.27a2.6 2.6 0 0 0 .13-2.45c-.4-.93-5.16-12-5.64-13.15-.48-1.15-1-1.41-1.63.06l-4.85 11.93a3.68 3.68 0 0 0-.37 1.22 3.71 3.71 0 0 0-1.12-.58l-11.93-4.85c-1.43-.57-1.64.09-1.18 1.16zm76.452-64.348c.702.931 7.827 10.74 8.434 11.54a2.55 2.55 0 0 0 2.134 1.164l8.817 1.325a14.07 14.07 0 0 0 .047 16.696c1.98 2.678 12.804 17.336 14.786 20.023 4.544 6.445 13.498 7.894 19.842 3.21 6.344-4.684 7.596-13.668 2.775-19.908-1.973-2.698-12.805-17.345-14.777-20.034a14.08 14.08 0 0 0-15.962-4.917l1.325-8.817a2.6 2.6 0 0 0-.456-2.415c-.608-.811-7.84-10.488-8.555-11.458-.716-.97-1.336-1.126-1.573.437l-1.919 12.73a3.68 3.68 0 0 0-.067 1.275 3.71 3.71 0 0 0-1.228-.304l-12.731-1.918c-1.594-.245-1.618.391-.903 1.362zm52.19-92.677c.89.81 9.82 8.95 10.57 9.62a2.55 2.55 0 0 0 2.36.7l8.9-.46a14.07 14.07 0 0 0 3.35 16.37c2.48 2.23 16 14.42 18.49 16.66 5.783 5.068 14.564 4.55 19.711-1.163 5.147-5.714 4.75-14.502-.892-19.727-2.48-2.24-16-14.43-18.49-16.67a14.08 14.08 0 0 0-16.68-1.65l-.47-8.91a2.6 2.6 0 0 0-.93-2.28l-10.6-9.51c-.9-.8-1.53-.84-1.45.75l.67 12.86c-.013.428.047.854.18 1.26a3.712 3.712 0 0 0-1.26 0l-12.86.67c-1.62.03-1.51.66-.61 1.47zm71.329-114.095c11-2.5 18.73-8.87 23.52-19.33-26.62-20-76.72-55.29-110-63.88-4.81-1.26-15.81-1.14-19.63-1.14 0 0 36.82 44.3 44.44 72.14 17.94 8.54 42.67 16.54 61.65 12.21zm-232.76-40c-4.18-1.67-10.23 0-12.65 0 0 0 6.84 13.55 11.57 25.63 9.46-2.07 22.78-4.12 35.45-5.79-11.9-8.06-24.76-15.99-34.39-19.84zm408.18 49.72c-4.89-34.32-88.13-33.11-134.54-29.72-7.84 24.16-26.21 37.22-52.6 37.22-1.27 0-2.55 0-3.85-.09-21.93-1-43.63-10.24-54.61-15.64a147.59 147.59 0 0 1-19.11-11.11c-1-.67-1.83-1.32-2.65-1.95-32.9 1-62.63 2.75-87.09 5.15-16.17 1.78-37.68 4.76-50.4 7.45-12 2.86-18.65 6-18.65 9.37 0 12.59 94.83 22.8 211.81 22.8s211.81-10.21 211.81-22.8a2.6 2.6 0 0 0-.14-.68z"></path></svg>