<svg stroke="currentColor" fill="currentColor" stroke-width="0" viewBox="0 0 512 512" height="1em" width="1em" xmlns="http://www.w3.org/2000/svg"><path d="M119.436 36c-16.126 0-29.2 17.237-29.2 38.5v363c0 21.263 13.074 38.5 29.2 38.5h275.298c16.126 0 29.198-17.237 29.198-38.5v-363c0-21.263-13.072-38.5-29.198-38.5H119.436zm26.884 3.717h.002l47.39 58.27-47.39 58.286-47.377-58.287 47.375-58.27zm96.5 125.287h7.963l63.121 160.834c2.536 6.498 7.727 9.748 15.573 9.748h5.468v8.916h-70.134v-8.916h5.587c7.291 0 12.442-.792 15.454-2.377 2.06-1.11 3.09-2.815 3.09-5.113 0-1.347-.278-2.774-.833-4.28l-14.62-37.324h-69.423l-8.2 21.397c-2.14 5.706-3.21 10.222-3.21 13.55 0 3.884 1.782 7.213 5.348 9.987 3.645 2.774 8.916 4.16 15.81 4.16h5.944v8.916h-63.715v-8.916c6.815 0 12.204-1.466 16.166-4.399 3.962-3.011 7.61-8.676 10.937-16.998l59.674-149.185zm-3.447 33.879l-31.502 78.336h62.17l-30.668-78.336zm126.29 153.64l47.392 58.27-47.393 58.287-47.375-58.287 47.375-58.27z"></path></svg>