<svg stroke="currentColor" fill="currentColor" stroke-width="0" viewBox="0 0 512 512" height="1em" width="1em" xmlns="http://www.w3.org/2000/svg"><path d="M155.8 25.14c-30.2.34-63.52 4.32-88.77 13.34-13.21 4.71-24.1 10.78-31.26 17.73-4.74 4.6-7.78 9.44-9.39 14.9 33.34.04 92.02 1.38 132.22 28.78 9.7-12.64 12-27.08 10.5-40.9-1.6-14.1-7.8-26.92-13.3-33.85zm200.4 0c-5.5 6.93-11.7 19.75-13.3 33.85-1.5 13.82.8 28.26 10.5 40.9 40.2-27.4 98.9-28.78 132.2-28.78-1.6-5.46-4.6-10.3-9.4-14.9-7.1-6.95-18-13.02-31.2-17.73-25.3-9.02-58.6-13-88.8-13.34zM187.4 66.59c0 7.94-1.2 16.14-3.9 24.16C205.8 112.5 231 123 256 123s50.2-10.5 72.5-32.26c-2.6-7.74-3.8-15.64-3.9-23.31-46.9 7.73-92.6 6.81-137.2-.84zm-84.3 30.26c-.8 15.65-1.8 32.45-3.24 50.25 9.44-3.2 19.54-8.2 29.14-14.6 7.5-5 14.6-10.8 20.8-16.9-12.8-8.9-29.3-14.8-46.7-18.75zm305.8.01c-17.4 3.94-33.9 9.84-46.7 18.74 6.2 6.1 13.3 11.9 20.8 16.9 9.6 6.3 19.7 11.4 29.1 14.6-1.4-17.7-2.4-34.6-3.2-50.24zM178 110.1c-9.6 14.2-23.6 27.1-39 37.4-13 8.7-27 15.5-40.55 18.9 5.35 6 10.95 12.5 16.45 19.3 22.2 14.6 40.8 21.3 61.1 21.3 20.9 0 44.6-7.4 76-23.1l4-2 4 2c31.4 15.7 55.1 23.1 76 23.1 20.3 0 38.9-6.7 61.1-21.3 5.5-6.8 11-13.3 16.4-19.3C400 163 386 156.2 373 147.5c-15.4-10.3-29.4-23.2-39-37.4-23.6 20.3-50.7 30.9-78 30.9-27.3 0-54.4-10.6-78-30.9zm-82.12 80.8c-9.74 94.8-28.76 207-63.29 302.4 24.59-12 50.33-21.9 76.81-29.6-8.3-19.7-16.54-50.7-5.9-82.5 14.3-43.2 40.6-85.3 47.4-95.7-1.4-12.2-11.8-34.7-26.4-56.5-8.7-13.1-18.8-26.3-28.62-38.1zm320.22 0c-9.9 11.8-19.9 25-28.6 38.1-14.6 21.8-25 44.3-26.4 56.5 6.8 10.4 33.1 52.5 47.4 95.7 10.6 31.8 2.4 62.8-5.9 82.5 26.5 7.7 52.2 17.6 76.8 29.6-34.5-95.4-53.5-207.6-63.3-302.4zM247 206.2c-26.7 12.2-49.4 18.8-71 18.8-12.7 0-24.8-2.3-37-6.7.2.3.3.5.5.7 15.2 22.8 27.4 45 29.2 64.4 6.4 5.3 17.9 10.4 32.4 13.8 5.2 1.2 10.8 2.3 16.5 3.1 2.3-4.9 6-9.2 10.4-12.5 5.3-4 11.8-6.7 19-8v-73.6zm18 0v73.6c7.2 1.3 13.7 4 19 8 4.4 3.3 8.1 7.6 10.4 12.5 5.7-.8 11.3-1.9 16.5-3.1 14.5-3.4 26-8.5 32.4-13.8 1.8-19.4 14-41.6 29.2-64.4.2-.2.3-.4.5-.7-12.2 4.4-24.3 6.7-37 6.7-21.6 0-44.3-6.6-71-18.8zm-9 90.8c-7 0-13.2 2.2-17.2 5.2-4.1 3.1-5.8 6.4-5.8 9.8 0 3.4 1.7 6.7 5.8 9.8 4 3 10.2 5.2 17.2 5.2s13.2-2.2 17.2-5.2c4.1-3.1 5.8-6.4 5.8-9.8 0-3.4-1.7-6.7-5.8-9.8-4-3-10.2-5.2-17.2-5.2zm-93.8 4.3c-8.7 14-29.6 49.3-41.7 85.5-13.3 40.1 10.5 80.8 13.8 86.2 30 14.2 75.8 22 121.7 22 45.9 0 91.7-7.8 121.7-22 3.3-5.4 27.1-46.1 13.8-86.2-12.1-36.2-33-71.5-41.7-85.5-9.4 6.1-21.4 10.4-34.7 13.5-6 1.4-12.3 2.6-18.9 3.5-1.7 7.2-6.3 13.4-12.2 17.9-7.5 5.6-17.3 8.8-28 8.8s-20.5-3.2-28-8.8c-5.9-4.5-10.5-10.7-12.2-17.9-6.6-.9-12.9-2.1-18.9-3.5-13.3-3.1-25.3-7.4-34.7-13.5z"></path></svg>