<svg stroke="currentColor" fill="currentColor" stroke-width="0" viewBox="0 0 512 512" height="1em" width="1em" xmlns="http://www.w3.org/2000/svg"><path d="M258.148 20.822c-1.112.008-2.226.026-3.343.055-39.32 1.041-81.507 15.972-123.785 50.404l-6.028 4.91-5.732-5.25c-12.644-11.578-20.276-27.633-25.653-43.716-8.974 36.98-14.631 81.385-9.232 114.523 18.065.908 45.409-2.177 73.7-7.818 17.858-3.561 36.048-8.126 53.064-13.072-13.419-2.911-25.896-6.882-38.143-12.082l-16.088-6.832 14.906-9.127c46.367-28.393 80.964-40.686 120.235-35.553 33.105 4.327 69.357 20.867 119.066 47.271-25.373-36.314-62.243-64.737-104.728-76.994-15.402-4.443-31.553-6.828-48.239-6.719zM346 116c-46.667 0-46.666 0-46.666 46.666V349.4c0 9.596.007 17.19.414 23.242a664.804 664.804 0 0 1 50.656-12.223c24.649-4.915 48.367-8.224 67.916-8.41 6.517-.062 12.571.224 18.041.912l6.31.793 1.358 6.213c2.464 11.265 3.673 23.447 3.914 36.059 38.032-.19 38.057-3.06 38.057-46.65V162.665C486 116 486 116 439.334 116a226.98 226.98 0 0 1 3.978 7.64l12.624 25.536-25.004-13.648c-13.085-7.143-25.164-13.632-36.452-19.528zm-281.943.016c-38.032.19-38.057 3.06-38.057 46.65V349.4C26 396 26 396 72.666 396a226.98 226.98 0 0 1-3.978-7.64l-12.624-25.536 25.004 13.649c13.085 7.142 25.164 13.632 36.452 19.527H166c46.667 0 46.666 0 46.666-46.666V162.666c0-9.626-.006-17.24-.416-23.304a664.811 664.811 0 0 1-50.654 12.22c-32.865 6.554-64.077 10.25-85.957 7.498l-6.31-.793-1.358-6.213c-2.464-11.265-3.673-23.446-3.914-36.058zm354.619 254.078c-17.543.25-40.826 3.206-64.75 7.977-17.859 3.56-36.05 8.125-53.065 13.072 13.419 2.91 25.896 6.881 38.143 12.082l16.088 6.832-14.906 9.127c-46.367 28.392-80.964 40.685-120.235 35.553-33.105-4.327-69.357-20.868-119.066-47.272 25.373 36.315 62.243 64.738 104.728 76.994 52.573 15.166 113.872 6.343 175.367-43.74l6.028-4.91 5.732 5.25c12.644 11.579 20.276 27.633 25.653 43.717 8.974-36.981 14.631-81.386 9.232-114.524-2.788-.14-5.748-.204-8.95-.158z"></path></svg>