<svg stroke="currentColor" fill="currentColor" stroke-width="0" viewBox="0 0 512 512" height="1em" width="1em" xmlns="http://www.w3.org/2000/svg"><path d="M365.852 31.858c-10.152 2.474-24.915 7.073-37.437 13.602-9.2 4.797-17.277 10.575-21.928 16.19-4.65 5.618-6.05 9.96-4.416 15.587l3.556 12.254-12.736-.76c-3.048-.183-4.944-.117-7.364-.262-2.42-.146-5.405-.706-8.27-1.87-3.86-1.568-9.082-4.65-16.085-8.91-.366 4.63-.58 10.108-.407 16.006.38 12.915 2.02 27.945 4.82 41.17 1.328 6.27 3.007 12.134 4.805 17.13 2.992-4.705 6.264-9.202 9.84-13.368 17.022-19.818 40.47-41.586 69.867-43.697 14.423-1.037 29.333 5.324 42.554 12.41 3.997-7.635 10.257-13.963 16.617-19.67 6.403-5.748 13.146-11.018 18.95-15.97-9.552-6.72-16.81-10.074-23.02-10.855-7.936-.998-16.028 1.45-28.835 8.828l-15.21 8.762 4.7-46.577zm-12.796 80.995a16.57 16.57 0 0 0-1.672.03c-20.817 1.494-41.72 19.098-57.5 37.47-13.842 16.117-23.36 41.13-28.65 61.556 6.866 1.127 14.21 2.21 21.564 2.43 10.95.33 20.46-1.593 25.334-5.83l7.04-6.114 5.862 7.25c4.956 6.128 10.802 14.087 14.32 23.476 1.78 4.75 2.88 10.128 2.698 15.607 12.487-2.64 23.93-7.162 28.884-12.86l5.256-6.043 6.614 4.52c10.006 6.838 19.827 14.582 26.634 25.236 1.033-3.752 1.935-7.666 2.416-11.75 1.503-12.738-.18-25.93-6.636-35.494-10.232-11.257-22.116-22.055-24.93-37.03-1.066-5.675.69-10.02 2.78-14.29 2.092-4.27 4.972-8.467 8.35-12.593 3.803-4.644 8.228-9.1 12.948-13.05-4.015-2.658-8.39-5.55-13.877-8.665-12.77-7.256-28.594-13.592-37.434-13.86zM48.52 128.626c-6.353-.037-9.976.466-9.976 1.576 2.82 12.857 7.998 26.53 15.432 39.48 26.005-3.718 53.01-5.705 80.652-5.488 26.75 8.66 54.68 16.02 80.83 25.338-25.477-4.52-50.737-6.842-75.512-7.3a489.987 489.987 0 0 0-11.82-.073c-28.5.16-56.26 2.772-82.938 7.17 4.785 32.48 20.097 79.06 50.397 120.476 32.95 45.036 82.958 84.022 156.976 94.457 58.185 8.202 107.473-4.926 132.47-31.346 12.5-13.21 19.395-29.548 19.23-49.768-.157-18.958-6.877-41.526-22.327-67.106-1.133-.884-2.3-1.766-3.52-2.654-13.164 10.368-31.666 13.752-47.895 15.322l-18.392 1.78 9.94-15.58c2.974-4.66 2.76-9.265.433-15.474-1.486-3.962-4.016-8.048-6.75-11.992-9.13 4.418-19.634 5.185-29.495 4.887-12.977-.392-25.546-2.913-33.66-4.262l-9.268-1.538 1.936-9.193c2.894-13.746 7.735-30.663 15.19-46.902-46.584-23.24-175.11-41.595-211.933-41.812zm303.762.088c8.852 0 16.186 7.384 16.186 16.213 0 8.83-7.334 16.213-16.186 16.213-8.85 0-16.187-7.384-16.187-16.213 0-8.83 7.336-16.213 16.187-16.213zm73.906 13.47l-1.707.936c-5.958 3.275-13.704 10.08-19.133 16.71-2.715 3.316-4.887 6.612-6.11 9.108-.885 1.807-1.032 3.154-1.13 3.35 1.295 5.8 10.486 16.914 20.966 28.522l.387.427.326.473a54.88 54.88 0 0 1 4.754 8.342c11.47.563 23.966-.753 38.652-3.727l-41.35-30.937s37.437.748 51.126-1.635c4.696-.818-25.494-22.228-46.78-31.57zM160.52 231.076l17.516 4.15c-1.628 6.866-6.334 11.36-11.355 15.008-5.02 3.65-10.874 6.607-17 9.354-5.37 2.408-10.923 4.598-16.195 6.698 17.247 7.16 39.738 12.514 57.944 7.756l8.135-2.127 2.672 7.975c2.102 6.27.8 12.92-1.97 18.097-2.766 5.176-6.815 9.438-11.452 13.343-4.408 3.713-9.428 7.075-14.636 10.11 1.512.4 2.75.78 4.413 1.185 16.154 3.923 39.21 7.99 62.21 9.678 22.997 1.688 46.086.824 61.544-4.053 7.728-2.44 13.347-5.8 16.605-9.553 3.26-3.753 4.8-7.815 4.16-14.64l17.922-1.678c1.02 10.888-2.2 20.873-8.49 28.12-6.29 7.245-15.014 11.835-24.78 14.917-19.536 6.163-44.068 6.615-68.28 4.837-24.213-1.778-47.956-5.964-65.14-10.137-8.59-2.087-15.446-4.112-20.384-6.105-2.47-.997-4.277-1.582-6.817-3.805-1.27-1.112-3.838-3.195-3.59-8.084.122-2.444 1.414-4.847 2.696-6.168 1.28-1.32 2.438-1.895 3.368-2.295 9.76-4.196 20.562-10.17 27.602-16.098a41.493 41.493 0 0 0 3.95-3.828c-28.726 2.026-57.113-10.163-73.773-20.45l-13.646-8.425 14.302-7.258c9.833-4.99 23.145-9.453 34.26-14.44 5.56-2.492 10.508-5.107 13.787-7.49 3.277-2.38 4.37-4.38 4.42-4.597zM132.378 373.31c-9.94 10.178-24.66 20.105-40.18 28.05-6.34-7.936-13.154-15.46-20.445-22.242L59.495 392.3c5.485 5.1 10.75 10.778 15.762 16.814-5.725 2.31-11.364 4.275-16.715 5.793l4.914 17.315c6.655-1.89 13.604-4.25 20.605-7.035-.004 16.89-1.79 35.74-6.532 48.816l16.92 6.14c3.645-10.05 5.755-21.453 6.826-32.9 4.775 8.44 9.016 16.875 12.606 24.934l16.443-7.326c-6.96-15.626-16.04-32.46-26.976-48.42 16.785-8.633 32.574-19.633 43.97-32.488a244.225 244.225 0 0 1-14.94-10.632zm301.435 35.127c-15.158.19-32.163 7.857-49.21 18.494a196.634 196.634 0 0 0-20.456 14.66c-6.71-5.158-13.73-10.692-20.86-16.23a1086.232 1086.232 0 0 0-7.88-6.062c-7.882 1.91-16.138 3.324-24.705 4.232 7.053 4.96 14.317 10.433 21.545 16.047 6.184 4.802 12.332 9.672 18.37 14.354-4.958 5.056-9.45 10.33-13.243 15.735l14.734 10.34c3.507-4.998 7.984-10.123 13.076-15.117 5.09 3.68 10.056 7.083 14.82 9.965l9.317-15.4a143.322 143.322 0 0 1-4.667-2.96c19.407-2.33 39.054-.35 52.653 2.676l3.91-17.57c-10.58-2.356-23.95-4.223-38.416-4.275l-.19.002c13.615-7.218 26.607-11.223 33.21-10.857l1-17.97a44.232 44.232 0 0 0-3.007-.063z"></path></svg>