<svg stroke="currentColor" fill="currentColor" stroke-width="0" viewBox="0 0 512 512" height="1em" width="1em" xmlns="http://www.w3.org/2000/svg"><path d="M206.47 19.5c-4.53 42.503-28.564 74.22-28.564 95.53.004 10.575 15.696 23.5 30.344 23.5 4.005 0 7.924-.994 11.47-2.686-2.032 5.148-3.804 10.014-5.19 14.625-14.796 1.954-28.22 4.893-39.655 8.655-10.928 3.596-20.086 7.868-27.125 13.344-7.04 5.474-12.5 12.918-12.5 21.905 0 1.2.096 2.357.28 3.5h-.06c0 71.244 44.097 130.45 101.936 141.97-8.37 41.925-29.252 79.813-58.344 110.092-8.084 4.503-12.75 9.735-12.75 15.344 0 16.683 41.04 30.22 91.625 30.22s91.657-13.537 91.657-30.22c0-5.672-4.772-10.962-13.03-15.5-29.02-30.266-49.46-68.122-57.627-110C336.594 328.085 380.5 268.967 380.5 197.876h-.094c.187-1.143.28-2.3.28-3.5.002-8.987-5.49-16.43-12.53-21.906-7.04-5.477-16.196-9.75-27.125-13.345-16.012-5.27-35.905-8.914-58.03-10.5-7.514-27.144-27.472-62.53-34.656-104.22-2.246 21.072-8.228 40.076-14.72 57.064-5.578-21.2-21.483-49.06-27.155-81.97zm110.81 9.438c-4.078 38.274-25.717 66.84-25.717 86.03 0 9.523 14.153 21.157 27.343 21.157 12.9 0 24.626-11.597 24.625-21.625 0-19.986-20.012-49.374-26.25-85.563zm-31.405 138.656c19.192 1.662 36.208 4.97 49.313 9.28 9.588 3.156 17.065 6.895 21.5 10.345 4.434 3.45 5.312 5.84 5.312 7.155 0 1.314-.877 3.675-5.313 7.125-4.435 3.45-11.91 7.22-21.5 10.375-19.176 6.31-46.743 10.438-77.218 10.438-30.477 0-58.075-4.128-77.25-10.438-9.59-3.155-17.066-6.925-21.5-10.375-4.436-3.45-5.282-5.81-5.282-7.125 0-1.314.846-3.706 5.28-7.156 4.436-3.45 11.913-7.19 21.5-10.345 8.754-2.88 19.266-5.3 31-7.094 2 13.153 21.07 28.064 38.938 28.064 18.173 0 34.696-16.06 35.22-30.25z"></path></svg>