<svg stroke="currentColor" fill="currentColor" stroke-width="0" viewBox="0 0 512 512" height="1em" width="1em" xmlns="http://www.w3.org/2000/svg"><path d="M256 19C125 19 19 125 19 256s106 237 237 237 237-106 237-237S387 19 256 19zm31.2 24.62c32 8.05 45.4 16.11 62.4 33.82-14.2 10.15-32.7 13.37-52.5 14.63 27.8 6.96 52.9 20.83 73.3 39.63 8.3 3.4 15.9 5.1 21.4 2.9-16-9.8-21.9-32.5-17.9-46.12 20.6 23.02 30.2 38.12 54.3 39.32 16.9 28.3 20.7 43.5 20.2 68.1-17.3-2.9-32.7-13.7-47.6-26.9 14.3 23.6 22.9 51.1 24.1 80.4 3.4 8.1 7.5 14.6 12.9 16.8-4.3-18.3 7.5-38.5 20-45.3-1.8 30.8-5.7 48.3 10.5 66.2-8 32-16.1 45.4-33.8 62.4-10.1-14.2-13.3-32.6-14.6-52.3-7 27.9-21 53.1-40 73.6-3.2 8.1-4.8 15.5-2.6 20.9 9.9-16 32.5-21.9 46.1-17.9-23 20.5-38.1 30.1-39.3 54.3-28.3 16.9-43.5 20.7-68.1 20.2 2.9-17.1 13.6-32.4 26.6-47.3-23.6 14.3-51.1 22.8-80.4 23.9-7.9 3.3-14.2 7.5-16.4 12.7 18.3-4.3 38.5 7.6 45.3 20-30.8-1.7-48.3-5.6-66.2 10.6-32-8-45.4-16.1-62.4-33.8 14.1-10.1 32.3-13.3 51.9-14.6-27.8-7-52.9-21-73.3-40-8-3.2-15.5-4.8-20.8-2.7 16 9.9 21.9 32.6 17.9 46.2-20.6-23-30.2-38.1-54.31-39.3-16.97-28.3-20.72-43.5-20.22-68 17.15 2.8 32.4 13.5 47.23 26.5-14.17-23.6-22.7-51-23.77-80.2-3.39-8-7.53-14.4-12.81-16.6 4.3 18.3-7.6 38.5-20 45.3 1.7-30.8 5.6-48.3-10.6-66.2 8-32 16.1-45.4 33.8-62.4 10.16 14.1 13.35 32.5 14.61 52.2a168.64 168.64 0 0 1 39.77-73.2c3.4-8.2 5-15.8 2.8-21.2-9.9 16-32.6 21.8-46.13 17.9 23.03-20.6 38.13-30.2 39.33-54.32 26.5-15.91 41.5-20.2 63.5-20.26 1.5-.01 3 .01 4.5.04-2.8 17.31-13.7 32.65-26.9 47.64 23.7-14.31 51.1-22.93 80.4-24.06 8.2-3.41 14.7-7.6 16.9-12.96-18.3 4.31-38.5-7.53-45.3-19.99 30.8 1.71 48.3 5.62 66.2-10.57zm12.9 14.02c-5.5 0-10 4.48-10 10s4.5 10 10 10 10-4.48 10-10-4.5-10-10-10zm-146.1 24c-2.6 0-5.1.98-7.1 2.92-3.9 3.89-3.9 10.25 0 14.14 3.9 3.9 10.3 3.9 14.2 0 3.8-3.89 3.8-10.25 0-14.14-2-1.94-4.5-2.92-7.1-2.92zM420.3 144c-2.5 0-5.1 1-7.1 2.9-3.9 3.9-3.8 10.2 0 14.1 3.9 3.9 10.3 3.9 14.2 0 3.9-3.9 3.9-10.3 0-14.1-1.9-1.9-4.5-2.9-7.1-2.9zM67.72 201.9c-5.5 0-10 4.5-10 10s4.5 10 10 10 10-4.5 10-10-4.5-10-10-10zM444.3 290c-5.5 0-10 4.5-10 10s4.5 10 10 10 10-4.5 10-10-4.5-10-10-10zM91.74 347.9c-2.56 0-5.13 1-7.07 2.9-3.89 3.9-3.89 10.3 0 14.2 3.89 3.9 10.25 3.9 14.14 0 3.89-3.9 3.89-10.3 0-14.2-1.94-1.9-4.51-2.9-7.07-2.9zm266.16 62.3c-2.5 0-5 .9-7 2.9-3.9 3.9-3.9 10.3 0 14.2 3.9 3.9 10.2 3.9 14.1 0 3.9-3.9 3.9-10.3 0-14.2-2-2-4.5-2.9-7.1-2.9zm-145.9 24c-5.5 0-10 4.5-10 10s4.5 10 10 10 10-4.5 10-10-4.5-10-10-10z"></path></svg>