<svg stroke="currentColor" fill="currentColor" stroke-width="0" viewBox="0 0 512 512" height="1em" width="1em" xmlns="http://www.w3.org/2000/svg"><path d="M214.475 29.258L161.77 81.96c16.936 20.538 28.36 42.014 27.927 65.403-.452 24.518-14.472 48.98-43.79 73.528l5.99 17.694c71.606-19.315 130.42-50.42 170.478-101.428l-107.9-107.898zm-57.424 77.54L21.24 211.07v51.764l149.748-115.11c.008-.236.02-.472.026-.706.24-13-4.75-26.334-13.96-40.22zm276.18 3.19l-36.34 84.352 70.038-48.074-33.7-36.278zm-97.543 40.48c-42.955 53.685-105.04 86.063-177.787 105.852l14.08 41.59c18.005.184 38.99-3.06 60.754-9.574.94-1.584 1.904-3.157 2.924-4.705 23.146-35.122 66.755-62.113 114.967-66.79 8.404-8.93 16.06-18.51 22.73-28.705l-37.668-37.666zm29.745 84.34c-47.143 0-92.654 26.458-114.168 59.106-10.757 16.324-15.532 33.768-12.805 50.416 2.726 16.648 12.827 33.23 34.772 48.188l6.118 4.168c13.21 6.097 27.513 9.598 40.26 10.794l-38.04 5.555-20.562 43.145c11.34 9.924 24.012 17.9 37.492 23.927l10.53-45.236 18.202 4.24-11.09 47.646c13.566 4.21 27.673 6.614 41.858 7.203v-52.015h18.688v51.74c13.787-.973 27.45-3.665 40.56-8.07l-10.443-46.578 18.236-4.09 9.77 43.57c11.56-5.517 22.482-12.496 32.422-20.94l-21.39-44.884-35.71-5.213c10.606-.995 22.29-3.588 33.524-7.94l12.13-5.782c24.48-15.652 35.938-32.698 39.337-49.32 3.44-16.818-1.263-34.156-12.35-50.5-22.174-32.69-70.172-59.13-117.34-59.13zm-50.62 84.174c19.09 0 34.567 15.475 34.567 34.565 0 19.09-15.48 34.566-34.567 34.566-19.09 0-34.565-15.476-34.565-34.566 0-19.09 15.474-34.565 34.565-34.565zm105.547 0c19.09 0 34.564 15.476 34.564 34.565 0 19.09-15.476 34.566-34.565 34.566-19.09 0-34.565-15.476-34.565-34.566 0-19.09 15.474-34.565 34.564-34.565zm-233.737 3.747l-108.115.26 24.996 43.334 83.12-43.595zm23.623 15.715l-56.36 83.56 44.692 15.724 11.668-99.285zm107.7 9.703c-5.715 0-10.147 4.433-10.147 10.147 0 5.715 4.432 10.146 10.145 10.146 5.714 0 10.147-4.43 10.147-10.145s-4.43-10.147-10.147-10.147zm99.28 0c-5.715 0-10.146 4.432-10.146 10.147 0 5.714 4.433 10.146 10.147 10.146 5.713 0 10.146-4.43 10.146-10.145 0-5.714-4.432-10.147-10.146-10.147zm-49.835 14.297l23.046 53.694c-11.686 7.06-33.125 7.013-44.42 1.95l21.375-55.645z"></path></svg>