<svg stroke="currentColor" fill="currentColor" stroke-width="0" viewBox="0 0 512 512" height="1em" width="1em" xmlns="http://www.w3.org/2000/svg"><path d="M356.022 27.541c-43.9.028-111.558 28.053-110.32 71.936 1.261 44.656 116.215 66.754 116.215 66.754s-57.956 31.231-54.701 57.48c6.09 49.118 101.218 36.19 125.531 79.3 18.501 32.808 16.192 99.727 2.216 112.971 34.537-17.716 63.839-83.723 52.243-128.476-9.39-36.24-82.42-33.313-87.506-70.402-6.125-44.662 87.029-65.718 78.658-110.014-9.032-47.796-73.694-79.58-122.336-79.549zM30.42 83.834c-3.89.095-5.436.99-6.276 1.83-.84.84-1.735 2.385-1.83 6.276 2.113 24.907 20.582 54.074 31.67 71.31l16.52-66.074C57.55 91.46 44.728 83.638 30.419 83.834zm56.373 22.399L67.54 183.235c12.125 17.145 26.832 36.244 44.072 57.095l26.99-98.965c-17.471-12.944-34.274-24.722-51.81-35.132zm67.248 46.941l-28.346 103.934c4.426 5.18 9.05 10.495 13.774 15.875l11.783-11.784a82.612 82.612 0 0 1-3.334-8.377c-4.674-14.021-4.768-28.777 4.92-38.464 15.746-10.961 32.396-8.198 46.842-1.586l11.783-11.784c-20.611-18.104-39.793-34.043-57.422-47.814zm73.043 57.648l-11.285 11.286c6.027 4.215 11.965 9.194 17.648 14.877s10.664 11.622 14.88 17.65l11.284-11.285zm-61.518 16.264c-2.809 2.81-4.086 9.498-.57 20.045 3.516 10.547 11.56 23.472 23.197 35.11 11.637 11.636 24.563 19.683 35.11 23.199 10.547 3.515 17.236 2.236 20.045-.573 2.809-2.809 4.088-9.497.572-20.045-3.516-10.547-11.562-23.472-23.2-35.109-11.636-11.637-24.562-19.682-35.109-23.197-6.035-1.687-15.118-4.156-20.045.57zm106.332 29.432l-14.236 14.236a82.562 82.562 0 0 1 3.332 8.375c4.674 14.022 4.77 28.78-4.918 38.467-9.688 9.688-24.445 9.592-38.467 4.918a82.562 82.562 0 0 1-8.375-3.332l-14.238 14.238c18.655 19.456 32.69 33.568 50.783 51.66l38.787-116.365a2334.082 2334.082 0 0 0-12.668-12.197zm-111.31 20.8l-11.285 11.286 32.527 32.527 11.285-11.285c-6.027-4.216-11.967-9.196-17.65-14.879-5.683-5.683-10.662-11.621-14.877-17.648zm138.287 5.399l-38.865 116.594 53.652 53.652 38.89-116.672c-17.612-17.557-36.8-36.92-53.677-53.574zm67.906 67.803l-28.592 85.779 57.186-57.186zm32.922 48.195l-61.207 61.207 12.727 12.729 61.209-61.21zm11.81 33.443l-39.574 39.575 12.729 12.728 39.574-39.574z"></path></svg>