<svg stroke="currentColor" fill="currentColor" stroke-width="0" viewBox="0 0 512 512" height="1em" width="1em" xmlns="http://www.w3.org/2000/svg"><path d="M292.5 25.06c-.4 9.84-.9 19.71-1.4 29.59-3.8-.38-7.7-2.4-12.3-5.8-6.9-5.12-14-13.21-21.2-20.3L245 41.43c6.4 6.27 13.9 15 23 21.84 6.3 4.69 14.1 8.57 22.6 9.22-1.1 37.51-.4 74.91 6.9 111.21-10.9 14.4-19.6 31-26 48.2-1 2.7-1.9 5.4-2.9 8.1-13.4-6-27.7-15.6-41.6-26.8-13.7-34-14.6-68.6 5-95.7 9.8-6 14.6-17.76 16-29.81l-17.9-2.09c-1 9.34-6.4 16.3-8.9 17.1-.2.1-.4.1-.6.2l-.1-.1c0 .1-.1.1-.1.2-1 .2-2.1-.1-4.5-1.7-3-2.06-7.3-6.96-11.9-15.69l-16 8.32c5.4 10.37 11.1 17.57 17.6 22.17 1.5 1 3 1.8 4.5 2.5-11.5 22.1-13.4 47.1-8.5 72-.9-.8-1.7-1.7-2.6-2.5-24.7-24.5-43.3-48.2-56.6-60.1-.9-9.9-1.5-17.9-.9-24.5.9-10.73 3.7-17.78 12.9-26.71l-12.6-12.88c-11.6 11.36-17.1 24.16-18.3 38.09-.7 9.3.1 19.7 1.3 31-21.3-11.9-41.34-21.2-66.46-27.5L54 123c25.1 6.3 44.29 15.5 66.7 28.4 6.9 6.1 29.3 33.1 55.8 59.4 24.2 24 52.8 48.7 84.8 60.8-3.2 23.7-.9 47.2 9.9 67-6.4 6.7-12 13.8-16.9 21.2-2.7 4.1-5.1 8.2-7.4 12.4-22.2-7.7-52.1-26.6-76.8-47.8-.7-.6-1.4-1.3-2.2-1.9.3-7.2 3.2-15.7 7.8-24 5.8-10.5 14.2-20.4 21.6-27.1L185.2 258c-8.9 8.1-18.3 19.2-25.2 31.7-3.2 5.8-6 11.9-7.8 18.2-7.1-7-13.5-13.9-18.7-20.2-9.3-11.4-14.6-22.2-15-24.5-7.3-38.6-10.7-51.1-40.03-90.9l-25.77 19c7.18 9.7 12.44 17.1 16.43 23.2-13.82 1.5-29.01-2.2-37.78-10.2l-12.1 13.4c15.54 14.1 38.51 18.3 58.95 13.6 3.77 9.4 5.25 19.2 8.8 37.9.28 1.5.64 2.9 1.05 4.4h-1.03c-19.91.8-37.54 11.6-51.15 26.6l13.32 12.1c14.08-15.5 29.07-23.8 47.67-20.2 3.34 5.2 7.34 10.3 11.84 15.8 10.9 13.3 24.9 27.4 40.5 40.8 10.9 9.3 22.5 18.3 34.3 26.4-21.2 8.1-52.6 12.5-76.5 8.5l-3 17.7c11.6 2 24 2.6 36.3 1.8-1.3 4.7-1.4 9.6-.5 14.1 2 10.1 8.7 18.7 17.7 24.8l10.1-14.8c-5.8-4-9.3-9.2-10.2-13.6-.9-4.4-.2-8.3 4.8-13.1 14.7-2.8 28.5-7.4 39.7-13.8 10.7 6.1 21.5 11.3 32.1 15-11.2 32.6-13 64.6-13.7 84.6h32c.9-27.3 4.6-72.3 28.7-108.8 9.8-14.8 22.6-28.5 40.5-39.3 23.6 4.6 46.6 9.7 67.6 17-1.8 9.6-7.9 14.5-15.2 22.9-3.8 4.5-7.9 10-9.8 17.3-2 7.3-1.7 16 1.5 25.9l17.2-5.4c-2.5-7.6-2.3-12.2-1.4-15.8 1-3.6 3-6.6 6.2-10.2 5.4-6.3 14.8-14.4 18.4-28 10.2 4.5 19.8 9.7 28.6 16l10.4-14.7c-28-20-61.5-30.2-96-37.7 22.6-7.8 50.9-11.8 86.9-10.6 5.4 11.5 16.1 21.7 29.2 30l9.7-15.2c-17.3-11-25.5-23.9-24.7-32.6.5-4.4 2.9-8.9 9.4-13.9 6.6-5 17.4-10.1 33.3-14l-4.4-17.5c-17.4 4.3-30.4 10-39.9 17.2-5.2 4.1-9.5 8.8-12.2 13.9-4.9-.1-9.4-.2-13.9-.1-13.4.1-26 1-37.9 2.5 19.8-24 31.8-51.9 36.1-83l-17.7-2.5c-1.9 13-5.1 25.2-9.9 36.8-5.5-.6-10.4-2.9-14.6-6.2-5.8-4.7-9.9-11.6-11.1-17.7l-17.7 3.6c2.2 10.7 8.4 20.8 17.5 28.1 5 4 11.2 7.2 17.7 8.9-7.8 13.8-18.1 26.4-30.9 38.1-22.5 5.9-41.5 14.8-57.4 25.6-6.7-19.3-5-47 4.9-73.8 10.6-28.4 29.9-54.2 49.9-66.7 4.9 2.1 10.4 3.1 15.7 3.4 11 .6 22.7-1.3 33.7-4 22.1-5.3 41.6-13.9 41.6-13.9l-7.2-16.5s-18.5 8.1-38.6 12.9c-10 2.4-20.4 4-28.5 3.5-8-.4-12.5-2.5-14.6-5.7-.8-1.3-1.2-3.8.6-8.6 1.8-4.9 5.6-11 9.9-16.7 8.5-11.3 18.6-20.8 18.6-20.8l-12.2-13.16S359.2 107.1 349.5 120c-4.9 6.5-9.5 13.6-12.3 21.2-.9 2.4-1.6 4.9-2 7.5-8.1 4.8-15.7 10.7-22.6 17.5-6.8-44.5-4.3-92.12-2.2-140.32z"></path></svg>