<svg stroke="currentColor" fill="currentColor" stroke-width="0" viewBox="0 0 512 512" height="1em" width="1em" xmlns="http://www.w3.org/2000/svg"><path d="M18 18v207.053c19.25 18.903 53.07 37.274 84.973 47.933 28.11 9.392 46.653 12.82 66.886 5.338 15.865-5.866 34.172-10.222 46.44-18.12 12.266-7.896 19.334-16.98 15.82-39.366l-.036-.233-.023-.234c-.327-3.16-.745-6.478-1.208-9.866-.18.048-.353.1-.536.146-10.828 2.783-26.286 4.28-45.757.356-1.35.83-2.715 1.64-4.107 2.41l-7.877 4.355-8.71-15.75 7.874-4.356c19.52-10.796 36.083-31.545 46.055-47.434-.362-1.25-.745-2.51-1.12-3.765-12.854 8.896-31.028 13.176-52.173 4.945l-8.387-3.265 6.53-16.774 8.386 3.265c19.01 7.4 29.868 2.503 39.136-5.938 7.444-6.78 12.796-16.308 16.33-23.72C200.162 74.25 174.97 45.817 150.072 18zm184.098 0c9.883 14.11 23.515 29.61 39.943 44.97 2.322-.828 4.714-1.657 7.226-2.462 12.116-3.887 25.88-7.772 38.888-7.238 4.336.177 8.587.846 12.664 2.17l8.56 2.78-5.556 17.118-8.56-2.777c-7.706-2.5-25.637.32-40.498 5.086-8.86 2.842-16.452 5.906-21.157 7.924 3.427 3.978 6.868 7.985 10.336 12.045l3.65 4.27-2.234 5.154c-1.224 2.822-2.9 6.616-5.104 10.833 10.92 13.352 26.323 27.074 37.03 34.844 17.4 12.628 42.365 27.795 61.884 31.898 9.76 2.052 17.528 1.385 23.1-1.996 5.572-3.382 10.426-9.972 12.86-24.143l1.524-8.872 17.74 3.05-1.525 8.868c-.04.223-.086.436-.126.657 31.894 13.803 62.577 22.355 87.45 22.82 4.85.09 9.452-.125 13.806-.633V106.63c-8.336 6.688-18.94 14.612-32.676 24.112l-10.24-14.803C472.05 101.436 485.12 90.98 494 82.956V18zm-140.23 1.408c11.063.573 118.618 57.055 88.53 46.65-1.587-.548-9.626-1.652-20.597-2.624 2.99 5.485 4.843 11.576 5.403 17.86.696 7.81-.678 14.718-4.043 19.93-3.365 5.21-9.344 8.953-17.078 7.756-7.734-1.196-14.553-6.918-18.953-13.33-4.4-6.41-7.063-13.943-7.76-21.752-.393-4.423-.122-8.556.798-12.255-22.742.214-43.964 2.89-48.23 11.275L61.11 19.53c.148-.1.404-.14.76-.122zm48.243 45.004c-.487-.075-1.508.018-2.813 2.04-1.305 2.02-2.272 5.74-1.87 10.237.4 4.497 2.065 8.626 3.772 11.113 1.706 2.487 2.772 2.905 3.26 2.98.49.076 1.512-.02 2.817-2.04 1.305-2.022 2.272-5.74 1.87-10.24-.4-4.497-2.065-8.623-3.772-11.11-1.707-2.487-2.775-2.905-3.264-2.98zm189.033 24.102c.576.01 1.155.03 1.736.064 18.6 1.05 37.856 12.446 57.638 33.215l-13.036 12.414c-17.96-18.858-33.937-27-45.617-27.658-11.68-.66-20.613 4.674-28.44 18.493l-15.66-8.87c9.8-17.305 25.495-27.965 43.378-27.66zm-75.247 84.984c-5.424 7.34-11.826 14.886-19.17 21.854 8.736.288 15.768-.762 21.112-2.135.762-.196 1.43-.396 2.115-.596-1.153-6.153-2.514-12.555-4.057-19.122zm163.516 6.063c-2.47 5.277-5.564 9.725-9.225 13.303 31.756 24.712 60.36 54.72 77.924 91.237l.894 1.857c30.018 39.74 39.6 93.688 31.875 140.422l-.427 2.585-1.75 1.95c-27.812 31.048-73.822 47.28-115.084 53.597-20.632 3.157-40.1 3.763-55.972 1.95-15.872-1.815-28.883-4.708-35.914-15.536l-1.035-1.594-.302-1.875c-1.843-11.445-2.61-22.47-3.927-33.252-17.095 19.167-29.632 38.814-36.216 59.795H494V202.477c-4.6.443-9.322.61-14.143.52-28.046-.525-59.884-9.43-92.445-23.436zM18 248.92v50.342c9.123 6.8 33.478 24.938 62.78 46.496 17.705 13.026 35.537 26.052 49.144 35.785 6.146 4.396 11.06 7.835 15.04 10.557.42-1.207.71-1.858 1.173-3.27 2.58-7.876 5.727-18.634 8.748-29.394 4.688-16.703 8.28-30.408 10.013-37.067-1.166-7.074-1.57-14.938-1.146-23.665-21.102 4.21-42.043-.48-66.484-8.646-28.234-9.435-57.335-23.897-79.268-41.14zm408.607 31.94c-.558-.018-1.087-.027-1.503.005-4.856.37-6.203 2.073-8.16 4.252-1.303 1.453-2.563 3.47-4.815 5.963-2.253 2.492-6.56 5.677-11.724 5.91-4.653.21-8.815-1.813-11.35-3.65-2.534-1.837-4.092-3.443-5.46-4.496-2.736-2.106-3.71-3.362-11.24-1.64-3.17.724-3.98 2.038-5.827 5.558-.923 1.76-1.817 3.907-3.128 6.324-1.31 2.417-3.092 5.53-7.095 7.713-2.902 1.58-5.935 1.408-7.737 1.026-1.8-.38-2.926-.905-3.955-1.365-2.057-.92-3.683-1.764-5.547-2.413-3.728-1.3-7.94-2.22-15.793.848-6.544 2.557-6.794 4.043-7.48 5.79-.343.874-.54 1.99-1.217 4.106-.677 2.117-2.908 6.577-7.324 8.29-3.775 1.464-7.653 1.175-10.342.604-2.69-.572-4.63-1.286-6.558-1.766-3.856-.96-7.658-1.625-15.57.95-4.61 1.5-9.89 8.046-12.335 16.86-2.4 8.648-1.578 18.425 1.157 23.342 30.118 34.035 28.01 69.583 32.198 98.74 2.26 1.604 9.918 5.4 21.886 6.766 5.613.642 11.98.935 18.855.864 1.086-34.234-7.61-76.94-20.19-104.827l16.405-7.404c13.87 30.74 22.888 73.896 21.845 111.273 4.66-.436 9.442-1.022 14.29-1.764 9.362-1.434 18.96-3.473 28.46-6.107-6.532-36.43-12.015-75.947-31.57-109.668l15.57-9.03c21.366 36.845 27.08 77.85 33.293 113.18 8.396-3.052 16.54-6.588 24.184-10.607-1.915-42.748-7.087-79.433-24.318-106.14l15.125-9.76c18.78 29.108 24.406 65.356 26.676 105.17 5.61-4.036 10.723-8.41 15.184-13.115 7.132-48.38-6.747-105.394-43.217-139.723-.53-.01-1.117-.04-1.676-.06zM18 321.7V494h201.545c7.798-28.846 25.177-54.816 48.295-79.12l-64.578-39.228-.065-.04c-9.837-6.207-19.81-13.738-27.28-24.73-1.19 4.364-2.42 8.847-3.702 13.42-3.056 10.885-6.236 21.773-8.973 30.132-1.368 4.18-2.605 7.693-3.787 10.5-.59 1.403-1.124 2.597-1.935 3.93-.406.668-.84 1.376-1.8 2.355-.963.978-2.718 2.94-6.853 2.94-2.477 0-2.973-.462-3.56-.69-.588-.23-.965-.42-1.33-.607-.73-.376-1.366-.752-2.098-1.2-1.464-.898-3.24-2.067-5.405-3.534-4.33-2.936-10.154-7.034-17.022-11.946-13.735-9.825-31.6-22.878-49.34-35.928C49.467 345.066 31.506 331.74 18 321.7z"></path></svg>