<svg stroke="currentColor" fill="currentColor" stroke-width="0" viewBox="0 0 512 512" height="1em" width="1em" xmlns="http://www.w3.org/2000/svg"><path d="M186.04 28.48a129.5 129.5 0 0 0-5.07.054c-49.926 1.53-75.597 31.9-74.4 57.398.89 18.922 2.416 37.83 4.444 56.733 19.092-4.165 37.502-6.347 55.134-6.797 11.13-.284 21.945.136 32.434 1.166-2.545-36.064-5.777-72.215-8.744-108.45-1.275-.045-2.55-.094-3.797-.105zm21.972 1.466c3.003 36.432 6.283 72.948 8.824 109.553 37.808 6.546 70.754 21.334 97.615 40.987a3378.23 3378.23 0 0 0 17.077-73.777c-9.38 2.87-18.88 7.747-24.04 16.015l-13.88 22.23-2.707-26.065c-3.884-37.403-15.315-58.383-31.798-71.15-13.105-10.15-30.336-15.402-51.09-17.794zm-33.04 123.758a247.963 247.963 0 0 0-3.66.004c-18.41.157-37.85 2.365-58.22 6.947 7.097 57.442 18.488 114.89 30.615 172.664 20.94 1.16 38.01 2.942 54.818 7.325 6.488-61.598 5.21-123.43 1.288-185.515a240.542 240.542 0 0 0-24.842-1.426zm43.08 4.182c3.85 62.53 4.95 125.308-2.007 188.322 13.285 4.984 27.21 11.94 43.518 21.807l2.67 1.617 1.097 2.922c12.882 34.34 25.885 69.15 31.828 104.648 68.924-1.1 149.596 3.353 197.332-3.967-40-52.644-101.235-64.218-147.013-70.672-9.992-.196-18.673.505-31.99 1.596 6.397-6.884 10.99-11.14 16.503-13.43l-54.908-63.407 1.387-4.717c11.695-39.76 22.927-81.474 33.292-123.058-24.73-19.558-55.586-34.706-91.71-41.662zM69.51 279.98l-8.883 26.654c-.452.173-.897.36-1.336.56l-25.136-12.568 12.57 25.137c-.2.438-.388.884-.562 1.336l-26.652 8.88 26.652 8.886c.174.452.362.895.56 1.334l-12.568 25.137L59.29 352.77c.44.2.885.385 1.337.56l8.883 26.65 8.885-26.65c.45-.175.895-.36 1.334-.56l25.135 12.567L92.3 340.2c.074-.166.138-.338.21-.506 17.088 5.487 30.27 8.56 48.287 11.533.157-9.57 2.457-14.43 2.775-17.867-15.31-1.792-29.058-6.342-44.04-10.197l-6.675-2.065c-.173-.45-.36-.897-.558-1.335l12.565-25.137-25.136 12.568c-.44-.2-.884-.387-1.335-.56L69.51 279.98zm0 38.638c6.356 0 11.363 5.007 11.363 11.363 0 6.358-5.007 11.365-11.363 11.365-6.357 0-11.364-5.007-11.364-11.364 0-6.355 5.007-11.362 11.364-11.362zm71.39 32.57c-11.994 19.473-18.548 50.984-24.37 71.516 34.156 6.413 72.87 2.2 100.835 11.896 19.624 6.545 38.616 17.945 57.326 31.65-6.132-27.707-16.43-55.875-27.102-84.362-41.578-24.765-63.012-28.43-106.688-30.7zm-22.96 89.72c5.37 14.482 15.01 27.736 29.4 41.347 10.983 1.942 24.74 1.31 37.1.396 2.596-11.198 7.043-22.792 14.148-33.626-27.144-4.143-53.522-5.665-80.65-8.117z"></path></svg>