<svg stroke="currentColor" fill="currentColor" stroke-width="0" viewBox="0 0 512 512" height="1em" width="1em" xmlns="http://www.w3.org/2000/svg"><path d="M17.91 19.47v13.06l52.47 43.78c-18.59 8.2-37.3 21.44-52.47 38.59v46.8l64.84 83.9c-22.51 12.6-46.07 25.8-64.84 46.3v51.3l32.25 77.7c-10.96-.2-21.82.9-32.25 3.9v19.6c12.22-4.5 25.81-5.7 40.18-4.5l21.85 52.6h20.26l-23.82-57.2c33.22-26.5 75.12-43.6 118.92-44.1l70.2 90.8c-25.2 1.4-53.2 3.2-76.7 10.5h109.5c36.5-59.5 75.1-101.7 136.1-111.3 18.6 11.7 39.2 31.5 56.9 46.3v-24.3l-49.6-41.4c-3.5-68.9 17.1-117.9 41.6-151.9l8 4V193l-9.5-4.8c-7.9-20.4-13.1-46.8-12.5-73.1.5-27.64 7.2-54.92 22-75.79V19.56c-89.2-.19-178.5-.1-267.7-.1l138 9.71c-6 15.42-11.8 31.44-15.1 47.88-2.8 13.73-3.6 27.94-.9 41.94L205.9 48.06c-1.7-9.81-4.3-19.91-4-28.59h-18.8c-.2 6.08.4 12.01 1.4 17.72l-34.8-17.72H91.59C84.78 30.98 79.9 43.79 77.78 58.13L31.47 19.47zm94.59 2.06l69.3 35.22c-11.5 20.26-20.8 43.45-22.3 69.55L95.16 72.62c.28-20.5 6.64-36.54 17.34-51.09zm268.6 9.03l89.5 6.28c-13.7 23.26-19.5 50.87-20 77.86-.5 21.5 2.4 42.6 7.6 61.5l-89.5-45.5c-7.3-15.7-7.4-32.2-3.9-49.98 3.3-16.21 9.7-33.17 16.3-50.16zM198.4 65.19L343.7 139c-29.9 27.3-43.5 62.8-46.5 102.3l-119.1-99.5c-.7-27.3 9-56.61 20.3-76.61zM86.6 89.84l64.3 53.66c-24.2 21.4-46.4 48.6-59.21 83.1l-68.35-88.4c17.72-20.3 40.29-40.09 63.26-48.36zm275 58.26l105 53.3c-23.7 33.9-43.7 81.4-43.9 144.6l-107.6-89.8c5.3-44.7 19.8-85.6 46.5-108.1zm-196.3 7.5l125.8 104.9c-39.4 22.5-74.7 53.8-94.1 102.3l-91.6-118.5c13.6-35.7 35.3-67.1 59.9-88.7zM94.31 260.5l87.29 112.9C140 376.7 101 393.2 69 417.5L25.25 312.2c20.06-23.3 46.89-39.2 69.06-51.7zm212.09 12.7l110.8 92.5C359 380 319.9 423.2 285.7 477.6l-75.3-97.4c20.5-48 58.3-86.2 96-107z"></path></svg>