<svg stroke="currentColor" fill="currentColor" stroke-width="0" viewBox="0 0 512 512" height="1em" width="1em" xmlns="http://www.w3.org/2000/svg"><path d="M319.006 19.88L280.51 30.192l-10.315 38.495 14.366 14.365-44.04 11.8 3.86 14.4-14.403 14.405 9.523 35.537c-6.727-3.505-13.903-5.83-21.195-6.89l-6.37-23.774-19.75-5.292-3.86-14.4-44.128 11.824 5.272-19.676-28.183-28.18L82.79 83.12l-10.313 38.497 28.18 28.182 19.78-5.302-11.796 44.02 14.413 3.86 5.27 19.673 19.333 5.18c-.234 6.7.35 13.298 1.584 19.774l-25.713-6.89-14.46 14.46-14.413-3.86-11.814 44.09-14.512-14.51-38.496 10.313-10.316 38.497 28.18 28.18 38.497-10.313 5.328-19.882 32.382 32.383 10.563-10.56 19.72 5.283 32.077-32.076c3.693 5.467 7.297 10.755 10.63 15.8l-29.497 29.5 5.28 19.702-10.562 10.56 32.35 32.35-19.834 5.316-10.316 38.496 28.18 28.18 38.496-10.315 10.315-38.494-14.676-14.678 44.188-11.84-3.824-14.265 14.46-14.46-11.054-41.257c5.476-2.7 11.17-5.46 17.1-8.383l12.016 44.842 19.673 5.27 3.822 14.27 44.095-11.817-5.357 19.996 28.182 28.18 38.496-10.314 10.314-38.496-28.18-28.182-19.898 5.332 11.846-44.21-14.252-3.817-5.29-19.75-27.593-7.395c4.258-5.043 7.94-10.498 10.867-16.433l21.6 5.787 14.402-14.403 14.254 3.818 11.826-44.13 14.528 14.526 38.496-10.314 10.316-38.496-28.182-28.182-38.496 10.315-5.302 19.79-32.204-32.204-10.425 10.423-19.705-5.28-17.827 17.827c-6.376-3.127-13.32-5.12-20.533-5.896l25.14-25.14-5.284-19.72 10.424-10.423-32.233-32.235 19.834-5.315 10.316-38.496-28.18-28.18zm-110.77 150.438c1.198-.015 2.403.014 3.612.086 19.263 1.154 39.154 14.41 46.09 39.83l-5.772 21.537-19.912-19.91-13.213 13.214 19.913 19.912-27.2 7.287 4.837 18.053 27.2-7.287-7.29 27.198 18.053 4.838 7.29-27.203 19.91 19.912 13.216-13.215-19.913-19.91 27.2-7.29-4.835-18.05-27.203 7.29 6.684-24.952c18.676-16.51 39.705-17.307 55.352-9.117 16.562 8.67 27.495 27.23 21.273 53.75-6.026 25.684-33.025 44.145-63.003 59.603-14.99 7.728-30.364 14.645-43.517 21.795-6.316 3.432-12.16 6.844-17.27 10.644-2.464-6.242-5.88-12.455-9.69-18.805-7.628-12.707-17.248-25.98-26.21-39.757-17.925-27.558-32.38-56.28-25.936-83.83 5.883-25.135 22.363-35.392 40.332-35.622z"></path></svg>