<svg stroke="currentColor" fill="currentColor" stroke-width="0" viewBox="0 0 512 512" height="1em" width="1em" xmlns="http://www.w3.org/2000/svg"><path d="M185 25v14h142V25H185zm0 32v14h142V57H185zm2.512 32c-1.626 7.3-2.512 15-2.512 23 0 48.966 32.654 87 71 87s71-38.034 71-87c0-8-.886-15.7-2.512-23H187.512zm21.027 118.72c-22.123 6.853-39.915 18.596-54.614 33.583-.142.145-.28.294-.422.44 30.324 4.354 58.944 6.987 86.484 7.907l-31.45-41.93zm94.92 0l-31.667 42.223c29.804-.46 58.58-3.033 87.186-7.697-.304-.314-.6-.633-.906-.943-14.7-14.987-32.49-26.73-54.613-33.584zm-67.437 6.645L256 241.002l19.977-26.637A76.84 76.84 0 0 1 256 217a76.84 76.84 0 0 1-19.977-2.635zm-106.914 60.05c-3.84 6.633-7.324 13.557-10.493 20.685l28.81 7.203c110.47 15.786 106.675 15.786 217.147 0l28.81-7.203c-3.15-7.085-6.61-13.97-10.423-20.565-79.61 15.326-159.822 15.182-253.85-.12zm-22.905 54.69a326.24 326.24 0 0 0-1.533 5.303 362.76 362.76 0 0 0-4.926 19.975L135 363.195v-26.89l-28.795-7.2zm299.59 0l-28.795 7.2v26.37l34.857-10.048a360.236 360.236 0 0 0-4.53-18.22 326.34 326.34 0 0 0-1.532-5.302zM153 339.46v27.95c73.738 14.2 132.264 14.196 206-.004V339.46c-96.875 13.752-109.125 13.752-206 0zm265.188 48.806L377 400.14v27.055l44.227-11.056a528.943 528.943 0 0 0-3.04-27.874zM93.59 389.95a531.613 531.613 0 0 0-2.817 26.19L135 427.194v-26.89L93.59 389.95zM153 404.04v27.173c88.597 14.452 132.463 14.508 206 .205v-27.38c-72.118 13.164-133.882 13.164-206 0zm-64.152 48.726c-.356 14.784-.125 26.056.027 34.234H135v-22.695l-46.152-11.54zm334.304 0L377 464.306V487h46.125c.152-8.178.383-19.45.027-34.234zM153 467.696V487h206v-18.94c-71.098 13.194-121.477 13.04-206-.365z"></path></svg>