<svg stroke="currentColor" fill="currentColor" stroke-width="0" viewBox="0 0 512 512" height="1em" width="1em" xmlns="http://www.w3.org/2000/svg"><path d="M212.35 19.563l-23.57 47.19 48.46 65.106 60.102-39.3-.112-50.39-84.88-22.608zm-94.153 3.04l-54.62 42.58 110.32 62.264-9.47-62.586-24.892 7.824-21.338-50.082zm243.633.17l-49.43 1.31 27.137 72.308 22.293-73.615v-.002zm5.025 53.07l2.38 82.17 20.122-6.51c-.053-.027-.106-.055-.16-.08l2.694-.74 26.52-8.585 1.412-40.37v-.003l-52.967-25.88zm-336.818 1.99l-5.752 57.774 77.332-12.078L30.04 77.833h-.003zm282.412 55.622c-1.97-.015-3.94.002-5.91.053-28.67.734-57.562 8.42-84.112 23.75-7.943 4.586-15.38 9.71-22.328 15.275l8.824 16.903c7.018-5.886 14.638-11.252 22.85-15.993 5.598-3.232 11.313-6.072 17.11-8.556l38.436 37.586-3.28 66.824-51.624 21.582-75.504-18.253c.982-3.923 2.12-7.806 3.397-11.645l-18.404-3.44c-14.558 45.97-10.54 97.66 15.43 142.642 49.052 84.96 157.965 114.143 242.926 65.09 84.96-49.05 114.143-157.962 65.092-242.922-13.897-24.07-32.6-43.657-54.2-58.262l-23.343 7.556c3.88 2.123 7.68 4.406 11.385 6.858l-38.515 22.994-57.057-9.223-35.113-34.332c12.727-3.574 25.687-5.497 38.594-5.838 1.763-.046 3.526-.063 5.287-.05 12.9.09 25.7 1.758 38.12 4.916l-.557-19.218c-12.277-2.74-24.85-4.2-37.504-4.297zm-186.15 1.223L86.67 177.525l14.178 53.332 120.363 22.498-39.415-75.505-55.494-43.172zm288.97 55.996c11.98 10.34 22.6 22.64 31.347 36.77l-67.42 21.05-5.53-32.982 41.603-24.838zm-109.682 20.85l49.808 8.052 13.745 81.934-66.42-31.6 2.868-58.387zm-248.04 2.033L20.67 247.582l14.28 41.813 77.872.19-55.273-76.028zm235.255 72.332l37.068 17.633-36.04 66.075-56.238-3.63 1.525-57.634 53.686-22.445zm-139.362 5.124l67.01 16.2-1.616 61.09-47.477 18.65c-16.474-30.425-22.034-63.934-17.916-95.94zM90.61 327.82l-53.57 7.64 28.44 37.657 49.198-10.95L90.61 327.82z"></path></svg>