<svg stroke="currentColor" fill="currentColor" stroke-width="0" viewBox="0 0 512 512" height="1em" width="1em" xmlns="http://www.w3.org/2000/svg"><path d="M247 80v53h-26v48h-34.027l-2.54 18.154-38.408-3.205-2.05 18.102 37.988 2.994-4.578 34.312-25.592 13.96 22.006 65.107a1658.637 1658.637 0 0 0-137.914 15.91l2.812 17.777a1639.075 1639.075 0 0 1 121.096-14.529l-.078.31c112.547 28.156 190.551 43.088 306.816-8.958l-7.355-16.43a485.085 485.085 0 0 1-26.844 11.092c-29.894-4.015-61.118-6.653-93.156-8.053l21.031-62.227-25.592-13.959L325.027 181H291v-48h-26V80h-18zm-8 71h34v30h-34v-30zm-35.973 48h103.946l6.16 40.639L256 211.748l-57.133 27.89 4.16-40.638zM256 232.252v94.346c-5.41.103-10.833.238-16.262.402h-46.46l-21.071-52.316L256 232.252zM298.17 254c8.836 0 16 7.163 16 16s-7.164 16-16 16c-8.837 0-16-7.163-16-16s7.163-16 16-16zm-56.92 91h82.404c22.502.709 44.618 2.01 66.149 3.96-58.924 14.561-109.381 9.793-169.532-3.194A1523.33 1523.33 0 0 1 241.25 345zm-132.865 29.363c-7.943-.023-15.667.234-23.084.842l1.469 17.941c54.39-4.455 133.014 12.49 189.199 17.202 55.64 4.665 109.966-1.684 168.654-13.512l-3.557-17.645c-57.8 11.65-110.279 17.692-163.591 13.221-47.153-3.954-113.49-17.885-169.09-18.049zm20.22 35.285c-12.198-.079-25.387.615-38.517 1.873-26.26 2.518-51.6 7.157-67.865 14.26l7.203 16.496c12.302-5.372 37.244-10.427 62.38-12.838 25.138-2.41 51.157-2.311 65.846.625 32.956 6.589 91.409 16.938 138.62 15.444l-.569-17.99c-44.053 1.394-102.073-8.619-134.523-15.106-9.17-1.833-20.376-2.684-32.575-2.764z"></path></svg>