<svg stroke="currentColor" fill="currentColor" stroke-width="0" viewBox="0 0 512 512" height="1em" width="1em" xmlns="http://www.w3.org/2000/svg"><path d="M19.023 19.676v27.2L75.48 104.32l24.842-24.843-58.804-59.8H19.023zm65.41 3.498c-4.468.09-8.392.9-11.83 2.244L189.15 141.963c2.893-7.395 3.085-17.245-.146-29.094-4.61-16.908-16.108-36.597-33.408-53.895-17.3-17.3-36.99-28.8-53.897-33.41-6.34-1.73-12.125-2.495-17.265-2.39zm-63.09 53.51c-2.894 7.394-3.088 17.243.143 29.09 4.61 16.908 16.11 36.598 33.41 53.898 17.3 17.3 36.988 28.797 53.895 33.408 11.85 3.232 21.7 3.04 29.095.147L21.342 76.684zm107.07 30.96l-24.716 24.717 119.545 119.546 24.717-24.717-119.546-119.545zm366 56.57c-7.766 2.724-15.67 6.186-23.36 10.626-20.332 11.738-35.756 27.138-44.106 41.637-5.734 9.956-7.942 18.928-7.213 26.365l74.68-42.953v-35.675zm-257.07 11.87c-4.466.09-8.39.9-11.827 2.246l73.62 73.62c10.648-5.168 21.366-8.972 31.78-11.358-5.744-9.727-13.255-19.55-22.41-28.705-17.3-17.3-36.99-28.8-53.897-33.41-6.34-1.73-12.126-2.497-17.266-2.393zm-62.677 53.096c-2.894 7.394-3.085 17.244.147 29.093 4.61 16.907 16.11 36.597 33.41 53.897 6.408 6.408 13.144 12.014 19.945 16.775 1.55-7.685 4.687-15.44 9.016-22.86 1.705-2.925 3.62-5.822 5.7-8.69l-68.218-68.215zm304.063.668L338.36 311.03l16.425 28.75 137.88-79.628v-6.12l-13.936-24.184zm-122.783 26.406c-16.79.075-37.91 5.84-58.258 17.588-20.348 11.747-35.902 27.155-44.362 41.658-5.79 9.93-8.063 18.86-7.39 26.26l136.445-78.776c-6.074-4.282-14.942-6.78-26.436-6.73zm138.467 23.637l-39.684 22.936c3.228 2.31 7.23 4.13 12.22 5.32 7.53 1.793 17.022 1.925 27.464.307V279.89zm-75.32 43.643l-136.448 78.78c6.073 4.283 14.943 6.78 26.438 6.728 16.79-.074 37.912-5.84 58.26-17.587 20.347-11.747 35.9-27.154 44.36-41.658 5.793-9.93 8.063-18.86 7.39-26.262zM296.53 334.19l-10.686 6.167-.037-.037-12.73 7.35.09.008-116.956 67.525 16.472 28.53 140.32-81.012-16.473-28.53zm138.993 7.558c-1.74 5.896-4.36 11.778-7.675 17.463-2.508 4.3-5.44 8.55-8.743 12.71l68.754 68.754c2.892-7.394 3.084-17.244-.147-29.092-4.61-16.906-16.108-36.595-33.408-53.894-6.042-6.042-12.377-11.36-18.782-15.94zM177.44 360.326c-16.79.075-37.91 5.84-58.258 17.588C98.834 389.66 83.28 405.07 74.82 419.572c-5.79 9.928-8.062 18.86-7.39 26.26l136.445-78.775c-6.073-4.283-14.942-6.782-26.436-6.73zM427.2 406.61l-24.67 24.29 62.49 62.996h27.644V472.07L427.2 406.61zm-66.124 8.982c-10.614 4.73-21.244 8.11-31.514 10.076 5.956 10.888 14.173 22.015 24.458 32.3 17.298 17.3 36.987 28.8 53.894 33.41 11.85 3.233 21.7 3.04 29.096.147l-75.934-75.933zM239.09 427.674l-114.528 66.123h65.815c18.962-11.586 33.505-26.31 41.502-40.193 5.648-9.81 7.863-18.622 7.21-25.93zm-114.854 7.144L21.73 493.896h65.452l53.392-30.86-16.338-28.218z"></path></svg>