<svg stroke="currentColor" fill="currentColor" stroke-width="0" viewBox="0 0 512 512" height="1em" width="1em" xmlns="http://www.w3.org/2000/svg"><path d="M130.2 79.02c-2.7 0-5 .24-6.7.66-2.6.67-3.6 1.43-4 2.1-.5.67-.9 1.78-.6 4.51.2 2.74 1.4 6.8 3.8 11.71 4.8 9.8 14 22.6 26.8 36.9.4.5.8.9 1.2 1.4.9-4.1 2.4-7.9 4.7-11.3 4.9-7.2 12.3-12.2 20.7-15.9 7.4-3.4 15.7-5.9 24.5-7.9-7.3-3.45-14.3-6.53-21-9.2-17.8-7.18-33-11.47-43.8-12.64-2-.23-3.9-.34-5.6-.34zm97.2 35.78c-17.2 2.5-33.1 5.8-43.9 10.7-6.5 2.9-10.9 6.3-13.3 9.7-1.9 2.7-2.8 5.5-2.4 9.6 27.4 9.4 57.5 21.6 88.6 36.4 12.5 5.9 24.5 12 36 18.1 18.5 1.2 37 7.1 56.6 17.4 1.4 0 2.8-.1 4.1-.1 8 0 15.4.2 22.3.7-19.6-17-42.1-34.7-66.7-52-28.2-19.8-55.9-36.9-81.3-50.5zM68.2 141.6c-1.51 0-2.94 0-4.29.1-5.45.3-9.59 1.3-12.12 2.4-2.48 1-3.27 2-3.61 2.7-.35.7-.59 1.9.17 4.5.72 2.7 2.54 6.5 5.76 11 6.34 8.7 17.51 19.9 32.54 31.9 4.36 3.5 9.09 7.1 14.05 10.7-2.57-14.3-.4-27.8 6.8-38.7 4.2-6.4 9.9-11.7 16.8-15.7-5.2-1.4-10.3-2.6-15.1-3.7-16.41-3.6-30.49-5.3-41-5.2zm86 17.7c-15.7 2-26.1 8.4-31.7 16.8-5.3 8-6.8 18.5-2.8 31.3 27.8 2.7 59 7.6 92 14.8 16.3-9.5 31.7-16.2 46.9-19.8-3.3-1.7-6.6-3.3-10-4.9-33.3-15.9-65.6-28.8-94.4-38.2zM284 218.4c-7.1 0-13.4 2.3-17.5 5.5-4.2 3.2-6.1 6.8-6.1 10.6s1.9 7.4 6.1 10.6c4.1 3.2 10.4 5.5 17.5 5.5s13.4-2.3 17.5-5.5c4.2-3.2 6.1-6.8 6.1-10.6s-1.9-7.4-6.1-10.6c-4.1-3.2-10.4-5.5-17.5-5.5zm-207.77 4.7c-19.19-.1-34.91 1.6-45.35 4.5-5.23 1.4-9.12 3.3-11.37 4.9-2.23 1.5-2.75 2.6-2.94 3.4-.18.8-.22 2 1.09 4.4 1.29 2.4 3.93 5.8 7.96 9.5 8.04 7.2 21.32 15.8 38.52 24.3 1.42.7 2.88 1.4 4.36 2.2-6.88-15.7-3.73-38 14.18-53.1-2.19-.1-4.34-.1-6.45-.1zM323.9 225c1.1 3 1.7 6.2 1.7 9.5 0 10.1-5.4 19-13.1 24.9-7.6 5.9-17.6 9.2-28.5 9.2-10.9 0-20.9-3.3-28.5-9.2-7.7-5.9-13.1-14.8-13.1-24.9 0-2.9.4-5.6 1.2-8.3-10.4 4.4-21.3 10.4-33.2 18 20.4 37 48.2 56.9 74.9 54.3 41.6-4 56-27.8 72.9-55.6-12.2-7.8-23.5-13.7-34.3-17.9zm-203.2.6l-4.6 1.1C75.75 236 82.6 263.3 88.91 273c28.39-11.6 62.29-22.7 99.49-32.1 0 .2 1.5-2.7 1.6-4.8-24.6-4.9-48.1-8.4-69.3-10.5zM398.9 239c-7 0-14.6 2.5-20 6.9-5.4 4.5-9 10.6-9 20.1 0 13.7-4.3 26.2-12.1 36.9-7.9 10.7-19.1 19.7-33.2 28.3-28.2 17.2-68.3 33.1-120.2 55.1-6.2 2.6-9.3 6.3-11.3 11-2 4.8-2.5 10.8-1.6 16.6.8 5.8 3.1 11.4 5.5 15 2.4 3.6 4.6 4.1 3.9 4.1h192c5.8 0 9-1.8 11.7-4.7 2.7-2.9 4.7-7.2 5.4-11.8.5-3 1.4-12-2.4-13.5l-106.7-1c35.9-6.5 67.4-50.7 108-49 4 0 8.3-.1 12.6.6 4.4.7 10.3 2.1 13.4 8.4 3.2 6.3.9 12.6-2.6 18.2-1.6 2.6-3.7 5.4-6.2 8.4 11.8.4 23.1-4.3 33.7-12.7 14.8-11.6 27-30.3 32.5-48.5 5.4-18.1 4-34.7-4.6-44.4-8.7-9.8-26.5-15.8-60.8-8.2l-15.6 3.4 5.1-15c3.3-9.9 1.5-14.8-1.5-18.3-3.1-3.5-9-5.9-16-5.9zm-202 18.3c-37.1 9.2-71 20.2-99.1 31.6l-1.36 1.7c-8.71 11-12.88 19.9-14.22 26.4-1.34 6.4-.28 10.3 1.94 13.7 4.01 6 14.58 10.7 25.84 12.1 31.8-14.6 70.8-28.8 113.7-40.8 3.5-1 6.9-1.9 10.3-2.8-13.8-9.9-26.5-24-37.1-41.9zm141.8 40.4c-16.5 12.4-34.8 18.8-53.4 18.8-9.3 0-18.6-1.6-27.6-4.8-9.5 2.3-19.3 4.8-29.1 7.6-41 11.5-78.4 25-108.6 38.7-5.3 7.8-5.1 12.1-3.4 16.2 1.7 4.3 6.9 9.2 14.5 13.2 12.3 6.3 30.4 9.6 43.2 9.7.6-2.3 1.3-4.5 2.2-6.7 3.6-8.6 10.6-16.4 20.9-20.7 52.1-22 92-38.1 117.8-53.9 9.9-6.1 17.7-12 23.5-18.1zM68.3 302c-.8.4-1.63.8-2.41 1.2-17.17 8.5-30.44 17.1-38.48 24.3-4.03 3.7-6.65 7.1-7.95 9.5-1.3 2.4-1.27 3.6-1.08 4.4.18.8.7 1.9 2.94 3.4 2.27 1.6 6.14 3.5 11.37 4.9 10.45 2.9 26.18 4.6 45.34 4.4 2.05 0 4.16-.1 6.29-.1-5.99-3.1-11.29-7.5-15.2-13.4-4.8-7.3-6.66-17-4.52-27.3.76-3.6 2-7.4 3.7-11.3zm29.54 66.8c-2.61 1.3-5.16 2.7-7.61 4-16.82 9.2-29.75 18.3-37.49 25.8-3.88 3.8-6.38 7.3-7.57 9.8-1.21 2.4-1.13 3.7-.91 4.4.21.8.78 1.9 3.07 3.3 2.31 1.6 6.27 3.3 11.54 4.5 10.54 2.4 26.33 3.5 45.43 2.7 19.5-.9 42.5-3.5 67.7-8-15.7-.2-34-4.2-49.1-11.9-9.9-5.1-18.7-12.1-22.97-22.2-1.58-3.9-2.27-8.1-2.09-12.4z"></path></svg>