<svg stroke="currentColor" fill="currentColor" stroke-width="0" viewBox="0 0 512 512" height="1em" width="1em" xmlns="http://www.w3.org/2000/svg"><path d="M326.7 60.61c-3.4 0-6.9.76-10.7 2.4-7.4 3.25-15 9.88-20.3 19.2-5.2 9.33-6.9 19.29-5.8 27.39 1.1 8 4.7 13.8 10.3 17 5.5 3.1 12.4 3.2 19.8-.1 7.5-3.2 15.1-9.9 20.3-19.2 5.3-9.31 7-19.28 5.9-27.33-1.1-8.08-4.8-13.81-10.3-16.95-2.8-1.56-5.9-2.38-9.2-2.4zM271.6 102c-31 17.2-67.1 32.6-117.2 43.6-13.8 3-22.3 35-11.9 46.4h-14.9v18H157c4.3 5.6 8.6 11.2 12.6 17l-26.1 52.2c-9.8-3.7-20.4-5.8-31.5-5.8-49.05 0-89 40-89 89s39.95 89 89 89c46 0 84-35.2 88.5-80h15.8c-1.7-6.1-1.5-12.3 0-18h-15.8c-2.8-27.7-18.4-51.8-40.8-66.1l21.6-43.2c6.1 9.5 11.8 19.2 16.9 29-4.2 4.4-8.9 8.8-14.3 13.3 5.8 8.6 11.6 17 20.8 22.5 2.2-2 4.4-4.2 6.7-6.5 4.9 12.8 8.7 25.7 11.2 39 6.1-7.3 15.2-12 25.4-12 9.3 0 17.8 4 23.8 10.3l80-91.5c1.8 12.2 4.4 23.8 7.5 35.1-28.6 14.8-48.3 44.8-48.3 79.1 0 49 40 89 89 89s89-40 89-89-40-89-89-89c-8.2 0-16.2 1.1-23.8 3.3-4-14.9-6.9-30.2-8.3-46.8 4.7-5.7 8.4-12.9 10.6-20.4l.1-.2c8.3 1.2 19 6.4 21.1 13.6l17.4-4.4c-10.4-26-38.7-31-62.1-26.1-32.4-6.6-56.2-14.4-59.1-48-1.5-.6-3.1-1.3-4.6-2.2-11-6.2-17.5-17.7-19.2-30.2-.5-3.3-.6-6.6-.5-10zm-1.3 61.8c25.3 46.3 54.8 48.2 84.7 51.8-2.4 3.2-5.3 6.4-8.3 9.8h-75.9c2.6-4.5 4.3-8 4.8-10 1.1-5.2-10.6-13.4-24.2-21.6-11.7 5.4-26.4 9.9-42.4 11.7 8.9 5.7 17.1 12.3 24.6 19.9h-14.9c-3.1-6.5-6.4-13.1-9.7-19.9-2.5-5.1-5-10.3-7.5-15.7 19.8-2.7 47-8.2 68.8-26zm-11 79.6h72.9l-76.1 86.9c-3.1-22-9-41.2-16.7-60 7.3-9.2 14.1-18.6 19.9-26.9zm-147.3 48c8.2 0 16.1 1.4 23.4 4l-37.96 76H182.4c-4.4 35-34.2 62-70.4 62-39.32 0-71-31.7-71-71s31.68-71 71-71zm288 0c39.3 0 71 31.7 71 71s-31.7 71-71 71-71-31.7-71-71c0-26.4 14.3-49.4 35.6-61.6 7.3 21.6 16.6 42.7 27.2 65.4l16.4-7.6c-10.7-23-19.9-43.7-26.8-64.7 5.9-1.6 12.1-2.5 18.6-2.5zm-248.4 12c16.6 11.2 28.2 29.2 30.8 50h-55.8zm96.4 44c-8.4 0-15 6.6-15 15s6.6 15 15 15 15-6.6 15-15-6.6-15-15-15z"></path></svg>