<svg stroke="currentColor" fill="currentColor" stroke-width="0" viewBox="0 0 512 512" height="1em" width="1em" xmlns="http://www.w3.org/2000/svg"><path d="M351.6 27c-7.3 0-14.6 1.01-19.2 2.54-2 .69-3.2 1.44-3.8 1.85V85h46V75l-15-15 15-15V31.39c-.6-.41-1.8-1.16-3.8-1.85-4.6-1.53-12-2.54-19.2-2.54zm-47.4 23.52c-31.2-.16-58 6.8-80.9 19.28-30.6 16.65-53.9 42.8-72.7 73.6-22.8 37.5-39.1 82-53.27 126.7.56 0 1.13.1 1.7.1 2.47.2 4.87.6 7.37 1.4 3 .9 5.8 2.1 8.3 3.7 14.1-44.1 29.9-87.3 51.3-122.5 17.6-29 38.9-52.5 65.9-67.19 21.8-11.85 47.4-18.22 78.7-16.97V50.66c-2.2-.1-4.3-.13-6.4-.14zm8.4 52.48v14h78v-14zm-19.9 32c-10.7 16.8-29.7 27.8-45.6 40.1-17.4 13.6-30.5 26.9-30.5 46.9 0 62.9 11.7 105.5 23.5 139 10.5 29.7 21.6 52.4 24 76h175c2.4-23.6 13.5-46.3 24-76 11.8-33.5 23.5-76.1 23.5-139 0-20-13.1-33.3-30.5-46.9-15.9-12.3-34.9-23.3-45.6-40.1zM96.21 287.9c-2.85 0-5.17.8-7.72 2.4-3.87 2.4-8.01 7-11.77 13.4-2.45 4.1-4.67 8.8-6.72 13.9 2.68-.8 5.42-1.3 8.2-1.5 4.71-.4 9.55 0 14.46 1.5 7.84 2.4 14.04 6.8 18.94 12.6 1.1-5.4 1.9-10.6 2.1-15.5.3-7.4-.6-13.5-2.6-17.7-1.9-4.1-4.4-6.5-9.9-8.2-1.31-.4-2.59-.6-3.74-.8-.43 0-.85-.1-1.26-.1zm-14.9 46c-.7 0-1.4 0-2.09.1-8.35.8-16.8 6.1-25.06 14.9-11 11.8-20.15 29-24.29 42.9-4.15 13.9-5.9 33.3-3.12 49.1 2.78 15.8 9.19 26.8 20.22 30.1 11.01 3.2 22.35-2.4 33.34-14.1 11-11.8 20.09-29 24.29-42.9 4.1-13.8 5.7-33.3 2.8-49.2-2.9-15.9-9.41-26.8-19.87-30-2.06-.6-4.14-.9-6.22-.9zM255.6 455c-5.8 0-8.9 1.8-11.3 4.5-2.3 2.6-3.7 6.5-3.7 10.5s1.4 7.9 3.7 10.5c2.4 2.7 5.5 4.5 11.3 4.5h192c5.8 0 8.9-1.8 11.3-4.5 2.3-2.6 3.7-6.5 3.7-10.5s-1.4-7.9-3.7-10.5c-2.4-2.7-5.5-4.5-11.3-4.5z"></path></svg>