<svg stroke="currentColor" fill="currentColor" stroke-width="0" viewBox="0 0 512 512" height="1em" width="1em" xmlns="http://www.w3.org/2000/svg"><path d="M256 23C127.425 23 23 127.425 23 256s104.425 233 233 233 233-104.425 233-233S384.575 23 256 23zm0 18c26.584 0 52.025 4.824 75.516 13.623l-19.405 51.746a160 160 0 0 1 56.955 36.565l39.002-39.002a215.033 215.033 0 0 1 45.006 65.957l-43.601 40.707 58.69 10.45c.783 4.806 1.41 9.663 1.87 14.57l-51.709 4.923-8.851-29.943-9.073-30.688-45.064 42.072C341.166 180.736 301.982 151 256 151c-14.248 0-27.841 2.86-40.242 8.027l1.732-61.66-29.011 13.5-29.012 13.502 48.3 38.393C174.078 180.266 151 215.494 151 256c0 44.296 27.593 82.287 66.488 97.682l-44.047 43.064 30.243 10.461 30.242 10.461-8.024-61.074A104.612 104.612 0 0 0 256 361c57.883 0 105-47.117 105-105 0-8.8-1.096-17.349-3.146-25.523l57.892 10.308-.613.059A160 160 0 0 1 416 256a160 160 0 0 1-96.7 146.744l21.887 50.738C315.072 464.747 286.276 471 256 471a216.252 216.252 0 0 1-44.543-4.623l-7.773-59.17-42.688 41.736a215.464 215.464 0 0 1-63.52-47.63l40.7-37.31A160 160 0 0 1 96 256a160 160 0 0 1 46.934-113.066l-39.002-39.002a215.648 215.648 0 0 1 37.867-30.166l46.68 37.101 1.673-59.603C210.902 44.607 233.024 41 256 41zm0 128c30.33 0 56.962 15.413 72.525 38.854l-41.802 39.027 56.265 10.02C342.507 304.637 303.855 343 256 343c-1.013 0-2.02-.025-3.023-.059l-7.45-56.7-40.93 40.015C182.998 310.447 169 284.903 169 256c0-25.708 11.075-48.755 28.723-64.662l44.76 35.58 1.605-57.107c3.894-.53 7.869-.811 11.912-.811zm0 55a32 32 0 0 0-32 32 32 32 0 0 0 32 32 32 32 0 0 0 32-32 32 32 0 0 0-32-32z"></path></svg>