<svg stroke="currentColor" fill="currentColor" stroke-width="0" viewBox="0 0 512 512" height="1em" width="1em" xmlns="http://www.w3.org/2000/svg"><path d="M78.594 20.313c-20.396-.083-40.037 3.83-57.78 12.468C126.016 63.043 213.21 117.8 289.185 187.813c-9.978-45.738-40.414-87.43-79.375-117.78-11.143 8.35-27.725 8.505-41.156.75-13.402-7.74-21.53-22.143-19.906-35.938-23.19-9.237-47.145-14.438-70.156-14.532zm101.625 6.625c-5.215.166-9.516 2.475-11.532 5.968-3.442 5.962-.55 15.975 9.343 21.688 9.894 5.713 19.997 3.212 23.44-2.75 3.44-5.962.58-16.006-9.314-21.72-3.71-2.14-7.465-3.108-10.875-3.186-.354-.01-.714-.012-1.06 0zm-43.25 73.906L31.75 283.188c5.972 8.454 13.093 14.29 25.125 15.062l105.47-182.78c-8.03-5.31-16.5-10.178-25.376-14.626zm194.78 6.25l-17.406 10.78-10.22 66.657 38.313-59.124-10.687-18.312zm-140.344 61.72l-21.844 13.467 14.375 17.314 86.157-4.75-78.688-26.03zm209.75.686l-3.78 1.156-181.095 55.906-3.75 1.188-1.81 3.5-42.314 82.875-3.625 7.125 6.47 4.688 216.53 157.25 10.126 7.343 4.156-11.81 88.563-251.44 2.656-7.5-7-3.81-81.655-44.564-3.47-1.906zm-2.03 20.188l63.28 34.562-65.97 20.344-33.248-43.813 35.937-11.093zm-54.97 16.968l33.28 43.813L279 280.843l2.78-54.938 62.376-19.25zM262.78 231.78L260 286.72l-67.22 20.75 32.782-64.19 37.22-11.5zm202.5 11.126L400 428.312l4.063-166.5 61.218-18.906zm-80.06 24.72l-4.064 166.5-98.812-134.72 102.875-31.78zm-121.783 37.593L364.75 443.374 201.062 324.5l62.375-19.28z"></path></svg>