<svg stroke="currentColor" fill="currentColor" stroke-width="0" viewBox="0 0 512 512" height="1em" width="1em" xmlns="http://www.w3.org/2000/svg"><path d="M239.03 21.875c-1.406-.007-2.842.01-4.28.03-19.1.284-40.94 3.138-66.97 9.72 57.367 4.75 94.558 22.836 116.283 46.406-24.045-5.13-49.508-7.01-75.438-5.81-65.45 3.02-133.1 25.878-186.28 66.56v352.814h69.25c24.58-124.19 150.084-151.697 204.593-123.313-6.39 7.464-14.14 14.026-22.875 19.564l117.593 103.47c11.426-9.222 22.02-19.048 31.97-29.345 3.555-6.757 5.15-14.46 5.437-23.157-6.92 9.63-16.32 16.047-29.844 21.812-23.843-10.546-35.178-38.2-25.314-62.53 7.544-18.608 25.33-29.97 44.22-30.25 6.295-.095 12.734 1.048 18.937 3.56 7.767 3.15 14.286 8.074 19.25 14.126-1.87 17.62-5.607 29.942-14.094 40.314 8.26-2.506 15.254-5.98 20.843-11.094 11.06-15.077 21.41-30.684 31.375-46.562-140.284-55.405-112.67-123.29-262.97-165.844 40.218 27.884 63.98 55.072 75.532 80.062-81.775-31.722-164.477-34.046-229.03 8.813 42.262-102.17 173.387-141.1 226.093-117.72-1.64 4.707-3.617 9.282-5.907 13.656L450.97 217.97c5.305-13.755 9.585-27.614 13.06-41.564-.354-7.532-2.824-14.89-6.874-22.468-1.17 11.726-6.002 21.958-14.718 33.625-26.015 2.93-49.773-15.384-53.407-41.47-3.693-26.515 14.8-50.992 41.314-54.687 2.486-.28 4.94-.468 7.375-.468 5.688.075 11.183 1.165 16.31 3.093 7.24 16.273 10.207 28.856 8.033 42.126 5.872-6.27 10.144-12.753 12.437-19.937 2.063-18.68 3.243-37.46 3.938-56.282-121.62 18.065-150.75-37.62-239.407-38.063zm89.75 48.375v.063c7.988-.298 15.062 5.507 16.19 13.593 1.2 8.625-4.813 16.585-13.44 17.782-8.624 1.2-16.61-4.813-17.81-13.438-1.203-8.625 4.842-16.616 13.468-17.812.54-.187 1.06-.17 1.593-.188zm22.533 230.22c2.048-.04 4.138.333 6.156 1.155 8.07 3.272 11.958 12.462 8.686 20.53-3.272 8.073-12.49 11.96-20.562 8.69-8.07-3.274-11.96-12.463-8.688-20.532 2.454-6.054 8.262-9.844 14.407-9.844z"></path></svg>