<svg stroke="currentColor" fill="currentColor" stroke-width="0" viewBox="0 0 512 512" height="1em" width="1em" xmlns="http://www.w3.org/2000/svg"><path d="M316.695 89.836c-7.041 5.311-30.985 16.92-61.937 18.803l1.094 17.965c18.246-1.11 33.904-4.842 46.37-9.4l11.755 28.087c-5.284 27.528-17.35 66.21-33.762 97.492-8.143 11.525-28.555 46.051-40.477 54.319 10.815.008 19.976 5.61 25.61 13.087a38.883 38.883 0 0 1 2.359 3.536l78.668-91.022 7.658 18.3c-30.986 15.903-52.25 48.19-52.25 85.325 0 52.824 43.024 95.836 95.858 95.836 52.833 0 95.859-43.012 95.859-95.836 0-52.823-43.026-95.836-95.86-95.836a95.52 95.52 0 0 0-26.884 3.846l-38.057-90.934 11.045-1.045c1.75-3.507 5.703-11.74-3.119-18.713l-15.885.74-6.088-14.544c3.502-1.924 6.495-3.837 8.881-5.637zm-153.617 66.543c-7.176-.031-13.677.695-18.119 2.69-6.603 2.964-4.67 21.155 5.441 27.327 7.192.44 13.733-.15 21.026-1.314l4.678 11.367H60.072v17.998H73.31l4.16 14.557C42.879 243.488 18.5 277.686 18.5 317.447c0 52.824 43.026 95.838 95.86 95.838 35.996 0 67.433-19.97 83.818-49.402l-19.278-2.797c-13.976 20.659-37.63 34.2-64.54 34.2-43.11 0-77.862-34.745-77.862-77.839 0-31.71 18.83-58.88 45.947-71.031l15.215 53.24c2.9-1.577 6.224-2.554 9.791-2.554h8.197l-16.03-56.09a78.697 78.697 0 0 1 14.741-1.403c13.051 0 25.325 3.202 36.112 8.838l-31.692 48.655h21.479l25.094-38.522c11.54 9.993 20.096 23.327 24.185 38.522h18.494c-4.652-21.406-16.477-40.176-32.83-53.643l12.408-19.049 29.916 72.692h19.809l-47.83-115.383c5.566-1.076 11.77-2.239 18.976-3.399 15.623-2.514 10.974-10.972-.351-15.304-3.976-1.521-26.712-6.557-45.05-6.637zm162.772 17.28l12.763 30.5-45.564 52.718c1.05-1.89 2.088-3.798 3.103-5.732 12.935-24.655 23.022-52.67 29.698-77.487zM92.025 214.446h80.592l-12.32 18.916c-13.65-7.487-29.308-11.752-45.938-11.752-6.751 0-13.34.706-19.703 2.041zm305.616 34.043c43.109 0 77.86 34.744 77.86 77.838.001 43.094-34.751 77.838-77.86 77.838-43.11 0-77.86-34.744-77.86-77.838 0-29.828 16.656-55.646 41.201-68.72l28.358 67.755 16.603-6.949-28.195-67.367a78.382 78.382 0 0 1 19.893-2.557zM107.45 315.1c-.958 0-1.593.253-2.71 1.636-1.118 1.384-2.159 3.885-2.38 6.399-.22 2.514.327 4.86 1.303 6.386.972 1.52 2.157 2.632 5.404 3.245L231.273 350.5l.14.025c10.011 1.771 15.404-.189 18.696-2.888 3.293-2.7 5.112-6.94 5.287-12.06.176-5.121-1.548-10.74-4.423-14.557-2.876-3.817-6.29-5.92-11.258-5.92z"></path></svg>