<svg stroke="currentColor" fill="currentColor" stroke-width="0" viewBox="0 0 512 512" height="1em" width="1em" xmlns="http://www.w3.org/2000/svg"><path d="M345.2 17.46c-.5 7.78-1.3 16.37-3.5 22.71 3.7 1.89 7 3.92 10.1 6.2a59.95 59.95 0 0 1 14.5-14.36c-8.2-4.39-14.8-8.89-21.1-14.55zm-8.8 38.12c-2.9 12.45-1.5 25.9 4.3 36.88 15.1 18.44 31.5 28.74 52.5 22.74l-1.3-10.5c4.7-.8 9.6-.4 13.6.9 1.4-5.4-.9-13.41-4.7-17.47-8 0-16.6 1.63-23.5 1.77-6.8 0-14.5-.84-21.1-5.41-6.7-4.57-11.4-12.75-12.6-23.52-2.4-2.6-4.1-3.68-7.2-5.39zm-37.5 21.26c-12.4 33.26-18.7 68.76-8.7 101.76 4.4-.8 8.8-1.7 13.2-2.8-5.6-17.4-6.9-34-6.6-52.4.2-13.8 1.3-28.95 2.1-46.56zm101.9 78.06c-34 16-68.9 32-106.3 39 2.9 12.2 1.8 21.2-.9 30.5 16.3 10 41.3 31.7 58.9 25.8 17.6-9.2 21-46 21.2-62.7 14.9-16 26.7-18.6 27.1-32.6zm-156.7 16.8c-13.9.3-26.3 7.6-34.3 20.5-14.1 12.3-12.5 32.1-7.6 51.7 4.8-10.5 10.1-17 17.1-19.2 11.5 14.1 28.7 26.3 41.2 20.2l83.9 78.4c-31.8 44.5-84.2 74-124.7 95.2-29 15.1-59.8 25.9-89.7 29.6 18.7 14.6 45.8 23.5 81 10.9 110.5-39.4 188.4-87 182.7-118.2-5.8-31.5-26.3-54.1-53.3-73.6-26.1-6-44.9-23.2-65.7-35.9 7.4-20.7 4-35.9-.8-49.3-7.8-8-19.6-10.3-29.8-10.3zm1.7 18.7l16 1.6c-1.8 16.2-4.6 23.8-19.1 30.3 6.6-14.7 6-18.2 3.1-31.9zm16.9 133.9c-33.9.7-63.5 11-90.9 25.8-39.2 21.1-73.1 51.7-105.75 76.4 41.95 15.1 96.15 3.9 146.25-22.2 48.7-25.4 86.8-50.5 105.6-73-19.3-4.5-37.6-7-55.2-7zm-9.3 134.3l-11.8 4.7c-4 10.6-9.3 21.4-14.4 30.8l108.4.4c-5.8-4.8-13.1-13.4-13.7-19.4-31.4-.5-48.2 1.8-75.7 7.3 2.4-7.9 4.9-16.6 7.2-23.8z"></path></svg>