<svg stroke="currentColor" fill="currentColor" stroke-width="0" viewBox="0 0 512 512" height="1em" width="1em" xmlns="http://www.w3.org/2000/svg"><path d="M155.438 19.5C68.19 19.8-9.625 69.345 35.844 201.97 32.27 496.225 347.166 562.74 464.563 436.905c53.174-56.998 23.19-140.387-24.25-169.375-62.327-38.087-139.313 16.983-97.72 79.19.018.025.014.066.032.092 1.02 2.665 2.776 5.37 5.156 7.75 6.42 6.42 15.11 8.14 19.408 3.844 4.296-4.296 2.576-12.986-3.844-19.406-5.192-5.192-11.864-7.308-16.5-5.656.23-50.15 44.233-67.99 77.72-46.813 47.97 30.337 50.553 115.56 5.842 139.564-30.397 16.32-59.684 21.25-87.03 18.187-5.354 12.634-15.922 22.59-28 25.97v-.03c21.02-26.908 18.78-49.063 5.312-63.564-2.165-1.51-4.628-2.734-7.344-3.625-11.528 25.217-42.772 32.596-62.438 21.533 38.703-4.754 51.6-26.596 48.25-49.75-5.023-26.47-26.048-48.604-51.75-60.063-23.187 2.71-46.4 1.498-66.062-3.313-.21.082-.417.166-.625.25-.076-.146-.146-.29-.22-.437-8.983-2.256-17.182-5.287-24.28-9.03 6.056.94 12.24 1.436 18.56 1.436 39.97 0 75.368-19.515 97.22-49.53-.238-.132-.482-.24-.72-.376-19.607-11.367-22.72-38.466-10.5-59.72 8.88-15.44 24.498-25.406 39.908-25.343.497.003 1.003.01 1.5.032 4.08.188 8.113 1.107 12 2.81 63.24-82.44-54.468-152.387-158.75-152.03zm26.78 142.625c29.348 0 53.345 23.997 53.345 53.344 0 29.346-23.997 53.343-53.344 53.343-29.348 0-53.345-23.997-53.345-53.344 0-29.348 23.997-53.345 53.344-53.345zm0 18.688c-19.246 0-34.655 15.41-34.655 34.656s15.41 34.655 34.656 34.655 34.655-15.41 34.655-34.656c0-19.248-15.41-34.657-34.656-34.657zm118.657 6.656c-8.09-.138-17.748 5.165-23.906 15.874-8.212 14.278-4.986 29.24 3.655 34.25 8.64 5.008 23.1.372 31.313-13.906 8.21-14.28 4.952-29.242-3.688-34.25-2.16-1.253-4.678-1.924-7.375-1.97z"></path></svg>