<svg stroke="currentColor" fill="currentColor" stroke-width="0" viewBox="0 0 512 512" height="1em" width="1em" xmlns="http://www.w3.org/2000/svg"><path d="M17.63 16.006a1.638 1.638 0 0 0-.458 3.21C67.085 36.2 103.825 46.242 128.215 53.68c12.195 3.718 21.318 6.8 27.34 9.687 3.01 1.442 5.25 2.862 6.69 4.185 1.442 1.323 2.06 2.463 2.2 3.636.134 1.174-.194 2.553-1.285 4.28-1.09 1.726-2.934 3.73-5.467 6.02-5.07 4.574-12.948 10.22-23.492 17.385-21.087 14.33-52.77 34.77-94.057 65.573a1.638 1.638 0 0 0 1.772 2.75c42.71-23.665 75.725-43.042 99.098-55.46 11.686-6.207 20.992-10.673 27.768-13.046 3.39-1.186 6.155-1.86 8.188-1.986 2.03-.12 3.178.26 3.82.855.64.595 1.056 1.63.977 3.607-.075 1.98-.716 4.766-1.955 8.25-2.48 6.97-7.344 16.806-14.57 29.7C150.78 164.905 126.922 203 93.755 255.963a1.638 1.638 0 0 0 2.688 1.864c36.023-46.894 60.25-82.6 76.768-105.234 8.26-11.317 14.63-19.377 19.398-23.833 2.385-2.23 4.386-3.515 5.805-3.942 1.42-.428 2.142-.252 3.115.672 1.947 1.848 3.942 7.85 5.316 17.875 1.373 10.025 2.373 24.045 3.513 42.198 2.278 36.306 5.1 89.202 12.554 160.386a1.64 1.64 0 0 0 3.27-.245c-4.848-154.91 4.55-249.915 4.55-249.915a1.638 1.638 0 0 0-1.07-1.712s-7.132-2.425-15.702-10.846c-8.57-8.423-18.46-22.76-23.49-46.536a1.638 1.638 0 0 0-1.773-1.284c-53.747 6.25-103.183-.908-170.583-19.34a1.638 1.638 0 0 0-.49-.06zm476.675 0a1.638 1.638 0 0 0-.428.06c-67.4 18.435-116.835 25.592-170.58 19.34a1.638 1.638 0 0 0-1.773 1.285c-5.032 23.778-14.922 38.115-23.49 46.537-8.57 8.423-15.703 10.847-15.703 10.847a1.638 1.638 0 0 0-1.07 1.71s9.4 95.007 4.552 249.916a1.64 1.64 0 0 0 3.27.245c7.452-71.186 10.275-124.08 12.554-160.386 1.14-18.154 2.14-32.175 3.513-42.2 1.37-10.024 3.368-16.025 5.315-17.875.973-.924 1.698-1.1 3.115-.672 1.42.428 3.42 1.713 5.805 3.942 4.77 4.457 11.138 12.516 19.398 23.834 16.52 22.632 40.746 58.338 76.767 105.233a1.638 1.638 0 0 0 2.688-1.865c-33.166-52.963-57.027-91.057-71.482-116.845-7.23-12.894-12.09-22.73-14.57-29.7-1.242-3.485-1.876-6.272-1.956-8.25-.075-1.98.338-3.012.978-3.606.64-.594 1.787-.983 3.82-.855 2.03.12 4.798.8 8.186 1.986 6.776 2.373 16.082 6.838 27.768 13.047 23.373 12.418 56.39 31.794 99.098 55.458a1.638 1.638 0 0 0 1.77-2.75c-41.286-30.802-72.968-51.243-94.056-65.572-10.544-7.163-18.423-12.81-23.492-17.386-2.535-2.287-4.378-4.293-5.47-6.02-1.09-1.726-1.42-3.104-1.283-4.277.134-1.173.757-2.313 2.198-3.636 1.442-1.322 3.68-2.743 6.69-4.186 6.023-2.886 15.146-5.967 27.34-9.687 24.39-7.437 61.13-17.48 111.043-34.467a1.638 1.638 0 0 0-.518-3.208zM257.342 66.943c-2.55 0-5.02.23-7.18 1.712-2.157 1.48-3.74 4.054-4.856 8.128-2.232 8.145-2.988 22.776-2.75 50.295.478 55.038 5.225 161.43 12.587 367.28a1.65 1.65 0 0 0 3.3 0c6.815-205.847 11.85-312.252 12.738-367.28.447-27.513-.104-42.126-2.138-50.263-1.017-4.07-2.472-6.663-4.582-8.16-2.11-1.494-4.566-1.71-7.118-1.71z"></path></svg>