<svg stroke="currentColor" fill="currentColor" stroke-width="0" viewBox="0 0 512 512" height="1em" width="1em" xmlns="http://www.w3.org/2000/svg"><path d="M211.3 80.89C122.5 81.18 56.21 109.7 18.89 145l12.36 13C93.43 99.36 258.4 54.4 485.6 176.8l8.6-15.8c-108.8-58.6-204.6-80.37-282.9-80.11zm-96.9 84.81c-55.98 21.9-81.16 65.6-96.64 94.4l15.86 8.6c15.24-28.5 37.13-66.6 87.38-86.2 50.2-19.6 130.5-20.9 263.1 30.7l6.6-16.8c-91.7-32.6-187-64.8-276.3-30.7zm260.4 76c-177.5 91.5-260 65.2-352.46 41.4l-4.48 17.5c15.96 4.1 31.94 8.3 48.39 11.9-19.36 13.6-28.82 17.2-40.19 24.6 25.65-1.1 42.18-9.2 59.71-16.6-12.58 15.5-23.55 31-46 47.4 27.02-7.2 53.04-15.2 72.63-28.8-12.47 20-27.72 39.5-44.89 58.6 29.43-9.2 51.69-31.4 74.79-53.4-.3 19.1-9.2 38.2-15.5 57.3 21-19.3 30-33.2 42.7-52.5-1.2 29.2 7 52.8 14.2 82 4.5-27.9 9.5-55.9 9.5-82.9 15 25 35.1 47.8 60.4 68.1-13.5-23.5-27-46.9-34.1-71.3 25.8 24.5 52.7 48.3 85 68.2-21.5-23.5-41.9-47.3-55.1-72.7 23.2 21.8 46.5 43.6 85.3 56.2-28.1-19.3-46.1-41.2-59.3-64.3 26.7 22.4 56.6 42.3 92.7 57.2-31.9-22-49.9-44-62.2-66 26.4 21.8 56.6 36.2 82.9 50.6-20.8-19.2-43.5-37.6-54.4-60.4 21.5 18.7 46.9 26.8 72 35.5-23.3-15.5-36.7-26-50.6-44.3 22.2 11.2 40.7 15.6 67.4 22.2-17.4-9.7-35.9-23-47.8-34.5 26.7 6.7 56 7.8 83.6 7.4-25.3-6.6-52.8-12.4-67.4-22.5 58.4.5 62-4.6 86.5-16.8-51.8 3.8-84.7 2.9-103.3-19.1z"></path></svg>