<svg stroke="currentColor" fill="currentColor" stroke-width="0" viewBox="0 0 512 512" height="1em" width="1em" xmlns="http://www.w3.org/2000/svg"><path d="M251.28 20.47c-77.526 0-145.72 67.908-175.06 167.5 46.895-20.557 78.628-49.975 107.843-87.782l14.812 11.406c-37.143 48.068-80.887 85.143-150.78 106.625 36.597 44.54 50.448 71.076 67.374 104.593 21.57-19.75 47.474-29.015 73-31.813l2.03 18.594c-20.132 2.207-39.486 8.55-56.406 21.844 7.788 15.57 14.405 31.608 19.875 48.312 61.633-28.76 136.57-28.723 196.686-.688 5.932-16.325 13.092-32.58 21.438-48.656-16.6-12.593-35.457-18.663-55.063-20.812L319.095 291c25.53 2.8 51.395 12.085 72.97 31.844 16.933-33.533 30.795-60.07 67.405-104.625-69.896-21.483-113.64-58.558-150.783-106.626l14.782-11.406c28.32 36.65 58.99 65.422 103.56 85.874C397.215 87.513 328.884 20.47 251.28 20.47zm-72.343 166.5l38.938 22.093L212 259.25c-29.007-5.152-72.863-1.908-97.125 10.656 14.706-41.107 38.44-66.103 64.063-82.937zm154.938 0c25.624 16.833 49.388 41.83 64.094 82.936-24.263-12.564-68.12-15.808-97.126-10.656l-5.875-50.188 38.905-22.093zm-78.844 52.436c17.432 29.764 29.146 60.467 37.25 91.78-14.67-4.69-32.994-15.165-36.967-31.498-6.46 16.56-23.07 26.95-37.563 31.5 9.438-33.41 19.7-62.215 37.28-91.782zm-2.124 137.53c-4.236.01-8.483.162-12.72.408v44.03h22.095v-44.25c-3.12-.12-6.245-.194-9.374-.187zm28.063 1.69v42.75H301V382.03c-6.593-1.44-13.277-2.577-20.03-3.405zm-59.47.562c-7.067 1-14.08 2.326-21 4v38.187h21v-42.188zM319.688 387v37.563c5.01 20.54 7.053 40.984 6.218 61.75 13.892-28.968 20.355-58.257 22.22-87.75-9.064-4.575-18.594-8.434-28.438-11.563zm-137.875 1.625c-9.826 3.35-19.375 7.414-28.5 12.22 2.043 28.72 8.497 57.247 22.03 85.467-.846-21.07 1.293-41.81 6.47-62.656v-35.03z"></path></svg>