<svg stroke="currentColor" fill="currentColor" stroke-width="0" viewBox="0 0 512 512" height="1em" width="1em" xmlns="http://www.w3.org/2000/svg"><path d="M256 25c-7.6 0-14.4 1.66-18.6 3.74-3.3 1.63-4.1 2.97-4.3 3.26.2.29 1 1.63 4.3 3.26 4.2 2.08 11 3.74 18.6 3.74 7.6 0 14.4-1.66 18.6-3.74 3.3-1.63 4.1-2.97 4.3-3.26-.2-.29-1-1.63-4.3-3.26-4.2-2.08-11-3.74-18.6-3.74zm22.9 7c.1.08.1.1.1 0s0-.08-.1 0zm-45.8 0c-.1-.08-.1-.1-.1 0s0 .08.1 0zm-17-6.22c-28.5 3.5-61.2 10.21-90.8 19.64-22.5 7.16-43.15 15.82-58.82 26.36C50.81 82.32 39 95.5 39 112c0 60.8 37.88 114.8 83.1 153.6 27.3 23.4 57.1 41.6 84.4 52.4-.2-6.9-.3-13.6-.3-20.3-23.2-10.2-49.1-25.9-72.3-45.8C91.12 215.2 57 165.2 57 112c0-7.5 6.19-16.32 19.52-25.28 13.33-8.96 32.68-17.3 54.18-24.14 28.6-9.09 61-15.61 88.5-18.98-2.5-3.18-4.2-7.04-4.2-11.6 0-2.24.4-4.31 1.1-6.22zm79.8 0c.7 1.91 1.1 3.98 1.1 6.22 0 4.56-1.7 8.42-4.2 11.6 27.5 3.37 59.9 9.89 88.5 18.98 21.5 6.84 40.8 15.18 54.2 24.14C448.8 95.68 455 104.5 455 112c0 52.1-34.1 102.3-76.9 139.2-19.9 17.2-41.8 31.4-62.3 41.6-.8 5.7-1.5 13.1-2.2 21.6 25-11.2 51.7-28.3 76.3-49.6C435.1 225.7 473 171.9 473 112c0-16.5-11.8-29.68-27.5-40.22-15.6-10.54-36.3-19.2-58.8-26.36-29.6-9.43-62.3-16.14-90.8-19.64zM255.6 218.8l-12.9 10.9c4.4 19.6 3.5 39.3 3.1 58.8l24.1-1.7c-2.8-23.2-5.2-46.5-14.3-68zm15.7 70.4c-3.8 43.8-7.1 62-9.1 108.5-12.7-44.4-16.7-62.6-17.2-108-6.1 3.6-13 6.6-20.7 9.8.2 40 3.1 84.7 13.3 121.7 9.4 34.2 24.4 60.6 47.8 72.5.5-4.8.9-10.6 1.4-18.1.3-5.8.7-12.3 1-19.2l-20.6-6.7 21.4-8.9c.3-6.3.6-12.8.9-19.5l-25.4-8.2 26.3-11c1.9-39.9 4-80.8 7-105.9-8.7-1.2-17.7-3-26.1-7z"></path></svg>