<svg stroke="currentColor" fill="currentColor" stroke-width="0" viewBox="0 0 512 512" height="1em" width="1em" xmlns="http://www.w3.org/2000/svg"><path d="M256 56.998c-60.466 0-115.104 14.12-153.928 36.305C63.248 115.488 40.998 144.909 40.998 176c0 31.09 22.25 60.512 61.074 82.697 38.824 22.185 93.462 36.305 153.928 36.305 60.466 0 115.104-14.12 153.928-36.305 38.824-22.185 61.074-51.606 61.074-82.697 0-31.09-22.25-60.512-61.074-82.697C371.104 71.118 316.466 56.998 256 56.998zm0 33.273c39.141 0 74.677 8.783 101.137 23.624 26.46 14.84 44.666 36.581 44.666 62.105 0 25.524-18.206 47.265-44.666 62.105C330.677 252.946 295.14 261.73 256 261.73s-74.677-8.783-101.137-23.624c-26.46-14.84-44.666-36.581-44.666-62.105 0-25.524 18.206-47.265 44.666-62.105C181.323 99.054 216.86 90.27 256 90.27zm0 17.999c-36.413 0-69.279 8.392-92.332 21.322-23.053 12.93-35.473 29.555-35.473 46.408s12.42 33.478 35.473 46.408c23.053 12.93 55.919 21.322 92.332 21.322s69.279-8.392 92.332-21.322c23.053-12.93 35.473-29.555 35.473-46.408s-12.42-33.478-35.473-46.408c-23.053-12.93-55.919-21.322-92.332-21.322zm-24.893 203.96L217.21 487.697c1.473.733 4.15 1.72 7.744 2.518 7.967 1.77 19.547 2.787 31.047 2.787s23.08-1.017 31.047-2.787c3.594-.799 6.271-1.785 7.744-2.518L280.893 312.23c-8.18.503-16.483.768-24.893.768s-16.712-.265-24.893-.768zM85.98 375.69c-3.933-.008-7.93.17-11.96.455 4.054 18.088 20.652 40.868 45.602 60.828 22.32 17.855 50.7 33.446 80.135 43.16l4.305-54.36c-27.353-23.927-66.527-48.286-114.172-50.011-1.296-.047-2.6-.07-3.91-.073zm340.042 0c-1.31.002-2.614.025-3.91.072-47.645 1.725-86.82 26.084-114.172 50.011l4.305 54.36c29.434-9.714 57.816-25.305 80.135-43.16 24.95-19.96 41.548-42.74 45.601-60.828-4.03-.284-8.026-.463-11.959-.456z"></path></svg>