<svg stroke="currentColor" fill="currentColor" stroke-width="0" viewBox="0 0 512 512" height="1em" width="1em" xmlns="http://www.w3.org/2000/svg"><path d="M382.9 28.65c-26.2 5.22-39 13.71-50.8 30.5-10.8 15.13-20.5 38.34-34.2 70.05 6.5-.2 13.2-.3 19.3-.2l-.4 19.4c-117.1-3-193.1 77-275.08 115.1C67.89 303 115.5 326.6 169 322.8c57.3-4.1 121.9-39.7 173.2-123.4l16.5 10c-54 87.8-124 127.9-188.4 132.6-21.1 1.6-41.6-.8-60.6-6.5-19.4 15-47.3 31.4-88.69 44.5 58.12 28 136.09-1.8 191.19-18.6 39.9 5.4 69.7 5.8 103.6 1-1.3-6.8-.4-14 1-22.6 3.8-21 13.6-48.4 27.6-74.4 14.2-26 32.2-50.4 54.5-63.8 15.3-7.6 27.7-12 42.6-8.8-7.1-12.9-14.1-22.1-23.3-31.6l9.2-42.5c-5.4-2.8-10.2-6.3-14.1-10.4-3.2-3.6-6-7.7-6.8-12.9-.8-5.14.8-11.27 4.6-15.44 5.4-5.92 11.9-11.58 17.9-17.07 5-4.62 9.5-9.17 12.2-12.58-10-14.66-29.4-22.31-46.5-22.61-4-.12-8.4.31-11.8.95zm-1.8 18.13c9.4 0 17 7.69 17 17.11 0 9.42-7.6 17.09-17 17.13-9.5 0-17.1-7.67-17.1-17.13 0-9.46 7.6-17.12 17.1-17.11zm72 19.3c-8.6 9.66-18.8 17.14-27.4 26.53 3.2 5.61 11.4 9.49 16.6 11.39L491 87.48zM408.7 217.9c-16.9 10.5-34.3 32.5-47.2 56.7-13.3 24.1-22.5 50.6-25.6 68.4-1.3 7.1-1.3 12.8-1.1 15.8 60.9-13.6 95.6-43.9 110.3-77.5 9.1-20.7 10.6-43.1 5.5-64.4-13.3-8.2-29.1-6.5-41.9 1zm-70.6 159.7c-6.1 1.4-12.5 2.7-19 3.6l10.8 46.1-24 42.4 8.7 6.2 20.9-24.4 13.5 30.6 9.1-2.6-3.7-33 31.8 8.6 2.5-8.1-40-23.8zm-99.1 7l-4.5 44.2-38.3 28 2.7 6.4 33.3-11.4.8 32.5 8.7-1 9.8-30.5 28.5 20.8 4.9-7.3-31.1-36.7 4.5-44.1c-6.7-.1-13.1-.4-19.3-.9z"></path></svg>