<svg stroke="currentColor" fill="currentColor" stroke-width="0" viewBox="0 0 512 512" height="1em" width="1em" xmlns="http://www.w3.org/2000/svg"><path d="M310.764 27.086c35.65 52.304 28.718 138.494 1.23 202.857.814-37.525-4.488-79.686-18.12-124.634 9.56 106.27-74.502 226.382-113.556 176.323-18.965-24.314-25.796-96.042 7.48-148.52-20.36 12.828-36.114 34.506-46.052 60.358C89.2 293.815 127.04 411.82 248.318 411.82c154.426 0 249.604-250.51 62.446-384.732zM225.67 132.773c-11.55 1.477-24.57 13.962-33.502 34.973-14.002 32.94-13.464 74.536.64 92.914 10.576 13.785 25.695 10.895 38.678-5.465l.004-.004c4.328-5.45 8.49-12.35 11.99-20.588.11-.262.002-.618.112-.88-10.898 12.023-23.323 14.096-32.006 2.782-12.374-16.126-12.36-52.928-.074-81.832 4.055-9.54 8.972-16.68 14.158-21.9zm141.492 80.635c-11.895 181.347-175.84 187.74-203.445 106.76h.002c51.202 34.305 111.037 8.255 128.913-60.43l6.043 51.364c31.064-29.207 49.024-50.36 68.486-97.694zM99.722 363.936C49.57 377.563 17.175 397.75 17.175 420.14c0 41.018 106.522 74.352 237.695 74.352 131.172 0 237.696-33.334 237.696-74.35 0-22.312-32.12-42.58-81.964-56.206 17.23 8.88 27.517 19.25 27.517 30.445 0 32.13-82.312 58.546-183.25 58.546-100.936 0-182.66-26.418-182.66-58.545 0-11.253 10.11-21.536 27.517-30.444h-.004z"></path></svg>