<svg stroke="currentColor" fill="currentColor" stroke-width="0" viewBox="0 0 512 512" height="1em" width="1em" xmlns="http://www.w3.org/2000/svg"><path d="M455 32v198.47a16 16 0 0 0-7 13.208 16 16 0 0 0 7 13.226v66.774c0 5.75-1.877 8.85-4.262 10.836-2.384 1.987-5.657 2.887-9.258 2.287-7.16-1.193-16.37-8.05-16.474-28.77h15.533l-31.606-42.997-1.914 42.645H407c0 .106.005.21.006.316l-.002.035h.002c.128 26.794 14.79 43.74 31.514 46.527 8.4 1.4 17.126-.702 23.742-6.215C468.877 342.83 473 333.928 473 323.678v-66.79a16 16 0 0 0 7-13.21 16 16 0 0 0-7-13.227V32h-18zM191.97 142.678l-14.505.052 6.484 12.97c11.004 22.014 13.562 44.94 6.306 70.484 16.372-7.893 32.52-14.514 47.04-19.09 17.127-5.4 34.613-8.823 52.304-10.633-9.637-11.92-19.864-24.137-33.348-34.056-16.005-11.772-36.664-19.825-64.283-19.726zM321.173 212.9c-26.903-.003-53.246 3.41-78.47 11.362-29.805 9.395-69.467 29.167-100.985 50.238-15.76 10.536-29.53 21.437-38.99 31.195-9.458 9.76-13.73 18.572-13.73 21.983 0 1.115.658 3.355 3.328 6.55 2.67 3.192 7.133 7.02 12.975 10.918 11.683 7.798 28.768 15.954 48.064 23.338 10.86 4.156 22.445 8.07 34.225 11.647 4.63-5.44 9.13-10.773 13.082-15.685 4.6-5.715 8.51-10.923 11.09-14.957 1.933-3.025 2.8-5.784 3.103-6.27.1-.164.138-.074.133.343l18 .235c-.085 6.563-2.86 10.362-6.07 15.387-3.212 5.024-7.426 10.575-12.233 16.548-4.236 5.265-9.016 10.898-13.816 16.536 17.5-3.984 36.32-7.97 52.87-12.55 12.883-3.567 24.274-7.546 31.738-11.62 7.465-4.075 9.47-7.418 9.518-8.744l17.988.654c-.408 11.207-9.133 18.567-18.883 23.89-9.6 5.24-21.69 9.302-34.956 12.995 4.813.746 9.442 1.37 13.81 1.84 28.785 3.106 68.376 3.102 102.03-1.568 16.827-2.335 32.197-5.863 43.777-10.45 5.082-2.014 9.168-4.26 12.53-6.534-12.215-3.44-26.56-7.368-41.294-13.414-20.51-8.417-40.92-20.97-46.713-43.135-3.522-13.476 2.455-25.923 10.693-35.452 8.24-9.53 19.04-17.607 28.994-25.555s18.976-15.81 23.584-22.865c3.85-5.896 5.066-10.28 2.94-16.24-27.796-6.15-55.635-10.113-82.942-10.573-1.798-.03-3.595-.044-5.388-.045zm-307.55 24.39l11.028 15.585c25.106 35.484 28.82 103.86 19.66 151.705L41.4 419.783l14.653-4.99c31.135-10.605 49.9-25.726 63.056-41.373-8.873-4.267-16.915-8.706-23.8-13.3-6.772-4.52-12.463-9.17-16.792-14.35C74.188 340.594 71 334.563 71 327.68c0-12.59 7.967-23.33 18.807-34.512 4.653-4.8 10.03-9.647 15.92-14.486-18.32-23.38-43.376-37.776-73.06-39.977l-19.042-1.412zm332.317 10.388a16 16 0 0 1 16 16 16 16 0 0 1-16 16 16 16 0 0 1-16-16 16 16 0 0 1 16-16z"></path></svg>