<svg stroke="currentColor" fill="currentColor" stroke-width="0" viewBox="0 0 512 512" height="1em" width="1em" xmlns="http://www.w3.org/2000/svg"><path d="M403.598 24.87c-15.661-.33-32.31 6.302-42.94 10.407L303.79 66.154l54.135 12.332-4.822-20.03c32.638-18.927 57.029-17.597 68.796-11.06 6.01 3.339 8.807 7.642 9.452 11.897.644 4.255-.61 9.19-6.12 14.7l-79.744 79.743c2.644 1.48 5.089 3.278 7.27 5.46 2.18 2.18 3.979 4.626 5.459 7.269l79.744-79.744c5.51-5.51 10.444-6.764 14.7-6.12 4.254.645 8.558 3.443 11.896 9.452 6.537 11.768 7.867 36.158-11.059 68.797l-20.031-4.823 12.332 54.135 34.594-63.726c7.822-17.49 10.277-44.443-.102-63.125-5.537-9.968-14.546-16.932-24.935-18.506a29.504 29.504 0 0 0-3.92-.328 30.316 30.316 0 0 0-1.993.037c.097-1.982.001-3.96-.295-5.916-1.574-10.39-8.538-19.399-18.505-24.936-7.476-4.153-16.596-6.573-27.043-6.793zm-84.32 141.157c-8.132.065-18.19 1.594-29.452 4.479-25.74 6.594-57.736 20.114-90.205 36.787-64.938 33.346-132.469 79.826-159.28 106.637-18.472 18.472-18.52 42.314-10.251 67.119 8.268 24.805 25.512 49.02 38.652 62.16 13.14 13.14 37.356 30.384 62.16 38.652 24.805 8.269 48.647 8.22 67.12-10.252 26.81-26.81 73.29-94.341 106.636-159.279 16.673-32.469 30.193-64.466 36.787-90.205 3.298-12.87 4.824-24.17 4.416-32.816-.407-8.647-2.63-14.181-5.834-17.385-3.204-3.204-8.737-5.427-17.384-5.834a61.305 61.305 0 0 0-3.366-.063zm-12.339 23.639a20.083 30.124 45 0 1 .002 0 20.083 30.124 45 0 1 11.05 4.295 20.083 30.124 45 0 1-7.1 35.502 20.083 30.124 45 0 1-35.502 7.1 20.083 30.124 45 0 1 7.1-35.502 20.083 30.124 45 0 1 24.45-11.395z"></path></svg>