<svg stroke="currentColor" fill="currentColor" stroke-width="0" viewBox="0 0 512 512" height="1em" width="1em" xmlns="http://www.w3.org/2000/svg"><path d="M112.594 45.688c-33.65.38-66.873 11.23-93.688 27.562v420.78h475.281V220.564c-22.427-21.996-48.835-40.333-78.062-53.813 20.372 18.498 36.818 41.463 47.28 67.156-7.398-2.135-14.91-3.816-22.467-5.094 18.725 24.8 32.064 56.215 23.75 86.657-2.34-37.387-38.97-79.515-86.032-87.814-25.21 3.386-48.432 11.49-66.5 23.78 82.662-22.643 148.576 60.104 139.594 127.314-6.846-30.505-28.463-55.342-56.656-68.344 42.71 43.83 7.048 110.55-37.97 121.47 39.824-47.29 27.57-128.508-24.155-148.845 33.853 44.02 7.497 96.7-33.658 124.908 2.238-18.616 2.303-41.183-19.843-47.875 16.594 30.952-15.67 62.437-40.908 55.375-38.57-10.795-44.1-36.156-24.53-64.157-45.01 10.912-46.928 51.066-19.845 82.345-66.985-17.842-48.462-88.564-10.562-108.47-31.97-1.894-63.28 18.24-77.625 55.908 3.132-59.047 40.505-103.71 96.938-86.407-46.002-22.388-81.956-25.457-118-4.187-23.804 16.268-42.135 37.688-50.876 60.686 1.174-34.59 18.755-64.902 42.813-89.562 4.994-18.475 12.938-35.995 23.28-52.22-19.257 16.16-36.18 34.696-50.218 54.907 7.364-64.532 52.083-114.94 110.97-128.5-8.616-.54-17.493-.672-26.282 0-29.56 2.277-59.468 11.258-85.97 24.19C88.998 90.69 164.76 53.416 226.22 99.093c-31.36-38.968-72.808-53.87-113.626-53.406zm340.937 23.5c-43.96-.238-87.865 13.166-117.124 60.093 44.61-36.372 101.66-33.48 157.78 11.345l.002-67.844c-13.263-2.117-26.96-3.518-40.657-3.593zM349.19 162.875c-24.07-.18-46.58 12.584-54.282 41.375 35.84-18.384 83.33-20.903 128.125 24.53-4.907-41.085-40.858-65.657-73.842-65.905zm-80 121.813c-6.022-.038-12.407.797-19.063 2.687 36.172 14.942 57.26 42.38 64.938 77.938 20.873-36.532-3.725-80.364-45.875-80.625z"></path></svg>