<svg stroke="currentColor" fill="currentColor" stroke-width="0" viewBox="0 0 512 512" height="1em" width="1em" xmlns="http://www.w3.org/2000/svg"><path d="M407.47 20.85c10.26 16.748 17.462 36.09 19.856 56.65-32.396-44.636-58-40.276-96.36-25.697 65.992 9.776 101.33 67.377 96.36 140.75 48.848-61.72 34.92-160.814-19.857-171.703zm-276.167 2.896c-.987-.002-1.985.006-2.994.024h-.003c-34.522.598-107.756 26.213-104.54 101.037 21.08-55.636 65.886-58.685 104.54-32.123 46.407 31.894 22.075 98.348-16.936 100.45 11.637-17.33 17.04-40.65 2.974-55.29-24.895-25.91-54.777 4.487-55.533 29.594-1.403 46.62 45.44 68.116 75.336 60.738 30.192-7.45 50.092 12.416 36.795 51.976-15.056 44.795-121.114 75.948-133.155-8.173 1.7 88.73 43.248 129.87 104.54 98.114 41.467-21.487 78.87 18.96 74.17 54.896-32.792-37.747-82.098 17.986-38.544 40.883 78.98 41.522 199.4 40.194 265.73-23.945 64.735-62.6 60.833-175.215 12.263-259.89-5.614 26.608-28.43 52.367-74.17 67.163 59.262-77.482 2.572-206.85-129.652-174.036 84.2 4.683 73.567 108.248 5.257 105.123-62.264-2.848-.79-156.296-126.074-156.54zM277.508 230.22c-56.683 51.454 15.914 153.65 88.95 141.837-33.543-9.43-64.745-51.995-54.833-100.05 31.558 66.125 129.923 66.127 137.49-16.85 29.98 68.665 13.327 147.842-36.478 182.18-58.45 40.295-156.124 24.466-181.955-58.83 19.527 19.775 58.78 32.23 82.654 28.722-92.908-26.93-106.546-145.142-35.828-177.01zM24.68 355.77c-16.486 116.72 99.137 117.28 130.425 29.306-48.323 24.538-100.24 29.99-130.425-29.305z"></path></svg>