<svg stroke="currentColor" fill="currentColor" stroke-width="0" viewBox="0 0 512 512" height="1em" width="1em" xmlns="http://www.w3.org/2000/svg"><path d="M120.208 347.183l-.536-.614a29.488 29.488 0 0 1-9.3 15.005c-8.499 7.433-64.983 53.788-79.985 66.084l-.107.093a4.203 4.203 0 0 0-.148 6.177l42.37 40.847a2.962 2.962 0 0 0 4.616-.773l54.548-100.26a34.351 34.351 0 0 1 5.278-7.245l.088-.077zm235.893-172.309l-84.285 80.067-27.492-31.437 94.64-82.764 17.735 20.28a10.05 10.05 0 0 1-.598 13.854zM211.832 327.826a14.9 14.9 0 0 1-10.82 4.033c-.752-6.008-1.72-13.323-1.72-13.323l11.975-10.472 4.615 5.276c2.963 3.388 1.081 10-4.05 14.486zM348.95 117.009l5.101-4.461a2.587 2.587 0 0 1 3.65.244l5.73 6.552 5.958-5.21 8.514 9.735 63.7-55.707-1.293-1.48 34.58-30.242 8.26 9.444-34.582 30.242-1.328-1.52-63.7 55.708 2.903 3.32-14.847 12.984-23.311-26.656a2.587 2.587 0 0 1 .665-2.953zM173.312 387.886c2.137.931 29.807-5.621 31.044-6.703.454-.895-2.119-33.248-2.967-44.808a19.516 19.516 0 0 0 13.332-5.148c7.058-6.172 9.065-15.47 4.467-20.727l-4.614-5.276 2.648-2.316 3.473 3.972a3.88 3.88 0 0 0 6.143-.441l2.96-4.633 41.718 47.705 25.951-33.725-68.76-78.625-89.49 78.26-5.448-6.23a3.143 3.143 0 0 0-4.426-.287l-6.212 5.432a3.143 3.143 0 0 0-.297 4.434l28.514 32.605c20.536-17.186 25.617-5.462 27.508-1.944 1.89 3.518-6.47 38.045-5.535 38.465z"></path></svg>