<svg stroke="currentColor" fill="currentColor" stroke-width="0" viewBox="0 0 512 512" height="1em" width="1em" xmlns="http://www.w3.org/2000/svg"><path d="M169.92 15.654c-10.512 16.697-22.392 34.058-41.688 50.473.46.447.934.89 1.405 1.336l23.55-.406-3.527 10.7c-.505 1.53-1.065 3.048-1.678 4.552 2.803 1.945 5.745 3.875 8.872 5.788l25.052 15.33-45.99-.793c-1.954 2.474-4.06 4.9-6.305 7.275 8.8 11.517 22.045 22.713 38.675 32.766l-12.404-.365-.015 5.678c8.53 6.358 17.792 12.448 27.162 18.48 18.11-11.568 31.79-24.5 39.51-37.616l-57.353.99 25.052-15.33c8.97-5.488 16.525-11.115 23.082-16.867-5.098-5.475-9-10.962-11.257-16.69l-4.04-10.246 29.742-1.823C205.14 54.41 182.44 38.31 169.92 15.654zm234.605 13.223c-6.537 12.962-13.88 29.016-23.638 44.63 10.927 18.367 24.428 35.997 46.773 52.382l20.42 14.97-52.51-1.085c6.956 12.136 19.936 26.858 34.58 40.047 19.157 17.254 40.928 32.572 53.907 39.914l11.34 6.418c.005-4.163.005-7.382.015-13.972-17.176-11.938-29.767-25.795-36.322-42.2l-4.115-10.298 43.605-2.58c-9.91-4.358-19.747-8.263-28.723-12.06-8.498-3.594-16.23-7.107-22.724-11.23-6.495-4.122-12.102-8.954-14.858-15.943l-3.93-9.962 36.077-3.178c-24.245-20.226-47.223-48.756-59.897-75.853zM84.027 34.62c-12.52 22.656-35.22 38.757-57.843 53.234l29.738 1.822-4.037 10.244c-4.78 12.125-16.815 24.123-33.182 36.873-.295 11.21-.392 17.66-.385 17.732.005.044.19 1.1.29 3.127.038.742.04 3.177.066 4.358l13.828.797-.004.55-3.906 9.778c-1.18 2.955-2.498 6.07-4.16 9.232l11.525-7.05c37.376-22.87 50.42-48.163 67.395-74.833l-.233 6.366 4.474-1.875c-1.277-2.702-2.382-5.452-3.305-8.25l-3.528-10.7 26.582.46C107.068 69.66 94.836 51.787 84.027 34.618zM263.06 61.036c-10.808 17.168-23.04 35.04-43.314 51.86l26.582-.458-3.527 10.7c-6.657 20.188-22.772 37.89-44.874 52.91l17.916 11.573 18.273.688-4.127 10.5c-2.305 5.863-5.355 11.4-9.01 16.65l8.737-6.19c17.913-12.69 36.773-27.495 51.8-41.534 10.026-9.365 17.978-18.52 23.083-25.914l-50.537-3.715 16.5-12.773c10.37-8.027 20.973-15.94 30.924-24.178-15.49-11.246-29.53-24.024-38.423-40.12zm93.07.68c-12.76 26.805-36.227 46.04-59.107 63.506l31.39 2.306-3.194 9.726c-4.503 13.7-16.983 27.412-32.783 42.172-10.794 10.083-23.245 20.29-35.896 29.926l49.278 3.494-3.26 9.78c-11.273 33.806-46.845 56.924-75.816 75.597 13.487 8.056 27.67 15.44 39.813 22.318 68.34 18.82 147.594 6.972 200.924-16-13.19-7.554-23.844-14.547-32.748-23.006-11.805-11.216-20.072-24.96-26.377-44.183l-3.017-9.208 51.97-6.61c-11.874-8.21-25.17-18.39-37.867-29.825-20.11-18.113-38.394-38.003-43.915-58.067L372.68 123.3l27.867.577c-21.174-20.07-33.542-41.485-44.416-62.16zM108.78 121.84c-10.807 17.168-23.038 35.04-43.313 51.86l26.582-.456-3.53 10.697c-8.24 24.998-30.974 46.186-61.625 63.185l52.94 1.99-4.126 10.496c-11.05 28.11-29.76 52.974-61.038 71.585 73.885 22.566 156.574 31.568 231.582-3.572-12.908-7.055-26.9-14.653-40.33-23.56-18.07-11.983-34.525-25.736-41.71-43.713l-4.116-10.3 48.4-2.864c-11.828-7.625-23.415-15.48-33.557-23.383-16.245-12.663-29.06-24.086-34.02-36.664l-4.04-10.247 29.74-1.823c-22.62-14.476-45.318-30.576-57.84-53.23zM68.26 189.656l-49.016.844c-.168.218-.32.44-.492.656-.276 21.495-.448 33.384-.502 42.38 23.342-13.057 40.863-28.338 50.01-43.88zm105.674 12.403c3.27 2.968 6.883 6.035 10.845 9.124 3.52 2.743 7.266 5.524 11.14 8.308 5.44-5.177 10.084-10.545 13.692-16.092l-35.678-1.34zm41.658 20.428c-1.87 2.225-3.865 4.388-5.947 6.504 9.277 6.192 18.952 12.242 28.38 17.815l17.645 10.427c11.34-9.42 21.135-19.423 27.215-29.972l-67.293-4.774zm279.803 10.334l-68.383 8.698c4.666 11.45 10.047 19.75 17.28 26.992l-.21-9.6c17.455-.996 34.705-3.352 51.4-7.363-.065-7.174-.084-12.42-.087-18.728zm-243.96 27.852l-66.394 3.928c3.903 5.187 9.085 10.326 15.097 15.314 6.417 1.284 12.905 2.463 19.455 3.504 10.638-7.12 21.72-14.713 31.842-22.746zm-219.744 2.64l-.29 35.618c10.746-10.37 18.692-21.97 24.83-34.694l-24.54-.924zm413.947 66.534c-14.262 4.577-29.517 8.396-45.38 11.222l5.55 132.18h42.978l-3.148-143.402zm-181.83 7.002c-2.663 1.404-5.337 2.75-8.018 4.046l-.927 114.274h52.682l-2.426-110.496c-13.946-1.552-27.788-4.123-41.313-7.824zm120.54 6.693c-15.085 1.992-30.582 3.05-46.18 2.994l-.386 139.742h52.56l-5.994-142.737zm-353.38 9.146l-.924 114.04H74.31l1.975-104.398c-15.362-2.464-30.51-5.75-45.318-9.643zm174.72 6.27c-11.576 2.87-23.226 4.935-34.898 6.284l3.915 66.195h33.065l-2.084-72.48zm-113.443 5.628l-2.508 132.56 72.692-2.287-7.584-128.21c-20.97 1.29-41.936.424-62.6-2.062z"></path></svg>