<svg stroke="currentColor" fill="currentColor" stroke-width="0" viewBox="0 0 512 512" height="1em" width="1em" xmlns="http://www.w3.org/2000/svg"><path d="M141.22 16.563c3.515 67.68 1 131.198-4.126 193.78l-23.625-12.312 14.374 41.595L66.5 215.47l53.03 54.093-41.28 2.78c30.542 19.568 68.55 32.376 90.72 59.532 27.797 39.67 43.262 79.654 44.75 155.625 22.76 10.636 51.078 10.06 71.593 0 4.882-78.093 15.104-113.097 43.03-154.78.038-.056.09-.102.126-.158 22.083-27.63 60.45-40.486 91.25-60.218l-41.25-2.78 53-54.095-61.314 24.155 14.375-41.594-22.25 11.626c-10.843-61.14-19.04-122.3-16.436-183.437-28.406 44.014-51.705 99.365-63.78 150.5l-18.19-4.282c3.06-12.948 6.76-26.1 11.063-39.25-17.632-2.987-35.196-3.496-52.812-1.125 4.92 12.803 9.39 26.1 13.28 40l-18 5.03C200.25 115.816 171.18 66.398 141.22 16.564zm46.75 244.375c9.412-.07 19.09 5.25 28.718 15.25 18.017 18.714 14.723 47.67-.907 70.53 2.77-40.466-15.15-63.874-51.905-72.5 7.7-8.95 15.788-13.218 24.094-13.28zm126.593 0c7.47.056 14.662 3.535 21.375 10.75l-.688 3.25c-35.184 9.16-53.046 32.384-51.938 71.78-14.707-22.86-16.835-51.816 1.938-70.53 10.03-10 19.902-15.32 29.313-15.25z"></path></svg>