<svg stroke="currentColor" fill="currentColor" stroke-width="0" viewBox="0 0 512 512" height="1em" width="1em" xmlns="http://www.w3.org/2000/svg"><path d="M255.03 18.906c-27.872 0-53.334 14.366-72.31 38.625-4.504 5.757-8.61 12.07-12.265 18.847l22.856 1.55 16.27-32.16 7.795 33.794 28.01 1.9 13.527-30.103 8.844 31.62 26.535 1.8 9.505-33.548 15.7 35.256 23.827 1.618c-4.853-11.426-10.913-21.81-17.924-30.836-14.966-19.272-33.975-32.294-55.015-36.883-5.016-.975-10.14-1.48-15.352-1.48zM162.19 94.56c-6.697 17.794-10.502 37.84-10.502 59.065 0 39.172 13.372 74.36 33.656 98.813l10.125 12.218-.677.127c16.8 15.398 36.98 24.15 58.617 24.15 27.744 0 53.088-14.385 71.988-38.722 18.9-24.336 30.913-58.52 30.913-96.472 0-16.34-2.232-31.98-6.277-46.437l-30.926-2.097-9.142 32.268-15.1-33.91-26.326-1.787-16.09 35.803-10.518-37.607-25.883-1.757-16.892 33.387-8.092-35.082-28.875-1.96zm-68.565 92.627v71.032h18.688v-25.345h38.542c-2.913-5.98-5.51-12.22-7.76-18.688h-30.782v-27H93.624zm295.406 0v27h-21.497c-2.15 6.463-4.645 12.702-7.467 18.688h28.965v25.344h18.69v-71.033h-18.69zm-52.723 79.225c-21.44 25.248-50.626 41.21-82.897 41.21-31.14 0-59.41-14.863-80.617-38.59-14.19 3.05-26.44 6.908-37.08 11.61l23.767 27.612 33.268-4.828-19.107 21.28 19.995 23.23 32.318-11.088-17.305 28.53 20.16 23.42 34.008-15.92-16.81 35.903 20.678 24.027 36.53-17.104-18.056 38.567 30.028 34.886h38.158v-68.312h18.687v68.312h78.94c-.015-65.304-.462-117.143-14.158-153.094-14.12-37.066-40.573-59.58-100.505-69.65zm-217.48 23.244c-18.722 12.042-31.002 28.007-39.67 48.406-15.068 35.456-17.94 86.204-18.188 151.094h79.093v-68.312h18.687v68.312h131.79l-21.476-24.95-26.986 12.636 13.34-28.49-24.232-28.153-29.508 13.814 14.586-31.153-20.97-24.362-36.68 12.584 19.642-32.38-17.918-20.817-43.81 6.357 25.16-28.023-22.862-26.564z"></path></svg>