<svg stroke="currentColor" fill="currentColor" stroke-width="0" viewBox="0 0 512 512" height="1em" width="1em" xmlns="http://www.w3.org/2000/svg"><path d="M183.625 18.625c14.87 30 48.802 61.854 94.625 69.813-.92.074-1.844.157-2.78.25-120.804 11.912-47.283 183.807 16.467 124.906 72.576 57.343 121.264-114.676 8.75-125.156.896-1.462 1.836-2.847 2.844-4.157 9.85-12.794 25.548-19.246 42.876-19.093 34.656.308 73.688 26.587 73.688 82.094 0 25.625-6.817 44.11-18.375 58.845-11.56 14.736-28.308 25.84-48.876 34.688-41.137 17.695-96.796 25.78-149.438 38.562-6.806 1.653-13.36 3.46-19.687 5.406 1.525-5.413 1.8-11.35.374-17.842-3.726-16.97-17.056-28.657-35.78-28.72-6.243-.02-13.09 1.268-20.376 4.063 35.376 4.074 54.748 36.824 13.562 59.22-38.89 19.51-64.424 45.92-77.063 75.688-15.853 37.34-10.746 78.968 11.376 115.968H223.25c-39.562-34.53-49.422-78.006-30.063-119.625 34.61-56.74 113.376-65.356 120.907 4.283 4.367 40.096-32.934 42.928-56.063 18.125 8.312 30.084 34.22 37.283 55.376 27.843 19.453-8.68 22.78-32.91 20.47-51.342-5.843-46.6-35.67-68.998-69.407-68.25-2.554.056-5.13.272-7.72.593 18.125-12.167 39.6-23.373 64.406-33.217 13.658-3.896 26.794-8.317 39.063-13.594 22.377-9.628 42.07-22.244 56.217-40.283.05-.063.107-.123.157-.187l.125.063c32.98-36.512 60.553-9.002 55.25 26.78 18.34-25.255 9.634-46.69-10.94-57.343-9.6-4.973-18.7-5.787-27.124-3.72 3.16-10.856 4.875-22.835 4.875-36 0-64.522-47.85-100.387-92.186-100.78-22.168-.197-44.005 8.353-57.875 26.375-.322.417-.627.855-.94 1.28-16.542-41.594-64.536-55.71-104.155-55.53z"></path></svg>