<svg stroke="currentColor" fill="currentColor" stroke-width="0" viewBox="0 0 512 512" height="1em" width="1em" xmlns="http://www.w3.org/2000/svg"><path d="M169.668 19.996c-2.215 12.053-4.136 23.328-6.494 34.383-.792 3.765-.602 6.612 1.451 9.869 12.22 24 20.716 44.62 25.129 67.92-10.542-16.6-23.174-30.653-38.92-41.734-4.833 7.34-9.175 14.551-14.201 21.26-2.17 2.883-2.524 4.811-.672 7.865 4.18 6.625 7.868 13.454 11.746 20.191-8.302-2.336-15.946-5.587-23.697-8.469-1.586-.601-4.08-.549-5.373.317-9.422 6.83-18.7 13.912-28.903 21.568a3653.29 3653.29 0 0 0 21.842 21.033c-13.515-1.632-24.85-4.92-35.586-10.088-2.35-1.031-5.325-2.405-7.49-1.74-9.138 2.788-18.01 6.237-28.367 9.897 35.953 21.854 71.572 42.08 114.449 45.9-3.9-12.252-9.78-25.358-11.545-36.676-2.533-18.19 9.83-30.737 28.217-30.26 18.274 1.345 33.46 9.533 48.115 16.327 4.473-56.947-18.487-103.253-49.701-147.563zm197.295 124.049c-2.052 4.846-3.267 8.926-5.324 12.49-2.683 4.343-2.372 7.655.437 11.877 8.015 11.837 14.055 24.674 18.098 39.205-9.467-10.731-20.96-19.008-31.365-26.726-2.764 4.043-4.95 7.516-7.409 10.675-1.86 2.348-1.329 3.777.705 5.881 5.871 5.845 11.452 12.043 17.09 18.112-16.846-4.587-20.398-5.147-27.504-7.288-1.39-.345-3.556-.348-4.59.563-3.01 2.37-5.695 5.348-7.947 7.531 17.218 9.988 34.728 18.956 50.967 29.834 16.166 10.871 31.087 23.653 46.63 35.627 5.516-25.255.96-49.666-8.78-73.346-9.653-23.805-23.797-44.793-41.008-64.435zm-196.629 27.684c-10.583-.056-9.53 14.352-6.91 20.283 20.584 44.015 36.37 94.812 57.18 129.539.687 1.122 3.296 1.986 4.73 1.748 7.811-1.418 15.378-3.174 23.473-4.863 1.328 6.17 2.649 12.045 3.974 18.27-8.678 1.966-17.027 3.77-25.38 5.683-.226.544-.374 1.067-.63 1.609a3706.649 3706.649 0 0 0 23.391 24.28c-16.885-1.994-32.688-8.052-47.31-17.337-1.479-.966-3.379-2.34-4.82-2.074-7.615 1.378-15.219 3.239-23.835 5.076 27.396 23.964 56.749 37.971 93.608 31.094 1.6 5.765 3.135 11.654 4.89 18.152-7.46 1.095 87.217 117.433 147.383 82.157 22.092-12.953 52.966-43.747 51.756-68.844-1.353-28.902-12.883-54.05-29.861-76.83-17.76-23.749-37.931-45.297-61.125-64-41.722-33.556-174.988-103.874-210.514-103.943zM331.111 278.8c-29.036-1.45-60.693-8.805-85.986-27.553 30.792 1.292 60.728 9.387 85.986 27.553zm16.721 46.076c-28.828-.96-59.946-8.198-85.28-26.291 30.224.652 60.451 8.331 85.28 26.291zm55.68 14.418l14.056 6.271-9.843 22.227 22.568 9.428-6.016 14.21-22.785-9.445-10.006 22.526-14.14-6.323 9.931-22.22-22.435-9.375 5.795-14.227 22.828 9.54zm-46.617 23.973c-31.227-1.695-57.169-4.272-81.266-20.348 25.856-1.434 61.403 7.784 81.266 20.348z"></path></svg>