<svg stroke="currentColor" fill="currentColor" stroke-width="0" viewBox="0 0 512 512" height="1em" width="1em" xmlns="http://www.w3.org/2000/svg"><path d="M44.094 71.03C39.67 125.24 76.33 159.79 184.97 214.188 128.61 204.07 74.66 182.808 23.124 150.47v.03c7.09 53.776 49.718 75.458 166.063 93.28-56.77 8.355-113.546 5.1-170.313-9.718 17.55 48.114 61.012 56.474 169.22 38.813-50.19 23.392-102.518 36.867-157 40.47 27.647 41.79 72.765 34.776 178.53-20.158 2.372 3.08 5.015 5.913 7.938 8.47L163 365.436l11.188 40.844 38.625-11.155 17.718-84.813c5.557 2.716 11.617 4.56 17.97 5.407l-17.625 84.217 26.656 31.094 28.408-32.155-19.063-83.594c6.32-1.156 12.297-3.33 17.75-6.342l19.97 87.593 36.78 11.5 10.156-43.186-55.436-64.156c2.592-2.383 4.96-4.976 7.094-7.782 106.15 55.19 151.367 62.3 179.062 20.438-54.483-3.602-106.81-17.077-157-40.47 108.207 17.662 151.67 9.302 169.22-38.812-56.758 14.816-113.524 18.067-170.283 9.72 116.344-17.824 158.94-39.506 166.032-93.282v-.03c-51.547 32.342-105.476 53.6-161.845 63.718 108.64-54.397 145.297-88.95 140.875-143.157-52.904 58.692-112.837 102.316-179.844 130.845 4.598-6.468 7.28-14.398 7.28-22.938.002-21.868-17.724-39.593-39.592-39.593-21.87 0-39.594 17.725-39.594 39.594 0 8.757 2.842 16.88 7.656 23.437-67.49-28.517-127.842-72.302-181.062-131.344zM236.22 222.5l20.905 45.563 20.563-44.782c11.325 7.093 18.812 19.662 18.812 34.095 0 22.32-17.9 40.188-40.22 40.188-22.318 0-40.217-17.87-40.217-40.188 0-14.993 8.088-27.957 20.156-34.875z"></path></svg>