<svg stroke="currentColor" fill="currentColor" stroke-width="0" viewBox="0 0 512 512" height="1em" width="1em" xmlns="http://www.w3.org/2000/svg"><path d="M380.7 29.4l-244.9.66c-18.2.63-25.1 16.17-25 40.81l-3.2 195.53-25.05 3.6 12.02-30.1-16.72-6.6-12 30.1-20.11-25.5-14.14 11.2 20.03 25.4-32.02 4.6 2.56 17.8 32.16-4.6-12.06 30.2 16.72 6.6 12-30.1 20.1 25.5 14.11-11.2-20.08-25.5 22.18-3.2-2.7 168c1.7 23.9 6 33.4 18 34.7l253.6 3.6c21.8 2.7 28.8-12.5 29.5-35.1l3.8-385.47c.3-19.47 1.2-39.36-28.8-40.93zm-24.4 20.77c26.3 1.35 31.9 39.46 31.6 57.13-5.6 104.2-3.9 209.5-5 314.3-.6 20.4-19.5 44.3-38.7 44.7-61.8 1.3-125.4 2.8-189.9-.8-10.7-.6-30.7-11.6-30.4-33.2l5.4-344.72c-.1-22.23 23.6-34.1 39.5-33.68 67.6 1.77 131.8 1.54 187.5-3.73zm98.4 7.4l-17 5.89 5.4 15.5-16.1-3.1-3.4 17.69 16.1 3.09L429 109l13.6 11.9 10.7-12.4 5.4 15.5 17-5.9-5.4-15.5 16.1 3.1 3.4-17.74-16.1-3.1 10.7-12.4-13.6-11.79-10.7 12.39-5.4-15.49zm-254 10.81c-15.8.12-41.6 10.71-48.8 30.02-16.2 43.3 5.1 132.8 18.6 144.5 4 3.5-3.1-100.9 39.7-159.47 7.5-10.3 1.3-15.13-9.5-15.05zm55.5 84.32c-17.2 0-32.5 18.4-32.5 42.5 0 12.4 4.1 23.4 10.3 31l6.2 7.8-9.9 1.5c-9.4 1.5-15.8 6-21.1 13.1-5.3 7.1-9.2 16.9-11.6 28.4-4.7 20.9-4.8 46.6-4.8 69h25.9l6.3 98h59.7l7.2-98h27.3c-.1-22.1-1.2-47.5-6.3-68.3-2.8-11.3-6.7-21.2-12-28.4-5.1-7.1-11.4-11.6-19.9-13.2l-9.7-1.8 6.4-7.5c6.4-7.8 10.8-18.9 10.8-31.6 0-22.7-13.7-40.4-29.1-42.5h-3.2zm104.3 189.2c-1.8.9-24.5 78.7-35.2 96.4-6.9 11.4 26 3.8 34.7-6.3 11.4-13.5 6.4-82.3.6-90.1h-.1zm95.6 32.2l-17.8 3 2.5 15.2-13.5-9.1-10 15 19.1 12.9-12.8 7.8 9.4 15.4 13.4-8.2 3.8 22.7 17.8-3-2.5-15.2 13.5 9.1 10-15-19.1-12.9 12.8-7.8-9.4-15.4-13.4 8.2-3.8-22.7z"></path></svg>