<svg stroke="currentColor" fill="currentColor" stroke-width="0" viewBox="0 0 512 512" height="1em" width="1em" xmlns="http://www.w3.org/2000/svg"><path d="M300.042 21.781l-15.452 3.323c.991 11.046 1.224 22.188.395 33.404a295.23 295.23 0 0 1 9.748-.45c4.547-.133 9.024-.14 13.434-.032-5.904-11.04-8.3-23.49-8.125-36.245zm4.074 52.17c-2.93-.021-5.9.013-8.912.102-36.62 1.08-71.784 8.384-98.162 36.432-25.9 27.539-44.322 76.538-44.545 163.273 12.01 8.89 30.08 14.212 46.148 13.256l.951 15.973c-19.271 1.147-39.495-4.282-54.84-15.053-21.422 13.662-48.859 33.022-71.234 50.79-11.88 9.435-22.335 18.432-29.54 25.659-3.604 3.614-6.394 6.81-8.044 9.13-1.057 1.488-1.386 2.606-1.52 2.813.366 3.131 3.104 10.505 9.284 18.551 6.533 8.506 16.495 17.985 29.781 26.287 26.572 16.606 66.346 28.707 119.94 20.381 4.859-.755 7.668-.865 9.17-1.525 1.501-.66 3.246-1.79 6.162-7.678 5.831-11.778 13.434-40.613 23.693-102.398 1.83-11.021.47-27.932 1.558-43.538.545-7.802 1.688-15.427 4.924-22.306 3.237-6.88 9.209-12.992 17.465-15.492 4.761-1.443 14.762-5.832 25.74-2.088 5.49 1.872 10.748 6.105 14.426 12.42 3.432 5.892 5.72 13.595 7.04 23.63.406.17.595.31 1.687.532 3.36.682 9.389.905 16.705.37 14.632-1.067 34.675-4.877 54.506-10.507 19.83-5.63 39.569-13.128 53.713-21.139 7.071-4.005 12.718-8.168 16.195-11.863 3.476-3.695 4.496-6.492 4.45-8.324-.434-16.752-2.2-32.102-5.194-46.086-54.511 24.527-121.417 29.581-172.121 27.324l.713-15.984c56.827 2.53 135.288-5.369 188.183-38.315-6.125-11.854-21.491-25.008-33.457-27.605-67.82 29.668-109.558 35.312-137.797 28.81-28.314-6.519-41.277-26.097-49.469-40.043l-8.105-13.798 15.902 1.798c41.928 4.742 74.919-.443 95.897-19.039a44.372 44.372 0 0 1 11.172-7.234c-15.67-4.846-33.18-7.374-52.465-7.516zm71.732 19.301c-6.993.127-14.074 2.325-19.826 7.424-22.695 20.118-54.633 26.395-91.709 24.361 6.55 8.41 15.343 15.674 30.461 19.155 21.894 5.04 58.61 1.397 120.346-24.68a118.395 118.395 0 0 0-7.602-8.229c-6.494-6.381-13.685-11.956-21.545-16.724a32.802 32.802 0 0 0-5.314-1.074 36.566 36.566 0 0 0-4.81-.233zm8.34 145.451a9 9 0 0 1 9 9 9 9 0 0 1-9 9 9 9 0 0 1-9-9 9 9 0 0 1 9-9zm-59.723 11.262a9 9 0 0 1 9 9 9 9 0 0 1-9 9 9 9 0 0 1-9-9 9 9 0 0 1 9-9zm93.166 25.69c-6.267 2.63-12.86 5.083-19.6 7.36-.862 15.27 1.429 39.396 5.755 62.83 4.91 26.596 12.55 53.052 19.28 65.811l2.833 5.375-4.416 4.172c-13.116 12.391-17.929 29.2-21.043 46.815l-2.373 13.42-10.56-8.612c-16.978-13.845-24.53-20.432-46.86-30.345l-7.086-3.147 2.922-7.181c4.26-10.469 5.136-39.894 2.275-68.739-2.412-24.327-7.103-49.185-11.72-64.318a174.36 174.36 0 0 1-3.881.334c-5.908.431-11.194.522-15.918.084 2.412 15.553 4.643 31.78 10.855 48.816 4.166 11.423-10.386 20.992-21.72 29.328-12.682 9.328 7.055 74.349 30.902 92.006 50.943 37.722 149.935 16.182 150.299-6.32.574-35.45-36.67-39.994-35.117-52.676 2.828-23.106 29.083-42.26 17.558-61.103-10.391-16.99-19.664-9.734-32.306-13.344-7.395-20.189-8.835-40.378-10.079-60.566zM381.8 288.08c-.31.09-.62.187-.931.276-12.928 3.67-25.856 6.609-37.71 8.59 5.028 17.085 9.14 40.87 11.522 64.888 2.593 26.136 3.547 51.475-1.045 69.201 14.205 6.848 23.743 13.223 33.813 21.194 3.306-13.32 8.723-26.898 19.11-38.46-7.461-16.322-13.91-40.114-18.507-65.019-4.005-21.697-6.565-43.422-6.252-60.67zm54.338 67.936a9 9 0 0 1 9 9 9 9 0 0 1-9 9 9 9 0 0 1-9-9 9 9 0 0 1 9-9zm-113.779 34.416a9 9 0 0 1 9 9 9 9 0 0 1-9 9 9 9 0 0 1-9-9 9 9 0 0 1 9-9zm-132.74 17.556a9 9 0 0 1 9 9 9 9 0 0 1-9 9 9 9 0 0 1-9-9 9 9 0 0 1 9-9zm257.756 35.82a9 9 0 0 1 9 9 9 9 0 0 1-9 9 9 9 0 0 1-9-9 9 9 0 0 1 9-9z"></path></svg>