<svg stroke="currentColor" fill="currentColor" stroke-width="0" viewBox="0 0 512 512" height="1em" width="1em" xmlns="http://www.w3.org/2000/svg"><path d="M245.975 26c-85.496 0-154.808 69.301-154.82 154.797v118.63h15.261c40.814 0 73.9 33.087 73.9 73.901v5.715h13.477a65.67 65.67 0 0 1-4.332-23.354c.477-36.417 30.136-65.689 66.557-65.689 36.42 0 66.079 29.272 66.556 65.69a65.654 65.654 0 0 1-4.334 23.308h13.5v-5.717c.007-40.802 33.076-73.881 73.88-73.9h15.226V180.797C420.833 95.31 351.534 26.013 266.046 26h-20.071zM180.52 165.896a55.573 55.573 0 0 1 22.11 4.231c20.798 8.613 34.36 28.91 34.36 51.422.006 30.736-24.909 55.656-55.645 55.656-22.512.005-42.812-13.553-51.43-34.35-8.618-20.796-3.856-44.736 12.06-60.656a55.646 55.646 0 0 1 38.545-16.303zm146.526.047a55.54 55.54 0 0 1 22.096 4.223c20.788 8.604 34.348 28.884 34.357 51.383.006 30.736-24.908 55.656-55.645 55.656-22.498-.005-42.78-13.56-51.388-34.346-8.609-20.786-3.849-44.71 12.058-60.62a55.622 55.622 0 0 1 38.522-16.296zm-71.002 140.514a48.581 48.581 0 0 0-34.35 82.932 48.58 48.58 0 0 0 82.932-34.35h-.045c0-26.813-21.724-48.557-48.537-48.582zM256 318a16 16 0 0 1 16 16 16 16 0 0 1-16 16 16 16 0 0 1-16-16 16 16 0 0 1 16-16zm-18 34a16 16 0 0 1 16 16 16 16 0 0 1-16 16 16 16 0 0 1-16-16 16 16 0 0 1 16-16zm36 0a16 16 0 0 1 16 16 16 16 0 0 1-16 16 16 16 0 0 1-16-16 16 16 0 0 1 16-16zm-68.535 46.773l.01.034c-.012-.035 1.943 18.084 1.943 18.084h23.103a67.155 67.155 0 0 1-25.056-18.118zm101.06 0l-.004.038.004-.004v-.034zm-.004.038a67.163 67.163 0 0 1-25.042 18.08h23.103c1.94-18.047.016-.147 1.94-18.08zm-99.103 34.322v18.289h97.164v-18.29h-97.164zm0 34.578V486h97.164v-18.29h-97.164z"></path></svg>