<svg stroke="currentColor" fill="currentColor" stroke-width="0" viewBox="0 0 512 512" height="1em" width="1em" xmlns="http://www.w3.org/2000/svg"><path d="M139.8 24.96C155.9 88.06 182 124.7 197 141.5l1.2 1.3 1.6.9c16.4 8 26.8 24.7 26.8 43 0 26.6-21.4 48-48.1 48-26.6 0-48-21.4-48-48 0-8.6 2.3-16.9 6.6-24.4l2.9-5-3.2-4.9c-18.1-27.1-19.7-51.4-14.6-76.74 3.3-16.6 10.2-33.6 17.6-50.7zm121 114.64c7.6.1 14.9 1.3 20.9 4 4 8.1 6.2 18.7 10.6 29.1 2.5 5.6 5.9 11.4 11.6 15.6 5.4 4 12.5 6.1 20.4 6 56.5 10.3 92.3 26.4 116.3 45.4 24.2 18.9 37 40.9 46.9 64.8v.1c1.7 3.9 1.3 6.4-.1 9.2-1.5 3-4.6 6-8.4 8.1-3.9 2.1-8.5 3.1-12.1 3-3.5-.2-5.8-1.3-7.4-3.1-12.2-14.9-27-35.3-45.5-51.7-18.6-16.4-41.9-29.1-69.5-25.9-21.2 2.4-33.1-6.4-50.4-16.8-13.5-8.1-30.1-16.6-52.9-17.6 2.7-7.2 4.2-15 4.2-23.1 0-16.3-6-31.6-16.2-43.5 5.6-1 11.7-2.3 18.1-3 3.4-.3 6.8-.6 10.2-.6zM23.39 156.8c27.5 9.1 56.6 17.2 90.11 14.8-1.1 4.9-1.8 10-1.8 15.1 0 15.4 5.4 29.7 14.2 41.1-28.81-.2-48.71-10.4-66.11-26.2-13.3-12.2-24.9-28.2-36.4-44.8zm155.11 3.8c-14.3 0-26.1 11.8-26.1 26.1s11.8 26.1 26.1 26.1 26.1-11.8 26.1-26.1-11.8-26.1-26.1-26.1zm0 18.8c4.2 0 7.4 3.1 7.4 7.3 0 4.1-3.2 7.3-7.4 7.3-4.1 0-7.3-3.2-7.3-7.3 0-4.2 3.2-7.3 7.3-7.3zm25.8 69c6.3 52.6 26.9 87.3 51.2 113.8 26.8 29.2 57.1 49.7 78.7 77.3 1.2 3.3 2 10.1 1.2 17.3-1 7.7-3.5 16-6.9 21.8-3.4 5.6-6.9 8.1-10.1 8.4-3 .3-8.6-1.3-17-10.5-18-33.3-53.7-84.8-100.9-107.4-18.7-9-27.6-21.7-32.3-37-4.6-15.2-4.5-33.2-2.9-50.1 1.2-13.9-1.5-23.8-4.7-31 5.7 1.7 11.7 2.5 17.9 2.5 9.1 0 17.9-1.9 25.8-5.1z"></path></svg>