<svg stroke="currentColor" fill="currentColor" stroke-width="0" viewBox="0 0 512 512" height="1em" width="1em" xmlns="http://www.w3.org/2000/svg"><path d="M108.156 34.375c-27.67 0-50.25 23.22-50.25 52.53 0 29.313 22.58 52.564 50.25 52.564 27.672 0 50.25-23.252 50.25-52.564s-22.578-52.53-50.25-52.53zM421.22 47.438c-1.695-.01-3.407.078-5.126.25-6.14.61-11.648 2.435-16.75 5.093 27.534 22.946 44.814 53.08 55.594 86.282 11.516-10.587 18.16-26.445 16.406-44.062-2.72-27.316-24.72-47.412-50.125-47.563zM282.655 165.406c-.42 0-.847.015-1.28.03-11.443.446-27.712 7.003-49.313 24.408 3.852 7.27 6.62 15.613 8.53 24.687 2.33 11.068 3.43 23.334 3.282 36.19 23.447 22.623 38.49 54.107 46.063 86.343 19.412-35.968 30.116-91.95 24.28-129.813-3.462-22.468-11.877-36.76-23.75-40.656-2.272-.746-4.87-1.183-7.812-1.188zm83.875 8.53c-10.16.148-22.587 3.764-37.967 12.5 1.81 5.687 3.164 11.74 4.125 17.97 2.027 13.157 2.496 27.62 1.562 42.5 27.008 25.5 44.98 63.76 53.063 102.28 21.11-29.6 31.86-83.457 24.75-123.28-4.04-22.628-13.36-39.843-26.438-47.28-5.313-3.023-11.585-4.797-19.094-4.69zm-171.75 9.283c-10.523-.005-26.665 7.468-47.843 30.28 1.396 2.663 2.618 5.483 3.657 8.438 4.85 13.788 6.375 30.772 4.156 48.656.005.007-.005.024 0 .03 20.29 29.695 33.403 56.712 40.78 80.313 25.516-39.497 34.364-96.395 26.75-132.562-2.155-10.246-5.57-18.72-9.655-24.563-4.086-5.842-8.458-8.987-13.625-10.156-1.292-.292-2.69-.437-4.22-.437zm231.75 9.25c-1.692.008-3.404.142-5.155.374 4.212 9.048 7.168 19.17 9.063 29.78 1.913 10.714 2.828 22.07 2.78 33.626 26.028 31.95 37.214 78.36 35.907 121.125 24.203-32.054 28.19-77.965 18.28-116.438-5.933-23.04-16.852-43.023-30.03-55.062-9.472-8.653-19.55-13.467-30.844-13.406zM114.5 210.937c-7.918.4-21.825 7.95-38.78 29.625 22.127 29.55 34.963 56.85 40.843 80.406 20.408-31.727 24.01-71.195 16.406-92.814-2.2-6.255-5.194-10.882-8.282-13.594-3.09-2.71-6.038-3.834-10.188-3.625zm-69.594 37.406c-28.81.64-36.923 38.846-21.125 71.437 14.767-12.608 27.463-34.552 27.282-71.03-2.146-.317-4.2-.45-6.156-.406zm24 14.906c-2.85 30.697-14.558 52.92-29.53 67.344 10.64 27.8 23.558 43.408 33.593 49.312 5.353 3.15 9.6 3.735 13 3.094 3.398-.64 6.405-2.5 9.25-6.5 5.686-8.002 9.202-25.093 3.78-48.656-4.194-18.226-13.6-40.227-30.094-64.594zm262.563 8.25c-5.632 34.715-18.428 69.16-36.908 92.813 1.994 18.698 1.557 36.885-1.218 52.937-1.902 11-4.996 21.338-9.47 30.125 31.07 20.183 51.32 21.203 64.282 14.125 13.17-7.19 22.067-25.338 24.594-50.22 4.402-43.336-11.6-103.207-41.28-139.78zm-89.533 5.25c-4.72 34.618-18.057 70.647-40.656 98 3.4 20.416 1.988 37.567-4.093 50.594 12.106 13.154 22.842 21.475 31.657 25.937 9.418 4.77 16.263 5.222 21.72 3.626 10.91-3.192 20.378-17.73 24.374-40.844 6.888-39.846-4.113-99.3-33-137.312zm188.938 10.03c-5.11 33.988-18.502 66.466-39.813 86.533 1.413 13.79 1.527 27.27.25 39.843-1.764 17.37-6.273 33.478-14.406 46 18.41 9.376 31.363 7.765 42.188.47 12.215-8.235 22.194-26.186 27.28-49.188 8.365-37.82 3.207-87.827-15.5-123.657zm-281.78 9.408c-5.674 17.677-15.082 35.198-28.626 50.53.655 16.203-2.648 29.77-9.47 39.813 14.73 23.188 29.776 36.13 41.344 40.876 12.63 5.183 19.813 2.853 25.656-5.906 5.843-8.76 8.93-26.624 3.28-51.72-4.58-20.35-14.7-45.29-32.186-73.592z"></path></svg>