<svg stroke="currentColor" fill="currentColor" stroke-width="0" viewBox="0 0 512 512" height="1em" width="1em" xmlns="http://www.w3.org/2000/svg"><path d="M256 33c-8.5 0-21.318 5.745-35.06 16.17-13.743 10.425-28.429 25.055-42.167 40.756-19.597 22.397-37.26 47.053-48.41 64.597l49.582 37.188 49.23 12.307 2.288-6.864 17.074 5.692-14.957 44.873 22.42 56.05 22.42-56.05-14.957-44.873 17.074-5.692 2.287 6.864 49.23-12.307 49.583-37.188c-11.15-17.544-28.813-42.2-48.41-64.597-13.738-15.7-28.424-30.33-42.166-40.756C277.318 38.745 264.5 33 256 33zm-91.49 95.213l76 44-9.02 15.574-76-44zm182.98 0l9.02 15.574-76 44-9.02-15.574zM17.21 146.625c31.804 32.973 63.213 73.408 76.3 111.857 1.59-2.708 3.38-5.333 5.292-7.882 5.009-6.68 11.036-12.972 17.14-19.153-8.95-12.884-11.752-29.088-12.605-42.886-29.308-24.142-53.916-37.693-86.127-41.936zm477.582 0c-32.21 4.243-56.819 17.794-86.127 41.936-.853 13.798-3.654 30.002-12.605 42.886 6.104 6.181 12.131 12.474 17.14 19.153 1.912 2.55 3.703 5.174 5.291 7.882 13.088-38.449 44.497-78.884 76.301-111.857zm-373.645 23.484c-.023.045-.054.1-.078.145.137 16.376 2.007 44.095 13.295 55.383l6.364 6.363-6.364 6.363c-8 8-15.74 15.805-21.164 23.037-4.688 6.251-7.327 11.823-7.965 16.452l81.118 30.418c4.7-6.847 9.904-13.253 15.285-18.633l16.029-16.03-.67 22.659c-.25 8.431-.383 16.131-.232 23.41l30.84 11.564L214.707 249h-50.98l-13.364 13.363-12.726-12.726 11.312-11.313-13.531-57.512zm269.708 0l-14.272 10.703-13.531 57.512 11.312 11.313-12.726 12.726L348.273 249h-50.98l-32.897 82.24 30.842-11.566c.15-7.278.018-14.978-.232-23.408l-.672-22.659 16.03 16.03c5.38 5.38 10.584 11.788 15.284 18.634l55.192-20.697 25.926-9.722c-.638-4.63-3.277-10.2-7.965-16.452-5.424-7.232-13.164-15.037-21.164-23.037L371.273 232l6.364-6.363c11.288-11.288 13.158-39.007 13.295-55.383-.024-.045-.055-.1-.078-.145zM157.867 197.65l7.848 33.35H183v-19.975l-10.945-2.736zm196.266 0l-14.188 10.64L329 211.024V231h17.285zM201 215.525V231h19.18l3.287-9.857zm110 0l-22.467 5.618L291.82 231H311zm-205.791 62.51a16.25 16.25 0 0 0-.117 1.256c7.79 37.424 34.985 88.461 66.066 129.256 15.682 20.582 32.34 38.649 47.582 51.271C233.983 472.441 248 479 256 479c8 0 22.017-6.559 37.26-19.182 15.242-12.622 31.9-30.689 47.582-51.271 31.081-40.795 58.277-91.832 66.066-129.256-.02-.41-.063-.83-.117-1.256l-48.027 72.043L256 435.715l-102.764-85.637zm45.756 36.188l15.799 23.699 2.968 2.474c1.753-5.409 4.259-10.906 7.176-16.445zm210.07 0l-25.943 9.728c2.917 5.539 5.423 11.036 7.176 16.445l2.968-2.474zm-162.129 7.73c-1.782 2.76-3.48 5.558-5.006 8.356-4.27 7.83-7.176 15.717-8.328 21.255l19.67 13.114c-4.116-14.232-5.864-28.048-6.336-42.725zm114.188 0c-.472 14.677-2.22 28.493-6.336 42.725l19.67-13.114c-1.152-5.538-4.057-13.425-8.328-21.255-1.527-2.798-3.224-5.596-5.006-8.356zm-19.227 17.457L265 350.236v54.55l7.793-6.495 7.158-14.316c8.04-16.081 12.051-29.95 13.916-44.565zm-75.734.002c1.864 14.614 5.876 28.483 13.916 44.563l7.158 14.316 7.793 6.494v-54.549z"></path></svg>