<svg stroke="currentColor" fill="currentColor" stroke-width="0" viewBox="0 0 512 512" height="1em" width="1em" xmlns="http://www.w3.org/2000/svg"><path d="M266.78 18.313c-68.048 0-127.277 27.268-162.092 65.343C80.53 76.33 63.895 56.038 59.438 23c-25.998 37.61-19.67 83.373 17.437 106.5-2.58 7.738-4.23 15.62-4.844 23.563-2.707 35.132-8.182 136.093 9.626 136.093 19.603 0 17.328-66.96 49.625-32.72 21.764 23.074 33.943 79.104 22.782 95.19-2.73 3.935-13.435 14.822-13.437 25.718 0 11.106 9.707 23.344 23.97 23.344 13.312 0 23.936-10.442 23.936-23.344 0-12.69-12.333-21.686-14.593-25.72-8.563-18.99-6.78-51.177 18.688-52.562 29.17-1.588 42.75 83.47 25.688 108.063-4.534 6.534-23.375 26.674-23.375 46.125 0 19.87 15.246 41.47 39.718 41.47 24.948 0 39.72-24.09 39.72-41.47 0-16.96-20.186-39.434-23.938-46.125-16.237-28.945-16.605-112.295 21.75-119.28 29.234-5.328.435 102.186 30.156 102.186 35.964 0-12.588-126.686 41.344-126.686 42.254 0-8.23 87.354 22.375 90.625 42.572 4.55-6.924-90.94 24.78-90.94 17.33 0 24.814 42.414 14.688 79.25h-.03c-2.467 8.98-15.156 24.6-15.156 43.22 0 21.245 14.657 31.563 29.187 31.563 14.532 0 29.783-13.116 29.783-31.563 0-17.436-13.363-34.452-16.344-43.22-14.397-42.347 8.27-102.557 21.28-140.155 11.683-33.76 11.757-62.707 3.375-87 21.43-24.834 21.923-61.223.563-92.125-3.173 23.514-12.518 40.563-26.344 51.094-36.776-37.514-100.65-55.78-165.063-55.78zM192.907 97c26.34-.544 68.91 27.705 81.188 64.344-43.674 5.63-105.783 5.352-102.656-43.844.893-14.063 9.496-20.253 21.468-20.5zm214.625.188l23.44 37.53c.202-.092.39-.187.592-.28-10.917 32.222-62.78 31.796-100.718 26.906 11.602-34.62 50.242-61.73 76.687-64.156zm9.408 84.968L430.5 195.03l-39.625 41.814-5.094 5.375-6.405-3.75-31.25-18.314-39.97 37.47-6.25 5.843-6.374-5.72-34.31-30.78-35.908 21.905L219 252.72l-5.188-5.25-49.375-49.72 13.25-13.156 44.188 44.5 35.53-21.72 5.94-3.624 5.155 4.656 33.125 29.72 38.813-36.376 5.093-4.78 6.033 3.53 30.875 18.094 34.5-36.438zM83.688 311.312c-12.09 0-21.876 9.787-21.876 21.875 0 12.09 9.787 21.875 21.876 21.875 12.088 0 21.874-9.786 21.874-21.875 0-12.088-9.786-21.875-21.874-21.875zm218.812 96.97c-9.583 0-17.344 7.76-17.344 17.343s7.76 17.344 17.344 17.344c9.583 0 17.344-7.762 17.344-17.345 0-9.583-7.76-17.344-17.344-17.344z"></path></svg>