<svg stroke="currentColor" fill="currentColor" stroke-width="0" viewBox="0 0 512 512" height="1em" width="1em" xmlns="http://www.w3.org/2000/svg"><path d="M216.713 21.62c-1.964 23.35-1.963 23.349-21.82 35.787 23.349 1.964 23.348 1.965 35.787 21.822 1.963-23.349 1.965-23.35 21.822-35.789-23.35-1.963-23.35-1.963-35.79-21.82zm92.473 42.988l-127.713 56.493-42.409 55.45 82.366 22.35 66.023-47.068 24.94 22.033c-11.489 9.184-14.01 8.604-32.79 4.123 14.235 17.14 14.234 17.14 9.063 38.81 17.14-14.234 17.14-14.234 38.81-9.064-12.054-14.514-13.88-16.782-11.023-30.283l10.082 8.908 54.086-49.96zM91.46 98.093c13.446 28 13.446 28.001-.887 55.558 28-13.446 28.001-13.448 55.559.885-13.447-28-13.448-28 .885-55.557-28.001 13.447-28 13.446-55.557-.886zm345.848 43.115c-14.974 27.214-14.973 27.213-45.729 31.563 11.842 6.515 18.527 10.197 22.664 14.81l-53.531 61.838 6.307 23.775 88.501 8.678-20.834-82.504c6.759-8.54 13.547-9.513 34.186-12.431-27.214-14.974-27.215-14.973-31.564-45.729zM58.38 270.268c-7.876 39.058-7.875 39.056-43.846 56.19 39.057 7.876 39.056 7.877 56.19 43.848 7.875-39.057 7.876-39.058 43.847-56.192-39.057-7.875-39.058-7.874-56.191-43.845zm236.691 8.41c-17.139 14.235-17.14 14.236-38.81 9.065 11.502 13.85 13.705 16.519 11.4 28.465l-18.283-10.969-11.705-25.08-27.904 16.625-41.184-12.812-9.447 64.697 56.97 61.818 81.582-76.261-24.03-14.418c9.614-7.279 13.022-6.483 30.476-2.319-14.235-17.139-14.236-17.14-9.065-38.81zm170.83 37.628c-14.973 27.214-14.974 27.214-45.73 31.564 27.214 14.974 27.215 14.975 31.564 45.73 14.974-27.214 14.973-27.214 45.729-31.564-27.215-14.973-27.213-14.975-31.563-45.73zM148.03 362.749c-14.712 18.237-14.714 18.236-38.13 17.408 18.236 14.713 18.236 14.714 17.408 38.131 14.712-18.236 14.714-18.236 38.13-17.408-18.236-14.713-18.236-14.714-17.408-38.131zm215.34 11.57l-42.81 46.793c-13.168-15.872-13.145-16.527-8.106-37.644-17.14 14.234-17.138 14.233-38.808 9.062 14.234 17.14 14.233 17.14 9.062 38.81 16.642-13.82 17.29-14.174 37.143-9.452l-9.051 9.892 24.828 56.75 135.709 1.85-33.4-92.45zm-274.066 2.182L31.14 416.89l16.25 68.488 86.814-17.033-40.445-44.49z"></path></svg>