<svg stroke="currentColor" fill="currentColor" stroke-width="0" viewBox="0 0 512 512" height="1em" width="1em" xmlns="http://www.w3.org/2000/svg"><path d="M259.9 22.6c-8.4 13.1-16.5 26.3-20.5 39.2 5.3 4.32 10 8.63 14 13.4 5.9-3.56 12.1-6.61 17.7-9.1-.6-14.5-5.6-28.6-11.2-43.5zm-48.8 42.6c-.6 5.7 0 12.9 2.2 19.8 9.6 4.87 17.2 10.27 24.7 16.6 2.6-3.2 4.1-7.3 2.4-13.3-7.8-10.13-18.3-17.9-29.3-23.1zM45.6 70.8c1.2 15.6 2.8 30.9 7.3 43.6 6.93 0 12.96 1.1 19.2 2.3 2.21-6.2 5.6-12.4 8.6-17.9-9.2-11.3-21.6-19.5-35.1-28zm305 .5c-10.2 11.9-20 23.9-25.8 36 4.6 5.1 8.8 9.7 12 15.2 6.3-2.6 12.8-4.8 18.7-6.5 1.5-14.5-1.4-29.2-4.9-44.7zm-53.3 6.6c-12.8 2.1-24 5.79-35 13.3-3.4 5.4-3 9.8-1.3 13.7 9-3.8 19.3-7.28 28.2-8.5 4.3-5.9 6.9-12.9 8.1-18.5zm-176 1.4c1.3 15.6 2.7 30.9 7.3 43.6 6.8.3 13.2.9 19.3 2.3 2.5-6.4 5.5-12.6 8.6-18-9.2-11.2-21.7-19.5-35.2-27.9zM468.8 85c-13.2 8.5-26 17.1-35.1 27.1 2.9 6.2 5.6 11.9 7.1 18 7-.8 13.8-1.1 19.9-.9 5.6-13.4 7-28.3 8.1-44.2zM104.6 96.8c-8.21 7.1-13.83 19.1-15.6 27.1.1 2.4.7 4.3 1.4 5.9 6.22-3.3 13.4-5.2 19.3-6-2.6-8.9-4.1-18-5.1-27zm79.9 4c-10.2 10-17.3 23.1-19.8 31.6.5 6.6 3.5 9.9 7.1 12 4.9-8.6 11-17.5 17.4-24-.2-7.2-2.2-14.4-4.7-19.6zm21.4 1c-.3 2.7-.2 5 .3 7.5 7.1 5.9 12.9 14.3 15.4 21.7 3.7 2.6 7.3 5.3 10.5 8 3-3.2 4.9-7.5 3.1-14.1-7.9-10.1-18.4-17.7-29.3-23.1zm200.7 1.6c-2.8 4.9-5.4 11.7-6.2 18.9 6.6 8.5 11.6 16.4 15.5 25.4 3.6-1.8 6.6-4.8 7.7-10.9-1.1-6.5-4.1-13.2-7-18.6-2.9-5.5-6.6-10.8-10-14.8zm-114.5 11.1c-13.7 2.9-26.1 6.8-34.9 13.3-2.6 4.9-3.4 10.8-.9 15.1 8.5-3.6 18.1-6.7 26.4-8.2 4.4-5.9 7.9-13.5 9.4-20.2zm18.2 3.7c-1 5.2-3 10.3-5.5 15.3 4.9 4.3 9.3 8.5 13.2 13.1 3-2.8 5-6.7 4.3-12.8-2.7-5.3-7.7-11.2-12-15.6zm56.8 14c-8.1 1.1-15.9 3.8-23.5 7.3-4.2 5-4.5 9.5-3.4 13.6 5.5-1.7 11-2.6 16.2-3.6 2.3-2.3 4.6-3.9 7.3-5.9.8-3.9 1.9-7.8 3.4-11.4zm-334.8 2c3 4.8 7.8 10.3 13.7 14.5 10.58-2 19.99-2.1 29.8-1.7.1-4-1.1-8.2-6.1-12-11.37-3.1-25.19-3.3-37.4-.8zm170.2-1.1c-9 8.9-16.6 21.4-19.9 31.8 1 5.5 3.9 10.6 8.4 12.5 4.7-7.9 10.3-16.3 16.1-22.4-.2-7.6-1.8-15.6-4.6-21.9zm184.1 1.4c-3.5 7.3-5.8 14.1-6.4 20.9 6.3 8 10.6 15.5 14.6 23.9 5.4-3.3 7.9-6.9 8.8-11.4-2.9-12.6-9.1-24-17-33.4zm-278.5 8.2c2.9 4.8 7.7 10.3 13.6 14.5 10.6-1.8 20-2.5 29.8-1.7.2-4.1-1.2-8.3-6.1-12.1-11.4-3-25-3.3-37.3-.7zm332.9 6.8c-5.3 3.8-5.5 6.6-5.7 10.8 2.7 0 5.6.2 8.4.4 7.1.7 14.2 1.7 20.8 3.6 6.4-3.6 11.8-8.8 15.2-13.4-9.7-3-27.8-5.3-38.7-1.4zm-154 3.1c-12.5 2.3-26 6.2-35 13.5-5 8.2-1.1 15.9 4 20 6.8.3 15.9-5.5 22.6-14.6 4.4-6 7.2-13.1 8.4-18.9zm17.6 6c-1.3 5.3-3.5 10.5-6.3 15.5 3.1 2.9 6.1 5.8 8.7 8.8 3.4-2.9 5.9-6.8 5.1-13.6-1.9-3.7-4.7-7.4-7.5-10.7zm-254.3 8c3.1 5 8.1 10.7 14.3 14.9l.9.6c10.08-1.8 18.95-2 28.2-1.6.4-4.4-.6-9-6-13.2-11.43-3-25.15-3.2-37.4-.7zm171.1 0c-10.1 6.6-17.7 26.1-19.8 31.7 1.2 9.3 7.2 13.5 15.3 13.7 11.5-12.3 10.9-31.2 4.5-45.4zm-4.5 45.4l-.1.1c.1 0 .1-.1.1-.1zM366 167.1c-2.9 5.1-5.6 12.1-6.3 19.6-1.2 11.3 1.7 21.7 7 26 8.7-1.1 14.5-3.2 16.3-12.2-1.1-6.4-4.1-13.1-7-18.6-2.9-5.5-6.6-10.8-10-14.8zm-21.5 3.4c-3.6.7-9.8 4-11.1 4.6-3.1 4.6-4.9 10.3-2.9 14.9 3.9-1 7.4-2 11-2.6.5-5.8 1.6-12 3-16.9zM126 175.1c4.6 6.5 9.8 11.6 15.3 15.5 9.7-1.5 20-1.9 28.2-1.7.3-4.3-.7-9-6.1-13.2-11.4-3-25.1-3.1-37.4-.6zm296.5 4.4c-5.4 4-7.2 8.2-7.2 13.4 9.2.3 19.2 1.5 27.3 3.6 6.5-3.8 12.9-9 17.1-14.5-10.6-5-27.8-4.9-37.2-2.5zm-134.9 9.2c-3.7 4-7.8 7.5-12.4 10.2 1.9 8.1 7.4 20.9 14.4 24.1-1-.4 3.7-.2 7.1-3 11.6-12.9 1.4-20.8-9.1-31.3zM69.2 200.1c3.1 5 8.1 10.7 14.3 14.9 9.5 6.3 19.9 8.7 26.3 6.1-1 .4 2.4-2.7 2.8-7.1.4-4.4-.7-9-6.1-13.2-11.37-3-25.07-3.2-37.3-.7zm173.9-.7c-.3 1.5-.6 2.9-1 4.4l1.1 137.1c6-.1 12-.2 18-.1l-1-127.9c-1-2.9-1.8-5.9-2.4-8.8-5.4.2-11.2-1.8-14.7-4.7zm99.7 6.2c-6.7.9-15.9 4.6-19.8 6.7-6.3 8.3-3.6 15.2 1.1 20.5 10-.5 20.1-6.3 25.3-12.3-3.2-4.4-5.3-9.6-6.6-14.9zm-197.9 3c3.1 5 8.1 10.7 14.3 14.9 9.4 6.3 20 8.7 26.3 6.1 3.2-8.3 4-14.5-3.2-20.3-11.4-3-25.2-3.2-37.4-.7zm249.8 16.1c0 4.4 3.1 7.8 2.1 7.3 6.1 3.1 16.8 1.7 26.8-3.9 6.5-3.6 12-8.8 15.5-13.5-14.4-3.2-43.6-9.5-44.4 10.1zm-264.8-5.1c-.6 3.5-1.7 6.8-3.5 9.7 20.3 36.9 37.7 77.7 51.6 117.6 5.8-1 11.9-1.8 18.2-2.6-11.8-34.7-26.4-70.1-43.3-103.5-8.8-5.6-17.9-13.4-23-21.2zm75.7 9.1c-.8 4-2.3 7.8-4.7 10.9 8.5 33.8 15 68.2 19.5 102.4 6-.5 12-.8 18.1-1-4.8-36.8-11.9-74-21.3-110.5-3.9.4-7.8-.4-11.6-1.8zM377 230c-4.2 1.2-8.4 1.7-12.5 1-19.9 35.2-38 74.2-51 113.8 6.3 1 12.4 2.1 18.2 3.4 12.4-37.4 29.5-74.6 48.5-108.2-1.7-3-2.7-6.4-3.2-10zm-72.5 6.6c-3.8 2.5-8 4.2-12.2 4.5-8.3 32.2-15.6 66-21.3 100 6.1.2 12.2.5 18.1 1 5.5-33 12.7-66.1 20.7-97.5-2.2-2.2-3.9-5-5.3-8zM169.9 366.9c-.4 11.7 4.7 24.4 16.5 36.2 48-9.1 97.8-10 145.1 3.2 12.5-10 17-21.1 17.8-34.6-56.8-15.2-121.5-16.3-179.4-4.8zm84.4 47.3c-9 0-18 .5-27 1.3 1.1 20.1 1.5 40 1.3 59.2-2.4-17.8-6.2-37.4-11.2-58.2-6 .7-12 1.5-18 2.5 5.6 22.5 9.7 43.6 12 62.1l17.2-2.1c-.1 2.8-.1 5.6-.2 8.4l18 .4c.2-7 .3-14.1.3-21.2l12.7-.2c-.1 7.8.1 15.5.4 23l18-.8c-1-23-.2-47.7 2-73.4-8.5-.7-17-1-25.5-1zm42.1 2.9c-3 21.6-3.9 42.9-2.1 63.3l18-1.6c-1.6-18.5-.8-38.2 2-58.4-5.9-1.3-11.9-2.4-17.9-3.3z"></path></svg>