<svg stroke="currentColor" fill="currentColor" stroke-width="0" viewBox="0 0 512 512" height="1em" width="1em" xmlns="http://www.w3.org/2000/svg"><path d="M267.785 16.48L203.56 67.027l75.544 159.854L359.057 34.18 267.785 16.48zm-126.988 1.965L95.7 27.595l157.327 213.89-112.23-223.04zm-96.57 9.842L17.865 65.135l207.877 180.478L44.227 28.287zm383.63 29.95L366.324 88.56l-56.822 144.817L453.72 98.367l-25.863-40.13zm54.235 44.972l-64.012 83.163 74.236-38.38-10.224-44.784zm-452.2 45.636l-11.35 58.642 195.21 58.627L112.5 184.158l-13.242 30.9-69.365-66.212zM493 188.518l-81.836 38.34 23.11 53.92-13.274 51.67 72 8.835V188.518zM19.863 234.83l.9 39.863 104.135-1.816L19.863 234.83zm25.45 63.164L28.81 342.65l171.92-41.332-155.416-3.324zm335.36 48.334l-42.708 46.11 33.232 35.515-97.865 2.7 12.658 62.208h207.008V360.114l-112.326-13.785zM133.85 356.783L19.697 410.266v82.595h107.51l45.453-87.233-38.81-48.844zm65.158 38.686l.015.007-50.744 97.384h118.64l-15.916-78.208-51.996-19.183z"></path></svg>