<svg stroke="currentColor" fill="currentColor" stroke-width="0" viewBox="0 0 512 512" height="1em" width="1em" xmlns="http://www.w3.org/2000/svg"><path d="M143.9 47.4h-3.4c-36 .82-71.95 24.26-79.66 61.4-19.82 125-51.537 210-30.57 326.6l1.78-19.2c1.16-12.6 4.36-31.4 11.03-49.7 6.22-17.1 15.42-34 30.19-44.4 7.51-27 7.25-47 4.48-68.1-2.87-21.9-8.64-45.1-10.85-76.2l17.96-1.2c2.09 29.5 7.69 51.8 10.74 75 3.05 23.3 3.26 47.6-5.85 78.5l-.99 3.4-3 1.8c-10.87 6.6-19.83 21.1-25.76 37.4-2.8 7.7-4.91 15.6-6.51 23.1L93.97 364l.35 18c.37 19.3 4.67 37.8 10.18 56.3 5.5-17.8 10.8-34.6 8.1-55.9l-2.6-20.2 16.7 11.7c12.2 8.6 18.9 14.2 25 21 .3-5.9 0-11.5-1.2-16.8-2.4-11.2-8.3-22.1-21.3-34.3l-2-1.9-.6-2.7c-6.1-26.6-12.8-49.2-14.5-72.5-1.7-23.3 2.2-47.2 16.7-74.1l15.8 8.6c-13.1 24.2-16 43.6-14.5 64.2 1.4 20 7.5 41.4 13.5 67.4 13.6 13.4 21.5 27.3 24.5 41.5 3.3 14.9 1.6 29.7-1.6 44.7l-4.3 20.2-11.9-16.9c-8.3-11.8-12-16.6-19.2-22.6-1.2 25.2-10.4 44.9-15.2 64.8 3.2.1 6.4.1 9.7.1 50.7-.3 109.5-8.6 143.8-25.5l3-1.4 3.2.8c61.4 15.7 139.2 12.5 213 10.5-8.1-16.7-20.4-23.1-38-28.1-21.2-6-49.2-8.1-78.6-19.5l-6.9-2.7 1.2-7.2c.5-2.8-.4-6.5-3.4-11-3.1-4.4-8.2-9.1-14.3-13-12.2-7.7-28.4-11.6-39-8.5l-14.7 4.1 3.4-14.8c4-17.2 2.4-27.4-3.4-34.9-5.8-7.6-17.9-13.8-38.1-18.2l-5.8-1.3-5.9-31.3c-16.8-5.6-48.3-3.2-81 10.1 6.7-35.5 46-47.9 73.8-48.7l-7.5-39.6.9-2.4c8.9-23.5 3-39.8-10.8-56.6l-1.7-1.9-.3-2.6C214.8 93.67 204 75.48 190 63.85c-13.1-10.92-29.4-16.18-46.1-16.45zM378 122.6c-46.4 10.1-87 22.5-125 41.3-.2 7-1.4 14.3-4 21.8l1.3 6.7c33.2-16.9 67.2-34.7 109.5-42.4l7.5-1.3 2.6 7.2c4.3 12.3 17.1 27.5 32.1 41.4 3.3 3.1 6.8 6.1 10.3 9-6.6-12.6-12.6-25.7-15.9-39.9l-2.2-9.6 9.8-1.3c22.3-3.1 38.2 3.4 49.2 13 2 1.7 3.8 3.6 5.5 5.4-2-8.2-4.6-14.2-9-19.2-8.7-10-28.3-19.2-71.7-32.1zm-219.5.6c6.9-.1 13.3.8 17.9 3.4 12.8 7.5 19.4 40.1 19.4 40.1-21.5-15.2-48.4-25.9-75.4-36.5 0 0 20.6-6.7 38.1-7zM77.61 399.7l-47.1 37c.83 4.5 1.72 9.1 2.71 13.7.19 0 1.75 1.8 5.96 3.6 4.73 2 11.81 4 20.44 5.7 9.61 1.8 21.18 3.1 33.89 3.9-6.76-20.4-13.25-41.4-15.9-63.9z"></path></svg>