<svg stroke="currentColor" fill="currentColor" stroke-width="0" viewBox="0 0 512 512" height="1em" width="1em" xmlns="http://www.w3.org/2000/svg"><path d="M253.713 25.463l-4.16 15.523C147.833 33.02 69.483 164.754 40.46 273.08l11.374 57.45C105.83 169.524 184.77 82.474 254.436 83.35l136.16 36.486 14.424-53.828-151.307-40.543zm164.695 62.78l-4.836 18.05 24.246 6.498c-1.23 1.64-2.35 3.376-3.353 5.175-5.413 9.698-8.35 22.035-8.35 35.55 0 13.513 2.937 25.85 8.35 35.548s14.18 17.628 25.46 17.628c11.278 0 20.043-7.93 25.456-17.627 5.414-9.7 8.352-22.035 8.352-35.55 0-13.512-2.938-25.848-8.35-35.546-4.145-7.425-10.26-13.8-17.956-16.387l.05-.19L418.41 88.24zm-162.88 14.017c-16.805 5.265-33.33 14.11-48.827 26.033l43.484 11.652c8.062-12.484 16.437-23.367 24.978-32.424l-19.635-5.26zm40.638 10.888c-8.584 7.96-17.527 18.798-26.414 32.04l66.496 17.818c-1.075-15.91-3.4-29.77-6.855-40.953l-33.227-8.905zm163.758 5.877c2.23 0 5.697 1.883 9.14 8.05 3.44 6.166 5.98 15.744 5.98 26.44 0 10.694-2.54 20.274-5.98 26.44-3.443 6.166-6.91 8.05-9.14 8.05-2.23 0-5.7-1.884-9.14-8.05-3.442-6.166-5.98-15.746-5.98-26.44 0-10.697 2.538-20.277 5.98-26.443 3.44-6.166 6.91-8.047 9.14-8.047zm-109.528 8.655c2.87 12.113 4.678 25.725 5.418 40.568l48.528 13.004c-7.46-18.074-17.346-33.997-29.266-46.96l-24.68-6.612zm-160.75 15.392c-18.056 17.506-34.11 39.42-46.763 64.79l66.03 17.695c9.335-25.593 19.883-48.854 31.226-68.955l-50.495-13.53zm69.762 18.694c-11.404 19.538-22.43 42.79-32.164 68.703l103.178 27.643c4.528-27.308 6.605-52.958 6.498-75.58l-77.512-20.767zm96.778 25.93c-.228 23.08-2.723 48.5-7.436 75.33l71.076 19.044c1.728-28.298-1.217-55.304-8.1-79.492l-55.54-14.88zm-221.15 37.413c-4.475 10.84-8.35 22.21-11.522 34.048-2.768 10.33-4.893 20.618-6.416 30.797l68.04 18.23c2.17-10.04 4.624-20.227 7.385-30.533 3.164-11.807 6.598-23.282 10.254-34.392l-67.74-18.15zm85.93 23.023c-3.733 11.077-7.225 22.543-10.39 34.355-2.762 10.308-5.183 20.513-7.29 30.56l106.593 28.56c3.198-9.752 6.204-19.8 8.966-30.108 3.165-11.813 5.877-23.488 8.183-34.947l-106.065-28.42zm124.247 33.293c-2.39 11.45-5.15 23.103-8.315 34.91-2.76 10.305-5.73 20.357-8.87 30.137l73.085 19.582c3.77-9.577 7.072-19.547 9.84-29.877 3.173-11.84 5.5-23.623 7.043-35.25l-72.783-19.502zm-230.256 27.3c-2 25.508-.197 50.033 4.86 72.49L173.51 395.6c.822-21.46 3.467-44.693 7.943-69.057l-66.498-17.818zm84.8 22.723c-4.306 24.693-6.634 48.122-7.153 69.267l82.693 22.158c10.122-18.572 19.82-40.026 28.437-63.564l-103.976-27.86zm122.28 32.763c-8.305 23.338-17.63 44.783-27.646 63.78l58.74 15.737c15.605-16.92 29.43-37.258 40.45-60.347l-71.543-19.17zM125.65 402.125c7.774 23.043 19.257 43.167 33.743 58.918l19.636 5.262c-3.55-15.012-5.47-32.33-5.76-51.42l-47.62-12.76zm66.998 17.953c.63 20.52 3.166 38.184 7.387 51.856l33.217 8.9c10.492-9.73 21.52-23.758 32.326-41.215l-72.93-19.542zm92.31 24.733c-9.796 16.388-20.118 30.428-30.698 41.653l24.68 6.613c20.423-6.398 40.43-18.082 58.683-34.152l-52.666-14.113z"></path></svg>