<svg stroke="currentColor" fill="currentColor" stroke-width="0" viewBox="0 0 512 512" height="1em" width="1em" xmlns="http://www.w3.org/2000/svg"><path d="M256 45c-35.333 0-70.707 3.979-98.607 11.676-26.393 7.28-45.193 18.363-52.12 29.449l31.352 297.842c.901.593 3.648 2.66 9.256 4.601 6.885 2.383 16.619 4.618 28.043 6.45 22.848 3.662 52.539 5.814 82.17 6.12 29.63.307 59.297-1.236 82.039-4.732 11.37-1.747 21.026-4.017 27.777-6.54 5.909-2.21 8.64-4.599 9.408-5.374l31.409-298.367C399.8 75.039 381 63.956 354.607 56.675 326.707 48.98 291.333 45 256 45zm-.01 59.137c37.028-.094 74.071 6.24 114.76 19.293l6.855 2.199-20.869 233.723c-4.116 6.372-11.53 9.046-17.246 10.585-6.246 1.69-13.85 2.969-22.557 4C299.52 376.001 277.78 377 256 377c-21.78 0-43.52-.999-60.934-3.063-8.707-1.031-16.31-2.31-22.556-4-9.482-3.465-12.11-3.738-17.246-10.585L135.035 132.8l-.644-7.235 6.931-2.158c40.627-12.657 77.64-19.178 114.668-19.271zM256 132c-28.005.057-54.002 20.112-68.746 53.033 5.885-.227 12.083-.352 18.184-.16 7.3.23 14.433.904 20.63 2.367 8.487 2.004 14.262 7.006 19.086 10.494C249.978 201.222 253.373 203 256 203c2.627 0 6.022-1.778 10.846-5.266s10.599-8.49 19.086-10.494c11.391-2.689 25.927-2.706 38.869-2.205C310.047 152.09 284.025 132.031 256 132zm163.918.762l-2.17 20.607c7.773 6.04 14.416 13.272 17.897 21.973 5.96 14.901 4.597 36.162-19.118 69.097 1.775.94 3.485 1.911 5.11 2.924 3.523 2.196 6.772 4.686 9.568 7.45 25.766-36.133 29.768-64.61 21.15-86.155-6.63-16.577-19.586-27.807-32.437-35.896zm-225.123 70.111c-3.457.032-6.9.13-10.17.28-5.127.234-9.238.567-13.102.876l14.625 53.547c4.92-4.038 10.766-6.576 17.352-6.576 9.26 0 17.052 5.018 22.863 12.176 2.636-5.164 5.46-9.81 8.405-13.783C240.464 241.703 246 235 256 235s15.537 6.703 21.232 14.393c2.944 3.974 5.77 8.62 8.405 13.783C291.447 256.018 299.24 251 308.5 251c8.432 0 15.648 4.163 21.26 10.31l11.445-57.232c-3.974-.324-8.418-.678-13.83-.926-13.078-.597-28.938-.368-37.307 1.608-3.12.736-7.383 3.733-12.675 7.56C272.1 216.147 265.299 221 256 221c-9.299 0-16.1-4.853-21.393-8.68-5.292-3.827-9.555-6.824-12.675-7.56-4.185-.988-10.241-1.54-16.887-1.77a236.535 236.535 0 0 0-10.25-.117zM256 253.592c-.988.786-3.837 2.56-6.768 6.515-4.175 5.638-8.738 14.157-12.427 24.065C238.89 291.468 240 299.517 240 308c0 14.648-3.288 28.016-9.246 38.416-.581 1.014-1.205 2-1.852 2.967 9.34 5.148 17.63 9.499 27.098 9.617 11.958-.485 18.348-4.945 27.088-9.633a50.455 50.455 0 0 1-1.842-2.951C275.288 336.016 272 322.648 272 308c0-8.483 1.11-16.532 3.195-23.828-3.689-9.908-8.252-18.427-12.427-24.065-2.93-3.956-5.78-5.729-6.768-6.515zm-150.568 5.984c-2.028 1.006-3.887 2.027-5.545 3.06C91.622 267.79 89 272.126 89 276v77.41c7.838-2.207 16.466-4.295 25.65-6.265zm301.136 0l-9.218 87.569c9.184 1.97 17.812 4.058 25.65 6.265V276c0-3.875-2.622-8.211-10.887-13.363-1.658-1.034-3.517-2.055-5.545-3.06zM203.5 269c-3.349 0-7.642 2.56-11.637 9.533C187.868 285.506 185 296.138 185 308c0 11.862 2.868 22.494 6.863 29.467 3.995 6.973 8.288 9.533 11.637 9.533s7.642-2.56 11.637-9.533C219.132 330.494 222 319.862 222 308c0-11.862-2.868-22.494-6.863-29.467-3.995-6.973-8.288-9.533-11.637-9.533zm105 0c-3.349 0-7.642 2.56-11.637 9.533C292.868 285.506 290 296.138 290 308c0 11.862 2.868 22.494 6.863 29.467 3.995 6.973 8.288 9.533 11.637 9.533s7.642-2.56 11.637-9.533C324.132 330.494 327 319.862 327 308c0-11.862-2.868-22.494-6.863-29.467-3.995-6.973-8.288-9.533-11.637-9.533zm-191.943 96.26c-21.468 4.788-39.163 10.107-48.532 14.79-5.316 2.66-10.276 8.685-14.285 17.817s-6.92 20.982-8.845 33.502c-3.292 21.397-3.67 43.333-3.749 59.631h79.827l14.297-57.184 17.46 4.368L139.527 491h232.946l-13.203-52.816 17.46-4.368L391.027 491h79.827c-.08-16.298-.457-38.234-3.749-59.63-1.926-12.521-4.836-24.37-8.845-33.503-4.01-9.132-8.969-15.158-14.285-17.816-9.369-4.684-27.064-10.004-48.532-14.791l-2.664 25.304c-4.272 8.564-13.55 13.506-20.564 16.163-8.624 3.224-19.219 5.606-31.348 7.47-24.258 3.729-54.592 5.254-84.96 4.94-30.37-.314-60.679-2.474-84.83-6.346-12.077-1.936-22.593-4.273-31.083-7.21-10.34-4.82-15.85-6.412-20.738-14.686z"></path></svg>