<svg stroke="currentColor" fill="currentColor" stroke-width="0" viewBox="0 0 512 512" height="1em" width="1em" xmlns="http://www.w3.org/2000/svg"><path d="M210.344 37.688C143.984 44.13 79.87 60.181 25.406 82.28c34.89 96.964 53.863 196.424 58.625 298.283 11.597-16.34 22.7-32.904 33.282-49.75-11.147-47.785-18.01-95.617-22.75-147.282-.032-.205-.03-.387-.062-.593-2.006-13.367.3-24.896 5.938-33.406 5.722-8.64 14.723-13.84 24.093-14.874 16.566-1.828 33.768 9.877 39 30.625 11.84-.146 24.04.525 36.72 2.25 10.272-25.918 19.5-52.398 27.625-79.468-4.062-17.09-9.867-33.89-17.53-50.374zm33.062 63.25C211.936 202.874 165.2 296.67 104.812 383.406c20.268-6.85 40.233-14.247 59.907-22.25 20.403-47.25 44.55-91.493 73.093-137.687.103-.197.24-.34.343-.532 6.43-11.87 15.17-19.72 24.78-23.125 9.77-3.462 20.08-2.185 28.19 2.625 14.333 8.503 21.04 28.18 12.75 47.906 9.522 6.987 18.858 14.834 27.937 23.812 20.263-13.157 40.12-27.132 59.593-41.937l7.094-5.407 2.28 2.718c7.482-16.733 13.267-34.34 17.22-52.905-56.9-34.774-117.79-60.575-174.594-75.688zm152 151.593c-98.643 73.604-207.298 126.464-325 161.376 2.707 25.087 9.24 40.237 30.03 54.406 70.145-52.36 138.253-87.52 218.283-120.125.19-.078.37-.17.56-.25v.032c12.2-5.808 23.878-7.014 33.658-4.095 9.93 2.964 17.533 10.085 21.25 18.75 6.57 15.317.383 35.172-17.938 46.22 6.7 21.078 11.115 44.2 11.75 70.56 46.653-10.584 88.176-30.81 123.906-62.842-25.487-61.64-59.505-118.334-96.5-164.032z"></path></svg>