<svg stroke="currentColor" fill="currentColor" stroke-width="0" viewBox="0 0 512 512" height="1em" width="1em" xmlns="http://www.w3.org/2000/svg"><path d="M309.502 104.55c-109.47-.142-219.337 2.602-297.22 12.323 5.24 1.868 10.542 3.734 15.54 5.607 7.285 2.73 14.018 5.47 19.633 8.549 5.615 3.08 10.706 6.093 13.184 12.6 1.34 3.519 2.197 8.42 1.24 14.834 21.817-10.755 48.718-17.695 78.264-22.641 42.214-7.067 89.968-9.817 136.015-11.832l.7 15.984c-45.89 2.008-93.138 4.776-134.075 11.63-36.907 6.178-68.554 15.89-89.26 30.278 6.164 1.115 12.602 2.704 18.649 4.987 7.156 2.702 13.914 6.28 18.703 12.275.7.877 1.325 1.826 1.887 2.822 35.472-20.786 73.93-38.089 104.636-39.255a85.642 85.642 0 0 1 3.456-.063c1.14.003 2.268.029 3.384.08l-.732 15.983c-22.005-1.008-57.709 12.635-91.908 31.14 6.384.898 11.594 2.975 15.765 5.828 6.665 4.56 10.287 9.381 13.123 12.926 111.416-48.998 242.264-86.962 359.233-121.433-52.784-1.146-108.633-2.277-168.338-2.555-7.285-.034-14.581-.057-21.879-.067zm37.168 65.541a3579.804 3579.804 0 0 0-15.443 4.938c1.405 2.49 3.068 6.648 4.636 11.861 3.151 10.472 6.074 25.21 8.756 41.407 3.752 22.655 7.068 48.08 10.51 70.056l15.543-4.281c-3.275-21.198-6.56-45.998-10.268-68.389-2.73-16.485-5.673-31.617-9.218-43.402-1.375-4.567-2.82-8.622-4.516-12.19zm-88.678 29.602a2118.277 2118.277 0 0 0-16.207 5.8c-.284 8.254-.597 17.608-.916 27.577-.612 19.148-.838 35.63-1.01 41.307l15.73-3.59c1.77 16.026 9.72 34.995 19.776 48.37l13.43-3.921c7.915 9.17 15.773 20.882 30.004 26.443 24.52-1.285 44.975-11.4 66.838-18l-8.975-14.853c-18.92 5.373-33.43 10.087-55.03 10.103-5.979-12.37-12.47-26.794-20.534-38.285a26.66 34.884 38.724 0 0 23.746-14.787 26.66 34.884 38.724 0 0 1.023-43.894 26.66 34.884 38.724 0 0-42.62 10.539 26.66 34.884 38.724 0 0-8.442 32.035l-19.1 6.207c.204-6.703.56-18.514 1.156-37.164.373-11.672.758-23.388 1.07-32.26.024-.668.039-.992.061-1.627zm-18.129 74.703c-.01.327-16.247 6.008-31.246 11.194 9.075 3.258 15.571 9.066 19.508 15.869 5.771 9.973 7.394 20.985 9.148 28.824l21.834-6.377c-10.26-15.359-18.074-40.863-19.244-49.51zm-47.236 24.28c-1.89.027-3.955.15-6.217.376-51.093 5.117-83.628 32.6-111.281 68.819-5.717 7.488-10.686 19.262-11.815 27.984-.564 4.361-.08 7.833.606 9.356.685 1.522.531 1.607 2.719 1.851l.888.1.844.293c-.971-.337 5.64-.052 13.66-2.526 8.02-2.473 18.276-6.683 29.168-12.166 21.785-10.965 46.228-27.147 62.248-44.277l1.832-1.957 2.64-.461c14.456-2.515 23.545-4.16 30.169-6.281 5.056-1.62 9.005-3.815 13.4-6.86-2.085-8.623-3.7-17.39-7.21-23.455-3.758-6.492-8.42-10.988-21.651-10.797z"></path></svg>