<svg stroke="currentColor" fill="currentColor" stroke-width="0" viewBox="0 0 512 512" height="1em" width="1em" xmlns="http://www.w3.org/2000/svg"><path d="M185 58.59c-15-.38-30 13.1-33.1 33.43-3.3 21.68 8.8 39.98 24.8 42.38 16 2.4 32.9-11.5 36.1-33.2 3.3-21.72-8.7-39.94-24.8-42.35-1-.15-2-.24-3-.26zm113.3 77.21l-17.2 5.2 8.3 28.1 18.9.5zm-144.6 7.6c-2.7 70.5-.4 140.9-3.6 202.5-15.8 35.8-36.7 70.2-50.38 99.2l25.68 12.4c20.8-33.7 42.2-68 55.2-102.9l11.3-63.4 53 45.9 16.2 88.1 29.3-5.8-17.6-100.6-58.1-53.6-9.3-86.4 48.1 31.3c26.7.9 45.1-1.9 69.6-5.7l1-16.3-70.8-2.1-46.5-42c-9.5 6.7-20.9 10-32.8 8.2-7.7-1.2-14.5-4.3-20.3-8.8zm-16.6 13l-40.47 11.7-5.96 85.5c13.53 6.7 31.03 11.6 43.23 3.4zm352.7 65.3l-95.7 78.1-32 51.9L324 222.5c-6.3.9-12.2 1.8-18 2.6l43.5 147.1-22.6 36.7-19.4 3.4 3.7 21.3-64.5 12.8-4.2-22.7-84.3 14.8c-9.5 15.6-17.1 27.9-26 42.2l-49.52-23.9-62.64 34.8H489.8z"></path></svg>