<svg stroke="currentColor" fill="currentColor" stroke-width="0" viewBox="0 0 512 512" height="1em" width="1em" xmlns="http://www.w3.org/2000/svg"><path d="M54.125 102.188c-15.624 74.885 20.42 123.6 64.125 150.562-33.063-7.81-65.052-19.482-98.25-36.844 25.5 77.488 81.164 95.816 129.906 90.75-26.933 14.252-55.392 25.3-83.937 32.78 70.04 43.512 120.987 16.005 149-22.28-30.186-17.833-52.692-53.794-63.032-98.344-38-34.814-71.414-75.012-97.813-116.625zm402.938 0c-26.397 41.608-59.816 81.786-97.813 116.593-10.338 44.564-32.84 80.54-63.03 98.376 28.01 38.285 78.957 65.792 149 22.28-28.542-7.48-56.978-18.53-83.908-32.78 48.736 5.055 104.38-13.28 129.875-90.75-33.197 17.362-65.187 29.035-98.25 36.844 43.705-26.963 79.75-75.677 64.125-150.563zm-201.47 26.187c-23.56 0-44.93 3.576-61.218 9.844-8.145 3.133-15.045 6.906-20.438 11.81-5.392 4.907-9.5 11.53-9.5 19.157 0 .89.05 1.765.157 2.625 2.62 64.952 32.08 117.553 67.28 133.188l6.94 3.094-1.595 7.406c-8.645 40.282-20.575 63.61-40.94 77.03-11.193 7.378-14.184 13.215-14.374 15.126-.19 1.91.765 4.2 6.844 7.906 12.158 7.41 39.925 13.157 66.844 13.157 26.872 0 53.258-5.944 64.687-13.408 5.716-3.73 6.812-6.22 6.626-8.53-.186-2.312-2.937-7.934-13.094-15.22-19.326-13.862-31.327-36.107-39.843-76.062l-1.595-7.406 6.938-3.094c35.2-15.635 64.662-68.236 67.28-133.188h-.03c.106-.86.156-1.735.156-2.625 0-7.626-4.077-14.25-9.47-19.156-5.393-4.905-12.324-8.677-20.47-11.81-16.288-6.27-37.627-9.845-61.186-9.845zm0 18.688c21.617 0 41.154 3.47 54.47 8.593 6.657 2.562 11.708 5.563 14.593 8.188 2.886 2.625 3.375 4.28 3.375 5.344 0 1.063-.488 2.718-3.374 5.343-2.885 2.626-7.936 5.627-14.594 8.19-13.315 5.122-32.852 8.593-54.468 8.593-21.616 0-41.184-3.47-54.5-8.594-6.658-2.563-11.708-5.564-14.594-8.19-2.886-2.624-3.375-4.28-3.375-5.343 0-1.063.49-2.718 3.375-5.343 2.886-2.625 7.936-5.626 14.594-8.188 13.316-5.123 32.884-8.594 54.5-8.594z"></path></svg>