<svg stroke="currentColor" fill="currentColor" stroke-width="0" viewBox="0 0 512 512" height="1em" width="1em" xmlns="http://www.w3.org/2000/svg"><path d="M207.375 13.78v.064c83.385 68.488-50.732 105.97-37.22 175.22-20.55-13.762-28.066-46.66-8.78-74.97-51.085 21.935-73.42 51.99-72.156 97.562.945 34.13 14.638 61.58 35.843 82.188-9.787-27.448-12.016-55.74-5.188-79.813 35.742 49.332 137.785-19.994 147.094-79.28-.044 63.674 63.996 118.35 112.717 52.375 8.932 36.97 6.638 75.307-3.218 105.688 19.407-20.337 31.706-47.33 32.374-81.157.93-47.127-21.048-90.8-62.72-112.75 18.15 38.878-.498 65.598-43.655 83.75 40.28-67.494 16.386-154.454-95.095-168.875zm42.938 226.314c-5.97-.086-12.564 2.295-20.657 8.375-38.238 28.725-88.54 77.01-99.156 108.718-18.667-4.37-43.156 2.323-43.156 20.53 0 2.01.32 3.89.875 5.626-9.91-.4-20.22 3.9-20.22 13.03 0 16.998 35.74 17.686 38.063 1.657 10.356 2.978 22.947 2.34 32.218-2.03-.75 1.842-1.155 3.867-1.155 6.094 0 22.752 42.915 25.947 54.25 9.094 9.533 6.947 29.795 4.92 32.844-6.25 15.97 1.403 32.385 1.755 48.436.968 8.543 5.77 24.793 4.8 30.625-3 12.788-1.938 25.004-4.72 36.158-8.406 1.9 16.216 38.093 15.92 38.093-1.344 0-.75-.047-1.47-.186-2.156 11.238 3.032 26.594-1 26.594-12.25 0-11.025-15.614-15.103-26.875-12.03.36-28.628-58.605-80.767-105.063-116.595-7.39-5.698-14.014-9.92-21.688-10.03zM440 352.5c-9.547-.042-19.094 4.28-19.094 13.063 0 17.567 38.188 17.727 38.188 0 0-8.617-9.547-13.02-19.094-13.063zm-403.344 10c-9.547-.042-19.093 4.28-19.093 13.063 0 17.567 38.187 17.727 38.187 0 0-8.616-9.547-13.02-19.094-13.063zm430.563 20.406c-9.548-.042-19.095 4.28-19.095 13.063 0 17.566 38.188 17.725 38.188 0 0-8.618-9.547-13.022-19.094-13.064zm-49.69 25.438c-10.747-.047-21.5 4.8-21.5 14.687 0 19.776 43 19.955 43 0 0-9.7-10.75-14.64-21.5-14.686zm-79.967 2.97c-9.548-.02-19.094 4.385-19.094 13.248 0 12.037 18.638 15.825 29.874 11.032 9.403 8.896 34.72 6.462 34.72-7.844-.002-12.274-18.61-16.01-29.845-11.125-3.628-3.506-9.637-5.3-15.658-5.313zm-87.22 1.623c-9.546-.04-19.093 4.248-19.093 13.032 0 17.566 38.188 17.725 38.188 0 0-8.618-9.547-12.99-19.094-13.033zm-129.124 14.72c-11.25-.024-22.5 5.12-22.5 15.562 0 12.422 16.83 17.38 29.905 14.624 8.686 9.834 35.5 7.69 35.5-7.03 0-9.57-11.34-13.963-21.656-13.127-3.226-6.658-12.237-10.012-21.25-10.03zM294.75 439c-8.405-.037-16.8 2.873-20.25 8.78-14.795-4.1-35.25 1.04-35.25 15.783 0 21.294 42.68 23.124 49.313 5 12.56 2.32 28.093-2.493 28.093-14.594 0-9.88-10.958-14.922-21.906-14.97zm-97 22.656c-10.748-.047-21.47 4.8-21.47 14.688 0 19.776 42.97 19.955 42.97 0 0-9.7-10.752-14.64-21.5-14.688zm228.125 1.406c-9.547-.04-19.094 4.28-19.094 13.063 0 17.567 38.19 17.726 38.19 0 0-8.616-9.548-13.02-19.095-13.063z"></path></svg>