<svg stroke="currentColor" fill="currentColor" stroke-width="0" viewBox="0 0 512 512" height="1em" width="1em" xmlns="http://www.w3.org/2000/svg"><path d="M250.3 20.23c-19.9.38-40.1 3.09-59.8 7.83C138 40.72 88.74 67.93 57.29 106.5c-19.57 24.1-24.14 54.9-22.49 85.7 1.08 20.1 4.77 40.4 9.01 59.6-4.04 33.4-.47 66.9 13.68 95.7 22.33 45.5 85.61 73 142.71 91.5 24.7 8 48.5 14.1 67.5 18.4-.1-1.5-.2-3-.2-4.6 0-4.7.6-9.2 1.6-13.5-18.1-4.2-40.3-9.9-63.3-17.4-55.6-18-114.82-47.1-132.15-82.4-3.69-7.5-6.57-15.5-8.7-23.9 10.53 17.5 24.86 31.5 41.75 42.2 26.5 16.8 59.1 25.9 94.1 30.2 59.7 7.4 126.7.7 182.2-8.1-1-4.2-1.5-8.6-1.5-13.1 0-1.7.1-3.3.2-4.9-55 8.7-121.2 15.3-178.7 8.2-33.2-4.1-63.3-12.7-86.6-27.5-23.39-14.8-40.22-35.4-48.11-65.2-2.06-8.5-4.19-17.4-6.21-26.5 1.08-8 2.63-16.1 4.64-24.1 9.93-39.5 30.79-77.4 56.88-103.2 12.7-12.5 28.9-22.9 46.8-30.7-3.4 17.2-6.2 35.5-7.2 53.9-2.5 43.6 4.6 88.1 37.7 112.5 31.7 23.5 78.1 26 120.6 15.1 42.5-10.8 82-35.2 98.8-70.9 13.7-29 7.4-63.8-8.1-94.1-15.5-30.42-40.4-57.08-68.2-70.44-26.3-12.72-56.5-18.61-87.5-18.77h-6.2zm6.1 18.02c28.7.18 56.3 5.6 79.8 16.92 22.9 11.05 46.1 35.26 59.9 62.33 13.9 27.2 18.3 56.5 8 78.4-13.4 28.4-48.4 51.2-87.1 61.1-38.7 9.9-80.2 6.5-105.5-12.1-25.5-18.8-32.6-56.1-30.3-97.1 1.2-21.1 4.8-42.7 9.3-62.28 9.3-2.86 19-5.05 28.6-6.47-1.9 8.81-3.8 18.28-5.3 28.05-3.2 20.7-5 42.7-2.8 62.7s8.3 38.5 22.7 50.3c20.4 16.6 50.9 19.5 78.9 13.8 28-5.8 54.7-20.5 64.9-45 9.9-23.7.7-49.6-14.7-71-15.4-21.25-37.6-39.01-59.1-48-18.9-7.86-39.8-11.41-61.1-11.3 3-10.75 5-17.11 6-20.23 2.6-.11 5.5-.12 7.8-.12zm-27 1.43c-1.6 5.19-3.5 11.94-5.6 20.03-9.5 1-18.9 2.7-28.2 5.04 2-7.38 4-14.29 5.9-20.56 9.3-1.98 18.6-3.5 27.9-4.51zm-48.2 9.67c-2 6.75-3.9 14.01-5.8 21.66-24.5 8.97-46.9 22.55-64.4 39.79-25.18 24.8-45.13 58.6-56.96 95.1-.56-4.9-1-9.8-1.26-14.6-1.53-28.5 2.8-54.2 18.47-73.4C96.83 86.49 137.2 62.42 181.2 49.35zm63.9 27.69c18.3 0 36 2.99 51.6 9.47 17.7 7.35 38.2 23.59 51.5 41.99 13.4 18.4 19.1 37.9 12.7 53.4-6.8 16.3-27.8 29.4-51.9 34.3-24.1 5-50 1.3-63.9-10.1-9-7.3-14.3-20.8-16.2-38.3-1.9-17.4-.4-38.2 2.7-57.9 1.8-11.68 4.1-22.53 6.4-32.62 2.4-.18 4.9-.24 7.1-.24zM448.2 329c12.9 23.3 16.5 47 12.6 69.8 10.1-7 16.7-18.7 16.7-32 0-18.3-12.4-33.5-29.3-37.8zm-20.9.4c-16.1 4.8-27.8 19.7-27.8 37.4 0 21.6 17.4 39 39 39 .8 0 1.6 0 2.3-.1 7.4-25.1 4.6-49.6-13.5-76.3zm-108.5 84.8c-18.9 2.8-33.3 18.9-33.3 38.6 0 13.4 6.7 25.2 17 32.2 13.2-23.5 22.9-45.4 16.3-70.8zm18.8 1.9c5.1 28.1-5.6 52.9-18.1 75.4 1.7.2 3.3.3 5 .3 21.6 0 39-17.4 39-39 0-17-10.8-31.4-25.9-36.7z"></path></svg>