<svg stroke="currentColor" fill="currentColor" stroke-width="0" viewBox="0 0 512 512" height="1em" width="1em" xmlns="http://www.w3.org/2000/svg"><path d="M262.82 18.514c-1.538-.042-3.118.125-4.656.125-32.843 0-59.586 33.905-59.586 75.917 0 21.273 7.083 40.47 18.096 54.287-7.947 1.232-15.16 3.625-21.688 7.004l-.066-.465c-21.085 10.394-34.678 31.075-42.815 58.777-4.388 14.94-6.894 31.782-7.736 49.553-.034.657-.06 1.32-.087 1.978-.037.938-.092 1.866-.12 2.808l.013-.016c-.013.397-.022.795-.033 1.192l-.014-.004c-.01.333-.01.67-.017 1.004-.565 22.66 1.55 46.508 5.914 69.724h23.56L172.57 237.02l1.785-1.98 16.883-.165 1.248 126.938 8.74 132.626h46.895V318.847h18.69v175.59h44.32l11.475-154.04h.055l1.035-105.523 15.606.154 3.05 3.376-1 101.992h24.51c16.256-78.303.03-158.175-47.17-183.627l-.13-.073v.002c-6.087-3.265-12.68-5.636-19.79-6.973 11.508-13.88 18.98-33.36 18.98-55.17 0-39.388-23.415-72.02-53.406-75.918h-.002c-.5-.076-1.01-.112-1.522-.126zm-138.877.062l21.733 94.787 26.586 34.713c5.16-4.086 10.777-7.594 16.855-10.437-5.548-13.12-8.664-27.926-8.664-43.45 0-1.243.037-2.476.076-3.71l-56.587-71.904zm265.782 0l-53.29 67.72c.18 2.61.29 5.237.29 7.893 0 16.542-3.534 32.27-9.786 46.005 4.808 2.61 9.335 5.635 13.568 9.05l27.484-35.886 21.733-94.784zM64.037 81.902l46.19 76.31 37.8 18.202c3.21-5.437 6.79-10.53 10.748-15.215l-32.15-41.975-62.588-37.323zm385.594 0l-62.59 37.325-33.08 43.19c3.828 4.506 7.336 9.376 10.52 14.556l38.96-18.762 46.19-76.308zm-420.86 78.46l53.515 42.034 51.88 6.526.01-.027c1.59-5.413 3.44-10.67 5.54-15.74L93.58 170.936 28.77 160.36zm456.128 0l-64.814 10.577-46.938 22.603c2.152 4.86 4.08 9.896 5.776 15.074.04.12.076.243.115.363l52.346-6.584 53.515-42.035zM80.305 220.98l-59.866 11.48 76.238 27.143 28.87 4.44c.554-12.688 1.93-25.047 4.212-36.84l-49.455-6.223zm353.058 0l-49.36 6.21c2.63 11.738 4.363 24.043 5.257 36.677l27.734-4.266 76.236-27.143-59.867-11.478zm-339.418 57.11l-74.814 52.72 87.286-.964 20.588-18.703c-.95-9.458-1.526-18.897-1.693-28.23l-31.365-4.823zm325.778 0l-29.746 4.574c.063 10.024-.368 20.174-1.262 30.342l18.537 16.84 87.285.964-74.814-52.72zm-334.01 78.01l-51.61 58.302 75.004-20.424 22.9-37.56-46.294-.318zm341.746 0l-46.294.318 22.898 37.56 75.004 20.424-51.61-58.302zM159.49 400.455L121.346 419.7l-11.664 69.577 50.79-48.36-.98-40.462zm194.186 0l-.977 40.46 50.788 48.362-11.664-69.578-38.146-19.245z"></path></svg>