<svg stroke="currentColor" fill="currentColor" stroke-width="0" viewBox="0 0 512 512" height="1em" width="1em" xmlns="http://www.w3.org/2000/svg"><path d="M256.406 17.656c-132.32 0-239.78 107.462-239.78 239.78 0 132.32 107.46 239.783 239.78 239.783 39.422 0 76.644-9.546 109.47-26.44 34.317-14.445 59.8-37.046 78.062-64 .03-.042.064-.08.093-.124 32.635-40.965 52.158-92.835 52.158-149.22 0-132.318-107.462-239.78-239.782-239.78zm0 17.875c79.25 0 148.696 41.435 187.938 103.845l-48.97 39.5-12.093-38.688-1.342-4.343-4.282-1.625-56.062-21.032-9.72-3.626-2.624 10.032-18.875 72.75-46.938-79.813-6-10.186-8.53 8.187-53.313 51.25-27.438-24.593-4.22-3.78-5.28 2-56.062 21-3.938 1.468-1.5 3.906-42.25 108.782c-.252-4.34-.406-8.72-.406-13.125 0-122.653 99.253-221.906 221.906-221.906zm-21.094 100.095l46.063 78.313-79.47 142.03 33.407-220.343zm130.97 14.28l.53.19 15.72 50.31 38.562 155.376-16.938 60.75-36.78-24.53 15.155-61.906-13.467-9.344L383.03 253l-18.31-3.78-12.345 60L337 298.56l29.28-148.656zm-224.594 6.564l27.875 25 3.03 2.718-13.718 44.28-30.97 9.345 16.94 36.812-12.25 39.125-25.72-57.25 34.813-100.03zm323.718 26.25c8.33 23.34 12.875 48.494 12.875 74.718 0 24.476-3.98 48.023-11.28 70.03l-24.875-75.624L454.375 232l-2.344-25.125 13.376-24.156zM56.812 354.593l136.813 12.156-20 42.594 121.97 36.844 54.342-39.125 42.688 25.593c-37.584 29.247-84.843 46.656-136.22 46.656-2.23 0-4.44-.028-6.655-.093l30.03-21.626-113.624 2.625c-47.723-21.237-86.527-58.794-109.344-105.626z"></path></svg>