<svg stroke="currentColor" fill="currentColor" stroke-width="0" viewBox="0 0 512 512" height="1em" width="1em" xmlns="http://www.w3.org/2000/svg"><path d="M199 145.352c-33.778 2.616-65.61 19.78-92.652 45.648H199v-45.648zm18 0V191h92.652c-27.043-25.867-58.874-43.032-92.652-45.648zM89.45 209c-3.435 4.065-6.77 8.27-9.99 12.604C71.65 232.106 64.55 243.328 58.243 255h61.272c1.59-16.988 6.785-32.926 17.127-46H89.45zm73.26 0c-16.243 11.155-23.242 26.376-25.17 46h141.05c-2.07-23.905-11.88-35.922-25.516-46H162.71zm116.206 0c9.25 11.384 16.004 26.23 17.676 46h18.164c3.207-.653 6.575-1 10.086-1h32.363c-6.17-11.312-13.08-22.195-20.664-32.396-3.22-4.334-6.555-8.54-9.99-12.604h-47.634zm45.926 63c-9.818 0-15.875 3.1-21.098 8.705-5.222 5.606-9.274 14.27-12.015 24.76-1.12 4.285-2.01 8.835-2.73 13.535h56.86c.863-5.833 1.973-11.595 3.44-17.145 2.923-11.07 7.23-21.466 14.122-29.855h-38.58zM400 272c-9.82 0-15.926 4.105-21.186 9.715-5.26 5.61-9.346 14.262-12.113 24.738-1.05 3.976-1.903 8.19-2.602 12.547H414.7c.86-5.818 1.972-11.598 3.433-17.203 2.87-11.01 7.197-21.308 13.867-29.797h-32zm-350.69 1c-6.818 15.013-12.323 30.516-16.34 46H52.92c-1.98-15.856 1.467-31.648 7.224-46H49.31zm30.477 0c-7.02 14.97-11.066 31.184-8.65 46H199v-46H79.787zM217 273v46h53.766c.874-6.153 2.02-12.236 3.548-18.086 2.672-10.223 6.512-19.877 12.48-27.914H217zm247 0c-9.497 0-14.68 2.513-18.77 6.922C459.365 286.245 466.4 329.21 467.66 367h19.2c-.075-18.384-.448-40.858-3.73-59.893-1.898-10.998-4.83-20.522-8.35-26.382-3.517-5.86-6.23-7.725-10.782-7.725zM28.975 337c-1.868 10.144-3.07 20.194-3.528 30H119v-30H28.975zM137 337v30h130.922c.1-9.242.28-19.5 1-30H137zm150.06 0c-.704 9.832-.954 19.77-1.083 29h57.043c.042-9.034.21-18.912.92-29h-56.88zm75 0c-.732 9.824-.955 19.765-1.025 29h50.848c.034-8.864.192-18.78.908-29h-50.73z"></path></svg>