<svg stroke="currentColor" fill="currentColor" stroke-width="0" viewBox="0 0 512 512" height="1em" width="1em" xmlns="http://www.w3.org/2000/svg"><path d="M192 22.406c-1.116.01-2.227.032-3.344.063C110.036 24.667 31.22 78.444 22.78 166.72c36.28-57.542 111.226-39.602 97.532 32.374 34.528-48.998 108-6.56 91.126 36.875-6.546 6.625-11.585 14.91-14.375 24.436-1.938-.243-3.866-.38-5.75-.406-.56-.007-1.103-.012-1.657 0-8.31.174-16.004 2.5-22.47 6.78-9.193 6.09-15.415 16.174-16.78 27.814-.663 5.657-.217 11.64 1.344 17.78l-44 42.126 82.72-11.22-16.345-24.78c-.004-.008.004-.023 0-.03-4.59-8.555-5.833-15.946-5.156-21.72.773-6.605 3.817-11.285 8.53-14.406 4.195-2.78 10.137-4.337 17.25-3.5.706 19.904 11.67 38.224 29 48.22-1.963 8.995-5.146 15.323-9.03 20.123-5.837 7.212-13.817 11.578-24.032 15.125-20.43 7.096-49.176 9.42-73.094 28.938-16.534 13.492-23.706 30.644-22.75 46.625.955 15.98 9.375 30.28 21.312 40.156 11.938 9.877 27.78 15.568 44.188 13.376 12.81-1.71 25.544-8.47 36.187-20.625 8.264 5.754 16 13.057 23.25 21.845 5.466-33.608 4.89-68.43-4.624-105.063-15.498 26.303-36.19 49.6-66.344 67.5 10.966.254 21.27 2.46 30.97 6.5-7.102 7.112-14.607 10.37-21.907 11.344-10.573 1.413-21.425-2.31-29.813-9.25-8.387-6.94-13.963-16.862-14.562-26.875-.6-10.01 3.11-20.618 15.906-31.06 18.563-15.15 43.676-17.5 67.438-25.75 11.88-4.128 23.607-10.13 32.406-21 5.415-6.693 9.51-15.02 12.094-25.25 11.967 2.42 23.922.925 34.47-3.626 8.432 12.26 16.06 23.816 17.123 31.312.633 4.466.138 7.127-3.625 11.125-2.183 2.322-5.808 4.95-11.187 7.595l-.03-.22-43.94 14.47 54.876 54.22-7.842-49.283c9.445-3.92 16.556-8.45 21.75-13.968 7.212-7.663 9.788-17.69 8.53-26.563-2.07-14.607-11.246-27.07-19.78-38.81 5.926-5.317 10.807-11.9 14.187-19.47 30.866-38.44 82.993-1.49 63.25 55.438 50.463-53.127 91.272-7.716 78.844 43.218C506.964 296.638 515.542 149.092 417 86.72c5.394 96.634-39.326 133.366-86.813 130.56 8.533-4.576 15.234-12.534 17.938-22.624 1.302-4.857 1.563-9.752.906-14.437 6.56-6.188 11.527-14.246 14.033-23.595 4.568-17.04-.135-33.9-11.282-45.97 1.728 6.93 1.88 14.3-.217 22.126-2.748 10.25-8.54 18.718-15.75 24.157-3.824-3.078-8.328-5.43-13.375-6.78-9.164-2.455-18.458-1.168-26.25 2.905-7.454-9.137-10.465-23.08-6.75-36.937 2.004-7.478 5.384-13.74 10.03-18.78-15.03 5.186-27.51 17.173-31.937 33.686-4.38 16.344.032 33.082 10.283 45.157-2.08 8.068-1.267 16.22 1.78 23.344-7.003-4.675-13.64-10.19-19.687-16.468-37.63-39.066-31.36-98.562 29.188-129.656-28.218-21.218-62.49-31.3-97.094-31z"></path></svg>