<svg stroke="currentColor" fill="currentColor" stroke-width="0" viewBox="0 0 512 512" height="1em" width="1em" xmlns="http://www.w3.org/2000/svg"><path d="M260.7 31.1c5.2.51 9.9 2.45 14.5 4.9l9.1-16.3c-6.4-3.81-13.9-6.07-20.7-7.3-.9 6.24-1.9 12.47-2.9 18.7zm-9.1-18.4c-7.6.51-14.1 2.52-21.1 6l8.3 16.7c5.1-1.88 9.6-3.72 14.6-4l-1.8-18.7zm-38.5 18.7c-5 5.17-9.8 11.69-12.7 17l16.3 9.1c3.1-4.71 5.9-9.09 9.6-12.8-4.3-4.46-9-8.78-13.2-13.3zm88.1 1.9l-14 12.4c3.8 3.98 6.6 8.63 9.3 13.4l16.7-8.5c-3.5-6.29-7.8-12.54-12-17.3zM192.4 67.4c-2.1 6.71-3.3 14.19-3.8 20.2l18.6 1.8c.6-6.22 1.4-10.74 3-16.5zm128.2 2.2c-6 1.86-12 3.42-18.1 4.9 1.1 5.58 2.2 11.79 2.7 16.6l18.7-1c-.8-7.04-1.8-14.28-3.3-20.5zm-113.2 36.6l-18.5 1.9c.4 7 2.6 14.3 4.3 20.1l17.8-5.7c-1.7-5.8-2.9-11-3.6-16.3zm97.2 1.7c-.8 5.7-2.4 11.2-4 16.2l17.5 6.6c2.3-6.7 4.1-14 5-20zm-86.7 29.4s-11.5 5.4-16.1 6.7c0 0 4.8 9.6 6.9 17.1 7.6-2.2 15.5-3.2 23.3-4.5-4.7-6.9-10.5-13.4-14.1-19.3zm75.3 1.7c-4.2 6.3-9.2 12-13.9 17.9 7.8 2.1 16 2.7 23.6 5.5 0 0 4.4-12.9 6.1-17.7-5.7-1.9-15.8-5.7-15.8-5.7zm-108.9 12.7c-6.6 4.4-11.1 8.1-16.1 13.4l13.5 12.9c4.6-4.5 7.8-7.5 12.6-10.5zm143.6 2.8l-10.8 15.2c4.6 3.1 8.7 6.9 12.3 11.1l13.9-12.5c-5.4-5.6-9.4-9.8-15.4-13.8zm-172.1 27.4c-3.5 5.7-6.3 11.8-8.7 18l17.4 6.9c2-5.4 4.5-10.7 7.5-15.6zm199.5 3.2l-16.2 9.2c2.8 5.1 5.4 10.4 7.6 15.8L364 203c-2.4-6.2-5.5-12.1-8.7-17.9zm-214.2 33.8c-1.6 6.2-3 12.7-3.8 19.2l18.4 2.8c.8-5.9 2.2-11.7 3.5-17.5zm229.1 3l-18.1 4.8c1.8 5.7 2.6 11.5 3.8 17.4l18.4-3.1c-1.1-6.4-2.3-12.8-4.1-19.1zm-235.1 35.5c-.5 6.8-.6 12.6-.6 19.3h18.7c.1-6.3.2-12.9.6-18zm241.6 2.9l-18.7 1.5c.5 5.8.8 12 .8 18l18.7-.1c-.1-7-.4-13.2-.8-19.4zm-223 34.6l-18.7 1c.4 6.4 1 12.7 1.7 19.1l18.6-2c-.8-6-1.2-12.1-1.6-18.1zm204.5 2.9c-.2 6-1 12-1.7 18l18.5 2.4c1-6.3 1.4-12.7 1.9-19.1zM139 329.6c.5 6.3 2 12.9 2.9 18.3h20.3v-18.7c-7.7-.2-15.4.1-23.2.4zm41.9-.4c-.1 6.4 0 12.3 0 18.7l19.2-.5c-.5-6.1-.9-12.1-1.2-18.2zm130 0c-.5 6.3-1 12.7-1.5 19l18.7 1.4-.2-20.4zm35.7 0v18.7h23.2c1.3-6.4 2.3-11.6 3.4-18-8.8-.9-17.7-.7-26.6-.7zm-145.3 36.9l-18.6 1.2 1.2 18.7 18.6-1.3zm106.7.7l-1.3 18.6 18.6 1.4 1.4-18.6zm-60.2 11.9v18.7h18.6v-18.7zm-44 24.7l-18.7 1.2 1.3 18.7L205 422zm101.5.7l-1.4 18.6 18.6 1.4 1.4-18.6zm-57.5 12v18.7h18.6v-18.7zm-41.6 24.6l-18.6 1.2 1.2 18.7 18.7-1.3zm96.3.6l-1.4 18.7 18.6 1.4 1.4-18.7zm-54.7 12.2v18.7h18.6v-18.7zM208.7 478l-18.7 1.2c.5 6.8.9 13.6 1.4 20.4h15.7zm91 .6l.8 21h16.4c.4-6.5 1-13.1 1.5-19.6zm-73.9 2.3v18.7h18.6v-18.7zm37.3 0v18.7h18.7v-18.7z"></path></svg>