<svg stroke="currentColor" fill="currentColor" stroke-width="0" viewBox="0 0 512 512" height="1em" width="1em" xmlns="http://www.w3.org/2000/svg"><path d="M302.87 255.5a47.37 47.37 0 1 1-47.37-47.37 47.37 47.37 0 0 1 47.37 47.37zM484.5 428.02a56.48 56.48 0 0 1-56.48 56.48h-344a56.48 56.48 0 0 1-56.52-56.48v-344A56.48 56.48 0 0 1 83.98 27.5h344a56.48 56.48 0 0 1 56.52 56.48zm-20-344a36.48 36.48 0 0 0-36.48-36.52h-344A36.48 36.48 0 0 0 47.5 83.98v344a36.48 36.48 0 0 0 36.48 36.52h344a36.48 36.48 0 0 0 36.52-36.48z"></path></svg>