<svg stroke="currentColor" fill="currentColor" stroke-width="0" viewBox="0 0 512 512" height="1em" width="1em" xmlns="http://www.w3.org/2000/svg"><path d="M269.906 19.72c-22.584-.18-45.068 9.882-58.312 28.186-3.3 4.56-4.866 9.216-6.656 14.125 25.218-19.082 64.92-21.07 98.218-2.25 12.284 6.944 22.95 15.317 30.03 25.22 2.872-21.77-7.173-43.926-29.03-56.28-10.58-5.982-22.42-8.907-34.25-9zM114.312 45.437c-40.88 5.144-62.494 44.206-26.843 81.28C152.784 194.645 228 62.014 314.72 105.75c-54.142-84.613-115.572 4.63-184.19-3-24.45-2.717-40.31-32.677-16.218-57.313zM43.5 89.344c-34.748 69.57 57.006 143.258 132.72 81.5-52.88 9.79-134.675-13.864-132.72-81.5zM273.094 121c-5.932.124-11.34.998-17.063 1.813 45.095 13.808 81.135 51.81 85.845 95.624 1.736 16.162.317 31.597-6.03 44.344 29.547-9.814 48.652-32.612 45.56-61.374-4.35-40.505-50.376-76.533-102.186-80.25-2.12-.152-4.15-.197-6.126-.156zm-22.53 24.094C203.9 145.02 172.617 233.492 110 219.97c56.5 55.534 85.024-29.184 137.5-38.25 18.698-3.233 36.24 17.154 23.063 42.124 29.402-13.135 37.966-49.082 4.343-70.78-8.663-5.592-16.708-7.958-24.344-7.97zm65.31 58.625c-5.028 26.196-26.83 45.418-55.25 45.436-10.483.01-20.755-1.84-29.718-6.47 9.124 18.374 25.843 31.3 44.5 31.283 26.275-.027 45.844-25.345 43.625-56.22-.36-5.046-1.753-9.382-3.155-14.03zm82.688 29c-29.075 66.98-116.227 78.57-179.28 46.686 16.795 62.373 84.312 74.884 132.218 48-6.773 23.07-23.636 48.122-54.72 67.72 72.137-13.203 112.966-93.837 101.783-162.407zm-210 28.718c-1.34 3.298-2.475 6.55-3.468 9.78-41.677 61.148-27.868 144.897 32.156 189.25 61.47 45.42 148.236 32.407 193.656-29.062 33.926-45.914 35.248-105.948 8.125-152.312 3.956 47.482-42.914 125.878-99.03 137.344-53.372 10.904-109.618-17.097-128.563-73.532 23.022 40.5 77.285 56.485 114.032 21.47-64.08 21.732-110.737-49.515-116.908-102.938z"></path></svg>