<svg stroke="currentColor" fill="currentColor" stroke-width="0" viewBox="0 0 512 512" height="1em" width="1em" xmlns="http://www.w3.org/2000/svg"><path d="M256 25c-29 0-50 13.88-68.7 37.79-6.7 8.55-12.9 18.39-18.9 29.16 73.8 20.55 101.4 20.55 175.2 0-6-10.77-12.2-20.61-18.9-29.16C306 38.88 285 25 256 25zM129 99.14C158.8 125.4 198.6 151 256 151c57.4 0 97.2-25.6 127-51.86-113.6 33.36-140.4 33.36-254 0zm18.3 36.66c-3 7-6 14.3-9 21.6-28.4 70.1-54.79 151-108.76 195.4l52.12 52.1C192.8 344 319.2 344 430.3 404.9l52.2-52.1c-54-44.4-80.4-125.3-108.8-195.4-3-7.3-6-14.6-9-21.6-16.2 10.7-34.9 20-56.3 26.1 12.8 16.2 20.6 38.3 20.6 62.1 0 27.4-10.3 52.5-26.9 69 1.5 1.8 3 3.7 4.4 5.5 12.7 16.7 21.5 33.3 21.5 33.3l-16 8.4s-8.1-15.4-19.8-30.7c-5.9-7.7-12.6-15.2-19.1-20.5-6.6-5.3-12.7-8-17.1-8-4.4 0-10.5 2.7-17.1 8-6.5 5.3-13.2 12.8-19.1 20.5-11.7 15.3-19.8 30.7-19.8 30.7l-16-8.4s8.8-16.6 21.5-33.3c1.4-1.8 2.9-3.7 4.4-5.5-16.6-16.5-26.9-41.6-26.9-69 0-23.8 7.8-45.9 20.6-62.1-21.4-6.1-40.1-15.4-56.3-26.1zm76.7 30.6c-13.7 12.7-23 33.4-23 57.6 0 23.1 8.5 43 21.2 55.8 1.7-1.7 3.5-3.3 5.4-4.8 6-4.9 12.7-9 20-10.9-18.5-3.9-32.6-20.5-32.6-40.1 0-10.1 3.8-19.5 9.9-26.6A16 16 0 0 0 240 208a16 16 0 0 0 16-16 16 16 0 0 0-2.7-8.9c.9-.1 1.8-.1 2.7-.1 22.5 0 41 18.5 41 41 0 19.6-14.1 36.2-32.6 40.1 7.3 1.9 14 6 20 10.9 1.9 1.5 3.7 3.1 5.4 4.8C302.5 267 311 247.1 311 224c0-24.2-9.3-44.9-23-57.6-10.1 1.7-20.7 2.6-32 2.6s-21.9-.9-32-2.6zm9.6 147.2l12.8 12.8-16 16-12.8-12.8 16-16zm44.8 0l16 16-12.8 12.8-16-16 12.8-12.8zm-37.1 63.7c-11 .5-22 1.5-33 3.1l15.7 31.5 17.3-34.6zm29.4 0l17.3 34.6 15.7-31.5c-11-1.6-22-2.6-33-3.1zm-89.9 8.3c-10.6 2.5-21.2 5.5-31.6 9l25.1 29.1 6.5-38.1zm150.4 0l6.5 38.1 25.1-29.1c-10.4-3.5-21-6.5-31.6-9zm-199.8 15.5c-2.9 1.2-5.8 2.4-8.8 3.7l-27.41 13.7 27.31 27.2 8.9-44.6zm249.2 0l8.9 44.6 27.3-27.2-27.3-13.7c-3-1.2-5.9-2.5-8.9-3.7z"></path></svg>