<svg stroke="currentColor" fill="currentColor" stroke-width="0" viewBox="0 0 512 512" height="1em" width="1em" xmlns="http://www.w3.org/2000/svg"><path d="M192.9 20.39c-13.9 3.7-22.2 18-18.4 32 3.7 13.9 18 22.1 32 18.4 13.9-3.7 22.1-18 18.4-32-.7-2.5-1.7-4.9-3.1-7.1.2.9.2 1.7.2 2.5 0 7.5-5.8 13.6-13.1 14-.9-6.9-6.8-12.2-13.9-12.2-.3 0-.6 0-.9.1-.1-.6-.1-1.2-.1-1.8 0-7.2 5.3-13 12.2-13.9-4.5-1.17-9.1-1.11-13.3 0zm105 47.2c-6.3.3-12.5 2.9-17.2 7.7a25.907 25.907 0 0 0 0 36.91c10.2 10.3 26.7 10.3 37 0 7.3-7.3 9.3-17.81 6.2-27.01-.6 6.9-6.2 12.3-13.1 12.7-.9-6.9-6.8-12.2-13.9-12.2-.3 0-.6 0-.9.1-.1-.6-.1-1.2-.1-1.8 0-7.8 6.2-14 14-14.1-4.3-1.64-7.9-2.3-12-2.3zm112.2 8.2c-6.7 0-13.3 2.6-18.4 7.7-10.2 10.2-10.2 26.71 0 36.91 10.2 10.2 26.7 10.2 36.9 0 8.3-8.3 9.8-20.91 4.6-30.71v1.2c0 7.4-5.8 13.51-13.1 13.91-.9-6.91-6.8-12.21-13.9-12.21h-.9c-.1-.6-.1-1.2-.1-1.8 0-7.2 5.4-13.1 12.4-13.9-2.4-.7-4.9-1.1-7.5-1.1zM211 88.09c-21.5 5.7-34.2 27.81-28.5 49.31 5.8 21.5 27.9 34.2 49.4 28.5 21.5-5.8 34.2-27.9 28.4-49.4-1.5-5.6-4.1-10.7-7.5-14.9.2 1.1.3 2.3.3 3.5 0 8.6-5.6 15.9-13.3 18.6.1-.9.2-1.9.2-2.8 0-10.9-8.8-19.7-19.7-19.7-2.3 0-4.4.4-6.5 1.1 1.1-7.01 5.8-12.81 12.1-15.41-5-.46-10.5 0-14.9 1.2zm-83.5 24.71c-14 3.7-22.3 18.1-18.6 32 3.7 14 18.2 22.2 32.1 18.5 14-3.7 22.3-18.1 18.5-32-.6-2.2-1.4-4.3-2.5-6.1.3 7.7-4.5 16.1-13.1 15.1-.9-6.9-6.8-12.3-13.9-12.3-.3 0-.6 0-.9.1 0-.6-.1-1.2-.1-1.8 0-6.8 4.8-12.4 11.1-13.7-4.3-1-8.7-.8-12.6.2zm222.9 8.3c-10.3 0-20.6 4-28.5 11.9-15.7 15.7-15.7 41.2 0 56.9 15.7 15.8 41.2 15.8 57 0 13.4-13.4 15.3-34 5.9-49.5.1 1 .2 2.1.2 3.1 0 8.6-5.5 15.9-13.2 18.6.1-.9.1-1.9.1-2.8 0-10.9-8.8-19.7-19.6-19.7-2.3 0-4.4.4-6.5 1.1 1.4-9.4 9.3-16.6 19-16.9-4.7-1.7-9.5-2.7-14.4-2.7zM44.5 173.5c-11.13.4-21.13 8-24.16 19.3-3.73 13.9 4.54 28.3 18.47 32 13.92 3.7 28.23-4.5 31.97-18.5 1.63-6.1.95-12.3-1.5-17.6v.6c0 7.5-5.82 13.6-13.16 14-.86-6.9-6.75-12.3-13.91-12.3-.29 0-.58 0-.87.1-.53-8.3 7.46-15.5 13.72-15.8-3.35-1.3-7.34-1.9-10.6-1.8zm211.6 6.1c-33.9-.4-65 22.2-74.2 56.4-10.9 40.6 13.2 82.3 53.8 93.2 40.5 10.9 82.3-13.2 93.1-53.8 5-18.5 2.7-37.3-5.2-53.3.2 1.9.3 3.7.3 5.6 0 19.1-10.9 35.6-26.9 43.6 1.4-4.5 2.1-9.2 2.1-14.1 0-26.9-21.8-48.7-48.8-48.7-7.8 0-15.2 1.9-21.8 5.2 5.1-16.8 18.8-29.7 36-33.5-2.8-.4-5.6-.6-8.4-.6zm-128.6 1.5c-18-.2-34.49 11.8-39.35 29.9-5.76 21.5 6.98 43.6 28.55 49.3 21.5 5.8 43.6-7 49.4-28.5 3.6-13.5-.2-27.3-8.8-37.1.8 2.2 1.2 4.5 1.2 6.9 0 8.6-5.5 15.9-13.2 18.6.1-.9.2-1.9.2-2.8 0-10.9-8.8-19.7-19.7-19.7-2.3 0-4.4.4-6.4 1.1 1.2-8.6 7.9-15.4 16.4-16.7-2.7-.6-5.5-1-8.3-1zm292.9 7.3c-11.7-.1-22.4 7.6-25.5 19.4-3.8 14 4.5 28.3 18.5 32 13.9 3.8 28.3-4.5 32-18.5 2-7.4.6-15-3.3-21v1.3c0 7.5-5.8 13.6-13.2 14-.8-6.9-6.7-12.3-13.9-12.3-.3 0-.6.1-.8.1-.1-.6-.2-1.2-.2-1.8 0-5.9 3.7-11 8.9-13-.8-.1-1.7-.2-2.5-.2zm-37 61.9c-17.1.7-32.6 12.4-37.2 29.8-5.8 21.5 6.9 43.6 28.4 49.4 21.5 5.7 43.6-7 49.4-28.5 3.3-12.6.3-25.4-7.1-35 .4 1.4.6 2.9.6 4.5 0 8.6-5.5 15.9-13.2 18.6.1-.9.1-1.9.1-2.8 0-10.9-8.8-19.7-19.6-19.7-2.3 0-4.5.4-6.5 1.1 1.2-8.2 7.4-14.8 15.5-16.5-3.8-.6-7-1.2-10.4-.9zM90.12 276.9c-11.65-.1-22.35 7.6-25.5 19.4-3.74 13.9 4.55 28.3 18.5 32 13.95 3.7 28.28-4.5 32.08-18.5 1.8-6.6.9-13.2-2.1-18.8v.2c0 7.5-5.8 13.6-13.14 14-.86-6.9-6.75-12.3-13.9-12.3-.3 0-.59 0-.88.1-.1-.6-.12-1.2-.12-1.8 0-6.6 4.59-12.1 10.75-13.6-1.9-.5-3.81-.7-5.69-.7zm375.38 9.3c-11.2.4-21.2 8-24.3 19.4-3.7 13.9 4.6 28.2 18.5 31.9 13.9 3.8 28.2-4.5 32-18.4 2.2-8.4.1-16.9-5-23.2.1.7.2 1.5.2 2.2 0 7.5-5.8 13.6-13.2 14-.8-6.9-6.7-12.3-13.9-12.3-.3 0-.5.1-.8.1-.1-.6-.2-1.2-.2-1.8 0-5 2.7-9.4 6.7-11.9zm-303.9 23.7c-10.3 0-20.6 4-28.5 11.8-15.7 15.8-15.7 41.3 0 57 15.8 15.7 41.3 15.7 57 0 14.1-14.2 15.5-36.2 4.2-51.9.4 1.5.7 3.1.7 4.8 0 8.6-5.6 15.9-13.3 18.6.2-.9.2-1.9.2-2.9 0-10.8-8.8-19.6-19.7-19.6-2.2 0-4.4.3-6.4 1 1.3-9.1 8.9-16.2 18.4-16.8-4.1-1.3-8.4-2-12.6-2zm118.6 36c-21.5 5.8-34.3 27.9-28.5 49.4 5.7 21.5 27.8 34.2 49.3 28.4 21.5-5.7 34.2-27.8 28.5-49.3-1-3.6-2.5-7-4.3-10.2v1.1c0 8.6-5.6 15.9-13.3 18.6.2-.9.2-1.9.2-2.8 0-10.9-8.8-19.7-19.7-19.7-2.2 0-4.4.4-6.4 1.1 1.2-8.2 7.4-14.7 15.4-16.4-7.2-1.9-14.5-2-21.2-.2zm93.7 7.8c-1.5.1-3.1.3-4.7.8-14 3.7-22.2 18-18.5 32 3.7 13.9 18.1 22.2 32 18.5 14-3.7 22.3-18.1 18.5-32-1.2-4.5-3.4-8.4-6.4-11.5.3 1.3.5 2.7.5 4.1 0 7.4-5.8 13.5-13.1 14-.9-7-6.8-12.3-13.9-12.3h-.9c-.1-.6-.1-1.1-.1-1.7 0-5.1 2.7-9.5 6.6-11.9zM102 383.8c-6.72 0-13.38 2.6-18.47 7.7-10.2 10.2-10.2 26.7 0 36.9 10.19 10.2 26.67 10.2 36.97 0 8.1-8 9.7-19.9 5.2-29.6-1.4 5.9-6.6 10.4-13 10.8-.8-6.9-6.7-12.3-13.83-12.3h-.88c-.1-.5-.12-1.1-.12-1.7 0-4.9 2.53-9.1 6.23-11.7-.7 0-1.4-.1-2.1-.1zm108.7 13.9c-6.7 0-13.4 2.6-18.5 7.7-10.2 10.2-10.2 26.8 0 37s26.8 10.2 37 0c7.7-7.7 9.6-19.1 5.6-28.6-.2 7.2-5.9 13.1-13.1 13.5-.9-6.9-6.8-12.3-13.9-12.3-.3 0-.6.1-.9.1-.1-.6-.1-1.2-.1-1.8 0-7.4 5.7-13.4 12.9-14-2.9-1-6-1.6-9-1.6zm95 43.4c-14 3.7-22.2 18.1-18.5 32 3.7 13.9 18.1 22.2 32 18.5 13.9-3.8 22.2-18.1 18.4-32 0-.3-.1-.5-.2-.8-1.4 6-6.6 10.5-12.8 10.8-.9-6.9-6.8-12.2-13.9-12.2h-.9c-.1-.6-.1-1.1-.1-1.8 0-6.9 5-12.6 11.6-13.8-5.3-1.7-10.6-2.1-15.6-.7z"></path></svg>