<svg stroke="currentColor" fill="currentColor" stroke-width="0" viewBox="0 0 512 512" height="1em" width="1em" xmlns="http://www.w3.org/2000/svg"><path d="M328.9 17.89h-1.8c-8.2.27-18.6 2.98-31.8 8.59L59.61 126.4c-21.18 8.9-31.79 17.7-35.74 27.5-3.95 9.7-2.41 23.4 6.57 44.6l49.95 117.8c8.97 21.2 17.72 31.8 27.51 35.7 9.7 4 23.4 2.5 44.6-6.5l235.7-99.9c13.5-5.7 22.7-11.3 28.6-17.2 4.5 5.5 8.7 11.6 12.2 18.2 3.8 7 6.8 14.4 8.9 21.8-2.5-.3-5.1-.4-7.7-.4-14.1.3-28.1 5.7-39.2 16.2-20.6 19.6-24.2 50.4-10.1 73.8l-50.2 47.7-22-5.9.8 26.1-27.4-.8-2.6 29.4-23.7-4.4 4.6 22.5-17 21.5 62.8-10.9 104.9-100c20.2 7.5 43.7 3.4 60.5-12.6 23.7-22.5 24.9-59.9 2.5-83.9-4.9-5.2-10.4-9.3-16.4-12.3-2.1-12.5-6.7-24.9-12.8-36.3-5.4-10-11.9-19.3-19.2-27 1.1-9.1-1.4-21.1-8.4-37.6L367.4 55.67c-8.9-21.17-17.7-31.78-27.5-35.74-3.2-1.3-6.8-2-11-2.04zm-15.6 50.96l7 16.58-132.6 56.17-7-16.6zm14.9 38.25l7 16.6-73.7 31.2-7-16.6zm-189.7 18.4L208 289.4l-90.3 38.2L51.81 172l-3.51-8.3zm206 17l7 16.6-88.4 37.4-7-16.6zm-215.6 6.6l-57 24.2L127.3 304l57.1-24.2zm255.7 25c13.1 0 23.9 10.3 24.9 23.1-8.9-6-18.7-9.6-28.6-8.9-1.7.1-3.4.3-5.1.7l4 17.6c6-1.4 14.6 1.2 23.8 8.5 0 0 .1 0 .1.1-4.6 5.4-11.5 8.9-19.1 8.9-13.7 0-25-11.3-25-25s11.3-25 25-25zm53.7 120.1c.8 0 1.6 0 2.4.1-.9 8.9-4.1 16.5-10.1 22.5l12.6 12.8c7.7-7.7 12.3-17.1 14.4-27.2 9.7 10.5 9.2 27.1-1.1 36.9-10.4 9.9-26.9 9.4-36.6-1-9.8-10.5-9.2-27.2 1.1-37 4.9-4.6 11.1-6.9 17.3-7.1z"></path></svg>