<svg stroke="currentColor" fill="currentColor" stroke-width="0" viewBox="0 0 512 512" height="1em" width="1em" xmlns="http://www.w3.org/2000/svg"><path d="M344.1 34.19c-25.2 3.48-86.9 13.87-149.2 38.78-40.4 16.16-81.2 38.43-112.27 69.43-31.09 31.1-52.37 71.4-52.51 121.6-.15 53.8 21.43 95.2 53.29 125.5 31.89 30.3 73.69 50 115.19 63.1 57.8 18.2 115.2 23.6 144.8 25.2-14.5-3.8-27.5-11.4-38.8-21.5-28.7-3.4-64.7-9.6-100.6-20.9-39.8-12.5-79.2-31.4-108.19-58.9C66.86 349 47.99 313.2 48.12 264c.12-45.2 18.69-80.3 47.23-108.8 28.55-28.5 67.25-49.9 106.25-65.52 36.1-14.44 72.2-23.87 100.7-29.85 1.6-1.62 3.3-3.21 5-4.72 10.9-9.57 23.2-16.88 36.8-20.92zm23.8 14.49c-18.4 0-34.3 7.24-48.7 19.92-14.3 12.67-26.8 30.91-36.8 51.9-20.1 42.1-30.5 95.4-30.7 135.6-.2 39.7 9.3 92.7 28.7 134.6 9.7 21 21.8 39.2 35.8 51.9 14 12.6 29.6 19.8 47.7 19.9 18.9.1 35.2-7.2 49.8-20.2 14.7-13 27.4-31.7 37.6-53.3 20.5-43.2 30.8-97.8 30.6-138.9-.1-39.1-10.4-90.9-30.2-131.9-9.9-20.4-22.2-38.1-36.2-50.37-14.1-12.27-29.6-19.15-47.6-19.15zm17 55.32l17.6 3.6-4.9 23.9-17.6-3.6zm-52.1 15l8 12.4-15.2 9.8-8-12.4zm31.3 7.7l6 18.8-17.2 5.4-6-18.8zm57.7 14.4l15.4 9.2-10.9 18.4-15.4-9.2zm-96.9 13l12.4 15.9-14.2 11-12.4-15.9zm54 10c38.8.4 52.2 65.2 52 103.9-.1 40.7-14.7 109.2-55.4 108.8-40-.5-52.8-68.1-52-108.1.7-39.4 16-105.1 55.4-104.6zm57.9 10.8l14.2 11.2-10.5 13.4-14.2-11.2zm4.5 35.4l17 5.8-7.4 21.4-17-5.8zm-133.4 7.5l2.8 17.8-17.8 2.9-2.8-17.8zm-.5 43.3l4.8 17.4-16.3 4.5-4.8-17.4zm138.2 9l11.9 3-4.4 17.4-11.9-3zm-146.2 36.6l19.4 4.5-4 17.6-19.4-4.5zm144.2 9.8l10.9 10.4-12.4 13-10.9-10.4zm-13.8 37.7l11.4 19.9-15.6 9-11.4-19.9zm-108.6 14.7l16 8.4-7.9 14.9-16-8.4zm80.1 5.7l8.5 15.8-16.7 9-8.5-15.8zm-51.8 16.6l18 1.6-2 22.8-18-1.6zm41.2 18.7l2.5 17.5-17.8 2.6-2.5-17.5z"></path></svg>