<svg stroke="currentColor" fill="currentColor" stroke-width="0" viewBox="0 0 512 512" height="1em" width="1em" xmlns="http://www.w3.org/2000/svg"><path d="M256 34.91c-11.9 0-23.9 1.65-37 4.8 12.1 22.88 24.3 36.93 37 53.48 12.7-16.55 24.9-30.59 37-53.48-13.1-3.15-25.1-4.8-37-4.8zm-51.8 15.16L188.3 58c13.9 25.46 36.7 57.8 58.7 75.3v-22.1c-13.7-18.61-28.3-34.37-42.8-61.13zm103.6 0c-14.5 26.76-29.1 42.52-42.8 61.13v22.1c22-17.5 44.8-49.84 58.7-75.3zM171.1 64.41c-18.1 5.75-30.5 10.46-35.3 12.34L99.61 257.8l44.79 11.1c7.2-51.6 15.2-85.9 21.1-134.8l19.4-14.9c-8.9 78.9-15.8 142.9-22.2 213l59.1-14.8 11.2-2.8v75.5c0 4.9-2.1 9.7-5.2 12.9-3.1 3.3-6.8 5.3-10.6 6.7-7.8 2.9-16.7 3.7-25.6 3.3-8.8-.3-17.6-1.9-24.9-4.8-3.1-1.2-5.9-2.7-8.5-4.7l-4.6 73.6H247V155.5c-31.9-18.7-59.5-60.01-75.9-91.09zm169.8 0c-16.4 31.08-44 72.39-75.9 91.09v17.6h30v-23h18v23h16v57c0 4.2-1.8 8.3-4.3 11.2-2.5 2.8-5.4 4.6-8.5 6-6.2 2.8-13.2 3.8-20.2 3.8s-14-1-20.2-3.8c-3.1-1.4-6-3.2-8.5-6-.9-1-1.6-2.2-2.3-3.4v239.2h93.4l-4.5-72.3c-2.7 2.3-5.7 3.8-8.7 4.9-7.8 2.9-16.7 3.7-25.6 3.3-8.8-.3-17.6-1.9-24.9-4.8-3.7-1.5-7.1-3.3-10.1-6.1-2.9-2.7-5.6-7-5.6-12v-75.5l70.3 17.6c-5.6-70.4-14.2-147.6-22.2-213l17.8 14.9c7.1 53.3 14.2 83.6 22.7 134.8l44.8-11.1-36.2-181.05c-4.8-1.88-17.2-6.59-35.3-12.34zM281 191.1v38.4c6.9 6.2 22.2 6.1 30 0v-38.4zM96.11 275.4l-5.6 28L136.7 315l4.7-28.3zm319.79 0l-45.3 11.3 4.7 28.3 46.2-11.6zM215 337.6l-46 11.5V389c4.8 7.9 35.7 9.1 46 1.1zm82 0V389c5.4 8.8 35.7 9.1 46 1.1v-41z"></path></svg>