<svg stroke="currentColor" fill="currentColor" stroke-width="0" viewBox="0 0 512 512" height="1em" width="1em" xmlns="http://www.w3.org/2000/svg"><path d="M53.688 23.97c-37.59 15.43-40.433 37.366-28.032 62.5 25.773 4.386 51.188 11.535 76.156 21.343-10.142 21.927-18.285 44.526-25.28 67.468l-.97.064c.047.89.103 1.77.157 2.656-7.916 26.324-14.373 53.068-20.595 79.75L73.313 262c2.89-12.39 5.822-24.726 8.906-36.97 4.453 20.118 10.942 39.045 19.218 56.75-3.136 18.215-6.048 36.444-8.907 54.626l18.47 2.906c1.612-10.254 3.212-20.5 4.875-30.718 6.42 10.422 13.55 20.324 21.28 29.72-3.45 16.922-6.79 33.822-10.06 50.717l18.343 3.564c2.385-12.32 4.784-24.632 7.25-36.938 8.928 9.16 18.487 17.74 28.656 25.72-2.143 11.517-4.194 23.033-6.156 34.562l18.437 3.125c1.445-8.49 2.933-16.973 4.47-25.438 10.66 7.275 21.856 13.95 33.53 20.063-1.88 9.805-3.7 19.61-5.5 29.406l18.375 3.375c1.486-8.085 2.995-16.175 4.53-24.25 10.957 5.008 22.293 9.574 33.94 13.624-1.088 6.006-2.166 12.02-3.283 18l18.375 3.437c.978-5.233 1.925-10.463 2.875-15.686 10.815 3.22 21.88 6.072 33.157 8.5-.696 7.412-1.243 14.862-1.594 22.375l18.656.874c.308-6.588.787-13.157 1.375-19.688 9.484 1.65 19.08 3.05 28.814 4.156-.223 7.96-.224 15.95-.03 23.938l18.686-.438c-.176-7.31-.186-14.563 0-21.75 8.232.635 16.537 1.09 24.906 1.344 2.173 8.67 3.923 17.34 5.25 26l18.47-2.812c-1.57-10.244-3.702-20.484-6.376-30.72 5.348-11.266 10.022-22.69 13.938-34.218 5.188 5.993 9.63 12.537 13.093 19.53l16.75-8.28c-5.953-12.024-14.062-22.73-23.624-31.937 3.078-11.772 5.374-23.624 6.906-35.47 4.16 2.397 8.272 4.996 12.344 7.844l10.688-15.313c-6.972-4.874-14.058-9.078-21.188-12.78.713-13.41.407-26.78-.97-40.03 5.702 1.882 11.422 3.97 17.19 6.217l6.812-17.406c-9.05-3.527-18.038-6.593-27-9.28-2.54-13.382-6.2-26.6-11.032-39.53 4.745.416 9.502.888 14.25 1.436l2.125-18.562c-8.202-.948-16.415-1.716-24.624-2.28-1.745-3.662-3.585-7.304-5.53-10.908-3.654-6.767-7.676-13.404-12.032-19.937 10.805-.828 21.594-1.27 32.375-1.282V172.5c-15.084.016-30.15.835-45.19 2.344-7.082-8.91-14.882-17.548-23.405-25.875 13.413-1.578 26.972-2.55 40.72-2.75l-.283-18.69c-20.013.295-39.536 2.135-58.687 5.032-9.338-7.75-19.393-15.185-30.156-22.25 12.464-1.9 25.048-3.158 37.81-3.593l-.624-18.657c-21.006.717-41.422 3.476-61.406 7.624-8.818-4.88-18.055-9.504-27.688-13.937 11.513-2.03 23.036-3.72 34.563-5.094l-2.22-18.562c-21.036 2.504-42.11 6.034-63.186 10.78-12.616-4.747-25.834-9.15-39.658-13.155 7.034-1.47 14.04-2.595 21-3.314l-1.937-18.593c-18.886 1.95-37.535 6.48-56 12.468-.512-.113-1.018-.23-1.53-.343l-.22.938c-16.2 5.338-32.25 11.774-48.188 18.53-27.93-15.956-55.79-29.693-82.75-41.436zm133.875 41.75c14.853 3.45 29.035 7.32 42.53 11.56C214.07 81.89 198.03 87.278 182 93.5c-8.425-5.602-16.896-10.98-25.375-16.156 10.37-4.202 20.692-8.15 30.938-11.625zm74.062 22.624c.01.003.022-.004.03 0 11.267 4.387 21.996 9.055 32.19 14-23.21 6.29-45.89 14.11-68.314 22.437-8.172-6.34-16.437-12.444-24.75-18.343 20.28-7.33 40.55-13.317 60.845-18.093zm-142.563 26.72c7.12 3.175 14.216 6.57 21.25 10.186-14.62 40.292-24.633 81.18-32.625 122.22-6.923-20.8-11.385-43.227-13.093-67.282 6.837-22.36 14.748-44.17 24.47-65.125zm199.5.374c11.695 6.762 22.554 13.94 32.625 21.437-28.995 5.763-57.234 13.598-85.156 21.906-7.703-6.996-15.52-13.762-23.436-20.31 25.147-9.094 50.344-17.252 75.97-23.032zM156.938 134.25c9.297 5.287 18.503 10.975 27.625 17.03-17.695 54.5-30.927 108.908-42.437 163.157-8.016-11.01-15.162-22.676-21.313-35.062 8.632-49.215 19.214-97.813 36.126-145.125zm213.438 18.156c9.15 8.064 17.508 16.463 25.063 25.125-30.125 4.353-60.155 11.352-90.094 20.157-7.65-8.273-15.492-16.25-23.47-24 29.29-8.518 58.597-16.22 88.5-21.28zm-169.72 9.97c11.142 8.042 22.134 16.678 32.97 25.874-22.08 56.622-36.777 114.317-48.28 172.313C175.26 352.09 165.867 343 157.25 333.28c11.817-57.12 25.252-114.07 43.406-170.905zm208.407 32.218c6.334 8.695 11.96 17.613 16.875 26.72.18.332.353.664.532 1-5.79-.157-11.582-.236-17.376-.19-25.536.208-51.115 2.44-76.688 6.94-4.34-5.4-8.76-10.707-13.25-15.908 30.063-8.46 60.038-14.912 89.906-18.562zm-160.468 6.812c9.638 8.772 19.11 18.027 28.47 27.72-17.9 55.27-30.75 110.418-41.69 165.405-11.767-6.403-22.943-13.457-33.5-21.092 11.23-58.282 25.396-115.842 46.72-172.032zM411.47 240.78c8-.025 16.02.158 24.03.532 4.867 11.61 8.69 23.474 11.5 35.532-26.15-6.084-52.332-8.79-79.438-8.625-2.064.01-4.14.046-6.218.092-5.154-7.66-10.488-15.125-15.938-22.437 22.01-3.362 44.02-5.02 66.063-5.094zm-119.75 4c10.398 11.495 20.623 23.543 30.624 36.19-18.485 44.613-27.665 90.6-35.97 136.186-11.612-4.13-22.858-8.732-33.687-13.844 10.437-52.982 22.532-105.82 39.032-158.53zm81.592 42.157c26.524.234 51.896 3.38 77.438 10.063 1.707 12.324 2.383 24.8 2.094 37.344-20.57-8.23-41.475-12.975-62.063-17-5.547-10.423-11.383-20.543-17.467-30.406zm-37.718 11.344c7.404 9.927 14.69 20.182 21.844 30.75-8.883 33.454-16.7 67.386-21.25 102.314-10.867-2.388-21.495-5.138-31.875-8.28 7.776-42.615 16.013-84.614 31.28-124.783zm65.97 40.376c17.145 3.763 33.866 8.385 50.03 15.438-1.083 10.398-2.832 20.818-5.22 31.22-9.76-6.797-20.437-12.273-31.5-16.377-4.19-10.328-8.608-20.434-13.312-30.28zm-30.283 11.47c7.133 11.214 14.152 22.75 21 34.624-5.405 17.798-8.452 35.95-9.936 54.28-9.388-1.09-18.66-2.45-27.78-4.06 3.665-28.62 9.653-56.796 16.717-84.845zm53.033 43.687c5.906 3.208 11.56 6.874 16.812 11-2.052 6.67-4.393 13.317-6.97 19.937-3.02-10.528-6.305-20.85-9.842-30.938zm-18.72 14.812c1.664 3.074 3.325 6.167 4.97 9.28 3.348 8.024 6.316 16.05 8.906 24.064-6.206-.26-12.354-.65-18.47-1.126.89-10.92 2.386-21.668 4.594-32.22z"></path></svg>