<svg stroke="currentColor" fill="currentColor" stroke-width="0" viewBox="0 0 512 512" height="1em" width="1em" xmlns="http://www.w3.org/2000/svg"><path d="M440.783 22.424c-2.382.04-4.63.42-6.646 1.178l-148.725 93.875-125.28 165.15c.972 7.275 1.65 13.713 1.65 13.713L145.435 302 52.56 424.432a38.188 26.876 37.184 0 1 30.288 9.912 38.188 26.876 37.184 0 1 18.03 28.566l219.278-289.056-1.943-31.5 12.213 23.632 140.47-88.664c7.383-9.426 8.96-18.574 7.038-26.62l-15.998 5.54L472.48 39.27c-2.533-3.414-5.665-6.433-9.13-8.93-7.054-5.082-15.42-8.035-22.567-7.916zM52.705 438.676a30.876 21.73 37.184 0 0-1.857.023 30.876 21.73 37.184 0 0-14.244 6.763 30.876 21.73 37.184 0 0 11.464 35.974 30.876 21.73 37.184 0 0 37.735 1.348 30.876 21.73 37.184 0 0-11.47-35.973 30.876 21.73 37.184 0 0-21.628-8.136zm1.762 15.146a14.803 10.418 37.184 0 1 .004 0 14.803 10.418 37.184 0 1 11.26 3.89 14.803 10.418 37.184 0 1 5.497 17.247 14.803 10.418 37.184 0 1-18.09-.647 14.803 10.418 37.184 0 1-5.498-17.247 14.803 10.418 37.184 0 1 6.827-3.244z"></path></svg>