<svg stroke="currentColor" fill="currentColor" stroke-width="0" viewBox="0 0 512 512" height="1em" width="1em" xmlns="http://www.w3.org/2000/svg"><path d="M116.6 105c40 45.9 60.4 98.4 60.4 151 0 52.6-20.4 105.1-60.4 151H192c34.1 0 81.9-34 119.3-71.4 18.7-18.6 35.1-37.9 46.6-53.3 5.8-7.6 10.4-14.4 13.4-19.4 1.4-2.5 2.5-4.7 3.2-6.1.1-.4.2-.5.2-.8 0-.3-.1-.5-.2-.9-.6-1.4-1.7-3.5-3.2-6-3-5.1-7.5-11.8-13.2-19.5-11.3-15.4-27.5-34.6-46.1-53.2C274.8 139 227.1 105 192 105h-75.4zM16 151v18h122.2c-3-6.1-6.3-12.1-9.9-18H16zm400 82c-12.8 0-23 10.2-23 23s10.2 23 23 23 23-10.2 23-23-10.2-23-23-23zm40 14c.6 2.9 1 5.9 1 9 0 3.1-.4 6.1-1 9h40v-18h-40zM16 343v18h112.3c3.6-5.9 6.9-11.9 9.9-18H16z"></path></svg>