<svg stroke="currentColor" fill="currentColor" stroke-width="0" viewBox="0 0 512 512" height="1em" width="1em" xmlns="http://www.w3.org/2000/svg"><path d="M80.39 38.55c1.28 1.5 2.5 3.13 3.61 4.91l9.36 14.71c5.11 8.17 7.14 16.75 6.61 24.51 9.73 1.32 19.73 7.43 26.63 18.42l9.3 14.7c6 9.2 7.7 19.1 6.3 27.6 7.3 2.4 14.3 7.5 19.7 15.2h188.2c5.5-7.7 12.4-12.8 19.7-15.2-1.5-8.5.4-18.4 6.3-27.6l9.2-14.7c7-10.99 17-17.1 26.8-18.42-.6-7.87 1.5-16.39 6.6-24.58l9.3-14.73c1.2-1.74 2.3-3.34 3.4-4.82zM456 44.12c-3 .52-7 3.04-11.4 9.76l-9.3 14.71c-7.4 11.8-4 17.15-.5 19.22 3.4 2.2 9.7 3.07 16.9-8.52l4.3-6.66zm-399.97.11v28.4l4.15 6.66c7.33 11.59 13.66 10.72 17.05 8.52 3.39-2.07 6.89-7.42-.55-19.12l-9.29-14.72c-4.33-6.74-8.24-9.27-11.36-9.79zm41.34 57.47c-1.4 0-3.19.5-4.32 1.3-3.52 2.1-7 7.4.52 19.1l9.23 14.7c6.3 10 12 10.8 15.7 9.3.7-.5 1.6-1 2.3-1.5 2.9-2.4 5.2-7.9-1.5-18.4l-9.2-14.7c-5-7.6-9.4-9.8-12.73-9.8zm317.13 0c-3.3 0-7.6 2.2-12.5 9.8l-9.3 14.7c-6.6 10.5-4.5 16-1.6 18.4 1 .6 1.7 1 2.4 1.5 3.6 1.5 9.3.7 15.7-9.3l9.3-14.7c7.4-11.7 3.9-17 .5-19.1-1.4-.9-2.9-1.2-4.5-1.3zm-358.47 1v55.9h40.44c-3.72-2.9-7.37-6.6-10.31-11.2l-9.25-14.9c-5.14-8.1-7.22-16.7-6.67-24.4-4.81-.6-9.68-2.5-14.21-5.4zm399.97 0c-4.7 2.9-9.4 4.8-14.2 5.4.5 7.7-1.6 16.3-6.7 24.4l-9.3 14.9c-3 4.6-6.5 8.3-10.2 11.2H456zM90.99 178.3v271.8l12.01-9.5c8.1-6.6 17-9.4 25.3-9.4 1.1-8.8 6-18.1 15-25.2l13.8-10.7c7.8-6.3 16.4-9.1 24.2-9.3 4.5 0 8.6.8 12.5 2.3V283.9c-11.3.6-23.8-5.7-31.9-18.5l-9.4-14.9c-5.6-8.7-7.3-17.8-6.5-26-8.6-2.1-17.3-7.9-23.4-17.8l-9.3-14.7c-2.8-4.6-4.7-9.1-5.8-13.7zm37.11 0c.5 1 1.2 2.2 1.9 3.2l9.2 14.9c7.4 11.5 13.6 10.5 17 8.4 3.4-2.1 6.9-7.4-.6-19.1l-4.5-7.4zm46.1 0c4.1 7.8 5.4 15.8 4.7 23 8.6 2 17.2 8 23.4 17.6l9.2 14.9c6.5 10 8 20.8 5.9 29.8h77.3c-2.2-9-.6-19.8 5.8-29.8l9.2-14.9c6.2-9.6 14.8-15.6 23.4-17.6-.7-7.2.5-15.2 4.7-23zm186.7 0l-4.6 7.4c-7.4 11.7-3.9 17-.5 19.1 3.4 2.1 9.5 3.1 17-8.4l9.3-14.9c.6-1 1.4-2.2 1.9-3.2zm43.6 0c-1 4.6-2.9 9.1-5.8 13.7l-9.3 14.7c-6 9.9-14.7 15.7-23.3 17.8.9 8.2-1.1 17.3-6.6 26l-9.4 14.9c-8.2 12.8-20.6 19.1-31.8 18.5v104.4c3.7-1.5 7.9-2.3 12.5-2.3 7.9.2 16.5 3 24.3 9.3l13.6 10.7c9 7.1 13.9 16.4 15.1 25.2 8.3 0 17.1 2.8 25.2 9.4l12 9.5V178.3zm-231.3 41.3c-1.8 0-3.4.7-4.6 1.4-3.3 2-6.8 7.5.6 19.1l9.2 14.7c6.4 9.9 11.7 10.8 15.4 9.4l1.6-.8c3.4-2.1 7-7.5-.5-19.2l-9.2-14.7c-4.9-7.7-9.4-9.9-12.5-9.9zm165.8 0c-3.3 0-7.6 2.2-12.6 9.9l-9.3 14.7c-7.5 11.7-4 17.1-.6 19.2l1.8.8c3.5 1.4 9.1.5 15.2-9.4l9.5-14.7c7.3-11.6 3.9-17.1.5-19.1-1.7-.8-3-1.3-4.5-1.4zm-125.5 63.7V386h85.1V283.3zm42.7 16.3c9.7.2 17.2 7.9 17.2 17.5 0 5.2-2.2 10.3-6.4 13.7l6.4 38.7h-34.9l6.7-38.7c-4.2-3.3-6.7-8.3-6.7-13.7 0-9.7 8-17.6 17.7-17.5zm-74.3 105.2c-3.2 0-7.3 1.6-12.6 5.9l-13.8 10.8c-7 5.7-8.8 10.2-8.3 13.6.1 1.4.8 3.1 1.8 4.2 2.3 3.1 8.1 6.1 18.8-2.6l13.7-10.9c10.7-8.5 9.2-14.6 6.6-17.8-1.2-1.5-3.1-3.1-6.2-3.2zm148.2 0c-2.9.1-5.1 1.7-6.2 3.2-2.6 3.2-4.1 9.3 6.7 17.8l13.6 10.9c10.9 8.7 16.5 5.7 19 2.6 1-1.4 1.4-2.8 1.6-4.2.4-3.4-1.2-7.9-8.4-13.6l-13.5-10.8c-5.5-4.3-9.7-5.9-12.8-5.9zm-121.7.8c2.8 11.4-2 25.6-14.6 35.7L180 452c-8.1 6.6-17 9.5-25.2 9.5-.5 3.9-1.6 8-3.9 11.9h210.2c-2.1-3.9-3.4-8-3.9-11.9-8.2 0-17.1-2.9-25.2-9.5l-13.7-10.7c-12.7-10.1-17.5-24.3-14.6-35.7zm-80.6 44.6c-3 0-7.2 1.3-12.6 5.7l-13.7 10.8c-2.93 2.4-4.93 4.7-6.33 6.7h29.63l2.7-2.2c10.7-8.7 9.2-14.8 6.7-17.8-1.2-1.7-3.2-3.1-6.4-3.2zm256.4 0c-3.2.1-5.1 1.5-6.3 3.2-2.5 3-4.2 9.1 6.6 17.8l2.8 2.2h29.4c-1.2-2-3.2-4.3-6.2-6.7l-13.8-10.8c-5.3-4.4-9.4-5.7-12.5-5.7z"></path></svg>