<svg stroke="currentColor" fill="currentColor" stroke-width="0" viewBox="0 0 512 512" height="1em" width="1em" xmlns="http://www.w3.org/2000/svg"><path d="M187.4 22c-6.3 13.95-9.9 30.06-9.9 47.4 0 54.9 36.1 97.6 78.5 97.6s78.5-42.7 78.5-97.6c0-17.34-3.6-33.45-9.9-47.4H187.4zm20.6 90h96c-32 32-64 32-96 0zm89.2 62c-12.5 7.1-26.4 11-41.2 11-14.6 0-28.4-3.8-40.7-10.7-22.4 5.1-46.5 13.4-67.4 23.9-6.1 3-11.9 6.2-17.3 9.6l30.6-5.8c32-6.1 60.8-9.9 87.5-9.6 8.9.1 17.6.6 26 1.7 29.4 3.7 56.4 14.1 81.8 33.2 22.4 4 44.1 10.1 64.2 18.2-2.5-5.9-7-12.1-13.4-18.4-10.4-10.3-25.6-20.5-42.9-29.2-20.9-10.5-44.9-18.9-67.2-23.9zm-168.5 34.9c-9.4 5.9-17.6 12.1-24 18.3-10.32 10.2-15.52 20-15.65 28.5 1.71 10.6 3.24 20.5 4.65 30 28.2-24.9 63.8-42.2 102.6-52.5-9-4.2-20.5-8.7-36.2-13.9l-31.4-10.4zm119.8 1.5c-15.8-.2-32.8 1.3-51.1 3.9 9.9 4.4 17.7 8.7 24.3 13.2 11.1-2.1 22.3-3.6 33.6-4.6 8.4-.8 16.8-1.3 25.2-1.4 10.4-.2 20.7-.1 31 .5-12.4-5-25.3-8.3-39-10-7.7-1-15.7-1.5-24-1.6zm42.9 29c-3.5 0-7 0-10.5.1-8 .1-16 .6-24 1.3-63.7 5.7-124.1 28.6-162.42 69l-3.31 3.5-4.73-.8c-18.48-3.2-43.03 5.9-68.2 12.8 1.29 1.1 2.53 2.1 3.86 3.4 10.52 9.6 22.46 22.7 33.33 36.3 10.87 13.5 20.61 27.4 26.64 39.2 1.76 3.4 3.19 6.6 4.25 9.8 6.8-4.7 11.72-10.9 15.98-18.4l.3-.6c-.8-12.4.1-24.8 2.7-36.8 2-9.7 9-16.8 16.8-21 7.9-4.1 16.9-6 25.9-6.4 2.2-.2 4.4-.2 6.7-.1 6.7.1 13.2 1.1 19.1 2.7 7.9 2.2 15 5.2 19.7 11.9 5.6 7.9 9.8 17.2 12 26.8 27.7 5.6 59.7 10.1 92.7 12.7 2.1.2 4.2.3 6.3.5.8-14.3 5.8-28.5 14-40 4.7-6.7 11.8-9.7 19.7-11.9 5.9-1.6 12.4-2.6 19.1-2.7 2-.1 4-.1 5.9 0v-4.4c.3-21.2 3.4-43.9 16.9-58.4l13.2 12.4c-7.2 7.6-11.8 27.2-12.1 46.3-.1 2.4 0 4.7 0 7.1 3 .9 5.9 2.1 8.7 3.5 7.8 4.2 14.8 11.3 16.8 21 2 9.4 3 19.1 3 28.8 30.3-1.3 58.7-4.4 82.8-9.5.6-41.1-20.5-86.2-55.2-104.5-41-21.7-93.2-33.3-145.9-33.6zm-22.6 37.8h3c10.6.3 21.5 1.7 32.7 4.5l-4.4 17.4c-35.9-9-68.6-1.3-99.9 9.7 1.9 2.3 4.6 4.7 8.3 7 7.7 4.9 18.6 9.2 30.7 12.2 24.3 5.9 53.4 6 70-.6l6.6 16.8c-22.7 8.9-53.7 7.9-80.8 1.3-13.6-3.3-26.1-8.1-36.1-14.5-10.1-6.4-18.2-14.8-19.9-26.1l-1.1-7.2 6.9-2.5c25.4-9.5 53.5-18.2 84-18zm156.9 17.3a17.92 17.06 0 0 1 17.9 17.1 17.92 17.06 0 0 1-17.9 17.1 17.92 17.06 0 0 1-17.9-17.1 17.92 17.06 0 0 1 17.9-17.1zm-274.2 54.1c-.8 0-1.7.1-2.6.1-7 .4-13.8 2-18.4 4.4-4.6 2.5-6.8 5.1-7.6 8.9-4.6 21.8-3 45.4 5.3 66-.8-2 .2.1 4.7.9 4.6.8 11.4.9 18.3-.2 14-2 28.3-8.9 33-17.2 8.5-14.8 5.7-40.2-5.3-55.8-.5-.6-4.2-3.4-9.9-4.9-5-1.4-11.3-2.2-17.5-2.2zm209 0c-6.2 0-12.5.8-17.5 2.2-5.7 1.5-9.4 4.3-9.9 4.9-11 15.6-13.8 41-5.3 55.8 4.7 8.3 19 15.2 33 17.2 6.9 1.1 13.7 1 18.3.2 4.5-.8 5.5-2.9 4.7-.9 8.3-20.6 9.9-44.2 5.3-66-.8-3.8-3-6.4-7.6-8.9-4.6-2.4-11.4-4-18.4-4.4-.9 0-1.8-.1-2.6-.1zm-152.9 42.5c-.2 10.3-2.7 20.5-7.8 29.4-9.4 16.4-28.6 23.5-45.9 26.1-8.6 1.2-17 1.3-24.2 0-6.2-1.1-12.7-2.9-16.5-8.7 2 15 4.1 31 6.7 49.1H215v-94.5c-2.5-.4-5-.9-7.4-1.4zm25.4 4.3V487h46.6l-.4-85.9c-15.9-1.5-31.4-3.4-46.2-5.7zm64.2 7.3l.4 84.3h94.6c2.6-18.6 4.8-34.6 6.9-49.6-3.8 6.2-10.4 8.1-16.8 9.2-7.2 1.3-15.6 1.2-24.2 0-17.3-2.6-36.5-9.7-45.9-26.1-3.1-5.4-5.2-11.2-6.4-17.2-2.9-.2-5.7-.4-8.6-.6z"></path></svg>