<svg stroke="currentColor" fill="currentColor" stroke-width="0" viewBox="0 0 512 512" height="1em" width="1em" xmlns="http://www.w3.org/2000/svg"><path d="M415.03 38.906c-2.794.005-5.565.53-8.25 1.594-4.075 1.648-7.143 3.84-10.56 8.375-27.334 36.324-67.68 83.128-131.533 124.53l-12.28 18.75 18.312 5.595 11.03 3.344-5.563 10.094-9.125 16.562c2.385-1.362 5.07-3.048 8.25-5.188 15.275-10.276 38.768-18.713 62.75-25.812 15.215-4.503 30.475-8.303 43.563-11.156 31.948-9.55 60.308-14.5 83.625-17.156 52.326-5.95 22.144-83.66-32.094-55.594 37.618-27.9 8.9-73.98-18.125-73.938zm-346.655 45c-28.726.37-49.683 57.57-3.844 75.688-58.636-12.918-67.653 68.684-16.374 61.03 23.778-3.55 53.397-6.117 87.938-4.843 31.402-.33 63.477 2.57 92.47 11.22 6.33 1.89 11.21 3.374 15.155 4.344l10.53-19.094-19.22-5.844-11.936-3.625 6.844-10.436 11.562-17.688c-71.992-23.103-122.678-57.6-158.156-85.344-4.465-3.167-7.813-4.838-12.156-5.25-.94-.11-1.886-.168-2.813-.156zM354.22 211.594c-3.612.99-7.226 2.022-10.845 3.094-23.17 6.858-46.06 15.626-57.625 23.406-12.47 8.39-21.75 12.78-31.72 13.22-9.967.436-18.434-2.714-30.81-6.408-19.873-5.93-41.98-8.95-64.532-9.97l13.843 64.22 13.25-42.5 14.845 66.72 7.313 106.312 9.312 50.718 7.875-51.156 3.25-82.188 10.78-61.656 23.47 91.438 19.094-22.125 8.5 64.81 10.155 40.97 8.875-34.594L316.78 288l23.44 53.875 14-130.28z"></path></svg>