<svg stroke="currentColor" fill="currentColor" stroke-width="0" viewBox="0 0 512 512" height="1em" width="1em" xmlns="http://www.w3.org/2000/svg"><path d="M201.7 103c.1-3.13 0-6.23-.2-9.23l54.3 65.93c4.1 5.3 6.6 10.7 7.8 16.8 1.3 7.2.5 14.7-2.3 21.5-1.9 4.6-4.8 8.8-8.3 12.4-11.7 9.2-20.7 12.6-34 10.3l-83.6-17.1.5-.3c12.6-5.8 23.9-13.8 33.5-23.8 9.7-10.1 17.6-21.8 23.1-34.7 5.7-13.2 8.9-27.4 9.2-41.8zm52.3 25.3l16.1 19.6c6 7.3 10 15.9 11.7 25.2 4.7 26.2-9.3 52.2-33.9 62.6-5.4 2.2-11 3.6-16.8 4.1-5.4.4-10.7.3-15.9-.9l-55.7-11.5-1.3 23.4 128.1-.4 1.3-124.6zm78.6 47.2c-4.9.3-9.7 5.2-11.9 8.7-2.2 4.2-2.8 9.4.2 13.2 3.2 3.4 7.8 3.6 11.8 1.4 3.1-1.7 5.3-4.4 6.8-7.2 3.4-7.2.5-16.4-6.9-16.1zm11.6 41.4c-.6-.4-1.2-.7-1.8-.9-6.2-2.1-12.9 3.5-15.2 8.1-1.8 4.3-1.9 9.5 1.4 12.9.8.8 1.7 1.4 2.7 1.9 4.6 2.2 10.2-.3 13.2-3.6 2-2.7 3.5-6 3.7-8.9.2-3.7-1.7-7.7-4-9.5zm20.1-2c5.3-3.7 6.4-12.2 3.6-16.3-4.5-3.7-10-7.1-14.2-10.1v.1c-1.1 5.9-3.6 11.2-7.3 15.3 6.5 3 12.5 7.5 17.9 11zm-19 36.7c-4.8.4-9 4.7-10.7 8.4-1.6 4.4-.9 9.5 2.6 12.7 4.9 4.3 12 2.9 16-1.8 1-1.2 1.8-2.5 2.3-4 2.2-7.2-1.4-15.9-10.2-15.3zm30.7 1.2c.2-.3.5-.5.7-.8 3-3.6 3.3-8.2 1.5-12.2-.8-1.4-1.9-2.4-3.1-3.3-4.8-2.9-9.5-5.8-14.1-8.7-.6 5-2.1 9.5-4.8 13.3 6.6 4 14 8.4 19.8 11.7zm-50.5-2.5c-2.2-1.1-4.3-2.6-6-4.4-2.3-2.4-4-5.2-5.1-8.3-1.1-3.1-1.5-6.4-1.2-9.7.3-3.2 1.1-6.2 2.4-9.1 1.1-2.4 2.6-4.7 4.4-6.7l-2.8-1.5c-2.3-1.2-4.3-2.9-6-4.9-2.1-2.6-3.6-5.6-4.4-8.9-.7-3.2-.8-6.5-.2-9.7.5-3.1 1.5-6 3-8.8 1.4-2.6 3.1-5 5.2-7.1 2.1-2.1 4.5-3.9 7.1-5.3 2.8-1.5 5.8-2.5 9-2.9h.6c-9.2-13.9-16.3-24.8-25.3-38.6l-1.4 126c6.2.4 11.7 3.4 17.7 5.8.8-2.1 1.9-4.3 3-5.9zm31.2 38.5c-6-1.9-12.8 3.1-14.4 7.9-1 3-.7 6.3.6 9 2.9 7.3 14 8.2 19 1.7.9-1.2 1.9-2.5 2.1-4 1-6.9-1-12.3-7.3-14.6zm28.1.5c5.6-3.5 5.1-12 1.4-15.8-.6-.5-1.2-1-1.9-1.4l-15.3-8.7c-.2 5.3-1.9 10.4-5.1 14.6 7.3 3.8 14.7 8 20.9 11.3zm-9.5 35c-3-2.2-6.7-3.9-9.9-3.8-3 .4-5.7 1.9-7.6 4.3-1.9 2.4-2.8 5.5-2.4 8.5.4 2.3 1.1 3.8 2.4 5.6 4.7 5.8 13.6 6.5 18.3.3 3.5-4.7 2.6-10.7-.8-14.9zm18.7 1.6l.2-.2c2.2-1.2 3.9-3.3 4.5-5.8 1.3-4.9-1.2-9.1-5.2-11.6-5.5-2.9-10.9-5.7-16.3-8.6 0 5.5-1.8 10.8-5.1 15.2 8 3.5 14.5 7.1 21.9 11zm-10.3 28.6c-3-.8-6.3-.6-8.9 1-2.5 1.4-4.4 3.9-5.1 6.7-.4 4 .2 7.5 2.5 10.2 5.1 7.4 18 5.9 20.1-3.7 1.4-5.8-2.5-12.8-8.6-14.2zm29-.1c.5-.9.9-1.8 1.1-2.8.8-4.8-1.4-9.4-5.7-11.5l-17-8.6c.2 3.9-.6 7.7-2.3 11.2 8.1 3.5 17 8.3 23.9 11.7zm-10.5 33.1c-3.2 7.2-3.2 7.2 0 0-3.6-1.4-8.3-.9-11.1.7-5.4 3.6-6 12.3-1.6 16.9 4.9 5.9 18.4 5.2 20.1-4.5.9-5.3-2.2-10.9-7.4-13.1zm26.6-2.4v-.2c.6-3.2-.4-5.9-2.1-8.4-1.1-1.3-2.5-2.2-3.9-3-5.8-2.9-11.6-5.7-17.4-8.5.2 3.3-.3 6.5-1.5 9.6 8 2.8 16.6 6.9 24.9 10.5zm-5.4 33.8c-4.1-2-9.7-1-12.7 1.3-1.7 1.4-2.9 3.4-3.4 5.6-.6 3.8.5 7.3 2.8 10.2 1.5 1.7 3.4 3 5.5 3.7 3.3 1.2 6.9.8 9.8-.8 2.5-1.5 4.3-3.9 4.9-6.8 1.1-5.5-2.7-10.8-6.9-13.2zm23.4-2.9c.1-.3.1-.6.2-.9.6-5.2-2.4-8.9-6.6-11.2l-18.1-7.7c.4 3 .1 6-.7 8.9 9.1 3.2 17.9 7.3 25.2 10.9zm8.4 62.2c6.1 2.4 12.1 4.8 18.2 7.2 6 1.3 11.6-.6 13-6.2.3-5.3-1.9-9.2-5.8-11.5-5.8-2.8-11.6-5.6-17.5-8.5.4 7.1-3.3 15-7.9 19zm-5.9-22.8c-3.9-6.3-10.8-9-17.1-5.6-2.5 1.4-4.3 3.9-4.9 6.7-1 4.7 1.1 9.3 4.8 12.1 3.9 2.8 8.8 3.4 13.1 1 5.3-3.3 6.2-9.1 4.1-14.2zm17.9-8.4c.3-4.5-2.8-8.1-6.3-10.1l-17.7-8.5c.1 2.7-.1 5.3-.7 7.6 8.8 3.7 16.5 7 24.7 11zM284.7 291.2c-4.7.1-17.4 3.7-18.2 9.5l82.1 165.1c6.1-3 13.2-6.2 18.3-9.5-16.7-33.3-65.5-131.8-82.2-165.1zm-61-.7l-97.6 163.1c5.7 3.4 12.7 7.3 18 10.3 19.5-33.1 77.9-130.2 97.5-163.2-.9-3.5-12.3-12.6-17.9-10.2zm28.5 28.6l22.7 78.3c5.7-1.4 11.5-3.3 16.6-4.7l-37.8-76.1zm-29.3-47.4c3-.3 6.4.2 8.9 1 7.1 2.3 13.9 5.8 19.4 10.5.8.7 1.6 1.4 2.4 2.2h1.1c7.3-5.9 18.9-12 26.8-12.9 5.7-.2 11.8 1.8 15.4 4.9 2.7 2.1 4 5.1 5.6 8.2 14.7 0 29.4.2 44.1.3-14-5.7-28-11.4-42.1-17-49.2 0-98.3.2-147.5.4l48.4 9.1 3.5.6c3.4-4.3 8.5-7 14-7.3zM89.96 56.17c-2.09-1.2-4.5-1.72-6.9-1.5-.92.1-1.82.3-2.7.6a14.386 14.386 0 0 0-8.2 6.7c-1.88 3.2-2.45 6.99-1.6 10.6 1.49 6.88 8.63 10.93 15.3 8.7 7.24-2.38 11.48-9.87 9.8-17.3-.72-3.28-2.79-6.11-5.7-7.8zm93.24 46.33c-.3 12-2.9 23.9-7.7 34.9-4.7 10.8-11.3 20.7-19.5 29.2a91.39 91.39 0 0 1-27.8 19.9c-8.3 3.8-17.3 6.2-26.4 7-1.95.2-3.94.3-5.94.3a69.44 69.44 0 0 1-30.4-6.7 66.506 66.506 0 0 1-22.9-17.9c-6.2-7.6-10.83-16.3-13.6-25.7a84.42 84.42 0 0 1-3.1-31.1c.87-10.8 3.58-21.28 8-31.13a98.478 98.478 0 0 1 17.2-26.1 93.2 93.2 0 0 1 24.3-19 81.99 81.99 0 0 1 29.54-9.5l2.2-.2c9.4-.84 18.9.21 27.9 3.1 9.4 3.03 17.9 8.08 25.1 14.8 7.5 7 13.3 15.52 17.2 25 4.2 10.52 6.3 21.81 5.9 33.13zM111 56.07l-9.8-8.7c-.4-.33-.6-.56-1-.9-6.66-5.5-15.71-7.2-23.94-4.5a28.235 28.235 0 0 0-16.2 13.1 28.233 28.233 0 0 0-3 20.7 25.635 25.635 0 0 0 16.1 18.3l14.2 5.5c.23.11.46.21.7.3 3.12 1.03 6.42 1.43 9.7 1.13 8.24-.8 15.54-5.58 19.54-12.83 6.3-11 3.5-25-6.3-32.1z"></path></svg>