<svg stroke="currentColor" fill="currentColor" stroke-width="0" viewBox="0 0 512 512" height="1em" width="1em" xmlns="http://www.w3.org/2000/svg"><path d="M391 33.2v46h-78.2c.2-14.28.2-29.62.2-46zm-192 0c0 16.38 0 31.72.2 46H121v-46zm192 64v55c0 29.8-11.3 63.9-33.8 90.1-22.5 26.3-55.7 44.9-101.2 44.9s-78.7-18.6-101.2-44.9C132.3 216.1 121 182 121 152.2v-55h78.7c.7 22.8 2.2 42.5 5.5 58.8 3.1 15.8 7.9 28.8 16.3 38.4 8.3 9.5 20.5 14.8 34.5 14.8s26.2-5.3 34.5-14.8c8.4-9.6 13.2-22.6 16.3-38.4 3.3-16.3 4.8-36 5.5-58.8zm-135 16c12.5 0 25.1 1.2 37.3 3.7-.8 13.6-2.1 25.6-4.1 35.5-2.9 14.2-7.1 24.2-12.2 30.1-5.2 6-11 8.7-21 8.7s-15.8-2.7-21-8.7c-5.1-5.9-9.3-15.9-12.2-30.1-2-9.9-3.3-21.9-4.1-35.5 12.2-2.5 24.8-3.7 37.3-3.7zm145.5 85.5c3.5 10.1 5.4 21.1 5.5 32.8l-31.7 158.3c-14.2 42.1-55.5 84.8-110.3 89v-70.6h-18v70.6c-54.8-4.2-96.1-46.9-110.3-89L105 231.5c.1-11.7 2-22.7 5.5-32.8 5.3 16.7 13.5 33.1 24.7 47.9-8.6 36.2-4.7 72.4 6.2 108.3 5.2 16.7 12 31.4 20.1 42.6 8.1 11.1 18 19.7 30.5 19.7 10.2 0 18.8-4.2 25-9.8 6.2-5.6 10.5-12.2 14.5-18.2s7.7-11.4 11.5-14.8c3.8-3.4 7.2-5.2 13-5.2 5.7 0 9.2 1.8 13 5.2 3.8 3.4 7.5 8.8 11.5 14.8s8.3 12.6 14.5 18.2c6.2 5.6 14.8 9.8 25 9.8 12.5 0 22.4-8.6 30.5-19.7 8.1-11.2 14.9-25.9 20.1-42.6 10.5-40 15.2-70.6 6.2-108.3 11.2-14.8 19.4-31.2 24.7-47.9zm18 61.9c8 2.4 16 7.8 19.2 14.8 1.9 4.4 2.7 10.1.6 18.6l-16 64c-3.2 12.5-15 22.5-28.9 27.8zm-327 0l25.1 125.2c-13.9-5.3-25.7-15.3-28.9-27.8l-16-64c-2.1-8.5-1.3-14.2.6-18.6 4.2-8.1 11.3-12.4 19.2-14.8zm269.2 3.2c.9 6.8 1.3 13.8 1.4 20.9-6.8 24.6-26.8 58.8-45.2 70.4-5 3.2-9.6 4.7-13.7 4.8-4 0-7.7-1.1-12.2-4.7-7.8-6.5-17.1-22.1-24.6-50.4 7.5-.5 14.7-1.5 21.7-2.9-.7 3.2-1.1 6.8-1.1 10.3 0 14.4 5.8 26 13 26s13-11.6 13-26c0-6-1.1-11.9-3-16.5 19.9-7.3 36.8-18.4 50.7-31.9zm-211.4 0c13.9 13.4 30.8 24.6 50.7 31.9-1.9 4.6-3 10.5-3 16.5 0 14.4 5.8 26 13 26s13-11.6 13-26c0-3.5-.4-7.1-1.1-10.3 7 1.4 14.2 2.4 21.7 2.9-7.5 28.3-16.8 43.9-24.6 50.4-4.5 3.6-8.2 4.7-12.3 4.7-4-.1-8.6-1.6-13.6-4.8-18.4-11.5-38.3-45.5-45.2-70 0-7.3.5-14.5 1.4-21.3zM256 329.5c3.3 9.2 6.9 16.9 10.9 23.4-3.4-1.1-7-1.7-10.9-1.7-3.9 0-7.5.6-10.9 1.7 4-6.5 7.6-14.2 10.9-23.4zm99.3 13.4c-.6 2.2-1.2 4.4-1.9 6.6-4.8 15.3-11 28.6-17.4 37.4-6.4 8.9-12.5 12.3-16 12.3-5.7 0-9.2-1.8-13-5.2-3.8-3.4-7.5-8.8-11.5-14.8-.7-1-1.3-2-2-3 3.6 1.2 7.3 1.7 11 1.7 8.2-.2 16-3.1 23-7.5 10.4-6.6 19.8-16.3 27.8-27.5zm-198.6.1c8 11.2 17.4 20.9 27.8 27.4 7 4.4 14.7 7.3 22.9 7.5 3.7 0 7.5-.5 11.1-1.7-.6 1-1.3 2-2 3-4 6-7.7 11.4-11.5 14.8-3.8 3.4-7.2 5.2-13 5.2-3.5 0-9.6-3.4-16-12.3-6.4-8.8-12.6-22.1-17.4-37.4-.7-2.1-1.3-4.3-1.9-6.5z"></path></svg>