<svg stroke="currentColor" fill="currentColor" stroke-width="0" viewBox="0 0 512 512" height="1em" width="1em" xmlns="http://www.w3.org/2000/svg"><path d="M133.844 19.97c-28.18.03-55.19 11.19-77.875 33.624-26.88 26.58-37.526 56.483-36.095 85.875 1.43 29.39 15.237 58.516 39 82.28 9.592 9.593 44.044 33.04 74.78 52.563 1.14.723 2.104 1.293 3.22 2l44.344-44.344c-22.65-18.013-45.176-36.208-53.72-44.75h-.03c-24.88-24.882-22.98-56.233-5.626-73.032 17.354-16.8 48.748-18.29 73.25 5.937 8.61 8.51 26.702 30.837 44.656 53.313l38.438-38.407c-.71-1.12-1.305-2.073-2.032-3.218-19.468-30.66-42.827-64.955-52.47-74.656C195.738 33.16 165.59 20.706 136.564 20c-.91-.022-1.81-.032-2.718-.03zm190.312 77.25l-34.72 20.624c.836 1.31 1.673 2.633 2.502 3.937 19.683 31 36.406 59.032 36.406 59.032l3.75 6.25-5.156 5.157-46.313 46.31-7.47 7.47-6.5-8.344s-12.84-16.436-28.5-36.187l-28.843 28.843c19.79 15.62 36.22 28.437 36.22 28.437l8.374 6.47-7.5 7.5-52.344 52.374-5.156 5.156-6.25-3.75s-24.577-14.675-53.125-32.688l-19.78 48.22 36.375-14.344 15.156 81.718 28.126-55.28 60.406 63.25-15.718-86.126 51.875 6.28 2.624 1.345 4.03 47.344 77.595 11.092-12.095 52.375L403.47 492h86.624v-81.594l-50.375-29.22 10.092-41.31-96.718-3.032 14.094-44.313-42.157-29.967 2.345-21.094 52.344 17.06-31.126-69.75 42.72-22.53-65.44-20.063-1.718-48.968zm-35.78 54.03l-36.907 36.906c11.742 14.79 19.468 24.643 23.405 29.688l33.656-33.656c-3.222-5.365-10.39-17.252-20.155-32.938zm-92.407 92.406l-42.876 42.875c15.686 9.766 27.573 16.934 32.937 20.158l39.72-39.75c-5.06-3.934-14.962-11.59-29.78-23.282z"></path></svg>