<svg stroke="currentColor" fill="currentColor" stroke-width="0" viewBox="0 0 512 512" height="1em" width="1em" xmlns="http://www.w3.org/2000/svg"><path d="M255.063 20.514c-60.516 0-121.033 23.085-167.204 69.256-38.092 38.09-60.454 85.947-67.12 135.51h47.252l-.002 18.69H33.486l-.002 37.335-13.62-.002c2.38 23.163 8.178 46.037 17.382 67.816l45.617-26.34 26.598 46.07-16.183 9.343-17.254-29.882-30.796 17.784C56.107 387 70.31 406.626 87.86 424.176c37.834 37.834 85.302 60.154 134.507 66.986l-.002-44.988h53.196v18.69h-34.507l.002 28.14c65.096 3.84 131.476-19.092 181.213-68.828 17.646-17.647 31.908-37.394 42.81-58.43l-26.174-15.113-17.254 29.883-16.183-9.344 26.597-46.068 40.97 23.654c8.037-19.108 13.455-39.053 16.247-59.295h-47.667V236.27h18.69v34.505h30.804c3.78-65.028-19.158-131.32-68.84-181.004-18.245-18.242-38.734-32.866-60.572-43.9l-15.62 27.054 29.882 17.254-9.344 16.183-46.068-26.596 24.072-41.694c-19.263-7.87-39.353-13.088-59.715-15.664l.002 47.81H231.71v-18.69h34.505l-.002-30.75c-3.715-.173-7.433-.262-11.15-.262zM180.647 53.39l9.344 16.184-29.883 17.254 12.546 21.73c25.148-13.818 53.054-20.736 80.963-20.736 43.077 0 86.156 16.46 119.077 49.38 6.106 6.107 11.644 12.566 16.617 19.306l43.207-24.95 26.6 46.07-16.184 9.343-17.254-29.882-26.118 15.08c37.227 64.406 28.278 148.047-26.867 203.19-4.195 4.197-8.558 8.122-13.062 11.783l7.803 13.51-29.885 17.254 18.67 32.33-16.186 9.346-26.473-45.85c-45.283 17.244-96.464 14.22-139.68-9.062l-15.195 26.312 29.882 17.254-9.343 16.184-46.07-26.598 24.78-42.918c-8.228-5.7-16.067-12.21-23.4-19.543C87.165 327.98 73.88 259.57 94.683 200.395l-46.91-27.082 9.347-16.185 32.33 18.667 17.255-29.883 13.38 7.73c4.404-5.71 9.22-11.205 14.456-16.44 6.993-6.992 14.446-13.234 22.257-18.74L134.58 79.985l46.068-26.597zm72.504 57.018c-37.152.095-74.26 14.304-102.572 42.615v.002h-.002c-56.824 56.827-56.825 149.187 0 206.012h.002v.002c56.825 56.824 149.19 56.824 206.014-.003 41.23-41.23 52.65-100.932 33.99-152.46l-8.295-22.9-5.946 14.663c-2.25 9.23-6.96 17.972-14.137 25.148-20.905 20.905-55.083 20.905-75.988 0-6.89-6.887-11.492-15.22-13.84-24.04-.027-.097-.055-.195-.08-.294-.16-.614-.31-1.23-.446-1.85l-.12-.548c-.118-.56-.23-1.12-.332-1.682-.047-.262-.087-.524-.13-.787-.086-.522-.17-1.044-.24-1.568-.03-.23-.055-.46-.083-.69-1.92-15.857 3.16-32.42 15.27-44.528 7.507-7.508 16.73-12.305 26.434-14.42 19.705-7.247 16.066-6.905-12.795-14.603-20.152-5.61-37.377-8.034-46.708-8.072zm.09 18.668c7.882-.013 15.756.77 23.533 2.213-1.27 1.106-2.548 2.198-3.767 3.417v.002c-20.038 20.04-25.754 49.133-17.162 74.347-.25-.004-.497-.02-.748-.02-26.44 0-47.87 21.434-47.87 47.873 0 26.44 21.43 47.87 47.87 47.87 26.44 0 47.87-21.43 47.87-47.87 0-.8-.02-1.595-.06-2.385 24.655 7.47 52.58 1.506 72-17.914 1.232-1.23 2.337-2.52 3.455-3.805 7.455 39.732-4.12 82.156-34.984 113.02h-.003c-49.69 49.69-129.894 49.69-179.582 0h-.002c-49.69-49.69-49.687-129.894 0-179.585l.002-.002c24.754-24.75 57.083-37.106 89.447-37.162zm70.97 21.32c-8.947 0-17.897 3.44-24.778 10.32-13.763 13.764-13.763 35.795 0 49.557 13.762 13.763 35.793 13.763 49.556 0 13.763-13.762 13.763-35.793 0-49.556-6.88-6.882-15.83-10.322-24.777-10.322z"></path></svg>