<svg stroke="currentColor" fill="currentColor" stroke-width="0" viewBox="0 0 512 512" height="1em" width="1em" xmlns="http://www.w3.org/2000/svg"><path d="M211.1 33c-25.9 0-49.4 2.68-65.7 6.76-8.2 2.04-14.6 4.51-18.2 6.65-1.3.78-1.7 1.18-2.1 1.59.4.41.8.81 2.1 1.59 3.6 2.14 10 4.61 18.2 6.65 16.3 4.08 39.8 6.76 65.7 6.76 25.9 0 49.4-2.68 65.7-6.76 8.2-2.04 14.6-4.51 18.2-6.65 1.3-.78 1.7-1.18 2.1-1.59-.4-.41-.8-.81-2.1-1.59-3.6-2.14-10-4.61-18.2-6.65C260.5 35.68 237 33 211.1 33zm-87 35.13v40.07c6.5 3.3 15 6.6 21.3 8.2 16.3 4.1 39.8 6.8 65.7 6.8 25.9 0 49.4-2.7 65.7-6.8 12-2.9 13.4-3.2 21.3-8.2V68.13c-4.9 2.16-10.5 3.97-16.9 5.57-18.5 4.61-43 7.3-70.1 7.3-27.1 0-51.6-2.69-70.1-7.3-6.4-1.6-12-3.41-16.9-5.57zm8.6 63.47c-8.3 2.9-16.5 8.1-23.2 14.8C98.88 156.9 92.1 171 92.1 184v64c0 5 2.2 9.3 7.86 14.2 5.64 4.8 14.74 9.5 25.94 13.3 22.6 7.5 53.9 11.5 85.2 11.5 31.2 0 62.6-4 85.2-11.5 11.2-3.8 20.3-8.5 25.9-13.3 5.7-4.9 7.9-9.2 7.9-14.2v-64c0-13-6.8-27.1-17.4-37.6-6.7-6.7-14.8-11.9-23.2-14.8-2.6.8-5.4 1.6-8.3 2.3-18.5 4.6-43 7.3-70.1 7.3-27.1 0-51.6-2.7-70.1-7.3-2.9-.7-5.7-1.5-8.3-2.3zM92.1 278.9V344c0 5 2.2 9.3 7.86 14.2 5.64 4.8 14.74 9.5 25.94 13.3 22.6 7.5 53.9 11.5 85.2 11.5 31.2 0 62.6-4 85.2-11.5 11.2-3.8 20.3-8.5 25.9-13.3 5.7-4.9 7.9-9.2 7.9-14.2v-65.1c-7.8 5.6-17.3 10-28.2 13.6-25.4 8.5-58.1 12.5-90.8 12.5-32.8 0-65.4-4-90.8-12.5-10.9-3.6-20.45-8-28.2-13.6zm0 96V440c0 5 2.2 9.3 7.86 14.2 5.64 4.8 14.74 9.5 25.94 13.3 22.6 7.5 53.9 11.5 85.2 11.5 17.5 0 35.2-1.3 51.2-3.7-3.2-4.5-5.2-9.6-5.2-15.4 0-11.8 8.3-21.1 18.7-26.9 6.3-3.6 13.8-6.1 22-7.6 2.2-8.9 9.4-16 17.9-20.8 4.3-2.4 9.2-4.4 14.4-5.9v-23.8c-7.8 5.6-17.3 10-28.2 13.6-25.4 8.5-58.1 12.5-90.8 12.5-32.8 0-65.4-4-90.8-12.5-10.9-3.6-20.45-8-28.2-13.6zM354 413.6c-11.9 0-22.6 2.8-29.5 6.7-2.3 1.3-4 2.6-5.4 3.8 12.6.7 24.2 3.8 33.3 8.9 6.2 3.5 11.7 8.2 15 13.9 3-7.5 9.4-13.6 17-17.8 2-1.1 4.1-2.1 6.3-3.1-1.5-1.8-3.8-3.8-7.2-5.7-6.9-3.9-17.6-6.7-29.5-6.7zm68.7 24.5c-11.9 0-22.6 2.8-29.5 6.7-7 3.9-9.5 8.1-9.5 11.2 0 3.1 2.5 7.3 9.5 11.2 6.9 3.9 17.6 6.7 29.5 6.7 11.9 0 22.6-2.8 29.5-6.7 7-3.9 9.5-8.1 9.5-11.2 0-3.1-2.5-7.3-9.5-11.2-6.9-3.9-17.6-6.7-29.5-6.7zM314.1 442c-11.9 0-22.6 2.8-29.5 6.7-7 3.9-9.5 8.1-9.5 11.2 0 3.1 2.5 7.3 9.5 11.2 6.9 3.9 17.6 6.7 29.5 6.7 11.9 0 22.6-2.8 29.5-6.7 7-3.9 9.5-8.1 9.5-11.2 0-3.1-2.5-7.3-9.5-11.2-6.9-3.9-17.6-6.7-29.5-6.7z"></path></svg>