<svg stroke="currentColor" fill="currentColor" stroke-width="0" viewBox="0 0 512 512" height="1em" width="1em" xmlns="http://www.w3.org/2000/svg"><path d="M226.502 17.773c-44.12.506-112.97 320.03-100.887 386.12 10.002 54.708 84.118 85.005 133.518 89.68 49.062 4.644 114.82-14.037 126.773-100.86l-7.035 4.04c-.863 1.036-4.473 5.37-9.29 11.084-4.864 5.77-9.245 11.08-12.188 14.186l-.01.01c-.295.312-.594.627-.86.892.433-.43.698-.71.853-.88-.13.162-.287.38-.412.656-.39.86-.95 2.25-1.555 3.895-1.213 3.292-2.647 7.642-3.988 11.91-2.684 8.538-5.018 16.766-5.018 16.766l-2.334 8.232-34.18-7.846-22.105 19.13-38.524-7.142 31.445-10.533 24.308-21.038 26.528 6.088c.954-3.25 1.25-4.41 2.71-9.05 1.39-4.423 2.874-8.952 4.27-12.737.697-1.893 1.362-3.59 2.058-5.12.696-1.533.725-2.56 3.22-5.054.074-.077 6.704-7.657 12.022-13.964 5.318-6.307 10.27-12.252 10.27-12.252l1.035-1.238 20.566-11.817c.035-1.1.074-2.198.093-3.317.154-9.013-6.625-36.675-17.723-72.682l-.414 3.11-36.853 7.065-2.662 11.654-17.548-4.01 5.283-23.11 35.654-6.838 3.114-23.37 2.053.275c-5.364-15.942-11.263-32.673-17.592-49.64l-1.83 5.323-17.023-5.85 7.726-22.474 2.678.92c-10.27-26.297-21.314-52.413-32.593-75.998l-3.32 6.482 15.683 23.94-52.146 19.85 26.675-25.882-11.006-16.797 14.15-27.624c-7.455-14.38-14.925-27.348-22.248-38.298l-13.034 8.812.305-25.86c-10.21-11.97-19.914-18.937-28.61-18.837zm82.244 208.148l22.543 18.314-16.194 3.414-12.586 17.08-36.42-.568.28-17.998 27.15.423zm40.95 94.757l15.833 1.582-1.792 17.907-4.035-.402-17.22 31.104-30.75-20.13-31.03 7.79 31.545-28.964 23.877 15.63zM255.6 389.12l25.033 19-22.643 1.122-26.937 18.248-10.096-14.903z"></path></svg>