<svg stroke="currentColor" fill="currentColor" stroke-width="0" viewBox="0 0 512 512" height="1em" width="1em" xmlns="http://www.w3.org/2000/svg"><path d="M198.5 25l-29.4 88.1c.3 2.5 1.6 4.9 5 7.8 3.9 3.4 10.5 6.8 18.7 9.6 16.6 5.5 40 8.5 63.2 8.5 23.2 0 46.6-3 63.2-8.5 8.2-2.8 14.8-6.2 18.7-9.6 3.4-2.9 4.7-5.3 5-7.8L313.5 25h-115zM39.03 41l-11.5 46H158.8l15.4-46H39.03zm298.77 0l15.4 46h131.3L473 41H337.8zM215 55h82v52h-82V55zm18 18v16h46V73h-46zM69.91 105c-5.4 12.2-10.48 29.1-15.13 48.5 50.82 3.4 89.62 5.8 122.92 7.4l1.9-16.2c-6.6-2.7-12.4-6-17.2-10.1-6.6-5.7-11.4-13.6-11.4-22.6v-1.5l1.8-5.5H69.91zm289.29 0l1.8 5.5v1.5c0 9-4.8 16.9-11.4 22.6-4.8 4.1-10.6 7.3-17.1 10.1l1.9 16.2c33.2-1.6 72-4 122.8-7.4-4.6-19.4-9.7-36.3-15.1-48.5h-82.9zm-162.6 45.3l-27.2 230.8L256 482.2l86.6-101.1-27.2-230.8c-17.6 4.5-38.4 6.7-59.4 6.7s-41.8-2.2-59.4-6.7zM50.79 171.4c-3.01 14.3-5.78 29.6-8.3 45.3 53 3.5 93.41 6.2 127.71 7.9l5.4-45.7c-33.8-1.6-73.2-4.1-124.81-7.5zm410.41 0c-51.5 3.4-90.9 5.9-124.7 7.5l5.4 45.7c34.3-1.7 74.6-4.4 127.6-7.9-2.5-15.7-5.3-31-8.3-45.3zM39.76 234.6c-1 6.9-1.94 13.7-2.83 20.6-1.08 8.4-2.08 16.7-3.02 25 53.35 3.6 94.19 6.2 128.79 8l5.4-45.7c-34.6-1.7-75.25-4.4-128.34-7.9zm432.54 0c-53.1 3.5-93.7 6.2-128.3 7.9l5.3 45.7c34.6-1.8 75.5-4.4 128.8-8-.9-8.3-1.9-16.6-3-25-.9-6.9-1.8-13.7-2.8-20.6zM31.97 298.1c-1.68 16.2-3.04 31.7-4.11 45.6 52.58 3.5 92.94 6.2 127.34 8l5.4-45.6c-34.7-1.8-75.52-4.5-128.63-8zm448.03 0c-53.1 3.5-93.9 6.2-128.5 8l5.3 45.6c34.4-1.8 74.7-4.5 127.3-8-1-13.9-2.4-29.4-4.1-45.6zM26.6 361.7C25.54 378.2 25 391.6 25 400c0-.1.14 1.3 3.89 3.9 3.75 2.7 10.25 5.7 18.53 8.6 16.56 5.7 40.24 10.7 65.98 14.6 26.2 4 54.6 7 80.3 9l-42.6-49.6 2-16.8c-34.3-1.9-74.5-4.5-126.5-8zm458.8 0c-52 3.5-92.2 6.1-126.5 8l2 16.8-42.6 49.6c25.7-2 54.1-5 80.3-9 25.7-3.9 49.4-8.9 66-14.6 8.3-2.9 14.8-5.9 18.5-8.6 3.8-2.6 3.9-4 3.9-3.9 0-8.4-.5-21.8-1.6-38.3z"></path></svg>