<svg stroke="currentColor" fill="currentColor" stroke-width="0" viewBox="0 0 512 512" height="1em" width="1em" xmlns="http://www.w3.org/2000/svg"><path d="M426.24 30c-13.635.02-38.617 9.837-47.707 20H68.24c-32 0-32 64 0 64h310.301c9.088 10.16 34.067 19.978 47.7 20 17.123-.025 32.937-13.17 41.5-28h-39.5l-22-24 22-24h39.519c-8.565-14.835-24.39-27.982-41.52-28zm-342 36c8.837 0 16 7.163 16 16s-7.163 16-16 16c-8.836 0-16-7.163-16-16s7.164-16 16-16zm75.77 117c-8 0-13.83 4.038-20.166 8.813-6.336 4.774-12.98 10.944-20.041 17.67-13.752 13.096-29.103 28.29-43.608 38.218l45.407 1.135c11.17-20.948 18.277-40.386 38.408-47.836h71v50.572l18 .45V201h23c11.5 0 30.948 10.484 50.377 26.027 10.483 8.387 21.064 18.01 31.117 27.608l49.611 1.24 49.729-58.018-13.668-11.714-59.237 69.109c-13.952-13.825-29.952-29.196-46.306-42.28C313.06 196.517 292.51 183 272.01 183h-112zM47.986 265.004c-4.995.008-11.034 2.78-15.613 7.36C27.787 276.948 25.01 283 25.01 288c0 13 7.276 32.26 16.633 47.23 4.355 6.97 9.123 13.056 13.38 17.313-.001-.182-.013-.36-.013-.543 0-31.374 25.626-57 57-57 31.373 0 57 25.626 57 57 0 2.37-.163 4.704-.447 7h190.894a56.952 56.952 0 0 1-.447-7c0-31.374 25.626-57 57-57 31.373 0 57 25.626 57 57 0 2.37-.163 4.704-.447 7h9.392l5.035-45.326c-.106-12.823-6.276-21.985-14.603-28.647-8.4-6.72-19.377-10.027-24.377-10.027h-.114l-399.91-9.996zM112.01 313c-21.646 0-39 17.354-39 39s17.354 39 39 39c21.645 0 39-17.354 39-39s-17.355-39-39-39zm304 0c-21.646 0-39 17.354-39 39s17.354 39 39 39c21.645 0 39-17.354 39-39s-17.355-39-39-39zm-215 64v14h110v-14h-110zm48 32v46h14v-46h-14zm-35.438 64l-7 14h98.875l-7-14h-84.875z"></path></svg>