<svg stroke="currentColor" fill="currentColor" stroke-width="0" viewBox="0 0 512 512" height="1em" width="1em" xmlns="http://www.w3.org/2000/svg"><path d="M365.906 60.844C347.218 62.03 327.732 73.3 307.72 87.5c-20.814 14.77-41.852 32.27-64.626 41.875a8 8 0 0 1-9.125-2.125c-15.01-17.31-38.15-30.55-73.22-27.28-19.124 1.78-32.252 10.625-43.688 23.655-5.264 6-9.998 12.975-14.53 20.375h322.624c-15.21-29.846-29.05-64.182-59.25-83.156zM40 160v44h416v-44H40zm18.375 60l49.344 186.563H118c3.087-6.592 7.31-12.684 12.563-17.938 11.916-11.916 28.63-18.906 45.843-18.906 17.214 0 33.897 6.99 45.813 18.905 5.252 5.254 9.467 11.346 12.56 17.938h42.97c3.104-6.47 7.282-12.44 12.406-17.563 11.927-11.926 28.384-18.75 45.25-18.75 16.867 0 33.324 6.824 45.25 18.75 5.124 5.124 9.303 11.092 12.406 17.563h6.032L438.156 220H58.376zM426.22 355l-6.064 29H456v-29h-29.78zm-249.814 31.563c-11.69 0-23.728 4.915-32.25 13.437-8.522 8.522-13.75 21.002-13.75 33.344 0 12.34 5.228 24.82 13.75 33.344 8.522 8.522 20.56 13.437 32.25 13.437 11.69 0 23.697-4.915 32.22-13.438 8.52-8.522 13.78-21.002 13.78-33.343 0-12.342-5.26-24.822-13.78-33.344-8.523-8.522-20.53-13.438-32.22-13.438zm159 1.28c-12.037 0-24.3 5.083-32.812 13.594C294.082 409.95 289 422.212 289 434.25c0 12.038 5.082 24.3 13.594 32.813 8.512 8.51 20.775 13.593 32.812 13.593 12.038 0 24.3-5.082 32.813-13.594 8.51-8.51 13.592-20.774 13.592-32.812 0-12.038-5.08-24.3-13.593-32.813-8.513-8.51-20.776-13.593-32.814-13.593z"></path></svg>