<svg stroke="currentColor" fill="currentColor" stroke-width="0" viewBox="0 0 512 512" height="1em" width="1em" xmlns="http://www.w3.org/2000/svg"><path d="M17.34 17.38v34.08C37.24 85.91 61.4 120.5 95.03 151c6.97 24.6 23.57 43.7 46.27 53.9-5.9-8.2-9.4-18.1-9.6-30.1 12 .1 21.9 3.7 30.1 9.6-10.1-22.5-28.7-39-52.9-46-40.28-36.2-66.64-78.82-89.03-121.02zm26.96 0C98.65 32.32 173.5 71.74 240.5 124.5l16.3-11.6C205.6 71.81 149.6 38.58 99.97 17.38zm110.1 0c28.4 8.14 52.8 19.57 75.3 32.83 13 21.96 34.1 36.14 58.6 40.15-7.8-6.38-13.7-15.05-17-26.58 11.7-2.98 22.1-2.09 31.5 1.46-15.5-19.08-37.8-30.23-63-30.76-10.3-6.07-21-11.82-32.3-17.1zm171.3 4.96L321 71.62c-6.1 10.46-12.1 20.92-18.2 31.38-14.6 11.2-26.3 18.7-40.6 29l39.6 22.8h.1l38.3-13.9c37.3 28.7 84.7 43.6 133.5 39.8-21.2-44.6-57.8-78.2-101.5-96.03l-7-39.5zM194.9 148.8l-17.2 46.4c-8.6 8.4-17.2 17.1-25.7 25.7-14.9 5.8-31.2 11.8-46.6 17.5l32.3 32.3 40.6-3.5c28.6 37.3 70.5 64 118.6 72.9-8.9-48.5-35.6-90.5-73.1-119l3.4-40zm123.3 20l-18.2 6.6c17.1 17.7 33.5 38.1 44.3 52.6 1.1 24.4 12.1 46.1 30.6 61.3-3.5-9.5-4.3-19.9-1.4-31.6 11.6 3.3 20.2 9.3 26.6 17.1-4.1-25.4-19-47-42.3-59.9-12-15.9-25.3-31.3-39.6-46.1zM17.34 247.2v49.7c14.05 24.6 33.51 44.5 56.99 61 12.88 23.6 34.67 38.8 60.27 43-7.8-6.4-13.8-15.1-17.1-26.6 11.7-3 22.2-2.1 31.6 1.5-15-18.5-36.3-29.5-60.47-30.7-35.62-23.9-60.18-54.2-71.29-97.9zM441.3 249l-28.7 40.4c-10.5 6-20.9 12.1-31.4 18.1-16.1 1.9-33.2 3.3-49.6 4.8l22.9 39.6 40.1 7.1c17.9 43.5 51.5 80.1 95.7 101.2 4-49.2-10.9-96.7-39.9-133.9l13.7-37.7zm-269.4 83.9l-4.6 49.3c-6.1 10.3-12.2 20.9-18.2 31.4-13 9.6-27 19.4-40.5 28.9l39.6 22.9 38.3-13.9c37.3 28.7 84.6 43.6 133.4 39.8-21.1-44.7-57.7-78.3-101.4-96.1l-7-39.5z"></path></svg>