<svg stroke="currentColor" fill="currentColor" stroke-width="0" viewBox="0 0 512 512" height="1em" width="1em" xmlns="http://www.w3.org/2000/svg"><path d="M427.978 239.957h-42c5.15 7 3.39 21.62-2.55 28.07-12.11 13.16 0 91.93 0 91.93h47s13.3-78.6 0-91.93c-6.19-6.2-7.93-21.07-2.45-28.07zm-360.84-136.95l52.92 23.6-52.92.43v-24zm288.65 271.95l-40.8 32.67a290.85 290.85 0 0 1-52-99.85l50.3-14.21a238.59 238.59 0 0 0 42.5 81.39zm-165.06-42a12.31 12.31 0 0 0 11.7-8.13l5.6-15.71 8.4.27-6.46 18.1a20.34 20.34 0 0 1-19.24 13.47h-56.13l3-8h53.1zm285.41-192.35v-15.65h-15v-28h27v91h-12zm-305.36 183l-.72 2.45-9.41-3.12-10.87-14.47 1.13-.9 9.35.26 1.12 11.49zm289.36-182.65v63h28v55h-18v-17.44a17.55 17.55 0 0 0-17.26-17.56h-90.74v-83zm-423.47 258.08l25.47 13.3a23.71 23.71 0 0 0 33.18-12.62l41.15-108.56 115.12 3.2 58.71-16.63-3.44-12.19a32.66 32.66 0 0 1 31.28-41.58h8v-82h-319v110.54s17.9.55 23.93 3.22c7.23 3.2 29.44 9.85 19 32.23-2.84 6.11-26.88 50.8-42.94 78a23.74 23.74 0 0 0 9.54 33.09zm274.69-233.08a23.92 23.92 0 0 1-23.9 23.89 23.25 23.25 0 0 1-21.16-12.89h-81a11 11 0 1 1 0-22h81a23.23 23.23 0 0 1 21.16-12.84 23.85 23.85 0 0 1 23.9 23.84zm-183.22 92.18a10.77 10.77 0 1 1 10.77 10.77 10.77 10.77 0 0 1-10.77-10.77zm-68.64-48.18a8 8 0 0 1 0-16h256.21a8 8 0 0 1 0 16zm220.06-44a7.9 7.9 0 1 1 7.9 7.9 7.9 7.9 0 0 1-7.9-7.9z"></path></svg>