<svg stroke="currentColor" fill="currentColor" stroke-width="0" viewBox="0 0 512 512" height="1em" width="1em" xmlns="http://www.w3.org/2000/svg"><path d="M219.6 71.39c-75.2.43-152.43 30.31-193.89 79.51 0 0 .1-.1.15-.1 12.91-7.7 30-13.9 49.66-19.1C114.7 106 168 89.88 219.7 89.42c5.1 0 10.2.1 15.3.33 39.9 2.09 100.9 17.45 151 39.45 21.4 9.5 40.9 20.1 55.9 31.1 6.2 2.9 12.1 5.9 17.4 9.2 15.3 9.3 27.1 20.4 32.4 34.3v-1.4c-.5-18.9-13.1-35.5-30.9-50.2-17.8-14.7-41.4-28-67.5-39.4-52.2-22.94-114-38.74-157.3-41.03-5.5-.28-10.9-.41-16.4-.38zm-21.7 63.21c-38.7.1-80.4 5.2-113.84 13.5-20.39 5.1-37.73 11.5-49.05 18.2-5.66 3.3-9.76 6.7-12.05 9.6-2.29 2.9-2.79 4.7-2.65 6.5v.1c.98 13.5 9.8 25.1 26.73 35.5 16.93 10.3 41.43 18.6 69.86 24.2 23.4 4.6 49.6 7.4 76.6 8.5 3.1-1.9 6.2-3.7 9.4-5.4 28.6-15.6 62.6-27.9 91.6-36.9 19.1-5.9 42.1-9.1 64.6-8.6 7.5.2 14.9.7 22.1 1.8 14.5 2 28 5.8 39.4 12.1 4.8 2.7 9.2 5.9 13.1 9.6 6.6.6 13.1 1.5 19.1 2.8 4.8-1.3 9.1-2.7 12.6-4.2 5-2.2 8.4-4.5 9.7-6 1.3-1.5 1.2-1.2.9-2.5-2.4-9.5-11.1-19.4-26.1-28.6-15-9.1-35.8-17.3-60-24.1-48.3-13.6-110-21.8-167.1-25.3-5.7-.4-11.4-.6-17.2-.7-2.6 0-5.1-.1-7.7-.1zm156.9 83.2c-19.3 0-39.1 2.9-54.9 7.8-28.5 8.9-61.5 20.9-88.4 35.5-26.9 14.7-46.7 32.2-51.4 48.8-1.3 4.6-.9 7.2.2 9.4s3.3 4.5 7.3 6.7c8 4.4 22.7 7.4 39.8 8.4 34.3 1.9 78.2-3.3 105.4-7.9 42.7-7.1 76.2-19 96-33.2 9.9-7.1 16.4-14.6 19.5-22 3.2-7.4 3.5-14.8.4-23.7-2.6-7.4-8.2-13.3-16.8-18.1-8.7-4.9-20.3-8.3-33.2-10.1-6.4-.9-13.1-1.4-20-1.6h-3.9zm91.6 25.9c3.6 11.9 3 24-1.5 34.7-4.9 11.4-13.8 21.2-25.6 29.6-23.7 16.8-59.2 28.8-103.5 36.3-28.1 4.7-72.5 10.1-109.4 8.1-18.4-1.1-34.9-3.7-47.5-10.6-6.3-3.4-11.7-8.2-14.8-14.7-3.2-6.5-3.5-14.3-1.4-22 1.8-6.6 4.9-12.8 8.8-18.5-21.4 8-39.8 16.8-55.06 25.7-21.5 12.5-36.73 25.6-45.49 37.4-8.81 11.8-10.98 21.7-8.81 29.9 6.15 23.2 21.57 37.9 43.87 47.5 22.29 9.7 51.29 13.6 81.49 13.5 60.5-.4 126.3-17.2 153.1-29.3 51.9-23.6 96.7-57.3 125.3-88 14.3-15.4 24.5-30.1 29.6-41.7 5.1-11.7 4.7-18.8 2.1-22.2-5.5-7.3-16.5-12.6-31.2-15.7zm-330.6 77.1l13.6 11.8c-8.9 10.4-14.8 20-17.1 27.5-2.3 7.4-1.6 11.7 1.8 16 3.4 4.3 11.3 8.9 25.4 11.8 14.2 3 34.2 4.1 60.6 2.8l1 18c-27.4 1.4-48.7.3-65.2-3.1s-28.5-9.1-35.8-18.2c-7.34-9.2-8.39-21.4-4.94-32.6 3.49-11.2 10.64-22.4 20.64-34z"></path></svg>