<svg stroke="currentColor" fill="currentColor" stroke-width="0" viewBox="0 0 512 512" height="1em" width="1em" xmlns="http://www.w3.org/2000/svg"><path d="M104.908 46.95c33.344 11.834 52.447 14.518 68.01 14.706 16.325.197 29.99-2.656 51.514-1.037 21.658 1.629 32.505 10.43 45.168 15.578 11.888 4.833 27.4 8.255 61.707 3.26-66.772-40.076-152.599-89.964-226.399-32.508zM191.2 87.386c4.057 13.656 10.663 21.204 18.088 24.488-.773-12.454-.509-24.688 7.47-35.299-9.732-1.057-20.628 6.2-25.558 10.81zm32.328-8.498c1.568 14.024-4.11 24.182-9.447 34.523 9.265 1.876 19.195-1.893 26.783-8.146-1.17-8.375-7.344-21.013-17.336-26.377zM67.885 80.457C50.997 96.998 34.105 114.579 18 129.854v228.408c31.808-16.728 59.288-33.89 104.908-49.237 61.672 59.818 112.321 127.51 190.582 175.479 6.51 2.88 55.376 5.528 57.2-8.268 1.858-6.51 1.546-14.804 1.546-14.804-.287-4.444-94.872-136.49-119.38-201.871a1028.956 1028.956 0 0 1-22.077-8.76c21.68 69.956 69.711 142.449 118.282 211.191l-19.375.469C214.826 383.37 147.297 271.74 82.946 172.156 224 224 359.6 296.106 483.73 272.113c1.521-23.39 2.866-56.89-20.894-81.078-27.544-28.04-58.994-48.217-86.895-74.004l-13.386-.48c-52.767-1.892-100.729 25.01-155.059 18.314-26.521-3.268-42.012-16.985-59.031-28.7-32.108-17.511-51.508-23.719-80.58-25.708zm333.982 112.182c18.978 8.82 38.855 23.802 40.112 44.004l-17.983.789c-2.628-14.809-17.65-23.054-29.418-28.336zm-261.22 22.273c46.154 67.645 95.56 165.463 141.81 186.07l-87.291-161.377c-18.32-8.08-36.485-16.415-54.52-24.693zm112.968 44.943l28.567 43.41 25.375-25.042c-18.077-5.31-36.063-11.537-53.942-18.368zm57.99 19.545l21.18 37.452 32.963-25.155c-18.126-2.965-36.179-7.163-54.143-12.297zm167.823 11.971c-15.845 3.029-31.658 4.663-47.43 5.09l34.727 33.926zm-108.381 1.164l29.04 38.895 27.976-34.885c-19.073.277-38.084-1.17-57.016-4.01z"></path></svg>