<svg stroke="currentColor" fill="currentColor" stroke-width="0" viewBox="0 0 512 512" height="1em" width="1em" xmlns="http://www.w3.org/2000/svg"><path d="M458.949 16.902c-21.23 45.511-62.196 13.713-94.89 12.604-92.464-.8-95.254 47.352-141.296 77.017-9.189-10.02-23.774-16.38-46.738-15.117-15.928.876-30.343 6.34-40.974 15.895-12.34 10.738-21.335 25.549-21.942 39.84 21.03-5.316 41.304-4.385 45.871 5.46 11.508 24.813-21.37 15.961-44.745 23.397-1.248.396-2.472.81-3.684 1.225-2.757 7.733-6.024 15.131-6.024 20.482 0 16.945 13.686 6.16 19.648 20.88.85 2.099 3.778 8.625 12.238 16.833 1.367 1.328 46-35.114 47.487-33.9-14.835 31.6-38.787 42.74-41.127 43.975-21.237 11.202-46.726 20.42-55.691 38.13l-.522-.168s-27.58 65.425-33.509 97.908c.575 16.747 25.672 12.545 25.672 12.545l39.527-11.785 4.686 16.94 119.482-150.627c-26.122-15.67-18.045-38.588-21.927-58.778 13.787-22.475 21.9-34.062 14.597-56.68 7.122-7.318 16.216-14.785 26.61-16.779 21.267-4.08 60.016 16.198 80.997 16.47 27.78.362 42.716-14.296 54.352-31.905-10.666 3.502-14.712 3.5-8.703-15.065-14.177 5.175-23.315 22.6-48.998 18.526-23.87-3.787-60.077-11.021-80.065-4.354 33.926-17.423 60.548-35.253 96.777-39.463 42.453 3.026 80.56 32.916 102.89-17.031zM340.169 153.78l-39.003 49.065 16.54 11.713 39.008-49.067zm-205.509 1.657c-5.303 0-10.607 1.195-10.607 3.584 2.163 2.943 9.788 5.337 13.459 5.42 5.858 0 7.755-.644 7.755-5.42 0-2.389-5.304-3.584-10.607-3.584zm140.864 47.156l-11.702 14.172L312.9 250.85l11.701-14.172zm-4.423 35.984L100.574 453.551s-10.247 8.425-.05 16.773c10.47 8.57 18.622-3.654 18.622-3.654L289.67 251.695zm18.932 41.914s-20.687 26.845-31.22 40.12c-42.147 53.119-125.718 156.698-127.942 158.156l.068 16.332H240.24l15.365-115.264 44.661 9.677s17.915 1.914 17.186-13.823c-4.626-21.768-19.228-74.864-27.42-95.198zm-22.714 48.874l8.746 21.61-14.493-3.73z"></path></svg>