<svg stroke="currentColor" fill="currentColor" stroke-width="0" viewBox="0 0 512 512" height="1em" width="1em" xmlns="http://www.w3.org/2000/svg"><path d="M203 26.06L56.47 52.7 158 116.1l55.4-69.22L203 26.06zm106 0l-10.4 20.82L354 116.1l101.5-63.41L309 26.06zm-53.7 4.44a275.263 275.263 0 0 0-29.1 1.73l8.4 16.89L217.1 71h77.8l-17.5-21.88 8.5-16.99c-10.6-1.14-20.8-1.67-30.6-1.63zM40.83 64.14c-.13 10.66-.53 21.21-1.95 31.15-1.59 11.11-4.38 21.71-9.87 30.61l39.93 26.6h.02l48.04 32-10 15-37.76-25.2-25.31 88.6c13.02-.3 26.96-1.4 39.21-5.4 16.11-5.4 29.16-14.9 36.36-36.3l29.7-89.3L40.83 64.14zm430.37.02L362.8 131.9l29.7 89.3c7.2 21.4 20.2 30.9 36.3 36.3 12.3 4 26.2 5.1 39.2 5.4l-25.3-88.5-37.7 25.1-10-15 48-32 40-26.6c-5.5-8.9-8.3-19.5-9.9-30.63-1.4-9.93-1.8-20.47-1.9-31.11zM202.7 89L168 132.4l-4.9 14.7C230 133.6 279 112.1 310 89.82l-.7-.82H202.7zm119.2 15.8l-2.1.5c-6.3 4.5-13.2 8.9-20.7 13.2l46 17.3-1.1-3.4-22.1-27.6zM277.3 130c-32 15.1-72.3 28.1-120.8 37l-20 59.8c-2.8 8.5-6.7 15.8-11.3 22 15 72.4 68.5 125 130.8 125 62.3 0 115.8-52.6 130.8-125-4.6-6.2-8.5-13.5-11.3-22l-23-68.9-75.2-27.9zM160 193h64v18h-8.4c.9 2.8 1.4 5.8 1.4 8.8 0 14.2-10.8 26.8-25 26.8s-25-12.6-25-26.8c0-3 .5-6 1.4-8.8H160v-18zm128 0h64v18h-8.4c.9 2.8 1.4 5.8 1.4 8.8 0 14.2-10.8 26.8-25 26.8s-25-12.6-25-26.8c0-3 .5-6 1.4-8.8H288v-18zm-96 18c-3.4 0-7 3.4-7 8.8s3.6 8.8 7 8.8 7-3.4 7-8.8-3.6-8.8-7-8.8zm128 0c-3.4 0-7 3.4-7 8.8s3.6 8.8 7 8.8 7-3.4 7-8.8-3.6-8.8-7-8.8zm-38.3 32.5l12.6 13c-11.2 10.7-23.6 18-37.2 18.5-13.7.5-27.2-6.1-39.5-18.7l12.8-12.6c10.1 10.3 18.4 13.6 26 13.3 7.7-.3 16.1-4.5 25.3-13.5zM256 295c8.4 0 16 1.5 22.4 4.7 2.1 1 4.1 2.3 6 3.9 7.7-1.9 15.8-4.6 24.3-8l6.6 16.8c-8.5 3.4-16.7 6.1-24.7 8.1-1.5 6.4-6.9 10.8-12.2 13.4-6.4 3.2-14 4.7-22.4 4.7-8.4 0-16-1.5-22.4-4.7-5.3-2.6-10.7-7-12.2-13.4-8-2-16.2-4.7-24.7-8.1l6.6-16.8c8.5 3.4 16.6 6.1 24.3 8 1.9-1.6 3.9-2.9 6-3.9 6.4-3.2 14-4.7 22.4-4.7zm-121.9 23.9l-74.73 36.8 40.6 94.8 46.53-31 5 7.5c27.2 40.8 66.7 56.8 95.5 59.6V441h-39v-18h29.3l-33.8-42.3c-27.9-12.2-51.9-33.9-69.4-61.8zm243.8 0c-17.5 27.8-41.5 49.6-69.4 61.8L274.7 423H304v18h-39v45.6c28.8-2.8 68.3-18.8 95.5-59.6l5-7.5 46.5 31 40.6-94.8-74.7-36.8zM43.17 363.6l-20.2 10V491h32v-27h18v27H198c-19.9-9.6-39.7-24.6-56.2-46.7l-49.83 33.2-48.8-113.9zm425.63.1L420 477.5l-49.8-33.2c-16.5 22.1-36.3 37.1-56.2 46.7h125v-27h18v27h32V373.6l-20.2-9.9zm-235 26.2l22.2 27.7 22.2-27.7c-7.2 1.2-14.7 1.9-22.2 1.9s-15-.7-22.2-1.9z"></path></svg>