<svg stroke="currentColor" fill="currentColor" stroke-width="0" viewBox="0 0 512 512" height="1em" width="1em" xmlns="http://www.w3.org/2000/svg"><path d="M230.357 17.62c-5.547.092-11.576 1.096-18.023 3.204-23.305 7.618-73.14 45.618-83.234 99.074 45.49-22.467 84.27-17.018 107.437-25.052 52.28-18.113 38.996-77.965-6.18-77.225zm120.215 54.4c-12.926.01-26.166 1.873-39.002 6.37 42.205 28.16 56.877 64.468 75.414 80.518 46.965 40.667 98.17-16.56 52.004-57.972-13.688-12.28-49.637-28.94-88.416-28.915zm-70.3 38.177c-19.064-.228-41 3.8-59.237 16.246 36.71 12.436 54.713 36.326 71.565 44.502h.002c42.693 20.722 69.162-31.628 26.91-53.056-7.83-3.974-22.416-7.49-39.24-7.693zm-90.295 15.278c-6.9-.114-14.648 2.048-22.71 7.304-15.69 10.228-44.953 48.12-41.83 89.562 29.127-25.574 58.818-29.222 74.327-39.727 31.31-21.207 17.284-56.694-9.787-57.14zM69.723 138.68c-16.972-.096-34.502 11.827-40.094 38.377-5.056 23.994 2.93 86.155 44.183 121.62 3.285-50.63 27.397-81.49 32.02-105.568 6.603-34.317-14.29-54.307-36.11-54.43zm282.162 22.603c7.584 38.012-4.102 65.546-2.758 84.23 3.4 47.335 61.976 44.085 59.406-3.224-1.01-18.703-19.197-62.992-56.648-81.007zm-95.64 27.38c-37.658 0-68.384 30.728-68.384 68.382 0 37.655 30.73 68.38 68.384 68.38 37.657 0 68.38-30.726 68.38-68.38 0-37.655-30.725-68.383-68.38-68.383zm0 18.68c27.558 0 49.702 22.143 49.702 49.702 0 27.56-22.14 49.7-49.703 49.7-27.56 0-49.703-22.14-49.703-49.7 0-27.56 22.143-49.703 49.704-49.703zm182.507 8.317c-3.286 50.63-27.396 81.49-32.02 105.57-11.738 61.004 63.423 76.735 76.205 16.05 5.054-23.995-2.932-86.156-44.185-121.62zm-305.86 19.27c-15.24.07-30.174 12.75-28.85 37.144 1.013 18.702 19.198 62.99 56.65 81.006-7.585-38.01 4.1-65.548 2.757-84.232-1.648-22.928-16.24-33.986-30.557-33.918zm254.247 57.09c-29.128 25.575-58.82 29.223-74.327 39.728-39.293 26.613-7.19 75.712 32.496 49.834 15.69-10.228 44.952-48.117 41.83-89.56zm-185.79 46.64c-30.664-.36-43.938 39.734-8.287 57.815 16.704 8.476 64.15 14.87 98.476-8.555-36.71-12.436-54.714-36.326-71.565-44.502h-.002c-6.67-3.238-12.945-4.69-18.623-4.758zm-108.18 2.844c-33.205-.786-54.937 40.19-19.592 71.896 18.25 16.375 76.075 40.54 127.416 22.545-42.204-28.16-56.877-64.467-75.414-80.515-11.007-9.532-22.245-13.686-32.41-13.926zm290.295 52.935c-45.488 22.465-84.27 17.016-107.436 25.05h-.003c-58.7 20.337-34.744 93.295 24.203 74.022 23.305-7.616 73.14-45.618 83.235-99.073z"></path></svg>