<svg stroke="currentColor" fill="currentColor" stroke-width="0" viewBox="0 0 512 512" height="1em" width="1em" xmlns="http://www.w3.org/2000/svg"><path d="M197.242 24.102c-40.986 10.368-78.605 33.52-106.36 69.652C53.07 142.972 33.22 216.81 49.6 317.006c79.374-42.55 132.106-95.527 166.947-168.307-4.973-41.636-11.247-83.365-19.308-124.598zm112.174 2.505c-7.667 42.868-13.397 87.133-17.94 132.58 38.35 68.048 90.915 120.903 182.096 158.698 9-98.344-16.265-171.888-57.968-221.614-29.16-34.768-66.487-57.994-106.188-69.663zm-57.654 39.608c-9.532.208-18.632 4.682-23.17 13.93 13.216 110.324 20.094 219.74 25.388 331.048 6.708-109.96 12.553-220.024 25.836-329.984-5.896-9.987-17.252-15.23-28.054-14.995zM220.21 181.518C188.277 237.364 144.217 281.93 84.83 318.432c-.4 34.104 4.104 72.597 14.824 115.63 59.937-35.375 100.948-104.268 127.596-172.07-1.93-26.61-4.24-53.49-7.043-80.474zm68.368 8.546c-2.33 26.464-4.324 53.303-6.123 80.477 29.86 65.904 70.47 133.18 140.707 164.692 10.74-41.73 15.13-79.366 14.51-112.96-68.55-33.934-114.492-78.57-149.094-132.208zm-58.603 113.184c-20.432 44.143-47.37 86.888-82.963 119.12 2.542 3.706 5.108 7.27 7.7 10.667 26.638 34.942 55.1 53.575 83.41 58.05-2.15-58.782-4.2-122.097-8.147-187.837zm50.054 5.75c-3.548 59.092-6.53 119.665-10.34 181.264 28.108-5.885 56.63-25.624 83.324-60.54 2.805-3.67 5.585-7.51 8.336-11.51-35.357-30.064-60.998-69.267-81.32-109.214z"></path></svg>