<svg stroke="currentColor" fill="currentColor" stroke-width="0" viewBox="0 0 512 512" height="1em" width="1em" xmlns="http://www.w3.org/2000/svg"><path d="M163.188 21.97c-7.297 26.986-10.203 53.018-7.938 78.436-14.85 7.285-25.906 20.114-25.813 37.438.283 52.65 14.304 78.17 27.75 103.28 13.548 25.303-13.83 40.578-25.812 11.626-9.234-22.314-15.026-41.954-32.938-67.78-9.084-13.102-22.705-17.43-36.124-15.75-11.94-18.19-21.904-36.186-30.188-56.282-7.62 29.437-8.15 53.222-.875 72.156-10.35 10.828-15.61 25.955-9.625 41.844 12.662 33.607 39.78 62.612 56.156 76.812 31.5 27.312 48.92 57.614 59.69 93.78L122.187 444l23.124-12.375-15.687 47.063 17.406-10.438c-1.464 10.67-4.858 19.785-9.843 29.156h220.094c-6.797-11.38-13.59-21.46-17.405-32.344l18.594 13.625-12.783-58.218 15.282 16.936.592-48.156c17.473-24.295 40.45-46.337 58.97-61.625 4.012-3.313 8.287-6.348 12.28-9.688 16.656-13.928 34.265-34.822 50.344-65.187 7.97-15.047 4.18-29.898-5.437-41.28 6.854-20.713 10.25-40.728 10.186-61.376l-39.03 43.03c-16.944-4.927-35.66-2.328-47.688 12.5-15.665 19.312-20.914 36.51-32.938 52.282-14.377 18.857-30.835 6.79-21.938-9.687 14.045-26.01 29.088-57.898 31.625-109.095 1.034-20.86-12.418-35.303-30.406-42.5 1.58-23.15-7.402-49.838-16.217-74.313-5.48 21.334-13.383 46.38-21.407 69.72-19.64 2.562-37.13 12.946-42.344 32.906-11.923 45.646-6.575 79.856-5.812 103.28.998 30.646-32.694 23.28-30.97 0 2.43-32.78 9.427-56.95-.655-103.937-3.872-18.04-18.63-27.624-35.688-30.093-6.52-25.415-18.27-48.343-31.25-72.218zm157.25 92.468c23.62.08 46.055 24.707 29.656 68.624-20.786 55.666-73.04 38.98-69.156-21.78 2.052-32.11 21.128-46.908 39.5-46.845zm-142.72 3.75c17.888-.42 38.083 16.814 40.188 49.156 3.6 55.282-52.667 63.817-64.78 15.28-10.868-43.537 5.55-63.99 24.593-64.436zM65.25 191.344c9.805-.166 20.597 5.605 27.594 18.28 30.027 54.392-16.39 80.447-39.625 41-21.794-36.994-6.688-58.965 12.03-59.28zm370.625 22.406c21.77-.634 42.792 24.326 19.844 51.125-35.94 41.97-80.713 30.29-44.564-34.844 6.206-11.18 15.527-16.012 24.72-16.28zM253.47 266.438c97.645 0 155.217 95.69 61.468 113.093-28.966 5.38-41.64-10.665-61.875-10.75-17.822 0-38.463 16.566-59.844 12.845-98.955-17.233-51.51-115.188 60.25-115.188z"></path></svg>