<svg stroke="currentColor" fill="currentColor" stroke-width="0" viewBox="0 0 512 512" height="1em" width="1em" xmlns="http://www.w3.org/2000/svg"><path d="M17 17v10.41c12.22 10.16 22.84 5.83 33.32-.52l4.83 6.84c5.81 8.21 11.83 12.04 19.19 13.29 14.39.31 22.13-2.99 33.46-8.5 13.4 10.41 33.8 25.7 50 24.75 15.6-1.95 19.6-8.27 33.3-8.27h47.4c-9.2-12.62-20.1-24.28-48.7-38zm184 56v46h46V73zM17 137v23h333.8l-5.8-23zm0 41v69h15.01c.1-30.7 1.06-56.4 12.04-69zm67.2 0c10.74 12.6 11.71 38.4 11.79 69h17.61l3.7-5.3 25.7 17.6c3.9-4.6 8-8.9 12.6-12.8l-27.3-19.3c.7-21.7 3.2-39.4 11.7-49.2zm96 0c8.2 9.6 10.7 26.9 11.5 48.1 1.5-.5 3-.9 4.5-1.3l-4.3-23 17.6-3.4 4.3 23c6.2-.6 12.3-.7 18.3-.2l-4.6-24.4c1.8-7.8 4.5-14.2 8.5-18.8zm96 0c7.2 8.4 10 22.5 11.1 40l6.3-9.2 14.8 10.2-17.6 25.7c4.7 3.9 9.2 8.2 13.2 12.9l7.2-10.6h8.8c0-4.5.1-8.8.1-13l.2-6.8c.7-21.7 3.2-39.4 11.7-49.2zm-52.5 60.8c-2.2 0-4.4.2-6.6.3l8.6 45.8c4.8.2 9.4 1.2 13.7 3l26.4-38.6c-12.6-6.8-27-10.6-42.1-10.5zm-24.2 3.6c-16.7 4.9-30.9 14.6-41.6 27.1l38.5 26.4c3.4-3.1 7.3-5.7 11.6-7.6zm81.2 17.1L254.2 298c3.2 3.4 5.8 7.4 7.7 11.8l45.8-8.6c-4.9-16.8-14.5-31-27-41.7zM17 265v118.3c.92-.3 1.81-.6 2.76-.9 16.85-5.3 37.51-10.4 49.62-10.5 12-.1 24.5 4 37.92 8.8 13.5 4.7 27.9 10.1 43.8 10.6 30.9.9 57.2-14.4 81.3-14.3 19.7.1 41.2 12.4 67.3 12.6 18.1.2 34.9-5.1 50.7-9.5 15.8-4.4 30.6-8 44.6-6.5 24.1 5.5 44.6 25.9 66.9 26.7 10.3.2 21.4-2.6 32.1-6.4v-19.4c-11.9 4.5-24.2 8-31.7 7.8-23.8-3.3-41.9-22.6-63.1-26.2l91.1-91.1H309.8c7 9.8 12.3 20.8 15.7 32.9l22.8-4.3 3.4 17.6-22.9 4.3c1.9 18.9-1.5 37.5-9 53.9-6.8 1.4-13.4 2.2-19.9 2.2-11.1-.1-22.9-4.1-35.8-7.6l-12-8.2c-1.7 1.6-3.6 3.1-5.5 4.4-4.6-.7-9.3-1.2-14.2-1.2-17.2-.1-32.9 4.6-47.7 8.7l9.6-14c-3.2-3.3-5.8-7.3-7.7-11.6l-45.8 8.5c2.4 8.2 6 15.8 10.5 22.7-7.5-.3-15.1-2-22.9-4.5-2.1-4.8-3.9-9.8-5.3-14.9l-23.1 4.3-3.26-17.6 23.06-4.3c-2.2-22.2 2.7-43.8 13.1-62.1l-13.4-9.2zm130.8 19.4c-7.9 14.5-11.7 31.2-10.3 48.6l45.8-8.5c.2-4.8 1.2-9.4 2.9-13.8zm72.2 18.9c-3 .6-5.8 1.7-8.2 3.2l10.1 6.9 6.9-10.1c-3-.5-6.1-.5-8.8 0zm23.7 10.2l-6.9 10.1 10 6.9c.6-2.9.7-5.9.1-8.9s-1.7-5.7-3.2-8.1zm67.3 5.3l-45.8 8.6c-.2 4.7-1.2 9.3-2.9 13.6l38.5 26.4c7.8-14.4 11.6-31.2 10.2-48.6zm-109.3 2.5c-.6 2.8-.7 5.8-.1 8.8.6 3 1.7 5.8 3.3 8.2l6.9-10.1zm24.9 17.1l-6.9 10c2.8.6 5.8.7 8.8.1 3-.6 5.7-1.7 8.1-3.2zM57.39 421.3c-12.12.1-26.6 3.3-40.39 7.1v18.7c14.72-4.2 30.57-7.7 40.58-7.8 28.93 1.5 55.52 18.3 81.72 19.4 30.9.9 57.2-14.4 81.3-14.3 43.8 10.6 76.2 14.8 118 3.1 33.6-8.9 46.5-9.9 74 6.5 27.5 17.9 53.7 14.2 81.4 2.7v-19.6c-.2 0-.3.1-.5.2-32 12.9-44 17.5-71.7 1.2-32.2-19.9-53.8-17.9-88-8.3-39.4 19.3-79.2-3.1-113.2-3.8-30.7-.1-56.8 15-80.7 14.3-28.9-2.5-56.18-19.4-82.51-19.4z"></path></svg>