<svg stroke="currentColor" fill="currentColor" stroke-width="0" viewBox="0 0 512 512" height="1em" width="1em" xmlns="http://www.w3.org/2000/svg"><path d="M340 49.5c-13.417 0-26.838 9.714-37.441 28.27C291.955 96.325 285 122.962 285 152.5c0 29.538 6.955 56.175 17.559 74.73 10.603 18.556 24.024 28.27 37.441 28.27h25.3c-5.383-5.51-10.208-12.057-14.368-19.338C338.372 214.182 331 184.818 331 152.5c0-32.318 7.372-61.682 19.932-83.662 4.16-7.28 8.985-13.828 14.369-19.338zm64 0c-13.417 0-26.838 9.714-37.441 28.27C355.955 96.325 349 122.962 349 152.5c0 29.538 6.955 56.175 17.559 74.73 10.603 18.556 24.024 28.27 37.441 28.27 13.417 0 26.838-9.714 37.441-28.27C452.045 208.675 459 182.038 459 152.5c0-29.538-6.955-56.175-17.559-74.73C430.838 59.214 417.417 49.5 404 49.5zm-264 16s-22.121.124-43.975 11.05C74.172 87.478 53 107.5 53 152.5v147.611c47.27 12.252 96.213 15.314 150 .475V280.5c0-19.131 11.354-31.107 21.813-36.117 10.458-5.01 20.59-4.883 20.59-4.883h43.523a110.13 110.13 0 0 1-1.994-3.338C274.372 214.182 267 184.818 267 152.5c0-32.318 7.372-61.682 19.932-83.662a110.128 110.128 0 0 1 1.994-3.338zm264 6c7.154 0 13.646 3.366 18.66 8.139 5.015 4.772 8.951 11.004 12.192 18.295C441.332 112.516 445 131.537 445 152.5s-3.668 39.984-10.148 54.566c-3.24 7.291-7.177 13.523-12.192 18.295-5.014 4.773-11.506 8.139-18.66 8.139s-13.646-3.366-18.66-8.139c-5.015-4.772-8.951-11.004-12.192-18.295C366.668 192.484 363 173.463 363 152.5s3.668-39.984 10.148-54.566c3.24-7.291 7.177-13.523 12.192-18.295 5.014-4.773 11.506-8.139 18.66-8.139zm23.791 65c-3.009 25.403-16.681 46.548-39.33 65.404 5.38 4.034 18.735 25.963 32.242-2.808 10.666-22.719 10.624-44.987 7.088-62.596zM53 318.664v56.842c3.709-.647 7.385-1.006 11-1.006 21.913 0 38.554 13.963 53.61 25.963 15.055 12 28.526 22.037 42.39 22.037s27.335-10.037 42.39-22.037c.2-.16.41-.324.61-.484v-80.786c-53.528 13.78-103.133 10.964-150-.529zM64 396.5c-14.96 0-30.967 6.068-46 13.836v20.623c16.602-9.085 34.645-16.459 46-16.459 13.864 0 27.335 10.037 42.39 22.037 15.056 12 31.697 25.963 53.61 25.963s38.554-13.963 53.61-25.963c15.055-12 28.526-22.037 42.39-22.037s27.335 10.037 42.39 22.037c15.056 12 31.697 25.963 53.61 25.963s38.554-13.963 53.61-25.963c15.055-12 28.526-22.037 42.39-22.037 11.355 0 29.398 7.374 46 16.459v-20.623c-15.033-7.768-31.04-13.836-46-13.836-21.913 0-38.554 13.963-53.61 25.963-15.055 12-28.526 22.037-42.39 22.037s-27.335-10.037-42.39-22.037c-15.056-12-31.697-25.963-53.61-25.963s-38.554 13.963-53.61 25.963c-15.055 12-28.526 22.037-42.39 22.037s-27.335-10.037-42.39-22.037c-15.056-12-31.697-25.963-53.61-25.963z"></path></svg>