<svg stroke="currentColor" fill="currentColor" stroke-width="0" viewBox="0 0 512 512" height="1em" width="1em" xmlns="http://www.w3.org/2000/svg"><path d="M255.75 44.813c-6.187 0-12.75 1.563-17.125 4.093L85.875 137.28c-4.375 2.532-7.094 6.33-7.094 9.907 0 3.58 2.69 7.376 7.064 9.907l152.78 88.375c4.376 2.53 10.94 4.093 17.126 4.093 6.187 0 12.782-1.564 17.156-4.094l152.75-88.376c4.375-2.53 7.094-6.328 7.094-9.906 0-3.58-2.75-7.376-7.125-9.907l-152.75-88.374c-4.375-2.53-10.938-4.094-17.125-4.093zm0 12.343a31.953 18.96 0 0 1 23.063 5.563 31.953 18.96 0 0 1-45.188 26.81 31.953 18.96 0 0 1 20.813-32.343 31.953 18.96 0 0 1 1.312-.03zM75.07 173.95c-1.497.048-2.873.402-4.033 1.07-3.094 1.787-5.033 6.043-5.033 11.095v157.688c0 5.052 1.94 11.547 5.033 16.906 3.094 5.358 7.723 10.27 12.098 12.796l146.945 84.857c4.375 2.527 9.03 2.974 12.123 1.188 3.094-1.785 5.008-6.056 5.008-11.11V290.755c0-5.052-1.913-11.532-5.007-16.89-3.094-5.36-7.748-10.255-12.123-12.782L83.135 176.225c-2.735-1.58-5.57-2.352-8.065-2.274zm361.97.017c-2.504-.083-5.348.684-8.083 2.263L282.04 261.07c-4.376 2.527-9.03 7.456-12.124 12.815l-.082.14c-3.047 5.332-4.926 11.71-4.926 16.72v157.718c0 5.052 1.914 9.323 5.008 11.11 3.094 1.785 7.748 1.305 12.123-1.22l146.917-84.84c4.375-2.528 9.03-7.423 12.125-12.783 3.094-5.36 5.033-11.853 5.033-16.906v-157.72c0-5.05-1.94-9.275-5.033-11.06-1.16-.67-2.54-1.028-4.043-1.077zm-14.222 21.803A18.008 31.236 31.906 0 1 434 210.973a18.008 31.236 31.906 0 1-45 25.98 18.008 31.236 31.906 0 1 33.818-41.183zm-167.068 2.292a31.953 18.96 0 0 1 23.063 5.563 31.953 18.96 0 0 1-45.188 26.813 31.953 18.96 0 0 1 20.813-32.344 31.953 18.96 0 0 1 1.312-.03zM145.295 289.1a31.236 18.008 58.094 0 1 33.818 41.183 31.236 18.008 58.094 0 1-45-25.98 31.236 18.008 58.094 0 1 11.182-15.203zm221.525 0a18.008 31.236 31.906 0 1 .002 0 18.008 31.236 31.906 0 1 11.18 15.203 18.008 31.236 31.906 0 1-45 25.98A18.008 31.236 31.906 0 1 366.82 289.1zm-56.002 94.043A18.008 31.236 31.906 0 1 322 398.346a18.008 31.236 31.906 0 1-45 25.98 18.008 31.236 31.906 0 1 33.818-41.183z"></path></svg>