<svg stroke="currentColor" fill="currentColor" stroke-width="0" viewBox="0 0 512 512" height="1em" width="1em" xmlns="http://www.w3.org/2000/svg"><path d="M215.8 30.84l10 43.24c6.4-2.39 13.1-4.15 20.1-5.04l.6-44.72c-11.1 1.46-21.9 3.78-30.7 6.52zm49.4-6.51l-.6 44.53c7.2.78 14.1 2.49 20.6 4.86l10.1-43.12c-11.1-3.31-20-5.21-30.1-6.27zM313 36.92l-10.2 43.94c3.5.97 6.9 2.13 10.2 3.45l33.3-30.94c-10.9-6.45-22.2-11.98-33.3-16.45zm-114.9.33c-11.1 4.52-22.4 10.1-33.2 16.58l33.2 30.83c3.3-1.37 6.7-2.55 10.2-3.55zM362.4 63.9L330 94.03c1.5 1.29 2.9 2.68 4.3 4.17l41.9-.32c-3.4-9.68-10.7-29.36-13.8-33.98zm-213.5.51c-4.8 11.71-9.6 24.24-13.2 33.73l41.8.37c1.2-1.37 2.5-2.66 3.9-3.87zm39.8 51.09c-.8 2.3-1.1 4.9-.1 8.5 18.4-23.4 37.9-19.1 61.6-9.7l-7 17.4c-10.2-4.1-19.6-6.6-25.9-6.2-6.3.5-10.1 2.3-14.5 11.1l-11.3-5.5c2.8 8.3-6.4 15.5-13.8 10.9-3.3-2-5.3-1.7-5.4-1.7 2.7 12.8 4.8 27.8 9.5 38 1.6-5.5 3.4-9.8 8.4-10.6 4.7-.7 9.1 2.4 10.3 7 3.1 12.3 8.3 27.2 14.8 38 3.2 5.4 6.8 9.7 10 12.2 4.3 4.4 10.3 1.7 14.7 4.8 3.8 3.1 4.8 7.9 5.2 12 .5 4.1.8 9.3 1.1 15.7 1.2 32.7.7 63.2 2.3 95.1.2 8.8 1 23.4 7.4 27.4 7.2-6 6.9-18.9 7.4-27.4 1.6-32.8.9-62.9 2.4-95.1.2-6.4.5-11.6 1-15.7.4-4.5 1.8-9.5 5.3-12 5.1-2.5 10.8-1.9 14.6-4.8 3.2-2.5 6.8-6.8 10-12.2 6.5-10.8 11.7-25.7 14.8-38 1.2-4.6 5.7-8.2 10.3-7 7.3 1.9 6.9 6 8.4 10.6 5.4-13.4 7.8-26 9.5-38-.1 0-2-.3-5.4 1.7-7.4 4.5-16.4-2.5-13.8-10.8l-11.1 5.4c-4.4-8.8-8.2-10.6-14.5-11.1-6.3-.4-15.6 2.1-25.9 6.2l-7-17.3c23.5-9 46.1-13.5 61.6 9.4 1.1-4.2.5-7-.9-9.7-23.1-26.4-121.5-25.97-134 1.4zm151 24.8h.1c-.1-.1-.1 0-.1 0zM122 134.6l33-.1c2.9-7.1 7.6-11.6 14.6-12.7-.1-1.6-.2-3.2-.1-4.7l-40.7-.4c-2.2 6.4-5 12.9-6.8 17.9zm261.3-18.1l-40.9.3c.1 1.6.2 3.3.1 5 6.9 1.1 12.3 6.7 14.4 12.4l33 .1c-2.2-6-4.4-11.9-6.6-17.8zm-160.1 17.3c10-.3 18.9 8.1 19.4 15.4-10.8 5.7-28 2-34.4-.4l-9.3.7 8.6-6.9c4.8-6.3 10.4-8.7 15.7-8.8zm65 0c5.3.1 10.8 2.5 15.7 8.8l8.6 6.9-9.3-.7c-6.4 2.4-23.6 6.1-34.4.4.5-7.3 9.4-15.7 19.4-15.4zm68.3 19.1c-.9 5.5-1.9 11.1-3.4 16.9l48.9.1c-1.7-5.7-3.6-11.3-5.5-16.9zm-200.9.3l-40.2.1c-1.9 5.6-3.8 11.2-5.5 16.9l49.1-.1c-1.5-5.7-2.5-11.4-3.4-16.9zM256 172.1c4.2 3.6 9.2 3.5 14.1 3.8-3.6 5-7.8 9.1-14.1 10.6-6.3-1.5-10.5-5.6-14.1-10.6 4.9-.3 9.9-.2 14.1-3.8zm90 16.4c-4.3 9.7-14.2 17.3-23 12.1-.8 2.1-1.2 4.3-1.7 6.5l91.1-.6c-1.5-6-3.1-12-4.8-17.9zm-179.9.3l-61.8.1c-1.7 5.9-3.3 11.9-4.75 17.9l91.25.7c-.3-2.4-1.1-4.8-1.8-6.9-10.4 6.2-19.3-5.1-22.9-11.8zm89.9 8.6c2.9-4.3 12.3-2.2 13.3-.7 3.1 4.8 6.4 6.1 8.9 7.6-8.2 15-14.4 12.6-22.2 13.6-7.8-1-14 1.4-22.2-13.6 2.5-1.5 5.8-2.8 9-7.6 3.6-3.1 10-2.5 13.2.7zm160.6 27.8l-99.4.7-3.8 17.5h106.7c-1.1-6.2-2.2-12.2-3.5-18.2zm-321.28.3c-1.24 5.9-2.39 12-3.43 18.2H198.7l-3.8-17.5zM201.4 262c-30.7.8-63.5.4-94.9.4 7.1 7.1 16 14 24.2 15.8 32.7.5 48.3 1.1 72.2 1.1-.5-5.7-.9-11.5-1.5-17.3zm109.2.1c-.5 5.7-1 11.3-1.4 16.9 26.1-.6 36.6.2 72.1-.8 10.6-3.2 18.3-9 24.5-16.1zm-82.9.1c-2.5.4-5 .8-7.4 1.3 4.7 49.7 5.4 93.9 2.6 133.5 10.3 2.5 21.3 3.8 32.8 3.8 11.7 0 22.9-1.4 33.4-4-2.8-39.5-2-83.6 2.6-133.2-2.4-.5-4.9-.9-7.4-1.3-1.1 31.2-.3 60.9-2.3 91.2-.7 10.5-.4 24.1-4.9 31.6-5.7 6.5-12.6 12-21.1 11.7-8.4-.3-17.2-5.4-21.1-11.7-4.7-10-4.4-21.6-4.9-31.6-1.5-31.7-1.3-60.6-2.3-91.3zM99.28 281.5c-.72 1.4-1.37 2.7-1.94 4C47.21 403.6 115.7 487.7 256 487.7s208.8-84.1 158.7-202.2c-.6-1.3-1.3-2.6-2-3.9-5.8 5.2-12.7 10.2-21.3 13.1-.7 3.4-1.3 6.8-1.9 10.2 9.5 14.9 14.9 31.6 14.9 49.4 0 32.1-17.5 60.8-44.6 80.9-27 20.1-63.8 32.2-104.1 32.2-40.4 0-77.2-12.1-104.2-32.2-27.1-20.1-44.6-48.8-44.6-80.9 0-18.1 5.6-35.2 15.4-50.2-.5-3.1-1-6.3-1.6-9.4-8.7-2.9-15.6-7.9-21.42-13.2zm208.52 16.2c-.3 5.9-.6 11.7-.9 17.5l61.8.2c1-5.8 1.9-11.7 3-17.6zm-103.6.3l-63.8.1c1 6 2 11.8 3 17.6l61.7-.2c-.2-5.8-.5-11.6-.9-17.5zm102.2 35.9c-.2 6.1-.2 12-.2 17.9h56.4c1.1-5.8 2.1-11.8 3.1-17.7zm-100.7.3l-59.3.2c.9 6 2 11.9 3 17.7h56.4c0-5.9 0-11.8-.1-17.9zm-78 3.1c-1.4 5.5-2.1 11.2-2.1 17 0 17 6.1 33 17.2 46.9-7.6-21-11.6-42.3-15.1-63.9zm256.3 1.8c-3.3 20.4-7.2 40.6-14.2 60.5 10.2-13.6 15.9-29 15.9-45.3 0-5.1-.6-10.2-1.7-15.2zm-77.4 31.4c.1 6.1.4 12 .7 17.8h46.5c1.8-5.8 3.4-11.8 4.9-17.8zm-153.2.3c1.4 6 3.1 12 4.9 17.9h46.3c.4-5.9.7-11.8.8-17.9zM308.7 407c.5 5.1 1 10.1 1.6 15 8.9 5.2 15.4 4.6 21.3 1.7 6.2-4.1 12.7-9.9 15.1-16.7zm-143.3.3c3 6.3 9.8 13.7 15 16.4 5.9 2.9 12.4 3.5 21.3-1.7.6-4.8 1.1-9.7 1.6-14.7zm125.3 8.4c-11.1 2.5-22.9 3.8-35 3.8-12 0-23.5-1.3-34.4-3.7-.7 6.2-1.3 11.1-2 17.1-4.5 3.2-9.7 6.5-14.3 8.3 15.5 4.9 32.6 7.5 50.7 7.5s35.4-2.7 51-7.6c-5.7-2.4-9.2-4.9-14-8.2-.7-5.8-1.4-12.1-2-17.2z"></path></svg>