<svg stroke="currentColor" fill="currentColor" stroke-width="0" viewBox="0 0 512 512" height="1em" width="1em" xmlns="http://www.w3.org/2000/svg"><path d="M255.55 22.36c-30.93 0-56 25.07-56 56 0 30.927 25.07 56 56 56 30.927 0 56-25.073 56-56 0-30.93-25.073-56-56-56zM105.067 144.47c-3.047.028-6.012.55-8.748 1.536-7.296 2.627-12.95 7.77-17.562 13.617-3.63 4.602-6.523 9.754-9.012 14.992-6.79-6.374-14.215-15.785-21.8-30.117l-15.91 8.418c10.115 19.112 20.597 31.962 31.292 40.066-.405 1.802-.907 3.66-1.164 5.364-2.005 13.302 2.913 24.966 9.637 34.736 5.34 7.757 11.825 14.87 18.132 22.367-7.497 15.76-11.35 32.49-11.368 49.366.07 28.777 11.283 56.823 32.082 80.243l3.655-13.117 17.34 4.832-25.13 90.18c20.857 6.423 41.04 6.52 61.62-1.072l18.727-66.73 17.33 4.865-8.892 31.69c17.887 4.99 36.674 7.578 55.607 7.657 12.386-.065 24.727-1.204 36.81-3.396l-8.942-39.63 17.558-3.963 14.996 66.473c24.936 11.267 48.496 10.575 72.764 1.222l-25.115-78.986 17.152-5.455 4.97 15.636c21.796-38.09 68.757-29.083 91.825-40.08 11.686-3.894 5.42-69.874 4.916-73.04-.38-2.39-29.734-3.818-40.16-2.248-5.975.9-16.344-12.078-27.39-27.597-5.387-10.488-12.357-20.405-20.753-29.527-3.988-5.276-2.735-3.092-6.533-6.474.715 6.697 2.12 12.306 4.152 16.23l-15.986 8.277c-7.378-14.252-7.98-32.853-5.662-52.858 1.583-13.67 4.81-27.957 9.03-41.733-11.81 6.755-22.626 17.48-32.02 30.586-13.665 19.064-24.126 42.55-30.647 62.644l-17.12-5.556c2.777-8.56 6.2-17.655 10.255-26.835-14.467-6.574-35.467-9.76-57.426-8.826-23.852 1.01-48.83 6.716-68.043 16.2l-7.97-16.143c22.13-10.923 49.122-16.934 75.25-18.043 3.267-.138 6.52-.203 9.747-.19 20.69.086 40.372 3.378 56.274 10.78 2.234-4.232 4.608-8.425 7.125-12.537-21.74-7.8-45.253-11.897-69.058-12.03-63.206.056-121.303 27.923-151.383 72.614-4.954-5.81-9.525-11.11-12.89-16-5.26-7.64-7.608-13.682-6.695-21.126 10.458 3.152 20.632 2.07 28.694-1.87 10.316-5.044 17.423-13.85 20.473-23.39 1.526-4.77 2.056-9.862.813-14.928-1.243-5.065-4.63-10.034-9.598-12.953-4.862-2.856-10.17-4.187-15.25-4.142zm.328 17.805c.328-.014.66-.005 1 .03 1.362.138 2.86.687 4.803 1.828.864.508.986.713 1.234 1.722.247 1.01.248 2.895-.475 5.157-1.447 4.523-5.713 10-11.235 12.7-4.346 2.125-9.372 2.917-15.66.847 2.174-5.033 4.823-9.984 7.824-13.787 3.257-4.13 6.74-6.828 9.528-7.832 1.045-.375 1.995-.623 2.978-.665zm278.153 98.647c8.835 0 16 7.163 16 16 0 8.836-7.165 16-16 16-8.838 0-16-7.164-16-16 0-8.837 7.162-16 16-16z"></path></svg>