<svg stroke="currentColor" fill="currentColor" stroke-width="0" viewBox="0 0 512 512" height="1em" width="1em" xmlns="http://www.w3.org/2000/svg"><path d="M136.6 52.93c20.2 21 31 52.17 33.3 82.07 32.9-37.48 75.7-62.12 122-65.97-51.5-21.61-101.2-25.54-155.3-16.1zm86.5 58.17c-32.1 21.6-64.9 60.6-99.6 127.1-5.8 7.3-16.3 11.4-24.38 16.3-9.17 11.6-15.2 34.7-6.93 46.2l28.51-3.5 47 51.4c10.2-5.2 21.4-8.8 31.4-14.9l9.2 15.4c-32.1 16.1-67.8 31.7-100.7 46.2 39.9 10.6 74.4 34.5 93.6 68.4l28.3-94 17.2 5.2-13.1 43.4c70.7 51.4 183.4 74.4 236.4-6.6L404.7 425c-55.8-13.3-89.5-55.9-120.5-87.6 48.2-58 116.3-98.8 171.6-131.4l-35.9-16.2c-11.2-49.1-53.5-98.44-97.5-102.77-34.9-2.92-75.4 8.36-99.3 24.07zM25.68 149.7c21.04 91 23.9 184.3 9.93 269.1 31.82-22.7 65.99-65.1 70.59-101.7-15.82 2.4-24.68 4.9-31.97-11.6-11.61-28.6 7.82-61.5 24.51-71.9-12.3-30.1-40.7-86.1-73.06-83.9zM399 190.6L333.9 204l-36.4-43.1c42.6-12 71.5 7 101.5 29.7zm-170.2-23.9l15.8 8.7-36.9 67.3 9.6 70.1-17.8 2.5-10.5-76.1zm240.9 52.2c-14.4 8.7-15.7 9.1-28.1 16.5l42.4 61.8s-14.2-78.5-14.3-78.3zm-32 18.8c-11.5 6.8-22.9 13.7-34.1 20.8l40.5 59.9zM401.4 260c-8.5 5.4-16.9 11-25 16.7l35 43.1zm-26.8 18c-8.3 5.9-16.4 11.9-24.2 18.2l37.8 31.3zm-26.9 20.5c-7.1 5.8-14 11.9-20.6 18.3l25.3 10.4zm-38.6 38.7c10.1 10.6 19.6 21.1 30 30.8l9.2-27.4zm177.2 2.2l-45.5 59.9 33.9-7zm-105.1 6l-38 26.4c7.3 6.5 15.2 12.5 24.2 18zm64.2.7l-44.3 59c1.5.5 2.9 1 4.4 1.4l30.1-6.2zm-38.6 3.9l-36.3 41.6c8.2 4.8 17.4 9 27.8 12.6z"></path></svg>