<svg stroke="currentColor" fill="currentColor" stroke-width="0" viewBox="0 0 512 512" height="1em" width="1em" xmlns="http://www.w3.org/2000/svg"><path d="M141.1 21.33c-1 0-2.1 0-3.1.1-4.7.21-9.4.83-13.8 1.84-17.7 4.04-32.12 14.14-40.28 29.25-8.17 15.11-10.42 35.71-1.56 62.08 11.6 34.5 21.44 69.4 32.44 103.9 4.6-4.9 10.3-9.4 17.1-13.1l8.6 15.8c-24.6 13.4-27.3 35.3-21 51.9 3.2 8.3 8.8 14.7 14.8 17.7 6 2.9 12.2 3.2 20.3-2l9.6 15.2c-4.8 3-9.8 5-14.8 5.9 22.9 49 54 95.6 102.8 137v.1c14.1 12 27.6 21.1 40.5 27.8-1.4-5.6-2.1-11.9-1.9-18.8l18 .6c-.4 13.4 3.1 21.6 7.8 26.7 4.6 5.1 10.7 7.4 17.1 7.4 12.9-.1 25.9-9 25.4-27.1l18-.6c.3 9.3-2.1 17.4-6.1 24.2 13-3.3 24.3-9.5 33.7-17.2 16-13.1 26.4-31.4 29.6-49.3 2.8-16.2-.1-31.7-9.7-43.9-2.6 3.8-5.8 7.5-9.5 11.2l-12.6-13c9.7-9.3 12.9-17.7 13.2-24.5.2-6.9-2.5-12.8-7.2-17.3-9.3-8.9-24.8-11.6-37.1 1.7l-13.2-12.2c3.5-3.8 7.3-6.8 11.3-9-56.8-71.9-85.8-136.6-132.6-226-3 5.47-7.2 10.88-12.5 16.1l-12.6-12.98c9.7-9.31 12.9-17.71 13.2-24.58.2-6.86-2.5-12.74-7.2-17.21-9.3-8.95-24.8-11.69-37.1 1.65l-13.2-12.2c3.5-3.78 7.3-6.76 11.3-9.01-12.7-5.61-25.6-8.21-37.7-8.14zM121.8 119l17.4 4.4c-3.3 13-1.6 21.9 1.8 27.8 3.4 6 8.8 9.5 15.1 10.9 12.6 2.7 27.3-3.2 30.8-21l17.6 3.4c-5.2 27.1-30.6 39.8-52.1 35.2-10.8-2.3-21-8.9-27-19.5-6.1-10.7-7.8-24.8-3.6-41.2zM319 201.8c-.6 0-1.2.1-1.9.1 7.3 13.1 14.8 25.8 22.7 38.4 1.4-1.8 2.4-3.7 3.1-5.6 2.5-6.4 1.8-12.8-1.1-18.6-4.2-8.2-12.5-14.5-22.8-14.3zm-23.7 119.3c7.2 14.2 6.7 28.1.2 37.7-6.5 9.6-17.2 14.4-27.9 15.7-10.7 1.3-22-.8-30.7-7.8-8.6-7-13.1-19.8-9.5-33.7l17.4 4.6c-2.3 8.7-.2 12.1 3.4 15.1 3.7 3 10.6 4.7 17.2 3.9 6.7-.8 12.5-3.9 15.2-7.9 2.6-3.9 3.8-9.2-1.3-19.4zm-74.6 121.4c-2.1 5.6-2.5 10.4-1.9 14.5 1 6.8 4.8 12.1 10.2 15.7 7.9 5.2 18.7 6.6 27.7.6-5.4-3.9-10.7-8.1-16.1-12.7-7-5.9-13.6-12-19.9-18.1z"></path></svg>