<svg stroke="currentColor" fill="currentColor" stroke-width="0" viewBox="0 0 512 512" height="1em" width="1em" xmlns="http://www.w3.org/2000/svg"><path d="M430.754 24.207c-29.547 3.757-51.704 10.265-51.387 38.035.803 23.45 3.968 67.093 6.998 88.6l51.55 32.928c-4.532-27.155-8.18-72.275-14.013-97.952 18.65 4.352 69.214 2.71 70.668-16.34-.015-5.028-5.093-9.844-14.1-13.373.44-1.433.67-2.882.69-4.335 0-15.223-22.79-31.075-50.406-27.563zM17.998 180.177v19.598c18.428-7.807 39.37-13.515 50.625-11.177 19.357 10.804 28.276 41.26 49.621 44.574 9.766 1.067 18.657-2.046 26.057-6.563 7.4-4.516 13.71-10.403 19.742-16.093 12.062-11.38 22.784-21.05 33.16-21.752 15.499-1.048 31.418 9.43 49.006 21.53 17.588 12.102 37.078 25.89 60.785 22.858 16.72-2.138 26.78-15.126 35.518-25.486 8.738-10.36 16.093-18.056 23.94-18.937 38.77 2.911 64.976 42.82 99.073 44.494 9.219.247 19.008-2.173 28.477-5.592v-19.48c-10.693 4.166-21.546 7.252-27.996 7.08-14.444-.388-29.131-10.84-45.22-22.426-16.09-11.587-34.07-24.463-56.343-21.961-24.349.573-41.84 41.58-59.732 44.457-41.788-2.417-71.864-46.095-108.723-44.494-19.298 1.305-32.48 15.47-44.295 26.617-8.914 8.003-19.704 18.977-31.494 17.857-27.79-13.646-28.67-43.847-56.043-45.334-16.169-.119-33.213 5.01-46.158 10.23zm378.457 35.981c3.207 21.465 7.147 41.007 9.645 61.924 1.88 8.493-3.425 19.384-11.516 17.623-136.92-43.236-233.076-26.25-310.91 20.662-13.132 8.557-51.674.446-63.46 13.252-4.214 5.537 39.472 25.084 50.516 38.215 4.393 5.525 9.973 10.767 16.538 15.676 9.48-9.959 20.274-19.542 32.16-28.506l10.84 14.371c-27.02 20.38-47.729 44.12-58.422 66.197-9.557 19.73-11.18 37.148-4.153 51.448 23.287-3.968 44.34-10.724 58.932-24.74 15.852-15.228 25.82-39.425 22.955-82.64l17.96-1.19c.933 14.076.538 26.713-1.017 38.042 33.398 7.438 71.164 10.431 108.03 8.469 6.44-.343 12.844-.86 19.199-1.51 6.289-15.66 16.029-32.157 28.96-49.572l14.452 10.73c-20.287 27.32-31.24 51.334-33.344 70.547-1.888 17.245 2.495 30.596 14.274 42.174 21.491-10.474 40.981-23.441 52.08-41.646 12.015-19.709 15.706-46.036.828-86.536l16.896-6.207c4.2 11.434 7.06 22.157 8.747 32.21 62.78-43.58 57.22-87.695 50.296-145.975-18.234-11.984-33.222-21.825-50.486-33.018zm14.316 191.729a193.44 193.44 0 0 1-12.285 6.517c-1.378 23.364-5.717 41.9-18.41 58.633 5.859 4.404 12.208 7.237 19.037 8.381 10.048-25.866 19.435-49.44 11.658-73.531zM162.896 434.14c-4.115 14.565-10.57 26.416-18.86 35.921 2.636 5.058 6.058 9.397 10.294 12.963 18.517-12.208 34.243-25.877 42.482-42.984-11.598-1.495-22.947-3.468-33.916-5.9z"></path></svg>