<svg stroke="currentColor" fill="currentColor" stroke-width="0" viewBox="0 0 512 512" height="1em" width="1em" xmlns="http://www.w3.org/2000/svg"><path d="M57.64 30.11c8.97 28.45 9.68 57.4 11.44 84.59 2.25 34.6 6.13 66 28.32 93.2 1.8 2.3 8.9 6.6 19.3 9.4 10.4 2.8 23.9 4.5 38.5 4.5 25.2-.2 53.7-5.8 76.9-18.8C159 175.6 109.3 130.3 97 71.94 134.8 119.8 168 157 239.5 178.3c1.5-12.6 4.3-24.4 6.2-35.1 3.2-18 3.6-31-4.6-40.6-14.2-16.4-50-29.59-89.9-41.47-31.5-9.35-65.2-18.39-93.56-31.02zM369.4 136.3c-34.3 15.2-74.2 36.9-112 44.6-.7 6.3-1.1 12.5-.8 18.5 43.5-7.4 85.9-31.5 120.1-46.6 14.9-5.3 43-19.5 57.1-10 14.1 11.7 9.6 34.9 6.4 48.5-3.8 16.4-10.3 35.2-17.3 53 4.6 6.1 8.5 14.2 11 20.6 9.2-22.6 18.6-47.6 23.8-69.5 4.8-25.4 8.3-51.6-13.6-67.4-23.6-14.2-54.7-.4-74.7 8.3zm-19 120.9c-34.7 26.8-58.4 55-89.6 73-31.1 18-69.6 24-128.7 6.4-35.3-10.5-56.57-6.9-67.89 1.5-11.31 8.4-15.37 23.2-12.73 41.8 5.29 37.3 39.82 83.9 82.22 92 68.2 12.9 125.8 13.7 171.9.2 46.1-13.5 80.9-40.7 105.4-85.9 15.4-28.5 18.4-79 7.3-111.5-11.5-34.9-40-38.2-67.9-17.5z"></path></svg>