<svg stroke="currentColor" fill="currentColor" stroke-width="0" viewBox="0 0 512 512" height="1em" width="1em" xmlns="http://www.w3.org/2000/svg"><path d="M238.431 80.77c-35.155.246-72.04 8.661-108.484 27.94C-29.95 201.198 34.429 334.93 46.134 370.206c20.81 24.447 48.8 32.745 74.469 46.26l-.98-20.2 18.72 6.91-1.414-14.996 21.487-.039-33.25-37.34c9.816-13.393 12.76-41.423 15.21-56.044l59.329 12.877 56.068-6.44c3.142 30.472 7.892 60.945 20.21 91.416l69.76 38.625-3.724-19.205 23.729 4.156-2.356-16.88 23.426 1.029-45.639-41.844.467-41.772c14.428-15.907 44.975-17 52.157-12.23-1.956 16.792 3.749 24.053 9.314 39.195 7.123 19.382 23.098 32.587 37.812 46.35l2.076-18.77 22.463 4.166-1.4-16.394 24.455 2.674-24.123-37.34c.486-20.817.546-41.634-2.256-62.451-3.414 5.69-8.437 10.6-13.912 14.625-10.461 7.69-23.42 12.82-36.252 12.326-8.843-.341-42.722 3.68-60.857-22.658l14.826-10.21c11.768 17.092 33.138 14.358 46.724 14.882 7.047.271 17.368-3.307 24.897-8.842 7.529-5.536 11.346-12.392 11.064-16.223l-.33-4.476 3.377-2.957s3.945-3.469 7.889-8.206c3.944-4.736 6.94-11.006 6.969-12.492.011-.588-1.189-3.557-3.434-8.07s-5.342-12.089-1.871-19.95c2.355-5.333 5.118-8.272 6.578-10.831 1.413-2.477 2.416-5.004 2.535-10.856-.417-4.153-1.148-5.244-2.795-6.623-1.722-1.441-5.616-3.179-11.742-5.123-3.19-1.013-3.497-.562-6.055 1.506-2.557 2.068-5.59 6.183-10.037 10.187l-3.222 2.903-4.278-.713c-20.726-3.451-41.094-1.951-60.205 5.607l-3.582 1.416-3.496-1.61c-12.335-5.685-21.75-10.818-27.205-11.981-2.728-.582-4.082-.43-5.498.191-1.416.62-3.404 2.09-5.975 5.928-3.113 4.649-4.81 12.102-3.736 18.468 1.074 6.367 4.067 11.36 10.791 14.297l-7.205 16.494c-12.43-5.429-19.456-16.646-21.336-27.798-1.88-11.152.537-22.527 6.531-31.477 3.815-5.696 8.286-10.025 13.71-12.4 5.423-2.376 11.29-2.414 16.472-1.309 9.322 1.987 17.862 6.877 27.783 11.674 12.084-4.308 24.541-6.575 37.098-7.066-38.725-39.944-98.414-69.255-164.537-69.78-1.13-.009-2.263-.01-3.397-.002zm188.48 101.973c6.752 0 12.225 6.629 12.225 14.807 0 8.177-5.473 14.807-12.224 14.806-6.751 0-12.223-6.63-12.223-14.806 0-8.177 5.472-14.806 12.223-14.807zm-48.732 5.148c6.75.001 12.223 6.63 12.223 14.807s-5.472 14.806-12.223 14.807c-6.751 0-12.224-6.63-12.224-14.807 0-8.178 5.473-14.807 12.224-14.807zm31.096 40.985c8.973-.167 16.408 3.757 16.607 8.765.12 3.058-2.53 5.961-7.047 7.721l.497 15.873-17.99.565-.507-16.176c-4.535-1.603-7.325-4.367-7.447-7.377-.199-5.008 6.914-9.204 15.887-9.371zm-259.828 86.062l7.365 37.684 38.545 25.539-2.422-14.9 17.178 2.609-5.457-11.967 18.656.97-20.46-19.366-1.395-6.926z"></path></svg>