<svg stroke="currentColor" fill="currentColor" stroke-width="0" viewBox="0 0 512 512" height="1em" width="1em" xmlns="http://www.w3.org/2000/svg"><path d="M320.215 21.637c-2.32-.012-4.623.045-6.91.17-32.634 1.785-59.5 19.06-83.037 43.379 2.66-.203 5.282-.29 7.869-.272 12.174.086 23.67 2.211 35.773 2.51-28.033 6.9-52.033 20.858-75.193 36.285-21.288 29.627-40.322 62.404-59.662 89.459-22.086 30.895-53.902 64.744-77.914 99.598.732 14.082 5.978 28.164 10.498 42.246-10.128-4.49-21.515-8-26.453-16.526-16.766 30.855-24.257 62.116-10.663 92.473 31.167 69.595 149.454 92.973 219.778 63.488 5.424-2.274 9.834-5.623 13.53-9.746-15.474-.212-25.976-9.537-37.894-16.27 12.813-1.045 32.757 4.492 47.43 1.155 9.07-19.614 12.663-45.32 24.451-63.047 6.987-10.507 15.425-20.486 24.786-30.111-15.095 2.587-30.333 2.536-48.14.218 46.165-16.967 65.593-25.21 101.278-46.933 55.884-45.05 113.382-88.332 106.217-151.762-7.97-70.553-93.85-135.937-165.744-136.314zm6.652 31.574a5.619 16.856 69.574 0 1 4.979 2.01 5.619 16.856 69.574 0 1-13.836 11.148 5.619 16.856 69.574 0 1-17.756.617 5.619 16.856 69.574 0 1 13.834-11.148 5.619 16.856 69.574 0 1 11.928-2.623 5.619 16.856 69.574 0 1 .851-.004zm36.82 17.363c54.03 22.09 96.302 101.116 73.745 147.49.822-37.224-46.562-114-73.745-147.49zm-75.648 31.768c2.745.04 5.425.272 8.02.709-42.065 23.811-82.712 49.368-113.133 87.52 7.984-46.066 63.938-88.826 105.113-88.23zm-85.664 131.93a24.458 7.659 19.293 0 1 18.674 3.771 24.458 7.659 19.293 0 1 20.056 15.289 24.458 7.659 19.293 0 1-26.005-1.146 24.458 7.659 19.293 0 1-20.057-15.291 24.458 7.659 19.293 0 1 7.332-2.624zm76.748 136.412a5.619 16.856 69.672 0 1 4.975 2.017 5.619 16.856 69.672 0 1-13.856 11.125 5.619 16.856 69.672 0 1-17.758.586 5.619 16.856 69.672 0 1 13.856-11.123 5.619 16.856 69.672 0 1 11.93-2.603 5.619 16.856 69.672 0 1 .853-.002zM73.5 377.912c7.648 24.831 39.04 43.702 66.549 68.533-32.365-5.93-76.158-14.548-66.549-68.533z"></path></svg>