<svg stroke="currentColor" fill="currentColor" stroke-width="0" viewBox="0 0 512 512" height="1em" width="1em" xmlns="http://www.w3.org/2000/svg"><path d="M203.438 18.03c-67.86 1.023-136.07 52.442-99.313 177.25-19.902-13.32-39.808-19.272-58.906-19.56-10.183-.188-20.25 1.35-29.814 4.093v35.625c41.434-13.075 92.35 3.578 129.125 82.843 6.98 21.464 11.43 42.784 12.282 63.783.01.135.023.27.032.406 2.555 41.148-9.763 82.74-37.813 110.905l-.03.03c-5.6 6.838-11.908 13.59-18.938 20.25h88.657c40.943-75.566 10.117-177.693-32.657-256.374C61.293 62.965 216.36 8.983 273.813 78.595c-.73.677-1.412 1.37-2 2.062-3.516 4.14-4.307 7.733-3.532 10.625.776 2.894 3.26 5.58 8.376 7.407 5.115 1.83 12.405 2.254 20 .22 7.595-2.036 13.735-6.048 17.25-10.188 3.516-4.142 4.307-7.734 3.53-10.626-.773-2.892-3.258-5.578-8.373-7.406-1.364-.488-2.897-.856-4.532-1.126-16.407-33.118-58.672-52.17-101.092-51.53zm138.906 57.064c-1.34.004-2.7.03-4.094.062-.752.018-1.54.066-2.313.094 1.464 7.842-.846 15.62-5.187 22.094 11.955 2.052 22.79 7.44 31.78 15.187 15.9 13.704 26.68 34.14 32.533 56.876 5.59 21.722 6.758 45.878 2.5 68.75 17.686 2.86 36.728.448 56-8.875-27.56-41.117-29.818-84.612-40.344-113.218-5.646-15.34-12.687-26.02-26.783-33.03-9.91-4.93-23.99-8-44.093-7.938zm-91.28 23.562c-19.422 10.637-31.17 20.938-37.658 30.72-8.7 13.12-9.438 25.922-6.656 42.03 5.188 30.042 24.974 68.815 21.656 118.22 24.052-1.756 43.48-10.922 58.03-24.75-13.913-16.595-24.252-36.427-30.155-56.47-6.687-22.71-7.837-46.057-1.03-66.187 3.25-9.608 8.51-18.43 15.72-25.72-.21-.07-.418-.144-.626-.22-8.492-3.034-16.005-9.036-19.28-17.624zm70.405 16.28c-.74-.01-1.497.01-2.25.033-4.023.128-8.28.8-12.783 2.03-18.347 5.01-28.343 15.97-33.5 31.22-5.156 15.25-4.57 35.065 1.282 54.936 11.26 38.24 41.692 75.175 79.25 83.47 26.593-26.993 33.356-74.27 23.5-112.563-5.13-19.92-14.62-37.03-26.626-47.375-8.442-7.276-17.797-11.564-28.875-11.75zm89.81 153.72c-7.487-.08-14.92 5.072-14.967 15.656-.085 21.17 31.096 20.53 30.375 0-.36-10.264-7.92-15.576-15.407-15.656zm47.845 37.688c-1.918.045-4.008.583-6.156 1.812-13.75 7.866-1.66 27.832 11.374 19.688 10.997-6.872 5.14-21.742-5.22-21.5zm-79.938 1.78c-3.497.068-7.04 1.88-9.53 6.157-1.274 2.187-1.82 4.313-1.813 6.283-8.494-2.006-18.446 2.92-18.5 15.187-.084 21.17 31.065 20.53 30.344 0-.05-1.444-.247-2.753-.563-4 3.836.202 7.76-1.557 10.188-6.125 4.958-9.33-2.432-17.647-10.125-17.5zM282.938 312c-4.673.09-9.45 2.535-12.78 8.25-10.66 18.29 16.67 33.295 26.312 15.156 6.627-12.47-3.25-23.602-13.533-23.406zm-217.75 18.688c18.723 32.207-17.638 68.048-49.78 57.906v27.375c53.067 20.35 102.378-60.32 49.78-85.283zm384.75 21.562c-1.918.045-3.976.615-6.125 1.844-13.747 7.866-1.69 27.832 11.344 19.687 10.997-6.87 5.14-21.772-5.22-21.53zm-66.78 20.688c-9.66.1-19.234 6.733-18.782 19.625.905 25.782 38.044 26.586 38.156 0 .055-13.294-9.715-19.726-19.374-19.625zm-68.188 12.406c-3.498.067-7.072 1.91-9.564 6.187-7.972 13.685 12.476 24.915 19.688 11.345 4.958-9.33-2.432-17.68-10.125-17.53zm161.75 23.53c-7.692.08-15.3 5.36-14.94 15.626.723 20.53 30.252 21.17 30.345 0 .042-10.584-7.716-15.705-15.406-15.625zm-206.19 11.72c-7.487-.08-14.89 5.072-14.936 15.656-.084 21.17 31.065 20.53 30.344 0-.36-10.265-7.92-15.576-15.407-15.656zm142.5 14.375c-1.917.044-3.975.614-6.124 1.842-13.747 7.867-1.69 27.8 11.344 19.657 10.997-6.873 5.14-21.743-5.22-21.5zm-64.686 25.967c-11.434.42-20.318 15.264-9.813 26.532C352.54 502.49 375.028 480.905 360 466c-3.757-3.727-7.845-5.202-11.656-5.063zm119.812.844c-10.358-.24-16.215 14.63-5.22 21.5 13.035 8.146 25.093-11.79 11.345-19.655-2.147-1.23-4.206-1.8-6.124-1.844z"></path></svg>