<svg stroke="currentColor" fill="currentColor" stroke-width="0" viewBox="0 0 512 512" height="1em" width="1em" xmlns="http://www.w3.org/2000/svg"><path d="M457.375 36.547c-9.446-.098-30.693 31.456-42.25 33.07-11.852 1.657-8.391-19.023-17.549-12.142-7.652 5.75-18.883 33.342-32.052 39.498-11.335 5.299-19.573-26.037-26.584-16.57-7.455 10.066-6.413 33.781-11.787 49.074.08.059.165.115.246.174 25.243 18.326 43.095 43.102 48.527 71.13 7.731-8.358 14.25-17.609 15.488-25.948 3.088-20.813 62.136-12.252 47.196-32.198-27.568-36.802 41.307-30.188 28.03-47.496-22.762-29.677 4.283-41.961-6.357-57.008-.764-1.08-1.748-1.572-2.908-1.584zM209.96 112.44c-8.417.033-16.663.575-24.691 1.568 1.777 12.851 3.217 26.112.22 37.14-6.884-6.133-12.132-24.14-15.921-34.564a190.896 190.896 0 0 0-19.315 5.024c2.709 10.222 9.794 31.755 7.389 40.432-9.178-3.486-19.573-22.29-26.504-33.147a160.552 160.552 0 0 0-16.07 8.338c5.024 11.3 18.825 27.709 18.431 40.469-14.497-3.407-26.127-18.53-36.117-28.094-23.318 19.192-36.823 43.744-36.78 70.262.036 21.102 8.66 40.889 23.958 57.674 15.388 1.964 37.95 4.248 49.459 13.189-9.8 9.368-45.209 8.725-66.89 10.291-15.33 17.915-23.444 38.361-23.487 59.184.132 63.935 74.729 115.532 166.617 115.246 91.889-.286 166.272-52.348 166.14-116.284-.109-23.522-10.514-46.44-29.83-65.705-17.446-3.716-49.414-1.485-61.6-10.539 13.87-7.179 35.467-8.298 51.895-7.453 14.634-16.664 22.841-36.111 22.807-56.762-.048-28.663-15.906-54.91-42.867-74.484-26.961-19.574-64.843-31.948-106.844-31.785zm2.498 129.728c23.385-.074 42.384 19.075 42.432 42.77.048 23.695-18.87 42.963-42.256 43.037-23.385.074-42.383-19.075-42.432-42.77-.048-23.694 18.87-42.962 42.256-43.037z"></path></svg>