<svg stroke="currentColor" fill="currentColor" stroke-width="0" viewBox="0 0 512 512" height="1em" width="1em" xmlns="http://www.w3.org/2000/svg"><path d="M196.7 18c-.4 1.79-.9 3.57-1.6 5.3-4.1 10.64-13.7 18.25-25 19.97l-3.1 8.04c7.2 8.9 9 21 4.9 31.62-4.2 10.62-13.7 18.27-25 19.97l-3.1 8c7.1 8.9 8.9 21 4.8 31.7-4.1 10.6-13.7 18.2-25 19.9l-3.1 8.1c7.2 8.9 9 21 4.8 31.6-4.1 10.6-13.6 18.3-24.9 20l-3.2 8c7.2 8.9 9 21 4.9 31.6-4.2 10.6-13.7 18.3-24.98 20l-3.13 8c7.15 8.9 8.99 21 4.84 31.6a31.821 31.821 0 0 1-24.97 20l-3.12 8c7.15 8.9 8.98 21 4.84 31.7-1.23 3.1-2.94 6-5.03 8.6l4.2 9.9c3.36.2 6.71.9 9.92 2.2 10.62 4.1 18.28 13.7 20 24.9l8.03 3.2c8.9-7.2 21-9 31.6-4.9 10.6 4.2 18.3 13.7 20 25l8 3.1c8.9-7.1 21-9 31.6-4.8 10.6 4.1 18.3 13.7 20 25l8 3.1c8.9-7.2 21-9 31.6-4.9 9.9 3.9 17.1 12.3 19.5 22.5h19.3c6-1.8 12.5-1.8 18.5 0h21.1c.3-2.8 1-5.6 2-8.3 4.1-10.6 13.7-18.3 25-20l3.1-8c-7.2-8.9-9-21-4.9-31.6 4.2-10.6 13.7-18.3 25-20l3.1-8c-7.1-8.9-8.9-21-4.8-31.7 4.1-10.6 13.7-18.2 25-19.9l3.1-8.1c-7.2-8.9-9-21-4.8-31.6 4.1-10.6 13.6-18.3 24.9-20l3.2-8c-7.2-8.9-9-21-4.9-31.6 4.2-10.6 13.7-18.3 25-20l3.1-8c-7.1-8.9-9-21-4.8-31.6a31.66 31.66 0 0 1 24.9-20l3.2-8.1c-7.2-8.9-9-20.9-4.9-31.6 1.8-4.4 4.5-8.4 7.8-11.5l-2.9-7.1c-4.7.4-9.5-.3-14-2.1-10.6-4.1-18.3-13.65-20-24.95l-8-3.12c-8.9 7.15-21 8.98-31.6 4.84-10.6-4.14-18.3-13.68-20-24.97l-8-3.13c-8.9 7.16-21 8.99-31.6 4.85-10.6-4.15-18.3-13.68-20-24.98l-8-3.12c-8.9 7.15-21 8.98-31.6 4.84-8.9-3.45-15.7-10.63-18.6-19.46zm22.4 31.83l208.7 81.37-127.9 328-208.7-81.4zM340 118.2l-6.5 16.8 59.6 23.3 6.5-16.8zm-73.2 20.3c-31.8.5-61.3 19.3-73.2 49.9-21.9 58.1 21.6 92.8-44.2 146.3l93.7 36.5c.5-5.3 10.5-33.2 19.1-31.9 0 0 34.7 17 47.6 7.5 5.2-4.1 2.5-19.9 2.5-19.9l11-1.6-1.8-8.5 7.2-2.5-1.8-9.5 24-7.8c2.2.5-5.9-28.5-11.9-34.7 2.9-4.5 5.6-9.3 7.5-14.2 15.9-40.8-5.3-87.3-47.7-103.8-10.5-4.1-21.4-6-32-5.8zM127.3 351.3l-6.5 16.7 44.7 17.5 6.5-16.8z"></path></svg>