<svg stroke="currentColor" fill="currentColor" stroke-width="0" viewBox="0 0 512 512" height="1em" width="1em" xmlns="http://www.w3.org/2000/svg"><path d="M296.3 51.46l-14.8 7.37 3.5 36.79c5.1-.62 10.2-1.39 15.3-2.3zM364 92.68c-32.8 15.02-70.8 22.02-104.7 22.92-19.7.6-38-.9-53.3-4.3-9.4-2.1-17.6-4.8-24.5-8.7-19.7 55.7-24.8 118-26.7 176.4 6.4-.9 12.9-1.6 19.4-2.3L189 212l13.1 45.4 15.4-12.8 6.5 29.2c50.3-1 101.2 3.1 149.3 7.7-6.2-38.1-11-84.1-11.7-127.4L325.5 137s20.6-5.2 36.3-8.9c.3-12.2 1-24.2 2.2-35.42zM304 293.7l5.7 59.1c3.9 2.5 7.4 5.6 10.3 9.2 1.7-2.1 3.5-4 5.6-5.7l-5.9-61.5c-5.2-.4-10.4-.7-15.7-1.1zM96 364.5c-12.81 0-23 10.2-23 23s10.19 23 23 23c12.8 0 23-10.2 23-23s-10.2-23-23-23zm64 0c-12.8 0-23 10.2-23 23s10.2 23 23 23 23-10.2 23-23-10.2-23-23-23zm64 0c-12.8 0-23 10.2-23 23s10.2 23 23 23 23-10.2 23-23-10.2-23-23-23zm64 0c-12.8 0-23 10.2-23 23s10.2 23 23 23 23-10.2 23-23-10.2-23-23-23zm64 0c-12.8 0-23 10.2-23 23s10.2 23 23 23 23-10.2 23-23-10.2-23-23-23zm64 0c-12.8 0-23 10.2-23 23s10.2 23 23 23 23-10.2 23-23-10.2-23-23-23zm-352 62c-13.18 0-29.27 4.3-42.85 8.4-1.08.3-2.11.7-3.15 1v18.8c2.59-.8 5.39-1.7 8.36-2.6 12.92-3.9 28.83-7.6 37.64-7.6 8.81 0 18.29 3.4 28.8 7.4 10.5 4 22 8.6 35.2 8.6 13.2 0 24.7-4.6 35.2-8.6 10.5-4 20-7.4 28.8-7.4s18.3 3.4 28.8 7.4 22 8.6 35.2 8.6c13.2 0 24.7-4.6 35.2-8.6 10.5-4 20-7.4 28.8-7.4s18.3 3.4 28.8 7.4 22 8.6 35.2 8.6c13.2 0 24.7-4.6 35.2-8.6 10.5-4 20-7.4 28.8-7.4s24.7 3.7 37.6 7.6c3 .9 5.8 1.8 8.4 2.6v-18.8c-1.1-.3-2.1-.7-3.2-1-13.5-4.1-29.6-8.4-42.8-8.4-13.2 0-24.7 4.6-35.2 8.6-10.5 4-20 7.4-28.8 7.4s-18.3-3.4-28.8-7.4-22-8.6-35.2-8.6c-13.2 0-24.7 4.6-35.2 8.6-10.5 4-20 7.4-28.8 7.4s-18.3-3.4-28.8-7.4-22-8.6-35.2-8.6c-13.2 0-24.7 4.6-35.2 8.6-10.5 4-20 7.4-28.8 7.4s-18.3-3.4-28.8-7.4-22.02-8.6-35.2-8.6z"></path></svg>