<svg stroke="currentColor" fill="currentColor" stroke-width="0" viewBox="0 0 512 512" height="1em" width="1em" xmlns="http://www.w3.org/2000/svg"><path d="M414.2 23.8c-32.6 21.11-82.2 38.16-89.9 75.73-21-23.55-52.9-37.08-77.1-37.48-35.4-.26-71.3 10.72-104.3 31.15 61.1 4.05 88.5 13.1 139 29.1l-21.8 9.6c-13.7 6-19.7 11.9-22.4 16.9-6 18.8 4.4 33.7 2.4 51 12.5-3.2 25.1-5.1 36.1-8.6 16.4-5.3 29-13 36.9-35.5l6.7-19.2 9.7 17.8c11.8 21.7 22.5 31.7 32.1 36.4 9.6 4.6 19.1 4.4 30.4 2.8 20-2.6 34.7-6.8 52.7-1.8-7.5-18-9.1-31.6-14.4-40.8-19.2-25-63.6-33.2-88.9-38.9 3-42.14 55.8-54.89 83-73.4zm-304.5 87.7c-20.49 30.3-3.9 61.7 28.8 56.2-1.8-22 5.8-42.5 21.6-56.1-13.7-3.2-40.4-10.9-50.4-.1zM195 116c-14.8 3.3-29.7 10.6-36.1 27.8-8.2 21.7 1 44.1 19.1 50.9 11.2 4.2 33.5.4 43.4-7.3 2.7-19.9-7.4-37.3 3.7-52.1-6-10.4-18.3-21.7-30.1-19.3zM88.98 167.1c-4.5 4.4-8.3 10-10.8 16.7-8.2 21.7 1 44.1 19.1 50.9 6.22 2.4 12.92 2.6 19.42 1-1.4-19.6 4-37 16.4-50.5-18.3-.6-33.32-4.8-44.12-18.1zm228.52 17.3c-10 12.5-22.9 19.7-35.8 23.9-13.6 4.4-27.3 6.5-39 9.5 4.6 4.5 10.3 8.2 16.9 10.7 23.5 8.8 48.4-1.7 56.3-22.6 2.6-7 3.1-14.4 1.6-21.5zm-168.9 9.4c-5.3 4.6-9.7 10.8-12.5 18.2-8.1 21.8 1 44.2 19.1 51 9.5 3.5 19.9 2.2 28.9-2.9-8.6-17.9 11.1-43.5 20.7-47-22.8-.8-42.1-.2-56.2-19.3zm187.7.5c-.6 12.6-5.3 24.3-12.5 33.4 1.6 13.8 9.7 25.5 21.9 30.1 18 6.8 39.7-4 47.9-25.8 2.7-7.1 3.5-14.3 2.7-21-26.1 1.4-42.5.3-60-16.7zm77.7 14c2 23.5-7.7 45.7-25.4 58.9 6.4 10.7 16.5 18.2 27.3 19.5 18.6 2.4 34.8-13.6 34.9-37.6 0-18.2-9.2-34.1-21.8-41.8-5.1-.2-10.6.3-15 1zm-189.3 16.1c-11.3 3.9-16.4 7.8-20.5 18.4-7.8 20.6 5.1 45.6 30.6 55.3 25.5 9.6 51.7-.8 59.4-21.5 3.6-9.4 2.8-19.8-1.5-29.1-27.1 5-51.7-2.7-68-23.1zM72.98 239.9c-4.4 5.6-7.5 12.7-8.7 21-3.33 23.3 10.2 44.6 28.8 48.8 3.06.7 6.21.8 9.32.5-5.54-18.9-2.41-40.6 8.2-55.5-14.45.4-28.23-5.4-37.62-14.8zm240.12 12c2.5 17.5.4 31.4-9.4 44.5 4 10.3 12 18.2 22.3 21.1 18.6 5.2 39.3-7.4 45.5-29.8 1.2-4.1 1.8-8.3 1.8-12.6-25.2 6.5-47.9-2.1-60.2-23.2zm-185.5 11.2c-5.8 6.5-9.6 15.5-10.2 26.1-1.3 23.5 14 43.5 32.9 46 7.8 1.1 15.3-1 21.6-5.4 0-15.7 5.7-30.4 15.4-41.2-.4-3.1-1.2-6.2-2.2-9.2-23 6.5-43.7 1.7-57.5-16.3zm260.3 29c-5.3 18.8-13.5 27.5-25.5 35.3 3.5 9.2 10.4 16.6 19.5 20 18 6.8 39.7-4 47.9-25.7 2.3-6.1 3.2-12.1 3-17.9-16 3.9-33.6-2.3-44.9-11.7zm-185.1 6.3c-4.4 4.2-8 9.5-10.3 15.6-8.1 21.3 2.4 44.7 23.2 52.5 20.9 7.9 44.1-2.8 52.2-24.1 3-8.2 3.4-16.7 1.5-24.5-26 3.9-48.9-2.1-66.6-19.5zm88.5 13.4c-1.5.4-3.1.9-4.6 1.5 4.8 25.4-3.8 49-23.4 63 2.4 3.1 5.5 5.6 8.9 7.5 16.8 9.1 41 2 53.8-17.7 6.5-9.9 8.5-20.7 6.8-30.1-16.9-.5-33.7-11.9-41.5-24.2zm-226.37 1.4c-2.35 5.3-3.7 11.5-3.71 18.4 0 21.8 13.26 40.4 29.66 45.4-4.57-17.1-4.06-33.9 3.4-48.8-11.04-2-22.45-8.3-29.35-15zm48.57 18.5c-3.8 5.3-6.4 11.9-7.5 19.4-3.4 23.3 10.2 44.6 28.8 48.7 4.7 1.1 9.6 1 14.3-.3-2.8-17.3-1.1-32 7.1-45.9-16.3 0-34.3-11.3-42.7-21.9zm238.3 13.8c-2.5 20.3-11.9 36.3-27.4 47.4 2.7 4.6 6.6 8.4 11.5 11.1 16.7 9.2 40.9 2.1 53.8-17.6 4-6.3 6.3-12.8 7.1-19.1-18 1-35.6-8.3-45-21.8zm-174 9c-4.8 5-8.5 11.4-10.6 18.9-6.3 22.2 5.2 44 24.5 49.4 19.3 5.4 40.3-7.3 46.6-29.6.6-2.3 1-4.6 1.3-7-30.8 6.1-50.7-9.8-61.8-31.7zm78.6 40.5c-3.7 14.3-14.6 29.9-24.9 37.1 2.5 3.1 5.5 5.6 9 7.5 16.8 9.1 40.9 2.1 53.8-17.7 3.9-6 6.2-12.3 7-18.5-18 2.2-31.9 1.2-44.9-8.4zm-155.8 1.3c-1.04 4.9-1.26 6.7-1.42 10.1-.6 12 2.72 23.1 7.92 31 5.3 7.8 12.1 12.3 19.5 13 2.2-11.7 4.1-23 9.1-32.1-15.7-4.6-26.9-9.6-35.1-22zm217.3 17.3c-4.8 16.3-17 30.4-30.4 38.4.3.2.5.4.8.5 15.5 10.5 40.9 6 56.7-12.1 4.3-4.8 7.2-10 9-15.1-14.6-.4-25.9-3.2-36.1-11.7zm-160.5 4.9c-3.7 4.3-6.9 9.5-9.2 15.6-8.4 22.2-.3 43.7 14.9 49.4 15.2 5.7 35.4-5.2 43.7-27.3 1.9-5.2 3-10.2 3.3-15.1-21.3 3.3-41.7-6.4-52.7-22.6zm69.2 33.7c-2.2 10.7-7.6 21.4-13.7 29.2.8.9 1.8 1.8 2.8 2.5 6 4.4 14.1 5.5 23.2 3 15.8-6.1 26-14.4 32.9-28.2-17.4 2.5-32.5 2.2-45.2-6.5z"></path></svg>