<svg stroke="currentColor" fill="currentColor" stroke-width="0" viewBox="0 0 512 512" height="1em" width="1em" xmlns="http://www.w3.org/2000/svg"><path d="M256 113.3a42.25 12.34 0 0 0-42.2 12.3 42.25 12.34 0 0 0 42.3 12.3 42.25 12.34 0 0 0 42.2-12.3 42.25 12.34 0 0 0-42.2-12.3 42.25 12.34 0 0 0-.1 0zm-28.8 32.3 5.1 10.9-23.3 11.4s16.4 7 47 7 47.1-7 47.1-7l-23.4-11.4 5.1-10.9c-19.2 3.8-38.4 3.3-57.6 0zm90.2 28.6c-3.8 1.2-9.3 2.6-16.3 3.9 34.9 3.8 69.8 12.1 104.5 25l13.7-1.3c-34-13.5-67.9-22.6-101.9-27.6zm-122.1.2c-34.2 5.1-68.4 14.2-102.5 27.4l13.6 1.3c35.2-12.7 70.4-20.9 105.4-24.8-7.1-1.3-12.6-2.7-16.5-3.9zm235.3 37.8a12.43 12.43 0 0 0-2.7.3c-111.6 23.1-226 20.9-343.98 0a12.43 12.43 0 0 0-2.36-.2 12.43 12.43 0 0 0-12.06 10.2 12.43 12.43 0 0 0 10.06 14.4c120.34 21.5 238.14 23.7 353.34 0a12.43 12.43 0 0 0 9.7-14.7 12.43 12.43 0 0 0-12-10zM22.98 250.6c-2.68 0-5.25 1.1-7.1 3.1-1.86 2-2.78 4.6-2.68 7.4.21 2.7 2.57 4.9 5.35 4.9 11.53.4 39.62 4.3 42.5 34.5l13.68 2.9-11.11-52.8H22.98zm425.12 0L437 303.4l13.7-2.9c2.8-30.2 30.9-34.1 42.4-34.5 2.8 0 5.2-2.2 5.4-4.9.1-2.8-.8-5.4-2.7-7.4-1.8-2-4.4-3.1-7.1-3.1h-40.6zM81.7 255s9.9 83 42.1 157.5c0 0 24.6 28.3 132.2 28.3 107.7 0 132.3-28.3 132.3-28.3 32.1-74.5 42-157.5 42-157.5s-40.7 16.4-174.3 16.4C122.4 271.4 81.7 255 81.7 255zm160.7 72.2h27.2c6.4 0 12.6 2.7 16.8 7.5 4.3 4.9 6.3 11.3 5.6 17.6-1.9 15.5-4.2 34.9-5.9 49.5-1.4 11.9-11.5 20.8-23.5 20.8h-13.2c-12 0-22-8.9-23.5-20.8-1.7-14.6-4-34-5.8-49.5-.8-6.3 1.2-12.7 5.5-17.6 4.3-4.8 10.4-7.5 16.8-7.5zm-1.2 13.2c-4.6 0-8.4 3.6-8.4 8.3 0 4.6 3.8 8.3 8.4 8.3h29.5c4.7 0 8.3-3.7 8.3-8.3 0-4.7-3.6-8.3-8.3-8.3h-29.5zm1.9 30.5c-4.7 0-8.4 3.7-8.4 8.3 0 4.7 3.7 8.4 8.4 8.4h25.7c4.7 0 8.4-3.7 8.4-8.4 0-4.6-3.7-8.3-8.4-8.3h-25.7zm-116.8 69.7 6.8 18.1 44.2 7.1 6.7-14.2-57.7-11zm259.7 0-57.7 11 6.7 14.2 44.2-7.1 6.8-18.1z"></path></svg>