<svg stroke="currentColor" fill="currentColor" stroke-width="0" viewBox="0 0 512 512" height="1em" width="1em" xmlns="http://www.w3.org/2000/svg"><path d="M256 42.37L177.9 87h156.2L256 42.37zM201 105v110h14c0-27.5.2-48.8 4.3-65.2 2.2-9 5.9-16.9 12.2-22.5 6.4-5.7 15-8.3 24.5-8.3s18.1 2.6 24.5 8.3c6.3 5.6 10 13.5 12.2 22.5 4.1 16.4 4.3 37.7 4.3 65.2h14V105H201zm-18 3.8L25 166.3v14.8l158-57.5v-14.8zm146 0v14.8l158 57.5v-14.8l-158-57.5zm-146 34.1L25 200.3v74.9l17-6.2v-14.9c0-15.6.26-27.5 3.28-37.3 1.5-4.9 3.89-9.5 7.95-12.9 4.06-3.4 9.48-5 14.77-5 5.29 0 10.71 1.6 14.77 5 4.06 3.4 6.45 8 7.95 12.9 2.75 8.9 3.21 19.7 3.27 33.3l20.01-7.3V231.2c0-15.6.3-27.5 3.3-37.3 1.5-4.9 3.9-9.5 7.9-12.9 4.1-3.4 9.5-5 14.8-5 5.3 0 10.7 1.6 14.8 5 4 3.4 6.4 8 7.9 12.9 2.5 8.2 3.1 17.9 3.3 30l17-6.2v-74.8zm146 0v74.8l17 6.2c.2-12.1.8-21.8 3.3-30 1.5-4.9 3.9-9.5 7.9-12.9 4.1-3.4 9.5-5 14.8-5 5.3 0 10.7 1.6 14.8 5 4 3.4 6.4 8 7.9 12.9 3 9.8 3.3 21.7 3.3 37.3v11.6l20 7.3c.1-13.6.6-24.4 3.3-33.3 1.5-4.9 3.9-9.5 7.9-12.9 4.1-3.4 9.5-5 14.8-5 5.3 0 10.7 1.6 14.8 5 4 3.4 6.4 8 7.9 12.9 3 9.8 3.3 21.7 3.3 37.3V269l17 6.2v-74.8l-158-57.5zM193.6 233L25 294.3v28.8L190.4 263h131.2L487 323.1v-28.8L318.4 233H193.6zm0 48L25 342.3v39.8c140.4-100 321.6-100 462 0v-39.7L318.4 281H193.6z"></path></svg>