<svg stroke="currentColor" fill="currentColor" stroke-width="0" viewBox="0 0 512 512" height="1em" width="1em" xmlns="http://www.w3.org/2000/svg"><path d="M287.7 18.92l-68.6 3.62 1.1 15.11.4-.1c5.8-1.24 11.3-1.89 16.4-2.05 15.4-.48 27.9 3.45 38.2 9 3.9 2.13 7.5 4.43 11 6.76zm-47.8 34.39c-.7 0-1.5 0-2.2.1-3.9.17-8.1.73-12.8 1.7-27.7 9.5-46.1 20.91-56.5 32.09-10.5 11.18-13.2 21.6-11.2 32 3.8 19.2 28.1 41.2 68.3 54.9v-33.3c-5-2.7-8.9-5.9-10.8-11.5-1.3-3.7-.9-7.8.2-10.9 1.1-3.2 2.8-5.7 4.8-8.4l4.5-6.1 6.8 3.5c48.1 24.4 81.6 30.6 108.3 19.5 12.8-5.3 16.4-10.3 16.8-11.9.3-1.6-.5-4.5-5.7-9-10.2-9.22-33.2-18.78-47.1-22.2l-1-.27-1-.52c-13.7-7.23-23.7-16.7-34.7-22.68-7.8-4.2-15.8-7.11-26.7-7.02zm49.8 37.19a7.916 7.878 0 0 1 7.9 7.88 7.916 7.878 0 0 1-7.9 7.92 7.916 7.878 0 0 1-7.9-7.92 7.916 7.878 0 0 1 7.9-7.88zm147.8 32.7c-12.3.3-24 3.5-33 8.4-10.5-1.4-21.4-4.2-32.7-7.7-2.7 5.6-7.6 10.2-14.6 14.3 13.9 4.6 28.1 8.7 42.4 10.9 2.7 12.8 8 25.5 17.7 37.1l13.8-11.6c-7.7-9.2-11.9-18.7-14-29 8.4-3.3 20.7-5.5 31.2-3.5l3.2-17.8c-4.7-.8-9.4-1.2-14-1.1zm-194 9.9v57.7c6.7-1.8 12.8-3.5 17.6-5 3.6-1.2 6.1-2.2 7.6-3l.3-40c-8.2-2.6-16.6-5.8-25.5-9.7zm43.4 25.8l-.2 27.4v-.3c.1 3.6-1.7 6.7-3.3 8.5-1.7 1.8-3.4 2.8-5.1 3.8-3.5 1.9-7.3 3.2-11.8 4.6-8.9 2.8-20.1 5.6-31.3 9-11.2 3.4-22.4 7.6-30.6 12.4-8.1 4.9-12.6 10-13.6 15.2-3.1 16.4-.1 25.6 7.5 34.2 5.2 6.1 13.6 11.7 24 17.2l-2.4-21.3 6.1-2.6c18.3-8.1 38.3-13.8 55.3-21.1 17.1-7.2 30.7-15.8 38.2-28.2 4.7-7.9 5.5-13.6 4.5-19-.9-5.3-4-10.7-9.1-16.4-7-7.8-17.5-15.5-28.2-23.4zm-17.1 110.9c-10.4 3.8-20.8 7.3-30.3 11.2l3.3 30.2h.1c9-2.9 17.4-5.4 22.9-7.6 2.3-1 3.7-1.8 4.6-2.4zm18.3 15.4l.3 18.2v.2c0 5.3-3.4 9.2-6.3 11.5-2.9 2.2-6 3.7-9.5 5.1-7 2.9-15.4 5.3-24.1 8.1-17.1 5.5-34 13.4-38.9 21.3-5.5 15.8-3.5 23.3 2 30 3.4 4.2 9 8 15.8 11.8l-2.2-18.7 7.3-2.1s19.9-5.9 40.2-15.8c10.2-5 20.4-10.9 27.9-17.3 7.6-6.3 12-12.8 12.8-18.1.4-2.5-.8-6.7-4-11.9-3.3-5.1-8.4-10.7-13.8-15.7-2.5-2.4-5.1-4.6-7.5-6.6zm-19.9 91.5c-9.9 4.2-17.8 6.9-23.1 8.6l.5 7 3.5 29.7-1.4-.7.1 1.2 1.2-.3c5.9-1.4 10.9-2.9 13.5-4.3 2.7-1.4 2.2-1.3 2.2-1.4l3.3-37.2zm16.6 17.6l-2.1 23.8c-.7 7.5-6.5 13-11.9 15.8-5.5 2.8-11.5 4.3-17.7 5.8-12.4 2.9-25.9 5.8-33.1 10.6-7.1 4.7-11.3 9.3-13.3 12.9-2 3.7-2.1 6.1-1.2 9.1 1.3 4 6.1 9.4 14.2 14.5-.1-4.4.4-8.5 2.2-12.6 1.9-4.3 5.8-7.8 9.8-9.7 4-1.9 8.2-2.8 13.2-3.7 11.1-1.9 27.9-5.5 41.6-12.2 13.7-6.7 23.2-15.4 24.7-28.1.2-2-.8-4.9-3.9-8.8-3-3.8-7.9-7.9-13-11.5-3.3-2.2-6.5-4.2-9.5-5.9zM266 474.8c-5.2 1.3-10 2.3-14.2 3.1l1 14.5 12.3.7z"></path></svg>