<svg stroke="currentColor" fill="currentColor" stroke-width="0" viewBox="0 0 512 512" height="1em" width="1em" xmlns="http://www.w3.org/2000/svg"><path d="M115.656 28.16C42.89 96.712 27.625 185.73 46.39 263.08a232.81 232.81 0 0 1 13.507-24.022C49.238 172.145 66.094 99.583 128 41.26zm280.688 0L384 41.26c61.906 58.323 78.762 130.885 68.104 197.798a232.812 232.812 0 0 1 13.507 24.021c18.764-77.348 3.499-166.366-69.267-234.92zM194.365 69.613a4.6 4.6 0 0 0-.7.07c-27.81 5.234-50.363 30.588-67.784 62.034-11.011 19.875-19.705 41.487-26.666 60.842 31.81-28.97 71.662-49.247 115.785-57.098V115.84h82v19.611c40.735 7.25 77.826 25.102 108.313 50.598-.663-3.694-1.462-7.447-2.446-11.17-4.722-17.875-13.374-34.987-24.129-42.738-2.772-1.999-.307-1.308-4.084-.52-3.777.788-11.258 2.664-23 2.213-8.63-.331-15.5-6.455-18.683-12.572-3.184-6.118-4.443-12.57-5.756-18.467-1.313-5.897-2.68-11.238-4.152-14.068-1.474-2.831-1.291-2.812-3.409-2.893-8.092-.31-28.564 3.406-45.64 7.453-17.077 4.047-31.526 8.201-31.526 8.201l-5.697 1.639-3.756-4.586s-6.907-8.405-15.879-16.266c-4.486-3.93-9.464-7.651-13.873-9.97-3.857-2.03-7.079-2.75-8.918-2.692zM233 133.841v16h46v-16zm-18 19.912C129.075 170.309 61.465 237.919 44.908 323.84h80.362c14.075-44.798 50.578-79.744 96.298-91.617l-6.298-25.2-2.797-11.183h87.054l-9.095 36.383c45.72 11.873 82.223 46.82 96.298 91.617h80.362C450.535 237.919 382.925 170.309 297 153.753v14.088h-82zm20.527 60.088l11.5 46h17.946l11.5-46zm-9.6 35.82c-37.898 9.833-68.395 37.828-81.697 74.18H247v-46h-14.027zm60.145 0l-7.045 28.18H265v46h102.77c-13.302-36.352-43.799-64.347-81.698-74.18zM25 341.841v30h462v-30zm17.451 48a213.875 213.875 0 0 0 12.492 51.328l5.328-5.328h78.608c-8.461-13.91-14.522-29.435-17.588-46zm97.176 0a118.396 118.396 0 0 0 20.812 46h37.915l-13.143-46zm64.305 0l26.857 94h50.422l26.857-94zm122.857 0l-13.143 46h37.915a118.396 118.396 0 0 0 20.812-46zm63.92 0c-3.066 16.565-9.127 32.09-17.588 46h78.608l5.328 5.328a213.875 213.875 0 0 0 12.492-51.328zm-322.98 64l-30.002 30h174.341l-8.572-30zm240.775 0l-8.572 30h174.341l-30.002-30z"></path></svg>