<svg stroke="currentColor" fill="currentColor" stroke-width="0" viewBox="0 0 512 512" height="1em" width="1em" xmlns="http://www.w3.org/2000/svg"><path d="M256 20c-52 0-104 4-160 12-16.432 224-16 224 0 448 112 16 208 16 320 0 16-224 16-224 0-448-56-8-108-12-160-12zm0 12l16 16h-7v151h18.184l25.234-37.854L275.27 128l32.003-32-32.002-32L297.6 41.676l-5.143-5.143h22.627V59.16l-4.758-4.758L300.727 64l32.002 32-32.003 32 30.855 30.854-25.873 38.808c44.373-18.947 68.128-73.205 53.56-131.478l-6.61-26.432 21.053 17.293c21.43 17.606 36.194 44.522 42.748 72.883 6.555 28.36 4.962 58.503-8.628 82.506-9.45 16.688-24.175 26.49-41.7 31.257-5.4 1.47-11.08 2.536-17.058 3.31H416v18h-66.926c5.978.774 11.657 1.84 17.057 3.31 17.527 4.766 32.253 14.568 41.702 31.256 13.59 24.003 15.183 54.145 8.63 82.506-6.555 28.36-21.318 55.277-42.75 72.883l-21.052 17.293 6.61-26.432c14.568-58.273-9.187-112.53-53.56-131.478l25.872 38.808L300.727 384l32.002 32-32.003 32 9.597 9.598 4.758-4.758v22.627h-22.627l5.143-5.143L275.27 448l32.003-32-32.002-32 33.148-33.146L283.184 313H265v151h7l-16 16-16-16h7V313h-18.184l-25.234 37.854L236.73 384l-32.003 32 32.002 32-22.328 22.324 5.143 5.143h-22.627V452.84l4.758 4.758 9.597-9.598-32.002-32 32.003-32-30.855-30.854 25.873-38.808c-44.373 18.947-68.128 73.205-53.56 131.478l6.61 26.432-21.053-17.293c-21.43-17.606-36.194-44.522-42.748-72.883-6.555-28.36-4.962-58.503 8.628-82.506 9.45-16.688 24.175-26.49 41.7-31.257 5.4-1.47 11.08-2.536 17.058-3.31H96v-18h66.926c-5.978-.774-11.657-1.84-17.057-3.31-17.527-4.766-32.253-14.568-41.702-31.256-13.59-24.003-15.183-54.145-8.63-82.506 6.555-28.36 21.318-55.277 42.75-72.883l21.052-17.293-6.61 26.432c-14.568 58.273 9.187 112.53 53.56 131.478l-25.872-38.808L211.273 128 179.27 96l32.003-32-9.597-9.598-4.758 4.758V36.533h22.627l-5.143 5.143L236.73 64l-32.003 32 32.002 32-33.148 33.146L228.816 199H247V48h-7l16-16zM130.822 92.42c-8.118 12.284-14.306 26.675-17.746 41.56-5.764 24.943-3.88 50.8 6.756 69.586 7.17 12.664 16.443 18.86 30.762 22.756 12.425 3.38 28.78 4.365 48.406 4.58v-16.94c-44.835-19.294-70.83-67.72-68.178-121.542zm250.356 0c2.652 53.823-23.343 102.248-68.178 121.543v16.94c19.625-.216 35.98-1.2 48.406-4.58 14.32-3.896 23.592-10.093 30.762-22.757 10.636-18.785 12.52-44.643 6.756-69.586-3.44-14.885-9.628-29.276-17.746-41.56zM217 217v26.412c4.057-12.462 13.95-22.355 26.412-26.412H217zm51.588 0c12.462 4.057 22.355 13.95 26.412 26.412V217h-26.412zM256 233c-12.81 0-23 10.19-23 23s10.19 23 23 23 23-10.19 23-23-10.19-23-23-23zm-39 35.588V295h26.412c-12.462-4.057-22.355-13.95-26.412-26.412zm78 0c-4.057 12.462-13.95 22.355-26.412 26.412H295v-26.412zm-96 12.51c-19.625.215-35.98 1.2-48.406 4.58-14.32 3.895-23.592 10.092-30.762 22.756-10.636 18.785-12.52 44.643-6.756 69.586 3.44 14.885 9.628 29.276 17.746 41.56-2.652-53.823 23.343-102.248 68.178-121.543v-16.94zm114 0v16.94c44.835 19.294 70.83 67.72 68.178 121.542 8.118-12.284 14.306-26.675 17.746-41.56 5.764-24.943 3.88-50.8-6.756-69.586-7.17-12.664-16.443-18.86-30.762-22.756-12.425-3.38-28.78-4.365-48.406-4.58z"></path></svg>