<svg stroke="currentColor" fill="currentColor" stroke-width="0" viewBox="0 0 512 512" height="1em" width="1em" xmlns="http://www.w3.org/2000/svg"><path d="M446.6 23.16L334.3 45.63l74.8 15 15 74.87zM400 69.8l-88.8 24.11 40.3 24.29 24.3 40.4zm-288.2 38.1c-3.6.2-7.2.9-10.9 2.2-21.56 7.9-38.26 26.2-50.55 49.5s-20.36 52-24.32 82.3c-6.35 48.8-6.55 95.5 8.65 135.7-1.48 1.1-2.91 2.4-4.26 3.7-15.91 15.9-15.91 42.1 0 58 15.91 15.9 42.08 15.9 57.99 0 13.69-13.7 15.59-35 5.67-50.9L116 366.5l-12.7-12.8-21.97 22c-8.59-5.4-18.81-7.3-28.55-5.8-13.24-36.3-14.77-80.6-8.9-125.6 3.73-28.7 11.44-55.5 22.39-76.3 10.95-20.8 24.94-35.2 40.83-40.9 9-3.3 13.8-1.7 20.3 4.8 6.6 6.5 13.1 18.9 18.7 35.2 7.4 21.8 13.2 50.1 18.5 80.1l15.5-15.6c-4.7-25.7-10.1-50.1-17-70.3-6-17.6-12.9-32.2-23-42.2-7-6.9-16.3-11.1-26.3-11.2zm218.6 18.7l-44.7 44.7 12.8 12.8 44.7-44.7-4.9-8zm-78.7 36.2l-21.2 21.3 55.2 55.2 21.2-21.3zM432.8 203c-12.7-.3-23.6 6-32.2 14.5-8.5 8.5-15.4 19.3-21.1 30.6 3.3 7.3 7 14 10.8 20.1 6.3-14.7 14.2-29.2 23-37.9 6.4-6.4 12.5-9.5 18.9-9.3 6.5.2 14.9 3.8 25.4 15.1 13.5 14.3 17.8 24.8 17.9 31.6.1 6.8-3.1 11.8-10.2 17.3-9.9 7.8-26.5 14-42 20.1 5.6 4.6 11.5 8.8 17.6 12.8 12.3-4.8 25.2-10.6 35.5-18.7 9.6-7.5 17.3-18.4 17.1-31.8-.3-13.5-7.6-27.5-22.7-43.7-12.6-13.4-25.4-20.3-38-20.7zm-203.7 5.1L140 297.2l32.5 32.6 89.2-89.2zM358 257.9c-7.6-.3-9.8 11.2-5.2 15.6 14.9 20.5 28.4 52.2 69.1 70.5 9.7-1.5 13-4.8 11.7-9.5-26.5-16.9-50.3-38.5-67.5-72.7-3.1-2.7-5.8-3.8-8.1-3.9zm-33.6 16.5c-6.5.2-8.4 9.6-5.9 13.9 21 36.7 55 69.5 84 87.1 20.1 2 16.3-10.9 9.4-15.4-25.8-15.6-58.8-47.4-77.8-80.7-3.9-3.6-7.2-5-9.7-4.9zm-34.1 13.2c-6.3.2-12.1 8.1-8.6 12.9 21 37.4 72.3 88.5 100.5 105.6 8.5 6 21.6-5.8 9.4-15.4-22.2-13.5-76.3-67-94.3-99-2.1-3-4.6-4.1-7-4.1zm-163 22.3l-21.2 21.2 32.5 32.6 21.2-21.2zm140.2 8.7c-6.3.4-10.3 7.9-3.9 16.7 19.1 37.4 50.7 66.1 86.5 91.5 13.2 8.1 21.1-5.2 10.4-14.6-34.6-24.6-63.8-51.5-80.9-85.1-3.5-5.9-7.7-8.4-11.4-8.5zm-70.6 12.2l-15.5 15.5c4.3 22.6 9.2 43.1 15.4 59.4l-.2.2c-8.5 8-15.2 17.7-16.3 29.4-1.2 11.7 3.5 24.1 13.8 36 9.6 11 20.7 16.9 31.9 17.5 11.2.5 21.6-4 30.6-10.5 15.5-10.9 28.7-27.8 39.4-42.7 5.7 5.1 11.5 10.1 17.6 15.1 11 4.6 15.3.7 11.4-13.8-33.5-27.7-60.3-56-76.1-85.1-12.8-12.6-19.5 1.3-15.8 8.6 3.2 5.8 6.7 11.5 10.5 17.2-10.8 4.7-21.9 10.1-31.8 16.6-5.7-16.6-10.4-38.9-14.9-63.4zM60.31 387.2c5.57.2 11.08 2.5 15.37 6.8 9.05 9.1 9.05 23.5 0 32.6-9.05 9-23.48 9-32.53 0-8.79-8.8-9.04-22.7-.77-31.8 1.97 3.8 4.08 7.5 6.38 11.1 6.21 9.4 23.37 3.3 17.59-8.1-2.17-3.4-4.17-6.9-6.04-10.6zm194.39 5.3c8.3 10.4 17.7 20.6 28 30.6-10.8 15.1-23.8 31.6-36.4 40.5-7.1 5-13.7 7.4-19.5 7.2-5.8-.3-11.8-2.9-19.1-11.3-8.2-9.4-10.1-16.4-9.5-22.4.5-4.6 2.7-9.2 6.7-13.9 4.9 8.1 10.8 14.4 19.1 17.4 6.1 2.1 13.1 1.8 19.6-.7 6.4-2.6 12.5-7 18.8-13.3l-12.8-12.8c-5.1 5.2-9.5 8.1-12.7 9.3-3.1 1.3-4.9 1.2-6.8.5-2.9-1.1-7-5.1-11.1-12.5 10.2-6.9 23.1-13.2 35.7-18.6z"></path></svg>