<svg stroke="currentColor" fill="currentColor" stroke-width="0" viewBox="0 0 512 512" height="1em" width="1em" xmlns="http://www.w3.org/2000/svg"><path d="M419.1 21.18c-5.5 13.76-17.6 26.38-26.6 30.87l-29.9-13.97c-5.5 14.92-3.3 24.37 3.5 32.96-9.4 4.87-20.5 5.17-32.7 2.27-1.5 15.76 10.9 29.39 26.2 29.39 6-7.82 15.2-16.68 27.2-22.75 14.7-7.42 34.5-9.25 53.6 2.76 24.1-1.56 31.4-27.47 31.4-44.17-20.3 8.09-25.9 15.21-46.3 17.73 10.5-10.22 2.7-26.56-6.4-35.09zM68.76 89.2c26.79 16.4 52.74 27.7 58.64 50.1-35.13-11.3-66.12 7.7-87.19 41 27.57-9.3 45.01-15.7 74.59-12.9-26.81 11.7-54.33 25.1-52.48 47.1 19.05-11 23.5-17.7 52.68-17.6-28.21 16.9-43.69 28.1-37.58 66.5 9.55-16.1 33.08-31.6 50.28-34.4-24.8 30-29.27 48.6-18.8 78.9 8.9-13.6 18-37.1 36.1-47.2-9.2 20-5.5 49.6 3.2 63.6 9.4-17.4 16.4-35.8 35-50.2 20.4 33.1 35.7 67.3 85.7 94.6 7.8 8.4 12.4 18.4 13.2 32.4H337l17.5-32.2c52.1-20 81.4-51.1 96.5-87.5-8.3-4.5-13.4-12.4-16.9-19.9-13.3 13.2-20.8 25.8-29.7 41.4-8.7-12.5-15.5-27.6-17.1-41.3-11.7 9.7-18.7 19.6-27.4 31.7-6.7-14.4-12.2-31.2-12.4-44.9-19 6.5-24.4 14.7-37 29.2-6.3-21.3-12.7-47.2-6.6-62.6-75.9 3.8-67-92.4-98.4-118.06.6 14.46-8.2 40.16-13.1 42.06-20-46.54-89-49.79-123.64-49.8zm343.04 1.27c-6.2 0-11.8 1.88-17.4 4.65-11.3 6.58-20.6 15.78-27.2 26.88-1.8 14.9.6 29.7.1 44.5-.6 20.5-16.8 42-34.9 45.4-2.1.3-4.1.7-6.1 1-10.8 8-8.2 19.6-5.7 29.9 15.3-10.2 29.4-12.4 46.3-15.2-2.1 10.3-2.8 21.7-1.2 31.1 12.7-12.8 24-20.4 38.4-30.8-.7 13.4-1.2 28.7 1.8 40.3 11.2-15 20.9-23.3 35.1-33.5 4.4 9.1 10 25.8 15.8 30.5 2.6-8.5 4.4-17.3 5.8-26.2 1.9-13.9-3.9-27-10.4-40.3-12.9-.4-25.6-7.6-35.1-17.8-12.2-12.9-19.3-33.1-10.2-52.5l2.3-5c10.9.3 22.8.7 32.1 3.5 12.5 1.7 24.4 12 29.3 10.2-3.2-13.1-12.5-34.6-34.6-31.1 1.1-10.04-17.3-15.29-24.2-15.53zm-1.7 7.12c4.1 0 7.4 3.21 7.4 7.21s-3.3 7.2-7.4 7.2c-4.1 0-7.5-3.2-7.5-7.2s3.4-7.26 7.5-7.21zm10.4 43.31c-2.7 10.5 1.5 20.5 8.9 28.4 6.6 7 15.5 11.1 22.5 12.1-.2-16.6-1.9-26.9-5.5-31.9-6.7-7.6-17.2-8.1-25.9-8.6zM286.1 418.2l3.3 18.4c-10.3 2.4-21.2 3.7-35.9 1.8l-2.2 16.8c13.1 1.8 24.2 1.2 34.1-.4l-18.6 18.5.9 17.2 27.5-21.7 3.6 22 16.8-2.9-5.7-34.7 13.6-.8 8.5 37.2 16.6-3.7-3.7-16.1c18 8.6 36.4 10.4 51.8 12.7l-15.1-17.9c-20.3-3.1-23.1-3.9-41-17.3l-5.5-29.1h-17.2l3.2 17.3-14.4.8-3.3-18.1z"></path></svg>