<svg stroke="currentColor" fill="currentColor" stroke-width="0" viewBox="0 0 512 512" height="1em" width="1em" xmlns="http://www.w3.org/2000/svg"><path d="M465.3 25C442.9 33.05 427 39.94 427 39.94l-3 1.3-55-15.99c4.1 11 5.6 21.33 5.3 30.91C390.2 65.4 401 72.59 401 72.59l2 1.31 24.7-9.15 3 1.11s21.3 7.63 49.4 15.3c2.3-.34 4.6-.63 6.9-.9V25h-21.7zm-198.9 8.32c-.9 0-1.7.01-2.6.04-24 .53-57.6 8.98-85.8 18.19-32.2 10.53-57.8 21.64-57.8 21.64l-3 1.3L62.25 58.5c3.94 10.71 5.5 20.77 5.3 30.14 3.43-.28 6.8-.45 10.09-.5v.01c4.01-.06 7.91.07 11.66.4 17.4 1.56 37.3 8.9 56.3 17.75 9.9 3.1 22.4 6.8 36.2 10.4 32.1 8.4 71.1 15.5 94.6 12.4 2.7-.4 5.6-1 8.7-1.7-1.8-4.6-4.2-9.4-7.4-14.6l-12-19.8 61 17.8c7.6-3.8 15-7.8 22-11.76 12.6-7.21 23.1-13.81 30.8-18.78-7.9-4.9-18.7-11.37-32-18.47-24.4-13.14-54.8-26.45-74-28.16-2.3-.2-4.6-.31-7.1-.31zm33.9 20.56a9 9 0 0 1 9 9 9 9 0 0 1-9 9 9 9 0 0 1-9-9 9 9 0 0 1 9-9zm-80.7 2.85l2.6 17.82c-11.8 1.65-14.5 5.16-14.5 5.38-.1.11-.2.22.2 1.35.5 1.12 1.6 2.96 3.6 4.83 3.8 3.74 10.4 7.52 17 9.19s12.8 1.28 17.3-1.23l8.8 15.63c-9.7 5.5-20.8 5.5-30.5 3.1-9.8-2.5-18.7-7.4-25.2-13.82-3.3-3.2-6-6.8-7.7-11.09-1.7-4.29-2.2-9.58-.3-14.46 3.8-9.77 14.1-14.65 28.7-16.7zM487 98.61c-21.5 2.79-46.9 9.59-69 16.79-32.2 10.5-57.8 21.7-57.8 21.7l-3 1.2-54.9-15.9c5 13.8 6.2 26.5 4.6 38-1.1 8.6-3.5 16.4-6.4 23.8l60.4-22.4 3 1.1s25.7 9.3 57.9 17.6c20.9 5.5 44.6 10.4 65.2 12.3v-16.1c-7.6 2.1-15.6 1.7-22.9-.1-9.8-2.5-18.7-7.4-25.2-13.8-3.3-3.2-6-6.8-7.7-11.1-1.7-4.2-2.2-9.5-.3-14.4 3.8-9.8 14.1-14.7 28.7-16.7l2.6 17.8c-11.8 1.7-14.5 5.2-14.5 5.4-.1.1-.2.2.2 1.3.5 1.1 1.6 3 3.6 4.8 3.8 3.8 10.4 7.5 17 9.2 6.6 1.7 12.8 1.3 17.3-1.2l1.2 2.1V98.61zM78.02 106.2c-15.13.3-34.05 3.8-53.02 8.6v16.5c2.74-.7 5.69-1.3 8.85-1.7l2.5 17.8c-5.65.8-9.18 2.1-11.35 3.1v7.7c.21.3.43.5.66.7 3.83 3.8 10.41 7.5 17.01 9.2 6.6 1.7 12.85 1.3 17.3-1.2l8.86 15.6c-9.7 5.5-20.78 5.5-30.56 3.1-4.69-1.2-9.16-3-13.27-5.2v12.9l24.2 7.1c11.12 1.5 21.69 2.4 30.86 2.2 9.94-4 26.44-10.4 46.74-17 8.1-2.6 16.6-5.3 25.2-7.7 3.7-2 7.4-4 10.9-6 12.6-7.3 23.1-13.8 30.8-18.8-7.9-4.9-18.7-11.4-32-18.5-24.4-13.1-54.8-26.4-74-28.1-2.26-.2-4.64-.3-7.14-.3h-2.54zm36.48 20.5a9 9 0 0 1 9 9 9 9 0 0 1-9 9 9 9 0 0 1-9-9 9 9 0 0 1 9-9zm103.7 57.8c-24 .5-57.6 9-85.8 18.2-32.2 10.5-57.81 21.7-57.81 21.7l-2.99 1.3L25 212v55.8l50.25-18.7 3.1 1.1s25.65 9.3 57.85 17.6c32.1 8.4 71.1 15.5 94.6 12.4 18.9-2.5 48.5-16.5 72.3-30 12.6-7.3 23.1-13.9 30.8-18.8-7.9-4.9-18.7-11.4-32-18.5-24.4-13.2-54.8-26.4-74-28.1-2.2-.2-4.6-.3-7.1-.3h-2.6zm36.5 20.5a9 9 0 0 1 9 9 9 9 0 0 1-9 9 9 9 0 0 1-9-9 9 9 0 0 1 9-9zm-80.7 2.9l2.6 17.8c-11.8 1.7-14.5 5.2-14.5 5.4-.1.1-.2.2.2 1.3.5 1.1 1.6 3 3.6 4.8 3.8 3.8 10.4 7.5 17 9.2 6.6 1.7 12.8 1.3 17.3-1.2l8.8 15.6c-9.7 5.5-20.7 5.5-30.5 3.1-9.8-2.5-18.7-7.4-25.2-13.8-3.3-3.2-6-6.8-7.7-11.1-1.7-4.2-2.2-9.5-.3-14.4 3.8-9.8 14.1-14.7 28.7-16.7zm252.5 23.9c5 13.8 6.2 26.6 4.6 38.1-1.1 8.6-3.5 16.4-6.4 23.8l60.4-22.4 1.9.7v-26.5c-1 .4-2.6 1.1-2.6 1.1l-3 1.3-54.9-16.1zM25 278.8v93.7c18.91-3.7 46.09-16.7 68.25-29.3 12.65-7.3 23.15-13.9 30.85-18.8-7.9-4.9-18.7-11.4-31.97-18.5-21.7-11.7-48.04-23.4-67.13-27.1zm321.9 8.9c-24 .5-57.6 9-85.8 18.2-32.2 10.5-57.8 21.7-57.8 21.7l-3 1.3-54.9-16.1c5 13.8 6.2 26.6 4.6 38.1-1.1 8.6-3.5 16.4-6.4 23.8l60.4-22.4 3 1.1s25.7 9.3 57.9 17.6c32.1 8.4 71.1 15.5 94.6 12.4 18.9-2.5 48.5-16.5 72.3-30 12.6-7.3 23.1-13.9 30.8-18.8-7.9-4.9-18.7-11.4-32-18.5-24.4-13.1-54.8-26.4-74-28.1-2.3-.2-4.6-.3-7.1-.3h-2.6zM44.9 298a9 9 0 0 1 9 9 9 9 0 0 1-9 9 9 9 0 0 1-9-9 9 9 0 0 1 9-9zm338.5 10.2a9 9 0 0 1 9 9 9 9 0 0 1-9 9 9 9 0 0 1-9-9 9 9 0 0 1 9-9zm-80.7 2.9l2.6 17.8c-11.8 1.7-14.5 5.2-14.5 5.4-.1.1-.2.2.2 1.3.5 1.1 1.6 3 3.6 4.8 3.8 3.8 10.4 7.5 17 9.2 6.6 1.7 12.8 1.3 17.3-1.2l8.8 15.6c-9.7 5.5-20.7 5.5-30.5 3.1-9.8-2.5-18.7-7.4-25.2-13.8-3.3-3.2-6-6.8-7.7-11.1-1.7-4.2-2.2-9.5-.3-14.4 3.8-9.8 14.1-14.7 28.7-16.7zm121.7 83.1c-24 .5-57.6 9-85.8 18.2-32.2 10.5-57.8 21.7-57.8 21.7l-3 1.3-54.9-16.1c4.1 11.3 5.6 22 5.2 31.8 11.3 6.2 21.4 12.2 28.8 16.8l24.6-9.1 3 1.1s25.7 9.3 57.9 17.6c14 3.7 29.3 7.1 44 9.5h63.4c11.3-3.3 24.3-8.9 37.2-15.3V412c-19.2-8.9-39-16.3-52.9-17.5-2.3-.2-4.6-.3-7.1-.3h-2.6zm36.5 20.5a9 9 0 0 1 9 9 9 9 0 0 1-9 9 9 9 0 0 1-9-9 9 9 0 0 1 9-9zm-80.7 2.9l2.6 17.8c-11.8 1.7-14.5 5.2-14.5 5.4-.1.1-.2.2.2 1.3.5 1.1 1.6 3 3.6 4.8 3.8 3.8 10.4 7.5 17 9.2 6.6 1.7 12.8 1.3 17.3-1.2l8.8 15.6c-9.7 5.5-20.7 5.5-30.5 3.1-9.8-2.5-18.7-7.4-25.2-13.8-3.3-3.2-6-6.8-7.7-11.1-1.7-4.2-2.2-9.5-.3-14.4 3.8-9.8 14.1-14.7 28.7-16.7zM132.8 437c-24 .5-57.6 9-85.81 18.2-7.82 2.5-15.22 5.1-21.99 7.6V487h33.95c-.52-3.2-.34-6.6.92-9.9 3.79-9.8 14.16-14.7 28.78-16.7l2.5 17.8c-11.73 1.7-14.39 5.2-14.49 5.4-.04.1-.19.2.26 1.3.22.5.62 1.3 1.2 2.1H243.6c1.7-1.1 3.4-2.1 4.9-3.1-7.9-4.9-18.7-11.4-32-18.5-24.4-13.2-54.8-26.4-74-28.1-2.3-.2-4.6-.3-7.1-.3h-2.6zm36.5 20.5a9 9 0 0 1 9 9 9 9 0 0 1-9 9 9 9 0 0 1-9-9 9 9 0 0 1 9-9z"></path></svg>