<svg stroke="currentColor" fill="currentColor" stroke-width="0" viewBox="0 0 512 512" height="1em" width="1em" xmlns="http://www.w3.org/2000/svg"><path d="M245 29v26h22V29h-22zM105 62.563v30.874l14-7V69.564l-14-7zm302 0l-14 7v16.874l14 7V62.564zM137 69v18h90V69h-90zm148 0v18h90V69h-90zm-40 4v14h22V73h-22zm114 26.416v20.176c14.247 8.412 24.376 19.263 32.05 31.947 13.556 22.404 19.038 51.316 21.991 82.326 2.953 31.01 3.422 63.895 8.324 94.211 2.322 14.36 5.68 28.27 10.928 41.06 4.237-4.39 9.665-7.622 15.746-9.15-4.048-10.489-6.864-22.163-8.904-34.783-4.598-28.43-5.13-61.05-8.176-93.045-3.047-31.994-8.565-63.586-24.51-89.937-10.598-17.516-26-32.356-47.449-42.805zM128.922 105c-6.642 5.152-12.31 11.225-17.026 18-15.783 22.68-21.907 51.968-25.406 80.758-3.499 28.79-4.261 57.394-7.527 77.955-1.633 10.28-4.005 18.474-6.746 23.185-2.741 4.712-4.482 5.932-8.604 6.11-5.089.219-8.12-.96-10.912-3.225-2.792-2.266-5.358-6.06-7.369-11.437-4.021-10.754-5.363-27.23-4.809-43.99.772-23.314 4.797-46.823 7.2-59.143 3.026-.782 5.619-2.307 7.789-3.879 3.577-2.59 6.449-5.698 8.924-8.719 4.949-6.041 8.32-12.072 8.32-12.072l-15.674-8.85s-2.819 4.933-6.572 9.514c-1.877 2.29-3.984 4.411-5.555 5.549-.605.438-.917.555-1.203.681-.235-.193-.486-.373-.938-.937-1.192-1.491-2.645-4.064-3.832-6.742-2.373-5.356-3.763-10.803-3.763-10.803l-17.463 4.361s1.632 6.654 4.77 13.735c1.568 3.54 3.493 7.268 6.234 10.693a32.14 32.14 0 0 0 1.69 1.934c-2.456 12.196-7.052 37.955-7.917 64.082-.594 17.958.391 36.053 5.94 50.89 2.774 7.419 6.803 14.173 12.886 19.11 6.084 4.936 14.21 7.612 23.028 7.232 10.16-.437 18.631-6.864 23.388-15.04 4.757-8.178 7.17-18.114 8.965-29.415 3.59-22.601 4.258-50.96 7.617-78.607 3.36-27.648 9.525-54.272 22.315-72.649 6.733-9.674 15.051-17.384 26.328-22.318V105h-24.078zM171 105v30.818c4.292-.54 8.646-.818 13-.818 4.354 0 8.708.278 13 .818V105h-26zm144 0v30.818c4.292-.54 8.646-.818 13-.818 4.354 0 8.708.278 13 .818V105h-26zm-131 48c-27.5 0-55 13-55 39v23h110v-23c0-26-27.5-39-55-39zm144 0c-27.5 0-55 13-55 39v23h110v-23c0-26-27.5-39-55-39zm-199 80v30h254v-30H129zm0 48v62h110v-62H129zm144 0v62h110v-62H273zm-144 80v30h254v-30H129zm327 16c-8.39 0-15 6.61-15 15s6.61 15 15 15 15-6.61 15-15-6.61-15-15-15zm-327 32v78h110v-78H129zm144 0v78h110v-78H273z"></path></svg>