<svg stroke="currentColor" fill="currentColor" stroke-width="0" viewBox="0 0 512 512" height="1em" width="1em" xmlns="http://www.w3.org/2000/svg"><path d="M118.2 13.613c-9.34.05-18.525 2.977-25.878 9.2-28.494-14.11-63.64.133-58.814 33.37C7.16 77.84 13.01 118.364 43.355 131.036c-.715 28.33 22.506 53.156 49.643 50.957 7.358 19.48 25.91 31.78 45.996 34.16.1 2.352.31 4.766.63 7.235-9.325 4.95-18.904 9.69-28.645 14.374l8.098 16.84c8.28-3.98 16.58-8.045 24.8-12.307 1.822 5.843 4.153 11.877 6.93 18.027-9.202 4.788-18.57 9.436-28.048 14.037l8.16 16.814c9.49-4.607 18.984-9.31 28.394-14.195 3.407 5.985 7.2 12.024 11.393 18.067-9.837 5.116-19.83 10.094-29.934 15.02l8.19 16.798c11.075-5.4 22.15-10.903 33.11-16.646 4.754 5.912 9.852 11.78 15.302 17.55-12.022 6.36-24.303 12.478-36.713 18.54l8.203 16.794c14.22-6.947 28.442-14.04 42.432-21.567 4.807 4.436 9.683 8.62 14.6 12.547-19.234 11.162-38.166 24.76-55.102 40.38l-4.783 4.41 2.478 6.017c6.126 14.866 12.37 27.647 19.33 38.534 16.73 43.73 117.658 67.51 169.87 49.974-40.098-76.48-110.48-107.213-163.516-77.16-1.91-3.884-3.808-7.983-5.7-12.338 16.67-14.624 35.242-27.457 53.913-37.656 14.745 9.996 29.484 17.747 43.312 23.174 4.953-1.442 9.74-3.09 14.36-4.91-5.082-4.966-10.262-10.56-15.505-16.832l14.34-11.985c6.706 8.026 13.247 14.75 19.41 20.267 9.148-5.032 17.394-10.79 24.644-17.03-4.422-6.302-9.917-13.245-16.64-20.736l13.91-12.48c6.27 6.987 11.628 13.576 16.176 19.802 2.76-3.212 5.29-6.494 7.563-9.825-2.275-9.77-6.05-20.19-11.212-30.927 4.547-14.812 10.333-29.638 17.244-43.776 4.26.62 8.324 1.297 12.215 2.03-23.748 40.476 31.817 122.773 84.082 144.218 29.62-76.177 7.565-136.216-53.038-155.462-13.592-4.834-29.27-8.007-47.555-10.31l-6.457-.815-3.002 5.773c-6.094 11.72-11.37 23.9-15.847 36.21-5.395-8.492-11.577-17.043-18.5-25.503 7.895-9.388 15.278-19.488 22.038-30.44l-15.903-9.816c-5.726 9.277-11.96 17.903-18.61 26-2.39-2.562-4.838-5.11-7.362-7.634-2.882-2.88-5.797-5.67-8.733-8.382 7.245-8.65 14.023-17.95 20.244-28.008l-15.892-9.83c-5.664 9.157-11.848 17.648-18.477 25.58-6-4.88-12.05-9.395-18.093-13.53 6.332-7.583 12.27-15.716 17.728-24.504l-15.875-9.86c-5.434 8.747-11.412 16.803-17.84 24.302-6.575-3.778-13.08-7.073-19.443-9.856 4.955-5.94 9.616-12.294 13.912-19.146l-15.834-9.928c-5.074 8.093-10.74 15.45-16.895 22.223-9.522-2.728-18.495-4.106-26.615-4.004-.202.003-.398.017-.6.02-15.792-17.983-44.215-24.07-67.113-15.15-3.733-21.79-22.074-39.414-42.832-41.6 4.765-14.846 1.142-31.49-8.877-43.204 14.55-2 28.25-10.616 35.153-22.598 12.188 14.724 34.067 21.62 51.673 15.564 8.117 17.202 29.023 28.58 48.562 26.01 35.58 81.022 139.882 84.89 177.424 1.266-36.924 23.267-66.726 3.737-89.6-26.473-17.638-23.298-43.473-38.92-75.83-8.985-10.208-15.318-30.848-23.5-49.33-18.993-8.477-14.405-24.79-22.622-40.67-22.54z"></path></svg>