<svg stroke="currentColor" fill="currentColor" stroke-width="0" viewBox="0 0 512 512" height="1em" width="1em" xmlns="http://www.w3.org/2000/svg"><path d="M98.125 18.75c50.57 46.07 104.128 90.743 158.938 134.72l-2.344 30.374c71.727 59.403 153.822 113.5 236.53 166.437-67.922-115.03-145.68-225.91-228.47-331.53h-54.31c43.394 55.367 85.626 111.29 127.436 167.438C275.514 130.873 215.7 75.224 157.656 18.75h-59.53zM17.97 180.688v44.718c94.66 43.63 188.03 92.478 281.155 141.813-94.13-29.464-188.207-59.703-281.156-93.626v39.75c151.97 56.387 311.186 104.892 473.874 138.562C422.48 397.58 352.438 344.842 279.25 301.22l-29.188 9.342C173.594 263.33 96.78 219.043 17.97 180.688z"></path></svg>