<svg stroke="currentColor" fill="currentColor" stroke-width="0" viewBox="0 0 512 512" height="1em" width="1em" xmlns="http://www.w3.org/2000/svg"><path d="M153.9 51.5c-34.6 0-65.87 4.45-87.79 11.3-10.96 3.43-19.55 7.51-24.76 11.37-5.22 3.85-6.41 6.7-6.41 8.33s1.19 4.48 6.41 8.33c5.21 3.86 13.8 7.94 24.76 11.37 21.92 6.8 53.19 11.3 87.79 11.3 34.6 0 65.9-4.5 87.8-11.3 11-3.43 19.6-7.51 24.8-11.37 5.2-3.85 6.4-6.7 6.4-8.33s-1.2-4.48-6.4-8.33c-5.2-3.86-13.8-7.94-24.8-11.37-21.9-6.85-53.2-11.3-87.8-11.3zM388 70.48c-2.5 0-5 0-7.5.16-20.2 1.15-42.3 7.56-63.1 15.43-12.5 4.72-24.5 9.98-35.3 15.03-1.5 1.5-3.2 2.9-4.9 4.2-5.1 3.7-11.2 7-18.3 9.9v17.9c13.5-7.4 38.1-20.1 64.8-30.2 19.9-7.5 40.8-13.32 57.8-14.29 17-.98 28.9 2.5 35.4 11.69 6 8.5 5 14.1-.7 23.4-5.6 9.3-16.8 20.2-29.5 31.6-12.6 11.3-26.5 23.2-37.4 36.4-10.9 13.2-19.2 28.2-18.2 45.2 1.5 24.8 21.4 48.3 39.9 67.4 18.4 19 36.5 32.9 36.5 32.9l11-14.2s-17.2-13.3-34.6-31.2c-17.4-18-33.9-41.4-34.8-56v-.1c-.7-10.3 4.6-21.1 14.1-32.5 9.5-11.5 22.8-23 35.6-34.6 12.8-11.5 25.1-22.8 32.9-35.6 7.7-12.8 9.7-29.2-.2-43.11-9.8-13.91-26.1-19.1-43.5-19.41zM153.9 74.5a48 8 0 0 1 48 8 48 8 0 0 1-48 8 48 8 0 0 1-48-8 48 8 0 0 1 48-8zm-87 46.7v10.6c58.3 14 116 13 174 6.9v-17.5c-23.6 6.5-53.9 10.3-87 10.3-33.2 0-63.38-3.8-87-10.3zm0 29.1v24.4c62.9 2.9 119.7-3.4 174-13.9v-4.1c-57.1 6-115 7-174-6.4zm174 28.7c-54 10.3-111.1 16.5-174 13.8v18.7c64 1.5 123.2-2.5 174-15.9zm0 35.3c-52 12.9-111.1 16.6-174 15.2v3.2c61.5 8.4 120.8 13.8 174 10.8zm-174 36.5v8.9c53.3 17 112.9 17.8 174 16.9v-15.1c-54.1 2.9-113.2-2.3-174-10.7zm0 27.7v31.8c52.7 3.4 102.8-3.5 152.2-15.5-52 .4-103.9-1.7-152.2-16.3zm174 29.4c-55.7 14.7-113.1 24.3-174 20.5v16c57.6.2 114.8-1 174-14.2zm221.7 19a20.5 40.99 51.48 0 0-32.8 14.1 20.5 40.99 51.48 0 0-.2.1l-.6.6a20.5 40.99 51.48 0 0-8.9 8.5L265.9 497.5l176.3-115.9a20.5 40.99 51.48 0 0 13.1-8.5 20.5 40.99 51.48 0 0 19.3-41.5 20.5 40.99 51.48 0 0-12-4.7zM452.5 342a10.25 20.5 51.48 0 1 .1 0 10.25 20.5 51.48 0 1 6 2.3 10.25 20.5 51.48 0 1-9.7 20.8 10.25 20.5 51.48 0 1-22.4 4.8 10.25 20.5 51.48 0 1 9.6-20.8 10.25 20.5 51.48 0 1 16.4-7.1zm-211.6 6.6c-59.9 12.8-117.3 14-173.99 13.8 0 0 .41.9 3.71 2.8 3.91 2.2 10.75 4.6 19.24 6.5 16.94 3.8 40.54 5.8 64.04 5.8 23.5 0 47.1-2 64-5.8 8.5-1.9 15.4-4.3 19.3-6.5 3.4-2 3.7-3 3.7-2.8zM49.17 365.5c-3.1 1.6-5.74 3.1-7.82 4.7-5.22 3.8-6.41 6.7-6.41 8.3 0 1.6 1.19 4.5 6.41 8.3 5.21 3.9 13.8 8 24.76 11.4 21.92 6.8 53.19 11.3 87.79 11.3 34.6 0 65.9-4.5 87.8-11.3 11-3.4 19.6-7.5 24.8-11.4 5.2-3.8 6.4-6.7 6.4-8.3 0-1.6-1.2-4.5-6.4-8.3-2.1-1.6-4.7-3.2-7.9-4.7-1.2 6.9-6.7 12-12.5 15.3-6.6 3.8-14.7 6.4-24.3 8.5-19 4.2-43.4 6.2-67.9 6.2-24.5 0-48.9-2-67.95-6.2-9.51-2.1-17.68-4.7-24.26-8.5-5.79-3.2-11.27-8.4-12.52-15.3z"></path></svg>