<svg stroke="currentColor" fill="currentColor" stroke-width="0" viewBox="0 0 512 512" height="1em" width="1em" xmlns="http://www.w3.org/2000/svg"><path d="M227.7 54.14c-4.3 37.07-1 72.66-4 108.46-1.3 13.4-3.8 32-13.7 39.6-13.1 7.7-29.4 6.3-42.7 5.6-39.6-1.8-75.56-10.6-114.48-10-18-.5-22.91 5.7-7.3 17.4 34.41 26.1 81.58 43 111.18 68.2 5.2 4.5 9.4 8.9 11.4 15.1 2.3 6.9.8 13.2-1.4 20.2-2.2 7.1-5.6 14.8-9.8 23.3-18.4 38.2-41.9 69.6-58.07 108-2.22 6.6-5.48 13-5.34 20 0-.2 1.75.4 6.14-.7 50.47-20.4 92.47-52.1 136.87-78.4 13.9-7 28.8-18.4 43.5-18.6 14.5 1.4 26.1 11.8 35.6 20.2 27.4 23.8 47.4 50.9 75.7 72.7 5.2 4 9.8 6.6 12.8 7.6 2.9 1.1 3 .6 2.9.7.1-.1.9-.7 1.1-4.2.3-3.5-.2-9-1.6-15.5-8.8-34.9-23.3-66-33.9-99-4.9-15.8-9-28.4-5.2-40.3 3.7-11.2 13.4-19.4 25.4-29.4 25.6-21.8 53.1-37.4 76.3-60.8 16.4-17.3 11.8-19.3-7.9-20.9-35.6-1.3-69.1 4.7-103.3 5.4-16.4.4-29.6.9-39.9-6.6-11.2-9.9-17.4-24.3-22.9-36.6-17.2-37-28.3-73.36-47.7-108.26-7.7-13.57-16.4-24.74-19.7-3.2zM256 200.1c5 0 8 2.7 10 4.8 12.1 13.8 15.4 34.2 23.2 47.4 1.9.6 4 .8 5.6.8 15.9.2 27-1.4 41.2-.1 2.8 1.1 6.6 3.6 8.1 8 1.3 4.1.1 8-1.2 10.6-8 13.5-24.3 20.2-33 29.7.2 1.1.3 3.2 1 5.3 3.3 14.4 11.6 28.7 11.6 40-.3 3-1.4 7.2-5.2 10-3.9 2.8-8.8 2.4-11.7 1.4-15.5-6.4-22.6-21.7-35.1-30.1-.2.1-.4.1-.7.2-19.7 8.3-33.3 24.6-52.1 29.1-3 .7-7.1 1.6-11.7-1.7-4.4-3.2-5-8.6-4.7-11.8 4-19.1 17.4-31.4 22.8-47.4-12.5-11.6-30.6-15-39.1-25.9-1.8-2.5-3.6-6.9-2.1-11.5 1.6-4.8 5.8-7.1 8.8-8.1 17.9-4.2 33.4.7 49.5 2 1.1-12.5-1.5-33.7 4.2-45.8 1.5-2.9 5.6-6.9 10.6-6.9zm4.2 30.8c-.3 6.7-.1 14.1-.6 20.2-.4 6.4-2.5 13.5-6.8 16.7-3.4 2.5-6.2 2.7-8.9 2.9-10.5.5-22-1.1-31.5-2.3 5.8 3.5 12.5 6.9 17.8 10.2 5 3.2 10.3 7.5 11.9 12.2 1.4 4.5.4 7.3-.4 10-3.2 9.2-8.7 18-13.2 25.8-1.5 2.8-3.1 5.5-4.4 8 3.6-2 7.5-4.3 11.6-6.9 9.3-5.6 17.4-11.6 26.6-16 2.5-1.1 4.6-2.3 8.6-2.3 4.2 0 6.6 1.5 8.9 3 7 4.8 13.2 11.4 18.7 17.1.8.9 1.6 1.6 2.4 2.3-2.4-6.6-5.2-13.7-7.2-19.8-1.6-5.2-3.9-9.1-1.5-16.2 2.1-6.5 5.8-8.7 9.8-12 6.4-5.3 12.6-9.5 18.6-14.4-13.2.2-32.9 4.6-41.5-1.6-3-2.1-4.1-4.1-5.4-6.4-5.6-10.3-9.2-20.8-13.5-30.5z"></path></svg>