<svg stroke="currentColor" fill="currentColor" stroke-width="0" viewBox="0 0 512 512" height="1em" width="1em" xmlns="http://www.w3.org/2000/svg"><path d="M302.5 20.875c-67.34.686-140.223 31.223-198 89C30.546 183.83 1.717 282.77 22.812 362.97l61.938-36.19-51.28 15.783 12.624-38.5 48.75-20.344-41.688 1.405 20.25-38.563 64.53-2.03-51.374-17.595L115 188.813l49.78 17.032-34.468-34.5 34.22-34.22 35.562 35.564-17.125-51.844 38.593-28.906 16.468 49.28 1.72-60.968 39.53-21.22L290 107.126l8.688-55.656 37.03-11.19 2.594 43.97 19-56.875c-17.53-4.543-35.956-6.692-54.812-6.5zm134.688 53.72l-81.72 31.25L194.126 266.78c.514 2.04.78 4.178.78 6.376 0 14.36-11.638 26-26 26-14.36 0-26-11.64-26-26 0-1.422.125-2.827.345-4.187-12.834 13.486-19.27 30.975-19.375 48.31 14.055 0 28.187 4.393 40.25 12.845-20.046 11.696-45.246 36.88-56.97 56.938-3.675-2.41-7.454-4.202-11.03-5.032-1.66-.384-3.13-.6-4.406-.655-3.83-.17-6.058.963-7.376 2.28-1.757 1.758-3.166 5.112-1.625 11.75 3.08 13.28 19.22 29.42 32.5 32.5 6.64 1.542 9.992.133 11.75-1.624 1.756-1.756 3.165-5.14 1.624-11.78-.86-3.7-2.745-7.612-5.28-11.406 20.157-11.808 45.466-37.173 57.06-57.25 9.418 12.487 14.32 27.4 14.376 42.312 17.233-.035 34.447-6.443 47.875-19.03-.568.036-1.142.062-1.72.062-14.36 0-26-11.67-26-26.032 0-14.36 11.64-26 26-26 1.5 0 2.978.132 4.407.375l161.125-160.717 30.75-82.22zm-63.313 50.343l13.22 13.218L200.968 324.25l-13.22-13.22L373.875 124.94zm111.313 30.812L427.5 173.72l43.47 1.81-11.158 37.064-59.406 5.312L452.22 232l-20.658 40.063-60.968 1.718 49.25 16.47-28.906 38.594-52.907-18.188 36.658 36.625-34.25 34.22-33.407-33.406 15.94 48.72-38.095 28.436-17.625-51.375-2 64.53-39.125 19.69 1.75-43.908-20.688 51-38.468 12.625 14.843-48.312-37 59.344c80.686 22.506 180.95-6.048 255.906-81 73.73-73.73 103.107-172.08 82.717-252.094z"></path></svg>