<svg stroke="currentColor" fill="currentColor" stroke-width="0" viewBox="0 0 512 512" height="1em" width="1em" xmlns="http://www.w3.org/2000/svg"><path d="M256.18 21c-23.242 0-46.577 3.01-63.186 8.54-8.304 2.763-14.868 6.196-18.808 9.558-3.94 3.36-5.167 5.956-5.186 8.96L168.943 57H41v14h430V57H342.967l.033-9.033c.01-3.002-1.17-5.55-5.057-8.895-3.887-3.344-10.407-6.773-18.677-9.535C302.724 24.014 279.42 21 256.18 21zM38.277 89l-10.443 94h80.9l20.243-86.36L122.81 183h81.07l17.114-86.68-3.096 86.68h75.75l-4.634-86.518L307.694 183h81.497l-6.167-86.36L403.266 183h80.9l-10.443-94H38.277zM25.834 201l-.51 4.588C39.822 226.445 52.968 235 64 235c11.32 0 24.852-8.89 39.8-30.96l.714-3.04h-78.68zm95.687 0l-.32 4.498C135.753 226.495 148.935 235 160 235c11.293 0 24.788-8.85 39.693-30.803l.63-3.197h-78.802zm95.736 0l-.156 4.352C231.69 226.455 244.908 235 256 235c11.08 0 24.28-8.525 38.85-29.576l-.237-4.424h-77.357zm94.324 0l.674 3.12c15 22.192 28.503 31.044 39.773 31.013 11.03-.03 24.212-8.62 38.772-29.637l-.32-4.496h-78.9zm95.906 0l.713 3.04C423.147 226.11 436.68 235 448 235c11.032 0 24.178-8.555 38.676-29.412l-.51-4.588h-78.68zM112 223.31C97.313 242.11 81.492 253 64 253c-13.972 0-26.884-6.906-39-19.264V487h318V279h114v208h30V233.736C474.884 246.094 461.972 253 448 253c-17.49 0-33.31-10.888-47.996-29.684-14.664 18.808-30.432 29.77-47.926 29.817-17.508.048-33.352-10.87-48.092-29.807C289.303 242.116 273.486 253 256 253c-17.492 0-33.313-10.89-48-29.69-14.687 18.8-30.508 29.69-48 29.69s-33.313-10.89-48-29.69zM55 279h258v178H55V279zm18 18v142h222V297H73zm288 0v71.064l78 .573V297h-78zM88 312h128c-108.235 8-116.31 24-128 113.11V312zm273 74.066v13.998l78 .573v-14.002l-78-.57zm0 32V487h78v-68.365l-78-.57z"></path></svg>