<svg stroke="currentColor" fill="currentColor" stroke-width="0" viewBox="0 0 512 512" height="1em" width="1em" xmlns="http://www.w3.org/2000/svg"><path d="M458.656 19.72c-57.77 6.715-81.53 39.592-99.28 77.093 74.776 2.09 108.602-23.12 99.28-77.094zM54.937 21.374c-9.32 53.974 24.505 79.154 99.282 77.063-17.752-37.5-41.512-70.346-99.282-77.063zM467.844 175.03c-4.32.2-9.382 2.47-15.22 7.19-8.233 6.657-16.966 12.814-26.124 18.468 28.704 32.76 45.837 74.055 56.563 118.437 10.61-69.51 11.1-145.308-15.22-144.094zM60.47 180.688c-25.47-.264-30.547 76.598-21.157 146.657 14.426-42.205 34.88-83.047 62.218-119.656-9.302-5.88-18.05-12.415-26.093-19.625-5.608-5.03-10.59-7.33-14.968-7.375zm341.592 33.407c-15.548 7.583-31.938 13.896-48.875 18.906 27.92 71.072 40.385 145.85 48.188 220.28 20.714-79.27 18.07-159.615.688-239.186zm-274.625 7.625c-16.893 65.397-28.75 128.586-20.874 194.124 13.266-63.588 33.256-123.988 66.156-178.22-15.82-4.037-31.007-9.326-45.282-15.905zm296.5 6.093c14.383 75.347 15.57 152.055-3.812 227.937 16.663-10.085 29.597-22.548 37.156-37.563 5.687-11.294 11.303-28.935 16.25-49.625-8.04-52.642-22.32-102.276-49.592-140.75zm-319.093 7.656c-27.066 40.656-46.15 86.125-58.22 132.436 4.792 20.483 10.948 38.554 18.282 51.438 5.968 10.483 15.548 19.897 27.844 28.156-15.18-73.294-4.838-142.62 12.094-212.03zm223.5 3.874c-19.46 4.21-39.347 6.785-59.22 7.687 22.523 66.597 34.172 134.63 43.876 202.595 10.35-70.784 13.795-140.562 15.344-210.28zm-128.75 3.875c-10.376 73.08-12.596 154.426 6.5 221.75 6.98-71.93 20.608-149.46 40.78-217.626-15.99-.28-31.828-1.637-47.28-4.125zm-21.688 23.06c-31.53 58.626-49.375 124.554-60.78 194.595 21.327 9.65 46.993 16.945 74.624 21.688-21.974-66.086-22.11-144.102-13.844-216.282zm168.188 2.22c-2.162 71.314-6.807 143.27-19.813 216.78 20.76-2.794 40.505-7.197 58.25-13.28-6.67-69.114-16.73-137.997-38.436-203.5zm-87.625 6.72c-18.06 67.556-30.09 143.006-35.626 211.5 25.292 2.497 51.388 2.97 76.687 1.25-9.87-72.005-20.188-143.462-41.06-212.75z"></path></svg>