<svg stroke="currentColor" fill="currentColor" stroke-width="0" viewBox="0 0 512 512" height="1em" width="1em" xmlns="http://www.w3.org/2000/svg"><path d="M365.844 20.97c-40.147.554-80.328 18.658-115.28 55.936 69.614 76.607 158.46 79.904 237.03 0-36.313-37.23-79.014-56.528-121.75-55.937zm2.437 18.686c2.05 0 4.045.167 6 .5-8.556 2.06-14.936 10.013-14.936 19.5 0 11.052 8.638 20 19.312 20 10.675 0 19.344-8.948 19.344-20 0-1.85-.265-3.644-.72-5.343 4.89 6.47 7.814 14.612 7.814 23.468 0 21.06-16.484 38.126-36.813 38.126-20.328 0-36.81-17.066-36.81-38.125 0-21.057 16.482-38.124 36.81-38.124zm-229.81 49.22c-40.148.554-80.33 18.66-115.282 55.936 69.615 76.608 158.46 79.904 237.03 0-36.312-37.23-79.013-56.528-121.75-55.937zm2.436 18.655c2.06 0 4.064.196 6.03.532-8.57 2.05-14.967 9.972-14.967 19.47 0 11.05 8.637 20 19.31 20 10.676 0 19.345-8.95 19.345-20 0-1.868-.257-3.66-.72-5.376 4.9 6.475 7.814 14.635 7.814 23.5 0 21.06-16.485 38.125-36.814 38.125-20.33 0-36.812-17.065-36.812-38.124 0-21.058 16.483-38.125 36.812-38.125zm224.938 56.845c-40.147.555-80.328 18.66-115.28 55.938 69.614 76.607 158.46 79.903 237.03 0-36.313-37.23-79.014-56.53-121.75-55.938zm2.437 18.656c2.072 0 4.086.192 6.064.532-8.587 2.038-15 9.96-15 19.47 0 11.05 8.638 20.03 19.312 20.03 10.675 0 19.344-8.98 19.344-20.03 0-1.846-.267-3.616-.72-5.313 4.89 6.477 7.814 14.612 7.814 23.468 0 21.058-16.484 38.125-36.813 38.125-20.328 0-36.81-17.067-36.81-38.125 0-21.06 16.482-38.157 36.81-38.157zm-229.81 49.22c-40.148.555-80.33 18.66-115.282 55.938 69.615 76.607 158.46 79.903 237.03 0-36.312-37.23-79.013-56.53-121.75-55.938zm2.436 18.688c2.048 0 4.044.167 6 .5-8.557 2.06-14.937 9.98-14.937 19.468 0 11.052 8.637 20.03 19.31 20.03 10.676.002 19.345-8.978 19.345-20.03 0-1.845-.267-3.615-.72-5.312 4.89 6.47 7.814 14.613 7.814 23.47 0 21.057-16.485 38.123-36.814 38.123-20.33 0-36.812-17.066-36.812-38.125 0-21.058 16.483-38.125 36.812-38.125zm224.938 56.312c-40.147.555-80.328 18.66-115.28 55.938 69.614 76.607 158.46 79.903 237.03 0-36.313-37.23-79.014-56.53-121.75-55.938zm2.437 18.688c2.05 0 4.045.167 6 .5-8.556 2.06-14.936 10.012-14.936 19.5 0 11.052 8.638 20 19.312 20 10.675 0 19.344-8.948 19.344-20 0-1.85-.265-3.644-.72-5.344 4.89 6.47 7.814 14.613 7.814 23.47 0 21.057-16.484 38.123-36.813 38.123-20.328 0-36.81-17.066-36.81-38.125 0-21.058 16.482-38.125 36.81-38.125zm-229.81 49.218c-40.148.555-80.33 18.66-115.282 55.938 69.615 76.607 158.46 79.904 237.03 0-36.312-37.23-79.013-56.528-121.75-55.938zm2.436 18.656c2.06 0 4.064.195 6.03.532-8.57 2.05-14.967 9.97-14.967 19.47 0 11.05 8.637 19.998 19.31 19.998 10.676 0 19.345-8.947 19.345-20 0-1.867-.257-3.66-.72-5.375 4.9 6.475 7.814 14.636 7.814 23.5 0 21.06-16.485 38.125-36.814 38.125-20.33 0-36.812-17.066-36.812-38.125 0-21.058 16.483-38.125 36.812-38.125z"></path></svg>