<svg stroke="currentColor" fill="currentColor" stroke-width="0" viewBox="0 0 512 512" height="1em" width="1em" xmlns="http://www.w3.org/2000/svg"><path d="M407 38.31c-83.1 16.32-65.1 11.63-142.4 3.2-35.3 39.72-55.2 46.16-79.6 55.38-15.2 34.21-32.3 77.31-83.8 98.41-9.05 73.1-34.15 127.5-74.58 163.6 19.12 30.9 20.69 63.5 19.64 96.1 46.79-6.3 71.54 9.6 102.94 18.7 48.2-52.3 112.9-88.8 196.2-107.9 41.1-92.5 127.9-82.1 140-94-23.8-43.7-7.2-94.5-19.8-136.9-3.9-13.1-11.9-25-20.9-36.61-29.3 12.91-43.8 26.91-52 42.51-8.5 15.9-10.3 35-11.7 57.8 8.4-1.2 16.6-1.5 24.1-1.1 9 .5 17.3 2.1 24.1 4.2l-5.2 17.2c-21.3-6.5-64.1-6.7-95.8 26.2l-13-12.6c14.7-15.1 31.2-24.4 47.5-29.6 1.5-25.4 2.7-48.9 14-70.5 9.9-18.7 27.1-34.81 56.4-48.58-11.6-14.56-22.6-29.18-26.1-45.51zm-89.9 48.84l17.2 5.04c-18.7 64.01-56 104.51-104.1 129.11 2.6 24.6 1.8 46-1.7 64.3 11.5-4.3 22.9-6.3 34-6.4 5.9 0 11.7.5 17.5 1.4 22.8 3.8 44.3 14.1 65.1 25.2l-8.4 15.8c-20.4-10.8-40.3-20.1-59.7-23.2-18.1-3-35.7-1.1-54.9 10.2-8.1 21.8-20.8 38.2-36.6 50-10.1 7.6-21.3 13.4-33 17.7-18.7 16-28.2 41.3-26.9 62.8l-18 1c-1.1-18.6 3.8-38.5 14.4-55.6-17.8 3.2-35.75 4.2-52.54 4.3l-.12-18c36.76-.2 77.36-5.5 105.36-26.6 26.3-19.7 43.7-53.1 38.2-115-13.9 5.8-28.5 10.4-43.8 14.1l-4.2-17.4c73.1-17.7 127.7-55.4 152.2-138.75z"></path></svg>