<svg stroke="currentColor" fill="currentColor" stroke-width="0" viewBox="0 0 512 512" height="1em" width="1em" xmlns="http://www.w3.org/2000/svg"><path d="M129.785 50.53l-18.34 3.59 11.502 58.716c-2.942.398-5.865 1.092-8.738 2.092L81.245 58.336l-16.148 9.406 32.798 56.313c-1.93 1.522-3.793 3.18-5.587 4.95l-47.675-45.73L31.7 96.762l49.007 47.01c-1.355 2.25-2.6 4.584-3.734 6.988L29.01 123.87l-9.14 16.304 67.148 37.642c7.432 5.644 15.256 9.8 23.113 11.596l105.597 86.397 20.11 86.356 14.804 88.023h18.903l10.973-87.077 20.564-88.302 103.635-84.792c8.947-1.286 17.92-5.78 26.38-12.206l67.14-37.638-9.137-16.303-47.965 26.89c-1.135-2.404-2.38-4.738-3.735-6.987l49.01-47.01-12.937-13.488-47.673 45.73c-1.795-1.77-3.658-3.427-5.588-4.95l32.798-56.313-16.15-9.406-32.962 56.594c-2.872-1-5.794-1.696-8.736-2.094l11.502-58.715-18.342-3.59-14.172 72.353c-2.132 2.757-4.35 5.304-6.79 7.547l-18.85-35.73-16.53 8.72 22.436 42.527c3.555 9.423 7.447 17.122 11.592 23.307l-68.668 85.63c-1.106 1.866-2.284 3.67-3.553 5.38-8.562 11.545-21.266 19.51-35.67 19.51-14.403 0-27.106-7.965-35.668-19.51-.318-.43-.62-.874-.927-1.313h-.01l-70.574-88.007c4.583-6.456 8.876-14.704 12.763-25.01l22.427-42.513-16.53-8.72-18.85 35.73c-2.438-2.242-4.656-4.788-6.788-7.545L129.784 50.53zm128.33 121.837c-7.593 0-14.802 4.06-20.654 11.95-5.85 7.89-9.825 19.448-9.825 32.406 0 12.957 3.974 24.516 9.826 32.408 5.853 7.892 13.062 11.952 20.655 11.952 7.593 0 14.804-4.06 20.656-11.95 5.854-7.893 9.828-19.452 9.828-32.41 0-12.957-3.974-24.515-9.827-32.406-5.85-7.89-13.06-11.95-20.655-11.95zm-52.912 257.06c-14.898 6.732-24.53 16.38-24.53 26.862 0 20.435 35.37 36.794 78.845 36.794 43.473 0 78.84-16.36 78.84-36.795 0-10.592-9.353-20.118-24.526-26.862 4.54 4.033 7.59 8.548 7.59 13.43 0 15.976-27.917 28.62-61.904 28.62s-61.323-12.644-61.323-28.62c0-4.833 2.55-9.427 7.008-13.43z"></path></svg>