<svg stroke="currentColor" fill="currentColor" stroke-width="0" viewBox="0 0 512 512" height="1em" width="1em" xmlns="http://www.w3.org/2000/svg"><path d="M120.6 26.13h-1.5c-1.9.15-3.6.75-5.1 1.6-3.1 1.71-5.7 4.9-7 8.67-1.3 3.77-1.2 7.87.1 11.14 1.4 3.26 3.8 6.04 9.2 7.93h.1L207 87.29c5.3 1.87 8.9 1.18 12-.54 3-1.73 5.6-4.95 6.9-8.75 1.4-3.8 1.4-7.94 0-11.21-1.3-3.27-3.7-6.03-9.1-7.92L126 27.27c-2-.71-3.8-1.06-5.4-1.14zM41.51 65.61h-1.1c-.98.1-1.97.22-2.94.46-3.88.96-7.31 3.22-9.32 6.14-2 2.91-3.02 6.42-1.64 11.99l23 93.3c1.36 5.5 3.89 8.1 7 9.8 3.12 1.6 7.21 2 11.09 1.1 3.89-1 7.33-3.3 9.34-6.2 2.02-2.9 3.04-6.4 1.68-12L55.6 77.06c-1.37-5.57-3.9-8.2-7.03-9.85-2.05-1.08-4.52-1.62-7.06-1.6zm203.39 7.45c-.1 3.72-.8 7.39-2 10.86-.8 2.24-1.8 4.42-3 6.48 21.6 6.58 51.4 16.5 82.3 29.5 59.7 25.2 122.3 62.9 137.7 104.1 11.5 30.9 10.7 73.4-1.3 110.6-11.9 37.2-34.6 68.4-64.3 79.9-10.4 4-22.6 6-35.8 6.6 8.8-21.3 11.2-46.4 8.3-70.9-4.3-36.5-20-72.3-47.1-91.9-23.8-17.2-60.8-21.5-93.9-15.9-16.6 2.8-32.3 8.2-44.9 16.9-12.5 8.6-22.1 21-24.4 36.4-3.6 24.7 5.4 48.1 21.2 67.8 15.9 19.7 38.6 36.3 64.2 49.1 26.4 13.1 55.8 22.2 84.2 25.7-24.5 24.1-65 32.8-106.9 28.5-42.7-4.3-86.1-22.2-112.4-47.3-27.19-25.9-36.34-88.4-36.32-144.4 0-26.3 1.72-51 3.53-69.8-.69.2-1.39.4-2.09.6-5.2 1.3-10.73 1.5-16.07.3-1.77 18.9-3.36 43-3.37 68.8 0 57.7 6.43 123.8 41.87 157.5C124.6 461.3 171 480 217.4 484.7c46.4 4.8 93.5-4.5 123.3-35.5 2.8-2.9 5.4-6.1 7.8-9.5 18.7.2 36.6-2.4 52.2-8.4 36.9-14.2 62-50.5 75.1-91.2 13-40.7 14.3-86.3.9-122.3-19.3-52.1-86.3-88.7-147.5-114.5-31.8-13.4-62.3-23.54-84.3-30.24zm6.3 185.24c22.7 0 44.9 5.2 57.9 14.6 21.1 15.3 36 46.8 39.8 79.5 2.9 24.7-.5 49.7-10.1 68.4-29.1-2-61.1-10.5-88.9-24.4-23.8-11.8-44.5-27.2-58.1-44.2-13.7-16.9-20.2-35-17.5-53.9 1.4-9.7 7.2-17.6 16.8-24.2 9.7-6.6 23.1-11.5 37.7-13.9 7.3-1.3 14.9-1.9 22.4-1.9z"></path></svg>