<svg stroke="currentColor" fill="currentColor" stroke-width="0" viewBox="0 0 512 512" height="1em" width="1em" xmlns="http://www.w3.org/2000/svg"><path d="M255.47 27.094C199.81 59.227 101.786 80.984 39.75 67.187c1.166 160.025 55.89 374.132 216.813 417.25 165.724-44.405 216.26-257.105 217.53-417.25-61.272 13.46-169.382-11.664-218.624-40.093zm2.56 44.968c31.866-.34 63.817 5.085 95.595 17.344l35.28 146.125h-63.75c9.446 29.716 6.468 70.128-9.905 99.845l-17.344-49.906-19.812 54.217-19.813-50-19.78 49.375-19.22-53.593-17.31 49.28c-14.528-26.456-23.842-65.022-9.907-99.22h-64.407L162.97 89.407c31.433-10.896 63.196-17.003 95.06-17.344zM85.25 114.25l11.5 2.656c11.29 2.595 24.925 2.822 39.594 1.344l-3.75 19.563c-9.76.572-19.265.393-28.28-.72 1.55 59.134 12.177 124.982 35.81 180.188 8.367 19.543 18.273 37.668 29.907 53.75l-3.28 25.908c-17.92-20.952-32.374-45.668-43.78-72.313-26.502-61.9-37.207-134.657-37.657-198.53l-.063-11.845zm349.125.03l-.094 11.814c-.488 63.837-10.383 136.353-36.56 198.156-11.802 27.86-27.07 53.627-46.345 75.22l-3.688-24.69c13.025-17.086 23.87-36.625 32.844-57.81 23.33-55.074 33.288-120.73 34.783-179.97-9.305 1.02-19.255.99-29.532.156l-4.124-19.312c15.67 1.7 30.068 1.594 41.22-.938l11.5-2.625zm-261.78 41.407l-11.126 51.282 74.686-6.657c-12.785-26.075-35.684-38.674-63.562-44.625zm171.655 0c-26.53 7.927-49.585 20.382-63.563 44.625l74.688 6.657-11.125-51.282zM258.406 214.5l-7.437 9.844-23.095 30.47 14.906 11.28 15.626-20.625 15.625 20.624 14.908-11.28-23.063-30.47-7.47-9.844zM201.47 352.28l14.5 56.814 22.968-47.563 19.343 59.345 19.345-59.938 21.72 48.157 15.78-56.188c15.586 18.392 20.75 39.556 18.28 65.75-48.64 37.818-96.95 42.896-148.905 0 .234-24.123-.63-44.257 16.97-66.375z"></path></svg>