<svg stroke="currentColor" fill="currentColor" stroke-width="0" viewBox="0 0 512 512" height="1em" width="1em" xmlns="http://www.w3.org/2000/svg"><path d="M55.84 17.06L16.18 33.44l3.8 9.19 24.59-10.16L31.9 73.56l3.04 7.36 41.11-16.98-3.79-9.2L46.22 65.5l12.66-41.09-3.04-7.35zM256 25c-29 0-63.3 15-87.6 39.36-24.4 24.37-38.9 57.14-31.6 93.84l.1.2 4.8 30.2c.5.2 1.1.5 1.6.8 12.4 5.8 24.7 10.5 36.9 14.3 2.9-7.2 6.3-13.5 10.2-18.8 7.6-10.4 16.4-16.8 28.5-19.1l17.1-3.2-11-13.4c-9.3-11.2-15.7-27.6-15.7-45.9 0-33.38 19.9-59.12 41.9-62.04l4.4.1c24.2 0 46.5 26.31 46.5 61.94 0 17.8-6 34-14.9 45.2l-11.1 13.8 17.5 2.7c13.6 2.2 23 8.5 30.6 18.8 3.9 5.2 7.2 11.5 10.1 18.6 12-3.8 24-8.5 36.1-13.9l4.7-30.1.1-.2c7.3-36.7-7.2-69.47-31.6-93.84C319.3 40 285 25 256 25zm192.4 27.57l-4.4 8.89 23.8 11.89-39.3 17.4-3.6 7.12 39.8 19.83 4.4-8.9-25.2-12.54 39.3-17.41 3.6-7.12-38.4-19.16zm-1.8 89.23l-39 5.1 1.1 9 24.3-3.1-21.1 33.3.9 7.3 40.5-5.2-1.2-9.1-25.6 3.3 21-33.3-.9-7.3zm-306.3 66.9L184.8 446c3.3 13.1 12.2 23.1 25 30.1 3.5 1.9 7.2 3.6 11.1 5-15.6-62.6-26.3-130.8-33.1-191.3l17.8-2c7.2 62.9 18.6 134.3 35.1 198.1 5 .7 10.2 1.1 15.3 1.1 16.7 0 33.3-3.8 46.2-10.9 12.8-7 21.7-17 25-30.1l38-203c-3.3 5.5-7 11-11.1 16.4-16 21-39.4 40.2-79.3 53.2l-5.7 1.8-3.9-4.5c-17.2-20-46.8-45.4-74.8-66.7-18.5-14.1-36.9-26.5-50.1-34.5zm-80.62 1.6l-1.87 8.9 23.88 5-30.8 24.6-1.49 7.2 39.92 8.3 1.86-8.9-25.27-5.3 30.78-24.6 1.49-7.1-38.5-8.1zm302.72 1c-53.4 21.2-108.1 27.5-163.7 15.6.8.7 1.6 1.3 2.5 1.9 26.8 20.4 54.3 43.9 73.3 64.7 33.5-11.7 51.8-27.3 65.3-45 8.8-11.5 15.5-24.2 22.6-37.2z"></path></svg>