<svg stroke="currentColor" fill="currentColor" stroke-width="0" viewBox="0 0 512 512" height="1em" width="1em" xmlns="http://www.w3.org/2000/svg"><path d="M141.97 14.438c-42.682.018-82.778 11.23-101.282 31.187-30.652 33.058 1.238 86.79-22.72 168.063-8.613 29.22 74.178 97.934 122.188 151.625-3.125-8.49-3.153-17.208-1.156-24.688v-.688l.47-1.437c17.554-53.406 12.688-81.692-1.25-125.313-5.194-16.25-4.224-31.73 1.78-44.812 6.004-13.082 16.6-23.578 29.625-31.813 26.05-16.47 62.195-24.613 98.313-25.656 4.514-.13 9.006-.157 13.5-.062 23.43.492 46.31 4.073 65.906 11.22-5.792-6.04-12.343-12.123-19.344-18.22-41.85-24.153-155.507-18.392-208.03 16.125 33.065-44.226 114.77-66.194 184.53-35.407-8.257-6.463-16.738-12.862-25.125-19.126C238.262 40.686 123.365 46.27 70.47 81.03 102.665 37.97 181 15.983 249.5 43.28c-28.753-19.812-69.177-28.86-107.53-28.843zm132.78 115.03c-2.095.006-4.183.034-6.28.095-33.57.97-67.18 9.115-88.845 22.812-10.832 6.848-18.573 14.884-22.656 23.78-4.085 8.898-4.943 18.814-.94 31.345 14.19 44.4 19.552 79.75 1.657 135.22v.217l-.468 1.407c-1.297 3.94-1.203 11.898 1.81 17.47 3.016 5.57 7.7 9.873 19.75 9.873 7.3 0 16.987-.02 25.97-.03 21.836-16.527 47.35-35.183 66.375-49.97 10.12-7.864 22.774-9.62 34.125-9.312 11.35.31 21.408 2.634 28.563 6.063 19.722 9.444 37.077 15.635 55 20.125-.143-.97-.34-1.807-.563-2.47-16.222-47.974-24.11-90.38-8.406-137.718 4.08-12.298 3.23-21.644-.688-29.844-3.918-8.198-11.416-15.53-22.125-21.593-18.74-10.607-46.79-16.7-76-17.406-2.085-.05-4.185-.067-6.28-.06zm28.344 201.563c-.55 0-1.084.015-1.625.033-7.572.246-14.643 2.085-18.876 5.375-24.37 18.94-58.597 43.71-82.28 62.187-4.67 3.642-6.184 6.524-6.564 8.03-.38 1.51-.246 2.165.813 3.658 2.116 2.985 9.79 6.963 17.406 6.906 54.724-.405 97.39 12.696 133.405 30.03 19.53 9.4 43.448 9.722 66.72 4.063 23.27-5.66 45.638-17.31 61.03-30.188 15.392-12.878 22.33-26.61 21.063-33.938-.634-3.664-2.582-6.99-8.75-10.656-6.17-3.664-16.564-7.015-31.688-8.655-49.392-5.353-83.953-11.502-128-32.594-3.328-1.594-12.244-3.98-21-4.217-.547-.015-1.108-.03-1.656-.032zm196.25 90.5c-4.112 4.84-8.944 9.494-14.22 13.908-17.895 14.973-42.335 27.645-68.593 34.03-26.256 6.387-54.58 6.498-79.25-5.374-34.164-16.444-73.45-28.57-125.155-28.188-7.96.06-15.778-1.69-22.313-5.406 1.91 16.26 11.684 30.165 29.344 30.03 51.222-.39 81.323 12.19 117.813 25.533 57.38 20.98 162.374-11.593 162.374-49.125V421.53z"></path></svg>