<svg stroke="currentColor" fill="currentColor" stroke-width="0" viewBox="0 0 512 512" height="1em" width="1em" xmlns="http://www.w3.org/2000/svg"><path d="M80 40.998A38.867 38.867 0 0 0 40.998 80c0 1.848.136 3.662.38 5.44C45.395 76.946 54.065 71.001 64 71.001 77.7 71.002 88.998 82.3 88.998 96c0 9.936-5.945 18.606-14.437 22.621 1.777.245 3.591.38 5.439.38A38.867 38.867 0 0 0 119.002 80 38.867 38.867 0 0 0 80 40.998zm352 0A38.867 38.867 0 0 0 392.998 80c0 1.848.136 3.662.38 5.44 4.016-8.493 12.686-14.438 22.622-14.438 13.7 0 24.998 11.298 24.998 24.998 0 9.936-5.945 18.606-14.437 22.621 1.777.245 3.591.38 5.439.38A38.867 38.867 0 0 0 471.002 80 38.867 38.867 0 0 0 432 40.998zm-321.275 86.943a56.724 56.724 0 0 1-16.59 7.274c21.12 67.375 42.902 135.878 93.302 204.107-26.003 28.733-63.381 55.814-96.1 79.922-18.982 13.987-36.346 26.921-48.56 37.938-6.106 5.508-10.91 10.557-13.908 14.675-1.791 2.461-2.676 4.326-3.217 5.807 2.415 1.166 6.945 2.683 12.979 4.063 12.369 2.827 30.885 5.33 53.166 7.31 44.56 3.961 104.403 5.965 164.203 5.965s119.642-2.004 164.203-5.965c22.28-1.98 40.797-4.483 53.166-7.31 6.034-1.38 10.564-2.897 12.979-4.063-.541-1.48-1.426-3.346-3.217-5.807-2.998-4.118-7.802-9.167-13.908-14.675-12.214-11.017-29.578-23.95-48.56-37.938-32.719-24.108-70.097-51.189-96.1-79.922 50.4-68.229 72.182-136.732 93.302-204.107a56.724 56.724 0 0 1-16.59-7.274c-21.681 69.07-42.994 136.918-93.986 204.44-45.172 10.928-57.406 10.928-102.578 0-50.992-67.522-72.305-135.37-93.986-204.44zM199.002 384h17.996c0 20.5-15.2 34.988-32.228 45.63-17.03 10.644-37.281 18.687-52.745 26.419l-8.05-16.098c16.536-8.268 36.284-16.225 51.255-25.582 14.972-9.357 23.772-18.869 23.772-30.369zm96 0h17.996c0 11.5 8.8 21.012 23.772 30.37 14.97 9.356 34.719 17.313 51.255 25.581l-8.05 16.098c-15.464-7.732-35.716-15.775-52.745-26.418-17.028-10.643-32.228-25.131-32.228-45.631z"></path></svg>