<svg stroke="currentColor" fill="currentColor" stroke-width="0" viewBox="0 0 512 512" height="1em" width="1em" xmlns="http://www.w3.org/2000/svg"><path d="M155.7 20.88C79.302 21.093 36.837 85.437 21.98 167.435c20.554-27.42 86.13-18.87 95.723 14.615 17.89-33.31 64.53-33.637 90.066-20.646-15.146-11.61-22.89-32.173-25.436-53.133-.136-1.114-.248-2.236-.355-3.358-23.93-19.16-33.733-47.772-10.546-83.205-5.397-.57-10.642-.84-15.735-.826zm203.29 0c-5.093-.013-10.338.257-15.734.827 24.394 37.278 12.274 67.006-14.397 86.12-.013.1-.02.202-.032.302-2.648 21.376-10.735 42.16-25.974 54.41.058.354.09.71.138 1.064 24.368-15.136 75.143-16.652 93.992 18.445 9.593-33.486 75.17-42.036 95.723-14.616C477.85 85.436 435.387 21.092 358.99 20.88zM207.43 56.185c-5.98 13.263-8.675 32.293-6.543 49.832 2.618 21.544 12.048 39.256 24.44 44.238l7.546 3.033-1.96 7.89c-3.436 13.822 8.673 30.257 26.12 30.257 7.793 0 16.676-4.234 22.06-10.196 5.382-5.962 7.3-12.235 4.475-18.935l-3.183-7.547 7.066-4.145c11.193-6.563 20.326-24.554 22.83-44.778 2.063-16.65-.46-34.08-6.596-46.297-17.747 13.423-29.114 37.777-39.727 54.86l-8.773 14.12-7.502-14.835c-8.5-16.806-22.957-42.86-40.252-57.496zm-31.055 144.69c6.937 35.135 40.054 61.622 80.008 61.622 39.954 0 73.074-26.487 80.01-61.623-18.596 22.28-47.26 36.758-80.01 36.758-32.75 0-61.413-14.476-80.008-36.757zm-44.895 53.064c18.07 45.058 67.224 77.673 124.903 77.673 57.678 0 106.836-32.614 124.904-77.673-30.255 30.397-75.234 49.64-124.904 49.64s-94.65-19.243-124.903-49.64zm-67.2 54.898c34.597 60.233 107.273 102.2 192.103 102.2 84.52 0 157.35-41.666 192.105-101.542-48.562 42.393-116.63 69.235-192.105 69.235-75.874 0-143.493-27.107-192.104-69.894zm-44.532 70.646c48.075 66.48 135.784 111.432 236.635 111.432 100.85 0 188.56-44.953 236.635-111.432-61.703 48.234-144.83 77.805-236.635 77.805-91.806 0-174.933-29.57-236.635-77.805z"></path></svg>