<svg stroke="currentColor" fill="currentColor" stroke-width="0" viewBox="0 0 512 512" height="1em" width="1em" xmlns="http://www.w3.org/2000/svg"><path d="M286.902 26.102l32.344 66.677 175.3-51.64zm-14.435 11.484l-20.68 47.81 19.86 67.42 43.472 29.08c-.916-8.018-1.956-17.097-3.118-27.02-1.375-11.736-2.797-23.634-3.967-32.884-.585-4.625-1.108-8.594-1.523-11.508-.25-1.746-.57-3.376-.713-4.183zm227.162 20.82l-175.03 51.56c.39 2.816.802 5.893 1.293 9.768 1.182 9.354 2.61 21.283 3.988 33.047 1.323 11.293 2.573 22.202 3.544 30.734zM225.25 96.36c-6.24.025-13.473.972-20.428 3.02-11.938 3.518-22.76 10.203-27.66 15.81l13.1 44.476c2.87 11.482 2.604 10.575 2.87 11.482 2.818 9.697 6.008 22.917 8.913 36.233 2.86 13.107 5.446 26.318 7.22 36.552-13.247 9.09-24.188 23.53-26.744 38.123.69 5.675 1.35 11.72 2.006 17.922h30.673v3.634c-9.414 2.836-19.547 7.026-29.11 11.52.913 9.088 1.844 18.49 2.823 28.048l26.287.71v1.38c-9.125 3-17.414 6.747-24.935 10.707 2.117 19.663 4.532 39.527 7.668 57.978.634 3.734 1.31 7.38 2.005 10.977h15.263v3.644c-4.406 1.325-8.954 2.92-13.55 4.74 3.035 14.105 6.587 26.78 10.76 36.87 5.163 12.488 11.142 20.07 16.792 23.388 5.82-3.26 11.65-10.323 16.813-22.328 2.033-4.728 3.926-10.103 5.69-16.01-6.104-3.028-12.2-5.475-17.487-6.53v-.577h19.48c2.62-9.95 4.923-21.155 6.923-33.305 1.375-8.353 2.614-17.154 3.75-26.297-8.626-4.698-17.73-8.72-24.926-9.625-1.62 20.566-3.478 40.367-5.275 57.89-.163-45.778-.49-128.767-5.73-171.644l.718-10.312c-.437-3.55-1.145-8.11-2.062-13.436-1.834-10.648-4.504-24.285-7.463-37.853-2.683-12.3-5.59-24.478-8.362-34.4 4.334-.454 8.886-1.308 13.33-2.618 11.94-3.517 22.76-10.2 27.66-15.81L236.64 97.672c-2.99-.86-6.915-1.33-11.388-1.313zm-64.04 28.378l-11.007 3.242 23.973 40.776zm-28.802 8.485l-12.9 3.798 24.03 40.878 12.897-3.8zm-30.64 9.142l12.966 44.018 11.006-3.242zm-17.3 4.98L18 166.924v47.954l79.47-23.41zm157.483 86.643c-.412.002-.814.022-1.223.03 1.646 8.285 2.425 18.16 2.887 29.61.697 17.265.347 37.753-.62 59.405-.814 18.193-2.077 37.166-3.534 55.674h26.076c1.538-13.55 2.874-27.78 4.103-42.377-10.106-1.324-20.122-1.633-26.58.727l27.33-9.99c1.933-24.034 3.634-48.887 5.45-73.48-.03-4.927-1.356-7.864-3.6-10.444-2.273-2.612-5.852-4.834-10.472-6.413-4.618-1.578-10.173-2.406-15.696-2.658-1.38-.063-2.76-.09-4.12-.084zm-26.75 211.17v2.03l-.207-.022c.067-.628.14-1.37.207-2.008z"></path></svg>