<svg stroke="currentColor" fill="currentColor" stroke-width="0" viewBox="0 0 512 512" height="1em" width="1em" xmlns="http://www.w3.org/2000/svg"><path d="M269.594 138.188c-7.327.018-14.304 1.695-20.47 4.718-12.33 6.046-21.537 16.877-26.874 29.344-5.337 12.467-6.884 26.816-2.906 40.375 3.978 13.56 13.864 26.06 29.594 33.53l8.03-16.874c-11.386-5.406-17.107-13.144-19.687-21.936-2.578-8.792-1.63-18.9 2.157-27.75 3.79-8.85 10.305-16.18 17.907-19.906 7.602-3.728 16.19-4.464 26.844.593l.25.126.28.125 128.407 51.595c-2.868 3.738-5.47 7.785-7.813 12.063-4.422 8.076-7.89 17.01-10.125 26.375-11.192.072-23.21 2.372-34.843 9.406-3.506-6.976-8.417-12.93-14.5-17.44-8.036-5.955-17.907-9.28-28.594-9.75-6.412-.28-13.118.456-19.906 2.314-19.537 5.347-36.632 18.23-48.25 34.78l-140.438-68c-.158-.087-.31-.163-.47-.25-9.61-5.25-19.48-7.61-28.842-7.56-5.71.028-11.214.957-16.375 2.655-13.765 4.525-24.973 14.166-32.126 26.06-7.153 11.896-10.38 26.294-7.344 40.407 3.035 14.114 12.633 27.52 28.813 36.532l9.093-16.345c-12.24-6.818-17.72-15.27-19.625-24.125-1.903-8.854.075-18.547 5.064-26.844 4.99-8.297 12.877-14.958 21.937-17.937 9.062-2.98 19.295-2.647 30.782 3.75l.25.124.25.094 139.907 67.78c-4.3 10.024-6.72 20.765-6.72 31.626 0 18.525 7.674 34.47 20.53 44 12.858 9.53 30.4 12.39 48.5 7.437 36.206-9.907 64.126-45.698 64.126-82.75 0-2.674-.155-5.286-.47-7.842 9.038-7.025 17.4-9.228 26.564-9.47-.088 1.695-.156 3.395-.156 5.094 0 17.794 4.827 32.91 14.375 42.938 9.546 10.03 24.624 13.654 38.717 8.188 14.094-5.467 25.31-17.586 33.375-32.313 8.065-14.727 12.97-32.332 12.97-50.125s-4.86-32.908-14.407-42.938c-5.967-6.268-14.09-10.042-22.78-10.656-5.216-.368-10.623.42-15.908 2.47-3.887 1.507-7.555 3.532-11 5.968L292.22 143.406c-.178-.084-.356-.137-.533-.22-7.43-3.435-14.937-5.017-22.093-5zm183.344 69.468c4.232-.034 7.58 1.82 10.906 5.313 3.47 3.643 6.512 9.688 8.094 17.718-4.87-3.297-10.882-4.063-17.407-1.532-16.185 6.28-29.31 30.25-29.31 53.53 0 11.812 3.402 21.147 8.842 26.69-5.652 1.042-9.74-.787-13.78-5.032-5.067-5.322-9.25-15.75-9.25-30.03 0-14.284 4.106-29.197 10.656-41.158 6.55-11.96 15.542-20.69 23.75-23.875 2.05-.795 3.91-1.278 5.625-1.5.642-.082 1.27-.12 1.875-.124zm-137.72 43.656c7.75.073 14.323 2.413 19.5 6.25 7.414 5.495 12.4 14.35 12.938 26.72-7.126-10.86-20.657-15.814-36.187-11.563-22.94 6.277-41.533 30.218-41.533 53.5 0 11.816 4.782 21.207 12.5 26.75-6.89-.417-12.802-2.653-17.53-6.158-7.856-5.82-12.97-15.418-12.97-28.968 0-27.1 23.337-57.328 50.344-64.72 3.377-.923 6.597-1.474 9.658-1.686.573-.04 1.156-.078 1.718-.094.527-.016 1.046-.036 1.563-.03z"></path></svg>