<svg stroke="currentColor" fill="currentColor" stroke-width="0" viewBox="0 0 512 512" height="1em" width="1em" xmlns="http://www.w3.org/2000/svg"><path d="M130.594 154.72c-61.166 0-110.938 49.77-110.938 110.936 0 61.166 49.772 110.97 110.938 110.97 53.164 0 97.746-37.617 108.5-87.626 6.047-7.977 19.177-8.658 25.687-.25 10.653 50.135 55.28 87.875 108.533 87.875 61.165 0 110.968-49.803 110.968-110.97 0-61.164-49.802-110.936-110.967-110.936-49.837 0-92.113 33.05-106.063 78.374-4.824-2.243-10.104-3.353-15.375-3.313-5.212.04-10.417 1.182-15.156 3.407-13.93-45.373-56.255-78.468-106.126-78.468zm0 18.686c51.065 0 92.28 41.185 92.28 92.25 0 18.84-5.604 36.323-15.25 50.906C174.24 278.926 89.67 273.28 56.44 320.625c-11.372-15.344-18.094-34.346-18.094-54.97 0-13.146 2.73-25.633 7.656-36.936 6.1 6.33 16.664 10.53 28.688 10.53 18.895 0 34.218-10.34 34.218-23.094 0-12.752-15.323-23.094-34.22-23.094-.39 0-.768.023-1.155.032 15.688-12.342 35.49-19.688 57.064-19.688zm242.72 0c51.064 0 92.28 41.185 92.28 92.25 0 18.84-5.605 36.323-15.25 50.906-33.393-37.626-117.96-43.28-151.188 4.063-11.372-15.344-18.094-34.346-18.094-54.97 0-13.146 2.73-25.633 7.657-36.936 6.1 6.33 16.663 10.53 28.686 10.53 18.896 0 34.22-10.34 34.22-23.094 0-12.752-15.324-23.094-34.22-23.094-.39 0-.77.023-1.156.032 15.687-12.342 35.488-19.688 57.063-19.688zm-121.47 74.875c4.08-.08 8.18 1.3 11.312 4.25-.51 4.312-.78 8.68-.78 13.126v.03c-3.408-.997-6.962-1.494-10.5-1.467-3.488.025-6.97.584-10.314 1.592v-.156c0-4.392-.28-8.708-.78-12.97 2.986-2.802 7.012-4.325 11.062-4.405z"></path></svg>