<svg stroke="currentColor" fill="currentColor" stroke-width="0" viewBox="0 0 512 512" height="1em" width="1em" xmlns="http://www.w3.org/2000/svg"><path d="M87.845 350.075a192.53 192.53 0 0 0 10.15 19.15l-24.3 2.37zm53.16-272.84l4.94 39.57a193.29 193.29 0 0 1 29.09-18.48zm336.84 265.2l-28.17-23.73a191.29 191.29 0 0 1-11.24 31.38zm-384.47-154.89l-59.22 11.89 39.81 33.14a191.21 191.21 0 0 1 14.35-44zm159.38-69.88c13.3-1 25.17-4.91 31.72-10.2l-37.32-65.16-27.28 70c7.26 4.23 19.57 6.35 32.88 5.36zm125.46 30.68c1.31 8.32 7.48 19.19 16.68 28.84 9.2 9.65 19.76 16.35 28 18.05l26.7-70.18zm-46.11 254.48c-11.81 6.21-21.13 14.53-25 22l60.21 44.87-2.88-75c-8.39-1.05-20.52 1.92-32.33 8.13zm-139-20.19c-12.35-5-24.72-6.81-32.94-5l4.4 75 55.58-50.5c-4.61-7.09-14.69-14.47-27.05-19.51zm-26.26-113.75a33.771 33.771 0 1 0 29-61s-37.69 2.33-57.36 10.39c6.29 20.16 28.36 50.61 28.36 50.61zm270.26.91a173.52 173.52 0 0 1-53.88 125.77l-.54-14.18-5.25-2.41c-13.5-6.21-33.73-3.51-54.12 7.22s-34.07 25.88-36.6 40.52l-1 5.69 10.92 8.14a174.29 174.29 0 0 1-85.68-4.73l31.08-28.24-1.53-5.57c-3.94-14.33-19-28.08-40.36-36.78-21.36-8.7-41.73-9.43-54.57-1.94l-5 2.91 1.69 28.69a173.49 173.49 0 0 1-53.12-125.09c0-74.34 46.87-137.93 112.61-162.8l-4 10.17 3.85 4.3c8.73 9.76 25 15.26 44.48 15.26 2.62 0 5.31-.1 8-.3 23-1.71 41.56-10.14 49.72-22.56l3.17-4.83-5.08-8.87a173.38 173.38 0 0 1 66.83 31.48l-8.37 2.73-.89 5.7c-2.28 14.68 5.85 33.41 21.74 50.09 14.7 15.43 31.47 24.3 45.6 24.3h1.23a173.29 173.29 0 0 1 9.1 55.33zm-233.15-78.88c-24.81-11.79-75.11 10.9-80.71 13.52l-7.11 3.31 2 7.59c1.56 6 15.92 58.75 40.69 70.53a52.57 52.57 0 1 0 45.13-94.95zm195.14 122.82l-2.33-7.49c-1.84-5.9-18.67-57.94-44-68.54a52.583 52.583 0 0 0-40.63 97c25.33 10.62 74.46-14.41 80-17.3zm-53.56-58.68a33.764 33.764 0 1 0-26.1 62.28s37.53-4.1 56.81-13.08c-7.2-19.82-30.71-49.2-30.71-49.2z"></path></svg>