<svg stroke="currentColor" fill="currentColor" stroke-width="0" viewBox="0 0 512 512" height="1em" width="1em" xmlns="http://www.w3.org/2000/svg"><path d="M138.156 79.563c-31.152.182-59.2 12.183-81.656 49.656 14.524 7.443 25.94 20.494 34.594 36.718 23.192-19.45 47.258-25.422 70.344-26.032 1.115-.03 2.232-.056 3.343-.062 7.78-.04 15.44.485 22.907 1.28l-2 18.595c-30.506-3.252-57.477-3.168-86.53 24.03 3.292 8.65 6.04 17.943 8.374 27.72 14.596-9.007 29.497-12.176 44.064-12.25 1.196-.007 2.402-.004 3.594.03 11.435.33 22.625 2.46 33.25 5.094l-4.5 18.125c-26.066-6.46-48.34-9.59-72.375 8.905 1.126 6.625 2.105 13.396 2.906 20.313.392 3.398.713 6.826 1.03 10.28 9.115-3.8 18.35-5.536 27.375-5.687 1.955-.03 3.91.018 5.844.126 15.46.867 30.124 5.716 44.25 11.188l-6.75 17.437c-13.48-5.22-26.388-9.287-38.532-9.967-10.51-.59-20.403 1.075-30.75 6.906.684 13.683.838 27.62.5 41.56 16.186.72 33.618.074 50.28-1.936l5-.594 3.25 3.844c18.406 21.86 30.335 55.44 32.063 102 10.888-1.433 21.697-3.74 32.564-7.375-25.184-102.074-34.018-205.22-.344-308.533-31.203-16.298-66.677-30.76-99.063-31.343-1.01-.018-2.026-.037-3.03-.03zm219.906 16.124c-15.74.036-30.8 2.812-43.156 7.938-16.887 7.006-28.18 17.81-31.97 31.875 23.718 102.41 13.683 179.952.595 283.344 5.66 1.64 12.74 3.086 20.75 4.344 4-48.36 26.424-86.188 55.72-107.844l4.313-3.188 4.937 2.125c8.365 3.59 19.527 6.158 32.22 7.72-.475-5.436-.857-10.843-1.158-16.188-22.766-17.532-51.772-17.002-77.906-9.187l-5.344-17.906c11.303-3.38 23.542-5.617 35.97-5.876 15.748-.33 31.8 2.563 46.593 10.406-.017-6.967.15-13.778.563-20.375.287-4.61.706-9.106 1.218-13.5-22.627-20.67-45.18-19.31-71.812-14.906l-3.03-18.44c7.198-1.19 14.614-2.136 22.155-2.468 1.413-.062 2.828-.108 4.25-.125 17.42-.198 35.295 3.27 52.092 15 2.5-10.14 6-19.322 10.875-27.218-26.413-28.12-52.972-30.288-83.156-29.47l-.5-18.656c2.146-.058 4.296-.086 6.47-.094 2.174-.008 4.37.003 6.563.063 27.6.754 56.7 7.326 82.875 33.968 10.384-8.308 24.128-12.26 40-10.718-3.77-22.168-14.12-39.038-28.344-51.78-16.68-14.942-38.927-24.045-61.625-27.376-5.676-.832-11.375-1.32-17-1.437-1.056-.023-2.108-.035-3.158-.032zM64.625 333.47c-24.22 19.75-43.225 53.82-44.938 98.686 34.014 11.948 82.977 16.013 169.657-1.125-1.105-42.536-11.057-71.93-24.813-90.342-35.766 3.787-73.08 2.453-99.905-7.22zm302.813 0c-24.21 19.752-43.226 53.83-44.938 98.686 34.01 11.95 82.986 16.008 169.656-1.125-1.105-42.54-11.054-71.93-24.812-90.342-35.758 3.783-73.088 2.45-99.906-7.22z"></path></svg>