<svg stroke="currentColor" fill="currentColor" stroke-width="0" viewBox="0 0 512 512" height="1em" width="1em" xmlns="http://www.w3.org/2000/svg"><path d="M365.1 30.76c-16.7 3.83-35.9 36.61-47.6 50.9 8.2 3.7 17.3 3.8 26.9 3.6 4.7-7.83 49.9-54.37 20.7-54.5zm-264.3 64.9c12.1 7.44 28.8 8.84 40.6 8.94 27.2.2 62.9-6.14 99.9-17.24l8.6 15.34c-20.7 18.6-25.7 33.6-25.7 44-.1 10.4 5.9 17.6 7.3 18.6 10.5 7.7 24.9 7.2 42.7-.1 17.9-7.2 37.7-21.1 55.5-36.7l9.2-8.2 5 11.3c12.8 29.1 25.3 55.5 40.5 72.6 13 14.7 27.1 22.9 47.7 22.2-8.9-27.4-14-47.6-21.5-64.2-8.5-18.8-20-34.4-45.9-55.9-3.2-2.6-9.5-3.1-19.4-3-26.5-.2-45.2-5.6-63.4-25.14-5.8-6.3-10.2-11.9-20.7-19.8-57.3 7.28-114 23.84-160.4 37.3zm116.8 16.74c-19.3 4.7-37.9 7.8-55 9.3-1.3 6.9-8 17.9-14 16.7-4.4-1.2-6.5-8-5.2-15.8-9.8-.2-20.1-.8-28.5-2.5-15.26 15.7-19.51 38-23.31 56.7 8.1-1.4 9.11 12.8 7.76 18.4-2.34 8.7-8.08 14.7-12.99 13.8-5.49 44-5.81 93.1-6.06 138.7-.29 54.3-4.75 99.6 27 129.2 85.7 24 196.2-55.3 262-122.3-2.4.8-4.5.6-6.1-.4-4.3-2.9-3.6-11.4 1.5-19 4.1-4.7 10.8-12.4 17-8.8 3.2 2.2 3.7 7.6 1.3 13.8 23.4-25.8 39-48.2 42.1-60 2.1-12.5 2.4-24.5 1.5-36-1.3 0-2.5-.1-3.7-.2-.2 3-1.2 6.5-2.9 9.8-4.2 8.3-11.3 13-15.8 10.7-4.6-2.3-5-10.8-.8-19.1.9-1.8 2-3.5 3.2-4.9-8.8-3-16.8-7.5-23.9-13.2 1.2 4-.2 10-3.9 15.6-5.1 7.7-12.8 11.6-17 8.7-4.3-2.8-3.6-11.3 1.5-19 4-4.6 8.8-9.6 14.4-9.6-2.4-2.2-4.6-4.4-6.8-6.9-12.8-14.4-22.9-32.8-32.3-52.8-2.8 3.7-6.2 5.7-9.2 4.9-3.6-1-5.7-5.8-5.6-11.8C310 167 295.5 176 281 181.9c-2.7 5.8-7.6 14.3-13.2 13.1-2.7-.8-4.6-3.6-5.3-7.6-14.9 2.9-29.5 1.3-41.6-7.5-7.1-5.1-13.6-15-14.6-29.2-2.8 4.3-6.5 6.7-9.8 5.8-5-1.3-7-9.6-4.7-18.5 2.2-7.9 7.1-13.7 11.8-13.9 2.8 0 5 2.5 5.9 4.4 1.8-5.2 4.5-10.5 8.1-16.1zm-50.1 34.1c4.9 1.4 7 9.7 4.6 18.5-2.4 8.9-8.3 15.1-13.3 13.7-5-1.3-7-9.6-4.6-18.5 2.7-6.1 6.6-14.8 13.3-13.7zm-35.4 4.3c4.9 1.4 7 9.7 4.6 18.6-2.4 8.9-8.3 15-13.3 13.6-5-1.3-7-9.6-4.6-18.5 2.8-6.2 6.6-14.6 13.3-13.7zm188.1 14c5 1.3 7 9.6 4.6 18.5-2.3 8.9-8.3 15-13.3 13.7-4.9-1.4-7.6-9.9-4.6-18.6 2.1-6.3 6.7-14.8 13.3-13.6zm-135.1 18.8c5 1.4 7.1 9.7 4.7 18.6-2.4 8.9-8.4 15-13.4 13.6-4.9-1.3-7.6-9.8-4.6-18.5 2.1-6.3 6.7-14.6 13.3-13.7zm44.3 9.4c4.9 1.3 7 9.6 4.6 18.5-2.4 8.9-8.4 15-13.3 13.7-5-1.4-7.6-9.8-4.7-18.5 2.2-6.4 6.8-14.8 13.4-13.7zm67.3 9.7c5 1.3 7.1 9.6 4.7 18.5-2.4 8.9-8.4 15.1-13.4 13.7-4.9-1.3-7-9.6-4.6-18.5 2.7-6.1 6.7-14.8 13.3-13.7zm39.4 1.8c5 1.3 7 9.6 4.6 18.5-2.4 8.9-8.3 15-13.3 13.7-4.9-1.3-7-9.6-4.6-18.5 2.7-6.2 6.6-14.8 13.3-13.7zm-197.7 3c5 1.3 7.1 9.6 4.7 18.5-2.4 8.9-8.4 15-13.3 13.7-5-1.4-7.1-9.6-4.7-18.5 2.6-6 6.8-14.9 13.3-13.7zm121.2 18.8c5 1.4 7.1 9.7 4.7 18.6-2.4 8.9-8.4 15-13.4 13.7-4.9-1.4-7-9.7-4.6-18.6 2.7-6.1 6.7-14.6 13.3-13.7zm-157.9 14.9c4.9 1.4 7 9.7 4.6 18.6-2.4 8.9-8.35 15-13.31 13.7-4.97-1.4-7.05-9.7-4.66-18.6 2.77-6.2 6.69-14.6 13.37-13.7zm209.7 6c5 1.3 7.1 9.6 4.7 18.5-2.4 8.9-8.4 15-13.3 13.7-11.7-7.3-2.1-34.1 8.6-32.2zm-109.9 2.5c5.1.3 8.9 7.9 8.4 17.1-.4 9.2-5 16.5-10.1 16.2-5.2-.3-8.9-7.9-8.4-17.1.4-9.2 5-16.5 10.1-16.2zM157.4 261c5 1.4 7.1 9.7 4.7 18.6-2.4 8.9-8.4 15-13.3 13.7-5-1.4-7.1-9.7-4.7-18.6 2.7-6.1 6.7-14.6 13.3-13.7zm199 7.9c4.3 2.8 3.6 11.3-1.5 19-5.1 7.7-12.7 11.6-17 8.7-4.3-2.9-3.6-11.4 1.5-19 3.7-4.2 11.3-13 17-8.7zm47.1 6.5c4.4 2.7 4.1 11.2-.7 19.1-4.8 7.8-12.3 12-16.7 9.4-4.4-2.7-4-11.3.8-19.1 3.8-4.4 10.4-13.2 16.6-9.4zm-161.1 4.5c4.9 1.3 7 9.6 4.6 18.5-2.4 8.9-8.3 15-13.3 13.7-4.9-1.3-7-9.6-4.6-18.5 2.7-6.1 6.7-14.8 13.3-13.7zm50.4 10.8c4.3 2.8 3.6 11.3-1.5 19-5.1 7.7-12.7 11.6-17 8.7-4.3-2.9-3.6-11.4 1.5-19 3.7-4.1 11.3-13 17-8.7zM107 300.2c4.9 1.4 7 9.7 4.6 18.6-2.4 8.9-8.3 15-13.33 13.6-4.96-1.3-7.04-9.6-4.65-18.5 2.77-6.2 6.68-14.6 13.38-13.7zm222.5 10.3c4.3 2.9 3.6 11.4-1.5 19.1-5.1 7.6-12.7 11.5-17 8.7-4.3-2.9-3.6-11.4 1.5-19.1 3.9-4.4 11-12.6 17-8.7zm-133 .3c5 1.3 7.1 9.6 4.7 18.5-2.4 8.9-8.4 15-13.3 13.7-5-1.4-7.1-9.6-4.7-18.5 2.6-6 6.8-14.9 13.3-13.7zm-52.5 5.9c5 1.3 7.1 9.6 4.7 18.5-2.4 8.9-8.4 15-13.4 13.7-4.9-1.3-7.5-9.8-4.6-18.5 2.1-6.2 6.8-14.9 13.3-13.7zm121.1 17.5c4.3 2.8 3.6 11.4-1.5 19-5.1 7.7-12.7 11.6-17 8.7-4.3-2.8-3.6-11.4 1.5-19 3.7-4.2 11.3-13 17-8.7zm30.2 22.5c4.3 2.9 3.6 11.4-1.5 19-5.1 7.7-12.7 11.6-17 8.7-4.3-2.8-3.6-11.3 1.5-19 4-4.3 11-12.6 17-8.7zm40.3 1.5c4.2 2.9 3.5 11.4-1.6 19-5.1 7.7-12.7 11.6-17 8.7-4.2-2.8-3.6-11.3 1.6-19 4.1-4.6 10.8-12.3 17-8.7zm-132.1-.4c4.9 1.4 7 9.7 4.6 18.6-2.4 8.9-8.3 15-13.3 13.7-5-1.4-7.6-9.9-4.6-18.6 2.3-6.8 6.4-14.3 13.3-13.7zm-94.9 12.6c5 1.3 7.1 9.6 4.7 18.5-2.4 8.9-8.4 15-13.36 13.7-4.97-1.4-7.05-9.7-4.65-18.5 2.62-6 6.81-14.9 13.31-13.7zm47.7 10.4c4.9 1.3 7 9.6 4.6 18.5-2.4 8.9-8.3 15-13.3 13.7-5-1.3-7.7-9.8-4.7-18.5 2.2-6.3 6.8-14.8 13.4-13.7zm76.7 20.1c4.3 2.9 3.6 11.4-1.5 19.1-5.1 7.6-12.7 11.5-17 8.7-4.3-2.9-3.6-11.4 1.5-19.1 3.9-4.4 11-12.6 17-8.7zm41.1 6.5c4.3 2.9 3.6 11.4-1.5 19.1-5.1 7.6-12.7 11.5-17 8.7-4.3-2.9-3.6-11.4 1.5-19.1 3.9-4.3 11-12.6 17-8.7zm-152.6 26.5c5 1.4 7.1 9.7 4.7 18.6-2.4 8.9-8.4 15-13.3 13.6-5-1.3-7.1-9.6-4.7-18.5 2.7-6.1 6.8-14.6 13.3-13.7zm64.3 10.5c4.2 2.9 3.5 11.4-1.6 19.1-5.1 7.6-12.7 11.5-17 8.7-4.3-2.9-3.6-11.4 1.5-19.1 4.1-4.6 10.9-12.3 17.1-8.7z"></path></svg>