<svg stroke="currentColor" fill="currentColor" stroke-width="0" viewBox="0 0 512 512" height="1em" width="1em" xmlns="http://www.w3.org/2000/svg"><path d="M264.34 21.275c-61.1 44.835-108.23 124.229-103.512 198.29 6.36-7.25 13.422-13.883 21.139-19.713 11.146-65.623 49.022-131.354 82.373-178.577zM57.383 22.758c24.174 34.235 50.712 78.19 67.728 124.773 7.978 6.219 15.304 13.215 21.76 20.94a236.975 236.975 0 0 1 3.951-15.287c-16.31-48.832-51.666-104.548-93.44-130.426zm405.053 10.744c-47.361 40.863-69.363 100.554-74.997 158.209a202.35 202.35 0 0 1 8.16 11.328 201.113 201.113 0 0 1 16.737-29.867c9.403-51.405 27.53-101.544 50.1-139.67zm-92.069 3.707c-64.832 14.582-107.75 78.8-116.562 136.773 2.973 1.672 6.73 5.1 9.265 8.455 22.607-66.53 61.275-110.735 107.297-145.228zm-353.123 91.37c51.778 24.363 105.825 56.494 127.035 103.939-2.272-12.34-2.629-25.452-1.396-38.944-28.597-42.532-78.956-63.451-125.639-64.996zm476.056 27.49c-34.406-.802-76.934 23.426-86.128 66.726 1.139 4.58 13.022 13.846 21.013 16.969.773-43.834 37.177-62.218 65.115-83.695zm-174.29 2.181c21.04 21.461 48.917 45.511 61.953 86.13 4.24-2.486 8.63-4.729 13.18-6.693-15.79-31.463-44.049-67.846-75.133-79.437zm-73.265 30.155c-37.362 3.63-64.025 29.123-83.225 58.677-14.63 22.519-23.115 49.683-24.555 76.266 25.986-53.821 62.46-108.757 112.652-127.534zm31.927 13.365c-2.223 2.752-5.084 4.713-7.885 6.818 31.072 26.356 47.903 58.752 56.068 93.111a205.85 205.85 0 0 1 9.504-14.467c-9.09-33.826-32.122-70.188-57.687-85.462zM248.41 215.8a128.121 128.121 0 0 0-9.748 4.63l-1.48 27.127c14.5 11.416 25.42 23.037 34.015 37.332l2.711-49.662c-6.944-6.998-15.319-13.482-25.498-19.426zm-120.312 24.09C71.5 256.71 37.71 308.58 28.604 361.046c29.726-43.263 59.439-87.436 104.86-106.18-1.603-5.314-3.395-10.297-5.366-14.974zm74.738 9.506c-3.896 5.005-7.323 9.1-10.813 14.153 43.782 20.683 60.177 57.427 80.86 93.969-2.173-48.16-27.882-92.375-70.047-108.121zm205.033 2.33c-29.13 10.175-52.395 33.868-69.392 64.065-11.124 19.76-19.43 42.164-24.94 64.672 19.94-27.481 34.02-48.154 47.813-65.518 16.755-21.093 33.426-37.283 58.636-53.603-2.898-5.063-7.514-9.234-12.117-9.615zm22.572 24.243c-5.147 3.297-9.868 6.548-14.26 9.812 23.392 42.081 38.88 88.57 55.426 133.594-1.502-49.435-13.906-99.519-41.166-143.406zM174.115 293.63c-10.184 19.084-19.878 39.48-32.46 59.031l1.687 27.598c12.051 1.164 23.366-1.86 35.72-5.682zm227.905 3.7c-12.309 11.669-21.565 22.225-30.59 33.958 8.607 6.083 19.627 8.03 32.529 8.234l6.086-26.554a405.944 405.944 0 0 0-8.025-15.639zm-169.012 26.702l-2.383 43.643.541-.807c9.337 6.267 18.402 6.229 28.932 4.631-10.136-17.217-18.219-33.414-27.09-47.467zm131.951 24.508l-12.9 56.295c11.853 5.06 22.705 9.387 34.753 9.504l13.045-56.922c-12.158-.504-24.254-2.66-34.898-8.877zm-135.355 37.85l-2.575 47.148c12.128 4.554 23.916 6.054 35.803 4.572l2.688-49.242c-11.093 1.813-23.479 2.755-35.916-2.478zm-49.413 6.656c-10.937 3.273-22.755 6.1-35.74 5.361l3.897 63.762c13.989.1 26.73-.425 35.804-4.287zm167.772 29.656l-12.32 53.764c11.403 4.048 23.029 6.993 34.884 8.937l12.192-53.197c-12.962-.822-24.314-5.066-34.756-9.504zM226.01 452.21L223.729 494h36.052l2.059-37.703c-11.976 1.028-23.997-.38-35.83-4.088zm-40.705 24.514c-11.492 3.648-23.852 3.84-35.85 3.588l.836 13.689h36.07z"></path></svg>