<svg stroke="currentColor" fill="currentColor" stroke-width="0" viewBox="0 0 512 512" height="1em" width="1em" xmlns="http://www.w3.org/2000/svg"><path d="M206 44.27c-1.9 0-3.8 0-5.7.1-9.1.28-18 1.12-26.7 2.63-12.9 21.86-10.3 52.93-.8 78.4 24.7 3.1 51.8 6.5 78.2 11-3.8-15-6.2-30.4-3.7-45.87 2.2-13.73 8.7-27.19 20.7-39.3-18.9-4.27-40.6-7.08-62-6.96zm-54.8 8.35c-27.5 9.37-48.4 27.34-56.4 59.98 2.88 1.1 7.8 2.5 14.1 3.8 11.1 2.2 26.5 4.3 43.9 6.5-6.9-22.4-9.3-47.69-1.6-70.28zm137.7 4.14c-15.5 11.8-21.7 23.68-23.8 36.67-2.3 13.87.9 29.77 5.5 46.57 9.4 1.9 18.5 3.9 27.2 6.2 16.5 4.2 31.8 9.5 45.6 15.2 1.2-11.6 2.9-24.3 10.1-36.4 6.3-10.5 16.7-19.8 33.1-26.97-26.1-16.99-56.3-30.47-97.7-41.27zm115.4 53.84c-20.6 6.6-30.1 14.8-35.4 23.7-5.7 9.5-6.8 21.2-8.3 34.5 5.6 2.6 10.9 5.3 15.8 7.8 20.6 10.7 34.3 20.1 40.3 25.3h-.1c23 19.6 38 16.7 48.8 8.7 10-7.5 14.8-22.2 13.7-29.6-27.2-28-49.6-51.2-74.8-70.4zm-289.7 25.1c0 4.1.2 8.2.7 12 .9 6.9 2.7 12.8 5.7 17.3 3 4.4 7.1 7.8 14.3 10 5.1 1.6 10.3 3.2 15.4 4.7 14.3-2 28.9-2.8 43.2-2.7 31.8.2 62.2 5.2 85.4 12.3 35.8 9.2 63.9 22.8 87.9 39.2 17.8.5 34.7-.7 50.4-3.9-4.2-2.5-8.4-5.5-12.6-9.1h-.1c-3.5-3-17.2-12.7-36.8-22.9-19.6-10.3-45.5-21.4-74.9-29-40-10.4-91.9-16.4-134.1-21.7-16.8-2.1-31.9-4.1-44.5-6.2zm79.2 59.4c-8.9 0-17.8.3-26.6 1-16.9 26.7-26 53-6 95.2 27 3.5 55.4 7.7 81.6 13.3-3.6-18.5-1.4-36.2 5.4-52.4 6.7-16 17.7-30.6 31.5-44.2-1.7-.5-3.4-1-5.1-1.4h-.2l-.2-.1c-21.2-6.5-50.2-11.1-80.4-11.4zm-49 3.8c-1.7.3-3.5.7-5.2 1-23.3 4.6-44.62 12.9-61 25.6-15.25 11.8-26.25 27.2-31.39 48 .14 0 .1 0 .24.1 3.12 1.3 8.6 2.8 15.53 4.2 13.85 2.8 33.67 5.4 56.22 8.2 6.8.8 14 1.7 21.2 2.6-13.7-35.9-8-65 4.4-89.7zm154.7 15.2c-16.2 14.6-28.2 29.6-34.7 45.1-6.5 15.6-7.8 31.5-2.4 49.9 1 .2 2 .5 2.9.7 29.4 7.7 52.5 16.4 70 24.7 1.3-12.1 5.1-25.5 15.1-36.6 9.7-10.8 24.6-18.8 46.3-22.1-2.5-2.3-5-4.7-7.6-7-25-22.5-52.1-41.4-89.6-54.7zm114 78.2c-27.3 1.1-41.6 8.7-49.7 17.6-8.4 9.4-10.8 21.7-11.1 33.7 11.6 6.6 19.4 12.3 23.9 16.2 24.5 21 53.2 24.2 74.6 19.5 10.7-2.4 19.4-6.9 24.4-11.3 3.7-3.4 5-5.9 5.1-8-25.6-23.5-46.5-46.6-67.2-67.7zm-342.03 5.3c.51 3.4 1.18 6.7 2.07 9.9 3.9 14 10.51 24.2 26.86 29.2 72.1 22.2 141.5 46.3 202.7 56 34.7 5.5 66.5 6.5 94.9.2-11.3-4.1-22.6-10.4-33.2-19.5-8.7-7.5-40.5-29.7-104.1-46.2-42.9-11.2-98.5-17.7-143.8-23.3-16.92-2.2-32.42-4.2-45.43-6.3zm-6.3 68.3c-14.86.6-29.25 14.4-33.92 23 10.71 6.2 40.81 10 53.64-13.7-5.72-6.6-12.11-9.2-18.45-9.3zm35.53 23.9c-19.9.7-26.61 44-15.54 52.1 11.38 1.4 33.74-41.7 19.54-51.7-1-.3-2.1-.4-3.1-.4zm86.3 11.3c-3.7 0-6.9 1-9.1 3.4-8.4 22.1 38.9 36.5 48.9 25.8 2.3-9-23.7-28.9-39.8-29.2zm74.3 37.6c-16-.2-40.6 7.7-40 20.2 9.5 21.6 53.3-1.5 52.8-16.1-1.6-2.7-6.5-4-12.8-4.1z"></path></svg>