<svg stroke="currentColor" fill="currentColor" stroke-width="0" viewBox="0 0 512 512" height="1em" width="1em" xmlns="http://www.w3.org/2000/svg"><path d="M209.184 55.31C144.46 64.63 80.792 97.483 24.28 155.692c59.752 63.505 126.923 99.683 196.394 106.89-46.82-12.208-81.494-54.884-81.494-105.485 0-46.364 29.112-86.07 70.004-101.79zm77.953.028c40.853 15.737 69.93 55.423 69.93 101.76 0 49.845-33.645 92-79.405 104.92 67.035-8.242 134.898-43.203 199.162-106.325-57.2-56.64-122.697-90.757-189.687-100.355zm-39.014 11.445c-49.96 0-90.262 40.324-90.262 90.315 0 49.99 40.304 90.312 90.263 90.312 49.96 0 90.264-40.322 90.264-90.312 0-49.993-40.304-90.315-90.264-90.315zm.9 20.192c3.902 0 7.725.33 11.454.943-16.333 3.802-28.504 18.44-28.504 35.932 0 20.38 16.52 36.9 36.9 36.9s36.9-16.52 36.9-36.9c0-3.375-.462-6.64-1.31-9.746 9.29 11.92 14.838 26.898 14.838 43.183 0 38.832-31.464 70.313-70.277 70.313-38.812 0-70.275-31.48-70.275-70.313 0-38.83 31.463-70.312 70.275-70.312zM470.71 193.932c-73.638 63.713-151.264 93.704-226.487 93.056C169 286.34 95.726 255.083 30.668 194.176l-12.772 13.642c58.084 54.38 123.598 86.834 191.637 95.494 12.768 23.6 20.733 48.914 23.196 74.948-26.732-2.408-53.086-10.325-77.328-23.772v83.56c24.266-13.46 50.387-21.79 77.266-24.275-2.602 26.746-10.89 53.142-24.166 77.397l83.518-.004c-13.42-24.217-21.333-50.542-23.752-77.246 26.556 2.657 52.75 10.926 76.84 24.13v-83.562c-24.085 13.36-50.255 21.268-76.81 23.73 2.432-26.244 10.178-52.114 23.24-75.97 64.896-9.863 130.026-41.082 191.4-94.184l-12.227-14.132z"></path></svg>