<svg stroke="currentColor" fill="currentColor" stroke-width="0" viewBox="0 0 512 512" height="1em" width="1em" xmlns="http://www.w3.org/2000/svg"><path d="M160 36.5c-11.688 0-23 6.674-23 25.5v25h14V64h18v337.313A32 32 0 0 1 192 432a32 32 0 0 1-32 32 32 32 0 0 1-32-32 32 32 0 0 1 23-30.688V361h-14v21h.01c-18.926 8.673-32.01 27.74-32.01 50 0 30.482 24.518 55 55 55s55-24.518 55-55c0-22.26-13.084-41.327-32.01-50h.01V62c0-18.826-11.313-25.5-23-25.5zm96 16.273c-12.063 20.105-25.092 39.243-39.064 57.438-5.335-2.207-10.646-4.508-15.936-6.882v19.082c16.962-7.01 35.53-10.894 55-10.894 79.69 0 144.484 64.794 144.484 144.484 0 79.69-64.794 144.484-144.484 144.484-11.006 0-21.727-1.24-32.033-3.582 4.352 7.89 7.27 16.666 8.44 25.975 8.234 11.748 16.1 23.86 23.593 36.35 12.063-20.105 25.092-39.243 39.064-57.438 21.198 8.77 42.05 18.83 62.55 30.21.394-23.442 2.11-46.53 5.113-69.273 22.743-3.003 45.83-4.72 69.273-5.114-11.38-20.5-21.44-41.35-30.21-62.55 18.194-13.97 37.332-27 57.437-39.063-20.105-12.063-39.243-25.092-57.438-39.064 8.77-21.198 18.83-42.05 30.21-62.55-23.442-.394-46.53-2.11-69.273-5.113-3.003-22.743-4.72-45.83-5.114-69.273-20.5 11.38-41.35 21.44-62.55 30.21-13.97-18.194-27-37.332-39.063-57.437zM137 105v14h7v18h-7v14h14v-46h-14zm119 24.516c-19.728 0-38.376 4.514-55 12.54v227.89c16.624 8.024 35.272 12.538 55 12.538 69.962 0 126.484-56.522 126.484-126.484 0-69.962-56.522-126.484-126.484-126.484zM119 152.47c-12.89 1.044-25.888 1.696-39 1.917 11.38 20.5 21.44 41.35 30.21 62.55-18.194 13.97-37.332 27-57.437 39.063 20.105 12.063 39.243 25.092 57.438 39.064-8.77 21.198-18.83 42.05-30.21 62.55 13.112.22 26.11.87 39 1.913v-57.644c-4.844-14.422-7.484-29.846-7.484-45.883 0-16.035 2.64-31.458 7.484-45.88v-57.65zM137 169v14h7v18h-7v14h14v-46h-14zm0 64v14h7v18h-7v14h14v-46h-14zm0 64v14h7v18h-7v14h14v-46h-14zm25.11 111.648c-25.186 0-25.186 26.678-25.186 26.678s7.05-10.4 11.31-14.904c4.195-4.435 13.877-11.774 13.877-11.774z"></path></svg>