<svg stroke="currentColor" fill="currentColor" stroke-width="0" viewBox="0 0 512 512" height="1em" width="1em" xmlns="http://www.w3.org/2000/svg"><path d="M33.782 405.263l57.844 74.212a5.605 5.605 0 0 0 9.054-.467c28.971-42.99 46.646-94.058 57.612-121.356 5.078-12.552 14.195-22.978 24.62-31.56 0 0 19.75-18.098 25.94-25.76 8.056-10.043 7.72-20.907.92-31.696l-64.11 41.808a27.27 27.27 0 0 0-2.528 4.597l-1.81 4.231a8.259 8.259 0 0 1-4.136 2.697l-6.312 1.847a31.109 31.109 0 0 0-14.138 8.763l-82.677 65.428a5.58 5.58 0 0 0-.279 7.256zM436.424 48.359a5.53 5.53 0 0 1 1.578-7.66l2.802-1.828a5.53 5.53 0 0 1 7.653 1.611l2.435 3.733 21.115-13.77 7.417 11.375-21.104 13.763 2.117 3.247-12.057 7.862-2.798-4.29-122.76 80.056-6.069-9.306 122.76-80.057-3.102-4.757zM256.3 302.624c9.125 1.065 16.077-.772 20.75-3.82a16.554 16.554 0 0 0 5.931-6.432 11.11 11.11 0 0 1-3.466-19.846 24.27 24.27 0 0 1-2.802-37.744l21.135-13.783a6.777 6.777 0 0 0 1.975-9.38l-11.592-17.774 31.238-20.372-19.252-29.521-31.92 20.816-1.424-2.181a5.247 5.247 0 0 0-6.951-5.666 5.555 5.555 0 0 0-1.108.561 5.247 5.247 0 0 0 1.4 9.403l1.424 2.182-86.27 56.26-4.911-3.533c-1.295-.923-3.87-.511-6.187 1l-28.322 18.47c-2.316 1.51-3.732 3.7-3.409 5.258l1.252 5.92-7.073 4.612 19.252 29.521 73.416-47.877c10.216-1.24 16.578 4.81 17.424 17.36l-1.044 23.26c-.52 13.485 12.19 22.307 20.52 23.285zm12.115-80.249a7.63 7.63 0 0 1 2.223-10.558l11.767-7.674a7.63 7.63 0 0 1 10.558 2.223l2.697 4.136a7.63 7.63 0 0 1-2.223 10.558l-11.777 7.68a7.63 7.63 0 0 1-10.558-2.222l-2.697-4.136zm66.534-74.25l74.459-48.81a2.123 2.123 0 0 1 3.392 1.428 70.291 70.291 0 0 0 .507 7.805c2.063 16.724 9.618 22.953 9.618 22.953a10.16 10.16 0 0 0-3.426 18.181 10.172 10.172 0 0 0-.956 18.309 10.172 10.172 0 0 0 6.649 18.036c-2.887 6.422-11.65 12.534-26.283 10.818-8.331-.978-16.909-9.385-16.472-20.016l1.984-20.188c1.13-19.174-13.073-15.527-17.68-10.003-4.124 4.975-16.4 18.92-16.4 18.92a3.123 3.123 0 0 1-4.63.38l-8.725-7.661-2.576-2.255a5.16 5.16 0 0 1 .54-7.987zm-23.402 45.856a2.136 2.136 0 0 1 .269-.175l10.899-7.107c1.571-1.025 4.388.085 8.112 2.992 7.644 5.936 18.87 19.263 29.706 35.88 16.056 24.62 25.152 47.132 20.323 50.281l-10.847 7.074a2.136 2.136 0 0 1-.269.175c-4.829 3.15-21.763-14.251-37.818-38.872a244.538 244.538 0 0 1-12.345-21.189c-7.95-15.242-11.38-26.918-8.009-29.117z"></path></svg>