<svg stroke="currentColor" fill="currentColor" stroke-width="0" viewBox="0 0 512 512" height="1em" width="1em" xmlns="http://www.w3.org/2000/svg"><path d="M197 88.84c0 20.36 7.1 38.46 17.6 50.96l10.2 12.3-15.7 2.9c-13.8 2.6-24 9.9-32.5 21.5-3 4.1-5.8 8.9-8.3 14 26.9 5.2 56.3 8.2 87.2 8.2 28.2 0 55.3-2.5 80.3-6.9-2.8-6.2-6-11.7-9.6-16.5-8.6-11.5-19.3-18.8-34.7-21.1l-16-2.5 10.1-12.6c10.1-12.5 16.8-30.4 16.8-50.26 0-39.31-24.9-68.97-52.7-68.97-36.2.1-52.2 47.31-52.7 68.97zm118.2-34.88c3.8 10.78 5.9 22.58 5.9 34.88 0 8.6-1 16.76-2.9 24.56 50.3 6.2 94.6 19.8 127.7 39 7.1-4.6 13.3-9.3 18.7-14.3 4.1 6 6.7 12.1 7.8 18.2-44.3 38-124.7 61.1-216.9 61.1-91.7 0-171.66-22.9-216.16-60.5 1.54-7 4.09-13.1 7.5-18.4 5.3 4.8 11.5 9.4 18.3 13.9 30.7-17.8 70.86-30.7 116.56-37.5-2.1-8.2-3.3-16.86-3.3-26.06 0-11.8 1.9-23.29 5.4-33.78-12.3 1.87-24.3 3.52-35.4 7C98.22 77.58 34.78 101.1 21.48 151.1c-3.04 13.2.1 29.5 4.98 39.7 8.26 14.3 17.88 26 30.59 35.1 22.6 17 53.65 30.3 90.15 39.2l.1-.2c25.4 6.3 53.7 10.5 83.6 11.9 7.5.4 15.8 0 24.5 0 38.3 0 74.5-4.4 106.5-12v.3c37.4-8.9 69.1-22.2 92.1-39.1 23-17 37.8-38.3 37.8-62.3 0-24.1-15-45.6-38.2-62.6-46.4-28.75-88-40.84-138.4-47.14zM440 256.2c-22.4 11.3-48.3 20.3-69.1 25.7.1 1.7.1 5.5.2 7.2 28.5 7.2 53.9 15 74.9 27.1 7-4.5 13.2-9.2 18.6-14.1 4 5.9 6.7 12 7.9 18.1-44.4 38-124.8 61-217 61-91.7 0-171.56-22.8-216.16-60.4 1.1-6.2 3.6-12.3 7.6-18.4 5.3 4.8 11.4 9.4 18.2 13.8 18.3-10.6 40.06-19.4 64.26-26.3l.6-10.2c-21.8-6.2-41.56-14-58.86-23.2-13.55 8.3-28.66 19.9-37.3 31.6-10.63 13.1-13.71 26.6-13.75 39.6 1.46 27.5 16.35 46.4 37.05 62.3 22.6 16.9 53.66 30.3 90.16 39.1l.1-.3c25.4 6.3 53.7 10.5 83.6 11.9 43 .1 92.8-1.6 130.9-12 32.7-9.2 67.6-21 92.1-38.7 23-16.9 37.9-38.3 37.9-62.3s-15-45.5-38.2-62.5c-4.3-3.1-8.9-6.1-13.7-9zm-291.5 28.3c-1.1 16.5-1.4 33.1-1.5 48.7h44.3l1.8 25.2c19.9 2.7 40.8 4.2 62.4 4.2 18.5 0 36.4-1.1 53.6-3.1.6-8.8 1.2-17.5 1.8-26.3H353c0-15-.1-31.1-.7-47.1-29.8 6.1-62.5 9.4-96.8 9.4-8.1 0-16.6.4-25.4 0-28.9-1.4-56.4-5.2-81.6-11zm52 172.6l2.7 35.1h97.1l2.3-35c-35.4 2.9-68.3 3.4-102.1-.1z"></path></svg>