<svg stroke="currentColor" fill="currentColor" stroke-width="0" viewBox="0 0 512 512" height="1em" width="1em" xmlns="http://www.w3.org/2000/svg"><path d="M262 96.795c-60 0-115.84 16.07-162.48 43.67l7.37 91.17 14.2 3.62c8.8-73.35 65.57-130.12 134.08-130.11 70.35 0 128.32 59.86 134.68 136.06l10.15-2.59 8.64-106.89c-43.23-22.22-93.28-34.93-146.64-34.93zm182 56.3l-6.13 75.85 42.73-10.9s-33.62 50.7-47.33 67.8L416.467 494H494V198.287a278.49 278.49 0 0 0-50-45.19zm-379.62 11.76A275.38 275.38 0 0 0 18 212.925V494h72.982L73.08 272.426c-10.5-13.69-17.82-24.71-18.23-25.31l-22.92-34.59 37.07 9.45zm289.48 15.14l5.95 36.85-45.34-34.09 3.1 50.57-44.33-42.07-18.67 47.95-23-46.95-35.47 37.18-7.1-47.18-32.9 38.61-6.82-27.52a146.56 146.56 0 0 0-13.43 61.73c.007 3.733.143 7.426.41 11.08-4.51-7.39-8.18-12.65-8.18-12.65l-59.95-15.29s49.92 75.36 75.59 75.36c1.306.01 2.602-.21 3.83-.65 11.98 27.99 32.37 50.62 57.46 63.73 9.07-36.31 28.51-88.87 34-103.46-2.4-2.87-6.08-4.86-10.51-6.16-8.16-2.4-18.91-2.44-29-1.23-9.92 1.19-19.21 3.57-24.77 6.09l-6.61-14.57c18.2-8.26 72.67-17.12 88.52 14.59-12.02 21.91-39.79 124.66-40.28 129.91-.72 7.73.73 13.13 4.58 17 6.87 6.91 22.09 9.55 44 7.62 23.31-2.05 32.18-7.39 36.24-10.71 9.6-7.86 1.97-28.56-.8-36.69-2.26-6.63-5.03-14.12-7.53-20.84v-.08l-1-2.76c-18.86-50.56-26.54-75.59-15.44-86.28l.06-.06c7.02-6.68 31.78-28.17 55.53-23.82 11.9 2.22 21.22 10.18 27.72 23.76l-16.51 3.07c-3.84-6.36-8.47-10-14.08-11-8.57-1.57-19.13 2.91-28.51 9.17a99.32 99.32 0 0 0-12.87 10.28c-.35.93-1.7 6.02 3.65 24.75 3.89 13.63 10.04 30.09 15.46 44.63 3.06 8.22 5.69 15.31 7.82 21.42 19.89-12.92 36.17-32.14 46.69-55.14 1.806 2.085 5.055 3.073 7.42 3.06 25.67 0 75.58-75.4 75.58-75.4l-59.96 15.28s-5.75 8.22-11.68 18.55a150.51 150.51 0 0 0 1.69-22.51 145 145 0 0 0-20.56-75.13zm-151.67 96.35c9.58 0 17.35 8 17.35 8s-7.77 8-17.35 8c-9.58 0-17.35-8-17.35-8s7.77-8 17.35-8zm115.76 0c9.58 0 17.35 8 17.35 8s-7.77 8-17.35 8c-9.58 0-17.35-8-17.35-8s7.77-8 17.35-8zm-204.24 40.18L128.114 494H379.31l13.59-167.564c-8.47 5.71-16.13 8.52-23.36 8.71a143.18 143.18 0 0 1-49.95 51.838c1.11 4.44 1.35 13.33 1.35 14.83-.07 18.13-4.34 36.21-54.52 40.63-5.173.455-10.033.68-14.58.68-19.67 0-33.54-4.28-42.17-13-7.25-7.29-10.33-17.3-9.17-29.77.21-2.27.57-4.81 1-7.55-27.09-13-49.61-35.59-64.09-63.86-7.28-1.49-15.06-5.54-23.7-12.42z"></path></svg>