<svg stroke="currentColor" fill="currentColor" stroke-width="0" viewBox="0 0 512 512" height="1em" width="1em" xmlns="http://www.w3.org/2000/svg"><path d="M70.13 29.67C131.9 47.24 183 70.38 225.3 97.21l-9.1-37.18c-46.3-17.67-95.7-28.01-146.07-30.36zm344.27 1.01c-53.1 1.92-102.8 12.81-147.9 32.28 10 5.02 19.8 10.39 29.4 16.11 33.4-18.79 72.6-35.19 118.5-48.39zM236.7 68.4l10.6 43.7c5.6 4 11.1 8.2 16.5 12.4l-9.5-47.96c-5.8-2.83-11.7-5.55-17.6-8.14zm38 18.76l11 55.94c4.5 4.1 8.9 8.2 13.1 12.4l-1.7-55.1c-7.4-4.6-14.8-9.03-22.4-13.24zm-76.5 14.44c-11.2 8-21.9 16.7-32.2 26-11.8 10.7-23 22.2-33.6 34.6 19.9 2 36.7 1.9 57.5 2.6 12.4-14.5 26.3-28.5 42.1-41.8-10.6-7.4-21.9-14.5-33.8-21.4zm117.3 11.1l1.7 53.4c20.4.8 40.9-.1 59.8-.7-18.9-19.5-39.5-37.1-61.5-52.7zM76.65 176.5l-3.12 21.3 84.57.6c0-5.7-.1-11.4-.2-17-26.8-1.3-53.9-2.9-81.25-4.9zm368.15 4.1c-32 1.7-64.2 2.9-96.7 3.5-.5 5.2-.9 10.4-1.3 15.5l99.1.7zm-269 1.3c1.7 92.6-.9 186.9-5.1 281.8 2.9-1.1 5.2-2 8.8-3.1 12.8-3.7 29.3-7 45.2-4.3h.1c21 3.7 37.4 15.3 53 18.1 8.9 1.7 22.5.8 32.3-2.5 4.9-1.7 8.8-4 10.9-6.1 2.1-2 2.6-3.3 2.4-5.5v-.5c-2.8-94-1-183.1 6.7-276.7-55.9 4.7-94.4 6.2-154.3-1.2zm-82.19 34C52.82 283 26.25 368 18.37 470.1c1.43 3.3 4.2 6 8.85 8.2 5.24 2.4 12.5 3.8 19.94 3.6 14.52-.3 28.29-6.8 32.22-14.3 14.01-66.4 22.02-161.2 72.52-248.8.5-.8 1-1.7 1.5-2.5zm256.49 1.8c57.9 86.9 71.8 181.6 76.6 251 1.9 3.3 5.8 6.6 11.7 9.1 6.4 2.8 14.9 4.4 23.1 4.5 8.3.1 16.4-1.4 22.3-4 5.4-2.4 8.4-5.3 9.8-8.6.9-98.6-27-183.4-73.7-251.5zm-68.7 46.4c2.5 2.1.2 34.7 1.5 36.6 2.3 3.3 16.3-23.2 17.3-18.9 8 33.6-18.7 93-18.7 93l-58.8 4.8-8.5-24.7s-17.1-12.5-19.6-22c-2.2-8.4-3.2-23.8 5.3-25.4 7.7-1.5 21.5 25.2 27 20.1 0 0-3.5-33.5 2.1-48.8 2-5.6 3.4-20.1 10.9-14.3 4.6 3.6 17.2 74.4 19.9 1.8 2.8-10.8 15.9-6.7 21.6-2.2z"></path></svg>