<svg stroke="currentColor" fill="currentColor" stroke-width="0" viewBox="0 0 512 512" height="1em" width="1em" xmlns="http://www.w3.org/2000/svg"><path d="M176.53 19.47c-.53-.004-1.058.014-1.593.03-.57.017-1.145.055-1.718.094-15.293 1.038-31.656 9.986-45.282 31.75-27.477 43.885-28.525 97.68-5.844 136.28 15.093 25.69 40.417 45.188 76.875 51.157.894-6.55 2.752-12.81 5.468-18.593-11.405-12.327-18.01-26.242-20.25-41.062-4.746-31.38 8.784-64.32 29.03-95.03 8.494-12.884 9.45-24.52 6.345-34.657-3.106-10.14-10.73-18.925-20.813-24.25-6.647-3.51-14.247-5.674-22.22-5.72zm198.064 29.75c-37.07.05-71.842 14.557-94.53 39.31-21.288 23.225-32.635 55.356-25.377 94.876 2.737-.356 5.514-.562 8.344-.562 2.248 0 4.468.118 6.658.344 8.678-17.88 21.282-30.383 36.687-37.782 28.608-13.74 64.078-10.445 99.375-.094 14.806 4.343 26.218 1.85 35-4.093 8.782-5.944 14.928-15.83 17.063-27.032 4.268-22.407-6.07-49.4-45.75-60.032-12.503-3.35-25.113-4.954-37.47-4.937zM261.688 77.812c-8.663 0-17.195.693-25.5 1.968-1.764 4.902-4.185 9.803-7.344 14.595-18.915 28.69-29.82 57.914-26.188 81.938 1.497 9.9 5.29 19.32 12.28 28.062 6.062-6.743 13.527-12.2 21.908-15.938-8.33-44.56 3.543-83.07 27.72-110.593-.962-.017-1.912-.03-2.877-.03zm89.25 77.312c-1.02-.006-2.027.01-3.032.03-12.502.25-23.856 2.493-33.437 7.095-10.745 5.16-19.894 13.197-26.658 25.563 7.123 2.976 13.615 7.19 19.188 12.375 23.372-13.382 47.298-19.12 70.094-18.407 13.43.422 26.462 3.095 38.75 7.72 1.19.448 2.356.924 3.53 1.406-3.043-9.002-6.843-17.637-11.312-25.875-2.49-.445-5.016-1.033-7.562-1.78-17.39-5.1-34.276-8.04-49.563-8.125zm-247.5 37.438c-3.102 9.498-5.397 19.366-6.75 29.53 3.844 2.94 7.526 6.417 10.937 10.47 22.13 26.29 47.062 45.03 71.125 48.375 8.972 1.246 18.1.6 27.438-2.657-3.463-6.362-5.905-13.37-7.063-20.78-43.162-6.468-74.965-29.445-93.156-60.406-.88-1.496-1.716-3.003-2.532-4.53zm266.968 7.562c-.9.016-1.813.053-2.72.094-15.917.71-32.434 5.25-48.998 14.436 3.44 5.8 5.974 12.198 7.468 18.97 15.995 2.598 29.416 9.17 40.156 19 23.413 21.425 33.575 55.573 37.125 92.186 1.49 15.36 8.058 25.004 16.844 30.938 8.788 5.934 20.25 7.946 31.44 5.75 22.38-4.39 43.58-24.057 38.655-64.844-6.206-51.403-39.195-93.918-81.094-109.687-12.274-4.62-25.35-7.09-38.874-6.845zM263.03 201.53c-25.51 0-46 20.49-46 46 0 25.513 20.49 46 46 46 25.513 0 45.97-20.487 45.97-46 0-25.51-20.457-46-45.97-46zM61.907 228.657c-10.602.097-21.184 4.94-29.156 13.094-15.944 16.31-22.248 44.514 4.938 75.313 34.262 38.815 85.546 55.12 129 44.343 27.786-6.89 52.807-24.442 69-55.312-6.75-3.17-12.853-7.468-18.094-12.656-13.844 6.054-27.785 7.923-41.406 6.03-31.435-4.367-59.187-26.733-82.875-54.874-9.937-11.804-20.805-16.034-31.407-15.938zM327.47 252.47c-.617 8.075-2.705 15.76-6.033 22.75 31.313 28.636 44.904 64.466 43.344 99.624 0 .03.003.062 0 .094 7.697-6.08 14.836-12.832 21.345-20.157-.567-2.634-1.007-5.363-1.28-8.186-3.318-34.205-13.235-63.786-31.158-80.188-7.17-6.563-15.722-11.45-26.218-13.937zm-16.408 38.25c-4.6 5.115-9.998 9.49-16 12.936 2.4 15.863.274 30.532-5.687 43.688-13.1 28.91-42.393 49.194-76.094 63.937-14.135 6.186-21.242 15.4-24.155 25.595-2.913 10.196-1.31 21.73 4.25 31.688 11.12 19.912 36.415 33.97 73.656 16.625 46.935-21.86 77.08-66.428 79.064-111.157 1.294-29.18-8.88-58.737-35.03-83.31zM277.47 310.56c-4.65 1.07-9.474 1.657-14.44 1.657-3.22 0-6.37-.26-9.467-.72-18.668 37.097-48.75 59.723-82.375 68.063-1.625.402-3.27.786-4.907 1.125 9.872 6.914 20.533 12.77 31.814 17.437 2.43-1.435 4.99-2.775 7.72-3.97 31.48-13.772 56.533-32.368 66.56-54.5 3.994-8.81 5.965-18.406 5.095-29.092z"></path></svg>