<svg stroke="currentColor" fill="currentColor" stroke-width="0" viewBox="0 0 512 512" height="1em" width="1em" xmlns="http://www.w3.org/2000/svg"><path d="M282.37 21.555c-1.762-.008-3.533.007-5.31.047-3.667.08-7.36.264-11.08.55-18.858 1.45-37.26 5.533-54.898 11.885-54.66 67.918-80.388 132.33-79.066 180.568.69 25.228 8.427 45.907 22.976 61.74 7.332 7.977 16.494 14.794 27.613 20.21-1.78-9.08-.69-19.25 2.836-29.647l-.108-.025c25.252-108.562 122.284-181.75 230.58-183.225 1.254-.017 2.51-.023 3.766-.02.273 0 .547.005.82.007-34.49-38.608-83.02-61.844-138.127-62.09zM175.05 50.74C99.45 94.016 44.84 180.466 42.08 276.162c-1.207 41.822 7.45 80.15 23.65 112.672 78.863 13.76 157.48-15.204 207.262-73.354-25.08 13.465-50.604 16.217-68.297 8.5-26.73-6.38-48.135-18.304-63.466-34.988-17.86-19.434-27.11-45.028-27.9-73.875-1.305-47.66 19.564-104.547 61.72-164.377zm245.518 51.576c-81.19-.563-155.767 42.457-194.683 111.334 1.914-1.463 3.866-2.898 5.883-4.28 13.737-9.405 27.99-15.545 41.365-18.433 20.342-5.848 40.66-8.946 60.55-9.494 1.972-.054 3.94-.083 5.903-.088 49.997-.113 97.022 15.872 134.664 44.534-1.323-47.18-15.347-89.358-38.578-122.966-5.055-.37-10.092-.573-15.104-.608zm-82.29 97.69c-3.768.036-7.557.17-11.362.408 24.172 9.177 42.968 22.816 55.824 40.174 15.71 21.21 22.21 47.637 19.95 76.406-3.78 48.205-31.236 103.44-80.766 159.283 83.062-37.717 145.69-126.44 151.916-226.564-36.24-32.056-84.02-50.197-135.563-49.707zm-3.78 24.187c1.078 9.684-.778 20.424-5.187 31.268-38.175 104.62-143.644 165.912-251.878 153.89 37.156 57.2 100.178 91.195 172.93 85.597 11.23-.864 22.297-2.66 33.138-5.31 63.4-62.745 96.723-125.248 100.557-174.106 1.974-25.16-3.54-46.538-16.338-63.817-7.995-10.793-18.966-20.115-33.222-27.52zm-76.21 1.616c-18.23 0-32.81 14.576-32.81 32.805 0 18.232 14.58 32.81 32.81 32.81 18.228 0 32.808-14.578 32.808-32.81 0-18.23-14.58-32.806-32.81-32.806z"></path></svg>