<svg stroke="currentColor" fill="currentColor" stroke-width="0" viewBox="0 0 512 512" height="1em" width="1em" xmlns="http://www.w3.org/2000/svg"><path d="M473.156 14.97l-18.062 4.842c11.34 42.354 14.96 84.95 11.687 126.282l1.876 5.406c4.394 12.465 8.1 25.566 10.875 38.844 10.88-56.44 9.483-116.156-6.374-175.375zM400.22 29.093l-18.064 4.843c10.017 37.386 12.704 74.996 8.97 111.313h18.75c3.702-37.944.785-77.182-9.657-116.156zm-71.376 11.812l-18.03 4.813c8.982 33.532 10.525 67.293 5.655 99.53h18.81c4.774-33.88 2.968-69.237-6.436-104.344zm-58.594 8.657l-18.063 4.843c27.292 101.963-33 206.532-134.812 233.844l4.844 18.03C233.8 276.35 300.15 161.273 270.25 49.564zM217 56.624l-18.063 4.844c20.678 77.25-24.96 156.4-102.093 177.093l4.844 18.062c86.9-23.314 138.598-113.003 115.312-200zm-169.094 6c-16.44 0-29.562 13.126-29.562 29.563 0 16.435 13.126 29.562 29.562 29.562S77.47 108.624 77.47 92.187c0-16.437-13.124-29.562-29.564-29.562zm116.875 7.063l-18.06 4.843c13.107 49.004-15.794 99.125-64.72 112.25l4.844 18.064c58.693-15.747 93.652-76.408 77.937-135.156zm-45.905 5.937l-18.063 4.813c7.452 27.826-8.885 56.174-36.656 63.624L69 162.125c37.537-10.07 59.936-48.928 49.875-86.5zm190.188 88.313c-7.934 24.493-12.72 51.205-12.72 75.812 0 57.394 23.366 84.448 55.876 94.563l4.092 1.25 1.72 3.906c17.165 39.266 15.82 82.72-3.344 121.436l-1.5 3.063-3.125 1.342c-13.44 5.934-24.513 15.596-31.282 29.438h125.064c-6.94-14.213-18.402-24.17-31.875-30.03l-3.158-1.376-1.5-3.094c-18.87-38.603-19.788-81.76-2.687-120.78l1.72-3.94 4.092-1.25c32.68-9.964 55.844-36.78 55.844-94.53 0-24.483-5.263-51.218-13.31-75.813h-38.25l-22.47 39.094 35.125 22.782-56.938 74.032 22.75-66.438-32.25-18.97 17.594-50.5h-69.467zm-31.313 80.875c-31.69 47.205-79.966 83.58-139.25 99.468l4.844 18.064c56.374-15.11 103.527-47.548 137.28-90.03-1.65-8.516-2.62-17.677-2.874-27.502zm29.125 82.25c-37.602 39.21-86.06 68.962-142.406 84.062l4.843 18.063c59.998-16.08 111.596-47.908 151.562-89.844-5.01-3.55-9.698-7.632-14-12.28zm44.094 60.968c-43.567 41.235-97.727 72.527-159.75 89.158l4.843 18.03C254.767 479.48 306.798 451.2 350 414c1.265-8.633 1.584-17.313.97-25.97z"></path></svg>