<svg stroke="currentColor" fill="currentColor" stroke-width="0" viewBox="0 0 512 512" height="1em" width="1em" xmlns="http://www.w3.org/2000/svg"><path d="M256 29c-8 0-15.6 4.345-21.73 12.719C228.139 50.092 224 62.317 224 76s4.139 25.908 10.27 34.281C240.4 118.655 248 123 256 123s15.6-4.345 21.73-12.719C283.861 101.908 288 89.683 288 76s-4.139-25.908-10.27-34.281C271.6 33.345 264 29 256 29zm-95.193 17.709c5.36 11.73 10.839 23.721 17.06 34.92 9.615 17.307 20.842 31.662 34.158 38.32l11.79 5.895a56.89 56.89 0 0 1-4.069-4.93C211.038 109.02 206 93.244 206 76c0-5.837.59-11.5 1.691-16.906-14.322-2.912-29.655-7.03-46.884-12.385zm190.386 0c-17.229 5.355-32.562 9.473-46.884 12.385A84.694 84.694 0 0 1 306 76c0 17.245-5.038 33.02-13.746 44.914a56.89 56.89 0 0 1-4.068 4.93l11.789-5.895c13.316-6.658 24.543-21.013 34.158-38.32 6.221-11.199 11.7-23.19 17.06-34.92zm-124.523 82.02l-14.645 7.322c-17.61 8.805-37.942 12.78-52.865 18.377-7.461 2.798-13.401 5.966-16.96 9.347-3.56 3.382-5.2 6.475-5.2 12.225 0 37.6 15.54 83.15 29.61 129.379 14.069 46.228 26.816 93.388 18.216 136.387l-.238 1.181-.537 1.078c-8.94 17.879-22.705 29.286-37.586 37.79-3.661 2.091-7.398 4.026-11.178 5.878 23.968-.33 48.317-4.023 66.35-22.056L208 459.27l6.363 6.366c8 8 15.805 15.74 23.037 21.164 3.413 2.56 6.625 4.506 9.6 5.873V244c0-1-1.397-6.713-4.414-13.21-3.017-6.498-7.362-14.25-12.219-22.02-9.714-15.543-21.79-31.467-28.73-38.407l-8.83-8.828 11.168-5.586c14.926-7.463 21.56-14.477 24.537-18.941 1.488-2.232 2.083-3.851 2.334-4.73.011-.041.006-.01.015-.044a51.013 51.013 0 0 1-4.191-3.506zm58.66 0a51.013 51.013 0 0 1-4.191 3.505c.01.035.004.003.015.043.251.88.846 2.499 2.334 4.73 2.976 4.465 9.61 11.479 24.537 18.942l11.168 5.586-8.83 8.828c-6.94 6.94-19.016 22.864-28.73 38.407-4.857 7.77-9.204 15.522-12.22 22.02C266.394 237.286 265 243 265 244v248.674c2.975-1.367 6.187-3.313 9.6-5.873 7.232-5.424 15.037-13.164 23.037-21.164L304 459.27l6.363 6.366c18.033 18.033 42.382 21.726 66.35 22.056-3.78-1.852-7.517-3.787-11.178-5.879-14.881-8.503-28.647-19.91-37.586-37.789l-.537-1.078-.238-1.181c-8.6-42.999 4.147-90.159 18.217-136.387C359.46 259.15 375 213.6 375 176c0-5.75-1.64-8.843-5.2-12.225-3.559-3.381-9.499-6.55-16.96-9.347-14.923-5.596-35.255-9.572-52.865-18.377zM246.736 141a37.331 37.331 0 0 1-3.248 5.992c-3.909 5.864-10.58 12.602-21.33 19.326 7.528 9.042 15.934 20.847 23.475 32.912.47.752.911 1.496 1.367 2.245V141zM265 141v60.475c.456-.749.898-1.493 1.367-2.245 7.541-12.065 15.947-23.87 23.475-32.912-10.75-6.724-17.421-13.462-21.33-19.326a37.331 37.331 0 0 1-3.248-5.992z"></path></svg>