<svg stroke="currentColor" fill="currentColor" stroke-width="0" viewBox="0 0 512 512" height="1em" width="1em" xmlns="http://www.w3.org/2000/svg"><path d="M243.563 38c-4.573.03-9.013.158-13.282.406-60.02 3.488-90.837 25.7-102 47.75-10.96 21.652-4.584 43.744 14.22 55.688 24.607 4.865 43.247 13.396 56.594 23.75 16.655-11.283 36.73-17.906 58.312-17.906.345 0 .688-.004 1.03 0 .128-25.1-7.24-49.852-26.342-68.25L245.064 66c23.964 23.083 32.516 53.65 32 83.563 21.826 4.184 41.28 15.19 55.998 30.718 21.47-4.24 48.327-5.663 81.282-2.936 22.53-6.344 32.215-16.125 35-26.53 2.842-10.62-1.267-24.84-13.47-40.158-24.402-30.633-79.4-62.203-147.03-69.937-16.484-1.893-31.565-2.806-45.28-2.72zm-109.72 120.594l.407.812c10.11 21.25 20.207 36.504 29.375 47.03 5.208-10.688 12.19-20.353 20.563-28.624-10.848-7.5-26.203-14.147-47.25-18.062l-1.657-.313-1.436-.843zm-39.53 1.625c-3.047-.018-6.205.288-9.438.936-13.425 2.69-27.935 11.42-39.563 26.53-23.255 30.226-35.36 86.202-3.093 167.94 24.787 62.864 73.113 102.805 113.06 114.218 19.975 5.706 37.26 4.27 49-3.156 11.436-7.233 19.148-20.417 19.564-43.375-15.82-34.955-24.59-63.755-28-87.282-14.43-10.597-26.05-24.795-33.5-41.28-31.368 11.772-55.317 29.418-64.5 51.594l-17.25-7.156c12.153-29.345 40.484-49.57 75.562-62.375-1.96-7.976-3-16.305-3-24.875 0-8.893 1.114-17.536 3.22-25.782-12.575-12.194-25.396-30.61-38.095-56.906-6.636-5.958-14.828-8.98-23.968-9.03zm163.093 6.155c-22.844 0-43.522 8.897-58.844 23.406 26.816 11.658 47.624 28.7 60.72 48.44 8.45-12.424 20.873-20.97 35-24.97 7.01-1.984 14.44-2.917 22.062-2.813 5.557.077 11.23.71 16.937 1.875-14.258-27.334-42.82-45.937-75.874-45.937zm123.406 28.28c-1.155.007-2.306.013-3.437.032-11.63.2-22.046 1.06-31.344 2.407 6.53 10.51 11.235 22.264 13.69 34.812 14.055-8.13 29.655-19.696 46.405-35.562l.78-.72c-7.885-.532-15.48-.893-22.592-.968-1.186-.012-2.345-.006-3.5 0zM185.97 204.782c-8.912 13.508-14.126 29.707-14.126 47.157 0 39.034 25.913 71.838 61.53 82.188 22.612-20.06 27.404-43.996 19.282-67.625-8.272-24.066-31.302-47.78-66.687-61.72zm249.343 1.72c-6.065.072-12.04 1.567-17.563 4.5-20.052 18.817-38.875 32.21-56.094 41.188-.043 18.268-4.823 35.438-13.156 50.375 19.783 16.692 36.69 37.34 43.906 63.28l-18 5c-5.632-20.25-19.64-37.64-36.75-52.437-12.015 14.49-27.856 25.672-45.97 32-3.397 20.358-12 43.13-27.467 67.625-5.88 22.9-2.46 38.35 5.53 48.376 8.12 10.188 22.107 15.962 40.72 15.813 37.223-.3 90.415-25.737 130.78-80.25 52.39-70.696 55.61-125.823 41.656-158.72-10.362-24.434-29.4-36.965-47.594-36.75zm-121.438 22.625c-5.135.1-10.004.82-14.5 2.094-13.703 3.878-24.05 12.528-29.5 26.874l-.438-.156c.308.817.624 1.646.907 2.468 8.87 25.802 4.486 54.115-14.406 77.094.488.008.978.03 1.468.03 47.37 0 85.563-38.21 85.563-85.592 0-6.2-.665-12.243-1.908-18.063-8.617-3.077-17.07-4.633-24.968-4.75-.744-.01-1.485-.014-2.22 0zm-96.594 119.03c4.124 18.422 11.452 40.516 23.126 66.47 1.747.238 3.486.443 5.25.625.248-1.032.502-2.08.78-3.125l.376-1.406.782-1.22c12.833-20 20.368-38.19 24.125-54.28-4.685.646-9.456 1-14.314 1-14.213 0-27.765-2.885-40.125-8.064z"></path></svg>