<svg stroke="currentColor" fill="currentColor" stroke-width="0" viewBox="0 0 512 512" height="1em" width="1em" xmlns="http://www.w3.org/2000/svg"><path d="M224 16c9.31 18.785 17.753 36.16 18.432 55.023-17.87-28.13-36.732-40.03-55.45-39.83-75.257.8-148.13 196.844-144.375 316.977-.807.27-1.604.627-2.388 1.096-6.073 3.63-2.683 14.002-5.454 20.51-3.34 7.847-12.15 13.42-13.27 21.874-.638 4.813-.54 10.275.604 15.35h170.205c-3.752-14.69-16.34-30.192-27.96-38.275-4.04-2.81-10.637 2.004-14.747-.704-8.482-5.586-3.99-23.436-13.346-27.39-6.09-2.573-12.2-1.383-18.375 1.337-5.05-123.26 30.544-300.777 110.29-265.57-26.42 6.366-38.066 15.83-44.36 51.603C192 112 198.89 99.364 224 103.225l70.207-.102s36.39 41.937 41.793 51.42c5.7 10-16.088-70.203-35.4-80.29 67.713 2.167 97.32 184.88 92.64 299.102-6.174-2.72-24.083-33.364-30.174-30.79-9.355 3.952-14.435 9.435-17.205 15.976-1.918 4.533-.837 22.65-4.878 25.46-10.016 6.968-18.6 14.533-21.918 23h172.534c-1.792-9.308-8.48-27.793-11.598-35.115-2.772-6.51 31.833-42.637 0-24.8-.797.446-9.8 1.354-10.607 1.085 3.756-120.133-69.118-316.177-144.375-316.977-19.003-.202-38.155 12.056-56.264 41.118 2.08-11.74 12.37-29.412 27.695-46.828-24.735 6.185-34.4 3.85-40.45 28.95-9.23-14.43-14.098-32.17-32-38.432zm6.486 105l-12.77 38.31L229.563 183h52.875l11.846-23.69-12.77-38.31h-51.027zm-69.67 80l20 30h150.368l20-30H160.816zm69.278 48l-28.803 72.004L215.624 407h80.752l14.334-85.996L281.905 249h-51.812zm-85.408 58.854c-.462-.02-.933.02-1.41.12-9.907 2.074-11.824 24.963-3.16 30.198 5.056 3.056 13.384-4.083 14.747-9.832 1.69-7.126-3.253-20.2-10.177-20.486zm235.43 11.05c-6.925.287-6.22 6.283-4.532 13.41 1.363 5.748 3.36 15.12 8.416 12.065 6.282-4.456 7.55-21.835-3.885-25.476zm-356.022 6.262c-18.387.412 2.35 38.416 7.906 35.984-6.418-22.52 12.297-34.22-7.002-35.976a14.282 14.282 0 0 0-.904-.008zm144.142 14.375a3.42 3.42 0 0 0-.73.038c-1.732 7.747-12.483 11.202-9.13 15.803 3.74 4.41 14.555-.765 16.153-6.32 1.02-3.545-2.633-9.32-6.294-9.52zM336 342.7c-3.66.2-3.898 8.917-2.88 12.46 1.6 5.557 5.835 9.134 9.575 4.725 2.026-3.16-5.553-8.373-6.695-17.184zM25 425v14h462v-14H25zm23.816 32l20 30h374.368l20-30H48.816z"></path></svg>