<svg stroke="currentColor" fill="currentColor" stroke-width="0" viewBox="0 0 512 512" height="1em" width="1em" xmlns="http://www.w3.org/2000/svg"><path d="M432.3 28.66c-13.4 0-26.6 6.43-40.5 19.98-4 3.94-7.8 8.06-11.6 12.12 3.7 5.59 6.1 12.64 7.7 18.46 5.6-6.15 11.1-12.41 16.5-17.76 10.1-9.98 19.1-15.59 26.9-14.66 16.1 1.9 23.7 6.55 29.6 12.81 5.9 6.26 10.1 15.12 16.4 25.18l15.2-9.58c-5.5-8.82-10-18.95-18.5-28.01-14.6-12.13-28.3-18.55-41.7-18.54zM113.7 45.63c-53.35.23-77.7 17.56-95.66 35.88l12.86 12.6c17.42-17.77 35.03-31.75 90-30.32l34.5 32.52h15c-.2-8.94-7.8-17.4-12.6-22.5-14.9-16.14-24.1-28.22-44.1-28.18zm146.7 9.79c-10.1 0-20.2.21-29.6.57 3.8 8.38 5.6 17.38 6.6 24.88 1 11.64-15.6 12.34-17.8 2.42-1.2-8.61-4.6-19.79-8.9-26.23-15.2 1-28.9 2.35-40.3 3.73 7.3 8.95 18 21.8 18 31.02.5 89.69-2.8 180.09-9.7 270.89 1.6-1.7 3.2-3.4 4.9-4.9 8.4-7.6 18.4-13.7 30-13h.1c2.6.2 5.1.7 7.5 1.4.2-16.6.6-30.9.1-44.4 5.3 5.6 10.7 10 18-.6.7 17.6-.1 35.5-.3 56.9 1.1 1.1 2 2.2 3 3.3 7.4 8.6 13.4 19.2 18.4 29.6 1.8 3.8 3.4 7.5 4.9 11.1 1.3-56.5.5-112.9-2.2-169.4 8.6 11.3 13.3 7 18-.8 2.7 56.6 3.5 113.3 2.2 169.9 11.4-11.3 25.1-22.9 41.6-22.6 4.1.1 7.8 1 11.2 2.5l.1-23.9c7.9 8.9 13.4 6.9 18 0L354 396c3.5 3.6 6.9 7.9 9.8 11.7 3.9-2 8.9-4.4 14.9-7l-5.7-73.9c6 5.5 12 10 18-1.4l5.3 68.5c6.6-2.3 13.5-4.2 20.4-5-11.2-93.4-25.2-192-44.3-296.39h.1c-1.4-7.39-3.3-14.6-5.9-19.56-2.5-4.95-5-7.23-8.7-8.07-18.2-4.12-37.7-6.65-57.3-8.04 8.6 17.14 8.4 34.97 8.6 49.66 1.1 10.8-17.2 17-18 .2-.3-18.71.2-35.46-12.7-50.98-6-.2-12-.29-18.1-.3zm90.8 31.52C362.6 130.7 371.8 206.4 378.3 251c-.9 17.6-14.2 13.4-17.8 2.6-6.5-45-16.1-121.1-26.7-162.09 9.9 7.7 16 6.9 17.4-4.57zM224 107c3.5 55 2.4 109.1-.7 162.5.2 11-15.3 14.1-18-1 3.1-53 4.2-106.3.7-160.3 8.9 13.3 14.2 9.3 18-1.2zm51.5 22.5c3.2 27.5 4.3 42.9 3.9 59.9-6.4 9.5-12.3 7.9-18-.4.4-16-.7-30.2-3.7-57.5 7 8.6 12.8 6.6 17.8-2zm52.3 27.2c3.4 50.7 4.3 90 5.6 154.8-5 5.4-9.8 11.7-18 .4-1.3-64.8-2.2-103.7-5.6-154 7.5 9.3 13.1 6 18-1.2zm-246 180.8c-10.73-.3-16.16 18.9-13.38 29.3 3.68 13.8 34.78 24.8 34.78 24.8s-2-53.6-21.4-54.1zm47.4-.4c-.8.6-1.3 1.4-1.7 2.3-4.2 9.9 22.6 23.1 22.6 23.1s5.9-17.4.6-22.8c-4.7-4.8-16.6-7-21.5-2.6zm319.5-3.8c-.5 0-.9 0-1.3.1-11.7 2.2-13.9 23.8-8.3 34.9 0 0 18.8-9.1 19.8-18 .8-6.3-4-16.8-10.2-17zm29.8 20.5c-20.3 1.1-16.8 58.6-16.8 58.6s27.7-10.5 31.2-22.9c3.5-12.3-1.6-36.4-14.4-35.7zm-282.8 17.3c-6.5 5.9-13 14.6-18.7 23.5-11.2 17.8-18.8 36-18.8 36l-3.6 8.7c-22-11.1-36.9-16.8-57.82-17.6-13.41-.5-24.76 11.5-27.43 22.4-1.41 6.4 0 14.3 9.09 25.6 120.56 14.8 310.86 21.1 411.06.4 3.5-16.4-2.3-27.7-13-37.9-11.7-11.3-29.8-19.6-45-24.5-7.3-2.4-24.9 1.2-39.4 6.9-14.6 5.8-26.4 12.5-26.4 12.5l-7.4 4.2-4.6-7s-4.8-7.3-11.3-14.4c-6.6-7.1-15.5-12.7-17.7-12.7-6.6-.1-20.7 9.2-31.5 20.3-10.7 11-18.6 22.2-18.6 22.2l-11 15.5-5.1-18.3s-5.3-19.1-14.4-38.1c-4.5-9.6-10-19-15.7-25.7-12.7-13.4-20.3-13-32.7-2zM35.58 384c-4.27-.1-7.98 1.2-9.85 4.5-8.27 14.4 30.78 39.3 30.78 39.3s6.88-26.5-.99-35.3c-4.19-4.6-12.83-8.4-19.94-8.5z"></path></svg>