<svg stroke="currentColor" fill="currentColor" stroke-width="0" viewBox="0 0 512 512" height="1em" width="1em" xmlns="http://www.w3.org/2000/svg"><path d="M161.188 22L102.25 41.656 230.063 169.47l.843-.845 2.406-2.406L161.188 22zm246.906 18L280.28 167.813l.814.812 2.406 2.406 144.25-72.124L408.094 40zM256 40.938l-53.97 26.968 45.657 91.344c2.727-.648 5.52-.97 8.313-.97 3.306 0 6.614.467 9.813 1.376l75.875-75.875L256 40.938zm-88 89.093V184h53.906c.006-.02-.005-.043 0-.063L168 130.03zm176 28.657L293.375 184H344v-25.313zm-88 15.5c-4.975 0-9.94 1.908-13.78 5.75-7.686 7.685-7.686 19.91 0 27.594 7.683 7.686 19.877 7.686 27.56 0 7.686-7.683 7.686-19.908 0-27.593-3.84-3.842-8.805-5.75-13.78-5.75zM199.312 201l-2.875 13.594 25.094-12.563c-.08-.345-.146-.682-.218-1.03h-22zm91.375 0c-.176.856-.353 1.72-.593 2.563l29.312 29.312-6.72-31.875H290.69zM228.5 216.47L84.25 288.562l19.656 58.937L231.72 219.687l-.814-.843-2.406-2.375zm53.438 1.56l-.844.814-2.375 2.406L350.81 365.5l58.938-19.656L281.937 218.03zm-35.75 9.814l-66.532 66.53L139.094 487H216v-63h80v63h76.906l-22.03-104.688-1.595.532-6.56 2.22-3.126-6.22-75.28-150.625c-5.956 1.416-12.227 1.302-18.127-.376z"></path></svg>