<svg stroke="currentColor" fill="currentColor" stroke-width="0" viewBox="0 0 512 512" height="1em" width="1em" xmlns="http://www.w3.org/2000/svg"><path d="M268.15 399.257c-33.34 0-65.19 2.53-91.8 7.2 1.4-10.11 9.38-88.76 10.63-105h42.41l2.75 80.5h67.54l3.32-80.52h41.24c1.74 16 12.61 94.53 14.48 104.8-26.38-4.53-57.72-6.98-90.57-6.98zM384 117.077l36.41-21.1c-2.14-28.91-2.255-31.91-2.14-34.4L408 88.397l-36.36 15.74-76.04-53.18 62.56 61.63-19.34 18.35c4.667.586 9.19 1.226 13.57 1.92zm-47.08 56.08c14.85 2.25 22.87 4.7 27.08 6.45-4.21 1.75-12.23 4.2-27.08 6.45-19.06 2.88-43.49 4.47-68.77 4.47-25.28 0-49.71-1.59-68.77-4.47-14.85-2.25-22.87-4.7-27.08-6.45 4.21-1.75 12.23-4.2 27.08-6.45 19.06-2.88 43.49-4.47 68.77-4.47 25.28 0 49.71 1.59 68.77 4.47zm-52.39 6.45c0-2.08-7.33-3.77-16.38-3.77-9.05 0-16.38 1.69-16.38 3.77s7.33 3.77 16.38 3.77c9.05 0 16.38-1.69 16.38-3.77zm134.22 0c0 20.38-67.43 36.9-150.6 36.9-83.17 0-150.6-16.52-150.6-36.9s67.43-36.9 150.6-36.9c83.17 0 150.6 16.53 150.6 36.9zm-35.17 0c0-10.2-11.39-16.56-38.08-21.26-20.74-3.65-48.21-5.66-77.36-5.66s-56.62 2-77.36 5.66c-26.69 4.7-38.08 11.06-38.08 21.26 0 10.2 11.39 16.56 38.08 21.26 20.74 3.65 48.21 5.66 77.36 5.66s56.62-2 77.36-5.66c26.69-4.7 38.08-11.06 38.08-21.26zm63.66 193.67l-29 2.55c.2-5.42.49-170.41.49-170.41-1.28.88-2.57 1.68-3.82 2.4-8.9 5.16-21.18 9.67-36.49 13.42-29.65 7.27-68.83 11.27-110.3 11.27s-80.64-4-110.3-11.27c-15.31-3.75-27.59-8.27-36.49-13.42-1-.59-2-1.22-3.08-1.91.59 21.38 1.44 52.83 2.18 82.91l-52.34-21.23-6.037-16.505 20.157-34.565-24.21 20.9-23-68.37L48 279.94l73.16 37.787c.67 29.53 1.07 53.32.79 57.83-.24 3.82-.43 28.21-7.61 55.34-5.216 19.007 13.61 35.754 31.88 28.36 14.5-4.53 25.9-173.82 25.9-173.82h72.75l2.73 80.52h36.72l3.29-80.53h71s16.24 165.8 33.58 173.82a11.4 11.4 0 0 0 4.83 1c12.11 0 27.64-16.29 25.34-27.9-2.388-12.466-3.77-19.103-4.13-31.79l47.15-17.51 11.62-69.88z"></path></svg>