<svg stroke="currentColor" fill="currentColor" stroke-width="0" viewBox="0 0 512 512" height="1em" width="1em" xmlns="http://www.w3.org/2000/svg"><path d="M25 57v270h78V57H25zm96 16v238h78V73h-78zm-57 7a16 16 0 0 1 16 16 16 16 0 0 1-16 16 16 16 0 0 1-16-16 16 16 0 0 1 16-16zm153 9v206h78V89h-78zm-57 7a16 16 0 0 1 16 16 16 16 0 0 1-16 16 16 16 0 0 1-16-16 16 16 0 0 1 16-16zm153 9v174h78V105h-78zm-57 7a16 16 0 0 1 16 16 16 16 0 0 1-16 16 16 16 0 0 1-16-16 16 16 0 0 1 16-16zm153 9v142h78V121h-78zm-57 7a16 16 0 0 1 16 16 16 16 0 0 1-16 16 16 16 0 0 1-16-16 16 16 0 0 1 16-16zm96 16a16 16 0 0 1 16 16 16 16 0 0 1-16 16 16 16 0 0 1-16-16 16 16 0 0 1 16-16zm0 64a16 16 0 0 1 16 16 16 16 0 0 1-16 16 16 16 0 0 1-16-16 16 16 0 0 1 16-16zm-96 16a16 16 0 0 1 16 16 16 16 0 0 1-16 16 16 16 0 0 1-16-16 16 16 0 0 1 16-16zm-96 16a16 16 0 0 1 16 16 16 16 0 0 1-16 16 16 16 0 0 1-16-16 16 16 0 0 1 16-16zm-96 16a16 16 0 0 1 16 16 16 16 0 0 1-16 16 16 16 0 0 1-16-16 16 16 0 0 1 16-16zm-96 16a16 16 0 0 1 16 16 16 16 0 0 1-16 16 16 16 0 0 1-16-16 16 16 0 0 1 16-16zm352 57c-12.81 0-23 10.19-23 23s10.19 23 23 23 23-10.19 23-23-10.19-23-23-23zm-40.977 23.967l-162.242 40.56L65.117 375.07l-2.234 17.86 101.53 12.691L29.815 439.27l4.368 17.46 179.7-44.925 193.313 24.164a40.592 40.592 0 0 1 2.246-17.857l-147.187-18.4 117.162-29.29a40.58 40.58 0 0 1-4.395-17.455zM448 409c-12.81 0-23 10.19-23 23s10.19 23 23 23 23-10.19 23-23-10.19-23-23-23z"></path></svg>