<svg viewBox="0 0 960 640" xmlns="http://www.w3.org/2000/svg"><path d="m686.025 580.018c-8.282 0-15.005 6.713-15.005 15 0 8.279 6.723 15.002 15.005 15.002s14.995-6.723 14.995-15.001c0-8.288-6.713-15.001-14.995-15.001zm0 26.783c-6.518 0-11.782-5.27-11.782-11.782s5.264-11.774 11.782-11.774c6.51 0 11.78 5.264 11.78 11.774s-5.27 11.782-11.78 11.782zm6.164-15.259a5.085 5.085 0 0 0 -5.09-5.082h-7.228v17.122h3.213v-6.954h2.306l3.246 6.954h3.553l-3.389-7.25a5.095 5.095 0 0 0 3.389-4.79zm-5.09 1.872h-4.015v-3.747h4.015c1.032 0 1.877.839 1.877 1.875a1.878 1.878 0 0 1 -1.877 1.872z" fill="#fff"/><path d="m800.005 320.007c0-176.457-143.55-320.007-320.007-320.007s-320.003 143.55-320.003 320.007 143.557 319.993 320.003 319.993 320.007-143.557 320.007-319.993z" fill="none"/><path d="m479.998 10.265c-171.061 0-309.728 138.677-309.728 309.742s138.667 309.731 309.728 309.731 309.739-138.687 309.739-309.731-138.684-309.742-309.739-309.742z" fill="#ffb81c"/><path d="m479.998 21.77c-164.696 0-298.23 133.524-298.23 298.237s133.534 298.227 298.23 298.227 298.232-133.527 298.232-298.227-133.536-298.238-298.231-298.238z" fill="#010101"/><g fill="#ffb81c"><path d="m619.74 204.049 51.28-51.278a257.46 257.46 0 0 0 -23.786-23.796l-51.61 51.624 24.115 23.45zm-122.92-137.381c-5.57-.36-11.16-.61-16.822-.61s-11.255.25-16.828.61v81.62h33.65zm-159.27 87.107-24.784-24.8a256.28 256.28 0 0 0 -23.79 23.796l48.573 48.573v-47.57zm0 284.888-48.574 48.573a257.463 257.463 0 0 0 23.79 23.79l24.783-24.79v-47.573zm21.398-135.478h-132.289c-.357 5.553-.602 11.164-.602 16.822 0 5.654.245 11.242.626 16.818h132.265zm374.382 0h-111.024l-17.287 16.822 17.3 16.818h111.008c.367-5.576.606-11.164.606-16.818 0-5.658-.239-11.269-.603-16.822zm-137.714 156.23 51.611 51.61a257.906 257.906 0 0 0 23.793-23.79l-51.287-51.277zm-132.446 113.921c5.573.353 11.167.612 16.828.612s11.252-.259 16.822-.612v-81.636h-33.65v81.635z"/><path d="m350.579 432.18v46.505h206.564l52.275-50.87v-85.359l-23.073-22.45 23.073-22.462v-85.359l-52.275-50.866h-206.563v46.488l21.416 20.843v182.707l-21.416 20.823z"/></g><g fill="#010101"><path d="m538.745 241.737-14.67-14.262h-84.675v59.447h84.675l14.67-14.252zm0 125.607-14.67-14.256h-84.675v59.438h84.675l14.67-14.246z"/><path d="m361.329 436.723v31.209h191.436l45.9-44.653v-76.286l-27.748-26.986 27.747-27.013v-76.273l-45.899-44.666h-191.435v31.215l21.409 20.84v191.783zm67.3-220.002h99.828l21.021 20.47v40.025l-21.021 20.46h-99.827v-80.956zm0 125.614h99.828l21.021 20.466v40.008l-21.021 20.47h-99.827v-80.944z"/></g><path d="m323.496 519.9c35.533 27.888 78.68 46.454 125.812 52.132v-80.33h-97.634zm238.934-28.199h-51.748v80.331c47.131-5.678 90.289-24.244 125.812-52.132l-50.8-50.823-23.263 22.624zm-203.482-141.007h-130.988c5.691 47.138 24.264 90.269 52.146 125.829l78.842-78.87v-46.96zm0-108.341-78.842-78.859c-27.882 35.54-46.455 78.681-52.147 125.826h130.989zm226.747-71.44 50.809-50.816c-35.533-27.878-78.69-46.448-125.822-52.129v80.32h51.749zm36.755 248.147 57.454 57.463c27.872-35.56 46.435-78.69 52.133-125.83h-109.586v68.366zm-173.142-270.771v-80.321c-47.132 5.681-90.28 24.251-125.816 52.13l28.185 28.19h97.63zm173.142 141.031h109.587c-5.695-47.145-24.261-90.286-52.133-125.83l-57.453 57.465v68.365zm-170.034-48.815v33.387h66.372l6.917-6.732v-19.93l-6.917-6.725zm0 125.617v33.364h66.372l6.917-6.729v-19.91l-6.917-6.725z" fill="#fff"/></svg>