<svg fill="none" viewBox="0 0 960 640" xmlns="http://www.w3.org/2000/svg"><path d="m811.276 352.398c-8.282 0-15.006 6.713-15.006 15 0 8.279 6.724 15.002 15.006 15.002 8.281 0 14.994-6.723 14.994-15.001 0-8.288-6.713-15.001-14.994-15.001zm0 26.783a11.772 11.772 0 0 1 -11.783-11.782c0-6.51 5.265-11.775 11.783-11.775 6.51 0 11.78 5.265 11.78 11.775 0 6.512-5.27 11.782-11.78 11.782zm6.163-15.26a5.097 5.097 0 0 0 -1.493-3.595 5.094 5.094 0 0 0 -3.597-1.487h-7.228v17.123h3.213v-6.954h2.306l3.246 6.954h3.554l-3.39-7.251a5.097 5.097 0 0 0 3.39-4.79zm-5.09 1.872h-4.015v-3.746h4.015c1.033 0 1.877.838 1.877 1.875a1.877 1.877 0 0 1 -1.877 1.871z" fill="#000"/><path d="m777.075 368.809c23.168-33.564 35.054-67.105 35.054-99.775 0-86.177-88.128-144.102-219.316-144.102 0 0-6.266.107-10.624.175-13.27-21.747-37.983-33.86-58.763-38.293l-39.742-62.814-84.198 137.592c-152.443 56.751-258.731 162.732-258.731 258.38 0 35.76 15.342 67.454 44.129 92.223l-63.548 103.805s111.48-17.76 280.137-27.53l10.294-27.234c49.41-5.221 100.84-17.942 149.797-36.965.443 3.297 1.192 6.763 2.905 10.178l9.22 18.406c13.8 27.617 41.161 60.536 93.068 60.536 132.378 0 171.875-111.844 171.875-111.844 1.71-87.992-61.557-132.738-61.557-132.738z" fill="#fff"/><path d="m767.042 370.323c23.874-32.724 37.674-67.23 37.674-101.29 0-77.675-77.345-136.695-211.904-136.695-4.881 0-9.774.112-14.675.264-12.48-24.42-40.607-35.895-59.345-39.243l-34.993-55.336-79.296 129.543c-141.68 52.084-256.337 154.109-256.337 252.406 0 35.391 16.103 66.89 46.31 90.715l-58.574 95.702s121.03-17.552 260.343-25.054l10.189-26.962c55.455-5.35 111.053-19.867 162.384-40.885-.31 2.109-1.266 10.544 2.279 17.64l9.21 18.432c14.58 29.142 40.996 56.423 86.441 56.423 126.986 0 164.477-105.706 164.477-105.706 0-59.041-27.1-101.88-64.183-129.954z" fill="#236093"/><path d="m792.385 466.666c-8.101 12.342-21.368 26.77-25.27 30.939l-.072 36.925-2.39.238-5.038.48-12.736-19.701c-92.367 64.86-161.68 24.967-161.68 24.967l20.813 32.026c37.071 47.524 158.182 30.387 209.816-57.557l-7.004-.272c-1.217-19.981-16.439-48.045-16.439-48.045z" fill="#000"/><path d="m656.451 329.392-112.346-177.63c-3.866-.83-8.01-1.221-12.388-1.221l112.797 178.344c3.918.05 7.905.204 11.937.507zm-342.055 23.006 169.668-277.194 10.956 17.333c4.47.451 8.72 1.04 12.73 1.753l-23.821-37.668-171.072 279.493c.02 3.368.272 9.322 1.539 16.283z" fill="#c2c6c9"/><path d="m502.812 464.097c-64.443 0-107.566 32.262-166.265 32.262-81.714 0-106.765-57.662-106.765-97.563 0-122.954 144.951-197.078 144.951-197.078l2.853-4.661c-.485.214-1.734.809-3.595 1.719-24.077 11.874-154.167 81.475-154.167 200.02 0 18.98 4.365 36.103 12.037 50.805a103.791 103.791 0 0 0 5.683 9.563l-82.378 134.558s101.638-14.493 234.141-21.847l30.72-81.286c26.875-7.911 53.1-15.846 86.947-15.846 71.679 0 117.75 38.38 117.75 38.38s-26.24-49.026-121.912-49.026z" fill="#c2c6c9"/><path d="m531.717 150.54c-29.438.085-69.742 18.524-112.393 48.644l19.406-31.63 13.287-10.747 10.121-36.692 16.44-5.058 4.845-23.407a206.4 206.4 0 0 1 11.597.886l-10.956-17.332-169.668 277.194c3.612 19.856 15.541 47.923 54.15 47.923 77.314 0 189.092-71.467 274.123-71.467.603 0 1.226.03 1.844.03l-112.796-178.342zm-287.838 317.077-69.565 113.637s86.66-11.589 208.064-18.805l25.858-68.451c-23.064 6.551-47.453 12.243-78.18 12.243-34.601 0-65.863-14.255-86.177-38.624z" fill="#8a2432"/><path d="m701.195 563.496 5.679-9.38c-76.913 25.478-108.694-.886-108.694-.886 26.013 29.239 81.947 16.451 103.015 10.266z" fill="#c2c6c9"/><path d="m609.781 568.853c22.15 27.136 89.573 24.326 142.374-7.264l3.959-10.443c-33.094 22.71-106.688 43.742-146.333 17.707zm-124.699-293.765-34.865 92.683s-48.538 18.342-80.565 23.577c64.223 4.863 175.77-67.821 248.668-67.821-32.813-10.254-111.65 20.815-111.65 20.815z" fill="#c2c6c9"/><path d="m484.213 305.304c-6.612 17.571-14.15 37.627-21.324 56.695l34.558-14.249c-4.106-13.153-8.752-28.04-13.234-42.446z" fill="#236093"/><g fill="#fff"><path d="m373.99 198.776c-108.73 42.276-193.051 117.949-193.051 194.043 0 32.875 14.7 58.474 37.974 77.934l12.948-21.152c-7.672-14.702-12.037-31.825-12.037-50.805 0-118.545 130.09-188.146 154.167-200.02zm378.571 161.634c12.967-21.408 20.234-43.668 20.234-65.974 0-84.844-97.946-121.285-188.581-128.482-.594 7.028-2.188 14.648-5.025 22.9l89.72 141.84c28.007 3.782 57.551 13.53 83.652 29.716zm-208.456-208.647c12.76 2.725 22.62 10.09 28.519 22.972 7.356-28.061-1.827-69.295-64.873-80.446a171.727 171.727 0 0 0 -12.73-1.753c-3.856-.404-7.724-.7-11.598-.886l-4.846 23.407-16.44 5.057-10.12 36.692-13.287 10.748-19.406 31.63c42.65-30.12 82.955-48.56 112.393-48.644 4.378 0 8.522.392 12.388 1.223z"/><path d="m642.74 336.625c-93.162 0-195.508 72.588-275.858 72.588-23.852 0-31.045-8.852-31.045-8.852l-3.48 5.404s-98.493-47.279 36-193.647c0 0-115.804 60.383-125.027 182.551l7.005-5.843s-3.645 82.216 89.452 82.216c74.875 0 101.428-27.795 170.895-27.795 148.2 0 171.947 84.483 171.947 84.483s-97.121 28.63-103.527-25.001c0 0-14.814 62.833 109.665 31.21 0 0 7.862-12.307 6.924-28.352 0 0 11.487 11.541 13.478 20.353 0 0 9.426-10.776-5.692-39.813 0 0 12.904 11.796 21.304 28.997l5.208-4.383s.391-12.569-24.623-46.31l-17.007 10.681s-39.617-74.838-186.9-65.23c0 0 122.654-43.508 194.01 45.075l15.373-10.521s42.81 41.603 53.81 90.332l2.39-.238.072-36.925.091-44.109 12.408 14.527s6.006-10.92-1.194-33.738c0 0 28.816 28.16 37.408 80.698l2.22-29.24c0-25.192-41.83-149.118-175.307-149.118zm107.236 83.979-4.254 31.703-19.883-20.967-9.73 5.084c-13.377-16.948-64.937-59.865-125.309-59.865-86.608 0-160.704 62.538-234.88 62.538-80.965 0-84.226-48.34-84.226-67.47 0-35.512 20.79-74.235 20.79-74.235-7.12 21.727-37.468 128.709 69.067 128.709 83.835 0 128.757-57.883 226.475-57.883 94.02 0 131.975 53.591 131.975 53.591l7.31-4.607 13.877 14.95 1.061-15.467 8.542-14.944c-19.744-38.953-63.873-52.647-63.873-52.647 57.795 10.853 75.11 53.037 75.11 53.037z"/><path d="m426.722 500.655-8.22 21.773c48.804-1.692 98.17-11.652 143.933-27.57-50.186-23.291-127.766 2.996-135.713 5.797z"/></g><path d="m558.911 143.247c-26.576-25.288-89.4-4.638-89.4-4.638l-1.681 6.752c63.244-23.614 91.081-2.114 91.081-2.114z" fill="#236093"/><path d="m440.836 177.264c78.638-43.964 110.822-32.153 122.915-21.564-37.436-39.285-116.369 11.536-116.369 11.536l-6.545 10.03z" fill="#c2c6c9"/></svg>