<svg fill="none" viewBox="0 0 960 640" xmlns="http://www.w3.org/2000/svg"><path d="m493.692 514.808c-8.282 0-15.004 6.713-15.004 15 0 8.278 6.722 15.001 15.004 15.001s14.996-6.723 14.996-15c0-8.288-6.714-15.001-14.996-15.001zm0 26.783a11.771 11.771 0 0 1 -11.782-11.783c0-6.51 5.264-11.774 11.782-11.774 6.51 0 11.78 5.264 11.78 11.774 0 6.513-5.27 11.783-11.78 11.783zm6.164-15.26a5.077 5.077 0 0 0 -1.492-3.595 5.087 5.087 0 0 0 -3.598-1.487h-7.228v17.123h3.213v-6.954h2.305l3.247 6.954h3.553l-3.39-7.251a5.09 5.09 0 0 0 3.39-4.79zm-5.09 1.872h-4.015v-3.747h4.015a1.88 1.88 0 0 1 1.877 1.876 1.874 1.874 0 0 1 -1.877 1.871z" fill="#c8102e"/><path d="m840.593 195.27c36.34-31.053 71.558-81.127 71.558-138.468 0-8.3-10.125-10.635-14.23-4.992-37.444 51.097-72.754 70.51-94.083 77.9 35.468-26.852 70.253-70.696 79.15-120.418.978-9.072-8.89-11.72-13.45-6.972-43.427 43.42-103.214 89.756-263.887 89.756-38.824 0-83.206-1.126-111.905-1.126-130.45 0-178.424 80.683-189.239 103.082-10.74-1.552-21.614-2.509-32.424-2.509-123.64 0-224.231 100.591-224.231 224.242-.002 123.64 100.588 224.235 224.23 224.235 90.998 0 171.442-53.736 206.586-137.233 2.473.253 5.097.675 7.31.675 28.414 0 34.373-8.31 34.373-15.303 0-3.75-3.715-8.278-5.554-10.916 41.683-.225 53.908-2.178 71.948-8.411 2.934-.915 4.657-3.641 4.657-6.54 0-6.15-12.611-16.33-21.744-24.242 58.3-.978 101.228-11.391 101.228-25.026 0-2.663-.253-6.02-15.725-18.206 32.892-8.946 90.681-31.126 90.681-45.567 0-5.597-4.83-9.027-10.473-12.96 51.2-19.292 94.252-53.286 94.252-65.475 0-9.826-14.476-10.66-21.653-11.215 25.512-16.341 61.036-44.192 61.036-56.22 0-12.457-19.521-7.55-28.41-8.091z" fill="#c8102e"/><path d="m825.63 198.457c40.801-30.574 79.586-83.378 79.586-141.655 0-1.225-1.21-1.415-1.717-.904-63.069 86.107-120.421 85.26-120.421 85.26-2.508 0-3.101-3.518-1.109-4.905 40.72-23.95 84.395-73.355 94.203-128.185.134-.735-.964-1.625-1.737-.858-46.318 46.323-109.975 91.792-268.787 91.792-50.859 0-77.4-1.125-111.904-1.125-137.712 0-180.06 91.532-185.073 103.648a219.176 219.176 0 0 0 -36.59-3.082c-120.017 0-217.312 97.291-217.312 217.322 0 120.013 97.295 217.312 217.311 217.312 91.9 0 170.472-57.046 202.245-137.649 4.064.693 7.986 1.087 11.645 1.087 22.141 0 27.457-4.942 27.457-8.376 0-2.329-14.16-17.804-7.13-17.804 49.106 0 60.158-1.833 78.187-8.063-8.65-13.537-39.979-31.06-23.847-31.06 77.827 0 103.332-15.025 103.332-18.208 0-3.719-24.816-21.59-24.816-21.59 35.848-5.91 99.768-34.5 99.768-42.183 0-4.447-18.233-11.911-15.31-16.126 56.839-18.905 99.082-55.636 99.082-62.309 0-5.354-33.318-4.728-33.318-4.728v-3.54c28.812-14.979 72.701-51.199 72.701-59.167 0-5.076-41.185 3.43-36.446-4.904z" fill="#fff"/><g fill="#c8102e"><path d="m325.434 374.708c-7.033-9.14-16.355-16.422-27.12-20.978l-1.748 1.714 3.61 24.826a43.653 43.653 0 0 1 3.243 2.835l18.187.151c1.318-2.83 2.594-5.68 3.828-8.548zm-78.692-18.895 20.112 14.986a46.798 46.798 0 0 1 4.298-.288l17.89-17.604-.363-2.41a67.32 67.32 0 0 0 -16.598-2.075 67.104 67.104 0 0 0 -25.318 4.95zm43.565 5.791-9.846 9.663a44.798 44.798 0 0 1 11.83 3.982zm7.303 91.546a45.507 45.507 0 0 1 -11.169 5.551l11.06 8.236.11-13.787zm-89.812 62.077 32.024-31.506c-12.52-5.942-23.127-15.265-30.67-26.772l-26.855 36.027a118.819 118.819 0 0 0 25.501 22.251zm101.672-124.998a44.816 44.816 0 0 1 4.446 8.21 264.08 264.08 0 0 0 4.26-8.136zm-60.192 97.228a69.025 69.025 0 0 1 -2.336-.795l-32.889 32.347a117.675 117.675 0 0 0 41.87 14.068zm59.949-43.847-1.65.246a44.41 44.41 0 0 1 -2.829 3.24l-.218 25.09 1.96 1.452a67.614 67.614 0 0 0 16.16-13.435c-6.676-6.064-11.457-11.812-13.423-16.593zm-62.672-65.233a44.65 44.65 0 0 1 11.17-5.551l-11.057-8.25-.113 13.8zm-41.293 71.941a98.35 98.35 0 0 1 -1.105-2.202l-46.126-.39c4.056 14.507 10.807 27.879 19.665 39.555zm92.162 25.399-20.101-14.993c-1.427.161-2.86.255-4.296.281l-17.895 17.597.345 2.42a67.18 67.18 0 0 0 16.604 2.072 67.12 67.12 0 0 0 25.319-4.942zm-43.555-5.804 9.833-9.67a45.07 45.07 0 0 1 -11.824-3.97zm50.57 13.776-.384 46.12c14.497-4.053 27.866-10.8 39.548-19.666l-36.972-27.562c-.729.376-1.45.75-2.192 1.108zm-69.749-42.398a44.975 44.975 0 0 1 -5.534-11.176l-8.253 11.057 13.787.12zm6.054 7.127-25.08-.21-1.456 1.955c7.303 12.26 18.384 22.022 31.65 27.626l1.742-1.72-3.606-24.815a47.831 47.831 0 0 1 -3.25-2.836zm-1.316-63.994.204-25.083-1.949-1.463c-12.267 7.307-22.019 18.388-27.637 31.661l1.724 1.752 24.823-3.623a45.985 45.985 0 0 1 2.835-3.244zm-21.502 13.115 9.668 9.84a44.87 44.87 0 0 1 3.982-11.828zm-11.112 1.621a68.056 68.056 0 0 0 -2.062 16.605 67.023 67.023 0 0 0 4.946 25.315l2.434.021 14.994-20.108a39.553 39.553 0 0 1 -.282-4.296l-17.607-17.881-2.423.345zm49.897 90.246 6.473 44.445c11.309.852 22.682.08 33.772-2.294l.377-44.923a75.181 75.181 0 0 1 -25.252 4.355c-5.266 0-10.41-.542-15.37-1.583zm81.176-162.978c0-3.064-.067-6.135-.169-9.227-.45-.307-.897-.612-1.347-.905l-32.027 31.5a75.32 75.32 0 0 1 24.463 18.581c4.947-12.938 9.08-27.489 9.08-39.95zm-100.348 22.504c.725-.373 1.45-.75 2.188-1.098l.387-46.123c-14.497 4.05-27.869 10.797-39.555 19.665zm49.919-6.814-6.48-44.453c-2.938-.207-5.9-.337-8.897-.337-8.53 0-16.858.918-24.879 2.645l-.372 44.913a75.151 75.151 0 0 1 25.251-4.351c5.273 0 10.413.549 15.377 1.583zm77.809 146.7c-13.67-7.071-26.553-15.39-36.607-23.493a76.472 76.472 0 0 1 -15.388 13.383l36.017 26.841c5.853-5.034 11.197-10.656 15.978-16.731zm-35.14-176.3a117.784 117.784 0 0 0 -41.874-14.078l6.642 45.627c.791.253 1.569.517 2.34.788zm-176.469 103.247c0 8.535.908 16.854 2.631 24.872l44.914.373a75.24 75.24 0 0 1 -4.345-25.245c0-5.276.541-10.41 1.572-15.387l-44.438 6.487c-.224 2.961-.336 5.93-.334 8.9zm1.105-16.175 45.623-6.645c.25-.792.524-1.552.799-2.336l-32.344-32.886a117.429 117.429 0 0 0 -14.078 41.867zm17.86-48.111 31.496 32.02a75.396 75.396 0 0 1 26.778-30.666l-36.02-26.859a118.495 118.495 0 0 0 -22.254 25.505zm99.455 88.702c13.486 0 24.418-10.933 24.418-24.418 0-13.486-10.932-24.418-24.418-24.418s-24.418 10.932-24.418 24.418c0 13.485 10.932 24.418 24.418 24.418z"/><path d="m272.08 269.255c-80.912 0-146.5 65.595-146.5 146.51 0 80.912 65.588 146.5 146.5 146.5 49.395 0 93.073-24.443 119.62-61.894-5.566-1.963-11.22-4.278-16.823-6.857-23.538 31.064-60.817 51.137-102.797 51.137-71.185 0-128.896-57.708-128.896-128.886 0-71.192 57.711-128.9 128.896-128.9 23.781 0 46.064 6.456 65.187 17.692-.176-6.385-.208-12.96.296-19.876-19.704-9.868-41.945-15.426-65.483-15.426z"/><path d="m434.91 506.049c-9.462 2.265-21.67.834-34.78-2.959-27.905 40.843-74.848 67.66-128.052 67.66-85.584 0-154.982-69.387-154.982-154.985 0-2.747.078-5.467.208-8.172-4.792 7.272-3.41 19.271-11.908 19.271-6.74 0-3.004-9.182-7.937-9.182-3.07 0-3.5 4.212-7.317 4.212-.447 0-.844-.159-1.133-.159-.82 0-1.185 1.78-2.74 1.78-1.984 0-3.377-2.343-4.953-2.343-1.777 0-2.343 3.392-4.7 3.392-2.417 0-4.757-4.046-5.7-5.896 1.556 109.79 91.023 198.297 201.165 198.297 84.293 0 156.466-51.833 186.417-125.364-22.567-6.825-44.132-18.339-44.132-18.339 1.376 13.445 20.544 32.787 20.544 32.787zm-344.057-167.213c4.647 3.841.943 10.56 4.278 15.183 25.522-73.148 95.106-125.635 176.95-125.635 26.747 0 52.181 5.618 75.199 15.714a158.957 158.957 0 0 1 5.864-12.534c-24.805-10.933-52.223-17.016-81.063-17.016-84.542 0-156.884 52.153-186.67 126.026 1.657 1.086 3.482-3.357 5.442-1.738zm426.919-206.786h110.704c141.42 0 203.339-50.56 227.729-95.378 1.407-2.695-.324-3.26-3.012-.872-30.788 27.622-76.725 75.835-264.293 75.835h-79.153c-124.509 0-171.396 56.142-183.624 93.587a218.976 218.976 0 0 1 18.35 5.58c22.134-39.851 64.32-78.752 173.299-78.752z"/><path d="m515.177 160.597c-110.783 0-174.594 76.086-167.291 148.783 5.442 54.165-24.868 98.17-24.868 98.17s42.278-19.144 42.278-96.273c0-73.106 72.726-126.314 134.018-126.314 59.27 0 128.041.372 162.14.372 180.832 0 224.587-83.543 230.817-99.845 1.098-2.445-.485-1.95-1.08-.813-37.754 50.915-90.62 79.99-234.07 79.99-92.149 0-121.288-4.07-141.944-4.07z"/><path d="m556.48 223.902c-29.914 0-32.918 8.327-32.918 8.327-.946 1.161-.464 3.887-2.56 4.682-6.833 2.639-14.396-3.022-20.278 4.591-3.553 4.598-12.172-1.073-17.762 2.174-1.256.735.02 3.92.992 4.341 2.617 1.15 6.938.81 8.563 2.16 1.716 1.407 1.565 3.42 3.159 4.598 1.973 1.446 5.678 2.09 7.328 4.37 1.29 1.755 1.702 5.245 3.574 5.347 44.906 2.55 91.004 2.543 133.617-13.966 4.826-7.6-41.806-26.624-83.715-26.624zm-176.505 99.026c.591 4.344-.542 11.014.359 11.102 31.257 3.412 62.985-2.146 91.909-15.422 8.049-3.416-31.411-23.961-64.24-23.961-10.667 0-17.931 4.538-17.931 4.538-1.83 1.052-3.297 5.34-5.425 8.535-1.586 2.374 1.45 6.093.176 7.623-2.357 2.84-5.266 4.58-4.848 7.584zm42.746-76.086c-1.512.254-2.649 2.71-3.77 4.303-2.836 3.993-11.821 3.11-11.747 7.655.102 8.288-9.13 9.804-10.596 15.774-1.147 4.679-3.662 8.214-4.007 13.248 33.164.18 67.28-1.959 96.68-18.842 7.686-3.5-40.492-25.905-66.56-22.138zm105.587-28.432c-2.413-9.62-14.086-11.422-22.043-16.076-3.156-1.85-6.86-1.006-10.505.559-7.898 3.392-18.054-2.367-26.205 3.49-2.321 1.685-3.563 4.82-6.564 5.597-3.725.968-7.483 1.122-11.286 1.604-1.396.194-4.013 1.136-3.841 2.72.76 6.764-5.534 8.175-10.526 9.92-4.882 1.717-3.148 8.155-3.3 12.897 32.309.411 65.922-4.141 94.27-20.711zm-164.716 159.534c8.306 4.32 48.477-1.484 69.42-14.5-21.513-18.248-55.942-24.869-55.942-24.869-4.774 13.027-9.713 25.99-13.478 39.37z"/><path d="m357.569 385.55c-3.923 2.086-8.422 8.007-4.862 10.413 6.374 4.32 16.95 14.001 65.732 14.001 47.502 0 65.574-14.68 74.562-23.795 0-5.882-41.79-17.92-47.4-14.652-1.724.855-1.928 2.582-2.16 3.342-1.875.735-7.68.826-9.059 1.833-3.24 2.378-2.596 6.258-3.461 6.487-7.413 1.843-16.601-2.825-23.62.372-1.882.87-1.72 6.107-4.214 6.298-5.083.383-10.677-2.639-15.518-1.094-.861.285-3.479.664-5.199 1.748-2.66-1.365-4.074-1.696-7.55-2.537-2.57-.63-5.055 1.137-8.203.602-2.948-.513-6.259-4.503-9.048-3.018zm192.62-34.296c8.773-4.567 19.33-5 25.775-13.713-39.376-20.566-85.358-18.437-90.973-15.187-1.386.81-3 3.677-4.76 4.799-2.702 1.773-5.21.921-7 2.712-1.073 1.073.105 3.908-.652 4.957-.988 1.39-3.169 1.636-4.53 2.37-1.383.757-4.303-.478-6.477.44-2.167.919-2.255 2.948-3.672 3.666-5.281 2.691-12.943-.429-16.58-.373-1.876.032-1.39 2.99-.785 3.585 2.354 2.332 9.164 3.043 8.904 6.498-.06.707-1.692 3.117-2.723 3.25 3.61 7.708 37.195 17.928 81.373 3.275 7.377-2.22 15.004-2.592 22.1-6.28zm50.256-56.758c3.613-2.42 8.218-2.448 10.37-5.868 4.767-6.188-41.236-16.414-59.902-16.414-18.55 0-52.804 4.654-58.682 6.719-2.435 1.013-2.565 5.98-5.422 6.332-5.501.676-10.95 1.344-16.484 1.808-1.819.148-1.362 3.064-.795 3.511 3.598 2.906 4.71 4.707 6.226 9.157.152.419 3.888.05 4.704.746 3.595 3.103 6.163 7.518 10.666 8.612 21.786 5.227 42.844 6.67 65.145 1.488 2.388-.549 4.137-2.491 6.268-2.751 7.824-1.013 15.965-1.485 22.03-7.261 4.28-4.084 11.11-2.867 15.876-6.079zm52.913-94.186c1.28-.794.239-4.935-.834-5.093-4.995-.76-10.406-2.779-15.81 2.072-1.829 1.65-5.234-1.9-7.763-.372-2.048 1.217-4.067 4.492-5.97 5.34-5.182 2.304-10.21-3.079-15.93-2.41-1.678.186-1.27 3.919-2.937 4.31-4.921 1.164-9.22-4.194-11.996-2.393-4.25 2.74-7.82 6.23-12.964 3.915-4.939-2.244-11.46-6.912-14.838-3.971-5.865 5.122-12.999-2.3-18.156-.3-4.37 1.693-16.12 4.493-8.105 9.14 24.9 15.074 76.894 12.08 115.303-10.237zm-246.817 282.664c-1.301-2.36-4.668-1.094-6.986-2.458-1.682-1.02-2.487-4.524-4.134-5.879-1.273-1.048-4.345 1.33-5.924.408-2.24-1.316-3.95-4.154-5.699-6.11-1.945-2.157-3.732-4.503-5.646-6.663-1.794-2.03-3.711-3.887-6.002-5.242-1.231-.728-3.623.845-5.111.458-2.635-.704-4.169-5.284-6.325-7.198-1.238-1.098-3.215-1.249-4.31-2.29-1.122-1.08-1.361-3.064-2.54-4.37-1.558-1.71-3.838-2.318-5.523-3.697-2.283-1.868-3.992-6.6-5.751-9.206-1.756-2.607-4.356-2.896-6.044-5.179-2.115-2.863-3.353-7.672-5.939-10.57-2.589-2.928-9.072 1.744-11.053 5.688-3.25 6.451-3.06 14.645 1.896 20.175 24.38 27.235 56.037 49.824 92.268 55.787-2.702-3.898-5.551-10.695-7.177-13.654zm80.166-9.118c-3.69-1.027-6.926-3.067-10.307-4.464-2.086-.858-4.095 2.378-6.343 1.041-4.548-2.715-8.46-6.606-12.08-9.498-2.87-2.297-8.626-8.06-11.1-6.899-.974.433-2.374 5.787-4.724 4.025-5.667-4.246-9.347-8.813-14.634-13.445-2.424-2.108-4.732 4.861-7.806 3.384-7.071-3.437-9.918-11.1-15.356-16.53-6.347-6.319-12.415-13.64-21.146-15.955-1.45-.38-.651 1.735-2.01 2.797-6.669 5.207-14.011-3.687-20.488-6.656-5.941-2.744-11.169-7.099-17.853-7.553-1.418-.105-1.354 2.034-.816 2.67 38.078 45.044 90.913 78.837 148.945 77.475 1.347-.031 4.094.12 1.836-2.677-1.805-2.216-3.83-7.078-6.118-7.715zm53.898-32.811c-1.695-.25-4.327 2.04-5.797 1.762-4.5-.844-8.06-4.886-13.52-7.77-2.251-1.186-3.423 4.136-5.188 4.024-9.052-.517-22.132-10.114-30.212-14.955-1.432-.865-10.068.858-11.5 1.147-5.196 1.045-11.806-8.052-15.89-9.97-3.096-1.442-7.406-2.969-10.343-.77-3.986 2.965-8.721 1.375-13.087 1.316-1.692-.036-3.187 3.567-5.287 4.228-5.953 1.91-12.542-2.23-18.385.686-.169.08-.967 1.302-.922 1.724.401 3.662 4.493 4.278 7.191 5.924 41.845 26.543 106.466 35.137 142.472 27.084.816-.253-.457-3.331-2.885-5.185-2.511-1.928-6.213-2.653-7.775-3.747-3.634-2.547-5.572-5.002-8.872-5.498zm84.236-38.627c-4.429 1.312-7.855-1.935-11.535-.53-.844.33-1.421 1.723-2.125 1.73-6.937.137-11.56-7.328-18.623-6.765-1.748.137-1.714 3.23-3.202 3.581-4.351 1.02-8.21-4.246-12.133-2.357-2.797 1.368-4.767 1.266-7.447.479-3.476-1.02-6.058-4.11-9.414-4.64-2.966-.465-5.882 2.476-9.228 1.502-8.323-2.424-14.778-10.336-23.714-8.44-4.411.932-8.204-2.086-11.25-.26-3.342 1.98-4.292 4.39-7.68 6.403-2.293 1.393-7.665 1.217-10.068 2.673-1.819 1.115-2.283 3.922-4.365 4.784-3.909 1.615-8.535.468-12.197 2.54-.43.24-.672 2.284.897 2.723 34.12 11.564 89.344 24.288 155.308 7.17 2.034-.62 2.456-1.837.802-3.747-3.623-4.19-8.6-8.46-14.026-6.846zm78.942-57.813c-5.829 2.712-12.58-.3-19.042 1.235-1.689.4-.394 2.807-2.083 3.043-6.335.897-12.907-.722-18.845 1.597-4.644 1.804-10.216-.246-15.328-.116-1.945.052-1.99 2.66-2.29 4.773-.274 1.791-2.98 2.864-3.778 2.628-6.332-1.882-12.4-2.564-18.82-3.507-16.123-2.381-32.084-7.507-47.243-2.98-4.946 1.485-11.503 2.723-15.292 6.572-1.456 1.491-3.008 4.432-4.946 5.14-9.277 3.373-19.38 4-28.625 7.292-2.794.985-8.116 4.904-6.125 5.418 0 0 28.523 8.28 59.643 8.28 59.892 0 105.55-14.736 138.95-32.958-1.918-2.42-11.76-8.471-16.176-6.417zm65.722-65.595c-3.673 1.21-8.686-2.258-11.827.06-4.69 3.458-10.199 2.832-15.015 2.336-2.297-.243-5.9-1.052-7.933.538-1.315 1.034.574 2.691 1.805 3.803-12.122 4.172-25.494.242-36.99 4.91-.862.35-1.38 4.57-3.504 4.993-10.554 2.132-20.429-2.012-30.895-.095-2.66.492-1.48 6.124-4.263 6.258-9.397.46-18.55-.33-27.936-.721-11.166-.465-21.452 3.585-31.988 6.814-3.135.943-4.074 5.924-7.448 6.434-9.108 1.39-18.377-.204-26.683 3.898-.56.274-.598 3.068.014 3.398 10.18 5.752 21.846 9.724 28.804 19.025 70.84-.745 147.066-10.005 206.048-58.365 1.164-.943-5.822-2.4-9.583-3.272-3.666-.851-6.684-.851-11.13-2.304-3.955-1.305-7.607 1.024-11.476 2.29zm73.552-66.625c-.72-.433-11.44-2.364-17.368-.971-1.27.299-2.019 2.367-3.208 2.56-7.655 1.228-13.048 4.884-20.823 5.123-1.625.038-5.122 1.196-7.215 2.191-2.821 1.362-6.687-1.948-8.89.521-1.42 1.594 1.056 5.421-1.523 6.638-6.772 3.188-14.687-2.532-21.318 1.791-1.931 1.249 2.04 5.477-.45 6.265-9.534 2.98-26.019-11.82-32.26 3.546-.97 2.414-3.957 1.323-5.822.838-1.805-.468-4.355-1.302-5.428-.409-5.84 4.753-9.273 6.65-17.487 4.345-2.076-.598-2.114 5.58-6.15 4.598-4.615-1.111-9.051-4.44-13.27-2.554-1.962.876-.516 6.008-3.373 6.287-11.482 1.094-23.316-.56-33.895 4.14-2.61 1.165-2.853 5.857-6.508 6.46-8.05 1.332-16.08.393-23.602 2.834-1.22.391-.935 3.976.926 4.247 4.823.717 10.303-.032 14.004 2.174 4.542 2.712 7.42 10.356 11.887 10.536 90.973 1.759 156.692-30.842 201.773-68.441 1.784-1.548.859-2.191 0-2.719zm-22.3-53.364c-1.365.62-.932 5.123-3.532 6.33-4.478 2.06-9.572 2-14.357 3.454-1.811.562-1.71 2.969-3.222 3.912-2.543 1.621-5.987.274-7.845 1.646-11.492 8.422-25.153 4.644-37.916 6.754.201 9.618-14.982 3.744-21.205 7.93-6.797 4.555-5.893 3.31-16.007 3.405-3.142.035-1.446 4.672-3.975 4.725-8.063.144-18.483-2.414-24.495-.665-1.08.313-1.432 5.396-3.571 5.97-4.387 1.175-8.992 1.65-13.196 2.98-3.254 1.03 1 7.18-3.36 8.562-7.405 2.343-15.56.633-23.028 4.865-2.93 1.675-7.229.095-11.035.795-3.237.58-4.475 3.98-1.83 5.474 2.393 1.348 6.389.996 8.746 2.16 5.47 2.698 10.008 6.603 15.887 6.973 96.105 5.913 220.414-62.4 239.995-145.145.682-3.33-.845-2.716-1.524-.86-20.85 49.649-74.53 70.735-74.53 70.735z"/></g></svg>