<svg fill="none" viewBox="0 0 960 640" xmlns="http://www.w3.org/2000/svg"><path d="m699.637 509.553c-8.282 0-15.006 6.714-15.006 15.001 0 8.278 6.724 15.001 15.006 15.001 8.281 0 14.994-6.723 14.994-15 0-8.288-6.713-15.002-14.994-15.002zm0 26.784a11.773 11.773 0 0 1 -11.783-11.783c0-6.51 5.265-11.774 11.783-11.774 6.51 0 11.78 5.264 11.78 11.774 0 6.513-5.27 11.783-11.78 11.783zm6.163-15.26a5.097 5.097 0 0 0 -1.492-3.596 5.083 5.083 0 0 0 -3.598-1.486h-7.228v17.123h3.213v-6.954h2.306l3.246 6.954h3.553l-3.389-7.251a5.09 5.09 0 0 0 3.389-4.79zm-5.09 1.872h-4.015v-3.747h4.015c1.033 0 1.877.84 1.877 1.876a1.882 1.882 0 0 1 -1.877 1.871z" fill="#fff"/><path d="m792.934 88.59c0-88.587-99.73-88.587-113.157-88.587l-24.165-.003s34.119 34.3 34.119 46.688a5.07 5.07 0 0 1 -5.078 5.067h-86.897a5.073 5.073 0 0 1 -5.078-5.067c0-12.387 34.119-46.688 34.119-46.688-33.116 0-80.6 7.402-113.588 30.847a280.74 280.74 0 0 0 -28.038-1.405c-153.247 0-277.485 124.241-277.485 277.497 0 30.24 4.852 59.339 13.8 86.585-20.517 25.075-54.422 76.414-54.422 141.86 0 56.56 27.949 104.616 27.949 104.616s49.766-72.865 161.296-72.865c8.54 0 10.742-7.448 11.09-8.89 35.754 16.786 75.665 26.191 117.772 26.191 153.253 0 277.491-124.247 277.491-277.497 0-49.226-12.83-95.446-35.312-135.521 30.722-9.44 65.584-33.882 65.584-82.828z" fill="#fff"/><path d="m781.499 88.59c0-55.012-50.487-79.067-101.296-77.165 0 0 20.977 20.228 20.977 35.252 0 7.98-5.954 16.503-22.64 16.503h-75.182c-16.904 0-26.991-5.81-26.991-15.55 0-15.962 25.101-34.601 25.101-34.601s-50.888 3.064-84.952 29.749c-10.289-1.205-20.734-1.9-31.344-1.9-146.935 0-266.054 119.118-266.054 266.061 0 50.633 14.15 97.963 38.705 138.25-3.98 2.11-7.997 3.514-13.601 3.514-18.63 0-18.74-41.298-18.74-41.298s-46.986 54.784-46.986 127.978c0 45.067 19.04 83.834 19.04 83.834s52.724-63.521 158.774-63.521c0 0-50.296-20.206-50.296-44.602.006-.009.223-2.595 1.925-5.78 47.053 42.067 109.143 67.677 177.233 67.677 146.95 0 266.066-119.111 266.066-266.052 0-52.711-15.396-101.804-41.836-143.14 25.66-4.095 72.097-21.633 72.097-75.209zm-534.399 218.35c0-131.488 106.593-238.078 238.071-238.078 3.09 0 6.139.118 9.194.231-4.913 9.72-7.853 21.081-7.853 34.425 0 61.16 67.793 61.755 67.793 61.755l-33.076 87.385-57.469-72.784c-20.407-25.835-41.546-31.266-55.688-31.266-28.867 0-51.24 20.443-66.489 60.752l-73.713 194.797c-13.303-29.685-20.768-62.576-20.768-97.218zm29.728 115.2c15.399-4.998 38.974-10.844 65.032-10.844 33.478 0 63.715 8.222 63.715 8.222l29.278-77.336 27.754 50.374-25.165 26.32c-15.297 16.012-53.451 6.004-95.582 6.004-29.245 0-47.023 3.303-59.035 7.465a235.194 235.194 0 0 1 -5.997-10.205zm446.42-115.2c0 131.483-106.582 238.07-238.077 238.07-55.83 0-107.128-19.263-147.73-51.46 39.215 1.706 60.654 27.053 115.886 27.053 81.122 0 128.643-49.168 146.065-95.206l90.683-239.647c21.052 35.504 33.173 76.92 33.173 121.19z" fill="#000"/><path d="m702.81 23.18s9.795 9.207 9.795 23.497-11.128 27.942-34.064 27.942h-75.183c-29.214 0-38.42-14.925-38.42-26.989 0-12.063 6.839-18.523 6.839-18.523s-73.839 14.39-73.839 74.411c0 50.483 56.449 50.33 56.449 50.33h16.462l-46.076 121.747-69.983-88.64c-4.347-5.5-21.364-26.916-46.717-26.916-35.249 0-50.573 39.547-55.801 53.359l-74.365 196.507s27.518-10.04 63.954-10.04c30.732 0 56.593 6.211 56.593 6.211l34.466-91.076 43.737 79.39-30.96 32.388c-20.366 21.307-62.89 9.524-103.836 9.524-76.446 0-69.064 23.82-97.64 23.82-20.242 0-25.49-24.575-25.49-24.575s-28.807 47.752-28.807 99.837c0 33.818 11.873 63.564 11.873 63.564s59.573-50.709 119.585-50.709c0 0-26.793-12.856-26.793-37.145 0-6.907 9.168-29.055 38.7-29.055 45.735 0 64.784 27.142 120.039 27.142 77.321 0 120.27-47.905 135.383-87.822l101.22-267.51s80.145.152 80.145-65.259c0-60.012-67.266-65.41-67.266-65.41z" fill="#c00"/></svg>