<svg fill="none" viewBox="0 0 960 640" xmlns="http://www.w3.org/2000/svg" xmlns:xlink="http://www.w3.org/1999/xlink"><clipPath id="a"><path d="m0 0h960v640h-960z"/></clipPath><g clip-path="url(#a)"><path d="m807.359 168.725c-47.88-47.875-111.376-74.466-178.997-75.003 4.87-22.296 12.45-46.097 22.62-70.942l.187-.469a16.127 16.127 0 0 0 -1.453-14.892 16.135 16.135 0 0 0 -13.061-7.279l-.474-.011c-3.06-.086-6.12-.129-9.181-.129-25.356 0-75.93 3.023-129.77 23.285-56.891 21.407-102.393 55.928-135.253 102.61-13.545 19.246-31.796 50.563-41.812 90.46a375.615 375.615 0 0 0 -3.806 16.738c-1.868.038-3.747.054-5.631.054-22.482 0-49.552-2.48-80.443-7.388-27.442-4.364-73.145-19.65-82.965-23.365a482.787 482.787 0 0 1 -21.29-8.654l-8.291-3.662-40.11-17.809 24.1 46.954c9.373 19.986 17.936 36.177 24.233 46.012 16.403 25.612 35.356 46.608 57.348 63.422l21.929 40.61c12.9 23.924 25.973 43.052 39.955 58.487 7.781 8.585 16.393 16.122 22.242 20.928 8.058 6.626 17.063 12.678 26.771 17.984l11.422 24.77c1.203 2.598 13.253 23.86 31.078 41.52 11.506 11.4 31.875 24.393 42.887 28.895l1.357.57c8.389 3.555 30.668 12.992 66.136 12.992 6.558 0 13.45-.357 20.491-1.054l.895-.09c5.311 6.754 8.08 11.8 8.462 15.402.282 2.592-.702 4.998-2.618 9.325-1.006 2.028-3.566 4.55-6.53 7.473l-.118.117c-1.767 1.746-3.773 3.726-5.732 5.919l-.57.638a16.066 16.066 0 0 0 -3.962 8.514 16.067 16.067 0 0 0 1.477 9.274c2.682 5.508 8.372 9.069 14.498 9.069.335 0 .67-.01 1.016-.027l.847-.058c12.827-.804 39.305-8.043 57.173-30.088 4.481-5.53 8.255-11.272 11.411-17.393 26.26 8.957 53.947 13.497 82.438 13.497 68.409 0 132.719-26.644 181.094-75.013 48.37-48.38 75.014-112.69 75.014-181.1 0-68.403-26.644-132.718-75.014-181.093z" fill="#fff"/><path d="m801.005 175.079c-46.678-46.677-108.731-72.38-174.745-72.38-2.9 0-5.892.065-8.899.171 5.631-30.838 15.914-60.542 25.293-83.47l.186-.463a7.114 7.114 0 0 0 -.639-6.59 7.15 7.15 0 0 0 -5.78-3.225l-.49-.01a309.222 309.222 0 0 0 -8.93-.13c-24.744 0-74.099 2.955-126.604 22.712-55.172 20.758-99.268 54.193-131.069 99.374-13.109 18.618-30.769 48.913-40.45 87.474a368.658 368.658 0 0 0 -5.056 23.29l-.868.038c-3.986.175-8.1.266-12.225.266-22.956 0-50.499-2.523-81.858-7.5-28.113-4.47-74.727-20.054-84.733-23.838a502.41 502.41 0 0 1 -24.51-10.05l-3.8-1.68-18.197-8.086 10.538 21.769c9.017 19.778 18.847 37.464 25.362 47.64 24.541 38.322 54.964 65.897 93.003 84.296 22.471 10.869 48.514 15.654 62.038 17.538 10.128 1.41 27.383 2.74 35.505 2.74h.011l1.565-.015c.708 2.74 1.48 5.524 2.31 8.345-.485 0-.969.005-1.448.005-15.499 0-29.454-1.112-46.672-3.714-14.248-2.156-27.56-5.174-40.695-9.213-5.663-1.746-11.565-3.652-16.414-5.775l-19.922-8.73 10.331 19.135c12.56 23.275 25.223 41.829 38.71 56.715 7.414 8.18 15.669 15.403 21.29 20.023 7.791 6.408 16.53 12.252 25.973 17.372 25.488 13.801 49.498 19.96 77.84 19.96.361 0 .728-.006 1.101-.011l4.78-.043a376.322 376.322 0 0 0 6.482 8.106c-2.618.17-5.088.245-7.76.245-3.683 0-7.893-.15-13.242-.463-14.365-.846-38.007-6.03-44.511-9.133l-18.713-8.958 8.69 18.847c1.065 2.288 12.615 22.428 29.253 38.912 10.448 10.346 29.778 22.8 40.035 26.99l1.389.585c7.925 3.358 28.985 12.278 62.623 12.278h.005c6.265 0 12.854-.34 19.597-1.01l5.381-.538c1.24 1.213 2.326 2.39 3.225 3.523 14.318 18.107 11.507 24.605 7.18 34.372-1.65 3.465-4.769 6.536-8.377 10.097l-.106.106c-1.762 1.74-3.583 3.534-5.355 5.52l-.57.633a7.127 7.127 0 0 0 -1.191 7.665 7.13 7.13 0 0 0 6.509 4.22c.149 0 .298 0 .452-.011l.846-.059c11.364-.708 34.846-7.153 50.755-26.777 6.45-7.957 10.703-15.7 13.705-22.97 27.548 10.447 56.859 15.748 87.122 15.748 66.008 0 128.067-25.707 174.744-72.384s72.379-108.737 72.379-174.74c0-66.008-25.702-128.067-72.38-174.744" fill="#010101"/><path d="m866.251 349.82c0 64.103-24.962 124.369-70.293 169.7-45.325 45.325-105.59 70.292-169.693 70.292-29.518 0-58.014-5.173-84.79-15.355 1.154-3.428 2.085-6.733 2.884-9.862 1.32-5.152 2.06-10.762 2.656-16.67 2.48-.74 5.838-1.985 12.513-4.987 7.92-3.566 13.108-6.03 13.944-6.424 17.096 4.822 34.856 7.27 52.793 7.27 51.808 0 100.513-20.177 137.152-56.811 36.634-36.634 56.811-85.344 56.811-137.152 0-54.869-23.392-107.395-64.182-144.146-.027-.65-.064-3.572 1.181-7.697.298-.984.602-2.043.9-3.092.298-1.059.585-2.06.867-2.986 14.647 14.647 23.174 11.938 23.477 11.8a3.541 3.541 0 0 1 1.831-.495c3.002 0 6.11 3.38 6.456 3.763l.043.053.053-.058-.053.048.245-.256.25-.26v-.006c-.426-.484-3.902-4.64-2.278-7.904.154-.362 3.608-9.08-11.874-25.52l-.384-.41-.213.521c-.058.15-1.383 3.598-.074 9.745l.053.405c0 .037.42 3.518-1.506 5.706-1.043 1.186-2.608 1.788-4.636 1.788l-1.671-.117c-2.603-.83-5.099-1.25-7.414-1.25l-1.49.063c.276-.702.59-1.426.952-2.203.666-1.432 1.294-2.88 1.608-4.263l.974-.155c2.826 0 5.945 2.565 6.312 2.874l.053.048.043-.064-.048.059.213-.293.207-.293c-.462-.404-4.508-4.055-3.342-7.51.101-.383 2.32-9.495-15.286-23.642l-.442-.356-.133.548c-.037.154-.872 3.758 1.272 9.665l.102.389c.01.037.974 3.688-.895 6.131-1.139 1.496-3.118 2.257-5.817 2.262a26.93 26.93 0 0 0 -4.604-.415c-4.13 0-6.307 1.07-6.397 1.118l-.5.25.441.351c3.625 2.88 6.829 4.945 9.698 6.488l-.932.352c-.83.314-1.682.644-2.592.968-2.24.81-4.45 1.735-5.908 2.374a44.37 44.37 0 0 0 -4.146 2.113c-31.141-19.922-67.232-30.454-104.377-30.454-4.274 0-8.59.143-12.875.425-.804-15.147.33-30.784 2.725-46.235 3.38-.144 6.776-.219 10.15-.219 64.103 0 124.368 24.968 169.693 70.293 45.33 45.33 70.293 105.596 70.293 169.699" fill="#b9975b"/><path d="m772.024 401.285-2.608 11.236 7.265 30.609s-21.262 3.332-30.726 4.758c-2.91 9.767-17.489 48.093-17.489 48.093l-2.917-1.442c-2.118-20.939-13.018-31.647-25.467-39.663-6.988-4.492-14.972-7.573-22.588-9.995-10.288-3.268-20.965-5.248-31.764-6.829 1.863-4.385 1.346-9.67-.006-12.976-2.214-5.429-5.556-9.122-8.574-12.976 13.29-2.262 14.828-11.661 14.296-17.393-1.677 2.927-8.782 14.95-19.272 12.582-21.561-25.404-25.234-26.782-27.32-34.979-1.49-5.854 1.261-13.38 7.414-17.537 11.251-6.993 18.272.107 29.656 14.419 6.052 7.605 27.91 36.607 42.281 52.91 10.99 12.475 21.987 20.5 35.612 27.638 7.489 3.928 16.132 6.888 16.132 6.888l1.788-2.859s-10.66-10.623-17.451-24.12c-3.338-6.627-5.86-13.658-7.452-20.513-3.97-17.128-.154-34.782-.154-34.782s-10.097 1.666-19.496-12.183c-2.464-3.63-4.774-12.092-5.504-17.484-.516-3.843-.878-6.823-.936-10.032 17.276-15.76 40.796-43.953 49.796-46.044 2.72 5.647 42.036 89.022 42.036 89.022l-8.814 4.23.037 9.592-23.013 16.877 25.239-7.047z" fill="#fff"/><path d="m505.402 596.347c.106-.766.165-1.309.18-1.474 1.15-11.177-2.054-18.92-5.141-25.297-2.911-6.014-6.749-10.629-10.432-14.84-6.573-7.53-15.19-14.103-19.735-17.35-.782-.559-78.484-56.774-111.978-138.27-25.707-62.5-22.588-118.21-15.45-153.94 2.357-11.81 5.28-22.875 9.196-34.84l.123-.393c13.976-42.755 34.968-72.188 50.116-89.352 49.082-55.635 127.901-89.108 216.71-92.147-6.429 16.037-12.353 35.74-17.632 58.653-.985 4.29-9.426 42.094-7.292 72.874-27.282 8.1-51.755 21.37-72.762 39.46-14.631 12.598-27.591 28.975-36.496 46.113-11.326 21.811-13.513 39.524-15.11 52.457-.192 1.56-.378 3.06-.57 4.492-2.496 18.586 3.593 65.774 29.497 95.82 7.1 8.244 16.957 20.47 29.438 35.941l.16.202c8.298 10.289 17.66 21.897 28.193 34.793-3.795 3.81-12.22 12.79-19.63 30.359-3.704 8.782-6.05 17.27-6.977 25.223-.367 3.13-.623 6.413-.9 9.878-.745 9.458-1.58 20.113-4.901 30.667-2.22 7.063-4.774 12.795-8.032 18.038-3.023 4.875-6.802 9.458-10.575 12.933z" fill="#c8102e"/><g fill="#010101"><path d="m763.394 374.32-17.623 10.671.437 1.065 29.385-7.079zm-19.468-39.918s-.282-4.508-1.464-6.28c-1.181-1.772 5.29-4.535 5.29-4.535l-3.347-1.83-.809 1.452-15.11 5.29-12.593 10.326 10.8-3.475 22.188 2.831zm-60.809-190.623c.756-1.448 2.342-2.177 4.71-2.177 1.933 0 3.716.5 4.056.601l.07.016.095-.34.043-.362c-.591-.186-5.76-1.89-6.094-5.525-.064-.393-1.709-9.623-23.525-15.466l-.543-.144.096.553c.026.16.718 3.806 5.088 8.356l.234.288c.021.032 2.374 2.991 1.65 5.977-.442 1.83-1.948 3.32-4.412 4.412-6.962 1.74-9.67 4.945-9.783 5.083l-.357.436.543.139c5.541 1.453 10.55 2.187 14.882 2.187 9.947 0 13.082-3.816 13.247-4.034z"/><path d="m714.518 151.827c2.352 0 4.758 1.038 5.221 1.246l.064.031.149-.33.09-.35c-.558-.267-5.444-2.667-5.28-6.313-.005-.394-.356-9.767-21.156-18.559l-.521-.219.02.56c.006.16.187 3.863 3.876 8.968l.197.33c.02.032 1.942 3.289.814 6.147-.692 1.746-2.39 3.018-4.982 3.758-7.132.76-10.256 3.565-10.39 3.688l-.415.378.522.218c7.25 3.012 13.604 4.545 18.9 4.545 6.54 0 9.064-2.347 9.213-2.496.761-1.064 2.001-1.602 3.678-1.602z"/><path d="m741.87 160.107c.048-.388.99-9.718-18.4-21.3l-.484-.293-.059.565c-.015.159-.346 3.842 2.598 9.399l.154.367c.016.037 1.474 3.523-.042 6.2-.927 1.634-2.784 2.657-5.45 3.034l-.959-.016c-6.53 0-9.707 2.145-9.84 2.236l-.464.314.485.287c10.288 6.073 17.266 7.35 21.305 7.35 4.231-.005 6.126-1.335 6.26-1.437.718-.76 1.702-1.15 2.921-1.15 2.65 0 5.589 1.81 5.935 2.028l.064.038.191-.304.139-.335c-.517-.335-5.025-3.39-4.354-6.983zm59.107 66.385 1.357-.277c3.183 0 6.078 4.183 6.398 4.662l.037.053.298-.202.26-.25c-.335-.516-3.23-5.13-1.165-8.143.202-.341 4.827-8.495-8.228-26.92l-.33-.458-.282.49c-.075.132-1.88 3.384-1.416 9.68l-.01.362c0 .272-.144 6.67-5.882 6.67-.883 0-1.868-.155-2.874-.432-4.396-2.113-7.76-2.427-9.367-2.427-.89 0-1.384.09-1.405.096l-.554.106.33.458c10.762 14.999 18.873 16.622 21.864 16.622z"/><path d="m816.156 251.62.9-.117c3.395 0 5.897 4.965 6.174 5.53l.031.058.32-.154.298-.219c-.266-.553-2.491-5.53-.032-8.223.25-.308 5.955-7.75-4.44-27.799l-.26-.5-.34.447c-.102.128-2.321 3.082-2.742 9.351l-.058.405c-.043.24-.953 5.86-5.79 5.86-1.134 0-2.412-.314-3.742-.894-5.45-3.614-9.469-3.8-10.22-3.8l-.691.032.26.495c9.98 18.995 19.119 19.538 20.13 19.538z"/><path d="m827.717 278.606.437-.027c3.65 0 5.599 5.679 5.823 6.355l.02.074.341-.116.325-.165c-.18-.591-1.703-5.823 1.107-8.154.288-.272 6.967-6.856-.559-28.145l-.186-.532-.404.394c-.117.111-2.731 2.735-4.013 8.904l-.107.372c-.016.048-1.549 5.057-5.743 5.057-1.341 0-2.826-.5-4.38-1.459-5.376-4.753-9.554-5.173-9.73-5.184l-.564-.053.197.532c7.638 21.253 16.979 22.12 17.436 22.147z"/><path d="m830.583 288.64c-4.662-5.445-8.75-6.44-8.92-6.483l-.543-.123.112.549c4.636 22.103 13.764 24.254 14.216 24.344 3.954.075 5.19 6.387 5.322 7.132l.016.075.352-.064.34-.128c-.096-.607-.883-5.998 2.225-7.92.32-.223 7.845-5.822 3.332-27.953l-.117-.548-.453.335c-.122.096-3.082 2.337-5.2 8.266l-.154.346c-.021.048-1.99 4.274-5.684 4.274-1.533 0-3.178-.724-4.844-2.103m-173.291-154.06c.798-11.816-35.447-2.39-35.447-2.39s34.675 13.812 35.447 2.39zm-21.22 430.486.07.346v-.043l.01.043-.021-.718-.314.005c-1.166 0-6.999-.186-7.83-3.875-.149-.362-4.066-8.883-26.643-9.064h-.565l.235.511c.069.16 1.847 3.96 8.058 7.425 2.15 1.73 3.21 3.56 3.161 5.445-.08 3.07-3.124 5.312-3.156 5.338l-.197.154c-5.487 3.274-7.121 6.653-7.19 6.797l-.24.51.772.006c22.402 0 26.378-8.43 26.543-8.808 1.266-3.407 6.7-3.705 7.318-3.726z"/><path d="m665.916 562.173-.058-.34.117.33-.006-.038.016.037-.122-.707-.07.01.06.229v.112l-.06-.341a16.19 16.19 0 0 1 -2.442.186c-2.284 0-5.18-.49-6.084-2.906-.149-.244-3.763-5.945-18.426-5.945-2.837 0-5.94.219-9.224.65l-.553.074.298.474c.096.15 2.384 3.667 9.01 6.238 2.37 1.42 3.673 3.087 3.88 4.955.347 3.06-2.357 5.695-2.384 5.721l-.303.288c-4.875 3.955-6.009 7.478-6.052 7.627l-.17.537.559-.074c22.375-3.066 25.164-12.018 25.276-12.423.782-3.534 6.1-4.582 6.733-4.694z"/><path d="m694.86 554.143-.074.02c-.362.113-2.21.655-4.178.655-2.29 0-3.843-.713-4.636-2.176-.123-.155-3.204-3.811-12.769-3.811-4.45 0-9.612.803-15.344 2.384l-.543.15.362.43c.117.133 2.869 3.306 9.793 4.934 2.534 1.08 4.056 2.55 4.524 4.375.767 2.975-1.549 5.967-1.575 5.999l-.218.282c-4.317 4.609-4.961 8.27-4.988 8.425l-.09.559.543-.155c21.737-6.12 23.264-15.376 23.323-15.786.282-3.62 5.434-5.392 6.02-5.583l-.107-.33.165.314-.011-.037.021.032z"/><path d="m722.574 542.892-.064.032.122.202.032.107-.154-.309c-.469.218-2.927 1.315-5.307 1.315-1.623 0-2.837-.522-3.64-1.602-.101-.096-2.57-2.326-8.851-2.326-5.365 0-11.821 1.612-19.187 4.795l-.517.224.42.372c.128.117 3.29 2.88 10.374 3.54 2.661.718 4.375 1.964 5.088 3.704 1.166 2.842-.713 6.126-.734 6.153l-.117.234c-3.694 5.205-3.832 8.957-3.832 9.117l-.016.564.516-.229c20.683-9.064 20.922-18.441 20.917-18.857-.213-3.619 4.64-6.088 5.2-6.36l-.15-.314.203.287-.016-.031.021.031z"/><path d="m748.468 527.928-.053.037.143.187.043.106-.186-.293c-.33.219-3.31 2.108-5.993 2.108-1.182 0-2.145-.372-2.917-1.15-.074-.053-1.91-1.314-5.966-1.314-4.066 0-11.097 1.32-21.465 7.627l-.48.292.469.31c.128.084 3.21 2.107 9.484 2.107l1.278-.032c2.735.34 4.604 1.341 5.556 2.964 1.55 2.656.139 6.164.123 6.2l-.085.235c-2.944 5.669-2.56 9.41-2.54 9.57l.065.559.479-.293c19.235-11.837 18.176-21.151 18.117-21.566-.713-3.556 3.758-6.675 4.269-7.015l-.192-.293.24.26-.022-.036.032.032z"/><path d="m772.046 509.534-.053.043v.005c-.362.309-3.486 2.96-6.34 2.96-.877 0-1.644-.25-2.346-.794-.048-.021-1.288-.644-3.752-.644-4.311 0-11.726 1.858-22.546 10.688l-.431.356.505.245c.086.043 2.172 1.032 6.11 1.032 1.56 0 3.21-.154 4.839-.468h.202c2.666 0 4.593.745 5.721 2.204 1.88 2.416.974 6.057.964 6.094l-.053.245c-2.135 6.02-1.23 9.67-1.193 9.83l.139.543.436-.357c17.415-14.375 15.078-23.46 14.967-23.86-1.203-3.427 2.794-7.126 3.252-7.542l-.23-.255.278.218-.027-.032.032.027z"/><path d="m792.861 488.06-.043.053c-.351.405-3.443 3.848-6.456 3.848-.638 0-1.24-.16-1.841-.5-.032-.01-.735-.25-2.055-.25-3.656 0-11.454 1.799-22.61 13.822l-.377.415.527.176c.048.01 1.219.383 3.348.383 2.373 0 4.944-.452 7.573-1.33 2.89-.443 5.067.095 6.408 1.596 1.933 2.166 1.565 5.626 1.56 5.663l-.049.41c-1.23 6.158.145 9.59.203 9.74l.219.521.377-.415c15.27-16.643 11.704-25.318 11.534-25.702-1.66-3.225 1.788-7.44 2.182-7.909l-.26-.228.303.18-.032-.026.037.021z"/><path d="m810.514 463.914-.038.059c-.33.5-3.182 4.742-6.376 4.742l-1.384-.277-.803-.058c-2.337 0-10.805 1.219-21.748 16.909l-.319.463.554.096c.015.005.452.08 1.24.08 1.628 0 5.03-.336 9.447-2.528 1.096-.33 2.113-.496 3.018-.496 5.636 0 5.865 6.318 5.87 6.59l.011.32c-.383 6.333 1.469 9.574 1.549 9.707l.287.49.314-.469c12.822-18.59 8.09-26.686 7.872-27.037-2.086-2.96.73-7.595 1.07-8.144h.005l-.293-.186.325.133-.037-.021.042.016z"/><path d="m825.287 437.931-.313-.143.339.09-.037-.021.039.01-.651-.298-.031.064c-.271.58-2.731 5.605-6.143 5.605l-.925-.118h-.096c-1.006 0-10.118.554-19.911 19.8l-.203.527h.586c.745 0 4.742-.192 10.166-3.896 1.415-.65 2.715-.98 3.87-.98 4.769 0 5.742 5.546 5.779 5.78l.07.41c.5 6.26 2.762 9.187 2.857 9.314l.352.442.25-.506c10.134-20.187 4.333-27.548 4.067-27.873-2.486-2.645-.321-7.648-.065-8.207z"/><path d="m835.455 411.023v-.005l-.33-.107.351.048-.037-.01h.037l-.681-.208-.021.064c-.213.67-2.135 6.403-5.812 6.403l-.469-.027c-.393.032-9.724.963-17.223 22.269l-.186.532.559-.053c.175-.016 4.353-.468 9.644-5.216 1.612-1.016 3.108-1.527 4.454-1.527 4.163 0 5.727 4.97 5.743 5.019l.085.228c1.315 6.26 3.982 8.905 4.099 9.017l.404.393.186-.532c7.377-21.348.655-27.878.352-28.166-2.8-2.288-1.341-7.494-1.155-8.122z"/><path d="m844.198 390.906c-3.087-1.906-2.305-7.303-2.21-7.91l-.34-.058.277-.01.074.01-.037-.01h.037l-.702-.118-.01.07h-.006c-.128.729-1.357 7.057-5.386 7.148-.383.08-9.506 2.24-14.126 24.35l-.117.548.548-.128c.17-.043 4.253-1.032 8.868-6.445 1.708-1.427 3.358-2.145 4.89-2.145 3.69 0 5.664 4.22 5.685 4.263l.112.224c2.123 6.024 5.125 8.297 5.253 8.388l.452.335.112-.554c4.497-22.13-3.034-27.719-3.375-27.958m-278.359 165.18s32.53 18.56 34.846 6.94c2.235-11.224-34.846-6.94-34.846-6.94zm278.25-218.841c-6.073 0-10.996 4.923-10.996 10.996s4.923 10.996 10.996 10.996c6.072 0 10.996-4.923 10.996-10.996s-4.923-10.996-10.996-10.996z"/></g><g fill="#b9975b"><path d="m573.563 418.009c11.278 12.007 21.22 22.604 25.042 31.04.202.447.388.889.559 1.32.186.489.352.984.5 1.485.112.378.213.75.293 1.118.32 1.415.564 2.783.755 4.098.192 1.31.325 2.576.41 3.784.08 1.214.118 2.38.118 3.497a48.219 48.219 0 0 1 -.133 3.358 48.01 48.01 0 0 1 -.245 2.48l-.096.735c-.373 2.661-.899 5.003-1.378 7.068 3.763-3.082 9.021-7.787 13.141-11.534l1.091-.995c1.41-1.293 2.639-2.421 3.554-3.268.5-.463 1.007-.926 1.524-1.389.521-.463 1.048-.936 1.586-1.41 1.075-.953 2.192-1.922 3.336-2.917 4.28-3.731 8.649-7.531 12.034-11.188 2.022-2.187 3.7-4.327 4.781-6.36l.323-.596c1.219-2.262 2.038-3.795 1.99-6.488a16.413 16.413 0 0 0 -.18-2.076 15.827 15.827 0 0 0 -1.065-3.89c-.857-2.028-2.134-3.939-3.88-6.222a211.458 211.458 0 0 0 -5.44-6.84 269.767 269.767 0 0 0 -3.959-4.651 351.051 351.051 0 0 0 -2.432-2.747 435.885 435.885 0 0 0 -2.752-3.023 284.108 284.108 0 0 0 -1.677-1.804c-.442-.479-.888-.953-1.324-1.427-.532-.564-1.061-1.122-1.581-1.676-.091-.101-.182-.197-.272-.293-.346-.367-.691-.729-1.032-1.09-.372-.395-.74-.789-1.107-1.172-7.297-7.754-12.412-13.46-14.594-19.783a18.22 18.22 0 0 1 -.851-3.268c-.043-.224-.065-.452-.097-.681-.01-.075-.02-.144-.026-.213a23.035 23.035 0 0 1 -.117-5.136c2.32-16.074 22.417-26.841 36.628-8.968l5.55 6.903s26.155 33.01 40.132 49.945l7.195 8.489c.261.277.486.522.677.713 11.79 13.85 33.291 24.813 38.449 27.182-.373-.442-.804-.953-1.273-1.522-2.57-3.14-6.354-8.122-9.462-13.642a58.854 58.854 0 0 1 -2.348-4.609c-.139-.304-.277-.612-.415-.92a162.827 162.827 0 0 1 -2.347-5.45c-1.507-3.726-2.922-7.82-4.056-12.556a85.895 85.895 0 0 1 -1.415-7.377l-.065-.426c-.117-.852-.223-1.687-.32-2.507-.063-.57-.121-1.134-.175-1.687a73.943 73.943 0 0 1 -.197-2.491c-.005-.059-.01-.112-.01-.17a66.675 66.675 0 0 1 -.123-2.449 87.09 87.09 0 0 1 -.058-3.65c.006-1.161.038-2.263.086-3.295.087-2.175.272-4.345.552-6.504.006-.07.016-.128.027-.192.154-1.208.315-2.102.416-2.64a25.384 25.384 0 0 1 -3.041-.915c-2.687-.985-6.455-2.816-9.883-6.09a25.614 25.614 0 0 1 -4.7-6.05c-3.432-6.116-6.684-13.488-7.328-25.857-.788.58-1.57 1.176-2.363 1.778-3.588 2.72-7.297 5.54-11.901 7.717-2.513 1.187-7.127 3.034-12.61 3.662a33.207 33.207 0 0 1 -3.757.224 29.61 29.61 0 0 1 -3.161-.17 25.875 25.875 0 0 1 -3.013-.517c-13.077-3.034-21.144-9.101-25.397-19.086a29.312 29.312 0 0 1 -2.028-7.073 30.78 30.78 0 0 1 -.331-3.651c-.032-1.236.01-2.47.133-3.72.26-2.726.735-5.68 1.554-8.623a37.841 37.841 0 0 1 1.305-3.907 30.877 30.877 0 0 1 2.87-5.562c.387-.585.797-1.16 1.234-1.714a23.575 23.575 0 0 1 3.767-3.837 22.24 22.24 0 0 1 2.768-1.91c.33-.198.67-.384 1.016-.565a25.66 25.66 0 0 1 2.173-.995 18.836 18.836 0 0 1 1.623-.56 18.958 18.958 0 0 1 5.231-.718c6.616 0 12.907 3.167 15.813 7.835.1-.277.203-.58.315-.9.76-2.262 1.708-5.646 2.82-9.644 2.545-9.117 6.02-21.603 10.8-33.472a717.964 717.964 0 0 0 2.112-5.323 524.187 524.187 0 0 1 1.635-4.146c3.864-9.692 8.084-19.384 14.406-27.112-8.792-6.296-17.042-10.235-24.254-12.694a68.683 68.683 0 0 0 -1.782-.585c-11.14-3.513-19.592-3.513-23.425-3.513l-1.372.005c-14.413.192-26.969 2.188-38.913 6.275a115.725 115.725 0 0 0 -12.774 5.274 142.249 142.249 0 0 0 -3.289 1.65c-.521.277-1.048.538-1.575.82-9.58 5.163-18.414 11.827-26.212 19.645-.02.022-.038.043-.059.059-10.608 10.645-19.304 23.413-25.372 37.374a118.337 118.337 0 0 0 -5.972 17.297c-1.65 6.344-3.177 13.11-3.901 20.507a92.138 92.138 0 0 0 -.446 9.203c.01 3.97.286 8.116.919 12.475.25 1.74.561 3.513.933 5.323a98.923 98.923 0 0 0 2.385 9.287c2.262 7.409 5.562 15.371 10.224 23.978 2.129 3.928 4.571 7.807 7.211 11.624 9.128 13.179 20.79 25.612 31.365 36.874z"/><path d="m636.231 16.252-.506-.01a293.904 293.904 0 0 0 -8.728-.123c-24.26 0-72.64 2.89-124.092 22.253-53.804 20.241-96.787 52.814-127.747 96.804-12.758 18.128-29.944 47.608-39.365 85.104-15.573 62.011-10.352 109.04-5.854 131.548 4.359 21.86 14.024 48.998 25.212 70.825 2.246 4.391 13.716 24.579 21.332 35.628a360.077 360.077 0 0 0 25.292 32.51c12.098 13.837 19.773 21.113 25.936 26.968 2.113 2 3.938 3.73 5.679 5.476 8.798 8.835 18.431 16.24 26.931 22.77 8.686 6.674 16.186 12.438 20.566 17.973 17.032 21.535 12.875 30.913 8.069 41.77-2.188 4.641-5.908 8.314-9.852 12.2-1.72 1.697-3.497 3.448-5.157 5.3l-.565.639.852-.059c10.203-.638 31.306-6.445 45.66-24.147 10.64-13.13 14.845-25.75 17.554-36.357 1.692-6.622 2.39-14.387 3.13-22.6.43-4.826.883-9.808 1.548-14.705 1.08-7.888 3.486-16.228 6.6-22.886 5.035-10.789 10.432-18.921 16.452-24.824-1.853-1.895-3.652-3.853-5.44-5.823-6.45 6.733-14.099 18.272-17.84 27.049-6.712 15.754-7.516 24.898-8.101 31.577-.155 1.794-.293 3.343-.522 4.828-.245 1.597-.388 3.662-.564 6.052-.67 9.234-1.789 24.685-10.82 41.056-6.36 11.518-14.892 20.145-26.053 26.34 2.703-3.869 5.662-11.73 4.784-21.433-1.687-18.708-16.19-33.195-28.06-42.052-36.085-26.947-66.178-57.764-89.436-91.598-22.839-33.222-37.997-67.727-45.06-102.557-8.59-42.408-7.132-86.802 4.216-128.402 10.974-40.216 30.933-77.201 57.721-106.97 52.766-58.65 130.776-90.596 225.615-92.406l-1.096 3.097c-5.104 14.44-10.378 29.375-14.732 45.826-3.375 12.758-6.126 25.638-8.415 39.386-2.693 16.228-3.656 33.062-2.539 46.72l7.404-1.693c-2.784-49.557 14.695-103.664 29.8-140.585l.191-.469zm116.599 180.462c1.272-4.753 3.103-8.585 4.316-11.124.926-1.932 1.48-3.098 1.416-3.763l-.021-.17-.139-.09-.942-.171c-5.625 0-29.465 6.642-52.548 26.98-15.136 13.332-20.805 27.649-24.557 37.123l-.618 1.549c-9.484 23.716-18.122 55.507-20.272 68.248-1.416-5.391-3.423-11.698-5.589-14.3-2.129-2.566-5.647-5.978-11.565-5.978-.916 0-1.885.08-2.864.245-5.674.942-10.804 5.551-13.077 11.725l-.064.181c-1.533 4.157-2.975 8.074-2.768 14.94.112 3.81 1.171 7.861 2.768 10.56 5.674 9.607 14.45 14.477 26.08 14.477 1.5 0 3.066-.08 4.657-.24 4.524-.452 9.335-2.31 13.913-5.37 10.57-7.063 19.117-16.132 28.171-25.734 5.13-5.434 10.437-11.06 16.153-16.281 3.518-3.21 11.763-10.725 20.177-15.632 6.27-3.651 12.556-6.227 18.698-7.659l.969-.532-.202-1.24-.224-.564c-2.086-5.44-3.805-12.418-5.269-21.343-1.198-7.366-1.91-14.653-1.485-26.293.229-6.397 2.118-19.203 4.886-29.544zm-175.026 320.848c6.84-3.114 13.913-6.334 21.343-9.495 16.228-6.887 28.337-11.113 43.207-15.073 14.924-3.976 29.928-7.553 49.408-7.675h.33c5.588 0 12.688.84 17.553 2.054-6.765-20.087-30.396-27.01-39.348-29.63-8.51-2.49-28.193-5.753-34.644-6.365l-.92-.085.75-.543c2.118-1.544 3.305-3.023 4.795-4.897l1.187-1.469.123-.144.191.027c11.411 1.336 23.7 3.89 33.712 7.01 10.613 3.305 19.688 7.76 26.974 13.247 4.024 3.029 7.451 6.823 10.794 11.938 4.21 6.435 5.668 16.484 5.631 23.131v.644l-.538-.356c-5.035-3.316-10.203-5.36-15.36-6.078-3.688-.511-7.654-.767-11.79-.767-10.298 0-21.805 1.549-35.159 4.737-12.422 2.96-24.658 6.664-37.406 11.326-14.274 5.211-25.51 10.155-41.014 17.106a803.77 803.77 0 0 0 -7.078 3.22c-7.569 3.465-14.765 6.76-22.69 9.496.261-2.88.538-5.797.873-8.692 10.347-4.146 19.858-8.468 29.076-12.667z"/><path d="m447.086 559.296c-32.195 0-52.287-8.516-59.85-11.72l-1.416-.59c-9.49-3.88-28.054-15.856-37.767-25.484-15.658-15.51-26.846-34.798-27.794-36.836l-.404-.879.873.421c8.015 3.827 32.7 8.968 47.167 9.82 5.503.324 9.84.473 13.662.473 5.344 0 9.735-.298 14.525-.792.325.372.644.75.974 1.128a458.295 458.295 0 0 0 5.679 6.376c-4.982.479-10.778.777-18.352.958l-1.298.016c-9.437 0-36.192-1.985-44.085-3.965 15.115 19.591 28.692 32.919 52.473 42.808a127.435 127.435 0 0 0 27.117 7.877c9.187 1.591 19.858 2.363 32.637 2.363 1.81 0 3.7-.021 5.68-.048 3.246 2.496 6.312 4.854 9.069 7.095-6.387.638-12.726.979-18.89.979zm-113.366-170.953c-1.862.069-3.725.103-5.588.101-15.93 0-36.905-1.91-56.113-5.115-17.33-2.89-29.811-5.955-36.272-8.893.42.67.926 1.485 1.5 2.422 5.887 9.558 19.683 31.928 37.529 46.682 15.653 12.939 35.09 27.15 60.61 34.452 12.12 3.465 22.275 5.2 37.758 6.376a364.364 364.364 0 0 0 5.455 7.552c-.548.006-1.101.022-1.644.022-27.091 0-50.052-5.892-74.444-19.102-9.032-4.897-17.389-10.486-24.84-16.606-5.44-4.471-13.412-11.449-20.534-19.304-13.098-14.456-25.43-32.552-37.72-55.316l-.478-.894.926.41c5.19 2.278 11.326 4.258 17.18 6.057 13.482 4.151 27.128 7.238 41.728 9.447 17.59 2.661 31.875 3.8 47.741 3.8 1.48 0 2.997-.016 4.52-.037.85 2.64 1.75 5.29 2.687 7.946m-69.129-133.499-.564-.058c-32.541-3.39-69.27-12.162-90.837-18.65-15.616-4.689-30.439-9.835-44.048-15.28l-.521-.229c4.715 10.203 10.256 20.347 16.467 30.135 16.733 26.394 36.57 47.758 58.95 63.502 29.162 20.512 62.113 29.129 71.363 30.933l.01-.133h.32l.16.021 1.192.245c4.018.793 24.887 4.726 41.908 4.726a93.25 93.25 0 0 0 4.152-.09c.18.958.356 1.9.532 2.784.335 1.66.702 3.363 1.09 5.077-.217.006-.44.006-.68.006-7.883 0-24.664-1.3-34.532-2.672-13.109-1.831-38.321-6.45-59.909-16.894-36.825-17.808-66.295-44.543-90.113-81.725-6.541-10.219-16.212-26.979-25.137-48.795l-.373-.916-.053-.021-.038-.16-.425-.814.809.362h.165l.053.096c9.272 4.13 18.383 7.887 27.086 11.177 10.15 3.837 57.481 19.65 86.137 24.206 31.727 5.04 59.642 7.595 82.97 7.595 4.338 0 8.543-.096 12.545-.277-.404 2.491-.777 4.95-1.117 7.377-6.089.702-12.428 1.049-19.3 1.049-13.56 0-26.686-1.368-38.262-2.577z"/></g><path d="m829.437 534.47c-7.404 0-13.414 6.008-13.414 13.42 0 7.406 6.01 13.416 13.414 13.416 7.412 0 13.42-6.01 13.42-13.416 0-7.412-6.008-13.42-13.42-13.42zm0 23.96c-5.82 0-10.543-4.718-10.543-10.54 0-5.819 4.724-10.542 10.543-10.542 5.831 0 10.545 4.723 10.545 10.542 0 5.822-4.714 10.54-10.545 10.54z" fill="#010101"/><path d="m834.945 544.778a4.537 4.537 0 0 0 -2.806-4.208 4.524 4.524 0 0 0 -1.741-.348l-6.472-.003v15.336h2.883v-6.239h2.062l2.905 6.239h3.173l-3.024-6.491a4.56 4.56 0 0 0 3.02-4.286zm-4.547 1.674h-3.59v-3.352h3.59a1.677 1.677 0 0 1 0 3.352z" fill="#010101"/></g></svg>