<svg viewBox="0 0 960 640" xmlns="http://www.w3.org/2000/svg"><path d="m480 640c175.315 0 317.436-143.269 317.436-320s-142.119-320-317.436-320-317.437 143.269-317.437 320 142.121 320 317.438 320z" fill="#6cace4"/><path d="m480 590.726c149.517 0 270.726-121.208 270.726-270.726s-121.208-270.725-270.726-270.725-270.726 121.208-270.726 270.725 121.208 270.726 270.726 270.726z" fill="#6cace4"/><path d="m480 49.275c149.532 0 270.726 121.192 270.726 270.725s-121.193 270.725-270.726 270.725-270.797-121.192-270.797-270.725 121.264-270.725 270.798-270.725zm0-21.576c-39.449 0-77.757 7.762-113.788 23-34.819 14.74-66.079 35.816-92.924 62.661-26.844 26.845-47.92 58.104-62.66 92.924-15.238 36.03-23 74.339-23 113.787s7.762 77.757 23 113.788c14.74 34.819 35.817 66.079 62.66 92.923 26.845 26.845 58.105 47.922 92.924 62.662 36.031 15.238 74.34 22.999 113.788 22.999s77.757-7.761 113.787-22.999c34.82-14.74 66.08-35.817 92.924-62.662s47.921-58.104 62.661-92.923c15.238-36.031 23-74.34 23-113.788s-7.762-77.757-23-113.787c-14.74-34.82-35.817-66.079-62.66-92.924-26.846-26.845-58.105-47.922-92.925-62.661-36.03-15.238-74.339-23-113.787-23z" fill="#010101"/><g fill="#fff"><path d="m345.135 187.486-33.11-38.95 6.266-5.34 14.027 16.519 13.245-11.25-14.028-16.52 6.266-5.341 33.111 38.95-6.266 5.341-14.028-16.449-13.244 11.251 14.028 16.448z"/><path d="m345.065 188.34-33.894-39.875 7.192-6.124 14.027 16.52 12.319-10.467-14.027-16.52 7.19-6.124 33.894 39.875-7.19 6.124-14.028-16.448-12.32 10.467 14.028 16.448zm-32.115-39.733 32.328 38.024 5.34-4.557-14.027-16.449 14.17-12.033 14.027 16.448 5.341-4.557-32.328-38.024-5.34 4.557 14.028 16.52-14.17 12.034-14.027-16.52-5.341 4.557zm82.243 2.777-6.836-2.706-16.02-37.454 2.705-6.836 21.647-9.257 6.835 2.706 16.022 37.455-2.777 6.835-21.647 9.257zm1.425-8.972 12.817-5.483.926-2.207-12.675-29.693-2.278-.854-12.818 5.482-.926 2.208 12.675 29.693 2.278.854z"/><path d="m395.264 152.025-7.263-2.92-16.162-37.881 2.919-7.263 22.074-9.4 7.334 2.849 16.164 37.881-2.991 7.263-22.074 9.4v.071zm-6.408-3.774 6.337 2.563 21.148-9.043 2.635-6.337-15.808-37.027-6.408-2.493-21.148 9.044-2.564 6.337 15.808 37.027zm7.762-5.198-2.706-.997-12.888-30.12 1.139-2.706 13.245-5.697 2.706.997 12.888 30.121-1.14 2.705-13.245 5.697zm-1.851-1.994 1.78.712 12.39-5.269.782-1.78-12.46-29.195-1.78-.712-12.39 5.269-.783 1.781 12.46 29.194zm53.903-7.12-5.697-4.629-4.201-40.516 4.629-5.696 23.355-2.421 5.768 4.628 1.282 12.176-8.19.855-.854-7.975-1.923-1.496-13.885 1.424-1.567 1.852 3.276 32.114 1.922 1.495 13.886-1.424 1.567-1.852-.854-7.975 8.188-.854 1.282 12.176-4.7 5.697-23.355 2.421h.07z"/><path d="m448.527 134.58-6.053-4.914-4.2-41.014 4.912-6.053h.214l23.64-2.492 6.124 4.913 1.353 13.03-9.399.998-.855-8.331-1.495-1.21-13.387 1.352-1.282 1.495 3.276 31.616 1.495 1.21 13.387-1.353 1.282-1.495-.855-8.331 9.4-.997 1.352 13.031-4.984 6.052h-.214l-23.64 2.493h-.07zm-4.984-5.555 5.269 4.344 22.857-2.35 4.415-5.34-1.14-11.322-6.978.712.783 7.619-1.923 2.208-14.312 1.495-2.279-1.78-3.346-32.613 1.922-2.207 14.314-1.495 2.278 1.78.784 7.619 6.978-.712-1.14-11.322-5.34-4.272-22.857 2.35-4.344 5.269 4.13 40.017zm56.68 3.062 9.827-50.129 8.117 1.567-4.201 21.29 8.33 1.638 13.673-19.44 8.829 1.71-16.164 22.857 6.338 27.272-8.83-1.709-5.34-23.142-8.331-1.638-4.202 21.291-8.117-1.567h.07z"/><path d="m535.755 139.635-10.111-1.994-5.341-23.142-7.334-1.424-4.201 21.291-9.257-1.852 10.04-51.34 9.257 1.852-4.201 21.291 7.334 1.424 13.67-19.44 10.112 1.994-16.52 23.427 6.48 27.913h.071zm-9.115-2.991 7.547 1.496-6.195-26.631 15.808-22.36-7.548-1.494-13.67 19.439-9.258-1.852 4.201-21.29-6.907-1.353-9.613 48.99 6.907 1.353 4.201-21.291 9.257 1.851 5.341 23.142h-.07zm27.913 9.827 23.854-45.216 27.557 14.526-3.631 6.836-20.294-10.681-6.551 12.39 17.944 9.47-3.56 6.694-17.944-9.471-6.551 12.39 20.365 10.752-3.632 6.836-27.7-14.597z"/><path d="m582.537 161.851-28.767-15.167 24.424-46.212 28.625 15.095-4.202 7.904-20.293-10.681-5.982 11.322 17.944 9.47-4.13 7.762-17.944-9.47-5.981 11.321 20.365 10.752-4.201 7.904zm-27.2-15.665 26.63 14.028 3.062-5.768-20.365-10.752 7.12-13.458 17.944 9.47 2.991-5.625-17.944-9.47 7.12-13.458 20.294 10.681 3.062-5.768-26.489-13.957-23.284 44.148-.142-.071zm53.191 36.173 13.67-13.957v-6.052l11.75-26.631 6.337 6.195-10.324 23.569 1.139 1.139 23.284-10.894 6.338 6.195-26.275 12.247-6.053.214-13.672 13.956-6.123-6.052z"/><path d="m614.65 189.266-6.978-6.836 13.956-14.241.143-6.053 11.963-27.414 7.264 7.049-10.325 23.57.569.569 23.285-10.894 7.19 7.049-27.27 12.675-5.768.213-13.957 14.242-.071.071zm-5.269-6.907 5.27 5.198 13.458-13.743 6.123-.214 25.42-11.82-5.41-5.269-23.285 10.895-1.71-1.709 10.326-23.57-5.411-5.269-11.251 25.705v6.195l-13.53 13.743zm-239.251 352.399-2.564-6.836 16.805-37.099 6.836-2.563 21.433 9.684 2.634 6.907-5.055 11.179-7.548-3.418 3.275-7.334-.926-2.278-12.675-5.768-2.279.783-13.315 29.408.926 2.28 12.674 5.767 2.28-.784 3.274-7.334 7.548 3.418-5.056 11.179-6.907 2.564-21.433-9.684.072-.071z"/><path d="m391.563 545.082-21.861-9.897-2.777-7.335 16.947-37.596 7.335-2.777 21.86 9.897 2.848 7.334-5.412 11.963-8.615-3.916 3.417-7.619-.712-1.78-12.247-5.555-1.851.641-13.102 28.91.712 1.78 12.247 5.554 1.852-.641 3.417-7.619 8.616 3.917-5.412 11.962-7.406 2.706.143.071zm-20.935-10.752 20.935 9.471 6.479-2.421 4.7-10.397-6.41-2.919-3.133 6.978-2.777.997-13.173-5.91-1.068-2.706 13.53-29.835 2.777-.997 13.173 5.91 1.069 2.706-3.134 6.978 6.409 2.919 4.7-10.396-2.493-6.408-20.934-9.471-6.41 2.421-16.59 36.672 2.42 6.408zm59.884 21.932 7.263-50.557 8.189 1.211-6.195 42.866 22.857 3.275-1.14 7.762-30.975-4.486v-.071z"/><path d="m462.057 561.389-32.185-4.629 7.476-51.767 9.328 1.353-6.195 42.866 22.857 3.276-1.282 8.901zm-30.834-5.626 29.836 4.273.925-6.551-22.856-3.276 6.195-42.866-6.978-.997-7.121 49.417zm69.712 4.486-5.84-4.415-6.123-45.5 8.189-1.14 5.554 41.3 1.923 1.424 13.885-1.851 1.424-1.923-5.625-41.299 8.189-1.14 6.123 45.501-4.414 5.839-23.285 3.133z"/><path d="m500.793 560.89-6.195-4.771-6.266-46.355 9.328-1.282 5.624 41.656 1.495 1.139 13.387-1.78 1.14-1.495-5.625-41.656 9.328-1.282 6.266 46.356-4.771 6.195-23.782 3.204.07.071zm-5.127-5.412 5.412 4.13 22.786-3.062 4.128-5.411-6.052-44.646-6.978.925 5.554 40.944-1.709 2.278-14.384 1.923-2.278-1.71-5.554-40.943-6.979.926 6.053 44.646zm68.499-9.114-21.148-46.497 25.99-11.821 6.837 2.564 6.408 14.099-2.278 6.052v.143l6.337 2.278 6.55 14.455-2.562 6.836-26.133 11.891zm-4.627-30.191 14.17-6.409.854-2.207-4.415-9.755-2.207-.855-14.17 6.409 5.839 12.817zm9.043 19.866 14.312-6.479.784-2.279-4.558-9.969-2.278-.926-14.313 6.48 5.982 13.173h.07z"/><path d="m563.88 547.147-21.646-47.637 26.773-12.176 7.334 2.777 6.623 14.526-2.208 5.839 5.981 2.208 6.765 14.882-2.777 7.334-26.916 12.247zm-20.009-46.996 20.65 45.43 25.35-11.536 2.421-6.408-6.338-13.957-6.265-2.278-.285-.57 2.279-6.124-6.195-13.671-6.41-2.421-25.206 11.464v.071zm24.354 36.671-6.48-14.241 15.095-6.836 2.706 1.069 4.7 10.396-.998 2.777-15.095 6.835h.071zm-4.842-13.671 5.483 12.105 13.529-6.124.64-1.851-4.344-9.542-1.78-.712-13.529 6.124zm-4.13-6.195-6.337-13.885 14.953-6.765 2.706.997 4.628 10.254-.997 2.706-14.953 6.764zm-4.772-13.316 5.341 11.749 13.386-6.052.641-1.78-4.2-9.328-1.78-.641z"/></g><path d="m480.142 261.682v-29.693h-99.76v30.192c11.322-.143 22.715-.214 34.037-.285 0 51.838 0 103.747-.07 155.585 10.466-.427 21.004-.712 31.472-.926v-154.802h34.321zm67.148-30.049h-41.442c-11.536 61.522-23 122.902-34.607 184.495 11.108 0 22.217 0 33.396.143 1.71-10.824 3.347-21.647 5.056-32.542 11.392.143 22.714.428 34.107.784 1.78 10.965 3.49 21.931 5.27 32.968 11.036.427 22.145.997 33.181 1.638-11.606-63.231-23.284-125.608-34.89-187.486h-.072zm-33.253 122.688c4.13-27.2 8.33-54.472 12.46-81.744 4.273 27.343 8.546 54.686 12.747 82.172-8.402-.214-16.805-.356-25.207-.428zm-179.653 32.257c0 1.424-.498 2.706-1.424 3.845-.997 1.139-2.136 1.78-3.56 1.851-7.334.57-14.67 1.139-22.003 1.78-1.424.143-2.563-.285-3.56-1.21-.926-.926-1.424-2.065-1.424-3.561 0-52.478 0-104.957.07-157.436h-31.401v160.356c0 5.34.926 10.254 2.848 14.74 1.923 4.486 4.486 8.26 7.762 11.393 3.275 3.133 7.192 5.411 11.678 6.907 4.485 1.495 9.256 1.993 14.24 1.424a1122.7 1122.7 0 0 1 21.79-2.137c4.984-.427 9.755-1.851 14.17-4.129 4.415-2.279 8.26-5.27 11.535-8.83 3.276-3.56 5.91-7.69 7.833-12.39 1.922-4.699 2.848-9.613 2.848-14.668 0-50.913.07-101.754.142-152.666h-31.401c0 51.553-.072 103.106-.143 154.659zm325.126-84.379a6250.01 6250.01 0 0 1 -34.535 9.043v-79.324h-31.402c0 62.59.071 125.252.143 187.842 10.467.712 20.934 1.495 31.402 2.421v-80.249c11.535-2.849 23-5.697 34.534-8.545v92.069c10.468 1.14 20.935 2.35 31.331 3.632v-197.17h-31.401v70.209l-.071.072z" fill="#010101"/></svg>