<svg fill="none" viewBox="0 0 960 640" xmlns="http://www.w3.org/2000/svg"><path d="m472.199 396.301 140.9-70.3c96.5 27.1 125.1 63.7 125.1 63.7l55.2-62.4c3-3.2 12.1-14.5 12.1-35 0-22.1-23.1-39.3-39.3-50.9-27.5-72.1-179.5-93-190.7-118.1-3.9-8.7-26-83.7-26-83.7-13.2-38.8-52.3-38.8-67-38.8-14.8 0-46.5 5-46.5 5 0 54.1-7.3 120-15 132.1 0 0-27.5 14.4-59.7 26l-77-51.9 20.2 69.8c-129.7 71.3-161.3 195.6-161.3 195.6s33.3 261.8 361.5 261.8c173.5 0 273.7-83.9 273.7-83.9l-55.9-125s-85.4 44.4-194.5 44.4c-100.6 0-139.9-46.9-154.3-74.2 85.2 2.5 98.5-4.2 98.5-4.2z" fill="#97999b"/><path d="m753.599 250.599c-26.8-72.4-174.7-85.6-191-119.8-6.6-13.7-15-46.4-27.2-86.3-9.8-28.8-38.7-28.8-53.1-28.8-13.8 0-31.7 2.8-31.7 2.8 0 29.5-5.6 115.2-19.3 130-3.4 4.2-28.6 14.4-56 25l8.2 5.5-8.4 8.4-15.8 15.8-17.3 54.2-22.6-11.8 8 20.1-40.3 6.7 22.8 7.9-65.6 50.4 17.7 1.4-23.4 42.3c33.7-15.3 44-18.2 44-18.2l-9.7-10 68-27.4s-5.1 13.6-5.1 40c0 3.8.6 9.4 1.9 15.9 8.4 41.1 48.5 125.9 190.2 125.9 102.5 0 181.6-35.8 181.6-35.8l36.7 82.2s-96.2 66.6-241.7 66.6c-297.4 0-335.1-233.8-335.1-233.8 41-109.7 110-157.7 153.9-178.1l-13.7-1.5-1.2-4.1c-115.9 63.9-150.2 182.4-150.2 182.4s35.3 246 346.5 246c159.2 0 255.5-73.8 255.5-73.8l-45-100.7s-84.1 39.4-187.2 39.4c-153.5 0-176.2-104.7-176.2-104.7s87.4 5.2 115.4-2.3l144.5-72.2c97.9 27.6 126.1 57.5 126.1 57.5l44.8-50.4s8.2-7.7 8.2-25c-.1-16.2-24.3-32.5-37.2-41.7zm-314.7 26.8-73.3-9.9 36.9-20.6zm-12.2-98.8-45.5 72.7-16-38.2zm-150.5 137.8 85.1-57.3-6.4 45.5z" fill="#00205b"/><g fill="#fff"><path d="m349.1 300.2 5.4-30.9-57.6 39.1zm29-34.7 47.8 5.8-28.1-16.4zm-3.7-50.4 5.3 23.6 33.7-45.6z"/><path d="m246.7 335.8-17 .4 71-52.9-30.8-12.2 50.4-9.7-17.5-35.4 31.1 17.7 12.4-38.6c-37.4 13-117.7 54.2-164.3 175.7 5.6 27.9 54.3 220.7 322.7 220.7 115.9 0 200.5-43.9 226.5-59.3l-27.7-62.1c-25.7 9.9-92.8 32.3-175.4 32.3-163.2.1-204.2-111.7-204.2-153.7 0-9.3.6-17.2 1.4-23.6l-37.5 12.4 4.9 10.6-29.3 10.6-25.2 16.6 51.2 9.5-10.6 36.6 22-6.5 21.1 53.7 25.2-3.2 8.4 37.7s47.5 32.9 128 40.1c106.3 9.5 201.4-26.8 201.4-26.8s-113.4 44.5-216.6 33.6c-78.8-8.3-130.1-40.4-130.1-40.4l-.6-34-31.1.4-14.6-52.1-27.7 13 12.2-46.6-53.1-6.5 10.8-32.5zm109.2-132.9 15.4-20.7-74.9-51.7 21.4 63.1zm445.7 321.9c-8.4 0-15.2 6.8-15.2 15.2s6.8 15.2 15.2 15.2 15.2-6.8 15.2-15.2-6.8-15.2-15.2-15.2zm0 27.2c-6.6 0-12-5.4-12-12s5.3-11.9 12-11.9c6.6 0 12 5.3 12 11.9-.1 6.7-5.4 12-12 12z"/><path d="m807.9 536.501c0-2.8-2.3-5.2-5.2-5.2h-7.3v17.4h3.3v-7.1h2.3l3.3 7.1h3.6l-3.4-7.4c1.9-.6 3.4-2.5 3.4-4.8zm-5.2 1.9h-4.1v-3.8h4.1c1 0 1.9.8 1.9 1.9s-.9 1.9-1.9 1.9z"/></g><path d="m717.199 255.5c-61.3-5-85.1-25.1-85.1-40.9 0-7.6 7-9 11.7-9 25 0 63.7 19.8 70 36.7-11-11.8-30.2-22.1-44.8-22.1-3.1 0-6.4.9-6.4 4.8 0 9.9 17.6 25.4 81.9 32.6-24.6-71-160.4-76-190.9-120.6-8.5-12.4-22.5-91.6-36.6-102.5-15.5-11.9-55.3-6.5-55.3-6.5 0 11-2.7 108.2-22.8 128.5-13.6 11.4-36.4 16.4-63.7 30.8l-15.8 15.8-17.3 54.2-22.6-11.8 8 20.1-40.3 6.7 22.8 7.9-65.6 50.4 17.7 1.4-23.4 42.3c33.7-15.3 44-18.2 44-18.2l-9.7-10 68-27.4s-5.1 13.6-5.1 40c0 3.8.6 9.4 1.9 15.9 2.9-5.6 56.4-104.3 171-111l-48 37.1-95.2 73.5s78.4 3.3 97.6-2.2c60.6-28.2 109.1-54.5 147.1-73.6 36.5-18.3 63.4-29.8 82-29.8 23 0 54.9 22.2 82.2 41 0 0 1.7-1.4 3.1-4.4 6.6-23.5-27.5-41.9-60.4-49.7zm-362.3 49.1-78.7 11.8 85.1-57.3zm71.8-126-45.5 72.7-16-38.2zm-61.1 88.9 36.9-20.6 36.4 30.5zm133-121.5c-11.3.7-34.2 8.1-34.2 8.1s20.6-11.9 24.8-18.3 5.3-78.5 5.3-78.5 6.6 70.6 12.2 77.7 26.4 15.9 26.4 15.9-26.2-5.4-34.5-4.9z" fill="#041c2c"/><g fill="#fff"><path d="m506.799 135.001c-5.6-7.1-12.2-77.7-12.2-77.7s-1.1 72.1-5.3 78.5-24.8 18.3-24.8 18.3 22.9-7.5 34.2-8.1c8.3-.5 34.6 4.9 34.6 4.9s-20.9-8.8-26.5-15.9zm-169.1 239.6c2.9-2.9 61.5-61.3 123.1-73.9l48-37.1c-114.6 6.8-168.1 105.5-171.1 111zm442.3-79.5c0-14.6-19.2-24.5-35.5-37.5-64.3-7.2-81.9-22.7-81.9-32.6 0-3.9 3.3-4.8 6.4-4.8 14.6 0 33.8 10.3 44.8 22.1-6.4-16.8-45-36.7-70-36.7-4.7 0-11.7 1.5-11.7 9 0 15.8 23.8 35.9 85.1 40.9 32.9 7.8 67 26.1 60.4 49.8 1.3-2.4 2.4-5.7 2.4-10.2zm-120.6-.1 23.9 8.5c4.4-1.9 9.2-4.2 9.6-4.8.3-.7.3-1.2-.7-2.1-.7-.7-11.4-4.6-18-7.1zm20.1-7.6c6.4 2.5 15.2 6.1 15.9 6.2 1 .2 2.7.3 3.7 0 .8-.2 6-2.8 9.8-4.8-3.7-1.8-11.2-5.3-16.2-5.3-4.8.1-13.2 3.9-13.2 3.9zm23.6 8.3c-.2.5 0 .9.8 1.5.9.7 13.3 7.1 14.3 7.2s1.8.1 2.8-.1c.7-.2 5-2.9 7.9-4.9l-16.5-8.9c-4.3 2.1-8.9 4.6-9.3 5.2zm11.7 13.1c.3-.6.4-1 .2-1.6-.8-.9-13.1-7.3-14.4-7.5-1.4-.2-2.2-.2-3.4.4-1.1.5-7.3 4-9.6 5.2l19.2 8.7c3.7-2.2 7.7-4.7 8-5.2zm23.6 6.8c.5.1 1.7-.2 3-.7.7-.3 3.5-2.6 5.4-4.2l-14.8-9.4c-3.6 2.3-7.3 4.8-7.7 5.3 0 .1.1.5.8 1.6zm6.1 1.5c-.4.9-.5 1.2-.3 1.4.5.5 8.2 5.6 13.4 9.1l6-6-13.7-8.8c-2.5 1.7-5.2 3.8-5.4 4.3zm-8.5 2.5c.3-.5.1-1.1-.4-1.7-.8-.7-12.6-7.1-13.5-7.3-1-.2-2.8.1-3.7.4-.5.2-4 2.6-7.2 4.9l18.1 8.4c3.1-2 6.4-4.3 6.7-4.7zm3.2 2.4c-.5.2-3.9 2.8-6.5 4.8l16.4 10.1 6.1-6.7c-5-3.4-12.2-8.4-12.8-8.6s-2.4.1-3.2.4z"/><path d="m610.398 298.501c88.4 23.5 126.1 54.1 126.1 54.1l9.4-10.6c-4.4-3.3-37-25.7-100.8-46.6 19-7.5 42-16.4 48.2-16.4 14.1 0 43.1 18.3 74.2 38.7l7.1-8c-27.2-18.8-59.1-41-82.2-41-18.7 0-45.6 11.5-82 29.8z"/></g></svg>