<?xml version="1.0" encoding="UTF-8" standalone="no"?>
<!DOCTYPE svg PUBLIC "-//W3C//DTD SVG 1.1//EN" "http://www.w3.org/Graphics/SVG/1.1/DTD/svg11.dtd">
<svg width="100%" height="100%" viewBox="0 0 30 30" version="1.1" xmlns="http://www.w3.org/2000/svg" xmlns:xlink="http://www.w3.org/1999/xlink" xml:space="preserve" xmlns:serif="http://www.serif.com/" style="fill-rule:evenodd;clip-rule:evenodd;stroke-linejoin:round;stroke-miterlimit:2;">
    <g transform="matrix(1,0,0,1,0,1.00005)">
        <path d="M6,2C5.995,2 5.991,2 5.986,2C5.437,2 4.986,2.451 4.986,3C4.986,3.549 5.437,4 5.986,4C5.991,4 5.995,4 6,4L24,4C24.005,4 24.009,4 24.014,4C24.563,4 25.014,3.549 25.014,3C25.014,2.451 24.563,2 24.014,2C24.009,2 24.005,2 24,2L6,2ZM5,6C4.995,6 4.991,6 4.986,6C4.437,6 3.986,6.451 3.986,7C3.986,7.549 4.437,8 4.986,8C4.991,8 4.995,8 5,8L25,8C25.005,8 25.009,8 25.014,8C25.563,8 26.014,7.549 26.014,7C26.014,6.451 25.563,6 25.014,6C25.009,6 25.005,6 25,6L5,6ZM5,10C3.895,10 3,10.895 3,12L3,24C3,25.105 3.895,26 5,26L25,26C26.105,26 27,25.105 27,24L27,12C27,10.895 26.105,10 25,10L5,10ZM13,14C13.204,14 13.383,14.077 13.541,14.182L18.547,17.186C18.814,17.366 19,17.654 19,18C19,18.346 18.814,18.634 18.547,18.814L13.541,21.818C13.383,21.923 13.204,22 13,22C12.448,22 12,21.552 12,21L12,15C12,14.448 12.448,14 13,14Z" style="fill:white;fill-rule:nonzero;"/>
    </g>
</svg>
