<?xml version="1.0" standalone="no"?><!DOCTYPE svg PUBLIC "-//W3C//DTD SVG 1.1//EN" "http://www.w3.org/Graphics/SVG/1.1/DTD/svg11.dtd"><svg class="icon" width="96px" height="96.00px" viewBox="0 0 1024 1024" version="1.1" xmlns="http://www.w3.org/2000/svg"><path d="M393.242402 689.964428l-9.597104-35.831808C298.94081 690.16983 224.405929 752.122716 173.505446 836.862166A453.887048 453.887048 0 0 0 125.563632 947.8101l50.494049 14.168401a401.59682 401.59682 0 0 1 42.409057-98.108093c45.153585-75.129237 111.284444-130.015403 186.435532-161.835307a17.43736 17.43736 0 0 1-3.518063-1.450928 17.494173 17.494173 0 0 1-8.141805-10.619745zM794.179311 682.093579c-102.089405-61.336678-218.906606-77.432367-327.136234-54.352994l10.619746 39.607718c1.123158 4.195455 0.423916 8.377799-1.31545 12.01823 96.110882-20.933572 200.040169-6.848206 290.823697 47.69708 34.586282 20.771873 65.588947 46.364148 92.168902 76.086324l39.096396-34.962125c-30.080538-33.633564-65.160661-62.599685-104.257057-86.094233z" fill="#3BABB7" /><path d="M771.95214 901.633873m-69.92425 0a69.92425 69.92425 0 1 0 139.848501 0 69.92425 69.92425 0 1 0-139.848501 0Z" fill="#FFDC82" /><path d="M527.217265 814.228561m-87.405313 0a87.405313 87.405313 0 1 0 174.810626 0 87.405313 87.405313 0 1 0-174.810626 0Z" fill="#FFDC82" /><path d="M352.40664 954.077061m-69.924251 0a69.92425 69.92425 0 1 0 139.848501 0 69.92425 69.92425 0 1 0-139.848501 0Z" fill="#FFDC82" /><path d="M573.515859 361.018904c68.626281-59.667237 230.072634-9.38296 231.711484-8.87164a17.463581 17.463581 0 0 0 17.070258-3.754058 17.472322 17.472322 0 0 0 5.288021-16.663823l-67.564307-307.247155a17.459211 17.459211 0 0 0-12.586365-13.137018c-6.450512-1.721885-159.663285-41.150421-288.350126 37.881462-85.22018 52.338301-121.768711 54.357364-132.794892 53.159911l85.06285 317.473577c35.783735-0.117997 103.728255-8.006327 162.163077-58.841256zM448.0062 162.801135a17.502914 17.502914 0 0 1 14.115958-11.895863l42.596979-6.188296 19.054359-38.598186c5.869267-11.930825 25.465538-11.930825 31.334804 0l19.054358 38.598186 42.61009 6.188296a17.502914 17.502914 0 0 1 14.115958 11.895863 17.502914 17.502914 0 0 1-4.413968 17.92683l-30.854075 30.045576 7.289603 42.422169a17.498544 17.498544 0 0 1-6.948723 17.105219 17.43736 17.43736 0 0 1-18.398818 1.328561l-38.121827-20.033297-38.086865 20.033297a17.529135 17.529135 0 0 1-18.42067-1.328561 17.485433 17.485433 0 0 1-6.948722-17.096479l7.276492-42.435279-30.832224-30.049946a17.498544 17.498544 0 0 1-4.422709-17.91809z" fill="#4A8F9E" /><path d="M483.261133 210.773541l-7.272122 42.430909a17.485433 17.485433 0 0 0 25.365022 18.42504l38.086865-20.033297 38.121827 20.033297a17.43736 17.43736 0 0 0 18.398818-1.328561 17.498544 17.498544 0 0 0 6.948723-17.105219l-7.289603-42.422169 30.854075-30.045576a17.502914 17.502914 0 0 0 4.413968-17.92683 17.502914 17.502914 0 0 0-14.115958-11.895863l-42.61009-6.188296-19.054358-38.598186c-5.869267-11.930825-25.465538-11.930825-31.334804 0l-19.054359 38.598186-42.592608 6.188296a17.502914 17.502914 0 0 0-14.115958 11.895863 17.498544 17.498544 0 0 0 4.413968 17.91809l30.836594 30.054316z" fill="#FFDC82" /><path d="M477.658453 667.348303l-10.619746-39.607718-55.685925-207.880425L326.289932 102.386583 309.713515 40.538584a17.485433 17.485433 0 0 0-21.409932-12.359111l-50.651378 13.569675a17.489803 17.489803 0 0 0-12.359112 21.409931l158.352205 590.973541 9.597104 35.836178a17.494173 17.494173 0 0 0 8.141805 10.615375c1.110047 0.633689 2.30313 1.075085 3.518063 1.450928 1.691293 0.528802 3.44814 0.887164 5.222468 0.887164 1.520852 0 3.041705-0.205402 4.527595-0.598726l50.647008-13.569675c5.121951-1.367893 8.915342-4.951511 11.048032-9.387331 1.739366-3.640431 2.438608-7.822775 1.31108-12.01823z" fill="#89714D" /></svg>