<svg width="32" height="32" viewBox="0 0 24 24" fill="none" xmlns="http://www.w3.org/2000/svg"><path d="M2.5 2.5a1 1 0 011-1h12.865a5.24 5.24 0 013.631 1.447A4.848 4.848 0 0121.5 6.441V21.5a1 1 0 01-1 1H7.635a5.24 5.24 0 01-3.63-1.447A4.849 4.849 0 012.5 17.559V2.5z" fill="#C7468F"/><path d="M7 8.5a.75.75 0 01.75-.75h8.5a.75.75 0 010 1.5h-8.5A.75.75 0 017 8.5zM7 12a.75.75 0 01.75-.75h8.5a.75.75 0 010 1.5h-8.5A.75.75 0 017 12zm0 3.5a.75.75 0 01.75-.75h4.5a.75.75 0 010 1.5h-4.5A.75.75 0 017 15.5z" fill="#fff"/></svg>