<svg width="32" height="32" fill="none" xmlns="http://www.w3.org/2000/svg"><path d="M4 4a2.667 2.667 0 012.667-2.667h12.781c.354 0 .693.14.943.391l7.218 7.219c.25.25.39.589.391.942V28a2.667 2.667 0 01-2.667 2.667H6.667A2.667 2.667 0 014 28V4z" fill="#14C0FF"/><path opacity=".6" d="M20 1.977a.267.267 0 01.455-.189l7.092 7.092a.267.267 0 01-.19.455h-4.69A2.667 2.667 0 0120 6.668v-4.69z" fill="#049FD7"/><path d="M10.667 16.667a2 2 0 10-1.334-.51v6.51a2 2 0 002 2h1.334a.667.667 0 000-1.334h-1.334a.667.667 0 01-.666-.666V20h2a.666.666 0 100-1.333h-2v-2zm5.666-3.334a1 1 0 000 2H23a1 1 0 100-2h-6.667zm0 4.667a1 1 0 000 2H23a1 1 0 000-2h-6.667zm-1 5.667a1 1 0 011-1H23a1 1 0 110 2h-6.667a1 1 0 01-1-1z" fill="#fff"/></svg>