<svg width="32" height="32" fill="none" xmlns="http://www.w3.org/2000/svg"><path d="M4 4a2.667 2.667 0 012.667-2.667h12.781c.354 0 .693.14.943.391l7.218 7.219c.25.25.39.589.391.942V28a2.667 2.667 0 01-2.667 2.667H6.667A2.667 2.667 0 014 28V4z" fill="#34C724"/><path opacity=".5" d="M20 1.977a.267.267 0 01.455-.189l7.092 7.092a.267.267 0 01-.19.455h-4.69A2.667 2.667 0 0120 6.668v-4.69z" fill="#2EA121"/><path d="M11.396 13.213h1.455c.065 0 .125.031.162.084l2.798 4.055 2.813-4.055a.197.197 0 01.161-.085h1.456a.196.196 0 01.16.31l-3.644 5.113 3.934 5.54a.196.196 0 01-.16.31h-1.456a.195.195 0 01-.162-.085l-3.102-4.484-3.087 4.484a.197.197 0 01-.163.085h-1.454a.195.195 0 01-.196-.21.196.196 0 01.036-.099l3.904-5.541-3.614-5.114a.196.196 0 01.16-.309l-.001.001z" fill="#fff"/></svg>