<svg xmlns="http://www.w3.org/2000/svg" viewBox="0 0 256 256"><rect width="256" height="256" fill="none"/><polygon points="192 104 152 104 152 64 192 104" opacity="0.2"/><polygon points="64 152 104 152 104 192 64 152" opacity="0.2"/><polygon points="152 192 152 152 192 152 152 192" opacity="0.2"/><polygon points="104 64 104 104 64 104 104 64" opacity="0.2"/><polygon points="192 104 152 104 152 64 192 104" fill="none" stroke="currentColor" stroke-linecap="round" stroke-linejoin="round" stroke-width="16"/><line x1="208" y1="48" x2="172" y2="84" fill="none" stroke="currentColor" stroke-linecap="round" stroke-linejoin="round" stroke-width="16"/><polygon points="64 152 104 152 104 192 64 152" fill="none" stroke="currentColor" stroke-linecap="round" stroke-linejoin="round" stroke-width="16"/><line x1="48" y1="208" x2="84" y2="172" fill="none" stroke="currentColor" stroke-linecap="round" stroke-linejoin="round" stroke-width="16"/><polygon points="152 192 152 152 192 152 152 192" fill="none" stroke="currentColor" stroke-linecap="round" stroke-linejoin="round" stroke-width="16"/><line x1="208" y1="208" x2="172" y2="172" fill="none" stroke="currentColor" stroke-linecap="round" stroke-linejoin="round" stroke-width="16"/><polygon points="104 64 104 104 64 104 104 64" fill="none" stroke="currentColor" stroke-linecap="round" stroke-linejoin="round" stroke-width="16"/><line x1="48" y1="48" x2="84" y2="84" fill="none" stroke="currentColor" stroke-linecap="round" stroke-linejoin="round" stroke-width="16"/></svg>