<svg xmlns="http://www.w3.org/2000/svg" viewBox="0 0 256 256"><rect width="256" height="256" fill="none"/><polygon points="208 96 160 96 160 48 208 96" opacity="0.2"/><polygon points="48 160 96 160 96 208 48 160" opacity="0.2"/><polygon points="160 208 160 160 208 160 160 208" opacity="0.2"/><polygon points="96 48 96 96 48 96 96 48" opacity="0.2"/><polygon points="208 96 160 96 160 48 208 96" fill="none" stroke="currentColor" stroke-linecap="round" stroke-linejoin="round" stroke-width="16"/><polygon points="48 160 96 160 96 208 48 160" fill="none" stroke="currentColor" stroke-linecap="round" stroke-linejoin="round" stroke-width="16"/><polygon points="160 208 160 160 208 160 160 208" fill="none" stroke="currentColor" stroke-linecap="round" stroke-linejoin="round" stroke-width="16"/><polygon points="96 48 96 96 48 96 96 48" fill="none" stroke="currentColor" stroke-linecap="round" stroke-linejoin="round" stroke-width="16"/></svg>