<svg xmlns="http://www.w3.org/2000/svg" viewBox="0 0 256 256"><rect width="256" height="256" fill="none"/><path d="M32,216V56a8,8,0,0,1,8-8H216a8,8,0,0,1,8,8V216l-32-16-32,16-32-16L96,216,64,200Z" opacity="0.2"/><path d="M32,216V56a8,8,0,0,1,8-8H216a8,8,0,0,1,8,8V216l-32-16-32,16-32-16L96,216,64,200Z" fill="none" stroke="currentColor" stroke-linecap="round" stroke-linejoin="round" stroke-width="16"/><polyline points="64 160 96 96 128 160" fill="none" stroke="currentColor" stroke-linecap="round" stroke-linejoin="round" stroke-width="16"/><line x1="72" y1="144" x2="120" y2="144" fill="none" stroke="currentColor" stroke-linecap="round" stroke-linejoin="round" stroke-width="16"/><line x1="144" y1="128" x2="192" y2="128" fill="none" stroke="currentColor" stroke-linecap="round" stroke-linejoin="round" stroke-width="16"/><line x1="168" y1="104" x2="168" y2="152" fill="none" stroke="currentColor" stroke-linecap="round" stroke-linejoin="round" stroke-width="16"/></svg>