<svg xmlns="http://www.w3.org/2000/svg" viewBox="0 0 256 256"><rect width="256" height="256" fill="none"/><path d="M104,192h16a20,20,0,0,0,0-40H104v56" fill="none" stroke="currentColor" stroke-linecap="round" stroke-linejoin="round" stroke-width="16"/><polygon points="152 32 152 88 208 88 152 32" opacity="0.2"/><path d="M48,112V40a8,8,0,0,1,8-8h96l56,56v24" fill="none" stroke="currentColor" stroke-linecap="round" stroke-linejoin="round" stroke-width="16"/><polyline points="152 32 152 88 208 88" fill="none" stroke="currentColor" stroke-linecap="round" stroke-linejoin="round" stroke-width="16"/><path d="M200,184h8v16.87A22.12,22.12,0,0,1,192,208c-13.25,0-24-12.54-24-28s10.75-28,24-28a21.28,21.28,0,0,1,12,3.75" fill="none" stroke="currentColor" stroke-linecap="round" stroke-linejoin="round" stroke-width="16"/><path d="M36,190a18,18,0,0,0,36,0V152" fill="none" stroke="currentColor" stroke-linecap="round" stroke-linejoin="round" stroke-width="16"/></svg>