<svg xmlns="http://www.w3.org/2000/svg" viewBox="0 0 256 256"><rect width="256" height="256" fill="none"/><path d="M99.72,128.71a8,8,0,0,1-1.38-12.42L144,72h40L128,56,72,72,40,136l56,40,64,16,40-40-40-32C141,139.13,117.23,139.9,99.72,128.71Z" opacity="0.2"/><path d="M184,72H144L98.34,116.29a8,8,0,0,0,1.38,12.42C117.23,139.9,141,139.13,160,120l40,32,16-16" fill="none" stroke="currentColor" stroke-linecap="round" stroke-linejoin="round" stroke-width="16"/><polyline points="200 152 160 192 96 176 40 136" fill="none" stroke="currentColor" stroke-linecap="round" stroke-linejoin="round" stroke-width="16"/><polyline points="56 192 80 208 112 216" fill="none" stroke="currentColor" stroke-linecap="round" stroke-linejoin="round" stroke-width="16"/><polyline points="72 72 128 56 184 72" fill="none" stroke="currentColor" stroke-linecap="round" stroke-linejoin="round" stroke-width="16"/><path d="M36.42,63.16,11.58,112.84a8,8,0,0,0,3.58,10.74L40,136,72,72,47.16,59.58A8,8,0,0,0,36.42,63.16Z" fill="none" stroke="currentColor" stroke-linecap="round" stroke-linejoin="round" stroke-width="16"/><path d="M208.84,59.58,184,72l32,64,24.84-12.42a8,8,0,0,0,3.58-10.74L219.58,63.16A8,8,0,0,0,208.84,59.58Z" fill="none" stroke="currentColor" stroke-linecap="round" stroke-linejoin="round" stroke-width="16"/></svg>