<svg xmlns="http://www.w3.org/2000/svg" viewBox="0 0 256 256"><rect width="256" height="256" fill="none"/><path d="M128,216S24,160,24,94A54,54,0,0,1,78,40c22.59,0,41.94,12.31,50,32Z" opacity="0.2"/><path d="M128,216S24,160,24,94A54,54,0,0,1,78,40c22.59,0,41.94,12.31,50,32,8.06-19.69,27.41-32,50-32a54,54,0,0,1,54,54C232,160,128,216,128,216Z" fill="none" stroke="currentColor" stroke-linecap="round" stroke-linejoin="round" stroke-width="16"/><line x1="128" y1="72" x2="128" y2="216" fill="none" stroke="currentColor" stroke-linecap="round" stroke-linejoin="round" stroke-width="16"/></svg>