<svg xmlns="http://www.w3.org/2000/svg" viewBox="0 0 256 256"><rect width="256" height="256" fill="none"/><path d="M96,184s-8,32-56,32c0-48,32-56,32-56Z" opacity="0.2"/><path d="M136,72H74.35a8,8,0,0,0-5.65,2.34L34.35,108.69a8,8,0,0,0,4.53,13.57L80,128Z" opacity="0.2"/><path d="M184,120v61.65a8,8,0,0,1-2.34,5.65l-34.35,34.35a8,8,0,0,1-13.57-4.53L128,176Z" opacity="0.2"/><path d="M96,184s-8,32-56,32c0-48,32-56,32-56" fill="none" stroke="currentColor" stroke-linecap="round" stroke-linejoin="round" stroke-width="16"/><path d="M191.11,112.89c24-24,25.5-52.55,24.75-65.28a8,8,0,0,0-7.47-7.47c-12.73-.75-41.26.73-65.28,24.75L80,128l48,48Z" fill="none" stroke="currentColor" stroke-linecap="round" stroke-linejoin="round" stroke-width="16"/><path d="M136,72H74.35a8,8,0,0,0-5.65,2.34L34.35,108.69a8,8,0,0,0,4.53,13.57L80,128" fill="none" stroke="currentColor" stroke-linecap="round" stroke-linejoin="round" stroke-width="16"/><path d="M184,120v61.65a8,8,0,0,1-2.34,5.65l-34.35,34.35a8,8,0,0,1-13.57-4.53L128,176" fill="none" stroke="currentColor" stroke-linecap="round" stroke-linejoin="round" stroke-width="16"/></svg>