<svg xmlns="http://www.w3.org/2000/svg" viewBox="0 0 256 256"><rect width="256" height="256" fill="none"/><path d="M112,80H96a72,72,0,0,0,0,144h16V192a20,20,0,0,1,0-40Z" opacity="0.2"/><line x1="112" y1="152" x2="112" y2="80" fill="none" stroke="currentColor" stroke-linecap="round" stroke-linejoin="round" stroke-width="16"/><circle cx="148" cy="116" r="12"/><line x1="112" y1="192" x2="112" y2="224" fill="none" stroke="currentColor" stroke-linecap="round" stroke-linejoin="round" stroke-width="16"/><path d="M112,24a16,16,0,0,0,16,16h84a20,20,0,0,1,0,40" fill="none" stroke="currentColor" stroke-linecap="round" stroke-linejoin="round" stroke-width="16"/><path d="M168,192H112a20,20,0,0,1,0-40h32a72,72,0,0,0,72-72H96a72,72,0,0,0,0,144h56" fill="none" stroke="currentColor" stroke-linecap="round" stroke-linejoin="round" stroke-width="16"/><line x1="95.6" y1="160.55" x2="27.55" y2="129.61" fill="none" stroke="currentColor" stroke-linecap="round" stroke-linejoin="round" stroke-width="16"/><line x1="92.69" y1="177.22" x2="50.21" y2="207.56" fill="none" stroke="currentColor" stroke-linecap="round" stroke-linejoin="round" stroke-width="16"/></svg>