<svg xmlns="http://www.w3.org/2000/svg" viewBox="0 0 256 256"><rect width="256" height="256" fill="none"/><path d="M158.55,163.31l-23.07,63.45a8,8,0,0,1-15,0L97.45,163.31a8,8,0,0,0-4.76-4.76L29.24,135.48a8,8,0,0,1,0-15L92.69,97.45a8,8,0,0,0,4.76-4.76l23.07-63.45a8,8,0,0,1,15,0l23.07,63.45a8,8,0,0,0,4.76,4.76l63.45,23.07a8,8,0,0,1,0,15l-63.45,23.07A8,8,0,0,0,158.55,163.31Z" opacity="0.2"/><path d="M158.55,163.31l-23.07,63.45a8,8,0,0,1-15,0L97.45,163.31a8,8,0,0,0-4.76-4.76L29.24,135.48a8,8,0,0,1,0-15L92.69,97.45a8,8,0,0,0,4.76-4.76l23.07-63.45a8,8,0,0,1,15,0l23.07,63.45a8,8,0,0,0,4.76,4.76l63.45,23.07a8,8,0,0,1,0,15l-63.45,23.07A8,8,0,0,0,158.55,163.31Z" fill="none" stroke="currentColor" stroke-linecap="round" stroke-linejoin="round" stroke-width="16"/></svg>