<svg xmlns="http://www.w3.org/2000/svg" viewBox="0 0 256 256"><rect width="256" height="256" fill="none"/><path d="M24,200l46.65-67.56a8,8,0,0,0,0-8.88L24,56H181.33A8,8,0,0,1,188,59.56l42.67,64a8,8,0,0,1,0,8.88l-42.67,64a8,8,0,0,1-6.66,3.56Z" opacity="0.2"/><path d="M24,200l46.65-67.56a8,8,0,0,0,0-8.88L24,56H181.33A8,8,0,0,1,188,59.56l42.67,64a8,8,0,0,1,0,8.88l-42.67,64a8,8,0,0,1-6.66,3.56Z" fill="none" stroke="currentColor" stroke-linecap="round" stroke-linejoin="round" stroke-width="16"/></svg>