<svg xmlns="http://www.w3.org/2000/svg" viewBox="0 0 256 256"><rect width="256" height="256" fill="none"/><path d="M134.15,213.12l104-125.43a7.79,7.79,0,0,0-1.31-11.21,180.75,180.75,0,0,0-217.78,0A7.79,7.79,0,0,0,17.8,87.69L121.85,213.12A8,8,0,0,0,134.15,213.12Z" opacity="0.2"/><line x1="48" y1="40" x2="208" y2="216" fill="none" stroke="currentColor" stroke-linecap="round" stroke-linejoin="round" stroke-width="16"/><path d="M188.77,147.28,238.2,87.69a7.79,7.79,0,0,0-1.31-11.21A179.58,179.58,0,0,0,128,40a182.63,182.63,0,0,0-33.88,3.16" fill="none" stroke="currentColor" stroke-linecap="round" stroke-linejoin="round" stroke-width="16"/><path d="M60,53.21a178.91,178.91,0,0,0-40.9,23.27A7.79,7.79,0,0,0,17.8,87.69L121.85,213.12a8,8,0,0,0,12.3,0l34-41" fill="none" stroke="currentColor" stroke-linecap="round" stroke-linejoin="round" stroke-width="16"/></svg>