<svg width="512" height="512" viewBox="0 0 512 512" fill="none" xmlns="http://www.w3.org/2000/svg">
<rect width="512" height="512" fill="#121217"/>
<path fill-rule="evenodd" clip-rule="evenodd" d="M302.806 220.492C301.736 222.368 300.197 223.935 298.34 225.037C297.71 225.407 297.333 226.006 297.333 226.637V226.918C297.333 227.548 297.71 228.147 298.341 228.52C300.198 229.623 301.737 231.189 302.807 233.065C303.877 234.941 304.441 237.063 304.444 239.222V241H306.222C307.204 241 308 241.796 308 242.778C308 243.76 307.204 244.556 306.222 244.556H277.778C276.796 244.556 276 243.76 276 242.778C276 241.796 276.796 241 277.778 241H279.556V239.222C279.559 237.062 280.124 234.94 281.194 233.064C282.264 231.187 283.803 229.621 285.66 228.518C286.29 228.145 286.667 227.548 286.667 226.918V226.637C286.667 226.006 286.29 225.407 285.66 225.037C283.803 223.935 282.264 222.368 281.194 220.492C280.124 218.616 279.559 216.493 279.556 214.333V212.556H277.778C276.796 212.556 276 211.76 276 210.778C276 209.796 276.796 209 277.778 209H306.222C307.204 209 308 209.796 308 210.778C308 211.76 307.204 212.556 306.222 212.556H304.444V214.333C304.441 216.493 303.876 218.616 302.806 220.492ZM299.721 234.827C298.958 233.487 297.86 232.369 296.535 231.581C294.807 230.561 293.778 228.817 293.778 226.918V226.637C293.778 224.737 294.809 222.991 296.535 221.974C299.221 220.388 300.889 217.462 300.889 214.333V212.556H283.111V214.333C283.113 215.875 283.516 217.389 284.279 218.729C285.042 220.068 286.14 221.187 287.465 221.974C289.191 222.991 290.222 224.737 290.222 226.637V226.918C290.222 228.817 289.193 230.561 287.467 231.58C286.141 232.367 285.043 233.486 284.28 234.826C283.516 236.165 283.113 237.68 283.111 239.222V241H300.889V239.222C300.887 237.681 300.484 236.166 299.721 234.827ZM229.953 219.721H275.94C276.289 220.758 276.739 221.763 277.285 222.721C277.809 223.639 278.415 224.503 279.094 225.302H229.953C225.33 225.302 221.581 229.051 221.581 233.674V263.34L233.378 249.577C237.447 244.829 244.785 244.809 248.88 249.534L260.266 262.672L267.369 255.568C271.365 251.572 277.844 251.572 281.84 255.568L290.419 264.146V249.056H296V270.879V270.888V278.326C296 286.032 289.753 292.279 282.047 292.279H229.953C222.247 292.279 216 286.032 216 278.326V270.899V270.866V233.674C216 225.968 222.247 219.721 229.953 219.721ZM263.93 266.9L267.411 270.917C268.421 272.081 268.295 273.844 267.13 274.853C265.965 275.863 264.203 275.737 263.193 274.572L244.662 253.19C242.801 251.042 239.466 251.051 237.616 253.209L221.581 271.916V278.326C221.581 282.949 225.33 286.698 229.953 286.698H282.047C286.67 286.698 290.419 282.949 290.419 278.326V272.04L277.894 259.515C276.077 257.698 273.132 257.698 271.316 259.515L263.93 266.9ZM261.581 244.837C264.664 244.837 267.163 242.338 267.163 239.256C267.163 236.173 264.664 233.674 261.581 233.674C258.499 233.674 256 236.173 256 239.256C256 242.338 258.499 244.837 261.581 244.837Z" fill="#DCDCEA"/>
</svg>
