<svg stroke="currentColor" fill="currentColor" stroke-width="0" version="1.1" viewBox="0 0 17 17" height="1em" width="1em" xmlns="http://www.w3.org/2000/svg"><g></g><path d="M15.981 8.085c-0.192-4.493-3.469-8.085-7.481-8.085s-7.289 3.592-7.481 8.085c-0.59 0.201-1.019 0.756-1.019 1.415v4c0 0.827 0.67 1.5 1.494 1.5h1.506v-1h1v-5h-1v-1h-0.978c0.225-3.902 3.040-7 6.478-7s6.253 3.098 6.478 7h-0.978v1h-1v5h1v1h1.506c0.824 0 1.494-0.673 1.494-1.5v-4c0-0.659-0.429-1.214-1.019-1.415zM2 14h-0.506c-0.272 0-0.494-0.225-0.494-0.5v-4c0-0.275 0.222-0.5 0.494-0.5h0.506v5zM16 13.5c0 0.275-0.222 0.5-0.494 0.5h-0.506v-5h0.506c0.272 0 0.494 0.225 0.494 0.5v4z"></path></svg>