<svg stroke="currentColor" fill="currentColor" stroke-width="0" version="1.1" viewBox="0 0 17 17" height="1em" width="1em" xmlns="http://www.w3.org/2000/svg"><g></g><path d="M8.5 0c-4.687 0-8.5 3.813-8.5 8.5s3.813 8.5 8.5 8.5 8.5-3.813 8.5-8.5-3.813-8.5-8.5-8.5zM8.5 16c-4.136 0-7.5-3.364-7.5-7.5s3.364-7.5 7.5-7.5 7.5 3.364 7.5 7.5-3.364 7.5-7.5 7.5zM9 12.369h0.979v1h-2.958v-1h0.979v-4.42h-0.946v-1h1.946v5.42zM7.185 4.986c0-0.545 0.441-0.986 0.986-0.986s0.985 0.441 0.985 0.986c0 0.543-0.44 0.984-0.985 0.984s-0.986-0.441-0.986-0.984z"></path></svg>