<svg stroke="currentColor" fill="currentColor" stroke-width="0" version="1.1" viewBox="0 0 17 17" height="1em" width="1em" xmlns="http://www.w3.org/2000/svg"><g></g><path d="M17 8c0 2.206-1.794 4-4 4-1.197 0-2.31-0.532-3.074-1.452l-0.002 0.001-0.014-0.018c-0.011-0.014-0.026-0.023-0.038-0.038l0.004-0.003-3.634-4.482c-0.569-0.64-1.386-1.008-2.242-1.008-1.654 0-3 1.346-3 3 0 1.654 1.346 3 3 3 0.915 0 1.769-0.41 2.342-1.125l0.009 0.007 0.817-1.012 0.778 0.628-0.823 1.019-0.010-0.008c-0.763 0.947-1.897 1.491-3.113 1.491-2.206 0-4-1.794-4-4 0-2.206 1.794-4 4-4 1.12 0 2.186 0.477 2.943 1.301l0.008-0.006 0.042 0.052 3.698 4.56c0.573 0.693 1.409 1.093 2.309 1.093 1.654 0 3-1.346 3-3 0-1.654-1.346-3-3-3-0.846 0-1.65 0.362-2.22 0.989l-0.948 1.175-0.778-0.628 0.948-1.175-0.004-0.003c0.76-0.863 1.855-1.358 3.002-1.358 2.206 0 4 1.794 4 4z"></path></svg>