<svg stroke="currentColor" fill="currentColor" stroke-width="0" version="1.1" viewBox="0 0 17 17" height="1em" width="1em" xmlns="http://www.w3.org/2000/svg"><g></g><path d="M2 16h1v1h-1v-1zM10 17h1v-1h-1v1zM12 17h1v-1h-1v1zM4 17h1v-1h-1v1zM6 17h1v-1h-1v1zM8 17h1v-1h-1v1zM14 17h1v-1h-1v1zM14 3h1v-1h-1v1zM14 5h1v-1h-1v1zM14 13h1v-1h-1v1zM14 7h1v-1h-1v1zM14 9h1v-1h-1v1zM14 15h1v-1h-1v1zM14 11h1v-1h-1v1zM14 0v1h1v-1h-1zM12 1h1v-1h-1v1zM6 1h1v-1h-1v1zM8 1h1v-1h-1v1zM10 1h1v-1h-1v1zM4 1h1v-1h-1v1zM2 1h1v-1h-1v1zM2 13h1v-1h-1v1zM2 15h1v-1h-1v1zM2 11h1v-1h-1v1zM2 3h1v-1h-1v1zM2 5h1v-1h-1v1zM2 7h1v-1h-1v1zM2 9h1v-1h-1v1z"></path></svg>