<svg width="20" height="20" viewBox="0 0 20 20" fill="none" xmlns="http://www.w3.org/2000/svg">
<circle cx="9.9707" cy="8.04956" r="2" fill="#b6b6b6"/>
<path fill-rule="evenodd" clip-rule="evenodd" d="M10 16.5496C13.5899 16.5496 16.5 13.6394 16.5 10.0496C16.5 6.45971 13.5899 3.54956 10 3.54956C6.41015 3.54956 3.5 6.45971 3.5 10.0496C3.5 13.6394 6.41015 16.5496 10 16.5496ZM10 18.0496C14.4183 18.0496 18 14.4678 18 10.0496C18 5.63128 14.4183 2.04956 10 2.04956C5.58172 2.04956 2 5.63128 2 10.0496C2 14.4678 5.58172 18.0496 10 18.0496Z" fill="#b6b6b6"/>
<path fill-rule="evenodd" clip-rule="evenodd" d="M5.98535 13.0309C6.89838 11.8271 8.3442 11.0496 9.9716 11.0496C11.6158 11.0496 13.0746 11.8432 13.9859 13.0683C13.0729 14.2721 11.6271 15.0496 9.9997 15.0496C8.3555 15.0496 6.89666 14.2559 5.98535 13.0309Z" fill="#b6b6b6"/>
</svg>