<svg stroke="currentColor" fill="currentColor" stroke-width="0" viewBox="0 0 24 24" height="1em" width="1em" xmlns="http://www.w3.org/2000/svg"><path d="M11.88,17H9.58L8.65,14.1H4.44L3.57,17H1.32L5.41,4.17H7.66ZM8,11.93,6.52,7.17,5.09,11.93Z"></path><path d="M14.13,17,12.22,4.17h1.66L15.07,13l1.46-8.82h1.92l1.4,9,1.23-9h1.62L20.78,17H19.06l-1.6-9.6L15.88,17Z"></path><polygon points="11.36 17.95 11.36 19.34 1.89 19.34 1.89 17.95 1.38 17.95 1.38 19.86 1.64 19.86 1.89 19.86 11.36 19.86 11.87 19.86 11.87 19.86 11.87 17.95 11.36 17.95"></polygon><polygon points="22.17 18 22.17 19.39 12.69 19.39 12.69 18 12.19 18 12.19 19.91 12.45 19.91 12.69 19.91 22.17 19.91 22.67 19.91 22.68 19.91 22.68 18 22.17 18"></polygon></svg>