<svg stroke="currentColor" fill="currentColor" stroke-width="0" viewBox="0 0 24 24" height="1em" width="1em" xmlns="http://www.w3.org/2000/svg"><path fill="none" stroke="#000" stroke-linecap="round" stroke-linejoin="round" stroke-width="2" d="M12,19 L10,22 L7,21 L6.5,17.5 L3,17 L2,14 L5,12 L2,10 L3,7 L6.5,6.5 L7,3 L10,2 L12,5 L14,2 L17,3 L17.5,6.5 L21,7 L22,10 L19,12 L22,14 L21,17 L17.5,17.5 L17,21 L14,22 L12,19 Z M12,16 C14.209139,16 16,14.209139 16,12 C16,9.790861 14.209139,8 12,8 C9.790861,8 8,9.790861 8,12 C8,14.209139 9.790861,16 12,16 Z"></path></svg>