<svg stroke="currentColor" fill="currentColor" stroke-width="0" viewBox="0 0 24 24" height="1em" width="1em" xmlns="http://www.w3.org/2000/svg"><path fill="none" stroke="#000" stroke-width="2" d="M2,3.99079514 C2,2.89130934 2.89821238,2 3.99079514,2 L20.0092049,2 C21.1086907,2 22,2.89821238 22,3.99079514 L22,20.0092049 C22,21.1086907 21.1017876,22 20.0092049,22 L3.99079514,22 C2.89130934,22 2,21.1017876 2,20.0092049 L2,3.99079514 Z M12,15 L12,14 C12,13 12,12.5 13,12 C14,11.5 15,11 15,9.5 C15,8.5 14,7 12,7 C10,7 9,8.26413718 9,10 M12,16 L12,18"></path></svg>