<svg stroke="currentColor" fill="currentColor" stroke-width="0" viewBox="0 0 24 24" height="1em" width="1em" xmlns="http://www.w3.org/2000/svg"><path fill="none" stroke="#000" stroke-width="2" d="M3,2.00246167 C3,1.44881738 3.44494629,1 3.99339768,1 L20.0066023,1 C20.5552407,1 21,1.43945834 21,2.00246167 L21,23 L3,23 L3,2.00246167 Z M15,1 L15,23 M3,16 L15,16 M8,17 L10,17 M7,16 L7,12 M7,9 L7,5 M11,16 L11,12 M11,9 L11,5 M17,12 L18,12 M17,9 L19,8.99999994 M17,20 L19,19.9999999 M3,9 L15,9"></path></svg>