<svg data-name="レイヤー 2" xmlns="http://www.w3.org/2000/svg" viewBox="0 0 76.71 76.71"><rect width="76.71" height="76.71" rx="6.57" ry="6.57" fill="#9fa244"/><path d="M38.35 28.23c8.1 0 15.19-3.44 19.07-8.57-3.88-6.28-10.97-10.49-19.07-10.49s-15.19 4.21-19.07 10.49c3.88 5.13 10.97 8.57 19.07 8.57zm22.84-4.26c-4.56 5.02-11.7 8.47-19.88 9.14l10.93 34.42c8.67-5.52 14.42-15.13 14.42-26.08 0-6.49-2.02-12.5-5.47-17.48zm-45.67 0c4.56 5.02 11.7 8.47 19.88 9.14L24.47 67.53C15.8 62.01 10.05 52.4 10.05 41.45c0-6.49 2.02-12.5 5.47-17.48zm22.83 30.75c1.66 0 3.31-.37 4.83-1.09l-1.3-4.74a6.554 6.554 0 01-7.07 0l-1.3 4.74c1.53.72 3.18 1.09 4.83 1.09zm0 9.14c2.53 0 4.98-.48 7.27-1.36l-1.33-4.85c-1.85.79-3.86 1.21-5.94 1.21s-4.08-.42-5.94-1.21l-1.33 4.85c2.29.88 4.74 1.36 7.27 1.36z" fill="#fff"/></svg>