<svg xmlns="http://www.w3.org/2000/svg" width="58" height="58" viewBox="0 0 58 58"><defs><style>.cls-1{fill:#90c12c;}</style></defs><title>icon_insect_on</title><g id="レイヤー_2のコピー" data-name="レイヤー 2のコピー"><path class="cls-1" d="M29,57.22A28.22,28.22,0,1,0,.78,29,28.21,28.21,0,0,0,29,57.22Zm11.13-39.4A17.17,17.17,0,0,1,37,46.1,17.15,17.15,0,0,1,32,24,12.7,12.7,0,0,0,40.13,17.82ZM20.39,10.33,22,8.77,27,13.83l.17,0,.15,0,.64,0c.34,0,.68,0,1,0h0c.35,0,.69,0,1,0l.64,0,.15,0,.17,0,5.06-5.06,1.56,1.56-4,4a17.3,17.3,0,0,1,4.52,2,10.37,10.37,0,0,1-18.26,0,17.3,17.3,0,0,1,4.52-2Zm-2.52,7.49A12.7,12.7,0,0,0,26,24,17.15,17.15,0,0,1,21,46.1a17.17,17.17,0,0,1-3.16-28.28Z"/></g></svg>