<svg data-name="レイヤー 2" xmlns="http://www.w3.org/2000/svg" viewBox="0 0 76.71 76.71"><rect width="76.71" height="76.71" rx="6.57" ry="6.57" fill="#f6d851"/><path d="M37.97 6.94c2.5 1.14 12.84 6.04 19.84 12.22.31.27.34.75.07 1.06-1.55 1.8-6.66 7.75-12.82 14.99-.27.32-.24.8.07 1.08 1.8 1.59 7.48 6.69 10.91 10.43.28.3.26.77-.04 1.06-2.98 2.87-17.73 17.06-23.45 21.97-.3.26-.76-.02-.67-.41.74-3.02 2.8-11.05 4.99-16.89.12-.31.02-.66-.25-.86-2.15-1.64-11.56-8.86-17.74-14.4a.746.746 0 01-.16-.91c1.36-2.62 7.8-14.72 18.32-29.07.21-.29.6-.4.92-.25z" fill="#fff"/></svg>