<svg data-name="レイヤー 2" xmlns="http://www.w3.org/2000/svg" viewBox="0 0 76.71 76.71"><rect width="76.71" height="76.71" rx="6.57" ry="6.57" fill="#dab4d4"/><path d="M66.36 12.08c-2.18-2.18-15.61-3.16-24.65 5.88-1.55 1.55-2.63 3.4-3.25 5.35-.62-1.96-1.7-3.8-3.25-5.35-9.04-9.04-22.47-8.06-24.65-5.88S7.4 27.69 16.44 36.73c1.91 1.91 4.26 3.11 6.73 3.61-5 4.33-5.57 11.18-4.61 12.52 1.02 1.42 8.4 3.21 14.31-.94-.27.79-.53 1.6-.79 2.44-2.47 8.08-3.39 14.96-2.07 15.36 1.33.41 4.41-5.81 6.88-13.89.62-2.03 1.15-3.99 1.56-5.79.41 1.8.94 3.76 1.56 5.79 2.47 8.08 5.55 14.3 6.88 13.89 1.33-.41.4-7.29-2.07-15.36-.26-.84-.52-1.65-.79-2.44 5.91 4.15 13.3 2.36 14.31.94.96-1.34.39-8.18-4.61-12.52 2.47-.5 4.82-1.7 6.73-3.61 9.04-9.04 8.06-22.47 5.88-24.65zm-27.9 28.05c-4.31 0-8.04-2.45-9.9-6.03 5.01-.02 9.15-3.74 9.81-8.57.02-.12.17-.12.18 0 .66 4.83 4.8 8.56 9.81 8.57-1.86 3.58-5.59 6.03-9.9 6.03z" fill="#fff"/></svg>