<svg data-name="レイヤー 2" xmlns="http://www.w3.org/2000/svg" viewBox="0 0 76.71 76.71"><rect width="76.71" height="76.71" rx="6.57" ry="6.57" fill="#a2c3e7"/><path d="M23.78 27.7c-1.94 4.43-7.5 23.12-8.81 33.15-.67 5.09-1.31 6.86 0 7.25 1.66.5 8.65-10.31 11.14-14.47 0 0 15.92 2.39 24.09-7.79.19-.24-.02-.59-.32-.53-3.22.55-14.81 2.34-19.94.35 0 0 20.89.81 30.38-14.67.13-.2-.08-.46-.3-.38-3.29 1.19-17.5 5.86-26.01 3.66 0 0 13.83-.81 24.28-10.31S69.6 9.66 68.85 8.91c-1.42-1.42-8.65 2.16-14.47 3.99s-13.14 3.99-17.96 4.99-8.81 1.08-12.64 9.81z" fill="#fff"/></svg>