<svg xmlns="http://www.w3.org/2000/svg" width="58" height="58" viewBox="0 0 58 58"><defs><style>.cls-1{fill:#5269ac;}</style></defs><title>icon_ghost_on</title><g id="レイヤー_2のコピー" data-name="レイヤー 2のコピー"><path class="cls-1" d="M19.6,22.2s0-.09,0-.14a3.95,3.95,0,1,0,5.49,3.78,4,4,0,0,1-5.5-3.64Z"/><path class="cls-1" d="M36.62,22.06c0,.05,0,.1,0,.14a4,4,0,0,1-5.5,3.64,3.95,3.95,0,1,0,5.49-3.78Z"/><path class="cls-1" d="M29,.78A28.22,28.22,0,1,0,57.22,29,28.21,28.21,0,0,0,29,.78ZM43.66,43.63c.19,0,.72-.15.56-.06-4.91,3-12.38,3-12.38,3a23.19,23.19,0,0,1-11.19-2.46,17.81,17.81,0,0,1-5.45-3.95l-.08-.08a.69.69,0,0,0-.11-.13l-.27-.31h0a17.59,17.59,0,1,1,26.88-.27A2.61,2.61,0,0,0,41,41,2.63,2.63,0,0,0,43.66,43.63Z"/></g></svg>