<svg width="35" height="24" viewBox="0 0 35 24" fill="none" xmlns="http://www.w3.org/2000/svg">
  <path d="M35 15.4835C35.0059 17.6631 34.1088 19.7453 32.5271 21.2231C32.4235 21.3207 32.263 21.3207 32.1594 21.2231C31.5757 20.6631 30.8959 20.2159 30.1534 19.9035C29.7012 19.7261 28.9659 19.6168 28.9659 18.971C28.9659 18.8376 29.0033 18.7069 29.0738 18.5942C29.0844 18.581 29.0941 18.5672 29.103 18.5528C29.7035 17.652 30.0973 16.6265 30.2555 15.5515V15.5426C30.2966 15.261 30.3224 14.9773 30.3329 14.6929V14.684C30.2726 13.1176 29.0013 11.8792 27.4537 11.8792C25.906 11.8792 24.6348 13.1176 24.5745 14.684V14.6929C24.5842 14.9774 24.61 15.2611 24.6518 15.5426V15.5515C24.8084 16.6269 25.2024 17.6528 25.8044 18.5528C25.8123 18.5675 25.8216 18.5813 25.8321 18.5942C25.9033 18.7066 25.9408 18.8375 25.9401 18.971C25.9401 19.5976 25.2719 19.6818 24.8298 19.8577C24.7508 19.8914 24.6927 19.9617 24.6739 20.0465C24.6551 20.1312 24.6778 20.22 24.735 20.2847C24.9159 20.4961 25.091 20.7118 25.2544 20.9305C25.7572 21.5995 26.1867 22.322 26.5353 23.0851L26.5441 23.1013C26.5523 23.1164 26.5592 23.1322 26.5645 23.1486L26.5732 23.1811C26.5755 23.1993 26.5755 23.2177 26.5732 23.2358C26.5732 23.3627 26.4857 23.4724 26.3632 23.4989C26.3462 23.5004 26.3291 23.5004 26.3121 23.4989C26.243 23.499 26.177 23.4701 26.1297 23.4191C24.5789 21.7477 22.8632 20.4192 20.6705 19.769C20.6195 19.7525 20.5706 19.7302 20.5246 19.7025C20.4925 19.6848 20.4618 19.6656 20.4327 19.6463C19.9235 19.2976 19.8418 18.64 20.1146 18.108C20.5129 17.3381 20.99 16.6509 21.3153 15.8352C22.1425 13.7575 22.6619 11.1788 21.2744 9.21482C20.5584 8.18809 19.4645 7.49644 18.2394 7.29573C17.0143 7.09502 15.7609 7.40214 14.7618 8.14787C14.3628 8.44595 14.0127 8.80604 13.7246 9.21482C12.3371 11.1788 12.8492 13.7575 13.6852 15.8352C14.009 16.6509 14.4861 17.3381 14.8844 18.108C15.1587 18.6415 15.077 19.2902 14.5663 19.6463L14.4759 19.7025C14.4298 19.73 14.3809 19.7523 14.33 19.769C12.1416 20.4192 10.4216 21.7477 8.8722 23.4191C8.82438 23.4702 8.75788 23.499 8.68837 23.4989C8.67138 23.5004 8.6543 23.5004 8.63731 23.4989C8.51509 23.4719 8.42777 23.3625 8.42723 23.2358C8.42572 23.2176 8.42572 23.1993 8.42723 23.1811C8.42975 23.17 8.43317 23.1592 8.43744 23.1486C8.44161 23.1321 8.44799 23.1162 8.4564 23.1013L8.46516 23.0851C8.81421 22.3219 9.24421 21.5995 9.74755 20.9305C9.91095 20.7089 10.0846 20.4872 10.2655 20.2847C10.3633 20.176 10.3562 20.0077 10.2494 19.9079C10.2261 19.8868 10.1995 19.8698 10.1706 19.8577C9.73296 19.6744 9.0604 19.5902 9.0604 18.971C9.06045 18.8376 9.09789 18.7069 9.16836 18.5942C9.1789 18.581 9.18865 18.5672 9.19753 18.5528C9.79807 17.652 10.1919 16.6265 10.3501 15.5515V15.5426C10.3914 15.2611 10.4167 14.9774 10.4259 14.6929V14.684C10.3656 13.1176 9.09442 11.8792 7.54677 11.8792C5.99912 11.8792 4.7279 13.1176 4.6676 14.684V14.6929C4.67803 14.9773 4.70384 15.261 4.74492 15.5426V15.5515C4.9022 16.6268 5.29609 17.6525 5.89746 18.5528C5.90635 18.5672 5.9161 18.581 5.92664 18.5942C5.99711 18.7069 6.03455 18.8376 6.0346 18.971C6.0346 19.6168 5.29639 19.7247 4.84704 19.9035C4.10383 20.2144 3.42375 20.6618 2.84103 21.2231C2.73695 21.3209 2.57602 21.3209 2.47193 21.2231C-0.614465 18.3212 -0.840818 13.4512 1.96277 10.2685C3.20277 8.86103 4.91512 7.97088 6.76698 7.77104C6.86227 7.75936 6.94437 7.69754 6.9829 7.60849C9.49224 1.63833 16.2354 -1.11031 22.0433 1.46839C24.7345 2.66907 26.8715 4.86537 28.0176 7.60849C28.0567 7.69796 28.1391 7.76019 28.2349 7.77252C32.0777 8.18482 34.997 11.5142 34.9956 15.485" fill="#1999E3"/>
</svg>
