<svg stroke="currentColor" fill="currentColor" stroke-width="0" viewBox="0 0 24 24" height="1em" width="1em" xmlns="http://www.w3.org/2000/svg"><g><path fill="none" d="M0 0h24v24H0z"></path><path d="M3 3h2v2H3V3zm4 0h2v2H7V3zm4 0h2v2h-2V3zm4 0h2v2h-2V3zm4 0h2v2h-2V3zm0 4h2v2h-2V7zM3 19h2v2H3v-2zm0-4h2v2H3v-2zm0-4h2v2H3v-2zm0-4h2v2H3V7zm7.667 4l1.036-1.555A1 1 0 0 1 12.535 9h2.93a1 1 0 0 1 .832.445L17.333 11H20a1 1 0 0 1 1 1v8a1 1 0 0 1-1 1H8a1 1 0 0 1-1-1v-8a1 1 0 0 1 1-1h2.667zM14 18a2 2 0 1 0 0-4 2 2 0 0 0 0 4z"></path></g></svg>