<svg width="65" height="29" viewBox="0 0 65 29" fill="none" xmlns="http://www.w3.org/2000/svg">
<path d="M25.3889 2.66667C25.3889 1.95942 25.1079 1.28114 24.6078 0.781047C24.1077 0.28095 23.4295 0 22.7222 0H14.7222C10.9503 0 7.33278 1.49841 4.66559 4.16559C1.99841 6.83278 0.5 10.4503 0.5 14.2222C0.5 17.9942 1.99841 21.6117 4.66559 24.2789C7.33278 26.946 10.9503 28.4444 14.7222 28.4444H22.7222C23.4295 28.4444 24.1077 28.1635 24.6078 27.6634C25.1079 27.1633 25.3889 26.485 25.3889 25.7778C25.3889 25.0705 25.1079 24.3923 24.6078 23.8922C24.1077 23.3921 23.4295 23.1111 22.7222 23.1111H14.7222C12.3647 23.1111 10.1038 22.1746 8.43683 20.5076C6.76984 18.8406 5.83333 16.5797 5.83333 14.2222C5.83333 11.8647 6.76984 9.60382 8.43683 7.93683C10.1038 6.26984 12.3647 5.33333 14.7222 5.33333H22.7222C23.4295 5.33333 24.1077 5.05238 24.6078 4.55228C25.1079 4.05219 25.3889 3.37391 25.3889 2.66667V2.66667ZM39.6111 25.7778C39.6111 25.0705 39.8921 24.3923 40.3922 23.8922C40.8923 23.3921 41.5705 23.1111 42.2778 23.1111H50.2778C52.6353 23.1111 54.8962 22.1746 56.5632 20.5076C58.2302 18.8406 59.1667 16.5797 59.1667 14.2222C59.1667 11.8647 58.2302 9.60382 56.5632 7.93683C54.8962 6.26984 52.6353 5.33333 50.2778 5.33333H42.2778C41.5705 5.33333 40.8923 5.05238 40.3922 4.55228C39.8921 4.05219 39.6111 3.37391 39.6111 2.66667C39.6111 1.95942 39.8921 1.28114 40.3922 0.781047C40.8923 0.28095 41.5705 0 42.2778 0H50.2778C54.0497 0 57.6672 1.49841 60.3344 4.16559C63.0016 6.83278 64.5 10.4503 64.5 14.2222C64.5 17.9942 63.0016 21.6117 60.3344 24.2789C57.6672 26.946 54.0497 28.4444 50.2778 28.4444H42.2778C41.5705 28.4444 40.8923 28.1635 40.3922 27.6634C39.8921 27.1633 39.6111 26.485 39.6111 25.7778Z" fill="#00DA9F"/>
<path d="M18.2422 14.0871C18.2422 13.3799 18.5231 12.7016 19.0232 12.2015C19.5233 11.7014 20.2016 11.4204 20.9089 11.4204H44.02C44.7272 11.4204 45.4055 11.7014 45.9056 12.2015C46.4057 12.7016 46.6866 13.3799 46.6866 14.0871C46.6866 14.7944 46.4057 15.4726 45.9056 15.9727C45.4055 16.4728 44.7272 16.7538 44.02 16.7538H20.9089C20.2016 16.7538 19.5233 16.4728 19.0232 15.9727C18.5231 15.4726 18.2422 14.7944 18.2422 14.0871V14.0871Z" fill="white" fill-opacity="0.7"/>
</svg>
