<svg xmlns="http://www.w3.org/2000/svg" viewBox="0 0 256 256"><rect width="256" height="256" fill="none"/><path d="M24,112V72a8,8,0,0,1,8-8H224a8,8,0,0,1,8,8v40" fill="none" stroke="currentColor" stroke-linecap="round" stroke-linejoin="round" stroke-width="12"/><line x1="216" y1="176" x2="216" y2="200" fill="none" stroke="currentColor" stroke-linecap="round" stroke-linejoin="round" stroke-width="12"/><line x1="40" y1="176" x2="40" y2="200" fill="none" stroke="currentColor" stroke-linecap="round" stroke-linejoin="round" stroke-width="12"/><path d="M208,136V120a8,8,0,0,1,8-8h16a8,8,0,0,1,8,8v48a8,8,0,0,1-8,8H24a8,8,0,0,1-8-8V120a8,8,0,0,1,8-8H40a8,8,0,0,1,8,8v16a8,8,0,0,0,8,8H200A8,8,0,0,0,208,136Z" fill="none" stroke="currentColor" stroke-linecap="round" stroke-linejoin="round" stroke-width="12"/><line x1="128" y1="64" x2="128" y2="144" fill="none" stroke="currentColor" stroke-linecap="round" stroke-linejoin="round" stroke-width="12"/></svg>