<svg xmlns="http://www.w3.org/2000/svg" viewBox="0 0 256 256"><rect width="256" height="256" fill="none"/><line x1="8" y1="112" x2="8" y2="176" fill="none" stroke="currentColor" stroke-linecap="round" stroke-linejoin="round" stroke-width="12"/><line x1="88" y1="40" x2="152" y2="40" fill="none" stroke="currentColor" stroke-linecap="round" stroke-linejoin="round" stroke-width="12"/><line x1="248" y1="112" x2="248" y2="176" fill="none" stroke="currentColor" stroke-linecap="round" stroke-linejoin="round" stroke-width="12"/><path d="M189.66,178.34l-35.32,35.32a8,8,0,0,1-5.65,2.34H83.31a8,8,0,0,1-5.65-2.34L42.34,178.34A8,8,0,0,1,40,172.69V80a8,8,0,0,1,8-8H148.69a8,8,0,0,1,5.65,2.34l35.32,35.32a8,8,0,0,0,5.65,2.34H208a8,8,0,0,1,8,8v48a8,8,0,0,1-8,8H195.31A8,8,0,0,0,189.66,178.34Z" fill="none" stroke="currentColor" stroke-linecap="round" stroke-linejoin="round" stroke-width="12"/><line x1="8" y1="144" x2="40" y2="144" fill="none" stroke="currentColor" stroke-linecap="round" stroke-linejoin="round" stroke-width="12"/><line x1="120" y1="40" x2="120" y2="72" fill="none" stroke="currentColor" stroke-linecap="round" stroke-linejoin="round" stroke-width="12"/><line x1="216" y1="144" x2="248" y2="144" fill="none" stroke="currentColor" stroke-linecap="round" stroke-linejoin="round" stroke-width="12"/></svg>