<svg xmlns="http://www.w3.org/2000/svg" viewBox="0 0 256 256"><rect width="256" height="256" fill="none"/><rect x="32" y="72" width="112" height="112" rx="8" fill="none" stroke="currentColor" stroke-linecap="round" stroke-linejoin="round" stroke-width="12"/><path d="M144,88h40a8,8,0,0,1,8,8v72a56,56,0,0,1-56,56h0a56,56,0,0,1-53.68-40" fill="none" stroke="currentColor" stroke-linecap="round" stroke-linejoin="round" stroke-width="12"/><line x1="104" y1="104" x2="72" y2="104" fill="none" stroke="currentColor" stroke-linecap="round" stroke-linejoin="round" stroke-width="12"/><line x1="88" y1="152" x2="88" y2="104" fill="none" stroke="currentColor" stroke-linecap="round" stroke-linejoin="round" stroke-width="12"/><path d="M184,88h35.26A4.74,4.74,0,0,1,224,92.74V152a32,32,0,0,1-32,32h0c-.77,0-1.54,0-2.3-.08" fill="none" stroke="currentColor" stroke-linecap="round" stroke-linejoin="round" stroke-width="12"/><path d="M108.28,72A32,32,0,1,1,144,87" fill="none" stroke="currentColor" stroke-linecap="round" stroke-linejoin="round" stroke-width="12"/><path d="M166.79,47.27A24,24,0,1,1,184,88" fill="none" stroke="currentColor" stroke-linecap="round" stroke-linejoin="round" stroke-width="12"/></svg>