<svg xmlns="http://www.w3.org/2000/svg" xml:space="preserve" fill-rule="evenodd" stroke-linecap="round" stroke-linejoin="round" clip-rule="evenodd" viewBox="0 0 24 24">
  <path fill="none" d="M0 0h24v24H0z"></path>
  <path fill="none" stroke="currentColor" stroke-width="23" d="m820 761-85.6-87.6c-4.6-4.7-10.4-9.6-25.9 1-19.9 13.6-8.4 21.9-5.2 25.4 8.2 9 84.1 89 97.2 104 2.5 2.8-20.3-22.5-6.5-39.7 5.4-7 18-12 26-3 6.5 7.3 10.7 18-3.4 29.7-24.7 20.4-102 82.4-127 103-12.5 10.3-28.5 2.3-35.8-6-7.5-8.9-30.6-34.6-51.3-58.2-5.5-6.3-4.1-19.6 2.3-25 35-30.3 91.9-73.8 111.9-90.8" transform="matrix(.08671 0 0 .0867 -49.8 -56)"></path>
</svg>