<?xml version="1.0" encoding="UTF-8" standalone="no"?>
<!-- Created with Inkscape (http://www.inkscape.org/) -->

<svg
   xmlns:dc="http://purl.org/dc/elements/1.1/"
   xmlns:cc="http://creativecommons.org/ns#"
   xmlns:rdf="http://www.w3.org/1999/02/22-rdf-syntax-ns#"
   xmlns:svg="http://www.w3.org/2000/svg"
   xmlns="http://www.w3.org/2000/svg"
   xmlns:sodipodi="http://sodipodi.sourceforge.net/DTD/sodipodi-0.dtd"
   xmlns:inkscape="http://www.inkscape.org/namespaces/inkscape"
   viewBox="0 0 115.29 90.024246"
   id="svg2"
   version="1.1"
   inkscape:version="0.48.4 r9939"
   sodipodi:docname="New document 1">
  <defs
     id="defs4" />
  <sodipodi:namedview
     id="base"
     pagecolor="#ffffff"
     bordercolor="#666666"
     borderopacity="1.0"
     inkscape:pageopacity="0.0"
     inkscape:pageshadow="2"
     inkscape:zoom="0.35"
     inkscape:cx="55.50214"
     inkscape:cy="176.4407"
     inkscape:document-units="px"
     inkscape:current-layer="layer1"
     showgrid="false"
     fit-margin-top="0"
     fit-margin-left="0"
     fit-margin-right="0"
     fit-margin-bottom="0"
     inkscape:window-width="1855"
     inkscape:window-height="1056"
     inkscape:window-x="65"
     inkscape:window-y="24"
     inkscape:window-maximized="1" />
  <metadata
     id="metadata7">
    <rdf:RDF>
      <cc:Work
         rdf:about="">
        <dc:format>image/svg+xml</dc:format>
        <dc:type
           rdf:resource="http://purl.org/dc/dcmitype/StillImage" />
        <dc:title></dc:title>
      </cc:Work>
    </rdf:RDF>
  </metadata>
  <g
     inkscape:label="Layer 1"
     inkscape:groupmode="layer"
     id="layer1"
     transform="translate(-319.49786,-618.77863)">
    <g
       id="g3050"
       transform="translate(267.56686,590.60363)">
      <g
         id="g3052">
        <path
           id="path3054"
           d="m 161.532,68.814 -19.139,-5.255 13.238,-18.602 c 0.859,-1.207 0.814,-2.834 -0.116,-3.987 -0.639,-0.803 -2.741,-2.618 -3.254,-3.254 -0.917,-1.153 -2.486,-1.55 -3.868,-0.975 l -27.231,11.548 -6.957,-15.102 c -0.463,-1.007 -1.461,-1.493 -2.508,-1.634 l -0.746,-1.62 c -1.078,-2.344 -4.926,-2.344 -6.005,0 L 96.201,48.912 67.504,36.74 c -1.353,-0.575 -2.938,-0.181 -3.868,0.975 -0.927,1.153 -0.975,2.78 -0.116,3.987 L 78.164,62.28 54.362,68.814 c -1.437,0.394 -2.431,1.698 -2.431,3.186 0,1.488 4.311,6.064 5.685,6.44 l 19.142,5.258 -13.238,18.596 c -0.859,1.207 -0.81,2.834 0.116,3.99 0.644,0.803 2.743,2.617 3.254,3.254 0.927,1.156 2.515,1.556 3.868,0.968 l 27.229,-11.542 6.959,15.1 c 0.476,1.037 1.475,1.651 2.585,1.802 l 0.669,1.452 c 0.539,1.175 5.466,1.175 6.005,0 l 8.742,-18.976 28.7,12.164 c 1.382,0.594 2.951,0.174 3.868,-0.968 0.93,-1.156 0.975,-2.783 0.116,-3.99 L 140.987,84.977 164.793,78.44 c 1.433,-0.394 2.428,-1.698 2.428,-3.186 0,-1.488 -4.311,-6.063 -5.689,-6.44 z M 104.12,92.668 c -0.489,-1.065 -1.5,-1.657 -2.586,-1.804 l -0.668,-1.45 c -0.555,-1.207 -1.75,-1.924 -3.002,-1.924 -0.433,0 -0.868,0.084 -1.291,0.265 l -12.91,5.471 5.885,-8.267 c 0.626,-0.878 0.784,-2.008 0.423,-3.028 -0.365,-1.017 -1.198,-1.792 -2.24,-2.076 l -0.92,-0.253 c -0.017,-0.311 0.013,-0.624 -0.094,-0.926 -0.365,-1.017 -1.198,-1.792 -2.24,-2.076 l -9.196,-2.526 12.45,-3.418 c 1.04,-0.284 1.876,-1.059 2.24,-2.076 0.362,-1.017 0.203,-2.147 -0.423,-3.028 L 78.939,50.645 99.826,59.503 c 1.646,0.694 3.548,-0.036 4.294,-1.663 l 6.206,-13.469 4.706,10.215 c 0.496,1.077 1.509,1.709 2.605,1.846 l 0.649,1.408 c 0.749,1.627 2.654,2.357 4.294,1.663 l 12.91,-5.475 -5.885,8.271 c -0.626,0.881 -0.781,2.011 -0.42,3.028 0.362,1.017 1.194,1.792 2.24,2.076 l 0.918,0.252 c 0.018,0.311 -0.011,0.625 0.095,0.926 0.362,1.017 1.194,1.792 2.24,2.076 l 9.194,2.524 -12.455,3.42 c -1.04,0.284 -1.872,1.059 -2.234,2.076 -0.362,1.02 -0.207,2.15 0.42,3.028 l 10.608,14.902 -20.887,-8.852 c -1.64,-0.704 -3.545,0.032 -4.294,1.659 l -6.206,13.469 -4.704,-10.215 z"
           inkscape:connector-curvature="0"
           style="fill:#73241f" />
        <polygon
           id="polygon3056"
           points="149.685,39.785 132.298,64.215 160.659,72 132.298,79.785 149.685,104.215 118.034,90.794 107.948,112.685 97.863,90.794 66.212,104.215 83.599,79.785 55.238,72 83.599,64.215 66.212,39.785 97.863,53.206 107.948,31.315 118.034,53.206 "
           style="fill:#efc13b" />
      </g>
    </g>
  </g>
</svg>
