<svg xmlns="http://www.w3.org/2000/svg" xmlns:xlink="http://www.w3.org/1999/xlink" width="18" height="18" viewBox="0 0 18 18"><defs><linearGradient id="bbff16ce-7aad-4b86-8bb2-89788b5b99a6" x1="10.463" y1="15.888" x2="10.463" y2="-2.112" gradientUnits="userSpaceOnUse"><stop offset="0" stop-color="#0078d4" /><stop offset="1" stop-color="#5ea0ef" /></linearGradient><linearGradient id="b0f3e3a3-1263-4ba0-98ae-dae6e73e6321" x1="7.179" y1="0.537" x2="7.179" y2="12.51" gradientUnits="userSpaceOnUse"><stop offset="0" stop-color="#50e6ff" /><stop offset="1" stop-color="#32bedd" /></linearGradient></defs><rect x="3.113" width="14.7" height="18" rx="0.6" fill="url(#bbff16ce-7aad-4b86-8bb2-89788b5b99a6)" /><rect x="0.187" y="1.867" width="13.985" height="7.291" rx="0.541" fill="url(#b0f3e3a3-1263-4ba0-98ae-dae6e73e6321)" /><path d="M11.887,4.423H5.069a.122.122,0,0,1-.124-.12V3.9a.123.123,0,0,1,.123-.123h6.818a.124.124,0,0,1,.124.123v.4a.122.122,0,0,1-.122.123Zm-7.9.291V3.488a.212.212,0,0,0-.212-.212H2.547a.212.212,0,0,0-.212.211h0V4.714a.211.211,0,0,0,.211.211H3.773a.211.211,0,0,0,.212-.211Z" fill="#fff" /><path d="M11.886,7.023H5.069A.124.124,0,0,1,4.945,6.9h0V6.494a.124.124,0,0,1,.124-.124h6.816a.125.125,0,0,1,.124.124v.4a.125.125,0,0,1-.123.125ZM3.68,6.194H2.657v1.02H3.68V6.194m.107-.321A.216.216,0,0,1,4,6.087V7.32a.214.214,0,0,1-.214.213H2.55a.213.213,0,0,1-.213-.213V6.083A.213.213,0,0,1,2.55,5.87Z" fill="#fff" opacity="0.8" /><path d="M13.382,11.108a.121.121,0,0,0-.084-.035.118.118,0,0,0-.117.119v1.365h0v.122H3.113v1.773H13.181v1.385a.118.118,0,0,0,.2.084L15.705,13.6l0,0a.117.117,0,0,0,0-.166Z" fill="#83b9f9" />​
</svg>