<svg xmlns="http://www.w3.org/2000/svg" width="18" height="18" viewBox="0 0 18 18"><defs><linearGradient id="e3a1929f-235e-4bf0-912e-e32ec472d9ca" x1="11.462" y1="10.536" x2="11.462" y2="1.423" gradientUnits="userSpaceOnUse"><stop offset="0" stop-color="#0078d4" /><stop offset="0.149" stop-color="#1882db" /><stop offset="0.373" stop-color="#378fe4" /><stop offset="0.594" stop-color="#4c99ea" /><stop offset="0.806" stop-color="#5a9eee" /><stop offset="1" stop-color="#5ea0ef" /></linearGradient><linearGradient id="a58ac033-126d-45f0-b916-25fd6d357741" x1="6.484" y1="16.577" x2="6.484" y2="7.461" gradientUnits="userSpaceOnUse"><stop offset="0" stop-color="#32bedd" /><stop offset="1" stop-color="#50e6ff" /></linearGradient></defs><g id="bca2981c-4161-411d-8c69-c657beb9ef65"><g><path d="M17.891,7.681a2.889,2.889,0,0,0-2.508-2.776,3.641,3.641,0,0,0-3.75-3.482,3.735,3.735,0,0,0-3.57,2.434,3.447,3.447,0,0,0-3.03,3.317,3.5,3.5,0,0,0,3.62,3.362c.108,0,.214,0,.319-.014h5.863a.611.611,0,0,0,.155-.023A2.923,2.923,0,0,0,17.891,7.681Z" fill="url(#e3a1929f-235e-4bf0-912e-e32ec472d9ca)" /><path d="M9.835,11l.018.414.41.055a2.371,2.371,0,0,1,2.058,2.3,2.409,2.409,0,0,1-2.384,2.379h-6.3A2.976,2.976,0,0,1,.56,13.262a2.919,2.919,0,0,1,2.571-2.8l.3-.037.1-.285A3.216,3.216,0,0,1,6.609,8.021h.022A3.116,3.116,0,0,1,9.835,11Z" fill="#fff" /><path d="M13.6,5.66,12.013,4.122c-.173-.173-.319-.112-.319.156v.691a.194.194,0,0,1-.016.075.183.183,0,0,1-.108.1.194.194,0,0,1-.075.012c-1.02,0-3.864.268-3.967,4.157a.2.2,0,0,0,.2.2H8.738a.2.2,0,0,0,.08-.017.208.208,0,0,0,.067-.047.222.222,0,0,0,.042-.071.2.2,0,0,0,.01-.081,2.386,2.386,0,0,1,2.592-2.878.2.2,0,0,1,.2.2v.639c0,.32.1.372.32.156L13.6,5.989a.193.193,0,0,0,.064-.072.2.2,0,0,0,0-.185A.2.2,0,0,0,13.6,5.66Z" fill="#fff" /><path d="M3.578,16.577A3.469,3.469,0,0,1,.11,13.213v-.031A3.417,3.417,0,0,1,3.116,9.9a3.713,3.713,0,0,1,3.545-2.44,3.608,3.608,0,0,1,3.712,3.452h0a2.865,2.865,0,0,1,2.486,2.775v.017a2.9,2.9,0,0,1-2.874,2.868H3.7C3.659,16.577,3.618,16.577,3.578,16.577ZM1.1,13.2a2.483,2.483,0,0,0,2.567,2.389H9.98A1.914,1.914,0,0,0,11.87,13.7,1.876,1.876,0,0,0,10.242,11.9l-.822-.11-.035-.828A2.622,2.622,0,0,0,6.69,8.451H6.658a2.72,2.72,0,0,0-2.613,1.79l-.208.571-.6.072A2.425,2.425,0,0,0,1.1,13.2Z" fill="url(#a58ac033-126d-45f0-b916-25fd6d357741)" /></g></g></svg>