<svg xmlns="http://www.w3.org/2000/svg" width="18" height="18" viewBox="0 0 18 18"><defs><linearGradient id="f386bb7a-bcb2-4b67-b5b2-06819618ff51" x1="9.084" y1="790.967" x2="9.084" y2="787.492" gradientTransform="matrix(1, 0, 0, -1, 0, 791.516)" gradientUnits="userSpaceOnUse"><stop offset="0" stop-color="#50e6ff" /><stop offset="1" stop-color="#32bedd" /></linearGradient><linearGradient id="a62a9cad-b173-4785-ba81-8ee30d4dc6eb" x1="9.065" y1="13.843" x2="9.065" y2="10.368" gradientUnits="userSpaceOnUse"><stop offset="0" stop-color="#5e9624" /><stop offset="0.183" stop-color="#629c25" /><stop offset="0.435" stop-color="#6dae2a" /><stop offset="0.726" stop-color="#7fcb30" /><stop offset="0.822" stop-color="#86d633" /></linearGradient></defs><g id="bdcd7268-31fc-4163-9544-651d61f1498e"><g><path d="M7.85,13.342a1.738,1.738,0,1,0,2.436-2.479,1.715,1.715,0,0,0-.626-.389V3.009H8.548v7.444a1.729,1.729,0,0,0-.7,2.891Z" fill="#b3b3b3" /><circle cx="9.084" cy="2.209" r="1.738" fill="url(#f386bb7a-bcb2-4b67-b5b2-06819618ff51)" /><g><path d="M2.632,10.449h.937a.3.3,0,0,1,.3.3v6.909a.6.6,0,0,1-.6.6H2.332a0,0,0,0,1,0,0V10.749A.3.3,0,0,1,2.632,10.449Z" transform="translate(15.452 22.292) rotate(134.919)" fill="#50e6ff" /><path d="M2.581,6.093h.937a.3.3,0,0,1,.3.3v7.4a0,0,0,0,1,0,0H2.88a.6.6,0,0,1-.6-.6v-6.8A.3.3,0,0,1,2.581,6.093Z" transform="translate(7.91 0.749) rotate(44.919)" fill="#1490df" /><path d="M14.132,10.449h.937a.6.6,0,0,1,.6.6v6.909a.3.3,0,0,1-.3.3h-.937a.3.3,0,0,1-.3-.3V10.449a0,0,0,0,1,0,0Z" transform="translate(14.542 -6.333) rotate(45.081)" fill="#50e6ff" /><path d="M14.782,6.093h.937a0,0,0,0,1,0,0v7.4a.3.3,0,0,1-.3.3h-.937a.3.3,0,0,1-.3-.3v-6.8A.6.6,0,0,1,14.782,6.093Z" transform="translate(32.558 6.424) rotate(135.081)" fill="#1490df" /></g><circle cx="9.065" cy="12.106" r="1.738" fill="url(#a62a9cad-b173-4785-ba81-8ee30d4dc6eb)" /></g></g></svg>