<svg xmlns="http://www.w3.org/2000/svg" width="18" height="18" viewBox="0 0 18 18"><defs><linearGradient id="b4eb0015-cafa-4d8b-b104-a3c009ec6f5e" x1="-278" y1="852.647" x2="-278" y2="865.218" gradientTransform="matrix(1, 0, 0, -1, 287, 869.516)" gradientUnits="userSpaceOnUse"><stop offset="0" stop-color="#0078d4" /><stop offset="0.156" stop-color="#1380da" /><stop offset="0.528" stop-color="#3c91e5" /><stop offset="0.822" stop-color="#559cec" /><stop offset="1" stop-color="#5ea0ef" /></linearGradient><linearGradient id="a28b34d2-dab7-4a7e-a509-984215a8d620" x1="307" y1="388.577" x2="307" y2="397.288" gradientTransform="matrix(1, 0, 0, -1, -298, 403.516)" gradientUnits="userSpaceOnUse"><stop offset="0" stop-color="#ef7100" /><stop offset="1" stop-color="#faa21d" /></linearGradient></defs><g id="b71d3a06-bb1f-46fe-a42d-67137596a0d5"><g><path d="M13.378,4.4h-.9V2.035a.122.122,0,0,0-.027,0H5.659a.122.122,0,0,0-.027,0V4.4h-.9V1.99a.9.9,0,0,1,.927-.858h6.792a.9.9,0,0,1,.927.858Z" fill="#a3a3a3" /><rect y="4.298" width="18" height="12.57" rx="0.6" fill="url(#b4eb0015-cafa-4d8b-b104-a3c009ec6f5e)" /><g><path d="M11.359,6.235a2.307,2.307,0,0,0-2.366,1.55A2.317,2.317,0,0,0,6.612,6.251c-2.138.175-2.244,2.291-2.206,3.1.018.578.137,2.4,4.565,5.56l.038.027.038-.027c4.428-3.187,4.536-5.044,4.55-5.645C13.624,8.479,13.5,6.4,11.359,6.235Z" fill="url(#a28b34d2-dab7-4a7e-a509-984215a8d620)" /><g><path d="M13.483,8.07a3.447,3.447,0,0,1-.323,1.883,5.379,5.379,0,0,1-3.167,2.412.728.728,0,0,0-.529-.264.742.742,0,1,0,.691.8A7.412,7.412,0,0,0,13,11.075a3.326,3.326,0,0,0,.592-1.8A4.141,4.141,0,0,0,13.483,8.07Z" fill="#fff" opacity="0.9" /><path d="M7.107,12.472l.188.216a.286.286,0,0,0,.4.023l.428-.382a.287.287,0,0,0,.023-.4.281.281,0,0,0-.393-.063.3.3,0,0,0-.027.023l-.223.2C6.1,10.543,5.7,9.355,6.346,8.785S8.121,8.751,9.513,10.3l-.223.2a.282.282,0,0,0-.025.4h0a.276.276,0,0,0,.388.033h0l.012-.009.422-.377a.287.287,0,0,0,.023-.4L9.921,9.94c-.943-1.062-2.576-2.375-3.7-1.717a1.756,1.756,0,0,1-.477-1.112,1.242,1.242,0,0,1,.2-.726,1.911,1.911,0,0,0-.738.437A1.917,1.917,0,0,0,5.814,8.6C5.051,9.644,6.164,11.41,7.107,12.472Z" fill="#fff" opacity="0.9" /></g></g></g></g></svg>