<svg xmlns="http://www.w3.org/2000/svg" width="18" height="18" viewBox="0 0 18 18"><defs><linearGradient id="e5b10236-116c-43f0-b8d7-7aa8147c1acb" x1="9" y1="13.712" x2="9" y2="4.288" gradientUnits="userSpaceOnUse"><stop offset="0" stop-color="#005ba1" /><stop offset="1" stop-color="#0078d4" /></linearGradient></defs><g id="bc0fc658-18aa-4012-8502-7ef109ac781e"><g><path d="M.609,13.712H9.272a.606.606,0,0,0,.432-.181l8.119-8.206a.609.609,0,0,0-.433-1.037H.609A.608.608,0,0,0,0,4.9V13.1A.608.608,0,0,0,.609,13.712Z" fill="url(#e5b10236-116c-43f0-b8d7-7aa8147c1acb)" /><polygon points="8.329 7.767 8.329 10.014 6.388 11.143 6.388 8.893 8.329 7.767" fill="#fff" opacity="0.6" /><polygon points="8.329 7.767 6.388 8.896 4.443 7.764 6.388 6.635 8.329 7.767" fill="#fff" opacity="0.9" /><polygon points="6.388 8.896 6.388 11.143 4.443 10.014 4.443 7.764 6.388 8.896" fill="#fff" opacity="0.75" /><path d="M6.665,5.117l.246.135.1.055a.132.132,0,0,1,0,.228l-.1.059-.3.178a3.232,3.232,0,0,1,2.353,5.166.065.065,0,0,0-.011.022l-.123.458A.131.131,0,0,0,9,11.579l.365-.1a.067.067,0,0,0,.034-.023A3.888,3.888,0,0,0,6.665,5.117Z" fill="#00ffff" opacity="0.75" /><path d="M8.832,11.829l-.11.029a.131.131,0,0,1-.161-.161l.03-.11.081-.3a3.223,3.223,0,0,1-4.346.205,3.286,3.286,0,0,1-.627-.694.061.061,0,0,0-.024-.021l-.319-.164a.131.131,0,0,0-.191.124l.023.459a.077.077,0,0,0,.012.036,3.946,3.946,0,0,0,.552.631,3.884,3.884,0,0,0,5.387-.112Z" fill="#00ffff" opacity="0.5" /><path d="M2.956,10.516,2.95,10.4a.132.132,0,0,1,.191-.124l.1.052.263.134A3.231,3.231,0,0,1,5.363,5.93a3.245,3.245,0,0,1,.87-.163.055.055,0,0,0,.03-.009l.358-.216a.131.131,0,0,0-.005-.227l-.356-.2a.062.062,0,0,0-.035-.008,3.823,3.823,0,0,0-.875.137,3.887,3.887,0,0,0-2.376,5.617Z" fill="#00ffff" /></g></g></svg>