<svg id="uuid-54cc9e20-2e30-4e65-a9a4-8bc4f07d47c6" xmlns="http://www.w3.org/2000/svg" width="18" height="18" viewBox="0 0 18 18"><g><rect x="5.974" y="0" width="6.053" height="6.053" rx=".401" ry=".401" fill="#a67af4" /><path d="M11.392,5.523H6.611c-.059,0-.107-.048-.107-.108V.638c0-.059,.048-.107,.107-.108h4.778c.059,0,.108,.048,.108,.108V5.415c0,.058-.046,.106-.105,.108Z" fill="#773adc" /><g><rect x="7.202" y=".983" width="1.257" height="4.087" fill="#b796f9" /><rect x="9.541" y=".982" width="1.257" height="4.088" fill="#b796f9" /></g></g><g><path d="M8.045,10.794c.292-.107,.598-.161,.909-.161,.303,0,.602,.052,.888,.154l2.184,.779V7.225c0-.221-.179-.401-.401-.401H6.375c-.221,0-.401,.179-.401,.401v4.327l2.071-.758Z" fill="#a67af4" /><path d="M8.045,10.794c.292-.107,.598-.161,.909-.161,.303,0,.602,.052,.888,.154l1.654,.59v-3.914c0-.059-.048-.108-.108-.108H6.611c-.059,0-.107,.048-.107,.108v3.896l1.541-.564Z" fill="#773adc" /><g><path d="M9.842,10.786l.956,.341v-3.321h-1.257v2.894c.102,.023,.202,.05,.301,.085Z" fill="#b796f9" /><path d="M8.045,10.794c.135-.05,.274-.087,.414-.113v-2.873h-1.257v3.295l.843-.309Z" fill="#b796f9" /></g></g><g><path d="M5.264,2.406H1.159c-.204,0-.37,.166-.37,.37V7.623c0,.204,.166,.37,.37,.37H5.264V2.406Z" fill="#a67af4" /><path d="M5.264,2.895H1.376c-.055,0-.099,.045-.099,.099V7.404c0,.055,.044,.099,.099,.099h3.887V2.895Z" fill="#773adc" /><g><rect x="1.922" y="3.313" width="1.161" height="3.773" fill="#b796f9" /><rect x="4.103" y="3.312" width="1.161" height="3.774" fill="#b796f9" /></g></g><g><path d="M2.807,11.517c.237-.087,.485-.131,.737-.131,.246,0,.489,.042,.72,.125l.999,.356v-3.183H1.159c-.204,0-.37,.166-.37,.37v3.202l2.019-.739Z" fill="#a67af4" /><path d="M2.807,11.517c.237-.087,.485-.131,.737-.131,.246,0,.489,.042,.72,.125l.999,.356v-2.694H1.376c-.055,0-.099,.045-.099,.099v2.804l1.53-.56Z" fill="#773adc" /><g><path d="M4.287,11.511l.977,.349v-2.269h-1.161v1.864c.062,.016,.123,.035,.184,.056Z" fill="#b796f9" /><path d="M2.807,11.517c.09-.033,.182-.058,.276-.078v-1.847H1.922v2.25l.885-.324Z" fill="#b796f9" /></g></g><g><path d="M15.136,11.517c-.237-.087-.485-.131-.737-.131-.246,0-.489,.042-.72,.125l-.999,.356v-3.183h4.105c.204,0,.37,.166,.37,.37v3.202l-2.019-.739Z" fill="#a67af4" /><path d="M15.136,11.517c-.237-.087-.485-.131-.737-.131-.246,0-.489,.042-.72,.125l-.999,.356v-2.694h3.887c.055,0,.099,.045,.099,.099v2.804l-1.53-.56Z" fill="#773adc" /><g><path d="M13.656,11.511l-.977,.349v-2.269h1.161v1.864c-.062,.016-.123,.035-.184,.056Z" fill="#b796f9" /><path d="M15.136,11.517c-.09-.033-.182-.058-.276-.078v-1.847h1.161v2.25l-.885-.324Z" fill="#b796f9" /></g></g><g><path d="M12.68,2.406h4.105c.204,0,.37,.166,.37,.37V7.623c0,.204-.166,.37-.37,.37h-4.105V2.406Z" fill="#a67af4" /><path d="M12.68,2.895h3.887c.055,0,.099,.045,.099,.099V7.404c0,.055-.044,.099-.099,.099h-3.887V2.895Z" fill="#773adc" /><g><rect x="14.86" y="3.313" width="1.161" height="3.773" fill="#b796f9" /><rect x="12.68" y="3.312" width="1.161" height="3.774" fill="#b796f9" /></g></g><path d="M17.988,17.993H0l.004-1.012c.079,.007,.164,.011,.254,.011,.726-.001,1.09-.234,1.454-.467,.365-.233,.73-.467,1.459-.467h.003c.73,0,1.094,.233,1.459,.467,.365,.233,.729,.467,1.458,.467,.729,0,1.093-.234,1.458-.467,.365-.233,.73-.467,1.459-.467h.003c.182,0,.34,.015,.482,.04,.432,.077,.708,.252,.983,.428,.365,.233,.729,.465,1.456,.466,.728,0,1.092-.234,1.456-.467,.365-.233,.73-.467,1.459-.467h.014c.725,.004,1.09,.236,1.454,.468,.365,.233,.73,.466,1.459,.466,.075,0,.145-.002,.213-.007v1.008Z" fill="#83b9f9" /><g><path d="M.092,13.594l.82,1.762,.026,.056h0l.22,.496,.128,.293c.051-.031,.102-.062,.156-.096,.38-.243,.853-.546,1.731-.546s1.349,.303,1.729,.546c.179,.114,.34,.214,.536,.284l-.243-.504-.014-.029-.032-.068-1.011-2.172-.013-.027-.01-.029c-.007-.019-.068-.194-.108-.366-.041-.176-.072-.383,.013-.586,.088-.212,.247-.385,.448-.492l-.372-.133c-.361-.129-.757-.127-1.117,.005l-2.221,.813H.758l-.58,.213c-.078,.029-.141,.089-.173,.166-.012,.03-.002,.098,.015,.171,.027,.116,.072,.244,.072,.244Z" fill="#0078d4" /><path d="M4.698,13.354l1.011,2.172,.032,.068h0l.413,.893c.534-.014,.801-.175,1.125-.383,.38-.243,.853-.546,1.731-.546,.204,0,.391,.016,.57,.048,.531,.094,.868,.309,1.165,.499,.296,.189,.55,.336,.994,.372l.44-.873,.01,.003,.04-.081,.054-.109,.045-.091,.966-1.969s.154-.415,.114-.512c-.039-.097-.118-.172-.217-.208l-.818-.292h0l-2.74-.978c-.446-.159-.933-.157-1.377,.006l-2.738,1.003h0l-.715,.262c-.096,.035-.174,.109-.213,.204-.015,.036-.003,.121,.018,.21,.033,.143,.089,.301,.089,.301Z" fill="#0078d4" /><path d="M13.967,12.607c.084,.203,.054,.411,.013,.586-.04,.171-.101,.346-.108,.366l-.01,.029-.013,.027-1.011,2.172-.032,.068-.014,.029-.249,.515c.213-.071,.385-.174,.575-.295,.372-.238,.833-.533,1.708-.544h.037c.872,.003,1.342,.304,1.721,.545,.043,.027,.083,.051,.125,.077l.12-.274,.22-.496h0l.026-.055,.82-1.762s.045-.128,.072-.244c.017-.073,.027-.141,.015-.171-.032-.077-.095-.137-.173-.166l-.58-.212h0l-2.221-.814c-.36-.132-.756-.134-1.117-.005l-.372,.133c.2,.107,.36,.28,.448,.492Z" fill="#0078d4" /></g></svg>