<svg id="uuid-744b7e95-5014-4b35-9539-e9d033b8eb43" xmlns="http://www.w3.org/2000/svg" width="18" height="18" viewBox="0 0 18 18"><defs><linearGradient id="uuid-8330c0b7-02da-472e-8acd-3f9e411386c8" x1="-313.941" y1="642.516" x2="-313.941" y2="653.768" gradientTransform="translate(324 660.516) scale(1 -1)" gradientUnits="userSpaceOnUse"><stop offset="0" stop-color="#32bedd" /><stop offset="1" stop-color="#50e6ff" /></linearGradient></defs><path d="M8.686,9.038l.015,.005-.015-.005Z" fill="none" /><path d="M8.686,10.626l.015,.005-.015-.005Z" fill="none" /><path d="M8.686,4.273l.015,.005-.015-.005Z" fill="none" /><path d="M8.686,5.861l.015,.005-.015-.005Z" fill="none" /><path d="M18,14.474c-.057-1.746-1.367-3.195-3.098-3.428-.126-2.444-2.185-4.337-4.631-4.258-1.948-.047-3.713,1.139-4.407,2.959-2.091,.252-3.683,1.994-3.747,4.098,.092,2.379,2.092,4.236,4.471,4.152h7.867c1.935-.034,3.5-1.588,3.545-3.524Z" fill="url(#uuid-8330c0b7-02da-472e-8acd-3f9e411386c8)" /><g><path d="M7.642,16.001l-1.947-1.956c-.038-.029-.046-.083-.017-.122,.005-.007,.011-.012,.017-.017l1.947-1.947c.043-.039,.109-.035,.147,.008,.015,.017,.025,.039,.027,.062v1.147c-.002,.053,.039,.097,.092,.099,.01,0,.02,0,.03-.004h2.521c.053,.005,.092,.051,.087,.104h0v1.209c0,.053-.043,.096-.096,.096h-2.512c-.053,0-.096,.042-.096,.095v1.156c.02,.055-.01,.116-.065,.135s-.116-.01-.135-.065h0Z" fill="#fff" /><path d="M12.44,11.959l2.016,2.016-2.016,2.025c-.036,.038-.097,.04-.135,.004-.02-.019-.031-.046-.03-.074v-1.147c0-.058-.047-.104-.104-.104h-2.607v-1.408h2.607c.057,.005,.108-.037,.113-.095h0v-1.148c.002-.053,.047-.094,.1-.091,.021,0,.041,.009,.057,.022Z" fill="#fff" /></g><path d="M1.414,13.873v-.049c.021-.685,.184-1.353,.472-1.964-1.148-.245-1.869-.599-1.869-.992v2.697c0,.344,.551,.657,1.455,.894-.03-.192-.05-.387-.058-.586Z" fill="#005ba1" /><path d="M2.711,10.627c.39-.427,.851-.775,1.355-1.041C1.724,9.752,.017,10.263,.017,10.868c0,.393,.721,.747,1.868,.992,.211-.447,.487-.864,.826-1.234Z" fill="#198ab3" /><g><path d="M11.394,6.174v-.071c0,.023-.003,.046-.007,.069l.007,.002Z" fill="#0078d4" /><path d="M5.369,9.115c.31-.653,.75-1.224,1.279-1.691-.307,.012-.621,.019-.943,.019C2.564,7.443,.017,6.843,.017,6.103v2.698c0,.544,1.381,1.012,3.362,1.222,.587-.445,1.266-.757,1.991-.907Z" fill="#0078d4" /></g><path d="M6.649,7.423c.952-.841,2.196-1.341,3.511-1.341,.036,0,.072,0,.108,.001,.05-.001,.1-.002,.15-.002,.331,0,.654,.031,.968,.091,.005-.023,.007-.046,.007-.069,0-.739-2.547-1.339-5.688-1.339S.017,5.364,.017,6.103s2.547,1.339,5.688,1.339c.322,0,.637-.007,.944-.019Z" fill="#32bedd" /><g><path d="M5.688,2.679C2.582,2.679,.058,2.092,.005,1.364h-.005v2.672c0,.74,2.547,1.34,5.688,1.34,3.076,0,5.58-.575,5.683-1.293h0v-.046c0-.008,0-.016,0-.024v-.037h0V1.339c.005,.739-2.542,1.34-5.683,1.34Z" fill="#5ea0ef" /><ellipse cx="5.688" cy="1.339" rx="5.688" ry="1.339" fill="#9cebff" /></g></svg>