<svg id="uuid-e675764d-a014-4885-a91b-521dadea5143" xmlns="http://www.w3.org/2000/svg" width="18" height="18" viewBox="0 0 18 18"><defs><linearGradient id="uuid-6ec85919-fa1f-48f4-a32e-4a1bf1aadb6f" x1="-560.027" y1="1206.903" x2="-559.957" y2="1198.078" gradientTransform="translate(568 1211.032) scale(1 -1)" gradientUnits="userSpaceOnUse"><stop offset="0" stop-color="#ccc" /><stop offset="1" stop-color="#ccc" stop-opacity=".02" /></linearGradient></defs><g><path d="m5.837,14.493v2.469l.857.921c.051.061.122.102.201.117h2.117c.092-.004.178-.044.24-.112l.858-.921v-2.474h-4.273Z" fill="#cecece" /><path d="m13.475,3.224s0,0,0,0c-.048-.086-.097-.172-.149-.255,0-.002-.002-.003-.003-.005-.051-.083-.105-.165-.16-.246,0-.001-.002-.002-.002-.004-.502-.733-1.158-1.357-1.929-1.821-.002-.001-.004-.003-.007-.004-.08-.048-.161-.094-.244-.139-.01-.005-.019-.01-.029-.016-.075-.04-.15-.078-.227-.115-.019-.009-.039-.018-.059-.028-.067-.032-.135-.062-.203-.091-.031-.013-.063-.026-.094-.039-.058-.023-.116-.046-.174-.068-.044-.017-.089-.032-.134-.048-.047-.016-.094-.033-.142-.048-.058-.019-.116-.036-.175-.053-.037-.01-.073-.021-.11-.031-.07-.019-.141-.036-.212-.052-.027-.006-.054-.013-.082-.019-.079-.017-.16-.032-.24-.046-.022-.004-.043-.008-.065-.011-.083-.014-.166-.025-.25-.035-.016-.002-.031-.005-.047-.007-.006,0-.013,0-.019-.002-.092-.01-.185-.018-.279-.025-.026-.002-.051-.004-.077-.006-.11-.006-.22-.009-.331-.01-.004,0-.009,0-.013,0h-.13s-.009,0-.013,0c-.111,0-.222.004-.331.01-.026.001-.051.004-.077.006-.094.006-.187.014-.279.025-.006,0-.013,0-.019.002-.016.002-.031.005-.047.007-.084.01-.167.022-.25.035-.022.004-.043.008-.065.011-.081.014-.161.029-.24.047-.027.006-.054.012-.082.019-.071.016-.142.034-.212.052-.037.01-.073.02-.11.031-.059.017-.117.034-.175.053-.048.015-.095.031-.142.048-.045.016-.09.031-.134.048-.059.022-.117.045-.174.068-.032.013-.063.026-.094.039-.069.029-.136.06-.203.091-.02.009-.039.018-.059.028-.077.037-.152.075-.227.115-.01.005-.02.01-.029.016-.082.045-.163.091-.243.139-.002.001-.005.003-.007.004-.771.464-1.427,1.088-1.929,1.821,0,.001-.002.002-.002.004-.055.081-.109.163-.16.246,0,.002-.002.003-.003.005-.052.084-.101.169-.149.255,0,0,0,0,0,0-.606,1.097-.889,2.385-.734,3.724.017.141.041.277.069.41.485,2.34,2.745,3.598,3.417,6.733.053.233.258.399.497.402h4.546c.239-.003.444-.169.497-.402.672-3.134,2.931-4.392,3.417-6.731.029-.134.053-.27.069-.411.155-1.339-.128-2.627-.734-3.724Z" fill="#f2f2f2" /><path d="m10.554,3.495c-.814.029-1.452.709-1.428,1.523v.815h-2.234v-.815c.018-.823-.634-1.505-1.457-1.523h-.035c-.844.06-1.48.794-1.42,1.638.054.76.659,1.365,1.42,1.42h.678v6.35c.013.21.195.37.405.356.192-.012.344-.165.356-.356v-6.35h2.287v6.35c.013.21.195.37.405.356.192-.012.344-.165.356-.356v-6.35h.667c.817-.028,1.456-.713,1.428-1.529v-.002h0c.025-.815-.613-1.498-1.428-1.526h0Zm-4.477,2.336h-.72c-.45.056-.86-.263-.916-.713-.056-.45.263-.86.713-.916.45-.056.86.263.916.713.004.034.006.067.006.101v.815h0Zm4.53,0h-.72v-.857c-.04-.395.248-.749.643-.789.384-.039.731.232.785.614.008.058.008.117,0,.174.045.423-.258.804-.681.855l-.028.002h.001Z" fill="url(#uuid-6ec85919-fa1f-48f4-a32e-4a1bf1aadb6f)" /><polygon points="10.11 16.532 10.11 16.066 5.837 16.915 5.837 16.962 6.167 17.317 10.11 16.532" fill="#999" /><path d="m10.11,14.892l-4.273.838v.466l4.28-.829-.007-.475Z" fill="#999" /></g><g id="uuid-b4c57418-a630-4e90-907d-8685652cc478"><g><path d="m16.345,13.884v-.823c0-.061-.038-.115-.094-.136l-.05-.018-1.035-.339c-.041-.013-.073-.044-.089-.083l-.238-.578c-.016-.038-.014-.08.003-.117l.487-1.038c.026-.056.014-.122-.029-.165l-.573-.572c-.044-.044-.112-.056-.168-.027l-.05.025-.962.49c-.038.019-.082.021-.121.005l-.578-.238c-.038-.016-.068-.046-.081-.085l-.397-1.085c-.021-.057-.076-.096-.137-.096h-.823c-.061,0-.115.038-.136.094l-.018.05-.339,1.035c-.013.041-.044.073-.083.089l-.578.238c-.038.016-.081.014-.118-.003l-1.02-.487c-.056-.027-.123-.016-.167.028l-.571.572c-.045.044-.056.112-.028.168l.025.05.494.964c.019.038.021.083.005.122l-.238.578c-.016.038-.047.068-.085.082l-1.104.397c-.058.021-.097.075-.096.137v.822c0,.061.038.115.094.136l.05.018,1.036.339c.041.013.073.044.089.083l.238.578c.016.038.014.08-.003.117l-.489,1.038c-.026.056-.014.122.029.165l.573.573c.044.044.112.056.168.027l.05-.025.966-.491c.038-.019.082-.021.121-.005l.578.238c.038.016.068.046.081.085l.395,1.085c.021.058.076.096.137.096h.823c.061,0,.115-.038.136-.094l.018-.05.339-1.036c.013-.041.044-.073.083-.089l.578-.238c.038-.016.08-.014.117.003l1.037.487c.056.026.122.014.165-.029l.573-.573c.044-.044.056-.112.027-.168l-.025-.05-.49-.961c-.019-.038-.021-.082-.005-.121l.238-.578c.016-.038.046-.068.085-.081l1.085-.395c.058-.021.097-.077.096-.139Z" fill="#b3b3b3" /><circle cx="11.845" cy="13.5" r="2.431" fill="#e6e6e6" /><path d="m11.139,14.313l-.754-.754c-.069-.086-.194-.101-.281-.032-.086.069-.101.194-.032.281.009.012.02.023.032.032l.895.895c.078.077.204.077.281,0l2.188-2.188c.086-.069.1-.195.03-.281s-.195-.1-.281-.03c-.011.009-.021.019-.03.03l-2.048,2.048Z" fill="#b3b3b3" /></g></g></svg>