<svg width="18" height="18" viewBox="0 0 18 18" fill="none" xmlns="http://www.w3.org/2000/svg"><path d="M15.7325 3.50212L14.4946 3.47047H14.3465L12.1565 3.14347L10.7493 2.5211L9.86058 0L7.81864 0.0210971L7.72342 0.305908L7.02514 2.50001L5.61799 3.10127L3.22691 2.04642L1.80918 3.47047L1.9573 3.75528L3.01531 5.79115L2.45457 7.19411L0 8.11183V10.1688L0.285661 10.2637L2.48631 10.9388L3.08937 12.3418L2.03136 14.7363L3.50199 16.1604L3.76649 16.0127L5.80843 14.9578L6.4644 15.7595L8.1572 17.9853H10.1991L10.2944 17.7005L11.0244 16.4135L12.1882 15.8334L14.4946 15.6962L15.9335 14.23V14.0929L16.2192 13.038L17.055 10.538L15.7325 3.50212ZM9.0036 13.5971C8.08692 13.5991 7.19032 13.3295 6.42771 12.8223C5.6651 12.3152 5.07091 11.5935 4.72062 10.7489C4.37033 9.90428 4.27976 8.97493 4.46042 8.0789C4.64108 7.18287 5.08481 6.36061 5.73523 5.71658C6.38566 5.07255 7.21342 4.63583 8.11335 4.4619C9.01327 4.28797 9.94475 4.38468 10.7894 4.73975C11.6341 5.09482 12.3538 5.69222 12.8572 6.45604C13.3606 7.21987 13.6249 8.11564 13.6165 9.02956C13.6081 10.2438 13.1184 11.4055 12.2542 12.2612C11.3901 13.1169 10.2215 13.5971 9.0036 13.5971Z" fill="url(#paint0_linear_6102_134475)" /><path d="M9.00292 12.7445C9.0503 12.833 9.14275 12.9049 9.26117 12.9453L13.6172 14.6534C13.7836 14.7186 13.9688 14.7548 14.1578 14.7589C14.3469 14.763 14.5347 14.735 14.7062 14.6771L17.771 13.3582C17.8194 13.3413 17.8615 13.3161 17.8937 13.2849C17.9259 13.2537 17.9473 13.2173 17.9561 13.1788C17.9585 13.1654 17.9585 13.1517 17.9561 13.1382C17.94 13.0864 17.9072 13.038 17.8604 12.997C17.8137 12.956 17.7543 12.9236 17.687 12.9024L13.3387 11.1955C13.1724 11.1302 12.9872 11.094 12.7981 11.0899C12.609 11.0858 12.4212 11.1138 12.2497 11.1718L9.1756 12.4884C9.10896 12.5087 9.05473 12.5458 9.02298 12.5929C8.99122 12.64 8.9841 12.6939 9.00292 12.7445Z" fill="url(#paint1_linear_6102_134475)" /><path d="M15.0221 17.5428L15.0128 17.554L14.7608 17.6612L14.7499 17.6669C14.5784 17.7248 14.3906 17.7529 14.2015 17.7488C14.0124 17.7446 13.8273 17.7085 13.6609 17.6432L9.30483 15.9362C9.0917 15.8493 9.00146 15.7309 9.04502 15.6271L8.99835 12.7445C9.04573 12.833 9.13819 12.9049 9.2566 12.9453L13.6126 14.6534C13.7791 14.7187 13.9642 14.7548 14.1533 14.7589C14.3424 14.763 14.5302 14.735 14.7017 14.6771L14.7141 14.6715L17.7665 13.3571C17.8146 13.3401 17.8565 13.3149 17.8884 13.2837C17.9204 13.2524 17.9415 13.2161 17.95 13.1777L17.9983 16.128C18.0006 16.1415 18.0006 16.1551 17.9983 16.1686C17.989 16.2069 17.9673 16.2431 17.9352 16.2743C17.903 16.3055 17.8612 16.3307 17.8131 16.348L17.7011 16.3954L15.0221 17.5428Z" fill="#003067" /><path fill-rule="evenodd" clip-rule="evenodd" d="M11.153 14.3356L9.71283 13.7318V13.9642L11.153 14.5681V14.3356ZM11.153 14.9277L9.71916 14.3265V14.5589L11.153 15.1601V14.9277ZM11.393 15.2607V15.0283L13.1418 15.7616V15.994L11.393 15.2607ZM11.153 15.5233L9.71916 14.9221V15.1545L11.153 15.7557V15.5233ZM11.393 15.8563V15.6239L13.1418 16.3572V16.5896L11.393 15.8563ZM11.393 14.6687V14.4363L13.1354 15.1669V15.3993L11.393 14.6687Z" fill="#32B0E7" /><path d="M16.8065 14.7695C16.6914 14.721 16.6914 14.5642 16.8065 14.4186C16.9216 14.2731 17.1176 14.193 17.2265 14.246C17.3354 14.2991 17.3401 14.4514 17.2265 14.5958C17.113 14.7402 16.917 14.818 16.8065 14.7695Z" fill="#50E6FF" /><path d="M9.0029 8.35798C9.05021 8.44632 9.14251 8.5181 9.26073 8.55847L13.6096 10.2638C13.7758 10.3289 13.9606 10.3649 14.1494 10.3691C14.3381 10.3732 14.5256 10.3452 14.6968 10.2874L17.7566 8.97072C17.8049 8.95376 17.8469 8.92865 17.8791 8.89749C17.9112 8.86633 17.9326 8.83002 17.9414 8.79163C17.9437 8.77816 17.9437 8.76454 17.9414 8.75108C17.9253 8.69929 17.8926 8.65099 17.8459 8.61009C17.7992 8.56919 17.7399 8.53684 17.6727 8.51567L13.3316 6.8115C13.1655 6.74629 12.9807 6.71019 12.7919 6.70608C12.6031 6.70198 12.4156 6.72998 12.2444 6.78785L9.1753 8.1023C9.10877 8.12257 9.05463 8.15966 9.02293 8.20668C8.99122 8.25369 8.98411 8.30745 9.0029 8.35798Z" fill="url(#paint2_linear_6102_134475)" /><path d="M15.0122 13.1485L15.0029 13.1598L14.7513 13.2668L14.7404 13.2724C14.5693 13.3303 14.3818 13.3583 14.193 13.3542C14.0042 13.3501 13.8193 13.314 13.6532 13.2488L9.30433 11.5446C9.09154 11.4579 9.00146 11.3396 9.04495 11.236L8.99835 8.35815C9.04566 8.44649 9.13796 8.51827 9.25618 8.55865L13.6051 10.2639C13.7712 10.3291 13.956 10.3651 14.1448 10.3692C14.3336 10.3733 14.5211 10.3454 14.6923 10.2876L14.7047 10.282L17.7521 8.96976C17.8002 8.95275 17.8419 8.9276 17.8738 8.89643C17.9057 8.86526 17.9268 8.82899 17.9353 8.79067L17.9835 11.7361C17.9858 11.7495 17.9858 11.7632 17.9835 11.7766C17.9742 11.8149 17.9526 11.851 17.9205 11.8822C17.8884 11.9133 17.8467 11.9385 17.7986 11.9557L17.6868 12.003L15.0122 13.1485Z" fill="#003067" /><path fill-rule="evenodd" clip-rule="evenodd" d="M11.1494 9.94671L9.71161 9.34387V9.5759L11.1494 10.1787V9.94671ZM11.1494 10.5377L9.71792 9.93747V10.1695L11.1494 10.7697V10.5377ZM11.389 10.8702V10.6381L13.1349 11.3702V11.6022L11.389 10.8702ZM11.1494 11.1324L9.71792 10.5322V10.7642L11.1494 11.3644V11.1324ZM11.389 11.4649V11.2328L13.1349 11.9649V12.1969L11.389 11.4649ZM11.389 10.2792V10.0472L13.1286 10.7766V11.0086L11.389 10.2792Z" fill="#32B0E7" /><path d="M16.7937 10.3797C16.6788 10.3313 16.6788 10.1747 16.7937 10.0294C16.9087 9.88412 17.1044 9.80415 17.2131 9.85709C17.3218 9.91003 17.3265 10.0621 17.2131 10.2063C17.0997 10.3504 16.904 10.4281 16.7937 10.3797Z" fill="#50E6FF" /><path d="M9.0029 3.70661C9.05021 3.79495 9.14251 3.86673 9.26073 3.90711L13.6096 5.6124C13.7758 5.67752 13.9606 5.71358 14.1494 5.71768C14.3381 5.72179 14.5256 5.69384 14.6968 5.63605L17.7566 4.31935C17.8049 4.3024 17.8469 4.27728 17.8791 4.24612C17.9112 4.21496 17.9326 4.17866 17.9414 4.14026C17.9437 4.1268 17.9437 4.11317 17.9414 4.09971C17.9253 4.04792 17.8926 3.99962 17.8459 3.95872C17.7992 3.91782 17.7399 3.88547 17.6727 3.8643L13.3316 2.16014C13.1655 2.09493 12.9807 2.05882 12.7919 2.05472C12.6031 2.05061 12.4156 2.07861 12.2444 2.13648L9.1753 3.45093C9.10877 3.47121 9.05463 3.50829 9.02293 3.55531C8.99122 3.60232 8.98411 3.65608 9.0029 3.70661Z" fill="url(#paint3_linear_6102_134475)" /><path d="M15.0122 8.49715L15.0029 8.50841L14.7513 8.61542L14.7404 8.62105C14.5693 8.67892 14.3818 8.70692 14.193 8.70282C14.0042 8.69871 13.8193 8.66261 13.6532 8.5974L9.30433 6.89323C9.09154 6.8065 9.00146 6.68823 9.04495 6.58461L8.99835 3.70679C9.04566 3.79512 9.13796 3.8669 9.25618 3.90728L13.6051 5.61257C13.7712 5.6777 13.956 5.71375 14.1448 5.71786C14.3336 5.72196 14.5211 5.69401 14.6923 5.63622L14.7047 5.63059L17.7521 4.31839C17.8002 4.30138 17.8419 4.27623 17.8738 4.24506C17.9057 4.21389 17.9268 4.17762 17.9353 4.13931L17.9835 7.08471C17.9858 7.09817 17.9858 7.11179 17.9835 7.12526C17.9742 7.16353 17.9526 7.19968 17.9205 7.23079C17.8884 7.2619 17.8467 7.2871 17.7986 7.30435L17.6868 7.35165L15.0122 8.49715Z" fill="#003067" /><path fill-rule="evenodd" clip-rule="evenodd" d="M11.1494 5.29535L9.71161 4.6925V4.92453L11.1494 5.52737V5.29535ZM11.1494 5.8863L9.71792 5.2861V5.51813L11.1494 6.11833V5.8863ZM11.389 6.2188V5.98677L13.1349 6.71882V6.95085L11.389 6.2188ZM11.1494 6.481L9.71792 5.8808V6.11283L11.1494 6.71303V6.481ZM11.389 6.8135V6.58147L13.1349 7.31352V7.54555L11.389 6.8135ZM11.389 5.62785V5.39582L13.1286 6.12522V6.35725L11.389 5.62785Z" fill="#32B0E7" /><path d="M16.7937 5.72835C16.6788 5.67992 16.6788 5.52335 16.7937 5.37806C16.9087 5.23276 17.1044 5.15279 17.2131 5.20572C17.3218 5.25866 17.3265 5.41072 17.2131 5.55489C17.0997 5.69906 16.904 5.77678 16.7937 5.72835Z" fill="#50E6FF" /><defs><linearGradient id="paint0_linear_6102_134475" x1="8.5275" y1="0" x2="8.5275" y2="17.9853" gradientUnits="userSpaceOnUse"><stop stop-color="#7A7A7A" /><stop offset="1" stop-color="#454545" /></linearGradient><linearGradient id="paint1_linear_6102_134475" x1="13.4752" y1="11.0895" x2="13.4752" y2="14.7592" gradientUnits="userSpaceOnUse"><stop stop-color="#5EA0EF" /><stop offset="0.18" stop-color="#559CEC" /><stop offset="0.47" stop-color="#3C91E5" /><stop offset="0.84" stop-color="#1380DA" /><stop offset="1" stop-color="#0078D4" /></linearGradient><linearGradient id="paint2_linear_6102_134475" x1="13.4679" y1="6.70571" x2="13.4679" y2="10.3694" gradientUnits="userSpaceOnUse"><stop stop-color="#5EA0EF" /><stop offset="0.18" stop-color="#559CEC" /><stop offset="0.47" stop-color="#3C91E5" /><stop offset="0.84" stop-color="#1380DA" /><stop offset="1" stop-color="#0078D4" /></linearGradient><linearGradient id="paint3_linear_6102_134475" x1="13.4679" y1="2.05434" x2="13.4679" y2="5.71806" gradientUnits="userSpaceOnUse"><stop stop-color="#5EA0EF" /><stop offset="0.18" stop-color="#559CEC" /><stop offset="0.47" stop-color="#3C91E5" /><stop offset="0.84" stop-color="#1380DA" /><stop offset="1" stop-color="#0078D4" /></linearGradient></defs></svg>