<svg width="18" height="19" viewBox="0 0 18 19" fill="none" xmlns="http://www.w3.org/2000/svg"><path d="M9.89065 4.41978L10.6617 3.76509C10.8381 3.61525 11.1063 3.64447 11.261 3.83035C11.4157 4.01623 11.3981 4.28818 11.2217 4.43799L10.3189 5.2046C10.2341 5.27681 10.1205 5.3103 10.0105 5.29832L8.31511 5.11363C8.1623 5.09698 8.0046 4.96582 7.95134 4.83481L7.31669 3.27391L5.88328 3.11776C5.649 3.09223 5.47187 2.87939 5.48725 2.64187C5.50262 2.40436 5.70464 2.23282 5.93892 2.25834L7.37232 2.41449L8.19877 1.01275C8.26671 0.8978 8.42884 0.798623 8.5933 0.816538L10.2887 1.00123C10.3986 1.01321 10.5064 1.07082 10.5807 1.16035L11.3723 2.11151C11.527 2.29739 11.5094 2.56934 11.3329 2.71915C11.1565 2.86896 10.8883 2.83974 10.7336 2.65386L10.0576 1.84153L8.79966 1.7045L8.08042 2.92436L8.63274 4.28275L9.89065 4.41978Z" fill="#605E5C" /><path d="M10.1413 11.6121L10.1312 11.6022C9.67665 11.2066 8.08065 10 7.46453 10L4.99988 11.9681L5.95947 13.2835C5.94937 13.3429 5.94937 13.4022 5.94937 13.4615V15.5055C5.94937 15.7824 6.17156 16 6.45442 16H10.4948C10.7777 16 10.9999 15.7824 10.9999 15.5055V13.4615C10.9998 12.7395 10.6867 12.067 10.1413 11.6121Z" fill="#A19F9D" /><path d="M5.84485 4.20984L5.01908 8.26142C4.9959 8.37669 4.93432 8.47442 4.84966 8.54285C4.75901 8.61612 4.64155 8.65536 4.51691 8.64657L2.73537 8.52089C2.25425 8.48924 1.8318 8.81837 1.73038 9.3028C1.67309 9.57397 1.40984 9.73947 1.14042 9.67146C0.871415 9.60244 0.69811 9.32649 0.752781 9.05353C0.778502 8.92608 2.05834 2.58275 2.03262 2.71021C2.03336 2.70961 2.03275 2.70882 2.03275 2.70882C2.09122 2.43602 2.35248 2.26957 2.62252 2.33837C3.31305 2.5127 2.76062 3.231 3.22369 3.81861C3.57591 4.26555 4.20646 4.35144 4.62973 4.00931L5.0365 3.68051C5.19982 3.5485 5.4302 3.54048 5.61236 3.65961C5.79452 3.77874 5.88764 3.99962 5.84485 4.20984Z" fill="#A19F9D" /><path d="M11.2324 14.7451H5.31963C3.96077 14.7451 2.85596 15.9038 2.85596 17.3279C2.85596 17.6134 3.07634 17.8445 3.34869 17.8445H13.2034C13.4757 17.8445 13.6961 17.6134 13.6961 17.3279C13.6961 15.9038 12.5913 14.7451 11.2324 14.7451Z" fill="url(#paint0_linear_6102_134432)" /><path d="M10.3021 11.0009C9.75681 10.755 9.15 10.7205 8.58463 10.9056C7.43387 11.2823 6.65306 12.5292 6.99393 13.9424L1.71236 11.5393C0.518355 10.9554 0.152599 9.51914 0.793594 8.51053C1.31378 7.6895 2.33285 7.37764 3.21929 7.77072L10.3021 11.0009C10.3085 11.0038 10.3148 11.0067 10.3211 11.0096L10.3021 11.0009Z" fill="url(#paint1_linear_6102_134432)" /><path d="M5.5282 4.98811L3.93042 4.70374C2.75603 4.49473 1.92882 3.35484 2.08716 2.1623C2.24378 0.982727 3.30957 0.16646 4.50463 0.379152L6.1024 0.663516C6.39678 0.715909 6.60289 1.00008 6.56322 1.29888L6.13256 4.54232C6.09289 4.84111 5.82258 5.0405 5.5282 4.98811Z" fill="url(#paint2_linear_6102_134432)" /><path d="M11.202 14.9854C12.6 14.9854 13.7332 13.8006 13.7332 12.3392C13.7332 10.8777 12.6 9.69299 11.202 9.69299C9.80413 9.69299 8.6709 10.8777 8.6709 12.3392C8.6709 13.8006 9.80413 14.9854 11.202 14.9854Z" fill="white" /><path d="M17.5379 13.1626L17.7001 13.1018V12.9286V11.6827V11.5123L17.5416 11.45L17.3738 11.384L17.3739 11.3838L17.3633 11.3802L16.198 10.9814L15.9444 10.3341L16.5495 8.98913L16.6186 8.83549L16.5022 8.71375L15.6661 7.83968L15.5367 7.70436L15.3704 7.79053L15.2026 7.87748L15.2026 7.87747L15.2003 7.87869L14.1157 8.4552L13.5112 8.1964L13.0255 6.80134L12.967 6.63354H12.7894H11.5976H11.421L11.362 6.8L11.3004 6.97391L11.3002 6.97386L11.2975 6.98253L10.9131 8.20581L10.3117 8.46373L9.058 7.82566L8.89239 7.74138L8.76395 7.87566L7.92788 8.74973L7.80848 8.87457L7.88301 9.0304L7.96618 9.20432L7.96618 9.20432L7.96694 9.2059L8.52552 10.3531L8.27079 11.0018L6.9124 11.51L6.75 11.5708V11.7442V12.9885V13.1589L6.90852 13.2212L7.07631 13.2872L7.07622 13.2874L7.08659 13.291L8.25217 13.6912L8.50569 14.3373L7.90059 15.6837L7.83156 15.8373L7.94796 15.959L8.78402 16.833L8.91441 16.9693L9.08127 16.8814L9.24906 16.7929L9.24981 16.7925L10.3344 16.216L10.9387 16.4747L11.4245 17.8784L11.4827 18.0467H11.6607H12.8525H13.0282L13.0877 17.8813L13.1508 17.7059L13.151 17.706L13.1541 17.696L13.5371 16.4729L14.1404 16.2141L15.4168 16.8411L15.5811 16.9219L15.7077 16.7896L16.5437 15.9155L16.6627 15.7911L16.589 15.6356L16.5058 15.4602L16.5058 15.4601L16.5047 15.4578L15.9461 14.3106L16.1995 13.6648L17.5379 13.1626ZM12.2258 14.4852C11.8239 14.4852 11.4302 14.3607 11.0942 14.126C10.758 13.8911 10.4944 13.5562 10.3383 13.1623C10.1822 12.7682 10.1412 12.3341 10.2209 11.9151C10.3006 11.4962 10.4971 11.1128 10.784 10.8129C11.0707 10.5132 11.4346 10.3104 11.829 10.2284C12.2234 10.1464 12.6323 10.1884 13.0045 10.3496C13.3769 10.5108 13.6969 10.7847 13.9229 11.1383C14.149 11.492 14.2703 11.909 14.2703 12.3364C14.2703 12.9098 14.0523 13.4576 13.6676 13.8598C13.2832 14.2616 12.7643 14.4852 12.2258 14.4852Z" fill="url(#paint3_linear_6102_134432)" stroke="white" stroke-width="0.5" /><defs><linearGradient id="paint0_linear_6102_134432" x1="8.27604" y1="14.2328" x2="8.27604" y2="18.3117" gradientUnits="userSpaceOnUse"><stop stop-color="#E6E6E6" /><stop offset="1" stop-color="#999999" /></linearGradient><linearGradient id="paint1_linear_6102_134432" x1="3.84771" y1="5.72573" x2="6.9352" y2="15.1577" gradientUnits="userSpaceOnUse"><stop stop-color="#E6E6E6" /><stop offset="1" stop-color="#999999" /></linearGradient><linearGradient id="paint2_linear_6102_134432" x1="4.59954" y1="-0.335624" x2="3.59453" y2="5.31124" gradientUnits="userSpaceOnUse"><stop stop-color="#E6E6E6" /><stop offset="1" stop-color="#999999" /></linearGradient><linearGradient id="paint3_linear_6102_134432" x1="12.2251" y1="17.7967" x2="12.2251" y2="6.88354" gradientUnits="userSpaceOnUse"><stop stop-color="#0078D4" /><stop offset="0.156" stop-color="#1380DA" /><stop offset="0.528" stop-color="#3C91E5" /><stop offset="0.822" stop-color="#559CEC" /><stop offset="1" stop-color="#5EA0EF" /></linearGradient></defs></svg>