<svg width="18" height="18" viewBox="0 0 18 18" fill="none" xmlns="http://www.w3.org/2000/svg"><path d="M0.0205898 5.55729C0.115276 5.73411 0.300031 5.87778 0.536663 5.9586L9.24157 9.37198C9.57412 9.50234 9.94409 9.5745 10.3219 9.58273C10.6998 9.59095 11.0751 9.53499 11.4178 9.41932L17.5423 6.78376C17.639 6.74983 17.7231 6.69957 17.7875 6.63719C17.8519 6.57481 17.8947 6.50215 17.9123 6.42529C17.9169 6.39834 17.9169 6.37108 17.9123 6.34413C17.88 6.24047 17.8145 6.14378 17.721 6.06192C17.6276 5.98005 17.5088 5.9153 17.3744 5.87293L8.68508 2.46181C8.35261 2.33128 7.98262 2.25901 7.60472 2.25079C7.22682 2.24257 6.85152 2.29862 6.50885 2.41446L0.365677 5.04551C0.2325 5.08609 0.124132 5.16032 0.0606749 5.25443C-0.00278226 5.34854 -0.0170228 5.45615 0.0205898 5.55729Z" fill="url(#paint0_linear_6102_134474)" /><path d="M12.0492 15.1459L12.0305 15.1685L11.5269 15.3827L11.5051 15.3939C11.1625 15.5098 10.7872 15.5658 10.4093 15.5576C10.0314 15.5494 9.66137 15.4771 9.32889 15.3466L0.623988 11.9355C0.19807 11.7619 0.0177496 11.5252 0.104799 11.3177L0.0115356 5.55737C0.106222 5.73419 0.290977 5.87786 0.527609 5.95868L9.23251 9.37206C9.56507 9.50242 9.93504 9.57459 10.3129 9.58281C10.6907 9.59103 11.066 9.53507 11.4087 9.41941L11.4336 9.40813L17.5333 6.78159C17.6296 6.74753 17.7131 6.69719 17.777 6.6348C17.8408 6.57242 17.8831 6.49982 17.9001 6.42312L17.9965 12.3188C18.0011 12.3457 18.0011 12.373 17.9965 12.3999C17.9779 12.4765 17.9347 12.5489 17.8705 12.6111C17.8062 12.6734 17.7226 12.7239 17.6265 12.7584L17.4027 12.8531L12.0492 15.1459Z" fill="#003067" /><path fill-rule="evenodd" clip-rule="evenodd" d="M4.31709 8.73719L1.43921 7.53052V7.99495L4.31709 9.20162V8.73719ZM4.31709 9.92007L1.45184 8.71869V9.18313L4.31709 10.3845V9.92007ZM4.79673 10.5856V10.1212L8.29141 11.5865V12.0509L4.79673 10.5856ZM4.31709 11.1104L1.45184 9.90906V10.3735L4.31709 11.5749V11.1104ZM4.79673 11.776V11.3115L8.29141 12.7768V13.2413L4.79673 11.776ZM4.79673 9.40274V8.9383L8.27878 10.3983V10.8627L4.79673 9.40274Z" fill="#32B0E7" /><path d="M15.6149 9.60407C15.3849 9.50712 15.3849 9.19374 15.6149 8.9029C15.845 8.61207 16.2367 8.452 16.4543 8.55796C16.672 8.66392 16.6813 8.96829 16.4543 9.25687C16.2274 9.54545 15.8357 9.70101 15.6149 9.60407Z" fill="#50E6FF" /><defs><linearGradient id="paint0_linear_6102_134474" x1="8.95784" y1="2.25004" x2="8.95784" y2="9.58348" gradientUnits="userSpaceOnUse"><stop stop-color="#5EA0EF" /><stop offset="0.18" stop-color="#559CEC" /><stop offset="0.47" stop-color="#3C91E5" /><stop offset="0.84" stop-color="#1380DA" /><stop offset="1" stop-color="#0078D4" /></linearGradient></defs></svg>