<svg width="18" height="18" viewBox="0 0 18 18" fill="none" xmlns="http://www.w3.org/2000/svg"><path fill-rule="evenodd" clip-rule="evenodd" d="M17.6542 4.34839H0.347731V14.4516H17.6542V4.34839ZM0 4V14.8H18V4H0Z" fill="url(#paint0_linear_6102_134462)" /><path d="M0.347731 4.34839H17.6542V14.4516H0.347731V4.34839Z" fill="url(#paint1_linear_6102_134462)" /><path fill-rule="evenodd" clip-rule="evenodd" d="M5.08261 7.00002H2.58652L2.3719 7.12089L2.3674 7.11535L2.33157 7.1436L2.29056 7.1667L2.29493 7.17249L2.13556 7.29814L1.78551 9.36806L2.02591 9.64382L2.00463 9.65955L2.02339 9.67962L1.74742 9.87L1.39807 11.9623L1.57951 12.2305L2.1187 11.809L2.39011 10.0429H4.39884L4.09503 11.7852L4.47897 12.242L4.74117 12.0821L5.09249 9.99704L4.83595 9.71612L4.86579 9.68894L4.85902 9.68159L5.15723 9.44113L5.48046 7.42361L5.3359 7.25264L5.3376 7.25132L5.32067 7.23463L5.26466 7.1684L5.25837 7.17324L5.08261 7.00002ZM2.75227 7.67191L2.46054 9.34909H4.48736L4.72596 7.67191H2.75227Z" fill="white" /><path fill-rule="evenodd" clip-rule="evenodd" d="M7.2129 7.60403L6.81622 7.11535L6.58438 7.29814L6.23433 9.36806L6.49327 9.66509L6.19624 9.87L5.84689 11.9623L6.02833 12.2305L6.0443 12.218L6.21297 12.4175H8.69029L9.00821 12.2217L8.62534 11.7201L6.58175 11.7165L6.8495 9.97414L6.61039 9.67957L6.88855 9.4687L7.2129 7.60403Z" fill="white" /><path fill-rule="evenodd" clip-rule="evenodd" d="M13.7613 7H11.2652L10.9693 7.16668L11.3501 7.67189H13.4047L13.1661 9.34907H11.1034L10.6833 9.65953L10.7021 9.6796L10.4261 9.86998L10.0768 11.9622L10.2582 12.2305L10.2742 12.218L10.4429 12.4175H12.9202L13.2381 12.2216L12.8552 11.7201L10.8116 11.7164L11.0688 10.0429H13.1559L13.5445 9.68892L13.5377 9.68157L13.8359 9.44111L14.1592 7.42359L14.0146 7.25262L14.0163 7.2513L13.9994 7.23462L13.9434 7.16838L13.9371 7.17322L13.7613 7Z" fill="white" /><path fill-rule="evenodd" clip-rule="evenodd" d="M16.602 7.42359L16.3862 7.16838L15.8617 7.57192L15.5986 9.42116L15.8358 9.68419L15.5367 9.94911L15.2165 11.7852L15.6005 12.242L15.8627 12.0821L16.214 9.99702L15.9491 9.70693L16.2787 9.44111L16.602 7.42359Z" fill="white" /><defs><linearGradient id="paint0_linear_6102_134462" x1="-0.0861244" y1="9.4" x2="17.9139" y2="9.4" gradientUnits="userSpaceOnUse"><stop stop-color="#005BA1" /><stop offset="0.07" stop-color="#0060A9" /><stop offset="0.36" stop-color="#0071C8" /><stop offset="0.52" stop-color="#0078D4" /><stop offset="0.64" stop-color="#0074CD" /><stop offset="0.82" stop-color="#006ABB" /><stop offset="1" stop-color="#005BA1" /></linearGradient><linearGradient id="paint1_linear_6102_134462" x1="-0.0861244" y1="9.4" x2="17.9139" y2="9.4" gradientUnits="userSpaceOnUse"><stop stop-color="#005BA1" /><stop offset="0.07" stop-color="#0060A9" /><stop offset="0.36" stop-color="#0071C8" /><stop offset="0.52" stop-color="#0078D4" /><stop offset="0.64" stop-color="#0074CD" /><stop offset="0.82" stop-color="#006ABB" /><stop offset="1" stop-color="#005BA1" /></linearGradient></defs></svg>