<svg width="18" height="18" viewBox="0 0 18 18" fill="none" xmlns="http://www.w3.org/2000/svg"><path d="M0.876474 3.50358C1.16764 2.58036 1.94129 2 2.78448 2H15.1233C15.9861 2 16.771 2.60746 17.0582 3.55669C18.3429 7.80331 18.2815 10.6002 17.0679 14.4702C16.7747 15.4051 15.9955 16 15.1423 16H2.86786C1.98292 16 1.18337 15.36 0.908183 14.3787C-0.274081 10.163 -0.320169 7.29785 0.876474 3.50358Z" fill="#0078D4" /><g clip-path="url(#clip0_6102_134398)"><path d="M13.9999 14.8889C15.0431 14.8889 15.8888 14.0432 15.8888 13C15.8888 11.9568 15.0431 11.1111 13.9999 11.1111C12.9567 11.1111 12.111 11.9568 12.111 13C12.111 14.0432 12.9567 14.8889 13.9999 14.8889Z" fill="white" /><path fill-rule="evenodd" clip-rule="evenodd" d="M15.402 11.7343C15.3172 11.6404 15.223 11.5551 15.1211 11.4797L13.903 12.8806L14.1716 13.1492L15.402 11.7343Z" fill="#00188F" /></g><circle cx="8.54412" cy="13.5441" r="0.544118" fill="white" /><circle cx="6.54412" cy="13.5441" r="0.544118" fill="white" /><rect x="2.0412" y="13.134" width="3" height="1" rx="0.5" fill="white" /><path d="M2.41235 4.0413C2.41235 3.83633 2.57852 3.67017 2.78349 3.67017H15.2165C15.4214 3.67017 15.5876 3.83633 15.5876 4.0413V9.23718C15.5876 9.44215 15.4214 9.60831 15.2165 9.60831H2.78349C2.57852 9.60831 2.41235 9.44215 2.41235 9.23718V4.0413Z" fill="url(#paint0_linear_6102_134398)" /><defs><linearGradient id="paint0_linear_6102_134398" x1="2.41235" y1="6.63924" x2="15.5876" y2="6.63924" gradientUnits="userSpaceOnUse"><stop stop-color="#5EA0EF" /><stop offset="1" stop-color="#83B9F9" /></linearGradient><clipPath id="clip0_6102_134398"><rect width="4" height="4" fill="white" transform="translate(12 11)" /></clipPath></defs></svg>