<svg width="18" height="18" viewBox="0 0 18 18" fill="none" xmlns="http://www.w3.org/2000/svg"><path fill-rule="evenodd" clip-rule="evenodd" d="M15.5 12.8496H2.5C1.46447 12.8496 0.625 13.8378 0.625 15.0569C0.625 16.276 1.46447 17.2642 2.5 17.2642H15.5C16.5355 17.2642 17.375 16.276 17.375 15.0569C17.375 13.8378 16.5355 12.8496 15.5 12.8496ZM2.5 12.1138C1.11929 12.1138 0 13.4315 0 15.0569C0 16.6823 1.11929 18 2.5 18H15.5C16.8807 18 18 16.6823 18 15.0569C18 13.4315 16.8807 12.1138 15.5 12.1138H2.5Z" fill="#0078D4" /><path d="M2.5 12.8496H15.5C16.5355 12.8496 17.375 13.8378 17.375 15.0569C17.375 16.276 16.5355 17.2642 15.5 17.2642H2.5C1.46447 17.2642 0.625 16.276 0.625 15.0569C0.625 13.8378 1.46447 12.8496 2.5 12.8496Z" fill="#0078D4" /><path fill-rule="evenodd" clip-rule="evenodd" d="M5.00002 15.1147C5.00002 16.0708 4.25383 16.8459 3.33335 16.8459C2.41288 16.8459 1.66669 16.0708 1.66669 15.1147C1.66669 14.1585 2.41288 13.3834 3.33335 13.3834C4.25383 13.3834 5.00002 14.1585 5.00002 15.1147ZM4.44446 15.1147C4.44446 15.7521 3.947 16.2688 3.33335 16.2688C2.7197 16.2688 2.22224 15.7521 2.22224 15.1147C2.22224 14.4772 2.7197 13.9605 3.33335 13.9605C3.947 13.9605 4.44446 14.4772 4.44446 15.1147Z" fill="#7DB6F8" /><path fill-rule="evenodd" clip-rule="evenodd" d="M8.77778 15.1147C8.77778 16.0708 8.03159 16.8459 7.11111 16.8459C6.19064 16.8459 5.44445 16.0708 5.44445 15.1147C5.44445 14.1585 6.19064 13.3834 7.11111 13.3834C8.03159 13.3834 8.77778 14.1585 8.77778 15.1147ZM8.22222 15.1147C8.22222 15.7521 7.72476 16.2688 7.11111 16.2688C6.49746 16.2688 6 15.7521 6 15.1147C6 14.4772 6.49746 13.9605 7.11111 13.9605C7.72476 13.9605 8.22222 14.4772 8.22222 15.1147Z" fill="#7DB6F8" /><path fill-rule="evenodd" clip-rule="evenodd" d="M10.8889 16.8459C11.8094 16.8459 12.5556 16.0708 12.5556 15.1147C12.5556 14.1585 11.8094 13.3834 10.8889 13.3834C9.96845 13.3834 9.22226 14.1585 9.22226 15.1147C9.22226 16.0708 9.96845 16.8459 10.8889 16.8459ZM10.8889 16.2688C11.5026 16.2688 12 15.7521 12 15.1147C12 14.4772 11.5026 13.9605 10.8889 13.9605C10.2753 13.9605 9.77782 14.4772 9.77782 15.1147C9.77782 15.7521 10.2753 16.2688 10.8889 16.2688Z" fill="#7DB6F8" /><path fill-rule="evenodd" clip-rule="evenodd" d="M16.3334 15.1147C16.3334 16.0708 15.5872 16.8459 14.6667 16.8459C13.7462 16.8459 13 16.0708 13 15.1147C13 14.1585 13.7462 13.3834 14.6667 13.3834C15.5872 13.3834 16.3334 14.1585 16.3334 15.1147ZM15.7778 15.1147C15.7778 15.7521 15.2803 16.2688 14.6667 16.2688C14.053 16.2688 13.5556 15.7521 13.5556 15.1147C13.5556 14.4772 14.053 13.9605 14.6667 13.9605C15.2803 13.9605 15.7778 14.4772 15.7778 15.1147Z" fill="#7DB6F8" /><path d="M3.33335 16.2688C3.947 16.2688 4.44446 15.7521 4.44446 15.1147C4.44446 14.4772 3.947 13.9605 3.33335 13.9605C2.7197 13.9605 2.22224 14.4772 2.22224 15.1147C2.22224 15.7521 2.7197 16.2688 3.33335 16.2688Z" fill="#7DB6F8" /><path d="M7.11111 16.2688C7.72476 16.2688 8.22222 15.7521 8.22222 15.1147C8.22222 14.4772 7.72476 13.9605 7.11111 13.9605C6.49746 13.9605 6 14.4772 6 15.1147C6 15.7521 6.49746 16.2688 7.11111 16.2688Z" fill="#7DB6F8" /><path d="M12 15.1147C12 15.7521 11.5026 16.2688 10.8889 16.2688C10.2753 16.2688 9.77782 15.7521 9.77782 15.1147C9.77782 14.4772 10.2753 13.9605 10.8889 13.9605C11.5026 13.9605 12 14.4772 12 15.1147Z" fill="#7DB6F8" /><path d="M14.6667 16.2688C15.2803 16.2688 15.7778 15.7521 15.7778 15.1147C15.7778 14.4772 15.2803 13.9605 14.6667 13.9605C14.053 13.9605 13.5556 14.4772 13.5556 15.1147C13.5556 15.7521 14.053 16.2688 14.6667 16.2688Z" fill="#7DB6F8" /><path fill-rule="evenodd" clip-rule="evenodd" d="M13.2916 0.741039H3.37496V10.5228H13.2916V0.741039ZM2.66663 0V11.2638H14V0H2.66663Z" fill="url(#paint0_linear_6102_134466)" /><path d="M3.37496 0.741039H13.2916V10.5228H3.37496V0.741039Z" fill="url(#paint1_linear_6102_134466)" /><path fill-rule="evenodd" clip-rule="evenodd" d="M10.9722 0.831706H5.69444V2.27441H10.9722V0.831706ZM5 0.110352V2.99577H11.6667V0.110352H5Z" fill="#B1D4F7" /><path d="M5.69444 0.831706H10.9722V2.27441H5.69444V0.831706Z" fill="#B1D4F7" /><defs><linearGradient id="paint0_linear_6102_134466" x1="8.33329" y1="11.2638" x2="8.33329" y2="0" gradientUnits="userSpaceOnUse"><stop stop-color="#0078D4" /><stop offset="0.156" stop-color="#1380DA" /><stop offset="0.528" stop-color="#3C91E5" /><stop offset="0.822" stop-color="#559CEC" /><stop offset="1" stop-color="#5EA0EF" /></linearGradient><linearGradient id="paint1_linear_6102_134466" x1="8.33329" y1="11.2638" x2="8.33329" y2="0" gradientUnits="userSpaceOnUse"><stop stop-color="#0078D4" /><stop offset="0.156" stop-color="#1380DA" /><stop offset="0.528" stop-color="#3C91E5" /><stop offset="0.822" stop-color="#559CEC" /><stop offset="1" stop-color="#5EA0EF" /></linearGradient></defs></svg>