<svg width="18" height="18" viewBox="0 0 18 18" fill="none" xmlns="http://www.w3.org/2000/svg"><g clip-path="url(#clip0_6102_134451)"><path d="M4.72163 12.0804C4.72176 12.1987 4.88425 12.2946 5.08465 12.2946H13.0148C13.0531 12.2948 13.0911 12.2903 13.1267 12.2812C13.1622 12.2722 13.1945 12.2589 13.2219 12.242C13.2492 12.2251 13.271 12.205 13.2859 12.1828C13.3009 12.1606 13.3088 12.1368 13.3091 12.1127V8.83454C13.3091 8.78586 13.2784 8.73918 13.2237 8.70476C13.169 8.67034 13.0948 8.651 13.0175 8.651H13.0148H12.8645H5.30504H5.08092C4.88033 8.651 4.71776 8.74705 4.7179 8.86548L4.72163 12.0804Z" fill="url(#paint0_linear_6102_134451)" /><path opacity="0.6" d="M5.49382 9.32517C5.57367 9.32517 5.6384 9.26044 5.6384 9.18059C5.6384 9.10074 5.57367 9.03601 5.49382 9.03601C5.41397 9.03601 5.34924 9.10074 5.34924 9.18059C5.34924 9.26044 5.41397 9.32517 5.49382 9.32517Z" fill="white" /><path opacity="0.6" d="M12.6506 9.32517C12.7304 9.32517 12.7951 9.26044 12.7951 9.18059C12.7951 9.10074 12.7304 9.03601 12.6506 9.03601C12.5707 9.03601 12.506 9.10074 12.506 9.18059C12.506 9.26044 12.5707 9.32517 12.6506 9.32517Z" fill="white" /><path opacity="0.6" d="M12.6506 12.0001C12.7304 12.0001 12.7951 11.9354 12.7951 11.8555C12.7951 11.7757 12.7304 11.7109 12.6506 11.7109C12.5707 11.7109 12.506 11.7757 12.506 11.8555C12.506 11.9354 12.5707 12.0001 12.6506 12.0001Z" fill="white" /><path opacity="0.6" d="M5.49382 12.0001C5.57367 12.0001 5.6384 11.9354 5.6384 11.8555C5.6384 11.7757 5.57367 11.7109 5.49382 11.7109C5.41397 11.7109 5.34924 11.7757 5.34924 11.8555C5.34924 11.9354 5.41397 12.0001 5.49382 12.0001Z" fill="white" /><path opacity="0.7" d="M6.24246 9.59253H6.11023C6.0478 9.59253 5.99719 9.62376 5.99719 9.66228V11.2856C5.99719 11.3242 6.0478 11.3554 6.11023 11.3554H6.24246C6.30489 11.3554 6.35549 11.3242 6.35549 11.2856V9.66228C6.35549 9.62376 6.30489 9.59253 6.24246 9.59253Z" fill="white" /><path opacity="0.7" d="M6.82351 9.59253H6.69128C6.62885 9.59253 6.57825 9.62376 6.57825 9.66228V11.2856C6.57825 11.3242 6.62885 11.3554 6.69128 11.3554H6.82351C6.88594 11.3554 6.93655 11.3242 6.93655 11.2856V9.66228C6.93655 9.62376 6.88594 9.59253 6.82351 9.59253Z" fill="white" /><path opacity="0.7" d="M7.40445 9.59253H7.27222C7.20979 9.59253 7.15918 9.62376 7.15918 9.66228V11.2856C7.15918 11.3242 7.20979 11.3554 7.27222 11.3554H7.40445C7.46687 11.3554 7.51748 11.3242 7.51748 11.2856V9.66228C7.51748 9.62376 7.46687 9.59253 7.40445 9.59253Z" fill="white" /><path d="M2.33498 9.90485C2.33498 10.1364 2.14609 10.3241 1.91308 10.3241C1.68007 10.3241 1.49118 10.1364 1.49118 9.90485C1.49118 9.67333 1.68007 9.48564 1.91308 9.48564C2.14609 9.48564 2.33498 9.67333 2.33498 9.90485Z" fill="#004C87" /><path d="M16.1136 10.3241C16.3466 10.3241 16.5355 10.1364 16.5355 9.90488C16.5355 9.67335 16.3466 9.48566 16.1136 9.48566C15.8806 9.48566 15.6917 9.67335 15.6917 9.90488C15.6917 10.1364 15.8806 10.3241 16.1136 10.3241Z" fill="#004C87" /><path fill-rule="evenodd" clip-rule="evenodd" d="M4.11743 8.34661C4.11743 7.33861 4.9398 6.52147 5.95424 6.52147H12.0724C13.0869 6.52147 13.9092 7.33861 13.9092 8.3466V9.70036C13.9092 10.9963 14.9666 12.047 16.2709 12.047C16.6056 12.0342 16.8608 11.9411 17.1672 11.8389L17.0104 11.3424L16.2709 11.5255C15.2564 11.5255 14.434 10.7084 14.434 9.70036V8.3466C14.434 7.05061 13.3767 6 12.0724 6H5.95424C4.64996 6 3.59263 7.05061 3.59263 8.34661V9.70036C3.59263 10.7084 2.77026 11.5255 1.75582 11.5255L0.939745 11.3097L0.795166 11.8519C1.09635 11.9896 1.3223 12.0192 1.75582 12.047C3.0601 12.047 4.11743 10.9964 4.11743 9.70036V8.34661ZM2.33498 9.90485C2.33498 10.1364 2.14609 10.3241 1.91308 10.3241C1.68007 10.3241 1.49118 10.1364 1.49118 9.90485C1.49118 9.67333 1.68007 9.48564 1.91308 9.48564C2.14609 9.48564 2.33498 9.67333 2.33498 9.90485ZM2.85978 9.90485C2.85978 10.4244 2.43593 10.8455 1.91308 10.8455C1.39023 10.8455 0.966377 10.4244 0.966377 9.90485C0.966377 9.38533 1.39023 8.96417 1.91308 8.96417C2.43593 8.96417 2.85978 9.38533 2.85978 9.90485ZM16.1136 10.3241C16.3466 10.3241 16.5355 10.1364 16.5355 9.90488C16.5355 9.67335 16.3466 9.48566 16.1136 9.48566C15.8806 9.48566 15.6917 9.67335 15.6917 9.90488C15.6917 10.1364 15.8806 10.3241 16.1136 10.3241ZM16.1136 10.8456C16.6364 10.8456 17.0603 10.4244 17.0603 9.90488C17.0603 9.38535 16.6364 8.96419 16.1136 8.96419C15.5907 8.96419 15.1669 9.38535 15.1669 9.90488C15.1669 10.4244 15.5907 10.8456 16.1136 10.8456Z" fill="#004C87" /><path d="M3.29563 8.78465L3.19928 8.63826C3.03671 8.42866 2.82933 8.25794 2.59227 8.13856C2.35521 8.01918 2.09444 7.95416 1.829 7.94824H1.78585C1.42835 7.94908 1.07926 8.05658 0.783387 8.25693C0.487512 8.45729 0.258352 8.74137 0.125323 9.0727C0.125323 9.0727 0.0602965 9.28106 0.0537939 9.30349C0.0361695 9.37554 0.0235285 9.44871 0.0159606 9.52248C0.00771738 9.57528 0.00238933 9.62848 0 9.68186C0 9.70015 0.00591115 9.85185 0.0118226 9.90911C0.017734 9.96636 0.0177341 10.0071 0.0260102 10.0555C0.0451045 10.1525 0.0719903 10.2479 0.106406 10.3406C0.114682 10.3636 0.11882 10.3878 0.127687 10.4108C0.17708 10.5308 0.239105 10.6452 0.312716 10.752L0.317445 10.7573C0.534972 11.07 0.846829 11.3051 1.20755 11.4284C1.56828 11.5517 1.95901 11.5567 2.32279 11.4427C2.68657 11.3287 3.00438 11.1017 3.22988 10.7947C3.45539 10.4877 3.5768 10.1169 3.57643 9.73616C3.57582 9.39871 3.47838 9.06851 3.29563 8.78465ZM1.37796 9.73616C1.37784 9.65617 1.40149 9.57793 1.44591 9.51136C1.49034 9.44479 1.55354 9.39288 1.62752 9.36218C1.7015 9.33149 1.78294 9.3234 1.86153 9.33893C1.94012 9.35447 2.01232 9.39293 2.06901 9.44945C2.1257 9.50598 2.16433 9.57802 2.18 9.65647C2.19567 9.73492 2.18769 9.81625 2.15706 9.89016C2.12643 9.96408 2.07453 10.0273 2.00792 10.0717C1.94132 10.1162 1.86301 10.1399 1.78289 10.1399C1.72974 10.14 1.6771 10.1296 1.62798 10.1093C1.57885 10.0891 1.53421 10.0594 1.4966 10.0219C1.45899 9.98436 1.42915 9.93982 1.40879 9.8908C1.38844 9.84178 1.37796 9.78923 1.37796 9.73616ZM3.2779 10.2438C3.04397 9.98576 2.7329 9.80898 2.39118 9.74029V9.73616C2.38994 9.58775 2.33347 9.4451 2.23275 9.33596C2.43908 9.06728 2.73575 8.88217 3.06804 8.81475C3.21797 9.01738 3.31551 9.25381 3.35201 9.50309C3.38849 9.7522 3.36331 10.0069 3.2779 10.2438ZM1.64634 8.16487C1.50868 8.48264 1.47536 8.83578 1.55116 9.17364C1.46288 9.21208 1.38513 9.27111 1.32444 9.34578C1.26375 9.42046 1.22189 9.50858 1.20239 9.60276C0.863582 9.59451 0.539109 9.46458 0.288479 9.23679C0.385655 8.9451 0.566146 8.68815 0.807725 8.49759C1.0493 8.30702 1.34142 8.19116 1.64811 8.16428L1.64634 8.16487ZM0.589371 10.7674C0.931903 10.6921 1.24137 10.5095 1.47254 10.2462C1.56522 10.3077 1.67341 10.3419 1.78467 10.3447C1.84523 10.3419 1.90502 10.33 1.96201 10.3093C2.1269 10.6071 2.17654 10.9549 2.10152 11.2868C1.99761 11.3079 1.89188 11.3188 1.78585 11.3193C1.55868 11.3187 1.3343 11.2691 1.12803 11.1741C0.921758 11.0791 0.738432 10.9407 0.590553 10.7685L0.589371 10.7674Z" fill="url(#paint1_linear_6102_134451)" /><path d="M2.39118 9.74029C2.7329 9.80898 3.04397 9.98576 3.2779 10.2438C3.36331 10.0069 3.38849 9.7522 3.35201 9.50309C3.31551 9.25381 3.21797 9.01738 3.06804 8.81475C2.73575 8.88217 2.43908 9.06728 2.23275 9.33596C2.33347 9.4451 2.38994 9.58775 2.39118 9.73616V9.74029Z" fill="url(#paint2_linear_6102_134451)" /><path d="M0.589371 10.7674C0.931903 10.6921 1.24137 10.5095 1.47254 10.2462C1.56522 10.3077 1.67341 10.3419 1.78467 10.3447C1.84523 10.3419 1.90502 10.33 1.96201 10.3093C2.1269 10.6071 2.17654 10.9549 2.10152 11.2868C1.99761 11.3079 1.89188 11.3188 1.78585 11.3193C1.55868 11.3187 1.3343 11.2691 1.12803 11.1741C0.921758 11.0791 0.738432 10.9407 0.590553 10.7685L0.589371 10.7674Z" fill="url(#paint3_linear_6102_134451)" /><path d="M1.64634 8.16487C1.50868 8.48264 1.47536 8.83578 1.55116 9.17364C1.46288 9.21208 1.38513 9.27111 1.32444 9.34578C1.26375 9.42046 1.22189 9.50858 1.20239 9.60276C0.863582 9.59451 0.539109 9.46458 0.288479 9.23679C0.385655 8.9451 0.566146 8.68815 0.807725 8.49759C1.0493 8.30702 1.34142 8.19116 1.64811 8.16428L1.64634 8.16487Z" fill="url(#paint4_linear_6102_134451)" /><path d="M17.7193 8.80809L17.623 8.6617C17.4604 8.45209 17.253 8.28137 17.016 8.162C16.7789 8.04262 16.5181 7.9776 16.2527 7.97168H16.2096C15.8521 7.97252 15.503 8.08001 15.2071 8.28037C14.9112 8.48073 14.6821 8.76481 14.549 9.09614C14.549 9.09614 14.484 9.3045 14.4775 9.32693C14.4599 9.39898 14.4472 9.47215 14.4397 9.54592C14.4314 9.59871 14.4261 9.65192 14.4237 9.70529C14.4237 9.72359 14.4296 9.87529 14.4355 9.93255C14.4414 9.9898 14.4414 10.0305 14.4497 10.0789C14.4688 10.176 14.4957 10.2713 14.5301 10.364C14.5384 10.3871 14.5425 10.4113 14.5514 10.4343C14.6008 10.5542 14.6628 10.6686 14.7364 10.7754L14.7412 10.7808C14.9587 11.0934 15.2705 11.3285 15.6313 11.4518C15.992 11.5751 16.3827 11.5801 16.7465 11.4661C17.1103 11.3522 17.4281 11.1251 17.6536 10.8181C17.8791 10.5112 18.0005 10.1403 18.0001 9.7596C17.9995 9.42215 17.9021 9.09195 17.7193 8.80809ZM15.8017 9.7596C15.8015 9.6796 15.8252 9.60137 15.8696 9.5348C15.914 9.46823 15.9772 9.41632 16.0512 9.38562C16.1252 9.35493 16.2066 9.34684 16.2852 9.36237C16.3638 9.37791 16.436 9.41637 16.4927 9.47289C16.5494 9.52942 16.588 9.60146 16.6037 9.67991C16.6194 9.75836 16.6114 9.83969 16.5808 9.9136C16.5501 9.98752 16.4982 10.0507 16.4316 10.0952C16.365 10.1396 16.2867 10.1633 16.2066 10.1633C16.1534 10.1634 16.1008 10.153 16.0517 10.1328C16.0026 10.1125 15.9579 10.0828 15.9203 10.0453C15.8827 10.0078 15.8529 9.96326 15.8325 9.91424C15.8121 9.86522 15.8017 9.81267 15.8017 9.7596ZM17.7016 10.2672C17.4677 10.0092 17.1566 9.83242 16.8149 9.76373V9.7596C16.8136 9.61119 16.7572 9.46854 16.6565 9.3594C16.8628 9.09072 17.1595 8.9056 17.4917 8.83819C17.6417 9.04082 17.7392 9.27725 17.7757 9.52653C17.8122 9.77564 17.787 10.0304 17.7016 10.2672ZM16.07 8.18831C15.9324 8.50608 15.8991 8.85922 15.9749 9.19707C15.8866 9.23551 15.8088 9.29455 15.7481 9.36922C15.6875 9.44389 15.6456 9.53202 15.6261 9.6262C15.2873 9.61795 14.9628 9.48802 14.7122 9.26023C14.8094 8.96854 14.9899 8.71159 15.2314 8.52102C15.473 8.33046 15.7651 8.2146 16.0718 8.18772L16.07 8.18831ZM15.0131 10.7908C15.3556 10.7156 15.6651 10.5329 15.8962 10.2696C15.9889 10.3311 16.0971 10.3653 16.2084 10.3682C16.2689 10.3653 16.3287 10.3534 16.3857 10.3327C16.5506 10.6305 16.6002 10.9783 16.5252 11.3102C16.4213 11.3313 16.3156 11.3422 16.2096 11.3427C15.9824 11.3421 15.758 11.2926 15.5517 11.1975C15.3455 11.1025 15.1621 10.9642 15.0143 10.792L15.0131 10.7908Z" fill="url(#paint5_linear_6102_134451)" /><path d="M16.8149 9.76373C17.1566 9.83242 17.4677 10.0092 17.7016 10.2672C17.787 10.0304 17.8122 9.77564 17.7757 9.52653C17.7392 9.27725 17.6417 9.04082 17.4917 8.83819C17.1595 8.9056 16.8628 9.09072 16.6565 9.3594C16.7572 9.46854 16.8136 9.61119 16.8149 9.7596V9.76373Z" fill="url(#paint6_linear_6102_134451)" /><path d="M15.0131 10.7908C15.3556 10.7156 15.6651 10.5329 15.8962 10.2696C15.9889 10.3311 16.0971 10.3653 16.2084 10.3682C16.2689 10.3653 16.3287 10.3534 16.3857 10.3327C16.5506 10.6305 16.6002 10.9783 16.5252 11.3102C16.4213 11.3313 16.3156 11.3422 16.2096 11.3427C15.9824 11.3421 15.758 11.2926 15.5517 11.1975C15.3455 11.1025 15.1621 10.9642 15.0143 10.792L15.0131 10.7908Z" fill="url(#paint7_linear_6102_134451)" /><path d="M16.07 8.18831C15.9324 8.50608 15.8991 8.85922 15.9749 9.19707C15.8866 9.23551 15.8088 9.29455 15.7481 9.36922C15.6875 9.44389 15.6456 9.53202 15.6261 9.6262C15.2873 9.61795 14.9628 9.48802 14.7122 9.26023C14.8094 8.96854 14.9899 8.71159 15.2314 8.52102C15.473 8.33046 15.7651 8.2146 16.0718 8.18772L16.07 8.18831Z" fill="url(#paint8_linear_6102_134451)" /></g><defs><linearGradient id="paint0_linear_6102_134451" x1="8.58459" y1="8.29358" x2="8.58459" y2="12.5952" gradientUnits="userSpaceOnUse"><stop stop-color="#5EA0EF" /><stop offset="1" stop-color="#0078D4" /></linearGradient><linearGradient id="paint1_linear_6102_134451" x1="1.78821" y1="11.5247" x2="1.78821" y2="7.94824" gradientUnits="userSpaceOnUse"><stop stop-color="#0078D4" /><stop offset="0.156" stop-color="#1380DA" /><stop offset="0.528" stop-color="#3C91E5" /><stop offset="0.822" stop-color="#559CEC" /><stop offset="1" stop-color="#5EA0EF" /></linearGradient><linearGradient id="paint2_linear_6102_134451" x1="1.78821" y1="11.5247" x2="1.78821" y2="7.94824" gradientUnits="userSpaceOnUse"><stop stop-color="#0078D4" /><stop offset="0.156" stop-color="#1380DA" /><stop offset="0.528" stop-color="#3C91E5" /><stop offset="0.822" stop-color="#559CEC" /><stop offset="1" stop-color="#5EA0EF" /></linearGradient><linearGradient id="paint3_linear_6102_134451" x1="1.78821" y1="11.5247" x2="1.78821" y2="7.94824" gradientUnits="userSpaceOnUse"><stop stop-color="#0078D4" /><stop offset="0.156" stop-color="#1380DA" /><stop offset="0.528" stop-color="#3C91E5" /><stop offset="0.822" stop-color="#559CEC" /><stop offset="1" stop-color="#5EA0EF" /></linearGradient><linearGradient id="paint4_linear_6102_134451" x1="1.78821" y1="11.5247" x2="1.78821" y2="7.94824" gradientUnits="userSpaceOnUse"><stop stop-color="#0078D4" /><stop offset="0.156" stop-color="#1380DA" /><stop offset="0.528" stop-color="#3C91E5" /><stop offset="0.822" stop-color="#559CEC" /><stop offset="1" stop-color="#5EA0EF" /></linearGradient><linearGradient id="paint5_linear_6102_134451" x1="16.2119" y1="11.5481" x2="16.2119" y2="7.97168" gradientUnits="userSpaceOnUse"><stop stop-color="#0078D4" /><stop offset="0.156" stop-color="#1380DA" /><stop offset="0.528" stop-color="#3C91E5" /><stop offset="0.822" stop-color="#559CEC" /><stop offset="1" stop-color="#5EA0EF" /></linearGradient><linearGradient id="paint6_linear_6102_134451" x1="16.2119" y1="11.5481" x2="16.2119" y2="7.97168" gradientUnits="userSpaceOnUse"><stop stop-color="#0078D4" /><stop offset="0.156" stop-color="#1380DA" /><stop offset="0.528" stop-color="#3C91E5" /><stop offset="0.822" stop-color="#559CEC" /><stop offset="1" stop-color="#5EA0EF" /></linearGradient><linearGradient id="paint7_linear_6102_134451" x1="16.2119" y1="11.5481" x2="16.2119" y2="7.97168" gradientUnits="userSpaceOnUse"><stop stop-color="#0078D4" /><stop offset="0.156" stop-color="#1380DA" /><stop offset="0.528" stop-color="#3C91E5" /><stop offset="0.822" stop-color="#559CEC" /><stop offset="1" stop-color="#5EA0EF" /></linearGradient><linearGradient id="paint8_linear_6102_134451" x1="16.2119" y1="11.5481" x2="16.2119" y2="7.97168" gradientUnits="userSpaceOnUse"><stop stop-color="#0078D4" /><stop offset="0.156" stop-color="#1380DA" /><stop offset="0.528" stop-color="#3C91E5" /><stop offset="0.822" stop-color="#559CEC" /><stop offset="1" stop-color="#5EA0EF" /></linearGradient><clipPath id="clip0_6102_134451"><rect width="18" height="18" fill="white" /></clipPath></defs></svg>