<svg width="18" height="20" viewBox="0 0 18 20" fill="none" xmlns="http://www.w3.org/2000/svg"><path d="M12.7522 7.99994L13.8482 7.90971C14.099 7.88904 14.3183 8.07551 14.3382 8.32633C14.3582 8.57716 14.1712 8.79709 13.9204 8.81774L12.6372 8.92341C12.5165 8.93352 12.3947 8.89339 12.3048 8.81696L10.9186 7.63839C10.7937 7.53216 10.7366 7.32591 10.7719 7.18274L11.1932 5.47693L10.0212 4.48049C9.82963 4.31763 9.80678 4.03042 9.97009 3.83834C10.1334 3.64626 10.4206 3.62261 10.6121 3.78547L11.7841 4.78191L13.3999 4.0918C13.5326 4.0353 13.7388 4.04896 13.8732 4.16328L15.2594 5.34185C15.3493 5.41828 15.4085 5.53208 15.418 5.65278L15.5201 6.93627C15.54 7.1871 15.353 7.40702 15.1023 7.42767C14.8515 7.44831 14.6322 7.26186 14.6122 7.01103L14.525 5.91487L13.4965 5.04043L12.0903 5.641L11.7238 7.1255L12.7522 7.99994Z" fill="url(#paint0_linear_6102_134464)" /><path d="M11.5908 12.3328L11.5801 12.322C11.0978 11.8921 9.40454 10.5811 8.75085 10.5811L6.13593 12.7196L7.15403 14.1489C7.14331 14.2134 7.14331 14.2779 7.14331 14.3424V16.5634C7.14331 16.8642 7.37905 17.1007 7.67916 17.1007H11.9659C12.266 17.1007 12.5018 16.8642 12.5018 16.5634V14.3424C12.5017 13.5578 12.1695 12.8271 11.5908 12.3328Z" fill="url(#paint1_linear_6102_134464)" /><path d="M10.22 5.15365L7.20924 8.34834C7.12387 8.4394 7.01222 8.49446 6.89511 8.51107C6.76973 8.52885 6.63801 8.50199 6.5261 8.42828L4.92639 7.37472C4.49312 7.09224 3.91559 7.16407 3.55309 7.54463C3.34969 7.75739 3.01166 7.76666 2.7968 7.56341C2.58289 7.35948 2.57289 7.02065 2.77483 6.80492C2.8693 6.70429 7.57093 1.69567 7.47645 1.7963C7.47748 1.79616 7.47733 1.79513 7.47733 1.79513C7.68275 1.58154 8.01942 1.57036 8.23443 1.77464C8.78513 2.29557 7.87094 2.64751 7.98033 3.41867C8.06353 4.00522 8.60686 4.41522 9.19232 4.33217L9.75497 4.25236C9.98087 4.22032 10.2011 4.33481 10.306 4.53778C10.4109 4.74074 10.3762 4.98786 10.22 5.15365Z" fill="url(#paint2_linear_6102_134464)" /><path d="M13.0364 16.026H6.60629C5.12853 16.026 3.92706 17.2313 3.92706 18.7127C3.92706 19.0097 4.16673 19.25 4.46291 19.25H15.1798C15.476 19.25 15.7156 19.0097 15.7156 18.7127C15.7156 17.2313 14.5142 16.026 13.0364 16.026Z" fill="url(#paint3_linear_6102_134464)" /><path d="M11.6831 12.6028C11.1981 12.1696 10.5767 11.9316 9.92353 11.9316C8.59408 11.9316 7.35341 12.9436 7.22639 14.5L2.53607 10.2821C1.48959 9.28714 1.59852 7.6988 2.6119 6.88341C3.43513 6.21913 4.60503 6.24131 5.39573 6.93876L11.6831 12.6028C11.6888 12.6079 11.6944 12.6129 11.7 12.618L11.6831 12.6028Z" fill="url(#paint4_linear_6102_134464)" /><path d="M9.20636 5.916L7.91296 4.76742C6.96229 3.92318 6.87717 2.46041 7.72413 1.50666C8.56188 0.563289 10.017 0.449697 10.9844 1.30878L12.2777 2.45737C12.516 2.66899 12.5372 3.03359 12.325 3.27255L10.0214 5.86653C9.8092 6.10549 9.44466 6.12762 9.20636 5.916Z" fill="url(#paint5_linear_6102_134464)" /><defs><linearGradient id="paint0_linear_6102_134464" x1="9.61975" y1="3.54047" x2="14.797" y2="7.94228" gradientUnits="userSpaceOnUse"><stop stop-color="#005BA1" /><stop offset="0.07" stop-color="#0060A9" /><stop offset="0.36" stop-color="#0071C8" /><stop offset="0.52" stop-color="#0078D4" /><stop offset="0.64" stop-color="#0074CD" /><stop offset="0.82" stop-color="#006ABB" /><stop offset="1" stop-color="#005BA1" /></linearGradient><linearGradient id="paint1_linear_6102_134464" x1="6.10547" y1="13.8409" x2="12.4713" y2="13.8409" gradientUnits="userSpaceOnUse"><stop stop-color="#005BA1" /><stop offset="0.07" stop-color="#0060A9" /><stop offset="0.36" stop-color="#0071C8" /><stop offset="0.52" stop-color="#0078D4" /><stop offset="0.64" stop-color="#0074CD" /><stop offset="0.82" stop-color="#006ABB" /><stop offset="1" stop-color="#005BA1" /></linearGradient><linearGradient id="paint2_linear_6102_134464" x1="2.38489" y1="5.77558" x2="10.81" y2="4.58048" gradientUnits="userSpaceOnUse"><stop stop-color="#005BA1" /><stop offset="0.07" stop-color="#0060A9" /><stop offset="0.36" stop-color="#0071C8" /><stop offset="0.52" stop-color="#0078D4" /><stop offset="0.64" stop-color="#0074CD" /><stop offset="0.82" stop-color="#006ABB" /><stop offset="1" stop-color="#005BA1" /></linearGradient><linearGradient id="paint3_linear_6102_134464" x1="9.82828" y1="20.2012" x2="9.82828" y2="15.2929" gradientUnits="userSpaceOnUse"><stop stop-color="#0078D4" /><stop offset="0.16" stop-color="#1380DA" /><stop offset="0.53" stop-color="#3C91E5" /><stop offset="0.82" stop-color="#559CEC" /><stop offset="1" stop-color="#5EA0EF" /></linearGradient><linearGradient id="paint4_linear_6102_134464" x1="6.7558" y1="16.8897" x2="6.7558" y2="4.55813" gradientUnits="userSpaceOnUse"><stop stop-color="#0078D4" /><stop offset="0.16" stop-color="#1380DA" /><stop offset="0.53" stop-color="#3C91E5" /><stop offset="0.82" stop-color="#559CEC" /><stop offset="1" stop-color="#5EA0EF" /></linearGradient><linearGradient id="paint5_linear_6102_134464" x1="7.00884" y1="5.78961" x2="11.6848" y2="0.524108" gradientUnits="userSpaceOnUse"><stop stop-color="#0078D4" /><stop offset="0.16" stop-color="#1380DA" /><stop offset="0.53" stop-color="#3C91E5" /><stop offset="0.82" stop-color="#559CEC" /><stop offset="1" stop-color="#5EA0EF" /></linearGradient></defs></svg>