<svg width="18" height="18" viewBox="0 0 18 18" fill="none" xmlns="http://www.w3.org/2000/svg"><path d="M15.75 13.4464H15.625V13.5714V15.6696C15.625 15.8378 15.5931 15.9933 15.53 16.1374C15.4655 16.2848 15.3802 16.4118 15.2742 16.5195C15.1683 16.6271 15.0435 16.7136 14.8988 16.7789C14.7575 16.8427 14.6052 16.875 14.4404 16.875H1.30957C1.14332 16.875 0.989745 16.8451 0.847607 16.7863C0.705849 16.7276 0.582943 16.6426 0.477911 16.5306C0.37069 16.4162 0.284735 16.2854 0.219988 16.1374C0.156944 15.9933 0.125 15.8378 0.125 15.6696V5.75893C0.125 5.58929 0.154559 5.43257 0.212698 5.2876C0.270681 5.14302 0.354586 5.01794 0.464846 4.91126C0.577398 4.80237 0.70598 4.71523 0.851242 4.64964C0.992529 4.58585 1.14482 4.55357 1.30957 4.55357H2.25H2.375V4.42857V2.33036C2.375 2.16072 2.40456 2.004 2.4627 1.85903C2.52068 1.71444 2.60459 1.58937 2.71485 1.48269C2.8274 1.3738 2.95598 1.28666 3.10124 1.22107C3.24253 1.15728 3.39482 1.125 3.55957 1.125H16.6904C16.8552 1.125 17.0075 1.15728 17.1488 1.22107C17.2935 1.2864 17.4183 1.37292 17.5242 1.48055C17.6302 1.58818 17.7155 1.71516 17.78 1.8626C17.8431 2.0067 17.875 2.16217 17.875 2.33036V12.2411C17.875 12.4093 17.8431 12.5647 17.78 12.7088C17.7155 12.8563 17.6302 12.9832 17.5242 13.0909C17.4183 13.1985 17.2935 13.285 17.1488 13.3504C17.0075 13.4142 16.8552 13.4464 16.6904 13.4464H15.75ZM16.9993 12.2547L17 12.2547V12.2411V2.33036C17 2.24807 16.9682 2.17541 16.9113 2.11767C16.8549 2.06028 16.7838 2.02761 16.7045 2.01865L16.7045 2.01786H16.6904H3.55957C3.47672 2.01786 3.40429 2.05099 3.34744 2.10874C3.29103 2.16605 3.25941 2.23749 3.25074 2.31677L3.25 2.31669V2.33036V4.42857V4.55357H3.375H7.70312L2.375 10.5806V5.57143V5.44643H2.25H1.30957C1.22672 5.44643 1.15429 5.47956 1.09744 5.53731C1.04103 5.59462 1.00941 5.66607 1.00074 5.74534L1 5.74526V5.75893V15.6696C1 15.7519 1.03182 15.8246 1.08865 15.8823C1.14515 15.9397 1.21616 15.9724 1.29555 15.9814L1.29546 15.9821H1.30957H14.4404C14.5233 15.9821 14.5957 15.949 14.6526 15.8913C14.709 15.834 14.7406 15.7625 14.7493 15.6832L14.75 15.6833V15.6696V13.5714V13.4464H14.625H10.2969L15.625 7.41941V12.4286V12.5536H15.75H16.6904C16.7733 12.5536 16.8457 12.5204 16.9026 12.4627C16.959 12.4054 16.9906 12.3339 16.9993 12.2547ZM14.625 4.55357C14.7719 4.55357 14.9097 4.58277 15.0398 4.6409C15.1379 4.68477 15.2281 4.74755 15.3104 4.83077L7.69561 13.4464H3.375C3.22811 13.4464 3.09026 13.4172 2.96019 13.3591C2.86206 13.3152 2.77185 13.2525 2.68965 13.1692L10.3044 4.55357H14.625Z" fill="url(#paint0_linear_6102_134430)" stroke="white" stroke-width="0.25" /><defs><linearGradient id="paint0_linear_6102_134430" x1="9" y1="17" x2="9" y2="1" gradientUnits="userSpaceOnUse"><stop stop-color="#0078D4" /><stop offset="0.156" stop-color="#1380DA" /><stop offset="0.528" stop-color="#3C91E5" /><stop offset="0.822" stop-color="#559CEC" /><stop offset="1" stop-color="#5EA0EF" /></linearGradient></defs></svg>