<svg id="uuid-ff076a5e-1a21-4690-a2e5-00241679358e" xmlns="http://www.w3.org/2000/svg" width="18" height="18" viewBox="0 0 18 18"><defs><radialGradient id="uuid-22fe0c1a-c6dd-412e-a6e7-99fe92c45445" cx="-39.274" cy="-66.149" r="19.31" gradientTransform="translate(23.75 33.791) scale(.375)" gradientUnits="userSpaceOnUse"><stop offset=".389" stop-color="#a67af4" /><stop offset="1" stop-color="#773adc" /></radialGradient><radialGradient id="uuid-4ba47cb3-5931-4197-bf9f-12bd101272c6" cx="-39.471" cy="-66.063" r="15.387" gradientTransform="translate(23.75 33.791) scale(.375)" gradientUnits="userSpaceOnUse"><stop offset="0" stop-color="#5ea0ef" /><stop offset="1" stop-color="#0078d4" /></radialGradient></defs><path d="m8.98.75c.135,0,.268.035.385.103l6.501,3.733c.239.137.388.394.388.67v7.481c0,.275-.148.531-.386.669l-6.481,3.742c-.117.068-.251.103-.386.103s-.269-.036-.386-.103l-6.481-3.742c-.238-.137-.386-.394-.386-.669v-7.484c0-.275.148-.531.386-.669L8.594.853c.117-.068.251-.103.386-.103M8.98,0C8.717,0,8.455.068,8.219.204L1.758,3.934c-.471.272-.761.774-.761,1.318v7.484c0,.544.29,1.046.761,1.318l6.481,3.742c.235.136.498.204.761.204s.526-.068.761-.204l6.481-3.742c.471-.272.761-.774.761-1.318v-7.481c0-.545-.292-1.049-.764-1.32L9.738.202C9.503.067,9.242,0,8.98,0h0Z" fill="#773adc" /><path d="m4.847,10.06c-.741,0-1.342.601-1.342,1.342s.601,1.342,1.342,1.342,1.342-.601,1.342-1.342-.601-1.342-1.342-1.342Zm8.033,0c-.741,0-1.342.601-1.342,1.342s.601,1.342,1.342,1.342,1.342-.601,1.342-1.342-.601-1.342-1.342-1.342Zm-4.013-7.133c-.741,0-1.342.601-1.342,1.342s.601,1.342,1.342,1.342,1.342-.601,1.342-1.342-.601-1.342-1.342-1.342Z" fill="url(#uuid-22fe0c1a-c6dd-412e-a6e7-99fe92c45445)" /><path d="m6.502,9.305c.493.389.835.938.965,1.553.021.091.103.155.196.152h2.409c.014,0,.027-.005.041-.009.007-.002.014-.002.021-.005.015-.006.028-.015.041-.024.005-.004.011-.006.016-.01.013-.011.024-.024.034-.038.003-.004.007-.007.01-.012.012-.019.021-.04.026-.063.13-.618.475-1.171.972-1.56.083-.06.105-.174.051-.261l-.726-1.277s-.003.002-.005.003l-.518-.903c-.05-.085-.156-.119-.247-.08-.291.105-.598.162-.907.167-.32.003-.637-.054-.936-.167-.094-.034-.199.006-.247.094l-1.248,2.177c-.05.088-.029.199.051.261Zm.276-3.382c-.381-.468-.591-1.051-.595-1.655h-1.422c-.072,0-.139.038-.174.102l-1.843,3.171c-.036.063-.036.14,0,.203l.675,1.161c.054.094.17.131.268.087.361-.177.759-.269,1.161-.268.097-.007.194-.007.29,0,.081.005.159-.034.203-.102l.573-.98.864-1.495c.047-.068.047-.157,0-.225Zm8.242,1.757c0-.035-.009-.071-.027-.103l-1.8-3.207c-.035-.063-.102-.102-.174-.102h-1.451c.001.597-.198,1.177-.566,1.647-.047.068-.047.157,0,.225l.649,1.12h0s.218.377.218.377l.573.994c.01.018.023.034.038.048.044.044.106.066.169.058h.276c.153,0,.305.019.456.045.228.045.448.118.669.224.09.057.21.031.268-.058l.573-.987.152-.268c-.008-.005-.016-.009-.024-.013Zm-3.641,5.927c-.468-.317-.824-.774-1.016-1.306-.031-.081-.109-.133-.196-.131h-2.605c-.086-.003-.165.05-.196.131-.189.529-.543.984-1.009,1.299-.09.061-.118.181-.065.276l.573.987c.037.061.103.1.174.102h3.665c.072-.002.137-.04.174-.102l.566-.98c.056-.094.028-.217-.065-.276Z" fill="url(#uuid-4ba47cb3-5931-4197-bf9f-12bd101272c6)" /></svg>