<svg xmlns="http://www.w3.org/2000/svg" viewBox="0 0 20 20" id="icn-time-full"><path d="M9.29.27a.27.27 0 0 1 .538 0v1.078a.27.27 0 0 1-.539 0V.27ZM7.59.798a.27.27 0 0 0-.413.346l.693.827a.27.27 0 0 0 .413-.347L7.59.798ZM11.273.798a.27.27 0 0 1 .413.346l-.693.827a.27.27 0 0 1-.413-.347l.693-.826ZM9.29 3.653l-5.123.66v.81l5.67 1.308a2.966 2.966 0 1 0 2.683-3.183l.005-.013-2.697.348v1.27H9.29v-1.2ZM5.128 15.152v-1.92h4.104V11.72H3.508V20h1.62v-3.336h3.66v-1.512h-3.66ZM14.27 13.256h2.903V11.72h-7.44v1.536h2.904V20h1.632v-6.744Z"/></svg>