<svg xmlns="http://www.w3.org/2000/svg" viewBox="0 0 20 20" id="icn-time-half"><path d="M9.29.27a.27.27 0 0 1 .538 0v1.078a.27.27 0 0 1-.539 0V.27ZM7.59.798a.27.27 0 0 0-.413.346l.693.827a.27.27 0 0 0 .413-.347L7.59.798ZM11.273.798a.27.27 0 1 1 .413.346l-.693.827a.27.27 0 1 1-.413-.347l.693-.826ZM9.29 3.653l-5.123.66v.81l5.67 1.308a2.966 2.966 0 1 0 2.683-3.183l.005-.013-2.697.348v1.27H9.29v-1.2ZM9.017 20v-8.28h-1.62v3.324H3.461V11.72h-1.62V20h1.62v-3.42h3.936V20h1.62ZM14.677 13.256h2.904V11.72h-7.44v1.536h2.904V20h1.632v-6.744Z"/></svg>