<?xml version="1.0" encoding="UTF-8"?>
<!DOCTYPE svg PUBLIC "-//W3C//DTD SVG 1.1//EN" "http://www.w3.org/Graphics/SVG/1.1/DTD/svg11.dtd">
<svg viewBox="0 0 16 16" width="100%" height="100%" fill="none" xmlns="http://www.w3.org/2000/svg">
<path d="M 3.75 1 H 12.25 C 13.7688 1 15 2.2312 15 3.75 V 12.25 C 15 13.7688 13.7688 15 12.25 15 H 3.75 C 2.2312 15 1 13.7688 1 12.25 V 3.75 C 1 2.2312 2.2312 1 3.75 1 Z M 2.5 6 V 12.25 C 2.5 12.9404 3.0596 13.5 3.75 13.5 H 12.25 C 12.9404 13.5 13.5 12.9404 13.5 12.25 V 6 H 2.5 Z" fill="white" fill-rule="evenodd" stroke="none"/>
<path d="M 5 7.5 C 4.7239 7.5 4.5 7.7239 4.5 8 V 9 C 4.5 9.2761 4.7239 9.5 5 9.5 H 6 C 6.2761 9.5 6.5 9.2761 6.5 9 V 8 C 6.5 7.7239 6.2761 7.5 6 7.5 H 5 Z M 7.5 7.5 C 7.2239 7.5 7 7.7239 7 8 V 9 C 7 9.2761 7.2239 9.5 7.5 9.5 H 8.5 C 8.7761 9.5 9 9.2761 9 9 V 8 C 9 7.7239 8.7761 7.5 8.5 7.5 H 7.5 Z M 10 7.5 C 9.7239 7.5 9.5 7.7239 9.5 8 V 9 C 9.5 9.2761 9.7239 9.5 10 9.5 H 11 C 11.2761 9.5 11.5 9.2761 11.5 9 V 8 C 11.5 7.7239 11.2761 7.5 11 7.5 H 10 Z M 5 10 C 4.7239 10 4.5 10.2239 4.5 10.5 V 11.5 C 4.5 11.7761 4.7239 12 5 12 H 6 C 6.2761 12 6.5 11.7761 6.5 11.5 V 10.5 C 6.5 10.2239 6.2761 10 6 10 H 5 Z M 7.5 10 C 7.2239 10 7 10.2239 7 10.5 V 11.5 C 7 11.7761 7.2239 12 7.5 12 H 8.5 C 8.7761 12 9 11.7761 9 11.5 V 10.5 C 9 10.2239 8.7761 10 8.5 10 H 7.5 Z M 10 10 C 9.7239 10 9.5 10.2239 9.5 10.5 V 11.5 C 9.5 11.7761 9.7239 12 10 12 H 11 C 11.2761 12 11.5 11.7761 11.5 11.5 V 10.5 C 11.5 10.2239 11.2761 10 11 10 H 10 Z" fill="white" fill-rule="evenodd" opacity="0.5" stroke="none"/>
</svg>