<?xml version="1.0" encoding="UTF-8"?>
<!DOCTYPE svg PUBLIC "-//W3C//DTD SVG 1.1//EN" "http://www.w3.org/Graphics/SVG/1.1/DTD/svg11.dtd">
<svg viewBox="0 0 16 16" width="100%" height="100%" fill="none" xmlns="http://www.w3.org/2000/svg">
<path d="M3.75 1.75H12.25C13.3546 1.75 14.25 2.64543 14.25 3.75V12.25C14.25 13.3546 13.3546 14.25 12.25 14.25H3.75C2.64543 14.25 1.75 13.3546 1.75 12.25V3.75C1.75 2.64543 2.64543 1.75 3.75 1.75Z" stroke="white" stroke-width="1.5" stroke-linecap="round" stroke-linejoin="round"/>
<path d="M 4.5 11 L 11.5 11 C 11.7761 11 12 11.2239 12 11.5 C 12 11.7761 11.7761 12 11.5 12 L 4.5 12 C 4.2239 12 4 11.7761 4 11.5 C 4 11.2239 4.2239 11 4.5 11 Z" fill="white" fill-rule="nonzero" opacity="1" stroke="none"/>
</svg>