<?xml version="1.0" encoding="UTF-8"?>
<!DOCTYPE svg PUBLIC "-//W3C//DTD SVG 1.1//EN" "http://www.w3.org/Graphics/SVG/1.1/DTD/svg11.dtd">
<svg viewBox="0 0 16 16" width="100%" height="100%" fill="none" xmlns="http://www.w3.org/2000/svg">
<path d="M 12.4194 3.5806 L 14 2 M 13.75 1.75 L 14.25 2.25 M 3.5806 3.5806 L 2.75 2.75" stroke="white" stroke-width="1.5" stroke-linecap="round" stroke-linejoin="round"/>
<circle cx="8" cy="8" r="6.25" stroke="white" stroke-width="1.5" stroke-linecap="round" stroke-linejoin="round"/>
<path d="M8 4.5C8 4.22386 8.22472 3.99678 8.49871 4.03121C9.11312 4.10841 9.70362 4.32757 10.2223 4.67412C10.8801 5.11365 11.3928 5.73836 11.6955 6.46927C11.9983 7.20017 12.0775 8.00444 11.9231 8.78036C11.7688 9.55629 11.3878 10.269 10.8284 10.8284C10.269 11.3878 9.55628 11.7688 8.78036 11.9231C8.00444 12.0775 7.20017 11.9983 6.46927 11.6955C5.73836 11.3928 5.11365 10.8801 4.67412 10.2223C4.32756 9.70362 4.10841 9.11312 4.03121 8.49871C3.99678 8.22472 4.22386 8 4.5 8L7.5 8C7.77614 8 8 7.77614 8 7.5L8 4.5Z" fill="white"/>
</svg>