<svg width="256" height="256" viewBox="0 0 256 256" fill="none" xmlns="http://www.w3.org/2000/svg">
<path d="M35.5767 230.398L15 0H241L220.398 230.416L127.945 256L35.5767 230.398Z" fill="#E34E26"/>
<path d="M128 19V236L202.458 215.37L220 19H128Z" fill="#EF662A"/>
<path d="M57 47L64.6412 132.439H162.897L159.599 169.085L127.963 177.61L96.3872 169.098L94.2761 145.567H65.8207L69.8897 190.927L127.957 207L186.097 190.927L193.891 104.189H90.5689L87.9746 75.256H196.374H196.461L199 47H57Z" fill="white"/>
<path d="M128.001 47.0928H57.2271L64.8439 132.546H128.001V104.291H90.6888L88.1028 75.3533H128.001V47.0928Z" fill="#EBEBEB"/>
<path d="M128 177.712L127.964 177.724L96.4885 169.211L94.3841 145.677H66.0195L70.0755 191.044L127.957 207.119L128 207.107V177.712Z" fill="#EBEBEB"/>
</svg>
