<svg width="256" height="296" viewBox="0 0 256 296" fill="none" xmlns="http://www.w3.org/2000/svg">
<g clip-path="url(#clip0_3219_182)">
<path d="M128 0L256 73.8999V221.7L128 295.6L0 221.7V73.8999L128 0Z" fill="#673AB8"/>
<path d="M34.8648 220.478C51.8814 242.259 105.96 225.663 157.015 185.774C208.07 145.886 237.256 97.4286 220.239 75.6483C203.222 53.8679 149.144 70.4638 98.0889 110.352C47.0337 150.241 17.8481 198.698 34.8648 220.478ZM42.1343 214.799C36.4909 207.576 38.9566 193.396 49.7082 175.545C61.0297 156.748 80.2491 135.997 103.768 117.622C127.288 99.2467 152.071 85.6182 173.049 79.1804C192.971 73.0667 207.326 74.1046 212.969 81.3279C218.613 88.5512 216.147 102.731 205.396 120.582C194.074 139.379 174.855 160.129 151.335 178.505C127.816 196.88 103.032 210.509 82.0546 216.946C62.1328 223.06 47.7778 222.022 42.1343 214.799Z" fill="white"/>
<path d="M220.239 220.478C237.256 198.698 208.07 150.241 157.015 110.352C105.96 70.4638 51.8814 53.8679 34.8648 75.6483C17.8481 97.4286 47.0337 145.886 98.0889 185.774C149.144 225.663 203.222 242.259 220.239 220.478ZM212.969 214.799C207.326 222.022 192.971 223.06 173.049 216.946C152.071 210.509 127.288 196.88 103.768 178.505C80.2491 160.129 61.0297 139.379 49.7082 120.582C38.9566 102.731 36.4909 88.5512 42.1343 81.3279C47.7778 74.1046 62.1328 73.0667 82.0546 79.1804C103.032 85.6182 127.816 99.2467 151.335 117.622C174.855 135.997 194.074 156.748 205.396 175.545C216.147 193.396 218.613 207.576 212.969 214.799Z" fill="white"/>
<path d="M127.552 167.667C138.379 167.667 147.155 158.89 147.155 148.064C147.155 137.237 138.379 128.46 127.552 128.46C116.725 128.46 107.948 137.237 107.948 148.064C107.948 158.89 116.725 167.667 127.552 167.667Z" fill="white"/>
</g>
<defs>
<clipPath id="clip0_3219_182">
<rect width="256" height="296" fill="white"/>
</clipPath>
</defs>
</svg>
