<svg width="222" height="232" viewBox="0 0 222 232" fill="none" xmlns="http://www.w3.org/2000/svg">
<path fill-rule="evenodd" clip-rule="evenodd" d="M187.212 157.998C185.672 157.998 184.71 159.665 185.48 160.998L201.585 188.894C202.476 190.437 201.056 192.287 199.335 191.826L150.491 178.737C148.357 178.165 146.163 179.432 145.592 181.566L132.504 230.411C132.042 232.132 129.731 232.436 128.84 230.893L112.732 202.992C111.962 201.659 110.037 201.659 109.268 202.992L93.16 230.893C92.269 232.436 89.957 232.132 89.496 230.411L76.407 181.566C75.836 179.432 73.642 178.165 71.508 178.737L22.664 191.826C20.943 192.287 19.523 190.437 20.414 188.894L36.519 160.998C37.289 159.665 36.327 157.998 34.787 157.998H2.5789C0.797105 157.998 -0.0951959 155.844 1.1648 154.584L36.922 118.827C38.484 117.265 38.484 114.733 36.922 113.171L1.1648 77.413C-0.0951959 76.153 0.797204 73.999 2.579 73.999H34.784C36.323 73.999 37.286 72.333 36.516 70.999L20.414 43.11C19.523 41.567 20.943 39.717 22.664 40.178L71.508 53.267C73.642 53.838 75.836 52.572 76.407 50.438L89.496 1.59289C89.957 -0.128212 92.269 -0.432512 93.16 1.11059L109.267 29.011C110.037 30.345 111.962 30.345 112.732 29.011L128.84 1.11059C129.73 -0.432512 132.042 -0.128212 132.503 1.59289L145.592 50.438C146.163 52.572 148.357 53.838 150.491 53.267L199.335 40.178C201.056 39.717 202.476 41.567 201.585 43.11L185.483 70.999C184.713 72.333 185.676 73.999 187.215 73.999H219.421C221.203 73.999 222.095 76.153 220.835 77.413L185.078 113.171C183.516 114.733 183.516 117.265 185.078 118.827L220.835 154.584C222.095 155.844 221.203 157.998 219.421 157.998H187.212ZM174.919 81.331C176.366 79.884 174.963 77.455 172.987 77.985L129.491 89.64C127.357 90.211 125.164 88.945 124.592 86.811L112.931 43.293C112.402 41.317 109.597 41.317 109.068 43.293L97.407 86.811C96.835 88.945 94.642 90.211 92.508 89.64L49.014 77.985C47.037 77.455 45.635 79.884 47.082 81.331L78.922 113.171C80.484 114.733 80.484 117.266 78.922 118.828L47.074 150.675C45.627 152.122 47.03 154.55 49.006 154.021L92.508 142.364C94.642 141.792 96.835 143.059 97.407 145.192L109.068 188.711C109.597 190.687 112.402 190.687 112.931 188.711L124.592 145.192C125.164 143.059 127.357 141.792 129.491 142.364L172.994 154.021C174.971 154.551 176.373 152.122 174.926 150.675L143.079 118.828C141.516 117.266 141.516 114.733 143.079 113.171L174.919 81.331Z" fill="black"/>
</svg>
