<svg width="1024" height="1024" viewBox="0 0 1024 1024" fill="none" xmlns="http://www.w3.org/2000/svg">
<g filter="url(#filter0_d)">
<rect x="100" y="100" width="824" height="824" rx="179" fill="url(#paint0_linear)"/>
</g>
<rect x="121.788" y="121.789" width="780.423" height="780.423" rx="156" fill="black"/>
<rect x="183.192" y="183.192" width="657.615" height="657.615" rx="94" fill="#202A2F"/>
<rect x="367.404" y="226.769" width="89.1346" height="178.269" fill="#0EE827" fill-opacity="0.35"/>
<path d="M274.468 374.622C269.807 374.227 265.438 373.568 261.36 372.645C257.427 371.59 253.786 370.47 250.436 369.284C247.232 368.097 244.392 366.977 241.916 365.922C239.586 364.736 237.838 363.813 236.673 363.154L246.067 345.754C247.086 346.413 248.834 347.335 251.31 348.522C253.786 349.708 256.553 350.96 259.612 352.279C262.816 353.465 266.093 354.52 269.443 355.442C272.793 356.365 275.924 356.827 278.837 356.827C293.402 356.827 300.684 351.356 300.684 340.415C300.684 337.778 300.174 335.603 299.154 333.89C298.281 332.176 296.897 330.726 295.004 329.54C293.256 328.221 291.071 327.101 288.45 326.178C285.974 325.124 283.134 324.069 279.929 323.015C273.812 320.905 268.351 318.73 263.544 316.489C258.884 314.117 254.878 311.48 251.529 308.58C248.179 305.68 245.63 302.385 243.882 298.694C242.135 295.003 241.261 290.784 241.261 286.039C241.261 282.348 242.062 278.789 243.664 275.361C245.266 271.934 247.523 268.902 250.436 266.266C253.349 263.498 256.845 261.191 260.923 259.345C265.001 257.368 269.516 255.984 274.468 255.193V226.769H292.382V254.797C296.169 255.193 299.81 255.786 303.305 256.577C306.801 257.368 309.932 258.225 312.699 259.147C315.467 260.07 317.797 260.993 319.69 261.916C321.729 262.707 323.186 263.3 324.06 263.695L315.321 279.909C314.156 279.382 312.481 278.723 310.296 277.932C308.257 277.009 305.927 276.086 303.305 275.164C300.684 274.241 297.844 273.45 294.785 272.791C291.727 272.132 288.668 271.802 285.61 271.802C280.658 271.802 276.215 272.725 272.283 274.57C268.496 276.284 266.603 279.25 266.603 283.468C266.603 286.105 267.113 288.478 268.132 290.587C269.297 292.564 270.899 294.344 272.938 295.925C275.123 297.507 277.745 299.023 280.803 300.473C284.007 301.791 287.649 303.11 291.727 304.428C297.115 306.405 301.922 308.448 306.145 310.558C310.369 312.667 313.937 315.039 316.85 317.676C319.763 320.312 321.948 323.344 323.404 326.771C325.006 330.199 325.807 334.219 325.807 338.833C325.807 342.788 325.079 346.61 323.623 350.301C322.312 353.992 320.2 357.42 317.287 360.583C314.52 363.747 311.025 366.515 306.801 368.888C302.723 371.129 297.916 372.777 292.382 373.831V403.058H274.468V374.622Z" fill="#0EE827"/>
<defs>
<filter id="filter0_d" x="78" y="86" width="868" height="868" filterUnits="userSpaceOnUse" color-interpolation-filters="sRGB">
<feFlood flood-opacity="0" result="BackgroundImageFix"/>
<feColorMatrix in="SourceAlpha" type="matrix" values="0 0 0 0 0 0 0 0 0 0 0 0 0 0 0 0 0 0 127 0"/>
<feMorphology radius="2" operator="dilate" in="SourceAlpha" result="effect1_dropShadow"/>
<feOffset dy="8"/>
<feGaussianBlur stdDeviation="10"/>
<feColorMatrix type="matrix" values="0 0 0 0 0 0 0 0 0 0 0 0 0 0 0 0 0 0 0.25 0"/>
<feBlend mode="normal" in2="BackgroundImageFix" result="effect1_dropShadow"/>
<feBlend mode="normal" in="SourceGraphic" in2="effect1_dropShadow" result="shape"/>
</filter>
<linearGradient id="paint0_linear" x1="512" y1="100" x2="512" y2="924" gradientUnits="userSpaceOnUse">
<stop stop-color="#D4E6E8"/>
<stop offset="1" stop-color="#767573"/>
</linearGradient>
</defs>
</svg>
