<?xml version="1.0"?>
<svg width="177" height="309" xmlns="http://www.w3.org/2000/svg" xmlns:svg="http://www.w3.org/2000/svg" clip-rule="evenodd" fill-rule="evenodd" stroke-linejoin="round" version="1.1" xml:space="preserve">
 <g class="layer">
  <title>Layer 1</title>
  <g id="Layer 1" transform="translate(-570.47 -981.25) matrix(4.16667 0 0 4.16667 0 0)">
   <path d="m154.22,271.64c1.66,0 3,1.32 3,2.94c0,1.63 -1.34,2.95 -3,2.95c-1.66,0 -3.01,-1.32 -3.01,-2.95c0,-1.62 1.35,-2.94 3.01,-2.94m7.9,0c1.66,0 3.01,1.32 3.01,2.94c0,1.63 -1.35,2.95 -3.01,2.95c-1.66,0 -3,-1.32 -3,-2.95c0,-1.62 1.34,-2.94 3,-2.94m-3.67,10.26c9.32,0 17.53,-12.49 17.53,-28.32c0,-15.83 -5.97,-18.08 -17.53,-18.08c-11.56,0 -18.09,2.25 -18.09,18.08c0,15.83 7.84,28.32 18.09,28.32m20.56,14.45c-1.26,-2.1 -2.67,-3.73 -4.12,-5.07c-1.45,-1.35 -2.91,-2.41 -4.33,-3.47c-0.67,-0.5 -1.36,-0.96 -2.06,-1.38c0.7,-0.43 1.39,-0.89 2.06,-1.39c3.24,-2.42 6.06,-5.69 8.45,-9.66c0.84,-1.39 0.36,-3.2 -1.07,-4.03c-1.43,-0.82 -3.27,-0.35 -4.11,1.05c-2.06,3.43 -4.41,6.09 -6.91,7.95c-2.67,1.99 -5.3,2.97 -8.01,3.13c-0.25,-0.01 -0.49,-0.02 -0.74,-0.02c-0.25,0 -0.49,0.01 -0.74,0.02c-2.71,-0.16 -5.34,-1.14 -8.01,-3.13c-2.5,-1.86 -4.85,-4.52 -6.91,-7.95c-0.85,-1.4 -2.69,-1.87 -4.12,-1.05c-1.43,0.83 -1.9,2.64 -1.06,4.04c2.39,3.96 5.21,7.23 8.45,9.65c0.67,0.5 1.36,0.96 2.06,1.39c-0.7,0.42 -1.39,0.88 -2.06,1.38c-1.42,1.06 -2.88,2.12 -4.33,3.47c-1.45,1.34 -2.86,2.97 -4.12,5.07c-0.84,1.4 -0.37,3.21 1.06,4.03c1.43,0.83 3.27,0.36 4.12,-1.04c0.97,-1.61 1.96,-2.75 3.07,-3.79c1.12,-1.04 2.39,-1.97 3.84,-3.05c0.71,-0.53 1.41,-0.98 2.12,-1.37c-0.09,0.15 -0.17,0.3 -0.26,0.46c-2.03,3.83 -4.13,9.15 -4.14,15.2c0,1.63 1.34,2.95 3,2.95c1.66,0 3.01,-1.32 3.01,-2.95c-0.01,-4.67 1.69,-9.17 3.46,-12.47c0.54,-1.01 1.07,-1.89 1.56,-2.65c0.51,0.79 1.08,1.74 1.64,2.81c1.74,3.28 3.39,7.71 3.38,12.31c0,1.63 1.35,2.95 3.01,2.95c1.66,0 3,-1.32 3,-2.95c-0.01,-6.05 -2.11,-11.37 -4.15,-15.2c-0.08,-0.16 -0.16,-0.31 -0.25,-0.46c0.71,0.39 1.41,0.84 2.12,1.37c1.45,1.08 2.72,2.01 3.83,3.05c1.12,1.04 2.11,2.18 3.08,3.79c0.56,0.93 1.56,1.45 2.59,1.45c0.52,0 1.05,-0.13 1.52,-0.41c1.43,-0.82 1.91,-2.63 1.07,-4.03z" fill="rgb(30,184,236)" fill-rule="nonzero" id="svg_1"/>
  </g>
 </g>
</svg>