<svg width="125" height="125" viewBox="0 0 125 125" fill="none" xmlns="http://www.w3.org/2000/svg">
<path d="M124.79 0.189941H0.810059V124.17H124.79V0.189941Z" fill="#FFDD35"/>
<path d="M24.28 51.7V48.2901C28.48 48.2901 32.51 46.63 35.49 43.68C38.46 40.74 40.13 36.73 40.14 32.55H43.31C43.31 36.74 44.97 40.7501 47.95 43.7001C50.93 46.6701 54.97 48.33 59.17 48.32V51.7301C54.97 51.7301 50.94 53.39 47.96 56.34C44.99 59.28 43.32 63.2901 43.31 67.4701H40.14C40.14 63.2801 38.48 59.27 35.5 56.32C32.51 53.36 28.48 51.7 24.28 51.7Z" fill="#040F11"/>
<path d="M40.1399 26.6401H67.4099C80.7299 26.6401 90.2499 36.0901 90.2499 49.9401C90.2499 63.7901 80.7399 73.2401 67.4099 73.2401H40.1299V112.92H51.5399V83.3201H67.3999C86.5599 83.3201 101.66 68.3301 101.66 49.9401C101.66 31.5501 86.5599 16.5601 67.3999 16.5601H40.1299V26.6401H40.1399Z" fill="#040F11"/>
</svg>
