<svg width="42" height="42" viewBox="0 0 42 42" fill="none" xmlns="http://www.w3.org/2000/svg">
<path d="M16.4401 0.964013L21.3611 8.75401C22.1511 10.006 21.2531 11.637 19.7731 11.637H17.7601V23.3H14.8501V0.0880127C15.4601 0.0880127 16.0701 0.380013 16.4401 0.964013Z" fill="#8FBCFA"/>
<path d="M8.34203 8.75504L13.263 0.964036C13.4314 0.694617 13.6659 0.472714 13.9442 0.319397C14.2225 0.16608 14.5353 0.0864395 14.853 0.0880362V23.3C14.7691 23.2959 14.6851 23.2939 14.601 23.294C13.611 23.294 12.694 23.605 11.943 24.136V11.637H9.93003C8.45003 11.637 7.55003 10.006 8.34103 8.75504H8.34203Z" fill="#468BFF"/>
<path d="M30.278 31H18.031C18.768 30.2042 19.1998 29.1734 19.25 28.09H41.827C41.827 28.7 41.535 29.31 40.952 29.68L33.16 34.6C31.909 35.391 30.277 34.492 30.277 33.012L30.278 31Z" fill="#FDBB11"/>
<path d="M33.1601 21.581L40.9501 26.502C41.5351 26.871 41.8261 27.481 41.8261 28.091H19.2501C19.2999 27.0521 18.9976 26.0267 18.3921 25.181H30.2791V23.17C30.2791 21.69 31.9091 20.79 33.1601 21.581Z" fill="#F6D785"/>
<path d="M8.24006 34.2501L1.13306 41.3581C1.3565 41.5834 1.63379 41.748 1.93863 41.8362C2.24348 41.9244 2.5658 41.9333 2.87506 41.8621L11.8641 39.8321C13.3071 39.5071 13.8251 37.7181 12.7791 36.6721L11.3561 35.2491L16.7121 29.8931C17.2378 29.367 17.5332 28.6538 17.5332 27.9101C17.5332 27.1663 17.2378 26.4531 16.7121 25.9271L16.6381 25.8521L8.24006 34.2501Z" fill="#FF9A9D"/>
<path d="M7.24308 31.135L12.5981 25.779C12.8585 25.5185 13.1678 25.3119 13.5081 25.1709C13.8484 25.03 14.2132 24.9574 14.5816 24.9574C14.95 24.9574 15.3147 25.03 15.655 25.1709C15.9954 25.3119 16.3046 25.5185 16.5651 25.779L16.6391 25.853L8.24208 34.25L1.13408 41.358C0.908726 41.1346 0.744155 40.8573 0.655956 40.5525C0.567756 40.2476 0.558849 39.9253 0.630078 39.616L2.65908 30.627C2.98408 29.183 4.77408 28.666 5.82008 29.712L7.24308 31.135Z" fill="#FE363B"/>
</svg>
