<svg id="svg-otcyrillic" xmlns="http://www.w3.org/2000/svg" width="182" height="350"><path d="M864 -1488V-480C864 -284 744 -192 588 -192C460 -192 368 -284 368 -480V-1488H92V-480C92 -140 304 28 588 28C763.5527 28 911.5942 -36.193 999.0573 -165.5238C1080.7697 -36.193 1219.865 28 1388 28C1684 28 1908 -140 1908 -480V-1488H1632V-480C1632 -284 1528 -192 1388 -192C1240 -192 1140 -284 1140 -480V-1488ZM940 -1848V-1676H1192V-1848H1648L1644 -2004H512V-1848Z" transform="translate(-9.2 281.6) scale(0.1)"/></svg>
