<svg id="svg-acircumflexhookabove" xmlns="http://www.w3.org/2000/svg" width="142" height="350"><path d="M668 36C936 36 1076 -108 1124 -208H1136V0H1372V-1012C1372 -1500 1000 -1556 804 -1556C572 -1556 308 -1476 188 -1196L412 -1116C464 -1228 587 -1348 812 -1348C1029 -1348 1136 -1233 1136 -1036V-1028C1136 -914 1020 -924 740 -888C455 -851 144 -788 144 -436C144 -136 376 36 668 36ZM704 -176C516 -176 380 -260 380 -424C380 -604 544 -660 728 -684C828 -696 1096 -724 1136 -772V-556C1136 -364 984 -176 704 -176ZM956 -2064H680L300 -1700H548L816 -1952L1088 -1700H1336ZM1376 -1892V-1976C1468 -1988 1556 -2036 1556 -2156C1556 -2292 1432 -2380 1192 -2380L1184 -2248C1292 -2248 1372 -2224 1372 -2160C1372 -2100 1320 -2084 1208 -2076V-1892Z" transform="translate(-14.4 281.6) scale(0.1)"/></svg>
