<svg id="svg-mcapturn" xmlns="http://www.w3.org/2000/svg" width="209" height="350"><path d="M1193.3584 -240.1641C1271.8259 -43.8748 1425.7976 28 1624 28C1819.485 28 1958.0378 -42.7061 2049.3376 -162.1201L2056 0H2316V-2048H2044V-499.7463C2002.1945 -321.9842 1890.4419 -200 1668 -200C1540 -200 1408 -280 1408 -608V-2048H1136V-608C1136 -570.2281 1137.2137 -534.4626 1139.5924 -500.6215C1096.8271 -322.3847 982.8068 -200 760 -200C632 -200 504 -280 504 -608V-2048H228V-608C228 -132 420 28 716 28C950.9249 28 1104.9536 -74.1147 1193.3584 -240.1641Z" transform="translate(-22.8 281.6) scale(0.1)"/></svg>
