<svg id="svg-uni1FA7" xmlns="http://www.w3.org/2000/svg" width="199" height="350"><path d="M362 -1536C218 -1306 148 -1057 148 -780C148 -270 350 28 696 28C915.6043 28 1068.4425 -87.4098 1142 -301.7625C1215.5575 -87.4098 1368.3958 28 1588 28C1934 28 2136 -270 2136 -780C2136 -1057 2066 -1306 1922 -1536H1654C1848 -1205 1888 -1006 1888 -760C1888 -400 1767 -192 1568 -192C1394 -192 1280 -351 1280 -648V-1108H1004V-648C1004 -351 890 -192 716 -192C517 -192 396 -400 396 -760C396 -1006 436 -1205 630 -1536ZM1392 -2492C1392 -2424 1340 -2372 1280 -2372C1164 -2372 1100 -2476 976 -2476C840 -2476 748 -2352 748 -2220L868 -2188C868 -2256 916 -2308 976 -2308C1096 -2308 1132 -2208 1280 -2208C1416 -2208 1512 -2324 1512 -2456ZM1268 680C1320 680 1352 672 1372 664V524C1360 524 1332 528 1312 528C1272 528 1244 500 1244 420V120H1036V424C1036 604 1132 680 1268 680ZM1040 -2044C1040 -1940 1092 -1808 1204 -1728L1328 -1796C1272 -1872 1248 -1948 1248 -2040V-2140H1040Z" transform="translate(-14.8 281.6) scale(0.1)"/></svg>
