<svg id="svg-abrevetilde.1" xmlns="http://www.w3.org/2000/svg" width="136" height="350"><path d="M796 32C1092 32 1192 -152 1244 -236H1272V0H1500V-1536H1264V-1292H1244C1192 -1372 1100 -1556 800 -1556C412 -1556 144 -1248 144 -764C144 -276 412 32 796 32ZM828 -180C532 -180 380 -440 380 -768C380 -1092 528 -1344 828 -1344C1116 -1344 1268 -1112 1268 -768C1268 -420 1112 -180 828 -180ZM1040 -2044C1040 -1960 988 -1884 848 -1884C708 -1884 656 -1960 656 -2044H436C436 -1872 596 -1748 848 -1748C1104 -1748 1260 -1872 1260 -2044ZM1128 -2448C1128 -2380 1076 -2328 1016 -2328C900 -2328 832 -2428 712 -2428C576 -2428 480 -2304 480 -2172L604 -2144C604 -2212 652 -2264 712 -2264C832 -2264 868 -2164 1016 -2164C1152 -2164 1248 -2276 1248 -2412Z" transform="translate(-14.4 281.6) scale(0.1)"/></svg>
