<svg id="svg-at" xmlns="http://www.w3.org/2000/svg" width="237" height="350"><path d="M1396 540C1600 540 1860 480 1984 428L1928 244C1856 268 1624 348 1404 348C720 348 356 -36 356 -716C356 -1384 728 -1784 1356 -1784C1992 -1784 2292 -1336 2292 -888C2292 -432 2244 -228 2040 -228C1920 -228 1856 -328 1856 -440V-1344H1644V-1232H1632C1604 -1320 1448 -1396 1248 -1376C948 -1344 720 -1096 720 -736C720 -356 900 -64 1248 -52C1476 -44 1596 -156 1644 -272H1656C1680 -100 1896 -40 2036 -40C2460 -40 2500 -496 2500 -884C2500 -1432 2116 -1972 1368 -1972C596 -1972 136 -1504 136 -724C136 84 580 540 1396 540ZM1280 -256C1020 -256 928 -492 928 -748C928 -980 1060 -1180 1288 -1180C1528 -1180 1656 -1084 1656 -748C1656 -416 1548 -256 1280 -256Z" transform="translate(-13.6 281.6) scale(0.1)"/></svg>
