<svg id="svg-nine.squared" xmlns="http://www.w3.org/2000/svg" width="372" height="350"><path d="M444 832H3468C3692 832 3812 712 3812 488V-2536C3812 -2760 3692 -2880 3468 -2880H444C220 -2880 100 -2760 100 -2536V488C100 712 220 832 444 832ZM410 600C364 600 332 568 332 522V-2570C332 -2616 364 -2648 410 -2648H3502C3548 -2648 3580 -2616 3580 -2570V522C3580 568 3548 600 3502 600ZM1942 -2076C1526 -2081 1258 -1768 1258 -1392C1258 -996 1550 -712 1902 -712C2114 -712 2294 -816 2406 -984H2422C2422 -480 2226 -192 1910 -192C1694 -192 1562 -328 1518 -516H1274C1322 -192 1566 28 1910 28C2370 28 2654 -380 2654 -1108C2654 -1860 2278 -2072 1942 -2076ZM1942 -1856C2198 -1856 2386 -1636 2386 -1396C2386 -1152 2186 -932 1934 -932C1682 -932 1498 -1136 1498 -1392C1498 -1648 1690 -1856 1942 -1856Z" transform="translate(-10 281.6) scale(0.1)"/></svg>
