<svg id="svg-uni0239" xmlns="http://www.w3.org/2000/svg" width="226" height="350"><path d="M1132 572H1408V-139.5882C1503.459 -30.4624 1631.9957 28 1794 28C2170 28 2400 -296 2400 -748V-776C2400 -1248 2174 -1556 1800 -1556C1628.6678 -1556 1494.8983 -1492.7849 1397.5952 -1375.1239L1384 -1536H1156L1142.4048 -1375.1239C1045.1017 -1492.7849 911.3322 -1556 740 -1556C366 -1556 140 -1248 140 -776V-748C140 -296 370 28 746 28C908.0043 28 1036.541 -30.4624 1132 -139.5882ZM416 -776C416 -1084 522 -1328 800 -1328C959.1451 -1328 1066.4233 -1245.7283 1132 -1124.2386V-417.4283C1065.2916 -287.3506 961.1891 -200 794 -200C518 -200 416 -440 416 -748ZM2124 -748C2124 -440 2022 -200 1746 -200C1578.8109 -200 1474.7084 -287.3506 1408 -417.4283V-1124.2386C1473.5767 -1245.7283 1580.8549 -1328 1740 -1328C2018 -1328 2124 -1084 2124 -776Z" transform="translate(-14 281.6) scale(0.1)"/></svg>
