<svg id="svg-uni1FA8" xmlns="http://www.w3.org/2000/svg" width="214" height="350"><path d="M272 0H1000V-280C736 -392 512 -696 512 -1080C512 -1508 788 -1844 1176 -1844C1564 -1844 1840 -1508 1840 -1080C1840 -696 1616 -392 1352 -280V0H2080V-220H1652V-236C1916 -408 2080 -692 2080 -1080C2080 -1664 1704 -2076 1176 -2076C648 -2076 272 -1664 272 -1080C272 -692 436 -408 700 -236V-220H272ZM1304 680C1356 680 1388 672 1408 664V524C1396 524 1368 528 1348 528C1308 528 1280 500 1280 420V120H1072V424C1072 604 1168 680 1304 680ZM304 -2048H56V-1944C56 -1812 20 -1720 -56 -1636L52 -1552C216 -1640 304 -1776 304 -1936Z" transform="translate(5.6 281.6) scale(0.1)"/></svg>
