<svg id="svg-ecircumflextilde" xmlns="http://www.w3.org/2000/svg" width="136" height="350"><path d="M860 32C1172 32 1400 -124 1472 -356L1244 -420C1184 -260 1045 -180 860 -180C582.8658 -180 392.1162 -359.3417 380.5562 -688H1496V-788C1496 -1360 1156 -1556 836 -1556C420 -1556 144 -1228 144 -756C144 -284 416 32 860 32ZM381.1703 -892C396.7271 -1130.8499 566.4774 -1344 836 -1344C1092 -1344 1256 -1152 1256 -892ZM916 -2008H724L304 -1672H552L820 -1884L1088 -1672H1336ZM1068 -2360C1068 -2312 1008 -2264 952 -2264C848 -2264 788 -2356 676 -2356C548 -2356 452 -2244 452 -2136L560 -2108C560 -2156 620 -2208 676 -2208C784 -2208 816 -2112 952 -2112C1080 -2112 1180 -2220 1180 -2328Z" transform="translate(-14.4 281.6) scale(0.1)"/></svg>
