<svg id="svg-lari" xmlns="http://www.w3.org/2000/svg" width="162" height="350"><path d="M1340 -916V-1487.0601C1488.3915 -1384.1829 1580 -1195.1194 1580 -916H1828C1828 -1336.3018 1640.5668 -1633.1719 1340 -1753.0453V-2048H1120V-1806.5524C1086.2194 -1810.1677 1051.53 -1812 1016 -1812C980.5067 -1812 945.8141 -1810.1763 912 -1806.5869V-2048H692V-1753.8921C396.0467 -1638.1981 208 -1356.3412 208 -968C208 -665.1473 324.1612 -404.2806 519.2309 -241.6927L512 -220H208V0H1808V-220H1084C676 -220 452 -516 452 -924C452 -1191.3571 546.7569 -1377.4939 692 -1481.4883V-916H912V-1571.4421C945.699 -1577.1454 980.4602 -1580 1016 -1580C1051.8269 -1580 1086.556 -1577.423 1120 -1572.248V-916Z" transform="translate(-20.8 281.6) scale(0.1)"/></svg>
