<svg id="svg-twelveroman" xmlns="http://www.w3.org/2000/svg" width="258" height="350"><path d="M392 -1536H120L608 -768L120 0H392L760 -596L1128 0H1400L904 -768L1400 -1536H1128L760 -908ZM1736 0H1972V-1536H1736ZM2404 0H2640V-1536H2404ZM1856 -1792C1948 -1792 2024 -1864 2024 -1952C2024 -2040 1948 -2112 1856 -2112C1764 -2112 1688 -2040 1688 -1952C1688 -1864 1764 -1792 1856 -1792ZM2524 -1792C2616 -1792 2692 -1864 2692 -1952C2692 -2040 2616 -2112 2524 -2112C2432 -2112 2356 -2040 2356 -1952C2356 -1864 2432 -1792 2524 -1792Z" transform="translate(-12 281.6) scale(0.1)"/></svg>
