<svg id="svg-ukcyrillic" xmlns="http://www.w3.org/2000/svg" width="296" height="350"><path d="M840 32C1256 32 1536 -284 1536 -760C1536 -1240 1256 -1556 840 -1556C424 -1556 144 -1240 144 -760C144 -284 424 32 840 32ZM1992 576C2205 576 2355 463 2444 224L3096 -1536H2840L2416 -312H2400L1976 -1536H1720L2288 8L2244 128C2158 362 2052 384 1880 340L1820 548C1844 560 1912 576 1992 576ZM840 -180C524 -180 380 -452 380 -760C380 -1068 524 -1344 840 -1344C1156 -1344 1300 -1068 1300 -760C1300 -452 1156 -180 840 -180Z" transform="translate(-14.4 281.6) scale(0.1)"/></svg>
