<svg id="svg-uni0369" xmlns="http://www.w3.org/2000/svg" width="70" height="350"><path d="M-832 -1632C-732.6426 -1632 -660.8019 -1662.3634 -611.3947 -1718.4689L-600 -1652H-444V-2740H-624V-2346.8071C-672.765 -2394.4104 -740.7872 -2420 -832 -2420C-1024 -2420 -1144 -2260 -1144 -2032V-2016C-1144 -1796 -1020 -1632 -832 -1632ZM-796 -1780C-904 -1780 -964 -1872 -964 -2017V-2032C-964 -2176 -904 -2272 -796 -2272C-717.6028 -2272 -656.4148 -2235.1233 -624 -2167.1521V-1889.3016C-657.7795 -1819.2563 -715.1128 -1780 -796 -1780Z" transform="translate(114.4 281.6) scale(0.1)"/></svg>
