<svg id="svg-acircumflextilde.1" xmlns="http://www.w3.org/2000/svg" width="136" height="350"><path d="M796 32C1092 32 1192 -152 1244 -236H1272V0H1500V-1536H1264V-1292H1244C1192 -1372 1100 -1556 800 -1556C412 -1556 144 -1248 144 -764C144 -276 412 32 796 32ZM828 -180C532 -180 380 -440 380 -768C380 -1092 528 -1344 828 -1344C1116 -1344 1268 -1112 1268 -768C1268 -420 1112 -180 828 -180ZM952 -2008H760L340 -1672H588L856 -1884L1124 -1672H1372ZM1104 -2360C1104 -2312 1044 -2264 988 -2264C884 -2264 824 -2356 712 -2356C584 -2356 488 -2244 488 -2136L596 -2108C596 -2156 656 -2208 712 -2208C820 -2208 852 -2112 988 -2112C1116 -2112 1216 -2220 1216 -2328Z" transform="translate(-14.4 281.6) scale(0.1)"/></svg>
