<svg id="svg-Q.squared" xmlns="http://www.w3.org/2000/svg" width="372" height="350"><path d="M444 832H3468C3692 832 3812 712 3812 488V-2536C3812 -2760 3692 -2880 3468 -2880H444C220 -2880 100 -2760 100 -2536V488C100 712 220 832 444 832ZM410 600C364 600 332 568 332 522V-2570C332 -2616 364 -2648 410 -2648H3502C3548 -2648 3580 -2616 3580 -2570V522C3580 568 3548 600 3502 600ZM2860 -1024C2860 -1672 2480 -2076 1956 -2076C1432 -2076 1052 -1672 1052 -1024C1052 -376 1432 28 1956 28C2089.5679 28 2213.7793 1.7504 2324.7261 -48.0989L2504 192H2776L2509.197 -162.6911C2726.7266 -342.0635 2860 -640.244 2860 -1024ZM1876 -640 2179.5015 -242.3086C2109.928 -216.9087 2034.7568 -204 1956 -204C1584 -204 1292 -492 1292 -1024C1292 -1556 1584 -1844 1956 -1844C2328 -1844 2620 -1556 2620 -1024C2620 -715.1727 2521.6008 -488.5694 2366.2742 -352.7971L2148 -640Z" transform="translate(-10 281.6) scale(0.1)"/></svg>
