<svg id="svg-aturn" xmlns="http://www.w3.org/2000/svg" width="123" height="350"><path d="M920 -1572C652 -1572 512 -1428 464 -1328H452V-1536H216V-524C216 -36 588 20 784 20C1016 20 1280 -60 1400 -340L1176 -420C1124 -308 1001 -188 776 -188C559 -188 452 -303 452 -500V-508C452 -622 568 -612 848 -648C1133 -685 1444 -748 1444 -1100C1444 -1400 1212 -1572 920 -1572ZM884 -1360C1072 -1360 1208 -1276 1208 -1112C1208 -932 1044 -876 860 -852C760 -840 492 -812 452 -764V-980C452 -1172 604 -1360 884 -1360Z" transform="translate(-21.6 281.6) scale(0.1)"/></svg>
