<svg id="svg-six" xmlns="http://www.w3.org/2000/svg" width="140" height="350"><path d="M892 28C1306 33 1576 -279 1576 -660C1576 -1056 1283 -1340 932 -1340C721 -1340 540 -1237 428 -1068H412C413 -1567 607 -1856 924 -1856C1140 -1856 1270 -1720 1316 -1536H1560C1510 -1854 1268 -2076 924 -2076C463 -2076 180 -1668 180 -944C180 -187 556 24 892 28ZM892 -192C635 -192 447 -411 448 -656C449 -901 646 -1120 900 -1120C1151 -1120 1336 -914 1336 -660C1336 -400 1143 -192 892 -192Z" transform="translate(-18 281.6) scale(0.1)"/></svg>
