<svg id="svg-adieresis.1" xmlns="http://www.w3.org/2000/svg" width="136" height="350"><path d="M796 32C1092 32 1192 -152 1244 -236H1272V0H1500V-1536H1264V-1292H1244C1192 -1372 1100 -1556 800 -1556C412 -1556 144 -1248 144 -764C144 -276 412 32 796 32ZM828 -180C532 -180 380 -440 380 -768C380 -1092 528 -1344 828 -1344C1116 -1344 1268 -1112 1268 -768C1268 -420 1112 -180 828 -180ZM572 -1792C664 -1792 732 -1868 732 -1952C732 -2044 664 -2112 572 -2112C488 -2112 412 -2044 412 -1952C412 -1868 488 -1792 572 -1792ZM1148 -1792C1240 -1792 1308 -1868 1308 -1952C1308 -2044 1240 -2112 1148 -2112C1064 -2112 988 -2044 988 -1952C988 -1868 1064 -1792 1148 -1792Z" transform="translate(-14.4 281.6) scale(0.1)"/></svg>
