<svg id="svg-udieresisgrave" xmlns="http://www.w3.org/2000/svg" width="121" height="350"><path d="M1184 -628C1184 -340 964 -208 788 -208C592 -208 452 -352 452 -576V-1536H216V-560C216 -168 424 20 712 20C944 20 1096 -104 1168 -260H1184V0H1420V-1536H1184ZM708 -2528H376L740 -2120H976ZM960 -1892C960 -1812 1016 -1744 1120 -1744C1224 -1744 1280 -1812 1280 -1892C1280 -1976 1224 -2048 1120 -2048C1016 -2048 960 -1976 960 -1892ZM372 -1896C372 -1812 428 -1748 528 -1748C632 -1748 688 -1812 688 -1896C688 -1980 632 -2048 528 -2048C424 -2048 372 -1976 372 -1896Z" transform="translate(-21.6 281.6) scale(0.1)"/></svg>
