<svg id="svg-uni214D" xmlns="http://www.w3.org/2000/svg" width="284" height="350"><path d="M964 -1024H1164L724 -2048H524L84 -1024H280L389.8761 -1280H855.2567ZM864 0H1092L2500 -2048H2272ZM2904 -756C2872 -932 2732 -1036 2504 -1036C2268 -1036 2108 -920 2108 -732C2108 -588 2196 -488 2384 -448L2556 -412C2668 -388 2708 -340 2708 -280C2708 -196 2620 -140 2500 -140C2380 -140 2308 -192 2284 -292L2076 -276C2104 -92 2260 20 2500 20C2744 20 2924 -108 2924 -300C2924 -436 2832 -532 2648 -572L2472 -612C2364 -636 2316 -680 2316 -744C2316 -828 2404 -880 2508 -880C2628 -880 2688 -816 2708 -740ZM458.5487 -1440 623.772 -1824.9534 787.2921 -1440Z" transform="translate(-8.4 281.6) scale(0.1)"/></svg>
