<svg id="svg-uni03D7" xmlns="http://www.w3.org/2000/svg" width="175" height="350"><path d="M612 0 1319.7079 -984.637C1342.3694 -826.0413 1371.1847 -712.0511 1400 -616C1500 -296 1616 -164 1616 68C1616 256 1520 320 1376 320C1352 320 1312 316 1288 308V524C1328 536 1400 548 1444 548C1708 548 1888 376 1888 68C1888 -248 1756 -408 1652 -724C1611.6139 -852.5013 1564.4879 -1031.5514 1538.4603 -1288.9883L1716 -1536H1424L748 -595.4783V-1076C748 -1384 568 -1556 304 -1556C256 -1556 188 -1544 144 -1532V-1316C172 -1324 208 -1328 232 -1328C380 -1328 472 -1264 472 -1076V-211.4783L320 0Z" transform="translate(-14.4 281.6) scale(0.1)"/></svg>
