<svg id="svg-acircumflexgrave.1" xmlns="http://www.w3.org/2000/svg" width="154" height="350"><path d="M796 32C1092 32 1192 -152 1244 -236H1272V0H1500V-1536H1264V-1292H1244C1192 -1372 1100 -1556 800 -1556C412 -1556 144 -1248 144 -764C144 -276 412 32 796 32ZM828 -180C532 -180 380 -440 380 -768C380 -1092 528 -1344 828 -1344C1116 -1344 1268 -1112 1268 -768C1268 -420 1112 -180 828 -180ZM968 -2088H748L344 -1724H632L860 -1936L1088 -1724H1376ZM256 -2332H-40L244 -1968H448Z" transform="translate(4 281.6) scale(0.1)"/></svg>
