<svg id="svg-uni1F83" xmlns="http://www.w3.org/2000/svg" width="152" height="350"><path d="M780 32C1063 35 1240 -140 1344 -388H1345.5129L1440 0H1660L1460.9817 -768.2105L1640 -1536H1420L1332.9534 -1136H1332C1234 -1382 1076 -1556 796 -1556C414 -1556 144 -1230 144 -768C144 -302 395 28 780 32ZM1252.9193 -768.2247 1252 -764C1208 -563 1077 -180 780 -180C540 -180 380 -431 380 -764C380 -1104 552 -1344 796 -1344C1101 -1344 1211 -966 1252 -772ZM948 680C1000 680 1032 672 1052 664V524C1040 524 1012 528 992 528C952 528 924 500 924 420V120H716V424C716 604 812 680 948 680ZM396 -2112C396 -1952 488 -1816 648 -1728L756 -1812C680 -1896 644 -1988 644 -2120V-2224H396ZM1180 -1780 1028 -2224H736V-2196L1052 -1760H1180Z" transform="translate(-14.4 281.6) scale(0.1)"/></svg>
