<svg id="svg-uni1F8A" xmlns="http://www.w3.org/2000/svg" width="215" height="350"><path d="M332 0 537.8932 -580H1366.1067L1572 0H1832L1080 -2048H824L72 0ZM615.9907 -800 944 -1724H960L1288.0093 -800ZM1080 680C1132 680 1164 672 1184 664V524C1172 524 1144 528 1124 528C1084 528 1056 500 1056 420V120H848V424C848 604 944 680 1080 680ZM48 -2056H-200V-1952C-200 -1820 -240 -1728 -312 -1644L-204 -1560C-44 -1648 48 -1784 48 -1944ZM556 -1612 400 -2056H112V-2028L428 -1592H556Z" transform="translate(31.2 281.6) scale(0.1)"/></svg>
