<svg id="svg-cedi" xmlns="http://www.w3.org/2000/svg" width="173" height="350"><path d="M1144 -2304H980V-2071.7388C504.1041 -2027.0354 168 -1633.4248 168 -1024C168 -414.5753 504.1041 -20.9647 980 23.7387V256H1144V25.4324C1522.6937 -1.8232 1824.4781 -244.7478 1896 -640H1648C1593.3514 -381.3299 1386.0609 -232.1637 1144 -207.6132V-1840.3868C1386.0609 -1815.8363 1593.3514 -1666.67 1648 -1408H1896C1824.4781 -1803.2522 1522.6937 -2046.1768 1144 -2073.4324ZM980 -1837.9196V-210.0804C652.9669 -254.1489 408 -536.7253 408 -1024C408 -1511.2747 652.9669 -1793.8511 980 -1837.9196Z" transform="translate(-16.8 281.6) scale(0.1)"/></svg>
