<svg id="svg-omegatitlocyrillic" xmlns="http://www.w3.org/2000/svg" width="182" height="350"><path d="M1428 -1284C1556 -1284 1676 -1172 1676 -940V-536C1676 -300 1556 -192 1428 -192C1272 -192 1156 -284 1156 -480V-800H880V-480C880 -284 760 -192 604 -192C476 -192 360 -300 360 -536V-940C360 -1172 476 -1284 604 -1284V-1504C320 -1504 112 -1316 112 -940V-536C112 -156 320 28 604 28C783.2318 28 931.4797 -37.066 1017.8923 -168.1622C1103.9497 -37.066 1251.2576 28 1428 28C1712 28 1924 -156 1924 -536V-940C1924 -1316 1712 -1504 1428 -1504ZM1608 -1928C1312 -1928 1164 -2092 948 -2092C744 -2092 620 -2000 620 -1796V-1744H808V-1768C808 -1868 868 -1908 952 -1908C1112 -1908 1284 -1744 1604 -1744H1668V-1928ZM1012 -1316C1104 -1364 1224 -1484 1224 -1592V-1732H992V-1600C992 -1532 960 -1468 900 -1392Z" transform="translate(-11.2 281.6) scale(0.1)"/></svg>
