<svg id="svg-six.frac" xmlns="http://www.w3.org/2000/svg" width="90" height="350"><path d="M556 -944C812 -944 988 -1104 988 -1316C988 -1512 832 -1660 620 -1660C484 -1660 352 -1592 308 -1488H300C300 -1736 388 -1888 564 -1888C672 -1888 748 -1832 764 -1740H972C952 -1924 792 -2068 564 -2068C256 -2068 92 -1812 92 -1480C92 -1104 308 -944 556 -944ZM552 -1104C424 -1104 336 -1188 324 -1308C312 -1420 420 -1516 552 -1516C680 -1516 784 -1428 784 -1312C784 -1196 684 -1104 552 -1104Z" transform="translate(-9.2 281.6) scale(0.1)"/></svg>
