<svg id="svg-copyleft" xmlns="http://www.w3.org/2000/svg" width="212" height="350"><path d="M1288 32C1873 32 2346 -441 2344 -1024C2342 -1607 1873 -2080 1288 -2080C707 -2080 234 -1607 232 -1024C230 -441 707 32 1288 32ZM1288 -200C833 -200 462 -571 464 -1023C466 -1478 835 -1848 1288 -1848C1743 -1848 2110 -1480 2112 -1023C2114 -569 1745 -200 1288 -200ZM1872 -1024C1872 -1352 1606 -1618 1278 -1618C994 -1618 756 -1418 718 -1152H960C986 -1290 1124 -1386 1278 -1386C1478 -1386 1640 -1224 1640 -1024C1640 -824 1478 -662 1278 -662C1124 -662 1008 -760 980 -896H738C776 -630 994 -430 1278 -430C1606 -430 1872 -696 1872 -1024Z" transform="translate(-23.1994 281.6) scale(0.1)"/></svg>
