<svg id="svg-uni1DD6" xmlns="http://www.w3.org/2000/svg" width="107" height="350"><path d="M-708 -1928 -732 -1856V-2144C-732 -2324 -856 -2420 -1032 -2420C-1216 -2420 -1340 -2320 -1340 -2188L-1168 -2176C-1168 -2236 -1116 -2272 -1032 -2272C-952 -2272 -916 -2228 -916 -2146V-2096H-1052C-1264 -2096 -1388 -2012 -1388 -1868C-1388 -1728 -1288 -1640 -1132 -1640C-1023.2661 -1640 -949.8168 -1691.5698 -911.6522 -1745.5219C-907.0899 -1712.3595 -899.5449 -1682.1797 -892 -1652H-636L-324 -2412H-524ZM-916 -1980V-1870.6609C-941.252 -1828.1832 -1021.5296 -1784 -1088 -1784C-1168 -1784 -1208 -1816 -1208 -1872C-1208 -1928 -1148 -1980 -1052 -1980Z" transform="translate(138.8 281.6) scale(0.1)"/></svg>
