<svg id="svg-thetasymbolgreek" xmlns="http://www.w3.org/2000/svg" width="142" height="350"><path d="M1584 -1068C1530.2054 -1054.5514 1467.3677 -1042.9114 1404 -1036.7286V-1568C1404 -1892 1222 -2076 940 -2076C662 -2076 468 -1900 468 -1596V-1572C468 -1176.183 728.73 -884.6579 1132 -818.301V-600C1132 -332 1008 -200 808 -200C588 -200 456 -352 456 -600V-1060H184V-600C184 -220 432 28 808 28C1164 28 1404 -196 1404 -600V-808.7396C1471.3855 -815.6353 1538.3955 -830.0554 1596 -852ZM1132 -1053.4248C881.4444 -1117.4507 744 -1318.4705 744 -1568V-1596C744 -1780 822 -1844 936 -1844C1062 -1844 1132 -1764 1132 -1568Z" transform="translate(-18.4 281.6) scale(0.1)"/></svg>
