<svg id="svg-three.numr" xmlns="http://www.w3.org/2000/svg" width="90" height="350"><path d="M548 -1008C812 -1008 996 -1144 996 -1328C996 -1460 896 -1560 716 -1584V-1592C860 -1612 956 -1700 956 -1824C956 -2000 788 -2128 548 -2128C308 -2128 132 -1992 128 -1804H332C332 -1896 428 -1964 548 -1964C668 -1964 752 -1896 752 -1808C752 -1716 652 -1652 520 -1652H432V-1504H520C672 -1504 776 -1440 776 -1344C776 -1252 680 -1180 548 -1180C416 -1180 316 -1248 316 -1340H104C104 -1148 292 -1008 548 -1008Z" transform="translate(-10.4 281.6) scale(0.1)"/></svg>
