<svg id="svg-utildeacute" xmlns="http://www.w3.org/2000/svg" width="121" height="350"><path d="M1184 -628C1184 -340 964 -208 788 -208C592 -208 452 -352 452 -576V-1536H216V-560C216 -168 424 20 712 20C944 20 1096 -104 1168 -260H1184V0H1420V-1536H1184ZM512 -1720C512 -1804 568 -1872 644 -1872C796 -1872 824 -1744 1008 -1744C1180 -1744 1312 -1876 1312 -2084L1132 -2100C1132 -2016 1072 -1948 996 -1948C852 -1948 784 -2076 632 -2076C460 -2076 328 -1932 328 -1728ZM712 -2256H920L1232 -2720H956Z" transform="translate(-21.6 281.6) scale(0.1)"/></svg>
