<svg id="svg-uni022B" xmlns="http://www.w3.org/2000/svg" width="140" height="350"><path d="M840 32C1256 32 1536 -284 1536 -760C1536 -1240 1256 -1556 840 -1556C424 -1556 144 -1240 144 -760C144 -284 424 32 840 32ZM840 -180C524 -180 380 -452 380 -760C380 -1068 524 -1344 840 -1344C1156 -1344 1300 -1068 1300 -760C1300 -452 1156 -180 840 -180ZM1308 -2560H372V-2360H1308ZM552 -1792C644 -1792 712 -1868 712 -1952C712 -2044 644 -2112 552 -2112C468 -2112 392 -2044 392 -1952C392 -1868 468 -1792 552 -1792ZM1128 -1792C1220 -1792 1288 -1868 1288 -1952C1288 -2044 1220 -2112 1128 -2112C1044 -2112 968 -2044 968 -1952C968 -1868 1044 -1792 1128 -1792Z" transform="translate(-14.4 281.6) scale(0.1)"/></svg>
