<svg id="svg-oe" xmlns="http://www.w3.org/2000/svg" width="251" height="350"><path d="M840 32C1094.0619 32 1297.3976 -85.8635 1417.2053 -286.0549C1537.1989 -86.2228 1744.4248 32 2016 32C2328 32 2556 -124 2628 -356L2400 -420C2340 -260 2201 -180 2016 -180C1738.8658 -180 1548.1162 -359.3417 1536.5563 -688H2652V-788C2652 -1360 2312 -1556 1992 -1556C1739.1406 -1556 1538.0061 -1434.8159 1419.1384 -1233.7694C1299.5917 -1436.8604 1095.4335 -1556 840 -1556C424 -1556 144 -1240 144 -760C144 -284 424 32 840 32ZM840 -180C524 -180 380 -452 380 -760C380 -1068 524 -1344 840 -1344C1156 -1344 1300 -1068 1300 -760C1300 -452 1156 -180 840 -180ZM1537.1703 -892C1552.7271 -1130.8499 1722.4773 -1344 1992 -1344C2248 -1344 2412 -1152 2412 -892Z" transform="translate(-14.4 281.6) scale(0.1)"/></svg>
