<svg id="svg-uni1DD5" xmlns="http://www.w3.org/2000/svg" width="120" height="350"><path d="M-552 -1632C-336 -1632 -192 -1788 -192 -2016V-2032C-192 -2264 -336 -2420 -552 -2420C-649.6967 -2420 -733.8019 -2387.7202 -796.0948 -2329.8154C-849.3352 -2389.2122 -932.3292 -2420 -1032 -2420C-1216 -2420 -1340 -2320 -1340 -2188L-1168 -2176C-1168 -2236 -1116 -2272 -1032 -2272C-952 -2272 -916 -2228 -916 -2146V-2096H-1052C-1264 -2096 -1388 -2012 -1388 -1868C-1388 -1728 -1288 -1640 -1132 -1640C-1000.5195 -1640 -904.7562 -1715.4031 -864.4749 -1810.8676C-804.5848 -1698.5802 -692.3093 -1632 -552 -1632ZM-552 -1780C-676 -1780 -732 -1872 -732 -2017V-2032C-732 -2180 -676 -2272 -552 -2272C-428 -2272 -372 -2180 -372 -2032V-2016C-372 -1872 -428 -1780 -552 -1780ZM-910.7793 -1980C-908.7545 -1950.5638 -904.2363 -1922.5829 -897.4169 -1896.222C-926.0455 -1828.8947 -1017.3831 -1784 -1088 -1784C-1168 -1784 -1208 -1816 -1208 -1872C-1208 -1928 -1148 -1980 -1052 -1980Z" transform="translate(138.8 281.6) scale(0.1)"/></svg>
