<svg id="svg-otildedieresis" xmlns="http://www.w3.org/2000/svg" width="140" height="350"><path d="M840 32C1256 32 1536 -284 1536 -760C1536 -1240 1256 -1556 840 -1556C424 -1556 144 -1240 144 -760C144 -284 424 32 840 32ZM840 -180C524 -180 380 -452 380 -760C380 -1068 524 -1344 840 -1344C1156 -1344 1300 -1068 1300 -760C1300 -452 1156 -180 840 -180ZM1152 -2104C1152 -2020 1092 -1952 1016 -1952C872 -1952 804 -2080 652 -2080C484 -2080 352 -1936 352 -1732L532 -1724C532 -1804 592 -1876 664 -1876C816 -1876 848 -1748 1032 -1748C1200 -1748 1336 -1880 1336 -2088ZM392 -2336C392 -2256 444 -2184 552 -2184C656 -2184 708 -2252 708 -2336C708 -2420 652 -2488 552 -2488C448 -2488 392 -2420 392 -2336ZM984 -2331C984 -2248 1036 -2184 1140 -2184C1244 -2184 1300 -2248 1300 -2332C1300 -2416 1244 -2484 1140 -2484C1036 -2484 984 -2416 984 -2331Z" transform="translate(-14.4 281.6) scale(0.1)"/></svg>
