<svg id="svg-currency" xmlns="http://www.w3.org/2000/svg" width="171" height="350"><path d="M1012 28C1208.2808 28 1388.7214 -42.9033 1530.0659 -163.0916L1708 20L1872 -148L1683.8484 -336.1516C1777.172 -475.9595 1832 -647.6364 1832 -836C1832 -1032.5844 1772.2819 -1210.3446 1671.411 -1352.5455L1872 -1556L1708 -1724L1511.4589 -1521.762C1373.0419 -1631.8031 1199.7689 -1696 1012 -1696C826.6105 -1696 656.025 -1633.4199 519.2869 -1525.9233L324 -1724L164 -1556L357.9293 -1356.4496C256.1576 -1213.604 196 -1034.3876 196 -836C196 -645.8274 251.2787 -472.6636 345.502 -332.1325L164 -148L324 20L500.426 -158.9464C640.1863 -41.2747 817.9865 28 1012 28ZM1012 -192C684 -192 416 -484 416 -836C416 -1192 684 -1480 1012 -1480C1340 -1480 1604 -1192 1604 -836C1604 -484 1340 -192 1012 -192Z" transform="translate(-16.4 281.6) scale(0.1)"/></svg>
