<svg id="svg-oinvertedbreve" xmlns="http://www.w3.org/2000/svg" width="140" height="350"><path d="M840 32C1256 32 1536 -284 1536 -760C1536 -1240 1256 -1556 840 -1556C424 -1556 144 -1240 144 -760C144 -284 424 32 840 32ZM840 -180C524 -180 380 -452 380 -760C380 -1068 524 -1344 840 -1344C1156 -1344 1300 -1068 1300 -760C1300 -452 1156 -180 840 -180ZM424 -1792H644C644 -1896 696 -1992 840 -1992C976 -1992 1032 -1900 1032 -1792H1252C1252 -2008 1096 -2164 840 -2164C584 -2164 424 -2008 424 -1792Z" transform="translate(-14.4 281.6) scale(0.1)"/></svg>
