<svg id="svg-bhook" xmlns="http://www.w3.org/2000/svg" width="136" height="350"><path d="M920 32C1304 32 1572 -276 1572 -764C1572 -1248 1304 -1556 916 -1556C616 -1556 524 -1372 472 -1292H452V-1664C452 -1824 548 -1872 676 -1872C704 -1872 732 -1868 752 -1864V-2064C716 -2076 664 -2076 616 -2076C392 -2076 216 -1928 216 -1664V0H444V-236H472C524 -152 624 32 920 32ZM888 -180C604 -180 448 -420 448 -768C448 -1112 600 -1344 888 -1344C1188 -1344 1336 -1092 1336 -768C1336 -440 1184 -180 888 -180Z" transform="translate(-21.6 281.6) scale(0.1)"/></svg>
