<svg id="svg-nine.ss01.squared" xmlns="http://www.w3.org/2000/svg" width="372" height="350"><path d="M444 832H3468C3692 832 3812 712 3812 488V-2536C3812 -2760 3692 -2880 3468 -2880H444C220 -2880 100 -2760 100 -2536V488C100 712 220 832 444 832ZM410 600C364 600 332 568 332 522V-2570C332 -2616 364 -2648 410 -2648H3502C3548 -2648 3580 -2616 3580 -2570V522C3580 568 3548 600 3502 600ZM1312 -1420C1312 -1040 1588 -760 1960 -760C2012 -760 2064 -772 2112 -788L1572 0H1844L2304 -680C2528 -1012 2596 -1208 2600 -1400C2604 -1792 2332 -2076 1956 -2076C1584 -2076 1312 -1800 1312 -1420ZM1548 -1420C1548 -1676 1716 -1860 1956 -1860C2196 -1860 2364 -1676 2364 -1416C2364 -1160 2196 -980 1956 -980C1716 -980 1548 -1160 1548 -1420Z" transform="translate(-10 281.6) scale(0.1)"/></svg>
