<svg id="svg-uni0222" xmlns="http://www.w3.org/2000/svg" width="156" height="350"><path d="M860 -1232C612 -1232 396 -1272 396 -1552C396 -1728 484 -1816 656 -1860V-2076C356 -2060 112 -1896 112 -1552C112 -1316.7914 224.5285 -1176.209 393.9143 -1098.4407C220.7114 -997.4485 112 -829.4687 112 -596C112 -176 444 28 872 28H904C1332 28 1664 -176 1664 -600C1664 -831.0458 1555.4146 -997.9871 1382.3867 -1098.579C1551.6049 -1176.3756 1664 -1316.9307 1664 -1552C1664 -1896 1424 -2060 1120 -2076V-1860C1292 -1816 1380 -1728 1380 -1552C1380 -1272 1168 -1232 916 -1232ZM904 -996C1192 -996 1380 -868 1380 -600C1380 -324 1192 -208 904 -208H872C584 -208 396 -324 396 -596C396 -868 584 -996 872 -996Z" transform="translate(-11.2 281.6) scale(0.1)"/></svg>
