<svg id="svg-eight.squared" xmlns="http://www.w3.org/2000/svg" width="372" height="350"><path d="M444 832H3468C3692 832 3812 712 3812 488V-2536C3812 -2760 3692 -2880 3468 -2880H444C220 -2880 100 -2760 100 -2536V488C100 712 220 832 444 832ZM410 600C364 600 332 568 332 522V-2570C332 -2616 364 -2648 410 -2648H3502C3548 -2648 3580 -2616 3580 -2570V522C3580 568 3548 600 3502 600ZM1956 28C2365 28 2650 -211 2652 -544C2650 -803 2477 -1023 2256 -1064V-1076C2448 -1126 2574 -1314 2576 -1532C2574 -1844 2312 -2076 1956 -2076C1596 -2076 1334 -1844 1336 -1532C1334 -1314 1460 -1126 1656 -1076V-1064C1431 -1023 1258 -803 1260 -544C1258 -211 1543 28 1956 28ZM1956 -192C1675 -192 1502 -336 1504 -556C1502 -787 1693 -952 1956 -952C2215 -952 2406 -787 2408 -556C2406 -336 2233 -192 1956 -192ZM1956 -1164C1732 -1164 1574 -1304 1576 -1516C1574 -1724 1726 -1860 1956 -1860C2182 -1860 2334 -1724 2336 -1516C2334 -1304 2176 -1164 1956 -1164Z" transform="translate(-10 281.6) scale(0.1)"/></svg>
