<svg id="svg-uni048F" xmlns="http://www.w3.org/2000/svg" width="136" height="350"><path d="M216 576H452V-236H472C524 -152 624 32 920 32C1034.1425 32 1138.0356 4.7866 1227.6876 -46.2784L1388 132L1548 -20L1395.4569 -189.6385C1507.1167 -327.3488 1572 -523.8853 1572 -764C1572 -1248 1304 -1556 916 -1556C616 -1556 524 -1372 472 -1292H444V-1536H216ZM1084 -536 924 -384 1071.4877 -219.9835C1018.2239 -194.1395 957.0275 -180 888 -180C604 -180 448 -420 448 -768C448 -1112 600 -1344 888 -1344C1188 -1344 1336 -1092 1336 -768C1336 -612.7821 1301.9607 -472.7922 1234.7301 -368.3777Z" transform="translate(-21.6 281.6) scale(0.1)"/></svg>
