<svg id="svg-uni021C" xmlns="http://www.w3.org/2000/svg" width="142" height="350"><path d="M304 -464C656.744 -540.4279 967.2438 -668.2208 1192.2252 -837.5011C1276.8566 -764.5387 1312 -645.5555 1312 -468C1312 48 940 244 304 372V600C1052 448 1600 204 1600 -448C1600 -716.7083 1513.5311 -888.4666 1359.6802 -988.7239C1492.177 -1134.7825 1568 -1303.3314 1568 -1490C1568 -1866 1278 -2076 882 -2076C474 -2076 180 -1860 180 -1520H464C464 -1712 628 -1844 882 -1844C1140 -1844 1284 -1706 1284 -1464C1284 -1078 932 -860 304 -672Z" transform="translate(-18 281.6) scale(0.1)"/></svg>
