<svg id="svg-ocircumflextilde" xmlns="http://www.w3.org/2000/svg" width="140" height="350"><path d="M840 32C1256 32 1536 -284 1536 -760C1536 -1240 1256 -1556 840 -1556C424 -1556 144 -1240 144 -760C144 -284 424 32 840 32ZM840 -180C524 -180 380 -452 380 -760C380 -1068 524 -1344 840 -1344C1156 -1344 1300 -1068 1300 -760C1300 -452 1156 -180 840 -180ZM932 -2008H740L320 -1672H568L836 -1884L1104 -1672H1352ZM1084 -2360C1084 -2312 1024 -2264 968 -2264C864 -2264 804 -2356 692 -2356C564 -2356 468 -2244 468 -2136L576 -2108C576 -2156 636 -2208 692 -2208C800 -2208 832 -2112 968 -2112C1096 -2112 1196 -2220 1196 -2328Z" transform="translate(-14.4 281.6) scale(0.1)"/></svg>
