<svg id="svg-uni1F43" xmlns="http://www.w3.org/2000/svg" width="140" height="350"><path d="M840 32C1256 32 1536 -284 1536 -760C1536 -1240 1256 -1556 840 -1556C424 -1556 144 -1240 144 -760C144 -284 424 32 840 32ZM840 -180C524 -180 380 -452 380 -760C380 -1068 524 -1344 840 -1344C1156 -1344 1300 -1068 1300 -760C1300 -452 1156 -180 840 -180ZM396 -2112C396 -1952 488 -1816 648 -1728L756 -1812C680 -1896 644 -1988 644 -2120V-2224H396ZM1180 -1780 1028 -2224H736V-2196L1052 -1760H1180Z" transform="translate(-14.4 281.6) scale(0.1)"/></svg>
