<svg id="svg-uring" xmlns="http://www.w3.org/2000/svg" width="121" height="350"><path d="M1184 -628C1184 -340 964 -208 788 -208C592 -208 452 -352 452 -576V-1536H216V-560C216 -168 424 20 712 20C944 20 1096 -104 1168 -260H1184V0H1420V-1536H1184ZM820 -1708C1024 -1708 1180 -1856 1180 -2048C1180 -2240 1024 -2400 820 -2400C616 -2400 456 -2240 456 -2048C456 -1856 616 -1708 820 -1708ZM820 -1860C708 -1860 628 -1952 628 -2048C628 -2148 708 -2244 820 -2244C932 -2244 1012 -2148 1012 -2048C1012 -1952 932 -1860 820 -1860Z" transform="translate(-21.6 281.6) scale(0.1)"/></svg>
