<svg id="svg-philatin" xmlns="http://www.w3.org/2000/svg" width="136" height="350"><path d="M208 -748C208 -350.5824 412.6028 -47.5968 752 15.7553V544H1024V15.9523C1366.1256 -46.9665 1568 -350.1689 1568 -748V-780C1568 -1177.8311 1366.1256 -1481.0334 1024 -1543.9523V-2048H752V-1543.7554C412.6028 -1480.4032 208 -1177.4176 208 -780ZM484 -780C484 -1028.0522 571.8846 -1241.4832 752 -1311.6407V-216.0276C571.8846 -285.3155 484 -496.684 484 -748ZM1024 -1311.6407C1204.1154 -1241.4832 1292 -1028.0522 1292 -780V-748C1292 -496.684 1204.1154 -285.3155 1024 -216.0276Z" transform="translate(-20.8 281.6) scale(0.1)"/></svg>
