<svg id="svg-gammasuper" xmlns="http://www.w3.org/2000/svg" width="103" height="350"><path d="M640 -1264 634 -1227.2 628 -1264 396 -1996H120L499.504 -941.8221L396 -696C364 -624 352 -580 352 -540C352 -384 452 -292 624 -292C796 -292 900 -384 900 -540C900 -584 888 -636 860 -704L764.7411 -931.3921L1148 -1996H872ZM626.8364 -737.6158C661.7023 -645.8406 680 -594.3459 680 -552C680 -520 668 -492 624 -492C584 -492 568 -516 568 -552C568 -592.1409 589.4521 -644.1996 626.8364 -737.6158Z" transform="translate(-12 281.6) scale(0.1)"/></svg>
