<svg id="svg-approxequal" xmlns="http://www.w3.org/2000/svg" width="140" height="350"><path d="M232 -296H448C444 -472 524 -540 632 -540C704 -540 752 -508 848 -424C995 -295 1092 -240 1228 -240C1432 -240 1632 -368 1624 -700H1408C1412 -540 1340 -456 1224 -456C1152 -456 1108 -488 1008 -572C860 -696 764 -756 628 -756C424 -756 228 -628 232 -296ZM232 -900H448C444 -1076 524 -1144 632 -1144C704 -1144 752 -1112 848 -1028C995 -899 1092 -844 1228 -844C1432 -844 1632 -972 1624 -1304H1408C1412 -1144 1340 -1060 1224 -1060C1152 -1060 1108 -1092 1008 -1176C860 -1300 764 -1360 628 -1360C424 -1360 228 -1232 232 -900Z" transform="translate(-23.194 281.6) scale(0.1)"/></svg>
