<svg id="svg-aringbelow.1" xmlns="http://www.w3.org/2000/svg" width="136" height="350"><path d="M796 32C1092 32 1192 -152 1244 -236H1272V0H1500V-1536H1264V-1292H1244C1192 -1372 1100 -1556 800 -1556C412 -1556 144 -1248 144 -764C144 -276 412 32 796 32ZM828 -180C532 -180 380 -440 380 -768C380 -1092 528 -1344 828 -1344C1116 -1344 1268 -1112 1268 -768C1268 -420 1112 -180 828 -180ZM604 336C604 476 712 568 848 568C976 568 1092 476 1092 336C1092 200 976 104 848 104C712 104 604 200 604 336ZM728 336C728 268 780 216 848 216C908 216 968 268 968 336C968 404 908 456 848 456C780 456 728 404 728 336Z" transform="translate(-14.4 281.6) scale(0.1)"/></svg>
