<svg id="svg-uni034C" xmlns="http://www.w3.org/2000/svg" width="99" height="350"><path d="M-476 -2000C-476 -1936 -536 -1888 -608 -1888C-756 -1888 -824 -1980 -976 -1980C-1144 -1980 -1276 -1872 -1276 -1724L-1096 -1712C-1096 -1776 -1036 -1828 -960 -1828C-812 -1828 -780 -1732 -596 -1732C-428 -1732 -292 -1832 -292 -1988ZM-476 -2288C-476 -2224 -532 -2172 -608 -2172C-756 -2172 -824 -2268 -976 -2268C-1144 -2268 -1276 -2160 -1276 -2008L-1096 -2000C-1096 -2064 -1032 -2112 -960 -2112C-812 -2112 -780 -2020 -596 -2020C-428 -2020 -292 -2120 -292 -2272Z" transform="translate(127.6 281.6) scale(0.1)"/></svg>
