<svg id="svg-uni022A" xmlns="http://www.w3.org/2000/svg" width="181" height="350"><path d="M1976 -1024C1976 -1672 1596 -2076 1072 -2076C548 -2076 168 -1672 168 -1024C168 -376 548 28 1072 28C1596 28 1976 -376 1976 -1024ZM1736 -1024C1736 -492 1444 -204 1072 -204C700 -204 408 -492 408 -1024C408 -1556 700 -1844 1072 -1844C1444 -1844 1736 -1556 1736 -1024ZM1540 -3072H604V-2872H1540ZM784 -2304C876 -2304 944 -2380 944 -2464C944 -2556 876 -2624 784 -2624C700 -2624 624 -2556 624 -2464C624 -2380 700 -2304 784 -2304ZM1360 -2304C1452 -2304 1520 -2380 1520 -2464C1520 -2556 1452 -2624 1360 -2624C1276 -2624 1200 -2556 1200 -2464C1200 -2380 1276 -2304 1360 -2304Z" transform="translate(-16.8 281.6) scale(0.1)"/></svg>
