<svg id="svg-uni048E" xmlns="http://www.w3.org/2000/svg" width="139" height="350"><path d="M248 0H496V-748H944C1048.4562 -748 1140.3483 -761.9069 1220.1697 -787.4313L1368 -560L1552 -680L1415.0448 -889.3835C1565.3024 -1008.5095 1636 -1192.417 1636 -1400C1636 -1762 1421 -2048 940 -2048H248ZM1136 -1316 952 -1200 1091.9231 -984.7338C1045.9823 -973.8098 994.1459 -968 936 -968H496V-1828H932C1265 -1828 1392 -1646 1392 -1400C1392 -1275.4432 1359.4412 -1166.2686 1284.5881 -1088.8317Z" transform="translate(-24.8 281.6) scale(0.1)"/></svg>
