<svg id="svg-uni1F65" xmlns="http://www.w3.org/2000/svg" width="199" height="350"><path d="M362 -1536C218 -1306 148 -1057 148 -780C148 -270 350 28 696 28C915.6043 28 1068.4425 -87.4098 1142 -301.7625C1215.5575 -87.4098 1368.3958 28 1588 28C1934 28 2136 -270 2136 -780C2136 -1057 2066 -1306 1922 -1536H1654C1848 -1205 1888 -1006 1888 -760C1888 -400 1767 -192 1568 -192C1394 -192 1280 -351 1280 -648V-1108H1004V-648C1004 -351 890 -192 716 -192C517 -192 396 -400 396 -760C396 -1006 436 -1205 630 -1536ZM1008 -1728 1116 -1812C1044 -1896 1004 -1988 1004 -2120V-2224H756V-2112C756 -1952 848 -1816 1008 -1728ZM1168 -1760H1296L1612 -2196V-2224H1320L1168 -1780Z" transform="translate(-14.8 281.6) scale(0.1)"/></svg>
