<svg id="svg-chook" xmlns="http://www.w3.org/2000/svg" width="160" height="350"><path d="M1444 -1076V-1276C1444 -1436 1540 -1484 1668 -1484C1696 -1484 1724 -1480 1744 -1476V-1676C1708 -1688 1656 -1688 1608 -1688C1433.8047 -1688 1288.6375 -1598.4968 1232.6953 -1434.5397C1127.8636 -1512.0031 991.0979 -1556 836 -1556C420 -1556 144 -1228 144 -760C144 -300 408 32 840 32C1180 32 1404 -176 1444 -448H1208C1164 -280 1024 -180 840 -180C560 -180 380 -412 380 -768C380 -1116 564 -1344 840 -1344C1048 -1344 1172 -1216 1208 -1076Z" transform="translate(-14.4 281.6) scale(0.1)"/></svg>
