<svg id="svg-twostroke" xmlns="http://www.w3.org/2000/svg" width="139" height="350"><path d="M212 0H1504V-220H552V-236L1012 -728C1094.8171 -816.699 1163.9061 -894.2717 1221.1427 -964H1594V-1148H1356.1049C1438.1007 -1279.2349 1468 -1386.2864 1468 -1508C1468 -1824 1212 -2076 852 -2076C493 -2076 220 -1832 220 -1472H456C456 -1705 607 -1860 844 -1860C1066 -1860 1236 -1724 1236 -1508C1236 -1382.7775 1187.2736 -1279.0648 1085.4581 -1148H714V-964H928.0618C915.1318 -949.7136 901.7789 -935.0579 888 -920L212 -180Z" transform="translate(-21.2 281.6) scale(0.1)"/></svg>
