<svg id="svg-P.squared" xmlns="http://www.w3.org/2000/svg" width="372" height="350"><path d="M444 832H3468C3692 832 3812 712 3812 488V-2536C3812 -2760 3692 -2880 3468 -2880H444C220 -2880 100 -2760 100 -2536V488C100 712 220 832 444 832ZM410 600C364 600 332 568 332 522V-2570C332 -2616 364 -2648 410 -2648H3502C3548 -2648 3580 -2616 3580 -2570V522C3580 568 3548 600 3502 600ZM1300 0H1548V-748H1996C2473 -748 2688 -1038 2688 -1400C2688 -1762 2473 -2048 1992 -2048H1300ZM1548 -968V-1828H1984C2317 -1828 2444 -1646 2444 -1400C2444 -1154 2317 -968 1988 -968Z" transform="translate(-10 281.6) scale(0.1)"/></svg>
