<svg id="svg-otilde" xmlns="http://www.w3.org/2000/svg" width="140" height="350"><path d="M840 32C1256 32 1536 -284 1536 -760C1536 -1240 1256 -1556 840 -1556C424 -1556 144 -1240 144 -760C144 -284 424 32 840 32ZM840 -180C524 -180 380 -452 380 -760C380 -1068 524 -1344 840 -1344C1156 -1344 1300 -1068 1300 -760C1300 -452 1156 -180 840 -180ZM532 -1720C532 -1804 588 -1872 664 -1872C816 -1872 844 -1744 1028 -1744C1200 -1744 1332 -1876 1332 -2084L1152 -2100C1152 -2016 1092 -1948 1016 -1948C872 -1948 804 -2076 652 -2076C480 -2076 348 -1932 348 -1728Z" transform="translate(-14.4 281.6) scale(0.1)"/></svg>
