<svg id="svg-uni1F6D" xmlns="http://www.w3.org/2000/svg" width="262" height="350"><path d="M748 0H1476V-280C1212 -392 988 -696 988 -1080C988 -1508 1264 -1844 1652 -1844C2040 -1844 2316 -1508 2316 -1080C2316 -696 2092 -392 1828 -280V0H2556V-220H2128V-236C2392 -408 2556 -692 2556 -1080C2556 -1664 2180 -2076 1652 -2076C1124 -2076 748 -1664 748 -1080C748 -692 912 -408 1176 -236V-220H748ZM196 -1552 304 -1636C232 -1720 192 -1812 192 -1944V-2048H-56V-1936C-56 -1776 36 -1640 196 -1552ZM356 -1584H484L800 -2020V-2048H508L356 -1604Z" transform="translate(5.6 281.6) scale(0.1)"/></svg>
