<svg id="svg-exclam.circled" xmlns="http://www.w3.org/2000/svg" width="385" height="350"><path d="M1956 900C3019 900 3880 39 3880 -1024C3880 -2087 3019 -2948 1956 -2948C893 -2948 32 -2087 32 -1024C32 39 893 900 1956 900ZM1956 668C1020 668 264 -90 264 -1024C264 -1960 1020 -2716 1956 -2716C2892 -2716 3648 -1960 3648 -1024C3648 -90 2892 668 1956 668ZM2092 -2048H1820L1840 -576H2072ZM1956 16C2055 16 2136 -65 2136 -164C2136 -263 2055 -344 1956 -344C1857 -344 1776 -263 1776 -164C1776 -65 1857 16 1956 16Z" transform="translate(-3.2 281.6) scale(0.1)"/></svg>
