<svg id="svg-nine.numr" xmlns="http://www.w3.org/2000/svg" width="90" height="350"><path d="M528 -2132C272 -2132 96 -1976 96 -1760C96 -1564 252 -1416 464 -1416C604 -1416 728 -1484 776 -1588H784C784 -1340 696 -1188 520 -1188C412 -1188 336 -1244 320 -1336H112C132 -1152 288 -1008 520 -1008C828 -1008 992 -1268 992 -1596C992 -1972 776 -2132 528 -2132ZM528 -1972C656 -1972 748 -1888 760 -1768C772 -1672 676 -1560 532 -1560C400 -1560 300 -1652 300 -1764C300 -1880 400 -1972 528 -1972Z" transform="translate(-9.6 281.6) scale(0.1)"/></svg>
