<svg id="svg-uni0363" xmlns="http://www.w3.org/2000/svg" width="68" height="350"><path d="M-639.6522 -1745.5219C-635.0899 -1712.3595 -627.5449 -1682.1797 -620 -1652H-436C-456 -1716 -460 -1780 -460 -1832V-2144C-460 -2324 -584 -2420 -760 -2420C-944 -2420 -1068 -2320 -1068 -2188L-896 -2176C-896 -2236 -844 -2272 -760 -2272C-680 -2272 -644 -2228 -644 -2148V-2096H-780C-992 -2096 -1116 -2012 -1116 -1868C-1116 -1728 -1016 -1640 -860 -1640C-751.2661 -1640 -677.8168 -1691.5698 -639.6522 -1745.5219ZM-644 -1980V-1870.6609C-669.252 -1828.1832 -749.5296 -1784 -816 -1784C-896 -1784 -936 -1816 -936 -1872C-936 -1928 -876 -1980 -780 -1980Z" transform="translate(111.6 281.6) scale(0.1)"/></svg>
