<svg id="svg-eight.numr" xmlns="http://www.w3.org/2000/svg" width="92" height="350"><path d="M552 -1008C812 -1008 1008 -1144 1008 -1316C1008 -1440 900 -1556 736 -1584V-1592C880 -1620 964 -1728 964 -1840C964 -2004 784 -2128 552 -2128C316 -2128 136 -2004 136 -1840C136 -1728 220 -1620 364 -1592V-1584C208 -1560 92 -1444 92 -1316C92 -1144 288 -1008 552 -1008ZM552 -1156C412 -1156 312 -1236 312 -1332C312 -1432 420 -1508 552 -1508C684 -1508 788 -1428 788 -1332C788 -1236 688 -1156 552 -1156ZM552 -1652C432 -1652 344 -1728 344 -1816C344 -1904 432 -1976 552 -1976C668 -1976 760 -1904 760 -1816C760 -1728 668 -1652 552 -1652Z" transform="translate(-9.2 281.6) scale(0.1)"/></svg>
