<svg id="svg-pertenthousand" xmlns="http://www.w3.org/2000/svg" width="310" height="350"><path d="M1252 -384C1252 -160 1418 28 1668 28C1810.8529 28 1915.8304 -33.3841 1979.5745 -127.7933C2045.5575 -33.3841 2153.1472 28 2296 28C2438.8528 28 2543.8306 -33.3841 2607.5745 -127.7933C2673.5574 -33.3841 2781.1472 28 2924 28C3174 28 3336 -160 3336 -384V-492C3336 -716 3170 -904 2920 -904C2777.1472 -904 2670.8635 -842.6159 2606 -748.2067C2541.1365 -842.6159 2434.8528 -904 2292 -904C2149.7285 -904 2043.7292 -843.1146 1978.7941 -749.3578C1914.9753 -843.1146 1810.2715 -904 1668 -904C1418 -904 1252 -716 1252 -492ZM236 -1556C236 -1332 376 -1144 636 -1144C892 -1144 1032 -1332 1032 -1556V-1664C1032 -1888 896 -2076 636 -2076C380 -2076 236 -1888 236 -1664ZM312 0H540L1948 -2048H1720ZM2080 -492C2080 -616 2150 -732 2292 -732C2434 -732 2504 -616 2504 -492V-384C2504 -260 2438 -144 2296 -144C2154 -144 2080 -260 2080 -384ZM2708 -492C2708 -616 2778 -732 2920 -732C3062 -732 3132 -616 3132 -492V-384C3132 -260 3066 -144 2924 -144C2782 -144 2708 -260 2708 -384ZM1456 -492C1456 -616 1526 -732 1668 -732C1810 -732 1876 -616 1876 -492V-384C1876 -260 1812 -144 1668 -144C1524 -144 1456 -260 1456 -384ZM440 -1664C440 -1788 496 -1904 636 -1904C780 -1904 828 -1788 828 -1664V-1556C828 -1432 776 -1316 636 -1316C492 -1316 440 -1432 440 -1556Z" transform="translate(-23.6 281.6) scale(0.1)"/></svg>
