<svg id="svg-uni034A" xmlns="http://www.w3.org/2000/svg" width="99" height="350"><path d="M-656 -1744C-484 -1744 -352 -1876 -352 -2084L-532 -2100C-532 -2016 -592 -1948 -668 -1948C-674.8726 -1948 -681.572 -1948.2915 -688.1157 -1948.8468L-612 -2080L-744 -2164L-835.9956 -2005.4845C-893.6198 -2039.5018 -950.8339 -2076 -1032 -2076C-1204 -2076 -1336 -1932 -1336 -1728L-1152 -1720C-1152 -1804 -1096 -1872 -1020 -1872C-982.0735 -1872 -951.8671 -1864.0309 -925.031 -1852.0696L-1004 -1716L-872 -1632L-790.1133 -1773.0972C-754.7927 -1756.2146 -712.8395 -1744 -656 -1744Z" transform="translate(133.6 281.6) scale(0.1)"/></svg>
