<svg id="svg-scircumflex" xmlns="http://www.w3.org/2000/svg" width="119" height="350"><path d="M1304 -1192C1230 -1410 1064 -1556 760 -1556C436 -1556 196 -1372 196 -1112C196 -900 322 -758 604 -692L860 -632C1015 -596 1088 -522 1088 -416C1088 -284 948 -176 728 -176C535 -176 414 -259 372 -424L148 -368C203 -107 418 32 732 32C1089 32 1332 -163 1332 -428C1332 -642 1198 -777 924 -844L696 -900C514 -945 432 -1006 432 -1124C432 -1256 572 -1352 760 -1352C966 -1352 1051 -1238 1092 -1132ZM968 -1720H1192V-1736L868 -2152H652L328 -1736V-1720H552L760 -2000Z" transform="translate(-14.8 281.6) scale(0.1)"/></svg>
