<svg id="svg-zero.circled" xmlns="http://www.w3.org/2000/svg" width="385" height="350"><path d="M1956 900C3019 900 3880 39 3880 -1024C3880 -2087 3019 -2948 1956 -2948C893 -2948 32 -2087 32 -1024C32 39 893 900 1956 900ZM1956 668C1020 668 264 -90 264 -1024C264 -1960 1020 -2716 1956 -2716C2892 -2716 3648 -1960 3648 -1024C3648 -90 2892 668 1956 668ZM1956 28C2408 28 2668 -355 2668 -1024C2668 -1688 2404 -2076 1956 -2076C1508 -2076 1244 -1688 1244 -1024C1244 -355 1504 28 1956 28ZM1956 -192C1658 -192 1484 -491 1484 -1024C1484 -1556 1660 -1860 1956 -1860C2252 -1860 2428 -1556 2428 -1024C2428 -491 2254 -192 1956 -192Z" transform="translate(-3.2 281.6) scale(0.1)"/></svg>
