<svg id="svg-qhook" xmlns="http://www.w3.org/2000/svg" width="166" height="350"><path d="M1500 576V-1536C1500 -1640 1582 -1696 1724 -1696C1746 -1696 1775 -1693 1800 -1688V-1888C1778 -1895 1726 -1900 1664 -1900C1420 -1900 1272 -1769 1272 -1536V-1292H1244C1192 -1372 1100 -1556 800 -1556C412 -1556 144 -1248 144 -764C144 -276 412 32 796 32C1092 32 1192 -152 1244 -236H1264V576ZM1268 -768C1268 -420 1112 -180 828 -180C532 -180 380 -440 380 -768C380 -1092 528 -1344 828 -1344C1116 -1344 1268 -1112 1268 -768Z" transform="translate(-14.4 281.6) scale(0.1)"/></svg>
