<svg id="svg-feng" xmlns="http://www.w3.org/2000/svg" width="205" height="350"><path d="M320 0H556V-1336H900V0H1136V-924C1136 -1192 1302 -1344 1528 -1344C1747 -1344 1880 -1201 1880 -960V164C1880 324 1784 372 1656 372C1628 372 1600 368 1580 364V564C1616 576 1668 576 1716 576C1940 576 2116 428 2116 164V-976C2116 -1368 1907 -1556 1596 -1556C1364 -1556 1220 -1452 1148 -1296H1128V-1536H556V-1692C556 -1844 620 -1924 776 -1924C844 -1924 884 -1908 908 -1900L976 -2104C940 -2120 868 -2144 752 -2144C532 -2144 320 -2012 320 -1748V-1536H72V-1336H320Z" transform="translate(-7.2 281.6) scale(0.1)"/></svg>
