<svg id="svg-Gsmallcaphook" xmlns="http://www.w3.org/2000/svg" width="164" height="350"><path d="M1552 -1012V-1176C1552 -1336 1632 -1392 1760 -1392C1780 -1392 1812 -1388 1836 -1384V-1568C1796 -1580 1740 -1588 1700 -1588C1532.0299 -1588 1429.189 -1507.6741 1386.6791 -1359.8171C1281.547 -1457.105 1123.3116 -1516 904 -1516C492 -1516 196 -1248 196 -860V-636C196 -244 488 28 912 28C1280 28 1484 -124 1552 -216V-760H928V-540H1316V-308C1272 -272 1128 -192 912 -192C640 -192 440 -384 440 -636V-860C440 -1108 648 -1300 904 -1300C1132 -1300 1276 -1200 1300 -1012Z" transform="translate(-19.6 281.6) scale(0.1)"/></svg>
