<svg id="svg-upsilonlatin" xmlns="http://www.w3.org/2000/svg" width="146" height="350"><path d="M888 -192C508 -192 444 -444 444 -600C444 -852 624 -1020 624 -1224C624 -1316 604 -1556 160 -1556V-1336C224 -1336 352 -1324 352 -1192C352 -988 168 -876 168 -548C168 -272 316 28 888 28C1464 28 1608 -272 1608 -548C1608 -876 1428 -988 1428 -1192C1428 -1324 1552 -1336 1616 -1336V-1556C1172 -1556 1152 -1316 1152 -1224C1152 -1020 1332 -852 1332 -600C1332 -444 1268 -192 888 -192Z" transform="translate(-16 281.6) scale(0.1)"/></svg>
