<svg id="svg-arighthalfring.1" xmlns="http://www.w3.org/2000/svg" width="136" height="350"><path d="M796 32C1092 32 1192 -152 1244 -236H1272V0H1500V-1536H1264V-1292H1244C1192 -1372 1100 -1556 800 -1556C412 -1556 144 -1248 144 -764C144 -276 412 32 796 32ZM828 -180C532 -180 380 -440 380 -768C380 -1092 528 -1344 828 -1344C1116 -1344 1268 -1112 1268 -768C1268 -420 1112 -180 828 -180ZM732 -1736C888 -1736 1016 -1844 1016 -2004C1016 -2168 888 -2284 732 -2284V-2156C808 -2156 872 -2092 872 -2004C872 -1924 808 -1860 732 -1860Z" transform="translate(-14.4 281.6) scale(0.1)"/></svg>
