<svg id="svg-phook" xmlns="http://www.w3.org/2000/svg" width="136" height="350"><path d="M444 -1536C444 -1640 526 -1696 668 -1696C690 -1696 719 -1693 744 -1688V-1888C722 -1895 670 -1900 608 -1900C364 -1900 216 -1769 216 -1536V576H452V-236H472C524 -152 624 32 920 32C1304 32 1572 -276 1572 -764C1572 -1248 1304 -1556 916 -1556C616 -1556 524 -1372 472 -1292H444ZM448 -768C448 -1112 600 -1344 888 -1344C1188 -1344 1336 -1092 1336 -768C1336 -440 1184 -180 888 -180C604 -180 448 -420 448 -768Z" transform="translate(-21.6 281.6) scale(0.1)"/></svg>
