<svg id="svg-invertedinterrobang" xmlns="http://www.w3.org/2000/svg" width="118" height="350"><path d="M860 -960H684L679.2315 -822.905C666.455 -714.4434 619.9188 -655.9478 452 -548C276 -435 140 -247 140 -8C140 301 368 540 720 540C1044 540 1300 340 1316 0H1064C1048 236 884 332 720 332C547 332 380 218 380 0C380 -185 448 -296 608 -408C629.1237 -422.8687 648.5546 -438.4102 666.4186 -454.5353L652 -40H888ZM776 -1552C677 -1552 596 -1471 596 -1372C596 -1273 677 -1192 776 -1192C875 -1192 956 -1273 956 -1372C956 -1471 875 -1552 776 -1552Z" transform="translate(-14 281.6) scale(0.1)"/></svg>
