<svg id="svg-uni021D" xmlns="http://www.w3.org/2000/svg" width="116" height="350"><path d="M300 -288C575.9473 -339.5999 808.0054 -431.6666 980.0042 -551.1918C1034.0173 -483.2829 1064 -382.2507 1064 -260C1064 80 845 264 300 384V600C995 509 1340 229 1340 -244C1340 -448.7941 1275.7318 -602.5518 1150.1964 -699.7714C1254.8025 -817.0521 1312 -950.42 1312 -1092C1312 -1377 1103 -1556 772 -1556C413 -1556 184 -1367 184 -1072H456C456 -1233 576 -1336 762 -1336C940 -1336 1036 -1245 1036 -1078C1036 -814 773 -605 300 -492Z" transform="translate(-18.4 281.6) scale(0.1)"/></svg>
