<svg id="svg-eight.dnomf" xmlns="http://www.w3.org/2000/svg" width="92" height="350"><path d="M552 16C812 16 1008 -120 1008 -292C1008 -416 900 -532 736 -560V-568C880 -596 964 -704 964 -816C964 -980 784 -1104 552 -1104C316 -1104 136 -980 136 -816C136 -704 220 -596 364 -568V-560C208 -536 92 -420 92 -292C92 -120 288 16 552 16ZM552 -132C412 -132 312 -212 312 -308C312 -408 420 -484 552 -484C684 -484 788 -404 788 -308C788 -212 688 -132 552 -132ZM552 -628C432 -628 344 -704 344 -792C344 -880 432 -952 552 -952C668 -952 760 -880 760 -792C760 -704 668 -628 552 -628Z" transform="translate(-9.2 281.6) scale(0.1)"/></svg>
