<svg id="svg-uni036B" xmlns="http://www.w3.org/2000/svg" width="111" height="350"><path d="M-1169.3524 -2314.2922 -1196 -2412H-1328V-1652H-1148V-2185.3171C-1121.6152 -2241.5393 -1072.5149 -2272 -996 -2272C-904 -2272 -864 -2216 -864 -2096V-1652H-684V-2096C-684 -2124.2798 -685.5385 -2150.5286 -688.5466 -2174.8154C-663.4643 -2237.7366 -613.1507 -2272 -532 -2272C-440 -2272 -404 -2216 -404 -2096V-1652H-220V-2094C-220 -2324 -320 -2420 -484 -2420C-599.5897 -2420 -675.6498 -2370.5881 -720.4182 -2290.9858C-763.3377 -2380.1987 -842.4018 -2420 -948 -2420C-1050.6254 -2420 -1122.8817 -2380.5203 -1169.3524 -2314.2922Z" transform="translate(132.8 281.6) scale(0.1)"/></svg>
