<svg id="svg-six.circled" xmlns="http://www.w3.org/2000/svg" width="385" height="350"><path d="M1956 900C3019 900 3880 39 3880 -1024C3880 -2087 3019 -2948 1956 -2948C893 -2948 32 -2087 32 -1024C32 39 893 900 1956 900ZM1956 668C1020 668 264 -90 264 -1024C264 -1960 1020 -2716 1956 -2716C2892 -2716 3648 -1960 3648 -1024C3648 -90 2892 668 1956 668ZM1970 28C2384 33 2654 -279 2654 -660C2654 -1056 2361 -1340 2010 -1340C1799 -1340 1618 -1237 1506 -1068H1490C1491 -1567 1685 -1856 2002 -1856C2218 -1856 2348 -1720 2394 -1536H2638C2588 -1854 2346 -2076 2002 -2076C1541 -2076 1258 -1668 1258 -944C1258 -187 1634 24 1970 28ZM1970 -192C1713 -192 1525 -411 1526 -656C1527 -901 1724 -1120 1978 -1120C2229 -1120 2414 -914 2414 -660C2414 -400 2221 -192 1970 -192Z" transform="translate(-3.2 281.6) scale(0.1)"/></svg>
