<svg id="svg-uni0223" xmlns="http://www.w3.org/2000/svg" width="155" height="350"><path d="M916 -1220H860C612 -1220 392 -1292 392 -1572C392 -1772 484 -1868 656 -1936V-2140C356 -2128 116 -1928 116 -1572C116 -1333.9562 232.1713 -1185.3774 406.6509 -1102.3474C228.0605 -1003.2611 116 -834.4786 116 -596C116 -176 444 28 872 28H904C1332 28 1660 -176 1660 -600C1660 -836.0177 1548.0562 -1003.777 1369.6279 -1102.4802C1543.9525 -1185.5359 1660 -1334.083 1660 -1572C1660 -1928 1420 -2128 1120 -2140V-1936C1292 -1868 1384 -1772 1384 -1572C1384 -1292 1168 -1220 916 -1220ZM904 -1000C1188 -1000 1384 -868 1384 -600C1384 -324 1188 -192 904 -192H872C584 -192 392 -324 392 -596C392 -868 584 -1000 872 -1000Z" transform="translate(-11.6 281.6) scale(0.1)"/></svg>
