<svg id="svg-zero.slash" xmlns="http://www.w3.org/2000/svg" width="143" height="350"><path d="M880 28C1332 28 1592 -355 1592 -1024C1592 -1688 1328 -2076 880 -2076C432 -2076 168 -1688 168 -1024C168 -355 428 28 880 28ZM880 -192C773.7864 -192 683.3254 -229.9838 610.8807 -303.0083L1249.736 -1597.7095C1316.1995 -1457.4991 1352 -1263.9386 1352 -1024C1352 -491 1178 -192 880 -192ZM508.2164 -454.5044C442.9028 -593.5049 408 -785.2833 408 -1024C408 -1556 584 -1860 880 -1860C984.2919 -1860 1073.6868 -1822.261 1145.7352 -1750.1071Z" transform="translate(-16.8 281.6) scale(0.1)"/></svg>
