<svg id="svg-servicemark" xmlns="http://www.w3.org/2000/svg" width="145" height="350"><path d="M786 -1312H914V-1813.2025L1136 -1312H1204L1426 -1813.2025V-1312H1554V-2048H1398L1170 -1508L942 -2048H786ZM384 -1306C558 -1306 664 -1386 664 -1522C664 -1639 585 -1715 440 -1740L358 -1754C280 -1767 247 -1796 246 -1848C245 -1907 289 -1937 392 -1938C499 -1939 536 -1908 536 -1832H652C652 -1978 559 -2055 392 -2054C226 -2053 127 -1975 130 -1846C133 -1734 208 -1662 338 -1640L420 -1626C513 -1610 548 -1577 548 -1522C548 -1456 495 -1422 384 -1422C271 -1422 228 -1457 228 -1536H112C112 -1387 210 -1306 384 -1306Z" transform="translate(-11.2 281.6) scale(0.1)"/></svg>
