<svg id="svg-uni1F8B" xmlns="http://www.w3.org/2000/svg" width="204" height="350"><path d="M332 0 537.8932 -580H1366.1067L1572 0H1832L1080 -2048H824L72 0ZM615.9907 -800 944 -1724H960L1288.0093 -800ZM1080 680C1132 680 1164 672 1184 664V524C1172 524 1144 528 1124 528C1084 528 1056 500 1056 420V120H848V424C848 604 944 680 1080 680ZM-208 -1936C-208 -1776 -116 -1640 44 -1552L152 -1636C76 -1720 40 -1812 40 -1944V-2048H-208ZM576 -1604 424 -2048H132V-2020L448 -1584H576Z" transform="translate(20.8 281.6) scale(0.1)"/></svg>
