<svg id="svg-zecyrillic" xmlns="http://www.w3.org/2000/svg" width="116" height="350"><path d="M120 -392C128 -140 369 32 696 32C1032 32 1276 -148 1276 -428C1276 -620 1161 -776 988 -788V-804C1134 -849 1244 -955 1244 -1128C1244 -1371 1036 -1556 712 -1556C392 -1556 164 -1380 156 -1132H404C411 -1259 544 -1348 724 -1348C903 -1348 1004 -1257 1004 -1120C1004 -992 916 -896 728 -896H464V-684H728C916 -684 1036 -581 1036 -428C1036 -253 881 -180 692 -180C507 -180 383 -253 372 -392Z" transform="translate(-12 281.6) scale(0.1)"/></svg>
