<svg id="svg-tildedieresiscomb.lc" xmlns="http://www.w3.org/2000/svg" width="99" height="350"><path d="M-500 -2084C-500 -2000 -560 -1932 -636 -1932C-780 -1932 -848 -2060 -1000 -2060C-1168 -2060 -1300 -1916 -1300 -1712L-1120 -1704C-1120 -1784 -1060 -1856 -988 -1856C-836 -1856 -804 -1728 -620 -1728C-452 -1728 -316 -1860 -316 -2068ZM-1260 -2316C-1260 -2236 -1208 -2164 -1100 -2164C-996 -2164 -944 -2232 -944 -2316C-944 -2400 -1000 -2468 -1100 -2468C-1204 -2468 -1260 -2400 -1260 -2316ZM-668 -2311C-668 -2228 -616 -2164 -512 -2164C-408 -2164 -352 -2228 -352 -2312C-352 -2396 -408 -2464 -512 -2464C-616 -2464 -668 -2396 -668 -2311Z" transform="translate(130 281.6) scale(0.1)"/></svg>
