<svg id="svg-registered" xmlns="http://www.w3.org/2000/svg" width="160" height="350"><path d="M944 -476C1386 -476 1744 -834 1744 -1276C1744 -1718 1386 -2076 944 -2076C502 -2076 144 -1718 144 -1276C144 -834 502 -476 944 -476ZM944 -668C608 -668 336 -940 336 -1276C336 -1612 608 -1884 944 -1884C1280 -1884 1552 -1612 1552 -1276C1552 -940 1280 -668 944 -668ZM664 -916H826V-1166H986.6896L1116 -916H1294L1142.7683 -1202.0253C1208.4102 -1242.4253 1264 -1315.9181 1264 -1418C1264 -1578 1128 -1654 1038 -1654H664ZM826 -1286V-1534H980C1018 -1534 1086 -1508 1086 -1418C1086 -1330 1020 -1286 976 -1286Z" transform="translate(-14.4 281.6) scale(0.1)"/></svg>
