<svg id="svg-uni2059" xmlns="http://www.w3.org/2000/svg" width="134" height="350"><path d="M276 48C368 48 444 -24 444 -112C444 -200 368 -272 276 -272C184 -272 108 -200 108 -112C108 -24 184 48 276 48ZM1280 48C1372 48 1448 -24 1448 -112C1448 -200 1372 -272 1280 -272C1188 -272 1112 -200 1112 -112C1112 -24 1188 48 1280 48ZM780 -504C872 -504 948 -576 948 -664C948 -752 872 -824 780 -824C688 -824 612 -752 612 -664C612 -576 688 -504 780 -504ZM276 -1052C368 -1052 444 -1124 444 -1212C444 -1300 368 -1372 276 -1372C184 -1372 108 -1300 108 -1212C108 -1124 184 -1052 276 -1052ZM1280 -1052C1372 -1052 1448 -1124 1448 -1212C1448 -1300 1372 -1372 1280 -1372C1188 -1372 1112 -1300 1112 -1212C1112 -1124 1188 -1052 1280 -1052Z" transform="translate(-10.8 281.6) scale(0.1)"/></svg>
