<svg id="svg-uni1FC7" xmlns="http://www.w3.org/2000/svg" width="122" height="350"><path d="M452 -924C452 -1192 620 -1344 844 -1344C1064 -1344 1196 -1200 1196 -960V576H1432V-976C1432 -1368 1224 -1556 912 -1556C680 -1556 536 -1452 464 -1296H444V-1536H216V0H452ZM516 -1888C516 -1972 572 -2040 648 -2040C800 -2040 828 -1912 1012 -1912C1184 -1912 1316 -2044 1316 -2252L1136 -2268C1136 -2184 1076 -2116 1000 -2116C856 -2116 788 -2244 636 -2244C464 -2244 332 -2100 332 -1896ZM464 680C516 680 548 672 568 664V524C556 524 528 528 508 528C468 528 440 500 440 420V120H232V424C232 604 328 680 464 680Z" transform="translate(-21.6 281.6) scale(0.1)"/></svg>
