<svg id="svg-dieresiscaroncomb.cn" xmlns="http://www.w3.org/2000/svg" width="96" height="350"><path d="M-1012 -2308H-1244V-2280L-896 -1984H-728L-376 -2284V-2308H-612L-812 -2136ZM-1288 -1849C-1288 -1768 -1236 -1700 -1130 -1700C-1028 -1700 -972 -1764 -972 -1848C-972 -1936 -1028 -2004 -1132 -2004C-1232 -2004 -1288 -1936 -1288 -1849ZM-644 -1847C-644 -1764 -588 -1696 -484 -1696C-380 -1696 -328 -1768 -328 -1848C-328 -1932 -384 -2000 -484 -2000C-588 -2000 -644 -1932 -644 -1847Z" transform="translate(128.8 281.6) scale(0.1)"/></svg>
