<svg id="svg-asterism" xmlns="http://www.w3.org/2000/svg" width="166" height="350"><path d="M1408 -1360V-1488H1174.3597L1336 -1652L1244 -1744L1080 -1576.3823V-1816H952V-1577.6058L788 -1744L700 -1652L860.4604 -1488H628V-1360H868.2878L700 -1188L788 -1096L952 -1262.3942V-1032H1080V-1263.6177L1244 -1096L1336 -1188L1166.4749 -1360ZM968 -508V-636H734.3597L896 -800L804 -892L640 -724.3823V-960H512V-725.6058L348 -892L260 -800L420.4604 -636H188V-508H428.2878L260 -336L348 -244L512 -410.3942V-180H640V-411.6176L804 -244L896 -336L726.4748 -508ZM1848 -508V-636H1614.3597L1776 -800L1684 -892L1520 -724.3823V-960H1392V-725.6058L1228 -892L1140 -800L1300.4604 -636H1068V-508H1308.2877L1140 -336L1228 -244L1392 -410.3942V-180H1520V-411.6176L1684 -244L1776 -336L1606.4749 -508Z" transform="translate(-18.8 281.6) scale(0.1)"/></svg>
