<svg id="svg-uni037C" xmlns="http://www.w3.org/2000/svg" width="127" height="350"><path d="M796 28C1112 28 1380 -212 1392 -492H1132C1120 -316 972 -192 796 -192C484 -192 404 -464 404 -736V-792C404 -1064 488 -1336 796 -1336C996 -1336 1120 -1188 1132 -996H1392C1380 -1316 1152 -1556 796 -1556C344 -1556 128 -1208 128 -792V-736C128 -320 340 28 796 28ZM600 -760C600 -676 652 -608 756 -608C860 -608 916 -676 916 -760C916 -844 860 -912 756 -912C652 -912 600 -844 600 -760Z" transform="translate(-12.8 281.6) scale(0.1)"/></svg>
