<svg id="svg-O.circled" xmlns="http://www.w3.org/2000/svg" width="385" height="350"><path d="M1956 900C3019 900 3880 39 3880 -1024C3880 -2087 3019 -2948 1956 -2948C893 -2948 32 -2087 32 -1024C32 39 893 900 1956 900ZM1956 668C1020 668 264 -90 264 -1024C264 -1960 1020 -2716 1956 -2716C2892 -2716 3648 -1960 3648 -1024C3648 -90 2892 668 1956 668ZM2860 -1024C2860 -1672 2480 -2076 1956 -2076C1432 -2076 1052 -1672 1052 -1024C1052 -376 1432 28 1956 28C2480 28 2860 -376 2860 -1024ZM2620 -1024C2620 -492 2328 -204 1956 -204C1584 -204 1292 -492 1292 -1024C1292 -1556 1584 -1844 1956 -1844C2328 -1844 2620 -1556 2620 -1024Z" transform="translate(-3.2 281.6) scale(0.1)"/></svg>
