<svg id="svg-abrevegrave" xmlns="http://www.w3.org/2000/svg" width="123" height="350"><path d="M668 36C936 36 1076 -108 1124 -208H1136V0H1372V-1012C1372 -1500 1000 -1556 804 -1556C572 -1556 308 -1476 188 -1196L412 -1116C464 -1228 587 -1348 812 -1348C1029 -1348 1136 -1233 1136 -1036V-1028C1136 -914 1020 -924 740 -888C455 -851 144 -788 144 -436C144 -136 376 36 668 36ZM704 -176C516 -176 380 -260 380 -424C380 -604 544 -660 728 -684C828 -696 1096 -724 1136 -772V-556C1136 -364 984 -176 704 -176ZM1008 -2004C1008 -1920 952 -1848 812 -1848C668 -1848 616 -1920 616 -2004H392C392 -1836 552 -1716 812 -1716C1072 -1716 1232 -1836 1232 -2004ZM764 -2036H912L764 -2308H540Z" transform="translate(-14.4 281.6) scale(0.1)"/></svg>
