<svg id="svg-G.circled" xmlns="http://www.w3.org/2000/svg" width="385" height="350"><path d="M1956 900C3019 900 3880 39 3880 -1024C3880 -2087 3019 -2948 1956 -2948C893 -2948 32 -2087 32 -1024C32 39 893 900 1956 900ZM1956 668C1020 668 264 -90 264 -1024C264 -1960 1020 -2716 1956 -2716C2892 -2716 3648 -1960 3648 -1024C3648 -90 2892 668 1956 668ZM2562 -1408H2818C2742 -1804 2410 -2076 1978 -2076C1453 -2076 1082 -1672 1082 -1024C1082 -376 1450 28 1994 28C2482 28 2830 -297 2830 -804V-1024H2050V-804H2589.8523C2583.0383 -436.2507 2340.9941 -204 1994 -204C1614 -204 1322 -492 1322 -1024C1322 -1556 1614 -1844 1978 -1844C2274 -1844 2475 -1677 2562 -1408Z" transform="translate(-3.2 281.6) scale(0.1)"/></svg>
