<svg id="svg-omegaclosed" xmlns="http://www.w3.org/2000/svg" width="199" height="350"><path d="M1144 -1556C420 -1556 152 -1120 152 -684C152 -356 296 28 700 28C918.5982 28 1069.9985 -85.8632 1144 -295.7378C1218.0015 -85.8632 1369.4017 28 1588 28C1992 28 2136 -356 2136 -684C2136 -1120 1868 -1556 1144 -1556ZM1144 -1336C1688 -1336 1860 -1056 1860 -690C1860 -452 1790 -192 1566 -192C1414 -192 1280 -316 1280 -648V-908H1008V-648C1008 -316 874 -192 722 -192C498 -192 428 -452 428 -690C428 -1056 600 -1336 1144 -1336Z" transform="translate(-15.2 281.6) scale(0.1)"/></svg>
