<svg id="svg-oogonekmacron" xmlns="http://www.w3.org/2000/svg" width="140" height="350"><path d="M828 600C924 600 996 568 1040 540L1024 364C996 380 948 400 888 400C808 400 784 364 784 304C784 191.5116 882.4172 100.1126 993.5847 16.6235C1323.448 -52.0076 1536 -345.2747 1536 -760C1536 -1240 1256 -1556 840 -1556C424 -1556 144 -1240 144 -760C144 -329.8643 372.6415 -30.3809 723.6674 23.3383C595.9103 120.6591 544 229.3678 544 336C544 508 664 600 828 600ZM840 -180C524 -180 380 -452 380 -760C380 -1068 524 -1344 840 -1344C1156 -1344 1300 -1068 1300 -760C1300 -452 1156 -180 840 -180ZM1308 -2048H372V-1848H1308Z" transform="translate(-14.4 281.6) scale(0.1)"/></svg>
