<svg id="svg-uni0231" xmlns="http://www.w3.org/2000/svg" width="140" height="350"><path d="M840 32C1256 32 1536 -284 1536 -760C1536 -1240 1256 -1556 840 -1556C424 -1556 144 -1240 144 -760C144 -284 424 32 840 32ZM840 -180C524 -180 380 -452 380 -760C380 -1068 524 -1344 840 -1344C1156 -1344 1300 -1068 1300 -760C1300 -452 1156 -180 840 -180ZM1312 -2556H376V-2356H1312ZM844 -1788C936 -1788 1012 -1860 1012 -1948C1012 -2036 936 -2108 844 -2108C752 -2108 676 -2036 676 -1948C676 -1860 752 -1788 844 -1788Z" transform="translate(-14.4 281.6) scale(0.1)"/></svg>
