<svg id="svg-ecircumflexgrave" xmlns="http://www.w3.org/2000/svg" width="158" height="350"><path d="M860 32C1172 32 1400 -124 1472 -356L1244 -420C1184 -260 1045 -180 860 -180C582.8658 -180 392.1162 -359.3417 380.5562 -688H1496V-788C1496 -1360 1156 -1556 836 -1556C420 -1556 144 -1228 144 -756C144 -284 416 32 860 32ZM381.1703 -892C396.7271 -1130.8499 566.4774 -1344 836 -1344C1092 -1344 1256 -1152 1256 -892ZM932 -2088H712L308 -1724H596L824 -1936L1052 -1724H1340ZM220 -2332H-76L208 -1968H412Z" transform="translate(7.6 281.6) scale(0.1)"/></svg>
