<svg id="svg-uni1FAF" xmlns="http://www.w3.org/2000/svg" width="242" height="350"><path d="M552 0H1280V-280C1016 -392 792 -696 792 -1080C792 -1508 1068 -1844 1456 -1844C1844 -1844 2120 -1508 2120 -1080C2120 -696 1896 -392 1632 -280V0H2360V-220H1932V-236C2196 -408 2360 -692 2360 -1080C2360 -1664 1984 -2076 1456 -2076C928 -2076 552 -1664 552 -1080C552 -692 716 -408 980 -236V-220H552ZM588 -2372C588 -2304 536 -2252 476 -2252C360 -2252 296 -2356 172 -2356C36 -2356 -56 -2232 -56 -2100L64 -2068C64 -2136 112 -2188 172 -2188C292 -2188 328 -2088 476 -2088C612 -2088 708 -2204 708 -2336ZM1584 680C1636 680 1668 672 1688 664V524C1676 524 1648 528 1628 528C1588 528 1560 500 1560 420V120H1352V424C1352 604 1448 680 1584 680ZM236 -1924C236 -1820 288 -1688 400 -1608L524 -1676C468 -1752 444 -1828 444 -1920V-2020H236Z" transform="translate(5.6 281.6) scale(0.1)"/></svg>
