<svg id="svg-haabkhasiancyrillic" xmlns="http://www.w3.org/2000/svg" width="149" height="350"><path d="M1632 -204C1543.9635 -204 1462.0735 -214.1332 1387.4807 -233.1471C1497.4412 -370.9115 1560 -554.043 1560 -760V-940C1560 -1288 1392 -1556 1120 -1556C848 -1556 680 -1312 680 -968V-792C680 -558.8065 775.1929 -352.811 946.8553 -207.1805C909.045 -197.2404 869.2832 -192 828 -192C576 -192 384 -456 384 -788V-900C384 -1144 500 -1332 632 -1332V-1552C344 -1552 148 -1272 148 -900V-788C148 -328 420 28 828 28C963.325 28 1085.1631 -4.7538 1188.85 -63.3246C1316.4082 -12.3289 1465.1903 16 1632 16ZM1160.554 -332.2654C1005.5439 -436.4404 916 -597.086 916 -788V-972C916 -1185 1001 -1336 1120 -1336C1239 -1336 1324 -1174 1324 -944V-760C1324 -587.181 1262.1672 -435.3619 1160.554 -332.2654Z" transform="translate(-14.8 281.6) scale(0.1)"/></svg>
