<svg id="svg-hdieresis" xmlns="http://www.w3.org/2000/svg" width="156" height="350"><path d="M452 -924C452 -1192 623 -1344 856 -1344C1078 -1344 1212 -1204 1212 -960V0H1448V-976C1448 -1371 1238 -1556 924 -1556C682 -1556 544 -1455 472 -1296H452V-2048H216V0H452ZM48 -2304C140 -2304 208 -2380 208 -2464C208 -2556 140 -2624 48 -2624C-36 -2624 -112 -2556 -112 -2464C-112 -2380 -36 -2304 48 -2304ZM624 -2304C716 -2304 784 -2380 784 -2464C784 -2556 716 -2624 624 -2624C540 -2624 464 -2556 464 -2464C464 -2380 540 -2304 624 -2304Z" transform="translate(11.2 281.6) scale(0.1)"/></svg>
