<svg id="svg-atilde.1" xmlns="http://www.w3.org/2000/svg" width="136" height="350"><path d="M796 32C1092 32 1192 -152 1244 -236H1272V0H1500V-1536H1264V-1292H1244C1192 -1372 1100 -1556 800 -1556C412 -1556 144 -1248 144 -764C144 -276 412 32 796 32ZM828 -180C532 -180 380 -440 380 -768C380 -1092 528 -1344 828 -1344C1116 -1344 1268 -1112 1268 -768C1268 -420 1112 -180 828 -180ZM552 -1720C552 -1804 608 -1872 684 -1872C836 -1872 864 -1744 1048 -1744C1220 -1744 1352 -1876 1352 -2084L1172 -2100C1172 -2016 1112 -1948 1036 -1948C892 -1948 824 -2076 672 -2076C500 -2076 368 -1932 368 -1728Z" transform="translate(-14.4 281.6) scale(0.1)"/></svg>
