<svg id="svg-uni1FD7" xmlns="http://www.w3.org/2000/svg" width="97" height="350"><path d="M208 -1536V-380C208 -84 348 20 536 20C632 20 696 4 736 -8V-232C716 -224 660 -212 620 -212C536 -212 444 -236 444 -380V-1536ZM580 -2528C580 -2460 528 -2408 468 -2408C352 -2408 284 -2512 164 -2512C28 -2512 -68 -2388 -68 -2256L56 -2224C56 -2292 104 -2344 164 -2344C284 -2344 320 -2244 468 -2244C604 -2244 696 -2360 696 -2492ZM492 -2016C492 -1932 548 -1864 652 -1864C756 -1864 812 -1932 812 -2016C812 -2100 756 -2168 652 -2168C548 -2168 492 -2100 492 -2016ZM-152 -2016C-152 -1936 -100 -1868 8 -1868C112 -1868 164 -1936 164 -2016C164 -2104 112 -2172 8 -2172C-100 -2172 -152 -2104 -152 -2016Z" transform="translate(15.2 281.6) scale(0.1)"/></svg>
