<svg id="svg-ntilde" xmlns="http://www.w3.org/2000/svg" width="122" height="350"><path d="M452 -924C452 -1192 618 -1344 844 -1344C1063 -1344 1196 -1201 1196 -960V0H1432V-976C1432 -1368 1223 -1556 912 -1556C680 -1556 536 -1452 464 -1296H444V-1536H216V0H452ZM516 -1720C516 -1804 572 -1872 648 -1872C800 -1872 828 -1744 1012 -1744C1184 -1744 1316 -1876 1316 -2084L1136 -2100C1136 -2016 1076 -1948 1000 -1948C856 -1948 788 -2076 636 -2076C464 -2076 332 -1932 332 -1728Z" transform="translate(-21.6 281.6) scale(0.1)"/></svg>
