<svg id="svg-udieresis" xmlns="http://www.w3.org/2000/svg" width="121" height="350"><path d="M1184 -628C1184 -340 964 -208 788 -208C592 -208 452 -352 452 -576V-1536H216V-560C216 -168 424 20 712 20C944 20 1096 -104 1168 -260H1184V0H1420V-1536H1184ZM532 -1792C624 -1792 692 -1868 692 -1952C692 -2044 624 -2112 532 -2112C448 -2112 372 -2044 372 -1952C372 -1868 448 -1792 532 -1792ZM1108 -1792C1200 -1792 1268 -1868 1268 -1952C1268 -2044 1200 -2112 1108 -2112C1024 -2112 948 -2044 948 -1952C948 -1868 1024 -1792 1108 -1792Z" transform="translate(-21.6 281.6) scale(0.1)"/></svg>
