<svg id="svg-four.circled" xmlns="http://www.w3.org/2000/svg" width="385" height="350"><path d="M1956 900C3019 900 3880 39 3880 -1024C3880 -2087 3019 -2948 1956 -2948C893 -2948 32 -2087 32 -1024C32 39 893 900 1956 900ZM1956 668C1020 668 264 -90 264 -1024C264 -1960 1020 -2716 1956 -2716C2892 -2716 3648 -1960 3648 -1024C3648 -90 2892 668 1956 668ZM1096 -420H2060V0H2296V-420H2576V-640H2296V-2048H1996L1096 -624ZM2060 -640H1364V-656L2044 -1732H2060Z" transform="translate(-3.2 281.6) scale(0.1)"/></svg>
