<svg id="svg-iocyrillic" xmlns="http://www.w3.org/2000/svg" width="136" height="350"><path d="M860 32C1172 32 1400 -124 1472 -356L1244 -420C1184 -260 1045 -180 860 -180C582.8658 -180 392.1162 -359.3417 380.5562 -688H1496V-788C1496 -1360 1156 -1556 836 -1556C420 -1556 144 -1228 144 -756C144 -284 416 32 860 32ZM381.1703 -892C396.7271 -1130.8499 566.4774 -1344 836 -1344C1092 -1344 1256 -1152 1256 -892ZM536 -1792C628 -1792 696 -1868 696 -1952C696 -2044 628 -2112 536 -2112C452 -2112 376 -2044 376 -1952C376 -1868 452 -1792 536 -1792ZM1112 -1792C1204 -1792 1272 -1868 1272 -1952C1272 -2044 1204 -2112 1112 -2112C1028 -2112 952 -2044 952 -1952C952 -1868 1028 -1792 1112 -1792Z" transform="translate(-14.4 281.6) scale(0.1)"/></svg>
