<svg id="svg-uni2058" xmlns="http://www.w3.org/2000/svg" width="148" height="350"><path d="M904 48C996 48 1072 -24 1072 -112C1072 -200 996 -272 904 -272C812 -272 736 -200 736 -112C736 -24 812 48 904 48ZM336 -504C428 -504 504 -576 504 -664C504 -752 428 -824 336 -824C244 -824 168 -752 168 -664C168 -576 244 -504 336 -504ZM1476 -504C1568 -504 1644 -576 1644 -664C1644 -752 1568 -824 1476 -824C1384 -824 1308 -752 1308 -664C1308 -576 1384 -504 1476 -504ZM904 -1052C996 -1052 1072 -1124 1072 -1212C1072 -1300 996 -1372 904 -1372C812 -1372 736 -1300 736 -1212C736 -1124 812 -1052 904 -1052Z" transform="translate(-16.8 281.6) scale(0.1)"/></svg>
