<svg id="svg-uni023F" xmlns="http://www.w3.org/2000/svg" width="119" height="350"><path d="M1304 -1192C1230 -1410 1064 -1556 760 -1556C436 -1556 196 -1372 196 -1112C196 -900 322 -758 604 -692L860 -632C1015 -596 1088 -522 1088 -416C1088 -284 948 -176 728 -176C535 -176 414 -259 372 -424L148 -368C163.4861 -294.5116 191.6567 -230.6952 231.1503 -176.9303L480 256C597 459 708 576 884 576C992 576 1104 500 1164 440L1072 280C1028 320 956 376 884 376C803.7952 376 754.4749 309.8188 591.8699 21.8189C635.9907 28.5845 682.779 32 732 32C1089 32 1332 -163 1332 -428C1332 -642 1198 -777 924 -844L696 -900C514 -945 432 -1006 432 -1124C432 -1256 572 -1352 760 -1352C966 -1352 1051 -1238 1092 -1132Z" transform="translate(-14.8 281.6) scale(0.1)"/></svg>
