<svg id="svg-six.numr" xmlns="http://www.w3.org/2000/svg" width="90" height="350"><path d="M556 -1008C812 -1008 988 -1168 988 -1380C988 -1576 832 -1724 620 -1724C484 -1724 352 -1656 308 -1552H300C300 -1800 388 -1952 564 -1952C672 -1952 748 -1896 764 -1804H972C952 -1988 792 -2132 564 -2132C256 -2132 92 -1876 92 -1544C92 -1168 308 -1008 556 -1008ZM552 -1168C424 -1168 336 -1252 324 -1372C312 -1484 420 -1580 552 -1580C680 -1580 784 -1492 784 -1376C784 -1260 684 -1168 552 -1168Z" transform="translate(-9.2 281.6) scale(0.1)"/></svg>
