<svg id="svg-uni1F4A" xmlns="http://www.w3.org/2000/svg" width="270" height="350"><path d="M2680 -1024C2680 -1672 2300 -2076 1776 -2076C1252 -2076 872 -1672 872 -1024C872 -376 1252 28 1776 28C2300 28 2680 -376 2680 -1024ZM2440 -1024C2440 -492 2148 -204 1776 -204C1404 -204 1112 -492 1112 -1024C1112 -1556 1404 -1844 1776 -1844C2148 -1844 2440 -1556 2440 -1024ZM344 -2056H96V-1952C96 -1820 56 -1728 -16 -1644L92 -1560C252 -1648 344 -1784 344 -1944ZM852 -1612 696 -2056H408V-2028L724 -1592H852Z" transform="translate(1.6 281.6) scale(0.1)"/></svg>
