<svg id="svg-uni1DEC" xmlns="http://www.w3.org/2000/svg" width="49" height="350"><path d="M-644 -2400C-644 -2356 -676 -2320 -716 -2320C-717.343 -2320 -718.6761 -2320.0237 -720 -2320.0701V-2740H-900V-2387.7476C-902.6279 -2387.9138 -905.2936 -2388 -908 -2388C-996 -2388 -1056 -2304 -1056 -2224L-980 -2204C-980 -2244 -948 -2280 -908 -2280C-905.2628 -2280 -902.5981 -2279.917 -900 -2279.7568V-2179.7622C-902.6279 -2179.9187 -905.2936 -2180 -908 -2180C-996 -2180 -1056 -2100 -1056 -2016L-980 -2000C-980 -2036 -948 -2076 -908 -2076C-905.2628 -2076 -902.5981 -2075.917 -900 -2075.7568V-1652H-720V-2012.0375C-718.6814 -2012.0126 -717.3482 -2012 -716 -2012C-628 -2012 -568 -2088 -568 -2172L-644 -2192C-644 -2152 -676 -2116 -716 -2116C-717.343 -2116 -718.6761 -2116.0222 -720 -2116.0659V-2216.0376C-718.6814 -2216.0127 -717.3482 -2216 -716 -2216C-632 -2216 -568 -2288 -568 -2376Z" transform="translate(105.6 281.6) scale(0.1)"/></svg>
