<svg id="svg-uni0247" xmlns="http://www.w3.org/2000/svg" width="136" height="350"><path d="M1424 -2048H1236L1028.6222 -1530.7382C965.5593 -1548.0679 900.3749 -1556 836 -1556C420 -1556 144 -1228 144 -756C144 -455.3965 254.3248 -218.0674 449.1425 -85.3439L184 576H376L608.73 -6.7134C684.6301 18.6315 768.6768 32 860 32C1172 32 1400 -124 1472 -356L1244 -420C1184 -260 1045 -180 860 -180C798.1915 -180 740.6797 -188.9207 688.4945 -206.429L880.8293 -688H1496V-788C1496 -1142.6757 1365.2778 -1352.7878 1189.6572 -1461.2485ZM772.5427 -892H381.1703C396.7271 -1130.8499 566.4774 -1344 836 -1344C875.7667 -1344 913.3134 -1339.3671 948.3702 -1330.5659ZM690.7561 -688 534.2048 -297.5148C442.3679 -383.3912 386.6408 -515.0123 380.5562 -688ZM1105.5707 -1250.7113C1201.2242 -1169.8096 1256 -1042.2607 1256 -892H962.3049Z" transform="translate(-14.4 281.6) scale(0.1)"/></svg>
