<svg id="svg-uni20B7" xmlns="http://www.w3.org/2000/svg" width="154" height="350"><path d="M1368 -508C1368 -414.782 1334.0563 -339.4788 1268 -286.6681V-368C1268 -592 1164 -688 1000 -688C894.2487 -688 813.0476 -625.9025 765.0739 -525.1357C725.8962 -637.7512 638.6509 -688 520 -688C422.5716 -688 345.9811 -635.2922 297.014 -548.1974L264 -672H120V164H312V-177.7542C391.9635 -103.3146 490.7137 -53.1518 596 -21.0067V164H788V18.5195C843.3993 25.1158 898.6061 28 952 28C994.8509 28 1036.2311 25.7938 1076 21.4929V164H1268V-19.3228C1509.512 -99.8002 1656 -277.6488 1656 -512C1656 -820 1448 -1008 1020 -1124C748 -1200 548 -1292 548 -1484C548 -1664 672 -1800 940 -1800C1244 -1800 1368 -1632 1368 -1424H1656C1656 -1732 1400 -2032 940 -2032C528 -2032 260 -1792 260 -1480C260 -1176 508 -1004 924 -880C1236 -788 1368 -708 1368 -508ZM788 -213.9256V-368C788 -385.8369 787.3406 -402.8622 786.0439 -419.0921C811.6335 -484.9973 860.2789 -528 936 -528C1020 -528 1076 -476 1076 -332V-209.2762C1038.1923 -203.1518 996.835 -200 952 -200C899.0281 -200 843.4874 -204.7954 788 -213.9256ZM320.1057 -448.8706C347.8842 -497.6512 392.3878 -528 456 -528C544 -528 596 -476 596 -332V-263.6352C476.3192 -306.9749 373.5138 -370.6244 320.1057 -448.8706Z" transform="translate(-12 281.6) scale(0.1)"/></svg>
