<svg id="svg-Gbreve.1" xmlns="http://www.w3.org/2000/svg" width="177" height="350"><path d="M1080 28C1351 28 1532 -71 1688 -250H1698L1728 0H1936V-1024H1136V-804H1695.5714C1683.9325 -452.6686 1436.2732 -204 1080 -204C700 -204 408 -492 408 -1024C408 -1556 708 -1844 1072 -1844C1367 -1844 1586 -1678 1668 -1408H1924C1848 -1804 1504 -2076 1072 -2076C548 -2076 168 -1672 168 -1024C168 -376 536 28 1080 28ZM1260 -2560C1260 -2456 1204 -2364 1064 -2364C924 -2364 872 -2456 872 -2560H652C652 -2344 812 -2192 1064 -2192C1320 -2192 1480 -2344 1480 -2560Z" transform="translate(-16.8 281.6) scale(0.1)"/></svg>
