<svg id="svg-uni1F27" xmlns="http://www.w3.org/2000/svg" width="122" height="350"><path d="M452 -924C452 -1192 620 -1344 844 -1344C1064 -1344 1196 -1200 1196 -960V576H1432V-976C1432 -1368 1224 -1556 912 -1556C680 -1556 536 -1452 464 -1296H444V-1536H216V0H452ZM1076 -2492C1076 -2424 1024 -2372 964 -2372C848 -2372 784 -2476 660 -2476C524 -2476 432 -2352 432 -2220L552 -2188C552 -2256 600 -2308 660 -2308C780 -2308 816 -2208 964 -2208C1100 -2208 1196 -2324 1196 -2456ZM724 -2044C724 -1940 776 -1808 888 -1728L1012 -1796C956 -1872 932 -1948 932 -2040V-2140H724Z" transform="translate(-21.6 281.6) scale(0.1)"/></svg>
