<svg id="svg-uni1F9F" xmlns="http://www.w3.org/2000/svg" width="236" height="350"><path d="M968 0H1216V-916H2308V0H2556V-2048H2308V-1136H1216V-2048H968ZM844 -2372C844 -2304 792 -2252 732 -2252C616 -2252 552 -2356 428 -2356C292 -2356 200 -2232 200 -2100L320 -2068C320 -2136 368 -2188 428 -2188C548 -2188 584 -2088 732 -2088C868 -2088 964 -2204 964 -2336ZM1888 680C1940 680 1972 672 1992 664V524C1980 524 1952 528 1932 528C1892 528 1864 500 1864 420V120H1656V424C1656 604 1752 680 1888 680ZM492 -1924C492 -1820 544 -1688 656 -1608L780 -1676C724 -1752 700 -1828 700 -1920V-2020H492Z" transform="translate(-20 281.6) scale(0.1)"/></svg>
