<svg id="svg-ascript_uni02DE" xmlns="http://www.w3.org/2000/svg" width="201" height="350"><path d="M780 32C1063 35 1240 -140 1344 -388H1345.5129L1440 0H1660L1485.1603 -674.8815L1664 -708C1708 -548 1776 -384 1976 -384C2036 -384 2096 -392 2148 -416L2104 -628C2084 -624 2048 -612 2028 -612C1876 -612 1872 -724 1836 -948L1487.2909 -881.0479L1640 -1536H1420L1332.9534 -1136H1332C1234 -1382 1076 -1556 796 -1556C414 -1556 144 -1230 144 -768C144 -302 395 28 780 32ZM1252.9193 -768.2247 1252 -764C1208 -563 1077 -180 780 -180C540 -180 380 -431 380 -764C380 -1104 552 -1344 796 -1344C1101 -1344 1211 -966 1252 -772Z" transform="translate(-14.4 281.6) scale(0.1)"/></svg>
