<svg id="svg-aiecyrillic" xmlns="http://www.w3.org/2000/svg" width="232" height="350"><path d="M1824 32C2136 32 2364 -124 2436 -356L2208 -420C2148 -260 2009 -180 1824 -180C1548.8282 -180 1356.2705 -360.2487 1344.5649 -688H2460V-788C2460 -1360 2120 -1556 1800 -1556C1581.8213 -1556 1415.1154 -1465.9229 1306.0752 -1310.541C1189.5789 -1524.499 949.5379 -1556 804 -1556C572 -1556 308 -1476 188 -1196L412 -1116C464 -1228 588 -1348 812 -1348C1028 -1348 1136 -1232 1136 -1036V-1028C1136 -916 1020 -924 740 -888C456 -852 144 -788 144 -436C144 -136 376 36 668 36C936 36 1172 -108 1232 -280H1239.869C1336.6049 -89.9957 1547.1515 32 1824 32ZM704 -176C516 -176 380 -260 380 -424C380 -604 544 -660 728 -684C828 -696 1096 -724 1136 -772V-556C1136 -364 984 -176 704 -176ZM1345.1787 -892C1360.7886 -1130.0205 1530.5262 -1344 1800 -1344C2056 -1344 2220 -1152 2220 -892Z" transform="translate(-14.4 281.6) scale(0.1)"/></svg>
