<svg id="svg-uni022C" xmlns="http://www.w3.org/2000/svg" width="181" height="350"><path d="M1976 -1024C1976 -1672 1596 -2076 1072 -2076C548 -2076 168 -1672 168 -1024C168 -376 548 28 1072 28C1596 28 1976 -376 1976 -1024ZM1736 -1024C1736 -492 1444 -204 1072 -204C700 -204 408 -492 408 -1024C408 -1556 700 -1844 1072 -1844C1444 -1844 1736 -1556 1736 -1024ZM1544 -2888H604V-2680H1544ZM1336 -2540C1336 -2472 1284 -2424 1224 -2424C1108 -2424 1044 -2524 920 -2524C788 -2524 692 -2400 692 -2268L812 -2236C812 -2300 860 -2360 920 -2360C1040 -2360 1076 -2256 1224 -2256C1360 -2256 1456 -2372 1456 -2508Z" transform="translate(-16.8 281.6) scale(0.1)"/></svg>
