<svg id="svg-aring.1" xmlns="http://www.w3.org/2000/svg" width="136" height="350"><path d="M796 32C1092 32 1192 -152 1244 -236H1272V0H1500V-1536H1264V-1292H1244C1192 -1372 1100 -1556 800 -1556C412 -1556 144 -1248 144 -764C144 -276 412 32 796 32ZM828 -180C532 -180 380 -440 380 -768C380 -1092 528 -1344 828 -1344C1116 -1344 1268 -1112 1268 -768C1268 -420 1112 -180 828 -180ZM860 -1708C1064 -1708 1220 -1856 1220 -2048C1220 -2240 1064 -2400 860 -2400C656 -2400 496 -2240 496 -2048C496 -1856 656 -1708 860 -1708ZM860 -1860C748 -1860 668 -1952 668 -2048C668 -2148 748 -2244 860 -2244C972 -2244 1052 -2148 1052 -2048C1052 -1952 972 -1860 860 -1860Z" transform="translate(-14.4 281.6) scale(0.1)"/></svg>
