<svg id="svg-uni03FE" xmlns="http://www.w3.org/2000/svg" width="173" height="350"><path d="M1896 -1408C1820 -1828 1484 -2076 1072 -2076C548 -2076 168 -1672 168 -1024C168 -376 548 28 1072 28C1484 28 1820 -220 1896 -640H1648C1588 -356 1344 -204 1072 -204C700 -204 408 -492 408 -1024C408 -1556 700 -1844 1072 -1844C1344 -1844 1588 -1692 1648 -1408ZM1084 -860C1183 -860 1264 -941 1264 -1040C1264 -1139 1183 -1220 1084 -1220C985 -1220 904 -1139 904 -1040C904 -941 985 -860 1084 -860Z" transform="translate(-16.8 281.6) scale(0.1)"/></svg>
