<svg id="svg-cruzeiro" xmlns="http://www.w3.org/2000/svg" width="173" height="350"><path d="M1768 -1120C1720 -1148 1644 -1176 1564 -1176C1384 -1176 1216 -1036 1172 -888H1156V-1152H920V-221.0561C623.4565 -290.073 408 -567.017 408 -1024C408 -1556 700 -1844 1072 -1844C1344 -1844 1588 -1692 1648 -1408H1896C1820 -1828 1484 -2076 1072 -2076C548 -2076 168 -1672 168 -1024C168 -376 548 28 1072 28C1484 28 1820 -220 1896 -640H1648C1594.2566 -385.6147 1392.8866 -237.1356 1156 -208.9358V-484C1160 -692 1304 -932 1556 -932C1624 -932 1664 -912 1688 -900Z" transform="translate(-16.8 281.6) scale(0.1)"/></svg>
