<svg id="svg-five.circled" xmlns="http://www.w3.org/2000/svg" width="385" height="350"><path d="M1956 900C3019 900 3880 39 3880 -1024C3880 -2087 3019 -2948 1956 -2948C893 -2948 32 -2087 32 -1024C32 39 893 900 1956 900ZM1956 668C1020 668 264 -90 264 -1024C264 -1960 1020 -2716 1956 -2716C2892 -2716 3648 -1960 3648 -1024C3648 -90 2892 668 1956 668ZM1936 28C2326 28 2612 -260 2612 -652C2612 -1049 2336 -1340 1960 -1340C1822 -1340 1688 -1291 1604 -1224H1592L1664 -1828H2520V-2048H1456L1332 -1040L1564 -1012C1649 -1073 1794 -1117 1920 -1116C2181 -1114 2372 -916 2372 -648C2372 -385 2188 -192 1936 -192C1726 -192 1559 -327 1540 -512H1300C1315 -200 1584 28 1936 28Z" transform="translate(-3.2 281.6) scale(0.1)"/></svg>
