<svg id="svg-acircumflextilde" xmlns="http://www.w3.org/2000/svg" width="123" height="350"><path d="M668 36C936 36 1076 -108 1124 -208H1136V0H1372V-1012C1372 -1500 1000 -1556 804 -1556C572 -1556 308 -1476 188 -1196L412 -1116C464 -1228 587 -1348 812 -1348C1029 -1348 1136 -1233 1136 -1036V-1028C1136 -914 1020 -924 740 -888C455 -851 144 -788 144 -436C144 -136 376 36 668 36ZM704 -176C516 -176 380 -260 380 -424C380 -604 544 -660 728 -684C828 -696 1096 -724 1136 -772V-556C1136 -364 984 -176 704 -176ZM912 -2008H720L300 -1672H548L816 -1884L1084 -1672H1332ZM1064 -2360C1064 -2312 1004 -2264 948 -2264C844 -2264 784 -2356 672 -2356C544 -2356 448 -2244 448 -2136L556 -2108C556 -2156 616 -2208 672 -2208C780 -2208 812 -2112 948 -2112C1076 -2112 1176 -2220 1176 -2328Z" transform="translate(-14.4 281.6) scale(0.1)"/></svg>
