<svg id="svg-ccedilla" xmlns="http://www.w3.org/2000/svg" width="130" height="350"><path d="M916.7324 28.3382C1213.5297 -0.538 1407.0919 -197.0248 1444 -448H1208C1164 -280 1024 -180 840 -180C560 -180 380 -412 380 -768C380 -1116 564 -1344 840 -1344C1048 -1344 1172 -1216 1208 -1076H1444C1404 -1364 1160 -1556 836 -1556C420 -1556 144 -1228 144 -760C144 -343.6536 360.2708 -32.1658 721.6317 23.2045L688 188C840 200 904 224 904 316C904 408 812 444 688 444L696 600C972 600 1116 480 1116 308C1116 152 1012 88 908 72Z" transform="translate(-14.4 281.6) scale(0.1)"/></svg>
