<svg id="svg-uni0488" xmlns="http://www.w3.org/2000/svg" width="268" height="350"><path d="M-1680 -1360C-1680 -1436 -1644 -1500 -1548 -1500C-1448 -1500 -1412 -1436 -1412 -1360H-1256C-1256 -1512 -1368 -1620 -1548 -1620C-1728 -1620 -1840 -1512 -1840 -1360ZM-888 436C-888 368 -852 296 -756 296C-656 296 -620 364 -620 436H-464C-464 284 -576 176 -756 176C-932 176 -1044 284 -1044 436ZM-80 -1360C-80 -1436 -44 -1500 52 -1500C152 -1500 188 -1436 188 -1360H344C344 -1512 232 -1620 52 -1620C-128 -1620 -236 -1512 -236 -1360ZM-1696 44C-1696 -24 -1660 -96 -1564 -96C-1464 -96 -1428 -28 -1428 44H-1272C-1272 -108 -1388 -216 -1564 -216C-1740 -216 -1852 -104 -1852 44ZM-96 44C-96 -28 -56 -96 40 -96C136 -96 176 -28 176 44H328C328 -108 216 -216 40 -216C-140 -216 -252 -104 -252 44ZM176 -672C176 -744 216 -808 308 -808C408 -808 444 -744 444 -672H600C600 -820 488 -928 308 -928C132 -928 20 -820 20 -672ZM-1924 -672C-1924 -740 -1888 -808 -1792 -808C-1692 -808 -1656 -744 -1656 -672H-1500C-1500 -820 -1612 -928 -1792 -928C-1968 -928 -2080 -820 -2080 -672ZM-896 -1744C-896 -1812 -860 -1880 -760 -1880C-664 -1880 -624 -1816 -624 -1744H-472C-472 -1892 -584 -2000 -760 -2000C-940 -2000 -1052 -1892 -1052 -1744Z" transform="translate(208 281.6) scale(0.1)"/></svg>
