<svg id="svg-Idieresisacute.1" xmlns="http://www.w3.org/2000/svg" width="98" height="350"><path d="M136 -1828H500V-220H136V0H1112V-220H748V-1828H1112V-2048H136ZM336 -2208C428 -2208 496 -2284 496 -2368C496 -2460 428 -2528 336 -2528C252 -2528 176 -2460 176 -2368C176 -2284 252 -2208 336 -2208ZM912 -2208C1004 -2208 1072 -2284 1072 -2368C1072 -2460 1004 -2528 912 -2528C828 -2528 752 -2460 752 -2368C752 -2284 828 -2208 912 -2208ZM520 -2672H728L1088 -2976H812Z" transform="translate(-13.6 281.6) scale(0.1)"/></svg>
