<svg id="svg-Upsilondieresishooksymbolgreek" xmlns="http://www.w3.org/2000/svg" width="161" height="350"><path d="M808 0H1056V-798L1488 -1736C1519 -1804 1560 -1828 1616 -1828C1644 -1828 1672 -1824 1684 -1816L1736 -2040C1672 -2068 1624 -2076 1560 -2076C1388 -2076 1323 -1980 1248 -1812L932 -1100L620 -1812C530 -2019 436 -2076 304 -2076C240 -2076 192 -2068 128 -2036L180 -1816C192 -1824 224 -1828 248 -1828C308 -1828 349 -1804 380 -1736L808 -798ZM644 -2304C736 -2304 804 -2380 804 -2464C804 -2556 736 -2624 644 -2624C560 -2624 484 -2556 484 -2464C484 -2380 560 -2304 644 -2304ZM1220 -2304C1312 -2304 1380 -2380 1380 -2464C1380 -2556 1312 -2624 1220 -2624C1136 -2624 1060 -2556 1060 -2464C1060 -2380 1136 -2304 1220 -2304Z" transform="translate(-12.8 281.6) scale(0.1)"/></svg>
