<svg id="svg-dollar" xmlns="http://www.w3.org/2000/svg" width="148" height="350"><path d="M816 256H980V33.1461C1399.6671 4.0453 1636 -244.2311 1636 -556C1636 -940 1272 -1064 1060 -1120L980 -1141.5385V-1852.543C1191.7185 -1831.7379 1346.3831 -1717.9421 1368 -1536H1608C1597.6021 -1828.0872 1342.3777 -2050.479 980 -2073.949V-2304H816V-2070.9231C472.8676 -2035.5586 216 -1818.1505 216 -1504C216 -1228 416 -1064 736 -972L816 -949.1429V-192.0152C606.4559 -213.5082 433.7796 -321.7562 416 -528H160C182.5098 -212.8631 423.1778 7.2694 816 33.3916ZM980 -192.4748V-902.2857L988 -900C1204 -840 1396 -764 1396 -560C1396 -358.6744 1221.516 -218.7414 980 -192.4748ZM816 -1185.8278C664.4155 -1228.9308 456 -1312.6741 456 -1516C456 -1688.9508 596.154 -1821.4127 816 -1850.1754Z" transform="translate(-16 281.6) scale(0.1)"/></svg>
