<svg id="svg-uni1DE2" xmlns="http://www.w3.org/2000/svg" width="70" height="350"><path d="M-816 -1952C-716 -1952 -676 -1932 -676 -1856V-1788C-676 -1760 -676 -1680 -648 -1652H-464V-1664C-484 -1688 -492 -1744 -492 -1788V-1856C-492 -1939.7568 -521.23 -2009.8729 -605.5322 -2044.5865C-531.4675 -2087.1572 -492 -2151.0007 -492 -2228C-492 -2380 -604 -2472 -796 -2472H-1160V-1652H-980V-1952ZM-980 -2100V-2324H-796C-732 -2324 -676 -2292 -676 -2220C-676 -2148 -724 -2100 -796 -2100Z" transform="translate(116 281.6) scale(0.1)"/></svg>
