<svg id="svg-bullseye" xmlns="http://www.w3.org/2000/svg" width="181" height="350"><path d="M1976 -1024C1976 -1672 1596 -2076 1072 -2076C548 -2076 168 -1672 168 -1024C168 -376 548 28 1072 28C1596 28 1976 -376 1976 -1024ZM1736 -1024C1736 -492 1444 -204 1072 -204C700 -204 408 -492 408 -1024C408 -1556 700 -1844 1072 -1844C1444 -1844 1736 -1556 1736 -1024ZM1072 -844C1171 -844 1252 -925 1252 -1024C1252 -1123 1171 -1204 1072 -1204C973 -1204 892 -1123 892 -1024C892 -925 973 -844 1072 -844Z" transform="translate(-16.8 281.6) scale(0.1)"/></svg>
