<svg id="svg-uni1F10" xmlns="http://www.w3.org/2000/svg" width="126" height="350"><path d="M928 -800V-892H744C521 -892 412 -976 412 -1104C412 -1246 549 -1344 760 -1344C966 -1344 1095 -1251 1128 -1112H1376C1337 -1390 1110 -1556 760 -1556C410 -1556 172 -1388 172 -1104C172 -979.3953 218.1818 -831.6998 445.635 -767.9324C201.8795 -700.7895 144 -541.2672 144 -416C144 -150 407 28 764 28C1128 28 1370 -159 1404 -448H1156C1116 -272 1000 -188 776 -188C544 -188 392 -284 392 -428C392 -573 528 -688 744 -688H928ZM1000 -2224H752V-2120C752 -1988 716 -1896 640 -1812L748 -1728C912 -1816 1000 -1952 1000 -2112Z" transform="translate(-14.4 281.6) scale(0.1)"/></svg>
