<svg id="svg-uni2182" xmlns="http://www.w3.org/2000/svg" width="234" height="350"><path d="M1528 0C2096 0 2444 -364 2444 -972V-1080C2444 -1688 2088 -2048 1556 -2048H1020C452 -2048 104 -1684 104 -1076V-968C104 -360 460 0 992 0ZM1108 -1700C724 -1700 488 -1456 488 -1064V-988C488 -592 728 -348 1088 -348H1136V-192H992C592 -192 348 -452 348 -964V-1076C348 -1564 584 -1856 1020 -1856H1136V-1700ZM1440 -348C1824 -348 2060 -592 2060 -984V-1060C2060 -1456 1820 -1700 1460 -1700H1412V-1856H1556C1956 -1856 2200 -1596 2200 -1084V-972C2200 -484 1964 -192 1528 -192H1412V-348ZM1412 -1508H1460C1688 -1508 1816 -1376 1816 -1064V-984C1816 -692 1692 -540 1440 -540H1412ZM1136 -540H1088C860 -540 732 -672 732 -984V-1064C732 -1356 856 -1508 1108 -1508H1136Z" transform="translate(-10.4 281.6) scale(0.1)"/></svg>
