<svg id="svg-chedieresiscyrillic" xmlns="http://www.w3.org/2000/svg" width="119" height="350"><path d="M1400 -1536H1164V-756.5054C1049.8336 -723.8286 932.8139 -704 792 -704C600 -704 452 -812 452 -1048V-1540H216V-1048C216 -672 444 -484 792 -484C937.0359 -484 1052.8993 -503.4484 1164 -535.5647V0H1400ZM520 -1792C612 -1792 680 -1868 680 -1952C680 -2044 612 -2112 520 -2112C436 -2112 360 -2044 360 -1952C360 -1868 436 -1792 520 -1792ZM1096 -1792C1188 -1792 1256 -1868 1256 -1952C1256 -2044 1188 -2112 1096 -2112C1012 -2112 936 -2044 936 -1952C936 -1868 1012 -1792 1096 -1792Z" transform="translate(-21.6 281.6) scale(0.1)"/></svg>
