<svg id="svg-uni03F4" xmlns="http://www.w3.org/2000/svg" width="181" height="350"><path d="M1976 -1024C1976 -1672 1596 -2076 1072 -2076C548 -2076 168 -1672 168 -1024C168 -376 548 28 1072 28C1596 28 1976 -376 1976 -1024ZM1731.6282 -1134H412.3718C450.0229 -1595.584 726.5092 -1844 1072 -1844C1417.4907 -1844 1693.9771 -1595.584 1731.6282 -1134ZM1731.6282 -914C1693.9771 -452.416 1417.4907 -204 1072 -204C726.5092 -204 450.0229 -452.416 412.3718 -914Z" transform="translate(-16.8 281.6) scale(0.1)"/></svg>
