<svg id="svg-uni1DD7" xmlns="http://www.w3.org/2000/svg" width="68" height="350"><path d="M-735.1441 -1633.8514C-580.3998 -1649.4785 -459.4202 -1761.8569 -452 -1888H-624C-636 -1828 -688 -1780 -772 -1780C-888 -1780 -948 -1880 -948 -2012V-2040C-948 -2168 -888 -2272 -772 -2272C-676 -2272 -628 -2204 -624 -2144H-452C-460 -2292 -572 -2420 -772 -2420C-1016 -2420 -1128 -2244 -1128 -2040V-2012C-1128 -1833.3899 -1041.8657 -1670.7305 -846.8054 -1637.9808L-872 -1548C-808 -1540 -772 -1532 -772 -1496C-772 -1452 -808 -1440 -872 -1440L-864 -1344C-708 -1344 -628 -1404 -628 -1492C-628 -1580 -684 -1600 -740 -1612Z" transform="translate(112.8 281.6) scale(0.1)"/></svg>
