<svg id="svg-aringacute" xmlns="http://www.w3.org/2000/svg" width="123" height="350"><path d="M668 36C936 36 1076 -108 1124 -208H1136V0H1372V-1012C1372 -1500 1000 -1556 804 -1556C572 -1556 308 -1476 188 -1196L412 -1116C464 -1228 587 -1348 812 -1348C1029 -1348 1136 -1233 1136 -1036V-1028C1136 -914 1020 -924 740 -888C455 -851 144 -788 144 -436C144 -136 376 36 668 36ZM704 -176C516 -176 380 -260 380 -424C380 -604 544 -660 728 -684C828 -696 1096 -724 1136 -772V-556C1136 -364 984 -176 704 -176ZM820 -1676.6C980 -1676.6 1110 -1800.1 1110 -1952.1C1110 -2104.1001 980 -2227.6001 820 -2227.6001C660 -2227.6001 530 -2104.1001 530 -1952.1C530 -1800.1 660 -1676.6 820 -1676.6ZM820 -1813.4C737 -1813.4 676 -1875.15 676 -1952.1C676 -2029.05 737 -2090.8 820 -2090.8C903 -2090.8 964 -2029.05 964 -1952.1C964 -1875.15 903 -1813.4 820 -1813.4ZM720 -2308H914L1172 -2556H920Z" transform="translate(-14.4 281.6) scale(0.1)"/></svg>
