<svg id="svg-abrevehookabove.1" xmlns="http://www.w3.org/2000/svg" width="136" height="350"><path d="M796 32C1092 32 1192 -152 1244 -236H1272V0H1500V-1536H1264V-1292H1244C1192 -1372 1100 -1556 800 -1556C412 -1556 144 -1248 144 -764C144 -276 412 32 796 32ZM828 -180C532 -180 380 -440 380 -768C380 -1092 528 -1344 828 -1344C1116 -1344 1268 -1112 1268 -768C1268 -420 1112 -180 828 -180ZM1032 -2032C1032 -1948 980 -1876 844 -1876C708 -1876 656 -1948 656 -2032H440C440 -1864 596 -1744 844 -1744C1096 -1744 1248 -1864 1248 -2032ZM952 -2060V-2148C1052 -2160 1152 -2200 1152 -2304C1152 -2420 1016 -2500 748 -2500L736 -2384C856 -2384 948 -2364 948 -2308C948 -2256 892 -2240 760 -2236L764 -2060Z" transform="translate(-14.4 281.6) scale(0.1)"/></svg>
