<svg id="svg-uni1F4B" xmlns="http://www.w3.org/2000/svg" width="260" height="350"><path d="M2536 -1024C2536 -1672 2156 -2076 1632 -2076C1108 -2076 728 -1672 728 -1024C728 -376 1108 28 1632 28C2156 28 2536 -376 2536 -1024ZM2296 -1024C2296 -492 2004 -204 1632 -204C1260 -204 968 -492 968 -1024C968 -1556 1260 -1844 1632 -1844C2004 -1844 2296 -1556 2296 -1024ZM-56 -1936C-56 -1776 36 -1640 196 -1552L304 -1636C228 -1720 192 -1812 192 -1944V-2048H-56ZM728 -1604 576 -2048H284V-2020L600 -1584H728Z" transform="translate(5.6 281.6) scale(0.1)"/></svg>
