<svg id="svg-uni1FAC" xmlns="http://www.w3.org/2000/svg" width="257" height="350"><path d="M700 0H1428V-280C1164 -392 940 -696 940 -1080C940 -1508 1216 -1844 1604 -1844C1992 -1844 2268 -1508 2268 -1080C2268 -696 2044 -392 1780 -280V0H2508V-220H2080V-236C2344 -408 2508 -692 2508 -1080C2508 -1664 2132 -2076 1604 -2076C1076 -2076 700 -1664 700 -1080C700 -692 864 -408 1128 -236V-220H700ZM1732 680C1784 680 1816 672 1836 664V524C1824 524 1796 528 1776 528C1736 528 1708 500 1708 420V120H1500V424C1500 604 1596 680 1732 680ZM304 -2048H56V-1944C56 -1812 16 -1720 -56 -1636L52 -1552C212 -1640 304 -1776 304 -1936ZM324 -1584H452L768 -2020V-2048H480L324 -1604Z" transform="translate(5.6 281.6) scale(0.1)"/></svg>
