<svg id="svg-scedilla" xmlns="http://www.w3.org/2000/svg" width="119" height="350"><path d="M1304 -1192C1230 -1410 1064 -1556 760 -1556C436 -1556 196 -1372 196 -1112C196 -900 322 -758 604 -692L860 -632C1015 -596 1088 -522 1088 -416C1088 -284 948 -176 728 -176C535 -176 414 -259 372 -424L148 -368C197.2456 -134.3071 374.7628 1.5788 636.7643 27.4548L604 188C756 200 820 224 820 316C820 408 728 444 604 444L612 600C888 600 1032 480 1032 308C1032 152 928 88 824 72L833.0899 26.5505C1134.0917 -6.7058 1332 -188.8476 1332 -428C1332 -642 1198 -777 924 -844L696 -900C514 -945 432 -1006 432 -1124C432 -1256 572 -1352 760 -1352C966 -1352 1051 -1238 1092 -1132Z" transform="translate(-14.8 281.6) scale(0.1)"/></svg>
