<svg id="svg-three.1.circled" xmlns="http://www.w3.org/2000/svg" width="385" height="350"><path d="M1956 900C3019 900 3880 39 3880 -1024C3880 -2087 3019 -2948 1956 -2948C893 -2948 32 -2087 32 -1024C32 39 893 900 1956 900ZM1956 668C1020 668 264 -90 264 -1024C264 -1960 1020 -2716 1956 -2716C2892 -2716 3648 -1960 3648 -1024C3648 -90 2892 668 1956 668ZM1260 -512C1284 -171 1587 28 1952 28C2363 28 2652 -226 2652 -576C2652 -917 2377 -1172 2024 -1188V-1204L2572 -1868V-2048H1360V-1828H2232V-1812L1720 -1196V-996H1884C2263 -996 2408 -797 2408 -576C2408 -322 2211 -192 1956 -192C1719 -192 1534 -304 1512 -512Z" transform="translate(-3.2 281.6) scale(0.1)"/></svg>
