<svg id="svg-nine.circled" xmlns="http://www.w3.org/2000/svg" width="385" height="350"><path d="M1956 900C3019 900 3880 39 3880 -1024C3880 -2087 3019 -2948 1956 -2948C893 -2948 32 -2087 32 -1024C32 39 893 900 1956 900ZM1956 668C1020 668 264 -90 264 -1024C264 -1960 1020 -2716 1956 -2716C2892 -2716 3648 -1960 3648 -1024C3648 -90 2892 668 1956 668ZM1942 -2076C1526 -2081 1258 -1768 1258 -1392C1258 -996 1550 -712 1902 -712C2114 -712 2294 -816 2406 -984H2422C2422 -480 2226 -192 1910 -192C1694 -192 1562 -328 1518 -516H1274C1322 -192 1566 28 1910 28C2370 28 2654 -380 2654 -1108C2654 -1860 2278 -2072 1942 -2076ZM1942 -1856C2198 -1856 2386 -1636 2386 -1396C2386 -1152 2186 -932 1934 -932C1682 -932 1498 -1136 1498 -1392C1498 -1648 1690 -1856 1942 -1856Z" transform="translate(-3.2 281.6) scale(0.1)"/></svg>
