<svg id="svg-dyogh" xmlns="http://www.w3.org/2000/svg" width="245" height="350"><path d="M1500 0V-1316H2216L1696 -600V-384H1896C2196 -384 2356 -184 2356 16C2356 228 2188 416 1928 416C1704 416 1536 288 1508 128H1280C1332 480 1612 608 1928 608C2324 608 2588 380 2588 12C2588 -320 2372 -568 1968 -592L2540 -1368L2536 -1536H1500V-2048H1264V-1292H1248C1196 -1372 1100 -1556 800 -1556C412 -1556 144 -1248 144 -764C144 -276 412 32 796 32C1092 32 1196 -152 1248 -236H1272V0ZM380 -768C380 -1092 528 -1344 828 -1344C1116 -1344 1268 -1112 1268 -768C1268 -420 1112 -180 828 -180C532 -180 380 -440 380 -768Z" transform="translate(-14.4 281.6) scale(0.1)"/></svg>
