<svg id="svg-nine" xmlns="http://www.w3.org/2000/svg" width="140" height="350"><path d="M864 -2076C448 -2081 180 -1768 180 -1392C180 -996 472 -712 824 -712C1036 -712 1216 -816 1328 -984H1344C1344 -480 1148 -192 832 -192C616 -192 484 -328 440 -516H196C244 -192 488 28 832 28C1292 28 1576 -380 1576 -1108C1576 -1860 1200 -2072 864 -2076ZM864 -1856C1120 -1856 1308 -1636 1308 -1396C1308 -1152 1108 -932 856 -932C604 -932 420 -1136 420 -1392C420 -1648 612 -1856 864 -1856Z" transform="translate(-18 281.6) scale(0.1)"/></svg>
