<svg id="svg-uni1FE4" xmlns="http://www.w3.org/2000/svg" width="127" height="350"><path d="M200 572H436L431.6914 -162.6136C527.2701 -41.1228 654.7163 28 840 28C1224 28 1464 -272 1464 -688V-716C1464 -1224 1224 -1556 820 -1556C468 -1556 200 -1304 200 -788ZM428.8693 -643.7927 428 -792C426 -1052 540 -1336 820 -1336C1096 -1336 1220 -1068 1220 -716V-688C1220 -416 1096 -184 828 -184C540.5275 -184 439.0532 -452.2667 428.8693 -643.7927ZM1052 -2224H804V-2120C804 -1988 768 -1896 692 -1812L800 -1728C964 -1816 1052 -1952 1052 -2112Z" transform="translate(-20 281.6) scale(0.1)"/></svg>
