<svg id="svg-tildedieresiscomb.cn" xmlns="http://www.w3.org/2000/svg" width="96" height="350"><path d="M-544 -1972C-544 -1908 -596 -1856 -656 -1856C-772 -1856 -836 -1956 -960 -1956C-1096 -1956 -1188 -1832 -1188 -1700L-1068 -1668C-1068 -1736 -1020 -1792 -960 -1792C-840 -1792 -804 -1688 -656 -1688C-520 -1688 -424 -1804 -424 -1940ZM-644 -2206C-644 -2120 -588 -2056 -485 -2056C-380 -2056 -328 -2124 -328 -2208C-328 -2292 -384 -2360 -484 -2360C-588 -2360 -644 -2292 -644 -2206ZM-1288 -2208C-1288 -2124 -1232 -2060 -1132 -2060C-1028 -2060 -972 -2124 -972 -2208C-972 -2296 -1028 -2360 -1132 -2360C-1236 -2360 -1288 -2292 -1288 -2208Z" transform="translate(128.8 281.6) scale(0.1)"/></svg>
