<svg id="svg-ncurl" xmlns="http://www.w3.org/2000/svg" width="181" height="350"><path d="M452 -924C452 -1192 618 -1344 844 -1344C1063 -1344 1196 -1201 1196 -960V-184L884 136L1036 292L1228.0144 91.7564C1280.8088 230.3614 1402.5566 344 1620 344C1868 344 2024 196 2024 -20C2024 -240 1860 -384 1640 -384C1571.6384 -384 1500.8495 -370.2455 1432 -343.1003V-976C1432 -1368 1223 -1556 912 -1556C680 -1556 536 -1452 464 -1296H444V-1536H216V0H452ZM1432 -28V-109.2984C1481.9371 -146.6886 1537.7367 -172 1608 -172C1712 -172 1780 -116 1780 -20C1780 72 1716 140 1620 140C1520 140 1432 64 1432 -28Z" transform="translate(-21.6 281.6) scale(0.1)"/></svg>
