<svg width="24" height="24" viewBox="0 0 24 24" fill="none" xmlns="http://www.w3.org/2000/svg">
<path d="M20.9263 10.9835H15.2349C14.9658 10.9835 14.7456 11.2118 14.7538 11.4809C14.7538 11.5298 14.7619 11.5787 14.7783 11.6277L16.1481 15.1746C16.197 15.2969 16.1318 15.4355 16.0095 15.4763C15.9769 15.4844 15.9443 15.4926 15.9116 15.4926L14.1586 15.3866C14.077 15.3784 14.0036 15.4192 13.9547 15.4844L12.593 17.4169C12.5196 17.5311 12.3729 17.5637 12.2669 17.4903C12.2669 17.4903 12.2669 17.4903 12.2587 17.4903L10.2447 16.1204C10.1632 16.0634 10.0572 16.0634 9.98377 16.1204L7.19514 18.0121C7.08914 18.0855 6.94237 18.0611 6.86898 17.9551C6.82821 17.898 6.82006 17.8246 6.83636 17.7594L7.61098 14.9789C7.6436 14.8648 7.58652 14.7424 7.47237 14.7017L5.99651 14.0983C5.87421 14.0494 5.81713 13.9189 5.86605 13.7966C5.87421 13.7721 5.89051 13.7558 5.90682 13.7314L7.21144 12.1169C7.27668 12.0354 7.27667 11.9212 7.2196 11.8397L6.12698 10.2497C6.05359 10.1436 6.07805 9.99688 6.18405 9.92349C6.21667 9.89903 6.25744 9.88272 6.30636 9.88272L8.01053 9.75226C8.14099 9.74411 8.23068 9.63811 8.23068 9.50765L8.10022 7.11856C8.09206 6.98809 8.19806 6.87394 8.32853 6.86579C8.36114 6.86579 8.39376 6.87394 8.42637 6.88209L10.5382 7.75456C10.6279 7.79533 10.7339 7.77087 10.7992 7.68933L12.2505 6.05855C12.3402 5.9607 12.487 5.95255 12.5849 6.04224C12.6093 6.0667 12.6256 6.09117 12.6419 6.12378L13.5144 8.37426C13.6122 8.61072 13.8895 8.72487 14.1259 8.62703C14.1586 8.61072 14.1993 8.59441 14.2238 8.56995L17.6484 6.02594C17.8523 5.87101 17.9012 5.58563 17.7463 5.37362C17.6484 5.23501 17.4772 5.16162 17.306 5.18608L15.0473 5.48778C14.9413 5.50409 14.8435 5.43885 14.8027 5.34101L13.6122 2.29145C13.5144 2.05499 13.2453 1.94084 13.0089 2.03053C12.9436 2.05499 12.8866 2.09576 12.8376 2.15284L10.261 4.94962C10.1958 5.02301 10.0898 5.03931 10.0001 5.0067L6.60806 3.57161C6.37159 3.47377 6.09436 3.57977 5.98836 3.82439C5.9639 3.87331 5.95574 3.93039 5.95574 3.98746L5.83344 7.48548C5.82528 7.60779 5.73559 7.69748 5.61328 7.71379L2.5148 7.91764C2.25388 7.93394 2.06634 8.1541 2.08265 8.41502C2.0908 8.49656 2.11526 8.5781 2.16419 8.64333L4.22712 11.6847C4.2842 11.7744 4.2842 11.8886 4.21081 11.9701L2.11526 14.3755C1.94403 14.5712 1.96849 14.8648 2.15603 15.0278C2.1968 15.0604 2.23757 15.0849 2.27834 15.1094L4.70005 16.1531C4.80605 16.1938 4.86312 16.3161 4.83051 16.4221L3.29758 22.4153C3.23235 22.668 3.38727 22.9208 3.63189 22.986C3.7705 23.0186 3.90912 22.9942 4.02327 22.9126L9.78807 18.7786C9.86961 18.7215 9.97561 18.7215 10.0572 18.7786L12.6827 20.6214C12.8947 20.7682 13.1882 20.7192 13.335 20.5072L13.3432 20.4991L14.9821 17.9795C15.031 17.9061 15.1207 17.8654 15.2104 17.8817L19.1324 18.3546C19.4504 18.4035 19.7684 18.1345 19.6543 17.8409L18.0235 13.6091C17.9746 13.4867 18.0398 13.3481 18.1621 13.2992L21.1464 11.8886C21.5868 11.6684 21.4318 10.9835 20.9263 10.9835Z" fill="#8039E9"/>
</svg>
