<svg width="64" height="64" viewBox="0 0 64 64" fill="none" xmlns="http://www.w3.org/2000/svg">
<g clip-path="url(#clip0_1_6)">
<path fill-rule="evenodd" clip-rule="evenodd" d="M1.30792 6.55211C0 9.11905 0 12.4794 0 19.2V44.8C0 51.5206 0 54.8809 1.30792 57.4479C2.4584 59.7058 4.29417 61.5416 6.55211 62.6921C9.11905 64 12.4794 64 19.2 64H44.8C51.5206 64 54.8809 64 57.4479 62.6921C59.7058 61.5416 61.5416 59.7058 62.6921 57.4479C64 54.8809 64 51.5206 64 44.8V19.2C64 12.4794 64 9.11905 62.6921 6.55211C61.5416 4.29417 59.7058 2.4584 57.4479 1.30792C54.8809 0 51.5206 0 44.8 0H19.2C12.4794 0 9.11905 0 6.55211 1.30792C4.29417 2.4584 2.4584 4.29417 1.30792 6.55211ZM23.6668 24.1662L15.3325 32.5005L7 24.1662L15.3325 15.8337L23.6668 24.1662ZM40.3342 24.1681L32.0048 32.4993L40.3357 40.832L32.0032 49.1663L23.6689 40.832L32.0016 32.4993L23.6689 24.1666L32.0032 15.8358L40.3348 24.1656L48.6675 15.8346L57 24.1672L48.6675 32.5014L40.3342 24.1681Z" fill="white"/>
</g>
<defs>
<clipPath id="clip0_1_6">
<rect width="64" height="64" fill="white"/>
</clipPath>
</defs>
</svg>
