<svg stroke="currentColor" fill="currentColor" stroke-width="0" version="1.1" x="0px" y="0px" viewBox="0 0 48 48" enable-background="new 0 0 48 48" height="1em" width="1em" xmlns="http://www.w3.org/2000/svg"><path fill="#37474F" d="M0,17v14h14V17H0z M34,17v14h14V17H34z M17,17v14h14V17H17z"></path><path fill="#FFFFFF" d="M8.2,23.7c0,0,1.3-0.5,1.3-2c0,0,0.2-2.4-3-2.7H3v10h4c0,0,3.4,0,3.4-2.8C10.4,26.2,10.5,24.3,8.2,23.7z
	 M4.8,20.6h1.4c1.5,0.1,1.4,1.2,1.4,1.2c0,1.4-1.6,1.4-1.6,1.4H4.8V20.6z M6.7,27.5H4.8v-2.7h1.9c1.9,0,1.9,1.3,1.9,1.3
	C8.5,27.5,6.7,27.5,6.7,27.5z M25.2,23.7c0,0,1.3-0.5,1.3-2c0,0,0.2-2.4-3-2.7H20v10h4c0,0,3.4,0,3.4-2.8
	C27.4,26.2,27.5,24.3,25.2,23.7z M21.8,20.6h1.4c1.5,0.1,1.4,1.2,1.4,1.2c0,1.4-1.6,1.4-1.6,1.4h-1.2V20.6z M23.7,27.5h-1.9v-2.7
	h1.9c1.9,0,1.9,1.3,1.9,1.3C25.5,27.5,23.7,27.5,23.7,27.5z M45.3,28.1c0,0-2.9,1.8-6.3,0.4c0,0-2.9-1.1-3-4.5c0,0-0.1-3.5,3.7-4.7
	c0,0,1-0.4,2.8-0.2c0,0,1.1,0.1,2.7,0.8v1.8c0,0-1.7-1.1-3.7-1.1c0,0-3.6-0.1-3.8,3.5c0,0-0.1,3.3,3.7,3.4c0,0,1.6,0.2,3.8-1.2
	L45.3,28.1L45.3,28.1z"></path></svg>