<?xml version="1.0" encoding="UTF-8"?>
<!--Generator: Apple Native CoreSVG 326-->
<!DOCTYPE svg
PUBLIC "-//W3C//DTD SVG 1.1//EN"
       "http://www.w3.org/Graphics/SVG/1.1/DTD/svg11.dtd">
<svg version="1.1" xmlns="http://www.w3.org/2000/svg" xmlns:xlink="http://www.w3.org/1999/xlink" viewBox="0 0 21.2891 17.002">
 <g>
  <rect height="17.002" opacity="0" width="21.2891" x="0" y="0"/>
  <path d="M3.06641 15.0879L17.8613 15.0879C19.9121 15.0879 20.9277 14.0723 20.9277 12.0605L20.9277 4.96094C20.9277 2.94922 19.9121 1.93359 17.8613 1.93359L3.06641 1.93359C1.02539 1.93359 0 2.93945 0 4.96094L0 12.0605C0 14.082 1.02539 15.0879 3.06641 15.0879ZM3.08594 13.5156C2.10938 13.5156 1.57227 12.998 1.57227 11.9824L1.57227 5.03906C1.57227 4.02344 2.10938 3.50586 3.08594 3.50586L17.8418 3.50586C18.7988 3.50586 19.3555 4.02344 19.3555 5.03906L19.3555 11.9824C19.3555 12.998 18.7988 13.5156 17.8418 13.5156ZM3.36914 2.57812L4.94141 2.57812L4.94141 0.800781C4.94141 0.332031 4.61914 0.0195312 4.15039 0.0195312C3.68164 0.0195312 3.36914 0.332031 3.36914 0.800781ZM6.52344 2.57812L8.0957 2.57812L8.0957 0.800781C8.0957 0.332031 7.77344 0.0195312 7.30469 0.0195312C6.83594 0.0195312 6.52344 0.332031 6.52344 0.800781ZM9.67773 2.57812L11.25 2.57812L11.25 0.800781C11.25 0.332031 10.9277 0.0195312 10.459 0.0195312C9.99023 0.0195312 9.67773 0.332031 9.67773 0.800781ZM12.832 2.57812L14.4043 2.57812L14.4043 0.800781C14.4043 0.332031 14.0918 0.0195312 13.623 0.0195312C13.1543 0.0195312 12.832 0.332031 12.832 0.800781ZM15.9863 2.57812L17.5586 2.57812L17.5586 0.800781C17.5586 0.332031 17.2461 0.0195312 16.7773 0.0195312C16.3086 0.0195312 15.9863 0.332031 15.9863 0.800781ZM3.36914 14.4629L3.36914 16.2109C3.36914 16.6797 3.68164 17.002 4.15039 17.002C4.61914 17.002 4.94141 16.6797 4.94141 16.2109L4.94141 14.4629ZM6.52344 14.4629L6.52344 16.2109C6.52344 16.6797 6.83594 17.002 7.30469 17.002C7.77344 17.002 8.0957 16.6797 8.0957 16.2109L8.0957 14.4629ZM9.67773 14.4629L9.67773 16.2109C9.67773 16.6797 9.99023 17.002 10.459 17.002C10.9277 17.002 11.25 16.6797 11.25 16.2109L11.25 14.4629ZM12.832 14.4629L12.832 16.2109C12.832 16.6797 13.1543 17.002 13.623 17.002C14.0918 17.002 14.4043 16.6797 14.4043 16.2109L14.4043 14.4629ZM15.9863 14.4629L15.9863 16.2109C15.9863 16.6797 16.3086 17.002 16.7773 17.002C17.2461 17.002 17.5586 16.6797 17.5586 16.2109L17.5586 14.4629Z" fill="white" fill-opacity="0.85"/>
 </g>
</svg>
