<?xml version="1.0" standalone="no"?><!DOCTYPE svg PUBLIC "-//W3C//DTD SVG 1.1//EN" "http://www.w3.org/Graphics/SVG/1.1/DTD/svg11.dtd"><svg t="1709700828432" class="icon" viewBox="0 0 1024 1024" version="1.1" xmlns="http://www.w3.org/2000/svg" p-id="1623" xmlns:xlink="http://www.w3.org/1999/xlink" width="200" height="200"><path d="M810.666667 469.333333 213.333333 469.333333c-115.2 0-213.333333-93.866667-213.333333-213.333333 0-119.466667 93.866667-213.333333 213.333333-213.333333L810.666667 42.666667c115.2 0 213.333333 93.866667 213.333333 213.333333C1024 375.466667 930.133333 469.333333 810.666667 469.333333zM213.333333 128C140.8 128 85.333333 183.466667 85.333333 256c0 72.533333 55.466667 128 128 128L810.666667 384c68.266667 0 128-55.466667 128-128 0-72.533333-55.466667-128-128-128L213.333333 128z" p-id="1624" fill="#e6e6e6"></path><path d="M810.666667 981.333333 213.333333 981.333333c-115.2 0-213.333333-93.866667-213.333333-213.333333 0-119.466667 93.866667-213.333333 213.333333-213.333333L810.666667 554.666667c115.2 0 213.333333 93.866667 213.333333 213.333333C1024 887.466667 930.133333 981.333333 810.666667 981.333333zM213.333333 640c-68.266667 0-128 55.466667-128 128 0 72.533333 55.466667 128 128 128L810.666667 896c68.266667 0 128-55.466667 128-128 0-72.533333-55.466667-128-128-128L213.333333 640z" p-id="1625" fill="#e6e6e6"></path><path d="M213.333333 469.333333c-119.466667 0-213.333333-93.866667-213.333333-213.333333s93.866667-213.333333 213.333333-213.333333 213.333333 93.866667 213.333333 213.333333S332.8 469.333333 213.333333 469.333333zM213.333333 128C140.8 128 85.333333 183.466667 85.333333 256s55.466667 128 128 128 128-55.466667 128-128S285.866667 128 213.333333 128z" p-id="1626" fill="#e6e6e6"></path><path d="M810.666667 981.333333c-119.466667 0-213.333333-93.866667-213.333333-213.333333s93.866667-213.333333 213.333333-213.333333 213.333333 93.866667 213.333333 213.333333S930.133333 981.333333 810.666667 981.333333zM810.666667 640c-72.533333 0-128 55.466667-128 128s55.466667 128 128 128 128-55.466667 128-128S883.2 640 810.666667 640z" p-id="1627" fill="#e6e6e6"></path></svg>