<?xml version="1.0" encoding="UTF-8"?>
<svg width="200px" height="200px" viewBox="0 0 200 200" version="1.1" xmlns="http://www.w3.org/2000/svg" xmlns:xlink="http://www.w3.org/1999/xlink">
    <title>Icon</title>
    <defs>
        <linearGradient x1="7.80248191%" y1="93.0878579%" x2="91.5091729%" y2="6.5476322%" id="linearGradient-1">
            <stop stop-color="#3F5EFB" offset="0%"></stop>
            <stop stop-color="#FC466B" offset="100%"></stop>
        </linearGradient>
    </defs>
    <g id="Icon" stroke="none" stroke-width="1" fill="none" fill-rule="evenodd">
        <rect id="矩形备份" fill="url(#linearGradient-1)" x="0" y="0" width="200" height="200" rx="50"></rect>
        <path d="M65.8947373,110 L150.052632,110 C157.203266,110 163,115.708369 163,122.75 L163,148.25 C163,155.291631 157.203266,161 150.052632,161 L65.8947373,161 C56.6434388,161 48.0948863,156.139728 43.469237,148.25 C38.8435877,140.360273 38.8435877,130.639727 43.469237,122.75 C48.0948863,114.860272 56.6434388,110 65.8947373,110 Z M66.5,144 C71.7467051,144 76,139.746705 76,134.5 C76,129.253295 71.7467051,125 66.5,125 C61.2532949,125 57,129.253295 57,134.5 C57,139.746705 61.2532949,144 66.5,144 L66.5,144 Z M40,102.791166 L40,50.8157638 C40,43.7311526 45.705625,38 52.75,38 L78.25,38 C85.294375,38 91,43.7343905 91,50.8125258 L91,53.9727546 C91,57.3725909 89.6580625,60.6299578 87.26425,63.0325088 L45.44425,105.060961 C44.1934294,106.313013 42.1847581,106.313013 40.9339375,105.060961 C40.3368267,104.462673 40,103.646379 40,102.794403 L40,102.791166 Z M69.9442622,94.4237306 L109.298395,54.8410381 C114.395762,49.719654 122.641899,49.719654 127.739266,54.8410381 L146.180136,73.3894022 C148.625496,75.846103 150,79.1832372 150,82.6635843 C150,86.1439314 148.625496,89.4810656 146.180136,91.9377664 L141.967672,96.171419 C139.530712,98.6218425 136.22967,99.9985747 132.787741,100 L72.2384348,100 C70.9289899,99.9978612 69.7492496,99.2021828 69.2475792,97.9828109 C68.7459087,96.763439 69.0207147,95.3595631 69.9442622,94.4237306 L69.9442622,94.4237306 Z" id="形状" fill="#FFFFFF"></path>
    </g>
</svg>