<svg xmlns="http://www.w3.org/2000/svg" viewBox="0 0 32 32"><path fill="#7c4dff" d="M12.106 25.849c-1.262-1.156-1.63-3.586-1.105-5.346a5.18 5.18 0 0 0 3.484 1.66 9.68 9.68 0 0 0 5.882-.734c.215-.106.413-.247.648-.39a3.5 3.5 0 0 1 .16 1.555 4.26 4.26 0 0 1-1.798 3.021c-.404.3-.832.569-1.25.852a2.613 2.613 0 0 0-1.15 3.372l.048.161a3.4 3.4 0 0 1-1.5-1.285 3.6 3.6 0 0 1-.578-1.962 9 9 0 0 0-.05-1.037c-.114-.831-.504-1.204-1.238-1.225a1.45 1.45 0 0 0-1.507 1.18c-.012.056-.028.112-.046.178M4.901 20a17.75 17.75 0 0 1 7.4-2l2.913-8.38a.765.765 0 0 1 1.527 0L19.7 18a14.24 14.24 0 0 1 7.399 2S20.704 2.877 20.692 2.842C20.51 2.33 20.202 2 19.787 2h-7.619c-.415 0-.71.33-.904.842z"/></svg>