<svg xmlns="http://www.w3.org/2000/svg" viewBox="0 0 16 16"><path fill="#ffca28" d="M2 2h12v12H2zm3.153 10.027c.267.567.794 1.033 1.694 1.033 1 0 1.686-.533 1.686-1.7V7.507H7.4v3.827c0 .573-.233.72-.6.72-.387 0-.547-.267-.727-.58zm3.987-.12c.333.653 1.007 1.153 2.06 1.153 1.067 0 1.867-.553 1.867-1.573 0-.94-.54-1.36-1.5-1.773l-.28-.12c-.487-.207-.694-.347-.694-.68 0-.274.207-.487.54-.487.32 0 .534.14.727.487l.873-.58c-.366-.64-.886-.887-1.6-.887-1.006 0-1.653.64-1.653 1.487 0 .92.54 1.353 1.353 1.7l.28.12c.52.226.827.366.827.753 0 .32-.3.553-.767.553-.553 0-.873-.286-1.113-.686z"/></svg>