<svg xmlns="http://www.w3.org/2000/svg" viewBox="0 0 24 24"><path fill="#ba68c8" d="M11.057 2.981c.537.735.028 1.653.141 2.472a3.42 3.42 0 0 1-1.03 2.415c-1.414 1.625-3.165 3.038-4.097 5.03a5.28 5.28 0 0 0 1.412 5.847c.706.735 1.54 1.342 2.472 1.738.17.805-1.088.184-1.455 0A6.7 6.7 0 0 1 4.361 16.4a5.44 5.44 0 0 1 .904-5.368c1.272-1.61 3.136-2.543 4.662-3.857.565-.55 1.003-1.3.932-2.119.156-.678-.254-1.469.212-2.09zm-.07 18.929c-.17.198-.467.325-.495.24-.042-.085.212-.127.381-.325.17-.183.127-.522.24-.522.1 0 .043.395-.14.607zm2.16 0c.17.198.453.31.495.24.028-.085-.212-.141-.395-.339-.156-.184-.113-.523-.24-.523-.085 0-.029.41.14.608zm-1.03.48c-.1 0-.071-.296-.071-.65 0-.367-.028-.663.07-.663.085 0 .057.296.057.663 0 .354.014.65-.057.65m-.495-20.765c.34.24.254 2.077.254 3.136 0 1.653.184 3.376-.805 4.916-.96 1.497-2.048 3.108-1.95 4.972.1 1.837.99 3.504 2.148 5.043.664.876-.353.509-.876.085a7.2 7.2 0 0 1-2.755-5.664c.142-1.907 1.597-3.348 2.628-4.803.805-1.13 1.186-1.879 1.215-3.645.028-1.412-.142-3.531.042-3.983.014-.043.07-.1.099-.057m.537 2.232c-.085 0-.043.396.028.72.424 2.26-.198 4.52-.749 6.682a12.77 12.77 0 0 0 .283 7.826c.607 1.568 1.71.791 2.161 1.568.34.593 1.272.198 1.978-.141 2.232-1.102 4.012-3.108 4.11-5.566.029-.494 0-.989-.07-1.497-.283-1.837-1.78-3.065-3.15-4.083-1.215-.89-2.74-1.483-3.659-2.613-.523-.65-.297-1.638-.381-2.458-.043-.452-.255-.042-.382-.268-.084-.127-.14-.17-.17-.17zm.72 3.616c.057 0 .17.071.325.226a20 20 0 0 0 2.161 1.921c1.272.961 2.43 2.091 2.967 3.504.339.875.339 1.836.226 2.74-.184 1.384-1.187 2.444-2.119 3.404-.339.354-1.06.791-1.074.678-.084-.367.763-1.172 1.159-1.695A5.93 5.93 0 0 0 16 10.962c-1.102-1.214-2.317-1.907-2.995-3.08-.14-.253-.183-.409-.113-.409z"/></svg>