<svg xmlns="http://www.w3.org/2000/svg" viewBox="0 0 32 32"><path fill="#03a9f4" d="M29.07 6H7.677A1.535 1.535 0 0 0 6.24 7.113l-4.2 17.774A.852.852 0 0 0 2.93 26h21.393a1.535 1.535 0 0 0 1.436-1.113L29.96 7.112A.852.852 0 0 0 29.07 6M8.626 23.797a1.4 1.4 0 0 1-1.814-.31l-.007-.009a1.075 1.075 0 0 1 .315-1.599l9.6-6.061-6.102-5.852-.01-.01a1.068 1.068 0 0 1 .084-1.625l.037-.03a1.38 1.38 0 0 1 1.8.07l7.233 6.957a1.1 1.1 0 0 1 .236.739 1.08 1.08 0 0 1-.412.79c-.074.04-.146.119-10.951 6.935ZM24 22.94A1.135 1.135 0 0 1 22.803 24h-5.634a1.061 1.061 0 1 1 .001-2.112h5.633A1.134 1.134 0 0 1 24 22.938Z"/></svg>