<svg xmlns:xlink="http://www.w3.org/1999/xlink" xmlns="http://www.w3.org/2000/svg" role="img" class="hc-icon hc-icon-disk-local ng-star-inserted" aria-label="disk-local" width="24"  height="14" ><defs><symbol id="disk-local" viewBox="0 0 24 14"><path d="M6.81172 8.53645H7.64306V5.06598H6.80934V7.22549L5.58257 5.06598H4.74646L4.74646 8.53645H5.58257V6.37694L6.81172 8.53645Z"></path><path d="M10.2953 5.06596L9.60447 7.59254L8.91605 5.06596L7.98942 5.06596L9.14711 8.53643H10.0618L11.229 5.06596H10.2953Z"></path><path d="M13.4406 7.48052L12.6664 5.06597L11.5683 5.06597L11.5683 8.53644H12.4044V7.72602L12.3234 6.06468L13.1643 8.53644L13.7169 8.53644L14.5554 6.06706L14.4744 7.72602V8.53644H15.3129L15.3129 5.06596L14.2124 5.06596L13.4406 7.48052Z"></path><path fill-rule="evenodd" clip-rule="evenodd" d="M16.1809 8.23014C16.4255 8.46612 16.7455 8.5841 17.1409 8.5841C17.3521 8.5841 17.5494 8.54319 17.7329 8.46135C17.9163 8.37951 18.058 8.26947 18.1581 8.13123L17.7912 7.69742C17.6483 7.87539 17.4498 7.96438 17.1957 7.96438C17.0417 7.96438 16.9162 7.92306 16.8193 7.84043C16.7225 7.7578 16.6597 7.64418 16.6312 7.49958H18.2271V7.18733C18.2271 6.7853 18.1223 6.47187 17.9127 6.24702C17.7031 6.02217 17.4172 5.90974 17.0552 5.90974C16.7979 5.90974 16.5756 5.96496 16.3882 6.0754C16.2008 6.18584 16.0583 6.34196 15.9606 6.54377C15.8629 6.74558 15.8141 6.97837 15.8141 7.24216V7.3089C15.8141 7.68709 15.9364 7.99417 16.1809 8.23014ZM16.6312 6.99667C16.6756 6.68521 16.8154 6.52949 17.0504 6.52949C17.1775 6.52949 17.2751 6.56484 17.3434 6.63556C17.4117 6.70627 17.4442 6.80598 17.4411 6.93469V6.99667L16.6312 6.99667Z"></path><path fill-rule="evenodd" clip-rule="evenodd" d="M3 13.4766C1.34314 13.4766 0 12.1335 0 10.4766V8.66557C0.0788454 8.67985 0.160065 8.68731 0.243026 8.68731C0.325986 8.68731 0.407204 8.67986 0.486048 8.66557C1.1185 8.55098 1.59816 7.99721 1.59816 7.33133C1.59816 6.66545 1.1185 6.11168 0.486053 5.99709C0.407207 5.98281 0.325988 5.97535 0.243027 5.97535C0.160066 5.97535 0.0788457 5.98281 0 5.99709V3.52334C0 1.86649 1.34315 0.523346 3 0.523346H18.562C19.9675 0.523346 21.1472 1.48981 21.4728 2.7944L23 2.7944C23.5523 2.7944 24 3.24212 24 3.7944V7.45323C24 8.00551 23.5523 8.45323 23 8.45323L21.562 8.45323V9.626L23.4478 9.626C23.7528 9.626 24 9.87323 24 10.1782C24 10.4832 23.7528 10.7304 23.4478 10.7304L21.5514 10.7304C21.4226 12.2685 20.1334 13.4766 18.562 13.4766L3 13.4766ZM18.562 2.22335C19.28 2.22335 19.862 2.80537 19.862 3.52335V10.4766C19.862 11.1946 19.28 11.7766 18.562 11.7766L3 11.7766C2.28203 11.7766 1.7 11.1946 1.7 10.4766V10.0181C2.65224 9.50035 3.29816 8.49087 3.29816 7.33133C3.29816 6.17179 2.65224 5.16231 1.7 4.64454L1.7 3.52334C1.7 2.80538 2.28203 2.22335 3 2.22335L18.562 2.22335Z"></path></symbol></defs><use xlink:href="#disk-local" stroke="#EDEDED" fill="#EF1F42" stroke-width="0px"></use></svg>