<svg xmlns:xlink="http://www.w3.org/1999/xlink" xmlns="http://www.w3.org/2000/svg" role="img" class="hc-icon hc-icon-cpu ng-star-inserted" aria-label="cpu" width="18"  height="24" ><defs><symbol id="cpu" viewBox="0 0 18 24"><path d="M5.30541 0C4.75313 0 4.30541 0.447715 4.30541 1V2.40064H6.65271V1C6.65271 0.447715 6.20499 0 5.65271 0H5.30541Z"></path><path fill-rule="evenodd" clip-rule="evenodd" d="M12.4688 7.3353H5.53122C4.92625 7.3353 4.43582 7.83687 4.43582 8.4556V15.5508C4.43582 16.1695 4.92625 16.6711 5.53122 16.6711H12.4688C13.0738 16.6711 13.5642 16.1695 13.5642 15.5508V8.4556C13.5642 7.83687 13.0738 7.3353 12.4688 7.3353ZM11.702 14.7666H6.298V9.23981H11.702V14.7666Z"></path><path fill-rule="evenodd" clip-rule="evenodd" d="M4.07069 3.60096H13.9293C15.7442 3.60096 17.2155 5.10568 17.2155 6.96186V17.0445C17.2155 18.9007 15.7442 20.4054 13.9293 20.4054H4.07069C2.25576 20.4054 0.784477 18.9007 0.784477 17.0445V6.96186C0.784477 5.10568 2.25576 3.60096 4.07069 3.60096ZM4.07069 5.50548C3.28422 5.50548 2.64666 6.15753 2.64666 6.96187V17.0446C2.64666 17.8489 3.28422 18.5009 4.07069 18.5009H13.9293C14.7158 18.5009 15.3533 17.8489 15.3533 17.0446V6.96187C15.3533 6.15753 14.7158 5.50548 13.9293 5.50548H4.07069Z"></path><path d="M5.64801 24C6.20029 24 6.64801 23.5523 6.64801 23V21.5993H4.30072V23C4.30072 23.5523 4.74843 24 5.30072 24H5.64801Z"></path><path d="M9.1752 24C9.72749 24 10.1752 23.5523 10.1752 23V21.5993H7.82791V23C7.82791 23.5523 8.27562 24 8.82791 24H9.1752Z"></path><path d="M13.6915 23C13.6915 23.5523 13.2438 24 12.6915 24H12.3442C11.7919 24 11.3442 23.5523 11.3442 23V21.5993H13.6915V23Z"></path><path d="M7.82635 1C7.82635 0.447715 8.27406 0 8.82635 0H9.17364C9.72592 0 10.1736 0.447715 10.1736 1V2.40064H7.82635V1Z"></path><path d="M12.3473 0C11.795 0 11.3473 0.447715 11.3473 1V2.40064H13.6946V1C13.6946 0.447715 13.2469 0 12.6946 0H12.3473Z"></path></symbol></defs><use xlink:href="#cpu" stroke="#EDEDED" fill="#EF1F42" stroke-width="0px"></use></svg>