<svg xmlns:xlink="http://www.w3.org/1999/xlink" xmlns="http://www.w3.org/2000/svg" role="img" class="hc-icon hc-icon-globe ng-star-inserted" aria-label="globe" width="24"  height="24" ><defs><symbol id="globe" viewBox="0 0 24 24"><path fill-rule="evenodd" clip-rule="evenodd" d="M13 21.9506C13.4447 21.9065 13.8809 21.8332 14.3065 21.7327C14.3395 21.6813 14.3776 21.6212 14.4202 21.5534C14.5783 21.3016 14.796 20.9444 15.0329 20.5258C15.2615 20.1218 15.5013 19.6723 15.7211 19.2127C14.9981 19.0922 14.2365 19.0346 13.5579 19.0121C13.3612 19.0056 13.1741 19.0021 13 19.0007V21.9506ZM11 21.9506V19.0218C10.7326 19.0236 10.3987 19.0306 10.0261 19.0489C9.57122 19.0713 9.07257 19.11 8.57436 19.1734C8.74525 19.4784 8.92234 19.7791 9.09778 20.0667C9.42222 20.5984 9.72747 21.0633 9.95152 21.395C10.0634 21.5607 10.1546 21.6925 10.2173 21.7823L10.2649 21.85C10.5071 21.8924 10.7522 21.926 11 21.9506ZM7.65592 17.2883C8.45849 17.1509 9.26353 17.084 9.92777 17.0513C10.339 17.0311 10.7064 17.0235 11 17.0218V13H6.99673C7.00076 13.2006 7.00787 13.4247 7.01969 13.6649C7.06705 14.6269 7.1874 15.7848 7.46005 16.7202C7.5126 16.9004 7.57877 17.0908 7.65592 17.2883ZM4.99636 13C5.00058 13.2283 5.00846 13.4858 5.02211 13.7632C5.07202 14.7772 5.20166 16.1193 5.53996 17.2799C5.58875 17.4473 5.64551 17.6185 5.70884 17.7923C5.15239 17.9845 4.68295 18.185 4.2949 18.3747C3.0612 16.8852 2.25113 15.0321 2.04938 13H4.99636ZM6.97115 11H11V7.02714C10.6855 7.03123 10.3015 7.03008 9.87591 7.01599C9.16596 6.99247 8.31025 6.93223 7.45698 6.79034C7.45605 6.7933 7.45512 6.79626 7.45419 6.79922C7.13966 7.80226 7.01814 9.06966 6.98292 10.1331C6.97236 10.452 6.96972 10.7459 6.97115 11ZM5.51875 6.2888C5.14369 7.53276 5.02025 8.97288 4.98401 10.0669C4.97266 10.4098 4.9697 10.7257 4.97112 11H2.04938C2.24696 9.00996 3.02794 7.19155 4.21888 5.71821C4.57733 5.90842 5.00792 6.10436 5.51875 6.2888ZM8.2836 4.89016C8.84865 4.96169 9.41997 4.99979 9.94211 5.01708C10.3445 5.03041 10.7069 5.03111 11 5.02696V2.04938C10.5936 2.08973 10.1943 2.15441 9.80369 2.24195L9.79071 2.26269C9.58424 2.59277 9.30252 3.05359 9.00167 3.5761C8.75925 3.99712 8.51186 4.44556 8.2836 4.89016ZM13 2.04938C13.4372 2.09278 13.8661 2.16435 14.2849 2.26223C14.3164 2.31782 14.3523 2.38176 14.392 2.45323C14.5507 2.73855 14.7693 3.1423 15.0075 3.61356C15.1879 3.97058 15.3763 4.35981 15.557 4.76095C14.8591 4.88337 14.122 4.9484 13.4739 4.98031C13.3074 4.9885 13.1486 4.99443 13 4.99864V2.04938ZM16.2913 6.6566C15.3463 6.85217 14.3602 6.9391 13.5722 6.97789C13.3697 6.98786 13.1777 6.99475 13 6.99938V11H17.1495C17.115 10.7557 17.0748 10.482 17.0293 10.1901C16.8568 9.08483 16.6147 7.76278 16.3282 6.77985C16.3163 6.73901 16.304 6.69792 16.2913 6.6566ZM19.1686 11C19.1256 10.6842 19.0708 10.3014 19.0054 9.88182C18.8305 8.76105 18.5727 7.3331 18.2483 6.22016C18.2352 6.1754 18.2218 6.13049 18.2081 6.08546C18.7594 5.87507 19.2113 5.66078 19.5709 5.46664C20.88 6.98226 21.7416 8.89513 21.9506 11H19.1686ZM17.1866 13H13V17.0007C13.1943 17.0021 13.4036 17.0059 13.6241 17.0132C14.4464 17.0405 15.4642 17.117 16.4473 17.3125C16.7185 16.3176 16.9226 15.0819 17.0634 14.0187C17.1128 13.6455 17.1538 13.2993 17.1866 13ZM18.3637 17.8864C18.6804 16.7391 18.9014 15.3737 19.0461 14.2813C19.1102 13.797 19.1606 13.3569 19.1981 13H21.9506C21.7435 15.0861 20.8953 16.9836 19.6058 18.4927C19.2735 18.2965 18.8627 18.0875 18.3637 17.8864ZM17.6709 19.7637C17.5632 20.0005 17.4509 20.2331 17.3376 20.4579C17.5917 20.2972 17.8381 20.1253 18.076 19.9431C17.9521 19.8839 17.8172 19.8238 17.6709 19.7637ZM18.0086 4.00571C17.8543 4.07405 17.6857 4.14397 17.5024 4.21408C17.3832 3.94102 17.2611 3.67475 17.1403 3.42051C17.4403 3.60064 17.7301 3.79607 18.0086 4.00571ZM6.27499 4.43511C6.07237 4.36387 5.88703 4.29125 5.71807 4.21899C6.05087 3.94997 6.40128 3.70187 6.76729 3.47668C6.59979 3.78785 6.43273 4.11078 6.27499 4.43511ZM0.0410738 11C0.549225 4.84047 5.70934 0 12 0C18.6274 0 24 5.37258 24 12C24 18.6274 18.6274 24 12 24C5.70934 24 0.549225 19.1595 0.0410738 13H0V11H0.0410738ZM5.83895 19.8772C6.05125 19.7923 6.28514 19.7064 6.54141 19.6222C6.75218 20.0214 6.97216 20.4084 7.18463 20.7664C6.71139 20.5059 6.26152 20.2082 5.83895 19.8772Z"></path></symbol></defs><use xlink:href="#globe" stroke="#EDEDED" fill="#EF1F42" stroke-width="0px"></use></svg>