<svg xmlns:xlink="http://www.w3.org/1999/xlink" xmlns="http://www.w3.org/2000/svg" role="img" class="hc-icon hc-icon-ram ng-star-inserted" aria-label="ram" width="24"  height="16" ><defs><symbol id="ram" viewBox="0 0 24 16"><path d="M13.0095 3.98235C13.5617 3.98235 14.0095 4.43006 14.0095 4.98235V9.37288C14.0095 9.92516 13.5617 10.3729 13.0095 10.3729H11.4135C10.8612 10.3729 10.4135 9.92516 10.4135 9.37288L10.4135 4.98235C10.4135 4.43006 10.8612 3.98235 11.4135 3.98235L13.0095 3.98235Z"></path><path d="M8.49231 4.98234C8.49231 4.43005 8.0446 3.98234 7.49231 3.98234L5.89635 3.98234C5.34407 3.98234 4.89635 4.43005 4.89635 4.98234V9.37287C4.89635 9.92516 5.34407 10.3729 5.89635 10.3729H7.49231C8.0446 10.3729 8.49231 9.92516 8.49231 9.37287V4.98234Z"></path><path d="M18.5266 3.98235C19.0789 3.98235 19.5266 4.43006 19.5266 4.98235V9.37288C19.5266 9.92516 19.0789 10.3729 18.5266 10.3729H16.9307C16.3784 10.3729 15.9307 9.92516 15.9307 9.37288V4.98235C15.9307 4.43006 16.3784 3.98235 16.9307 3.98235H18.5266Z"></path><path fill-rule="evenodd" clip-rule="evenodd" d="M24 5.05398C24 2.29256 21.7614 0.0539787 19 0.0539786L5 0.053978C2.23858 0.0539778 3.13036e-07 2.29256 1.9233e-07 5.05398L0 9.45398C-7.87978e-08 11.2567 0.953991 12.8365 2.38466 13.7163V14.946C2.38466 15.4983 2.83237 15.946 3.38465 15.946L20.6142 15.946C21.1665 15.946 21.6142 15.4983 21.6142 14.946V13.717C23.0455 12.8374 24 11.2571 24 9.45398V5.05398ZM22 9.45398V5.05398C22 3.39713 20.6569 2.05398 19 2.05398L5 2.05398C3.34315 2.05398 2 3.39713 2 5.05398L2 9.45398C2 11.1108 3.34315 12.454 5 12.454L19 12.454C20.6569 12.454 22 11.1108 22 9.45398Z"></path></symbol></defs><use xlink:href="#ram" stroke="#EDEDED" fill="#EF1F42" stroke-width="0px"></use></svg>