<svg xmlns:xlink="http://www.w3.org/1999/xlink" xmlns="http://www.w3.org/2000/svg" role="img" class="hc-icon hc-icon-euro ng-star-inserted" aria-label="euro" width="22"  height="22" ><defs><symbol id="euro" viewBox="0 0 17 16"><path d="M3.05198839 7.43791616C3.54130295 2.4803801 7.4074291-.29867895 11.3600486.02553798c2.0234337.16597386 3.6898144 1.07022612 4.9469874 2.68295894l-1.3407598 1.04516189c-.9656722-1.23878838-2.1966889-1.90679281-3.7452048-2.03381113-3.16717042-.25978982-6.26344482 2.03514885-6.50583757 6.25494223.24239275 4.21979339 3.33866715 6.51473209 6.50583757 6.25494219 1.5485159-.1270183 2.7795326-.7950227 3.7452048-2.0338111l1.3407598 1.0451619c-1.257173 1.6127328-2.9235537 2.5169851-4.9469874 2.6829589-3.9526195.324217-7.81874565-2.4548421-8.30806021-7.41237814H3c0-.1814886.00429737-.36045919.01275682-.53687375C3.00429737 7.79837535 3 7.61940476 3 7.43791616h.05198839z" fill-rule="nonzero"></path><path d="M0 8.5h11.4285714v1.70000005H0zM0 5.5h11.4285714v1.70000005H0z"></path></symbol></defs><use xlink:href="#euro" stroke="#EDEDED" fill="#EF1F42" stroke-width="0px"></use></svg>