<svg width="14" height="14" viewBox="0 0 16 16" fill="none" xmlns="http://www.w3.org/2000/svg">
    <path
        d="M12.2161 1.5957C11.4491 1.5957 10.7935 1.86474 10.2493 2.40283C9.70499 2.94092 9.43286 3.59342 9.43286 4.36035C9.43286 4.97884 9.61531 5.5262 9.98022 6.00244C10.3451 6.47868 10.8059 6.80338 11.3625 6.97656C11.3007 7.34766 11.1894 7.68782 11.0286 7.99707C10.8678 8.30632 10.6575 8.58463 10.3977 8.83203C10.0019 9.17839 9.55038 9.45052 9.04321 9.64844C8.52368 9.85872 7.99488 10.0133 7.45679 10.1123C6.9187 10.2113 6.40845 10.2731 5.92603 10.2979C5.43123 10.3226 5.01685 10.335 4.68286 10.335V5.41797C5.25187 5.24479 5.72501 4.91699 6.10229 4.43457C6.47958 3.95215 6.66821 3.4017 6.66821 2.7832C6.66821 2.01627 6.39608 1.36068 5.85181 0.816406C5.30753 0.272133 4.65813 0 3.90356 0C3.13663 0 2.48104 0.272133 1.93677 0.816406C1.39249 1.36068 1.12036 2.01627 1.12036 2.7832C1.12036 3.4017 1.309 3.95215 1.68628 4.43457C2.06356 4.91699 2.5367 5.24479 3.10571 5.41797V10.4277C2.5367 10.6009 2.06356 10.9287 1.68628 11.4111C1.309 11.8936 1.12036 12.444 1.12036 13.0625C1.12036 13.8294 1.39249 14.485 1.93677 15.0293C2.48104 15.5736 3.13663 15.8457 3.90356 15.8457C4.65813 15.8457 5.30753 15.5736 5.85181 15.0293C6.39608 14.485 6.66821 13.8294 6.66821 13.0625C6.66821 12.8522 6.64347 12.645 6.59399 12.4409C6.54451 12.2368 6.4703 12.042 6.37134 11.8564C7.18775 11.7822 8.066 11.6121 9.0061 11.3462C9.94621 11.0802 10.7626 10.6318 11.4553 10.001C11.8883 9.60514 12.2284 9.15674 12.4758 8.65576C12.7232 8.15478 12.884 7.60742 12.9583 7.01367C13.5396 6.85286 14.0221 6.52816 14.4055 6.03955C14.789 5.55094 14.9807 4.99121 14.9807 4.36035C14.9807 3.59342 14.7086 2.94092 14.1643 2.40283C13.62 1.86474 12.9706 1.5957 12.2161 1.5957ZM2.71606 2.7832C2.71606 2.44922 2.83048 2.16781 3.05933 1.93896C3.28817 1.71012 3.56958 1.5957 3.90356 1.5957C4.22518 1.5957 4.5035 1.71012 4.73853 1.93896C4.97355 2.16781 5.09106 2.44922 5.09106 2.7832C5.09106 3.10482 4.97355 3.38314 4.73853 3.61816C4.5035 3.85319 4.22518 3.9707 3.90356 3.9707C3.56958 3.9707 3.28817 3.85319 3.05933 3.61816C2.83048 3.38314 2.71606 3.10482 2.71606 2.7832ZM3.90356 14.25C3.56958 14.25 3.28817 14.1356 3.05933 13.9067C2.83048 13.6779 2.71606 13.3965 2.71606 13.0625C2.71606 12.7409 2.83048 12.4657 3.05933 12.2368C3.28817 12.008 3.56339 11.8874 3.88501 11.875C3.89738 11.8874 3.91284 11.8936 3.9314 11.8936C3.94995 11.8936 3.96541 11.8936 3.97778 11.8936C4.28703 11.9183 4.54988 12.042 4.76636 12.2646C4.98283 12.4873 5.09106 12.7533 5.09106 13.0625C5.09106 13.3965 4.97355 13.6779 4.73853 13.9067C4.5035 14.1356 4.22518 14.25 3.90356 14.25ZM12.2161 5.54785C11.8821 5.54785 11.6007 5.43034 11.3718 5.19531C11.143 4.96029 11.0286 4.68197 11.0286 4.36035C11.0286 4.03874 11.143 3.76042 11.3718 3.52539C11.6007 3.29036 11.8821 3.17285 12.2161 3.17285C12.5377 3.17285 12.816 3.29036 13.051 3.52539C13.2861 3.76042 13.4036 4.03874 13.4036 4.36035C13.4036 4.68197 13.2861 4.96029 13.051 5.19531C12.816 5.43034 12.5377 5.54785 12.2161 5.54785Z"
        fill="currentColor"></path>
</svg>
